<?xml version="1.0" encoding="UTF-8" standalone="no"?>
<!DOCTYPE svg PUBLIC "-//W3C//DTD SVG 1.1//EN"
 "http://www.w3.org/Graphics/SVG/1.1/DTD/svg11.dtd">
<!-- Generated by graphviz version 2.43.0 (0)
 -->
<!-- Title: Pgp3Gtp7IpWrapper Pages: 1 -->
<!--zoomable 332 -->
<svg id="main" version="1.1" xmlns="http://www.w3.org/2000/svg" xmlns:xlink="http://www.w3.org/1999/xlink" xml:space="preserve" onload="init(evt)">
<style type="text/css"><![CDATA[
.edge:hover path { stroke: red; }
.edge:hover polygon { stroke: red; fill: red; }
]]></style>
<script type="text/javascript"><![CDATA[
var edges = document.getElementsByTagName('g');
if (edges && edges.length) {
  for (var i=0;i<edges.length;i++) {
    if (edges[i].id.substr(0,4)=='edge') {
      edges[i].setAttribute('class','edge');
    }
  }
}
]]></script>
        <defs>
                <circle id="rim" cx="0" cy="0" r="7"/>
                <circle id="rim2" cx="0" cy="0" r="3.5"/>
                <g id="zoomPlus">
                        <use xlink:href="#rim" fill="#404040">
                                <set attributeName="fill" to="#808080" begin="zoomplus.mouseover" end="zoomplus.mouseout"/>
                        </use>
                        <path d="M-4,0h8M0,-4v8" fill="none" stroke="white" stroke-width="1.5" pointer-events="none"/>
                </g>
                <g id="zoomMin">
                        <use xlink:href="#rim" fill="#404040">
                                <set attributeName="fill" to="#808080" begin="zoomminus.mouseover" end="zoomminus.mouseout"/>
                        </use>
                        <path d="M-4,0h8" fill="none" stroke="white" stroke-width="1.5" pointer-events="none"/>
                </g>
                <g id="dirArrow">
                        <path fill="none" stroke="white" stroke-width="1.5" d="M0,-3.0v7 M-2.5,-0.5L0,-3.0L2.5,-0.5"/>
                </g>
               <g id="resetDef">
                       <use xlink:href="#rim2" fill="#404040">
                               <set attributeName="fill" to="#808080" begin="reset.mouseover" end="reset.mouseout"/>
                       </use>
               </g>
        </defs>

<script type="text/javascript">
var viewWidth = 1215;
var viewHeight = 332;
var sectionId = 'dynsection-0';
</script>
<script xlink:href="svgpan.js"/>
<svg id="graph" class="graph">
<g id="viewport">
<title>Pgp3Gtp7IpWrapper</title>
<polygon fill="white" stroke="transparent" points="-4,4 -4,-328 1211,-328 1211,4 -4,4"/>
<!-- Node1 -->
<g id="node1" class="node">
<title>Node1</title>
<g id="a_node1"><a xlink:title=" ">
<polygon fill="#bfbfbf" stroke="black" points="740,-221.5 740,-240.5 854,-240.5 854,-221.5 740,-221.5"/>
<text text-anchor="middle" x="797" y="-228.5" font-family="Helvetica,sans-Serif" font-size="10.00">Pgp3Gtp7IpWrapper</text>
</a>
</g>
</g>
<!-- Node19 -->
<g id="node19" class="node">
<title>Node19</title>
<g id="a_node19"><a xlink:href="classPgp3Gtp7.html" target="_top" xlink:title=" ">
<polygon fill="white" stroke="black" points="890,-221.5 890,-240.5 954,-240.5 954,-221.5 890,-221.5"/>
<text text-anchor="middle" x="922" y="-228.5" font-family="Helvetica,sans-Serif" font-size="10.00">Pgp3Gtp7</text>
</a>
</g>
</g>
<!-- Node1&#45;&gt;Node19 -->
<g id="edge30" class="edge">
<title>Node1&#45;&gt;Node19</title>
<path fill="none" stroke="midnightblue" d="M864.21,-231C873.15,-231 881.95,-231 889.86,-231"/>
<polygon fill="midnightblue" stroke="midnightblue" points="864.1,-227.5 854.1,-231 864.1,-234.5 864.1,-227.5"/>
</g>
<!-- Node2 -->
<g id="node2" class="node">
<title>Node2</title>
<g id="a_node2"><a xlink:href="classRstSync.html" target="_top" xlink:title=" ">
<polygon fill="white" stroke="black" points="150,-304.5 150,-323.5 206,-323.5 206,-304.5 150,-304.5"/>
<text text-anchor="middle" x="178" y="-311.5" font-family="Helvetica,sans-Serif" font-size="10.00">RstSync</text>
</a>
</g>
</g>
<!-- Node2&#45;&gt;Node1 -->
<g id="edge1" class="edge">
<title>Node2&#45;&gt;Node1</title>
<path fill="none" stroke="midnightblue" d="M216.43,-314.9C303.43,-316.12 525.45,-314.24 704,-270 730.94,-263.33 760.14,-249.76 778.26,-240.52"/>
<polygon fill="midnightblue" stroke="midnightblue" points="216.32,-311.4 206.26,-314.73 216.2,-318.4 216.32,-311.4"/>
</g>
<!-- Node14 -->
<g id="node14" class="node">
<title>Node14</title>
<g id="a_node14"><a xlink:href="classSynchronizerOneShot.html" target="_top" xlink:title=" ">
<polygon fill="white" stroke="black" points="276,-266.5 276,-285.5 397,-285.5 397,-266.5 276,-266.5"/>
<text text-anchor="middle" x="336.5" y="-273.5" font-family="Helvetica,sans-Serif" font-size="10.00">SynchronizerOneShot</text>
</a>
</g>
</g>
<!-- Node2&#45;&gt;Node14 -->
<g id="edge16" class="edge">
<title>Node2&#45;&gt;Node14</title>
<path fill="none" stroke="midnightblue" d="M216.12,-304.99C240.25,-299.13 271.68,-291.5 296.24,-285.53"/>
<polygon fill="midnightblue" stroke="midnightblue" points="215.15,-301.62 206.26,-307.38 216.8,-308.42 215.15,-301.62"/>
</g>
<!-- Node3 -->
<g id="node3" class="node">
<title>Node3</title>
<g id="a_node3"><a xlink:href="classSynchronizer.html" target="_top" xlink:title=" ">
<polygon fill="white" stroke="black" points="0,-266.5 0,-285.5 80,-285.5 80,-266.5 0,-266.5"/>
<text text-anchor="middle" x="40" y="-273.5" font-family="Helvetica,sans-Serif" font-size="10.00">Synchronizer</text>
</a>
</g>
</g>
<!-- Node3&#45;&gt;Node2 -->
<g id="edge2" class="edge">
<title>Node3&#45;&gt;Node2</title>
<path fill="none" stroke="midnightblue" d="M85.16,-288.34C106.52,-294.31 131.48,-301.28 149.98,-306.45"/>
<polygon fill="midnightblue" stroke="midnightblue" points="85.89,-284.91 75.32,-285.59 84.01,-291.65 85.89,-284.91"/>
</g>
<!-- Node6 -->
<g id="node6" class="node">
<title>Node6</title>
<g id="a_node6"><a xlink:href="classRstSync.html" target="_top" xlink:title=" ">
<polygon fill="white" stroke="black" points="143.5,-228.5 143.5,-247.5 212.5,-247.5 212.5,-228.5 143.5,-228.5"/>
<text text-anchor="middle" x="178" y="-235.5" font-family="Helvetica,sans-Serif" font-size="10.00">RstSync(2)</text>
</a>
</g>
</g>
<!-- Node3&#45;&gt;Node6 -->
<g id="edge6" class="edge">
<title>Node3&#45;&gt;Node6</title>
<path fill="none" stroke="midnightblue" d="M85.16,-263.66C104,-258.4 125.63,-252.35 143.16,-247.45"/>
<polygon fill="midnightblue" stroke="midnightblue" points="84.01,-260.35 75.32,-266.41 85.89,-267.09 84.01,-260.35"/>
</g>
<!-- Node15 -->
<g id="node15" class="node">
<title>Node15</title>
<g id="a_node15"><a xlink:href="classSynchronizerEdge.html" target="_top" xlink:title=" ">
<polygon fill="white" stroke="black" points="126,-266.5 126,-285.5 230,-285.5 230,-266.5 126,-266.5"/>
<text text-anchor="middle" x="178" y="-273.5" font-family="Helvetica,sans-Serif" font-size="10.00">SynchronizerEdge</text>
</a>
</g>
</g>
<!-- Node3&#45;&gt;Node15 -->
<g id="edge18" class="edge">
<title>Node3&#45;&gt;Node15</title>
<path fill="none" stroke="midnightblue" d="M90.56,-276C101.96,-276 114.11,-276 125.59,-276"/>
<polygon fill="midnightblue" stroke="midnightblue" points="90.34,-272.5 80.34,-276 90.34,-279.5 90.34,-272.5"/>
</g>
<!-- Node4 -->
<g id="node4" class="node">
<title>Node4</title>
<g id="a_node4"><a xlink:href="classPgp3Gtp7TxGearbox.html" target="_top" xlink:title=" ">
<polygon fill="white" stroke="black" points="587,-183.5 587,-202.5 704,-202.5 704,-183.5 587,-183.5"/>
<text text-anchor="middle" x="645.5" y="-190.5" font-family="Helvetica,sans-Serif" font-size="10.00">Pgp3Gtp7TxGearbox</text>
</a>
</g>
</g>
<!-- Node4&#45;&gt;Node1 -->
<g id="edge3" class="edge">
<title>Node4&#45;&gt;Node1</title>
<path fill="none" stroke="midnightblue" d="M694.15,-205.11C714.97,-210.4 739.04,-216.52 758.55,-221.48"/>
<polygon fill="midnightblue" stroke="midnightblue" points="694.78,-201.66 684.23,-202.59 693.05,-208.44 694.78,-201.66"/>
</g>
<!-- Node5 -->
<g id="node5" class="node">
<title>Node5</title>
<g id="a_node5"><a xlink:href="classFifoAsync.html" target="_top" xlink:title=" ">
<polygon fill="white" stroke="black" points="304.5,-114.5 304.5,-133.5 368.5,-133.5 368.5,-114.5 304.5,-114.5"/>
<text text-anchor="middle" x="336.5" y="-121.5" font-family="Helvetica,sans-Serif" font-size="10.00">FifoAsync</text>
</a>
</g>
</g>
<!-- Node5&#45;&gt;Node4 -->
<g id="edge4" class="edge">
<title>Node5&#45;&gt;Node4</title>
<path fill="none" stroke="midnightblue" d="M378.93,-133.62C395.71,-137.49 415.27,-141.99 433,-146 491.15,-159.16 558.37,-174.04 601.14,-183.47"/>
<polygon fill="midnightblue" stroke="midnightblue" points="379.42,-130.14 368.89,-131.29 377.84,-136.96 379.42,-130.14"/>
</g>
<!-- Node13 -->
<g id="node13" class="node">
<title>Node13</title>
<g id="a_node13"><a xlink:href="classPgp3Gtp7RxGearbox.html" target="_top" xlink:title=" ">
<polygon fill="white" stroke="black" points="433,-117.5 433,-136.5 551,-136.5 551,-117.5 433,-117.5"/>
<text text-anchor="middle" x="492" y="-124.5" font-family="Helvetica,sans-Serif" font-size="10.00">Pgp3Gtp7RxGearbox</text>
</a>
</g>
</g>
<!-- Node5&#45;&gt;Node13 -->
<g id="edge14" class="edge">
<title>Node5&#45;&gt;Node13</title>
<path fill="none" stroke="midnightblue" d="M379.02,-124.81C395.62,-125.14 415.02,-125.52 432.97,-125.87"/>
<polygon fill="midnightblue" stroke="midnightblue" points="378.63,-121.3 368.56,-124.61 378.49,-128.3 378.63,-121.3"/>
</g>
<!-- Node6&#45;&gt;Node5 -->
<g id="edge5" class="edge">
<title>Node6&#45;&gt;Node5</title>
<path fill="none" stroke="midnightblue" d="M222.11,-229.55C228.59,-226.93 234.82,-223.5 240,-219 268.22,-194.49 247.87,-167.61 276,-143 283.92,-136.07 294.38,-131.67 304.32,-128.87"/>
<polygon fill="midnightblue" stroke="midnightblue" points="220.86,-226.28 212.54,-232.84 223.14,-232.9 220.86,-226.28"/>
</g>
<!-- Node17 -->
<g id="node17" class="node">
<title>Node17</title>
<g id="a_node17"><a xlink:href="classAxiLiteAsync.html" target="_top" xlink:title=" ">
<polygon fill="white" stroke="black" points="452,-221.5 452,-240.5 532,-240.5 532,-221.5 452,-221.5"/>
<text text-anchor="middle" x="492" y="-228.5" font-family="Helvetica,sans-Serif" font-size="10.00">AxiLiteAsync</text>
</a>
</g>
</g>
<!-- Node6&#45;&gt;Node17 -->
<g id="edge21" class="edge">
<title>Node6&#45;&gt;Node17</title>
<path fill="none" stroke="midnightblue" d="M222.77,-237.02C283.77,-235.65 393.43,-233.19 451.85,-231.88"/>
<polygon fill="midnightblue" stroke="midnightblue" points="222.6,-233.52 212.69,-237.24 222.76,-240.52 222.6,-233.52"/>
</g>
<!-- Node18 -->
<g id="node18" class="node">
<title>Node18</title>
<g id="a_node18"><a xlink:href="classFifoAsync.html" target="_top" xlink:title=" ">
<polygon fill="white" stroke="black" points="298,-152.5 298,-171.5 375,-171.5 375,-152.5 298,-152.5"/>
<text text-anchor="middle" x="336.5" y="-159.5" font-family="Helvetica,sans-Serif" font-size="10.00">FifoAsync(5)</text>
</a>
</g>
</g>
<!-- Node6&#45;&gt;Node18 -->
<g id="edge23" class="edge">
<title>Node6&#45;&gt;Node18</title>
<path fill="none" stroke="midnightblue" d="M222.64,-225.79C228.56,-223.74 234.49,-221.46 240,-219 270.68,-205.3 303.77,-183.89 321.82,-171.58"/>
<polygon fill="midnightblue" stroke="midnightblue" points="221.17,-222.59 212.77,-229.04 223.36,-229.24 221.17,-222.59"/>
</g>
<!-- Node7 -->
<g id="node7" class="node">
<title>Node7</title>
<g id="a_node7"><a xlink:href="classSynchronizerVector.html" target="_top" xlink:title=" ">
<polygon fill="white" stroke="black" points="116,-114.5 116,-133.5 240,-133.5 240,-114.5 116,-114.5"/>
<text text-anchor="middle" x="178" y="-121.5" font-family="Helvetica,sans-Serif" font-size="10.00">SynchronizerVector(2)</text>
</a>
</g>
</g>
<!-- Node7&#45;&gt;Node5 -->
<g id="edge7" class="edge">
<title>Node7&#45;&gt;Node5</title>
<path fill="none" stroke="midnightblue" d="M250.53,-124C269.44,-124 288.89,-124 304.39,-124"/>
<polygon fill="midnightblue" stroke="midnightblue" points="250.4,-120.5 240.4,-124 250.4,-127.5 250.4,-120.5"/>
</g>
<!-- Node7&#45;&gt;Node18 -->
<g id="edge24" class="edge">
<title>Node7&#45;&gt;Node18</title>
<path fill="none" stroke="midnightblue" d="M228.22,-135.95C250.74,-141.42 277,-147.8 297.91,-152.87"/>
<polygon fill="midnightblue" stroke="midnightblue" points="229.04,-132.55 218.49,-133.59 227.38,-139.35 229.04,-132.55"/>
</g>
<!-- Node8 -->
<g id="node8" class="node">
<title>Node8</title>
<g id="a_node8"><a xlink:href="classSynchronizer.html" target="_top" xlink:title=" ">
<polygon fill="white" stroke="black" points="131.5,-76.5 131.5,-95.5 224.5,-95.5 224.5,-76.5 131.5,-76.5"/>
<text text-anchor="middle" x="178" y="-83.5" font-family="Helvetica,sans-Serif" font-size="10.00">Synchronizer(2)</text>
</a>
</g>
</g>
<!-- Node8&#45;&gt;Node5 -->
<g id="edge8" class="edge">
<title>Node8&#45;&gt;Node5</title>
<path fill="none" stroke="midnightblue" d="M228.48,-98.02C253.35,-104.05 282.73,-111.19 304.41,-116.45"/>
<polygon fill="midnightblue" stroke="midnightblue" points="229.04,-94.55 218.49,-95.59 227.38,-101.35 229.04,-94.55"/>
</g>
<!-- Node8&#45;&gt;Node18 -->
<g id="edge25" class="edge">
<title>Node8&#45;&gt;Node18</title>
<path fill="none" stroke="midnightblue" d="M229.35,-99.36C233.06,-101.04 236.65,-102.92 240,-105 259.75,-117.3 256.3,-130.63 276,-143 282.61,-147.15 290.21,-150.47 297.72,-153.1"/>
<polygon fill="midnightblue" stroke="midnightblue" points="230.56,-96.08 219.98,-95.58 227.94,-102.57 230.56,-96.08"/>
</g>
<!-- Node9 -->
<g id="node9" class="node">
<title>Node9</title>
<g id="a_node9"><a xlink:href="classFifoWrFsm.html" target="_top" xlink:title=" ">
<polygon fill="white" stroke="black" points="143.5,-190.5 143.5,-209.5 212.5,-209.5 212.5,-190.5 143.5,-190.5"/>
<text text-anchor="middle" x="178" y="-197.5" font-family="Helvetica,sans-Serif" font-size="10.00">FifoWrFsm</text>
</a>
</g>
</g>
<!-- Node9&#45;&gt;Node5 -->
<g id="edge9" class="edge">
<title>Node9&#45;&gt;Node5</title>
<path fill="none" stroke="midnightblue" d="M222.31,-189.56C228.48,-187.21 234.56,-184.39 240,-181 259.75,-168.7 256.3,-155.37 276,-143 284.54,-137.64 294.73,-133.66 304.24,-130.78"/>
<polygon fill="midnightblue" stroke="midnightblue" points="220.96,-186.32 212.63,-192.86 223.22,-192.94 220.96,-186.32"/>
</g>
<!-- Node9&#45;&gt;Node18 -->
<g id="edge26" class="edge">
<title>Node9&#45;&gt;Node18</title>
<path fill="none" stroke="midnightblue" d="M222.37,-189.47C246.06,-183.72 275.13,-176.66 297.87,-171.14"/>
<polygon fill="midnightblue" stroke="midnightblue" points="221.46,-186.09 212.57,-191.85 223.12,-192.89 221.46,-186.09"/>
</g>
<!-- Node10 -->
<g id="node10" class="node">
<title>Node10</title>
<g id="a_node10"><a xlink:href="classFifoRdFsm.html" target="_top" xlink:title=" ">
<polygon fill="white" stroke="black" points="144,-0.5 144,-19.5 212,-19.5 212,-0.5 144,-0.5"/>
<text text-anchor="middle" x="178" y="-7.5" font-family="Helvetica,sans-Serif" font-size="10.00">FifoRdFsm</text>
</a>
</g>
</g>
<!-- Node10&#45;&gt;Node5 -->
<g id="edge10" class="edge">
<title>Node10&#45;&gt;Node5</title>
<path fill="none" stroke="midnightblue" d="M222.01,-20.51C228.26,-22.85 234.45,-25.66 240,-29 279.06,-52.54 314.02,-95.34 328.47,-114.4"/>
<polygon fill="midnightblue" stroke="midnightblue" points="222.81,-17.08 212.21,-17.2 220.57,-23.72 222.81,-17.08"/>
</g>
<!-- Node10&#45;&gt;Node18 -->
<g id="edge27" class="edge">
<title>Node10&#45;&gt;Node18</title>
<path fill="none" stroke="midnightblue" d="M222.04,-17.6C228.68,-20.32 234.98,-24 240,-29 277.64,-66.5 238.49,-105.37 276,-143 281.97,-148.99 289.83,-153.09 297.87,-155.91"/>
<polygon fill="midnightblue" stroke="midnightblue" points="222.77,-14.15 212.17,-14.27 220.53,-20.78 222.77,-14.15"/>
</g>
<!-- Node11 -->
<g id="node11" class="node">
<title>Node11</title>
<g id="a_node11"><a xlink:href="classSimpleDualPortRam.html" target="_top" xlink:title=" ">
<polygon fill="white" stroke="black" points="120.5,-152.5 120.5,-171.5 235.5,-171.5 235.5,-152.5 120.5,-152.5"/>
<text text-anchor="middle" x="178" y="-159.5" font-family="Helvetica,sans-Serif" font-size="10.00">SimpleDualPortRam</text>
</a>
</g>
</g>
<!-- Node11&#45;&gt;Node5 -->
<g id="edge11" class="edge">
<title>Node11&#45;&gt;Node5</title>
<path fill="none" stroke="midnightblue" d="M228.48,-149.98C253.35,-143.95 282.73,-136.81 304.41,-131.55"/>
<polygon fill="midnightblue" stroke="midnightblue" points="227.38,-146.65 218.49,-152.41 229.04,-153.45 227.38,-146.65"/>
</g>
<!-- Node11&#45;&gt;Node18 -->
<g id="edge28" class="edge">
<title>Node11&#45;&gt;Node18</title>
<path fill="none" stroke="midnightblue" d="M245.82,-162C263.55,-162 282.08,-162 297.67,-162"/>
<polygon fill="midnightblue" stroke="midnightblue" points="245.5,-158.5 235.5,-162 245.5,-165.5 245.5,-158.5"/>
</g>
<!-- Node12 -->
<g id="node12" class="node">
<title>Node12</title>
<g id="a_node12"><a xlink:href="classFifoOutputPipeline.html" target="_top" xlink:title=" ">
<polygon fill="white" stroke="black" points="124.5,-38.5 124.5,-57.5 231.5,-57.5 231.5,-38.5 124.5,-38.5"/>
<text text-anchor="middle" x="178" y="-45.5" font-family="Helvetica,sans-Serif" font-size="10.00">FifoOutputPipeline</text>
</a>
</g>
</g>
<!-- Node12&#45;&gt;Node5 -->
<g id="edge12" class="edge">
<title>Node12&#45;&gt;Node5</title>
<path fill="none" stroke="midnightblue" d="M224.29,-60.79C229.66,-62.69 235,-64.77 240,-67 270.68,-80.7 303.77,-102.11 321.82,-114.42"/>
<polygon fill="midnightblue" stroke="midnightblue" points="225.28,-57.43 214.68,-57.56 223.05,-64.06 225.28,-57.43"/>
</g>
<!-- Node12&#45;&gt;Node18 -->
<g id="edge29" class="edge">
<title>Node12&#45;&gt;Node18</title>
<path fill="none" stroke="midnightblue" d="M233.77,-62.38C235.97,-63.78 238.06,-65.31 240,-67 268.22,-91.51 247.87,-118.39 276,-143 282.2,-148.43 289.97,-152.31 297.82,-155.08"/>
<polygon fill="midnightblue" stroke="midnightblue" points="235.34,-59.24 224.87,-57.62 232.04,-65.42 235.34,-59.24"/>
</g>
<!-- Node13&#45;&gt;Node1 -->
<g id="edge13" class="edge">
<title>Node13&#45;&gt;Node1</title>
<path fill="none" stroke="midnightblue" d="M561.34,-136.25C603.52,-143.41 658.15,-155.32 704,-174 734.62,-186.48 766.62,-208.74 783.63,-221.44"/>
<polygon fill="midnightblue" stroke="midnightblue" points="561.88,-132.8 551.44,-134.62 560.74,-139.7 561.88,-132.8"/>
</g>
<!-- Node14&#45;&gt;Node1 -->
<g id="edge15" class="edge">
<title>Node14&#45;&gt;Node1</title>
<path fill="none" stroke="midnightblue" d="M407.23,-273.81C481.17,-270.84 601.25,-264.19 704,-250 720.96,-247.66 739.49,-244.04 755.44,-240.59"/>
<polygon fill="midnightblue" stroke="midnightblue" points="406.96,-270.32 397.1,-274.2 407.23,-277.31 406.96,-270.32"/>
</g>
<!-- Node15&#45;&gt;Node14 -->
<g id="edge17" class="edge">
<title>Node15&#45;&gt;Node14</title>
<path fill="none" stroke="midnightblue" d="M240.37,-276C252.09,-276 264.33,-276 275.99,-276"/>
<polygon fill="midnightblue" stroke="midnightblue" points="240.24,-272.5 230.24,-276 240.24,-279.5 240.24,-272.5"/>
</g>
<!-- Node16 -->
<g id="node16" class="node">
<title>Node16</title>
<g id="a_node16"><a xlink:href="classAxiLiteToDrp.html" target="_top" xlink:title=" ">
<polygon fill="white" stroke="black" points="606.5,-221.5 606.5,-240.5 684.5,-240.5 684.5,-221.5 606.5,-221.5"/>
<text text-anchor="middle" x="645.5" y="-228.5" font-family="Helvetica,sans-Serif" font-size="10.00">AxiLiteToDrp</text>
</a>
</g>
</g>
<!-- Node16&#45;&gt;Node1 -->
<g id="edge19" class="edge">
<title>Node16&#45;&gt;Node1</title>
<path fill="none" stroke="midnightblue" d="M694.78,-231C709.17,-231 725.05,-231 739.89,-231"/>
<polygon fill="midnightblue" stroke="midnightblue" points="694.61,-227.5 684.61,-231 694.61,-234.5 694.61,-227.5"/>
</g>
<!-- Node17&#45;&gt;Node16 -->
<g id="edge20" class="edge">
<title>Node17&#45;&gt;Node16</title>
<path fill="none" stroke="midnightblue" d="M542.27,-231C563.09,-231 586.97,-231 606.4,-231"/>
<polygon fill="midnightblue" stroke="midnightblue" points="542.02,-227.5 532.02,-231 542.01,-234.5 542.02,-227.5"/>
</g>
<!-- Node18&#45;&gt;Node17 -->
<g id="edge22" class="edge">
<title>Node18&#45;&gt;Node17</title>
<path fill="none" stroke="midnightblue" d="M368.05,-175.73C398.19,-189.28 443.46,-209.63 469.84,-221.49"/>
<polygon fill="midnightblue" stroke="midnightblue" points="369.4,-172.5 358.84,-171.59 366.53,-178.89 369.4,-172.5"/>
</g>
<!-- Node20 -->
<g id="node20" class="node">
<title>Node20</title>
<g id="a_node20"><a xlink:href="classPgp3Gtp7Wrapper.html" target="_top" xlink:title=" ">
<polygon fill="white" stroke="black" points="990,-221.5 990,-240.5 1095,-240.5 1095,-221.5 990,-221.5"/>
<text text-anchor="middle" x="1042.5" y="-228.5" font-family="Helvetica,sans-Serif" font-size="10.00">Pgp3Gtp7Wrapper</text>
</a>
</g>
</g>
<!-- Node19&#45;&gt;Node20 -->
<g id="edge31" class="edge">
<title>Node19&#45;&gt;Node20</title>
<path fill="none" stroke="midnightblue" d="M964.29,-231C972.58,-231 981.38,-231 989.96,-231"/>
<polygon fill="midnightblue" stroke="midnightblue" points="964.13,-227.5 954.13,-231 964.13,-234.5 964.13,-227.5"/>
</g>
<!-- Node21 -->
<g id="node21" class="node">
<title>Node21</title>
<g id="a_node21"><a xlink:href="classPgp3Gtp7Tb.html" target="_top" xlink:title=" ">
<polygon fill="white" stroke="black" points="1131,-221.5 1131,-240.5 1207,-240.5 1207,-221.5 1131,-221.5"/>
<text text-anchor="middle" x="1169" y="-228.5" font-family="Helvetica,sans-Serif" font-size="10.00">Pgp3Gtp7Tb</text>
</a>
</g>
</g>
<!-- Node20&#45;&gt;Node21 -->
<g id="edge32" class="edge">
<title>Node20&#45;&gt;Node21</title>
<path fill="none" stroke="midnightblue" d="M1105.34,-231C1114,-231 1122.66,-231 1130.67,-231"/>
<polygon fill="midnightblue" stroke="midnightblue" points="1105.22,-227.5 1095.22,-231 1105.22,-234.5 1105.22,-227.5"/>
</g>
</g>
</svg>
        <g id="navigator" transform="translate(0 0)" fill="#404254">
                <rect fill="#f2f5e9" fill-opacity="0.5" stroke="#606060" stroke-width=".5" x="0" y="0" width="60" height="60"/>
                <use id="zoomplus" xlink:href="#zoomPlus" x="17" y="9" onmousedown="handleZoom(evt,'in')"/>
                <use id="zoomminus" xlink:href="#zoomMin" x="42" y="9" onmousedown="handleZoom(evt,'out')"/>
                <use id="reset" xlink:href="#resetDef" x="30" y="36" onmousedown="handleReset()"/>
                <g id="arrowUp" xlink:href="#dirArrow" transform="translate(30 24)" onmousedown="handlePan(0,-1)">
                  <use xlink:href="#rim" fill="#404040">
                        <set attributeName="fill" to="#808080" begin="arrowUp.mouseover" end="arrowUp.mouseout"/>
                  </use>
                  <path fill="none" stroke="white" stroke-width="1.5" d="M0,-3.0v7 M-2.5,-0.5L0,-3.0L2.5,-0.5"/>
                </g>
                <g id="arrowRight" xlink:href="#dirArrow" transform="rotate(90) translate(36 -43)" onmousedown="handlePan(1,0)">
                  <use xlink:href="#rim" fill="#404040">
                        <set attributeName="fill" to="#808080" begin="arrowRight.mouseover" end="arrowRight.mouseout"/>
                  </use>
                  <path fill="none" stroke="white" stroke-width="1.5" d="M0,-3.0v7 M-2.5,-0.5L0,-3.0L2.5,-0.5"/>
                </g>
                <g id="arrowDown" xlink:href="#dirArrow" transform="rotate(180) translate(-30 -48)" onmousedown="handlePan(0,1)">
                  <use xlink:href="#rim" fill="#404040">
                        <set attributeName="fill" to="#808080" begin="arrowDown.mouseover" end="arrowDown.mouseout"/>
                  </use>
                  <path fill="none" stroke="white" stroke-width="1.5" d="M0,-3.0v7 M-2.5,-0.5L0,-3.0L2.5,-0.5"/>
                </g>
                <g id="arrowLeft" xlink:href="#dirArrow" transform="rotate(270) translate(-36 17)" onmousedown="handlePan(-1,0)">
                  <use xlink:href="#rim" fill="#404040">
                        <set attributeName="fill" to="#808080" begin="arrowLeft.mouseover" end="arrowLeft.mouseout"/>
                  </use>
                  <path fill="none" stroke="white" stroke-width="1.5" d="M0,-3.0v7 M-2.5,-0.5L0,-3.0L2.5,-0.5"/>
                </g>
        </g>
        <svg viewBox="0 0 15 15" width="100%" height="30px" preserveAspectRatio="xMaxYMin meet">
         <g id="arrow_out" transform="scale(0.3 0.3)">
          <a xlink:href="classPgp3Gtp7IpWrapper__inherit__graph_org.svg" target="_base">
           <rect id="button" ry="5" rx="5" y="6" x="6" height="38" width="38"
                fill="#f2f5e9" fill-opacity="0.5" stroke="#606060" stroke-width="1.0"/>
           <path id="arrow"
             d="M 11.500037,31.436501 C 11.940474,20.09759 22.043105,11.32322 32.158766,21.979434 L 37.068811,17.246167 C 37.068811,17.246167 37.088388,32 37.088388,32 L 22.160133,31.978069 C 22.160133,31.978069 26.997745,27.140456 26.997745,27.140456 C 18.528582,18.264221 13.291696,25.230495 11.500037,31.436501 z"
             style="fill:#404040;"/>
          </a>
         </g>
        </svg>
</svg>
