<?xml version="1.0" encoding="UTF-8" standalone="no"?>
<!DOCTYPE svg PUBLIC "-//W3C//DTD SVG 1.1//EN"
 "http://www.w3.org/Graphics/SVG/1.1/DTD/svg11.dtd">
<!-- Generated by graphviz version 2.43.0 (0)
 -->
<!-- Title: AxiStreamBatcher Pages: 1 -->
<svg width="318pt" height="140pt"
 viewBox="0.00 0.00 317.50 140.00" xmlns="http://www.w3.org/2000/svg" xmlns:xlink="http://www.w3.org/1999/xlink">
<g id="graph0" class="graph" transform="scale(1 1) rotate(0) translate(4 136)">
<title>AxiStreamBatcher</title>
<polygon fill="white" stroke="transparent" points="-4,4 -4,-136 313.5,-136 313.5,4 -4,4"/>
<!-- Node1 -->
<g id="node1" class="node">
<title>Node1</title>
<g id="a_node1"><a xlink:title=" ">
<polygon fill="#bfbfbf" stroke="black" points="91.5,-56.5 91.5,-75.5 196.5,-75.5 196.5,-56.5 91.5,-56.5"/>
<text text-anchor="middle" x="144" y="-63.5" font-family="Helvetica,sans-Serif" font-size="10.00">AxiStreamBatcher</text>
</a>
</g>
</g>
<!-- Node3 -->
<g id="node3" class="node">
<title>Node3</title>
<g id="a_node3"><a xlink:href="classAxiStreamBatcherAxil.html" target="_top" xlink:title=" ">
<polygon fill="white" stroke="black" points="0,-0.5 0,-19.5 124,-19.5 124,-0.5 0,-0.5"/>
<text text-anchor="middle" x="62" y="-7.5" font-family="Helvetica,sans-Serif" font-size="10.00">AxiStreamBatcherAxil</text>
</a>
</g>
</g>
<!-- Node1&#45;&gt;Node3 -->
<g id="edge2" class="edge">
<title>Node1&#45;&gt;Node3</title>
<path fill="none" stroke="midnightblue" d="M117.09,-51.21C100.84,-41.34 81.37,-28.34 70.27,-19.83"/>
<polygon fill="midnightblue" stroke="midnightblue" points="115.32,-54.23 125.71,-56.32 118.89,-48.21 115.32,-54.23"/>
</g>
<!-- Node1&#45;&gt;Node3 -->
<g id="edge4" class="edge">
<title>Node1&#45;&gt;Node3</title>
<path fill="none" stroke="midnightblue" d="M127.82,-50.34C114.05,-40.52 94.59,-27.91 80.25,-19.65"/>
<polygon fill="midnightblue" stroke="midnightblue" points="125.81,-53.21 135.94,-56.32 129.97,-47.57 125.81,-53.21"/>
</g>
<!-- Node4 -->
<g id="node4" class="node">
<title>Node4</title>
<g id="a_node4"><a xlink:href="classAxiStreamBatcherEventBuilder.html" target="_top" xlink:title=" ">
<polygon fill="white" stroke="black" points="142.5,-0.5 142.5,-19.5 309.5,-19.5 309.5,-0.5 142.5,-0.5"/>
<text text-anchor="middle" x="226" y="-7.5" font-family="Helvetica,sans-Serif" font-size="10.00">AxiStreamBatcherEventBuilder</text>
</a>
</g>
</g>
<!-- Node1&#45;&gt;Node4 -->
<g id="edge3" class="edge">
<title>Node1&#45;&gt;Node4</title>
<path fill="none" stroke="midnightblue" d="M160.18,-50.34C173.95,-40.52 193.41,-27.91 207.75,-19.65"/>
<polygon fill="midnightblue" stroke="midnightblue" points="158.03,-47.57 152.06,-56.32 162.19,-53.21 158.03,-47.57"/>
</g>
<!-- Node1&#45;&gt;Node4 -->
<g id="edge5" class="edge">
<title>Node1&#45;&gt;Node4</title>
<path fill="none" stroke="midnightblue" d="M170.91,-51.21C187.16,-41.34 206.63,-28.34 217.73,-19.83"/>
<polygon fill="midnightblue" stroke="midnightblue" points="169.11,-48.21 162.29,-56.32 172.68,-54.23 169.11,-48.21"/>
</g>
<!-- Node2 -->
<g id="node2" class="node">
<title>Node2</title>
<g id="a_node2"><a xlink:href="classAxiStreamPipeline.html" target="_top" xlink:title=" ">
<polygon fill="white" stroke="black" points="90.5,-112.5 90.5,-131.5 197.5,-131.5 197.5,-112.5 90.5,-112.5"/>
<text text-anchor="middle" x="144" y="-119.5" font-family="Helvetica,sans-Serif" font-size="10.00">AxiStreamPipeline</text>
</a>
</g>
</g>
<!-- Node2&#45;&gt;Node1 -->
<g id="edge1" class="edge">
<title>Node2&#45;&gt;Node1</title>
<path fill="none" stroke="midnightblue" d="M144,-101.8C144,-92.91 144,-82.78 144,-75.75"/>
<polygon fill="midnightblue" stroke="midnightblue" points="140.5,-102.08 144,-112.08 147.5,-102.08 140.5,-102.08"/>
</g>
</g>
</svg>
