<?xml version="1.0" encoding="UTF-8" standalone="no"?>
<!DOCTYPE svg PUBLIC "-//W3C//DTD SVG 1.1//EN"
 "http://www.w3.org/Graphics/SVG/1.1/DTD/svg11.dtd">
<!-- Generated by graphviz version 2.43.0 (0)
 -->
<!-- Title: Pgp3GthUsIpWrapper Pages: 1 -->
<!--zoomable 294 -->
<svg id="main" version="1.1" xmlns="http://www.w3.org/2000/svg" xmlns:xlink="http://www.w3.org/1999/xlink" xml:space="preserve" onload="init(evt)">
<style type="text/css"><![CDATA[
.edge:hover path { stroke: red; }
.edge:hover polygon { stroke: red; fill: red; }
]]></style>
<script type="text/javascript"><![CDATA[
var edges = document.getElementsByTagName('g');
if (edges && edges.length) {
  for (var i=0;i<edges.length;i++) {
    if (edges[i].id.substr(0,4)=='edge') {
      edges[i].setAttribute('class','edge');
    }
  }
}
]]></script>
        <defs>
                <circle id="rim" cx="0" cy="0" r="7"/>
                <circle id="rim2" cx="0" cy="0" r="3.5"/>
                <g id="zoomPlus">
                        <use xlink:href="#rim" fill="#404040">
                                <set attributeName="fill" to="#808080" begin="zoomplus.mouseover" end="zoomplus.mouseout"/>
                        </use>
                        <path d="M-4,0h8M0,-4v8" fill="none" stroke="white" stroke-width="1.5" pointer-events="none"/>
                </g>
                <g id="zoomMin">
                        <use xlink:href="#rim" fill="#404040">
                                <set attributeName="fill" to="#808080" begin="zoomminus.mouseover" end="zoomminus.mouseout"/>
                        </use>
                        <path d="M-4,0h8" fill="none" stroke="white" stroke-width="1.5" pointer-events="none"/>
                </g>
                <g id="dirArrow">
                        <path fill="none" stroke="white" stroke-width="1.5" d="M0,-3.0v7 M-2.5,-0.5L0,-3.0L2.5,-0.5"/>
                </g>
               <g id="resetDef">
                       <use xlink:href="#rim2" fill="#404040">
                               <set attributeName="fill" to="#808080" begin="reset.mouseover" end="reset.mouseout"/>
                       </use>
               </g>
        </defs>

<script type="text/javascript">
var viewWidth = 1017;
var viewHeight = 294;
var sectionId = 'dynsection-0';
</script>
<script xlink:href="svgpan.js"/>
<svg id="graph" class="graph">
<g id="viewport">
<title>Pgp3GthUsIpWrapper</title>
<polygon fill="white" stroke="transparent" points="-4,4 -4,-290 1013,-290 1013,4 -4,4"/>
<!-- Node1 -->
<g id="node1" class="node">
<title>Node1</title>
<g id="a_node1"><a xlink:title=" ">
<polygon fill="#bfbfbf" stroke="black" points="633,-247.5 633,-266.5 754,-266.5 754,-247.5 633,-247.5"/>
<text text-anchor="middle" x="693.5" y="-254.5" font-family="Helvetica,sans-Serif" font-size="10.00">Pgp3GthUsIpWrapper</text>
</a>
</g>
</g>
<!-- Node14 -->
<g id="node14" class="node">
<title>Node14</title>
<g id="a_node14"><a xlink:href="classPgp3GthUs.html" target="_top" xlink:title=" ">
<polygon fill="white" stroke="black" points="790,-247.5 790,-266.5 861,-266.5 861,-247.5 790,-247.5"/>
<text text-anchor="middle" x="825.5" y="-254.5" font-family="Helvetica,sans-Serif" font-size="10.00">Pgp3GthUs</text>
</a>
</g>
</g>
<!-- Node1&#45;&gt;Node14 -->
<g id="edge15" class="edge">
<title>Node1&#45;&gt;Node14</title>
<path fill="none" stroke="midnightblue" d="M764.44,-257C773.18,-257 781.79,-257 789.65,-257"/>
<polygon fill="midnightblue" stroke="midnightblue" points="764.17,-253.5 754.17,-257 764.17,-260.5 764.17,-253.5"/>
</g>
<!-- Node2 -->
<g id="node2" class="node">
<title>Node2</title>
<g id="a_node2"><a xlink:href="classRstSync.html" target="_top" xlink:title=" ">
<polygon fill="white" stroke="black" points="280,-266.5 280,-285.5 349,-285.5 349,-266.5 280,-266.5"/>
<text text-anchor="middle" x="314.5" y="-273.5" font-family="Helvetica,sans-Serif" font-size="10.00">RstSync(4)</text>
</a>
</g>
</g>
<!-- Node2&#45;&gt;Node1 -->
<g id="edge1" class="edge">
<title>Node2&#45;&gt;Node1</title>
<path fill="none" stroke="midnightblue" d="M359.6,-273.78C427.29,-270.37 556.91,-263.83 632.9,-260"/>
<polygon fill="midnightblue" stroke="midnightblue" points="359.1,-270.3 349.29,-274.3 359.45,-277.29 359.1,-270.3"/>
</g>
<!-- Node3 -->
<g id="node3" class="node">
<title>Node3</title>
<g id="a_node3"><a xlink:href="classSynchronizer.html" target="_top" xlink:title=" ">
<polygon fill="white" stroke="black" points="0,-247.5 0,-266.5 80,-266.5 80,-247.5 0,-247.5"/>
<text text-anchor="middle" x="40" y="-254.5" font-family="Helvetica,sans-Serif" font-size="10.00">Synchronizer</text>
</a>
</g>
</g>
<!-- Node3&#45;&gt;Node2 -->
<g id="edge2" class="edge">
<title>Node3&#45;&gt;Node2</title>
<path fill="none" stroke="midnightblue" d="M90.21,-260.43C145,-264.25 232.08,-270.32 279.68,-273.64"/>
<polygon fill="midnightblue" stroke="midnightblue" points="90.26,-256.93 80.04,-259.72 89.77,-263.91 90.26,-256.93"/>
</g>
<!-- Node6 -->
<g id="node6" class="node">
<title>Node6</title>
<g id="a_node6"><a xlink:href="classRstSync.html" target="_top" xlink:title=" ">
<polygon fill="white" stroke="black" points="143.5,-228.5 143.5,-247.5 212.5,-247.5 212.5,-228.5 143.5,-228.5"/>
<text text-anchor="middle" x="178" y="-235.5" font-family="Helvetica,sans-Serif" font-size="10.00">RstSync(2)</text>
</a>
</g>
</g>
<!-- Node3&#45;&gt;Node6 -->
<g id="edge6" class="edge">
<title>Node3&#45;&gt;Node6</title>
<path fill="none" stroke="midnightblue" d="M90.43,-250.09C107.99,-247.64 127.34,-244.94 143.28,-242.71"/>
<polygon fill="midnightblue" stroke="midnightblue" points="89.76,-246.65 80.34,-251.5 90.72,-253.59 89.76,-246.65"/>
</g>
<!-- Node4 -->
<g id="node4" class="node">
<title>Node4</title>
<g id="a_node4"><a xlink:href="classAxiLiteToDrp.html" target="_top" xlink:title=" ">
<polygon fill="white" stroke="black" points="505,-228.5 505,-247.5 597,-247.5 597,-228.5 505,-228.5"/>
<text text-anchor="middle" x="551" y="-235.5" font-family="Helvetica,sans-Serif" font-size="10.00">AxiLiteToDrp(2)</text>
</a>
</g>
</g>
<!-- Node4&#45;&gt;Node1 -->
<g id="edge3" class="edge">
<title>Node4&#45;&gt;Node1</title>
<path fill="none" stroke="midnightblue" d="M607.33,-245.48C615.75,-246.62 624.48,-247.8 632.99,-248.95"/>
<polygon fill="midnightblue" stroke="midnightblue" points="607.61,-241.99 597.23,-244.12 606.67,-248.92 607.61,-241.99"/>
</g>
<!-- Node5 -->
<g id="node5" class="node">
<title>Node5</title>
<g id="a_node5"><a xlink:href="classAxiLiteAsync.html" target="_top" xlink:title=" ">
<polygon fill="white" stroke="black" points="389,-228.5 389,-247.5 469,-247.5 469,-228.5 389,-228.5"/>
<text text-anchor="middle" x="429" y="-235.5" font-family="Helvetica,sans-Serif" font-size="10.00">AxiLiteAsync</text>
</a>
</g>
</g>
<!-- Node5&#45;&gt;Node4 -->
<g id="edge4" class="edge">
<title>Node5&#45;&gt;Node4</title>
<path fill="none" stroke="midnightblue" d="M479.37,-238C487.78,-238 496.49,-238 504.79,-238"/>
<polygon fill="midnightblue" stroke="midnightblue" points="479.29,-234.5 469.29,-238 479.29,-241.5 479.29,-234.5"/>
</g>
<!-- Node6&#45;&gt;Node5 -->
<g id="edge5" class="edge">
<title>Node6&#45;&gt;Node5</title>
<path fill="none" stroke="midnightblue" d="M222.75,-238C269.73,-238 343.68,-238 388.81,-238"/>
<polygon fill="midnightblue" stroke="midnightblue" points="222.58,-234.5 212.58,-238 222.58,-241.5 222.58,-234.5"/>
</g>
<!-- Node7 -->
<g id="node7" class="node">
<title>Node7</title>
<g id="a_node7"><a xlink:href="classFifoAsync.html" target="_top" xlink:title=" ">
<polygon fill="white" stroke="black" points="276,-133.5 276,-152.5 353,-152.5 353,-133.5 276,-133.5"/>
<text text-anchor="middle" x="314.5" y="-140.5" font-family="Helvetica,sans-Serif" font-size="10.00">FifoAsync(5)</text>
</a>
</g>
</g>
<!-- Node6&#45;&gt;Node7 -->
<g id="edge8" class="edge">
<title>Node6&#45;&gt;Node7</title>
<path fill="none" stroke="midnightblue" d="M222.27,-227.51C228.45,-225.17 234.55,-222.36 240,-219 269.23,-201 294.97,-168.74 306.73,-152.66"/>
<polygon fill="midnightblue" stroke="midnightblue" points="220.93,-224.27 212.59,-230.81 223.19,-230.89 220.93,-224.27"/>
</g>
<!-- Node7&#45;&gt;Node5 -->
<g id="edge7" class="edge">
<title>Node7&#45;&gt;Node5</title>
<path fill="none" stroke="midnightblue" d="M335.05,-159.51C358.62,-179.42 397.47,-212.22 416.61,-228.39"/>
<polygon fill="midnightblue" stroke="midnightblue" points="337.01,-156.59 327.12,-152.81 332.5,-161.93 337.01,-156.59"/>
</g>
<!-- Node8 -->
<g id="node8" class="node">
<title>Node8</title>
<g id="a_node8"><a xlink:href="classSynchronizerVector.html" target="_top" xlink:title=" ">
<polygon fill="white" stroke="black" points="116,-190.5 116,-209.5 240,-209.5 240,-190.5 116,-190.5"/>
<text text-anchor="middle" x="178" y="-197.5" font-family="Helvetica,sans-Serif" font-size="10.00">SynchronizerVector(2)</text>
</a>
</g>
</g>
<!-- Node8&#45;&gt;Node7 -->
<g id="edge9" class="edge">
<title>Node8&#45;&gt;Node7</title>
<path fill="none" stroke="midnightblue" d="M222.92,-187.34C228.72,-185.37 234.54,-183.24 240,-181 260.2,-172.71 282.32,-160.87 296.97,-152.61"/>
<polygon fill="midnightblue" stroke="midnightblue" points="221.68,-184.06 213.25,-190.49 223.85,-190.72 221.68,-184.06"/>
</g>
<!-- Node9 -->
<g id="node9" class="node">
<title>Node9</title>
<g id="a_node9"><a xlink:href="classSynchronizer.html" target="_top" xlink:title=" ">
<polygon fill="white" stroke="black" points="131.5,-152.5 131.5,-171.5 224.5,-171.5 224.5,-152.5 131.5,-152.5"/>
<text text-anchor="middle" x="178" y="-159.5" font-family="Helvetica,sans-Serif" font-size="10.00">Synchronizer(2)</text>
</a>
</g>
</g>
<!-- Node9&#45;&gt;Node7 -->
<g id="edge10" class="edge">
<title>Node9&#45;&gt;Node7</title>
<path fill="none" stroke="midnightblue" d="M234.46,-154.17C248.31,-152.21 262.84,-150.16 275.62,-148.35"/>
<polygon fill="midnightblue" stroke="midnightblue" points="233.95,-150.7 224.54,-155.57 234.93,-157.63 233.95,-150.7"/>
</g>
<!-- Node10 -->
<g id="node10" class="node">
<title>Node10</title>
<g id="a_node10"><a xlink:href="classFifoWrFsm.html" target="_top" xlink:title=" ">
<polygon fill="white" stroke="black" points="143.5,-114.5 143.5,-133.5 212.5,-133.5 212.5,-114.5 143.5,-114.5"/>
<text text-anchor="middle" x="178" y="-121.5" font-family="Helvetica,sans-Serif" font-size="10.00">FifoWrFsm</text>
</a>
</g>
</g>
<!-- Node10&#45;&gt;Node7 -->
<g id="edge11" class="edge">
<title>Node10&#45;&gt;Node7</title>
<path fill="none" stroke="midnightblue" d="M222.85,-130.19C239.87,-132.6 259.18,-135.33 275.59,-137.64"/>
<polygon fill="midnightblue" stroke="midnightblue" points="222.98,-126.68 212.59,-128.75 222.01,-133.61 222.98,-126.68"/>
</g>
<!-- Node11 -->
<g id="node11" class="node">
<title>Node11</title>
<g id="a_node11"><a xlink:href="classFifoRdFsm.html" target="_top" xlink:title=" ">
<polygon fill="white" stroke="black" points="144,-76.5 144,-95.5 212,-95.5 212,-76.5 144,-76.5"/>
<text text-anchor="middle" x="178" y="-83.5" font-family="Helvetica,sans-Serif" font-size="10.00">FifoRdFsm</text>
</a>
</g>
</g>
<!-- Node11&#45;&gt;Node7 -->
<g id="edge12" class="edge">
<title>Node11&#45;&gt;Node7</title>
<path fill="none" stroke="midnightblue" d="M221.86,-98.3C228.01,-100.37 234.21,-102.62 240,-105 260.2,-113.29 282.32,-125.13 296.97,-133.39"/>
<polygon fill="midnightblue" stroke="midnightblue" points="222.89,-94.96 212.3,-95.22 220.74,-101.62 222.89,-94.96"/>
</g>
<!-- Node12 -->
<g id="node12" class="node">
<title>Node12</title>
<g id="a_node12"><a xlink:href="classSimpleDualPortRam.html" target="_top" xlink:title=" ">
<polygon fill="white" stroke="black" points="120.5,-38.5 120.5,-57.5 235.5,-57.5 235.5,-38.5 120.5,-38.5"/>
<text text-anchor="middle" x="178" y="-45.5" font-family="Helvetica,sans-Serif" font-size="10.00">SimpleDualPortRam</text>
</a>
</g>
</g>
<!-- Node12&#45;&gt;Node7 -->
<g id="edge13" class="edge">
<title>Node12&#45;&gt;Node7</title>
<path fill="none" stroke="midnightblue" d="M229.16,-61.33C232.93,-63.02 236.59,-64.9 240,-67 269.23,-85 294.97,-117.26 306.73,-133.34"/>
<polygon fill="midnightblue" stroke="midnightblue" points="230.21,-57.98 219.63,-57.52 227.61,-64.48 230.21,-57.98"/>
</g>
<!-- Node13 -->
<g id="node13" class="node">
<title>Node13</title>
<g id="a_node13"><a xlink:href="classFifoOutputPipeline.html" target="_top" xlink:title=" ">
<polygon fill="white" stroke="black" points="124.5,-0.5 124.5,-19.5 231.5,-19.5 231.5,-0.5 124.5,-0.5"/>
<text text-anchor="middle" x="178" y="-7.5" font-family="Helvetica,sans-Serif" font-size="10.00">FifoOutputPipeline</text>
</a>
</g>
</g>
<!-- Node13&#45;&gt;Node7 -->
<g id="edge14" class="edge">
<title>Node13&#45;&gt;Node7</title>
<path fill="none" stroke="midnightblue" d="M232.06,-23.88C234.85,-25.41 237.52,-27.11 240,-29 277.68,-57.65 301.5,-111.59 310,-133.44"/>
<polygon fill="midnightblue" stroke="midnightblue" points="233.37,-20.63 222.83,-19.53 230.39,-26.96 233.37,-20.63"/>
</g>
<!-- Node15 -->
<g id="node15" class="node">
<title>Node15</title>
<g id="a_node15"><a xlink:href="classPgp3GthUsWrapper.html" target="_top" xlink:title=" ">
<polygon fill="white" stroke="black" points="897,-247.5 897,-266.5 1009,-266.5 1009,-247.5 897,-247.5"/>
<text text-anchor="middle" x="953" y="-254.5" font-family="Helvetica,sans-Serif" font-size="10.00">Pgp3GthUsWrapper</text>
</a>
</g>
</g>
<!-- Node14&#45;&gt;Node15 -->
<g id="edge16" class="edge">
<title>Node14&#45;&gt;Node15</title>
<path fill="none" stroke="midnightblue" d="M871.29,-257C879.54,-257 888.24,-257 896.75,-257"/>
<polygon fill="midnightblue" stroke="midnightblue" points="871.13,-253.5 861.13,-257 871.13,-260.5 871.13,-253.5"/>
</g>
</g>
</svg>
        <g id="navigator" transform="translate(0 0)" fill="#404254">
                <rect fill="#f2f5e9" fill-opacity="0.5" stroke="#606060" stroke-width=".5" x="0" y="0" width="60" height="60"/>
                <use id="zoomplus" xlink:href="#zoomPlus" x="17" y="9" onmousedown="handleZoom(evt,'in')"/>
                <use id="zoomminus" xlink:href="#zoomMin" x="42" y="9" onmousedown="handleZoom(evt,'out')"/>
                <use id="reset" xlink:href="#resetDef" x="30" y="36" onmousedown="handleReset()"/>
                <g id="arrowUp" xlink:href="#dirArrow" transform="translate(30 24)" onmousedown="handlePan(0,-1)">
                  <use xlink:href="#rim" fill="#404040">
                        <set attributeName="fill" to="#808080" begin="arrowUp.mouseover" end="arrowUp.mouseout"/>
                  </use>
                  <path fill="none" stroke="white" stroke-width="1.5" d="M0,-3.0v7 M-2.5,-0.5L0,-3.0L2.5,-0.5"/>
                </g>
                <g id="arrowRight" xlink:href="#dirArrow" transform="rotate(90) translate(36 -43)" onmousedown="handlePan(1,0)">
                  <use xlink:href="#rim" fill="#404040">
                        <set attributeName="fill" to="#808080" begin="arrowRight.mouseover" end="arrowRight.mouseout"/>
                  </use>
                  <path fill="none" stroke="white" stroke-width="1.5" d="M0,-3.0v7 M-2.5,-0.5L0,-3.0L2.5,-0.5"/>
                </g>
                <g id="arrowDown" xlink:href="#dirArrow" transform="rotate(180) translate(-30 -48)" onmousedown="handlePan(0,1)">
                  <use xlink:href="#rim" fill="#404040">
                        <set attributeName="fill" to="#808080" begin="arrowDown.mouseover" end="arrowDown.mouseout"/>
                  </use>
                  <path fill="none" stroke="white" stroke-width="1.5" d="M0,-3.0v7 M-2.5,-0.5L0,-3.0L2.5,-0.5"/>
                </g>
                <g id="arrowLeft" xlink:href="#dirArrow" transform="rotate(270) translate(-36 17)" onmousedown="handlePan(-1,0)">
                  <use xlink:href="#rim" fill="#404040">
                        <set attributeName="fill" to="#808080" begin="arrowLeft.mouseover" end="arrowLeft.mouseout"/>
                  </use>
                  <path fill="none" stroke="white" stroke-width="1.5" d="M0,-3.0v7 M-2.5,-0.5L0,-3.0L2.5,-0.5"/>
                </g>
        </g>
        <svg viewBox="0 0 15 15" width="100%" height="30px" preserveAspectRatio="xMaxYMin meet">
         <g id="arrow_out" transform="scale(0.3 0.3)">
          <a xlink:href="classPgp3GthUsIpWrapper__inherit__graph_org.svg" target="_base">
           <rect id="button" ry="5" rx="5" y="6" x="6" height="38" width="38"
                fill="#f2f5e9" fill-opacity="0.5" stroke="#606060" stroke-width="1.0"/>
           <path id="arrow"
             d="M 11.500037,31.436501 C 11.940474,20.09759 22.043105,11.32322 32.158766,21.979434 L 37.068811,17.246167 C 37.068811,17.246167 37.088388,32 37.088388,32 L 22.160133,31.978069 C 22.160133,31.978069 26.997745,27.140456 26.997745,27.140456 C 18.528582,18.264221 13.291696,25.230495 11.500037,31.436501 z"
             style="fill:#404040;"/>
          </a>
         </g>
        </svg>
</svg>
