<?xml version="1.0" encoding="UTF-8" standalone="no"?>
<!DOCTYPE svg PUBLIC "-//W3C//DTD SVG 1.1//EN"
 "http://www.w3.org/Graphics/SVG/1.1/DTD/svg11.dtd">
<!-- Generated by graphviz version 2.43.0 (0)
 -->
<!-- Title: EthMacRxPause Pages: 1 -->
<!--zoomable 674 -->
<svg id="main" version="1.1" xmlns="http://www.w3.org/2000/svg" xmlns:xlink="http://www.w3.org/1999/xlink" xml:space="preserve" onload="init(evt)">
<style type="text/css"><![CDATA[
.edge:hover path { stroke: red; }
.edge:hover polygon { stroke: red; fill: red; }
]]></style>
<script type="text/javascript"><![CDATA[
var edges = document.getElementsByTagName('g');
if (edges && edges.length) {
  for (var i=0;i<edges.length;i++) {
    if (edges[i].id.substr(0,4)=='edge') {
      edges[i].setAttribute('class','edge');
    }
  }
}
]]></script>
        <defs>
                <circle id="rim" cx="0" cy="0" r="7"/>
                <circle id="rim2" cx="0" cy="0" r="3.5"/>
                <g id="zoomPlus">
                        <use xlink:href="#rim" fill="#404040">
                                <set attributeName="fill" to="#808080" begin="zoomplus.mouseover" end="zoomplus.mouseout"/>
                        </use>
                        <path d="M-4,0h8M0,-4v8" fill="none" stroke="white" stroke-width="1.5" pointer-events="none"/>
                </g>
                <g id="zoomMin">
                        <use xlink:href="#rim" fill="#404040">
                                <set attributeName="fill" to="#808080" begin="zoomminus.mouseover" end="zoomminus.mouseout"/>
                        </use>
                        <path d="M-4,0h8" fill="none" stroke="white" stroke-width="1.5" pointer-events="none"/>
                </g>
                <g id="dirArrow">
                        <path fill="none" stroke="white" stroke-width="1.5" d="M0,-3.0v7 M-2.5,-0.5L0,-3.0L2.5,-0.5"/>
                </g>
               <g id="resetDef">
                       <use xlink:href="#rim2" fill="#404040">
                               <set attributeName="fill" to="#808080" begin="reset.mouseover" end="reset.mouseout"/>
                       </use>
               </g>
        </defs>

<script type="text/javascript">
var viewWidth = 687;
var viewHeight = 674;
var sectionId = 'dynsection-0';
</script>
<script xlink:href="svgpan.js"/>
<svg id="graph" class="graph">
<g id="viewport">
<title>EthMacRxPause</title>
<polygon fill="white" stroke="transparent" points="-4,4 -4,-670 683,-670 683,4 -4,4"/>
<!-- Node1 -->
<g id="node1" class="node">
<title>Node1</title>
<g id="a_node1"><a xlink:title=" ">
<polygon fill="#bfbfbf" stroke="black" points="0,-323.5 0,-342.5 94,-342.5 94,-323.5 0,-323.5"/>
<text text-anchor="middle" x="47" y="-330.5" font-family="Helvetica,sans-Serif" font-size="10.00">EthMacRxPause</text>
</a>
</g>
</g>
<!-- Node2 -->
<g id="node2" class="node">
<title>Node2</title>
<g id="a_node2"><a xlink:href="classEthMacRx.html" target="_top" xlink:title=" ">
<polygon fill="white" stroke="black" points="130,-323.5 130,-342.5 195,-342.5 195,-323.5 130,-323.5"/>
<text text-anchor="middle" x="162.5" y="-330.5" font-family="Helvetica,sans-Serif" font-size="10.00">EthMacRx</text>
</a>
</g>
</g>
<!-- Node1&#45;&gt;Node2 -->
<g id="edge1" class="edge">
<title>Node1&#45;&gt;Node2</title>
<path fill="none" stroke="midnightblue" d="M104.42,-333C113.2,-333 122,-333 129.96,-333"/>
<polygon fill="midnightblue" stroke="midnightblue" points="104.16,-329.5 94.16,-333 104.16,-336.5 104.16,-329.5"/>
</g>
<!-- Node3 -->
<g id="node3" class="node">
<title>Node3</title>
<g id="a_node3"><a xlink:href="classEthMacTop.html" target="_top" xlink:title=" ">
<polygon fill="white" stroke="black" points="231,-323.5 231,-342.5 300,-342.5 300,-323.5 231,-323.5"/>
<text text-anchor="middle" x="265.5" y="-330.5" font-family="Helvetica,sans-Serif" font-size="10.00">EthMacTop</text>
</a>
</g>
</g>
<!-- Node2&#45;&gt;Node3 -->
<g id="edge2" class="edge">
<title>Node2&#45;&gt;Node3</title>
<path fill="none" stroke="midnightblue" d="M205.32,-333C213.82,-333 222.66,-333 230.84,-333"/>
<polygon fill="midnightblue" stroke="midnightblue" points="205.18,-329.5 195.18,-333 205.18,-336.5 205.18,-329.5"/>
</g>
<!-- Node4 -->
<g id="node4" class="node">
<title>Node4</title>
<g id="a_node4"><a xlink:href="classEthMacFastTb.html" target="_top" xlink:title=" ">
<polygon fill="white" stroke="black" points="360.5,-646.5 360.5,-665.5 444.5,-665.5 444.5,-646.5 360.5,-646.5"/>
<text text-anchor="middle" x="402.5" y="-653.5" font-family="Helvetica,sans-Serif" font-size="10.00">EthMacFastTb</text>
</a>
</g>
</g>
<!-- Node3&#45;&gt;Node4 -->
<g id="edge3" class="edge">
<title>Node3&#45;&gt;Node4</title>
<path fill="none" stroke="midnightblue" d="M268.43,-352.88C274.73,-413.63 296.55,-595.21 336,-637 342.5,-643.89 351.34,-648.33 360.41,-651.17"/>
<polygon fill="midnightblue" stroke="midnightblue" points="271.89,-352.31 267.41,-342.71 264.93,-353.01 271.89,-352.31"/>
</g>
<!-- Node5 -->
<g id="node5" class="node">
<title>Node5</title>
<g id="a_node5"><a xlink:href="classEthMacPauseTb.html" target="_top" xlink:title=" ">
<polygon fill="white" stroke="black" points="356,-608.5 356,-627.5 449,-627.5 449,-608.5 356,-608.5"/>
<text text-anchor="middle" x="402.5" y="-615.5" font-family="Helvetica,sans-Serif" font-size="10.00">EthMacPauseTb</text>
</a>
</g>
</g>
<!-- Node3&#45;&gt;Node5 -->
<g id="edge4" class="edge">
<title>Node3&#45;&gt;Node5</title>
<path fill="none" stroke="midnightblue" d="M269.09,-352.55C276.77,-407.75 301.11,-563.17 336,-599 341.45,-604.6 348.45,-608.57 355.82,-611.39"/>
<polygon fill="midnightblue" stroke="midnightblue" points="272.55,-352.07 267.74,-342.63 265.62,-353.01 272.55,-352.07"/>
</g>
<!-- Node6 -->
<g id="node6" class="node">
<title>Node6</title>
<g id="a_node6"><a xlink:href="classEthMacTb.html" target="_top" xlink:title=" ">
<polygon fill="white" stroke="black" points="370,-570.5 370,-589.5 435,-589.5 435,-570.5 370,-570.5"/>
<text text-anchor="middle" x="402.5" y="-577.5" font-family="Helvetica,sans-Serif" font-size="10.00">EthMacTb</text>
</a>
</g>
</g>
<!-- Node3&#45;&gt;Node6 -->
<g id="edge5" class="edge">
<title>Node3&#45;&gt;Node6</title>
<path fill="none" stroke="midnightblue" d="M266.58,-353.14C267.88,-397.26 277.32,-503.11 336,-561 345.02,-569.9 357.94,-574.68 369.93,-577.23"/>
<polygon fill="midnightblue" stroke="midnightblue" points="270.07,-352.81 266.4,-342.87 263.08,-352.93 270.07,-352.81"/>
</g>
<!-- Node7 -->
<g id="node7" class="node">
<title>Node7</title>
<g id="a_node7"><a xlink:href="classGigEthGth7.html" target="_top" xlink:title=" ">
<polygon fill="white" stroke="black" points="366.5,-532.5 366.5,-551.5 438.5,-551.5 438.5,-532.5 366.5,-532.5"/>
<text text-anchor="middle" x="402.5" y="-539.5" font-family="Helvetica,sans-Serif" font-size="10.00">GigEthGth7</text>
</a>
</g>
</g>
<!-- Node3&#45;&gt;Node7 -->
<g id="edge6" class="edge">
<title>Node3&#45;&gt;Node7</title>
<path fill="none" stroke="midnightblue" d="M268,-352.89C271.97,-391.41 286.22,-476.51 336,-523 344.31,-530.76 355.6,-535.37 366.46,-538.1"/>
<polygon fill="midnightblue" stroke="midnightblue" points="271.45,-352.17 267.06,-342.52 264.47,-352.8 271.45,-352.17"/>
</g>
<!-- Node9 -->
<g id="node9" class="node">
<title>Node9</title>
<g id="a_node9"><a xlink:href="classGigEthGthUltraScale.html" target="_top" xlink:title=" ">
<polygon fill="white" stroke="black" points="344.5,-494.5 344.5,-513.5 460.5,-513.5 460.5,-494.5 344.5,-494.5"/>
<text text-anchor="middle" x="402.5" y="-501.5" font-family="Helvetica,sans-Serif" font-size="10.00">GigEthGthUltraScale</text>
</a>
</g>
</g>
<!-- Node3&#45;&gt;Node9 -->
<g id="edge8" class="edge">
<title>Node3&#45;&gt;Node9</title>
<path fill="none" stroke="midnightblue" d="M270.08,-352.94C276.96,-385.43 295.13,-449.72 336,-485 340.48,-488.87 345.71,-491.95 351.23,-494.41"/>
<polygon fill="midnightblue" stroke="midnightblue" points="273.46,-352 268.1,-342.87 266.59,-353.36 273.46,-352"/>
</g>
<!-- Node11 -->
<g id="node11" class="node">
<title>Node11</title>
<g id="a_node11"><a xlink:href="classGigEthGtp7.html" target="_top" xlink:title=" ">
<polygon fill="white" stroke="black" points="366.5,-456.5 366.5,-475.5 438.5,-475.5 438.5,-456.5 366.5,-456.5"/>
<text text-anchor="middle" x="402.5" y="-463.5" font-family="Helvetica,sans-Serif" font-size="10.00">GigEthGtp7</text>
</a>
</g>
</g>
<!-- Node3&#45;&gt;Node11 -->
<g id="edge10" class="edge">
<title>Node3&#45;&gt;Node11</title>
<path fill="none" stroke="midnightblue" d="M273.15,-352.23C282.93,-377.69 303.62,-422.24 336,-447 344.75,-453.69 355.78,-458.03 366.29,-460.84"/>
<polygon fill="midnightblue" stroke="midnightblue" points="276.35,-350.79 269.62,-342.61 269.77,-353.2 276.35,-350.79"/>
</g>
<!-- Node13 -->
<g id="node13" class="node">
<title>Node13</title>
<g id="a_node13"><a xlink:href="classGigEthGtx7.html" target="_top" xlink:title=" ">
<polygon fill="white" stroke="black" points="366.5,-418.5 366.5,-437.5 438.5,-437.5 438.5,-418.5 366.5,-418.5"/>
<text text-anchor="middle" x="402.5" y="-425.5" font-family="Helvetica,sans-Serif" font-size="10.00">GigEthGtx7</text>
</a>
</g>
</g>
<!-- Node3&#45;&gt;Node13 -->
<g id="edge12" class="edge">
<title>Node3&#45;&gt;Node13</title>
<path fill="none" stroke="midnightblue" d="M278.76,-351.4C291.21,-368.7 312.04,-394.11 336,-409 345.15,-414.69 356.07,-418.73 366.35,-421.58"/>
<polygon fill="midnightblue" stroke="midnightblue" points="281.32,-348.95 272.74,-342.74 275.57,-352.95 281.32,-348.95"/>
</g>
<!-- Node15 -->
<g id="node15" class="node">
<title>Node15</title>
<g id="a_node15"><a xlink:href="classGigEthGtyUltraScale.html" target="_top" xlink:title=" ">
<polygon fill="white" stroke="black" points="344.5,-380.5 344.5,-399.5 460.5,-399.5 460.5,-380.5 344.5,-380.5"/>
<text text-anchor="middle" x="402.5" y="-387.5" font-family="Helvetica,sans-Serif" font-size="10.00">GigEthGtyUltraScale</text>
</a>
</g>
</g>
<!-- Node3&#45;&gt;Node15 -->
<g id="edge14" class="edge">
<title>Node3&#45;&gt;Node15</title>
<path fill="none" stroke="midnightblue" d="M290.59,-347.87C303.68,-355.51 320.35,-364.54 336,-371 344.65,-374.57 354.19,-377.74 363.26,-380.43"/>
<polygon fill="midnightblue" stroke="midnightblue" points="292.14,-344.72 281.75,-342.61 288.55,-350.73 292.14,-344.72"/>
</g>
<!-- Node17 -->
<g id="node17" class="node">
<title>Node17</title>
<g id="a_node17"><a xlink:href="classGigEthLvdsUltraScale.html" target="_top" xlink:title=" ">
<polygon fill="white" stroke="black" points="341.5,-342.5 341.5,-361.5 463.5,-361.5 463.5,-342.5 341.5,-342.5"/>
<text text-anchor="middle" x="402.5" y="-349.5" font-family="Helvetica,sans-Serif" font-size="10.00">GigEthLvdsUltraScale</text>
</a>
</g>
</g>
<!-- Node3&#45;&gt;Node17 -->
<g id="edge16" class="edge">
<title>Node3&#45;&gt;Node17</title>
<path fill="none" stroke="midnightblue" d="M310.25,-339.16C320.2,-340.56 330.93,-342.07 341.43,-343.55"/>
<polygon fill="midnightblue" stroke="midnightblue" points="310.61,-335.67 300.22,-337.75 309.63,-342.61 310.61,-335.67"/>
</g>
<!-- Node20 -->
<g id="node20" class="node">
<title>Node20</title>
<g id="a_node20"><a xlink:href="classTenGigEthGth7.html" target="_top" xlink:title=" ">
<polygon fill="white" stroke="black" points="358,-304.5 358,-323.5 447,-323.5 447,-304.5 358,-304.5"/>
<text text-anchor="middle" x="402.5" y="-311.5" font-family="Helvetica,sans-Serif" font-size="10.00">TenGigEthGth7</text>
</a>
</g>
</g>
<!-- Node3&#45;&gt;Node20 -->
<g id="edge19" class="edge">
<title>Node3&#45;&gt;Node20</title>
<path fill="none" stroke="midnightblue" d="M310.4,-326.82C325.58,-324.68 342.59,-322.29 357.77,-320.15"/>
<polygon fill="midnightblue" stroke="midnightblue" points="309.63,-323.39 300.22,-328.25 310.61,-330.33 309.63,-323.39"/>
</g>
<!-- Node22 -->
<g id="node22" class="node">
<title>Node22</title>
<g id="a_node22"><a xlink:href="classTenGigEthGthUltraScale.html" target="_top" xlink:title=" ">
<polygon fill="white" stroke="black" points="336,-266.5 336,-285.5 469,-285.5 469,-266.5 336,-266.5"/>
<text text-anchor="middle" x="402.5" y="-273.5" font-family="Helvetica,sans-Serif" font-size="10.00">TenGigEthGthUltraScale</text>
</a>
</g>
</g>
<!-- Node3&#45;&gt;Node22 -->
<g id="edge21" class="edge">
<title>Node3&#45;&gt;Node22</title>
<path fill="none" stroke="midnightblue" d="M290.59,-318.13C303.68,-310.49 320.35,-301.46 336,-295 344.65,-291.43 354.19,-288.26 363.26,-285.57"/>
<polygon fill="midnightblue" stroke="midnightblue" points="288.55,-315.27 281.75,-323.39 292.14,-321.28 288.55,-315.27"/>
</g>
<!-- Node24 -->
<g id="node24" class="node">
<title>Node24</title>
<g id="a_node24"><a xlink:href="classTenGigEthGtx7.html" target="_top" xlink:title=" ">
<polygon fill="white" stroke="black" points="358,-228.5 358,-247.5 447,-247.5 447,-228.5 358,-228.5"/>
<text text-anchor="middle" x="402.5" y="-235.5" font-family="Helvetica,sans-Serif" font-size="10.00">TenGigEthGtx7</text>
</a>
</g>
</g>
<!-- Node3&#45;&gt;Node24 -->
<g id="edge23" class="edge">
<title>Node3&#45;&gt;Node24</title>
<path fill="none" stroke="midnightblue" d="M278.76,-314.6C291.21,-297.3 312.04,-271.89 336,-257 342.64,-252.87 350.21,-249.61 357.78,-247.04"/>
<polygon fill="midnightblue" stroke="midnightblue" points="275.57,-313.05 272.74,-323.26 281.32,-317.05 275.57,-313.05"/>
</g>
<!-- Node26 -->
<g id="node26" class="node">
<title>Node26</title>
<g id="a_node26"><a xlink:href="classTenGigEthGtyUltraScale.html" target="_top" xlink:title=" ">
<polygon fill="white" stroke="black" points="336,-190.5 336,-209.5 469,-209.5 469,-190.5 336,-190.5"/>
<text text-anchor="middle" x="402.5" y="-197.5" font-family="Helvetica,sans-Serif" font-size="10.00">TenGigEthGtyUltraScale</text>
</a>
</g>
</g>
<!-- Node3&#45;&gt;Node26 -->
<g id="edge25" class="edge">
<title>Node3&#45;&gt;Node26</title>
<path fill="none" stroke="midnightblue" d="M273.15,-313.77C282.93,-288.31 303.62,-243.76 336,-219 341.08,-215.12 346.93,-212.03 353,-209.57"/>
<polygon fill="midnightblue" stroke="midnightblue" points="269.77,-312.8 269.62,-323.39 276.35,-315.21 269.77,-312.8"/>
</g>
<!-- Node28 -->
<g id="node28" class="node">
<title>Node28</title>
<g id="a_node28"><a xlink:href="classUdpEngineTb.html" target="_top" xlink:title=" ">
<polygon fill="white" stroke="black" points="362,-152.5 362,-171.5 443,-171.5 443,-152.5 362,-152.5"/>
<text text-anchor="middle" x="402.5" y="-159.5" font-family="Helvetica,sans-Serif" font-size="10.00">UdpEngineTb</text>
</a>
</g>
</g>
<!-- Node3&#45;&gt;Node28 -->
<g id="edge27" class="edge">
<title>Node3&#45;&gt;Node28</title>
<path fill="none" stroke="midnightblue" d="M270.08,-313.06C276.96,-280.57 295.13,-216.28 336,-181 343.26,-174.73 352.48,-170.53 361.7,-167.71"/>
<polygon fill="midnightblue" stroke="midnightblue" points="266.59,-312.64 268.1,-323.13 273.46,-314 266.59,-312.64"/>
</g>
<!-- Node29 -->
<g id="node29" class="node">
<title>Node29</title>
<g id="a_node29"><a xlink:href="classXauiGth7.html" target="_top" xlink:title=" ">
<polygon fill="white" stroke="black" points="371.5,-114.5 371.5,-133.5 433.5,-133.5 433.5,-114.5 371.5,-114.5"/>
<text text-anchor="middle" x="402.5" y="-121.5" font-family="Helvetica,sans-Serif" font-size="10.00">XauiGth7</text>
</a>
</g>
</g>
<!-- Node3&#45;&gt;Node29 -->
<g id="edge28" class="edge">
<title>Node3&#45;&gt;Node29</title>
<path fill="none" stroke="midnightblue" d="M268,-313.11C271.97,-274.59 286.22,-189.49 336,-143 345.52,-134.11 358.95,-129.35 371.18,-126.82"/>
<polygon fill="midnightblue" stroke="midnightblue" points="264.47,-313.2 267.06,-323.48 271.45,-313.83 264.47,-313.2"/>
</g>
<!-- Node31 -->
<g id="node31" class="node">
<title>Node31</title>
<g id="a_node31"><a xlink:href="classXauiGthUltraScale.html" target="_top" xlink:title=" ">
<polygon fill="white" stroke="black" points="349.5,-76.5 349.5,-95.5 455.5,-95.5 455.5,-76.5 349.5,-76.5"/>
<text text-anchor="middle" x="402.5" y="-83.5" font-family="Helvetica,sans-Serif" font-size="10.00">XauiGthUltraScale</text>
</a>
</g>
</g>
<!-- Node3&#45;&gt;Node31 -->
<g id="edge30" class="edge">
<title>Node3&#45;&gt;Node31</title>
<path fill="none" stroke="midnightblue" d="M266.58,-312.86C267.88,-268.74 277.32,-162.89 336,-105 339.88,-101.17 344.48,-98.11 349.41,-95.66"/>
<polygon fill="midnightblue" stroke="midnightblue" points="263.08,-313.07 266.4,-323.13 270.07,-313.19 263.08,-313.07"/>
</g>
<!-- Node33 -->
<g id="node33" class="node">
<title>Node33</title>
<g id="a_node33"><a xlink:href="classXauiGtx7.html" target="_top" xlink:title=" ">
<polygon fill="white" stroke="black" points="371.5,-38.5 371.5,-57.5 433.5,-57.5 433.5,-38.5 371.5,-38.5"/>
<text text-anchor="middle" x="402.5" y="-45.5" font-family="Helvetica,sans-Serif" font-size="10.00">XauiGtx7</text>
</a>
</g>
</g>
<!-- Node3&#45;&gt;Node33 -->
<g id="edge32" class="edge">
<title>Node3&#45;&gt;Node33</title>
<path fill="none" stroke="midnightblue" d="M269.09,-313.45C276.77,-258.25 301.11,-102.83 336,-67 345.25,-57.5 358.94,-52.67 371.42,-50.25"/>
<polygon fill="midnightblue" stroke="midnightblue" points="265.62,-312.99 267.74,-323.37 272.55,-313.93 265.62,-312.99"/>
</g>
<!-- Node35 -->
<g id="node35" class="node">
<title>Node35</title>
<g id="a_node35"><a xlink:href="classXauiGtyUltraScale.html" target="_top" xlink:title=" ">
<polygon fill="white" stroke="black" points="349.5,-0.5 349.5,-19.5 455.5,-19.5 455.5,-0.5 349.5,-0.5"/>
<text text-anchor="middle" x="402.5" y="-7.5" font-family="Helvetica,sans-Serif" font-size="10.00">XauiGtyUltraScale</text>
</a>
</g>
</g>
<!-- Node3&#45;&gt;Node35 -->
<g id="edge34" class="edge">
<title>Node3&#45;&gt;Node35</title>
<path fill="none" stroke="midnightblue" d="M268.43,-313.12C274.73,-252.37 296.55,-70.79 336,-29 339.82,-24.95 344.45,-21.75 349.45,-19.22"/>
<polygon fill="midnightblue" stroke="midnightblue" points="264.93,-312.99 267.41,-323.29 271.89,-313.69 264.93,-312.99"/>
</g>
<!-- Node8 -->
<g id="node8" class="node">
<title>Node8</title>
<g id="a_node8"><a xlink:href="classGigEthGth7Wrapper.html" target="_top" xlink:title=" ">
<polygon fill="white" stroke="black" points="535.5,-532.5 535.5,-551.5 648.5,-551.5 648.5,-532.5 535.5,-532.5"/>
<text text-anchor="middle" x="592" y="-539.5" font-family="Helvetica,sans-Serif" font-size="10.00">GigEthGth7Wrapper</text>
</a>
</g>
</g>
<!-- Node7&#45;&gt;Node8 -->
<g id="edge7" class="edge">
<title>Node7&#45;&gt;Node8</title>
<path fill="none" stroke="midnightblue" d="M449.08,-542C475.04,-542 507.77,-542 535.25,-542"/>
<polygon fill="midnightblue" stroke="midnightblue" points="448.77,-538.5 438.77,-542 448.77,-545.5 448.77,-538.5"/>
</g>
<!-- Node10 -->
<g id="node10" class="node">
<title>Node10</title>
<g id="a_node10"><a xlink:href="classGigEthGthUltraScaleWrapper.html" target="_top" xlink:title=" ">
<polygon fill="white" stroke="black" points="513,-494.5 513,-513.5 671,-513.5 671,-494.5 513,-494.5"/>
<text text-anchor="middle" x="592" y="-501.5" font-family="Helvetica,sans-Serif" font-size="10.00">GigEthGthUltraScaleWrapper</text>
</a>
</g>
</g>
<!-- Node9&#45;&gt;Node10 -->
<g id="edge9" class="edge">
<title>Node9&#45;&gt;Node10</title>
<path fill="none" stroke="midnightblue" d="M470.77,-504C484.4,-504 498.85,-504 512.82,-504"/>
<polygon fill="midnightblue" stroke="midnightblue" points="470.52,-500.5 460.52,-504 470.52,-507.5 470.52,-500.5"/>
</g>
<!-- Node12 -->
<g id="node12" class="node">
<title>Node12</title>
<g id="a_node12"><a xlink:href="classGigEthGtp7Wrapper.html" target="_top" xlink:title=" ">
<polygon fill="white" stroke="black" points="535.5,-456.5 535.5,-475.5 648.5,-475.5 648.5,-456.5 535.5,-456.5"/>
<text text-anchor="middle" x="592" y="-463.5" font-family="Helvetica,sans-Serif" font-size="10.00">GigEthGtp7Wrapper</text>
</a>
</g>
</g>
<!-- Node11&#45;&gt;Node12 -->
<g id="edge11" class="edge">
<title>Node11&#45;&gt;Node12</title>
<path fill="none" stroke="midnightblue" d="M449.08,-466C475.04,-466 507.77,-466 535.25,-466"/>
<polygon fill="midnightblue" stroke="midnightblue" points="448.77,-462.5 438.77,-466 448.77,-469.5 448.77,-462.5"/>
</g>
<!-- Node14 -->
<g id="node14" class="node">
<title>Node14</title>
<g id="a_node14"><a xlink:href="classGigEthGtx7Wrapper.html" target="_top" xlink:title=" ">
<polygon fill="white" stroke="black" points="535.5,-418.5 535.5,-437.5 648.5,-437.5 648.5,-418.5 535.5,-418.5"/>
<text text-anchor="middle" x="592" y="-425.5" font-family="Helvetica,sans-Serif" font-size="10.00">GigEthGtx7Wrapper</text>
</a>
</g>
</g>
<!-- Node13&#45;&gt;Node14 -->
<g id="edge13" class="edge">
<title>Node13&#45;&gt;Node14</title>
<path fill="none" stroke="midnightblue" d="M449.08,-428C475.04,-428 507.77,-428 535.25,-428"/>
<polygon fill="midnightblue" stroke="midnightblue" points="448.77,-424.5 438.77,-428 448.77,-431.5 448.77,-424.5"/>
</g>
<!-- Node16 -->
<g id="node16" class="node">
<title>Node16</title>
<g id="a_node16"><a xlink:href="classGigEthGtyUltraScaleWrapper.html" target="_top" xlink:title=" ">
<polygon fill="white" stroke="black" points="513,-380.5 513,-399.5 671,-399.5 671,-380.5 513,-380.5"/>
<text text-anchor="middle" x="592" y="-387.5" font-family="Helvetica,sans-Serif" font-size="10.00">GigEthGtyUltraScaleWrapper</text>
</a>
</g>
</g>
<!-- Node15&#45;&gt;Node16 -->
<g id="edge15" class="edge">
<title>Node15&#45;&gt;Node16</title>
<path fill="none" stroke="midnightblue" d="M470.77,-390C484.4,-390 498.85,-390 512.82,-390"/>
<polygon fill="midnightblue" stroke="midnightblue" points="470.52,-386.5 460.52,-390 470.52,-393.5 470.52,-386.5"/>
</g>
<!-- Node18 -->
<g id="node18" class="node">
<title>Node18</title>
<g id="a_node18"><a xlink:href="classSgmii88E1111LvdsUltraScale.html" target="_top" xlink:title=" ">
<polygon fill="white" stroke="black" points="512.5,-342.5 512.5,-361.5 671.5,-361.5 671.5,-342.5 512.5,-342.5"/>
<text text-anchor="middle" x="592" y="-349.5" font-family="Helvetica,sans-Serif" font-size="10.00">Sgmii88E1111LvdsUltraScale</text>
</a>
</g>
</g>
<!-- Node17&#45;&gt;Node18 -->
<g id="edge17" class="edge">
<title>Node17&#45;&gt;Node18</title>
<path fill="none" stroke="midnightblue" d="M473.98,-352C486.52,-352 499.65,-352 512.41,-352"/>
<polygon fill="midnightblue" stroke="midnightblue" points="473.6,-348.5 463.6,-352 473.6,-355.5 473.6,-348.5"/>
</g>
<!-- Node19 -->
<g id="node19" class="node">
<title>Node19</title>
<g id="a_node19"><a xlink:href="classSgmiiDp83867LvdsUltraScale.html" target="_top" xlink:title=" ">
<polygon fill="white" stroke="black" points="511.5,-304.5 511.5,-323.5 672.5,-323.5 672.5,-304.5 511.5,-304.5"/>
<text text-anchor="middle" x="592" y="-311.5" font-family="Helvetica,sans-Serif" font-size="10.00">SgmiiDp83867LvdsUltraScale</text>
</a>
</g>
</g>
<!-- Node17&#45;&gt;Node19 -->
<g id="edge18" class="edge">
<title>Node17&#45;&gt;Node19</title>
<path fill="none" stroke="midnightblue" d="M460.78,-340.39C487.45,-334.99 518.78,-328.64 544.03,-323.52"/>
<polygon fill="midnightblue" stroke="midnightblue" points="459.92,-336.99 450.81,-342.41 461.31,-343.85 459.92,-336.99"/>
</g>
<!-- Node21 -->
<g id="node21" class="node">
<title>Node21</title>
<g id="a_node21"><a xlink:href="classTenGigEthGth7Wrapper.html" target="_top" xlink:title=" ">
<polygon fill="white" stroke="black" points="527,-266.5 527,-285.5 657,-285.5 657,-266.5 527,-266.5"/>
<text text-anchor="middle" x="592" y="-273.5" font-family="Helvetica,sans-Serif" font-size="10.00">TenGigEthGth7Wrapper</text>
</a>
</g>
</g>
<!-- Node20&#45;&gt;Node21 -->
<g id="edge20" class="edge">
<title>Node20&#45;&gt;Node21</title>
<path fill="none" stroke="midnightblue" d="M457.28,-303.1C484.67,-297.55 517.67,-290.86 544.04,-285.52"/>
<polygon fill="midnightblue" stroke="midnightblue" points="456.57,-299.67 447.46,-305.09 457.96,-306.53 456.57,-299.67"/>
</g>
<!-- Node23 -->
<g id="node23" class="node">
<title>Node23</title>
<g id="a_node23"><a xlink:href="classTenGigEthGthUltraScaleWrapper.html" target="_top" xlink:title=" ">
<polygon fill="white" stroke="black" points="505,-228.5 505,-247.5 679,-247.5 679,-228.5 505,-228.5"/>
<text text-anchor="middle" x="592" y="-235.5" font-family="Helvetica,sans-Serif" font-size="10.00">TenGigEthGthUltraScaleWrapper</text>
</a>
</g>
</g>
<!-- Node22&#45;&gt;Node23 -->
<g id="edge22" class="edge">
<title>Node22&#45;&gt;Node23</title>
<path fill="none" stroke="midnightblue" d="M460.78,-264.39C487.45,-258.99 518.78,-252.64 544.03,-247.52"/>
<polygon fill="midnightblue" stroke="midnightblue" points="459.92,-260.99 450.81,-266.41 461.31,-267.85 459.92,-260.99"/>
</g>
<!-- Node25 -->
<g id="node25" class="node">
<title>Node25</title>
<g id="a_node25"><a xlink:href="classTenGigEthGtx7Wrapper.html" target="_top" xlink:title=" ">
<polygon fill="white" stroke="black" points="527,-190.5 527,-209.5 657,-209.5 657,-190.5 527,-190.5"/>
<text text-anchor="middle" x="592" y="-197.5" font-family="Helvetica,sans-Serif" font-size="10.00">TenGigEthGtx7Wrapper</text>
</a>
</g>
</g>
<!-- Node24&#45;&gt;Node25 -->
<g id="edge24" class="edge">
<title>Node24&#45;&gt;Node25</title>
<path fill="none" stroke="midnightblue" d="M457.28,-227.1C484.67,-221.55 517.67,-214.86 544.04,-209.52"/>
<polygon fill="midnightblue" stroke="midnightblue" points="456.57,-223.67 447.46,-229.09 457.96,-230.53 456.57,-223.67"/>
</g>
<!-- Node27 -->
<g id="node27" class="node">
<title>Node27</title>
<g id="a_node27"><a xlink:href="classTenGigEthGtyUltraScaleWrapper.html" target="_top" xlink:title=" ">
<polygon fill="white" stroke="black" points="505,-152.5 505,-171.5 679,-171.5 679,-152.5 505,-152.5"/>
<text text-anchor="middle" x="592" y="-159.5" font-family="Helvetica,sans-Serif" font-size="10.00">TenGigEthGtyUltraScaleWrapper</text>
</a>
</g>
</g>
<!-- Node26&#45;&gt;Node27 -->
<g id="edge26" class="edge">
<title>Node26&#45;&gt;Node27</title>
<path fill="none" stroke="midnightblue" d="M460.78,-188.39C487.45,-182.99 518.78,-176.64 544.03,-171.52"/>
<polygon fill="midnightblue" stroke="midnightblue" points="459.92,-184.99 450.81,-190.41 461.31,-191.85 459.92,-184.99"/>
</g>
<!-- Node30 -->
<g id="node30" class="node">
<title>Node30</title>
<g id="a_node30"><a xlink:href="classXauiGth7Wrapper.html" target="_top" xlink:title=" ">
<polygon fill="white" stroke="black" points="540.5,-114.5 540.5,-133.5 643.5,-133.5 643.5,-114.5 540.5,-114.5"/>
<text text-anchor="middle" x="592" y="-121.5" font-family="Helvetica,sans-Serif" font-size="10.00">XauiGth7Wrapper</text>
</a>
</g>
</g>
<!-- Node29&#45;&gt;Node30 -->
<g id="edge29" class="edge">
<title>Node29&#45;&gt;Node30</title>
<path fill="none" stroke="midnightblue" d="M443.95,-124C472.23,-124 510.19,-124 540.46,-124"/>
<polygon fill="midnightblue" stroke="midnightblue" points="443.63,-120.5 433.63,-124 443.63,-127.5 443.63,-120.5"/>
</g>
<!-- Node32 -->
<g id="node32" class="node">
<title>Node32</title>
<g id="a_node32"><a xlink:href="classXauiGthUltraScaleWrapper.html" target="_top" xlink:title=" ">
<polygon fill="white" stroke="black" points="518.5,-76.5 518.5,-95.5 665.5,-95.5 665.5,-76.5 518.5,-76.5"/>
<text text-anchor="middle" x="592" y="-83.5" font-family="Helvetica,sans-Serif" font-size="10.00">XauiGthUltraScaleWrapper</text>
</a>
</g>
</g>
<!-- Node31&#45;&gt;Node32 -->
<g id="edge31" class="edge">
<title>Node31&#45;&gt;Node32</title>
<path fill="none" stroke="midnightblue" d="M465.97,-86C482.77,-86 501.08,-86 518.38,-86"/>
<polygon fill="midnightblue" stroke="midnightblue" points="465.73,-82.5 455.73,-86 465.73,-89.5 465.73,-82.5"/>
</g>
<!-- Node34 -->
<g id="node34" class="node">
<title>Node34</title>
<g id="a_node34"><a xlink:href="classXauiGtx7Wrapper.html" target="_top" xlink:title=" ">
<polygon fill="white" stroke="black" points="540.5,-38.5 540.5,-57.5 643.5,-57.5 643.5,-38.5 540.5,-38.5"/>
<text text-anchor="middle" x="592" y="-45.5" font-family="Helvetica,sans-Serif" font-size="10.00">XauiGtx7Wrapper</text>
</a>
</g>
</g>
<!-- Node33&#45;&gt;Node34 -->
<g id="edge33" class="edge">
<title>Node33&#45;&gt;Node34</title>
<path fill="none" stroke="midnightblue" d="M443.95,-48C472.23,-48 510.19,-48 540.46,-48"/>
<polygon fill="midnightblue" stroke="midnightblue" points="443.63,-44.5 433.63,-48 443.63,-51.5 443.63,-44.5"/>
</g>
<!-- Node36 -->
<g id="node36" class="node">
<title>Node36</title>
<g id="a_node36"><a xlink:href="classXauiGtyUltraScaleWrapper.html" target="_top" xlink:title=" ">
<polygon fill="white" stroke="black" points="518.5,-0.5 518.5,-19.5 665.5,-19.5 665.5,-0.5 518.5,-0.5"/>
<text text-anchor="middle" x="592" y="-7.5" font-family="Helvetica,sans-Serif" font-size="10.00">XauiGtyUltraScaleWrapper</text>
</a>
</g>
</g>
<!-- Node35&#45;&gt;Node36 -->
<g id="edge35" class="edge">
<title>Node35&#45;&gt;Node36</title>
<path fill="none" stroke="midnightblue" d="M465.97,-10C482.77,-10 501.08,-10 518.38,-10"/>
<polygon fill="midnightblue" stroke="midnightblue" points="465.73,-6.5 455.73,-10 465.73,-13.5 465.73,-6.5"/>
</g>
</g>
</svg>
        <g id="navigator" transform="translate(0 0)" fill="#404254">
                <rect fill="#f2f5e9" fill-opacity="0.5" stroke="#606060" stroke-width=".5" x="0" y="0" width="60" height="60"/>
                <use id="zoomplus" xlink:href="#zoomPlus" x="17" y="9" onmousedown="handleZoom(evt,'in')"/>
                <use id="zoomminus" xlink:href="#zoomMin" x="42" y="9" onmousedown="handleZoom(evt,'out')"/>
                <use id="reset" xlink:href="#resetDef" x="30" y="36" onmousedown="handleReset()"/>
                <g id="arrowUp" xlink:href="#dirArrow" transform="translate(30 24)" onmousedown="handlePan(0,-1)">
                  <use xlink:href="#rim" fill="#404040">
                        <set attributeName="fill" to="#808080" begin="arrowUp.mouseover" end="arrowUp.mouseout"/>
                  </use>
                  <path fill="none" stroke="white" stroke-width="1.5" d="M0,-3.0v7 M-2.5,-0.5L0,-3.0L2.5,-0.5"/>
                </g>
                <g id="arrowRight" xlink:href="#dirArrow" transform="rotate(90) translate(36 -43)" onmousedown="handlePan(1,0)">
                  <use xlink:href="#rim" fill="#404040">
                        <set attributeName="fill" to="#808080" begin="arrowRight.mouseover" end="arrowRight.mouseout"/>
                  </use>
                  <path fill="none" stroke="white" stroke-width="1.5" d="M0,-3.0v7 M-2.5,-0.5L0,-3.0L2.5,-0.5"/>
                </g>
                <g id="arrowDown" xlink:href="#dirArrow" transform="rotate(180) translate(-30 -48)" onmousedown="handlePan(0,1)">
                  <use xlink:href="#rim" fill="#404040">
                        <set attributeName="fill" to="#808080" begin="arrowDown.mouseover" end="arrowDown.mouseout"/>
                  </use>
                  <path fill="none" stroke="white" stroke-width="1.5" d="M0,-3.0v7 M-2.5,-0.5L0,-3.0L2.5,-0.5"/>
                </g>
                <g id="arrowLeft" xlink:href="#dirArrow" transform="rotate(270) translate(-36 17)" onmousedown="handlePan(-1,0)">
                  <use xlink:href="#rim" fill="#404040">
                        <set attributeName="fill" to="#808080" begin="arrowLeft.mouseover" end="arrowLeft.mouseout"/>
                  </use>
                  <path fill="none" stroke="white" stroke-width="1.5" d="M0,-3.0v7 M-2.5,-0.5L0,-3.0L2.5,-0.5"/>
                </g>
        </g>
        <svg viewBox="0 0 15 15" width="100%" height="30px" preserveAspectRatio="xMaxYMin meet">
         <g id="arrow_out" transform="scale(0.3 0.3)">
          <a xlink:href="classEthMacRxPause__inherit__graph_org.svg" target="_base">
           <rect id="button" ry="5" rx="5" y="6" x="6" height="38" width="38"
                fill="#f2f5e9" fill-opacity="0.5" stroke="#606060" stroke-width="1.0"/>
           <path id="arrow"
             d="M 11.500037,31.436501 C 11.940474,20.09759 22.043105,11.32322 32.158766,21.979434 L 37.068811,17.246167 C 37.068811,17.246167 37.088388,32 37.088388,32 L 22.160133,31.978069 C 22.160133,31.978069 26.997745,27.140456 26.997745,27.140456 C 18.528582,18.264221 13.291696,25.230495 11.500037,31.436501 z"
             style="fill:#404040;"/>
          </a>
         </g>
        </svg>
</svg>
