<?xml version="1.0" encoding="UTF-8" standalone="no"?>
<!DOCTYPE svg PUBLIC "-//W3C//DTD SVG 1.1//EN"
 "http://www.w3.org/Graphics/SVG/1.1/DTD/svg11.dtd">
<!-- Generated by graphviz version 2.43.0 (0)
 -->
<!-- Title: csa3 Pages: 1 -->
<svg width="178pt" height="192pt"
 viewBox="0.00 0.00 178.00 192.00" xmlns="http://www.w3.org/2000/svg" xmlns:xlink="http://www.w3.org/1999/xlink">
<g id="graph0" class="graph" transform="scale(1 1) rotate(0) translate(4 188)">
<title>csa3</title>
<!-- Node1 -->
<g id="Node000001" class="node">
<title>Node1</title>
<g id="a_Node000001"><a xlink:title=" ">
<polygon fill="#999999" stroke="#666666" points="106.5,-184 67.5,-184 67.5,-165 106.5,-165 106.5,-184"/>
<text text-anchor="middle" x="87" y="-172" font-family="Helvetica,sans-Serif" font-size="10.00">csa3</text>
</a>
</g>
</g>
<!-- Node2 -->
<g id="Node000002" class="node">
<title>Node2</title>
<g id="a_Node000002"><a xlink:href="classadd3.html" target="_top" xlink:title=" ">
<polygon fill="white" stroke="#bfbfbf" points="107.5,-129 66.5,-129 66.5,-110 107.5,-110 107.5,-129"/>
<text text-anchor="middle" x="87" y="-117" font-family="Helvetica,sans-Serif" font-size="10.00">add3</text>
</a>
</g>
</g>
<!-- Node1&#45;&gt;Node2 -->
<g id="edge1_Node000001_Node000002" class="edge">
<title>Node1&#45;&gt;Node2</title>
<g id="a_edge1_Node000001_Node000002"><a xlink:title=" ">
<path fill="none" stroke="#63b8ff" d="M87,-154.66C87,-145.93 87,-135.99 87,-129.09"/>
<polygon fill="#63b8ff" stroke="#63b8ff" points="83.5,-154.75 87,-164.75 90.5,-154.75 83.5,-154.75"/>
</a>
</g>
</g>
<!-- Node3 -->
<g id="Node000003" class="node">
<title>Node3</title>
<g id="a_Node000003"><a xlink:href="classFirAverage.html" target="_top" xlink:title=" ">
<polygon fill="white" stroke="#bfbfbf" points="77,-74 9,-74 9,-55 77,-55 77,-74"/>
<text text-anchor="middle" x="43" y="-62" font-family="Helvetica,sans-Serif" font-size="10.00">FirAverage</text>
</a>
</g>
</g>
<!-- Node2&#45;&gt;Node3 -->
<g id="edge2_Node000002_Node000003" class="edge">
<title>Node2&#45;&gt;Node3</title>
<g id="a_edge2_Node000002_Node000003"><a xlink:title=" ">
<path fill="none" stroke="#63b8ff" d="M73.27,-101.96C65.6,-92.72 56.37,-81.6 50.13,-74.09"/>
<polygon fill="#63b8ff" stroke="#63b8ff" points="70.65,-104.29 79.73,-109.75 76.04,-99.82 70.65,-104.29"/>
</a>
</g>
</g>
<!-- Node5 -->
<g id="Node000005" class="node">
<title>Node5</title>
<g id="a_Node000005"><a xlink:href="classIirSimple.html" target="_top" xlink:title=" ">
<polygon fill="white" stroke="#bfbfbf" points="161,-74 101,-74 101,-55 161,-55 161,-74"/>
<text text-anchor="middle" x="131" y="-62" font-family="Helvetica,sans-Serif" font-size="10.00">IirSimple</text>
</a>
</g>
</g>
<!-- Node2&#45;&gt;Node5 -->
<g id="edge4_Node000002_Node000005" class="edge">
<title>Node2&#45;&gt;Node5</title>
<g id="a_edge4_Node000002_Node000005"><a xlink:title=" ">
<path fill="none" stroke="#63b8ff" d="M100.73,-101.96C108.4,-92.72 117.63,-81.6 123.87,-74.09"/>
<polygon fill="#63b8ff" stroke="#63b8ff" points="97.96,-99.82 94.27,-109.75 103.35,-104.29 97.96,-99.82"/>
</a>
</g>
</g>
<!-- Node4 -->
<g id="Node000004" class="node">
<title>Node4</title>
<g id="a_Node000004"><a xlink:href="classFirAverageTb.html" target="_top" xlink:title=" ">
<polygon fill="white" stroke="#bfbfbf" points="80,-19 0,-19 0,0 80,0 80,-19"/>
<text text-anchor="middle" x="40" y="-7" font-family="Helvetica,sans-Serif" font-size="10.00">FirAverageTb</text>
</a>
</g>
</g>
<!-- Node3&#45;&gt;Node4 -->
<g id="edge3_Node000003_Node000004" class="edge">
<title>Node3&#45;&gt;Node4</title>
<g id="a_edge3_Node000003_Node000004"><a xlink:title=" ">
<path fill="none" stroke="#63b8ff" d="M41.93,-44.66C41.44,-35.93 40.88,-25.99 40.49,-19.09"/>
<polygon fill="#63b8ff" stroke="#63b8ff" points="38.44,-44.96 42.5,-54.75 45.43,-44.57 38.44,-44.96"/>
</a>
</g>
</g>
<!-- Node6 -->
<g id="Node000006" class="node">
<title>Node6</title>
<g id="a_Node000006"><a xlink:href="classIirSimpleTb.html" target="_top" xlink:title=" ">
<polygon fill="white" stroke="#bfbfbf" points="170,-19 98,-19 98,0 170,0 170,-19"/>
<text text-anchor="middle" x="134" y="-7" font-family="Helvetica,sans-Serif" font-size="10.00">IirSimpleTb</text>
</a>
</g>
</g>
<!-- Node5&#45;&gt;Node6 -->
<g id="edge5_Node000005_Node000006" class="edge">
<title>Node5&#45;&gt;Node6</title>
<g id="a_edge5_Node000005_Node000006"><a xlink:title=" ">
<path fill="none" stroke="#63b8ff" d="M132.07,-44.66C132.56,-35.93 133.12,-25.99 133.51,-19.09"/>
<polygon fill="#63b8ff" stroke="#63b8ff" points="128.57,-44.57 131.5,-54.75 135.56,-44.96 128.57,-44.57"/>
</a>
</g>
</g>
</g>
</svg>
