<?xml version="1.0" encoding="UTF-8" standalone="no"?>
<!DOCTYPE svg PUBLIC "-//W3C//DTD SVG 1.1//EN"
 "http://www.w3.org/Graphics/SVG/1.1/DTD/svg11.dtd">
<!-- Generated by graphviz version 2.43.0 (0)
 -->
<!-- Title: UdpEngineWrapper Pages: 1 -->
<!--zoomable 826 -->
<svg id="main" version="1.1" xmlns="http://www.w3.org/2000/svg" xmlns:xlink="http://www.w3.org/1999/xlink" xml:space="preserve" onload="init(evt)">
<style type="text/css"><![CDATA[
.edge:hover path { stroke: red; }
.edge:hover polygon { stroke: red; fill: red; }
]]></style>
<script type="text/javascript"><![CDATA[
var edges = document.getElementsByTagName('g');
if (edges && edges.length) {
  for (var i=0;i<edges.length;i++) {
    if (edges[i].id.substr(0,4)=='edge') {
      edges[i].setAttribute('class','edge');
    }
  }
}
]]></script>
        <defs>
                <circle id="rim" cx="0" cy="0" r="7"/>
                <circle id="rim2" cx="0" cy="0" r="3.5"/>
                <g id="zoomPlus">
                        <use xlink:href="#rim" fill="#404040">
                                <set attributeName="fill" to="#808080" begin="zoomplus.mouseover" end="zoomplus.mouseout"/>
                        </use>
                        <path d="M-4,0h8M0,-4v8" fill="none" stroke="white" stroke-width="1.5" pointer-events="none"/>
                </g>
                <g id="zoomMin">
                        <use xlink:href="#rim" fill="#404040">
                                <set attributeName="fill" to="#808080" begin="zoomminus.mouseover" end="zoomminus.mouseout"/>
                        </use>
                        <path d="M-4,0h8" fill="none" stroke="white" stroke-width="1.5" pointer-events="none"/>
                </g>
                <g id="dirArrow">
                        <path fill="none" stroke="white" stroke-width="1.5" d="M0,-3.0v7 M-2.5,-0.5L0,-3.0L2.5,-0.5"/>
                </g>
               <g id="resetDef">
                       <use xlink:href="#rim2" fill="#404040">
                               <set attributeName="fill" to="#808080" begin="reset.mouseover" end="reset.mouseout"/>
                       </use>
               </g>
        </defs>

<script type="text/javascript">
var viewWidth = 1234;
var viewHeight = 826;
var sectionId = 'dynsection-1';
</script>
<script xlink:href="svgpan.js"/>
<svg id="graph" class="graph">
<g id="viewport">
<title>UdpEngineWrapper</title>
<polygon fill="white" stroke="transparent" points="-4,4 -4,-822 1230,-822 1230,4 -4,4"/>
<!-- Node1 -->
<g id="node1" class="node">
<title>Node1</title>
<g id="a_node1"><a xlink:title=" ">
<polygon fill="#bfbfbf" stroke="black" points="1116,-513.5 1116,-532.5 1226,-532.5 1226,-513.5 1116,-513.5"/>
<text text-anchor="middle" x="1171" y="-520.5" font-family="Helvetica,sans-Serif" font-size="10.00">UdpEngineWrapper</text>
</a>
</g>
</g>
<!-- Node2 -->
<g id="node2" class="node">
<title>Node2</title>
<g id="a_node2"><a xlink:href="classIpV4Engine.html" target="_top" xlink:title=" ">
<polygon fill="white" stroke="black" points="753.5,-665.5 753.5,-684.5 824.5,-684.5 824.5,-665.5 753.5,-665.5"/>
<text text-anchor="middle" x="789" y="-672.5" font-family="Helvetica,sans-Serif" font-size="10.00">IpV4Engine</text>
</a>
</g>
</g>
<!-- Node2&#45;&gt;Node1 -->
<g id="edge1" class="edge">
<title>Node2&#45;&gt;Node1</title>
<path fill="none" stroke="midnightblue" d="M823.25,-661.7C898.62,-631.55 1080.94,-558.62 1146.24,-532.5"/>
<polygon fill="midnightblue" stroke="midnightblue" points="821.76,-658.53 813.77,-665.49 824.36,-665.03 821.76,-658.53"/>
</g>
<!-- Node3 -->
<g id="node3" class="node">
<title>Node3</title>
<g id="a_node3"><a xlink:href="classIpV4EngineDeMux.html" target="_top" xlink:title=" ">
<polygon fill="white" stroke="black" points="583,-798.5 583,-817.5 689,-817.5 689,-798.5 583,-798.5"/>
<text text-anchor="middle" x="636" y="-805.5" font-family="Helvetica,sans-Serif" font-size="10.00">IpV4EngineDeMux</text>
</a>
</g>
</g>
<!-- Node3&#45;&gt;Node2 -->
<g id="edge2" class="edge">
<title>Node3&#45;&gt;Node2</title>
<path fill="none" stroke="midnightblue" d="M687.81,-794.36C691.03,-792.76 694.12,-790.98 697,-789 738.96,-760.18 771.13,-706.34 783.01,-684.53"/>
<polygon fill="midnightblue" stroke="midnightblue" points="686.29,-791.2 678.53,-798.41 689.09,-797.62 686.29,-791.2"/>
</g>
<!-- Node4 -->
<g id="node4" class="node">
<title>Node4</title>
<g id="a_node4"><a xlink:href="classAxiStreamMux.html" target="_top" xlink:title=" ">
<polygon fill="white" stroke="black" points="434.5,-570.5 434.5,-589.5 523.5,-589.5 523.5,-570.5 434.5,-570.5"/>
<text text-anchor="middle" x="479" y="-577.5" font-family="Helvetica,sans-Serif" font-size="10.00">AxiStreamMux</text>
</a>
</g>
</g>
<!-- Node4&#45;&gt;Node2 -->
<g id="edge3" class="edge">
<title>Node4&#45;&gt;Node2</title>
<path fill="none" stroke="midnightblue" d="M533.99,-575.93C579.23,-574.55 644.63,-577.38 697,-599 733.15,-613.93 765.77,-648.56 780.18,-665.43"/>
<polygon fill="midnightblue" stroke="midnightblue" points="533.66,-572.44 523.8,-576.33 533.93,-579.44 533.66,-572.44"/>
</g>
<!-- Node7 -->
<g id="node7" class="node">
<title>Node7</title>
<g id="a_node7"><a xlink:href="classIpV4EngineRx.html" target="_top" xlink:title=" ">
<polygon fill="white" stroke="black" points="594,-722.5 594,-741.5 678,-741.5 678,-722.5 594,-722.5"/>
<text text-anchor="middle" x="636" y="-729.5" font-family="Helvetica,sans-Serif" font-size="10.00">IpV4EngineRx</text>
</a>
</g>
</g>
<!-- Node4&#45;&gt;Node7 -->
<g id="edge7" class="edge">
<title>Node4&#45;&gt;Node7</title>
<path fill="none" stroke="midnightblue" d="M532.81,-593.84C535.02,-595.38 537.11,-597.1 539,-599 576.46,-636.68 537.44,-675.41 575,-713 580.25,-718.26 586.95,-722.06 593.95,-724.81"/>
<polygon fill="midnightblue" stroke="midnightblue" points="534.12,-590.57 523.69,-588.71 530.68,-596.67 534.12,-590.57"/>
</g>
<!-- Node9 -->
<g id="node9" class="node">
<title>Node9</title>
<g id="a_node9"><a xlink:href="classIpV4EngineTx.html" target="_top" xlink:title=" ">
<polygon fill="white" stroke="black" points="594.5,-608.5 594.5,-627.5 677.5,-627.5 677.5,-608.5 594.5,-608.5"/>
<text text-anchor="middle" x="636" y="-615.5" font-family="Helvetica,sans-Serif" font-size="10.00">IpV4EngineTx</text>
</a>
</g>
</g>
<!-- Node4&#45;&gt;Node9 -->
<g id="edge11" class="edge">
<title>Node4&#45;&gt;Node9</title>
<path fill="none" stroke="midnightblue" d="M529.11,-592.04C550.76,-597.35 575.85,-603.5 596.17,-608.48"/>
<polygon fill="midnightblue" stroke="midnightblue" points="529.66,-588.57 519.11,-589.59 527.99,-595.37 529.66,-588.57"/>
</g>
<!-- Node12 -->
<g id="node12" class="node">
<title>Node12</title>
<g id="a_node12"><a xlink:href="classUdpEngine.html" target="_top" xlink:title=" ">
<polygon fill="white" stroke="black" points="1011,-475.5 1011,-494.5 1080,-494.5 1080,-475.5 1011,-475.5"/>
<text text-anchor="middle" x="1045.5" y="-482.5" font-family="Helvetica,sans-Serif" font-size="10.00">UdpEngine</text>
</a>
</g>
</g>
<!-- Node4&#45;&gt;Node12 -->
<g id="edge51" class="edge">
<title>Node4&#45;&gt;Node12</title>
<path fill="none" stroke="midnightblue" d="M533.61,-575C653.02,-563.7 933.64,-536.13 975,-523 995.71,-516.42 1017.33,-503.49 1030.85,-494.55"/>
<polygon fill="midnightblue" stroke="midnightblue" points="533.22,-571.52 523.59,-575.95 533.87,-578.49 533.22,-571.52"/>
</g>
<!-- Node5 -->
<g id="node5" class="node">
<title>Node5</title>
<g id="a_node5"><a xlink:href="classAxiStreamPipeline.html" target="_top" xlink:title=" ">
<polygon fill="white" stroke="black" points="276,-418.5 276,-437.5 383,-437.5 383,-418.5 276,-418.5"/>
<text text-anchor="middle" x="329.5" y="-425.5" font-family="Helvetica,sans-Serif" font-size="10.00">AxiStreamPipeline</text>
</a>
</g>
</g>
<!-- Node5&#45;&gt;Node4 -->
<g id="edge4" class="edge">
<title>Node5&#45;&gt;Node4</title>
<path fill="none" stroke="midnightblue" d="M346.8,-444.79C377.8,-476.74 444.36,-545.33 468.78,-570.5"/>
<polygon fill="midnightblue" stroke="midnightblue" points="349.2,-442.25 339.73,-437.51 344.18,-447.12 349.2,-442.25"/>
</g>
<!-- Node8 -->
<g id="node8" class="node">
<title>Node8</title>
<g id="a_node8"><a xlink:href="classAxiStreamDeMux.html" target="_top" xlink:title=" ">
<polygon fill="white" stroke="black" points="428,-608.5 428,-627.5 530,-627.5 530,-608.5 428,-608.5"/>
<text text-anchor="middle" x="479" y="-615.5" font-family="Helvetica,sans-Serif" font-size="10.00">AxiStreamDeMux</text>
</a>
</g>
</g>
<!-- Node5&#45;&gt;Node8 -->
<g id="edge9" class="edge">
<title>Node5&#45;&gt;Node8</title>
<path fill="none" stroke="midnightblue" d="M335.39,-447.83C345.15,-483.34 370.42,-557.88 419,-599 423.6,-602.89 429.01,-605.99 434.66,-608.46"/>
<polygon fill="midnightblue" stroke="midnightblue" points="338.67,-446.56 332.75,-437.77 331.9,-448.33 338.67,-446.56"/>
</g>
<!-- Node15 -->
<g id="node15" class="node">
<title>Node15</title>
<g id="a_node15"><a xlink:href="classAxiStreamDeMux.html" target="_top" xlink:title=" ">
<polygon fill="white" stroke="black" points="421,-418.5 421,-437.5 537,-437.5 537,-418.5 421,-418.5"/>
<text text-anchor="middle" x="479" y="-425.5" font-family="Helvetica,sans-Serif" font-size="10.00">AxiStreamDeMux(2)</text>
</a>
</g>
</g>
<!-- Node5&#45;&gt;Node15 -->
<g id="edge19" class="edge">
<title>Node5&#45;&gt;Node15</title>
<path fill="none" stroke="midnightblue" d="M393.46,-428C402.53,-428 411.83,-428 420.79,-428"/>
<polygon fill="midnightblue" stroke="midnightblue" points="393.33,-424.5 383.33,-428 393.33,-431.5 393.33,-424.5"/>
</g>
<!-- Node17 -->
<g id="node17" class="node">
<title>Node17</title>
<g id="a_node17"><a xlink:href="classAxiStreamFifoV2.html" target="_top" xlink:title=" ">
<polygon fill="white" stroke="black" points="733,-304.5 733,-323.5 845,-323.5 845,-304.5 733,-304.5"/>
<text text-anchor="middle" x="789" y="-311.5" font-family="Helvetica,sans-Serif" font-size="10.00">AxiStreamFifoV2(2)</text>
</a>
</g>
</g>
<!-- Node5&#45;&gt;Node17 -->
<g id="edge47" class="edge">
<title>Node5&#45;&gt;Node17</title>
<path fill="none" stroke="midnightblue" d="M341.17,-409.81C355.58,-387.18 383.6,-349.5 419,-333 521.48,-285.24 657.75,-294.24 732.72,-304.48"/>
<polygon fill="midnightblue" stroke="midnightblue" points="338.09,-408.13 335.84,-418.48 344.06,-411.79 338.09,-408.13"/>
</g>
<!-- Node18 -->
<g id="node18" class="node">
<title>Node18</title>
<g id="a_node18"><a xlink:href="classAxiStreamGearbox.html" target="_top" xlink:title=" ">
<polygon fill="white" stroke="black" points="575,-342.5 575,-361.5 697,-361.5 697,-342.5 575,-342.5"/>
<text text-anchor="middle" x="636" y="-349.5" font-family="Helvetica,sans-Serif" font-size="10.00">AxiStreamGearbox(2)</text>
</a>
</g>
</g>
<!-- Node5&#45;&gt;Node18 -->
<g id="edge25" class="edge">
<title>Node5&#45;&gt;Node18</title>
<path fill="none" stroke="midnightblue" d="M378.8,-415.94C439.19,-400.87 541.35,-375.37 596.66,-361.57"/>
<polygon fill="midnightblue" stroke="midnightblue" points="377.61,-412.63 368.76,-418.45 379.31,-419.43 377.61,-412.63"/>
</g>
<!-- Node19 -->
<g id="node19" class="node">
<title>Node19</title>
<g id="a_node19"><a xlink:href="classAxiStreamResize.html" target="_top" xlink:title=" ">
<polygon fill="white" stroke="black" points="429,-342.5 429,-361.5 529,-361.5 529,-342.5 429,-342.5"/>
<text text-anchor="middle" x="479" y="-349.5" font-family="Helvetica,sans-Serif" font-size="10.00">AxiStreamResize</text>
</a>
</g>
</g>
<!-- Node5&#45;&gt;Node19 -->
<g id="edge24" class="edge">
<title>Node5&#45;&gt;Node19</title>
<path fill="none" stroke="midnightblue" d="M353.63,-413.16C371.19,-402.2 396.14,-387.29 419,-376 429.61,-370.76 441.66,-365.71 452.09,-361.6"/>
<polygon fill="midnightblue" stroke="midnightblue" points="351.76,-410.2 345.17,-418.49 355.49,-416.12 351.76,-410.2"/>
</g>
<!-- Node34 -->
<g id="node34" class="node">
<title>Node34</title>
<g id="a_node34"><a xlink:href="classUdpEngineTx.html" target="_top" xlink:title=" ">
<polygon fill="white" stroke="black" points="741.5,-475.5 741.5,-494.5 836.5,-494.5 836.5,-475.5 741.5,-475.5"/>
<text text-anchor="middle" x="789" y="-482.5" font-family="Helvetica,sans-Serif" font-size="10.00">UdpEngineTx(2)</text>
</a>
</g>
</g>
<!-- Node5&#45;&gt;Node34 -->
<g id="edge49" class="edge">
<title>Node5&#45;&gt;Node34</title>
<path fill="none" stroke="midnightblue" d="M348.83,-444.35C365.71,-458.22 392.13,-477.09 419,-485 530.85,-517.9 670.17,-504.02 741.37,-493.25"/>
<polygon fill="midnightblue" stroke="midnightblue" points="350.81,-441.44 340.92,-437.63 346.28,-446.77 350.81,-441.44"/>
</g>
<!-- Node6 -->
<g id="node6" class="node">
<title>Node6</title>
<g id="a_node6"><a xlink:href="classArpEngine.html" target="_top" xlink:title=" ">
<polygon fill="white" stroke="black" points="603,-760.5 603,-779.5 669,-779.5 669,-760.5 603,-760.5"/>
<text text-anchor="middle" x="636" y="-767.5" font-family="Helvetica,sans-Serif" font-size="10.00">ArpEngine</text>
</a>
</g>
</g>
<!-- Node6&#45;&gt;Node2 -->
<g id="edge5" class="edge">
<title>Node6&#45;&gt;Node2</title>
<path fill="none" stroke="midnightblue" d="M678.84,-759.07C685.1,-756.78 691.34,-754.1 697,-751 730.76,-732.5 763.75,-700.48 779.09,-684.56"/>
<polygon fill="midnightblue" stroke="midnightblue" points="677.45,-755.85 669.09,-762.35 679.68,-762.48 677.45,-755.85"/>
</g>
<!-- Node7&#45;&gt;Node2 -->
<g id="edge6" class="edge">
<title>Node7&#45;&gt;Node2</title>
<path fill="none" stroke="midnightblue" d="M678.56,-719.37C684.77,-717.33 691.07,-715.17 697,-713 721.11,-704.17 748.21,-692.64 766.52,-684.61"/>
<polygon fill="midnightblue" stroke="midnightblue" points="677.39,-716.07 668.94,-722.46 679.53,-722.73 677.39,-716.07"/>
</g>
<!-- Node8&#45;&gt;Node7 -->
<g id="edge8" class="edge">
<title>Node8&#45;&gt;Node7</title>
<path fill="none" stroke="midnightblue" d="M493.3,-635.75C510.11,-657.01 540.99,-692.33 575,-713 581.26,-716.8 588.35,-719.91 595.41,-722.44"/>
<polygon fill="midnightblue" stroke="midnightblue" points="495.88,-633.36 486.99,-627.59 490.34,-637.64 495.88,-633.36"/>
</g>
<!-- Node8&#45;&gt;Node9 -->
<g id="edge12" class="edge">
<title>Node8&#45;&gt;Node9</title>
<path fill="none" stroke="midnightblue" d="M540.51,-618C558.6,-618 578,-618 594.48,-618"/>
<polygon fill="midnightblue" stroke="midnightblue" points="540.32,-614.5 530.32,-618 540.32,-621.5 540.32,-614.5"/>
</g>
<!-- Node9&#45;&gt;Node2 -->
<g id="edge10" class="edge">
<title>Node9&#45;&gt;Node2</title>
<path fill="none" stroke="midnightblue" d="M678.56,-630.63C684.77,-632.67 691.07,-634.83 697,-637 721.11,-645.83 748.21,-657.36 766.52,-665.39"/>
<polygon fill="midnightblue" stroke="midnightblue" points="679.53,-627.27 668.94,-627.54 677.39,-633.93 679.53,-627.27"/>
</g>
<!-- Node10 -->
<g id="node10" class="node">
<title>Node10</title>
<g id="a_node10"><a xlink:href="classIcmpEngine.html" target="_top" xlink:title=" ">
<polygon fill="white" stroke="black" points="599,-684.5 599,-703.5 673,-703.5 673,-684.5 599,-684.5"/>
<text text-anchor="middle" x="636" y="-691.5" font-family="Helvetica,sans-Serif" font-size="10.00">IcmpEngine</text>
</a>
</g>
</g>
<!-- Node10&#45;&gt;Node2 -->
<g id="edge13" class="edge">
<title>Node10&#45;&gt;Node2</title>
<path fill="none" stroke="midnightblue" d="M683.23,-688.18C705.85,-685.34 732.61,-681.97 753.42,-679.35"/>
<polygon fill="midnightblue" stroke="midnightblue" points="682.65,-684.73 673.17,-689.45 683.53,-691.67 682.65,-684.73"/>
</g>
<!-- Node11 -->
<g id="node11" class="node">
<title>Node11</title>
<g id="a_node11"><a xlink:href="classIgmpV2Engine.html" target="_top" xlink:title=" ">
<polygon fill="white" stroke="black" points="592.5,-646.5 592.5,-665.5 679.5,-665.5 679.5,-646.5 592.5,-646.5"/>
<text text-anchor="middle" x="636" y="-653.5" font-family="Helvetica,sans-Serif" font-size="10.00">IgmpV2Engine</text>
</a>
</g>
</g>
<!-- Node11&#45;&gt;Node2 -->
<g id="edge14" class="edge">
<title>Node11&#45;&gt;Node2</title>
<path fill="none" stroke="midnightblue" d="M689.92,-662.66C710.89,-665.3 734.41,-668.26 753.16,-670.62"/>
<polygon fill="midnightblue" stroke="midnightblue" points="690.23,-659.17 679.87,-661.39 689.35,-666.11 690.23,-659.17"/>
</g>
<!-- Node12&#45;&gt;Node1 -->
<g id="edge15" class="edge">
<title>Node12&#45;&gt;Node1</title>
<path fill="none" stroke="midnightblue" d="M1087.24,-497.54C1104.04,-502.7 1123.2,-508.6 1138.85,-513.41"/>
<polygon fill="midnightblue" stroke="midnightblue" points="1088.25,-494.18 1077.66,-494.59 1086.19,-500.88 1088.25,-494.18"/>
</g>
<!-- Node13 -->
<g id="node13" class="node">
<title>Node13</title>
<g id="a_node13"><a xlink:href="classUdpEngineRx.html" target="_top" xlink:title=" ">
<polygon fill="white" stroke="black" points="595,-418.5 595,-437.5 677,-437.5 677,-418.5 595,-418.5"/>
<text text-anchor="middle" x="636" y="-425.5" font-family="Helvetica,sans-Serif" font-size="10.00">UdpEngineRx</text>
</a>
</g>
</g>
<!-- Node13&#45;&gt;Node12 -->
<g id="edge16" class="edge">
<title>Node13&#45;&gt;Node12</title>
<path fill="none" stroke="midnightblue" d="M687.3,-435.04C771.67,-446.84 939.5,-470.31 1010.99,-480.31"/>
<polygon fill="midnightblue" stroke="midnightblue" points="687.58,-431.54 677.19,-433.62 686.61,-438.47 687.58,-431.54"/>
</g>
<!-- Node14 -->
<g id="node14" class="node">
<title>Node14</title>
<g id="a_node14"><a xlink:href="classAxiStreamPipeline.html" target="_top" xlink:title=" ">
<polygon fill="white" stroke="black" points="419,-456.5 419,-475.5 539,-475.5 539,-456.5 419,-456.5"/>
<text text-anchor="middle" x="479" y="-463.5" font-family="Helvetica,sans-Serif" font-size="10.00">AxiStreamPipeline(2)</text>
</a>
</g>
</g>
<!-- Node14&#45;&gt;Node13 -->
<g id="edge17" class="edge">
<title>Node14&#45;&gt;Node13</title>
<path fill="none" stroke="midnightblue" d="M529.11,-453.96C550.76,-448.65 575.85,-442.5 596.17,-437.52"/>
<polygon fill="midnightblue" stroke="midnightblue" points="527.99,-450.63 519.11,-456.41 529.66,-457.43 527.99,-450.63"/>
</g>
<!-- Node15&#45;&gt;Node13 -->
<g id="edge18" class="edge">
<title>Node15&#45;&gt;Node13</title>
<path fill="none" stroke="midnightblue" d="M547.28,-428C563.51,-428 580.35,-428 594.89,-428"/>
<polygon fill="midnightblue" stroke="midnightblue" points="547.28,-424.5 537.28,-428 547.28,-431.5 547.28,-424.5"/>
</g>
<!-- Node16 -->
<g id="node16" class="node">
<title>Node16</title>
<g id="a_node16"><a xlink:href="classUdpEngineDhcp.html" target="_top" xlink:title=" ">
<polygon fill="white" stroke="black" points="881,-342.5 881,-361.5 975,-361.5 975,-342.5 881,-342.5"/>
<text text-anchor="middle" x="928" y="-349.5" font-family="Helvetica,sans-Serif" font-size="10.00">UdpEngineDhcp</text>
</a>
</g>
</g>
<!-- Node16&#45;&gt;Node12 -->
<g id="edge20" class="edge">
<title>Node16&#45;&gt;Node12</title>
<path fill="none" stroke="midnightblue" d="M944.13,-369.42C968.71,-397.72 1016.51,-452.76 1035.96,-475.16"/>
<polygon fill="midnightblue" stroke="midnightblue" points="946.51,-366.82 937.31,-361.57 941.22,-371.41 946.51,-366.82"/>
</g>
<!-- Node17&#45;&gt;Node16 -->
<g id="edge21" class="edge">
<title>Node17&#45;&gt;Node16</title>
<path fill="none" stroke="midnightblue" d="M834.41,-326.32C853.23,-331.54 874.84,-337.53 892.44,-342.41"/>
<polygon fill="midnightblue" stroke="midnightblue" points="835.14,-322.89 824.57,-323.59 833.27,-329.63 835.14,-322.89"/>
</g>
<!-- Node18&#45;&gt;Node17 -->
<g id="edge22" class="edge">
<title>Node18&#45;&gt;Node17</title>
<path fill="none" stroke="midnightblue" d="M684.84,-339.96C705.94,-334.65 730.38,-328.5 750.17,-323.52"/>
<polygon fill="midnightblue" stroke="midnightblue" points="683.95,-336.58 675.1,-342.41 685.66,-343.36 683.95,-336.58"/>
</g>
<!-- Node19&#45;&gt;Node18 -->
<g id="edge23" class="edge">
<title>Node19&#45;&gt;Node18</title>
<path fill="none" stroke="midnightblue" d="M539.14,-352C550.84,-352 563.12,-352 574.85,-352"/>
<polygon fill="midnightblue" stroke="midnightblue" points="539.04,-348.5 529.04,-352 539.04,-355.5 539.04,-348.5"/>
</g>
<!-- Node20 -->
<g id="node20" class="node">
<title>Node20</title>
<g id="a_node20"><a xlink:href="classFifoCascade.html" target="_top" xlink:title=" ">
<polygon fill="white" stroke="black" points="591.5,-209.5 591.5,-228.5 680.5,-228.5 680.5,-209.5 591.5,-209.5"/>
<text text-anchor="middle" x="636" y="-216.5" font-family="Helvetica,sans-Serif" font-size="10.00">FifoCascade(2)</text>
</a>
</g>
</g>
<!-- Node20&#45;&gt;Node17 -->
<g id="edge26" class="edge">
<title>Node20&#45;&gt;Node17</title>
<path fill="none" stroke="midnightblue" d="M660.87,-234.02C692.2,-253.73 746.28,-287.75 772.65,-304.34"/>
<polygon fill="midnightblue" stroke="midnightblue" points="662.64,-230.99 652.31,-228.63 658.91,-236.92 662.64,-230.99"/>
</g>
<!-- Node21 -->
<g id="node21" class="node">
<title>Node21</title>
<g id="a_node21"><a xlink:href="classFifo.html" target="_top" xlink:title=" ">
<polygon fill="white" stroke="black" points="455,-190.5 455,-209.5 503,-209.5 503,-190.5 455,-190.5"/>
<text text-anchor="middle" x="479" y="-197.5" font-family="Helvetica,sans-Serif" font-size="10.00">Fifo(4)</text>
</a>
</g>
</g>
<!-- Node21&#45;&gt;Node20 -->
<g id="edge27" class="edge">
<title>Node21&#45;&gt;Node20</title>
<path fill="none" stroke="midnightblue" d="M513.41,-204.1C536.21,-206.89 566.64,-210.62 591.35,-213.65"/>
<polygon fill="midnightblue" stroke="midnightblue" points="513.56,-200.59 503.21,-202.84 512.7,-207.54 513.56,-200.59"/>
</g>
<!-- Node22 -->
<g id="node22" class="node">
<title>Node22</title>
<g id="a_node22"><a xlink:href="classFifoXpm.html" target="_top" xlink:title=" ">
<polygon fill="white" stroke="black" points="301,-228.5 301,-247.5 358,-247.5 358,-228.5 301,-228.5"/>
<text text-anchor="middle" x="329.5" y="-235.5" font-family="Helvetica,sans-Serif" font-size="10.00">FifoXpm</text>
</a>
</g>
</g>
<!-- Node22&#45;&gt;Node21 -->
<g id="edge28" class="edge">
<title>Node22&#45;&gt;Node21</title>
<path fill="none" stroke="midnightblue" d="M368.23,-228.28C395.53,-221.25 431.55,-211.97 454.75,-205.99"/>
<polygon fill="midnightblue" stroke="midnightblue" points="367.05,-224.97 358.24,-230.85 368.8,-231.75 367.05,-224.97"/>
</g>
<!-- Node23 -->
<g id="node23" class="node">
<title>Node23</title>
<g id="a_node23"><a xlink:href="classFifoOutputPipeline.html" target="_top" xlink:title=" ">
<polygon fill="white" stroke="black" points="124.5,-228.5 124.5,-247.5 231.5,-247.5 231.5,-228.5 124.5,-228.5"/>
<text text-anchor="middle" x="178" y="-235.5" font-family="Helvetica,sans-Serif" font-size="10.00">FifoOutputPipeline</text>
</a>
</g>
</g>
<!-- Node23&#45;&gt;Node22 -->
<g id="edge29" class="edge">
<title>Node23&#45;&gt;Node22</title>
<path fill="none" stroke="midnightblue" d="M241.73,-238C262.4,-238 284.33,-238 300.97,-238"/>
<polygon fill="midnightblue" stroke="midnightblue" points="241.71,-234.5 231.71,-238 241.71,-241.5 241.71,-234.5"/>
</g>
<!-- Node24 -->
<g id="node24" class="node">
<title>Node24</title>
<g id="a_node24"><a xlink:href="classFifoAlteraMf.html" target="_top" xlink:title=" ">
<polygon fill="white" stroke="black" points="291,-190.5 291,-209.5 368,-209.5 368,-190.5 291,-190.5"/>
<text text-anchor="middle" x="329.5" y="-197.5" font-family="Helvetica,sans-Serif" font-size="10.00">FifoAlteraMf</text>
</a>
</g>
</g>
<!-- Node23&#45;&gt;Node24 -->
<g id="edge31" class="edge">
<title>Node23&#45;&gt;Node24</title>
<path fill="none" stroke="midnightblue" d="M226.65,-225.89C247.47,-220.6 271.54,-214.48 291.05,-209.52"/>
<polygon fill="midnightblue" stroke="midnightblue" points="225.55,-222.56 216.73,-228.41 227.28,-229.34 225.55,-222.56"/>
</g>
<!-- Node25 -->
<g id="node25" class="node">
<title>Node25</title>
<g id="a_node25"><a xlink:href="classFifoAsync.html" target="_top" xlink:title=" ">
<polygon fill="white" stroke="black" points="297.5,-114.5 297.5,-133.5 361.5,-133.5 361.5,-114.5 297.5,-114.5"/>
<text text-anchor="middle" x="329.5" y="-121.5" font-family="Helvetica,sans-Serif" font-size="10.00">FifoAsync</text>
</a>
</g>
</g>
<!-- Node23&#45;&gt;Node25 -->
<g id="edge40" class="edge">
<title>Node23&#45;&gt;Node25</title>
<path fill="none" stroke="midnightblue" d="M233.77,-223.62C235.97,-222.22 238.06,-220.69 240,-219 268.22,-194.49 248.34,-168.14 276,-143 282.02,-137.52 289.75,-133.59 297.41,-130.79"/>
<polygon fill="midnightblue" stroke="midnightblue" points="232.04,-220.58 224.87,-228.38 235.34,-226.76 232.04,-220.58"/>
</g>
<!-- Node33 -->
<g id="node33" class="node">
<title>Node33</title>
<g id="a_node33"><a xlink:href="classFifoSync.html" target="_top" xlink:title=" ">
<polygon fill="white" stroke="black" points="300.5,-152.5 300.5,-171.5 358.5,-171.5 358.5,-152.5 300.5,-152.5"/>
<text text-anchor="middle" x="329.5" y="-159.5" font-family="Helvetica,sans-Serif" font-size="10.00">FifoSync</text>
</a>
</g>
</g>
<!-- Node23&#45;&gt;Node33 -->
<g id="edge45" class="edge">
<title>Node23&#45;&gt;Node33</title>
<path fill="none" stroke="midnightblue" d="M229.35,-224.64C233.06,-222.96 236.65,-221.08 240,-219 259.75,-206.7 256.54,-193.75 276,-181 283.38,-176.17 292.15,-172.37 300.38,-169.48"/>
<polygon fill="midnightblue" stroke="midnightblue" points="227.94,-221.43 219.98,-228.42 230.56,-227.92 227.94,-221.43"/>
</g>
<!-- Node24&#45;&gt;Node21 -->
<g id="edge30" class="edge">
<title>Node24&#45;&gt;Node21</title>
<path fill="none" stroke="midnightblue" d="M378.37,-200C403.97,-200 434.33,-200 454.75,-200"/>
<polygon fill="midnightblue" stroke="midnightblue" points="378.1,-196.5 368.1,-200 378.1,-203.5 378.1,-196.5"/>
</g>
<!-- Node25&#45;&gt;Node21 -->
<g id="edge32" class="edge">
<title>Node25&#45;&gt;Node21</title>
<path fill="none" stroke="midnightblue" d="M369.47,-137.15C374.09,-138.98 378.69,-140.95 383,-143 413.05,-157.29 445.87,-178.3 463.99,-190.42"/>
<polygon fill="midnightblue" stroke="midnightblue" points="370.66,-133.85 360.07,-133.57 368.17,-140.4 370.66,-133.85"/>
</g>
<!-- Node26 -->
<g id="node26" class="node">
<title>Node26</title>
<g id="a_node26"><a xlink:href="classRstSync.html" target="_top" xlink:title=" ">
<polygon fill="white" stroke="black" points="143.5,-38.5 143.5,-57.5 212.5,-57.5 212.5,-38.5 143.5,-38.5"/>
<text text-anchor="middle" x="178" y="-45.5" font-family="Helvetica,sans-Serif" font-size="10.00">RstSync(2)</text>
</a>
</g>
</g>
<!-- Node26&#45;&gt;Node25 -->
<g id="edge33" class="edge">
<title>Node26&#45;&gt;Node25</title>
<path fill="none" stroke="midnightblue" d="M222.07,-59.81C228.19,-61.95 234.33,-64.35 240,-67 268.81,-80.46 299.34,-101.96 315.94,-114.35"/>
<polygon fill="midnightblue" stroke="midnightblue" points="223.13,-56.47 212.54,-56.67 220.94,-63.12 223.13,-56.47"/>
</g>
<!-- Node27 -->
<g id="node27" class="node">
<title>Node27</title>
<g id="a_node27"><a xlink:href="classSynchronizer.html" target="_top" xlink:title=" ">
<polygon fill="white" stroke="black" points="0,-152.5 0,-171.5 80,-171.5 80,-152.5 0,-152.5"/>
<text text-anchor="middle" x="40" y="-159.5" font-family="Helvetica,sans-Serif" font-size="10.00">Synchronizer</text>
</a>
</g>
</g>
<!-- Node27&#45;&gt;Node17 -->
<g id="edge46" class="edge">
<title>Node27&#45;&gt;Node17</title>
<path fill="none" stroke="midnightblue" d="M49.9,-180.88C61.59,-203.33 84.42,-239.92 116,-257 199.4,-302.11 233.68,-276 328.5,-276 328.5,-276 328.5,-276 480,-276 576.74,-276 601.38,-278.31 697,-293 715.43,-295.83 735.66,-300.36 752.36,-304.48"/>
<polygon fill="midnightblue" stroke="midnightblue" points="52.9,-179.07 45.31,-171.67 46.64,-182.19 52.9,-179.07"/>
</g>
<!-- Node27&#45;&gt;Node26 -->
<g id="edge34" class="edge">
<title>Node27&#45;&gt;Node26</title>
<path fill="none" stroke="midnightblue" d="M50.94,-143.55C63.4,-122.12 86.72,-87.13 116,-67 124.14,-61.41 133.99,-57.41 143.38,-54.57"/>
<polygon fill="midnightblue" stroke="midnightblue" points="47.84,-141.91 45.99,-152.34 53.95,-145.34 47.84,-141.91"/>
</g>
<!-- Node28 -->
<g id="node28" class="node">
<title>Node28</title>
<g id="a_node28"><a xlink:href="classSynchronizerVector.html" target="_top" xlink:title=" ">
<polygon fill="white" stroke="black" points="116,-0.5 116,-19.5 240,-19.5 240,-0.5 116,-0.5"/>
<text text-anchor="middle" x="178" y="-7.5" font-family="Helvetica,sans-Serif" font-size="10.00">SynchronizerVector(2)</text>
</a>
</g>
</g>
<!-- Node28&#45;&gt;Node25 -->
<g id="edge35" class="edge">
<title>Node28&#45;&gt;Node25</title>
<path fill="none" stroke="midnightblue" d="M229.37,-23.33C233.08,-25.02 236.66,-26.9 240,-29 277.21,-52.4 309.08,-95.27 322.16,-114.37"/>
<polygon fill="midnightblue" stroke="midnightblue" points="230.59,-20.05 220.01,-19.54 227.96,-26.54 230.59,-20.05"/>
</g>
<!-- Node29 -->
<g id="node29" class="node">
<title>Node29</title>
<g id="a_node29"><a xlink:href="classSynchronizer.html" target="_top" xlink:title=" ">
<polygon fill="white" stroke="black" points="131.5,-76.5 131.5,-95.5 224.5,-95.5 224.5,-76.5 131.5,-76.5"/>
<text text-anchor="middle" x="178" y="-83.5" font-family="Helvetica,sans-Serif" font-size="10.00">Synchronizer(2)</text>
</a>
</g>
</g>
<!-- Node29&#45;&gt;Node25 -->
<g id="edge36" class="edge">
<title>Node29&#45;&gt;Node25</title>
<path fill="none" stroke="midnightblue" d="M226.69,-98.12C249.81,-104 276.91,-110.89 297.34,-116.08"/>
<polygon fill="midnightblue" stroke="midnightblue" points="227.28,-94.66 216.73,-95.59 225.55,-101.44 227.28,-94.66"/>
</g>
<!-- Node30 -->
<g id="node30" class="node">
<title>Node30</title>
<g id="a_node30"><a xlink:href="classFifoWrFsm.html" target="_top" xlink:title=" ">
<polygon fill="white" stroke="black" points="143.5,-190.5 143.5,-209.5 212.5,-209.5 212.5,-190.5 143.5,-190.5"/>
<text text-anchor="middle" x="178" y="-197.5" font-family="Helvetica,sans-Serif" font-size="10.00">FifoWrFsm</text>
</a>
</g>
</g>
<!-- Node30&#45;&gt;Node25 -->
<g id="edge37" class="edge">
<title>Node30&#45;&gt;Node25</title>
<path fill="none" stroke="midnightblue" d="M222.31,-189.56C228.48,-187.21 234.56,-184.39 240,-181 259.75,-168.7 256.54,-155.75 276,-143 282.49,-138.75 290.05,-135.3 297.37,-132.57"/>
<polygon fill="midnightblue" stroke="midnightblue" points="220.96,-186.32 212.63,-192.86 223.22,-192.94 220.96,-186.32"/>
</g>
<!-- Node30&#45;&gt;Node33 -->
<g id="edge42" class="edge">
<title>Node30&#45;&gt;Node33</title>
<path fill="none" stroke="midnightblue" d="M222.52,-188.94C247.51,-182.59 278.18,-174.79 300.09,-169.22"/>
<polygon fill="midnightblue" stroke="midnightblue" points="221.38,-185.62 212.55,-191.47 223.1,-192.4 221.38,-185.62"/>
</g>
<!-- Node31 -->
<g id="node31" class="node">
<title>Node31</title>
<g id="a_node31"><a xlink:href="classFifoRdFsm.html" target="_top" xlink:title=" ">
<polygon fill="white" stroke="black" points="144,-152.5 144,-171.5 212,-171.5 212,-152.5 144,-152.5"/>
<text text-anchor="middle" x="178" y="-159.5" font-family="Helvetica,sans-Serif" font-size="10.00">FifoRdFsm</text>
</a>
</g>
</g>
<!-- Node31&#45;&gt;Node25 -->
<g id="edge38" class="edge">
<title>Node31&#45;&gt;Node25</title>
<path fill="none" stroke="midnightblue" d="M222.13,-151.04C246.21,-144.92 275.66,-137.43 297.46,-131.89"/>
<polygon fill="midnightblue" stroke="midnightblue" points="221.01,-147.71 212.18,-153.57 222.73,-154.5 221.01,-147.71"/>
</g>
<!-- Node31&#45;&gt;Node33 -->
<g id="edge43" class="edge">
<title>Node31&#45;&gt;Node33</title>
<path fill="none" stroke="midnightblue" d="M222.21,-162C247.39,-162 278.42,-162 300.44,-162"/>
<polygon fill="midnightblue" stroke="midnightblue" points="222.18,-158.5 212.18,-162 222.18,-165.5 222.18,-158.5"/>
</g>
<!-- Node32 -->
<g id="node32" class="node">
<title>Node32</title>
<g id="a_node32"><a xlink:href="classSimpleDualPortRam.html" target="_top" xlink:title=" ">
<polygon fill="white" stroke="black" points="120.5,-114.5 120.5,-133.5 235.5,-133.5 235.5,-114.5 120.5,-114.5"/>
<text text-anchor="middle" x="178" y="-121.5" font-family="Helvetica,sans-Serif" font-size="10.00">SimpleDualPortRam</text>
</a>
</g>
</g>
<!-- Node32&#45;&gt;Node25 -->
<g id="edge39" class="edge">
<title>Node32&#45;&gt;Node25</title>
<path fill="none" stroke="midnightblue" d="M245.74,-124C263.77,-124 282.44,-124 297.46,-124"/>
<polygon fill="midnightblue" stroke="midnightblue" points="245.52,-120.5 235.52,-124 245.52,-127.5 245.52,-120.5"/>
</g>
<!-- Node32&#45;&gt;Node33 -->
<g id="edge44" class="edge">
<title>Node32&#45;&gt;Node33</title>
<path fill="none" stroke="midnightblue" d="M226.47,-136.07C250.74,-142.23 279.45,-149.53 300.23,-154.81"/>
<polygon fill="midnightblue" stroke="midnightblue" points="227.28,-132.66 216.73,-133.59 225.55,-139.44 227.28,-132.66"/>
</g>
<!-- Node33&#45;&gt;Node21 -->
<g id="edge41" class="edge">
<title>Node33&#45;&gt;Node21</title>
<path fill="none" stroke="midnightblue" d="M368.59,-171.81C395.89,-178.85 431.77,-188.09 454.86,-194.04"/>
<polygon fill="midnightblue" stroke="midnightblue" points="369.15,-168.34 358.59,-169.24 367.4,-175.12 369.15,-168.34"/>
</g>
<!-- Node34&#45;&gt;Node12 -->
<g id="edge48" class="edge">
<title>Node34&#45;&gt;Node12</title>
<path fill="none" stroke="midnightblue" d="M846.76,-485C897.09,-485 968.91,-485 1010.72,-485"/>
<polygon fill="midnightblue" stroke="midnightblue" points="846.68,-481.5 836.68,-485 846.68,-488.5 846.68,-481.5"/>
</g>
<!-- Node35 -->
<g id="node35" class="node">
<title>Node35</title>
<g id="a_node35"><a xlink:href="classUdpEngineArp.html" target="_top" xlink:title=" ">
<polygon fill="white" stroke="black" points="885,-494.5 885,-513.5 971,-513.5 971,-494.5 885,-494.5"/>
<text text-anchor="middle" x="928" y="-501.5" font-family="Helvetica,sans-Serif" font-size="10.00">UdpEngineArp</text>
</a>
</g>
</g>
<!-- Node35&#45;&gt;Node12 -->
<g id="edge50" class="edge">
<title>Node35&#45;&gt;Node12</title>
<path fill="none" stroke="midnightblue" d="M980.97,-495.45C991.04,-493.8 1001.34,-492.1 1010.64,-490.57"/>
<polygon fill="midnightblue" stroke="midnightblue" points="980.32,-492.01 971.02,-497.09 981.46,-498.92 980.32,-492.01"/>
</g>
</g>
</svg>
        <g id="navigator" transform="translate(0 0)" fill="#404254">
                <rect fill="#f2f5e9" fill-opacity="0.5" stroke="#606060" stroke-width=".5" x="0" y="0" width="60" height="60"/>
                <use id="zoomplus" xlink:href="#zoomPlus" x="17" y="9" onmousedown="handleZoom(evt,'in')"/>
                <use id="zoomminus" xlink:href="#zoomMin" x="42" y="9" onmousedown="handleZoom(evt,'out')"/>
                <use id="reset" xlink:href="#resetDef" x="30" y="36" onmousedown="handleReset()"/>
                <g id="arrowUp" xlink:href="#dirArrow" transform="translate(30 24)" onmousedown="handlePan(0,-1)">
                  <use xlink:href="#rim" fill="#404040">
                        <set attributeName="fill" to="#808080" begin="arrowUp.mouseover" end="arrowUp.mouseout"/>
                  </use>
                  <path fill="none" stroke="white" stroke-width="1.5" d="M0,-3.0v7 M-2.5,-0.5L0,-3.0L2.5,-0.5"/>
                </g>
                <g id="arrowRight" xlink:href="#dirArrow" transform="rotate(90) translate(36 -43)" onmousedown="handlePan(1,0)">
                  <use xlink:href="#rim" fill="#404040">
                        <set attributeName="fill" to="#808080" begin="arrowRight.mouseover" end="arrowRight.mouseout"/>
                  </use>
                  <path fill="none" stroke="white" stroke-width="1.5" d="M0,-3.0v7 M-2.5,-0.5L0,-3.0L2.5,-0.5"/>
                </g>
                <g id="arrowDown" xlink:href="#dirArrow" transform="rotate(180) translate(-30 -48)" onmousedown="handlePan(0,1)">
                  <use xlink:href="#rim" fill="#404040">
                        <set attributeName="fill" to="#808080" begin="arrowDown.mouseover" end="arrowDown.mouseout"/>
                  </use>
                  <path fill="none" stroke="white" stroke-width="1.5" d="M0,-3.0v7 M-2.5,-0.5L0,-3.0L2.5,-0.5"/>
                </g>
                <g id="arrowLeft" xlink:href="#dirArrow" transform="rotate(270) translate(-36 17)" onmousedown="handlePan(-1,0)">
                  <use xlink:href="#rim" fill="#404040">
                        <set attributeName="fill" to="#808080" begin="arrowLeft.mouseover" end="arrowLeft.mouseout"/>
                  </use>
                  <path fill="none" stroke="white" stroke-width="1.5" d="M0,-3.0v7 M-2.5,-0.5L0,-3.0L2.5,-0.5"/>
                </g>
        </g>
        <svg viewBox="0 0 15 15" width="100%" height="30px" preserveAspectRatio="xMaxYMin meet">
         <g id="arrow_out" transform="scale(0.3 0.3)">
          <a xlink:href="classUdpEngineWrapper__coll__graph_org.svg" target="_base">
           <rect id="button" ry="5" rx="5" y="6" x="6" height="38" width="38"
                fill="#f2f5e9" fill-opacity="0.5" stroke="#606060" stroke-width="1.0"/>
           <path id="arrow"
             d="M 11.500037,31.436501 C 11.940474,20.09759 22.043105,11.32322 32.158766,21.979434 L 37.068811,17.246167 C 37.068811,17.246167 37.088388,32 37.088388,32 L 22.160133,31.978069 C 22.160133,31.978069 26.997745,27.140456 26.997745,27.140456 C 18.528582,18.264221 13.291696,25.230495 11.500037,31.436501 z"
             style="fill:#404040;"/>
          </a>
         </g>
        </svg>
</svg>
