<?xml version="1.0" encoding="UTF-8" standalone="no"?>
<!DOCTYPE svg PUBLIC "-//W3C//DTD SVG 1.1//EN"
 "http://www.w3.org/Graphics/SVG/1.1/DTD/svg11.dtd">
<!-- Generated by graphviz version 2.43.0 (0)
 -->
<!-- Title: Pgp3RxGearboxAligner Pages: 1 -->
<svg width="940pt" height="545pt"
 viewBox="0.00 0.00 940.00 545.00" xmlns="http://www.w3.org/2000/svg" xmlns:xlink="http://www.w3.org/1999/xlink">
<g id="graph0" class="graph" transform="scale(1 1) rotate(0) translate(4 541)">
<title>Pgp3RxGearboxAligner</title>
<!-- Node1 -->
<g id="Node000001" class="node">
<title>Node1</title>
<g id="a_Node000001"><a xlink:title=" ">
<polygon fill="#999999" stroke="#666666" points="129,-463 0,-463 0,-444 129,-444 129,-463"/>
<text text-anchor="middle" x="64.5" y="-451" font-family="Helvetica,sans-Serif" font-size="10.00">Pgp3RxGearboxAligner</text>
</a>
</g>
</g>
<!-- Node2 -->
<g id="Node000002" class="node">
<title>Node2</title>
<g id="a_Node000002"><a xlink:href="classPgp2bGtp7FixedLat.html" target="_top" xlink:title=" ">
<polygon fill="white" stroke="#bfbfbf" points="275,-537 165,-537 165,-518 275,-518 275,-537"/>
<text text-anchor="middle" x="220" y="-525" font-family="Helvetica,sans-Serif" font-size="10.00">Pgp2bGtp7FixedLat</text>
</a>
</g>
</g>
<!-- Node1&#45;&gt;Node2 -->
<g id="edge1_Node000001_Node000002" class="edge">
<title>Node1&#45;&gt;Node2</title>
<g id="a_edge1_Node000001_Node000002"><a xlink:title=" ">
<path fill="none" stroke="#63b8ff" d="M89.17,-468.53C108.92,-480.64 138.09,-497.57 165,-509.5 171.96,-512.58 179.61,-515.44 186.92,-517.93"/>
<polygon fill="#63b8ff" stroke="#63b8ff" points="90.88,-465.47 80.54,-463.17 87.19,-471.42 90.88,-465.47"/>
</a>
</g>
</g>
<!-- Node4 -->
<g id="Node000004" class="node">
<title>Node4</title>
<g id="a_Node000004"><a xlink:href="classPgp2bGtx7Fixedlat.html" target="_top" xlink:title=" ">
<polygon fill="white" stroke="#bfbfbf" points="274,-500 166,-500 166,-481 274,-481 274,-500"/>
<text text-anchor="middle" x="220" y="-488" font-family="Helvetica,sans-Serif" font-size="10.00">Pgp2bGtx7Fixedlat</text>
</a>
</g>
</g>
<!-- Node1&#45;&gt;Node4 -->
<g id="edge3_Node000001_Node000004" class="edge">
<title>Node1&#45;&gt;Node4</title>
<g id="a_edge3_Node000001_Node000004"><a xlink:title=" ">
<path fill="none" stroke="#63b8ff" d="M114.97,-465.43C135.8,-470.44 159.7,-476.21 179.34,-480.94"/>
<polygon fill="#63b8ff" stroke="#63b8ff" points="115.57,-461.97 105.03,-463.03 113.93,-468.77 115.57,-461.97"/>
</a>
</g>
</g>
<!-- Node8 -->
<g id="Node000008" class="node">
<title>Node8</title>
<g id="a_Node000008"><a xlink:href="classPgp2fcGtp7.html" target="_top" xlink:title=" ">
<polygon fill="white" stroke="#bfbfbf" points="256.5,-463 183.5,-463 183.5,-444 256.5,-444 256.5,-463"/>
<text text-anchor="middle" x="220" y="-451" font-family="Helvetica,sans-Serif" font-size="10.00">Pgp2fcGtp7</text>
</a>
</g>
</g>
<!-- Node1&#45;&gt;Node8 -->
<g id="edge7_Node000001_Node000008" class="edge">
<title>Node1&#45;&gt;Node8</title>
<g id="a_edge7_Node000001_Node000008"><a xlink:title=" ">
<path fill="none" stroke="#63b8ff" d="M139.28,-453.5C154.61,-453.5 170.09,-453.5 183.28,-453.5"/>
<polygon fill="#63b8ff" stroke="#63b8ff" points="139.26,-450 129.26,-453.5 139.26,-457 139.26,-450"/>
</a>
</g>
</g>
<!-- Node10 -->
<g id="Node000010" class="node">
<title>Node10</title>
<g id="a_Node000010"><a xlink:href="classPgp3Rx.html" target="_top" xlink:title=" ">
<polygon fill="white" stroke="#bfbfbf" points="246.5,-426 193.5,-426 193.5,-407 246.5,-407 246.5,-426"/>
<text text-anchor="middle" x="220" y="-414" font-family="Helvetica,sans-Serif" font-size="10.00">Pgp3Rx</text>
</a>
</g>
</g>
<!-- Node1&#45;&gt;Node10 -->
<g id="edge9_Node000001_Node000010" class="edge">
<title>Node1&#45;&gt;Node10</title>
<g id="a_edge9_Node000001_Node000010"><a xlink:title=" ">
<path fill="none" stroke="#63b8ff" d="M115.09,-441.55C141.08,-435.28 171.83,-427.87 193.1,-422.74"/>
<polygon fill="#63b8ff" stroke="#63b8ff" points="113.93,-438.23 105.03,-443.97 115.57,-445.03 113.93,-438.23"/>
</a>
</g>
</g>
<!-- Node22 -->
<g id="Node000022" class="node">
<title>Node22</title>
<g id="a_Node000022"><a xlink:href="classPgp4Rx.html" target="_top" xlink:title=" ">
<polygon fill="white" stroke="#bfbfbf" points="246.5,-140 193.5,-140 193.5,-121 246.5,-121 246.5,-140"/>
<text text-anchor="middle" x="220" y="-128" font-family="Helvetica,sans-Serif" font-size="10.00">Pgp4Rx</text>
</a>
</g>
</g>
<!-- Node1&#45;&gt;Node22 -->
<g id="edge21_Node000001_Node000022" class="edge">
<title>Node1&#45;&gt;Node22</title>
<g id="a_edge21_Node000001_Node000022"><a xlink:title=" ">
<path fill="none" stroke="#63b8ff" d="M74.46,-434.64C103.31,-373.94 193.1,-185 214.42,-140.13"/>
<polygon fill="#63b8ff" stroke="#63b8ff" points="71.23,-433.3 70.09,-443.83 77.55,-436.3 71.23,-433.3"/>
</a>
</g>
</g>
<!-- Node3 -->
<g id="Node000003" class="node">
<title>Node3</title>
<g id="a_Node000003"><a xlink:href="classPgp2bGtp7FixedLatWrapper.html" target="_top" xlink:title=" ">
<polygon fill="white" stroke="#bfbfbf" points="463,-537 311,-537 311,-518 463,-518 463,-537"/>
<text text-anchor="middle" x="387" y="-525" font-family="Helvetica,sans-Serif" font-size="10.00">Pgp2bGtp7FixedLatWrapper</text>
</a>
</g>
</g>
<!-- Node2&#45;&gt;Node3 -->
<g id="edge2_Node000002_Node000003" class="edge">
<title>Node2&#45;&gt;Node3</title>
<g id="a_edge2_Node000002_Node000003"><a xlink:title=" ">
<path fill="none" stroke="#63b8ff" d="M285.15,-527.5C293.59,-527.5 302.29,-527.5 310.89,-527.5"/>
<polygon fill="#63b8ff" stroke="#63b8ff" points="285.03,-524 275.03,-527.5 285.03,-531 285.03,-524"/>
</a>
</g>
</g>
<!-- Node5 -->
<g id="Node000005" class="node">
<title>Node5</title>
<g id="a_Node000005"><a xlink:href="classPgp2bGtx7FixedLatWrapper.html" target="_top" xlink:title=" ">
<polygon fill="white" stroke="#bfbfbf" points="463,-500 311,-500 311,-481 463,-481 463,-500"/>
<text text-anchor="middle" x="387" y="-488" font-family="Helvetica,sans-Serif" font-size="10.00">Pgp2bGtx7FixedLatWrapper</text>
</a>
</g>
</g>
<!-- Node4&#45;&gt;Node5 -->
<g id="edge4_Node000004_Node000005" class="edge">
<title>Node4&#45;&gt;Node5</title>
<g id="a_edge4_Node000004_Node000005"><a xlink:title=" ">
<path fill="none" stroke="#63b8ff" d="M284.16,-490.5C292.86,-490.5 301.86,-490.5 310.75,-490.5"/>
<polygon fill="#63b8ff" stroke="#63b8ff" points="284.12,-487 274.12,-490.5 284.12,-494 284.12,-487"/>
</a>
</g>
</g>
<!-- Node6 -->
<g id="Node000006" class="node">
<title>Node6</title>
<g id="a_Node000006"><a xlink:href="classPgp2bGtx7FixedLatTb.html" target="_top" xlink:title=" ">
<polygon fill="white" stroke="#bfbfbf" points="642,-537 520,-537 520,-518 642,-518 642,-537"/>
<text text-anchor="middle" x="581" y="-525" font-family="Helvetica,sans-Serif" font-size="10.00">Pgp2bGtx7FixedLatTb</text>
</a>
</g>
</g>
<!-- Node5&#45;&gt;Node6 -->
<g id="edge5_Node000005_Node000006" class="edge">
<title>Node5&#45;&gt;Node6</title>
<g id="a_edge5_Node000005_Node000006"><a xlink:title=" ">
<path fill="none" stroke="#63b8ff" d="M447.41,-501.95C474.02,-507.08 505.04,-513.06 530.39,-517.94"/>
<polygon fill="#63b8ff" stroke="#63b8ff" points="447.93,-498.48 437.44,-500.03 446.6,-505.36 447.93,-498.48"/>
</a>
</g>
</g>
<!-- Node7 -->
<g id="Node000007" class="node">
<title>Node7</title>
<g id="a_Node000007"><a xlink:href="classPgp2bGtx7FixedLatWrapperTb.html" target="_top" xlink:title=" ">
<polygon fill="white" stroke="#bfbfbf" points="663,-500 499,-500 499,-481 663,-481 663,-500"/>
<text text-anchor="middle" x="581" y="-488" font-family="Helvetica,sans-Serif" font-size="10.00">Pgp2bGtx7FixedLatWrapperTb</text>
</a>
</g>
</g>
<!-- Node5&#45;&gt;Node7 -->
<g id="edge6_Node000005_Node000007" class="edge">
<title>Node5&#45;&gt;Node7</title>
<g id="a_edge6_Node000005_Node000007"><a xlink:title=" ">
<path fill="none" stroke="#63b8ff" d="M473.08,-490.5C481.69,-490.5 490.41,-490.5 498.97,-490.5"/>
<polygon fill="#63b8ff" stroke="#63b8ff" points="473.06,-487 463.06,-490.5 473.06,-494 473.06,-487"/>
</a>
</g>
</g>
<!-- Node9 -->
<g id="Node000009" class="node">
<title>Node9</title>
<g id="a_Node000009"><a xlink:href="classPgp2fcGtp7Wrapper.html" target="_top" xlink:title=" ">
<polygon fill="white" stroke="#bfbfbf" points="444,-463 330,-463 330,-444 444,-444 444,-463"/>
<text text-anchor="middle" x="387" y="-451" font-family="Helvetica,sans-Serif" font-size="10.00">Pgp2fcGtp7Wrapper</text>
</a>
</g>
</g>
<!-- Node8&#45;&gt;Node9 -->
<g id="edge8_Node000008_Node000009" class="edge">
<title>Node8&#45;&gt;Node9</title>
<g id="a_edge8_Node000008_Node000009"><a xlink:title=" ">
<path fill="none" stroke="#63b8ff" d="M266.95,-453.5C286.44,-453.5 309.34,-453.5 329.83,-453.5"/>
<polygon fill="#63b8ff" stroke="#63b8ff" points="266.8,-450 256.8,-453.5 266.8,-457 266.8,-450"/>
</a>
</g>
</g>
<!-- Node11 -->
<g id="Node000011" class="node">
<title>Node11</title>
<g id="a_Node000011"><a xlink:href="classPgp3Core.html" target="_top" xlink:title=" ">
<polygon fill="white" stroke="#bfbfbf" points="418.5,-426 355.5,-426 355.5,-407 418.5,-407 418.5,-426"/>
<text text-anchor="middle" x="387" y="-414" font-family="Helvetica,sans-Serif" font-size="10.00">Pgp3Core</text>
</a>
</g>
</g>
<!-- Node10&#45;&gt;Node11 -->
<g id="edge10_Node000010_Node000011" class="edge">
<title>Node10&#45;&gt;Node11</title>
<g id="a_edge10_Node000010_Node000011"><a xlink:title=" ">
<path fill="none" stroke="#63b8ff" d="M257.04,-416.5C286.44,-416.5 327.52,-416.5 355.35,-416.5"/>
<polygon fill="#63b8ff" stroke="#63b8ff" points="256.78,-413 246.78,-416.5 256.78,-420 256.78,-413"/>
</a>
</g>
</g>
<!-- Node21 -->
<g id="Node000021" class="node">
<title>Node21</title>
<g id="a_Node000021"><a xlink:href="classPgp3Tb.html" target="_top" xlink:title=" ">
<polygon fill="white" stroke="#bfbfbf" points="413.5,-389 360.5,-389 360.5,-370 413.5,-370 413.5,-389"/>
<text text-anchor="middle" x="387" y="-377" font-family="Helvetica,sans-Serif" font-size="10.00">Pgp3Tb</text>
</a>
</g>
</g>
<!-- Node10&#45;&gt;Node21 -->
<g id="edge20_Node000010_Node000021" class="edge">
<title>Node10&#45;&gt;Node21</title>
<g id="a_edge20_Node000010_Node000021"><a xlink:title=" ">
<path fill="none" stroke="#63b8ff" d="M256.82,-408.47C288.07,-401.46 332.62,-391.47 360.4,-385.24"/>
<polygon fill="#63b8ff" stroke="#63b8ff" points="255.77,-405.12 246.78,-410.72 257.3,-411.95 255.77,-405.12"/>
</a>
</g>
</g>
<!-- Node12 -->
<g id="Node000012" class="node">
<title>Node12</title>
<g id="a_Node000012"><a xlink:href="classPgp3GthUs.html" target="_top" xlink:title=" ">
<polygon fill="white" stroke="#bfbfbf" points="616.5,-463 545.5,-463 545.5,-444 616.5,-444 616.5,-463"/>
<text text-anchor="middle" x="581" y="-451" font-family="Helvetica,sans-Serif" font-size="10.00">Pgp3GthUs</text>
</a>
</g>
</g>
<!-- Node11&#45;&gt;Node12 -->
<g id="edge11_Node000011_Node000012" class="edge">
<title>Node11&#45;&gt;Node12</title>
<g id="a_edge11_Node000011_Node000012"><a xlink:title=" ">
<path fill="none" stroke="#63b8ff" d="M429.1,-424.42C463.71,-431.09 512.67,-440.52 545.33,-446.82"/>
<polygon fill="#63b8ff" stroke="#63b8ff" points="429.33,-420.9 418.85,-422.44 428.01,-427.77 429.33,-420.9"/>
</a>
</g>
</g>
<!-- Node14 -->
<g id="Node000014" class="node">
<title>Node14</title>
<g id="a_Node000014"><a xlink:href="classPgp3Gtp7.html" target="_top" xlink:title=" ">
<polygon fill="white" stroke="#bfbfbf" points="613,-426 549,-426 549,-407 613,-407 613,-426"/>
<text text-anchor="middle" x="581" y="-414" font-family="Helvetica,sans-Serif" font-size="10.00">Pgp3Gtp7</text>
</a>
</g>
</g>
<!-- Node11&#45;&gt;Node14 -->
<g id="edge13_Node000011_Node000014" class="edge">
<title>Node11&#45;&gt;Node14</title>
<g id="a_edge13_Node000011_Node000014"><a xlink:title=" ">
<path fill="none" stroke="#63b8ff" d="M429,-416.5C464.9,-416.5 516.3,-416.5 548.91,-416.5"/>
<polygon fill="#63b8ff" stroke="#63b8ff" points="428.85,-413 418.85,-416.5 428.85,-420 428.85,-413"/>
</a>
</g>
</g>
<!-- Node17 -->
<g id="Node000017" class="node">
<title>Node17</title>
<g id="a_Node000017"><a xlink:href="classPgp3Gtx7.html" target="_top" xlink:title=" ">
<polygon fill="white" stroke="#bfbfbf" points="613,-389 549,-389 549,-370 613,-370 613,-389"/>
<text text-anchor="middle" x="581" y="-377" font-family="Helvetica,sans-Serif" font-size="10.00">Pgp3Gtx7</text>
</a>
</g>
</g>
<!-- Node11&#45;&gt;Node17 -->
<g id="edge16_Node000011_Node000017" class="edge">
<title>Node11&#45;&gt;Node17</title>
<g id="a_edge16_Node000011_Node000017"><a xlink:title=" ">
<path fill="none" stroke="#63b8ff" d="M429,-408.6C464.9,-401.68 516.3,-391.77 548.91,-385.49"/>
<polygon fill="#63b8ff" stroke="#63b8ff" points="428.01,-405.23 418.85,-410.56 429.33,-412.1 428.01,-405.23"/>
</a>
</g>
</g>
<!-- Node19 -->
<g id="Node000019" class="node">
<title>Node19</title>
<g id="a_Node000019"><a xlink:href="classPgp3GtyUs.html" target="_top" xlink:title=" ">
<polygon fill="white" stroke="#bfbfbf" points="616.5,-352 545.5,-352 545.5,-333 616.5,-333 616.5,-352"/>
<text text-anchor="middle" x="581" y="-340" font-family="Helvetica,sans-Serif" font-size="10.00">Pgp3GtyUs</text>
</a>
</g>
</g>
<!-- Node11&#45;&gt;Node19 -->
<g id="edge18_Node000011_Node000019" class="edge">
<title>Node11&#45;&gt;Node19</title>
<g id="a_edge18_Node000011_Node000019"><a xlink:title=" ">
<path fill="none" stroke="#63b8ff" d="M428.61,-411.1C440.22,-408.43 452.56,-404.44 463,-398.5 482.94,-387.15 479.03,-372.8 499,-361.5 513.08,-353.54 530.35,-348.9 545.31,-346.21"/>
<polygon fill="#63b8ff" stroke="#63b8ff" points="427.75,-407.71 418.65,-413.13 429.14,-414.57 427.75,-407.71"/>
</a>
</g>
</g>
<!-- Node13 -->
<g id="Node000013" class="node">
<title>Node13</title>
<g id="a_Node000013"><a xlink:href="classPgp3GthUsWrapper.html" target="_top" xlink:title=" ">
<polygon fill="white" stroke="#bfbfbf" points="815.5,-463 703.5,-463 703.5,-444 815.5,-444 815.5,-463"/>
<text text-anchor="middle" x="759.5" y="-451" font-family="Helvetica,sans-Serif" font-size="10.00">Pgp3GthUsWrapper</text>
</a>
</g>
</g>
<!-- Node12&#45;&gt;Node13 -->
<g id="edge12_Node000012_Node000013" class="edge">
<title>Node12&#45;&gt;Node13</title>
<g id="a_edge12_Node000012_Node000013"><a xlink:title=" ">
<path fill="none" stroke="#63b8ff" d="M627.11,-453.5C650.29,-453.5 678.72,-453.5 703.2,-453.5"/>
<polygon fill="#63b8ff" stroke="#63b8ff" points="626.87,-450 616.87,-453.5 626.87,-457 626.87,-450"/>
</a>
</g>
</g>
<!-- Node15 -->
<g id="Node000015" class="node">
<title>Node15</title>
<g id="a_Node000015"><a xlink:href="classPgp3Gtp7Wrapper.html" target="_top" xlink:title=" ">
<polygon fill="white" stroke="#bfbfbf" points="812,-426 707,-426 707,-407 812,-407 812,-426"/>
<text text-anchor="middle" x="759.5" y="-414" font-family="Helvetica,sans-Serif" font-size="10.00">Pgp3Gtp7Wrapper</text>
</a>
</g>
</g>
<!-- Node14&#45;&gt;Node15 -->
<g id="edge14_Node000014_Node000015" class="edge">
<title>Node14&#45;&gt;Node15</title>
<g id="a_edge14_Node000014_Node000015"><a xlink:title=" ">
<path fill="none" stroke="#63b8ff" d="M623.38,-416.5C648.33,-416.5 680.33,-416.5 706.92,-416.5"/>
<polygon fill="#63b8ff" stroke="#63b8ff" points="623.15,-413 613.15,-416.5 623.15,-420 623.15,-413"/>
</a>
</g>
</g>
<!-- Node16 -->
<g id="Node000016" class="node">
<title>Node16</title>
<g id="a_Node000016"><a xlink:href="classPgp3Gtp7Tb.html" target="_top" xlink:title=" ">
<polygon fill="white" stroke="#bfbfbf" points="932,-426 856,-426 856,-407 932,-407 932,-426"/>
<text text-anchor="middle" x="894" y="-414" font-family="Helvetica,sans-Serif" font-size="10.00">Pgp3Gtp7Tb</text>
</a>
</g>
</g>
<!-- Node15&#45;&gt;Node16 -->
<g id="edge15_Node000015_Node000016" class="edge">
<title>Node15&#45;&gt;Node16</title>
<g id="a_edge15_Node000015_Node000016"><a xlink:title=" ">
<path fill="none" stroke="#63b8ff" d="M822.45,-416.5C833.81,-416.5 845.33,-416.5 855.68,-416.5"/>
<polygon fill="#63b8ff" stroke="#63b8ff" points="822.11,-413 812.11,-416.5 822.11,-420 822.11,-413"/>
</a>
</g>
</g>
<!-- Node18 -->
<g id="Node000018" class="node">
<title>Node18</title>
<g id="a_Node000018"><a xlink:href="classPgp3Gtx7Wrapper.html" target="_top" xlink:title=" ">
<polygon fill="white" stroke="#bfbfbf" points="812,-389 707,-389 707,-370 812,-370 812,-389"/>
<text text-anchor="middle" x="759.5" y="-377" font-family="Helvetica,sans-Serif" font-size="10.00">Pgp3Gtx7Wrapper</text>
</a>
</g>
</g>
<!-- Node17&#45;&gt;Node18 -->
<g id="edge17_Node000017_Node000018" class="edge">
<title>Node17&#45;&gt;Node18</title>
<g id="a_edge17_Node000017_Node000018"><a xlink:title=" ">
<path fill="none" stroke="#63b8ff" d="M623.38,-379.5C648.33,-379.5 680.33,-379.5 706.92,-379.5"/>
<polygon fill="#63b8ff" stroke="#63b8ff" points="623.15,-376 613.15,-379.5 623.15,-383 623.15,-376"/>
</a>
</g>
</g>
<!-- Node20 -->
<g id="Node000020" class="node">
<title>Node20</title>
<g id="a_Node000020"><a xlink:href="classPgp3GtyUsWrapper.html" target="_top" xlink:title=" ">
<polygon fill="white" stroke="#bfbfbf" points="815.5,-352 703.5,-352 703.5,-333 815.5,-333 815.5,-352"/>
<text text-anchor="middle" x="759.5" y="-340" font-family="Helvetica,sans-Serif" font-size="10.00">Pgp3GtyUsWrapper</text>
</a>
</g>
</g>
<!-- Node19&#45;&gt;Node20 -->
<g id="edge19_Node000019_Node000020" class="edge">
<title>Node19&#45;&gt;Node20</title>
<g id="a_edge19_Node000019_Node000020"><a xlink:title=" ">
<path fill="none" stroke="#63b8ff" d="M627.11,-342.5C650.29,-342.5 678.72,-342.5 703.2,-342.5"/>
<polygon fill="#63b8ff" stroke="#63b8ff" points="626.87,-339 616.87,-342.5 626.87,-346 626.87,-339"/>
</a>
</g>
</g>
<!-- Node23 -->
<g id="Node000023" class="node">
<title>Node23</title>
<g id="a_Node000023"><a xlink:href="classPgp4Core.html" target="_top" xlink:title=" ">
<polygon fill="white" stroke="#bfbfbf" points="418.5,-186 355.5,-186 355.5,-167 418.5,-167 418.5,-186"/>
<text text-anchor="middle" x="387" y="-174" font-family="Helvetica,sans-Serif" font-size="10.00">Pgp4Core</text>
</a>
</g>
</g>
<!-- Node22&#45;&gt;Node23 -->
<g id="edge22_Node000022_Node000023" class="edge">
<title>Node22&#45;&gt;Node23</title>
<g id="a_edge22_Node000022_Node000023"><a xlink:title=" ">
<path fill="none" stroke="#63b8ff" d="M256.65,-140.44C286.08,-148.64 327.39,-160.16 355.35,-167.96"/>
<polygon fill="#63b8ff" stroke="#63b8ff" points="257.35,-137 246.78,-137.69 255.47,-143.74 257.35,-137"/>
</a>
</g>
</g>
<!-- Node35 -->
<g id="Node000035" class="node">
<title>Node35</title>
<g id="a_Node000035"><a xlink:href="classPgp4CoreLite.html" target="_top" xlink:title=" ">
<polygon fill="white" stroke="#bfbfbf" points="427.5,-94 346.5,-94 346.5,-75 427.5,-75 427.5,-94"/>
<text text-anchor="middle" x="387" y="-82" font-family="Helvetica,sans-Serif" font-size="10.00">Pgp4CoreLite</text>
</a>
</g>
</g>
<!-- Node22&#45;&gt;Node35 -->
<g id="edge34_Node000022_Node000035" class="edge">
<title>Node22&#45;&gt;Node35</title>
<g id="a_edge34_Node000022_Node000035"><a xlink:title=" ">
<path fill="none" stroke="#63b8ff" d="M256.64,-120.56C284.84,-112.7 323.99,-101.79 351.81,-94.03"/>
<polygon fill="#63b8ff" stroke="#63b8ff" points="255.47,-117.26 246.78,-123.31 257.35,-124 255.47,-117.26"/>
</a>
</g>
</g>
<!-- Node39 -->
<g id="Node000039" class="node">
<title>Node39</title>
<g id="a_Node000039"><a xlink:href="classPgp4TxLiteTb.html" target="_top" xlink:title=" ">
<polygon fill="white" stroke="#bfbfbf" points="428.5,-57 345.5,-57 345.5,-38 428.5,-38 428.5,-57"/>
<text text-anchor="middle" x="387" y="-45" font-family="Helvetica,sans-Serif" font-size="10.00">Pgp4TxLiteTb</text>
</a>
</g>
</g>
<!-- Node22&#45;&gt;Node39 -->
<g id="edge38_Node000022_Node000039" class="edge">
<title>Node22&#45;&gt;Node39</title>
<g id="a_edge38_Node000022_Node000039"><a xlink:title=" ">
<path fill="none" stroke="#63b8ff" d="M239.19,-114.45C256.53,-99.95 283.93,-79.02 311,-66.5 321.73,-61.54 333.94,-57.74 345.36,-54.9"/>
<polygon fill="#63b8ff" stroke="#63b8ff" points="236.87,-111.83 231.54,-120.99 241.42,-117.16 236.87,-111.83"/>
</a>
</g>
</g>
<!-- Node24 -->
<g id="Node000024" class="node">
<title>Node24</title>
<g id="a_Node000024"><a xlink:href="classPgp4CoreTb.html" target="_top" xlink:title=" ">
<polygon fill="white" stroke="#bfbfbf" points="618.5,-315 543.5,-315 543.5,-296 618.5,-296 618.5,-315"/>
<text text-anchor="middle" x="581" y="-303" font-family="Helvetica,sans-Serif" font-size="10.00">Pgp4CoreTb</text>
</a>
</g>
</g>
<!-- Node23&#45;&gt;Node24 -->
<g id="edge23_Node000023_Node000024" class="edge">
<title>Node23&#45;&gt;Node24</title>
<g id="a_edge23_Node000023_Node000024"><a xlink:title=" ">
<path fill="none" stroke="#63b8ff" d="M400.47,-194.21C419,-219.1 456.23,-264.02 499,-287.5 512.51,-294.92 528.88,-299.28 543.35,-301.84"/>
<polygon fill="#63b8ff" stroke="#63b8ff" points="403.23,-192.05 394.52,-186.02 397.57,-196.17 403.23,-192.05"/>
</a>
</g>
</g>
<!-- Node25 -->
<g id="Node000025" class="node">
<title>Node25</title>
<g id="a_Node000025"><a xlink:href="classPgp4Tb.html" target="_top" xlink:title=" ">
<polygon fill="white" stroke="#bfbfbf" points="607.5,-278 554.5,-278 554.5,-259 607.5,-259 607.5,-278"/>
<text text-anchor="middle" x="581" y="-266" font-family="Helvetica,sans-Serif" font-size="10.00">Pgp4Tb</text>
</a>
</g>
</g>
<!-- Node23&#45;&gt;Node25 -->
<g id="edge24_Node000023_Node000025" class="edge">
<title>Node23&#45;&gt;Node25</title>
<g id="a_edge24_Node000023_Node000025"><a xlink:title=" ">
<path fill="none" stroke="#63b8ff" d="M407.03,-192.42C428.18,-209.3 463.99,-235.56 499,-250.5 516.75,-258.08 538.12,-262.65 554.44,-265.29"/>
<polygon fill="#63b8ff" stroke="#63b8ff" points="409.13,-189.61 399.16,-186.02 404.72,-195.05 409.13,-189.61"/>
</a>
</g>
</g>
<!-- Node26 -->
<g id="Node000026" class="node">
<title>Node26</title>
<g id="a_Node000026"><a xlink:href="classPgp4GthUs.html" target="_top" xlink:title=" ">
<polygon fill="white" stroke="#bfbfbf" points="616.5,-241 545.5,-241 545.5,-222 616.5,-222 616.5,-241"/>
<text text-anchor="middle" x="581" y="-229" font-family="Helvetica,sans-Serif" font-size="10.00">Pgp4GthUs</text>
</a>
</g>
</g>
<!-- Node23&#45;&gt;Node26 -->
<g id="edge25_Node000023_Node000026" class="edge">
<title>Node23&#45;&gt;Node26</title>
<g id="a_edge25_Node000023_Node000026"><a xlink:title=" ">
<path fill="none" stroke="#63b8ff" d="M423.67,-189.43C445.29,-197.01 473.54,-206.45 499,-213.5 513.99,-217.65 530.75,-221.51 545.12,-224.57"/>
<polygon fill="#63b8ff" stroke="#63b8ff" points="424.82,-186.13 414.23,-186.09 422.49,-192.73 424.82,-186.13"/>
</a>
</g>
</g>
<!-- Node28 -->
<g id="Node000028" class="node">
<title>Node28</title>
<g id="a_Node000028"><a xlink:href="classPgp4Gtp7.html" target="_top" xlink:title=" ">
<polygon fill="white" stroke="#bfbfbf" points="613,-204 549,-204 549,-185 613,-185 613,-204"/>
<text text-anchor="middle" x="581" y="-192" font-family="Helvetica,sans-Serif" font-size="10.00">Pgp4Gtp7</text>
</a>
</g>
</g>
<!-- Node23&#45;&gt;Node28 -->
<g id="edge27_Node000023_Node000028" class="edge">
<title>Node23&#45;&gt;Node28</title>
<g id="a_edge27_Node000023_Node000028"><a xlink:title=" ">
<path fill="none" stroke="#63b8ff" d="M429,-180.34C464.9,-183.71 516.3,-188.53 548.91,-191.59"/>
<polygon fill="#63b8ff" stroke="#63b8ff" points="429.13,-176.84 418.85,-179.39 428.48,-183.81 429.13,-176.84"/>
</a>
</g>
</g>
<!-- Node30 -->
<g id="Node000030" class="node">
<title>Node30</title>
<g id="a_Node000030"><a xlink:href="classPgp4Gtx7.html" target="_top" xlink:title=" ">
<polygon fill="white" stroke="#bfbfbf" points="613,-167 549,-167 549,-148 613,-148 613,-167"/>
<text text-anchor="middle" x="581" y="-155" font-family="Helvetica,sans-Serif" font-size="10.00">Pgp4Gtx7</text>
</a>
</g>
</g>
<!-- Node23&#45;&gt;Node30 -->
<g id="edge29_Node000023_Node000030" class="edge">
<title>Node23&#45;&gt;Node30</title>
<g id="a_edge29_Node000023_Node000030"><a xlink:title=" ">
<path fill="none" stroke="#63b8ff" d="M429,-172.44C464.9,-168.89 516.3,-163.8 548.91,-160.58"/>
<polygon fill="#63b8ff" stroke="#63b8ff" points="428.45,-168.98 418.85,-173.45 429.14,-175.95 428.45,-168.98"/>
</a>
</g>
</g>
<!-- Node32 -->
<g id="Node000032" class="node">
<title>Node32</title>
<g id="a_Node000032"><a xlink:href="classPgp4GtyUs.html" target="_top" xlink:title=" ">
<polygon fill="white" stroke="#bfbfbf" points="616.5,-130 545.5,-130 545.5,-111 616.5,-111 616.5,-130"/>
<text text-anchor="middle" x="581" y="-118" font-family="Helvetica,sans-Serif" font-size="10.00">Pgp4GtyUs</text>
</a>
</g>
</g>
<!-- Node23&#45;&gt;Node32 -->
<g id="edge31_Node000023_Node000032" class="edge">
<title>Node23&#45;&gt;Node32</title>
<g id="a_edge31_Node000023_Node000032"><a xlink:title=" ">
<path fill="none" stroke="#63b8ff" d="M423.7,-163.68C445.33,-156.14 473.58,-146.7 499,-139.5 514.01,-135.25 530.77,-131.2 545.13,-127.94"/>
<polygon fill="#63b8ff" stroke="#63b8ff" points="422.53,-160.38 414.25,-166.99 424.85,-166.98 422.53,-160.38"/>
</a>
</g>
</g>
<!-- Node34 -->
<g id="Node000034" class="node">
<title>Node34</title>
<g id="a_Node000034"><a xlink:href="classPgp4FecTb.html" target="_top" xlink:title=" ">
<polygon fill="white" stroke="#bfbfbf" points="615.5,-93 546.5,-93 546.5,-74 615.5,-74 615.5,-93"/>
<text text-anchor="middle" x="581" y="-81" font-family="Helvetica,sans-Serif" font-size="10.00">Pgp4FecTb</text>
</a>
</g>
</g>
<!-- Node23&#45;&gt;Node34 -->
<g id="edge33_Node000023_Node000034" class="edge">
<title>Node23&#45;&gt;Node34</title>
<g id="a_edge33_Node000023_Node000034"><a xlink:title=" ">
<path fill="none" stroke="#63b8ff" d="M407.41,-160.39C428.63,-143.57 464.26,-117.56 499,-102.5 513.97,-96.01 531.51,-91.54 546.43,-88.58"/>
<polygon fill="#63b8ff" stroke="#63b8ff" points="405.08,-157.77 399.49,-166.77 409.48,-163.22 405.08,-157.77"/>
</a>
</g>
</g>
<!-- Node27 -->
<g id="Node000027" class="node">
<title>Node27</title>
<g id="a_Node000027"><a xlink:href="classPgp4GthUsWrapper.html" target="_top" xlink:title=" ">
<polygon fill="white" stroke="#bfbfbf" points="815.5,-241 703.5,-241 703.5,-222 815.5,-222 815.5,-241"/>
<text text-anchor="middle" x="759.5" y="-229" font-family="Helvetica,sans-Serif" font-size="10.00">Pgp4GthUsWrapper</text>
</a>
</g>
</g>
<!-- Node26&#45;&gt;Node27 -->
<g id="edge26_Node000026_Node000027" class="edge">
<title>Node26&#45;&gt;Node27</title>
<g id="a_edge26_Node000026_Node000027"><a xlink:title=" ">
<path fill="none" stroke="#63b8ff" d="M627.11,-231.5C650.29,-231.5 678.72,-231.5 703.2,-231.5"/>
<polygon fill="#63b8ff" stroke="#63b8ff" points="626.87,-228 616.87,-231.5 626.87,-235 626.87,-228"/>
</a>
</g>
</g>
<!-- Node29 -->
<g id="Node000029" class="node">
<title>Node29</title>
<g id="a_Node000029"><a xlink:href="classPgp4Gtp7Wrapper.html" target="_top" xlink:title=" ">
<polygon fill="white" stroke="#bfbfbf" points="812,-204 707,-204 707,-185 812,-185 812,-204"/>
<text text-anchor="middle" x="759.5" y="-192" font-family="Helvetica,sans-Serif" font-size="10.00">Pgp4Gtp7Wrapper</text>
</a>
</g>
</g>
<!-- Node28&#45;&gt;Node29 -->
<g id="edge28_Node000028_Node000029" class="edge">
<title>Node28&#45;&gt;Node29</title>
<g id="a_edge28_Node000028_Node000029"><a xlink:title=" ">
<path fill="none" stroke="#63b8ff" d="M623.38,-194.5C648.33,-194.5 680.33,-194.5 706.92,-194.5"/>
<polygon fill="#63b8ff" stroke="#63b8ff" points="623.15,-191 613.15,-194.5 623.15,-198 623.15,-191"/>
</a>
</g>
</g>
<!-- Node31 -->
<g id="Node000031" class="node">
<title>Node31</title>
<g id="a_Node000031"><a xlink:href="classPgp4Gtx7Wrapper.html" target="_top" xlink:title=" ">
<polygon fill="white" stroke="#bfbfbf" points="812,-167 707,-167 707,-148 812,-148 812,-167"/>
<text text-anchor="middle" x="759.5" y="-155" font-family="Helvetica,sans-Serif" font-size="10.00">Pgp4Gtx7Wrapper</text>
</a>
</g>
</g>
<!-- Node30&#45;&gt;Node31 -->
<g id="edge30_Node000030_Node000031" class="edge">
<title>Node30&#45;&gt;Node31</title>
<g id="a_edge30_Node000030_Node000031"><a xlink:title=" ">
<path fill="none" stroke="#63b8ff" d="M623.38,-157.5C648.33,-157.5 680.33,-157.5 706.92,-157.5"/>
<polygon fill="#63b8ff" stroke="#63b8ff" points="623.15,-154 613.15,-157.5 623.15,-161 623.15,-154"/>
</a>
</g>
</g>
<!-- Node33 -->
<g id="Node000033" class="node">
<title>Node33</title>
<g id="a_Node000033"><a xlink:href="classPgp4GtyUsWrapper.html" target="_top" xlink:title=" ">
<polygon fill="white" stroke="#bfbfbf" points="815.5,-130 703.5,-130 703.5,-111 815.5,-111 815.5,-130"/>
<text text-anchor="middle" x="759.5" y="-118" font-family="Helvetica,sans-Serif" font-size="10.00">Pgp4GtyUsWrapper</text>
</a>
</g>
</g>
<!-- Node32&#45;&gt;Node33 -->
<g id="edge32_Node000032_Node000033" class="edge">
<title>Node32&#45;&gt;Node33</title>
<g id="a_edge32_Node000032_Node000033"><a xlink:title=" ">
<path fill="none" stroke="#63b8ff" d="M627.11,-120.5C650.29,-120.5 678.72,-120.5 703.2,-120.5"/>
<polygon fill="#63b8ff" stroke="#63b8ff" points="626.87,-117 616.87,-120.5 626.87,-124 626.87,-117"/>
</a>
</g>
</g>
<!-- Node36 -->
<g id="Node000036" class="node">
<title>Node36</title>
<g id="a_Node000036"><a xlink:href="classPgp4RxLiteLowSpeedLane.html" target="_top" xlink:title=" ">
<polygon fill="white" stroke="#bfbfbf" points="653,-56 509,-56 509,-37 653,-37 653,-56"/>
<text text-anchor="middle" x="581" y="-44" font-family="Helvetica,sans-Serif" font-size="10.00">Pgp4RxLiteLowSpeedLane</text>
</a>
</g>
</g>
<!-- Node35&#45;&gt;Node36 -->
<g id="edge35_Node000035_Node000036" class="edge">
<title>Node35&#45;&gt;Node36</title>
<g id="a_edge35_Node000035_Node000036"><a xlink:title=" ">
<path fill="none" stroke="#63b8ff" d="M437.7,-74.66C466.67,-68.93 503.05,-61.73 531.77,-56.05"/>
<polygon fill="#63b8ff" stroke="#63b8ff" points="436.91,-71.25 427.78,-76.63 438.27,-78.12 436.91,-71.25"/>
</a>
</g>
</g>
<!-- Node38 -->
<g id="Node000038" class="node">
<title>Node38</title>
<g id="a_Node000038"><a xlink:href="classPgp4CoreLiteTb.html" target="_top" xlink:title=" ">
<polygon fill="white" stroke="#bfbfbf" points="627.5,-19 534.5,-19 534.5,0 627.5,0 627.5,-19"/>
<text text-anchor="middle" x="581" y="-7" font-family="Helvetica,sans-Serif" font-size="10.00">Pgp4CoreLiteTb</text>
</a>
</g>
</g>
<!-- Node35&#45;&gt;Node38 -->
<g id="edge37_Node000035_Node000038" class="edge">
<title>Node35&#45;&gt;Node38</title>
<g id="a_edge37_Node000035_Node000038"><a xlink:title=" ">
<path fill="none" stroke="#63b8ff" d="M437.64,-76.88C446.43,-74.35 455.25,-70.98 463,-66.5 483.14,-54.86 478.83,-40.09 499,-28.5 509.65,-22.38 522.15,-18.24 534.11,-15.42"/>
<polygon fill="#63b8ff" stroke="#63b8ff" points="436.6,-73.53 427.77,-79.39 438.33,-80.31 436.6,-73.53"/>
</a>
</g>
</g>
<!-- Node37 -->
<g id="Node000037" class="node">
<title>Node37</title>
<g id="a_Node000037"><a xlink:href="classPgp4LiteRxLowSpeed.html" target="_top" xlink:title=" ">
<polygon fill="white" stroke="#bfbfbf" points="820,-56 699,-56 699,-37 820,-37 820,-56"/>
<text text-anchor="middle" x="759.5" y="-44" font-family="Helvetica,sans-Serif" font-size="10.00">Pgp4LiteRxLowSpeed</text>
</a>
</g>
</g>
<!-- Node36&#45;&gt;Node37 -->
<g id="edge36_Node000036_Node000037" class="edge">
<title>Node36&#45;&gt;Node37</title>
<g id="a_edge36_Node000036_Node000037"><a xlink:title=" ">
<path fill="none" stroke="#63b8ff" d="M663.1,-46.5C675.17,-46.5 687.43,-46.5 698.94,-46.5"/>
<polygon fill="#63b8ff" stroke="#63b8ff" points="663.03,-43 653.03,-46.5 663.03,-50 663.03,-43"/>
</a>
</g>
</g>
</g>
</svg>
