<?xml version="1.0" encoding="UTF-8" standalone="no"?>
<!DOCTYPE svg PUBLIC "-//W3C//DTD SVG 1.1//EN"
 "http://www.w3.org/Graphics/SVG/1.1/DTD/svg11.dtd">
<!-- Generated by graphviz version 2.43.0 (0)
 -->
<!-- Title: SynchronizerFifo Pages: 1 -->
<svg width="473pt" height="245pt"
 viewBox="0.00 0.00 473.00 244.56" xmlns="http://www.w3.org/2000/svg" xmlns:xlink="http://www.w3.org/1999/xlink">
<g id="graph0" class="graph" transform="scale(1 1) rotate(0) translate(4 240.56)">
<title>SynchronizerFifo</title>
<polygon fill="white" stroke="transparent" points="-4,4 -4,-240.56 469,-240.56 469,4 -4,4"/>
<!-- Node1 -->
<g id="node1" class="node">
<title>Node1</title>
<g id="a_node1"><a xlink:title=" ">
<polygon fill="#bfbfbf" stroke="black" points="367,-114.5 367,-133.5 465,-133.5 465,-114.5 367,-114.5"/>
<text text-anchor="middle" x="416" y="-121.5" font-family="Helvetica,sans-Serif" font-size="10.00">SynchronizerFifo</text>
</a>
</g>
</g>
<!-- Node2 -->
<g id="node2" class="node">
<title>Node2</title>
<g id="a_node2"><a xlink:href="classFifoAsync.html" target="_top" xlink:title=" ">
<polygon fill="white" stroke="black" points="267,-114.5 267,-133.5 331,-133.5 331,-114.5 267,-114.5"/>
<text text-anchor="middle" x="299" y="-121.5" font-family="Helvetica,sans-Serif" font-size="10.00">FifoAsync</text>
</a>
</g>
</g>
<!-- Node2&#45;&gt;Node1 -->
<g id="edge1" class="edge">
<title>Node2&#45;&gt;Node1</title>
<path fill="none" stroke="midnightblue" d="M341.33,-124C349.65,-124 358.46,-124 366.98,-124"/>
<polygon fill="midnightblue" stroke="midnightblue" points="341.12,-120.5 331.12,-124 341.12,-127.5 341.12,-120.5"/>
</g>
<!-- Node3 -->
<g id="node3" class="node">
<title>Node3</title>
<g id="a_node3"><a xlink:href="classRstSync.html" target="_top" xlink:title=" ">
<polygon fill="white" stroke="black" points="145.5,-190.5 145.5,-209.5 201.5,-209.5 201.5,-190.5 145.5,-190.5"/>
<text text-anchor="middle" x="173.5" y="-197.5" font-family="Helvetica,sans-Serif" font-size="10.00">RstSync</text>
</a>
</g>
</g>
<!-- Node3&#45;&gt;Node2 -->
<g id="edge2" class="edge">
<title>Node3&#45;&gt;Node2</title>
<path fill="none" stroke="midnightblue" d="M211.29,-189.9C218.04,-187.42 224.89,-184.46 231,-181 254.13,-167.92 276.77,-146.29 288.9,-133.77"/>
<polygon fill="midnightblue" stroke="midnightblue" points="209.9,-186.67 201.55,-193.2 212.14,-193.3 209.9,-186.67"/>
</g>
<!-- Node4 -->
<g id="node4" class="node">
<title>Node4</title>
<g id="a_node4"><a xlink:href="classSynchronizer.html" target="_top" xlink:title=" ">
<polygon fill="white" stroke="black" points="0,-209.5 0,-228.5 80,-228.5 80,-209.5 0,-209.5"/>
<text text-anchor="middle" x="40" y="-216.5" font-family="Helvetica,sans-Serif" font-size="10.00">Synchronizer</text>
</a>
</g>
</g>
<!-- Node4&#45;&gt;Node2 -->
<g id="edge5" class="edge">
<title>Node4&#45;&gt;Node2</title>
<path fill="none" stroke="midnightblue" d="M87.84,-230.48C128.12,-237.77 186.59,-242.02 231,-219 266.48,-200.61 287.16,-153.84 294.7,-133.59"/>
<polygon fill="midnightblue" stroke="midnightblue" points="88.49,-227.04 78,-228.57 87.16,-233.91 88.49,-227.04"/>
</g>
<!-- Node4&#45;&gt;Node3 -->
<g id="edge3" class="edge">
<title>Node4&#45;&gt;Node3</title>
<path fill="none" stroke="midnightblue" d="M90.24,-211.88C108.93,-209.18 129.52,-206.21 145.43,-203.91"/>
<polygon fill="midnightblue" stroke="midnightblue" points="89.49,-208.46 80.1,-213.35 90.5,-215.38 89.49,-208.46"/>
</g>
<!-- Node5 -->
<g id="node5" class="node">
<title>Node5</title>
<g id="a_node5"><a xlink:href="classSynchronizerVector.html" target="_top" xlink:title=" ">
<polygon fill="white" stroke="black" points="118.5,-152.5 118.5,-171.5 228.5,-171.5 228.5,-152.5 118.5,-152.5"/>
<text text-anchor="middle" x="173.5" y="-159.5" font-family="Helvetica,sans-Serif" font-size="10.00">SynchronizerVector</text>
</a>
</g>
</g>
<!-- Node5&#45;&gt;Node2 -->
<g id="edge4" class="edge">
<title>Node5&#45;&gt;Node2</title>
<path fill="none" stroke="midnightblue" d="M215.24,-149.46C232.04,-144.3 251.2,-138.4 266.85,-133.59"/>
<polygon fill="midnightblue" stroke="midnightblue" points="214.19,-146.12 205.66,-152.41 216.25,-152.82 214.19,-146.12"/>
</g>
<!-- Node6 -->
<g id="node6" class="node">
<title>Node6</title>
<g id="a_node6"><a xlink:href="classFifoWrFsm.html" target="_top" xlink:title=" ">
<polygon fill="white" stroke="black" points="139,-114.5 139,-133.5 208,-133.5 208,-114.5 139,-114.5"/>
<text text-anchor="middle" x="173.5" y="-121.5" font-family="Helvetica,sans-Serif" font-size="10.00">FifoWrFsm</text>
</a>
</g>
</g>
<!-- Node6&#45;&gt;Node2 -->
<g id="edge6" class="edge">
<title>Node6&#45;&gt;Node2</title>
<path fill="none" stroke="midnightblue" d="M218.45,-124C234.45,-124 252.18,-124 266.84,-124"/>
<polygon fill="midnightblue" stroke="midnightblue" points="218.25,-120.5 208.25,-124 218.25,-127.5 218.25,-120.5"/>
</g>
<!-- Node7 -->
<g id="node7" class="node">
<title>Node7</title>
<g id="a_node7"><a xlink:href="classFifoRdFsm.html" target="_top" xlink:title=" ">
<polygon fill="white" stroke="black" points="139.5,-76.5 139.5,-95.5 207.5,-95.5 207.5,-76.5 139.5,-76.5"/>
<text text-anchor="middle" x="173.5" y="-83.5" font-family="Helvetica,sans-Serif" font-size="10.00">FifoRdFsm</text>
</a>
</g>
</g>
<!-- Node7&#45;&gt;Node2 -->
<g id="edge7" class="edge">
<title>Node7&#45;&gt;Node2</title>
<path fill="none" stroke="midnightblue" d="M215.24,-98.54C232.04,-103.7 251.2,-109.6 266.85,-114.41"/>
<polygon fill="midnightblue" stroke="midnightblue" points="216.25,-95.18 205.66,-95.59 214.19,-101.88 216.25,-95.18"/>
</g>
<!-- Node8 -->
<g id="node8" class="node">
<title>Node8</title>
<g id="a_node8"><a xlink:href="classSimpleDualPortRam.html" target="_top" xlink:title=" ">
<polygon fill="white" stroke="black" points="116,-38.5 116,-57.5 231,-57.5 231,-38.5 116,-38.5"/>
<text text-anchor="middle" x="173.5" y="-45.5" font-family="Helvetica,sans-Serif" font-size="10.00">SimpleDualPortRam</text>
</a>
</g>
</g>
<!-- Node8&#45;&gt;Node2 -->
<g id="edge8" class="edge">
<title>Node8&#45;&gt;Node2</title>
<path fill="none" stroke="midnightblue" d="M219.28,-61.27C223.34,-63 227.3,-64.91 231,-67 254.13,-80.08 276.77,-101.71 288.9,-114.23"/>
<polygon fill="midnightblue" stroke="midnightblue" points="220.34,-57.92 209.76,-57.55 217.8,-64.44 220.34,-57.92"/>
</g>
<!-- Node9 -->
<g id="node9" class="node">
<title>Node9</title>
<g id="a_node9"><a xlink:href="classFifoOutputPipeline.html" target="_top" xlink:title=" ">
<polygon fill="white" stroke="black" points="120,-0.5 120,-19.5 227,-19.5 227,-0.5 120,-0.5"/>
<text text-anchor="middle" x="173.5" y="-7.5" font-family="Helvetica,sans-Serif" font-size="10.00">FifoOutputPipeline</text>
</a>
</g>
</g>
<!-- Node9&#45;&gt;Node2 -->
<g id="edge9" class="edge">
<title>Node9&#45;&gt;Node2</title>
<path fill="none" stroke="midnightblue" d="M223.03,-23.94C225.82,-25.46 228.51,-27.14 231,-29 262.56,-52.52 284.91,-95.33 293.78,-114.39"/>
<polygon fill="midnightblue" stroke="midnightblue" points="224.34,-20.69 213.8,-19.59 221.36,-27.02 224.34,-20.69"/>
</g>
</g>
</svg>
