<?xml version="1.0" encoding="UTF-8" standalone="no"?>
<!DOCTYPE svg PUBLIC "-//W3C//DTD SVG 1.1//EN"
 "http://www.w3.org/Graphics/SVG/1.1/DTD/svg11.dtd">
<!-- Generated by graphviz version 2.43.0 (0)
 -->
<!-- Title: SaltCore Pages: 1 -->
<!--zoomable 570 -->

<svg id="main" version="1.1" xmlns="http://www.w3.org/2000/svg" xmlns:xlink="http://www.w3.org/1999/xlink" xml:space="preserve" onload="init(evt)">
<style type="text/css"><![CDATA[
.node, .edge {opacity: 0.7;}
.node.selected, .edge.selected {opacity: 1;}
.edge:hover path { stroke: red; }
.edge:hover polygon { stroke: red; fill: red; }
]]></style>

<defs>
  <circle id="rim" cx="0" cy="0" r="7"/>
  <circle id="rim2" cx="0" cy="0" r="3.5"/>
  <g id="zoomPlus">
    <use xlink:href="#rim" fill="#404040"><set attributeName="fill" to="#808080" begin="zoomplus.mouseover" end="zoomplus.mouseout"/></use>
    <path d="M-4,0h8M0,-4v8" fill="none" stroke="white" stroke-width="1.5" pointer-events="none"/>
  </g>
  <g id="zoomMin">
    <use xlink:href="#rim" fill="#404040"><set attributeName="fill" to="#808080" begin="zoomminus.mouseover" end="zoomminus.mouseout"/></use>
    <path d="M-4,0h8" fill="none" stroke="white" stroke-width="1.5" pointer-events="none"/>
  </g>
  <g id="arrowUp" transform="translate(30 24)">
    <use xlink:href="#rim"/>
    <path pointer-events="none" fill="none" stroke="white" stroke-width="1.5" d="M0,-3.0v7 M-2.5,-0.5L0,-3.0L2.5,-0.5"/>
  </g>
  <g id="arrowRight" transform="rotate(90) translate(36 -43)">
    <use xlink:href="#rim"/>
    <path pointer-events="none" fill="none" stroke="white" stroke-width="1.5" d="M0,-3.0v7 M-2.5,-0.5L0,-3.0L2.5,-0.5"/>
  </g>
  <g id="arrowDown" transform="rotate(180) translate(-30 -48)">
    <use xlink:href="#rim"/>
    <path pointer-events="none" fill="none" stroke="white" stroke-width="1.5" d="M0,-3.0v7 M-2.5,-0.5L0,-3.0L2.5,-0.5"/>
  </g>
  <g id="arrowLeft" transform="rotate(270) translate(-36 17)">
    <use xlink:href="#rim"/>
    <path pointer-events="none" fill="none" stroke="white" stroke-width="1.5" d="M0,-3.0v7 M-2.5,-0.5L0,-3.0L2.5,-0.5"/>
  </g>
  <g id="resetDef">
    <use xlink:href="#rim2" fill="#404040"><set attributeName="fill" to="#808080" begin="reset.mouseover" end="reset.mouseout"/></use>
  </g>
</defs>
<script type="application/ecmascript">
var viewWidth = 1181;
var viewHeight = 570;
var sectionId = 'dynsection-1';
</script>
<script type="application/ecmascript" xlink:href="svg.min.js"/>
<svg id="graph" class="graph">
<g id="viewport">
<title>SaltCore</title>
<!-- Node1 -->
<g id="Node000001" class="node">
<title>Node1</title>
<g id="a_Node000001"><a xlink:title=" ">
<polygon fill="#999999" stroke="#666666" points="1173,-354 1115,-354 1115,-335 1173,-335 1173,-354"/>
<text text-anchor="middle" x="1144" y="-342" font-family="Helvetica,sans-Serif" font-size="10.00">SaltCore</text>
</a>
</g>
</g>
<!-- Node2 -->
<g id="Node000002" class="node">
<title>Node2</title>
<g id="a_Node000002"><a xlink:href="classSaltTxLvds.html" target="_top" xlink:title=" ">
<polygon fill="white" stroke="#bfbfbf" points="754.5,-525 684.5,-525 684.5,-506 754.5,-506 754.5,-525"/>
<text text-anchor="middle" x="719.5" y="-513" font-family="Helvetica,sans-Serif" font-size="10.00">SaltTxLvds</text>
</a>
</g>
</g>
<!-- Node2&#45;&gt;Node1 -->
<g id="edge1_Node000001_Node000002" class="edge">
<title>Node2&#45;&gt;Node1</title>
<g id="a_edge1_Node000001_Node000002"><a xlink:title=" ">
<path fill="none" stroke="#63b8ff" d="M753.48,-502.15C835.65,-468.89 1048.02,-382.94 1119.29,-354.1"/>
<polygon fill="#63b8ff" stroke="#63b8ff" points="752.08,-498.94 744.12,-505.94 754.7,-505.43 752.08,-498.94"/>
</a>
</g>
</g>
<!-- Node3 -->
<g id="Node000003" class="node">
<title>Node3</title>
<g id="a_Node000003"><a xlink:href="classEncoder8b10b.html" target="_top" xlink:title=" ">
<polygon fill="white" stroke="#bfbfbf" points="600,-562 514,-562 514,-543 600,-543 600,-562"/>
<text text-anchor="middle" x="557" y="-550" font-family="Helvetica,sans-Serif" font-size="10.00">Encoder8b10b</text>
</a>
</g>
</g>
<!-- Node3&#45;&gt;Node2 -->
<g id="edge2_Node000002_Node000003" class="edge">
<title>Node3&#45;&gt;Node2</title>
<g id="a_edge2_Node000002_Node000003"><a xlink:title=" ">
<path fill="none" stroke="#63b8ff" d="M609.21,-540.69C633.76,-535.03 662.5,-528.41 684.35,-523.37"/>
<polygon fill="#63b8ff" stroke="#63b8ff" points="608.29,-537.31 599.33,-542.97 609.86,-544.14 608.29,-537.31"/>
</a>
</g>
</g>
<!-- Node4 -->
<g id="Node000004" class="node">
<title>Node4</title>
<g id="a_Node000004"><a xlink:href="classAsyncGearbox.html" target="_top" xlink:title=" ">
<polygon fill="white" stroke="#bfbfbf" points="600.5,-297 513.5,-297 513.5,-278 600.5,-278 600.5,-297"/>
<text text-anchor="middle" x="557" y="-285" font-family="Helvetica,sans-Serif" font-size="10.00">AsyncGearbox</text>
</a>
</g>
</g>
<!-- Node4&#45;&gt;Node2 -->
<g id="edge3_Node000002_Node000004" class="edge">
<title>Node4&#45;&gt;Node2</title>
<g id="a_edge3_Node000002_Node000004"><a xlink:title=" ">
<path fill="none" stroke="#63b8ff" d="M582.06,-303.01C596.91,-313.44 615.61,-328.22 629,-344.5 673.48,-398.59 704.99,-478.34 715.06,-505.79"/>
<polygon fill="#63b8ff" stroke="#63b8ff" points="583.63,-299.84 573.4,-297.1 579.69,-305.63 583.63,-299.84"/>
</a>
</g>
</g>
<!-- Node28 -->
<g id="Node000028" class="node">
<title>Node28</title>
<g id="a_Node000028"><a xlink:href="classSaltRxLvds.html" target="_top" xlink:title=" ">
<polygon fill="white" stroke="#bfbfbf" points="755,-148 684,-148 684,-129 755,-129 755,-148"/>
<text text-anchor="middle" x="719.5" y="-136" font-family="Helvetica,sans-Serif" font-size="10.00">SaltRxLvds</text>
</a>
</g>
</g>
<!-- Node4&#45;&gt;Node28 -->
<g id="edge47_Node000028_Node000004" class="edge">
<title>Node4&#45;&gt;Node28</title>
<g id="a_edge47_Node000028_Node000004"><a xlink:title=" ">
<path fill="none" stroke="#63b8ff" d="M576.27,-270.54C610.1,-239.14 681.45,-172.89 708.14,-148.12"/>
<polygon fill="#63b8ff" stroke="#63b8ff" points="573.48,-268.35 568.53,-277.72 578.24,-273.49 573.48,-268.35"/>
</a>
</g>
</g>
<!-- Node5 -->
<g id="Node000005" class="node">
<title>Node5</title>
<g id="a_Node000005"><a xlink:href="classSynchronizerOneShot.html" target="_top" xlink:title=" ">
<polygon fill="white" stroke="#bfbfbf" points="430.5,-307 309.5,-307 309.5,-288 430.5,-288 430.5,-307"/>
<text text-anchor="middle" x="370" y="-295" font-family="Helvetica,sans-Serif" font-size="10.00">SynchronizerOneShot</text>
</a>
</g>
</g>
<!-- Node5&#45;&gt;Node4 -->
<g id="edge4_Node000004_Node000005" class="edge">
<title>Node5&#45;&gt;Node4</title>
<g id="a_edge4_Node000004_Node000005"><a xlink:title=" ">
<path fill="none" stroke="#63b8ff" d="M440.83,-293.73C465.19,-292.41 491.78,-290.97 513.27,-289.81"/>
<polygon fill="#63b8ff" stroke="#63b8ff" points="440.35,-290.25 430.55,-294.28 440.73,-297.24 440.35,-290.25"/>
</a>
</g>
</g>
<!-- Node6 -->
<g id="Node000006" class="node">
<title>Node6</title>
<g id="a_Node000006"><a xlink:href="classRstSync.html" target="_top" xlink:title=" ">
<polygon fill="white" stroke="#bfbfbf" points="225.5,-317 169.5,-317 169.5,-298 225.5,-298 225.5,-317"/>
<text text-anchor="middle" x="197.5" y="-305" font-family="Helvetica,sans-Serif" font-size="10.00">RstSync</text>
</a>
</g>
</g>
<!-- Node6&#45;&gt;Node5 -->
<g id="edge5_Node000005_Node000006" class="edge">
<title>Node6&#45;&gt;Node5</title>
<g id="a_edge5_Node000005_Node000006"><a xlink:title=" ">
<path fill="none" stroke="#63b8ff" d="M235.56,-305.33C257.09,-304.06 284.73,-302.44 309.26,-301"/>
<polygon fill="#63b8ff" stroke="#63b8ff" points="235.29,-301.84 225.52,-305.92 235.7,-308.82 235.29,-301.84"/>
</a>
</g>
</g>
<!-- Node9 -->
<g id="Node000009" class="node">
<title>Node9</title>
<g id="a_Node000009"><a xlink:href="classFifoAsync.html" target="_top" xlink:title=" ">
<polygon fill="white" stroke="#bfbfbf" points="402,-204 338,-204 338,-185 402,-185 402,-204"/>
<text text-anchor="middle" x="370" y="-192" font-family="Helvetica,sans-Serif" font-size="10.00">FifoAsync</text>
</a>
</g>
</g>
<!-- Node6&#45;&gt;Node9 -->
<g id="edge11_Node000009_Node000006" class="edge">
<title>Node6&#45;&gt;Node9</title>
<g id="a_edge11_Node000009_Node000006"><a xlink:title=" ">
<path fill="none" stroke="#63b8ff" d="M234.21,-294.01C241.27,-290.88 248.5,-287.33 255,-283.5 296.32,-259.16 339.44,-221.6 358.68,-204.09"/>
<polygon fill="#63b8ff" stroke="#63b8ff" points="232.63,-290.88 224.79,-298 235.36,-297.32 232.63,-290.88"/>
</a>
</g>
</g>
<!-- Node7 -->
<g id="Node000007" class="node">
<title>Node7</title>
<g id="a_Node000007"><a xlink:href="classSynchronizer.html" target="_top" xlink:title=" ">
<polygon fill="white" stroke="#bfbfbf" points="92,-354 12,-354 12,-335 92,-335 92,-354"/>
<text text-anchor="middle" x="52" y="-342" font-family="Helvetica,sans-Serif" font-size="10.00">Synchronizer</text>
</a>
</g>
</g>
<!-- Node7&#45;&gt;Node4 -->
<g id="edge9_Node000004_Node000007" class="edge">
<title>Node7&#45;&gt;Node4</title>
<g id="a_edge9_Node000004_Node000007"><a xlink:title=" ">
<path fill="none" stroke="#63b8ff" d="M93.46,-356.77C168.1,-377.02 330.63,-409.81 449,-352.5 470.83,-341.93 464.82,-324.95 485,-311.5 494.2,-305.36 505.12,-300.66 515.6,-297.11"/>
<polygon fill="#63b8ff" stroke="#63b8ff" points="94.1,-353.32 83.53,-354.01 92.22,-360.06 94.1,-353.32"/>
</a>
</g>
</g>
<!-- Node7&#45;&gt;Node6 -->
<g id="edge6_Node000006_Node000007" class="edge">
<title>Node7&#45;&gt;Node6</title>
<g id="a_edge6_Node000006_Node000007"><a xlink:title=" ">
<path fill="none" stroke="#63b8ff" d="M99.85,-332.42C122.8,-326.5 149.63,-319.59 169.19,-314.54"/>
<polygon fill="#63b8ff" stroke="#63b8ff" points="98.76,-329.09 89.95,-334.97 100.51,-335.86 98.76,-329.09"/>
</a>
</g>
</g>
<!-- Node8 -->
<g id="Node000008" class="node">
<title>Node8</title>
<g id="a_Node000008"><a xlink:href="classSynchronizerEdge.html" target="_top" xlink:title=" ">
<polygon fill="white" stroke="#bfbfbf" points="249.5,-354 145.5,-354 145.5,-335 249.5,-335 249.5,-354"/>
<text text-anchor="middle" x="197.5" y="-342" font-family="Helvetica,sans-Serif" font-size="10.00">SynchronizerEdge</text>
</a>
</g>
</g>
<!-- Node7&#45;&gt;Node8 -->
<g id="edge8_Node000008_Node000007" class="edge">
<title>Node7&#45;&gt;Node8</title>
<g id="a_edge8_Node000008_Node000007"><a xlink:title=" ">
<path fill="none" stroke="#63b8ff" d="M102.54,-344.5C116.42,-344.5 131.52,-344.5 145.48,-344.5"/>
<polygon fill="#63b8ff" stroke="#63b8ff" points="102.21,-341 92.21,-344.5 102.21,-348 102.21,-341"/>
</a>
</g>
</g>
<!-- Node7&#45;&gt;Node9 -->
<g id="edge13_Node000009_Node000007" class="edge">
<title>Node7&#45;&gt;Node9</title>
<g id="a_edge13_Node000009_Node000007"><a xlink:title=" ">
<path fill="none" stroke="#63b8ff" d="M73.84,-329.01C90.95,-316.81 116.17,-300 140,-288.5 188.61,-265.05 205.05,-269.93 255,-249.5 289.58,-235.36 328.5,-215.74 350.75,-204.16"/>
<polygon fill="#63b8ff" stroke="#63b8ff" points="71.73,-326.22 65.68,-334.91 75.83,-331.89 71.73,-326.22"/>
</a>
</g>
</g>
<!-- Node18 -->
<g id="Node000018" class="node">
<title>Node18</title>
<g id="a_Node000018"><a xlink:href="classAxiStreamFifoV2.html" target="_top" xlink:title=" ">
<polygon fill="white" stroke="#bfbfbf" points="909,-373 811,-373 811,-354 909,-354 909,-373"/>
<text text-anchor="middle" x="860" y="-361" font-family="Helvetica,sans-Serif" font-size="10.00">AxiStreamFifoV2</text>
</a>
</g>
</g>
<!-- Node7&#45;&gt;Node18 -->
<g id="edge38_Node000018_Node000007" class="edge">
<title>Node7&#45;&gt;Node18</title>
<g id="a_edge38_Node000018_Node000007"><a xlink:title=" ">
<path fill="none" stroke="#63b8ff" d="M73.59,-360.04C122.21,-395.13 249.09,-477.5 369,-477.5 369,-477.5 369,-477.5 558,-477.5 659.05,-477.5 683.55,-451.57 774,-406.5 791.44,-397.81 792.72,-390.49 810,-381.5 816.03,-378.36 822.73,-375.52 829.2,-373.07"/>
<polygon fill="#63b8ff" stroke="#63b8ff" points="75.57,-357.15 65.44,-354.07 71.44,-362.8 75.57,-357.15"/>
</a>
</g>
</g>
<!-- Node8&#45;&gt;Node5 -->
<g id="edge7_Node000005_Node000008" class="edge">
<title>Node8&#45;&gt;Node5</title>
<g id="a_edge7_Node000005_Node000008"><a xlink:title=" ">
<path fill="none" stroke="#63b8ff" d="M236.95,-331.72C253.49,-326.41 273.11,-320.36 291,-315.5 302,-312.51 313.95,-309.59 325.12,-307"/>
<polygon fill="#63b8ff" stroke="#63b8ff" points="235.52,-328.5 227.08,-334.91 237.67,-335.16 235.52,-328.5"/>
</a>
</g>
</g>
<!-- Node9&#45;&gt;Node4 -->
<g id="edge10_Node000004_Node000009" class="edge">
<title>Node9&#45;&gt;Node4</title>
<g id="a_edge10_Node000004_Node000009"><a xlink:title=" ">
<path fill="none" stroke="#63b8ff" d="M399.13,-208.64C437.26,-227.81 504.31,-261.51 537,-277.95"/>
<polygon fill="#63b8ff" stroke="#63b8ff" points="400.61,-205.47 390.1,-204.1 397.46,-211.72 400.61,-205.47"/>
</a>
</g>
</g>
<!-- Node23 -->
<g id="Node000023" class="node">
<title>Node23</title>
<g id="a_Node000023"><a xlink:href="classFifo.html" target="_top" xlink:title=" ">
<polygon fill="white" stroke="#bfbfbf" points="574.5,-185 539.5,-185 539.5,-166 574.5,-166 574.5,-185"/>
<text text-anchor="middle" x="557" y="-173" font-family="Helvetica,sans-Serif" font-size="10.00">Fifo</text>
</a>
</g>
</g>
<!-- Node9&#45;&gt;Node23 -->
<g id="edge32_Node000023_Node000009" class="edge">
<title>Node9&#45;&gt;Node23</title>
<g id="a_edge32_Node000023_Node000009"><a xlink:title=" ">
<path fill="none" stroke="#63b8ff" d="M412.38,-190.25C452.41,-186.14 511.05,-180.12 539.42,-177.2"/>
<polygon fill="#63b8ff" stroke="#63b8ff" points="411.97,-186.77 402.38,-191.28 412.69,-193.74 411.97,-186.77"/>
</a>
</g>
</g>
<!-- Node10 -->
<g id="Node000010" class="node">
<title>Node10</title>
<g id="a_Node000010"><a xlink:href="classSynchronizerVector.html" target="_top" xlink:title=" ">
<polygon fill="white" stroke="#bfbfbf" points="252.5,-241 142.5,-241 142.5,-222 252.5,-222 252.5,-241"/>
<text text-anchor="middle" x="197.5" y="-229" font-family="Helvetica,sans-Serif" font-size="10.00">SynchronizerVector</text>
</a>
</g>
</g>
<!-- Node10&#45;&gt;Node9 -->
<g id="edge12_Node000009_Node000010" class="edge">
<title>Node10&#45;&gt;Node9</title>
<g id="a_edge12_Node000009_Node000010"><a xlink:title=" ">
<path fill="none" stroke="#63b8ff" d="M252.51,-219.78C280.66,-213.67 314.07,-206.42 337.88,-201.25"/>
<polygon fill="#63b8ff" stroke="#63b8ff" points="251.44,-216.43 242.41,-221.97 252.92,-223.27 251.44,-216.43"/>
</a>
</g>
</g>
<!-- Node11 -->
<g id="Node000011" class="node">
<title>Node11</title>
<g id="a_Node000011"><a xlink:href="classFifoWrFsm.html" target="_top" xlink:title=" ">
<polygon fill="white" stroke="#bfbfbf" points="232,-167 163,-167 163,-148 232,-148 232,-167"/>
<text text-anchor="middle" x="197.5" y="-155" font-family="Helvetica,sans-Serif" font-size="10.00">FifoWrFsm</text>
</a>
</g>
</g>
<!-- Node11&#45;&gt;Node9 -->
<g id="edge14_Node000009_Node000011" class="edge">
<title>Node11&#45;&gt;Node9</title>
<g id="a_edge14_Node000009_Node000011"><a xlink:title=" ">
<path fill="none" stroke="#63b8ff" d="M241.97,-166.93C271.96,-173.44 311.1,-181.94 337.97,-187.77"/>
<polygon fill="#63b8ff" stroke="#63b8ff" points="242.7,-163.51 232.19,-164.81 241.22,-170.35 242.7,-163.51"/>
</a>
</g>
</g>
<!-- Node26 -->
<g id="Node000026" class="node">
<title>Node26</title>
<g id="a_Node000026"><a xlink:href="classFifoSync.html" target="_top" xlink:title=" ">
<polygon fill="white" stroke="#bfbfbf" points="399,-167 341,-167 341,-148 399,-148 399,-167"/>
<text text-anchor="middle" x="370" y="-155" font-family="Helvetica,sans-Serif" font-size="10.00">FifoSync</text>
</a>
</g>
</g>
<!-- Node11&#45;&gt;Node26 -->
<g id="edge34_Node000026_Node000011" class="edge">
<title>Node11&#45;&gt;Node26</title>
<g id="a_edge34_Node000026_Node000011"><a xlink:title=" ">
<path fill="none" stroke="#63b8ff" d="M242.29,-157.5C273.29,-157.5 313.95,-157.5 340.75,-157.5"/>
<polygon fill="#63b8ff" stroke="#63b8ff" points="242.19,-154 232.19,-157.5 242.19,-161 242.19,-154"/>
</a>
</g>
</g>
<!-- Node12 -->
<g id="Node000012" class="node">
<title>Node12</title>
<g id="a_Node000012"><a xlink:href="classFifoRdFsm.html" target="_top" xlink:title=" ">
<polygon fill="white" stroke="#bfbfbf" points="231.5,-130 163.5,-130 163.5,-111 231.5,-111 231.5,-130"/>
<text text-anchor="middle" x="197.5" y="-118" font-family="Helvetica,sans-Serif" font-size="10.00">FifoRdFsm</text>
</a>
</g>
</g>
<!-- Node12&#45;&gt;Node9 -->
<g id="edge15_Node000009_Node000012" class="edge">
<title>Node12&#45;&gt;Node9</title>
<g id="a_edge15_Node000009_Node000012"><a xlink:title=" ">
<path fill="none" stroke="#63b8ff" d="M241.06,-131.53C245.92,-133.52 250.68,-135.83 255,-138.5 274.51,-150.57 271.08,-164.12 291,-175.5 305.28,-183.66 322.97,-188.33 337.89,-191"/>
<polygon fill="#63b8ff" stroke="#63b8ff" points="242.26,-128.24 231.67,-128.09 239.85,-134.81 242.26,-128.24"/>
</a>
</g>
</g>
<!-- Node12&#45;&gt;Node26 -->
<g id="edge35_Node000026_Node000012" class="edge">
<title>Node12&#45;&gt;Node26</title>
<g id="a_edge35_Node000026_Node000012"><a xlink:title=" ">
<path fill="none" stroke="#63b8ff" d="M241.91,-129.92C273.01,-136.67 313.98,-145.56 340.89,-151.4"/>
<polygon fill="#63b8ff" stroke="#63b8ff" points="242.29,-126.42 231.78,-127.72 240.81,-133.26 242.29,-126.42"/>
</a>
</g>
</g>
<!-- Node13 -->
<g id="Node000013" class="node">
<title>Node13</title>
<g id="a_Node000013"><a xlink:href="classSimpleDualPortRam.html" target="_top" xlink:title=" ">
<polygon fill="white" stroke="#bfbfbf" points="255,-204 140,-204 140,-185 255,-185 255,-204"/>
<text text-anchor="middle" x="197.5" y="-192" font-family="Helvetica,sans-Serif" font-size="10.00">SimpleDualPortRam</text>
</a>
</g>
</g>
<!-- Node13&#45;&gt;Node9 -->
<g id="edge16_Node000009_Node000013" class="edge">
<title>Node13&#45;&gt;Node9</title>
<g id="a_edge16_Node000009_Node000013"><a xlink:title=" ">
<path fill="none" stroke="#63b8ff" d="M265.44,-194.5C290.4,-194.5 317.56,-194.5 337.8,-194.5"/>
<polygon fill="#63b8ff" stroke="#63b8ff" points="265.27,-191 255.27,-194.5 265.27,-198 265.27,-191"/>
</a>
</g>
</g>
<!-- Node13&#45;&gt;Node26 -->
<g id="edge36_Node000026_Node000013" class="edge">
<title>Node13&#45;&gt;Node26</title>
<g id="a_edge36_Node000026_Node000013"><a xlink:title=" ">
<path fill="none" stroke="#63b8ff" d="M252.5,-182.78C281.8,-176.42 316.81,-168.83 340.75,-163.63"/>
<polygon fill="#63b8ff" stroke="#63b8ff" points="251.44,-179.43 242.41,-184.97 252.92,-186.27 251.44,-179.43"/>
</a>
</g>
</g>
<!-- Node14 -->
<g id="Node000014" class="node">
<title>Node14</title>
<g id="a_Node000014"><a xlink:href="classFifoOutputPipeline.html" target="_top" xlink:title=" ">
<polygon fill="white" stroke="#bfbfbf" points="251,-93 144,-93 144,-74 251,-74 251,-93"/>
<text text-anchor="middle" x="197.5" y="-81" font-family="Helvetica,sans-Serif" font-size="10.00">FifoOutputPipeline</text>
</a>
</g>
</g>
<!-- Node14&#45;&gt;Node9 -->
<g id="edge17_Node000009_Node000014" class="edge">
<title>Node14&#45;&gt;Node9</title>
<g id="a_edge17_Node000009_Node000014"><a xlink:title=" ">
<path fill="none" stroke="#63b8ff" d="M250.28,-97.9C251.93,-99.02 253.51,-100.21 255,-101.5 282.66,-125.43 262.53,-152.55 291,-175.5 304.13,-186.08 322.27,-190.91 337.76,-193.05"/>
<polygon fill="#63b8ff" stroke="#63b8ff" points="251.97,-94.84 241.53,-93.03 248.56,-100.96 251.97,-94.84"/>
</a>
</g>
</g>
<!-- Node24 -->
<g id="Node000024" class="node">
<title>Node24</title>
<g id="a_Node000024"><a xlink:href="classFifoXpm.html" target="_top" xlink:title=" ">
<polygon fill="white" stroke="#bfbfbf" points="398.5,-130 341.5,-130 341.5,-111 398.5,-111 398.5,-130"/>
<text text-anchor="middle" x="370" y="-118" font-family="Helvetica,sans-Serif" font-size="10.00">FifoXpm</text>
</a>
</g>
</g>
<!-- Node14&#45;&gt;Node24 -->
<g id="edge29_Node000024_Node000014" class="edge">
<title>Node14&#45;&gt;Node24</title>
<g id="a_edge29_Node000024_Node000014"><a xlink:title=" ">
<path fill="none" stroke="#63b8ff" d="M252.18,-95.15C281.75,-101.57 317.22,-109.26 341.26,-114.48"/>
<polygon fill="#63b8ff" stroke="#63b8ff" points="252.92,-91.73 242.41,-93.03 251.44,-98.57 252.92,-91.73"/>
</a>
</g>
</g>
<!-- Node25 -->
<g id="Node000025" class="node">
<title>Node25</title>
<g id="a_Node000025"><a xlink:href="classFifoAlteraMf.html" target="_top" xlink:title=" ">
<polygon fill="white" stroke="#bfbfbf" points="408.5,-93 331.5,-93 331.5,-74 408.5,-74 408.5,-93"/>
<text text-anchor="middle" x="370" y="-81" font-family="Helvetica,sans-Serif" font-size="10.00">FifoAlteraMf</text>
</a>
</g>
</g>
<!-- Node14&#45;&gt;Node25 -->
<g id="edge31_Node000025_Node000014" class="edge">
<title>Node14&#45;&gt;Node25</title>
<g id="a_edge31_Node000025_Node000014"><a xlink:title=" ">
<path fill="none" stroke="#63b8ff" d="M261.29,-83.5C284.77,-83.5 310.7,-83.5 331.24,-83.5"/>
<polygon fill="#63b8ff" stroke="#63b8ff" points="261.05,-80 251.05,-83.5 261.05,-87 261.05,-80"/>
</a>
</g>
</g>
<!-- Node14&#45;&gt;Node26 -->
<g id="edge37_Node000026_Node000014" class="edge">
<title>Node14&#45;&gt;Node26</title>
<g id="a_edge37_Node000026_Node000014"><a xlink:title=" ">
<path fill="none" stroke="#63b8ff" d="M246.7,-97.01C249.58,-98.38 252.37,-99.87 255,-101.5 274.51,-113.57 271.08,-127.12 291,-138.5 306.25,-147.21 325.38,-151.95 340.88,-154.52"/>
<polygon fill="#63b8ff" stroke="#63b8ff" points="247.88,-93.71 237.31,-93.06 245.17,-100.17 247.88,-93.71"/>
</a>
</g>
</g>
<!-- Node15 -->
<g id="Node000015" class="node">
<title>Node15</title>
<g id="a_Node000015"><a xlink:href="classGearbox.html" target="_top" xlink:title=" ">
<polygon fill="white" stroke="#bfbfbf" points="399,-344 341,-344 341,-325 399,-325 399,-344"/>
<text text-anchor="middle" x="370" y="-332" font-family="Helvetica,sans-Serif" font-size="10.00">Gearbox</text>
</a>
</g>
</g>
<!-- Node15&#45;&gt;Node4 -->
<g id="edge18_Node000004_Node000015" class="edge">
<title>Node15&#45;&gt;Node4</title>
<g id="a_edge18_Node000004_Node000015"><a xlink:title=" ">
<path fill="none" stroke="#63b8ff" d="M409.01,-325.38C421.74,-322.29 435.99,-318.79 449,-315.5 472.64,-309.53 499.16,-302.59 519.88,-297.11"/>
<polygon fill="#63b8ff" stroke="#63b8ff" points="408.09,-322 399.19,-327.76 409.73,-328.8 408.09,-322"/>
</a>
</g>
</g>
<!-- Node16 -->
<g id="Node000016" class="node">
<title>Node16</title>
<g id="a_Node000016"><a xlink:href="classSaltTxSer.html" target="_top" xlink:title=" ">
<polygon fill="white" stroke="#bfbfbf" points="588.5,-525 525.5,-525 525.5,-506 588.5,-506 588.5,-525"/>
<text text-anchor="middle" x="557" y="-513" font-family="Helvetica,sans-Serif" font-size="10.00">SaltTxSer</text>
</a>
</g>
</g>
<!-- Node16&#45;&gt;Node2 -->
<g id="edge19_Node000002_Node000016" class="edge">
<title>Node16&#45;&gt;Node2</title>
<g id="a_edge19_Node000002_Node000016"><a xlink:title=" ">
<path fill="none" stroke="#63b8ff" d="M598.68,-515.5C625.18,-515.5 659.37,-515.5 684.44,-515.5"/>
<polygon fill="#63b8ff" stroke="#63b8ff" points="598.57,-512 588.57,-515.5 598.57,-519 598.57,-512"/>
</a>
</g>
</g>
<!-- Node17 -->
<g id="Node000017" class="node">
<title>Node17</title>
<g id="a_Node000017"><a xlink:href="classSaltTx.html" target="_top" xlink:title=" ">
<polygon fill="white" stroke="#bfbfbf" points="994,-373 947,-373 947,-354 994,-354 994,-373"/>
<text text-anchor="middle" x="970.5" y="-361" font-family="Helvetica,sans-Serif" font-size="10.00">SaltTx</text>
</a>
</g>
</g>
<!-- Node17&#45;&gt;Node1 -->
<g id="edge20_Node000001_Node000017" class="edge">
<title>Node17&#45;&gt;Node1</title>
<g id="a_edge20_Node000001_Node000017"><a xlink:title=" ">
<path fill="none" stroke="#63b8ff" d="M1004.45,-359.85C1036.42,-356.31 1084.42,-350.99 1114.71,-347.63"/>
<polygon fill="#63b8ff" stroke="#63b8ff" points="1003.83,-356.4 994.27,-360.98 1004.6,-363.35 1003.83,-356.4"/>
</a>
</g>
</g>
<!-- Node18&#45;&gt;Node17 -->
<g id="edge21_Node000017_Node000018" class="edge">
<title>Node18&#45;&gt;Node17</title>
<g id="a_edge21_Node000017_Node000018"><a xlink:title=" ">
<path fill="none" stroke="#63b8ff" d="M919.42,-363.5C929.19,-363.5 938.78,-363.5 946.92,-363.5"/>
<polygon fill="#63b8ff" stroke="#63b8ff" points="919.22,-360 909.22,-363.5 919.22,-367 919.22,-360"/>
</a>
</g>
</g>
<!-- Node37 -->
<g id="Node000037" class="node">
<title>Node37</title>
<g id="a_Node000037"><a xlink:href="classSsiFifo.html" target="_top" xlink:title=" ">
<polygon fill="white" stroke="#bfbfbf" points="995,-335 946,-335 946,-316 995,-316 995,-335"/>
<text text-anchor="middle" x="970.5" y="-323" font-family="Helvetica,sans-Serif" font-size="10.00">SsiFifo</text>
</a>
</g>
</g>
<!-- Node18&#45;&gt;Node37 -->
<g id="edge53_Node000037_Node000018" class="edge">
<title>Node18&#45;&gt;Node37</title>
<g id="a_edge53_Node000037_Node000018"><a xlink:title=" ">
<path fill="none" stroke="#63b8ff" d="M897.9,-350.58C913.75,-345.03 931.8,-338.7 945.81,-333.8"/>
<polygon fill="#63b8ff" stroke="#63b8ff" points="896.66,-347.3 888.38,-353.91 898.97,-353.91 896.66,-347.3"/>
</a>
</g>
</g>
<!-- Node19 -->
<g id="Node000019" class="node">
<title>Node19</title>
<g id="a_Node000019"><a xlink:href="classAxiStreamGearbox.html" target="_top" xlink:title=" ">
<polygon fill="white" stroke="#bfbfbf" points="774,-373 665,-373 665,-354 774,-354 774,-373"/>
<text text-anchor="middle" x="719.5" y="-361" font-family="Helvetica,sans-Serif" font-size="10.00">AxiStreamGearbox</text>
</a>
</g>
</g>
<!-- Node19&#45;&gt;Node18 -->
<g id="edge22_Node000018_Node000019" class="edge">
<title>Node19&#45;&gt;Node18</title>
<g id="a_edge22_Node000018_Node000019"><a xlink:title=" ">
<path fill="none" stroke="#63b8ff" d="M784.32,-363.5C793.14,-363.5 802.09,-363.5 810.57,-363.5"/>
<polygon fill="#63b8ff" stroke="#63b8ff" points="784.05,-360 774.05,-363.5 784.05,-367 784.05,-360"/>
</a>
</g>
</g>
<!-- Node20 -->
<g id="Node000020" class="node">
<title>Node20</title>
<g id="a_Node000020"><a xlink:href="classAxiStreamResize.html" target="_top" xlink:title=" ">
<polygon fill="white" stroke="#bfbfbf" points="607,-373 507,-373 507,-354 607,-354 607,-373"/>
<text text-anchor="middle" x="557" y="-361" font-family="Helvetica,sans-Serif" font-size="10.00">AxiStreamResize</text>
</a>
</g>
</g>
<!-- Node20&#45;&gt;Node19 -->
<g id="edge23_Node000019_Node000020" class="edge">
<title>Node20&#45;&gt;Node19</title>
<g id="a_edge23_Node000019_Node000020"><a xlink:title=" ">
<path fill="none" stroke="#63b8ff" d="M617.09,-363.5C632.69,-363.5 649.44,-363.5 664.74,-363.5"/>
<polygon fill="#63b8ff" stroke="#63b8ff" points="617.03,-360 607.03,-363.5 617.03,-367 617.03,-360"/>
</a>
</g>
</g>
<!-- Node21 -->
<g id="Node000021" class="node">
<title>Node21</title>
<g id="a_Node000021"><a xlink:href="classAxiStreamPipeline.html" target="_top" xlink:title=" ">
<polygon fill="white" stroke="#bfbfbf" points="423.5,-430 316.5,-430 316.5,-411 423.5,-411 423.5,-430"/>
<text text-anchor="middle" x="370" y="-418" font-family="Helvetica,sans-Serif" font-size="10.00">AxiStreamPipeline</text>
</a>
</g>
</g>
<!-- Node21&#45;&gt;Node18 -->
<g id="edge39_Node000018_Node000021" class="edge">
<title>Node21&#45;&gt;Node18</title>
<g id="a_edge39_Node000018_Node000021"><a xlink:title=" ">
<path fill="none" stroke="#63b8ff" d="M433.68,-419.57C486.04,-418.25 562.58,-415.1 629,-407.5 694.05,-400.06 709.74,-394.06 774,-381.5 787.47,-378.87 802.11,-375.83 815.37,-373.01"/>
<polygon fill="#63b8ff" stroke="#63b8ff" points="433.45,-416.07 423.54,-419.81 433.62,-423.07 433.45,-416.07"/>
</a>
</g>
</g>
<!-- Node21&#45;&gt;Node19 -->
<g id="edge25_Node000019_Node000021" class="edge">
<title>Node21&#45;&gt;Node19</title>
<g id="a_edge25_Node000019_Node000021"><a xlink:title=" ">
<path fill="none" stroke="#63b8ff" d="M434.13,-411.83C486.45,-404.43 562.71,-393.17 629,-381.5 643.36,-378.97 658.96,-375.94 673.05,-373.08"/>
<polygon fill="#63b8ff" stroke="#63b8ff" points="433.41,-408.39 423.99,-413.25 434.38,-415.33 433.41,-408.39"/>
</a>
</g>
</g>
<!-- Node21&#45;&gt;Node20 -->
<g id="edge24_Node000020_Node000021" class="edge">
<title>Node21&#45;&gt;Node20</title>
<g id="a_edge24_Node000020_Node000021"><a xlink:title=" ">
<path fill="none" stroke="#63b8ff" d="M411.86,-407.93C423.83,-404.25 436.94,-400.21 449,-396.5 474.64,-388.6 503.73,-379.63 525.1,-373.04"/>
<polygon fill="#63b8ff" stroke="#63b8ff" points="410.65,-404.64 402.13,-410.93 412.71,-411.33 410.65,-404.64"/>
</a>
</g>
</g>
<!-- Node39 -->
<g id="Node000039" class="node">
<title>Node39</title>
<g id="a_Node000039"><a xlink:href="classSsiObFrameFilter.html" target="_top" xlink:title=" ">
<polygon fill="white" stroke="#bfbfbf" points="910,-335 810,-335 810,-316 910,-316 910,-335"/>
<text text-anchor="middle" x="860" y="-323" font-family="Helvetica,sans-Serif" font-size="10.00">SsiObFrameFilter</text>
</a>
</g>
</g>
<!-- Node21&#45;&gt;Node39 -->
<g id="edge55_Node000039_Node000021" class="edge">
<title>Node21&#45;&gt;Node39</title>
<g id="a_edge55_Node000039_Node000021"><a xlink:title=" ">
<path fill="none" stroke="#63b8ff" d="M406.6,-407.05C420.5,-400.94 436.15,-392.95 449,-383.5 468,-369.52 463.64,-354.51 485,-344.5 592.01,-294.38 735.58,-305.85 809.87,-316.72"/>
<polygon fill="#63b8ff" stroke="#63b8ff" points="405.17,-403.86 397.32,-410.97 407.89,-410.3 405.17,-403.86"/>
</a>
</g>
</g>
<!-- Node22 -->
<g id="Node000022" class="node">
<title>Node22</title>
<g id="a_Node000022"><a xlink:href="classFifoCascade.html" target="_top" xlink:title=" ">
<polygon fill="white" stroke="#bfbfbf" points="757.5,-250 681.5,-250 681.5,-231 757.5,-231 757.5,-250"/>
<text text-anchor="middle" x="719.5" y="-238" font-family="Helvetica,sans-Serif" font-size="10.00">FifoCascade</text>
</a>
</g>
</g>
<!-- Node22&#45;&gt;Node18 -->
<g id="edge26_Node000018_Node000022" class="edge">
<title>Node22&#45;&gt;Node18</title>
<g id="a_edge26_Node000018_Node000022"><a xlink:title=" ">
<path fill="none" stroke="#63b8ff" d="M732.08,-258.38C747.47,-280.92 776.65,-319.62 810,-343.5 815.83,-347.67 822.65,-351.16 829.33,-353.99"/>
<polygon fill="#63b8ff" stroke="#63b8ff" points="734.99,-256.43 726.52,-250.06 729.17,-260.32 734.99,-256.43"/>
</a>
</g>
</g>
<!-- Node23&#45;&gt;Node22 -->
<g id="edge27_Node000022_Node000023" class="edge">
<title>Node23&#45;&gt;Node22</title>
<g id="a_edge27_Node000022_Node000023"><a xlink:title=" ">
<path fill="none" stroke="#63b8ff" d="M584.16,-186.09C614.82,-198.51 665.2,-218.92 694.78,-230.89"/>
<polygon fill="#63b8ff" stroke="#63b8ff" points="585.15,-182.72 574.57,-182.21 582.53,-189.21 585.15,-182.72"/>
</a>
</g>
</g>
<!-- Node24&#45;&gt;Node23 -->
<g id="edge28_Node000023_Node000024" class="edge">
<title>Node24&#45;&gt;Node23</title>
<g id="a_edge28_Node000023_Node000024"><a xlink:title=" ">
<path fill="none" stroke="#63b8ff" d="M408.56,-127.28C421.56,-130.13 436.1,-133.86 449,-138.5 465.83,-144.55 468.27,-150.16 485,-156.5 503.13,-163.38 524.76,-168.79 539.35,-172.05"/>
<polygon fill="#63b8ff" stroke="#63b8ff" points="409.03,-123.81 398.53,-125.2 407.61,-130.66 409.03,-123.81"/>
</a>
</g>
</g>
<!-- Node25&#45;&gt;Node23 -->
<g id="edge30_Node000023_Node000025" class="edge">
<title>Node25&#45;&gt;Node23</title>
<g id="a_edge30_Node000023_Node000025"><a xlink:title=" ">
<path fill="none" stroke="#63b8ff" d="M418.77,-88.51C429.38,-91.2 440.1,-95.29 449,-101.5 472.96,-118.21 461.33,-139.37 485,-156.5 501.13,-168.17 523.96,-172.67 539.35,-174.41"/>
<polygon fill="#63b8ff" stroke="#63b8ff" points="419.21,-85.02 408.7,-86.33 417.73,-91.86 419.21,-85.02"/>
</a>
</g>
</g>
<!-- Node26&#45;&gt;Node23 -->
<g id="edge33_Node000023_Node000026" class="edge">
<title>Node26&#45;&gt;Node23</title>
<g id="a_edge33_Node000023_Node000026"><a xlink:title=" ">
<path fill="none" stroke="#63b8ff" d="M409.27,-161.22C449.24,-165.11 510.09,-171.03 539.26,-173.87"/>
<polygon fill="#63b8ff" stroke="#63b8ff" points="409.39,-157.72 399.1,-160.23 408.71,-164.69 409.39,-157.72"/>
</a>
</g>
</g>
<!-- Node27 -->
<g id="Node000027" class="node">
<title>Node27</title>
<g id="a_Node000027"><a xlink:href="classSaltTxResize.html" target="_top" xlink:title=" ">
<polygon fill="white" stroke="#bfbfbf" points="900,-410 820,-410 820,-391 900,-391 900,-410"/>
<text text-anchor="middle" x="860" y="-398" font-family="Helvetica,sans-Serif" font-size="10.00">SaltTxResize</text>
</a>
</g>
</g>
<!-- Node27&#45;&gt;Node17 -->
<g id="edge40_Node000017_Node000027" class="edge">
<title>Node27&#45;&gt;Node17</title>
<g id="a_edge40_Node000017_Node000027"><a xlink:title=" ">
<path fill="none" stroke="#63b8ff" d="M898.59,-387.68C914.63,-382.21 932.82,-376.01 946.77,-371.25"/>
<polygon fill="#63b8ff" stroke="#63b8ff" points="897.28,-384.43 888.94,-390.97 899.54,-391.06 897.28,-384.43"/>
</a>
</g>
</g>
<!-- Node28&#45;&gt;Node1 -->
<g id="edge41_Node000001_Node000028" class="edge">
<title>Node28&#45;&gt;Node1</title>
<g id="a_edge41_Node000001_Node000028"><a xlink:title=" ">
<path fill="none" stroke="#63b8ff" d="M752.55,-152.26C815.87,-179.72 961.09,-244.06 1079,-306.5 1096.02,-315.51 1114.9,-326.91 1127.72,-334.86"/>
<polygon fill="#63b8ff" stroke="#63b8ff" points="753.67,-148.93 743.11,-148.17 750.9,-155.36 753.67,-148.93"/>
</a>
</g>
</g>
<!-- Node29 -->
<g id="Node000029" class="node">
<title>Node29</title>
<g id="a_Node000029"><a xlink:href="classSaltRxDeser.html" target="_top" xlink:title=" ">
<polygon fill="white" stroke="#bfbfbf" points="595.5,-56 518.5,-56 518.5,-37 595.5,-37 595.5,-56"/>
<text text-anchor="middle" x="557" y="-44" font-family="Helvetica,sans-Serif" font-size="10.00">SaltRxDeser</text>
</a>
</g>
</g>
<!-- Node29&#45;&gt;Node28 -->
<g id="edge42_Node000028_Node000029" class="edge">
<title>Node29&#45;&gt;Node28</title>
<g id="a_edge42_Node000028_Node000029"><a xlink:title=" ">
<path fill="none" stroke="#63b8ff" d="M587.48,-60.71C600.37,-67.11 615.58,-74.92 629,-82.5 656.13,-97.83 686.7,-117.49 704.17,-128.98"/>
<polygon fill="#63b8ff" stroke="#63b8ff" points="588.66,-57.39 578.15,-56.11 585.57,-63.67 588.66,-57.39"/>
</a>
</g>
</g>
<!-- Node30 -->
<g id="Node000030" class="node">
<title>Node30</title>
<g id="a_Node000030"><a xlink:href="classSelectioDeserLane7Series.html" target="_top" xlink:title=" ">
<polygon fill="white" stroke="#bfbfbf" points="441.5,-19 298.5,-19 298.5,0 441.5,0 441.5,-19"/>
<text text-anchor="middle" x="370" y="-7" font-family="Helvetica,sans-Serif" font-size="10.00">SelectioDeserLane7Series</text>
</a>
</g>
</g>
<!-- Node30&#45;&gt;Node29 -->
<g id="edge43_Node000029_Node000030" class="edge">
<title>Node30&#45;&gt;Node29</title>
<g id="a_edge43_Node000029_Node000030"><a xlink:title=" ">
<path fill="none" stroke="#63b8ff" d="M428.74,-21.05C457.99,-26.9 492.67,-33.83 518.43,-38.99"/>
<polygon fill="#63b8ff" stroke="#63b8ff" points="429.13,-17.56 418.64,-19.03 427.76,-24.42 429.13,-17.56"/>
</a>
</g>
</g>
<!-- Node31 -->
<g id="Node000031" class="node">
<title>Node31</title>
<g id="a_Node000031"><a xlink:href="classSelectioDeserLaneUltraScale.html" target="_top" xlink:title=" ">
<polygon fill="white" stroke="#bfbfbf" points="449,-56 291,-56 291,-37 449,-37 449,-56"/>
<text text-anchor="middle" x="370" y="-44" font-family="Helvetica,sans-Serif" font-size="10.00">SelectioDeserLaneUltraScale</text>
</a>
</g>
</g>
<!-- Node31&#45;&gt;Node29 -->
<g id="edge44_Node000029_Node000031" class="edge">
<title>Node31&#45;&gt;Node29</title>
<g id="a_edge44_Node000029_Node000031"><a xlink:title=" ">
<path fill="none" stroke="#63b8ff" d="M459.32,-46.5C480.03,-46.5 501.02,-46.5 518.13,-46.5"/>
<polygon fill="#63b8ff" stroke="#63b8ff" points="459.19,-43 449.19,-46.5 459.19,-50 459.19,-43"/>
</a>
</g>
</g>
<!-- Node32 -->
<g id="Node000032" class="node">
<title>Node32</title>
<g id="a_Node000032"><a xlink:href="classIdelaye3Wrapper.html" target="_top" xlink:title=" ">
<polygon fill="white" stroke="#bfbfbf" points="247.5,-56 147.5,-56 147.5,-37 247.5,-37 247.5,-56"/>
<text text-anchor="middle" x="197.5" y="-44" font-family="Helvetica,sans-Serif" font-size="10.00">Idelaye3Wrapper</text>
</a>
</g>
</g>
<!-- Node32&#45;&gt;Node31 -->
<g id="edge45_Node000031_Node000032" class="edge">
<title>Node32&#45;&gt;Node31</title>
<g id="a_edge45_Node000031_Node000032"><a xlink:title=" ">
<path fill="none" stroke="#63b8ff" d="M257.84,-46.5C268.51,-46.5 279.78,-46.5 290.89,-46.5"/>
<polygon fill="#63b8ff" stroke="#63b8ff" points="257.82,-43 247.82,-46.5 257.82,-50 257.82,-43"/>
</a>
</g>
</g>
<!-- Node33 -->
<g id="Node000033" class="node">
<title>Node33</title>
<g id="a_Node000033"><a xlink:href="classDelaye3PatchFsm.html" target="_top" xlink:title=" ">
<polygon fill="white" stroke="#bfbfbf" points="104,-56 0,-56 0,-37 104,-37 104,-56"/>
<text text-anchor="middle" x="52" y="-44" font-family="Helvetica,sans-Serif" font-size="10.00">Delaye3PatchFsm</text>
</a>
</g>
</g>
<!-- Node33&#45;&gt;Node32 -->
<g id="edge46_Node000032_Node000033" class="edge">
<title>Node33&#45;&gt;Node32</title>
<g id="a_edge46_Node000032_Node000033"><a xlink:title=" ">
<path fill="none" stroke="#63b8ff" d="M114.73,-46.5C125.64,-46.5 136.87,-46.5 147.38,-46.5"/>
<polygon fill="#63b8ff" stroke="#63b8ff" points="114.4,-43 104.4,-46.5 114.4,-50 114.4,-43"/>
</a>
</g>
</g>
<!-- Node34 -->
<g id="Node000034" class="node">
<title>Node34</title>
<g id="a_Node000034"><a xlink:href="classDecoder8b10b.html" target="_top" xlink:title=" ">
<polygon fill="white" stroke="#bfbfbf" points="600.5,-148 513.5,-148 513.5,-129 600.5,-129 600.5,-148"/>
<text text-anchor="middle" x="557" y="-136" font-family="Helvetica,sans-Serif" font-size="10.00">Decoder8b10b</text>
</a>
</g>
</g>
<!-- Node34&#45;&gt;Node28 -->
<g id="edge48_Node000028_Node000034" class="edge">
<title>Node34&#45;&gt;Node28</title>
<g id="a_edge48_Node000028_Node000034"><a xlink:title=" ">
<path fill="none" stroke="#63b8ff" d="M610.63,-138.5C634.67,-138.5 662.47,-138.5 683.83,-138.5"/>
<polygon fill="#63b8ff" stroke="#63b8ff" points="610.59,-135 600.59,-138.5 610.59,-142 610.59,-135"/>
</a>
</g>
</g>
<!-- Node35 -->
<g id="Node000035" class="node">
<title>Node35</title>
<g id="a_Node000035"><a xlink:href="classSelectIoRxGearboxAligner.html" target="_top" xlink:title=" ">
<polygon fill="white" stroke="#bfbfbf" points="629,-111 485,-111 485,-92 629,-92 629,-111"/>
<text text-anchor="middle" x="557" y="-99" font-family="Helvetica,sans-Serif" font-size="10.00">SelectIoRxGearboxAligner</text>
</a>
</g>
</g>
<!-- Node35&#45;&gt;Node28 -->
<g id="edge49_Node000028_Node000035" class="edge">
<title>Node35&#45;&gt;Node28</title>
<g id="a_edge49_Node000028_Node000035"><a xlink:title=" ">
<path fill="none" stroke="#63b8ff" d="M609.14,-113.29C633.51,-118.91 662.02,-125.48 683.82,-130.51"/>
<polygon fill="#63b8ff" stroke="#63b8ff" points="609.86,-109.86 599.33,-111.03 608.29,-116.69 609.86,-109.86"/>
</a>
</g>
</g>
<!-- Node36 -->
<g id="Node000036" class="node">
<title>Node36</title>
<g id="a_Node000036"><a xlink:href="classSaltRx.html" target="_top" xlink:title=" ">
<polygon fill="white" stroke="#bfbfbf" points="1079,-335 1031,-335 1031,-316 1079,-316 1079,-335"/>
<text text-anchor="middle" x="1055" y="-323" font-family="Helvetica,sans-Serif" font-size="10.00">SaltRx</text>
</a>
</g>
</g>
<!-- Node36&#45;&gt;Node1 -->
<g id="edge50_Node000001_Node000036" class="edge">
<title>Node36&#45;&gt;Node1</title>
<g id="a_edge50_Node000001_Node000036"><a xlink:title=" ">
<path fill="none" stroke="#63b8ff" d="M1089.29,-332.77C1097.76,-334.62 1106.79,-336.59 1114.97,-338.38"/>
<polygon fill="#63b8ff" stroke="#63b8ff" points="1089.83,-329.31 1079.31,-330.59 1088.34,-336.14 1089.83,-329.31"/>
</a>
</g>
</g>
<!-- Node37&#45;&gt;Node36 -->
<g id="edge51_Node000036_Node000037" class="edge">
<title>Node37&#45;&gt;Node36</title>
<g id="a_edge51_Node000036_Node000037"><a xlink:title=" ">
<path fill="none" stroke="#63b8ff" d="M1005.44,-325.5C1013.95,-325.5 1022.9,-325.5 1030.76,-325.5"/>
<polygon fill="#63b8ff" stroke="#63b8ff" points="1005.36,-322 995.36,-325.5 1005.36,-329 1005.36,-322"/>
</a>
</g>
</g>
<!-- Node38 -->
<g id="Node000038" class="node">
<title>Node38</title>
<g id="a_Node000038"><a xlink:href="classSsiIbFrameFilter.html" target="_top" xlink:title=" ">
<polygon fill="white" stroke="#bfbfbf" points="907.5,-298 812.5,-298 812.5,-279 907.5,-279 907.5,-298"/>
<text text-anchor="middle" x="860" y="-286" font-family="Helvetica,sans-Serif" font-size="10.00">SsiIbFrameFilter</text>
</a>
</g>
</g>
<!-- Node38&#45;&gt;Node37 -->
<g id="edge52_Node000037_Node000038" class="edge">
<title>Node38&#45;&gt;Node37</title>
<g id="a_edge52_Node000037_Node000038"><a xlink:title=" ">
<path fill="none" stroke="#63b8ff" d="M898.83,-301.4C914.4,-306.71 931.97,-312.7 945.7,-317.38"/>
<polygon fill="#63b8ff" stroke="#63b8ff" points="899.54,-297.94 888.94,-298.03 897.28,-304.57 899.54,-297.94"/>
</a>
</g>
</g>
<!-- Node39&#45;&gt;Node37 -->
<g id="edge54_Node000037_Node000039" class="edge">
<title>Node39&#45;&gt;Node37</title>
<g id="a_edge54_Node000037_Node000039"><a xlink:title=" ">
<path fill="none" stroke="#63b8ff" d="M920.41,-325.5C929.45,-325.5 938.3,-325.5 945.94,-325.5"/>
<polygon fill="#63b8ff" stroke="#63b8ff" points="920.17,-322 910.17,-325.5 920.17,-329 920.17,-322"/>
</a>
</g>
</g>
</g>
</svg>

<g id="navigator" transform="translate(0 0)" fill="#404254">
  <rect fill="#f2f5e9" fill-opacity="0.5" stroke="#606060" stroke-width=".5" x="0" y="0" width="60" height="60"/>
  <use id="zoomplus" xlink:href="#zoomPlus" x="17" y="9" onmousedown="handleZoom(evt,'in')"/>
  <use id="zoomminus" xlink:href="#zoomMin" x="42" y="9" onmousedown="handleZoom(evt,'out')"/>
  <use id="reset" xlink:href="#resetDef" x="30" y="36" onmousedown="handleReset()"/>
   <use id="arrowup" xlink:href="#arrowUp" x="0" y="0" onmousedown="handlePan(0,-1)"/>
  <use id="arrowright" xlink:href="#arrowRight" x="0" y="0" onmousedown="handlePan(1,0)"/>
  <use id="arrowdown" xlink:href="#arrowDown" x="0" y="0" onmousedown="handlePan(0,1)"/>
  <use id="arrowleft" xlink:href="#arrowLeft" x="0" y="0" onmousedown="handlePan(-1,0)"/>
</g>
<svg viewBox="0 0 15 15" width="100%" height="30px" preserveAspectRatio="xMaxYMin meet">
 <g id="arrow_out" transform="scale(0.3 0.3)">
  <a xlink:href="classSaltCore__coll__graph_org.svg" target="_base">
   <rect id="button" ry="5" rx="5" y="6" x="6" height="38" width="38"
        fill="#f2f5e9" fill-opacity="0.5" stroke="#606060" stroke-width="1.0"/>
   <path id="arrow"
     d="M 11.500037,31.436501 C 11.940474,20.09759 22.043105,11.32322 32.158766,21.979434 L 37.068811,17.246167 C 37.068811,17.246167 37.088388,32 37.088388,32 L 22.160133,31.978069 C 22.160133,31.978069 26.997745,27.140456 26.997745,27.140456 C 18.528582,18.264221 13.291696,25.230495 11.500037,31.436501 z"
     style="fill:#404040;"/>
  </a>
 </g>
</svg>

<style type='text/css'>
<![CDATA[
[data-mouse-over-selected='false'] { opacity: 0.7; }
[data-mouse-over-selected='true']  { opacity: 1.0; }
]]>
</style>
<script type="application/ecmascript"><![CDATA[
document.addEventListener('DOMContentLoaded', (event) => {
  highlightEdges();
  highlightAdjacentNodes();
});
]]></script>
</svg>
