<?xml version="1.0" encoding="UTF-8" standalone="no"?>
<!DOCTYPE svg PUBLIC "-//W3C//DTD SVG 1.1//EN"
 "http://www.w3.org/Graphics/SVG/1.1/DTD/svg11.dtd">
<!-- Generated by graphviz version 2.43.0 (0)
 -->
<!-- Title: FifoWrFsm Pages: 1 -->
<svg width="762pt" height="1358pt"
 viewBox="0.00 0.00 762.00 1358.00" xmlns="http://www.w3.org/2000/svg" xmlns:xlink="http://www.w3.org/1999/xlink">
<g id="graph0" class="graph" transform="scale(1 1) rotate(0) translate(4 1354)">
<title>FifoWrFsm</title>
<polygon fill="white" stroke="transparent" points="-4,4 -4,-1354 758,-1354 758,4 -4,4"/>
<!-- Node1 -->
<g id="node1" class="node">
<title>Node1</title>
<g id="a_node1"><a xlink:title=" ">
<polygon fill="#bfbfbf" stroke="black" points="0,-437.5 0,-456.5 69,-456.5 69,-437.5 0,-437.5"/>
<text text-anchor="middle" x="34.5" y="-444.5" font-family="Helvetica,sans-Serif" font-size="10.00">FifoWrFsm</text>
</a>
</g>
</g>
<!-- Node2 -->
<g id="node2" class="node">
<title>Node2</title>
<g id="a_node2"><a xlink:href="classFifoAsync.html" target="_top" xlink:title=" ">
<polygon fill="white" stroke="black" points="105,-646.5 105,-665.5 169,-665.5 169,-646.5 105,-646.5"/>
<text text-anchor="middle" x="137" y="-653.5" font-family="Helvetica,sans-Serif" font-size="10.00">FifoAsync</text>
</a>
</g>
</g>
<!-- Node1&#45;&gt;Node2 -->
<g id="edge1" class="edge">
<title>Node1&#45;&gt;Node2</title>
<path fill="none" stroke="midnightblue" d="M44.45,-465.62C65.17,-508.71 115.85,-614.1 131.39,-646.42"/>
<polygon fill="midnightblue" stroke="midnightblue" points="47.57,-464.02 40.08,-456.52 41.26,-467.05 47.57,-464.02"/>
</g>
<!-- Node252 -->
<g id="node47" class="node">
<title>Node252</title>
<g id="a_node47"><a xlink:href="classFifoSync.html" target="_top" xlink:title=" ">
<polygon fill="white" stroke="black" points="108,-304.5 108,-323.5 166,-323.5 166,-304.5 108,-304.5"/>
<text text-anchor="middle" x="137" y="-311.5" font-family="Helvetica,sans-Serif" font-size="10.00">FifoSync</text>
</a>
</g>
</g>
<!-- Node1&#45;&gt;Node252 -->
<g id="edge52" class="edge">
<title>Node1&#45;&gt;Node252</title>
<path fill="none" stroke="midnightblue" d="M48.94,-429.21C70.41,-400.8 111.71,-346.14 128.57,-323.84"/>
<polygon fill="midnightblue" stroke="midnightblue" points="45.96,-427.35 42.73,-437.43 51.55,-431.57 45.96,-427.35"/>
</g>
<!-- Node3 -->
<g id="node3" class="node">
<title>Node3</title>
<g id="a_node3"><a xlink:href="classAsyncGearbox.html" target="_top" xlink:title=" ">
<polygon fill="white" stroke="black" points="245.5,-551.5 245.5,-570.5 332.5,-570.5 332.5,-551.5 245.5,-551.5"/>
<text text-anchor="middle" x="289" y="-558.5" font-family="Helvetica,sans-Serif" font-size="10.00">AsyncGearbox</text>
</a>
</g>
</g>
<!-- Node2&#45;&gt;Node3 -->
<g id="edge2" class="edge">
<title>Node2&#45;&gt;Node3</title>
<path fill="none" stroke="midnightblue" d="M149.3,-637.57C161.03,-620.03 181.02,-594.26 205,-580 217.07,-572.82 231.61,-568.35 245.13,-565.57"/>
<polygon fill="midnightblue" stroke="midnightblue" points="146.12,-636.04 143.65,-646.34 152.01,-639.82 146.12,-636.04"/>
</g>
<!-- Node7 -->
<g id="node7" class="node">
<title>Node7</title>
<g id="a_node7"><a xlink:href="classAxiLiteAsync.html" target="_top" xlink:title=" ">
<polygon fill="white" stroke="black" points="249,-988.5 249,-1007.5 329,-1007.5 329,-988.5 249,-988.5"/>
<text text-anchor="middle" x="289" y="-995.5" font-family="Helvetica,sans-Serif" font-size="10.00">AxiLiteAsync</text>
</a>
</g>
</g>
<!-- Node2&#45;&gt;Node7 -->
<g id="edge6" class="edge">
<title>Node2&#45;&gt;Node7</title>
<path fill="none" stroke="midnightblue" d="M146.19,-674.68C173.87,-737.77 263.27,-941.62 283.78,-988.38"/>
<polygon fill="midnightblue" stroke="midnightblue" points="149.39,-673.26 142.17,-665.5 142.98,-676.07 149.39,-673.26"/>
</g>
<!-- Node99 -->
<g id="node25" class="node">
<title>Node99</title>
<g id="a_node25"><a xlink:href="classFifo.html" target="_top" xlink:title=" ">
<polygon fill="white" stroke="red" points="271.5,-323.5 271.5,-342.5 306.5,-342.5 306.5,-323.5 271.5,-323.5"/>
<text text-anchor="middle" x="289" y="-330.5" font-family="Helvetica,sans-Serif" font-size="10.00">Fifo</text>
</a>
</g>
</g>
<!-- Node2&#45;&gt;Node99 -->
<g id="edge26" class="edge">
<title>Node2&#45;&gt;Node99</title>
<path fill="none" stroke="midnightblue" d="M146.76,-637.14C174.95,-576.44 262.69,-387.5 283.53,-342.63"/>
<polygon fill="midnightblue" stroke="midnightblue" points="143.53,-635.79 142.49,-646.33 149.88,-638.74 143.53,-635.79"/>
</g>
<!-- Node196 -->
<g id="node41" class="node">
<title>Node196</title>
<g id="a_node41"><a xlink:href="classGearboxTb.html" target="_top" xlink:title=" ">
<polygon fill="white" stroke="black" points="254,-779.5 254,-798.5 324,-798.5 324,-779.5 254,-779.5"/>
<text text-anchor="middle" x="289" y="-786.5" font-family="Helvetica,sans-Serif" font-size="10.00">GearboxTb</text>
</a>
</g>
</g>
<!-- Node2&#45;&gt;Node196 -->
<g id="edge43" class="edge">
<title>Node2&#45;&gt;Node196</title>
<path fill="none" stroke="midnightblue" d="M144.01,-675.5C152.99,-701.26 172.43,-746.14 205,-770 219.07,-780.31 237.81,-785.15 253.91,-787.38"/>
<polygon fill="midnightblue" stroke="midnightblue" points="147.25,-674.15 140.79,-665.75 140.6,-676.34 147.25,-674.15"/>
</g>
<!-- Node197 -->
<g id="node42" class="node">
<title>Node197</title>
<g id="a_node42"><a xlink:href="classPgp3Gtp7RxGearbox.html" target="_top" xlink:title=" ">
<polygon fill="white" stroke="red" points="230,-741.5 230,-760.5 348,-760.5 348,-741.5 230,-741.5"/>
<text text-anchor="middle" x="289" y="-748.5" font-family="Helvetica,sans-Serif" font-size="10.00">Pgp3Gtp7RxGearbox</text>
</a>
</g>
</g>
<!-- Node2&#45;&gt;Node197 -->
<g id="edge44" class="edge">
<title>Node2&#45;&gt;Node197</title>
<path fill="none" stroke="midnightblue" d="M149.3,-674.43C161.03,-691.97 181.02,-717.74 205,-732 212.62,-736.53 221.23,-739.99 229.95,-742.62"/>
<polygon fill="midnightblue" stroke="midnightblue" points="152.01,-672.18 143.65,-665.66 146.12,-675.96 152.01,-672.18"/>
</g>
<!-- Node198 -->
<g id="node43" class="node">
<title>Node198</title>
<g id="a_node43"><a xlink:href="classPgp3Gtp7TxGearbox.html" target="_top" xlink:title=" ">
<polygon fill="white" stroke="red" points="230.5,-703.5 230.5,-722.5 347.5,-722.5 347.5,-703.5 230.5,-703.5"/>
<text text-anchor="middle" x="289" y="-710.5" font-family="Helvetica,sans-Serif" font-size="10.00">Pgp3Gtp7TxGearbox</text>
</a>
</g>
</g>
<!-- Node2&#45;&gt;Node198 -->
<g id="edge45" class="edge">
<title>Node2&#45;&gt;Node198</title>
<path fill="none" stroke="midnightblue" d="M164.37,-670.33C176.52,-676.58 191.26,-683.68 205,-689 219.27,-694.53 235.34,-699.46 249.52,-703.39"/>
<polygon fill="midnightblue" stroke="midnightblue" points="165.74,-667.09 155.25,-665.55 162.49,-673.29 165.74,-667.09"/>
</g>
<!-- Node199 -->
<g id="node44" class="node">
<title>Node199</title>
<g id="a_node44"><a xlink:href="classPgp3RxEb.html" target="_top" xlink:title=" ">
<polygon fill="white" stroke="red" points="448,-646.5 448,-665.5 513,-665.5 513,-646.5 448,-646.5"/>
<text text-anchor="middle" x="480.5" y="-653.5" font-family="Helvetica,sans-Serif" font-size="10.00">Pgp3RxEb</text>
</a>
</g>
</g>
<!-- Node2&#45;&gt;Node199 -->
<g id="edge46" class="edge">
<title>Node2&#45;&gt;Node199</title>
<path fill="none" stroke="midnightblue" d="M179.29,-656C248.41,-656 386.04,-656 447.99,-656"/>
<polygon fill="midnightblue" stroke="midnightblue" points="179.21,-652.5 169.21,-656 179.21,-659.5 179.21,-652.5"/>
</g>
<!-- Node202 -->
<g id="node45" class="node">
<title>Node202</title>
<g id="a_node45"><a xlink:href="classSynchronizerFifo.html" target="_top" xlink:title=" ">
<polygon fill="white" stroke="red" points="240,-627.5 240,-646.5 338,-646.5 338,-627.5 240,-627.5"/>
<text text-anchor="middle" x="289" y="-634.5" font-family="Helvetica,sans-Serif" font-size="10.00">SynchronizerFifo</text>
</a>
</g>
</g>
<!-- Node2&#45;&gt;Node202 -->
<g id="edge47" class="edge">
<title>Node2&#45;&gt;Node202</title>
<path fill="none" stroke="midnightblue" d="M179.1,-650.79C197.89,-648.41 220.26,-645.58 239.83,-643.1"/>
<polygon fill="midnightblue" stroke="midnightblue" points="178.56,-647.33 169.08,-652.06 179.44,-654.28 178.56,-647.33"/>
</g>
<!-- Node245 -->
<g id="node46" class="node">
<title>Node245</title>
<g id="a_node46"><a xlink:href="classSynchronizerOneShotCntVector.html" target="_top" xlink:title=" ">
<polygon fill="white" stroke="red" points="205,-589.5 205,-608.5 373,-608.5 373,-589.5 205,-589.5"/>
<text text-anchor="middle" x="289" y="-596.5" font-family="Helvetica,sans-Serif" font-size="10.00">SynchronizerOneShotCntVector</text>
</a>
</g>
</g>
<!-- Node2&#45;&gt;Node245 -->
<g id="edge51" class="edge">
<title>Node2&#45;&gt;Node245</title>
<path fill="none" stroke="midnightblue" d="M160.52,-641.04C173.15,-633.21 189.45,-624.04 205,-618 214.65,-614.25 225.22,-611.14 235.5,-608.58"/>
<polygon fill="midnightblue" stroke="midnightblue" points="158.6,-638.11 152.04,-646.43 162.35,-644.02 158.6,-638.11"/>
</g>
<!-- Node4 -->
<g id="node4" class="node">
<title>Node4</title>
<g id="a_node4"><a xlink:href="classClinkDataShift.html" target="_top" xlink:title=" ">
<polygon fill="white" stroke="red" points="437.5,-608.5 437.5,-627.5 523.5,-627.5 523.5,-608.5 437.5,-608.5"/>
<text text-anchor="middle" x="480.5" y="-615.5" font-family="Helvetica,sans-Serif" font-size="10.00">ClinkDataShift</text>
</a>
</g>
</g>
<!-- Node3&#45;&gt;Node4 -->
<g id="edge3" class="edge">
<title>Node3&#45;&gt;Node4</title>
<path fill="none" stroke="midnightblue" d="M342.85,-570.92C353,-573.44 363.44,-576.45 373,-580 389.96,-586.29 392.16,-592.38 409,-599 418.2,-602.62 428.34,-605.79 437.99,-608.46"/>
<polygon fill="midnightblue" stroke="midnightblue" points="343.38,-567.45 332.85,-568.58 341.78,-574.27 343.38,-567.45"/>
</g>
<!-- Node5 -->
<g id="node5" class="node">
<title>Node5</title>
<g id="a_node5"><a xlink:href="classClinkData.html" target="_top" xlink:title=" ">
<polygon fill="white" stroke="black" points="591.5,-608.5 591.5,-627.5 656.5,-627.5 656.5,-608.5 591.5,-608.5"/>
<text text-anchor="middle" x="624" y="-615.5" font-family="Helvetica,sans-Serif" font-size="10.00">ClinkData</text>
</a>
</g>
</g>
<!-- Node4&#45;&gt;Node5 -->
<g id="edge4" class="edge">
<title>Node4&#45;&gt;Node5</title>
<path fill="none" stroke="midnightblue" d="M533.74,-618C553.02,-618 574.27,-618 591.2,-618"/>
<polygon fill="midnightblue" stroke="midnightblue" points="533.57,-614.5 523.57,-618 533.57,-621.5 533.57,-614.5"/>
</g>
<!-- Node6 -->
<g id="node6" class="node">
<title>Node6</title>
<g id="a_node6"><a xlink:href="classClinkTop.html" target="_top" xlink:title=" ">
<polygon fill="white" stroke="red" points="696,-950.5 696,-969.5 754,-969.5 754,-950.5 696,-950.5"/>
<text text-anchor="middle" x="725" y="-957.5" font-family="Helvetica,sans-Serif" font-size="10.00">ClinkTop</text>
</a>
</g>
</g>
<!-- Node5&#45;&gt;Node6 -->
<g id="edge5" class="edge">
<title>Node5&#45;&gt;Node6</title>
<path fill="none" stroke="midnightblue" d="M630.64,-637.47C649.16,-701.45 707.74,-903.81 721.22,-950.38"/>
<polygon fill="midnightblue" stroke="midnightblue" points="633.89,-636.14 627.75,-627.5 627.17,-638.08 633.89,-636.14"/>
</g>
<!-- Node7&#45;&gt;Node6 -->
<g id="edge12" class="edge">
<title>Node7&#45;&gt;Node6</title>
<path fill="none" stroke="midnightblue" d="M291.21,-1017.97C295.68,-1072.02 316.29,-1221.24 409,-1283 461.89,-1318.23 497.51,-1315.72 552,-1283 674.82,-1209.25 714.72,-1014.81 722.49,-969.52"/>
<polygon fill="midnightblue" stroke="midnightblue" points="294.68,-1017.4 290.46,-1007.68 287.69,-1017.91 294.68,-1017.4"/>
</g>
<!-- Node8 -->
<g id="node8" class="node">
<title>Node8</title>
<g id="a_node8"><a xlink:href="classAxiLiteAsyncTb.html" target="_top" xlink:title=" ">
<polygon fill="white" stroke="red" points="434.5,-1254.5 434.5,-1273.5 526.5,-1273.5 526.5,-1254.5 434.5,-1254.5"/>
<text text-anchor="middle" x="480.5" y="-1261.5" font-family="Helvetica,sans-Serif" font-size="10.00">AxiLiteAsyncTb</text>
</a>
</g>
</g>
<!-- Node7&#45;&gt;Node8 -->
<g id="edge7" class="edge">
<title>Node7&#45;&gt;Node8</title>
<path fill="none" stroke="midnightblue" d="M294.27,-1017.84C305.14,-1063.68 338.17,-1177.76 409,-1240 416.19,-1246.32 425.11,-1250.99 434.16,-1254.43"/>
<polygon fill="midnightblue" stroke="midnightblue" points="297.65,-1016.94 292.02,-1007.96 290.82,-1018.49 297.65,-1016.94"/>
</g>
<!-- Node9 -->
<g id="node9" class="node">
<title>Node9</title>
<g id="a_node9"><a xlink:href="classAxiLiteToDrp.html" target="_top" xlink:title=" ">
<polygon fill="white" stroke="red" points="441.5,-722.5 441.5,-741.5 519.5,-741.5 519.5,-722.5 441.5,-722.5"/>
<text text-anchor="middle" x="480.5" y="-729.5" font-family="Helvetica,sans-Serif" font-size="10.00">AxiLiteToDrp</text>
</a>
</g>
</g>
<!-- Node7&#45;&gt;Node9 -->
<g id="edge8" class="edge">
<title>Node7&#45;&gt;Node9</title>
<path fill="none" stroke="midnightblue" d="M297.98,-979.2C321.43,-924.29 389.68,-767.02 409,-751 418.07,-743.47 429.86,-738.91 441.19,-736.14"/>
<polygon fill="midnightblue" stroke="midnightblue" points="294.73,-977.9 294.03,-988.48 301.17,-980.65 294.73,-977.9"/>
</g>
<!-- Node18 -->
<g id="node10" class="node">
<title>Node18</title>
<g id="a_node10"><a xlink:href="classGigEthGtx7.html" target="_top" xlink:title=" ">
<polygon fill="white" stroke="red" points="588,-969.5 588,-988.5 660,-988.5 660,-969.5 588,-969.5"/>
<text text-anchor="middle" x="624" y="-976.5" font-family="Helvetica,sans-Serif" font-size="10.00">GigEthGtx7</text>
</a>
</g>
</g>
<!-- Node7&#45;&gt;Node18 -->
<g id="edge17" class="edge">
<title>Node7&#45;&gt;Node18</title>
<path fill="none" stroke="midnightblue" d="M294.29,-1017.85C304.9,-1061.47 336.94,-1165.11 409,-1207 463.95,-1238.94 500.81,-1244.67 552,-1207 625.12,-1153.18 625.1,-1024.59 623.56,-988.54"/>
<polygon fill="midnightblue" stroke="midnightblue" points="297.65,-1016.86 291.99,-1007.9 290.83,-1018.43 297.65,-1016.86"/>
</g>
<!-- Node77 -->
<g id="node11" class="node">
<title>Node77</title>
<g id="a_node11"><a xlink:href="classAxiRateGen.html" target="_top" xlink:title=" ">
<polygon fill="white" stroke="black" points="443.5,-1178.5 443.5,-1197.5 517.5,-1197.5 517.5,-1178.5 443.5,-1178.5"/>
<text text-anchor="middle" x="480.5" y="-1185.5" font-family="Helvetica,sans-Serif" font-size="10.00">AxiRateGen</text>
</a>
</g>
</g>
<!-- Node7&#45;&gt;Node77 -->
<g id="edge10" class="edge">
<title>Node7&#45;&gt;Node77</title>
<path fill="none" stroke="midnightblue" d="M297.91,-1017.16C313.61,-1052.74 352.16,-1129.02 409,-1169 419.06,-1176.07 431.61,-1180.52 443.33,-1183.3"/>
<polygon fill="midnightblue" stroke="midnightblue" points="300.93,-1015.32 293.78,-1007.51 294.5,-1018.08 300.93,-1015.32"/>
</g>
<!-- Node78 -->
<g id="node12" class="node">
<title>Node78</title>
<g id="a_node12"><a xlink:href="classAxiStreamBatcherAxil.html" target="_top" xlink:title=" ">
<polygon fill="white" stroke="black" points="418.5,-1140.5 418.5,-1159.5 542.5,-1159.5 542.5,-1140.5 418.5,-1140.5"/>
<text text-anchor="middle" x="480.5" y="-1147.5" font-family="Helvetica,sans-Serif" font-size="10.00">AxiStreamBatcherAxil</text>
</a>
</g>
</g>
<!-- Node7&#45;&gt;Node78 -->
<g id="edge11" class="edge">
<title>Node7&#45;&gt;Node78</title>
<path fill="none" stroke="midnightblue" d="M301.37,-1016.46C320.14,-1045.37 360.41,-1101.07 409,-1131 415.26,-1134.86 422.3,-1137.94 429.45,-1140.4"/>
<polygon fill="midnightblue" stroke="midnightblue" points="304.16,-1014.33 295.85,-1007.77 298.25,-1018.08 304.16,-1014.33"/>
</g>
<!-- Node79 -->
<g id="node13" class="node">
<title>Node79</title>
<g id="a_node13"><a xlink:href="classFirFilterSingleChannel.html" target="_top" xlink:title=" ">
<polygon fill="white" stroke="red" points="419,-1102.5 419,-1121.5 542,-1121.5 542,-1102.5 419,-1102.5"/>
<text text-anchor="middle" x="480.5" y="-1109.5" font-family="Helvetica,sans-Serif" font-size="10.00">FirFilterSingleChannel</text>
</a>
</g>
</g>
<!-- Node7&#45;&gt;Node79 -->
<g id="edge13" class="edge">
<title>Node7&#45;&gt;Node79</title>
<path fill="none" stroke="midnightblue" d="M306.3,-1014.72C327.88,-1035.94 368.04,-1072.27 409,-1093 416.58,-1096.83 425.02,-1099.96 433.35,-1102.49"/>
<polygon fill="midnightblue" stroke="midnightblue" points="308.76,-1012.24 299.22,-1007.65 303.81,-1017.19 308.76,-1012.24"/>
</g>
<!-- Node81 -->
<g id="node14" class="node">
<title>Node81</title>
<g id="a_node14"><a xlink:href="classGigEthGth7.html" target="_top" xlink:title=" ">
<polygon fill="white" stroke="red" points="444.5,-1064.5 444.5,-1083.5 516.5,-1083.5 516.5,-1064.5 444.5,-1064.5"/>
<text text-anchor="middle" x="480.5" y="-1071.5" font-family="Helvetica,sans-Serif" font-size="10.00">GigEthGth7</text>
</a>
</g>
</g>
<!-- Node7&#45;&gt;Node81 -->
<g id="edge14" class="edge">
<title>Node7&#45;&gt;Node81</title>
<path fill="none" stroke="midnightblue" d="M316.36,-1012.36C340.08,-1024.85 376.15,-1042.82 409,-1055 420.29,-1059.19 432.91,-1062.88 444.32,-1065.87"/>
<polygon fill="midnightblue" stroke="midnightblue" points="317.77,-1009.14 307.3,-1007.53 314.48,-1015.32 317.77,-1009.14"/>
</g>
<!-- Node83 -->
<g id="node15" class="node">
<title>Node83</title>
<g id="a_node15"><a xlink:href="classGigEthGthUltraScale.html" target="_top" xlink:title=" ">
<polygon fill="white" stroke="red" points="422.5,-1026.5 422.5,-1045.5 538.5,-1045.5 538.5,-1026.5 422.5,-1026.5"/>
<text text-anchor="middle" x="480.5" y="-1033.5" font-family="Helvetica,sans-Serif" font-size="10.00">GigEthGthUltraScale</text>
</a>
</g>
</g>
<!-- Node7&#45;&gt;Node83 -->
<g id="edge15" class="edge">
<title>Node7&#45;&gt;Node83</title>
<path fill="none" stroke="midnightblue" d="M339.43,-1007.91C367.96,-1013.63 403.67,-1020.79 431.89,-1026.45"/>
<polygon fill="midnightblue" stroke="midnightblue" points="339.76,-1004.41 329.26,-1005.87 338.38,-1011.27 339.76,-1004.41"/>
</g>
<!-- Node84 -->
<g id="node16" class="node">
<title>Node84</title>
<g id="a_node16"><a xlink:href="classGigEthGtp7.html" target="_top" xlink:title=" ">
<polygon fill="white" stroke="red" points="444.5,-988.5 444.5,-1007.5 516.5,-1007.5 516.5,-988.5 444.5,-988.5"/>
<text text-anchor="middle" x="480.5" y="-995.5" font-family="Helvetica,sans-Serif" font-size="10.00">GigEthGtp7</text>
</a>
</g>
</g>
<!-- Node7&#45;&gt;Node84 -->
<g id="edge16" class="edge">
<title>Node7&#45;&gt;Node84</title>
<path fill="none" stroke="midnightblue" d="M339.6,-998C372.54,-998 414.98,-998 444.43,-998"/>
<polygon fill="midnightblue" stroke="midnightblue" points="339.26,-994.5 329.26,-998 339.26,-1001.5 339.26,-994.5"/>
</g>
<!-- Node85 -->
<g id="node17" class="node">
<title>Node85</title>
<g id="a_node17"><a xlink:href="classGigEthGtyUltraScale.html" target="_top" xlink:title=" ">
<polygon fill="white" stroke="red" points="422.5,-950.5 422.5,-969.5 538.5,-969.5 538.5,-950.5 422.5,-950.5"/>
<text text-anchor="middle" x="480.5" y="-957.5" font-family="Helvetica,sans-Serif" font-size="10.00">GigEthGtyUltraScale</text>
</a>
</g>
</g>
<!-- Node7&#45;&gt;Node85 -->
<g id="edge18" class="edge">
<title>Node7&#45;&gt;Node85</title>
<path fill="none" stroke="midnightblue" d="M339.43,-988.09C367.96,-982.37 403.67,-975.21 431.89,-969.55"/>
<polygon fill="midnightblue" stroke="midnightblue" points="338.38,-984.73 329.26,-990.13 339.76,-991.59 338.38,-984.73"/>
</g>
<!-- Node86 -->
<g id="node18" class="node">
<title>Node86</title>
<g id="a_node18"><a xlink:href="classGigEthLvdsUltraScale.html" target="_top" xlink:title=" ">
<polygon fill="white" stroke="red" points="419.5,-912.5 419.5,-931.5 541.5,-931.5 541.5,-912.5 419.5,-912.5"/>
<text text-anchor="middle" x="480.5" y="-919.5" font-family="Helvetica,sans-Serif" font-size="10.00">GigEthLvdsUltraScale</text>
</a>
</g>
</g>
<!-- Node7&#45;&gt;Node86 -->
<g id="edge19" class="edge">
<title>Node7&#45;&gt;Node86</title>
<path fill="none" stroke="midnightblue" d="M316.36,-983.64C340.08,-971.15 376.15,-953.18 409,-941 418.51,-937.48 428.96,-934.3 438.83,-931.6"/>
<polygon fill="midnightblue" stroke="midnightblue" points="314.48,-980.68 307.3,-988.47 317.77,-986.86 314.48,-980.68"/>
</g>
<!-- Node90 -->
<g id="node19" class="node">
<title>Node90</title>
<g id="a_node19"><a xlink:href="classSsiSem.html" target="_top" xlink:title=" ">
<polygon fill="white" stroke="red" points="454,-684.5 454,-703.5 507,-703.5 507,-684.5 454,-684.5"/>
<text text-anchor="middle" x="480.5" y="-691.5" font-family="Helvetica,sans-Serif" font-size="10.00">SsiSem</text>
</a>
</g>
</g>
<!-- Node7&#45;&gt;Node90 -->
<g id="edge20" class="edge">
<title>Node7&#45;&gt;Node90</title>
<path fill="none" stroke="midnightblue" d="M298.7,-978.93C314.18,-944.85 347.27,-871.14 373,-808 390.04,-766.19 375.53,-743.31 409,-713 421.21,-701.94 439.2,-697.21 453.95,-695.24"/>
<polygon fill="midnightblue" stroke="midnightblue" points="295.45,-977.63 294.49,-988.18 301.82,-980.53 295.45,-977.63"/>
</g>
<!-- Node91 -->
<g id="node20" class="node">
<title>Node91</title>
<g id="a_node20"><a xlink:href="classSspLowSpeedDecoderReg.html" target="_top" xlink:title=" ">
<polygon fill="white" stroke="red" points="409,-874.5 409,-893.5 552,-893.5 552,-874.5 409,-874.5"/>
<text text-anchor="middle" x="480.5" y="-881.5" font-family="Helvetica,sans-Serif" font-size="10.00">SspLowSpeedDecoderReg</text>
</a>
</g>
</g>
<!-- Node7&#45;&gt;Node91 -->
<g id="edge21" class="edge">
<title>Node7&#45;&gt;Node91</title>
<path fill="none" stroke="midnightblue" d="M306.3,-981.28C327.88,-960.06 368.04,-923.73 409,-903 416.58,-899.17 425.02,-896.04 433.35,-893.51"/>
<polygon fill="midnightblue" stroke="midnightblue" points="303.81,-978.81 299.22,-988.35 308.76,-983.76 303.81,-978.81"/>
</g>
<!-- Node95 -->
<g id="node21" class="node">
<title>Node95</title>
<g id="a_node21"><a xlink:href="classTenGigEthGth7.html" target="_top" xlink:title=" ">
<polygon fill="white" stroke="red" points="436,-836.5 436,-855.5 525,-855.5 525,-836.5 436,-836.5"/>
<text text-anchor="middle" x="480.5" y="-843.5" font-family="Helvetica,sans-Serif" font-size="10.00">TenGigEthGth7</text>
</a>
</g>
</g>
<!-- Node7&#45;&gt;Node95 -->
<g id="edge22" class="edge">
<title>Node7&#45;&gt;Node95</title>
<path fill="none" stroke="midnightblue" d="M301.37,-979.54C320.14,-950.63 360.41,-894.93 409,-865 417.09,-860.01 426.5,-856.32 435.75,-853.59"/>
<polygon fill="midnightblue" stroke="midnightblue" points="298.25,-977.92 295.85,-988.23 304.16,-981.67 298.25,-977.92"/>
</g>
<!-- Node96 -->
<g id="node22" class="node">
<title>Node96</title>
<g id="a_node22"><a xlink:href="classTenGigEthGthUltraScale.html" target="_top" xlink:title=" ">
<polygon fill="white" stroke="red" points="414,-798.5 414,-817.5 547,-817.5 547,-798.5 414,-798.5"/>
<text text-anchor="middle" x="480.5" y="-805.5" font-family="Helvetica,sans-Serif" font-size="10.00">TenGigEthGthUltraScale</text>
</a>
</g>
</g>
<!-- Node7&#45;&gt;Node96 -->
<g id="edge23" class="edge">
<title>Node7&#45;&gt;Node96</title>
<path fill="none" stroke="midnightblue" d="M297.91,-978.84C313.61,-943.26 352.16,-866.98 409,-827 414.5,-823.13 420.74,-820.06 427.18,-817.6"/>
<polygon fill="midnightblue" stroke="midnightblue" points="294.5,-977.92 293.78,-988.49 300.93,-980.68 294.5,-977.92"/>
</g>
<!-- Node97 -->
<g id="node23" class="node">
<title>Node97</title>
<g id="a_node23"><a xlink:href="classTenGigEthGtx7.html" target="_top" xlink:title=" ">
<polygon fill="white" stroke="red" points="436,-760.5 436,-779.5 525,-779.5 525,-760.5 436,-760.5"/>
<text text-anchor="middle" x="480.5" y="-767.5" font-family="Helvetica,sans-Serif" font-size="10.00">TenGigEthGtx7</text>
</a>
</g>
</g>
<!-- Node7&#45;&gt;Node97 -->
<g id="edge24" class="edge">
<title>Node7&#45;&gt;Node97</title>
<path fill="none" stroke="midnightblue" d="M295.43,-978.64C308.08,-937.22 343.51,-839.64 409,-789 416.82,-782.95 426.42,-778.83 435.99,-776.01"/>
<polygon fill="midnightblue" stroke="midnightblue" points="292.05,-977.75 292.58,-988.33 298.76,-979.72 292.05,-977.75"/>
</g>
<!-- Node98 -->
<g id="node24" class="node">
<title>Node98</title>
<g id="a_node24"><a xlink:href="classTenGigEthGtyUltraScale.html" target="_top" xlink:title=" ">
<polygon fill="white" stroke="red" points="414,-1330.5 414,-1349.5 547,-1349.5 547,-1330.5 414,-1330.5"/>
<text text-anchor="middle" x="480.5" y="-1337.5" font-family="Helvetica,sans-Serif" font-size="10.00">TenGigEthGtyUltraScale</text>
</a>
</g>
</g>
<!-- Node7&#45;&gt;Node98 -->
<g id="edge25" class="edge">
<title>Node7&#45;&gt;Node98</title>
<path fill="none" stroke="midnightblue" d="M291.65,-1017.81C297.3,-1073.06 320.73,-1230.34 409,-1316 415.49,-1322.3 423.71,-1326.95 432.22,-1330.38"/>
<polygon fill="midnightblue" stroke="midnightblue" points="295.11,-1017.27 290.7,-1007.64 288.14,-1017.92 295.11,-1017.27"/>
</g>
<!-- Node9&#45;&gt;Node18 -->
<g id="edge9" class="edge">
<title>Node9&#45;&gt;Node18</title>
<path fill="none" stroke="midnightblue" d="M529.57,-737.99C537.84,-740.85 545.76,-745 552,-751 616.83,-813.37 622.77,-933.83 623.07,-969.08"/>
<polygon fill="midnightblue" stroke="midnightblue" points="530.36,-734.57 519.78,-735.19 528.43,-741.3 530.36,-734.57"/>
</g>
<!-- Node99&#45;&gt;Node5 -->
<g id="edge29" class="edge">
<title>Node99&#45;&gt;Node5</title>
<path fill="none" stroke="midnightblue" d="M316.68,-341.93C340.72,-349.89 377.09,-361.67 409,-371 472.12,-389.45 503.95,-364.1 552,-409 612.48,-465.51 621.45,-575.45 622.77,-608.43"/>
<polygon fill="midnightblue" stroke="midnightblue" points="317.46,-338.51 306.87,-338.68 315.25,-345.15 317.46,-338.51"/>
</g>
<!-- Node100 -->
<g id="node26" class="node">
<title>Node100</title>
<g id="a_node26"><a xlink:href="classAxiStreamDmaV2Desc.html" target="_top" xlink:title=" ">
<polygon fill="white" stroke="red" points="416.5,-304.5 416.5,-323.5 544.5,-323.5 544.5,-304.5 416.5,-304.5"/>
<text text-anchor="middle" x="480.5" y="-311.5" font-family="Helvetica,sans-Serif" font-size="10.00">AxiStreamDmaV2Desc</text>
</a>
</g>
</g>
<!-- Node99&#45;&gt;Node100 -->
<g id="edge27" class="edge">
<title>Node99&#45;&gt;Node100</title>
<path fill="none" stroke="midnightblue" d="M316.93,-330.3C342.67,-327.72 382.44,-323.73 416.2,-320.35"/>
<polygon fill="midnightblue" stroke="midnightblue" points="316.42,-326.83 306.82,-331.31 317.12,-333.8 316.42,-326.83"/>
</g>
<!-- Node102 -->
<g id="node27" class="node">
<title>Node102</title>
<g id="a_node27"><a xlink:href="classAxiStreamScatterGather.html" target="_top" xlink:title=" ">
<polygon fill="white" stroke="black" points="413,-266.5 413,-285.5 548,-285.5 548,-266.5 413,-266.5"/>
<text text-anchor="middle" x="480.5" y="-273.5" font-family="Helvetica,sans-Serif" font-size="10.00">AxiStreamScatterGather</text>
</a>
</g>
</g>
<!-- Node99&#45;&gt;Node102 -->
<g id="edge28" class="edge">
<title>Node99&#45;&gt;Node102</title>
<path fill="none" stroke="midnightblue" d="M316.65,-328.73C333.19,-325.63 354.7,-320.79 373,-314 389.96,-307.71 392.16,-301.62 409,-295 418.2,-291.38 428.34,-288.21 437.99,-285.54"/>
<polygon fill="midnightblue" stroke="midnightblue" points="315.82,-325.32 306.59,-330.51 317.05,-332.21 315.82,-325.32"/>
</g>
<!-- Node103 -->
<g id="node28" class="node">
<title>Node103</title>
<g id="a_node28"><a xlink:href="classEthMacRxImportXgmii.html" target="_top" xlink:title=" ">
<polygon fill="white" stroke="red" points="417.5,-228.5 417.5,-247.5 543.5,-247.5 543.5,-228.5 417.5,-228.5"/>
<text text-anchor="middle" x="480.5" y="-235.5" font-family="Helvetica,sans-Serif" font-size="10.00">EthMacRxImportXgmii</text>
</a>
</g>
</g>
<!-- Node99&#45;&gt;Node103 -->
<g id="edge30" class="edge">
<title>Node99&#45;&gt;Node103</title>
<path fill="none" stroke="midnightblue" d="M316.87,-332.04C334.26,-330.24 356.62,-325.6 373,-314 397.45,-296.68 384.88,-274.78 409,-257 414.31,-253.09 420.36,-249.98 426.65,-247.51"/>
<polygon fill="midnightblue" stroke="midnightblue" points="316.48,-328.56 306.79,-332.83 317.03,-335.54 316.48,-328.56"/>
</g>
<!-- Node119 -->
<g id="node29" class="node">
<title>Node119</title>
<g id="a_node29"><a xlink:href="classEthMacTxCsum.html" target="_top" xlink:title=" ">
<polygon fill="white" stroke="red" points="434.5,-190.5 434.5,-209.5 526.5,-209.5 526.5,-190.5 434.5,-190.5"/>
<text text-anchor="middle" x="480.5" y="-197.5" font-family="Helvetica,sans-Serif" font-size="10.00">EthMacTxCsum</text>
</a>
</g>
</g>
<!-- Node99&#45;&gt;Node119 -->
<g id="edge31" class="edge">
<title>Node99&#45;&gt;Node119</title>
<path fill="none" stroke="midnightblue" d="M316.8,-333.16C334.66,-331.88 357.61,-327.41 373,-314 407.04,-284.34 375.53,-249.31 409,-219 416.05,-212.62 425.02,-208.34 434.18,-205.49"/>
<polygon fill="midnightblue" stroke="midnightblue" points="316.55,-329.66 306.7,-333.58 316.84,-336.66 316.55,-329.66"/>
</g>
<!-- Node121 -->
<g id="node30" class="node">
<title>Node121</title>
<g id="a_node30"><a xlink:href="classEthMacTxExportXgmii.html" target="_top" xlink:title=" ">
<polygon fill="white" stroke="red" points="418,-152.5 418,-171.5 543,-171.5 543,-152.5 418,-152.5"/>
<text text-anchor="middle" x="480.5" y="-159.5" font-family="Helvetica,sans-Serif" font-size="10.00">EthMacTxExportXgmii</text>
</a>
</g>
</g>
<!-- Node99&#45;&gt;Node121 -->
<g id="edge32" class="edge">
<title>Node99&#45;&gt;Node121</title>
<path fill="none" stroke="midnightblue" d="M316.9,-333.64C335.01,-332.62 358.19,-328.24 373,-314 417.14,-271.56 365.67,-224.28 409,-181 412.86,-177.15 417.41,-174.05 422.31,-171.57"/>
<polygon fill="midnightblue" stroke="midnightblue" points="316.57,-330.15 306.67,-333.91 316.76,-337.15 316.57,-330.15"/>
</g>
<!-- Node123 -->
<g id="node31" class="node">
<title>Node123</title>
<g id="a_node31"><a xlink:href="classFifoCascade.html" target="_top" xlink:title=" ">
<polygon fill="white" stroke="red" points="442.5,-114.5 442.5,-133.5 518.5,-133.5 518.5,-114.5 442.5,-114.5"/>
<text text-anchor="middle" x="480.5" y="-121.5" font-family="Helvetica,sans-Serif" font-size="10.00">FifoCascade</text>
</a>
</g>
</g>
<!-- Node99&#45;&gt;Node123 -->
<g id="edge33" class="edge">
<title>Node99&#45;&gt;Node123</title>
<path fill="none" stroke="midnightblue" d="M316.58,-333.93C334.89,-333.09 358.45,-328.81 373,-314 427.43,-258.6 355.63,-199.43 409,-143 417.62,-133.88 430.12,-128.98 442.21,-126.39"/>
<polygon fill="midnightblue" stroke="midnightblue" points="316.45,-330.43 306.51,-334.09 316.56,-337.43 316.45,-330.43"/>
</g>
<!-- Node181 -->
<g id="node32" class="node">
<title>Node181</title>
<g id="a_node32"><a xlink:href="classFifoTbSubModule.html" target="_top" xlink:title=" ">
<polygon fill="white" stroke="red" points="430,-76.5 430,-95.5 531,-95.5 531,-76.5 430,-76.5"/>
<text text-anchor="middle" x="480.5" y="-83.5" font-family="Helvetica,sans-Serif" font-size="10.00">FifoTbSubModule</text>
</a>
</g>
</g>
<!-- Node99&#45;&gt;Node181 -->
<g id="edge34" class="edge">
<title>Node99&#45;&gt;Node181</title>
<path fill="none" stroke="midnightblue" d="M316.74,-334.1C335.13,-333.33 358.73,-329.07 373,-314 437.81,-245.56 345.51,-174.67 409,-105 414.64,-98.82 422.05,-94.56 429.95,-91.64"/>
<polygon fill="midnightblue" stroke="midnightblue" points="316.59,-330.6 306.63,-334.2 316.66,-337.6 316.59,-330.6"/>
</g>
<!-- Node183 -->
<g id="node33" class="node">
<title>Node183</title>
<g id="a_node33"><a xlink:href="classFwftCntTbSubModule.html" target="_top" xlink:title=" ">
<polygon fill="white" stroke="red" points="420.5,-38.5 420.5,-57.5 540.5,-57.5 540.5,-38.5 420.5,-38.5"/>
<text text-anchor="middle" x="480.5" y="-45.5" font-family="Helvetica,sans-Serif" font-size="10.00">FwftCntTbSubModule</text>
</a>
</g>
</g>
<!-- Node99&#45;&gt;Node183 -->
<g id="edge35" class="edge">
<title>Node99&#45;&gt;Node183</title>
<path fill="none" stroke="midnightblue" d="M316.86,-334.21C335.31,-333.49 358.92,-329.26 373,-314 448.23,-232.47 335.34,-149.95 409,-67 412.37,-63.21 416.4,-60.14 420.82,-57.66"/>
<polygon fill="midnightblue" stroke="midnightblue" points="316.69,-330.71 306.71,-334.28 316.73,-337.71 316.69,-330.71"/>
</g>
<!-- Node185 -->
<g id="node34" class="node">
<title>Node185</title>
<g id="a_node34"><a xlink:href="classiq16bTo32b.html" target="_top" xlink:title=" ">
<polygon fill="white" stroke="black" points="444.5,-0.5 444.5,-19.5 516.5,-19.5 516.5,-0.5 444.5,-0.5"/>
<text text-anchor="middle" x="480.5" y="-7.5" font-family="Helvetica,sans-Serif" font-size="10.00">iq16bTo32b</text>
</a>
</g>
</g>
<!-- Node99&#45;&gt;Node185 -->
<g id="edge36" class="edge">
<title>Node99&#45;&gt;Node185</title>
<path fill="none" stroke="midnightblue" d="M316.95,-334.29C335.44,-333.61 359.07,-329.39 373,-314 458.68,-219.35 325.14,-125.27 409,-29 417.83,-18.87 431.43,-13.87 444.34,-11.49"/>
<polygon fill="midnightblue" stroke="midnightblue" points="316.76,-330.79 306.77,-334.33 316.79,-337.79 316.76,-330.79"/>
</g>
<!-- Node186 -->
<g id="node35" class="node">
<title>Node186</title>
<g id="a_node35"><a xlink:href="classiq32bTo16b.html" target="_top" xlink:title=" ">
<polygon fill="white" stroke="black" points="444.5,-570.5 444.5,-589.5 516.5,-589.5 516.5,-570.5 444.5,-570.5"/>
<text text-anchor="middle" x="480.5" y="-577.5" font-family="Helvetica,sans-Serif" font-size="10.00">iq32bTo16b</text>
</a>
</g>
</g>
<!-- Node99&#45;&gt;Node186 -->
<g id="edge37" class="edge">
<title>Node99&#45;&gt;Node186</title>
<path fill="none" stroke="midnightblue" d="M294.43,-352.29C305.58,-396.34 339.03,-504.82 409,-561 418.98,-569.02 432.06,-573.66 444.24,-576.35"/>
<polygon fill="midnightblue" stroke="midnightblue" points="297.83,-351.44 292.07,-342.55 291.03,-353.09 297.83,-351.44"/>
</g>
<!-- Node187 -->
<g id="node36" class="node">
<title>Node187</title>
<g id="a_node36"><a xlink:href="classJesd16bTo32b.html" target="_top" xlink:title=" ">
<polygon fill="white" stroke="black" points="439,-532.5 439,-551.5 522,-551.5 522,-532.5 439,-532.5"/>
<text text-anchor="middle" x="480.5" y="-539.5" font-family="Helvetica,sans-Serif" font-size="10.00">Jesd16bTo32b</text>
</a>
</g>
</g>
<!-- Node99&#45;&gt;Node187 -->
<g id="edge38" class="edge">
<title>Node99&#45;&gt;Node187</title>
<path fill="none" stroke="midnightblue" d="M296.53,-352.17C310.65,-390.7 347.81,-477.7 409,-523 417.66,-529.41 428.34,-533.66 438.75,-536.47"/>
<polygon fill="midnightblue" stroke="midnightblue" points="299.8,-350.92 293.15,-342.66 293.2,-353.26 299.8,-350.92"/>
</g>
<!-- Node188 -->
<g id="node37" class="node">
<title>Node188</title>
<g id="a_node37"><a xlink:href="classJesd32bTo16b.html" target="_top" xlink:title=" ">
<polygon fill="white" stroke="black" points="439,-494.5 439,-513.5 522,-513.5 522,-494.5 439,-494.5"/>
<text text-anchor="middle" x="480.5" y="-501.5" font-family="Helvetica,sans-Serif" font-size="10.00">Jesd32bTo16b</text>
</a>
</g>
</g>
<!-- Node99&#45;&gt;Node188 -->
<g id="edge39" class="edge">
<title>Node99&#45;&gt;Node188</title>
<path fill="none" stroke="midnightblue" d="M299.45,-351.81C316.67,-384.13 356.3,-450.1 409,-485 417.88,-490.88 428.52,-494.95 438.81,-497.76"/>
<polygon fill="midnightblue" stroke="midnightblue" points="302.37,-349.84 294.66,-342.58 296.16,-353.07 302.37,-349.84"/>
</g>
<!-- Node189 -->
<g id="node38" class="node">
<title>Node189</title>
<g id="a_node38"><a xlink:href="classJesd32bTo64b.html" target="_top" xlink:title=" ">
<polygon fill="white" stroke="black" points="439,-456.5 439,-475.5 522,-475.5 522,-456.5 439,-456.5"/>
<text text-anchor="middle" x="480.5" y="-463.5" font-family="Helvetica,sans-Serif" font-size="10.00">Jesd32bTo64b</text>
</a>
</g>
</g>
<!-- Node99&#45;&gt;Node189 -->
<g id="edge40" class="edge">
<title>Node99&#45;&gt;Node189</title>
<path fill="none" stroke="midnightblue" d="M303.44,-350.57C323.63,-375.72 364.2,-421.73 409,-447 418.16,-452.17 428.8,-455.98 438.98,-458.78"/>
<polygon fill="midnightblue" stroke="midnightblue" points="306.12,-348.31 297.18,-342.61 300.62,-352.64 306.12,-348.31"/>
</g>
<!-- Node190 -->
<g id="node39" class="node">
<title>Node190</title>
<g id="a_node39"><a xlink:href="classJesd64bTo32b.html" target="_top" xlink:title=" ">
<polygon fill="white" stroke="black" points="439,-418.5 439,-437.5 522,-437.5 522,-418.5 439,-418.5"/>
<text text-anchor="middle" x="480.5" y="-425.5" font-family="Helvetica,sans-Serif" font-size="10.00">Jesd64bTo32b</text>
</a>
</g>
</g>
<!-- Node99&#45;&gt;Node190 -->
<g id="edge41" class="edge">
<title>Node99&#45;&gt;Node190</title>
<path fill="none" stroke="midnightblue" d="M312.23,-348.2C335.58,-363.69 373.72,-387.69 409,-404 420.97,-409.53 434.59,-414.47 446.65,-418.4"/>
<polygon fill="midnightblue" stroke="midnightblue" points="314.02,-345.18 303.76,-342.52 310.12,-351 314.02,-345.18"/>
</g>
<!-- Node191 -->
<g id="node40" class="node">
<title>Node191</title>
<g id="a_node40"><a xlink:href="classSlvDelayFifo.html" target="_top" xlink:title=" ">
<polygon fill="white" stroke="black" points="441.5,-342.5 441.5,-361.5 519.5,-361.5 519.5,-342.5 441.5,-342.5"/>
<text text-anchor="middle" x="480.5" y="-349.5" font-family="Helvetica,sans-Serif" font-size="10.00">SlvDelayFifo</text>
</a>
</g>
</g>
<!-- Node99&#45;&gt;Node191 -->
<g id="edge42" class="edge">
<title>Node99&#45;&gt;Node191</title>
<path fill="none" stroke="midnightblue" d="M316.93,-335.7C349.44,-338.96 404.36,-344.47 441.26,-348.17"/>
<polygon fill="midnightblue" stroke="midnightblue" points="317.12,-332.2 306.82,-334.69 316.42,-339.17 317.12,-332.2"/>
</g>
<!-- Node202&#45;&gt;Node4 -->
<g id="edge48" class="edge">
<title>Node202&#45;&gt;Node4</title>
<path fill="none" stroke="midnightblue" d="M348.63,-631.12C377.36,-628.24 411.29,-624.84 437.4,-622.22"/>
<polygon fill="midnightblue" stroke="midnightblue" points="347.91,-627.68 338.31,-632.16 348.61,-634.64 347.91,-627.68"/>
</g>
<!-- Node202&#45;&gt;Node90 -->
<g id="edge50" class="edge">
<title>Node202&#45;&gt;Node90</title>
<path fill="none" stroke="midnightblue" d="M328.25,-649.71C351.51,-657.31 381.87,-667.02 409,-675 423.84,-679.37 440.54,-683.89 453.97,-687.42"/>
<polygon fill="midnightblue" stroke="midnightblue" points="329.33,-646.38 318.74,-646.59 327.15,-653.03 329.33,-646.38"/>
</g>
<!-- Node202&#45;&gt;Node199 -->
<g id="edge49" class="edge">
<title>Node202&#45;&gt;Node199</title>
<path fill="none" stroke="midnightblue" d="M348.68,-642.88C381.44,-646.17 420.96,-650.13 447.93,-652.84"/>
<polygon fill="midnightblue" stroke="midnightblue" points="348.61,-639.36 338.31,-641.84 347.91,-646.32 348.61,-639.36"/>
</g>
<!-- Node252&#45;&gt;Node99 -->
<g id="edge54" class="edge">
<title>Node252&#45;&gt;Node99</title>
<path fill="none" stroke="midnightblue" d="M176.53,-318.88C207.08,-322.75 248.31,-327.97 271.1,-330.86"/>
<polygon fill="midnightblue" stroke="midnightblue" points="176.57,-315.36 166.21,-317.57 175.69,-322.3 176.57,-315.36"/>
</g>
<!-- Node253 -->
<g id="node48" class="node">
<title>Node253</title>
<g id="a_node48"><a xlink:href="classAxiStreamDmaWrite.html" target="_top" xlink:title=" ">
<polygon fill="white" stroke="red" points="230.5,-247.5 230.5,-266.5 347.5,-266.5 347.5,-247.5 230.5,-247.5"/>
<text text-anchor="middle" x="289" y="-254.5" font-family="Helvetica,sans-Serif" font-size="10.00">AxiStreamDmaWrite</text>
</a>
</g>
</g>
<!-- Node252&#45;&gt;Node253 -->
<g id="edge53" class="edge">
<title>Node252&#45;&gt;Node253</title>
<path fill="none" stroke="midnightblue" d="M160.52,-299.04C173.15,-291.21 189.45,-282.04 205,-276 214.65,-272.25 225.22,-269.14 235.5,-266.58"/>
<polygon fill="midnightblue" stroke="midnightblue" points="158.6,-296.11 152.04,-304.43 162.35,-302.02 158.6,-296.11"/>
</g>
<!-- Node256 -->
<g id="node49" class="node">
<title>Node256</title>
<g id="a_node49"><a xlink:href="classJesdRxLane.html" target="_top" xlink:title=" ">
<polygon fill="white" stroke="red" points="252.5,-285.5 252.5,-304.5 325.5,-304.5 325.5,-285.5 252.5,-285.5"/>
<text text-anchor="middle" x="289" y="-292.5" font-family="Helvetica,sans-Serif" font-size="10.00">JesdRxLane</text>
</a>
</g>
</g>
<!-- Node252&#45;&gt;Node256 -->
<g id="edge55" class="edge">
<title>Node252&#45;&gt;Node256</title>
<path fill="none" stroke="midnightblue" d="M176.17,-309.16C199.65,-306.19 229.53,-302.41 252.5,-299.5"/>
<polygon fill="midnightblue" stroke="midnightblue" points="175.69,-305.7 166.21,-310.43 176.57,-312.64 175.69,-305.7"/>
</g>
</g>
</svg>
