<?xml version="1.0" encoding="UTF-8" standalone="no"?>
<!DOCTYPE svg PUBLIC "-//W3C//DTD SVG 1.1//EN"
 "http://www.w3.org/Graphics/SVG/1.1/DTD/svg11.dtd">
<!-- Generated by graphviz version 2.43.0 (0)
 -->
<!-- Title: IpV4Engine Pages: 1 -->
<svg width="532pt" height="308pt"
 viewBox="0.00 0.00 532.00 308.00" xmlns="http://www.w3.org/2000/svg" xmlns:xlink="http://www.w3.org/1999/xlink">
<g id="graph0" class="graph" transform="scale(1 1) rotate(0) translate(4 304)">
<title>IpV4Engine</title>
<polygon fill="white" stroke="transparent" points="-4,4 -4,-304 528,-304 528,4 -4,4"/>
<!-- Node1 -->
<g id="node1" class="node">
<title>Node1</title>
<g id="a_node1"><a xlink:title=" ">
<polygon fill="#bfbfbf" stroke="black" points="205.5,-112.5 205.5,-131.5 276.5,-131.5 276.5,-112.5 205.5,-112.5"/>
<text text-anchor="middle" x="241" y="-119.5" font-family="Helvetica,sans-Serif" font-size="10.00">IpV4Engine</text>
</a>
</g>
</g>
<!-- Node10 -->
<g id="node10" class="node">
<title>Node10</title>
<g id="a_node10"><a xlink:href="classIpV4EngineTb.html" target="_top" xlink:title=" ">
<polygon fill="white" stroke="black" points="142.5,-56.5 142.5,-75.5 225.5,-75.5 225.5,-56.5 142.5,-56.5"/>
<text text-anchor="middle" x="184" y="-63.5" font-family="Helvetica,sans-Serif" font-size="10.00">IpV4EngineTb</text>
</a>
</g>
</g>
<!-- Node1&#45;&gt;Node10 -->
<g id="edge13" class="edge">
<title>Node1&#45;&gt;Node10</title>
<path fill="none" stroke="midnightblue" d="M224.38,-105.25C214.27,-95.67 201.72,-83.79 193.32,-75.83"/>
<polygon fill="midnightblue" stroke="midnightblue" points="222.18,-107.99 231.84,-112.32 226.99,-102.91 222.18,-107.99"/>
</g>
<!-- Node11 -->
<g id="node11" class="node">
<title>Node11</title>
<g id="a_node11"><a xlink:href="classUdpEngineWrapper.html" target="_top" xlink:title=" ">
<polygon fill="white" stroke="black" points="244,-56.5 244,-75.5 354,-75.5 354,-56.5 244,-56.5"/>
<text text-anchor="middle" x="299" y="-63.5" font-family="Helvetica,sans-Serif" font-size="10.00">UdpEngineWrapper</text>
</a>
</g>
</g>
<!-- Node1&#45;&gt;Node11 -->
<g id="edge14" class="edge">
<title>Node1&#45;&gt;Node11</title>
<path fill="none" stroke="midnightblue" d="M257.91,-105.25C268.2,-95.67 280.97,-83.79 289.51,-75.83"/>
<polygon fill="midnightblue" stroke="midnightblue" points="255.25,-102.95 250.32,-112.32 260.02,-108.07 255.25,-102.95"/>
</g>
<!-- Node2 -->
<g id="node2" class="node">
<title>Node2</title>
<g id="a_node2"><a xlink:href="classIpV4EngineDeMux.html" target="_top" xlink:title=" ">
<polygon fill="white" stroke="black" points="0,-168.5 0,-187.5 106,-187.5 106,-168.5 0,-168.5"/>
<text text-anchor="middle" x="53" y="-175.5" font-family="Helvetica,sans-Serif" font-size="10.00">IpV4EngineDeMux</text>
</a>
</g>
</g>
<!-- Node2&#45;&gt;Node1 -->
<g id="edge1" class="edge">
<title>Node2&#45;&gt;Node1</title>
<path fill="none" stroke="midnightblue" d="M92.8,-165.57C128.27,-155.38 179.37,-140.7 211.35,-131.52"/>
<polygon fill="midnightblue" stroke="midnightblue" points="91.43,-162.32 82.79,-168.44 93.37,-169.05 91.43,-162.32"/>
</g>
<!-- Node3 -->
<g id="node3" class="node">
<title>Node3</title>
<g id="a_node3"><a xlink:href="classAxiStreamMux.html" target="_top" xlink:title=" ">
<polygon fill="white" stroke="black" points="232.5,-224.5 232.5,-243.5 321.5,-243.5 321.5,-224.5 232.5,-224.5"/>
<text text-anchor="middle" x="277" y="-231.5" font-family="Helvetica,sans-Serif" font-size="10.00">AxiStreamMux</text>
</a>
</g>
</g>
<!-- Node3&#45;&gt;Node1 -->
<g id="edge2" class="edge">
<title>Node3&#45;&gt;Node1</title>
<path fill="none" stroke="midnightblue" d="M222.31,-227.39C196.83,-221.73 168.72,-210.43 153,-188 134.74,-161.95 178.05,-142.16 210.17,-131.59"/>
<polygon fill="midnightblue" stroke="midnightblue" points="221.79,-230.86 232.28,-229.37 223.15,-223.99 221.79,-230.86"/>
</g>
<!-- Node6 -->
<g id="node6" class="node">
<title>Node6</title>
<g id="a_node6"><a xlink:href="classIpV4EngineRx.html" target="_top" xlink:title=" ">
<polygon fill="white" stroke="black" points="246,-168.5 246,-187.5 330,-187.5 330,-168.5 246,-168.5"/>
<text text-anchor="middle" x="288" y="-175.5" font-family="Helvetica,sans-Serif" font-size="10.00">IpV4EngineRx</text>
</a>
</g>
</g>
<!-- Node3&#45;&gt;Node6 -->
<g id="edge6" class="edge">
<title>Node3&#45;&gt;Node6</title>
<path fill="none" stroke="midnightblue" d="M280.85,-214.1C282.68,-205.14 284.77,-194.86 286.22,-187.75"/>
<polygon fill="midnightblue" stroke="midnightblue" points="277.38,-213.59 278.82,-224.08 284.24,-214.98 277.38,-213.59"/>
</g>
<!-- Node8 -->
<g id="node8" class="node">
<title>Node8</title>
<g id="a_node8"><a xlink:href="classIpV4EngineTx.html" target="_top" xlink:title=" ">
<polygon fill="white" stroke="black" points="348.5,-168.5 348.5,-187.5 431.5,-187.5 431.5,-168.5 348.5,-168.5"/>
<text text-anchor="middle" x="390" y="-175.5" font-family="Helvetica,sans-Serif" font-size="10.00">IpV4EngineTx</text>
</a>
</g>
</g>
<!-- Node3&#45;&gt;Node8 -->
<g id="edge10" class="edge">
<title>Node3&#45;&gt;Node8</title>
<path fill="none" stroke="midnightblue" d="M304,-220.1C325.11,-210.01 353.86,-196.27 372.18,-187.52"/>
<polygon fill="midnightblue" stroke="midnightblue" points="302.42,-216.97 294.91,-224.44 305.44,-223.29 302.42,-216.97"/>
</g>
<!-- Node4 -->
<g id="node4" class="node">
<title>Node4</title>
<g id="a_node4"><a xlink:href="classAxiStreamPipeline.html" target="_top" xlink:title=" ">
<polygon fill="white" stroke="black" points="279.5,-280.5 279.5,-299.5 386.5,-299.5 386.5,-280.5 279.5,-280.5"/>
<text text-anchor="middle" x="333" y="-287.5" font-family="Helvetica,sans-Serif" font-size="10.00">AxiStreamPipeline</text>
</a>
</g>
</g>
<!-- Node4&#45;&gt;Node3 -->
<g id="edge3" class="edge">
<title>Node4&#45;&gt;Node3</title>
<path fill="none" stroke="midnightblue" d="M316.67,-273.25C306.74,-263.67 294.41,-251.79 286.16,-243.83"/>
<polygon fill="midnightblue" stroke="midnightblue" points="314.37,-275.9 324,-280.32 319.23,-270.86 314.37,-275.9"/>
</g>
<!-- Node7 -->
<g id="node7" class="node">
<title>Node7</title>
<g id="a_node7"><a xlink:href="classAxiStreamDeMux.html" target="_top" xlink:title=" ">
<polygon fill="white" stroke="black" points="339,-224.5 339,-243.5 441,-243.5 441,-224.5 339,-224.5"/>
<text text-anchor="middle" x="390" y="-231.5" font-family="Helvetica,sans-Serif" font-size="10.00">AxiStreamDeMux</text>
</a>
</g>
</g>
<!-- Node4&#45;&gt;Node7 -->
<g id="edge8" class="edge">
<title>Node4&#45;&gt;Node7</title>
<path fill="none" stroke="midnightblue" d="M349.62,-273.25C359.73,-263.67 372.28,-251.79 380.68,-243.83"/>
<polygon fill="midnightblue" stroke="midnightblue" points="347.01,-270.91 342.16,-280.32 351.82,-275.99 347.01,-270.91"/>
</g>
<!-- Node5 -->
<g id="node5" class="node">
<title>Node5</title>
<g id="a_node5"><a xlink:href="classArpEngine.html" target="_top" xlink:title=" ">
<polygon fill="white" stroke="black" points="162,-168.5 162,-187.5 228,-187.5 228,-168.5 162,-168.5"/>
<text text-anchor="middle" x="195" y="-175.5" font-family="Helvetica,sans-Serif" font-size="10.00">ArpEngine</text>
</a>
</g>
</g>
<!-- Node5&#45;&gt;Node1 -->
<g id="edge4" class="edge">
<title>Node5&#45;&gt;Node1</title>
<path fill="none" stroke="midnightblue" d="M209.11,-160.43C217.18,-150.97 226.96,-139.48 233.55,-131.75"/>
<polygon fill="midnightblue" stroke="midnightblue" points="206.42,-158.2 202.6,-168.08 211.75,-162.74 206.42,-158.2"/>
</g>
<!-- Node6&#45;&gt;Node1 -->
<g id="edge5" class="edge">
<title>Node6&#45;&gt;Node1</title>
<path fill="none" stroke="midnightblue" d="M273.58,-160.43C265.34,-150.97 255.35,-139.48 248.62,-131.75"/>
<polygon fill="midnightblue" stroke="midnightblue" points="271.03,-162.84 280.24,-168.08 276.31,-158.24 271.03,-162.84"/>
</g>
<!-- Node7&#45;&gt;Node6 -->
<g id="edge7" class="edge">
<title>Node7&#45;&gt;Node6</title>
<path fill="none" stroke="midnightblue" d="M364.67,-219.59C345.81,-209.61 320.62,-196.27 304.35,-187.65"/>
<polygon fill="midnightblue" stroke="midnightblue" points="363.14,-222.74 373.61,-224.32 366.41,-216.55 363.14,-222.74"/>
</g>
<!-- Node7&#45;&gt;Node8 -->
<g id="edge11" class="edge">
<title>Node7&#45;&gt;Node8</title>
<path fill="none" stroke="midnightblue" d="M390,-213.8C390,-204.91 390,-194.78 390,-187.75"/>
<polygon fill="midnightblue" stroke="midnightblue" points="386.5,-214.08 390,-224.08 393.5,-214.08 386.5,-214.08"/>
</g>
<!-- Node8&#45;&gt;Node1 -->
<g id="edge9" class="edge">
<title>Node8&#45;&gt;Node1</title>
<path fill="none" stroke="midnightblue" d="M356.63,-164.91C328.62,-154.75 289.3,-140.51 264.5,-131.52"/>
<polygon fill="midnightblue" stroke="midnightblue" points="355.8,-168.33 366.39,-168.44 358.18,-161.75 355.8,-168.33"/>
</g>
<!-- Node9 -->
<g id="node9" class="node">
<title>Node9</title>
<g id="a_node9"><a xlink:href="classIcmpEngine.html" target="_top" xlink:title=" ">
<polygon fill="white" stroke="black" points="450,-168.5 450,-187.5 524,-187.5 524,-168.5 450,-168.5"/>
<text text-anchor="middle" x="487" y="-175.5" font-family="Helvetica,sans-Serif" font-size="10.00">IcmpEngine</text>
</a>
</g>
</g>
<!-- Node9&#45;&gt;Node1 -->
<g id="edge12" class="edge">
<title>Node9&#45;&gt;Node1</title>
<path fill="none" stroke="midnightblue" d="M439.85,-166.65C392.28,-156.21 319.85,-140.31 276.79,-130.86"/>
<polygon fill="midnightblue" stroke="midnightblue" points="439.39,-170.13 449.9,-168.86 440.89,-163.29 439.39,-170.13"/>
</g>
<!-- Node12 -->
<g id="node12" class="node">
<title>Node12</title>
<g id="a_node12"><a xlink:href="classEthMacPauseTb.html" target="_top" xlink:title=" ">
<polygon fill="white" stroke="black" points="137.5,-0.5 137.5,-19.5 230.5,-19.5 230.5,-0.5 137.5,-0.5"/>
<text text-anchor="middle" x="184" y="-7.5" font-family="Helvetica,sans-Serif" font-size="10.00">EthMacPauseTb</text>
</a>
</g>
</g>
<!-- Node11&#45;&gt;Node12 -->
<g id="edge15" class="edge">
<title>Node11&#45;&gt;Node12</title>
<path fill="none" stroke="midnightblue" d="M271.52,-52.1C250.03,-42.01 220.78,-28.27 202.14,-19.52"/>
<polygon fill="midnightblue" stroke="midnightblue" points="270.24,-55.36 280.78,-56.44 273.21,-49.02 270.24,-55.36"/>
</g>
<!-- Node13 -->
<g id="node13" class="node">
<title>Node13</title>
<g id="a_node13"><a xlink:href="classRawEthFramerTb.html" target="_top" xlink:title=" ">
<polygon fill="white" stroke="black" points="249,-0.5 249,-19.5 349,-19.5 349,-0.5 249,-0.5"/>
<text text-anchor="middle" x="299" y="-7.5" font-family="Helvetica,sans-Serif" font-size="10.00">RawEthFramerTb</text>
</a>
</g>
</g>
<!-- Node11&#45;&gt;Node13 -->
<g id="edge16" class="edge">
<title>Node11&#45;&gt;Node13</title>
<path fill="none" stroke="midnightblue" d="M299,-45.8C299,-36.91 299,-26.78 299,-19.75"/>
<polygon fill="midnightblue" stroke="midnightblue" points="295.5,-46.08 299,-56.08 302.5,-46.08 295.5,-46.08"/>
</g>
<!-- Node14 -->
<g id="node14" class="node">
<title>Node14</title>
<g id="a_node14"><a xlink:href="classUdpEngineTb.html" target="_top" xlink:title=" ">
<polygon fill="white" stroke="black" points="367.5,-0.5 367.5,-19.5 448.5,-19.5 448.5,-0.5 367.5,-0.5"/>
<text text-anchor="middle" x="408" y="-7.5" font-family="Helvetica,sans-Serif" font-size="10.00">UdpEngineTb</text>
</a>
</g>
</g>
<!-- Node11&#45;&gt;Node14 -->
<g id="edge17" class="edge">
<title>Node11&#45;&gt;Node14</title>
<path fill="none" stroke="midnightblue" d="M325.52,-51.86C345.73,-41.85 372.99,-28.35 390.53,-19.65"/>
<polygon fill="midnightblue" stroke="midnightblue" points="323.92,-48.75 316.51,-56.32 327.03,-55.02 323.92,-48.75"/>
</g>
</g>
</svg>
