<?xml version="1.0" encoding="UTF-8" standalone="no"?>
<!DOCTYPE svg PUBLIC "-//W3C//DTD SVG 1.1//EN"
 "http://www.w3.org/Graphics/SVG/1.1/DTD/svg11.dtd">
<!-- Generated by graphviz version 2.43.0 (0)
 -->
<!-- Title: CoaXPressOverFiberBridge Pages: 1 -->
<!--zoomable 332 -->
<svg id="main" version="1.1" xmlns="http://www.w3.org/2000/svg" xmlns:xlink="http://www.w3.org/1999/xlink" xml:space="preserve" onload="init(evt)">
<style type="text/css"><![CDATA[
.edge:hover path { stroke: red; }
.edge:hover polygon { stroke: red; fill: red; }
]]></style>
<script type="text/javascript"><![CDATA[
var edges = document.getElementsByTagName('g');
if (edges && edges.length) {
  for (var i=0;i<edges.length;i++) {
    if (edges[i].id.substr(0,4)=='edge') {
      edges[i].setAttribute('class','edge');
    }
  }
}
]]></script>
        <defs>
                <circle id="rim" cx="0" cy="0" r="7"/>
                <circle id="rim2" cx="0" cy="0" r="3.5"/>
                <g id="zoomPlus">
                        <use xlink:href="#rim" fill="#404040">
                                <set attributeName="fill" to="#808080" begin="zoomplus.mouseover" end="zoomplus.mouseout"/>
                        </use>
                        <path d="M-4,0h8M0,-4v8" fill="none" stroke="white" stroke-width="1.5" pointer-events="none"/>
                </g>
                <g id="zoomMin">
                        <use xlink:href="#rim" fill="#404040">
                                <set attributeName="fill" to="#808080" begin="zoomminus.mouseover" end="zoomminus.mouseout"/>
                        </use>
                        <path d="M-4,0h8" fill="none" stroke="white" stroke-width="1.5" pointer-events="none"/>
                </g>
                <g id="dirArrow">
                        <path fill="none" stroke="white" stroke-width="1.5" d="M0,-3.0v7 M-2.5,-0.5L0,-3.0L2.5,-0.5"/>
                </g>
               <g id="resetDef">
                       <use xlink:href="#rim2" fill="#404040">
                               <set attributeName="fill" to="#808080" begin="reset.mouseover" end="reset.mouseout"/>
                       </use>
               </g>
        </defs>

<script type="text/javascript">
var viewWidth = 1156;
var viewHeight = 332;
var sectionId = 'dynsection-0';
</script>
<script xlink:href="svgpan.js"/>
<svg id="graph" class="graph">
<g id="viewport">
<title>CoaXPressOverFiberBridge</title>
<polygon fill="white" stroke="transparent" points="-4,4 -4,-328 1152,-328 1152,4 -4,4"/>
<!-- Node1 -->
<g id="node1" class="node">
<title>Node1</title>
<g id="a_node1"><a xlink:title=" ">
<polygon fill="#bfbfbf" stroke="black" points="629,-133.5 629,-152.5 776,-152.5 776,-133.5 629,-133.5"/>
<text text-anchor="middle" x="702.5" y="-140.5" font-family="Helvetica,sans-Serif" font-size="10.00">CoaXPressOverFiberBridge</text>
</a>
</g>
</g>
<!-- Node18 -->
<g id="node18" class="node">
<title>Node18</title>
<g id="a_node18"><a xlink:href="classCoaXPressOverFiberGthUsIpWrapper.html" target="_top" xlink:title=" ">
<polygon fill="white" stroke="black" points="812,-153 812,-183 967,-183 967,-153 812,-153"/>
<text text-anchor="start" x="820" y="-171" font-family="Helvetica,sans-Serif" font-size="10.00">CoaXPressOverFiberGthUsIp</text>
<text text-anchor="middle" x="889.5" y="-160" font-family="Helvetica,sans-Serif" font-size="10.00">Wrapper</text>
</a>
</g>
</g>
<!-- Node1&#45;&gt;Node18 -->
<g id="edge20" class="edge">
<title>Node1&#45;&gt;Node18</title>
<path fill="none" stroke="midnightblue" d="M783.91,-153.87C793.16,-155.12 802.56,-156.39 811.75,-157.63"/>
<polygon fill="midnightblue" stroke="midnightblue" points="784.35,-150.39 773.97,-152.52 783.41,-157.33 784.35,-150.39"/>
</g>
<!-- Node20 -->
<g id="node20" class="node">
<title>Node20</title>
<g id="a_node20"><a xlink:href="classCoaXPressOverFiberGtyUsIpWrapper.html" target="_top" xlink:title=" ">
<polygon fill="white" stroke="black" points="812,-104 812,-134 967,-134 967,-104 812,-104"/>
<text text-anchor="start" x="820" y="-122" font-family="Helvetica,sans-Serif" font-size="10.00">CoaXPressOverFiberGtyUsIp</text>
<text text-anchor="middle" x="889.5" y="-111" font-family="Helvetica,sans-Serif" font-size="10.00">Wrapper</text>
</a>
</g>
</g>
<!-- Node1&#45;&gt;Node20 -->
<g id="edge22" class="edge">
<title>Node1&#45;&gt;Node20</title>
<path fill="none" stroke="midnightblue" d="M786.08,-132.29C794.66,-131.17 803.35,-130.05 811.86,-128.94"/>
<polygon fill="midnightblue" stroke="midnightblue" points="785.55,-128.83 776.09,-133.58 786.45,-135.77 785.55,-128.83"/>
</g>
<!-- Node2 -->
<g id="node2" class="node">
<title>Node2</title>
<g id="a_node2"><a xlink:href="classAsyncGearbox.html" target="_top" xlink:title=" ">
<polygon fill="white" stroke="black" points="462.5,-171.5 462.5,-190.5 563.5,-190.5 563.5,-171.5 462.5,-171.5"/>
<text text-anchor="middle" x="513" y="-178.5" font-family="Helvetica,sans-Serif" font-size="10.00">AsyncGearbox(2)</text>
</a>
</g>
</g>
<!-- Node2&#45;&gt;Node1 -->
<g id="edge1" class="edge">
<title>Node2&#45;&gt;Node1</title>
<path fill="none" stroke="midnightblue" d="M571.28,-169.39C597.95,-163.99 629.28,-157.64 654.53,-152.52"/>
<polygon fill="midnightblue" stroke="midnightblue" points="570.42,-165.99 561.31,-171.41 571.81,-172.85 570.42,-165.99"/>
</g>
<!-- Node3 -->
<g id="node3" class="node">
<title>Node3</title>
<g id="a_node3"><a xlink:href="classSynchronizerOneShot.html" target="_top" xlink:title=" ">
<polygon fill="white" stroke="black" points="276,-266.5 276,-285.5 397,-285.5 397,-266.5 276,-266.5"/>
<text text-anchor="middle" x="336.5" y="-273.5" font-family="Helvetica,sans-Serif" font-size="10.00">SynchronizerOneShot</text>
</a>
</g>
</g>
<!-- Node3&#45;&gt;Node2 -->
<g id="edge2" class="edge">
<title>Node3&#45;&gt;Node2</title>
<path fill="none" stroke="midnightblue" d="M364.19,-261.47C400.34,-241.79 463.89,-207.19 494.52,-190.52"/>
<polygon fill="midnightblue" stroke="midnightblue" points="362.3,-258.51 355.19,-266.37 365.65,-264.66 362.3,-258.51"/>
</g>
<!-- Node4 -->
<g id="node4" class="node">
<title>Node4</title>
<g id="a_node4"><a xlink:href="classRstSync.html" target="_top" xlink:title=" ">
<polygon fill="white" stroke="black" points="150,-304.5 150,-323.5 206,-323.5 206,-304.5 150,-304.5"/>
<text text-anchor="middle" x="178" y="-311.5" font-family="Helvetica,sans-Serif" font-size="10.00">RstSync</text>
</a>
</g>
</g>
<!-- Node4&#45;&gt;Node3 -->
<g id="edge3" class="edge">
<title>Node4&#45;&gt;Node3</title>
<path fill="none" stroke="midnightblue" d="M216.12,-304.99C240.25,-299.13 271.68,-291.5 296.24,-285.53"/>
<polygon fill="midnightblue" stroke="midnightblue" points="215.15,-301.62 206.26,-307.38 216.8,-308.42 215.15,-301.62"/>
</g>
<!-- Node5 -->
<g id="node5" class="node">
<title>Node5</title>
<g id="a_node5"><a xlink:href="classSynchronizer.html" target="_top" xlink:title=" ">
<polygon fill="white" stroke="black" points="0,-266.5 0,-285.5 80,-285.5 80,-266.5 0,-266.5"/>
<text text-anchor="middle" x="40" y="-273.5" font-family="Helvetica,sans-Serif" font-size="10.00">Synchronizer</text>
</a>
</g>
</g>
<!-- Node5&#45;&gt;Node4 -->
<g id="edge4" class="edge">
<title>Node5&#45;&gt;Node4</title>
<path fill="none" stroke="midnightblue" d="M85.16,-288.34C106.52,-294.31 131.48,-301.28 149.98,-306.45"/>
<polygon fill="midnightblue" stroke="midnightblue" points="85.89,-284.91 75.32,-285.59 84.01,-291.65 85.89,-284.91"/>
</g>
<!-- Node6 -->
<g id="node6" class="node">
<title>Node6</title>
<g id="a_node6"><a xlink:href="classSynchronizerEdge.html" target="_top" xlink:title=" ">
<polygon fill="white" stroke="black" points="126,-266.5 126,-285.5 230,-285.5 230,-266.5 126,-266.5"/>
<text text-anchor="middle" x="178" y="-273.5" font-family="Helvetica,sans-Serif" font-size="10.00">SynchronizerEdge</text>
</a>
</g>
</g>
<!-- Node5&#45;&gt;Node6 -->
<g id="edge6" class="edge">
<title>Node5&#45;&gt;Node6</title>
<path fill="none" stroke="midnightblue" d="M90.56,-276C101.96,-276 114.11,-276 125.59,-276"/>
<polygon fill="midnightblue" stroke="midnightblue" points="90.34,-272.5 80.34,-276 90.34,-279.5 90.34,-272.5"/>
</g>
<!-- Node9 -->
<g id="node9" class="node">
<title>Node9</title>
<g id="a_node9"><a xlink:href="classRstSync.html" target="_top" xlink:title=" ">
<polygon fill="white" stroke="black" points="143.5,-190.5 143.5,-209.5 212.5,-209.5 212.5,-190.5 143.5,-190.5"/>
<text text-anchor="middle" x="178" y="-197.5" font-family="Helvetica,sans-Serif" font-size="10.00">RstSync(2)</text>
</a>
</g>
</g>
<!-- Node5&#45;&gt;Node9 -->
<g id="edge10" class="edge">
<title>Node5&#45;&gt;Node9</title>
<path fill="none" stroke="midnightblue" d="M59.05,-259.39C73.53,-246.81 94.86,-229.9 116,-219 124.48,-214.63 134.15,-211.05 143.24,-208.23"/>
<polygon fill="midnightblue" stroke="midnightblue" points="56.52,-256.96 51.37,-266.21 61.17,-262.19 56.52,-256.96"/>
</g>
<!-- Node6&#45;&gt;Node3 -->
<g id="edge5" class="edge">
<title>Node6&#45;&gt;Node3</title>
<path fill="none" stroke="midnightblue" d="M240.37,-276C252.09,-276 264.33,-276 275.99,-276"/>
<polygon fill="midnightblue" stroke="midnightblue" points="240.24,-272.5 230.24,-276 240.24,-279.5 240.24,-272.5"/>
</g>
<!-- Node7 -->
<g id="node7" class="node">
<title>Node7</title>
<g id="a_node7"><a xlink:href="classSynchronizer.html" target="_top" xlink:title=" ">
<polygon fill="white" stroke="black" points="131.5,-228.5 131.5,-247.5 224.5,-247.5 224.5,-228.5 131.5,-228.5"/>
<text text-anchor="middle" x="178" y="-235.5" font-family="Helvetica,sans-Serif" font-size="10.00">Synchronizer(2)</text>
</a>
</g>
</g>
<!-- Node7&#45;&gt;Node2 -->
<g id="edge7" class="edge">
<title>Node7&#45;&gt;Node2</title>
<path fill="none" stroke="midnightblue" d="M234.85,-228.44C298.45,-217.55 401.43,-199.93 462.34,-189.5"/>
<polygon fill="midnightblue" stroke="midnightblue" points="233.87,-225.06 224.6,-230.19 235.05,-231.96 233.87,-225.06"/>
</g>
<!-- Node8 -->
<g id="node8" class="node">
<title>Node8</title>
<g id="a_node8"><a xlink:href="classFifoAsync.html" target="_top" xlink:title=" ">
<polygon fill="white" stroke="black" points="298,-152.5 298,-171.5 375,-171.5 375,-152.5 298,-152.5"/>
<text text-anchor="middle" x="336.5" y="-159.5" font-family="Helvetica,sans-Serif" font-size="10.00">FifoAsync(2)</text>
</a>
</g>
</g>
<!-- Node7&#45;&gt;Node8 -->
<g id="edge12" class="edge">
<title>Node7&#45;&gt;Node8</title>
<path fill="none" stroke="midnightblue" d="M224.29,-225.21C229.66,-223.31 235,-221.23 240,-219 270.68,-205.3 303.77,-183.89 321.82,-171.58"/>
<polygon fill="midnightblue" stroke="midnightblue" points="223.05,-221.94 214.68,-228.44 225.28,-228.57 223.05,-221.94"/>
</g>
<!-- Node8&#45;&gt;Node2 -->
<g id="edge8" class="edge">
<title>Node8&#45;&gt;Node2</title>
<path fill="none" stroke="midnightblue" d="M385.6,-167.24C409.44,-169.83 438.21,-172.97 462.28,-175.59"/>
<polygon fill="midnightblue" stroke="midnightblue" points="385.68,-163.73 375.36,-166.12 384.93,-170.68 385.68,-163.73"/>
</g>
<!-- Node9&#45;&gt;Node8 -->
<g id="edge9" class="edge">
<title>Node9&#45;&gt;Node8</title>
<path fill="none" stroke="midnightblue" d="M222.37,-189.47C246.06,-183.72 275.13,-176.66 297.87,-171.14"/>
<polygon fill="midnightblue" stroke="midnightblue" points="221.46,-186.09 212.57,-191.85 223.12,-192.89 221.46,-186.09"/>
</g>
<!-- Node10 -->
<g id="node10" class="node">
<title>Node10</title>
<g id="a_node10"><a xlink:href="classSynchronizerVector.html" target="_top" xlink:title=" ">
<polygon fill="white" stroke="black" points="116,-152.5 116,-171.5 240,-171.5 240,-152.5 116,-152.5"/>
<text text-anchor="middle" x="178" y="-159.5" font-family="Helvetica,sans-Serif" font-size="10.00">SynchronizerVector(2)</text>
</a>
</g>
</g>
<!-- Node10&#45;&gt;Node8 -->
<g id="edge11" class="edge">
<title>Node10&#45;&gt;Node8</title>
<path fill="none" stroke="midnightblue" d="M250.49,-162C266.8,-162 283.51,-162 297.75,-162"/>
<polygon fill="midnightblue" stroke="midnightblue" points="250.4,-158.5 240.4,-162 250.4,-165.5 250.4,-158.5"/>
</g>
<!-- Node11 -->
<g id="node11" class="node">
<title>Node11</title>
<g id="a_node11"><a xlink:href="classFifoWrFsm.html" target="_top" xlink:title=" ">
<polygon fill="white" stroke="black" points="143.5,-114.5 143.5,-133.5 212.5,-133.5 212.5,-114.5 143.5,-114.5"/>
<text text-anchor="middle" x="178" y="-121.5" font-family="Helvetica,sans-Serif" font-size="10.00">FifoWrFsm</text>
</a>
</g>
</g>
<!-- Node11&#45;&gt;Node8 -->
<g id="edge13" class="edge">
<title>Node11&#45;&gt;Node8</title>
<path fill="none" stroke="midnightblue" d="M222.37,-134.53C246.06,-140.28 275.13,-147.34 297.87,-152.86"/>
<polygon fill="midnightblue" stroke="midnightblue" points="223.12,-131.11 212.57,-132.15 221.46,-137.91 223.12,-131.11"/>
</g>
<!-- Node12 -->
<g id="node12" class="node">
<title>Node12</title>
<g id="a_node12"><a xlink:href="classFifoRdFsm.html" target="_top" xlink:title=" ">
<polygon fill="white" stroke="black" points="144,-76.5 144,-95.5 212,-95.5 212,-76.5 144,-76.5"/>
<text text-anchor="middle" x="178" y="-83.5" font-family="Helvetica,sans-Serif" font-size="10.00">FifoRdFsm</text>
</a>
</g>
</g>
<!-- Node12&#45;&gt;Node8 -->
<g id="edge14" class="edge">
<title>Node12&#45;&gt;Node8</title>
<path fill="none" stroke="midnightblue" d="M222.1,-96.36C228.34,-98.72 234.5,-101.57 240,-105 259.75,-117.3 256.3,-130.63 276,-143 282.61,-147.15 290.21,-150.47 297.72,-153.1"/>
<polygon fill="midnightblue" stroke="midnightblue" points="222.91,-92.94 212.31,-93.04 220.66,-99.57 222.91,-92.94"/>
</g>
<!-- Node13 -->
<g id="node13" class="node">
<title>Node13</title>
<g id="a_node13"><a xlink:href="classSimpleDualPortRam.html" target="_top" xlink:title=" ">
<polygon fill="white" stroke="black" points="120.5,-38.5 120.5,-57.5 235.5,-57.5 235.5,-38.5 120.5,-38.5"/>
<text text-anchor="middle" x="178" y="-45.5" font-family="Helvetica,sans-Serif" font-size="10.00">SimpleDualPortRam</text>
</a>
</g>
</g>
<!-- Node13&#45;&gt;Node8 -->
<g id="edge15" class="edge">
<title>Node13&#45;&gt;Node8</title>
<path fill="none" stroke="midnightblue" d="M233.77,-62.38C235.97,-63.78 238.06,-65.31 240,-67 268.22,-91.51 247.87,-118.39 276,-143 282.2,-148.43 289.97,-152.31 297.82,-155.08"/>
<polygon fill="midnightblue" stroke="midnightblue" points="235.34,-59.24 224.87,-57.62 232.04,-65.42 235.34,-59.24"/>
</g>
<!-- Node14 -->
<g id="node14" class="node">
<title>Node14</title>
<g id="a_node14"><a xlink:href="classFifoOutputPipeline.html" target="_top" xlink:title=" ">
<polygon fill="white" stroke="black" points="124.5,-0.5 124.5,-19.5 231.5,-19.5 231.5,-0.5 124.5,-0.5"/>
<text text-anchor="middle" x="178" y="-7.5" font-family="Helvetica,sans-Serif" font-size="10.00">FifoOutputPipeline</text>
</a>
</g>
</g>
<!-- Node14&#45;&gt;Node8 -->
<g id="edge16" class="edge">
<title>Node14&#45;&gt;Node8</title>
<path fill="none" stroke="midnightblue" d="M235.27,-24.93C236.94,-26.18 238.53,-27.53 240,-29 277.64,-66.5 238.49,-105.37 276,-143 281.97,-148.99 289.83,-153.09 297.87,-155.91"/>
<polygon fill="midnightblue" stroke="midnightblue" points="236.66,-21.68 226.3,-19.51 233.04,-27.67 236.66,-21.68"/>
</g>
<!-- Node15 -->
<g id="node15" class="node">
<title>Node15</title>
<g id="a_node15"><a xlink:href="classGearbox.html" target="_top" xlink:title=" ">
<polygon fill="white" stroke="black" points="307.5,-114.5 307.5,-133.5 365.5,-133.5 365.5,-114.5 307.5,-114.5"/>
<text text-anchor="middle" x="336.5" y="-121.5" font-family="Helvetica,sans-Serif" font-size="10.00">Gearbox</text>
</a>
</g>
</g>
<!-- Node15&#45;&gt;Node2 -->
<g id="edge17" class="edge">
<title>Node15&#45;&gt;Node2</title>
<path fill="none" stroke="midnightblue" d="M375.4,-134.99C382.65,-137.41 390.13,-140.12 397,-143 413.68,-150 416.07,-155.61 433,-162 442.77,-165.69 453.49,-168.83 463.8,-171.43"/>
<polygon fill="midnightblue" stroke="midnightblue" points="376.31,-131.61 365.72,-131.89 374.17,-138.28 376.31,-131.61"/>
</g>
<!-- Node16 -->
<g id="node16" class="node">
<title>Node16</title>
<g id="a_node16"><a xlink:href="classCoaXPressOverFiberBridgeRx.html" target="_top" xlink:title=" ">
<polygon fill="white" stroke="black" points="433,-133.5 433,-152.5 593,-152.5 593,-133.5 433,-133.5"/>
<text text-anchor="middle" x="513" y="-140.5" font-family="Helvetica,sans-Serif" font-size="10.00">CoaXPressOverFiberBridgeRx</text>
</a>
</g>
</g>
<!-- Node16&#45;&gt;Node1 -->
<g id="edge18" class="edge">
<title>Node16&#45;&gt;Node1</title>
<path fill="none" stroke="midnightblue" d="M603.25,-143C611.81,-143 620.42,-143 628.8,-143"/>
<polygon fill="midnightblue" stroke="midnightblue" points="603.25,-139.5 593.25,-143 603.25,-146.5 603.25,-139.5"/>
</g>
<!-- Node17 -->
<g id="node17" class="node">
<title>Node17</title>
<g id="a_node17"><a xlink:href="classCoaXPressOverFiberBridgeTx.html" target="_top" xlink:title=" ">
<polygon fill="white" stroke="black" points="433.5,-95.5 433.5,-114.5 592.5,-114.5 592.5,-95.5 433.5,-95.5"/>
<text text-anchor="middle" x="513" y="-102.5" font-family="Helvetica,sans-Serif" font-size="10.00">CoaXPressOverFiberBridgeTx</text>
</a>
</g>
</g>
<!-- Node17&#45;&gt;Node1 -->
<g id="edge19" class="edge">
<title>Node17&#45;&gt;Node1</title>
<path fill="none" stroke="midnightblue" d="M571.28,-116.61C597.95,-122.01 629.28,-128.36 654.53,-133.48"/>
<polygon fill="midnightblue" stroke="midnightblue" points="571.81,-113.15 561.31,-114.59 570.42,-120.01 571.81,-113.15"/>
</g>
<!-- Node19 -->
<g id="node19" class="node">
<title>Node19</title>
<g id="a_node19"><a xlink:href="classCoaxpressOverFiberGthUs.html" target="_top" xlink:title=" ">
<polygon fill="white" stroke="black" points="1003,-158.5 1003,-177.5 1148,-177.5 1148,-158.5 1003,-158.5"/>
<text text-anchor="middle" x="1075.5" y="-165.5" font-family="Helvetica,sans-Serif" font-size="10.00">CoaxpressOverFiberGthUs</text>
</a>
</g>
</g>
<!-- Node18&#45;&gt;Node19 -->
<g id="edge21" class="edge">
<title>Node18&#45;&gt;Node19</title>
<path fill="none" stroke="midnightblue" d="M977.25,-168C985.85,-168 994.51,-168 1002.93,-168"/>
<polygon fill="midnightblue" stroke="midnightblue" points="977.2,-164.5 967.2,-168 977.2,-171.5 977.2,-164.5"/>
</g>
<!-- Node21 -->
<g id="node21" class="node">
<title>Node21</title>
<g id="a_node21"><a xlink:href="classCoaxpressOverFiberGtyUs.html" target="_top" xlink:title=" ">
<polygon fill="white" stroke="black" points="1003,-109.5 1003,-128.5 1148,-128.5 1148,-109.5 1003,-109.5"/>
<text text-anchor="middle" x="1075.5" y="-116.5" font-family="Helvetica,sans-Serif" font-size="10.00">CoaxpressOverFiberGtyUs</text>
</a>
</g>
</g>
<!-- Node20&#45;&gt;Node21 -->
<g id="edge23" class="edge">
<title>Node20&#45;&gt;Node21</title>
<path fill="none" stroke="midnightblue" d="M977.25,-119C985.85,-119 994.51,-119 1002.93,-119"/>
<polygon fill="midnightblue" stroke="midnightblue" points="977.2,-115.5 967.2,-119 977.2,-122.5 977.2,-115.5"/>
</g>
</g>
</svg>
        <g id="navigator" transform="translate(0 0)" fill="#404254">
                <rect fill="#f2f5e9" fill-opacity="0.5" stroke="#606060" stroke-width=".5" x="0" y="0" width="60" height="60"/>
                <use id="zoomplus" xlink:href="#zoomPlus" x="17" y="9" onmousedown="handleZoom(evt,'in')"/>
                <use id="zoomminus" xlink:href="#zoomMin" x="42" y="9" onmousedown="handleZoom(evt,'out')"/>
                <use id="reset" xlink:href="#resetDef" x="30" y="36" onmousedown="handleReset()"/>
                <g id="arrowUp" xlink:href="#dirArrow" transform="translate(30 24)" onmousedown="handlePan(0,-1)">
                  <use xlink:href="#rim" fill="#404040">
                        <set attributeName="fill" to="#808080" begin="arrowUp.mouseover" end="arrowUp.mouseout"/>
                  </use>
                  <path fill="none" stroke="white" stroke-width="1.5" d="M0,-3.0v7 M-2.5,-0.5L0,-3.0L2.5,-0.5"/>
                </g>
                <g id="arrowRight" xlink:href="#dirArrow" transform="rotate(90) translate(36 -43)" onmousedown="handlePan(1,0)">
                  <use xlink:href="#rim" fill="#404040">
                        <set attributeName="fill" to="#808080" begin="arrowRight.mouseover" end="arrowRight.mouseout"/>
                  </use>
                  <path fill="none" stroke="white" stroke-width="1.5" d="M0,-3.0v7 M-2.5,-0.5L0,-3.0L2.5,-0.5"/>
                </g>
                <g id="arrowDown" xlink:href="#dirArrow" transform="rotate(180) translate(-30 -48)" onmousedown="handlePan(0,1)">
                  <use xlink:href="#rim" fill="#404040">
                        <set attributeName="fill" to="#808080" begin="arrowDown.mouseover" end="arrowDown.mouseout"/>
                  </use>
                  <path fill="none" stroke="white" stroke-width="1.5" d="M0,-3.0v7 M-2.5,-0.5L0,-3.0L2.5,-0.5"/>
                </g>
                <g id="arrowLeft" xlink:href="#dirArrow" transform="rotate(270) translate(-36 17)" onmousedown="handlePan(-1,0)">
                  <use xlink:href="#rim" fill="#404040">
                        <set attributeName="fill" to="#808080" begin="arrowLeft.mouseover" end="arrowLeft.mouseout"/>
                  </use>
                  <path fill="none" stroke="white" stroke-width="1.5" d="M0,-3.0v7 M-2.5,-0.5L0,-3.0L2.5,-0.5"/>
                </g>
        </g>
        <svg viewBox="0 0 15 15" width="100%" height="30px" preserveAspectRatio="xMaxYMin meet">
         <g id="arrow_out" transform="scale(0.3 0.3)">
          <a xlink:href="classCoaXPressOverFiberBridge__inherit__graph_org.svg" target="_base">
           <rect id="button" ry="5" rx="5" y="6" x="6" height="38" width="38"
                fill="#f2f5e9" fill-opacity="0.5" stroke="#606060" stroke-width="1.0"/>
           <path id="arrow"
             d="M 11.500037,31.436501 C 11.940474,20.09759 22.043105,11.32322 32.158766,21.979434 L 37.068811,17.246167 C 37.068811,17.246167 37.088388,32 37.088388,32 L 22.160133,31.978069 C 22.160133,31.978069 26.997745,27.140456 26.997745,27.140456 C 18.528582,18.264221 13.291696,25.230495 11.500037,31.436501 z"
             style="fill:#404040;"/>
          </a>
         </g>
        </svg>
</svg>
