<?xml version="1.0" encoding="UTF-8" standalone="no"?>
<!DOCTYPE svg PUBLIC "-//W3C//DTD SVG 1.1//EN"
 "http://www.w3.org/Graphics/SVG/1.1/DTD/svg11.dtd">
<!-- Generated by graphviz version 2.43.0 (0)
 -->
<!-- Title: SimpleDualPortRamAlteraMf Pages: 1 -->
<svg width="501pt" height="196pt"
 viewBox="0.00 0.00 500.50 196.00" xmlns="http://www.w3.org/2000/svg" xmlns:xlink="http://www.w3.org/1999/xlink">
<g id="graph0" class="graph" transform="scale(1 1) rotate(0) translate(4 192)">
<title>SimpleDualPortRamAlteraMf</title>
<polygon fill="white" stroke="transparent" points="-4,4 -4,-192 496.5,-192 496.5,4 -4,4"/>
<!-- Node1 -->
<g id="node1" class="node">
<title>Node1</title>
<g id="a_node1"><a xlink:title=" ">
<polygon fill="#bfbfbf" stroke="black" points="155,-168.5 155,-187.5 312,-187.5 312,-168.5 155,-168.5"/>
<text text-anchor="middle" x="233.5" y="-175.5" font-family="Helvetica,sans-Serif" font-size="10.00">SimpleDualPortRamAlteraMf</text>
</a>
</g>
</g>
<!-- Node2 -->
<g id="node2" class="node">
<title>Node2</title>
<g id="a_node2"><a xlink:href="classAxiRam.html" target="_top" xlink:title=" ">
<polygon fill="white" stroke="black" points="101,-112.5 101,-131.5 156,-131.5 156,-112.5 101,-112.5"/>
<text text-anchor="middle" x="128.5" y="-119.5" font-family="Helvetica,sans-Serif" font-size="10.00">AxiRam</text>
</a>
</g>
</g>
<!-- Node1&#45;&gt;Node2 -->
<g id="edge1" class="edge">
<title>Node1&#45;&gt;Node2</title>
<path fill="none" stroke="midnightblue" d="M207.69,-163.73C188.25,-153.73 162.15,-140.31 145.33,-131.65"/>
<polygon fill="midnightblue" stroke="midnightblue" points="206.14,-166.86 216.63,-168.32 209.34,-160.64 206.14,-166.86"/>
</g>
<!-- Node6 -->
<g id="node6" class="node">
<title>Node6</title>
<g id="a_node6"><a xlink:href="classAxiStreamRingBuffer.html" target="_top" xlink:title=" ">
<polygon fill="white" stroke="black" points="174,-112.5 174,-131.5 293,-131.5 293,-112.5 174,-112.5"/>
<text text-anchor="middle" x="233.5" y="-119.5" font-family="Helvetica,sans-Serif" font-size="10.00">AxiStreamRingBuffer</text>
</a>
</g>
</g>
<!-- Node1&#45;&gt;Node6 -->
<g id="edge5" class="edge">
<title>Node1&#45;&gt;Node6</title>
<path fill="none" stroke="midnightblue" d="M233.5,-157.8C233.5,-148.91 233.5,-138.78 233.5,-131.75"/>
<polygon fill="midnightblue" stroke="midnightblue" points="230,-158.08 233.5,-168.08 237,-158.08 230,-158.08"/>
</g>
<!-- Node7 -->
<g id="node7" class="node">
<title>Node7</title>
<g id="a_node7"><a xlink:href="classRssiCore.html" target="_top" xlink:title=" ">
<polygon fill="white" stroke="black" points="311,-112.5 311,-131.5 370,-131.5 370,-112.5 311,-112.5"/>
<text text-anchor="middle" x="340.5" y="-119.5" font-family="Helvetica,sans-Serif" font-size="10.00">RssiCore</text>
</a>
</g>
</g>
<!-- Node1&#45;&gt;Node7 -->
<g id="edge6" class="edge">
<title>Node1&#45;&gt;Node7</title>
<path fill="none" stroke="midnightblue" d="M259.8,-163.73C279.61,-153.73 306.21,-140.31 323.35,-131.65"/>
<polygon fill="midnightblue" stroke="midnightblue" points="258.04,-160.69 250.69,-168.32 261.2,-166.94 258.04,-160.69"/>
</g>
<!-- Node3 -->
<g id="node3" class="node">
<title>Node3</title>
<g id="a_node3"><a xlink:href="classAxiRamTb.html" target="_top" xlink:title=" ">
<polygon fill="white" stroke="black" points="0,-56.5 0,-75.5 67,-75.5 67,-56.5 0,-56.5"/>
<text text-anchor="middle" x="33.5" y="-63.5" font-family="Helvetica,sans-Serif" font-size="10.00">AxiRamTb</text>
</a>
</g>
</g>
<!-- Node2&#45;&gt;Node3 -->
<g id="edge2" class="edge">
<title>Node2&#45;&gt;Node3</title>
<path fill="none" stroke="midnightblue" d="M104.18,-107.18C86.7,-97.24 63.67,-84.15 48.73,-75.65"/>
<polygon fill="midnightblue" stroke="midnightblue" points="102.81,-110.43 113.24,-112.32 106.27,-104.34 102.81,-110.43"/>
</g>
<!-- Node4 -->
<g id="node4" class="node">
<title>Node4</title>
<g id="a_node4"><a xlink:href="classAxiRssiCoreTb.html" target="_top" xlink:title=" ">
<polygon fill="white" stroke="black" points="85,-56.5 85,-75.5 172,-75.5 172,-56.5 85,-56.5"/>
<text text-anchor="middle" x="128.5" y="-63.5" font-family="Helvetica,sans-Serif" font-size="10.00">AxiRssiCoreTb</text>
</a>
</g>
</g>
<!-- Node2&#45;&gt;Node4 -->
<g id="edge3" class="edge">
<title>Node2&#45;&gt;Node4</title>
<path fill="none" stroke="midnightblue" d="M128.5,-101.8C128.5,-92.91 128.5,-82.78 128.5,-75.75"/>
<polygon fill="midnightblue" stroke="midnightblue" points="125,-102.08 128.5,-112.08 132,-102.08 125,-102.08"/>
</g>
<!-- Node5 -->
<g id="node5" class="node">
<title>Node5</title>
<g id="a_node5"><a xlink:href="classSrpV3AxiTb.html" target="_top" xlink:title=" ">
<polygon fill="white" stroke="black" points="190,-56.5 190,-75.5 263,-75.5 263,-56.5 190,-56.5"/>
<text text-anchor="middle" x="226.5" y="-63.5" font-family="Helvetica,sans-Serif" font-size="10.00">SrpV3AxiTb</text>
</a>
</g>
</g>
<!-- Node2&#45;&gt;Node5 -->
<g id="edge4" class="edge">
<title>Node2&#45;&gt;Node5</title>
<path fill="none" stroke="midnightblue" d="M153.09,-107.45C171.18,-97.48 195.23,-84.23 210.79,-75.65"/>
<polygon fill="midnightblue" stroke="midnightblue" points="151.31,-104.43 144.25,-112.32 154.69,-110.56 151.31,-104.43"/>
</g>
<!-- Node8 -->
<g id="node8" class="node">
<title>Node8</title>
<g id="a_node8"><a xlink:href="classRssiCoreWrapper.html" target="_top" xlink:title=" ">
<polygon fill="white" stroke="black" points="290,-56.5 290,-75.5 391,-75.5 391,-56.5 290,-56.5"/>
<text text-anchor="middle" x="340.5" y="-63.5" font-family="Helvetica,sans-Serif" font-size="10.00">RssiCoreWrapper</text>
</a>
</g>
</g>
<!-- Node7&#45;&gt;Node8 -->
<g id="edge7" class="edge">
<title>Node7&#45;&gt;Node8</title>
<path fill="none" stroke="midnightblue" d="M340.5,-101.8C340.5,-92.91 340.5,-82.78 340.5,-75.75"/>
<polygon fill="midnightblue" stroke="midnightblue" points="337,-102.08 340.5,-112.08 344,-102.08 337,-102.08"/>
</g>
<!-- Node9 -->
<g id="node9" class="node">
<title>Node9</title>
<g id="a_node9"><a xlink:href="classRawEthFramerTb.html" target="_top" xlink:title=" ">
<polygon fill="white" stroke="black" points="186.5,-0.5 186.5,-19.5 286.5,-19.5 286.5,-0.5 186.5,-0.5"/>
<text text-anchor="middle" x="236.5" y="-7.5" font-family="Helvetica,sans-Serif" font-size="10.00">RawEthFramerTb</text>
</a>
</g>
</g>
<!-- Node8&#45;&gt;Node9 -->
<g id="edge8" class="edge">
<title>Node8&#45;&gt;Node9</title>
<path fill="none" stroke="midnightblue" d="M314.67,-51.59C295.44,-41.61 269.76,-28.27 253.17,-19.65"/>
<polygon fill="midnightblue" stroke="midnightblue" points="313.3,-54.82 323.79,-56.32 316.53,-48.61 313.3,-54.82"/>
</g>
<!-- Node10 -->
<g id="node10" class="node">
<title>Node10</title>
<g id="a_node10"><a xlink:href="classRssiCoreTb.html" target="_top" xlink:title=" ">
<polygon fill="white" stroke="black" points="305,-0.5 305,-19.5 376,-19.5 376,-0.5 305,-0.5"/>
<text text-anchor="middle" x="340.5" y="-7.5" font-family="Helvetica,sans-Serif" font-size="10.00">RssiCoreTb</text>
</a>
</g>
</g>
<!-- Node8&#45;&gt;Node10 -->
<g id="edge9" class="edge">
<title>Node8&#45;&gt;Node10</title>
<path fill="none" stroke="midnightblue" d="M340.5,-45.8C340.5,-36.91 340.5,-26.78 340.5,-19.75"/>
<polygon fill="midnightblue" stroke="midnightblue" points="337,-46.08 340.5,-56.08 344,-46.08 337,-46.08"/>
</g>
<!-- Node11 -->
<g id="node11" class="node">
<title>Node11</title>
<g id="a_node11"><a xlink:href="classRssiInterleaveTb.html" target="_top" xlink:title=" ">
<polygon fill="white" stroke="black" points="394.5,-0.5 394.5,-19.5 492.5,-19.5 492.5,-0.5 394.5,-0.5"/>
<text text-anchor="middle" x="443.5" y="-7.5" font-family="Helvetica,sans-Serif" font-size="10.00">RssiInterleaveTb</text>
</a>
</g>
</g>
<!-- Node8&#45;&gt;Node11 -->
<g id="edge10" class="edge">
<title>Node8&#45;&gt;Node11</title>
<path fill="none" stroke="midnightblue" d="M366.08,-51.59C385.12,-41.61 410.56,-28.27 426.99,-19.65"/>
<polygon fill="midnightblue" stroke="midnightblue" points="364.28,-48.58 357.05,-56.32 367.53,-54.78 364.28,-48.58"/>
</g>
</g>
</svg>
