<?xml version="1.0" encoding="UTF-8" standalone="no"?>
<!DOCTYPE svg PUBLIC "-//W3C//DTD SVG 1.1//EN"
 "http://www.w3.org/Graphics/SVG/1.1/DTD/svg11.dtd">
<!-- Generated by graphviz version 2.43.0 (0)
 -->
<!-- Title: AxiStreamPacketizer2Wrapper Pages: 1 -->
<svg width="375pt" height="192pt"
 viewBox="0.00 0.00 374.50 192.00" xmlns="http://www.w3.org/2000/svg" xmlns:xlink="http://www.w3.org/1999/xlink">

<svg id="main" version="1.1" xmlns="http://www.w3.org/2000/svg" xmlns:xlink="http://www.w3.org/1999/xlink" xml:space="preserve" onload="init(evt)">
<style type="text/css"><![CDATA[
.node, .edge {opacity: 0.7;}
.node.selected, .edge.selected {opacity: 1;}
.edge:hover path { stroke: red; }
.edge:hover polygon { stroke: red; fill: red; }
]]></style>
<script type="application/ecmascript" xlink:href="svg.min.js"/>
<svg id="graph" class="graph">
<g id="graph0" class="graph" transform="scale(1 1) rotate(0) translate(4 188)">
<title>AxiStreamPacketizer2Wrapper</title>
<!-- Node1 -->
<g id="Node000001" class="node">
<title>Node1</title>
<g id="a_Node000001"><a xlink:title=" ">
<polygon fill="#999999" stroke="#666666" points="296.5,-19 132.5,-19 132.5,0 296.5,0 296.5,-19"/>
<text text-anchor="middle" x="214.5" y="-7" font-family="Helvetica,sans-Serif" font-size="10.00">AxiStreamPacketizer2Wrapper</text>
</a>
</g>
</g>
<!-- Node2 -->
<g id="Node000002" class="node">
<title>Node2</title>
<g id="a_Node000002"><a xlink:href="classAxiStreamPacketizer2.html" target="_top" xlink:title=" ">
<polygon fill="white" stroke="#bfbfbf" points="276,-74 153,-74 153,-55 276,-55 276,-74"/>
<text text-anchor="middle" x="214.5" y="-62" font-family="Helvetica,sans-Serif" font-size="10.00">AxiStreamPacketizer2</text>
</a>
</g>
</g>
<!-- Node2&#45;&gt;Node1 -->
<g id="edge1_Node000001_Node000002" class="edge">
<title>Node2&#45;&gt;Node1</title>
<g id="a_edge1_Node000001_Node000002"><a xlink:title=" ">
<path fill="none" stroke="#63b8ff" d="M214.5,-44.66C214.5,-35.93 214.5,-25.99 214.5,-19.09"/>
<polygon fill="#63b8ff" stroke="#63b8ff" points="211,-44.75 214.5,-54.75 218,-44.75 211,-44.75"/>
</a>
</g>
</g>
<!-- Node3 -->
<g id="Node000003" class="node">
<title>Node3</title>
<g id="a_Node000003"><a xlink:href="classAxiStreamPipeline.html" target="_top" xlink:title=" ">
<polygon fill="white" stroke="#bfbfbf" points="107,-129 0,-129 0,-110 107,-110 107,-129"/>
<text text-anchor="middle" x="53.5" y="-117" font-family="Helvetica,sans-Serif" font-size="10.00">AxiStreamPipeline</text>
</a>
</g>
</g>
<!-- Node3&#45;&gt;Node2 -->
<g id="edge2_Node000002_Node000003" class="edge">
<title>Node3&#45;&gt;Node2</title>
<g id="a_edge2_Node000002_Node000003"><a xlink:title=" ">
<path fill="none" stroke="#63b8ff" d="M89.05,-106.8C119.09,-96.91 161.44,-82.97 188.43,-74.08"/>
<polygon fill="#63b8ff" stroke="#63b8ff" points="87.77,-103.53 79.37,-109.98 89.96,-110.18 87.77,-103.53"/>
</a>
</g>
</g>
<!-- Node4 -->
<g id="Node000004" class="node">
<title>Node4</title>
<g id="a_Node000004"><a xlink:href="classDualPortRam.html" target="_top" xlink:title=" ">
<polygon fill="white" stroke="#bfbfbf" points="206,-129 125,-129 125,-110 206,-110 206,-129"/>
<text text-anchor="middle" x="165.5" y="-117" font-family="Helvetica,sans-Serif" font-size="10.00">DualPortRam</text>
</a>
</g>
</g>
<!-- Node4&#45;&gt;Node2 -->
<g id="edge3_Node000002_Node000004" class="edge">
<title>Node4&#45;&gt;Node2</title>
<g id="a_edge3_Node000002_Node000004"><a xlink:title=" ">
<path fill="none" stroke="#63b8ff" d="M180.53,-102.24C189.12,-92.95 199.54,-81.68 206.56,-74.09"/>
<polygon fill="#63b8ff" stroke="#63b8ff" points="177.81,-100.03 173.59,-109.75 182.95,-104.78 177.81,-100.03"/>
</a>
</g>
</g>
<!-- Node5 -->
<g id="Node000005" class="node">
<title>Node5</title>
<g id="a_Node000005"><a xlink:href="classTrueDualPortRamInferred.html" target="_top" xlink:title=" ">
<polygon fill="white" stroke="#bfbfbf" points="178.5,-184 38.5,-184 38.5,-165 178.5,-165 178.5,-184"/>
<text text-anchor="middle" x="108.5" y="-172" font-family="Helvetica,sans-Serif" font-size="10.00">TrueDualPortRamInferred</text>
</a>
</g>
</g>
<!-- Node5&#45;&gt;Node4 -->
<g id="edge4_Node000004_Node000005" class="edge">
<title>Node5&#45;&gt;Node4</title>
<g id="a_edge4_Node000004_Node000005"><a xlink:title=" ">
<path fill="none" stroke="#63b8ff" d="M125.12,-158.04C135.23,-148.64 147.78,-136.98 156.18,-129.17"/>
<polygon fill="#63b8ff" stroke="#63b8ff" points="122.6,-155.61 117.66,-164.98 127.36,-160.74 122.6,-155.61"/>
</a>
</g>
</g>
<!-- Node6 -->
<g id="Node000006" class="node">
<title>Node6</title>
<g id="a_Node000006"><a xlink:href="classLutRam.html" target="_top" xlink:title=" ">
<polygon fill="white" stroke="#bfbfbf" points="250.5,-184 196.5,-184 196.5,-165 250.5,-165 250.5,-184"/>
<text text-anchor="middle" x="223.5" y="-172" font-family="Helvetica,sans-Serif" font-size="10.00">LutRam</text>
</a>
</g>
</g>
<!-- Node6&#45;&gt;Node4 -->
<g id="edge5_Node000004_Node000006" class="edge">
<title>Node6&#45;&gt;Node4</title>
<g id="a_edge5_Node000004_Node000006"><a xlink:title=" ">
<path fill="none" stroke="#63b8ff" d="M206.59,-158.04C196.3,-148.64 183.53,-136.98 174.99,-129.17"/>
<polygon fill="#63b8ff" stroke="#63b8ff" points="204.44,-160.82 214.18,-164.98 209.16,-155.66 204.44,-160.82"/>
</a>
</g>
</g>
<!-- Node7 -->
<g id="Node000007" class="node">
<title>Node7</title>
<g id="a_Node000007"><a xlink:href="classCrc32Parallel.html" target="_top" xlink:title=" ">
<polygon fill="white" stroke="#bfbfbf" points="304.5,-129 224.5,-129 224.5,-110 304.5,-110 304.5,-129"/>
<text text-anchor="middle" x="264.5" y="-117" font-family="Helvetica,sans-Serif" font-size="10.00">Crc32Parallel</text>
</a>
</g>
</g>
<!-- Node7&#45;&gt;Node2 -->
<g id="edge6_Node000002_Node000007" class="edge">
<title>Node7&#45;&gt;Node2</title>
<g id="a_edge6_Node000002_Node000007"><a xlink:title=" ">
<path fill="none" stroke="#63b8ff" d="M249.16,-102.24C240.4,-92.95 229.76,-81.68 222.6,-74.09"/>
<polygon fill="#63b8ff" stroke="#63b8ff" points="246.84,-104.88 256.24,-109.75 251.93,-100.07 246.84,-104.88"/>
</a>
</g>
</g>
<!-- Node8 -->
<g id="Node000008" class="node">
<title>Node8</title>
<g id="a_Node000008"><a xlink:href="classCrc32.html" target="_top" xlink:title=" ">
<polygon fill="white" stroke="#bfbfbf" points="366.5,-129 322.5,-129 322.5,-110 366.5,-110 366.5,-129"/>
<text text-anchor="middle" x="344.5" y="-117" font-family="Helvetica,sans-Serif" font-size="10.00">Crc32</text>
</a>
</g>
</g>
<!-- Node8&#45;&gt;Node2 -->
<g id="edge7_Node000002_Node000008" class="edge">
<title>Node8&#45;&gt;Node2</title>
<g id="a_edge7_Node000002_Node000008"><a xlink:title=" ">
<path fill="none" stroke="#63b8ff" d="M314.23,-106.16C290.16,-96.35 257.1,-82.87 235.77,-74.17"/>
<polygon fill="#63b8ff" stroke="#63b8ff" points="313.03,-109.45 323.61,-109.98 315.67,-102.97 313.03,-109.45"/>
</a>
</g>
</g>
</g>
</svg>
</svg>

<style type='text/css'>
<![CDATA[
[data-mouse-over-selected='false'] { opacity: 0.7; }
[data-mouse-over-selected='true']  { opacity: 1.0; }
]]>
</style>
<script type="application/ecmascript"><![CDATA[
document.addEventListener('DOMContentLoaded', (event) => {
  highlightEdges();
  highlightAdjacentNodes();
});
]]></script>
</svg>
