<?xml version="1.0" encoding="UTF-8" standalone="no"?>
<!DOCTYPE svg PUBLIC "-//W3C//DTD SVG 1.1//EN"
 "http://www.w3.org/Graphics/SVG/1.1/DTD/svg11.dtd">
<!-- Generated by graphviz version 2.43.0 (0)
 -->
<!-- Title: SrpV3AxiTb Pages: 1 -->
<!--zoomable 519 -->

<svg id="main" version="1.1" xmlns="http://www.w3.org/2000/svg" xmlns:xlink="http://www.w3.org/1999/xlink" xml:space="preserve" onload="init(evt)">
<style type="text/css"><![CDATA[
.node, .edge {opacity: 0.7;}
.node.selected, .edge.selected {opacity: 1;}
.edge:hover path { stroke: red; }
.edge:hover polygon { stroke: red; fill: red; }
]]></style>

<defs>
  <circle id="rim" cx="0" cy="0" r="7"/>
  <circle id="rim2" cx="0" cy="0" r="3.5"/>
  <g id="zoomPlus">
    <use xlink:href="#rim" fill="#404040"><set attributeName="fill" to="#808080" begin="zoomplus.mouseover" end="zoomplus.mouseout"/></use>
    <path d="M-4,0h8M0,-4v8" fill="none" stroke="white" stroke-width="1.5" pointer-events="none"/>
  </g>
  <g id="zoomMin">
    <use xlink:href="#rim" fill="#404040"><set attributeName="fill" to="#808080" begin="zoomminus.mouseover" end="zoomminus.mouseout"/></use>
    <path d="M-4,0h8" fill="none" stroke="white" stroke-width="1.5" pointer-events="none"/>
  </g>
  <g id="arrowUp" transform="translate(30 24)">
    <use xlink:href="#rim"/>
    <path pointer-events="none" fill="none" stroke="white" stroke-width="1.5" d="M0,-3.0v7 M-2.5,-0.5L0,-3.0L2.5,-0.5"/>
  </g>
  <g id="arrowRight" transform="rotate(90) translate(36 -43)">
    <use xlink:href="#rim"/>
    <path pointer-events="none" fill="none" stroke="white" stroke-width="1.5" d="M0,-3.0v7 M-2.5,-0.5L0,-3.0L2.5,-0.5"/>
  </g>
  <g id="arrowDown" transform="rotate(180) translate(-30 -48)">
    <use xlink:href="#rim"/>
    <path pointer-events="none" fill="none" stroke="white" stroke-width="1.5" d="M0,-3.0v7 M-2.5,-0.5L0,-3.0L2.5,-0.5"/>
  </g>
  <g id="arrowLeft" transform="rotate(270) translate(-36 17)">
    <use xlink:href="#rim"/>
    <path pointer-events="none" fill="none" stroke="white" stroke-width="1.5" d="M0,-3.0v7 M-2.5,-0.5L0,-3.0L2.5,-0.5"/>
  </g>
  <g id="resetDef">
    <use xlink:href="#rim2" fill="#404040"><set attributeName="fill" to="#808080" begin="reset.mouseover" end="reset.mouseout"/></use>
  </g>
</defs>
<script type="application/ecmascript">
var viewWidth = 1325;
var viewHeight = 519;
var sectionId = 'dynsection-0';
</script>
<script type="application/ecmascript" xlink:href="svg.min.js"/>
<svg id="graph" class="graph">
<g id="viewport">
<title>SrpV3AxiTb</title>
<!-- Node1 -->
<g id="Node000001" class="node">
<title>Node1</title>
<g id="a_Node000001"><a xlink:title=" ">
<polygon fill="#999999" stroke="#666666" points="1317,-473 1244,-473 1244,-454 1317,-454 1317,-473"/>
<text text-anchor="middle" x="1280.5" y="-461" font-family="Helvetica,sans-Serif" font-size="10.00">SrpV3AxiTb</text>
</a>
</g>
</g>
<!-- Node2 -->
<g id="Node000002" class="node">
<title>Node2</title>
<g id="a_Node000002"><a xlink:href="classClkRst.html" target="_top" xlink:title=" ">
<polygon fill="white" stroke="#bfbfbf" points="1201.5,-511 1153.5,-511 1153.5,-492 1201.5,-492 1201.5,-511"/>
<text text-anchor="middle" x="1177.5" y="-499" font-family="Helvetica,sans-Serif" font-size="10.00">ClkRst</text>
</a>
</g>
</g>
<!-- Node2&#45;&gt;Node1 -->
<g id="edge1_Node000001_Node000002" class="edge">
<title>Node2&#45;&gt;Node1</title>
<g id="a_edge1_Node000001_Node000002"><a xlink:title=" ">
<path fill="none" stroke="#63b8ff" d="M1211.32,-489.15C1225.15,-483.95 1241.01,-477.98 1253.95,-473.11"/>
<polygon fill="#63b8ff" stroke="#63b8ff" points="1209.8,-485.98 1201.67,-492.78 1212.26,-492.54 1209.8,-485.98"/>
</a>
</g>
</g>
<!-- Node3 -->
<g id="Node000003" class="node">
<title>Node3</title>
<g id="a_Node000003"><a xlink:href="classAxiRam.html" target="_top" xlink:title=" ">
<polygon fill="white" stroke="#bfbfbf" points="397,-434 342,-434 342,-415 397,-415 397,-434"/>
<text text-anchor="middle" x="369.5" y="-422" font-family="Helvetica,sans-Serif" font-size="10.00">AxiRam</text>
</a>
</g>
</g>
<!-- Node3&#45;&gt;Node1 -->
<g id="edge2_Node000001_Node000003" class="edge">
<title>Node3&#45;&gt;Node1</title>
<g id="a_edge2_Node000001_Node000003"><a xlink:title=" ">
<path fill="none" stroke="#63b8ff" d="M407.29,-432.7C461.91,-444.14 567.83,-463.5 659,-463.5 659,-463.5 659,-463.5 1078,-463.5 1136.07,-463.5 1203.56,-463.5 1243.83,-463.5"/>
<polygon fill="#63b8ff" stroke="#63b8ff" points="407.89,-429.25 397.38,-430.59 406.44,-436.1 407.89,-429.25"/>
</a>
</g>
</g>
<!-- Node4 -->
<g id="Node000004" class="node">
<title>Node4</title>
<g id="a_Node000004"><a xlink:href="classSimpleDualPortRamXpm.html" target="_top" xlink:title=" ">
<polygon fill="white" stroke="#bfbfbf" points="263,-416 126,-416 126,-397 263,-397 263,-416"/>
<text text-anchor="middle" x="194.5" y="-404" font-family="Helvetica,sans-Serif" font-size="10.00">SimpleDualPortRamXpm</text>
</a>
</g>
</g>
<!-- Node4&#45;&gt;Node3 -->
<g id="edge3_Node000003_Node000004" class="edge">
<title>Node4&#45;&gt;Node3</title>
<g id="a_edge3_Node000003_Node000004"><a xlink:title=" ">
<path fill="none" stroke="#63b8ff" d="M273.45,-414.61C297.98,-417.16 323.44,-419.81 341.83,-421.73"/>
<polygon fill="#63b8ff" stroke="#63b8ff" points="273.69,-411.12 263.38,-413.56 272.96,-418.08 273.69,-411.12"/>
</a>
</g>
</g>
<!-- Node5 -->
<g id="Node000005" class="node">
<title>Node5</title>
<g id="a_Node000005"><a xlink:href="classSimpleDualPortRamAlteraMf.html" target="_top" xlink:title=" ">
<polygon fill="white" stroke="#bfbfbf" points="273,-453 116,-453 116,-434 273,-434 273,-453"/>
<text text-anchor="middle" x="194.5" y="-441" font-family="Helvetica,sans-Serif" font-size="10.00">SimpleDualPortRamAlteraMf</text>
</a>
</g>
</g>
<!-- Node5&#45;&gt;Node3 -->
<g id="edge4_Node000003_Node000005" class="edge">
<title>Node5&#45;&gt;Node3</title>
<g id="a_edge4_Node000003_Node000005"><a xlink:title=" ">
<path fill="none" stroke="#63b8ff" d="M283.27,-433.86C304.62,-431.52 325.86,-429.18 341.8,-427.43"/>
<polygon fill="#63b8ff" stroke="#63b8ff" points="282.7,-430.4 273.14,-434.97 283.47,-437.36 282.7,-430.4"/>
</a>
</g>
</g>
<!-- Node6 -->
<g id="Node000006" class="node">
<title>Node6</title>
<g id="a_Node000006"><a xlink:href="classSimpleDualPortRam.html" target="_top" xlink:title=" ">
<polygon fill="white" stroke="#bfbfbf" points="252,-319 137,-319 137,-300 252,-300 252,-319"/>
<text text-anchor="middle" x="194.5" y="-307" font-family="Helvetica,sans-Serif" font-size="10.00">SimpleDualPortRam</text>
</a>
</g>
</g>
<!-- Node6&#45;&gt;Node3 -->
<g id="edge5_Node000003_Node000006" class="edge">
<title>Node6&#45;&gt;Node3</title>
<g id="a_edge5_Node000003_Node000006"><a xlink:title=" ">
<path fill="none" stroke="#63b8ff" d="M218.36,-324.7C254.42,-348.67 323.5,-394.58 353.72,-414.68"/>
<polygon fill="#63b8ff" stroke="#63b8ff" points="220.22,-321.73 209.95,-319.11 216.34,-327.56 220.22,-321.73"/>
</a>
</g>
</g>
<!-- Node22 -->
<g id="Node000022" class="node">
<title>Node22</title>
<g id="a_Node000022"><a xlink:href="classFifoAsync.html" target="_top" xlink:title=" ">
<polygon fill="white" stroke="#bfbfbf" points="401.5,-207 337.5,-207 337.5,-188 401.5,-188 401.5,-207"/>
<text text-anchor="middle" x="369.5" y="-195" font-family="Helvetica,sans-Serif" font-size="10.00">FifoAsync</text>
</a>
</g>
</g>
<!-- Node6&#45;&gt;Node22 -->
<g id="edge29_Node000022_Node000006" class="edge">
<title>Node6&#45;&gt;Node22</title>
<g id="a_edge29_Node000022_Node000006"><a xlink:title=" ">
<path fill="none" stroke="#63b8ff" d="M261.37,-298.78C265.51,-296.74 269.44,-294.34 273,-291.5 301.6,-268.7 281.53,-241.65 309,-217.5 316.94,-210.52 327.4,-205.96 337.34,-202.98"/>
<polygon fill="#63b8ff" stroke="#63b8ff" points="259.91,-295.6 252.02,-302.68 262.6,-302.06 259.91,-295.6"/>
</a>
</g>
</g>
<!-- Node26 -->
<g id="Node000026" class="node">
<title>Node26</title>
<g id="a_Node000026"><a xlink:href="classFifoSync.html" target="_top" xlink:title=" ">
<polygon fill="white" stroke="#bfbfbf" points="398.5,-245 340.5,-245 340.5,-226 398.5,-226 398.5,-245"/>
<text text-anchor="middle" x="369.5" y="-233" font-family="Helvetica,sans-Serif" font-size="10.00">FifoSync</text>
</a>
</g>
</g>
<!-- Node6&#45;&gt;Node26 -->
<g id="edge34_Node000026_Node000006" class="edge">
<title>Node6&#45;&gt;Node26</title>
<g id="a_edge34_Node000026_Node000006"><a xlink:title=" ">
<path fill="none" stroke="#63b8ff" d="M256.28,-297.25C262,-295.54 267.66,-293.63 273,-291.5 304.24,-279.05 337.4,-257.45 355.25,-245.03"/>
<polygon fill="#63b8ff" stroke="#63b8ff" points="255.31,-293.89 246.62,-299.94 257.19,-300.63 255.31,-293.89"/>
</a>
</g>
</g>
<!-- Node7 -->
<g id="Node000007" class="node">
<title>Node7</title>
<g id="a_Node000007"><a xlink:href="classSrpV3Axi.html" target="_top" xlink:title=" ">
<polygon fill="white" stroke="#bfbfbf" points="1208,-350 1147,-350 1147,-331 1208,-331 1208,-350"/>
<text text-anchor="middle" x="1177.5" y="-338" font-family="Helvetica,sans-Serif" font-size="10.00">SrpV3Axi</text>
</a>
</g>
</g>
<!-- Node7&#45;&gt;Node1 -->
<g id="edge6_Node000001_Node000007" class="edge">
<title>Node7&#45;&gt;Node1</title>
<g id="a_edge6_Node000001_Node000007"><a xlink:title=" ">
<path fill="none" stroke="#63b8ff" d="M1193,-358.16C1214.65,-384.53 1254.68,-433.28 1271.61,-453.89"/>
<polygon fill="#63b8ff" stroke="#63b8ff" points="1195.48,-355.66 1186.43,-350.15 1190.07,-360.1 1195.48,-355.66"/>
</a>
</g>
</g>
<!-- Node8 -->
<g id="Node000008" class="node">
<title>Node8</title>
<g id="a_Node000008"><a xlink:href="classSrpV3Core.html" target="_top" xlink:title=" ">
<polygon fill="white" stroke="#bfbfbf" points="1111,-169 1043,-169 1043,-150 1111,-150 1111,-169"/>
<text text-anchor="middle" x="1077" y="-157" font-family="Helvetica,sans-Serif" font-size="10.00">SrpV3Core</text>
</a>
</g>
</g>
<!-- Node8&#45;&gt;Node7 -->
<g id="edge7_Node000007_Node000008" class="edge">
<title>Node8&#45;&gt;Node7</title>
<g id="a_edge7_Node000007_Node000008"><a xlink:title=" ">
<path fill="none" stroke="#63b8ff" d="M1088.2,-178.25C1108.95,-216.38 1155.44,-301.81 1171.18,-330.72"/>
<polygon fill="#63b8ff" stroke="#63b8ff" points="1091.15,-176.34 1083.3,-169.23 1085,-179.69 1091.15,-176.34"/>
</a>
</g>
</g>
<!-- Node9 -->
<g id="Node000009" class="node">
<title>Node9</title>
<g id="a_Node000009"><a xlink:href="classSsiFifo.html" target="_top" xlink:title=" ">
<polygon fill="white" stroke="#bfbfbf" points="973,-169 924,-169 924,-150 973,-150 973,-169"/>
<text text-anchor="middle" x="948.5" y="-157" font-family="Helvetica,sans-Serif" font-size="10.00">SsiFifo</text>
</a>
</g>
</g>
<!-- Node9&#45;&gt;Node8 -->
<g id="edge8_Node000008_Node000009" class="edge">
<title>Node9&#45;&gt;Node8</title>
<g id="a_edge8_Node000008_Node000009"><a xlink:title=" ">
<path fill="none" stroke="#63b8ff" d="M983.3,-159.5C1001.72,-159.5 1024.44,-159.5 1042.77,-159.5"/>
<polygon fill="#63b8ff" stroke="#63b8ff" points="983.29,-156 973.29,-159.5 983.29,-163 983.29,-156"/>
</a>
</g>
</g>
<!-- Node10 -->
<g id="Node000010" class="node">
<title>Node10</title>
<g id="a_Node000010"><a xlink:href="classSsiIbFrameFilter.html" target="_top" xlink:title=" ">
<polygon fill="white" stroke="#bfbfbf" points="851.5,-170 756.5,-170 756.5,-151 851.5,-151 851.5,-170"/>
<text text-anchor="middle" x="804" y="-158" font-family="Helvetica,sans-Serif" font-size="10.00">SsiIbFrameFilter</text>
</a>
</g>
</g>
<!-- Node10&#45;&gt;Node9 -->
<g id="edge9_Node000009_Node000010" class="edge">
<title>Node10&#45;&gt;Node9</title>
<g id="a_edge9_Node000009_Node000010"><a xlink:title=" ">
<path fill="none" stroke="#63b8ff" d="M861.79,-160.1C883.47,-159.95 907.03,-159.78 923.94,-159.67"/>
<polygon fill="#63b8ff" stroke="#63b8ff" points="861.63,-156.6 851.66,-160.17 861.68,-163.6 861.63,-156.6"/>
</a>
</g>
</g>
<!-- Node11 -->
<g id="Node000011" class="node">
<title>Node11</title>
<g id="a_Node000011"><a xlink:href="classAxiStreamFifoV2.html" target="_top" xlink:title=" ">
<polygon fill="white" stroke="#bfbfbf" points="853,-207 755,-207 755,-188 853,-188 853,-207"/>
<text text-anchor="middle" x="804" y="-195" font-family="Helvetica,sans-Serif" font-size="10.00">AxiStreamFifoV2</text>
</a>
</g>
</g>
<!-- Node11&#45;&gt;Node8 -->
<g id="edge45_Node000008_Node000011" class="edge">
<title>Node11&#45;&gt;Node8</title>
<g id="a_edge45_Node000008_Node000011"><a xlink:title=" ">
<path fill="none" stroke="#63b8ff" d="M863.06,-194.74C903.63,-192.15 958.93,-187.31 1007,-178.5 1019.83,-176.15 1033.75,-172.53 1045.7,-169.08"/>
<polygon fill="#63b8ff" stroke="#63b8ff" points="862.84,-191.24 853.08,-195.35 863.27,-198.23 862.84,-191.24"/>
</a>
</g>
</g>
<!-- Node11&#45;&gt;Node9 -->
<g id="edge10_Node000009_Node000011" class="edge">
<title>Node11&#45;&gt;Node9</title>
<g id="a_edge10_Node000009_Node000011"><a xlink:title=" ">
<path fill="none" stroke="#63b8ff" d="M850.69,-185.31C874.96,-178.84 903.79,-171.16 923.64,-165.86"/>
<polygon fill="#63b8ff" stroke="#63b8ff" points="849.72,-181.95 840.96,-187.91 851.52,-188.72 849.72,-181.95"/>
</a>
</g>
</g>
<!-- Node30 -->
<g id="Node000030" class="node">
<title>Node30</title>
<g id="a_Node000030"><a xlink:href="classAxiStreamDmaWrite.html" target="_top" xlink:title=" ">
<polygon fill="white" stroke="#bfbfbf" points="1007,-302 890,-302 890,-283 1007,-283 1007,-302"/>
<text text-anchor="middle" x="948.5" y="-290" font-family="Helvetica,sans-Serif" font-size="10.00">AxiStreamDmaWrite</text>
</a>
</g>
</g>
<!-- Node11&#45;&gt;Node30 -->
<g id="edge49_Node000030_Node000011" class="edge">
<title>Node11&#45;&gt;Node30</title>
<g id="a_edge49_Node000030_Node000011"><a xlink:title=" ">
<path fill="none" stroke="#63b8ff" d="M836.19,-211.64C842.21,-214.69 848.39,-218.04 854,-221.5 885.4,-240.86 919.14,-268.34 936.21,-282.77"/>
<polygon fill="#63b8ff" stroke="#63b8ff" points="837.47,-208.38 826.95,-207.14 834.4,-214.67 837.47,-208.38"/>
</a>
</g>
</g>
<!-- Node12 -->
<g id="Node000012" class="node">
<title>Node12</title>
<g id="a_Node000012"><a xlink:href="classAxiStreamGearbox.html" target="_top" xlink:title=" ">
<polygon fill="white" stroke="#bfbfbf" points="714.5,-321 605.5,-321 605.5,-302 714.5,-302 714.5,-321"/>
<text text-anchor="middle" x="660" y="-309" font-family="Helvetica,sans-Serif" font-size="10.00">AxiStreamGearbox</text>
</a>
</g>
</g>
<!-- Node12&#45;&gt;Node11 -->
<g id="edge11_Node000011_Node000012" class="edge">
<title>Node12&#45;&gt;Node11</title>
<g id="a_edge11_Node000011_Node000012"><a xlink:title=" ">
<path fill="none" stroke="#63b8ff" d="M699.41,-297.93C705.87,-294.93 712.31,-291.45 718,-287.5 751.91,-263.99 782.77,-225.12 796.08,-207.15"/>
<polygon fill="#63b8ff" stroke="#63b8ff" points="697.83,-294.8 690.04,-301.98 700.61,-301.22 697.83,-294.8"/>
</a>
</g>
</g>
<!-- Node13 -->
<g id="Node000013" class="node">
<title>Node13</title>
<g id="a_Node000013"><a xlink:href="classAxiStreamResize.html" target="_top" xlink:title=" ">
<polygon fill="white" stroke="#bfbfbf" points="566,-321 466,-321 466,-302 566,-302 566,-321"/>
<text text-anchor="middle" x="516" y="-309" font-family="Helvetica,sans-Serif" font-size="10.00">AxiStreamResize</text>
</a>
</g>
</g>
<!-- Node13&#45;&gt;Node12 -->
<g id="edge12_Node000012_Node000013" class="edge">
<title>Node13&#45;&gt;Node12</title>
<g id="a_edge12_Node000012_Node000013"><a xlink:title=" ">
<path fill="none" stroke="#63b8ff" d="M576.53,-311.5C586.13,-311.5 596.01,-311.5 605.46,-311.5"/>
<polygon fill="#63b8ff" stroke="#63b8ff" points="576.27,-308 566.27,-311.5 576.27,-315 576.27,-308"/>
</a>
</g>
</g>
<!-- Node14 -->
<g id="Node000014" class="node">
<title>Node14</title>
<g id="a_Node000014"><a xlink:href="classAxiStreamPipeline.html" target="_top" xlink:title=" ">
<polygon fill="white" stroke="#bfbfbf" points="423,-340 316,-340 316,-321 423,-321 423,-340"/>
<text text-anchor="middle" x="369.5" y="-328" font-family="Helvetica,sans-Serif" font-size="10.00">AxiStreamPipeline</text>
</a>
</g>
</g>
<!-- Node14&#45;&gt;Node11 -->
<g id="edge37_Node000011_Node000014" class="edge">
<title>Node14&#45;&gt;Node11</title>
<g id="a_edge37_Node000011_Node000014"><a xlink:title=" ">
<path fill="none" stroke="#63b8ff" d="M402.81,-317.13C421.18,-309.74 444.71,-300.64 466,-293.5 573.28,-257.52 702.57,-223.15 765.25,-207.04"/>
<polygon fill="#63b8ff" stroke="#63b8ff" points="401.39,-313.93 393.44,-320.93 404.02,-320.41 401.39,-313.93"/>
</a>
</g>
</g>
<!-- Node14&#45;&gt;Node12 -->
<g id="edge14_Node000012_Node000014" class="edge">
<title>Node14&#45;&gt;Node12</title>
<g id="a_edge14_Node000012_Node000014"><a xlink:title=" ">
<path fill="none" stroke="#63b8ff" d="M433.34,-333.7C471.75,-334.87 521.83,-334.97 566,-330.5 584.36,-328.64 604.46,-324.77 621.26,-321.01"/>
<polygon fill="#63b8ff" stroke="#63b8ff" points="433.45,-330.21 423.33,-333.37 433.21,-337.2 433.45,-330.21"/>
</a>
</g>
</g>
<!-- Node14&#45;&gt;Node13 -->
<g id="edge13_Node000013_Node000014" class="edge">
<title>Node14&#45;&gt;Node13</title>
<g id="a_edge13_Node000013_Node000014"><a xlink:title=" ">
<path fill="none" stroke="#63b8ff" d="M433.31,-322.24C444.12,-320.82 455.2,-319.36 465.59,-318"/>
<polygon fill="#63b8ff" stroke="#63b8ff" points="432.53,-318.81 423.08,-323.59 433.45,-325.75 432.53,-318.81"/>
</a>
</g>
</g>
<!-- Node27 -->
<g id="Node000027" class="node">
<title>Node27</title>
<g id="a_Node000027"><a xlink:href="classSsiObFrameFilter.html" target="_top" xlink:title=" ">
<polygon fill="white" stroke="#bfbfbf" points="854,-133 754,-133 754,-114 854,-114 854,-133"/>
<text text-anchor="middle" x="804" y="-121" font-family="Helvetica,sans-Serif" font-size="10.00">SsiObFrameFilter</text>
</a>
</g>
</g>
<!-- Node14&#45;&gt;Node27 -->
<g id="edge39_Node000027_Node000014" class="edge">
<title>Node14&#45;&gt;Node27</title>
<g id="a_edge39_Node000027_Node000014"><a xlink:title=" ">
<path fill="none" stroke="#63b8ff" d="M388.41,-314.02C406.72,-297.93 436.56,-273.7 466,-258.5 469.26,-256.82 714.86,-180.41 718,-178.5 737.33,-166.74 735.04,-154.86 754,-142.5 759.66,-138.81 766.14,-135.67 772.49,-133.06"/>
<polygon fill="#63b8ff" stroke="#63b8ff" points="385.98,-311.5 380.86,-320.78 390.64,-316.72 385.98,-311.5"/>
</a>
</g>
</g>
<!-- Node31 -->
<g id="Node000031" class="node">
<title>Node31</title>
<g id="a_Node000031"><a xlink:href="classAxiStreamShift.html" target="_top" xlink:title=" ">
<polygon fill="white" stroke="#bfbfbf" points="560.5,-397 471.5,-397 471.5,-378 560.5,-378 560.5,-397"/>
<text text-anchor="middle" x="516" y="-385" font-family="Helvetica,sans-Serif" font-size="10.00">AxiStreamShift</text>
</a>
</g>
</g>
<!-- Node14&#45;&gt;Node31 -->
<g id="edge48_Node000031_Node000014" class="edge">
<title>Node14&#45;&gt;Node31</title>
<g id="a_edge48_Node000031_Node000014"><a xlink:title=" ">
<path fill="none" stroke="#63b8ff" d="M404.32,-343.84C430.82,-354.3 467.05,-368.59 490.74,-377.93"/>
<polygon fill="#63b8ff" stroke="#63b8ff" points="405.27,-340.45 394.69,-340.04 402.7,-346.97 405.27,-340.45"/>
</a>
</g>
</g>
<!-- Node32 -->
<g id="Node000032" class="node">
<title>Node32</title>
<g id="a_Node000032"><a xlink:href="classAxiStreamDmaRead.html" target="_top" xlink:title=" ">
<polygon fill="white" stroke="#bfbfbf" points="718,-397 602,-397 602,-378 718,-378 718,-397"/>
<text text-anchor="middle" x="660" y="-385" font-family="Helvetica,sans-Serif" font-size="10.00">AxiStreamDmaRead</text>
</a>
</g>
</g>
<!-- Node14&#45;&gt;Node32 -->
<g id="edge52_Node000032_Node000014" class="edge">
<title>Node14&#45;&gt;Node32</title>
<g id="a_edge52_Node000032_Node000014"><a xlink:title=" ">
<path fill="none" stroke="#63b8ff" d="M385.18,-347.65C402.36,-366.26 432.72,-394.87 466,-406.5 522.9,-426.38 594.59,-409.17 632.56,-397.02"/>
<polygon fill="#63b8ff" stroke="#63b8ff" points="387.73,-345.25 378.45,-340.13 382.51,-349.92 387.73,-345.25"/>
</a>
</g>
</g>
<!-- Node15 -->
<g id="Node000015" class="node">
<title>Node15</title>
<g id="a_Node000015"><a xlink:href="classFifoCascade.html" target="_top" xlink:title=" ">
<polygon fill="white" stroke="#bfbfbf" points="698,-169 622,-169 622,-150 698,-150 698,-169"/>
<text text-anchor="middle" x="660" y="-157" font-family="Helvetica,sans-Serif" font-size="10.00">FifoCascade</text>
</a>
</g>
</g>
<!-- Node15&#45;&gt;Node11 -->
<g id="edge15_Node000011_Node000015" class="edge">
<title>Node15&#45;&gt;Node11</title>
<g id="a_edge15_Node000011_Node000015"><a xlink:title=" ">
<path fill="none" stroke="#63b8ff" d="M706.49,-171.67C726.13,-176.93 748.77,-182.99 767.18,-187.91"/>
<polygon fill="#63b8ff" stroke="#63b8ff" points="707.4,-168.29 696.83,-169.09 705.59,-175.06 707.4,-168.29"/>
</a>
</g>
</g>
<!-- Node16 -->
<g id="Node000016" class="node">
<title>Node16</title>
<g id="a_Node000016"><a xlink:href="classFifo.html" target="_top" xlink:title=" ">
<polygon fill="white" stroke="#bfbfbf" points="533.5,-169 498.5,-169 498.5,-150 533.5,-150 533.5,-169"/>
<text text-anchor="middle" x="516" y="-157" font-family="Helvetica,sans-Serif" font-size="10.00">Fifo</text>
</a>
</g>
</g>
<!-- Node16&#45;&gt;Node15 -->
<g id="edge16_Node000015_Node000016" class="edge">
<title>Node16&#45;&gt;Node15</title>
<g id="a_edge16_Node000015_Node000016"><a xlink:title=" ">
<path fill="none" stroke="#63b8ff" d="M543.86,-159.5C565.91,-159.5 597.38,-159.5 621.84,-159.5"/>
<polygon fill="#63b8ff" stroke="#63b8ff" points="543.57,-156 533.57,-159.5 543.57,-163 543.57,-156"/>
</a>
</g>
</g>
<!-- Node17 -->
<g id="Node000017" class="node">
<title>Node17</title>
<g id="a_Node000017"><a xlink:href="classFifoXpm.html" target="_top" xlink:title=" ">
<polygon fill="white" stroke="#bfbfbf" points="398,-133 341,-133 341,-114 398,-114 398,-133"/>
<text text-anchor="middle" x="369.5" y="-121" font-family="Helvetica,sans-Serif" font-size="10.00">FifoXpm</text>
</a>
</g>
</g>
<!-- Node17&#45;&gt;Node16 -->
<g id="edge17_Node000016_Node000017" class="edge">
<title>Node17&#45;&gt;Node16</title>
<g id="a_edge17_Node000016_Node000017"><a xlink:title=" ">
<path fill="none" stroke="#63b8ff" d="M407.91,-132.82C437.17,-140.11 476.45,-149.9 498.39,-155.36"/>
<polygon fill="#63b8ff" stroke="#63b8ff" points="408.57,-129.38 398.02,-130.36 406.88,-136.17 408.57,-129.38"/>
</a>
</g>
</g>
<!-- Node18 -->
<g id="Node000018" class="node">
<title>Node18</title>
<g id="a_Node000018"><a xlink:href="classRstSync.html" target="_top" xlink:title=" ">
<polygon fill="white" stroke="#bfbfbf" points="222.5,-95 166.5,-95 166.5,-76 222.5,-76 222.5,-95"/>
<text text-anchor="middle" x="194.5" y="-83" font-family="Helvetica,sans-Serif" font-size="10.00">RstSync</text>
</a>
</g>
</g>
<!-- Node18&#45;&gt;Node17 -->
<g id="edge18_Node000017_Node000018" class="edge">
<title>Node18&#45;&gt;Node17</title>
<g id="a_edge18_Node000017_Node000018"><a xlink:title=" ">
<path fill="none" stroke="#63b8ff" d="M232.54,-93.64C265,-100.77 311.47,-110.97 340.8,-117.42"/>
<polygon fill="#63b8ff" stroke="#63b8ff" points="233.05,-90.16 222.53,-91.44 231.55,-97 233.05,-90.16"/>
</a>
</g>
</g>
<!-- Node18&#45;&gt;Node22 -->
<g id="edge24_Node000022_Node000018" class="edge">
<title>Node18&#45;&gt;Node22</title>
<g id="a_edge24_Node000022_Node000018"><a xlink:title=" ">
<path fill="none" stroke="#63b8ff" d="M233.04,-88.01C246.81,-90.55 261.77,-95.39 273,-104.5 301.71,-127.8 280.92,-155.44 309,-179.5 316.95,-186.31 327.42,-190.55 337.35,-193.18"/>
<polygon fill="#63b8ff" stroke="#63b8ff" points="233.22,-84.5 222.81,-86.49 232.18,-91.42 233.22,-84.5"/>
</a>
</g>
</g>
<!-- Node28 -->
<g id="Node000028" class="node">
<title>Node28</title>
<g id="a_Node000028"><a xlink:href="classSynchronizerOneShot.html" target="_top" xlink:title=" ">
<polygon fill="white" stroke="#bfbfbf" points="430,-19 309,-19 309,0 430,0 430,-19"/>
<text text-anchor="middle" x="369.5" y="-7" font-family="Helvetica,sans-Serif" font-size="10.00">SynchronizerOneShot</text>
</a>
</g>
</g>
<!-- Node18&#45;&gt;Node28 -->
<g id="edge42_Node000028_Node000018" class="edge">
<title>Node18&#45;&gt;Node28</title>
<g id="a_edge42_Node000028_Node000018"><a xlink:title=" ">
<path fill="none" stroke="#63b8ff" d="M226.61,-71.83C261.28,-56.6 316.45,-32.37 346.77,-19.05"/>
<polygon fill="#63b8ff" stroke="#63b8ff" points="225.16,-68.65 217.41,-75.87 227.97,-75.06 225.16,-68.65"/>
</a>
</g>
</g>
<!-- Node19 -->
<g id="Node000019" class="node">
<title>Node19</title>
<g id="a_Node000019"><a xlink:href="classSynchronizer.html" target="_top" xlink:title=" ">
<polygon fill="white" stroke="#bfbfbf" points="80,-76 0,-76 0,-57 80,-57 80,-76"/>
<text text-anchor="middle" x="40" y="-64" font-family="Helvetica,sans-Serif" font-size="10.00">Synchronizer</text>
</a>
</g>
</g>
<!-- Node19&#45;&gt;Node11 -->
<g id="edge36_Node000011_Node000019" class="edge">
<title>Node19&#45;&gt;Node11</title>
<g id="a_edge36_Node000011_Node000019"><a xlink:title=" ">
<path fill="none" stroke="#63b8ff" d="M90.23,-61.86C154.27,-56.24 269.64,-47.5 368.5,-47.5 368.5,-47.5 368.5,-47.5 517,-47.5 615.62,-47.5 638.02,-83.8 718,-141.5 736.87,-155.11 734.57,-166.71 754,-179.5 759,-182.79 764.67,-185.58 770.35,-187.91"/>
<polygon fill="#63b8ff" stroke="#63b8ff" points="89.68,-58.4 80.03,-62.77 90.3,-65.37 89.68,-58.4"/>
</a>
</g>
</g>
<!-- Node19&#45;&gt;Node18 -->
<g id="edge19_Node000018_Node000019" class="edge">
<title>Node19&#45;&gt;Node18</title>
<g id="a_edge19_Node000018_Node000019"><a xlink:title=" ">
<path fill="none" stroke="#63b8ff" d="M90.41,-72.66C115.63,-75.8 145.34,-79.5 166.38,-82.12"/>
<polygon fill="#63b8ff" stroke="#63b8ff" points="90.63,-69.16 80.27,-71.39 89.76,-76.1 90.63,-69.16"/>
</a>
</g>
</g>
<!-- Node19&#45;&gt;Node22 -->
<g id="edge26_Node000022_Node000019" class="edge">
<title>Node19&#45;&gt;Node22</title>
<g id="a_edge26_Node000022_Node000019"><a xlink:title=" ">
<path fill="none" stroke="#63b8ff" d="M47.7,-85.72C57.93,-111.8 80.11,-157.57 116,-178.5 186.26,-219.47 286.83,-211.15 337.22,-203.38"/>
<polygon fill="#63b8ff" stroke="#63b8ff" points="50.92,-84.32 44.15,-76.17 44.36,-86.76 50.92,-84.32"/>
</a>
</g>
</g>
<!-- Node29 -->
<g id="Node000029" class="node">
<title>Node29</title>
<g id="a_Node000029"><a xlink:href="classSynchronizerEdge.html" target="_top" xlink:title=" ">
<polygon fill="white" stroke="#bfbfbf" points="246.5,-19 142.5,-19 142.5,0 246.5,0 246.5,-19"/>
<text text-anchor="middle" x="194.5" y="-7" font-family="Helvetica,sans-Serif" font-size="10.00">SynchronizerEdge</text>
</a>
</g>
</g>
<!-- Node19&#45;&gt;Node29 -->
<g id="edge44_Node000029_Node000019" class="edge">
<title>Node19&#45;&gt;Node29</title>
<g id="a_edge44_Node000029_Node000019"><a xlink:title=" ">
<path fill="none" stroke="#63b8ff" d="M70.51,-52.58C84.2,-46.37 100.77,-39.19 116,-33.5 130.12,-28.23 145.97,-23.17 159.65,-19.07"/>
<polygon fill="#63b8ff" stroke="#63b8ff" points="68.74,-49.55 61.11,-56.9 71.66,-55.91 68.74,-49.55"/>
</a>
</g>
</g>
<!-- Node20 -->
<g id="Node000020" class="node">
<title>Node20</title>
<g id="a_Node000020"><a xlink:href="classFifoOutputPipeline.html" target="_top" xlink:title=" ">
<polygon fill="white" stroke="#bfbfbf" points="248,-169 141,-169 141,-150 248,-150 248,-169"/>
<text text-anchor="middle" x="194.5" y="-157" font-family="Helvetica,sans-Serif" font-size="10.00">FifoOutputPipeline</text>
</a>
</g>
</g>
<!-- Node20&#45;&gt;Node17 -->
<g id="edge20_Node000017_Node000020" class="edge">
<title>Node20&#45;&gt;Node17</title>
<g id="a_edge20_Node000017_Node000020"><a xlink:title=" ">
<path fill="none" stroke="#63b8ff" d="M251.31,-147.89C281.22,-141.66 316.75,-134.27 340.79,-129.27"/>
<polygon fill="#63b8ff" stroke="#63b8ff" points="250.48,-144.48 241.41,-149.95 251.91,-151.34 250.48,-144.48"/>
</a>
</g>
</g>
<!-- Node21 -->
<g id="Node000021" class="node">
<title>Node21</title>
<g id="a_Node000021"><a xlink:href="classFifoAlteraMf.html" target="_top" xlink:title=" ">
<polygon fill="white" stroke="#bfbfbf" points="408,-170 331,-170 331,-151 408,-151 408,-170"/>
<text text-anchor="middle" x="369.5" y="-158" font-family="Helvetica,sans-Serif" font-size="10.00">FifoAlteraMf</text>
</a>
</g>
</g>
<!-- Node20&#45;&gt;Node21 -->
<g id="edge22_Node000021_Node000020" class="edge">
<title>Node20&#45;&gt;Node21</title>
<g id="a_edge22_Node000021_Node000020"><a xlink:title=" ">
<path fill="none" stroke="#63b8ff" d="M258.54,-159.86C282.78,-160 309.67,-160.16 330.79,-160.28"/>
<polygon fill="#63b8ff" stroke="#63b8ff" points="258.37,-156.36 248.35,-159.81 258.33,-163.36 258.37,-156.36"/>
</a>
</g>
</g>
<!-- Node20&#45;&gt;Node22 -->
<g id="edge30_Node000022_Node000020" class="edge">
<title>Node20&#45;&gt;Node22</title>
<g id="a_edge30_Node000022_Node000020"><a xlink:title=" ">
<path fill="none" stroke="#63b8ff" d="M249.14,-171.28C278.13,-177.65 312.89,-185.29 337.41,-190.67"/>
<polygon fill="#63b8ff" stroke="#63b8ff" points="249.67,-167.82 239.16,-169.09 248.17,-174.65 249.67,-167.82"/>
</a>
</g>
</g>
<!-- Node20&#45;&gt;Node26 -->
<g id="edge35_Node000026_Node000020" class="edge">
<title>Node20&#45;&gt;Node26</title>
<g id="a_edge35_Node000026_Node000020"><a xlink:title=" ">
<path fill="none" stroke="#63b8ff" d="M221.39,-173.96C244.05,-186.27 278.09,-203.89 309,-216.5 319.04,-220.6 330.32,-224.39 340.33,-227.49"/>
<polygon fill="#63b8ff" stroke="#63b8ff" points="222.87,-170.78 212.42,-169.05 219.51,-176.92 222.87,-170.78"/>
</a>
</g>
</g>
<!-- Node21&#45;&gt;Node16 -->
<g id="edge21_Node000016_Node000021" class="edge">
<title>Node21&#45;&gt;Node16</title>
<g id="a_edge21_Node000016_Node000021"><a xlink:title=" ">
<path fill="none" stroke="#63b8ff" d="M418.38,-160.17C446.02,-159.98 479.05,-159.75 498.45,-159.61"/>
<polygon fill="#63b8ff" stroke="#63b8ff" points="418.06,-156.67 408.09,-160.24 418.11,-163.67 418.06,-156.67"/>
</a>
</g>
</g>
<!-- Node22&#45;&gt;Node16 -->
<g id="edge23_Node000016_Node000022" class="edge">
<title>Node22&#45;&gt;Node16</title>
<g id="a_edge23_Node000016_Node000022"><a xlink:title=" ">
<path fill="none" stroke="#63b8ff" d="M411.62,-186.69C440.29,-179.15 477.05,-169.48 498.12,-163.94"/>
<polygon fill="#63b8ff" stroke="#63b8ff" points="410.64,-183.33 401.85,-189.25 412.42,-190.1 410.64,-183.33"/>
</a>
</g>
</g>
<!-- Node23 -->
<g id="Node000023" class="node">
<title>Node23</title>
<g id="a_Node000023"><a xlink:href="classSynchronizerVector.html" target="_top" xlink:title=" ">
<polygon fill="white" stroke="#bfbfbf" points="249.5,-132 139.5,-132 139.5,-113 249.5,-113 249.5,-132"/>
<text text-anchor="middle" x="194.5" y="-120" font-family="Helvetica,sans-Serif" font-size="10.00">SynchronizerVector</text>
</a>
</g>
</g>
<!-- Node23&#45;&gt;Node8 -->
<g id="edge40_Node000008_Node000023" class="edge">
<title>Node23&#45;&gt;Node8</title>
<g id="a_edge40_Node000008_Node000023"><a xlink:title=" ">
<path fill="none" stroke="#63b8ff" d="M256.13,-111.26C320.22,-100.37 424.36,-85.5 515,-85.5 515,-85.5 515,-85.5 805,-85.5 901.81,-85.5 1011.42,-129.99 1055.78,-149.98"/>
<polygon fill="#63b8ff" stroke="#63b8ff" points="255.46,-107.83 246.2,-112.97 256.65,-114.72 255.46,-107.83"/>
</a>
</g>
</g>
<!-- Node23&#45;&gt;Node22 -->
<g id="edge25_Node000022_Node000023" class="edge">
<title>Node23&#45;&gt;Node22</title>
<g id="a_edge25_Node000022_Node000023"><a xlink:title=" ">
<path fill="none" stroke="#63b8ff" d="M259.06,-134.84C263.91,-136.75 268.62,-138.96 273,-141.5 293.11,-153.19 289.2,-167.28 309,-179.5 317.54,-184.77 327.73,-188.59 337.24,-191.31"/>
<polygon fill="#63b8ff" stroke="#63b8ff" points="260.18,-131.52 249.59,-131.51 257.86,-138.13 260.18,-131.52"/>
</a>
</g>
</g>
<!-- Node24 -->
<g id="Node000024" class="node">
<title>Node24</title>
<g id="a_Node000024"><a xlink:href="classFifoWrFsm.html" target="_top" xlink:title=" ">
<polygon fill="white" stroke="#bfbfbf" points="229,-245 160,-245 160,-226 229,-226 229,-245"/>
<text text-anchor="middle" x="194.5" y="-233" font-family="Helvetica,sans-Serif" font-size="10.00">FifoWrFsm</text>
</a>
</g>
</g>
<!-- Node24&#45;&gt;Node22 -->
<g id="edge27_Node000022_Node000024" class="edge">
<title>Node24&#45;&gt;Node22</title>
<g id="a_edge27_Node000022_Node000024"><a xlink:title=" ">
<path fill="none" stroke="#63b8ff" d="M239.25,-225.89C269.88,-219.16 310.06,-210.34 337.43,-204.32"/>
<polygon fill="#63b8ff" stroke="#63b8ff" points="238.28,-222.52 229.27,-228.08 239.78,-229.36 238.28,-222.52"/>
</a>
</g>
</g>
<!-- Node24&#45;&gt;Node26 -->
<g id="edge32_Node000026_Node000024" class="edge">
<title>Node24&#45;&gt;Node26</title>
<g id="a_edge32_Node000026_Node000024"><a xlink:title=" ">
<path fill="none" stroke="#63b8ff" d="M239.58,-235.5C271.24,-235.5 312.97,-235.5 340.25,-235.5"/>
<polygon fill="#63b8ff" stroke="#63b8ff" points="239.27,-232 229.27,-235.5 239.27,-239 239.27,-232"/>
</a>
</g>
</g>
<!-- Node25 -->
<g id="Node000025" class="node">
<title>Node25</title>
<g id="a_Node000025"><a xlink:href="classFifoRdFsm.html" target="_top" xlink:title=" ">
<polygon fill="white" stroke="#bfbfbf" points="228.5,-282 160.5,-282 160.5,-263 228.5,-263 228.5,-282"/>
<text text-anchor="middle" x="194.5" y="-270" font-family="Helvetica,sans-Serif" font-size="10.00">FifoRdFsm</text>
</a>
</g>
</g>
<!-- Node25&#45;&gt;Node22 -->
<g id="edge28_Node000022_Node000025" class="edge">
<title>Node25&#45;&gt;Node22</title>
<g id="a_edge28_Node000022_Node000025"><a xlink:title=" ">
<path fill="none" stroke="#63b8ff" d="M238.7,-267.01C250.34,-264.34 262.58,-260.38 273,-254.5 292.98,-243.23 289.58,-229.72 309,-217.5 317.58,-212.1 327.78,-207.99 337.28,-204.93"/>
<polygon fill="#63b8ff" stroke="#63b8ff" points="237.79,-263.62 228.69,-269.04 239.18,-270.48 237.79,-263.62"/>
</a>
</g>
</g>
<!-- Node25&#45;&gt;Node26 -->
<g id="edge33_Node000026_Node000025" class="edge">
<title>Node25&#45;&gt;Node26</title>
<g id="a_edge33_Node000026_Node000025"><a xlink:title=" ">
<path fill="none" stroke="#63b8ff" d="M238.78,-263.24C270.59,-256.44 312.88,-247.4 340.39,-241.51"/>
<polygon fill="#63b8ff" stroke="#63b8ff" points="237.9,-259.85 228.86,-265.37 239.37,-266.7 237.9,-259.85"/>
</a>
</g>
</g>
<!-- Node26&#45;&gt;Node16 -->
<g id="edge31_Node000016_Node000026" class="edge">
<title>Node26&#45;&gt;Node16</title>
<g id="a_edge31_Node000016_Node000026"><a xlink:title=" ">
<path fill="none" stroke="#63b8ff" d="M408.18,-226.19C415.67,-223.6 423.28,-220.4 430,-216.5 448.78,-205.61 448.07,-195.73 466,-183.5 476.17,-176.56 488.65,-170.48 498.47,-166.18"/>
<polygon fill="#63b8ff" stroke="#63b8ff" points="406.98,-222.9 398.5,-229.26 409.09,-229.57 406.98,-222.9"/>
</a>
</g>
</g>
<!-- Node26&#45;&gt;Node30 -->
<g id="edge50_Node000030_Node000026" class="edge">
<title>Node26&#45;&gt;Node30</title>
<g id="a_edge50_Node000030_Node000026"><a xlink:title=" ">
<path fill="none" stroke="#63b8ff" d="M408.86,-239.29C507.76,-249.06 771.89,-275.15 889.55,-286.78"/>
<polygon fill="#63b8ff" stroke="#63b8ff" points="409.02,-235.79 398.72,-238.29 408.33,-242.75 409.02,-235.79"/>
</a>
</g>
</g>
<!-- Node27&#45;&gt;Node9 -->
<g id="edge38_Node000009_Node000027" class="edge">
<title>Node27&#45;&gt;Node9</title>
<g id="a_edge38_Node000009_Node000027"><a xlink:title=" ">
<path fill="none" stroke="#63b8ff" d="M852.78,-135.57C876.68,-141.61 904.54,-148.65 923.83,-153.52"/>
<polygon fill="#63b8ff" stroke="#63b8ff" points="853.37,-132.11 842.81,-133.05 851.65,-138.9 853.37,-132.11"/>
</a>
</g>
</g>
<!-- Node28&#45;&gt;Node8 -->
<g id="edge41_Node000008_Node000028" class="edge">
<title>Node28&#45;&gt;Node8</title>
<g id="a_edge41_Node000008_Node000028"><a xlink:title=" ">
<path fill="none" stroke="#63b8ff" d="M440.4,-9.5C498.82,-9.5 584.35,-9.5 659,-9.5 659,-9.5 659,-9.5 805,-9.5 898.91,-9.5 929.59,-18.33 1007,-71.5 1037.89,-92.71 1061.42,-131.96 1071.13,-149.99"/>
<polygon fill="#63b8ff" stroke="#63b8ff" points="440.17,-6 430.17,-9.5 440.17,-13 440.17,-6"/>
</a>
</g>
</g>
<!-- Node29&#45;&gt;Node28 -->
<g id="edge43_Node000028_Node000029" class="edge">
<title>Node29&#45;&gt;Node28</title>
<g id="a_edge43_Node000028_Node000029"><a xlink:title=" ">
<path fill="none" stroke="#63b8ff" d="M257.18,-9.5C273.95,-9.5 292.08,-9.5 308.74,-9.5"/>
<polygon fill="#63b8ff" stroke="#63b8ff" points="256.94,-6 246.94,-9.5 256.94,-13 256.94,-6"/>
</a>
</g>
</g>
<!-- Node30&#45;&gt;Node7 -->
<g id="edge46_Node000007_Node000030" class="edge">
<title>Node30&#45;&gt;Node7</title>
<g id="a_edge46_Node000007_Node000030"><a xlink:title=" ">
<path fill="none" stroke="#63b8ff" d="M1004.49,-304.13C1049.34,-313.61 1110.97,-326.64 1146.99,-334.26"/>
<polygon fill="#63b8ff" stroke="#63b8ff" points="1005.13,-300.69 994.62,-302.04 1003.68,-307.53 1005.13,-300.69"/>
</a>
</g>
</g>
<!-- Node31&#45;&gt;Node30 -->
<g id="edge47_Node000030_Node000031" class="edge">
<title>Node31&#45;&gt;Node30</title>
<g id="a_edge47_Node000030_Node000031"><a xlink:title=" ">
<path fill="none" stroke="#63b8ff" d="M570.09,-375.79C656.26,-356.77 824.93,-319.55 904.28,-302.04"/>
<polygon fill="#63b8ff" stroke="#63b8ff" points="569.26,-372.38 560.25,-377.96 570.77,-379.22 569.26,-372.38"/>
</a>
</g>
</g>
<!-- Node31&#45;&gt;Node32 -->
<g id="edge53_Node000032_Node000031" class="edge">
<title>Node31&#45;&gt;Node32</title>
<g id="a_edge53_Node000032_Node000031"><a xlink:title=" ">
<path fill="none" stroke="#63b8ff" d="M571.03,-387.5C581.09,-387.5 591.63,-387.5 601.78,-387.5"/>
<polygon fill="#63b8ff" stroke="#63b8ff" points="570.76,-384 560.76,-387.5 570.76,-391 570.76,-384"/>
</a>
</g>
</g>
<!-- Node32&#45;&gt;Node7 -->
<g id="edge51_Node000007_Node000032" class="edge">
<title>Node32&#45;&gt;Node7</title>
<g id="a_edge51_Node000007_Node000032"><a xlink:title=" ">
<path fill="none" stroke="#63b8ff" d="M728.43,-381.35C841.87,-371.01 1066.39,-350.54 1146.9,-343.2"/>
<polygon fill="#63b8ff" stroke="#63b8ff" points="727.78,-377.9 718.14,-382.29 728.41,-384.87 727.78,-377.9"/>
</a>
</g>
</g>
</g>
</svg>

<g id="navigator" transform="translate(0 0)" fill="#404254">
  <rect fill="#f2f5e9" fill-opacity="0.5" stroke="#606060" stroke-width=".5" x="0" y="0" width="60" height="60"/>
  <use id="zoomplus" xlink:href="#zoomPlus" x="17" y="9" onmousedown="handleZoom(evt,'in')"/>
  <use id="zoomminus" xlink:href="#zoomMin" x="42" y="9" onmousedown="handleZoom(evt,'out')"/>
  <use id="reset" xlink:href="#resetDef" x="30" y="36" onmousedown="handleReset()"/>
   <use id="arrowup" xlink:href="#arrowUp" x="0" y="0" onmousedown="handlePan(0,-1)"/>
  <use id="arrowright" xlink:href="#arrowRight" x="0" y="0" onmousedown="handlePan(1,0)"/>
  <use id="arrowdown" xlink:href="#arrowDown" x="0" y="0" onmousedown="handlePan(0,1)"/>
  <use id="arrowleft" xlink:href="#arrowLeft" x="0" y="0" onmousedown="handlePan(-1,0)"/>
</g>
<svg viewBox="0 0 15 15" width="100%" height="30px" preserveAspectRatio="xMaxYMin meet">
 <g id="arrow_out" transform="scale(0.3 0.3)">
  <a xlink:href="classSrpV3AxiTb__inherit__graph_org.svg" target="_base">
   <rect id="button" ry="5" rx="5" y="6" x="6" height="38" width="38"
        fill="#f2f5e9" fill-opacity="0.5" stroke="#606060" stroke-width="1.0"/>
   <path id="arrow"
     d="M 11.500037,31.436501 C 11.940474,20.09759 22.043105,11.32322 32.158766,21.979434 L 37.068811,17.246167 C 37.068811,17.246167 37.088388,32 37.088388,32 L 22.160133,31.978069 C 22.160133,31.978069 26.997745,27.140456 26.997745,27.140456 C 18.528582,18.264221 13.291696,25.230495 11.500037,31.436501 z"
     style="fill:#404040;"/>
  </a>
 </g>
</svg>

<style type='text/css'>
<![CDATA[
[data-mouse-over-selected='false'] { opacity: 0.7; }
[data-mouse-over-selected='true']  { opacity: 1.0; }
]]>
</style>
<script type="application/ecmascript"><![CDATA[
document.addEventListener('DOMContentLoaded', (event) => {
  highlightEdges();
  highlightAdjacentNodes();
});
]]></script>
</svg>
