<?xml version="1.0" encoding="UTF-8" standalone="no"?>
<!DOCTYPE svg PUBLIC "-//W3C//DTD SVG 1.1//EN"
 "http://www.w3.org/Graphics/SVG/1.1/DTD/svg11.dtd">
<!-- Generated by graphviz version 2.43.0 (0)
 -->
<!-- Title: AxiVersionIpIntegrator Pages: 1 -->
<svg width="963pt" height="279pt"
 viewBox="0.00 0.00 963.00 278.70" xmlns="http://www.w3.org/2000/svg" xmlns:xlink="http://www.w3.org/1999/xlink">
<g id="graph0" class="graph" transform="scale(1 1) rotate(0) translate(4 274.7)">
<title>AxiVersionIpIntegrator</title>
<polygon fill="white" stroke="transparent" points="-4,4 -4,-274.7 959,-274.7 959,4 -4,4"/>
<!-- Node1 -->
<g id="node1" class="node">
<title>Node1</title>
<g id="a_node1"><a xlink:title=" ">
<polygon fill="#bfbfbf" stroke="black" points="830,-42.2 830,-61.2 955,-61.2 955,-42.2 830,-42.2"/>
<text text-anchor="middle" x="892.5" y="-49.2" font-family="Helvetica,sans-Serif" font-size="10.00">AxiVersionIpIntegrator</text>
</a>
</g>
</g>
<!-- Node2 -->
<g id="node2" class="node">
<title>Node2</title>
<g id="a_node2"><a xlink:href="classSlaveAxiLiteIpIntegrator.html" target="_top" xlink:title=" ">
<polygon fill="white" stroke="black" points="660,-23.2 660,-42.2 794,-42.2 794,-23.2 660,-23.2"/>
<text text-anchor="middle" x="727" y="-30.2" font-family="Helvetica,sans-Serif" font-size="10.00">SlaveAxiLiteIpIntegrator</text>
</a>
</g>
</g>
<!-- Node2&#45;&gt;Node1 -->
<g id="edge1" class="edge">
<title>Node2&#45;&gt;Node1</title>
<path fill="none" stroke="midnightblue" d="M804.14,-41.55C812.8,-42.56 821.54,-43.57 829.98,-44.55"/>
<polygon fill="midnightblue" stroke="midnightblue" points="804.37,-38.05 794.03,-40.38 803.56,-45.01 804.37,-38.05"/>
</g>
<!-- Node3 -->
<g id="node3" class="node">
<title>Node3</title>
<g id="a_node3"><a xlink:href="classRstSync.html" target="_top" xlink:title=" ">
<polygon fill="white" stroke="black" points="143,-99.2 143,-118.2 199,-118.2 199,-99.2 143,-99.2"/>
<text text-anchor="middle" x="171" y="-106.2" font-family="Helvetica,sans-Serif" font-size="10.00">RstSync</text>
</a>
</g>
</g>
<!-- Node3&#45;&gt;Node2 -->
<g id="edge2" class="edge">
<title>Node3&#45;&gt;Node2</title>
<path fill="none" stroke="midnightblue" d="M185.78,-91.1C201.77,-72.27 230.05,-43.5 262,-31.7 408.97,22.59 600.46,-6.19 683.98,-23.16"/>
<polygon fill="midnightblue" stroke="midnightblue" points="182.97,-89.01 179.33,-98.96 188.38,-93.45 182.97,-89.01"/>
</g>
<!-- Node7 -->
<g id="node7" class="node">
<title>Node7</title>
<g id="a_node7"><a xlink:href="classDeviceDna7Series.html" target="_top" xlink:title=" ">
<polygon fill="white" stroke="black" points="269.5,-137.2 269.5,-156.2 375.5,-156.2 375.5,-137.2 269.5,-137.2"/>
<text text-anchor="middle" x="322.5" y="-144.2" font-family="Helvetica,sans-Serif" font-size="10.00">DeviceDna7Series</text>
</a>
</g>
</g>
<!-- Node3&#45;&gt;Node7 -->
<g id="edge7" class="edge">
<title>Node3&#45;&gt;Node7</title>
<path fill="none" stroke="midnightblue" d="M209.06,-118.12C231.88,-123.92 261.04,-131.33 283.95,-137.16"/>
<polygon fill="midnightblue" stroke="midnightblue" points="209.63,-114.65 199.07,-115.58 207.9,-121.44 209.63,-114.65"/>
</g>
<!-- Node9 -->
<g id="node9" class="node">
<title>Node9</title>
<g id="a_node9"><a xlink:href="classDeviceDnaUltraScale.html" target="_top" xlink:title=" ">
<polygon fill="white" stroke="black" points="262.5,-61.2 262.5,-80.2 382.5,-80.2 382.5,-61.2 262.5,-61.2"/>
<text text-anchor="middle" x="322.5" y="-68.2" font-family="Helvetica,sans-Serif" font-size="10.00">DeviceDnaUltraScale</text>
</a>
</g>
</g>
<!-- Node3&#45;&gt;Node9 -->
<g id="edge10" class="edge">
<title>Node3&#45;&gt;Node9</title>
<path fill="none" stroke="midnightblue" d="M209.06,-99.28C231.88,-93.48 261.04,-86.07 283.95,-80.25"/>
<polygon fill="midnightblue" stroke="midnightblue" points="207.9,-95.96 199.07,-101.82 209.63,-102.75 207.9,-95.96"/>
</g>
<!-- Node13 -->
<g id="node13" class="node">
<title>Node13</title>
<g id="a_node13"><a xlink:href="classIprog7Series.html" target="_top" xlink:title=" ">
<polygon fill="white" stroke="black" points="426.5,-137.2 426.5,-156.2 503.5,-156.2 503.5,-137.2 426.5,-137.2"/>
<text text-anchor="middle" x="465" y="-144.2" font-family="Helvetica,sans-Serif" font-size="10.00">Iprog7Series</text>
</a>
</g>
</g>
<!-- Node3&#45;&gt;Node13 -->
<g id="edge16" class="edge">
<title>Node3&#45;&gt;Node13</title>
<path fill="none" stroke="midnightblue" d="M190.69,-92.35C207.88,-78.47 234.77,-59.6 262,-51.7 313.65,-36.72 337.56,-22.94 383,-51.7 414.58,-71.69 392.01,-101.85 419,-127.7 422.92,-131.46 427.69,-134.52 432.64,-137.01"/>
<polygon fill="midnightblue" stroke="midnightblue" points="188.07,-89.97 182.63,-99.07 192.56,-95.35 188.07,-89.97"/>
</g>
<!-- Node16 -->
<g id="node16" class="node">
<title>Node16</title>
<g id="a_node16"><a xlink:href="classIprogUltraScale.html" target="_top" xlink:title=" ">
<polygon fill="white" stroke="black" points="419,-175.2 419,-194.2 511,-194.2 511,-175.2 419,-175.2"/>
<text text-anchor="middle" x="465" y="-182.2" font-family="Helvetica,sans-Serif" font-size="10.00">IprogUltraScale</text>
</a>
</g>
</g>
<!-- Node3&#45;&gt;Node16 -->
<g id="edge22" class="edge">
<title>Node3&#45;&gt;Node16</title>
<path fill="none" stroke="midnightblue" d="M209.47,-104.38C253.37,-101 327.19,-100.67 383,-127.7 403.94,-137.84 399.88,-152.45 419,-165.7 424.3,-169.37 430.42,-172.54 436.4,-175.18"/>
<polygon fill="midnightblue" stroke="midnightblue" points="208.91,-100.92 199.25,-105.26 209.52,-107.89 208.91,-100.92"/>
</g>
<!-- Node17 -->
<g id="node17" class="node">
<title>Node17</title>
<g id="a_node17"><a xlink:href="classSynchronizerOneShot.html" target="_top" xlink:title=" ">
<polygon fill="white" stroke="black" points="262,-213.2 262,-232.2 383,-232.2 383,-213.2 262,-213.2"/>
<text text-anchor="middle" x="322.5" y="-220.2" font-family="Helvetica,sans-Serif" font-size="10.00">SynchronizerOneShot</text>
</a>
</g>
</g>
<!-- Node3&#45;&gt;Node17 -->
<g id="edge24" class="edge">
<title>Node3&#45;&gt;Node17</title>
<path fill="none" stroke="midnightblue" d="M194.74,-124.26C204.46,-131.03 215.88,-139.13 226,-146.7 256.87,-169.82 292.12,-198.48 309.91,-213.12"/>
<polygon fill="midnightblue" stroke="midnightblue" points="196.59,-121.29 186.38,-118.48 192.61,-127.04 196.59,-121.29"/>
</g>
<!-- Node4 -->
<g id="node4" class="node">
<title>Node4</title>
<g id="a_node4"><a xlink:href="classSynchronizer.html" target="_top" xlink:title=" ">
<polygon fill="white" stroke="black" points="0,-156.2 0,-175.2 80,-175.2 80,-156.2 0,-156.2"/>
<text text-anchor="middle" x="40" y="-163.2" font-family="Helvetica,sans-Serif" font-size="10.00">Synchronizer</text>
</a>
</g>
</g>
<!-- Node4&#45;&gt;Node3 -->
<g id="edge3" class="edge">
<title>Node4&#45;&gt;Node3</title>
<path fill="none" stroke="midnightblue" d="M71.82,-152.08C95.42,-141.66 127.38,-127.53 148.34,-118.27"/>
<polygon fill="midnightblue" stroke="midnightblue" points="70.32,-148.92 62.59,-156.16 73.15,-155.32 70.32,-148.92"/>
</g>
<!-- Node15 -->
<g id="node15" class="node">
<title>Node15</title>
<g id="a_node15"><a xlink:href="classSynchronizerEdge.html" target="_top" xlink:title=" ">
<polygon fill="white" stroke="black" points="119,-213.2 119,-232.2 223,-232.2 223,-213.2 119,-213.2"/>
<text text-anchor="middle" x="171" y="-220.2" font-family="Helvetica,sans-Serif" font-size="10.00">SynchronizerEdge</text>
</a>
</g>
</g>
<!-- Node4&#45;&gt;Node15 -->
<g id="edge20" class="edge">
<title>Node4&#45;&gt;Node15</title>
<path fill="none" stroke="midnightblue" d="M71.82,-179.32C95.42,-189.75 127.38,-203.87 148.34,-213.13"/>
<polygon fill="midnightblue" stroke="midnightblue" points="73.15,-176.08 62.59,-175.24 70.32,-182.49 73.15,-176.08"/>
</g>
<!-- Node5 -->
<g id="node5" class="node">
<title>Node5</title>
<g id="a_node5"><a xlink:href="classAxiVersion.html" target="_top" xlink:title=" ">
<polygon fill="white" stroke="black" points="693,-80.2 693,-99.2 761,-99.2 761,-80.2 693,-80.2"/>
<text text-anchor="middle" x="727" y="-87.2" font-family="Helvetica,sans-Serif" font-size="10.00">AxiVersion</text>
</a>
</g>
</g>
<!-- Node5&#45;&gt;Node1 -->
<g id="edge4" class="edge">
<title>Node5&#45;&gt;Node1</title>
<path fill="none" stroke="midnightblue" d="M770.86,-79.74C795.41,-74.03 826.07,-66.91 850.33,-61.27"/>
<polygon fill="midnightblue" stroke="midnightblue" points="770.03,-76.34 761.09,-82.01 771.62,-83.16 770.03,-76.34"/>
</g>
<!-- Node6 -->
<g id="node6" class="node">
<title>Node6</title>
<g id="a_node6"><a xlink:href="classDeviceDna.html" target="_top" xlink:title=" ">
<polygon fill="white" stroke="black" points="430,-61.2 430,-80.2 500,-80.2 500,-61.2 430,-61.2"/>
<text text-anchor="middle" x="465" y="-68.2" font-family="Helvetica,sans-Serif" font-size="10.00">DeviceDna</text>
</a>
</g>
</g>
<!-- Node6&#45;&gt;Node5 -->
<g id="edge5" class="edge">
<title>Node6&#45;&gt;Node5</title>
<path fill="none" stroke="midnightblue" d="M510.47,-73.95C562.25,-77.74 646.57,-83.9 692.9,-87.28"/>
<polygon fill="midnightblue" stroke="midnightblue" points="510.49,-70.44 500.26,-73.21 509.98,-77.42 510.49,-70.44"/>
</g>
<!-- Node7&#45;&gt;Node6 -->
<g id="edge6" class="edge">
<title>Node7&#45;&gt;Node6</title>
<path fill="none" stroke="midnightblue" d="M346.61,-131.68C365.64,-119.6 393.54,-102.6 419,-89.7 425.51,-86.41 432.72,-83.18 439.43,-80.35"/>
<polygon fill="midnightblue" stroke="midnightblue" points="344.57,-128.83 338.03,-137.17 348.34,-134.72 344.57,-128.83"/>
</g>
<!-- Node8 -->
<g id="node8" class="node">
<title>Node8</title>
<g id="a_node8"><a xlink:href="classSynchronizerVector.html" target="_top" xlink:title=" ">
<polygon fill="white" stroke="black" points="116,-156.2 116,-175.2 226,-175.2 226,-156.2 116,-156.2"/>
<text text-anchor="middle" x="171" y="-163.2" font-family="Helvetica,sans-Serif" font-size="10.00">SynchronizerVector</text>
</a>
</g>
</g>
<!-- Node8&#45;&gt;Node7 -->
<g id="edge8" class="edge">
<title>Node8&#45;&gt;Node7</title>
<path fill="none" stroke="midnightblue" d="M236.4,-157.52C247.42,-156.12 258.74,-154.68 269.39,-153.32"/>
<polygon fill="midnightblue" stroke="midnightblue" points="235.87,-154.06 226.4,-158.79 236.76,-161 235.87,-154.06"/>
</g>
<!-- Node8&#45;&gt;Node9 -->
<g id="edge11" class="edge">
<title>Node8&#45;&gt;Node9</title>
<path fill="none" stroke="midnightblue" d="M195.64,-150.68C226.65,-130.97 280.19,-96.95 306.3,-80.36"/>
<polygon fill="midnightblue" stroke="midnightblue" points="193.72,-147.75 187.16,-156.07 197.47,-153.66 193.72,-147.75"/>
</g>
<!-- Node14 -->
<g id="node14" class="node">
<title>Node14</title>
<g id="a_node14"><a xlink:href="classIprog7SeriesCore.html" target="_top" xlink:title=" ">
<polygon fill="white" stroke="black" points="272.5,-251.2 272.5,-270.2 372.5,-270.2 372.5,-251.2 272.5,-251.2"/>
<text text-anchor="middle" x="322.5" y="-258.2" font-family="Helvetica,sans-Serif" font-size="10.00">Iprog7SeriesCore</text>
</a>
</g>
</g>
<!-- Node8&#45;&gt;Node14 -->
<g id="edge18" class="edge">
<title>Node8&#45;&gt;Node14</title>
<path fill="none" stroke="midnightblue" d="M195.69,-180.87C205.41,-187.47 216.57,-195.55 226,-203.7 243.6,-218.92 242.3,-229.33 262,-241.7 268.06,-245.51 274.95,-248.61 281.84,-251.13"/>
<polygon fill="midnightblue" stroke="midnightblue" points="197.53,-177.89 187.26,-175.26 193.65,-183.72 197.53,-177.89"/>
</g>
<!-- Node8&#45;&gt;Node16 -->
<g id="edge26" class="edge">
<title>Node8&#45;&gt;Node16</title>
<path fill="none" stroke="midnightblue" d="M236.27,-169.88C291.51,-173.48 369.78,-178.57 418.68,-181.75"/>
<polygon fill="midnightblue" stroke="midnightblue" points="236.44,-166.39 226.24,-169.23 235.99,-173.37 236.44,-166.39"/>
</g>
<!-- Node9&#45;&gt;Node6 -->
<g id="edge9" class="edge">
<title>Node9&#45;&gt;Node6</title>
<path fill="none" stroke="midnightblue" d="M392.91,-70.7C405.71,-70.7 418.55,-70.7 429.73,-70.7"/>
<polygon fill="midnightblue" stroke="midnightblue" points="392.68,-67.2 382.68,-70.7 392.68,-74.2 392.68,-67.2"/>
</g>
<!-- Node10 -->
<g id="node10" class="node">
<title>Node10</title>
<g id="a_node10"><a xlink:href="classDS2411Core.html" target="_top" xlink:title=" ">
<polygon fill="white" stroke="black" points="547,-99.2 547,-118.2 624,-118.2 624,-99.2 547,-99.2"/>
<text text-anchor="middle" x="585.5" y="-106.2" font-family="Helvetica,sans-Serif" font-size="10.00">DS2411Core</text>
</a>
</g>
</g>
<!-- Node10&#45;&gt;Node5 -->
<g id="edge12" class="edge">
<title>Node10&#45;&gt;Node5</title>
<path fill="none" stroke="midnightblue" d="M634.38,-102.18C653.69,-99.55 675.48,-96.58 692.97,-94.2"/>
<polygon fill="midnightblue" stroke="midnightblue" points="633.69,-98.74 624.25,-103.56 634.63,-105.68 633.69,-98.74"/>
</g>
<!-- Node11 -->
<g id="node11" class="node">
<title>Node11</title>
<g id="a_node11"><a xlink:href="classIoBufWrapper.html" target="_top" xlink:title=" ">
<polygon fill="white" stroke="black" points="423.5,-99.2 423.5,-118.2 506.5,-118.2 506.5,-99.2 423.5,-99.2"/>
<text text-anchor="middle" x="465" y="-106.2" font-family="Helvetica,sans-Serif" font-size="10.00">IoBufWrapper</text>
</a>
</g>
</g>
<!-- Node11&#45;&gt;Node10 -->
<g id="edge13" class="edge">
<title>Node11&#45;&gt;Node10</title>
<path fill="none" stroke="midnightblue" d="M517.04,-108.7C527.04,-108.7 537.36,-108.7 546.83,-108.7"/>
<polygon fill="midnightblue" stroke="midnightblue" points="516.78,-105.2 506.78,-108.7 516.78,-112.2 516.78,-105.2"/>
</g>
<!-- Node12 -->
<g id="node12" class="node">
<title>Node12</title>
<g id="a_node12"><a xlink:href="classIprog.html" target="_top" xlink:title=" ">
<polygon fill="white" stroke="black" points="565,-137.2 565,-156.2 606,-156.2 606,-137.2 565,-137.2"/>
<text text-anchor="middle" x="585.5" y="-144.2" font-family="Helvetica,sans-Serif" font-size="10.00">Iprog</text>
</a>
</g>
</g>
<!-- Node12&#45;&gt;Node5 -->
<g id="edge14" class="edge">
<title>Node12&#45;&gt;Node5</title>
<path fill="none" stroke="midnightblue" d="M615.49,-134.86C641.34,-124.29 678.72,-109.02 702.69,-99.23"/>
<polygon fill="midnightblue" stroke="midnightblue" points="614.12,-131.63 606.19,-138.66 616.77,-138.11 614.12,-131.63"/>
</g>
<!-- Node13&#45;&gt;Node12 -->
<g id="edge15" class="edge">
<title>Node13&#45;&gt;Node12</title>
<path fill="none" stroke="midnightblue" d="M514.08,-146.7C531.88,-146.7 551.06,-146.7 564.91,-146.7"/>
<polygon fill="midnightblue" stroke="midnightblue" points="513.82,-143.2 503.82,-146.7 513.82,-150.2 513.82,-143.2"/>
</g>
<!-- Node14&#45;&gt;Node13 -->
<g id="edge17" class="edge">
<title>Node14&#45;&gt;Node13</title>
<path fill="none" stroke="midnightblue" d="M376.81,-246.33C378.99,-244.93 381.07,-243.39 383,-241.7 411.13,-217.09 392.01,-191.56 419,-165.7 422.92,-161.95 427.69,-158.88 432.64,-156.4"/>
<polygon fill="midnightblue" stroke="midnightblue" points="375.1,-243.27 367.94,-251.08 378.41,-249.44 375.1,-243.27"/>
</g>
<!-- Node15&#45;&gt;Node14 -->
<g id="edge19" class="edge">
<title>Node15&#45;&gt;Node14</title>
<path fill="none" stroke="midnightblue" d="M219.65,-234.81C240.47,-240.11 264.54,-246.22 284.05,-251.18"/>
<polygon fill="midnightblue" stroke="midnightblue" points="220.28,-231.36 209.73,-232.29 218.55,-238.15 220.28,-231.36"/>
</g>
<!-- Node15&#45;&gt;Node17 -->
<g id="edge25" class="edge">
<title>Node15&#45;&gt;Node17</title>
<path fill="none" stroke="midnightblue" d="M233.19,-222.7C242.68,-222.7 252.48,-222.7 261.94,-222.7"/>
<polygon fill="midnightblue" stroke="midnightblue" points="233.03,-219.2 223.03,-222.7 233.03,-226.2 233.03,-219.2"/>
</g>
<!-- Node16&#45;&gt;Node12 -->
<g id="edge21" class="edge">
<title>Node16&#45;&gt;Node12</title>
<path fill="none" stroke="midnightblue" d="M505.62,-172C525.45,-165.64 548.59,-158.22 564.66,-153.06"/>
<polygon fill="midnightblue" stroke="midnightblue" points="504.36,-168.73 495.9,-175.11 506.49,-175.39 504.36,-168.73"/>
</g>
<!-- Node17&#45;&gt;Node16 -->
<g id="edge23" class="edge">
<title>Node17&#45;&gt;Node16</title>
<path fill="none" stroke="midnightblue" d="M368.78,-210.46C388.14,-205.22 410.42,-199.19 428.56,-194.29"/>
<polygon fill="midnightblue" stroke="midnightblue" points="367.69,-207.12 358.95,-213.11 369.52,-213.88 367.69,-207.12"/>
</g>
</g>
</svg>
