<?xml version="1.0" encoding="UTF-8" standalone="no"?>
<!DOCTYPE svg PUBLIC "-//W3C//DTD SVG 1.1//EN"
 "http://www.w3.org/Graphics/SVG/1.1/DTD/svg11.dtd">
<!-- Generated by graphviz version 2.43.0 (0)
 -->
<!-- Title: AxiLiteToDrp Pages: 1 -->
<!--zoomable 940 -->
<svg id="main" version="1.1" xmlns="http://www.w3.org/2000/svg" xmlns:xlink="http://www.w3.org/1999/xlink" xml:space="preserve" onload="init(evt)">
<style type="text/css"><![CDATA[
.edge:hover path { stroke: red; }
.edge:hover polygon { stroke: red; fill: red; }
]]></style>
<script type="text/javascript"><![CDATA[
var edges = document.getElementsByTagName('g');
if (edges && edges.length) {
  for (var i=0;i<edges.length;i++) {
    if (edges[i].id.substr(0,4)=='edge') {
      edges[i].setAttribute('class','edge');
    }
  }
}
]]></script>
        <defs>
                <circle id="rim" cx="0" cy="0" r="7"/>
                <circle id="rim2" cx="0" cy="0" r="3.5"/>
                <g id="zoomPlus">
                        <use xlink:href="#rim" fill="#404040">
                                <set attributeName="fill" to="#808080" begin="zoomplus.mouseover" end="zoomplus.mouseout"/>
                        </use>
                        <path d="M-4,0h8M0,-4v8" fill="none" stroke="white" stroke-width="1.5" pointer-events="none"/>
                </g>
                <g id="zoomMin">
                        <use xlink:href="#rim" fill="#404040">
                                <set attributeName="fill" to="#808080" begin="zoomminus.mouseover" end="zoomminus.mouseout"/>
                        </use>
                        <path d="M-4,0h8" fill="none" stroke="white" stroke-width="1.5" pointer-events="none"/>
                </g>
                <g id="dirArrow">
                        <path fill="none" stroke="white" stroke-width="1.5" d="M0,-3.0v7 M-2.5,-0.5L0,-3.0L2.5,-0.5"/>
                </g>
               <g id="resetDef">
                       <use xlink:href="#rim2" fill="#404040">
                               <set attributeName="fill" to="#808080" begin="reset.mouseover" end="reset.mouseout"/>
                       </use>
               </g>
        </defs>

<script type="text/javascript">
var viewWidth = 930;
var viewHeight = 940;
var sectionId = 'dynsection-0';
</script>
<script xlink:href="svgpan.js"/>
<svg id="graph" class="graph">
<g id="viewport">
<title>AxiLiteToDrp</title>
<polygon fill="white" stroke="transparent" points="-4,4 -4,-936 926,-936 926,4 -4,4"/>
<!-- Node1 -->
<g id="node1" class="node">
<title>Node1</title>
<g id="a_node1"><a xlink:title=" ">
<polygon fill="#bfbfbf" stroke="black" points="483,-456.5 483,-475.5 561,-475.5 561,-456.5 483,-456.5"/>
<text text-anchor="middle" x="522" y="-463.5" font-family="Helvetica,sans-Serif" font-size="10.00">AxiLiteToDrp</text>
</a>
</g>
</g>
<!-- Node11 -->
<g id="node11" class="node">
<title>Node11</title>
<g id="a_node11"><a xlink:href="classGigEthGtx7.html" target="_top" xlink:title=" ">
<polygon fill="white" stroke="black" points="629.5,-874.5 629.5,-893.5 701.5,-893.5 701.5,-874.5 629.5,-874.5"/>
<text text-anchor="middle" x="665.5" y="-881.5" font-family="Helvetica,sans-Serif" font-size="10.00">GigEthGtx7</text>
</a>
</g>
</g>
<!-- Node1&#45;&gt;Node11 -->
<g id="edge12" class="edge">
<title>Node1&#45;&gt;Node11</title>
<path fill="none" stroke="midnightblue" d="M523.97,-485.7C527.92,-558.09 545.15,-808.2 597,-865 605.29,-874.08 617.55,-878.95 629.35,-881.53"/>
<polygon fill="midnightblue" stroke="midnightblue" points="527.46,-485.46 523.44,-475.66 520.47,-485.83 527.46,-485.46"/>
</g>
<!-- Node13 -->
<g id="node13" class="node">
<title>Node13</title>
<g id="a_node13"><a xlink:href="classClinkDataClk.html" target="_top" xlink:title=" ">
<polygon fill="white" stroke="black" points="625.5,-570.5 625.5,-589.5 705.5,-589.5 705.5,-570.5 625.5,-570.5"/>
<text text-anchor="middle" x="665.5" y="-577.5" font-family="Helvetica,sans-Serif" font-size="10.00">ClinkDataClk</text>
</a>
</g>
</g>
<!-- Node1&#45;&gt;Node13 -->
<g id="edge14" class="edge">
<title>Node1&#45;&gt;Node13</title>
<path fill="none" stroke="midnightblue" d="M532.65,-484.59C544.79,-506.16 567.66,-541.28 597,-561 605.39,-566.64 615.43,-570.61 625.18,-573.42"/>
<polygon fill="midnightblue" stroke="midnightblue" points="535.69,-482.85 527.84,-475.74 529.54,-486.2 535.69,-482.85"/>
</g>
<!-- Node17 -->
<g id="node15" class="node">
<title>Node17</title>
<g id="a_node15"><a xlink:href="classPgp2bGth7Fixedlat.html" target="_top" xlink:title=" ">
<polygon fill="white" stroke="black" points="611.5,-494.5 611.5,-513.5 719.5,-513.5 719.5,-494.5 611.5,-494.5"/>
<text text-anchor="middle" x="665.5" y="-501.5" font-family="Helvetica,sans-Serif" font-size="10.00">Pgp2bGth7Fixedlat</text>
</a>
</g>
</g>
<!-- Node1&#45;&gt;Node17 -->
<g id="edge16" class="edge">
<title>Node1&#45;&gt;Node17</title>
<path fill="none" stroke="midnightblue" d="M568.6,-478.25C588.11,-483.48 610.54,-489.51 628.8,-494.41"/>
<polygon fill="midnightblue" stroke="midnightblue" points="569.27,-474.8 558.71,-475.59 567.46,-481.56 569.27,-474.8"/>
</g>
<!-- Node19 -->
<g id="node17" class="node">
<title>Node19</title>
<g id="a_node17"><a xlink:href="classPgp2bGth7MultiLane.html" target="_top" xlink:title=" ">
<polygon fill="white" stroke="black" points="606.5,-456.5 606.5,-475.5 724.5,-475.5 724.5,-456.5 606.5,-456.5"/>
<text text-anchor="middle" x="665.5" y="-463.5" font-family="Helvetica,sans-Serif" font-size="10.00">Pgp2bGth7MultiLane</text>
</a>
</g>
</g>
<!-- Node1&#45;&gt;Node19 -->
<g id="edge18" class="edge">
<title>Node1&#45;&gt;Node19</title>
<path fill="none" stroke="midnightblue" d="M571.39,-466C582.69,-466 594.83,-466 606.5,-466"/>
<polygon fill="midnightblue" stroke="midnightblue" points="571.29,-462.5 561.29,-466 571.29,-469.5 571.29,-462.5"/>
</g>
<!-- Node22 -->
<g id="node19" class="node">
<title>Node22</title>
<g id="a_node19"><a xlink:href="classPgpGthCoreWrapper.html" target="_top" xlink:title=" ">
<polygon fill="white" stroke="black" points="607.5,-418.5 607.5,-437.5 723.5,-437.5 723.5,-418.5 607.5,-418.5"/>
<text text-anchor="middle" x="665.5" y="-425.5" font-family="Helvetica,sans-Serif" font-size="10.00">PgpGthCoreWrapper</text>
</a>
</g>
</g>
<!-- Node1&#45;&gt;Node22 -->
<g id="edge20" class="edge">
<title>Node1&#45;&gt;Node22</title>
<path fill="none" stroke="midnightblue" d="M568.6,-453.75C588.11,-448.52 610.54,-442.49 628.8,-437.59"/>
<polygon fill="midnightblue" stroke="midnightblue" points="567.46,-450.44 558.71,-456.41 569.27,-457.2 567.46,-450.44"/>
</g>
<!-- Node24 -->
<g id="node21" class="node">
<title>Node24</title>
<g id="a_node21"><a xlink:href="classPgp2bGtp7FixedLat.html" target="_top" xlink:title=" ">
<polygon fill="white" stroke="black" points="610.5,-912.5 610.5,-931.5 720.5,-931.5 720.5,-912.5 610.5,-912.5"/>
<text text-anchor="middle" x="665.5" y="-919.5" font-family="Helvetica,sans-Serif" font-size="10.00">Pgp2bGtp7FixedLat</text>
</a>
</g>
</g>
<!-- Node1&#45;&gt;Node24 -->
<g id="edge22" class="edge">
<title>Node1&#45;&gt;Node24</title>
<path fill="none" stroke="midnightblue" d="M523.63,-486.05C526.47,-563.26 540.49,-840.12 597,-903 600.74,-907.17 605.32,-910.45 610.31,-913.03"/>
<polygon fill="midnightblue" stroke="midnightblue" points="527.12,-485.67 523.28,-475.8 520.13,-485.91 527.12,-485.67"/>
</g>
<!-- Node26 -->
<g id="node23" class="node">
<title>Node26</title>
<g id="a_node23"><a xlink:href="classPgp2bGtp7MultiLane.html" target="_top" xlink:title=" ">
<polygon fill="white" stroke="black" points="606.5,-380.5 606.5,-399.5 724.5,-399.5 724.5,-380.5 606.5,-380.5"/>
<text text-anchor="middle" x="665.5" y="-387.5" font-family="Helvetica,sans-Serif" font-size="10.00">Pgp2bGtp7MultiLane</text>
</a>
</g>
</g>
<!-- Node1&#45;&gt;Node26 -->
<g id="edge24" class="edge">
<title>Node1&#45;&gt;Node26</title>
<path fill="none" stroke="midnightblue" d="M540.69,-449.21C554.91,-436.54 575.92,-419.58 597,-409 604.51,-405.23 612.87,-402.11 621.08,-399.57"/>
<polygon fill="midnightblue" stroke="midnightblue" points="538.17,-446.77 533.15,-456.1 542.9,-451.94 538.17,-446.77"/>
</g>
<!-- Node29 -->
<g id="node25" class="node">
<title>Node29</title>
<g id="a_node25"><a xlink:href="classPgp2bGtx7Fixedlat.html" target="_top" xlink:title=" ">
<polygon fill="white" stroke="black" points="611.5,-646.5 611.5,-665.5 719.5,-665.5 719.5,-646.5 611.5,-646.5"/>
<text text-anchor="middle" x="665.5" y="-653.5" font-family="Helvetica,sans-Serif" font-size="10.00">Pgp2bGtx7Fixedlat</text>
</a>
</g>
</g>
<!-- Node1&#45;&gt;Node29 -->
<g id="edge26" class="edge">
<title>Node1&#45;&gt;Node29</title>
<path fill="none" stroke="midnightblue" d="M525.95,-485.95C532.3,-521.64 550.63,-596.46 597,-637 601.4,-640.85 606.52,-643.92 611.94,-646.37"/>
<polygon fill="midnightblue" stroke="midnightblue" points="529.37,-485.13 524.29,-475.83 522.46,-486.26 529.37,-485.13"/>
</g>
<!-- Node33 -->
<g id="node27" class="node">
<title>Node33</title>
<g id="a_node27"><a xlink:href="classPgp2bGtx7MultiLane.html" target="_top" xlink:title=" ">
<polygon fill="white" stroke="black" points="606.5,-342.5 606.5,-361.5 724.5,-361.5 724.5,-342.5 606.5,-342.5"/>
<text text-anchor="middle" x="665.5" y="-349.5" font-family="Helvetica,sans-Serif" font-size="10.00">Pgp2bGtx7MultiLane</text>
</a>
</g>
</g>
<!-- Node1&#45;&gt;Node33 -->
<g id="edge28" class="edge">
<title>Node1&#45;&gt;Node33</title>
<path fill="none" stroke="midnightblue" d="M532.65,-447.41C544.79,-425.84 567.66,-390.72 597,-371 602.76,-367.13 609.3,-364.04 615.99,-361.58"/>
<polygon fill="midnightblue" stroke="midnightblue" points="529.54,-445.8 527.84,-456.26 535.69,-449.15 529.54,-445.8"/>
</g>
<!-- Node37 -->
<g id="node29" class="node">
<title>Node37</title>
<g id="a_node29"><a xlink:href="classPgpGtyCoreWrapper.html" target="_top" xlink:title=" ">
<polygon fill="white" stroke="black" points="607.5,-304.5 607.5,-323.5 723.5,-323.5 723.5,-304.5 607.5,-304.5"/>
<text text-anchor="middle" x="665.5" y="-311.5" font-family="Helvetica,sans-Serif" font-size="10.00">PgpGtyCoreWrapper</text>
</a>
</g>
</g>
<!-- Node1&#45;&gt;Node37 -->
<g id="edge30" class="edge">
<title>Node1&#45;&gt;Node37</title>
<path fill="none" stroke="midnightblue" d="M528.55,-446.45C537.84,-417.33 559.31,-362.78 597,-333 601.87,-329.15 607.48,-326.08 613.34,-323.63"/>
<polygon fill="midnightblue" stroke="midnightblue" points="525.13,-445.68 525.58,-456.27 531.83,-447.71 525.13,-445.68"/>
</g>
<!-- Node39 -->
<g id="node31" class="node">
<title>Node39</title>
<g id="a_node31"><a xlink:href="classPgp2fcGtp7.html" target="_top" xlink:title=" ">
<polygon fill="white" stroke="black" points="629,-798.5 629,-817.5 702,-817.5 702,-798.5 629,-798.5"/>
<text text-anchor="middle" x="665.5" y="-805.5" font-family="Helvetica,sans-Serif" font-size="10.00">Pgp2fcGtp7</text>
</a>
</g>
</g>
<!-- Node1&#45;&gt;Node39 -->
<g id="edge32" class="edge">
<title>Node1&#45;&gt;Node39</title>
<path fill="none" stroke="midnightblue" d="M524.92,-485.9C531.43,-549.21 554.62,-744.48 597,-789 605.31,-797.73 617.29,-802.55 628.85,-805.18"/>
<polygon fill="midnightblue" stroke="midnightblue" points="528.38,-485.28 523.9,-475.68 521.41,-485.97 528.38,-485.28"/>
</g>
<!-- Node41 -->
<g id="node33" class="node">
<title>Node41</title>
<g id="a_node33"><a xlink:href="classPgp2fcGtyCoreWrapper.html" target="_top" xlink:title=" ">
<polygon fill="white" stroke="black" points="600,-266.5 600,-285.5 731,-285.5 731,-266.5 600,-266.5"/>
<text text-anchor="middle" x="665.5" y="-273.5" font-family="Helvetica,sans-Serif" font-size="10.00">Pgp2fcGtyCoreWrapper</text>
</a>
</g>
</g>
<!-- Node1&#45;&gt;Node41 -->
<g id="edge34" class="edge">
<title>Node1&#45;&gt;Node41</title>
<path fill="none" stroke="midnightblue" d="M525.95,-446.05C532.3,-410.36 550.63,-335.54 597,-295 601.4,-291.15 606.52,-288.08 611.94,-285.63"/>
<polygon fill="midnightblue" stroke="midnightblue" points="522.46,-445.74 524.29,-456.17 529.37,-446.87 522.46,-445.74"/>
</g>
<!-- Node43 -->
<g id="node35" class="node">
<title>Node43</title>
<g id="a_node35"><a xlink:href="classPgp3GthUsIpWrapper.html" target="_top" xlink:title=" ">
<polygon fill="white" stroke="black" points="605,-228.5 605,-247.5 726,-247.5 726,-228.5 605,-228.5"/>
<text text-anchor="middle" x="665.5" y="-235.5" font-family="Helvetica,sans-Serif" font-size="10.00">Pgp3GthUsIpWrapper</text>
</a>
</g>
</g>
<!-- Node1&#45;&gt;Node43 -->
<g id="edge36" class="edge">
<title>Node1&#45;&gt;Node43</title>
<path fill="none" stroke="midnightblue" d="M524.14,-446.35C527.6,-405.08 541.52,-308.94 597,-257 601.09,-253.17 605.89,-250.11 611.01,-247.65"/>
<polygon fill="midnightblue" stroke="midnightblue" points="520.64,-446.22 523.41,-456.45 527.62,-446.73 520.64,-446.22"/>
</g>
<!-- Node48 -->
<g id="node38" class="node">
<title>Node48</title>
<g id="a_node38"><a xlink:href="classPgp3Gtp7IpWrapper.html" target="_top" xlink:title=" ">
<polygon fill="white" stroke="red" points="608.5,-190.5 608.5,-209.5 722.5,-209.5 722.5,-190.5 608.5,-190.5"/>
<text text-anchor="middle" x="665.5" y="-197.5" font-family="Helvetica,sans-Serif" font-size="10.00">Pgp3Gtp7IpWrapper</text>
</a>
</g>
</g>
<!-- Node1&#45;&gt;Node48 -->
<g id="edge39" class="edge">
<title>Node1&#45;&gt;Node48</title>
<path fill="none" stroke="midnightblue" d="M522.88,-446.05C523.74,-399.41 532.56,-282.37 597,-219 600.91,-215.16 605.52,-212.08 610.48,-209.62"/>
<polygon fill="midnightblue" stroke="midnightblue" points="519.38,-446.3 522.81,-456.32 526.38,-446.35 519.38,-446.3"/>
</g>
<!-- Node54 -->
<g id="node39" class="node">
<title>Node54</title>
<g id="a_node39"><a xlink:href="classPgp3Gtx7IpWrapper.html" target="_top" xlink:title=" ">
<polygon fill="white" stroke="red" points="789,-741.5 789,-760.5 903,-760.5 903,-741.5 789,-741.5"/>
<text text-anchor="middle" x="846" y="-748.5" font-family="Helvetica,sans-Serif" font-size="10.00">Pgp3Gtx7IpWrapper</text>
</a>
</g>
</g>
<!-- Node1&#45;&gt;Node54 -->
<g id="edge40" class="edge">
<title>Node1&#45;&gt;Node54</title>
<path fill="none" stroke="midnightblue" d="M522.38,-485.86C522.09,-533.25 528.51,-653.43 597,-713 624.85,-737.23 724.54,-746.03 788.73,-749.21"/>
<polygon fill="midnightblue" stroke="midnightblue" points="525.89,-485.76 522.56,-475.7 518.89,-485.64 525.89,-485.76"/>
</g>
<!-- Node59 -->
<g id="node40" class="node">
<title>Node59</title>
<g id="a_node40"><a xlink:href="classPgp3GtyUsIpWrapper.html" target="_top" xlink:title=" ">
<polygon fill="white" stroke="red" points="605,-152.5 605,-171.5 726,-171.5 726,-152.5 605,-152.5"/>
<text text-anchor="middle" x="665.5" y="-159.5" font-family="Helvetica,sans-Serif" font-size="10.00">Pgp3GtyUsIpWrapper</text>
</a>
</g>
</g>
<!-- Node1&#45;&gt;Node59 -->
<g id="edge41" class="edge">
<title>Node1&#45;&gt;Node59</title>
<path fill="none" stroke="midnightblue" d="M525.56,-446.2C533.47,-388.05 559.27,-219.51 597,-181 600.75,-177.17 605.2,-174.1 610.01,-171.64"/>
<polygon fill="midnightblue" stroke="midnightblue" points="522.07,-445.91 524.22,-456.28 529.01,-446.83 522.07,-445.91"/>
</g>
<!-- Node64 -->
<g id="node41" class="node">
<title>Node64</title>
<g id="a_node41"><a xlink:href="classClockManager7.html" target="_top" xlink:title=" ">
<polygon fill="white" stroke="red" points="619.5,-760.5 619.5,-779.5 711.5,-779.5 711.5,-760.5 619.5,-760.5"/>
<text text-anchor="middle" x="665.5" y="-767.5" font-family="Helvetica,sans-Serif" font-size="10.00">ClockManager7</text>
</a>
</g>
</g>
<!-- Node1&#45;&gt;Node64 -->
<g id="edge42" class="edge">
<title>Node1&#45;&gt;Node64</title>
<path fill="none" stroke="midnightblue" d="M522.33,-485.86C521.74,-536.19 527.2,-670.14 597,-746 603.06,-752.59 611.06,-757.37 619.41,-760.84"/>
<polygon fill="midnightblue" stroke="midnightblue" points="525.83,-485.76 522.55,-475.68 518.84,-485.61 525.83,-485.76"/>
</g>
<!-- Node70 -->
<g id="node42" class="node">
<title>Node70</title>
<g id="a_node42"><a xlink:href="classGth7QuadPll.html" target="_top" xlink:title=" ">
<polygon fill="white" stroke="red" points="627,-532.5 627,-551.5 704,-551.5 704,-532.5 627,-532.5"/>
<text text-anchor="middle" x="665.5" y="-539.5" font-family="Helvetica,sans-Serif" font-size="10.00">Gth7QuadPll</text>
</a>
</g>
</g>
<!-- Node1&#45;&gt;Node70 -->
<g id="edge48" class="edge">
<title>Node1&#45;&gt;Node70</title>
<path fill="none" stroke="midnightblue" d="M540.69,-482.79C554.91,-495.46 575.92,-512.42 597,-523 606.25,-527.64 616.8,-531.3 626.76,-534.11"/>
<polygon fill="midnightblue" stroke="midnightblue" points="542.9,-480.06 533.15,-475.9 538.17,-485.23 542.9,-480.06"/>
</g>
<!-- Node73 -->
<g id="node43" class="node">
<title>Node73</title>
<g id="a_node43"><a xlink:href="classGtp7QuadPll.html" target="_top" xlink:title=" ">
<polygon fill="white" stroke="red" points="627,-836.5 627,-855.5 704,-855.5 704,-836.5 627,-836.5"/>
<text text-anchor="middle" x="665.5" y="-843.5" font-family="Helvetica,sans-Serif" font-size="10.00">Gtp7QuadPll</text>
</a>
</g>
</g>
<!-- Node1&#45;&gt;Node73 -->
<g id="edge50" class="edge">
<title>Node1&#45;&gt;Node73</title>
<path fill="none" stroke="midnightblue" d="M524.41,-485.98C529.61,-554.18 549.94,-776.41 597,-827 604.79,-835.38 615.97,-840.17 626.98,-842.87"/>
<polygon fill="midnightblue" stroke="midnightblue" points="527.88,-485.47 523.65,-475.75 520.9,-485.98 527.88,-485.47"/>
</g>
<!-- Node76 -->
<g id="node44" class="node">
<title>Node76</title>
<g id="a_node44"><a xlink:href="classGtx7QuadPll.html" target="_top" xlink:title=" ">
<polygon fill="white" stroke="red" points="627,-684.5 627,-703.5 704,-703.5 704,-684.5 627,-684.5"/>
<text text-anchor="middle" x="665.5" y="-691.5" font-family="Helvetica,sans-Serif" font-size="10.00">Gtx7QuadPll</text>
</a>
</g>
</g>
<!-- Node1&#45;&gt;Node76 -->
<g id="edge53" class="edge">
<title>Node1&#45;&gt;Node76</title>
<path fill="none" stroke="midnightblue" d="M524.14,-485.65C527.6,-526.92 541.52,-623.06 597,-675 605.18,-682.65 616.19,-687.26 626.95,-690.02"/>
<polygon fill="midnightblue" stroke="midnightblue" points="527.62,-485.27 523.41,-475.55 520.64,-485.78 527.62,-485.27"/>
</g>
<!-- Node81 -->
<g id="node45" class="node">
<title>Node81</title>
<g id="a_node45"><a xlink:href="classXadcSimpleCore.html" target="_top" xlink:title=" ">
<polygon fill="white" stroke="black" points="617,-114.5 617,-133.5 714,-133.5 714,-114.5 617,-114.5"/>
<text text-anchor="middle" x="665.5" y="-121.5" font-family="Helvetica,sans-Serif" font-size="10.00">XadcSimpleCore</text>
</a>
</g>
</g>
<!-- Node1&#45;&gt;Node81 -->
<g id="edge55" class="edge">
<title>Node1&#45;&gt;Node81</title>
<path fill="none" stroke="midnightblue" d="M524.92,-446.1C531.43,-382.79 554.62,-187.52 597,-143 602.46,-137.27 609.49,-133.22 616.96,-130.38"/>
<polygon fill="midnightblue" stroke="midnightblue" points="521.41,-446.03 523.9,-456.32 528.38,-446.72 521.41,-446.03"/>
</g>
<!-- Node82 -->
<g id="node46" class="node">
<title>Node82</title>
<g id="a_node46"><a xlink:href="classClockManagerUltraScale.html" target="_top" xlink:title=" ">
<polygon fill="white" stroke="red" points="597,-608.5 597,-627.5 734,-627.5 734,-608.5 597,-608.5"/>
<text text-anchor="middle" x="665.5" y="-615.5" font-family="Helvetica,sans-Serif" font-size="10.00">ClockManagerUltraScale</text>
</a>
</g>
</g>
<!-- Node1&#45;&gt;Node82 -->
<g id="edge56" class="edge">
<title>Node1&#45;&gt;Node82</title>
<path fill="none" stroke="midnightblue" d="M530.6,-485.39C540.81,-512.93 561.86,-562.23 597,-590 609.9,-600.19 627.96,-604.92 642.16,-608.43"/>
<polygon fill="midnightblue" stroke="midnightblue" points="533.78,-483.9 527.1,-475.68 527.2,-486.27 533.78,-483.9"/>
</g>
<!-- Node1&#45;&gt;Node82 -->
<g id="edge60" class="edge">
<title>Node1&#45;&gt;Node82</title>
<path fill="none" stroke="midnightblue" d="M526.94,-485.49C535.2,-516.71 556.94,-576.35 597,-608 597.19,-608.15 597.38,-608.3 597.58,-608.45"/>
<polygon fill="midnightblue" stroke="midnightblue" points="530.33,-484.62 524.58,-475.73 523.53,-486.27 530.33,-484.62"/>
</g>
<!-- Node93 -->
<g id="node47" class="node">
<title>Node93</title>
<g id="a_node47"><a xlink:href="classSelectioDeserUltraScale.html" target="_top" xlink:title=" ">
<polygon fill="white" stroke="red" points="598.5,-76.5 598.5,-95.5 732.5,-95.5 732.5,-76.5 598.5,-76.5"/>
<text text-anchor="middle" x="665.5" y="-83.5" font-family="Helvetica,sans-Serif" font-size="10.00">SelectioDeserUltraScale</text>
</a>
</g>
</g>
<!-- Node1&#45;&gt;Node93 -->
<g id="edge58" class="edge">
<title>Node1&#45;&gt;Node93</title>
<path fill="none" stroke="midnightblue" d="M524.41,-446.02C529.61,-377.82 549.94,-155.59 597,-105 600.57,-101.17 604.84,-98.09 609.48,-95.61"/>
<polygon fill="midnightblue" stroke="midnightblue" points="520.9,-446.02 523.65,-456.25 527.88,-446.53 520.9,-446.02"/>
</g>
<!-- Node96 -->
<g id="node48" class="node">
<title>Node96</title>
<g id="a_node48"><a xlink:href="classGthUltraScaleQuadPll.html" target="_top" xlink:title=" ">
<polygon fill="white" stroke="red" points="604.5,-38.5 604.5,-57.5 726.5,-57.5 726.5,-38.5 604.5,-38.5"/>
<text text-anchor="middle" x="665.5" y="-45.5" font-family="Helvetica,sans-Serif" font-size="10.00">GthUltraScaleQuadPll</text>
</a>
</g>
</g>
<!-- Node1&#45;&gt;Node96 -->
<g id="edge59" class="edge">
<title>Node1&#45;&gt;Node96</title>
<path fill="none" stroke="midnightblue" d="M523.82,-445.85C527.47,-371.47 544.47,-115.54 597,-58 599.22,-55.57 601.72,-53.45 604.41,-51.59"/>
<polygon fill="midnightblue" stroke="midnightblue" points="520.31,-446.02 523.34,-456.17 527.3,-446.34 520.31,-446.02"/>
</g>
<!-- Node1&#45;&gt;Node96 -->
<g id="edge61" class="edge">
<title>Node1&#45;&gt;Node96</title>
<path fill="none" stroke="midnightblue" d="M524.18,-446.1C528.52,-374.34 546.04,-131.82 597,-76 606.6,-65.48 621.53,-60.61 634.9,-57.56"/>
<polygon fill="midnightblue" stroke="midnightblue" points="520.67,-446.25 523.58,-456.44 527.66,-446.66 520.67,-446.25"/>
</g>
<!-- Node101 -->
<g id="node49" class="node">
<title>Node101</title>
<g id="a_node49"><a xlink:href="classGtyUltraScaleQuadPll.html" target="_top" xlink:title=" ">
<polygon fill="white" stroke="red" points="604.5,-0.5 604.5,-19.5 726.5,-19.5 726.5,-0.5 604.5,-0.5"/>
<text text-anchor="middle" x="665.5" y="-7.5" font-family="Helvetica,sans-Serif" font-size="10.00">GtyUltraScaleQuadPll</text>
</a>
</g>
</g>
<!-- Node1&#45;&gt;Node101 -->
<g id="edge62" class="edge">
<title>Node1&#45;&gt;Node101</title>
<path fill="none" stroke="midnightblue" d="M523.63,-445.95C526.47,-368.74 540.49,-91.88 597,-29 600.42,-25.2 604.53,-22.13 609.02,-19.66"/>
<polygon fill="midnightblue" stroke="midnightblue" points="520.13,-446.09 523.28,-456.2 527.12,-446.33 520.13,-446.09"/>
</g>
<!-- Node2 -->
<g id="node2" class="node">
<title>Node2</title>
<g id="a_node2"><a xlink:href="classAxiLiteAsync.html" target="_top" xlink:title=" ">
<polygon fill="white" stroke="black" points="367,-456.5 367,-475.5 447,-475.5 447,-456.5 367,-456.5"/>
<text text-anchor="middle" x="407" y="-463.5" font-family="Helvetica,sans-Serif" font-size="10.00">AxiLiteAsync</text>
</a>
</g>
</g>
<!-- Node2&#45;&gt;Node1 -->
<g id="edge1" class="edge">
<title>Node2&#45;&gt;Node1</title>
<path fill="none" stroke="midnightblue" d="M457.37,-466C465.83,-466 474.51,-466 482.63,-466"/>
<polygon fill="midnightblue" stroke="midnightblue" points="457.2,-462.5 447.2,-466 457.2,-469.5 457.2,-462.5"/>
</g>
<!-- Node3 -->
<g id="node3" class="node">
<title>Node3</title>
<g id="a_node3"><a xlink:href="classRstSync.html" target="_top" xlink:title=" ">
<polygon fill="white" stroke="black" points="145.5,-532.5 145.5,-551.5 201.5,-551.5 201.5,-532.5 145.5,-532.5"/>
<text text-anchor="middle" x="173.5" y="-539.5" font-family="Helvetica,sans-Serif" font-size="10.00">RstSync</text>
</a>
</g>
</g>
<!-- Node3&#45;&gt;Node2 -->
<g id="edge2" class="edge">
<title>Node3&#45;&gt;Node2</title>
<path fill="none" stroke="midnightblue" d="M211.08,-529.99C257.03,-514.91 334.93,-489.33 376.99,-475.52"/>
<polygon fill="midnightblue" stroke="midnightblue" points="209.92,-526.69 201.51,-533.13 212.1,-533.34 209.92,-526.69"/>
</g>
<!-- Node5 -->
<g id="node5" class="node">
<title>Node5</title>
<g id="a_node5"><a xlink:href="classFifoAsync.html" target="_top" xlink:title=" ">
<polygon fill="white" stroke="black" points="267,-437.5 267,-456.5 331,-456.5 331,-437.5 267,-437.5"/>
<text text-anchor="middle" x="299" y="-444.5" font-family="Helvetica,sans-Serif" font-size="10.00">FifoAsync</text>
</a>
</g>
</g>
<!-- Node3&#45;&gt;Node5 -->
<g id="edge5" class="edge">
<title>Node3&#45;&gt;Node5</title>
<path fill="none" stroke="midnightblue" d="M211.52,-532.67C218.3,-530.11 225.09,-526.92 231,-523 258.4,-504.8 281.52,-472.64 291.99,-456.62"/>
<polygon fill="midnightblue" stroke="midnightblue" points="210.05,-529.47 201.69,-535.99 212.29,-536.1 210.05,-529.47"/>
</g>
<!-- Node4 -->
<g id="node4" class="node">
<title>Node4</title>
<g id="a_node4"><a xlink:href="classSynchronizer.html" target="_top" xlink:title=" ">
<polygon fill="white" stroke="black" points="0,-494.5 0,-513.5 80,-513.5 80,-494.5 0,-494.5"/>
<text text-anchor="middle" x="40" y="-501.5" font-family="Helvetica,sans-Serif" font-size="10.00">Synchronizer</text>
</a>
</g>
</g>
<!-- Node4&#45;&gt;Node3 -->
<g id="edge3" class="edge">
<title>Node4&#45;&gt;Node3</title>
<path fill="none" stroke="midnightblue" d="M84.05,-516.44C104.13,-522.24 127.45,-528.98 145.09,-534.08"/>
<polygon fill="midnightblue" stroke="midnightblue" points="84.76,-513 74.18,-513.59 82.82,-519.73 84.76,-513"/>
</g>
<!-- Node4&#45;&gt;Node5 -->
<g id="edge7" class="edge">
<title>Node4&#45;&gt;Node5</title>
<path fill="none" stroke="midnightblue" d="M87.54,-491.89C96.94,-489.53 106.77,-487.13 116,-485 168.84,-472.8 230.71,-460.25 267,-453.06"/>
<polygon fill="midnightblue" stroke="midnightblue" points="86.38,-488.57 77.55,-494.41 88.1,-495.35 86.38,-488.57"/>
</g>
<!-- Node5&#45;&gt;Node2 -->
<g id="edge4" class="edge">
<title>Node5&#45;&gt;Node2</title>
<path fill="none" stroke="midnightblue" d="M341.2,-454.38C349.58,-455.89 358.39,-457.47 366.71,-458.96"/>
<polygon fill="midnightblue" stroke="midnightblue" points="341.69,-450.92 331.23,-452.6 340.46,-457.81 341.69,-450.92"/>
</g>
<!-- Node6 -->
<g id="node6" class="node">
<title>Node6</title>
<g id="a_node6"><a xlink:href="classSynchronizerVector.html" target="_top" xlink:title=" ">
<polygon fill="white" stroke="black" points="118.5,-342.5 118.5,-361.5 228.5,-361.5 228.5,-342.5 118.5,-342.5"/>
<text text-anchor="middle" x="173.5" y="-349.5" font-family="Helvetica,sans-Serif" font-size="10.00">SynchronizerVector</text>
</a>
</g>
</g>
<!-- Node6&#45;&gt;Node5 -->
<g id="edge6" class="edge">
<title>Node6&#45;&gt;Node5</title>
<path fill="none" stroke="midnightblue" d="M221.2,-365.47C224.62,-367.12 227.93,-368.96 231,-371 258.4,-389.2 281.52,-421.36 291.99,-437.38"/>
<polygon fill="midnightblue" stroke="midnightblue" points="222.54,-362.23 211.97,-361.5 219.78,-368.67 222.54,-362.23"/>
</g>
<!-- Node7 -->
<g id="node7" class="node">
<title>Node7</title>
<g id="a_node7"><a xlink:href="classFifoWrFsm.html" target="_top" xlink:title=" ">
<polygon fill="white" stroke="black" points="139,-304.5 139,-323.5 208,-323.5 208,-304.5 139,-304.5"/>
<text text-anchor="middle" x="173.5" y="-311.5" font-family="Helvetica,sans-Serif" font-size="10.00">FifoWrFsm</text>
</a>
</g>
</g>
<!-- Node7&#45;&gt;Node5 -->
<g id="edge8" class="edge">
<title>Node7&#45;&gt;Node5</title>
<path fill="none" stroke="midnightblue" d="M217.58,-324.78C222.39,-327.03 226.99,-329.74 231,-333 266.65,-361.94 287.49,-415.24 294.9,-437.18"/>
<polygon fill="midnightblue" stroke="midnightblue" points="218.78,-321.49 208.19,-320.99 216.16,-327.98 218.78,-321.49"/>
</g>
<!-- Node8 -->
<g id="node8" class="node">
<title>Node8</title>
<g id="a_node8"><a xlink:href="classFifoRdFsm.html" target="_top" xlink:title=" ">
<polygon fill="white" stroke="black" points="139.5,-494.5 139.5,-513.5 207.5,-513.5 207.5,-494.5 139.5,-494.5"/>
<text text-anchor="middle" x="173.5" y="-501.5" font-family="Helvetica,sans-Serif" font-size="10.00">FifoRdFsm</text>
</a>
</g>
</g>
<!-- Node8&#45;&gt;Node5 -->
<g id="edge9" class="edge">
<title>Node8&#45;&gt;Node5</title>
<path fill="none" stroke="midnightblue" d="M207.02,-490.56C214.9,-487.19 223.29,-483.53 231,-480 247.5,-472.44 265.99,-463.28 279.36,-456.53"/>
<polygon fill="midnightblue" stroke="midnightblue" points="205.57,-487.37 197.72,-494.48 208.29,-493.82 205.57,-487.37"/>
</g>
<!-- Node9 -->
<g id="node9" class="node">
<title>Node9</title>
<g id="a_node9"><a xlink:href="classSimpleDualPortRam.html" target="_top" xlink:title=" ">
<polygon fill="white" stroke="black" points="116,-418.5 116,-437.5 231,-437.5 231,-418.5 116,-418.5"/>
<text text-anchor="middle" x="173.5" y="-425.5" font-family="Helvetica,sans-Serif" font-size="10.00">SimpleDualPortRam</text>
</a>
</g>
</g>
<!-- Node9&#45;&gt;Node5 -->
<g id="edge10" class="edge">
<title>Node9&#45;&gt;Node5</title>
<path fill="none" stroke="midnightblue" d="M241.3,-438.28C250.24,-439.65 259.03,-441.01 266.93,-442.22"/>
<polygon fill="midnightblue" stroke="midnightblue" points="241.61,-434.78 231.19,-436.72 240.54,-441.7 241.61,-434.78"/>
</g>
<!-- Node10 -->
<g id="node10" class="node">
<title>Node10</title>
<g id="a_node10"><a xlink:href="classFifoOutputPipeline.html" target="_top" xlink:title=" ">
<polygon fill="white" stroke="black" points="120,-380.5 120,-399.5 227,-399.5 227,-380.5 120,-380.5"/>
<text text-anchor="middle" x="173.5" y="-387.5" font-family="Helvetica,sans-Serif" font-size="10.00">FifoOutputPipeline</text>
</a>
</g>
</g>
<!-- Node10&#45;&gt;Node5 -->
<g id="edge11" class="edge">
<title>Node10&#45;&gt;Node5</title>
<path fill="none" stroke="midnightblue" d="M216.02,-402.94C221.12,-404.83 226.22,-406.86 231,-409 249.56,-417.29 269.7,-429.13 283,-437.39"/>
<polygon fill="midnightblue" stroke="midnightblue" points="216.88,-399.54 206.29,-399.5 214.55,-406.14 216.88,-399.54"/>
</g>
<!-- Node12 -->
<g id="node12" class="node">
<title>Node12</title>
<g id="a_node12"><a xlink:href="classGigEthGtx7Wrapper.html" target="_top" xlink:title=" ">
<polygon fill="white" stroke="black" points="789.5,-826.5 789.5,-845.5 902.5,-845.5 902.5,-826.5 789.5,-826.5"/>
<text text-anchor="middle" x="846" y="-833.5" font-family="Helvetica,sans-Serif" font-size="10.00">GigEthGtx7Wrapper</text>
</a>
</g>
</g>
<!-- Node11&#45;&gt;Node12 -->
<g id="edge13" class="edge">
<title>Node11&#45;&gt;Node12</title>
<path fill="none" stroke="midnightblue" d="M710.39,-871.65C735.81,-864.5 763.95,-856.61 770,-855 781.81,-851.85 794.7,-848.54 806.41,-845.58"/>
<polygon fill="midnightblue" stroke="midnightblue" points="709.15,-868.36 700.47,-874.44 711.05,-875.1 709.15,-868.36"/>
</g>
<!-- Node14 -->
<g id="node14" class="node">
<title>Node14</title>
<g id="a_node14"><a xlink:href="classClinkDataShift.html" target="_top" xlink:title=" ">
<polygon fill="white" stroke="red" points="803,-589.5 803,-608.5 889,-608.5 889,-589.5 803,-589.5"/>
<text text-anchor="middle" x="846" y="-596.5" font-family="Helvetica,sans-Serif" font-size="10.00">ClinkDataShift</text>
</a>
</g>
</g>
<!-- Node13&#45;&gt;Node14 -->
<g id="edge15" class="edge">
<title>Node13&#45;&gt;Node14</title>
<path fill="none" stroke="midnightblue" d="M715.8,-585.25C743.12,-588.16 776.72,-591.73 802.8,-594.51"/>
<polygon fill="midnightblue" stroke="midnightblue" points="715.99,-581.75 705.67,-584.17 715.25,-588.71 715.99,-581.75"/>
</g>
<!-- Node18 -->
<g id="node16" class="node">
<title>Node18</title>
<g id="a_node16"><a xlink:href="classPgp2bGth7FixedLatWrapper.html" target="_top" xlink:title=" ">
<polygon fill="white" stroke="black" points="770,-513.5 770,-532.5 922,-532.5 922,-513.5 770,-513.5"/>
<text text-anchor="middle" x="846" y="-520.5" font-family="Helvetica,sans-Serif" font-size="10.00">Pgp2bGth7FixedLatWrapper</text>
</a>
</g>
</g>
<!-- Node17&#45;&gt;Node18 -->
<g id="edge17" class="edge">
<title>Node17&#45;&gt;Node18</title>
<path fill="none" stroke="midnightblue" d="M729.74,-510.73C742.66,-512.11 756.38,-513.57 769.67,-514.98"/>
<polygon fill="midnightblue" stroke="midnightblue" points="729.89,-507.23 719.57,-509.65 729.15,-514.19 729.89,-507.23"/>
</g>
<!-- Node20 -->
<g id="node18" class="node">
<title>Node20</title>
<g id="a_node18"><a xlink:href="classPgp2bGth7VarLat.html" target="_top" xlink:title=" ">
<polygon fill="white" stroke="red" points="795.5,-456.5 795.5,-475.5 896.5,-475.5 896.5,-456.5 795.5,-456.5"/>
<text text-anchor="middle" x="846" y="-463.5" font-family="Helvetica,sans-Serif" font-size="10.00">Pgp2bGth7VarLat</text>
</a>
</g>
</g>
<!-- Node19&#45;&gt;Node20 -->
<g id="edge19" class="edge">
<title>Node19&#45;&gt;Node20</title>
<path fill="none" stroke="midnightblue" d="M734.99,-466C755.11,-466 776.71,-466 795.4,-466"/>
<polygon fill="midnightblue" stroke="midnightblue" points="734.95,-462.5 724.95,-466 734.95,-469.5 734.95,-462.5"/>
</g>
<!-- Node23 -->
<g id="node20" class="node">
<title>Node23</title>
<g id="a_node20"><a xlink:href="classPgp2bGthUltra.html" target="_top" xlink:title=" ">
<polygon fill="white" stroke="black" points="802,-418.5 802,-437.5 890,-437.5 890,-418.5 802,-418.5"/>
<text text-anchor="middle" x="846" y="-425.5" font-family="Helvetica,sans-Serif" font-size="10.00">Pgp2bGthUltra</text>
</a>
</g>
</g>
<!-- Node22&#45;&gt;Node23 -->
<g id="edge21" class="edge">
<title>Node22&#45;&gt;Node23</title>
<path fill="none" stroke="midnightblue" d="M734.22,-428C756.89,-428 781.53,-428 801.8,-428"/>
<polygon fill="midnightblue" stroke="midnightblue" points="733.96,-424.5 723.96,-428 733.96,-431.5 733.96,-424.5"/>
</g>
<!-- Node25 -->
<g id="node22" class="node">
<title>Node25</title>
<g id="a_node22"><a xlink:href="classPgp2bGtp7FixedLatWrapper.html" target="_top" xlink:title=" ">
<polygon fill="white" stroke="black" points="770,-864.5 770,-883.5 922,-883.5 922,-864.5 770,-864.5"/>
<text text-anchor="middle" x="846" y="-871.5" font-family="Helvetica,sans-Serif" font-size="10.00">Pgp2bGtp7FixedLatWrapper</text>
</a>
</g>
</g>
<!-- Node24&#45;&gt;Node25 -->
<g id="edge23" class="edge">
<title>Node24&#45;&gt;Node25</title>
<path fill="none" stroke="midnightblue" d="M712.08,-909.74C742.31,-901.61 781.41,-891.1 809.37,-883.58"/>
<polygon fill="midnightblue" stroke="midnightblue" points="710.94,-906.43 702.19,-912.4 712.76,-913.18 710.94,-906.43"/>
</g>
<!-- Node27 -->
<g id="node24" class="node">
<title>Node27</title>
<g id="a_node24"><a xlink:href="classPgp2bGtp7VarLat.html" target="_top" xlink:title=" ">
<polygon fill="white" stroke="red" points="795.5,-380.5 795.5,-399.5 896.5,-399.5 896.5,-380.5 795.5,-380.5"/>
<text text-anchor="middle" x="846" y="-387.5" font-family="Helvetica,sans-Serif" font-size="10.00">Pgp2bGtp7VarLat</text>
</a>
</g>
</g>
<!-- Node26&#45;&gt;Node27 -->
<g id="edge25" class="edge">
<title>Node26&#45;&gt;Node27</title>
<path fill="none" stroke="midnightblue" d="M734.99,-390C755.11,-390 776.71,-390 795.4,-390"/>
<polygon fill="midnightblue" stroke="midnightblue" points="734.95,-386.5 724.95,-390 734.95,-393.5 734.95,-386.5"/>
</g>
<!-- Node30 -->
<g id="node26" class="node">
<title>Node30</title>
<g id="a_node26"><a xlink:href="classPgp2bGtx7FixedLatWrapper.html" target="_top" xlink:title=" ">
<polygon fill="white" stroke="red" points="770,-684.5 770,-703.5 922,-703.5 922,-684.5 770,-684.5"/>
<text text-anchor="middle" x="846" y="-691.5" font-family="Helvetica,sans-Serif" font-size="10.00">Pgp2bGtx7FixedLatWrapper</text>
</a>
</g>
</g>
<!-- Node29&#45;&gt;Node30 -->
<g id="edge27" class="edge">
<title>Node29&#45;&gt;Node30</title>
<path fill="none" stroke="midnightblue" d="M721.37,-667.68C746.68,-673.07 776.35,-679.39 800.28,-684.48"/>
<polygon fill="midnightblue" stroke="midnightblue" points="722.05,-664.25 711.54,-665.59 720.6,-671.09 722.05,-664.25"/>
</g>
<!-- Node34 -->
<g id="node28" class="node">
<title>Node34</title>
<g id="a_node28"><a xlink:href="classPgp2bGtx7VarLat.html" target="_top" xlink:title=" ">
<polygon fill="white" stroke="red" points="795.5,-342.5 795.5,-361.5 896.5,-361.5 896.5,-342.5 795.5,-342.5"/>
<text text-anchor="middle" x="846" y="-349.5" font-family="Helvetica,sans-Serif" font-size="10.00">Pgp2bGtx7VarLat</text>
</a>
</g>
</g>
<!-- Node33&#45;&gt;Node34 -->
<g id="edge29" class="edge">
<title>Node33&#45;&gt;Node34</title>
<path fill="none" stroke="midnightblue" d="M734.99,-352C755.11,-352 776.71,-352 795.4,-352"/>
<polygon fill="midnightblue" stroke="midnightblue" points="734.95,-348.5 724.95,-352 734.95,-355.5 734.95,-348.5"/>
</g>
<!-- Node38 -->
<g id="node30" class="node">
<title>Node38</title>
<g id="a_node30"><a xlink:href="classPgp2bGtyUltra.html" target="_top" xlink:title=" ">
<polygon fill="white" stroke="black" points="802,-304.5 802,-323.5 890,-323.5 890,-304.5 802,-304.5"/>
<text text-anchor="middle" x="846" y="-311.5" font-family="Helvetica,sans-Serif" font-size="10.00">Pgp2bGtyUltra</text>
</a>
</g>
</g>
<!-- Node37&#45;&gt;Node38 -->
<g id="edge31" class="edge">
<title>Node37&#45;&gt;Node38</title>
<path fill="none" stroke="midnightblue" d="M734.22,-314C756.89,-314 781.53,-314 801.8,-314"/>
<polygon fill="midnightblue" stroke="midnightblue" points="733.96,-310.5 723.96,-314 733.96,-317.5 733.96,-310.5"/>
</g>
<!-- Node40 -->
<g id="node32" class="node">
<title>Node40</title>
<g id="a_node32"><a xlink:href="classPgp2fcGtp7Wrapper.html" target="_top" xlink:title=" ">
<polygon fill="white" stroke="black" points="789,-788.5 789,-807.5 903,-807.5 903,-788.5 789,-788.5"/>
<text text-anchor="middle" x="846" y="-795.5" font-family="Helvetica,sans-Serif" font-size="10.00">Pgp2fcGtp7Wrapper</text>
</a>
</g>
</g>
<!-- Node39&#45;&gt;Node40 -->
<g id="edge33" class="edge">
<title>Node39&#45;&gt;Node40</title>
<path fill="none" stroke="midnightblue" d="M712.2,-805.44C735.59,-804.13 764.27,-802.52 788.98,-801.14"/>
<polygon fill="midnightblue" stroke="midnightblue" points="711.98,-801.95 702.19,-806 712.37,-808.94 711.98,-801.95"/>
</g>
<!-- Node42 -->
<g id="node34" class="node">
<title>Node42</title>
<g id="a_node34"><a xlink:href="classPgp2fcGtyUltra.html" target="_top" xlink:title=" ">
<polygon fill="white" stroke="black" points="800.5,-266.5 800.5,-285.5 891.5,-285.5 891.5,-266.5 800.5,-266.5"/>
<text text-anchor="middle" x="846" y="-273.5" font-family="Helvetica,sans-Serif" font-size="10.00">Pgp2fcGtyUltra</text>
</a>
</g>
</g>
<!-- Node41&#45;&gt;Node42 -->
<g id="edge35" class="edge">
<title>Node41&#45;&gt;Node42</title>
<path fill="none" stroke="midnightblue" d="M741.27,-276C761.36,-276 782.46,-276 800.34,-276"/>
<polygon fill="midnightblue" stroke="midnightblue" points="741.2,-272.5 731.19,-276 741.19,-279.5 741.2,-272.5"/>
</g>
<!-- Node44 -->
<g id="node36" class="node">
<title>Node44</title>
<g id="a_node36"><a xlink:href="classPgp3GthUs.html" target="_top" xlink:title=" ">
<polygon fill="white" stroke="red" points="810.5,-190.5 810.5,-209.5 881.5,-209.5 881.5,-190.5 810.5,-190.5"/>
<text text-anchor="middle" x="846" y="-197.5" font-family="Helvetica,sans-Serif" font-size="10.00">Pgp3GthUs</text>
</a>
</g>
</g>
<!-- Node43&#45;&gt;Node44 -->
<g id="edge37" class="edge">
<title>Node43&#45;&gt;Node44</title>
<path fill="none" stroke="midnightblue" d="M721.53,-226.28C750.52,-220.11 785.18,-212.73 810.39,-207.37"/>
<polygon fill="midnightblue" stroke="midnightblue" points="720.6,-222.91 711.54,-228.41 722.05,-229.75 720.6,-222.91"/>
</g>
<!-- Node46 -->
<g id="node37" class="node">
<title>Node46</title>
<g id="a_node37"><a xlink:href="classPgp4GthUs.html" target="_top" xlink:title=" ">
<polygon fill="white" stroke="red" points="810.5,-228.5 810.5,-247.5 881.5,-247.5 881.5,-228.5 810.5,-228.5"/>
<text text-anchor="middle" x="846" y="-235.5" font-family="Helvetica,sans-Serif" font-size="10.00">Pgp4GthUs</text>
</a>
</g>
</g>
<!-- Node43&#45;&gt;Node46 -->
<g id="edge38" class="edge">
<title>Node43&#45;&gt;Node46</title>
<path fill="none" stroke="midnightblue" d="M736.76,-238C762.08,-238 789.54,-238 810.47,-238"/>
<polygon fill="midnightblue" stroke="midnightblue" points="736.43,-234.5 726.43,-238 736.43,-241.5 736.43,-234.5"/>
</g>
<!-- Node64&#45;&gt;Node12 -->
<g id="edge43" class="edge">
<title>Node64&#45;&gt;Node12</title>
<path fill="none" stroke="midnightblue" d="M719.56,-782.79C724.54,-784.63 729.43,-786.69 734,-789 752.09,-798.14 751.79,-808.1 770,-817 777.84,-820.83 786.54,-823.95 795.15,-826.45"/>
<polygon fill="midnightblue" stroke="midnightblue" points="720.52,-779.43 709.93,-779.54 718.28,-786.06 720.52,-779.43"/>
</g>
<!-- Node64&#45;&gt;Node25 -->
<g id="edge44" class="edge">
<title>Node64&#45;&gt;Node25</title>
<path fill="none" stroke="midnightblue" d="M721.31,-781.21C725.85,-783.37 730.16,-785.94 734,-789 760.13,-809.83 743.6,-834.52 770,-855 774.99,-858.87 780.67,-861.96 786.63,-864.42"/>
<polygon fill="midnightblue" stroke="midnightblue" points="722.35,-777.86 711.77,-777.34 719.72,-784.34 722.35,-777.86"/>
</g>
<!-- Node64&#45;&gt;Node30 -->
<g id="edge45" class="edge">
<title>Node64&#45;&gt;Node30</title>
<path fill="none" stroke="midnightblue" d="M698.6,-756.33C734.37,-741.1 791.29,-716.87 822.58,-703.55"/>
<polygon fill="midnightblue" stroke="midnightblue" points="696.94,-753.24 689.11,-760.37 699.68,-759.68 696.94,-753.24"/>
</g>
<!-- Node64&#45;&gt;Node40 -->
<g id="edge46" class="edge">
<title>Node64&#45;&gt;Node40</title>
<path fill="none" stroke="midnightblue" d="M721.44,-778.62C742.81,-781.97 767.28,-785.81 788.77,-789.18"/>
<polygon fill="midnightblue" stroke="midnightblue" points="721.96,-775.16 711.54,-777.07 720.88,-782.07 721.96,-775.16"/>
</g>
<!-- Node64&#45;&gt;Node54 -->
<g id="edge47" class="edge">
<title>Node64&#45;&gt;Node54</title>
<path fill="none" stroke="midnightblue" d="M721.73,-764.12C743.03,-761.85 767.38,-759.26 788.77,-756.98"/>
<polygon fill="midnightblue" stroke="midnightblue" points="721.12,-760.67 711.54,-765.21 721.86,-767.63 721.12,-760.67"/>
</g>
<!-- Node70&#45;&gt;Node18 -->
<g id="edge49" class="edge">
<title>Node70&#45;&gt;Node18</title>
<path fill="none" stroke="midnightblue" d="M714.56,-536.88C731.52,-535.08 751.03,-533 769.7,-531.01"/>
<polygon fill="midnightblue" stroke="midnightblue" points="713.93,-533.43 704.36,-537.97 714.67,-540.39 713.93,-533.43"/>
</g>
<!-- Node73&#45;&gt;Node25 -->
<g id="edge51" class="edge">
<title>Node73&#45;&gt;Node25</title>
<path fill="none" stroke="midnightblue" d="M714.25,-853.49C735.79,-856.87 761.49,-860.9 784.37,-864.49"/>
<polygon fill="midnightblue" stroke="midnightblue" points="714.78,-850.03 704.36,-851.94 713.69,-856.95 714.78,-850.03"/>
</g>
<!-- Node73&#45;&gt;Node40 -->
<g id="edge52" class="edge">
<title>Node73&#45;&gt;Node40</title>
<path fill="none" stroke="midnightblue" d="M710.39,-833.65C735.81,-826.5 763.95,-818.61 770,-817 781.81,-813.85 794.7,-810.54 806.41,-807.58"/>
<polygon fill="midnightblue" stroke="midnightblue" points="709.15,-830.36 700.47,-836.44 711.05,-837.1 709.15,-830.36"/>
</g>
<!-- Node76&#45;&gt;Node30 -->
<g id="edge54" class="edge">
<title>Node76&#45;&gt;Node30</title>
<path fill="none" stroke="midnightblue" d="M714.56,-694C731.52,-694 751.03,-694 769.7,-694"/>
<polygon fill="midnightblue" stroke="midnightblue" points="714.36,-690.5 704.36,-694 714.36,-697.5 714.36,-690.5"/>
</g>
<!-- Node82&#45;&gt;Node14 -->
<g id="edge57" class="edge">
<title>Node82&#45;&gt;Node14</title>
<path fill="none" stroke="midnightblue" d="M744.35,-609.71C764.48,-607.57 785.39,-605.34 802.91,-603.48"/>
<polygon fill="midnightblue" stroke="midnightblue" points="743.81,-606.25 734.24,-610.79 744.55,-613.21 743.81,-606.25"/>
</g>
</g>
</svg>
        <g id="navigator" transform="translate(0 0)" fill="#404254">
                <rect fill="#f2f5e9" fill-opacity="0.5" stroke="#606060" stroke-width=".5" x="0" y="0" width="60" height="60"/>
                <use id="zoomplus" xlink:href="#zoomPlus" x="17" y="9" onmousedown="handleZoom(evt,'in')"/>
                <use id="zoomminus" xlink:href="#zoomMin" x="42" y="9" onmousedown="handleZoom(evt,'out')"/>
                <use id="reset" xlink:href="#resetDef" x="30" y="36" onmousedown="handleReset()"/>
                <g id="arrowUp" xlink:href="#dirArrow" transform="translate(30 24)" onmousedown="handlePan(0,-1)">
                  <use xlink:href="#rim" fill="#404040">
                        <set attributeName="fill" to="#808080" begin="arrowUp.mouseover" end="arrowUp.mouseout"/>
                  </use>
                  <path fill="none" stroke="white" stroke-width="1.5" d="M0,-3.0v7 M-2.5,-0.5L0,-3.0L2.5,-0.5"/>
                </g>
                <g id="arrowRight" xlink:href="#dirArrow" transform="rotate(90) translate(36 -43)" onmousedown="handlePan(1,0)">
                  <use xlink:href="#rim" fill="#404040">
                        <set attributeName="fill" to="#808080" begin="arrowRight.mouseover" end="arrowRight.mouseout"/>
                  </use>
                  <path fill="none" stroke="white" stroke-width="1.5" d="M0,-3.0v7 M-2.5,-0.5L0,-3.0L2.5,-0.5"/>
                </g>
                <g id="arrowDown" xlink:href="#dirArrow" transform="rotate(180) translate(-30 -48)" onmousedown="handlePan(0,1)">
                  <use xlink:href="#rim" fill="#404040">
                        <set attributeName="fill" to="#808080" begin="arrowDown.mouseover" end="arrowDown.mouseout"/>
                  </use>
                  <path fill="none" stroke="white" stroke-width="1.5" d="M0,-3.0v7 M-2.5,-0.5L0,-3.0L2.5,-0.5"/>
                </g>
                <g id="arrowLeft" xlink:href="#dirArrow" transform="rotate(270) translate(-36 17)" onmousedown="handlePan(-1,0)">
                  <use xlink:href="#rim" fill="#404040">
                        <set attributeName="fill" to="#808080" begin="arrowLeft.mouseover" end="arrowLeft.mouseout"/>
                  </use>
                  <path fill="none" stroke="white" stroke-width="1.5" d="M0,-3.0v7 M-2.5,-0.5L0,-3.0L2.5,-0.5"/>
                </g>
        </g>
        <svg viewBox="0 0 15 15" width="100%" height="30px" preserveAspectRatio="xMaxYMin meet">
         <g id="arrow_out" transform="scale(0.3 0.3)">
          <a xlink:href="classAxiLiteToDrp__inherit__graph_org.svg" target="_base">
           <rect id="button" ry="5" rx="5" y="6" x="6" height="38" width="38"
                fill="#f2f5e9" fill-opacity="0.5" stroke="#606060" stroke-width="1.0"/>
           <path id="arrow"
             d="M 11.500037,31.436501 C 11.940474,20.09759 22.043105,11.32322 32.158766,21.979434 L 37.068811,17.246167 C 37.068811,17.246167 37.088388,32 37.088388,32 L 22.160133,31.978069 C 22.160133,31.978069 26.997745,27.140456 26.997745,27.140456 C 18.528582,18.264221 13.291696,25.230495 11.500037,31.436501 z"
             style="fill:#404040;"/>
          </a>
         </g>
        </svg>
</svg>
