<?xml version="1.0" encoding="UTF-8" standalone="no"?>
<!DOCTYPE svg PUBLIC "-//W3C//DTD SVG 1.1//EN"
 "http://www.w3.org/Graphics/SVG/1.1/DTD/svg11.dtd">
<!-- Generated by graphviz version 2.43.0 (0)
 -->
<!-- Title: AxiStreamDmaWrite Pages: 1 -->
<!--zoomable 476 -->
<svg id="main" version="1.1" xmlns="http://www.w3.org/2000/svg" xmlns:xlink="http://www.w3.org/1999/xlink" xml:space="preserve" onload="init(evt)">
<style type="text/css"><![CDATA[
.edge:hover path { stroke: red; }
.edge:hover polygon { stroke: red; fill: red; }
]]></style>
<script type="text/javascript"><![CDATA[
var edges = document.getElementsByTagName('g');
if (edges && edges.length) {
  for (var i=0;i<edges.length;i++) {
    if (edges[i].id.substr(0,4)=='edge') {
      edges[i].setAttribute('class','edge');
    }
  }
}
]]></script>
        <defs>
                <circle id="rim" cx="0" cy="0" r="7"/>
                <circle id="rim2" cx="0" cy="0" r="3.5"/>
                <g id="zoomPlus">
                        <use xlink:href="#rim" fill="#404040">
                                <set attributeName="fill" to="#808080" begin="zoomplus.mouseover" end="zoomplus.mouseout"/>
                        </use>
                        <path d="M-4,0h8M0,-4v8" fill="none" stroke="white" stroke-width="1.5" pointer-events="none"/>
                </g>
                <g id="zoomMin">
                        <use xlink:href="#rim" fill="#404040">
                                <set attributeName="fill" to="#808080" begin="zoomminus.mouseover" end="zoomminus.mouseout"/>
                        </use>
                        <path d="M-4,0h8" fill="none" stroke="white" stroke-width="1.5" pointer-events="none"/>
                </g>
                <g id="dirArrow">
                        <path fill="none" stroke="white" stroke-width="1.5" d="M0,-3.0v7 M-2.5,-0.5L0,-3.0L2.5,-0.5"/>
                </g>
               <g id="resetDef">
                       <use xlink:href="#rim2" fill="#404040">
                               <set attributeName="fill" to="#808080" begin="reset.mouseover" end="reset.mouseout"/>
                       </use>
               </g>
        </defs>

<script type="text/javascript">
var viewWidth = 862;
var viewHeight = 476;
var sectionId = 'dynsection-0';
</script>
<script xlink:href="svgpan.js"/>
<svg id="graph" class="graph">
<g id="viewport">
<title>AxiStreamDmaWrite</title>
<polygon fill="white" stroke="transparent" points="-4,4 -4,-472 857.5,-472 857.5,4 -4,4"/>
<!-- Node1 -->
<g id="node1" class="node">
<title>Node1</title>
<g id="a_node1"><a xlink:title=" ">
<polygon fill="#bfbfbf" stroke="black" points="447.5,-112.5 447.5,-131.5 564.5,-131.5 564.5,-112.5 447.5,-112.5"/>
<text text-anchor="middle" x="506" y="-119.5" font-family="Helvetica,sans-Serif" font-size="10.00">AxiStreamDmaWrite</text>
</a>
</g>
</g>
<!-- Node20 -->
<g id="node20" class="node">
<title>Node20</title>
<g id="a_node20"><a xlink:href="classAxiStreamDma.html" target="_top" xlink:title=" ">
<polygon fill="white" stroke="black" points="342.5,-56.5 342.5,-75.5 433.5,-75.5 433.5,-56.5 342.5,-56.5"/>
<text text-anchor="middle" x="388" y="-63.5" font-family="Helvetica,sans-Serif" font-size="10.00">AxiStreamDma</text>
</a>
</g>
</g>
<!-- Node1&#45;&gt;Node20 -->
<g id="edge31" class="edge">
<title>Node1&#45;&gt;Node20</title>
<path fill="none" stroke="midnightblue" d="M472.89,-108.5C449.3,-98.38 418.96,-84.39 401.53,-75.52"/>
<polygon fill="midnightblue" stroke="midnightblue" points="471.64,-111.77 482.21,-112.44 474.37,-105.33 471.64,-111.77"/>
</g>
<!-- Node1&#45;&gt;Node20 -->
<g id="edge34" class="edge">
<title>Node1&#45;&gt;Node20</title>
<path fill="none" stroke="midnightblue" d="M483.18,-107.86C462.67,-97.85 432.9,-84.35 412.02,-75.65"/>
<polygon fill="midnightblue" stroke="midnightblue" points="481.64,-111.01 492.16,-112.32 484.76,-104.74 481.64,-111.01"/>
</g>
<!-- Node21 -->
<g id="node21" class="node">
<title>Node21</title>
<g id="a_node21"><a xlink:href="classAxiStreamDmaFifo.html" target="_top" xlink:title=" ">
<polygon fill="white" stroke="black" points="451.5,-56.5 451.5,-75.5 560.5,-75.5 560.5,-56.5 451.5,-56.5"/>
<text text-anchor="middle" x="506" y="-63.5" font-family="Helvetica,sans-Serif" font-size="10.00">AxiStreamDmaFifo</text>
</a>
</g>
</g>
<!-- Node1&#45;&gt;Node21 -->
<g id="edge32" class="edge">
<title>Node1&#45;&gt;Node21</title>
<path fill="none" stroke="midnightblue" d="M499.53,-102.1C498.9,-93.14 499.34,-82.86 500.87,-75.75"/>
<polygon fill="midnightblue" stroke="midnightblue" points="496.07,-102.62 500.83,-112.08 503.01,-101.71 496.07,-102.62"/>
</g>
<!-- Node1&#45;&gt;Node21 -->
<g id="edge35" class="edge">
<title>Node1&#45;&gt;Node21</title>
<path fill="none" stroke="midnightblue" d="M512.47,-102.1C513.1,-93.14 512.66,-82.86 511.13,-75.75"/>
<polygon fill="midnightblue" stroke="midnightblue" points="508.99,-101.71 511.17,-112.08 515.93,-102.62 508.99,-101.71"/>
</g>
<!-- Node22 -->
<g id="node22" class="node">
<title>Node22</title>
<g id="a_node22"><a xlink:href="classAxiStreamDmaRingWrite.html" target="_top" xlink:title=" ">
<polygon fill="white" stroke="black" points="578.5,-56.5 578.5,-75.5 717.5,-75.5 717.5,-56.5 578.5,-56.5"/>
<text text-anchor="middle" x="648" y="-63.5" font-family="Helvetica,sans-Serif" font-size="10.00">AxiStreamDmaRingWrite</text>
</a>
</g>
</g>
<!-- Node1&#45;&gt;Node22 -->
<g id="edge33" class="edge">
<title>Node1&#45;&gt;Node22</title>
<path fill="none" stroke="midnightblue" d="M532.73,-108.64C557.88,-98.5 595.13,-84.43 620.52,-75.52"/>
<polygon fill="midnightblue" stroke="midnightblue" points="531.35,-105.42 523.41,-112.44 533.99,-111.9 531.35,-105.42"/>
</g>
<!-- Node1&#45;&gt;Node22 -->
<g id="edge36" class="edge">
<title>Node1&#45;&gt;Node22</title>
<path fill="none" stroke="midnightblue" d="M543.17,-109.04C571.45,-98.88 608.93,-84.55 630.68,-75.52"/>
<polygon fill="midnightblue" stroke="midnightblue" points="541.84,-105.8 533.59,-112.44 544.18,-112.39 541.84,-105.8"/>
</g>
<!-- Node23 -->
<g id="node23" class="node">
<title>Node23</title>
<g id="a_node23"><a xlink:href="classSrpV3Axi.html" target="_top" xlink:title=" ">
<polygon fill="white" stroke="black" points="735.5,-56.5 735.5,-75.5 796.5,-75.5 796.5,-56.5 735.5,-56.5"/>
<text text-anchor="middle" x="766" y="-63.5" font-family="Helvetica,sans-Serif" font-size="10.00">SrpV3Axi</text>
</a>
</g>
</g>
<!-- Node1&#45;&gt;Node23 -->
<g id="edge37" class="edge">
<title>Node1&#45;&gt;Node23</title>
<path fill="none" stroke="midnightblue" d="M559.76,-110.46C604.56,-101.58 670.03,-88.37 727,-76 729.72,-75.41 732.54,-74.78 735.36,-74.15"/>
<polygon fill="midnightblue" stroke="midnightblue" points="558.81,-107.08 549.68,-112.45 560.17,-113.95 558.81,-107.08"/>
</g>
<!-- Node2 -->
<g id="node2" class="node">
<title>Node2</title>
<g id="a_node2"><a xlink:href="classAxiStreamShift.html" target="_top" xlink:title=" ">
<polygon fill="white" stroke="black" points="573.5,-168.5 573.5,-187.5 662.5,-187.5 662.5,-168.5 573.5,-168.5"/>
<text text-anchor="middle" x="618" y="-175.5" font-family="Helvetica,sans-Serif" font-size="10.00">AxiStreamShift</text>
</a>
</g>
</g>
<!-- Node2&#45;&gt;Node1 -->
<g id="edge1" class="edge">
<title>Node2&#45;&gt;Node1</title>
<path fill="none" stroke="midnightblue" d="M590.75,-163.86C569.98,-153.85 541.98,-140.35 523.95,-131.65"/>
<polygon fill="midnightblue" stroke="midnightblue" points="589.48,-167.13 600.01,-168.32 592.52,-160.83 589.48,-167.13"/>
</g>
<!-- Node3 -->
<g id="node3" class="node">
<title>Node3</title>
<g id="a_node3"><a xlink:href="classAxiStreamPipeline.html" target="_top" xlink:title=" ">
<polygon fill="white" stroke="black" points="646.5,-336.5 646.5,-355.5 753.5,-355.5 753.5,-336.5 646.5,-336.5"/>
<text text-anchor="middle" x="700" y="-343.5" font-family="Helvetica,sans-Serif" font-size="10.00">AxiStreamPipeline</text>
</a>
</g>
</g>
<!-- Node3&#45;&gt;Node2 -->
<g id="edge2" class="edge">
<title>Node3&#45;&gt;Node2</title>
<path fill="none" stroke="midnightblue" d="M687.79,-328.12C674.15,-308.64 652.13,-275.26 638,-244 629.25,-224.63 622.91,-200.37 619.93,-187.66"/>
<polygon fill="midnightblue" stroke="midnightblue" points="685.1,-330.37 693.74,-336.5 690.81,-326.32 685.1,-330.37"/>
</g>
<!-- Node4 -->
<g id="node4" class="node">
<title>Node4</title>
<g id="a_node4"><a xlink:href="classAxiStreamFifoV2.html" target="_top" xlink:title=" ">
<polygon fill="white" stroke="black" points="457,-168.5 457,-187.5 555,-187.5 555,-168.5 457,-168.5"/>
<text text-anchor="middle" x="506" y="-175.5" font-family="Helvetica,sans-Serif" font-size="10.00">AxiStreamFifoV2</text>
</a>
</g>
</g>
<!-- Node3&#45;&gt;Node4 -->
<g id="edge29" class="edge">
<title>Node3&#45;&gt;Node4</title>
<path fill="none" stroke="midnightblue" d="M682.24,-329.8C642.45,-295.75 547.22,-214.27 516.06,-187.61"/>
<polygon fill="midnightblue" stroke="midnightblue" points="679.97,-332.47 689.84,-336.31 684.52,-327.15 679.97,-332.47"/>
</g>
<!-- Node5 -->
<g id="node5" class="node">
<title>Node5</title>
<g id="a_node5"><a xlink:href="classAxiStreamGearbox.html" target="_top" xlink:title=" ">
<polygon fill="white" stroke="black" points="646.5,-224.5 646.5,-243.5 755.5,-243.5 755.5,-224.5 646.5,-224.5"/>
<text text-anchor="middle" x="701" y="-231.5" font-family="Helvetica,sans-Serif" font-size="10.00">AxiStreamGearbox</text>
</a>
</g>
</g>
<!-- Node3&#45;&gt;Node5 -->
<g id="edge7" class="edge">
<title>Node3&#45;&gt;Node5</title>
<path fill="none" stroke="midnightblue" d="M698.23,-326.13C697.23,-313.16 696.31,-295.54 697,-280 697.56,-267.31 699.02,-252.66 700.01,-243.61"/>
<polygon fill="midnightblue" stroke="midnightblue" points="694.75,-326.5 699.09,-336.17 701.72,-325.91 694.75,-326.5"/>
</g>
<!-- Node6 -->
<g id="node6" class="node">
<title>Node6</title>
<g id="a_node6"><a xlink:href="classAxiStreamResize.html" target="_top" xlink:title=" ">
<polygon fill="white" stroke="black" points="706,-280.5 706,-299.5 806,-299.5 806,-280.5 706,-280.5"/>
<text text-anchor="middle" x="756" y="-287.5" font-family="Helvetica,sans-Serif" font-size="10.00">AxiStreamResize</text>
</a>
</g>
</g>
<!-- Node3&#45;&gt;Node6 -->
<g id="edge6" class="edge">
<title>Node3&#45;&gt;Node6</title>
<path fill="none" stroke="midnightblue" d="M716.33,-329.25C726.26,-319.67 738.59,-307.79 746.84,-299.83"/>
<polygon fill="midnightblue" stroke="midnightblue" points="713.77,-326.86 709,-336.32 718.63,-331.9 713.77,-326.86"/>
</g>
<!-- Node4&#45;&gt;Node1 -->
<g id="edge3" class="edge">
<title>Node4&#45;&gt;Node1</title>
<path fill="none" stroke="midnightblue" d="M506,-157.8C506,-148.91 506,-138.78 506,-131.75"/>
<polygon fill="midnightblue" stroke="midnightblue" points="502.5,-158.08 506,-168.08 509.5,-158.08 502.5,-158.08"/>
</g>
<!-- Node5&#45;&gt;Node4 -->
<g id="edge4" class="edge">
<title>Node5&#45;&gt;Node4</title>
<path fill="none" stroke="midnightblue" d="M660.19,-221.7C623.39,-211.51 570.07,-196.74 536.75,-187.52"/>
<polygon fill="midnightblue" stroke="midnightblue" points="659.53,-225.15 670.1,-224.44 661.4,-218.4 659.53,-225.15"/>
</g>
<!-- Node6&#45;&gt;Node5 -->
<g id="edge5" class="edge">
<title>Node6&#45;&gt;Node5</title>
<path fill="none" stroke="midnightblue" d="M739.71,-273C729.96,-263.43 717.95,-251.64 709.91,-243.75"/>
<polygon fill="midnightblue" stroke="midnightblue" points="737.33,-275.57 746.92,-280.08 742.23,-270.58 737.33,-275.57"/>
</g>
<!-- Node7 -->
<g id="node7" class="node">
<title>Node7</title>
<g id="a_node7"><a xlink:href="classFifoCascade.html" target="_top" xlink:title=" ">
<polygon fill="white" stroke="black" points="468,-224.5 468,-243.5 544,-243.5 544,-224.5 468,-224.5"/>
<text text-anchor="middle" x="506" y="-231.5" font-family="Helvetica,sans-Serif" font-size="10.00">FifoCascade</text>
</a>
</g>
</g>
<!-- Node7&#45;&gt;Node4 -->
<g id="edge8" class="edge">
<title>Node7&#45;&gt;Node4</title>
<path fill="none" stroke="midnightblue" d="M506,-213.8C506,-204.91 506,-194.78 506,-187.75"/>
<polygon fill="midnightblue" stroke="midnightblue" points="502.5,-214.08 506,-224.08 509.5,-214.08 502.5,-214.08"/>
</g>
<!-- Node8 -->
<g id="node8" class="node">
<title>Node8</title>
<g id="a_node8"><a xlink:href="classFifo.html" target="_top" xlink:title=" ">
<polygon fill="white" stroke="black" points="487.5,-280.5 487.5,-299.5 522.5,-299.5 522.5,-280.5 487.5,-280.5"/>
<text text-anchor="middle" x="505" y="-287.5" font-family="Helvetica,sans-Serif" font-size="10.00">Fifo</text>
</a>
</g>
</g>
<!-- Node8&#45;&gt;Node7 -->
<g id="edge9" class="edge">
<title>Node8&#45;&gt;Node7</title>
<path fill="none" stroke="midnightblue" d="M505.36,-269.8C505.52,-260.91 505.71,-250.78 505.84,-243.75"/>
<polygon fill="midnightblue" stroke="midnightblue" points="501.85,-270.02 505.17,-280.08 508.85,-270.15 501.85,-270.02"/>
</g>
<!-- Node9 -->
<g id="node9" class="node">
<title>Node9</title>
<g id="a_node9"><a xlink:href="classFifoXpm.html" target="_top" xlink:title=" ">
<polygon fill="white" stroke="black" points="476.5,-336.5 476.5,-355.5 533.5,-355.5 533.5,-336.5 476.5,-336.5"/>
<text text-anchor="middle" x="505" y="-343.5" font-family="Helvetica,sans-Serif" font-size="10.00">FifoXpm</text>
</a>
</g>
</g>
<!-- Node9&#45;&gt;Node8 -->
<g id="edge10" class="edge">
<title>Node9&#45;&gt;Node8</title>
<path fill="none" stroke="midnightblue" d="M505,-325.8C505,-316.91 505,-306.78 505,-299.75"/>
<polygon fill="midnightblue" stroke="midnightblue" points="501.5,-326.08 505,-336.08 508.5,-326.08 501.5,-326.08"/>
</g>
<!-- Node10 -->
<g id="node10" class="node">
<title>Node10</title>
<g id="a_node10"><a xlink:href="classFifoOutputPipeline.html" target="_top" xlink:title=" ">
<polygon fill="white" stroke="black" points="575.5,-392.5 575.5,-411.5 682.5,-411.5 682.5,-392.5 575.5,-392.5"/>
<text text-anchor="middle" x="629" y="-399.5" font-family="Helvetica,sans-Serif" font-size="10.00">FifoOutputPipeline</text>
</a>
</g>
</g>
<!-- Node10&#45;&gt;Node9 -->
<g id="edge11" class="edge">
<title>Node10&#45;&gt;Node9</title>
<path fill="none" stroke="midnightblue" d="M599.99,-388.37C576.77,-378.26 544.84,-364.35 524.56,-355.52"/>
<polygon fill="midnightblue" stroke="midnightblue" points="598.79,-391.66 609.35,-392.44 601.58,-385.24 598.79,-391.66"/>
</g>
<!-- Node11 -->
<g id="node11" class="node">
<title>Node11</title>
<g id="a_node11"><a xlink:href="classFifoAlteraMf.html" target="_top" xlink:title=" ">
<polygon fill="white" stroke="black" points="551.5,-336.5 551.5,-355.5 628.5,-355.5 628.5,-336.5 551.5,-336.5"/>
<text text-anchor="middle" x="590" y="-343.5" font-family="Helvetica,sans-Serif" font-size="10.00">FifoAlteraMf</text>
</a>
</g>
</g>
<!-- Node10&#45;&gt;Node11 -->
<g id="edge13" class="edge">
<title>Node10&#45;&gt;Node11</title>
<path fill="none" stroke="midnightblue" d="M616.62,-383.86C609.86,-374.5 601.79,-363.33 596.32,-355.75"/>
<polygon fill="midnightblue" stroke="midnightblue" points="613.87,-386.03 622.56,-392.08 619.54,-381.93 613.87,-386.03"/>
</g>
<!-- Node12 -->
<g id="node12" class="node">
<title>Node12</title>
<g id="a_node12"><a xlink:href="classFifoAsync.html" target="_top" xlink:title=" ">
<polygon fill="white" stroke="black" points="275,-336.5 275,-355.5 339,-355.5 339,-336.5 275,-336.5"/>
<text text-anchor="middle" x="307" y="-343.5" font-family="Helvetica,sans-Serif" font-size="10.00">FifoAsync</text>
</a>
</g>
</g>
<!-- Node10&#45;&gt;Node12 -->
<g id="edge22" class="edge">
<title>Node10&#45;&gt;Node12</title>
<path fill="none" stroke="midnightblue" d="M567.82,-390.74C499.78,-379.33 392.46,-361.33 339.19,-352.4"/>
<polygon fill="midnightblue" stroke="midnightblue" points="567.54,-394.24 577.98,-392.44 568.69,-387.34 567.54,-394.24"/>
</g>
<!-- Node19 -->
<g id="node19" class="node">
<title>Node19</title>
<g id="a_node19"><a xlink:href="classFifoSync.html" target="_top" xlink:title=" ">
<polygon fill="white" stroke="black" points="400,-336.5 400,-355.5 458,-355.5 458,-336.5 400,-336.5"/>
<text text-anchor="middle" x="429" y="-343.5" font-family="Helvetica,sans-Serif" font-size="10.00">FifoSync</text>
</a>
</g>
</g>
<!-- Node10&#45;&gt;Node19 -->
<g id="edge27" class="edge">
<title>Node10&#45;&gt;Node19</title>
<path fill="none" stroke="midnightblue" d="M587.42,-389.77C548.81,-379.35 492.32,-364.1 458.26,-354.9"/>
<polygon fill="midnightblue" stroke="midnightblue" points="586.74,-393.22 597.31,-392.44 588.57,-386.46 586.74,-393.22"/>
</g>
<!-- Node11&#45;&gt;Node8 -->
<g id="edge12" class="edge">
<title>Node11&#45;&gt;Node8</title>
<path fill="none" stroke="midnightblue" d="M567.81,-330.9C552.22,-321 531.87,-308.07 518.62,-299.65"/>
<polygon fill="midnightblue" stroke="midnightblue" points="566.03,-333.92 576.34,-336.32 569.78,-328.01 566.03,-333.92"/>
</g>
<!-- Node12&#45;&gt;Node8 -->
<g id="edge14" class="edge">
<title>Node12&#45;&gt;Node8</title>
<path fill="none" stroke="midnightblue" d="M348.23,-333.75C391.13,-322.06 456.29,-304.29 487.34,-295.82"/>
<polygon fill="midnightblue" stroke="midnightblue" points="347.1,-330.44 338.37,-336.44 348.94,-337.19 347.1,-330.44"/>
</g>
<!-- Node13 -->
<g id="node13" class="node">
<title>Node13</title>
<g id="a_node13"><a xlink:href="classRstSync.html" target="_top" xlink:title=" ">
<polygon fill="white" stroke="black" points="28,-392.5 28,-411.5 84,-411.5 84,-392.5 28,-392.5"/>
<text text-anchor="middle" x="56" y="-399.5" font-family="Helvetica,sans-Serif" font-size="10.00">RstSync</text>
</a>
</g>
</g>
<!-- Node13&#45;&gt;Node12 -->
<g id="edge15" class="edge">
<title>Node13&#45;&gt;Node12</title>
<path fill="none" stroke="midnightblue" d="M94.11,-391.8C163.95,-376.06 234.58,-361.56 274.66,-353.47"/>
<polygon fill="midnightblue" stroke="midnightblue" points="93.24,-388.41 84.26,-394.03 94.79,-395.24 93.24,-388.41"/>
</g>
<!-- Node14 -->
<g id="node14" class="node">
<title>Node14</title>
<g id="a_node14"><a xlink:href="classSynchronizer.html" target="_top" xlink:title=" ">
<polygon fill="white" stroke="black" points="16,-448.5 16,-467.5 96,-467.5 96,-448.5 16,-448.5"/>
<text text-anchor="middle" x="56" y="-455.5" font-family="Helvetica,sans-Serif" font-size="10.00">Synchronizer</text>
</a>
</g>
</g>
<!-- Node14&#45;&gt;Node4 -->
<g id="edge28" class="edge">
<title>Node14&#45;&gt;Node4</title>
<path fill="none" stroke="midnightblue" d="M40.29,-441.17C32.94,-433.02 24.6,-422.6 19,-412 4.93,-385.39 0,-377.1 0,-347 0,-347 0,-347 0,-289 0,-196.18 329.24,-181.53 456.56,-179.34"/>
<polygon fill="midnightblue" stroke="midnightblue" points="37.77,-443.59 47.17,-448.48 42.86,-438.8 37.77,-443.59"/>
</g>
<!-- Node14&#45;&gt;Node12 -->
<g id="edge18" class="edge">
<title>Node14&#45;&gt;Node12</title>
<path fill="none" stroke="midnightblue" d="M106.26,-448.47C139.91,-441.54 184.53,-429.92 221,-412 251.91,-396.81 282.81,-369.88 297.75,-355.93"/>
<polygon fill="midnightblue" stroke="midnightblue" points="105.32,-445.09 96.19,-450.48 106.69,-451.96 105.32,-445.09"/>
</g>
<!-- Node14&#45;&gt;Node13 -->
<g id="edge16" class="edge">
<title>Node14&#45;&gt;Node13</title>
<path fill="none" stroke="midnightblue" d="M56,-437.8C56,-428.91 56,-418.78 56,-411.75"/>
<polygon fill="midnightblue" stroke="midnightblue" points="52.5,-438.08 56,-448.08 59.5,-438.08 52.5,-438.08"/>
</g>
<!-- Node15 -->
<g id="node15" class="node">
<title>Node15</title>
<g id="a_node15"><a xlink:href="classSynchronizerVector.html" target="_top" xlink:title=" ">
<polygon fill="white" stroke="black" points="102,-392.5 102,-411.5 212,-411.5 212,-392.5 102,-392.5"/>
<text text-anchor="middle" x="157" y="-399.5" font-family="Helvetica,sans-Serif" font-size="10.00">SynchronizerVector</text>
</a>
</g>
</g>
<!-- Node15&#45;&gt;Node12 -->
<g id="edge17" class="edge">
<title>Node15&#45;&gt;Node12</title>
<path fill="none" stroke="midnightblue" d="M190.22,-389.04C218.45,-378.88 258.26,-364.55 283.34,-355.52"/>
<polygon fill="midnightblue" stroke="midnightblue" points="188.99,-385.76 180.77,-392.44 191.36,-392.35 188.99,-385.76"/>
</g>
<!-- Node16 -->
<g id="node16" class="node">
<title>Node16</title>
<g id="a_node16"><a xlink:href="classFifoWrFsm.html" target="_top" xlink:title=" ">
<polygon fill="white" stroke="black" points="268.5,-392.5 268.5,-411.5 337.5,-411.5 337.5,-392.5 268.5,-392.5"/>
<text text-anchor="middle" x="303" y="-399.5" font-family="Helvetica,sans-Serif" font-size="10.00">FifoWrFsm</text>
</a>
</g>
</g>
<!-- Node16&#45;&gt;Node12 -->
<g id="edge19" class="edge">
<title>Node16&#45;&gt;Node12</title>
<path fill="none" stroke="midnightblue" d="M304.4,-382.1C305.06,-373.14 305.83,-362.86 306.35,-355.75"/>
<polygon fill="midnightblue" stroke="midnightblue" points="300.91,-381.85 303.66,-392.08 307.89,-382.37 300.91,-381.85"/>
</g>
<!-- Node16&#45;&gt;Node19 -->
<g id="edge24" class="edge">
<title>Node16&#45;&gt;Node19</title>
<path fill="none" stroke="midnightblue" d="M332.16,-388.5C355.78,-378.38 388.43,-364.39 409.13,-355.52"/>
<polygon fill="midnightblue" stroke="midnightblue" points="330.78,-385.29 322.97,-392.44 333.54,-391.72 330.78,-385.29"/>
</g>
<!-- Node17 -->
<g id="node17" class="node">
<title>Node17</title>
<g id="a_node17"><a xlink:href="classFifoRdFsm.html" target="_top" xlink:title=" ">
<polygon fill="white" stroke="black" points="356,-392.5 356,-411.5 424,-411.5 424,-392.5 356,-392.5"/>
<text text-anchor="middle" x="390" y="-399.5" font-family="Helvetica,sans-Serif" font-size="10.00">FifoRdFsm</text>
</a>
</g>
</g>
<!-- Node17&#45;&gt;Node12 -->
<g id="edge20" class="edge">
<title>Node17&#45;&gt;Node12</title>
<path fill="none" stroke="midnightblue" d="M367.9,-386.62C352.74,-376.76 333.12,-363.99 320.3,-355.65"/>
<polygon fill="midnightblue" stroke="midnightblue" points="366.37,-389.8 376.66,-392.32 370.19,-383.94 366.37,-389.8"/>
</g>
<!-- Node17&#45;&gt;Node19 -->
<g id="edge25" class="edge">
<title>Node17&#45;&gt;Node19</title>
<path fill="none" stroke="midnightblue" d="M402.38,-383.86C409.14,-374.5 417.21,-363.33 422.68,-355.75"/>
<polygon fill="midnightblue" stroke="midnightblue" points="399.46,-381.93 396.44,-392.08 405.13,-386.03 399.46,-381.93"/>
</g>
<!-- Node18 -->
<g id="node18" class="node">
<title>Node18</title>
<g id="a_node18"><a xlink:href="classSimpleDualPortRam.html" target="_top" xlink:title=" ">
<polygon fill="white" stroke="black" points="442.5,-392.5 442.5,-411.5 557.5,-411.5 557.5,-392.5 442.5,-392.5"/>
<text text-anchor="middle" x="500" y="-399.5" font-family="Helvetica,sans-Serif" font-size="10.00">SimpleDualPortRam</text>
</a>
</g>
</g>
<!-- Node18&#45;&gt;Node12 -->
<g id="edge21" class="edge">
<title>Node18&#45;&gt;Node12</title>
<path fill="none" stroke="midnightblue" d="M459.61,-389.7C423.18,-379.51 370.41,-364.74 337.44,-355.52"/>
<polygon fill="midnightblue" stroke="midnightblue" points="458.85,-393.12 469.42,-392.44 460.73,-386.38 458.85,-393.12"/>
</g>
<!-- Node18&#45;&gt;Node19 -->
<g id="edge26" class="edge">
<title>Node18&#45;&gt;Node19</title>
<path fill="none" stroke="midnightblue" d="M480.41,-386.1C467.63,-376.38 451.39,-364.03 440.61,-355.83"/>
<polygon fill="midnightblue" stroke="midnightblue" points="478.51,-389.06 488.59,-392.32 482.75,-383.48 478.51,-389.06"/>
</g>
<!-- Node19&#45;&gt;Node1 -->
<g id="edge30" class="edge">
<title>Node19&#45;&gt;Node1</title>
<path fill="none" stroke="midnightblue" d="M426.46,-326.25C422.8,-292.3 419.32,-219.41 448,-168 457.13,-151.64 474.9,-139.23 488.37,-131.63"/>
<polygon fill="midnightblue" stroke="midnightblue" points="422.99,-326.67 427.66,-336.18 429.93,-325.83 422.99,-326.67"/>
</g>
<!-- Node19&#45;&gt;Node8 -->
<g id="edge23" class="edge">
<title>Node19&#45;&gt;Node8</title>
<path fill="none" stroke="midnightblue" d="M449.58,-330.38C463.31,-320.62 480.93,-308.11 492.57,-299.83"/>
<polygon fill="midnightblue" stroke="midnightblue" points="447.34,-327.68 441.21,-336.32 451.39,-333.38 447.34,-327.68"/>
</g>
<!-- Node24 -->
<g id="node24" class="node">
<title>Node24</title>
<g id="a_node24"><a xlink:href="classSrpV3AxiLiteFull.html" target="_top" xlink:title=" ">
<polygon fill="white" stroke="black" points="666,-0.5 666,-19.5 762,-19.5 762,-0.5 666,-0.5"/>
<text text-anchor="middle" x="714" y="-7.5" font-family="Helvetica,sans-Serif" font-size="10.00">SrpV3AxiLiteFull</text>
</a>
</g>
</g>
<!-- Node23&#45;&gt;Node24 -->
<g id="edge38" class="edge">
<title>Node23&#45;&gt;Node24</title>
<path fill="none" stroke="midnightblue" d="M744.94,-49.54C734.64,-39.91 723.39,-27.87 717.36,-19.83"/>
<polygon fill="midnightblue" stroke="midnightblue" points="742.74,-52.27 752.53,-56.32 747.41,-47.05 742.74,-52.27"/>
</g>
<!-- Node23&#45;&gt;Node24 -->
<g id="edge40" class="edge">
<title>Node23&#45;&gt;Node24</title>
<path fill="none" stroke="midnightblue" d="M756.08,-48.14C747.88,-38.74 736.57,-27.4 727.56,-19.75"/>
<polygon fill="midnightblue" stroke="midnightblue" points="753.53,-50.57 762.58,-56.08 758.95,-46.13 753.53,-50.57"/>
</g>
<!-- Node25 -->
<g id="node25" class="node">
<title>Node25</title>
<g id="a_node25"><a xlink:href="classSrpV3AxiTb.html" target="_top" xlink:title=" ">
<polygon fill="white" stroke="black" points="780.5,-0.5 780.5,-19.5 853.5,-19.5 853.5,-0.5 780.5,-0.5"/>
<text text-anchor="middle" x="817" y="-7.5" font-family="Helvetica,sans-Serif" font-size="10.00">SrpV3AxiTb</text>
</a>
</g>
</g>
<!-- Node23&#45;&gt;Node25 -->
<g id="edge39" class="edge">
<title>Node23&#45;&gt;Node25</title>
<path fill="none" stroke="midnightblue" d="M775.61,-48.14C783.64,-38.74 794.73,-27.4 803.6,-19.75"/>
<polygon fill="midnightblue" stroke="midnightblue" points="772.77,-46.09 769.26,-56.08 778.24,-50.46 772.77,-46.09"/>
</g>
<!-- Node23&#45;&gt;Node25 -->
<g id="edge41" class="edge">
<title>Node23&#45;&gt;Node25</title>
<path fill="none" stroke="midnightblue" d="M786.77,-49.54C796.9,-39.91 807.93,-27.87 813.81,-19.83"/>
<polygon fill="midnightblue" stroke="midnightblue" points="784.35,-47.01 779.31,-56.32 789.06,-52.19 784.35,-47.01"/>
</g>
</g>
</svg>
        <g id="navigator" transform="translate(0 0)" fill="#404254">
                <rect fill="#f2f5e9" fill-opacity="0.5" stroke="#606060" stroke-width=".5" x="0" y="0" width="60" height="60"/>
                <use id="zoomplus" xlink:href="#zoomPlus" x="17" y="9" onmousedown="handleZoom(evt,'in')"/>
                <use id="zoomminus" xlink:href="#zoomMin" x="42" y="9" onmousedown="handleZoom(evt,'out')"/>
                <use id="reset" xlink:href="#resetDef" x="30" y="36" onmousedown="handleReset()"/>
                <g id="arrowUp" xlink:href="#dirArrow" transform="translate(30 24)" onmousedown="handlePan(0,-1)">
                  <use xlink:href="#rim" fill="#404040">
                        <set attributeName="fill" to="#808080" begin="arrowUp.mouseover" end="arrowUp.mouseout"/>
                  </use>
                  <path fill="none" stroke="white" stroke-width="1.5" d="M0,-3.0v7 M-2.5,-0.5L0,-3.0L2.5,-0.5"/>
                </g>
                <g id="arrowRight" xlink:href="#dirArrow" transform="rotate(90) translate(36 -43)" onmousedown="handlePan(1,0)">
                  <use xlink:href="#rim" fill="#404040">
                        <set attributeName="fill" to="#808080" begin="arrowRight.mouseover" end="arrowRight.mouseout"/>
                  </use>
                  <path fill="none" stroke="white" stroke-width="1.5" d="M0,-3.0v7 M-2.5,-0.5L0,-3.0L2.5,-0.5"/>
                </g>
                <g id="arrowDown" xlink:href="#dirArrow" transform="rotate(180) translate(-30 -48)" onmousedown="handlePan(0,1)">
                  <use xlink:href="#rim" fill="#404040">
                        <set attributeName="fill" to="#808080" begin="arrowDown.mouseover" end="arrowDown.mouseout"/>
                  </use>
                  <path fill="none" stroke="white" stroke-width="1.5" d="M0,-3.0v7 M-2.5,-0.5L0,-3.0L2.5,-0.5"/>
                </g>
                <g id="arrowLeft" xlink:href="#dirArrow" transform="rotate(270) translate(-36 17)" onmousedown="handlePan(-1,0)">
                  <use xlink:href="#rim" fill="#404040">
                        <set attributeName="fill" to="#808080" begin="arrowLeft.mouseover" end="arrowLeft.mouseout"/>
                  </use>
                  <path fill="none" stroke="white" stroke-width="1.5" d="M0,-3.0v7 M-2.5,-0.5L0,-3.0L2.5,-0.5"/>
                </g>
        </g>
        <svg viewBox="0 0 15 15" width="100%" height="30px" preserveAspectRatio="xMaxYMin meet">
         <g id="arrow_out" transform="scale(0.3 0.3)">
          <a xlink:href="classAxiStreamDmaWrite__inherit__graph_org.svg" target="_base">
           <rect id="button" ry="5" rx="5" y="6" x="6" height="38" width="38"
                fill="#f2f5e9" fill-opacity="0.5" stroke="#606060" stroke-width="1.0"/>
           <path id="arrow"
             d="M 11.500037,31.436501 C 11.940474,20.09759 22.043105,11.32322 32.158766,21.979434 L 37.068811,17.246167 C 37.068811,17.246167 37.088388,32 37.088388,32 L 22.160133,31.978069 C 22.160133,31.978069 26.997745,27.140456 26.997745,27.140456 C 18.528582,18.264221 13.291696,25.230495 11.500037,31.436501 z"
             style="fill:#404040;"/>
          </a>
         </g>
        </svg>
</svg>
