<?xml version="1.0" encoding="UTF-8" standalone="no"?>
<!DOCTYPE svg PUBLIC "-//W3C//DTD SVG 1.1//EN"
 "http://www.w3.org/Graphics/SVG/1.1/DTD/svg11.dtd">
<!-- Generated by graphviz version 2.43.0 (0)
 -->
<!-- Title: AxiStreamDeMux Pages: 1 -->
<!--zoomable 1137 -->

<svg id="main" version="1.1" xmlns="http://www.w3.org/2000/svg" xmlns:xlink="http://www.w3.org/1999/xlink" xml:space="preserve" onload="init(evt)">
<style type="text/css"><![CDATA[
.node, .edge {opacity: 0.7;}
.node.selected, .edge.selected {opacity: 1;}
.edge:hover path { stroke: red; }
.edge:hover polygon { stroke: red; fill: red; }
]]></style>

<defs>
  <circle id="rim" cx="0" cy="0" r="7"/>
  <circle id="rim2" cx="0" cy="0" r="3.5"/>
  <g id="zoomPlus">
    <use xlink:href="#rim" fill="#404040"><set attributeName="fill" to="#808080" begin="zoomplus.mouseover" end="zoomplus.mouseout"/></use>
    <path d="M-4,0h8M0,-4v8" fill="none" stroke="white" stroke-width="1.5" pointer-events="none"/>
  </g>
  <g id="zoomMin">
    <use xlink:href="#rim" fill="#404040"><set attributeName="fill" to="#808080" begin="zoomminus.mouseover" end="zoomminus.mouseout"/></use>
    <path d="M-4,0h8" fill="none" stroke="white" stroke-width="1.5" pointer-events="none"/>
  </g>
  <g id="arrowUp" transform="translate(30 24)">
    <use xlink:href="#rim"/>
    <path pointer-events="none" fill="none" stroke="white" stroke-width="1.5" d="M0,-3.0v7 M-2.5,-0.5L0,-3.0L2.5,-0.5"/>
  </g>
  <g id="arrowRight" transform="rotate(90) translate(36 -43)">
    <use xlink:href="#rim"/>
    <path pointer-events="none" fill="none" stroke="white" stroke-width="1.5" d="M0,-3.0v7 M-2.5,-0.5L0,-3.0L2.5,-0.5"/>
  </g>
  <g id="arrowDown" transform="rotate(180) translate(-30 -48)">
    <use xlink:href="#rim"/>
    <path pointer-events="none" fill="none" stroke="white" stroke-width="1.5" d="M0,-3.0v7 M-2.5,-0.5L0,-3.0L2.5,-0.5"/>
  </g>
  <g id="arrowLeft" transform="rotate(270) translate(-36 17)">
    <use xlink:href="#rim"/>
    <path pointer-events="none" fill="none" stroke="white" stroke-width="1.5" d="M0,-3.0v7 M-2.5,-0.5L0,-3.0L2.5,-0.5"/>
  </g>
  <g id="resetDef">
    <use xlink:href="#rim2" fill="#404040"><set attributeName="fill" to="#808080" begin="reset.mouseover" end="reset.mouseout"/></use>
  </g>
</defs>
<script type="application/ecmascript">
var viewWidth = 580;
var viewHeight = 1137;
var sectionId = 'dynsection-0';
</script>
<script type="application/ecmascript" xlink:href="svg.min.js"/>
<svg id="graph" class="graph">
<g id="viewport">
<title>AxiStreamDeMux</title>
<!-- Node1 -->
<g id="Node000001" class="node">
<title>Node1</title>
<g id="a_Node000001"><a xlink:title=" ">
<polygon fill="#999999" stroke="#666666" points="245,-666 143,-666 143,-647 245,-647 245,-666"/>
<text text-anchor="middle" x="194" y="-654" font-family="Helvetica,sans-Serif" font-size="10.00">AxiStreamDeMux</text>
</a>
</g>
</g>
<!-- Node3 -->
<g id="Node000003" class="node">
<title>Node3</title>
<g id="a_Node000003"><a xlink:href="classAxiStreamTap.html" target="_top" xlink:title=" ">
<polygon fill="white" stroke="#bfbfbf" points="391,-1092 307,-1092 307,-1073 391,-1073 391,-1092"/>
<text text-anchor="middle" x="349" y="-1080" font-family="Helvetica,sans-Serif" font-size="10.00">AxiStreamTap</text>
</a>
</g>
</g>
<!-- Node1&#45;&gt;Node3 -->
<g id="edge2_Node000001_Node000003" class="edge">
<title>Node1&#45;&gt;Node3</title>
<g id="a_edge2_Node000001_Node000003"><a xlink:title=" ">
<path fill="none" stroke="#63b8ff" d="M196.47,-676.2C202.36,-749.76 226.56,-1006.99 281,-1064.5 287.87,-1071.76 297.33,-1076.2 306.98,-1078.9"/>
<polygon fill="#63b8ff" stroke="#63b8ff" points="199.95,-675.73 195.68,-666.03 192.97,-676.28 199.95,-675.73"/>
</a>
</g>
</g>
<!-- Node4 -->
<g id="Node000004" class="node">
<title>Node4</title>
<g id="a_Node000004"><a xlink:href="classAxiStreamDemuxMuxTb.html" target="_top" xlink:title=" ">
<polygon fill="white" stroke="#bfbfbf" points="417,-1055 281,-1055 281,-1036 417,-1036 417,-1055"/>
<text text-anchor="middle" x="349" y="-1043" font-family="Helvetica,sans-Serif" font-size="10.00">AxiStreamDemuxMuxTb</text>
</a>
</g>
</g>
<!-- Node1&#45;&gt;Node4 -->
<g id="edge3_Node000001_Node000004" class="edge">
<title>Node1&#45;&gt;Node4</title>
<g id="a_edge3_Node000001_Node000004"><a xlink:title=" ">
<path fill="none" stroke="#63b8ff" d="M196.92,-676.19C204.04,-745.37 231.18,-975.92 281,-1027.5 284.26,-1030.88 288.09,-1033.65 292.23,-1035.91"/>
<polygon fill="#63b8ff" stroke="#63b8ff" points="200.4,-675.79 195.91,-666.19 193.43,-676.49 200.4,-675.79"/>
</a>
</g>
</g>
<!-- Node5 -->
<g id="Node000005" class="node">
<title>Node5</title>
<g id="a_Node000005"><a xlink:href="classAxiStreamMuxTb.html" target="_top" xlink:title=" ">
<polygon fill="white" stroke="#bfbfbf" points="399.5,-1018 298.5,-1018 298.5,-999 399.5,-999 399.5,-1018"/>
<text text-anchor="middle" x="349" y="-1006" font-family="Helvetica,sans-Serif" font-size="10.00">AxiStreamMuxTb</text>
</a>
</g>
</g>
<!-- Node1&#45;&gt;Node5 -->
<g id="edge4_Node000001_Node000005" class="edge">
<title>Node1&#45;&gt;Node5</title>
<g id="a_edge4_Node000001_Node000005"><a xlink:title=" ">
<path fill="none" stroke="#63b8ff" d="M197.47,-676.28C205.95,-741 235.8,-944.83 281,-990.5 285.83,-995.38 291.83,-998.98 298.24,-1001.63"/>
<polygon fill="#63b8ff" stroke="#63b8ff" points="200.92,-675.67 196.18,-666.2 193.98,-676.56 200.92,-675.67"/>
</a>
</g>
</g>
<!-- Node6 -->
<g id="Node000006" class="node">
<title>Node6</title>
<g id="a_Node000006"><a xlink:href="classRogueTcpStreamWrap.html" target="_top" xlink:title=" ">
<polygon fill="white" stroke="#bfbfbf" points="411,-981 287,-981 287,-962 411,-962 411,-981"/>
<text text-anchor="middle" x="349" y="-969" font-family="Helvetica,sans-Serif" font-size="10.00">RogueTcpStreamWrap</text>
</a>
</g>
</g>
<!-- Node1&#45;&gt;Node6 -->
<g id="edge5_Node000001_Node000006" class="edge">
<title>Node1&#45;&gt;Node6</title>
<g id="a_edge5_Node000001_Node000006"><a xlink:title=" ">
<path fill="none" stroke="#63b8ff" d="M197.72,-676.46C204.76,-722.4 226.94,-837.72 281,-916.5 294.37,-935.98 316.54,-952.25 331.69,-961.93"/>
<polygon fill="#63b8ff" stroke="#63b8ff" points="201.15,-675.73 196.25,-666.34 194.22,-676.74 201.15,-675.73"/>
</a>
</g>
</g>
<!-- Node23 -->
<g id="Node000023" class="node">
<title>Node23</title>
<g id="a_Node000023"><a xlink:href="classAxiStreamPacketizer2Tb.html" target="_top" xlink:title=" ">
<polygon fill="white" stroke="#bfbfbf" points="416.5,-907 281.5,-907 281.5,-888 416.5,-888 416.5,-907"/>
<text text-anchor="middle" x="349" y="-895" font-family="Helvetica,sans-Serif" font-size="10.00">AxiStreamPacketizer2Tb</text>
</a>
</g>
</g>
<!-- Node1&#45;&gt;Node23 -->
<g id="edge11_Node000001_Node000023" class="edge">
<title>Node1&#45;&gt;Node23</title>
<g id="a_edge11_Node000001_Node000023"><a xlink:title=" ">
<path fill="none" stroke="#63b8ff" d="M196.75,-676.4C201.66,-719.95 219.55,-824.22 281,-879.5 284.76,-882.88 289.09,-885.64 293.7,-887.89"/>
<polygon fill="#63b8ff" stroke="#63b8ff" points="200.21,-675.85 195.72,-666.26 193.25,-676.56 200.21,-675.85"/>
</a>
</g>
</g>
<!-- Node24 -->
<g id="Node000024" class="node">
<title>Node24</title>
<g id="a_Node000024"><a xlink:href="classHtspRx.html" target="_top" xlink:title=" ">
<polygon fill="white" stroke="#bfbfbf" points="375,-870 323,-870 323,-851 375,-851 375,-870"/>
<text text-anchor="middle" x="349" y="-858" font-family="Helvetica,sans-Serif" font-size="10.00">HtspRx</text>
</a>
</g>
</g>
<!-- Node1&#45;&gt;Node24 -->
<g id="edge12_Node000001_Node000024" class="edge">
<title>Node1&#45;&gt;Node24</title>
<g id="a_edge12_Node000001_Node000024"><a xlink:title=" ">
<path fill="none" stroke="#63b8ff" d="M198.42,-676.2C206.08,-714.26 228.25,-798.06 281,-842.5 292.61,-852.28 309.02,-856.79 322.69,-858.85"/>
<polygon fill="#63b8ff" stroke="#63b8ff" points="201.85,-675.53 196.56,-666.35 194.97,-676.82 201.85,-675.53"/>
</a>
</g>
</g>
<!-- Node27 -->
<g id="Node000027" class="node">
<title>Node27</title>
<g id="a_Node000027"><a xlink:href="classPgp3Rx.html" target="_top" xlink:title=" ">
<polygon fill="white" stroke="#bfbfbf" points="375.5,-833 322.5,-833 322.5,-814 375.5,-814 375.5,-833"/>
<text text-anchor="middle" x="349" y="-821" font-family="Helvetica,sans-Serif" font-size="10.00">Pgp3Rx</text>
</a>
</g>
</g>
<!-- Node1&#45;&gt;Node27 -->
<g id="edge14_Node000001_Node000027" class="edge">
<title>Node1&#45;&gt;Node27</title>
<g id="a_edge14_Node000001_Node000027"><a xlink:title=" ">
<path fill="none" stroke="#63b8ff" d="M203.77,-675.33C217.23,-702.61 245.21,-753.46 281,-786.5 293.69,-798.22 310.77,-807.58 324.51,-813.95"/>
<polygon fill="#63b8ff" stroke="#63b8ff" points="206.83,-673.61 199.34,-666.12 200.52,-676.65 206.83,-673.61"/>
</a>
</g>
</g>
<!-- Node34 -->
<g id="Node000034" class="node">
<title>Node34</title>
<g id="a_Node000034"><a xlink:href="classPgp4Rx.html" target="_top" xlink:title=" ">
<polygon fill="white" stroke="#bfbfbf" points="375.5,-777 322.5,-777 322.5,-758 375.5,-758 375.5,-777"/>
<text text-anchor="middle" x="349" y="-765" font-family="Helvetica,sans-Serif" font-size="10.00">Pgp4Rx</text>
</a>
</g>
</g>
<!-- Node1&#45;&gt;Node34 -->
<g id="edge17_Node000001_Node000034" class="edge">
<title>Node1&#45;&gt;Node34</title>
<g id="a_edge17_Node000001_Node000034"><a xlink:title=" ">
<path fill="none" stroke="#63b8ff" d="M216.59,-672.17C248.7,-695.46 308.1,-738.55 334.61,-757.79"/>
<polygon fill="#63b8ff" stroke="#63b8ff" points="218.46,-669.2 208.31,-666.16 214.35,-674.86 218.46,-669.2"/>
</a>
</g>
</g>
<!-- Node47 -->
<g id="Node000047" class="node">
<title>Node47</title>
<g id="a_Node000047"><a xlink:href="classRssiCoreWrapper.html" target="_top" xlink:title=" ">
<polygon fill="white" stroke="#bfbfbf" points="399.5,-685 298.5,-685 298.5,-666 399.5,-666 399.5,-685"/>
<text text-anchor="middle" x="349" y="-673" font-family="Helvetica,sans-Serif" font-size="10.00">RssiCoreWrapper</text>
</a>
</g>
</g>
<!-- Node1&#45;&gt;Node47 -->
<g id="edge21_Node000001_Node000047" class="edge">
<title>Node1&#45;&gt;Node47</title>
<g id="a_edge21_Node000001_Node000047"><a xlink:title=" ">
<path fill="none" stroke="#63b8ff" d="M255.31,-663.99C269.56,-665.76 284.59,-667.63 298.31,-669.33"/>
<polygon fill="#63b8ff" stroke="#63b8ff" points="255.45,-660.48 245.1,-662.72 254.59,-667.43 255.45,-660.48"/>
</a>
</g>
</g>
<!-- Node51 -->
<g id="Node000051" class="node">
<title>Node51</title>
<g id="a_Node000051"><a xlink:href="classIpV4EngineRx.html" target="_top" xlink:title=" ">
<polygon fill="white" stroke="#bfbfbf" points="391,-648 307,-648 307,-629 391,-629 391,-648"/>
<text text-anchor="middle" x="349" y="-636" font-family="Helvetica,sans-Serif" font-size="10.00">IpV4EngineRx</text>
</a>
</g>
</g>
<!-- Node1&#45;&gt;Node51 -->
<g id="edge25_Node000001_Node000051" class="edge">
<title>Node1&#45;&gt;Node51</title>
<g id="a_edge25_Node000001_Node000051"><a xlink:title=" ">
<path fill="none" stroke="#63b8ff" d="M255.16,-649.42C272.52,-647.38 291.07,-645.2 306.98,-643.33"/>
<polygon fill="#63b8ff" stroke="#63b8ff" points="254.62,-645.96 245.1,-650.61 255.44,-652.91 254.62,-645.96"/>
</a>
</g>
</g>
<!-- Node57 -->
<g id="Node000057" class="node">
<title>Node57</title>
<g id="a_Node000057"><a xlink:href="classIpV4EngineTx.html" target="_top" xlink:title=" ">
<polygon fill="white" stroke="#bfbfbf" points="390.5,-611 307.5,-611 307.5,-592 390.5,-592 390.5,-611"/>
<text text-anchor="middle" x="349" y="-599" font-family="Helvetica,sans-Serif" font-size="10.00">IpV4EngineTx</text>
</a>
</g>
</g>
<!-- Node1&#45;&gt;Node57 -->
<g id="edge27_Node000001_Node000057" class="edge">
<title>Node1&#45;&gt;Node57</title>
<g id="a_edge27_Node000001_Node000057"><a xlink:title=" ">
<path fill="none" stroke="#63b8ff" d="M223.95,-642.81C240.44,-635.32 261.62,-626.23 281,-619.5 289.87,-616.42 299.56,-613.54 308.74,-611.03"/>
<polygon fill="#63b8ff" stroke="#63b8ff" points="222.46,-639.64 214.83,-647 225.38,-646 222.46,-639.64"/>
</a>
</g>
</g>
<!-- Node58 -->
<g id="Node000058" class="node">
<title>Node58</title>
<g id="a_Node000058"><a xlink:href="classEthMacRxRoCEv2.html" target="_top" xlink:title=" ">
<polygon fill="white" stroke="#bfbfbf" points="400.5,-574 297.5,-574 297.5,-555 400.5,-555 400.5,-574"/>
<text text-anchor="middle" x="349" y="-562" font-family="Helvetica,sans-Serif" font-size="10.00">EthMacRxRoCEv2</text>
</a>
</g>
</g>
<!-- Node1&#45;&gt;Node58 -->
<g id="edge29_Node000001_Node000058" class="edge">
<title>Node1&#45;&gt;Node58</title>
<g id="a_edge29_Node000001_Node000058"><a xlink:title=" ">
<path fill="none" stroke="#63b8ff" d="M210.51,-639.25C226.56,-622.41 253.17,-597.22 281,-582.5 287.39,-579.12 294.46,-576.34 301.55,-574.06"/>
<polygon fill="#63b8ff" stroke="#63b8ff" points="207.76,-637.06 203.51,-646.77 212.88,-641.83 207.76,-637.06"/>
</a>
</g>
</g>
<!-- Node92 -->
<g id="Node000092" class="node">
<title>Node92</title>
<g id="a_Node000092"><a xlink:href="classEthMacTxRoCEv2.html" target="_top" xlink:title=" ">
<polygon fill="white" stroke="#bfbfbf" points="400,-537 298,-537 298,-518 400,-518 400,-537"/>
<text text-anchor="middle" x="349" y="-525" font-family="Helvetica,sans-Serif" font-size="10.00">EthMacTxRoCEv2</text>
</a>
</g>
</g>
<!-- Node1&#45;&gt;Node92 -->
<g id="edge31_Node000001_Node000092" class="edge">
<title>Node1&#45;&gt;Node92</title>
<g id="a_edge31_Node000001_Node000092"><a xlink:title=" ">
<path fill="none" stroke="#63b8ff" d="M204.53,-637.62C218.09,-612.71 245.32,-569.24 281,-545.5 286.11,-542.1 291.85,-539.34 297.76,-537.1"/>
<polygon fill="#63b8ff" stroke="#63b8ff" points="201.28,-636.29 199.72,-646.77 207.47,-639.55 201.28,-636.29"/>
</a>
</g>
</g>
<!-- Node94 -->
<g id="Node000094" class="node">
<title>Node94</title>
<g id="a_Node000094"><a xlink:href="classUdpEngineRx.html" target="_top" xlink:title=" ">
<polygon fill="white" stroke="#bfbfbf" points="390,-500 308,-500 308,-481 390,-481 390,-500"/>
<text text-anchor="middle" x="349" y="-488" font-family="Helvetica,sans-Serif" font-size="10.00">UdpEngineRx</text>
</a>
</g>
</g>
<!-- Node1&#45;&gt;Node94 -->
<g id="edge33_Node000001_Node000094" class="edge">
<title>Node1&#45;&gt;Node94</title>
<g id="a_edge33_Node000001_Node000094"><a xlink:title=" ">
<path fill="none" stroke="#63b8ff" d="M200.92,-636.92C211.58,-605.05 237.1,-542.11 281,-508.5 288.75,-502.57 298.3,-498.59 307.74,-495.92"/>
<polygon fill="#63b8ff" stroke="#63b8ff" points="197.47,-636.21 197.76,-646.8 204.14,-638.35 197.47,-636.21"/>
</a>
</g>
</g>
<!-- Node96 -->
<g id="Node000096" class="node">
<title>Node96</title>
<g id="a_Node000096"><a xlink:href="classPgp2bLane.html" target="_top" xlink:title=" ">
<polygon fill="white" stroke="#bfbfbf" points="384,-315 314,-315 314,-296 384,-296 384,-315"/>
<text text-anchor="middle" x="349" y="-303" font-family="Helvetica,sans-Serif" font-size="10.00">Pgp2bLane</text>
</a>
</g>
</g>
<!-- Node1&#45;&gt;Node96 -->
<g id="edge35_Node000001_Node000096" class="edge">
<title>Node1&#45;&gt;Node96</title>
<g id="a_edge35_Node000001_Node000096"><a xlink:title=" ">
<path fill="none" stroke="#63b8ff" d="M202.04,-636.93C216.03,-598.46 248.75,-510.48 281,-438.5 302.14,-391.31 331.14,-336.68 342.82,-315.03"/>
<polygon fill="#63b8ff" stroke="#63b8ff" points="198.58,-636.21 198.47,-646.81 205.16,-638.6 198.58,-636.21"/>
</a>
</g>
</g>
<!-- Node97 -->
<g id="Node000097" class="node">
<title>Node97</title>
<g id="a_Node000097"><a xlink:href="classpgp__test.html" target="_top" xlink:title=" ">
<polygon fill="white" stroke="#bfbfbf" points="542,-463 483,-463 483,-444 542,-444 542,-463"/>
<text text-anchor="middle" x="512.5" y="-451" font-family="Helvetica,sans-Serif" font-size="10.00">pgp_test</text>
</a>
</g>
</g>
<!-- Node1&#45;&gt;Node97 -->
<g id="edge46_Node000001_Node000097" class="edge">
<title>Node1&#45;&gt;Node97</title>
<g id="a_edge46_Node000001_Node000097"><a xlink:title=" ">
<path fill="none" stroke="#63b8ff" d="M197.68,-636.57C204.11,-597.41 224.33,-510.84 281,-471.5 342.33,-428.93 436.22,-438.72 482.98,-447.25"/>
<polygon fill="#63b8ff" stroke="#63b8ff" points="194.18,-636.28 196.16,-646.69 201.11,-637.32 194.18,-636.28"/>
</a>
</g>
</g>
<!-- Node119 -->
<g id="Node000119" class="node">
<title>Node119</title>
<g id="a_Node000119"><a xlink:href="classPgp2fcLane.html" target="_top" xlink:title=" ">
<polygon fill="white" stroke="orangered" points="385.5,-75 312.5,-75 312.5,-56 385.5,-56 385.5,-75"/>
<text text-anchor="middle" x="349" y="-63" font-family="Helvetica,sans-Serif" font-size="10.00">Pgp2fcLane</text>
</a>
</g>
</g>
<!-- Node1&#45;&gt;Node119 -->
<g id="edge47_Node000001_Node000119" class="edge">
<title>Node1&#45;&gt;Node119</title>
<g id="a_edge47_Node000001_Node000119"><a xlink:title=" ">
<path fill="none" stroke="#63b8ff" d="M196.13,-636.46C200.41,-569.71 218.67,-349.6 281,-180.5 296.5,-138.44 326.99,-94.08 340.84,-75.07"/>
<polygon fill="#63b8ff" stroke="#63b8ff" points="192.62,-636.59 195.5,-646.78 199.6,-637.01 192.62,-636.59"/>
</a>
</g>
</g>
<!-- Node120 -->
<g id="Node000120" class="node">
<title>Node120</title>
<g id="a_Node000120"><a xlink:href="classPgp2fcLane__tb.html" target="_top" xlink:title=" ">
<polygon fill="white" stroke="#bfbfbf" points="556.5,-93 468.5,-93 468.5,-74 556.5,-74 556.5,-93"/>
<text text-anchor="middle" x="512.5" y="-81" font-family="Helvetica,sans-Serif" font-size="10.00">Pgp2fcLane_tb</text>
</a>
</g>
</g>
<!-- Node1&#45;&gt;Node120 -->
<g id="edge51_Node000001_Node000120" class="edge">
<title>Node1&#45;&gt;Node120</title>
<g id="a_edge51_Node000001_Node000120"><a xlink:title=" ">
<path fill="none" stroke="#63b8ff" d="M196.06,-636.44C199.83,-578.71 216.12,-408.53 281,-286.5 333.71,-187.37 357.89,-161.15 453,-101.5 458.4,-98.11 464.48,-95.32 470.63,-93.04"/>
<polygon fill="#63b8ff" stroke="#63b8ff" points="192.55,-636.52 195.44,-646.72 199.53,-636.94 192.55,-636.52"/>
</a>
</g>
</g>
<!-- Node2 -->
<g id="Node000002" class="node">
<title>Node2</title>
<g id="a_Node000002"><a xlink:href="classAxiStreamPipeline.html" target="_top" xlink:title=" ">
<polygon fill="white" stroke="#bfbfbf" points="107,-666 0,-666 0,-647 107,-647 107,-666"/>
<text text-anchor="middle" x="53.5" y="-654" font-family="Helvetica,sans-Serif" font-size="10.00">AxiStreamPipeline</text>
</a>
</g>
</g>
<!-- Node2&#45;&gt;Node1 -->
<g id="edge1_Node000001_Node000002" class="edge">
<title>Node2&#45;&gt;Node1</title>
<g id="a_edge1_Node000001_Node000002"><a xlink:title=" ">
<path fill="none" stroke="#63b8ff" d="M117.46,-656.5C125.91,-656.5 134.48,-656.5 142.67,-656.5"/>
<polygon fill="#63b8ff" stroke="#63b8ff" points="117.26,-653 107.26,-656.5 117.26,-660 117.26,-653"/>
</a>
</g>
</g>
<!-- Node7 -->
<g id="Node000007" class="node">
<title>Node7</title>
<g id="a_Node000007"><a xlink:href="classRogueHtspSim.html" target="_top" xlink:title=" ">
<polygon fill="white" stroke="orangered" points="557,-1129 468,-1129 468,-1110 557,-1110 557,-1129"/>
<text text-anchor="middle" x="512.5" y="-1117" font-family="Helvetica,sans-Serif" font-size="10.00">RogueHtspSim</text>
</a>
</g>
</g>
<!-- Node6&#45;&gt;Node7 -->
<g id="edge6_Node000006_Node000007" class="edge">
<title>Node6&#45;&gt;Node7</title>
<g id="a_edge6_Node000006_Node000007"><a xlink:title=" ">
<path fill="none" stroke="#63b8ff" d="M412.21,-986.48C413.89,-987.71 415.5,-989.05 417,-990.5 454.35,-1026.48 416.05,-1065.11 453,-1101.5 457.24,-1105.68 462.42,-1108.89 467.94,-1111.35"/>
<polygon fill="#63b8ff" stroke="#63b8ff" points="413.58,-983.22 403.2,-981.09 409.99,-989.23 413.58,-983.22"/>
</a>
</g>
</g>
<!-- Node10 -->
<g id="Node000010" class="node">
<title>Node10</title>
<g id="a_Node000010"><a xlink:href="classRoguePgp3Sim.html" target="_top" xlink:title=" ">
<polygon fill="white" stroke="orangered" points="557.5,-1092 467.5,-1092 467.5,-1073 557.5,-1073 557.5,-1092"/>
<text text-anchor="middle" x="512.5" y="-1080" font-family="Helvetica,sans-Serif" font-size="10.00">RoguePgp3Sim</text>
</a>
</g>
</g>
<!-- Node6&#45;&gt;Node10 -->
<g id="edge7_Node000006_Node000010" class="edge">
<title>Node6&#45;&gt;Node10</title>
<g id="a_edge7_Node000006_Node000010"><a xlink:title=" ">
<path fill="none" stroke="#63b8ff" d="M410.53,-985.85C412.8,-987.26 414.97,-988.8 417,-990.5 445.04,-1013.98 425.22,-1040.71 453,-1064.5 457.2,-1068.09 462.1,-1070.97 467.26,-1073.27"/>
<polygon fill="#63b8ff" stroke="#63b8ff" points="411.82,-982.57 401.33,-981.07 408.59,-988.78 411.82,-982.57"/>
</a>
</g>
</g>
<!-- Node16 -->
<g id="Node000016" class="node">
<title>Node16</title>
<g id="a_Node000016"><a xlink:href="classRoguePgp4Sim.html" target="_top" xlink:title=" ">
<polygon fill="white" stroke="orangered" points="557.5,-1055 467.5,-1055 467.5,-1036 557.5,-1036 557.5,-1055"/>
<text text-anchor="middle" x="512.5" y="-1043" font-family="Helvetica,sans-Serif" font-size="10.00">RoguePgp4Sim</text>
</a>
</g>
</g>
<!-- Node6&#45;&gt;Node16 -->
<g id="edge8_Node000006_Node000016" class="edge">
<title>Node6&#45;&gt;Node16</title>
<g id="a_edge8_Node000006_Node000016"><a xlink:title=" ">
<path fill="none" stroke="#63b8ff" d="M405.5,-984.7C409.5,-986.42 413.38,-988.34 417,-990.5 436.71,-1002.25 433.43,-1015.53 453,-1027.5 458.53,-1030.88 464.75,-1033.67 471.01,-1035.96"/>
<polygon fill="#63b8ff" stroke="#63b8ff" points="406.61,-981.38 396.02,-981.08 404.11,-987.92 406.61,-981.38"/>
</a>
</g>
</g>
<!-- Node21 -->
<g id="Node000021" class="node">
<title>Node21</title>
<g id="a_Node000021"><a xlink:href="classRoguePgp2bSim.html" target="_top" xlink:title=" ">
<polygon fill="white" stroke="#bfbfbf" points="560.5,-1018 464.5,-1018 464.5,-999 560.5,-999 560.5,-1018"/>
<text text-anchor="middle" x="512.5" y="-1006" font-family="Helvetica,sans-Serif" font-size="10.00">RoguePgp2bSim</text>
</a>
</g>
</g>
<!-- Node6&#45;&gt;Node21 -->
<g id="edge9_Node000006_Node000021" class="edge">
<title>Node6&#45;&gt;Node21</title>
<g id="a_edge9_Node000006_Node000021"><a xlink:title=" ">
<path fill="none" stroke="#63b8ff" d="M401.45,-983.29C423.5,-988.34 448.92,-994.16 469.77,-998.94"/>
<polygon fill="#63b8ff" stroke="#63b8ff" points="402.12,-979.85 391.59,-981.03 400.56,-986.67 402.12,-979.85"/>
</a>
</g>
</g>
<!-- Node22 -->
<g id="Node000022" class="node">
<title>Node22</title>
<g id="a_Node000022"><a xlink:href="classRoguePgp2fcSim.html" target="_top" xlink:title=" ">
<polygon fill="white" stroke="#bfbfbf" points="562,-981 463,-981 463,-962 562,-962 562,-981"/>
<text text-anchor="middle" x="512.5" y="-969" font-family="Helvetica,sans-Serif" font-size="10.00">RoguePgp2fcSim</text>
</a>
</g>
</g>
<!-- Node6&#45;&gt;Node22 -->
<g id="edge10_Node000006_Node000022" class="edge">
<title>Node6&#45;&gt;Node22</title>
<g id="a_edge10_Node000006_Node000022"><a xlink:title=" ">
<path fill="none" stroke="#63b8ff" d="M421.22,-971.5C435.32,-971.5 449.81,-971.5 462.94,-971.5"/>
<polygon fill="#63b8ff" stroke="#63b8ff" points="421.06,-968 411.06,-971.5 421.06,-975 421.06,-968"/>
</a>
</g>
</g>
<!-- Node25 -->
<g id="Node000025" class="node">
<title>Node25</title>
<g id="a_Node000025"><a xlink:href="classHtspCore.html" target="_top" xlink:title=" ">
<polygon fill="white" stroke="orangered" points="543.5,-944 481.5,-944 481.5,-925 543.5,-925 543.5,-944"/>
<text text-anchor="middle" x="512.5" y="-932" font-family="Helvetica,sans-Serif" font-size="10.00">HtspCore</text>
</a>
</g>
</g>
<!-- Node24&#45;&gt;Node25 -->
<g id="edge13_Node000024_Node000025" class="edge">
<title>Node24&#45;&gt;Node25</title>
<g id="a_edge13_Node000024_Node000025"><a xlink:title=" ">
<path fill="none" stroke="#63b8ff" d="M385.08,-866.78C395.81,-869.64 407.32,-873.73 417,-879.5 436.71,-891.25 433.43,-904.53 453,-916.5 461.61,-921.77 471.89,-925.6 481.41,-928.35"/>
<polygon fill="#63b8ff" stroke="#63b8ff" points="385.66,-863.32 375.12,-864.39 384.03,-870.12 385.66,-863.32"/>
</a>
</g>
</g>
<!-- Node28 -->
<g id="Node000028" class="node">
<title>Node28</title>
<g id="a_Node000028"><a xlink:href="classPgp3Core.html" target="_top" xlink:title=" ">
<polygon fill="white" stroke="orangered" points="544,-907 481,-907 481,-888 544,-888 544,-907"/>
<text text-anchor="middle" x="512.5" y="-895" font-family="Helvetica,sans-Serif" font-size="10.00">Pgp3Core</text>
</a>
</g>
</g>
<!-- Node27&#45;&gt;Node28 -->
<g id="edge15_Node000027_Node000028" class="edge">
<title>Node27&#45;&gt;Node28</title>
<g id="a_edge15_Node000027_Node000028"><a xlink:title=" ">
<path fill="none" stroke="#63b8ff" d="M385.6,-829.92C396.18,-832.77 407.48,-836.82 417,-842.5 436.71,-854.25 433.43,-867.53 453,-879.5 461.43,-884.66 471.46,-888.44 480.81,-891.17"/>
<polygon fill="#63b8ff" stroke="#63b8ff" points="386.31,-826.49 375.76,-827.53 384.65,-833.29 386.31,-826.49"/>
</a>
</g>
</g>
<!-- Node33 -->
<g id="Node000033" class="node">
<title>Node33</title>
<g id="a_Node000033"><a xlink:href="classPgp3Tb.html" target="_top" xlink:title=" ">
<polygon fill="white" stroke="#bfbfbf" points="539,-870 486,-870 486,-851 539,-851 539,-870"/>
<text text-anchor="middle" x="512.5" y="-858" font-family="Helvetica,sans-Serif" font-size="10.00">Pgp3Tb</text>
</a>
</g>
</g>
<!-- Node27&#45;&gt;Node33 -->
<g id="edge16_Node000027_Node000033" class="edge">
<title>Node27&#45;&gt;Node33</title>
<g id="a_edge16_Node000027_Node000033"><a xlink:title=" ">
<path fill="none" stroke="#63b8ff" d="M385.34,-831.6C415.66,-838.54 458.62,-848.38 485.76,-854.6"/>
<polygon fill="#63b8ff" stroke="#63b8ff" points="386.12,-828.18 375.59,-829.36 384.56,-835.01 386.12,-828.18"/>
</a>
</g>
</g>
<!-- Node35 -->
<g id="Node000035" class="node">
<title>Node35</title>
<g id="a_Node000035"><a xlink:href="classPgp4Core.html" target="_top" xlink:title=" ">
<polygon fill="white" stroke="orangered" points="544,-833 481,-833 481,-814 544,-814 544,-833"/>
<text text-anchor="middle" x="512.5" y="-821" font-family="Helvetica,sans-Serif" font-size="10.00">Pgp4Core</text>
</a>
</g>
</g>
<!-- Node34&#45;&gt;Node35 -->
<g id="edge18_Node000034_Node000035" class="edge">
<title>Node34&#45;&gt;Node35</title>
<g id="a_edge18_Node000034_Node000035"><a xlink:title=" ">
<path fill="none" stroke="#63b8ff" d="M384.42,-780.74C404.35,-788.27 429.98,-797.72 453,-805.5 461.96,-808.53 471.76,-811.63 480.73,-814.38"/>
<polygon fill="#63b8ff" stroke="#63b8ff" points="385.43,-777.38 374.84,-777.1 382.95,-783.92 385.43,-777.38"/>
</a>
</g>
</g>
<!-- Node42 -->
<g id="Node000042" class="node">
<title>Node42</title>
<g id="a_Node000042"><a xlink:href="classPgp4CoreLite.html" target="_top" xlink:title=" ">
<polygon fill="white" stroke="orangered" points="553,-796 472,-796 472,-777 553,-777 553,-796"/>
<text text-anchor="middle" x="512.5" y="-784" font-family="Helvetica,sans-Serif" font-size="10.00">Pgp4CoreLite</text>
</a>
</g>
</g>
<!-- Node34&#45;&gt;Node42 -->
<g id="edge19_Node000034_Node000042" class="edge">
<title>Node34&#45;&gt;Node42</title>
<g id="a_edge19_Node000034_Node000042"><a xlink:title=" ">
<path fill="none" stroke="#63b8ff" d="M385.59,-771.69C411.1,-774.69 445.47,-778.73 471.86,-781.84"/>
<polygon fill="#63b8ff" stroke="#63b8ff" points="385.93,-768.2 375.59,-770.51 385.11,-775.16 385.93,-768.2"/>
</a>
</g>
</g>
<!-- Node46 -->
<g id="Node000046" class="node">
<title>Node46</title>
<g id="a_Node000046"><a xlink:href="classPgp4TxLiteTb.html" target="_top" xlink:title=" ">
<polygon fill="white" stroke="#bfbfbf" points="554,-759 471,-759 471,-740 554,-740 554,-759"/>
<text text-anchor="middle" x="512.5" y="-747" font-family="Helvetica,sans-Serif" font-size="10.00">Pgp4TxLiteTb</text>
</a>
</g>
</g>
<!-- Node34&#45;&gt;Node46 -->
<g id="edge20_Node000034_Node000046" class="edge">
<title>Node34&#45;&gt;Node46</title>
<g id="a_edge20_Node000034_Node000046"><a xlink:title=" ">
<path fill="none" stroke="#63b8ff" d="M385.81,-763.51C411,-760.7 444.75,-756.94 470.93,-754.02"/>
<polygon fill="#63b8ff" stroke="#63b8ff" points="385.14,-760.06 375.59,-764.65 385.92,-767.02 385.14,-760.06"/>
</a>
</g>
</g>
<!-- Node48 -->
<g id="Node000048" class="node">
<title>Node48</title>
<g id="a_Node000048"><a xlink:href="classRssiCoreTb.html" target="_top" xlink:title=" ">
<polygon fill="white" stroke="#bfbfbf" points="548,-722 477,-722 477,-703 548,-703 548,-722"/>
<text text-anchor="middle" x="512.5" y="-710" font-family="Helvetica,sans-Serif" font-size="10.00">RssiCoreTb</text>
</a>
</g>
</g>
<!-- Node47&#45;&gt;Node48 -->
<g id="edge22_Node000047_Node000048" class="edge">
<title>Node47&#45;&gt;Node48</title>
<g id="a_edge22_Node000047_Node000048"><a xlink:title=" ">
<path fill="none" stroke="#63b8ff" d="M401.5,-687.3C426.11,-692.94 454.91,-699.53 476.87,-704.57"/>
<polygon fill="#63b8ff" stroke="#63b8ff" points="402.12,-683.85 391.59,-685.03 400.56,-690.67 402.12,-683.85"/>
</a>
</g>
</g>
<!-- Node49 -->
<g id="Node000049" class="node">
<title>Node49</title>
<g id="a_Node000049"><a xlink:href="classRssiInterleaveTb.html" target="_top" xlink:title=" ">
<polygon fill="white" stroke="#bfbfbf" points="561.5,-685 463.5,-685 463.5,-666 561.5,-666 561.5,-685"/>
<text text-anchor="middle" x="512.5" y="-673" font-family="Helvetica,sans-Serif" font-size="10.00">RssiInterleaveTb</text>
</a>
</g>
</g>
<!-- Node47&#45;&gt;Node49 -->
<g id="edge23_Node000047_Node000049" class="edge">
<title>Node47&#45;&gt;Node49</title>
<g id="a_edge23_Node000047_Node000049"><a xlink:title=" ">
<path fill="none" stroke="#63b8ff" d="M409.94,-675.5C427.52,-675.5 446.52,-675.5 463.28,-675.5"/>
<polygon fill="#63b8ff" stroke="#63b8ff" points="409.77,-672 399.77,-675.5 409.77,-679 409.77,-672"/>
</a>
</g>
</g>
<!-- Node50 -->
<g id="Node000050" class="node">
<title>Node50</title>
<g id="a_Node000050"><a xlink:href="classRawEthFramerTb.html" target="_top" xlink:title=" ">
<polygon fill="white" stroke="orangered" points="562.5,-648 462.5,-648 462.5,-629 562.5,-629 562.5,-648"/>
<text text-anchor="middle" x="512.5" y="-636" font-family="Helvetica,sans-Serif" font-size="10.00">RawEthFramerTb</text>
</a>
</g>
</g>
<!-- Node47&#45;&gt;Node50 -->
<g id="edge24_Node000047_Node000050" class="edge">
<title>Node47&#45;&gt;Node50</title>
<g id="a_edge24_Node000047_Node000050"><a xlink:title=" ">
<path fill="none" stroke="#63b8ff" d="M401.45,-663.71C423.5,-658.66 448.92,-652.84 469.77,-648.06"/>
<polygon fill="#63b8ff" stroke="#63b8ff" points="400.56,-660.33 391.59,-665.97 402.12,-667.15 400.56,-660.33"/>
</a>
</g>
</g>
<!-- Node52 -->
<g id="Node000052" class="node">
<title>Node52</title>
<g id="a_Node000052"><a xlink:href="classIpV4Engine.html" target="_top" xlink:title=" ">
<polygon fill="white" stroke="orangered" points="548,-611 477,-611 477,-592 548,-592 548,-611"/>
<text text-anchor="middle" x="512.5" y="-599" font-family="Helvetica,sans-Serif" font-size="10.00">IpV4Engine</text>
</a>
</g>
</g>
<!-- Node51&#45;&gt;Node52 -->
<g id="edge26_Node000051_Node000052" class="edge">
<title>Node51&#45;&gt;Node52</title>
<g id="a_edge26_Node000051_Node000052"><a xlink:title=" ">
<path fill="none" stroke="#63b8ff" d="M401.12,-626.79C425.84,-621.12 454.87,-614.47 476.96,-609.41"/>
<polygon fill="#63b8ff" stroke="#63b8ff" points="400.14,-623.42 391.17,-629.07 401.7,-630.25 400.14,-623.42"/>
</a>
</g>
</g>
<!-- Node57&#45;&gt;Node52 -->
<g id="edge28_Node000057_Node000052" class="edge">
<title>Node57&#45;&gt;Node52</title>
<g id="a_edge28_Node000057_Node000052"><a xlink:title=" ">
<path fill="none" stroke="#63b8ff" d="M401.03,-601.5C425.71,-601.5 454.69,-601.5 476.78,-601.5"/>
<polygon fill="#63b8ff" stroke="#63b8ff" points="400.75,-598 390.75,-601.5 400.75,-605 400.75,-598"/>
</a>
</g>
</g>
<!-- Node59 -->
<g id="Node000059" class="node">
<title>Node59</title>
<g id="a_Node000059"><a xlink:href="classEthMacRx.html" target="_top" xlink:title=" ">
<polygon fill="white" stroke="orangered" points="545,-574 480,-574 480,-555 545,-555 545,-574"/>
<text text-anchor="middle" x="512.5" y="-562" font-family="Helvetica,sans-Serif" font-size="10.00">EthMacRx</text>
</a>
</g>
</g>
<!-- Node58&#45;&gt;Node59 -->
<g id="edge30_Node000058_Node000059" class="edge">
<title>Node58&#45;&gt;Node59</title>
<g id="a_edge30_Node000058_Node000059"><a xlink:title=" ">
<path fill="none" stroke="#63b8ff" d="M410.89,-564.5C434.34,-564.5 460.18,-564.5 479.8,-564.5"/>
<polygon fill="#63b8ff" stroke="#63b8ff" points="410.66,-561 400.66,-564.5 410.66,-568 410.66,-561"/>
</a>
</g>
</g>
<!-- Node93 -->
<g id="Node000093" class="node">
<title>Node93</title>
<g id="a_Node000093"><a xlink:href="classEthMacTx.html" target="_top" xlink:title=" ">
<polygon fill="white" stroke="orangered" points="545,-537 480,-537 480,-518 545,-518 545,-537"/>
<text text-anchor="middle" x="512.5" y="-525" font-family="Helvetica,sans-Serif" font-size="10.00">EthMacTx</text>
</a>
</g>
</g>
<!-- Node92&#45;&gt;Node93 -->
<g id="edge32_Node000092_Node000093" class="edge">
<title>Node92&#45;&gt;Node93</title>
<g id="a_edge32_Node000092_Node000093"><a xlink:title=" ">
<path fill="none" stroke="#63b8ff" d="M410.46,-527.5C433.96,-527.5 459.91,-527.5 479.63,-527.5"/>
<polygon fill="#63b8ff" stroke="#63b8ff" points="410.21,-524 400.21,-527.5 410.21,-531 410.21,-524"/>
</a>
</g>
</g>
<!-- Node95 -->
<g id="Node000095" class="node">
<title>Node95</title>
<g id="a_Node000095"><a xlink:href="classUdpEngine.html" target="_top" xlink:title=" ">
<polygon fill="white" stroke="orangered" points="547,-500 478,-500 478,-481 547,-481 547,-500"/>
<text text-anchor="middle" x="512.5" y="-488" font-family="Helvetica,sans-Serif" font-size="10.00">UdpEngine</text>
</a>
</g>
</g>
<!-- Node94&#45;&gt;Node95 -->
<g id="edge34_Node000094_Node000095" class="edge">
<title>Node94&#45;&gt;Node95</title>
<g id="a_edge34_Node000094_Node000095"><a xlink:title=" ">
<path fill="none" stroke="#63b8ff" d="M400.47,-490.5C425.7,-490.5 455.55,-490.5 477.93,-490.5"/>
<polygon fill="#63b8ff" stroke="#63b8ff" points="400.34,-487 390.34,-490.5 400.34,-494 400.34,-487"/>
</a>
</g>
</g>
<!-- Node96&#45;&gt;Node97 -->
<g id="edge36_Node000096_Node000097" class="edge">
<title>Node96&#45;&gt;Node97</title>
<g id="a_edge36_Node000096_Node000097"><a xlink:title=" ">
<path fill="none" stroke="#63b8ff" d="M359.97,-323.94C375.97,-351.86 410,-404.73 453,-434.5 461.87,-440.64 472.84,-444.89 482.88,-447.79"/>
<polygon fill="#63b8ff" stroke="#63b8ff" points="363.01,-322.21 355.07,-315.19 356.9,-325.62 363.01,-322.21"/>
</a>
</g>
</g>
<!-- Node98 -->
<g id="Node000098" class="node">
<title>Node98</title>
<g id="a_Node000098"><a xlink:href="classPgpParallelSimModel.html" target="_top" xlink:title=" ">
<polygon fill="white" stroke="#bfbfbf" points="572,-426 453,-426 453,-407 572,-407 572,-426"/>
<text text-anchor="middle" x="512.5" y="-414" font-family="Helvetica,sans-Serif" font-size="10.00">PgpParallelSimModel</text>
</a>
</g>
</g>
<!-- Node96&#45;&gt;Node98 -->
<g id="edge37_Node000096_Node000098" class="edge">
<title>Node96&#45;&gt;Node98</title>
<g id="a_edge37_Node000096_Node000098"><a xlink:title=" ">
<path fill="none" stroke="#63b8ff" d="M365.22,-322.93C383.98,-343.43 417.74,-377.24 453,-397.5 459.57,-401.28 467,-404.42 474.3,-406.99"/>
<polygon fill="#63b8ff" stroke="#63b8ff" points="367.64,-320.39 358.35,-315.28 362.43,-325.06 367.64,-320.39"/>
</a>
</g>
</g>
<!-- Node99 -->
<g id="Node000099" class="node">
<title>Node99</title>
<g id="a_Node000099"><a xlink:href="classPgp2bGth7Fixedlat.html" target="_top" xlink:title=" ">
<polygon fill="white" stroke="orangered" points="566.5,-389 458.5,-389 458.5,-370 566.5,-370 566.5,-389"/>
<text text-anchor="middle" x="512.5" y="-377" font-family="Helvetica,sans-Serif" font-size="10.00">Pgp2bGth7Fixedlat</text>
</a>
</g>
</g>
<!-- Node96&#45;&gt;Node99 -->
<g id="edge38_Node000096_Node000099" class="edge">
<title>Node96&#45;&gt;Node99</title>
<g id="a_edge38_Node000096_Node000099"><a xlink:title=" ">
<path fill="none" stroke="#63b8ff" d="M374.67,-320.27C395.16,-332.14 425.34,-348.73 453,-360.5 461.16,-363.97 470.17,-367.19 478.63,-369.95"/>
<polygon fill="#63b8ff" stroke="#63b8ff" points="376.37,-317.21 365.98,-315.18 372.84,-323.25 376.37,-317.21"/>
</a>
</g>
</g>
<!-- Node101 -->
<g id="Node000101" class="node">
<title>Node101</title>
<g id="a_Node000101"><a xlink:href="classPgp2bGth7MultiLane.html" target="_top" xlink:title=" ">
<polygon fill="white" stroke="orangered" points="571.5,-352 453.5,-352 453.5,-333 571.5,-333 571.5,-352"/>
<text text-anchor="middle" x="512.5" y="-340" font-family="Helvetica,sans-Serif" font-size="10.00">Pgp2bGth7MultiLane</text>
</a>
</g>
</g>
<!-- Node96&#45;&gt;Node101 -->
<g id="edge39_Node000096_Node000101" class="edge">
<title>Node96&#45;&gt;Node101</title>
<g id="a_edge39_Node000096_Node000101"><a xlink:title=" ">
<path fill="none" stroke="#63b8ff" d="M394.02,-315.58C417.64,-321 446.59,-327.63 469.84,-332.96"/>
<polygon fill="#63b8ff" stroke="#63b8ff" points="394.78,-312.17 384.25,-313.35 393.22,-318.99 394.78,-312.17"/>
</a>
</g>
</g>
<!-- Node104 -->
<g id="Node000104" class="node">
<title>Node104</title>
<g id="a_Node000104"><a xlink:href="classPgp2bGthUltra.html" target="_top" xlink:title=" ">
<polygon fill="white" stroke="#bfbfbf" points="556.5,-315 468.5,-315 468.5,-296 556.5,-296 556.5,-315"/>
<text text-anchor="middle" x="512.5" y="-303" font-family="Helvetica,sans-Serif" font-size="10.00">Pgp2bGthUltra</text>
</a>
</g>
</g>
<!-- Node96&#45;&gt;Node104 -->
<g id="edge40_Node000096_Node000104" class="edge">
<title>Node96&#45;&gt;Node104</title>
<g id="a_edge40_Node000096_Node000104"><a xlink:title=" ">
<path fill="none" stroke="#63b8ff" d="M394.45,-305.5C417.49,-305.5 445.51,-305.5 468.36,-305.5"/>
<polygon fill="#63b8ff" stroke="#63b8ff" points="394.25,-302 384.25,-305.5 394.25,-309 394.25,-302"/>
</a>
</g>
</g>
<!-- Node105 -->
<g id="Node000105" class="node">
<title>Node105</title>
<g id="a_Node000105"><a xlink:href="classPgp2bGtp7FixedLat.html" target="_top" xlink:title=" ">
<polygon fill="white" stroke="orangered" points="567.5,-278 457.5,-278 457.5,-259 567.5,-259 567.5,-278"/>
<text text-anchor="middle" x="512.5" y="-266" font-family="Helvetica,sans-Serif" font-size="10.00">Pgp2bGtp7FixedLat</text>
</a>
</g>
</g>
<!-- Node96&#45;&gt;Node105 -->
<g id="edge41_Node000096_Node000105" class="edge">
<title>Node96&#45;&gt;Node105</title>
<g id="a_edge41_Node000096_Node000105"><a xlink:title=" ">
<path fill="none" stroke="#63b8ff" d="M394.02,-295.42C417.64,-290 446.59,-283.37 469.84,-278.04"/>
<polygon fill="#63b8ff" stroke="#63b8ff" points="393.22,-292.01 384.25,-297.65 394.78,-298.83 393.22,-292.01"/>
</a>
</g>
</g>
<!-- Node107 -->
<g id="Node000107" class="node">
<title>Node107</title>
<g id="a_Node000107"><a xlink:href="classPgp2bGtp7MultiLane.html" target="_top" xlink:title=" ">
<polygon fill="white" stroke="orangered" points="571.5,-241 453.5,-241 453.5,-222 571.5,-222 571.5,-241"/>
<text text-anchor="middle" x="512.5" y="-229" font-family="Helvetica,sans-Serif" font-size="10.00">Pgp2bGtp7MultiLane</text>
</a>
</g>
</g>
<!-- Node96&#45;&gt;Node107 -->
<g id="edge42_Node000096_Node000107" class="edge">
<title>Node96&#45;&gt;Node107</title>
<g id="a_edge42_Node000096_Node000107"><a xlink:title=" ">
<path fill="none" stroke="#63b8ff" d="M373.87,-290.74C394.32,-278.54 424.85,-261.34 453,-249.5 460.44,-246.37 468.62,-243.51 476.45,-241.04"/>
<polygon fill="#63b8ff" stroke="#63b8ff" points="371.98,-287.8 365.23,-295.96 375.59,-293.79 371.98,-287.8"/>
</a>
</g>
</g>
<!-- Node110 -->
<g id="Node000110" class="node">
<title>Node110</title>
<g id="a_Node000110"><a xlink:href="classPgp2bGtx7Fixedlat.html" target="_top" xlink:title=" ">
<polygon fill="white" stroke="orangered" points="566.5,-204 458.5,-204 458.5,-185 566.5,-185 566.5,-204"/>
<text text-anchor="middle" x="512.5" y="-192" font-family="Helvetica,sans-Serif" font-size="10.00">Pgp2bGtx7Fixedlat</text>
</a>
</g>
</g>
<!-- Node96&#45;&gt;Node110 -->
<g id="edge43_Node000096_Node000110" class="edge">
<title>Node96&#45;&gt;Node110</title>
<g id="a_edge43_Node000096_Node000110"><a xlink:title=" ">
<path fill="none" stroke="#63b8ff" d="M364.84,-288.1C383.45,-267.31 417.28,-232.79 453,-212.5 458.91,-209.14 465.53,-206.34 472.12,-204.02"/>
<polygon fill="#63b8ff" stroke="#63b8ff" points="362.01,-286.01 358.05,-295.84 367.27,-290.63 362.01,-286.01"/>
</a>
</g>
</g>
<!-- Node114 -->
<g id="Node000114" class="node">
<title>Node114</title>
<g id="a_Node000114"><a xlink:href="classPgp2bGtx7MultiLane.html" target="_top" xlink:title=" ">
<polygon fill="white" stroke="orangered" points="571.5,-167 453.5,-167 453.5,-148 571.5,-148 571.5,-167"/>
<text text-anchor="middle" x="512.5" y="-155" font-family="Helvetica,sans-Serif" font-size="10.00">Pgp2bGtx7MultiLane</text>
</a>
</g>
</g>
<!-- Node96&#45;&gt;Node114 -->
<g id="edge44_Node000096_Node000114" class="edge">
<title>Node96&#45;&gt;Node114</title>
<g id="a_edge44_Node000096_Node000114"><a xlink:title=" ">
<path fill="none" stroke="#63b8ff" d="M362.43,-287.22C384.51,-255.22 430.39,-190.96 453,-175.5 458,-172.08 463.67,-169.29 469.47,-167.02"/>
<polygon fill="#63b8ff" stroke="#63b8ff" points="359.4,-285.45 356.63,-295.68 365.17,-289.41 359.4,-285.45"/>
</a>
</g>
</g>
<!-- Node118 -->
<g id="Node000118" class="node">
<title>Node118</title>
<g id="a_Node000118"><a xlink:href="classPgp2bGtyUltra.html" target="_top" xlink:title=" ">
<polygon fill="white" stroke="#bfbfbf" points="556.5,-130 468.5,-130 468.5,-111 556.5,-111 556.5,-130"/>
<text text-anchor="middle" x="512.5" y="-118" font-family="Helvetica,sans-Serif" font-size="10.00">Pgp2bGtyUltra</text>
</a>
</g>
</g>
<!-- Node96&#45;&gt;Node118 -->
<g id="edge45_Node000096_Node000118" class="edge">
<title>Node96&#45;&gt;Node118</title>
<g id="a_edge45_Node000096_Node000118"><a xlink:title=" ">
<path fill="none" stroke="#63b8ff" d="M363.27,-287.78C377.34,-268.68 399.84,-237.15 417,-208.5 434.98,-178.49 426.18,-160.96 453,-138.5 457.48,-134.75 462.74,-131.78 468.23,-129.42"/>
<polygon fill="#63b8ff" stroke="#63b8ff" points="360.43,-285.75 357.28,-295.86 366.05,-289.92 360.43,-285.75"/>
</a>
</g>
</g>
<!-- Node119&#45;&gt;Node120 -->
<g id="edge48_Node000119_Node000120" class="edge">
<title>Node119&#45;&gt;Node120</title>
<g id="a_edge48_Node000119_Node000120"><a xlink:title=" ">
<path fill="none" stroke="#63b8ff" d="M395.93,-70.62C418.66,-73.15 445.95,-76.19 468.29,-78.68"/>
<polygon fill="#63b8ff" stroke="#63b8ff" points="396.17,-67.12 385.84,-69.49 395.39,-74.08 396.17,-67.12"/>
</a>
</g>
</g>
<!-- Node121 -->
<g id="Node000121" class="node">
<title>Node121</title>
<g id="a_Node000121"><a xlink:href="classPgp2fcGthUltra.html" target="_top" xlink:title=" ">
<polygon fill="white" stroke="#bfbfbf" points="558,-56 467,-56 467,-37 558,-37 558,-56"/>
<text text-anchor="middle" x="512.5" y="-44" font-family="Helvetica,sans-Serif" font-size="10.00">Pgp2fcGthUltra</text>
</a>
</g>
</g>
<!-- Node119&#45;&gt;Node121 -->
<g id="edge49_Node000119_Node000121" class="edge">
<title>Node119&#45;&gt;Node121</title>
<g id="a_edge49_Node000119_Node000121"><a xlink:title=" ">
<path fill="none" stroke="#63b8ff" d="M396.03,-60.08C418.24,-57.47 444.78,-54.35 466.81,-51.76"/>
<polygon fill="#63b8ff" stroke="#63b8ff" points="395.36,-56.64 385.84,-61.28 396.18,-63.59 395.36,-56.64"/>
</a>
</g>
</g>
<!-- Node122 -->
<g id="Node000122" class="node">
<title>Node122</title>
<g id="a_Node000122"><a xlink:href="classPgp2fcGtp7.html" target="_top" xlink:title=" ">
<polygon fill="white" stroke="orangered" points="549,-19 476,-19 476,0 549,0 549,-19"/>
<text text-anchor="middle" x="512.5" y="-7" font-family="Helvetica,sans-Serif" font-size="10.00">Pgp2fcGtp7</text>
</a>
</g>
</g>
<!-- Node119&#45;&gt;Node122 -->
<g id="edge50_Node000119_Node000122" class="edge">
<title>Node119&#45;&gt;Node122</title>
<g id="a_edge50_Node000119_Node000122"><a xlink:title=" ">
<path fill="none" stroke="#63b8ff" d="M384.42,-52.26C404.35,-44.73 429.98,-35.28 453,-27.5 461.46,-24.64 470.66,-21.72 479.21,-19.09"/>
<polygon fill="#63b8ff" stroke="#63b8ff" points="382.95,-49.08 374.84,-55.9 385.43,-55.62 382.95,-49.08"/>
</a>
</g>
</g>
</g>
</svg>

<g id="navigator" transform="translate(0 0)" fill="#404254">
  <rect fill="#f2f5e9" fill-opacity="0.5" stroke="#606060" stroke-width=".5" x="0" y="0" width="60" height="60"/>
  <use id="zoomplus" xlink:href="#zoomPlus" x="17" y="9" onmousedown="handleZoom(evt,'in')"/>
  <use id="zoomminus" xlink:href="#zoomMin" x="42" y="9" onmousedown="handleZoom(evt,'out')"/>
  <use id="reset" xlink:href="#resetDef" x="30" y="36" onmousedown="handleReset()"/>
   <use id="arrowup" xlink:href="#arrowUp" x="0" y="0" onmousedown="handlePan(0,-1)"/>
  <use id="arrowright" xlink:href="#arrowRight" x="0" y="0" onmousedown="handlePan(1,0)"/>
  <use id="arrowdown" xlink:href="#arrowDown" x="0" y="0" onmousedown="handlePan(0,1)"/>
  <use id="arrowleft" xlink:href="#arrowLeft" x="0" y="0" onmousedown="handlePan(-1,0)"/>
</g>
<svg viewBox="0 0 15 15" width="100%" height="30px" preserveAspectRatio="xMaxYMin meet">
 <g id="arrow_out" transform="scale(0.3 0.3)">
  <a xlink:href="classAxiStreamDeMux__inherit__graph_org.svg" target="_base">
   <rect id="button" ry="5" rx="5" y="6" x="6" height="38" width="38"
        fill="#f2f5e9" fill-opacity="0.5" stroke="#606060" stroke-width="1.0"/>
   <path id="arrow"
     d="M 11.500037,31.436501 C 11.940474,20.09759 22.043105,11.32322 32.158766,21.979434 L 37.068811,17.246167 C 37.068811,17.246167 37.088388,32 37.088388,32 L 22.160133,31.978069 C 22.160133,31.978069 26.997745,27.140456 26.997745,27.140456 C 18.528582,18.264221 13.291696,25.230495 11.500037,31.436501 z"
     style="fill:#404040;"/>
  </a>
 </g>
</svg>

<style type='text/css'>
<![CDATA[
[data-mouse-over-selected='false'] { opacity: 0.7; }
[data-mouse-over-selected='true']  { opacity: 1.0; }
]]>
</style>
<script type="application/ecmascript"><![CDATA[
document.addEventListener('DOMContentLoaded', (event) => {
  highlightEdges();
  highlightAdjacentNodes();
});
]]></script>
</svg>
