<?xml version="1.0" encoding="UTF-8" standalone="no"?>
<!DOCTYPE svg PUBLIC "-//W3C//DTD SVG 1.1//EN"
 "http://www.w3.org/Graphics/SVG/1.1/DTD/svg11.dtd">
<!-- Generated by graphviz version 2.43.0 (0)
 -->
<!-- Title: GigEthReg Pages: 1 -->
<!--zoomable 420 -->
<svg id="main" version="1.1" xmlns="http://www.w3.org/2000/svg" xmlns:xlink="http://www.w3.org/1999/xlink" xml:space="preserve" onload="init(evt)">
<style type="text/css"><![CDATA[
.edge:hover path { stroke: red; }
.edge:hover polygon { stroke: red; fill: red; }
]]></style>
<script type="text/javascript"><![CDATA[
var edges = document.getElementsByTagName('g');
if (edges && edges.length) {
  for (var i=0;i<edges.length;i++) {
    if (edges[i].id.substr(0,4)=='edge') {
      edges[i].setAttribute('class','edge');
    }
  }
}
]]></script>
        <defs>
                <circle id="rim" cx="0" cy="0" r="7"/>
                <circle id="rim2" cx="0" cy="0" r="3.5"/>
                <g id="zoomPlus">
                        <use xlink:href="#rim" fill="#404040">
                                <set attributeName="fill" to="#808080" begin="zoomplus.mouseover" end="zoomplus.mouseout"/>
                        </use>
                        <path d="M-4,0h8M0,-4v8" fill="none" stroke="white" stroke-width="1.5" pointer-events="none"/>
                </g>
                <g id="zoomMin">
                        <use xlink:href="#rim" fill="#404040">
                                <set attributeName="fill" to="#808080" begin="zoomminus.mouseover" end="zoomminus.mouseout"/>
                        </use>
                        <path d="M-4,0h8" fill="none" stroke="white" stroke-width="1.5" pointer-events="none"/>
                </g>
                <g id="dirArrow">
                        <path fill="none" stroke="white" stroke-width="1.5" d="M0,-3.0v7 M-2.5,-0.5L0,-3.0L2.5,-0.5"/>
                </g>
               <g id="resetDef">
                       <use xlink:href="#rim2" fill="#404040">
                               <set attributeName="fill" to="#808080" begin="reset.mouseover" end="reset.mouseout"/>
                       </use>
               </g>
        </defs>

<script type="text/javascript">
var viewWidth = 847;
var viewHeight = 420;
var sectionId = 'dynsection-1';
</script>
<script xlink:href="svgpan.js"/>
<svg id="graph" class="graph">
<g id="viewport">
<title>GigEthReg</title>
<polygon fill="white" stroke="transparent" points="-4,4 -4,-416 843,-416 843,4 -4,4"/>
<!-- Node1 -->
<g id="node1" class="node">
<title>Node1</title>
<g id="a_node1"><a xlink:title=" ">
<polygon fill="#bfbfbf" stroke="black" points="691,-0.5 691,-19.5 759,-19.5 759,-0.5 691,-0.5"/>
<text text-anchor="middle" x="725" y="-7.5" font-family="Helvetica,sans-Serif" font-size="10.00">GigEthReg</text>
</a>
</g>
</g>
<!-- Node2 -->
<g id="node2" class="node">
<title>Node2</title>
<g id="a_node2"><a xlink:href="classWatchDogRst.html" target="_top" xlink:title=" ">
<polygon fill="white" stroke="black" points="757,-224.5 757,-243.5 839,-243.5 839,-224.5 757,-224.5"/>
<text text-anchor="middle" x="798" y="-231.5" font-family="Helvetica,sans-Serif" font-size="10.00">WatchDogRst</text>
</a>
</g>
</g>
<!-- Node2&#45;&gt;Node1 -->
<g id="edge1" class="edge">
<title>Node2&#45;&gt;Node1</title>
<path fill="none" stroke="midnightblue" d="M791.94,-214.58C777,-169.14 738.79,-52.92 727.92,-19.88"/>
<polygon fill="midnightblue" stroke="midnightblue" points="788.69,-215.89 795.14,-224.3 795.34,-213.7 788.69,-215.89"/>
</g>
<!-- Node3 -->
<g id="node3" class="node">
<title>Node3</title>
<g id="a_node3"><a xlink:href="classSynchronizer.html" target="_top" xlink:title=" ">
<polygon fill="white" stroke="black" points="310,-392.5 310,-411.5 390,-411.5 390,-392.5 310,-392.5"/>
<text text-anchor="middle" x="350" y="-399.5" font-family="Helvetica,sans-Serif" font-size="10.00">Synchronizer</text>
</a>
</g>
</g>
<!-- Node3&#45;&gt;Node2 -->
<g id="edge2" class="edge">
<title>Node3&#45;&gt;Node2</title>
<path fill="none" stroke="midnightblue" d="M400.32,-399.33C509.24,-395.21 759.21,-382.9 786,-356 816.69,-325.19 805.76,-265.61 800.32,-243.52"/>
<polygon fill="midnightblue" stroke="midnightblue" points="400.1,-395.83 390.23,-399.7 400.36,-402.83 400.1,-395.83"/>
</g>
<!-- Node8 -->
<g id="node8" class="node">
<title>Node8</title>
<g id="a_node8"><a xlink:href="classRstSync.html" target="_top" xlink:title=" ">
<polygon fill="white" stroke="black" points="122,-336.5 122,-355.5 178,-355.5 178,-336.5 122,-336.5"/>
<text text-anchor="middle" x="150" y="-343.5" font-family="Helvetica,sans-Serif" font-size="10.00">RstSync</text>
</a>
</g>
</g>
<!-- Node3&#45;&gt;Node8 -->
<g id="edge9" class="edge">
<title>Node3&#45;&gt;Node8</title>
<path fill="none" stroke="midnightblue" d="M308.33,-389.75C269.36,-379.23 212.23,-363.8 178.31,-354.64"/>
<polygon fill="midnightblue" stroke="midnightblue" points="307.74,-393.22 318.31,-392.44 309.57,-386.46 307.74,-393.22"/>
</g>
<!-- Node9 -->
<g id="node9" class="node">
<title>Node9</title>
<g id="a_node9"><a xlink:href="classSynchronizerEdge.html" target="_top" xlink:title=" ">
<polygon fill="white" stroke="black" points="0,-336.5 0,-355.5 104,-355.5 104,-336.5 0,-336.5"/>
<text text-anchor="middle" x="52" y="-343.5" font-family="Helvetica,sans-Serif" font-size="10.00">SynchronizerEdge</text>
</a>
</g>
</g>
<!-- Node3&#45;&gt;Node9 -->
<g id="edge11" class="edge">
<title>Node3&#45;&gt;Node9</title>
<path fill="none" stroke="midnightblue" d="M299.76,-391.9C243.76,-381.75 153.88,-365.46 99.15,-355.54"/>
<polygon fill="midnightblue" stroke="midnightblue" points="299.35,-395.38 309.81,-393.72 300.59,-388.49 299.35,-395.38"/>
</g>
<!-- Node12 -->
<g id="node12" class="node">
<title>Node12</title>
<g id="a_node12"><a xlink:href="classFifoAsync.html" target="_top" xlink:title=" ">
<polygon fill="white" stroke="black" points="372,-280.5 372,-299.5 436,-299.5 436,-280.5 372,-280.5"/>
<text text-anchor="middle" x="404" y="-287.5" font-family="Helvetica,sans-Serif" font-size="10.00">FifoAsync</text>
</a>
</g>
</g>
<!-- Node3&#45;&gt;Node12 -->
<g id="edge18" class="edge">
<title>Node3&#45;&gt;Node12</title>
<path fill="none" stroke="midnightblue" d="M400.29,-395.48C448.38,-389.05 515.89,-376.58 532,-356 560.12,-320.09 482.63,-302.3 436.15,-295.08"/>
<polygon fill="midnightblue" stroke="midnightblue" points="399.82,-392.01 390.35,-396.76 400.72,-398.96 399.82,-392.01"/>
</g>
<!-- Node4 -->
<g id="node4" class="node">
<title>Node4</title>
<g id="a_node4"><a xlink:href="classSynchronizerVector.html" target="_top" xlink:title=" ">
<polygon fill="white" stroke="black" points="667,-336.5 667,-355.5 777,-355.5 777,-336.5 667,-336.5"/>
<text text-anchor="middle" x="722" y="-343.5" font-family="Helvetica,sans-Serif" font-size="10.00">SynchronizerVector</text>
</a>
</g>
</g>
<!-- Node4&#45;&gt;Node1 -->
<g id="edge3" class="edge">
<title>Node4&#45;&gt;Node1</title>
<path fill="none" stroke="midnightblue" d="M722.82,-326.26C723.71,-304.37 725,-267.06 725,-235 725,-235 725,-235 725,-121 725,-83.19 725,-38.06 725,-19.56"/>
<polygon fill="midnightblue" stroke="midnightblue" points="719.32,-326.31 722.39,-336.44 726.31,-326.6 719.32,-326.31"/>
</g>
<!-- Node5 -->
<g id="node5" class="node">
<title>Node5</title>
<g id="a_node5"><a xlink:href="classSyncStatusVector.html" target="_top" xlink:title=" ">
<polygon fill="white" stroke="black" points="595.5,-56.5 595.5,-75.5 696.5,-75.5 696.5,-56.5 595.5,-56.5"/>
<text text-anchor="middle" x="646" y="-63.5" font-family="Helvetica,sans-Serif" font-size="10.00">SyncStatusVector</text>
</a>
</g>
</g>
<!-- Node4&#45;&gt;Node5 -->
<g id="edge5" class="edge">
<title>Node4&#45;&gt;Node5</title>
<path fill="none" stroke="midnightblue" d="M707.73,-328.61C691.43,-308.16 667,-271.43 667,-235 667,-235 667,-235 667,-177 667,-138.7 654.56,-94.21 648.83,-75.73"/>
<polygon fill="midnightblue" stroke="midnightblue" points="705.05,-330.86 714.12,-336.33 710.44,-326.4 705.05,-330.86"/>
</g>
<!-- Node4&#45;&gt;Node12 -->
<g id="edge17" class="edge">
<title>Node4&#45;&gt;Node12</title>
<path fill="none" stroke="midnightblue" d="M661.61,-334.75C594.6,-323.37 488.99,-305.43 436.23,-296.47"/>
<polygon fill="midnightblue" stroke="midnightblue" points="661.17,-338.22 671.61,-336.44 662.34,-331.32 661.17,-338.22"/>
</g>
<!-- Node5&#45;&gt;Node1 -->
<g id="edge4" class="edge">
<title>Node5&#45;&gt;Node1</title>
<path fill="none" stroke="midnightblue" d="M667.03,-50.62C681.47,-40.76 700.14,-27.99 712.34,-19.65"/>
<polygon fill="midnightblue" stroke="midnightblue" points="664.97,-47.79 658.69,-56.32 668.92,-53.57 664.97,-47.79"/>
</g>
<!-- Node6 -->
<g id="node6" class="node">
<title>Node6</title>
<g id="a_node6"><a xlink:href="classSynchronizerOneShotCntVector.html" target="_top" xlink:title=" ">
<polygon fill="white" stroke="black" points="278,-112.5 278,-131.5 446,-131.5 446,-112.5 278,-112.5"/>
<text text-anchor="middle" x="362" y="-119.5" font-family="Helvetica,sans-Serif" font-size="10.00">SynchronizerOneShotCntVector</text>
</a>
</g>
</g>
<!-- Node6&#45;&gt;Node5 -->
<g id="edge6" class="edge">
<title>Node6&#45;&gt;Node5</title>
<path fill="none" stroke="midnightblue" d="M417.03,-110.54C470.7,-100.33 551.34,-85 601.21,-75.52"/>
<polygon fill="midnightblue" stroke="midnightblue" points="416.17,-107.14 407,-112.44 417.48,-114.01 416.17,-107.14"/>
</g>
<!-- Node7 -->
<g id="node7" class="node">
<title>Node7</title>
<g id="a_node7"><a xlink:href="classSynchronizerOneShot.html" target="_top" xlink:title=" ">
<polygon fill="white" stroke="black" points="158.5,-280.5 158.5,-299.5 279.5,-299.5 279.5,-280.5 158.5,-280.5"/>
<text text-anchor="middle" x="219" y="-287.5" font-family="Helvetica,sans-Serif" font-size="10.00">SynchronizerOneShot</text>
</a>
</g>
</g>
<!-- Node7&#45;&gt;Node6 -->
<g id="edge7" class="edge">
<title>Node7&#45;&gt;Node6</title>
<path fill="none" stroke="midnightblue" d="M225.3,-270.87C234.9,-245.38 255.25,-198.65 285,-168 300.85,-151.67 323.89,-139.26 340.63,-131.65"/>
<polygon fill="midnightblue" stroke="midnightblue" points="221.97,-269.79 221.85,-280.39 228.55,-272.18 221.97,-269.79"/>
</g>
<!-- Node10 -->
<g id="node10" class="node">
<title>Node10</title>
<g id="a_node10"><a xlink:href="classSynchronizerOneShotCnt.html" target="_top" xlink:title=" ">
<polygon fill="white" stroke="black" points="293.5,-168.5 293.5,-187.5 430.5,-187.5 430.5,-168.5 293.5,-168.5"/>
<text text-anchor="middle" x="362" y="-175.5" font-family="Helvetica,sans-Serif" font-size="10.00">SynchronizerOneShotCnt</text>
</a>
</g>
</g>
<!-- Node7&#45;&gt;Node10 -->
<g id="edge13" class="edge">
<title>Node7&#45;&gt;Node10</title>
<path fill="none" stroke="midnightblue" d="M238.35,-274.12C268.7,-250.77 326.55,-206.27 350.83,-187.59"/>
<polygon fill="midnightblue" stroke="midnightblue" points="236.01,-271.5 230.22,-280.37 240.28,-277.05 236.01,-271.5"/>
</g>
<!-- Node8&#45;&gt;Node7 -->
<g id="edge8" class="edge">
<title>Node8&#45;&gt;Node7</title>
<path fill="none" stroke="midnightblue" d="M169.04,-330.1C181.46,-320.38 197.24,-308.03 207.71,-299.83"/>
<polygon fill="midnightblue" stroke="midnightblue" points="166.8,-327.4 161.09,-336.32 171.12,-332.92 166.8,-327.4"/>
</g>
<!-- Node8&#45;&gt;Node12 -->
<g id="edge16" class="edge">
<title>Node8&#45;&gt;Node12</title>
<path fill="none" stroke="midnightblue" d="M188.28,-335.77C259.35,-319.86 331.43,-305.32 371.94,-297.29"/>
<polygon fill="midnightblue" stroke="midnightblue" points="187.25,-332.41 178.26,-338.02 188.78,-339.24 187.25,-332.41"/>
</g>
<!-- Node9&#45;&gt;Node7 -->
<g id="edge10" class="edge">
<title>Node9&#45;&gt;Node7</title>
<path fill="none" stroke="midnightblue" d="M88.17,-333.3C119.64,-323.13 164.49,-308.62 192.66,-299.52"/>
<polygon fill="midnightblue" stroke="midnightblue" points="86.9,-330.04 78.46,-336.44 89.05,-336.7 86.9,-330.04"/>
</g>
<!-- Node10&#45;&gt;Node6 -->
<g id="edge12" class="edge">
<title>Node10&#45;&gt;Node6</title>
<path fill="none" stroke="midnightblue" d="M362,-157.8C362,-148.91 362,-138.78 362,-131.75"/>
<polygon fill="midnightblue" stroke="midnightblue" points="358.5,-158.08 362,-168.08 365.5,-158.08 358.5,-158.08"/>
</g>
<!-- Node11 -->
<g id="node11" class="node">
<title>Node11</title>
<g id="a_node11"><a xlink:href="classSynchronizerFifo.html" target="_top" xlink:title=" ">
<polygon fill="white" stroke="black" points="350,-224.5 350,-243.5 448,-243.5 448,-224.5 350,-224.5"/>
<text text-anchor="middle" x="399" y="-231.5" font-family="Helvetica,sans-Serif" font-size="10.00">SynchronizerFifo</text>
</a>
</g>
</g>
<!-- Node11&#45;&gt;Node10 -->
<g id="edge14" class="edge">
<title>Node11&#45;&gt;Node10</title>
<path fill="none" stroke="midnightblue" d="M387.05,-215.57C380.69,-206.27 373.13,-195.25 368,-187.75"/>
<polygon fill="midnightblue" stroke="midnightblue" points="384.35,-217.81 392.89,-224.08 390.13,-213.86 384.35,-217.81"/>
</g>
<!-- Node12&#45;&gt;Node11 -->
<g id="edge15" class="edge">
<title>Node12&#45;&gt;Node11</title>
<path fill="none" stroke="midnightblue" d="M402.25,-270.1C401.42,-261.14 400.47,-250.86 399.81,-243.75"/>
<polygon fill="midnightblue" stroke="midnightblue" points="398.77,-270.45 403.17,-280.08 405.74,-269.8 398.77,-270.45"/>
</g>
<!-- Node13 -->
<g id="node13" class="node">
<title>Node13</title>
<g id="a_node13"><a xlink:href="classFifoWrFsm.html" target="_top" xlink:title=" ">
<polygon fill="white" stroke="black" points="579.5,-336.5 579.5,-355.5 648.5,-355.5 648.5,-336.5 579.5,-336.5"/>
<text text-anchor="middle" x="614" y="-343.5" font-family="Helvetica,sans-Serif" font-size="10.00">FifoWrFsm</text>
</a>
</g>
</g>
<!-- Node13&#45;&gt;Node12 -->
<g id="edge19" class="edge">
<title>Node13&#45;&gt;Node12</title>
<path fill="none" stroke="midnightblue" d="M570.97,-333.94C530.93,-323.64 472.17,-308.53 436.09,-299.25"/>
<polygon fill="midnightblue" stroke="midnightblue" points="570.17,-337.34 580.72,-336.44 571.91,-330.56 570.17,-337.34"/>
</g>
<!-- Node14 -->
<g id="node14" class="node">
<title>Node14</title>
<g id="a_node14"><a xlink:href="classFifoRdFsm.html" target="_top" xlink:title=" ">
<polygon fill="white" stroke="black" points="196,-336.5 196,-355.5 264,-355.5 264,-336.5 196,-336.5"/>
<text text-anchor="middle" x="230" y="-343.5" font-family="Helvetica,sans-Serif" font-size="10.00">FifoRdFsm</text>
</a>
</g>
</g>
<!-- Node14&#45;&gt;Node12 -->
<g id="edge20" class="edge">
<title>Node14&#45;&gt;Node12</title>
<path fill="none" stroke="midnightblue" d="M267.26,-333.44C300.07,-323.26 347.08,-308.66 376.56,-299.52"/>
<polygon fill="midnightblue" stroke="midnightblue" points="266.08,-330.14 257.57,-336.44 268.16,-336.82 266.08,-330.14"/>
</g>
<!-- Node15 -->
<g id="node15" class="node">
<title>Node15</title>
<g id="a_node15"><a xlink:href="classSimpleDualPortRam.html" target="_top" xlink:title=" ">
<polygon fill="white" stroke="black" points="282.5,-336.5 282.5,-355.5 397.5,-355.5 397.5,-336.5 282.5,-336.5"/>
<text text-anchor="middle" x="340" y="-343.5" font-family="Helvetica,sans-Serif" font-size="10.00">SimpleDualPortRam</text>
</a>
</g>
</g>
<!-- Node15&#45;&gt;Node12 -->
<g id="edge21" class="edge">
<title>Node15&#45;&gt;Node12</title>
<path fill="none" stroke="midnightblue" d="M357.99,-329.82C369.46,-320.15 383.91,-307.95 393.53,-299.83"/>
<polygon fill="midnightblue" stroke="midnightblue" points="355.67,-327.2 350.28,-336.32 360.18,-332.55 355.67,-327.2"/>
</g>
<!-- Node16 -->
<g id="node16" class="node">
<title>Node16</title>
<g id="a_node16"><a xlink:href="classFifoOutputPipeline.html" target="_top" xlink:title=" ">
<polygon fill="white" stroke="black" points="415.5,-336.5 415.5,-355.5 522.5,-355.5 522.5,-336.5 415.5,-336.5"/>
<text text-anchor="middle" x="469" y="-343.5" font-family="Helvetica,sans-Serif" font-size="10.00">FifoOutputPipeline</text>
</a>
</g>
</g>
<!-- Node16&#45;&gt;Node12 -->
<g id="edge22" class="edge">
<title>Node16&#45;&gt;Node12</title>
<path fill="none" stroke="midnightblue" d="M450.73,-329.82C439.08,-320.15 424.4,-307.95 414.63,-299.83"/>
<polygon fill="midnightblue" stroke="midnightblue" points="448.63,-332.63 458.56,-336.32 453.1,-327.24 448.63,-332.63"/>
</g>
</g>
</svg>
        <g id="navigator" transform="translate(0 0)" fill="#404254">
                <rect fill="#f2f5e9" fill-opacity="0.5" stroke="#606060" stroke-width=".5" x="0" y="0" width="60" height="60"/>
                <use id="zoomplus" xlink:href="#zoomPlus" x="17" y="9" onmousedown="handleZoom(evt,'in')"/>
                <use id="zoomminus" xlink:href="#zoomMin" x="42" y="9" onmousedown="handleZoom(evt,'out')"/>
                <use id="reset" xlink:href="#resetDef" x="30" y="36" onmousedown="handleReset()"/>
                <g id="arrowUp" xlink:href="#dirArrow" transform="translate(30 24)" onmousedown="handlePan(0,-1)">
                  <use xlink:href="#rim" fill="#404040">
                        <set attributeName="fill" to="#808080" begin="arrowUp.mouseover" end="arrowUp.mouseout"/>
                  </use>
                  <path fill="none" stroke="white" stroke-width="1.5" d="M0,-3.0v7 M-2.5,-0.5L0,-3.0L2.5,-0.5"/>
                </g>
                <g id="arrowRight" xlink:href="#dirArrow" transform="rotate(90) translate(36 -43)" onmousedown="handlePan(1,0)">
                  <use xlink:href="#rim" fill="#404040">
                        <set attributeName="fill" to="#808080" begin="arrowRight.mouseover" end="arrowRight.mouseout"/>
                  </use>
                  <path fill="none" stroke="white" stroke-width="1.5" d="M0,-3.0v7 M-2.5,-0.5L0,-3.0L2.5,-0.5"/>
                </g>
                <g id="arrowDown" xlink:href="#dirArrow" transform="rotate(180) translate(-30 -48)" onmousedown="handlePan(0,1)">
                  <use xlink:href="#rim" fill="#404040">
                        <set attributeName="fill" to="#808080" begin="arrowDown.mouseover" end="arrowDown.mouseout"/>
                  </use>
                  <path fill="none" stroke="white" stroke-width="1.5" d="M0,-3.0v7 M-2.5,-0.5L0,-3.0L2.5,-0.5"/>
                </g>
                <g id="arrowLeft" xlink:href="#dirArrow" transform="rotate(270) translate(-36 17)" onmousedown="handlePan(-1,0)">
                  <use xlink:href="#rim" fill="#404040">
                        <set attributeName="fill" to="#808080" begin="arrowLeft.mouseover" end="arrowLeft.mouseout"/>
                  </use>
                  <path fill="none" stroke="white" stroke-width="1.5" d="M0,-3.0v7 M-2.5,-0.5L0,-3.0L2.5,-0.5"/>
                </g>
        </g>
        <svg viewBox="0 0 15 15" width="100%" height="30px" preserveAspectRatio="xMaxYMin meet">
         <g id="arrow_out" transform="scale(0.3 0.3)">
          <a xlink:href="classGigEthReg__coll__graph_org.svg" target="_base">
           <rect id="button" ry="5" rx="5" y="6" x="6" height="38" width="38"
                fill="#f2f5e9" fill-opacity="0.5" stroke="#606060" stroke-width="1.0"/>
           <path id="arrow"
             d="M 11.500037,31.436501 C 11.940474,20.09759 22.043105,11.32322 32.158766,21.979434 L 37.068811,17.246167 C 37.068811,17.246167 37.088388,32 37.088388,32 L 22.160133,31.978069 C 22.160133,31.978069 26.997745,27.140456 26.997745,27.140456 C 18.528582,18.264221 13.291696,25.230495 11.500037,31.436501 z"
             style="fill:#404040;"/>
          </a>
         </g>
        </svg>
</svg>
