<?xml version="1.0" encoding="UTF-8" standalone="no"?>
<!DOCTYPE svg PUBLIC "-//W3C//DTD SVG 1.1//EN"
 "http://www.w3.org/Graphics/SVG/1.1/DTD/svg11.dtd">
<!-- Generated by graphviz version 2.43.0 (0)
 -->
<!-- Title: SyncTrigRate Pages: 1 -->
<svg width="756pt" height="288pt"
 viewBox="0.00 0.00 756.00 288.00" xmlns="http://www.w3.org/2000/svg" xmlns:xlink="http://www.w3.org/1999/xlink">
<g id="graph0" class="graph" transform="scale(1 1) rotate(0) translate(4 284)">
<title>SyncTrigRate</title>
<!-- Node1 -->
<g id="Node000001" class="node">
<title>Node1</title>
<g id="a_Node000001"><a xlink:title=" ">
<polygon fill="#999999" stroke="#666666" points="748,-204 668,-204 668,-185 748,-185 748,-204"/>
<text text-anchor="middle" x="708" y="-192" font-family="Helvetica,sans-Serif" font-size="10.00">SyncTrigRate</text>
</a>
</g>
</g>
<!-- Node2 -->
<g id="Node000002" class="node">
<title>Node2</title>
<g id="a_Node000002"><a xlink:href="classSynchronizerOneShot.html" target="_top" xlink:title=" ">
<polygon fill="white" stroke="#bfbfbf" points="517,-242 396,-242 396,-223 517,-223 517,-242"/>
<text text-anchor="middle" x="456.5" y="-230" font-family="Helvetica,sans-Serif" font-size="10.00">SynchronizerOneShot</text>
</a>
</g>
</g>
<!-- Node2&#45;&gt;Node1 -->
<g id="edge1_Node000001_Node000002" class="edge">
<title>Node2&#45;&gt;Node1</title>
<g id="a_edge1_Node000001_Node000002"><a xlink:title=" ">
<path fill="none" stroke="#63b8ff" d="M527.33,-227.15C559.37,-224.11 597.77,-219.67 632,-213.5 645.75,-211.02 660.7,-207.42 673.62,-204.02"/>
<polygon fill="#63b8ff" stroke="#63b8ff" points="526.8,-223.68 517.16,-228.08 527.44,-230.65 526.8,-223.68"/>
</a>
</g>
</g>
<!-- Node13 -->
<g id="Node000013" class="node">
<title>Node13</title>
<g id="a_Node000013"><a xlink:href="classSyncMinMax.html" target="_top" xlink:title=" ">
<polygon fill="white" stroke="#bfbfbf" points="632,-204 553,-204 553,-185 632,-185 632,-204"/>
<text text-anchor="middle" x="592.5" y="-192" font-family="Helvetica,sans-Serif" font-size="10.00">SyncMinMax</text>
</a>
</g>
</g>
<!-- Node2&#45;&gt;Node13 -->
<g id="edge16_Node000013_Node000002" class="edge">
<title>Node2&#45;&gt;Node13</title>
<g id="a_edge16_Node000013_Node000002"><a xlink:title=" ">
<path fill="none" stroke="#63b8ff" d="M500.94,-220.18C519.35,-214.96 540.48,-208.97 557.7,-204.09"/>
<polygon fill="#63b8ff" stroke="#63b8ff" points="499.98,-216.82 491.31,-222.91 501.89,-223.55 499.98,-216.82"/>
</a>
</g>
</g>
<!-- Node3 -->
<g id="Node000003" class="node">
<title>Node3</title>
<g id="a_Node000003"><a xlink:href="classRstSync.html" target="_top" xlink:title=" ">
<polygon fill="white" stroke="#bfbfbf" points="201.5,-243 145.5,-243 145.5,-224 201.5,-224 201.5,-243"/>
<text text-anchor="middle" x="173.5" y="-231" font-family="Helvetica,sans-Serif" font-size="10.00">RstSync</text>
</a>
</g>
</g>
<!-- Node3&#45;&gt;Node2 -->
<g id="edge2_Node000002_Node000003" class="edge">
<title>Node3&#45;&gt;Node2</title>
<g id="a_edge2_Node000002_Node000003"><a xlink:title=" ">
<path fill="none" stroke="#63b8ff" d="M211.74,-233.37C258.71,-233.2 340.04,-232.91 395.74,-232.71"/>
<polygon fill="#63b8ff" stroke="#63b8ff" points="211.69,-229.87 201.7,-233.4 211.71,-236.87 211.69,-229.87"/>
</a>
</g>
</g>
<!-- Node7 -->
<g id="Node000007" class="node">
<title>Node7</title>
<g id="a_Node000007"><a xlink:href="classFifoAsync.html" target="_top" xlink:title=" ">
<polygon fill="white" stroke="#bfbfbf" points="345.5,-149 281.5,-149 281.5,-130 345.5,-130 345.5,-149"/>
<text text-anchor="middle" x="313.5" y="-137" font-family="Helvetica,sans-Serif" font-size="10.00">FifoAsync</text>
</a>
</g>
</g>
<!-- Node3&#45;&gt;Node7 -->
<g id="edge8_Node000007_Node000003" class="edge">
<title>Node3&#45;&gt;Node7</title>
<g id="a_edge8_Node000007_Node000003"><a xlink:title=" ">
<path fill="none" stroke="#63b8ff" d="M211.48,-224.83C218.27,-222.39 225.07,-219.33 231,-215.5 251.09,-202.53 249.56,-191.87 267,-175.5 277.28,-165.85 289.93,-155.99 299.27,-149.03"/>
<polygon fill="#63b8ff" stroke="#63b8ff" points="210.12,-221.6 201.66,-227.98 212.25,-228.26 210.12,-221.6"/>
</a>
</g>
</g>
<!-- Node4 -->
<g id="Node000004" class="node">
<title>Node4</title>
<g id="a_Node000004"><a xlink:href="classSynchronizer.html" target="_top" xlink:title=" ">
<polygon fill="white" stroke="#bfbfbf" points="80,-243 0,-243 0,-224 80,-224 80,-243"/>
<text text-anchor="middle" x="40" y="-231" font-family="Helvetica,sans-Serif" font-size="10.00">Synchronizer</text>
</a>
</g>
</g>
<!-- Node4&#45;&gt;Node3 -->
<g id="edge3_Node000003_Node000004" class="edge">
<title>Node4&#45;&gt;Node3</title>
<g id="a_edge3_Node000003_Node000004"><a xlink:title=" ">
<path fill="none" stroke="#63b8ff" d="M90.24,-233.5C108.93,-233.5 129.52,-233.5 145.43,-233.5"/>
<polygon fill="#63b8ff" stroke="#63b8ff" points="90.1,-230 80.1,-233.5 90.1,-237 90.1,-230"/>
</a>
</g>
</g>
<!-- Node5 -->
<g id="Node000005" class="node">
<title>Node5</title>
<g id="a_Node000005"><a xlink:href="classSynchronizerEdge.html" target="_top" xlink:title=" ">
<polygon fill="white" stroke="#bfbfbf" points="225.5,-280 121.5,-280 121.5,-261 225.5,-261 225.5,-280"/>
<text text-anchor="middle" x="173.5" y="-268" font-family="Helvetica,sans-Serif" font-size="10.00">SynchronizerEdge</text>
</a>
</g>
</g>
<!-- Node4&#45;&gt;Node5 -->
<g id="edge5_Node000005_Node000004" class="edge">
<title>Node4&#45;&gt;Node5</title>
<g id="a_edge5_Node000005_Node000004"><a xlink:title=" ">
<path fill="none" stroke="#63b8ff" d="M84.81,-245.83C102.22,-250.73 121.96,-256.28 138.29,-260.88"/>
<polygon fill="#63b8ff" stroke="#63b8ff" points="85.44,-242.37 74.86,-243.03 83.54,-249.11 85.44,-242.37"/>
</a>
</g>
</g>
<!-- Node4&#45;&gt;Node7 -->
<g id="edge10_Node000007_Node000004" class="edge">
<title>Node4&#45;&gt;Node7</title>
<g id="a_edge10_Node000007_Node000004"><a xlink:title=" ">
<path fill="none" stroke="#63b8ff" d="M45.56,-214.3C53.82,-184.37 74.4,-127.53 116,-103.5 175.92,-68.89 261.78,-110.09 296.77,-129.96"/>
<polygon fill="#63b8ff" stroke="#63b8ff" points="42.17,-213.44 43.06,-224 48.95,-215.19 42.17,-213.44"/>
</a>
</g>
</g>
<!-- Node5&#45;&gt;Node2 -->
<g id="edge4_Node000002_Node000005" class="edge">
<title>Node5&#45;&gt;Node2</title>
<g id="a_edge4_Node000002_Node000005"><a xlink:title=" ">
<path fill="none" stroke="#63b8ff" d="M236.09,-262.8C272.21,-258.21 318.72,-252.2 360,-246.5 371.62,-244.9 384.03,-243.12 395.92,-241.39"/>
<polygon fill="#63b8ff" stroke="#63b8ff" points="235.19,-259.38 225.71,-264.11 236.07,-266.33 235.19,-259.38"/>
</a>
</g>
</g>
<!-- Node6 -->
<g id="Node000006" class="node">
<title>Node6</title>
<g id="a_Node000006"><a xlink:href="classSynchronizerFifo.html" target="_top" xlink:title=" ">
<polygon fill="white" stroke="#bfbfbf" points="505.5,-166 407.5,-166 407.5,-147 505.5,-147 505.5,-166"/>
<text text-anchor="middle" x="456.5" y="-154" font-family="Helvetica,sans-Serif" font-size="10.00">SynchronizerFifo</text>
</a>
</g>
</g>
<!-- Node6&#45;&gt;Node1 -->
<g id="edge6_Node000001_Node000006" class="edge">
<title>Node6&#45;&gt;Node1</title>
<g id="a_edge6_Node000001_Node000006"><a xlink:title=" ">
<path fill="none" stroke="#63b8ff" d="M515.77,-160.8C549.83,-163.82 593.54,-168.57 632,-175.5 645.75,-177.98 660.7,-181.58 673.62,-184.98"/>
<polygon fill="#63b8ff" stroke="#63b8ff" points="515.79,-157.28 505.53,-159.91 515.19,-164.26 515.79,-157.28"/>
</a>
</g>
</g>
<!-- Node6&#45;&gt;Node13 -->
<g id="edge19_Node000013_Node000006" class="edge">
<title>Node6&#45;&gt;Node13</title>
<g id="a_edge19_Node000013_Node000006"><a xlink:title=" ">
<path fill="none" stroke="#63b8ff" d="M500.94,-168.82C519.35,-174.04 540.48,-180.03 557.7,-184.91"/>
<polygon fill="#63b8ff" stroke="#63b8ff" points="501.89,-165.45 491.31,-166.09 499.98,-172.18 501.89,-165.45"/>
</a>
</g>
</g>
<!-- Node7&#45;&gt;Node6 -->
<g id="edge7_Node000006_Node000007" class="edge">
<title>Node7&#45;&gt;Node6</title>
<g id="a_edge7_Node000006_Node000007"><a xlink:title=" ">
<path fill="none" stroke="#63b8ff" d="M355.99,-144.5C372.11,-146.45 390.69,-148.69 407.39,-150.7"/>
<polygon fill="#63b8ff" stroke="#63b8ff" points="356.14,-141 345.79,-143.27 355.3,-147.94 356.14,-141"/>
</a>
</g>
</g>
<!-- Node8 -->
<g id="Node000008" class="node">
<title>Node8</title>
<g id="a_Node000008"><a xlink:href="classSynchronizerVector.html" target="_top" xlink:title=" ">
<polygon fill="white" stroke="#bfbfbf" points="228.5,-56 118.5,-56 118.5,-37 228.5,-37 228.5,-56"/>
<text text-anchor="middle" x="173.5" y="-44" font-family="Helvetica,sans-Serif" font-size="10.00">SynchronizerVector</text>
</a>
</g>
</g>
<!-- Node8&#45;&gt;Node7 -->
<g id="edge9_Node000007_Node000008" class="edge">
<title>Node8&#45;&gt;Node7</title>
<g id="a_edge9_Node000007_Node000008"><a xlink:title=" ">
<path fill="none" stroke="#63b8ff" d="M210.75,-59.98C217.66,-63.08 224.7,-66.62 231,-70.5 259.73,-88.2 288.8,-115.61 303.21,-129.97"/>
<polygon fill="#63b8ff" stroke="#63b8ff" points="212.05,-56.73 201.48,-56.03 209.31,-63.17 212.05,-56.73"/>
</a>
</g>
</g>
<!-- Node9 -->
<g id="Node000009" class="node">
<title>Node9</title>
<g id="a_Node000009"><a xlink:href="classFifoWrFsm.html" target="_top" xlink:title=" ">
<polygon fill="white" stroke="#bfbfbf" points="208,-19 139,-19 139,0 208,0 208,-19"/>
<text text-anchor="middle" x="173.5" y="-7" font-family="Helvetica,sans-Serif" font-size="10.00">FifoWrFsm</text>
</a>
</g>
</g>
<!-- Node9&#45;&gt;Node7 -->
<g id="edge11_Node000007_Node000009" class="edge">
<title>Node9&#45;&gt;Node7</title>
<g id="a_edge11_Node000007_Node000009"><a xlink:title=" ">
<path fill="none" stroke="#63b8ff" d="M217.82,-20.1C222.48,-22.16 226.99,-24.6 231,-27.5 270,-55.64 297.81,-108.17 308.11,-129.81"/>
<polygon fill="#63b8ff" stroke="#63b8ff" points="218.72,-16.7 208.13,-16.39 216.22,-23.23 218.72,-16.7"/>
</a>
</g>
</g>
<!-- Node10 -->
<g id="Node000010" class="node">
<title>Node10</title>
<g id="a_Node000010"><a xlink:href="classFifoRdFsm.html" target="_top" xlink:title=" ">
<polygon fill="white" stroke="#bfbfbf" points="207.5,-169 139.5,-169 139.5,-150 207.5,-150 207.5,-169"/>
<text text-anchor="middle" x="173.5" y="-157" font-family="Helvetica,sans-Serif" font-size="10.00">FifoRdFsm</text>
</a>
</g>
</g>
<!-- Node10&#45;&gt;Node7 -->
<g id="edge12_Node000007_Node000010" class="edge">
<title>Node10&#45;&gt;Node7</title>
<g id="a_edge12_Node000007_Node000010"><a xlink:title=" ">
<path fill="none" stroke="#63b8ff" d="M217.63,-153.25C238.2,-150.27 262.35,-146.77 281.14,-144.05"/>
<polygon fill="#63b8ff" stroke="#63b8ff" points="216.95,-149.81 207.55,-154.71 217.95,-156.74 216.95,-149.81"/>
</a>
</g>
</g>
<!-- Node11 -->
<g id="Node000011" class="node">
<title>Node11</title>
<g id="a_Node000011"><a xlink:href="classSimpleDualPortRam.html" target="_top" xlink:title=" ">
<polygon fill="white" stroke="#bfbfbf" points="231,-132 116,-132 116,-113 231,-113 231,-132"/>
<text text-anchor="middle" x="173.5" y="-120" font-family="Helvetica,sans-Serif" font-size="10.00">SimpleDualPortRam</text>
</a>
</g>
</g>
<!-- Node11&#45;&gt;Node7 -->
<g id="edge13_Node000007_Node000011" class="edge">
<title>Node11&#45;&gt;Node7</title>
<g id="a_edge13_Node000007_Node000011"><a xlink:title=" ">
<path fill="none" stroke="#63b8ff" d="M241.15,-130.71C255.12,-132.43 269.22,-134.17 281.16,-135.64"/>
<polygon fill="#63b8ff" stroke="#63b8ff" points="241.38,-127.21 231.03,-129.46 240.53,-134.16 241.38,-127.21"/>
</a>
</g>
</g>
<!-- Node12 -->
<g id="Node000012" class="node">
<title>Node12</title>
<g id="a_Node000012"><a xlink:href="classFifoOutputPipeline.html" target="_top" xlink:title=" ">
<polygon fill="white" stroke="#bfbfbf" points="227,-206 120,-206 120,-187 227,-187 227,-206"/>
<text text-anchor="middle" x="173.5" y="-194" font-family="Helvetica,sans-Serif" font-size="10.00">FifoOutputPipeline</text>
</a>
</g>
</g>
<!-- Node12&#45;&gt;Node7 -->
<g id="edge14_Node000007_Node000012" class="edge">
<title>Node12&#45;&gt;Node7</title>
<g id="a_edge14_Node000007_Node000012"><a xlink:title=" ">
<path fill="none" stroke="#63b8ff" d="M214.71,-183.59C220.22,-181.65 225.77,-179.59 231,-177.5 252.89,-168.75 277.31,-157.1 293.66,-149.02"/>
<polygon fill="#63b8ff" stroke="#63b8ff" points="213.25,-180.4 204.93,-186.96 215.52,-187.02 213.25,-180.4"/>
</a>
</g>
</g>
<!-- Node14 -->
<g id="Node000014" class="node">
<title>Node14</title>
<g id="a_Node000014"><a xlink:href="classDspComparator.html" target="_top" xlink:title=" ">
<polygon fill="white" stroke="#bfbfbf" points="360,-204 267,-204 267,-185 360,-185 360,-204"/>
<text text-anchor="middle" x="313.5" y="-192" font-family="Helvetica,sans-Serif" font-size="10.00">DspComparator</text>
</a>
</g>
</g>
<!-- Node12&#45;&gt;Node14 -->
<g id="edge18_Node000014_Node000012" class="edge">
<title>Node12&#45;&gt;Node14</title>
<g id="a_edge18_Node000014_Node000012"><a xlink:title=" ">
<path fill="none" stroke="#63b8ff" d="M237.33,-195.59C247.27,-195.45 257.39,-195.3 266.84,-195.16"/>
<polygon fill="#63b8ff" stroke="#63b8ff" points="237.01,-192.09 227.07,-195.74 237.12,-199.09 237.01,-192.09"/>
</a>
</g>
</g>
<!-- Node13&#45;&gt;Node1 -->
<g id="edge15_Node000001_Node000013" class="edge">
<title>Node13&#45;&gt;Node1</title>
<g id="a_edge15_Node000001_Node000013"><a xlink:title=" ">
<path fill="none" stroke="#63b8ff" d="M642.38,-194.5C650.82,-194.5 659.51,-194.5 667.66,-194.5"/>
<polygon fill="#63b8ff" stroke="#63b8ff" points="642.24,-191 632.24,-194.5 642.24,-198 642.24,-191"/>
</a>
</g>
</g>
<!-- Node14&#45;&gt;Node13 -->
<g id="edge17_Node000013_Node000014" class="edge">
<title>Node14&#45;&gt;Node13</title>
<g id="a_edge17_Node000013_Node000014"><a xlink:title=" ">
<path fill="none" stroke="#63b8ff" d="M370.37,-194.5C424.58,-194.5 505.4,-194.5 552.85,-194.5"/>
<polygon fill="#63b8ff" stroke="#63b8ff" points="370.24,-191 360.24,-194.5 370.24,-198 370.24,-191"/>
</a>
</g>
</g>
</g>
</svg>
