<?xml version="1.0" encoding="UTF-8" standalone="no"?>
<!DOCTYPE svg PUBLIC "-//W3C//DTD SVG 1.1//EN"
 "http://www.w3.org/Graphics/SVG/1.1/DTD/svg11.dtd">
<!-- Generated by graphviz version 2.43.0 (0)
 -->
<!-- Title: Pgp3Gtx7 Pages: 1 -->
<!--zoomable 636 -->
<svg id="main" version="1.1" xmlns="http://www.w3.org/2000/svg" xmlns:xlink="http://www.w3.org/1999/xlink" xml:space="preserve" onload="init(evt)">
<style type="text/css"><![CDATA[
.edge:hover path { stroke: red; }
.edge:hover polygon { stroke: red; fill: red; }
]]></style>
<script type="text/javascript"><![CDATA[
var edges = document.getElementsByTagName('g');
if (edges && edges.length) {
  for (var i=0;i<edges.length;i++) {
    if (edges[i].id.substr(0,4)=='edge') {
      edges[i].setAttribute('class','edge');
    }
  }
}
]]></script>
        <defs>
                <circle id="rim" cx="0" cy="0" r="7"/>
                <circle id="rim2" cx="0" cy="0" r="3.5"/>
                <g id="zoomPlus">
                        <use xlink:href="#rim" fill="#404040">
                                <set attributeName="fill" to="#808080" begin="zoomplus.mouseover" end="zoomplus.mouseout"/>
                        </use>
                        <path d="M-4,0h8M0,-4v8" fill="none" stroke="white" stroke-width="1.5" pointer-events="none"/>
                </g>
                <g id="zoomMin">
                        <use xlink:href="#rim" fill="#404040">
                                <set attributeName="fill" to="#808080" begin="zoomminus.mouseover" end="zoomminus.mouseout"/>
                        </use>
                        <path d="M-4,0h8" fill="none" stroke="white" stroke-width="1.5" pointer-events="none"/>
                </g>
                <g id="dirArrow">
                        <path fill="none" stroke="white" stroke-width="1.5" d="M0,-3.0v7 M-2.5,-0.5L0,-3.0L2.5,-0.5"/>
                </g>
               <g id="resetDef">
                       <use xlink:href="#rim2" fill="#404040">
                               <set attributeName="fill" to="#808080" begin="reset.mouseover" end="reset.mouseout"/>
                       </use>
               </g>
        </defs>

<script type="text/javascript">
var viewWidth = 1281;
var viewHeight = 636;
var sectionId = 'dynsection-0';
</script>
<script xlink:href="svgpan.js"/>
<svg id="graph" class="graph">
<g id="viewport">
<title>Pgp3Gtx7</title>
<polygon fill="white" stroke="transparent" points="-4,4 -4,-632 1277,-632 1277,4 -4,4"/>
<!-- Node1 -->
<g id="node1" class="node">
<title>Node1</title>
<g id="a_node1"><a xlink:title=" ">
<polygon fill="#bfbfbf" stroke="black" points="1068,-128.5 1068,-147.5 1132,-147.5 1132,-128.5 1068,-128.5"/>
<text text-anchor="middle" x="1100" y="-135.5" font-family="Helvetica,sans-Serif" font-size="10.00">Pgp3Gtx7</text>
</a>
</g>
</g>
<!-- Node52 -->
<g id="node49" class="node">
<title>Node52</title>
<g id="a_node49"><a xlink:href="classPgp3Gtx7Wrapper.html" target="_top" xlink:title=" ">
<polygon fill="white" stroke="black" points="1168,-128.5 1168,-147.5 1273,-147.5 1273,-128.5 1168,-128.5"/>
<text text-anchor="middle" x="1220.5" y="-135.5" font-family="Helvetica,sans-Serif" font-size="10.00">Pgp3Gtx7Wrapper</text>
</a>
</g>
</g>
<!-- Node1&#45;&gt;Node52 -->
<g id="edge68" class="edge">
<title>Node1&#45;&gt;Node52</title>
<path fill="none" stroke="midnightblue" d="M1142.29,-138C1150.58,-138 1159.38,-138 1167.96,-138"/>
<polygon fill="midnightblue" stroke="midnightblue" points="1142.13,-134.5 1132.13,-138 1142.13,-141.5 1142.13,-134.5"/>
</g>
<!-- Node2 -->
<g id="node2" class="node">
<title>Node2</title>
<g id="a_node2"><a xlink:href="classAxiLiteCrossbar.html" target="_top" xlink:title=" ">
<polygon fill="white" stroke="black" points="928.5,-166.5 928.5,-185.5 1021.5,-185.5 1021.5,-166.5 928.5,-166.5"/>
<text text-anchor="middle" x="975" y="-173.5" font-family="Helvetica,sans-Serif" font-size="10.00">AxiLiteCrossbar</text>
</a>
</g>
</g>
<!-- Node2&#45;&gt;Node1 -->
<g id="edge1" class="edge">
<title>Node2&#45;&gt;Node1</title>
<path fill="none" stroke="midnightblue" d="M1017.04,-163.32C1033.66,-158.19 1052.53,-152.36 1067.97,-147.59"/>
<polygon fill="midnightblue" stroke="midnightblue" points="1015.56,-160.12 1007.04,-166.41 1017.63,-166.8 1015.56,-160.12"/>
</g>
<!-- Node3 -->
<g id="node3" class="node">
<title>Node3</title>
<g id="a_node3"><a xlink:href="classPgp3Core.html" target="_top" xlink:title=" ">
<polygon fill="white" stroke="black" points="943.5,-128.5 943.5,-147.5 1006.5,-147.5 1006.5,-128.5 943.5,-128.5"/>
<text text-anchor="middle" x="975" y="-135.5" font-family="Helvetica,sans-Serif" font-size="10.00">Pgp3Core</text>
</a>
</g>
</g>
<!-- Node3&#45;&gt;Node1 -->
<g id="edge2" class="edge">
<title>Node3&#45;&gt;Node1</title>
<path fill="none" stroke="midnightblue" d="M1016.73,-138C1033.37,-138 1052.31,-138 1067.82,-138"/>
<polygon fill="midnightblue" stroke="midnightblue" points="1016.72,-134.5 1006.72,-138 1016.72,-141.5 1016.72,-134.5"/>
</g>
<!-- Node4 -->
<g id="node4" class="node">
<title>Node4</title>
<g id="a_node4"><a xlink:href="classPgp3Tx.html" target="_top" xlink:title=" ">
<polygon fill="white" stroke="black" points="809.5,-437.5 809.5,-456.5 862.5,-456.5 862.5,-437.5 809.5,-437.5"/>
<text text-anchor="middle" x="836" y="-444.5" font-family="Helvetica,sans-Serif" font-size="10.00">Pgp3Tx</text>
</a>
</g>
</g>
<!-- Node4&#45;&gt;Node3 -->
<g id="edge3" class="edge">
<title>Node4&#45;&gt;Node3</title>
<path fill="none" stroke="midnightblue" d="M842.9,-427.81C851.7,-399.03 868.65,-342.96 882,-295 899,-233.94 874.82,-203.4 918,-157 924.64,-149.86 934.07,-145.4 943.3,-142.62"/>
<polygon fill="midnightblue" stroke="midnightblue" points="839.54,-426.84 839.95,-437.43 846.23,-428.89 839.54,-426.84"/>
</g>
<!-- Node5 -->
<g id="node5" class="node">
<title>Node5</title>
<g id="a_node5"><a xlink:href="classSynchronizer.html" target="_top" xlink:title=" ">
<polygon fill="white" stroke="black" points="639,-570.5 639,-589.5 732,-589.5 732,-570.5 639,-570.5"/>
<text text-anchor="middle" x="685.5" y="-577.5" font-family="Helvetica,sans-Serif" font-size="10.00">Synchronizer(3)</text>
</a>
</g>
</g>
<!-- Node5&#45;&gt;Node4 -->
<g id="edge4" class="edge">
<title>Node5&#45;&gt;Node4</title>
<path fill="none" stroke="midnightblue" d="M741.9,-567.86C746.16,-565.91 750.26,-563.63 754,-561 793.9,-532.9 821.08,-478.65 830.91,-456.63"/>
<polygon fill="midnightblue" stroke="midnightblue" points="740.35,-564.71 732.35,-571.66 742.94,-571.21 740.35,-564.71"/>
</g>
<!-- Node6 -->
<g id="node6" class="node">
<title>Node6</title>
<g id="a_node6"><a xlink:href="classSynchronizerVector.html" target="_top" xlink:title=" ">
<polygon fill="white" stroke="black" points="442,-228.5 442,-247.5 552,-247.5 552,-228.5 442,-228.5"/>
<text text-anchor="middle" x="497" y="-235.5" font-family="Helvetica,sans-Serif" font-size="10.00">SynchronizerVector</text>
</a>
</g>
</g>
<!-- Node6&#45;&gt;Node4 -->
<g id="edge5" class="edge">
<title>Node6&#45;&gt;Node4</title>
<path fill="none" stroke="midnightblue" d="M561.82,-245.23C568.86,-248.08 575.47,-251.9 581,-257 620.06,-293.02 578.77,-334.1 617,-371 662.46,-414.88 694.74,-387.06 754,-409 776.14,-417.2 800.55,-429.06 816.72,-437.34"/>
<polygon fill="midnightblue" stroke="midnightblue" points="562.6,-241.8 552.01,-241.91 560.36,-248.43 562.6,-241.8"/>
</g>
<!-- Node39 -->
<g id="node38" class="node">
<title>Node39</title>
<g id="a_node38"><a xlink:href="classSyncStatusVector.html" target="_top" xlink:title=" ">
<polygon fill="white" stroke="black" points="628,-152.5 628,-171.5 743,-171.5 743,-152.5 628,-152.5"/>
<text text-anchor="middle" x="685.5" y="-159.5" font-family="Helvetica,sans-Serif" font-size="10.00">SyncStatusVector(5)</text>
</a>
</g>
</g>
<!-- Node6&#45;&gt;Node39 -->
<g id="edge48" class="edge">
<title>Node6&#45;&gt;Node39</title>
<path fill="none" stroke="midnightblue" d="M562.14,-227.38C568.72,-225.11 575.13,-222.35 581,-219 601.2,-207.47 597.09,-193.03 617,-181 623.36,-177.16 630.52,-174.07 637.74,-171.59"/>
<polygon fill="midnightblue" stroke="midnightblue" points="560.95,-224.08 552.42,-230.37 563.01,-230.77 560.95,-224.08"/>
</g>
<!-- Node7 -->
<g id="node7" class="node">
<title>Node7</title>
<g id="a_node7"><a xlink:href="classSynchronizerOneShot.html" target="_top" xlink:title=" ">
<polygon fill="white" stroke="black" points="625,-456.5 625,-475.5 746,-475.5 746,-456.5 625,-456.5"/>
<text text-anchor="middle" x="685.5" y="-463.5" font-family="Helvetica,sans-Serif" font-size="10.00">SynchronizerOneShot</text>
</a>
</g>
</g>
<!-- Node7&#45;&gt;Node4 -->
<g id="edge6" class="edge">
<title>Node7&#45;&gt;Node4</title>
<path fill="none" stroke="midnightblue" d="M756.17,-457.09C775.08,-454.67 794.38,-452.2 809.15,-450.31"/>
<polygon fill="midnightblue" stroke="midnightblue" points="755.52,-453.64 746.04,-458.38 756.41,-460.58 755.52,-453.64"/>
</g>
<!-- Node8 -->
<g id="node8" class="node">
<title>Node8</title>
<g id="a_node8"><a xlink:href="classRstSync.html" target="_top" xlink:title=" ">
<polygon fill="white" stroke="red" points="298.5,-375.5 298.5,-394.5 354.5,-394.5 354.5,-375.5 298.5,-375.5"/>
<text text-anchor="middle" x="326.5" y="-382.5" font-family="Helvetica,sans-Serif" font-size="10.00">RstSync</text>
</a>
</g>
</g>
<!-- Node8&#45;&gt;Node7 -->
<g id="edge7" class="edge">
<title>Node8&#45;&gt;Node7</title>
<path fill="none" stroke="midnightblue" d="M364.72,-393.44C431.67,-408.64 571.98,-440.47 642.36,-456.44"/>
<polygon fill="midnightblue" stroke="midnightblue" points="365.15,-389.95 354.63,-391.15 363.6,-396.78 365.15,-389.95"/>
</g>
<!-- Node9 -->
<g id="node9" class="node">
<title>Node9</title>
<g id="a_node9"><a xlink:href="classSynchronizer.html" target="_top" xlink:title=" ">
<polygon fill="white" stroke="black" points="0,-313.5 0,-332.5 80,-332.5 80,-313.5 0,-313.5"/>
<text text-anchor="middle" x="40" y="-320.5" font-family="Helvetica,sans-Serif" font-size="10.00">Synchronizer</text>
</a>
</g>
</g>
<!-- Node9&#45;&gt;Node8 -->
<g id="edge8" class="edge">
<title>Node9&#45;&gt;Node8</title>
<path fill="none" stroke="midnightblue" d="M90.3,-333.74C150.51,-346.86 250.25,-368.6 298.16,-379.04"/>
<polygon fill="midnightblue" stroke="midnightblue" points="90.78,-330.27 80.26,-331.56 89.29,-337.1 90.78,-330.27"/>
</g>
<!-- Node10 -->
<g id="node10" class="node">
<title>Node10</title>
<g id="a_node10"><a xlink:href="classSynchronizerEdge.html" target="_top" xlink:title=" ">
<polygon fill="white" stroke="red" points="445,-313.5 445,-332.5 549,-332.5 549,-313.5 445,-313.5"/>
<text text-anchor="middle" x="497" y="-320.5" font-family="Helvetica,sans-Serif" font-size="10.00">SynchronizerEdge</text>
</a>
</g>
</g>
<!-- Node9&#45;&gt;Node10 -->
<g id="edge10" class="edge">
<title>Node9&#45;&gt;Node10</title>
<path fill="none" stroke="midnightblue" d="M90.31,-323C177.16,-323 356.55,-323 444.76,-323"/>
<polygon fill="midnightblue" stroke="midnightblue" points="90.19,-319.5 80.19,-323 90.19,-326.5 90.19,-319.5"/>
</g>
<!-- Node27 -->
<g id="node27" class="node">
<title>Node27</title>
<g id="a_node27"><a xlink:href="classRstSync.html" target="_top" xlink:title=" ">
<polygon fill="white" stroke="black" points="143.5,-20.5 143.5,-39.5 212.5,-39.5 212.5,-20.5 143.5,-20.5"/>
<text text-anchor="middle" x="178" y="-27.5" font-family="Helvetica,sans-Serif" font-size="10.00">RstSync(2)</text>
</a>
</g>
</g>
<!-- Node9&#45;&gt;Node27 -->
<g id="edge29" class="edge">
<title>Node9&#45;&gt;Node27</title>
<path fill="none" stroke="midnightblue" d="M40.38,-303.39C39.92,-253.72 45.75,-121.73 116,-49 123.24,-41.5 133.39,-36.95 143.34,-34.19"/>
<polygon fill="midnightblue" stroke="midnightblue" points="36.88,-303.5 40.58,-313.43 43.88,-303.37 36.88,-303.5"/>
</g>
<!-- Node10&#45;&gt;Node7 -->
<g id="edge9" class="edge">
<title>Node10&#45;&gt;Node7</title>
<path fill="none" stroke="midnightblue" d="M514.63,-340.14C531.42,-357.46 558.08,-385.03 581,-409 597.08,-425.81 597.09,-434.97 617,-447 623.36,-450.84 630.52,-453.93 637.74,-456.41"/>
<polygon fill="midnightblue" stroke="midnightblue" points="516.71,-337.26 507.24,-332.52 511.69,-342.13 516.71,-337.26"/>
</g>
<!-- Node34 -->
<g id="node33" class="node">
<title>Node34</title>
<g id="a_node33"><a xlink:href="classPgp3RxProtocol.html" target="_top" xlink:title=" ">
<polygon fill="white" stroke="black" points="639,-304.5 639,-323.5 732,-323.5 732,-304.5 639,-304.5"/>
<text text-anchor="middle" x="685.5" y="-311.5" font-family="Helvetica,sans-Serif" font-size="10.00">Pgp3RxProtocol</text>
</a>
</g>
</g>
<!-- Node10&#45;&gt;Node34 -->
<g id="edge36" class="edge">
<title>Node10&#45;&gt;Node34</title>
<path fill="none" stroke="midnightblue" d="M559.55,-320.03C585.45,-318.78 615.05,-317.35 638.93,-316.2"/>
<polygon fill="midnightblue" stroke="midnightblue" points="559.28,-316.54 549.46,-320.52 559.61,-323.53 559.28,-316.54"/>
</g>
<!-- Node11 -->
<g id="node11" class="node">
<title>Node11</title>
<g id="a_node11"><a xlink:href="classAxiStreamMux.html" target="_top" xlink:title=" ">
<polygon fill="white" stroke="black" points="641,-418.5 641,-437.5 730,-437.5 730,-418.5 641,-418.5"/>
<text text-anchor="middle" x="685.5" y="-425.5" font-family="Helvetica,sans-Serif" font-size="10.00">AxiStreamMux</text>
</a>
</g>
</g>
<!-- Node11&#45;&gt;Node4 -->
<g id="edge11" class="edge">
<title>Node11&#45;&gt;Node4</title>
<path fill="none" stroke="midnightblue" d="M740.44,-434.9C763.89,-437.9 790.27,-441.28 809.2,-443.7"/>
<polygon fill="midnightblue" stroke="midnightblue" points="740.62,-431.4 730.25,-433.6 739.73,-438.34 740.62,-431.4"/>
</g>
<!-- Node12 -->
<g id="node12" class="node">
<title>Node12</title>
<g id="a_node12"><a xlink:href="classAxiStreamPipeline.html" target="_top" xlink:title=" ">
<polygon fill="white" stroke="black" points="443.5,-266.5 443.5,-285.5 550.5,-285.5 550.5,-266.5 443.5,-266.5"/>
<text text-anchor="middle" x="497" y="-273.5" font-family="Helvetica,sans-Serif" font-size="10.00">AxiStreamPipeline</text>
</a>
</g>
</g>
<!-- Node12&#45;&gt;Node11 -->
<g id="edge12" class="edge">
<title>Node12&#45;&gt;Node11</title>
<path fill="none" stroke="midnightblue" d="M559.36,-289.5C567.32,-293.22 574.83,-297.96 581,-304 614.74,-337.06 583.53,-370.66 617,-404 623.61,-410.58 632.14,-415.37 640.9,-418.85"/>
<polygon fill="midnightblue" stroke="midnightblue" points="560.44,-286.16 549.86,-285.59 557.77,-292.63 560.44,-286.16"/>
</g>
<!-- Node36 -->
<g id="node35" class="node">
<title>Node36</title>
<g id="a_node35"><a xlink:href="classAxiStreamDeMux.html" target="_top" xlink:title=" ">
<polygon fill="white" stroke="black" points="634.5,-266.5 634.5,-285.5 736.5,-285.5 736.5,-266.5 634.5,-266.5"/>
<text text-anchor="middle" x="685.5" y="-273.5" font-family="Helvetica,sans-Serif" font-size="10.00">AxiStreamDeMux</text>
</a>
</g>
</g>
<!-- Node12&#45;&gt;Node36 -->
<g id="edge43" class="edge">
<title>Node12&#45;&gt;Node36</title>
<path fill="none" stroke="midnightblue" d="M560.98,-276C584.88,-276 611.75,-276 634.31,-276"/>
<polygon fill="midnightblue" stroke="midnightblue" points="560.94,-272.5 550.94,-276 560.94,-279.5 560.94,-272.5"/>
</g>
<!-- Node13 -->
<g id="node13" class="node">
<title>Node13</title>
<g id="a_node13"><a xlink:href="classAxiStreamPacketizer2.html" target="_top" xlink:title=" ">
<polygon fill="white" stroke="black" points="624,-532.5 624,-551.5 747,-551.5 747,-532.5 624,-532.5"/>
<text text-anchor="middle" x="685.5" y="-539.5" font-family="Helvetica,sans-Serif" font-size="10.00">AxiStreamPacketizer2</text>
</a>
</g>
</g>
<!-- Node13&#45;&gt;Node4 -->
<g id="edge13" class="edge">
<title>Node13&#45;&gt;Node4</title>
<path fill="none" stroke="midnightblue" d="M741.57,-528.94C745.88,-527.19 750.08,-525.21 754,-523 785.4,-505.27 814.15,-472.89 827.36,-456.72"/>
<polygon fill="midnightblue" stroke="midnightblue" points="740.19,-525.71 732,-532.43 742.6,-532.29 740.19,-525.71"/>
</g>
<!-- Node14 -->
<g id="node14" class="node">
<title>Node14</title>
<g id="a_node14"><a xlink:href="classAxiStreamPipeline.html" target="_top" xlink:title=" ">
<polygon fill="white" stroke="black" points="437,-494.5 437,-513.5 557,-513.5 557,-494.5 437,-494.5"/>
<text text-anchor="middle" x="497" y="-501.5" font-family="Helvetica,sans-Serif" font-size="10.00">AxiStreamPipeline(2)</text>
</a>
</g>
</g>
<!-- Node14&#45;&gt;Node13 -->
<g id="edge14" class="edge">
<title>Node14&#45;&gt;Node13</title>
<path fill="none" stroke="midnightblue" d="M554.98,-515.61C581.5,-521.01 612.67,-527.36 637.78,-532.48"/>
<polygon fill="midnightblue" stroke="midnightblue" points="555.56,-512.16 545.06,-513.59 554.16,-519.02 555.56,-512.16"/>
</g>
<!-- Node35 -->
<g id="node34" class="node">
<title>Node35</title>
<g id="a_node34"><a xlink:href="classAxiStreamDepacketizer2.html" target="_top" xlink:title=" ">
<polygon fill="white" stroke="black" points="617,-494.5 617,-513.5 754,-513.5 754,-494.5 617,-494.5"/>
<text text-anchor="middle" x="685.5" y="-501.5" font-family="Helvetica,sans-Serif" font-size="10.00">AxiStreamDepacketizer2</text>
</a>
</g>
</g>
<!-- Node14&#45;&gt;Node35 -->
<g id="edge38" class="edge">
<title>Node14&#45;&gt;Node35</title>
<path fill="none" stroke="midnightblue" d="M567.44,-504C583.57,-504 600.72,-504 616.77,-504"/>
<polygon fill="midnightblue" stroke="midnightblue" points="567.01,-500.5 557.01,-504 567.01,-507.5 567.01,-500.5"/>
</g>
<!-- Node15 -->
<g id="node15" class="node">
<title>Node15</title>
<g id="a_node15"><a xlink:href="classDualPortRam.html" target="_top" xlink:title=" ">
<polygon fill="white" stroke="black" points="456.5,-570.5 456.5,-589.5 537.5,-589.5 537.5,-570.5 456.5,-570.5"/>
<text text-anchor="middle" x="497" y="-577.5" font-family="Helvetica,sans-Serif" font-size="10.00">DualPortRam</text>
</a>
</g>
</g>
<!-- Node15&#45;&gt;Node13 -->
<g id="edge15" class="edge">
<title>Node15&#45;&gt;Node13</title>
<path fill="none" stroke="midnightblue" d="M547.52,-569.91C575.5,-564.21 610.25,-557.13 637.75,-551.52"/>
<polygon fill="midnightblue" stroke="midnightblue" points="546.65,-566.52 537.55,-571.94 548.05,-573.37 546.65,-566.52"/>
</g>
<!-- Node15&#45;&gt;Node35 -->
<g id="edge39" class="edge">
<title>Node15&#45;&gt;Node35</title>
<path fill="none" stroke="midnightblue" d="M547.67,-573.6C559.1,-570.8 570.87,-566.78 581,-561 601.2,-549.47 597.09,-535.03 617,-523 623.36,-519.16 630.52,-516.07 637.74,-513.59"/>
<polygon fill="midnightblue" stroke="midnightblue" points="546.78,-570.21 537.75,-575.76 548.27,-577.05 546.78,-570.21"/>
</g>
<!-- Node16 -->
<g id="node16" class="node">
<title>Node16</title>
<g id="a_node16"><a xlink:href="classTrueDualPortRam.html" target="_top" xlink:title=" ">
<polygon fill="white" stroke="black" points="276,-589.5 276,-608.5 377,-608.5 377,-589.5 276,-589.5"/>
<text text-anchor="middle" x="326.5" y="-596.5" font-family="Helvetica,sans-Serif" font-size="10.00">TrueDualPortRam</text>
</a>
</g>
</g>
<!-- Node16&#45;&gt;Node15 -->
<g id="edge16" class="edge">
<title>Node16&#45;&gt;Node15</title>
<path fill="none" stroke="midnightblue" d="M387.13,-592.28C410.07,-589.69 435.69,-586.8 456.31,-584.48"/>
<polygon fill="midnightblue" stroke="midnightblue" points="386.69,-588.8 377.14,-593.4 387.47,-595.76 386.69,-588.8"/>
</g>
<!-- Node17 -->
<g id="node17" class="node">
<title>Node17</title>
<g id="a_node17"><a xlink:href="classLutRam.html" target="_top" xlink:title=" ">
<polygon fill="white" stroke="black" points="299.5,-551.5 299.5,-570.5 353.5,-570.5 353.5,-551.5 299.5,-551.5"/>
<text text-anchor="middle" x="326.5" y="-558.5" font-family="Helvetica,sans-Serif" font-size="10.00">LutRam</text>
</a>
</g>
</g>
<!-- Node17&#45;&gt;Node15 -->
<g id="edge17" class="edge">
<title>Node17&#45;&gt;Node15</title>
<path fill="none" stroke="midnightblue" d="M364.1,-565.13C391.34,-568.2 428.46,-572.38 456.39,-575.53"/>
<polygon fill="midnightblue" stroke="midnightblue" points="364.16,-561.61 353.83,-563.97 363.37,-568.57 364.16,-561.61"/>
</g>
<!-- Node18 -->
<g id="node18" class="node">
<title>Node18</title>
<g id="a_node18"><a xlink:href="classCrc32Parallel.html" target="_top" xlink:title=" ">
<polygon fill="white" stroke="black" points="457,-456.5 457,-475.5 537,-475.5 537,-456.5 457,-456.5"/>
<text text-anchor="middle" x="497" y="-463.5" font-family="Helvetica,sans-Serif" font-size="10.00">Crc32Parallel</text>
</a>
</g>
</g>
<!-- Node18&#45;&gt;Node13 -->
<g id="edge18" class="edge">
<title>Node18&#45;&gt;Node13</title>
<path fill="none" stroke="midnightblue" d="M547.33,-472.32C558.87,-475.12 570.77,-479.16 581,-485 601.2,-496.53 597.09,-510.97 617,-523 623.36,-526.84 630.52,-529.93 637.74,-532.41"/>
<polygon fill="midnightblue" stroke="midnightblue" points="547.85,-468.85 537.33,-470.16 546.37,-475.69 547.85,-468.85"/>
</g>
<!-- Node18&#45;&gt;Node35 -->
<g id="edge40" class="edge">
<title>Node18&#45;&gt;Node35</title>
<path fill="none" stroke="midnightblue" d="M547.1,-476C575.18,-481.73 610.21,-488.86 637.87,-494.5"/>
<polygon fill="midnightblue" stroke="midnightblue" points="547.59,-472.53 537.1,-473.97 546.2,-479.39 547.59,-472.53"/>
</g>
<!-- Node19 -->
<g id="node19" class="node">
<title>Node19</title>
<g id="a_node19"><a xlink:href="classCrc32.html" target="_top" xlink:title=" ">
<polygon fill="white" stroke="black" points="475,-532.5 475,-551.5 519,-551.5 519,-532.5 475,-532.5"/>
<text text-anchor="middle" x="497" y="-539.5" font-family="Helvetica,sans-Serif" font-size="10.00">Crc32</text>
</a>
</g>
</g>
<!-- Node19&#45;&gt;Node13 -->
<g id="edge19" class="edge">
<title>Node19&#45;&gt;Node13</title>
<path fill="none" stroke="midnightblue" d="M529.3,-542C555.02,-542 592.22,-542 623.75,-542"/>
<polygon fill="midnightblue" stroke="midnightblue" points="529.03,-538.5 519.03,-542 529.03,-545.5 529.03,-538.5"/>
</g>
<!-- Node19&#45;&gt;Node35 -->
<g id="edge41" class="edge">
<title>Node19&#45;&gt;Node35</title>
<path fill="none" stroke="midnightblue" d="M529.2,-535.64C558.8,-529.61 603.67,-520.47 637.58,-513.56"/>
<polygon fill="midnightblue" stroke="midnightblue" points="528.13,-532.29 519.03,-537.71 529.53,-539.15 528.13,-532.29"/>
</g>
<!-- Node20 -->
<g id="node20" class="node">
<title>Node20</title>
<g id="a_node20"><a xlink:href="classPgp3TxProtocol.html" target="_top" xlink:title=" ">
<polygon fill="white" stroke="black" points="639.5,-608.5 639.5,-627.5 731.5,-627.5 731.5,-608.5 639.5,-608.5"/>
<text text-anchor="middle" x="685.5" y="-615.5" font-family="Helvetica,sans-Serif" font-size="10.00">Pgp3TxProtocol</text>
</a>
</g>
</g>
<!-- Node20&#45;&gt;Node4 -->
<g id="edge20" class="edge">
<title>Node20&#45;&gt;Node4</title>
<path fill="none" stroke="midnightblue" d="M741.34,-606.83C745.87,-604.66 750.17,-602.08 754,-599 802.68,-559.81 825.86,-483.3 832.73,-456.53"/>
<polygon fill="midnightblue" stroke="midnightblue" points="739.75,-603.7 731.81,-610.71 742.39,-610.18 739.75,-603.7"/>
</g>
<!-- Node21 -->
<g id="node21" class="node">
<title>Node21</title>
<g id="a_node21"><a xlink:href="classScrambler.html" target="_top" xlink:title=" ">
<polygon fill="white" stroke="black" points="652.5,-342.5 652.5,-361.5 718.5,-361.5 718.5,-342.5 652.5,-342.5"/>
<text text-anchor="middle" x="685.5" y="-349.5" font-family="Helvetica,sans-Serif" font-size="10.00">Scrambler</text>
</a>
</g>
</g>
<!-- Node21&#45;&gt;Node4 -->
<g id="edge21" class="edge">
<title>Node21&#45;&gt;Node4</title>
<path fill="none" stroke="midnightblue" d="M727.98,-363.96C736.85,-367.27 745.96,-371.28 754,-376 783.68,-393.41 812.54,-422.47 826.42,-437.44"/>
<polygon fill="midnightblue" stroke="midnightblue" points="729.11,-360.65 718.51,-360.64 726.79,-367.25 729.11,-360.65"/>
</g>
<!-- Node22 -->
<g id="node22" class="node">
<title>Node22</title>
<g id="a_node22"><a xlink:href="classPgp3Rx.html" target="_top" xlink:title=" ">
<polygon fill="white" stroke="black" points="809.5,-266.5 809.5,-285.5 862.5,-285.5 862.5,-266.5 809.5,-266.5"/>
<text text-anchor="middle" x="836" y="-273.5" font-family="Helvetica,sans-Serif" font-size="10.00">Pgp3Rx</text>
</a>
</g>
</g>
<!-- Node21&#45;&gt;Node22 -->
<g id="edge24" class="edge">
<title>Node21&#45;&gt;Node22</title>
<path fill="none" stroke="midnightblue" d="M728.22,-342.64C736.94,-340.03 745.93,-336.84 754,-333 781.18,-320.08 809.05,-298.19 823.97,-285.63"/>
<polygon fill="midnightblue" stroke="midnightblue" points="727.25,-339.28 718.56,-345.34 729.13,-346.02 727.25,-339.28"/>
</g>
<!-- Node22&#45;&gt;Node3 -->
<g id="edge22" class="edge">
<title>Node22&#45;&gt;Node3</title>
<path fill="none" stroke="midnightblue" d="M845.05,-257.23C857.17,-231.11 882.52,-183.98 918,-157 925.44,-151.35 934.66,-147.31 943.47,-144.46"/>
<polygon fill="midnightblue" stroke="midnightblue" points="841.82,-255.87 840.93,-266.43 848.21,-258.73 841.82,-255.87"/>
</g>
<!-- Node23 -->
<g id="node23" class="node">
<title>Node23</title>
<g id="a_node23"><a xlink:href="classPgp3RxGearboxAligner.html" target="_top" xlink:title=" ">
<polygon fill="white" stroke="black" points="621,-190.5 621,-209.5 750,-209.5 750,-190.5 621,-190.5"/>
<text text-anchor="middle" x="685.5" y="-197.5" font-family="Helvetica,sans-Serif" font-size="10.00">Pgp3RxGearboxAligner</text>
</a>
</g>
</g>
<!-- Node23&#45;&gt;Node22 -->
<g id="edge23" class="edge">
<title>Node23&#45;&gt;Node22</title>
<path fill="none" stroke="midnightblue" d="M738.39,-212.65C743.76,-214.54 749.05,-216.65 754,-219 781.18,-231.92 809.05,-253.81 823.97,-266.37"/>
<polygon fill="midnightblue" stroke="midnightblue" points="739.31,-209.27 728.72,-209.5 737.14,-215.93 739.31,-209.27"/>
</g>
<!-- Node24 -->
<g id="node24" class="node">
<title>Node24</title>
<g id="a_node24"><a xlink:href="classPgp3RxEb.html" target="_top" xlink:title=" ">
<polygon fill="white" stroke="black" points="653,-228.5 653,-247.5 718,-247.5 718,-228.5 653,-228.5"/>
<text text-anchor="middle" x="685.5" y="-235.5" font-family="Helvetica,sans-Serif" font-size="10.00">Pgp3RxEb</text>
</a>
</g>
</g>
<!-- Node24&#45;&gt;Node22 -->
<g id="edge25" class="edge">
<title>Node24&#45;&gt;Node22</title>
<path fill="none" stroke="midnightblue" d="M728.31,-248.7C754.28,-255.35 786.85,-263.68 809.12,-269.38"/>
<polygon fill="midnightblue" stroke="midnightblue" points="728.91,-245.24 718.36,-246.15 727.18,-252.02 728.91,-245.24"/>
</g>
<!-- Node25 -->
<g id="node25" class="node">
<title>Node25</title>
<g id="a_node25"><a xlink:href="classSynchronizerFifo.html" target="_top" xlink:title=" ">
<polygon fill="white" stroke="red" points="448,-190.5 448,-209.5 546,-209.5 546,-190.5 448,-190.5"/>
<text text-anchor="middle" x="497" y="-197.5" font-family="Helvetica,sans-Serif" font-size="10.00">SynchronizerFifo</text>
</a>
</g>
</g>
<!-- Node25&#45;&gt;Node24 -->
<g id="edge26" class="edge">
<title>Node25&#45;&gt;Node24</title>
<path fill="none" stroke="midnightblue" d="M555.24,-211.66C587.4,-218.22 626.31,-226.14 652.99,-231.58"/>
<polygon fill="midnightblue" stroke="midnightblue" points="555.56,-208.16 545.06,-209.59 554.16,-215.02 555.56,-208.16"/>
</g>
<!-- Node26 -->
<g id="node26" class="node">
<title>Node26</title>
<g id="a_node26"><a xlink:href="classFifoAsync.html" target="_top" xlink:title=" ">
<polygon fill="white" stroke="red" points="294.5,-124.5 294.5,-143.5 358.5,-143.5 358.5,-124.5 294.5,-124.5"/>
<text text-anchor="middle" x="326.5" y="-131.5" font-family="Helvetica,sans-Serif" font-size="10.00">FifoAsync</text>
</a>
</g>
</g>
<!-- Node26&#45;&gt;Node25 -->
<g id="edge27" class="edge">
<title>Node26&#45;&gt;Node25</title>
<path fill="none" stroke="midnightblue" d="M350.58,-148.99C367.32,-159.28 390.83,-172.56 413,-181 424.05,-185.21 436.3,-188.64 447.92,-191.37"/>
<polygon fill="midnightblue" stroke="midnightblue" points="352.36,-145.98 342.03,-143.63 348.64,-151.91 352.36,-145.98"/>
</g>
<!-- Node38 -->
<g id="node37" class="node">
<title>Node38</title>
<g id="a_node37"><a xlink:href="classSynchronizerFifo.html" target="_top" xlink:title=" ">
<polygon fill="white" stroke="black" points="441.5,-76.5 441.5,-95.5 552.5,-95.5 552.5,-76.5 441.5,-76.5"/>
<text text-anchor="middle" x="497" y="-83.5" font-family="Helvetica,sans-Serif" font-size="10.00">SynchronizerFifo(6)</text>
</a>
</g>
</g>
<!-- Node26&#45;&gt;Node38 -->
<g id="edge46" class="edge">
<title>Node26&#45;&gt;Node38</title>
<path fill="none" stroke="midnightblue" d="M363.05,-121.04C378.32,-115.71 396.42,-109.7 413,-105 425.09,-101.58 438.3,-98.33 450.56,-95.52"/>
<polygon fill="midnightblue" stroke="midnightblue" points="361.74,-117.79 353.48,-124.42 364.07,-124.39 361.74,-117.79"/>
</g>
<!-- Node44 -->
<g id="node41" class="node">
<title>Node44</title>
<g id="a_node41"><a xlink:href="classSynchronizerFifo.html" target="_top" xlink:title=" ">
<polygon fill="white" stroke="black" points="441.5,-114.5 441.5,-133.5 552.5,-133.5 552.5,-114.5 441.5,-114.5"/>
<text text-anchor="middle" x="497" y="-121.5" font-family="Helvetica,sans-Serif" font-size="10.00">SynchronizerFifo(2)</text>
</a>
</g>
</g>
<!-- Node26&#45;&gt;Node44 -->
<g id="edge52" class="edge">
<title>Node26&#45;&gt;Node44</title>
<path fill="none" stroke="midnightblue" d="M369.05,-131.53C390.85,-130.24 417.85,-128.64 441.33,-127.24"/>
<polygon fill="midnightblue" stroke="midnightblue" points="368.57,-128.06 358.8,-132.14 368.99,-135.04 368.57,-128.06"/>
</g>
<!-- Node27&#45;&gt;Node26 -->
<g id="edge28" class="edge">
<title>Node27&#45;&gt;Node26</title>
<path fill="none" stroke="midnightblue" d="M222.11,-38.79C228.54,-41.37 234.76,-44.7 240,-49 265.84,-70.18 250.86,-92.99 276,-115 281.26,-119.61 287.77,-123.15 294.31,-125.86"/>
<polygon fill="midnightblue" stroke="midnightblue" points="223.22,-35.48 212.63,-35.53 220.94,-42.09 223.22,-35.48"/>
</g>
<!-- Node48 -->
<g id="node45" class="node">
<title>Node48</title>
<g id="a_node45"><a xlink:href="classAxiLiteAsync.html" target="_top" xlink:title=" ">
<polygon fill="white" stroke="black" points="457,-38.5 457,-57.5 537,-57.5 537,-38.5 457,-38.5"/>
<text text-anchor="middle" x="497" y="-45.5" font-family="Helvetica,sans-Serif" font-size="10.00">AxiLiteAsync</text>
</a>
</g>
</g>
<!-- Node27&#45;&gt;Node48 -->
<g id="edge57" class="edge">
<title>Node27&#45;&gt;Node48</title>
<path fill="none" stroke="midnightblue" d="M222.87,-32.49C284.93,-36.02 397.41,-42.4 456.81,-45.77"/>
<polygon fill="midnightblue" stroke="midnightblue" points="222.81,-28.98 212.62,-31.91 222.41,-35.97 222.81,-28.98"/>
</g>
<!-- Node49 -->
<g id="node46" class="node">
<title>Node49</title>
<g id="a_node46"><a xlink:href="classFifoAsync.html" target="_top" xlink:title=" ">
<polygon fill="white" stroke="red" points="288,-86.5 288,-105.5 365,-105.5 365,-86.5 288,-86.5"/>
<text text-anchor="middle" x="326.5" y="-93.5" font-family="Helvetica,sans-Serif" font-size="10.00">FifoAsync(5)</text>
</a>
</g>
</g>
<!-- Node27&#45;&gt;Node49 -->
<g id="edge59" class="edge">
<title>Node27&#45;&gt;Node49</title>
<path fill="none" stroke="midnightblue" d="M222.56,-42.39C228.49,-44.42 234.44,-46.64 240,-49 265.56,-59.88 293.46,-76.11 310.21,-86.37"/>
<polygon fill="midnightblue" stroke="midnightblue" points="223.27,-38.94 212.68,-39.17 221.1,-45.59 223.27,-38.94"/>
</g>
<!-- Node28 -->
<g id="node28" class="node">
<title>Node28</title>
<g id="a_node28"><a xlink:href="classSynchronizerVector.html" target="_top" xlink:title=" ">
<polygon fill="white" stroke="black" points="116,-58.5 116,-77.5 240,-77.5 240,-58.5 116,-58.5"/>
<text text-anchor="middle" x="178" y="-65.5" font-family="Helvetica,sans-Serif" font-size="10.00">SynchronizerVector(2)</text>
</a>
</g>
</g>
<!-- Node28&#45;&gt;Node26 -->
<g id="edge30" class="edge">
<title>Node28&#45;&gt;Node26</title>
<path fill="none" stroke="midnightblue" d="M226.72,-81.02C231.3,-82.81 235.8,-84.8 240,-87 257.97,-96.39 258.35,-105.04 276,-115 282.33,-118.57 289.47,-121.75 296.31,-124.44"/>
<polygon fill="midnightblue" stroke="midnightblue" points="227.86,-77.71 217.27,-77.6 225.49,-84.29 227.86,-77.71"/>
</g>
<!-- Node28&#45;&gt;Node49 -->
<g id="edge60" class="edge">
<title>Node28&#45;&gt;Node49</title>
<path fill="none" stroke="midnightblue" d="M239.1,-79.49C255.56,-82.63 272.93,-85.95 287.74,-88.78"/>
<polygon fill="midnightblue" stroke="midnightblue" points="239.49,-76 229.01,-77.56 238.17,-82.87 239.49,-76"/>
</g>
<!-- Node29 -->
<g id="node29" class="node">
<title>Node29</title>
<g id="a_node29"><a xlink:href="classSynchronizer.html" target="_top" xlink:title=" ">
<polygon fill="white" stroke="black" points="131.5,-210.5 131.5,-229.5 224.5,-229.5 224.5,-210.5 131.5,-210.5"/>
<text text-anchor="middle" x="178" y="-217.5" font-family="Helvetica,sans-Serif" font-size="10.00">Synchronizer(2)</text>
</a>
</g>
</g>
<!-- Node29&#45;&gt;Node26 -->
<g id="edge31" class="edge">
<title>Node29&#45;&gt;Node26</title>
<path fill="none" stroke="midnightblue" d="M226.72,-207C231.3,-205.2 235.8,-203.2 240,-201 270.39,-185.05 300.78,-157.91 315.82,-143.56"/>
<polygon fill="midnightblue" stroke="midnightblue" points="225.49,-203.72 217.28,-210.42 227.87,-210.31 225.49,-203.72"/>
</g>
<!-- Node29&#45;&gt;Node49 -->
<g id="edge61" class="edge">
<title>Node29&#45;&gt;Node49</title>
<path fill="none" stroke="midnightblue" d="M233.75,-205.81C235.96,-204.36 238.06,-202.76 240,-201 270.65,-173.12 246.26,-143.86 276,-115 279.96,-111.15 284.79,-108.07 289.85,-105.59"/>
<polygon fill="midnightblue" stroke="midnightblue" points="231.85,-202.86 224.73,-210.71 235.19,-209.02 231.85,-202.86"/>
</g>
<!-- Node30 -->
<g id="node30" class="node">
<title>Node30</title>
<g id="a_node30"><a xlink:href="classFifoWrFsm.html" target="_top" xlink:title=" ">
<polygon fill="white" stroke="black" points="143.5,-172.5 143.5,-191.5 212.5,-191.5 212.5,-172.5 143.5,-172.5"/>
<text text-anchor="middle" x="178" y="-179.5" font-family="Helvetica,sans-Serif" font-size="10.00">FifoWrFsm</text>
</a>
</g>
</g>
<!-- Node30&#45;&gt;Node26 -->
<g id="edge32" class="edge">
<title>Node30&#45;&gt;Node26</title>
<path fill="none" stroke="midnightblue" d="M219.79,-169.45C226.55,-167.33 233.48,-165.12 240,-163 259.38,-156.7 281.12,-149.32 297.83,-143.58"/>
<polygon fill="midnightblue" stroke="midnightblue" points="218.58,-166.16 210.08,-172.48 220.67,-172.84 218.58,-166.16"/>
</g>
<!-- Node30&#45;&gt;Node49 -->
<g id="edge62" class="edge">
<title>Node30&#45;&gt;Node49</title>
<path fill="none" stroke="midnightblue" d="M222.46,-172.19C228.65,-169.76 234.71,-166.74 240,-163 261.79,-147.62 254.72,-131.07 276,-115 280.99,-111.23 286.83,-108.12 292.7,-105.59"/>
<polygon fill="midnightblue" stroke="midnightblue" points="221.02,-168.99 212.71,-175.56 223.31,-175.6 221.02,-168.99"/>
</g>
<!-- Node31 -->
<g id="node31" class="node">
<title>Node31</title>
<g id="a_node31"><a xlink:href="classFifoRdFsm.html" target="_top" xlink:title=" ">
<polygon fill="white" stroke="black" points="144,-134.5 144,-153.5 212,-153.5 212,-134.5 144,-134.5"/>
<text text-anchor="middle" x="178" y="-141.5" font-family="Helvetica,sans-Serif" font-size="10.00">FifoRdFsm</text>
</a>
</g>
</g>
<!-- Node31&#45;&gt;Node26 -->
<g id="edge33" class="edge">
<title>Node31&#45;&gt;Node26</title>
<path fill="none" stroke="midnightblue" d="M222.48,-141.03C245.6,-139.45 273.47,-137.55 294.39,-136.12"/>
<polygon fill="midnightblue" stroke="midnightblue" points="221.98,-137.56 212.24,-141.73 222.46,-144.54 221.98,-137.56"/>
</g>
<!-- Node31&#45;&gt;Node49 -->
<g id="edge63" class="edge">
<title>Node31&#45;&gt;Node49</title>
<path fill="none" stroke="midnightblue" d="M219.79,-131.45C226.55,-129.33 233.48,-127.12 240,-125 259.38,-118.7 281.12,-111.32 297.83,-105.58"/>
<polygon fill="midnightblue" stroke="midnightblue" points="218.58,-128.16 210.08,-134.48 220.67,-134.84 218.58,-128.16"/>
</g>
<!-- Node32 -->
<g id="node32" class="node">
<title>Node32</title>
<g id="a_node32"><a xlink:href="classSimpleDualPortRam.html" target="_top" xlink:title=" ">
<polygon fill="white" stroke="black" points="120.5,-96.5 120.5,-115.5 235.5,-115.5 235.5,-96.5 120.5,-96.5"/>
<text text-anchor="middle" x="178" y="-103.5" font-family="Helvetica,sans-Serif" font-size="10.00">SimpleDualPortRam</text>
</a>
</g>
</g>
<!-- Node32&#45;&gt;Node26 -->
<g id="edge34" class="edge">
<title>Node32&#45;&gt;Node26</title>
<path fill="none" stroke="midnightblue" d="M238.85,-117.44C257.95,-121.09 278.3,-124.98 294.48,-128.07"/>
<polygon fill="midnightblue" stroke="midnightblue" points="239.49,-114 229.01,-115.56 238.17,-120.87 239.49,-114"/>
</g>
<!-- Node32&#45;&gt;Node49 -->
<g id="edge64" class="edge">
<title>Node32&#45;&gt;Node49</title>
<path fill="none" stroke="midnightblue" d="M245.95,-101.43C260.23,-100.46 274.83,-99.46 287.56,-98.59"/>
<polygon fill="midnightblue" stroke="midnightblue" points="245.38,-97.96 235.64,-102.13 245.86,-104.94 245.38,-97.96"/>
</g>
<!-- Node34&#45;&gt;Node22 -->
<g id="edge35" class="edge">
<title>Node34&#45;&gt;Node22</title>
<path fill="none" stroke="midnightblue" d="M733.99,-301.85C758.94,-295.46 788.54,-287.89 809.23,-282.59"/>
<polygon fill="midnightblue" stroke="midnightblue" points="732.79,-298.54 723.97,-304.41 734.53,-305.32 732.79,-298.54"/>
</g>
<!-- Node35&#45;&gt;Node22 -->
<g id="edge37" class="edge">
<title>Node35&#45;&gt;Node22</title>
<path fill="none" stroke="midnightblue" d="M748.51,-489.32C750.44,-488 752.28,-486.56 754,-485 785.68,-456.21 822.73,-322.55 832.52,-285.53"/>
<polygon fill="midnightblue" stroke="midnightblue" points="746.53,-486.42 739.54,-494.38 749.97,-492.51 746.53,-486.42"/>
</g>
<!-- Node36&#45;&gt;Node22 -->
<g id="edge42" class="edge">
<title>Node36&#45;&gt;Node22</title>
<path fill="none" stroke="midnightblue" d="M746.97,-276C768.75,-276 792.17,-276 809.38,-276"/>
<polygon fill="midnightblue" stroke="midnightblue" points="746.78,-272.5 736.78,-276 746.78,-279.5 746.78,-272.5"/>
</g>
<!-- Node37 -->
<g id="node36" class="node">
<title>Node37</title>
<g id="a_node36"><a xlink:href="classPgp3AxiL.html" target="_top" xlink:title=" ">
<polygon fill="white" stroke="black" points="805,-119.5 805,-138.5 867,-138.5 867,-119.5 805,-119.5"/>
<text text-anchor="middle" x="836" y="-126.5" font-family="Helvetica,sans-Serif" font-size="10.00">Pgp3AxiL</text>
</a>
</g>
</g>
<!-- Node37&#45;&gt;Node3 -->
<g id="edge44" class="edge">
<title>Node37&#45;&gt;Node3</title>
<path fill="none" stroke="midnightblue" d="M877.3,-131.65C898.31,-133.03 923.61,-134.69 943.06,-135.97"/>
<polygon fill="midnightblue" stroke="midnightblue" points="877.27,-128.14 867.07,-130.98 876.81,-135.12 877.27,-128.14"/>
</g>
<!-- Node38&#45;&gt;Node37 -->
<g id="edge45" class="edge">
<title>Node38&#45;&gt;Node37</title>
<path fill="none" stroke="midnightblue" d="M562.96,-86.99C615,-88.71 689.68,-93.22 754,-105 772.32,-108.35 792.4,-114.29 807.98,-119.41"/>
<polygon fill="midnightblue" stroke="midnightblue" points="562.97,-83.49 552.86,-86.69 562.75,-90.49 562.97,-83.49"/>
</g>
<!-- Node39&#45;&gt;Node37 -->
<g id="edge47" class="edge">
<title>Node39&#45;&gt;Node37</title>
<path fill="none" stroke="midnightblue" d="M739.33,-150.26C761.32,-145.37 786.05,-139.88 804.86,-135.7"/>
<polygon fill="midnightblue" stroke="midnightblue" points="738.45,-146.87 729.45,-152.46 739.97,-153.7 738.45,-146.87"/>
</g>
<!-- Node40 -->
<g id="node39" class="node">
<title>Node40</title>
<g id="a_node39"><a xlink:href="classSynchronizerOneShotCntVector.html" target="_top" xlink:title=" ">
<polygon fill="white" stroke="red" points="413,-152.5 413,-171.5 581,-171.5 581,-152.5 413,-152.5"/>
<text text-anchor="middle" x="497" y="-159.5" font-family="Helvetica,sans-Serif" font-size="10.00">SynchronizerOneShotCntVector</text>
</a>
</g>
</g>
<!-- Node40&#45;&gt;Node39 -->
<g id="edge49" class="edge">
<title>Node40&#45;&gt;Node39</title>
<path fill="none" stroke="midnightblue" d="M591.21,-162C603.77,-162 616.33,-162 627.98,-162"/>
<polygon fill="midnightblue" stroke="midnightblue" points="591.16,-158.5 581.16,-162 591.16,-165.5 591.16,-158.5"/>
</g>
<!-- Node43 -->
<g id="node40" class="node">
<title>Node43</title>
<g id="a_node40"><a xlink:href="classSyncClockFreq.html" target="_top" xlink:title=" ">
<polygon fill="white" stroke="black" points="635,-114.5 635,-133.5 736,-133.5 736,-114.5 635,-114.5"/>
<text text-anchor="middle" x="685.5" y="-121.5" font-family="Helvetica,sans-Serif" font-size="10.00">SyncClockFreq(2)</text>
</a>
</g>
</g>
<!-- Node43&#45;&gt;Node37 -->
<g id="edge50" class="edge">
<title>Node43&#45;&gt;Node37</title>
<path fill="none" stroke="midnightblue" d="M746.41,-126.02C766.54,-126.7 788.14,-127.42 804.97,-127.99"/>
<polygon fill="midnightblue" stroke="midnightblue" points="746.47,-122.52 736.36,-125.68 746.24,-129.51 746.47,-122.52"/>
</g>
<!-- Node44&#45;&gt;Node43 -->
<g id="edge51" class="edge">
<title>Node44&#45;&gt;Node43</title>
<path fill="none" stroke="midnightblue" d="M562.97,-124C586.57,-124 612.84,-124 634.9,-124"/>
<polygon fill="midnightblue" stroke="midnightblue" points="562.7,-120.5 552.7,-124 562.7,-127.5 562.7,-120.5"/>
</g>
<!-- Node45 -->
<g id="node42" class="node">
<title>Node45</title>
<g id="a_node42"><a xlink:href="classPgp3Gtx7IpWrapper.html" target="_top" xlink:title=" ">
<polygon fill="white" stroke="black" points="918,-71.5 918,-90.5 1032,-90.5 1032,-71.5 918,-71.5"/>
<text text-anchor="middle" x="975" y="-78.5" font-family="Helvetica,sans-Serif" font-size="10.00">Pgp3Gtx7IpWrapper</text>
</a>
</g>
</g>
<!-- Node45&#45;&gt;Node1 -->
<g id="edge53" class="edge">
<title>Node45&#45;&gt;Node1</title>
<path fill="none" stroke="midnightblue" d="M1005.69,-94.76C1028.16,-105.17 1058.45,-119.21 1078.35,-128.43"/>
<polygon fill="midnightblue" stroke="midnightblue" points="1007.13,-91.57 996.59,-90.54 1004.19,-97.92 1007.13,-91.57"/>
</g>
<!-- Node46 -->
<g id="node43" class="node">
<title>Node46</title>
<g id="a_node43"><a xlink:href="classClockManager7.html" target="_top" xlink:title=" ">
<polygon fill="white" stroke="black" points="790,-33.5 790,-52.5 882,-52.5 882,-33.5 790,-33.5"/>
<text text-anchor="middle" x="836" y="-40.5" font-family="Helvetica,sans-Serif" font-size="10.00">ClockManager7</text>
</a>
</g>
</g>
<!-- Node46&#45;&gt;Node45 -->
<g id="edge54" class="edge">
<title>Node46&#45;&gt;Node45</title>
<path fill="none" stroke="midnightblue" d="M881.41,-55.32C900.23,-60.54 921.84,-66.53 939.44,-71.41"/>
<polygon fill="midnightblue" stroke="midnightblue" points="882.14,-51.89 871.57,-52.59 880.27,-58.63 882.14,-51.89"/>
</g>
<!-- Node47 -->
<g id="node44" class="node">
<title>Node47</title>
<g id="a_node44"><a xlink:href="classAxiLiteToDrp.html" target="_top" xlink:title=" ">
<polygon fill="white" stroke="black" points="646.5,-38.5 646.5,-57.5 724.5,-57.5 724.5,-38.5 646.5,-38.5"/>
<text text-anchor="middle" x="685.5" y="-45.5" font-family="Helvetica,sans-Serif" font-size="10.00">AxiLiteToDrp</text>
</a>
</g>
</g>
<!-- Node47&#45;&gt;Node45 -->
<g id="edge67" class="edge">
<title>Node47&#45;&gt;Node45</title>
<path fill="none" stroke="midnightblue" d="M734.74,-54.85C752.14,-57.23 771.94,-59.85 790,-62 832.89,-67.11 881.5,-72.1 917.99,-75.68"/>
<polygon fill="midnightblue" stroke="midnightblue" points="735.19,-51.38 724.8,-53.47 734.23,-58.31 735.19,-51.38"/>
</g>
<!-- Node47&#45;&gt;Node46 -->
<g id="edge55" class="edge">
<title>Node47&#45;&gt;Node46</title>
<path fill="none" stroke="midnightblue" d="M734.84,-46.37C752.5,-45.78 772.39,-45.11 789.76,-44.52"/>
<polygon fill="midnightblue" stroke="midnightblue" points="734.62,-42.88 724.74,-46.71 734.85,-49.87 734.62,-42.88"/>
</g>
<!-- Node48&#45;&gt;Node47 -->
<g id="edge56" class="edge">
<title>Node48&#45;&gt;Node47</title>
<path fill="none" stroke="midnightblue" d="M547.27,-48C578.31,-48 617.78,-48 646.41,-48"/>
<polygon fill="midnightblue" stroke="midnightblue" points="547.1,-44.5 537.1,-48 547.1,-51.5 547.1,-44.5"/>
</g>
<!-- Node49&#45;&gt;Node48 -->
<g id="edge58" class="edge">
<title>Node49&#45;&gt;Node48</title>
<path fill="none" stroke="midnightblue" d="M363.05,-83.04C378.32,-77.71 396.42,-71.7 413,-67 427.22,-62.97 443,-59.19 456.94,-56.08"/>
<polygon fill="midnightblue" stroke="midnightblue" points="361.74,-79.79 353.48,-86.42 364.07,-86.39 361.74,-79.79"/>
</g>
<!-- Node50 -->
<g id="node47" class="node">
<title>Node50</title>
<g id="a_node47"><a xlink:href="classMmcmEmulation.html" target="_top" xlink:title=" ">
<polygon fill="white" stroke="black" points="629,-0.5 629,-19.5 742,-19.5 742,-0.5 629,-0.5"/>
<text text-anchor="middle" x="685.5" y="-7.5" font-family="Helvetica,sans-Serif" font-size="10.00">MmcmEmulation(2)</text>
</a>
</g>
</g>
<!-- Node50&#45;&gt;Node46 -->
<g id="edge65" class="edge">
<title>Node50&#45;&gt;Node46</title>
<path fill="none" stroke="midnightblue" d="M739.41,-21.76C756.7,-25.6 775.68,-29.82 792.14,-33.48"/>
<polygon fill="midnightblue" stroke="midnightblue" points="739.97,-18.3 729.45,-19.54 738.45,-25.13 739.97,-18.3"/>
</g>
<!-- Node51 -->
<g id="node48" class="node">
<title>Node51</title>
<g id="a_node48"><a xlink:href="classClkRst.html" target="_top" xlink:title=" ">
<polygon fill="white" stroke="black" points="473,-0.5 473,-19.5 521,-19.5 521,-0.5 473,-0.5"/>
<text text-anchor="middle" x="497" y="-7.5" font-family="Helvetica,sans-Serif" font-size="10.00">ClkRst</text>
</a>
</g>
</g>
<!-- Node51&#45;&gt;Node50 -->
<g id="edge66" class="edge">
<title>Node51&#45;&gt;Node50</title>
<path fill="none" stroke="midnightblue" d="M531.35,-10C558.39,-10 597.08,-10 628.81,-10"/>
<polygon fill="midnightblue" stroke="midnightblue" points="531.24,-6.5 521.24,-10 531.24,-13.5 531.24,-6.5"/>
</g>
</g>
</svg>
        <g id="navigator" transform="translate(0 0)" fill="#404254">
                <rect fill="#f2f5e9" fill-opacity="0.5" stroke="#606060" stroke-width=".5" x="0" y="0" width="60" height="60"/>
                <use id="zoomplus" xlink:href="#zoomPlus" x="17" y="9" onmousedown="handleZoom(evt,'in')"/>
                <use id="zoomminus" xlink:href="#zoomMin" x="42" y="9" onmousedown="handleZoom(evt,'out')"/>
                <use id="reset" xlink:href="#resetDef" x="30" y="36" onmousedown="handleReset()"/>
                <g id="arrowUp" xlink:href="#dirArrow" transform="translate(30 24)" onmousedown="handlePan(0,-1)">
                  <use xlink:href="#rim" fill="#404040">
                        <set attributeName="fill" to="#808080" begin="arrowUp.mouseover" end="arrowUp.mouseout"/>
                  </use>
                  <path fill="none" stroke="white" stroke-width="1.5" d="M0,-3.0v7 M-2.5,-0.5L0,-3.0L2.5,-0.5"/>
                </g>
                <g id="arrowRight" xlink:href="#dirArrow" transform="rotate(90) translate(36 -43)" onmousedown="handlePan(1,0)">
                  <use xlink:href="#rim" fill="#404040">
                        <set attributeName="fill" to="#808080" begin="arrowRight.mouseover" end="arrowRight.mouseout"/>
                  </use>
                  <path fill="none" stroke="white" stroke-width="1.5" d="M0,-3.0v7 M-2.5,-0.5L0,-3.0L2.5,-0.5"/>
                </g>
                <g id="arrowDown" xlink:href="#dirArrow" transform="rotate(180) translate(-30 -48)" onmousedown="handlePan(0,1)">
                  <use xlink:href="#rim" fill="#404040">
                        <set attributeName="fill" to="#808080" begin="arrowDown.mouseover" end="arrowDown.mouseout"/>
                  </use>
                  <path fill="none" stroke="white" stroke-width="1.5" d="M0,-3.0v7 M-2.5,-0.5L0,-3.0L2.5,-0.5"/>
                </g>
                <g id="arrowLeft" xlink:href="#dirArrow" transform="rotate(270) translate(-36 17)" onmousedown="handlePan(-1,0)">
                  <use xlink:href="#rim" fill="#404040">
                        <set attributeName="fill" to="#808080" begin="arrowLeft.mouseover" end="arrowLeft.mouseout"/>
                  </use>
                  <path fill="none" stroke="white" stroke-width="1.5" d="M0,-3.0v7 M-2.5,-0.5L0,-3.0L2.5,-0.5"/>
                </g>
        </g>
        <svg viewBox="0 0 15 15" width="100%" height="30px" preserveAspectRatio="xMaxYMin meet">
         <g id="arrow_out" transform="scale(0.3 0.3)">
          <a xlink:href="classPgp3Gtx7__inherit__graph_org.svg" target="_base">
           <rect id="button" ry="5" rx="5" y="6" x="6" height="38" width="38"
                fill="#f2f5e9" fill-opacity="0.5" stroke="#606060" stroke-width="1.0"/>
           <path id="arrow"
             d="M 11.500037,31.436501 C 11.940474,20.09759 22.043105,11.32322 32.158766,21.979434 L 37.068811,17.246167 C 37.068811,17.246167 37.088388,32 37.088388,32 L 22.160133,31.978069 C 22.160133,31.978069 26.997745,27.140456 26.997745,27.140456 C 18.528582,18.264221 13.291696,25.230495 11.500037,31.436501 z"
             style="fill:#404040;"/>
          </a>
         </g>
        </svg>
</svg>
