<?xml version="1.0" encoding="UTF-8" standalone="no"?>
<!DOCTYPE svg PUBLIC "-//W3C//DTD SVG 1.1//EN"
 "http://www.w3.org/Graphics/SVG/1.1/DTD/svg11.dtd">
<!-- Generated by graphviz version 2.43.0 (0)
 -->
<!-- Title: FifoWrFsm Pages: 1 -->
<svg width="668pt" height="1510pt"
 viewBox="0.00 0.00 668.00 1510.00" xmlns="http://www.w3.org/2000/svg" xmlns:xlink="http://www.w3.org/1999/xlink">
<g id="graph0" class="graph" transform="scale(1 1) rotate(0) translate(4 1506)">
<title>FifoWrFsm</title>
<!-- Node1 -->
<g id="Node000001" class="node">
<title>Node1</title>
<g id="a_Node000001"><a xlink:title=" ">
<polygon fill="#999999" stroke="#666666" points="69,-705 0,-705 0,-686 69,-686 69,-705"/>
<text text-anchor="middle" x="34.5" y="-693" font-family="Helvetica,sans-Serif" font-size="10.00">FifoWrFsm</text>
</a>
</g>
</g>
<!-- Node2 -->
<g id="Node000002" class="node">
<title>Node2</title>
<g id="a_Node000002"><a xlink:href="classFifoAsync.html" target="_top" xlink:title=" ">
<polygon fill="white" stroke="#bfbfbf" points="169,-205 105,-205 105,-186 169,-186 169,-205"/>
<text text-anchor="middle" x="137" y="-193" font-family="Helvetica,sans-Serif" font-size="10.00">FifoAsync</text>
</a>
</g>
</g>
<!-- Node1&#45;&gt;Node2 -->
<g id="edge1_Node000001_Node000002" class="edge">
<title>Node1&#45;&gt;Node2</title>
<g id="a_edge1_Node000001_Node000002"><a xlink:title=" ">
<path fill="none" stroke="#63b8ff" d="M39.41,-676.02C56.22,-592.43 121.91,-265.59 134.06,-205.14"/>
<polygon fill="#63b8ff" stroke="#63b8ff" points="35.96,-675.46 37.42,-685.96 42.82,-676.84 35.96,-675.46"/>
</a>
</g>
</g>
<!-- Node310 -->
<g id="Node000310" class="node">
<title>Node310</title>
<g id="a_Node000310"><a xlink:href="classFifoSync.html" target="_top" xlink:title=" ">
<polygon fill="white" stroke="#bfbfbf" points="166,-1242 108,-1242 108,-1223 166,-1223 166,-1242"/>
<text text-anchor="middle" x="137" y="-1230" font-family="Helvetica,sans-Serif" font-size="10.00">FifoSync</text>
</a>
</g>
</g>
<!-- Node1&#45;&gt;Node310 -->
<g id="edge51_Node000001_Node000310" class="edge">
<title>Node1&#45;&gt;Node310</title>
<g id="a_edge51_Node000001_Node000310"><a xlink:title=" ">
<path fill="none" stroke="#63b8ff" d="M39.21,-715.3C55.73,-803.61 122.43,-1159.97 134.21,-1222.96"/>
<polygon fill="#63b8ff" stroke="#63b8ff" points="42.61,-714.46 37.33,-705.28 35.73,-715.75 42.61,-714.46"/>
</a>
</g>
</g>
<!-- Node3 -->
<g id="Node000003" class="node">
<title>Node3</title>
<g id="a_Node000003"><a xlink:href="classAxiLiteAsync.html" target="_top" xlink:title=" ">
<polygon fill="white" stroke="#bfbfbf" points="329,-632 249,-632 249,-613 329,-613 329,-632"/>
<text text-anchor="middle" x="289" y="-620" font-family="Helvetica,sans-Serif" font-size="10.00">AxiLiteAsync</text>
</a>
</g>
</g>
<!-- Node2&#45;&gt;Node3 -->
<g id="edge2_Node000002_Node000003" class="edge">
<title>Node2&#45;&gt;Node3</title>
<g id="a_edge2_Node000002_Node000003"><a xlink:title=" ">
<path fill="none" stroke="#63b8ff" d="M144.78,-214.79C171.05,-289.58 265.64,-558.84 284.66,-612.98"/>
<polygon fill="#63b8ff" stroke="#63b8ff" points="148.03,-213.5 141.41,-205.22 141.43,-215.82 148.03,-213.5"/>
</a>
</g>
</g>
<!-- Node124 -->
<g id="Node000124" class="node">
<title>Node124</title>
<g id="a_Node000124"><a xlink:href="classFifo.html" target="_top" xlink:title=" ">
<polygon fill="white" stroke="orangered" points="306.5,-1224 271.5,-1224 271.5,-1205 306.5,-1205 306.5,-1224"/>
<text text-anchor="middle" x="289" y="-1212" font-family="Helvetica,sans-Serif" font-size="10.00">Fifo</text>
</a>
</g>
</g>
<!-- Node2&#45;&gt;Node124 -->
<g id="edge25_Node000002_Node000124" class="edge">
<title>Node2&#45;&gt;Node124</title>
<g id="a_edge25_Node000002_Node000124"><a xlink:title=" ">
<path fill="none" stroke="#63b8ff" d="M140.91,-215.25C160.48,-348.23 272.71,-1110.6 286.59,-1204.93"/>
<polygon fill="#63b8ff" stroke="#63b8ff" points="144.36,-214.64 139.44,-205.26 137.43,-215.66 144.36,-214.64"/>
</a>
</g>
</g>
<!-- Node234 -->
<g id="Node000234" class="node">
<title>Node234</title>
<g id="a_Node000234"><a xlink:href="classAsyncGearbox.html" target="_top" xlink:title=" ">
<polygon fill="white" stroke="orangered" points="332.5,-167 245.5,-167 245.5,-148 332.5,-148 332.5,-167"/>
<text text-anchor="middle" x="289" y="-155" font-family="Helvetica,sans-Serif" font-size="10.00">AsyncGearbox</text>
</a>
</g>
</g>
<!-- Node2&#45;&gt;Node234 -->
<g id="edge40_Node000002_Node000234" class="edge">
<title>Node2&#45;&gt;Node234</title>
<g id="a_edge40_Node000002_Node000234"><a xlink:title=" ">
<path fill="none" stroke="#63b8ff" d="M178.92,-185.13C201.19,-179.49 228.57,-172.56 250.32,-167.05"/>
<polygon fill="#63b8ff" stroke="#63b8ff" points="177.91,-181.78 169.08,-187.63 179.63,-188.56 177.91,-181.78"/>
</a>
</g>
</g>
<!-- Node238 -->
<g id="Node000238" class="node">
<title>Node238</title>
<g id="a_Node000238"><a xlink:href="classGearboxTb.html" target="_top" xlink:title=" ">
<polygon fill="white" stroke="#bfbfbf" points="324,-130 254,-130 254,-111 324,-111 324,-130"/>
<text text-anchor="middle" x="289" y="-118" font-family="Helvetica,sans-Serif" font-size="10.00">GearboxTb</text>
</a>
</g>
</g>
<!-- Node2&#45;&gt;Node238 -->
<g id="edge41_Node000002_Node000238" class="edge">
<title>Node2&#45;&gt;Node238</title>
<g id="a_edge41_Node000002_Node000238"><a xlink:title=" ">
<path fill="none" stroke="#63b8ff" d="M153.47,-178.38C166.1,-165.47 185.05,-148.37 205,-138.5 220.07,-131.05 238.17,-126.66 253.63,-124.09"/>
<polygon fill="#63b8ff" stroke="#63b8ff" points="150.81,-176.1 146.48,-185.77 155.9,-180.91 150.81,-176.1"/>
</a>
</g>
</g>
<!-- Node239 -->
<g id="Node000239" class="node">
<title>Node239</title>
<g id="a_Node000239"><a xlink:href="classSynchronizerFifo.html" target="_top" xlink:title=" ">
<polygon fill="white" stroke="orangered" points="338,-281 240,-281 240,-262 338,-262 338,-281"/>
<text text-anchor="middle" x="289" y="-269" font-family="Helvetica,sans-Serif" font-size="10.00">SynchronizerFifo</text>
</a>
</g>
</g>
<!-- Node2&#45;&gt;Node239 -->
<g id="edge42_Node000002_Node000239" class="edge">
<title>Node2&#45;&gt;Node239</title>
<g id="a_edge42_Node000002_Node000239"><a xlink:title=" ">
<path fill="none" stroke="#63b8ff" d="M155.64,-212.23C168.46,-223.59 186.7,-238.19 205,-247.5 216.9,-253.55 230.55,-258.3 243.31,-261.92"/>
<polygon fill="#63b8ff" stroke="#63b8ff" points="157.8,-209.47 148.05,-205.32 153.09,-214.64 157.8,-209.47"/>
</a>
</g>
</g>
<!-- Node293 -->
<g id="Node000293" class="node">
<title>Node293</title>
<g id="a_Node000293"><a xlink:href="classPgp3RxEb.html" target="_top" xlink:title=" ">
<polygon fill="white" stroke="orangered" points="513,-242 448,-242 448,-223 513,-223 513,-242"/>
<text text-anchor="middle" x="480.5" y="-230" font-family="Helvetica,sans-Serif" font-size="10.00">Pgp3RxEb</text>
</a>
</g>
</g>
<!-- Node2&#45;&gt;Node293 -->
<g id="edge47_Node000002_Node000293" class="edge">
<title>Node2&#45;&gt;Node293</title>
<g id="a_edge47_Node000002_Node000293"><a xlink:title=" ">
<path fill="none" stroke="#63b8ff" d="M179.28,-204.95C187.76,-206.66 196.64,-208.28 205,-209.5 292.31,-222.23 396.35,-228.56 447.65,-231.1"/>
<polygon fill="#63b8ff" stroke="#63b8ff" points="179.72,-201.47 169.22,-202.85 178.29,-208.32 179.72,-201.47"/>
</a>
</g>
</g>
<!-- Node295 -->
<g id="Node000295" class="node">
<title>Node295</title>
<g id="a_Node000295"><a xlink:href="classPgp4RxEb.html" target="_top" xlink:title=" ">
<polygon fill="white" stroke="orangered" points="513,-205 448,-205 448,-186 513,-186 513,-205"/>
<text text-anchor="middle" x="480.5" y="-193" font-family="Helvetica,sans-Serif" font-size="10.00">Pgp4RxEb</text>
</a>
</g>
</g>
<!-- Node2&#45;&gt;Node295 -->
<g id="edge48_Node000002_Node000295" class="edge">
<title>Node2&#45;&gt;Node295</title>
<g id="a_edge48_Node000002_Node000295"><a xlink:title=" ">
<path fill="none" stroke="#63b8ff" d="M179.29,-195.5C248.41,-195.5 386.04,-195.5 447.99,-195.5"/>
<polygon fill="#63b8ff" stroke="#63b8ff" points="179.21,-192 169.21,-195.5 179.21,-199 179.21,-192"/>
</a>
</g>
</g>
<!-- Node274 -->
<g id="Node000274" class="node">
<title>Node274</title>
<g id="a_Node000274"><a xlink:href="classSynchronizerOneShotCntVector.html" target="_top" xlink:title=" ">
<polygon fill="white" stroke="orangered" points="373,-93 205,-93 205,-74 373,-74 373,-93"/>
<text text-anchor="middle" x="289" y="-81" font-family="Helvetica,sans-Serif" font-size="10.00">SynchronizerOneShotCntVector</text>
</a>
</g>
</g>
<!-- Node2&#45;&gt;Node274 -->
<g id="edge46_Node000002_Node000274" class="edge">
<title>Node2&#45;&gt;Node274</title>
<g id="a_edge46_Node000002_Node000274"><a xlink:title=" ">
<path fill="none" stroke="#63b8ff" d="M146.12,-176.84C156.53,-155.21 176.68,-120.16 205,-101.5 210.17,-98.09 215.88,-95.32 221.81,-93.06"/>
<polygon fill="#63b8ff" stroke="#63b8ff" points="142.91,-175.44 141.91,-185.99 149.27,-178.37 142.91,-175.44"/>
</a>
</g>
</g>
<!-- Node308 -->
<g id="Node000308" class="node">
<title>Node308</title>
<g id="a_Node000308"><a xlink:href="classPgp3Gtp7RxGearbox.html" target="_top" xlink:title=" ">
<polygon fill="white" stroke="orangered" points="348,-56 230,-56 230,-37 348,-37 348,-56"/>
<text text-anchor="middle" x="289" y="-44" font-family="Helvetica,sans-Serif" font-size="10.00">Pgp3Gtp7RxGearbox</text>
</a>
</g>
</g>
<!-- Node2&#45;&gt;Node308 -->
<g id="edge49_Node000002_Node000308" class="edge">
<title>Node2&#45;&gt;Node308</title>
<g id="a_edge49_Node000002_Node000308"><a xlink:title=" ">
<path fill="none" stroke="#63b8ff" d="M142.35,-175.99C149.88,-146.97 168.2,-92.82 205,-64.5 212.25,-58.93 220.85,-55 229.73,-52.24"/>
<polygon fill="#63b8ff" stroke="#63b8ff" points="138.93,-175.23 139.98,-185.78 145.73,-176.88 138.93,-175.23"/>
</a>
</g>
</g>
<!-- Node309 -->
<g id="Node000309" class="node">
<title>Node309</title>
<g id="a_Node000309"><a xlink:href="classPgp3Gtp7TxGearbox.html" target="_top" xlink:title=" ">
<polygon fill="white" stroke="orangered" points="347.5,-19 230.5,-19 230.5,0 347.5,0 347.5,-19"/>
<text text-anchor="middle" x="289" y="-7" font-family="Helvetica,sans-Serif" font-size="10.00">Pgp3Gtp7TxGearbox</text>
</a>
</g>
</g>
<!-- Node2&#45;&gt;Node309 -->
<g id="edge50_Node000002_Node000309" class="edge">
<title>Node2&#45;&gt;Node309</title>
<g id="a_edge50_Node000002_Node000309"><a xlink:title=" ">
<path fill="none" stroke="#63b8ff" d="M139.95,-175.67C144.55,-140.22 159.37,-66.13 205,-27.5 212.2,-21.4 220.99,-17.23 230.12,-14.4"/>
<polygon fill="#63b8ff" stroke="#63b8ff" points="136.46,-175.38 138.8,-185.72 143.42,-176.19 136.46,-175.38"/>
</a>
</g>
</g>
<!-- Node4 -->
<g id="Node000004" class="node">
<title>Node4</title>
<g id="a_Node000004"><a xlink:href="classAxiLiteAsyncTb.html" target="_top" xlink:title=" ">
<polygon fill="white" stroke="orangered" points="526.5,-540 434.5,-540 434.5,-521 526.5,-521 526.5,-540"/>
<text text-anchor="middle" x="480.5" y="-528" font-family="Helvetica,sans-Serif" font-size="10.00">AxiLiteAsyncTb</text>
</a>
</g>
</g>
<!-- Node3&#45;&gt;Node4 -->
<g id="edge3_Node000003_Node000004" class="edge">
<title>Node3&#45;&gt;Node4</title>
<g id="a_edge3_Node000003_Node000004"><a xlink:title=" ">
<path fill="none" stroke="#63b8ff" d="M311.2,-606.88C334.24,-590.55 372.65,-565.16 409,-549.5 417.62,-545.79 427.14,-542.64 436.33,-540.03"/>
<polygon fill="#63b8ff" stroke="#63b8ff" points="308.96,-604.18 302.88,-612.86 313.04,-609.87 308.96,-604.18"/>
</a>
</g>
</g>
<!-- Node5 -->
<g id="Node000005" class="node">
<title>Node5</title>
<g id="a_Node000005"><a xlink:href="classAxiRateGen.html" target="_top" xlink:title=" ">
<polygon fill="white" stroke="#bfbfbf" points="517.5,-503 443.5,-503 443.5,-484 517.5,-484 517.5,-503"/>
<text text-anchor="middle" x="480.5" y="-491" font-family="Helvetica,sans-Serif" font-size="10.00">AxiRateGen</text>
</a>
</g>
</g>
<!-- Node3&#45;&gt;Node5 -->
<g id="edge4_Node000003_Node000005" class="edge">
<title>Node3&#45;&gt;Node5</title>
<g id="a_edge4_Node000003_Node000005"><a xlink:title=" ">
<path fill="none" stroke="#63b8ff" d="M303.89,-605.2C324.34,-580.88 364.94,-536.84 409,-512.5 419.54,-506.68 431.97,-502.56 443.43,-499.68"/>
<polygon fill="#63b8ff" stroke="#63b8ff" points="301.19,-602.98 297.52,-612.92 306.59,-607.43 301.19,-602.98"/>
</a>
</g>
</g>
<!-- Node6 -->
<g id="Node000006" class="node">
<title>Node6</title>
<g id="a_Node000006"><a xlink:href="classAxiRingBuffer.html" target="_top" xlink:title=" ">
<polygon fill="white" stroke="orangered" points="522,-466 439,-466 439,-447 522,-447 522,-466"/>
<text text-anchor="middle" x="480.5" y="-454" font-family="Helvetica,sans-Serif" font-size="10.00">AxiRingBuffer</text>
</a>
</g>
</g>
<!-- Node3&#45;&gt;Node6 -->
<g id="edge5_Node000003_Node000006" class="edge">
<title>Node3&#45;&gt;Node6</title>
<g id="a_edge5_Node000003_Node000006"><a xlink:title=" ">
<path fill="none" stroke="#63b8ff" d="M299.86,-603.86C317.47,-572.45 357.34,-509.11 409,-475.5 417.93,-469.69 428.58,-465.65 438.88,-462.84"/>
<polygon fill="#63b8ff" stroke="#63b8ff" points="296.67,-602.41 294.94,-612.86 302.81,-605.77 296.67,-602.41"/>
</a>
</g>
</g>
<!-- Node8 -->
<g id="Node000008" class="node">
<title>Node8</title>
<g id="a_Node000008"><a xlink:href="classAxiLiteToDrp.html" target="_top" xlink:title=" ">
<polygon fill="white" stroke="orangered" points="519.5,-390 441.5,-390 441.5,-371 519.5,-371 519.5,-390"/>
<text text-anchor="middle" x="480.5" y="-378" font-family="Helvetica,sans-Serif" font-size="10.00">AxiLiteToDrp</text>
</a>
</g>
</g>
<!-- Node3&#45;&gt;Node8 -->
<g id="edge6_Node000003_Node000008" class="edge">
<title>Node3&#45;&gt;Node8</title>
<g id="a_edge6_Node000003_Node000008"><a xlink:title=" ">
<path fill="none" stroke="#63b8ff" d="M295.36,-602.92C307.96,-560.53 343.45,-459.67 409,-404.5 418.2,-396.76 430.02,-391.47 441.34,-387.88"/>
<polygon fill="#63b8ff" stroke="#63b8ff" points="291.98,-602.01 292.59,-612.59 298.71,-603.94 291.98,-602.01"/>
</a>
</g>
</g>
<!-- Node9 -->
<g id="Node000009" class="node">
<title>Node9</title>
<g id="a_Node000009"><a xlink:href="classGigEthGtx7.html" target="_top" xlink:title=" ">
<polygon fill="white" stroke="orangered" points="660,-409 588,-409 588,-390 660,-390 660,-409"/>
<text text-anchor="middle" x="624" y="-397" font-family="Helvetica,sans-Serif" font-size="10.00">GigEthGtx7</text>
</a>
</g>
</g>
<!-- Node3&#45;&gt;Node9 -->
<g id="edge16_Node000003_Node000009" class="edge">
<title>Node3&#45;&gt;Node9</title>
<g id="a_edge16_Node000003_Node000009"><a xlink:title=" ">
<path fill="none" stroke="#63b8ff" d="M296.59,-603.02C310.63,-564.69 347.37,-479.63 409,-438.5 437.74,-419.32 534.75,-407.63 587.73,-402.53"/>
<polygon fill="#63b8ff" stroke="#63b8ff" points="293.12,-602.32 293.09,-612.92 299.72,-604.65 293.12,-602.32"/>
</a>
</g>
</g>
<!-- Node101 -->
<g id="Node000101" class="node">
<title>Node101</title>
<g id="a_Node000101"><a xlink:href="classAxiStreamDmaV2Fifo.html" target="_top" xlink:title=" ">
<polygon fill="white" stroke="#bfbfbf" points="541.5,-1021 419.5,-1021 419.5,-1002 541.5,-1002 541.5,-1021"/>
<text text-anchor="middle" x="480.5" y="-1009" font-family="Helvetica,sans-Serif" font-size="10.00">AxiStreamDmaV2Fifo</text>
</a>
</g>
</g>
<!-- Node3&#45;&gt;Node101 -->
<g id="edge8_Node000003_Node000101" class="edge">
<title>Node3&#45;&gt;Node101</title>
<g id="a_edge8_Node000003_Node000101"><a xlink:title=" ">
<path fill="none" stroke="#63b8ff" d="M290.08,-642.62C291.46,-704.72 304.43,-895.06 409,-993.5 412.59,-996.88 416.72,-999.64 421.14,-1001.9"/>
<polygon fill="#63b8ff" stroke="#63b8ff" points="293.57,-642.22 289.93,-632.27 286.57,-642.32 293.57,-642.22"/>
</a>
</g>
</g>
<!-- Node102 -->
<g id="Node000102" class="node">
<title>Node102</title>
<g id="a_Node000102"><a xlink:href="classAxiStreamBatcherAxil.html" target="_top" xlink:title=" ">
<polygon fill="white" stroke="#bfbfbf" points="542.5,-353 418.5,-353 418.5,-334 542.5,-334 542.5,-353"/>
<text text-anchor="middle" x="480.5" y="-341" font-family="Helvetica,sans-Serif" font-size="10.00">AxiStreamBatcherAxil</text>
</a>
</g>
</g>
<!-- Node3&#45;&gt;Node102 -->
<g id="edge9_Node000003_Node000102" class="edge">
<title>Node3&#45;&gt;Node102</title>
<g id="a_edge9_Node000003_Node000102"><a xlink:title=" ">
<path fill="none" stroke="#63b8ff" d="M293.15,-602.87C301.99,-554.35 331.65,-427.97 409,-362.5 413.55,-358.65 418.8,-355.57 424.35,-353.12"/>
<polygon fill="#63b8ff" stroke="#63b8ff" points="289.66,-602.52 291.41,-612.97 296.56,-603.71 289.66,-602.52"/>
</a>
</g>
</g>
<!-- Node103 -->
<g id="Node000103" class="node">
<title>Node103</title>
<g id="a_Node000103"><a xlink:href="classPgp4RxLiteLowSpeedReg.html" target="_top" xlink:title=" ">
<polygon fill="white" stroke="orangered" points="550.5,-316 410.5,-316 410.5,-297 550.5,-297 550.5,-316"/>
<text text-anchor="middle" x="480.5" y="-304" font-family="Helvetica,sans-Serif" font-size="10.00">Pgp4RxLiteLowSpeedReg</text>
</a>
</g>
</g>
<!-- Node3&#45;&gt;Node103 -->
<g id="edge10_Node000003_Node000103" class="edge">
<title>Node3&#45;&gt;Node103</title>
<g id="a_edge10_Node000003_Node000103"><a xlink:title=" ">
<path fill="none" stroke="#63b8ff" d="M291.94,-602.64C298.22,-549.34 322.93,-401.98 409,-325.5 413.36,-321.63 418.43,-318.53 423.81,-316.06"/>
<polygon fill="#63b8ff" stroke="#63b8ff" points="288.43,-602.47 290.83,-612.79 295.39,-603.23 288.43,-602.47"/>
</a>
</g>
</g>
<!-- Node105 -->
<g id="Node000105" class="node">
<title>Node105</title>
<g id="a_Node000105"><a xlink:href="classSspLowSpeedDecoderReg.html" target="_top" xlink:title=" ">
<polygon fill="white" stroke="orangered" points="552,-984 409,-984 409,-965 552,-965 552,-984"/>
<text text-anchor="middle" x="480.5" y="-972" font-family="Helvetica,sans-Serif" font-size="10.00">SspLowSpeedDecoderReg</text>
</a>
</g>
</g>
<!-- Node3&#45;&gt;Node105 -->
<g id="edge11_Node000003_Node000105" class="edge">
<title>Node3&#45;&gt;Node105</title>
<g id="a_edge11_Node000003_Node000105"><a xlink:title=" ">
<path fill="none" stroke="#63b8ff" d="M290.89,-642.52C294.59,-700.4 313.46,-869.39 409,-956.5 412.73,-959.9 417.02,-962.68 421.6,-964.95"/>
<polygon fill="#63b8ff" stroke="#63b8ff" points="294.37,-641.99 290.32,-632.2 287.38,-642.37 294.37,-641.99"/>
</a>
</g>
</g>
<!-- Node109 -->
<g id="Node000109" class="node">
<title>Node109</title>
<g id="a_Node000109"><a xlink:href="classSugoiManagerCore.html" target="_top" xlink:title=" ">
<polygon fill="white" stroke="orangered" points="535,-947 426,-947 426,-928 535,-928 535,-947"/>
<text text-anchor="middle" x="480.5" y="-935" font-family="Helvetica,sans-Serif" font-size="10.00">SugoiManagerCore</text>
</a>
</g>
</g>
<!-- Node3&#45;&gt;Node109 -->
<g id="edge12_Node000003_Node000109" class="edge">
<title>Node3&#45;&gt;Node109</title>
<g id="a_edge12_Node000003_Node000109"><a xlink:title=" ">
<path fill="none" stroke="#63b8ff" d="M291.88,-642.42C298.03,-695.88 322.42,-843.59 409,-919.5 413.94,-923.83 419.78,-927.14 425.95,-929.68"/>
<polygon fill="#63b8ff" stroke="#63b8ff" points="295.34,-641.82 290.81,-632.24 288.38,-642.55 295.34,-641.82"/>
</a>
</g>
</g>
<!-- Node111 -->
<g id="Node000111" class="node">
<title>Node111</title>
<g id="a_Node000111"><a xlink:href="classGigEthGth7.html" target="_top" xlink:title=" ">
<polygon fill="white" stroke="orangered" points="516.5,-910 444.5,-910 444.5,-891 516.5,-891 516.5,-910"/>
<text text-anchor="middle" x="480.5" y="-898" font-family="Helvetica,sans-Serif" font-size="10.00">GigEthGth7</text>
</a>
</g>
</g>
<!-- Node3&#45;&gt;Node111 -->
<g id="edge13_Node000003_Node000111" class="edge">
<title>Node3&#45;&gt;Node111</title>
<g id="a_edge13_Node000003_Node000111"><a xlink:title=" ">
<path fill="none" stroke="#63b8ff" d="M293.1,-642.19C301.82,-690.86 331.22,-817.55 409,-882.5 418.89,-890.76 432.09,-895.29 444.39,-897.76"/>
<polygon fill="#63b8ff" stroke="#63b8ff" points="296.5,-641.34 291.38,-632.07 289.6,-642.51 296.5,-641.34"/>
</a>
</g>
</g>
<!-- Node113 -->
<g id="Node000113" class="node">
<title>Node113</title>
<g id="a_Node000113"><a xlink:href="classGigEthGthUltraScale.html" target="_top" xlink:title=" ">
<polygon fill="white" stroke="orangered" points="538.5,-873 422.5,-873 422.5,-854 538.5,-854 538.5,-873"/>
<text text-anchor="middle" x="480.5" y="-861" font-family="Helvetica,sans-Serif" font-size="10.00">GigEthGthUltraScale</text>
</a>
</g>
</g>
<!-- Node3&#45;&gt;Node113 -->
<g id="edge14_Node000003_Node000113" class="edge">
<title>Node3&#45;&gt;Node113</title>
<g id="a_edge14_Node000003_Node000113"><a xlink:title=" ">
<path fill="none" stroke="#63b8ff" d="M294.74,-642.31C306.29,-686.09 340.08,-791.43 409,-845.5 413.37,-848.93 418.33,-851.71 423.53,-853.97"/>
<polygon fill="#63b8ff" stroke="#63b8ff" points="298.07,-641.19 292.23,-632.36 291.29,-642.91 298.07,-641.19"/>
</a>
</g>
</g>
<!-- Node114 -->
<g id="Node000114" class="node">
<title>Node114</title>
<g id="a_Node000114"><a xlink:href="classGigEthGtp7.html" target="_top" xlink:title=" ">
<polygon fill="white" stroke="orangered" points="516.5,-836 444.5,-836 444.5,-817 516.5,-817 516.5,-836"/>
<text text-anchor="middle" x="480.5" y="-824" font-family="Helvetica,sans-Serif" font-size="10.00">GigEthGtp7</text>
</a>
</g>
</g>
<!-- Node3&#45;&gt;Node114 -->
<g id="edge15_Node000003_Node000114" class="edge">
<title>Node3&#45;&gt;Node114</title>
<g id="a_edge15_Node000003_Node000114"><a xlink:title=" ">
<path fill="none" stroke="#63b8ff" d="M296.8,-641.87C311.2,-679.98 348.51,-764.78 409,-808.5 419.24,-815.9 432.24,-820.26 444.27,-822.84"/>
<polygon fill="#63b8ff" stroke="#63b8ff" points="300.07,-640.62 293.34,-632.43 293.49,-643.03 300.07,-640.62"/>
</a>
</g>
</g>
<!-- Node115 -->
<g id="Node000115" class="node">
<title>Node115</title>
<g id="a_Node000115"><a xlink:href="classGigEthGtyUltraScale.html" target="_top" xlink:title=" ">
<polygon fill="white" stroke="orangered" points="538.5,-799 422.5,-799 422.5,-780 538.5,-780 538.5,-799"/>
<text text-anchor="middle" x="480.5" y="-787" font-family="Helvetica,sans-Serif" font-size="10.00">GigEthGtyUltraScale</text>
</a>
</g>
</g>
<!-- Node3&#45;&gt;Node115 -->
<g id="edge17_Node000003_Node000115" class="edge">
<title>Node3&#45;&gt;Node115</title>
<g id="a_edge17_Node000003_Node000115"><a xlink:title=" ">
<path fill="none" stroke="#63b8ff" d="M299.75,-641.47C317.18,-673.42 356.8,-737.79 409,-771.5 414.31,-774.93 420.23,-777.7 426.32,-779.95"/>
<polygon fill="#63b8ff" stroke="#63b8ff" points="302.67,-639.5 294.88,-632.31 296.48,-642.78 302.67,-639.5"/>
</a>
</g>
</g>
<!-- Node116 -->
<g id="Node000116" class="node">
<title>Node116</title>
<g id="a_Node000116"><a xlink:href="classGigEthLvdsUltraScale.html" target="_top" xlink:title=" ">
<polygon fill="white" stroke="orangered" points="541.5,-762 419.5,-762 419.5,-743 541.5,-743 541.5,-762"/>
<text text-anchor="middle" x="480.5" y="-750" font-family="Helvetica,sans-Serif" font-size="10.00">GigEthLvdsUltraScale</text>
</a>
</g>
</g>
<!-- Node3&#45;&gt;Node116 -->
<g id="edge18_Node000003_Node000116" class="edge">
<title>Node3&#45;&gt;Node116</title>
<g id="a_edge18_Node000003_Node000116"><a xlink:title=" ">
<path fill="none" stroke="#63b8ff" d="M303.77,-640.2C324.09,-665.08 364.52,-710.05 409,-734.5 415.2,-737.91 422.06,-740.69 429,-742.95"/>
<polygon fill="#63b8ff" stroke="#63b8ff" points="306.44,-637.93 297.45,-632.31 300.97,-642.3 306.44,-637.93"/>
</a>
</g>
</g>
<!-- Node119 -->
<g id="Node000119" class="node">
<title>Node119</title>
<g id="a_Node000119"><a xlink:href="classTenGigEthGth7.html" target="_top" xlink:title=" ">
<polygon fill="white" stroke="orangered" points="525,-725 436,-725 436,-706 525,-706 525,-725"/>
<text text-anchor="middle" x="480.5" y="-713" font-family="Helvetica,sans-Serif" font-size="10.00">TenGigEthGth7</text>
</a>
</g>
</g>
<!-- Node3&#45;&gt;Node119 -->
<g id="edge19_Node000003_Node000119" class="edge">
<title>Node3&#45;&gt;Node119</title>
<g id="a_edge19_Node000003_Node000119"><a xlink:title=" ">
<path fill="none" stroke="#63b8ff" d="M310.72,-638.4C333.62,-655.28 372.16,-681.66 409,-697.5 417.47,-701.14 426.84,-704.17 435.92,-706.64"/>
<polygon fill="#63b8ff" stroke="#63b8ff" points="312.57,-635.42 302.47,-632.23 308.38,-641.02 312.57,-635.42"/>
</a>
</g>
</g>
<!-- Node120 -->
<g id="Node000120" class="node">
<title>Node120</title>
<g id="a_Node000120"><a xlink:href="classTenGigEthGthUltraScale.html" target="_top" xlink:title=" ">
<polygon fill="white" stroke="orangered" points="547,-688 414,-688 414,-669 547,-669 547,-688"/>
<text text-anchor="middle" x="480.5" y="-676" font-family="Helvetica,sans-Serif" font-size="10.00">TenGigEthGthUltraScale</text>
</a>
</g>
</g>
<!-- Node3&#45;&gt;Node120 -->
<g id="edge20_Node000003_Node000120" class="edge">
<title>Node3&#45;&gt;Node120</title>
<g id="a_edge20_Node000003_Node000120"><a xlink:title=" ">
<path fill="none" stroke="#63b8ff" d="M327.74,-635.18C351.05,-642.86 381.64,-652.65 409,-660.5 419.08,-663.39 430.03,-666.3 440.23,-668.91"/>
<polygon fill="#63b8ff" stroke="#63b8ff" points="328.82,-631.85 318.23,-632.03 326.62,-638.5 328.82,-631.85"/>
</a>
</g>
</g>
<!-- Node121 -->
<g id="Node000121" class="node">
<title>Node121</title>
<g id="a_Node000121"><a xlink:href="classTenGigEthGtx7.html" target="_top" xlink:title=" ">
<polygon fill="white" stroke="orangered" points="525,-651 436,-651 436,-632 525,-632 525,-651"/>
<text text-anchor="middle" x="480.5" y="-639" font-family="Helvetica,sans-Serif" font-size="10.00">TenGigEthGtx7</text>
</a>
</g>
</g>
<!-- Node3&#45;&gt;Node121 -->
<g id="edge21_Node000003_Node000121" class="edge">
<title>Node3&#45;&gt;Node121</title>
<g id="a_edge21_Node000003_Node000121"><a xlink:title=" ">
<path fill="none" stroke="#63b8ff" d="M339.49,-627.46C369.42,-630.46 407.21,-634.25 435.99,-637.14"/>
<polygon fill="#63b8ff" stroke="#63b8ff" points="339.56,-623.95 329.26,-626.44 338.87,-630.92 339.56,-623.95"/>
</a>
</g>
</g>
<!-- Node122 -->
<g id="Node000122" class="node">
<title>Node122</title>
<g id="a_Node000122"><a xlink:href="classTenGigEthGtyUltraScale.html" target="_top" xlink:title=" ">
<polygon fill="white" stroke="orangered" points="547,-614 414,-614 414,-595 547,-595 547,-614"/>
<text text-anchor="middle" x="480.5" y="-602" font-family="Helvetica,sans-Serif" font-size="10.00">TenGigEthGtyUltraScale</text>
</a>
</g>
</g>
<!-- Node3&#45;&gt;Node122 -->
<g id="edge22_Node000003_Node000122" class="edge">
<title>Node3&#45;&gt;Node122</title>
<g id="a_edge22_Node000003_Node000122"><a xlink:title=" ">
<path fill="none" stroke="#63b8ff" d="M339.36,-617.81C362.08,-615.65 389.37,-613.06 413.8,-610.74"/>
<polygon fill="#63b8ff" stroke="#63b8ff" points="338.89,-614.34 329.26,-618.77 339.55,-621.31 338.89,-614.34"/>
</a>
</g>
</g>
<!-- Node14 -->
<g id="Node000014" class="node">
<title>Node14</title>
<g id="a_Node000014"><a xlink:href="classClinkTop.html" target="_top" xlink:title=" ">
<polygon fill="white" stroke="orangered" points="509.5,-577 451.5,-577 451.5,-558 509.5,-558 509.5,-577"/>
<text text-anchor="middle" x="480.5" y="-565" font-family="Helvetica,sans-Serif" font-size="10.00">ClinkTop</text>
</a>
</g>
</g>
<!-- Node3&#45;&gt;Node14 -->
<g id="edge23_Node000003_Node000014" class="edge">
<title>Node3&#45;&gt;Node14</title>
<g id="a_edge23_Node000003_Node000014"><a xlink:title=" ">
<path fill="none" stroke="#63b8ff" d="M330.5,-609.91C353.47,-602.86 382.79,-594 409,-586.5 422.89,-582.53 438.39,-578.32 451.31,-574.89"/>
<polygon fill="#63b8ff" stroke="#63b8ff" points="329.27,-606.63 320.74,-612.92 331.33,-613.32 329.27,-606.63"/>
</a>
</g>
</g>
<!-- Node123 -->
<g id="Node000123" class="node">
<title>Node123</title>
<g id="a_Node000123"><a xlink:href="classSsiSem.html" target="_top" xlink:title=" ">
<polygon fill="white" stroke="orangered" points="507,-279 454,-279 454,-260 507,-260 507,-279"/>
<text text-anchor="middle" x="480.5" y="-267" font-family="Helvetica,sans-Serif" font-size="10.00">SsiSem</text>
</a>
</g>
</g>
<!-- Node3&#45;&gt;Node123 -->
<g id="edge24_Node000003_Node000123" class="edge">
<title>Node3&#45;&gt;Node123</title>
<g id="a_edge24_Node000003_Node000123"><a xlink:title=" ">
<path fill="none" stroke="#63b8ff" d="M290.95,-602.55C294.8,-544.83 314.04,-376.24 409,-288.5 421.1,-277.32 439.09,-272.59 453.87,-270.65"/>
<polygon fill="#63b8ff" stroke="#63b8ff" points="287.44,-602.65 290.35,-612.83 294.42,-603.05 287.44,-602.65"/>
</a>
</g>
</g>
<!-- Node8&#45;&gt;Node9 -->
<g id="edge7_Node000008_Node000009" class="edge">
<title>Node8&#45;&gt;Node9</title>
<g id="a_edge7_Node000008_Node000009"><a xlink:title=" ">
<path fill="none" stroke="#63b8ff" d="M529.75,-386.98C548.72,-389.53 570.09,-392.4 587.59,-394.75"/>
<polygon fill="#63b8ff" stroke="#63b8ff" points="530.17,-383.5 519.79,-385.64 529.24,-390.44 530.17,-383.5"/>
</a>
</g>
</g>
<!-- Node124&#45;&gt;Node101 -->
<g id="edge28_Node000124_Node000101" class="edge">
<title>Node124&#45;&gt;Node101</title>
<g id="a_edge28_Node000124_Node000101"><a xlink:title=" ">
<path fill="none" stroke="#63b8ff" d="M297.1,-1194.92C311.83,-1157.11 349.41,-1073.95 409,-1030.5 414.33,-1026.62 420.4,-1023.53 426.69,-1021.07"/>
<polygon fill="#63b8ff" stroke="#63b8ff" points="293.66,-1194.12 293.4,-1204.71 300.21,-1196.59 293.66,-1194.12"/>
</a>
</g>
</g>
<!-- Node125 -->
<g id="Node000125" class="node">
<title>Node125</title>
<g id="a_Node000125"><a xlink:href="classAxiStreamScatterGather.html" target="_top" xlink:title=" ">
<polygon fill="white" stroke="#bfbfbf" points="548,-1354 413,-1354 413,-1335 548,-1335 548,-1354"/>
<text text-anchor="middle" x="480.5" y="-1342" font-family="Helvetica,sans-Serif" font-size="10.00">AxiStreamScatterGather</text>
</a>
</g>
</g>
<!-- Node124&#45;&gt;Node125 -->
<g id="edge26_Node000124_Node000125" class="edge">
<title>Node124&#45;&gt;Node125</title>
<g id="a_edge26_Node000124_Node000125"><a xlink:title=" ">
<path fill="none" stroke="#63b8ff" d="M316.77,-1214.38C334.62,-1215.67 357.56,-1220.14 373,-1233.5 406.52,-1262.5 375.85,-1297.08 409,-1326.5 412.78,-1329.85 417.1,-1332.6 421.7,-1334.84"/>
<polygon fill="#63b8ff" stroke="#63b8ff" points="316.82,-1210.88 306.68,-1213.94 316.52,-1217.87 316.82,-1210.88"/>
</a>
</g>
</g>
<!-- Node126 -->
<g id="Node000126" class="node">
<title>Node126</title>
<g id="a_Node000126"><a xlink:href="classAxiStreamDmaV2Desc.html" target="_top" xlink:title=" ">
<polygon fill="white" stroke="orangered" points="544.5,-1317 416.5,-1317 416.5,-1298 544.5,-1298 544.5,-1317"/>
<text text-anchor="middle" x="480.5" y="-1305" font-family="Helvetica,sans-Serif" font-size="10.00">AxiStreamDmaV2Desc</text>
</a>
</g>
</g>
<!-- Node124&#45;&gt;Node126 -->
<g id="edge27_Node000124_Node000126" class="edge">
<title>Node124&#45;&gt;Node126</title>
<g id="a_edge27_Node000124_Node000126"><a xlink:title=" ">
<path fill="none" stroke="#63b8ff" d="M316.84,-1215.5C334.21,-1217.32 356.57,-1221.96 373,-1233.5 397.21,-1250.5 385,-1272.19 409,-1289.5 413.71,-1292.9 419.01,-1295.66 424.53,-1297.9"/>
<polygon fill="#63b8ff" stroke="#63b8ff" points="317.01,-1212 306.77,-1214.7 316.46,-1218.98 317.01,-1212"/>
</a>
</g>
</g>
<!-- Node128 -->
<g id="Node000128" class="node">
<title>Node128</title>
<g id="a_Node000128"><a xlink:href="classSlvDelayFifo.html" target="_top" xlink:title=" ">
<polygon fill="white" stroke="#bfbfbf" points="519.5,-1280 441.5,-1280 441.5,-1261 519.5,-1261 519.5,-1280"/>
<text text-anchor="middle" x="480.5" y="-1268" font-family="Helvetica,sans-Serif" font-size="10.00">SlvDelayFifo</text>
</a>
</g>
</g>
<!-- Node124&#45;&gt;Node128 -->
<g id="edge29_Node000124_Node000128" class="edge">
<title>Node124&#45;&gt;Node128</title>
<g id="a_edge29_Node000124_Node000128"><a xlink:title=" ">
<path fill="none" stroke="#63b8ff" d="M316.65,-1218.77C333.19,-1221.87 354.7,-1226.71 373,-1233.5 389.96,-1239.79 392.12,-1245.99 409,-1252.5 419.26,-1256.45 430.68,-1259.8 441.3,-1262.49"/>
<polygon fill="#63b8ff" stroke="#63b8ff" points="317.05,-1215.29 306.59,-1216.99 315.82,-1222.18 317.05,-1215.29"/>
</a>
</g>
</g>
<!-- Node129 -->
<g id="Node000129" class="node">
<title>Node129</title>
<g id="a_Node000129"><a xlink:href="classFifoCascade.html" target="_top" xlink:title=" ">
<polygon fill="white" stroke="orangered" points="518.5,-1243 442.5,-1243 442.5,-1224 518.5,-1224 518.5,-1243"/>
<text text-anchor="middle" x="480.5" y="-1231" font-family="Helvetica,sans-Serif" font-size="10.00">FifoCascade</text>
</a>
</g>
</g>
<!-- Node124&#45;&gt;Node129 -->
<g id="edge30_Node000124_Node000129" class="edge">
<title>Node124&#45;&gt;Node129</title>
<g id="a_edge30_Node000124_Node000129"><a xlink:title=" ">
<path fill="none" stroke="#63b8ff" d="M317.03,-1217.21C349.89,-1220.5 405.51,-1226.08 442.37,-1229.78"/>
<polygon fill="#63b8ff" stroke="#63b8ff" points="317.12,-1213.7 306.82,-1216.19 316.42,-1220.67 317.12,-1213.7"/>
</a>
</g>
</g>
<!-- Node218 -->
<g id="Node000218" class="node">
<title>Node218</title>
<g id="a_Node000218"><a xlink:href="classFifoTbSubModule.html" target="_top" xlink:title=" ">
<polygon fill="white" stroke="orangered" points="531,-1206 430,-1206 430,-1187 531,-1187 531,-1206"/>
<text text-anchor="middle" x="480.5" y="-1194" font-family="Helvetica,sans-Serif" font-size="10.00">FifoTbSubModule</text>
</a>
</g>
</g>
<!-- Node124&#45;&gt;Node218 -->
<g id="edge31_Node000124_Node000218" class="edge">
<title>Node124&#45;&gt;Node218</title>
<g id="a_edge31_Node000124_Node000218"><a xlink:title=" ">
<path fill="none" stroke="#63b8ff" d="M317.12,-1211.92C346.48,-1209.13 393.94,-1204.63 429.99,-1201.2"/>
<polygon fill="#63b8ff" stroke="#63b8ff" points="316.44,-1208.47 306.82,-1212.9 317.1,-1215.44 316.44,-1208.47"/>
</a>
</g>
</g>
<!-- Node220 -->
<g id="Node000220" class="node">
<title>Node220</title>
<g id="a_Node000220"><a xlink:href="classFwftCntTbSubModule.html" target="_top" xlink:title=" ">
<polygon fill="white" stroke="orangered" points="540.5,-1169 420.5,-1169 420.5,-1150 540.5,-1150 540.5,-1169"/>
<text text-anchor="middle" x="480.5" y="-1157" font-family="Helvetica,sans-Serif" font-size="10.00">FwftCntTbSubModule</text>
</a>
</g>
</g>
<!-- Node124&#45;&gt;Node220 -->
<g id="edge32_Node000124_Node000220" class="edge">
<title>Node124&#45;&gt;Node220</title>
<g id="a_edge32_Node000124_Node000220"><a xlink:title=" ">
<path fill="none" stroke="#63b8ff" d="M316.31,-1206.29C340.38,-1198.84 377,-1187.65 409,-1178.5 420.09,-1175.33 432.21,-1172.01 443.21,-1169.05"/>
<polygon fill="#63b8ff" stroke="#63b8ff" points="315.02,-1203.02 306.51,-1209.33 317.1,-1209.71 315.02,-1203.02"/>
</a>
</g>
</g>
<!-- Node222 -->
<g id="Node000222" class="node">
<title>Node222</title>
<g id="a_Node000222"><a xlink:href="classiq16bTo32b.html" target="_top" xlink:title=" ">
<polygon fill="white" stroke="#bfbfbf" points="516.5,-1132 444.5,-1132 444.5,-1113 516.5,-1113 516.5,-1132"/>
<text text-anchor="middle" x="480.5" y="-1120" font-family="Helvetica,sans-Serif" font-size="10.00">iq16bTo32b</text>
</a>
</g>
</g>
<!-- Node124&#45;&gt;Node222 -->
<g id="edge33_Node000124_Node000222" class="edge">
<title>Node124&#45;&gt;Node222</title>
<g id="a_edge33_Node000124_Node000222"><a xlink:title=" ">
<path fill="none" stroke="#63b8ff" d="M311.2,-1198.88C334.24,-1182.55 372.65,-1157.16 409,-1141.5 420.18,-1136.69 432.88,-1132.81 444.4,-1129.85"/>
<polygon fill="#63b8ff" stroke="#63b8ff" points="308.96,-1196.18 302.88,-1204.86 313.04,-1201.87 308.96,-1196.18"/>
</a>
</g>
</g>
<!-- Node223 -->
<g id="Node000223" class="node">
<title>Node223</title>
<g id="a_Node000223"><a xlink:href="classiq32bTo16b.html" target="_top" xlink:title=" ">
<polygon fill="white" stroke="#bfbfbf" points="516.5,-1095 444.5,-1095 444.5,-1076 516.5,-1076 516.5,-1095"/>
<text text-anchor="middle" x="480.5" y="-1083" font-family="Helvetica,sans-Serif" font-size="10.00">iq32bTo16b</text>
</a>
</g>
</g>
<!-- Node124&#45;&gt;Node223 -->
<g id="edge34_Node000124_Node000223" class="edge">
<title>Node124&#45;&gt;Node223</title>
<g id="a_edge34_Node000124_Node000223"><a xlink:title=" ">
<path fill="none" stroke="#63b8ff" d="M303.89,-1197.2C324.34,-1172.88 364.94,-1128.84 409,-1104.5 419.76,-1098.55 432.49,-1094.39 444.15,-1091.5"/>
<polygon fill="#63b8ff" stroke="#63b8ff" points="301.19,-1194.98 297.52,-1204.92 306.59,-1199.43 301.19,-1194.98"/>
</a>
</g>
</g>
<!-- Node224 -->
<g id="Node000224" class="node">
<title>Node224</title>
<g id="a_Node000224"><a xlink:href="classJesd16bTo32b.html" target="_top" xlink:title=" ">
<polygon fill="white" stroke="#bfbfbf" points="522,-1058 439,-1058 439,-1039 522,-1039 522,-1058"/>
<text text-anchor="middle" x="480.5" y="-1046" font-family="Helvetica,sans-Serif" font-size="10.00">Jesd16bTo32b</text>
</a>
</g>
</g>
<!-- Node124&#45;&gt;Node224 -->
<g id="edge35_Node000124_Node000224" class="edge">
<title>Node124&#45;&gt;Node224</title>
<g id="a_edge35_Node000124_Node000224"><a xlink:title=" ">
<path fill="none" stroke="#63b8ff" d="M299.86,-1195.86C317.47,-1164.45 357.34,-1101.11 409,-1067.5 417.93,-1061.69 428.58,-1057.65 438.88,-1054.84"/>
<polygon fill="#63b8ff" stroke="#63b8ff" points="296.67,-1194.41 294.94,-1204.86 302.81,-1197.77 296.67,-1194.41"/>
</a>
</g>
</g>
<!-- Node225 -->
<g id="Node000225" class="node">
<title>Node225</title>
<g id="a_Node000225"><a xlink:href="classJesd32bTo16b.html" target="_top" xlink:title=" ">
<polygon fill="white" stroke="#bfbfbf" points="522,-1502 439,-1502 439,-1483 522,-1483 522,-1502"/>
<text text-anchor="middle" x="480.5" y="-1490" font-family="Helvetica,sans-Serif" font-size="10.00">Jesd32bTo16b</text>
</a>
</g>
</g>
<!-- Node124&#45;&gt;Node225 -->
<g id="edge36_Node000124_Node000225" class="edge">
<title>Node124&#45;&gt;Node225</title>
<g id="a_edge36_Node000124_Node000225"><a xlink:title=" ">
<path fill="none" stroke="#63b8ff" d="M316.85,-1213.31C335.29,-1214.03 358.89,-1218.27 373,-1233.5 446.58,-1312.96 336.41,-1394.13 409,-1474.5 416.7,-1483.03 427.84,-1487.77 438.99,-1490.34"/>
<polygon fill="#63b8ff" stroke="#63b8ff" points="316.72,-1209.81 306.7,-1213.23 316.67,-1216.81 316.72,-1209.81"/>
</a>
</g>
</g>
<!-- Node226 -->
<g id="Node000226" class="node">
<title>Node226</title>
<g id="a_Node000226"><a xlink:href="classJesd32bTo64b.html" target="_top" xlink:title=" ">
<polygon fill="white" stroke="#bfbfbf" points="522,-1465 439,-1465 439,-1446 522,-1446 522,-1465"/>
<text text-anchor="middle" x="480.5" y="-1453" font-family="Helvetica,sans-Serif" font-size="10.00">Jesd32bTo64b</text>
</a>
</g>
</g>
<!-- Node124&#45;&gt;Node226 -->
<g id="edge37_Node000124_Node000226" class="edge">
<title>Node124&#45;&gt;Node226</title>
<g id="a_edge37_Node000124_Node000226"><a xlink:title=" ">
<path fill="none" stroke="#63b8ff" d="M316.73,-1213.42C335.11,-1214.2 358.69,-1218.46 373,-1233.5 436.44,-1300.22 346.4,-1369.99 409,-1437.5 416.73,-1445.84 427.74,-1450.54 438.77,-1453.13"/>
<polygon fill="#63b8ff" stroke="#63b8ff" points="316.65,-1209.92 306.61,-1213.31 316.57,-1216.92 316.65,-1209.92"/>
</a>
</g>
</g>
<!-- Node227 -->
<g id="Node000227" class="node">
<title>Node227</title>
<g id="a_Node000227"><a xlink:href="classJesd64bTo32b.html" target="_top" xlink:title=" ">
<polygon fill="white" stroke="#bfbfbf" points="522,-1428 439,-1428 439,-1409 522,-1409 522,-1428"/>
<text text-anchor="middle" x="480.5" y="-1416" font-family="Helvetica,sans-Serif" font-size="10.00">Jesd64bTo32b</text>
</a>
</g>
</g>
<!-- Node124&#45;&gt;Node227 -->
<g id="edge38_Node000124_Node000227" class="edge">
<title>Node124&#45;&gt;Node227</title>
<g id="a_edge38_Node000124_Node000227"><a xlink:title=" ">
<path fill="none" stroke="#63b8ff" d="M316.88,-1213.6C335.13,-1214.5 358.5,-1218.82 373,-1233.5 426.35,-1287.53 356.33,-1345.81 409,-1400.5 416.89,-1408.69 427.94,-1413.34 438.96,-1415.94"/>
<polygon fill="#63b8ff" stroke="#63b8ff" points="316.89,-1210.1 306.83,-1213.42 316.77,-1217.1 316.89,-1210.1"/>
</a>
</g>
</g>
<!-- Node228 -->
<g id="Node000228" class="node">
<title>Node228</title>
<g id="a_Node000228"><a xlink:href="classUartWrapper.html" target="_top" xlink:title=" ">
<polygon fill="white" stroke="orangered" points="520,-1391 441,-1391 441,-1372 520,-1372 520,-1391"/>
<text text-anchor="middle" x="480.5" y="-1379" font-family="Helvetica,sans-Serif" font-size="10.00">UartWrapper</text>
</a>
</g>
</g>
<!-- Node124&#45;&gt;Node228 -->
<g id="edge39_Node000124_Node000228" class="edge">
<title>Node124&#45;&gt;Node228</title>
<g id="a_edge39_Node000124_Node000228"><a xlink:title=" ">
<path fill="none" stroke="#63b8ff" d="M316.88,-1213.88C334.97,-1214.92 358.15,-1219.31 373,-1233.5 416.34,-1274.93 366.18,-1321.54 409,-1363.5 417.48,-1371.81 429.24,-1376.45 440.72,-1378.98"/>
<polygon fill="#63b8ff" stroke="#63b8ff" points="316.74,-1210.38 306.65,-1213.61 316.55,-1217.38 316.74,-1210.38"/>
</a>
</g>
</g>
<!-- Node239&#45;&gt;Node123 -->
<g id="edge45_Node000239_Node000123" class="edge">
<title>Node239&#45;&gt;Node123</title>
<g id="a_edge45_Node000239_Node000123"><a xlink:title=" ">
<path fill="none" stroke="#63b8ff" d="M348.52,-270.88C383.85,-270.51 427.1,-270.05 453.98,-269.77"/>
<polygon fill="#63b8ff" stroke="#63b8ff" points="348.27,-267.38 338.31,-270.99 348.35,-274.38 348.27,-267.38"/>
</a>
</g>
</g>
<!-- Node239&#45;&gt;Node293 -->
<g id="edge43_Node000239_Node000293" class="edge">
<title>Node239&#45;&gt;Node293</title>
<g id="a_edge43_Node000239_Node000293"><a xlink:title=" ">
<path fill="none" stroke="#63b8ff" d="M346.38,-259.9C379.54,-253.07 420.25,-244.69 447.85,-239.01"/>
<polygon fill="#63b8ff" stroke="#63b8ff" points="345.45,-256.52 336.36,-261.96 346.86,-263.37 345.45,-256.52"/>
</a>
</g>
</g>
<!-- Node239&#45;&gt;Node295 -->
<g id="edge44_Node000239_Node000295" class="edge">
<title>Node239&#45;&gt;Node295</title>
<g id="a_edge44_Node000239_Node000295"><a xlink:title=" ">
<path fill="none" stroke="#63b8ff" d="M315.88,-256.97C339.55,-244.16 375.81,-225.68 409,-213.5 421.45,-208.93 435.55,-205.08 447.85,-202.13"/>
<polygon fill="#63b8ff" stroke="#63b8ff" points="313.95,-254.04 306.86,-261.92 317.31,-260.18 313.95,-254.04"/>
</a>
</g>
</g>
<!-- Node310&#45;&gt;Node124 -->
<g id="edge53_Node000310_Node000124" class="edge">
<title>Node310&#45;&gt;Node124</title>
<g id="a_edge53_Node000310_Node000124"><a xlink:title=" ">
<path fill="none" stroke="#63b8ff" d="M176.53,-1227.88C207.08,-1224.21 248.31,-1219.26 271.1,-1216.53"/>
<polygon fill="#63b8ff" stroke="#63b8ff" points="175.73,-1224.45 166.21,-1229.11 176.56,-1231.4 175.73,-1224.45"/>
</a>
</g>
</g>
<!-- Node311 -->
<g id="Node000311" class="node">
<title>Node311</title>
<g id="a_Node000311"><a xlink:href="classAxiStreamDmaWrite.html" target="_top" xlink:title=" ">
<polygon fill="white" stroke="orangered" points="347.5,-1298 230.5,-1298 230.5,-1279 347.5,-1279 347.5,-1298"/>
<text text-anchor="middle" x="289" y="-1286" font-family="Helvetica,sans-Serif" font-size="10.00">AxiStreamDmaWrite</text>
</a>
</g>
</g>
<!-- Node310&#45;&gt;Node311 -->
<g id="edge52_Node000310_Node000311" class="edge">
<title>Node310&#45;&gt;Node311</title>
<g id="a_edge52_Node000310_Node000311"><a xlink:title=" ">
<path fill="none" stroke="#63b8ff" d="M160.49,-1247.54C173.12,-1255.38 189.42,-1264.55 205,-1270.5 213.82,-1273.87 223.41,-1276.67 232.85,-1278.99"/>
<polygon fill="#63b8ff" stroke="#63b8ff" points="162.33,-1244.55 152.02,-1242.12 158.56,-1250.46 162.33,-1244.55"/>
</a>
</g>
</g>
<!-- Node312 -->
<g id="Node000312" class="node">
<title>Node312</title>
<g id="a_Node000312"><a xlink:href="classJesdRxLane.html" target="_top" xlink:title=" ">
<polygon fill="white" stroke="orangered" points="325.5,-1261 252.5,-1261 252.5,-1242 325.5,-1242 325.5,-1261"/>
<text text-anchor="middle" x="289" y="-1249" font-family="Helvetica,sans-Serif" font-size="10.00">JesdRxLane</text>
</a>
</g>
</g>
<!-- Node310&#45;&gt;Node312 -->
<g id="edge54_Node000310_Node000312" class="edge">
<title>Node310&#45;&gt;Node312</title>
<g id="a_edge54_Node000310_Node000312"><a xlink:title=" ">
<path fill="none" stroke="#63b8ff" d="M176.17,-1237.34C199.65,-1240.31 229.53,-1244.09 252.5,-1247"/>
<polygon fill="#63b8ff" stroke="#63b8ff" points="176.57,-1233.86 166.21,-1236.07 175.69,-1240.8 176.57,-1233.86"/>
</a>
</g>
</g>
</g>
</svg>
