<?xml version="1.0" encoding="UTF-8" standalone="no"?>
<!DOCTYPE svg PUBLIC "-//W3C//DTD SVG 1.1//EN"
 "http://www.w3.org/Graphics/SVG/1.1/DTD/svg11.dtd">
<!-- Generated by graphviz version 2.43.0 (0)
 -->
<!-- Title: Encoder10b12b Pages: 1 -->
<svg width="246pt" height="140pt"
 viewBox="0.00 0.00 245.50 140.00" xmlns="http://www.w3.org/2000/svg" xmlns:xlink="http://www.w3.org/1999/xlink">
<g id="graph0" class="graph" transform="scale(1 1) rotate(0) translate(4 136)">
<title>Encoder10b12b</title>
<polygon fill="white" stroke="transparent" points="-4,4 -4,-136 241.5,-136 241.5,4 -4,4"/>
<!-- Node1 -->
<g id="node1" class="node">
<title>Node1</title>
<g id="a_node1"><a xlink:title=" ">
<polygon fill="#bfbfbf" stroke="black" points="73,-112.5 73,-131.5 165,-131.5 165,-112.5 73,-112.5"/>
<text text-anchor="middle" x="119" y="-119.5" font-family="Helvetica,sans-Serif" font-size="10.00">Encoder10b12b</text>
</a>
</g>
</g>
<!-- Node2 -->
<g id="node2" class="node">
<title>Node2</title>
<g id="a_node2"><a xlink:href="classLineCode10b12bTb.html" target="_top" xlink:title=" ">
<polygon fill="white" stroke="black" points="0,-56.5 0,-75.5 110,-75.5 110,-56.5 0,-56.5"/>
<text text-anchor="middle" x="55" y="-63.5" font-family="Helvetica,sans-Serif" font-size="10.00">LineCode10b12bTb</text>
</a>
</g>
</g>
<!-- Node1&#45;&gt;Node2 -->
<g id="edge1" class="edge">
<title>Node1&#45;&gt;Node2</title>
<path fill="none" stroke="midnightblue" d="M95.23,-106.1C82.61,-96.38 68.29,-84.03 60.32,-75.83"/>
<polygon fill="midnightblue" stroke="midnightblue" points="93.49,-109.16 103.6,-112.32 97.67,-103.55 93.49,-109.16"/>
</g>
<!-- Node1&#45;&gt;Node2 -->
<g id="edge4" class="edge">
<title>Node1&#45;&gt;Node2</title>
<path fill="none" stroke="midnightblue" d="M106.26,-105C95.89,-95.43 81.55,-83.64 70.5,-75.75"/>
<polygon fill="midnightblue" stroke="midnightblue" points="103.97,-107.65 113.6,-112.08 108.84,-102.62 103.97,-107.65"/>
</g>
<!-- Node3 -->
<g id="node3" class="node">
<title>Node3</title>
<g id="a_node3"><a xlink:href="classSspEncoder10b12b.html" target="_top" xlink:title=" ">
<polygon fill="white" stroke="black" points="128.5,-56.5 128.5,-75.5 237.5,-75.5 237.5,-56.5 128.5,-56.5"/>
<text text-anchor="middle" x="183" y="-63.5" font-family="Helvetica,sans-Serif" font-size="10.00">SspEncoder10b12b</text>
</a>
</g>
</g>
<!-- Node1&#45;&gt;Node3 -->
<g id="edge2" class="edge">
<title>Node1&#45;&gt;Node3</title>
<path fill="none" stroke="midnightblue" d="M131.74,-105C142.11,-95.43 156.45,-83.64 167.5,-75.75"/>
<polygon fill="midnightblue" stroke="midnightblue" points="129.16,-102.62 124.4,-112.08 134.03,-107.65 129.16,-102.62"/>
</g>
<!-- Node1&#45;&gt;Node3 -->
<g id="edge5" class="edge">
<title>Node1&#45;&gt;Node3</title>
<path fill="none" stroke="midnightblue" d="M142.77,-106.1C155.39,-96.38 169.71,-84.03 177.68,-75.83"/>
<polygon fill="midnightblue" stroke="midnightblue" points="140.33,-103.55 134.4,-112.32 144.51,-109.16 140.33,-103.55"/>
</g>
<!-- Node4 -->
<g id="node4" class="node">
<title>Node4</title>
<g id="a_node4"><a xlink:href="classSsp10b12bTb.html" target="_top" xlink:title=" ">
<polygon fill="white" stroke="black" points="142,-0.5 142,-19.5 224,-19.5 224,-0.5 142,-0.5"/>
<text text-anchor="middle" x="183" y="-7.5" font-family="Helvetica,sans-Serif" font-size="10.00">Ssp10b12bTb</text>
</a>
</g>
</g>
<!-- Node3&#45;&gt;Node4 -->
<g id="edge3" class="edge">
<title>Node3&#45;&gt;Node4</title>
<path fill="none" stroke="midnightblue" d="M183,-45.8C183,-36.91 183,-26.78 183,-19.75"/>
<polygon fill="midnightblue" stroke="midnightblue" points="179.5,-46.08 183,-56.08 186.5,-46.08 179.5,-46.08"/>
</g>
</g>
</svg>
