<?xml version="1.0" encoding="UTF-8" standalone="no"?>
<!DOCTYPE svg PUBLIC "-//W3C//DTD SVG 1.1//EN"
 "http://www.w3.org/Graphics/SVG/1.1/DTD/svg11.dtd">
<!-- Generated by graphviz version 2.43.0 (0)
 -->
<!-- Title: FirFilterSingleChannelWrapper Pages: 1 -->
<svg width="677pt" height="302pt"
 viewBox="0.00 0.00 677.14 302.00" xmlns="http://www.w3.org/2000/svg" xmlns:xlink="http://www.w3.org/1999/xlink">
<g id="graph0" class="graph" transform="scale(1 1) rotate(0) translate(4 298)">
<title>FirFilterSingleChannelWrapper</title>
<!-- Node1 -->
<g id="Node000001" class="node">
<title>Node1</title>
<g id="a_Node000001"><a xlink:title=" ">
<polygon fill="#999999" stroke="#666666" points="610.14,-19 446.14,-19 446.14,0 610.14,0 610.14,-19"/>
<text text-anchor="middle" x="528.14" y="-7" font-family="Helvetica,sans-Serif" font-size="10.00">FirFilterSingleChannelWrapper</text>
</a>
</g>
</g>
<!-- Node2 -->
<g id="Node000002" class="node">
<title>Node2</title>
<g id="a_Node000002"><a xlink:href="classSlaveAxiLiteIpIntegrator.html" target="_top" xlink:title=" ">
<polygon fill="white" stroke="#bfbfbf" points="669.14,-74 535.14,-74 535.14,-55 669.14,-55 669.14,-74"/>
<text text-anchor="middle" x="602.14" y="-62" font-family="Helvetica,sans-Serif" font-size="10.00">SlaveAxiLiteIpIntegrator</text>
</a>
</g>
</g>
<!-- Node2&#45;&gt;Node1 -->
<g id="edge1_Node000001_Node000002" class="edge">
<title>Node2&#45;&gt;Node1</title>
<g id="a_edge1_Node000001_Node000002"><a xlink:title=" ">
<path fill="none" stroke="#63b8ff" d="M582.11,-49.15C568.73,-39.57 551.58,-27.29 540.25,-19.17"/>
<polygon fill="#63b8ff" stroke="#63b8ff" points="580.09,-52.01 590.25,-54.98 584.16,-46.32 580.09,-52.01"/>
</a>
</g>
</g>
<!-- Node3 -->
<g id="Node000003" class="node">
<title>Node3</title>
<g id="a_Node000003"><a xlink:href="classRstSync.html" target="_top" xlink:title=" ">
<polygon fill="white" stroke="#bfbfbf" points="630.14,-239 574.14,-239 574.14,-220 630.14,-220 630.14,-239"/>
<text text-anchor="middle" x="602.14" y="-227" font-family="Helvetica,sans-Serif" font-size="10.00">RstSync</text>
</a>
</g>
</g>
<!-- Node3&#45;&gt;Node2 -->
<g id="edge2_Node000002_Node000003" class="edge">
<title>Node3&#45;&gt;Node2</title>
<g id="a_edge2_Node000002_Node000003"><a xlink:title=" ">
<path fill="none" stroke="#63b8ff" d="M602.14,-209.37C602.14,-174.03 602.14,-99.79 602.14,-74.31"/>
<polygon fill="#63b8ff" stroke="#63b8ff" points="598.64,-209.74 602.14,-219.74 605.64,-209.74 598.64,-209.74"/>
</a>
</g>
</g>
<!-- Node6 -->
<g id="Node000006" class="node">
<title>Node6</title>
<g id="a_Node000006"><a xlink:href="classAxiLiteAsync.html" target="_top" xlink:title=" ">
<polygon fill="white" stroke="#bfbfbf" points="444.14,-129 364.14,-129 364.14,-110 444.14,-110 444.14,-129"/>
<text text-anchor="middle" x="404.14" y="-117" font-family="Helvetica,sans-Serif" font-size="10.00">AxiLiteAsync</text>
</a>
</g>
</g>
<!-- Node3&#45;&gt;Node6 -->
<g id="edge6_Node000006_Node000003" class="edge">
<title>Node3&#45;&gt;Node6</title>
<g id="a_edge6_Node000006_Node000003"><a xlink:title=" ">
<path fill="none" stroke="#63b8ff" d="M577.39,-215C536.05,-192.45 454.11,-147.75 419.81,-129.05"/>
<polygon fill="#63b8ff" stroke="#63b8ff" points="575.82,-218.13 586.27,-219.84 579.17,-211.98 575.82,-218.13"/>
</a>
</g>
</g>
<!-- Node7 -->
<g id="Node000007" class="node">
<title>Node7</title>
<g id="a_Node000007"><a xlink:href="classFifoAsync.html" target="_top" xlink:title=" ">
<polygon fill="white" stroke="#bfbfbf" points="350.14,-184 286.14,-184 286.14,-165 350.14,-165 350.14,-184"/>
<text text-anchor="middle" x="318.14" y="-172" font-family="Helvetica,sans-Serif" font-size="10.00">FifoAsync</text>
</a>
</g>
</g>
<!-- Node3&#45;&gt;Node7 -->
<g id="edge8_Node000007_Node000003" class="edge">
<title>Node3&#45;&gt;Node7</title>
<g id="a_edge8_Node000007_Node000003"><a xlink:title=" ">
<path fill="none" stroke="#63b8ff" d="M564.09,-219.86C481.45,-203.08 395.61,-188.36 350.21,-180.78"/>
<polygon fill="#63b8ff" stroke="#63b8ff" points="563.39,-223.29 573.89,-221.86 564.79,-216.43 563.39,-223.29"/>
</a>
</g>
</g>
<!-- Node4 -->
<g id="Node000004" class="node">
<title>Node4</title>
<g id="a_Node000004"><a xlink:href="classSynchronizer.html" target="_top" xlink:title=" ">
<polygon fill="white" stroke="#bfbfbf" points="333.14,-294 253.14,-294 253.14,-275 333.14,-275 333.14,-294"/>
<text text-anchor="middle" x="293.14" y="-282" font-family="Helvetica,sans-Serif" font-size="10.00">Synchronizer</text>
</a>
</g>
</g>
<!-- Node4&#45;&gt;Node3 -->
<g id="edge3_Node000003_Node000004" class="edge">
<title>Node4&#45;&gt;Node3</title>
<g id="a_edge3_Node000003_Node000004"><a xlink:title=" ">
<path fill="none" stroke="#63b8ff" d="M343.51,-276.24C398.24,-268.12 488.17,-254.12 565.14,-239 567.99,-238.44 570.95,-237.82 573.9,-237.18"/>
<polygon fill="#63b8ff" stroke="#63b8ff" points="342.76,-272.81 333.38,-277.74 343.79,-279.74 342.76,-272.81"/>
</a>
</g>
</g>
<!-- Node4&#45;&gt;Node7 -->
<g id="edge10_Node000007_Node000004" class="edge">
<title>Node4&#45;&gt;Node7</title>
<g id="a_edge10_Node000007_Node000004"><a xlink:title=" ">
<path fill="none" stroke="#63b8ff" d="M243.01,-283.3C168.57,-281.82 34.33,-274.19 4.14,-239 -1.36,-232.59 -1.39,-226.38 4.14,-220 40.42,-178.22 213.3,-174.61 285.91,-174.99"/>
<polygon fill="#63b8ff" stroke="#63b8ff" points="243.04,-286.8 253.1,-283.47 243.16,-279.8 243.04,-286.8"/>
</a>
</g>
</g>
<!-- Node5 -->
<g id="Node000005" class="node">
<title>Node5</title>
<g id="a_Node000005"><a xlink:href="classFirFilterSingleChannel.html" target="_top" xlink:title=" ">
<polygon fill="white" stroke="#bfbfbf" points="516.64,-74 393.64,-74 393.64,-55 516.64,-55 516.64,-74"/>
<text text-anchor="middle" x="455.14" y="-62" font-family="Helvetica,sans-Serif" font-size="10.00">FirFilterSingleChannel</text>
</a>
</g>
</g>
<!-- Node5&#45;&gt;Node1 -->
<g id="edge4_Node000001_Node000005" class="edge">
<title>Node5&#45;&gt;Node1</title>
<g id="a_edge4_Node000001_Node000005"><a xlink:title=" ">
<path fill="none" stroke="#63b8ff" d="M475.28,-48.88C488.42,-39.34 505.12,-27.21 516.2,-19.17"/>
<polygon fill="#63b8ff" stroke="#63b8ff" points="472.91,-46.28 466.87,-54.98 477.02,-51.94 472.91,-46.28"/>
</a>
</g>
</g>
<!-- Node6&#45;&gt;Node5 -->
<g id="edge5_Node000005_Node000006" class="edge">
<title>Node6&#45;&gt;Node5</title>
<g id="a_edge5_Node000005_Node000006"><a xlink:title=" ">
<path fill="none" stroke="#63b8ff" d="M419.52,-102.52C428.51,-93.18 439.5,-81.75 446.88,-74.09"/>
<polygon fill="#63b8ff" stroke="#63b8ff" points="416.98,-100.12 412.56,-109.75 422.02,-104.97 416.98,-100.12"/>
</a>
</g>
</g>
<!-- Node7&#45;&gt;Node6 -->
<g id="edge7_Node000006_Node000007" class="edge">
<title>Node7&#45;&gt;Node6</title>
<g id="a_edge7_Node000006_Node000007"><a xlink:title=" ">
<path fill="none" stroke="#63b8ff" d="M340.54,-159.7C356.21,-150.04 376.65,-137.44 390.07,-129.17"/>
<polygon fill="#63b8ff" stroke="#63b8ff" points="338.64,-156.76 331.96,-164.98 342.31,-162.72 338.64,-156.76"/>
</a>
</g>
</g>
<!-- Node8 -->
<g id="Node000008" class="node">
<title>Node8</title>
<g id="a_Node000008"><a xlink:href="classSynchronizerVector.html" target="_top" xlink:title=" ">
<polygon fill="white" stroke="#bfbfbf" points="123.14,-239 13.14,-239 13.14,-220 123.14,-220 123.14,-239"/>
<text text-anchor="middle" x="68.14" y="-227" font-family="Helvetica,sans-Serif" font-size="10.00">SynchronizerVector</text>
</a>
</g>
</g>
<!-- Node8&#45;&gt;Node7 -->
<g id="edge9_Node000007_Node000008" class="edge">
<title>Node8&#45;&gt;Node7</title>
<g id="a_edge9_Node000007_Node000008"><a xlink:title=" ">
<path fill="none" stroke="#63b8ff" d="M118.26,-217.87C168.25,-207.28 243.55,-191.31 286.02,-182.31"/>
<polygon fill="#63b8ff" stroke="#63b8ff" points="117.37,-214.49 108.31,-219.98 118.82,-221.33 117.37,-214.49"/>
</a>
</g>
</g>
<!-- Node9 -->
<g id="Node000009" class="node">
<title>Node9</title>
<g id="a_Node000009"><a xlink:href="classFifoWrFsm.html" target="_top" xlink:title=" ">
<polygon fill="white" stroke="#bfbfbf" points="210.64,-239 141.64,-239 141.64,-220 210.64,-220 210.64,-239"/>
<text text-anchor="middle" x="176.14" y="-227" font-family="Helvetica,sans-Serif" font-size="10.00">FifoWrFsm</text>
</a>
</g>
</g>
<!-- Node9&#45;&gt;Node7 -->
<g id="edge11_Node000007_Node000009" class="edge">
<title>Node9&#45;&gt;Node7</title>
<g id="a_edge11_Node000007_Node000009"><a xlink:title=" ">
<path fill="none" stroke="#63b8ff" d="M208.51,-216.42C234.85,-206.59 271.4,-192.95 294.91,-184.17"/>
<polygon fill="#63b8ff" stroke="#63b8ff" points="207.1,-213.21 198.96,-219.98 209.55,-219.77 207.1,-213.21"/>
</a>
</g>
</g>
<!-- Node10 -->
<g id="Node000010" class="node">
<title>Node10</title>
<g id="a_Node000010"><a xlink:href="classFifoRdFsm.html" target="_top" xlink:title=" ">
<polygon fill="white" stroke="#bfbfbf" points="297.14,-239 229.14,-239 229.14,-220 297.14,-220 297.14,-239"/>
<text text-anchor="middle" x="263.14" y="-227" font-family="Helvetica,sans-Serif" font-size="10.00">FifoRdFsm</text>
</a>
</g>
</g>
<!-- Node10&#45;&gt;Node7 -->
<g id="edge12_Node000007_Node000010" class="edge">
<title>Node10&#45;&gt;Node7</title>
<g id="a_edge12_Node000007_Node000010"><a xlink:title=" ">
<path fill="none" stroke="#63b8ff" d="M279.44,-212.8C289.18,-203.41 301.2,-191.83 309.23,-184.09"/>
<polygon fill="#63b8ff" stroke="#63b8ff" points="277,-210.29 272.22,-219.75 281.85,-215.33 277,-210.29"/>
</a>
</g>
</g>
<!-- Node11 -->
<g id="Node000011" class="node">
<title>Node11</title>
<g id="a_Node000011"><a xlink:href="classSimpleDualPortRam.html" target="_top" xlink:title=" ">
<polygon fill="white" stroke="#bfbfbf" points="430.64,-239 315.64,-239 315.64,-220 430.64,-220 430.64,-239"/>
<text text-anchor="middle" x="373.14" y="-227" font-family="Helvetica,sans-Serif" font-size="10.00">SimpleDualPortRam</text>
</a>
</g>
</g>
<!-- Node11&#45;&gt;Node7 -->
<g id="edge13_Node000007_Node000011" class="edge">
<title>Node11&#45;&gt;Node7</title>
<g id="a_edge13_Node000007_Node000011"><a xlink:title=" ">
<path fill="none" stroke="#63b8ff" d="M356.85,-212.8C347.1,-203.41 335.09,-191.83 327.06,-184.09"/>
<polygon fill="#63b8ff" stroke="#63b8ff" points="354.43,-215.33 364.06,-219.75 359.29,-210.29 354.43,-215.33"/>
</a>
</g>
</g>
<!-- Node12 -->
<g id="Node000012" class="node">
<title>Node12</title>
<g id="a_Node000012"><a xlink:href="classFifoOutputPipeline.html" target="_top" xlink:title=" ">
<polygon fill="white" stroke="#bfbfbf" points="555.64,-239 448.64,-239 448.64,-220 555.64,-220 555.64,-239"/>
<text text-anchor="middle" x="502.14" y="-227" font-family="Helvetica,sans-Serif" font-size="10.00">FifoOutputPipeline</text>
</a>
</g>
</g>
<!-- Node12&#45;&gt;Node7 -->
<g id="edge14_Node000007_Node000012" class="edge">
<title>Node12&#45;&gt;Node7</title>
<g id="a_edge14_Node000007_Node000012"><a xlink:title=" ">
<path fill="none" stroke="#63b8ff" d="M462.86,-217.18C428.44,-207.27 379.19,-193.08 347.94,-184.08"/>
<polygon fill="#63b8ff" stroke="#63b8ff" points="462,-220.58 472.58,-219.98 463.94,-213.85 462,-220.58"/>
</a>
</g>
</g>
<!-- Node13 -->
<g id="Node000013" class="node">
<title>Node13</title>
<g id="a_Node000013"><a xlink:href="classFirFilterTap.html" target="_top" xlink:title=" ">
<polygon fill="white" stroke="#bfbfbf" points="532.14,-129 462.14,-129 462.14,-110 532.14,-110 532.14,-129"/>
<text text-anchor="middle" x="497.14" y="-117" font-family="Helvetica,sans-Serif" font-size="10.00">FirFilterTap</text>
</a>
</g>
</g>
<!-- Node13&#45;&gt;Node5 -->
<g id="edge15_Node000005_Node000013" class="edge">
<title>Node13&#45;&gt;Node5</title>
<g id="a_edge15_Node000005_Node000013"><a xlink:title=" ">
<path fill="none" stroke="#63b8ff" d="M483.81,-101.67C476.54,-92.5 467.84,-81.52 461.95,-74.09"/>
<polygon fill="#63b8ff" stroke="#63b8ff" points="481.25,-104.08 490.21,-109.75 486.74,-99.74 481.25,-104.08"/>
</a>
</g>
</g>
</g>
</svg>
