<?xml version="1.0" encoding="UTF-8" standalone="no"?>
<!DOCTYPE svg PUBLIC "-//W3C//DTD SVG 1.1//EN"
 "http://www.w3.org/Graphics/SVG/1.1/DTD/svg11.dtd">
<!-- Generated by graphviz version 2.43.0 (0)
 -->
<!-- Title: JesdSysrefMon Pages: 1 -->
<!--zoomable 294 -->
<svg id="main" version="1.1" xmlns="http://www.w3.org/2000/svg" xmlns:xlink="http://www.w3.org/1999/xlink" xml:space="preserve" onload="init(evt)">
<style type="text/css"><![CDATA[
.edge:hover path { stroke: red; }
.edge:hover polygon { stroke: red; fill: red; }
]]></style>
<script type="text/javascript"><![CDATA[
var edges = document.getElementsByTagName('g');
if (edges && edges.length) {
  for (var i=0;i<edges.length;i++) {
    if (edges[i].id.substr(0,4)=='edge') {
      edges[i].setAttribute('class','edge');
    }
  }
}
]]></script>
        <defs>
                <circle id="rim" cx="0" cy="0" r="7"/>
                <circle id="rim2" cx="0" cy="0" r="3.5"/>
                <g id="zoomPlus">
                        <use xlink:href="#rim" fill="#404040">
                                <set attributeName="fill" to="#808080" begin="zoomplus.mouseover" end="zoomplus.mouseout"/>
                        </use>
                        <path d="M-4,0h8M0,-4v8" fill="none" stroke="white" stroke-width="1.5" pointer-events="none"/>
                </g>
                <g id="zoomMin">
                        <use xlink:href="#rim" fill="#404040">
                                <set attributeName="fill" to="#808080" begin="zoomminus.mouseover" end="zoomminus.mouseout"/>
                        </use>
                        <path d="M-4,0h8" fill="none" stroke="white" stroke-width="1.5" pointer-events="none"/>
                </g>
                <g id="dirArrow">
                        <path fill="none" stroke="white" stroke-width="1.5" d="M0,-3.0v7 M-2.5,-0.5L0,-3.0L2.5,-0.5"/>
                </g>
               <g id="resetDef">
                       <use xlink:href="#rim2" fill="#404040">
                               <set attributeName="fill" to="#808080" begin="reset.mouseover" end="reset.mouseout"/>
                       </use>
               </g>
        </defs>

<script type="text/javascript">
var viewWidth = 978;
var viewHeight = 294;
var sectionId = 'dynsection-0';
</script>
<script xlink:href="svgpan.js"/>
<svg id="graph" class="graph">
<g id="viewport">
<title>JesdSysrefMon</title>
<polygon fill="white" stroke="transparent" points="-4,4 -4,-290 974,-290 974,4 -4,4"/>
<!-- Node1 -->
<g id="node1" class="node">
<title>Node1</title>
<g id="a_node1"><a xlink:title=" ">
<polygon fill="#bfbfbf" stroke="black" points="558,-152.5 558,-171.5 647,-171.5 647,-152.5 558,-152.5"/>
<text text-anchor="middle" x="602.5" y="-159.5" font-family="Helvetica,sans-Serif" font-size="10.00">JesdSysrefMon</text>
</a>
</g>
</g>
<!-- Node13 -->
<g id="node13" class="node">
<title>Node13</title>
<g id="a_node13"><a xlink:href="classJesdRxReg.html" target="_top" xlink:title=" ">
<polygon fill="white" stroke="black" points="683,-171.5 683,-190.5 751,-190.5 751,-171.5 683,-171.5"/>
<text text-anchor="middle" x="717" y="-178.5" font-family="Helvetica,sans-Serif" font-size="10.00">JesdRxReg</text>
</a>
</g>
</g>
<!-- Node1&#45;&gt;Node13 -->
<g id="edge15" class="edge">
<title>Node1&#45;&gt;Node13</title>
<path fill="none" stroke="midnightblue" d="M657.21,-164.33C669.64,-166.37 682.24,-168.87 692.57,-171.44"/>
<polygon fill="midnightblue" stroke="midnightblue" points="657.73,-160.87 647.32,-162.8 656.67,-167.78 657.73,-160.87"/>
</g>
<!-- Node1&#45;&gt;Node13 -->
<g id="edge21" class="edge">
<title>Node1&#45;&gt;Node13</title>
<path fill="none" stroke="midnightblue" d="M636.89,-173.87C651.42,-177.02 668.41,-179.89 682.91,-181.62"/>
<polygon fill="midnightblue" stroke="midnightblue" points="637.34,-170.38 626.81,-171.53 635.76,-177.2 637.34,-170.38"/>
</g>
<!-- Node16 -->
<g id="node16" class="node">
<title>Node16</title>
<g id="a_node16"><a xlink:href="classJesdTxReg.html" target="_top" xlink:title=" ">
<polygon fill="white" stroke="black" points="683,-133.5 683,-152.5 751,-152.5 751,-133.5 683,-133.5"/>
<text text-anchor="middle" x="717" y="-140.5" font-family="Helvetica,sans-Serif" font-size="10.00">JesdTxReg</text>
</a>
</g>
</g>
<!-- Node1&#45;&gt;Node16 -->
<g id="edge18" class="edge">
<title>Node1&#45;&gt;Node16</title>
<path fill="none" stroke="midnightblue" d="M636.89,-150.13C651.42,-146.98 668.41,-144.11 682.91,-142.38"/>
<polygon fill="midnightblue" stroke="midnightblue" points="635.76,-146.8 626.81,-152.47 637.34,-153.62 635.76,-146.8"/>
</g>
<!-- Node1&#45;&gt;Node16 -->
<g id="edge22" class="edge">
<title>Node1&#45;&gt;Node16</title>
<path fill="none" stroke="midnightblue" d="M657.21,-159.67C669.64,-157.63 682.24,-155.13 692.57,-152.56"/>
<polygon fill="midnightblue" stroke="midnightblue" points="656.67,-156.22 647.32,-161.2 657.73,-163.13 656.67,-156.22"/>
</g>
<!-- Node2 -->
<g id="node2" class="node">
<title>Node2</title>
<g id="a_node2"><a xlink:href="classSynchronizerOneShot.html" target="_top" xlink:title=" ">
<polygon fill="white" stroke="black" points="267,-228.5 267,-247.5 388,-247.5 388,-228.5 267,-228.5"/>
<text text-anchor="middle" x="327.5" y="-235.5" font-family="Helvetica,sans-Serif" font-size="10.00">SynchronizerOneShot</text>
</a>
</g>
</g>
<!-- Node2&#45;&gt;Node1 -->
<g id="edge1" class="edge">
<title>Node2&#45;&gt;Node1</title>
<path fill="none" stroke="midnightblue" d="M372.48,-225.76C426.71,-210.66 517.74,-185.32 567.13,-171.57"/>
<polygon fill="midnightblue" stroke="midnightblue" points="371.49,-222.4 362.8,-228.45 373.37,-229.14 371.49,-222.4"/>
</g>
<!-- Node3 -->
<g id="node3" class="node">
<title>Node3</title>
<g id="a_node3"><a xlink:href="classRstSync.html" target="_top" xlink:title=" ">
<polygon fill="white" stroke="black" points="145.5,-228.5 145.5,-247.5 201.5,-247.5 201.5,-228.5 145.5,-228.5"/>
<text text-anchor="middle" x="173.5" y="-235.5" font-family="Helvetica,sans-Serif" font-size="10.00">RstSync</text>
</a>
</g>
</g>
<!-- Node3&#45;&gt;Node2 -->
<g id="edge2" class="edge">
<title>Node3&#45;&gt;Node2</title>
<path fill="none" stroke="midnightblue" d="M212.01,-238C228.52,-238 248.33,-238 266.8,-238"/>
<polygon fill="midnightblue" stroke="midnightblue" points="211.67,-234.5 201.67,-238 211.67,-241.5 211.67,-234.5"/>
</g>
<!-- Node7 -->
<g id="node7" class="node">
<title>Node7</title>
<g id="a_node7"><a xlink:href="classFifoAsync.html" target="_top" xlink:title=" ">
<polygon fill="white" stroke="black" points="295.5,-123.5 295.5,-142.5 359.5,-142.5 359.5,-123.5 295.5,-123.5"/>
<text text-anchor="middle" x="327.5" y="-130.5" font-family="Helvetica,sans-Serif" font-size="10.00">FifoAsync</text>
</a>
</g>
</g>
<!-- Node3&#45;&gt;Node7 -->
<g id="edge8" class="edge">
<title>Node3&#45;&gt;Node7</title>
<path fill="none" stroke="midnightblue" d="M210.75,-224.53C217.66,-221.43 224.7,-217.88 231,-214 265.79,-192.55 300.99,-158.92 317.23,-142.57"/>
<polygon fill="midnightblue" stroke="midnightblue" points="209.31,-221.34 201.48,-228.47 212.05,-227.78 209.31,-221.34"/>
</g>
<!-- Node4 -->
<g id="node4" class="node">
<title>Node4</title>
<g id="a_node4"><a xlink:href="classSynchronizer.html" target="_top" xlink:title=" ">
<polygon fill="white" stroke="black" points="0,-228.5 0,-247.5 80,-247.5 80,-228.5 0,-228.5"/>
<text text-anchor="middle" x="40" y="-235.5" font-family="Helvetica,sans-Serif" font-size="10.00">Synchronizer</text>
</a>
</g>
</g>
<!-- Node4&#45;&gt;Node3 -->
<g id="edge3" class="edge">
<title>Node4&#45;&gt;Node3</title>
<path fill="none" stroke="midnightblue" d="M90.24,-238C108.93,-238 129.52,-238 145.43,-238"/>
<polygon fill="midnightblue" stroke="midnightblue" points="90.1,-234.5 80.1,-238 90.1,-241.5 90.1,-234.5"/>
</g>
<!-- Node5 -->
<g id="node5" class="node">
<title>Node5</title>
<g id="a_node5"><a xlink:href="classSynchronizerEdge.html" target="_top" xlink:title=" ">
<polygon fill="white" stroke="black" points="121.5,-266.5 121.5,-285.5 225.5,-285.5 225.5,-266.5 121.5,-266.5"/>
<text text-anchor="middle" x="173.5" y="-273.5" font-family="Helvetica,sans-Serif" font-size="10.00">SynchronizerEdge</text>
</a>
</g>
</g>
<!-- Node4&#45;&gt;Node5 -->
<g id="edge5" class="edge">
<title>Node4&#45;&gt;Node5</title>
<path fill="none" stroke="midnightblue" d="M83.88,-250.39C101.89,-255.59 122.51,-261.55 139.33,-266.41"/>
<polygon fill="midnightblue" stroke="midnightblue" points="84.76,-247 74.18,-247.59 82.82,-253.73 84.76,-247"/>
</g>
<!-- Node4&#45;&gt;Node7 -->
<g id="edge10" class="edge">
<title>Node4&#45;&gt;Node7</title>
<path fill="none" stroke="midnightblue" d="M89.88,-225.85C128.74,-215.6 184.15,-199.64 231,-181 259.45,-169.68 290.9,-153.01 309.66,-142.59"/>
<polygon fill="midnightblue" stroke="midnightblue" points="88.67,-222.55 79.88,-228.46 90.44,-229.32 88.67,-222.55"/>
</g>
<!-- Node5&#45;&gt;Node2 -->
<g id="edge4" class="edge">
<title>Node5&#45;&gt;Node2</title>
<path fill="none" stroke="midnightblue" d="M222.66,-263.96C243.9,-258.65 268.5,-252.5 288.42,-247.52"/>
<polygon fill="midnightblue" stroke="midnightblue" points="221.71,-260.59 212.86,-266.41 223.41,-267.38 221.71,-260.59"/>
</g>
<!-- Node6 -->
<g id="node6" class="node">
<title>Node6</title>
<g id="a_node6"><a xlink:href="classSynchronizerFifo.html" target="_top" xlink:title=" ">
<polygon fill="white" stroke="black" points="424,-133.5 424,-152.5 522,-152.5 522,-133.5 424,-133.5"/>
<text text-anchor="middle" x="473" y="-140.5" font-family="Helvetica,sans-Serif" font-size="10.00">SynchronizerFifo</text>
</a>
</g>
</g>
<!-- Node6&#45;&gt;Node1 -->
<g id="edge6" class="edge">
<title>Node6&#45;&gt;Node1</title>
<path fill="none" stroke="midnightblue" d="M532.22,-151.68C540.84,-152.96 549.59,-154.26 557.84,-155.49"/>
<polygon fill="midnightblue" stroke="midnightblue" points="532.61,-148.2 522.2,-150.18 531.58,-155.12 532.61,-148.2"/>
</g>
<!-- Node7&#45;&gt;Node6 -->
<g id="edge7" class="edge">
<title>Node7&#45;&gt;Node6</title>
<path fill="none" stroke="midnightblue" d="M369.78,-135.88C386.71,-137.06 406.42,-138.43 423.99,-139.65"/>
<polygon fill="midnightblue" stroke="midnightblue" points="369.86,-132.37 359.64,-135.17 369.37,-139.36 369.86,-132.37"/>
</g>
<!-- Node8 -->
<g id="node8" class="node">
<title>Node8</title>
<g id="a_node8"><a xlink:href="classSynchronizerVector.html" target="_top" xlink:title=" ">
<polygon fill="white" stroke="black" points="118.5,-152.5 118.5,-171.5 228.5,-171.5 228.5,-152.5 118.5,-152.5"/>
<text text-anchor="middle" x="173.5" y="-159.5" font-family="Helvetica,sans-Serif" font-size="10.00">SynchronizerVector</text>
</a>
</g>
</g>
<!-- Node8&#45;&gt;Node7 -->
<g id="edge9" class="edge">
<title>Node8&#45;&gt;Node7</title>
<path fill="none" stroke="midnightblue" d="M234.73,-150.51C255.51,-146.54 277.94,-142.27 295.42,-138.93"/>
<polygon fill="midnightblue" stroke="midnightblue" points="233.86,-147.11 224.69,-152.42 235.17,-153.99 233.86,-147.11"/>
</g>
<!-- Node9 -->
<g id="node9" class="node">
<title>Node9</title>
<g id="a_node9"><a xlink:href="classFifoWrFsm.html" target="_top" xlink:title=" ">
<polygon fill="white" stroke="black" points="139,-114.5 139,-133.5 208,-133.5 208,-114.5 139,-114.5"/>
<text text-anchor="middle" x="173.5" y="-121.5" font-family="Helvetica,sans-Serif" font-size="10.00">FifoWrFsm</text>
</a>
</g>
</g>
<!-- Node9&#45;&gt;Node7 -->
<g id="edge11" class="edge">
<title>Node9&#45;&gt;Node7</title>
<path fill="none" stroke="midnightblue" d="M218.42,-126.6C243.08,-128.06 273.26,-129.85 295.45,-131.16"/>
<polygon fill="midnightblue" stroke="midnightblue" points="218.42,-123.09 208.23,-126 218.01,-130.08 218.42,-123.09"/>
</g>
<!-- Node10 -->
<g id="node10" class="node">
<title>Node10</title>
<g id="a_node10"><a xlink:href="classFifoRdFsm.html" target="_top" xlink:title=" ">
<polygon fill="white" stroke="black" points="139.5,-76.5 139.5,-95.5 207.5,-95.5 207.5,-76.5 139.5,-76.5"/>
<text text-anchor="middle" x="173.5" y="-83.5" font-family="Helvetica,sans-Serif" font-size="10.00">FifoRdFsm</text>
</a>
</g>
</g>
<!-- Node10&#45;&gt;Node7 -->
<g id="edge12" class="edge">
<title>Node10&#45;&gt;Node7</title>
<path fill="none" stroke="midnightblue" d="M214.93,-98.5C240.21,-106.32 272.27,-116.23 295.53,-123.42"/>
<polygon fill="midnightblue" stroke="midnightblue" points="215.85,-95.12 205.26,-95.51 213.78,-101.81 215.85,-95.12"/>
</g>
<!-- Node11 -->
<g id="node11" class="node">
<title>Node11</title>
<g id="a_node11"><a xlink:href="classSimpleDualPortRam.html" target="_top" xlink:title=" ">
<polygon fill="white" stroke="black" points="116,-38.5 116,-57.5 231,-57.5 231,-38.5 116,-38.5"/>
<text text-anchor="middle" x="173.5" y="-45.5" font-family="Helvetica,sans-Serif" font-size="10.00">SimpleDualPortRam</text>
</a>
</g>
</g>
<!-- Node11&#45;&gt;Node7 -->
<g id="edge13" class="edge">
<title>Node11&#45;&gt;Node7</title>
<path fill="none" stroke="midnightblue" d="M217.5,-61.04C222.13,-62.86 226.72,-64.85 231,-67 263.43,-83.25 297.47,-109.28 314.82,-123.3"/>
<polygon fill="midnightblue" stroke="midnightblue" points="218.59,-57.71 207.99,-57.54 216.17,-64.28 218.59,-57.71"/>
</g>
<!-- Node12 -->
<g id="node12" class="node">
<title>Node12</title>
<g id="a_node12"><a xlink:href="classFifoOutputPipeline.html" target="_top" xlink:title=" ">
<polygon fill="white" stroke="black" points="120,-0.5 120,-19.5 227,-19.5 227,-0.5 120,-0.5"/>
<text text-anchor="middle" x="173.5" y="-7.5" font-family="Helvetica,sans-Serif" font-size="10.00">FifoOutputPipeline</text>
</a>
</g>
</g>
<!-- Node12&#45;&gt;Node7 -->
<g id="edge14" class="edge">
<title>Node12&#45;&gt;Node7</title>
<path fill="none" stroke="midnightblue" d="M221.16,-23.54C224.59,-25.18 227.91,-26.99 231,-29 271.7,-55.44 306.57,-103.2 320.28,-123.48"/>
<polygon fill="midnightblue" stroke="midnightblue" points="222.48,-20.3 211.91,-19.6 219.74,-26.74 222.48,-20.3"/>
</g>
<!-- Node14 -->
<g id="node14" class="node">
<title>Node14</title>
<g id="a_node14"><a xlink:href="classJesd204bRx.html" target="_top" xlink:title=" ">
<polygon fill="white" stroke="black" points="787,-171.5 787,-190.5 861,-190.5 861,-171.5 787,-171.5"/>
<text text-anchor="middle" x="824" y="-178.5" font-family="Helvetica,sans-Serif" font-size="10.00">Jesd204bRx</text>
</a>
</g>
</g>
<!-- Node13&#45;&gt;Node14 -->
<g id="edge16" class="edge">
<title>Node13&#45;&gt;Node14</title>
<path fill="none" stroke="midnightblue" d="M761.3,-181C769.75,-181 778.53,-181 786.72,-181"/>
<polygon fill="midnightblue" stroke="midnightblue" points="761.22,-177.5 751.22,-181 761.22,-184.5 761.22,-177.5"/>
</g>
<!-- Node15 -->
<g id="node15" class="node">
<title>Node15</title>
<g id="a_node15"><a xlink:href="classJesd204bTb.html" target="_top" xlink:title=" ">
<polygon fill="white" stroke="black" points="897,-152.5 897,-171.5 970,-171.5 970,-152.5 897,-152.5"/>
<text text-anchor="middle" x="933.5" y="-159.5" font-family="Helvetica,sans-Serif" font-size="10.00">Jesd204bTb</text>
</a>
</g>
</g>
<!-- Node14&#45;&gt;Node15 -->
<g id="edge17" class="edge">
<title>Node14&#45;&gt;Node15</title>
<path fill="none" stroke="midnightblue" d="M871,-172.87C879.59,-171.35 888.46,-169.78 896.68,-168.33"/>
<polygon fill="midnightblue" stroke="midnightblue" points="870.33,-169.43 861.09,-174.62 871.55,-176.33 870.33,-169.43"/>
</g>
<!-- Node17 -->
<g id="node17" class="node">
<title>Node17</title>
<g id="a_node17"><a xlink:href="classJesd204bTx.html" target="_top" xlink:title=" ">
<polygon fill="white" stroke="black" points="787.5,-133.5 787.5,-152.5 860.5,-152.5 860.5,-133.5 787.5,-133.5"/>
<text text-anchor="middle" x="824" y="-140.5" font-family="Helvetica,sans-Serif" font-size="10.00">Jesd204bTx</text>
</a>
</g>
</g>
<!-- Node16&#45;&gt;Node17 -->
<g id="edge19" class="edge">
<title>Node16&#45;&gt;Node17</title>
<path fill="none" stroke="midnightblue" d="M761.24,-143C769.96,-143 779.03,-143 787.45,-143"/>
<polygon fill="midnightblue" stroke="midnightblue" points="761.22,-139.5 751.22,-143 761.22,-146.5 761.22,-139.5"/>
</g>
<!-- Node17&#45;&gt;Node15 -->
<g id="edge20" class="edge">
<title>Node17&#45;&gt;Node15</title>
<path fill="none" stroke="midnightblue" d="M870.83,-151.1C879.54,-152.64 888.53,-154.23 896.86,-155.7"/>
<polygon fill="midnightblue" stroke="midnightblue" points="871.25,-147.62 860.8,-149.33 870.03,-154.51 871.25,-147.62"/>
</g>
</g>
</svg>
        <g id="navigator" transform="translate(0 0)" fill="#404254">
                <rect fill="#f2f5e9" fill-opacity="0.5" stroke="#606060" stroke-width=".5" x="0" y="0" width="60" height="60"/>
                <use id="zoomplus" xlink:href="#zoomPlus" x="17" y="9" onmousedown="handleZoom(evt,'in')"/>
                <use id="zoomminus" xlink:href="#zoomMin" x="42" y="9" onmousedown="handleZoom(evt,'out')"/>
                <use id="reset" xlink:href="#resetDef" x="30" y="36" onmousedown="handleReset()"/>
                <g id="arrowUp" xlink:href="#dirArrow" transform="translate(30 24)" onmousedown="handlePan(0,-1)">
                  <use xlink:href="#rim" fill="#404040">
                        <set attributeName="fill" to="#808080" begin="arrowUp.mouseover" end="arrowUp.mouseout"/>
                  </use>
                  <path fill="none" stroke="white" stroke-width="1.5" d="M0,-3.0v7 M-2.5,-0.5L0,-3.0L2.5,-0.5"/>
                </g>
                <g id="arrowRight" xlink:href="#dirArrow" transform="rotate(90) translate(36 -43)" onmousedown="handlePan(1,0)">
                  <use xlink:href="#rim" fill="#404040">
                        <set attributeName="fill" to="#808080" begin="arrowRight.mouseover" end="arrowRight.mouseout"/>
                  </use>
                  <path fill="none" stroke="white" stroke-width="1.5" d="M0,-3.0v7 M-2.5,-0.5L0,-3.0L2.5,-0.5"/>
                </g>
                <g id="arrowDown" xlink:href="#dirArrow" transform="rotate(180) translate(-30 -48)" onmousedown="handlePan(0,1)">
                  <use xlink:href="#rim" fill="#404040">
                        <set attributeName="fill" to="#808080" begin="arrowDown.mouseover" end="arrowDown.mouseout"/>
                  </use>
                  <path fill="none" stroke="white" stroke-width="1.5" d="M0,-3.0v7 M-2.5,-0.5L0,-3.0L2.5,-0.5"/>
                </g>
                <g id="arrowLeft" xlink:href="#dirArrow" transform="rotate(270) translate(-36 17)" onmousedown="handlePan(-1,0)">
                  <use xlink:href="#rim" fill="#404040">
                        <set attributeName="fill" to="#808080" begin="arrowLeft.mouseover" end="arrowLeft.mouseout"/>
                  </use>
                  <path fill="none" stroke="white" stroke-width="1.5" d="M0,-3.0v7 M-2.5,-0.5L0,-3.0L2.5,-0.5"/>
                </g>
        </g>
        <svg viewBox="0 0 15 15" width="100%" height="30px" preserveAspectRatio="xMaxYMin meet">
         <g id="arrow_out" transform="scale(0.3 0.3)">
          <a xlink:href="classJesdSysrefMon__inherit__graph_org.svg" target="_base">
           <rect id="button" ry="5" rx="5" y="6" x="6" height="38" width="38"
                fill="#f2f5e9" fill-opacity="0.5" stroke="#606060" stroke-width="1.0"/>
           <path id="arrow"
             d="M 11.500037,31.436501 C 11.940474,20.09759 22.043105,11.32322 32.158766,21.979434 L 37.068811,17.246167 C 37.068811,17.246167 37.088388,32 37.088388,32 L 22.160133,31.978069 C 22.160133,31.978069 26.997745,27.140456 26.997745,27.140456 C 18.528582,18.264221 13.291696,25.230495 11.500037,31.436501 z"
             style="fill:#404040;"/>
          </a>
         </g>
        </svg>
</svg>
