<?xml version="1.0" encoding="UTF-8" standalone="no"?>
<!DOCTYPE svg PUBLIC "-//W3C//DTD SVG 1.1//EN"
 "http://www.w3.org/Graphics/SVG/1.1/DTD/svg11.dtd">
<!-- Generated by graphviz version 2.43.0 (0)
 -->
<!-- Title: Ad9249Deserializer Pages: 1 -->
<svg width="315pt" height="192pt"
 viewBox="0.00 0.00 314.50 192.00" xmlns="http://www.w3.org/2000/svg" xmlns:xlink="http://www.w3.org/1999/xlink">
<g id="graph0" class="graph" transform="scale(1 1) rotate(0) translate(4 188)">
<title>Ad9249Deserializer</title>
<!-- Node1 -->
<g id="Node000001" class="node">
<title>Node1</title>
<g id="a_Node000001"><a xlink:title=" ">
<polygon fill="#999999" stroke="#666666" points="226,-74 114,-74 114,-55 226,-55 226,-74"/>
<text text-anchor="middle" x="170" y="-62" font-family="Helvetica,sans-Serif" font-size="10.00">Ad9249Deserializer</text>
</a>
</g>
</g>
<!-- Node6 -->
<g id="Node000006" class="node">
<title>Node6</title>
<g id="a_Node000006"><a xlink:href="classAd9249ReadoutGroup.html" target="_top" xlink:title=" ">
<polygon fill="white" stroke="#bfbfbf" points="159.5,-19 36.5,-19 36.5,0 159.5,0 159.5,-19"/>
<text text-anchor="middle" x="98" y="-7" font-family="Helvetica,sans-Serif" font-size="10.00">Ad9249ReadoutGroup</text>
</a>
</g>
</g>
<!-- Node1&#45;&gt;Node6 -->
<g id="edge6_Node000001_Node000006" class="edge">
<title>Node1&#45;&gt;Node6</title>
<g id="a_edge6_Node000001_Node000006"><a xlink:title=" ">
<path fill="none" stroke="#63b8ff" d="M150.13,-48.88C137.18,-39.34 120.7,-27.21 109.78,-19.17"/>
<polygon fill="#63b8ff" stroke="#63b8ff" points="148.3,-51.88 158.43,-54.98 152.45,-46.24 148.3,-51.88"/>
</a>
</g>
</g>
<!-- Node7 -->
<g id="Node000007" class="node">
<title>Node7</title>
<g id="a_Node000007"><a xlink:href="classAd9249ReadoutGroup2.html" target="_top" xlink:title=" ">
<polygon fill="white" stroke="#bfbfbf" points="306.5,-19 177.5,-19 177.5,0 306.5,0 306.5,-19"/>
<text text-anchor="middle" x="242" y="-7" font-family="Helvetica,sans-Serif" font-size="10.00">Ad9249ReadoutGroup2</text>
</a>
</g>
</g>
<!-- Node1&#45;&gt;Node7 -->
<g id="edge7_Node000001_Node000007" class="edge">
<title>Node1&#45;&gt;Node7</title>
<g id="a_edge7_Node000001_Node000007"><a xlink:title=" ">
<path fill="none" stroke="#63b8ff" d="M189.87,-48.88C202.82,-39.34 219.3,-27.21 230.22,-19.17"/>
<polygon fill="#63b8ff" stroke="#63b8ff" points="187.55,-46.24 181.57,-54.98 191.7,-51.88 187.55,-46.24"/>
</a>
</g>
</g>
<!-- Node2 -->
<g id="Node000002" class="node">
<title>Node2</title>
<g id="a_Node000002"><a xlink:href="classIdelaye3Wrapper.html" target="_top" xlink:title=" ">
<polygon fill="white" stroke="#bfbfbf" points="100,-129 0,-129 0,-110 100,-110 100,-129"/>
<text text-anchor="middle" x="50" y="-117" font-family="Helvetica,sans-Serif" font-size="10.00">Idelaye3Wrapper</text>
</a>
</g>
</g>
<!-- Node2&#45;&gt;Node1 -->
<g id="edge1_Node000001_Node000002" class="edge">
<title>Node2&#45;&gt;Node1</title>
<g id="a_edge1_Node000001_Node000002"><a xlink:title=" ">
<path fill="none" stroke="#63b8ff" d="M78.53,-105.9C100.7,-96.11 130.85,-82.79 150.37,-74.17"/>
<polygon fill="#63b8ff" stroke="#63b8ff" points="77.01,-102.74 69.28,-109.98 79.84,-109.15 77.01,-102.74"/>
</a>
</g>
</g>
<!-- Node3 -->
<g id="Node000003" class="node">
<title>Node3</title>
<g id="a_Node000003"><a xlink:href="classDelaye3PatchFsm.html" target="_top" xlink:title=" ">
<polygon fill="white" stroke="#bfbfbf" points="162,-184 58,-184 58,-165 162,-165 162,-184"/>
<text text-anchor="middle" x="110" y="-172" font-family="Helvetica,sans-Serif" font-size="10.00">Delaye3PatchFsm</text>
</a>
</g>
</g>
<!-- Node3&#45;&gt;Node2 -->
<g id="edge2_Node000002_Node000003" class="edge">
<title>Node3&#45;&gt;Node2</title>
<g id="a_edge2_Node000002_Node000003"><a xlink:title=" ">
<path fill="none" stroke="#63b8ff" d="M92.82,-158.32C82.12,-148.87 68.74,-137.06 59.82,-129.17"/>
<polygon fill="#63b8ff" stroke="#63b8ff" points="90.55,-160.99 100.36,-164.98 95.18,-155.74 90.55,-160.99"/>
</a>
</g>
</g>
<!-- Node4 -->
<g id="Node000004" class="node">
<title>Node4</title>
<g id="a_Node000004"><a xlink:href="classOdelaye3Wrapper.html" target="_top" xlink:title=" ">
<polygon fill="white" stroke="#bfbfbf" points="222,-129 118,-129 118,-110 222,-110 222,-129"/>
<text text-anchor="middle" x="170" y="-117" font-family="Helvetica,sans-Serif" font-size="10.00">Odelaye3Wrapper</text>
</a>
</g>
</g>
<!-- Node3&#45;&gt;Node4 -->
<g id="edge4_Node000004_Node000003" class="edge">
<title>Node3&#45;&gt;Node4</title>
<g id="a_edge4_Node000004_Node000003"><a xlink:title=" ">
<path fill="none" stroke="#63b8ff" d="M127.18,-158.32C137.88,-148.87 151.26,-137.06 160.18,-129.17"/>
<polygon fill="#63b8ff" stroke="#63b8ff" points="124.82,-155.74 119.64,-164.98 129.45,-160.99 124.82,-155.74"/>
</a>
</g>
</g>
<!-- Node4&#45;&gt;Node1 -->
<g id="edge3_Node000001_Node000004" class="edge">
<title>Node4&#45;&gt;Node1</title>
<g id="a_edge3_Node000001_Node000004"><a xlink:title=" ">
<path fill="none" stroke="#63b8ff" d="M170,-99.66C170,-90.93 170,-80.99 170,-74.09"/>
<polygon fill="#63b8ff" stroke="#63b8ff" points="166.5,-99.75 170,-109.75 173.5,-99.75 166.5,-99.75"/>
</a>
</g>
</g>
<!-- Node5 -->
<g id="Node000005" class="node">
<title>Node5</title>
<g id="a_Node000005"><a xlink:href="classGearbox.html" target="_top" xlink:title=" ">
<polygon fill="white" stroke="#bfbfbf" points="298,-129 240,-129 240,-110 298,-110 298,-129"/>
<text text-anchor="middle" x="269" y="-117" font-family="Helvetica,sans-Serif" font-size="10.00">Gearbox</text>
</a>
</g>
</g>
<!-- Node5&#45;&gt;Node1 -->
<g id="edge5_Node000001_Node000005" class="edge">
<title>Node5&#45;&gt;Node1</title>
<g id="a_edge5_Node000001_Node000005"><a xlink:title=" ">
<path fill="none" stroke="#63b8ff" d="M244.22,-105.23C226.06,-95.51 201.94,-82.6 186.2,-74.17"/>
<polygon fill="#63b8ff" stroke="#63b8ff" points="242.63,-108.35 253.09,-109.98 245.93,-102.18 242.63,-108.35"/>
</a>
</g>
</g>
</g>
</svg>
