<?xml version="1.0" encoding="UTF-8" standalone="no"?>
<!DOCTYPE svg PUBLIC "-//W3C//DTD SVG 1.1//EN"
 "http://www.w3.org/Graphics/SVG/1.1/DTD/svg11.dtd">
<!-- Generated by graphviz version 2.43.0 (0)
 -->
<!-- Title: Iprog7Series Pages: 1 -->
<svg width="994pt" height="180pt"
 viewBox="0.00 0.00 994.00 180.00" xmlns="http://www.w3.org/2000/svg" xmlns:xlink="http://www.w3.org/1999/xlink">
<g id="graph0" class="graph" transform="scale(1 1) rotate(0) translate(4 176)">
<title>Iprog7Series</title>
<polygon fill="white" stroke="transparent" points="-4,4 -4,-176 990,-176 990,4 -4,4"/>
<!-- Node1 -->
<g id="node1" class="node">
<title>Node1</title>
<g id="a_node1"><a xlink:title=" ">
<polygon fill="#bfbfbf" stroke="black" points="398,-57.5 398,-76.5 475,-76.5 475,-57.5 398,-57.5"/>
<text text-anchor="middle" x="436.5" y="-64.5" font-family="Helvetica,sans-Serif" font-size="10.00">Iprog7Series</text>
</a>
</g>
</g>
<!-- Node7 -->
<g id="node7" class="node">
<title>Node7</title>
<g id="a_node7"><a xlink:href="classIprog.html" target="_top" xlink:title=" ">
<polygon fill="white" stroke="black" points="511,-57.5 511,-76.5 552,-76.5 552,-57.5 511,-57.5"/>
<text text-anchor="middle" x="531.5" y="-64.5" font-family="Helvetica,sans-Serif" font-size="10.00">Iprog</text>
</a>
</g>
</g>
<!-- Node1&#45;&gt;Node7 -->
<g id="edge7" class="edge">
<title>Node1&#45;&gt;Node7</title>
<path fill="none" stroke="midnightblue" d="M485.27,-67C494.35,-67 503.37,-67 510.94,-67"/>
<polygon fill="midnightblue" stroke="midnightblue" points="485.06,-63.5 475.06,-67 485.06,-70.5 485.06,-63.5"/>
</g>
<!-- Node2 -->
<g id="node2" class="node">
<title>Node2</title>
<g id="a_node2"><a xlink:href="classRstSync.html" target="_top" xlink:title=" ">
<polygon fill="white" stroke="black" points="284,-76.5 284,-95.5 340,-95.5 340,-76.5 284,-76.5"/>
<text text-anchor="middle" x="312" y="-83.5" font-family="Helvetica,sans-Serif" font-size="10.00">RstSync</text>
</a>
</g>
</g>
<!-- Node2&#45;&gt;Node1 -->
<g id="edge1" class="edge">
<title>Node2&#45;&gt;Node1</title>
<path fill="none" stroke="midnightblue" d="M350.18,-80.23C365.23,-77.9 382.59,-75.21 397.7,-72.86"/>
<polygon fill="midnightblue" stroke="midnightblue" points="349.53,-76.79 340.19,-81.78 350.61,-83.71 349.53,-76.79"/>
</g>
<!-- Node3 -->
<g id="node3" class="node">
<title>Node3</title>
<g id="a_node3"><a xlink:href="classSynchronizer.html" target="_top" xlink:title=" ">
<polygon fill="white" stroke="black" points="0,-57.5 0,-76.5 80,-76.5 80,-57.5 0,-57.5"/>
<text text-anchor="middle" x="40" y="-64.5" font-family="Helvetica,sans-Serif" font-size="10.00">Synchronizer</text>
</a>
</g>
</g>
<!-- Node3&#45;&gt;Node2 -->
<g id="edge2" class="edge">
<title>Node3&#45;&gt;Node2</title>
<path fill="none" stroke="midnightblue" d="M90.47,-70.48C147.4,-74.49 238.83,-80.92 283.98,-84.1"/>
<polygon fill="midnightblue" stroke="midnightblue" points="90.48,-66.97 80.26,-69.76 89.99,-73.96 90.48,-66.97"/>
</g>
<!-- Node6 -->
<g id="node6" class="node">
<title>Node6</title>
<g id="a_node6"><a xlink:href="classSynchronizerEdge.html" target="_top" xlink:title=" ">
<polygon fill="white" stroke="black" points="119,-38.5 119,-57.5 223,-57.5 223,-38.5 119,-38.5"/>
<text text-anchor="middle" x="171" y="-45.5" font-family="Helvetica,sans-Serif" font-size="10.00">SynchronizerEdge</text>
</a>
</g>
</g>
<!-- Node3&#45;&gt;Node6 -->
<g id="edge6" class="edge">
<title>Node3&#45;&gt;Node6</title>
<path fill="none" stroke="midnightblue" d="M90.01,-59.78C99.39,-58.4 109.23,-56.95 118.68,-55.56"/>
<polygon fill="midnightblue" stroke="midnightblue" points="89.44,-56.33 80.05,-61.25 90.46,-63.25 89.44,-56.33"/>
</g>
<!-- Node4 -->
<g id="node4" class="node">
<title>Node4</title>
<g id="a_node4"><a xlink:href="classIprog7SeriesCore.html" target="_top" xlink:title=" ">
<polygon fill="white" stroke="black" points="262,-38.5 262,-57.5 362,-57.5 362,-38.5 262,-38.5"/>
<text text-anchor="middle" x="312" y="-45.5" font-family="Helvetica,sans-Serif" font-size="10.00">Iprog7SeriesCore</text>
</a>
</g>
</g>
<!-- Node4&#45;&gt;Node1 -->
<g id="edge3" class="edge">
<title>Node4&#45;&gt;Node1</title>
<path fill="none" stroke="midnightblue" d="M372.22,-57.19C380.89,-58.53 389.61,-59.88 397.69,-61.14"/>
<polygon fill="midnightblue" stroke="midnightblue" points="372.54,-53.69 362.12,-55.62 371.46,-60.61 372.54,-53.69"/>
</g>
<!-- Node5 -->
<g id="node5" class="node">
<title>Node5</title>
<g id="a_node5"><a xlink:href="classSynchronizerVector.html" target="_top" xlink:title=" ">
<polygon fill="white" stroke="black" points="116,-0.5 116,-19.5 226,-19.5 226,-0.5 116,-0.5"/>
<text text-anchor="middle" x="171" y="-7.5" font-family="Helvetica,sans-Serif" font-size="10.00">SynchronizerVector</text>
</a>
</g>
</g>
<!-- Node5&#45;&gt;Node4 -->
<g id="edge4" class="edge">
<title>Node5&#45;&gt;Node4</title>
<path fill="none" stroke="midnightblue" d="M216.8,-22.25C235.95,-27.48 257.99,-33.51 275.94,-38.41"/>
<polygon fill="midnightblue" stroke="midnightblue" points="217.64,-18.85 207.08,-19.59 215.8,-25.6 217.64,-18.85"/>
</g>
<!-- Node6&#45;&gt;Node4 -->
<g id="edge5" class="edge">
<title>Node6&#45;&gt;Node4</title>
<path fill="none" stroke="midnightblue" d="M233.49,-48C242.93,-48 252.57,-48 261.7,-48"/>
<polygon fill="midnightblue" stroke="midnightblue" points="233.36,-44.5 223.36,-48 233.36,-51.5 233.36,-44.5"/>
</g>
<!-- Node8 -->
<g id="node8" class="node">
<title>Node8</title>
<g id="a_node8"><a xlink:href="classAxiVersion.html" target="_top" xlink:title=" ">
<polygon fill="white" stroke="black" points="605.5,-76.5 605.5,-95.5 673.5,-95.5 673.5,-76.5 605.5,-76.5"/>
<text text-anchor="middle" x="639.5" y="-83.5" font-family="Helvetica,sans-Serif" font-size="10.00">AxiVersion</text>
</a>
</g>
</g>
<!-- Node7&#45;&gt;Node8 -->
<g id="edge8" class="edge">
<title>Node7&#45;&gt;Node8</title>
<path fill="none" stroke="midnightblue" d="M562.54,-72.38C575.88,-74.78 591.63,-77.6 605.32,-80.05"/>
<polygon fill="midnightblue" stroke="midnightblue" points="562.9,-68.89 552.44,-70.57 561.66,-75.78 562.9,-68.89"/>
</g>
<!-- Node15 -->
<g id="node15" class="node">
<title>Node15</title>
<g id="a_node15"><a xlink:href="classAxiVersionLegacy.html" target="_top" xlink:title=" ">
<polygon fill="white" stroke="black" points="588,-38.5 588,-57.5 691,-57.5 691,-38.5 588,-38.5"/>
<text text-anchor="middle" x="639.5" y="-45.5" font-family="Helvetica,sans-Serif" font-size="10.00">AxiVersionLegacy</text>
</a>
</g>
</g>
<!-- Node7&#45;&gt;Node15 -->
<g id="edge15" class="edge">
<title>Node7&#45;&gt;Node15</title>
<path fill="none" stroke="midnightblue" d="M562.31,-61.66C570.25,-60.23 579.07,-58.65 587.8,-57.09"/>
<polygon fill="midnightblue" stroke="midnightblue" points="561.66,-58.22 552.44,-63.43 562.9,-65.11 561.66,-58.22"/>
</g>
<!-- Node9 -->
<g id="node9" class="node">
<title>Node9</title>
<g id="a_node9"><a xlink:href="classAxiLiteIpBusBridgeTb.html" target="_top" xlink:title=" ">
<polygon fill="white" stroke="black" points="742,-152.5 742,-171.5 863,-171.5 863,-152.5 742,-152.5"/>
<text text-anchor="middle" x="802.5" y="-159.5" font-family="Helvetica,sans-Serif" font-size="10.00">AxiLiteIpBusBridgeTb</text>
</a>
</g>
</g>
<!-- Node8&#45;&gt;Node9 -->
<g id="edge9" class="edge">
<title>Node8&#45;&gt;Node9</title>
<path fill="none" stroke="midnightblue" d="M660.35,-101.87C677.2,-114.63 702.49,-132.17 727,-143 735.55,-146.78 744.99,-149.91 754.2,-152.47"/>
<polygon fill="midnightblue" stroke="midnightblue" points="662.41,-99.03 652.35,-95.69 658.13,-104.57 662.41,-99.03"/>
</g>
<!-- Node10 -->
<g id="node10" class="node">
<title>Node10</title>
<g id="a_node10"><a xlink:href="classAxiVersionIpIntegrator.html" target="_top" xlink:title=" ">
<polygon fill="white" stroke="black" points="740,-114.5 740,-133.5 865,-133.5 865,-114.5 740,-114.5"/>
<text text-anchor="middle" x="802.5" y="-121.5" font-family="Helvetica,sans-Serif" font-size="10.00">AxiVersionIpIntegrator</text>
</a>
</g>
</g>
<!-- Node8&#45;&gt;Node10 -->
<g id="edge10" class="edge">
<title>Node8&#45;&gt;Node10</title>
<path fill="none" stroke="midnightblue" d="M683.77,-96.21C707.8,-101.88 737.5,-108.89 761.05,-114.45"/>
<polygon fill="midnightblue" stroke="midnightblue" points="684.4,-92.76 673.86,-93.87 682.79,-99.58 684.4,-92.76"/>
</g>
<!-- Node11 -->
<g id="node11" class="node">
<title>Node11</title>
<g id="a_node11"><a xlink:href="classAxiVersionTb.html" target="_top" xlink:title=" ">
<polygon fill="white" stroke="black" points="762.5,-76.5 762.5,-95.5 842.5,-95.5 842.5,-76.5 762.5,-76.5"/>
<text text-anchor="middle" x="802.5" y="-83.5" font-family="Helvetica,sans-Serif" font-size="10.00">AxiVersionTb</text>
</a>
</g>
</g>
<!-- Node8&#45;&gt;Node11 -->
<g id="edge11" class="edge">
<title>Node8&#45;&gt;Node11</title>
<path fill="none" stroke="midnightblue" d="M683.92,-86C708.32,-86 738.53,-86 762.22,-86"/>
<polygon fill="midnightblue" stroke="midnightblue" points="683.86,-82.5 673.86,-86 683.86,-89.5 683.86,-82.5"/>
</g>
<!-- Node12 -->
<g id="node12" class="node">
<title>Node12</title>
<g id="a_node12"><a xlink:href="classSrpV3AxiLiteTb.html" target="_top" xlink:title=" ">
<polygon fill="white" stroke="black" points="757,-38.5 757,-57.5 848,-57.5 848,-38.5 757,-38.5"/>
<text text-anchor="middle" x="802.5" y="-45.5" font-family="Helvetica,sans-Serif" font-size="10.00">SrpV3AxiLiteTb</text>
</a>
</g>
</g>
<!-- Node8&#45;&gt;Node12 -->
<g id="edge12" class="edge">
<title>Node8&#45;&gt;Node12</title>
<path fill="none" stroke="midnightblue" d="M683.77,-75.79C707.8,-70.12 737.5,-63.11 761.05,-57.55"/>
<polygon fill="midnightblue" stroke="midnightblue" points="682.79,-72.42 673.86,-78.13 684.4,-79.24 682.79,-72.42"/>
</g>
<!-- Node13 -->
<g id="node13" class="node">
<title>Node13</title>
<g id="a_node13"><a xlink:href="classSugoiSubordinateSimModel.html" target="_top" xlink:title=" ">
<polygon fill="white" stroke="black" points="727,-0.5 727,-19.5 878,-19.5 878,-0.5 727,-0.5"/>
<text text-anchor="middle" x="802.5" y="-7.5" font-family="Helvetica,sans-Serif" font-size="10.00">SugoiSubordinateSimModel</text>
</a>
</g>
</g>
<!-- Node8&#45;&gt;Node13 -->
<g id="edge13" class="edge">
<title>Node8&#45;&gt;Node13</title>
<path fill="none" stroke="midnightblue" d="M681.77,-72.3C684.98,-70.69 688.1,-68.92 691,-67 710.38,-54.13 706.94,-40.78 727,-29 733.56,-25.15 740.89,-22.07 748.33,-19.61"/>
<polygon fill="midnightblue" stroke="midnightblue" points="680.24,-69.15 672.56,-76.45 683.11,-75.54 680.24,-69.15"/>
</g>
<!-- Node14 -->
<g id="node14" class="node">
<title>Node14</title>
<g id="a_node14"><a xlink:href="classSugoiTopTb.html" target="_top" xlink:title=" ">
<polygon fill="white" stroke="black" points="914,-0.5 914,-19.5 986,-19.5 986,-0.5 914,-0.5"/>
<text text-anchor="middle" x="950" y="-7.5" font-family="Helvetica,sans-Serif" font-size="10.00">SugoiTopTb</text>
</a>
</g>
</g>
<!-- Node13&#45;&gt;Node14 -->
<g id="edge14" class="edge">
<title>Node13&#45;&gt;Node14</title>
<path fill="none" stroke="midnightblue" d="M888.5,-10C897.39,-10 906.04,-10 913.88,-10"/>
<polygon fill="midnightblue" stroke="midnightblue" points="888.38,-6.5 878.38,-10 888.38,-13.5 888.38,-6.5"/>
</g>
</g>
</svg>
