<?xml version="1.0" encoding="UTF-8" standalone="no"?>
<!DOCTYPE svg PUBLIC "-//W3C//DTD SVG 1.1//EN"
 "http://www.w3.org/Graphics/SVG/1.1/DTD/svg11.dtd">
<!-- Generated by graphviz version 2.43.0 (0)
 -->
<!-- Title: SynchronizerOneShotCnt Pages: 1 -->
<svg width="1543pt" height="585pt"
 viewBox="0.00 0.00 1543.00 585.00" xmlns="http://www.w3.org/2000/svg" xmlns:xlink="http://www.w3.org/1999/xlink">
<g id="graph0" class="graph" transform="scale(1 1) rotate(0) translate(4 581)">
<title>SynchronizerOneShotCnt</title>
<!-- Node1 -->
<g id="Node000001" class="node">
<title>Node1</title>
<g id="a_Node000001"><a xlink:title=" ">
<polygon fill="#999999" stroke="#666666" points="695,-222 558,-222 558,-203 695,-203 695,-222"/>
<text text-anchor="middle" x="626.5" y="-210" font-family="Helvetica,sans-Serif" font-size="10.00">SynchronizerOneShotCnt</text>
</a>
</g>
</g>
<!-- Node13 -->
<g id="Node000013" class="node">
<title>Node13</title>
<g id="a_Node000013"><a xlink:href="classSynchronizerOneShotCntVector.html" target="_top" xlink:title=" ">
<polygon fill="white" stroke="#bfbfbf" points="899,-296 731,-296 731,-277 899,-277 899,-296"/>
<text text-anchor="middle" x="815" y="-284" font-family="Helvetica,sans-Serif" font-size="10.00">SynchronizerOneShotCntVector</text>
</a>
</g>
</g>
<!-- Node1&#45;&gt;Node13 -->
<g id="edge15_Node000001_Node000013" class="edge">
<title>Node1&#45;&gt;Node13</title>
<g id="a_edge15_Node000001_Node000013"><a xlink:title=" ">
<path fill="none" stroke="#63b8ff" d="M650.55,-227.44C670.95,-240.05 701.93,-257.73 731,-268.5 739.99,-271.83 749.76,-274.63 759.34,-276.95"/>
<polygon fill="#63b8ff" stroke="#63b8ff" points="652.29,-224.4 641.96,-222.04 648.56,-230.33 652.29,-224.4"/>
</a>
</g>
</g>
<!-- Node111 -->
<g id="Node000111" class="node">
<title>Node111</title>
<g id="a_Node000111"><a xlink:href="classAd9249ReadoutGroup.html" target="_top" xlink:title=" ">
<polygon fill="white" stroke="#bfbfbf" points="876.5,-259 753.5,-259 753.5,-240 876.5,-240 876.5,-259"/>
<text text-anchor="middle" x="815" y="-247" font-family="Helvetica,sans-Serif" font-size="10.00">Ad9249ReadoutGroup</text>
</a>
</g>
</g>
<!-- Node1&#45;&gt;Node111 -->
<g id="edge52_Node000001_Node000111" class="edge">
<title>Node1&#45;&gt;Node111</title>
<g id="a_edge52_Node000001_Node000111"><a xlink:title=" ">
<path fill="none" stroke="#63b8ff" d="M685.55,-224.02C711.32,-229.13 741.3,-235.08 765.81,-239.94"/>
<polygon fill="#63b8ff" stroke="#63b8ff" points="686.02,-220.54 675.53,-222.03 684.66,-227.41 686.02,-220.54"/>
</a>
</g>
</g>
<!-- Node112 -->
<g id="Node000112" class="node">
<title>Node112</title>
<g id="a_Node000112"><a xlink:href="classAd9249ReadoutGroup2.html" target="_top" xlink:title=" ">
<polygon fill="white" stroke="#bfbfbf" points="879.5,-222 750.5,-222 750.5,-203 879.5,-203 879.5,-222"/>
<text text-anchor="middle" x="815" y="-210" font-family="Helvetica,sans-Serif" font-size="10.00">Ad9249ReadoutGroup2</text>
</a>
</g>
</g>
<!-- Node1&#45;&gt;Node112 -->
<g id="edge53_Node000001_Node000112" class="edge">
<title>Node1&#45;&gt;Node112</title>
<g id="a_edge53_Node000001_Node000112"><a xlink:title=" ">
<path fill="none" stroke="#63b8ff" d="M705.37,-212.5C720.36,-212.5 735.89,-212.5 750.36,-212.5"/>
<polygon fill="#63b8ff" stroke="#63b8ff" points="705.09,-209 695.09,-212.5 705.09,-216 705.09,-209"/>
</a>
</g>
</g>
<!-- Node113 -->
<g id="Node000113" class="node">
<title>Node113</title>
<g id="a_Node000113"><a xlink:href="classAd9681Readout.html" target="_top" xlink:title=" ">
<polygon fill="white" stroke="#bfbfbf" points="862,-185 768,-185 768,-166 862,-166 862,-185"/>
<text text-anchor="middle" x="815" y="-173" font-family="Helvetica,sans-Serif" font-size="10.00">Ad9681Readout</text>
</a>
</g>
</g>
<!-- Node1&#45;&gt;Node113 -->
<g id="edge54_Node000001_Node000113" class="edge">
<title>Node1&#45;&gt;Node113</title>
<g id="a_edge54_Node000001_Node000113"><a xlink:title=" ">
<path fill="none" stroke="#63b8ff" d="M685.44,-201.01C711.92,-195.75 742.85,-189.61 767.74,-184.68"/>
<polygon fill="#63b8ff" stroke="#63b8ff" points="684.66,-197.59 675.53,-202.97 686.02,-204.46 684.66,-197.59"/>
</a>
</g>
</g>
<!-- Node114 -->
<g id="Node000114" class="node">
<title>Node114</title>
<g id="a_Node000114"><a xlink:href="classAd9681ReadoutManual.html" target="_top" xlink:title=" ">
<polygon fill="white" stroke="#bfbfbf" points="880,-148 750,-148 750,-129 880,-129 880,-148"/>
<text text-anchor="middle" x="815" y="-136" font-family="Helvetica,sans-Serif" font-size="10.00">Ad9681ReadoutManual</text>
</a>
</g>
</g>
<!-- Node1&#45;&gt;Node114 -->
<g id="edge55_Node000001_Node000114" class="edge">
<title>Node1&#45;&gt;Node114</title>
<g id="a_edge55_Node000001_Node000114"><a xlink:title=" ">
<path fill="none" stroke="#63b8ff" d="M650.55,-197.56C670.95,-184.95 701.93,-167.27 731,-156.5 739.99,-153.17 749.76,-150.37 759.34,-148.05"/>
<polygon fill="#63b8ff" stroke="#63b8ff" points="648.56,-194.67 641.96,-202.96 652.29,-200.6 648.56,-194.67"/>
</a>
</g>
</g>
<!-- Node2 -->
<g id="Node000002" class="node">
<title>Node2</title>
<g id="a_Node000002"><a xlink:href="classSynchronizerOneShot.html" target="_top" xlink:title=" ">
<polygon fill="white" stroke="#bfbfbf" points="388,-287 267,-287 267,-268 388,-268 388,-287"/>
<text text-anchor="middle" x="327.5" y="-275" font-family="Helvetica,sans-Serif" font-size="10.00">SynchronizerOneShot</text>
</a>
</g>
</g>
<!-- Node2&#45;&gt;Node1 -->
<g id="edge1_Node000001_Node000002" class="edge">
<title>Node2&#45;&gt;Node1</title>
<g id="a_edge1_Node000001_Node000002"><a xlink:title=" ">
<path fill="none" stroke="#63b8ff" d="M381.94,-265.8C439.13,-253.29 528.78,-233.67 581.88,-222.05"/>
<polygon fill="#63b8ff" stroke="#63b8ff" points="381.02,-262.42 372,-267.98 382.52,-269.26 381.02,-262.42"/>
</a>
</g>
</g>
<!-- Node3 -->
<g id="Node000003" class="node">
<title>Node3</title>
<g id="a_Node000003"><a xlink:href="classRstSync.html" target="_top" xlink:title=" ">
<polygon fill="white" stroke="#bfbfbf" points="201.5,-287 145.5,-287 145.5,-268 201.5,-268 201.5,-287"/>
<text text-anchor="middle" x="173.5" y="-275" font-family="Helvetica,sans-Serif" font-size="10.00">RstSync</text>
</a>
</g>
</g>
<!-- Node3&#45;&gt;Node2 -->
<g id="edge2_Node000002_Node000003" class="edge">
<title>Node3&#45;&gt;Node2</title>
<g id="a_edge2_Node000002_Node000003"><a xlink:title=" ">
<path fill="none" stroke="#63b8ff" d="M212.01,-277.5C228.52,-277.5 248.33,-277.5 266.8,-277.5"/>
<polygon fill="#63b8ff" stroke="#63b8ff" points="211.67,-274 201.67,-277.5 211.67,-281 211.67,-274"/>
</a>
</g>
</g>
<!-- Node7 -->
<g id="Node000007" class="node">
<title>Node7</title>
<g id="a_Node000007"><a xlink:href="classFifoAsync.html" target="_top" xlink:title=" ">
<polygon fill="white" stroke="#bfbfbf" points="359.5,-193 295.5,-193 295.5,-174 359.5,-174 359.5,-193"/>
<text text-anchor="middle" x="327.5" y="-181" font-family="Helvetica,sans-Serif" font-size="10.00">FifoAsync</text>
</a>
</g>
</g>
<!-- Node3&#45;&gt;Node7 -->
<g id="edge8_Node000007_Node000003" class="edge">
<title>Node3&#45;&gt;Node7</title>
<g id="a_edge8_Node000007_Node000003"><a xlink:title=" ">
<path fill="none" stroke="#63b8ff" d="M211.41,-267.88C218.11,-265.54 224.9,-262.76 231,-259.5 265.96,-240.84 300.8,-208.89 317.04,-193.02"/>
<polygon fill="#63b8ff" stroke="#63b8ff" points="210.2,-264.6 201.75,-270.99 212.35,-271.26 210.2,-264.6"/>
</a>
</g>
</g>
<!-- Node4 -->
<g id="Node000004" class="node">
<title>Node4</title>
<g id="a_Node000004"><a xlink:href="classSynchronizer.html" target="_top" xlink:title=" ">
<polygon fill="white" stroke="#bfbfbf" points="80,-287 0,-287 0,-268 80,-268 80,-287"/>
<text text-anchor="middle" x="40" y="-275" font-family="Helvetica,sans-Serif" font-size="10.00">Synchronizer</text>
</a>
</g>
</g>
<!-- Node4&#45;&gt;Node3 -->
<g id="edge3_Node000003_Node000004" class="edge">
<title>Node4&#45;&gt;Node3</title>
<g id="a_edge3_Node000003_Node000004"><a xlink:title=" ">
<path fill="none" stroke="#63b8ff" d="M90.24,-277.5C108.93,-277.5 129.52,-277.5 145.43,-277.5"/>
<polygon fill="#63b8ff" stroke="#63b8ff" points="90.1,-274 80.1,-277.5 90.1,-281 90.1,-274"/>
</a>
</g>
</g>
<!-- Node5 -->
<g id="Node000005" class="node">
<title>Node5</title>
<g id="a_Node000005"><a xlink:href="classSynchronizerEdge.html" target="_top" xlink:title=" ">
<polygon fill="white" stroke="#bfbfbf" points="225.5,-324 121.5,-324 121.5,-305 225.5,-305 225.5,-324"/>
<text text-anchor="middle" x="173.5" y="-312" font-family="Helvetica,sans-Serif" font-size="10.00">SynchronizerEdge</text>
</a>
</g>
</g>
<!-- Node4&#45;&gt;Node5 -->
<g id="edge5_Node000005_Node000004" class="edge">
<title>Node4&#45;&gt;Node5</title>
<g id="a_edge5_Node000005_Node000004"><a xlink:title=" ">
<path fill="none" stroke="#63b8ff" d="M84.81,-289.83C102.22,-294.73 121.96,-300.28 138.29,-304.88"/>
<polygon fill="#63b8ff" stroke="#63b8ff" points="85.44,-286.37 74.86,-287.03 83.54,-293.11 85.44,-286.37"/>
</a>
</g>
</g>
<!-- Node4&#45;&gt;Node7 -->
<g id="edge10_Node000007_Node000004" class="edge">
<title>Node4&#45;&gt;Node7</title>
<g id="a_edge10_Node000007_Node000004"><a xlink:title=" ">
<path fill="none" stroke="#63b8ff" d="M49.78,-258.57C61.36,-236.14 84.07,-199.86 116,-184.5 174.29,-156.45 252.6,-166.71 295.39,-175.71"/>
<polygon fill="#63b8ff" stroke="#63b8ff" points="46.52,-257.26 45.25,-267.78 52.8,-260.35 46.52,-257.26"/>
</a>
</g>
</g>
<!-- Node5&#45;&gt;Node2 -->
<g id="edge4_Node000002_Node000005" class="edge">
<title>Node5&#45;&gt;Node2</title>
<g id="a_edge4_Node000002_Node000005"><a xlink:title=" ">
<path fill="none" stroke="#63b8ff" d="M223.49,-302.57C244.11,-297.56 267.78,-291.79 287.22,-287.06"/>
<polygon fill="#63b8ff" stroke="#63b8ff" points="222.53,-299.21 213.64,-304.97 224.19,-306.01 222.53,-299.21"/>
</a>
</g>
</g>
<!-- Node6 -->
<g id="Node000006" class="node">
<title>Node6</title>
<g id="a_Node000006"><a xlink:href="classSynchronizerFifo.html" target="_top" xlink:title=" ">
<polygon fill="white" stroke="#bfbfbf" points="522,-203 424,-203 424,-184 522,-184 522,-203"/>
<text text-anchor="middle" x="473" y="-191" font-family="Helvetica,sans-Serif" font-size="10.00">SynchronizerFifo</text>
</a>
</g>
</g>
<!-- Node6&#45;&gt;Node1 -->
<g id="edge6_Node000001_Node000006" class="edge">
<title>Node6&#45;&gt;Node1</title>
<g id="a_edge6_Node000001_Node000006"><a xlink:title=" ">
<path fill="none" stroke="#63b8ff" d="M532.4,-200.82C540.78,-201.87 549.46,-202.96 558,-204.03"/>
<polygon fill="#63b8ff" stroke="#63b8ff" points="532.71,-197.34 522.35,-199.56 531.84,-204.28 532.71,-197.34"/>
</a>
</g>
</g>
<!-- Node7&#45;&gt;Node6 -->
<g id="edge7_Node000006_Node000007" class="edge">
<title>Node7&#45;&gt;Node6</title>
<g id="a_edge7_Node000006_Node000007"><a xlink:title=" ">
<path fill="none" stroke="#63b8ff" d="M369.78,-186.38C386.71,-187.56 406.42,-188.93 423.99,-190.15"/>
<polygon fill="#63b8ff" stroke="#63b8ff" points="369.86,-182.87 359.64,-185.67 369.37,-189.86 369.86,-182.87"/>
</a>
</g>
</g>
<!-- Node8 -->
<g id="Node000008" class="node">
<title>Node8</title>
<g id="a_Node000008"><a xlink:href="classSynchronizerVector.html" target="_top" xlink:title=" ">
<polygon fill="white" stroke="#bfbfbf" points="228.5,-213 118.5,-213 118.5,-194 228.5,-194 228.5,-213"/>
<text text-anchor="middle" x="173.5" y="-201" font-family="Helvetica,sans-Serif" font-size="10.00">SynchronizerVector</text>
</a>
</g>
</g>
<!-- Node8&#45;&gt;Node7 -->
<g id="edge9_Node000007_Node000008" class="edge">
<title>Node8&#45;&gt;Node7</title>
<g id="a_edge9_Node000007_Node000008"><a xlink:title=" ">
<path fill="none" stroke="#63b8ff" d="M238.63,-195.06C258.21,-192.49 278.86,-189.77 295.22,-187.62"/>
<polygon fill="#63b8ff" stroke="#63b8ff" points="237.98,-191.62 228.52,-196.39 238.89,-198.56 237.98,-191.62"/>
</a>
</g>
</g>
<!-- Node9 -->
<g id="Node000009" class="node">
<title>Node9</title>
<g id="a_Node000009"><a xlink:href="classFifoWrFsm.html" target="_top" xlink:title=" ">
<polygon fill="white" stroke="#bfbfbf" points="208,-137 139,-137 139,-118 208,-118 208,-137"/>
<text text-anchor="middle" x="173.5" y="-125" font-family="Helvetica,sans-Serif" font-size="10.00">FifoWrFsm</text>
</a>
</g>
</g>
<!-- Node9&#45;&gt;Node7 -->
<g id="edge11_Node000007_Node000009" class="edge">
<title>Node9&#45;&gt;Node7</title>
<g id="a_edge11_Node000007_Node000009"><a xlink:title=" ">
<path fill="none" stroke="#63b8ff" d="M210.36,-140.71C238.11,-150.94 275.88,-164.85 300.71,-174"/>
<polygon fill="#63b8ff" stroke="#63b8ff" points="211.22,-137.3 200.63,-137.13 208.8,-143.87 211.22,-137.3"/>
</a>
</g>
</g>
<!-- Node10 -->
<g id="Node000010" class="node">
<title>Node10</title>
<g id="a_Node000010"><a xlink:href="classFifoRdFsm.html" target="_top" xlink:title=" ">
<polygon fill="white" stroke="#bfbfbf" points="207.5,-100 139.5,-100 139.5,-81 207.5,-81 207.5,-100"/>
<text text-anchor="middle" x="173.5" y="-88" font-family="Helvetica,sans-Serif" font-size="10.00">FifoRdFsm</text>
</a>
</g>
</g>
<!-- Node10&#45;&gt;Node7 -->
<g id="edge12_Node000007_Node000010" class="edge">
<title>Node10&#45;&gt;Node7</title>
<g id="a_edge12_Node000007_Node000010"><a xlink:title=" ">
<path fill="none" stroke="#63b8ff" d="M217.29,-102.32C222.02,-104.15 226.68,-106.21 231,-108.5 265.65,-126.85 300.36,-158.13 316.76,-173.86"/>
<polygon fill="#63b8ff" stroke="#63b8ff" points="218.17,-98.92 207.58,-98.86 215.82,-105.51 218.17,-98.92"/>
</a>
</g>
</g>
<!-- Node11 -->
<g id="Node000011" class="node">
<title>Node11</title>
<g id="a_Node000011"><a xlink:href="classSimpleDualPortRam.html" target="_top" xlink:title=" ">
<polygon fill="white" stroke="#bfbfbf" points="231,-63 116,-63 116,-44 231,-44 231,-63"/>
<text text-anchor="middle" x="173.5" y="-51" font-family="Helvetica,sans-Serif" font-size="10.00">SimpleDualPortRam</text>
</a>
</g>
</g>
<!-- Node11&#45;&gt;Node7 -->
<g id="edge13_Node000007_Node000011" class="edge">
<title>Node11&#45;&gt;Node7</title>
<g id="a_edge13_Node000007_Node000011"><a xlink:title=" ">
<path fill="none" stroke="#63b8ff" d="M223.76,-67.29C226.28,-68.58 228.71,-69.98 231,-71.5 273.56,-99.79 307.91,-152.24 320.9,-173.83"/>
<polygon fill="#63b8ff" stroke="#63b8ff" points="224.95,-63.98 214.39,-63.1 222.1,-70.37 224.95,-63.98"/>
</a>
</g>
</g>
<!-- Node12 -->
<g id="Node000012" class="node">
<title>Node12</title>
<g id="a_Node000012"><a xlink:href="classFifoOutputPipeline.html" target="_top" xlink:title=" ">
<polygon fill="white" stroke="#bfbfbf" points="227,-250 120,-250 120,-231 227,-231 227,-250"/>
<text text-anchor="middle" x="173.5" y="-238" font-family="Helvetica,sans-Serif" font-size="10.00">FifoOutputPipeline</text>
</a>
</g>
</g>
<!-- Node12&#45;&gt;Node7 -->
<g id="edge14_Node000007_Node000012" class="edge">
<title>Node12&#45;&gt;Node7</title>
<g id="a_edge14_Node000007_Node000012"><a xlink:title=" ">
<path fill="none" stroke="#63b8ff" d="M215.8,-227.76C220.94,-226.05 226.11,-224.28 231,-222.5 256.42,-213.28 285.08,-201.37 304.31,-193.15"/>
<polygon fill="#63b8ff" stroke="#63b8ff" points="214.45,-224.52 206.03,-230.94 216.62,-231.17 214.45,-224.52"/>
</a>
</g>
</g>
<!-- Node14 -->
<g id="Node000014" class="node">
<title>Node14</title>
<g id="a_Node000014"><a xlink:href="classSyncStatusVector.html" target="_top" xlink:title=" ">
<polygon fill="white" stroke="#bfbfbf" points="1036,-296 935,-296 935,-277 1036,-277 1036,-296"/>
<text text-anchor="middle" x="985.5" y="-284" font-family="Helvetica,sans-Serif" font-size="10.00">SyncStatusVector</text>
</a>
</g>
</g>
<!-- Node13&#45;&gt;Node14 -->
<g id="edge16_Node000013_Node000014" class="edge">
<title>Node13&#45;&gt;Node14</title>
<g id="a_edge16_Node000013_Node000014"><a xlink:title=" ">
<path fill="none" stroke="#63b8ff" d="M909.46,-286.5C918.12,-286.5 926.64,-286.5 934.66,-286.5"/>
<polygon fill="#63b8ff" stroke="#63b8ff" points="909.26,-283 899.26,-286.5 909.26,-290 909.26,-283"/>
</a>
</g>
</g>
<!-- Node15 -->
<g id="Node000015" class="node">
<title>Node15</title>
<g id="a_Node000015"><a xlink:href="classAxiLiteRamSyncStatusVector.html" target="_top" xlink:title=" ">
<polygon fill="white" stroke="#bfbfbf" points="1230,-577 1072,-577 1072,-558 1230,-558 1230,-577"/>
<text text-anchor="middle" x="1151" y="-565" font-family="Helvetica,sans-Serif" font-size="10.00">AxiLiteRamSyncStatusVector</text>
</a>
</g>
</g>
<!-- Node14&#45;&gt;Node15 -->
<g id="edge17_Node000014_Node000015" class="edge">
<title>Node14&#45;&gt;Node15</title>
<g id="a_edge17_Node000014_Node000015"><a xlink:title=" ">
<path fill="none" stroke="#63b8ff" d="M986.71,-306.36C988.35,-355.45 999.73,-483.3 1072,-549.5 1075.69,-552.88 1079.88,-555.66 1084.37,-557.96"/>
<polygon fill="#63b8ff" stroke="#63b8ff" points="990.2,-306.06 986.47,-296.14 983.2,-306.22 990.2,-306.06"/>
</a>
</g>
</g>
<!-- Node16 -->
<g id="Node000016" class="node">
<title>Node16</title>
<g id="a_Node000016"><a xlink:href="classHtspAxiL.html" target="_top" xlink:title=" ">
<polygon fill="white" stroke="#bfbfbf" points="1181,-540 1121,-540 1121,-521 1181,-521 1181,-540"/>
<text text-anchor="middle" x="1151" y="-528" font-family="Helvetica,sans-Serif" font-size="10.00">HtspAxiL</text>
</a>
</g>
</g>
<!-- Node14&#45;&gt;Node16 -->
<g id="edge18_Node000014_Node000016" class="edge">
<title>Node14&#45;&gt;Node16</title>
<g id="a_edge18_Node000014_Node000016"><a xlink:title=" ">
<path fill="none" stroke="#63b8ff" d="M987.94,-306.54C992.23,-350.82 1008.93,-457.41 1072,-512.5 1085.29,-524.11 1104.59,-528.63 1120.67,-530.24"/>
<polygon fill="#63b8ff" stroke="#63b8ff" points="991.42,-306.13 987.07,-296.47 984.44,-306.73 991.42,-306.13"/>
</a>
</g>
</g>
<!-- Node21 -->
<g id="Node000021" class="node">
<title>Node21</title>
<g id="a_Node000021"><a xlink:href="classJesdRxReg.html" target="_top" xlink:title=" ">
<polygon fill="white" stroke="#bfbfbf" points="1185,-389 1117,-389 1117,-370 1185,-370 1185,-389"/>
<text text-anchor="middle" x="1151" y="-377" font-family="Helvetica,sans-Serif" font-size="10.00">JesdRxReg</text>
</a>
</g>
</g>
<!-- Node14&#45;&gt;Node21 -->
<g id="edge21_Node000014_Node000021" class="edge">
<title>Node14&#45;&gt;Node21</title>
<g id="a_edge21_Node000014_Node000021"><a xlink:title=" ">
<path fill="none" stroke="#63b8ff" d="M1001.48,-303.93C1017.28,-321.17 1043.76,-347.03 1072,-361.5 1085.85,-368.6 1102.51,-372.93 1116.88,-375.56"/>
<polygon fill="#63b8ff" stroke="#63b8ff" points="1003.89,-301.37 994.62,-296.24 998.67,-306.03 1003.89,-301.37"/>
</a>
</g>
</g>
<!-- Node24 -->
<g id="Node000024" class="node">
<title>Node24</title>
<g id="a_Node000024"><a xlink:href="classJesdTxReg.html" target="_top" xlink:title=" ">
<polygon fill="white" stroke="#bfbfbf" points="1185,-352 1117,-352 1117,-333 1185,-333 1185,-352"/>
<text text-anchor="middle" x="1151" y="-340" font-family="Helvetica,sans-Serif" font-size="10.00">JesdTxReg</text>
</a>
</g>
</g>
<!-- Node14&#45;&gt;Node24 -->
<g id="edge23_Node000014_Node000024" class="edge">
<title>Node14&#45;&gt;Node24</title>
<g id="a_edge23_Node000014_Node000024"><a xlink:title=" ">
<path fill="none" stroke="#63b8ff" d="M1014.18,-300.42C1030.66,-308.3 1052.17,-317.87 1072,-324.5 1086.5,-329.35 1102.94,-333.35 1116.98,-336.34"/>
<polygon fill="#63b8ff" stroke="#63b8ff" points="1015.63,-297.24 1005.1,-296.01 1012.57,-303.53 1015.63,-297.24"/>
</a>
</g>
</g>
<!-- Node26 -->
<g id="Node000026" class="node">
<title>Node26</title>
<g id="a_Node000026"><a xlink:href="classPgp3AxiL.html" target="_top" xlink:title=" ">
<polygon fill="white" stroke="#bfbfbf" points="1182,-315 1120,-315 1120,-296 1182,-296 1182,-315"/>
<text text-anchor="middle" x="1151" y="-303" font-family="Helvetica,sans-Serif" font-size="10.00">Pgp3AxiL</text>
</a>
</g>
</g>
<!-- Node14&#45;&gt;Node26 -->
<g id="edge25_Node000014_Node000026" class="edge">
<title>Node14&#45;&gt;Node26</title>
<g id="a_edge25_Node000014_Node000026"><a xlink:title=" ">
<path fill="none" stroke="#63b8ff" d="M1046.56,-293.48C1071.49,-296.38 1099.32,-299.61 1119.83,-301.99"/>
<polygon fill="#63b8ff" stroke="#63b8ff" points="1046.78,-289.98 1036.44,-292.3 1045.97,-296.93 1046.78,-289.98"/>
</a>
</g>
</g>
<!-- Node37 -->
<g id="Node000037" class="node">
<title>Node37</title>
<g id="a_Node000037"><a xlink:href="classPgp4AxiL.html" target="_top" xlink:title=" ">
<polygon fill="white" stroke="#bfbfbf" points="1182,-503 1120,-503 1120,-484 1182,-484 1182,-503"/>
<text text-anchor="middle" x="1151" y="-491" font-family="Helvetica,sans-Serif" font-size="10.00">Pgp4AxiL</text>
</a>
</g>
</g>
<!-- Node14&#45;&gt;Node37 -->
<g id="edge27_Node000014_Node000037" class="edge">
<title>Node14&#45;&gt;Node37</title>
<g id="a_edge27_Node000014_Node000037"><a xlink:title=" ">
<path fill="none" stroke="#63b8ff" d="M990.21,-306.2C998.27,-343.59 1020.94,-425.06 1072,-469.5 1085.25,-481.03 1103.97,-487.02 1119.74,-490.14"/>
<polygon fill="#63b8ff" stroke="#63b8ff" points="993.58,-305.21 988.16,-296.1 986.71,-306.6 993.58,-305.21"/>
</a>
</g>
</g>
<!-- Node53 -->
<g id="Node000053" class="node">
<title>Node53</title>
<g id="a_Node000053"><a xlink:href="classPgp4RxLiteLowSpeedReg.html" target="_top" xlink:title=" ">
<polygon fill="white" stroke="#bfbfbf" points="1221,-278 1081,-278 1081,-259 1221,-259 1221,-278"/>
<text text-anchor="middle" x="1151" y="-266" font-family="Helvetica,sans-Serif" font-size="10.00">Pgp4RxLiteLowSpeedReg</text>
</a>
</g>
</g>
<!-- Node14&#45;&gt;Node53 -->
<g id="edge32_Node000014_Node000053" class="edge">
<title>Node14&#45;&gt;Node53</title>
<g id="a_edge32_Node000014_Node000053"><a xlink:title=" ">
<path fill="none" stroke="#63b8ff" d="M1046.5,-279.89C1057.65,-278.67 1069.39,-277.37 1080.8,-276.12"/>
<polygon fill="#63b8ff" stroke="#63b8ff" points="1046,-276.43 1036.44,-281 1046.77,-283.39 1046,-276.43"/>
</a>
</g>
</g>
<!-- Node54 -->
<g id="Node000054" class="node">
<title>Node54</title>
<g id="a_Node000054"><a xlink:href="classSsiPrbsRx.html" target="_top" xlink:title=" ">
<polygon fill="white" stroke="orangered" points="1359,-465 1294,-465 1294,-446 1359,-446 1359,-465"/>
<text text-anchor="middle" x="1326.5" y="-453" font-family="Helvetica,sans-Serif" font-size="10.00">SsiPrbsRx</text>
</a>
</g>
</g>
<!-- Node14&#45;&gt;Node54 -->
<g id="edge34_Node000014_Node000054" class="edge">
<title>Node14&#45;&gt;Node54</title>
<g id="a_edge34_Node000014_Node000054"><a xlink:title=" ">
<path fill="none" stroke="#63b8ff" d="M991.74,-306.06C1001.53,-338.36 1025.89,-402.19 1072,-431.5 1141.02,-475.37 1242.67,-468.37 1293.75,-461.11"/>
<polygon fill="#63b8ff" stroke="#63b8ff" points="994.99,-304.7 988.88,-296.05 988.26,-306.63 994.99,-304.7"/>
</a>
</g>
</g>
<!-- Node62 -->
<g id="Node000062" class="node">
<title>Node62</title>
<g id="a_Node000062"><a xlink:href="classRawEthFramerTb.html" target="_top" xlink:title=" ">
<polygon fill="white" stroke="#bfbfbf" points="1529,-281 1429,-281 1429,-262 1529,-262 1529,-281"/>
<text text-anchor="middle" x="1479" y="-269" font-family="Helvetica,sans-Serif" font-size="10.00">RawEthFramerTb</text>
</a>
</g>
</g>
<!-- Node14&#45;&gt;Node62 -->
<g id="edge46_Node000014_Node000062" class="edge">
<title>Node14&#45;&gt;Node62</title>
<g id="a_edge46_Node000014_Node000062"><a xlink:title=" ">
<path fill="none" stroke="#63b8ff" d="M994.36,-305.44C1006.53,-331.95 1032.71,-379.06 1072,-398.5 1134.74,-429.54 1330.21,-439.43 1387,-398.5 1428.05,-368.92 1387.42,-326.47 1423,-290.5 1426.84,-286.62 1431.5,-283.53 1436.48,-281.08"/>
<polygon fill="#63b8ff" stroke="#63b8ff" points="997.48,-303.83 990.25,-296.08 991.06,-306.65 997.48,-303.83"/>
</a>
</g>
</g>
<!-- Node68 -->
<g id="Node000068" class="node">
<title>Node68</title>
<g id="a_Node000068"><a xlink:href="classSspLowSpeedDecoderReg.html" target="_top" xlink:title=" ">
<polygon fill="white" stroke="orangered" points="1222.5,-241 1079.5,-241 1079.5,-222 1222.5,-222 1222.5,-241"/>
<text text-anchor="middle" x="1151" y="-229" font-family="Helvetica,sans-Serif" font-size="10.00">SspLowSpeedDecoderReg</text>
</a>
</g>
</g>
<!-- Node14&#45;&gt;Node68 -->
<g id="edge44_Node000014_Node000068" class="edge">
<title>Node14&#45;&gt;Node68</title>
<g id="a_edge44_Node000014_Node000068"><a xlink:title=" ">
<path fill="none" stroke="#63b8ff" d="M1016.04,-272.69C1032.31,-265.43 1053,-256.77 1072,-250.5 1082.72,-246.96 1094.47,-243.76 1105.51,-241.04"/>
<polygon fill="#63b8ff" stroke="#63b8ff" points="1014.2,-269.68 1006.54,-276.99 1017.09,-276.05 1014.2,-269.68"/>
</a>
</g>
</g>
<!-- Node73 -->
<g id="Node000073" class="node">
<title>Node73</title>
<g id="a_Node000073"><a xlink:href="classGigEthReg.html" target="_top" xlink:title=" ">
<polygon fill="white" stroke="orangered" points="1185,-204 1117,-204 1117,-185 1185,-185 1185,-204"/>
<text text-anchor="middle" x="1151" y="-192" font-family="Helvetica,sans-Serif" font-size="10.00">GigEthReg</text>
</a>
</g>
</g>
<!-- Node14&#45;&gt;Node73 -->
<g id="edge45_Node000014_Node000073" class="edge">
<title>Node14&#45;&gt;Node73</title>
<g id="a_edge45_Node000014_Node000073"><a xlink:title=" ">
<path fill="none" stroke="#63b8ff" d="M1001.53,-269.31C1017.37,-252.3 1043.87,-226.79 1072,-212.5 1085.88,-205.45 1102.54,-201.12 1116.9,-198.49"/>
<polygon fill="#63b8ff" stroke="#63b8ff" points="998.78,-267.14 994.65,-276.89 1003.96,-271.84 998.78,-267.14"/>
</a>
</g>
</g>
<!-- Node87 -->
<g id="Node000087" class="node">
<title>Node87</title>
<g id="a_Node000087"><a xlink:href="classTenGigEthReg.html" target="_top" xlink:title=" ">
<polygon fill="white" stroke="orangered" points="1193,-167 1109,-167 1109,-148 1193,-148 1193,-167"/>
<text text-anchor="middle" x="1151" y="-155" font-family="Helvetica,sans-Serif" font-size="10.00">TenGigEthReg</text>
</a>
</g>
</g>
<!-- Node14&#45;&gt;Node87 -->
<g id="edge47_Node000014_Node000087" class="edge">
<title>Node14&#45;&gt;Node87</title>
<g id="a_edge47_Node000014_Node000087"><a xlink:title=" ">
<path fill="none" stroke="#63b8ff" d="M995.63,-267.81C1008.87,-242.75 1035.84,-198.71 1072,-175.5 1082.88,-168.52 1096.15,-164.23 1108.63,-161.61"/>
<polygon fill="#63b8ff" stroke="#63b8ff" points="992.37,-266.49 990.95,-276.99 998.61,-269.67 992.37,-266.49"/>
</a>
</g>
</g>
<!-- Node96 -->
<g id="Node000096" class="node">
<title>Node96</title>
<g id="a_Node000096"><a xlink:href="classXauiReg.html" target="_top" xlink:title=" ">
<polygon fill="white" stroke="orangered" points="1179.5,-130 1122.5,-130 1122.5,-111 1179.5,-111 1179.5,-130"/>
<text text-anchor="middle" x="1151" y="-118" font-family="Helvetica,sans-Serif" font-size="10.00">XauiReg</text>
</a>
</g>
</g>
<!-- Node14&#45;&gt;Node96 -->
<g id="edge48_Node000014_Node000096" class="edge">
<title>Node14&#45;&gt;Node96</title>
<g id="a_edge48_Node000014_Node000096"><a xlink:title=" ">
<path fill="none" stroke="#63b8ff" d="M992.22,-266.75C1002.58,-234.62 1027.61,-171.33 1072,-138.5 1086.53,-127.76 1106.41,-123.28 1122.47,-121.48"/>
<polygon fill="#63b8ff" stroke="#63b8ff" points="988.75,-266.13 989.16,-276.71 995.44,-268.18 988.75,-266.13"/>
</a>
</g>
</g>
<!-- Node105 -->
<g id="Node000105" class="node">
<title>Node105</title>
<g id="a_Node000105"><a xlink:href="classCoaXPressAxiL.html" target="_top" xlink:title=" ">
<polygon fill="white" stroke="orangered" points="1195.5,-93 1106.5,-93 1106.5,-74 1195.5,-74 1195.5,-93"/>
<text text-anchor="middle" x="1151" y="-81" font-family="Helvetica,sans-Serif" font-size="10.00">CoaXPressAxiL</text>
</a>
</g>
</g>
<!-- Node14&#45;&gt;Node105 -->
<g id="edge49_Node000014_Node000105" class="edge">
<title>Node14&#45;&gt;Node105</title>
<g id="a_edge49_Node000014_Node000105"><a xlink:title=" ">
<path fill="none" stroke="#63b8ff" d="M989.76,-266.74C997.13,-228.59 1018.76,-144.76 1072,-101.5 1081.71,-93.61 1094.23,-89.05 1106.39,-86.44"/>
<polygon fill="#63b8ff" stroke="#63b8ff" points="986.31,-266.16 987.98,-276.62 993.2,-267.4 986.31,-266.16"/>
</a>
</g>
</g>
<!-- Node109 -->
<g id="Node000109" class="node">
<title>Node109</title>
<g id="a_Node000109"><a xlink:href="classPgp2bAxi.html" target="_top" xlink:title=" ">
<polygon fill="white" stroke="#bfbfbf" points="1182,-56 1120,-56 1120,-37 1182,-37 1182,-56"/>
<text text-anchor="middle" x="1151" y="-44" font-family="Helvetica,sans-Serif" font-size="10.00">Pgp2bAxi</text>
</a>
</g>
</g>
<!-- Node14&#45;&gt;Node109 -->
<g id="edge50_Node000014_Node000109" class="edge">
<title>Node14&#45;&gt;Node109</title>
<g id="a_edge50_Node000014_Node000109"><a xlink:title=" ">
<path fill="none" stroke="#63b8ff" d="M988.08,-266.53C992.66,-222.85 1009.88,-118.44 1072,-64.5 1085.12,-53.11 1104.02,-48.55 1119.93,-46.87"/>
<polygon fill="#63b8ff" stroke="#63b8ff" points="984.58,-266.42 987.14,-276.7 991.55,-267.07 984.58,-266.42"/>
</a>
</g>
</g>
<!-- Node110 -->
<g id="Node000110" class="node">
<title>Node110</title>
<g id="a_Node000110"><a xlink:href="classPgp2fcAxi.html" target="_top" xlink:title=" ">
<polygon fill="white" stroke="#bfbfbf" points="1183.5,-19 1118.5,-19 1118.5,0 1183.5,0 1183.5,-19"/>
<text text-anchor="middle" x="1151" y="-7" font-family="Helvetica,sans-Serif" font-size="10.00">Pgp2fcAxi</text>
</a>
</g>
</g>
<!-- Node14&#45;&gt;Node110 -->
<g id="edge51_Node000014_Node000110" class="edge">
<title>Node14&#45;&gt;Node110</title>
<g id="a_edge51_Node000014_Node000110"><a xlink:title=" ">
<path fill="none" stroke="#63b8ff" d="M986.81,-266.94C988.69,-218.58 1000.58,-92.63 1072,-27.5 1084.43,-16.17 1102.53,-11.53 1118.17,-9.78"/>
<polygon fill="#63b8ff" stroke="#63b8ff" points="983.31,-266.9 986.53,-277 990.31,-267.1 983.31,-266.9"/>
</a>
</g>
</g>
<!-- Node17 -->
<g id="Node000017" class="node">
<title>Node17</title>
<g id="a_Node000017"><a xlink:href="classHtspCore.html" target="_top" xlink:title=" ">
<polygon fill="white" stroke="orangered" points="1357.5,-577 1295.5,-577 1295.5,-558 1357.5,-558 1357.5,-577"/>
<text text-anchor="middle" x="1326.5" y="-565" font-family="Helvetica,sans-Serif" font-size="10.00">HtspCore</text>
</a>
</g>
</g>
<!-- Node16&#45;&gt;Node17 -->
<g id="edge19_Node000016_Node000017" class="edge">
<title>Node16&#45;&gt;Node17</title>
<g id="a_edge19_Node000016_Node000017"><a xlink:title=" ">
<path fill="none" stroke="#63b8ff" d="M1190.84,-538.78C1222.48,-545.53 1266.51,-554.92 1295.49,-561.1"/>
<polygon fill="#63b8ff" stroke="#63b8ff" points="1191.55,-535.36 1181.04,-536.69 1190.09,-542.2 1191.55,-535.36"/>
</a>
</g>
</g>
<!-- Node18 -->
<g id="Node000018" class="node">
<title>Node18</title>
<g id="a_Node000018"><a xlink:href="classHtspCoreTb.html" target="_top" xlink:title=" ">
<polygon fill="white" stroke="#bfbfbf" points="1516,-577 1442,-577 1442,-558 1516,-558 1516,-577"/>
<text text-anchor="middle" x="1479" y="-565" font-family="Helvetica,sans-Serif" font-size="10.00">HtspCoreTb</text>
</a>
</g>
</g>
<!-- Node17&#45;&gt;Node18 -->
<g id="edge20_Node000017_Node000018" class="edge">
<title>Node17&#45;&gt;Node18</title>
<g id="a_edge20_Node000017_Node000018"><a xlink:title=" ">
<path fill="none" stroke="#63b8ff" d="M1367.75,-567.5C1390.81,-567.5 1419.52,-567.5 1441.86,-567.5"/>
<polygon fill="#63b8ff" stroke="#63b8ff" points="1367.59,-564 1357.59,-567.5 1367.59,-571 1367.59,-564"/>
</a>
</g>
</g>
<!-- Node22 -->
<g id="Node000022" class="node">
<title>Node22</title>
<g id="a_Node000022"><a xlink:href="classJesd204bRx.html" target="_top" xlink:title=" ">
<polygon fill="white" stroke="orangered" points="1363.5,-389 1289.5,-389 1289.5,-370 1363.5,-370 1363.5,-389"/>
<text text-anchor="middle" x="1326.5" y="-377" font-family="Helvetica,sans-Serif" font-size="10.00">Jesd204bRx</text>
</a>
</g>
</g>
<!-- Node21&#45;&gt;Node22 -->
<g id="edge22_Node000021_Node000022" class="edge">
<title>Node21&#45;&gt;Node22</title>
<g id="a_edge22_Node000021_Node000022"><a xlink:title=" ">
<path fill="none" stroke="#63b8ff" d="M1195.28,-379.5C1224.24,-379.5 1261.92,-379.5 1289.29,-379.5"/>
<polygon fill="#63b8ff" stroke="#63b8ff" points="1195.04,-376 1185.04,-379.5 1195.04,-383 1195.04,-376"/>
</a>
</g>
</g>
<!-- Node25 -->
<g id="Node000025" class="node">
<title>Node25</title>
<g id="a_Node000025"><a xlink:href="classJesd204bTx.html" target="_top" xlink:title=" ">
<polygon fill="white" stroke="orangered" points="1363,-352 1290,-352 1290,-333 1363,-333 1363,-352"/>
<text text-anchor="middle" x="1326.5" y="-340" font-family="Helvetica,sans-Serif" font-size="10.00">Jesd204bTx</text>
</a>
</g>
</g>
<!-- Node24&#45;&gt;Node25 -->
<g id="edge24_Node000024_Node000025" class="edge">
<title>Node24&#45;&gt;Node25</title>
<g id="a_edge24_Node000024_Node000025"><a xlink:title=" ">
<path fill="none" stroke="#63b8ff" d="M1195.35,-342.5C1224.52,-342.5 1262.5,-342.5 1289.89,-342.5"/>
<polygon fill="#63b8ff" stroke="#63b8ff" points="1195.04,-339 1185.04,-342.5 1195.04,-346 1195.04,-339"/>
</a>
</g>
</g>
<!-- Node27 -->
<g id="Node000027" class="node">
<title>Node27</title>
<g id="a_Node000027"><a xlink:href="classPgp3Core.html" target="_top" xlink:title=" ">
<polygon fill="white" stroke="orangered" points="1358,-315 1295,-315 1295,-296 1358,-296 1358,-315"/>
<text text-anchor="middle" x="1326.5" y="-303" font-family="Helvetica,sans-Serif" font-size="10.00">Pgp3Core</text>
</a>
</g>
</g>
<!-- Node26&#45;&gt;Node27 -->
<g id="edge26_Node000026_Node000027" class="edge">
<title>Node26&#45;&gt;Node27</title>
<g id="a_edge26_Node000026_Node000027"><a xlink:title=" ">
<path fill="none" stroke="#63b8ff" d="M1192.35,-305.5C1223.59,-305.5 1266.23,-305.5 1294.75,-305.5"/>
<polygon fill="#63b8ff" stroke="#63b8ff" points="1192.22,-302 1182.22,-305.5 1192.22,-309 1192.22,-302"/>
</a>
</g>
</g>
<!-- Node38 -->
<g id="Node000038" class="node">
<title>Node38</title>
<g id="a_Node000038"><a xlink:href="classPgp4Core.html" target="_top" xlink:title=" ">
<polygon fill="white" stroke="orangered" points="1358,-503 1295,-503 1295,-484 1358,-484 1358,-503"/>
<text text-anchor="middle" x="1326.5" y="-491" font-family="Helvetica,sans-Serif" font-size="10.00">Pgp4Core</text>
</a>
</g>
</g>
<!-- Node37&#45;&gt;Node38 -->
<g id="edge28_Node000037_Node000038" class="edge">
<title>Node37&#45;&gt;Node38</title>
<g id="a_edge28_Node000037_Node000038"><a xlink:title=" ">
<path fill="none" stroke="#63b8ff" d="M1192.35,-493.5C1223.59,-493.5 1266.23,-493.5 1294.75,-493.5"/>
<polygon fill="#63b8ff" stroke="#63b8ff" points="1192.22,-490 1182.22,-493.5 1192.22,-497 1192.22,-490"/>
</a>
</g>
</g>
<!-- Node49 -->
<g id="Node000049" class="node">
<title>Node49</title>
<g id="a_Node000049"><a xlink:href="classPgp4CoreLite.html" target="_top" xlink:title=" ">
<polygon fill="white" stroke="orangered" points="1367,-540 1286,-540 1286,-521 1367,-521 1367,-540"/>
<text text-anchor="middle" x="1326.5" y="-528" font-family="Helvetica,sans-Serif" font-size="10.00">Pgp4CoreLite</text>
</a>
</g>
</g>
<!-- Node37&#45;&gt;Node49 -->
<g id="edge30_Node000037_Node000049" class="edge">
<title>Node37&#45;&gt;Node49</title>
<g id="a_edge30_Node000037_Node000049"><a xlink:title=" ">
<path fill="none" stroke="#63b8ff" d="M1192.14,-502.06C1220.31,-508.07 1257.8,-516.06 1285.86,-522.05"/>
<polygon fill="#63b8ff" stroke="#63b8ff" points="1192.73,-498.61 1182.22,-499.94 1191.27,-505.45 1192.73,-498.61"/>
</a>
</g>
</g>
<!-- Node39 -->
<g id="Node000039" class="node">
<title>Node39</title>
<g id="a_Node000039"><a xlink:href="classPgp4Tb.html" target="_top" xlink:title=" ">
<polygon fill="white" stroke="#bfbfbf" points="1505.5,-503 1452.5,-503 1452.5,-484 1505.5,-484 1505.5,-503"/>
<text text-anchor="middle" x="1479" y="-491" font-family="Helvetica,sans-Serif" font-size="10.00">Pgp4Tb</text>
</a>
</g>
</g>
<!-- Node38&#45;&gt;Node39 -->
<g id="edge29_Node000038_Node000039" class="edge">
<title>Node38&#45;&gt;Node39</title>
<g id="a_edge29_Node000038_Node000039"><a xlink:title=" ">
<path fill="none" stroke="#63b8ff" d="M1368.53,-493.5C1395.24,-493.5 1429.26,-493.5 1452.23,-493.5"/>
<polygon fill="#63b8ff" stroke="#63b8ff" points="1368.32,-490 1358.32,-493.5 1368.32,-497 1368.32,-490"/>
</a>
</g>
</g>
<!-- Node50 -->
<g id="Node000050" class="node">
<title>Node50</title>
<g id="a_Node000050"><a xlink:href="classPgp4CoreLiteTb.html" target="_top" xlink:title=" ">
<polygon fill="white" stroke="#bfbfbf" points="1525.5,-540 1432.5,-540 1432.5,-521 1525.5,-521 1525.5,-540"/>
<text text-anchor="middle" x="1479" y="-528" font-family="Helvetica,sans-Serif" font-size="10.00">Pgp4CoreLiteTb</text>
</a>
</g>
</g>
<!-- Node49&#45;&gt;Node50 -->
<g id="edge31_Node000049_Node000050" class="edge">
<title>Node49&#45;&gt;Node50</title>
<g id="a_edge31_Node000049_Node000050"><a xlink:title=" ">
<path fill="none" stroke="#63b8ff" d="M1377.22,-530.5C1394.99,-530.5 1414.92,-530.5 1432.33,-530.5"/>
<polygon fill="#63b8ff" stroke="#63b8ff" points="1377.04,-527 1367.04,-530.5 1377.04,-534 1377.04,-527"/>
</a>
</g>
</g>
<!-- Node52 -->
<g id="Node000052" class="node">
<title>Node52</title>
<g id="a_Node000052"><a xlink:href="classPgp4LiteRxLowSpeed.html" target="_top" xlink:title=" ">
<polygon fill="white" stroke="orangered" points="1387,-278 1266,-278 1266,-259 1387,-259 1387,-278"/>
<text text-anchor="middle" x="1326.5" y="-266" font-family="Helvetica,sans-Serif" font-size="10.00">Pgp4LiteRxLowSpeed</text>
</a>
</g>
</g>
<!-- Node53&#45;&gt;Node52 -->
<g id="edge33_Node000053_Node000052" class="edge">
<title>Node53&#45;&gt;Node52</title>
<g id="a_edge33_Node000053_Node000052"><a xlink:title=" ">
<path fill="none" stroke="#63b8ff" d="M1231.24,-268.5C1242.9,-268.5 1254.74,-268.5 1265.9,-268.5"/>
<polygon fill="#63b8ff" stroke="#63b8ff" points="1231.07,-265 1221.07,-268.5 1231.07,-272 1231.07,-265"/>
</a>
</g>
</g>
<!-- Node54&#45;&gt;Node18 -->
<g id="edge37_Node000054_Node000018" class="edge">
<title>Node54&#45;&gt;Node18</title>
<g id="a_edge37_Node000054_Node000018"><a xlink:title=" ">
<path fill="none" stroke="#63b8ff" d="M1368.92,-464.63C1375.46,-467.36 1381.78,-470.91 1387,-475.5 1414.47,-499.65 1395.43,-525.46 1423,-549.5 1428.38,-554.19 1435,-557.66 1441.77,-560.23"/>
<polygon fill="#63b8ff" stroke="#63b8ff" points="1369.87,-461.25 1359.27,-461.17 1367.51,-467.84 1369.87,-461.25"/>
</a>
</g>
</g>
<!-- Node54&#45;&gt;Node39 -->
<g id="edge39_Node000054_Node000039" class="edge">
<title>Node54&#45;&gt;Node39</title>
<g id="a_edge39_Node000054_Node000039"><a xlink:title=" ">
<path fill="none" stroke="#63b8ff" d="M1368.91,-465.96C1395.66,-472.71 1429.62,-481.28 1452.48,-487.06"/>
<polygon fill="#63b8ff" stroke="#63b8ff" points="1369.6,-462.52 1359.05,-463.47 1367.89,-469.31 1369.6,-462.52"/>
</a>
</g>
</g>
<!-- Node54&#45;&gt;Node50 -->
<g id="edge38_Node000054_Node000050" class="edge">
<title>Node54&#45;&gt;Node50</title>
<g id="a_edge38_Node000054_Node000050"><a xlink:title=" ">
<path fill="none" stroke="#63b8ff" d="M1368.88,-466.55C1375.18,-469.03 1381.43,-472 1387,-475.5 1406.42,-487.72 1403.53,-500.36 1423,-512.5 1428.37,-515.85 1434.43,-518.64 1440.51,-520.95"/>
<polygon fill="#63b8ff" stroke="#63b8ff" points="1369.62,-463.1 1359.02,-463.03 1367.27,-469.69 1369.62,-463.1"/>
</a>
</g>
</g>
<!-- Node55 -->
<g id="Node000055" class="node">
<title>Node55</title>
<g id="a_Node000055"><a xlink:href="classAxiStreamMuxTb.html" target="_top" xlink:title=" ">
<polygon fill="white" stroke="#bfbfbf" points="1529.5,-392 1428.5,-392 1428.5,-373 1529.5,-373 1529.5,-392"/>
<text text-anchor="middle" x="1479" y="-380" font-family="Helvetica,sans-Serif" font-size="10.00">AxiStreamMuxTb</text>
</a>
</g>
</g>
<!-- Node54&#45;&gt;Node55 -->
<g id="edge35_Node000054_Node000055" class="edge">
<title>Node54&#45;&gt;Node55</title>
<g id="a_edge35_Node000054_Node000055"><a xlink:title=" ">
<path fill="none" stroke="#63b8ff" d="M1365.88,-442.07C1373.09,-438.98 1380.43,-435.43 1387,-431.5 1404.87,-420.81 1404.86,-411.73 1423,-401.5 1429.51,-397.83 1436.85,-394.69 1444,-392.09"/>
<polygon fill="#63b8ff" stroke="#63b8ff" points="1364.16,-438.99 1356.21,-446 1366.79,-445.48 1364.16,-438.99"/>
</a>
</g>
</g>
<!-- Node56 -->
<g id="Node000056" class="node">
<title>Node56</title>
<g id="a_Node000056"><a xlink:href="classAxiStreamResizeTb.html" target="_top" xlink:title=" ">
<polygon fill="white" stroke="#bfbfbf" points="1535,-355 1423,-355 1423,-336 1535,-336 1535,-355"/>
<text text-anchor="middle" x="1479" y="-343" font-family="Helvetica,sans-Serif" font-size="10.00">AxiStreamResizeTb</text>
</a>
</g>
</g>
<!-- Node54&#45;&gt;Node56 -->
<g id="edge36_Node000054_Node000056" class="edge">
<title>Node54&#45;&gt;Node56</title>
<g id="a_edge36_Node000054_Node000056"><a xlink:title=" ">
<path fill="none" stroke="#63b8ff" d="M1368.8,-443.25C1375.35,-440.11 1381.7,-436.24 1387,-431.5 1412.18,-408.94 1397.26,-386.41 1423,-364.5 1427.54,-360.64 1432.91,-357.54 1438.48,-355.07"/>
<polygon fill="#63b8ff" stroke="#63b8ff" points="1366.99,-440.22 1359.15,-447.34 1369.72,-446.66 1366.99,-440.22"/>
</a>
</g>
</g>
<!-- Node57 -->
<g id="Node000057" class="node">
<title>Node57</title>
<g id="a_Node000057"><a xlink:href="classPgp4TxLiteTb.html" target="_top" xlink:title=" ">
<polygon fill="white" stroke="#bfbfbf" points="1520.5,-318 1437.5,-318 1437.5,-299 1520.5,-299 1520.5,-318"/>
<text text-anchor="middle" x="1479" y="-306" font-family="Helvetica,sans-Serif" font-size="10.00">Pgp4TxLiteTb</text>
</a>
</g>
</g>
<!-- Node54&#45;&gt;Node57 -->
<g id="edge40_Node000054_Node000057" class="edge">
<title>Node54&#45;&gt;Node57</title>
<g id="a_edge40_Node000054_Node000057"><a xlink:title=" ">
<path fill="none" stroke="#63b8ff" d="M1368.59,-444.37C1375.39,-441.09 1381.88,-436.88 1387,-431.5 1420.71,-396.06 1388.4,-362.08 1423,-327.5 1427.07,-323.43 1432.06,-320.23 1437.35,-317.71"/>
<polygon fill="#63b8ff" stroke="#63b8ff" points="1367.1,-441.2 1359.23,-448.29 1369.81,-447.65 1367.1,-441.2"/>
</a>
</g>
</g>
<!-- Node58 -->
<g id="Node000058" class="node">
<title>Node58</title>
<g id="a_Node000058"><a xlink:href="classRssiInterleaveTb.html" target="_top" xlink:title=" ">
<polygon fill="white" stroke="#bfbfbf" points="1528,-466 1430,-466 1430,-447 1528,-447 1528,-466"/>
<text text-anchor="middle" x="1479" y="-454" font-family="Helvetica,sans-Serif" font-size="10.00">RssiInterleaveTb</text>
</a>
</g>
</g>
<!-- Node54&#45;&gt;Node58 -->
<g id="edge41_Node000054_Node000058" class="edge">
<title>Node54&#45;&gt;Node58</title>
<g id="a_edge41_Node000054_Node000058"><a xlink:title=" ">
<path fill="none" stroke="#63b8ff" d="M1369.11,-455.78C1387.95,-455.9 1410.33,-456.05 1429.89,-456.18"/>
<polygon fill="#63b8ff" stroke="#63b8ff" points="1369.07,-452.28 1359.05,-455.71 1369.03,-459.28 1369.07,-452.28"/>
</a>
</g>
</g>
<!-- Node59 -->
<g id="Node000059" class="node">
<title>Node59</title>
<g id="a_Node000059"><a xlink:href="classSsiFifoTb.html" target="_top" xlink:title=" ">
<polygon fill="white" stroke="#bfbfbf" points="1509.5,-429 1448.5,-429 1448.5,-410 1509.5,-410 1509.5,-429"/>
<text text-anchor="middle" x="1479" y="-417" font-family="Helvetica,sans-Serif" font-size="10.00">SsiFifoTb</text>
</a>
</g>
</g>
<!-- Node54&#45;&gt;Node59 -->
<g id="edge42_Node000054_Node000059" class="edge">
<title>Node54&#45;&gt;Node59</title>
<g id="a_edge42_Node000054_Node000059"><a xlink:title=" ">
<path fill="none" stroke="#63b8ff" d="M1369.04,-445.56C1394.18,-439.55 1425.64,-432.03 1448.28,-426.61"/>
<polygon fill="#63b8ff" stroke="#63b8ff" points="1367.96,-442.22 1359.05,-447.95 1369.59,-449.03 1367.96,-442.22"/>
</a>
</g>
</g>
<!-- Node54&#45;&gt;Node62 -->
<g id="edge43_Node000054_Node000062" class="edge">
<title>Node54&#45;&gt;Node62</title>
<g id="a_edge43_Node000054_Node000062"><a xlink:title=" ">
<path fill="none" stroke="#63b8ff" d="M1368.76,-444.81C1375.6,-441.49 1382.06,-437.15 1387,-431.5 1429.58,-382.82 1379.19,-338.08 1423,-290.5 1426.56,-286.64 1430.94,-283.56 1435.66,-281.1"/>
<polygon fill="#63b8ff" stroke="#63b8ff" points="1367.19,-441.67 1359.3,-448.75 1369.88,-448.14 1367.19,-441.67"/>
</a>
</g>
</g>
</g>
</svg>
