<?xml version="1.0" encoding="UTF-8" standalone="no"?>
<!DOCTYPE svg PUBLIC "-//W3C//DTD SVG 1.1//EN"
 "http://www.w3.org/Graphics/SVG/1.1/DTD/svg11.dtd">
<!-- Generated by graphviz version 2.43.0 (0)
 -->
<!-- Title: AxiStreamBatcherAxil Pages: 1 -->
<svg width="683pt" height="260pt"
 viewBox="0.00 0.00 683.00 260.00" xmlns="http://www.w3.org/2000/svg" xmlns:xlink="http://www.w3.org/1999/xlink">
<g id="graph0" class="graph" transform="scale(1 1) rotate(0) translate(4 256)">
<title>AxiStreamBatcherAxil</title>
<!-- Node1 -->
<g id="Node000001" class="node">
<title>Node1</title>
<g id="a_Node000001"><a xlink:title=" ">
<polygon fill="#999999" stroke="#666666" points="675,-232 551,-232 551,-213 675,-213 675,-232"/>
<text text-anchor="middle" x="613" y="-220" font-family="Helvetica,sans-Serif" font-size="10.00">AxiStreamBatcherAxil</text>
</a>
</g>
</g>
<!-- Node2 -->
<g id="Node000002" class="node">
<title>Node2</title>
<g id="a_Node000002"><a xlink:href="classAxiStreamBatcher.html" target="_top" xlink:title=" ">
<polygon fill="white" stroke="#bfbfbf" points="515,-251 410,-251 410,-232 515,-232 515,-251"/>
<text text-anchor="middle" x="462.5" y="-239" font-family="Helvetica,sans-Serif" font-size="10.00">AxiStreamBatcher</text>
</a>
</g>
</g>
<!-- Node2&#45;&gt;Node1 -->
<g id="edge1_Node000001_Node000002" class="edge">
<title>Node2&#45;&gt;Node1</title>
<g id="a_edge1_Node000001_Node000002"><a xlink:title=" ">
<path fill="none" stroke="#63b8ff" d="M525.22,-233.6C533.7,-232.52 542.4,-231.41 550.86,-230.32"/>
<polygon fill="#63b8ff" stroke="#63b8ff" points="524.5,-230.17 515.02,-234.91 525.38,-237.11 524.5,-230.17"/>
</a>
</g>
</g>
<!-- Node3 -->
<g id="Node000003" class="node">
<title>Node3</title>
<g id="a_Node000003"><a xlink:href="classAxiStreamPipeline.html" target="_top" xlink:title=" ">
<polygon fill="white" stroke="#bfbfbf" points="374,-252 267,-252 267,-233 374,-233 374,-252"/>
<text text-anchor="middle" x="320.5" y="-240" font-family="Helvetica,sans-Serif" font-size="10.00">AxiStreamPipeline</text>
</a>
</g>
</g>
<!-- Node3&#45;&gt;Node2 -->
<g id="edge2_Node000002_Node000003" class="edge">
<title>Node3&#45;&gt;Node2</title>
<g id="a_edge2_Node000002_Node000003"><a xlink:title=" ">
<path fill="none" stroke="#63b8ff" d="M384.26,-242.05C392.73,-241.99 401.35,-241.93 409.61,-241.87"/>
<polygon fill="#63b8ff" stroke="#63b8ff" points="384,-238.55 374.03,-242.12 384.05,-245.55 384,-238.55"/>
</a>
</g>
</g>
<!-- Node4 -->
<g id="Node000004" class="node">
<title>Node4</title>
<g id="a_Node000004"><a xlink:href="classAxiLiteAsync.html" target="_top" xlink:title=" ">
<polygon fill="white" stroke="#bfbfbf" points="502.5,-214 422.5,-214 422.5,-195 502.5,-195 502.5,-214"/>
<text text-anchor="middle" x="462.5" y="-202" font-family="Helvetica,sans-Serif" font-size="10.00">AxiLiteAsync</text>
</a>
</g>
</g>
<!-- Node4&#45;&gt;Node1 -->
<g id="edge3_Node000001_Node000004" class="edge">
<title>Node4&#45;&gt;Node1</title>
<g id="a_edge3_Node000001_Node000004"><a xlink:title=" ">
<path fill="none" stroke="#63b8ff" d="M512.53,-210.44C524.78,-211.93 538.08,-213.54 550.84,-215.09"/>
<polygon fill="#63b8ff" stroke="#63b8ff" points="512.87,-206.96 502.52,-209.23 512.02,-213.91 512.87,-206.96"/>
</a>
</g>
</g>
<!-- Node5 -->
<g id="Node000005" class="node">
<title>Node5</title>
<g id="a_Node000005"><a xlink:href="classRstSync.html" target="_top" xlink:title=" ">
<polygon fill="white" stroke="#bfbfbf" points="201.5,-243 145.5,-243 145.5,-224 201.5,-224 201.5,-243"/>
<text text-anchor="middle" x="173.5" y="-231" font-family="Helvetica,sans-Serif" font-size="10.00">RstSync</text>
</a>
</g>
</g>
<!-- Node5&#45;&gt;Node4 -->
<g id="edge4_Node000004_Node000005" class="edge">
<title>Node5&#45;&gt;Node4</title>
<g id="a_edge4_Node000004_Node000005"><a xlink:title=" ">
<path fill="none" stroke="#63b8ff" d="M211.72,-229.74C266.04,-224.25 366.58,-214.09 422.11,-208.48"/>
<polygon fill="#63b8ff" stroke="#63b8ff" points="211.1,-226.28 201.5,-230.77 211.8,-233.25 211.1,-226.28"/>
</a>
</g>
</g>
<!-- Node7 -->
<g id="Node000007" class="node">
<title>Node7</title>
<g id="a_Node000007"><a xlink:href="classFifoAsync.html" target="_top" xlink:title=" ">
<polygon fill="white" stroke="#bfbfbf" points="352.5,-148 288.5,-148 288.5,-129 352.5,-129 352.5,-148"/>
<text text-anchor="middle" x="320.5" y="-136" font-family="Helvetica,sans-Serif" font-size="10.00">FifoAsync</text>
</a>
</g>
</g>
<!-- Node5&#45;&gt;Node7 -->
<g id="edge7_Node000007_Node000005" class="edge">
<title>Node5&#45;&gt;Node7</title>
<g id="a_edge7_Node000007_Node000005"><a xlink:title=" ">
<path fill="none" stroke="#63b8ff" d="M210.46,-219.98C217.45,-216.87 224.59,-213.34 231,-209.5 261.94,-191 293.87,-162.67 309.56,-148.01"/>
<polygon fill="#63b8ff" stroke="#63b8ff" points="208.95,-216.82 201.11,-223.95 211.68,-223.26 208.95,-216.82"/>
</a>
</g>
</g>
<!-- Node6 -->
<g id="Node000006" class="node">
<title>Node6</title>
<g id="a_Node000006"><a xlink:href="classSynchronizer.html" target="_top" xlink:title=" ">
<polygon fill="white" stroke="#bfbfbf" points="80,-224 0,-224 0,-205 80,-205 80,-224"/>
<text text-anchor="middle" x="40" y="-212" font-family="Helvetica,sans-Serif" font-size="10.00">Synchronizer</text>
</a>
</g>
</g>
<!-- Node6&#45;&gt;Node5 -->
<g id="edge5_Node000005_Node000006" class="edge">
<title>Node6&#45;&gt;Node5</title>
<g id="a_edge5_Node000005_Node000006"><a xlink:title=" ">
<path fill="none" stroke="#63b8ff" d="M90.24,-221.62C108.93,-224.32 129.52,-227.29 145.43,-229.59"/>
<polygon fill="#63b8ff" stroke="#63b8ff" points="90.5,-218.12 80.1,-220.15 89.49,-225.04 90.5,-218.12"/>
</a>
</g>
</g>
<!-- Node6&#45;&gt;Node7 -->
<g id="edge9_Node000007_Node000006" class="edge">
<title>Node6&#45;&gt;Node7</title>
<g id="a_edge9_Node000007_Node000006"><a xlink:title=" ">
<path fill="none" stroke="#63b8ff" d="M90.11,-207.11C128.86,-200.63 184.03,-189.99 231,-175.5 255.35,-167.99 282.2,-156.24 299.87,-148"/>
<polygon fill="#63b8ff" stroke="#63b8ff" points="89.43,-203.67 80.13,-208.74 90.56,-210.58 89.43,-203.67"/>
</a>
</g>
</g>
<!-- Node7&#45;&gt;Node4 -->
<g id="edge6_Node000004_Node000007" class="edge">
<title>Node7&#45;&gt;Node4</title>
<g id="a_edge6_Node000004_Node000007"><a xlink:title=" ">
<path fill="none" stroke="#63b8ff" d="M351.22,-152.51C378.26,-165.26 417.47,-183.74 441.12,-194.89"/>
<polygon fill="#63b8ff" stroke="#63b8ff" points="352.39,-149.2 341.86,-148.1 349.41,-155.53 352.39,-149.2"/>
</a>
</g>
</g>
<!-- Node8 -->
<g id="Node000008" class="node">
<title>Node8</title>
<g id="a_Node000008"><a xlink:href="classSynchronizerVector.html" target="_top" xlink:title=" ">
<polygon fill="white" stroke="#bfbfbf" points="228.5,-167 118.5,-167 118.5,-148 228.5,-148 228.5,-167"/>
<text text-anchor="middle" x="173.5" y="-155" font-family="Helvetica,sans-Serif" font-size="10.00">SynchronizerVector</text>
</a>
</g>
</g>
<!-- Node8&#45;&gt;Node7 -->
<g id="edge8_Node000007_Node000008" class="edge">
<title>Node8&#45;&gt;Node7</title>
<g id="a_edge8_Node000007_Node000008"><a xlink:title=" ">
<path fill="none" stroke="#63b8ff" d="M238.92,-149.06C256.11,-146.81 273.91,-144.47 288.39,-142.58"/>
<polygon fill="#63b8ff" stroke="#63b8ff" points="238.37,-145.6 228.91,-150.37 239.28,-152.54 238.37,-145.6"/>
</a>
</g>
</g>
<!-- Node9 -->
<g id="Node000009" class="node">
<title>Node9</title>
<g id="a_Node000009"><a xlink:href="classFifoWrFsm.html" target="_top" xlink:title=" ">
<polygon fill="white" stroke="#bfbfbf" points="208,-130 139,-130 139,-111 208,-111 208,-130"/>
<text text-anchor="middle" x="173.5" y="-118" font-family="Helvetica,sans-Serif" font-size="10.00">FifoWrFsm</text>
</a>
</g>
</g>
<!-- Node9&#45;&gt;Node7 -->
<g id="edge10_Node000007_Node000009" class="edge">
<title>Node9&#45;&gt;Node7</title>
<g id="a_edge10_Node000007_Node000009"><a xlink:title=" ">
<path fill="none" stroke="#63b8ff" d="M218.12,-125.92C240.63,-128.71 267.58,-132.06 288.04,-134.59"/>
<polygon fill="#63b8ff" stroke="#63b8ff" points="218.49,-122.43 208.13,-124.67 217.62,-129.38 218.49,-122.43"/>
</a>
</g>
</g>
<!-- Node10 -->
<g id="Node000010" class="node">
<title>Node10</title>
<g id="a_Node000010"><a xlink:href="classFifoRdFsm.html" target="_top" xlink:title=" ">
<polygon fill="white" stroke="#bfbfbf" points="207.5,-93 139.5,-93 139.5,-74 207.5,-74 207.5,-93"/>
<text text-anchor="middle" x="173.5" y="-81" font-family="Helvetica,sans-Serif" font-size="10.00">FifoRdFsm</text>
</a>
</g>
</g>
<!-- Node10&#45;&gt;Node7 -->
<g id="edge11_Node000007_Node000010" class="edge">
<title>Node10&#45;&gt;Node7</title>
<g id="a_edge11_Node000007_Node000010"><a xlink:title=" ">
<path fill="none" stroke="#63b8ff" d="M215.81,-96.2C220.95,-97.91 226.11,-99.7 231,-101.5 254.29,-110.06 280.45,-121.19 298.25,-129"/>
<polygon fill="#63b8ff" stroke="#63b8ff" points="216.64,-92.79 206.05,-93.01 214.47,-99.44 216.64,-92.79"/>
</a>
</g>
</g>
<!-- Node11 -->
<g id="Node000011" class="node">
<title>Node11</title>
<g id="a_Node000011"><a xlink:href="classSimpleDualPortRam.html" target="_top" xlink:title=" ">
<polygon fill="white" stroke="#bfbfbf" points="231,-56 116,-56 116,-37 231,-37 231,-56"/>
<text text-anchor="middle" x="173.5" y="-44" font-family="Helvetica,sans-Serif" font-size="10.00">SimpleDualPortRam</text>
</a>
</g>
</g>
<!-- Node11&#45;&gt;Node7 -->
<g id="edge12_Node000007_Node000011" class="edge">
<title>Node11&#45;&gt;Node7</title>
<g id="a_edge12_Node000007_Node000011"><a xlink:title=" ">
<path fill="none" stroke="#63b8ff" d="M220.89,-59.63C224.38,-61.11 227.79,-62.74 231,-64.5 263.65,-82.44 295.57,-113.37 310.59,-128.95"/>
<polygon fill="#63b8ff" stroke="#63b8ff" points="222.12,-56.35 211.53,-56.02 219.6,-62.88 222.12,-56.35"/>
</a>
</g>
</g>
<!-- Node12 -->
<g id="Node000012" class="node">
<title>Node12</title>
<g id="a_Node000012"><a xlink:href="classFifoOutputPipeline.html" target="_top" xlink:title=" ">
<polygon fill="white" stroke="#bfbfbf" points="227,-19 120,-19 120,0 227,0 227,-19"/>
<text text-anchor="middle" x="173.5" y="-7" font-family="Helvetica,sans-Serif" font-size="10.00">FifoOutputPipeline</text>
</a>
</g>
</g>
<!-- Node12&#45;&gt;Node7 -->
<g id="edge13_Node000007_Node000012" class="edge">
<title>Node12&#45;&gt;Node7</title>
<g id="a_edge13_Node000007_Node000012"><a xlink:title=" ">
<path fill="none" stroke="#63b8ff" d="M223.95,-23.26C226.41,-24.56 228.77,-25.97 231,-27.5 271.6,-55.46 302.78,-107.48 314.48,-128.9"/>
<polygon fill="#63b8ff" stroke="#63b8ff" points="225.34,-20.05 214.79,-19.07 222.43,-26.41 225.34,-20.05"/>
</a>
</g>
</g>
</g>
</svg>
