<?xml version="1.0" encoding="UTF-8" standalone="no"?>
<!DOCTYPE svg PUBLIC "-//W3C//DTD SVG 1.1//EN"
 "http://www.w3.org/Graphics/SVG/1.1/DTD/svg11.dtd">
<!-- Generated by graphviz version 2.43.0 (0)
 -->
<!-- Title: UartSem Pages: 1 -->
<svg width="785pt" height="302pt"
 viewBox="0.00 0.00 784.50 302.00" xmlns="http://www.w3.org/2000/svg" xmlns:xlink="http://www.w3.org/1999/xlink">
<g id="graph0" class="graph" transform="scale(1 1) rotate(0) translate(4 298)">
<title>UartSem</title>
<!-- Node1 -->
<g id="Node000001" class="node">
<title>Node1</title>
<g id="a_Node000001"><a xlink:title=" ">
<polygon fill="#999999" stroke="#666666" points="205.5,-19 146.5,-19 146.5,0 205.5,0 205.5,-19"/>
<text text-anchor="middle" x="176" y="-7" font-family="Helvetica,sans-Serif" font-size="10.00">UartSem</text>
</a>
</g>
</g>
<!-- Node2 -->
<g id="Node000002" class="node">
<title>Node2</title>
<g id="a_Node000002"><a xlink:href="classSemWrapper.html" target="_top" xlink:title=" ">
<polygon fill="white" stroke="#bfbfbf" points="167,-74 87,-74 87,-55 167,-55 167,-74"/>
<text text-anchor="middle" x="127" y="-62" font-family="Helvetica,sans-Serif" font-size="10.00">SemWrapper</text>
</a>
</g>
</g>
<!-- Node2&#45;&gt;Node1 -->
<g id="edge1_Node000001_Node000002" class="edge">
<title>Node2&#45;&gt;Node1</title>
<g id="a_edge1_Node000001_Node000002"><a xlink:title=" ">
<path fill="none" stroke="#63b8ff" d="M142.03,-47.24C150.62,-37.95 161.04,-26.68 168.06,-19.09"/>
<polygon fill="#63b8ff" stroke="#63b8ff" points="139.31,-45.03 135.09,-54.75 144.45,-49.78 139.31,-45.03"/>
</a>
</g>
</g>
<!-- Node3 -->
<g id="Node000003" class="node">
<title>Node3</title>
<g id="a_Node000003"><a xlink:href="classIprog7SeriesCore.html" target="_top" xlink:title=" ">
<polygon fill="white" stroke="#bfbfbf" points="165,-184 65,-184 65,-165 165,-165 165,-184"/>
<text text-anchor="middle" x="115" y="-172" font-family="Helvetica,sans-Serif" font-size="10.00">Iprog7SeriesCore</text>
</a>
</g>
</g>
<!-- Node3&#45;&gt;Node2 -->
<g id="edge2_Node000002_Node000003" class="edge">
<title>Node3&#45;&gt;Node2</title>
<g id="a_edge2_Node000002_Node000003"><a xlink:title=" ">
<path fill="none" stroke="#63b8ff" d="M117.11,-154.48C119.74,-130.84 124.11,-91.5 126.04,-74.16"/>
<polygon fill="#63b8ff" stroke="#63b8ff" points="113.61,-154.34 115.98,-164.66 120.57,-155.11 113.61,-154.34"/>
</a>
</g>
</g>
<!-- Node4 -->
<g id="Node000004" class="node">
<title>Node4</title>
<g id="a_Node000004"><a xlink:href="classSynchronizerVector.html" target="_top" xlink:title=" ">
<polygon fill="white" stroke="#bfbfbf" points="232,-239 122,-239 122,-220 232,-220 232,-239"/>
<text text-anchor="middle" x="177" y="-227" font-family="Helvetica,sans-Serif" font-size="10.00">SynchronizerVector</text>
</a>
</g>
</g>
<!-- Node4&#45;&gt;Node3 -->
<g id="edge3_Node000003_Node000004" class="edge">
<title>Node4&#45;&gt;Node3</title>
<g id="a_edge3_Node000003_Node000004"><a xlink:title=" ">
<path fill="none" stroke="#63b8ff" d="M159.25,-213.32C148.19,-203.87 134.37,-192.06 125.14,-184.17"/>
<polygon fill="#63b8ff" stroke="#63b8ff" points="157.16,-216.15 167.04,-219.98 161.71,-210.83 157.16,-216.15"/>
</a>
</g>
</g>
<!-- Node14 -->
<g id="Node000014" class="node">
<title>Node14</title>
<g id="a_Node000014"><a xlink:href="classFifoAsync.html" target="_top" xlink:title=" ">
<polygon fill="white" stroke="#bfbfbf" points="469,-184 405,-184 405,-165 469,-165 469,-184"/>
<text text-anchor="middle" x="437" y="-172" font-family="Helvetica,sans-Serif" font-size="10.00">FifoAsync</text>
</a>
</g>
</g>
<!-- Node4&#45;&gt;Node14 -->
<g id="edge17_Node000014_Node000004" class="edge">
<title>Node4&#45;&gt;Node14</title>
<g id="a_edge17_Node000014_Node000004"><a xlink:title=" ">
<path fill="none" stroke="#63b8ff" d="M228.89,-217.92C281.34,-207.23 360.76,-191.04 404.77,-182.07"/>
<polygon fill="#63b8ff" stroke="#63b8ff" points="227.87,-214.56 218.77,-219.98 229.27,-221.42 227.87,-214.56"/>
</a>
</g>
</g>
<!-- Node5 -->
<g id="Node000005" class="node">
<title>Node5</title>
<g id="a_Node000005"><a xlink:href="classSynchronizerEdge.html" target="_top" xlink:title=" ">
<polygon fill="white" stroke="#bfbfbf" points="104,-239 0,-239 0,-220 104,-220 104,-239"/>
<text text-anchor="middle" x="52" y="-227" font-family="Helvetica,sans-Serif" font-size="10.00">SynchronizerEdge</text>
</a>
</g>
</g>
<!-- Node5&#45;&gt;Node3 -->
<g id="edge4_Node000003_Node000005" class="edge">
<title>Node5&#45;&gt;Node3</title>
<g id="a_edge4_Node000003_Node000005"><a xlink:title=" ">
<path fill="none" stroke="#63b8ff" d="M70.04,-213.32C81.27,-203.87 95.32,-192.06 104.69,-184.17"/>
<polygon fill="#63b8ff" stroke="#63b8ff" points="67.52,-210.87 62.12,-219.98 72.03,-216.23 67.52,-210.87"/>
</a>
</g>
</g>
<!-- Node20 -->
<g id="Node000020" class="node">
<title>Node20</title>
<g id="a_Node000020"><a xlink:href="classUartRx.html" target="_top" xlink:title=" ">
<polygon fill="white" stroke="#bfbfbf" points="261,-129 211,-129 211,-110 261,-110 261,-129"/>
<text text-anchor="middle" x="236" y="-117" font-family="Helvetica,sans-Serif" font-size="10.00">UartRx</text>
</a>
</g>
</g>
<!-- Node5&#45;&gt;Node20 -->
<g id="edge29_Node000020_Node000005" class="edge">
<title>Node5&#45;&gt;Node20</title>
<g id="a_edge29_Node000020_Node000005"><a xlink:title=" ">
<path fill="none" stroke="#63b8ff" d="M97.75,-217.12C121.66,-209.9 150.72,-199.04 174,-184 197.81,-168.62 219.42,-142.54 229.7,-129.09"/>
<polygon fill="#63b8ff" stroke="#63b8ff" points="96.47,-213.85 87.84,-220 98.42,-220.57 96.47,-213.85"/>
</a>
</g>
</g>
<!-- Node6 -->
<g id="Node000006" class="node">
<title>Node6</title>
<g id="a_Node000006"><a xlink:href="classSynchronizer.html" target="_top" xlink:title=" ">
<polygon fill="white" stroke="#bfbfbf" points="318,-294 238,-294 238,-275 318,-275 318,-294"/>
<text text-anchor="middle" x="278" y="-282" font-family="Helvetica,sans-Serif" font-size="10.00">Synchronizer</text>
</a>
</g>
</g>
<!-- Node6&#45;&gt;Node5 -->
<g id="edge5_Node000005_Node000006" class="edge">
<title>Node6&#45;&gt;Node5</title>
<g id="a_edge5_Node000005_Node000006"><a xlink:title=" ">
<path fill="none" stroke="#63b8ff" d="M231.91,-272.69C189.56,-262.76 127.64,-248.24 88.6,-239.08"/>
<polygon fill="#63b8ff" stroke="#63b8ff" points="231.15,-276.11 241.69,-274.98 232.75,-269.29 231.15,-276.11"/>
</a>
</g>
</g>
<!-- Node6&#45;&gt;Node14 -->
<g id="edge18_Node000014_Node000006" class="edge">
<title>Node6&#45;&gt;Node14</title>
<g id="a_edge18_Node000014_Node000006"><a xlink:title=" ">
<path fill="none" stroke="#63b8ff" d="M294.75,-267.78C309.65,-254.24 332.36,-234.62 354,-220 375.14,-205.72 401.33,-192.32 418.58,-184.03"/>
<polygon fill="#63b8ff" stroke="#63b8ff" points="292.32,-265.26 287.34,-274.61 297.06,-270.41 292.32,-265.26"/>
</a>
</g>
</g>
<!-- Node15 -->
<g id="Node000015" class="node">
<title>Node15</title>
<g id="a_Node000015"><a xlink:href="classRstSync.html" target="_top" xlink:title=" ">
<polygon fill="white" stroke="#bfbfbf" points="306,-239 250,-239 250,-220 306,-220 306,-239"/>
<text text-anchor="middle" x="278" y="-227" font-family="Helvetica,sans-Serif" font-size="10.00">RstSync</text>
</a>
</g>
</g>
<!-- Node6&#45;&gt;Node15 -->
<g id="edge16_Node000015_Node000006" class="edge">
<title>Node6&#45;&gt;Node15</title>
<g id="a_edge16_Node000015_Node000006"><a xlink:title=" ">
<path fill="none" stroke="#63b8ff" d="M278,-264.66C278,-255.93 278,-245.99 278,-239.09"/>
<polygon fill="#63b8ff" stroke="#63b8ff" points="274.5,-264.75 278,-274.75 281.5,-264.75 274.5,-264.75"/>
</a>
</g>
</g>
<!-- Node7 -->
<g id="Node000007" class="node">
<title>Node7</title>
<g id="a_Node000007"><a xlink:href="classUartWrapper.html" target="_top" xlink:title=" ">
<polygon fill="white" stroke="#bfbfbf" points="275.5,-74 196.5,-74 196.5,-55 275.5,-55 275.5,-74"/>
<text text-anchor="middle" x="236" y="-62" font-family="Helvetica,sans-Serif" font-size="10.00">UartWrapper</text>
</a>
</g>
</g>
<!-- Node7&#45;&gt;Node1 -->
<g id="edge6_Node000001_Node000007" class="edge">
<title>Node7&#45;&gt;Node1</title>
<g id="a_edge6_Node000001_Node000007"><a xlink:title=" ">
<path fill="none" stroke="#63b8ff" d="M218.82,-48.32C208.12,-38.87 194.74,-27.06 185.82,-19.17"/>
<polygon fill="#63b8ff" stroke="#63b8ff" points="216.55,-50.99 226.36,-54.98 221.18,-45.74 216.55,-50.99"/>
</a>
</g>
</g>
<!-- Node8 -->
<g id="Node000008" class="node">
<title>Node8</title>
<g id="a_Node000008"><a xlink:href="classUartBrg.html" target="_top" xlink:title=" ">
<polygon fill="white" stroke="#bfbfbf" points="333,-129 279,-129 279,-110 333,-110 333,-129"/>
<text text-anchor="middle" x="306" y="-117" font-family="Helvetica,sans-Serif" font-size="10.00">UartBrg</text>
</a>
</g>
</g>
<!-- Node8&#45;&gt;Node7 -->
<g id="edge7_Node000007_Node000008" class="edge">
<title>Node8&#45;&gt;Node7</title>
<g id="a_edge7_Node000007_Node000008"><a xlink:title=" ">
<path fill="none" stroke="#63b8ff" d="M286.69,-103.88C274.09,-94.34 258.07,-82.21 247.45,-74.17"/>
<polygon fill="#63b8ff" stroke="#63b8ff" points="284.67,-106.74 294.75,-109.98 288.89,-101.16 284.67,-106.74"/>
</a>
</g>
</g>
<!-- Node9 -->
<g id="Node000009" class="node">
<title>Node9</title>
<g id="a_Node000009"><a xlink:href="classUartTx.html" target="_top" xlink:title=" ">
<polygon fill="white" stroke="#bfbfbf" points="193,-129 143,-129 143,-110 193,-110 193,-129"/>
<text text-anchor="middle" x="168" y="-117" font-family="Helvetica,sans-Serif" font-size="10.00">UartTx</text>
</a>
</g>
</g>
<!-- Node9&#45;&gt;Node7 -->
<g id="edge8_Node000007_Node000009" class="edge">
<title>Node9&#45;&gt;Node7</title>
<g id="a_edge8_Node000007_Node000009"><a xlink:title=" ">
<path fill="none" stroke="#63b8ff" d="M187.12,-103.6C199.3,-94.11 214.66,-82.13 224.88,-74.17"/>
<polygon fill="#63b8ff" stroke="#63b8ff" points="184.66,-101.08 178.93,-109.98 188.96,-106.6 184.66,-101.08"/>
</a>
</g>
</g>
<!-- Node10 -->
<g id="Node000010" class="node">
<title>Node10</title>
<g id="a_Node000010"><a xlink:href="classFifo.html" target="_top" xlink:title=" ">
<polygon fill="white" stroke="#bfbfbf" points="551.5,-129 516.5,-129 516.5,-110 551.5,-110 551.5,-129"/>
<text text-anchor="middle" x="534" y="-117" font-family="Helvetica,sans-Serif" font-size="10.00">Fifo</text>
</a>
</g>
</g>
<!-- Node10&#45;&gt;Node7 -->
<g id="edge9_Node000007_Node000010" class="edge">
<title>Node10&#45;&gt;Node7</title>
<g id="a_edge9_Node000007_Node000010"><a xlink:title=" ">
<path fill="none" stroke="#63b8ff" d="M506.2,-113.56C453.06,-104.1 336.89,-83.44 275.63,-72.55"/>
<polygon fill="#63b8ff" stroke="#63b8ff" points="505.79,-117.04 516.25,-115.34 507.02,-110.15 505.79,-117.04"/>
</a>
</g>
</g>
<!-- Node11 -->
<g id="Node000011" class="node">
<title>Node11</title>
<g id="a_Node000011"><a xlink:href="classFifoXpm.html" target="_top" xlink:title=" ">
<polygon fill="white" stroke="#bfbfbf" points="654.5,-184 597.5,-184 597.5,-165 654.5,-165 654.5,-184"/>
<text text-anchor="middle" x="626" y="-172" font-family="Helvetica,sans-Serif" font-size="10.00">FifoXpm</text>
</a>
</g>
</g>
<!-- Node11&#45;&gt;Node10 -->
<g id="edge10_Node000010_Node000011" class="edge">
<title>Node11&#45;&gt;Node10</title>
<g id="a_edge10_Node000010_Node000011"><a xlink:title=" ">
<path fill="none" stroke="#63b8ff" d="M602.51,-159.97C585.69,-150.28 563.55,-137.52 549.05,-129.17"/>
<polygon fill="#63b8ff" stroke="#63b8ff" points="600.81,-163.03 611.22,-164.98 604.3,-156.96 600.81,-163.03"/>
</a>
</g>
</g>
<!-- Node12 -->
<g id="Node000012" class="node">
<title>Node12</title>
<g id="a_Node000012"><a xlink:href="classFifoOutputPipeline.html" target="_top" xlink:title=" ">
<polygon fill="white" stroke="#bfbfbf" points="776.5,-239 669.5,-239 669.5,-220 776.5,-220 776.5,-239"/>
<text text-anchor="middle" x="723" y="-227" font-family="Helvetica,sans-Serif" font-size="10.00">FifoOutputPipeline</text>
</a>
</g>
</g>
<!-- Node12&#45;&gt;Node11 -->
<g id="edge11_Node000011_Node000012" class="edge">
<title>Node12&#45;&gt;Node11</title>
<g id="a_edge11_Node000011_Node000012"><a xlink:title=" ">
<path fill="none" stroke="#63b8ff" d="M698.23,-214.97C680.5,-205.28 657.15,-192.52 641.87,-184.17"/>
<polygon fill="#63b8ff" stroke="#63b8ff" points="696.96,-218.26 707.42,-219.98 700.32,-212.12 696.96,-218.26"/>
</a>
</g>
</g>
<!-- Node13 -->
<g id="Node000013" class="node">
<title>Node13</title>
<g id="a_Node000013"><a xlink:href="classFifoAlteraMf.html" target="_top" xlink:title=" ">
<polygon fill="white" stroke="#bfbfbf" points="757.5,-184 680.5,-184 680.5,-165 757.5,-165 757.5,-184"/>
<text text-anchor="middle" x="719" y="-172" font-family="Helvetica,sans-Serif" font-size="10.00">FifoAlteraMf</text>
</a>
</g>
</g>
<!-- Node12&#45;&gt;Node13 -->
<g id="edge13_Node000013_Node000012" class="edge">
<title>Node12&#45;&gt;Node13</title>
<g id="a_edge13_Node000013_Node000012"><a xlink:title=" ">
<path fill="none" stroke="#63b8ff" d="M721.58,-209.66C720.92,-200.93 720.17,-190.99 719.65,-184.09"/>
<polygon fill="#63b8ff" stroke="#63b8ff" points="718.1,-210.04 722.34,-219.75 725.08,-209.51 718.1,-210.04"/>
</a>
</g>
</g>
<!-- Node12&#45;&gt;Node14 -->
<g id="edge22_Node000014_Node000012" class="edge">
<title>Node12&#45;&gt;Node14</title>
<g id="a_edge22_Node000014_Node000012"><a xlink:title=" ">
<path fill="none" stroke="#63b8ff" d="M667.14,-218.15C608.1,-207.21 517.04,-190.33 469.08,-181.45"/>
<polygon fill="#63b8ff" stroke="#63b8ff" points="666.58,-221.6 677.05,-219.98 667.85,-214.72 666.58,-221.6"/>
</a>
</g>
</g>
<!-- Node19 -->
<g id="Node000019" class="node">
<title>Node19</title>
<g id="a_Node000019"><a xlink:href="classFifoSync.html" target="_top" xlink:title=" ">
<polygon fill="white" stroke="#bfbfbf" points="563,-184 505,-184 505,-165 563,-165 563,-184"/>
<text text-anchor="middle" x="534" y="-172" font-family="Helvetica,sans-Serif" font-size="10.00">FifoSync</text>
</a>
</g>
</g>
<!-- Node12&#45;&gt;Node19 -->
<g id="edge27_Node000019_Node000012" class="edge">
<title>Node12&#45;&gt;Node19</title>
<g id="a_edge27_Node000019_Node000012"><a xlink:title=" ">
<path fill="none" stroke="#63b8ff" d="M682.95,-217.27C647.02,-207.19 595.14,-192.64 563.05,-183.65"/>
<polygon fill="#63b8ff" stroke="#63b8ff" points="682.06,-220.65 692.63,-219.98 683.95,-213.91 682.06,-220.65"/>
</a>
</g>
</g>
<!-- Node13&#45;&gt;Node10 -->
<g id="edge12_Node000010_Node000013" class="edge">
<title>Node13&#45;&gt;Node10</title>
<g id="a_edge12_Node000010_Node000013"><a xlink:title=" ">
<path fill="none" stroke="#63b8ff" d="M679.45,-162.17C640,-150.87 581.18,-134.02 551.9,-125.63"/>
<polygon fill="#63b8ff" stroke="#63b8ff" points="678.7,-165.6 689.28,-164.98 680.63,-158.87 678.7,-165.6"/>
</a>
</g>
</g>
<!-- Node14&#45;&gt;Node10 -->
<g id="edge14_Node000010_Node000014" class="edge">
<title>Node14&#45;&gt;Node10</title>
<g id="a_edge14_Node000010_Node000014"><a xlink:title=" ">
<path fill="none" stroke="#63b8ff" d="M461.77,-159.97C479.5,-150.28 502.85,-137.52 518.13,-129.17"/>
<polygon fill="#63b8ff" stroke="#63b8ff" points="459.68,-157.12 452.58,-164.98 463.04,-163.26 459.68,-157.12"/>
</a>
</g>
</g>
<!-- Node15&#45;&gt;Node14 -->
<g id="edge15_Node000014_Node000015" class="edge">
<title>Node15&#45;&gt;Node14</title>
<g id="a_edge15_Node000014_Node000015"><a xlink:title=" ">
<path fill="none" stroke="#63b8ff" d="M313.1,-216.8C342.78,-206.91 384.6,-192.97 411.25,-184.08"/>
<polygon fill="#63b8ff" stroke="#63b8ff" points="311.93,-213.5 303.55,-219.98 314.14,-220.14 311.93,-213.5"/>
</a>
</g>
</g>
<!-- Node16 -->
<g id="Node000016" class="node">
<title>Node16</title>
<g id="a_Node000016"><a xlink:href="classFifoWrFsm.html" target="_top" xlink:title=" ">
<polygon fill="white" stroke="#bfbfbf" points="564.5,-239 495.5,-239 495.5,-220 564.5,-220 564.5,-239"/>
<text text-anchor="middle" x="530" y="-227" font-family="Helvetica,sans-Serif" font-size="10.00">FifoWrFsm</text>
</a>
</g>
</g>
<!-- Node16&#45;&gt;Node14 -->
<g id="edge19_Node000014_Node000016" class="edge">
<title>Node16&#45;&gt;Node14</title>
<g id="a_edge19_Node000014_Node000016"><a xlink:title=" ">
<path fill="none" stroke="#63b8ff" d="M506.25,-214.97C489.25,-205.28 466.87,-192.52 452.21,-184.17"/>
<polygon fill="#63b8ff" stroke="#63b8ff" points="504.64,-218.07 515.06,-219.98 508.1,-211.99 504.64,-218.07"/>
</a>
</g>
</g>
<!-- Node16&#45;&gt;Node19 -->
<g id="edge24_Node000019_Node000016" class="edge">
<title>Node16&#45;&gt;Node19</title>
<g id="a_edge24_Node000019_Node000016"><a xlink:title=" ">
<path fill="none" stroke="#63b8ff" d="M531.42,-209.66C532.08,-200.93 532.83,-190.99 533.35,-184.09"/>
<polygon fill="#63b8ff" stroke="#63b8ff" points="527.92,-209.51 530.66,-219.75 534.9,-210.04 527.92,-209.51"/>
</a>
</g>
</g>
<!-- Node17 -->
<g id="Node000017" class="node">
<title>Node17</title>
<g id="a_Node000017"><a xlink:href="classFifoRdFsm.html" target="_top" xlink:title=" ">
<polygon fill="white" stroke="#bfbfbf" points="651,-239 583,-239 583,-220 651,-220 651,-239"/>
<text text-anchor="middle" x="617" y="-227" font-family="Helvetica,sans-Serif" font-size="10.00">FifoRdFsm</text>
</a>
</g>
</g>
<!-- Node17&#45;&gt;Node14 -->
<g id="edge20_Node000014_Node000017" class="edge">
<title>Node17&#45;&gt;Node14</title>
<g id="a_edge20_Node000014_Node000017"><a xlink:title=" ">
<path fill="none" stroke="#63b8ff" d="M578.13,-217.06C544.49,-207.15 496.58,-193.04 466.15,-184.08"/>
<polygon fill="#63b8ff" stroke="#63b8ff" points="577.5,-220.52 588.08,-219.98 579.48,-213.8 577.5,-220.52"/>
</a>
</g>
</g>
<!-- Node17&#45;&gt;Node19 -->
<g id="edge25_Node000019_Node000017" class="edge">
<title>Node17&#45;&gt;Node19</title>
<g id="a_edge25_Node000019_Node000017"><a xlink:title=" ">
<path fill="none" stroke="#63b8ff" d="M594.96,-214.42C579.89,-204.81 560.41,-192.37 547.58,-184.17"/>
<polygon fill="#63b8ff" stroke="#63b8ff" points="593.35,-217.55 603.66,-219.98 597.12,-211.65 593.35,-217.55"/>
</a>
</g>
</g>
<!-- Node18 -->
<g id="Node000018" class="node">
<title>Node18</title>
<g id="a_Node000018"><a xlink:href="classSimpleDualPortRam.html" target="_top" xlink:title=" ">
<polygon fill="white" stroke="#bfbfbf" points="477.5,-239 362.5,-239 362.5,-220 477.5,-220 477.5,-239"/>
<text text-anchor="middle" x="420" y="-227" font-family="Helvetica,sans-Serif" font-size="10.00">SimpleDualPortRam</text>
</a>
</g>
</g>
<!-- Node18&#45;&gt;Node14 -->
<g id="edge21_Node000014_Node000018" class="edge">
<title>Node18&#45;&gt;Node14</title>
<g id="a_edge21_Node000014_Node000018"><a xlink:title=" ">
<path fill="none" stroke="#63b8ff" d="M425.95,-209.95C428.77,-201.15 432.01,-191.06 434.25,-184.09"/>
<polygon fill="#63b8ff" stroke="#63b8ff" points="422.53,-209.16 422.81,-219.75 429.19,-211.29 422.53,-209.16"/>
</a>
</g>
</g>
<!-- Node18&#45;&gt;Node19 -->
<g id="edge26_Node000019_Node000018" class="edge">
<title>Node18&#45;&gt;Node19</title>
<g id="a_edge26_Node000019_Node000018"><a xlink:title=" ">
<path fill="none" stroke="#63b8ff" d="M447.39,-215.77C468.42,-205.99 496.89,-192.75 515.35,-184.17"/>
<polygon fill="#63b8ff" stroke="#63b8ff" points="445.91,-212.6 438.32,-219.98 448.86,-218.94 445.91,-212.6"/>
</a>
</g>
</g>
<!-- Node19&#45;&gt;Node10 -->
<g id="edge23_Node000010_Node000019" class="edge">
<title>Node19&#45;&gt;Node10</title>
<g id="a_edge23_Node000010_Node000019"><a xlink:title=" ">
<path fill="none" stroke="#63b8ff" d="M534,-154.66C534,-145.93 534,-135.99 534,-129.09"/>
<polygon fill="#63b8ff" stroke="#63b8ff" points="530.5,-154.75 534,-164.75 537.5,-154.75 530.5,-154.75"/>
</a>
</g>
</g>
<!-- Node20&#45;&gt;Node7 -->
<g id="edge28_Node000007_Node000020" class="edge">
<title>Node20&#45;&gt;Node7</title>
<g id="a_edge28_Node000007_Node000020"><a xlink:title=" ">
<path fill="none" stroke="#63b8ff" d="M236,-99.66C236,-90.93 236,-80.99 236,-74.09"/>
<polygon fill="#63b8ff" stroke="#63b8ff" points="232.5,-99.75 236,-109.75 239.5,-99.75 232.5,-99.75"/>
</a>
</g>
</g>
</g>
</svg>
