<?xml version="1.0" encoding="UTF-8" standalone="no"?>
<!DOCTYPE svg PUBLIC "-//W3C//DTD SVG 1.1//EN"
 "http://www.w3.org/Graphics/SVG/1.1/DTD/svg11.dtd">
<!-- Generated by graphviz version 2.43.0 (0)
 -->
<!-- Title: EthMacFlowCtrl Pages: 1 -->
<!--zoomable 636 -->
<svg id="main" version="1.1" xmlns="http://www.w3.org/2000/svg" xmlns:xlink="http://www.w3.org/1999/xlink" xml:space="preserve" onload="init(evt)">
<style type="text/css"><![CDATA[
.edge:hover path { stroke: red; }
.edge:hover polygon { stroke: red; fill: red; }
]]></style>
<script type="text/javascript"><![CDATA[
var edges = document.getElementsByTagName('g');
if (edges && edges.length) {
  for (var i=0;i<edges.length;i++) {
    if (edges[i].id.substr(0,4)=='edge') {
      edges[i].setAttribute('class','edge');
    }
  }
}
]]></script>
        <defs>
                <circle id="rim" cx="0" cy="0" r="7"/>
                <circle id="rim2" cx="0" cy="0" r="3.5"/>
                <g id="zoomPlus">
                        <use xlink:href="#rim" fill="#404040">
                                <set attributeName="fill" to="#808080" begin="zoomplus.mouseover" end="zoomplus.mouseout"/>
                        </use>
                        <path d="M-4,0h8M0,-4v8" fill="none" stroke="white" stroke-width="1.5" pointer-events="none"/>
                </g>
                <g id="zoomMin">
                        <use xlink:href="#rim" fill="#404040">
                                <set attributeName="fill" to="#808080" begin="zoomminus.mouseover" end="zoomminus.mouseout"/>
                        </use>
                        <path d="M-4,0h8" fill="none" stroke="white" stroke-width="1.5" pointer-events="none"/>
                </g>
                <g id="dirArrow">
                        <path fill="none" stroke="white" stroke-width="1.5" d="M0,-3.0v7 M-2.5,-0.5L0,-3.0L2.5,-0.5"/>
                </g>
               <g id="resetDef">
                       <use xlink:href="#rim2" fill="#404040">
                               <set attributeName="fill" to="#808080" begin="reset.mouseover" end="reset.mouseout"/>
                       </use>
               </g>
        </defs>

<script type="text/javascript">
var viewWidth = 782;
var viewHeight = 636;
var sectionId = 'dynsection-0';
</script>
<script xlink:href="svgpan.js"/>
<svg id="graph" class="graph">
<g id="viewport">
<title>EthMacFlowCtrl</title>
<polygon fill="white" stroke="transparent" points="-4,4 -4,-632 778,-632 778,4 -4,4"/>
<!-- Node1 -->
<g id="node1" class="node">
<title>Node1</title>
<g id="a_node1"><a xlink:title=" ">
<polygon fill="#bfbfbf" stroke="black" points="0,-304.5 0,-323.5 93,-323.5 93,-304.5 0,-304.5"/>
<text text-anchor="middle" x="46.5" y="-311.5" font-family="Helvetica,sans-Serif" font-size="10.00">EthMacFlowCtrl</text>
</a>
</g>
</g>
<!-- Node2 -->
<g id="node2" class="node">
<title>Node2</title>
<g id="a_node2"><a xlink:href="classEthMacTop.html" target="_top" xlink:title=" ">
<polygon fill="white" stroke="black" points="129,-304.5 129,-323.5 198,-323.5 198,-304.5 129,-304.5"/>
<text text-anchor="middle" x="163.5" y="-311.5" font-family="Helvetica,sans-Serif" font-size="10.00">EthMacTop</text>
</a>
</g>
</g>
<!-- Node1&#45;&gt;Node2 -->
<g id="edge1" class="edge">
<title>Node1&#45;&gt;Node2</title>
<path fill="none" stroke="midnightblue" d="M103.44,-314C112.15,-314 120.92,-314 128.92,-314"/>
<polygon fill="midnightblue" stroke="midnightblue" points="103.28,-310.5 93.28,-314 103.28,-317.5 103.28,-310.5"/>
</g>
<!-- Node3 -->
<g id="node3" class="node">
<title>Node3</title>
<g id="a_node3"><a xlink:href="classEthMacPauseTb.html" target="_top" xlink:title=" ">
<polygon fill="white" stroke="black" points="254,-608.5 254,-627.5 347,-627.5 347,-608.5 254,-608.5"/>
<text text-anchor="middle" x="300.5" y="-615.5" font-family="Helvetica,sans-Serif" font-size="10.00">EthMacPauseTb</text>
</a>
</g>
</g>
<!-- Node2&#45;&gt;Node3 -->
<g id="edge2" class="edge">
<title>Node2&#45;&gt;Node3</title>
<path fill="none" stroke="midnightblue" d="M166.75,-333.78C173.73,-391.85 196.85,-560.21 234,-599 239.41,-604.64 246.38,-608.64 253.75,-611.46"/>
<polygon fill="midnightblue" stroke="midnightblue" points="170.21,-333.23 165.57,-323.71 163.26,-334.04 170.21,-333.23"/>
</g>
<!-- Node4 -->
<g id="node4" class="node">
<title>Node4</title>
<g id="a_node4"><a xlink:href="classEthMacTb.html" target="_top" xlink:title=" ">
<polygon fill="white" stroke="black" points="268,-570.5 268,-589.5 333,-589.5 333,-570.5 268,-570.5"/>
<text text-anchor="middle" x="300.5" y="-577.5" font-family="Helvetica,sans-Serif" font-size="10.00">EthMacTb</text>
</a>
</g>
</g>
<!-- Node2&#45;&gt;Node4 -->
<g id="edge3" class="edge">
<title>Node2&#45;&gt;Node4</title>
<path fill="none" stroke="midnightblue" d="M164.01,-333.88C164,-380.39 170.66,-497.15 234,-561 242.92,-569.99 255.83,-574.79 267.83,-577.32"/>
<polygon fill="midnightblue" stroke="midnightblue" points="167.52,-333.69 164.13,-323.65 160.52,-333.61 167.52,-333.69"/>
</g>
<!-- Node5 -->
<g id="node5" class="node">
<title>Node5</title>
<g id="a_node5"><a xlink:href="classGigEthGth7.html" target="_top" xlink:title=" ">
<polygon fill="white" stroke="black" points="264.5,-532.5 264.5,-551.5 336.5,-551.5 336.5,-532.5 264.5,-532.5"/>
<text text-anchor="middle" x="300.5" y="-539.5" font-family="Helvetica,sans-Serif" font-size="10.00">GigEthGth7</text>
</a>
</g>
</g>
<!-- Node2&#45;&gt;Node5 -->
<g id="edge4" class="edge">
<title>Node2&#45;&gt;Node5</title>
<path fill="none" stroke="midnightblue" d="M165.21,-333.59C167.77,-374.74 179.59,-470.66 234,-523 242.19,-530.88 253.45,-535.52 264.32,-538.25"/>
<polygon fill="midnightblue" stroke="midnightblue" points="168.7,-333.33 164.7,-323.52 161.71,-333.68 168.7,-333.33"/>
</g>
<!-- Node7 -->
<g id="node7" class="node">
<title>Node7</title>
<g id="a_node7"><a xlink:href="classGigEthGthUltraScale.html" target="_top" xlink:title=" ">
<polygon fill="white" stroke="black" points="242.5,-494.5 242.5,-513.5 358.5,-513.5 358.5,-494.5 242.5,-494.5"/>
<text text-anchor="middle" x="300.5" y="-501.5" font-family="Helvetica,sans-Serif" font-size="10.00">GigEthGthUltraScale</text>
</a>
</g>
</g>
<!-- Node2&#45;&gt;Node7 -->
<g id="edge6" class="edge">
<title>Node2&#45;&gt;Node7</title>
<path fill="none" stroke="midnightblue" d="M166.92,-333.89C172.33,-369.48 188.68,-444.15 234,-485 238.31,-488.88 243.37,-491.98 248.73,-494.44"/>
<polygon fill="midnightblue" stroke="midnightblue" points="170.37,-333.22 165.53,-323.8 163.43,-334.18 170.37,-333.22"/>
</g>
<!-- Node9 -->
<g id="node9" class="node">
<title>Node9</title>
<g id="a_node9"><a xlink:href="classGigEthGtp7.html" target="_top" xlink:title=" ">
<polygon fill="white" stroke="black" points="264.5,-456.5 264.5,-475.5 336.5,-475.5 336.5,-456.5 264.5,-456.5"/>
<text text-anchor="middle" x="300.5" y="-463.5" font-family="Helvetica,sans-Serif" font-size="10.00">GigEthGtp7</text>
</a>
</g>
</g>
<!-- Node2&#45;&gt;Node9 -->
<g id="edge8" class="edge">
<title>Node2&#45;&gt;Node9</title>
<path fill="none" stroke="midnightblue" d="M169.4,-333.49C177.71,-362.55 197.35,-417.01 234,-447 242.61,-454.05 253.73,-458.48 264.36,-461.27"/>
<polygon fill="midnightblue" stroke="midnightblue" points="172.74,-332.45 166.75,-323.71 165.98,-334.27 172.74,-332.45"/>
</g>
<!-- Node11 -->
<g id="node11" class="node">
<title>Node11</title>
<g id="a_node11"><a xlink:href="classGigEthGtx7.html" target="_top" xlink:title=" ">
<polygon fill="white" stroke="black" points="264.5,-418.5 264.5,-437.5 336.5,-437.5 336.5,-418.5 264.5,-418.5"/>
<text text-anchor="middle" x="300.5" y="-425.5" font-family="Helvetica,sans-Serif" font-size="10.00">GigEthGtx7</text>
</a>
</g>
</g>
<!-- Node2&#45;&gt;Node11 -->
<g id="edge10" class="edge">
<title>Node2&#45;&gt;Node11</title>
<path fill="none" stroke="midnightblue" d="M173.45,-332.85C184.65,-354.41 205.82,-389.27 234,-409 242.92,-415.25 253.89,-419.46 264.28,-422.29"/>
<polygon fill="midnightblue" stroke="midnightblue" points="176.49,-331.1 168.9,-323.72 170.23,-334.23 176.49,-331.1"/>
</g>
<!-- Node13 -->
<g id="node13" class="node">
<title>Node13</title>
<g id="a_node13"><a xlink:href="classGigEthGtyUltraScale.html" target="_top" xlink:title=" ">
<polygon fill="white" stroke="black" points="242.5,-380.5 242.5,-399.5 358.5,-399.5 358.5,-380.5 242.5,-380.5"/>
<text text-anchor="middle" x="300.5" y="-387.5" font-family="Helvetica,sans-Serif" font-size="10.00">GigEthGtyUltraScale</text>
</a>
</g>
</g>
<!-- Node2&#45;&gt;Node13 -->
<g id="edge12" class="edge">
<title>Node2&#45;&gt;Node13</title>
<path fill="none" stroke="midnightblue" d="M181.32,-331.15C194.59,-343.78 214.1,-360.52 234,-371 241.23,-374.81 249.32,-377.94 257.28,-380.49"/>
<polygon fill="midnightblue" stroke="midnightblue" points="183.52,-328.4 173.93,-323.9 178.62,-333.4 183.52,-328.4"/>
</g>
<!-- Node15 -->
<g id="node15" class="node">
<title>Node15</title>
<g id="a_node15"><a xlink:href="classGigEthLvdsUltraScale.html" target="_top" xlink:title=" ">
<polygon fill="white" stroke="black" points="239.5,-342.5 239.5,-361.5 361.5,-361.5 361.5,-342.5 239.5,-342.5"/>
<text text-anchor="middle" x="300.5" y="-349.5" font-family="Helvetica,sans-Serif" font-size="10.00">GigEthLvdsUltraScale</text>
</a>
</g>
</g>
<!-- Node2&#45;&gt;Node15 -->
<g id="edge14" class="edge">
<title>Node2&#45;&gt;Node15</title>
<path fill="none" stroke="midnightblue" d="M208,-326.24C226.71,-331.51 248.26,-337.58 265.74,-342.5"/>
<polygon fill="midnightblue" stroke="midnightblue" points="208.79,-322.83 198.22,-323.49 206.9,-329.57 208.79,-322.83"/>
</g>
<!-- Node19 -->
<g id="node19" class="node">
<title>Node19</title>
<g id="a_node19"><a xlink:href="classTenGigEthGth7.html" target="_top" xlink:title=" ">
<polygon fill="white" stroke="black" points="256,-304.5 256,-323.5 345,-323.5 345,-304.5 256,-304.5"/>
<text text-anchor="middle" x="300.5" y="-311.5" font-family="Helvetica,sans-Serif" font-size="10.00">TenGigEthGth7</text>
</a>
</g>
</g>
<!-- Node2&#45;&gt;Node19 -->
<g id="edge18" class="edge">
<title>Node2&#45;&gt;Node19</title>
<path fill="none" stroke="midnightblue" d="M208.4,-314C223.58,-314 240.59,-314 255.77,-314"/>
<polygon fill="midnightblue" stroke="midnightblue" points="208.22,-310.5 198.22,-314 208.22,-317.5 208.22,-310.5"/>
</g>
<!-- Node21 -->
<g id="node21" class="node">
<title>Node21</title>
<g id="a_node21"><a xlink:href="classTenGigEthGthUltraScale.html" target="_top" xlink:title=" ">
<polygon fill="white" stroke="black" points="234,-266.5 234,-285.5 367,-285.5 367,-266.5 234,-266.5"/>
<text text-anchor="middle" x="300.5" y="-273.5" font-family="Helvetica,sans-Serif" font-size="10.00">TenGigEthGthUltraScale</text>
</a>
</g>
</g>
<!-- Node2&#45;&gt;Node21 -->
<g id="edge20" class="edge">
<title>Node2&#45;&gt;Node21</title>
<path fill="none" stroke="midnightblue" d="M208,-301.76C226.71,-296.49 248.26,-290.42 265.74,-285.5"/>
<polygon fill="midnightblue" stroke="midnightblue" points="206.9,-298.43 198.22,-304.51 208.79,-305.17 206.9,-298.43"/>
</g>
<!-- Node23 -->
<g id="node23" class="node">
<title>Node23</title>
<g id="a_node23"><a xlink:href="classTenGigEthGtx7.html" target="_top" xlink:title=" ">
<polygon fill="white" stroke="black" points="256,-228.5 256,-247.5 345,-247.5 345,-228.5 256,-228.5"/>
<text text-anchor="middle" x="300.5" y="-235.5" font-family="Helvetica,sans-Serif" font-size="10.00">TenGigEthGtx7</text>
</a>
</g>
</g>
<!-- Node2&#45;&gt;Node23 -->
<g id="edge22" class="edge">
<title>Node2&#45;&gt;Node23</title>
<path fill="none" stroke="midnightblue" d="M181.32,-296.85C194.59,-284.22 214.1,-267.48 234,-257 241.23,-253.19 249.32,-250.06 257.28,-247.51"/>
<polygon fill="midnightblue" stroke="midnightblue" points="178.62,-294.6 173.93,-304.1 183.52,-299.6 178.62,-294.6"/>
</g>
<!-- Node25 -->
<g id="node25" class="node">
<title>Node25</title>
<g id="a_node25"><a xlink:href="classTenGigEthGtyUltraScale.html" target="_top" xlink:title=" ">
<polygon fill="white" stroke="black" points="234,-190.5 234,-209.5 367,-209.5 367,-190.5 234,-190.5"/>
<text text-anchor="middle" x="300.5" y="-197.5" font-family="Helvetica,sans-Serif" font-size="10.00">TenGigEthGtyUltraScale</text>
</a>
</g>
</g>
<!-- Node2&#45;&gt;Node25 -->
<g id="edge24" class="edge">
<title>Node2&#45;&gt;Node25</title>
<path fill="none" stroke="midnightblue" d="M173.45,-295.15C184.65,-273.59 205.82,-238.73 234,-219 239.53,-215.13 245.84,-212.04 252.32,-209.58"/>
<polygon fill="midnightblue" stroke="midnightblue" points="170.23,-293.77 168.9,-304.28 176.49,-296.9 170.23,-293.77"/>
</g>
<!-- Node27 -->
<g id="node27" class="node">
<title>Node27</title>
<g id="a_node27"><a xlink:href="classUdpEngineTb.html" target="_top" xlink:title=" ">
<polygon fill="white" stroke="black" points="260,-152.5 260,-171.5 341,-171.5 341,-152.5 260,-152.5"/>
<text text-anchor="middle" x="300.5" y="-159.5" font-family="Helvetica,sans-Serif" font-size="10.00">UdpEngineTb</text>
</a>
</g>
</g>
<!-- Node2&#45;&gt;Node27 -->
<g id="edge26" class="edge">
<title>Node2&#45;&gt;Node27</title>
<path fill="none" stroke="midnightblue" d="M169.4,-294.51C177.71,-265.45 197.35,-210.99 234,-181 241.42,-174.93 250.71,-170.79 259.93,-167.98"/>
<polygon fill="midnightblue" stroke="midnightblue" points="165.98,-293.73 166.75,-304.29 172.74,-295.55 165.98,-293.73"/>
</g>
<!-- Node28 -->
<g id="node28" class="node">
<title>Node28</title>
<g id="a_node28"><a xlink:href="classXauiGth7.html" target="_top" xlink:title=" ">
<polygon fill="white" stroke="black" points="269.5,-114.5 269.5,-133.5 331.5,-133.5 331.5,-114.5 269.5,-114.5"/>
<text text-anchor="middle" x="300.5" y="-121.5" font-family="Helvetica,sans-Serif" font-size="10.00">XauiGth7</text>
</a>
</g>
</g>
<!-- Node2&#45;&gt;Node28 -->
<g id="edge27" class="edge">
<title>Node2&#45;&gt;Node28</title>
<path fill="none" stroke="midnightblue" d="M166.92,-294.11C172.33,-258.52 188.68,-183.85 234,-143 243.67,-134.28 257.13,-129.55 269.33,-126.98"/>
<polygon fill="midnightblue" stroke="midnightblue" points="163.43,-293.82 165.53,-304.2 170.37,-294.78 163.43,-293.82"/>
</g>
<!-- Node30 -->
<g id="node30" class="node">
<title>Node30</title>
<g id="a_node30"><a xlink:href="classXauiGthUltraScale.html" target="_top" xlink:title=" ">
<polygon fill="white" stroke="black" points="247.5,-76.5 247.5,-95.5 353.5,-95.5 353.5,-76.5 247.5,-76.5"/>
<text text-anchor="middle" x="300.5" y="-83.5" font-family="Helvetica,sans-Serif" font-size="10.00">XauiGthUltraScale</text>
</a>
</g>
</g>
<!-- Node2&#45;&gt;Node30 -->
<g id="edge29" class="edge">
<title>Node2&#45;&gt;Node30</title>
<path fill="none" stroke="midnightblue" d="M165.21,-294.41C167.77,-253.26 179.59,-157.34 234,-105 238.01,-101.14 242.76,-98.06 247.83,-95.6"/>
<polygon fill="midnightblue" stroke="midnightblue" points="161.71,-294.32 164.7,-304.48 168.7,-294.67 161.71,-294.32"/>
</g>
<!-- Node32 -->
<g id="node32" class="node">
<title>Node32</title>
<g id="a_node32"><a xlink:href="classXauiGtx7.html" target="_top" xlink:title=" ">
<polygon fill="white" stroke="black" points="269.5,-38.5 269.5,-57.5 331.5,-57.5 331.5,-38.5 269.5,-38.5"/>
<text text-anchor="middle" x="300.5" y="-45.5" font-family="Helvetica,sans-Serif" font-size="10.00">XauiGtx7</text>
</a>
</g>
</g>
<!-- Node2&#45;&gt;Node32 -->
<g id="edge31" class="edge">
<title>Node2&#45;&gt;Node32</title>
<path fill="none" stroke="midnightblue" d="M164.01,-294.12C164,-247.61 170.66,-130.85 234,-67 243.26,-57.67 256.8,-52.86 269.17,-50.4"/>
<polygon fill="midnightblue" stroke="midnightblue" points="160.52,-294.39 164.13,-304.35 167.52,-294.31 160.52,-294.39"/>
</g>
<!-- Node34 -->
<g id="node34" class="node">
<title>Node34</title>
<g id="a_node34"><a xlink:href="classXauiGtyUltraScale.html" target="_top" xlink:title=" ">
<polygon fill="white" stroke="black" points="247.5,-0.5 247.5,-19.5 353.5,-19.5 353.5,-0.5 247.5,-0.5"/>
<text text-anchor="middle" x="300.5" y="-7.5" font-family="Helvetica,sans-Serif" font-size="10.00">XauiGtyUltraScale</text>
</a>
</g>
</g>
<!-- Node2&#45;&gt;Node34 -->
<g id="edge33" class="edge">
<title>Node2&#45;&gt;Node34</title>
<path fill="none" stroke="midnightblue" d="M166.75,-294.22C173.73,-236.15 196.85,-67.79 234,-29 237.77,-25.07 242.3,-21.93 247.19,-19.44"/>
<polygon fill="midnightblue" stroke="midnightblue" points="163.26,-293.96 165.57,-304.29 170.21,-294.77 163.26,-293.96"/>
</g>
<!-- Node6 -->
<g id="node6" class="node">
<title>Node6</title>
<g id="a_node6"><a xlink:href="classGigEthGth7Wrapper.html" target="_top" xlink:title=" ">
<polygon fill="white" stroke="black" points="433.5,-532.5 433.5,-551.5 546.5,-551.5 546.5,-532.5 433.5,-532.5"/>
<text text-anchor="middle" x="490" y="-539.5" font-family="Helvetica,sans-Serif" font-size="10.00">GigEthGth7Wrapper</text>
</a>
</g>
</g>
<!-- Node5&#45;&gt;Node6 -->
<g id="edge5" class="edge">
<title>Node5&#45;&gt;Node6</title>
<path fill="none" stroke="midnightblue" d="M347.08,-542C373.04,-542 405.77,-542 433.25,-542"/>
<polygon fill="midnightblue" stroke="midnightblue" points="346.77,-538.5 336.77,-542 346.77,-545.5 346.77,-538.5"/>
</g>
<!-- Node8 -->
<g id="node8" class="node">
<title>Node8</title>
<g id="a_node8"><a xlink:href="classGigEthGthUltraScaleWrapper.html" target="_top" xlink:title=" ">
<polygon fill="white" stroke="black" points="411,-494.5 411,-513.5 569,-513.5 569,-494.5 411,-494.5"/>
<text text-anchor="middle" x="490" y="-501.5" font-family="Helvetica,sans-Serif" font-size="10.00">GigEthGthUltraScaleWrapper</text>
</a>
</g>
</g>
<!-- Node7&#45;&gt;Node8 -->
<g id="edge7" class="edge">
<title>Node7&#45;&gt;Node8</title>
<path fill="none" stroke="midnightblue" d="M368.77,-504C382.4,-504 396.85,-504 410.82,-504"/>
<polygon fill="midnightblue" stroke="midnightblue" points="368.52,-500.5 358.52,-504 368.52,-507.5 368.52,-500.5"/>
</g>
<!-- Node10 -->
<g id="node10" class="node">
<title>Node10</title>
<g id="a_node10"><a xlink:href="classGigEthGtp7Wrapper.html" target="_top" xlink:title=" ">
<polygon fill="white" stroke="black" points="433.5,-456.5 433.5,-475.5 546.5,-475.5 546.5,-456.5 433.5,-456.5"/>
<text text-anchor="middle" x="490" y="-463.5" font-family="Helvetica,sans-Serif" font-size="10.00">GigEthGtp7Wrapper</text>
</a>
</g>
</g>
<!-- Node9&#45;&gt;Node10 -->
<g id="edge9" class="edge">
<title>Node9&#45;&gt;Node10</title>
<path fill="none" stroke="midnightblue" d="M347.08,-466C373.04,-466 405.77,-466 433.25,-466"/>
<polygon fill="midnightblue" stroke="midnightblue" points="346.77,-462.5 336.77,-466 346.77,-469.5 346.77,-462.5"/>
</g>
<!-- Node12 -->
<g id="node12" class="node">
<title>Node12</title>
<g id="a_node12"><a xlink:href="classGigEthGtx7Wrapper.html" target="_top" xlink:title=" ">
<polygon fill="white" stroke="black" points="433.5,-418.5 433.5,-437.5 546.5,-437.5 546.5,-418.5 433.5,-418.5"/>
<text text-anchor="middle" x="490" y="-425.5" font-family="Helvetica,sans-Serif" font-size="10.00">GigEthGtx7Wrapper</text>
</a>
</g>
</g>
<!-- Node11&#45;&gt;Node12 -->
<g id="edge11" class="edge">
<title>Node11&#45;&gt;Node12</title>
<path fill="none" stroke="midnightblue" d="M347.08,-428C373.04,-428 405.77,-428 433.25,-428"/>
<polygon fill="midnightblue" stroke="midnightblue" points="346.77,-424.5 336.77,-428 346.77,-431.5 346.77,-424.5"/>
</g>
<!-- Node14 -->
<g id="node14" class="node">
<title>Node14</title>
<g id="a_node14"><a xlink:href="classGigEthGtyUltraScaleWrapper.html" target="_top" xlink:title=" ">
<polygon fill="white" stroke="black" points="411,-380.5 411,-399.5 569,-399.5 569,-380.5 411,-380.5"/>
<text text-anchor="middle" x="490" y="-387.5" font-family="Helvetica,sans-Serif" font-size="10.00">GigEthGtyUltraScaleWrapper</text>
</a>
</g>
</g>
<!-- Node13&#45;&gt;Node14 -->
<g id="edge13" class="edge">
<title>Node13&#45;&gt;Node14</title>
<path fill="none" stroke="midnightblue" d="M368.77,-390C382.4,-390 396.85,-390 410.82,-390"/>
<polygon fill="midnightblue" stroke="midnightblue" points="368.52,-386.5 358.52,-390 368.52,-393.5 368.52,-386.5"/>
</g>
<!-- Node16 -->
<g id="node16" class="node">
<title>Node16</title>
<g id="a_node16"><a xlink:href="classGigEthLvdsUltraScaleWrapper.html" target="_top" xlink:title=" ">
<polygon fill="white" stroke="black" points="408.5,-342.5 408.5,-361.5 571.5,-361.5 571.5,-342.5 408.5,-342.5"/>
<text text-anchor="middle" x="490" y="-349.5" font-family="Helvetica,sans-Serif" font-size="10.00">GigEthLvdsUltraScaleWrapper</text>
</a>
</g>
</g>
<!-- Node15&#45;&gt;Node16 -->
<g id="edge15" class="edge">
<title>Node15&#45;&gt;Node16</title>
<path fill="none" stroke="midnightblue" d="M371.9,-352C383.8,-352 396.24,-352 408.38,-352"/>
<polygon fill="midnightblue" stroke="midnightblue" points="371.6,-348.5 361.6,-352 371.6,-355.5 371.6,-348.5"/>
</g>
<!-- Node17 -->
<g id="node17" class="node">
<title>Node17</title>
<g id="a_node17"><a xlink:href="classSgmii88E1111LvdsUltraScale.html" target="_top" xlink:title=" ">
<polygon fill="white" stroke="black" points="614,-361.5 614,-380.5 773,-380.5 773,-361.5 614,-361.5"/>
<text text-anchor="middle" x="693.5" y="-368.5" font-family="Helvetica,sans-Serif" font-size="10.00">Sgmii88E1111LvdsUltraScale</text>
</a>
</g>
</g>
<!-- Node16&#45;&gt;Node17 -->
<g id="edge16" class="edge">
<title>Node16&#45;&gt;Node17</title>
<path fill="none" stroke="midnightblue" d="M581.7,-360.55C592.4,-361.56 603.25,-362.58 613.76,-363.58"/>
<polygon fill="midnightblue" stroke="midnightblue" points="581.79,-357.05 571.51,-359.59 581.13,-364.01 581.79,-357.05"/>
</g>
<!-- Node18 -->
<g id="node18" class="node">
<title>Node18</title>
<g id="a_node18"><a xlink:href="classSgmiiDp83867LvdsUltraScale.html" target="_top" xlink:title=" ">
<polygon fill="white" stroke="black" points="613,-323.5 613,-342.5 774,-342.5 774,-323.5 613,-323.5"/>
<text text-anchor="middle" x="693.5" y="-330.5" font-family="Helvetica,sans-Serif" font-size="10.00">SgmiiDp83867LvdsUltraScale</text>
</a>
</g>
</g>
<!-- Node16&#45;&gt;Node18 -->
<g id="edge17" class="edge">
<title>Node16&#45;&gt;Node18</title>
<path fill="none" stroke="midnightblue" d="M581.78,-343.44C592.12,-342.47 602.6,-341.48 612.78,-340.52"/>
<polygon fill="midnightblue" stroke="midnightblue" points="581.13,-339.99 571.51,-344.41 581.79,-346.95 581.13,-339.99"/>
</g>
<!-- Node20 -->
<g id="node20" class="node">
<title>Node20</title>
<g id="a_node20"><a xlink:href="classTenGigEthGth7Wrapper.html" target="_top" xlink:title=" ">
<polygon fill="white" stroke="black" points="425,-304.5 425,-323.5 555,-323.5 555,-304.5 425,-304.5"/>
<text text-anchor="middle" x="490" y="-311.5" font-family="Helvetica,sans-Serif" font-size="10.00">TenGigEthGth7Wrapper</text>
</a>
</g>
</g>
<!-- Node19&#45;&gt;Node20 -->
<g id="edge19" class="edge">
<title>Node19&#45;&gt;Node20</title>
<path fill="none" stroke="midnightblue" d="M355.74,-314C377.29,-314 402.26,-314 424.71,-314"/>
<polygon fill="midnightblue" stroke="midnightblue" points="355.46,-310.5 345.46,-314 355.46,-317.5 355.46,-310.5"/>
</g>
<!-- Node22 -->
<g id="node22" class="node">
<title>Node22</title>
<g id="a_node22"><a xlink:href="classTenGigEthGthUltraScaleWrapper.html" target="_top" xlink:title=" ">
<polygon fill="white" stroke="black" points="403,-266.5 403,-285.5 577,-285.5 577,-266.5 403,-266.5"/>
<text text-anchor="middle" x="490" y="-273.5" font-family="Helvetica,sans-Serif" font-size="10.00">TenGigEthGthUltraScaleWrapper</text>
</a>
</g>
</g>
<!-- Node21&#45;&gt;Node22 -->
<g id="edge21" class="edge">
<title>Node21&#45;&gt;Node22</title>
<path fill="none" stroke="midnightblue" d="M377.2,-276C385.59,-276 394.19,-276 402.7,-276"/>
<polygon fill="midnightblue" stroke="midnightblue" points="377.08,-272.5 367.08,-276 377.08,-279.5 377.08,-272.5"/>
</g>
<!-- Node24 -->
<g id="node24" class="node">
<title>Node24</title>
<g id="a_node24"><a xlink:href="classTenGigEthGtx7Wrapper.html" target="_top" xlink:title=" ">
<polygon fill="white" stroke="black" points="425,-228.5 425,-247.5 555,-247.5 555,-228.5 425,-228.5"/>
<text text-anchor="middle" x="490" y="-235.5" font-family="Helvetica,sans-Serif" font-size="10.00">TenGigEthGtx7Wrapper</text>
</a>
</g>
</g>
<!-- Node23&#45;&gt;Node24 -->
<g id="edge23" class="edge">
<title>Node23&#45;&gt;Node24</title>
<path fill="none" stroke="midnightblue" d="M355.74,-238C377.29,-238 402.26,-238 424.71,-238"/>
<polygon fill="midnightblue" stroke="midnightblue" points="355.46,-234.5 345.46,-238 355.46,-241.5 355.46,-234.5"/>
</g>
<!-- Node26 -->
<g id="node26" class="node">
<title>Node26</title>
<g id="a_node26"><a xlink:href="classTenGigEthGtyUltraScaleWrapper.html" target="_top" xlink:title=" ">
<polygon fill="white" stroke="black" points="403,-190.5 403,-209.5 577,-209.5 577,-190.5 403,-190.5"/>
<text text-anchor="middle" x="490" y="-197.5" font-family="Helvetica,sans-Serif" font-size="10.00">TenGigEthGtyUltraScaleWrapper</text>
</a>
</g>
</g>
<!-- Node25&#45;&gt;Node26 -->
<g id="edge25" class="edge">
<title>Node25&#45;&gt;Node26</title>
<path fill="none" stroke="midnightblue" d="M377.2,-200C385.59,-200 394.19,-200 402.7,-200"/>
<polygon fill="midnightblue" stroke="midnightblue" points="377.08,-196.5 367.08,-200 377.08,-203.5 377.08,-196.5"/>
</g>
<!-- Node29 -->
<g id="node29" class="node">
<title>Node29</title>
<g id="a_node29"><a xlink:href="classXauiGth7Wrapper.html" target="_top" xlink:title=" ">
<polygon fill="white" stroke="black" points="438.5,-114.5 438.5,-133.5 541.5,-133.5 541.5,-114.5 438.5,-114.5"/>
<text text-anchor="middle" x="490" y="-121.5" font-family="Helvetica,sans-Serif" font-size="10.00">XauiGth7Wrapper</text>
</a>
</g>
</g>
<!-- Node28&#45;&gt;Node29 -->
<g id="edge28" class="edge">
<title>Node28&#45;&gt;Node29</title>
<path fill="none" stroke="midnightblue" d="M341.95,-124C370.23,-124 408.19,-124 438.46,-124"/>
<polygon fill="midnightblue" stroke="midnightblue" points="341.63,-120.5 331.63,-124 341.63,-127.5 341.63,-120.5"/>
</g>
<!-- Node31 -->
<g id="node31" class="node">
<title>Node31</title>
<g id="a_node31"><a xlink:href="classXauiGthUltraScaleWrapper.html" target="_top" xlink:title=" ">
<polygon fill="white" stroke="black" points="416.5,-76.5 416.5,-95.5 563.5,-95.5 563.5,-76.5 416.5,-76.5"/>
<text text-anchor="middle" x="490" y="-83.5" font-family="Helvetica,sans-Serif" font-size="10.00">XauiGthUltraScaleWrapper</text>
</a>
</g>
</g>
<!-- Node30&#45;&gt;Node31 -->
<g id="edge30" class="edge">
<title>Node30&#45;&gt;Node31</title>
<path fill="none" stroke="midnightblue" d="M363.97,-86C380.77,-86 399.08,-86 416.38,-86"/>
<polygon fill="midnightblue" stroke="midnightblue" points="363.73,-82.5 353.73,-86 363.73,-89.5 363.73,-82.5"/>
</g>
<!-- Node33 -->
<g id="node33" class="node">
<title>Node33</title>
<g id="a_node33"><a xlink:href="classXauiGtx7Wrapper.html" target="_top" xlink:title=" ">
<polygon fill="white" stroke="black" points="438.5,-38.5 438.5,-57.5 541.5,-57.5 541.5,-38.5 438.5,-38.5"/>
<text text-anchor="middle" x="490" y="-45.5" font-family="Helvetica,sans-Serif" font-size="10.00">XauiGtx7Wrapper</text>
</a>
</g>
</g>
<!-- Node32&#45;&gt;Node33 -->
<g id="edge32" class="edge">
<title>Node32&#45;&gt;Node33</title>
<path fill="none" stroke="midnightblue" d="M341.95,-48C370.23,-48 408.19,-48 438.46,-48"/>
<polygon fill="midnightblue" stroke="midnightblue" points="341.63,-44.5 331.63,-48 341.63,-51.5 341.63,-44.5"/>
</g>
<!-- Node35 -->
<g id="node35" class="node">
<title>Node35</title>
<g id="a_node35"><a xlink:href="classXauiGtyUltraScaleWrapper.html" target="_top" xlink:title=" ">
<polygon fill="white" stroke="black" points="416.5,-0.5 416.5,-19.5 563.5,-19.5 563.5,-0.5 416.5,-0.5"/>
<text text-anchor="middle" x="490" y="-7.5" font-family="Helvetica,sans-Serif" font-size="10.00">XauiGtyUltraScaleWrapper</text>
</a>
</g>
</g>
<!-- Node34&#45;&gt;Node35 -->
<g id="edge34" class="edge">
<title>Node34&#45;&gt;Node35</title>
<path fill="none" stroke="midnightblue" d="M363.97,-10C380.77,-10 399.08,-10 416.38,-10"/>
<polygon fill="midnightblue" stroke="midnightblue" points="363.73,-6.5 353.73,-10 363.73,-13.5 363.73,-6.5"/>
</g>
</g>
</svg>
        <g id="navigator" transform="translate(0 0)" fill="#404254">
                <rect fill="#f2f5e9" fill-opacity="0.5" stroke="#606060" stroke-width=".5" x="0" y="0" width="60" height="60"/>
                <use id="zoomplus" xlink:href="#zoomPlus" x="17" y="9" onmousedown="handleZoom(evt,'in')"/>
                <use id="zoomminus" xlink:href="#zoomMin" x="42" y="9" onmousedown="handleZoom(evt,'out')"/>
                <use id="reset" xlink:href="#resetDef" x="30" y="36" onmousedown="handleReset()"/>
                <g id="arrowUp" xlink:href="#dirArrow" transform="translate(30 24)" onmousedown="handlePan(0,-1)">
                  <use xlink:href="#rim" fill="#404040">
                        <set attributeName="fill" to="#808080" begin="arrowUp.mouseover" end="arrowUp.mouseout"/>
                  </use>
                  <path fill="none" stroke="white" stroke-width="1.5" d="M0,-3.0v7 M-2.5,-0.5L0,-3.0L2.5,-0.5"/>
                </g>
                <g id="arrowRight" xlink:href="#dirArrow" transform="rotate(90) translate(36 -43)" onmousedown="handlePan(1,0)">
                  <use xlink:href="#rim" fill="#404040">
                        <set attributeName="fill" to="#808080" begin="arrowRight.mouseover" end="arrowRight.mouseout"/>
                  </use>
                  <path fill="none" stroke="white" stroke-width="1.5" d="M0,-3.0v7 M-2.5,-0.5L0,-3.0L2.5,-0.5"/>
                </g>
                <g id="arrowDown" xlink:href="#dirArrow" transform="rotate(180) translate(-30 -48)" onmousedown="handlePan(0,1)">
                  <use xlink:href="#rim" fill="#404040">
                        <set attributeName="fill" to="#808080" begin="arrowDown.mouseover" end="arrowDown.mouseout"/>
                  </use>
                  <path fill="none" stroke="white" stroke-width="1.5" d="M0,-3.0v7 M-2.5,-0.5L0,-3.0L2.5,-0.5"/>
                </g>
                <g id="arrowLeft" xlink:href="#dirArrow" transform="rotate(270) translate(-36 17)" onmousedown="handlePan(-1,0)">
                  <use xlink:href="#rim" fill="#404040">
                        <set attributeName="fill" to="#808080" begin="arrowLeft.mouseover" end="arrowLeft.mouseout"/>
                  </use>
                  <path fill="none" stroke="white" stroke-width="1.5" d="M0,-3.0v7 M-2.5,-0.5L0,-3.0L2.5,-0.5"/>
                </g>
        </g>
        <svg viewBox="0 0 15 15" width="100%" height="30px" preserveAspectRatio="xMaxYMin meet">
         <g id="arrow_out" transform="scale(0.3 0.3)">
          <a xlink:href="classEthMacFlowCtrl__inherit__graph_org.svg" target="_base">
           <rect id="button" ry="5" rx="5" y="6" x="6" height="38" width="38"
                fill="#f2f5e9" fill-opacity="0.5" stroke="#606060" stroke-width="1.0"/>
           <path id="arrow"
             d="M 11.500037,31.436501 C 11.940474,20.09759 22.043105,11.32322 32.158766,21.979434 L 37.068811,17.246167 C 37.068811,17.246167 37.088388,32 37.088388,32 L 22.160133,31.978069 C 22.160133,31.978069 26.997745,27.140456 26.997745,27.140456 C 18.528582,18.264221 13.291696,25.230495 11.500037,31.436501 z"
             style="fill:#404040;"/>
          </a>
         </g>
        </svg>
</svg>
