<?xml version="1.0" encoding="UTF-8" standalone="no"?>
<!DOCTYPE svg PUBLIC "-//W3C//DTD SVG 1.1//EN"
 "http://www.w3.org/Graphics/SVG/1.1/DTD/svg11.dtd">
<!-- Generated by graphviz version 2.43.0 (0)
 -->
<!-- Title: UdpEngineTb Pages: 1 -->
<svg width="1272pt" height="1037pt"
 viewBox="0.00 0.00 1272.00 1036.61" xmlns="http://www.w3.org/2000/svg" xmlns:xlink="http://www.w3.org/1999/xlink">
<g id="graph0" class="graph" transform="scale(1 1) rotate(0) translate(4 1032.61)">
<title>UdpEngineTb</title>
<polygon fill="white" stroke="transparent" points="-4,4 -4,-1032.61 1268,-1032.61 1268,4 -4,4"/>
<!-- Node1 -->
<g id="node1" class="node">
<title>Node1</title>
<g id="a_node1"><a xlink:title=" ">
<polygon fill="#bfbfbf" stroke="black" points="1183,-247.5 1183,-266.5 1264,-266.5 1264,-247.5 1183,-247.5"/>
<text text-anchor="middle" x="1223.5" y="-254.5" font-family="Helvetica,sans-Serif" font-size="10.00">UdpEngineTb</text>
</a>
</g>
</g>
<!-- Node2 -->
<g id="node2" class="node">
<title>Node2</title>
<g id="a_node2"><a xlink:href="classClkRst.html" target="_top" xlink:title=" ">
<polygon fill="white" stroke="black" points="1068,-532.5 1068,-551.5 1116,-551.5 1116,-532.5 1068,-532.5"/>
<text text-anchor="middle" x="1092" y="-539.5" font-family="Helvetica,sans-Serif" font-size="10.00">ClkRst</text>
</a>
</g>
</g>
<!-- Node2&#45;&gt;Node1 -->
<g id="edge1" class="edge">
<title>Node2&#45;&gt;Node1</title>
<path fill="none" stroke="midnightblue" d="M1125.92,-535.93C1133.69,-533.12 1141.35,-529.01 1147,-523 1219.34,-446.05 1223.1,-304.91 1222.73,-266.74"/>
<polygon fill="midnightblue" stroke="midnightblue" points="1124.74,-532.63 1116.16,-538.84 1126.74,-539.34 1124.74,-532.63"/>
</g>
<!-- Node3 -->
<g id="node3" class="node">
<title>Node3</title>
<g id="a_node3"><a xlink:href="classSsiPrbsTx.html" target="_top" xlink:title=" ">
<polygon fill="white" stroke="black" points="1060,-133.5 1060,-152.5 1124,-152.5 1124,-133.5 1060,-133.5"/>
<text text-anchor="middle" x="1092" y="-140.5" font-family="Helvetica,sans-Serif" font-size="10.00">SsiPrbsTx</text>
</a>
</g>
</g>
<!-- Node3&#45;&gt;Node1 -->
<g id="edge2" class="edge">
<title>Node3&#45;&gt;Node1</title>
<path fill="none" stroke="midnightblue" d="M1111.76,-159.52C1139.18,-183.66 1189.34,-227.81 1211.49,-247.31"/>
<polygon fill="midnightblue" stroke="midnightblue" points="1113.86,-156.7 1104.04,-152.72 1109.23,-161.95 1113.86,-156.7"/>
</g>
<!-- Node4 -->
<g id="node4" class="node">
<title>Node4</title>
<g id="a_node4"><a xlink:href="classAxiStreamFifoV2.html" target="_top" xlink:title=" ">
<polygon fill="white" stroke="black" points="630,-399.5 630,-418.5 728,-418.5 728,-399.5 630,-399.5"/>
<text text-anchor="middle" x="679" y="-406.5" font-family="Helvetica,sans-Serif" font-size="10.00">AxiStreamFifoV2</text>
</a>
</g>
</g>
<!-- Node4&#45;&gt;Node3 -->
<g id="edge3" class="edge">
<title>Node4&#45;&gt;Node3</title>
<path fill="none" stroke="midnightblue" d="M706.24,-393.44C715.23,-386.75 724.42,-378.13 730,-368 761.44,-310.93 717.18,-120.15 766,-77 781.56,-63.25 996.44,-84.5 1001,-86 1032.46,-96.32 1063.92,-120.08 1080.01,-133.43"/>
<polygon fill="midnightblue" stroke="midnightblue" points="704.06,-390.68 697.8,-399.23 708.03,-396.45 704.06,-390.68"/>
</g>
<!-- Node33 -->
<g id="node25" class="node">
<title>Node33</title>
<g id="a_node25"><a xlink:href="classUdpEngineDhcp.html" target="_top" xlink:title=" ">
<polygon fill="white" stroke="black" points="772,-722.5 772,-741.5 866,-741.5 866,-722.5 772,-722.5"/>
<text text-anchor="middle" x="819" y="-729.5" font-family="Helvetica,sans-Serif" font-size="10.00">UdpEngineDhcp</text>
</a>
</g>
</g>
<!-- Node4&#45;&gt;Node33 -->
<g id="edge35" class="edge">
<title>Node4&#45;&gt;Node33</title>
<path fill="none" stroke="midnightblue" d="M679.76,-428.78C680.18,-481.97 688.66,-629.66 766,-713 769.6,-716.87 774.05,-719.96 778.82,-722.42"/>
<polygon fill="midnightblue" stroke="midnightblue" points="683.26,-428.66 679.77,-418.66 676.26,-428.66 683.26,-428.66"/>
</g>
<!-- Node39 -->
<g id="node30" class="node">
<title>Node39</title>
<g id="a_node30"><a xlink:href="classEthMacTxFifo.html" target="_top" xlink:title=" ">
<polygon fill="white" stroke="black" points="913,-95.5 913,-114.5 996,-114.5 996,-95.5 913,-95.5"/>
<text text-anchor="middle" x="954.5" y="-102.5" font-family="Helvetica,sans-Serif" font-size="10.00">EthMacTxFifo</text>
</a>
</g>
</g>
<!-- Node4&#45;&gt;Node39 -->
<g id="edge44" class="edge">
<title>Node4&#45;&gt;Node39</title>
<path fill="none" stroke="midnightblue" d="M706.17,-393.4C715.15,-386.71 724.35,-378.1 730,-368 758.8,-316.52 721.55,-143.78 766,-105 810.89,-65.84 887.41,-82.67 927.41,-95.45"/>
<polygon fill="midnightblue" stroke="midnightblue" points="703.99,-390.64 697.75,-399.2 707.97,-396.41 703.99,-390.64"/>
</g>
<!-- Node42 -->
<g id="node33" class="node">
<title>Node42</title>
<g id="a_node33"><a xlink:href="classEthMacTxCsum.html" target="_top" xlink:title=" ">
<polygon fill="white" stroke="black" points="773,-494.5 773,-513.5 865,-513.5 865,-494.5 773,-494.5"/>
<text text-anchor="middle" x="819" y="-501.5" font-family="Helvetica,sans-Serif" font-size="10.00">EthMacTxCsum</text>
</a>
</g>
</g>
<!-- Node4&#45;&gt;Node42 -->
<g id="edge49" class="edge">
<title>Node4&#45;&gt;Node42</title>
<path fill="none" stroke="midnightblue" d="M695.7,-426.22C711.91,-443.13 738.63,-468.71 766,-485 772.19,-488.69 779.22,-491.85 786.06,-494.47"/>
<polygon fill="midnightblue" stroke="midnightblue" points="698.03,-423.58 688.63,-418.69 692.93,-428.37 698.03,-423.58"/>
</g>
<!-- Node43 -->
<g id="node34" class="node">
<title>Node43</title>
<g id="a_node34"><a xlink:href="classEthMacTxRoCEv2.html" target="_top" xlink:title=" ">
<polygon fill="white" stroke="red" points="768,-532.5 768,-551.5 870,-551.5 870,-532.5 768,-532.5"/>
<text text-anchor="middle" x="819" y="-539.5" font-family="Helvetica,sans-Serif" font-size="10.00">EthMacTxRoCEv2</text>
</a>
</g>
</g>
<!-- Node4&#45;&gt;Node43 -->
<g id="edge52" class="edge">
<title>Node4&#45;&gt;Node43</title>
<path fill="none" stroke="midnightblue" d="M689.54,-427.59C703.26,-452.61 730.82,-496.95 766,-523 771.18,-526.83 777.2,-529.96 783.28,-532.49"/>
<polygon fill="midnightblue" stroke="midnightblue" points="692.62,-425.92 684.82,-418.74 686.44,-429.21 692.62,-425.92"/>
</g>
<!-- Node65 -->
<g id="node42" class="node">
<title>Node65</title>
<g id="a_node42"><a xlink:href="classEthMacRxRoCEv2.html" target="_top" xlink:title=" ">
<polygon fill="white" stroke="red" points="767.5,-342.5 767.5,-361.5 870.5,-361.5 870.5,-342.5 767.5,-342.5"/>
<text text-anchor="middle" x="819" y="-349.5" font-family="Helvetica,sans-Serif" font-size="10.00">EthMacRxRoCEv2</text>
</a>
</g>
</g>
<!-- Node4&#45;&gt;Node65 -->
<g id="edge63" class="edge">
<title>Node4&#45;&gt;Node65</title>
<path fill="none" stroke="midnightblue" d="M709.82,-395.25C726.28,-387.8 747.14,-378.6 766,-371 774.02,-367.77 782.83,-364.46 790.88,-361.53"/>
<polygon fill="midnightblue" stroke="midnightblue" points="708.34,-392.07 700.69,-399.4 711.24,-398.44 708.34,-392.07"/>
</g>
<!-- Node73 -->
<g id="node46" class="node">
<title>Node73</title>
<g id="a_node46"><a xlink:href="classSsiFifo.html" target="_top" xlink:title=" ">
<polygon fill="white" stroke="red" points="794.5,-114.5 794.5,-133.5 843.5,-133.5 843.5,-114.5 794.5,-114.5"/>
<text text-anchor="middle" x="819" y="-121.5" font-family="Helvetica,sans-Serif" font-size="10.00">SsiFifo</text>
</a>
</g>
</g>
<!-- Node4&#45;&gt;Node73 -->
<g id="edge69" class="edge">
<title>Node4&#45;&gt;Node73</title>
<path fill="none" stroke="midnightblue" d="M705.65,-393.62C714.74,-386.89 724.15,-378.18 730,-368 780.44,-280.18 701.57,-221.13 766,-143 773.03,-134.47 784.24,-129.77 794.45,-127.18"/>
<polygon fill="midnightblue" stroke="midnightblue" points="703.41,-390.91 697.16,-399.46 707.38,-396.68 703.41,-390.91"/>
</g>
<!-- Node76 -->
<g id="node47" class="node">
<title>Node76</title>
<g id="a_node47"><a xlink:href="classSsiPrbsRx.html" target="_top" xlink:title=" ">
<polygon fill="white" stroke="black" points="786.5,-0.5 786.5,-19.5 851.5,-19.5 851.5,-0.5 786.5,-0.5"/>
<text text-anchor="middle" x="819" y="-7.5" font-family="Helvetica,sans-Serif" font-size="10.00">SsiPrbsRx</text>
</a>
</g>
</g>
<!-- Node4&#45;&gt;Node76 -->
<g id="edge71" class="edge">
<title>Node4&#45;&gt;Node76</title>
<path fill="none" stroke="midnightblue" d="M706.32,-393.48C715.32,-386.81 724.5,-378.18 730,-368 801.01,-236.66 678.9,-155.27 766,-34 770.99,-27.05 778.49,-22.07 786.26,-18.51"/>
<polygon fill="midnightblue" stroke="midnightblue" points="704.14,-390.73 697.87,-399.27 708.1,-396.51 704.14,-390.73"/>
</g>
<!-- Node5 -->
<g id="node5" class="node">
<title>Node5</title>
<g id="a_node5"><a xlink:href="classAxiStreamGearbox.html" target="_top" xlink:title=" ">
<polygon fill="white" stroke="black" points="483,-461.5 483,-480.5 592,-480.5 592,-461.5 483,-461.5"/>
<text text-anchor="middle" x="537.5" y="-468.5" font-family="Helvetica,sans-Serif" font-size="10.00">AxiStreamGearbox</text>
</a>
</g>
</g>
<!-- Node5&#45;&gt;Node4 -->
<g id="edge4" class="edge">
<title>Node5&#45;&gt;Node4</title>
<path fill="none" stroke="midnightblue" d="M569.16,-457.37C595.52,-445.66 632.87,-429.06 656.25,-418.66"/>
<polygon fill="midnightblue" stroke="midnightblue" points="567.71,-454.19 559.99,-461.45 570.55,-460.59 567.71,-454.19"/>
</g>
<!-- Node6 -->
<g id="node6" class="node">
<title>Node6</title>
<g id="a_node6"><a xlink:href="classAxiStreamResize.html" target="_top" xlink:title=" ">
<polygon fill="white" stroke="black" points="347,-499.5 347,-518.5 447,-518.5 447,-499.5 347,-499.5"/>
<text text-anchor="middle" x="397" y="-506.5" font-family="Helvetica,sans-Serif" font-size="10.00">AxiStreamResize</text>
</a>
</g>
</g>
<!-- Node6&#45;&gt;Node5 -->
<g id="edge5" class="edge">
<title>Node6&#45;&gt;Node5</title>
<path fill="none" stroke="midnightblue" d="M442.63,-496.75C461.72,-491.52 483.68,-485.49 501.56,-480.59"/>
<polygon fill="midnightblue" stroke="midnightblue" points="441.67,-493.39 432.95,-499.41 443.52,-500.14 441.67,-493.39"/>
</g>
<!-- Node7 -->
<g id="node7" class="node">
<title>Node7</title>
<g id="a_node7"><a xlink:href="classAxiStreamPipeline.html" target="_top" xlink:title=" ">
<polygon fill="white" stroke="black" points="204,-676.5 204,-695.5 311,-695.5 311,-676.5 204,-676.5"/>
<text text-anchor="middle" x="257.5" y="-683.5" font-family="Helvetica,sans-Serif" font-size="10.00">AxiStreamPipeline</text>
</a>
</g>
</g>
<!-- Node7&#45;&gt;Node4 -->
<g id="edge14" class="edge">
<title>Node7&#45;&gt;Node4</title>
<path fill="none" stroke="midnightblue" d="M279.38,-670.42C296.79,-657.97 322.59,-640.72 347,-629 450.52,-579.3 501.87,-618.15 592,-547 637.65,-510.97 665.52,-443.57 674.66,-418.61"/>
<polygon fill="midnightblue" stroke="midnightblue" points="277.13,-667.73 271.1,-676.44 281.25,-673.39 277.13,-667.73"/>
</g>
<!-- Node7&#45;&gt;Node5 -->
<g id="edge7" class="edge">
<title>Node7&#45;&gt;Node5</title>
<path fill="none" stroke="midnightblue" d="M260.96,-666.11C267.16,-625.41 287.42,-532.83 347,-490 386.06,-461.92 441.94,-459.62 482.89,-462.87"/>
<polygon fill="midnightblue" stroke="midnightblue" points="257.48,-665.75 259.57,-676.13 264.41,-666.71 257.48,-665.75"/>
</g>
<!-- Node7&#45;&gt;Node6 -->
<g id="edge6" class="edge">
<title>Node7&#45;&gt;Node6</title>
<path fill="none" stroke="midnightblue" d="M264.51,-666.56C275.63,-633.64 302.42,-566.71 347,-528 351.41,-524.17 356.68,-521.07 362.1,-518.57"/>
<polygon fill="midnightblue" stroke="midnightblue" points="261.1,-665.74 261.34,-676.34 267.75,-667.9 261.1,-665.74"/>
</g>
<!-- Node24 -->
<g id="node16" class="node">
<title>Node24</title>
<g id="a_node16"><a xlink:href="classAxiStreamMux.html" target="_top" xlink:title=" ">
<polygon fill="white" stroke="black" points="634.5,-760.5 634.5,-779.5 723.5,-779.5 723.5,-760.5 634.5,-760.5"/>
<text text-anchor="middle" x="679" y="-767.5" font-family="Helvetica,sans-Serif" font-size="10.00">AxiStreamMux</text>
</a>
</g>
</g>
<!-- Node7&#45;&gt;Node24 -->
<g id="edge19" class="edge">
<title>Node7&#45;&gt;Node24</title>
<path fill="none" stroke="midnightblue" d="M295.24,-698.88C311.03,-704.09 329.78,-709.84 347,-714 448.69,-738.56 570.51,-756.21 634.23,-764.57"/>
<polygon fill="midnightblue" stroke="midnightblue" points="295.93,-695.42 285.34,-695.56 293.71,-702.06 295.93,-695.42"/>
</g>
<!-- Node27 -->
<g id="node19" class="node">
<title>Node27</title>
<g id="a_node19"><a xlink:href="classAxiStreamDeMux.html" target="_top" xlink:title=" ">
<polygon fill="white" stroke="black" points="628,-721.5 628,-740.5 730,-740.5 730,-721.5 628,-721.5"/>
<text text-anchor="middle" x="679" y="-728.5" font-family="Helvetica,sans-Serif" font-size="10.00">AxiStreamDeMux</text>
</a>
</g>
</g>
<!-- Node7&#45;&gt;Node27 -->
<g id="edge24" class="edge">
<title>Node7&#45;&gt;Node27</title>
<path fill="none" stroke="midnightblue" d="M321.33,-692.74C404.94,-701.71 551.12,-717.39 627.8,-725.61"/>
<polygon fill="midnightblue" stroke="midnightblue" points="321.52,-689.24 311.21,-691.65 320.77,-696.2 321.52,-689.24"/>
</g>
<!-- Node32 -->
<g id="node24" class="node">
<title>Node32</title>
<g id="a_node24"><a xlink:href="classUdpEngineRx.html" target="_top" xlink:title=" ">
<polygon fill="white" stroke="black" points="778,-950.5 778,-969.5 860,-969.5 860,-950.5 778,-950.5"/>
<text text-anchor="middle" x="819" y="-957.5" font-family="Helvetica,sans-Serif" font-size="10.00">UdpEngineRx</text>
</a>
</g>
</g>
<!-- Node7&#45;&gt;Node32 -->
<g id="edge32" class="edge">
<title>Node7&#45;&gt;Node32</title>
<path fill="none" stroke="midnightblue" d="M282.97,-701.09C300.57,-711.77 324.99,-726.23 347,-738 529.46,-835.6 575.47,-860.28 766,-941 773.79,-944.3 782.37,-947.58 790.27,-950.45"/>
<polygon fill="midnightblue" stroke="midnightblue" points="284.31,-697.81 273.95,-695.59 280.67,-703.78 284.31,-697.81"/>
</g>
<!-- Node34 -->
<g id="node26" class="node">
<title>Node34</title>
<g id="a_node26"><a xlink:href="classUdpEngineTx.html" target="_top" xlink:title=" ">
<polygon fill="white" stroke="black" points="497,-998.5 497,-1017.5 578,-1017.5 578,-998.5 497,-998.5"/>
<text text-anchor="middle" x="537.5" y="-1005.5" font-family="Helvetica,sans-Serif" font-size="10.00">UdpEngineTx</text>
</a>
</g>
</g>
<!-- Node7&#45;&gt;Node34 -->
<g id="edge37" class="edge">
<title>Node7&#45;&gt;Node34</title>
<path fill="none" stroke="midnightblue" d="M259.98,-705.88C264.49,-752.41 282.03,-869.52 347,-936 387.47,-977.4 454.17,-995.33 496.69,-1002.85"/>
<polygon fill="midnightblue" stroke="midnightblue" points="263.45,-705.3 259.09,-695.64 256.47,-705.9 263.45,-705.3"/>
</g>
<!-- Node7&#45;&gt;Node42 -->
<g id="edge48" class="edge">
<title>Node7&#45;&gt;Node42</title>
<path fill="none" stroke="midnightblue" d="M299.93,-673.49C338.12,-661.94 396.39,-644.33 447,-629 511.45,-609.48 528.06,-606.15 592,-585 630.48,-572.27 740.95,-532.13 791.8,-513.57"/>
<polygon fill="midnightblue" stroke="midnightblue" points="298.75,-670.19 290.19,-676.43 300.77,-676.89 298.75,-670.19"/>
</g>
<!-- Node8 -->
<g id="node8" class="node">
<title>Node8</title>
<g id="a_node8"><a xlink:href="classFifoCascade.html" target="_top" xlink:title=" ">
<polygon fill="white" stroke="black" points="499.5,-518.5 499.5,-537.5 575.5,-537.5 575.5,-518.5 499.5,-518.5"/>
<text text-anchor="middle" x="537.5" y="-525.5" font-family="Helvetica,sans-Serif" font-size="10.00">FifoCascade</text>
</a>
</g>
</g>
<!-- Node8&#45;&gt;Node4 -->
<g id="edge8" class="edge">
<title>Node8&#45;&gt;Node4</title>
<path fill="none" stroke="midnightblue" d="M561.74,-512.54C571.33,-505.89 582.42,-497.85 592,-490 621.19,-466.08 652.85,-434.7 668.35,-418.94"/>
<polygon fill="midnightblue" stroke="midnightblue" points="559.72,-509.67 553.43,-518.21 563.67,-515.45 559.72,-509.67"/>
</g>
<!-- Node9 -->
<g id="node9" class="node">
<title>Node9</title>
<g id="a_node9"><a xlink:href="classFifo.html" target="_top" xlink:title=" ">
<polygon fill="white" stroke="red" points="379.5,-537.5 379.5,-556.5 414.5,-556.5 414.5,-537.5 379.5,-537.5"/>
<text text-anchor="middle" x="397" y="-544.5" font-family="Helvetica,sans-Serif" font-size="10.00">Fifo</text>
</a>
</g>
</g>
<!-- Node9&#45;&gt;Node8 -->
<g id="edge9" class="edge">
<title>Node9&#45;&gt;Node8</title>
<path fill="none" stroke="midnightblue" d="M424.65,-543.34C445.88,-540.43 475.86,-536.32 499.43,-533.09"/>
<polygon fill="midnightblue" stroke="midnightblue" points="424.14,-539.88 414.71,-544.71 425.09,-546.82 424.14,-539.88"/>
</g>
<!-- Node35 -->
<g id="node27" class="node">
<title>Node35</title>
<g id="a_node27"><a xlink:href="classArpIpTable.html" target="_top" xlink:title=" ">
<polygon fill="white" stroke="red" points="645,-836.5 645,-855.5 713,-855.5 713,-836.5 645,-836.5"/>
<text text-anchor="middle" x="679" y="-843.5" font-family="Helvetica,sans-Serif" font-size="10.00">ArpIpTable</text>
</a>
</g>
</g>
<!-- Node9&#45;&gt;Node35 -->
<g id="edge39" class="edge">
<title>Node9&#45;&gt;Node35</title>
<path fill="none" stroke="midnightblue" d="M414.11,-564.2C466.13,-619.75 628.61,-793.26 668.89,-836.28"/>
<polygon fill="midnightblue" stroke="midnightblue" points="416.39,-561.52 407,-556.61 411.28,-566.3 416.39,-561.52"/>
</g>
<!-- Node13 -->
<g id="node10" class="node">
<title>Node13</title>
<g id="a_node10"><a xlink:href="classFifoAsync.html" target="_top" xlink:title=" ">
<polygon fill="white" stroke="red" points="225.5,-344.5 225.5,-363.5 289.5,-363.5 289.5,-344.5 225.5,-344.5"/>
<text text-anchor="middle" x="257.5" y="-351.5" font-family="Helvetica,sans-Serif" font-size="10.00">FifoAsync</text>
</a>
</g>
</g>
<!-- Node13&#45;&gt;Node9 -->
<g id="edge10" class="edge">
<title>Node13&#45;&gt;Node9</title>
<path fill="none" stroke="midnightblue" d="M263.53,-373.9C273.52,-409.57 299.14,-484.72 347,-528 356.07,-536.2 369.07,-541.02 379.4,-543.75"/>
<polygon fill="midnightblue" stroke="midnightblue" points="266.79,-372.55 260.83,-363.79 260.03,-374.36 266.79,-372.55"/>
</g>
<!-- Node77 -->
<g id="node48" class="node">
<title>Node77</title>
<g id="a_node48"><a xlink:href="classSynchronizerFifo.html" target="_top" xlink:title=" ">
<polygon fill="white" stroke="black" points="348,-344.5 348,-363.5 446,-363.5 446,-344.5 348,-344.5"/>
<text text-anchor="middle" x="397" y="-351.5" font-family="Helvetica,sans-Serif" font-size="10.00">SynchronizerFifo</text>
</a>
</g>
</g>
<!-- Node13&#45;&gt;Node77 -->
<g id="edge73" class="edge">
<title>Node13&#45;&gt;Node77</title>
<path fill="none" stroke="midnightblue" d="M299.8,-354C314.95,-354 332.23,-354 347.92,-354"/>
<polygon fill="midnightblue" stroke="midnightblue" points="299.7,-350.5 289.7,-354 299.7,-357.5 299.7,-350.5"/>
</g>
<!-- Node16 -->
<g id="node11" class="node">
<title>Node16</title>
<g id="a_node11"><a xlink:href="classSynchronizerVector.html" target="_top" xlink:title=" ">
<polygon fill="white" stroke="black" points="29,-311.5 29,-330.5 139,-330.5 139,-311.5 29,-311.5"/>
<text text-anchor="middle" x="84" y="-318.5" font-family="Helvetica,sans-Serif" font-size="10.00">SynchronizerVector</text>
</a>
</g>
</g>
<!-- Node16&#45;&gt;Node13 -->
<g id="edge11" class="edge">
<title>Node16&#45;&gt;Node13</title>
<path fill="none" stroke="midnightblue" d="M144.44,-332.44C171.67,-337.68 202.82,-343.67 225.36,-348.01"/>
<polygon fill="midnightblue" stroke="midnightblue" points="145.09,-329 134.6,-330.54 143.76,-335.87 145.09,-329"/>
</g>
<!-- Node78 -->
<g id="node49" class="node">
<title>Node78</title>
<g id="a_node49"><a xlink:href="classSyncStatusVector.html" target="_top" xlink:title=" ">
<polygon fill="white" stroke="black" points="207,-207.5 207,-226.5 308,-226.5 308,-207.5 207,-207.5"/>
<text text-anchor="middle" x="257.5" y="-214.5" font-family="Helvetica,sans-Serif" font-size="10.00">SyncStatusVector</text>
</a>
</g>
</g>
<!-- Node16&#45;&gt;Node78 -->
<g id="edge75" class="edge">
<title>Node16&#45;&gt;Node78</title>
<path fill="none" stroke="midnightblue" d="M109.67,-306.04C145.45,-284.34 210.75,-244.74 240.71,-226.57"/>
<polygon fill="midnightblue" stroke="midnightblue" points="107.56,-303.22 100.83,-311.4 111.19,-309.21 107.56,-303.22"/>
</g>
<!-- Node15 -->
<g id="node12" class="node">
<title>Node15</title>
<g id="a_node12"><a xlink:href="classSynchronizer.html" target="_top" xlink:title=" ">
<polygon fill="white" stroke="black" points="44,-370.5 44,-389.5 124,-389.5 124,-370.5 44,-370.5"/>
<text text-anchor="middle" x="84" y="-377.5" font-family="Helvetica,sans-Serif" font-size="10.00">Synchronizer</text>
</a>
</g>
</g>
<!-- Node15&#45;&gt;Node4 -->
<g id="edge13" class="edge">
<title>Node15&#45;&gt;Node4</title>
<path fill="none" stroke="midnightblue" d="M134.38,-382.41C246.42,-387.89 518.74,-401.21 629.72,-406.64"/>
<polygon fill="midnightblue" stroke="midnightblue" points="134.53,-378.92 124.37,-381.93 134.18,-385.91 134.53,-378.92"/>
</g>
<!-- Node15&#45;&gt;Node13 -->
<g id="edge12" class="edge">
<title>Node15&#45;&gt;Node13</title>
<path fill="none" stroke="midnightblue" d="M134.39,-372.51C163.71,-368.07 199.97,-362.57 225.34,-358.72"/>
<polygon fill="midnightblue" stroke="midnightblue" points="133.71,-369.08 124.35,-374.04 134.76,-376 133.71,-369.08"/>
</g>
<!-- Node21 -->
<g id="node13" class="node">
<title>Node21</title>
<g id="a_node13"><a xlink:href="classUdpEngineWrapper.html" target="_top" xlink:title=" ">
<polygon fill="white" stroke="black" points="1037,-494.5 1037,-513.5 1147,-513.5 1147,-494.5 1037,-494.5"/>
<text text-anchor="middle" x="1092" y="-501.5" font-family="Helvetica,sans-Serif" font-size="10.00">UdpEngineWrapper</text>
</a>
</g>
</g>
<!-- Node21&#45;&gt;Node1 -->
<g id="edge15" class="edge">
<title>Node21&#45;&gt;Node1</title>
<path fill="none" stroke="midnightblue" d="M1102.77,-485.37C1128.61,-436.08 1198.14,-303.47 1217.46,-266.62"/>
<polygon fill="midnightblue" stroke="midnightblue" points="1099.62,-483.84 1098.08,-494.32 1105.82,-487.09 1099.62,-483.84"/>
</g>
<!-- Node22 -->
<g id="node14" class="node">
<title>Node22</title>
<g id="a_node14"><a xlink:href="classIpV4Engine.html" target="_top" xlink:title=" ">
<polygon fill="white" stroke="black" points="919,-665.5 919,-684.5 990,-684.5 990,-665.5 919,-665.5"/>
<text text-anchor="middle" x="954.5" y="-672.5" font-family="Helvetica,sans-Serif" font-size="10.00">IpV4Engine</text>
</a>
</g>
</g>
<!-- Node22&#45;&gt;Node21 -->
<g id="edge16" class="edge">
<title>Node22&#45;&gt;Node21</title>
<path fill="none" stroke="midnightblue" d="M960.95,-655.28C970.83,-623.1 994.69,-559.25 1037,-523 1041.53,-519.12 1046.9,-516.02 1052.47,-513.53"/>
<polygon fill="midnightblue" stroke="midnightblue" points="957.49,-654.67 958.03,-665.25 964.2,-656.63 957.49,-654.67"/>
</g>
<!-- Node23 -->
<g id="node15" class="node">
<title>Node23</title>
<g id="a_node15"><a xlink:href="classIpV4EngineDeMux.html" target="_top" xlink:title=" ">
<polygon fill="white" stroke="black" points="766,-570.5 766,-589.5 872,-589.5 872,-570.5 766,-570.5"/>
<text text-anchor="middle" x="819" y="-577.5" font-family="Helvetica,sans-Serif" font-size="10.00">IpV4EngineDeMux</text>
</a>
</g>
</g>
<!-- Node23&#45;&gt;Node22 -->
<g id="edge17" class="edge">
<title>Node23&#45;&gt;Node22</title>
<path fill="none" stroke="midnightblue" d="M861.78,-593.55C865.32,-595.21 868.78,-597.02 872,-599 902.67,-617.82 931.8,-649.41 945.43,-665.28"/>
<polygon fill="midnightblue" stroke="midnightblue" points="862.86,-590.2 852.29,-589.51 860.12,-596.65 862.86,-590.2"/>
</g>
<!-- Node24&#45;&gt;Node22 -->
<g id="edge18" class="edge">
<title>Node24&#45;&gt;Node22</title>
<path fill="none" stroke="midnightblue" d="M697.73,-786.34C714.07,-800.21 739.71,-819.08 766,-827 811.11,-840.59 831.58,-851.19 872,-827 925.96,-794.71 946.23,-713.11 951.78,-684.83"/>
<polygon fill="midnightblue" stroke="midnightblue" points="699.9,-783.59 690.08,-779.63 695.29,-788.85 699.9,-783.59"/>
</g>
<!-- Node26 -->
<g id="node18" class="node">
<title>Node26</title>
<g id="a_node18"><a xlink:href="classIpV4EngineRx.html" target="_top" xlink:title=" ">
<polygon fill="white" stroke="black" points="777,-760.5 777,-779.5 861,-779.5 861,-760.5 777,-760.5"/>
<text text-anchor="middle" x="819" y="-767.5" font-family="Helvetica,sans-Serif" font-size="10.00">IpV4EngineRx</text>
</a>
</g>
</g>
<!-- Node24&#45;&gt;Node26 -->
<g id="edge22" class="edge">
<title>Node24&#45;&gt;Node26</title>
<path fill="none" stroke="midnightblue" d="M733.89,-770C748.22,-770 763.46,-770 776.97,-770"/>
<polygon fill="midnightblue" stroke="midnightblue" points="733.66,-766.5 723.66,-770 733.66,-773.5 733.66,-766.5"/>
</g>
<!-- Node28 -->
<g id="node20" class="node">
<title>Node28</title>
<g id="a_node20"><a xlink:href="classIpV4EngineTx.html" target="_top" xlink:title=" ">
<polygon fill="white" stroke="black" points="777.5,-798.5 777.5,-817.5 860.5,-817.5 860.5,-798.5 777.5,-798.5"/>
<text text-anchor="middle" x="819" y="-805.5" font-family="Helvetica,sans-Serif" font-size="10.00">IpV4EngineTx</text>
</a>
</g>
</g>
<!-- Node24&#45;&gt;Node28 -->
<g id="edge26" class="edge">
<title>Node24&#45;&gt;Node28</title>
<path fill="none" stroke="midnightblue" d="M724.47,-782.25C743.49,-787.48 765.38,-793.51 783.19,-798.41"/>
<polygon fill="midnightblue" stroke="midnightblue" points="725.39,-778.87 714.82,-779.59 723.54,-785.62 725.39,-778.87"/>
</g>
<!-- Node31 -->
<g id="node23" class="node">
<title>Node31</title>
<g id="a_node23"><a xlink:href="classUdpEngine.html" target="_top" xlink:title=" ">
<polygon fill="white" stroke="black" points="920,-912.5 920,-931.5 989,-931.5 989,-912.5 920,-912.5"/>
<text text-anchor="middle" x="954.5" y="-919.5" font-family="Helvetica,sans-Serif" font-size="10.00">UdpEngine</text>
</a>
</g>
</g>
<!-- Node24&#45;&gt;Node31 -->
<g id="edge41" class="edge">
<title>Node24&#45;&gt;Node31</title>
<path fill="none" stroke="midnightblue" d="M698.62,-786.69C709.31,-797.25 722.13,-811.75 730,-827 761.83,-888.7 711.55,-935.94 766,-979 802.95,-1008.22 827.07,-993.15 872,-979 901.64,-969.66 929.89,-945.28 944.05,-931.62"/>
<polygon fill="midnightblue" stroke="midnightblue" points="700.98,-784.1 691.32,-779.75 696.15,-789.17 700.98,-784.1"/>
</g>
<!-- Node24&#45;&gt;Node43 -->
<g id="edge53" class="edge">
<title>Node24&#45;&gt;Node43</title>
<path fill="none" stroke="midnightblue" d="M725.17,-754.83C726.92,-753.36 728.55,-751.76 730,-750 784.38,-684.01 710.63,-626.16 766,-561 769.3,-557.12 773.46,-554.03 777.99,-551.57"/>
<polygon fill="midnightblue" stroke="midnightblue" points="723.17,-751.95 716.77,-760.39 727.04,-757.78 723.17,-751.95"/>
</g>
<!-- Node24&#45;&gt;Node65 -->
<g id="edge64" class="edge">
<title>Node24&#45;&gt;Node65</title>
<path fill="none" stroke="midnightblue" d="M725.92,-754.5C727.41,-753.12 728.78,-751.63 730,-750 831.39,-614.54 662.58,-504.92 766,-371 769,-367.12 772.86,-364.03 777.13,-361.57"/>
<polygon fill="midnightblue" stroke="midnightblue" points="723.74,-751.75 717.63,-760.41 727.81,-757.45 723.74,-751.75"/>
</g>
<!-- Node25 -->
<g id="node17" class="node">
<title>Node25</title>
<g id="a_node17"><a xlink:href="classArpEngine.html" target="_top" xlink:title=" ">
<polygon fill="white" stroke="black" points="786,-684.5 786,-703.5 852,-703.5 852,-684.5 786,-684.5"/>
<text text-anchor="middle" x="819" y="-691.5" font-family="Helvetica,sans-Serif" font-size="10.00">ArpEngine</text>
</a>
</g>
</g>
<!-- Node25&#45;&gt;Node22 -->
<g id="edge20" class="edge">
<title>Node25&#45;&gt;Node22</title>
<path fill="none" stroke="midnightblue" d="M862.35,-687.97C880.5,-685.39 901.44,-682.41 918.68,-679.96"/>
<polygon fill="midnightblue" stroke="midnightblue" points="861.72,-684.53 852.32,-689.4 862.71,-691.46 861.72,-684.53"/>
</g>
<!-- Node26&#45;&gt;Node22 -->
<g id="edge21" class="edge">
<title>Node26&#45;&gt;Node22</title>
<path fill="none" stroke="midnightblue" d="M861.78,-756.45C865.32,-754.79 868.78,-752.98 872,-751 902.67,-732.18 931.8,-700.59 945.43,-684.72"/>
<polygon fill="midnightblue" stroke="midnightblue" points="860.12,-753.35 852.29,-760.49 862.86,-759.8 860.12,-753.35"/>
</g>
<!-- Node27&#45;&gt;Node26 -->
<g id="edge23" class="edge">
<title>Node27&#45;&gt;Node26</title>
<path fill="none" stroke="midnightblue" d="M723.65,-743.34C743.19,-748.86 765.88,-755.27 784.11,-760.42"/>
<polygon fill="midnightblue" stroke="midnightblue" points="724.33,-739.89 713.76,-740.54 722.43,-746.63 724.33,-739.89"/>
</g>
<!-- Node27&#45;&gt;Node28 -->
<g id="edge27" class="edge">
<title>Node27&#45;&gt;Node28</title>
<path fill="none" stroke="midnightblue" d="M719.28,-744.78C723.02,-746.66 726.66,-748.73 730,-751 749.25,-764.07 746.56,-776.22 766,-789 771.7,-792.75 778.24,-795.88 784.72,-798.45"/>
<polygon fill="midnightblue" stroke="midnightblue" points="720.44,-741.46 709.89,-740.51 717.55,-747.84 720.44,-741.46"/>
</g>
<!-- Node27&#45;&gt;Node32 -->
<g id="edge33" class="edge">
<title>Node27&#45;&gt;Node32</title>
<path fill="none" stroke="midnightblue" d="M725.17,-746.17C726.93,-747.64 728.55,-749.24 730,-751 784.63,-817.35 710.38,-875.48 766,-941 769.3,-944.88 773.46,-947.97 777.98,-950.43"/>
<polygon fill="midnightblue" stroke="midnightblue" points="727.05,-743.21 716.78,-740.6 723.18,-749.05 727.05,-743.21"/>
</g>
<!-- Node27&#45;&gt;Node43 -->
<g id="edge51" class="edge">
<title>Node27&#45;&gt;Node43</title>
<path fill="none" stroke="midnightblue" d="M693.7,-713.31C704.53,-698.77 719.52,-677.31 730,-657 750.9,-616.51 733.64,-593.08 766,-561 769.89,-557.14 774.63,-554.06 779.64,-551.6"/>
<polygon fill="midnightblue" stroke="midnightblue" points="690.82,-711.32 687.57,-721.41 696.4,-715.55 690.82,-711.32"/>
</g>
<!-- Node27&#45;&gt;Node65 -->
<g id="edge62" class="edge">
<title>Node27&#45;&gt;Node65</title>
<path fill="none" stroke="midnightblue" d="M682.26,-711.18C690.35,-643.49 719.85,-422.83 766,-371 769.45,-367.12 773.76,-364.04 778.41,-361.58"/>
<polygon fill="midnightblue" stroke="midnightblue" points="678.76,-710.99 681.07,-721.33 685.71,-711.8 678.76,-710.99"/>
</g>
<!-- Node28&#45;&gt;Node22 -->
<g id="edge25" class="edge">
<title>Node28&#45;&gt;Node22</title>
<path fill="none" stroke="midnightblue" d="M864.15,-794.09C866.91,-792.55 869.55,-790.86 872,-789 910.73,-759.54 938.69,-706.53 949.07,-684.75"/>
<polygon fill="midnightblue" stroke="midnightblue" points="862.55,-790.98 855.07,-798.48 865.6,-797.28 862.55,-790.98"/>
</g>
<!-- Node29 -->
<g id="node21" class="node">
<title>Node29</title>
<g id="a_node21"><a xlink:href="classIcmpEngine.html" target="_top" xlink:title=" ">
<polygon fill="white" stroke="black" points="782,-646.5 782,-665.5 856,-665.5 856,-646.5 782,-646.5"/>
<text text-anchor="middle" x="819" y="-653.5" font-family="Helvetica,sans-Serif" font-size="10.00">IcmpEngine</text>
</a>
</g>
</g>
<!-- Node29&#45;&gt;Node22 -->
<g id="edge28" class="edge">
<title>Node29&#45;&gt;Node22</title>
<path fill="none" stroke="midnightblue" d="M866.51,-662.62C883.66,-665.06 902.79,-667.78 918.73,-670.05"/>
<polygon fill="midnightblue" stroke="midnightblue" points="866.52,-659.09 856.13,-661.14 865.53,-666.02 866.52,-659.09"/>
</g>
<!-- Node30 -->
<g id="node22" class="node">
<title>Node30</title>
<g id="a_node22"><a xlink:href="classIgmpV2Engine.html" target="_top" xlink:title=" ">
<polygon fill="white" stroke="black" points="775.5,-608.5 775.5,-627.5 862.5,-627.5 862.5,-608.5 775.5,-608.5"/>
<text text-anchor="middle" x="819" y="-615.5" font-family="Helvetica,sans-Serif" font-size="10.00">IgmpV2Engine</text>
</a>
</g>
</g>
<!-- Node30&#45;&gt;Node22 -->
<g id="edge29" class="edge">
<title>Node30&#45;&gt;Node22</title>
<path fill="none" stroke="midnightblue" d="M857.01,-631.08C862.08,-633 867.19,-635 872,-637 893.63,-645.97 917.89,-657.48 934.28,-665.47"/>
<polygon fill="midnightblue" stroke="midnightblue" points="858.02,-627.72 847.43,-627.52 855.59,-634.28 858.02,-627.72"/>
</g>
<!-- Node31&#45;&gt;Node21 -->
<g id="edge30" class="edge">
<title>Node31&#45;&gt;Node21</title>
<path fill="none" stroke="midnightblue" d="M959.54,-901.91C975.76,-821.19 1035.39,-524.84 1037,-523 1040.4,-519.1 1044.64,-516.01 1049.25,-513.55"/>
<polygon fill="midnightblue" stroke="midnightblue" points="956.01,-901.69 957.47,-912.19 962.87,-903.07 956.01,-901.69"/>
</g>
<!-- Node32&#45;&gt;Node31 -->
<g id="edge31" class="edge">
<title>Node32&#45;&gt;Node31</title>
<path fill="none" stroke="midnightblue" d="M863.53,-947.61C881.81,-942.41 902.75,-936.45 919.82,-931.59"/>
<polygon fill="midnightblue" stroke="midnightblue" points="862.35,-944.31 853.69,-950.41 864.26,-951.04 862.35,-944.31"/>
</g>
<!-- Node33&#45;&gt;Node31 -->
<g id="edge34" class="edge">
<title>Node33&#45;&gt;Node31</title>
<path fill="none" stroke="midnightblue" d="M866.42,-746.64C868.39,-747.97 870.27,-749.42 872,-751 923.33,-797.7 945.41,-883.58 951.59,-912.33"/>
<polygon fill="midnightblue" stroke="midnightblue" points="867.71,-743.35 857.27,-741.53 864.29,-749.47 867.71,-743.35"/>
</g>
<!-- Node34&#45;&gt;Node31 -->
<g id="edge36" class="edge">
<title>Node34&#45;&gt;Node31</title>
<path fill="none" stroke="midnightblue" d="M588.06,-1017.84C655.3,-1028.82 777.83,-1040.31 872,-1001 906.92,-986.43 935.3,-949.28 947.31,-931.61"/>
<polygon fill="midnightblue" stroke="midnightblue" points="588.6,-1014.38 578.15,-1016.16 587.43,-1021.28 588.6,-1014.38"/>
</g>
<!-- Node35&#45;&gt;Node31 -->
<g id="edge38" class="edge">
<title>Node35&#45;&gt;Node31</title>
<path fill="none" stroke="midnightblue" d="M722.95,-857.94C777.34,-873.05 869.93,-898.78 919.61,-912.58"/>
<polygon fill="midnightblue" stroke="midnightblue" points="723.84,-854.55 713.26,-855.24 721.96,-861.29 723.84,-854.55"/>
</g>
<!-- Node37 -->
<g id="node28" class="node">
<title>Node37</title>
<g id="a_node28"><a xlink:href="classUdpEngineArp.html" target="_top" xlink:title=" ">
<polygon fill="white" stroke="black" points="776,-912.5 776,-931.5 862,-931.5 862,-912.5 776,-912.5"/>
<text text-anchor="middle" x="819" y="-919.5" font-family="Helvetica,sans-Serif" font-size="10.00">UdpEngineArp</text>
</a>
</g>
</g>
<!-- Node37&#45;&gt;Node31 -->
<g id="edge40" class="edge">
<title>Node37&#45;&gt;Node31</title>
<path fill="none" stroke="midnightblue" d="M872.53,-922C888.51,-922 905.62,-922 919.98,-922"/>
<polygon fill="midnightblue" stroke="midnightblue" points="872.24,-918.5 862.24,-922 872.24,-925.5 872.24,-918.5"/>
</g>
<!-- Node38 -->
<g id="node29" class="node">
<title>Node38</title>
<g id="a_node29"><a xlink:href="classEthMacTop.html" target="_top" xlink:title=" ">
<polygon fill="white" stroke="black" points="1057.5,-247.5 1057.5,-266.5 1126.5,-266.5 1126.5,-247.5 1057.5,-247.5"/>
<text text-anchor="middle" x="1092" y="-254.5" font-family="Helvetica,sans-Serif" font-size="10.00">EthMacTop</text>
</a>
</g>
</g>
<!-- Node38&#45;&gt;Node1 -->
<g id="edge42" class="edge">
<title>Node38&#45;&gt;Node1</title>
<path fill="none" stroke="midnightblue" d="M1137.08,-257C1151.81,-257 1168.14,-257 1182.54,-257"/>
<polygon fill="midnightblue" stroke="midnightblue" points="1136.69,-253.5 1126.69,-257 1136.69,-260.5 1136.69,-253.5"/>
</g>
<!-- Node39&#45;&gt;Node38 -->
<g id="edge43" class="edge">
<title>Node39&#45;&gt;Node38</title>
<path fill="none" stroke="midnightblue" d="M970.83,-122.2C999.47,-154.32 1060.19,-222.44 1082.53,-247.5"/>
<polygon fill="midnightblue" stroke="midnightblue" points="973.24,-119.64 963.98,-114.51 968.02,-124.3 973.24,-119.64"/>
</g>
<!-- Node40 -->
<g id="node31" class="node">
<title>Node40</title>
<g id="a_node31"><a xlink:href="classEthMacTx.html" target="_top" xlink:title=" ">
<polygon fill="white" stroke="black" points="922,-418.5 922,-437.5 987,-437.5 987,-418.5 922,-418.5"/>
<text text-anchor="middle" x="954.5" y="-425.5" font-family="Helvetica,sans-Serif" font-size="10.00">EthMacTx</text>
</a>
</g>
</g>
<!-- Node40&#45;&gt;Node38 -->
<g id="edge45" class="edge">
<title>Node40&#45;&gt;Node38</title>
<path fill="none" stroke="midnightblue" d="M969.61,-410.19C998.08,-374.27 1061.53,-294.19 1083.41,-266.58"/>
<polygon fill="midnightblue" stroke="midnightblue" points="966.64,-408.3 963.17,-418.32 972.13,-412.65 966.64,-408.3"/>
</g>
<!-- Node41 -->
<g id="node32" class="node">
<title>Node41</title>
<g id="a_node32"><a xlink:href="classEthMacTxBypass.html" target="_top" xlink:title=" ">
<polygon fill="white" stroke="black" points="769,-418.5 769,-437.5 869,-437.5 869,-418.5 769,-418.5"/>
<text text-anchor="middle" x="819" y="-425.5" font-family="Helvetica,sans-Serif" font-size="10.00">EthMacTxBypass</text>
</a>
</g>
</g>
<!-- Node41&#45;&gt;Node40 -->
<g id="edge46" class="edge">
<title>Node41&#45;&gt;Node40</title>
<path fill="none" stroke="midnightblue" d="M879.34,-428C893.95,-428 909.05,-428 921.78,-428"/>
<polygon fill="midnightblue" stroke="midnightblue" points="879.33,-424.5 869.33,-428 879.33,-431.5 879.33,-424.5"/>
</g>
<!-- Node42&#45;&gt;Node40 -->
<g id="edge47" class="edge">
<title>Node42&#45;&gt;Node40</title>
<path fill="none" stroke="midnightblue" d="M862.63,-490.31C865.9,-488.7 869.06,-486.93 872,-485 891.44,-472.22 888.85,-460.21 908,-447 913.21,-443.4 919.22,-440.3 925.11,-437.7"/>
<polygon fill="midnightblue" stroke="midnightblue" points="861.02,-487.2 853.28,-494.45 863.85,-493.6 861.02,-487.2"/>
</g>
<!-- Node43&#45;&gt;Node40 -->
<g id="edge50" class="edge">
<title>Node43&#45;&gt;Node40</title>
<path fill="none" stroke="midnightblue" d="M866.42,-527.36C868.4,-526.03 870.27,-524.58 872,-523 899.62,-497.82 880.96,-472.8 908,-447 911.96,-443.22 916.79,-440.14 921.8,-437.65"/>
<polygon fill="midnightblue" stroke="midnightblue" points="864.3,-524.54 857.28,-532.48 867.71,-530.65 864.3,-524.54"/>
</g>
<!-- Node51 -->
<g id="node35" class="node">
<title>Node51</title>
<g id="a_node35"><a xlink:href="classEthMacTxPause.html" target="_top" xlink:title=" ">
<polygon fill="white" stroke="black" points="772.5,-380.5 772.5,-399.5 865.5,-399.5 865.5,-380.5 772.5,-380.5"/>
<text text-anchor="middle" x="819" y="-387.5" font-family="Helvetica,sans-Serif" font-size="10.00">EthMacTxPause</text>
</a>
</g>
</g>
<!-- Node51&#45;&gt;Node40 -->
<g id="edge54" class="edge">
<title>Node51&#45;&gt;Node40</title>
<path fill="none" stroke="midnightblue" d="M863.32,-402.33C882.31,-407.74 904.2,-413.97 921.66,-418.94"/>
<polygon fill="midnightblue" stroke="midnightblue" points="864.26,-398.96 853.69,-399.59 862.35,-405.69 864.26,-398.96"/>
</g>
<!-- Node52 -->
<g id="node36" class="node">
<title>Node52</title>
<g id="a_node36"><a xlink:href="classEthMacTxExport.html" target="_top" xlink:title=" ">
<polygon fill="white" stroke="red" points="771,-456.5 771,-475.5 867,-475.5 867,-456.5 771,-456.5"/>
<text text-anchor="middle" x="819" y="-463.5" font-family="Helvetica,sans-Serif" font-size="10.00">EthMacTxExport</text>
</a>
</g>
</g>
<!-- Node52&#45;&gt;Node40 -->
<g id="edge55" class="edge">
<title>Node52&#45;&gt;Node40</title>
<path fill="none" stroke="midnightblue" d="M863.32,-453.67C882.31,-448.26 904.2,-442.03 921.66,-437.06"/>
<polygon fill="midnightblue" stroke="midnightblue" points="862.35,-450.31 853.69,-456.41 864.26,-457.04 862.35,-450.31"/>
</g>
<!-- Node57 -->
<g id="node37" class="node">
<title>Node57</title>
<g id="a_node37"><a xlink:href="classEthMacFlowCtrl.html" target="_top" xlink:title=" ">
<polygon fill="white" stroke="black" points="908,-456.5 908,-475.5 1001,-475.5 1001,-456.5 908,-456.5"/>
<text text-anchor="middle" x="954.5" y="-463.5" font-family="Helvetica,sans-Serif" font-size="10.00">EthMacFlowCtrl</text>
</a>
</g>
</g>
<!-- Node57&#45;&gt;Node38 -->
<g id="edge56" class="edge">
<title>Node57&#45;&gt;Node38</title>
<path fill="none" stroke="midnightblue" d="M996.21,-450.96C997.91,-449.74 999.51,-448.42 1001,-447 1057.24,-393.33 1082.2,-297.44 1089,-266.74"/>
<polygon fill="midnightblue" stroke="midnightblue" points="993.99,-448.22 987.2,-456.35 997.58,-454.22 993.99,-448.22"/>
</g>
<!-- Node58 -->
<g id="node38" class="node">
<title>Node58</title>
<g id="a_node38"><a xlink:href="classEthMacRx.html" target="_top" xlink:title=" ">
<polygon fill="white" stroke="black" points="922,-247.5 922,-266.5 987,-266.5 987,-247.5 922,-247.5"/>
<text text-anchor="middle" x="954.5" y="-254.5" font-family="Helvetica,sans-Serif" font-size="10.00">EthMacRx</text>
</a>
</g>
</g>
<!-- Node58&#45;&gt;Node38 -->
<g id="edge57" class="edge">
<title>Node58&#45;&gt;Node38</title>
<path fill="none" stroke="midnightblue" d="M997.52,-257C1016.66,-257 1039.01,-257 1057.06,-257"/>
<polygon fill="midnightblue" stroke="midnightblue" points="997.27,-253.5 987.27,-257 997.27,-260.5 997.27,-253.5"/>
</g>
<!-- Node59 -->
<g id="node39" class="node">
<title>Node59</title>
<g id="a_node39"><a xlink:href="classEthMacRxImport.html" target="_top" xlink:title=" ">
<polygon fill="white" stroke="red" points="770,-152.5 770,-171.5 868,-171.5 868,-152.5 770,-152.5"/>
<text text-anchor="middle" x="819" y="-159.5" font-family="Helvetica,sans-Serif" font-size="10.00">EthMacRxImport</text>
</a>
</g>
</g>
<!-- Node59&#45;&gt;Node58 -->
<g id="edge58" class="edge">
<title>Node59&#45;&gt;Node58</title>
<path fill="none" stroke="midnightblue" d="M861.78,-175.55C865.32,-177.21 868.78,-179.02 872,-181 902.67,-199.82 931.8,-231.41 945.43,-247.28"/>
<polygon fill="midnightblue" stroke="midnightblue" points="862.86,-172.2 852.29,-171.51 860.12,-178.65 862.86,-172.2"/>
</g>
<!-- Node63 -->
<g id="node40" class="node">
<title>Node63</title>
<g id="a_node40"><a xlink:href="classEthMacRxPause.html" target="_top" xlink:title=" ">
<polygon fill="white" stroke="black" points="772,-304.5 772,-323.5 866,-323.5 866,-304.5 772,-304.5"/>
<text text-anchor="middle" x="819" y="-311.5" font-family="Helvetica,sans-Serif" font-size="10.00">EthMacRxPause</text>
</a>
</g>
</g>
<!-- Node63&#45;&gt;Node58 -->
<g id="edge59" class="edge">
<title>Node63&#45;&gt;Node58</title>
<path fill="none" stroke="midnightblue" d="M857.01,-300.92C862.08,-299 867.19,-297 872,-295 893.63,-286.03 917.89,-274.52 934.28,-266.53"/>
<polygon fill="midnightblue" stroke="midnightblue" points="855.59,-297.72 847.43,-304.48 858.02,-304.28 855.59,-297.72"/>
</g>
<!-- Node64 -->
<g id="node41" class="node">
<title>Node64</title>
<g id="a_node41"><a xlink:href="classEthMacRxCsum.html" target="_top" xlink:title=" ">
<polygon fill="white" stroke="black" points="772.5,-266.5 772.5,-285.5 865.5,-285.5 865.5,-266.5 772.5,-266.5"/>
<text text-anchor="middle" x="819" y="-273.5" font-family="Helvetica,sans-Serif" font-size="10.00">EthMacRxCsum</text>
</a>
</g>
</g>
<!-- Node64&#45;&gt;Node58 -->
<g id="edge60" class="edge">
<title>Node64&#45;&gt;Node58</title>
<path fill="none" stroke="midnightblue" d="M875.7,-268.07C891.36,-265.84 907.85,-263.5 921.6,-261.54"/>
<polygon fill="midnightblue" stroke="midnightblue" points="874.98,-264.64 865.57,-269.51 875.96,-271.57 874.98,-264.64"/>
</g>
<!-- Node65&#45;&gt;Node58 -->
<g id="edge61" class="edge">
<title>Node65&#45;&gt;Node58</title>
<path fill="none" stroke="midnightblue" d="M861.78,-338.45C865.32,-336.79 868.78,-334.98 872,-333 902.67,-314.18 931.8,-282.59 945.43,-266.72"/>
<polygon fill="midnightblue" stroke="midnightblue" points="860.12,-335.35 852.29,-342.49 862.86,-341.8 860.12,-335.35"/>
</g>
<!-- Node70 -->
<g id="node43" class="node">
<title>Node70</title>
<g id="a_node43"><a xlink:href="classEthMacRxBypass.html" target="_top" xlink:title=" ">
<polygon fill="white" stroke="black" points="768.5,-228.5 768.5,-247.5 869.5,-247.5 869.5,-228.5 768.5,-228.5"/>
<text text-anchor="middle" x="819" y="-235.5" font-family="Helvetica,sans-Serif" font-size="10.00">EthMacRxBypass</text>
</a>
</g>
</g>
<!-- Node70&#45;&gt;Node58 -->
<g id="edge65" class="edge">
<title>Node70&#45;&gt;Node58</title>
<path fill="none" stroke="midnightblue" d="M879.69,-246.5C894.27,-248.57 909.3,-250.71 921.96,-252.51"/>
<polygon fill="midnightblue" stroke="midnightblue" points="880.1,-243.02 869.71,-245.07 879.12,-249.95 880.1,-243.02"/>
</g>
<!-- Node71 -->
<g id="node44" class="node">
<title>Node71</title>
<g id="a_node44"><a xlink:href="classEthMacRxFilter.html" target="_top" xlink:title=" ">
<polygon fill="white" stroke="black" points="774,-190.5 774,-209.5 864,-209.5 864,-190.5 774,-190.5"/>
<text text-anchor="middle" x="819" y="-197.5" font-family="Helvetica,sans-Serif" font-size="10.00">EthMacRxFilter</text>
</a>
</g>
</g>
<!-- Node71&#45;&gt;Node58 -->
<g id="edge66" class="edge">
<title>Node71&#45;&gt;Node58</title>
<path fill="none" stroke="midnightblue" d="M857.01,-213.08C862.08,-215 867.19,-217 872,-219 893.63,-227.97 917.89,-239.48 934.28,-247.47"/>
<polygon fill="midnightblue" stroke="midnightblue" points="858.02,-209.72 847.43,-209.52 855.59,-216.28 858.02,-209.72"/>
</g>
<!-- Node72 -->
<g id="node45" class="node">
<title>Node72</title>
<g id="a_node45"><a xlink:href="classEthMacRxFifo.html" target="_top" xlink:title=" ">
<polygon fill="white" stroke="black" points="913,-171.5 913,-190.5 996,-190.5 996,-171.5 913,-171.5"/>
<text text-anchor="middle" x="954.5" y="-178.5" font-family="Helvetica,sans-Serif" font-size="10.00">EthMacRxFifo</text>
</a>
</g>
</g>
<!-- Node72&#45;&gt;Node38 -->
<g id="edge67" class="edge">
<title>Node72&#45;&gt;Node38</title>
<path fill="none" stroke="midnightblue" d="M981.63,-195.65C1008.86,-210.93 1050.74,-234.42 1073.98,-247.45"/>
<polygon fill="midnightblue" stroke="midnightblue" points="983.1,-192.46 972.66,-190.63 979.67,-198.57 983.1,-192.46"/>
</g>
<!-- Node73&#45;&gt;Node72 -->
<g id="edge68" class="edge">
<title>Node73&#45;&gt;Node72</title>
<path fill="none" stroke="midnightblue" d="M853.29,-135.68C859.54,-138.01 866,-140.51 872,-143 893.63,-151.97 917.89,-163.48 934.28,-171.47"/>
<polygon fill="midnightblue" stroke="midnightblue" points="854.32,-132.33 843.72,-132.18 851.91,-138.9 854.32,-132.33"/>
</g>
<!-- Node76&#45;&gt;Node1 -->
<g id="edge70" class="edge">
<title>Node76&#45;&gt;Node1</title>
<path fill="none" stroke="midnightblue" d="M861.72,-10.61C899.17,-12.29 955.14,-17.67 1001,-34 1072.81,-59.57 1094.08,-69.13 1147,-124 1184.42,-162.79 1209.97,-223.69 1218.94,-247.25"/>
<polygon fill="midnightblue" stroke="midnightblue" points="861.8,-7.11 851.68,-10.22 861.53,-14.1 861.8,-7.11"/>
</g>
<!-- Node77&#45;&gt;Node76 -->
<g id="edge72" class="edge">
<title>Node77&#45;&gt;Node76</title>
<path fill="none" stroke="midnightblue" d="M420,-338.55C474.35,-300.04 618.67,-195.87 730,-98 760.51,-71.18 793.67,-36.29 809.13,-19.65"/>
<polygon fill="midnightblue" stroke="midnightblue" points="417.92,-335.73 411.78,-344.35 421.96,-341.44 417.92,-335.73"/>
</g>
<!-- Node78&#45;&gt;Node76 -->
<g id="edge74" class="edge">
<title>Node78&#45;&gt;Node76</title>
<path fill="none" stroke="midnightblue" d="M293.79,-203.94C397.77,-165.48 701.34,-53.16 792.09,-19.59"/>
<polygon fill="midnightblue" stroke="midnightblue" points="292.53,-200.68 284.36,-207.43 294.96,-207.24 292.53,-200.68"/>
</g>
<!-- Node79 -->
<g id="node50" class="node">
<title>Node79</title>
<g id="a_node50"><a xlink:href="classSynchronizerOneShotCntVector.html" target="_top" xlink:title=" ">
<polygon fill="white" stroke="red" points="0,-207.5 0,-226.5 168,-226.5 168,-207.5 0,-207.5"/>
<text text-anchor="middle" x="84" y="-214.5" font-family="Helvetica,sans-Serif" font-size="10.00">SynchronizerOneShotCntVector</text>
</a>
</g>
</g>
<!-- Node79&#45;&gt;Node78 -->
<g id="edge76" class="edge">
<title>Node79&#45;&gt;Node78</title>
<path fill="none" stroke="midnightblue" d="M178.4,-217C188.12,-217 197.71,-217 206.67,-217"/>
<polygon fill="midnightblue" stroke="midnightblue" points="178.24,-213.5 168.24,-217 178.24,-220.5 178.24,-213.5"/>
</g>
</g>
</svg>
