<?xml version="1.0" encoding="UTF-8" standalone="no"?>
<!DOCTYPE svg PUBLIC "-//W3C//DTD SVG 1.1//EN"
 "http://www.w3.org/Graphics/SVG/1.1/DTD/svg11.dtd">
<!-- Generated by graphviz version 2.43.0 (0)
 -->
<!-- Title: SsiPrbsTx Pages: 1 -->
<!--zoomable 804 -->

<svg id="main" version="1.1" xmlns="http://www.w3.org/2000/svg" xmlns:xlink="http://www.w3.org/1999/xlink" xml:space="preserve" onload="init(evt)">
<style type="text/css"><![CDATA[
.node, .edge {opacity: 0.7;}
.node.selected, .edge.selected {opacity: 1;}
.edge:hover path { stroke: red; }
.edge:hover polygon { stroke: red; fill: red; }
]]></style>

<defs>
  <circle id="rim" cx="0" cy="0" r="7"/>
  <circle id="rim2" cx="0" cy="0" r="3.5"/>
  <g id="zoomPlus">
    <use xlink:href="#rim" fill="#404040"><set attributeName="fill" to="#808080" begin="zoomplus.mouseover" end="zoomplus.mouseout"/></use>
    <path d="M-4,0h8M0,-4v8" fill="none" stroke="white" stroke-width="1.5" pointer-events="none"/>
  </g>
  <g id="zoomMin">
    <use xlink:href="#rim" fill="#404040"><set attributeName="fill" to="#808080" begin="zoomminus.mouseover" end="zoomminus.mouseout"/></use>
    <path d="M-4,0h8" fill="none" stroke="white" stroke-width="1.5" pointer-events="none"/>
  </g>
  <g id="arrowUp" transform="translate(30 24)">
    <use xlink:href="#rim"/>
    <path pointer-events="none" fill="none" stroke="white" stroke-width="1.5" d="M0,-3.0v7 M-2.5,-0.5L0,-3.0L2.5,-0.5"/>
  </g>
  <g id="arrowRight" transform="rotate(90) translate(36 -43)">
    <use xlink:href="#rim"/>
    <path pointer-events="none" fill="none" stroke="white" stroke-width="1.5" d="M0,-3.0v7 M-2.5,-0.5L0,-3.0L2.5,-0.5"/>
  </g>
  <g id="arrowDown" transform="rotate(180) translate(-30 -48)">
    <use xlink:href="#rim"/>
    <path pointer-events="none" fill="none" stroke="white" stroke-width="1.5" d="M0,-3.0v7 M-2.5,-0.5L0,-3.0L2.5,-0.5"/>
  </g>
  <g id="arrowLeft" transform="rotate(270) translate(-36 17)">
    <use xlink:href="#rim"/>
    <path pointer-events="none" fill="none" stroke="white" stroke-width="1.5" d="M0,-3.0v7 M-2.5,-0.5L0,-3.0L2.5,-0.5"/>
  </g>
  <g id="resetDef">
    <use xlink:href="#rim2" fill="#404040"><set attributeName="fill" to="#808080" begin="reset.mouseover" end="reset.mouseout"/></use>
  </g>
</defs>
<script type="application/ecmascript">
var viewWidth = 1079;
var viewHeight = 804;
var sectionId = 'dynsection-0';
</script>
<script type="application/ecmascript" xlink:href="svg.min.js"/>
<svg id="graph" class="graph">
<g id="viewport">
<title>SsiPrbsTx</title>
<!-- Node1 -->
<g id="Node000001" class="node">
<title>Node1</title>
<g id="a_Node000001"><a xlink:title=" ">
<polygon fill="#999999" stroke="#666666" points="889,-407 825,-407 825,-388 889,-388 889,-407"/>
<text text-anchor="middle" x="857" y="-395" font-family="Helvetica,sans-Serif" font-size="10.00">SsiPrbsTx</text>
</a>
</g>
</g>
<!-- Node19 -->
<g id="Node000019" class="node">
<title>Node19</title>
<g id="a_Node000019"><a xlink:href="classAxiStreamFlushTb.html" target="_top" xlink:title=" ">
<polygon fill="white" stroke="#bfbfbf" points="1051,-796 945,-796 945,-777 1051,-777 1051,-796"/>
<text text-anchor="middle" x="998" y="-784" font-family="Helvetica,sans-Serif" font-size="10.00">AxiStreamFlushTb</text>
</a>
</g>
</g>
<!-- Node1&#45;&gt;Node19 -->
<g id="edge29_Node000001_Node000019" class="edge">
<title>Node1&#45;&gt;Node19</title>
<g id="a_edge29_Node000001_Node000019"><a xlink:title=" ">
<path fill="none" stroke="#63b8ff" d="M858.84,-417.6C862.14,-487.24 876.59,-716.77 925,-768.5 930.37,-774.24 937.27,-778.26 944.66,-781.07"/>
<polygon fill="#63b8ff" stroke="#63b8ff" points="862.31,-417.02 858.37,-407.18 855.32,-417.33 862.31,-417.02"/>
</a>
</g>
</g>
<!-- Node20 -->
<g id="Node000020" class="node">
<title>Node20</title>
<g id="a_Node000020"><a xlink:href="classAxiStreamMuxTb.html" target="_top" xlink:title=" ">
<polygon fill="white" stroke="#bfbfbf" points="1048.5,-759 947.5,-759 947.5,-740 1048.5,-740 1048.5,-759"/>
<text text-anchor="middle" x="998" y="-747" font-family="Helvetica,sans-Serif" font-size="10.00">AxiStreamMuxTb</text>
</a>
</g>
</g>
<!-- Node1&#45;&gt;Node20 -->
<g id="edge30_Node000001_Node000020" class="edge">
<title>Node1&#45;&gt;Node20</title>
<g id="a_edge30_Node000001_Node000020"><a xlink:title=" ">
<path fill="none" stroke="#63b8ff" d="M859.25,-417.26C863.75,-481.92 881.19,-685.58 925,-731.5 931.05,-737.84 938.96,-742.08 947.33,-744.89"/>
<polygon fill="#63b8ff" stroke="#63b8ff" points="862.74,-416.93 858.58,-407.19 855.75,-417.4 862.74,-416.93"/>
</a>
</g>
</g>
<!-- Node21 -->
<g id="Node000021" class="node">
<title>Node21</title>
<g id="a_Node000021"><a xlink:href="classAxiStreamResizeTb.html" target="_top" xlink:title=" ">
<polygon fill="white" stroke="#bfbfbf" points="1054,-722 942,-722 942,-703 1054,-703 1054,-722"/>
<text text-anchor="middle" x="998" y="-710" font-family="Helvetica,sans-Serif" font-size="10.00">AxiStreamResizeTb</text>
</a>
</g>
</g>
<!-- Node1&#45;&gt;Node21 -->
<g id="edge31_Node000001_Node000021" class="edge">
<title>Node1&#45;&gt;Node21</title>
<g id="a_edge31_Node000001_Node000021"><a xlink:title=" ">
<path fill="none" stroke="#63b8ff" d="M859.76,-416.99C865.53,-476.51 885.78,-654.37 925,-694.5 929.77,-699.38 935.66,-703.02 941.98,-705.71"/>
<polygon fill="#63b8ff" stroke="#63b8ff" points="863.24,-416.65 858.82,-407.02 856.28,-417.3 863.24,-416.65"/>
</a>
</g>
</g>
<!-- Node22 -->
<g id="Node000022" class="node">
<title>Node22</title>
<g id="a_Node000022"><a xlink:href="classAxiStreamPacketizer2Tb.html" target="_top" xlink:title=" ">
<polygon fill="white" stroke="#bfbfbf" points="1065.5,-685 930.5,-685 930.5,-666 1065.5,-666 1065.5,-685"/>
<text text-anchor="middle" x="998" y="-673" font-family="Helvetica,sans-Serif" font-size="10.00">AxiStreamPacketizer2Tb</text>
</a>
</g>
</g>
<!-- Node1&#45;&gt;Node22 -->
<g id="edge32_Node000001_Node000022" class="edge">
<title>Node1&#45;&gt;Node22</title>
<g id="a_edge32_Node000001_Node000022"><a xlink:title=" ">
<path fill="none" stroke="#63b8ff" d="M860.49,-417.37C867.72,-472.1 890.49,-623.24 925,-657.5 928.38,-660.86 932.29,-663.62 936.51,-665.89"/>
<polygon fill="#63b8ff" stroke="#63b8ff" points="863.93,-416.7 859.18,-407.23 856.99,-417.6 863.93,-416.7"/>
</a>
</g>
</g>
<!-- Node23 -->
<g id="Node000023" class="node">
<title>Node23</title>
<g id="a_Node000023"><a xlink:href="classHtspCoreTb.html" target="_top" xlink:title=" ">
<polygon fill="white" stroke="#bfbfbf" points="1035,-648 961,-648 961,-629 1035,-629 1035,-648"/>
<text text-anchor="middle" x="998" y="-636" font-family="Helvetica,sans-Serif" font-size="10.00">HtspCoreTb</text>
</a>
</g>
</g>
<!-- Node1&#45;&gt;Node23 -->
<g id="edge33_Node000001_Node000023" class="edge">
<title>Node1&#45;&gt;Node23</title>
<g id="a_edge33_Node000001_Node000023"><a xlink:title=" ">
<path fill="none" stroke="#63b8ff" d="M857.83,-417.35C858.58,-460.81 866.74,-564.91 925,-620.5 934.6,-629.66 948.13,-634.36 960.88,-636.71"/>
<polygon fill="#63b8ff" stroke="#63b8ff" points="861.33,-417.21 857.77,-407.23 854.33,-417.25 861.33,-417.21"/>
</a>
</g>
</g>
<!-- Node24 -->
<g id="Node000024" class="node">
<title>Node24</title>
<g id="a_Node000024"><a xlink:href="classPgp3Tb.html" target="_top" xlink:title=" ">
<polygon fill="white" stroke="#bfbfbf" points="1024.5,-611 971.5,-611 971.5,-592 1024.5,-592 1024.5,-611"/>
<text text-anchor="middle" x="998" y="-599" font-family="Helvetica,sans-Serif" font-size="10.00">Pgp3Tb</text>
</a>
</g>
</g>
<!-- Node1&#45;&gt;Node24 -->
<g id="edge34_Node000001_Node000024" class="edge">
<title>Node1&#45;&gt;Node24</title>
<g id="a_edge34_Node000001_Node000024"><a xlink:title=" ">
<path fill="none" stroke="#63b8ff" d="M859.25,-417.66C862.73,-455.89 875.85,-539.07 925,-583.5 937.52,-594.82 956.08,-599.27 971.22,-600.91"/>
<polygon fill="#63b8ff" stroke="#63b8ff" points="862.71,-417.03 858.45,-407.33 855.73,-417.57 862.71,-417.03"/>
</a>
</g>
</g>
<!-- Node25 -->
<g id="Node000025" class="node">
<title>Node25</title>
<g id="a_Node000025"><a xlink:href="classPgp4CoreLiteTb.html" target="_top" xlink:title=" ">
<polygon fill="white" stroke="#bfbfbf" points="1044.5,-574 951.5,-574 951.5,-555 1044.5,-555 1044.5,-574"/>
<text text-anchor="middle" x="998" y="-562" font-family="Helvetica,sans-Serif" font-size="10.00">Pgp4CoreLiteTb</text>
</a>
</g>
</g>
<!-- Node1&#45;&gt;Node25 -->
<g id="edge35_Node000001_Node000025" class="edge">
<title>Node1&#45;&gt;Node25</title>
<g id="a_edge35_Node000001_Node000025"><a xlink:title=" ">
<path fill="none" stroke="#63b8ff" d="M861.21,-417.2C867.49,-449.29 884.52,-512.64 925,-546.5 932.51,-552.78 941.91,-556.92 951.41,-559.64"/>
<polygon fill="#63b8ff" stroke="#63b8ff" points="864.63,-416.48 859.41,-407.26 857.74,-417.72 864.63,-416.48"/>
</a>
</g>
</g>
<!-- Node26 -->
<g id="Node000026" class="node">
<title>Node26</title>
<g id="a_Node000026"><a xlink:href="classPgp4Tb.html" target="_top" xlink:title=" ">
<polygon fill="white" stroke="#bfbfbf" points="1024.5,-537 971.5,-537 971.5,-518 1024.5,-518 1024.5,-537"/>
<text text-anchor="middle" x="998" y="-525" font-family="Helvetica,sans-Serif" font-size="10.00">Pgp4Tb</text>
</a>
</g>
</g>
<!-- Node1&#45;&gt;Node26 -->
<g id="edge36_Node000001_Node000026" class="edge">
<title>Node1&#45;&gt;Node26</title>
<g id="a_edge36_Node000001_Node000026"><a xlink:title=" ">
<path fill="none" stroke="#63b8ff" d="M864.18,-416.57C873.34,-441.77 893,-485.76 925,-509.5 938.35,-519.4 956.53,-523.9 971.28,-525.92"/>
<polygon fill="#63b8ff" stroke="#63b8ff" points="867.46,-415.34 860.88,-407.03 860.84,-417.62 867.46,-415.34"/>
</a>
</g>
</g>
<!-- Node27 -->
<g id="Node000027" class="node">
<title>Node27</title>
<g id="a_Node000027"><a xlink:href="classPgp4TxLiteTb.html" target="_top" xlink:title=" ">
<polygon fill="white" stroke="#bfbfbf" points="1039.5,-500 956.5,-500 956.5,-481 1039.5,-481 1039.5,-500"/>
<text text-anchor="middle" x="998" y="-488" font-family="Helvetica,sans-Serif" font-size="10.00">Pgp4TxLiteTb</text>
</a>
</g>
</g>
<!-- Node1&#45;&gt;Node27 -->
<g id="edge37_Node000001_Node000027" class="edge">
<title>Node1&#45;&gt;Node27</title>
<g id="a_edge37_Node000001_Node000027"><a xlink:title=" ">
<path fill="none" stroke="#63b8ff" d="M869.61,-415.86C881.45,-433.08 901.42,-458.26 925,-472.5 934.49,-478.23 945.72,-482.14 956.47,-484.81"/>
<polygon fill="#63b8ff" stroke="#63b8ff" points="872.33,-413.63 863.89,-407.23 866.49,-417.5 872.33,-413.63"/>
</a>
</g>
</g>
<!-- Node28 -->
<g id="Node000028" class="node">
<title>Node28</title>
<g id="a_Node000028"><a xlink:href="classRssiInterleaveTb.html" target="_top" xlink:title=" ">
<polygon fill="white" stroke="#bfbfbf" points="1047,-463 949,-463 949,-444 1047,-444 1047,-463"/>
<text text-anchor="middle" x="998" y="-451" font-family="Helvetica,sans-Serif" font-size="10.00">RssiInterleaveTb</text>
</a>
</g>
</g>
<!-- Node1&#45;&gt;Node28 -->
<g id="edge38_Node000001_Node000028" class="edge">
<title>Node1&#45;&gt;Node28</title>
<g id="a_edge38_Node000001_Node000028"><a xlink:title=" ">
<path fill="none" stroke="#63b8ff" d="M880.81,-412.49C893.42,-420.25 909.61,-429.35 925,-435.5 933.14,-438.75 942.03,-441.55 950.7,-443.9"/>
<polygon fill="#63b8ff" stroke="#63b8ff" points="882.65,-409.52 872.33,-407.15 878.92,-415.44 882.65,-409.52"/>
</a>
</g>
</g>
<!-- Node29 -->
<g id="Node000029" class="node">
<title>Node29</title>
<g id="a_Node000029"><a xlink:href="classSsiFifoTb.html" target="_top" xlink:title=" ">
<polygon fill="white" stroke="#bfbfbf" points="1028.5,-426 967.5,-426 967.5,-407 1028.5,-407 1028.5,-426"/>
<text text-anchor="middle" x="998" y="-414" font-family="Helvetica,sans-Serif" font-size="10.00">SsiFifoTb</text>
</a>
</g>
</g>
<!-- Node1&#45;&gt;Node29 -->
<g id="edge39_Node000001_Node000029" class="edge">
<title>Node1&#45;&gt;Node29</title>
<g id="a_edge39_Node000001_Node000029"><a xlink:title=" ">
<path fill="none" stroke="#63b8ff" d="M899.21,-403.13C921.09,-406.12 947.49,-409.73 967.34,-412.45"/>
<polygon fill="#63b8ff" stroke="#63b8ff" points="899.58,-399.65 889.19,-401.76 898.63,-406.59 899.58,-399.65"/>
</a>
</g>
</g>
<!-- Node30 -->
<g id="Node000030" class="node">
<title>Node30</title>
<g id="a_Node000030"><a xlink:href="classSsiPrbsRateGen.html" target="_top" xlink:title=" ">
<polygon fill="white" stroke="#bfbfbf" points="1045,-389 951,-389 951,-370 1045,-370 1045,-389"/>
<text text-anchor="middle" x="998" y="-377" font-family="Helvetica,sans-Serif" font-size="10.00">SsiPrbsRateGen</text>
</a>
</g>
</g>
<!-- Node1&#45;&gt;Node30 -->
<g id="edge40_Node000001_Node000030" class="edge">
<title>Node1&#45;&gt;Node30</title>
<g id="a_edge40_Node000001_Node000030"><a xlink:title=" ">
<path fill="none" stroke="#63b8ff" d="M899.43,-392.13C915.62,-390.04 934.25,-387.63 950.87,-385.47"/>
<polygon fill="#63b8ff" stroke="#63b8ff" points="898.66,-388.71 889.19,-393.46 899.56,-395.65 898.66,-388.71"/>
</a>
</g>
</g>
<!-- Node31 -->
<g id="Node000031" class="node">
<title>Node31</title>
<g id="a_Node000031"><a xlink:href="classSsiPrbsTb.html" target="_top" xlink:title=" ">
<polygon fill="white" stroke="#bfbfbf" points="1030,-352 966,-352 966,-333 1030,-333 1030,-352"/>
<text text-anchor="middle" x="998" y="-340" font-family="Helvetica,sans-Serif" font-size="10.00">SsiPrbsTb</text>
</a>
</g>
</g>
<!-- Node1&#45;&gt;Node31 -->
<g id="edge41_Node000001_Node000031" class="edge">
<title>Node1&#45;&gt;Node31</title>
<g id="a_edge41_Node000001_Node000031"><a xlink:title=" ">
<path fill="none" stroke="#63b8ff" d="M881.48,-382.56C894.01,-375.1 909.92,-366.43 925,-360.5 938.07,-355.36 953.06,-351.33 965.97,-348.4"/>
<polygon fill="#63b8ff" stroke="#63b8ff" points="879.34,-379.77 872.62,-387.97 882.98,-385.75 879.34,-379.77"/>
</a>
</g>
</g>
<!-- Node32 -->
<g id="Node000032" class="node">
<title>Node32</title>
<g id="a_Node000032"><a xlink:href="classEthMacPauseTb.html" target="_top" xlink:title=" ">
<polygon fill="white" stroke="#bfbfbf" points="1044.5,-315 951.5,-315 951.5,-296 1044.5,-296 1044.5,-315"/>
<text text-anchor="middle" x="998" y="-303" font-family="Helvetica,sans-Serif" font-size="10.00">EthMacPauseTb</text>
</a>
</g>
</g>
<!-- Node1&#45;&gt;Node32 -->
<g id="edge42_Node000001_Node000032" class="edge">
<title>Node1&#45;&gt;Node32</title>
<g id="a_edge42_Node000001_Node000032"><a xlink:title=" ">
<path fill="none" stroke="#63b8ff" d="M869.66,-379.39C881.55,-362.4 901.55,-337.56 925,-323.5 932.96,-318.73 942.13,-315.22 951.21,-312.64"/>
<polygon fill="#63b8ff" stroke="#63b8ff" points="866.61,-377.65 863.92,-387.9 872.41,-381.57 866.61,-377.65"/>
</a>
</g>
</g>
<!-- Node33 -->
<g id="Node000033" class="node">
<title>Node33</title>
<g id="a_Node000033"><a xlink:href="classRawEthFramerTb.html" target="_top" xlink:title=" ">
<polygon fill="white" stroke="#bfbfbf" points="1048,-278 948,-278 948,-259 1048,-259 1048,-278"/>
<text text-anchor="middle" x="998" y="-266" font-family="Helvetica,sans-Serif" font-size="10.00">RawEthFramerTb</text>
</a>
</g>
</g>
<!-- Node1&#45;&gt;Node33 -->
<g id="edge43_Node000001_Node000033" class="edge">
<title>Node1&#45;&gt;Node33</title>
<g id="a_edge43_Node000001_Node000033"><a xlink:title=" ">
<path fill="none" stroke="#63b8ff" d="M864.36,-378.23C873.64,-353.18 893.32,-309.91 925,-286.5 931.74,-281.52 939.69,-277.91 947.82,-275.3"/>
<polygon fill="#63b8ff" stroke="#63b8ff" points="861.04,-377.13 861.02,-387.73 867.64,-379.46 861.04,-377.13"/>
</a>
</g>
</g>
<!-- Node34 -->
<g id="Node000034" class="node">
<title>Node34</title>
<g id="a_Node000034"><a xlink:href="classUdpEngineTb.html" target="_top" xlink:title=" ">
<polygon fill="white" stroke="#bfbfbf" points="1038.5,-241 957.5,-241 957.5,-222 1038.5,-222 1038.5,-241"/>
<text text-anchor="middle" x="998" y="-229" font-family="Helvetica,sans-Serif" font-size="10.00">UdpEngineTb</text>
</a>
</g>
</g>
<!-- Node1&#45;&gt;Node34 -->
<g id="edge44_Node000001_Node000034" class="edge">
<title>Node1&#45;&gt;Node34</title>
<g id="a_edge44_Node000001_Node000034"><a xlink:title=" ">
<path fill="none" stroke="#63b8ff" d="M861.25,-377.93C867.59,-346.05 884.71,-283.12 925,-249.5 934.1,-241.91 945.96,-237.45 957.42,-234.85"/>
<polygon fill="#63b8ff" stroke="#63b8ff" points="857.8,-377.34 859.43,-387.81 864.68,-378.6 857.8,-377.34"/>
</a>
</g>
</g>
<!-- Node35 -->
<g id="Node000035" class="node">
<title>Node35</title>
<g id="a_Node000035"><a xlink:href="classHtspCaui4GtyTb.html" target="_top" xlink:title=" ">
<polygon fill="white" stroke="#bfbfbf" points="1046,-204 950,-204 950,-185 1046,-185 1046,-204"/>
<text text-anchor="middle" x="998" y="-192" font-family="Helvetica,sans-Serif" font-size="10.00">HtspCaui4GtyTb</text>
</a>
</g>
</g>
<!-- Node1&#45;&gt;Node35 -->
<g id="edge45_Node000001_Node000035" class="edge">
<title>Node1&#45;&gt;Node35</title>
<g id="a_edge45_Node000001_Node000035"><a xlink:title=" ">
<path fill="none" stroke="#63b8ff" d="M859.28,-377.45C862.82,-339.42 876.05,-256.68 925,-212.5 931.98,-206.2 940.84,-202.03 949.93,-199.28"/>
<polygon fill="#63b8ff" stroke="#63b8ff" points="855.77,-377.47 858.46,-387.72 862.75,-378.03 855.77,-377.47"/>
</a>
</g>
</g>
<!-- Node36 -->
<g id="Node000036" class="node">
<title>Node36</title>
<g id="a_Node000036"><a xlink:href="classpgp__test.html" target="_top" xlink:title=" ">
<polygon fill="white" stroke="#bfbfbf" points="1027.5,-167 968.5,-167 968.5,-148 1027.5,-148 1027.5,-167"/>
<text text-anchor="middle" x="998" y="-155" font-family="Helvetica,sans-Serif" font-size="10.00">pgp_test</text>
</a>
</g>
</g>
<!-- Node1&#45;&gt;Node36 -->
<g id="edge46_Node000001_Node000036" class="edge">
<title>Node1&#45;&gt;Node36</title>
<g id="a_edge46_Node000001_Node000036"><a xlink:title=" ">
<path fill="none" stroke="#63b8ff" d="M857.86,-377.73C858.67,-334.47 866.95,-230.83 925,-175.5 936.47,-164.57 953.54,-159.98 968.18,-158.17"/>
<polygon fill="#63b8ff" stroke="#63b8ff" points="854.36,-377.79 857.79,-387.81 861.36,-377.83 854.36,-377.79"/>
</a>
</g>
</g>
<!-- Node37 -->
<g id="Node000037" class="node">
<title>Node37</title>
<g id="a_Node000037"><a xlink:href="classPgp2fcLane__tb.html" target="_top" xlink:title=" ">
<polygon fill="white" stroke="#bfbfbf" points="1042,-130 954,-130 954,-111 1042,-111 1042,-130"/>
<text text-anchor="middle" x="998" y="-118" font-family="Helvetica,sans-Serif" font-size="10.00">Pgp2fcLane_tb</text>
</a>
</g>
</g>
<!-- Node1&#45;&gt;Node37 -->
<g id="edge47_Node000001_Node000037" class="edge">
<title>Node1&#45;&gt;Node37</title>
<g id="a_edge47_Node000001_Node000037"><a xlink:title=" ">
<path fill="none" stroke="#63b8ff" d="M860.5,-377.7C867.76,-323.19 890.6,-172.62 925,-138.5 932.78,-130.79 943.33,-126.21 953.95,-123.54"/>
<polygon fill="#63b8ff" stroke="#63b8ff" points="857,-377.44 859.18,-387.8 863.94,-378.34 857,-377.44"/>
</a>
</g>
</g>
<!-- Node38 -->
<g id="Node000038" class="node">
<title>Node38</title>
<g id="a_Node000038"><a xlink:href="classPgp4FecTb.html" target="_top" xlink:title=" ">
<polygon fill="white" stroke="#bfbfbf" points="1032.5,-93 963.5,-93 963.5,-74 1032.5,-74 1032.5,-93"/>
<text text-anchor="middle" x="998" y="-81" font-family="Helvetica,sans-Serif" font-size="10.00">Pgp4FecTb</text>
</a>
</g>
</g>
<!-- Node1&#45;&gt;Node38 -->
<g id="edge48_Node000001_Node000038" class="edge">
<title>Node1&#45;&gt;Node38</title>
<g id="a_edge48_Node000001_Node000038"><a xlink:title=" ">
<path fill="none" stroke="#63b8ff" d="M859.81,-377.68C865.66,-317.96 885.98,-141.4 925,-101.5 935,-91.27 949.86,-86.53 963.49,-84.44"/>
<polygon fill="#63b8ff" stroke="#63b8ff" points="856.32,-377.42 858.86,-387.71 863.29,-378.08 856.32,-377.42"/>
</a>
</g>
</g>
<!-- Node39 -->
<g id="Node000039" class="node">
<title>Node39</title>
<g id="a_Node000039"><a xlink:href="classSaltCoreTb.html" target="_top" xlink:title=" ">
<polygon fill="white" stroke="#bfbfbf" points="1033,-56 963,-56 963,-37 1033,-37 1033,-56"/>
<text text-anchor="middle" x="998" y="-44" font-family="Helvetica,sans-Serif" font-size="10.00">SaltCoreTb</text>
</a>
</g>
</g>
<!-- Node1&#45;&gt;Node39 -->
<g id="edge49_Node000001_Node000039" class="edge">
<title>Node1&#45;&gt;Node39</title>
<g id="a_edge49_Node000001_Node000039"><a xlink:title=" ">
<path fill="none" stroke="#63b8ff" d="M859.26,-377.79C863.78,-313.33 881.3,-110.27 925,-64.5 934.7,-54.34 949.19,-49.57 962.64,-47.44"/>
<polygon fill="#63b8ff" stroke="#63b8ff" points="855.76,-377.63 858.58,-387.84 862.75,-378.1 855.76,-377.63"/>
</a>
</g>
</g>
<!-- Node40 -->
<g id="Node000040" class="node">
<title>Node40</title>
<g id="a_Node000040"><a xlink:href="classSelectioDeserUltraScaleTb.html" target="_top" xlink:title=" ">
<polygon fill="white" stroke="#bfbfbf" points="1071,-19 925,-19 925,0 1071,0 1071,-19"/>
<text text-anchor="middle" x="998" y="-7" font-family="Helvetica,sans-Serif" font-size="10.00">SelectioDeserUltraScaleTb</text>
</a>
</g>
</g>
<!-- Node1&#45;&gt;Node40 -->
<g id="edge50_Node000001_Node000040" class="edge">
<title>Node1&#45;&gt;Node40</title>
<g id="a_edge50_Node000001_Node000040"><a xlink:title=" ">
<path fill="none" stroke="#63b8ff" d="M858.84,-377.45C862.18,-308 876.71,-79.08 925,-27.5 928.17,-24.11 931.87,-21.32 935.89,-19.03"/>
<polygon fill="#63b8ff" stroke="#63b8ff" points="855.33,-377.69 858.37,-387.84 862.32,-378.01 855.33,-377.69"/>
</a>
</g>
</g>
<!-- Node2 -->
<g id="Node000002" class="node">
<title>Node2</title>
<g id="a_Node000002"><a xlink:href="classAxiStreamFifoV2.html" target="_top" xlink:title=" ">
<polygon fill="white" stroke="#bfbfbf" points="789,-407 691,-407 691,-388 789,-388 789,-407"/>
<text text-anchor="middle" x="740" y="-395" font-family="Helvetica,sans-Serif" font-size="10.00">AxiStreamFifoV2</text>
</a>
</g>
</g>
<!-- Node2&#45;&gt;Node1 -->
<g id="edge1_Node000001_Node000002" class="edge">
<title>Node2&#45;&gt;Node1</title>
<g id="a_edge1_Node000001_Node000002"><a xlink:title=" ">
<path fill="none" stroke="#63b8ff" d="M799.37,-397.5C808.14,-397.5 816.89,-397.5 824.79,-397.5"/>
<polygon fill="#63b8ff" stroke="#63b8ff" points="799.1,-394 789.1,-397.5 799.1,-401 799.1,-394"/>
</a>
</g>
</g>
<!-- Node3 -->
<g id="Node000003" class="node">
<title>Node3</title>
<g id="a_Node000003"><a xlink:href="classAxiStreamGearbox.html" target="_top" xlink:title=" ">
<polygon fill="white" stroke="#bfbfbf" points="655,-464 546,-464 546,-445 655,-445 655,-464"/>
<text text-anchor="middle" x="600.5" y="-452" font-family="Helvetica,sans-Serif" font-size="10.00">AxiStreamGearbox</text>
</a>
</g>
</g>
<!-- Node3&#45;&gt;Node2 -->
<g id="edge2_Node000002_Node000003" class="edge">
<title>Node3&#45;&gt;Node2</title>
<g id="a_edge2_Node000002_Node000003"><a xlink:title=" ">
<path fill="none" stroke="#63b8ff" d="M634.02,-441.02C659.2,-430.58 693.48,-416.37 715.91,-407.07"/>
<polygon fill="#63b8ff" stroke="#63b8ff" points="632.41,-437.9 624.51,-444.96 635.09,-444.36 632.41,-437.9"/>
</a>
</g>
</g>
<!-- Node4 -->
<g id="Node000004" class="node">
<title>Node4</title>
<g id="a_Node000004"><a xlink:href="classAxiStreamResize.html" target="_top" xlink:title=" ">
<polygon fill="white" stroke="#bfbfbf" points="510,-502 410,-502 410,-483 510,-483 510,-502"/>
<text text-anchor="middle" x="460" y="-490" font-family="Helvetica,sans-Serif" font-size="10.00">AxiStreamResize</text>
</a>
</g>
</g>
<!-- Node4&#45;&gt;Node3 -->
<g id="edge3_Node000003_Node000004" class="edge">
<title>Node4&#45;&gt;Node3</title>
<g id="a_edge3_Node000003_Node000004"><a xlink:title=" ">
<path fill="none" stroke="#63b8ff" d="M505.63,-480.25C524.72,-475.02 546.68,-468.99 564.56,-464.09"/>
<polygon fill="#63b8ff" stroke="#63b8ff" points="504.67,-476.89 495.95,-482.91 506.52,-483.64 504.67,-476.89"/>
</a>
</g>
</g>
<!-- Node5 -->
<g id="Node000005" class="node">
<title>Node5</title>
<g id="a_Node000005"><a xlink:href="classAxiStreamPipeline.html" target="_top" xlink:title=" ">
<polygon fill="white" stroke="#bfbfbf" points="374,-483 267,-483 267,-464 374,-464 374,-483"/>
<text text-anchor="middle" x="320.5" y="-471" font-family="Helvetica,sans-Serif" font-size="10.00">AxiStreamPipeline</text>
</a>
</g>
</g>
<!-- Node5&#45;&gt;Node2 -->
<g id="edge28_Node000002_Node000005" class="edge">
<title>Node5&#45;&gt;Node2</title>
<g id="a_edge28_Node000002_Node000005"><a xlink:title=" ">
<path fill="none" stroke="#63b8ff" d="M380.7,-462.02C390.48,-460.16 400.52,-458.26 410,-456.5 509.7,-437.99 626.59,-417.26 690.74,-405.96"/>
<polygon fill="#63b8ff" stroke="#63b8ff" points="379.8,-458.63 370.63,-463.95 381.11,-465.51 379.8,-458.63"/>
</a>
</g>
</g>
<!-- Node5&#45;&gt;Node3 -->
<g id="edge5_Node000003_Node000005" class="edge">
<title>Node5&#45;&gt;Node3</title>
<g id="a_edge5_Node000003_Node000005"><a xlink:title=" ">
<path fill="none" stroke="#63b8ff" d="M384.2,-469.21C432.81,-465.89 499.47,-461.34 545.68,-458.18"/>
<polygon fill="#63b8ff" stroke="#63b8ff" points="383.85,-465.73 374.12,-469.9 384.33,-472.71 383.85,-465.73"/>
</a>
</g>
</g>
<!-- Node5&#45;&gt;Node4 -->
<g id="edge4_Node000004_Node000005" class="edge">
<title>Node5&#45;&gt;Node4</title>
<g id="a_edge4_Node000004_Node000005"><a xlink:title=" ">
<path fill="none" stroke="#63b8ff" d="M384.23,-482.17C392.79,-483.35 401.48,-484.55 409.76,-485.7"/>
<polygon fill="#63b8ff" stroke="#63b8ff" points="384.65,-478.69 374.27,-480.79 383.69,-485.63 384.65,-478.69"/>
</a>
</g>
</g>
<!-- Node6 -->
<g id="Node000006" class="node">
<title>Node6</title>
<g id="a_Node000006"><a xlink:href="classFifoCascade.html" target="_top" xlink:title=" ">
<polygon fill="white" stroke="#bfbfbf" points="638.5,-388 562.5,-388 562.5,-369 638.5,-369 638.5,-388"/>
<text text-anchor="middle" x="600.5" y="-376" font-family="Helvetica,sans-Serif" font-size="10.00">FifoCascade</text>
</a>
</g>
</g>
<!-- Node6&#45;&gt;Node2 -->
<g id="edge6_Node000002_Node000006" class="edge">
<title>Node6&#45;&gt;Node2</title>
<g id="a_edge6_Node000002_Node000006"><a xlink:title=" ">
<path fill="none" stroke="#63b8ff" d="M648.82,-385.04C662.42,-386.92 677.25,-388.97 690.89,-390.85"/>
<polygon fill="#63b8ff" stroke="#63b8ff" points="649.09,-381.54 638.71,-383.64 648.14,-388.48 649.09,-381.54"/>
</a>
</g>
</g>
<!-- Node7 -->
<g id="Node000007" class="node">
<title>Node7</title>
<g id="a_Node000007"><a xlink:href="classFifo.html" target="_top" xlink:title=" ">
<polygon fill="white" stroke="#bfbfbf" points="477.5,-388 442.5,-388 442.5,-369 477.5,-369 477.5,-388"/>
<text text-anchor="middle" x="460" y="-376" font-family="Helvetica,sans-Serif" font-size="10.00">Fifo</text>
</a>
</g>
</g>
<!-- Node7&#45;&gt;Node6 -->
<g id="edge7_Node000006_Node000007" class="edge">
<title>Node7&#45;&gt;Node6</title>
<g id="a_edge7_Node000006_Node000007"><a xlink:title=" ">
<path fill="none" stroke="#63b8ff" d="M487.94,-378.5C509.16,-378.5 538.96,-378.5 562.43,-378.5"/>
<polygon fill="#63b8ff" stroke="#63b8ff" points="487.71,-375 477.71,-378.5 487.71,-382 487.71,-375"/>
</a>
</g>
</g>
<!-- Node8 -->
<g id="Node000008" class="node">
<title>Node8</title>
<g id="a_Node000008"><a xlink:href="classFifoXpm.html" target="_top" xlink:title=" ">
<polygon fill="white" stroke="#bfbfbf" points="349,-333 292,-333 292,-314 349,-314 349,-333"/>
<text text-anchor="middle" x="320.5" y="-321" font-family="Helvetica,sans-Serif" font-size="10.00">FifoXpm</text>
</a>
</g>
</g>
<!-- Node8&#45;&gt;Node7 -->
<g id="edge8_Node000007_Node000008" class="edge">
<title>Node8&#45;&gt;Node7</title>
<g id="a_edge8_Node000007_Node000008"><a xlink:title=" ">
<path fill="none" stroke="#63b8ff" d="M358.85,-335.89C363.97,-337.71 369.13,-339.61 374,-341.5 398,-350.82 425.21,-362.94 442.23,-370.73"/>
<polygon fill="#63b8ff" stroke="#63b8ff" points="359.77,-332.51 349.17,-332.52 357.46,-339.12 359.77,-332.51"/>
</a>
</g>
</g>
<!-- Node9 -->
<g id="Node000009" class="node">
<title>Node9</title>
<g id="a_Node000009"><a xlink:href="classRstSync.html" target="_top" xlink:title=" ">
<polygon fill="white" stroke="#bfbfbf" points="201.5,-296 145.5,-296 145.5,-277 201.5,-277 201.5,-296"/>
<text text-anchor="middle" x="173.5" y="-284" font-family="Helvetica,sans-Serif" font-size="10.00">RstSync</text>
</a>
</g>
</g>
<!-- Node9&#45;&gt;Node8 -->
<g id="edge9_Node000008_Node000009" class="edge">
<title>Node9&#45;&gt;Node8</title>
<g id="a_edge9_Node000008_Node000009"><a xlink:title=" ">
<path fill="none" stroke="#63b8ff" d="M211.64,-295.98C236.66,-302.36 269.11,-310.64 291.86,-316.45"/>
<polygon fill="#63b8ff" stroke="#63b8ff" points="212.33,-292.54 201.77,-293.46 210.6,-299.32 212.33,-292.54"/>
</a>
</g>
</g>
<!-- Node13 -->
<g id="Node000013" class="node">
<title>Node13</title>
<g id="a_Node000013"><a xlink:href="classFifoAsync.html" target="_top" xlink:title=" ">
<polygon fill="white" stroke="#bfbfbf" points="352.5,-408 288.5,-408 288.5,-389 352.5,-389 352.5,-408"/>
<text text-anchor="middle" x="320.5" y="-396" font-family="Helvetica,sans-Serif" font-size="10.00">FifoAsync</text>
</a>
</g>
</g>
<!-- Node9&#45;&gt;Node13 -->
<g id="edge15_Node000013_Node000009" class="edge">
<title>Node9&#45;&gt;Node13</title>
<g id="a_edge15_Node000013_Node000009"><a xlink:title=" ">
<path fill="none" stroke="#63b8ff" d="M211.36,-293.49C218.44,-296.09 225.38,-299.64 231,-304.5 258.66,-328.43 240.02,-353.81 267,-378.5 273.04,-384.03 280.78,-388.08 288.43,-391.04"/>
<polygon fill="#63b8ff" stroke="#63b8ff" points="212.34,-290.13 201.75,-290.52 210.27,-296.82 212.34,-290.13"/>
</a>
</g>
</g>
<!-- Node10 -->
<g id="Node000010" class="node">
<title>Node10</title>
<g id="a_Node000010"><a xlink:href="classSynchronizer.html" target="_top" xlink:title=" ">
<polygon fill="white" stroke="#bfbfbf" points="80,-296 0,-296 0,-277 80,-277 80,-296"/>
<text text-anchor="middle" x="40" y="-284" font-family="Helvetica,sans-Serif" font-size="10.00">Synchronizer</text>
</a>
</g>
</g>
<!-- Node10&#45;&gt;Node2 -->
<g id="edge27_Node000002_Node000010" class="edge">
<title>Node10&#45;&gt;Node2</title>
<g id="a_edge27_Node000002_Node000010"><a xlink:title=" ">
<path fill="none" stroke="#63b8ff" d="M83.76,-274.45C94.24,-271.84 105.47,-269.31 116,-267.5 205.52,-252.08 228.66,-248.5 319.5,-248.5 319.5,-248.5 319.5,-248.5 461,-248.5 579.28,-248.5 695.87,-354.58 729.42,-387.72"/>
<polygon fill="#63b8ff" stroke="#63b8ff" points="82.8,-271.08 73.99,-276.97 84.55,-277.86 82.8,-271.08"/>
</a>
</g>
</g>
<!-- Node10&#45;&gt;Node9 -->
<g id="edge10_Node000009_Node000010" class="edge">
<title>Node10&#45;&gt;Node9</title>
<g id="a_edge10_Node000009_Node000010"><a xlink:title=" ">
<path fill="none" stroke="#63b8ff" d="M90.24,-286.5C108.93,-286.5 129.52,-286.5 145.43,-286.5"/>
<polygon fill="#63b8ff" stroke="#63b8ff" points="90.1,-283 80.1,-286.5 90.1,-290 90.1,-283"/>
</a>
</g>
</g>
<!-- Node10&#45;&gt;Node13 -->
<g id="edge17_Node000013_Node000010" class="edge">
<title>Node10&#45;&gt;Node13</title>
<g id="a_edge17_Node000013_Node000010"><a xlink:title=" ">
<path fill="none" stroke="#63b8ff" d="M50.26,-305.08C62.19,-326.82 85.14,-361.94 116,-378.5 171.06,-408.04 246.6,-406.41 288.43,-402.51"/>
<polygon fill="#63b8ff" stroke="#63b8ff" points="53.32,-303.37 45.56,-296.15 47.12,-306.63 53.32,-303.37"/>
</a>
</g>
</g>
<!-- Node11 -->
<g id="Node000011" class="node">
<title>Node11</title>
<g id="a_Node000011"><a xlink:href="classFifoOutputPipeline.html" target="_top" xlink:title=" ">
<polygon fill="white" stroke="#bfbfbf" points="227,-333 120,-333 120,-314 227,-314 227,-333"/>
<text text-anchor="middle" x="173.5" y="-321" font-family="Helvetica,sans-Serif" font-size="10.00">FifoOutputPipeline</text>
</a>
</g>
</g>
<!-- Node11&#45;&gt;Node8 -->
<g id="edge11_Node000008_Node000011" class="edge">
<title>Node11&#45;&gt;Node8</title>
<g id="a_edge11_Node000008_Node000011"><a xlink:title=" ">
<path fill="none" stroke="#63b8ff" d="M237.4,-323.5C256.43,-323.5 276.36,-323.5 291.81,-323.5"/>
<polygon fill="#63b8ff" stroke="#63b8ff" points="237.26,-320 227.26,-323.5 237.26,-327 237.26,-320"/>
</a>
</g>
</g>
<!-- Node12 -->
<g id="Node000012" class="node">
<title>Node12</title>
<g id="a_Node000012"><a xlink:href="classFifoAlteraMf.html" target="_top" xlink:title=" ">
<polygon fill="white" stroke="#bfbfbf" points="359,-370 282,-370 282,-351 359,-351 359,-370"/>
<text text-anchor="middle" x="320.5" y="-358" font-family="Helvetica,sans-Serif" font-size="10.00">FifoAlteraMf</text>
</a>
</g>
</g>
<!-- Node11&#45;&gt;Node12 -->
<g id="edge13_Node000012_Node000011" class="edge">
<title>Node11&#45;&gt;Node12</title>
<g id="a_edge13_Node000012_Node000011"><a xlink:title=" ">
<path fill="none" stroke="#63b8ff" d="M221.77,-335.56C241.31,-340.55 263.65,-346.25 282.03,-350.94"/>
<polygon fill="#63b8ff" stroke="#63b8ff" points="222.4,-332.11 211.84,-333.03 220.67,-338.89 222.4,-332.11"/>
</a>
</g>
</g>
<!-- Node11&#45;&gt;Node13 -->
<g id="edge21_Node000013_Node000011" class="edge">
<title>Node11&#45;&gt;Node13</title>
<g id="a_edge21_Node000013_Node000011"><a xlink:title=" ">
<path fill="none" stroke="#63b8ff" d="M222.7,-337.01C225.58,-338.38 228.37,-339.87 231,-341.5 250.51,-353.57 247.83,-365.9 267,-378.5 273.52,-382.79 281.09,-386.35 288.42,-389.22"/>
<polygon fill="#63b8ff" stroke="#63b8ff" points="223.88,-333.71 213.31,-333.06 221.17,-340.17 223.88,-333.71"/>
</a>
</g>
</g>
<!-- Node18 -->
<g id="Node000018" class="node">
<title>Node18</title>
<g id="a_Node000018"><a xlink:href="classFifoSync.html" target="_top" xlink:title=" ">
<polygon fill="white" stroke="#bfbfbf" points="349.5,-446 291.5,-446 291.5,-427 349.5,-427 349.5,-446"/>
<text text-anchor="middle" x="320.5" y="-434" font-family="Helvetica,sans-Serif" font-size="10.00">FifoSync</text>
</a>
</g>
</g>
<!-- Node11&#45;&gt;Node18 -->
<g id="edge26_Node000018_Node000011" class="edge">
<title>Node11&#45;&gt;Node18</title>
<g id="a_edge26_Node000018_Node000011"><a xlink:title=" ">
<path fill="none" stroke="#63b8ff" d="M226.79,-338.23C228.26,-339.25 229.67,-340.34 231,-341.5 259.14,-366.1 239.34,-392.36 267,-417.5 273.81,-423.69 282.8,-427.91 291.41,-430.76"/>
<polygon fill="#63b8ff" stroke="#63b8ff" points="228.27,-335.04 217.85,-333.13 224.8,-341.12 228.27,-335.04"/>
</a>
</g>
</g>
<!-- Node12&#45;&gt;Node7 -->
<g id="edge12_Node000007_Node000012" class="edge">
<title>Node12&#45;&gt;Node7</title>
<g id="a_edge12_Node000007_Node000012"><a xlink:title=" ">
<path fill="none" stroke="#63b8ff" d="M369.27,-366.75C394.63,-370.07 424.2,-373.94 442.26,-376.31"/>
<polygon fill="#63b8ff" stroke="#63b8ff" points="369.44,-363.25 359.07,-365.42 368.53,-370.19 369.44,-363.25"/>
</a>
</g>
</g>
<!-- Node13&#45;&gt;Node7 -->
<g id="edge14_Node000007_Node000013" class="edge">
<title>Node13&#45;&gt;Node7</title>
<g id="a_edge14_Node000007_Node000013"><a xlink:title=" ">
<path fill="none" stroke="#63b8ff" d="M362.89,-392.48C389.45,-388.62 422.53,-383.81 442.14,-380.95"/>
<polygon fill="#63b8ff" stroke="#63b8ff" points="362.09,-389.06 352.7,-393.96 363.1,-395.99 362.09,-389.06"/>
</a>
</g>
</g>
<!-- Node14 -->
<g id="Node000014" class="node">
<title>Node14</title>
<g id="a_Node000014"><a xlink:href="classSynchronizerVector.html" target="_top" xlink:title=" ">
<polygon fill="white" stroke="#bfbfbf" points="228.5,-370 118.5,-370 118.5,-351 228.5,-351 228.5,-370"/>
<text text-anchor="middle" x="173.5" y="-358" font-family="Helvetica,sans-Serif" font-size="10.00">SynchronizerVector</text>
</a>
</g>
</g>
<!-- Node14&#45;&gt;Node13 -->
<g id="edge16_Node000013_Node000014" class="edge">
<title>Node14&#45;&gt;Node13</title>
<g id="a_edge16_Node000013_Node000014"><a xlink:title=" ">
<path fill="none" stroke="#63b8ff" d="M220.91,-372.66C242.94,-378.44 268.68,-385.18 288.33,-390.33"/>
<polygon fill="#63b8ff" stroke="#63b8ff" points="221.65,-369.24 211.09,-370.09 219.88,-376.01 221.65,-369.24"/>
</a>
</g>
</g>
<!-- Node15 -->
<g id="Node000015" class="node">
<title>Node15</title>
<g id="a_Node000015"><a xlink:href="classFifoWrFsm.html" target="_top" xlink:title=" ">
<polygon fill="white" stroke="#bfbfbf" points="208,-446 139,-446 139,-427 208,-427 208,-446"/>
<text text-anchor="middle" x="173.5" y="-434" font-family="Helvetica,sans-Serif" font-size="10.00">FifoWrFsm</text>
</a>
</g>
</g>
<!-- Node15&#45;&gt;Node13 -->
<g id="edge18_Node000013_Node000015" class="edge">
<title>Node15&#45;&gt;Node13</title>
<g id="a_edge18_Node000013_Node000015"><a xlink:title=" ">
<path fill="none" stroke="#63b8ff" d="M217.82,-425.15C240.39,-419.23 267.49,-412.13 288.04,-406.75"/>
<polygon fill="#63b8ff" stroke="#63b8ff" points="216.92,-421.77 208.13,-427.69 218.69,-428.54 216.92,-421.77"/>
</a>
</g>
</g>
<!-- Node15&#45;&gt;Node18 -->
<g id="edge23_Node000018_Node000015" class="edge">
<title>Node15&#45;&gt;Node18</title>
<g id="a_edge23_Node000018_Node000015"><a xlink:title=" ">
<path fill="none" stroke="#63b8ff" d="M218.31,-436.5C242.04,-436.5 270.67,-436.5 291.41,-436.5"/>
<polygon fill="#63b8ff" stroke="#63b8ff" points="218.13,-433 208.13,-436.5 218.13,-440 218.13,-433"/>
</a>
</g>
</g>
<!-- Node16 -->
<g id="Node000016" class="node">
<title>Node16</title>
<g id="a_Node000016"><a xlink:href="classFifoRdFsm.html" target="_top" xlink:title=" ">
<polygon fill="white" stroke="#bfbfbf" points="207.5,-520 139.5,-520 139.5,-501 207.5,-501 207.5,-520"/>
<text text-anchor="middle" x="173.5" y="-508" font-family="Helvetica,sans-Serif" font-size="10.00">FifoRdFsm</text>
</a>
</g>
</g>
<!-- Node16&#45;&gt;Node13 -->
<g id="edge19_Node000013_Node000016" class="edge">
<title>Node16&#45;&gt;Node13</title>
<g id="a_edge19_Node000013_Node000016"><a xlink:title=" ">
<path fill="none" stroke="#63b8ff" d="M217.3,-501.07C222.25,-498.8 226.97,-495.99 231,-492.5 258.66,-468.57 240.02,-443.19 267,-418.5 273.04,-412.97 280.78,-408.92 288.43,-405.96"/>
<polygon fill="#63b8ff" stroke="#63b8ff" points="215.67,-497.95 207.59,-504.8 218.18,-504.48 215.67,-497.95"/>
</a>
</g>
</g>
<!-- Node16&#45;&gt;Node18 -->
<g id="edge24_Node000018_Node000016" class="edge">
<title>Node16&#45;&gt;Node18</title>
<g id="a_edge24_Node000018_Node000016"><a xlink:title=" ">
<path fill="none" stroke="#63b8ff" d="M217.06,-499.47C221.92,-497.48 226.68,-495.17 231,-492.5 250.51,-480.43 247.72,-467.94 267,-455.5 274.41,-450.72 283.19,-446.93 291.42,-444.04"/>
<polygon fill="#63b8ff" stroke="#63b8ff" points="215.85,-496.19 207.67,-502.91 218.26,-502.76 215.85,-496.19"/>
</a>
</g>
</g>
<!-- Node17 -->
<g id="Node000017" class="node">
<title>Node17</title>
<g id="a_Node000017"><a xlink:href="classSimpleDualPortRam.html" target="_top" xlink:title=" ">
<polygon fill="white" stroke="#bfbfbf" points="231,-483 116,-483 116,-464 231,-464 231,-483"/>
<text text-anchor="middle" x="173.5" y="-471" font-family="Helvetica,sans-Serif" font-size="10.00">SimpleDualPortRam</text>
</a>
</g>
</g>
<!-- Node17&#45;&gt;Node13 -->
<g id="edge20_Node000013_Node000017" class="edge">
<title>Node17&#45;&gt;Node13</title>
<g id="a_edge20_Node000013_Node000017"><a xlink:title=" ">
<path fill="none" stroke="#63b8ff" d="M222.7,-459.99C225.58,-458.62 228.37,-457.13 231,-455.5 250.51,-443.43 247.83,-431.1 267,-418.5 273.52,-414.21 281.09,-410.65 288.42,-407.78"/>
<polygon fill="#63b8ff" stroke="#63b8ff" points="221.17,-456.83 213.31,-463.94 223.88,-463.29 221.17,-456.83"/>
</a>
</g>
</g>
<!-- Node17&#45;&gt;Node18 -->
<g id="edge25_Node000018_Node000017" class="edge">
<title>Node17&#45;&gt;Node18</title>
<g id="a_edge25_Node000018_Node000017"><a xlink:title=" ">
<path fill="none" stroke="#63b8ff" d="M221.77,-461.44C244.8,-455.56 271.7,-448.7 291.45,-443.66"/>
<polygon fill="#63b8ff" stroke="#63b8ff" points="220.67,-458.11 211.84,-463.97 222.4,-464.89 220.67,-458.11"/>
</a>
</g>
</g>
<!-- Node18&#45;&gt;Node7 -->
<g id="edge22_Node000007_Node000018" class="edge">
<title>Node18&#45;&gt;Node7</title>
<g id="a_edge22_Node000007_Node000018"><a xlink:title=" ">
<path fill="none" stroke="#63b8ff" d="M358.86,-423.41C363.98,-421.49 369.14,-419.49 374,-417.5 398.04,-407.65 425.23,-394.88 442.25,-386.69"/>
<polygon fill="#63b8ff" stroke="#63b8ff" points="357.36,-420.23 349.18,-426.97 359.78,-426.8 357.36,-420.23"/>
</a>
</g>
</g>
</g>
</svg>

<g id="navigator" transform="translate(0 0)" fill="#404254">
  <rect fill="#f2f5e9" fill-opacity="0.5" stroke="#606060" stroke-width=".5" x="0" y="0" width="60" height="60"/>
  <use id="zoomplus" xlink:href="#zoomPlus" x="17" y="9" onmousedown="handleZoom(evt,'in')"/>
  <use id="zoomminus" xlink:href="#zoomMin" x="42" y="9" onmousedown="handleZoom(evt,'out')"/>
  <use id="reset" xlink:href="#resetDef" x="30" y="36" onmousedown="handleReset()"/>
   <use id="arrowup" xlink:href="#arrowUp" x="0" y="0" onmousedown="handlePan(0,-1)"/>
  <use id="arrowright" xlink:href="#arrowRight" x="0" y="0" onmousedown="handlePan(1,0)"/>
  <use id="arrowdown" xlink:href="#arrowDown" x="0" y="0" onmousedown="handlePan(0,1)"/>
  <use id="arrowleft" xlink:href="#arrowLeft" x="0" y="0" onmousedown="handlePan(-1,0)"/>
</g>
<svg viewBox="0 0 15 15" width="100%" height="30px" preserveAspectRatio="xMaxYMin meet">
 <g id="arrow_out" transform="scale(0.3 0.3)">
  <a xlink:href="classSsiPrbsTx__inherit__graph_org.svg" target="_base">
   <rect id="button" ry="5" rx="5" y="6" x="6" height="38" width="38"
        fill="#f2f5e9" fill-opacity="0.5" stroke="#606060" stroke-width="1.0"/>
   <path id="arrow"
     d="M 11.500037,31.436501 C 11.940474,20.09759 22.043105,11.32322 32.158766,21.979434 L 37.068811,17.246167 C 37.068811,17.246167 37.088388,32 37.088388,32 L 22.160133,31.978069 C 22.160133,31.978069 26.997745,27.140456 26.997745,27.140456 C 18.528582,18.264221 13.291696,25.230495 11.500037,31.436501 z"
     style="fill:#404040;"/>
  </a>
 </g>
</svg>

<style type='text/css'>
<![CDATA[
[data-mouse-over-selected='false'] { opacity: 0.7; }
[data-mouse-over-selected='true']  { opacity: 1.0; }
]]>
</style>
<script type="application/ecmascript"><![CDATA[
document.addEventListener('DOMContentLoaded', (event) => {
  highlightEdges();
  highlightAdjacentNodes();
});
]]></script>
</svg>
