<?xml version="1.0" encoding="UTF-8" standalone="no"?>
<!DOCTYPE svg PUBLIC "-//W3C//DTD SVG 1.1//EN"
 "http://www.w3.org/Graphics/SVG/1.1/DTD/svg11.dtd">
<!-- Generated by graphviz version 2.43.0 (0)
 -->
<!-- Title: CoaXPressRxLaneMux Pages: 1 -->
<svg width="316pt" height="247pt"
 viewBox="0.00 0.00 316.00 247.00" xmlns="http://www.w3.org/2000/svg" xmlns:xlink="http://www.w3.org/1999/xlink">
<g id="graph0" class="graph" transform="scale(1 1) rotate(0) translate(4 243)">
<title>CoaXPressRxLaneMux</title>
<!-- Node1 -->
<g id="Node000001" class="node">
<title>Node1</title>
<g id="a_Node000001"><a xlink:title=" ">
<polygon fill="#999999" stroke="#666666" points="216,-184 91,-184 91,-165 216,-165 216,-184"/>
<text text-anchor="middle" x="153.5" y="-172" font-family="Helvetica,sans-Serif" font-size="10.00">CoaXPressRxLaneMux</text>
</a>
</g>
</g>
<!-- Node3 -->
<g id="Node000003" class="node">
<title>Node3</title>
<g id="a_Node000003"><a xlink:href="classCoaXPressRx.html" target="_top" xlink:title=" ">
<polygon fill="white" stroke="#bfbfbf" points="194,-129 113,-129 113,-110 194,-110 194,-129"/>
<text text-anchor="middle" x="153.5" y="-117" font-family="Helvetica,sans-Serif" font-size="10.00">CoaXPressRx</text>
</a>
</g>
</g>
<!-- Node1&#45;&gt;Node3 -->
<g id="edge2_Node000001_Node000003" class="edge">
<title>Node1&#45;&gt;Node3</title>
<g id="a_edge2_Node000001_Node000003"><a xlink:title=" ">
<path fill="none" stroke="#63b8ff" d="M153.5,-154.66C153.5,-145.93 153.5,-135.99 153.5,-129.09"/>
<polygon fill="#63b8ff" stroke="#63b8ff" points="150,-154.75 153.5,-164.75 157,-154.75 150,-154.75"/>
</a>
</g>
</g>
<!-- Node2 -->
<g id="Node000002" class="node">
<title>Node2</title>
<g id="a_Node000002"><a xlink:href="classAxiStreamPipeline.html" target="_top" xlink:title=" ">
<polygon fill="white" stroke="#bfbfbf" points="207,-239 100,-239 100,-220 207,-220 207,-239"/>
<text text-anchor="middle" x="153.5" y="-227" font-family="Helvetica,sans-Serif" font-size="10.00">AxiStreamPipeline</text>
</a>
</g>
</g>
<!-- Node2&#45;&gt;Node1 -->
<g id="edge1_Node000001_Node000002" class="edge">
<title>Node2&#45;&gt;Node1</title>
<g id="a_edge1_Node000001_Node000002"><a xlink:title=" ">
<path fill="none" stroke="#63b8ff" d="M153.5,-209.66C153.5,-200.93 153.5,-190.99 153.5,-184.09"/>
<polygon fill="#63b8ff" stroke="#63b8ff" points="150,-209.75 153.5,-219.75 157,-209.75 150,-209.75"/>
</a>
</g>
</g>
<!-- Node4 -->
<g id="Node000004" class="node">
<title>Node4</title>
<g id="a_Node000004"><a xlink:href="classCoaXPressCore.html" target="_top" xlink:title=" ">
<polygon fill="white" stroke="#bfbfbf" points="199,-74 108,-74 108,-55 199,-55 199,-74"/>
<text text-anchor="middle" x="153.5" y="-62" font-family="Helvetica,sans-Serif" font-size="10.00">CoaXPressCore</text>
</a>
</g>
</g>
<!-- Node3&#45;&gt;Node4 -->
<g id="edge3_Node000003_Node000004" class="edge">
<title>Node3&#45;&gt;Node4</title>
<g id="a_edge3_Node000003_Node000004"><a xlink:title=" ">
<path fill="none" stroke="#63b8ff" d="M153.5,-99.66C153.5,-90.93 153.5,-80.99 153.5,-74.09"/>
<polygon fill="#63b8ff" stroke="#63b8ff" points="150,-99.75 153.5,-109.75 157,-99.75 150,-99.75"/>
</a>
</g>
</g>
<!-- Node5 -->
<g id="Node000005" class="node">
<title>Node5</title>
<g id="a_Node000005"><a xlink:href="classCoaxpressOverFiberGthUs.html" target="_top" xlink:title=" ">
<polygon fill="white" stroke="#bfbfbf" points="145,-19 0,-19 0,0 145,0 145,-19"/>
<text text-anchor="middle" x="72.5" y="-7" font-family="Helvetica,sans-Serif" font-size="10.00">CoaxpressOverFiberGthUs</text>
</a>
</g>
</g>
<!-- Node4&#45;&gt;Node5 -->
<g id="edge4_Node000004_Node000005" class="edge">
<title>Node4&#45;&gt;Node5</title>
<g id="a_edge4_Node000004_Node000005"><a xlink:title=" ">
<path fill="none" stroke="#63b8ff" d="M131.99,-49.42C117.29,-39.81 98.28,-27.37 85.75,-19.17"/>
<polygon fill="#63b8ff" stroke="#63b8ff" points="130.2,-52.44 140.49,-54.98 134.03,-46.58 130.2,-52.44"/>
</a>
</g>
</g>
<!-- Node6 -->
<g id="Node000006" class="node">
<title>Node6</title>
<g id="a_Node000006"><a xlink:href="classCoaxpressOverFiberGtyUs.html" target="_top" xlink:title=" ">
<polygon fill="white" stroke="#bfbfbf" points="308,-19 163,-19 163,0 308,0 308,-19"/>
<text text-anchor="middle" x="235.5" y="-7" font-family="Helvetica,sans-Serif" font-size="10.00">CoaxpressOverFiberGtyUs</text>
</a>
</g>
</g>
<!-- Node4&#45;&gt;Node6 -->
<g id="edge5_Node000004_Node000006" class="edge">
<title>Node4&#45;&gt;Node6</title>
<g id="a_edge5_Node000004_Node000006"><a xlink:title=" ">
<path fill="none" stroke="#63b8ff" d="M175.28,-49.42C190.16,-39.81 209.41,-27.37 222.09,-19.17"/>
<polygon fill="#63b8ff" stroke="#63b8ff" points="173.17,-46.62 166.67,-54.98 176.97,-52.5 173.17,-46.62"/>
</a>
</g>
</g>
</g>
</svg>
