<?xml version="1.0" encoding="UTF-8" standalone="no"?>
<!DOCTYPE svg PUBLIC "-//W3C//DTD SVG 1.1//EN"
 "http://www.w3.org/Graphics/SVG/1.1/DTD/svg11.dtd">
<!-- Generated by graphviz version 2.43.0 (0)
 -->
<!-- Title: EthMacRxFifo Pages: 1 -->
<svg width="1485pt" height="656pt"
 viewBox="0.00 0.00 1485.00 656.00" xmlns="http://www.w3.org/2000/svg" xmlns:xlink="http://www.w3.org/1999/xlink">
<g id="graph0" class="graph" transform="scale(1 1) rotate(0) translate(4 652)">
<title>EthMacRxFifo</title>
<!-- Node1 -->
<g id="Node000001" class="node">
<title>Node1</title>
<g id="a_Node000001"><a xlink:title=" ">
<polygon fill="#999999" stroke="#666666" points="993,-333 910,-333 910,-314 993,-314 993,-333"/>
<text text-anchor="middle" x="951.5" y="-321" font-family="Helvetica,sans-Serif" font-size="10.00">EthMacRxFifo</text>
</a>
</g>
</g>
<!-- Node22 -->
<g id="Node000022" class="node">
<title>Node22</title>
<g id="a_Node000022"><a xlink:href="classEthMacTop.html" target="_top" xlink:title=" ">
<polygon fill="white" stroke="#bfbfbf" points="1098,-333 1029,-333 1029,-314 1098,-314 1098,-333"/>
<text text-anchor="middle" x="1063.5" y="-321" font-family="Helvetica,sans-Serif" font-size="10.00">EthMacTop</text>
</a>
</g>
</g>
<!-- Node1&#45;&gt;Node22 -->
<g id="edge34_Node000001_Node000022" class="edge">
<title>Node1&#45;&gt;Node22</title>
<g id="a_edge34_Node000001_Node000022"><a xlink:title=" ">
<path fill="none" stroke="#63b8ff" d="M1003.23,-323.5C1011.92,-323.5 1020.76,-323.5 1028.86,-323.5"/>
<polygon fill="#63b8ff" stroke="#63b8ff" points="1003.15,-320 993.15,-323.5 1003.15,-327 1003.15,-320"/>
</a>
</g>
</g>
<!-- Node2 -->
<g id="Node000002" class="node">
<title>Node2</title>
<g id="a_Node000002"><a xlink:href="classSsiFifo.html" target="_top" xlink:title=" ">
<polygon fill="white" stroke="#bfbfbf" points="874,-333 825,-333 825,-314 874,-314 874,-333"/>
<text text-anchor="middle" x="849.5" y="-321" font-family="Helvetica,sans-Serif" font-size="10.00">SsiFifo</text>
</a>
</g>
</g>
<!-- Node2&#45;&gt;Node1 -->
<g id="edge1_Node000001_Node000002" class="edge">
<title>Node2&#45;&gt;Node1</title>
<g id="a_edge1_Node000001_Node000002"><a xlink:title=" ">
<path fill="none" stroke="#63b8ff" d="M884.45,-323.5C892.58,-323.5 901.35,-323.5 909.76,-323.5"/>
<polygon fill="#63b8ff" stroke="#63b8ff" points="884.2,-320 874.2,-323.5 884.2,-327 884.2,-320"/>
</a>
</g>
</g>
<!-- Node3 -->
<g id="Node000003" class="node">
<title>Node3</title>
<g id="a_Node000003"><a xlink:href="classSsiIbFrameFilter.html" target="_top" xlink:title=" ">
<polygon fill="white" stroke="#bfbfbf" points="787.5,-371 692.5,-371 692.5,-352 787.5,-352 787.5,-371"/>
<text text-anchor="middle" x="740" y="-359" font-family="Helvetica,sans-Serif" font-size="10.00">SsiIbFrameFilter</text>
</a>
</g>
</g>
<!-- Node3&#45;&gt;Node2 -->
<g id="edge2_Node000002_Node000003" class="edge">
<title>Node3&#45;&gt;Node2</title>
<g id="a_edge2_Node000002_Node000003"><a xlink:title=" ">
<path fill="none" stroke="#63b8ff" d="M777.94,-348.44C793.41,-342.97 810.95,-336.77 824.68,-331.92"/>
<polygon fill="#63b8ff" stroke="#63b8ff" points="776.39,-345.28 768.13,-351.91 778.72,-351.88 776.39,-345.28"/>
</a>
</g>
</g>
<!-- Node4 -->
<g id="Node000004" class="node">
<title>Node4</title>
<g id="a_Node000004"><a xlink:href="classAxiStreamFifoV2.html" target="_top" xlink:title=" ">
<polygon fill="white" stroke="#bfbfbf" points="789,-258 691,-258 691,-239 789,-239 789,-258"/>
<text text-anchor="middle" x="740" y="-246" font-family="Helvetica,sans-Serif" font-size="10.00">AxiStreamFifoV2</text>
</a>
</g>
</g>
<!-- Node4&#45;&gt;Node2 -->
<g id="edge3_Node000002_Node000004" class="edge">
<title>Node4&#45;&gt;Node2</title>
<g id="a_edge3_Node000002_Node000004"><a xlink:title=" ">
<path fill="none" stroke="#63b8ff" d="M763.3,-264.06C784.83,-279.08 816.75,-301.35 834.78,-313.93"/>
<polygon fill="#63b8ff" stroke="#63b8ff" points="765.26,-261.16 755.05,-258.3 761.25,-266.9 765.26,-261.16"/>
</a>
</g>
</g>
<!-- Node5 -->
<g id="Node000005" class="node">
<title>Node5</title>
<g id="a_Node000005"><a xlink:href="classAxiStreamGearbox.html" target="_top" xlink:title=" ">
<polygon fill="white" stroke="#bfbfbf" points="655,-315 546,-315 546,-296 655,-296 655,-315"/>
<text text-anchor="middle" x="600.5" y="-303" font-family="Helvetica,sans-Serif" font-size="10.00">AxiStreamGearbox</text>
</a>
</g>
</g>
<!-- Node5&#45;&gt;Node4 -->
<g id="edge4_Node000004_Node000005" class="edge">
<title>Node5&#45;&gt;Node4</title>
<g id="a_edge4_Node000004_Node000005"><a xlink:title=" ">
<path fill="none" stroke="#63b8ff" d="M634.02,-292.02C659.2,-281.58 693.48,-267.37 715.91,-258.07"/>
<polygon fill="#63b8ff" stroke="#63b8ff" points="632.41,-288.9 624.51,-295.96 635.09,-295.36 632.41,-288.9"/>
</a>
</g>
</g>
<!-- Node6 -->
<g id="Node000006" class="node">
<title>Node6</title>
<g id="a_Node000006"><a xlink:href="classAxiStreamResize.html" target="_top" xlink:title=" ">
<polygon fill="white" stroke="#bfbfbf" points="510,-315 410,-315 410,-296 510,-296 510,-315"/>
<text text-anchor="middle" x="460" y="-303" font-family="Helvetica,sans-Serif" font-size="10.00">AxiStreamResize</text>
</a>
</g>
</g>
<!-- Node6&#45;&gt;Node5 -->
<g id="edge5_Node000005_Node000006" class="edge">
<title>Node6&#45;&gt;Node5</title>
<g id="a_edge5_Node000005_Node000006"><a xlink:title=" ">
<path fill="none" stroke="#63b8ff" d="M520.37,-305.5C528.79,-305.5 537.42,-305.5 545.74,-305.5"/>
<polygon fill="#63b8ff" stroke="#63b8ff" points="520.22,-302 510.22,-305.5 520.22,-309 520.22,-302"/>
</a>
</g>
</g>
<!-- Node7 -->
<g id="Node000007" class="node">
<title>Node7</title>
<g id="a_Node000007"><a xlink:href="classAxiStreamPipeline.html" target="_top" xlink:title=" ">
<polygon fill="white" stroke="#bfbfbf" points="374,-334 267,-334 267,-315 374,-315 374,-334"/>
<text text-anchor="middle" x="320.5" y="-322" font-family="Helvetica,sans-Serif" font-size="10.00">AxiStreamPipeline</text>
</a>
</g>
</g>
<!-- Node7&#45;&gt;Node4 -->
<g id="edge31_Node000004_Node000007" class="edge">
<title>Node7&#45;&gt;Node4</title>
<g id="a_edge31_Node000004_Node000007"><a xlink:title=" ">
<path fill="none" stroke="#63b8ff" d="M348.96,-310.25C366.07,-301.99 388.79,-292.15 410,-286.5 507.51,-260.53 625.95,-252.31 690.79,-249.71"/>
<polygon fill="#63b8ff" stroke="#63b8ff" points="347,-307.31 339.59,-314.88 350.1,-313.58 347,-307.31"/>
</a>
</g>
</g>
<!-- Node7&#45;&gt;Node5 -->
<g id="edge7_Node000005_Node000007" class="edge">
<title>Node7&#45;&gt;Node5</title>
<g id="a_edge7_Node000005_Node000007"><a xlink:title=" ">
<path fill="none" stroke="#63b8ff" d="M384.14,-327.77C420.9,-328.87 468.2,-328.89 510,-324.5 527.69,-322.64 547.04,-318.77 563.2,-315.01"/>
<polygon fill="#63b8ff" stroke="#63b8ff" points="384.17,-324.27 374.06,-327.43 383.94,-331.26 384.17,-324.27"/>
</a>
</g>
</g>
<!-- Node7&#45;&gt;Node6 -->
<g id="edge6_Node000006_Node000007" class="edge">
<title>Node7&#45;&gt;Node6</title>
<g id="a_edge6_Node000006_Node000007"><a xlink:title=" ">
<path fill="none" stroke="#63b8ff" d="M384.23,-315.83C392.79,-314.65 401.48,-313.45 409.76,-312.3"/>
<polygon fill="#63b8ff" stroke="#63b8ff" points="383.69,-312.37 374.27,-317.21 384.65,-319.31 383.69,-312.37"/>
</a>
</g>
</g>
<!-- Node21 -->
<g id="Node000021" class="node">
<title>Node21</title>
<g id="a_Node000021"><a xlink:href="classSsiObFrameFilter.html" target="_top" xlink:title=" ">
<polygon fill="white" stroke="#bfbfbf" points="650.5,-371 550.5,-371 550.5,-352 650.5,-352 650.5,-371"/>
<text text-anchor="middle" x="600.5" y="-359" font-family="Helvetica,sans-Serif" font-size="10.00">SsiObFrameFilter</text>
</a>
</g>
</g>
<!-- Node7&#45;&gt;Node21 -->
<g id="edge33_Node000021_Node000007" class="edge">
<title>Node7&#45;&gt;Node21</title>
<g id="a_edge33_Node000021_Node000007"><a xlink:title=" ">
<path fill="none" stroke="#63b8ff" d="M384.33,-335.57C392.95,-336.96 401.68,-338.31 410,-339.5 457.54,-346.28 512.02,-352.44 550.33,-356.5"/>
<polygon fill="#63b8ff" stroke="#63b8ff" points="384.75,-332.09 374.31,-333.92 383.61,-338.99 384.75,-332.09"/>
</a>
</g>
</g>
<!-- Node8 -->
<g id="Node000008" class="node">
<title>Node8</title>
<g id="a_Node000008"><a xlink:href="classFifoCascade.html" target="_top" xlink:title=" ">
<polygon fill="white" stroke="#bfbfbf" points="638.5,-182 562.5,-182 562.5,-163 638.5,-163 638.5,-182"/>
<text text-anchor="middle" x="600.5" y="-170" font-family="Helvetica,sans-Serif" font-size="10.00">FifoCascade</text>
</a>
</g>
</g>
<!-- Node8&#45;&gt;Node4 -->
<g id="edge8_Node000004_Node000008" class="edge">
<title>Node8&#45;&gt;Node4</title>
<g id="a_edge8_Node000004_Node000008"><a xlink:title=" ">
<path fill="none" stroke="#63b8ff" d="M628.01,-187.15C655.65,-202.43 698.14,-225.92 721.73,-238.95"/>
<polygon fill="#63b8ff" stroke="#63b8ff" points="629.36,-183.9 618.91,-182.13 625.97,-190.03 629.36,-183.9"/>
</a>
</g>
</g>
<!-- Node9 -->
<g id="Node000009" class="node">
<title>Node9</title>
<g id="a_Node000009"><a xlink:href="classFifo.html" target="_top" xlink:title=" ">
<polygon fill="white" stroke="#bfbfbf" points="477.5,-164 442.5,-164 442.5,-145 477.5,-145 477.5,-164"/>
<text text-anchor="middle" x="460" y="-152" font-family="Helvetica,sans-Serif" font-size="10.00">Fifo</text>
</a>
</g>
</g>
<!-- Node9&#45;&gt;Node8 -->
<g id="edge9_Node000008_Node000009" class="edge">
<title>Node9&#45;&gt;Node8</title>
<g id="a_edge9_Node000008_Node000009"><a xlink:title=" ">
<path fill="none" stroke="#63b8ff" d="M487.65,-157.96C508.88,-160.72 538.86,-164.62 562.43,-167.68"/>
<polygon fill="#63b8ff" stroke="#63b8ff" points="488.07,-154.49 477.71,-156.67 487.17,-161.43 488.07,-154.49"/>
</a>
</g>
</g>
<!-- Node10 -->
<g id="Node000010" class="node">
<title>Node10</title>
<g id="a_Node000010"><a xlink:href="classFifoXpm.html" target="_top" xlink:title=" ">
<polygon fill="white" stroke="#bfbfbf" points="349,-127 292,-127 292,-108 349,-108 349,-127"/>
<text text-anchor="middle" x="320.5" y="-115" font-family="Helvetica,sans-Serif" font-size="10.00">FifoXpm</text>
</a>
</g>
</g>
<!-- Node10&#45;&gt;Node9 -->
<g id="edge10_Node000009_Node000010" class="edge">
<title>Node10&#45;&gt;Node9</title>
<g id="a_edge10_Node000009_Node000010"><a xlink:title=" ">
<path fill="none" stroke="#63b8ff" d="M359.32,-127.68C386.56,-135.01 421.99,-144.54 442.44,-150.04"/>
<polygon fill="#63b8ff" stroke="#63b8ff" points="359.89,-124.21 349.33,-124.99 358.07,-130.97 359.89,-124.21"/>
</a>
</g>
</g>
<!-- Node11 -->
<g id="Node000011" class="node">
<title>Node11</title>
<g id="a_Node000011"><a xlink:href="classRstSync.html" target="_top" xlink:title=" ">
<polygon fill="white" stroke="#bfbfbf" points="201.5,-127 145.5,-127 145.5,-108 201.5,-108 201.5,-127"/>
<text text-anchor="middle" x="173.5" y="-115" font-family="Helvetica,sans-Serif" font-size="10.00">RstSync</text>
</a>
</g>
</g>
<!-- Node11&#45;&gt;Node10 -->
<g id="edge11_Node000010_Node000011" class="edge">
<title>Node11&#45;&gt;Node10</title>
<g id="a_edge11_Node000010_Node000011"><a xlink:title=" ">
<path fill="none" stroke="#63b8ff" d="M211.98,-117.5C236.95,-117.5 269.21,-117.5 291.86,-117.5"/>
<polygon fill="#63b8ff" stroke="#63b8ff" points="211.77,-114 201.77,-117.5 211.77,-121 211.77,-114"/>
</a>
</g>
</g>
<!-- Node15 -->
<g id="Node000015" class="node">
<title>Node15</title>
<g id="a_Node000015"><a xlink:href="classFifoAsync.html" target="_top" xlink:title=" ">
<polygon fill="white" stroke="#bfbfbf" points="352.5,-201 288.5,-201 288.5,-182 352.5,-182 352.5,-201"/>
<text text-anchor="middle" x="320.5" y="-189" font-family="Helvetica,sans-Serif" font-size="10.00">FifoAsync</text>
</a>
</g>
</g>
<!-- Node11&#45;&gt;Node15 -->
<g id="edge17_Node000015_Node000011" class="edge">
<title>Node11&#45;&gt;Node15</title>
<g id="a_edge17_Node000015_Node000011"><a xlink:title=" ">
<path fill="none" stroke="#63b8ff" d="M211.37,-126.35C218.16,-128.78 225,-131.79 231,-135.5 250.51,-147.57 247.72,-160.06 267,-172.5 273.52,-176.71 281.09,-180.14 288.41,-182.87"/>
<polygon fill="#63b8ff" stroke="#63b8ff" points="212.13,-122.92 201.54,-123.21 210,-129.59 212.13,-122.92"/>
</a>
</g>
</g>
<!-- Node12 -->
<g id="Node000012" class="node">
<title>Node12</title>
<g id="a_Node000012"><a xlink:href="classSynchronizer.html" target="_top" xlink:title=" ">
<polygon fill="white" stroke="#bfbfbf" points="80,-127 0,-127 0,-108 80,-108 80,-127"/>
<text text-anchor="middle" x="40" y="-115" font-family="Helvetica,sans-Serif" font-size="10.00">Synchronizer</text>
</a>
</g>
</g>
<!-- Node12&#45;&gt;Node4 -->
<g id="edge30_Node000004_Node000012" class="edge">
<title>Node12&#45;&gt;Node4</title>
<g id="a_edge30_Node000004_Node000012"><a xlink:title=" ">
<path fill="none" stroke="#63b8ff" d="M57.57,-100.83C71.76,-87.69 93.43,-70.18 116,-61.5 200.78,-28.89 228.66,-42.5 319.5,-42.5 319.5,-42.5 319.5,-42.5 461,-42.5 594.66,-42.5 705.98,-198.11 732.83,-238.84"/>
<polygon fill="#63b8ff" stroke="#63b8ff" points="54.92,-98.52 50.13,-107.96 59.77,-103.57 54.92,-98.52"/>
</a>
</g>
</g>
<!-- Node12&#45;&gt;Node11 -->
<g id="edge12_Node000011_Node000012" class="edge">
<title>Node12&#45;&gt;Node11</title>
<g id="a_edge12_Node000011_Node000012"><a xlink:title=" ">
<path fill="none" stroke="#63b8ff" d="M90.24,-117.5C108.93,-117.5 129.52,-117.5 145.43,-117.5"/>
<polygon fill="#63b8ff" stroke="#63b8ff" points="90.1,-114 80.1,-117.5 90.1,-121 90.1,-114"/>
</a>
</g>
</g>
<!-- Node12&#45;&gt;Node15 -->
<g id="edge19_Node000015_Node000012" class="edge">
<title>Node12&#45;&gt;Node15</title>
<g id="a_edge19_Node000015_Node000012"><a xlink:title=" ">
<path fill="none" stroke="#63b8ff" d="M45.73,-136.99C54.13,-166.81 74.8,-222.8 116,-246.5 160.3,-271.99 183.08,-264.29 231,-246.5 250.79,-239.15 249.22,-226.89 267,-215.5 275.69,-209.93 285.89,-204.96 294.97,-201"/>
<polygon fill="#63b8ff" stroke="#63b8ff" points="49.11,-136.07 43.17,-127.3 42.34,-137.86 49.11,-136.07"/>
</a>
</g>
</g>
<!-- Node13 -->
<g id="Node000013" class="node">
<title>Node13</title>
<g id="a_Node000013"><a xlink:href="classFifoOutputPipeline.html" target="_top" xlink:title=" ">
<polygon fill="white" stroke="#bfbfbf" points="227,-90 120,-90 120,-71 227,-71 227,-90"/>
<text text-anchor="middle" x="173.5" y="-78" font-family="Helvetica,sans-Serif" font-size="10.00">FifoOutputPipeline</text>
</a>
</g>
</g>
<!-- Node13&#45;&gt;Node10 -->
<g id="edge13_Node000010_Node000013" class="edge">
<title>Node13&#45;&gt;Node10</title>
<g id="a_edge13_Node000010_Node000013"><a xlink:title=" ">
<path fill="none" stroke="#63b8ff" d="M221.84,-92.58C245.03,-98.5 272.14,-105.41 291.9,-110.46"/>
<polygon fill="#63b8ff" stroke="#63b8ff" points="222.4,-89.11 211.84,-90.03 220.67,-95.89 222.4,-89.11"/>
</a>
</g>
</g>
<!-- Node14 -->
<g id="Node000014" class="node">
<title>Node14</title>
<g id="a_Node000014"><a xlink:href="classFifoAlteraMf.html" target="_top" xlink:title=" ">
<polygon fill="white" stroke="#bfbfbf" points="359,-90 282,-90 282,-71 359,-71 359,-90"/>
<text text-anchor="middle" x="320.5" y="-78" font-family="Helvetica,sans-Serif" font-size="10.00">FifoAlteraMf</text>
</a>
</g>
</g>
<!-- Node13&#45;&gt;Node14 -->
<g id="edge15_Node000014_Node000013" class="edge">
<title>Node13&#45;&gt;Node14</title>
<g id="a_edge15_Node000014_Node000013"><a xlink:title=" ">
<path fill="none" stroke="#63b8ff" d="M237.62,-80.5C252.75,-80.5 268.45,-80.5 281.99,-80.5"/>
<polygon fill="#63b8ff" stroke="#63b8ff" points="237.26,-77 227.26,-80.5 237.26,-84 237.26,-77"/>
</a>
</g>
</g>
<!-- Node13&#45;&gt;Node15 -->
<g id="edge23_Node000015_Node000013" class="edge">
<title>Node13&#45;&gt;Node15</title>
<g id="a_edge23_Node000015_Node000013"><a xlink:title=" ">
<path fill="none" stroke="#63b8ff" d="M226.28,-94.9C227.93,-96.02 229.51,-97.21 231,-98.5 258.66,-122.43 239.81,-148.04 267,-172.5 273.05,-177.95 280.79,-181.86 288.45,-184.67"/>
<polygon fill="#63b8ff" stroke="#63b8ff" points="227.97,-91.84 217.53,-90.03 224.56,-97.96 227.97,-91.84"/>
</a>
</g>
</g>
<!-- Node20 -->
<g id="Node000020" class="node">
<title>Node20</title>
<g id="a_Node000020"><a xlink:href="classFifoSync.html" target="_top" xlink:title=" ">
<polygon fill="white" stroke="#bfbfbf" points="349.5,-164 291.5,-164 291.5,-145 349.5,-145 349.5,-164"/>
<text text-anchor="middle" x="320.5" y="-152" font-family="Helvetica,sans-Serif" font-size="10.00">FifoSync</text>
</a>
</g>
</g>
<!-- Node13&#45;&gt;Node20 -->
<g id="edge28_Node000020_Node000013" class="edge">
<title>Node13&#45;&gt;Node20</title>
<g id="a_edge28_Node000020_Node000013"><a xlink:title=" ">
<path fill="none" stroke="#63b8ff" d="M222.7,-94.01C225.58,-95.38 228.37,-96.87 231,-98.5 250.51,-110.57 247.72,-123.06 267,-135.5 274.41,-140.28 283.19,-144.07 291.42,-146.96"/>
<polygon fill="#63b8ff" stroke="#63b8ff" points="223.88,-90.71 213.31,-90.06 221.17,-97.17 223.88,-90.71"/>
</a>
</g>
</g>
<!-- Node14&#45;&gt;Node9 -->
<g id="edge14_Node000009_Node000014" class="edge">
<title>Node14&#45;&gt;Node9</title>
<g id="a_edge14_Node000009_Node000014"><a xlink:title=" ">
<path fill="none" stroke="#63b8ff" d="M363.04,-93.64C366.79,-95.16 370.5,-96.78 374,-98.5 401.44,-111.97 430.61,-132.81 446.64,-144.91"/>
<polygon fill="#63b8ff" stroke="#63b8ff" points="364.26,-90.36 353.67,-90.09 361.78,-96.91 364.26,-90.36"/>
</a>
</g>
</g>
<!-- Node15&#45;&gt;Node9 -->
<g id="edge16_Node000009_Node000015" class="edge">
<title>Node15&#45;&gt;Node9</title>
<g id="a_edge16_Node000009_Node000015"><a xlink:title=" ">
<path fill="none" stroke="#63b8ff" d="M362.54,-180.46C389.16,-173.29 422.44,-164.34 442.14,-159.04"/>
<polygon fill="#63b8ff" stroke="#63b8ff" points="361.45,-177.13 352.7,-183.1 363.27,-183.89 361.45,-177.13"/>
</a>
</g>
</g>
<!-- Node16 -->
<g id="Node000016" class="node">
<title>Node16</title>
<g id="a_Node000016"><a xlink:href="classSynchronizerVector.html" target="_top" xlink:title=" ">
<polygon fill="white" stroke="#bfbfbf" points="228.5,-314 118.5,-314 118.5,-295 228.5,-295 228.5,-314"/>
<text text-anchor="middle" x="173.5" y="-302" font-family="Helvetica,sans-Serif" font-size="10.00">SynchronizerVector</text>
</a>
</g>
</g>
<!-- Node16&#45;&gt;Node4 -->
<g id="edge29_Node000004_Node000016" class="edge">
<title>Node16&#45;&gt;Node4</title>
<g id="a_edge29_Node000004_Node000016"><a xlink:title=" ">
<path fill="none" stroke="#63b8ff" d="M229.32,-292.91C301.5,-278.41 432.56,-254.74 546,-248.5 595.35,-245.79 651.9,-246.2 690.97,-247.04"/>
<polygon fill="#63b8ff" stroke="#63b8ff" points="228.21,-289.56 219.11,-294.98 229.6,-296.42 228.21,-289.56"/>
</a>
</g>
</g>
<!-- Node16&#45;&gt;Node15 -->
<g id="edge18_Node000015_Node000016" class="edge">
<title>Node16&#45;&gt;Node15</title>
<g id="a_edge18_Node000015_Node000016"><a xlink:title=" ">
<path fill="none" stroke="#63b8ff" d="M216.22,-290.62C221.54,-287.78 226.64,-284.43 231,-280.5 255.53,-258.4 242.77,-237.94 267,-215.5 273.55,-209.44 281.88,-204.69 289.98,-201.08"/>
<polygon fill="#63b8ff" stroke="#63b8ff" points="214.68,-287.47 207.15,-294.92 217.68,-293.8 214.68,-287.47"/>
</a>
</g>
</g>
<!-- Node17 -->
<g id="Node000017" class="node">
<title>Node17</title>
<g id="a_Node000017"><a xlink:href="classFifoWrFsm.html" target="_top" xlink:title=" ">
<polygon fill="white" stroke="#bfbfbf" points="208,-238 139,-238 139,-219 208,-219 208,-238"/>
<text text-anchor="middle" x="173.5" y="-226" font-family="Helvetica,sans-Serif" font-size="10.00">FifoWrFsm</text>
</a>
</g>
</g>
<!-- Node17&#45;&gt;Node15 -->
<g id="edge20_Node000015_Node000017" class="edge">
<title>Node17&#45;&gt;Node15</title>
<g id="a_edge20_Node000015_Node000017"><a xlink:title=" ">
<path fill="none" stroke="#63b8ff" d="M218.12,-217.37C240.63,-211.62 267.58,-204.75 288.04,-199.53"/>
<polygon fill="#63b8ff" stroke="#63b8ff" points="216.95,-214.05 208.13,-219.92 218.69,-220.84 216.95,-214.05"/>
</a>
</g>
</g>
<!-- Node17&#45;&gt;Node20 -->
<g id="edge25_Node000020_Node000017" class="edge">
<title>Node17&#45;&gt;Node20</title>
<g id="a_edge25_Node000020_Node000017"><a xlink:title=" ">
<path fill="none" stroke="#63b8ff" d="M217.78,-216.35C222.39,-214.36 226.89,-212.09 231,-209.5 250.42,-197.28 247.62,-184.78 267,-172.5 274.41,-167.81 283.18,-164.18 291.42,-161.45"/>
<polygon fill="#63b8ff" stroke="#63b8ff" points="216.31,-213.17 208.26,-220.06 218.85,-219.7 216.31,-213.17"/>
</a>
</g>
</g>
<!-- Node18 -->
<g id="Node000018" class="node">
<title>Node18</title>
<g id="a_Node000018"><a xlink:href="classFifoRdFsm.html" target="_top" xlink:title=" ">
<polygon fill="white" stroke="#bfbfbf" points="207.5,-201 139.5,-201 139.5,-182 207.5,-182 207.5,-201"/>
<text text-anchor="middle" x="173.5" y="-189" font-family="Helvetica,sans-Serif" font-size="10.00">FifoRdFsm</text>
</a>
</g>
</g>
<!-- Node18&#45;&gt;Node15 -->
<g id="edge21_Node000015_Node000018" class="edge">
<title>Node18&#45;&gt;Node15</title>
<g id="a_edge21_Node000015_Node000018"><a xlink:title=" ">
<path fill="none" stroke="#63b8ff" d="M217.83,-191.5C240.52,-191.5 267.79,-191.5 288.37,-191.5"/>
<polygon fill="#63b8ff" stroke="#63b8ff" points="217.77,-188 207.77,-191.5 217.77,-195 217.77,-188"/>
</a>
</g>
</g>
<!-- Node18&#45;&gt;Node20 -->
<g id="edge26_Node000020_Node000018" class="edge">
<title>Node18&#45;&gt;Node20</title>
<g id="a_edge26_Node000020_Node000018"><a xlink:title=" ">
<path fill="none" stroke="#63b8ff" d="M217.62,-180.5C241.44,-174.42 270.34,-167.04 291.27,-161.7"/>
<polygon fill="#63b8ff" stroke="#63b8ff" points="216.59,-177.15 207.77,-183.01 218.32,-183.93 216.59,-177.15"/>
</a>
</g>
</g>
<!-- Node19 -->
<g id="Node000019" class="node">
<title>Node19</title>
<g id="a_Node000019"><a xlink:href="classSimpleDualPortRam.html" target="_top" xlink:title=" ">
<polygon fill="white" stroke="#bfbfbf" points="231,-164 116,-164 116,-145 231,-145 231,-164"/>
<text text-anchor="middle" x="173.5" y="-152" font-family="Helvetica,sans-Serif" font-size="10.00">SimpleDualPortRam</text>
</a>
</g>
</g>
<!-- Node19&#45;&gt;Node15 -->
<g id="edge22_Node000015_Node000019" class="edge">
<title>Node19&#45;&gt;Node15</title>
<g id="a_edge22_Node000015_Node000019"><a xlink:title=" ">
<path fill="none" stroke="#63b8ff" d="M221.58,-166.51C243.4,-172.08 268.74,-178.55 288.17,-183.51"/>
<polygon fill="#63b8ff" stroke="#63b8ff" points="222.4,-163.11 211.84,-164.03 220.67,-169.89 222.4,-163.11"/>
</a>
</g>
</g>
<!-- Node19&#45;&gt;Node20 -->
<g id="edge27_Node000020_Node000019" class="edge">
<title>Node19&#45;&gt;Node20</title>
<g id="a_edge27_Node000020_Node000019"><a xlink:title=" ">
<path fill="none" stroke="#63b8ff" d="M241.66,-154.5C259.23,-154.5 277.22,-154.5 291.47,-154.5"/>
<polygon fill="#63b8ff" stroke="#63b8ff" points="241.39,-151 231.39,-154.5 241.39,-158 241.39,-151"/>
</a>
</g>
</g>
<!-- Node20&#45;&gt;Node9 -->
<g id="edge24_Node000009_Node000020" class="edge">
<title>Node20&#45;&gt;Node9</title>
<g id="a_edge24_Node000009_Node000020"><a xlink:title=" ">
<path fill="none" stroke="#63b8ff" d="M359.95,-154.5C386.97,-154.5 421.79,-154.5 442.13,-154.5"/>
<polygon fill="#63b8ff" stroke="#63b8ff" points="359.66,-151 349.66,-154.5 359.66,-158 359.66,-151"/>
</a>
</g>
</g>
<!-- Node21&#45;&gt;Node2 -->
<g id="edge32_Node000002_Node000021" class="edge">
<title>Node21&#45;&gt;Node2</title>
<g id="a_edge32_Node000002_Node000021"><a xlink:title=" ">
<path fill="none" stroke="#63b8ff" d="M655.59,-349.97C667.24,-347.67 679.51,-345.38 691,-343.5 738.33,-335.75 794.08,-329.29 824.94,-325.95"/>
<polygon fill="#63b8ff" stroke="#63b8ff" points="654.66,-346.59 645.54,-351.99 656.03,-353.45 654.66,-346.59"/>
</a>
</g>
</g>
<!-- Node23 -->
<g id="Node000023" class="node">
<title>Node23</title>
<g id="a_Node000023"><a xlink:href="classEthMacFastTb.html" target="_top" xlink:title=" ">
<polygon fill="white" stroke="#bfbfbf" points="1242.5,-648 1158.5,-648 1158.5,-629 1242.5,-629 1242.5,-648"/>
<text text-anchor="middle" x="1200.5" y="-636" font-family="Helvetica,sans-Serif" font-size="10.00">EthMacFastTb</text>
</a>
</g>
</g>
<!-- Node22&#45;&gt;Node23 -->
<g id="edge35_Node000022_Node000023" class="edge">
<title>Node22&#45;&gt;Node23</title>
<g id="a_edge35_Node000022_Node000023"><a xlink:title=" ">
<path fill="none" stroke="#63b8ff" d="M1066.48,-342.95C1072.89,-402.39 1095.02,-579.99 1134,-620.5 1140.54,-627.3 1149.39,-631.6 1158.47,-634.31"/>
<polygon fill="#63b8ff" stroke="#63b8ff" points="1069.96,-342.58 1065.43,-333 1062.99,-343.31 1069.96,-342.58"/>
</a>
</g>
</g>
<!-- Node24 -->
<g id="Node000024" class="node">
<title>Node24</title>
<g id="a_Node000024"><a xlink:href="classEthMacPauseTb.html" target="_top" xlink:title=" ">
<polygon fill="white" stroke="#bfbfbf" points="1247,-611 1154,-611 1154,-592 1247,-592 1247,-611"/>
<text text-anchor="middle" x="1200.5" y="-599" font-family="Helvetica,sans-Serif" font-size="10.00">EthMacPauseTb</text>
</a>
</g>
</g>
<!-- Node22&#45;&gt;Node24 -->
<g id="edge36_Node000022_Node000024" class="edge">
<title>Node22&#45;&gt;Node24</title>
<g id="a_edge36_Node000022_Node000024"><a xlink:title=" ">
<path fill="none" stroke="#63b8ff" d="M1063.62,-343.18C1062.6,-391.32 1066.95,-515.97 1134,-583.5 1139.48,-589.02 1146.49,-592.89 1153.88,-595.6"/>
<polygon fill="#63b8ff" stroke="#63b8ff" points="1067.12,-343.26 1063.94,-333.15 1060.12,-343.03 1067.12,-343.26"/>
</a>
</g>
</g>
<!-- Node25 -->
<g id="Node000025" class="node">
<title>Node25</title>
<g id="a_Node000025"><a xlink:href="classEthMacTb.html" target="_top" xlink:title=" ">
<polygon fill="white" stroke="#bfbfbf" points="1233,-574 1168,-574 1168,-555 1233,-555 1233,-574"/>
<text text-anchor="middle" x="1200.5" y="-562" font-family="Helvetica,sans-Serif" font-size="10.00">EthMacTb</text>
</a>
</g>
</g>
<!-- Node22&#45;&gt;Node25 -->
<g id="edge37_Node000022_Node000025" class="edge">
<title>Node22&#45;&gt;Node25</title>
<g id="a_edge37_Node000022_Node000025"><a xlink:title=" ">
<path fill="none" stroke="#63b8ff" d="M1064.67,-343.27C1066.15,-386.57 1075.92,-490.36 1134,-546.5 1143.07,-555.27 1156,-559.85 1167.98,-562.22"/>
<polygon fill="#63b8ff" stroke="#63b8ff" points="1068.17,-343.11 1064.44,-333.19 1061.17,-343.27 1068.17,-343.11"/>
</a>
</g>
</g>
<!-- Node26 -->
<g id="Node000026" class="node">
<title>Node26</title>
<g id="a_Node000026"><a xlink:href="classGigEthGth7.html" target="_top" xlink:title=" ">
<polygon fill="white" stroke="#bfbfbf" points="1236.5,-537 1164.5,-537 1164.5,-518 1236.5,-518 1236.5,-537"/>
<text text-anchor="middle" x="1200.5" y="-525" font-family="Helvetica,sans-Serif" font-size="10.00">GigEthGth7</text>
</a>
</g>
</g>
<!-- Node22&#45;&gt;Node26 -->
<g id="edge38_Node000022_Node000026" class="edge">
<title>Node22&#45;&gt;Node26</title>
<g id="a_edge38_Node000022_Node000026"><a xlink:title=" ">
<path fill="none" stroke="#63b8ff" d="M1066.13,-343.57C1070.33,-381.66 1084.89,-464.6 1134,-509.5 1142.27,-517.06 1153.42,-521.49 1164.18,-524.07"/>
<polygon fill="#63b8ff" stroke="#63b8ff" points="1069.58,-342.9 1065.14,-333.29 1062.62,-343.58 1069.58,-342.9"/>
</a>
</g>
</g>
<!-- Node28 -->
<g id="Node000028" class="node">
<title>Node28</title>
<g id="a_Node000028"><a xlink:href="classGigEthGthUltraScale.html" target="_top" xlink:title=" ">
<polygon fill="white" stroke="#bfbfbf" points="1258.5,-500 1142.5,-500 1142.5,-481 1258.5,-481 1258.5,-500"/>
<text text-anchor="middle" x="1200.5" y="-488" font-family="Helvetica,sans-Serif" font-size="10.00">GigEthGthUltraScale</text>
</a>
</g>
</g>
<!-- Node22&#45;&gt;Node28 -->
<g id="edge40_Node000022_Node000028" class="edge">
<title>Node22&#45;&gt;Node28</title>
<g id="a_edge40_Node000022_Node000028"><a xlink:title=" ">
<path fill="none" stroke="#63b8ff" d="M1068.14,-343.11C1075.12,-375.07 1093.42,-438.23 1134,-472.5 1138.05,-475.92 1142.71,-478.7 1147.62,-480.95"/>
<polygon fill="#63b8ff" stroke="#63b8ff" points="1071.55,-342.31 1066.13,-333.21 1064.69,-343.71 1071.55,-342.31"/>
</a>
</g>
</g>
<!-- Node30 -->
<g id="Node000030" class="node">
<title>Node30</title>
<g id="a_Node000030"><a xlink:href="classGigEthGtp7.html" target="_top" xlink:title=" ">
<polygon fill="white" stroke="#bfbfbf" points="1236.5,-463 1164.5,-463 1164.5,-444 1236.5,-444 1236.5,-463"/>
<text text-anchor="middle" x="1200.5" y="-451" font-family="Helvetica,sans-Serif" font-size="10.00">GigEthGtp7</text>
</a>
</g>
</g>
<!-- Node22&#45;&gt;Node30 -->
<g id="edge42_Node000022_Node000030" class="edge">
<title>Node22&#45;&gt;Node30</title>
<g id="a_edge42_Node000022_Node000030"><a xlink:title=" ">
<path fill="none" stroke="#63b8ff" d="M1071.34,-342.84C1081.22,-367.99 1101.92,-411.53 1134,-435.5 1142.79,-442.07 1153.83,-446.24 1164.34,-448.89"/>
<polygon fill="#63b8ff" stroke="#63b8ff" points="1074.55,-341.44 1067.76,-333.3 1067.99,-343.89 1074.55,-341.44"/>
</a>
</g>
</g>
<!-- Node32 -->
<g id="Node000032" class="node">
<title>Node32</title>
<g id="a_Node000032"><a xlink:href="classGigEthGtx7.html" target="_top" xlink:title=" ">
<polygon fill="white" stroke="#bfbfbf" points="1236.5,-426 1164.5,-426 1164.5,-407 1236.5,-407 1236.5,-426"/>
<text text-anchor="middle" x="1200.5" y="-414" font-family="Helvetica,sans-Serif" font-size="10.00">GigEthGtx7</text>
</a>
</g>
</g>
<!-- Node22&#45;&gt;Node32 -->
<g id="edge44_Node000022_Node000032" class="edge">
<title>Node22&#45;&gt;Node32</title>
<g id="a_edge44_Node000022_Node000032"><a xlink:title=" ">
<path fill="none" stroke="#63b8ff" d="M1076.77,-341.73C1089.23,-358.85 1110.06,-383.96 1134,-398.5 1143.17,-404.07 1154.1,-407.96 1164.38,-410.65"/>
<polygon fill="#63b8ff" stroke="#63b8ff" points="1079.36,-339.32 1070.74,-333.15 1073.63,-343.35 1079.36,-339.32"/>
</a>
</g>
</g>
<!-- Node34 -->
<g id="Node000034" class="node">
<title>Node34</title>
<g id="a_Node000034"><a xlink:href="classGigEthGtyUltraScale.html" target="_top" xlink:title=" ">
<polygon fill="white" stroke="#bfbfbf" points="1258.5,-389 1142.5,-389 1142.5,-370 1258.5,-370 1258.5,-389"/>
<text text-anchor="middle" x="1200.5" y="-377" font-family="Helvetica,sans-Serif" font-size="10.00">GigEthGtyUltraScale</text>
</a>
</g>
</g>
<!-- Node22&#45;&gt;Node34 -->
<g id="edge46_Node000022_Node000034" class="edge">
<title>Node22&#45;&gt;Node34</title>
<g id="a_edge46_Node000022_Node000034"><a xlink:title=" ">
<path fill="none" stroke="#63b8ff" d="M1088.29,-338.31C1101.41,-346 1118.2,-355.11 1134,-361.5 1141.87,-364.68 1150.5,-367.5 1158.83,-369.9"/>
<polygon fill="#63b8ff" stroke="#63b8ff" points="1089.83,-335.15 1079.46,-333.01 1086.24,-341.15 1089.83,-335.15"/>
</a>
</g>
</g>
<!-- Node36 -->
<g id="Node000036" class="node">
<title>Node36</title>
<g id="a_Node000036"><a xlink:href="classGigEthLvdsUltraScale.html" target="_top" xlink:title=" ">
<polygon fill="white" stroke="#bfbfbf" points="1261.5,-352 1139.5,-352 1139.5,-333 1261.5,-333 1261.5,-352"/>
<text text-anchor="middle" x="1200.5" y="-340" font-family="Helvetica,sans-Serif" font-size="10.00">GigEthLvdsUltraScale</text>
</a>
</g>
</g>
<!-- Node22&#45;&gt;Node36 -->
<g id="edge48_Node000022_Node000036" class="edge">
<title>Node22&#45;&gt;Node36</title>
<g id="a_edge48_Node000022_Node000036"><a xlink:title=" ">
<path fill="none" stroke="#63b8ff" d="M1108.25,-329.66C1118.2,-331.06 1128.93,-332.57 1139.43,-334.05"/>
<polygon fill="#63b8ff" stroke="#63b8ff" points="1108.61,-326.17 1098.22,-328.25 1107.63,-333.11 1108.61,-326.17"/>
</a>
</g>
</g>
<!-- Node39 -->
<g id="Node000039" class="node">
<title>Node39</title>
<g id="a_Node000039"><a xlink:href="classTenGigEthGth7.html" target="_top" xlink:title=" ">
<polygon fill="white" stroke="#bfbfbf" points="1245,-315 1156,-315 1156,-296 1245,-296 1245,-315"/>
<text text-anchor="middle" x="1200.5" y="-303" font-family="Helvetica,sans-Serif" font-size="10.00">TenGigEthGth7</text>
</a>
</g>
</g>
<!-- Node22&#45;&gt;Node39 -->
<g id="edge51_Node000022_Node000039" class="edge">
<title>Node22&#45;&gt;Node39</title>
<g id="a_edge51_Node000022_Node000039"><a xlink:title=" ">
<path fill="none" stroke="#63b8ff" d="M1108.4,-317.65C1123.58,-315.62 1140.59,-313.35 1155.77,-311.33"/>
<polygon fill="#63b8ff" stroke="#63b8ff" points="1107.67,-314.21 1098.22,-319 1108.59,-321.15 1107.67,-314.21"/>
</a>
</g>
</g>
<!-- Node41 -->
<g id="Node000041" class="node">
<title>Node41</title>
<g id="a_Node000041"><a xlink:href="classTenGigEthGthUltraScale.html" target="_top" xlink:title=" ">
<polygon fill="white" stroke="#bfbfbf" points="1267,-278 1134,-278 1134,-259 1267,-259 1267,-278"/>
<text text-anchor="middle" x="1200.5" y="-266" font-family="Helvetica,sans-Serif" font-size="10.00">TenGigEthGthUltraScale</text>
</a>
</g>
</g>
<!-- Node22&#45;&gt;Node41 -->
<g id="edge53_Node000022_Node000041" class="edge">
<title>Node22&#45;&gt;Node41</title>
<g id="a_edge53_Node000022_Node000041"><a xlink:title=" ">
<path fill="none" stroke="#63b8ff" d="M1088.86,-308.82C1101.91,-301.4 1118.47,-292.68 1134,-286.5 1142,-283.32 1150.76,-280.49 1159.2,-278.06"/>
<polygon fill="#63b8ff" stroke="#63b8ff" points="1086.92,-305.9 1080.03,-313.95 1090.44,-311.95 1086.92,-305.9"/>
</a>
</g>
</g>
<!-- Node43 -->
<g id="Node000043" class="node">
<title>Node43</title>
<g id="a_Node000043"><a xlink:href="classTenGigEthGtx7.html" target="_top" xlink:title=" ">
<polygon fill="white" stroke="orangered" points="1245,-241 1156,-241 1156,-222 1245,-222 1245,-241"/>
<text text-anchor="middle" x="1200.5" y="-229" font-family="Helvetica,sans-Serif" font-size="10.00">TenGigEthGtx7</text>
</a>
</g>
</g>
<!-- Node22&#45;&gt;Node43 -->
<g id="edge55_Node000022_Node000043" class="edge">
<title>Node22&#45;&gt;Node43</title>
<g id="a_edge55_Node000022_Node000043"><a xlink:title=" ">
<path fill="none" stroke="#63b8ff" d="M1076.82,-305.52C1089.32,-288.63 1110.18,-263.86 1134,-249.5 1140.67,-245.48 1148.25,-242.34 1155.83,-239.89"/>
<polygon fill="#63b8ff" stroke="#63b8ff" points="1073.74,-303.81 1070.77,-313.98 1079.44,-307.88 1073.74,-303.81"/>
</a>
</g>
</g>
<!-- Node45 -->
<g id="Node000045" class="node">
<title>Node45</title>
<g id="a_Node000045"><a xlink:href="classTenGigEthGtyUltraScale.html" target="_top" xlink:title=" ">
<polygon fill="white" stroke="orangered" points="1267,-204 1134,-204 1134,-185 1267,-185 1267,-204"/>
<text text-anchor="middle" x="1200.5" y="-192" font-family="Helvetica,sans-Serif" font-size="10.00">TenGigEthGtyUltraScale</text>
</a>
</g>
</g>
<!-- Node22&#45;&gt;Node45 -->
<g id="edge56_Node000022_Node000045" class="edge">
<title>Node22&#45;&gt;Node45</title>
<g id="a_edge56_Node000022_Node000045"><a xlink:title=" ">
<path fill="none" stroke="#63b8ff" d="M1071.38,-304.33C1081.32,-279.4 1102.08,-236.26 1134,-212.5 1138.64,-209.05 1143.9,-206.26 1149.37,-204.01"/>
<polygon fill="#63b8ff" stroke="#63b8ff" points="1068.07,-303.2 1067.79,-313.79 1074.61,-305.68 1068.07,-303.2"/>
</a>
</g>
</g>
<!-- Node47 -->
<g id="Node000047" class="node">
<title>Node47</title>
<g id="a_Node000047"><a xlink:href="classUdpEngineTb.html" target="_top" xlink:title=" ">
<polygon fill="white" stroke="#bfbfbf" points="1241,-167 1160,-167 1160,-148 1241,-148 1241,-167"/>
<text text-anchor="middle" x="1200.5" y="-155" font-family="Helvetica,sans-Serif" font-size="10.00">UdpEngineTb</text>
</a>
</g>
</g>
<!-- Node22&#45;&gt;Node47 -->
<g id="edge57_Node000022_Node000047" class="edge">
<title>Node22&#45;&gt;Node47</title>
<g id="a_edge57_Node000022_Node000047"><a xlink:title=" ">
<path fill="none" stroke="#63b8ff" d="M1068.18,-304.02C1075.21,-272.27 1093.6,-209.52 1134,-175.5 1141.31,-169.35 1150.55,-165.28 1159.77,-162.61"/>
<polygon fill="#63b8ff" stroke="#63b8ff" points="1064.75,-303.35 1066.15,-313.85 1071.6,-304.77 1064.75,-303.35"/>
</a>
</g>
</g>
<!-- Node48 -->
<g id="Node000048" class="node">
<title>Node48</title>
<g id="a_Node000048"><a xlink:href="classXauiGth7.html" target="_top" xlink:title=" ">
<polygon fill="white" stroke="orangered" points="1231.5,-130 1169.5,-130 1169.5,-111 1231.5,-111 1231.5,-130"/>
<text text-anchor="middle" x="1200.5" y="-118" font-family="Helvetica,sans-Serif" font-size="10.00">XauiGth7</text>
</a>
</g>
</g>
<!-- Node22&#45;&gt;Node48 -->
<g id="edge58_Node000022_Node000048" class="edge">
<title>Node22&#45;&gt;Node48</title>
<g id="a_edge58_Node000022_Node000048"><a xlink:title=" ">
<path fill="none" stroke="#63b8ff" d="M1066.17,-303.53C1070.42,-265.65 1085.08,-183.15 1134,-138.5 1143.58,-129.75 1157.02,-125.2 1169.24,-122.85"/>
<polygon fill="#63b8ff" stroke="#63b8ff" points="1062.66,-303.47 1065.16,-313.76 1069.62,-304.16 1062.66,-303.47"/>
</a>
</g>
</g>
<!-- Node50 -->
<g id="Node000050" class="node">
<title>Node50</title>
<g id="a_Node000050"><a xlink:href="classXauiGthUltraScale.html" target="_top" xlink:title=" ">
<polygon fill="white" stroke="orangered" points="1253.5,-93 1147.5,-93 1147.5,-74 1253.5,-74 1253.5,-93"/>
<text text-anchor="middle" x="1200.5" y="-81" font-family="Helvetica,sans-Serif" font-size="10.00">XauiGthUltraScale</text>
</a>
</g>
</g>
<!-- Node22&#45;&gt;Node50 -->
<g id="edge59_Node000022_Node000050" class="edge">
<title>Node22&#45;&gt;Node50</title>
<g id="a_edge59_Node000022_Node000050"><a xlink:title=" ">
<path fill="none" stroke="#63b8ff" d="M1064.7,-303.82C1066.24,-260.71 1076.12,-157.38 1134,-101.5 1137.9,-97.73 1142.52,-94.74 1147.46,-92.36"/>
<polygon fill="#63b8ff" stroke="#63b8ff" points="1061.2,-303.77 1064.46,-313.85 1068.2,-303.94 1061.2,-303.77"/>
</a>
</g>
</g>
<!-- Node52 -->
<g id="Node000052" class="node">
<title>Node52</title>
<g id="a_Node000052"><a xlink:href="classXauiGtx7.html" target="_top" xlink:title=" ">
<polygon fill="white" stroke="orangered" points="1231.5,-56 1169.5,-56 1169.5,-37 1231.5,-37 1231.5,-56"/>
<text text-anchor="middle" x="1200.5" y="-44" font-family="Helvetica,sans-Serif" font-size="10.00">XauiGtx7</text>
</a>
</g>
</g>
<!-- Node22&#45;&gt;Node52 -->
<g id="edge60_Node000022_Node000052" class="edge">
<title>Node22&#45;&gt;Node52</title>
<g id="a_edge60_Node000022_Node000052"><a xlink:title=" ">
<path fill="none" stroke="#63b8ff" d="M1063.65,-303.89C1062.68,-255.93 1067.15,-131.75 1134,-64.5 1143.31,-55.13 1157.01,-50.52 1169.48,-48.29"/>
<polygon fill="#63b8ff" stroke="#63b8ff" points="1060.15,-304 1063.95,-313.88 1067.14,-303.78 1060.15,-304"/>
</a>
</g>
</g>
<!-- Node54 -->
<g id="Node000054" class="node">
<title>Node54</title>
<g id="a_Node000054"><a xlink:href="classXauiGtyUltraScale.html" target="_top" xlink:title=" ">
<polygon fill="white" stroke="orangered" points="1253.5,-19 1147.5,-19 1147.5,0 1253.5,0 1253.5,-19"/>
<text text-anchor="middle" x="1200.5" y="-7" font-family="Helvetica,sans-Serif" font-size="10.00">XauiGtyUltraScale</text>
</a>
</g>
</g>
<!-- Node22&#45;&gt;Node54 -->
<g id="edge61_Node000022_Node000054" class="edge">
<title>Node22&#45;&gt;Node54</title>
<g id="a_edge61_Node000022_Node000054"><a xlink:title=" ">
<path fill="none" stroke="#63b8ff" d="M1066.53,-303.72C1073.03,-244.09 1095.21,-67.77 1134,-27.5 1137.76,-23.59 1142.29,-20.51 1147.18,-18.08"/>
<polygon fill="#63b8ff" stroke="#63b8ff" points="1063.04,-303.41 1065.47,-313.72 1070,-304.15 1063.04,-303.41"/>
</a>
</g>
</g>
<!-- Node27 -->
<g id="Node000027" class="node">
<title>Node27</title>
<g id="a_Node000027"><a xlink:href="classGigEthGth7Wrapper.html" target="_top" xlink:title=" ">
<polygon fill="white" stroke="#bfbfbf" points="1446.5,-537 1333.5,-537 1333.5,-518 1446.5,-518 1446.5,-537"/>
<text text-anchor="middle" x="1390" y="-525" font-family="Helvetica,sans-Serif" font-size="10.00">GigEthGth7Wrapper</text>
</a>
</g>
</g>
<!-- Node26&#45;&gt;Node27 -->
<g id="edge39_Node000026_Node000027" class="edge">
<title>Node26&#45;&gt;Node27</title>
<g id="a_edge39_Node000026_Node000027"><a xlink:title=" ">
<path fill="none" stroke="#63b8ff" d="M1247.08,-527.5C1273.04,-527.5 1305.77,-527.5 1333.25,-527.5"/>
<polygon fill="#63b8ff" stroke="#63b8ff" points="1246.77,-524 1236.77,-527.5 1246.77,-531 1246.77,-524"/>
</a>
</g>
</g>
<!-- Node29 -->
<g id="Node000029" class="node">
<title>Node29</title>
<g id="a_Node000029"><a xlink:href="classGigEthGthUltraScaleWrapper.html" target="_top" xlink:title=" ">
<polygon fill="white" stroke="#bfbfbf" points="1469,-500 1311,-500 1311,-481 1469,-481 1469,-500"/>
<text text-anchor="middle" x="1390" y="-488" font-family="Helvetica,sans-Serif" font-size="10.00">GigEthGthUltraScaleWrapper</text>
</a>
</g>
</g>
<!-- Node28&#45;&gt;Node29 -->
<g id="edge41_Node000028_Node000029" class="edge">
<title>Node28&#45;&gt;Node29</title>
<g id="a_edge41_Node000028_Node000029"><a xlink:title=" ">
<path fill="none" stroke="#63b8ff" d="M1268.77,-490.5C1282.4,-490.5 1296.85,-490.5 1310.82,-490.5"/>
<polygon fill="#63b8ff" stroke="#63b8ff" points="1268.52,-487 1258.52,-490.5 1268.52,-494 1268.52,-487"/>
</a>
</g>
</g>
<!-- Node31 -->
<g id="Node000031" class="node">
<title>Node31</title>
<g id="a_Node000031"><a xlink:href="classGigEthGtp7Wrapper.html" target="_top" xlink:title=" ">
<polygon fill="white" stroke="#bfbfbf" points="1446.5,-463 1333.5,-463 1333.5,-444 1446.5,-444 1446.5,-463"/>
<text text-anchor="middle" x="1390" y="-451" font-family="Helvetica,sans-Serif" font-size="10.00">GigEthGtp7Wrapper</text>
</a>
</g>
</g>
<!-- Node30&#45;&gt;Node31 -->
<g id="edge43_Node000030_Node000031" class="edge">
<title>Node30&#45;&gt;Node31</title>
<g id="a_edge43_Node000030_Node000031"><a xlink:title=" ">
<path fill="none" stroke="#63b8ff" d="M1247.08,-453.5C1273.04,-453.5 1305.77,-453.5 1333.25,-453.5"/>
<polygon fill="#63b8ff" stroke="#63b8ff" points="1246.77,-450 1236.77,-453.5 1246.77,-457 1246.77,-450"/>
</a>
</g>
</g>
<!-- Node33 -->
<g id="Node000033" class="node">
<title>Node33</title>
<g id="a_Node000033"><a xlink:href="classGigEthGtx7Wrapper.html" target="_top" xlink:title=" ">
<polygon fill="white" stroke="#bfbfbf" points="1446.5,-426 1333.5,-426 1333.5,-407 1446.5,-407 1446.5,-426"/>
<text text-anchor="middle" x="1390" y="-414" font-family="Helvetica,sans-Serif" font-size="10.00">GigEthGtx7Wrapper</text>
</a>
</g>
</g>
<!-- Node32&#45;&gt;Node33 -->
<g id="edge45_Node000032_Node000033" class="edge">
<title>Node32&#45;&gt;Node33</title>
<g id="a_edge45_Node000032_Node000033"><a xlink:title=" ">
<path fill="none" stroke="#63b8ff" d="M1247.08,-416.5C1273.04,-416.5 1305.77,-416.5 1333.25,-416.5"/>
<polygon fill="#63b8ff" stroke="#63b8ff" points="1246.77,-413 1236.77,-416.5 1246.77,-420 1246.77,-413"/>
</a>
</g>
</g>
<!-- Node35 -->
<g id="Node000035" class="node">
<title>Node35</title>
<g id="a_Node000035"><a xlink:href="classGigEthGtyUltraScaleWrapper.html" target="_top" xlink:title=" ">
<polygon fill="white" stroke="#bfbfbf" points="1469,-389 1311,-389 1311,-370 1469,-370 1469,-389"/>
<text text-anchor="middle" x="1390" y="-377" font-family="Helvetica,sans-Serif" font-size="10.00">GigEthGtyUltraScaleWrapper</text>
</a>
</g>
</g>
<!-- Node34&#45;&gt;Node35 -->
<g id="edge47_Node000034_Node000035" class="edge">
<title>Node34&#45;&gt;Node35</title>
<g id="a_edge47_Node000034_Node000035"><a xlink:title=" ">
<path fill="none" stroke="#63b8ff" d="M1268.77,-379.5C1282.4,-379.5 1296.85,-379.5 1310.82,-379.5"/>
<polygon fill="#63b8ff" stroke="#63b8ff" points="1268.52,-376 1258.52,-379.5 1268.52,-383 1268.52,-376"/>
</a>
</g>
</g>
<!-- Node37 -->
<g id="Node000037" class="node">
<title>Node37</title>
<g id="a_Node000037"><a xlink:href="classSgmii88E1111LvdsUltraScale.html" target="_top" xlink:title=" ">
<polygon fill="white" stroke="#bfbfbf" points="1469.5,-315 1310.5,-315 1310.5,-296 1469.5,-296 1469.5,-315"/>
<text text-anchor="middle" x="1390" y="-303" font-family="Helvetica,sans-Serif" font-size="10.00">Sgmii88E1111LvdsUltraScale</text>
</a>
</g>
</g>
<!-- Node36&#45;&gt;Node37 -->
<g id="edge49_Node000036_Node000037" class="edge">
<title>Node36&#45;&gt;Node37</title>
<g id="a_edge49_Node000036_Node000037"><a xlink:title=" ">
<path fill="none" stroke="#63b8ff" d="M1259.86,-330.98C1285.77,-325.87 1315.91,-319.92 1340.55,-315.06"/>
<polygon fill="#63b8ff" stroke="#63b8ff" points="1258.92,-327.6 1249.79,-332.97 1260.27,-334.47 1258.92,-327.6"/>
</a>
</g>
</g>
<!-- Node38 -->
<g id="Node000038" class="node">
<title>Node38</title>
<g id="a_Node000038"><a xlink:href="classSgmiiDp83867LvdsUltraScale.html" target="_top" xlink:title=" ">
<polygon fill="white" stroke="#bfbfbf" points="1470.5,-352 1309.5,-352 1309.5,-333 1470.5,-333 1470.5,-352"/>
<text text-anchor="middle" x="1390" y="-340" font-family="Helvetica,sans-Serif" font-size="10.00">SgmiiDp83867LvdsUltraScale</text>
</a>
</g>
</g>
<!-- Node36&#45;&gt;Node38 -->
<g id="edge50_Node000036_Node000038" class="edge">
<title>Node36&#45;&gt;Node38</title>
<g id="a_edge50_Node000036_Node000038"><a xlink:title=" ">
<path fill="none" stroke="#63b8ff" d="M1271.76,-342.5C1284.03,-342.5 1296.89,-342.5 1309.39,-342.5"/>
<polygon fill="#63b8ff" stroke="#63b8ff" points="1271.6,-339 1261.6,-342.5 1271.6,-346 1271.6,-339"/>
</a>
</g>
</g>
<!-- Node40 -->
<g id="Node000040" class="node">
<title>Node40</title>
<g id="a_Node000040"><a xlink:href="classTenGigEthGth7Wrapper.html" target="_top" xlink:title=" ">
<polygon fill="white" stroke="#bfbfbf" points="1455,-278 1325,-278 1325,-259 1455,-259 1455,-278"/>
<text text-anchor="middle" x="1390" y="-266" font-family="Helvetica,sans-Serif" font-size="10.00">TenGigEthGth7Wrapper</text>
</a>
</g>
</g>
<!-- Node39&#45;&gt;Node40 -->
<g id="edge52_Node000039_Node000040" class="edge">
<title>Node39&#45;&gt;Node40</title>
<g id="a_edge52_Node000039_Node000040"><a xlink:title=" ">
<path fill="none" stroke="#63b8ff" d="M1255.48,-294.85C1282.38,-289.54 1314.64,-283.17 1340.71,-278.03"/>
<polygon fill="#63b8ff" stroke="#63b8ff" points="1254.59,-291.46 1245.46,-296.83 1255.95,-298.32 1254.59,-291.46"/>
</a>
</g>
</g>
<!-- Node42 -->
<g id="Node000042" class="node">
<title>Node42</title>
<g id="a_Node000042"><a xlink:href="classTenGigEthGthUltraScaleWrapper.html" target="_top" xlink:title=" ">
<polygon fill="white" stroke="#bfbfbf" points="1477,-241 1303,-241 1303,-222 1477,-222 1477,-241"/>
<text text-anchor="middle" x="1390" y="-229" font-family="Helvetica,sans-Serif" font-size="10.00">TenGigEthGthUltraScaleWrapper</text>
</a>
</g>
</g>
<!-- Node41&#45;&gt;Node42 -->
<g id="edge54_Node000041_Node000042" class="edge">
<title>Node41&#45;&gt;Node42</title>
<g id="a_edge54_Node000041_Node000042"><a xlink:title=" ">
<path fill="none" stroke="#63b8ff" d="M1259.86,-256.98C1285.77,-251.87 1315.91,-245.92 1340.55,-241.06"/>
<polygon fill="#63b8ff" stroke="#63b8ff" points="1258.92,-253.6 1249.79,-258.97 1260.27,-260.47 1258.92,-253.6"/>
</a>
</g>
</g>
</g>
</svg>
