<?xml version="1.0" encoding="UTF-8" standalone="no"?>
<!DOCTYPE svg PUBLIC "-//W3C//DTD SVG 1.1//EN"
 "http://www.w3.org/Graphics/SVG/1.1/DTD/svg11.dtd">
<!-- Generated by graphviz version 2.43.0 (0)
 -->
<!-- Title: SyncStatusVector Pages: 1 -->
<!--zoomable 658 -->

<svg id="main" version="1.1" xmlns="http://www.w3.org/2000/svg" xmlns:xlink="http://www.w3.org/1999/xlink" xml:space="preserve" onload="init(evt)">
<style type="text/css"><![CDATA[
.node, .edge {opacity: 0.7;}
.node.selected, .edge.selected {opacity: 1;}
.edge:hover path { stroke: red; }
.edge:hover polygon { stroke: red; fill: red; }
]]></style>

<defs>
  <circle id="rim" cx="0" cy="0" r="7"/>
  <circle id="rim2" cx="0" cy="0" r="3.5"/>
  <g id="zoomPlus">
    <use xlink:href="#rim" fill="#404040"><set attributeName="fill" to="#808080" begin="zoomplus.mouseover" end="zoomplus.mouseout"/></use>
    <path d="M-4,0h8M0,-4v8" fill="none" stroke="white" stroke-width="1.5" pointer-events="none"/>
  </g>
  <g id="zoomMin">
    <use xlink:href="#rim" fill="#404040"><set attributeName="fill" to="#808080" begin="zoomminus.mouseover" end="zoomminus.mouseout"/></use>
    <path d="M-4,0h8" fill="none" stroke="white" stroke-width="1.5" pointer-events="none"/>
  </g>
  <g id="arrowUp" transform="translate(30 24)">
    <use xlink:href="#rim"/>
    <path pointer-events="none" fill="none" stroke="white" stroke-width="1.5" d="M0,-3.0v7 M-2.5,-0.5L0,-3.0L2.5,-0.5"/>
  </g>
  <g id="arrowRight" transform="rotate(90) translate(36 -43)">
    <use xlink:href="#rim"/>
    <path pointer-events="none" fill="none" stroke="white" stroke-width="1.5" d="M0,-3.0v7 M-2.5,-0.5L0,-3.0L2.5,-0.5"/>
  </g>
  <g id="arrowDown" transform="rotate(180) translate(-30 -48)">
    <use xlink:href="#rim"/>
    <path pointer-events="none" fill="none" stroke="white" stroke-width="1.5" d="M0,-3.0v7 M-2.5,-0.5L0,-3.0L2.5,-0.5"/>
  </g>
  <g id="arrowLeft" transform="rotate(270) translate(-36 17)">
    <use xlink:href="#rim"/>
    <path pointer-events="none" fill="none" stroke="white" stroke-width="1.5" d="M0,-3.0v7 M-2.5,-0.5L0,-3.0L2.5,-0.5"/>
  </g>
  <g id="resetDef">
    <use xlink:href="#rim2" fill="#404040"><set attributeName="fill" to="#808080" begin="reset.mouseover" end="reset.mouseout"/></use>
  </g>
</defs>
<script type="application/ecmascript">
var viewWidth = 1509;
var viewHeight = 658;
var sectionId = 'dynsection-0';
</script>
<script type="application/ecmascript" xlink:href="svg.min.js"/>
<svg id="graph" class="graph">
<g id="viewport">
<title>SyncStatusVector</title>
<!-- Node1 -->
<g id="Node000001" class="node">
<title>Node1</title>
<g id="a_Node000001"><a xlink:title=" ">
<polygon fill="#999999" stroke="#666666" points="1002,-296 901,-296 901,-277 1002,-277 1002,-296"/>
<text text-anchor="middle" x="951.5" y="-284" font-family="Helvetica,sans-Serif" font-size="10.00">SyncStatusVector</text>
</a>
</g>
</g>
<!-- Node15 -->
<g id="Node000015" class="node">
<title>Node15</title>
<g id="a_Node000015"><a xlink:href="classAxiLiteRamSyncStatusVector.html" target="_top" xlink:title=" ">
<polygon fill="white" stroke="#bfbfbf" points="1196,-613 1038,-613 1038,-594 1196,-594 1196,-613"/>
<text text-anchor="middle" x="1117" y="-601" font-family="Helvetica,sans-Serif" font-size="10.00">AxiLiteRamSyncStatusVector</text>
</a>
</g>
</g>
<!-- Node1&#45;&gt;Node15 -->
<g id="edge19_Node000001_Node000015" class="edge">
<title>Node1&#45;&gt;Node15</title>
<g id="a_edge19_Node000001_Node000015"><a xlink:title=" ">
<path fill="none" stroke="#63b8ff" d="M951.79,-306.49C951.06,-360.13 956.84,-508.44 1038,-585.5 1041.53,-588.85 1045.55,-591.62 1049.86,-593.91"/>
<polygon fill="#63b8ff" stroke="#63b8ff" points="955.3,-306.35 952.03,-296.27 948.3,-306.19 955.3,-306.35"/>
</a>
</g>
</g>
<!-- Node16 -->
<g id="Node000016" class="node">
<title>Node16</title>
<g id="a_Node000016"><a xlink:href="classHtspAxiL.html" target="_top" xlink:title=" ">
<polygon fill="white" stroke="#bfbfbf" points="1147,-576 1087,-576 1087,-557 1147,-557 1147,-576"/>
<text text-anchor="middle" x="1117" y="-564" font-family="Helvetica,sans-Serif" font-size="10.00">HtspAxiL</text>
</a>
</g>
</g>
<!-- Node1&#45;&gt;Node16 -->
<g id="edge20_Node000001_Node000016" class="edge">
<title>Node1&#45;&gt;Node16</title>
<g id="a_edge20_Node000001_Node000016"><a xlink:title=" ">
<path fill="none" stroke="#63b8ff" d="M952.73,-306.29C954.44,-355.19 965.94,-482.56 1038,-548.5 1051.12,-560.51 1070.62,-565.01 1086.84,-566.51"/>
<polygon fill="#63b8ff" stroke="#63b8ff" points="956.23,-306.02 952.49,-296.11 949.23,-306.19 956.23,-306.02"/>
</a>
</g>
</g>
<!-- Node21 -->
<g id="Node000021" class="node">
<title>Node21</title>
<g id="a_Node000021"><a xlink:href="classJesdRxReg.html" target="_top" xlink:title=" ">
<polygon fill="white" stroke="#bfbfbf" points="1151,-389 1083,-389 1083,-370 1151,-370 1151,-389"/>
<text text-anchor="middle" x="1117" y="-377" font-family="Helvetica,sans-Serif" font-size="10.00">JesdRxReg</text>
</a>
</g>
</g>
<!-- Node1&#45;&gt;Node21 -->
<g id="edge23_Node000001_Node000021" class="edge">
<title>Node1&#45;&gt;Node21</title>
<g id="a_edge23_Node000001_Node000021"><a xlink:title=" ">
<path fill="none" stroke="#63b8ff" d="M967.48,-303.93C983.28,-321.17 1009.76,-347.03 1038,-361.5 1051.85,-368.6 1068.51,-372.93 1082.88,-375.56"/>
<polygon fill="#63b8ff" stroke="#63b8ff" points="969.89,-301.37 960.62,-296.24 964.67,-306.03 969.89,-301.37"/>
</a>
</g>
</g>
<!-- Node24 -->
<g id="Node000024" class="node">
<title>Node24</title>
<g id="a_Node000024"><a xlink:href="classJesdTxReg.html" target="_top" xlink:title=" ">
<polygon fill="white" stroke="#bfbfbf" points="1151,-352 1083,-352 1083,-333 1151,-333 1151,-352"/>
<text text-anchor="middle" x="1117" y="-340" font-family="Helvetica,sans-Serif" font-size="10.00">JesdTxReg</text>
</a>
</g>
</g>
<!-- Node1&#45;&gt;Node24 -->
<g id="edge25_Node000001_Node000024" class="edge">
<title>Node1&#45;&gt;Node24</title>
<g id="a_edge25_Node000001_Node000024"><a xlink:title=" ">
<path fill="none" stroke="#63b8ff" d="M980.18,-300.42C996.66,-308.3 1018.17,-317.87 1038,-324.5 1052.5,-329.35 1068.94,-333.35 1082.98,-336.34"/>
<polygon fill="#63b8ff" stroke="#63b8ff" points="981.63,-297.24 971.1,-296.01 978.57,-303.53 981.63,-297.24"/>
</a>
</g>
</g>
<!-- Node26 -->
<g id="Node000026" class="node">
<title>Node26</title>
<g id="a_Node000026"><a xlink:href="classPgp3AxiL.html" target="_top" xlink:title=" ">
<polygon fill="white" stroke="#bfbfbf" points="1148,-315 1086,-315 1086,-296 1148,-296 1148,-315"/>
<text text-anchor="middle" x="1117" y="-303" font-family="Helvetica,sans-Serif" font-size="10.00">Pgp3AxiL</text>
</a>
</g>
</g>
<!-- Node1&#45;&gt;Node26 -->
<g id="edge27_Node000001_Node000026" class="edge">
<title>Node1&#45;&gt;Node26</title>
<g id="a_edge27_Node000001_Node000026"><a xlink:title=" ">
<path fill="none" stroke="#63b8ff" d="M1012.56,-293.48C1037.49,-296.38 1065.32,-299.61 1085.83,-301.99"/>
<polygon fill="#63b8ff" stroke="#63b8ff" points="1012.78,-289.98 1002.44,-292.3 1011.97,-296.93 1012.78,-289.98"/>
</a>
</g>
</g>
<!-- Node37 -->
<g id="Node000037" class="node">
<title>Node37</title>
<g id="a_Node000037"><a xlink:href="classPgp4AxiL.html" target="_top" xlink:title=" ">
<polygon fill="white" stroke="#bfbfbf" points="1148,-539 1086,-539 1086,-520 1148,-520 1148,-539"/>
<text text-anchor="middle" x="1117" y="-527" font-family="Helvetica,sans-Serif" font-size="10.00">Pgp4AxiL</text>
</a>
</g>
</g>
<!-- Node1&#45;&gt;Node37 -->
<g id="edge29_Node000001_Node000037" class="edge">
<title>Node1&#45;&gt;Node37</title>
<g id="a_edge29_Node000001_Node000037"><a xlink:title=" ">
<path fill="none" stroke="#63b8ff" d="M958.24,-306.13C969.29,-341.58 996.22,-417.42 1038,-469.5 1055.32,-491.09 1081.95,-509.38 1099.18,-519.9"/>
<polygon fill="#63b8ff" stroke="#63b8ff" points="961.45,-304.68 955.2,-296.13 954.75,-306.71 961.45,-304.68"/>
</a>
</g>
</g>
<!-- Node53 -->
<g id="Node000053" class="node">
<title>Node53</title>
<g id="a_Node000053"><a xlink:href="classPgp4RxLiteLowSpeedReg.html" target="_top" xlink:title=" ">
<polygon fill="white" stroke="#bfbfbf" points="1187,-278 1047,-278 1047,-259 1187,-259 1187,-278"/>
<text text-anchor="middle" x="1117" y="-266" font-family="Helvetica,sans-Serif" font-size="10.00">Pgp4RxLiteLowSpeedReg</text>
</a>
</g>
</g>
<!-- Node1&#45;&gt;Node53 -->
<g id="edge34_Node000001_Node000053" class="edge">
<title>Node1&#45;&gt;Node53</title>
<g id="a_edge34_Node000001_Node000053"><a xlink:title=" ">
<path fill="none" stroke="#63b8ff" d="M1012.5,-279.89C1023.65,-278.67 1035.39,-277.37 1046.8,-276.12"/>
<polygon fill="#63b8ff" stroke="#63b8ff" points="1012,-276.43 1002.44,-281 1012.77,-283.39 1012,-276.43"/>
</a>
</g>
</g>
<!-- Node54 -->
<g id="Node000054" class="node">
<title>Node54</title>
<g id="a_Node000054"><a xlink:href="classSsiPrbsRx.html" target="_top" xlink:title=" ">
<polygon fill="white" stroke="orangered" points="1325,-465 1260,-465 1260,-446 1325,-446 1325,-465"/>
<text text-anchor="middle" x="1292.5" y="-453" font-family="Helvetica,sans-Serif" font-size="10.00">SsiPrbsRx</text>
</a>
</g>
</g>
<!-- Node1&#45;&gt;Node54 -->
<g id="edge36_Node000001_Node000054" class="edge">
<title>Node1&#45;&gt;Node54</title>
<g id="a_edge36_Node000001_Node000054"><a xlink:title=" ">
<path fill="none" stroke="#63b8ff" d="M957.74,-306.06C967.53,-338.36 991.89,-402.19 1038,-431.5 1107.02,-475.37 1208.67,-468.37 1259.75,-461.11"/>
<polygon fill="#63b8ff" stroke="#63b8ff" points="960.99,-304.7 954.88,-296.05 954.26,-306.63 960.99,-304.7"/>
</a>
</g>
</g>
<!-- Node62 -->
<g id="Node000062" class="node">
<title>Node62</title>
<g id="a_Node000062"><a xlink:href="classRawEthFramerTb.html" target="_top" xlink:title=" ">
<polygon fill="white" stroke="#bfbfbf" points="1495,-206 1395,-206 1395,-187 1495,-187 1495,-206"/>
<text text-anchor="middle" x="1445" y="-194" font-family="Helvetica,sans-Serif" font-size="10.00">RawEthFramerTb</text>
</a>
</g>
</g>
<!-- Node1&#45;&gt;Node62 -->
<g id="edge52_Node000001_Node000062" class="edge">
<title>Node1&#45;&gt;Node62</title>
<g id="a_edge52_Node000001_Node000062"><a xlink:title=" ">
<path fill="none" stroke="#63b8ff" d="M960.36,-305.44C972.53,-331.95 998.71,-379.06 1038,-398.5 1100.74,-429.54 1298.96,-442.99 1353,-398.5 1417.33,-345.54 1333.81,-276.93 1389,-214.5 1391.99,-211.11 1395.64,-208.36 1399.6,-206.12"/>
<polygon fill="#63b8ff" stroke="#63b8ff" points="963.48,-303.83 956.25,-296.08 957.06,-306.65 963.48,-303.83"/>
</a>
</g>
</g>
<!-- Node68 -->
<g id="Node000068" class="node">
<title>Node68</title>
<g id="a_Node000068"><a xlink:href="classSspLowSpeedDecoderReg.html" target="_top" xlink:title=" ">
<polygon fill="white" stroke="orangered" points="1188.5,-241 1045.5,-241 1045.5,-222 1188.5,-222 1188.5,-241"/>
<text text-anchor="middle" x="1117" y="-229" font-family="Helvetica,sans-Serif" font-size="10.00">SspLowSpeedDecoderReg</text>
</a>
</g>
</g>
<!-- Node1&#45;&gt;Node68 -->
<g id="edge50_Node000001_Node000068" class="edge">
<title>Node1&#45;&gt;Node68</title>
<g id="a_edge50_Node000001_Node000068"><a xlink:title=" ">
<path fill="none" stroke="#63b8ff" d="M982.04,-272.69C998.31,-265.43 1019,-256.77 1038,-250.5 1048.72,-246.96 1060.47,-243.76 1071.51,-241.04"/>
<polygon fill="#63b8ff" stroke="#63b8ff" points="980.2,-269.68 972.54,-276.99 983.09,-276.05 980.2,-269.68"/>
</a>
</g>
</g>
<!-- Node73 -->
<g id="Node000073" class="node">
<title>Node73</title>
<g id="a_Node000073"><a xlink:href="classGigEthReg.html" target="_top" xlink:title=" ">
<polygon fill="white" stroke="orangered" points="1151,-204 1083,-204 1083,-185 1151,-185 1151,-204"/>
<text text-anchor="middle" x="1117" y="-192" font-family="Helvetica,sans-Serif" font-size="10.00">GigEthReg</text>
</a>
</g>
</g>
<!-- Node1&#45;&gt;Node73 -->
<g id="edge51_Node000001_Node000073" class="edge">
<title>Node1&#45;&gt;Node73</title>
<g id="a_edge51_Node000001_Node000073"><a xlink:title=" ">
<path fill="none" stroke="#63b8ff" d="M967.53,-269.31C983.37,-252.3 1009.87,-226.79 1038,-212.5 1051.88,-205.45 1068.54,-201.12 1082.9,-198.49"/>
<polygon fill="#63b8ff" stroke="#63b8ff" points="964.78,-267.14 960.65,-276.89 969.96,-271.84 964.78,-267.14"/>
</a>
</g>
</g>
<!-- Node87 -->
<g id="Node000087" class="node">
<title>Node87</title>
<g id="a_Node000087"><a xlink:href="classTenGigEthReg.html" target="_top" xlink:title=" ">
<polygon fill="white" stroke="orangered" points="1159,-167 1075,-167 1075,-148 1159,-148 1159,-167"/>
<text text-anchor="middle" x="1117" y="-155" font-family="Helvetica,sans-Serif" font-size="10.00">TenGigEthReg</text>
</a>
</g>
</g>
<!-- Node1&#45;&gt;Node87 -->
<g id="edge53_Node000001_Node000087" class="edge">
<title>Node1&#45;&gt;Node87</title>
<g id="a_edge53_Node000001_Node000087"><a xlink:title=" ">
<path fill="none" stroke="#63b8ff" d="M961.63,-267.81C974.87,-242.75 1001.84,-198.71 1038,-175.5 1048.88,-168.52 1062.15,-164.23 1074.63,-161.61"/>
<polygon fill="#63b8ff" stroke="#63b8ff" points="958.37,-266.49 956.95,-276.99 964.61,-269.67 958.37,-266.49"/>
</a>
</g>
</g>
<!-- Node96 -->
<g id="Node000096" class="node">
<title>Node96</title>
<g id="a_Node000096"><a xlink:href="classXauiReg.html" target="_top" xlink:title=" ">
<polygon fill="white" stroke="orangered" points="1145.5,-130 1088.5,-130 1088.5,-111 1145.5,-111 1145.5,-130"/>
<text text-anchor="middle" x="1117" y="-118" font-family="Helvetica,sans-Serif" font-size="10.00">XauiReg</text>
</a>
</g>
</g>
<!-- Node1&#45;&gt;Node96 -->
<g id="edge54_Node000001_Node000096" class="edge">
<title>Node1&#45;&gt;Node96</title>
<g id="a_edge54_Node000001_Node000096"><a xlink:title=" ">
<path fill="none" stroke="#63b8ff" d="M958.22,-266.75C968.58,-234.62 993.61,-171.33 1038,-138.5 1052.53,-127.76 1072.41,-123.28 1088.47,-121.48"/>
<polygon fill="#63b8ff" stroke="#63b8ff" points="954.75,-266.13 955.16,-276.71 961.44,-268.18 954.75,-266.13"/>
</a>
</g>
</g>
<!-- Node105 -->
<g id="Node000105" class="node">
<title>Node105</title>
<g id="a_Node000105"><a xlink:href="classCoaXPressAxiL.html" target="_top" xlink:title=" ">
<polygon fill="white" stroke="orangered" points="1161.5,-93 1072.5,-93 1072.5,-74 1161.5,-74 1161.5,-93"/>
<text text-anchor="middle" x="1117" y="-81" font-family="Helvetica,sans-Serif" font-size="10.00">CoaXPressAxiL</text>
</a>
</g>
</g>
<!-- Node1&#45;&gt;Node105 -->
<g id="edge55_Node000001_Node000105" class="edge">
<title>Node1&#45;&gt;Node105</title>
<g id="a_edge55_Node000001_Node000105"><a xlink:title=" ">
<path fill="none" stroke="#63b8ff" d="M955.76,-266.74C963.13,-228.59 984.76,-144.76 1038,-101.5 1047.71,-93.61 1060.23,-89.05 1072.39,-86.44"/>
<polygon fill="#63b8ff" stroke="#63b8ff" points="952.31,-266.16 953.98,-276.62 959.2,-267.4 952.31,-266.16"/>
</a>
</g>
</g>
<!-- Node109 -->
<g id="Node000109" class="node">
<title>Node109</title>
<g id="a_Node000109"><a xlink:href="classPgp2bAxi.html" target="_top" xlink:title=" ">
<polygon fill="white" stroke="#bfbfbf" points="1148,-56 1086,-56 1086,-37 1148,-37 1148,-56"/>
<text text-anchor="middle" x="1117" y="-44" font-family="Helvetica,sans-Serif" font-size="10.00">Pgp2bAxi</text>
</a>
</g>
</g>
<!-- Node1&#45;&gt;Node109 -->
<g id="edge56_Node000001_Node000109" class="edge">
<title>Node1&#45;&gt;Node109</title>
<g id="a_edge56_Node000001_Node000109"><a xlink:title=" ">
<path fill="none" stroke="#63b8ff" d="M954.08,-266.53C958.66,-222.85 975.88,-118.44 1038,-64.5 1051.12,-53.11 1070.02,-48.55 1085.93,-46.87"/>
<polygon fill="#63b8ff" stroke="#63b8ff" points="950.58,-266.42 953.14,-276.7 957.55,-267.07 950.58,-266.42"/>
</a>
</g>
</g>
<!-- Node110 -->
<g id="Node000110" class="node">
<title>Node110</title>
<g id="a_Node000110"><a xlink:href="classPgp2fcAxi.html" target="_top" xlink:title=" ">
<polygon fill="white" stroke="#bfbfbf" points="1149.5,-19 1084.5,-19 1084.5,0 1149.5,0 1149.5,-19"/>
<text text-anchor="middle" x="1117" y="-7" font-family="Helvetica,sans-Serif" font-size="10.00">Pgp2fcAxi</text>
</a>
</g>
</g>
<!-- Node1&#45;&gt;Node110 -->
<g id="edge57_Node000001_Node000110" class="edge">
<title>Node1&#45;&gt;Node110</title>
<g id="a_edge57_Node000001_Node000110"><a xlink:title=" ">
<path fill="none" stroke="#63b8ff" d="M952.81,-266.94C954.69,-218.58 966.58,-92.63 1038,-27.5 1050.43,-16.17 1068.53,-11.53 1084.17,-9.78"/>
<polygon fill="#63b8ff" stroke="#63b8ff" points="949.31,-266.9 952.53,-277 956.31,-267.1 949.31,-266.9"/>
</a>
</g>
</g>
<!-- Node2 -->
<g id="Node000002" class="node">
<title>Node2</title>
<g id="a_Node000002"><a xlink:href="classSynchronizerVector.html" target="_top" xlink:title=" ">
<polygon fill="white" stroke="#bfbfbf" points="228.5,-385 118.5,-385 118.5,-366 228.5,-366 228.5,-385"/>
<text text-anchor="middle" x="173.5" y="-373" font-family="Helvetica,sans-Serif" font-size="10.00">SynchronizerVector</text>
</a>
</g>
</g>
<!-- Node2&#45;&gt;Node1 -->
<g id="edge1_Node000001_Node000002" class="edge">
<title>Node2&#45;&gt;Node1</title>
<g id="a_edge1_Node000001_Node000002"><a xlink:title=" ">
<path fill="none" stroke="#63b8ff" d="M224.41,-363.79C275.02,-352.95 355.76,-338.5 426.5,-338.5 426.5,-338.5 426.5,-338.5 593.5,-338.5 710,-338.5 845.67,-311.05 911.15,-296.04"/>
<polygon fill="#63b8ff" stroke="#63b8ff" points="223.41,-360.42 214.39,-365.97 224.9,-367.26 223.41,-360.42"/>
</a>
</g>
</g>
<!-- Node10 -->
<g id="Node000010" class="node">
<title>Node10</title>
<g id="a_Node000010"><a xlink:href="classFifoAsync.html" target="_top" xlink:title=" ">
<polygon fill="white" stroke="#bfbfbf" points="331,-255 267,-255 267,-236 331,-236 331,-255"/>
<text text-anchor="middle" x="299" y="-243" font-family="Helvetica,sans-Serif" font-size="10.00">FifoAsync</text>
</a>
</g>
</g>
<!-- Node2&#45;&gt;Node10 -->
<g id="edge13_Node000010_Node000002" class="edge">
<title>Node2&#45;&gt;Node10</title>
<g id="a_edge13_Node000010_Node000002"><a xlink:title=" ">
<path fill="none" stroke="#63b8ff" d="M225.94,-361.05C227.7,-359.95 229.4,-358.77 231,-357.5 266.52,-329.36 287.43,-276.83 294.88,-255.19"/>
<polygon fill="#63b8ff" stroke="#63b8ff" points="223.92,-358.16 216.67,-365.89 227.16,-364.36 223.92,-358.16"/>
</a>
</g>
</g>
<!-- Node3 -->
<g id="Node000003" class="node">
<title>Node3</title>
<g id="a_Node000003"><a xlink:href="classSynchronizerOneShotCntVector.html" target="_top" xlink:title=" ">
<polygon fill="white" stroke="#bfbfbf" points="865,-245 697,-245 697,-226 865,-226 865,-245"/>
<text text-anchor="middle" x="781" y="-233" font-family="Helvetica,sans-Serif" font-size="10.00">SynchronizerOneShotCntVector</text>
</a>
</g>
</g>
<!-- Node3&#45;&gt;Node1 -->
<g id="edge2_Node000001_Node000003" class="edge">
<title>Node3&#45;&gt;Node1</title>
<g id="a_edge2_Node000001_Node000003"><a xlink:title=" ">
<path fill="none" stroke="#63b8ff" d="M823.3,-248C852.82,-256.93 891.93,-268.77 918.95,-276.95"/>
<polygon fill="#63b8ff" stroke="#63b8ff" points="824.28,-244.64 813.69,-245.09 822.25,-251.34 824.28,-244.64"/>
</a>
</g>
</g>
<!-- Node4 -->
<g id="Node000004" class="node">
<title>Node4</title>
<g id="a_Node000004"><a xlink:href="classSynchronizerOneShot.html" target="_top" xlink:title=" ">
<polygon fill="white" stroke="#bfbfbf" points="488,-201 367,-201 367,-182 488,-182 488,-201"/>
<text text-anchor="middle" x="427.5" y="-189" font-family="Helvetica,sans-Serif" font-size="10.00">SynchronizerOneShot</text>
</a>
</g>
</g>
<!-- Node4&#45;&gt;Node3 -->
<g id="edge3_Node000003_Node000004" class="edge">
<title>Node4&#45;&gt;Node3</title>
<g id="a_edge3_Node000003_Node000004"><a xlink:title=" ">
<path fill="none" stroke="#63b8ff" d="M498.54,-198.09C544.74,-202.67 606.57,-209.23 661,-216.5 681.63,-219.25 704.2,-222.74 724.09,-225.97"/>
<polygon fill="#63b8ff" stroke="#63b8ff" points="498.63,-194.58 488.33,-197.08 497.94,-201.55 498.63,-194.58"/>
</a>
</g>
</g>
<!-- Node8 -->
<g id="Node000008" class="node">
<title>Node8</title>
<g id="a_Node000008"><a xlink:href="classSynchronizerOneShotCnt.html" target="_top" xlink:title=" ">
<polygon fill="white" stroke="#bfbfbf" points="661,-245 524,-245 524,-226 661,-226 661,-245"/>
<text text-anchor="middle" x="592.5" y="-233" font-family="Helvetica,sans-Serif" font-size="10.00">SynchronizerOneShotCnt</text>
</a>
</g>
</g>
<!-- Node4&#45;&gt;Node8 -->
<g id="edge9_Node000008_Node000004" class="edge">
<title>Node4&#45;&gt;Node8</title>
<g id="a_edge9_Node000008_Node000004"><a xlink:title=" ">
<path fill="none" stroke="#63b8ff" d="M473.53,-203.65C499.61,-210.7 531.97,-219.43 556.2,-225.97"/>
<polygon fill="#63b8ff" stroke="#63b8ff" points="474.44,-200.27 463.87,-201.05 472.61,-207.03 474.44,-200.27"/>
</a>
</g>
</g>
<!-- Node5 -->
<g id="Node000005" class="node">
<title>Node5</title>
<g id="a_Node000005"><a xlink:href="classRstSync.html" target="_top" xlink:title=" ">
<polygon fill="white" stroke="#bfbfbf" points="201.5,-161 145.5,-161 145.5,-142 201.5,-142 201.5,-161"/>
<text text-anchor="middle" x="173.5" y="-149" font-family="Helvetica,sans-Serif" font-size="10.00">RstSync</text>
</a>
</g>
</g>
<!-- Node5&#45;&gt;Node4 -->
<g id="edge4_Node000004_Node000005" class="edge">
<title>Node5&#45;&gt;Node4</title>
<g id="a_edge4_Node000004_Node000005"><a xlink:title=" ">
<path fill="none" stroke="#63b8ff" d="M212.03,-157.46C252.93,-163.95 318.93,-174.43 366.93,-182.04"/>
<polygon fill="#63b8ff" stroke="#63b8ff" points="212.37,-153.97 201.95,-155.86 211.28,-160.88 212.37,-153.97"/>
</a>
</g>
</g>
<!-- Node5&#45;&gt;Node10 -->
<g id="edge12_Node000010_Node000005" class="edge">
<title>Node5&#45;&gt;Node10</title>
<g id="a_edge12_Node000010_Node000005"><a xlink:title=" ">
<path fill="none" stroke="#63b8ff" d="M211.52,-160.12C218.3,-162.56 225.09,-165.64 231,-169.5 245.29,-178.83 276.4,-217.66 290.63,-235.93"/>
<polygon fill="#63b8ff" stroke="#63b8ff" points="212.28,-156.69 201.69,-156.97 210.15,-163.35 212.28,-156.69"/>
</a>
</g>
</g>
<!-- Node6 -->
<g id="Node000006" class="node">
<title>Node6</title>
<g id="a_Node000006"><a xlink:href="classSynchronizer.html" target="_top" xlink:title=" ">
<polygon fill="white" stroke="#bfbfbf" points="80,-161 0,-161 0,-142 80,-142 80,-161"/>
<text text-anchor="middle" x="40" y="-149" font-family="Helvetica,sans-Serif" font-size="10.00">Synchronizer</text>
</a>
</g>
</g>
<!-- Node6&#45;&gt;Node5 -->
<g id="edge5_Node000005_Node000006" class="edge">
<title>Node6&#45;&gt;Node5</title>
<g id="a_edge5_Node000005_Node000006"><a xlink:title=" ">
<path fill="none" stroke="#63b8ff" d="M90.24,-151.5C108.93,-151.5 129.52,-151.5 145.43,-151.5"/>
<polygon fill="#63b8ff" stroke="#63b8ff" points="90.1,-148 80.1,-151.5 90.1,-155 90.1,-148"/>
</a>
</g>
</g>
<!-- Node7 -->
<g id="Node000007" class="node">
<title>Node7</title>
<g id="a_Node000007"><a xlink:href="classSynchronizerEdge.html" target="_top" xlink:title=" ">
<polygon fill="white" stroke="#bfbfbf" points="225.5,-124 121.5,-124 121.5,-105 225.5,-105 225.5,-124"/>
<text text-anchor="middle" x="173.5" y="-112" font-family="Helvetica,sans-Serif" font-size="10.00">SynchronizerEdge</text>
</a>
</g>
</g>
<!-- Node6&#45;&gt;Node7 -->
<g id="edge7_Node000007_Node000006" class="edge">
<title>Node6&#45;&gt;Node7</title>
<g id="a_edge7_Node000007_Node000006"><a xlink:title=" ">
<path fill="none" stroke="#63b8ff" d="M84.81,-139.17C102.22,-134.27 121.96,-128.72 138.29,-124.12"/>
<polygon fill="#63b8ff" stroke="#63b8ff" points="83.54,-135.89 74.86,-141.97 85.44,-142.63 83.54,-135.89"/>
</a>
</g>
</g>
<!-- Node6&#45;&gt;Node10 -->
<g id="edge14_Node000010_Node000006" class="edge">
<title>Node6&#45;&gt;Node10</title>
<g id="a_edge14_Node000010_Node000006"><a xlink:title=" ">
<path fill="none" stroke="#63b8ff" d="M58.89,-168.03C73.28,-180.44 94.57,-196.88 116,-206.5 165.97,-228.93 229.56,-238.76 266.82,-242.83"/>
<polygon fill="#63b8ff" stroke="#63b8ff" points="61.07,-165.29 51.27,-161.27 56.43,-170.52 61.07,-165.29"/>
</a>
</g>
</g>
<!-- Node7&#45;&gt;Node4 -->
<g id="edge6_Node000004_Node000007" class="edge">
<title>Node7&#45;&gt;Node4</title>
<g id="a_edge6_Node000004_Node000007"><a xlink:title=" ">
<path fill="none" stroke="#63b8ff" d="M215.52,-127.04C265.72,-142.37 349.62,-168.01 395.02,-181.88"/>
<polygon fill="#63b8ff" stroke="#63b8ff" points="216.24,-123.59 205.65,-124.02 214.19,-130.29 216.24,-123.59"/>
</a>
</g>
</g>
<!-- Node8&#45;&gt;Node3 -->
<g id="edge8_Node000003_Node000008" class="edge">
<title>Node8&#45;&gt;Node3</title>
<g id="a_edge8_Node000003_Node000008"><a xlink:title=" ">
<path fill="none" stroke="#63b8ff" d="M671.25,-235.5C679.67,-235.5 688.25,-235.5 696.73,-235.5"/>
<polygon fill="#63b8ff" stroke="#63b8ff" points="671.09,-232 661.09,-235.5 671.09,-239 671.09,-232"/>
</a>
</g>
</g>
<!-- Node9 -->
<g id="Node000009" class="node">
<title>Node9</title>
<g id="a_Node000009"><a xlink:href="classSynchronizerFifo.html" target="_top" xlink:title=" ">
<polygon fill="white" stroke="#bfbfbf" points="476.5,-246 378.5,-246 378.5,-227 476.5,-227 476.5,-246"/>
<text text-anchor="middle" x="427.5" y="-234" font-family="Helvetica,sans-Serif" font-size="10.00">SynchronizerFifo</text>
</a>
</g>
</g>
<!-- Node9&#45;&gt;Node8 -->
<g id="edge10_Node000008_Node000009" class="edge">
<title>Node9&#45;&gt;Node8</title>
<g id="a_edge10_Node000008_Node000009"><a xlink:title=" ">
<path fill="none" stroke="#63b8ff" d="M486.86,-236.14C498.86,-236.07 511.59,-235.99 523.89,-235.91"/>
<polygon fill="#63b8ff" stroke="#63b8ff" points="486.5,-232.64 476.52,-236.21 486.55,-239.64 486.5,-232.64"/>
</a>
</g>
</g>
<!-- Node10&#45;&gt;Node9 -->
<g id="edge11_Node000009_Node000010" class="edge">
<title>Node10&#45;&gt;Node9</title>
<g id="a_edge11_Node000009_Node000010"><a xlink:title=" ">
<path fill="none" stroke="#63b8ff" d="M341.32,-242.56C353.15,-241.72 366.15,-240.79 378.35,-239.93"/>
<polygon fill="#63b8ff" stroke="#63b8ff" points="341,-239.07 331.27,-243.28 341.49,-246.06 341,-239.07"/>
</a>
</g>
</g>
<!-- Node11 -->
<g id="Node000011" class="node">
<title>Node11</title>
<g id="a_Node000011"><a xlink:href="classFifoWrFsm.html" target="_top" xlink:title=" ">
<polygon fill="white" stroke="#bfbfbf" points="208,-274 139,-274 139,-255 208,-255 208,-274"/>
<text text-anchor="middle" x="173.5" y="-262" font-family="Helvetica,sans-Serif" font-size="10.00">FifoWrFsm</text>
</a>
</g>
</g>
<!-- Node11&#45;&gt;Node10 -->
<g id="edge15_Node000010_Node000011" class="edge">
<title>Node11&#45;&gt;Node10</title>
<g id="a_edge15_Node000010_Node000011"><a xlink:title=" ">
<path fill="none" stroke="#63b8ff" d="M218.45,-257.74C234.45,-255.28 252.18,-252.55 266.84,-250.29"/>
<polygon fill="#63b8ff" stroke="#63b8ff" points="217.6,-254.33 208.25,-259.31 218.66,-261.25 217.6,-254.33"/>
</a>
</g>
</g>
<!-- Node12 -->
<g id="Node000012" class="node">
<title>Node12</title>
<g id="a_Node000012"><a xlink:href="classFifoRdFsm.html" target="_top" xlink:title=" ">
<polygon fill="white" stroke="#bfbfbf" points="207.5,-198 139.5,-198 139.5,-179 207.5,-179 207.5,-198"/>
<text text-anchor="middle" x="173.5" y="-186" font-family="Helvetica,sans-Serif" font-size="10.00">FifoRdFsm</text>
</a>
</g>
</g>
<!-- Node12&#45;&gt;Node10 -->
<g id="edge16_Node000010_Node000012" class="edge">
<title>Node12&#45;&gt;Node10</title>
<g id="a_edge16_Node000010_Node000012"><a xlink:title=" ">
<path fill="none" stroke="#63b8ff" d="M207.02,-201.94C214.9,-205.31 223.29,-208.97 231,-212.5 247.5,-220.06 265.99,-229.22 279.36,-235.97"/>
<polygon fill="#63b8ff" stroke="#63b8ff" points="208.29,-198.68 197.72,-198.02 205.57,-205.13 208.29,-198.68"/>
</a>
</g>
</g>
<!-- Node13 -->
<g id="Node000013" class="node">
<title>Node13</title>
<g id="a_Node000013"><a xlink:href="classSimpleDualPortRam.html" target="_top" xlink:title=" ">
<polygon fill="white" stroke="#bfbfbf" points="231,-348 116,-348 116,-329 231,-329 231,-348"/>
<text text-anchor="middle" x="173.5" y="-336" font-family="Helvetica,sans-Serif" font-size="10.00">SimpleDualPortRam</text>
</a>
</g>
</g>
<!-- Node13&#45;&gt;Node10 -->
<g id="edge17_Node000010_Node000013" class="edge">
<title>Node13&#45;&gt;Node10</title>
<g id="a_edge17_Node000010_Node000013"><a xlink:title=" ">
<path fill="none" stroke="#63b8ff" d="M223.33,-324.85C225.99,-323.52 228.57,-322.07 231,-320.5 258.4,-302.74 281.52,-270.91 291.99,-255.04"/>
<polygon fill="#63b8ff" stroke="#63b8ff" points="221.79,-321.7 214.03,-328.91 224.59,-328.11 221.79,-321.7"/>
</a>
</g>
</g>
<!-- Node14 -->
<g id="Node000014" class="node">
<title>Node14</title>
<g id="a_Node000014"><a xlink:href="classFifoOutputPipeline.html" target="_top" xlink:title=" ">
<polygon fill="white" stroke="#bfbfbf" points="227,-311 120,-311 120,-292 227,-292 227,-311"/>
<text text-anchor="middle" x="173.5" y="-299" font-family="Helvetica,sans-Serif" font-size="10.00">FifoOutputPipeline</text>
</a>
</g>
</g>
<!-- Node14&#45;&gt;Node10 -->
<g id="edge18_Node000010_Node000014" class="edge">
<title>Node14&#45;&gt;Node10</title>
<g id="a_edge18_Node000010_Node000014"><a xlink:title=" ">
<path fill="none" stroke="#63b8ff" d="M218.05,-288.64C222.47,-287.03 226.86,-285.31 231,-283.5 249.75,-275.3 270.02,-263.33 283.29,-255.02"/>
<polygon fill="#63b8ff" stroke="#63b8ff" points="216.7,-285.4 208.39,-291.97 218.98,-292.02 216.7,-285.4"/>
</a>
</g>
</g>
<!-- Node17 -->
<g id="Node000017" class="node">
<title>Node17</title>
<g id="a_Node000017"><a xlink:href="classHtspCore.html" target="_top" xlink:title=" ">
<polygon fill="white" stroke="orangered" points="1323.5,-645 1261.5,-645 1261.5,-626 1323.5,-626 1323.5,-645"/>
<text text-anchor="middle" x="1292.5" y="-633" font-family="Helvetica,sans-Serif" font-size="10.00">HtspCore</text>
</a>
</g>
</g>
<!-- Node16&#45;&gt;Node17 -->
<g id="edge21_Node000016_Node000017" class="edge">
<title>Node16&#45;&gt;Node17</title>
<g id="a_edge21_Node000016_Node000017"><a xlink:title=" ">
<path fill="none" stroke="#63b8ff" d="M1157.11,-573.38C1169.8,-576.3 1183.76,-580.27 1196,-585.5 1213.46,-592.96 1215.31,-599.44 1232,-608.5 1243.76,-614.89 1257.33,-621.12 1268.53,-625.99"/>
<polygon fill="#63b8ff" stroke="#63b8ff" points="1157.77,-569.94 1147.26,-571.25 1156.29,-576.78 1157.77,-569.94"/>
</a>
</g>
</g>
<!-- Node18 -->
<g id="Node000018" class="node">
<title>Node18</title>
<g id="a_Node000018"><a xlink:href="classHtspCoreTb.html" target="_top" xlink:title=" ">
<polygon fill="white" stroke="#bfbfbf" points="1482,-650 1408,-650 1408,-631 1482,-631 1482,-650"/>
<text text-anchor="middle" x="1445" y="-638" font-family="Helvetica,sans-Serif" font-size="10.00">HtspCoreTb</text>
</a>
</g>
</g>
<!-- Node17&#45;&gt;Node18 -->
<g id="edge22_Node000017_Node000018" class="edge">
<title>Node17&#45;&gt;Node18</title>
<g id="a_edge22_Node000017_Node000018"><a xlink:title=" ">
<path fill="none" stroke="#63b8ff" d="M1333.75,-636.84C1356.81,-637.6 1385.52,-638.56 1407.86,-639.3"/>
<polygon fill="#63b8ff" stroke="#63b8ff" points="1333.7,-633.33 1323.59,-636.5 1333.47,-640.33 1333.7,-633.33"/>
</a>
</g>
</g>
<!-- Node22 -->
<g id="Node000022" class="node">
<title>Node22</title>
<g id="a_Node000022"><a xlink:href="classJesd204bRx.html" target="_top" xlink:title=" ">
<polygon fill="white" stroke="orangered" points="1329.5,-389 1255.5,-389 1255.5,-370 1329.5,-370 1329.5,-389"/>
<text text-anchor="middle" x="1292.5" y="-377" font-family="Helvetica,sans-Serif" font-size="10.00">Jesd204bRx</text>
</a>
</g>
</g>
<!-- Node21&#45;&gt;Node22 -->
<g id="edge24_Node000021_Node000022" class="edge">
<title>Node21&#45;&gt;Node22</title>
<g id="a_edge24_Node000021_Node000022"><a xlink:title=" ">
<path fill="none" stroke="#63b8ff" d="M1161.28,-379.5C1190.24,-379.5 1227.92,-379.5 1255.29,-379.5"/>
<polygon fill="#63b8ff" stroke="#63b8ff" points="1161.04,-376 1151.04,-379.5 1161.04,-383 1161.04,-376"/>
</a>
</g>
</g>
<!-- Node25 -->
<g id="Node000025" class="node">
<title>Node25</title>
<g id="a_Node000025"><a xlink:href="classJesd204bTx.html" target="_top" xlink:title=" ">
<polygon fill="white" stroke="orangered" points="1329,-352 1256,-352 1256,-333 1329,-333 1329,-352"/>
<text text-anchor="middle" x="1292.5" y="-340" font-family="Helvetica,sans-Serif" font-size="10.00">Jesd204bTx</text>
</a>
</g>
</g>
<!-- Node24&#45;&gt;Node25 -->
<g id="edge26_Node000024_Node000025" class="edge">
<title>Node24&#45;&gt;Node25</title>
<g id="a_edge26_Node000024_Node000025"><a xlink:title=" ">
<path fill="none" stroke="#63b8ff" d="M1161.35,-342.5C1190.52,-342.5 1228.5,-342.5 1255.89,-342.5"/>
<polygon fill="#63b8ff" stroke="#63b8ff" points="1161.04,-339 1151.04,-342.5 1161.04,-346 1161.04,-339"/>
</a>
</g>
</g>
<!-- Node27 -->
<g id="Node000027" class="node">
<title>Node27</title>
<g id="a_Node000027"><a xlink:href="classPgp3Core.html" target="_top" xlink:title=" ">
<polygon fill="white" stroke="orangered" points="1324,-315 1261,-315 1261,-296 1324,-296 1324,-315"/>
<text text-anchor="middle" x="1292.5" y="-303" font-family="Helvetica,sans-Serif" font-size="10.00">Pgp3Core</text>
</a>
</g>
</g>
<!-- Node26&#45;&gt;Node27 -->
<g id="edge28_Node000026_Node000027" class="edge">
<title>Node26&#45;&gt;Node27</title>
<g id="a_edge28_Node000026_Node000027"><a xlink:title=" ">
<path fill="none" stroke="#63b8ff" d="M1158.35,-305.5C1189.59,-305.5 1232.23,-305.5 1260.75,-305.5"/>
<polygon fill="#63b8ff" stroke="#63b8ff" points="1158.22,-302 1148.22,-305.5 1158.22,-309 1158.22,-302"/>
</a>
</g>
</g>
<!-- Node38 -->
<g id="Node000038" class="node">
<title>Node38</title>
<g id="a_Node000038"><a xlink:href="classPgp4Core.html" target="_top" xlink:title=" ">
<polygon fill="white" stroke="orangered" points="1324,-544 1261,-544 1261,-525 1324,-525 1324,-544"/>
<text text-anchor="middle" x="1292.5" y="-532" font-family="Helvetica,sans-Serif" font-size="10.00">Pgp4Core</text>
</a>
</g>
</g>
<!-- Node37&#45;&gt;Node38 -->
<g id="edge30_Node000037_Node000038" class="edge">
<title>Node37&#45;&gt;Node38</title>
<g id="a_edge30_Node000037_Node000038"><a xlink:title=" ">
<path fill="none" stroke="#63b8ff" d="M1158.35,-530.66C1189.59,-531.56 1232.23,-532.79 1260.75,-533.61"/>
<polygon fill="#63b8ff" stroke="#63b8ff" points="1158.32,-527.16 1148.22,-530.37 1158.12,-534.16 1158.32,-527.16"/>
</a>
</g>
</g>
<!-- Node49 -->
<g id="Node000049" class="node">
<title>Node49</title>
<g id="a_Node000049"><a xlink:href="classPgp4CoreLite.html" target="_top" xlink:title=" ">
<polygon fill="white" stroke="orangered" points="1333,-599 1252,-599 1252,-580 1333,-580 1333,-599"/>
<text text-anchor="middle" x="1292.5" y="-587" font-family="Helvetica,sans-Serif" font-size="10.00">Pgp4CoreLite</text>
</a>
</g>
</g>
<!-- Node37&#45;&gt;Node49 -->
<g id="edge32_Node000037_Node000049" class="edge">
<title>Node37&#45;&gt;Node49</title>
<g id="a_edge32_Node000037_Node000049"><a xlink:title=" ">
<path fill="none" stroke="#63b8ff" d="M1158.28,-537.96C1170.52,-540.89 1183.92,-544.47 1196,-548.5 1222.87,-557.47 1252.7,-570.86 1271.76,-579.87"/>
<polygon fill="#63b8ff" stroke="#63b8ff" points="1158.87,-534.5 1148.33,-535.65 1157.29,-541.32 1158.87,-534.5"/>
</a>
</g>
</g>
<!-- Node39 -->
<g id="Node000039" class="node">
<title>Node39</title>
<g id="a_Node000039"><a xlink:href="classPgp4Tb.html" target="_top" xlink:title=" ">
<polygon fill="white" stroke="#bfbfbf" points="1471.5,-576 1418.5,-576 1418.5,-557 1471.5,-557 1471.5,-576"/>
<text text-anchor="middle" x="1445" y="-564" font-family="Helvetica,sans-Serif" font-size="10.00">Pgp4Tb</text>
</a>
</g>
</g>
<!-- Node38&#45;&gt;Node39 -->
<g id="edge31_Node000038_Node000039" class="edge">
<title>Node38&#45;&gt;Node39</title>
<g id="a_edge31_Node000038_Node000039"><a xlink:title=" ">
<path fill="none" stroke="#63b8ff" d="M1334.17,-543.15C1360.94,-548.84 1395.16,-556.11 1418.23,-561.02"/>
<polygon fill="#63b8ff" stroke="#63b8ff" points="1334.83,-539.71 1324.32,-541.05 1333.37,-546.56 1334.83,-539.71"/>
</a>
</g>
</g>
<!-- Node50 -->
<g id="Node000050" class="node">
<title>Node50</title>
<g id="a_Node000050"><a xlink:href="classPgp4CoreLiteTb.html" target="_top" xlink:title=" ">
<polygon fill="white" stroke="#bfbfbf" points="1491.5,-613 1398.5,-613 1398.5,-594 1491.5,-594 1491.5,-613"/>
<text text-anchor="middle" x="1445" y="-601" font-family="Helvetica,sans-Serif" font-size="10.00">Pgp4CoreLiteTb</text>
</a>
</g>
</g>
<!-- Node49&#45;&gt;Node50 -->
<g id="edge33_Node000049_Node000050" class="edge">
<title>Node49&#45;&gt;Node50</title>
<g id="a_edge33_Node000049_Node000050"><a xlink:title=" ">
<path fill="none" stroke="#63b8ff" d="M1343.22,-594.13C1360.99,-595.78 1380.92,-597.63 1398.33,-599.25"/>
<polygon fill="#63b8ff" stroke="#63b8ff" points="1343.32,-590.62 1333.04,-593.18 1342.67,-597.59 1343.32,-590.62"/>
</a>
</g>
</g>
<!-- Node52 -->
<g id="Node000052" class="node">
<title>Node52</title>
<g id="a_Node000052"><a xlink:href="classPgp4LiteRxLowSpeed.html" target="_top" xlink:title=" ">
<polygon fill="white" stroke="orangered" points="1353,-278 1232,-278 1232,-259 1353,-259 1353,-278"/>
<text text-anchor="middle" x="1292.5" y="-266" font-family="Helvetica,sans-Serif" font-size="10.00">Pgp4LiteRxLowSpeed</text>
</a>
</g>
</g>
<!-- Node53&#45;&gt;Node52 -->
<g id="edge35_Node000053_Node000052" class="edge">
<title>Node53&#45;&gt;Node52</title>
<g id="a_edge35_Node000053_Node000052"><a xlink:title=" ">
<path fill="none" stroke="#63b8ff" d="M1197.24,-268.5C1208.9,-268.5 1220.74,-268.5 1231.9,-268.5"/>
<polygon fill="#63b8ff" stroke="#63b8ff" points="1197.07,-265 1187.07,-268.5 1197.07,-272 1197.07,-265"/>
</a>
</g>
</g>
<!-- Node54&#45;&gt;Node18 -->
<g id="edge39_Node000054_Node000018" class="edge">
<title>Node54&#45;&gt;Node18</title>
<g id="a_edge39_Node000054_Node000018"><a xlink:title=" ">
<path fill="none" stroke="#63b8ff" d="M1313.48,-471.8C1326.3,-483.16 1342.47,-499.33 1353,-516.5 1379.01,-558.91 1353.62,-587.51 1389,-622.5 1394.21,-627.66 1400.93,-631.34 1407.86,-633.96"/>
<polygon fill="#63b8ff" stroke="#63b8ff" points="1315.5,-468.91 1305.63,-465.05 1310.94,-474.22 1315.5,-468.91"/>
</a>
</g>
</g>
<!-- Node54&#45;&gt;Node39 -->
<g id="edge41_Node000054_Node000039" class="edge">
<title>Node54&#45;&gt;Node39</title>
<g id="a_edge41_Node000054_Node000039"><a xlink:title=" ">
<path fill="none" stroke="#63b8ff" d="M1310.09,-472.46C1334.95,-497.76 1379.93,-543.01 1389,-548.5 1397.94,-553.91 1408.69,-557.89 1418.31,-560.72"/>
<polygon fill="#63b8ff" stroke="#63b8ff" points="1312.29,-469.72 1302.79,-465.03 1307.3,-474.62 1312.29,-469.72"/>
</a>
</g>
</g>
<!-- Node54&#45;&gt;Node50 -->
<g id="edge40_Node000054_Node000050" class="edge">
<title>Node54&#45;&gt;Node50</title>
<g id="a_edge40_Node000054_Node000050"><a xlink:title=" ">
<path fill="none" stroke="#63b8ff" d="M1312.19,-471.94C1324.71,-483.58 1341.04,-499.99 1353,-516.5 1373.29,-544.51 1362.61,-563.13 1389,-585.5 1393.06,-588.94 1397.8,-591.73 1402.76,-593.99"/>
<polygon fill="#63b8ff" stroke="#63b8ff" points="1314.34,-469.17 1304.59,-465.03 1309.63,-474.35 1314.34,-469.17"/>
</a>
</g>
</g>
<!-- Node55 -->
<g id="Node000055" class="node">
<title>Node55</title>
<g id="a_Node000055"><a xlink:href="classAxiStreamMuxTb.html" target="_top" xlink:title=" ">
<polygon fill="white" stroke="#bfbfbf" points="1495.5,-428 1394.5,-428 1394.5,-409 1495.5,-409 1495.5,-428"/>
<text text-anchor="middle" x="1445" y="-416" font-family="Helvetica,sans-Serif" font-size="10.00">AxiStreamMuxTb</text>
</a>
</g>
</g>
<!-- Node54&#45;&gt;Node55 -->
<g id="edge37_Node000054_Node000055" class="edge">
<title>Node54&#45;&gt;Node55</title>
<g id="a_edge37_Node000054_Node000055"><a xlink:title=" ">
<path fill="none" stroke="#63b8ff" d="M1334.77,-445.35C1356.77,-439.94 1383.67,-433.33 1405.27,-428.02"/>
<polygon fill="#63b8ff" stroke="#63b8ff" points="1333.92,-441.96 1325.05,-447.74 1335.6,-448.75 1333.92,-441.96"/>
</a>
</g>
</g>
<!-- Node56 -->
<g id="Node000056" class="node">
<title>Node56</title>
<g id="a_Node000056"><a xlink:href="classAxiStreamResizeTb.html" target="_top" xlink:title=" ">
<polygon fill="white" stroke="#bfbfbf" points="1501,-391 1389,-391 1389,-372 1501,-372 1501,-391"/>
<text text-anchor="middle" x="1445" y="-379" font-family="Helvetica,sans-Serif" font-size="10.00">AxiStreamResizeTb</text>
</a>
</g>
</g>
<!-- Node54&#45;&gt;Node56 -->
<g id="edge38_Node000054_Node000056" class="edge">
<title>Node54&#45;&gt;Node56</title>
<g id="a_edge38_Node000054_Node000056"><a xlink:title=" ">
<path fill="none" stroke="#63b8ff" d="M1332.15,-442.06C1339.29,-438.99 1346.53,-435.44 1353,-431.5 1371.03,-420.51 1370.69,-411.02 1389,-400.5 1395.48,-396.77 1402.81,-393.61 1409.96,-391.01"/>
<polygon fill="#63b8ff" stroke="#63b8ff" points="1330.51,-438.96 1322.56,-445.96 1333.14,-445.44 1330.51,-438.96"/>
</a>
</g>
</g>
<!-- Node57 -->
<g id="Node000057" class="node">
<title>Node57</title>
<g id="a_Node000057"><a xlink:href="classPgp4TxLiteTb.html" target="_top" xlink:title=" ">
<polygon fill="white" stroke="#bfbfbf" points="1486.5,-354 1403.5,-354 1403.5,-335 1486.5,-335 1486.5,-354"/>
<text text-anchor="middle" x="1445" y="-342" font-family="Helvetica,sans-Serif" font-size="10.00">Pgp4TxLiteTb</text>
</a>
</g>
</g>
<!-- Node54&#45;&gt;Node57 -->
<g id="edge42_Node000054_Node000057" class="edge">
<title>Node54&#45;&gt;Node57</title>
<g id="a_edge42_Node000054_Node000057"><a xlink:title=" ">
<path fill="none" stroke="#63b8ff" d="M1334.82,-443.28C1341.37,-440.14 1347.72,-436.26 1353,-431.5 1378.4,-408.6 1363.03,-385.75 1389,-363.5 1393.53,-359.62 1398.89,-356.52 1404.46,-354.05"/>
<polygon fill="#63b8ff" stroke="#63b8ff" points="1333.01,-440.24 1325.17,-447.37 1335.75,-446.69 1333.01,-440.24"/>
</a>
</g>
</g>
<!-- Node58 -->
<g id="Node000058" class="node">
<title>Node58</title>
<g id="a_Node000058"><a xlink:href="classRssiInterleaveTb.html" target="_top" xlink:title=" ">
<polygon fill="white" stroke="#bfbfbf" points="1494,-317 1396,-317 1396,-298 1494,-298 1494,-317"/>
<text text-anchor="middle" x="1445" y="-305" font-family="Helvetica,sans-Serif" font-size="10.00">RssiInterleaveTb</text>
</a>
</g>
</g>
<!-- Node54&#45;&gt;Node58 -->
<g id="edge43_Node000054_Node000058" class="edge">
<title>Node54&#45;&gt;Node58</title>
<g id="a_edge43_Node000054_Node000058"><a xlink:title=" ">
<path fill="none" stroke="#63b8ff" d="M1334.61,-444.38C1341.4,-441.1 1347.89,-436.89 1353,-431.5 1386.95,-395.7 1354.16,-361.42 1389,-326.5 1392.85,-322.64 1397.53,-319.56 1402.51,-317.11"/>
<polygon fill="#63b8ff" stroke="#63b8ff" points="1333.12,-441.21 1325.24,-448.3 1335.82,-447.67 1333.12,-441.21"/>
</a>
</g>
</g>
<!-- Node59 -->
<g id="Node000059" class="node">
<title>Node59</title>
<g id="a_Node000059"><a xlink:href="classSsiFifoTb.html" target="_top" xlink:title=" ">
<polygon fill="white" stroke="#bfbfbf" points="1475.5,-280 1414.5,-280 1414.5,-261 1475.5,-261 1475.5,-280"/>
<text text-anchor="middle" x="1445" y="-268" font-family="Helvetica,sans-Serif" font-size="10.00">SsiFifoTb</text>
</a>
</g>
</g>
<!-- Node54&#45;&gt;Node59 -->
<g id="edge44_Node000054_Node000059" class="edge">
<title>Node54&#45;&gt;Node59</title>
<g id="a_edge44_Node000054_Node000059"><a xlink:title=" ">
<path fill="none" stroke="#63b8ff" d="M1334.56,-444.92C1341.47,-441.58 1348.01,-437.21 1353,-431.5 1395.83,-382.46 1344.94,-337.44 1389,-289.5 1395.63,-282.28 1405.13,-277.81 1414.38,-275.03"/>
<polygon fill="#63b8ff" stroke="#63b8ff" points="1332.91,-441.81 1325,-448.86 1335.58,-448.28 1332.91,-441.81"/>
</a>
</g>
</g>
<!-- Node60 -->
<g id="Node000060" class="node">
<title>Node60</title>
<g id="a_Node000060"><a xlink:href="classSsiPrbsTb.html" target="_top" xlink:title=" ">
<polygon fill="white" stroke="#bfbfbf" points="1477,-243 1413,-243 1413,-224 1477,-224 1477,-243"/>
<text text-anchor="middle" x="1445" y="-231" font-family="Helvetica,sans-Serif" font-size="10.00">SsiPrbsTb</text>
</a>
</g>
</g>
<!-- Node54&#45;&gt;Node60 -->
<g id="edge45_Node000054_Node000060" class="edge">
<title>Node54&#45;&gt;Node60</title>
<g id="a_edge45_Node000054_Node000060"><a xlink:title=" ">
<path fill="none" stroke="#63b8ff" d="M1334.79,-445.12C1341.68,-441.76 1348.16,-437.33 1353,-431.5 1404.84,-369.07 1335.59,-313.6 1389,-252.5 1395.12,-245.5 1403.94,-241.08 1412.74,-238.29"/>
<polygon fill="#63b8ff" stroke="#63b8ff" points="1333.14,-442.01 1325.24,-449.06 1335.82,-448.48 1333.14,-442.01"/>
</a>
</g>
</g>
<!-- Node61 -->
<g id="Node000061" class="node">
<title>Node61</title>
<g id="a_Node000061"><a xlink:href="classEthMacPauseTb.html" target="_top" xlink:title=" ">
<polygon fill="white" stroke="#bfbfbf" points="1491.5,-539 1398.5,-539 1398.5,-520 1491.5,-520 1491.5,-539"/>
<text text-anchor="middle" x="1445" y="-527" font-family="Helvetica,sans-Serif" font-size="10.00">EthMacPauseTb</text>
</a>
</g>
</g>
<!-- Node54&#45;&gt;Node61 -->
<g id="edge46_Node000054_Node000061" class="edge">
<title>Node54&#45;&gt;Node61</title>
<g id="a_edge46_Node000054_Node000061"><a xlink:title=" ">
<path fill="none" stroke="#63b8ff" d="M1316.05,-470.59C1334.95,-482.77 1362.95,-499.76 1389,-511.5 1395.96,-514.64 1403.64,-517.5 1410.99,-519.97"/>
<polygon fill="#63b8ff" stroke="#63b8ff" points="1317.83,-467.57 1307.55,-465.04 1314,-473.43 1317.83,-467.57"/>
</a>
</g>
</g>
<!-- Node54&#45;&gt;Node62 -->
<g id="edge47_Node000054_Node000062" class="edge">
<title>Node54&#45;&gt;Node62</title>
<g id="a_edge47_Node000054_Node000062"><a xlink:title=" ">
<path fill="none" stroke="#63b8ff" d="M1334.74,-445.35C1341.7,-441.97 1348.21,-437.47 1353,-431.5 1414.16,-355.23 1325.32,-288.67 1389,-214.5 1391.95,-211.07 1395.55,-208.29 1399.5,-206.04"/>
<polygon fill="#63b8ff" stroke="#63b8ff" points="1333.02,-442.28 1325.09,-449.31 1335.67,-448.75 1333.02,-442.28"/>
</a>
</g>
</g>
<!-- Node63 -->
<g id="Node000063" class="node">
<title>Node63</title>
<g id="a_Node000063"><a xlink:href="classUdpEngineTb.html" target="_top" xlink:title=" ">
<polygon fill="white" stroke="#bfbfbf" points="1485.5,-502 1404.5,-502 1404.5,-483 1485.5,-483 1485.5,-502"/>
<text text-anchor="middle" x="1445" y="-490" font-family="Helvetica,sans-Serif" font-size="10.00">UdpEngineTb</text>
</a>
</g>
</g>
<!-- Node54&#45;&gt;Node63 -->
<g id="edge48_Node000054_Node000063" class="edge">
<title>Node54&#45;&gt;Node63</title>
<g id="a_edge48_Node000054_Node000063"><a xlink:title=" ">
<path fill="none" stroke="#63b8ff" d="M1334.77,-465.65C1356.77,-471.06 1383.67,-477.67 1405.27,-482.98"/>
<polygon fill="#63b8ff" stroke="#63b8ff" points="1335.6,-462.25 1325.05,-463.26 1333.92,-469.04 1335.6,-462.25"/>
</a>
</g>
</g>
<!-- Node20 -->
<g id="Node000020" class="node">
<title>Node20</title>
<g id="a_Node000020"><a xlink:href="classHtspCaui4GtyTb.html" target="_top" xlink:title=" ">
<polygon fill="white" stroke="orangered" points="1493,-465 1397,-465 1397,-446 1493,-446 1493,-465"/>
<text text-anchor="middle" x="1445" y="-453" font-family="Helvetica,sans-Serif" font-size="10.00">HtspCaui4GtyTb</text>
</a>
</g>
</g>
<!-- Node54&#45;&gt;Node20 -->
<g id="edge49_Node000054_Node000020" class="edge">
<title>Node54&#45;&gt;Node20</title>
<g id="a_edge49_Node000054_Node000020"><a xlink:title=" ">
<path fill="none" stroke="#63b8ff" d="M1335.24,-455.5C1354.34,-455.5 1377.05,-455.5 1396.76,-455.5"/>
<polygon fill="#63b8ff" stroke="#63b8ff" points="1335.05,-452 1325.05,-455.5 1335.05,-459 1335.05,-452"/>
</a>
</g>
</g>
</g>
</svg>

<g id="navigator" transform="translate(0 0)" fill="#404254">
  <rect fill="#f2f5e9" fill-opacity="0.5" stroke="#606060" stroke-width=".5" x="0" y="0" width="60" height="60"/>
  <use id="zoomplus" xlink:href="#zoomPlus" x="17" y="9" onmousedown="handleZoom(evt,'in')"/>
  <use id="zoomminus" xlink:href="#zoomMin" x="42" y="9" onmousedown="handleZoom(evt,'out')"/>
  <use id="reset" xlink:href="#resetDef" x="30" y="36" onmousedown="handleReset()"/>
   <use id="arrowup" xlink:href="#arrowUp" x="0" y="0" onmousedown="handlePan(0,-1)"/>
  <use id="arrowright" xlink:href="#arrowRight" x="0" y="0" onmousedown="handlePan(1,0)"/>
  <use id="arrowdown" xlink:href="#arrowDown" x="0" y="0" onmousedown="handlePan(0,1)"/>
  <use id="arrowleft" xlink:href="#arrowLeft" x="0" y="0" onmousedown="handlePan(-1,0)"/>
</g>
<svg viewBox="0 0 15 15" width="100%" height="30px" preserveAspectRatio="xMaxYMin meet">
 <g id="arrow_out" transform="scale(0.3 0.3)">
  <a xlink:href="classSyncStatusVector__inherit__graph_org.svg" target="_base">
   <rect id="button" ry="5" rx="5" y="6" x="6" height="38" width="38"
        fill="#f2f5e9" fill-opacity="0.5" stroke="#606060" stroke-width="1.0"/>
   <path id="arrow"
     d="M 11.500037,31.436501 C 11.940474,20.09759 22.043105,11.32322 32.158766,21.979434 L 37.068811,17.246167 C 37.068811,17.246167 37.088388,32 37.088388,32 L 22.160133,31.978069 C 22.160133,31.978069 26.997745,27.140456 26.997745,27.140456 C 18.528582,18.264221 13.291696,25.230495 11.500037,31.436501 z"
     style="fill:#404040;"/>
  </a>
 </g>
</svg>

<style type='text/css'>
<![CDATA[
[data-mouse-over-selected='false'] { opacity: 0.7; }
[data-mouse-over-selected='true']  { opacity: 1.0; }
]]>
</style>
<script type="application/ecmascript"><![CDATA[
document.addEventListener('DOMContentLoaded', (event) => {
  highlightEdges();
  highlightAdjacentNodes();
});
]]></script>
</svg>
