<?xml version="1.0" encoding="UTF-8" standalone="no"?>
<!DOCTYPE svg PUBLIC "-//W3C//DTD SVG 1.1//EN"
 "http://www.w3.org/Graphics/SVG/1.1/DTD/svg11.dtd">
<!-- Generated by graphviz version 2.43.0 (0)
 -->
<!-- Title: Pgp4TxProtocol Pages: 1 -->
<svg width="497pt" height="252pt"
 viewBox="0.00 0.00 497.00 252.00" xmlns="http://www.w3.org/2000/svg" xmlns:xlink="http://www.w3.org/1999/xlink">
<g id="graph0" class="graph" transform="scale(1 1) rotate(0) translate(4 248)">
<title>Pgp4TxProtocol</title>
<polygon fill="white" stroke="transparent" points="-4,4 -4,-248 493,-248 493,4 -4,4"/>
<!-- Node1 -->
<g id="node1" class="node">
<title>Node1</title>
<g id="a_node1"><a xlink:title=" ">
<polygon fill="#bfbfbf" stroke="black" points="226,-224.5 226,-243.5 318,-243.5 318,-224.5 226,-224.5"/>
<text text-anchor="middle" x="272" y="-231.5" font-family="Helvetica,sans-Serif" font-size="10.00">Pgp4TxProtocol</text>
</a>
</g>
</g>
<!-- Node2 -->
<g id="node2" class="node">
<title>Node2</title>
<g id="a_node2"><a xlink:href="classPgp4Tx.html" target="_top" xlink:title=" ">
<polygon fill="white" stroke="black" points="245.5,-168.5 245.5,-187.5 298.5,-187.5 298.5,-168.5 245.5,-168.5"/>
<text text-anchor="middle" x="272" y="-175.5" font-family="Helvetica,sans-Serif" font-size="10.00">Pgp4Tx</text>
</a>
</g>
</g>
<!-- Node1&#45;&gt;Node2 -->
<g id="edge1" class="edge">
<title>Node1&#45;&gt;Node2</title>
<path fill="none" stroke="midnightblue" d="M272,-213.8C272,-204.91 272,-194.78 272,-187.75"/>
<polygon fill="midnightblue" stroke="midnightblue" points="268.5,-214.08 272,-224.08 275.5,-214.08 268.5,-214.08"/>
</g>
<!-- Node3 -->
<g id="node3" class="node">
<title>Node3</title>
<g id="a_node3"><a xlink:href="classPgp4Core.html" target="_top" xlink:title=" ">
<polygon fill="white" stroke="black" points="202.5,-112.5 202.5,-131.5 265.5,-131.5 265.5,-112.5 202.5,-112.5"/>
<text text-anchor="middle" x="234" y="-119.5" font-family="Helvetica,sans-Serif" font-size="10.00">Pgp4Core</text>
</a>
</g>
</g>
<!-- Node2&#45;&gt;Node3 -->
<g id="edge2" class="edge">
<title>Node2&#45;&gt;Node3</title>
<path fill="none" stroke="midnightblue" d="M254.06,-160.43C246.51,-150.97 238.81,-139.48 235.03,-131.75"/>
<polygon fill="midnightblue" stroke="midnightblue" points="251.42,-162.73 260.56,-168.08 256.75,-158.2 251.42,-162.73"/>
</g>
<!-- Node2&#45;&gt;Node3 -->
<g id="edge12" class="edge">
<title>Node2&#45;&gt;Node3</title>
<path fill="none" stroke="midnightblue" d="M265.91,-159.27C260.17,-150.05 252.1,-139.17 245.29,-131.75"/>
<polygon fill="midnightblue" stroke="midnightblue" points="262.92,-161.1 270.89,-168.08 269.01,-157.66 262.92,-161.1"/>
</g>
<!-- Node12 -->
<g id="node12" class="node">
<title>Node12</title>
<g id="a_node12"><a xlink:href="classPgp4Tb.html" target="_top" xlink:title=" ">
<polygon fill="white" stroke="black" points="283.5,-112.5 283.5,-131.5 336.5,-131.5 336.5,-112.5 283.5,-112.5"/>
<text text-anchor="middle" x="310" y="-119.5" font-family="Helvetica,sans-Serif" font-size="10.00">Pgp4Tb</text>
</a>
</g>
</g>
<!-- Node2&#45;&gt;Node12 -->
<g id="edge11" class="edge">
<title>Node2&#45;&gt;Node12</title>
<path fill="none" stroke="midnightblue" d="M278.09,-159.27C283.83,-150.05 291.9,-139.17 298.71,-131.75"/>
<polygon fill="midnightblue" stroke="midnightblue" points="274.99,-157.66 273.11,-168.08 281.08,-161.1 274.99,-157.66"/>
</g>
<!-- Node2&#45;&gt;Node12 -->
<g id="edge13" class="edge">
<title>Node2&#45;&gt;Node12</title>
<path fill="none" stroke="midnightblue" d="M289.94,-160.43C297.49,-150.97 305.19,-139.48 308.97,-131.75"/>
<polygon fill="midnightblue" stroke="midnightblue" points="287.25,-158.2 283.44,-168.08 292.58,-162.73 287.25,-158.2"/>
</g>
<!-- Node4 -->
<g id="node4" class="node">
<title>Node4</title>
<g id="a_node4"><a xlink:href="classPgp4GthUs.html" target="_top" xlink:title=" ">
<polygon fill="white" stroke="black" points="51.5,-56.5 51.5,-75.5 122.5,-75.5 122.5,-56.5 51.5,-56.5"/>
<text text-anchor="middle" x="87" y="-63.5" font-family="Helvetica,sans-Serif" font-size="10.00">Pgp4GthUs</text>
</a>
</g>
</g>
<!-- Node3&#45;&gt;Node4 -->
<g id="edge3" class="edge">
<title>Node3&#45;&gt;Node4</title>
<path fill="none" stroke="midnightblue" d="M201.08,-108.91C173.44,-98.75 134.66,-84.51 110.18,-75.52"/>
<polygon fill="midnightblue" stroke="midnightblue" points="200.11,-112.28 210.71,-112.44 202.53,-105.71 200.11,-112.28"/>
</g>
<!-- Node6 -->
<g id="node6" class="node">
<title>Node6</title>
<g id="a_node6"><a xlink:href="classPgp4Gtp7.html" target="_top" xlink:title=" ">
<polygon fill="white" stroke="black" points="161,-56.5 161,-75.5 225,-75.5 225,-56.5 161,-56.5"/>
<text text-anchor="middle" x="193" y="-63.5" font-family="Helvetica,sans-Serif" font-size="10.00">Pgp4Gtp7</text>
</a>
</g>
</g>
<!-- Node3&#45;&gt;Node6 -->
<g id="edge5" class="edge">
<title>Node3&#45;&gt;Node6</title>
<path fill="none" stroke="midnightblue" d="M220.98,-103.86C213.88,-94.5 205.4,-83.33 199.64,-75.75"/>
<polygon fill="midnightblue" stroke="midnightblue" points="218.39,-106.24 227.23,-112.08 223.97,-102 218.39,-106.24"/>
</g>
<!-- Node8 -->
<g id="node8" class="node">
<title>Node8</title>
<g id="a_node8"><a xlink:href="classPgp4Gtx7.html" target="_top" xlink:title=" ">
<polygon fill="white" stroke="black" points="263,-56.5 263,-75.5 327,-75.5 327,-56.5 263,-56.5"/>
<text text-anchor="middle" x="295" y="-63.5" font-family="Helvetica,sans-Serif" font-size="10.00">Pgp4Gtx7</text>
</a>
</g>
</g>
<!-- Node3&#45;&gt;Node8 -->
<g id="edge7" class="edge">
<title>Node3&#45;&gt;Node8</title>
<path fill="none" stroke="midnightblue" d="M251.47,-105.54C262.34,-95.91 275.94,-83.87 285.02,-75.83"/>
<polygon fill="midnightblue" stroke="midnightblue" points="248.97,-103.07 243.8,-112.32 253.61,-108.32 248.97,-103.07"/>
</g>
<!-- Node10 -->
<g id="node10" class="node">
<title>Node10</title>
<g id="a_node10"><a xlink:href="classPgp4GtyUs.html" target="_top" xlink:title=" ">
<polygon fill="white" stroke="black" points="376.5,-56.5 376.5,-75.5 447.5,-75.5 447.5,-56.5 376.5,-56.5"/>
<text text-anchor="middle" x="412" y="-63.5" font-family="Helvetica,sans-Serif" font-size="10.00">Pgp4GtyUs</text>
</a>
</g>
</g>
<!-- Node3&#45;&gt;Node10 -->
<g id="edge9" class="edge">
<title>Node3&#45;&gt;Node10</title>
<path fill="none" stroke="midnightblue" d="M272.12,-109.44C305.68,-99.26 353.77,-84.66 383.93,-75.52"/>
<polygon fill="midnightblue" stroke="midnightblue" points="270.76,-106.19 262.2,-112.44 272.79,-112.89 270.76,-106.19"/>
</g>
<!-- Node5 -->
<g id="node5" class="node">
<title>Node5</title>
<g id="a_node5"><a xlink:href="classPgp4GthUsWrapper.html" target="_top" xlink:title=" ">
<polygon fill="white" stroke="black" points="0,-0.5 0,-19.5 112,-19.5 112,-0.5 0,-0.5"/>
<text text-anchor="middle" x="56" y="-7.5" font-family="Helvetica,sans-Serif" font-size="10.00">Pgp4GthUsWrapper</text>
</a>
</g>
</g>
<!-- Node4&#45;&gt;Node5 -->
<g id="edge4" class="edge">
<title>Node4&#45;&gt;Node5</title>
<path fill="none" stroke="midnightblue" d="M76.82,-47.27C71.53,-38.05 65.28,-27.17 61.02,-19.75"/>
<polygon fill="midnightblue" stroke="midnightblue" points="73.87,-49.15 81.88,-56.08 79.94,-45.67 73.87,-49.15"/>
</g>
<!-- Node7 -->
<g id="node7" class="node">
<title>Node7</title>
<g id="a_node7"><a xlink:href="classPgp4Gtp7Wrapper.html" target="_top" xlink:title=" ">
<polygon fill="white" stroke="black" points="130.5,-0.5 130.5,-19.5 235.5,-19.5 235.5,-0.5 130.5,-0.5"/>
<text text-anchor="middle" x="183" y="-7.5" font-family="Helvetica,sans-Serif" font-size="10.00">Pgp4Gtp7Wrapper</text>
</a>
</g>
</g>
<!-- Node6&#45;&gt;Node7 -->
<g id="edge6" class="edge">
<title>Node6&#45;&gt;Node7</title>
<path fill="none" stroke="midnightblue" d="M189.5,-46.1C187.84,-37.14 185.94,-26.86 184.62,-19.75"/>
<polygon fill="midnightblue" stroke="midnightblue" points="186.09,-46.89 191.35,-56.08 192.97,-45.61 186.09,-46.89"/>
</g>
<!-- Node9 -->
<g id="node9" class="node">
<title>Node9</title>
<g id="a_node9"><a xlink:href="classPgp4Gtx7Wrapper.html" target="_top" xlink:title=" ">
<polygon fill="white" stroke="black" points="253.5,-0.5 253.5,-19.5 358.5,-19.5 358.5,-0.5 253.5,-0.5"/>
<text text-anchor="middle" x="306" y="-7.5" font-family="Helvetica,sans-Serif" font-size="10.00">Pgp4Gtx7Wrapper</text>
</a>
</g>
</g>
<!-- Node8&#45;&gt;Node9 -->
<g id="edge8" class="edge">
<title>Node8&#45;&gt;Node9</title>
<path fill="none" stroke="midnightblue" d="M298.85,-46.1C300.68,-37.14 302.77,-26.86 304.22,-19.75"/>
<polygon fill="midnightblue" stroke="midnightblue" points="295.38,-45.59 296.82,-56.08 302.24,-46.98 295.38,-45.59"/>
</g>
<!-- Node11 -->
<g id="node11" class="node">
<title>Node11</title>
<g id="a_node11"><a xlink:href="classPgp4GtyUsWrapper.html" target="_top" xlink:title=" ">
<polygon fill="white" stroke="black" points="377,-0.5 377,-19.5 489,-19.5 489,-0.5 377,-0.5"/>
<text text-anchor="middle" x="433" y="-7.5" font-family="Helvetica,sans-Serif" font-size="10.00">Pgp4GtyUsWrapper</text>
</a>
</g>
</g>
<!-- Node10&#45;&gt;Node11 -->
<g id="edge10" class="edge">
<title>Node10&#45;&gt;Node11</title>
<path fill="none" stroke="midnightblue" d="M419.12,-46.69C422.66,-37.59 426.77,-27.01 429.6,-19.75"/>
<polygon fill="midnightblue" stroke="midnightblue" points="415.83,-45.49 415.47,-56.08 422.35,-48.03 415.83,-45.49"/>
</g>
</g>
</svg>
