<?xml version="1.0" encoding="UTF-8" standalone="no"?>
<!DOCTYPE svg PUBLIC "-//W3C//DTD SVG 1.1//EN"
 "http://www.w3.org/Graphics/SVG/1.1/DTD/svg11.dtd">
<!-- Generated by graphviz version 2.43.0 (0)
 -->
<!-- Title: AxiAds42lb69Core Pages: 1 -->
<!--zoomable 352 -->

<svg id="main" version="1.1" xmlns="http://www.w3.org/2000/svg" xmlns:xlink="http://www.w3.org/1999/xlink" xml:space="preserve" onload="init(evt)">
<style type="text/css"><![CDATA[
.node, .edge {opacity: 0.7;}
.node.selected, .edge.selected {opacity: 1;}
.edge:hover path { stroke: red; }
.edge:hover polygon { stroke: red; fill: red; }
]]></style>

<defs>
  <circle id="rim" cx="0" cy="0" r="7"/>
  <circle id="rim2" cx="0" cy="0" r="3.5"/>
  <g id="zoomPlus">
    <use xlink:href="#rim" fill="#404040"><set attributeName="fill" to="#808080" begin="zoomplus.mouseover" end="zoomplus.mouseout"/></use>
    <path d="M-4,0h8M0,-4v8" fill="none" stroke="white" stroke-width="1.5" pointer-events="none"/>
  </g>
  <g id="zoomMin">
    <use xlink:href="#rim" fill="#404040"><set attributeName="fill" to="#808080" begin="zoomminus.mouseover" end="zoomminus.mouseout"/></use>
    <path d="M-4,0h8" fill="none" stroke="white" stroke-width="1.5" pointer-events="none"/>
  </g>
  <g id="arrowUp" transform="translate(30 24)">
    <use xlink:href="#rim"/>
    <path pointer-events="none" fill="none" stroke="white" stroke-width="1.5" d="M0,-3.0v7 M-2.5,-0.5L0,-3.0L2.5,-0.5"/>
  </g>
  <g id="arrowRight" transform="rotate(90) translate(36 -43)">
    <use xlink:href="#rim"/>
    <path pointer-events="none" fill="none" stroke="white" stroke-width="1.5" d="M0,-3.0v7 M-2.5,-0.5L0,-3.0L2.5,-0.5"/>
  </g>
  <g id="arrowDown" transform="rotate(180) translate(-30 -48)">
    <use xlink:href="#rim"/>
    <path pointer-events="none" fill="none" stroke="white" stroke-width="1.5" d="M0,-3.0v7 M-2.5,-0.5L0,-3.0L2.5,-0.5"/>
  </g>
  <g id="arrowLeft" transform="rotate(270) translate(-36 17)">
    <use xlink:href="#rim"/>
    <path pointer-events="none" fill="none" stroke="white" stroke-width="1.5" d="M0,-3.0v7 M-2.5,-0.5L0,-3.0L2.5,-0.5"/>
  </g>
  <g id="resetDef">
    <use xlink:href="#rim2" fill="#404040"><set attributeName="fill" to="#808080" begin="reset.mouseover" end="reset.mouseout"/></use>
  </g>
</defs>
<script type="application/ecmascript">
var viewWidth = 847;
var viewHeight = 352;
var sectionId = 'dynsection-0';
</script>
<script type="application/ecmascript" xlink:href="svg.min.js"/>
<svg id="graph" class="graph">
<g id="viewport">
<title>AxiAds42lb69Core</title>
<!-- Node1 -->
<g id="Node000001" class="node">
<title>Node1</title>
<g id="a_Node000001"><a xlink:title=" ">
<polygon fill="#999999" stroke="#666666" points="839,-306 733,-306 733,-287 839,-287 839,-306"/>
<text text-anchor="middle" x="786" y="-294" font-family="Helvetica,sans-Serif" font-size="10.00">AxiAds42lb69Core</text>
</a>
</g>
</g>
<!-- Node2 -->
<g id="Node000002" class="node">
<title>Node2</title>
<g id="a_Node000002"><a xlink:href="classSynchronizerVector.html" target="_top" xlink:title=" ">
<polygon fill="white" stroke="#bfbfbf" points="228.5,-344 118.5,-344 118.5,-325 228.5,-325 228.5,-344"/>
<text text-anchor="middle" x="173.5" y="-332" font-family="Helvetica,sans-Serif" font-size="10.00">SynchronizerVector</text>
</a>
</g>
</g>
<!-- Node2&#45;&gt;Node1 -->
<g id="edge1_Node000001_Node000002" class="edge">
<title>Node2&#45;&gt;Node1</title>
<g id="a_edge1_Node000001_Node000002"><a xlink:title=" ">
<path fill="none" stroke="#63b8ff" d="M238.66,-335.79C337.5,-336.97 532.81,-336.05 697,-315.5 713.9,-313.38 732.37,-309.63 748,-306.01"/>
<polygon fill="#63b8ff" stroke="#63b8ff" points="238.58,-332.29 228.53,-335.66 238.49,-339.29 238.58,-332.29"/>
</a>
</g>
</g>
<!-- Node5 -->
<g id="Node000005" class="node">
<title>Node5</title>
<g id="a_Node000005"><a xlink:href="classFifoAsync.html" target="_top" xlink:title=" ">
<polygon fill="white" stroke="#bfbfbf" points="359.5,-230 295.5,-230 295.5,-211 359.5,-211 359.5,-230"/>
<text text-anchor="middle" x="327.5" y="-218" font-family="Helvetica,sans-Serif" font-size="10.00">FifoAsync</text>
</a>
</g>
</g>
<!-- Node2&#45;&gt;Node5 -->
<g id="edge7_Node000005_Node000002" class="edge">
<title>Node2&#45;&gt;Node5</title>
<g id="a_edge7_Node000005_Node000002"><a xlink:title=" ">
<path fill="none" stroke="#63b8ff" d="M226.26,-320.07C227.92,-318.97 229.5,-317.78 231,-316.5 258.18,-293.24 240.71,-268.76 267,-244.5 274.94,-237.17 285.41,-231.95 295.34,-228.29"/>
<polygon fill="#63b8ff" stroke="#63b8ff" points="224.55,-317.02 217.49,-324.93 227.94,-323.15 224.55,-317.02"/>
</a>
</g>
</g>
<!-- Node12 -->
<g id="Node000012" class="node">
<title>Node12</title>
<g id="a_Node000012"><a xlink:href="classAxiAds42lb69Deser.html" target="_top" xlink:title=" ">
<polygon fill="white" stroke="#bfbfbf" points="697,-268 585,-268 585,-249 697,-249 697,-268"/>
<text text-anchor="middle" x="641" y="-256" font-family="Helvetica,sans-Serif" font-size="10.00">AxiAds42lb69Deser</text>
</a>
</g>
</g>
<!-- Node2&#45;&gt;Node12 -->
<g id="edge20_Node000012_Node000002" class="edge">
<title>Node2&#45;&gt;Node12</title>
<g id="a_edge20_Node000012_Node000002"><a xlink:title=" ">
<path fill="none" stroke="#63b8ff" d="M219.97,-322.44C269.73,-309.69 352,-289.86 424,-278.5 478.31,-269.93 540.93,-264.63 584.71,-261.66"/>
<polygon fill="#63b8ff" stroke="#63b8ff" points="218.98,-319.09 210.17,-324.97 220.73,-325.86 218.98,-319.09"/>
</a>
</g>
</g>
<!-- Node3 -->
<g id="Node000003" class="node">
<title>Node3</title>
<g id="a_Node000003"><a xlink:href="classAxiAds42lb69Reg.html" target="_top" xlink:title=" ">
<polygon fill="white" stroke="#bfbfbf" points="692,-306 590,-306 590,-287 692,-287 692,-306"/>
<text text-anchor="middle" x="641" y="-294" font-family="Helvetica,sans-Serif" font-size="10.00">AxiAds42lb69Reg</text>
</a>
</g>
</g>
<!-- Node3&#45;&gt;Node1 -->
<g id="edge2_Node000001_Node000003" class="edge">
<title>Node3&#45;&gt;Node1</title>
<g id="a_edge2_Node000001_Node000003"><a xlink:title=" ">
<path fill="none" stroke="#63b8ff" d="M702.09,-296.5C712.31,-296.5 722.84,-296.5 732.83,-296.5"/>
<polygon fill="#63b8ff" stroke="#63b8ff" points="702.01,-293 692.01,-296.5 702.01,-300 702.01,-293"/>
</a>
</g>
</g>
<!-- Node4 -->
<g id="Node000004" class="node">
<title>Node4</title>
<g id="a_Node000004"><a xlink:href="classSynchronizerFifo.html" target="_top" xlink:title=" ">
<polygon fill="white" stroke="#bfbfbf" points="535.5,-306 437.5,-306 437.5,-287 535.5,-287 535.5,-306"/>
<text text-anchor="middle" x="486.5" y="-294" font-family="Helvetica,sans-Serif" font-size="10.00">SynchronizerFifo</text>
</a>
</g>
</g>
<!-- Node4&#45;&gt;Node3 -->
<g id="edge3_Node000003_Node000004" class="edge">
<title>Node4&#45;&gt;Node3</title>
<g id="a_edge3_Node000003_Node000004"><a xlink:title=" ">
<path fill="none" stroke="#63b8ff" d="M546.1,-296.5C560.57,-296.5 575.94,-296.5 589.96,-296.5"/>
<polygon fill="#63b8ff" stroke="#63b8ff" points="545.75,-293 535.75,-296.5 545.75,-300 545.75,-293"/>
</a>
</g>
</g>
<!-- Node4&#45;&gt;Node12 -->
<g id="edge26_Node000012_Node000004" class="edge">
<title>Node4&#45;&gt;Node12</title>
<g id="a_edge26_Node000012_Node000004"><a xlink:title=" ">
<path fill="none" stroke="#63b8ff" d="M535.82,-284.46C557.12,-279.15 581.8,-273 601.79,-268.02"/>
<polygon fill="#63b8ff" stroke="#63b8ff" points="534.84,-281.1 525.98,-286.91 536.53,-287.89 534.84,-281.1"/>
</a>
</g>
</g>
<!-- Node5&#45;&gt;Node4 -->
<g id="edge4_Node000004_Node000005" class="edge">
<title>Node5&#45;&gt;Node4</title>
<g id="a_edge4_Node000004_Node000005"><a xlink:title=" ">
<path fill="none" stroke="#63b8ff" d="M357.54,-234.56C389.05,-249.81 438.5,-273.75 465.78,-286.95"/>
<polygon fill="#63b8ff" stroke="#63b8ff" points="358.91,-231.33 348.38,-230.13 355.86,-237.63 358.91,-231.33"/>
</a>
</g>
</g>
<!-- Node6 -->
<g id="Node000006" class="node">
<title>Node6</title>
<g id="a_Node000006"><a xlink:href="classRstSync.html" target="_top" xlink:title=" ">
<polygon fill="white" stroke="#bfbfbf" points="201.5,-120 145.5,-120 145.5,-101 201.5,-101 201.5,-120"/>
<text text-anchor="middle" x="173.5" y="-108" font-family="Helvetica,sans-Serif" font-size="10.00">RstSync</text>
</a>
</g>
</g>
<!-- Node6&#45;&gt;Node5 -->
<g id="edge5_Node000005_Node000006" class="edge">
<title>Node6&#45;&gt;Node5</title>
<g id="a_edge5_Node000005_Node000006"><a xlink:title=" ">
<path fill="none" stroke="#63b8ff" d="M210.84,-123.82C217.75,-126.94 224.76,-130.52 231,-134.5 266.75,-157.28 302.04,-193.62 317.86,-210.84"/>
<polygon fill="#63b8ff" stroke="#63b8ff" points="212.14,-120.57 201.57,-119.88 209.4,-127.02 212.14,-120.57"/>
</a>
</g>
</g>
<!-- Node15 -->
<g id="Node000015" class="node">
<title>Node15</title>
<g id="a_Node000015"><a xlink:href="classSynchronizerOneShot.html" target="_top" xlink:title=" ">
<polygon fill="white" stroke="#bfbfbf" points="388,-130 267,-130 267,-111 388,-111 388,-130"/>
<text text-anchor="middle" x="327.5" y="-118" font-family="Helvetica,sans-Serif" font-size="10.00">SynchronizerOneShot</text>
</a>
</g>
</g>
<!-- Node6&#45;&gt;Node15 -->
<g id="edge17_Node000015_Node000006" class="edge">
<title>Node6&#45;&gt;Node15</title>
<g id="a_edge17_Node000015_Node000006"><a xlink:title=" ">
<path fill="none" stroke="#63b8ff" d="M212.01,-112.97C228.52,-114.05 248.33,-115.36 266.8,-116.57"/>
<polygon fill="#63b8ff" stroke="#63b8ff" points="211.88,-109.45 201.67,-112.29 211.42,-116.44 211.88,-109.45"/>
</a>
</g>
</g>
<!-- Node7 -->
<g id="Node000007" class="node">
<title>Node7</title>
<g id="a_Node000007"><a xlink:href="classSynchronizer.html" target="_top" xlink:title=" ">
<polygon fill="white" stroke="#bfbfbf" points="80,-120 0,-120 0,-101 80,-101 80,-120"/>
<text text-anchor="middle" x="40" y="-108" font-family="Helvetica,sans-Serif" font-size="10.00">Synchronizer</text>
</a>
</g>
</g>
<!-- Node7&#45;&gt;Node5 -->
<g id="edge8_Node000005_Node000007" class="edge">
<title>Node7&#45;&gt;Node5</title>
<g id="a_edge8_Node000005_Node000007"><a xlink:title=" ">
<path fill="none" stroke="#63b8ff" d="M90.1,-122.12C129.07,-132.08 184.54,-147.91 231,-167.5 260.7,-180.03 293.07,-199.29 311.46,-210.82"/>
<polygon fill="#63b8ff" stroke="#63b8ff" points="90.62,-118.64 80.06,-119.59 88.91,-125.43 90.62,-118.64"/>
</a>
</g>
</g>
<!-- Node7&#45;&gt;Node6 -->
<g id="edge6_Node000006_Node000007" class="edge">
<title>Node7&#45;&gt;Node6</title>
<g id="a_edge6_Node000006_Node000007"><a xlink:title=" ">
<path fill="none" stroke="#63b8ff" d="M90.24,-110.5C108.93,-110.5 129.52,-110.5 145.43,-110.5"/>
<polygon fill="#63b8ff" stroke="#63b8ff" points="90.1,-107 80.1,-110.5 90.1,-114 90.1,-107"/>
</a>
</g>
</g>
<!-- Node16 -->
<g id="Node000016" class="node">
<title>Node16</title>
<g id="a_Node000016"><a xlink:href="classSynchronizerEdge.html" target="_top" xlink:title=" ">
<polygon fill="white" stroke="#bfbfbf" points="225.5,-83 121.5,-83 121.5,-64 225.5,-64 225.5,-83"/>
<text text-anchor="middle" x="173.5" y="-71" font-family="Helvetica,sans-Serif" font-size="10.00">SynchronizerEdge</text>
</a>
</g>
</g>
<!-- Node7&#45;&gt;Node16 -->
<g id="edge19_Node000016_Node000007" class="edge">
<title>Node7&#45;&gt;Node16</title>
<g id="a_edge19_Node000016_Node000007"><a xlink:title=" ">
<path fill="none" stroke="#63b8ff" d="M84.81,-98.17C102.22,-93.27 121.96,-87.72 138.29,-83.12"/>
<polygon fill="#63b8ff" stroke="#63b8ff" points="83.54,-94.89 74.86,-100.97 85.44,-101.63 83.54,-94.89"/>
</a>
</g>
</g>
<!-- Node8 -->
<g id="Node000008" class="node">
<title>Node8</title>
<g id="a_Node000008"><a xlink:href="classFifoWrFsm.html" target="_top" xlink:title=" ">
<polygon fill="white" stroke="#bfbfbf" points="208,-307 139,-307 139,-288 208,-288 208,-307"/>
<text text-anchor="middle" x="173.5" y="-295" font-family="Helvetica,sans-Serif" font-size="10.00">FifoWrFsm</text>
</a>
</g>
</g>
<!-- Node8&#45;&gt;Node5 -->
<g id="edge9_Node000005_Node000008" class="edge">
<title>Node8&#45;&gt;Node5</title>
<g id="a_edge9_Node000005_Node000008"><a xlink:title=" ">
<path fill="none" stroke="#63b8ff" d="M217.71,-286.06C222.34,-284.16 226.86,-281.98 231,-279.5 250.14,-268.03 248.3,-256.68 267,-244.5 275.96,-238.66 286.57,-233.83 296.33,-230.07"/>
<polygon fill="#63b8ff" stroke="#63b8ff" points="216.34,-282.83 208.17,-289.58 218.77,-289.4 216.34,-282.83"/>
</a>
</g>
</g>
<!-- Node9 -->
<g id="Node000009" class="node">
<title>Node9</title>
<g id="a_Node000009"><a xlink:href="classFifoRdFsm.html" target="_top" xlink:title=" ">
<polygon fill="white" stroke="#bfbfbf" points="207.5,-270 139.5,-270 139.5,-251 207.5,-251 207.5,-270"/>
<text text-anchor="middle" x="173.5" y="-258" font-family="Helvetica,sans-Serif" font-size="10.00">FifoRdFsm</text>
</a>
</g>
</g>
<!-- Node9&#45;&gt;Node5 -->
<g id="edge10_Node000005_Node000009" class="edge">
<title>Node9&#45;&gt;Node5</title>
<g id="a_edge10_Node000005_Node000009"><a xlink:title=" ">
<path fill="none" stroke="#63b8ff" d="M217.72,-249.13C242.45,-242.62 272.9,-234.6 295.29,-228.71"/>
<polygon fill="#63b8ff" stroke="#63b8ff" points="216.64,-245.79 207.86,-251.72 218.42,-252.56 216.64,-245.79"/>
</a>
</g>
</g>
<!-- Node10 -->
<g id="Node000010" class="node">
<title>Node10</title>
<g id="a_Node000010"><a xlink:href="classSimpleDualPortRam.html" target="_top" xlink:title=" ">
<polygon fill="white" stroke="#bfbfbf" points="231,-233 116,-233 116,-214 231,-214 231,-233"/>
<text text-anchor="middle" x="173.5" y="-221" font-family="Helvetica,sans-Serif" font-size="10.00">SimpleDualPortRam</text>
</a>
</g>
</g>
<!-- Node10&#45;&gt;Node5 -->
<g id="edge11_Node000005_Node000010" class="edge">
<title>Node10&#45;&gt;Node5</title>
<g id="a_edge11_Node000005_Node000010"><a xlink:title=" ">
<path fill="none" stroke="#63b8ff" d="M241.18,-222.18C260.08,-221.81 279.75,-221.42 295.44,-221.11"/>
<polygon fill="#63b8ff" stroke="#63b8ff" points="241.03,-218.69 231.1,-222.38 241.17,-225.68 241.03,-218.69"/>
</a>
</g>
</g>
<!-- Node11 -->
<g id="Node000011" class="node">
<title>Node11</title>
<g id="a_Node000011"><a xlink:href="classFifoOutputPipeline.html" target="_top" xlink:title=" ">
<polygon fill="white" stroke="#bfbfbf" points="227,-196 120,-196 120,-177 227,-177 227,-196"/>
<text text-anchor="middle" x="173.5" y="-184" font-family="Helvetica,sans-Serif" font-size="10.00">FifoOutputPipeline</text>
</a>
</g>
</g>
<!-- Node11&#45;&gt;Node5 -->
<g id="edge12_Node000005_Node000011" class="edge">
<title>Node11&#45;&gt;Node5</title>
<g id="a_edge12_Node000005_Node000011"><a xlink:title=" ">
<path fill="none" stroke="#63b8ff" d="M227.08,-198.26C249.77,-203.34 275.54,-209.1 295.16,-213.49"/>
<polygon fill="#63b8ff" stroke="#63b8ff" points="227.77,-194.83 217.24,-196.06 226.24,-201.66 227.77,-194.83"/>
</a>
</g>
</g>
<!-- Node12&#45;&gt;Node1 -->
<g id="edge13_Node000001_Node000012" class="edge">
<title>Node12&#45;&gt;Node1</title>
<g id="a_edge13_Node000001_Node000012"><a xlink:title=" ">
<path fill="none" stroke="#63b8ff" d="M687.81,-270.67C707.59,-275.93 730.38,-281.99 748.93,-286.91"/>
<polygon fill="#63b8ff" stroke="#63b8ff" points="688.65,-267.27 678.08,-268.09 686.85,-274.04 688.65,-267.27"/>
</a>
</g>
</g>
<!-- Node13 -->
<g id="Node000013" class="node">
<title>Node13</title>
<g id="a_Node000013"><a xlink:href="classAxiAds42lb69Pll.html" target="_top" xlink:title=" ">
<polygon fill="white" stroke="#bfbfbf" points="534,-130 439,-130 439,-111 534,-111 534,-130"/>
<text text-anchor="middle" x="486.5" y="-118" font-family="Helvetica,sans-Serif" font-size="10.00">AxiAds42lb69Pll</text>
</a>
</g>
</g>
<!-- Node13&#45;&gt;Node12 -->
<g id="edge14_Node000012_Node000013" class="edge">
<title>Node13&#45;&gt;Node12</title>
<g id="a_edge14_Node000012_Node000013"><a xlink:title=" ">
<path fill="none" stroke="#63b8ff" d="M506.28,-137.49C538.51,-166.66 603.4,-225.38 629.13,-248.67"/>
<polygon fill="#63b8ff" stroke="#63b8ff" points="508.23,-134.54 498.47,-130.42 503.53,-139.73 508.23,-134.54"/>
</a>
</g>
</g>
<!-- Node14 -->
<g id="Node000014" class="node">
<title>Node14</title>
<g id="a_Node000014"><a xlink:href="classClkOutBufDiff.html" target="_top" xlink:title=" ">
<polygon fill="white" stroke="#bfbfbf" points="369,-93 286,-93 286,-74 369,-74 369,-93"/>
<text text-anchor="middle" x="327.5" y="-81" font-family="Helvetica,sans-Serif" font-size="10.00">ClkOutBufDiff</text>
</a>
</g>
</g>
<!-- Node14&#45;&gt;Node13 -->
<g id="edge15_Node000013_Node000014" class="edge">
<title>Node14&#45;&gt;Node13</title>
<g id="a_edge15_Node000013_Node000014"><a xlink:title=" ">
<path fill="none" stroke="#63b8ff" d="M378.81,-95.36C400.18,-100.39 424.76,-106.18 444.93,-110.94"/>
<polygon fill="#63b8ff" stroke="#63b8ff" points="379.47,-91.92 368.93,-93.03 377.86,-98.73 379.47,-91.92"/>
</a>
</g>
</g>
<!-- Node15&#45;&gt;Node13 -->
<g id="edge16_Node000013_Node000015" class="edge">
<title>Node15&#45;&gt;Node13</title>
<g id="a_edge16_Node000013_Node000015"><a xlink:title=" ">
<path fill="none" stroke="#63b8ff" d="M398.56,-120.5C412.1,-120.5 425.98,-120.5 438.55,-120.5"/>
<polygon fill="#63b8ff" stroke="#63b8ff" points="398.3,-117 388.3,-120.5 398.3,-124 398.3,-117"/>
</a>
</g>
</g>
<!-- Node16&#45;&gt;Node15 -->
<g id="edge18_Node000015_Node000016" class="edge">
<title>Node16&#45;&gt;Node15</title>
<g id="a_edge18_Node000015_Node000016"><a xlink:title=" ">
<path fill="none" stroke="#63b8ff" d="M214.93,-86C240.21,-93.82 272.27,-103.73 295.53,-110.92"/>
<polygon fill="#63b8ff" stroke="#63b8ff" points="215.85,-82.62 205.26,-83.01 213.78,-89.31 215.85,-82.62"/>
</a>
</g>
</g>
<!-- Node17 -->
<g id="Node000017" class="node">
<title>Node17</title>
<g id="a_Node000017"><a xlink:href="classAxiAds42lb69DeserBit.html" target="_top" xlink:title=" ">
<polygon fill="white" stroke="#bfbfbf" points="549,-56 424,-56 424,-37 549,-37 549,-56"/>
<text text-anchor="middle" x="486.5" y="-44" font-family="Helvetica,sans-Serif" font-size="10.00">AxiAds42lb69DeserBit</text>
</a>
</g>
</g>
<!-- Node17&#45;&gt;Node12 -->
<g id="edge21_Node000012_Node000017" class="edge">
<title>Node17&#45;&gt;Node12</title>
<g id="a_edge21_Node000012_Node000017"><a xlink:title=" ">
<path fill="none" stroke="#63b8ff" d="M508.52,-62.48C521.18,-72.75 537.1,-86.88 549,-101.5 589.97,-151.83 623.93,-222.82 635.63,-248.63"/>
<polygon fill="#63b8ff" stroke="#63b8ff" points="510.37,-59.48 500.36,-56.02 506.03,-64.97 510.37,-59.48"/>
</a>
</g>
</g>
<!-- Node18 -->
<g id="Node000018" class="node">
<title>Node18</title>
<g id="a_Node000018"><a xlink:href="classIdelaye3Wrapper.html" target="_top" xlink:title=" ">
<polygon fill="white" stroke="#bfbfbf" points="377.5,-56 277.5,-56 277.5,-37 377.5,-37 377.5,-56"/>
<text text-anchor="middle" x="327.5" y="-44" font-family="Helvetica,sans-Serif" font-size="10.00">Idelaye3Wrapper</text>
</a>
</g>
</g>
<!-- Node18&#45;&gt;Node17 -->
<g id="edge22_Node000017_Node000018" class="edge">
<title>Node18&#45;&gt;Node17</title>
<g id="a_edge22_Node000017_Node000018"><a xlink:title=" ">
<path fill="none" stroke="#63b8ff" d="M387.92,-46.5C399.72,-46.5 412.12,-46.5 423.99,-46.5"/>
<polygon fill="#63b8ff" stroke="#63b8ff" points="387.75,-43 377.75,-46.5 387.74,-50 387.75,-43"/>
</a>
</g>
</g>
<!-- Node19 -->
<g id="Node000019" class="node">
<title>Node19</title>
<g id="a_Node000019"><a xlink:href="classDelaye3PatchFsm.html" target="_top" xlink:title=" ">
<polygon fill="white" stroke="#bfbfbf" points="225.5,-37 121.5,-37 121.5,-18 225.5,-18 225.5,-37"/>
<text text-anchor="middle" x="173.5" y="-25" font-family="Helvetica,sans-Serif" font-size="10.00">Delaye3PatchFsm</text>
</a>
</g>
</g>
<!-- Node19&#45;&gt;Node18 -->
<g id="edge23_Node000018_Node000019" class="edge">
<title>Node19&#45;&gt;Node18</title>
<g id="a_edge23_Node000018_Node000019"><a xlink:title=" ">
<path fill="none" stroke="#63b8ff" d="M235.52,-35.13C249.44,-36.87 264.06,-38.69 277.4,-40.36"/>
<polygon fill="#63b8ff" stroke="#63b8ff" points="235.89,-31.65 225.54,-33.88 235.03,-38.59 235.89,-31.65"/>
</a>
</g>
</g>
<!-- Node20 -->
<g id="Node000020" class="node">
<title>Node20</title>
<g id="a_Node000020"><a xlink:href="classOdelaye3Wrapper.html" target="_top" xlink:title=" ">
<polygon fill="white" stroke="#bfbfbf" points="379.5,-19 275.5,-19 275.5,0 379.5,0 379.5,-19"/>
<text text-anchor="middle" x="327.5" y="-7" font-family="Helvetica,sans-Serif" font-size="10.00">Odelaye3Wrapper</text>
</a>
</g>
</g>
<!-- Node19&#45;&gt;Node20 -->
<g id="edge25_Node000020_Node000019" class="edge">
<title>Node19&#45;&gt;Node20</title>
<g id="a_edge25_Node000020_Node000019"><a xlink:title=" ">
<path fill="none" stroke="#63b8ff" d="M235.49,-20.28C248.7,-18.71 262.55,-17.07 275.34,-15.56"/>
<polygon fill="#63b8ff" stroke="#63b8ff" points="235.06,-16.8 225.54,-21.46 235.88,-23.76 235.06,-16.8"/>
</a>
</g>
</g>
<!-- Node20&#45;&gt;Node17 -->
<g id="edge24_Node000017_Node000020" class="edge">
<title>Node20&#45;&gt;Node17</title>
<g id="a_edge24_Node000017_Node000020"><a xlink:title=" ">
<path fill="none" stroke="#63b8ff" d="M378.81,-21.36C400.18,-26.39 424.76,-32.18 444.93,-36.94"/>
<polygon fill="#63b8ff" stroke="#63b8ff" points="379.47,-17.92 368.93,-19.03 377.86,-24.73 379.47,-17.92"/>
</a>
</g>
</g>
</g>
</svg>

<g id="navigator" transform="translate(0 0)" fill="#404254">
  <rect fill="#f2f5e9" fill-opacity="0.5" stroke="#606060" stroke-width=".5" x="0" y="0" width="60" height="60"/>
  <use id="zoomplus" xlink:href="#zoomPlus" x="17" y="9" onmousedown="handleZoom(evt,'in')"/>
  <use id="zoomminus" xlink:href="#zoomMin" x="42" y="9" onmousedown="handleZoom(evt,'out')"/>
  <use id="reset" xlink:href="#resetDef" x="30" y="36" onmousedown="handleReset()"/>
   <use id="arrowup" xlink:href="#arrowUp" x="0" y="0" onmousedown="handlePan(0,-1)"/>
  <use id="arrowright" xlink:href="#arrowRight" x="0" y="0" onmousedown="handlePan(1,0)"/>
  <use id="arrowdown" xlink:href="#arrowDown" x="0" y="0" onmousedown="handlePan(0,1)"/>
  <use id="arrowleft" xlink:href="#arrowLeft" x="0" y="0" onmousedown="handlePan(-1,0)"/>
</g>
<svg viewBox="0 0 15 15" width="100%" height="30px" preserveAspectRatio="xMaxYMin meet">
 <g id="arrow_out" transform="scale(0.3 0.3)">
  <a xlink:href="classAxiAds42lb69Core__inherit__graph_org.svg" target="_base">
   <rect id="button" ry="5" rx="5" y="6" x="6" height="38" width="38"
        fill="#f2f5e9" fill-opacity="0.5" stroke="#606060" stroke-width="1.0"/>
   <path id="arrow"
     d="M 11.500037,31.436501 C 11.940474,20.09759 22.043105,11.32322 32.158766,21.979434 L 37.068811,17.246167 C 37.068811,17.246167 37.088388,32 37.088388,32 L 22.160133,31.978069 C 22.160133,31.978069 26.997745,27.140456 26.997745,27.140456 C 18.528582,18.264221 13.291696,25.230495 11.500037,31.436501 z"
     style="fill:#404040;"/>
  </a>
 </g>
</svg>

<style type='text/css'>
<![CDATA[
[data-mouse-over-selected='false'] { opacity: 0.7; }
[data-mouse-over-selected='true']  { opacity: 1.0; }
]]>
</style>
<script type="application/ecmascript"><![CDATA[
document.addEventListener('DOMContentLoaded', (event) => {
  highlightEdges();
  highlightAdjacentNodes();
});
]]></script>
</svg>
