<?xml version="1.0" encoding="UTF-8" standalone="no"?>
<!DOCTYPE svg PUBLIC "-//W3C//DTD SVG 1.1//EN"
 "http://www.w3.org/Graphics/SVG/1.1/DTD/svg11.dtd">
<!-- Generated by graphviz version 2.43.0 (0)
 -->
<!-- Title: CoaXPressAxiL Pages: 1 -->
<svg width="1226pt" height="441pt"
 viewBox="0.00 0.00 1226.00 441.05" xmlns="http://www.w3.org/2000/svg" xmlns:xlink="http://www.w3.org/1999/xlink">
<g id="graph0" class="graph" transform="scale(1 1) rotate(0) translate(4 437.05)">
<title>CoaXPressAxiL</title>
<!-- Node1 -->
<g id="Node000001" class="node">
<title>Node1</title>
<g id="a_Node000001"><a xlink:title=" ">
<polygon fill="#999999" stroke="#666666" points="1218,-252.2 1129,-252.2 1129,-233.2 1218,-233.2 1218,-252.2"/>
<text text-anchor="middle" x="1173.5" y="-240.2" font-family="Helvetica,sans-Serif" font-size="10.00">CoaXPressAxiL</text>
</a>
</g>
</g>
<!-- Node2 -->
<g id="Node000002" class="node">
<title>Node2</title>
<g id="a_Node000002"><a xlink:href="classSynchronizerVector.html" target="_top" xlink:title=" ">
<polygon fill="white" stroke="#bfbfbf" points="228.5,-366.2 118.5,-366.2 118.5,-347.2 228.5,-347.2 228.5,-366.2"/>
<text text-anchor="middle" x="173.5" y="-354.2" font-family="Helvetica,sans-Serif" font-size="10.00">SynchronizerVector</text>
</a>
</g>
</g>
<!-- Node2&#45;&gt;Node1 -->
<g id="edge1_Node000001_Node000002" class="edge">
<title>Node2&#45;&gt;Node1</title>
<g id="a_edge1_Node000001_Node000002"><a xlink:title=" ">
<path fill="none" stroke="#63b8ff" d="M229.92,-368.26C288.45,-379.44 383.55,-394.7 466.5,-394.7 466.5,-394.7 466.5,-394.7 822,-394.7 883.82,-394.7 1069.19,-330.55 1093,-316.7 1123.32,-299.07 1151.55,-268 1164.72,-252.32"/>
<polygon fill="#63b8ff" stroke="#63b8ff" points="230.27,-364.76 219.78,-366.29 228.93,-371.63 230.27,-364.76"/>
</a>
</g>
</g>
<!-- Node7 -->
<g id="Node000007" class="node">
<title>Node7</title>
<g id="a_Node000007"><a xlink:href="classSyncStatusVector.html" target="_top" xlink:title=" ">
<polygon fill="white" stroke="#bfbfbf" points="1067.5,-271.2 966.5,-271.2 966.5,-252.2 1067.5,-252.2 1067.5,-271.2"/>
<text text-anchor="middle" x="1017" y="-259.2" font-family="Helvetica,sans-Serif" font-size="10.00">SyncStatusVector</text>
</a>
</g>
</g>
<!-- Node2&#45;&gt;Node7 -->
<g id="edge9_Node000007_Node000002" class="edge">
<title>Node2&#45;&gt;Node7</title>
<g id="a_edge9_Node000007_Node000002"><a xlink:title=" ">
<path fill="none" stroke="#63b8ff" d="M238.95,-353.65C366.77,-346.89 661.11,-327.81 905,-285.7 921.25,-282.9 924.91,-280.32 941,-276.7 949.29,-274.84 958.12,-272.97 966.71,-271.21"/>
<polygon fill="#63b8ff" stroke="#63b8ff" points="238.74,-350.16 228.94,-354.17 239.1,-357.15 238.74,-350.16"/>
</a>
</g>
</g>
<!-- Node11 -->
<g id="Node000011" class="node">
<title>Node11</title>
<g id="a_Node000011"><a xlink:href="classFifoAsync.html" target="_top" xlink:title=" ">
<polygon fill="white" stroke="#bfbfbf" points="351,-252.2 287,-252.2 287,-233.2 351,-233.2 351,-252.2"/>
<text text-anchor="middle" x="319" y="-240.2" font-family="Helvetica,sans-Serif" font-size="10.00">FifoAsync</text>
</a>
</g>
</g>
<!-- Node2&#45;&gt;Node11 -->
<g id="edge17_Node000011_Node000002" class="edge">
<title>Node2&#45;&gt;Node11</title>
<g id="a_edge17_Node000011_Node000002"><a xlink:title=" ">
<path fill="none" stroke="#63b8ff" d="M219.06,-343.29C223.23,-341.34 227.28,-339.15 231,-336.7 267.03,-312.99 298.42,-271.23 311.5,-252.4"/>
<polygon fill="#63b8ff" stroke="#63b8ff" points="217.68,-340.07 209.81,-347.17 220.39,-346.52 217.68,-340.07"/>
</a>
</g>
</g>
<!-- Node3 -->
<g id="Node000003" class="node">
<title>Node3</title>
<g id="a_Node000003"><a xlink:href="classSynchronizer.html" target="_top" xlink:title=" ">
<polygon fill="white" stroke="#bfbfbf" points="80,-195.2 0,-195.2 0,-176.2 80,-176.2 80,-195.2"/>
<text text-anchor="middle" x="40" y="-183.2" font-family="Helvetica,sans-Serif" font-size="10.00">Synchronizer</text>
</a>
</g>
</g>
<!-- Node3&#45;&gt;Node1 -->
<g id="edge2_Node000001_Node000003" class="edge">
<title>Node3&#45;&gt;Node1</title>
<g id="a_edge2_Node000001_Node000003"><a xlink:title=" ">
<path fill="none" stroke="#63b8ff" d="M43.09,-205.66C48.22,-244.3 64.98,-329.59 116,-375.7 185.2,-438.25 224.72,-432.7 318,-432.7 318,-432.7 318,-432.7 822,-432.7 947.09,-432.7 991.02,-429.15 1093,-356.7 1132.54,-328.62 1159,-274.36 1168.54,-252.34"/>
<polygon fill="#63b8ff" stroke="#63b8ff" points="46.51,-204.77 41.85,-195.26 39.56,-205.6 46.51,-204.77"/>
</a>
</g>
</g>
<!-- Node5 -->
<g id="Node000005" class="node">
<title>Node5</title>
<g id="a_Node000005"><a xlink:href="classRstSync.html" target="_top" xlink:title=" ">
<polygon fill="white" stroke="#bfbfbf" points="201.5,-101.2 145.5,-101.2 145.5,-82.2 201.5,-82.2 201.5,-101.2"/>
<text text-anchor="middle" x="173.5" y="-89.2" font-family="Helvetica,sans-Serif" font-size="10.00">RstSync</text>
</a>
</g>
</g>
<!-- Node3&#45;&gt;Node5 -->
<g id="edge5_Node000005_Node000003" class="edge">
<title>Node3&#45;&gt;Node5</title>
<g id="a_edge5_Node000005_Node000003"><a xlink:title=" ">
<path fill="none" stroke="#63b8ff" d="M56.4,-168.21C70.66,-152.82 93.07,-130.61 116,-115.7 125.03,-109.84 135.72,-104.87 145.37,-100.99"/>
<polygon fill="#63b8ff" stroke="#63b8ff" points="53.49,-166.21 49.36,-175.97 58.67,-170.91 53.49,-166.21"/>
</a>
</g>
</g>
<!-- Node6 -->
<g id="Node000006" class="node">
<title>Node6</title>
<g id="a_Node000006"><a xlink:href="classSynchronizerEdge.html" target="_top" xlink:title=" ">
<polygon fill="white" stroke="#bfbfbf" points="371,-139.2 267,-139.2 267,-120.2 371,-120.2 371,-139.2"/>
<text text-anchor="middle" x="319" y="-127.2" font-family="Helvetica,sans-Serif" font-size="10.00">SynchronizerEdge</text>
</a>
</g>
</g>
<!-- Node3&#45;&gt;Node6 -->
<g id="edge7_Node000006_Node000003" class="edge">
<title>Node3&#45;&gt;Node6</title>
<g id="a_edge7_Node000006_Node000003"><a xlink:title=" ">
<path fill="none" stroke="#63b8ff" d="M64.83,-171.15C79.14,-163.13 98.01,-153.8 116,-148.7 165.99,-134.54 225.43,-130.39 266.84,-129.42"/>
<polygon fill="#63b8ff" stroke="#63b8ff" points="63.04,-168.14 56.13,-176.17 66.54,-174.2 63.04,-168.14"/>
</a>
</g>
</g>
<!-- Node3&#45;&gt;Node11 -->
<g id="edge18_Node000011_Node000003" class="edge">
<title>Node3&#45;&gt;Node11</title>
<g id="a_edge18_Node000011_Node000003"><a xlink:title=" ">
<path fill="none" stroke="#63b8ff" d="M64.5,-200.5C78.83,-208.78 97.83,-218.45 116,-223.7 174.71,-240.67 246.62,-243.37 286.88,-243.34"/>
<polygon fill="#63b8ff" stroke="#63b8ff" points="66.2,-197.44 55.82,-195.33 62.62,-203.46 66.2,-197.44"/>
</a>
</g>
</g>
<!-- Node4 -->
<g id="Node000004" class="node">
<title>Node4</title>
<g id="a_Node000004"><a xlink:href="classSynchronizerOneShot.html" target="_top" xlink:title=" ">
<polygon fill="white" stroke="#bfbfbf" points="528,-120.2 407,-120.2 407,-101.2 528,-101.2 528,-120.2"/>
<text text-anchor="middle" x="467.5" y="-108.2" font-family="Helvetica,sans-Serif" font-size="10.00">SynchronizerOneShot</text>
</a>
</g>
</g>
<!-- Node4&#45;&gt;Node1 -->
<g id="edge3_Node000001_Node000004" class="edge">
<title>Node4&#45;&gt;Node1</title>
<g id="a_edge3_Node000001_Node000004"><a xlink:title=" ">
<path fill="none" stroke="#63b8ff" d="M525.79,-99.52C538.33,-97.52 551.57,-95.74 564,-94.7 624.68,-89.66 640.36,-89.18 701,-94.7 877.41,-110.77 935.25,-86.12 1093,-166.7 1125.14,-183.12 1153.15,-216.72 1165.62,-233.19"/>
<polygon fill="#63b8ff" stroke="#63b8ff" points="525.2,-96.07 515.91,-101.17 526.35,-102.98 525.2,-96.07"/>
</a>
</g>
</g>
<!-- Node8 -->
<g id="Node000008" class="node">
<title>Node8</title>
<g id="a_Node000008"><a xlink:href="classSynchronizerOneShotCntVector.html" target="_top" xlink:title=" ">
<polygon fill="white" stroke="#bfbfbf" points="905,-252.2 737,-252.2 737,-233.2 905,-233.2 905,-252.2"/>
<text text-anchor="middle" x="821" y="-240.2" font-family="Helvetica,sans-Serif" font-size="10.00">SynchronizerOneShotCntVector</text>
</a>
</g>
</g>
<!-- Node4&#45;&gt;Node8 -->
<g id="edge11_Node000008_Node000004" class="edge">
<title>Node4&#45;&gt;Node8</title>
<g id="a_edge11_Node000008_Node000004"><a xlink:title=" ">
<path fill="none" stroke="#63b8ff" d="M538.27,-114.69C597.19,-119.32 675.88,-128.88 701,-147.7 730.91,-170.12 707.86,-200.3 737,-223.7 741.73,-227.5 747.07,-230.57 752.7,-233.04"/>
<polygon fill="#63b8ff" stroke="#63b8ff" points="538.49,-111.2 528.25,-113.94 537.96,-118.18 538.49,-111.2"/>
</a>
</g>
</g>
<!-- Node9 -->
<g id="Node000009" class="node">
<title>Node9</title>
<g id="a_Node000009"><a xlink:href="classSynchronizerOneShotCnt.html" target="_top" xlink:title=" ">
<polygon fill="white" stroke="#bfbfbf" points="701,-252.2 564,-252.2 564,-233.2 701,-233.2 701,-252.2"/>
<text text-anchor="middle" x="632.5" y="-240.2" font-family="Helvetica,sans-Serif" font-size="10.00">SynchronizerOneShotCnt</text>
</a>
</g>
</g>
<!-- Node4&#45;&gt;Node9 -->
<g id="edge13_Node000009_Node000004" class="edge">
<title>Node4&#45;&gt;Node9</title>
<g id="a_edge13_Node000009_Node000004"><a xlink:title=" ">
<path fill="none" stroke="#63b8ff" d="M494.18,-125.42C504.99,-132.03 517.48,-140.25 528,-148.7 545.64,-162.88 547.41,-169.32 564,-184.7 583.03,-202.35 606.16,-221.82 619.8,-233.11"/>
<polygon fill="#63b8ff" stroke="#63b8ff" points="495.96,-122.4 485.58,-120.27 492.36,-128.41 495.96,-122.4"/>
</a>
</g>
</g>
<!-- Node16 -->
<g id="Node000016" class="node">
<title>Node16</title>
<g id="a_Node000016"><a xlink:href="classSyncTrigRate.html" target="_top" xlink:title=" ">
<polygon fill="white" stroke="#bfbfbf" points="861,-214.2 781,-214.2 781,-195.2 861,-195.2 861,-214.2"/>
<text text-anchor="middle" x="821" y="-202.2" font-family="Helvetica,sans-Serif" font-size="10.00">SyncTrigRate</text>
</a>
</g>
</g>
<!-- Node4&#45;&gt;Node16 -->
<g id="edge24_Node000016_Node000004" class="edge">
<title>Node4&#45;&gt;Node16</title>
<g id="a_edge24_Node000016_Node000004"><a xlink:title=" ">
<path fill="none" stroke="#63b8ff" d="M538.19,-100.83C585.43,-96.78 648.56,-96.6 701,-114.7 748.99,-131.27 793.25,-175.23 811.36,-194.92"/>
<polygon fill="#63b8ff" stroke="#63b8ff" points="537.69,-97.36 528.06,-101.78 538.34,-104.33 537.69,-97.36"/>
</a>
</g>
</g>
<!-- Node17 -->
<g id="Node000017" class="node">
<title>Node17</title>
<g id="a_Node000017"><a xlink:href="classSyncMinMax.html" target="_top" xlink:title=" ">
<polygon fill="white" stroke="#bfbfbf" points="672,-176.2 593,-176.2 593,-157.2 672,-157.2 672,-176.2"/>
<text text-anchor="middle" x="632.5" y="-164.2" font-family="Helvetica,sans-Serif" font-size="10.00">SyncMinMax</text>
</a>
</g>
</g>
<!-- Node4&#45;&gt;Node17 -->
<g id="edge27_Node000017_Node000004" class="edge">
<title>Node4&#45;&gt;Node17</title>
<g id="a_edge27_Node000017_Node000004"><a xlink:title=" ">
<path fill="none" stroke="#63b8ff" d="M506.17,-123.65C536,-133.9 576.99,-147.98 603.84,-157.2"/>
<polygon fill="#63b8ff" stroke="#63b8ff" points="507.12,-120.27 496.52,-120.33 504.84,-126.89 507.12,-120.27"/>
</a>
</g>
</g>
<!-- Node20 -->
<g id="Node000020" class="node">
<title>Node20</title>
<g id="a_Node000020"><a xlink:href="classSynchronizerOneShotVector.html" target="_top" xlink:title=" ">
<polygon fill="white" stroke="#bfbfbf" points="1093,-24.2 941,-24.2 941,-5.2 1093,-5.2 1093,-24.2"/>
<text text-anchor="middle" x="1017" y="-12.2" font-family="Helvetica,sans-Serif" font-size="10.00">SynchronizerOneShotVector</text>
</a>
</g>
</g>
<!-- Node4&#45;&gt;Node20 -->
<g id="edge34_Node000020_Node000004" class="edge">
<title>Node4&#45;&gt;Node20</title>
<g id="a_edge34_Node000020_Node000004"><a xlink:title=" ">
<path fill="none" stroke="#63b8ff" d="M484.55,-93.7C502.17,-76.33 532.2,-50.3 564,-38.7 690.07,7.25 849.05,2.58 940.95,-5.63"/>
<polygon fill="#63b8ff" stroke="#63b8ff" points="481.9,-91.41 477.37,-100.99 486.88,-96.32 481.9,-91.41"/>
</a>
</g>
</g>
<!-- Node5&#45;&gt;Node4 -->
<g id="edge4_Node000004_Node000005" class="edge">
<title>Node5&#45;&gt;Node4</title>
<g id="a_edge4_Node000004_Node000005"><a xlink:title=" ">
<path fill="none" stroke="#63b8ff" d="M211.91,-94.14C261.16,-97.34 348.34,-103.02 406.77,-106.82"/>
<polygon fill="#63b8ff" stroke="#63b8ff" points="211.91,-90.63 201.71,-93.47 211.46,-97.62 211.91,-90.63"/>
</a>
</g>
</g>
<!-- Node5&#45;&gt;Node11 -->
<g id="edge16_Node000011_Node000005" class="edge">
<title>Node5&#45;&gt;Node11</title>
<g id="a_edge16_Node000011_Node000005"><a xlink:title=" ">
<path fill="none" stroke="#63b8ff" d="M191.34,-108.39C202.65,-119.68 217.84,-134.97 231,-148.7 260.07,-179.05 293.64,-215.83 309.22,-233"/>
<polygon fill="#63b8ff" stroke="#63b8ff" points="193.76,-105.86 184.2,-101.29 188.82,-110.82 193.76,-105.86"/>
</a>
</g>
</g>
<!-- Node21 -->
<g id="Node000021" class="node">
<title>Node21</title>
<g id="a_Node000021"><a xlink:href="classAxiStreamMon.html" target="_top" xlink:title=" ">
<polygon fill="white" stroke="#bfbfbf" points="1061.5,-195.2 972.5,-195.2 972.5,-176.2 1061.5,-176.2 1061.5,-195.2"/>
<text text-anchor="middle" x="1017" y="-183.2" font-family="Helvetica,sans-Serif" font-size="10.00">AxiStreamMon</text>
</a>
</g>
</g>
<!-- Node5&#45;&gt;Node21 -->
<g id="edge36_Node000021_Node000005" class="edge">
<title>Node5&#45;&gt;Node21</title>
<g id="a_edge36_Node000021_Node000005"><a xlink:title=" ">
<path fill="none" stroke="#63b8ff" d="M211.66,-88.29C298.11,-81.13 519.21,-67.36 701,-94.7 811.89,-111.38 938.65,-156.28 991.19,-176.09"/>
<polygon fill="#63b8ff" stroke="#63b8ff" points="211.23,-84.81 201.56,-89.15 211.82,-91.79 211.23,-84.81"/>
</a>
</g>
</g>
<!-- Node6&#45;&gt;Node4 -->
<g id="edge6_Node000004_Node000006" class="edge">
<title>Node6&#45;&gt;Node4</title>
<g id="a_edge6_Node000004_Node000006"><a xlink:title=" ">
<path fill="none" stroke="#63b8ff" d="M381.35,-121.75C389.76,-120.66 398.38,-119.54 406.75,-118.45"/>
<polygon fill="#63b8ff" stroke="#63b8ff" points="380.71,-118.3 371.24,-123.06 381.61,-125.24 380.71,-118.3"/>
</a>
</g>
</g>
<!-- Node7&#45;&gt;Node1 -->
<g id="edge8_Node000001_Node000007" class="edge">
<title>Node7&#45;&gt;Node1</title>
<g id="a_edge8_Node000001_Node000007"><a xlink:title=" ">
<path fill="none" stroke="#63b8ff" d="M1078.09,-254.31C1095.01,-252.23 1113.09,-250.01 1128.85,-248.07"/>
<polygon fill="#63b8ff" stroke="#63b8ff" points="1077.23,-250.89 1067.74,-255.59 1078.09,-257.84 1077.23,-250.89"/>
</a>
</g>
</g>
<!-- Node8&#45;&gt;Node7 -->
<g id="edge10_Node000007_Node000008" class="edge">
<title>Node8&#45;&gt;Node7</title>
<g id="a_edge10_Node000007_Node000008"><a xlink:title=" ">
<path fill="none" stroke="#63b8ff" d="M915.45,-251.86C933.05,-253.58 950.81,-255.32 966.4,-256.85"/>
<polygon fill="#63b8ff" stroke="#63b8ff" points="915.41,-248.34 905.12,-250.84 914.73,-255.3 915.41,-248.34"/>
</a>
</g>
</g>
<!-- Node9&#45;&gt;Node8 -->
<g id="edge12_Node000008_Node000009" class="edge">
<title>Node9&#45;&gt;Node8</title>
<g id="a_edge12_Node000008_Node000009"><a xlink:title=" ">
<path fill="none" stroke="#63b8ff" d="M711.25,-242.7C719.67,-242.7 728.25,-242.7 736.73,-242.7"/>
<polygon fill="#63b8ff" stroke="#63b8ff" points="711.09,-239.2 701.09,-242.7 711.09,-246.2 711.09,-239.2"/>
</a>
</g>
</g>
<!-- Node10 -->
<g id="Node000010" class="node">
<title>Node10</title>
<g id="a_Node000010"><a xlink:href="classSynchronizerFifo.html" target="_top" xlink:title=" ">
<polygon fill="white" stroke="#bfbfbf" points="516.5,-252.2 418.5,-252.2 418.5,-233.2 516.5,-233.2 516.5,-252.2"/>
<text text-anchor="middle" x="467.5" y="-240.2" font-family="Helvetica,sans-Serif" font-size="10.00">SynchronizerFifo</text>
</a>
</g>
</g>
<!-- Node10&#45;&gt;Node9 -->
<g id="edge14_Node000009_Node000010" class="edge">
<title>Node10&#45;&gt;Node9</title>
<g id="a_edge14_Node000009_Node000010"><a xlink:title=" ">
<path fill="none" stroke="#63b8ff" d="M526.86,-242.7C538.86,-242.7 551.59,-242.7 563.89,-242.7"/>
<polygon fill="#63b8ff" stroke="#63b8ff" points="526.52,-239.2 516.52,-242.7 526.52,-246.2 526.52,-239.2"/>
</a>
</g>
</g>
<!-- Node10&#45;&gt;Node16 -->
<g id="edge25_Node000016_Node000010" class="edge">
<title>Node10&#45;&gt;Node16</title>
<g id="a_edge25_Node000016_Node000010"><a xlink:title=" ">
<path fill="none" stroke="#63b8ff" d="M523.44,-231.3C536.67,-228.84 550.81,-226.46 564,-224.7 640.45,-214.54 730.48,-208.98 780.83,-206.44"/>
<polygon fill="#63b8ff" stroke="#63b8ff" points="522.69,-227.88 513.52,-233.18 523.99,-234.75 522.69,-227.88"/>
</a>
</g>
</g>
<!-- Node10&#45;&gt;Node17 -->
<g id="edge30_Node000017_Node000010" class="edge">
<title>Node10&#45;&gt;Node17</title>
<g id="a_edge30_Node000017_Node000010"><a xlink:title=" ">
<path fill="none" stroke="#63b8ff" d="M493.2,-227.86C512.17,-216.8 539.23,-201.77 564,-190.7 576.04,-185.33 589.68,-180.29 601.53,-176.23"/>
<polygon fill="#63b8ff" stroke="#63b8ff" points="491.17,-224.99 484.33,-233.08 494.72,-231.02 491.17,-224.99"/>
</a>
</g>
</g>
<!-- Node19 -->
<g id="Node000019" class="node">
<title>Node19</title>
<g id="a_Node000019"><a xlink:href="classSyncClockFreq.html" target="_top" xlink:title=" ">
<polygon fill="white" stroke="#bfbfbf" points="865,-366.2 777,-366.2 777,-347.2 865,-347.2 865,-366.2"/>
<text text-anchor="middle" x="821" y="-354.2" font-family="Helvetica,sans-Serif" font-size="10.00">SyncClockFreq</text>
</a>
</g>
</g>
<!-- Node10&#45;&gt;Node19 -->
<g id="edge32_Node000019_Node000010" class="edge">
<title>Node10&#45;&gt;Node19</title>
<g id="a_edge32_Node000019_Node000010"><a xlink:title=" ">
<path fill="none" stroke="#63b8ff" d="M491.63,-257.54C510.48,-269.06 538.12,-284.72 564,-294.7 636.32,-322.6 725.1,-340.73 776.84,-349.81"/>
<polygon fill="#63b8ff" stroke="#63b8ff" points="493.47,-254.56 483.13,-252.25 489.78,-260.51 493.47,-254.56"/>
</a>
</g>
</g>
<!-- Node10&#45;&gt;Node21 -->
<g id="edge38_Node000021_Node000010" class="edge">
<title>Node10&#45;&gt;Node21</title>
<g id="a_edge38_Node000021_Node000010"><a xlink:title=" ">
<path fill="none" stroke="#63b8ff" d="M514.2,-254.59C595.1,-273.49 767.93,-304.13 905,-261.7 926.75,-254.97 979.77,-214.4 1003.8,-195.45"/>
<polygon fill="#63b8ff" stroke="#63b8ff" points="514.87,-251.15 504.33,-252.24 513.25,-257.96 514.87,-251.15"/>
</a>
</g>
</g>
<!-- Node11&#45;&gt;Node10 -->
<g id="edge15_Node000010_Node000011" class="edge">
<title>Node11&#45;&gt;Node10</title>
<g id="a_edge15_Node000010_Node000011"><a xlink:title=" ">
<path fill="none" stroke="#63b8ff" d="M361.15,-242.7C378.97,-242.7 399.94,-242.7 418.46,-242.7"/>
<polygon fill="#63b8ff" stroke="#63b8ff" points="361.07,-239.2 351.07,-242.7 361.07,-246.2 361.07,-239.2"/>
</a>
</g>
</g>
<!-- Node12 -->
<g id="Node000012" class="node">
<title>Node12</title>
<g id="a_Node000012"><a xlink:href="classFifoWrFsm.html" target="_top" xlink:title=" ">
<polygon fill="white" stroke="#bfbfbf" points="208,-214.2 139,-214.2 139,-195.2 208,-195.2 208,-214.2"/>
<text text-anchor="middle" x="173.5" y="-202.2" font-family="Helvetica,sans-Serif" font-size="10.00">FifoWrFsm</text>
</a>
</g>
</g>
<!-- Node12&#45;&gt;Node11 -->
<g id="edge19_Node000011_Node000012" class="edge">
<title>Node12&#45;&gt;Node11</title>
<g id="a_edge19_Node000011_Node000012"><a xlink:title=" ">
<path fill="none" stroke="#63b8ff" d="M217.96,-216.21C240.06,-222.06 266.42,-229.05 286.53,-234.37"/>
<polygon fill="#63b8ff" stroke="#63b8ff" points="218.71,-212.79 208.14,-213.61 216.92,-219.56 218.71,-212.79"/>
</a>
</g>
</g>
<!-- Node13 -->
<g id="Node000013" class="node">
<title>Node13</title>
<g id="a_Node000013"><a xlink:href="classFifoRdFsm.html" target="_top" xlink:title=" ">
<polygon fill="white" stroke="#bfbfbf" points="207.5,-327.2 139.5,-327.2 139.5,-308.2 207.5,-308.2 207.5,-327.2"/>
<text text-anchor="middle" x="173.5" y="-315.2" font-family="Helvetica,sans-Serif" font-size="10.00">FifoRdFsm</text>
</a>
</g>
</g>
<!-- Node13&#45;&gt;Node11 -->
<g id="edge20_Node000011_Node000013" class="edge">
<title>Node13&#45;&gt;Node11</title>
<g id="a_edge20_Node000011_Node000013"><a xlink:title=" ">
<path fill="none" stroke="#63b8ff" d="M217.28,-305.45C221.98,-303.7 226.64,-301.78 231,-299.7 259.37,-286.2 289.37,-264.72 305.67,-252.35"/>
<polygon fill="#63b8ff" stroke="#63b8ff" points="215.94,-302.21 207.65,-308.8 218.24,-308.82 215.94,-302.21"/>
</a>
</g>
</g>
<!-- Node14 -->
<g id="Node000014" class="node">
<title>Node14</title>
<g id="a_Node000014"><a xlink:href="classSimpleDualPortRam.html" target="_top" xlink:title=" ">
<polygon fill="white" stroke="#bfbfbf" points="231,-290.2 116,-290.2 116,-271.2 231,-271.2 231,-290.2"/>
<text text-anchor="middle" x="173.5" y="-278.2" font-family="Helvetica,sans-Serif" font-size="10.00">SimpleDualPortRam</text>
</a>
</g>
</g>
<!-- Node14&#45;&gt;Node11 -->
<g id="edge21_Node000011_Node000014" class="edge">
<title>Node14&#45;&gt;Node11</title>
<g id="a_edge21_Node000011_Node000014"><a xlink:title=" ">
<path fill="none" stroke="#63b8ff" d="M220.66,-268.48C242.23,-262.77 267.35,-256.12 286.67,-251"/>
<polygon fill="#63b8ff" stroke="#63b8ff" points="219.48,-265.17 210.71,-271.12 221.27,-271.94 219.48,-265.17"/>
</a>
</g>
</g>
<!-- Node15 -->
<g id="Node000015" class="node">
<title>Node15</title>
<g id="a_Node000015"><a xlink:href="classFifoOutputPipeline.html" target="_top" xlink:title=" ">
<polygon fill="white" stroke="#bfbfbf" points="227,-177.2 120,-177.2 120,-158.2 227,-158.2 227,-177.2"/>
<text text-anchor="middle" x="173.5" y="-165.2" font-family="Helvetica,sans-Serif" font-size="10.00">FifoOutputPipeline</text>
</a>
</g>
</g>
<!-- Node15&#45;&gt;Node11 -->
<g id="edge22_Node000011_Node000015" class="edge">
<title>Node15&#45;&gt;Node11</title>
<g id="a_edge22_Node000011_Node000015"><a xlink:title=" ">
<path fill="none" stroke="#63b8ff" d="M219.2,-180.69C223.25,-182.24 227.24,-183.91 231,-185.7 259.37,-199.21 289.37,-220.69 305.67,-233.06"/>
<polygon fill="#63b8ff" stroke="#63b8ff" points="220.33,-177.37 209.73,-177.3 217.97,-183.96 220.33,-177.37"/>
</a>
</g>
</g>
<!-- Node18 -->
<g id="Node000018" class="node">
<title>Node18</title>
<g id="a_Node000018"><a xlink:href="classDspComparator.html" target="_top" xlink:title=" ">
<polygon fill="white" stroke="#bfbfbf" points="514,-177.2 421,-177.2 421,-158.2 514,-158.2 514,-177.2"/>
<text text-anchor="middle" x="467.5" y="-165.2" font-family="Helvetica,sans-Serif" font-size="10.00">DspComparator</text>
</a>
</g>
</g>
<!-- Node15&#45;&gt;Node18 -->
<g id="edge29_Node000018_Node000015" class="edge">
<title>Node15&#45;&gt;Node18</title>
<g id="a_edge29_Node000018_Node000015"><a xlink:title=" ">
<path fill="none" stroke="#63b8ff" d="M237.04,-167.7C292.16,-167.7 371.17,-167.7 420.62,-167.7"/>
<polygon fill="#63b8ff" stroke="#63b8ff" points="237.04,-164.2 227.04,-167.7 237.04,-171.2 237.04,-164.2"/>
</a>
</g>
</g>
<!-- Node16&#45;&gt;Node1 -->
<g id="edge23_Node000001_Node000016" class="edge">
<title>Node16&#45;&gt;Node1</title>
<g id="a_edge23_Node000001_Node000016"><a xlink:title=" ">
<path fill="none" stroke="#63b8ff" d="M871.32,-210.05C940.02,-217.5 1063.43,-230.88 1128.92,-237.98"/>
<polygon fill="#63b8ff" stroke="#63b8ff" points="871.51,-206.55 861.19,-208.95 870.75,-213.51 871.51,-206.55"/>
</a>
</g>
</g>
<!-- Node16&#45;&gt;Node21 -->
<g id="edge37_Node000021_Node000016" class="edge">
<title>Node16&#45;&gt;Node21</title>
<g id="a_edge37_Node000021_Node000016"><a xlink:title=" ">
<path fill="none" stroke="#63b8ff" d="M871.46,-199.86C902.61,-196.81 942.45,-192.91 972.41,-189.97"/>
<polygon fill="#63b8ff" stroke="#63b8ff" points="870.87,-196.4 861.26,-200.86 871.55,-203.37 870.87,-196.4"/>
</a>
</g>
</g>
<!-- Node17&#45;&gt;Node16 -->
<g id="edge26_Node000016_Node000017" class="edge">
<title>Node17&#45;&gt;Node16</title>
<g id="a_edge26_Node000016_Node000017"><a xlink:title=" ">
<path fill="none" stroke="#63b8ff" d="M682.21,-176.63C712.92,-182.89 752.05,-190.86 780.76,-196.71"/>
<polygon fill="#63b8ff" stroke="#63b8ff" points="682.64,-173.15 672.14,-174.58 681.24,-180 682.64,-173.15"/>
</a>
</g>
</g>
<!-- Node17&#45;&gt;Node21 -->
<g id="edge39_Node000021_Node000017" class="edge">
<title>Node17&#45;&gt;Node21</title>
<g id="a_edge39_Node000021_Node000017"><a xlink:title=" ">
<path fill="none" stroke="#63b8ff" d="M682.43,-169.14C757.67,-172.87 900.59,-179.97 972.45,-183.54"/>
<polygon fill="#63b8ff" stroke="#63b8ff" points="682.44,-165.63 672.28,-168.63 682.1,-172.62 682.44,-165.63"/>
</a>
</g>
</g>
<!-- Node18&#45;&gt;Node17 -->
<g id="edge28_Node000017_Node000018" class="edge">
<title>Node18&#45;&gt;Node17</title>
<g id="a_edge28_Node000017_Node000018"><a xlink:title=" ">
<path fill="none" stroke="#63b8ff" d="M524.47,-167.36C547.02,-167.22 572.47,-167.07 592.89,-166.94"/>
<polygon fill="#63b8ff" stroke="#63b8ff" points="524.32,-163.86 514.34,-167.42 524.36,-170.86 524.32,-163.86"/>
</a>
</g>
</g>
<!-- Node19&#45;&gt;Node1 -->
<g id="edge31_Node000001_Node000019" class="edge">
<title>Node19&#45;&gt;Node1</title>
<g id="a_edge31_Node000001_Node000019"><a xlink:title=" ">
<path fill="none" stroke="#63b8ff" d="M874.41,-344.85C929.63,-331.71 1018.73,-308.63 1093,-280.7 1114.91,-272.47 1139.03,-260.5 1154.89,-252.21"/>
<polygon fill="#63b8ff" stroke="#63b8ff" points="873.43,-341.49 864.5,-347.19 875.04,-348.3 873.43,-341.49"/>
</a>
</g>
</g>
<!-- Node20&#45;&gt;Node1 -->
<g id="edge33_Node000001_Node000020" class="edge">
<title>Node20&#45;&gt;Node1</title>
<g id="a_edge33_Node000001_Node000020"><a xlink:title=" ">
<path fill="none" stroke="#63b8ff" d="M1078.26,-28.43C1083.63,-31.24 1088.66,-34.63 1093,-38.7 1152.55,-94.68 1168.15,-200.52 1171.62,-232.99"/>
<polygon fill="#63b8ff" stroke="#63b8ff" points="1079.53,-25.16 1068.98,-24.22 1076.64,-31.54 1079.53,-25.16"/>
</a>
</g>
</g>
<!-- Node21&#45;&gt;Node1 -->
<g id="edge35_Node000001_Node000021" class="edge">
<title>Node21&#45;&gt;Node1</title>
<g id="a_edge35_Node000001_Node000021"><a xlink:title=" ">
<path fill="none" stroke="#63b8ff" d="M1059.69,-198.36C1070.59,-201.86 1082.29,-205.78 1093,-209.7 1112.78,-216.96 1134.89,-226.23 1150.76,-233.1"/>
<polygon fill="#63b8ff" stroke="#63b8ff" points="1060.54,-194.96 1049.95,-195.28 1058.43,-201.63 1060.54,-194.96"/>
</a>
</g>
</g>
</g>
</svg>
