<?xml version="1.0" encoding="UTF-8" standalone="no"?>
<!DOCTYPE svg PUBLIC "-//W3C//DTD SVG 1.1//EN"
 "http://www.w3.org/Graphics/SVG/1.1/DTD/svg11.dtd">
<!-- Generated by graphviz version 2.43.0 (0)
 -->
<!-- Title: EthMacTxExportXlgmii Pages: 1 -->
<!--zoomable 636 -->
<svg id="main" version="1.1" xmlns="http://www.w3.org/2000/svg" xmlns:xlink="http://www.w3.org/1999/xlink" xml:space="preserve" onload="init(evt)">
<style type="text/css"><![CDATA[
.edge:hover path { stroke: red; }
.edge:hover polygon { stroke: red; fill: red; }
]]></style>
<script type="text/javascript"><![CDATA[
var edges = document.getElementsByTagName('g');
if (edges && edges.length) {
  for (var i=0;i<edges.length;i++) {
    if (edges[i].id.substr(0,4)=='edge') {
      edges[i].setAttribute('class','edge');
    }
  }
}
]]></script>
        <defs>
                <circle id="rim" cx="0" cy="0" r="7"/>
                <circle id="rim2" cx="0" cy="0" r="3.5"/>
                <g id="zoomPlus">
                        <use xlink:href="#rim" fill="#404040">
                                <set attributeName="fill" to="#808080" begin="zoomplus.mouseover" end="zoomplus.mouseout"/>
                        </use>
                        <path d="M-4,0h8M0,-4v8" fill="none" stroke="white" stroke-width="1.5" pointer-events="none"/>
                </g>
                <g id="zoomMin">
                        <use xlink:href="#rim" fill="#404040">
                                <set attributeName="fill" to="#808080" begin="zoomminus.mouseover" end="zoomminus.mouseout"/>
                        </use>
                        <path d="M-4,0h8" fill="none" stroke="white" stroke-width="1.5" pointer-events="none"/>
                </g>
                <g id="dirArrow">
                        <path fill="none" stroke="white" stroke-width="1.5" d="M0,-3.0v7 M-2.5,-0.5L0,-3.0L2.5,-0.5"/>
                </g>
               <g id="resetDef">
                       <use xlink:href="#rim2" fill="#404040">
                               <set attributeName="fill" to="#808080" begin="reset.mouseover" end="reset.mouseout"/>
                       </use>
               </g>
        </defs>

<script type="text/javascript">
var viewWidth = 1050;
var viewHeight = 636;
var sectionId = 'dynsection-0';
</script>
<script xlink:href="svgpan.js"/>
<svg id="graph" class="graph">
<g id="viewport">
<title>EthMacTxExportXlgmii</title>
<polygon fill="white" stroke="transparent" points="-4,4 -4,-632 1046,-632 1046,4 -4,4"/>
<!-- Node1 -->
<g id="node1" class="node">
<title>Node1</title>
<g id="a_node1"><a xlink:title=" ">
<polygon fill="#bfbfbf" stroke="black" points="0,-304.5 0,-323.5 128,-323.5 128,-304.5 0,-304.5"/>
<text text-anchor="middle" x="64" y="-311.5" font-family="Helvetica,sans-Serif" font-size="10.00">EthMacTxExportXlgmii</text>
</a>
</g>
</g>
<!-- Node2 -->
<g id="node2" class="node">
<title>Node2</title>
<g id="a_node2"><a xlink:href="classEthMacTxExport.html" target="_top" xlink:title=" ">
<polygon fill="white" stroke="black" points="164,-304.5 164,-323.5 260,-323.5 260,-304.5 164,-304.5"/>
<text text-anchor="middle" x="212" y="-311.5" font-family="Helvetica,sans-Serif" font-size="10.00">EthMacTxExport</text>
</a>
</g>
</g>
<!-- Node1&#45;&gt;Node2 -->
<g id="edge1" class="edge">
<title>Node1&#45;&gt;Node2</title>
<path fill="none" stroke="midnightblue" d="M138.26,-314C146.86,-314 155.45,-314 163.56,-314"/>
<polygon fill="midnightblue" stroke="midnightblue" points="138.19,-310.5 128.19,-314 138.19,-317.5 138.19,-310.5"/>
</g>
<!-- Node3 -->
<g id="node3" class="node">
<title>Node3</title>
<g id="a_node3"><a xlink:href="classEthMacTx.html" target="_top" xlink:title=" ">
<polygon fill="white" stroke="black" points="296,-304.5 296,-323.5 361,-323.5 361,-304.5 296,-304.5"/>
<text text-anchor="middle" x="328.5" y="-311.5" font-family="Helvetica,sans-Serif" font-size="10.00">EthMacTx</text>
</a>
</g>
</g>
<!-- Node2&#45;&gt;Node3 -->
<g id="edge2" class="edge">
<title>Node2&#45;&gt;Node3</title>
<path fill="none" stroke="midnightblue" d="M270.41,-314C279.12,-314 287.82,-314 295.72,-314"/>
<polygon fill="midnightblue" stroke="midnightblue" points="270.23,-310.5 260.23,-314 270.23,-317.5 270.23,-310.5"/>
</g>
<!-- Node4 -->
<g id="node4" class="node">
<title>Node4</title>
<g id="a_node4"><a xlink:href="classEthMacTop.html" target="_top" xlink:title=" ">
<polygon fill="white" stroke="black" points="397,-304.5 397,-323.5 466,-323.5 466,-304.5 397,-304.5"/>
<text text-anchor="middle" x="431.5" y="-311.5" font-family="Helvetica,sans-Serif" font-size="10.00">EthMacTop</text>
</a>
</g>
</g>
<!-- Node3&#45;&gt;Node4 -->
<g id="edge3" class="edge">
<title>Node3&#45;&gt;Node4</title>
<path fill="none" stroke="midnightblue" d="M371.32,-314C379.82,-314 388.66,-314 396.84,-314"/>
<polygon fill="midnightblue" stroke="midnightblue" points="371.18,-310.5 361.18,-314 371.18,-317.5 371.18,-310.5"/>
</g>
<!-- Node5 -->
<g id="node5" class="node">
<title>Node5</title>
<g id="a_node5"><a xlink:href="classEthMacPauseTb.html" target="_top" xlink:title=" ">
<polygon fill="white" stroke="black" points="522,-608.5 522,-627.5 615,-627.5 615,-608.5 522,-608.5"/>
<text text-anchor="middle" x="568.5" y="-615.5" font-family="Helvetica,sans-Serif" font-size="10.00">EthMacPauseTb</text>
</a>
</g>
</g>
<!-- Node4&#45;&gt;Node5 -->
<g id="edge4" class="edge">
<title>Node4&#45;&gt;Node5</title>
<path fill="none" stroke="midnightblue" d="M434.75,-333.78C441.73,-391.85 464.85,-560.21 502,-599 507.41,-604.64 514.38,-608.64 521.75,-611.46"/>
<polygon fill="midnightblue" stroke="midnightblue" points="438.21,-333.23 433.57,-323.71 431.26,-334.04 438.21,-333.23"/>
</g>
<!-- Node6 -->
<g id="node6" class="node">
<title>Node6</title>
<g id="a_node6"><a xlink:href="classEthMacTb.html" target="_top" xlink:title=" ">
<polygon fill="white" stroke="black" points="536,-570.5 536,-589.5 601,-589.5 601,-570.5 536,-570.5"/>
<text text-anchor="middle" x="568.5" y="-577.5" font-family="Helvetica,sans-Serif" font-size="10.00">EthMacTb</text>
</a>
</g>
</g>
<!-- Node4&#45;&gt;Node6 -->
<g id="edge5" class="edge">
<title>Node4&#45;&gt;Node6</title>
<path fill="none" stroke="midnightblue" d="M432.01,-333.88C432,-380.39 438.66,-497.15 502,-561 510.92,-569.99 523.83,-574.79 535.83,-577.32"/>
<polygon fill="midnightblue" stroke="midnightblue" points="435.52,-333.69 432.13,-323.65 428.52,-333.61 435.52,-333.69"/>
</g>
<!-- Node7 -->
<g id="node7" class="node">
<title>Node7</title>
<g id="a_node7"><a xlink:href="classGigEthGth7.html" target="_top" xlink:title=" ">
<polygon fill="white" stroke="black" points="532.5,-532.5 532.5,-551.5 604.5,-551.5 604.5,-532.5 532.5,-532.5"/>
<text text-anchor="middle" x="568.5" y="-539.5" font-family="Helvetica,sans-Serif" font-size="10.00">GigEthGth7</text>
</a>
</g>
</g>
<!-- Node4&#45;&gt;Node7 -->
<g id="edge6" class="edge">
<title>Node4&#45;&gt;Node7</title>
<path fill="none" stroke="midnightblue" d="M433.21,-333.59C435.77,-374.74 447.59,-470.66 502,-523 510.19,-530.88 521.45,-535.52 532.32,-538.25"/>
<polygon fill="midnightblue" stroke="midnightblue" points="436.7,-333.33 432.7,-323.52 429.71,-333.68 436.7,-333.33"/>
</g>
<!-- Node9 -->
<g id="node9" class="node">
<title>Node9</title>
<g id="a_node9"><a xlink:href="classGigEthGthUltraScale.html" target="_top" xlink:title=" ">
<polygon fill="white" stroke="black" points="510.5,-494.5 510.5,-513.5 626.5,-513.5 626.5,-494.5 510.5,-494.5"/>
<text text-anchor="middle" x="568.5" y="-501.5" font-family="Helvetica,sans-Serif" font-size="10.00">GigEthGthUltraScale</text>
</a>
</g>
</g>
<!-- Node4&#45;&gt;Node9 -->
<g id="edge8" class="edge">
<title>Node4&#45;&gt;Node9</title>
<path fill="none" stroke="midnightblue" d="M434.92,-333.89C440.33,-369.48 456.68,-444.15 502,-485 506.31,-488.88 511.37,-491.98 516.73,-494.44"/>
<polygon fill="midnightblue" stroke="midnightblue" points="438.37,-333.22 433.53,-323.8 431.43,-334.18 438.37,-333.22"/>
</g>
<!-- Node11 -->
<g id="node11" class="node">
<title>Node11</title>
<g id="a_node11"><a xlink:href="classGigEthGtp7.html" target="_top" xlink:title=" ">
<polygon fill="white" stroke="black" points="532.5,-456.5 532.5,-475.5 604.5,-475.5 604.5,-456.5 532.5,-456.5"/>
<text text-anchor="middle" x="568.5" y="-463.5" font-family="Helvetica,sans-Serif" font-size="10.00">GigEthGtp7</text>
</a>
</g>
</g>
<!-- Node4&#45;&gt;Node11 -->
<g id="edge10" class="edge">
<title>Node4&#45;&gt;Node11</title>
<path fill="none" stroke="midnightblue" d="M437.4,-333.49C445.71,-362.55 465.35,-417.01 502,-447 510.61,-454.05 521.73,-458.48 532.36,-461.27"/>
<polygon fill="midnightblue" stroke="midnightblue" points="440.74,-332.45 434.75,-323.71 433.98,-334.27 440.74,-332.45"/>
</g>
<!-- Node13 -->
<g id="node13" class="node">
<title>Node13</title>
<g id="a_node13"><a xlink:href="classGigEthGtx7.html" target="_top" xlink:title=" ">
<polygon fill="white" stroke="black" points="532.5,-418.5 532.5,-437.5 604.5,-437.5 604.5,-418.5 532.5,-418.5"/>
<text text-anchor="middle" x="568.5" y="-425.5" font-family="Helvetica,sans-Serif" font-size="10.00">GigEthGtx7</text>
</a>
</g>
</g>
<!-- Node4&#45;&gt;Node13 -->
<g id="edge12" class="edge">
<title>Node4&#45;&gt;Node13</title>
<path fill="none" stroke="midnightblue" d="M441.45,-332.85C452.65,-354.41 473.82,-389.27 502,-409 510.92,-415.25 521.89,-419.46 532.28,-422.29"/>
<polygon fill="midnightblue" stroke="midnightblue" points="444.49,-331.1 436.9,-323.72 438.23,-334.23 444.49,-331.1"/>
</g>
<!-- Node15 -->
<g id="node15" class="node">
<title>Node15</title>
<g id="a_node15"><a xlink:href="classGigEthGtyUltraScale.html" target="_top" xlink:title=" ">
<polygon fill="white" stroke="black" points="510.5,-380.5 510.5,-399.5 626.5,-399.5 626.5,-380.5 510.5,-380.5"/>
<text text-anchor="middle" x="568.5" y="-387.5" font-family="Helvetica,sans-Serif" font-size="10.00">GigEthGtyUltraScale</text>
</a>
</g>
</g>
<!-- Node4&#45;&gt;Node15 -->
<g id="edge14" class="edge">
<title>Node4&#45;&gt;Node15</title>
<path fill="none" stroke="midnightblue" d="M449.32,-331.15C462.59,-343.78 482.1,-360.52 502,-371 509.23,-374.81 517.32,-377.94 525.28,-380.49"/>
<polygon fill="midnightblue" stroke="midnightblue" points="451.52,-328.4 441.93,-323.9 446.62,-333.4 451.52,-328.4"/>
</g>
<!-- Node17 -->
<g id="node17" class="node">
<title>Node17</title>
<g id="a_node17"><a xlink:href="classGigEthLvdsUltraScale.html" target="_top" xlink:title=" ">
<polygon fill="white" stroke="black" points="507.5,-342.5 507.5,-361.5 629.5,-361.5 629.5,-342.5 507.5,-342.5"/>
<text text-anchor="middle" x="568.5" y="-349.5" font-family="Helvetica,sans-Serif" font-size="10.00">GigEthLvdsUltraScale</text>
</a>
</g>
</g>
<!-- Node4&#45;&gt;Node17 -->
<g id="edge16" class="edge">
<title>Node4&#45;&gt;Node17</title>
<path fill="none" stroke="midnightblue" d="M476,-326.24C494.71,-331.51 516.26,-337.58 533.74,-342.5"/>
<polygon fill="midnightblue" stroke="midnightblue" points="476.79,-322.83 466.22,-323.49 474.9,-329.57 476.79,-322.83"/>
</g>
<!-- Node21 -->
<g id="node21" class="node">
<title>Node21</title>
<g id="a_node21"><a xlink:href="classTenGigEthGth7.html" target="_top" xlink:title=" ">
<polygon fill="white" stroke="black" points="524,-304.5 524,-323.5 613,-323.5 613,-304.5 524,-304.5"/>
<text text-anchor="middle" x="568.5" y="-311.5" font-family="Helvetica,sans-Serif" font-size="10.00">TenGigEthGth7</text>
</a>
</g>
</g>
<!-- Node4&#45;&gt;Node21 -->
<g id="edge20" class="edge">
<title>Node4&#45;&gt;Node21</title>
<path fill="none" stroke="midnightblue" d="M476.4,-314C491.58,-314 508.59,-314 523.77,-314"/>
<polygon fill="midnightblue" stroke="midnightblue" points="476.22,-310.5 466.22,-314 476.22,-317.5 476.22,-310.5"/>
</g>
<!-- Node23 -->
<g id="node23" class="node">
<title>Node23</title>
<g id="a_node23"><a xlink:href="classTenGigEthGthUltraScale.html" target="_top" xlink:title=" ">
<polygon fill="white" stroke="black" points="502,-266.5 502,-285.5 635,-285.5 635,-266.5 502,-266.5"/>
<text text-anchor="middle" x="568.5" y="-273.5" font-family="Helvetica,sans-Serif" font-size="10.00">TenGigEthGthUltraScale</text>
</a>
</g>
</g>
<!-- Node4&#45;&gt;Node23 -->
<g id="edge22" class="edge">
<title>Node4&#45;&gt;Node23</title>
<path fill="none" stroke="midnightblue" d="M476,-301.76C494.71,-296.49 516.26,-290.42 533.74,-285.5"/>
<polygon fill="midnightblue" stroke="midnightblue" points="474.9,-298.43 466.22,-304.51 476.79,-305.17 474.9,-298.43"/>
</g>
<!-- Node25 -->
<g id="node25" class="node">
<title>Node25</title>
<g id="a_node25"><a xlink:href="classTenGigEthGtx7.html" target="_top" xlink:title=" ">
<polygon fill="white" stroke="black" points="524,-228.5 524,-247.5 613,-247.5 613,-228.5 524,-228.5"/>
<text text-anchor="middle" x="568.5" y="-235.5" font-family="Helvetica,sans-Serif" font-size="10.00">TenGigEthGtx7</text>
</a>
</g>
</g>
<!-- Node4&#45;&gt;Node25 -->
<g id="edge24" class="edge">
<title>Node4&#45;&gt;Node25</title>
<path fill="none" stroke="midnightblue" d="M449.32,-296.85C462.59,-284.22 482.1,-267.48 502,-257 509.23,-253.19 517.32,-250.06 525.28,-247.51"/>
<polygon fill="midnightblue" stroke="midnightblue" points="446.62,-294.6 441.93,-304.1 451.52,-299.6 446.62,-294.6"/>
</g>
<!-- Node27 -->
<g id="node27" class="node">
<title>Node27</title>
<g id="a_node27"><a xlink:href="classTenGigEthGtyUltraScale.html" target="_top" xlink:title=" ">
<polygon fill="white" stroke="black" points="502,-190.5 502,-209.5 635,-209.5 635,-190.5 502,-190.5"/>
<text text-anchor="middle" x="568.5" y="-197.5" font-family="Helvetica,sans-Serif" font-size="10.00">TenGigEthGtyUltraScale</text>
</a>
</g>
</g>
<!-- Node4&#45;&gt;Node27 -->
<g id="edge26" class="edge">
<title>Node4&#45;&gt;Node27</title>
<path fill="none" stroke="midnightblue" d="M441.45,-295.15C452.65,-273.59 473.82,-238.73 502,-219 507.53,-215.13 513.84,-212.04 520.32,-209.58"/>
<polygon fill="midnightblue" stroke="midnightblue" points="438.23,-293.77 436.9,-304.28 444.49,-296.9 438.23,-293.77"/>
</g>
<!-- Node29 -->
<g id="node29" class="node">
<title>Node29</title>
<g id="a_node29"><a xlink:href="classUdpEngineTb.html" target="_top" xlink:title=" ">
<polygon fill="white" stroke="black" points="528,-152.5 528,-171.5 609,-171.5 609,-152.5 528,-152.5"/>
<text text-anchor="middle" x="568.5" y="-159.5" font-family="Helvetica,sans-Serif" font-size="10.00">UdpEngineTb</text>
</a>
</g>
</g>
<!-- Node4&#45;&gt;Node29 -->
<g id="edge28" class="edge">
<title>Node4&#45;&gt;Node29</title>
<path fill="none" stroke="midnightblue" d="M437.4,-294.51C445.71,-265.45 465.35,-210.99 502,-181 509.42,-174.93 518.71,-170.79 527.93,-167.98"/>
<polygon fill="midnightblue" stroke="midnightblue" points="433.98,-293.73 434.75,-304.29 440.74,-295.55 433.98,-293.73"/>
</g>
<!-- Node30 -->
<g id="node30" class="node">
<title>Node30</title>
<g id="a_node30"><a xlink:href="classXauiGth7.html" target="_top" xlink:title=" ">
<polygon fill="white" stroke="black" points="537.5,-114.5 537.5,-133.5 599.5,-133.5 599.5,-114.5 537.5,-114.5"/>
<text text-anchor="middle" x="568.5" y="-121.5" font-family="Helvetica,sans-Serif" font-size="10.00">XauiGth7</text>
</a>
</g>
</g>
<!-- Node4&#45;&gt;Node30 -->
<g id="edge29" class="edge">
<title>Node4&#45;&gt;Node30</title>
<path fill="none" stroke="midnightblue" d="M434.92,-294.11C440.33,-258.52 456.68,-183.85 502,-143 511.67,-134.28 525.13,-129.55 537.33,-126.98"/>
<polygon fill="midnightblue" stroke="midnightblue" points="431.43,-293.82 433.53,-304.2 438.37,-294.78 431.43,-293.82"/>
</g>
<!-- Node32 -->
<g id="node32" class="node">
<title>Node32</title>
<g id="a_node32"><a xlink:href="classXauiGthUltraScale.html" target="_top" xlink:title=" ">
<polygon fill="white" stroke="black" points="515.5,-76.5 515.5,-95.5 621.5,-95.5 621.5,-76.5 515.5,-76.5"/>
<text text-anchor="middle" x="568.5" y="-83.5" font-family="Helvetica,sans-Serif" font-size="10.00">XauiGthUltraScale</text>
</a>
</g>
</g>
<!-- Node4&#45;&gt;Node32 -->
<g id="edge31" class="edge">
<title>Node4&#45;&gt;Node32</title>
<path fill="none" stroke="midnightblue" d="M433.21,-294.41C435.77,-253.26 447.59,-157.34 502,-105 506.01,-101.14 510.76,-98.06 515.83,-95.6"/>
<polygon fill="midnightblue" stroke="midnightblue" points="429.71,-294.32 432.7,-304.48 436.7,-294.67 429.71,-294.32"/>
</g>
<!-- Node34 -->
<g id="node34" class="node">
<title>Node34</title>
<g id="a_node34"><a xlink:href="classXauiGtx7.html" target="_top" xlink:title=" ">
<polygon fill="white" stroke="black" points="537.5,-38.5 537.5,-57.5 599.5,-57.5 599.5,-38.5 537.5,-38.5"/>
<text text-anchor="middle" x="568.5" y="-45.5" font-family="Helvetica,sans-Serif" font-size="10.00">XauiGtx7</text>
</a>
</g>
</g>
<!-- Node4&#45;&gt;Node34 -->
<g id="edge33" class="edge">
<title>Node4&#45;&gt;Node34</title>
<path fill="none" stroke="midnightblue" d="M432.01,-294.12C432,-247.61 438.66,-130.85 502,-67 511.26,-57.67 524.8,-52.86 537.17,-50.4"/>
<polygon fill="midnightblue" stroke="midnightblue" points="428.52,-294.39 432.13,-304.35 435.52,-294.31 428.52,-294.39"/>
</g>
<!-- Node36 -->
<g id="node36" class="node">
<title>Node36</title>
<g id="a_node36"><a xlink:href="classXauiGtyUltraScale.html" target="_top" xlink:title=" ">
<polygon fill="white" stroke="black" points="515.5,-0.5 515.5,-19.5 621.5,-19.5 621.5,-0.5 515.5,-0.5"/>
<text text-anchor="middle" x="568.5" y="-7.5" font-family="Helvetica,sans-Serif" font-size="10.00">XauiGtyUltraScale</text>
</a>
</g>
</g>
<!-- Node4&#45;&gt;Node36 -->
<g id="edge35" class="edge">
<title>Node4&#45;&gt;Node36</title>
<path fill="none" stroke="midnightblue" d="M434.75,-294.22C441.73,-236.15 464.85,-67.79 502,-29 505.77,-25.07 510.3,-21.93 515.19,-19.44"/>
<polygon fill="midnightblue" stroke="midnightblue" points="431.26,-293.96 433.57,-304.29 438.21,-294.77 431.26,-293.96"/>
</g>
<!-- Node8 -->
<g id="node8" class="node">
<title>Node8</title>
<g id="a_node8"><a xlink:href="classGigEthGth7Wrapper.html" target="_top" xlink:title=" ">
<polygon fill="white" stroke="black" points="701.5,-532.5 701.5,-551.5 814.5,-551.5 814.5,-532.5 701.5,-532.5"/>
<text text-anchor="middle" x="758" y="-539.5" font-family="Helvetica,sans-Serif" font-size="10.00">GigEthGth7Wrapper</text>
</a>
</g>
</g>
<!-- Node7&#45;&gt;Node8 -->
<g id="edge7" class="edge">
<title>Node7&#45;&gt;Node8</title>
<path fill="none" stroke="midnightblue" d="M615.08,-542C641.04,-542 673.77,-542 701.25,-542"/>
<polygon fill="midnightblue" stroke="midnightblue" points="614.77,-538.5 604.77,-542 614.77,-545.5 614.77,-538.5"/>
</g>
<!-- Node10 -->
<g id="node10" class="node">
<title>Node10</title>
<g id="a_node10"><a xlink:href="classGigEthGthUltraScaleWrapper.html" target="_top" xlink:title=" ">
<polygon fill="white" stroke="black" points="679,-494.5 679,-513.5 837,-513.5 837,-494.5 679,-494.5"/>
<text text-anchor="middle" x="758" y="-501.5" font-family="Helvetica,sans-Serif" font-size="10.00">GigEthGthUltraScaleWrapper</text>
</a>
</g>
</g>
<!-- Node9&#45;&gt;Node10 -->
<g id="edge9" class="edge">
<title>Node9&#45;&gt;Node10</title>
<path fill="none" stroke="midnightblue" d="M636.77,-504C650.4,-504 664.85,-504 678.82,-504"/>
<polygon fill="midnightblue" stroke="midnightblue" points="636.52,-500.5 626.52,-504 636.52,-507.5 636.52,-500.5"/>
</g>
<!-- Node12 -->
<g id="node12" class="node">
<title>Node12</title>
<g id="a_node12"><a xlink:href="classGigEthGtp7Wrapper.html" target="_top" xlink:title=" ">
<polygon fill="white" stroke="black" points="701.5,-456.5 701.5,-475.5 814.5,-475.5 814.5,-456.5 701.5,-456.5"/>
<text text-anchor="middle" x="758" y="-463.5" font-family="Helvetica,sans-Serif" font-size="10.00">GigEthGtp7Wrapper</text>
</a>
</g>
</g>
<!-- Node11&#45;&gt;Node12 -->
<g id="edge11" class="edge">
<title>Node11&#45;&gt;Node12</title>
<path fill="none" stroke="midnightblue" d="M615.08,-466C641.04,-466 673.77,-466 701.25,-466"/>
<polygon fill="midnightblue" stroke="midnightblue" points="614.77,-462.5 604.77,-466 614.77,-469.5 614.77,-462.5"/>
</g>
<!-- Node14 -->
<g id="node14" class="node">
<title>Node14</title>
<g id="a_node14"><a xlink:href="classGigEthGtx7Wrapper.html" target="_top" xlink:title=" ">
<polygon fill="white" stroke="black" points="701.5,-418.5 701.5,-437.5 814.5,-437.5 814.5,-418.5 701.5,-418.5"/>
<text text-anchor="middle" x="758" y="-425.5" font-family="Helvetica,sans-Serif" font-size="10.00">GigEthGtx7Wrapper</text>
</a>
</g>
</g>
<!-- Node13&#45;&gt;Node14 -->
<g id="edge13" class="edge">
<title>Node13&#45;&gt;Node14</title>
<path fill="none" stroke="midnightblue" d="M615.08,-428C641.04,-428 673.77,-428 701.25,-428"/>
<polygon fill="midnightblue" stroke="midnightblue" points="614.77,-424.5 604.77,-428 614.77,-431.5 614.77,-424.5"/>
</g>
<!-- Node16 -->
<g id="node16" class="node">
<title>Node16</title>
<g id="a_node16"><a xlink:href="classGigEthGtyUltraScaleWrapper.html" target="_top" xlink:title=" ">
<polygon fill="white" stroke="black" points="679,-380.5 679,-399.5 837,-399.5 837,-380.5 679,-380.5"/>
<text text-anchor="middle" x="758" y="-387.5" font-family="Helvetica,sans-Serif" font-size="10.00">GigEthGtyUltraScaleWrapper</text>
</a>
</g>
</g>
<!-- Node15&#45;&gt;Node16 -->
<g id="edge15" class="edge">
<title>Node15&#45;&gt;Node16</title>
<path fill="none" stroke="midnightblue" d="M636.77,-390C650.4,-390 664.85,-390 678.82,-390"/>
<polygon fill="midnightblue" stroke="midnightblue" points="636.52,-386.5 626.52,-390 636.52,-393.5 636.52,-386.5"/>
</g>
<!-- Node18 -->
<g id="node18" class="node">
<title>Node18</title>
<g id="a_node18"><a xlink:href="classGigEthLvdsUltraScaleWrapper.html" target="_top" xlink:title=" ">
<polygon fill="white" stroke="black" points="676.5,-342.5 676.5,-361.5 839.5,-361.5 839.5,-342.5 676.5,-342.5"/>
<text text-anchor="middle" x="758" y="-349.5" font-family="Helvetica,sans-Serif" font-size="10.00">GigEthLvdsUltraScaleWrapper</text>
</a>
</g>
</g>
<!-- Node17&#45;&gt;Node18 -->
<g id="edge17" class="edge">
<title>Node17&#45;&gt;Node18</title>
<path fill="none" stroke="midnightblue" d="M639.9,-352C651.8,-352 664.24,-352 676.38,-352"/>
<polygon fill="midnightblue" stroke="midnightblue" points="639.6,-348.5 629.6,-352 639.6,-355.5 639.6,-348.5"/>
</g>
<!-- Node19 -->
<g id="node19" class="node">
<title>Node19</title>
<g id="a_node19"><a xlink:href="classSgmii88E1111LvdsUltraScale.html" target="_top" xlink:title=" ">
<polygon fill="white" stroke="black" points="882,-361.5 882,-380.5 1041,-380.5 1041,-361.5 882,-361.5"/>
<text text-anchor="middle" x="961.5" y="-368.5" font-family="Helvetica,sans-Serif" font-size="10.00">Sgmii88E1111LvdsUltraScale</text>
</a>
</g>
</g>
<!-- Node18&#45;&gt;Node19 -->
<g id="edge18" class="edge">
<title>Node18&#45;&gt;Node19</title>
<path fill="none" stroke="midnightblue" d="M849.7,-360.55C860.4,-361.56 871.25,-362.58 881.76,-363.58"/>
<polygon fill="midnightblue" stroke="midnightblue" points="849.79,-357.05 839.51,-359.59 849.13,-364.01 849.79,-357.05"/>
</g>
<!-- Node20 -->
<g id="node20" class="node">
<title>Node20</title>
<g id="a_node20"><a xlink:href="classSgmiiDp83867LvdsUltraScale.html" target="_top" xlink:title=" ">
<polygon fill="white" stroke="black" points="881,-323.5 881,-342.5 1042,-342.5 1042,-323.5 881,-323.5"/>
<text text-anchor="middle" x="961.5" y="-330.5" font-family="Helvetica,sans-Serif" font-size="10.00">SgmiiDp83867LvdsUltraScale</text>
</a>
</g>
</g>
<!-- Node18&#45;&gt;Node20 -->
<g id="edge19" class="edge">
<title>Node18&#45;&gt;Node20</title>
<path fill="none" stroke="midnightblue" d="M849.78,-343.44C860.12,-342.47 870.6,-341.48 880.78,-340.52"/>
<polygon fill="midnightblue" stroke="midnightblue" points="849.13,-339.99 839.51,-344.41 849.79,-346.95 849.13,-339.99"/>
</g>
<!-- Node22 -->
<g id="node22" class="node">
<title>Node22</title>
<g id="a_node22"><a xlink:href="classTenGigEthGth7Wrapper.html" target="_top" xlink:title=" ">
<polygon fill="white" stroke="black" points="693,-304.5 693,-323.5 823,-323.5 823,-304.5 693,-304.5"/>
<text text-anchor="middle" x="758" y="-311.5" font-family="Helvetica,sans-Serif" font-size="10.00">TenGigEthGth7Wrapper</text>
</a>
</g>
</g>
<!-- Node21&#45;&gt;Node22 -->
<g id="edge21" class="edge">
<title>Node21&#45;&gt;Node22</title>
<path fill="none" stroke="midnightblue" d="M623.74,-314C645.29,-314 670.26,-314 692.71,-314"/>
<polygon fill="midnightblue" stroke="midnightblue" points="623.46,-310.5 613.46,-314 623.46,-317.5 623.46,-310.5"/>
</g>
<!-- Node24 -->
<g id="node24" class="node">
<title>Node24</title>
<g id="a_node24"><a xlink:href="classTenGigEthGthUltraScaleWrapper.html" target="_top" xlink:title=" ">
<polygon fill="white" stroke="black" points="671,-266.5 671,-285.5 845,-285.5 845,-266.5 671,-266.5"/>
<text text-anchor="middle" x="758" y="-273.5" font-family="Helvetica,sans-Serif" font-size="10.00">TenGigEthGthUltraScaleWrapper</text>
</a>
</g>
</g>
<!-- Node23&#45;&gt;Node24 -->
<g id="edge23" class="edge">
<title>Node23&#45;&gt;Node24</title>
<path fill="none" stroke="midnightblue" d="M645.2,-276C653.59,-276 662.19,-276 670.7,-276"/>
<polygon fill="midnightblue" stroke="midnightblue" points="645.08,-272.5 635.08,-276 645.08,-279.5 645.08,-272.5"/>
</g>
<!-- Node26 -->
<g id="node26" class="node">
<title>Node26</title>
<g id="a_node26"><a xlink:href="classTenGigEthGtx7Wrapper.html" target="_top" xlink:title=" ">
<polygon fill="white" stroke="black" points="693,-228.5 693,-247.5 823,-247.5 823,-228.5 693,-228.5"/>
<text text-anchor="middle" x="758" y="-235.5" font-family="Helvetica,sans-Serif" font-size="10.00">TenGigEthGtx7Wrapper</text>
</a>
</g>
</g>
<!-- Node25&#45;&gt;Node26 -->
<g id="edge25" class="edge">
<title>Node25&#45;&gt;Node26</title>
<path fill="none" stroke="midnightblue" d="M623.74,-238C645.29,-238 670.26,-238 692.71,-238"/>
<polygon fill="midnightblue" stroke="midnightblue" points="623.46,-234.5 613.46,-238 623.46,-241.5 623.46,-234.5"/>
</g>
<!-- Node28 -->
<g id="node28" class="node">
<title>Node28</title>
<g id="a_node28"><a xlink:href="classTenGigEthGtyUltraScaleWrapper.html" target="_top" xlink:title=" ">
<polygon fill="white" stroke="black" points="671,-190.5 671,-209.5 845,-209.5 845,-190.5 671,-190.5"/>
<text text-anchor="middle" x="758" y="-197.5" font-family="Helvetica,sans-Serif" font-size="10.00">TenGigEthGtyUltraScaleWrapper</text>
</a>
</g>
</g>
<!-- Node27&#45;&gt;Node28 -->
<g id="edge27" class="edge">
<title>Node27&#45;&gt;Node28</title>
<path fill="none" stroke="midnightblue" d="M645.2,-200C653.59,-200 662.19,-200 670.7,-200"/>
<polygon fill="midnightblue" stroke="midnightblue" points="645.08,-196.5 635.08,-200 645.08,-203.5 645.08,-196.5"/>
</g>
<!-- Node31 -->
<g id="node31" class="node">
<title>Node31</title>
<g id="a_node31"><a xlink:href="classXauiGth7Wrapper.html" target="_top" xlink:title=" ">
<polygon fill="white" stroke="black" points="706.5,-114.5 706.5,-133.5 809.5,-133.5 809.5,-114.5 706.5,-114.5"/>
<text text-anchor="middle" x="758" y="-121.5" font-family="Helvetica,sans-Serif" font-size="10.00">XauiGth7Wrapper</text>
</a>
</g>
</g>
<!-- Node30&#45;&gt;Node31 -->
<g id="edge30" class="edge">
<title>Node30&#45;&gt;Node31</title>
<path fill="none" stroke="midnightblue" d="M609.95,-124C638.23,-124 676.19,-124 706.46,-124"/>
<polygon fill="midnightblue" stroke="midnightblue" points="609.63,-120.5 599.63,-124 609.63,-127.5 609.63,-120.5"/>
</g>
<!-- Node33 -->
<g id="node33" class="node">
<title>Node33</title>
<g id="a_node33"><a xlink:href="classXauiGthUltraScaleWrapper.html" target="_top" xlink:title=" ">
<polygon fill="white" stroke="black" points="684.5,-76.5 684.5,-95.5 831.5,-95.5 831.5,-76.5 684.5,-76.5"/>
<text text-anchor="middle" x="758" y="-83.5" font-family="Helvetica,sans-Serif" font-size="10.00">XauiGthUltraScaleWrapper</text>
</a>
</g>
</g>
<!-- Node32&#45;&gt;Node33 -->
<g id="edge32" class="edge">
<title>Node32&#45;&gt;Node33</title>
<path fill="none" stroke="midnightblue" d="M631.97,-86C648.77,-86 667.08,-86 684.38,-86"/>
<polygon fill="midnightblue" stroke="midnightblue" points="631.73,-82.5 621.73,-86 631.73,-89.5 631.73,-82.5"/>
</g>
<!-- Node35 -->
<g id="node35" class="node">
<title>Node35</title>
<g id="a_node35"><a xlink:href="classXauiGtx7Wrapper.html" target="_top" xlink:title=" ">
<polygon fill="white" stroke="black" points="706.5,-38.5 706.5,-57.5 809.5,-57.5 809.5,-38.5 706.5,-38.5"/>
<text text-anchor="middle" x="758" y="-45.5" font-family="Helvetica,sans-Serif" font-size="10.00">XauiGtx7Wrapper</text>
</a>
</g>
</g>
<!-- Node34&#45;&gt;Node35 -->
<g id="edge34" class="edge">
<title>Node34&#45;&gt;Node35</title>
<path fill="none" stroke="midnightblue" d="M609.95,-48C638.23,-48 676.19,-48 706.46,-48"/>
<polygon fill="midnightblue" stroke="midnightblue" points="609.63,-44.5 599.63,-48 609.63,-51.5 609.63,-44.5"/>
</g>
<!-- Node37 -->
<g id="node37" class="node">
<title>Node37</title>
<g id="a_node37"><a xlink:href="classXauiGtyUltraScaleWrapper.html" target="_top" xlink:title=" ">
<polygon fill="white" stroke="black" points="684.5,-0.5 684.5,-19.5 831.5,-19.5 831.5,-0.5 684.5,-0.5"/>
<text text-anchor="middle" x="758" y="-7.5" font-family="Helvetica,sans-Serif" font-size="10.00">XauiGtyUltraScaleWrapper</text>
</a>
</g>
</g>
<!-- Node36&#45;&gt;Node37 -->
<g id="edge36" class="edge">
<title>Node36&#45;&gt;Node37</title>
<path fill="none" stroke="midnightblue" d="M631.97,-10C648.77,-10 667.08,-10 684.38,-10"/>
<polygon fill="midnightblue" stroke="midnightblue" points="631.73,-6.5 621.73,-10 631.73,-13.5 631.73,-6.5"/>
</g>
</g>
</svg>
        <g id="navigator" transform="translate(0 0)" fill="#404254">
                <rect fill="#f2f5e9" fill-opacity="0.5" stroke="#606060" stroke-width=".5" x="0" y="0" width="60" height="60"/>
                <use id="zoomplus" xlink:href="#zoomPlus" x="17" y="9" onmousedown="handleZoom(evt,'in')"/>
                <use id="zoomminus" xlink:href="#zoomMin" x="42" y="9" onmousedown="handleZoom(evt,'out')"/>
                <use id="reset" xlink:href="#resetDef" x="30" y="36" onmousedown="handleReset()"/>
                <g id="arrowUp" xlink:href="#dirArrow" transform="translate(30 24)" onmousedown="handlePan(0,-1)">
                  <use xlink:href="#rim" fill="#404040">
                        <set attributeName="fill" to="#808080" begin="arrowUp.mouseover" end="arrowUp.mouseout"/>
                  </use>
                  <path fill="none" stroke="white" stroke-width="1.5" d="M0,-3.0v7 M-2.5,-0.5L0,-3.0L2.5,-0.5"/>
                </g>
                <g id="arrowRight" xlink:href="#dirArrow" transform="rotate(90) translate(36 -43)" onmousedown="handlePan(1,0)">
                  <use xlink:href="#rim" fill="#404040">
                        <set attributeName="fill" to="#808080" begin="arrowRight.mouseover" end="arrowRight.mouseout"/>
                  </use>
                  <path fill="none" stroke="white" stroke-width="1.5" d="M0,-3.0v7 M-2.5,-0.5L0,-3.0L2.5,-0.5"/>
                </g>
                <g id="arrowDown" xlink:href="#dirArrow" transform="rotate(180) translate(-30 -48)" onmousedown="handlePan(0,1)">
                  <use xlink:href="#rim" fill="#404040">
                        <set attributeName="fill" to="#808080" begin="arrowDown.mouseover" end="arrowDown.mouseout"/>
                  </use>
                  <path fill="none" stroke="white" stroke-width="1.5" d="M0,-3.0v7 M-2.5,-0.5L0,-3.0L2.5,-0.5"/>
                </g>
                <g id="arrowLeft" xlink:href="#dirArrow" transform="rotate(270) translate(-36 17)" onmousedown="handlePan(-1,0)">
                  <use xlink:href="#rim" fill="#404040">
                        <set attributeName="fill" to="#808080" begin="arrowLeft.mouseover" end="arrowLeft.mouseout"/>
                  </use>
                  <path fill="none" stroke="white" stroke-width="1.5" d="M0,-3.0v7 M-2.5,-0.5L0,-3.0L2.5,-0.5"/>
                </g>
        </g>
        <svg viewBox="0 0 15 15" width="100%" height="30px" preserveAspectRatio="xMaxYMin meet">
         <g id="arrow_out" transform="scale(0.3 0.3)">
          <a xlink:href="classEthMacTxExportXlgmii__inherit__graph_org.svg" target="_base">
           <rect id="button" ry="5" rx="5" y="6" x="6" height="38" width="38"
                fill="#f2f5e9" fill-opacity="0.5" stroke="#606060" stroke-width="1.0"/>
           <path id="arrow"
             d="M 11.500037,31.436501 C 11.940474,20.09759 22.043105,11.32322 32.158766,21.979434 L 37.068811,17.246167 C 37.068811,17.246167 37.088388,32 37.088388,32 L 22.160133,31.978069 C 22.160133,31.978069 26.997745,27.140456 26.997745,27.140456 C 18.528582,18.264221 13.291696,25.230495 11.500037,31.436501 z"
             style="fill:#404040;"/>
          </a>
         </g>
        </svg>
</svg>
