<?xml version="1.0" encoding="UTF-8" standalone="no"?>
<!DOCTYPE svg PUBLIC "-//W3C//DTD SVG 1.1//EN"
 "http://www.w3.org/Graphics/SVG/1.1/DTD/svg11.dtd">
<!-- Generated by graphviz version 2.43.0 (0)
 -->
<!-- Title: EthMacTxPause Pages: 1 -->
<!--zoomable 674 -->
<svg id="main" version="1.1" xmlns="http://www.w3.org/2000/svg" xmlns:xlink="http://www.w3.org/1999/xlink" xml:space="preserve" onload="init(evt)">
<style type="text/css"><![CDATA[
.edge:hover path { stroke: red; }
.edge:hover polygon { stroke: red; fill: red; }
]]></style>
<script type="text/javascript"><![CDATA[
var edges = document.getElementsByTagName('g');
if (edges && edges.length) {
  for (var i=0;i<edges.length;i++) {
    if (edges[i].id.substr(0,4)=='edge') {
      edges[i].setAttribute('class','edge');
    }
  }
}
]]></script>
        <defs>
                <circle id="rim" cx="0" cy="0" r="7"/>
                <circle id="rim2" cx="0" cy="0" r="3.5"/>
                <g id="zoomPlus">
                        <use xlink:href="#rim" fill="#404040">
                                <set attributeName="fill" to="#808080" begin="zoomplus.mouseover" end="zoomplus.mouseout"/>
                        </use>
                        <path d="M-4,0h8M0,-4v8" fill="none" stroke="white" stroke-width="1.5" pointer-events="none"/>
                </g>
                <g id="zoomMin">
                        <use xlink:href="#rim" fill="#404040">
                                <set attributeName="fill" to="#808080" begin="zoomminus.mouseover" end="zoomminus.mouseout"/>
                        </use>
                        <path d="M-4,0h8" fill="none" stroke="white" stroke-width="1.5" pointer-events="none"/>
                </g>
                <g id="dirArrow">
                        <path fill="none" stroke="white" stroke-width="1.5" d="M0,-3.0v7 M-2.5,-0.5L0,-3.0L2.5,-0.5"/>
                </g>
               <g id="resetDef">
                       <use xlink:href="#rim2" fill="#404040">
                               <set attributeName="fill" to="#808080" begin="reset.mouseover" end="reset.mouseout"/>
                       </use>
               </g>
        </defs>

<script type="text/javascript">
var viewWidth = 686;
var viewHeight = 674;
var sectionId = 'dynsection-0';
</script>
<script xlink:href="svgpan.js"/>
<svg id="graph" class="graph">
<g id="viewport">
<title>EthMacTxPause</title>
<polygon fill="white" stroke="transparent" points="-4,4 -4,-670 682,-670 682,4 -4,4"/>
<!-- Node1 -->
<g id="node1" class="node">
<title>Node1</title>
<g id="a_node1"><a xlink:title=" ">
<polygon fill="#bfbfbf" stroke="black" points="0,-323.5 0,-342.5 93,-342.5 93,-323.5 0,-323.5"/>
<text text-anchor="middle" x="46.5" y="-330.5" font-family="Helvetica,sans-Serif" font-size="10.00">EthMacTxPause</text>
</a>
</g>
</g>
<!-- Node2 -->
<g id="node2" class="node">
<title>Node2</title>
<g id="a_node2"><a xlink:href="classEthMacTx.html" target="_top" xlink:title=" ">
<polygon fill="white" stroke="black" points="129,-323.5 129,-342.5 194,-342.5 194,-323.5 129,-323.5"/>
<text text-anchor="middle" x="161.5" y="-330.5" font-family="Helvetica,sans-Serif" font-size="10.00">EthMacTx</text>
</a>
</g>
</g>
<!-- Node1&#45;&gt;Node2 -->
<g id="edge1" class="edge">
<title>Node1&#45;&gt;Node2</title>
<path fill="none" stroke="midnightblue" d="M103.38,-333C112.15,-333 120.94,-333 128.91,-333"/>
<polygon fill="midnightblue" stroke="midnightblue" points="103.14,-329.5 93.14,-333 103.14,-336.5 103.14,-329.5"/>
</g>
<!-- Node3 -->
<g id="node3" class="node">
<title>Node3</title>
<g id="a_node3"><a xlink:href="classEthMacTop.html" target="_top" xlink:title=" ">
<polygon fill="white" stroke="black" points="230,-323.5 230,-342.5 299,-342.5 299,-323.5 230,-323.5"/>
<text text-anchor="middle" x="264.5" y="-330.5" font-family="Helvetica,sans-Serif" font-size="10.00">EthMacTop</text>
</a>
</g>
</g>
<!-- Node2&#45;&gt;Node3 -->
<g id="edge2" class="edge">
<title>Node2&#45;&gt;Node3</title>
<path fill="none" stroke="midnightblue" d="M204.32,-333C212.82,-333 221.66,-333 229.84,-333"/>
<polygon fill="midnightblue" stroke="midnightblue" points="204.18,-329.5 194.18,-333 204.18,-336.5 204.18,-329.5"/>
</g>
<!-- Node4 -->
<g id="node4" class="node">
<title>Node4</title>
<g id="a_node4"><a xlink:href="classEthMacFastTb.html" target="_top" xlink:title=" ">
<polygon fill="white" stroke="black" points="359.5,-646.5 359.5,-665.5 443.5,-665.5 443.5,-646.5 359.5,-646.5"/>
<text text-anchor="middle" x="401.5" y="-653.5" font-family="Helvetica,sans-Serif" font-size="10.00">EthMacFastTb</text>
</a>
</g>
</g>
<!-- Node3&#45;&gt;Node4 -->
<g id="edge3" class="edge">
<title>Node3&#45;&gt;Node4</title>
<path fill="none" stroke="midnightblue" d="M267.43,-352.88C273.73,-413.63 295.55,-595.21 335,-637 341.5,-643.89 350.34,-648.33 359.41,-651.17"/>
<polygon fill="midnightblue" stroke="midnightblue" points="270.89,-352.31 266.41,-342.71 263.93,-353.01 270.89,-352.31"/>
</g>
<!-- Node5 -->
<g id="node5" class="node">
<title>Node5</title>
<g id="a_node5"><a xlink:href="classEthMacPauseTb.html" target="_top" xlink:title=" ">
<polygon fill="white" stroke="black" points="355,-608.5 355,-627.5 448,-627.5 448,-608.5 355,-608.5"/>
<text text-anchor="middle" x="401.5" y="-615.5" font-family="Helvetica,sans-Serif" font-size="10.00">EthMacPauseTb</text>
</a>
</g>
</g>
<!-- Node3&#45;&gt;Node5 -->
<g id="edge4" class="edge">
<title>Node3&#45;&gt;Node5</title>
<path fill="none" stroke="midnightblue" d="M268.09,-352.55C275.77,-407.75 300.11,-563.17 335,-599 340.45,-604.6 347.45,-608.57 354.82,-611.39"/>
<polygon fill="midnightblue" stroke="midnightblue" points="271.55,-352.07 266.74,-342.63 264.62,-353.01 271.55,-352.07"/>
</g>
<!-- Node6 -->
<g id="node6" class="node">
<title>Node6</title>
<g id="a_node6"><a xlink:href="classEthMacTb.html" target="_top" xlink:title=" ">
<polygon fill="white" stroke="black" points="369,-570.5 369,-589.5 434,-589.5 434,-570.5 369,-570.5"/>
<text text-anchor="middle" x="401.5" y="-577.5" font-family="Helvetica,sans-Serif" font-size="10.00">EthMacTb</text>
</a>
</g>
</g>
<!-- Node3&#45;&gt;Node6 -->
<g id="edge5" class="edge">
<title>Node3&#45;&gt;Node6</title>
<path fill="none" stroke="midnightblue" d="M265.58,-353.14C266.88,-397.26 276.32,-503.11 335,-561 344.02,-569.9 356.94,-574.68 368.93,-577.23"/>
<polygon fill="midnightblue" stroke="midnightblue" points="269.07,-352.81 265.4,-342.87 262.08,-352.93 269.07,-352.81"/>
</g>
<!-- Node7 -->
<g id="node7" class="node">
<title>Node7</title>
<g id="a_node7"><a xlink:href="classGigEthGth7.html" target="_top" xlink:title=" ">
<polygon fill="white" stroke="black" points="365.5,-532.5 365.5,-551.5 437.5,-551.5 437.5,-532.5 365.5,-532.5"/>
<text text-anchor="middle" x="401.5" y="-539.5" font-family="Helvetica,sans-Serif" font-size="10.00">GigEthGth7</text>
</a>
</g>
</g>
<!-- Node3&#45;&gt;Node7 -->
<g id="edge6" class="edge">
<title>Node3&#45;&gt;Node7</title>
<path fill="none" stroke="midnightblue" d="M267,-352.89C270.97,-391.41 285.22,-476.51 335,-523 343.31,-530.76 354.6,-535.37 365.46,-538.1"/>
<polygon fill="midnightblue" stroke="midnightblue" points="270.45,-352.17 266.06,-342.52 263.47,-352.8 270.45,-352.17"/>
</g>
<!-- Node9 -->
<g id="node9" class="node">
<title>Node9</title>
<g id="a_node9"><a xlink:href="classGigEthGthUltraScale.html" target="_top" xlink:title=" ">
<polygon fill="white" stroke="black" points="343.5,-494.5 343.5,-513.5 459.5,-513.5 459.5,-494.5 343.5,-494.5"/>
<text text-anchor="middle" x="401.5" y="-501.5" font-family="Helvetica,sans-Serif" font-size="10.00">GigEthGthUltraScale</text>
</a>
</g>
</g>
<!-- Node3&#45;&gt;Node9 -->
<g id="edge8" class="edge">
<title>Node3&#45;&gt;Node9</title>
<path fill="none" stroke="midnightblue" d="M269.08,-352.94C275.96,-385.43 294.13,-449.72 335,-485 339.48,-488.87 344.71,-491.95 350.23,-494.41"/>
<polygon fill="midnightblue" stroke="midnightblue" points="272.46,-352 267.1,-342.87 265.59,-353.36 272.46,-352"/>
</g>
<!-- Node11 -->
<g id="node11" class="node">
<title>Node11</title>
<g id="a_node11"><a xlink:href="classGigEthGtp7.html" target="_top" xlink:title=" ">
<polygon fill="white" stroke="black" points="365.5,-456.5 365.5,-475.5 437.5,-475.5 437.5,-456.5 365.5,-456.5"/>
<text text-anchor="middle" x="401.5" y="-463.5" font-family="Helvetica,sans-Serif" font-size="10.00">GigEthGtp7</text>
</a>
</g>
</g>
<!-- Node3&#45;&gt;Node11 -->
<g id="edge10" class="edge">
<title>Node3&#45;&gt;Node11</title>
<path fill="none" stroke="midnightblue" d="M272.15,-352.23C281.93,-377.69 302.62,-422.24 335,-447 343.75,-453.69 354.78,-458.03 365.29,-460.84"/>
<polygon fill="midnightblue" stroke="midnightblue" points="275.35,-350.79 268.62,-342.61 268.77,-353.2 275.35,-350.79"/>
</g>
<!-- Node13 -->
<g id="node13" class="node">
<title>Node13</title>
<g id="a_node13"><a xlink:href="classGigEthGtx7.html" target="_top" xlink:title=" ">
<polygon fill="white" stroke="black" points="365.5,-418.5 365.5,-437.5 437.5,-437.5 437.5,-418.5 365.5,-418.5"/>
<text text-anchor="middle" x="401.5" y="-425.5" font-family="Helvetica,sans-Serif" font-size="10.00">GigEthGtx7</text>
</a>
</g>
</g>
<!-- Node3&#45;&gt;Node13 -->
<g id="edge12" class="edge">
<title>Node3&#45;&gt;Node13</title>
<path fill="none" stroke="midnightblue" d="M277.76,-351.4C290.21,-368.7 311.04,-394.11 335,-409 344.15,-414.69 355.07,-418.73 365.35,-421.58"/>
<polygon fill="midnightblue" stroke="midnightblue" points="280.32,-348.95 271.74,-342.74 274.57,-352.95 280.32,-348.95"/>
</g>
<!-- Node15 -->
<g id="node15" class="node">
<title>Node15</title>
<g id="a_node15"><a xlink:href="classGigEthGtyUltraScale.html" target="_top" xlink:title=" ">
<polygon fill="white" stroke="black" points="343.5,-380.5 343.5,-399.5 459.5,-399.5 459.5,-380.5 343.5,-380.5"/>
<text text-anchor="middle" x="401.5" y="-387.5" font-family="Helvetica,sans-Serif" font-size="10.00">GigEthGtyUltraScale</text>
</a>
</g>
</g>
<!-- Node3&#45;&gt;Node15 -->
<g id="edge14" class="edge">
<title>Node3&#45;&gt;Node15</title>
<path fill="none" stroke="midnightblue" d="M289.59,-347.87C302.68,-355.51 319.35,-364.54 335,-371 343.65,-374.57 353.19,-377.74 362.26,-380.43"/>
<polygon fill="midnightblue" stroke="midnightblue" points="291.14,-344.72 280.75,-342.61 287.55,-350.73 291.14,-344.72"/>
</g>
<!-- Node17 -->
<g id="node17" class="node">
<title>Node17</title>
<g id="a_node17"><a xlink:href="classGigEthLvdsUltraScale.html" target="_top" xlink:title=" ">
<polygon fill="white" stroke="black" points="340.5,-342.5 340.5,-361.5 462.5,-361.5 462.5,-342.5 340.5,-342.5"/>
<text text-anchor="middle" x="401.5" y="-349.5" font-family="Helvetica,sans-Serif" font-size="10.00">GigEthLvdsUltraScale</text>
</a>
</g>
</g>
<!-- Node3&#45;&gt;Node17 -->
<g id="edge16" class="edge">
<title>Node3&#45;&gt;Node17</title>
<path fill="none" stroke="midnightblue" d="M309.25,-339.16C319.2,-340.56 329.93,-342.07 340.43,-343.55"/>
<polygon fill="midnightblue" stroke="midnightblue" points="309.61,-335.67 299.22,-337.75 308.63,-342.61 309.61,-335.67"/>
</g>
<!-- Node20 -->
<g id="node20" class="node">
<title>Node20</title>
<g id="a_node20"><a xlink:href="classTenGigEthGth7.html" target="_top" xlink:title=" ">
<polygon fill="white" stroke="black" points="357,-304.5 357,-323.5 446,-323.5 446,-304.5 357,-304.5"/>
<text text-anchor="middle" x="401.5" y="-311.5" font-family="Helvetica,sans-Serif" font-size="10.00">TenGigEthGth7</text>
</a>
</g>
</g>
<!-- Node3&#45;&gt;Node20 -->
<g id="edge19" class="edge">
<title>Node3&#45;&gt;Node20</title>
<path fill="none" stroke="midnightblue" d="M309.4,-326.82C324.58,-324.68 341.59,-322.29 356.77,-320.15"/>
<polygon fill="midnightblue" stroke="midnightblue" points="308.63,-323.39 299.22,-328.25 309.61,-330.33 308.63,-323.39"/>
</g>
<!-- Node22 -->
<g id="node22" class="node">
<title>Node22</title>
<g id="a_node22"><a xlink:href="classTenGigEthGthUltraScale.html" target="_top" xlink:title=" ">
<polygon fill="white" stroke="black" points="335,-266.5 335,-285.5 468,-285.5 468,-266.5 335,-266.5"/>
<text text-anchor="middle" x="401.5" y="-273.5" font-family="Helvetica,sans-Serif" font-size="10.00">TenGigEthGthUltraScale</text>
</a>
</g>
</g>
<!-- Node3&#45;&gt;Node22 -->
<g id="edge21" class="edge">
<title>Node3&#45;&gt;Node22</title>
<path fill="none" stroke="midnightblue" d="M289.59,-318.13C302.68,-310.49 319.35,-301.46 335,-295 343.65,-291.43 353.19,-288.26 362.26,-285.57"/>
<polygon fill="midnightblue" stroke="midnightblue" points="287.55,-315.27 280.75,-323.39 291.14,-321.28 287.55,-315.27"/>
</g>
<!-- Node24 -->
<g id="node24" class="node">
<title>Node24</title>
<g id="a_node24"><a xlink:href="classTenGigEthGtx7.html" target="_top" xlink:title=" ">
<polygon fill="white" stroke="black" points="357,-228.5 357,-247.5 446,-247.5 446,-228.5 357,-228.5"/>
<text text-anchor="middle" x="401.5" y="-235.5" font-family="Helvetica,sans-Serif" font-size="10.00">TenGigEthGtx7</text>
</a>
</g>
</g>
<!-- Node3&#45;&gt;Node24 -->
<g id="edge23" class="edge">
<title>Node3&#45;&gt;Node24</title>
<path fill="none" stroke="midnightblue" d="M277.76,-314.6C290.21,-297.3 311.04,-271.89 335,-257 341.64,-252.87 349.21,-249.61 356.78,-247.04"/>
<polygon fill="midnightblue" stroke="midnightblue" points="274.57,-313.05 271.74,-323.26 280.32,-317.05 274.57,-313.05"/>
</g>
<!-- Node26 -->
<g id="node26" class="node">
<title>Node26</title>
<g id="a_node26"><a xlink:href="classTenGigEthGtyUltraScale.html" target="_top" xlink:title=" ">
<polygon fill="white" stroke="black" points="335,-190.5 335,-209.5 468,-209.5 468,-190.5 335,-190.5"/>
<text text-anchor="middle" x="401.5" y="-197.5" font-family="Helvetica,sans-Serif" font-size="10.00">TenGigEthGtyUltraScale</text>
</a>
</g>
</g>
<!-- Node3&#45;&gt;Node26 -->
<g id="edge25" class="edge">
<title>Node3&#45;&gt;Node26</title>
<path fill="none" stroke="midnightblue" d="M272.15,-313.77C281.93,-288.31 302.62,-243.76 335,-219 340.08,-215.12 345.93,-212.03 352,-209.57"/>
<polygon fill="midnightblue" stroke="midnightblue" points="268.77,-312.8 268.62,-323.39 275.35,-315.21 268.77,-312.8"/>
</g>
<!-- Node28 -->
<g id="node28" class="node">
<title>Node28</title>
<g id="a_node28"><a xlink:href="classUdpEngineTb.html" target="_top" xlink:title=" ">
<polygon fill="white" stroke="black" points="361,-152.5 361,-171.5 442,-171.5 442,-152.5 361,-152.5"/>
<text text-anchor="middle" x="401.5" y="-159.5" font-family="Helvetica,sans-Serif" font-size="10.00">UdpEngineTb</text>
</a>
</g>
</g>
<!-- Node3&#45;&gt;Node28 -->
<g id="edge27" class="edge">
<title>Node3&#45;&gt;Node28</title>
<path fill="none" stroke="midnightblue" d="M269.08,-313.06C275.96,-280.57 294.13,-216.28 335,-181 342.26,-174.73 351.48,-170.53 360.7,-167.71"/>
<polygon fill="midnightblue" stroke="midnightblue" points="265.59,-312.64 267.1,-323.13 272.46,-314 265.59,-312.64"/>
</g>
<!-- Node29 -->
<g id="node29" class="node">
<title>Node29</title>
<g id="a_node29"><a xlink:href="classXauiGth7.html" target="_top" xlink:title=" ">
<polygon fill="white" stroke="black" points="370.5,-114.5 370.5,-133.5 432.5,-133.5 432.5,-114.5 370.5,-114.5"/>
<text text-anchor="middle" x="401.5" y="-121.5" font-family="Helvetica,sans-Serif" font-size="10.00">XauiGth7</text>
</a>
</g>
</g>
<!-- Node3&#45;&gt;Node29 -->
<g id="edge28" class="edge">
<title>Node3&#45;&gt;Node29</title>
<path fill="none" stroke="midnightblue" d="M267,-313.11C270.97,-274.59 285.22,-189.49 335,-143 344.52,-134.11 357.95,-129.35 370.18,-126.82"/>
<polygon fill="midnightblue" stroke="midnightblue" points="263.47,-313.2 266.06,-323.48 270.45,-313.83 263.47,-313.2"/>
</g>
<!-- Node31 -->
<g id="node31" class="node">
<title>Node31</title>
<g id="a_node31"><a xlink:href="classXauiGthUltraScale.html" target="_top" xlink:title=" ">
<polygon fill="white" stroke="black" points="348.5,-76.5 348.5,-95.5 454.5,-95.5 454.5,-76.5 348.5,-76.5"/>
<text text-anchor="middle" x="401.5" y="-83.5" font-family="Helvetica,sans-Serif" font-size="10.00">XauiGthUltraScale</text>
</a>
</g>
</g>
<!-- Node3&#45;&gt;Node31 -->
<g id="edge30" class="edge">
<title>Node3&#45;&gt;Node31</title>
<path fill="none" stroke="midnightblue" d="M265.58,-312.86C266.88,-268.74 276.32,-162.89 335,-105 338.88,-101.17 343.48,-98.11 348.41,-95.66"/>
<polygon fill="midnightblue" stroke="midnightblue" points="262.08,-313.07 265.4,-323.13 269.07,-313.19 262.08,-313.07"/>
</g>
<!-- Node33 -->
<g id="node33" class="node">
<title>Node33</title>
<g id="a_node33"><a xlink:href="classXauiGtx7.html" target="_top" xlink:title=" ">
<polygon fill="white" stroke="black" points="370.5,-38.5 370.5,-57.5 432.5,-57.5 432.5,-38.5 370.5,-38.5"/>
<text text-anchor="middle" x="401.5" y="-45.5" font-family="Helvetica,sans-Serif" font-size="10.00">XauiGtx7</text>
</a>
</g>
</g>
<!-- Node3&#45;&gt;Node33 -->
<g id="edge32" class="edge">
<title>Node3&#45;&gt;Node33</title>
<path fill="none" stroke="midnightblue" d="M268.09,-313.45C275.77,-258.25 300.11,-102.83 335,-67 344.25,-57.5 357.94,-52.67 370.42,-50.25"/>
<polygon fill="midnightblue" stroke="midnightblue" points="264.62,-312.99 266.74,-323.37 271.55,-313.93 264.62,-312.99"/>
</g>
<!-- Node35 -->
<g id="node35" class="node">
<title>Node35</title>
<g id="a_node35"><a xlink:href="classXauiGtyUltraScale.html" target="_top" xlink:title=" ">
<polygon fill="white" stroke="black" points="348.5,-0.5 348.5,-19.5 454.5,-19.5 454.5,-0.5 348.5,-0.5"/>
<text text-anchor="middle" x="401.5" y="-7.5" font-family="Helvetica,sans-Serif" font-size="10.00">XauiGtyUltraScale</text>
</a>
</g>
</g>
<!-- Node3&#45;&gt;Node35 -->
<g id="edge34" class="edge">
<title>Node3&#45;&gt;Node35</title>
<path fill="none" stroke="midnightblue" d="M267.43,-313.12C273.73,-252.37 295.55,-70.79 335,-29 338.82,-24.95 343.45,-21.75 348.45,-19.22"/>
<polygon fill="midnightblue" stroke="midnightblue" points="263.93,-312.99 266.41,-323.29 270.89,-313.69 263.93,-312.99"/>
</g>
<!-- Node8 -->
<g id="node8" class="node">
<title>Node8</title>
<g id="a_node8"><a xlink:href="classGigEthGth7Wrapper.html" target="_top" xlink:title=" ">
<polygon fill="white" stroke="black" points="534.5,-532.5 534.5,-551.5 647.5,-551.5 647.5,-532.5 534.5,-532.5"/>
<text text-anchor="middle" x="591" y="-539.5" font-family="Helvetica,sans-Serif" font-size="10.00">GigEthGth7Wrapper</text>
</a>
</g>
</g>
<!-- Node7&#45;&gt;Node8 -->
<g id="edge7" class="edge">
<title>Node7&#45;&gt;Node8</title>
<path fill="none" stroke="midnightblue" d="M448.08,-542C474.04,-542 506.77,-542 534.25,-542"/>
<polygon fill="midnightblue" stroke="midnightblue" points="447.77,-538.5 437.77,-542 447.77,-545.5 447.77,-538.5"/>
</g>
<!-- Node10 -->
<g id="node10" class="node">
<title>Node10</title>
<g id="a_node10"><a xlink:href="classGigEthGthUltraScaleWrapper.html" target="_top" xlink:title=" ">
<polygon fill="white" stroke="black" points="512,-494.5 512,-513.5 670,-513.5 670,-494.5 512,-494.5"/>
<text text-anchor="middle" x="591" y="-501.5" font-family="Helvetica,sans-Serif" font-size="10.00">GigEthGthUltraScaleWrapper</text>
</a>
</g>
</g>
<!-- Node9&#45;&gt;Node10 -->
<g id="edge9" class="edge">
<title>Node9&#45;&gt;Node10</title>
<path fill="none" stroke="midnightblue" d="M469.77,-504C483.4,-504 497.85,-504 511.82,-504"/>
<polygon fill="midnightblue" stroke="midnightblue" points="469.52,-500.5 459.52,-504 469.52,-507.5 469.52,-500.5"/>
</g>
<!-- Node12 -->
<g id="node12" class="node">
<title>Node12</title>
<g id="a_node12"><a xlink:href="classGigEthGtp7Wrapper.html" target="_top" xlink:title=" ">
<polygon fill="white" stroke="black" points="534.5,-456.5 534.5,-475.5 647.5,-475.5 647.5,-456.5 534.5,-456.5"/>
<text text-anchor="middle" x="591" y="-463.5" font-family="Helvetica,sans-Serif" font-size="10.00">GigEthGtp7Wrapper</text>
</a>
</g>
</g>
<!-- Node11&#45;&gt;Node12 -->
<g id="edge11" class="edge">
<title>Node11&#45;&gt;Node12</title>
<path fill="none" stroke="midnightblue" d="M448.08,-466C474.04,-466 506.77,-466 534.25,-466"/>
<polygon fill="midnightblue" stroke="midnightblue" points="447.77,-462.5 437.77,-466 447.77,-469.5 447.77,-462.5"/>
</g>
<!-- Node14 -->
<g id="node14" class="node">
<title>Node14</title>
<g id="a_node14"><a xlink:href="classGigEthGtx7Wrapper.html" target="_top" xlink:title=" ">
<polygon fill="white" stroke="black" points="534.5,-418.5 534.5,-437.5 647.5,-437.5 647.5,-418.5 534.5,-418.5"/>
<text text-anchor="middle" x="591" y="-425.5" font-family="Helvetica,sans-Serif" font-size="10.00">GigEthGtx7Wrapper</text>
</a>
</g>
</g>
<!-- Node13&#45;&gt;Node14 -->
<g id="edge13" class="edge">
<title>Node13&#45;&gt;Node14</title>
<path fill="none" stroke="midnightblue" d="M448.08,-428C474.04,-428 506.77,-428 534.25,-428"/>
<polygon fill="midnightblue" stroke="midnightblue" points="447.77,-424.5 437.77,-428 447.77,-431.5 447.77,-424.5"/>
</g>
<!-- Node16 -->
<g id="node16" class="node">
<title>Node16</title>
<g id="a_node16"><a xlink:href="classGigEthGtyUltraScaleWrapper.html" target="_top" xlink:title=" ">
<polygon fill="white" stroke="black" points="512,-380.5 512,-399.5 670,-399.5 670,-380.5 512,-380.5"/>
<text text-anchor="middle" x="591" y="-387.5" font-family="Helvetica,sans-Serif" font-size="10.00">GigEthGtyUltraScaleWrapper</text>
</a>
</g>
</g>
<!-- Node15&#45;&gt;Node16 -->
<g id="edge15" class="edge">
<title>Node15&#45;&gt;Node16</title>
<path fill="none" stroke="midnightblue" d="M469.77,-390C483.4,-390 497.85,-390 511.82,-390"/>
<polygon fill="midnightblue" stroke="midnightblue" points="469.52,-386.5 459.52,-390 469.52,-393.5 469.52,-386.5"/>
</g>
<!-- Node18 -->
<g id="node18" class="node">
<title>Node18</title>
<g id="a_node18"><a xlink:href="classSgmii88E1111LvdsUltraScale.html" target="_top" xlink:title=" ">
<polygon fill="white" stroke="black" points="511.5,-342.5 511.5,-361.5 670.5,-361.5 670.5,-342.5 511.5,-342.5"/>
<text text-anchor="middle" x="591" y="-349.5" font-family="Helvetica,sans-Serif" font-size="10.00">Sgmii88E1111LvdsUltraScale</text>
</a>
</g>
</g>
<!-- Node17&#45;&gt;Node18 -->
<g id="edge17" class="edge">
<title>Node17&#45;&gt;Node18</title>
<path fill="none" stroke="midnightblue" d="M472.98,-352C485.52,-352 498.65,-352 511.41,-352"/>
<polygon fill="midnightblue" stroke="midnightblue" points="472.6,-348.5 462.6,-352 472.6,-355.5 472.6,-348.5"/>
</g>
<!-- Node19 -->
<g id="node19" class="node">
<title>Node19</title>
<g id="a_node19"><a xlink:href="classSgmiiDp83867LvdsUltraScale.html" target="_top" xlink:title=" ">
<polygon fill="white" stroke="black" points="510.5,-304.5 510.5,-323.5 671.5,-323.5 671.5,-304.5 510.5,-304.5"/>
<text text-anchor="middle" x="591" y="-311.5" font-family="Helvetica,sans-Serif" font-size="10.00">SgmiiDp83867LvdsUltraScale</text>
</a>
</g>
</g>
<!-- Node17&#45;&gt;Node19 -->
<g id="edge18" class="edge">
<title>Node17&#45;&gt;Node19</title>
<path fill="none" stroke="midnightblue" d="M459.78,-340.39C486.45,-334.99 517.78,-328.64 543.03,-323.52"/>
<polygon fill="midnightblue" stroke="midnightblue" points="458.92,-336.99 449.81,-342.41 460.31,-343.85 458.92,-336.99"/>
</g>
<!-- Node21 -->
<g id="node21" class="node">
<title>Node21</title>
<g id="a_node21"><a xlink:href="classTenGigEthGth7Wrapper.html" target="_top" xlink:title=" ">
<polygon fill="white" stroke="black" points="526,-266.5 526,-285.5 656,-285.5 656,-266.5 526,-266.5"/>
<text text-anchor="middle" x="591" y="-273.5" font-family="Helvetica,sans-Serif" font-size="10.00">TenGigEthGth7Wrapper</text>
</a>
</g>
</g>
<!-- Node20&#45;&gt;Node21 -->
<g id="edge20" class="edge">
<title>Node20&#45;&gt;Node21</title>
<path fill="none" stroke="midnightblue" d="M456.28,-303.1C483.67,-297.55 516.67,-290.86 543.04,-285.52"/>
<polygon fill="midnightblue" stroke="midnightblue" points="455.57,-299.67 446.46,-305.09 456.96,-306.53 455.57,-299.67"/>
</g>
<!-- Node23 -->
<g id="node23" class="node">
<title>Node23</title>
<g id="a_node23"><a xlink:href="classTenGigEthGthUltraScaleWrapper.html" target="_top" xlink:title=" ">
<polygon fill="white" stroke="black" points="504,-228.5 504,-247.5 678,-247.5 678,-228.5 504,-228.5"/>
<text text-anchor="middle" x="591" y="-235.5" font-family="Helvetica,sans-Serif" font-size="10.00">TenGigEthGthUltraScaleWrapper</text>
</a>
</g>
</g>
<!-- Node22&#45;&gt;Node23 -->
<g id="edge22" class="edge">
<title>Node22&#45;&gt;Node23</title>
<path fill="none" stroke="midnightblue" d="M459.78,-264.39C486.45,-258.99 517.78,-252.64 543.03,-247.52"/>
<polygon fill="midnightblue" stroke="midnightblue" points="458.92,-260.99 449.81,-266.41 460.31,-267.85 458.92,-260.99"/>
</g>
<!-- Node25 -->
<g id="node25" class="node">
<title>Node25</title>
<g id="a_node25"><a xlink:href="classTenGigEthGtx7Wrapper.html" target="_top" xlink:title=" ">
<polygon fill="white" stroke="black" points="526,-190.5 526,-209.5 656,-209.5 656,-190.5 526,-190.5"/>
<text text-anchor="middle" x="591" y="-197.5" font-family="Helvetica,sans-Serif" font-size="10.00">TenGigEthGtx7Wrapper</text>
</a>
</g>
</g>
<!-- Node24&#45;&gt;Node25 -->
<g id="edge24" class="edge">
<title>Node24&#45;&gt;Node25</title>
<path fill="none" stroke="midnightblue" d="M456.28,-227.1C483.67,-221.55 516.67,-214.86 543.04,-209.52"/>
<polygon fill="midnightblue" stroke="midnightblue" points="455.57,-223.67 446.46,-229.09 456.96,-230.53 455.57,-223.67"/>
</g>
<!-- Node27 -->
<g id="node27" class="node">
<title>Node27</title>
<g id="a_node27"><a xlink:href="classTenGigEthGtyUltraScaleWrapper.html" target="_top" xlink:title=" ">
<polygon fill="white" stroke="black" points="504,-152.5 504,-171.5 678,-171.5 678,-152.5 504,-152.5"/>
<text text-anchor="middle" x="591" y="-159.5" font-family="Helvetica,sans-Serif" font-size="10.00">TenGigEthGtyUltraScaleWrapper</text>
</a>
</g>
</g>
<!-- Node26&#45;&gt;Node27 -->
<g id="edge26" class="edge">
<title>Node26&#45;&gt;Node27</title>
<path fill="none" stroke="midnightblue" d="M459.78,-188.39C486.45,-182.99 517.78,-176.64 543.03,-171.52"/>
<polygon fill="midnightblue" stroke="midnightblue" points="458.92,-184.99 449.81,-190.41 460.31,-191.85 458.92,-184.99"/>
</g>
<!-- Node30 -->
<g id="node30" class="node">
<title>Node30</title>
<g id="a_node30"><a xlink:href="classXauiGth7Wrapper.html" target="_top" xlink:title=" ">
<polygon fill="white" stroke="black" points="539.5,-114.5 539.5,-133.5 642.5,-133.5 642.5,-114.5 539.5,-114.5"/>
<text text-anchor="middle" x="591" y="-121.5" font-family="Helvetica,sans-Serif" font-size="10.00">XauiGth7Wrapper</text>
</a>
</g>
</g>
<!-- Node29&#45;&gt;Node30 -->
<g id="edge29" class="edge">
<title>Node29&#45;&gt;Node30</title>
<path fill="none" stroke="midnightblue" d="M442.95,-124C471.23,-124 509.19,-124 539.46,-124"/>
<polygon fill="midnightblue" stroke="midnightblue" points="442.63,-120.5 432.63,-124 442.63,-127.5 442.63,-120.5"/>
</g>
<!-- Node32 -->
<g id="node32" class="node">
<title>Node32</title>
<g id="a_node32"><a xlink:href="classXauiGthUltraScaleWrapper.html" target="_top" xlink:title=" ">
<polygon fill="white" stroke="black" points="517.5,-76.5 517.5,-95.5 664.5,-95.5 664.5,-76.5 517.5,-76.5"/>
<text text-anchor="middle" x="591" y="-83.5" font-family="Helvetica,sans-Serif" font-size="10.00">XauiGthUltraScaleWrapper</text>
</a>
</g>
</g>
<!-- Node31&#45;&gt;Node32 -->
<g id="edge31" class="edge">
<title>Node31&#45;&gt;Node32</title>
<path fill="none" stroke="midnightblue" d="M464.97,-86C481.77,-86 500.08,-86 517.38,-86"/>
<polygon fill="midnightblue" stroke="midnightblue" points="464.73,-82.5 454.73,-86 464.73,-89.5 464.73,-82.5"/>
</g>
<!-- Node34 -->
<g id="node34" class="node">
<title>Node34</title>
<g id="a_node34"><a xlink:href="classXauiGtx7Wrapper.html" target="_top" xlink:title=" ">
<polygon fill="white" stroke="black" points="539.5,-38.5 539.5,-57.5 642.5,-57.5 642.5,-38.5 539.5,-38.5"/>
<text text-anchor="middle" x="591" y="-45.5" font-family="Helvetica,sans-Serif" font-size="10.00">XauiGtx7Wrapper</text>
</a>
</g>
</g>
<!-- Node33&#45;&gt;Node34 -->
<g id="edge33" class="edge">
<title>Node33&#45;&gt;Node34</title>
<path fill="none" stroke="midnightblue" d="M442.95,-48C471.23,-48 509.19,-48 539.46,-48"/>
<polygon fill="midnightblue" stroke="midnightblue" points="442.63,-44.5 432.63,-48 442.63,-51.5 442.63,-44.5"/>
</g>
<!-- Node36 -->
<g id="node36" class="node">
<title>Node36</title>
<g id="a_node36"><a xlink:href="classXauiGtyUltraScaleWrapper.html" target="_top" xlink:title=" ">
<polygon fill="white" stroke="black" points="517.5,-0.5 517.5,-19.5 664.5,-19.5 664.5,-0.5 517.5,-0.5"/>
<text text-anchor="middle" x="591" y="-7.5" font-family="Helvetica,sans-Serif" font-size="10.00">XauiGtyUltraScaleWrapper</text>
</a>
</g>
</g>
<!-- Node35&#45;&gt;Node36 -->
<g id="edge35" class="edge">
<title>Node35&#45;&gt;Node36</title>
<path fill="none" stroke="midnightblue" d="M464.97,-10C481.77,-10 500.08,-10 517.38,-10"/>
<polygon fill="midnightblue" stroke="midnightblue" points="464.73,-6.5 454.73,-10 464.73,-13.5 464.73,-6.5"/>
</g>
</g>
</svg>
        <g id="navigator" transform="translate(0 0)" fill="#404254">
                <rect fill="#f2f5e9" fill-opacity="0.5" stroke="#606060" stroke-width=".5" x="0" y="0" width="60" height="60"/>
                <use id="zoomplus" xlink:href="#zoomPlus" x="17" y="9" onmousedown="handleZoom(evt,'in')"/>
                <use id="zoomminus" xlink:href="#zoomMin" x="42" y="9" onmousedown="handleZoom(evt,'out')"/>
                <use id="reset" xlink:href="#resetDef" x="30" y="36" onmousedown="handleReset()"/>
                <g id="arrowUp" xlink:href="#dirArrow" transform="translate(30 24)" onmousedown="handlePan(0,-1)">
                  <use xlink:href="#rim" fill="#404040">
                        <set attributeName="fill" to="#808080" begin="arrowUp.mouseover" end="arrowUp.mouseout"/>
                  </use>
                  <path fill="none" stroke="white" stroke-width="1.5" d="M0,-3.0v7 M-2.5,-0.5L0,-3.0L2.5,-0.5"/>
                </g>
                <g id="arrowRight" xlink:href="#dirArrow" transform="rotate(90) translate(36 -43)" onmousedown="handlePan(1,0)">
                  <use xlink:href="#rim" fill="#404040">
                        <set attributeName="fill" to="#808080" begin="arrowRight.mouseover" end="arrowRight.mouseout"/>
                  </use>
                  <path fill="none" stroke="white" stroke-width="1.5" d="M0,-3.0v7 M-2.5,-0.5L0,-3.0L2.5,-0.5"/>
                </g>
                <g id="arrowDown" xlink:href="#dirArrow" transform="rotate(180) translate(-30 -48)" onmousedown="handlePan(0,1)">
                  <use xlink:href="#rim" fill="#404040">
                        <set attributeName="fill" to="#808080" begin="arrowDown.mouseover" end="arrowDown.mouseout"/>
                  </use>
                  <path fill="none" stroke="white" stroke-width="1.5" d="M0,-3.0v7 M-2.5,-0.5L0,-3.0L2.5,-0.5"/>
                </g>
                <g id="arrowLeft" xlink:href="#dirArrow" transform="rotate(270) translate(-36 17)" onmousedown="handlePan(-1,0)">
                  <use xlink:href="#rim" fill="#404040">
                        <set attributeName="fill" to="#808080" begin="arrowLeft.mouseover" end="arrowLeft.mouseout"/>
                  </use>
                  <path fill="none" stroke="white" stroke-width="1.5" d="M0,-3.0v7 M-2.5,-0.5L0,-3.0L2.5,-0.5"/>
                </g>
        </g>
        <svg viewBox="0 0 15 15" width="100%" height="30px" preserveAspectRatio="xMaxYMin meet">
         <g id="arrow_out" transform="scale(0.3 0.3)">
          <a xlink:href="classEthMacTxPause__inherit__graph_org.svg" target="_base">
           <rect id="button" ry="5" rx="5" y="6" x="6" height="38" width="38"
                fill="#f2f5e9" fill-opacity="0.5" stroke="#606060" stroke-width="1.0"/>
           <path id="arrow"
             d="M 11.500037,31.436501 C 11.940474,20.09759 22.043105,11.32322 32.158766,21.979434 L 37.068811,17.246167 C 37.068811,17.246167 37.088388,32 37.088388,32 L 22.160133,31.978069 C 22.160133,31.978069 26.997745,27.140456 26.997745,27.140456 C 18.528582,18.264221 13.291696,25.230495 11.500037,31.436501 z"
             style="fill:#404040;"/>
          </a>
         </g>
        </svg>
</svg>
