<?xml version="1.0" encoding="UTF-8" standalone="no"?>
<!DOCTYPE svg PUBLIC "-//W3C//DTD SVG 1.1//EN"
 "http://www.w3.org/Graphics/SVG/1.1/DTD/svg11.dtd">
<!-- Generated by graphviz version 2.43.0 (0)
 -->
<!-- Title: SspEncoder8b10b Pages: 1 -->
<svg width="258pt" height="140pt"
 viewBox="0.00 0.00 257.50 140.00" xmlns="http://www.w3.org/2000/svg" xmlns:xlink="http://www.w3.org/1999/xlink">
<g id="graph0" class="graph" transform="scale(1 1) rotate(0) translate(4 136)">
<title>SspEncoder8b10b</title>
<polygon fill="white" stroke="transparent" points="-4,4 -4,-136 253.5,-136 253.5,4 -4,4"/>
<!-- Node1 -->
<g id="node1" class="node">
<title>Node1</title>
<g id="a_node1"><a xlink:title=" ">
<polygon fill="#bfbfbf" stroke="black" points="73.5,-56.5 73.5,-75.5 176.5,-75.5 176.5,-56.5 73.5,-56.5"/>
<text text-anchor="middle" x="125" y="-63.5" font-family="Helvetica,sans-Serif" font-size="10.00">SspEncoder8b10b</text>
</a>
</g>
</g>
<!-- Node4 -->
<g id="node4" class="node">
<title>Node4</title>
<g id="a_node4"><a xlink:href="classSspDecoder8b10bTb.html" target="_top" xlink:title=" ">
<polygon fill="white" stroke="black" points="0,-0.5 0,-19.5 116,-19.5 116,-0.5 0,-0.5"/>
<text text-anchor="middle" x="58" y="-7.5" font-family="Helvetica,sans-Serif" font-size="10.00">SspDecoder8b10bTb</text>
</a>
</g>
</g>
<!-- Node1&#45;&gt;Node4 -->
<g id="edge3" class="edge">
<title>Node1&#45;&gt;Node4</title>
<path fill="none" stroke="midnightblue" d="M106.17,-49.82C94.16,-40.15 79.03,-27.95 68.96,-19.83"/>
<polygon fill="midnightblue" stroke="midnightblue" points="104.25,-52.77 114.24,-56.32 108.65,-47.32 104.25,-52.77"/>
</g>
<!-- Node5 -->
<g id="node5" class="node">
<title>Node5</title>
<g id="a_node5"><a xlink:href="classSspEncoder8b10bTb.html" target="_top" xlink:title=" ">
<polygon fill="white" stroke="black" points="134.5,-0.5 134.5,-19.5 249.5,-19.5 249.5,-0.5 134.5,-0.5"/>
<text text-anchor="middle" x="192" y="-7.5" font-family="Helvetica,sans-Serif" font-size="10.00">SspEncoder8b10bTb</text>
</a>
</g>
</g>
<!-- Node1&#45;&gt;Node5 -->
<g id="edge4" class="edge">
<title>Node1&#45;&gt;Node5</title>
<path fill="none" stroke="midnightblue" d="M143.83,-49.82C155.84,-40.15 170.97,-27.95 181.04,-19.83"/>
<polygon fill="midnightblue" stroke="midnightblue" points="141.35,-47.32 135.76,-56.32 145.75,-52.77 141.35,-47.32"/>
</g>
<!-- Node2 -->
<g id="node2" class="node">
<title>Node2</title>
<g id="a_node2"><a xlink:href="classSspFramer.html" target="_top" xlink:title=" ">
<polygon fill="white" stroke="black" points="44,-112.5 44,-131.5 112,-131.5 112,-112.5 44,-112.5"/>
<text text-anchor="middle" x="78" y="-119.5" font-family="Helvetica,sans-Serif" font-size="10.00">SspFramer</text>
</a>
</g>
</g>
<!-- Node2&#45;&gt;Node1 -->
<g id="edge1" class="edge">
<title>Node2&#45;&gt;Node1</title>
<path fill="none" stroke="midnightblue" d="M92.42,-104.43C100.66,-94.97 110.65,-83.48 117.38,-75.75"/>
<polygon fill="midnightblue" stroke="midnightblue" points="89.69,-102.24 85.76,-112.08 94.97,-106.84 89.69,-102.24"/>
</g>
<!-- Node3 -->
<g id="node3" class="node">
<title>Node3</title>
<g id="a_node3"><a xlink:href="classEncoder8b10b.html" target="_top" xlink:title=" ">
<polygon fill="white" stroke="black" points="130,-112.5 130,-131.5 216,-131.5 216,-112.5 130,-112.5"/>
<text text-anchor="middle" x="173" y="-119.5" font-family="Helvetica,sans-Serif" font-size="10.00">Encoder8b10b</text>
</a>
</g>
</g>
<!-- Node3&#45;&gt;Node1 -->
<g id="edge2" class="edge">
<title>Node3&#45;&gt;Node1</title>
<path fill="none" stroke="midnightblue" d="M158.27,-104.43C149.86,-94.97 139.65,-83.48 132.78,-75.75"/>
<polygon fill="midnightblue" stroke="midnightblue" points="155.81,-106.93 165.07,-112.08 161.05,-102.28 155.81,-106.93"/>
</g>
</g>
</svg>
