<?xml version="1.0" encoding="UTF-8" standalone="no"?>
<!DOCTYPE svg PUBLIC "-//W3C//DTD SVG 1.1//EN"
 "http://www.w3.org/Graphics/SVG/1.1/DTD/svg11.dtd">
<!-- Generated by graphviz version 2.43.0 (0)
 -->
<!-- Title: EthMacTop Pages: 1 -->
<svg width="1293pt" height="674pt"
 viewBox="0.00 0.00 1293.00 674.00" xmlns="http://www.w3.org/2000/svg" xmlns:xlink="http://www.w3.org/1999/xlink">
<g id="graph0" class="graph" transform="scale(1 1) rotate(0) translate(4 670)">
<title>EthMacTop</title>
<polygon fill="white" stroke="transparent" points="-4,4 -4,-670 1289,-670 1289,4 -4,4"/>
<!-- Node1 -->
<g id="node1" class="node">
<title>Node1</title>
<g id="a_node1"><a xlink:title=" ">
<polygon fill="#bfbfbf" stroke="black" points="852,-323.5 852,-342.5 921,-342.5 921,-323.5 852,-323.5"/>
<text text-anchor="middle" x="886.5" y="-330.5" font-family="Helvetica,sans-Serif" font-size="10.00">EthMacTop</text>
</a>
</g>
</g>
<!-- Node43 -->
<g id="node25" class="node">
<title>Node43</title>
<g id="a_node25"><a xlink:href="classEthMacFastTb.html" target="_top" xlink:title=" ">
<polygon fill="white" stroke="black" points="981.5,-646.5 981.5,-665.5 1065.5,-665.5 1065.5,-646.5 981.5,-646.5"/>
<text text-anchor="middle" x="1023.5" y="-653.5" font-family="Helvetica,sans-Serif" font-size="10.00">EthMacFastTb</text>
</a>
</g>
</g>
<!-- Node1&#45;&gt;Node43 -->
<g id="edge29" class="edge">
<title>Node1&#45;&gt;Node43</title>
<path fill="none" stroke="midnightblue" d="M889.43,-352.88C895.73,-413.63 917.55,-595.21 957,-637 963.5,-643.89 972.34,-648.33 981.41,-651.17"/>
<polygon fill="midnightblue" stroke="midnightblue" points="892.89,-352.31 888.41,-342.71 885.93,-353.01 892.89,-352.31"/>
</g>
<!-- Node44 -->
<g id="node26" class="node">
<title>Node44</title>
<g id="a_node26"><a xlink:href="classEthMacPauseTb.html" target="_top" xlink:title=" ">
<polygon fill="white" stroke="black" points="977,-608.5 977,-627.5 1070,-627.5 1070,-608.5 977,-608.5"/>
<text text-anchor="middle" x="1023.5" y="-615.5" font-family="Helvetica,sans-Serif" font-size="10.00">EthMacPauseTb</text>
</a>
</g>
</g>
<!-- Node1&#45;&gt;Node44 -->
<g id="edge30" class="edge">
<title>Node1&#45;&gt;Node44</title>
<path fill="none" stroke="midnightblue" d="M890.09,-352.55C897.77,-407.75 922.11,-563.17 957,-599 962.45,-604.6 969.45,-608.57 976.82,-611.39"/>
<polygon fill="midnightblue" stroke="midnightblue" points="893.55,-352.07 888.74,-342.63 886.62,-353.01 893.55,-352.07"/>
</g>
<!-- Node45 -->
<g id="node27" class="node">
<title>Node45</title>
<g id="a_node27"><a xlink:href="classEthMacTb.html" target="_top" xlink:title=" ">
<polygon fill="white" stroke="black" points="991,-570.5 991,-589.5 1056,-589.5 1056,-570.5 991,-570.5"/>
<text text-anchor="middle" x="1023.5" y="-577.5" font-family="Helvetica,sans-Serif" font-size="10.00">EthMacTb</text>
</a>
</g>
</g>
<!-- Node1&#45;&gt;Node45 -->
<g id="edge31" class="edge">
<title>Node1&#45;&gt;Node45</title>
<path fill="none" stroke="midnightblue" d="M887.58,-353.14C888.88,-397.26 898.32,-503.11 957,-561 966.02,-569.9 978.94,-574.68 990.93,-577.23"/>
<polygon fill="midnightblue" stroke="midnightblue" points="891.07,-352.81 887.4,-342.87 884.08,-352.93 891.07,-352.81"/>
</g>
<!-- Node46 -->
<g id="node28" class="node">
<title>Node46</title>
<g id="a_node28"><a xlink:href="classGigEthGth7.html" target="_top" xlink:title=" ">
<polygon fill="white" stroke="black" points="987.5,-532.5 987.5,-551.5 1059.5,-551.5 1059.5,-532.5 987.5,-532.5"/>
<text text-anchor="middle" x="1023.5" y="-539.5" font-family="Helvetica,sans-Serif" font-size="10.00">GigEthGth7</text>
</a>
</g>
</g>
<!-- Node1&#45;&gt;Node46 -->
<g id="edge32" class="edge">
<title>Node1&#45;&gt;Node46</title>
<path fill="none" stroke="midnightblue" d="M889,-352.89C892.97,-391.41 907.22,-476.51 957,-523 965.31,-530.76 976.6,-535.37 987.46,-538.1"/>
<polygon fill="midnightblue" stroke="midnightblue" points="892.45,-352.17 888.06,-342.52 885.47,-352.8 892.45,-352.17"/>
</g>
<!-- Node48 -->
<g id="node30" class="node">
<title>Node48</title>
<g id="a_node30"><a xlink:href="classGigEthGthUltraScale.html" target="_top" xlink:title=" ">
<polygon fill="white" stroke="black" points="965.5,-494.5 965.5,-513.5 1081.5,-513.5 1081.5,-494.5 965.5,-494.5"/>
<text text-anchor="middle" x="1023.5" y="-501.5" font-family="Helvetica,sans-Serif" font-size="10.00">GigEthGthUltraScale</text>
</a>
</g>
</g>
<!-- Node1&#45;&gt;Node48 -->
<g id="edge34" class="edge">
<title>Node1&#45;&gt;Node48</title>
<path fill="none" stroke="midnightblue" d="M891.08,-352.94C897.96,-385.43 916.13,-449.72 957,-485 961.48,-488.87 966.71,-491.95 972.23,-494.41"/>
<polygon fill="midnightblue" stroke="midnightblue" points="894.46,-352 889.1,-342.87 887.59,-353.36 894.46,-352"/>
</g>
<!-- Node50 -->
<g id="node32" class="node">
<title>Node50</title>
<g id="a_node32"><a xlink:href="classGigEthGtp7.html" target="_top" xlink:title=" ">
<polygon fill="white" stroke="black" points="987.5,-456.5 987.5,-475.5 1059.5,-475.5 1059.5,-456.5 987.5,-456.5"/>
<text text-anchor="middle" x="1023.5" y="-463.5" font-family="Helvetica,sans-Serif" font-size="10.00">GigEthGtp7</text>
</a>
</g>
</g>
<!-- Node1&#45;&gt;Node50 -->
<g id="edge36" class="edge">
<title>Node1&#45;&gt;Node50</title>
<path fill="none" stroke="midnightblue" d="M894.15,-352.23C903.93,-377.69 924.62,-422.24 957,-447 965.75,-453.69 976.78,-458.03 987.29,-460.84"/>
<polygon fill="midnightblue" stroke="midnightblue" points="897.35,-350.79 890.62,-342.61 890.77,-353.2 897.35,-350.79"/>
</g>
<!-- Node52 -->
<g id="node34" class="node">
<title>Node52</title>
<g id="a_node34"><a xlink:href="classGigEthGtx7.html" target="_top" xlink:title=" ">
<polygon fill="white" stroke="black" points="987.5,-418.5 987.5,-437.5 1059.5,-437.5 1059.5,-418.5 987.5,-418.5"/>
<text text-anchor="middle" x="1023.5" y="-425.5" font-family="Helvetica,sans-Serif" font-size="10.00">GigEthGtx7</text>
</a>
</g>
</g>
<!-- Node1&#45;&gt;Node52 -->
<g id="edge38" class="edge">
<title>Node1&#45;&gt;Node52</title>
<path fill="none" stroke="midnightblue" d="M899.76,-351.4C912.21,-368.7 933.04,-394.11 957,-409 966.15,-414.69 977.07,-418.73 987.35,-421.58"/>
<polygon fill="midnightblue" stroke="midnightblue" points="902.32,-348.95 893.74,-342.74 896.57,-352.95 902.32,-348.95"/>
</g>
<!-- Node54 -->
<g id="node36" class="node">
<title>Node54</title>
<g id="a_node36"><a xlink:href="classGigEthGtyUltraScale.html" target="_top" xlink:title=" ">
<polygon fill="white" stroke="black" points="965.5,-380.5 965.5,-399.5 1081.5,-399.5 1081.5,-380.5 965.5,-380.5"/>
<text text-anchor="middle" x="1023.5" y="-387.5" font-family="Helvetica,sans-Serif" font-size="10.00">GigEthGtyUltraScale</text>
</a>
</g>
</g>
<!-- Node1&#45;&gt;Node54 -->
<g id="edge40" class="edge">
<title>Node1&#45;&gt;Node54</title>
<path fill="none" stroke="midnightblue" d="M911.59,-347.87C924.68,-355.51 941.35,-364.54 957,-371 965.65,-374.57 975.19,-377.74 984.26,-380.43"/>
<polygon fill="midnightblue" stroke="midnightblue" points="913.14,-344.72 902.75,-342.61 909.55,-350.73 913.14,-344.72"/>
</g>
<!-- Node56 -->
<g id="node38" class="node">
<title>Node56</title>
<g id="a_node38"><a xlink:href="classGigEthLvdsUltraScale.html" target="_top" xlink:title=" ">
<polygon fill="white" stroke="black" points="962.5,-342.5 962.5,-361.5 1084.5,-361.5 1084.5,-342.5 962.5,-342.5"/>
<text text-anchor="middle" x="1023.5" y="-349.5" font-family="Helvetica,sans-Serif" font-size="10.00">GigEthLvdsUltraScale</text>
</a>
</g>
</g>
<!-- Node1&#45;&gt;Node56 -->
<g id="edge42" class="edge">
<title>Node1&#45;&gt;Node56</title>
<path fill="none" stroke="midnightblue" d="M931.25,-339.16C941.2,-340.56 951.93,-342.07 962.43,-343.55"/>
<polygon fill="midnightblue" stroke="midnightblue" points="931.61,-335.67 921.22,-337.75 930.63,-342.61 931.61,-335.67"/>
</g>
<!-- Node58 -->
<g id="node40" class="node">
<title>Node58</title>
<g id="a_node40"><a xlink:href="classTenGigEthGth7.html" target="_top" xlink:title=" ">
<polygon fill="white" stroke="black" points="979,-304.5 979,-323.5 1068,-323.5 1068,-304.5 979,-304.5"/>
<text text-anchor="middle" x="1023.5" y="-311.5" font-family="Helvetica,sans-Serif" font-size="10.00">TenGigEthGth7</text>
</a>
</g>
</g>
<!-- Node1&#45;&gt;Node58 -->
<g id="edge44" class="edge">
<title>Node1&#45;&gt;Node58</title>
<path fill="none" stroke="midnightblue" d="M931.4,-326.82C946.58,-324.68 963.59,-322.29 978.77,-320.15"/>
<polygon fill="midnightblue" stroke="midnightblue" points="930.63,-323.39 921.22,-328.25 931.61,-330.33 930.63,-323.39"/>
</g>
<!-- Node60 -->
<g id="node42" class="node">
<title>Node60</title>
<g id="a_node42"><a xlink:href="classTenGigEthGthUltraScale.html" target="_top" xlink:title=" ">
<polygon fill="white" stroke="red" points="957,-266.5 957,-285.5 1090,-285.5 1090,-266.5 957,-266.5"/>
<text text-anchor="middle" x="1023.5" y="-273.5" font-family="Helvetica,sans-Serif" font-size="10.00">TenGigEthGthUltraScale</text>
</a>
</g>
</g>
<!-- Node1&#45;&gt;Node60 -->
<g id="edge46" class="edge">
<title>Node1&#45;&gt;Node60</title>
<path fill="none" stroke="midnightblue" d="M911.59,-318.13C924.68,-310.49 941.35,-301.46 957,-295 965.65,-291.43 975.19,-288.26 984.26,-285.57"/>
<polygon fill="midnightblue" stroke="midnightblue" points="909.55,-315.27 902.75,-323.39 913.14,-321.28 909.55,-315.27"/>
</g>
<!-- Node62 -->
<g id="node43" class="node">
<title>Node62</title>
<g id="a_node43"><a xlink:href="classTenGigEthGtx7.html" target="_top" xlink:title=" ">
<polygon fill="white" stroke="red" points="979,-228.5 979,-247.5 1068,-247.5 1068,-228.5 979,-228.5"/>
<text text-anchor="middle" x="1023.5" y="-235.5" font-family="Helvetica,sans-Serif" font-size="10.00">TenGigEthGtx7</text>
</a>
</g>
</g>
<!-- Node1&#45;&gt;Node62 -->
<g id="edge47" class="edge">
<title>Node1&#45;&gt;Node62</title>
<path fill="none" stroke="midnightblue" d="M899.76,-314.6C912.21,-297.3 933.04,-271.89 957,-257 963.64,-252.87 971.21,-249.61 978.78,-247.04"/>
<polygon fill="midnightblue" stroke="midnightblue" points="896.57,-313.05 893.74,-323.26 902.32,-317.05 896.57,-313.05"/>
</g>
<!-- Node64 -->
<g id="node44" class="node">
<title>Node64</title>
<g id="a_node44"><a xlink:href="classTenGigEthGtyUltraScale.html" target="_top" xlink:title=" ">
<polygon fill="white" stroke="red" points="957,-190.5 957,-209.5 1090,-209.5 1090,-190.5 957,-190.5"/>
<text text-anchor="middle" x="1023.5" y="-197.5" font-family="Helvetica,sans-Serif" font-size="10.00">TenGigEthGtyUltraScale</text>
</a>
</g>
</g>
<!-- Node1&#45;&gt;Node64 -->
<g id="edge48" class="edge">
<title>Node1&#45;&gt;Node64</title>
<path fill="none" stroke="midnightblue" d="M894.15,-313.77C903.93,-288.31 924.62,-243.76 957,-219 962.08,-215.12 967.93,-212.03 974,-209.57"/>
<polygon fill="midnightblue" stroke="midnightblue" points="890.77,-312.8 890.62,-323.39 897.35,-315.21 890.77,-312.8"/>
</g>
<!-- Node66 -->
<g id="node45" class="node">
<title>Node66</title>
<g id="a_node45"><a xlink:href="classUdpEngineTb.html" target="_top" xlink:title=" ">
<polygon fill="white" stroke="black" points="983,-152.5 983,-171.5 1064,-171.5 1064,-152.5 983,-152.5"/>
<text text-anchor="middle" x="1023.5" y="-159.5" font-family="Helvetica,sans-Serif" font-size="10.00">UdpEngineTb</text>
</a>
</g>
</g>
<!-- Node1&#45;&gt;Node66 -->
<g id="edge49" class="edge">
<title>Node1&#45;&gt;Node66</title>
<path fill="none" stroke="midnightblue" d="M891.08,-313.06C897.96,-280.57 916.13,-216.28 957,-181 964.26,-174.73 973.48,-170.53 982.7,-167.71"/>
<polygon fill="midnightblue" stroke="midnightblue" points="887.59,-312.64 889.1,-323.13 894.46,-314 887.59,-312.64"/>
</g>
<!-- Node67 -->
<g id="node46" class="node">
<title>Node67</title>
<g id="a_node46"><a xlink:href="classXauiGth7.html" target="_top" xlink:title=" ">
<polygon fill="white" stroke="red" points="992.5,-114.5 992.5,-133.5 1054.5,-133.5 1054.5,-114.5 992.5,-114.5"/>
<text text-anchor="middle" x="1023.5" y="-121.5" font-family="Helvetica,sans-Serif" font-size="10.00">XauiGth7</text>
</a>
</g>
</g>
<!-- Node1&#45;&gt;Node67 -->
<g id="edge50" class="edge">
<title>Node1&#45;&gt;Node67</title>
<path fill="none" stroke="midnightblue" d="M889,-313.11C892.97,-274.59 907.22,-189.49 957,-143 966.52,-134.11 979.95,-129.35 992.18,-126.82"/>
<polygon fill="midnightblue" stroke="midnightblue" points="885.47,-313.2 888.06,-323.48 892.45,-313.83 885.47,-313.2"/>
</g>
<!-- Node69 -->
<g id="node47" class="node">
<title>Node69</title>
<g id="a_node47"><a xlink:href="classXauiGthUltraScale.html" target="_top" xlink:title=" ">
<polygon fill="white" stroke="red" points="970.5,-76.5 970.5,-95.5 1076.5,-95.5 1076.5,-76.5 970.5,-76.5"/>
<text text-anchor="middle" x="1023.5" y="-83.5" font-family="Helvetica,sans-Serif" font-size="10.00">XauiGthUltraScale</text>
</a>
</g>
</g>
<!-- Node1&#45;&gt;Node69 -->
<g id="edge51" class="edge">
<title>Node1&#45;&gt;Node69</title>
<path fill="none" stroke="midnightblue" d="M887.58,-312.86C888.88,-268.74 898.32,-162.89 957,-105 960.88,-101.17 965.48,-98.11 970.41,-95.66"/>
<polygon fill="midnightblue" stroke="midnightblue" points="884.08,-313.07 887.4,-323.13 891.07,-313.19 884.08,-313.07"/>
</g>
<!-- Node71 -->
<g id="node48" class="node">
<title>Node71</title>
<g id="a_node48"><a xlink:href="classXauiGtx7.html" target="_top" xlink:title=" ">
<polygon fill="white" stroke="red" points="992.5,-38.5 992.5,-57.5 1054.5,-57.5 1054.5,-38.5 992.5,-38.5"/>
<text text-anchor="middle" x="1023.5" y="-45.5" font-family="Helvetica,sans-Serif" font-size="10.00">XauiGtx7</text>
</a>
</g>
</g>
<!-- Node1&#45;&gt;Node71 -->
<g id="edge52" class="edge">
<title>Node1&#45;&gt;Node71</title>
<path fill="none" stroke="midnightblue" d="M890.09,-313.45C897.77,-258.25 922.11,-102.83 957,-67 966.25,-57.5 979.94,-52.67 992.42,-50.25"/>
<polygon fill="midnightblue" stroke="midnightblue" points="886.62,-312.99 888.74,-323.37 893.55,-313.93 886.62,-312.99"/>
</g>
<!-- Node73 -->
<g id="node49" class="node">
<title>Node73</title>
<g id="a_node49"><a xlink:href="classXauiGtyUltraScale.html" target="_top" xlink:title=" ">
<polygon fill="white" stroke="red" points="970.5,-0.5 970.5,-19.5 1076.5,-19.5 1076.5,-0.5 970.5,-0.5"/>
<text text-anchor="middle" x="1023.5" y="-7.5" font-family="Helvetica,sans-Serif" font-size="10.00">XauiGtyUltraScale</text>
</a>
</g>
</g>
<!-- Node1&#45;&gt;Node73 -->
<g id="edge53" class="edge">
<title>Node1&#45;&gt;Node73</title>
<path fill="none" stroke="midnightblue" d="M889.43,-313.12C895.73,-252.37 917.55,-70.79 957,-29 960.82,-24.95 965.45,-21.75 970.45,-19.22"/>
<polygon fill="midnightblue" stroke="midnightblue" points="885.93,-312.99 888.41,-323.29 892.89,-313.69 885.93,-312.99"/>
</g>
<!-- Node2 -->
<g id="node2" class="node">
<title>Node2</title>
<g id="a_node2"><a xlink:href="classEthMacTxFifo.html" target="_top" xlink:title=" ">
<polygon fill="white" stroke="black" points="728,-181.5 728,-200.5 811,-200.5 811,-181.5 728,-181.5"/>
<text text-anchor="middle" x="769.5" y="-188.5" font-family="Helvetica,sans-Serif" font-size="10.00">EthMacTxFifo</text>
</a>
</g>
</g>
<!-- Node2&#45;&gt;Node1 -->
<g id="edge1" class="edge">
<title>Node2&#45;&gt;Node1</title>
<path fill="none" stroke="midnightblue" d="M784.89,-208.77C809.37,-239 858.36,-299.49 877.54,-323.17"/>
<polygon fill="midnightblue" stroke="midnightblue" points="787.42,-206.33 778.4,-200.76 781.98,-210.73 787.42,-206.33"/>
</g>
<!-- Node3 -->
<g id="node3" class="node">
<title>Node3</title>
<g id="a_node3"><a xlink:href="classAxiStreamFifoV2.html" target="_top" xlink:title=" ">
<polygon fill="white" stroke="red" points="288,-418.5 288,-437.5 386,-437.5 386,-418.5 288,-418.5"/>
<text text-anchor="middle" x="337" y="-425.5" font-family="Helvetica,sans-Serif" font-size="10.00">AxiStreamFifoV2</text>
</a>
</g>
</g>
<!-- Node3&#45;&gt;Node2 -->
<g id="edge2" class="edge">
<title>Node3&#45;&gt;Node2</title>
<path fill="none" stroke="midnightblue" d="M348.33,-409.76C377.73,-359.99 467.41,-222.23 586,-172 639.39,-149.39 709.1,-168.53 744.95,-181.49"/>
<polygon fill="midnightblue" stroke="midnightblue" points="345.26,-408.08 343.27,-418.49 351.31,-411.6 345.26,-408.08"/>
</g>
<!-- Node22 -->
<g id="node10" class="node">
<title>Node22</title>
<g id="a_node10"><a xlink:href="classEthMacTxCsum.html" target="_top" xlink:title=" ">
<polygon fill="white" stroke="black" points="440,-513.5 440,-532.5 532,-532.5 532,-513.5 440,-513.5"/>
<text text-anchor="middle" x="486" y="-520.5" font-family="Helvetica,sans-Serif" font-size="10.00">EthMacTxCsum</text>
</a>
</g>
</g>
<!-- Node3&#45;&gt;Node22 -->
<g id="edge12" class="edge">
<title>Node3&#45;&gt;Node22</title>
<path fill="none" stroke="midnightblue" d="M355.91,-444.54C372.27,-459.07 397.56,-480.16 422,-495 433.76,-502.14 447.67,-508.52 459.42,-513.38"/>
<polygon fill="midnightblue" stroke="midnightblue" points="358,-441.7 348.23,-437.6 353.31,-446.9 358,-441.7"/>
</g>
<!-- Node26 -->
<g id="node14" class="node">
<title>Node26</title>
<g id="a_node14"><a xlink:href="classEthMacTxExportXgmii.html" target="_top" xlink:title=" ">
<polygon fill="white" stroke="red" points="423.5,-428.5 423.5,-447.5 548.5,-447.5 548.5,-428.5 423.5,-428.5"/>
<text text-anchor="middle" x="486" y="-435.5" font-family="Helvetica,sans-Serif" font-size="10.00">EthMacTxExportXgmii</text>
</a>
</g>
</g>
<!-- Node3&#45;&gt;Node26 -->
<g id="edge17" class="edge">
<title>Node3&#45;&gt;Node26</title>
<path fill="none" stroke="midnightblue" d="M396.37,-431.97C405.24,-432.57 414.42,-433.2 423.36,-433.81"/>
<polygon fill="midnightblue" stroke="midnightblue" points="396.35,-428.46 386.13,-431.27 395.87,-435.45 396.35,-428.46"/>
</g>
<!-- Node40 -->
<g id="node24" class="node">
<title>Node40</title>
<g id="a_node24"><a xlink:href="classSsiFifo.html" target="_top" xlink:title=" ">
<polygon fill="white" stroke="red" points="461.5,-352.5 461.5,-371.5 510.5,-371.5 510.5,-352.5 461.5,-352.5"/>
<text text-anchor="middle" x="486" y="-359.5" font-family="Helvetica,sans-Serif" font-size="10.00">SsiFifo</text>
</a>
</g>
</g>
<!-- Node3&#45;&gt;Node40 -->
<g id="edge28" class="edge">
<title>Node3&#45;&gt;Node40</title>
<path fill="none" stroke="midnightblue" d="M361.58,-412.98C378.05,-402.95 400.78,-390.01 422,-381 434.62,-375.64 449.25,-371.13 461.23,-367.85"/>
<polygon fill="midnightblue" stroke="midnightblue" points="359.34,-410.25 352.68,-418.49 363.02,-416.2 359.34,-410.25"/>
</g>
<!-- Node4 -->
<g id="node4" class="node">
<title>Node4</title>
<g id="a_node4"><a xlink:href="classAxiStreamGearbox.html" target="_top" xlink:title=" ">
<polygon fill="white" stroke="red" points="143,-475.5 143,-494.5 252,-494.5 252,-475.5 143,-475.5"/>
<text text-anchor="middle" x="197.5" y="-482.5" font-family="Helvetica,sans-Serif" font-size="10.00">AxiStreamGearbox</text>
</a>
</g>
</g>
<!-- Node4&#45;&gt;Node3 -->
<g id="edge3" class="edge">
<title>Node4&#45;&gt;Node3</title>
<path fill="none" stroke="midnightblue" d="M231.02,-471.52C256.2,-461.08 290.48,-446.87 312.91,-437.57"/>
<polygon fill="midnightblue" stroke="midnightblue" points="229.41,-468.4 221.51,-475.46 232.09,-474.86 229.41,-468.4"/>
</g>
<!-- Node6 -->
<g id="node5" class="node">
<title>Node6</title>
<g id="a_node5"><a xlink:href="classAxiStreamPipeline.html" target="_top" xlink:title=" ">
<polygon fill="white" stroke="red" points="0,-475.5 0,-494.5 107,-494.5 107,-475.5 0,-475.5"/>
<text text-anchor="middle" x="53.5" y="-482.5" font-family="Helvetica,sans-Serif" font-size="10.00">AxiStreamPipeline</text>
</a>
</g>
</g>
<!-- Node6&#45;&gt;Node3 -->
<g id="edge7" class="edge">
<title>Node6&#45;&gt;Node3</title>
<path fill="none" stroke="midnightblue" d="M108.07,-473.35C119.58,-470.88 131.69,-468.33 143,-466 192.34,-455.85 248.89,-444.78 287.97,-437.22"/>
<polygon fill="midnightblue" stroke="midnightblue" points="107.18,-469.96 98.13,-475.48 108.64,-476.8 107.18,-469.96"/>
</g>
<!-- Node6&#45;&gt;Node4 -->
<g id="edge4" class="edge">
<title>Node6&#45;&gt;Node4</title>
<path fill="none" stroke="midnightblue" d="M117.5,-485C125.88,-485 134.42,-485 142.63,-485"/>
<polygon fill="midnightblue" stroke="midnightblue" points="117.38,-481.5 107.38,-485 117.38,-488.5 117.38,-481.5"/>
</g>
<!-- Node6&#45;&gt;Node22 -->
<g id="edge11" class="edge">
<title>Node6&#45;&gt;Node22</title>
<path fill="none" stroke="midnightblue" d="M102.75,-496.78C115.75,-499.57 129.85,-502.23 143,-504 248.79,-518.21 374.37,-521.83 439.97,-522.73"/>
<polygon fill="midnightblue" stroke="midnightblue" points="103.13,-493.28 92.61,-494.54 101.62,-500.12 103.13,-493.28"/>
</g>
<!-- Node7 -->
<g id="node6" class="node">
<title>Node7</title>
<g id="a_node6"><a xlink:href="classFifoCascade.html" target="_top" xlink:title=" ">
<polygon fill="white" stroke="red" points="159.5,-399.5 159.5,-418.5 235.5,-418.5 235.5,-399.5 159.5,-399.5"/>
<text text-anchor="middle" x="197.5" y="-406.5" font-family="Helvetica,sans-Serif" font-size="10.00">FifoCascade</text>
</a>
</g>
</g>
<!-- Node7&#45;&gt;Node3 -->
<g id="edge5" class="edge">
<title>Node7&#45;&gt;Node3</title>
<path fill="none" stroke="midnightblue" d="M245.82,-415.54C259.42,-417.42 274.25,-419.47 287.89,-421.35"/>
<polygon fill="midnightblue" stroke="midnightblue" points="246.09,-412.04 235.71,-414.14 245.14,-418.98 246.09,-412.04"/>
</g>
<!-- Node14 -->
<g id="node7" class="node">
<title>Node14</title>
<g id="a_node7"><a xlink:href="classSynchronizer.html" target="_top" xlink:title=" ">
<polygon fill="white" stroke="red" points="157.5,-361.5 157.5,-380.5 237.5,-380.5 237.5,-361.5 157.5,-361.5"/>
<text text-anchor="middle" x="197.5" y="-368.5" font-family="Helvetica,sans-Serif" font-size="10.00">Synchronizer</text>
</a>
</g>
</g>
<!-- Node14&#45;&gt;Node3 -->
<g id="edge6" class="edge">
<title>Node14&#45;&gt;Node3</title>
<path fill="none" stroke="midnightblue" d="M236.17,-383.93C241.51,-385.9 246.91,-387.95 252,-390 274.27,-398.97 299.28,-410.48 316.18,-418.47"/>
<polygon fill="midnightblue" stroke="midnightblue" points="237.3,-380.62 226.71,-380.52 234.93,-387.21 237.3,-380.62"/>
</g>
<!-- Node20 -->
<g id="node8" class="node">
<title>Node20</title>
<g id="a_node8"><a xlink:href="classEthMacTx.html" target="_top" xlink:title=" ">
<polygon fill="white" stroke="black" points="737,-447.5 737,-466.5 802,-466.5 802,-447.5 737,-447.5"/>
<text text-anchor="middle" x="769.5" y="-454.5" font-family="Helvetica,sans-Serif" font-size="10.00">EthMacTx</text>
</a>
</g>
</g>
<!-- Node20&#45;&gt;Node1 -->
<g id="edge8" class="edge">
<title>Node20&#45;&gt;Node1</title>
<path fill="none" stroke="midnightblue" d="M786.37,-439.88C810.87,-413.47 857.07,-363.65 876.52,-342.68"/>
<polygon fill="midnightblue" stroke="midnightblue" points="783.76,-437.56 779.52,-447.27 788.89,-442.32 783.76,-437.56"/>
</g>
<!-- Node21 -->
<g id="node9" class="node">
<title>Node21</title>
<g id="a_node9"><a xlink:href="classEthMacTxBypass.html" target="_top" xlink:title=" ">
<polygon fill="white" stroke="black" points="586.5,-485.5 586.5,-504.5 686.5,-504.5 686.5,-485.5 586.5,-485.5"/>
<text text-anchor="middle" x="636.5" y="-492.5" font-family="Helvetica,sans-Serif" font-size="10.00">EthMacTxBypass</text>
</a>
</g>
</g>
<!-- Node21&#45;&gt;Node20 -->
<g id="edge9" class="edge">
<title>Node21&#45;&gt;Node20</title>
<path fill="none" stroke="midnightblue" d="M680.19,-482.62C698.62,-477.27 719.81,-471.12 736.81,-466.19"/>
<polygon fill="midnightblue" stroke="midnightblue" points="679.19,-479.26 670.56,-485.41 681.14,-485.99 679.19,-479.26"/>
</g>
<!-- Node22&#45;&gt;Node20 -->
<g id="edge10" class="edge">
<title>Node22&#45;&gt;Node20</title>
<path fill="none" stroke="midnightblue" d="M542.09,-528.64C583.14,-530.93 639.98,-529.98 687,-514 716.1,-504.11 744.13,-480.42 758.52,-466.9"/>
<polygon fill="midnightblue" stroke="midnightblue" points="542.21,-525.14 532.01,-528 541.77,-532.13 542.21,-525.14"/>
</g>
<!-- Node23 -->
<g id="node11" class="node">
<title>Node23</title>
<g id="a_node11"><a xlink:href="classEthMacTxPause.html" target="_top" xlink:title=" ">
<polygon fill="white" stroke="black" points="590,-447.5 590,-466.5 683,-466.5 683,-447.5 590,-447.5"/>
<text text-anchor="middle" x="636.5" y="-454.5" font-family="Helvetica,sans-Serif" font-size="10.00">EthMacTxPause</text>
</a>
</g>
</g>
<!-- Node23&#45;&gt;Node20 -->
<g id="edge13" class="edge">
<title>Node23&#45;&gt;Node20</title>
<path fill="none" stroke="midnightblue" d="M693.46,-457C708.33,-457 723.86,-457 736.91,-457"/>
<polygon fill="midnightblue" stroke="midnightblue" points="693.32,-453.5 683.32,-457 693.32,-460.5 693.32,-453.5"/>
</g>
<!-- Node24 -->
<g id="node12" class="node">
<title>Node24</title>
<g id="a_node12"><a xlink:href="classEthMacTxExport.html" target="_top" xlink:title=" ">
<polygon fill="white" stroke="black" points="588.5,-409.5 588.5,-428.5 684.5,-428.5 684.5,-409.5 588.5,-409.5"/>
<text text-anchor="middle" x="636.5" y="-416.5" font-family="Helvetica,sans-Serif" font-size="10.00">EthMacTxExport</text>
</a>
</g>
</g>
<!-- Node24&#45;&gt;Node20 -->
<g id="edge14" class="edge">
<title>Node24&#45;&gt;Node20</title>
<path fill="none" stroke="midnightblue" d="M680.19,-431.38C698.62,-436.73 719.81,-442.88 736.81,-447.81"/>
<polygon fill="midnightblue" stroke="midnightblue" points="681.14,-428.01 670.56,-428.59 679.19,-434.74 681.14,-428.01"/>
</g>
<!-- Node25 -->
<g id="node13" class="node">
<title>Node25</title>
<g id="a_node13"><a xlink:href="classEthMacTxExportXlgmii.html" target="_top" xlink:title=" ">
<polygon fill="white" stroke="black" points="422,-466.5 422,-485.5 550,-485.5 550,-466.5 422,-466.5"/>
<text text-anchor="middle" x="486" y="-473.5" font-family="Helvetica,sans-Serif" font-size="10.00">EthMacTxExportXlgmii</text>
</a>
</g>
</g>
<!-- Node25&#45;&gt;Node24 -->
<g id="edge15" class="edge">
<title>Node25&#45;&gt;Node24</title>
<path fill="none" stroke="midnightblue" d="M532.82,-463.32C538.67,-461.37 544.52,-459.25 550,-457 566.74,-450.13 569.53,-445.48 586,-438 593.29,-434.69 601.35,-431.44 608.8,-428.58"/>
<polygon fill="midnightblue" stroke="midnightblue" points="531.53,-460.05 523.07,-466.43 533.66,-466.72 531.53,-460.05"/>
</g>
<!-- Node26&#45;&gt;Node24 -->
<g id="edge16" class="edge">
<title>Node26&#45;&gt;Node24</title>
<path fill="none" stroke="midnightblue" d="M558.68,-428.83C568.73,-427.54 578.84,-426.25 588.27,-425.04"/>
<polygon fill="midnightblue" stroke="midnightblue" points="558.16,-425.37 548.69,-430.11 559.05,-432.31 558.16,-425.37"/>
</g>
<!-- Node28 -->
<g id="node15" class="node">
<title>Node28</title>
<g id="a_node15"><a xlink:href="classEthMacTxExportGmii.html" target="_top" xlink:title=" ">
<polygon fill="white" stroke="red" points="426.5,-390.5 426.5,-409.5 545.5,-409.5 545.5,-390.5 426.5,-390.5"/>
<text text-anchor="middle" x="486" y="-397.5" font-family="Helvetica,sans-Serif" font-size="10.00">EthMacTxExportGmii</text>
</a>
</g>
</g>
<!-- Node28&#45;&gt;Node24 -->
<g id="edge18" class="edge">
<title>Node28&#45;&gt;Node24</title>
<path fill="none" stroke="midnightblue" d="M555.71,-408.79C566.7,-410.2 577.86,-411.62 588.2,-412.95"/>
<polygon fill="midnightblue" stroke="midnightblue" points="556.05,-405.31 545.69,-407.51 555.17,-412.25 556.05,-405.31"/>
</g>
<!-- Node29 -->
<g id="node16" class="node">
<title>Node29</title>
<g id="a_node16"><a xlink:href="classEthMacFlowCtrl.html" target="_top" xlink:title=" ">
<polygon fill="white" stroke="black" points="723,-323.5 723,-342.5 816,-342.5 816,-323.5 723,-323.5"/>
<text text-anchor="middle" x="769.5" y="-330.5" font-family="Helvetica,sans-Serif" font-size="10.00">EthMacFlowCtrl</text>
</a>
</g>
</g>
<!-- Node29&#45;&gt;Node1 -->
<g id="edge19" class="edge">
<title>Node29&#45;&gt;Node1</title>
<path fill="none" stroke="midnightblue" d="M826.44,-333C835.15,-333 843.92,-333 851.92,-333"/>
<polygon fill="midnightblue" stroke="midnightblue" points="826.28,-329.5 816.28,-333 826.28,-336.5 826.28,-329.5"/>
</g>
<!-- Node30 -->
<g id="node17" class="node">
<title>Node30</title>
<g id="a_node17"><a xlink:href="classEthMacRx.html" target="_top" xlink:title=" ">
<polygon fill="white" stroke="black" points="737,-276.5 737,-295.5 802,-295.5 802,-276.5 737,-276.5"/>
<text text-anchor="middle" x="769.5" y="-283.5" font-family="Helvetica,sans-Serif" font-size="10.00">EthMacRx</text>
</a>
</g>
</g>
<!-- Node30&#45;&gt;Node1 -->
<g id="edge20" class="edge">
<title>Node30&#45;&gt;Node1</title>
<path fill="none" stroke="midnightblue" d="M803.11,-299.33C821.82,-306.98 844.9,-316.41 861.87,-323.34"/>
<polygon fill="midnightblue" stroke="midnightblue" points="804.35,-296.05 793.77,-295.51 801.7,-302.53 804.35,-296.05"/>
</g>
<!-- Node31 -->
<g id="node18" class="node">
<title>Node31</title>
<g id="a_node18"><a xlink:href="classEthMacRxImport.html" target="_top" xlink:title=" ">
<polygon fill="white" stroke="red" points="587.5,-295.5 587.5,-314.5 685.5,-314.5 685.5,-295.5 587.5,-295.5"/>
<text text-anchor="middle" x="636.5" y="-302.5" font-family="Helvetica,sans-Serif" font-size="10.00">EthMacRxImport</text>
</a>
</g>
</g>
<!-- Node31&#45;&gt;Node30 -->
<g id="edge21" class="edge">
<title>Node31&#45;&gt;Node30</title>
<path fill="none" stroke="midnightblue" d="M695.71,-296.56C709.84,-294.51 724.42,-292.39 736.8,-290.6"/>
<polygon fill="midnightblue" stroke="midnightblue" points="694.93,-293.13 685.54,-298.03 695.93,-300.06 694.93,-293.13"/>
</g>
<!-- Node35 -->
<g id="node19" class="node">
<title>Node35</title>
<g id="a_node19"><a xlink:href="classEthMacRxPause.html" target="_top" xlink:title=" ">
<polygon fill="white" stroke="black" points="589.5,-257.5 589.5,-276.5 683.5,-276.5 683.5,-257.5 589.5,-257.5"/>
<text text-anchor="middle" x="636.5" y="-264.5" font-family="Helvetica,sans-Serif" font-size="10.00">EthMacRxPause</text>
</a>
</g>
</g>
<!-- Node35&#45;&gt;Node30 -->
<g id="edge22" class="edge">
<title>Node35&#45;&gt;Node30</title>
<path fill="none" stroke="midnightblue" d="M693.72,-275.15C708.42,-277.29 723.76,-279.51 736.69,-281.39"/>
<polygon fill="midnightblue" stroke="midnightblue" points="694.08,-271.67 683.69,-273.7 693.08,-278.6 694.08,-271.67"/>
</g>
<!-- Node36 -->
<g id="node20" class="node">
<title>Node36</title>
<g id="a_node20"><a xlink:href="classEthMacRxCsum.html" target="_top" xlink:title=" ">
<polygon fill="white" stroke="black" points="590,-219.5 590,-238.5 683,-238.5 683,-219.5 590,-219.5"/>
<text text-anchor="middle" x="636.5" y="-226.5" font-family="Helvetica,sans-Serif" font-size="10.00">EthMacRxCsum</text>
</a>
</g>
</g>
<!-- Node36&#45;&gt;Node30 -->
<g id="edge23" class="edge">
<title>Node36&#45;&gt;Node30</title>
<path fill="none" stroke="midnightblue" d="M672.93,-242.25C677.68,-244.13 682.47,-246.08 687,-248 708.41,-257.09 732.51,-268.47 748.91,-276.4"/>
<polygon fill="midnightblue" stroke="midnightblue" points="673.92,-238.88 663.33,-238.52 671.38,-245.41 673.92,-238.88"/>
</g>
<!-- Node37 -->
<g id="node21" class="node">
<title>Node37</title>
<g id="a_node21"><a xlink:href="classEthMacRxBypass.html" target="_top" xlink:title=" ">
<polygon fill="white" stroke="black" points="586,-181.5 586,-200.5 687,-200.5 687,-181.5 586,-181.5"/>
<text text-anchor="middle" x="636.5" y="-188.5" font-family="Helvetica,sans-Serif" font-size="10.00">EthMacRxBypass</text>
</a>
</g>
</g>
<!-- Node37&#45;&gt;Node30 -->
<g id="edge24" class="edge">
<title>Node37&#45;&gt;Node30</title>
<path fill="none" stroke="midnightblue" d="M677.12,-204.61C680.55,-206.26 683.89,-208.06 687,-210 717.52,-229.07 746.71,-260.55 760.4,-276.34"/>
<polygon fill="midnightblue" stroke="midnightblue" points="678.53,-201.4 667.96,-200.58 675.71,-207.81 678.53,-201.4"/>
</g>
<!-- Node38 -->
<g id="node22" class="node">
<title>Node38</title>
<g id="a_node22"><a xlink:href="classEthMacRxFilter.html" target="_top" xlink:title=" ">
<polygon fill="white" stroke="black" points="591.5,-333.5 591.5,-352.5 681.5,-352.5 681.5,-333.5 591.5,-333.5"/>
<text text-anchor="middle" x="636.5" y="-340.5" font-family="Helvetica,sans-Serif" font-size="10.00">EthMacRxFilter</text>
</a>
</g>
</g>
<!-- Node38&#45;&gt;Node30 -->
<g id="edge25" class="edge">
<title>Node38&#45;&gt;Node30</title>
<path fill="none" stroke="midnightblue" d="M672.93,-329.75C677.68,-327.87 682.47,-325.92 687,-324 708.41,-314.91 732.51,-303.53 748.91,-295.6"/>
<polygon fill="midnightblue" stroke="midnightblue" points="671.38,-326.59 663.33,-333.48 673.92,-333.12 671.38,-326.59"/>
</g>
<!-- Node39 -->
<g id="node23" class="node">
<title>Node39</title>
<g id="a_node23"><a xlink:href="classEthMacRxFifo.html" target="_top" xlink:title=" ">
<polygon fill="white" stroke="black" points="728,-366.5 728,-385.5 811,-385.5 811,-366.5 728,-366.5"/>
<text text-anchor="middle" x="769.5" y="-373.5" font-family="Helvetica,sans-Serif" font-size="10.00">EthMacRxFifo</text>
</a>
</g>
</g>
<!-- Node39&#45;&gt;Node1 -->
<g id="edge26" class="edge">
<title>Node39&#45;&gt;Node1</title>
<path fill="none" stroke="midnightblue" d="M805.41,-362.95C823.01,-356.36 843.98,-348.52 860.05,-342.52"/>
<polygon fill="midnightblue" stroke="midnightblue" points="804.16,-359.68 796.02,-366.46 806.61,-366.23 804.16,-359.68"/>
</g>
<!-- Node40&#45;&gt;Node39 -->
<g id="edge27" class="edge">
<title>Node40&#45;&gt;Node39</title>
<path fill="none" stroke="midnightblue" d="M520.53,-363.67C572.41,-366.25 671.96,-371.2 727.86,-373.98"/>
<polygon fill="midnightblue" stroke="midnightblue" points="520.68,-360.17 510.52,-363.17 520.33,-367.16 520.68,-360.17"/>
</g>
<!-- Node47 -->
<g id="node29" class="node">
<title>Node47</title>
<g id="a_node29"><a xlink:href="classGigEthGth7Wrapper.html" target="_top" xlink:title=" ">
<polygon fill="white" stroke="black" points="1149,-532.5 1149,-551.5 1262,-551.5 1262,-532.5 1149,-532.5"/>
<text text-anchor="middle" x="1205.5" y="-539.5" font-family="Helvetica,sans-Serif" font-size="10.00">GigEthGth7Wrapper</text>
</a>
</g>
</g>
<!-- Node46&#45;&gt;Node47 -->
<g id="edge33" class="edge">
<title>Node46&#45;&gt;Node47</title>
<path fill="none" stroke="midnightblue" d="M1069.88,-542C1093.88,-542 1123.54,-542 1148.91,-542"/>
<polygon fill="midnightblue" stroke="midnightblue" points="1069.63,-538.5 1059.63,-542 1069.63,-545.5 1069.63,-538.5"/>
</g>
<!-- Node49 -->
<g id="node31" class="node">
<title>Node49</title>
<g id="a_node31"><a xlink:href="classGigEthGthUltraScaleWrapper.html" target="_top" xlink:title=" ">
<polygon fill="white" stroke="black" points="1126.5,-494.5 1126.5,-513.5 1284.5,-513.5 1284.5,-494.5 1126.5,-494.5"/>
<text text-anchor="middle" x="1205.5" y="-501.5" font-family="Helvetica,sans-Serif" font-size="10.00">GigEthGthUltraScaleWrapper</text>
</a>
</g>
</g>
<!-- Node48&#45;&gt;Node49 -->
<g id="edge35" class="edge">
<title>Node48&#45;&gt;Node49</title>
<path fill="none" stroke="midnightblue" d="M1092.04,-504C1103.2,-504 1114.86,-504 1126.26,-504"/>
<polygon fill="midnightblue" stroke="midnightblue" points="1091.95,-500.5 1081.95,-504 1091.95,-507.5 1091.95,-500.5"/>
</g>
<!-- Node51 -->
<g id="node33" class="node">
<title>Node51</title>
<g id="a_node33"><a xlink:href="classGigEthGtp7Wrapper.html" target="_top" xlink:title=" ">
<polygon fill="white" stroke="black" points="1149,-456.5 1149,-475.5 1262,-475.5 1262,-456.5 1149,-456.5"/>
<text text-anchor="middle" x="1205.5" y="-463.5" font-family="Helvetica,sans-Serif" font-size="10.00">GigEthGtp7Wrapper</text>
</a>
</g>
</g>
<!-- Node50&#45;&gt;Node51 -->
<g id="edge37" class="edge">
<title>Node50&#45;&gt;Node51</title>
<path fill="none" stroke="midnightblue" d="M1069.88,-466C1093.88,-466 1123.54,-466 1148.91,-466"/>
<polygon fill="midnightblue" stroke="midnightblue" points="1069.63,-462.5 1059.63,-466 1069.63,-469.5 1069.63,-462.5"/>
</g>
<!-- Node53 -->
<g id="node35" class="node">
<title>Node53</title>
<g id="a_node35"><a xlink:href="classGigEthGtx7Wrapper.html" target="_top" xlink:title=" ">
<polygon fill="white" stroke="black" points="1149,-418.5 1149,-437.5 1262,-437.5 1262,-418.5 1149,-418.5"/>
<text text-anchor="middle" x="1205.5" y="-425.5" font-family="Helvetica,sans-Serif" font-size="10.00">GigEthGtx7Wrapper</text>
</a>
</g>
</g>
<!-- Node52&#45;&gt;Node53 -->
<g id="edge39" class="edge">
<title>Node52&#45;&gt;Node53</title>
<path fill="none" stroke="midnightblue" d="M1069.88,-428C1093.88,-428 1123.54,-428 1148.91,-428"/>
<polygon fill="midnightblue" stroke="midnightblue" points="1069.63,-424.5 1059.63,-428 1069.63,-431.5 1069.63,-424.5"/>
</g>
<!-- Node55 -->
<g id="node37" class="node">
<title>Node55</title>
<g id="a_node37"><a xlink:href="classGigEthGtyUltraScaleWrapper.html" target="_top" xlink:title=" ">
<polygon fill="white" stroke="black" points="1126.5,-380.5 1126.5,-399.5 1284.5,-399.5 1284.5,-380.5 1126.5,-380.5"/>
<text text-anchor="middle" x="1205.5" y="-387.5" font-family="Helvetica,sans-Serif" font-size="10.00">GigEthGtyUltraScaleWrapper</text>
</a>
</g>
</g>
<!-- Node54&#45;&gt;Node55 -->
<g id="edge41" class="edge">
<title>Node54&#45;&gt;Node55</title>
<path fill="none" stroke="midnightblue" d="M1092.04,-390C1103.2,-390 1114.86,-390 1126.26,-390"/>
<polygon fill="midnightblue" stroke="midnightblue" points="1091.95,-386.5 1081.95,-390 1091.95,-393.5 1091.95,-386.5"/>
</g>
<!-- Node57 -->
<g id="node39" class="node">
<title>Node57</title>
<g id="a_node39"><a xlink:href="classSgmii88E1111LvdsUltraScale.html" target="_top" xlink:title=" ">
<polygon fill="white" stroke="black" points="1126,-342.5 1126,-361.5 1285,-361.5 1285,-342.5 1126,-342.5"/>
<text text-anchor="middle" x="1205.5" y="-349.5" font-family="Helvetica,sans-Serif" font-size="10.00">Sgmii88E1111LvdsUltraScale</text>
</a>
</g>
</g>
<!-- Node56&#45;&gt;Node57 -->
<g id="edge43" class="edge">
<title>Node56&#45;&gt;Node57</title>
<path fill="none" stroke="midnightblue" d="M1094.74,-352C1104.92,-352 1115.46,-352 1125.8,-352"/>
<polygon fill="midnightblue" stroke="midnightblue" points="1094.69,-348.5 1084.69,-352 1094.69,-355.5 1094.69,-348.5"/>
</g>
<!-- Node59 -->
<g id="node41" class="node">
<title>Node59</title>
<g id="a_node41"><a xlink:href="classTenGigEthGth7Wrapper.html" target="_top" xlink:title=" ">
<polygon fill="white" stroke="black" points="1140.5,-304.5 1140.5,-323.5 1270.5,-323.5 1270.5,-304.5 1140.5,-304.5"/>
<text text-anchor="middle" x="1205.5" y="-311.5" font-family="Helvetica,sans-Serif" font-size="10.00">TenGigEthGth7Wrapper</text>
</a>
</g>
</g>
<!-- Node58&#45;&gt;Node59 -->
<g id="edge45" class="edge">
<title>Node58&#45;&gt;Node59</title>
<path fill="none" stroke="midnightblue" d="M1078.28,-314C1097.75,-314 1119.93,-314 1140.21,-314"/>
<polygon fill="midnightblue" stroke="midnightblue" points="1078.07,-310.5 1068.07,-314 1078.07,-317.5 1078.07,-310.5"/>
</g>
</g>
</svg>
