<?xml version="1.0" encoding="UTF-8" standalone="no"?>
<!DOCTYPE svg PUBLIC "-//W3C//DTD SVG 1.1//EN"
 "http://www.w3.org/Graphics/SVG/1.1/DTD/svg11.dtd">
<!-- Generated by graphviz version 2.43.0 (0)
 -->
<!-- Title: SsiIbFrameFilter Pages: 1 -->
<svg width="813pt" height="902pt"
 viewBox="0.00 0.00 813.00 902.00" xmlns="http://www.w3.org/2000/svg" xmlns:xlink="http://www.w3.org/1999/xlink">
<g id="graph0" class="graph" transform="scale(1 1) rotate(0) translate(4 898)">
<title>SsiIbFrameFilter</title>
<polygon fill="white" stroke="transparent" points="-4,4 -4,-898 809,-898 809,4 -4,4"/>
<!-- Node1 -->
<g id="node1" class="node">
<title>Node1</title>
<g id="a_node1"><a xlink:title=" ">
<polygon fill="#bfbfbf" stroke="black" points="0,-95.5 0,-114.5 95,-114.5 95,-95.5 0,-95.5"/>
<text text-anchor="middle" x="47.5" y="-102.5" font-family="Helvetica,sans-Serif" font-size="10.00">SsiIbFrameFilter</text>
</a>
</g>
</g>
<!-- Node2 -->
<g id="node2" class="node">
<title>Node2</title>
<g id="a_node2"><a xlink:href="classSsiFifo.html" target="_top" xlink:title=" ">
<polygon fill="white" stroke="black" points="131,-95.5 131,-114.5 180,-114.5 180,-95.5 131,-95.5"/>
<text text-anchor="middle" x="155.5" y="-102.5" font-family="Helvetica,sans-Serif" font-size="10.00">SsiFifo</text>
</a>
</g>
</g>
<!-- Node1&#45;&gt;Node2 -->
<g id="edge1" class="edge">
<title>Node1&#45;&gt;Node2</title>
<path fill="none" stroke="midnightblue" d="M105.45,-105C114.43,-105 123.25,-105 130.89,-105"/>
<polygon fill="midnightblue" stroke="midnightblue" points="105.3,-101.5 95.3,-105 105.3,-108.5 105.3,-101.5"/>
</g>
<!-- Node3 -->
<g id="node3" class="node">
<title>Node3</title>
<g id="a_node3"><a xlink:href="classEthMacRxFifo.html" target="_top" xlink:title=" ">
<polygon fill="white" stroke="black" points="216,-361.5 216,-380.5 299,-380.5 299,-361.5 216,-361.5"/>
<text text-anchor="middle" x="257.5" y="-368.5" font-family="Helvetica,sans-Serif" font-size="10.00">EthMacRxFifo</text>
</a>
</g>
</g>
<!-- Node2&#45;&gt;Node3 -->
<g id="edge2" class="edge">
<title>Node2&#45;&gt;Node3</title>
<path fill="none" stroke="midnightblue" d="M163.76,-124.32C183.62,-177.14 238.32,-322.65 252.89,-361.41"/>
<polygon fill="midnightblue" stroke="midnightblue" points="166.97,-122.91 160.18,-114.78 160.42,-125.37 166.97,-122.91"/>
</g>
<!-- Node39 -->
<g id="node37" class="node">
<title>Node39</title>
<g id="a_node37"><a xlink:href="classSaltRx.html" target="_top" xlink:title=" ">
<polygon fill="white" stroke="black" points="233.5,-152.5 233.5,-171.5 281.5,-171.5 281.5,-152.5 233.5,-152.5"/>
<text text-anchor="middle" x="257.5" y="-159.5" font-family="Helvetica,sans-Serif" font-size="10.00">SaltRx</text>
</a>
</g>
</g>
<!-- Node2&#45;&gt;Node39 -->
<g id="edge36" class="edge">
<title>Node2&#45;&gt;Node39</title>
<path fill="none" stroke="midnightblue" d="M178.91,-120.29C189.89,-127.52 203.42,-136.07 216,-143 221.99,-146.3 228.64,-149.57 234.8,-152.45"/>
<polygon fill="midnightblue" stroke="midnightblue" points="180.63,-117.23 170.37,-114.59 176.75,-123.05 180.63,-117.23"/>
</g>
<!-- Node44 -->
<g id="node42" class="node">
<title>Node44</title>
<g id="a_node42"><a xlink:href="classSrpV0AxiLite.html" target="_top" xlink:title=" ">
<polygon fill="white" stroke="black" points="218,-114.5 218,-133.5 297,-133.5 297,-114.5 218,-114.5"/>
<text text-anchor="middle" x="257.5" y="-121.5" font-family="Helvetica,sans-Serif" font-size="10.00">SrpV0AxiLite</text>
</a>
</g>
</g>
<!-- Node2&#45;&gt;Node44 -->
<g id="edge41" class="edge">
<title>Node2&#45;&gt;Node44</title>
<path fill="none" stroke="midnightblue" d="M190.16,-111.4C199.01,-113.08 208.63,-114.9 217.73,-116.63"/>
<polygon fill="midnightblue" stroke="midnightblue" points="190.68,-107.93 180.2,-109.5 189.37,-114.81 190.68,-107.93"/>
</g>
<!-- Node46 -->
<g id="node44" class="node">
<title>Node46</title>
<g id="a_node44"><a xlink:href="classSrpV3Core.html" target="_top" xlink:title=" ">
<polygon fill="white" stroke="black" points="223.5,-76.5 223.5,-95.5 291.5,-95.5 291.5,-76.5 223.5,-76.5"/>
<text text-anchor="middle" x="257.5" y="-83.5" font-family="Helvetica,sans-Serif" font-size="10.00">SrpV3Core</text>
</a>
</g>
</g>
<!-- Node2&#45;&gt;Node46 -->
<g id="edge43" class="edge">
<title>Node2&#45;&gt;Node46</title>
<path fill="none" stroke="midnightblue" d="M190.34,-98.57C200.92,-96.56 212.58,-94.34 223.13,-92.34"/>
<polygon fill="midnightblue" stroke="midnightblue" points="189.37,-95.19 180.2,-100.5 190.68,-102.07 189.37,-95.19"/>
</g>
<!-- Node50 -->
<g id="node48" class="node">
<title>Node50</title>
<g id="a_node48"><a xlink:href="classSsiFifoTb.html" target="_top" xlink:title=" ">
<polygon fill="white" stroke="black" points="227,-38.5 227,-57.5 288,-57.5 288,-38.5 227,-38.5"/>
<text text-anchor="middle" x="257.5" y="-45.5" font-family="Helvetica,sans-Serif" font-size="10.00">SsiFifoTb</text>
</a>
</g>
</g>
<!-- Node2&#45;&gt;Node50 -->
<g id="edge47" class="edge">
<title>Node2&#45;&gt;Node50</title>
<path fill="none" stroke="midnightblue" d="M178.91,-89.71C189.89,-82.48 203.42,-73.93 216,-67 221.99,-63.7 228.64,-60.43 234.8,-57.55"/>
<polygon fill="midnightblue" stroke="midnightblue" points="176.75,-86.95 170.37,-95.41 180.63,-92.77 176.75,-86.95"/>
</g>
<!-- Node51 -->
<g id="node49" class="node">
<title>Node51</title>
<g id="a_node49"><a xlink:href="classSsiFilterTb.html" target="_top" xlink:title=" ">
<polygon fill="white" stroke="black" points="223.5,-0.5 223.5,-19.5 291.5,-19.5 291.5,-0.5 223.5,-0.5"/>
<text text-anchor="middle" x="257.5" y="-7.5" font-family="Helvetica,sans-Serif" font-size="10.00">SsiFilterTb</text>
</a>
</g>
</g>
<!-- Node2&#45;&gt;Node51 -->
<g id="edge48" class="edge">
<title>Node2&#45;&gt;Node51</title>
<path fill="none" stroke="midnightblue" d="M167.39,-86.56C178.05,-69.78 195.62,-45.23 216,-29 220.62,-25.32 226.06,-22.15 231.44,-19.52"/>
<polygon fill="midnightblue" stroke="midnightblue" points="164.2,-85.06 161.94,-95.42 170.16,-88.73 164.2,-85.06"/>
</g>
<!-- Node4 -->
<g id="node4" class="node">
<title>Node4</title>
<g id="a_node4"><a xlink:href="classEthMacTop.html" target="_top" xlink:title=" ">
<polygon fill="white" stroke="black" points="346,-532.5 346,-551.5 415,-551.5 415,-532.5 346,-532.5"/>
<text text-anchor="middle" x="380.5" y="-539.5" font-family="Helvetica,sans-Serif" font-size="10.00">EthMacTop</text>
</a>
</g>
</g>
<!-- Node3&#45;&gt;Node4 -->
<g id="edge3" class="edge">
<title>Node3&#45;&gt;Node4</title>
<path fill="none" stroke="midnightblue" d="M271.42,-389.27C297,-425.41 353.27,-504.93 372.72,-532.42"/>
<polygon fill="midnightblue" stroke="midnightblue" points="273.99,-386.83 265.35,-380.68 268.27,-390.87 273.99,-386.83"/>
</g>
<!-- Node5 -->
<g id="node5" class="node">
<title>Node5</title>
<g id="a_node5"><a xlink:href="classEthMacFastTb.html" target="_top" xlink:title=" ">
<polygon fill="white" stroke="black" points="486.5,-874.5 486.5,-893.5 570.5,-893.5 570.5,-874.5 486.5,-874.5"/>
<text text-anchor="middle" x="528.5" y="-881.5" font-family="Helvetica,sans-Serif" font-size="10.00">EthMacFastTb</text>
</a>
</g>
</g>
<!-- Node4&#45;&gt;Node5 -->
<g id="edge4" class="edge">
<title>Node4&#45;&gt;Node5</title>
<path fill="none" stroke="midnightblue" d="M383.86,-561.9C391.75,-625.22 419.18,-820.51 462,-865 468.49,-871.74 477.21,-876.13 486.17,-878.98"/>
<polygon fill="midnightblue" stroke="midnightblue" points="387.3,-561.18 382.61,-551.68 380.35,-562.03 387.3,-561.18"/>
</g>
<!-- Node6 -->
<g id="node6" class="node">
<title>Node6</title>
<g id="a_node6"><a xlink:href="classEthMacPauseTb.html" target="_top" xlink:title=" ">
<polygon fill="white" stroke="black" points="482,-836.5 482,-855.5 575,-855.5 575,-836.5 482,-836.5"/>
<text text-anchor="middle" x="528.5" y="-843.5" font-family="Helvetica,sans-Serif" font-size="10.00">EthMacPauseTb</text>
</a>
</g>
</g>
<!-- Node4&#45;&gt;Node6 -->
<g id="edge5" class="edge">
<title>Node4&#45;&gt;Node6</title>
<path fill="none" stroke="midnightblue" d="M380.97,-561.82C380.73,-613.2 387.4,-751.87 462,-827 467.51,-832.55 474.53,-836.49 481.92,-839.3"/>
<polygon fill="midnightblue" stroke="midnightblue" points="384.47,-561.78 381.12,-551.73 377.47,-561.68 384.47,-561.78"/>
</g>
<!-- Node7 -->
<g id="node7" class="node">
<title>Node7</title>
<g id="a_node7"><a xlink:href="classEthMacTb.html" target="_top" xlink:title=" ">
<polygon fill="white" stroke="black" points="496,-798.5 496,-817.5 561,-817.5 561,-798.5 496,-798.5"/>
<text text-anchor="middle" x="528.5" y="-805.5" font-family="Helvetica,sans-Serif" font-size="10.00">EthMacTb</text>
</a>
</g>
</g>
<!-- Node4&#45;&gt;Node7 -->
<g id="edge6" class="edge">
<title>Node4&#45;&gt;Node7</title>
<path fill="none" stroke="midnightblue" d="M382,-561.95C384.27,-608.61 396.57,-725.68 462,-789 471.02,-797.73 483.8,-802.49 495.68,-805.06"/>
<polygon fill="midnightblue" stroke="midnightblue" points="385.49,-561.54 381.61,-551.68 378.49,-561.81 385.49,-561.54"/>
</g>
<!-- Node8 -->
<g id="node8" class="node">
<title>Node8</title>
<g id="a_node8"><a xlink:href="classGigEthGth7.html" target="_top" xlink:title=" ">
<polygon fill="white" stroke="black" points="492.5,-760.5 492.5,-779.5 564.5,-779.5 564.5,-760.5 492.5,-760.5"/>
<text text-anchor="middle" x="528.5" y="-767.5" font-family="Helvetica,sans-Serif" font-size="10.00">GigEthGth7</text>
</a>
</g>
</g>
<!-- Node4&#45;&gt;Node8 -->
<g id="edge7" class="edge">
<title>Node4&#45;&gt;Node8</title>
<path fill="none" stroke="midnightblue" d="M383.33,-561.66C388.24,-602.93 405.45,-699.08 462,-751 470.29,-758.61 481.44,-763.19 492.2,-765.93"/>
<polygon fill="midnightblue" stroke="midnightblue" points="386.8,-561.12 382.25,-551.55 379.84,-561.87 386.8,-561.12"/>
</g>
<!-- Node10 -->
<g id="node10" class="node">
<title>Node10</title>
<g id="a_node10"><a xlink:href="classGigEthGthUltraScale.html" target="_top" xlink:title=" ">
<polygon fill="white" stroke="black" points="470.5,-722.5 470.5,-741.5 586.5,-741.5 586.5,-722.5 470.5,-722.5"/>
<text text-anchor="middle" x="528.5" y="-729.5" font-family="Helvetica,sans-Serif" font-size="10.00">GigEthGthUltraScale</text>
</a>
</g>
</g>
<!-- Node4&#45;&gt;Node10 -->
<g id="edge9" class="edge">
<title>Node4&#45;&gt;Node10</title>
<path fill="none" stroke="midnightblue" d="M385.29,-561.94C393.12,-597.63 414.48,-672.44 462,-713 466.5,-716.84 471.75,-719.91 477.27,-722.36"/>
<polygon fill="midnightblue" stroke="midnightblue" points="388.65,-560.92 383.21,-551.83 381.79,-562.33 388.65,-560.92"/>
</g>
<!-- Node12 -->
<g id="node12" class="node">
<title>Node12</title>
<g id="a_node12"><a xlink:href="classGigEthGtp7.html" target="_top" xlink:title=" ">
<polygon fill="white" stroke="black" points="492.5,-684.5 492.5,-703.5 564.5,-703.5 564.5,-684.5 492.5,-684.5"/>
<text text-anchor="middle" x="528.5" y="-691.5" font-family="Helvetica,sans-Serif" font-size="10.00">GigEthGtp7</text>
</a>
</g>
</g>
<!-- Node4&#45;&gt;Node12 -->
<g id="edge11" class="edge">
<title>Node4&#45;&gt;Node12</title>
<path fill="none" stroke="midnightblue" d="M388.06,-561.53C398.84,-590.62 423.07,-645.14 462,-675 470.74,-681.7 481.77,-686.04 492.28,-688.85"/>
<polygon fill="midnightblue" stroke="midnightblue" points="391.23,-559.98 384.58,-551.72 384.63,-562.32 391.23,-559.98"/>
</g>
<!-- Node14 -->
<g id="node14" class="node">
<title>Node14</title>
<g id="a_node14"><a xlink:href="classGigEthGtx7.html" target="_top" xlink:title=" ">
<polygon fill="white" stroke="black" points="492.5,-646.5 492.5,-665.5 564.5,-665.5 564.5,-646.5 492.5,-646.5"/>
<text text-anchor="middle" x="528.5" y="-653.5" font-family="Helvetica,sans-Serif" font-size="10.00">GigEthGtx7</text>
</a>
</g>
</g>
<!-- Node4&#45;&gt;Node14 -->
<g id="edge13" class="edge">
<title>Node4&#45;&gt;Node14</title>
<path fill="none" stroke="midnightblue" d="M392.24,-560.24C405.82,-581.73 431.19,-617.03 462,-637 471.04,-642.86 481.93,-646.96 492.21,-649.8"/>
<polygon fill="midnightblue" stroke="midnightblue" points="395.22,-558.4 387.01,-551.71 389.25,-562.06 395.22,-558.4"/>
</g>
<!-- Node16 -->
<g id="node16" class="node">
<title>Node16</title>
<g id="a_node16"><a xlink:href="classGigEthGtyUltraScale.html" target="_top" xlink:title=" ">
<polygon fill="white" stroke="black" points="470.5,-608.5 470.5,-627.5 586.5,-627.5 586.5,-608.5 470.5,-608.5"/>
<text text-anchor="middle" x="528.5" y="-615.5" font-family="Helvetica,sans-Serif" font-size="10.00">GigEthGtyUltraScale</text>
</a>
</g>
</g>
<!-- Node4&#45;&gt;Node16 -->
<g id="edge15" class="edge">
<title>Node4&#45;&gt;Node16</title>
<path fill="none" stroke="midnightblue" d="M400.31,-558.09C415.94,-570.74 439.22,-588.02 462,-599 469.68,-602.7 478.22,-605.82 486.53,-608.4"/>
<polygon fill="midnightblue" stroke="midnightblue" points="402.41,-555.28 392.47,-551.6 397.94,-560.67 402.41,-555.28"/>
</g>
<!-- Node18 -->
<g id="node18" class="node">
<title>Node18</title>
<g id="a_node18"><a xlink:href="classGigEthLvdsUltraScale.html" target="_top" xlink:title=" ">
<polygon fill="white" stroke="black" points="467.5,-570.5 467.5,-589.5 589.5,-589.5 589.5,-570.5 467.5,-570.5"/>
<text text-anchor="middle" x="528.5" y="-577.5" font-family="Helvetica,sans-Serif" font-size="10.00">GigEthLvdsUltraScale</text>
</a>
</g>
</g>
<!-- Node4&#45;&gt;Node18 -->
<g id="edge17" class="edge">
<title>Node4&#45;&gt;Node18</title>
<path fill="none" stroke="midnightblue" d="M425.27,-553.39C446.15,-558.83 470.86,-565.26 490.75,-570.44"/>
<polygon fill="midnightblue" stroke="midnightblue" points="425.92,-549.95 415.36,-550.81 424.16,-556.72 425.92,-549.95"/>
</g>
<!-- Node22 -->
<g id="node20" class="node">
<title>Node22</title>
<g id="a_node20"><a xlink:href="classTenGigEthGth7.html" target="_top" xlink:title=" ">
<polygon fill="white" stroke="black" points="484,-532.5 484,-551.5 573,-551.5 573,-532.5 484,-532.5"/>
<text text-anchor="middle" x="528.5" y="-539.5" font-family="Helvetica,sans-Serif" font-size="10.00">TenGigEthGth7</text>
</a>
</g>
</g>
<!-- Node4&#45;&gt;Node22 -->
<g id="edge19" class="edge">
<title>Node4&#45;&gt;Node22</title>
<path fill="none" stroke="midnightblue" d="M425.56,-542C444.02,-542 465.43,-542 483.84,-542"/>
<polygon fill="midnightblue" stroke="midnightblue" points="425.36,-538.5 415.36,-542 425.36,-545.5 425.36,-538.5"/>
</g>
<!-- Node24 -->
<g id="node22" class="node">
<title>Node24</title>
<g id="a_node22"><a xlink:href="classTenGigEthGthUltraScale.html" target="_top" xlink:title=" ">
<polygon fill="white" stroke="black" points="462,-494.5 462,-513.5 595,-513.5 595,-494.5 462,-494.5"/>
<text text-anchor="middle" x="528.5" y="-501.5" font-family="Helvetica,sans-Serif" font-size="10.00">TenGigEthGthUltraScale</text>
</a>
</g>
</g>
<!-- Node4&#45;&gt;Node24 -->
<g id="edge21" class="edge">
<title>Node4&#45;&gt;Node24</title>
<path fill="none" stroke="midnightblue" d="M425.27,-530.61C446.15,-525.17 470.86,-518.74 490.75,-513.56"/>
<polygon fill="midnightblue" stroke="midnightblue" points="424.16,-527.28 415.36,-533.19 425.92,-534.05 424.16,-527.28"/>
</g>
<!-- Node26 -->
<g id="node24" class="node">
<title>Node26</title>
<g id="a_node24"><a xlink:href="classTenGigEthGtx7.html" target="_top" xlink:title=" ">
<polygon fill="white" stroke="black" points="484,-456.5 484,-475.5 573,-475.5 573,-456.5 484,-456.5"/>
<text text-anchor="middle" x="528.5" y="-463.5" font-family="Helvetica,sans-Serif" font-size="10.00">TenGigEthGtx7</text>
</a>
</g>
</g>
<!-- Node4&#45;&gt;Node26 -->
<g id="edge23" class="edge">
<title>Node4&#45;&gt;Node26</title>
<path fill="none" stroke="midnightblue" d="M400.31,-525.91C415.94,-513.26 439.22,-495.98 462,-485 469.68,-481.3 478.22,-478.18 486.53,-475.6"/>
<polygon fill="midnightblue" stroke="midnightblue" points="397.94,-523.33 392.47,-532.4 402.41,-528.72 397.94,-523.33"/>
</g>
<!-- Node28 -->
<g id="node26" class="node">
<title>Node28</title>
<g id="a_node26"><a xlink:href="classTenGigEthGtyUltraScale.html" target="_top" xlink:title=" ">
<polygon fill="white" stroke="black" points="462,-418.5 462,-437.5 595,-437.5 595,-418.5 462,-418.5"/>
<text text-anchor="middle" x="528.5" y="-425.5" font-family="Helvetica,sans-Serif" font-size="10.00">TenGigEthGtyUltraScale</text>
</a>
</g>
</g>
<!-- Node4&#45;&gt;Node28 -->
<g id="edge25" class="edge">
<title>Node4&#45;&gt;Node28</title>
<path fill="none" stroke="midnightblue" d="M392.24,-523.76C405.82,-502.27 431.19,-466.97 462,-447 467.96,-443.14 474.73,-440.04 481.59,-437.56"/>
<polygon fill="midnightblue" stroke="midnightblue" points="389.25,-521.94 387.01,-532.29 395.22,-525.6 389.25,-521.94"/>
</g>
<!-- Node30 -->
<g id="node28" class="node">
<title>Node30</title>
<g id="a_node28"><a xlink:href="classUdpEngineTb.html" target="_top" xlink:title=" ">
<polygon fill="white" stroke="black" points="488,-380.5 488,-399.5 569,-399.5 569,-380.5 488,-380.5"/>
<text text-anchor="middle" x="528.5" y="-387.5" font-family="Helvetica,sans-Serif" font-size="10.00">UdpEngineTb</text>
</a>
</g>
</g>
<!-- Node4&#45;&gt;Node30 -->
<g id="edge27" class="edge">
<title>Node4&#45;&gt;Node30</title>
<path fill="none" stroke="midnightblue" d="M388.06,-522.47C398.84,-493.38 423.07,-438.86 462,-409 469.52,-403.23 478.73,-399.22 487.85,-396.42"/>
<polygon fill="midnightblue" stroke="midnightblue" points="384.63,-521.68 384.58,-532.28 391.23,-524.02 384.63,-521.68"/>
</g>
<!-- Node31 -->
<g id="node29" class="node">
<title>Node31</title>
<g id="a_node29"><a xlink:href="classXauiGth7.html" target="_top" xlink:title=" ">
<polygon fill="white" stroke="black" points="497.5,-342.5 497.5,-361.5 559.5,-361.5 559.5,-342.5 497.5,-342.5"/>
<text text-anchor="middle" x="528.5" y="-349.5" font-family="Helvetica,sans-Serif" font-size="10.00">XauiGth7</text>
</a>
</g>
</g>
<!-- Node4&#45;&gt;Node31 -->
<g id="edge28" class="edge">
<title>Node4&#45;&gt;Node31</title>
<path fill="none" stroke="midnightblue" d="M385.29,-522.06C393.12,-486.37 414.48,-411.56 462,-371 471.82,-362.62 485.15,-357.93 497.22,-355.31"/>
<polygon fill="midnightblue" stroke="midnightblue" points="381.79,-521.67 383.21,-532.17 388.65,-523.08 381.79,-521.67"/>
</g>
<!-- Node33 -->
<g id="node31" class="node">
<title>Node33</title>
<g id="a_node31"><a xlink:href="classXauiGthUltraScale.html" target="_top" xlink:title=" ">
<polygon fill="white" stroke="black" points="475.5,-304.5 475.5,-323.5 581.5,-323.5 581.5,-304.5 475.5,-304.5"/>
<text text-anchor="middle" x="528.5" y="-311.5" font-family="Helvetica,sans-Serif" font-size="10.00">XauiGthUltraScale</text>
</a>
</g>
</g>
<!-- Node4&#45;&gt;Node33 -->
<g id="edge30" class="edge">
<title>Node4&#45;&gt;Node33</title>
<path fill="none" stroke="midnightblue" d="M383.33,-522.34C388.24,-481.07 405.45,-384.92 462,-333 466.19,-329.16 471.11,-326.09 476.34,-323.63"/>
<polygon fill="midnightblue" stroke="midnightblue" points="379.84,-522.13 382.25,-532.45 386.8,-522.88 379.84,-522.13"/>
</g>
<!-- Node35 -->
<g id="node33" class="node">
<title>Node35</title>
<g id="a_node33"><a xlink:href="classXauiGtx7.html" target="_top" xlink:title=" ">
<polygon fill="white" stroke="black" points="497.5,-266.5 497.5,-285.5 559.5,-285.5 559.5,-266.5 497.5,-266.5"/>
<text text-anchor="middle" x="528.5" y="-273.5" font-family="Helvetica,sans-Serif" font-size="10.00">XauiGtx7</text>
</a>
</g>
</g>
<!-- Node4&#45;&gt;Node35 -->
<g id="edge32" class="edge">
<title>Node4&#45;&gt;Node35</title>
<path fill="none" stroke="midnightblue" d="M382,-522.05C384.27,-475.39 396.57,-358.32 462,-295 471.44,-285.86 485.01,-281.07 497.35,-278.58"/>
<polygon fill="midnightblue" stroke="midnightblue" points="378.49,-522.19 381.61,-532.32 385.49,-522.46 378.49,-522.19"/>
</g>
<!-- Node37 -->
<g id="node35" class="node">
<title>Node37</title>
<g id="a_node35"><a xlink:href="classXauiGtyUltraScale.html" target="_top" xlink:title=" ">
<polygon fill="white" stroke="black" points="475.5,-228.5 475.5,-247.5 581.5,-247.5 581.5,-228.5 475.5,-228.5"/>
<text text-anchor="middle" x="528.5" y="-235.5" font-family="Helvetica,sans-Serif" font-size="10.00">XauiGtyUltraScale</text>
</a>
</g>
</g>
<!-- Node4&#45;&gt;Node37 -->
<g id="edge34" class="edge">
<title>Node4&#45;&gt;Node37</title>
<path fill="none" stroke="midnightblue" d="M380.97,-522.18C380.73,-470.8 387.4,-332.13 462,-257 465.84,-253.14 470.41,-250.05 475.33,-247.58"/>
<polygon fill="midnightblue" stroke="midnightblue" points="377.47,-522.32 381.12,-532.27 384.47,-522.22 377.47,-522.32"/>
</g>
<!-- Node9 -->
<g id="node9" class="node">
<title>Node9</title>
<g id="a_node9"><a xlink:href="classGigEthGth7Wrapper.html" target="_top" xlink:title=" ">
<polygon fill="white" stroke="black" points="661.5,-760.5 661.5,-779.5 774.5,-779.5 774.5,-760.5 661.5,-760.5"/>
<text text-anchor="middle" x="718" y="-767.5" font-family="Helvetica,sans-Serif" font-size="10.00">GigEthGth7Wrapper</text>
</a>
</g>
</g>
<!-- Node8&#45;&gt;Node9 -->
<g id="edge8" class="edge">
<title>Node8&#45;&gt;Node9</title>
<path fill="none" stroke="midnightblue" d="M575.08,-770C601.04,-770 633.77,-770 661.25,-770"/>
<polygon fill="midnightblue" stroke="midnightblue" points="574.77,-766.5 564.77,-770 574.77,-773.5 574.77,-766.5"/>
</g>
<!-- Node11 -->
<g id="node11" class="node">
<title>Node11</title>
<g id="a_node11"><a xlink:href="classGigEthGthUltraScaleWrapper.html" target="_top" xlink:title=" ">
<polygon fill="white" stroke="black" points="639,-722.5 639,-741.5 797,-741.5 797,-722.5 639,-722.5"/>
<text text-anchor="middle" x="718" y="-729.5" font-family="Helvetica,sans-Serif" font-size="10.00">GigEthGthUltraScaleWrapper</text>
</a>
</g>
</g>
<!-- Node10&#45;&gt;Node11 -->
<g id="edge10" class="edge">
<title>Node10&#45;&gt;Node11</title>
<path fill="none" stroke="midnightblue" d="M596.77,-732C610.4,-732 624.85,-732 638.82,-732"/>
<polygon fill="midnightblue" stroke="midnightblue" points="596.52,-728.5 586.52,-732 596.52,-735.5 596.52,-728.5"/>
</g>
<!-- Node13 -->
<g id="node13" class="node">
<title>Node13</title>
<g id="a_node13"><a xlink:href="classGigEthGtp7Wrapper.html" target="_top" xlink:title=" ">
<polygon fill="white" stroke="black" points="661.5,-684.5 661.5,-703.5 774.5,-703.5 774.5,-684.5 661.5,-684.5"/>
<text text-anchor="middle" x="718" y="-691.5" font-family="Helvetica,sans-Serif" font-size="10.00">GigEthGtp7Wrapper</text>
</a>
</g>
</g>
<!-- Node12&#45;&gt;Node13 -->
<g id="edge12" class="edge">
<title>Node12&#45;&gt;Node13</title>
<path fill="none" stroke="midnightblue" d="M575.08,-694C601.04,-694 633.77,-694 661.25,-694"/>
<polygon fill="midnightblue" stroke="midnightblue" points="574.77,-690.5 564.77,-694 574.77,-697.5 574.77,-690.5"/>
</g>
<!-- Node15 -->
<g id="node15" class="node">
<title>Node15</title>
<g id="a_node15"><a xlink:href="classGigEthGtx7Wrapper.html" target="_top" xlink:title=" ">
<polygon fill="white" stroke="black" points="661.5,-646.5 661.5,-665.5 774.5,-665.5 774.5,-646.5 661.5,-646.5"/>
<text text-anchor="middle" x="718" y="-653.5" font-family="Helvetica,sans-Serif" font-size="10.00">GigEthGtx7Wrapper</text>
</a>
</g>
</g>
<!-- Node14&#45;&gt;Node15 -->
<g id="edge14" class="edge">
<title>Node14&#45;&gt;Node15</title>
<path fill="none" stroke="midnightblue" d="M575.08,-656C601.04,-656 633.77,-656 661.25,-656"/>
<polygon fill="midnightblue" stroke="midnightblue" points="574.77,-652.5 564.77,-656 574.77,-659.5 574.77,-652.5"/>
</g>
<!-- Node17 -->
<g id="node17" class="node">
<title>Node17</title>
<g id="a_node17"><a xlink:href="classGigEthGtyUltraScaleWrapper.html" target="_top" xlink:title=" ">
<polygon fill="white" stroke="black" points="639,-608.5 639,-627.5 797,-627.5 797,-608.5 639,-608.5"/>
<text text-anchor="middle" x="718" y="-615.5" font-family="Helvetica,sans-Serif" font-size="10.00">GigEthGtyUltraScaleWrapper</text>
</a>
</g>
</g>
<!-- Node16&#45;&gt;Node17 -->
<g id="edge16" class="edge">
<title>Node16&#45;&gt;Node17</title>
<path fill="none" stroke="midnightblue" d="M596.77,-618C610.4,-618 624.85,-618 638.82,-618"/>
<polygon fill="midnightblue" stroke="midnightblue" points="596.52,-614.5 586.52,-618 596.52,-621.5 596.52,-614.5"/>
</g>
<!-- Node19 -->
<g id="node19" class="node">
<title>Node19</title>
<g id="a_node19"><a xlink:href="classGigEthLvdsUltraScaleWrapper.html" target="_top" xlink:title=" ">
<polygon fill="white" stroke="red" points="636.5,-570.5 636.5,-589.5 799.5,-589.5 799.5,-570.5 636.5,-570.5"/>
<text text-anchor="middle" x="718" y="-577.5" font-family="Helvetica,sans-Serif" font-size="10.00">GigEthLvdsUltraScaleWrapper</text>
</a>
</g>
</g>
<!-- Node18&#45;&gt;Node19 -->
<g id="edge18" class="edge">
<title>Node18&#45;&gt;Node19</title>
<path fill="none" stroke="midnightblue" d="M599.9,-580C611.8,-580 624.24,-580 636.38,-580"/>
<polygon fill="midnightblue" stroke="midnightblue" points="599.6,-576.5 589.6,-580 599.6,-583.5 599.6,-576.5"/>
</g>
<!-- Node23 -->
<g id="node21" class="node">
<title>Node23</title>
<g id="a_node21"><a xlink:href="classTenGigEthGth7Wrapper.html" target="_top" xlink:title=" ">
<polygon fill="white" stroke="black" points="653,-532.5 653,-551.5 783,-551.5 783,-532.5 653,-532.5"/>
<text text-anchor="middle" x="718" y="-539.5" font-family="Helvetica,sans-Serif" font-size="10.00">TenGigEthGth7Wrapper</text>
</a>
</g>
</g>
<!-- Node22&#45;&gt;Node23 -->
<g id="edge20" class="edge">
<title>Node22&#45;&gt;Node23</title>
<path fill="none" stroke="midnightblue" d="M583.74,-542C605.29,-542 630.26,-542 652.71,-542"/>
<polygon fill="midnightblue" stroke="midnightblue" points="583.46,-538.5 573.46,-542 583.46,-545.5 583.46,-538.5"/>
</g>
<!-- Node25 -->
<g id="node23" class="node">
<title>Node25</title>
<g id="a_node23"><a xlink:href="classTenGigEthGthUltraScaleWrapper.html" target="_top" xlink:title=" ">
<polygon fill="white" stroke="black" points="631,-494.5 631,-513.5 805,-513.5 805,-494.5 631,-494.5"/>
<text text-anchor="middle" x="718" y="-501.5" font-family="Helvetica,sans-Serif" font-size="10.00">TenGigEthGthUltraScaleWrapper</text>
</a>
</g>
</g>
<!-- Node24&#45;&gt;Node25 -->
<g id="edge22" class="edge">
<title>Node24&#45;&gt;Node25</title>
<path fill="none" stroke="midnightblue" d="M605.2,-504C613.59,-504 622.19,-504 630.7,-504"/>
<polygon fill="midnightblue" stroke="midnightblue" points="605.08,-500.5 595.08,-504 605.08,-507.5 605.08,-500.5"/>
</g>
<!-- Node27 -->
<g id="node25" class="node">
<title>Node27</title>
<g id="a_node25"><a xlink:href="classTenGigEthGtx7Wrapper.html" target="_top" xlink:title=" ">
<polygon fill="white" stroke="black" points="653,-456.5 653,-475.5 783,-475.5 783,-456.5 653,-456.5"/>
<text text-anchor="middle" x="718" y="-463.5" font-family="Helvetica,sans-Serif" font-size="10.00">TenGigEthGtx7Wrapper</text>
</a>
</g>
</g>
<!-- Node26&#45;&gt;Node27 -->
<g id="edge24" class="edge">
<title>Node26&#45;&gt;Node27</title>
<path fill="none" stroke="midnightblue" d="M583.74,-466C605.29,-466 630.26,-466 652.71,-466"/>
<polygon fill="midnightblue" stroke="midnightblue" points="583.46,-462.5 573.46,-466 583.46,-469.5 583.46,-462.5"/>
</g>
<!-- Node29 -->
<g id="node27" class="node">
<title>Node29</title>
<g id="a_node27"><a xlink:href="classTenGigEthGtyUltraScaleWrapper.html" target="_top" xlink:title=" ">
<polygon fill="white" stroke="black" points="631,-418.5 631,-437.5 805,-437.5 805,-418.5 631,-418.5"/>
<text text-anchor="middle" x="718" y="-425.5" font-family="Helvetica,sans-Serif" font-size="10.00">TenGigEthGtyUltraScaleWrapper</text>
</a>
</g>
</g>
<!-- Node28&#45;&gt;Node29 -->
<g id="edge26" class="edge">
<title>Node28&#45;&gt;Node29</title>
<path fill="none" stroke="midnightblue" d="M605.2,-428C613.59,-428 622.19,-428 630.7,-428"/>
<polygon fill="midnightblue" stroke="midnightblue" points="605.08,-424.5 595.08,-428 605.08,-431.5 605.08,-424.5"/>
</g>
<!-- Node32 -->
<g id="node30" class="node">
<title>Node32</title>
<g id="a_node30"><a xlink:href="classXauiGth7Wrapper.html" target="_top" xlink:title=" ">
<polygon fill="white" stroke="black" points="666.5,-342.5 666.5,-361.5 769.5,-361.5 769.5,-342.5 666.5,-342.5"/>
<text text-anchor="middle" x="718" y="-349.5" font-family="Helvetica,sans-Serif" font-size="10.00">XauiGth7Wrapper</text>
</a>
</g>
</g>
<!-- Node31&#45;&gt;Node32 -->
<g id="edge29" class="edge">
<title>Node31&#45;&gt;Node32</title>
<path fill="none" stroke="midnightblue" d="M569.95,-352C598.23,-352 636.19,-352 666.46,-352"/>
<polygon fill="midnightblue" stroke="midnightblue" points="569.63,-348.5 559.63,-352 569.63,-355.5 569.63,-348.5"/>
</g>
<!-- Node34 -->
<g id="node32" class="node">
<title>Node34</title>
<g id="a_node32"><a xlink:href="classXauiGthUltraScaleWrapper.html" target="_top" xlink:title=" ">
<polygon fill="white" stroke="black" points="644.5,-304.5 644.5,-323.5 791.5,-323.5 791.5,-304.5 644.5,-304.5"/>
<text text-anchor="middle" x="718" y="-311.5" font-family="Helvetica,sans-Serif" font-size="10.00">XauiGthUltraScaleWrapper</text>
</a>
</g>
</g>
<!-- Node33&#45;&gt;Node34 -->
<g id="edge31" class="edge">
<title>Node33&#45;&gt;Node34</title>
<path fill="none" stroke="midnightblue" d="M591.97,-314C608.77,-314 627.08,-314 644.38,-314"/>
<polygon fill="midnightblue" stroke="midnightblue" points="591.73,-310.5 581.73,-314 591.73,-317.5 591.73,-310.5"/>
</g>
<!-- Node36 -->
<g id="node34" class="node">
<title>Node36</title>
<g id="a_node34"><a xlink:href="classXauiGtx7Wrapper.html" target="_top" xlink:title=" ">
<polygon fill="white" stroke="black" points="666.5,-266.5 666.5,-285.5 769.5,-285.5 769.5,-266.5 666.5,-266.5"/>
<text text-anchor="middle" x="718" y="-273.5" font-family="Helvetica,sans-Serif" font-size="10.00">XauiGtx7Wrapper</text>
</a>
</g>
</g>
<!-- Node35&#45;&gt;Node36 -->
<g id="edge33" class="edge">
<title>Node35&#45;&gt;Node36</title>
<path fill="none" stroke="midnightblue" d="M569.95,-276C598.23,-276 636.19,-276 666.46,-276"/>
<polygon fill="midnightblue" stroke="midnightblue" points="569.63,-272.5 559.63,-276 569.63,-279.5 569.63,-272.5"/>
</g>
<!-- Node38 -->
<g id="node36" class="node">
<title>Node38</title>
<g id="a_node36"><a xlink:href="classXauiGtyUltraScaleWrapper.html" target="_top" xlink:title=" ">
<polygon fill="white" stroke="black" points="644.5,-228.5 644.5,-247.5 791.5,-247.5 791.5,-228.5 644.5,-228.5"/>
<text text-anchor="middle" x="718" y="-235.5" font-family="Helvetica,sans-Serif" font-size="10.00">XauiGtyUltraScaleWrapper</text>
</a>
</g>
</g>
<!-- Node37&#45;&gt;Node38 -->
<g id="edge35" class="edge">
<title>Node37&#45;&gt;Node38</title>
<path fill="none" stroke="midnightblue" d="M591.97,-238C608.77,-238 627.08,-238 644.38,-238"/>
<polygon fill="midnightblue" stroke="midnightblue" points="591.73,-234.5 581.73,-238 591.73,-241.5 591.73,-234.5"/>
</g>
<!-- Node40 -->
<g id="node38" class="node">
<title>Node40</title>
<g id="a_node38"><a xlink:href="classSalt7Series.html" target="_top" xlink:title=" ">
<polygon fill="white" stroke="black" points="345,-190.5 345,-209.5 416,-209.5 416,-190.5 345,-190.5"/>
<text text-anchor="middle" x="380.5" y="-197.5" font-family="Helvetica,sans-Serif" font-size="10.00">Salt7Series</text>
</a>
</g>
</g>
<!-- Node39&#45;&gt;Node40 -->
<g id="edge37" class="edge">
<title>Node39&#45;&gt;Node40</title>
<path fill="none" stroke="midnightblue" d="M291.09,-172.24C309.18,-177.91 331.52,-184.93 349.22,-190.49"/>
<polygon fill="midnightblue" stroke="midnightblue" points="292.13,-168.89 281.54,-169.24 290.04,-175.57 292.13,-168.89"/>
</g>
<!-- Node42 -->
<g id="node40" class="node">
<title>Node42</title>
<g id="a_node40"><a xlink:href="classSaltUltraScale.html" target="_top" xlink:title=" ">
<polygon fill="white" stroke="black" points="337.5,-152.5 337.5,-171.5 423.5,-171.5 423.5,-152.5 337.5,-152.5"/>
<text text-anchor="middle" x="380.5" y="-159.5" font-family="Helvetica,sans-Serif" font-size="10.00">SaltUltraScale</text>
</a>
</g>
</g>
<!-- Node39&#45;&gt;Node42 -->
<g id="edge39" class="edge">
<title>Node39&#45;&gt;Node42</title>
<path fill="none" stroke="midnightblue" d="M291.78,-162C305.89,-162 322.49,-162 337.44,-162"/>
<polygon fill="midnightblue" stroke="midnightblue" points="291.54,-158.5 281.54,-162 291.54,-165.5 291.54,-158.5"/>
</g>
<!-- Node41 -->
<g id="node39" class="node">
<title>Node41</title>
<g id="a_node39"><a xlink:href="classSalt7SeriesTb.html" target="_top" xlink:title=" ">
<polygon fill="white" stroke="black" points="487,-190.5 487,-209.5 570,-209.5 570,-190.5 487,-190.5"/>
<text text-anchor="middle" x="528.5" y="-197.5" font-family="Helvetica,sans-Serif" font-size="10.00">Salt7SeriesTb</text>
</a>
</g>
</g>
<!-- Node40&#45;&gt;Node41 -->
<g id="edge38" class="edge">
<title>Node40&#45;&gt;Node41</title>
<path fill="none" stroke="midnightblue" d="M426.19,-200C445.56,-200 468.06,-200 486.93,-200"/>
<polygon fill="midnightblue" stroke="midnightblue" points="426.1,-196.5 416.1,-200 426.1,-203.5 426.1,-196.5"/>
</g>
<!-- Node43 -->
<g id="node41" class="node">
<title>Node43</title>
<g id="a_node41"><a xlink:href="classSaltUltraScaleTb.html" target="_top" xlink:title=" ">
<polygon fill="white" stroke="black" points="479.5,-152.5 479.5,-171.5 577.5,-171.5 577.5,-152.5 479.5,-152.5"/>
<text text-anchor="middle" x="528.5" y="-159.5" font-family="Helvetica,sans-Serif" font-size="10.00">SaltUltraScaleTb</text>
</a>
</g>
</g>
<!-- Node42&#45;&gt;Node43 -->
<g id="edge40" class="edge">
<title>Node42&#45;&gt;Node43</title>
<path fill="none" stroke="midnightblue" d="M433.8,-162C448.69,-162 464.84,-162 479.46,-162"/>
<polygon fill="midnightblue" stroke="midnightblue" points="433.73,-158.5 423.73,-162 433.73,-165.5 433.73,-158.5"/>
</g>
<!-- Node45 -->
<g id="node43" class="node">
<title>Node45</title>
<g id="a_node43"><a xlink:href="classAxiLiteSrpV0Tb.html" target="_top" xlink:title=" ">
<polygon fill="white" stroke="black" points="335,-114.5 335,-133.5 426,-133.5 426,-114.5 335,-114.5"/>
<text text-anchor="middle" x="380.5" y="-121.5" font-family="Helvetica,sans-Serif" font-size="10.00">AxiLiteSrpV0Tb</text>
</a>
</g>
</g>
<!-- Node44&#45;&gt;Node45 -->
<g id="edge42" class="edge">
<title>Node44&#45;&gt;Node45</title>
<path fill="none" stroke="midnightblue" d="M307.24,-124C316.39,-124 325.91,-124 334.93,-124"/>
<polygon fill="midnightblue" stroke="midnightblue" points="307.12,-120.5 297.12,-124 307.12,-127.5 307.12,-120.5"/>
</g>
<!-- Node47 -->
<g id="node45" class="node">
<title>Node47</title>
<g id="a_node45"><a xlink:href="classSrpV3Axi.html" target="_top" xlink:title=" ">
<polygon fill="white" stroke="black" points="350,-76.5 350,-95.5 411,-95.5 411,-76.5 350,-76.5"/>
<text text-anchor="middle" x="380.5" y="-83.5" font-family="Helvetica,sans-Serif" font-size="10.00">SrpV3Axi</text>
</a>
</g>
</g>
<!-- Node46&#45;&gt;Node47 -->
<g id="edge44" class="edge">
<title>Node46&#45;&gt;Node47</title>
<path fill="none" stroke="midnightblue" d="M301.73,-86C317.65,-86 335.32,-86 349.78,-86"/>
<polygon fill="midnightblue" stroke="midnightblue" points="301.56,-82.5 291.56,-86 301.56,-89.5 301.56,-82.5"/>
</g>
<!-- Node48 -->
<g id="node46" class="node">
<title>Node48</title>
<g id="a_node46"><a xlink:href="classSrpV3AxiLiteFull.html" target="_top" xlink:title=" ">
<polygon fill="white" stroke="black" points="480.5,-95.5 480.5,-114.5 576.5,-114.5 576.5,-95.5 480.5,-95.5"/>
<text text-anchor="middle" x="528.5" y="-102.5" font-family="Helvetica,sans-Serif" font-size="10.00">SrpV3AxiLiteFull</text>
</a>
</g>
</g>
<!-- Node47&#45;&gt;Node48 -->
<g id="edge45" class="edge">
<title>Node47&#45;&gt;Node48</title>
<path fill="none" stroke="midnightblue" d="M421.09,-91.15C439.41,-93.54 461.31,-96.39 480.47,-98.88"/>
<polygon fill="midnightblue" stroke="midnightblue" points="421.41,-87.66 411.05,-89.84 420.51,-94.61 421.41,-87.66"/>
</g>
<!-- Node49 -->
<g id="node47" class="node">
<title>Node49</title>
<g id="a_node47"><a xlink:href="classSrpV3AxiTb.html" target="_top" xlink:title=" ">
<polygon fill="white" stroke="black" points="492,-57.5 492,-76.5 565,-76.5 565,-57.5 492,-57.5"/>
<text text-anchor="middle" x="528.5" y="-64.5" font-family="Helvetica,sans-Serif" font-size="10.00">SrpV3AxiTb</text>
</a>
</g>
</g>
<!-- Node47&#45;&gt;Node49 -->
<g id="edge46" class="edge">
<title>Node47&#45;&gt;Node49</title>
<path fill="none" stroke="midnightblue" d="M421.09,-80.85C443.15,-77.98 470.41,-74.43 491.81,-71.64"/>
<polygon fill="midnightblue" stroke="midnightblue" points="420.51,-77.39 411.05,-82.16 421.41,-84.34 420.51,-77.39"/>
</g>
</g>
</svg>
