<?xml version="1.0" encoding="UTF-8" standalone="no"?>
<!DOCTYPE svg PUBLIC "-//W3C//DTD SVG 1.1//EN"
 "http://www.w3.org/Graphics/SVG/1.1/DTD/svg11.dtd">
<!-- Generated by graphviz version 2.43.0 (0)
 -->
<!-- Title: LutRam Pages: 1 -->
<svg width="1101pt" height="680pt"
 viewBox="0.00 0.00 1101.00 679.90" xmlns="http://www.w3.org/2000/svg" xmlns:xlink="http://www.w3.org/1999/xlink">
<g id="graph0" class="graph" transform="scale(1 1) rotate(0) translate(4 675.9)">
<title>LutRam</title>
<polygon fill="white" stroke="transparent" points="-4,4 -4,-675.9 1097,-675.9 1097,4 -4,4"/>
<!-- Node1 -->
<g id="node1" class="node">
<title>Node1</title>
<g id="a_node1"><a xlink:title=" ">
<polygon fill="#bfbfbf" stroke="black" points="0,-184.5 0,-203.5 54,-203.5 54,-184.5 0,-184.5"/>
<text text-anchor="middle" x="27" y="-191.5" font-family="Helvetica,sans-Serif" font-size="10.00">LutRam</text>
</a>
</g>
</g>
<!-- Node2 -->
<g id="node2" class="node">
<title>Node2</title>
<g id="a_node2"><a xlink:href="classDualPortRam.html" target="_top" xlink:title=" ">
<polygon fill="white" stroke="black" points="99.5,-165.5 99.5,-184.5 180.5,-184.5 180.5,-165.5 99.5,-165.5"/>
<text text-anchor="middle" x="140" y="-172.5" font-family="Helvetica,sans-Serif" font-size="10.00">DualPortRam</text>
</a>
</g>
</g>
<!-- Node1&#45;&gt;Node2 -->
<g id="edge1" class="edge">
<title>Node1&#45;&gt;Node2</title>
<path fill="none" stroke="midnightblue" d="M63.96,-187.84C75.22,-185.92 87.72,-183.78 99.23,-181.81"/>
<polygon fill="midnightblue" stroke="midnightblue" points="63.29,-184.41 54.02,-189.55 64.47,-191.31 63.29,-184.41"/>
</g>
<!-- Node47 -->
<g id="node47" class="node">
<title>Node47</title>
<g id="a_node47"><a xlink:href="classRawEthFramerTx.html" target="_top" xlink:title=" ">
<polygon fill="white" stroke="black" points="90,-417.5 90,-436.5 190,-436.5 190,-417.5 90,-417.5"/>
<text text-anchor="middle" x="140" y="-424.5" font-family="Helvetica,sans-Serif" font-size="10.00">RawEthFramerTx</text>
</a>
</g>
</g>
<!-- Node1&#45;&gt;Node47 -->
<g id="edge52" class="edge">
<title>Node1&#45;&gt;Node47</title>
<path fill="none" stroke="midnightblue" d="M36.97,-212.82C59.43,-259.97 117.5,-381.87 134.35,-417.24"/>
<polygon fill="midnightblue" stroke="midnightblue" points="40.09,-211.24 32.63,-203.72 33.77,-214.25 40.09,-211.24"/>
</g>
<!-- Node3 -->
<g id="node3" class="node">
<title>Node3</title>
<g id="a_node3"><a xlink:href="classAxiDualPortRam.html" target="_top" xlink:title=" ">
<polygon fill="white" stroke="black" points="246,-413.5 246,-432.5 343,-432.5 343,-413.5 246,-413.5"/>
<text text-anchor="middle" x="294.5" y="-420.5" font-family="Helvetica,sans-Serif" font-size="10.00">AxiDualPortRam</text>
</a>
</g>
</g>
<!-- Node2&#45;&gt;Node3 -->
<g id="edge2" class="edge">
<title>Node2&#45;&gt;Node3</title>
<path fill="none" stroke="midnightblue" d="M152.31,-193.39C182.59,-242.64 264.76,-376.27 287.56,-413.35"/>
<polygon fill="midnightblue" stroke="midnightblue" points="155.2,-191.41 146.98,-184.72 149.23,-195.07 155.2,-191.41"/>
</g>
<!-- Node18 -->
<g id="node18" class="node">
<title>Node18</title>
<g id="a_node18"><a xlink:href="classFirFilterMultiChannel.html" target="_top" xlink:title=" ">
<polygon fill="white" stroke="black" points="419,-242.5 419,-261.5 537,-261.5 537,-242.5 419,-242.5"/>
<text text-anchor="middle" x="478" y="-249.5" font-family="Helvetica,sans-Serif" font-size="10.00">FirFilterMultiChannel</text>
</a>
</g>
</g>
<!-- Node2&#45;&gt;Node18 -->
<g id="edge51" class="edge">
<title>Node2&#45;&gt;Node18</title>
<path fill="none" stroke="midnightblue" d="M162.44,-190.32C178.99,-201.32 202.88,-215.48 226,-223 289.82,-243.76 367.01,-250.07 418.79,-251.78"/>
<polygon fill="midnightblue" stroke="midnightblue" points="164.29,-187.34 154.06,-184.59 160.34,-193.12 164.29,-187.34"/>
</g>
<!-- Node21 -->
<g id="node21" class="node">
<title>Node21</title>
<g id="a_node21"><a xlink:href="classAxiLiteRingBuffer.html" target="_top" xlink:title=" ">
<polygon fill="white" stroke="black" points="244,-61.5 244,-80.5 345,-80.5 345,-61.5 244,-61.5"/>
<text text-anchor="middle" x="294.5" y="-68.5" font-family="Helvetica,sans-Serif" font-size="10.00">AxiLiteRingBuffer</text>
</a>
</g>
</g>
<!-- Node2&#45;&gt;Node21 -->
<g id="edge20" class="edge">
<title>Node2&#45;&gt;Node21</title>
<path fill="none" stroke="midnightblue" d="M154.15,-157.23C169.36,-137.92 196.17,-107.47 226,-90 232.62,-86.12 240.07,-83 247.54,-80.5"/>
<polygon fill="midnightblue" stroke="midnightblue" points="151.32,-155.18 148,-165.24 156.87,-159.44 151.32,-155.18"/>
</g>
<!-- Node22 -->
<g id="node22" class="node">
<title>Node22</title>
<g id="a_node22"><a xlink:href="classAxiLiteSaciMasterTb.html" target="_top" xlink:title=" ">
<polygon fill="white" stroke="black" points="236.5,-23.5 236.5,-42.5 352.5,-42.5 352.5,-23.5 236.5,-23.5"/>
<text text-anchor="middle" x="294.5" y="-30.5" font-family="Helvetica,sans-Serif" font-size="10.00">AxiLiteSaciMasterTb</text>
</a>
</g>
</g>
<!-- Node2&#45;&gt;Node22 -->
<g id="edge21" class="edge">
<title>Node2&#45;&gt;Node22</title>
<path fill="none" stroke="midnightblue" d="M148.97,-156.1C161.4,-128.94 187.98,-79.16 226,-52 231.45,-48.11 237.67,-45.01 244.08,-42.55"/>
<polygon fill="midnightblue" stroke="midnightblue" points="145.74,-154.74 144.91,-165.31 152.15,-157.57 145.74,-154.74"/>
</g>
<!-- Node23 -->
<g id="node23" class="node">
<title>Node23</title>
<g id="a_node23"><a xlink:href="classAxiStreamDepacketizer2.html" target="_top" xlink:title=" ">
<polygon fill="white" stroke="black" points="226,-99.5 226,-118.5 363,-118.5 363,-99.5 226,-99.5"/>
<text text-anchor="middle" x="294.5" y="-106.5" font-family="Helvetica,sans-Serif" font-size="10.00">AxiStreamDepacketizer2</text>
</a>
</g>
</g>
<!-- Node2&#45;&gt;Node23 -->
<g id="edge22" class="edge">
<title>Node2&#45;&gt;Node23</title>
<path fill="none" stroke="midnightblue" d="M164.37,-160.15C181.05,-150.04 204.28,-136.92 226,-128 234.78,-124.39 244.48,-121.22 253.72,-118.55"/>
<polygon fill="midnightblue" stroke="midnightblue" points="162.51,-157.19 155.83,-165.41 166.18,-163.15 162.51,-157.19"/>
</g>
<!-- Node43 -->
<g id="node43" class="node">
<title>Node43</title>
<g id="a_node43"><a xlink:href="classAxiStreamDmaV2Write.html" target="_top" xlink:title=" ">
<polygon fill="white" stroke="black" points="229.5,-194.5 229.5,-213.5 359.5,-213.5 359.5,-194.5 229.5,-194.5"/>
<text text-anchor="middle" x="294.5" y="-201.5" font-family="Helvetica,sans-Serif" font-size="10.00">AxiStreamDmaV2Write</text>
</a>
</g>
</g>
<!-- Node2&#45;&gt;Node43 -->
<g id="edge42" class="edge">
<title>Node2&#45;&gt;Node43</title>
<path fill="none" stroke="midnightblue" d="M190.87,-184.48C207.71,-187.69 226.5,-191.26 243.37,-194.47"/>
<polygon fill="midnightblue" stroke="midnightblue" points="191.15,-180.97 180.67,-182.54 189.84,-187.85 191.15,-180.97"/>
</g>
<!-- Node45 -->
<g id="node45" class="node">
<title>Node45</title>
<g id="a_node45"><a xlink:href="classAxiStreamPacketizer2.html" target="_top" xlink:title=" ">
<polygon fill="white" stroke="black" points="233,-137.5 233,-156.5 356,-156.5 356,-137.5 233,-137.5"/>
<text text-anchor="middle" x="294.5" y="-144.5" font-family="Helvetica,sans-Serif" font-size="10.00">AxiStreamPacketizer2</text>
</a>
</g>
</g>
<!-- Node2&#45;&gt;Node45 -->
<g id="edge44" class="edge">
<title>Node2&#45;&gt;Node45</title>
<path fill="none" stroke="midnightblue" d="M190.58,-165.9C206.93,-162.89 225.15,-159.55 241.67,-156.52"/>
<polygon fill="midnightblue" stroke="midnightblue" points="189.87,-162.47 180.67,-167.72 191.14,-169.35 189.87,-162.47"/>
</g>
<!-- Node4 -->
<g id="node4" class="node">
<title>Node4</title>
<g id="a_node4"><a xlink:href="classAxiDualPortRamIpIntegrator.html" target="_top" xlink:title=" ">
<polygon fill="white" stroke="black" points="401,-318.5 401,-337.5 555,-337.5 555,-318.5 401,-318.5"/>
<text text-anchor="middle" x="478" y="-325.5" font-family="Helvetica,sans-Serif" font-size="10.00">AxiDualPortRamIpIntegrator</text>
</a>
</g>
</g>
<!-- Node3&#45;&gt;Node4 -->
<g id="edge3" class="edge">
<title>Node3&#45;&gt;Node4</title>
<path fill="none" stroke="midnightblue" d="M313.29,-406.47C332.86,-389.17 365.94,-362.41 399,-347 407.21,-343.17 416.28,-340.06 425.24,-337.56"/>
<polygon fill="midnightblue" stroke="midnightblue" points="310.85,-403.96 305.77,-413.25 315.54,-409.16 310.85,-403.96"/>
</g>
<!-- Node5 -->
<g id="node5" class="node">
<title>Node5</title>
<g id="a_node5"><a xlink:href="classAxiLiteAsyncTb.html" target="_top" xlink:title=" ">
<polygon fill="white" stroke="black" points="432,-280.5 432,-299.5 524,-299.5 524,-280.5 432,-280.5"/>
<text text-anchor="middle" x="478" y="-287.5" font-family="Helvetica,sans-Serif" font-size="10.00">AxiLiteAsyncTb</text>
</a>
</g>
</g>
<!-- Node3&#45;&gt;Node5 -->
<g id="edge4" class="edge">
<title>Node3&#45;&gt;Node5</title>
<path fill="none" stroke="midnightblue" d="M307.01,-404.57C323.95,-379.05 358.04,-333.34 399,-309 408.94,-303.09 420.64,-299.01 431.9,-296.21"/>
<polygon fill="midnightblue" stroke="midnightblue" points="303.87,-402.98 301.38,-413.28 309.75,-406.78 303.87,-402.98"/>
</g>
<!-- Node6 -->
<g id="node6" class="node">
<title>Node6</title>
<g id="a_node6"><a xlink:href="classAxiLiteRamSyncStatusVector.html" target="_top" xlink:title=" ">
<polygon fill="white" stroke="black" points="399,-584.5 399,-603.5 557,-603.5 557,-584.5 399,-584.5"/>
<text text-anchor="middle" x="478" y="-591.5" font-family="Helvetica,sans-Serif" font-size="10.00">AxiLiteRamSyncStatusVector</text>
</a>
</g>
</g>
<!-- Node3&#45;&gt;Node6 -->
<g id="edge5" class="edge">
<title>Node3&#45;&gt;Node6</title>
<path fill="none" stroke="midnightblue" d="M302.96,-441.93C316.77,-474.45 349.51,-540.71 399,-575 404.61,-578.89 410.94,-581.99 417.49,-584.45"/>
<polygon fill="midnightblue" stroke="midnightblue" points="306.18,-440.57 299.14,-432.65 299.7,-443.23 306.18,-440.57"/>
</g>
<!-- Node12 -->
<g id="node12" class="node">
<title>Node12</title>
<g id="a_node12"><a xlink:href="classAxiLiteSrpV0Tb.html" target="_top" xlink:title=" ">
<polygon fill="white" stroke="black" points="432.5,-508.5 432.5,-527.5 523.5,-527.5 523.5,-508.5 432.5,-508.5"/>
<text text-anchor="middle" x="478" y="-515.5" font-family="Helvetica,sans-Serif" font-size="10.00">AxiLiteSrpV0Tb</text>
</a>
</g>
</g>
<!-- Node3&#45;&gt;Node12 -->
<g id="edge11" class="edge">
<title>Node3&#45;&gt;Node12</title>
<path fill="none" stroke="midnightblue" d="M313.29,-439.53C332.86,-456.83 365.94,-483.59 399,-499 409.36,-503.83 421.08,-507.51 432.24,-510.29"/>
<polygon fill="midnightblue" stroke="midnightblue" points="315.54,-436.84 305.77,-432.75 310.85,-442.04 315.54,-436.84"/>
</g>
<!-- Node13 -->
<g id="node13" class="node">
<title>Node13</title>
<g id="a_node13"><a xlink:href="classAxiLiteWriteFilterTb.html" target="_top" xlink:title=" ">
<polygon fill="white" stroke="black" points="421.5,-470.5 421.5,-489.5 534.5,-489.5 534.5,-470.5 421.5,-470.5"/>
<text text-anchor="middle" x="478" y="-477.5" font-family="Helvetica,sans-Serif" font-size="10.00">AxiLiteWriteFilterTb</text>
</a>
</g>
</g>
<!-- Node3&#45;&gt;Node13 -->
<g id="edge12" class="edge">
<title>Node3&#45;&gt;Node13</title>
<path fill="none" stroke="midnightblue" d="M328.45,-436.18C348.62,-443.98 375.08,-453.72 399,-461 410.2,-464.41 422.45,-467.63 433.85,-470.41"/>
<polygon fill="midnightblue" stroke="midnightblue" points="329.67,-432.9 319.08,-432.53 327.13,-439.42 329.67,-432.9"/>
</g>
<!-- Node14 -->
<g id="node14" class="node">
<title>Node14</title>
<g id="a_node14"><a xlink:href="classAxiStreamDmaRingWrite.html" target="_top" xlink:title=" ">
<polygon fill="white" stroke="black" points="408.5,-432.5 408.5,-451.5 547.5,-451.5 547.5,-432.5 408.5,-432.5"/>
<text text-anchor="middle" x="478" y="-439.5" font-family="Helvetica,sans-Serif" font-size="10.00">AxiStreamDmaRingWrite</text>
</a>
</g>
</g>
<!-- Node3&#45;&gt;Node14 -->
<g id="edge13" class="edge">
<title>Node3&#45;&gt;Node14</title>
<path fill="none" stroke="midnightblue" d="M353.28,-429.05C370.83,-430.89 390.28,-432.92 408.47,-434.83"/>
<polygon fill="midnightblue" stroke="midnightblue" points="353.5,-425.55 343.19,-427.99 352.77,-432.51 353.5,-425.55"/>
</g>
<!-- Node15 -->
<g id="node15" class="node">
<title>Node15</title>
<g id="a_node15"><a xlink:href="classAxiStreamMonAxiL.html" target="_top" xlink:title=" ">
<polygon fill="white" stroke="black" points="423,-546.5 423,-565.5 533,-565.5 533,-546.5 423,-546.5"/>
<text text-anchor="middle" x="478" y="-553.5" font-family="Helvetica,sans-Serif" font-size="10.00">AxiStreamMonAxiL</text>
</a>
</g>
</g>
<!-- Node3&#45;&gt;Node15 -->
<g id="edge14" class="edge">
<title>Node3&#45;&gt;Node15</title>
<path fill="none" stroke="midnightblue" d="M307.01,-441.43C323.95,-466.95 358.04,-512.66 399,-537 406.31,-541.34 414.56,-544.7 422.9,-547.28"/>
<polygon fill="midnightblue" stroke="midnightblue" points="309.75,-439.22 301.38,-432.72 303.87,-443.02 309.75,-439.22"/>
</g>
<!-- Node17 -->
<g id="node17" class="node">
<title>Node17</title>
<g id="a_node17"><a xlink:href="classClinkTop.html" target="_top" xlink:title=" ">
<polygon fill="white" stroke="black" points="449,-394.5 449,-413.5 507,-413.5 507,-394.5 449,-394.5"/>
<text text-anchor="middle" x="478" y="-401.5" font-family="Helvetica,sans-Serif" font-size="10.00">ClinkTop</text>
</a>
</g>
</g>
<!-- Node3&#45;&gt;Node17 -->
<g id="edge16" class="edge">
<title>Node3&#45;&gt;Node17</title>
<path fill="none" stroke="midnightblue" d="M353.3,-416.95C385.21,-413.61 423.42,-409.61 448.84,-406.95"/>
<polygon fill="midnightblue" stroke="midnightblue" points="352.77,-413.49 343.19,-418.01 353.5,-420.45 352.77,-413.49"/>
</g>
<!-- Node3&#45;&gt;Node18 -->
<g id="edge17" class="edge">
<title>Node3&#45;&gt;Node18</title>
<path fill="none" stroke="midnightblue" d="M302.96,-404.07C316.77,-371.55 349.51,-305.29 399,-271 404.96,-266.87 411.71,-263.64 418.7,-261.1"/>
<polygon fill="midnightblue" stroke="midnightblue" points="299.7,-402.77 299.14,-413.35 306.18,-405.43 299.7,-402.77"/>
</g>
<!-- Node19 -->
<g id="node19" class="node">
<title>Node19</title>
<g id="a_node19"><a xlink:href="classRawEthFramerWrapper.html" target="_top" xlink:title=" ">
<polygon fill="white" stroke="black" points="413.5,-622.5 413.5,-641.5 542.5,-641.5 542.5,-622.5 413.5,-622.5"/>
<text text-anchor="middle" x="478" y="-629.5" font-family="Helvetica,sans-Serif" font-size="10.00">RawEthFramerWrapper</text>
</a>
</g>
</g>
<!-- Node3&#45;&gt;Node19 -->
<g id="edge18" class="edge">
<title>Node3&#45;&gt;Node19</title>
<path fill="none" stroke="midnightblue" d="M300.48,-442.75C311.34,-481.68 341,-568.41 399,-613 403.97,-616.82 409.61,-619.89 415.52,-622.35"/>
<polygon fill="midnightblue" stroke="midnightblue" points="303.76,-441.47 297.8,-432.71 296.99,-443.27 303.76,-441.47"/>
</g>
<!-- Node20 -->
<g id="node20" class="node">
<title>Node20</title>
<g id="a_node20"><a xlink:href="classUartAxiLiteMasterTb.html" target="_top" xlink:title=" ">
<polygon fill="white" stroke="black" points="419.5,-356.5 419.5,-375.5 536.5,-375.5 536.5,-356.5 419.5,-356.5"/>
<text text-anchor="middle" x="478" y="-363.5" font-family="Helvetica,sans-Serif" font-size="10.00">UartAxiLiteMasterTb</text>
</a>
</g>
</g>
<!-- Node3&#45;&gt;Node20 -->
<g id="edge19" class="edge">
<title>Node3&#45;&gt;Node20</title>
<path fill="none" stroke="midnightblue" d="M328.45,-409.82C348.62,-402.02 375.08,-392.28 399,-385 410.2,-381.59 422.45,-378.37 433.85,-375.59"/>
<polygon fill="midnightblue" stroke="midnightblue" points="327.13,-406.58 319.08,-413.47 329.67,-413.1 327.13,-406.58"/>
</g>
<!-- Node7 -->
<g id="node7" class="node">
<title>Node7</title>
<g id="a_node7"><a xlink:href="classPgpEthAxiL.html" target="_top" xlink:title=" ">
<polygon fill="white" stroke="black" points="607.5,-603.5 607.5,-622.5 678.5,-622.5 678.5,-603.5 607.5,-603.5"/>
<text text-anchor="middle" x="643" y="-610.5" font-family="Helvetica,sans-Serif" font-size="10.00">PgpEthAxiL</text>
</a>
</g>
</g>
<!-- Node6&#45;&gt;Node7 -->
<g id="edge6" class="edge">
<title>Node6&#45;&gt;Node7</title>
<path fill="none" stroke="midnightblue" d="M567.5,-604.32C581.66,-605.97 595.54,-607.58 607.41,-608.97"/>
<polygon fill="midnightblue" stroke="midnightblue" points="567.5,-600.79 557.16,-603.11 566.69,-607.74 567.5,-600.79"/>
</g>
<!-- Node8 -->
<g id="node8" class="node">
<title>Node8</title>
<g id="a_node8"><a xlink:href="classPgpEthCore.html" target="_top" xlink:title=" ">
<polygon fill="white" stroke="black" points="729,-603.5 729,-622.5 802,-622.5 802,-603.5 729,-603.5"/>
<text text-anchor="middle" x="765.5" y="-610.5" font-family="Helvetica,sans-Serif" font-size="10.00">PgpEthCore</text>
</a>
</g>
</g>
<!-- Node7&#45;&gt;Node8 -->
<g id="edge7" class="edge">
<title>Node7&#45;&gt;Node8</title>
<path fill="none" stroke="midnightblue" d="M688.81,-613C701.97,-613 716.19,-613 728.71,-613"/>
<polygon fill="midnightblue" stroke="midnightblue" points="688.53,-609.5 678.53,-613 688.53,-616.5 688.53,-609.5"/>
</g>
<!-- Node9 -->
<g id="node9" class="node">
<title>Node9</title>
<g id="a_node9"><a xlink:href="classPgpEthCaui4Gty.html" target="_top" xlink:title=" ">
<polygon fill="white" stroke="black" points="846.5,-622.5 846.5,-641.5 941.5,-641.5 941.5,-622.5 846.5,-622.5"/>
<text text-anchor="middle" x="894" y="-629.5" font-family="Helvetica,sans-Serif" font-size="10.00">PgpEthCaui4Gty</text>
</a>
</g>
</g>
<!-- Node8&#45;&gt;Node9 -->
<g id="edge8" class="edge">
<title>Node8&#45;&gt;Node9</title>
<path fill="none" stroke="midnightblue" d="M812.05,-619.84C823.2,-621.52 835.15,-623.31 846.35,-624.99"/>
<polygon fill="midnightblue" stroke="midnightblue" points="812.48,-616.37 802.07,-618.34 811.44,-623.29 812.48,-616.37"/>
</g>
<!-- Node11 -->
<g id="node11" class="node">
<title>Node11</title>
<g id="a_node11"><a xlink:href="classPgpEthCoreTb.html" target="_top" xlink:title=" ">
<polygon fill="white" stroke="black" points="851.5,-584.5 851.5,-603.5 936.5,-603.5 936.5,-584.5 851.5,-584.5"/>
<text text-anchor="middle" x="894" y="-591.5" font-family="Helvetica,sans-Serif" font-size="10.00">PgpEthCoreTb</text>
</a>
</g>
</g>
<!-- Node8&#45;&gt;Node11 -->
<g id="edge10" class="edge">
<title>Node8&#45;&gt;Node11</title>
<path fill="none" stroke="midnightblue" d="M812.1,-606.15C824.94,-604.22 838.84,-602.13 851.43,-600.24"/>
<polygon fill="midnightblue" stroke="midnightblue" points="811.44,-602.71 802.07,-607.66 812.48,-609.63 811.44,-602.71"/>
</g>
<!-- Node10 -->
<g id="node10" class="node">
<title>Node10</title>
<g id="a_node10"><a xlink:href="classPgpEthCaui4GtyTb.html" target="_top" xlink:title=" ">
<polygon fill="white" stroke="black" points="986,-622.5 986,-641.5 1093,-641.5 1093,-622.5 986,-622.5"/>
<text text-anchor="middle" x="1039.5" y="-629.5" font-family="Helvetica,sans-Serif" font-size="10.00">PgpEthCaui4GtyTb</text>
</a>
</g>
</g>
<!-- Node9&#45;&gt;Node10 -->
<g id="edge9" class="edge">
<title>Node9&#45;&gt;Node10</title>
<path fill="none" stroke="midnightblue" d="M951.76,-632C963.02,-632 974.81,-632 985.93,-632"/>
<polygon fill="midnightblue" stroke="midnightblue" points="951.59,-628.5 941.59,-632 951.59,-635.5 951.59,-628.5"/>
</g>
<!-- Node16 -->
<g id="node16" class="node">
<title>Node16</title>
<g id="a_node16"><a xlink:href="classAxiMonAxiL.html" target="_top" xlink:title=" ">
<polygon fill="white" stroke="black" points="606,-527.5 606,-546.5 680,-546.5 680,-527.5 606,-527.5"/>
<text text-anchor="middle" x="643" y="-534.5" font-family="Helvetica,sans-Serif" font-size="10.00">AxiMonAxiL</text>
</a>
</g>
</g>
<!-- Node15&#45;&gt;Node16 -->
<g id="edge15" class="edge">
<title>Node15&#45;&gt;Node16</title>
<path fill="none" stroke="midnightblue" d="M543.25,-548.51C564.55,-546.03 587.51,-543.35 605.92,-541.21"/>
<polygon fill="midnightblue" stroke="midnightblue" points="542.8,-545.04 533.28,-549.67 543.61,-551.99 542.8,-545.04"/>
</g>
<!-- Node24 -->
<g id="node24" class="node">
<title>Node24</title>
<g id="a_node24"><a xlink:href="classAxiRssiCoreWrapper.html" target="_top" xlink:title=" ">
<polygon fill="white" stroke="black" points="420,-14.5 420,-33.5 536,-33.5 536,-14.5 420,-14.5"/>
<text text-anchor="middle" x="478" y="-21.5" font-family="Helvetica,sans-Serif" font-size="10.00">AxiRssiCoreWrapper</text>
</a>
</g>
</g>
<!-- Node23&#45;&gt;Node24 -->
<g id="edge23" class="edge">
<title>Node23&#45;&gt;Node24</title>
<path fill="none" stroke="midnightblue" d="M353.27,-95.56C356.67,-93.91 359.95,-92.07 363,-90 384.78,-75.23 376.96,-57.38 399,-43 405.3,-38.89 412.42,-35.66 419.72,-33.14"/>
<polygon fill="midnightblue" stroke="midnightblue" points="351.89,-92.35 344.04,-99.47 354.61,-98.79 351.89,-92.35"/>
</g>
<!-- Node26 -->
<g id="node26" class="node">
<title>Node26</title>
<g id="a_node26"><a xlink:href="classAxiStreamPacketizer2Tb.html" target="_top" xlink:title=" ">
<polygon fill="white" stroke="black" points="410.5,-90.5 410.5,-109.5 545.5,-109.5 545.5,-90.5 410.5,-90.5"/>
<text text-anchor="middle" x="478" y="-97.5" font-family="Helvetica,sans-Serif" font-size="10.00">AxiStreamPacketizer2Tb</text>
</a>
</g>
</g>
<!-- Node23&#45;&gt;Node26 -->
<g id="edge25" class="edge">
<title>Node23&#45;&gt;Node26</title>
<path fill="none" stroke="midnightblue" d="M373.32,-105.14C385.62,-104.53 398.25,-103.91 410.27,-103.31"/>
<polygon fill="midnightblue" stroke="midnightblue" points="372.9,-101.66 363.08,-105.65 373.25,-108.65 372.9,-101.66"/>
</g>
<!-- Node27 -->
<g id="node27" class="node">
<title>Node27</title>
<g id="a_node27"><a xlink:href="classPgp3Rx.html" target="_top" xlink:title=" ">
<polygon fill="white" stroke="black" points="451.5,-52.5 451.5,-71.5 504.5,-71.5 504.5,-52.5 451.5,-52.5"/>
<text text-anchor="middle" x="478" y="-59.5" font-family="Helvetica,sans-Serif" font-size="10.00">Pgp3Rx</text>
</a>
</g>
</g>
<!-- Node23&#45;&gt;Node27 -->
<g id="edge26" class="edge">
<title>Node23&#45;&gt;Node27</title>
<path fill="none" stroke="midnightblue" d="M339.76,-96.76C358.07,-91.77 379.53,-86 399,-81 416.41,-76.52 436.08,-71.73 451.31,-68.08"/>
<polygon fill="midnightblue" stroke="midnightblue" points="338.66,-93.43 329.94,-99.45 340.51,-100.19 338.66,-93.43"/>
</g>
<!-- Node39 -->
<g id="node39" class="node">
<title>Node39</title>
<g id="a_node39"><a xlink:href="classRssiCoreWrapper.html" target="_top" xlink:title=" ">
<polygon fill="white" stroke="black" points="427.5,-166.5 427.5,-185.5 528.5,-185.5 528.5,-166.5 427.5,-166.5"/>
<text text-anchor="middle" x="478" y="-173.5" font-family="Helvetica,sans-Serif" font-size="10.00">RssiCoreWrapper</text>
</a>
</g>
</g>
<!-- Node23&#45;&gt;Node39 -->
<g id="edge38" class="edge">
<title>Node23&#45;&gt;Node39</title>
<path fill="none" stroke="midnightblue" d="M348.82,-121.79C353.72,-123.63 358.52,-125.69 363,-128 381.26,-137.42 380.58,-147.91 399,-157 407.75,-161.32 417.54,-164.7 427.16,-167.32"/>
<polygon fill="midnightblue" stroke="midnightblue" points="349.93,-118.48 339.34,-118.55 347.67,-125.1 349.93,-118.48"/>
</g>
<!-- Node25 -->
<g id="node25" class="node">
<title>Node25</title>
<g id="a_node25"><a xlink:href="classAxiRssiCoreTb.html" target="_top" xlink:title=" ">
<polygon fill="white" stroke="black" points="599.5,-14.5 599.5,-33.5 686.5,-33.5 686.5,-14.5 599.5,-14.5"/>
<text text-anchor="middle" x="643" y="-21.5" font-family="Helvetica,sans-Serif" font-size="10.00">AxiRssiCoreTb</text>
</a>
</g>
</g>
<!-- Node24&#45;&gt;Node25 -->
<g id="edge24" class="edge">
<title>Node24&#45;&gt;Node25</title>
<path fill="none" stroke="midnightblue" d="M546.18,-24C564.18,-24 583.15,-24 599.41,-24"/>
<polygon fill="midnightblue" stroke="midnightblue" points="546.01,-20.5 536.01,-24 546.01,-27.5 546.01,-20.5"/>
</g>
<!-- Node28 -->
<g id="node28" class="node">
<title>Node28</title>
<g id="a_node28"><a xlink:href="classPgp3Core.html" target="_top" xlink:title=" ">
<polygon fill="white" stroke="black" points="611.5,-57.5 611.5,-76.5 674.5,-76.5 674.5,-57.5 611.5,-57.5"/>
<text text-anchor="middle" x="643" y="-64.5" font-family="Helvetica,sans-Serif" font-size="10.00">Pgp3Core</text>
</a>
</g>
</g>
<!-- Node27&#45;&gt;Node28 -->
<g id="edge27" class="edge">
<title>Node27&#45;&gt;Node28</title>
<path fill="none" stroke="midnightblue" d="M514.91,-63.1C543.78,-63.99 583.9,-65.22 611.29,-66.06"/>
<polygon fill="midnightblue" stroke="midnightblue" points="514.93,-59.6 504.83,-62.79 514.72,-66.6 514.93,-59.6"/>
</g>
<!-- Node38 -->
<g id="node38" class="node">
<title>Node38</title>
<g id="a_node38"><a xlink:href="classPgp3Tb.html" target="_top" xlink:title=" ">
<polygon fill="white" stroke="black" points="616.5,-104.5 616.5,-123.5 669.5,-123.5 669.5,-104.5 616.5,-104.5"/>
<text text-anchor="middle" x="643" y="-111.5" font-family="Helvetica,sans-Serif" font-size="10.00">Pgp3Tb</text>
</a>
</g>
</g>
<!-- Node27&#45;&gt;Node38 -->
<g id="edge37" class="edge">
<title>Node27&#45;&gt;Node38</title>
<path fill="none" stroke="midnightblue" d="M514.37,-69.58C527.83,-72.73 543.23,-76.67 557,-81 578.59,-87.79 602.59,-97.29 619.56,-104.36"/>
<polygon fill="midnightblue" stroke="midnightblue" points="515.05,-66.14 504.52,-67.33 513.49,-72.97 515.05,-66.14"/>
</g>
<!-- Node29 -->
<g id="node29" class="node">
<title>Node29</title>
<g id="a_node29"><a xlink:href="classPgp3GthUs.html" target="_top" xlink:title=" ">
<polygon fill="white" stroke="black" points="730,-76.5 730,-95.5 801,-95.5 801,-76.5 730,-76.5"/>
<text text-anchor="middle" x="765.5" y="-83.5" font-family="Helvetica,sans-Serif" font-size="10.00">Pgp3GthUs</text>
</a>
</g>
</g>
<!-- Node28&#45;&gt;Node29 -->
<g id="edge28" class="edge">
<title>Node28&#45;&gt;Node29</title>
<path fill="none" stroke="midnightblue" d="M684.93,-73.45C699.44,-75.74 715.62,-78.29 729.58,-80.49"/>
<polygon fill="midnightblue" stroke="midnightblue" points="685.14,-69.94 674.72,-71.84 684.05,-76.86 685.14,-69.94"/>
</g>
<!-- Node31 -->
<g id="node31" class="node">
<title>Node31</title>
<g id="a_node31"><a xlink:href="classPgp3Gtp7.html" target="_top" xlink:title=" ">
<polygon fill="white" stroke="black" points="733.5,-38.5 733.5,-57.5 797.5,-57.5 797.5,-38.5 733.5,-38.5"/>
<text text-anchor="middle" x="765.5" y="-45.5" font-family="Helvetica,sans-Serif" font-size="10.00">Pgp3Gtp7</text>
</a>
</g>
</g>
<!-- Node28&#45;&gt;Node31 -->
<g id="edge30" class="edge">
<title>Node28&#45;&gt;Node31</title>
<path fill="none" stroke="midnightblue" d="M684.82,-60.56C700.7,-58.06 718.61,-55.24 733.42,-52.9"/>
<polygon fill="midnightblue" stroke="midnightblue" points="684.05,-57.14 674.72,-62.16 685.14,-64.06 684.05,-57.14"/>
</g>
<!-- Node34 -->
<g id="node34" class="node">
<title>Node34</title>
<g id="a_node34"><a xlink:href="classPgp3Gtx7.html" target="_top" xlink:title=" ">
<polygon fill="white" stroke="black" points="733.5,-0.5 733.5,-19.5 797.5,-19.5 797.5,-0.5 733.5,-0.5"/>
<text text-anchor="middle" x="765.5" y="-7.5" font-family="Helvetica,sans-Serif" font-size="10.00">Pgp3Gtx7</text>
</a>
</g>
</g>
<!-- Node28&#45;&gt;Node34 -->
<g id="edge33" class="edge">
<title>Node28&#45;&gt;Node34</title>
<path fill="none" stroke="midnightblue" d="M673.38,-53.1C695.37,-42.7 724.87,-28.75 744.27,-19.57"/>
<polygon fill="midnightblue" stroke="midnightblue" points="671.71,-50.02 664.17,-57.46 674.71,-56.35 671.71,-50.02"/>
</g>
<!-- Node36 -->
<g id="node36" class="node">
<title>Node36</title>
<g id="a_node36"><a xlink:href="classPgp3GtyUs.html" target="_top" xlink:title=" ">
<polygon fill="white" stroke="black" points="730,-114.5 730,-133.5 801,-133.5 801,-114.5 730,-114.5"/>
<text text-anchor="middle" x="765.5" y="-121.5" font-family="Helvetica,sans-Serif" font-size="10.00">Pgp3GtyUs</text>
</a>
</g>
</g>
<!-- Node28&#45;&gt;Node36 -->
<g id="edge35" class="edge">
<title>Node28&#45;&gt;Node36</title>
<path fill="none" stroke="midnightblue" d="M673.38,-80.9C695.37,-91.3 724.87,-105.25 744.27,-114.43"/>
<polygon fill="midnightblue" stroke="midnightblue" points="674.71,-77.65 664.17,-76.54 671.71,-83.98 674.71,-77.65"/>
</g>
<!-- Node30 -->
<g id="node30" class="node">
<title>Node30</title>
<g id="a_node30"><a xlink:href="classPgp3GthUsWrapper.html" target="_top" xlink:title=" ">
<polygon fill="white" stroke="black" points="838,-76.5 838,-95.5 950,-95.5 950,-76.5 838,-76.5"/>
<text text-anchor="middle" x="894" y="-83.5" font-family="Helvetica,sans-Serif" font-size="10.00">Pgp3GthUsWrapper</text>
</a>
</g>
</g>
<!-- Node29&#45;&gt;Node30 -->
<g id="edge29" class="edge">
<title>Node29&#45;&gt;Node30</title>
<path fill="none" stroke="midnightblue" d="M811.18,-86C819.7,-86 828.72,-86 837.54,-86"/>
<polygon fill="midnightblue" stroke="midnightblue" points="811.07,-82.5 801.07,-86 811.07,-89.5 811.07,-82.5"/>
</g>
<!-- Node32 -->
<g id="node32" class="node">
<title>Node32</title>
<g id="a_node32"><a xlink:href="classPgp3Gtp7Wrapper.html" target="_top" xlink:title=" ">
<polygon fill="white" stroke="black" points="841.5,-38.5 841.5,-57.5 946.5,-57.5 946.5,-38.5 841.5,-38.5"/>
<text text-anchor="middle" x="894" y="-45.5" font-family="Helvetica,sans-Serif" font-size="10.00">Pgp3Gtp7Wrapper</text>
</a>
</g>
</g>
<!-- Node31&#45;&gt;Node32 -->
<g id="edge31" class="edge">
<title>Node31&#45;&gt;Node32</title>
<path fill="none" stroke="midnightblue" d="M808.06,-48C818.72,-48 830.32,-48 841.42,-48"/>
<polygon fill="midnightblue" stroke="midnightblue" points="807.77,-44.5 797.77,-48 807.77,-51.5 807.77,-44.5"/>
</g>
<!-- Node33 -->
<g id="node33" class="node">
<title>Node33</title>
<g id="a_node33"><a xlink:href="classPgp3Gtp7Tb.html" target="_top" xlink:title=" ">
<polygon fill="white" stroke="black" points="1001.5,-38.5 1001.5,-57.5 1077.5,-57.5 1077.5,-38.5 1001.5,-38.5"/>
<text text-anchor="middle" x="1039.5" y="-45.5" font-family="Helvetica,sans-Serif" font-size="10.00">Pgp3Gtp7Tb</text>
</a>
</g>
</g>
<!-- Node32&#45;&gt;Node33 -->
<g id="edge32" class="edge">
<title>Node32&#45;&gt;Node33</title>
<path fill="none" stroke="midnightblue" d="M957.08,-48C972.1,-48 987.7,-48 1001.17,-48"/>
<polygon fill="midnightblue" stroke="midnightblue" points="956.81,-44.5 946.81,-48 956.81,-51.5 956.81,-44.5"/>
</g>
<!-- Node35 -->
<g id="node35" class="node">
<title>Node35</title>
<g id="a_node35"><a xlink:href="classPgp3Gtx7Wrapper.html" target="_top" xlink:title=" ">
<polygon fill="white" stroke="black" points="841.5,-0.5 841.5,-19.5 946.5,-19.5 946.5,-0.5 841.5,-0.5"/>
<text text-anchor="middle" x="894" y="-7.5" font-family="Helvetica,sans-Serif" font-size="10.00">Pgp3Gtx7Wrapper</text>
</a>
</g>
</g>
<!-- Node34&#45;&gt;Node35 -->
<g id="edge34" class="edge">
<title>Node34&#45;&gt;Node35</title>
<path fill="none" stroke="midnightblue" d="M808.06,-10C818.72,-10 830.32,-10 841.42,-10"/>
<polygon fill="midnightblue" stroke="midnightblue" points="807.77,-6.5 797.77,-10 807.77,-13.5 807.77,-6.5"/>
</g>
<!-- Node37 -->
<g id="node37" class="node">
<title>Node37</title>
<g id="a_node37"><a xlink:href="classPgp3GtyUsWrapper.html" target="_top" xlink:title=" ">
<polygon fill="white" stroke="black" points="838,-114.5 838,-133.5 950,-133.5 950,-114.5 838,-114.5"/>
<text text-anchor="middle" x="894" y="-121.5" font-family="Helvetica,sans-Serif" font-size="10.00">Pgp3GtyUsWrapper</text>
</a>
</g>
</g>
<!-- Node36&#45;&gt;Node37 -->
<g id="edge36" class="edge">
<title>Node36&#45;&gt;Node37</title>
<path fill="none" stroke="midnightblue" d="M811.18,-124C819.7,-124 828.72,-124 837.54,-124"/>
<polygon fill="midnightblue" stroke="midnightblue" points="811.07,-120.5 801.07,-124 811.07,-127.5 811.07,-120.5"/>
</g>
<!-- Node40 -->
<g id="node40" class="node">
<title>Node40</title>
<g id="a_node40"><a xlink:href="classRawEthFramerTb.html" target="_top" xlink:title=" ">
<polygon fill="white" stroke="black" points="593,-565.5 593,-584.5 693,-584.5 693,-565.5 593,-565.5"/>
<text text-anchor="middle" x="643" y="-572.5" font-family="Helvetica,sans-Serif" font-size="10.00">RawEthFramerTb</text>
</a>
</g>
</g>
<!-- Node39&#45;&gt;Node40 -->
<g id="edge39" class="edge">
<title>Node39&#45;&gt;Node40</title>
<path fill="none" stroke="midnightblue" d="M538.44,-182.05C545.5,-185.04 551.97,-189.21 557,-195 609.89,-255.84 544.2,-491.83 593,-556 595.87,-559.78 599.6,-562.8 603.71,-565.23"/>
<polygon fill="midnightblue" stroke="midnightblue" points="539.13,-178.58 528.54,-178.66 536.87,-185.21 539.13,-178.58"/>
</g>
<!-- Node41 -->
<g id="node41" class="node">
<title>Node41</title>
<g id="a_node41"><a xlink:href="classRssiCoreTb.html" target="_top" xlink:title=" ">
<polygon fill="white" stroke="black" points="607.5,-185.5 607.5,-204.5 678.5,-204.5 678.5,-185.5 607.5,-185.5"/>
<text text-anchor="middle" x="643" y="-192.5" font-family="Helvetica,sans-Serif" font-size="10.00">RssiCoreTb</text>
</a>
</g>
</g>
<!-- Node39&#45;&gt;Node41 -->
<g id="edge40" class="edge">
<title>Node39&#45;&gt;Node41</title>
<path fill="none" stroke="midnightblue" d="M538.86,-182.98C561.96,-185.67 587.56,-188.65 607.48,-190.98"/>
<polygon fill="midnightblue" stroke="midnightblue" points="539.13,-179.49 528.79,-181.8 538.32,-186.44 539.13,-179.49"/>
</g>
<!-- Node42 -->
<g id="node42" class="node">
<title>Node42</title>
<g id="a_node42"><a xlink:href="classRssiInterleaveTb.html" target="_top" xlink:title=" ">
<polygon fill="white" stroke="black" points="594,-147.5 594,-166.5 692,-166.5 692,-147.5 594,-147.5"/>
<text text-anchor="middle" x="643" y="-154.5" font-family="Helvetica,sans-Serif" font-size="10.00">RssiInterleaveTb</text>
</a>
</g>
</g>
<!-- Node39&#45;&gt;Node42 -->
<g id="edge41" class="edge">
<title>Node39&#45;&gt;Node42</title>
<path fill="none" stroke="midnightblue" d="M538.95,-169.01C557.06,-166.9 576.69,-164.61 593.91,-162.61"/>
<polygon fill="midnightblue" stroke="midnightblue" points="538.32,-165.56 528.79,-170.2 539.13,-172.51 538.32,-165.56"/>
</g>
<!-- Node44 -->
<g id="node44" class="node">
<title>Node44</title>
<g id="a_node44"><a xlink:href="classAxiStreamDmaV2.html" target="_top" xlink:title=" ">
<polygon fill="white" stroke="black" points="426,-204.5 426,-223.5 530,-223.5 530,-204.5 426,-204.5"/>
<text text-anchor="middle" x="478" y="-211.5" font-family="Helvetica,sans-Serif" font-size="10.00">AxiStreamDmaV2</text>
</a>
</g>
</g>
<!-- Node43&#45;&gt;Node44 -->
<g id="edge43" class="edge">
<title>Node43&#45;&gt;Node44</title>
<path fill="none" stroke="midnightblue" d="M369.81,-208.09C388.68,-209.13 408.54,-210.23 425.96,-211.19"/>
<polygon fill="midnightblue" stroke="midnightblue" points="369.92,-204.6 359.75,-207.54 369.54,-211.58 369.92,-204.6"/>
</g>
<!-- Node45&#45;&gt;Node24 -->
<g id="edge45" class="edge">
<title>Node45&#45;&gt;Node24</title>
<path fill="none" stroke="midnightblue" d="M357.32,-132.33C359.32,-131.01 361.22,-129.57 363,-128 393.78,-100.88 367.74,-69.57 399,-43 405.05,-37.85 412.28,-34.06 419.85,-31.27"/>
<polygon fill="midnightblue" stroke="midnightblue" points="355.17,-129.52 348.09,-137.4 358.54,-135.66 355.17,-129.52"/>
</g>
<!-- Node45&#45;&gt;Node26 -->
<g id="edge46" class="edge">
<title>Node45&#45;&gt;Node26</title>
<path fill="none" stroke="midnightblue" d="M339.76,-134.76C358.07,-129.77 379.53,-124 399,-119 411.28,-115.84 424.69,-112.53 436.87,-109.57"/>
<polygon fill="midnightblue" stroke="midnightblue" points="338.66,-131.43 329.94,-137.45 340.51,-138.19 338.66,-131.43"/>
</g>
<!-- Node45&#45;&gt;Node39 -->
<g id="edge50" class="edge">
<title>Node45&#45;&gt;Node39</title>
<path fill="none" stroke="midnightblue" d="M365.2,-158.14C385.89,-161.44 408.14,-165 427.29,-168.06"/>
<polygon fill="midnightblue" stroke="midnightblue" points="365.61,-154.66 355.18,-156.54 364.5,-161.57 365.61,-154.66"/>
</g>
<!-- Node46 -->
<g id="node46" class="node">
<title>Node46</title>
<g id="a_node46"><a xlink:href="classPgp3Tx.html" target="_top" xlink:title=" ">
<polygon fill="white" stroke="black" points="451.5,-128.5 451.5,-147.5 504.5,-147.5 504.5,-128.5 451.5,-128.5"/>
<text text-anchor="middle" x="478" y="-135.5" font-family="Helvetica,sans-Serif" font-size="10.00">Pgp3Tx</text>
</a>
</g>
</g>
<!-- Node45&#45;&gt;Node46 -->
<g id="edge47" class="edge">
<title>Node45&#45;&gt;Node46</title>
<path fill="none" stroke="midnightblue" d="M366.21,-143.49C396.15,-142.01 429.16,-140.37 451.29,-139.27"/>
<polygon fill="midnightblue" stroke="midnightblue" points="366,-140 356.19,-143.99 366.35,-146.99 366,-140"/>
</g>
<!-- Node46&#45;&gt;Node28 -->
<g id="edge48" class="edge">
<title>Node46&#45;&gt;Node28</title>
<path fill="none" stroke="midnightblue" d="M514.65,-132.05C528.25,-129.08 543.68,-124.85 557,-119 574.61,-111.27 576.64,-105.11 593,-95 603.33,-88.61 615.15,-81.84 624.6,-76.56"/>
<polygon fill="midnightblue" stroke="midnightblue" points="513.77,-128.66 504.67,-134.08 515.17,-135.52 513.77,-128.66"/>
</g>
<!-- Node46&#45;&gt;Node38 -->
<g id="edge49" class="edge">
<title>Node46&#45;&gt;Node38</title>
<path fill="none" stroke="midnightblue" d="M515.1,-132.68C545.77,-128.17 589.04,-121.8 616.29,-117.79"/>
<polygon fill="midnightblue" stroke="midnightblue" points="514.21,-129.28 504.83,-134.2 515.23,-136.2 514.21,-129.28"/>
</g>
<!-- Node48 -->
<g id="node48" class="node">
<title>Node48</title>
<g id="a_node48"><a xlink:href="classRawEthFramer.html" target="_top" xlink:title=" ">
<polygon fill="white" stroke="black" points="250.5,-622.5 250.5,-641.5 338.5,-641.5 338.5,-622.5 250.5,-622.5"/>
<text text-anchor="middle" x="294.5" y="-629.5" font-family="Helvetica,sans-Serif" font-size="10.00">RawEthFramer</text>
</a>
</g>
</g>
<!-- Node47&#45;&gt;Node48 -->
<g id="edge53" class="edge">
<title>Node47&#45;&gt;Node48</title>
<path fill="none" stroke="midnightblue" d="M154.21,-444.76C185.27,-486.51 262.14,-589.84 286.19,-622.17"/>
<polygon fill="midnightblue" stroke="midnightblue" points="156.93,-442.55 148.15,-436.61 151.31,-446.73 156.93,-442.55"/>
</g>
<!-- Node48&#45;&gt;Node19 -->
<g id="edge55" class="edge">
<title>Node48&#45;&gt;Node19</title>
<path fill="none" stroke="midnightblue" d="M348.79,-632C369.01,-632 392.23,-632 413.32,-632"/>
<polygon fill="midnightblue" stroke="midnightblue" points="348.51,-628.5 338.51,-632 348.51,-635.5 348.51,-628.5"/>
</g>
<!-- Node48&#45;&gt;Node40 -->
<g id="edge54" class="edge">
<title>Node48&#45;&gt;Node40</title>
<path fill="none" stroke="midnightblue" d="M328,-645.07C379.97,-663.74 483.41,-691.56 557,-651 583.24,-636.54 569.87,-613.04 593,-594 597.65,-590.17 603.16,-587.06 608.77,-584.54"/>
<polygon fill="midnightblue" stroke="midnightblue" points="329.21,-641.79 318.62,-641.6 326.78,-648.35 329.21,-641.79"/>
</g>
</g>
</svg>
