<?xml version="1.0" encoding="UTF-8" standalone="no"?>
<!DOCTYPE svg PUBLIC "-//W3C//DTD SVG 1.1//EN"
 "http://www.w3.org/Graphics/SVG/1.1/DTD/svg11.dtd">
<!-- Generated by graphviz version 2.43.0 (0)
 -->
<!-- Title: SsiPrbsTx Pages: 1 -->
<!--zoomable 767 -->

<svg id="main" version="1.1" xmlns="http://www.w3.org/2000/svg" xmlns:xlink="http://www.w3.org/1999/xlink" xml:space="preserve" onload="init(evt)">
<style type="text/css"><![CDATA[
.node, .edge {opacity: 0.7;}
.node.selected, .edge.selected {opacity: 1;}
.edge:hover path { stroke: red; }
.edge:hover polygon { stroke: red; fill: red; }
]]></style>

<defs>
  <circle id="rim" cx="0" cy="0" r="7"/>
  <circle id="rim2" cx="0" cy="0" r="3.5"/>
  <g id="zoomPlus">
    <use xlink:href="#rim" fill="#404040"><set attributeName="fill" to="#808080" begin="zoomplus.mouseover" end="zoomplus.mouseout"/></use>
    <path d="M-4,0h8M0,-4v8" fill="none" stroke="white" stroke-width="1.5" pointer-events="none"/>
  </g>
  <g id="zoomMin">
    <use xlink:href="#rim" fill="#404040"><set attributeName="fill" to="#808080" begin="zoomminus.mouseover" end="zoomminus.mouseout"/></use>
    <path d="M-4,0h8" fill="none" stroke="white" stroke-width="1.5" pointer-events="none"/>
  </g>
  <g id="arrowUp" transform="translate(30 24)">
    <use xlink:href="#rim"/>
    <path pointer-events="none" fill="none" stroke="white" stroke-width="1.5" d="M0,-3.0v7 M-2.5,-0.5L0,-3.0L2.5,-0.5"/>
  </g>
  <g id="arrowRight" transform="rotate(90) translate(36 -43)">
    <use xlink:href="#rim"/>
    <path pointer-events="none" fill="none" stroke="white" stroke-width="1.5" d="M0,-3.0v7 M-2.5,-0.5L0,-3.0L2.5,-0.5"/>
  </g>
  <g id="arrowDown" transform="rotate(180) translate(-30 -48)">
    <use xlink:href="#rim"/>
    <path pointer-events="none" fill="none" stroke="white" stroke-width="1.5" d="M0,-3.0v7 M-2.5,-0.5L0,-3.0L2.5,-0.5"/>
  </g>
  <g id="arrowLeft" transform="rotate(270) translate(-36 17)">
    <use xlink:href="#rim"/>
    <path pointer-events="none" fill="none" stroke="white" stroke-width="1.5" d="M0,-3.0v7 M-2.5,-0.5L0,-3.0L2.5,-0.5"/>
  </g>
  <g id="resetDef">
    <use xlink:href="#rim2" fill="#404040"><set attributeName="fill" to="#808080" begin="reset.mouseover" end="reset.mouseout"/></use>
  </g>
</defs>
<script type="application/ecmascript">
var viewWidth = 1079;
var viewHeight = 767;
var sectionId = 'dynsection-0';
</script>
<script type="application/ecmascript" xlink:href="svg.min.js"/>
<svg id="graph" class="graph">
<g id="viewport">
<title>SsiPrbsTx</title>
<!-- Node1 -->
<g id="Node000001" class="node">
<title>Node1</title>
<g id="a_Node000001"><a xlink:title=" ">
<polygon fill="#999999" stroke="#666666" points="889,-389 825,-389 825,-370 889,-370 889,-389"/>
<text text-anchor="middle" x="857" y="-377" font-family="Helvetica,sans-Serif" font-size="10.00">SsiPrbsTx</text>
</a>
</g>
</g>
<!-- Node19 -->
<g id="Node000019" class="node">
<title>Node19</title>
<g id="a_Node000019"><a xlink:href="classAxiStreamFlushTb.html" target="_top" xlink:title=" ">
<polygon fill="white" stroke="#bfbfbf" points="1051,-759 945,-759 945,-740 1051,-740 1051,-759"/>
<text text-anchor="middle" x="998" y="-747" font-family="Helvetica,sans-Serif" font-size="10.00">AxiStreamFlushTb</text>
</a>
</g>
</g>
<!-- Node1&#45;&gt;Node19 -->
<g id="edge29_Node000001_Node000019" class="edge">
<title>Node1&#45;&gt;Node19</title>
<g id="a_edge29_Node000001_Node000019"><a xlink:title=" ">
<path fill="none" stroke="#63b8ff" d="M859.02,-399.02C862.88,-465.64 878.86,-682.66 925,-731.5 930.4,-737.21 937.31,-741.23 944.71,-744.02"/>
<polygon fill="#63b8ff" stroke="#63b8ff" points="862.51,-398.82 858.46,-389.02 855.52,-399.2 862.51,-398.82"/>
</a>
</g>
</g>
<!-- Node20 -->
<g id="Node000020" class="node">
<title>Node20</title>
<g id="a_Node000020"><a xlink:href="classAxiStreamMuxTb.html" target="_top" xlink:title=" ">
<polygon fill="white" stroke="#bfbfbf" points="1048.5,-722 947.5,-722 947.5,-703 1048.5,-703 1048.5,-722"/>
<text text-anchor="middle" x="998" y="-710" font-family="Helvetica,sans-Serif" font-size="10.00">AxiStreamMuxTb</text>
</a>
</g>
</g>
<!-- Node1&#45;&gt;Node20 -->
<g id="edge30_Node000001_Node000020" class="edge">
<title>Node1&#45;&gt;Node20</title>
<g id="a_edge30_Node000001_Node000020"><a xlink:title=" ">
<path fill="none" stroke="#63b8ff" d="M859.52,-399.35C864.68,-461.63 883.6,-651.61 925,-694.5 931.08,-700.8 939.02,-705.03 947.39,-707.83"/>
<polygon fill="#63b8ff" stroke="#63b8ff" points="863,-398.96 858.71,-389.27 856.02,-399.52 863,-398.96"/>
</a>
</g>
</g>
<!-- Node21 -->
<g id="Node000021" class="node">
<title>Node21</title>
<g id="a_Node000021"><a xlink:href="classAxiStreamResizeTb.html" target="_top" xlink:title=" ">
<polygon fill="white" stroke="#bfbfbf" points="1054,-685 942,-685 942,-666 1054,-666 1054,-685"/>
<text text-anchor="middle" x="998" y="-673" font-family="Helvetica,sans-Serif" font-size="10.00">AxiStreamResizeTb</text>
</a>
</g>
</g>
<!-- Node1&#45;&gt;Node21 -->
<g id="edge31_Node000001_Node000021" class="edge">
<title>Node1&#45;&gt;Node21</title>
<g id="a_edge31_Node000001_Node000021"><a xlink:title=" ">
<path fill="none" stroke="#63b8ff" d="M860.11,-399.23C866.63,-456.4 888.21,-620.4 925,-657.5 929.72,-662.26 935.49,-665.83 941.69,-668.49"/>
<polygon fill="#63b8ff" stroke="#63b8ff" points="863.59,-398.85 859.01,-389.29 856.63,-399.62 863.59,-398.85"/>
</a>
</g>
</g>
<!-- Node22 -->
<g id="Node000022" class="node">
<title>Node22</title>
<g id="a_Node000022"><a xlink:href="classAxiStreamPacketizer2Tb.html" target="_top" xlink:title=" ">
<polygon fill="white" stroke="#bfbfbf" points="1065.5,-648 930.5,-648 930.5,-629 1065.5,-629 1065.5,-648"/>
<text text-anchor="middle" x="998" y="-636" font-family="Helvetica,sans-Serif" font-size="10.00">AxiStreamPacketizer2Tb</text>
</a>
</g>
</g>
<!-- Node1&#45;&gt;Node22 -->
<g id="edge32_Node000001_Node000022" class="edge">
<title>Node1&#45;&gt;Node22</title>
<g id="a_edge32_Node000001_Node000022"><a xlink:title=" ">
<path fill="none" stroke="#63b8ff" d="M857.29,-399.68C856.83,-445.79 862.48,-559.6 925,-620.5 928.41,-623.83 932.35,-626.57 936.57,-628.82"/>
<polygon fill="#63b8ff" stroke="#63b8ff" points="860.79,-399.56 857.51,-389.49 853.8,-399.41 860.79,-399.56"/>
</a>
</g>
</g>
<!-- Node23 -->
<g id="Node000023" class="node">
<title>Node23</title>
<g id="a_Node000023"><a xlink:href="classHtspCoreTb.html" target="_top" xlink:title=" ">
<polygon fill="white" stroke="#bfbfbf" points="1035,-611 961,-611 961,-592 1035,-592 1035,-611"/>
<text text-anchor="middle" x="998" y="-599" font-family="Helvetica,sans-Serif" font-size="10.00">HtspCoreTb</text>
</a>
</g>
</g>
<!-- Node1&#45;&gt;Node23 -->
<g id="edge33_Node000001_Node000023" class="edge">
<title>Node1&#45;&gt;Node23</title>
<g id="a_edge33_Node000001_Node000023"><a xlink:title=" ">
<path fill="none" stroke="#63b8ff" d="M858.48,-399.34C860.59,-440.1 871.36,-533.61 925,-583.5 934.62,-592.45 948.01,-597.13 960.63,-599.51"/>
<polygon fill="#63b8ff" stroke="#63b8ff" points="861.98,-399.18 858.09,-389.32 854.98,-399.45 861.98,-399.18"/>
</a>
</g>
</g>
<!-- Node24 -->
<g id="Node000024" class="node">
<title>Node24</title>
<g id="a_Node000024"><a xlink:href="classPgp3Tb.html" target="_top" xlink:title=" ">
<polygon fill="white" stroke="#bfbfbf" points="1024.5,-574 971.5,-574 971.5,-555 1024.5,-555 1024.5,-574"/>
<text text-anchor="middle" x="998" y="-562" font-family="Helvetica,sans-Serif" font-size="10.00">Pgp3Tb</text>
</a>
</g>
</g>
<!-- Node1&#45;&gt;Node24 -->
<g id="edge34_Node000001_Node000024" class="edge">
<title>Node1&#45;&gt;Node24</title>
<g id="a_edge34_Node000001_Node000024"><a xlink:title=" ">
<path fill="none" stroke="#63b8ff" d="M860.11,-399.08C864.96,-434.09 880.17,-507.41 925,-546.5 937.72,-557.59 956.28,-562.05 971.36,-563.75"/>
<polygon fill="#63b8ff" stroke="#63b8ff" points="863.59,-398.64 858.88,-389.15 856.64,-399.51 863.59,-398.64"/>
</a>
</g>
</g>
<!-- Node25 -->
<g id="Node000025" class="node">
<title>Node25</title>
<g id="a_Node000025"><a xlink:href="classPgp4CoreLiteTb.html" target="_top" xlink:title=" ">
<polygon fill="white" stroke="#bfbfbf" points="1044.5,-537 951.5,-537 951.5,-518 1044.5,-518 1044.5,-537"/>
<text text-anchor="middle" x="998" y="-525" font-family="Helvetica,sans-Serif" font-size="10.00">Pgp4CoreLiteTb</text>
</a>
</g>
</g>
<!-- Node1&#45;&gt;Node25 -->
<g id="edge35_Node000001_Node000025" class="edge">
<title>Node1&#45;&gt;Node25</title>
<g id="a_edge35_Node000001_Node000025"><a xlink:title=" ">
<path fill="none" stroke="#63b8ff" d="M862.61,-399.1C870.4,-427.81 888.98,-480.97 925,-509.5 932.57,-515.5 941.89,-519.53 951.28,-522.23"/>
<polygon fill="#63b8ff" stroke="#63b8ff" points="865.92,-397.9 860.06,-389.07 859.13,-399.63 865.92,-397.9"/>
</a>
</g>
</g>
<!-- Node26 -->
<g id="Node000026" class="node">
<title>Node26</title>
<g id="a_Node000026"><a xlink:href="classPgp4Tb.html" target="_top" xlink:title=" ">
<polygon fill="white" stroke="#bfbfbf" points="1024.5,-500 971.5,-500 971.5,-481 1024.5,-481 1024.5,-500"/>
<text text-anchor="middle" x="998" y="-488" font-family="Helvetica,sans-Serif" font-size="10.00">Pgp4Tb</text>
</a>
</g>
</g>
<!-- Node1&#45;&gt;Node26 -->
<g id="edge36_Node000001_Node000026" class="edge">
<title>Node1&#45;&gt;Node26</title>
<g id="a_edge36_Node000001_Node000026"><a xlink:title=" ">
<path fill="none" stroke="#63b8ff" d="M866.58,-398.42C877.22,-419.72 897.4,-453.79 925,-472.5 938.65,-481.75 956.65,-486.25 971.24,-488.44"/>
<polygon fill="#63b8ff" stroke="#63b8ff" points="869.6,-396.63 862.13,-389.12 863.28,-399.65 869.6,-396.63"/>
</a>
</g>
</g>
<!-- Node27 -->
<g id="Node000027" class="node">
<title>Node27</title>
<g id="a_Node000027"><a xlink:href="classPgp4TxLiteTb.html" target="_top" xlink:title=" ">
<polygon fill="white" stroke="#bfbfbf" points="1039.5,-463 956.5,-463 956.5,-444 1039.5,-444 1039.5,-463"/>
<text text-anchor="middle" x="998" y="-451" font-family="Helvetica,sans-Serif" font-size="10.00">Pgp4TxLiteTb</text>
</a>
</g>
</g>
<!-- Node1&#45;&gt;Node27 -->
<g id="edge37_Node000001_Node000027" class="edge">
<title>Node1&#45;&gt;Node27</title>
<g id="a_edge37_Node000001_Node000027"><a xlink:title=" ">
<path fill="none" stroke="#63b8ff" d="M874.05,-396.57C886.75,-409.1 905.53,-425.6 925,-435.5 934.65,-440.41 945.71,-444.03 956.23,-446.69"/>
<polygon fill="#63b8ff" stroke="#63b8ff" points="876.49,-394.05 866.98,-389.37 871.5,-398.96 876.49,-394.05"/>
</a>
</g>
</g>
<!-- Node28 -->
<g id="Node000028" class="node">
<title>Node28</title>
<g id="a_Node000028"><a xlink:href="classRssiInterleaveTb.html" target="_top" xlink:title=" ">
<polygon fill="white" stroke="#bfbfbf" points="1047,-426 949,-426 949,-407 1047,-407 1047,-426"/>
<text text-anchor="middle" x="998" y="-414" font-family="Helvetica,sans-Serif" font-size="10.00">RssiInterleaveTb</text>
</a>
</g>
</g>
<!-- Node1&#45;&gt;Node28 -->
<g id="edge38_Node000001_Node000028" class="edge">
<title>Node1&#45;&gt;Node28</title>
<g id="a_edge38_Node000001_Node000028"><a xlink:title=" ">
<path fill="none" stroke="#63b8ff" d="M899.09,-391.37C907.64,-393.78 916.6,-396.26 925,-398.5 935.58,-401.32 947.07,-404.26 957.71,-406.91"/>
<polygon fill="#63b8ff" stroke="#63b8ff" points="899.88,-387.96 889.3,-388.6 897.97,-394.69 899.88,-387.96"/>
</a>
</g>
</g>
<!-- Node29 -->
<g id="Node000029" class="node">
<title>Node29</title>
<g id="a_Node000029"><a xlink:href="classSsiFifoTb.html" target="_top" xlink:title=" ">
<polygon fill="white" stroke="#bfbfbf" points="1028.5,-389 967.5,-389 967.5,-370 1028.5,-370 1028.5,-389"/>
<text text-anchor="middle" x="998" y="-377" font-family="Helvetica,sans-Serif" font-size="10.00">SsiFifoTb</text>
</a>
</g>
</g>
<!-- Node1&#45;&gt;Node29 -->
<g id="edge39_Node000001_Node000029" class="edge">
<title>Node1&#45;&gt;Node29</title>
<g id="a_edge39_Node000001_Node000029"><a xlink:title=" ">
<path fill="none" stroke="#63b8ff" d="M899.21,-379.5C921.09,-379.5 947.49,-379.5 967.34,-379.5"/>
<polygon fill="#63b8ff" stroke="#63b8ff" points="899.19,-376 889.19,-379.5 899.19,-383 899.19,-376"/>
</a>
</g>
</g>
<!-- Node30 -->
<g id="Node000030" class="node">
<title>Node30</title>
<g id="a_Node000030"><a xlink:href="classSsiPrbsRateGen.html" target="_top" xlink:title=" ">
<polygon fill="white" stroke="#bfbfbf" points="1045,-352 951,-352 951,-333 1045,-333 1045,-352"/>
<text text-anchor="middle" x="998" y="-340" font-family="Helvetica,sans-Serif" font-size="10.00">SsiPrbsRateGen</text>
</a>
</g>
</g>
<!-- Node1&#45;&gt;Node30 -->
<g id="edge40_Node000001_Node000030" class="edge">
<title>Node1&#45;&gt;Node30</title>
<g id="a_edge40_Node000001_Node000030"><a xlink:title=" ">
<path fill="none" stroke="#63b8ff" d="M899.09,-367.63C907.64,-365.22 916.6,-362.74 925,-360.5 935.58,-357.68 947.07,-354.74 957.71,-352.09"/>
<polygon fill="#63b8ff" stroke="#63b8ff" points="897.97,-364.31 889.3,-370.4 899.88,-371.04 897.97,-364.31"/>
</a>
</g>
</g>
<!-- Node31 -->
<g id="Node000031" class="node">
<title>Node31</title>
<g id="a_Node000031"><a xlink:href="classSsiPrbsTb.html" target="_top" xlink:title=" ">
<polygon fill="white" stroke="#bfbfbf" points="1030,-315 966,-315 966,-296 1030,-296 1030,-315"/>
<text text-anchor="middle" x="998" y="-303" font-family="Helvetica,sans-Serif" font-size="10.00">SsiPrbsTb</text>
</a>
</g>
</g>
<!-- Node1&#45;&gt;Node31 -->
<g id="edge41_Node000001_Node000031" class="edge">
<title>Node1&#45;&gt;Node31</title>
<g id="a_edge41_Node000001_Node000031"><a xlink:title=" ">
<path fill="none" stroke="#63b8ff" d="M874.05,-362.43C886.75,-349.9 905.53,-333.4 925,-323.5 937.63,-317.07 952.7,-312.85 965.78,-310.12"/>
<polygon fill="#63b8ff" stroke="#63b8ff" points="871.5,-360.04 866.98,-369.63 876.49,-364.95 871.5,-360.04"/>
</a>
</g>
</g>
<!-- Node32 -->
<g id="Node000032" class="node">
<title>Node32</title>
<g id="a_Node000032"><a xlink:href="classEthMacPauseTb.html" target="_top" xlink:title=" ">
<polygon fill="white" stroke="#bfbfbf" points="1044.5,-278 951.5,-278 951.5,-259 1044.5,-259 1044.5,-278"/>
<text text-anchor="middle" x="998" y="-266" font-family="Helvetica,sans-Serif" font-size="10.00">EthMacPauseTb</text>
</a>
</g>
</g>
<!-- Node1&#45;&gt;Node32 -->
<g id="edge42_Node000001_Node000032" class="edge">
<title>Node1&#45;&gt;Node32</title>
<g id="a_edge42_Node000001_Node000032"><a xlink:title=" ">
<path fill="none" stroke="#63b8ff" d="M866.58,-360.58C877.22,-339.28 897.4,-305.21 925,-286.5 932.79,-281.22 941.99,-277.49 951.16,-274.85"/>
<polygon fill="#63b8ff" stroke="#63b8ff" points="863.28,-359.35 862.13,-369.88 869.6,-362.37 863.28,-359.35"/>
</a>
</g>
</g>
<!-- Node33 -->
<g id="Node000033" class="node">
<title>Node33</title>
<g id="a_Node000033"><a xlink:href="classRawEthFramerTb.html" target="_top" xlink:title=" ">
<polygon fill="white" stroke="#bfbfbf" points="1048,-241 948,-241 948,-222 1048,-222 1048,-241"/>
<text text-anchor="middle" x="998" y="-229" font-family="Helvetica,sans-Serif" font-size="10.00">RawEthFramerTb</text>
</a>
</g>
</g>
<!-- Node1&#45;&gt;Node33 -->
<g id="edge43_Node000001_Node000033" class="edge">
<title>Node1&#45;&gt;Node33</title>
<g id="a_edge43_Node000001_Node000033"><a xlink:title=" ">
<path fill="none" stroke="#63b8ff" d="M862.61,-359.9C870.4,-331.19 888.98,-278.03 925,-249.5 931.67,-244.22 939.68,-240.47 947.9,-237.8"/>
<polygon fill="#63b8ff" stroke="#63b8ff" points="859.13,-359.37 860.06,-369.93 865.92,-361.1 859.13,-359.37"/>
</a>
</g>
</g>
<!-- Node34 -->
<g id="Node000034" class="node">
<title>Node34</title>
<g id="a_Node000034"><a xlink:href="classUdpEngineTb.html" target="_top" xlink:title=" ">
<polygon fill="white" stroke="#bfbfbf" points="1038.5,-204 957.5,-204 957.5,-185 1038.5,-185 1038.5,-204"/>
<text text-anchor="middle" x="998" y="-192" font-family="Helvetica,sans-Serif" font-size="10.00">UdpEngineTb</text>
</a>
</g>
</g>
<!-- Node1&#45;&gt;Node34 -->
<g id="edge44_Node000001_Node000034" class="edge">
<title>Node1&#45;&gt;Node34</title>
<g id="a_edge44_Node000001_Node000034"><a xlink:title=" ">
<path fill="none" stroke="#63b8ff" d="M860.11,-359.92C864.96,-324.91 880.17,-251.59 925,-212.5 933.93,-204.71 945.75,-200.19 957.21,-197.6"/>
<polygon fill="#63b8ff" stroke="#63b8ff" points="856.64,-359.49 858.88,-369.85 863.59,-360.36 856.64,-359.49"/>
</a>
</g>
</g>
<!-- Node35 -->
<g id="Node000035" class="node">
<title>Node35</title>
<g id="a_Node000035"><a xlink:href="classHtspCaui4GtyTb.html" target="_top" xlink:title=" ">
<polygon fill="white" stroke="#bfbfbf" points="1046,-167 950,-167 950,-148 1046,-148 1046,-167"/>
<text text-anchor="middle" x="998" y="-155" font-family="Helvetica,sans-Serif" font-size="10.00">HtspCaui4GtyTb</text>
</a>
</g>
</g>
<!-- Node1&#45;&gt;Node35 -->
<g id="edge45_Node000001_Node000035" class="edge">
<title>Node1&#45;&gt;Node35</title>
<g id="a_edge45_Node000001_Node000035"><a xlink:title=" ">
<path fill="none" stroke="#63b8ff" d="M858.48,-359.66C860.59,-318.9 871.36,-225.39 925,-175.5 931.89,-169.09 940.7,-164.88 949.78,-162.12"/>
<polygon fill="#63b8ff" stroke="#63b8ff" points="854.98,-359.55 858.09,-369.68 861.98,-359.82 854.98,-359.55"/>
</a>
</g>
</g>
<!-- Node36 -->
<g id="Node000036" class="node">
<title>Node36</title>
<g id="a_Node000036"><a xlink:href="classpgp__test.html" target="_top" xlink:title=" ">
<polygon fill="white" stroke="#bfbfbf" points="1027.5,-130 968.5,-130 968.5,-111 1027.5,-111 1027.5,-130"/>
<text text-anchor="middle" x="998" y="-118" font-family="Helvetica,sans-Serif" font-size="10.00">pgp_test</text>
</a>
</g>
</g>
<!-- Node1&#45;&gt;Node36 -->
<g id="edge46_Node000001_Node000036" class="edge">
<title>Node1&#45;&gt;Node36</title>
<g id="a_edge46_Node000001_Node000036"><a xlink:title=" ">
<path fill="none" stroke="#63b8ff" d="M857.29,-359.32C856.83,-313.21 862.48,-199.4 925,-138.5 936.44,-127.35 953.69,-122.78 968.44,-121.03"/>
<polygon fill="#63b8ff" stroke="#63b8ff" points="853.8,-359.59 857.51,-369.51 860.79,-359.44 853.8,-359.59"/>
</a>
</g>
</g>
<!-- Node37 -->
<g id="Node000037" class="node">
<title>Node37</title>
<g id="a_Node000037"><a xlink:href="classPgp2fcLane__tb.html" target="_top" xlink:title=" ">
<polygon fill="white" stroke="#bfbfbf" points="1042,-93 954,-93 954,-74 1042,-74 1042,-93"/>
<text text-anchor="middle" x="998" y="-81" font-family="Helvetica,sans-Serif" font-size="10.00">Pgp2fcLane_tb</text>
</a>
</g>
</g>
<!-- Node1&#45;&gt;Node37 -->
<g id="edge47_Node000001_Node000037" class="edge">
<title>Node1&#45;&gt;Node37</title>
<g id="a_edge47_Node000001_Node000037"><a xlink:title=" ">
<path fill="none" stroke="#63b8ff" d="M860.11,-359.77C866.63,-302.6 888.21,-138.6 925,-101.5 932.71,-93.72 943.24,-89.13 953.86,-86.45"/>
<polygon fill="#63b8ff" stroke="#63b8ff" points="856.63,-359.38 859.01,-369.71 863.59,-360.15 856.63,-359.38"/>
</a>
</g>
</g>
<!-- Node38 -->
<g id="Node000038" class="node">
<title>Node38</title>
<g id="a_Node000038"><a xlink:href="classSaltCoreTb.html" target="_top" xlink:title=" ">
<polygon fill="white" stroke="#bfbfbf" points="1033,-56 963,-56 963,-37 1033,-37 1033,-56"/>
<text text-anchor="middle" x="998" y="-44" font-family="Helvetica,sans-Serif" font-size="10.00">SaltCoreTb</text>
</a>
</g>
</g>
<!-- Node1&#45;&gt;Node38 -->
<g id="edge48_Node000001_Node000038" class="edge">
<title>Node1&#45;&gt;Node38</title>
<g id="a_edge48_Node000001_Node000038"><a xlink:title=" ">
<path fill="none" stroke="#63b8ff" d="M859.52,-359.65C864.68,-297.37 883.6,-107.39 925,-64.5 934.75,-54.39 949.25,-49.63 962.69,-47.49"/>
<polygon fill="#63b8ff" stroke="#63b8ff" points="856.02,-359.48 858.71,-369.73 863,-360.04 856.02,-359.48"/>
</a>
</g>
</g>
<!-- Node39 -->
<g id="Node000039" class="node">
<title>Node39</title>
<g id="a_Node000039"><a xlink:href="classSelectioDeserUltraScaleTb.html" target="_top" xlink:title=" ">
<polygon fill="white" stroke="#bfbfbf" points="1071,-19 925,-19 925,0 1071,0 1071,-19"/>
<text text-anchor="middle" x="998" y="-7" font-family="Helvetica,sans-Serif" font-size="10.00">SelectioDeserUltraScaleTb</text>
</a>
</g>
</g>
<!-- Node1&#45;&gt;Node39 -->
<g id="edge49_Node000001_Node000039" class="edge">
<title>Node1&#45;&gt;Node39</title>
<g id="a_edge49_Node000001_Node000039"><a xlink:title=" ">
<path fill="none" stroke="#63b8ff" d="M859.02,-359.98C862.88,-293.36 878.86,-76.34 925,-27.5 928.19,-24.13 931.9,-21.35 935.93,-19.06"/>
<polygon fill="#63b8ff" stroke="#63b8ff" points="855.52,-359.8 858.46,-369.98 862.51,-360.18 855.52,-359.8"/>
</a>
</g>
</g>
<!-- Node2 -->
<g id="Node000002" class="node">
<title>Node2</title>
<g id="a_Node000002"><a xlink:href="classAxiStreamFifoV2.html" target="_top" xlink:title=" ">
<polygon fill="white" stroke="#bfbfbf" points="789,-389 691,-389 691,-370 789,-370 789,-389"/>
<text text-anchor="middle" x="740" y="-377" font-family="Helvetica,sans-Serif" font-size="10.00">AxiStreamFifoV2</text>
</a>
</g>
</g>
<!-- Node2&#45;&gt;Node1 -->
<g id="edge1_Node000001_Node000002" class="edge">
<title>Node2&#45;&gt;Node1</title>
<g id="a_edge1_Node000001_Node000002"><a xlink:title=" ">
<path fill="none" stroke="#63b8ff" d="M799.37,-379.5C808.14,-379.5 816.89,-379.5 824.79,-379.5"/>
<polygon fill="#63b8ff" stroke="#63b8ff" points="799.1,-376 789.1,-379.5 799.1,-383 799.1,-376"/>
</a>
</g>
</g>
<!-- Node3 -->
<g id="Node000003" class="node">
<title>Node3</title>
<g id="a_Node000003"><a xlink:href="classAxiStreamGearbox.html" target="_top" xlink:title=" ">
<polygon fill="white" stroke="#bfbfbf" points="655,-446 546,-446 546,-427 655,-427 655,-446"/>
<text text-anchor="middle" x="600.5" y="-434" font-family="Helvetica,sans-Serif" font-size="10.00">AxiStreamGearbox</text>
</a>
</g>
</g>
<!-- Node3&#45;&gt;Node2 -->
<g id="edge2_Node000002_Node000003" class="edge">
<title>Node3&#45;&gt;Node2</title>
<g id="a_edge2_Node000002_Node000003"><a xlink:title=" ">
<path fill="none" stroke="#63b8ff" d="M634.02,-423.02C659.2,-412.58 693.48,-398.37 715.91,-389.07"/>
<polygon fill="#63b8ff" stroke="#63b8ff" points="632.41,-419.9 624.51,-426.96 635.09,-426.36 632.41,-419.9"/>
</a>
</g>
</g>
<!-- Node4 -->
<g id="Node000004" class="node">
<title>Node4</title>
<g id="a_Node000004"><a xlink:href="classAxiStreamResize.html" target="_top" xlink:title=" ">
<polygon fill="white" stroke="#bfbfbf" points="510,-484 410,-484 410,-465 510,-465 510,-484"/>
<text text-anchor="middle" x="460" y="-472" font-family="Helvetica,sans-Serif" font-size="10.00">AxiStreamResize</text>
</a>
</g>
</g>
<!-- Node4&#45;&gt;Node3 -->
<g id="edge3_Node000003_Node000004" class="edge">
<title>Node4&#45;&gt;Node3</title>
<g id="a_edge3_Node000003_Node000004"><a xlink:title=" ">
<path fill="none" stroke="#63b8ff" d="M505.63,-462.25C524.72,-457.02 546.68,-450.99 564.56,-446.09"/>
<polygon fill="#63b8ff" stroke="#63b8ff" points="504.67,-458.89 495.95,-464.91 506.52,-465.64 504.67,-458.89"/>
</a>
</g>
</g>
<!-- Node5 -->
<g id="Node000005" class="node">
<title>Node5</title>
<g id="a_Node000005"><a xlink:href="classAxiStreamPipeline.html" target="_top" xlink:title=" ">
<polygon fill="white" stroke="#bfbfbf" points="374,-465 267,-465 267,-446 374,-446 374,-465"/>
<text text-anchor="middle" x="320.5" y="-453" font-family="Helvetica,sans-Serif" font-size="10.00">AxiStreamPipeline</text>
</a>
</g>
</g>
<!-- Node5&#45;&gt;Node2 -->
<g id="edge28_Node000002_Node000005" class="edge">
<title>Node5&#45;&gt;Node2</title>
<g id="a_edge28_Node000002_Node000005"><a xlink:title=" ">
<path fill="none" stroke="#63b8ff" d="M380.7,-444.02C390.48,-442.16 400.52,-440.26 410,-438.5 509.7,-419.99 626.59,-399.26 690.74,-387.96"/>
<polygon fill="#63b8ff" stroke="#63b8ff" points="379.8,-440.63 370.63,-445.95 381.11,-447.51 379.8,-440.63"/>
</a>
</g>
</g>
<!-- Node5&#45;&gt;Node3 -->
<g id="edge5_Node000003_Node000005" class="edge">
<title>Node5&#45;&gt;Node3</title>
<g id="a_edge5_Node000003_Node000005"><a xlink:title=" ">
<path fill="none" stroke="#63b8ff" d="M384.2,-451.21C432.81,-447.89 499.47,-443.34 545.68,-440.18"/>
<polygon fill="#63b8ff" stroke="#63b8ff" points="383.85,-447.73 374.12,-451.9 384.33,-454.71 383.85,-447.73"/>
</a>
</g>
</g>
<!-- Node5&#45;&gt;Node4 -->
<g id="edge4_Node000004_Node000005" class="edge">
<title>Node5&#45;&gt;Node4</title>
<g id="a_edge4_Node000004_Node000005"><a xlink:title=" ">
<path fill="none" stroke="#63b8ff" d="M384.23,-464.17C392.79,-465.35 401.48,-466.55 409.76,-467.7"/>
<polygon fill="#63b8ff" stroke="#63b8ff" points="384.65,-460.69 374.27,-462.79 383.69,-467.63 384.65,-460.69"/>
</a>
</g>
</g>
<!-- Node6 -->
<g id="Node000006" class="node">
<title>Node6</title>
<g id="a_Node000006"><a xlink:href="classFifoCascade.html" target="_top" xlink:title=" ">
<polygon fill="white" stroke="#bfbfbf" points="638.5,-370 562.5,-370 562.5,-351 638.5,-351 638.5,-370"/>
<text text-anchor="middle" x="600.5" y="-358" font-family="Helvetica,sans-Serif" font-size="10.00">FifoCascade</text>
</a>
</g>
</g>
<!-- Node6&#45;&gt;Node2 -->
<g id="edge6_Node000002_Node000006" class="edge">
<title>Node6&#45;&gt;Node2</title>
<g id="a_edge6_Node000002_Node000006"><a xlink:title=" ">
<path fill="none" stroke="#63b8ff" d="M648.82,-367.04C662.42,-368.92 677.25,-370.97 690.89,-372.85"/>
<polygon fill="#63b8ff" stroke="#63b8ff" points="649.09,-363.54 638.71,-365.64 648.14,-370.48 649.09,-363.54"/>
</a>
</g>
</g>
<!-- Node7 -->
<g id="Node000007" class="node">
<title>Node7</title>
<g id="a_Node000007"><a xlink:href="classFifo.html" target="_top" xlink:title=" ">
<polygon fill="white" stroke="#bfbfbf" points="477.5,-370 442.5,-370 442.5,-351 477.5,-351 477.5,-370"/>
<text text-anchor="middle" x="460" y="-358" font-family="Helvetica,sans-Serif" font-size="10.00">Fifo</text>
</a>
</g>
</g>
<!-- Node7&#45;&gt;Node6 -->
<g id="edge7_Node000006_Node000007" class="edge">
<title>Node7&#45;&gt;Node6</title>
<g id="a_edge7_Node000006_Node000007"><a xlink:title=" ">
<path fill="none" stroke="#63b8ff" d="M487.94,-360.5C509.16,-360.5 538.96,-360.5 562.43,-360.5"/>
<polygon fill="#63b8ff" stroke="#63b8ff" points="487.71,-357 477.71,-360.5 487.71,-364 487.71,-357"/>
</a>
</g>
</g>
<!-- Node8 -->
<g id="Node000008" class="node">
<title>Node8</title>
<g id="a_Node000008"><a xlink:href="classFifoXpm.html" target="_top" xlink:title=" ">
<polygon fill="white" stroke="#bfbfbf" points="349,-315 292,-315 292,-296 349,-296 349,-315"/>
<text text-anchor="middle" x="320.5" y="-303" font-family="Helvetica,sans-Serif" font-size="10.00">FifoXpm</text>
</a>
</g>
</g>
<!-- Node8&#45;&gt;Node7 -->
<g id="edge8_Node000007_Node000008" class="edge">
<title>Node8&#45;&gt;Node7</title>
<g id="a_edge8_Node000007_Node000008"><a xlink:title=" ">
<path fill="none" stroke="#63b8ff" d="M358.85,-317.89C363.97,-319.71 369.13,-321.61 374,-323.5 398,-332.82 425.21,-344.94 442.23,-352.73"/>
<polygon fill="#63b8ff" stroke="#63b8ff" points="359.77,-314.51 349.17,-314.52 357.46,-321.12 359.77,-314.51"/>
</a>
</g>
</g>
<!-- Node9 -->
<g id="Node000009" class="node">
<title>Node9</title>
<g id="a_Node000009"><a xlink:href="classRstSync.html" target="_top" xlink:title=" ">
<polygon fill="white" stroke="#bfbfbf" points="201.5,-278 145.5,-278 145.5,-259 201.5,-259 201.5,-278"/>
<text text-anchor="middle" x="173.5" y="-266" font-family="Helvetica,sans-Serif" font-size="10.00">RstSync</text>
</a>
</g>
</g>
<!-- Node9&#45;&gt;Node8 -->
<g id="edge9_Node000008_Node000009" class="edge">
<title>Node9&#45;&gt;Node8</title>
<g id="a_edge9_Node000008_Node000009"><a xlink:title=" ">
<path fill="none" stroke="#63b8ff" d="M211.64,-277.98C236.66,-284.36 269.11,-292.64 291.86,-298.45"/>
<polygon fill="#63b8ff" stroke="#63b8ff" points="212.33,-274.54 201.77,-275.46 210.6,-281.32 212.33,-274.54"/>
</a>
</g>
</g>
<!-- Node13 -->
<g id="Node000013" class="node">
<title>Node13</title>
<g id="a_Node000013"><a xlink:href="classFifoAsync.html" target="_top" xlink:title=" ">
<polygon fill="white" stroke="#bfbfbf" points="352.5,-390 288.5,-390 288.5,-371 352.5,-371 352.5,-390"/>
<text text-anchor="middle" x="320.5" y="-378" font-family="Helvetica,sans-Serif" font-size="10.00">FifoAsync</text>
</a>
</g>
</g>
<!-- Node9&#45;&gt;Node13 -->
<g id="edge15_Node000013_Node000009" class="edge">
<title>Node9&#45;&gt;Node13</title>
<g id="a_edge15_Node000013_Node000009"><a xlink:title=" ">
<path fill="none" stroke="#63b8ff" d="M211.36,-275.49C218.44,-278.09 225.38,-281.64 231,-286.5 258.66,-310.43 240.02,-335.81 267,-360.5 273.04,-366.03 280.78,-370.08 288.43,-373.04"/>
<polygon fill="#63b8ff" stroke="#63b8ff" points="212.34,-272.13 201.75,-272.52 210.27,-278.82 212.34,-272.13"/>
</a>
</g>
</g>
<!-- Node10 -->
<g id="Node000010" class="node">
<title>Node10</title>
<g id="a_Node000010"><a xlink:href="classSynchronizer.html" target="_top" xlink:title=" ">
<polygon fill="white" stroke="#bfbfbf" points="80,-278 0,-278 0,-259 80,-259 80,-278"/>
<text text-anchor="middle" x="40" y="-266" font-family="Helvetica,sans-Serif" font-size="10.00">Synchronizer</text>
</a>
</g>
</g>
<!-- Node10&#45;&gt;Node2 -->
<g id="edge27_Node000002_Node000010" class="edge">
<title>Node10&#45;&gt;Node2</title>
<g id="a_edge27_Node000002_Node000010"><a xlink:title=" ">
<path fill="none" stroke="#63b8ff" d="M83.76,-256.45C94.24,-253.84 105.47,-251.31 116,-249.5 205.52,-234.08 228.66,-230.5 319.5,-230.5 319.5,-230.5 319.5,-230.5 461,-230.5 579.28,-230.5 695.87,-336.58 729.42,-369.72"/>
<polygon fill="#63b8ff" stroke="#63b8ff" points="82.8,-253.08 73.99,-258.97 84.55,-259.86 82.8,-253.08"/>
</a>
</g>
</g>
<!-- Node10&#45;&gt;Node9 -->
<g id="edge10_Node000009_Node000010" class="edge">
<title>Node10&#45;&gt;Node9</title>
<g id="a_edge10_Node000009_Node000010"><a xlink:title=" ">
<path fill="none" stroke="#63b8ff" d="M90.24,-268.5C108.93,-268.5 129.52,-268.5 145.43,-268.5"/>
<polygon fill="#63b8ff" stroke="#63b8ff" points="90.1,-265 80.1,-268.5 90.1,-272 90.1,-265"/>
</a>
</g>
</g>
<!-- Node10&#45;&gt;Node13 -->
<g id="edge17_Node000013_Node000010" class="edge">
<title>Node10&#45;&gt;Node13</title>
<g id="a_edge17_Node000013_Node000010"><a xlink:title=" ">
<path fill="none" stroke="#63b8ff" d="M50.26,-287.08C62.19,-308.82 85.14,-343.94 116,-360.5 171.06,-390.04 246.6,-388.41 288.43,-384.51"/>
<polygon fill="#63b8ff" stroke="#63b8ff" points="53.32,-285.37 45.56,-278.15 47.12,-288.63 53.32,-285.37"/>
</a>
</g>
</g>
<!-- Node11 -->
<g id="Node000011" class="node">
<title>Node11</title>
<g id="a_Node000011"><a xlink:href="classFifoOutputPipeline.html" target="_top" xlink:title=" ">
<polygon fill="white" stroke="#bfbfbf" points="227,-315 120,-315 120,-296 227,-296 227,-315"/>
<text text-anchor="middle" x="173.5" y="-303" font-family="Helvetica,sans-Serif" font-size="10.00">FifoOutputPipeline</text>
</a>
</g>
</g>
<!-- Node11&#45;&gt;Node8 -->
<g id="edge11_Node000008_Node000011" class="edge">
<title>Node11&#45;&gt;Node8</title>
<g id="a_edge11_Node000008_Node000011"><a xlink:title=" ">
<path fill="none" stroke="#63b8ff" d="M237.4,-305.5C256.43,-305.5 276.36,-305.5 291.81,-305.5"/>
<polygon fill="#63b8ff" stroke="#63b8ff" points="237.26,-302 227.26,-305.5 237.26,-309 237.26,-302"/>
</a>
</g>
</g>
<!-- Node12 -->
<g id="Node000012" class="node">
<title>Node12</title>
<g id="a_Node000012"><a xlink:href="classFifoAlteraMf.html" target="_top" xlink:title=" ">
<polygon fill="white" stroke="#bfbfbf" points="359,-352 282,-352 282,-333 359,-333 359,-352"/>
<text text-anchor="middle" x="320.5" y="-340" font-family="Helvetica,sans-Serif" font-size="10.00">FifoAlteraMf</text>
</a>
</g>
</g>
<!-- Node11&#45;&gt;Node12 -->
<g id="edge13_Node000012_Node000011" class="edge">
<title>Node11&#45;&gt;Node12</title>
<g id="a_edge13_Node000012_Node000011"><a xlink:title=" ">
<path fill="none" stroke="#63b8ff" d="M221.77,-317.56C241.31,-322.55 263.65,-328.25 282.03,-332.94"/>
<polygon fill="#63b8ff" stroke="#63b8ff" points="222.4,-314.11 211.84,-315.03 220.67,-320.89 222.4,-314.11"/>
</a>
</g>
</g>
<!-- Node11&#45;&gt;Node13 -->
<g id="edge21_Node000013_Node000011" class="edge">
<title>Node11&#45;&gt;Node13</title>
<g id="a_edge21_Node000013_Node000011"><a xlink:title=" ">
<path fill="none" stroke="#63b8ff" d="M222.7,-319.01C225.58,-320.38 228.37,-321.87 231,-323.5 250.51,-335.57 247.83,-347.9 267,-360.5 273.52,-364.79 281.09,-368.35 288.42,-371.22"/>
<polygon fill="#63b8ff" stroke="#63b8ff" points="223.88,-315.71 213.31,-315.06 221.17,-322.17 223.88,-315.71"/>
</a>
</g>
</g>
<!-- Node18 -->
<g id="Node000018" class="node">
<title>Node18</title>
<g id="a_Node000018"><a xlink:href="classFifoSync.html" target="_top" xlink:title=" ">
<polygon fill="white" stroke="#bfbfbf" points="349.5,-428 291.5,-428 291.5,-409 349.5,-409 349.5,-428"/>
<text text-anchor="middle" x="320.5" y="-416" font-family="Helvetica,sans-Serif" font-size="10.00">FifoSync</text>
</a>
</g>
</g>
<!-- Node11&#45;&gt;Node18 -->
<g id="edge26_Node000018_Node000011" class="edge">
<title>Node11&#45;&gt;Node18</title>
<g id="a_edge26_Node000018_Node000011"><a xlink:title=" ">
<path fill="none" stroke="#63b8ff" d="M226.79,-320.23C228.26,-321.25 229.67,-322.34 231,-323.5 259.14,-348.1 239.34,-374.36 267,-399.5 273.81,-405.69 282.8,-409.91 291.41,-412.76"/>
<polygon fill="#63b8ff" stroke="#63b8ff" points="228.27,-317.04 217.85,-315.13 224.8,-323.12 228.27,-317.04"/>
</a>
</g>
</g>
<!-- Node12&#45;&gt;Node7 -->
<g id="edge12_Node000007_Node000012" class="edge">
<title>Node12&#45;&gt;Node7</title>
<g id="a_edge12_Node000007_Node000012"><a xlink:title=" ">
<path fill="none" stroke="#63b8ff" d="M369.27,-348.75C394.63,-352.07 424.2,-355.94 442.26,-358.31"/>
<polygon fill="#63b8ff" stroke="#63b8ff" points="369.44,-345.25 359.07,-347.42 368.53,-352.19 369.44,-345.25"/>
</a>
</g>
</g>
<!-- Node13&#45;&gt;Node7 -->
<g id="edge14_Node000007_Node000013" class="edge">
<title>Node13&#45;&gt;Node7</title>
<g id="a_edge14_Node000007_Node000013"><a xlink:title=" ">
<path fill="none" stroke="#63b8ff" d="M362.89,-374.48C389.45,-370.62 422.53,-365.81 442.14,-362.95"/>
<polygon fill="#63b8ff" stroke="#63b8ff" points="362.09,-371.06 352.7,-375.96 363.1,-377.99 362.09,-371.06"/>
</a>
</g>
</g>
<!-- Node14 -->
<g id="Node000014" class="node">
<title>Node14</title>
<g id="a_Node000014"><a xlink:href="classSynchronizerVector.html" target="_top" xlink:title=" ">
<polygon fill="white" stroke="#bfbfbf" points="228.5,-352 118.5,-352 118.5,-333 228.5,-333 228.5,-352"/>
<text text-anchor="middle" x="173.5" y="-340" font-family="Helvetica,sans-Serif" font-size="10.00">SynchronizerVector</text>
</a>
</g>
</g>
<!-- Node14&#45;&gt;Node13 -->
<g id="edge16_Node000013_Node000014" class="edge">
<title>Node14&#45;&gt;Node13</title>
<g id="a_edge16_Node000013_Node000014"><a xlink:title=" ">
<path fill="none" stroke="#63b8ff" d="M220.91,-354.66C242.94,-360.44 268.68,-367.18 288.33,-372.33"/>
<polygon fill="#63b8ff" stroke="#63b8ff" points="221.65,-351.24 211.09,-352.09 219.88,-358.01 221.65,-351.24"/>
</a>
</g>
</g>
<!-- Node15 -->
<g id="Node000015" class="node">
<title>Node15</title>
<g id="a_Node000015"><a xlink:href="classFifoWrFsm.html" target="_top" xlink:title=" ">
<polygon fill="white" stroke="#bfbfbf" points="208,-428 139,-428 139,-409 208,-409 208,-428"/>
<text text-anchor="middle" x="173.5" y="-416" font-family="Helvetica,sans-Serif" font-size="10.00">FifoWrFsm</text>
</a>
</g>
</g>
<!-- Node15&#45;&gt;Node13 -->
<g id="edge18_Node000013_Node000015" class="edge">
<title>Node15&#45;&gt;Node13</title>
<g id="a_edge18_Node000013_Node000015"><a xlink:title=" ">
<path fill="none" stroke="#63b8ff" d="M217.82,-407.15C240.39,-401.23 267.49,-394.13 288.04,-388.75"/>
<polygon fill="#63b8ff" stroke="#63b8ff" points="216.92,-403.77 208.13,-409.69 218.69,-410.54 216.92,-403.77"/>
</a>
</g>
</g>
<!-- Node15&#45;&gt;Node18 -->
<g id="edge23_Node000018_Node000015" class="edge">
<title>Node15&#45;&gt;Node18</title>
<g id="a_edge23_Node000018_Node000015"><a xlink:title=" ">
<path fill="none" stroke="#63b8ff" d="M218.31,-418.5C242.04,-418.5 270.67,-418.5 291.41,-418.5"/>
<polygon fill="#63b8ff" stroke="#63b8ff" points="218.13,-415 208.13,-418.5 218.13,-422 218.13,-415"/>
</a>
</g>
</g>
<!-- Node16 -->
<g id="Node000016" class="node">
<title>Node16</title>
<g id="a_Node000016"><a xlink:href="classFifoRdFsm.html" target="_top" xlink:title=" ">
<polygon fill="white" stroke="#bfbfbf" points="207.5,-502 139.5,-502 139.5,-483 207.5,-483 207.5,-502"/>
<text text-anchor="middle" x="173.5" y="-490" font-family="Helvetica,sans-Serif" font-size="10.00">FifoRdFsm</text>
</a>
</g>
</g>
<!-- Node16&#45;&gt;Node13 -->
<g id="edge19_Node000013_Node000016" class="edge">
<title>Node16&#45;&gt;Node13</title>
<g id="a_edge19_Node000013_Node000016"><a xlink:title=" ">
<path fill="none" stroke="#63b8ff" d="M217.3,-483.07C222.25,-480.8 226.97,-477.99 231,-474.5 258.66,-450.57 240.02,-425.19 267,-400.5 273.04,-394.97 280.78,-390.92 288.43,-387.96"/>
<polygon fill="#63b8ff" stroke="#63b8ff" points="215.67,-479.95 207.59,-486.8 218.18,-486.48 215.67,-479.95"/>
</a>
</g>
</g>
<!-- Node16&#45;&gt;Node18 -->
<g id="edge24_Node000018_Node000016" class="edge">
<title>Node16&#45;&gt;Node18</title>
<g id="a_edge24_Node000018_Node000016"><a xlink:title=" ">
<path fill="none" stroke="#63b8ff" d="M217.06,-481.47C221.92,-479.48 226.68,-477.17 231,-474.5 250.51,-462.43 247.72,-449.94 267,-437.5 274.41,-432.72 283.19,-428.93 291.42,-426.04"/>
<polygon fill="#63b8ff" stroke="#63b8ff" points="215.85,-478.19 207.67,-484.91 218.26,-484.76 215.85,-478.19"/>
</a>
</g>
</g>
<!-- Node17 -->
<g id="Node000017" class="node">
<title>Node17</title>
<g id="a_Node000017"><a xlink:href="classSimpleDualPortRam.html" target="_top" xlink:title=" ">
<polygon fill="white" stroke="#bfbfbf" points="231,-465 116,-465 116,-446 231,-446 231,-465"/>
<text text-anchor="middle" x="173.5" y="-453" font-family="Helvetica,sans-Serif" font-size="10.00">SimpleDualPortRam</text>
</a>
</g>
</g>
<!-- Node17&#45;&gt;Node13 -->
<g id="edge20_Node000013_Node000017" class="edge">
<title>Node17&#45;&gt;Node13</title>
<g id="a_edge20_Node000013_Node000017"><a xlink:title=" ">
<path fill="none" stroke="#63b8ff" d="M222.7,-441.99C225.58,-440.62 228.37,-439.13 231,-437.5 250.51,-425.43 247.83,-413.1 267,-400.5 273.52,-396.21 281.09,-392.65 288.42,-389.78"/>
<polygon fill="#63b8ff" stroke="#63b8ff" points="221.17,-438.83 213.31,-445.94 223.88,-445.29 221.17,-438.83"/>
</a>
</g>
</g>
<!-- Node17&#45;&gt;Node18 -->
<g id="edge25_Node000018_Node000017" class="edge">
<title>Node17&#45;&gt;Node18</title>
<g id="a_edge25_Node000018_Node000017"><a xlink:title=" ">
<path fill="none" stroke="#63b8ff" d="M221.77,-443.44C244.8,-437.56 271.7,-430.7 291.45,-425.66"/>
<polygon fill="#63b8ff" stroke="#63b8ff" points="220.67,-440.11 211.84,-445.97 222.4,-446.89 220.67,-440.11"/>
</a>
</g>
</g>
<!-- Node18&#45;&gt;Node7 -->
<g id="edge22_Node000007_Node000018" class="edge">
<title>Node18&#45;&gt;Node7</title>
<g id="a_edge22_Node000007_Node000018"><a xlink:title=" ">
<path fill="none" stroke="#63b8ff" d="M358.86,-405.41C363.98,-403.49 369.14,-401.49 374,-399.5 398.04,-389.65 425.23,-376.88 442.25,-368.69"/>
<polygon fill="#63b8ff" stroke="#63b8ff" points="357.36,-402.23 349.18,-408.97 359.78,-408.8 357.36,-402.23"/>
</a>
</g>
</g>
</g>
</svg>

<g id="navigator" transform="translate(0 0)" fill="#404254">
  <rect fill="#f2f5e9" fill-opacity="0.5" stroke="#606060" stroke-width=".5" x="0" y="0" width="60" height="60"/>
  <use id="zoomplus" xlink:href="#zoomPlus" x="17" y="9" onmousedown="handleZoom(evt,'in')"/>
  <use id="zoomminus" xlink:href="#zoomMin" x="42" y="9" onmousedown="handleZoom(evt,'out')"/>
  <use id="reset" xlink:href="#resetDef" x="30" y="36" onmousedown="handleReset()"/>
   <use id="arrowup" xlink:href="#arrowUp" x="0" y="0" onmousedown="handlePan(0,-1)"/>
  <use id="arrowright" xlink:href="#arrowRight" x="0" y="0" onmousedown="handlePan(1,0)"/>
  <use id="arrowdown" xlink:href="#arrowDown" x="0" y="0" onmousedown="handlePan(0,1)"/>
  <use id="arrowleft" xlink:href="#arrowLeft" x="0" y="0" onmousedown="handlePan(-1,0)"/>
</g>
<svg viewBox="0 0 15 15" width="100%" height="30px" preserveAspectRatio="xMaxYMin meet">
 <g id="arrow_out" transform="scale(0.3 0.3)">
  <a xlink:href="classSsiPrbsTx__inherit__graph_org.svg" target="_base">
   <rect id="button" ry="5" rx="5" y="6" x="6" height="38" width="38"
        fill="#f2f5e9" fill-opacity="0.5" stroke="#606060" stroke-width="1.0"/>
   <path id="arrow"
     d="M 11.500037,31.436501 C 11.940474,20.09759 22.043105,11.32322 32.158766,21.979434 L 37.068811,17.246167 C 37.068811,17.246167 37.088388,32 37.088388,32 L 22.160133,31.978069 C 22.160133,31.978069 26.997745,27.140456 26.997745,27.140456 C 18.528582,18.264221 13.291696,25.230495 11.500037,31.436501 z"
     style="fill:#404040;"/>
  </a>
 </g>
</svg>

<style type='text/css'>
<![CDATA[
[data-mouse-over-selected='false'] { opacity: 0.7; }
[data-mouse-over-selected='true']  { opacity: 1.0; }
]]>
</style>
<script type="application/ecmascript"><![CDATA[
document.addEventListener('DOMContentLoaded', (event) => {
  highlightEdges();
  highlightAdjacentNodes();
});
]]></script>
</svg>
