<?xml version="1.0" encoding="UTF-8" standalone="no"?>
<!DOCTYPE svg PUBLIC "-//W3C//DTD SVG 1.1//EN"
 "http://www.w3.org/Graphics/SVG/1.1/DTD/svg11.dtd">
<!-- Generated by graphviz version 2.43.0 (0)
 -->
<!-- Title: AxiStreamMux Pages: 1 -->
<!--zoomable 788 -->
<svg id="main" version="1.1" xmlns="http://www.w3.org/2000/svg" xmlns:xlink="http://www.w3.org/1999/xlink" xml:space="preserve" onload="init(evt)">
<style type="text/css"><![CDATA[
.edge:hover path { stroke: red; }
.edge:hover polygon { stroke: red; fill: red; }
]]></style>
<script type="text/javascript"><![CDATA[
var edges = document.getElementsByTagName('g');
if (edges && edges.length) {
  for (var i=0;i<edges.length;i++) {
    if (edges[i].id.substr(0,4)=='edge') {
      edges[i].setAttribute('class','edge');
    }
  }
}
]]></script>
        <defs>
                <circle id="rim" cx="0" cy="0" r="7"/>
                <circle id="rim2" cx="0" cy="0" r="3.5"/>
                <g id="zoomPlus">
                        <use xlink:href="#rim" fill="#404040">
                                <set attributeName="fill" to="#808080" begin="zoomplus.mouseover" end="zoomplus.mouseout"/>
                        </use>
                        <path d="M-4,0h8M0,-4v8" fill="none" stroke="white" stroke-width="1.5" pointer-events="none"/>
                </g>
                <g id="zoomMin">
                        <use xlink:href="#rim" fill="#404040">
                                <set attributeName="fill" to="#808080" begin="zoomminus.mouseover" end="zoomminus.mouseout"/>
                        </use>
                        <path d="M-4,0h8" fill="none" stroke="white" stroke-width="1.5" pointer-events="none"/>
                </g>
                <g id="dirArrow">
                        <path fill="none" stroke="white" stroke-width="1.5" d="M0,-3.0v7 M-2.5,-0.5L0,-3.0L2.5,-0.5"/>
                </g>
               <g id="resetDef">
                       <use xlink:href="#rim2" fill="#404040">
                               <set attributeName="fill" to="#808080" begin="reset.mouseover" end="reset.mouseout"/>
                       </use>
               </g>
        </defs>

<script type="text/javascript">
var viewWidth = 841;
var viewHeight = 788;
var sectionId = 'dynsection-0';
</script>
<script xlink:href="svgpan.js"/>
<svg id="graph" class="graph">
<g id="viewport">
<title>AxiStreamMux</title>
<polygon fill="white" stroke="transparent" points="-4,4 -4,-784 837,-784 837,4 -4,4"/>
<!-- Node1 -->
<g id="node1" class="node">
<title>Node1</title>
<g id="a_node1"><a xlink:title=" ">
<polygon fill="#bfbfbf" stroke="black" points="143,-532.5 143,-551.5 232,-551.5 232,-532.5 143,-532.5"/>
<text text-anchor="middle" x="187.5" y="-539.5" font-family="Helvetica,sans-Serif" font-size="10.00">AxiStreamMux</text>
</a>
</g>
</g>
<!-- Node3 -->
<g id="node3" class="node">
<title>Node3</title>
<g id="a_node3"><a xlink:href="classAxiRssiCoreWrapper.html" target="_top" xlink:title=" ">
<polygon fill="white" stroke="black" points="277.5,-760.5 277.5,-779.5 393.5,-779.5 393.5,-760.5 277.5,-760.5"/>
<text text-anchor="middle" x="335.5" y="-767.5" font-family="Helvetica,sans-Serif" font-size="10.00">AxiRssiCoreWrapper</text>
</a>
</g>
</g>
<!-- Node1&#45;&gt;Node3 -->
<g id="edge2" class="edge">
<title>Node1&#45;&gt;Node3</title>
<path fill="none" stroke="midnightblue" d="M190.21,-561.67C194.88,-602.97 211.54,-699.16 268,-751 272.25,-754.9 277.24,-758 282.54,-760.47"/>
<polygon fill="midnightblue" stroke="midnightblue" points="193.68,-561.16 189.19,-551.56 186.72,-561.86 193.68,-561.16"/>
</g>
<!-- Node5 -->
<g id="node5" class="node">
<title>Node5</title>
<g id="a_node5"><a xlink:href="classAxiStreamMuxTb.html" target="_top" xlink:title=" ">
<polygon fill="white" stroke="black" points="285,-722.5 285,-741.5 386,-741.5 386,-722.5 285,-722.5"/>
<text text-anchor="middle" x="335.5" y="-729.5" font-family="Helvetica,sans-Serif" font-size="10.00">AxiStreamMuxTb</text>
</a>
</g>
</g>
<!-- Node1&#45;&gt;Node5 -->
<g id="edge4" class="edge">
<title>Node1&#45;&gt;Node5</title>
<path fill="none" stroke="midnightblue" d="M192.15,-561.96C199.73,-597.66 220.61,-672.51 268,-713 272.93,-717.21 278.74,-720.49 284.84,-723.05"/>
<polygon fill="midnightblue" stroke="midnightblue" points="195.52,-560.96 190.14,-551.83 188.65,-562.32 195.52,-560.96"/>
</g>
<!-- Node6 -->
<g id="node6" class="node">
<title>Node6</title>
<g id="a_node6"><a xlink:href="classAxiStreamPacketizer2Tb.html" target="_top" xlink:title=" ">
<polygon fill="white" stroke="black" points="268,-684.5 268,-703.5 403,-703.5 403,-684.5 268,-684.5"/>
<text text-anchor="middle" x="335.5" y="-691.5" font-family="Helvetica,sans-Serif" font-size="10.00">AxiStreamPacketizer2Tb</text>
</a>
</g>
</g>
<!-- Node1&#45;&gt;Node6 -->
<g id="edge5" class="edge">
<title>Node1&#45;&gt;Node6</title>
<path fill="none" stroke="midnightblue" d="M194.9,-561.54C205.43,-590.67 229.23,-645.21 268,-675 273.05,-678.88 278.85,-681.96 284.89,-684.42"/>
<polygon fill="midnightblue" stroke="midnightblue" points="198.08,-560.04 191.5,-551.73 191.46,-562.33 198.08,-560.04"/>
</g>
<!-- Node7 -->
<g id="node7" class="node">
<title>Node7</title>
<g id="a_node7"><a xlink:href="classAxiStreamTap.html" target="_top" xlink:title=" ">
<polygon fill="white" stroke="black" points="293.5,-646.5 293.5,-665.5 377.5,-665.5 377.5,-646.5 293.5,-646.5"/>
<text text-anchor="middle" x="335.5" y="-653.5" font-family="Helvetica,sans-Serif" font-size="10.00">AxiStreamTap</text>
</a>
</g>
</g>
<!-- Node1&#45;&gt;Node7 -->
<g id="edge6" class="edge">
<title>Node1&#45;&gt;Node7</title>
<path fill="none" stroke="midnightblue" d="M199.22,-560.56C212.61,-582.1 237.5,-617.19 268,-637 275.65,-641.97 284.62,-645.67 293.45,-648.4"/>
<polygon fill="midnightblue" stroke="midnightblue" points="202.06,-558.48 193.9,-551.72 196.06,-562.09 202.06,-558.48"/>
</g>
<!-- Node8 -->
<g id="node8" class="node">
<title>Node8</title>
<g id="a_node8"><a xlink:href="classEthMacTxPause.html" target="_top" xlink:title=" ">
<polygon fill="white" stroke="black" points="289,-608.5 289,-627.5 382,-627.5 382,-608.5 289,-608.5"/>
<text text-anchor="middle" x="335.5" y="-615.5" font-family="Helvetica,sans-Serif" font-size="10.00">EthMacTxPause</text>
</a>
</g>
</g>
<!-- Node1&#45;&gt;Node8 -->
<g id="edge7" class="edge">
<title>Node1&#45;&gt;Node8</title>
<path fill="none" stroke="midnightblue" d="M207.03,-558.12C222.44,-570.8 245.42,-588.09 268,-599 275.78,-602.76 284.45,-605.91 292.89,-608.49"/>
<polygon fill="midnightblue" stroke="midnightblue" points="209.21,-555.38 199.3,-551.62 204.71,-560.74 209.21,-555.38"/>
</g>
<!-- Node45 -->
<g id="node13" class="node">
<title>Node45</title>
<g id="a_node13"><a xlink:href="classfifo__tb.html" target="_top" xlink:title=" ">
<polygon fill="white" stroke="black" points="312,-456.5 312,-475.5 359,-475.5 359,-456.5 312,-456.5"/>
<text text-anchor="middle" x="335.5" y="-463.5" font-family="Helvetica,sans-Serif" font-size="10.00">fifo_tb</text>
</a>
</g>
</g>
<!-- Node1&#45;&gt;Node45 -->
<g id="edge12" class="edge">
<title>Node1&#45;&gt;Node45</title>
<path fill="none" stroke="midnightblue" d="M207.03,-525.88C222.44,-513.2 245.42,-495.91 268,-485 281.95,-478.26 298.72,-473.49 311.94,-470.41"/>
<polygon fill="midnightblue" stroke="midnightblue" points="204.71,-523.26 199.3,-532.38 209.21,-528.62 204.71,-523.26"/>
</g>
<!-- Node46 -->
<g id="node14" class="node">
<title>Node46</title>
<g id="a_node14"><a xlink:href="classIpV4Engine.html" target="_top" xlink:title=" ">
<polygon fill="white" stroke="black" points="300,-532.5 300,-551.5 371,-551.5 371,-532.5 300,-532.5"/>
<text text-anchor="middle" x="335.5" y="-539.5" font-family="Helvetica,sans-Serif" font-size="10.00">IpV4Engine</text>
</a>
</g>
</g>
<!-- Node1&#45;&gt;Node46 -->
<g id="edge13" class="edge">
<title>Node1&#45;&gt;Node46</title>
<path fill="none" stroke="midnightblue" d="M242.38,-542C261.47,-542 282.43,-542 299.53,-542"/>
<polygon fill="midnightblue" stroke="midnightblue" points="242.3,-538.5 232.3,-542 242.3,-545.5 242.3,-538.5"/>
</g>
<!-- Node50 -->
<g id="node18" class="node">
<title>Node50</title>
<g id="a_node18"><a xlink:href="classPgp3Tx.html" target="_top" xlink:title=" ">
<polygon fill="white" stroke="black" points="309,-418.5 309,-437.5 362,-437.5 362,-418.5 309,-418.5"/>
<text text-anchor="middle" x="335.5" y="-425.5" font-family="Helvetica,sans-Serif" font-size="10.00">Pgp3Tx</text>
</a>
</g>
</g>
<!-- Node1&#45;&gt;Node50 -->
<g id="edge19" class="edge">
<title>Node1&#45;&gt;Node50</title>
<path fill="none" stroke="midnightblue" d="M199.22,-523.44C212.61,-501.9 237.5,-466.81 268,-447 280.18,-439.08 295.71,-434.41 308.69,-431.68"/>
<polygon fill="midnightblue" stroke="midnightblue" points="196.06,-521.91 193.9,-532.28 202.06,-525.52 196.06,-521.91"/>
</g>
<!-- Node62 -->
<g id="node29" class="node">
<title>Node62</title>
<g id="a_node29"><a xlink:href="classPgp4Tx.html" target="_top" xlink:title=" ">
<polygon fill="white" stroke="black" points="309,-114.5 309,-133.5 362,-133.5 362,-114.5 309,-114.5"/>
<text text-anchor="middle" x="335.5" y="-121.5" font-family="Helvetica,sans-Serif" font-size="10.00">Pgp4Tx</text>
</a>
</g>
</g>
<!-- Node1&#45;&gt;Node62 -->
<g id="edge30" class="edge">
<title>Node1&#45;&gt;Node62</title>
<path fill="none" stroke="midnightblue" d="M189.75,-522.15C193.87,-467.72 210.24,-312.7 268,-200 282.07,-172.54 308.23,-146.92 323.2,-133.58"/>
<polygon fill="midnightblue" stroke="midnightblue" points="186.24,-522.23 189.03,-532.45 193.22,-522.72 186.24,-522.23"/>
</g>
<!-- Node73 -->
<g id="node36" class="node">
<title>Node73</title>
<g id="a_node36"><a xlink:href="classPgpEthTx.html" target="_top" xlink:title=" ">
<polygon fill="white" stroke="black" points="304.5,-209.5 304.5,-228.5 366.5,-228.5 366.5,-209.5 304.5,-209.5"/>
<text text-anchor="middle" x="335.5" y="-216.5" font-family="Helvetica,sans-Serif" font-size="10.00">PgpEthTx</text>
</a>
</g>
</g>
<!-- Node1&#45;&gt;Node73 -->
<g id="edge37" class="edge">
<title>Node1&#45;&gt;Node73</title>
<path fill="none" stroke="midnightblue" d="M190.55,-522.31C196.14,-475.93 214.97,-357.59 268,-276 281.17,-255.73 303.64,-238.65 318.77,-228.62"/>
<polygon fill="midnightblue" stroke="midnightblue" points="187.04,-522.15 189.4,-532.48 194,-522.94 187.04,-522.15"/>
</g>
<!-- Node78 -->
<g id="node40" class="node">
<title>Node78</title>
<g id="a_node40"><a xlink:href="classRogueTcpStreamWrap.html" target="_top" xlink:title=" ">
<polygon fill="white" stroke="black" points="273.5,-285.5 273.5,-304.5 397.5,-304.5 397.5,-285.5 273.5,-285.5"/>
<text text-anchor="middle" x="335.5" y="-292.5" font-family="Helvetica,sans-Serif" font-size="10.00">RogueTcpStreamWrap</text>
</a>
</g>
</g>
<!-- Node1&#45;&gt;Node78 -->
<g id="edge41" class="edge">
<title>Node1&#45;&gt;Node78</title>
<path fill="none" stroke="midnightblue" d="M199.33,-523.68C228.32,-474.63 306.99,-341.54 328.82,-304.62"/>
<polygon fill="midnightblue" stroke="midnightblue" points="196.3,-521.93 194.22,-532.32 202.32,-525.49 196.3,-521.93"/>
</g>
<!-- Node84 -->
<g id="node46" class="node">
<title>Node84</title>
<g id="a_node46"><a xlink:href="classRssiCoreWrapper.html" target="_top" xlink:title=" ">
<polygon fill="white" stroke="black" points="285,-494.5 285,-513.5 386,-513.5 386,-494.5 285,-494.5"/>
<text text-anchor="middle" x="335.5" y="-501.5" font-family="Helvetica,sans-Serif" font-size="10.00">RssiCoreWrapper</text>
</a>
</g>
</g>
<!-- Node1&#45;&gt;Node84 -->
<g id="edge52" class="edge">
<title>Node1&#45;&gt;Node84</title>
<path fill="none" stroke="midnightblue" d="M235.04,-529.89C255.37,-524.6 278.87,-518.48 297.92,-513.52"/>
<polygon fill="midnightblue" stroke="midnightblue" points="234.14,-526.5 225.34,-532.41 235.9,-533.28 234.14,-526.5"/>
</g>
<!-- Node87 -->
<g id="node49" class="node">
<title>Node87</title>
<g id="a_node49"><a xlink:href="classUdpEngine.html" target="_top" xlink:title=" ">
<polygon fill="white" stroke="black" points="301,-570.5 301,-589.5 370,-589.5 370,-570.5 301,-570.5"/>
<text text-anchor="middle" x="335.5" y="-577.5" font-family="Helvetica,sans-Serif" font-size="10.00">UdpEngine</text>
</a>
</g>
</g>
<!-- Node1&#45;&gt;Node87 -->
<g id="edge56" class="edge">
<title>Node1&#45;&gt;Node87</title>
<path fill="none" stroke="midnightblue" d="M235.16,-554.15C256.46,-559.69 281.21,-566.13 300.67,-571.2"/>
<polygon fill="midnightblue" stroke="midnightblue" points="235.9,-550.72 225.34,-551.59 234.14,-557.5 235.9,-550.72"/>
</g>
<!-- Node2 -->
<g id="node2" class="node">
<title>Node2</title>
<g id="a_node2"><a xlink:href="classAxiStreamPipeline.html" target="_top" xlink:title=" ">
<polygon fill="white" stroke="black" points="0,-532.5 0,-551.5 107,-551.5 107,-532.5 0,-532.5"/>
<text text-anchor="middle" x="53.5" y="-539.5" font-family="Helvetica,sans-Serif" font-size="10.00">AxiStreamPipeline</text>
</a>
</g>
</g>
<!-- Node2&#45;&gt;Node1 -->
<g id="edge1" class="edge">
<title>Node2&#45;&gt;Node1</title>
<path fill="none" stroke="midnightblue" d="M117.1,-542C125.73,-542 134.43,-542 142.62,-542"/>
<polygon fill="midnightblue" stroke="midnightblue" points="117.05,-538.5 107.05,-542 117.05,-545.5 117.05,-538.5"/>
</g>
<!-- Node4 -->
<g id="node4" class="node">
<title>Node4</title>
<g id="a_node4"><a xlink:href="classAxiRssiCoreTb.html" target="_top" xlink:title=" ">
<polygon fill="white" stroke="black" points="450.5,-760.5 450.5,-779.5 537.5,-779.5 537.5,-760.5 450.5,-760.5"/>
<text text-anchor="middle" x="494" y="-767.5" font-family="Helvetica,sans-Serif" font-size="10.00">AxiRssiCoreTb</text>
</a>
</g>
</g>
<!-- Node3&#45;&gt;Node4 -->
<g id="edge3" class="edge">
<title>Node3&#45;&gt;Node4</title>
<path fill="none" stroke="midnightblue" d="M404.09,-770C419.78,-770 436.06,-770 450.33,-770"/>
<polygon fill="midnightblue" stroke="midnightblue" points="403.89,-766.5 393.89,-770 403.89,-773.5 403.89,-766.5"/>
</g>
<!-- Node9 -->
<g id="node9" class="node">
<title>Node9</title>
<g id="a_node9"><a xlink:href="classEthMacTx.html" target="_top" xlink:title=" ">
<polygon fill="white" stroke="black" points="461.5,-646.5 461.5,-665.5 526.5,-665.5 526.5,-646.5 461.5,-646.5"/>
<text text-anchor="middle" x="494" y="-653.5" font-family="Helvetica,sans-Serif" font-size="10.00">EthMacTx</text>
</a>
</g>
</g>
<!-- Node8&#45;&gt;Node9 -->
<g id="edge8" class="edge">
<title>Node8&#45;&gt;Node9</title>
<path fill="none" stroke="midnightblue" d="M385.91,-630C410.61,-635.99 439.75,-643.07 461.4,-648.33"/>
<polygon fill="midnightblue" stroke="midnightblue" points="386.54,-626.55 375.99,-627.59 384.88,-633.35 386.54,-626.55"/>
</g>
<!-- Node10 -->
<g id="node10" class="node">
<title>Node10</title>
<g id="a_node10"><a xlink:href="classEthMacTop.html" target="_top" xlink:title=" ">
<polygon fill="white" stroke="red" points="600.5,-646.5 600.5,-665.5 669.5,-665.5 669.5,-646.5 600.5,-646.5"/>
<text text-anchor="middle" x="635" y="-653.5" font-family="Helvetica,sans-Serif" font-size="10.00">EthMacTop</text>
</a>
</g>
</g>
<!-- Node9&#45;&gt;Node10 -->
<g id="edge9" class="edge">
<title>Node9&#45;&gt;Node10</title>
<path fill="none" stroke="midnightblue" d="M536.75,-656C557.02,-656 581.05,-656 600.16,-656"/>
<polygon fill="midnightblue" stroke="midnightblue" points="536.54,-652.5 526.54,-656 536.54,-659.5 536.54,-652.5"/>
</g>
<!-- Node12 -->
<g id="node11" class="node">
<title>Node12</title>
<g id="a_node11"><a xlink:href="classEthMacPauseTb.html" target="_top" xlink:title=" ">
<polygon fill="white" stroke="black" points="730.5,-589.5 730.5,-608.5 823.5,-608.5 823.5,-589.5 730.5,-589.5"/>
<text text-anchor="middle" x="777" y="-596.5" font-family="Helvetica,sans-Serif" font-size="10.00">EthMacPauseTb</text>
</a>
</g>
</g>
<!-- Node10&#45;&gt;Node12 -->
<g id="edge10" class="edge">
<title>Node10&#45;&gt;Node12</title>
<path fill="none" stroke="midnightblue" d="M668.77,-642.66C694.44,-632.2 729.55,-617.91 752.49,-608.57"/>
<polygon fill="midnightblue" stroke="midnightblue" points="667.37,-639.45 659.43,-646.46 670.01,-645.93 667.37,-639.45"/>
</g>
<!-- Node36 -->
<g id="node12" class="node">
<title>Node36</title>
<g id="a_node12"><a xlink:href="classUdpEngineTb.html" target="_top" xlink:title=" ">
<polygon fill="white" stroke="black" points="736.5,-636.5 736.5,-655.5 817.5,-655.5 817.5,-636.5 736.5,-636.5"/>
<text text-anchor="middle" x="777" y="-643.5" font-family="Helvetica,sans-Serif" font-size="10.00">UdpEngineTb</text>
</a>
</g>
</g>
<!-- Node10&#45;&gt;Node36 -->
<g id="edge11" class="edge">
<title>Node10&#45;&gt;Node36</title>
<path fill="none" stroke="midnightblue" d="M679.56,-652.89C697.68,-651.59 718.58,-650.1 736.27,-648.84"/>
<polygon fill="midnightblue" stroke="midnightblue" points="679.26,-649.4 669.53,-653.6 679.76,-656.38 679.26,-649.4"/>
</g>
<!-- Node47 -->
<g id="node15" class="node">
<title>Node47</title>
<g id="a_node15"><a xlink:href="classIpV4EngineTb.html" target="_top" xlink:title=" ">
<polygon fill="white" stroke="black" points="452.5,-570.5 452.5,-589.5 535.5,-589.5 535.5,-570.5 452.5,-570.5"/>
<text text-anchor="middle" x="494" y="-577.5" font-family="Helvetica,sans-Serif" font-size="10.00">IpV4EngineTb</text>
</a>
</g>
</g>
<!-- Node46&#45;&gt;Node47 -->
<g id="edge14" class="edge">
<title>Node46&#45;&gt;Node47</title>
<path fill="none" stroke="midnightblue" d="M381.05,-552.82C403.94,-558.38 431.59,-565.09 453.68,-570.45"/>
<polygon fill="midnightblue" stroke="midnightblue" points="381.78,-549.39 371.23,-550.43 380.12,-556.19 381.78,-549.39"/>
</g>
<!-- Node48 -->
<g id="node16" class="node">
<title>Node48</title>
<g id="a_node16"><a xlink:href="classUdpEngineWrapper.html" target="_top" xlink:title=" ">
<polygon fill="white" stroke="black" points="439,-608.5 439,-627.5 549,-627.5 549,-608.5 439,-608.5"/>
<text text-anchor="middle" x="494" y="-615.5" font-family="Helvetica,sans-Serif" font-size="10.00">UdpEngineWrapper</text>
</a>
</g>
</g>
<!-- Node46&#45;&gt;Node48 -->
<g id="edge15" class="edge">
<title>Node46&#45;&gt;Node48</title>
<path fill="none" stroke="midnightblue" d="M380.79,-551.06C388.5,-553.63 396.22,-556.88 403,-561 422.89,-573.07 419.48,-586.34 439,-599 444.84,-602.79 451.52,-605.92 458.15,-608.48"/>
<polygon fill="midnightblue" stroke="midnightblue" points="381.68,-547.67 371.09,-548.16 379.67,-554.38 381.68,-547.67"/>
</g>
<!-- Node48&#45;&gt;Node12 -->
<g id="edge16" class="edge">
<title>Node48&#45;&gt;Node12</title>
<path fill="none" stroke="midnightblue" d="M559.19,-606.99C567.84,-605.81 576.62,-604.76 585,-604 634.55,-599.52 691.61,-598.57 730.37,-598.56"/>
<polygon fill="midnightblue" stroke="midnightblue" points="558.52,-603.55 549.12,-608.43 559.51,-610.48 558.52,-603.55"/>
</g>
<!-- Node48&#45;&gt;Node36 -->
<g id="edge18" class="edge">
<title>Node48&#45;&gt;Node36</title>
<path fill="none" stroke="midnightblue" d="M559.45,-624.42C614.03,-629.86 690.53,-637.48 736.48,-642.06"/>
<polygon fill="midnightblue" stroke="midnightblue" points="559.48,-620.91 549.18,-623.4 558.78,-627.87 559.48,-620.91"/>
</g>
<!-- Node49 -->
<g id="node17" class="node">
<title>Node49</title>
<g id="a_node17"><a xlink:href="classRawEthFramerTb.html" target="_top" xlink:title=" ">
<polygon fill="white" stroke="black" points="585,-532.5 585,-551.5 685,-551.5 685,-532.5 585,-532.5"/>
<text text-anchor="middle" x="635" y="-539.5" font-family="Helvetica,sans-Serif" font-size="10.00">RawEthFramerTb</text>
</a>
</g>
</g>
<!-- Node48&#45;&gt;Node49 -->
<g id="edge17" class="edge">
<title>Node48&#45;&gt;Node49</title>
<path fill="none" stroke="midnightblue" d="M538.2,-604.6C541.94,-602.91 545.6,-601.04 549,-599 567.62,-587.84 567.07,-578.23 585,-566 592.98,-560.55 602.38,-555.64 610.8,-551.69"/>
<polygon fill="midnightblue" stroke="midnightblue" points="536.71,-601.43 528.79,-608.47 539.37,-607.9 536.71,-601.43"/>
</g>
<!-- Node51 -->
<g id="node19" class="node">
<title>Node51</title>
<g id="a_node19"><a xlink:href="classPgp3Core.html" target="_top" xlink:title=" ">
<polygon fill="white" stroke="black" points="462.5,-380.5 462.5,-399.5 525.5,-399.5 525.5,-380.5 462.5,-380.5"/>
<text text-anchor="middle" x="494" y="-387.5" font-family="Helvetica,sans-Serif" font-size="10.00">Pgp3Core</text>
</a>
</g>
</g>
<!-- Node50&#45;&gt;Node51 -->
<g id="edge20" class="edge">
<title>Node50&#45;&gt;Node51</title>
<path fill="none" stroke="midnightblue" d="M372.23,-419.32C399.41,-412.72 436.42,-403.74 462.28,-397.46"/>
<polygon fill="midnightblue" stroke="midnightblue" points="371.23,-415.96 362.34,-421.73 372.89,-422.77 371.23,-415.96"/>
</g>
<!-- Node61 -->
<g id="node28" class="node">
<title>Node61</title>
<g id="a_node28"><a xlink:href="classPgp3Tb.html" target="_top" xlink:title=" ">
<polygon fill="white" stroke="black" points="467.5,-418.5 467.5,-437.5 520.5,-437.5 520.5,-418.5 467.5,-418.5"/>
<text text-anchor="middle" x="494" y="-425.5" font-family="Helvetica,sans-Serif" font-size="10.00">Pgp3Tb</text>
</a>
</g>
</g>
<!-- Node50&#45;&gt;Node61 -->
<g id="edge29" class="edge">
<title>Node50&#45;&gt;Node61</title>
<path fill="none" stroke="midnightblue" d="M372.48,-428C401.48,-428 441.56,-428 467.38,-428"/>
<polygon fill="midnightblue" stroke="midnightblue" points="372.34,-424.5 362.34,-428 372.34,-431.5 372.34,-424.5"/>
</g>
<!-- Node52 -->
<g id="node20" class="node">
<title>Node52</title>
<g id="a_node20"><a xlink:href="classPgp3GthUs.html" target="_top" xlink:title=" ">
<polygon fill="white" stroke="black" points="599.5,-418.5 599.5,-437.5 670.5,-437.5 670.5,-418.5 599.5,-418.5"/>
<text text-anchor="middle" x="635" y="-425.5" font-family="Helvetica,sans-Serif" font-size="10.00">Pgp3GthUs</text>
</a>
</g>
</g>
<!-- Node51&#45;&gt;Node52 -->
<g id="edge21" class="edge">
<title>Node51&#45;&gt;Node52</title>
<path fill="none" stroke="midnightblue" d="M535.36,-401.03C555.56,-406.56 579.78,-413.18 599.16,-418.48"/>
<polygon fill="midnightblue" stroke="midnightblue" points="536.07,-397.6 525.5,-398.34 534.23,-404.35 536.07,-397.6"/>
</g>
<!-- Node54 -->
<g id="node22" class="node">
<title>Node54</title>
<g id="a_node22"><a xlink:href="classPgp3Gtp7.html" target="_top" xlink:title=" ">
<polygon fill="white" stroke="black" points="603,-380.5 603,-399.5 667,-399.5 667,-380.5 603,-380.5"/>
<text text-anchor="middle" x="635" y="-387.5" font-family="Helvetica,sans-Serif" font-size="10.00">Pgp3Gtp7</text>
</a>
</g>
</g>
<!-- Node51&#45;&gt;Node54 -->
<g id="edge23" class="edge">
<title>Node51&#45;&gt;Node54</title>
<path fill="none" stroke="midnightblue" d="M535.59,-390C556.97,-390 582.78,-390 602.6,-390"/>
<polygon fill="midnightblue" stroke="midnightblue" points="535.5,-386.5 525.5,-390 535.5,-393.5 535.5,-386.5"/>
</g>
<!-- Node57 -->
<g id="node24" class="node">
<title>Node57</title>
<g id="a_node24"><a xlink:href="classPgp3Gtx7.html" target="_top" xlink:title=" ">
<polygon fill="white" stroke="black" points="603,-304.5 603,-323.5 667,-323.5 667,-304.5 603,-304.5"/>
<text text-anchor="middle" x="635" y="-311.5" font-family="Helvetica,sans-Serif" font-size="10.00">Pgp3Gtx7</text>
</a>
</g>
</g>
<!-- Node51&#45;&gt;Node57 -->
<g id="edge25" class="edge">
<title>Node51&#45;&gt;Node57</title>
<path fill="none" stroke="midnightblue" d="M516.74,-374.54C534.54,-362.3 560.67,-345.27 585,-333 591.84,-329.55 599.47,-326.32 606.63,-323.53"/>
<polygon fill="midnightblue" stroke="midnightblue" points="514.45,-371.87 508.24,-380.45 518.45,-377.61 514.45,-371.87"/>
</g>
<!-- Node59 -->
<g id="node26" class="node">
<title>Node59</title>
<g id="a_node26"><a xlink:href="classPgp3GtyUs.html" target="_top" xlink:title=" ">
<polygon fill="white" stroke="black" points="599.5,-456.5 599.5,-475.5 670.5,-475.5 670.5,-456.5 599.5,-456.5"/>
<text text-anchor="middle" x="635" y="-463.5" font-family="Helvetica,sans-Serif" font-size="10.00">Pgp3GtyUs</text>
</a>
</g>
</g>
<!-- Node51&#45;&gt;Node59 -->
<g id="edge27" class="edge">
<title>Node51&#45;&gt;Node59</title>
<path fill="none" stroke="midnightblue" d="M535.02,-401.63C539.9,-403.75 544.68,-406.2 549,-409 568.52,-421.66 565.68,-434.03 585,-447 590.53,-450.71 596.89,-453.85 603.16,-456.44"/>
<polygon fill="midnightblue" stroke="midnightblue" points="536.19,-398.34 525.61,-397.95 533.65,-404.86 536.19,-398.34"/>
</g>
<!-- Node53 -->
<g id="node21" class="node">
<title>Node53</title>
<g id="a_node21"><a xlink:href="classPgp3GthUsWrapper.html" target="_top" xlink:title=" ">
<polygon fill="white" stroke="black" points="721,-394.5 721,-413.5 833,-413.5 833,-394.5 721,-394.5"/>
<text text-anchor="middle" x="777" y="-401.5" font-family="Helvetica,sans-Serif" font-size="10.00">Pgp3GthUsWrapper</text>
</a>
</g>
</g>
<!-- Node52&#45;&gt;Node53 -->
<g id="edge22" class="edge">
<title>Node52&#45;&gt;Node53</title>
<path fill="none" stroke="midnightblue" d="M680.55,-420.36C693.35,-418.17 707.46,-415.75 720.82,-413.46"/>
<polygon fill="midnightblue" stroke="midnightblue" points="679.87,-416.93 670.61,-422.07 681.05,-423.83 679.87,-416.93"/>
</g>
<!-- Node55 -->
<g id="node23" class="node">
<title>Node55</title>
<g id="a_node23"><a xlink:href="classPgp3Gtp7Wrapper.html" target="_top" xlink:title=" ">
<polygon fill="white" stroke="red" points="724.5,-347.5 724.5,-366.5 829.5,-366.5 829.5,-347.5 724.5,-347.5"/>
<text text-anchor="middle" x="777" y="-354.5" font-family="Helvetica,sans-Serif" font-size="10.00">Pgp3Gtp7Wrapper</text>
</a>
</g>
</g>
<!-- Node54&#45;&gt;Node55 -->
<g id="edge24" class="edge">
<title>Node54&#45;&gt;Node55</title>
<path fill="none" stroke="midnightblue" d="M676.93,-380.35C695.36,-376.01 717.06,-370.89 735.44,-366.56"/>
<polygon fill="midnightblue" stroke="midnightblue" points="676,-376.98 667.07,-382.68 677.61,-383.79 676,-376.98"/>
</g>
<!-- Node58 -->
<g id="node25" class="node">
<title>Node58</title>
<g id="a_node25"><a xlink:href="classPgp3Gtx7Wrapper.html" target="_top" xlink:title=" ">
<polygon fill="white" stroke="black" points="724.5,-304.5 724.5,-323.5 829.5,-323.5 829.5,-304.5 724.5,-304.5"/>
<text text-anchor="middle" x="777" y="-311.5" font-family="Helvetica,sans-Serif" font-size="10.00">Pgp3Gtx7Wrapper</text>
</a>
</g>
</g>
<!-- Node57&#45;&gt;Node58 -->
<g id="edge26" class="edge">
<title>Node57&#45;&gt;Node58</title>
<path fill="none" stroke="midnightblue" d="M677.39,-314C692.13,-314 708.91,-314 724.39,-314"/>
<polygon fill="midnightblue" stroke="midnightblue" points="677.07,-310.5 667.07,-314 677.07,-317.5 677.07,-310.5"/>
</g>
<!-- Node60 -->
<g id="node27" class="node">
<title>Node60</title>
<g id="a_node27"><a xlink:href="classPgp3GtyUsWrapper.html" target="_top" xlink:title=" ">
<polygon fill="white" stroke="black" points="721,-437.5 721,-456.5 833,-456.5 833,-437.5 721,-437.5"/>
<text text-anchor="middle" x="777" y="-444.5" font-family="Helvetica,sans-Serif" font-size="10.00">Pgp3GtyUsWrapper</text>
</a>
</g>
</g>
<!-- Node59&#45;&gt;Node60 -->
<g id="edge28" class="edge">
<title>Node59&#45;&gt;Node60</title>
<path fill="none" stroke="midnightblue" d="M680.55,-459.95C693.35,-458.22 707.46,-456.3 720.82,-454.49"/>
<polygon fill="midnightblue" stroke="midnightblue" points="680.05,-456.49 670.61,-461.3 680.99,-463.43 680.05,-456.49"/>
</g>
<!-- Node63 -->
<g id="node30" class="node">
<title>Node63</title>
<g id="a_node30"><a xlink:href="classPgp4Core.html" target="_top" xlink:title=" ">
<polygon fill="white" stroke="black" points="462.5,-76.5 462.5,-95.5 525.5,-95.5 525.5,-76.5 462.5,-76.5"/>
<text text-anchor="middle" x="494" y="-83.5" font-family="Helvetica,sans-Serif" font-size="10.00">Pgp4Core</text>
</a>
</g>
</g>
<!-- Node62&#45;&gt;Node63 -->
<g id="edge31" class="edge">
<title>Node62&#45;&gt;Node63</title>
<path fill="none" stroke="midnightblue" d="M372.23,-115.32C399.41,-108.72 436.42,-99.74 462.28,-93.46"/>
<polygon fill="midnightblue" stroke="midnightblue" points="371.23,-111.96 362.34,-117.73 372.89,-118.77 371.23,-111.96"/>
</g>
<!-- Node72 -->
<g id="node35" class="node">
<title>Node72</title>
<g id="a_node35"><a xlink:href="classPgp4Tb.html" target="_top" xlink:title=" ">
<polygon fill="white" stroke="black" points="467.5,-114.5 467.5,-133.5 520.5,-133.5 520.5,-114.5 467.5,-114.5"/>
<text text-anchor="middle" x="494" y="-121.5" font-family="Helvetica,sans-Serif" font-size="10.00">Pgp4Tb</text>
</a>
</g>
</g>
<!-- Node62&#45;&gt;Node72 -->
<g id="edge36" class="edge">
<title>Node62&#45;&gt;Node72</title>
<path fill="none" stroke="midnightblue" d="M372.48,-124C401.48,-124 441.56,-124 467.38,-124"/>
<polygon fill="midnightblue" stroke="midnightblue" points="372.34,-120.5 362.34,-124 372.34,-127.5 372.34,-120.5"/>
</g>
<!-- Node64 -->
<g id="node31" class="node">
<title>Node64</title>
<g id="a_node31"><a xlink:href="classPgp4GthUs.html" target="_top" xlink:title=" ">
<polygon fill="white" stroke="red" points="599.5,-76.5 599.5,-95.5 670.5,-95.5 670.5,-76.5 599.5,-76.5"/>
<text text-anchor="middle" x="635" y="-83.5" font-family="Helvetica,sans-Serif" font-size="10.00">Pgp4GthUs</text>
</a>
</g>
</g>
<!-- Node63&#45;&gt;Node64 -->
<g id="edge32" class="edge">
<title>Node63&#45;&gt;Node64</title>
<path fill="none" stroke="midnightblue" d="M535.64,-86C555.78,-86 579.87,-86 599.16,-86"/>
<polygon fill="midnightblue" stroke="midnightblue" points="535.5,-82.5 525.5,-86 535.5,-89.5 535.5,-82.5"/>
</g>
<!-- Node66 -->
<g id="node32" class="node">
<title>Node66</title>
<g id="a_node32"><a xlink:href="classPgp4Gtp7.html" target="_top" xlink:title=" ">
<polygon fill="white" stroke="red" points="603,-38.5 603,-57.5 667,-57.5 667,-38.5 603,-38.5"/>
<text text-anchor="middle" x="635" y="-45.5" font-family="Helvetica,sans-Serif" font-size="10.00">Pgp4Gtp7</text>
</a>
</g>
</g>
<!-- Node63&#45;&gt;Node66 -->
<g id="edge33" class="edge">
<title>Node63&#45;&gt;Node66</title>
<path fill="none" stroke="midnightblue" d="M535.3,-74.98C556.73,-69.12 582.69,-62.03 602.6,-56.58"/>
<polygon fill="midnightblue" stroke="midnightblue" points="534.23,-71.65 525.5,-77.66 536.07,-78.4 534.23,-71.65"/>
</g>
<!-- Node68 -->
<g id="node33" class="node">
<title>Node68</title>
<g id="a_node33"><a xlink:href="classPgp4Gtx7.html" target="_top" xlink:title=" ">
<polygon fill="white" stroke="red" points="603,-0.5 603,-19.5 667,-19.5 667,-0.5 603,-0.5"/>
<text text-anchor="middle" x="635" y="-7.5" font-family="Helvetica,sans-Serif" font-size="10.00">Pgp4Gtx7</text>
</a>
</g>
</g>
<!-- Node63&#45;&gt;Node68 -->
<g id="edge34" class="edge">
<title>Node63&#45;&gt;Node68</title>
<path fill="none" stroke="midnightblue" d="M516.74,-70.54C534.54,-58.3 560.67,-41.27 585,-29 591.84,-25.55 599.47,-22.32 606.63,-19.53"/>
<polygon fill="midnightblue" stroke="midnightblue" points="514.45,-67.87 508.24,-76.45 518.45,-73.61 514.45,-67.87"/>
</g>
<!-- Node70 -->
<g id="node34" class="node">
<title>Node70</title>
<g id="a_node34"><a xlink:href="classPgp4GtyUs.html" target="_top" xlink:title=" ">
<polygon fill="white" stroke="red" points="599.5,-114.5 599.5,-133.5 670.5,-133.5 670.5,-114.5 599.5,-114.5"/>
<text text-anchor="middle" x="635" y="-121.5" font-family="Helvetica,sans-Serif" font-size="10.00">Pgp4GtyUs</text>
</a>
</g>
</g>
<!-- Node63&#45;&gt;Node70 -->
<g id="edge35" class="edge">
<title>Node63&#45;&gt;Node70</title>
<path fill="none" stroke="midnightblue" d="M535.36,-97.03C555.56,-102.56 579.78,-109.18 599.16,-114.48"/>
<polygon fill="midnightblue" stroke="midnightblue" points="536.07,-93.6 525.5,-94.34 534.23,-100.35 536.07,-93.6"/>
</g>
<!-- Node74 -->
<g id="node37" class="node">
<title>Node74</title>
<g id="a_node37"><a xlink:href="classPgpEthCore.html" target="_top" xlink:title=" ">
<polygon fill="white" stroke="black" points="457.5,-152.5 457.5,-171.5 530.5,-171.5 530.5,-152.5 457.5,-152.5"/>
<text text-anchor="middle" x="494" y="-159.5" font-family="Helvetica,sans-Serif" font-size="10.00">PgpEthCore</text>
</a>
</g>
</g>
<!-- Node73&#45;&gt;Node74 -->
<g id="edge38" class="edge">
<title>Node73&#45;&gt;Node74</title>
<path fill="none" stroke="midnightblue" d="M371.67,-205.8C391.43,-198.42 416.55,-189.11 439,-181 447.6,-177.89 456.99,-174.57 465.5,-171.58"/>
<polygon fill="midnightblue" stroke="midnightblue" points="370.29,-202.57 362.15,-209.35 372.74,-209.13 370.29,-202.57"/>
</g>
<!-- Node75 -->
<g id="node38" class="node">
<title>Node75</title>
<g id="a_node38"><a xlink:href="classPgpEthCaui4Gty.html" target="_top" xlink:title=" ">
<polygon fill="white" stroke="red" points="587.5,-228.5 587.5,-247.5 682.5,-247.5 682.5,-228.5 587.5,-228.5"/>
<text text-anchor="middle" x="635" y="-235.5" font-family="Helvetica,sans-Serif" font-size="10.00">PgpEthCaui4Gty</text>
</a>
</g>
</g>
<!-- Node74&#45;&gt;Node75 -->
<g id="edge39" class="edge">
<title>Node74&#45;&gt;Node75</title>
<path fill="none" stroke="midnightblue" d="M536.07,-175.22C540.5,-177.01 544.89,-178.94 549,-181 576.64,-194.85 605.97,-216.21 621.93,-228.46"/>
<polygon fill="midnightblue" stroke="midnightblue" points="536.99,-171.82 526.4,-171.54 534.5,-178.36 536.99,-171.82"/>
</g>
<!-- Node77 -->
<g id="node39" class="node">
<title>Node77</title>
<g id="a_node39"><a xlink:href="classPgpEthCoreTb.html" target="_top" xlink:title=" ">
<polygon fill="white" stroke="black" points="592.5,-152.5 592.5,-171.5 677.5,-171.5 677.5,-152.5 592.5,-152.5"/>
<text text-anchor="middle" x="635" y="-159.5" font-family="Helvetica,sans-Serif" font-size="10.00">PgpEthCoreTb</text>
</a>
</g>
</g>
<!-- Node74&#45;&gt;Node77 -->
<g id="edge40" class="edge">
<title>Node74&#45;&gt;Node77</title>
<path fill="none" stroke="midnightblue" d="M540.85,-162C557.48,-162 576.16,-162 592.41,-162"/>
<polygon fill="midnightblue" stroke="midnightblue" points="540.8,-158.5 530.8,-162 540.8,-165.5 540.8,-158.5"/>
</g>
<!-- Node79 -->
<g id="node41" class="node">
<title>Node79</title>
<g id="a_node41"><a xlink:href="classRoguePgp2bSim.html" target="_top" xlink:title=" ">
<polygon fill="white" stroke="black" points="446,-228.5 446,-247.5 542,-247.5 542,-228.5 446,-228.5"/>
<text text-anchor="middle" x="494" y="-235.5" font-family="Helvetica,sans-Serif" font-size="10.00">RoguePgp2bSim</text>
</a>
</g>
</g>
<!-- Node78&#45;&gt;Node79 -->
<g id="edge42" class="edge">
<title>Node78&#45;&gt;Node79</title>
<path fill="none" stroke="midnightblue" d="M371.67,-281.8C391.43,-274.42 416.55,-265.11 439,-257 447.6,-253.89 456.99,-250.57 465.5,-247.58"/>
<polygon fill="midnightblue" stroke="midnightblue" points="370.29,-278.57 362.15,-285.35 372.74,-285.13 370.29,-278.57"/>
</g>
<!-- Node80 -->
<g id="node42" class="node">
<title>Node80</title>
<g id="a_node42"><a xlink:href="classRoguePgp3Sim.html" target="_top" xlink:title=" ">
<polygon fill="white" stroke="black" points="590,-342.5 590,-361.5 680,-361.5 680,-342.5 590,-342.5"/>
<text text-anchor="middle" x="635" y="-349.5" font-family="Helvetica,sans-Serif" font-size="10.00">RoguePgp3Sim</text>
</a>
</g>
</g>
<!-- Node78&#45;&gt;Node80 -->
<g id="edge43" class="edge">
<title>Node78&#45;&gt;Node80</title>
<path fill="none" stroke="midnightblue" d="M366.85,-308.61C386.92,-317.02 414.05,-327.26 439,-333 489.88,-344.7 549.86,-349.2 589.72,-350.93"/>
<polygon fill="midnightblue" stroke="midnightblue" points="368.17,-305.37 357.6,-304.66 365.42,-311.8 368.17,-305.37"/>
</g>
<!-- Node81 -->
<g id="node43" class="node">
<title>Node81</title>
<g id="a_node43"><a xlink:href="classRoguePgp4Sim.html" target="_top" xlink:title=" ">
<polygon fill="white" stroke="red" points="449,-190.5 449,-209.5 539,-209.5 539,-190.5 449,-190.5"/>
<text text-anchor="middle" x="494" y="-197.5" font-family="Helvetica,sans-Serif" font-size="10.00">RoguePgp4Sim</text>
</a>
</g>
</g>
<!-- Node78&#45;&gt;Node81 -->
<g id="edge48" class="edge">
<title>Node78&#45;&gt;Node81</title>
<path fill="none" stroke="midnightblue" d="M354.72,-278.83C374.37,-262.04 407.16,-235.91 439,-219 445.85,-215.36 453.53,-212.18 460.91,-209.51"/>
<polygon fill="midnightblue" stroke="midnightblue" points="352.4,-276.2 347.14,-285.4 356.99,-281.49 352.4,-276.2"/>
</g>
<!-- Node82 -->
<g id="node44" class="node">
<title>Node82</title>
<g id="a_node44"><a xlink:href="classRoguePgpEthSim.html" target="_top" xlink:title=" ">
<polygon fill="white" stroke="black" points="444,-266.5 444,-285.5 544,-285.5 544,-266.5 444,-266.5"/>
<text text-anchor="middle" x="494" y="-273.5" font-family="Helvetica,sans-Serif" font-size="10.00">RoguePgpEthSim</text>
</a>
</g>
</g>
<!-- Node78&#45;&gt;Node82 -->
<g id="edge49" class="edge">
<title>Node78&#45;&gt;Node82</title>
<path fill="none" stroke="midnightblue" d="M408.01,-286.32C420.13,-284.85 432.47,-283.35 443.85,-281.97"/>
<polygon fill="midnightblue" stroke="midnightblue" points="407.41,-282.87 397.9,-287.55 408.25,-289.81 407.41,-282.87"/>
</g>
<!-- Node83 -->
<g id="node45" class="node">
<title>Node83</title>
<g id="a_node45"><a xlink:href="classstream__tb.html" target="_top" xlink:title=" ">
<polygon fill="white" stroke="black" points="461,-304.5 461,-323.5 527,-323.5 527,-304.5 461,-304.5"/>
<text text-anchor="middle" x="494" y="-311.5" font-family="Helvetica,sans-Serif" font-size="10.00">stream_tb</text>
</a>
</g>
</g>
<!-- Node78&#45;&gt;Node83 -->
<g id="edge51" class="edge">
<title>Node78&#45;&gt;Node83</title>
<path fill="none" stroke="midnightblue" d="M408.04,-303.69C426.43,-305.92 445.32,-308.21 460.6,-310.07"/>
<polygon fill="midnightblue" stroke="midnightblue" points="408.25,-300.19 397.9,-302.45 407.41,-307.13 408.25,-300.19"/>
</g>
<!-- Node80&#45;&gt;Node53 -->
<g id="edge44" class="edge">
<title>Node80&#45;&gt;Node53</title>
<path fill="none" stroke="midnightblue" d="M671.32,-365.12C695.8,-374.21 727.85,-386.12 750.01,-394.35"/>
<polygon fill="midnightblue" stroke="midnightblue" points="672.27,-361.74 661.68,-361.54 669.83,-368.3 672.27,-361.74"/>
</g>
<!-- Node80&#45;&gt;Node55 -->
<g id="edge45" class="edge">
<title>Node80&#45;&gt;Node55</title>
<path fill="none" stroke="midnightblue" d="M690.32,-353.94C701.45,-354.34 713.13,-354.75 724.17,-355.15"/>
<polygon fill="midnightblue" stroke="midnightblue" points="690.42,-350.44 680.3,-353.58 690.17,-357.44 690.42,-350.44"/>
</g>
<!-- Node80&#45;&gt;Node58 -->
<g id="edge46" class="edge">
<title>Node80&#45;&gt;Node58</title>
<path fill="none" stroke="midnightblue" d="M681.12,-339.75C700.41,-334.52 722.61,-328.49 740.68,-323.59"/>
<polygon fill="midnightblue" stroke="midnightblue" points="680.06,-336.41 671.33,-342.41 681.9,-343.17 680.06,-336.41"/>
</g>
<!-- Node80&#45;&gt;Node60 -->
<g id="edge47" class="edge">
<title>Node80&#45;&gt;Node60</title>
<path fill="none" stroke="midnightblue" d="M677.77,-366.12C680.31,-367.6 682.75,-369.23 685,-371 707.07,-388.4 699.29,-405.14 721,-423 728.32,-429.02 737.39,-433.8 746.03,-437.45"/>
<polygon fill="midnightblue" stroke="midnightblue" points="679.34,-362.99 668.84,-361.59 676.18,-369.23 679.34,-362.99"/>
</g>
<!-- Node82&#45;&gt;Node75 -->
<g id="edge50" class="edge">
<title>Node82&#45;&gt;Node75</title>
<path fill="none" stroke="midnightblue" d="M539.8,-263.75C558.95,-258.52 580.99,-252.49 598.94,-247.59"/>
<polygon fill="midnightblue" stroke="midnightblue" points="538.8,-260.4 530.08,-266.41 540.64,-267.15 538.8,-260.4"/>
</g>
<!-- Node84&#45;&gt;Node49 -->
<g id="edge53" class="edge">
<title>Node84&#45;&gt;Node49</title>
<path fill="none" stroke="midnightblue" d="M393.13,-515.4C408.01,-518.15 424.08,-520.89 439,-523 488.51,-529.99 545.46,-535.22 584.98,-538.4"/>
<polygon fill="midnightblue" stroke="midnightblue" points="393.52,-511.91 383.05,-513.51 392.23,-518.79 393.52,-511.91"/>
</g>
<!-- Node85 -->
<g id="node47" class="node">
<title>Node85</title>
<g id="a_node47"><a xlink:href="classRssiCoreTb.html" target="_top" xlink:title=" ">
<polygon fill="white" stroke="black" points="458.5,-494.5 458.5,-513.5 529.5,-513.5 529.5,-494.5 458.5,-494.5"/>
<text text-anchor="middle" x="494" y="-501.5" font-family="Helvetica,sans-Serif" font-size="10.00">RssiCoreTb</text>
</a>
</g>
</g>
<!-- Node84&#45;&gt;Node85 -->
<g id="edge54" class="edge">
<title>Node84&#45;&gt;Node85</title>
<path fill="none" stroke="midnightblue" d="M396.12,-504C417.08,-504 439.93,-504 458.17,-504"/>
<polygon fill="midnightblue" stroke="midnightblue" points="396.02,-500.5 386.02,-504 396.02,-507.5 396.02,-500.5"/>
</g>
<!-- Node86 -->
<g id="node48" class="node">
<title>Node86</title>
<g id="a_node48"><a xlink:href="classRssiInterleaveTb.html" target="_top" xlink:title=" ">
<polygon fill="white" stroke="black" points="445,-456.5 445,-475.5 543,-475.5 543,-456.5 445,-456.5"/>
<text text-anchor="middle" x="494" y="-463.5" font-family="Helvetica,sans-Serif" font-size="10.00">RssiInterleaveTb</text>
</a>
</g>
</g>
<!-- Node84&#45;&gt;Node86 -->
<g id="edge55" class="edge">
<title>Node84&#45;&gt;Node86</title>
<path fill="none" stroke="midnightblue" d="M385.79,-492.03C407.72,-486.71 433.18,-480.52 453.79,-475.52"/>
<polygon fill="midnightblue" stroke="midnightblue" points="384.88,-488.65 375.99,-494.41 386.54,-495.45 384.88,-488.65"/>
</g>
<!-- Node87&#45;&gt;Node48 -->
<g id="edge57" class="edge">
<title>Node87&#45;&gt;Node48</title>
<path fill="none" stroke="midnightblue" d="M379.96,-590.55C403.06,-596.16 431.23,-603 453.68,-608.45"/>
<polygon fill="midnightblue" stroke="midnightblue" points="380.62,-587.11 370.07,-588.15 378.96,-593.91 380.62,-587.11"/>
</g>
</g>
</svg>
        <g id="navigator" transform="translate(0 0)" fill="#404254">
                <rect fill="#f2f5e9" fill-opacity="0.5" stroke="#606060" stroke-width=".5" x="0" y="0" width="60" height="60"/>
                <use id="zoomplus" xlink:href="#zoomPlus" x="17" y="9" onmousedown="handleZoom(evt,'in')"/>
                <use id="zoomminus" xlink:href="#zoomMin" x="42" y="9" onmousedown="handleZoom(evt,'out')"/>
                <use id="reset" xlink:href="#resetDef" x="30" y="36" onmousedown="handleReset()"/>
                <g id="arrowUp" xlink:href="#dirArrow" transform="translate(30 24)" onmousedown="handlePan(0,-1)">
                  <use xlink:href="#rim" fill="#404040">
                        <set attributeName="fill" to="#808080" begin="arrowUp.mouseover" end="arrowUp.mouseout"/>
                  </use>
                  <path fill="none" stroke="white" stroke-width="1.5" d="M0,-3.0v7 M-2.5,-0.5L0,-3.0L2.5,-0.5"/>
                </g>
                <g id="arrowRight" xlink:href="#dirArrow" transform="rotate(90) translate(36 -43)" onmousedown="handlePan(1,0)">
                  <use xlink:href="#rim" fill="#404040">
                        <set attributeName="fill" to="#808080" begin="arrowRight.mouseover" end="arrowRight.mouseout"/>
                  </use>
                  <path fill="none" stroke="white" stroke-width="1.5" d="M0,-3.0v7 M-2.5,-0.5L0,-3.0L2.5,-0.5"/>
                </g>
                <g id="arrowDown" xlink:href="#dirArrow" transform="rotate(180) translate(-30 -48)" onmousedown="handlePan(0,1)">
                  <use xlink:href="#rim" fill="#404040">
                        <set attributeName="fill" to="#808080" begin="arrowDown.mouseover" end="arrowDown.mouseout"/>
                  </use>
                  <path fill="none" stroke="white" stroke-width="1.5" d="M0,-3.0v7 M-2.5,-0.5L0,-3.0L2.5,-0.5"/>
                </g>
                <g id="arrowLeft" xlink:href="#dirArrow" transform="rotate(270) translate(-36 17)" onmousedown="handlePan(-1,0)">
                  <use xlink:href="#rim" fill="#404040">
                        <set attributeName="fill" to="#808080" begin="arrowLeft.mouseover" end="arrowLeft.mouseout"/>
                  </use>
                  <path fill="none" stroke="white" stroke-width="1.5" d="M0,-3.0v7 M-2.5,-0.5L0,-3.0L2.5,-0.5"/>
                </g>
        </g>
        <svg viewBox="0 0 15 15" width="100%" height="30px" preserveAspectRatio="xMaxYMin meet">
         <g id="arrow_out" transform="scale(0.3 0.3)">
          <a xlink:href="classAxiStreamMux__inherit__graph_org.svg" target="_base">
           <rect id="button" ry="5" rx="5" y="6" x="6" height="38" width="38"
                fill="#f2f5e9" fill-opacity="0.5" stroke="#606060" stroke-width="1.0"/>
           <path id="arrow"
             d="M 11.500037,31.436501 C 11.940474,20.09759 22.043105,11.32322 32.158766,21.979434 L 37.068811,17.246167 C 37.068811,17.246167 37.088388,32 37.088388,32 L 22.160133,31.978069 C 22.160133,31.978069 26.997745,27.140456 26.997745,27.140456 C 18.528582,18.264221 13.291696,25.230495 11.500037,31.436501 z"
             style="fill:#404040;"/>
          </a>
         </g>
        </svg>
</svg>
