<?xml version="1.0" encoding="UTF-8" standalone="no"?>
<!DOCTYPE svg PUBLIC "-//W3C//DTD SVG 1.1//EN"
 "http://www.w3.org/Graphics/SVG/1.1/DTD/svg11.dtd">
<!-- Generated by graphviz version 2.43.0 (0)
 -->
<!-- Title: EthMacTxFifo Pages: 1 -->
<svg width="1436pt" height="674pt"
 viewBox="0.00 0.00 1436.00 674.00" xmlns="http://www.w3.org/2000/svg" xmlns:xlink="http://www.w3.org/1999/xlink">
<g id="graph0" class="graph" transform="scale(1 1) rotate(0) translate(4 670)">
<title>EthMacTxFifo</title>
<polygon fill="white" stroke="transparent" points="-4,4 -4,-670 1432,-670 1432,4 -4,4"/>
<!-- Node1 -->
<g id="node1" class="node">
<title>Node1</title>
<g id="a_node1"><a xlink:title=" ">
<polygon fill="#bfbfbf" stroke="black" points="861,-323.5 861,-342.5 944,-342.5 944,-323.5 861,-323.5"/>
<text text-anchor="middle" x="902.5" y="-330.5" font-family="Helvetica,sans-Serif" font-size="10.00">EthMacTxFifo</text>
</a>
</g>
</g>
<!-- Node20 -->
<g id="node20" class="node">
<title>Node20</title>
<g id="a_node20"><a xlink:href="classEthMacTop.html" target="_top" xlink:title=" ">
<polygon fill="white" stroke="black" points="980,-323.5 980,-342.5 1049,-342.5 1049,-323.5 980,-323.5"/>
<text text-anchor="middle" x="1014.5" y="-330.5" font-family="Helvetica,sans-Serif" font-size="10.00">EthMacTop</text>
</a>
</g>
</g>
<!-- Node1&#45;&gt;Node20 -->
<g id="edge28" class="edge">
<title>Node1&#45;&gt;Node20</title>
<path fill="none" stroke="midnightblue" d="M954.23,-333C962.92,-333 971.76,-333 979.86,-333"/>
<polygon fill="midnightblue" stroke="midnightblue" points="954.15,-329.5 944.15,-333 954.15,-336.5 954.15,-329.5"/>
</g>
<!-- Node2 -->
<g id="node2" class="node">
<title>Node2</title>
<g id="a_node2"><a xlink:href="classAxiStreamFifoV2.html" target="_top" xlink:title=" ">
<polygon fill="white" stroke="black" points="713,-323.5 713,-342.5 825,-342.5 825,-323.5 713,-323.5"/>
<text text-anchor="middle" x="769" y="-330.5" font-family="Helvetica,sans-Serif" font-size="10.00">AxiStreamFifoV2(3)</text>
</a>
</g>
</g>
<!-- Node2&#45;&gt;Node1 -->
<g id="edge1" class="edge">
<title>Node2&#45;&gt;Node1</title>
<path fill="none" stroke="midnightblue" d="M835.18,-333C843.88,-333 852.6,-333 860.72,-333"/>
<polygon fill="midnightblue" stroke="midnightblue" points="835.01,-329.5 825.01,-333 835.01,-336.5 835.01,-329.5"/>
</g>
<!-- Node3 -->
<g id="node3" class="node">
<title>Node3</title>
<g id="a_node3"><a xlink:href="classAxiStreamGearbox.html" target="_top" xlink:title=" ">
<polygon fill="white" stroke="black" points="555,-380.5 555,-399.5 677,-399.5 677,-380.5 555,-380.5"/>
<text text-anchor="middle" x="616" y="-387.5" font-family="Helvetica,sans-Serif" font-size="10.00">AxiStreamGearbox(2)</text>
</a>
</g>
</g>
<!-- Node3&#45;&gt;Node2 -->
<g id="edge2" class="edge">
<title>Node3&#45;&gt;Node2</title>
<path fill="none" stroke="midnightblue" d="M651.98,-376.8C679.7,-366.33 717.79,-351.95 742.64,-342.57"/>
<polygon fill="midnightblue" stroke="midnightblue" points="650.39,-373.65 642.27,-380.46 652.87,-380.2 650.39,-373.65"/>
</g>
<!-- Node4 -->
<g id="node4" class="node">
<title>Node4</title>
<g id="a_node4"><a xlink:href="classAxiStreamResize.html" target="_top" xlink:title=" ">
<polygon fill="white" stroke="black" points="419,-418.5 419,-437.5 519,-437.5 519,-418.5 419,-418.5"/>
<text text-anchor="middle" x="469" y="-425.5" font-family="Helvetica,sans-Serif" font-size="10.00">AxiStreamResize</text>
</a>
</g>
</g>
<!-- Node4&#45;&gt;Node3 -->
<g id="edge3" class="edge">
<title>Node4&#45;&gt;Node3</title>
<path fill="none" stroke="midnightblue" d="M516.49,-415.82C536.62,-410.54 559.84,-404.46 578.67,-399.52"/>
<polygon fill="midnightblue" stroke="midnightblue" points="515.38,-412.49 506.59,-418.41 517.15,-419.26 515.38,-412.49"/>
</g>
<!-- Node5 -->
<g id="node5" class="node">
<title>Node5</title>
<g id="a_node5"><a xlink:href="classAxiStreamPipeline.html" target="_top" xlink:title=" ">
<polygon fill="white" stroke="black" points="276,-399.5 276,-418.5 383,-418.5 383,-399.5 276,-399.5"/>
<text text-anchor="middle" x="329.5" y="-406.5" font-family="Helvetica,sans-Serif" font-size="10.00">AxiStreamPipeline</text>
</a>
</g>
</g>
<!-- Node5&#45;&gt;Node2 -->
<g id="edge27" class="edge">
<title>Node5&#45;&gt;Node2</title>
<path fill="none" stroke="midnightblue" d="M389.02,-397.57C399.01,-395.67 409.3,-393.75 419,-392 522.71,-373.28 644.09,-353.16 712.93,-341.92"/>
<polygon fill="midnightblue" stroke="midnightblue" points="388.32,-394.14 379.15,-399.45 389.63,-401.01 388.32,-394.14"/>
</g>
<!-- Node5&#45;&gt;Node3 -->
<g id="edge5" class="edge">
<title>Node5&#45;&gt;Node3</title>
<path fill="none" stroke="midnightblue" d="M393,-404.83C441.17,-401.61 507.36,-397.19 554.91,-394.01"/>
<polygon fill="midnightblue" stroke="midnightblue" points="392.76,-401.33 383.01,-405.49 393.22,-408.32 392.76,-401.33"/>
</g>
<!-- Node5&#45;&gt;Node4 -->
<g id="edge4" class="edge">
<title>Node5&#45;&gt;Node4</title>
<path fill="none" stroke="midnightblue" d="M393.23,-417.67C401.79,-418.85 410.48,-420.05 418.76,-421.2"/>
<polygon fill="midnightblue" stroke="midnightblue" points="393.65,-414.19 383.27,-416.29 392.69,-421.13 393.65,-414.19"/>
</g>
<!-- Node6 -->
<g id="node6" class="node">
<title>Node6</title>
<g id="a_node6"><a xlink:href="classFifoCascade.html" target="_top" xlink:title=" ">
<polygon fill="white" stroke="black" points="571.5,-304.5 571.5,-323.5 660.5,-323.5 660.5,-304.5 571.5,-304.5"/>
<text text-anchor="middle" x="616" y="-311.5" font-family="Helvetica,sans-Serif" font-size="10.00">FifoCascade(2)</text>
</a>
</g>
</g>
<!-- Node6&#45;&gt;Node2 -->
<g id="edge6" class="edge">
<title>Node6&#45;&gt;Node2</title>
<path fill="none" stroke="midnightblue" d="M670.87,-320.78C684.5,-322.49 699.16,-324.34 712.86,-326.06"/>
<polygon fill="midnightblue" stroke="midnightblue" points="671.03,-317.27 660.68,-319.5 670.16,-324.22 671.03,-317.27"/>
</g>
<!-- Node7 -->
<g id="node7" class="node">
<title>Node7</title>
<g id="a_node7"><a xlink:href="classFifo.html" target="_top" xlink:title=" ">
<polygon fill="white" stroke="black" points="445,-304.5 445,-323.5 493,-323.5 493,-304.5 445,-304.5"/>
<text text-anchor="middle" x="469" y="-311.5" font-family="Helvetica,sans-Serif" font-size="10.00">Fifo(4)</text>
</a>
</g>
</g>
<!-- Node7&#45;&gt;Node6 -->
<g id="edge7" class="edge">
<title>Node7&#45;&gt;Node6</title>
<path fill="none" stroke="midnightblue" d="M503.55,-314C523.7,-314 549.55,-314 571.29,-314"/>
<polygon fill="midnightblue" stroke="midnightblue" points="503.3,-310.5 493.3,-314 503.3,-317.5 503.3,-310.5"/>
</g>
<!-- Node8 -->
<g id="node8" class="node">
<title>Node8</title>
<g id="a_node8"><a xlink:href="classFifoXpm.html" target="_top" xlink:title=" ">
<polygon fill="white" stroke="black" points="301,-285.5 301,-304.5 358,-304.5 358,-285.5 301,-285.5"/>
<text text-anchor="middle" x="329.5" y="-292.5" font-family="Helvetica,sans-Serif" font-size="10.00">FifoXpm</text>
</a>
</g>
</g>
<!-- Node8&#45;&gt;Node7 -->
<g id="edge8" class="edge">
<title>Node8&#45;&gt;Node7</title>
<path fill="none" stroke="midnightblue" d="M368.36,-300.23C392.83,-303.61 423.9,-307.91 444.78,-310.79"/>
<polygon fill="midnightblue" stroke="midnightblue" points="368.71,-296.75 358.33,-298.84 367.75,-303.68 368.71,-296.75"/>
</g>
<!-- Node9 -->
<g id="node9" class="node">
<title>Node9</title>
<g id="a_node9"><a xlink:href="classFifoOutputPipeline.html" target="_top" xlink:title=" ">
<polygon fill="white" stroke="black" points="124.5,-247.5 124.5,-266.5 231.5,-266.5 231.5,-247.5 124.5,-247.5"/>
<text text-anchor="middle" x="178" y="-254.5" font-family="Helvetica,sans-Serif" font-size="10.00">FifoOutputPipeline</text>
</a>
</g>
</g>
<!-- Node9&#45;&gt;Node8 -->
<g id="edge9" class="edge">
<title>Node9&#45;&gt;Node8</title>
<path fill="none" stroke="midnightblue" d="M226.54,-269.08C250.98,-275.29 279.91,-282.65 300.7,-287.93"/>
<polygon fill="midnightblue" stroke="midnightblue" points="227.28,-265.66 216.73,-266.59 225.55,-272.44 227.28,-265.66"/>
</g>
<!-- Node10 -->
<g id="node10" class="node">
<title>Node10</title>
<g id="a_node10"><a xlink:href="classFifoAlteraMf.html" target="_top" xlink:title=" ">
<polygon fill="white" stroke="black" points="291,-247.5 291,-266.5 368,-266.5 368,-247.5 291,-247.5"/>
<text text-anchor="middle" x="329.5" y="-254.5" font-family="Helvetica,sans-Serif" font-size="10.00">FifoAlteraMf</text>
</a>
</g>
</g>
<!-- Node9&#45;&gt;Node10 -->
<g id="edge11" class="edge">
<title>Node9&#45;&gt;Node10</title>
<path fill="none" stroke="midnightblue" d="M241.93,-257C258.56,-257 275.99,-257 290.82,-257"/>
<polygon fill="midnightblue" stroke="midnightblue" points="241.71,-253.5 231.71,-257 241.71,-260.5 241.71,-253.5"/>
</g>
<!-- Node11 -->
<g id="node11" class="node">
<title>Node11</title>
<g id="a_node11"><a xlink:href="classFifoAsync.html" target="_top" xlink:title=" ">
<polygon fill="white" stroke="black" points="297.5,-361.5 297.5,-380.5 361.5,-380.5 361.5,-361.5 297.5,-361.5"/>
<text text-anchor="middle" x="329.5" y="-368.5" font-family="Helvetica,sans-Serif" font-size="10.00">FifoAsync</text>
</a>
</g>
</g>
<!-- Node9&#45;&gt;Node11 -->
<g id="edge20" class="edge">
<title>Node9&#45;&gt;Node11</title>
<path fill="none" stroke="midnightblue" d="M233.77,-271.38C235.97,-272.78 238.06,-274.31 240,-276 268.22,-300.51 248.34,-326.86 276,-352 282.02,-357.48 289.75,-361.41 297.41,-364.21"/>
<polygon fill="midnightblue" stroke="midnightblue" points="235.34,-268.24 224.87,-266.62 232.04,-274.42 235.34,-268.24"/>
</g>
<!-- Node19 -->
<g id="node19" class="node">
<title>Node19</title>
<g id="a_node19"><a xlink:href="classFifoSync.html" target="_top" xlink:title=" ">
<polygon fill="white" stroke="black" points="300.5,-323.5 300.5,-342.5 358.5,-342.5 358.5,-323.5 300.5,-323.5"/>
<text text-anchor="middle" x="329.5" y="-330.5" font-family="Helvetica,sans-Serif" font-size="10.00">FifoSync</text>
</a>
</g>
</g>
<!-- Node9&#45;&gt;Node19 -->
<g id="edge25" class="edge">
<title>Node9&#45;&gt;Node19</title>
<path fill="none" stroke="midnightblue" d="M229.35,-270.36C233.06,-272.04 236.65,-273.92 240,-276 259.75,-288.3 256.54,-301.25 276,-314 283.38,-318.83 292.15,-322.63 300.38,-325.52"/>
<polygon fill="midnightblue" stroke="midnightblue" points="230.56,-267.08 219.98,-266.58 227.94,-273.57 230.56,-267.08"/>
</g>
<!-- Node10&#45;&gt;Node7 -->
<g id="edge10" class="edge">
<title>Node10&#45;&gt;Node7</title>
<path fill="none" stroke="midnightblue" d="M367.85,-270.13C372.96,-272.04 378.13,-274.03 383,-276 405.33,-285.02 430.46,-296.41 447.57,-304.36"/>
<polygon fill="midnightblue" stroke="midnightblue" points="368.76,-266.74 358.16,-266.58 366.35,-273.31 368.76,-266.74"/>
</g>
<!-- Node11&#45;&gt;Node7 -->
<g id="edge12" class="edge">
<title>Node11&#45;&gt;Node7</title>
<path fill="none" stroke="midnightblue" d="M367.85,-357.87C372.96,-355.96 378.13,-353.97 383,-352 405.33,-342.98 430.46,-331.59 447.57,-323.64"/>
<polygon fill="midnightblue" stroke="midnightblue" points="366.35,-354.69 358.16,-361.42 368.76,-361.26 366.35,-354.69"/>
</g>
<!-- Node12 -->
<g id="node12" class="node">
<title>Node12</title>
<g id="a_node12"><a xlink:href="classRstSync.html" target="_top" xlink:title=" ">
<polygon fill="white" stroke="black" points="143.5,-399.5 143.5,-418.5 212.5,-418.5 212.5,-399.5 143.5,-399.5"/>
<text text-anchor="middle" x="178" y="-406.5" font-family="Helvetica,sans-Serif" font-size="10.00">RstSync(2)</text>
</a>
</g>
</g>
<!-- Node12&#45;&gt;Node11 -->
<g id="edge13" class="edge">
<title>Node12&#45;&gt;Node11</title>
<path fill="none" stroke="midnightblue" d="M222.47,-397.95C246.45,-391.86 275.67,-384.43 297.36,-378.92"/>
<polygon fill="midnightblue" stroke="midnightblue" points="221.38,-394.62 212.55,-400.47 223.1,-401.4 221.38,-394.62"/>
</g>
<!-- Node13 -->
<g id="node13" class="node">
<title>Node13</title>
<g id="a_node13"><a xlink:href="classSynchronizer.html" target="_top" xlink:title=" ">
<polygon fill="white" stroke="black" points="0,-304.5 0,-323.5 80,-323.5 80,-304.5 0,-304.5"/>
<text text-anchor="middle" x="40" y="-311.5" font-family="Helvetica,sans-Serif" font-size="10.00">Synchronizer</text>
</a>
</g>
</g>
<!-- Node13&#45;&gt;Node2 -->
<g id="edge26" class="edge">
<title>Node13&#45;&gt;Node2</title>
<path fill="none" stroke="midnightblue" d="M52.97,-295.9C66.08,-277.77 88.87,-250.79 116,-238 201.77,-197.56 233.68,-219 328.5,-219 328.5,-219 328.5,-219 470,-219 586.6,-219 712.93,-296.08 754.16,-323.48"/>
<polygon fill="midnightblue" stroke="midnightblue" points="49.86,-294.24 47.03,-304.45 55.61,-298.23 49.86,-294.24"/>
</g>
<!-- Node13&#45;&gt;Node12 -->
<g id="edge14" class="edge">
<title>Node13&#45;&gt;Node12</title>
<path fill="none" stroke="midnightblue" d="M54.24,-331.78C67.92,-348.99 90.79,-374.65 116,-390 124.34,-395.08 134.15,-398.91 143.44,-401.75"/>
<polygon fill="midnightblue" stroke="midnightblue" points="56.84,-329.43 47.96,-323.66 51.3,-333.71 56.84,-329.43"/>
</g>
<!-- Node14 -->
<g id="node14" class="node">
<title>Node14</title>
<g id="a_node14"><a xlink:href="classSynchronizerVector.html" target="_top" xlink:title=" ">
<polygon fill="white" stroke="black" points="116,-475.5 116,-494.5 240,-494.5 240,-475.5 116,-475.5"/>
<text text-anchor="middle" x="178" y="-482.5" font-family="Helvetica,sans-Serif" font-size="10.00">SynchronizerVector(2)</text>
</a>
</g>
</g>
<!-- Node14&#45;&gt;Node11 -->
<g id="edge15" class="edge">
<title>Node14&#45;&gt;Node11</title>
<path fill="none" stroke="midnightblue" d="M233.77,-470.62C235.97,-469.22 238.06,-467.69 240,-466 268.22,-441.49 248.34,-415.14 276,-390 282.02,-384.52 289.75,-380.59 297.41,-377.79"/>
<polygon fill="midnightblue" stroke="midnightblue" points="232.04,-467.58 224.87,-475.38 235.34,-473.76 232.04,-467.58"/>
</g>
<!-- Node15 -->
<g id="node15" class="node">
<title>Node15</title>
<g id="a_node15"><a xlink:href="classSynchronizer.html" target="_top" xlink:title=" ">
<polygon fill="white" stroke="black" points="131.5,-437.5 131.5,-456.5 224.5,-456.5 224.5,-437.5 131.5,-437.5"/>
<text text-anchor="middle" x="178" y="-444.5" font-family="Helvetica,sans-Serif" font-size="10.00">Synchronizer(2)</text>
</a>
</g>
</g>
<!-- Node15&#45;&gt;Node11 -->
<g id="edge16" class="edge">
<title>Node15&#45;&gt;Node11</title>
<path fill="none" stroke="midnightblue" d="M229.35,-433.64C233.06,-431.96 236.65,-430.08 240,-428 259.75,-415.7 256.54,-402.75 276,-390 282.49,-385.75 290.05,-382.3 297.37,-379.57"/>
<polygon fill="midnightblue" stroke="midnightblue" points="227.94,-430.43 219.98,-437.42 230.56,-436.92 227.94,-430.43"/>
</g>
<!-- Node16 -->
<g id="node16" class="node">
<title>Node16</title>
<g id="a_node16"><a xlink:href="classFifoWrFsm.html" target="_top" xlink:title=" ">
<polygon fill="white" stroke="black" points="143.5,-285.5 143.5,-304.5 212.5,-304.5 212.5,-285.5 143.5,-285.5"/>
<text text-anchor="middle" x="178" y="-292.5" font-family="Helvetica,sans-Serif" font-size="10.00">FifoWrFsm</text>
</a>
</g>
</g>
<!-- Node16&#45;&gt;Node11 -->
<g id="edge17" class="edge">
<title>Node16&#45;&gt;Node11</title>
<path fill="none" stroke="midnightblue" d="M222.31,-305.44C228.48,-307.79 234.56,-310.61 240,-314 259.75,-326.3 256.54,-339.25 276,-352 282.49,-356.25 290.05,-359.7 297.37,-362.43"/>
<polygon fill="midnightblue" stroke="midnightblue" points="223.22,-302.06 212.63,-302.14 220.96,-308.68 223.22,-302.06"/>
</g>
<!-- Node16&#45;&gt;Node19 -->
<g id="edge22" class="edge">
<title>Node16&#45;&gt;Node19</title>
<path fill="none" stroke="midnightblue" d="M222.52,-306.06C247.51,-312.41 278.18,-320.21 300.09,-325.78"/>
<polygon fill="midnightblue" stroke="midnightblue" points="223.1,-302.6 212.55,-303.53 221.38,-309.38 223.1,-302.6"/>
</g>
<!-- Node17 -->
<g id="node17" class="node">
<title>Node17</title>
<g id="a_node17"><a xlink:href="classFifoRdFsm.html" target="_top" xlink:title=" ">
<polygon fill="white" stroke="black" points="144,-361.5 144,-380.5 212,-380.5 212,-361.5 144,-361.5"/>
<text text-anchor="middle" x="178" y="-368.5" font-family="Helvetica,sans-Serif" font-size="10.00">FifoRdFsm</text>
</a>
</g>
</g>
<!-- Node17&#45;&gt;Node11 -->
<g id="edge18" class="edge">
<title>Node17&#45;&gt;Node11</title>
<path fill="none" stroke="midnightblue" d="M222.45,-371C246.47,-371 275.75,-371 297.46,-371"/>
<polygon fill="midnightblue" stroke="midnightblue" points="222.18,-367.5 212.18,-371 222.18,-374.5 222.18,-367.5"/>
</g>
<!-- Node17&#45;&gt;Node19 -->
<g id="edge23" class="edge">
<title>Node17&#45;&gt;Node19</title>
<path fill="none" stroke="midnightblue" d="M221.88,-360.1C247.12,-353.69 278.32,-345.75 300.44,-340.13"/>
<polygon fill="midnightblue" stroke="midnightblue" points="221.01,-356.71 212.18,-362.57 222.73,-363.5 221.01,-356.71"/>
</g>
<!-- Node18 -->
<g id="node18" class="node">
<title>Node18</title>
<g id="a_node18"><a xlink:href="classSimpleDualPortRam.html" target="_top" xlink:title=" ">
<polygon fill="white" stroke="black" points="120.5,-323.5 120.5,-342.5 235.5,-342.5 235.5,-323.5 120.5,-323.5"/>
<text text-anchor="middle" x="178" y="-330.5" font-family="Helvetica,sans-Serif" font-size="10.00">SimpleDualPortRam</text>
</a>
</g>
</g>
<!-- Node18&#45;&gt;Node11 -->
<g id="edge19" class="edge">
<title>Node18&#45;&gt;Node11</title>
<path fill="none" stroke="midnightblue" d="M226.69,-345.12C249.81,-351 276.91,-357.89 297.34,-363.08"/>
<polygon fill="midnightblue" stroke="midnightblue" points="227.28,-341.66 216.73,-342.59 225.55,-348.44 227.28,-341.66"/>
</g>
<!-- Node18&#45;&gt;Node19 -->
<g id="edge24" class="edge">
<title>Node18&#45;&gt;Node19</title>
<path fill="none" stroke="midnightblue" d="M245.78,-333C264.98,-333 284.9,-333 300.37,-333"/>
<polygon fill="midnightblue" stroke="midnightblue" points="245.52,-329.5 235.52,-333 245.52,-336.5 245.52,-329.5"/>
</g>
<!-- Node19&#45;&gt;Node7 -->
<g id="edge21" class="edge">
<title>Node19&#45;&gt;Node7</title>
<path fill="none" stroke="midnightblue" d="M368.7,-327.72C393.16,-324.34 424.11,-320.07 444.9,-317.19"/>
<polygon fill="midnightblue" stroke="midnightblue" points="368.08,-324.27 358.66,-329.11 369.04,-331.21 368.08,-324.27"/>
</g>
<!-- Node21 -->
<g id="node21" class="node">
<title>Node21</title>
<g id="a_node21"><a xlink:href="classEthMacFastTb.html" target="_top" xlink:title=" ">
<polygon fill="white" stroke="black" points="1109.5,-646.5 1109.5,-665.5 1193.5,-665.5 1193.5,-646.5 1109.5,-646.5"/>
<text text-anchor="middle" x="1151.5" y="-653.5" font-family="Helvetica,sans-Serif" font-size="10.00">EthMacFastTb</text>
</a>
</g>
</g>
<!-- Node20&#45;&gt;Node21 -->
<g id="edge29" class="edge">
<title>Node20&#45;&gt;Node21</title>
<path fill="none" stroke="midnightblue" d="M1017.43,-352.88C1023.73,-413.63 1045.55,-595.21 1085,-637 1091.5,-643.89 1100.34,-648.33 1109.41,-651.17"/>
<polygon fill="midnightblue" stroke="midnightblue" points="1020.89,-352.31 1016.41,-342.71 1013.93,-353.01 1020.89,-352.31"/>
</g>
<!-- Node22 -->
<g id="node22" class="node">
<title>Node22</title>
<g id="a_node22"><a xlink:href="classEthMacPauseTb.html" target="_top" xlink:title=" ">
<polygon fill="white" stroke="black" points="1105,-608.5 1105,-627.5 1198,-627.5 1198,-608.5 1105,-608.5"/>
<text text-anchor="middle" x="1151.5" y="-615.5" font-family="Helvetica,sans-Serif" font-size="10.00">EthMacPauseTb</text>
</a>
</g>
</g>
<!-- Node20&#45;&gt;Node22 -->
<g id="edge30" class="edge">
<title>Node20&#45;&gt;Node22</title>
<path fill="none" stroke="midnightblue" d="M1018.09,-352.55C1025.77,-407.75 1050.11,-563.17 1085,-599 1090.45,-604.6 1097.45,-608.57 1104.82,-611.39"/>
<polygon fill="midnightblue" stroke="midnightblue" points="1021.55,-352.07 1016.74,-342.63 1014.62,-353.01 1021.55,-352.07"/>
</g>
<!-- Node23 -->
<g id="node23" class="node">
<title>Node23</title>
<g id="a_node23"><a xlink:href="classEthMacTb.html" target="_top" xlink:title=" ">
<polygon fill="white" stroke="black" points="1119,-570.5 1119,-589.5 1184,-589.5 1184,-570.5 1119,-570.5"/>
<text text-anchor="middle" x="1151.5" y="-577.5" font-family="Helvetica,sans-Serif" font-size="10.00">EthMacTb</text>
</a>
</g>
</g>
<!-- Node20&#45;&gt;Node23 -->
<g id="edge31" class="edge">
<title>Node20&#45;&gt;Node23</title>
<path fill="none" stroke="midnightblue" d="M1015.58,-353.14C1016.88,-397.26 1026.32,-503.11 1085,-561 1094.02,-569.9 1106.94,-574.68 1118.93,-577.23"/>
<polygon fill="midnightblue" stroke="midnightblue" points="1019.07,-352.81 1015.4,-342.87 1012.08,-352.93 1019.07,-352.81"/>
</g>
<!-- Node24 -->
<g id="node24" class="node">
<title>Node24</title>
<g id="a_node24"><a xlink:href="classGigEthGth7.html" target="_top" xlink:title=" ">
<polygon fill="white" stroke="black" points="1115.5,-532.5 1115.5,-551.5 1187.5,-551.5 1187.5,-532.5 1115.5,-532.5"/>
<text text-anchor="middle" x="1151.5" y="-539.5" font-family="Helvetica,sans-Serif" font-size="10.00">GigEthGth7</text>
</a>
</g>
</g>
<!-- Node20&#45;&gt;Node24 -->
<g id="edge32" class="edge">
<title>Node20&#45;&gt;Node24</title>
<path fill="none" stroke="midnightblue" d="M1017,-352.89C1020.97,-391.41 1035.22,-476.51 1085,-523 1093.31,-530.76 1104.6,-535.37 1115.46,-538.1"/>
<polygon fill="midnightblue" stroke="midnightblue" points="1020.45,-352.17 1016.06,-342.52 1013.47,-352.8 1020.45,-352.17"/>
</g>
<!-- Node26 -->
<g id="node26" class="node">
<title>Node26</title>
<g id="a_node26"><a xlink:href="classGigEthGthUltraScale.html" target="_top" xlink:title=" ">
<polygon fill="white" stroke="black" points="1093.5,-494.5 1093.5,-513.5 1209.5,-513.5 1209.5,-494.5 1093.5,-494.5"/>
<text text-anchor="middle" x="1151.5" y="-501.5" font-family="Helvetica,sans-Serif" font-size="10.00">GigEthGthUltraScale</text>
</a>
</g>
</g>
<!-- Node20&#45;&gt;Node26 -->
<g id="edge34" class="edge">
<title>Node20&#45;&gt;Node26</title>
<path fill="none" stroke="midnightblue" d="M1019.08,-352.94C1025.96,-385.43 1044.13,-449.72 1085,-485 1089.48,-488.87 1094.71,-491.95 1100.23,-494.41"/>
<polygon fill="midnightblue" stroke="midnightblue" points="1022.46,-352 1017.1,-342.87 1015.59,-353.36 1022.46,-352"/>
</g>
<!-- Node28 -->
<g id="node28" class="node">
<title>Node28</title>
<g id="a_node28"><a xlink:href="classGigEthGtp7.html" target="_top" xlink:title=" ">
<polygon fill="white" stroke="black" points="1115.5,-456.5 1115.5,-475.5 1187.5,-475.5 1187.5,-456.5 1115.5,-456.5"/>
<text text-anchor="middle" x="1151.5" y="-463.5" font-family="Helvetica,sans-Serif" font-size="10.00">GigEthGtp7</text>
</a>
</g>
</g>
<!-- Node20&#45;&gt;Node28 -->
<g id="edge36" class="edge">
<title>Node20&#45;&gt;Node28</title>
<path fill="none" stroke="midnightblue" d="M1022.15,-352.23C1031.93,-377.69 1052.62,-422.24 1085,-447 1093.75,-453.69 1104.78,-458.03 1115.29,-460.84"/>
<polygon fill="midnightblue" stroke="midnightblue" points="1025.35,-350.79 1018.62,-342.61 1018.77,-353.2 1025.35,-350.79"/>
</g>
<!-- Node30 -->
<g id="node30" class="node">
<title>Node30</title>
<g id="a_node30"><a xlink:href="classGigEthGtx7.html" target="_top" xlink:title=" ">
<polygon fill="white" stroke="black" points="1115.5,-418.5 1115.5,-437.5 1187.5,-437.5 1187.5,-418.5 1115.5,-418.5"/>
<text text-anchor="middle" x="1151.5" y="-425.5" font-family="Helvetica,sans-Serif" font-size="10.00">GigEthGtx7</text>
</a>
</g>
</g>
<!-- Node20&#45;&gt;Node30 -->
<g id="edge38" class="edge">
<title>Node20&#45;&gt;Node30</title>
<path fill="none" stroke="midnightblue" d="M1027.76,-351.4C1040.21,-368.7 1061.04,-394.11 1085,-409 1094.15,-414.69 1105.07,-418.73 1115.35,-421.58"/>
<polygon fill="midnightblue" stroke="midnightblue" points="1030.32,-348.95 1021.74,-342.74 1024.57,-352.95 1030.32,-348.95"/>
</g>
<!-- Node32 -->
<g id="node32" class="node">
<title>Node32</title>
<g id="a_node32"><a xlink:href="classGigEthGtyUltraScale.html" target="_top" xlink:title=" ">
<polygon fill="white" stroke="black" points="1093.5,-380.5 1093.5,-399.5 1209.5,-399.5 1209.5,-380.5 1093.5,-380.5"/>
<text text-anchor="middle" x="1151.5" y="-387.5" font-family="Helvetica,sans-Serif" font-size="10.00">GigEthGtyUltraScale</text>
</a>
</g>
</g>
<!-- Node20&#45;&gt;Node32 -->
<g id="edge40" class="edge">
<title>Node20&#45;&gt;Node32</title>
<path fill="none" stroke="midnightblue" d="M1039.59,-347.87C1052.68,-355.51 1069.35,-364.54 1085,-371 1093.65,-374.57 1103.19,-377.74 1112.26,-380.43"/>
<polygon fill="midnightblue" stroke="midnightblue" points="1041.14,-344.72 1030.75,-342.61 1037.55,-350.73 1041.14,-344.72"/>
</g>
<!-- Node34 -->
<g id="node34" class="node">
<title>Node34</title>
<g id="a_node34"><a xlink:href="classGigEthLvdsUltraScale.html" target="_top" xlink:title=" ">
<polygon fill="white" stroke="black" points="1090.5,-342.5 1090.5,-361.5 1212.5,-361.5 1212.5,-342.5 1090.5,-342.5"/>
<text text-anchor="middle" x="1151.5" y="-349.5" font-family="Helvetica,sans-Serif" font-size="10.00">GigEthLvdsUltraScale</text>
</a>
</g>
</g>
<!-- Node20&#45;&gt;Node34 -->
<g id="edge42" class="edge">
<title>Node20&#45;&gt;Node34</title>
<path fill="none" stroke="midnightblue" d="M1059.25,-339.16C1069.2,-340.56 1079.93,-342.07 1090.43,-343.55"/>
<polygon fill="midnightblue" stroke="midnightblue" points="1059.61,-335.67 1049.22,-337.75 1058.63,-342.61 1059.61,-335.67"/>
</g>
<!-- Node38 -->
<g id="node36" class="node">
<title>Node38</title>
<g id="a_node36"><a xlink:href="classTenGigEthGth7.html" target="_top" xlink:title=" ">
<polygon fill="white" stroke="black" points="1107,-304.5 1107,-323.5 1196,-323.5 1196,-304.5 1107,-304.5"/>
<text text-anchor="middle" x="1151.5" y="-311.5" font-family="Helvetica,sans-Serif" font-size="10.00">TenGigEthGth7</text>
</a>
</g>
</g>
<!-- Node20&#45;&gt;Node38 -->
<g id="edge44" class="edge">
<title>Node20&#45;&gt;Node38</title>
<path fill="none" stroke="midnightblue" d="M1059.4,-326.82C1074.58,-324.68 1091.59,-322.29 1106.77,-320.15"/>
<polygon fill="midnightblue" stroke="midnightblue" points="1058.63,-323.39 1049.22,-328.25 1059.61,-330.33 1058.63,-323.39"/>
</g>
<!-- Node40 -->
<g id="node38" class="node">
<title>Node40</title>
<g id="a_node38"><a xlink:href="classTenGigEthGthUltraScale.html" target="_top" xlink:title=" ">
<polygon fill="white" stroke="black" points="1085,-266.5 1085,-285.5 1218,-285.5 1218,-266.5 1085,-266.5"/>
<text text-anchor="middle" x="1151.5" y="-273.5" font-family="Helvetica,sans-Serif" font-size="10.00">TenGigEthGthUltraScale</text>
</a>
</g>
</g>
<!-- Node20&#45;&gt;Node40 -->
<g id="edge46" class="edge">
<title>Node20&#45;&gt;Node40</title>
<path fill="none" stroke="midnightblue" d="M1039.59,-318.13C1052.68,-310.49 1069.35,-301.46 1085,-295 1093.65,-291.43 1103.19,-288.26 1112.26,-285.57"/>
<polygon fill="midnightblue" stroke="midnightblue" points="1037.55,-315.27 1030.75,-323.39 1041.14,-321.28 1037.55,-315.27"/>
</g>
<!-- Node42 -->
<g id="node40" class="node">
<title>Node42</title>
<g id="a_node40"><a xlink:href="classTenGigEthGtx7.html" target="_top" xlink:title=" ">
<polygon fill="white" stroke="black" points="1107,-228.5 1107,-247.5 1196,-247.5 1196,-228.5 1107,-228.5"/>
<text text-anchor="middle" x="1151.5" y="-235.5" font-family="Helvetica,sans-Serif" font-size="10.00">TenGigEthGtx7</text>
</a>
</g>
</g>
<!-- Node20&#45;&gt;Node42 -->
<g id="edge48" class="edge">
<title>Node20&#45;&gt;Node42</title>
<path fill="none" stroke="midnightblue" d="M1027.76,-314.6C1040.21,-297.3 1061.04,-271.89 1085,-257 1091.64,-252.87 1099.21,-249.61 1106.78,-247.04"/>
<polygon fill="midnightblue" stroke="midnightblue" points="1024.57,-313.05 1021.74,-323.26 1030.32,-317.05 1024.57,-313.05"/>
</g>
<!-- Node44 -->
<g id="node42" class="node">
<title>Node44</title>
<g id="a_node42"><a xlink:href="classTenGigEthGtyUltraScale.html" target="_top" xlink:title=" ">
<polygon fill="white" stroke="black" points="1085,-190.5 1085,-209.5 1218,-209.5 1218,-190.5 1085,-190.5"/>
<text text-anchor="middle" x="1151.5" y="-197.5" font-family="Helvetica,sans-Serif" font-size="10.00">TenGigEthGtyUltraScale</text>
</a>
</g>
</g>
<!-- Node20&#45;&gt;Node44 -->
<g id="edge50" class="edge">
<title>Node20&#45;&gt;Node44</title>
<path fill="none" stroke="midnightblue" d="M1022.15,-313.77C1031.93,-288.31 1052.62,-243.76 1085,-219 1090.08,-215.12 1095.93,-212.03 1102,-209.57"/>
<polygon fill="midnightblue" stroke="midnightblue" points="1018.77,-312.8 1018.62,-323.39 1025.35,-315.21 1018.77,-312.8"/>
</g>
<!-- Node46 -->
<g id="node44" class="node">
<title>Node46</title>
<g id="a_node44"><a xlink:href="classUdpEngineTb.html" target="_top" xlink:title=" ">
<polygon fill="white" stroke="black" points="1111,-152.5 1111,-171.5 1192,-171.5 1192,-152.5 1111,-152.5"/>
<text text-anchor="middle" x="1151.5" y="-159.5" font-family="Helvetica,sans-Serif" font-size="10.00">UdpEngineTb</text>
</a>
</g>
</g>
<!-- Node20&#45;&gt;Node46 -->
<g id="edge52" class="edge">
<title>Node20&#45;&gt;Node46</title>
<path fill="none" stroke="midnightblue" d="M1019.08,-313.06C1025.96,-280.57 1044.13,-216.28 1085,-181 1092.26,-174.73 1101.48,-170.53 1110.7,-167.71"/>
<polygon fill="midnightblue" stroke="midnightblue" points="1015.59,-312.64 1017.1,-323.13 1022.46,-314 1015.59,-312.64"/>
</g>
<!-- Node47 -->
<g id="node45" class="node">
<title>Node47</title>
<g id="a_node45"><a xlink:href="classXauiGth7.html" target="_top" xlink:title=" ">
<polygon fill="white" stroke="black" points="1120.5,-114.5 1120.5,-133.5 1182.5,-133.5 1182.5,-114.5 1120.5,-114.5"/>
<text text-anchor="middle" x="1151.5" y="-121.5" font-family="Helvetica,sans-Serif" font-size="10.00">XauiGth7</text>
</a>
</g>
</g>
<!-- Node20&#45;&gt;Node47 -->
<g id="edge53" class="edge">
<title>Node20&#45;&gt;Node47</title>
<path fill="none" stroke="midnightblue" d="M1017,-313.11C1020.97,-274.59 1035.22,-189.49 1085,-143 1094.52,-134.11 1107.95,-129.35 1120.18,-126.82"/>
<polygon fill="midnightblue" stroke="midnightblue" points="1013.47,-313.2 1016.06,-323.48 1020.45,-313.83 1013.47,-313.2"/>
</g>
<!-- Node49 -->
<g id="node47" class="node">
<title>Node49</title>
<g id="a_node47"><a xlink:href="classXauiGthUltraScale.html" target="_top" xlink:title=" ">
<polygon fill="white" stroke="red" points="1098.5,-76.5 1098.5,-95.5 1204.5,-95.5 1204.5,-76.5 1098.5,-76.5"/>
<text text-anchor="middle" x="1151.5" y="-83.5" font-family="Helvetica,sans-Serif" font-size="10.00">XauiGthUltraScale</text>
</a>
</g>
</g>
<!-- Node20&#45;&gt;Node49 -->
<g id="edge55" class="edge">
<title>Node20&#45;&gt;Node49</title>
<path fill="none" stroke="midnightblue" d="M1015.58,-312.86C1016.88,-268.74 1026.32,-162.89 1085,-105 1088.88,-101.17 1093.48,-98.11 1098.41,-95.66"/>
<polygon fill="midnightblue" stroke="midnightblue" points="1012.08,-313.07 1015.4,-323.13 1019.07,-313.19 1012.08,-313.07"/>
</g>
<!-- Node51 -->
<g id="node48" class="node">
<title>Node51</title>
<g id="a_node48"><a xlink:href="classXauiGtx7.html" target="_top" xlink:title=" ">
<polygon fill="white" stroke="red" points="1120.5,-38.5 1120.5,-57.5 1182.5,-57.5 1182.5,-38.5 1120.5,-38.5"/>
<text text-anchor="middle" x="1151.5" y="-45.5" font-family="Helvetica,sans-Serif" font-size="10.00">XauiGtx7</text>
</a>
</g>
</g>
<!-- Node20&#45;&gt;Node51 -->
<g id="edge56" class="edge">
<title>Node20&#45;&gt;Node51</title>
<path fill="none" stroke="midnightblue" d="M1018.09,-313.45C1025.77,-258.25 1050.11,-102.83 1085,-67 1094.25,-57.5 1107.94,-52.67 1120.42,-50.25"/>
<polygon fill="midnightblue" stroke="midnightblue" points="1014.62,-312.99 1016.74,-323.37 1021.55,-313.93 1014.62,-312.99"/>
</g>
<!-- Node53 -->
<g id="node49" class="node">
<title>Node53</title>
<g id="a_node49"><a xlink:href="classXauiGtyUltraScale.html" target="_top" xlink:title=" ">
<polygon fill="white" stroke="red" points="1098.5,-0.5 1098.5,-19.5 1204.5,-19.5 1204.5,-0.5 1098.5,-0.5"/>
<text text-anchor="middle" x="1151.5" y="-7.5" font-family="Helvetica,sans-Serif" font-size="10.00">XauiGtyUltraScale</text>
</a>
</g>
</g>
<!-- Node20&#45;&gt;Node53 -->
<g id="edge57" class="edge">
<title>Node20&#45;&gt;Node53</title>
<path fill="none" stroke="midnightblue" d="M1017.43,-313.12C1023.73,-252.37 1045.55,-70.79 1085,-29 1088.82,-24.95 1093.45,-21.75 1098.45,-19.22"/>
<polygon fill="midnightblue" stroke="midnightblue" points="1013.93,-312.99 1016.41,-323.29 1020.89,-313.69 1013.93,-312.99"/>
</g>
<!-- Node25 -->
<g id="node25" class="node">
<title>Node25</title>
<g id="a_node25"><a xlink:href="classGigEthGth7Wrapper.html" target="_top" xlink:title=" ">
<polygon fill="white" stroke="black" points="1284.5,-532.5 1284.5,-551.5 1397.5,-551.5 1397.5,-532.5 1284.5,-532.5"/>
<text text-anchor="middle" x="1341" y="-539.5" font-family="Helvetica,sans-Serif" font-size="10.00">GigEthGth7Wrapper</text>
</a>
</g>
</g>
<!-- Node24&#45;&gt;Node25 -->
<g id="edge33" class="edge">
<title>Node24&#45;&gt;Node25</title>
<path fill="none" stroke="midnightblue" d="M1198.08,-542C1224.04,-542 1256.77,-542 1284.25,-542"/>
<polygon fill="midnightblue" stroke="midnightblue" points="1197.77,-538.5 1187.77,-542 1197.77,-545.5 1197.77,-538.5"/>
</g>
<!-- Node27 -->
<g id="node27" class="node">
<title>Node27</title>
<g id="a_node27"><a xlink:href="classGigEthGthUltraScaleWrapper.html" target="_top" xlink:title=" ">
<polygon fill="white" stroke="black" points="1262,-494.5 1262,-513.5 1420,-513.5 1420,-494.5 1262,-494.5"/>
<text text-anchor="middle" x="1341" y="-501.5" font-family="Helvetica,sans-Serif" font-size="10.00">GigEthGthUltraScaleWrapper</text>
</a>
</g>
</g>
<!-- Node26&#45;&gt;Node27 -->
<g id="edge35" class="edge">
<title>Node26&#45;&gt;Node27</title>
<path fill="none" stroke="midnightblue" d="M1219.77,-504C1233.4,-504 1247.85,-504 1261.82,-504"/>
<polygon fill="midnightblue" stroke="midnightblue" points="1219.52,-500.5 1209.52,-504 1219.52,-507.5 1219.52,-500.5"/>
</g>
<!-- Node29 -->
<g id="node29" class="node">
<title>Node29</title>
<g id="a_node29"><a xlink:href="classGigEthGtp7Wrapper.html" target="_top" xlink:title=" ">
<polygon fill="white" stroke="black" points="1284.5,-456.5 1284.5,-475.5 1397.5,-475.5 1397.5,-456.5 1284.5,-456.5"/>
<text text-anchor="middle" x="1341" y="-463.5" font-family="Helvetica,sans-Serif" font-size="10.00">GigEthGtp7Wrapper</text>
</a>
</g>
</g>
<!-- Node28&#45;&gt;Node29 -->
<g id="edge37" class="edge">
<title>Node28&#45;&gt;Node29</title>
<path fill="none" stroke="midnightblue" d="M1198.08,-466C1224.04,-466 1256.77,-466 1284.25,-466"/>
<polygon fill="midnightblue" stroke="midnightblue" points="1197.77,-462.5 1187.77,-466 1197.77,-469.5 1197.77,-462.5"/>
</g>
<!-- Node31 -->
<g id="node31" class="node">
<title>Node31</title>
<g id="a_node31"><a xlink:href="classGigEthGtx7Wrapper.html" target="_top" xlink:title=" ">
<polygon fill="white" stroke="black" points="1284.5,-418.5 1284.5,-437.5 1397.5,-437.5 1397.5,-418.5 1284.5,-418.5"/>
<text text-anchor="middle" x="1341" y="-425.5" font-family="Helvetica,sans-Serif" font-size="10.00">GigEthGtx7Wrapper</text>
</a>
</g>
</g>
<!-- Node30&#45;&gt;Node31 -->
<g id="edge39" class="edge">
<title>Node30&#45;&gt;Node31</title>
<path fill="none" stroke="midnightblue" d="M1198.08,-428C1224.04,-428 1256.77,-428 1284.25,-428"/>
<polygon fill="midnightblue" stroke="midnightblue" points="1197.77,-424.5 1187.77,-428 1197.77,-431.5 1197.77,-424.5"/>
</g>
<!-- Node33 -->
<g id="node33" class="node">
<title>Node33</title>
<g id="a_node33"><a xlink:href="classGigEthGtyUltraScaleWrapper.html" target="_top" xlink:title=" ">
<polygon fill="white" stroke="black" points="1262,-380.5 1262,-399.5 1420,-399.5 1420,-380.5 1262,-380.5"/>
<text text-anchor="middle" x="1341" y="-387.5" font-family="Helvetica,sans-Serif" font-size="10.00">GigEthGtyUltraScaleWrapper</text>
</a>
</g>
</g>
<!-- Node32&#45;&gt;Node33 -->
<g id="edge41" class="edge">
<title>Node32&#45;&gt;Node33</title>
<path fill="none" stroke="midnightblue" d="M1219.77,-390C1233.4,-390 1247.85,-390 1261.82,-390"/>
<polygon fill="midnightblue" stroke="midnightblue" points="1219.52,-386.5 1209.52,-390 1219.52,-393.5 1219.52,-386.5"/>
</g>
<!-- Node35 -->
<g id="node35" class="node">
<title>Node35</title>
<g id="a_node35"><a xlink:href="classGigEthLvdsUltraScaleWrapper.html" target="_top" xlink:title=" ">
<polygon fill="white" stroke="red" points="1259.5,-342.5 1259.5,-361.5 1422.5,-361.5 1422.5,-342.5 1259.5,-342.5"/>
<text text-anchor="middle" x="1341" y="-349.5" font-family="Helvetica,sans-Serif" font-size="10.00">GigEthLvdsUltraScaleWrapper</text>
</a>
</g>
</g>
<!-- Node34&#45;&gt;Node35 -->
<g id="edge43" class="edge">
<title>Node34&#45;&gt;Node35</title>
<path fill="none" stroke="midnightblue" d="M1222.9,-352C1234.8,-352 1247.24,-352 1259.38,-352"/>
<polygon fill="midnightblue" stroke="midnightblue" points="1222.6,-348.5 1212.6,-352 1222.6,-355.5 1222.6,-348.5"/>
</g>
<!-- Node39 -->
<g id="node37" class="node">
<title>Node39</title>
<g id="a_node37"><a xlink:href="classTenGigEthGth7Wrapper.html" target="_top" xlink:title=" ">
<polygon fill="white" stroke="black" points="1276,-304.5 1276,-323.5 1406,-323.5 1406,-304.5 1276,-304.5"/>
<text text-anchor="middle" x="1341" y="-311.5" font-family="Helvetica,sans-Serif" font-size="10.00">TenGigEthGth7Wrapper</text>
</a>
</g>
</g>
<!-- Node38&#45;&gt;Node39 -->
<g id="edge45" class="edge">
<title>Node38&#45;&gt;Node39</title>
<path fill="none" stroke="midnightblue" d="M1206.74,-314C1228.29,-314 1253.26,-314 1275.71,-314"/>
<polygon fill="midnightblue" stroke="midnightblue" points="1206.46,-310.5 1196.46,-314 1206.46,-317.5 1206.46,-310.5"/>
</g>
<!-- Node41 -->
<g id="node39" class="node">
<title>Node41</title>
<g id="a_node39"><a xlink:href="classTenGigEthGthUltraScaleWrapper.html" target="_top" xlink:title=" ">
<polygon fill="white" stroke="black" points="1254,-266.5 1254,-285.5 1428,-285.5 1428,-266.5 1254,-266.5"/>
<text text-anchor="middle" x="1341" y="-273.5" font-family="Helvetica,sans-Serif" font-size="10.00">TenGigEthGthUltraScaleWrapper</text>
</a>
</g>
</g>
<!-- Node40&#45;&gt;Node41 -->
<g id="edge47" class="edge">
<title>Node40&#45;&gt;Node41</title>
<path fill="none" stroke="midnightblue" d="M1228.2,-276C1236.59,-276 1245.19,-276 1253.7,-276"/>
<polygon fill="midnightblue" stroke="midnightblue" points="1228.08,-272.5 1218.08,-276 1228.08,-279.5 1228.08,-272.5"/>
</g>
<!-- Node43 -->
<g id="node41" class="node">
<title>Node43</title>
<g id="a_node41"><a xlink:href="classTenGigEthGtx7Wrapper.html" target="_top" xlink:title=" ">
<polygon fill="white" stroke="black" points="1276,-228.5 1276,-247.5 1406,-247.5 1406,-228.5 1276,-228.5"/>
<text text-anchor="middle" x="1341" y="-235.5" font-family="Helvetica,sans-Serif" font-size="10.00">TenGigEthGtx7Wrapper</text>
</a>
</g>
</g>
<!-- Node42&#45;&gt;Node43 -->
<g id="edge49" class="edge">
<title>Node42&#45;&gt;Node43</title>
<path fill="none" stroke="midnightblue" d="M1206.74,-238C1228.29,-238 1253.26,-238 1275.71,-238"/>
<polygon fill="midnightblue" stroke="midnightblue" points="1206.46,-234.5 1196.46,-238 1206.46,-241.5 1206.46,-234.5"/>
</g>
<!-- Node45 -->
<g id="node43" class="node">
<title>Node45</title>
<g id="a_node43"><a xlink:href="classTenGigEthGtyUltraScaleWrapper.html" target="_top" xlink:title=" ">
<polygon fill="white" stroke="black" points="1254,-190.5 1254,-209.5 1428,-209.5 1428,-190.5 1254,-190.5"/>
<text text-anchor="middle" x="1341" y="-197.5" font-family="Helvetica,sans-Serif" font-size="10.00">TenGigEthGtyUltraScaleWrapper</text>
</a>
</g>
</g>
<!-- Node44&#45;&gt;Node45 -->
<g id="edge51" class="edge">
<title>Node44&#45;&gt;Node45</title>
<path fill="none" stroke="midnightblue" d="M1228.2,-200C1236.59,-200 1245.19,-200 1253.7,-200"/>
<polygon fill="midnightblue" stroke="midnightblue" points="1228.08,-196.5 1218.08,-200 1228.08,-203.5 1228.08,-196.5"/>
</g>
<!-- Node48 -->
<g id="node46" class="node">
<title>Node48</title>
<g id="a_node46"><a xlink:href="classXauiGth7Wrapper.html" target="_top" xlink:title=" ">
<polygon fill="white" stroke="black" points="1289.5,-114.5 1289.5,-133.5 1392.5,-133.5 1392.5,-114.5 1289.5,-114.5"/>
<text text-anchor="middle" x="1341" y="-121.5" font-family="Helvetica,sans-Serif" font-size="10.00">XauiGth7Wrapper</text>
</a>
</g>
</g>
<!-- Node47&#45;&gt;Node48 -->
<g id="edge54" class="edge">
<title>Node47&#45;&gt;Node48</title>
<path fill="none" stroke="midnightblue" d="M1192.95,-124C1221.23,-124 1259.19,-124 1289.46,-124"/>
<polygon fill="midnightblue" stroke="midnightblue" points="1192.63,-120.5 1182.63,-124 1192.63,-127.5 1192.63,-120.5"/>
</g>
</g>
</svg>
