<?xml version="1.0" encoding="UTF-8" standalone="no"?>
<!DOCTYPE svg PUBLIC "-//W3C//DTD SVG 1.1//EN"
 "http://www.w3.org/Graphics/SVG/1.1/DTD/svg11.dtd">
<!-- Generated by graphviz version 2.43.0 (0)
 -->
<!-- Title: Pgp3RxGearboxAligner Pages: 1 -->
<!--zoomable 572 -->

<svg id="main" version="1.1" xmlns="http://www.w3.org/2000/svg" xmlns:xlink="http://www.w3.org/1999/xlink" xml:space="preserve" onload="init(evt)">
<style type="text/css"><![CDATA[
.node, .edge {opacity: 0.7;}
.node.selected, .edge.selected {opacity: 1;}
.edge:hover path { stroke: red; }
.edge:hover polygon { stroke: red; fill: red; }
]]></style>

<defs>
  <circle id="rim" cx="0" cy="0" r="7"/>
  <circle id="rim2" cx="0" cy="0" r="3.5"/>
  <g id="zoomPlus">
    <use xlink:href="#rim" fill="#404040"><set attributeName="fill" to="#808080" begin="zoomplus.mouseover" end="zoomplus.mouseout"/></use>
    <path d="M-4,0h8M0,-4v8" fill="none" stroke="white" stroke-width="1.5" pointer-events="none"/>
  </g>
  <g id="zoomMin">
    <use xlink:href="#rim" fill="#404040"><set attributeName="fill" to="#808080" begin="zoomminus.mouseover" end="zoomminus.mouseout"/></use>
    <path d="M-4,0h8" fill="none" stroke="white" stroke-width="1.5" pointer-events="none"/>
  </g>
  <g id="arrowUp" transform="translate(30 24)">
    <use xlink:href="#rim"/>
    <path pointer-events="none" fill="none" stroke="white" stroke-width="1.5" d="M0,-3.0v7 M-2.5,-0.5L0,-3.0L2.5,-0.5"/>
  </g>
  <g id="arrowRight" transform="rotate(90) translate(36 -43)">
    <use xlink:href="#rim"/>
    <path pointer-events="none" fill="none" stroke="white" stroke-width="1.5" d="M0,-3.0v7 M-2.5,-0.5L0,-3.0L2.5,-0.5"/>
  </g>
  <g id="arrowDown" transform="rotate(180) translate(-30 -48)">
    <use xlink:href="#rim"/>
    <path pointer-events="none" fill="none" stroke="white" stroke-width="1.5" d="M0,-3.0v7 M-2.5,-0.5L0,-3.0L2.5,-0.5"/>
  </g>
  <g id="arrowLeft" transform="rotate(270) translate(-36 17)">
    <use xlink:href="#rim"/>
    <path pointer-events="none" fill="none" stroke="white" stroke-width="1.5" d="M0,-3.0v7 M-2.5,-0.5L0,-3.0L2.5,-0.5"/>
  </g>
  <g id="resetDef">
    <use xlink:href="#rim2" fill="#404040"><set attributeName="fill" to="#808080" begin="reset.mouseover" end="reset.mouseout"/></use>
  </g>
</defs>
<script type="application/ecmascript">
var viewWidth = 940;
var viewHeight = 572;
var sectionId = 'dynsection-0';
</script>
<script type="application/ecmascript" xlink:href="svg.min.js"/>
<svg id="graph" class="graph">
<g id="viewport">
<title>Pgp3RxGearboxAligner</title>
<!-- Node1 -->
<g id="Node000001" class="node">
<title>Node1</title>
<g id="a_Node000001"><a xlink:title=" ">
<polygon fill="#999999" stroke="#666666" points="129,-93 0,-93 0,-74 129,-74 129,-93"/>
<text text-anchor="middle" x="64.5" y="-81" font-family="Helvetica,sans-Serif" font-size="10.00">Pgp3RxGearboxAligner</text>
</a>
</g>
</g>
<!-- Node2 -->
<g id="Node000002" class="node">
<title>Node2</title>
<g id="a_Node000002"><a xlink:href="classPgp3Rx.html" target="_top" xlink:title=" ">
<polygon fill="white" stroke="#bfbfbf" points="246.5,-388 193.5,-388 193.5,-369 246.5,-369 246.5,-388"/>
<text text-anchor="middle" x="220" y="-376" font-family="Helvetica,sans-Serif" font-size="10.00">Pgp3Rx</text>
</a>
</g>
</g>
<!-- Node1&#45;&gt;Node2 -->
<g id="edge1_Node000001_Node000002" class="edge">
<title>Node1&#45;&gt;Node2</title>
<g id="a_edge1_Node000001_Node000002"><a xlink:title=" ">
<path fill="none" stroke="#63b8ff" d="M75.27,-102.27C104.76,-158.94 192.22,-327.03 214.03,-368.95"/>
<polygon fill="#63b8ff" stroke="#63b8ff" points="78.33,-100.57 70.61,-93.32 72.12,-103.8 78.33,-100.57"/>
</a>
</g>
</g>
<!-- Node14 -->
<g id="Node000014" class="node">
<title>Node14</title>
<g id="a_Node000014"><a xlink:href="classPgp4Rx.html" target="_top" xlink:title=" ">
<polygon fill="white" stroke="#bfbfbf" points="246.5,-149 193.5,-149 193.5,-130 246.5,-130 246.5,-149"/>
<text text-anchor="middle" x="220" y="-137" font-family="Helvetica,sans-Serif" font-size="10.00">Pgp4Rx</text>
</a>
</g>
</g>
<!-- Node1&#45;&gt;Node14 -->
<g id="edge13_Node000001_Node000014" class="edge">
<title>Node1&#45;&gt;Node14</title>
<g id="a_edge13_Node000001_Node000014"><a xlink:title=" ">
<path fill="none" stroke="#63b8ff" d="M101.4,-96.6C129.65,-106.9 168.31,-121.01 193.47,-130.18"/>
<polygon fill="#63b8ff" stroke="#63b8ff" points="102.48,-93.27 91.89,-93.13 100.08,-99.84 102.48,-93.27"/>
</a>
</g>
</g>
<!-- Node32 -->
<g id="Node000032" class="node">
<title>Node32</title>
<g id="a_Node000032"><a xlink:href="classPgp2bGtp7FixedLat.html" target="_top" xlink:title=" ">
<polygon fill="white" stroke="#bfbfbf" points="275,-93 165,-93 165,-74 275,-74 275,-93"/>
<text text-anchor="middle" x="220" y="-81" font-family="Helvetica,sans-Serif" font-size="10.00">Pgp2bGtp7FixedLat</text>
</a>
</g>
</g>
<!-- Node1&#45;&gt;Node32 -->
<g id="edge31_Node000001_Node000032" class="edge">
<title>Node1&#45;&gt;Node32</title>
<g id="a_edge31_Node000001_Node000032"><a xlink:title=" ">
<path fill="none" stroke="#63b8ff" d="M139.35,-83.5C147.98,-83.5 156.66,-83.5 164.95,-83.5"/>
<polygon fill="#63b8ff" stroke="#63b8ff" points="139.26,-80 129.26,-83.5 139.26,-87 139.26,-80"/>
</a>
</g>
</g>
<!-- Node34 -->
<g id="Node000034" class="node">
<title>Node34</title>
<g id="a_Node000034"><a xlink:href="classPgp2bGtx7Fixedlat.html" target="_top" xlink:title=" ">
<polygon fill="white" stroke="#bfbfbf" points="274,-56 166,-56 166,-37 274,-37 274,-56"/>
<text text-anchor="middle" x="220" y="-44" font-family="Helvetica,sans-Serif" font-size="10.00">Pgp2bGtx7Fixedlat</text>
</a>
</g>
</g>
<!-- Node1&#45;&gt;Node34 -->
<g id="edge33_Node000001_Node000034" class="edge">
<title>Node1&#45;&gt;Node34</title>
<g id="a_edge33_Node000001_Node000034"><a xlink:title=" ">
<path fill="none" stroke="#63b8ff" d="M114.97,-71.57C135.8,-66.56 159.7,-60.79 179.34,-56.06"/>
<polygon fill="#63b8ff" stroke="#63b8ff" points="113.93,-68.23 105.03,-73.97 115.57,-75.03 113.93,-68.23"/>
</a>
</g>
</g>
<!-- Node38 -->
<g id="Node000038" class="node">
<title>Node38</title>
<g id="a_Node000038"><a xlink:href="classPgp2fcGtp7.html" target="_top" xlink:title=" ">
<polygon fill="white" stroke="#bfbfbf" points="256.5,-19 183.5,-19 183.5,0 256.5,0 256.5,-19"/>
<text text-anchor="middle" x="220" y="-7" font-family="Helvetica,sans-Serif" font-size="10.00">Pgp2fcGtp7</text>
</a>
</g>
</g>
<!-- Node1&#45;&gt;Node38 -->
<g id="edge37_Node000001_Node000038" class="edge">
<title>Node1&#45;&gt;Node38</title>
<g id="a_edge37_Node000001_Node000038"><a xlink:title=" ">
<path fill="none" stroke="#63b8ff" d="M89.17,-68.47C108.92,-56.36 138.09,-39.43 165,-27.5 171.96,-24.42 179.61,-21.56 186.92,-19.07"/>
<polygon fill="#63b8ff" stroke="#63b8ff" points="87.19,-65.58 80.54,-73.83 90.88,-71.53 87.19,-65.58"/>
</a>
</g>
</g>
<!-- Node3 -->
<g id="Node000003" class="node">
<title>Node3</title>
<g id="a_Node000003"><a xlink:href="classPgp3Core.html" target="_top" xlink:title=" ">
<polygon fill="white" stroke="#bfbfbf" points="418.5,-490 355.5,-490 355.5,-471 418.5,-471 418.5,-490"/>
<text text-anchor="middle" x="387" y="-478" font-family="Helvetica,sans-Serif" font-size="10.00">Pgp3Core</text>
</a>
</g>
</g>
<!-- Node2&#45;&gt;Node3 -->
<g id="edge2_Node000002_Node000003" class="edge">
<title>Node2&#45;&gt;Node3</title>
<g id="a_edge2_Node000002_Node000003"><a xlink:title=" ">
<path fill="none" stroke="#63b8ff" d="M245.45,-393.62C279.87,-414.89 341.59,-453.05 370.4,-470.86"/>
<polygon fill="#63b8ff" stroke="#63b8ff" points="246.87,-390.38 236.52,-388.1 243.19,-396.33 246.87,-390.38"/>
</a>
</g>
</g>
<!-- Node13 -->
<g id="Node000013" class="node">
<title>Node13</title>
<g id="a_Node000013"><a xlink:href="classPgp3Tb.html" target="_top" xlink:title=" ">
<polygon fill="white" stroke="#bfbfbf" points="413.5,-388 360.5,-388 360.5,-369 413.5,-369 413.5,-388"/>
<text text-anchor="middle" x="387" y="-376" font-family="Helvetica,sans-Serif" font-size="10.00">Pgp3Tb</text>
</a>
</g>
</g>
<!-- Node2&#45;&gt;Node13 -->
<g id="edge12_Node000002_Node000013" class="edge">
<title>Node2&#45;&gt;Node13</title>
<g id="a_edge12_Node000002_Node000013"><a xlink:title=" ">
<path fill="none" stroke="#63b8ff" d="M256.82,-378.5C288.07,-378.5 332.62,-378.5 360.4,-378.5"/>
<polygon fill="#63b8ff" stroke="#63b8ff" points="256.78,-375 246.78,-378.5 256.78,-382 256.78,-375"/>
</a>
</g>
</g>
<!-- Node4 -->
<g id="Node000004" class="node">
<title>Node4</title>
<g id="a_Node000004"><a xlink:href="classPgp3GthUs.html" target="_top" xlink:title=" ">
<polygon fill="white" stroke="#bfbfbf" points="616.5,-564 545.5,-564 545.5,-545 616.5,-545 616.5,-564"/>
<text text-anchor="middle" x="581" y="-552" font-family="Helvetica,sans-Serif" font-size="10.00">Pgp3GthUs</text>
</a>
</g>
</g>
<!-- Node3&#45;&gt;Node4 -->
<g id="edge3_Node000003_Node000004" class="edge">
<title>Node3&#45;&gt;Node4</title>
<g id="a_edge3_Node000003_Node000004"><a xlink:title=" ">
<path fill="none" stroke="#63b8ff" d="M412.67,-495.19C434.65,-507.74 468.05,-525.45 499,-536.5 513.79,-541.78 530.67,-545.83 545.18,-548.73"/>
<polygon fill="#63b8ff" stroke="#63b8ff" points="414.39,-492.15 403.98,-490.17 410.89,-498.21 414.39,-492.15"/>
</a>
</g>
</g>
<!-- Node6 -->
<g id="Node000006" class="node">
<title>Node6</title>
<g id="a_Node000006"><a xlink:href="classPgp3Gtp7.html" target="_top" xlink:title=" ">
<polygon fill="white" stroke="#bfbfbf" points="613,-527 549,-527 549,-508 613,-508 613,-527"/>
<text text-anchor="middle" x="581" y="-515" font-family="Helvetica,sans-Serif" font-size="10.00">Pgp3Gtp7</text>
</a>
</g>
</g>
<!-- Node3&#45;&gt;Node6 -->
<g id="edge5_Node000003_Node000006" class="edge">
<title>Node3&#45;&gt;Node6</title>
<g id="a_edge5_Node000003_Node000006"><a xlink:title=" ">
<path fill="none" stroke="#63b8ff" d="M429,-488.4C464.9,-495.32 516.3,-505.23 548.91,-511.51"/>
<polygon fill="#63b8ff" stroke="#63b8ff" points="429.33,-484.9 418.85,-486.44 428.01,-491.77 429.33,-484.9"/>
</a>
</g>
</g>
<!-- Node9 -->
<g id="Node000009" class="node">
<title>Node9</title>
<g id="a_Node000009"><a xlink:href="classPgp3Gtx7.html" target="_top" xlink:title=" ">
<polygon fill="white" stroke="#bfbfbf" points="613,-490 549,-490 549,-471 613,-471 613,-490"/>
<text text-anchor="middle" x="581" y="-478" font-family="Helvetica,sans-Serif" font-size="10.00">Pgp3Gtx7</text>
</a>
</g>
</g>
<!-- Node3&#45;&gt;Node9 -->
<g id="edge8_Node000003_Node000009" class="edge">
<title>Node3&#45;&gt;Node9</title>
<g id="a_edge8_Node000003_Node000009"><a xlink:title=" ">
<path fill="none" stroke="#63b8ff" d="M429,-480.5C464.9,-480.5 516.3,-480.5 548.91,-480.5"/>
<polygon fill="#63b8ff" stroke="#63b8ff" points="428.85,-477 418.85,-480.5 428.85,-484 428.85,-477"/>
</a>
</g>
</g>
<!-- Node11 -->
<g id="Node000011" class="node">
<title>Node11</title>
<g id="a_Node000011"><a xlink:href="classPgp3GtyUs.html" target="_top" xlink:title=" ">
<polygon fill="white" stroke="#bfbfbf" points="616.5,-453 545.5,-453 545.5,-434 616.5,-434 616.5,-453"/>
<text text-anchor="middle" x="581" y="-441" font-family="Helvetica,sans-Serif" font-size="10.00">Pgp3GtyUs</text>
</a>
</g>
</g>
<!-- Node3&#45;&gt;Node11 -->
<g id="edge10_Node000003_Node000011" class="edge">
<title>Node3&#45;&gt;Node11</title>
<g id="a_edge10_Node000003_Node000011"><a xlink:title=" ">
<path fill="none" stroke="#63b8ff" d="M429.1,-472.58C463.71,-465.91 512.67,-456.48 545.33,-450.18"/>
<polygon fill="#63b8ff" stroke="#63b8ff" points="428.01,-469.23 418.85,-474.56 429.33,-476.1 428.01,-469.23"/>
</a>
</g>
</g>
<!-- Node5 -->
<g id="Node000005" class="node">
<title>Node5</title>
<g id="a_Node000005"><a xlink:href="classPgp3GthUsWrapper.html" target="_top" xlink:title=" ">
<polygon fill="white" stroke="#bfbfbf" points="815.5,-564 703.5,-564 703.5,-545 815.5,-545 815.5,-564"/>
<text text-anchor="middle" x="759.5" y="-552" font-family="Helvetica,sans-Serif" font-size="10.00">Pgp3GthUsWrapper</text>
</a>
</g>
</g>
<!-- Node4&#45;&gt;Node5 -->
<g id="edge4_Node000004_Node000005" class="edge">
<title>Node4&#45;&gt;Node5</title>
<g id="a_edge4_Node000004_Node000005"><a xlink:title=" ">
<path fill="none" stroke="#63b8ff" d="M627.11,-554.5C650.29,-554.5 678.72,-554.5 703.2,-554.5"/>
<polygon fill="#63b8ff" stroke="#63b8ff" points="626.87,-551 616.87,-554.5 626.87,-558 626.87,-551"/>
</a>
</g>
</g>
<!-- Node7 -->
<g id="Node000007" class="node">
<title>Node7</title>
<g id="a_Node000007"><a xlink:href="classPgp3Gtp7Wrapper.html" target="_top" xlink:title=" ">
<polygon fill="white" stroke="#bfbfbf" points="812,-527 707,-527 707,-508 812,-508 812,-527"/>
<text text-anchor="middle" x="759.5" y="-515" font-family="Helvetica,sans-Serif" font-size="10.00">Pgp3Gtp7Wrapper</text>
</a>
</g>
</g>
<!-- Node6&#45;&gt;Node7 -->
<g id="edge6_Node000006_Node000007" class="edge">
<title>Node6&#45;&gt;Node7</title>
<g id="a_edge6_Node000006_Node000007"><a xlink:title=" ">
<path fill="none" stroke="#63b8ff" d="M623.38,-517.5C648.33,-517.5 680.33,-517.5 706.92,-517.5"/>
<polygon fill="#63b8ff" stroke="#63b8ff" points="623.15,-514 613.15,-517.5 623.15,-521 623.15,-514"/>
</a>
</g>
</g>
<!-- Node8 -->
<g id="Node000008" class="node">
<title>Node8</title>
<g id="a_Node000008"><a xlink:href="classPgp3Gtp7Tb.html" target="_top" xlink:title=" ">
<polygon fill="white" stroke="#bfbfbf" points="932,-527 856,-527 856,-508 932,-508 932,-527"/>
<text text-anchor="middle" x="894" y="-515" font-family="Helvetica,sans-Serif" font-size="10.00">Pgp3Gtp7Tb</text>
</a>
</g>
</g>
<!-- Node7&#45;&gt;Node8 -->
<g id="edge7_Node000007_Node000008" class="edge">
<title>Node7&#45;&gt;Node8</title>
<g id="a_edge7_Node000007_Node000008"><a xlink:title=" ">
<path fill="none" stroke="#63b8ff" d="M822.45,-517.5C833.81,-517.5 845.33,-517.5 855.68,-517.5"/>
<polygon fill="#63b8ff" stroke="#63b8ff" points="822.11,-514 812.11,-517.5 822.11,-521 822.11,-514"/>
</a>
</g>
</g>
<!-- Node10 -->
<g id="Node000010" class="node">
<title>Node10</title>
<g id="a_Node000010"><a xlink:href="classPgp3Gtx7Wrapper.html" target="_top" xlink:title=" ">
<polygon fill="white" stroke="#bfbfbf" points="812,-490 707,-490 707,-471 812,-471 812,-490"/>
<text text-anchor="middle" x="759.5" y="-478" font-family="Helvetica,sans-Serif" font-size="10.00">Pgp3Gtx7Wrapper</text>
</a>
</g>
</g>
<!-- Node9&#45;&gt;Node10 -->
<g id="edge9_Node000009_Node000010" class="edge">
<title>Node9&#45;&gt;Node10</title>
<g id="a_edge9_Node000009_Node000010"><a xlink:title=" ">
<path fill="none" stroke="#63b8ff" d="M623.38,-480.5C648.33,-480.5 680.33,-480.5 706.92,-480.5"/>
<polygon fill="#63b8ff" stroke="#63b8ff" points="623.15,-477 613.15,-480.5 623.15,-484 623.15,-477"/>
</a>
</g>
</g>
<!-- Node12 -->
<g id="Node000012" class="node">
<title>Node12</title>
<g id="a_Node000012"><a xlink:href="classPgp3GtyUsWrapper.html" target="_top" xlink:title=" ">
<polygon fill="white" stroke="#bfbfbf" points="815.5,-453 703.5,-453 703.5,-434 815.5,-434 815.5,-453"/>
<text text-anchor="middle" x="759.5" y="-441" font-family="Helvetica,sans-Serif" font-size="10.00">Pgp3GtyUsWrapper</text>
</a>
</g>
</g>
<!-- Node11&#45;&gt;Node12 -->
<g id="edge11_Node000011_Node000012" class="edge">
<title>Node11&#45;&gt;Node12</title>
<g id="a_edge11_Node000011_Node000012"><a xlink:title=" ">
<path fill="none" stroke="#63b8ff" d="M627.11,-443.5C650.29,-443.5 678.72,-443.5 703.2,-443.5"/>
<polygon fill="#63b8ff" stroke="#63b8ff" points="626.87,-440 616.87,-443.5 626.87,-447 626.87,-440"/>
</a>
</g>
</g>
<!-- Node15 -->
<g id="Node000015" class="node">
<title>Node15</title>
<g id="a_Node000015"><a xlink:href="classPgp4Core.html" target="_top" xlink:title=" ">
<polygon fill="white" stroke="#bfbfbf" points="418.5,-286 355.5,-286 355.5,-267 418.5,-267 418.5,-286"/>
<text text-anchor="middle" x="387" y="-274" font-family="Helvetica,sans-Serif" font-size="10.00">Pgp4Core</text>
</a>
</g>
</g>
<!-- Node14&#45;&gt;Node15 -->
<g id="edge14_Node000014_Node000015" class="edge">
<title>Node14&#45;&gt;Node15</title>
<g id="a_edge14_Node000014_Node000015"><a xlink:title=" ">
<path fill="none" stroke="#63b8ff" d="M240.57,-155.75C275.16,-184.47 346.12,-243.38 374.19,-266.69"/>
<polygon fill="#63b8ff" stroke="#63b8ff" points="242.53,-152.83 232.6,-149.13 238.06,-158.21 242.53,-152.83"/>
</a>
</g>
</g>
<!-- Node27 -->
<g id="Node000027" class="node">
<title>Node27</title>
<g id="a_Node000027"><a xlink:href="classPgp4CoreLite.html" target="_top" xlink:title=" ">
<polygon fill="white" stroke="#bfbfbf" points="427.5,-167 346.5,-167 346.5,-148 427.5,-148 427.5,-167"/>
<text text-anchor="middle" x="387" y="-155" font-family="Helvetica,sans-Serif" font-size="10.00">Pgp4CoreLite</text>
</a>
</g>
</g>
<!-- Node14&#45;&gt;Node27 -->
<g id="edge26_Node000014_Node000027" class="edge">
<title>Node14&#45;&gt;Node27</title>
<g id="a_edge26_Node000014_Node000027"><a xlink:title=" ">
<path fill="none" stroke="#63b8ff" d="M256.74,-143.4C283.11,-146.28 319,-150.19 346.27,-153.17"/>
<polygon fill="#63b8ff" stroke="#63b8ff" points="257.1,-139.92 246.78,-142.31 256.34,-146.88 257.1,-139.92"/>
</a>
</g>
</g>
<!-- Node31 -->
<g id="Node000031" class="node">
<title>Node31</title>
<g id="a_Node000031"><a xlink:href="classPgp4TxLiteTb.html" target="_top" xlink:title=" ">
<polygon fill="white" stroke="#bfbfbf" points="428.5,-130 345.5,-130 345.5,-111 428.5,-111 428.5,-130"/>
<text text-anchor="middle" x="387" y="-118" font-family="Helvetica,sans-Serif" font-size="10.00">Pgp4TxLiteTb</text>
</a>
</g>
</g>
<!-- Node14&#45;&gt;Node31 -->
<g id="edge30_Node000014_Node000031" class="edge">
<title>Node14&#45;&gt;Node31</title>
<g id="a_edge30_Node000014_Node000031"><a xlink:title=" ">
<path fill="none" stroke="#63b8ff" d="M256.98,-135.36C283.02,-132.36 318.25,-128.3 345.32,-125.18"/>
<polygon fill="#63b8ff" stroke="#63b8ff" points="256.32,-131.91 246.78,-136.53 257.12,-138.86 256.32,-131.91"/>
</a>
</g>
</g>
<!-- Node16 -->
<g id="Node000016" class="node">
<title>Node16</title>
<g id="a_Node000016"><a xlink:href="classPgp4CoreTb.html" target="_top" xlink:title=" ">
<polygon fill="white" stroke="#bfbfbf" points="618.5,-416 543.5,-416 543.5,-397 618.5,-397 618.5,-416"/>
<text text-anchor="middle" x="581" y="-404" font-family="Helvetica,sans-Serif" font-size="10.00">Pgp4CoreTb</text>
</a>
</g>
</g>
<!-- Node15&#45;&gt;Node16 -->
<g id="edge15_Node000015_Node000016" class="edge">
<title>Node15&#45;&gt;Node16</title>
<g id="a_edge15_Node000015_Node000016"><a xlink:title=" ">
<path fill="none" stroke="#63b8ff" d="M403.08,-293.97C427.85,-322.25 476.63,-376.15 499,-388.5 512.5,-395.95 528.86,-400.31 543.34,-402.87"/>
<polygon fill="#63b8ff" stroke="#63b8ff" points="405.43,-291.33 396.22,-286.09 400.15,-295.93 405.43,-291.33"/>
</a>
</g>
</g>
<!-- Node17 -->
<g id="Node000017" class="node">
<title>Node17</title>
<g id="a_Node000017"><a xlink:href="classPgp4Tb.html" target="_top" xlink:title=" ">
<polygon fill="white" stroke="#bfbfbf" points="607.5,-379 554.5,-379 554.5,-360 607.5,-360 607.5,-379"/>
<text text-anchor="middle" x="581" y="-367" font-family="Helvetica,sans-Serif" font-size="10.00">Pgp4Tb</text>
</a>
</g>
</g>
<!-- Node15&#45;&gt;Node17 -->
<g id="edge16_Node000015_Node000017" class="edge">
<title>Node15&#45;&gt;Node17</title>
<g id="a_edge16_Node000015_Node000017"><a xlink:title=" ">
<path fill="none" stroke="#63b8ff" d="M406.99,-292.64C428.11,-309.77 463.89,-336.39 499,-351.5 516.73,-359.13 538.09,-363.71 554.43,-366.33"/>
<polygon fill="#63b8ff" stroke="#63b8ff" points="409.08,-289.83 399.14,-286.16 404.62,-295.23 409.08,-289.83"/>
</a>
</g>
</g>
<!-- Node18 -->
<g id="Node000018" class="node">
<title>Node18</title>
<g id="a_Node000018"><a xlink:href="classPgp4GthUs.html" target="_top" xlink:title=" ">
<polygon fill="white" stroke="#bfbfbf" points="616.5,-342 545.5,-342 545.5,-323 616.5,-323 616.5,-342"/>
<text text-anchor="middle" x="581" y="-330" font-family="Helvetica,sans-Serif" font-size="10.00">Pgp4GthUs</text>
</a>
</g>
</g>
<!-- Node15&#45;&gt;Node18 -->
<g id="edge17_Node000015_Node000018" class="edge">
<title>Node15&#45;&gt;Node18</title>
<g id="a_edge17_Node000015_Node000018"><a xlink:title=" ">
<path fill="none" stroke="#63b8ff" d="M422.77,-289.52C444.5,-297.37 473.15,-307.23 499,-314.5 513.98,-318.71 530.73,-322.58 545.1,-325.63"/>
<polygon fill="#63b8ff" stroke="#63b8ff" points="423.91,-286.21 413.32,-286.07 421.51,-292.78 423.91,-286.21"/>
</a>
</g>
</g>
<!-- Node20 -->
<g id="Node000020" class="node">
<title>Node20</title>
<g id="a_Node000020"><a xlink:href="classPgp4Gtp7.html" target="_top" xlink:title=" ">
<polygon fill="white" stroke="#bfbfbf" points="613,-305 549,-305 549,-286 613,-286 613,-305"/>
<text text-anchor="middle" x="581" y="-293" font-family="Helvetica,sans-Serif" font-size="10.00">Pgp4Gtp7</text>
</a>
</g>
</g>
<!-- Node15&#45;&gt;Node20 -->
<g id="edge19_Node000015_Node000020" class="edge">
<title>Node15&#45;&gt;Node20</title>
<g id="a_edge19_Node000015_Node000020"><a xlink:title=" ">
<path fill="none" stroke="#63b8ff" d="M429,-280.56C464.9,-284.11 516.3,-289.2 548.91,-292.42"/>
<polygon fill="#63b8ff" stroke="#63b8ff" points="429.14,-277.05 418.85,-279.55 428.45,-284.02 429.14,-277.05"/>
</a>
</g>
</g>
<!-- Node22 -->
<g id="Node000022" class="node">
<title>Node22</title>
<g id="a_Node000022"><a xlink:href="classPgp4Gtx7.html" target="_top" xlink:title=" ">
<polygon fill="white" stroke="#bfbfbf" points="613,-268 549,-268 549,-249 613,-249 613,-268"/>
<text text-anchor="middle" x="581" y="-256" font-family="Helvetica,sans-Serif" font-size="10.00">Pgp4Gtx7</text>
</a>
</g>
</g>
<!-- Node15&#45;&gt;Node22 -->
<g id="edge21_Node000015_Node000022" class="edge">
<title>Node15&#45;&gt;Node22</title>
<g id="a_edge21_Node000015_Node000022"><a xlink:title=" ">
<path fill="none" stroke="#63b8ff" d="M429,-272.66C464.9,-269.29 516.3,-264.47 548.91,-261.41"/>
<polygon fill="#63b8ff" stroke="#63b8ff" points="428.48,-269.19 418.85,-273.61 429.13,-276.16 428.48,-269.19"/>
</a>
</g>
</g>
<!-- Node24 -->
<g id="Node000024" class="node">
<title>Node24</title>
<g id="a_Node000024"><a xlink:href="classPgp4GtyUs.html" target="_top" xlink:title=" ">
<polygon fill="white" stroke="#bfbfbf" points="616.5,-231 545.5,-231 545.5,-212 616.5,-212 616.5,-231"/>
<text text-anchor="middle" x="581" y="-219" font-family="Helvetica,sans-Serif" font-size="10.00">Pgp4GtyUs</text>
</a>
</g>
</g>
<!-- Node15&#45;&gt;Node24 -->
<g id="edge23_Node000015_Node000024" class="edge">
<title>Node15&#45;&gt;Node24</title>
<g id="a_edge23_Node000015_Node000024"><a xlink:title=" ">
<path fill="none" stroke="#63b8ff" d="M424.88,-263.69C446.37,-256.43 474.07,-247.45 499,-240.5 514.03,-236.31 530.79,-232.27 545.15,-229.01"/>
<polygon fill="#63b8ff" stroke="#63b8ff" points="423.52,-260.45 415.18,-266.99 425.77,-267.08 423.52,-260.45"/>
</a>
</g>
</g>
<!-- Node26 -->
<g id="Node000026" class="node">
<title>Node26</title>
<g id="a_Node000026"><a xlink:href="classPgp4FecTb.html" target="_top" xlink:title=" ">
<polygon fill="white" stroke="#bfbfbf" points="615.5,-194 546.5,-194 546.5,-175 615.5,-175 615.5,-194"/>
<text text-anchor="middle" x="581" y="-182" font-family="Helvetica,sans-Serif" font-size="10.00">Pgp4FecTb</text>
</a>
</g>
</g>
<!-- Node15&#45;&gt;Node26 -->
<g id="edge25_Node000015_Node000026" class="edge">
<title>Node15&#45;&gt;Node26</title>
<g id="a_edge25_Node000015_Node000026"><a xlink:title=" ">
<path fill="none" stroke="#63b8ff" d="M407.44,-260.62C428.7,-244.03 464.36,-218.39 499,-203.5 513.99,-197.05 531.53,-192.6 546.45,-189.63"/>
<polygon fill="#63b8ff" stroke="#63b8ff" points="405.18,-257.95 399.52,-266.91 409.53,-263.44 405.18,-257.95"/>
</a>
</g>
</g>
<!-- Node19 -->
<g id="Node000019" class="node">
<title>Node19</title>
<g id="a_Node000019"><a xlink:href="classPgp4GthUsWrapper.html" target="_top" xlink:title=" ">
<polygon fill="white" stroke="#bfbfbf" points="815.5,-342 703.5,-342 703.5,-323 815.5,-323 815.5,-342"/>
<text text-anchor="middle" x="759.5" y="-330" font-family="Helvetica,sans-Serif" font-size="10.00">Pgp4GthUsWrapper</text>
</a>
</g>
</g>
<!-- Node18&#45;&gt;Node19 -->
<g id="edge18_Node000018_Node000019" class="edge">
<title>Node18&#45;&gt;Node19</title>
<g id="a_edge18_Node000018_Node000019"><a xlink:title=" ">
<path fill="none" stroke="#63b8ff" d="M627.11,-332.5C650.29,-332.5 678.72,-332.5 703.2,-332.5"/>
<polygon fill="#63b8ff" stroke="#63b8ff" points="626.87,-329 616.87,-332.5 626.87,-336 626.87,-329"/>
</a>
</g>
</g>
<!-- Node21 -->
<g id="Node000021" class="node">
<title>Node21</title>
<g id="a_Node000021"><a xlink:href="classPgp4Gtp7Wrapper.html" target="_top" xlink:title=" ">
<polygon fill="white" stroke="#bfbfbf" points="812,-305 707,-305 707,-286 812,-286 812,-305"/>
<text text-anchor="middle" x="759.5" y="-293" font-family="Helvetica,sans-Serif" font-size="10.00">Pgp4Gtp7Wrapper</text>
</a>
</g>
</g>
<!-- Node20&#45;&gt;Node21 -->
<g id="edge20_Node000020_Node000021" class="edge">
<title>Node20&#45;&gt;Node21</title>
<g id="a_edge20_Node000020_Node000021"><a xlink:title=" ">
<path fill="none" stroke="#63b8ff" d="M623.38,-295.5C648.33,-295.5 680.33,-295.5 706.92,-295.5"/>
<polygon fill="#63b8ff" stroke="#63b8ff" points="623.15,-292 613.15,-295.5 623.15,-299 623.15,-292"/>
</a>
</g>
</g>
<!-- Node23 -->
<g id="Node000023" class="node">
<title>Node23</title>
<g id="a_Node000023"><a xlink:href="classPgp4Gtx7Wrapper.html" target="_top" xlink:title=" ">
<polygon fill="white" stroke="#bfbfbf" points="812,-268 707,-268 707,-249 812,-249 812,-268"/>
<text text-anchor="middle" x="759.5" y="-256" font-family="Helvetica,sans-Serif" font-size="10.00">Pgp4Gtx7Wrapper</text>
</a>
</g>
</g>
<!-- Node22&#45;&gt;Node23 -->
<g id="edge22_Node000022_Node000023" class="edge">
<title>Node22&#45;&gt;Node23</title>
<g id="a_edge22_Node000022_Node000023"><a xlink:title=" ">
<path fill="none" stroke="#63b8ff" d="M623.38,-258.5C648.33,-258.5 680.33,-258.5 706.92,-258.5"/>
<polygon fill="#63b8ff" stroke="#63b8ff" points="623.15,-255 613.15,-258.5 623.15,-262 623.15,-255"/>
</a>
</g>
</g>
<!-- Node25 -->
<g id="Node000025" class="node">
<title>Node25</title>
<g id="a_Node000025"><a xlink:href="classPgp4GtyUsWrapper.html" target="_top" xlink:title=" ">
<polygon fill="white" stroke="#bfbfbf" points="815.5,-231 703.5,-231 703.5,-212 815.5,-212 815.5,-231"/>
<text text-anchor="middle" x="759.5" y="-219" font-family="Helvetica,sans-Serif" font-size="10.00">Pgp4GtyUsWrapper</text>
</a>
</g>
</g>
<!-- Node24&#45;&gt;Node25 -->
<g id="edge24_Node000024_Node000025" class="edge">
<title>Node24&#45;&gt;Node25</title>
<g id="a_edge24_Node000024_Node000025"><a xlink:title=" ">
<path fill="none" stroke="#63b8ff" d="M627.11,-221.5C650.29,-221.5 678.72,-221.5 703.2,-221.5"/>
<polygon fill="#63b8ff" stroke="#63b8ff" points="626.87,-218 616.87,-221.5 626.87,-225 626.87,-218"/>
</a>
</g>
</g>
<!-- Node28 -->
<g id="Node000028" class="node">
<title>Node28</title>
<g id="a_Node000028"><a xlink:href="classPgp4CoreLiteTb.html" target="_top" xlink:title=" ">
<polygon fill="white" stroke="#bfbfbf" points="627.5,-157 534.5,-157 534.5,-138 627.5,-138 627.5,-157"/>
<text text-anchor="middle" x="581" y="-145" font-family="Helvetica,sans-Serif" font-size="10.00">Pgp4CoreLiteTb</text>
</a>
</g>
</g>
<!-- Node27&#45;&gt;Node28 -->
<g id="edge27_Node000027_Node000028" class="edge">
<title>Node27&#45;&gt;Node28</title>
<g id="a_edge27_Node000027_Node000028"><a xlink:title=" ">
<path fill="none" stroke="#63b8ff" d="M437.96,-154.9C467.72,-153.35 505.21,-151.4 534.2,-149.89"/>
<polygon fill="#63b8ff" stroke="#63b8ff" points="437.59,-151.41 427.78,-155.43 437.95,-158.4 437.59,-151.41"/>
</a>
</g>
</g>
<!-- Node29 -->
<g id="Node000029" class="node">
<title>Node29</title>
<g id="a_Node000029"><a xlink:href="classPgp4RxLiteLowSpeedLane.html" target="_top" xlink:title=" ">
<polygon fill="white" stroke="#bfbfbf" points="653,-120 509,-120 509,-101 653,-101 653,-120"/>
<text text-anchor="middle" x="581" y="-108" font-family="Helvetica,sans-Serif" font-size="10.00">Pgp4RxLiteLowSpeedLane</text>
</a>
</g>
</g>
<!-- Node27&#45;&gt;Node29 -->
<g id="edge28_Node000027_Node000029" class="edge">
<title>Node27&#45;&gt;Node29</title>
<g id="a_edge28_Node000027_Node000029"><a xlink:title=" ">
<path fill="none" stroke="#63b8ff" d="M437.58,-145.86C446.07,-143.79 454.8,-141.62 463,-139.5 479.08,-135.34 482.91,-133.62 499,-129.5 511.59,-126.28 525.34,-122.97 537.88,-120.04"/>
<polygon fill="#63b8ff" stroke="#63b8ff" points="436.67,-142.48 427.77,-148.23 438.31,-149.29 436.67,-142.48"/>
</a>
</g>
</g>
<!-- Node30 -->
<g id="Node000030" class="node">
<title>Node30</title>
<g id="a_Node000030"><a xlink:href="classPgp4LiteRxLowSpeed.html" target="_top" xlink:title=" ">
<polygon fill="white" stroke="#bfbfbf" points="820,-120 699,-120 699,-101 820,-101 820,-120"/>
<text text-anchor="middle" x="759.5" y="-108" font-family="Helvetica,sans-Serif" font-size="10.00">Pgp4LiteRxLowSpeed</text>
</a>
</g>
</g>
<!-- Node29&#45;&gt;Node30 -->
<g id="edge29_Node000029_Node000030" class="edge">
<title>Node29&#45;&gt;Node30</title>
<g id="a_edge29_Node000029_Node000030"><a xlink:title=" ">
<path fill="none" stroke="#63b8ff" d="M663.1,-110.5C675.17,-110.5 687.43,-110.5 698.94,-110.5"/>
<polygon fill="#63b8ff" stroke="#63b8ff" points="663.03,-107 653.03,-110.5 663.03,-114 663.03,-107"/>
</a>
</g>
</g>
<!-- Node33 -->
<g id="Node000033" class="node">
<title>Node33</title>
<g id="a_Node000033"><a xlink:href="classPgp2bGtp7FixedLatWrapper.html" target="_top" xlink:title=" ">
<polygon fill="white" stroke="#bfbfbf" points="463,-93 311,-93 311,-74 463,-74 463,-93"/>
<text text-anchor="middle" x="387" y="-81" font-family="Helvetica,sans-Serif" font-size="10.00">Pgp2bGtp7FixedLatWrapper</text>
</a>
</g>
</g>
<!-- Node32&#45;&gt;Node33 -->
<g id="edge32_Node000032_Node000033" class="edge">
<title>Node32&#45;&gt;Node33</title>
<g id="a_edge32_Node000032_Node000033"><a xlink:title=" ">
<path fill="none" stroke="#63b8ff" d="M285.15,-83.5C293.59,-83.5 302.29,-83.5 310.89,-83.5"/>
<polygon fill="#63b8ff" stroke="#63b8ff" points="285.03,-80 275.03,-83.5 285.03,-87 285.03,-80"/>
</a>
</g>
</g>
<!-- Node35 -->
<g id="Node000035" class="node">
<title>Node35</title>
<g id="a_Node000035"><a xlink:href="classPgp2bGtx7FixedLatWrapper.html" target="_top" xlink:title=" ">
<polygon fill="white" stroke="#bfbfbf" points="463,-56 311,-56 311,-37 463,-37 463,-56"/>
<text text-anchor="middle" x="387" y="-44" font-family="Helvetica,sans-Serif" font-size="10.00">Pgp2bGtx7FixedLatWrapper</text>
</a>
</g>
</g>
<!-- Node34&#45;&gt;Node35 -->
<g id="edge34_Node000034_Node000035" class="edge">
<title>Node34&#45;&gt;Node35</title>
<g id="a_edge34_Node000034_Node000035"><a xlink:title=" ">
<path fill="none" stroke="#63b8ff" d="M284.16,-46.5C292.86,-46.5 301.86,-46.5 310.75,-46.5"/>
<polygon fill="#63b8ff" stroke="#63b8ff" points="284.12,-43 274.12,-46.5 284.12,-50 284.12,-43"/>
</a>
</g>
</g>
<!-- Node36 -->
<g id="Node000036" class="node">
<title>Node36</title>
<g id="a_Node000036"><a xlink:href="classPgp2bGtx7FixedLatTb.html" target="_top" xlink:title=" ">
<polygon fill="white" stroke="#bfbfbf" points="642,-74 520,-74 520,-55 642,-55 642,-74"/>
<text text-anchor="middle" x="581" y="-62" font-family="Helvetica,sans-Serif" font-size="10.00">Pgp2bGtx7FixedLatTb</text>
</a>
</g>
</g>
<!-- Node35&#45;&gt;Node36 -->
<g id="edge35_Node000035_Node000036" class="edge">
<title>Node35&#45;&gt;Node36</title>
<g id="a_edge35_Node000035_Node000036"><a xlink:title=" ">
<path fill="none" stroke="#63b8ff" d="M473.3,-54.5C488.99,-55.97 505.07,-57.48 519.83,-58.86"/>
<polygon fill="#63b8ff" stroke="#63b8ff" points="473.34,-50.99 463.06,-53.54 472.69,-57.95 473.34,-50.99"/>
</a>
</g>
</g>
<!-- Node37 -->
<g id="Node000037" class="node">
<title>Node37</title>
<g id="a_Node000037"><a xlink:href="classPgp2bGtx7FixedLatWrapperTb.html" target="_top" xlink:title=" ">
<polygon fill="white" stroke="#bfbfbf" points="663,-37 499,-37 499,-18 663,-18 663,-37"/>
<text text-anchor="middle" x="581" y="-25" font-family="Helvetica,sans-Serif" font-size="10.00">Pgp2bGtx7FixedLatWrapperTb</text>
</a>
</g>
</g>
<!-- Node35&#45;&gt;Node37 -->
<g id="edge36_Node000035_Node000037" class="edge">
<title>Node35&#45;&gt;Node37</title>
<g id="a_edge36_Node000035_Node000037"><a xlink:title=" ">
<path fill="none" stroke="#63b8ff" d="M473.08,-38.08C481.69,-37.23 490.41,-36.37 498.97,-35.52"/>
<polygon fill="#63b8ff" stroke="#63b8ff" points="472.66,-34.6 463.06,-39.07 473.35,-41.57 472.66,-34.6"/>
</a>
</g>
</g>
<!-- Node39 -->
<g id="Node000039" class="node">
<title>Node39</title>
<g id="a_Node000039"><a xlink:href="classPgp2fcGtp7Wrapper.html" target="_top" xlink:title=" ">
<polygon fill="white" stroke="#bfbfbf" points="444,-19 330,-19 330,0 444,0 444,-19"/>
<text text-anchor="middle" x="387" y="-7" font-family="Helvetica,sans-Serif" font-size="10.00">Pgp2fcGtp7Wrapper</text>
</a>
</g>
</g>
<!-- Node38&#45;&gt;Node39 -->
<g id="edge38_Node000038_Node000039" class="edge">
<title>Node38&#45;&gt;Node39</title>
<g id="a_edge38_Node000038_Node000039"><a xlink:title=" ">
<path fill="none" stroke="#63b8ff" d="M266.95,-9.5C286.44,-9.5 309.34,-9.5 329.83,-9.5"/>
<polygon fill="#63b8ff" stroke="#63b8ff" points="266.8,-6 256.8,-9.5 266.8,-13 266.8,-6"/>
</a>
</g>
</g>
</g>
</svg>

<g id="navigator" transform="translate(0 0)" fill="#404254">
  <rect fill="#f2f5e9" fill-opacity="0.5" stroke="#606060" stroke-width=".5" x="0" y="0" width="60" height="60"/>
  <use id="zoomplus" xlink:href="#zoomPlus" x="17" y="9" onmousedown="handleZoom(evt,'in')"/>
  <use id="zoomminus" xlink:href="#zoomMin" x="42" y="9" onmousedown="handleZoom(evt,'out')"/>
  <use id="reset" xlink:href="#resetDef" x="30" y="36" onmousedown="handleReset()"/>
   <use id="arrowup" xlink:href="#arrowUp" x="0" y="0" onmousedown="handlePan(0,-1)"/>
  <use id="arrowright" xlink:href="#arrowRight" x="0" y="0" onmousedown="handlePan(1,0)"/>
  <use id="arrowdown" xlink:href="#arrowDown" x="0" y="0" onmousedown="handlePan(0,1)"/>
  <use id="arrowleft" xlink:href="#arrowLeft" x="0" y="0" onmousedown="handlePan(-1,0)"/>
</g>
<svg viewBox="0 0 15 15" width="100%" height="30px" preserveAspectRatio="xMaxYMin meet">
 <g id="arrow_out" transform="scale(0.3 0.3)">
  <a xlink:href="classPgp3RxGearboxAligner__inherit__graph_org.svg" target="_base">
   <rect id="button" ry="5" rx="5" y="6" x="6" height="38" width="38"
        fill="#f2f5e9" fill-opacity="0.5" stroke="#606060" stroke-width="1.0"/>
   <path id="arrow"
     d="M 11.500037,31.436501 C 11.940474,20.09759 22.043105,11.32322 32.158766,21.979434 L 37.068811,17.246167 C 37.068811,17.246167 37.088388,32 37.088388,32 L 22.160133,31.978069 C 22.160133,31.978069 26.997745,27.140456 26.997745,27.140456 C 18.528582,18.264221 13.291696,25.230495 11.500037,31.436501 z"
     style="fill:#404040;"/>
  </a>
 </g>
</svg>

<style type='text/css'>
<![CDATA[
[data-mouse-over-selected='false'] { opacity: 0.7; }
[data-mouse-over-selected='true']  { opacity: 1.0; }
]]>
</style>
<script type="application/ecmascript"><![CDATA[
document.addEventListener('DOMContentLoaded', (event) => {
  highlightEdges();
  highlightAdjacentNodes();
});
]]></script>
</svg>
