<?xml version="1.0" encoding="UTF-8" standalone="no"?>
<!DOCTYPE svg PUBLIC "-//W3C//DTD SVG 1.1//EN"
 "http://www.w3.org/Graphics/SVG/1.1/DTD/svg11.dtd">
<!-- Generated by graphviz version 2.43.0 (0)
 -->
<!-- Title: SyncTrigRate Pages: 1 -->
<svg width="1378pt" height="332pt"
 viewBox="0.00 0.00 1378.00 332.00" xmlns="http://www.w3.org/2000/svg" xmlns:xlink="http://www.w3.org/1999/xlink">
<g id="graph0" class="graph" transform="scale(1 1) rotate(0) translate(4 328)">
<title>SyncTrigRate</title>
<polygon fill="white" stroke="transparent" points="-4,4 -4,-328 1374,-328 1374,4 -4,4"/>
<!-- Node1 -->
<g id="node1" class="node">
<title>Node1</title>
<g id="a_node1"><a xlink:title=" ">
<polygon fill="#bfbfbf" stroke="black" points="710,-154.5 710,-173.5 790,-173.5 790,-154.5 710,-154.5"/>
<text text-anchor="middle" x="750" y="-161.5" font-family="Helvetica,sans-Serif" font-size="10.00">SyncTrigRate</text>
</a>
</g>
</g>
<!-- Node18 -->
<g id="node18" class="node">
<title>Node18</title>
<g id="a_node18"><a xlink:href="classAxiAd5780Reg.html" target="_top" xlink:title=" ">
<polygon fill="white" stroke="black" points="837,-230.5 837,-249.5 925,-249.5 925,-230.5 837,-230.5"/>
<text text-anchor="middle" x="881" y="-237.5" font-family="Helvetica,sans-Serif" font-size="10.00">AxiAd5780Reg</text>
</a>
</g>
</g>
<!-- Node1&#45;&gt;Node18 -->
<g id="edge22" class="edge">
<title>Node1&#45;&gt;Node18</title>
<path fill="none" stroke="midnightblue" d="M771.61,-179.86C786.3,-190.78 806.79,-205.2 826,-216 835.48,-221.33 846.37,-226.36 855.87,-230.43"/>
<polygon fill="midnightblue" stroke="midnightblue" points="773.36,-176.8 763.27,-173.58 769.15,-182.4 773.36,-176.8"/>
</g>
<!-- Node20 -->
<g id="node20" class="node">
<title>Node20</title>
<g id="a_node20"><a xlink:href="classAxiStreamMon.html" target="_top" xlink:title=" ">
<polygon fill="white" stroke="black" points="836.5,-135.5 836.5,-154.5 925.5,-154.5 925.5,-135.5 836.5,-135.5"/>
<text text-anchor="middle" x="881" y="-142.5" font-family="Helvetica,sans-Serif" font-size="10.00">AxiStreamMon</text>
</a>
</g>
</g>
<!-- Node1&#45;&gt;Node20 -->
<g id="edge24" class="edge">
<title>Node1&#45;&gt;Node20</title>
<path fill="none" stroke="midnightblue" d="M800.21,-156.75C812.02,-155.01 824.56,-153.17 836.12,-151.46"/>
<polygon fill="midnightblue" stroke="midnightblue" points="799.44,-153.33 790.05,-158.25 800.46,-160.25 799.44,-153.33"/>
</g>
<!-- Node28 -->
<g id="node28" class="node">
<title>Node28</title>
<g id="a_node28"><a xlink:href="classRawEthFramerTb.html" target="_top" xlink:title=" ">
<polygon fill="white" stroke="black" points="1270,-192.5 1270,-211.5 1370,-211.5 1370,-192.5 1270,-192.5"/>
<text text-anchor="middle" x="1320" y="-199.5" font-family="Helvetica,sans-Serif" font-size="10.00">RawEthFramerTb</text>
</a>
</g>
</g>
<!-- Node1&#45;&gt;Node28 -->
<g id="edge36" class="edge">
<title>Node1&#45;&gt;Node28</title>
<path fill="none" stroke="midnightblue" d="M800.12,-168.66C844.88,-172.81 912.84,-178.84 972,-183 1078.08,-190.46 1202.57,-196.66 1269.84,-199.79"/>
<polygon fill="midnightblue" stroke="midnightblue" points="800.38,-165.17 790.09,-167.73 799.73,-172.14 800.38,-165.17"/>
</g>
<!-- Node32 -->
<g id="node32" class="node">
<title>Node32</title>
<g id="a_node32"><a xlink:href="classSyncTrigRateVector.html" target="_top" xlink:title=" ">
<polygon fill="white" stroke="black" points="826,-97.5 826,-116.5 936,-116.5 936,-97.5 826,-97.5"/>
<text text-anchor="middle" x="881" y="-104.5" font-family="Helvetica,sans-Serif" font-size="10.00">SyncTrigRateVector</text>
</a>
</g>
</g>
<!-- Node1&#45;&gt;Node32 -->
<g id="edge37" class="edge">
<title>Node1&#45;&gt;Node32</title>
<path fill="none" stroke="midnightblue" d="M777.43,-149.54C791.62,-142.05 809.53,-133.03 826,-126 833.86,-122.64 842.53,-119.4 850.59,-116.57"/>
<polygon fill="midnightblue" stroke="midnightblue" points="775.44,-146.64 768.27,-154.44 778.74,-152.81 775.44,-146.64"/>
</g>
<!-- Node2 -->
<g id="node2" class="node">
<title>Node2</title>
<g id="a_node2"><a xlink:href="classSynchronizerOneShot.html" target="_top" xlink:title=" ">
<polygon fill="white" stroke="black" points="419,-249.5 419,-268.5 540,-268.5 540,-249.5 419,-249.5"/>
<text text-anchor="middle" x="479.5" y="-256.5" font-family="Helvetica,sans-Serif" font-size="10.00">SynchronizerOneShot</text>
</a>
</g>
</g>
<!-- Node2&#45;&gt;Node1 -->
<g id="edge1" class="edge">
<title>Node2&#45;&gt;Node1</title>
<path fill="none" stroke="midnightblue" d="M517.12,-246.04C571.82,-226.69 673.61,-190.68 722.04,-173.54"/>
<polygon fill="midnightblue" stroke="midnightblue" points="515.73,-242.82 507.47,-249.46 518.07,-249.42 515.73,-242.82"/>
</g>
<!-- Node15 -->
<g id="node15" class="node">
<title>Node15</title>
<g id="a_node15"><a xlink:href="classSyncMinMax.html" target="_top" xlink:title=" ">
<polygon fill="white" stroke="black" points="585.5,-116.5 585.5,-135.5 664.5,-135.5 664.5,-116.5 585.5,-116.5"/>
<text text-anchor="middle" x="625" y="-123.5" font-family="Helvetica,sans-Serif" font-size="10.00">SyncMinMax</text>
</a>
</g>
</g>
<!-- Node2&#45;&gt;Node15 -->
<g id="edge17" class="edge">
<title>Node2&#45;&gt;Node15</title>
<path fill="none" stroke="midnightblue" d="M491.7,-240.59C507.63,-215.79 539.04,-171.68 576,-145 581.16,-141.28 587.15,-138.16 593.11,-135.59"/>
<polygon fill="midnightblue" stroke="midnightblue" points="488.55,-239.03 486.2,-249.36 494.48,-242.75 488.55,-239.03"/>
</g>
<!-- Node3 -->
<g id="node3" class="node">
<title>Node3</title>
<g id="a_node3"><a xlink:href="classRstSync.html" target="_top" xlink:title=" ">
<polygon fill="white" stroke="black" points="150,-304.5 150,-323.5 206,-323.5 206,-304.5 150,-304.5"/>
<text text-anchor="middle" x="178" y="-311.5" font-family="Helvetica,sans-Serif" font-size="10.00">RstSync</text>
</a>
</g>
</g>
<!-- Node3&#45;&gt;Node2 -->
<g id="edge2" class="edge">
<title>Node3&#45;&gt;Node2</title>
<path fill="none" stroke="midnightblue" d="M216.23,-308.73C257.23,-302.76 325.02,-292.35 383,-281 401.7,-277.34 422.32,-272.67 439.59,-268.58"/>
<polygon fill="midnightblue" stroke="midnightblue" points="215.56,-305.29 206.16,-310.19 216.56,-312.22 215.56,-305.29"/>
</g>
<!-- Node4 -->
<g id="node4" class="node">
<title>Node4</title>
<g id="a_node4"><a xlink:href="classSynchronizer.html" target="_top" xlink:title=" ">
<polygon fill="white" stroke="black" points="0,-266.5 0,-285.5 80,-285.5 80,-266.5 0,-266.5"/>
<text text-anchor="middle" x="40" y="-273.5" font-family="Helvetica,sans-Serif" font-size="10.00">Synchronizer</text>
</a>
</g>
</g>
<!-- Node4&#45;&gt;Node3 -->
<g id="edge3" class="edge">
<title>Node4&#45;&gt;Node3</title>
<path fill="none" stroke="midnightblue" d="M85.16,-288.34C106.52,-294.31 131.48,-301.28 149.98,-306.45"/>
<polygon fill="midnightblue" stroke="midnightblue" points="85.89,-284.91 75.32,-285.59 84.01,-291.65 85.89,-284.91"/>
</g>
<!-- Node5 -->
<g id="node5" class="node">
<title>Node5</title>
<g id="a_node5"><a xlink:href="classSynchronizerEdge.html" target="_top" xlink:title=" ">
<polygon fill="white" stroke="black" points="126,-266.5 126,-285.5 230,-285.5 230,-266.5 126,-266.5"/>
<text text-anchor="middle" x="178" y="-273.5" font-family="Helvetica,sans-Serif" font-size="10.00">SynchronizerEdge</text>
</a>
</g>
</g>
<!-- Node4&#45;&gt;Node5 -->
<g id="edge5" class="edge">
<title>Node4&#45;&gt;Node5</title>
<path fill="none" stroke="midnightblue" d="M90.56,-276C101.96,-276 114.11,-276 125.59,-276"/>
<polygon fill="midnightblue" stroke="midnightblue" points="90.34,-272.5 80.34,-276 90.34,-279.5 90.34,-272.5"/>
</g>
<!-- Node8 -->
<g id="node8" class="node">
<title>Node8</title>
<g id="a_node8"><a xlink:href="classRstSync.html" target="_top" xlink:title=" ">
<polygon fill="white" stroke="black" points="143.5,-114.5 143.5,-133.5 212.5,-133.5 212.5,-114.5 143.5,-114.5"/>
<text text-anchor="middle" x="178" y="-121.5" font-family="Helvetica,sans-Serif" font-size="10.00">RstSync(2)</text>
</a>
</g>
</g>
<!-- Node4&#45;&gt;Node8 -->
<g id="edge9" class="edge">
<title>Node4&#45;&gt;Node8</title>
<path fill="none" stroke="midnightblue" d="M46.81,-256.58C56.45,-227.62 78.52,-173.29 116,-143 123.85,-136.66 133.83,-132.42 143.43,-129.6"/>
<polygon fill="midnightblue" stroke="midnightblue" points="43.4,-255.74 43.71,-266.33 50.07,-257.86 43.4,-255.74"/>
</g>
<!-- Node5&#45;&gt;Node2 -->
<g id="edge4" class="edge">
<title>Node5&#45;&gt;Node2</title>
<path fill="none" stroke="midnightblue" d="M240.28,-272.52C292.48,-269.56 367.06,-265.33 418.81,-262.39"/>
<polygon fill="midnightblue" stroke="midnightblue" points="239.93,-269.04 230.15,-273.1 240.33,-276.02 239.93,-269.04"/>
</g>
<!-- Node6 -->
<g id="node6" class="node">
<title>Node6</title>
<g id="a_node6"><a xlink:href="classSynchronizerFifo.html" target="_top" xlink:title=" ">
<polygon fill="white" stroke="black" points="576,-154.5 576,-173.5 674,-173.5 674,-154.5 576,-154.5"/>
<text text-anchor="middle" x="625" y="-161.5" font-family="Helvetica,sans-Serif" font-size="10.00">SynchronizerFifo</text>
</a>
</g>
</g>
<!-- Node6&#45;&gt;Node1 -->
<g id="edge6" class="edge">
<title>Node6&#45;&gt;Node1</title>
<path fill="none" stroke="midnightblue" d="M684.38,-164C693.06,-164 701.83,-164 709.99,-164"/>
<polygon fill="midnightblue" stroke="midnightblue" points="684.26,-160.5 674.26,-164 684.26,-167.5 684.26,-160.5"/>
</g>
<!-- Node7 -->
<g id="node7" class="node">
<title>Node7</title>
<g id="a_node7"><a xlink:href="classFifoAsync.html" target="_top" xlink:title=" ">
<polygon fill="white" stroke="black" points="297.5,-116.5 297.5,-135.5 361.5,-135.5 361.5,-116.5 297.5,-116.5"/>
<text text-anchor="middle" x="329.5" y="-123.5" font-family="Helvetica,sans-Serif" font-size="10.00">FifoAsync</text>
</a>
</g>
</g>
<!-- Node7&#45;&gt;Node6 -->
<g id="edge7" class="edge">
<title>Node7&#45;&gt;Node6</title>
<path fill="none" stroke="midnightblue" d="M371.76,-135.92C386.59,-139.21 403.48,-142.62 419,-145 472.35,-153.17 534.09,-158.31 575.75,-161.16"/>
<polygon fill="midnightblue" stroke="midnightblue" points="372.4,-132.48 361.87,-133.69 370.85,-139.31 372.4,-132.48"/>
</g>
<!-- Node17 -->
<g id="node17" class="node">
<title>Node17</title>
<g id="a_node17"><a xlink:href="classSynchronizerFifo.html" target="_top" xlink:title=" ">
<polygon fill="white" stroke="black" points="424,-116.5 424,-135.5 535,-135.5 535,-116.5 424,-116.5"/>
<text text-anchor="middle" x="479.5" y="-123.5" font-family="Helvetica,sans-Serif" font-size="10.00">SynchronizerFifo(3)</text>
</a>
</g>
</g>
<!-- Node7&#45;&gt;Node17 -->
<g id="edge21" class="edge">
<title>Node7&#45;&gt;Node17</title>
<path fill="none" stroke="midnightblue" d="M371.72,-126C387.87,-126 406.64,-126 423.89,-126"/>
<polygon fill="midnightblue" stroke="midnightblue" points="371.53,-122.5 361.53,-126 371.53,-129.5 371.53,-122.5"/>
</g>
<!-- Node8&#45;&gt;Node7 -->
<g id="edge8" class="edge">
<title>Node8&#45;&gt;Node7</title>
<path fill="none" stroke="midnightblue" d="M222.79,-124.59C246.71,-124.91 275.77,-125.29 297.36,-125.58"/>
<polygon fill="midnightblue" stroke="midnightblue" points="222.6,-121.08 212.55,-124.45 222.5,-128.08 222.6,-121.08"/>
</g>
<!-- Node9 -->
<g id="node9" class="node">
<title>Node9</title>
<g id="a_node9"><a xlink:href="classSynchronizerVector.html" target="_top" xlink:title=" ">
<polygon fill="white" stroke="black" points="116,-76.5 116,-95.5 240,-95.5 240,-76.5 116,-76.5"/>
<text text-anchor="middle" x="178" y="-83.5" font-family="Helvetica,sans-Serif" font-size="10.00">SynchronizerVector(2)</text>
</a>
</g>
</g>
<!-- Node9&#45;&gt;Node7 -->
<g id="edge10" class="edge">
<title>Node9&#45;&gt;Node7</title>
<path fill="none" stroke="midnightblue" d="M224.55,-98.19C248,-104.46 276.01,-111.96 297.04,-117.58"/>
<polygon fill="midnightblue" stroke="midnightblue" points="225.37,-94.78 214.81,-95.58 223.56,-101.55 225.37,-94.78"/>
</g>
<!-- Node10 -->
<g id="node10" class="node">
<title>Node10</title>
<g id="a_node10"><a xlink:href="classSynchronizer.html" target="_top" xlink:title=" ">
<polygon fill="white" stroke="black" points="131.5,-38.5 131.5,-57.5 224.5,-57.5 224.5,-38.5 131.5,-38.5"/>
<text text-anchor="middle" x="178" y="-45.5" font-family="Helvetica,sans-Serif" font-size="10.00">Synchronizer(2)</text>
</a>
</g>
</g>
<!-- Node10&#45;&gt;Node7 -->
<g id="edge11" class="edge">
<title>Node10&#45;&gt;Node7</title>
<path fill="none" stroke="midnightblue" d="M225.4,-60.91C230.41,-62.76 235.36,-64.79 240,-67 269.34,-80.99 300.16,-103.63 316.57,-116.41"/>
<polygon fill="midnightblue" stroke="midnightblue" points="226.37,-57.54 215.78,-57.59 224.09,-64.16 226.37,-57.54"/>
</g>
<!-- Node11 -->
<g id="node11" class="node">
<title>Node11</title>
<g id="a_node11"><a xlink:href="classFifoWrFsm.html" target="_top" xlink:title=" ">
<polygon fill="white" stroke="black" points="143.5,-228.5 143.5,-247.5 212.5,-247.5 212.5,-228.5 143.5,-228.5"/>
<text text-anchor="middle" x="178" y="-235.5" font-family="Helvetica,sans-Serif" font-size="10.00">FifoWrFsm</text>
</a>
</g>
</g>
<!-- Node11&#45;&gt;Node7 -->
<g id="edge12" class="edge">
<title>Node11&#45;&gt;Node7</title>
<path fill="none" stroke="midnightblue" d="M222.3,-227.55C228.47,-225.2 234.56,-222.38 240,-219 276.72,-196.18 308.61,-154.54 321.9,-135.71"/>
<polygon fill="midnightblue" stroke="midnightblue" points="220.96,-224.31 212.62,-230.85 223.21,-230.93 220.96,-224.31"/>
</g>
<!-- Node12 -->
<g id="node12" class="node">
<title>Node12</title>
<g id="a_node12"><a xlink:href="classFifoRdFsm.html" target="_top" xlink:title=" ">
<polygon fill="white" stroke="black" points="144,-190.5 144,-209.5 212,-209.5 212,-190.5 144,-190.5"/>
<text text-anchor="middle" x="178" y="-197.5" font-family="Helvetica,sans-Serif" font-size="10.00">FifoRdFsm</text>
</a>
</g>
</g>
<!-- Node12&#45;&gt;Node7 -->
<g id="edge13" class="edge">
<title>Node12&#45;&gt;Node7</title>
<path fill="none" stroke="midnightblue" d="M221.82,-188.18C228.02,-186.04 234.24,-183.63 240,-181 268.3,-168.06 298.52,-147.68 315.31,-135.7"/>
<polygon fill="midnightblue" stroke="midnightblue" points="220.6,-184.9 212.18,-191.34 222.77,-191.56 220.6,-184.9"/>
</g>
<!-- Node13 -->
<g id="node13" class="node">
<title>Node13</title>
<g id="a_node13"><a xlink:href="classSimpleDualPortRam.html" target="_top" xlink:title=" ">
<polygon fill="white" stroke="black" points="120.5,-152.5 120.5,-171.5 235.5,-171.5 235.5,-152.5 120.5,-152.5"/>
<text text-anchor="middle" x="178" y="-159.5" font-family="Helvetica,sans-Serif" font-size="10.00">SimpleDualPortRam</text>
</a>
</g>
</g>
<!-- Node13&#45;&gt;Node7 -->
<g id="edge14" class="edge">
<title>Node13&#45;&gt;Node7</title>
<path fill="none" stroke="midnightblue" d="M228.47,-150.09C251.12,-144.63 277.29,-138.33 297.17,-133.54"/>
<polygon fill="midnightblue" stroke="midnightblue" points="227.57,-146.7 218.67,-152.45 229.21,-153.51 227.57,-146.7"/>
</g>
<!-- Node14 -->
<g id="node14" class="node">
<title>Node14</title>
<g id="a_node14"><a xlink:href="classFifoOutputPipeline.html" target="_top" xlink:title=" ">
<polygon fill="white" stroke="black" points="124.5,-0.5 124.5,-19.5 231.5,-19.5 231.5,-0.5 124.5,-0.5"/>
<text text-anchor="middle" x="178" y="-7.5" font-family="Helvetica,sans-Serif" font-size="10.00">FifoOutputPipeline</text>
</a>
</g>
</g>
<!-- Node14&#45;&gt;Node7 -->
<g id="edge15" class="edge">
<title>Node14&#45;&gt;Node7</title>
<path fill="none" stroke="midnightblue" d="M229.89,-23.49C233.42,-25.14 236.82,-26.96 240,-29 260.14,-41.91 259.9,-51.31 276,-69 291.22,-85.71 309.07,-105.04 319.55,-116.35"/>
<polygon fill="midnightblue" stroke="midnightblue" points="230.96,-20.15 220.38,-19.57 228.29,-26.62 230.96,-20.15"/>
</g>
<!-- Node16 -->
<g id="node16" class="node">
<title>Node16</title>
<g id="a_node16"><a xlink:href="classDspComparator.html" target="_top" xlink:title=" ">
<polygon fill="white" stroke="black" points="276,-40.5 276,-59.5 383,-59.5 383,-40.5 276,-40.5"/>
<text text-anchor="middle" x="329.5" y="-47.5" font-family="Helvetica,sans-Serif" font-size="10.00">DspComparator(2)</text>
</a>
</g>
</g>
<!-- Node14&#45;&gt;Node16 -->
<g id="edge19" class="edge">
<title>Node14&#45;&gt;Node16</title>
<path fill="none" stroke="midnightblue" d="M224.59,-22.2C246.56,-28.08 272.51,-35.02 292.98,-40.5"/>
<polygon fill="midnightblue" stroke="midnightblue" points="225.37,-18.78 214.81,-19.58 223.56,-25.55 225.37,-18.78"/>
</g>
<!-- Node15&#45;&gt;Node1 -->
<g id="edge16" class="edge">
<title>Node15&#45;&gt;Node1</title>
<path fill="none" stroke="midnightblue" d="M667.04,-138.68C683.66,-143.81 702.53,-149.64 717.97,-154.41"/>
<polygon fill="midnightblue" stroke="midnightblue" points="667.63,-135.2 657.04,-135.59 665.56,-141.88 667.63,-135.2"/>
</g>
<!-- Node16&#45;&gt;Node15 -->
<g id="edge18" class="edge">
<title>Node16&#45;&gt;Node15</title>
<path fill="none" stroke="midnightblue" d="M377.06,-62.06C435.27,-77.13 533.73,-102.63 587.05,-116.43"/>
<polygon fill="midnightblue" stroke="midnightblue" points="377.93,-58.67 367.37,-59.55 376.18,-65.44 377.93,-58.67"/>
</g>
<!-- Node17&#45;&gt;Node15 -->
<g id="edge20" class="edge">
<title>Node17&#45;&gt;Node15</title>
<path fill="none" stroke="midnightblue" d="M545.42,-126C558.97,-126 572.85,-126 585.1,-126"/>
<polygon fill="midnightblue" stroke="midnightblue" points="545.16,-122.5 535.16,-126 545.16,-129.5 545.16,-122.5"/>
</g>
<!-- Node19 -->
<g id="node19" class="node">
<title>Node19</title>
<g id="a_node19"><a xlink:href="classAxiAd5780Core.html" target="_top" xlink:title=" ">
<polygon fill="white" stroke="black" points="981,-230.5 981,-249.5 1073,-249.5 1073,-230.5 981,-230.5"/>
<text text-anchor="middle" x="1027" y="-237.5" font-family="Helvetica,sans-Serif" font-size="10.00">AxiAd5780Core</text>
</a>
</g>
</g>
<!-- Node18&#45;&gt;Node19 -->
<g id="edge23" class="edge">
<title>Node18&#45;&gt;Node19</title>
<path fill="none" stroke="midnightblue" d="M935.34,-240C950.29,-240 966.4,-240 980.83,-240"/>
<polygon fill="midnightblue" stroke="midnightblue" points="935.2,-236.5 925.2,-240 935.2,-243.5 935.2,-236.5"/>
</g>
<!-- Node21 -->
<g id="node21" class="node">
<title>Node21</title>
<g id="a_node21"><a xlink:href="classAxiRssiCore.html" target="_top" xlink:title=" ">
<polygon fill="white" stroke="black" points="989.5,-78.5 989.5,-97.5 1064.5,-97.5 1064.5,-78.5 989.5,-78.5"/>
<text text-anchor="middle" x="1027" y="-85.5" font-family="Helvetica,sans-Serif" font-size="10.00">AxiRssiCore</text>
</a>
</g>
</g>
<!-- Node20&#45;&gt;Node21 -->
<g id="edge25" class="edge">
<title>Node20&#45;&gt;Node21</title>
<path fill="none" stroke="midnightblue" d="M921.26,-131.95C926.26,-130.07 931.28,-128.06 936,-126 952.58,-118.76 955.42,-114.24 972,-107 979.74,-103.62 988.29,-100.39 996.27,-97.58"/>
<polygon fill="midnightblue" stroke="midnightblue" points="919.93,-128.71 911.73,-135.42 922.33,-135.29 919.93,-128.71"/>
</g>
<!-- Node24 -->
<g id="node24" class="node">
<title>Node24</title>
<g id="a_node24"><a xlink:href="classAxiStreamMonAxiL.html" target="_top" xlink:title=" ">
<polygon fill="white" stroke="black" points="972,-154.5 972,-173.5 1082,-173.5 1082,-154.5 972,-154.5"/>
<text text-anchor="middle" x="1027" y="-161.5" font-family="Helvetica,sans-Serif" font-size="10.00">AxiStreamMonAxiL</text>
</a>
</g>
</g>
<!-- Node20&#45;&gt;Node24 -->
<g id="edge28" class="edge">
<title>Node20&#45;&gt;Node24</title>
<path fill="none" stroke="midnightblue" d="M935.75,-152.09C947.54,-153.65 960.04,-155.3 971.85,-156.86"/>
<polygon fill="midnightblue" stroke="midnightblue" points="935.97,-148.59 925.6,-150.75 935.05,-155.53 935.97,-148.59"/>
</g>
<!-- Node26 -->
<g id="node26" class="node">
<title>Node26</title>
<g id="a_node26"><a xlink:href="classRssiCore.html" target="_top" xlink:title=" ">
<polygon fill="white" stroke="black" points="997.5,-116.5 997.5,-135.5 1056.5,-135.5 1056.5,-116.5 997.5,-116.5"/>
<text text-anchor="middle" x="1027" y="-123.5" font-family="Helvetica,sans-Serif" font-size="10.00">RssiCore</text>
</a>
</g>
</g>
<!-- Node20&#45;&gt;Node26 -->
<g id="edge30" class="edge">
<title>Node20&#45;&gt;Node26</title>
<path fill="none" stroke="midnightblue" d="M935.62,-137.93C956.46,-135.18 979.51,-132.13 997.11,-129.81"/>
<polygon fill="midnightblue" stroke="midnightblue" points="935.05,-134.47 925.6,-139.25 935.97,-141.41 935.05,-134.47"/>
</g>
<!-- Node31 -->
<g id="node31" class="node">
<title>Node31</title>
<g id="a_node31"><a xlink:href="classSsiPrbsRateGen.html" target="_top" xlink:title=" ">
<polygon fill="white" stroke="black" points="980,-40.5 980,-59.5 1074,-59.5 1074,-40.5 980,-40.5"/>
<text text-anchor="middle" x="1027" y="-47.5" font-family="Helvetica,sans-Serif" font-size="10.00">SsiPrbsRateGen</text>
</a>
</g>
</g>
<!-- Node20&#45;&gt;Node31 -->
<g id="edge35" class="edge">
<title>Node20&#45;&gt;Node31</title>
<path fill="none" stroke="midnightblue" d="M928.75,-130.92C931.3,-129.44 933.74,-127.8 936,-126 959.43,-107.33 948.57,-87.67 972,-69 976.82,-65.16 982.47,-62.06 988.27,-59.58"/>
<polygon fill="midnightblue" stroke="midnightblue" points="927.12,-127.82 919.73,-135.42 930.24,-134.09 927.12,-127.82"/>
</g>
<!-- Node22 -->
<g id="node22" class="node">
<title>Node22</title>
<g id="a_node22"><a xlink:href="classAxiRssiCoreWrapper.html" target="_top" xlink:title=" ">
<polygon fill="white" stroke="black" points="1118,-78.5 1118,-97.5 1234,-97.5 1234,-78.5 1118,-78.5"/>
<text text-anchor="middle" x="1176" y="-85.5" font-family="Helvetica,sans-Serif" font-size="10.00">AxiRssiCoreWrapper</text>
</a>
</g>
</g>
<!-- Node21&#45;&gt;Node22 -->
<g id="edge26" class="edge">
<title>Node21&#45;&gt;Node22</title>
<path fill="none" stroke="midnightblue" d="M1074.86,-88C1088.55,-88 1103.65,-88 1117.89,-88"/>
<polygon fill="midnightblue" stroke="midnightblue" points="1074.72,-84.5 1064.72,-88 1074.72,-91.5 1074.72,-84.5"/>
</g>
<!-- Node23 -->
<g id="node23" class="node">
<title>Node23</title>
<g id="a_node23"><a xlink:href="classAxiRssiCoreTb.html" target="_top" xlink:title=" ">
<polygon fill="white" stroke="black" points="1276.5,-78.5 1276.5,-97.5 1363.5,-97.5 1363.5,-78.5 1276.5,-78.5"/>
<text text-anchor="middle" x="1320" y="-85.5" font-family="Helvetica,sans-Serif" font-size="10.00">AxiRssiCoreTb</text>
</a>
</g>
</g>
<!-- Node22&#45;&gt;Node23 -->
<g id="edge27" class="edge">
<title>Node22&#45;&gt;Node23</title>
<path fill="none" stroke="midnightblue" d="M1244.62,-88C1255.41,-88 1266.3,-88 1276.29,-88"/>
<polygon fill="midnightblue" stroke="midnightblue" points="1244.35,-84.5 1234.35,-88 1244.35,-91.5 1244.35,-84.5"/>
</g>
<!-- Node25 -->
<g id="node25" class="node">
<title>Node25</title>
<g id="a_node25"><a xlink:href="classAxiMonAxiL.html" target="_top" xlink:title=" ">
<polygon fill="white" stroke="black" points="1139,-154.5 1139,-173.5 1213,-173.5 1213,-154.5 1139,-154.5"/>
<text text-anchor="middle" x="1176" y="-161.5" font-family="Helvetica,sans-Serif" font-size="10.00">AxiMonAxiL</text>
</a>
</g>
</g>
<!-- Node24&#45;&gt;Node25 -->
<g id="edge29" class="edge">
<title>Node24&#45;&gt;Node25</title>
<path fill="none" stroke="midnightblue" d="M1092.6,-164C1108.42,-164 1124.8,-164 1138.74,-164"/>
<polygon fill="midnightblue" stroke="midnightblue" points="1092.32,-160.5 1082.32,-164 1092.32,-167.5 1092.32,-160.5"/>
</g>
<!-- Node27 -->
<g id="node27" class="node">
<title>Node27</title>
<g id="a_node27"><a xlink:href="classRssiCoreWrapper.html" target="_top" xlink:title=" ">
<polygon fill="white" stroke="black" points="1125.5,-116.5 1125.5,-135.5 1226.5,-135.5 1226.5,-116.5 1125.5,-116.5"/>
<text text-anchor="middle" x="1176" y="-123.5" font-family="Helvetica,sans-Serif" font-size="10.00">RssiCoreWrapper</text>
</a>
</g>
</g>
<!-- Node26&#45;&gt;Node27 -->
<g id="edge31" class="edge">
<title>Node26&#45;&gt;Node27</title>
<path fill="none" stroke="midnightblue" d="M1066.78,-126C1084.68,-126 1106.16,-126 1125.24,-126"/>
<polygon fill="midnightblue" stroke="midnightblue" points="1066.69,-122.5 1056.69,-126 1066.69,-129.5 1066.69,-122.5"/>
</g>
<!-- Node27&#45;&gt;Node28 -->
<g id="edge32" class="edge">
<title>Node27&#45;&gt;Node28</title>
<path fill="none" stroke="midnightblue" d="M1223.88,-139.49C1227.41,-141.14 1230.82,-142.98 1234,-145 1253.62,-157.5 1250.68,-170.03 1270,-183 1275.53,-186.71 1281.89,-189.85 1288.16,-192.44"/>
<polygon fill="midnightblue" stroke="midnightblue" points="1224.97,-136.15 1214.39,-135.53 1222.27,-142.61 1224.97,-136.15"/>
</g>
<!-- Node29 -->
<g id="node29" class="node">
<title>Node29</title>
<g id="a_node29"><a xlink:href="classRssiCoreTb.html" target="_top" xlink:title=" ">
<polygon fill="white" stroke="black" points="1284.5,-154.5 1284.5,-173.5 1355.5,-173.5 1355.5,-154.5 1284.5,-154.5"/>
<text text-anchor="middle" x="1320" y="-161.5" font-family="Helvetica,sans-Serif" font-size="10.00">RssiCoreTb</text>
</a>
</g>
</g>
<!-- Node27&#45;&gt;Node29 -->
<g id="edge33" class="edge">
<title>Node27&#45;&gt;Node29</title>
<path fill="none" stroke="midnightblue" d="M1222.64,-138.21C1242.6,-143.55 1265.62,-149.72 1284.16,-154.68"/>
<polygon fill="midnightblue" stroke="midnightblue" points="1223.4,-134.79 1212.83,-135.59 1221.59,-141.56 1223.4,-134.79"/>
</g>
<!-- Node30 -->
<g id="node30" class="node">
<title>Node30</title>
<g id="a_node30"><a xlink:href="classRssiInterleaveTb.html" target="_top" xlink:title=" ">
<polygon fill="white" stroke="black" points="1271,-116.5 1271,-135.5 1369,-135.5 1369,-116.5 1271,-116.5"/>
<text text-anchor="middle" x="1320" y="-123.5" font-family="Helvetica,sans-Serif" font-size="10.00">RssiInterleaveTb</text>
</a>
</g>
</g>
<!-- Node27&#45;&gt;Node30 -->
<g id="edge34" class="edge">
<title>Node27&#45;&gt;Node30</title>
<path fill="none" stroke="midnightblue" d="M1236.85,-126C1248.09,-126 1259.72,-126 1270.56,-126"/>
<polygon fill="midnightblue" stroke="midnightblue" points="1236.66,-122.5 1226.66,-126 1236.66,-129.5 1236.66,-122.5"/>
</g>
</g>
</svg>
