<?xml version="1.0" encoding="UTF-8" standalone="no"?>
<!DOCTYPE svg PUBLIC "-//W3C//DTD SVG 1.1//EN"
 "http://www.w3.org/Graphics/SVG/1.1/DTD/svg11.dtd">
<!-- Generated by graphviz version 2.43.0 (0)
 -->
<!-- Title: CoaXPressCrcTb Pages: 1 -->
<!--zoomable 522 -->

<svg id="main" version="1.1" xmlns="http://www.w3.org/2000/svg" xmlns:xlink="http://www.w3.org/1999/xlink" xml:space="preserve" onload="init(evt)">
<style type="text/css"><![CDATA[
.node, .edge {opacity: 0.7;}
.node.selected, .edge.selected {opacity: 1;}
.edge:hover path { stroke: red; }
.edge:hover polygon { stroke: red; fill: red; }
]]></style>

<defs>
  <circle id="rim" cx="0" cy="0" r="7"/>
  <circle id="rim2" cx="0" cy="0" r="3.5"/>
  <g id="zoomPlus">
    <use xlink:href="#rim" fill="#404040"><set attributeName="fill" to="#808080" begin="zoomplus.mouseover" end="zoomplus.mouseout"/></use>
    <path d="M-4,0h8M0,-4v8" fill="none" stroke="white" stroke-width="1.5" pointer-events="none"/>
  </g>
  <g id="zoomMin">
    <use xlink:href="#rim" fill="#404040"><set attributeName="fill" to="#808080" begin="zoomminus.mouseover" end="zoomminus.mouseout"/></use>
    <path d="M-4,0h8" fill="none" stroke="white" stroke-width="1.5" pointer-events="none"/>
  </g>
  <g id="arrowUp" transform="translate(30 24)">
    <use xlink:href="#rim"/>
    <path pointer-events="none" fill="none" stroke="white" stroke-width="1.5" d="M0,-3.0v7 M-2.5,-0.5L0,-3.0L2.5,-0.5"/>
  </g>
  <g id="arrowRight" transform="rotate(90) translate(36 -43)">
    <use xlink:href="#rim"/>
    <path pointer-events="none" fill="none" stroke="white" stroke-width="1.5" d="M0,-3.0v7 M-2.5,-0.5L0,-3.0L2.5,-0.5"/>
  </g>
  <g id="arrowDown" transform="rotate(180) translate(-30 -48)">
    <use xlink:href="#rim"/>
    <path pointer-events="none" fill="none" stroke="white" stroke-width="1.5" d="M0,-3.0v7 M-2.5,-0.5L0,-3.0L2.5,-0.5"/>
  </g>
  <g id="arrowLeft" transform="rotate(270) translate(-36 17)">
    <use xlink:href="#rim"/>
    <path pointer-events="none" fill="none" stroke="white" stroke-width="1.5" d="M0,-3.0v7 M-2.5,-0.5L0,-3.0L2.5,-0.5"/>
  </g>
  <g id="resetDef">
    <use xlink:href="#rim2" fill="#404040"><set attributeName="fill" to="#808080" begin="reset.mouseover" end="reset.mouseout"/></use>
  </g>
</defs>
<script type="application/ecmascript">
var viewWidth = 814;
var viewHeight = 522;
var sectionId = 'dynsection-1';
</script>
<script type="application/ecmascript" xlink:href="svg.min.js"/>
<svg id="graph" class="graph">
<g id="viewport">
<title>CoaXPressCrcTb</title>
<!-- Node1 -->
<g id="Node000001" class="node">
<title>Node1</title>
<g id="a_Node000001"><a xlink:title=" ">
<polygon fill="#999999" stroke="#666666" points="351.99,-19 255.99,-19 255.99,0 351.99,0 351.99,-19"/>
<text text-anchor="middle" x="303.99" y="-7" font-family="Helvetica,sans-Serif" font-size="10.00">CoaXPressCrcTb</text>
</a>
</g>
</g>
<!-- Node2 -->
<g id="Node000002" class="node">
<title>Node2</title>
<g id="a_Node000002"><a xlink:href="classClkRst.html" target="_top" xlink:title=" ">
<polygon fill="white" stroke="#bfbfbf" points="275.99,-74 227.99,-74 227.99,-55 275.99,-55 275.99,-74"/>
<text text-anchor="middle" x="251.99" y="-62" font-family="Helvetica,sans-Serif" font-size="10.00">ClkRst</text>
</a>
</g>
</g>
<!-- Node2&#45;&gt;Node1 -->
<g id="edge1_Node000001_Node000002" class="edge">
<title>Node2&#45;&gt;Node1</title>
<g id="a_edge1_Node000001_Node000002"><a xlink:title=" ">
<path fill="none" stroke="#63b8ff" d="M267.67,-47.52C276.84,-38.18 288.04,-26.75 295.57,-19.09"/>
<polygon fill="#63b8ff" stroke="#63b8ff" points="265.08,-45.16 260.58,-54.75 270.08,-50.06 265.08,-45.16"/>
</a>
</g>
</g>
<!-- Node3 -->
<g id="Node000003" class="node">
<title>Node3</title>
<g id="a_Node000003"><a xlink:href="classCoaXPressConfig.html" target="_top" xlink:title=" ">
<polygon fill="white" stroke="#bfbfbf" points="472.49,-74 373.49,-74 373.49,-55 472.49,-55 472.49,-74"/>
<text text-anchor="middle" x="422.99" y="-62" font-family="Helvetica,sans-Serif" font-size="10.00">CoaXPressConfig</text>
</a>
</g>
</g>
<!-- Node3&#45;&gt;Node1 -->
<g id="edge2_Node000001_Node000003" class="edge">
<title>Node3&#45;&gt;Node1</title>
<g id="a_edge2_Node000001_Node000003"><a xlink:title=" ">
<path fill="none" stroke="#63b8ff" d="M394.7,-50.9C372.72,-41.11 342.82,-27.79 323.46,-19.17"/>
<polygon fill="#63b8ff" stroke="#63b8ff" points="393.31,-54.11 403.87,-54.98 396.16,-47.72 393.31,-54.11"/>
</a>
</g>
</g>
<!-- Node4 -->
<g id="Node000004" class="node">
<title>Node4</title>
<g id="a_Node000004"><a xlink:href="classSrpV3AxiLite.html" target="_top" xlink:title=" ">
<polygon fill="white" stroke="#bfbfbf" points="483.49,-129 404.49,-129 404.49,-110 483.49,-110 483.49,-129"/>
<text text-anchor="middle" x="443.99" y="-117" font-family="Helvetica,sans-Serif" font-size="10.00">SrpV3AxiLite</text>
</a>
</g>
</g>
<!-- Node4&#45;&gt;Node3 -->
<g id="edge3_Node000003_Node000004" class="edge">
<title>Node4&#45;&gt;Node3</title>
<g id="a_edge3_Node000003_Node000004"><a xlink:title=" ">
<path fill="none" stroke="#63b8ff" d="M436.76,-100.24C433.24,-91.37 429.19,-81.14 426.4,-74.09"/>
<polygon fill="#63b8ff" stroke="#63b8ff" points="433.59,-101.74 440.52,-109.75 440.09,-99.16 433.59,-101.74"/>
</a>
</g>
</g>
<!-- Node5 -->
<g id="Node000005" class="node">
<title>Node5</title>
<g id="a_Node000005"><a xlink:href="classSsiFrameLimiter.html" target="_top" xlink:title=" ">
<polygon fill="white" stroke="#bfbfbf" points="529.99,-184 433.99,-184 433.99,-165 529.99,-165 529.99,-184"/>
<text text-anchor="middle" x="481.99" y="-172" font-family="Helvetica,sans-Serif" font-size="10.00">SsiFrameLimiter</text>
</a>
</g>
</g>
<!-- Node5&#45;&gt;Node4 -->
<g id="edge4_Node000004_Node000005" class="edge">
<title>Node5&#45;&gt;Node4</title>
<g id="a_edge4_Node000004_Node000005"><a xlink:title=" ">
<path fill="none" stroke="#63b8ff" d="M469.72,-156.39C463.19,-147.27 455.43,-136.45 450.15,-129.09"/>
<polygon fill="#63b8ff" stroke="#63b8ff" points="467.05,-158.66 475.72,-164.75 472.74,-154.58 467.05,-158.66"/>
</a>
</g>
</g>
<!-- Node6 -->
<g id="Node000006" class="node">
<title>Node6</title>
<g id="a_Node000006"><a xlink:href="classAxiStreamGearbox.html" target="_top" xlink:title=" ">
<polygon fill="white" stroke="#bfbfbf" points="537.49,-294 428.49,-294 428.49,-275 537.49,-275 537.49,-294"/>
<text text-anchor="middle" x="482.99" y="-282" font-family="Helvetica,sans-Serif" font-size="10.00">AxiStreamGearbox</text>
</a>
</g>
</g>
<!-- Node6&#45;&gt;Node5 -->
<g id="edge5_Node000005_Node000006" class="edge">
<title>Node6&#45;&gt;Node5</title>
<g id="a_edge5_Node000005_Node000006"><a xlink:title=" ">
<path fill="none" stroke="#63b8ff" d="M482.82,-264.48C482.6,-240.84 482.23,-201.5 482.07,-184.16"/>
<polygon fill="#63b8ff" stroke="#63b8ff" points="479.32,-264.69 482.91,-274.66 486.32,-264.63 479.32,-264.69"/>
</a>
</g>
</g>
<!-- Node9 -->
<g id="Node000009" class="node">
<title>Node9</title>
<g id="a_Node000009"><a xlink:href="classAxiStreamFifoV2.html" target="_top" xlink:title=" ">
<polygon fill="white" stroke="#bfbfbf" points="454.99,-239 356.99,-239 356.99,-220 454.99,-220 454.99,-239"/>
<text text-anchor="middle" x="405.99" y="-227" font-family="Helvetica,sans-Serif" font-size="10.00">AxiStreamFifoV2</text>
</a>
</g>
</g>
<!-- Node6&#45;&gt;Node9 -->
<g id="edge10_Node000009_Node000006" class="edge">
<title>Node6&#45;&gt;Node9</title>
<g id="a_edge10_Node000009_Node000006"><a xlink:title=" ">
<path fill="none" stroke="#63b8ff" d="M462.15,-269.15C448.23,-259.57 430.38,-247.29 418.59,-239.17"/>
<polygon fill="#63b8ff" stroke="#63b8ff" points="460.4,-272.2 470.62,-274.98 464.37,-266.43 460.4,-272.2"/>
</a>
</g>
</g>
<!-- Node7 -->
<g id="Node000007" class="node">
<title>Node7</title>
<g id="a_Node000007"><a xlink:href="classAxiStreamResize.html" target="_top" xlink:title=" ">
<polygon fill="white" stroke="#bfbfbf" points="527.99,-349 427.99,-349 427.99,-330 527.99,-330 527.99,-349"/>
<text text-anchor="middle" x="477.99" y="-337" font-family="Helvetica,sans-Serif" font-size="10.00">AxiStreamResize</text>
</a>
</g>
</g>
<!-- Node7&#45;&gt;Node6 -->
<g id="edge6_Node000006_Node000007" class="edge">
<title>Node7&#45;&gt;Node6</title>
<g id="a_edge6_Node000006_Node000007"><a xlink:title=" ">
<path fill="none" stroke="#63b8ff" d="M479.77,-319.66C480.59,-310.93 481.53,-300.99 482.18,-294.09"/>
<polygon fill="#63b8ff" stroke="#63b8ff" points="476.27,-319.46 478.82,-329.75 483.24,-320.12 476.27,-319.46"/>
</a>
</g>
</g>
<!-- Node8 -->
<g id="Node000008" class="node">
<title>Node8</title>
<g id="a_Node000008"><a xlink:href="classAxiStreamPipeline.html" target="_top" xlink:title=" ">
<polygon fill="white" stroke="#bfbfbf" points="522.49,-404 415.49,-404 415.49,-385 522.49,-385 522.49,-404"/>
<text text-anchor="middle" x="468.99" y="-392" font-family="Helvetica,sans-Serif" font-size="10.00">AxiStreamPipeline</text>
</a>
</g>
</g>
<!-- Node8&#45;&gt;Node6 -->
<g id="edge8_Node000006_Node000008" class="edge">
<title>Node8&#45;&gt;Node6</title>
<g id="a_edge8_Node000006_Node000008"><a xlink:title=" ">
<path fill="none" stroke="#63b8ff" d="M501.87,-380.47C515.29,-373.33 529.41,-363.02 536.99,-349 548.97,-326.85 519.72,-305.47 499.75,-294.05"/>
<polygon fill="#63b8ff" stroke="#63b8ff" points="500.22,-377.38 492.78,-384.92 503.3,-383.67 500.22,-377.38"/>
</a>
</g>
</g>
<!-- Node8&#45;&gt;Node7 -->
<g id="edge7_Node000007_Node000008" class="edge">
<title>Node8&#45;&gt;Node7</title>
<g id="a_edge7_Node000007_Node000008"><a xlink:title=" ">
<path fill="none" stroke="#63b8ff" d="M472.19,-374.66C473.67,-365.93 475.36,-355.99 476.53,-349.09"/>
<polygon fill="#63b8ff" stroke="#63b8ff" points="468.7,-374.3 470.48,-384.75 475.6,-375.48 468.7,-374.3"/>
</a>
</g>
</g>
<!-- Node8&#45;&gt;Node9 -->
<g id="edge32_Node000009_Node000008" class="edge">
<title>Node8&#45;&gt;Node9</title>
<g id="a_edge32_Node000009_Node000008"><a xlink:title=" ">
<path fill="none" stroke="#63b8ff" d="M446.04,-378.88C436.02,-371.24 425.17,-360.98 418.99,-349 399.82,-311.85 402.81,-259.55 404.92,-239.13"/>
<polygon fill="#63b8ff" stroke="#63b8ff" points="444.31,-381.95 454.49,-384.9 448.37,-376.25 444.31,-381.95"/>
</a>
</g>
</g>
<!-- Node27 -->
<g id="Node000027" class="node">
<title>Node27</title>
<g id="a_Node000027"><a xlink:href="classAxiStreamMux.html" target="_top" xlink:title=" ">
<polygon fill="white" stroke="#bfbfbf" points="371.49,-294 282.49,-294 282.49,-275 371.49,-275 371.49,-294"/>
<text text-anchor="middle" x="326.99" y="-282" font-family="Helvetica,sans-Serif" font-size="10.00">AxiStreamMux</text>
</a>
</g>
</g>
<!-- Node8&#45;&gt;Node27 -->
<g id="edge41_Node000027_Node000008" class="edge">
<title>Node8&#45;&gt;Node27</title>
<g id="a_edge41_Node000027_Node000008"><a xlink:title=" ">
<path fill="none" stroke="#63b8ff" d="M439.55,-380.66C423.01,-372.75 402.44,-361.69 385.99,-349 364.31,-332.27 343.64,-307.23 333.5,-294.16"/>
<polygon fill="#63b8ff" stroke="#63b8ff" points="438.23,-383.91 448.77,-384.95 441.18,-377.56 438.23,-383.91"/>
</a>
</g>
</g>
<!-- Node9&#45;&gt;Node4 -->
<g id="edge33_Node000004_Node000009" class="edge">
<title>Node9&#45;&gt;Node4</title>
<g id="a_edge33_Node000004_Node000009"><a xlink:title=" ">
<path fill="none" stroke="#63b8ff" d="M410.96,-209.89C414.52,-197.14 419.6,-179.9 424.99,-165 429.57,-152.36 435.84,-138.14 439.91,-129.25"/>
<polygon fill="#63b8ff" stroke="#63b8ff" points="407.52,-209.2 408.27,-219.77 414.28,-211.04 407.52,-209.2"/>
</a>
</g>
</g>
<!-- Node9&#45;&gt;Node5 -->
<g id="edge9_Node000005_Node000009" class="edge">
<title>Node9&#45;&gt;Node5</title>
<g id="a_edge9_Node000005_Node000009"><a xlink:title=" ">
<path fill="none" stroke="#63b8ff" d="M426.57,-214.15C440.3,-204.57 457.92,-192.29 469.56,-184.17"/>
<polygon fill="#63b8ff" stroke="#63b8ff" points="424.4,-211.39 418.2,-219.98 428.41,-217.14 424.4,-211.39"/>
</a>
</g>
</g>
<!-- Node25 -->
<g id="Node000025" class="node">
<title>Node25</title>
<g id="a_Node000025"><a xlink:href="classCoaXPressTx.html" target="_top" xlink:title=" ">
<polygon fill="white" stroke="#bfbfbf" points="322.99,-184 242.99,-184 242.99,-165 322.99,-165 322.99,-184"/>
<text text-anchor="middle" x="282.99" y="-172" font-family="Helvetica,sans-Serif" font-size="10.00">CoaXPressTx</text>
</a>
</g>
</g>
<!-- Node9&#45;&gt;Node25 -->
<g id="edge42_Node000025_Node000009" class="edge">
<title>Node9&#45;&gt;Node25</title>
<g id="a_edge42_Node000025_Node000009"><a xlink:title=" ">
<path fill="none" stroke="#63b8ff" d="M376.74,-215.9C354.03,-206.11 323.12,-192.79 303.11,-184.17"/>
<polygon fill="#63b8ff" stroke="#63b8ff" points="375.66,-219.24 386.23,-219.98 378.43,-212.81 375.66,-219.24"/>
</a>
</g>
</g>
<!-- Node10 -->
<g id="Node000010" class="node">
<title>Node10</title>
<g id="a_Node000010"><a xlink:href="classFifoCascade.html" target="_top" xlink:title=" ">
<polygon fill="white" stroke="#bfbfbf" points="263.99,-294 187.99,-294 187.99,-275 263.99,-275 263.99,-294"/>
<text text-anchor="middle" x="225.99" y="-282" font-family="Helvetica,sans-Serif" font-size="10.00">FifoCascade</text>
</a>
</g>
</g>
<!-- Node10&#45;&gt;Node9 -->
<g id="edge11_Node000009_Node000010" class="edge">
<title>Node10&#45;&gt;Node9</title>
<g id="a_edge11_Node000009_Node000010"><a xlink:title=" ">
<path fill="none" stroke="#63b8ff" d="M264.86,-272.06C298.5,-262.15 346.41,-248.04 376.85,-239.08"/>
<polygon fill="#63b8ff" stroke="#63b8ff" points="263.52,-268.8 254.91,-274.98 265.49,-275.52 263.52,-268.8"/>
</a>
</g>
</g>
<!-- Node11 -->
<g id="Node000011" class="node">
<title>Node11</title>
<g id="a_Node000011"><a xlink:href="classFifo.html" target="_top" xlink:title=" ">
<polygon fill="white" stroke="#bfbfbf" points="243.49,-349 208.49,-349 208.49,-330 243.49,-330 243.49,-349"/>
<text text-anchor="middle" x="225.99" y="-337" font-family="Helvetica,sans-Serif" font-size="10.00">Fifo</text>
</a>
</g>
</g>
<!-- Node11&#45;&gt;Node10 -->
<g id="edge12_Node000010_Node000011" class="edge">
<title>Node11&#45;&gt;Node10</title>
<g id="a_edge12_Node000010_Node000011"><a xlink:title=" ">
<path fill="none" stroke="#63b8ff" d="M225.99,-319.66C225.99,-310.93 225.99,-300.99 225.99,-294.09"/>
<polygon fill="#63b8ff" stroke="#63b8ff" points="222.49,-319.75 225.99,-329.75 229.49,-319.75 222.49,-319.75"/>
</a>
</g>
</g>
<!-- Node12 -->
<g id="Node000012" class="node">
<title>Node12</title>
<g id="a_Node000012"><a xlink:href="classFifoXpm.html" target="_top" xlink:title=" ">
<polygon fill="white" stroke="#bfbfbf" points="196.49,-404 139.49,-404 139.49,-385 196.49,-385 196.49,-404"/>
<text text-anchor="middle" x="167.99" y="-392" font-family="Helvetica,sans-Serif" font-size="10.00">FifoXpm</text>
</a>
</g>
</g>
<!-- Node12&#45;&gt;Node11 -->
<g id="edge13_Node000011_Node000012" class="edge">
<title>Node12&#45;&gt;Node11</title>
<g id="a_edge13_Node000011_Node000012"><a xlink:title=" ">
<path fill="none" stroke="#63b8ff" d="M184.91,-378.04C195.2,-368.64 207.96,-356.98 216.5,-349.17"/>
<polygon fill="#63b8ff" stroke="#63b8ff" points="182.33,-375.66 177.31,-384.98 187.05,-380.82 182.33,-375.66"/>
</a>
</g>
</g>
<!-- Node13 -->
<g id="Node000013" class="node">
<title>Node13</title>
<g id="a_Node000013"><a xlink:href="classFifoOutputPipeline.html" target="_top" xlink:title=" ">
<polygon fill="white" stroke="#bfbfbf" points="136.49,-459 29.49,-459 29.49,-440 136.49,-440 136.49,-459"/>
<text text-anchor="middle" x="82.99" y="-447" font-family="Helvetica,sans-Serif" font-size="10.00">FifoOutputPipeline</text>
</a>
</g>
</g>
<!-- Node13&#45;&gt;Node12 -->
<g id="edge14_Node000012_Node000013" class="edge">
<title>Node13&#45;&gt;Node12</title>
<g id="a_edge14_Node000012_Node000013"><a xlink:title=" ">
<path fill="none" stroke="#63b8ff" d="M105.57,-434.42C120.99,-424.81 140.94,-412.37 154.09,-404.17"/>
<polygon fill="#63b8ff" stroke="#63b8ff" points="103.28,-431.72 96.65,-439.98 106.99,-437.66 103.28,-431.72"/>
</a>
</g>
</g>
<!-- Node14 -->
<g id="Node000014" class="node">
<title>Node14</title>
<g id="a_Node000014"><a xlink:href="classFifoAlteraMf.html" target="_top" xlink:title=" ">
<polygon fill="white" stroke="#bfbfbf" points="121.49,-404 44.49,-404 44.49,-385 121.49,-385 121.49,-404"/>
<text text-anchor="middle" x="82.99" y="-392" font-family="Helvetica,sans-Serif" font-size="10.00">FifoAlteraMf</text>
</a>
</g>
</g>
<!-- Node13&#45;&gt;Node14 -->
<g id="edge16_Node000014_Node000013" class="edge">
<title>Node13&#45;&gt;Node14</title>
<g id="a_edge16_Node000014_Node000013"><a xlink:title=" ">
<path fill="none" stroke="#63b8ff" d="M82.99,-429.66C82.99,-420.93 82.99,-410.99 82.99,-404.09"/>
<polygon fill="#63b8ff" stroke="#63b8ff" points="79.49,-429.75 82.99,-439.75 86.49,-429.75 79.49,-429.75"/>
</a>
</g>
</g>
<!-- Node15 -->
<g id="Node000015" class="node">
<title>Node15</title>
<g id="a_Node000015"><a xlink:href="classFifoAsync.html" target="_top" xlink:title=" ">
<polygon fill="white" stroke="#bfbfbf" points="386.99,-404 322.99,-404 322.99,-385 386.99,-385 386.99,-404"/>
<text text-anchor="middle" x="354.99" y="-392" font-family="Helvetica,sans-Serif" font-size="10.00">FifoAsync</text>
</a>
</g>
</g>
<!-- Node13&#45;&gt;Node15 -->
<g id="edge25_Node000015_Node000013" class="edge">
<title>Node13&#45;&gt;Node15</title>
<g id="a_edge25_Node000015_Node000013"><a xlink:title=" ">
<path fill="none" stroke="#63b8ff" d="M136.7,-438.03C192.22,-427.22 277.05,-410.69 322.9,-401.75"/>
<polygon fill="#63b8ff" stroke="#63b8ff" points="135.84,-434.64 126.69,-439.98 137.18,-441.51 135.84,-434.64"/>
</a>
</g>
</g>
<!-- Node22 -->
<g id="Node000022" class="node">
<title>Node22</title>
<g id="a_Node000022"><a xlink:href="classFifoSync.html" target="_top" xlink:title=" ">
<polygon fill="white" stroke="#bfbfbf" points="272.99,-404 214.99,-404 214.99,-385 272.99,-385 272.99,-404"/>
<text text-anchor="middle" x="243.99" y="-392" font-family="Helvetica,sans-Serif" font-size="10.00">FifoSync</text>
</a>
</g>
</g>
<!-- Node13&#45;&gt;Node22 -->
<g id="edge30_Node000022_Node000013" class="edge">
<title>Node13&#45;&gt;Node22</title>
<g id="a_edge30_Node000022_Node000013"><a xlink:title=" ">
<path fill="none" stroke="#63b8ff" d="M118.54,-436.8C148.59,-426.91 190.93,-412.97 217.92,-404.08"/>
<polygon fill="#63b8ff" stroke="#63b8ff" points="117.26,-433.53 108.86,-439.98 119.45,-440.18 117.26,-433.53"/>
</a>
</g>
</g>
<!-- Node14&#45;&gt;Node11 -->
<g id="edge15_Node000011_Node000014" class="edge">
<title>Node14&#45;&gt;Node11</title>
<g id="a_edge15_Node000011_Node000014"><a xlink:title=" ">
<path fill="none" stroke="#63b8ff" d="M115.62,-381.41C144.46,-370.72 185.43,-355.53 208.48,-346.99"/>
<polygon fill="#63b8ff" stroke="#63b8ff" points="114.13,-378.23 105.97,-384.98 116.56,-384.79 114.13,-378.23"/>
</a>
</g>
</g>
<!-- Node15&#45;&gt;Node11 -->
<g id="edge17_Node000011_Node000015" class="edge">
<title>Node15&#45;&gt;Node11</title>
<g id="a_edge17_Node000011_Node000015"><a xlink:title=" ">
<path fill="none" stroke="#63b8ff" d="M324.82,-381.1C299.65,-370.76 264.65,-356.38 243.76,-347.8"/>
<polygon fill="#63b8ff" stroke="#63b8ff" points="323.69,-384.42 334.27,-384.98 326.35,-377.95 323.69,-384.42"/>
</a>
</g>
</g>
<!-- Node16 -->
<g id="Node000016" class="node">
<title>Node16</title>
<g id="a_Node000016"><a xlink:href="classRstSync.html" target="_top" xlink:title=" ">
<polygon fill="white" stroke="#bfbfbf" points="683.99,-459 627.99,-459 627.99,-440 683.99,-440 683.99,-459"/>
<text text-anchor="middle" x="655.99" y="-447" font-family="Helvetica,sans-Serif" font-size="10.00">RstSync</text>
</a>
</g>
</g>
<!-- Node16&#45;&gt;Node15 -->
<g id="edge18_Node000015_Node000016" class="edge">
<title>Node16&#45;&gt;Node15</title>
<g id="a_edge18_Node000015_Node000016"><a xlink:title=" ">
<path fill="none" stroke="#63b8ff" d="M617.32,-440.63C616.2,-440.42 615.09,-440.21 613.99,-440 570.94,-431.95 446.78,-410.94 387.39,-400.94"/>
<polygon fill="#63b8ff" stroke="#63b8ff" points="617.06,-444.14 627.55,-442.63 618.4,-437.27 617.06,-444.14"/>
</a>
</g>
</g>
<!-- Node23 -->
<g id="Node000023" class="node">
<title>Node23</title>
<g id="a_Node000023"><a xlink:href="classSynchronizerOneShot.html" target="_top" xlink:title=" ">
<polygon fill="white" stroke="#bfbfbf" points="716.49,-404 595.49,-404 595.49,-385 716.49,-385 716.49,-404"/>
<text text-anchor="middle" x="655.99" y="-392" font-family="Helvetica,sans-Serif" font-size="10.00">SynchronizerOneShot</text>
</a>
</g>
</g>
<!-- Node16&#45;&gt;Node23 -->
<g id="edge35_Node000023_Node000016" class="edge">
<title>Node16&#45;&gt;Node23</title>
<g id="a_edge35_Node000023_Node000016"><a xlink:title=" ">
<path fill="none" stroke="#63b8ff" d="M655.99,-429.66C655.99,-420.93 655.99,-410.99 655.99,-404.09"/>
<polygon fill="#63b8ff" stroke="#63b8ff" points="652.49,-429.75 655.99,-439.75 659.49,-429.75 652.49,-429.75"/>
</a>
</g>
</g>
<!-- Node17 -->
<g id="Node000017" class="node">
<title>Node17</title>
<g id="a_Node000017"><a xlink:href="classSynchronizer.html" target="_top" xlink:title=" ">
<polygon fill="white" stroke="#bfbfbf" points="667.99,-514 587.99,-514 587.99,-495 667.99,-495 667.99,-514"/>
<text text-anchor="middle" x="627.99" y="-502" font-family="Helvetica,sans-Serif" font-size="10.00">Synchronizer</text>
</a>
</g>
</g>
<!-- Node17&#45;&gt;Node9 -->
<g id="edge31_Node000009_Node000017" class="edge">
<title>Node17&#45;&gt;Node9</title>
<g id="a_edge31_Node000009_Node000017"><a xlink:title=" ">
<path fill="none" stroke="#63b8ff" d="M577.54,-503.04C439.5,-501.34 63.02,-493.55 19.99,-459 -2.98,-440.56 0.99,-424.96 0.99,-395.5 0.99,-395.5 0.99,-395.5 0.99,-338.5 0.99,-302.07 248.8,-256.55 356.74,-238.45"/>
<polygon fill="#63b8ff" stroke="#63b8ff" points="577.79,-506.54 587.83,-503.16 577.87,-499.55 577.79,-506.54"/>
</a>
</g>
</g>
<!-- Node17&#45;&gt;Node15 -->
<g id="edge21_Node000015_Node000017" class="edge">
<title>Node17&#45;&gt;Node15</title>
<g id="a_edge21_Node000015_Node000017"><a xlink:title=" ">
<path fill="none" stroke="#63b8ff" d="M619.61,-485.84C611.72,-471.21 598.51,-451.08 580.99,-440 572.82,-434.83 447.88,-412.05 387.37,-401.24"/>
<polygon fill="#63b8ff" stroke="#63b8ff" points="616.57,-487.57 624.21,-494.91 622.81,-484.41 616.57,-487.57"/>
</a>
</g>
</g>
<!-- Node17&#45;&gt;Node16 -->
<g id="edge19_Node000016_Node000017" class="edge">
<title>Node17&#45;&gt;Node16</title>
<g id="a_edge19_Node000016_Node000017"><a xlink:title=" ">
<path fill="none" stroke="#63b8ff" d="M637.33,-485.82C642.09,-476.82 647.65,-466.29 651.45,-459.09"/>
<polygon fill="#63b8ff" stroke="#63b8ff" points="634.19,-484.27 632.62,-494.75 640.38,-487.54 634.19,-484.27"/>
</a>
</g>
</g>
<!-- Node24 -->
<g id="Node000024" class="node">
<title>Node24</title>
<g id="a_Node000024"><a xlink:href="classSynchronizerEdge.html" target="_top" xlink:title=" ">
<polygon fill="white" stroke="#bfbfbf" points="805.99,-459 701.99,-459 701.99,-440 805.99,-440 805.99,-459"/>
<text text-anchor="middle" x="753.99" y="-447" font-family="Helvetica,sans-Serif" font-size="10.00">SynchronizerEdge</text>
</a>
</g>
</g>
<!-- Node17&#45;&gt;Node24 -->
<g id="edge37_Node000024_Node000017" class="edge">
<title>Node17&#45;&gt;Node24</title>
<g id="a_edge37_Node000024_Node000017"><a xlink:title=" ">
<path fill="none" stroke="#63b8ff" d="M657.64,-491.03C680.94,-481.23 712.79,-467.83 733.38,-459.17"/>
<polygon fill="#63b8ff" stroke="#63b8ff" points="656.1,-487.88 648.24,-494.98 658.81,-494.33 656.1,-487.88"/>
</a>
</g>
</g>
<!-- Node18 -->
<g id="Node000018" class="node">
<title>Node18</title>
<g id="a_Node000018"><a xlink:href="classSynchronizerVector.html" target="_top" xlink:title=" ">
<polygon fill="white" stroke="#bfbfbf" points="571.99,-459 461.99,-459 461.99,-440 571.99,-440 571.99,-459"/>
<text text-anchor="middle" x="516.99" y="-447" font-family="Helvetica,sans-Serif" font-size="10.00">SynchronizerVector</text>
</a>
</g>
</g>
<!-- Node18&#45;&gt;Node15 -->
<g id="edge20_Node000015_Node000018" class="edge">
<title>Node18&#45;&gt;Node15</title>
<g id="a_edge20_Node000015_Node000018"><a xlink:title=" ">
<path fill="none" stroke="#63b8ff" d="M481.23,-436.8C450.99,-426.91 408.38,-412.97 381.22,-404.08"/>
<polygon fill="#63b8ff" stroke="#63b8ff" points="480.37,-440.2 490.96,-439.98 482.55,-433.55 480.37,-440.2"/>
</a>
</g>
</g>
<!-- Node19 -->
<g id="Node000019" class="node">
<title>Node19</title>
<g id="a_Node000019"><a xlink:href="classFifoWrFsm.html" target="_top" xlink:title=" ">
<polygon fill="white" stroke="#bfbfbf" points="223.49,-459 154.49,-459 154.49,-440 223.49,-440 223.49,-459"/>
<text text-anchor="middle" x="188.99" y="-447" font-family="Helvetica,sans-Serif" font-size="10.00">FifoWrFsm</text>
</a>
</g>
</g>
<!-- Node19&#45;&gt;Node15 -->
<g id="edge22_Node000015_Node000019" class="edge">
<title>Node19&#45;&gt;Node15</title>
<g id="a_edge22_Node000015_Node000019"><a xlink:title=" ">
<path fill="none" stroke="#63b8ff" d="M225.24,-436.93C256.24,-427.03 300.16,-413.01 328.11,-404.08"/>
<polygon fill="#63b8ff" stroke="#63b8ff" points="224.12,-433.61 215.66,-439.98 226.25,-440.28 224.12,-433.61"/>
</a>
</g>
</g>
<!-- Node19&#45;&gt;Node22 -->
<g id="edge27_Node000022_Node000019" class="edge">
<title>Node19&#45;&gt;Node22</title>
<g id="a_edge27_Node000022_Node000019"><a xlink:title=" ">
<path fill="none" stroke="#63b8ff" d="M205.29,-432.8C215.03,-423.41 227.05,-411.83 235.08,-404.09"/>
<polygon fill="#63b8ff" stroke="#63b8ff" points="202.85,-430.29 198.07,-439.75 207.7,-435.33 202.85,-430.29"/>
</a>
</g>
</g>
<!-- Node20 -->
<g id="Node000020" class="node">
<title>Node20</title>
<g id="a_Node000020"><a xlink:href="classFifoRdFsm.html" target="_top" xlink:title=" ">
<polygon fill="white" stroke="#bfbfbf" points="309.99,-459 241.99,-459 241.99,-440 309.99,-440 309.99,-459"/>
<text text-anchor="middle" x="275.99" y="-447" font-family="Helvetica,sans-Serif" font-size="10.00">FifoRdFsm</text>
</a>
</g>
</g>
<!-- Node20&#45;&gt;Node15 -->
<g id="edge23_Node000015_Node000020" class="edge">
<title>Node20&#45;&gt;Node15</title>
<g id="a_edge23_Node000015_Node000020"><a xlink:title=" ">
<path fill="none" stroke="#63b8ff" d="M297.38,-434.15C311.66,-424.57 329.97,-412.29 342.07,-404.17"/>
<polygon fill="#63b8ff" stroke="#63b8ff" points="295.04,-431.51 288.69,-439.98 298.94,-437.32 295.04,-431.51"/>
</a>
</g>
</g>
<!-- Node20&#45;&gt;Node22 -->
<g id="edge28_Node000022_Node000020" class="edge">
<title>Node20&#45;&gt;Node22</title>
<g id="a_edge28_Node000022_Node000020"><a xlink:title=" ">
<path fill="none" stroke="#63b8ff" d="M265.49,-431.1C260.02,-422.04 253.57,-411.37 249.18,-404.09"/>
<polygon fill="#63b8ff" stroke="#63b8ff" points="262.54,-433 270.71,-439.75 268.54,-429.38 262.54,-433"/>
</a>
</g>
</g>
<!-- Node21 -->
<g id="Node000021" class="node">
<title>Node21</title>
<g id="a_Node000021"><a xlink:href="classSimpleDualPortRam.html" target="_top" xlink:title=" ">
<polygon fill="white" stroke="#bfbfbf" points="443.49,-459 328.49,-459 328.49,-440 443.49,-440 443.49,-459"/>
<text text-anchor="middle" x="385.99" y="-447" font-family="Helvetica,sans-Serif" font-size="10.00">SimpleDualPortRam</text>
</a>
</g>
</g>
<!-- Node21&#45;&gt;Node15 -->
<g id="edge24_Node000015_Node000021" class="edge">
<title>Node21&#45;&gt;Node15</title>
<g id="a_edge24_Node000015_Node000021"><a xlink:title=" ">
<path fill="none" stroke="#63b8ff" d="M375.82,-431.1C370.52,-422.04 364.28,-411.37 360.02,-404.09"/>
<polygon fill="#63b8ff" stroke="#63b8ff" points="372.8,-432.88 380.87,-439.75 378.85,-429.35 372.8,-432.88"/>
</a>
</g>
</g>
<!-- Node21&#45;&gt;Node22 -->
<g id="edge29_Node000022_Node000021" class="edge">
<title>Node21&#45;&gt;Node22</title>
<g id="a_edge29_Node000022_Node000021"><a xlink:title=" ">
<path fill="none" stroke="#63b8ff" d="M353.63,-436.42C327.28,-426.59 290.73,-412.95 267.22,-404.17"/>
<polygon fill="#63b8ff" stroke="#63b8ff" points="352.59,-439.77 363.18,-439.98 355.03,-433.21 352.59,-439.77"/>
</a>
</g>
</g>
<!-- Node22&#45;&gt;Node11 -->
<g id="edge26_Node000011_Node000022" class="edge">
<title>Node22&#45;&gt;Node11</title>
<g id="a_edge26_Node000011_Node000022"><a xlink:title=" ">
<path fill="none" stroke="#63b8ff" d="M237.79,-375.24C234.78,-366.37 231.3,-356.14 228.91,-349.09"/>
<polygon fill="#63b8ff" stroke="#63b8ff" points="234.49,-376.4 241.02,-384.75 241.12,-374.15 234.49,-376.4"/>
</a>
</g>
</g>
<!-- Node23&#45;&gt;Node4 -->
<g id="edge34_Node000004_Node000023" class="edge">
<title>Node23&#45;&gt;Node4</title>
<g id="a_edge34_Node000004_Node000023"><a xlink:title=" ">
<path fill="none" stroke="#63b8ff" d="M647.47,-375.48C638.29,-354.4 624.99,-318.21 624.99,-285.5 624.99,-285.5 624.99,-285.5 624.99,-228.5 624.99,-163.18 536.99,-136.44 483.71,-126.24"/>
<polygon fill="#63b8ff" stroke="#63b8ff" points="644.37,-377.12 651.68,-384.78 650.74,-374.23 644.37,-377.12"/>
</a>
</g>
</g>
<!-- Node24&#45;&gt;Node23 -->
<g id="edge36_Node000023_Node000024" class="edge">
<title>Node24&#45;&gt;Node23</title>
<g id="a_edge36_Node000023_Node000024"><a xlink:title=" ">
<path fill="none" stroke="#63b8ff" d="M728.97,-434.97C711.05,-425.28 687.47,-412.52 672.02,-404.17"/>
<polygon fill="#63b8ff" stroke="#63b8ff" points="727.79,-438.31 738.25,-439.98 731.12,-432.15 727.79,-438.31"/>
</a>
</g>
</g>
<!-- Node25&#45;&gt;Node1 -->
<g id="edge38_Node000001_Node000025" class="edge">
<title>Node25&#45;&gt;Node1</title>
<g id="a_edge38_Node000001_Node000025"><a xlink:title=" ">
<path fill="none" stroke="#63b8ff" d="M285.46,-154.37C290.01,-119.03 299.57,-44.79 302.86,-19.31"/>
<polygon fill="#63b8ff" stroke="#63b8ff" points="281.93,-154.37 284.12,-164.74 288.87,-155.27 281.93,-154.37"/>
</a>
</g>
</g>
<!-- Node26 -->
<g id="Node000026" class="node">
<title>Node26</title>
<g id="a_Node000026"><a xlink:href="classCoaXPressEventAckMsg.html" target="_top" xlink:title=" ">
<polygon fill="white" stroke="#bfbfbf" points="170.99,-239 36.99,-239 36.99,-220 170.99,-220 170.99,-239"/>
<text text-anchor="middle" x="103.99" y="-227" font-family="Helvetica,sans-Serif" font-size="10.00">CoaXPressEventAckMsg</text>
</a>
</g>
</g>
<!-- Node26&#45;&gt;Node25 -->
<g id="edge39_Node000025_Node000026" class="edge">
<title>Node26&#45;&gt;Node25</title>
<g id="a_edge39_Node000025_Node000026"><a xlink:title=" ">
<path fill="none" stroke="#63b8ff" d="M142.64,-217.06C176.1,-207.15 223.74,-193.04 254.01,-184.08"/>
<polygon fill="#63b8ff" stroke="#63b8ff" points="141.35,-213.79 132.75,-219.98 143.33,-220.5 141.35,-213.79"/>
</a>
</g>
</g>
<!-- Node27&#45;&gt;Node25 -->
<g id="edge40_Node000025_Node000027" class="edge">
<title>Node27&#45;&gt;Node25</title>
<g id="a_edge40_Node000025_Node000027"><a xlink:title=" ">
<path fill="none" stroke="#63b8ff" d="M272.61,-274.59C251.93,-268.26 230.39,-257.45 217.99,-239 202.77,-216.35 237.81,-195.31 262.13,-184.05"/>
<polygon fill="#63b8ff" stroke="#63b8ff" points="271.76,-277.98 282.33,-277.27 273.62,-271.23 271.76,-277.98"/>
</a>
</g>
</g>
<!-- Node28 -->
<g id="Node000028" class="node">
<title>Node28</title>
<g id="a_Node000028"><a xlink:href="classCoaXPressTxLsFsm.html" target="_top" xlink:title=" ">
<polygon fill="white" stroke="#bfbfbf" points="338.99,-239 226.99,-239 226.99,-220 338.99,-220 338.99,-239"/>
<text text-anchor="middle" x="282.99" y="-227" font-family="Helvetica,sans-Serif" font-size="10.00">CoaXPressTxLsFsm</text>
</a>
</g>
</g>
<!-- Node28&#45;&gt;Node25 -->
<g id="edge43_Node000025_Node000028" class="edge">
<title>Node28&#45;&gt;Node25</title>
<g id="a_edge43_Node000025_Node000028"><a xlink:title=" ">
<path fill="none" stroke="#63b8ff" d="M282.99,-209.66C282.99,-200.93 282.99,-190.99 282.99,-184.09"/>
<polygon fill="#63b8ff" stroke="#63b8ff" points="279.49,-209.75 282.99,-219.75 286.49,-209.75 279.49,-209.75"/>
</a>
</g>
</g>
</g>
</svg>

<g id="navigator" transform="translate(0 0)" fill="#404254">
  <rect fill="#f2f5e9" fill-opacity="0.5" stroke="#606060" stroke-width=".5" x="0" y="0" width="60" height="60"/>
  <use id="zoomplus" xlink:href="#zoomPlus" x="17" y="9" onmousedown="handleZoom(evt,'in')"/>
  <use id="zoomminus" xlink:href="#zoomMin" x="42" y="9" onmousedown="handleZoom(evt,'out')"/>
  <use id="reset" xlink:href="#resetDef" x="30" y="36" onmousedown="handleReset()"/>
   <use id="arrowup" xlink:href="#arrowUp" x="0" y="0" onmousedown="handlePan(0,-1)"/>
  <use id="arrowright" xlink:href="#arrowRight" x="0" y="0" onmousedown="handlePan(1,0)"/>
  <use id="arrowdown" xlink:href="#arrowDown" x="0" y="0" onmousedown="handlePan(0,1)"/>
  <use id="arrowleft" xlink:href="#arrowLeft" x="0" y="0" onmousedown="handlePan(-1,0)"/>
</g>
<svg viewBox="0 0 15 15" width="100%" height="30px" preserveAspectRatio="xMaxYMin meet">
 <g id="arrow_out" transform="scale(0.3 0.3)">
  <a xlink:href="classCoaXPressCrcTb__coll__graph_org.svg" target="_base">
   <rect id="button" ry="5" rx="5" y="6" x="6" height="38" width="38"
        fill="#f2f5e9" fill-opacity="0.5" stroke="#606060" stroke-width="1.0"/>
   <path id="arrow"
     d="M 11.500037,31.436501 C 11.940474,20.09759 22.043105,11.32322 32.158766,21.979434 L 37.068811,17.246167 C 37.068811,17.246167 37.088388,32 37.088388,32 L 22.160133,31.978069 C 22.160133,31.978069 26.997745,27.140456 26.997745,27.140456 C 18.528582,18.264221 13.291696,25.230495 11.500037,31.436501 z"
     style="fill:#404040;"/>
  </a>
 </g>
</svg>

<style type='text/css'>
<![CDATA[
[data-mouse-over-selected='false'] { opacity: 0.7; }
[data-mouse-over-selected='true']  { opacity: 1.0; }
]]>
</style>
<script type="application/ecmascript"><![CDATA[
document.addEventListener('DOMContentLoaded', (event) => {
  highlightEdges();
  highlightAdjacentNodes();
});
]]></script>
</svg>
