<?xml version="1.0" encoding="UTF-8" standalone="no"?>
<!DOCTYPE svg PUBLIC "-//W3C//DTD SVG 1.1//EN"
 "http://www.w3.org/Graphics/SVG/1.1/DTD/svg11.dtd">
<!-- Generated by graphviz version 2.43.0 (0)
 -->
<!-- Title: ClinkFramerTb Pages: 1 -->
<!--zoomable 376 -->
<svg id="main" version="1.1" xmlns="http://www.w3.org/2000/svg" xmlns:xlink="http://www.w3.org/1999/xlink" xml:space="preserve" onload="init(evt)">
<style type="text/css"><![CDATA[
.edge:hover path { stroke: red; }
.edge:hover polygon { stroke: red; fill: red; }
]]></style>
<script type="text/javascript"><![CDATA[
var edges = document.getElementsByTagName('g');
if (edges && edges.length) {
  for (var i=0;i<edges.length;i++) {
    if (edges[i].id.substr(0,4)=='edge') {
      edges[i].setAttribute('class','edge');
    }
  }
}
]]></script>
        <defs>
                <circle id="rim" cx="0" cy="0" r="7"/>
                <circle id="rim2" cx="0" cy="0" r="3.5"/>
                <g id="zoomPlus">
                        <use xlink:href="#rim" fill="#404040">
                                <set attributeName="fill" to="#808080" begin="zoomplus.mouseover" end="zoomplus.mouseout"/>
                        </use>
                        <path d="M-4,0h8M0,-4v8" fill="none" stroke="white" stroke-width="1.5" pointer-events="none"/>
                </g>
                <g id="zoomMin">
                        <use xlink:href="#rim" fill="#404040">
                                <set attributeName="fill" to="#808080" begin="zoomminus.mouseover" end="zoomminus.mouseout"/>
                        </use>
                        <path d="M-4,0h8" fill="none" stroke="white" stroke-width="1.5" pointer-events="none"/>
                </g>
                <g id="dirArrow">
                        <path fill="none" stroke="white" stroke-width="1.5" d="M0,-3.0v7 M-2.5,-0.5L0,-3.0L2.5,-0.5"/>
                </g>
               <g id="resetDef">
                       <use xlink:href="#rim2" fill="#404040">
                               <set attributeName="fill" to="#808080" begin="reset.mouseover" end="reset.mouseout"/>
                       </use>
               </g>
        </defs>

<script type="text/javascript">
var viewWidth = 1084;
var viewHeight = 376;
var sectionId = 'dynsection-0';
</script>
<script xlink:href="svgpan.js"/>
<svg id="graph" class="graph">
<g id="viewport">
<title>ClinkFramerTb</title>
<polygon fill="white" stroke="transparent" points="-4,4 -4,-372.12 1080,-372.12 1080,4 -4,4"/>
<!-- Node1 -->
<g id="node1" class="node">
<title>Node1</title>
<g id="a_node1"><a xlink:title=" ">
<polygon fill="#bfbfbf" stroke="black" points="988,-154.8 988,-173.8 1076,-173.8 1076,-154.8 988,-154.8"/>
<text text-anchor="middle" x="1032" y="-161.8" font-family="Helvetica,sans-Serif" font-size="10.00">ClinkFramerTb</text>
</a>
</g>
</g>
<!-- Node2 -->
<g id="node2" class="node">
<title>Node2</title>
<g id="a_node2"><a xlink:href="classClkRst.html" target="_top" xlink:title=" ">
<polygon fill="white" stroke="black" points="887.5,-192.8 887.5,-211.8 935.5,-211.8 935.5,-192.8 887.5,-192.8"/>
<text text-anchor="middle" x="911.5" y="-199.8" font-family="Helvetica,sans-Serif" font-size="10.00">ClkRst</text>
</a>
</g>
</g>
<!-- Node2&#45;&gt;Node1 -->
<g id="edge1" class="edge">
<title>Node2&#45;&gt;Node1</title>
<path fill="none" stroke="midnightblue" d="M945.41,-191.74C962.89,-186.14 984.19,-179.31 1001.18,-173.86"/>
<polygon fill="midnightblue" stroke="midnightblue" points="944.08,-188.5 935.63,-194.88 946.22,-195.16 944.08,-188.5"/>
</g>
<!-- Node3 -->
<g id="node3" class="node">
<title>Node3</title>
<g id="a_node3"><a xlink:href="classClinkFraming.html" target="_top" xlink:title=" ">
<polygon fill="white" stroke="black" points="871,-154.8 871,-173.8 952,-173.8 952,-154.8 871,-154.8"/>
<text text-anchor="middle" x="911.5" y="-161.8" font-family="Helvetica,sans-Serif" font-size="10.00">ClinkFraming</text>
</a>
</g>
</g>
<!-- Node3&#45;&gt;Node1 -->
<g id="edge2" class="edge">
<title>Node3&#45;&gt;Node1</title>
<path fill="none" stroke="midnightblue" d="M962.43,-164.3C970.88,-164.3 979.6,-164.3 987.86,-164.3"/>
<polygon fill="midnightblue" stroke="midnightblue" points="962.29,-160.8 952.29,-164.3 962.29,-167.8 962.29,-160.8"/>
</g>
<!-- Node4 -->
<g id="node4" class="node">
<title>Node4</title>
<g id="a_node4"><a xlink:href="classAxiStreamBytePacker.html" target="_top" xlink:title=" ">
<polygon fill="white" stroke="black" points="713,-192.8 713,-211.8 835,-211.8 835,-192.8 713,-192.8"/>
<text text-anchor="middle" x="774" y="-199.8" font-family="Helvetica,sans-Serif" font-size="10.00">AxiStreamBytePacker</text>
</a>
</g>
</g>
<!-- Node4&#45;&gt;Node3 -->
<g id="edge3" class="edge">
<title>Node4&#45;&gt;Node3</title>
<path fill="none" stroke="midnightblue" d="M818.92,-189.98C837.54,-184.76 858.91,-178.77 876.32,-173.88"/>
<polygon fill="midnightblue" stroke="midnightblue" points="817.88,-186.64 809.19,-192.71 819.77,-193.38 817.88,-186.64"/>
</g>
<!-- Node5 -->
<g id="node5" class="node">
<title>Node5</title>
<g id="a_node5"><a xlink:href="classAxiStreamFifoV2.html" target="_top" xlink:title=" ">
<polygon fill="white" stroke="black" points="725,-154.8 725,-173.8 823,-173.8 823,-154.8 725,-154.8"/>
<text text-anchor="middle" x="774" y="-161.8" font-family="Helvetica,sans-Serif" font-size="10.00">AxiStreamFifoV2</text>
</a>
</g>
</g>
<!-- Node5&#45;&gt;Node3 -->
<g id="edge4" class="edge">
<title>Node5&#45;&gt;Node3</title>
<path fill="none" stroke="midnightblue" d="M833.24,-164.3C845.98,-164.3 859.18,-164.3 870.99,-164.3"/>
<polygon fill="midnightblue" stroke="midnightblue" points="833.15,-160.8 823.15,-164.3 833.15,-167.8 833.15,-160.8"/>
</g>
<!-- Node6 -->
<g id="node6" class="node">
<title>Node6</title>
<g id="a_node6"><a xlink:href="classAxiStreamGearbox.html" target="_top" xlink:title=" ">
<polygon fill="white" stroke="black" points="555,-116.8 555,-135.8 677,-135.8 677,-116.8 555,-116.8"/>
<text text-anchor="middle" x="616" y="-123.8" font-family="Helvetica,sans-Serif" font-size="10.00">AxiStreamGearbox(2)</text>
</a>
</g>
</g>
<!-- Node6&#45;&gt;Node5 -->
<g id="edge5" class="edge">
<title>Node6&#45;&gt;Node5</title>
<path fill="none" stroke="midnightblue" d="M666.13,-138.27C687.99,-143.59 713.38,-149.78 733.92,-154.78"/>
<polygon fill="midnightblue" stroke="midnightblue" points="666.91,-134.85 656.37,-135.89 665.25,-141.66 666.91,-134.85"/>
</g>
<!-- Node24 -->
<g id="node24" class="node">
<title>Node24</title>
<g id="a_node24"><a xlink:href="classAxiStreamFifoV2.html" target="_top" xlink:title=" ">
<polygon fill="white" stroke="black" points="718,-78.8 718,-97.8 830,-97.8 830,-78.8 718,-78.8"/>
<text text-anchor="middle" x="774" y="-85.8" font-family="Helvetica,sans-Serif" font-size="10.00">AxiStreamFifoV2(2)</text>
</a>
</g>
</g>
<!-- Node6&#45;&gt;Node24 -->
<g id="edge33" class="edge">
<title>Node6&#45;&gt;Node24</title>
<path fill="none" stroke="midnightblue" d="M666.13,-114.33C687.99,-109.01 713.38,-102.82 733.92,-97.82"/>
<polygon fill="midnightblue" stroke="midnightblue" points="665.25,-110.94 656.37,-116.71 666.91,-117.74 665.25,-110.94"/>
</g>
<!-- Node7 -->
<g id="node7" class="node">
<title>Node7</title>
<g id="a_node7"><a xlink:href="classAxiStreamResize.html" target="_top" xlink:title=" ">
<polygon fill="white" stroke="black" points="419,-154.8 419,-173.8 519,-173.8 519,-154.8 419,-154.8"/>
<text text-anchor="middle" x="469" y="-161.8" font-family="Helvetica,sans-Serif" font-size="10.00">AxiStreamResize</text>
</a>
</g>
</g>
<!-- Node7&#45;&gt;Node6 -->
<g id="edge6" class="edge">
<title>Node7&#45;&gt;Node6</title>
<path fill="none" stroke="midnightblue" d="M516.49,-152.11C536.62,-146.84 559.84,-140.75 578.67,-135.82"/>
<polygon fill="midnightblue" stroke="midnightblue" points="515.38,-148.79 506.59,-154.71 517.15,-155.56 515.38,-148.79"/>
</g>
<!-- Node8 -->
<g id="node8" class="node">
<title>Node8</title>
<g id="a_node8"><a xlink:href="classAxiStreamPipeline.html" target="_top" xlink:title=" ">
<polygon fill="white" stroke="black" points="276,-135.8 276,-154.8 383,-154.8 383,-135.8 276,-135.8"/>
<text text-anchor="middle" x="329.5" y="-142.8" font-family="Helvetica,sans-Serif" font-size="10.00">AxiStreamPipeline</text>
</a>
</g>
</g>
<!-- Node8&#45;&gt;Node5 -->
<g id="edge30" class="edge">
<title>Node8&#45;&gt;Node5</title>
<path fill="none" stroke="midnightblue" d="M355.98,-159.53C373.19,-168.3 396.75,-178.72 419,-183.3 531.32,-206.39 562.88,-194.48 677,-183.3 695.94,-181.44 716.68,-177.57 734.02,-173.81"/>
<polygon fill="midnightblue" stroke="midnightblue" points="357.6,-156.43 347.12,-154.87 354.35,-162.62 357.6,-156.43"/>
</g>
<!-- Node8&#45;&gt;Node6 -->
<g id="edge8" class="edge">
<title>Node8&#45;&gt;Node6</title>
<path fill="none" stroke="midnightblue" d="M393,-141.12C441.17,-137.91 507.36,-133.49 554.91,-130.31"/>
<polygon fill="midnightblue" stroke="midnightblue" points="392.76,-137.63 383.01,-141.79 393.22,-144.62 392.76,-137.63"/>
</g>
<!-- Node8&#45;&gt;Node7 -->
<g id="edge7" class="edge">
<title>Node8&#45;&gt;Node7</title>
<path fill="none" stroke="midnightblue" d="M393.23,-153.97C401.79,-155.15 410.48,-156.35 418.76,-157.49"/>
<polygon fill="midnightblue" stroke="midnightblue" points="393.65,-150.49 383.27,-152.59 392.69,-157.43 393.65,-150.49"/>
</g>
<!-- Node8&#45;&gt;Node24 -->
<g id="edge36" class="edge">
<title>Node8&#45;&gt;Node24</title>
<path fill="none" stroke="midnightblue" d="M388.64,-133.82C398.75,-131.91 409.17,-130 419,-128.3 479.26,-117.86 494.28,-114.62 555,-107.3 610.26,-100.63 673.66,-95.37 717.79,-92.09"/>
<polygon fill="midnightblue" stroke="midnightblue" points="387.84,-130.41 378.67,-135.71 389.15,-137.28 387.84,-130.41"/>
</g>
<!-- Node9 -->
<g id="node9" class="node">
<title>Node9</title>
<g id="a_node9"><a xlink:href="classFifoCascade.html" target="_top" xlink:title=" ">
<polygon fill="white" stroke="black" points="571.5,-154.8 571.5,-173.8 660.5,-173.8 660.5,-154.8 571.5,-154.8"/>
<text text-anchor="middle" x="616" y="-161.8" font-family="Helvetica,sans-Serif" font-size="10.00">FifoCascade(2)</text>
</a>
</g>
</g>
<!-- Node9&#45;&gt;Node5 -->
<g id="edge9" class="edge">
<title>Node9&#45;&gt;Node5</title>
<path fill="none" stroke="midnightblue" d="M670.94,-164.3C688.45,-164.3 707.75,-164.3 724.81,-164.3"/>
<polygon fill="midnightblue" stroke="midnightblue" points="670.87,-160.8 660.87,-164.3 670.87,-167.8 670.87,-160.8"/>
</g>
<!-- Node9&#45;&gt;Node24 -->
<g id="edge34" class="edge">
<title>Node9&#45;&gt;Node24</title>
<path fill="none" stroke="midnightblue" d="M666.36,-150.96C670.07,-149.27 673.66,-147.39 677,-145.3 696.72,-132.95 693.28,-119.65 713,-107.3 719.11,-103.47 726.06,-100.35 733.01,-97.84"/>
<polygon fill="midnightblue" stroke="midnightblue" points="664.94,-147.76 656.99,-154.76 667.57,-154.24 664.94,-147.76"/>
</g>
<!-- Node10 -->
<g id="node10" class="node">
<title>Node10</title>
<g id="a_node10"><a xlink:href="classFifo.html" target="_top" xlink:title=" ">
<polygon fill="white" stroke="black" points="445,-230.8 445,-249.8 493,-249.8 493,-230.8 445,-230.8"/>
<text text-anchor="middle" x="469" y="-237.8" font-family="Helvetica,sans-Serif" font-size="10.00">Fifo(4)</text>
</a>
</g>
</g>
<!-- Node10&#45;&gt;Node9 -->
<g id="edge10" class="edge">
<title>Node10&#45;&gt;Node9</title>
<path fill="none" stroke="midnightblue" d="M497.58,-225.84C526.71,-210.58 571.81,-186.94 596.78,-173.85"/>
<polygon fill="midnightblue" stroke="midnightblue" points="495.6,-222.93 488.36,-230.67 498.85,-229.13 495.6,-222.93"/>
</g>
<!-- Node11 -->
<g id="node11" class="node">
<title>Node11</title>
<g id="a_node11"><a xlink:href="classFifoXpm.html" target="_top" xlink:title=" ">
<polygon fill="white" stroke="black" points="301,-268.8 301,-287.8 358,-287.8 358,-268.8 301,-268.8"/>
<text text-anchor="middle" x="329.5" y="-275.8" font-family="Helvetica,sans-Serif" font-size="10.00">FifoXpm</text>
</a>
</g>
</g>
<!-- Node11&#45;&gt;Node10 -->
<g id="edge11" class="edge">
<title>Node11&#45;&gt;Node10</title>
<path fill="none" stroke="midnightblue" d="M368.03,-267.93C392.56,-261.15 423.81,-252.51 444.78,-246.72"/>
<polygon fill="midnightblue" stroke="midnightblue" points="367.03,-264.57 358.33,-270.61 368.9,-271.32 367.03,-264.57"/>
</g>
<!-- Node12 -->
<g id="node12" class="node">
<title>Node12</title>
<g id="a_node12"><a xlink:href="classFifoOutputPipeline.html" target="_top" xlink:title=" ">
<polygon fill="white" stroke="black" points="124.5,-306.8 124.5,-325.8 231.5,-325.8 231.5,-306.8 124.5,-306.8"/>
<text text-anchor="middle" x="178" y="-313.8" font-family="Helvetica,sans-Serif" font-size="10.00">FifoOutputPipeline</text>
</a>
</g>
</g>
<!-- Node12&#45;&gt;Node11 -->
<g id="edge12" class="edge">
<title>Node12&#45;&gt;Node11</title>
<path fill="none" stroke="midnightblue" d="M226.54,-304.22C250.98,-298 279.91,-290.65 300.7,-285.37"/>
<polygon fill="midnightblue" stroke="midnightblue" points="225.55,-300.85 216.73,-306.71 227.28,-307.64 225.55,-300.85"/>
</g>
<!-- Node13 -->
<g id="node13" class="node">
<title>Node13</title>
<g id="a_node13"><a xlink:href="classFifoAlteraMf.html" target="_top" xlink:title=" ">
<polygon fill="white" stroke="black" points="291,-306.8 291,-325.8 368,-325.8 368,-306.8 291,-306.8"/>
<text text-anchor="middle" x="329.5" y="-313.8" font-family="Helvetica,sans-Serif" font-size="10.00">FifoAlteraMf</text>
</a>
</g>
</g>
<!-- Node12&#45;&gt;Node13 -->
<g id="edge14" class="edge">
<title>Node12&#45;&gt;Node13</title>
<path fill="none" stroke="midnightblue" d="M241.93,-316.3C258.56,-316.3 275.99,-316.3 290.82,-316.3"/>
<polygon fill="midnightblue" stroke="midnightblue" points="241.71,-312.8 231.71,-316.3 241.71,-319.8 241.71,-312.8"/>
</g>
<!-- Node14 -->
<g id="node14" class="node">
<title>Node14</title>
<g id="a_node14"><a xlink:href="classFifoAsync.html" target="_top" xlink:title=" ">
<polygon fill="white" stroke="black" points="297.5,-192.8 297.5,-211.8 361.5,-211.8 361.5,-192.8 297.5,-192.8"/>
<text text-anchor="middle" x="329.5" y="-199.8" font-family="Helvetica,sans-Serif" font-size="10.00">FifoAsync</text>
</a>
</g>
</g>
<!-- Node12&#45;&gt;Node14 -->
<g id="edge23" class="edge">
<title>Node12&#45;&gt;Node14</title>
<path fill="none" stroke="midnightblue" d="M233.77,-301.92C235.97,-300.52 238.06,-298.99 240,-297.3 268.22,-272.79 248.34,-246.44 276,-221.3 282.02,-215.82 289.75,-211.89 297.41,-209.09"/>
<polygon fill="midnightblue" stroke="midnightblue" points="232.04,-298.88 224.87,-306.68 235.34,-305.05 232.04,-298.88"/>
</g>
<!-- Node22 -->
<g id="node22" class="node">
<title>Node22</title>
<g id="a_node22"><a xlink:href="classFifoSync.html" target="_top" xlink:title=" ">
<polygon fill="white" stroke="black" points="300.5,-230.8 300.5,-249.8 358.5,-249.8 358.5,-230.8 300.5,-230.8"/>
<text text-anchor="middle" x="329.5" y="-237.8" font-family="Helvetica,sans-Serif" font-size="10.00">FifoSync</text>
</a>
</g>
</g>
<!-- Node12&#45;&gt;Node22 -->
<g id="edge28" class="edge">
<title>Node12&#45;&gt;Node22</title>
<path fill="none" stroke="midnightblue" d="M229.35,-302.93C233.06,-301.26 236.65,-299.38 240,-297.3 259.75,-285 256.54,-272.04 276,-259.3 283.38,-254.47 292.15,-250.67 300.38,-247.78"/>
<polygon fill="midnightblue" stroke="midnightblue" points="227.94,-299.73 219.98,-306.72 230.56,-306.22 227.94,-299.73"/>
</g>
<!-- Node13&#45;&gt;Node10 -->
<g id="edge13" class="edge">
<title>Node13&#45;&gt;Node10</title>
<path fill="none" stroke="midnightblue" d="M370.26,-303.08C374.63,-301.29 378.95,-299.35 383,-297.3 410.42,-283.41 439.6,-262.26 455.64,-250.01"/>
<polygon fill="midnightblue" stroke="midnightblue" points="368.8,-299.9 360.74,-306.78 371.33,-306.42 368.8,-299.9"/>
</g>
<!-- Node14&#45;&gt;Node10 -->
<g id="edge15" class="edge">
<title>Node14&#45;&gt;Node10</title>
<path fill="none" stroke="midnightblue" d="M371.56,-213.65C395.43,-220.24 424.66,-228.32 444.63,-233.84"/>
<polygon fill="midnightblue" stroke="midnightblue" points="372.27,-210.21 361.7,-210.92 370.41,-216.96 372.27,-210.21"/>
</g>
<!-- Node15 -->
<g id="node15" class="node">
<title>Node15</title>
<g id="a_node15"><a xlink:href="classRstSync.html" target="_top" xlink:title=" ">
<polygon fill="white" stroke="black" points="143.5,-116.8 143.5,-135.8 212.5,-135.8 212.5,-116.8 143.5,-116.8"/>
<text text-anchor="middle" x="178" y="-123.8" font-family="Helvetica,sans-Serif" font-size="10.00">RstSync(2)</text>
</a>
</g>
</g>
<!-- Node15&#45;&gt;Node14 -->
<g id="edge16" class="edge">
<title>Node15&#45;&gt;Node14</title>
<path fill="none" stroke="midnightblue" d="M222.07,-138.1C228.19,-140.24 234.33,-142.65 240,-145.3 268.81,-158.76 299.34,-180.25 315.94,-192.64"/>
<polygon fill="midnightblue" stroke="midnightblue" points="223.13,-134.77 212.54,-134.96 220.94,-141.42 223.13,-134.77"/>
</g>
<!-- Node16 -->
<g id="node16" class="node">
<title>Node16</title>
<g id="a_node16"><a xlink:href="classSynchronizer.html" target="_top" xlink:title=" ">
<polygon fill="white" stroke="black" points="0,-78.8 0,-97.8 80,-97.8 80,-78.8 0,-78.8"/>
<text text-anchor="middle" x="40" y="-85.8" font-family="Helvetica,sans-Serif" font-size="10.00">Synchronizer</text>
</a>
</g>
</g>
<!-- Node16&#45;&gt;Node5 -->
<g id="edge29" class="edge">
<title>Node16&#45;&gt;Node5</title>
<path fill="none" stroke="midnightblue" d="M40.24,-108.13C39.6,-155.93 45.32,-277.84 116,-335.3 189.58,-395.11 233.68,-354.3 328.5,-354.3 328.5,-354.3 328.5,-354.3 470,-354.3 602.06,-354.3 594.66,-241.92 713,-183.3 720.44,-179.61 728.75,-176.44 736.76,-173.8"/>
<polygon fill="midnightblue" stroke="midnightblue" points="43.74,-107.97 40.49,-97.89 36.75,-107.8 43.74,-107.97"/>
</g>
<!-- Node16&#45;&gt;Node15 -->
<g id="edge17" class="edge">
<title>Node16&#45;&gt;Node15</title>
<path fill="none" stroke="midnightblue" d="M85.16,-100.64C104,-105.9 125.63,-111.95 143.16,-116.84"/>
<polygon fill="midnightblue" stroke="midnightblue" points="85.89,-97.21 75.32,-97.89 84.01,-103.95 85.89,-97.21"/>
</g>
<!-- Node16&#45;&gt;Node24 -->
<g id="edge35" class="edge">
<title>Node16&#45;&gt;Node24</title>
<path fill="none" stroke="midnightblue" d="M83.75,-76.22C94.23,-73.61 105.46,-71.09 116,-69.3 209.48,-53.38 233.68,-50.3 328.5,-50.3 328.5,-50.3 328.5,-50.3 470,-50.3 561.32,-50.3 666.93,-67.5 726.25,-78.76"/>
<polygon fill="midnightblue" stroke="midnightblue" points="82.8,-72.85 73.99,-78.74 84.54,-79.63 82.8,-72.85"/>
</g>
<!-- Node28 -->
<g id="node28" class="node">
<title>Node28</title>
<g id="a_node28"><a xlink:href="classSynchronizerEdge.html" target="_top" xlink:title=" ">
<polygon fill="white" stroke="black" points="126,-2.8 126,-21.8 230,-21.8 230,-2.8 126,-2.8"/>
<text text-anchor="middle" x="178" y="-9.8" font-family="Helvetica,sans-Serif" font-size="10.00">SynchronizerEdge</text>
</a>
</g>
</g>
<!-- Node16&#45;&gt;Node28 -->
<g id="edge41" class="edge">
<title>Node16&#45;&gt;Node28</title>
<path fill="none" stroke="midnightblue" d="M61.2,-72.37C75.85,-61.31 96.44,-46.75 116,-36.3 126.34,-30.78 138.23,-25.81 148.76,-21.85"/>
<polygon fill="midnightblue" stroke="midnightblue" points="58.72,-69.87 52.91,-78.73 62.98,-75.42 58.72,-69.87"/>
</g>
<!-- Node17 -->
<g id="node17" class="node">
<title>Node17</title>
<g id="a_node17"><a xlink:href="classSynchronizerVector.html" target="_top" xlink:title=" ">
<polygon fill="white" stroke="black" points="116,-78.8 116,-97.8 240,-97.8 240,-78.8 116,-78.8"/>
<text text-anchor="middle" x="178" y="-85.8" font-family="Helvetica,sans-Serif" font-size="10.00">SynchronizerVector(2)</text>
</a>
</g>
</g>
<!-- Node17&#45;&gt;Node14 -->
<g id="edge18" class="edge">
<title>Node17&#45;&gt;Node14</title>
<path fill="none" stroke="midnightblue" d="M232.22,-102.23C234.96,-103.75 237.57,-105.43 240,-107.3 263.77,-125.54 255.49,-142.45 276,-164.3 286.63,-175.62 301.05,-185.78 312.09,-192.74"/>
<polygon fill="midnightblue" stroke="midnightblue" points="233.72,-99.06 223.18,-97.91 230.7,-105.38 233.72,-99.06"/>
</g>
<!-- Node18 -->
<g id="node18" class="node">
<title>Node18</title>
<g id="a_node18"><a xlink:href="classSynchronizer.html" target="_top" xlink:title=" ">
<polygon fill="white" stroke="black" points="131.5,-154.8 131.5,-173.8 224.5,-173.8 224.5,-154.8 131.5,-154.8"/>
<text text-anchor="middle" x="178" y="-161.8" font-family="Helvetica,sans-Serif" font-size="10.00">Synchronizer(2)</text>
</a>
</g>
</g>
<!-- Node18&#45;&gt;Node14 -->
<g id="edge19" class="edge">
<title>Node18&#45;&gt;Node14</title>
<path fill="none" stroke="midnightblue" d="M226.69,-176.42C249.81,-182.3 276.91,-189.19 297.34,-194.38"/>
<polygon fill="midnightblue" stroke="midnightblue" points="227.28,-172.96 216.73,-173.89 225.55,-179.74 227.28,-172.96"/>
</g>
<!-- Node19 -->
<g id="node19" class="node">
<title>Node19</title>
<g id="a_node19"><a xlink:href="classFifoWrFsm.html" target="_top" xlink:title=" ">
<polygon fill="white" stroke="black" points="143.5,-192.8 143.5,-211.8 212.5,-211.8 212.5,-192.8 143.5,-192.8"/>
<text text-anchor="middle" x="178" y="-199.8" font-family="Helvetica,sans-Serif" font-size="10.00">FifoWrFsm</text>
</a>
</g>
</g>
<!-- Node19&#45;&gt;Node14 -->
<g id="edge20" class="edge">
<title>Node19&#45;&gt;Node14</title>
<path fill="none" stroke="midnightblue" d="M222.79,-202.3C246.71,-202.3 275.77,-202.3 297.36,-202.3"/>
<polygon fill="midnightblue" stroke="midnightblue" points="222.55,-198.8 212.55,-202.3 222.55,-205.8 222.55,-198.8"/>
</g>
<!-- Node19&#45;&gt;Node22 -->
<g id="edge25" class="edge">
<title>Node19&#45;&gt;Node22</title>
<path fill="none" stroke="midnightblue" d="M222.52,-213.36C247.51,-219.71 278.18,-227.51 300.09,-233.08"/>
<polygon fill="midnightblue" stroke="midnightblue" points="223.1,-209.9 212.55,-210.83 221.38,-216.68 223.1,-209.9"/>
</g>
<!-- Node20 -->
<g id="node20" class="node">
<title>Node20</title>
<g id="a_node20"><a xlink:href="classFifoRdFsm.html" target="_top" xlink:title=" ">
<polygon fill="white" stroke="black" points="144,-268.8 144,-287.8 212,-287.8 212,-268.8 144,-268.8"/>
<text text-anchor="middle" x="178" y="-275.8" font-family="Helvetica,sans-Serif" font-size="10.00">FifoRdFsm</text>
</a>
</g>
</g>
<!-- Node20&#45;&gt;Node14 -->
<g id="edge21" class="edge">
<title>Node20&#45;&gt;Node14</title>
<path fill="none" stroke="midnightblue" d="M222.1,-267.94C228.34,-265.58 234.5,-262.72 240,-259.3 259.75,-247 256.54,-234.04 276,-221.3 282.49,-217.05 290.05,-213.6 297.37,-210.87"/>
<polygon fill="midnightblue" stroke="midnightblue" points="220.66,-264.73 212.31,-271.26 222.91,-271.36 220.66,-264.73"/>
</g>
<!-- Node20&#45;&gt;Node22 -->
<g id="edge26" class="edge">
<title>Node20&#45;&gt;Node22</title>
<path fill="none" stroke="midnightblue" d="M221.88,-267.4C247.12,-260.98 278.32,-253.05 300.44,-247.43"/>
<polygon fill="midnightblue" stroke="midnightblue" points="221.01,-264.01 212.18,-269.87 222.73,-270.79 221.01,-264.01"/>
</g>
<!-- Node21 -->
<g id="node21" class="node">
<title>Node21</title>
<g id="a_node21"><a xlink:href="classSimpleDualPortRam.html" target="_top" xlink:title=" ">
<polygon fill="white" stroke="black" points="120.5,-230.8 120.5,-249.8 235.5,-249.8 235.5,-230.8 120.5,-230.8"/>
<text text-anchor="middle" x="178" y="-237.8" font-family="Helvetica,sans-Serif" font-size="10.00">SimpleDualPortRam</text>
</a>
</g>
</g>
<!-- Node21&#45;&gt;Node14 -->
<g id="edge22" class="edge">
<title>Node21&#45;&gt;Node14</title>
<path fill="none" stroke="midnightblue" d="M226.69,-228.18C249.81,-222.3 276.91,-215.41 297.34,-210.22"/>
<polygon fill="midnightblue" stroke="midnightblue" points="225.55,-224.85 216.73,-230.71 227.28,-231.64 225.55,-224.85"/>
</g>
<!-- Node21&#45;&gt;Node22 -->
<g id="edge27" class="edge">
<title>Node21&#45;&gt;Node22</title>
<path fill="none" stroke="midnightblue" d="M245.78,-240.3C264.98,-240.3 284.9,-240.3 300.37,-240.3"/>
<polygon fill="midnightblue" stroke="midnightblue" points="245.52,-236.8 235.52,-240.3 245.52,-243.8 245.52,-236.8"/>
</g>
<!-- Node22&#45;&gt;Node10 -->
<g id="edge24" class="edge">
<title>Node22&#45;&gt;Node10</title>
<path fill="none" stroke="midnightblue" d="M368.7,-240.3C393.16,-240.3 424.11,-240.3 444.9,-240.3"/>
<polygon fill="midnightblue" stroke="midnightblue" points="368.66,-236.8 358.66,-240.3 368.66,-243.8 368.66,-236.8"/>
</g>
<!-- Node23 -->
<g id="node23" class="node">
<title>Node23</title>
<g id="a_node23"><a xlink:href="classClinkUart.html" target="_top" xlink:title=" ">
<polygon fill="white" stroke="black" points="880.5,-78.8 880.5,-97.8 942.5,-97.8 942.5,-78.8 880.5,-78.8"/>
<text text-anchor="middle" x="911.5" y="-85.8" font-family="Helvetica,sans-Serif" font-size="10.00">ClinkUart</text>
</a>
</g>
</g>
<!-- Node23&#45;&gt;Node1 -->
<g id="edge31" class="edge">
<title>Node23&#45;&gt;Node1</title>
<path fill="none" stroke="midnightblue" d="M935.98,-103.36C959.8,-118.64 995.97,-141.83 1016.11,-154.75"/>
<polygon fill="midnightblue" stroke="midnightblue" points="937.82,-100.38 927.51,-97.92 934.04,-106.27 937.82,-100.38"/>
</g>
<!-- Node24&#45;&gt;Node23 -->
<g id="edge32" class="edge">
<title>Node24&#45;&gt;Node23</title>
<path fill="none" stroke="midnightblue" d="M840.25,-88.3C854.26,-88.3 868.41,-88.3 880.3,-88.3"/>
<polygon fill="midnightblue" stroke="midnightblue" points="840.11,-84.8 830.11,-88.3 840.11,-91.8 840.11,-84.8"/>
</g>
<!-- Node25 -->
<g id="node25" class="node">
<title>Node25</title>
<g id="a_node25"><a xlink:href="classClinkUartThrottle.html" target="_top" xlink:title=" ">
<polygon fill="white" stroke="black" points="723.5,-116.8 723.5,-135.8 824.5,-135.8 824.5,-116.8 723.5,-116.8"/>
<text text-anchor="middle" x="774" y="-123.8" font-family="Helvetica,sans-Serif" font-size="10.00">ClinkUartThrottle</text>
</a>
</g>
</g>
<!-- Node25&#45;&gt;Node23 -->
<g id="edge37" class="edge">
<title>Node25&#45;&gt;Node23</title>
<path fill="none" stroke="midnightblue" d="M819.06,-113.94C839.16,-108.31 862.43,-101.78 880.47,-96.72"/>
<polygon fill="midnightblue" stroke="midnightblue" points="817.88,-110.64 809.19,-116.71 819.77,-117.38 817.88,-110.64"/>
</g>
<!-- Node26 -->
<g id="node26" class="node">
<title>Node26</title>
<g id="a_node26"><a xlink:href="classUartTx.html" target="_top" xlink:title=" ">
<polygon fill="white" stroke="black" points="749,-40.8 749,-59.8 799,-59.8 799,-40.8 749,-40.8"/>
<text text-anchor="middle" x="774" y="-47.8" font-family="Helvetica,sans-Serif" font-size="10.00">UartTx</text>
</a>
</g>
</g>
<!-- Node26&#45;&gt;Node23 -->
<g id="edge38" class="edge">
<title>Node26&#45;&gt;Node23</title>
<path fill="none" stroke="midnightblue" d="M809.11,-59.86C831.02,-66.01 859.22,-73.92 880.32,-79.84"/>
<polygon fill="midnightblue" stroke="midnightblue" points="809.8,-56.42 799.22,-57.09 807.91,-63.16 809.8,-56.42"/>
</g>
<!-- Node27 -->
<g id="node27" class="node">
<title>Node27</title>
<g id="a_node27"><a xlink:href="classUartRx.html" target="_top" xlink:title=" ">
<polygon fill="white" stroke="black" points="444,-2.8 444,-21.8 494,-21.8 494,-2.8 444,-2.8"/>
<text text-anchor="middle" x="469" y="-9.8" font-family="Helvetica,sans-Serif" font-size="10.00">UartRx</text>
</a>
</g>
</g>
<!-- Node27&#45;&gt;Node23 -->
<g id="edge39" class="edge">
<title>Node27&#45;&gt;Node23</title>
<path fill="none" stroke="midnightblue" d="M504.28,-7.6C570.53,0.11 719.79,10.67 835,-31.3 862.47,-41.31 888.24,-64.95 901.39,-78.44"/>
<polygon fill="midnightblue" stroke="midnightblue" points="503.51,-4.17 494.01,-8.85 504.36,-11.11 503.51,-4.17"/>
</g>
<!-- Node28&#45;&gt;Node27 -->
<g id="edge40" class="edge">
<title>Node28&#45;&gt;Node27</title>
<path fill="none" stroke="midnightblue" d="M240.28,-12.3C303.71,-12.3 399.6,-12.3 443.95,-12.3"/>
<polygon fill="midnightblue" stroke="midnightblue" points="240,-8.8 230,-12.3 240,-15.8 240,-8.8"/>
</g>
</g>
</svg>
        <g id="navigator" transform="translate(0 0)" fill="#404254">
                <rect fill="#f2f5e9" fill-opacity="0.5" stroke="#606060" stroke-width=".5" x="0" y="0" width="60" height="60"/>
                <use id="zoomplus" xlink:href="#zoomPlus" x="17" y="9" onmousedown="handleZoom(evt,'in')"/>
                <use id="zoomminus" xlink:href="#zoomMin" x="42" y="9" onmousedown="handleZoom(evt,'out')"/>
                <use id="reset" xlink:href="#resetDef" x="30" y="36" onmousedown="handleReset()"/>
                <g id="arrowUp" xlink:href="#dirArrow" transform="translate(30 24)" onmousedown="handlePan(0,-1)">
                  <use xlink:href="#rim" fill="#404040">
                        <set attributeName="fill" to="#808080" begin="arrowUp.mouseover" end="arrowUp.mouseout"/>
                  </use>
                  <path fill="none" stroke="white" stroke-width="1.5" d="M0,-3.0v7 M-2.5,-0.5L0,-3.0L2.5,-0.5"/>
                </g>
                <g id="arrowRight" xlink:href="#dirArrow" transform="rotate(90) translate(36 -43)" onmousedown="handlePan(1,0)">
                  <use xlink:href="#rim" fill="#404040">
                        <set attributeName="fill" to="#808080" begin="arrowRight.mouseover" end="arrowRight.mouseout"/>
                  </use>
                  <path fill="none" stroke="white" stroke-width="1.5" d="M0,-3.0v7 M-2.5,-0.5L0,-3.0L2.5,-0.5"/>
                </g>
                <g id="arrowDown" xlink:href="#dirArrow" transform="rotate(180) translate(-30 -48)" onmousedown="handlePan(0,1)">
                  <use xlink:href="#rim" fill="#404040">
                        <set attributeName="fill" to="#808080" begin="arrowDown.mouseover" end="arrowDown.mouseout"/>
                  </use>
                  <path fill="none" stroke="white" stroke-width="1.5" d="M0,-3.0v7 M-2.5,-0.5L0,-3.0L2.5,-0.5"/>
                </g>
                <g id="arrowLeft" xlink:href="#dirArrow" transform="rotate(270) translate(-36 17)" onmousedown="handlePan(-1,0)">
                  <use xlink:href="#rim" fill="#404040">
                        <set attributeName="fill" to="#808080" begin="arrowLeft.mouseover" end="arrowLeft.mouseout"/>
                  </use>
                  <path fill="none" stroke="white" stroke-width="1.5" d="M0,-3.0v7 M-2.5,-0.5L0,-3.0L2.5,-0.5"/>
                </g>
        </g>
        <svg viewBox="0 0 15 15" width="100%" height="30px" preserveAspectRatio="xMaxYMin meet">
         <g id="arrow_out" transform="scale(0.3 0.3)">
          <a xlink:href="classClinkFramerTb__inherit__graph_org.svg" target="_base">
           <rect id="button" ry="5" rx="5" y="6" x="6" height="38" width="38"
                fill="#f2f5e9" fill-opacity="0.5" stroke="#606060" stroke-width="1.0"/>
           <path id="arrow"
             d="M 11.500037,31.436501 C 11.940474,20.09759 22.043105,11.32322 32.158766,21.979434 L 37.068811,17.246167 C 37.068811,17.246167 37.088388,32 37.088388,32 L 22.160133,31.978069 C 22.160133,31.978069 26.997745,27.140456 26.997745,27.140456 C 18.528582,18.264221 13.291696,25.230495 11.500037,31.436501 z"
             style="fill:#404040;"/>
          </a>
         </g>
        </svg>
</svg>
