<?xml version="1.0" encoding="UTF-8" standalone="no"?>
<!DOCTYPE svg PUBLIC "-//W3C//DTD SVG 1.1//EN"
 "http://www.w3.org/Graphics/SVG/1.1/DTD/svg11.dtd">
<!-- Generated by graphviz version 2.43.0 (0)
 -->
<!-- Title: FirAverage Pages: 1 -->
<svg width="230pt" height="308pt"
 viewBox="0.00 0.00 229.50 308.00" xmlns="http://www.w3.org/2000/svg" xmlns:xlink="http://www.w3.org/1999/xlink">
<g id="graph0" class="graph" transform="scale(1 1) rotate(0) translate(4 304)">
<title>FirAverage</title>
<polygon fill="white" stroke="transparent" points="-4,4 -4,-304 225.5,-304 225.5,4 -4,4"/>
<!-- Node1 -->
<g id="node1" class="node">
<title>Node1</title>
<g id="a_node1"><a xlink:title=" ">
<polygon fill="#bfbfbf" stroke="black" points="85,-56.5 85,-75.5 153,-75.5 153,-56.5 85,-56.5"/>
<text text-anchor="middle" x="119" y="-63.5" font-family="Helvetica,sans-Serif" font-size="10.00">FirAverage</text>
</a>
</g>
</g>
<!-- Node9 -->
<g id="node9" class="node">
<title>Node9</title>
<g id="a_node9"><a xlink:href="classFirAverageTb.html" target="_top" xlink:title=" ">
<polygon fill="white" stroke="black" points="79,-0.5 79,-19.5 159,-19.5 159,-0.5 79,-0.5"/>
<text text-anchor="middle" x="119" y="-7.5" font-family="Helvetica,sans-Serif" font-size="10.00">FirAverageTb</text>
</a>
</g>
</g>
<!-- Node1&#45;&gt;Node9 -->
<g id="edge9" class="edge">
<title>Node1&#45;&gt;Node9</title>
<path fill="none" stroke="midnightblue" d="M119,-45.8C119,-36.91 119,-26.78 119,-19.75"/>
<polygon fill="midnightblue" stroke="midnightblue" points="115.5,-46.08 119,-56.08 122.5,-46.08 115.5,-46.08"/>
</g>
<!-- Node2 -->
<g id="node2" class="node">
<title>Node2</title>
<g id="a_node2"><a xlink:href="classSlvFixedDelay.html" target="_top" xlink:title=" ">
<polygon fill="white" stroke="black" points="40,-168.5 40,-187.5 126,-187.5 126,-168.5 40,-168.5"/>
<text text-anchor="middle" x="83" y="-175.5" font-family="Helvetica,sans-Serif" font-size="10.00">SlvFixedDelay</text>
</a>
</g>
</g>
<!-- Node2&#45;&gt;Node1 -->
<g id="edge1" class="edge">
<title>Node2&#45;&gt;Node1</title>
<path fill="none" stroke="midnightblue" d="M71.95,-159.16C65.16,-145.76 58.97,-127.18 66,-112 73.5,-95.79 90.04,-83.28 102.67,-75.61"/>
<polygon fill="midnightblue" stroke="midnightblue" points="69.11,-161.25 77.06,-168.25 75.22,-157.82 69.11,-161.25"/>
</g>
<!-- Node6 -->
<g id="node6" class="node">
<title>Node6</title>
<g id="a_node6"><a xlink:href="classsfixedDelay.html" target="_top" xlink:title=" ">
<polygon fill="white" stroke="black" points="75.5,-112.5 75.5,-131.5 162.5,-131.5 162.5,-112.5 75.5,-112.5"/>
<text text-anchor="middle" x="119" y="-119.5" font-family="Helvetica,sans-Serif" font-size="10.00">sfixedDelay(2)</text>
</a>
</g>
</g>
<!-- Node2&#45;&gt;Node6 -->
<g id="edge6" class="edge">
<title>Node2&#45;&gt;Node6</title>
<path fill="none" stroke="midnightblue" d="M94.62,-159.57C100.82,-150.27 108.17,-139.25 113.17,-131.75"/>
<polygon fill="midnightblue" stroke="midnightblue" points="91.58,-157.82 88.94,-168.08 97.4,-161.7 91.58,-157.82"/>
</g>
<!-- Node3 -->
<g id="node3" class="node">
<title>Node3</title>
<g id="a_node3"><a xlink:href="classSrl16Delay.html" target="_top" xlink:title=" ">
<polygon fill="white" stroke="black" points="0,-224.5 0,-243.5 70,-243.5 70,-224.5 0,-224.5"/>
<text text-anchor="middle" x="35" y="-231.5" font-family="Helvetica,sans-Serif" font-size="10.00">Srl16Delay</text>
</a>
</g>
</g>
<!-- Node3&#45;&gt;Node2 -->
<g id="edge2" class="edge">
<title>Node3&#45;&gt;Node2</title>
<path fill="none" stroke="midnightblue" d="M49.73,-216.43C58.14,-206.97 68.35,-195.48 75.22,-187.75"/>
<polygon fill="midnightblue" stroke="midnightblue" points="46.95,-214.28 42.93,-224.08 52.19,-218.93 46.95,-214.28"/>
</g>
<!-- Node4 -->
<g id="node4" class="node">
<title>Node4</title>
<g id="a_node4"><a xlink:href="classLutFixedDelay.html" target="_top" xlink:title=" ">
<polygon fill="white" stroke="black" points="88,-224.5 88,-243.5 174,-243.5 174,-224.5 88,-224.5"/>
<text text-anchor="middle" x="131" y="-231.5" font-family="Helvetica,sans-Serif" font-size="10.00">LutFixedDelay</text>
</a>
</g>
</g>
<!-- Node4&#45;&gt;Node2 -->
<g id="edge3" class="edge">
<title>Node4&#45;&gt;Node2</title>
<path fill="none" stroke="midnightblue" d="M116.27,-216.43C107.86,-206.97 97.65,-195.48 90.78,-187.75"/>
<polygon fill="midnightblue" stroke="midnightblue" points="113.81,-218.93 123.07,-224.08 119.05,-214.28 113.81,-218.93"/>
</g>
<!-- Node5 -->
<g id="node5" class="node">
<title>Node5</title>
<g id="a_node5"><a xlink:href="classSinglePortRamPrimitive.html" target="_top" xlink:title=" ">
<polygon fill="white" stroke="black" points="64.5,-280.5 64.5,-299.5 197.5,-299.5 197.5,-280.5 64.5,-280.5"/>
<text text-anchor="middle" x="131" y="-287.5" font-family="Helvetica,sans-Serif" font-size="10.00">SinglePortRamPrimitive</text>
</a>
</g>
</g>
<!-- Node5&#45;&gt;Node4 -->
<g id="edge4" class="edge">
<title>Node5&#45;&gt;Node4</title>
<path fill="none" stroke="midnightblue" d="M131,-269.8C131,-260.91 131,-250.78 131,-243.75"/>
<polygon fill="midnightblue" stroke="midnightblue" points="127.5,-270.08 131,-280.08 134.5,-270.08 127.5,-270.08"/>
</g>
<!-- Node6&#45;&gt;Node1 -->
<g id="edge5" class="edge">
<title>Node6&#45;&gt;Node1</title>
<path fill="none" stroke="midnightblue" d="M119,-101.8C119,-92.91 119,-82.78 119,-75.75"/>
<polygon fill="midnightblue" stroke="midnightblue" points="115.5,-102.08 119,-112.08 122.5,-102.08 115.5,-102.08"/>
</g>
<!-- Node7 -->
<g id="node7" class="node">
<title>Node7</title>
<g id="a_node7"><a xlink:href="classadd3.html" target="_top" xlink:title=" ">
<polygon fill="white" stroke="black" points="180.5,-112.5 180.5,-131.5 221.5,-131.5 221.5,-112.5 180.5,-112.5"/>
<text text-anchor="middle" x="201" y="-119.5" font-family="Helvetica,sans-Serif" font-size="10.00">add3</text>
</a>
</g>
</g>
<!-- Node7&#45;&gt;Node1 -->
<g id="edge7" class="edge">
<title>Node7&#45;&gt;Node1</title>
<path fill="none" stroke="midnightblue" d="M179.17,-106.62C164.19,-96.76 144.8,-83.99 132.14,-75.65"/>
<polygon fill="midnightblue" stroke="midnightblue" points="177.55,-109.75 187.83,-112.32 181.4,-103.9 177.55,-109.75"/>
</g>
<!-- Node8 -->
<g id="node8" class="node">
<title>Node8</title>
<g id="a_node8"><a xlink:href="classcsa3.html" target="_top" xlink:title=" ">
<polygon fill="white" stroke="black" points="181.5,-168.5 181.5,-187.5 220.5,-187.5 220.5,-168.5 181.5,-168.5"/>
<text text-anchor="middle" x="201" y="-175.5" font-family="Helvetica,sans-Serif" font-size="10.00">csa3</text>
</a>
</g>
</g>
<!-- Node8&#45;&gt;Node7 -->
<g id="edge8" class="edge">
<title>Node8&#45;&gt;Node7</title>
<path fill="none" stroke="midnightblue" d="M201,-157.8C201,-148.91 201,-138.78 201,-131.75"/>
<polygon fill="midnightblue" stroke="midnightblue" points="197.5,-158.08 201,-168.08 204.5,-158.08 197.5,-158.08"/>
</g>
</g>
</svg>
