<?xml version="1.0" encoding="UTF-8" standalone="no"?>
<!DOCTYPE svg PUBLIC "-//W3C//DTD SVG 1.1//EN"
 "http://www.w3.org/Graphics/SVG/1.1/DTD/svg11.dtd">
<!-- Generated by graphviz version 2.43.0 (0)
 -->
<!-- Title: LutRam Pages: 1 -->
<svg width="941pt" height="745pt"
 viewBox="0.00 0.00 941.00 744.55" xmlns="http://www.w3.org/2000/svg" xmlns:xlink="http://www.w3.org/1999/xlink">
<g id="graph0" class="graph" transform="scale(1 1) rotate(0) translate(4 740.55)">
<title>LutRam</title>
<polygon fill="white" stroke="transparent" points="-4,4 -4,-740.55 937,-740.55 937,4 -4,4"/>
<!-- Node1 -->
<g id="node1" class="node">
<title>Node1</title>
<g id="a_node1"><a xlink:title=" ">
<polygon fill="#bfbfbf" stroke="black" points="0,-342.5 0,-361.5 54,-361.5 54,-342.5 0,-342.5"/>
<text text-anchor="middle" x="27" y="-349.5" font-family="Helvetica,sans-Serif" font-size="10.00">LutRam</text>
</a>
</g>
</g>
<!-- Node2 -->
<g id="node2" class="node">
<title>Node2</title>
<g id="a_node2"><a xlink:href="classDualPortRam.html" target="_top" xlink:title=" ">
<polygon fill="white" stroke="black" points="99.5,-323.5 99.5,-342.5 180.5,-342.5 180.5,-323.5 99.5,-323.5"/>
<text text-anchor="middle" x="140" y="-330.5" font-family="Helvetica,sans-Serif" font-size="10.00">DualPortRam</text>
</a>
</g>
</g>
<!-- Node1&#45;&gt;Node2 -->
<g id="edge1" class="edge">
<title>Node1&#45;&gt;Node2</title>
<path fill="none" stroke="midnightblue" d="M63.96,-345.84C75.22,-343.92 87.72,-341.78 99.23,-339.81"/>
<polygon fill="midnightblue" stroke="midnightblue" points="63.29,-342.41 54.02,-347.55 64.47,-349.31 63.29,-342.41"/>
</g>
<!-- Node59 -->
<g id="node48" class="node">
<title>Node59</title>
<g id="a_node48"><a xlink:href="classRawEthFramerTx.html" target="_top" xlink:title=" ">
<polygon fill="white" stroke="black" points="90,-522.5 90,-541.5 190,-541.5 190,-522.5 90,-522.5"/>
<text text-anchor="middle" x="140" y="-529.5" font-family="Helvetica,sans-Serif" font-size="10.00">RawEthFramerTx</text>
</a>
</g>
</g>
<!-- Node1&#45;&gt;Node59 -->
<g id="edge55" class="edge">
<title>Node1&#45;&gt;Node59</title>
<path fill="none" stroke="midnightblue" d="M39.5,-370.64C62.88,-408.56 115.27,-493.52 133,-522.27"/>
<polygon fill="midnightblue" stroke="midnightblue" points="42.2,-368.35 33.97,-361.68 36.24,-372.03 42.2,-368.35"/>
</g>
<!-- Node3 -->
<g id="node3" class="node">
<title>Node3</title>
<g id="a_node3"><a xlink:href="classAxiDualPortRam.html" target="_top" xlink:title=" ">
<polygon fill="white" stroke="black" points="246,-456.5 246,-475.5 343,-475.5 343,-456.5 246,-456.5"/>
<text text-anchor="middle" x="294.5" y="-463.5" font-family="Helvetica,sans-Serif" font-size="10.00">AxiDualPortRam</text>
</a>
</g>
</g>
<!-- Node2&#45;&gt;Node3 -->
<g id="edge2" class="edge">
<title>Node2&#45;&gt;Node3</title>
<path fill="none" stroke="midnightblue" d="M159.73,-349.34C191.79,-377.29 256.21,-433.48 282.22,-456.16"/>
<polygon fill="midnightblue" stroke="midnightblue" points="161.8,-346.5 151.97,-342.57 157.2,-351.78 161.8,-346.5"/>
</g>
<!-- Node18 -->
<g id="node16" class="node">
<title>Node18</title>
<g id="a_node16"><a xlink:href="classFirFilterMultiChannel.html" target="_top" xlink:title=" ">
<polygon fill="white" stroke="black" points="419,-304.5 419,-323.5 537,-323.5 537,-304.5 419,-304.5"/>
<text text-anchor="middle" x="478" y="-311.5" font-family="Helvetica,sans-Serif" font-size="10.00">FirFilterMultiChannel</text>
</a>
</g>
</g>
<!-- Node2&#45;&gt;Node18 -->
<g id="edge54" class="edge">
<title>Node2&#45;&gt;Node18</title>
<path fill="none" stroke="midnightblue" d="M190.65,-330.19C251.45,-326.75 354.3,-320.94 418.77,-317.29"/>
<polygon fill="midnightblue" stroke="midnightblue" points="190.32,-326.71 180.53,-330.76 190.71,-333.69 190.32,-326.71"/>
</g>
<!-- Node21 -->
<g id="node19" class="node">
<title>Node21</title>
<g id="a_node19"><a xlink:href="classAxiLiteRingBuffer.html" target="_top" xlink:title=" ">
<polygon fill="white" stroke="black" points="244,-494.5 244,-513.5 345,-513.5 345,-494.5 244,-494.5"/>
<text text-anchor="middle" x="294.5" y="-501.5" font-family="Helvetica,sans-Serif" font-size="10.00">AxiLiteRingBuffer</text>
</a>
</g>
</g>
<!-- Node2&#45;&gt;Node21 -->
<g id="edge18" class="edge">
<title>Node2&#45;&gt;Node21</title>
<path fill="none" stroke="midnightblue" d="M146.39,-352.14C156.51,-384.49 181.42,-449.85 226,-485 231.26,-489.15 237.37,-492.39 243.73,-494.92"/>
<polygon fill="midnightblue" stroke="midnightblue" points="149.74,-351.11 143.53,-342.53 143.03,-353.12 149.74,-351.11"/>
</g>
<!-- Node22 -->
<g id="node20" class="node">
<title>Node22</title>
<g id="a_node20"><a xlink:href="classAxiLiteSaciMasterTb.html" target="_top" xlink:title=" ">
<polygon fill="white" stroke="black" points="236.5,-342.5 236.5,-361.5 352.5,-361.5 352.5,-342.5 236.5,-342.5"/>
<text text-anchor="middle" x="294.5" y="-349.5" font-family="Helvetica,sans-Serif" font-size="10.00">AxiLiteSaciMasterTb</text>
</a>
</g>
</g>
<!-- Node2&#45;&gt;Node22 -->
<g id="edge19" class="edge">
<title>Node2&#45;&gt;Node22</title>
<path fill="none" stroke="midnightblue" d="M190.92,-339.22C205.41,-341.02 221.33,-343.01 236.23,-344.86"/>
<polygon fill="midnightblue" stroke="midnightblue" points="191.03,-335.71 180.67,-337.94 190.16,-342.65 191.03,-335.71"/>
</g>
<!-- Node23 -->
<g id="node21" class="node">
<title>Node23</title>
<g id="a_node21"><a xlink:href="classAxiStreamDepacketizer2.html" target="_top" xlink:title=" ">
<polygon fill="white" stroke="black" points="226,-190.5 226,-209.5 363,-209.5 363,-190.5 226,-190.5"/>
<text text-anchor="middle" x="294.5" y="-197.5" font-family="Helvetica,sans-Serif" font-size="10.00">AxiStreamDepacketizer2</text>
</a>
</g>
</g>
<!-- Node2&#45;&gt;Node23 -->
<g id="edge20" class="edge">
<title>Node2&#45;&gt;Node23</title>
<path fill="none" stroke="midnightblue" d="M159.26,-316.41C176.38,-300.91 202.76,-277.2 226,-257 245.45,-240.1 268.44,-220.83 281.95,-209.58"/>
<polygon fill="midnightblue" stroke="midnightblue" points="156.71,-313.99 151.65,-323.3 161.41,-319.18 156.71,-313.99"/>
</g>
<!-- Node54 -->
<g id="node43" class="node">
<title>Node54</title>
<g id="a_node43"><a xlink:href="classAxiStreamDmaV2Write.html" target="_top" xlink:title=" ">
<polygon fill="white" stroke="black" points="229.5,-266.5 229.5,-285.5 359.5,-285.5 359.5,-266.5 229.5,-266.5"/>
<text text-anchor="middle" x="294.5" y="-273.5" font-family="Helvetica,sans-Serif" font-size="10.00">AxiStreamDmaV2Write</text>
</a>
</g>
</g>
<!-- Node2&#45;&gt;Node54 -->
<g id="edge42" class="edge">
<title>Node2&#45;&gt;Node54</title>
<path fill="none" stroke="midnightblue" d="M174.82,-319.61C190.37,-313.52 209.08,-306.29 226,-300 239.17,-295.1 253.87,-289.85 266.18,-285.51"/>
<polygon fill="midnightblue" stroke="midnightblue" points="173.14,-316.51 165.11,-323.43 175.7,-323.03 173.14,-316.51"/>
</g>
<!-- Node56 -->
<g id="node45" class="node">
<title>Node56</title>
<g id="a_node45"><a xlink:href="classAxiStreamPacketizer2.html" target="_top" xlink:title=" ">
<polygon fill="white" stroke="black" points="233,-114.5 233,-133.5 356,-133.5 356,-114.5 233,-114.5"/>
<text text-anchor="middle" x="294.5" y="-121.5" font-family="Helvetica,sans-Serif" font-size="10.00">AxiStreamPacketizer2</text>
</a>
</g>
</g>
<!-- Node2&#45;&gt;Node56 -->
<g id="edge44" class="edge">
<title>Node2&#45;&gt;Node56</title>
<path fill="none" stroke="midnightblue" d="M148.93,-314.01C162.09,-283.84 190.55,-223.98 226,-181 241.81,-161.83 264.64,-144.1 279.28,-133.66"/>
<polygon fill="midnightblue" stroke="midnightblue" points="145.64,-312.8 144.93,-323.37 152.08,-315.55 145.64,-312.8"/>
</g>
<!-- Node4 -->
<g id="node4" class="node">
<title>Node4</title>
<g id="a_node4"><a xlink:href="classAxiDualPortRamIpIntegrator.html" target="_top" xlink:title=" ">
<polygon fill="white" stroke="black" points="401,-494.5 401,-513.5 555,-513.5 555,-494.5 401,-494.5"/>
<text text-anchor="middle" x="478" y="-501.5" font-family="Helvetica,sans-Serif" font-size="10.00">AxiDualPortRamIpIntegrator</text>
</a>
</g>
</g>
<!-- Node3&#45;&gt;Node4 -->
<g id="edge3" class="edge">
<title>Node3&#45;&gt;Node4</title>
<path fill="none" stroke="midnightblue" d="M351.29,-477.68C377.03,-483.07 407.2,-489.39 431.53,-494.48"/>
<polygon fill="midnightblue" stroke="midnightblue" points="351.81,-474.21 341.3,-475.59 350.37,-481.06 351.81,-474.21"/>
</g>
<!-- Node5 -->
<g id="node5" class="node">
<title>Node5</title>
<g id="a_node5"><a xlink:href="classAxiLiteAsyncTb.html" target="_top" xlink:title=" ">
<polygon fill="white" stroke="black" points="432,-456.5 432,-475.5 524,-475.5 524,-456.5 432,-456.5"/>
<text text-anchor="middle" x="478" y="-463.5" font-family="Helvetica,sans-Serif" font-size="10.00">AxiLiteAsyncTb</text>
</a>
</g>
</g>
<!-- Node3&#45;&gt;Node5 -->
<g id="edge4" class="edge">
<title>Node3&#45;&gt;Node5</title>
<path fill="none" stroke="midnightblue" d="M353.42,-466C378.79,-466 408.1,-466 431.82,-466"/>
<polygon fill="midnightblue" stroke="midnightblue" points="353.19,-462.5 343.19,-466 353.19,-469.5 353.19,-462.5"/>
</g>
<!-- Node6 -->
<g id="node6" class="node">
<title>Node6</title>
<g id="a_node6"><a xlink:href="classAxiLiteRamSyncStatusVector.html" target="_top" xlink:title=" ">
<polygon fill="white" stroke="black" points="399,-646.5 399,-665.5 557,-665.5 557,-646.5 399,-646.5"/>
<text text-anchor="middle" x="478" y="-653.5" font-family="Helvetica,sans-Serif" font-size="10.00">AxiLiteRamSyncStatusVector</text>
</a>
</g>
</g>
<!-- Node3&#45;&gt;Node6 -->
<g id="edge5" class="edge">
<title>Node3&#45;&gt;Node6</title>
<path fill="none" stroke="midnightblue" d="M352.15,-476.68C356.14,-478.96 359.83,-481.7 363,-485 411.05,-535.11 350.07,-587.75 399,-637 402.73,-640.76 407.08,-643.82 411.77,-646.3"/>
<polygon fill="midnightblue" stroke="midnightblue" points="353.55,-473.47 343.01,-472.41 350.59,-479.81 353.55,-473.47"/>
</g>
<!-- Node12 -->
<g id="node10" class="node">
<title>Node12</title>
<g id="a_node10"><a xlink:href="classAxiLiteSrpV0Tb.html" target="_top" xlink:title=" ">
<polygon fill="white" stroke="black" points="432.5,-418.5 432.5,-437.5 523.5,-437.5 523.5,-418.5 432.5,-418.5"/>
<text text-anchor="middle" x="478" y="-425.5" font-family="Helvetica,sans-Serif" font-size="10.00">AxiLiteSrpV0Tb</text>
</a>
</g>
</g>
<!-- Node3&#45;&gt;Node12 -->
<g id="edge9" class="edge">
<title>Node3&#45;&gt;Node12</title>
<path fill="none" stroke="midnightblue" d="M351.41,-454.29C377.46,-448.84 408.02,-442.44 432.47,-437.32"/>
<polygon fill="midnightblue" stroke="midnightblue" points="350.37,-450.94 341.3,-456.41 351.81,-457.79 350.37,-450.94"/>
</g>
<!-- Node13 -->
<g id="node11" class="node">
<title>Node13</title>
<g id="a_node11"><a xlink:href="classAxiLiteWriteFilterTb.html" target="_top" xlink:title=" ">
<polygon fill="white" stroke="black" points="421.5,-380.5 421.5,-399.5 534.5,-399.5 534.5,-380.5 421.5,-380.5"/>
<text text-anchor="middle" x="478" y="-387.5" font-family="Helvetica,sans-Serif" font-size="10.00">AxiLiteWriteFilterTb</text>
</a>
</g>
</g>
<!-- Node3&#45;&gt;Node13 -->
<g id="edge10" class="edge">
<title>Node3&#45;&gt;Node13</title>
<path fill="none" stroke="midnightblue" d="M318.58,-450.96C339,-438.23 369.99,-420.29 399,-409 408.48,-405.31 418.9,-402.18 428.95,-399.59"/>
<polygon fill="midnightblue" stroke="midnightblue" points="316.56,-448.1 309.98,-456.4 320.3,-454.01 316.56,-448.1"/>
</g>
<!-- Node14 -->
<g id="node12" class="node">
<title>Node14</title>
<g id="a_node12"><a xlink:href="classAxiStreamDmaRingWrite.html" target="_top" xlink:title=" ">
<polygon fill="white" stroke="black" points="408.5,-342.5 408.5,-361.5 547.5,-361.5 547.5,-342.5 408.5,-342.5"/>
<text text-anchor="middle" x="478" y="-349.5" font-family="Helvetica,sans-Serif" font-size="10.00">AxiStreamDmaRingWrite</text>
</a>
</g>
</g>
<!-- Node3&#45;&gt;Node14 -->
<g id="edge11" class="edge">
<title>Node3&#45;&gt;Node14</title>
<path fill="none" stroke="midnightblue" d="M309.62,-448.47C327.94,-426.92 361.97,-390.79 399,-371 406.25,-367.12 414.31,-364.03 422.4,-361.55"/>
<polygon fill="midnightblue" stroke="midnightblue" points="306.89,-446.28 303.18,-456.21 312.27,-450.76 306.89,-446.28"/>
</g>
<!-- Node15 -->
<g id="node13" class="node">
<title>Node15</title>
<g id="a_node13"><a xlink:href="classAxiStreamMonAxiL.html" target="_top" xlink:title=" ">
<polygon fill="white" stroke="black" points="423,-532.5 423,-551.5 533,-551.5 533,-532.5 423,-532.5"/>
<text text-anchor="middle" x="478" y="-539.5" font-family="Helvetica,sans-Serif" font-size="10.00">AxiStreamMonAxiL</text>
</a>
</g>
</g>
<!-- Node3&#45;&gt;Node15 -->
<g id="edge12" class="edge">
<title>Node3&#45;&gt;Node15</title>
<path fill="none" stroke="midnightblue" d="M351.64,-479.21C355.59,-480.92 359.42,-482.84 363,-485 382.91,-497.03 378.88,-511.33 399,-523 406.35,-527.27 414.63,-530.58 422.98,-533.15"/>
<polygon fill="midnightblue" stroke="midnightblue" points="352.85,-475.92 342.26,-475.59 350.34,-482.46 352.85,-475.92"/>
</g>
<!-- Node17 -->
<g id="node15" class="node">
<title>Node17</title>
<g id="a_node15"><a xlink:href="classClinkTop.html" target="_top" xlink:title=" ">
<polygon fill="white" stroke="black" points="449,-608.5 449,-627.5 507,-627.5 507,-608.5 449,-608.5"/>
<text text-anchor="middle" x="478" y="-615.5" font-family="Helvetica,sans-Serif" font-size="10.00">ClinkTop</text>
</a>
</g>
</g>
<!-- Node3&#45;&gt;Node17 -->
<g id="edge14" class="edge">
<title>Node3&#45;&gt;Node17</title>
<path fill="none" stroke="midnightblue" d="M352.4,-477.22C356.26,-479.38 359.85,-481.95 363,-485 401.16,-521.97 360.19,-562.71 399,-599 412.34,-611.47 432.45,-616.15 448.91,-617.75"/>
<polygon fill="midnightblue" stroke="midnightblue" points="353.56,-473.9 343.01,-472.88 350.62,-480.26 353.56,-473.9"/>
</g>
<!-- Node3&#45;&gt;Node18 -->
<g id="edge15" class="edge">
<title>Node3&#45;&gt;Node18</title>
<path fill="none" stroke="midnightblue" d="M308.44,-448.06C333.46,-413.57 387.05,-340.73 399,-333 405.09,-329.06 411.92,-325.94 418.94,-323.47"/>
<polygon fill="midnightblue" stroke="midnightblue" points="305.49,-446.16 302.47,-456.31 311.17,-450.26 305.49,-446.16"/>
</g>
<!-- Node19 -->
<g id="node17" class="node">
<title>Node19</title>
<g id="a_node17"><a xlink:href="classRawEthFramerWrapper.html" target="_top" xlink:title=" ">
<polygon fill="white" stroke="black" points="413.5,-684.5 413.5,-703.5 542.5,-703.5 542.5,-684.5 413.5,-684.5"/>
<text text-anchor="middle" x="478" y="-691.5" font-family="Helvetica,sans-Serif" font-size="10.00">RawEthFramerWrapper</text>
</a>
</g>
</g>
<!-- Node3&#45;&gt;Node19 -->
<g id="edge16" class="edge">
<title>Node3&#45;&gt;Node19</title>
<path fill="none" stroke="midnightblue" d="M352.31,-476.53C356.27,-478.84 359.91,-481.63 363,-485 421.07,-548.36 339.82,-612.68 399,-675 403.13,-679.35 408.07,-682.77 413.43,-685.45"/>
<polygon fill="midnightblue" stroke="midnightblue" points="353.76,-473.34 343.23,-472.2 350.75,-479.66 353.76,-473.34"/>
</g>
<!-- Node20 -->
<g id="node18" class="node">
<title>Node20</title>
<g id="a_node18"><a xlink:href="classUartAxiLiteMasterTb.html" target="_top" xlink:title=" ">
<polygon fill="white" stroke="black" points="419.5,-570.5 419.5,-589.5 536.5,-589.5 536.5,-570.5 419.5,-570.5"/>
<text text-anchor="middle" x="478" y="-577.5" font-family="Helvetica,sans-Serif" font-size="10.00">UartAxiLiteMasterTb</text>
</a>
</g>
</g>
<!-- Node3&#45;&gt;Node20 -->
<g id="edge17" class="edge">
<title>Node3&#45;&gt;Node20</title>
<path fill="none" stroke="midnightblue" d="M352.32,-477.91C356.14,-479.91 359.76,-482.26 363,-485 391.55,-509.12 370.02,-537.39 399,-561 404.94,-565.84 411.93,-569.48 419.24,-572.21"/>
<polygon fill="midnightblue" stroke="midnightblue" points="353.67,-474.67 343.11,-473.81 350.82,-481.07 353.67,-474.67"/>
</g>
<!-- Node7 -->
<g id="node7" class="node">
<title>Node7</title>
<g id="a_node7"><a xlink:href="classPgpEthAxiL.html" target="_top" xlink:title=" ">
<polygon fill="white" stroke="black" points="607.5,-646.5 607.5,-665.5 678.5,-665.5 678.5,-646.5 607.5,-646.5"/>
<text text-anchor="middle" x="643" y="-653.5" font-family="Helvetica,sans-Serif" font-size="10.00">PgpEthAxiL</text>
</a>
</g>
</g>
<!-- Node6&#45;&gt;Node7 -->
<g id="edge6" class="edge">
<title>Node6&#45;&gt;Node7</title>
<path fill="none" stroke="midnightblue" d="M567.5,-656C581.66,-656 595.54,-656 607.41,-656"/>
<polygon fill="midnightblue" stroke="midnightblue" points="567.16,-652.5 557.16,-656 567.16,-659.5 567.16,-652.5"/>
</g>
<!-- Node8 -->
<g id="node8" class="node">
<title>Node8</title>
<g id="a_node8"><a xlink:href="classPgpEthCore.html" target="_top" xlink:title=" ">
<polygon fill="white" stroke="red" points="729,-646.5 729,-665.5 802,-665.5 802,-646.5 729,-646.5"/>
<text text-anchor="middle" x="765.5" y="-653.5" font-family="Helvetica,sans-Serif" font-size="10.00">PgpEthCore</text>
</a>
</g>
</g>
<!-- Node7&#45;&gt;Node8 -->
<g id="edge7" class="edge">
<title>Node7&#45;&gt;Node8</title>
<path fill="none" stroke="midnightblue" d="M688.81,-656C701.97,-656 716.19,-656 728.71,-656"/>
<polygon fill="midnightblue" stroke="midnightblue" points="688.53,-652.5 678.53,-656 688.53,-659.5 688.53,-652.5"/>
</g>
<!-- Node9 -->
<g id="node9" class="node">
<title>Node9</title>
<g id="a_node9"><a xlink:href="classPgpEthCaui4Gty.html" target="_top" xlink:title=" ">
<polygon fill="white" stroke="red" points="838,-646.5 838,-665.5 933,-665.5 933,-646.5 838,-646.5"/>
<text text-anchor="middle" x="885.5" y="-653.5" font-family="Helvetica,sans-Serif" font-size="10.00">PgpEthCaui4Gty</text>
</a>
</g>
</g>
<!-- Node8&#45;&gt;Node9 -->
<g id="edge8" class="edge">
<title>Node8&#45;&gt;Node9</title>
<path fill="none" stroke="midnightblue" d="M812.28,-656C820.71,-656 829.53,-656 837.99,-656"/>
<polygon fill="midnightblue" stroke="midnightblue" points="812.22,-652.5 802.22,-656 812.22,-659.5 812.22,-652.5"/>
</g>
<!-- Node16 -->
<g id="node14" class="node">
<title>Node16</title>
<g id="a_node14"><a xlink:href="classAxiMonAxiL.html" target="_top" xlink:title=" ">
<polygon fill="white" stroke="black" points="606,-532.5 606,-551.5 680,-551.5 680,-532.5 606,-532.5"/>
<text text-anchor="middle" x="643" y="-539.5" font-family="Helvetica,sans-Serif" font-size="10.00">AxiMonAxiL</text>
</a>
</g>
</g>
<!-- Node15&#45;&gt;Node16 -->
<g id="edge13" class="edge">
<title>Node15&#45;&gt;Node16</title>
<path fill="none" stroke="midnightblue" d="M543.54,-542C564.76,-542 587.59,-542 605.92,-542"/>
<polygon fill="midnightblue" stroke="midnightblue" points="543.28,-538.5 533.28,-542 543.28,-545.5 543.28,-538.5"/>
</g>
<!-- Node24 -->
<g id="node22" class="node">
<title>Node24</title>
<g id="a_node22"><a xlink:href="classAxiRssiCoreWrapper.html" target="_top" xlink:title=" ">
<polygon fill="white" stroke="black" points="420,-0.5 420,-19.5 536,-19.5 536,-0.5 420,-0.5"/>
<text text-anchor="middle" x="478" y="-7.5" font-family="Helvetica,sans-Serif" font-size="10.00">AxiRssiCoreWrapper</text>
</a>
</g>
</g>
<!-- Node23&#45;&gt;Node24 -->
<g id="edge21" class="edge">
<title>Node23&#45;&gt;Node24</title>
<path fill="none" stroke="midnightblue" d="M319.87,-184.62C334.27,-174.4 351.8,-159.81 363,-143 392.46,-98.78 360.19,-65.29 399,-29 404.9,-23.48 412.14,-19.48 419.79,-16.61"/>
<polygon fill="midnightblue" stroke="midnightblue" points="317.7,-181.87 311.41,-190.39 321.64,-187.65 317.7,-181.87"/>
</g>
<!-- Node26 -->
<g id="node24" class="node">
<title>Node26</title>
<g id="a_node24"><a xlink:href="classAxiStreamPacketizer2Tb.html" target="_top" xlink:title=" ">
<polygon fill="white" stroke="black" points="410.5,-76.5 410.5,-95.5 545.5,-95.5 545.5,-76.5 410.5,-76.5"/>
<text text-anchor="middle" x="478" y="-83.5" font-family="Helvetica,sans-Serif" font-size="10.00">AxiStreamPacketizer2Tb</text>
</a>
</g>
</g>
<!-- Node23&#45;&gt;Node26 -->
<g id="edge23" class="edge">
<title>Node23&#45;&gt;Node26</title>
<path fill="none" stroke="midnightblue" d="M315.41,-184.17C329.12,-173.03 347.58,-157.56 363,-143 379.91,-127.03 378.88,-116.67 399,-105 405.63,-101.15 413.01,-98.08 420.52,-95.63"/>
<polygon fill="midnightblue" stroke="midnightblue" points="313.14,-181.5 307.55,-190.5 317.53,-186.95 313.14,-181.5"/>
</g>
<!-- Node27 -->
<g id="node25" class="node">
<title>Node27</title>
<g id="a_node25"><a xlink:href="classPgp3Rx.html" target="_top" xlink:title=" ">
<polygon fill="white" stroke="black" points="451.5,-190.5 451.5,-209.5 504.5,-209.5 504.5,-190.5 451.5,-190.5"/>
<text text-anchor="middle" x="478" y="-197.5" font-family="Helvetica,sans-Serif" font-size="10.00">Pgp3Rx</text>
</a>
</g>
</g>
<!-- Node23&#45;&gt;Node27 -->
<g id="edge24" class="edge">
<title>Node23&#45;&gt;Node27</title>
<path fill="none" stroke="midnightblue" d="M373.32,-200C401.37,-200 431.1,-200 451.49,-200"/>
<polygon fill="midnightblue" stroke="midnightblue" points="373.08,-196.5 363.08,-200 373.08,-203.5 373.08,-196.5"/>
</g>
<!-- Node39 -->
<g id="node32" class="node">
<title>Node39</title>
<g id="a_node32"><a xlink:href="classPgp4Rx.html" target="_top" xlink:title=" ">
<polygon fill="white" stroke="black" points="451.5,-114.5 451.5,-133.5 504.5,-133.5 504.5,-114.5 451.5,-114.5"/>
<text text-anchor="middle" x="478" y="-121.5" font-family="Helvetica,sans-Serif" font-size="10.00">Pgp4Rx</text>
</a>
</g>
</g>
<!-- Node23&#45;&gt;Node39 -->
<g id="edge31" class="edge">
<title>Node23&#45;&gt;Node39</title>
<path fill="none" stroke="midnightblue" d="M318.58,-184.96C339,-172.23 369.99,-154.29 399,-143 415.89,-136.43 435.74,-131.63 451.19,-128.5"/>
<polygon fill="midnightblue" stroke="midnightblue" points="316.56,-182.1 309.98,-190.4 320.3,-188.01 316.56,-182.1"/>
</g>
<!-- Node50 -->
<g id="node39" class="node">
<title>Node50</title>
<g id="a_node39"><a xlink:href="classRssiCoreWrapper.html" target="_top" xlink:title=" ">
<polygon fill="white" stroke="black" points="427.5,-228.5 427.5,-247.5 528.5,-247.5 528.5,-228.5 427.5,-228.5"/>
<text text-anchor="middle" x="478" y="-235.5" font-family="Helvetica,sans-Serif" font-size="10.00">RssiCoreWrapper</text>
</a>
</g>
</g>
<!-- Node23&#45;&gt;Node50 -->
<g id="edge38" class="edge">
<title>Node23&#45;&gt;Node50</title>
<path fill="none" stroke="midnightblue" d="M351.29,-211.68C377.03,-217.07 407.2,-223.39 431.53,-228.48"/>
<polygon fill="midnightblue" stroke="midnightblue" points="351.81,-208.21 341.3,-209.59 350.37,-215.06 351.81,-208.21"/>
</g>
<!-- Node25 -->
<g id="node23" class="node">
<title>Node25</title>
<g id="a_node23"><a xlink:href="classAxiRssiCoreTb.html" target="_top" xlink:title=" ">
<polygon fill="white" stroke="black" points="599.5,-0.5 599.5,-19.5 686.5,-19.5 686.5,-0.5 599.5,-0.5"/>
<text text-anchor="middle" x="643" y="-7.5" font-family="Helvetica,sans-Serif" font-size="10.00">AxiRssiCoreTb</text>
</a>
</g>
</g>
<!-- Node24&#45;&gt;Node25 -->
<g id="edge22" class="edge">
<title>Node24&#45;&gt;Node25</title>
<path fill="none" stroke="midnightblue" d="M546.18,-10C564.18,-10 583.15,-10 599.41,-10"/>
<polygon fill="midnightblue" stroke="midnightblue" points="546.01,-6.5 536.01,-10 546.01,-13.5 546.01,-6.5"/>
</g>
<!-- Node28 -->
<g id="node26" class="node">
<title>Node28</title>
<g id="a_node26"><a xlink:href="classPgp3Core.html" target="_top" xlink:title=" ">
<polygon fill="white" stroke="black" points="611.5,-190.5 611.5,-209.5 674.5,-209.5 674.5,-190.5 611.5,-190.5"/>
<text text-anchor="middle" x="643" y="-197.5" font-family="Helvetica,sans-Serif" font-size="10.00">Pgp3Core</text>
</a>
</g>
</g>
<!-- Node27&#45;&gt;Node28 -->
<g id="edge25" class="edge">
<title>Node27&#45;&gt;Node28</title>
<path fill="none" stroke="midnightblue" d="M514.91,-200C543.78,-200 583.9,-200 611.29,-200"/>
<polygon fill="midnightblue" stroke="midnightblue" points="514.83,-196.5 504.83,-200 514.83,-203.5 514.83,-196.5"/>
</g>
<!-- Node38 -->
<g id="node31" class="node">
<title>Node38</title>
<g id="a_node31"><a xlink:href="classPgp3Tb.html" target="_top" xlink:title=" ">
<polygon fill="white" stroke="black" points="616.5,-152.5 616.5,-171.5 669.5,-171.5 669.5,-152.5 616.5,-152.5"/>
<text text-anchor="middle" x="643" y="-159.5" font-family="Helvetica,sans-Serif" font-size="10.00">Pgp3Tb</text>
</a>
</g>
</g>
<!-- Node27&#45;&gt;Node38 -->
<g id="edge30" class="edge">
<title>Node27&#45;&gt;Node38</title>
<path fill="none" stroke="midnightblue" d="M514.7,-191.68C545.4,-184.52 588.92,-174.37 616.29,-167.99"/>
<polygon fill="midnightblue" stroke="midnightblue" points="513.77,-188.3 504.83,-193.98 515.36,-195.12 513.77,-188.3"/>
</g>
<!-- Node29 -->
<g id="node27" class="node">
<title>Node29</title>
<g id="a_node27"><a xlink:href="classPgp3GthUs.html" target="_top" xlink:title=" ">
<polygon fill="white" stroke="red" points="730,-152.5 730,-171.5 801,-171.5 801,-152.5 730,-152.5"/>
<text text-anchor="middle" x="765.5" y="-159.5" font-family="Helvetica,sans-Serif" font-size="10.00">Pgp3GthUs</text>
</a>
</g>
</g>
<!-- Node28&#45;&gt;Node29 -->
<g id="edge26" class="edge">
<title>Node28&#45;&gt;Node29</title>
<path fill="none" stroke="midnightblue" d="M684.21,-187.32C700.49,-182.19 718.98,-176.36 734.1,-171.59"/>
<polygon fill="midnightblue" stroke="midnightblue" points="682.89,-184.07 674.41,-190.41 685,-190.74 682.89,-184.07"/>
</g>
<!-- Node31 -->
<g id="node28" class="node">
<title>Node31</title>
<g id="a_node28"><a xlink:href="classPgp3Gtp7.html" target="_top" xlink:title=" ">
<polygon fill="white" stroke="red" points="733.5,-266.5 733.5,-285.5 797.5,-285.5 797.5,-266.5 733.5,-266.5"/>
<text text-anchor="middle" x="765.5" y="-273.5" font-family="Helvetica,sans-Serif" font-size="10.00">Pgp3Gtp7</text>
</a>
</g>
</g>
<!-- Node28&#45;&gt;Node31 -->
<g id="edge27" class="edge">
<title>Node28&#45;&gt;Node31</title>
<path fill="none" stroke="midnightblue" d="M683.78,-213.64C686.99,-215.28 690.11,-217.06 693,-219 712.32,-231.97 710.51,-242.89 729,-257 733.56,-260.48 738.84,-263.68 743.91,-266.42"/>
<polygon fill="midnightblue" stroke="midnightblue" points="685.13,-210.42 674.58,-209.45 682.23,-216.78 685.13,-210.42"/>
</g>
<!-- Node34 -->
<g id="node29" class="node">
<title>Node34</title>
<g id="a_node29"><a xlink:href="classPgp3Gtx7.html" target="_top" xlink:title=" ">
<polygon fill="white" stroke="red" points="733.5,-228.5 733.5,-247.5 797.5,-247.5 797.5,-228.5 733.5,-228.5"/>
<text text-anchor="middle" x="765.5" y="-235.5" font-family="Helvetica,sans-Serif" font-size="10.00">Pgp3Gtx7</text>
</a>
</g>
</g>
<!-- Node28&#45;&gt;Node34 -->
<g id="edge28" class="edge">
<title>Node28&#45;&gt;Node34</title>
<path fill="none" stroke="midnightblue" d="M684.21,-212.68C700.49,-217.81 718.98,-223.64 734.1,-228.41"/>
<polygon fill="midnightblue" stroke="midnightblue" points="685,-209.26 674.41,-209.59 682.89,-215.93 685,-209.26"/>
</g>
<!-- Node36 -->
<g id="node30" class="node">
<title>Node36</title>
<g id="a_node30"><a xlink:href="classPgp3GtyUs.html" target="_top" xlink:title=" ">
<polygon fill="white" stroke="red" points="730,-190.5 730,-209.5 801,-209.5 801,-190.5 730,-190.5"/>
<text text-anchor="middle" x="765.5" y="-197.5" font-family="Helvetica,sans-Serif" font-size="10.00">Pgp3GtyUs</text>
</a>
</g>
</g>
<!-- Node28&#45;&gt;Node36 -->
<g id="edge29" class="edge">
<title>Node28&#45;&gt;Node36</title>
<path fill="none" stroke="midnightblue" d="M684.93,-200C699.44,-200 715.62,-200 729.58,-200"/>
<polygon fill="midnightblue" stroke="midnightblue" points="684.72,-196.5 674.72,-200 684.72,-203.5 684.72,-196.5"/>
</g>
<!-- Node40 -->
<g id="node33" class="node">
<title>Node40</title>
<g id="a_node33"><a xlink:href="classPgp4Core.html" target="_top" xlink:title=" ">
<polygon fill="white" stroke="black" points="611.5,-76.5 611.5,-95.5 674.5,-95.5 674.5,-76.5 611.5,-76.5"/>
<text text-anchor="middle" x="643" y="-83.5" font-family="Helvetica,sans-Serif" font-size="10.00">Pgp4Core</text>
</a>
</g>
</g>
<!-- Node39&#45;&gt;Node40 -->
<g id="edge32" class="edge">
<title>Node39&#45;&gt;Node40</title>
<path fill="none" stroke="midnightblue" d="M514.91,-115.63C543.78,-108.9 583.9,-99.54 611.29,-93.16"/>
<polygon fill="midnightblue" stroke="midnightblue" points="513.77,-112.3 504.83,-117.98 515.36,-119.12 513.77,-112.3"/>
</g>
<!-- Node49 -->
<g id="node38" class="node">
<title>Node49</title>
<g id="a_node38"><a xlink:href="classPgp4Tb.html" target="_top" xlink:title=" ">
<polygon fill="white" stroke="black" points="616.5,-38.5 616.5,-57.5 669.5,-57.5 669.5,-38.5 616.5,-38.5"/>
<text text-anchor="middle" x="643" y="-45.5" font-family="Helvetica,sans-Serif" font-size="10.00">Pgp4Tb</text>
</a>
</g>
</g>
<!-- Node39&#45;&gt;Node49 -->
<g id="edge37" class="edge">
<title>Node39&#45;&gt;Node49</title>
<path fill="none" stroke="midnightblue" d="M514.8,-119.71C528.66,-116.94 544.22,-112.41 557,-105 577.12,-93.33 573.68,-79.97 593,-67 600.05,-62.27 608.44,-58.47 616.27,-55.55"/>
<polygon fill="midnightblue" stroke="midnightblue" points="513.86,-116.32 504.61,-121.5 515.07,-123.22 513.86,-116.32"/>
</g>
<!-- Node41 -->
<g id="node34" class="node">
<title>Node41</title>
<g id="a_node34"><a xlink:href="classPgp4GthUs.html" target="_top" xlink:title=" ">
<polygon fill="white" stroke="red" points="730,-0.5 730,-19.5 801,-19.5 801,-0.5 730,-0.5"/>
<text text-anchor="middle" x="765.5" y="-7.5" font-family="Helvetica,sans-Serif" font-size="10.00">Pgp4GthUs</text>
</a>
</g>
</g>
<!-- Node40&#45;&gt;Node41 -->
<g id="edge33" class="edge">
<title>Node40&#45;&gt;Node41</title>
<path fill="none" stroke="midnightblue" d="M683.78,-72.36C686.99,-70.72 690.11,-68.94 693,-67 712.32,-54.03 710.51,-43.11 729,-29 733.56,-25.52 738.84,-22.32 743.91,-19.58"/>
<polygon fill="midnightblue" stroke="midnightblue" points="682.23,-69.22 674.58,-76.55 685.13,-75.58 682.23,-69.22"/>
</g>
<!-- Node43 -->
<g id="node35" class="node">
<title>Node43</title>
<g id="a_node35"><a xlink:href="classPgp4Gtp7.html" target="_top" xlink:title=" ">
<polygon fill="white" stroke="red" points="733.5,-114.5 733.5,-133.5 797.5,-133.5 797.5,-114.5 733.5,-114.5"/>
<text text-anchor="middle" x="765.5" y="-121.5" font-family="Helvetica,sans-Serif" font-size="10.00">Pgp4Gtp7</text>
</a>
</g>
</g>
<!-- Node40&#45;&gt;Node43 -->
<g id="edge34" class="edge">
<title>Node40&#45;&gt;Node43</title>
<path fill="none" stroke="midnightblue" d="M684.21,-98.68C700.49,-103.81 718.98,-109.64 734.1,-114.41"/>
<polygon fill="midnightblue" stroke="midnightblue" points="685,-95.26 674.41,-95.59 682.89,-101.93 685,-95.26"/>
</g>
<!-- Node45 -->
<g id="node36" class="node">
<title>Node45</title>
<g id="a_node36"><a xlink:href="classPgp4Gtx7.html" target="_top" xlink:title=" ">
<polygon fill="white" stroke="red" points="733.5,-76.5 733.5,-95.5 797.5,-95.5 797.5,-76.5 733.5,-76.5"/>
<text text-anchor="middle" x="765.5" y="-83.5" font-family="Helvetica,sans-Serif" font-size="10.00">Pgp4Gtx7</text>
</a>
</g>
</g>
<!-- Node40&#45;&gt;Node45 -->
<g id="edge35" class="edge">
<title>Node40&#45;&gt;Node45</title>
<path fill="none" stroke="midnightblue" d="M684.82,-86C700.7,-86 718.61,-86 733.42,-86"/>
<polygon fill="midnightblue" stroke="midnightblue" points="684.72,-82.5 674.72,-86 684.72,-89.5 684.72,-82.5"/>
</g>
<!-- Node47 -->
<g id="node37" class="node">
<title>Node47</title>
<g id="a_node37"><a xlink:href="classPgp4GtyUs.html" target="_top" xlink:title=" ">
<polygon fill="white" stroke="red" points="730,-38.5 730,-57.5 801,-57.5 801,-38.5 730,-38.5"/>
<text text-anchor="middle" x="765.5" y="-45.5" font-family="Helvetica,sans-Serif" font-size="10.00">Pgp4GtyUs</text>
</a>
</g>
</g>
<!-- Node40&#45;&gt;Node47 -->
<g id="edge36" class="edge">
<title>Node40&#45;&gt;Node47</title>
<path fill="none" stroke="midnightblue" d="M684.21,-73.32C700.49,-68.19 718.98,-62.36 734.1,-57.59"/>
<polygon fill="midnightblue" stroke="midnightblue" points="682.89,-70.07 674.41,-76.41 685,-76.74 682.89,-70.07"/>
</g>
<!-- Node51 -->
<g id="node40" class="node">
<title>Node51</title>
<g id="a_node40"><a xlink:href="classRawEthFramerTb.html" target="_top" xlink:title=" ">
<polygon fill="white" stroke="black" points="593,-589.5 593,-608.5 693,-608.5 693,-589.5 593,-589.5"/>
<text text-anchor="middle" x="643" y="-596.5" font-family="Helvetica,sans-Serif" font-size="10.00">RawEthFramerTb</text>
</a>
</g>
</g>
<!-- Node50&#45;&gt;Node51 -->
<g id="edge39" class="edge">
<title>Node50&#45;&gt;Node51</title>
<path fill="none" stroke="midnightblue" d="M538.61,-244.25C545.58,-247.22 551.98,-251.33 557,-257 647.21,-358.85 526.04,-442.56 593,-561 599.89,-573.18 612.42,-582.79 623.08,-589.3"/>
<polygon fill="midnightblue" stroke="midnightblue" points="539.43,-240.82 528.83,-240.87 537.14,-247.44 539.43,-240.82"/>
</g>
<!-- Node52 -->
<g id="node41" class="node">
<title>Node52</title>
<g id="a_node41"><a xlink:href="classRssiCoreTb.html" target="_top" xlink:title=" ">
<polygon fill="white" stroke="black" points="607.5,-228.5 607.5,-247.5 678.5,-247.5 678.5,-228.5 607.5,-228.5"/>
<text text-anchor="middle" x="643" y="-235.5" font-family="Helvetica,sans-Serif" font-size="10.00">RssiCoreTb</text>
</a>
</g>
</g>
<!-- Node50&#45;&gt;Node52 -->
<g id="edge40" class="edge">
<title>Node50&#45;&gt;Node52</title>
<path fill="none" stroke="midnightblue" d="M538.86,-238C561.96,-238 587.56,-238 607.48,-238"/>
<polygon fill="midnightblue" stroke="midnightblue" points="538.79,-234.5 528.79,-238 538.79,-241.5 538.79,-234.5"/>
</g>
<!-- Node53 -->
<g id="node42" class="node">
<title>Node53</title>
<g id="a_node42"><a xlink:href="classRssiInterleaveTb.html" target="_top" xlink:title=" ">
<polygon fill="white" stroke="black" points="594,-266.5 594,-285.5 692,-285.5 692,-266.5 594,-266.5"/>
<text text-anchor="middle" x="643" y="-273.5" font-family="Helvetica,sans-Serif" font-size="10.00">RssiInterleaveTb</text>
</a>
</g>
</g>
<!-- Node50&#45;&gt;Node53 -->
<g id="edge41" class="edge">
<title>Node50&#45;&gt;Node53</title>
<path fill="none" stroke="midnightblue" d="M530.03,-249.9C552.94,-255.24 579.6,-261.45 601.16,-266.48"/>
<polygon fill="midnightblue" stroke="midnightblue" points="530.67,-246.45 520.13,-247.59 529.08,-253.27 530.67,-246.45"/>
</g>
<!-- Node55 -->
<g id="node44" class="node">
<title>Node55</title>
<g id="a_node44"><a xlink:href="classAxiStreamDmaV2.html" target="_top" xlink:title=" ">
<polygon fill="white" stroke="black" points="426,-266.5 426,-285.5 530,-285.5 530,-266.5 426,-266.5"/>
<text text-anchor="middle" x="478" y="-273.5" font-family="Helvetica,sans-Serif" font-size="10.00">AxiStreamDmaV2</text>
</a>
</g>
</g>
<!-- Node54&#45;&gt;Node55 -->
<g id="edge43" class="edge">
<title>Node54&#45;&gt;Node55</title>
<path fill="none" stroke="midnightblue" d="M369.81,-276C388.68,-276 408.54,-276 425.96,-276"/>
<polygon fill="midnightblue" stroke="midnightblue" points="369.75,-272.5 359.75,-276 369.75,-279.5 369.75,-272.5"/>
</g>
<!-- Node56&#45;&gt;Node24 -->
<g id="edge45" class="edge">
<title>Node56&#45;&gt;Node24</title>
<path fill="none" stroke="midnightblue" d="M309.62,-106.47C327.94,-84.92 361.97,-48.79 399,-29 406.25,-25.12 414.31,-22.03 422.4,-19.55"/>
<polygon fill="midnightblue" stroke="midnightblue" points="306.89,-104.28 303.18,-114.21 312.27,-108.76 306.89,-104.28"/>
</g>
<!-- Node56&#45;&gt;Node26 -->
<g id="edge46" class="edge">
<title>Node56&#45;&gt;Node26</title>
<path fill="none" stroke="midnightblue" d="M351.29,-112.32C377.03,-106.93 407.2,-100.61 431.53,-95.52"/>
<polygon fill="midnightblue" stroke="midnightblue" points="350.37,-108.94 341.3,-114.41 351.81,-115.79 350.37,-108.94"/>
</g>
<!-- Node56&#45;&gt;Node50 -->
<g id="edge53" class="edge">
<title>Node56&#45;&gt;Node50</title>
<path fill="none" stroke="midnightblue" d="M315.41,-139.83C329.12,-150.97 347.58,-166.44 363,-181 379.91,-196.97 378.88,-207.33 399,-219 407.68,-224.04 417.65,-227.74 427.49,-230.47"/>
<polygon fill="midnightblue" stroke="midnightblue" points="317.53,-137.05 307.55,-133.5 313.14,-142.5 317.53,-137.05"/>
</g>
<!-- Node57 -->
<g id="node46" class="node">
<title>Node57</title>
<g id="a_node46"><a xlink:href="classPgp3Tx.html" target="_top" xlink:title=" ">
<polygon fill="white" stroke="black" points="451.5,-152.5 451.5,-171.5 504.5,-171.5 504.5,-152.5 451.5,-152.5"/>
<text text-anchor="middle" x="478" y="-159.5" font-family="Helvetica,sans-Serif" font-size="10.00">Pgp3Tx</text>
</a>
</g>
</g>
<!-- Node56&#45;&gt;Node57 -->
<g id="edge47" class="edge">
<title>Node56&#45;&gt;Node57</title>
<path fill="none" stroke="midnightblue" d="M351.39,-135.7C384.76,-142.69 425.55,-151.23 451.4,-156.64"/>
<polygon fill="midnightblue" stroke="midnightblue" points="351.81,-132.21 341.3,-133.59 350.37,-139.06 351.81,-132.21"/>
</g>
<!-- Node58 -->
<g id="node47" class="node">
<title>Node58</title>
<g id="a_node47"><a xlink:href="classPgp4Tx.html" target="_top" xlink:title=" ">
<polygon fill="white" stroke="black" points="451.5,-38.5 451.5,-57.5 504.5,-57.5 504.5,-38.5 451.5,-38.5"/>
<text text-anchor="middle" x="478" y="-45.5" font-family="Helvetica,sans-Serif" font-size="10.00">Pgp4Tx</text>
</a>
</g>
</g>
<!-- Node56&#45;&gt;Node58 -->
<g id="edge50" class="edge">
<title>Node56&#45;&gt;Node58</title>
<path fill="none" stroke="midnightblue" d="M318.58,-108.96C339,-96.23 369.99,-78.29 399,-67 415.89,-60.43 435.74,-55.63 451.19,-52.5"/>
<polygon fill="midnightblue" stroke="midnightblue" points="316.56,-106.1 309.98,-114.4 320.3,-112.01 316.56,-106.1"/>
</g>
<!-- Node57&#45;&gt;Node28 -->
<g id="edge48" class="edge">
<title>Node57&#45;&gt;Node28</title>
<path fill="none" stroke="midnightblue" d="M514.91,-170.37C543.78,-177.1 583.9,-186.46 611.29,-192.84"/>
<polygon fill="midnightblue" stroke="midnightblue" points="515.36,-166.88 504.83,-168.02 513.77,-173.7 515.36,-166.88"/>
</g>
<!-- Node57&#45;&gt;Node38 -->
<g id="edge49" class="edge">
<title>Node57&#45;&gt;Node38</title>
<path fill="none" stroke="midnightblue" d="M515.1,-162C545.77,-162 589.04,-162 616.29,-162"/>
<polygon fill="midnightblue" stroke="midnightblue" points="514.83,-158.5 504.83,-162 514.83,-165.5 514.83,-158.5"/>
</g>
<!-- Node58&#45;&gt;Node40 -->
<g id="edge51" class="edge">
<title>Node58&#45;&gt;Node40</title>
<path fill="none" stroke="midnightblue" d="M514.91,-56.37C543.78,-63.1 583.9,-72.46 611.29,-78.84"/>
<polygon fill="midnightblue" stroke="midnightblue" points="515.36,-52.88 504.83,-54.02 513.77,-59.7 515.36,-52.88"/>
</g>
<!-- Node58&#45;&gt;Node49 -->
<g id="edge52" class="edge">
<title>Node58&#45;&gt;Node49</title>
<path fill="none" stroke="midnightblue" d="M515.1,-48C545.77,-48 589.04,-48 616.29,-48"/>
<polygon fill="midnightblue" stroke="midnightblue" points="514.83,-44.5 504.83,-48 514.83,-51.5 514.83,-44.5"/>
</g>
<!-- Node60 -->
<g id="node49" class="node">
<title>Node60</title>
<g id="a_node49"><a xlink:href="classRawEthFramer.html" target="_top" xlink:title=" ">
<polygon fill="white" stroke="black" points="250.5,-684.5 250.5,-703.5 338.5,-703.5 338.5,-684.5 250.5,-684.5"/>
<text text-anchor="middle" x="294.5" y="-691.5" font-family="Helvetica,sans-Serif" font-size="10.00">RawEthFramer</text>
</a>
</g>
</g>
<!-- Node59&#45;&gt;Node60 -->
<g id="edge56" class="edge">
<title>Node59&#45;&gt;Node60</title>
<path fill="none" stroke="midnightblue" d="M156.94,-548.93C188.71,-582.68 259.05,-657.4 284.27,-684.2"/>
<polygon fill="midnightblue" stroke="midnightblue" points="159.49,-546.53 150.08,-541.65 154.39,-551.33 159.49,-546.53"/>
</g>
<!-- Node60&#45;&gt;Node19 -->
<g id="edge58" class="edge">
<title>Node60&#45;&gt;Node19</title>
<path fill="none" stroke="midnightblue" d="M348.79,-694C369.01,-694 392.23,-694 413.32,-694"/>
<polygon fill="midnightblue" stroke="midnightblue" points="348.51,-690.5 338.51,-694 348.51,-697.5 348.51,-690.5"/>
</g>
<!-- Node60&#45;&gt;Node51 -->
<g id="edge57" class="edge">
<title>Node60&#45;&gt;Node51</title>
<path fill="none" stroke="midnightblue" d="M326.62,-707.33C378.75,-727.42 485.09,-758.51 557,-713 588.58,-693.01 569.59,-666.14 593,-637 602.17,-625.59 615.43,-615.57 625.84,-608.7"/>
<polygon fill="midnightblue" stroke="midnightblue" points="327.82,-704.05 317.24,-703.61 325.24,-710.55 327.82,-704.05"/>
</g>
</g>
</svg>
