<?xml version="1.0" encoding="UTF-8" standalone="no"?>
<!DOCTYPE svg PUBLIC "-//W3C//DTD SVG 1.1//EN"
 "http://www.w3.org/Graphics/SVG/1.1/DTD/svg11.dtd">
<!-- Generated by graphviz version 2.43.0 (0)
 -->
<!-- Title: AxiVersion Pages: 1 -->
<svg width="1031pt" height="256pt"
 viewBox="0.00 0.00 1031.00 256.00" xmlns="http://www.w3.org/2000/svg" xmlns:xlink="http://www.w3.org/1999/xlink">
<g id="graph0" class="graph" transform="scale(1 1) rotate(0) translate(4 252)">
<title>AxiVersion</title>
<polygon fill="white" stroke="transparent" points="-4,4 -4,-252 1027,-252 1027,4 -4,4"/>
<!-- Node1 -->
<g id="node1" class="node">
<title>Node1</title>
<g id="a_node1"><a xlink:title=" ">
<polygon fill="#bfbfbf" stroke="black" points="660,-95.5 660,-114.5 728,-114.5 728,-95.5 660,-95.5"/>
<text text-anchor="middle" x="694" y="-102.5" font-family="Helvetica,sans-Serif" font-size="10.00">AxiVersion</text>
</a>
</g>
</g>
<!-- Node15 -->
<g id="node15" class="node">
<title>Node15</title>
<g id="a_node15"><a xlink:href="classAxiLiteIpBusBridgeTb.html" target="_top" xlink:title=" ">
<polygon fill="white" stroke="black" points="779,-171.5 779,-190.5 900,-190.5 900,-171.5 779,-171.5"/>
<text text-anchor="middle" x="839.5" y="-178.5" font-family="Helvetica,sans-Serif" font-size="10.00">AxiLiteIpBusBridgeTb</text>
</a>
</g>
</g>
<!-- Node1&#45;&gt;Node15 -->
<g id="edge23" class="edge">
<title>Node1&#45;&gt;Node15</title>
<path fill="none" stroke="midnightblue" d="M711.14,-121.9C724.24,-134.69 743.81,-151.74 764,-162 771.62,-165.87 780.08,-168.99 788.49,-171.5"/>
<polygon fill="midnightblue" stroke="midnightblue" points="713.4,-119.21 703.86,-114.59 708.43,-124.15 713.4,-119.21"/>
</g>
<!-- Node16 -->
<g id="node16" class="node">
<title>Node16</title>
<g id="a_node16"><a xlink:href="classAxiVersionIpIntegrator.html" target="_top" xlink:title=" ">
<polygon fill="white" stroke="black" points="777,-133.5 777,-152.5 902,-152.5 902,-133.5 777,-133.5"/>
<text text-anchor="middle" x="839.5" y="-140.5" font-family="Helvetica,sans-Serif" font-size="10.00">AxiVersionIpIntegrator</text>
</a>
</g>
</g>
<!-- Node1&#45;&gt;Node16 -->
<g id="edge24" class="edge">
<title>Node1&#45;&gt;Node16</title>
<path fill="none" stroke="midnightblue" d="M738.13,-117.01C746.7,-119.36 755.63,-121.78 764,-124 775.87,-127.15 788.83,-130.49 800.56,-133.47"/>
<polygon fill="midnightblue" stroke="midnightblue" points="738.88,-113.59 728.31,-114.31 737.02,-120.34 738.88,-113.59"/>
</g>
<!-- Node17 -->
<g id="node17" class="node">
<title>Node17</title>
<g id="a_node17"><a xlink:href="classAxiVersionTb.html" target="_top" xlink:title=" ">
<polygon fill="white" stroke="black" points="799.5,-95.5 799.5,-114.5 879.5,-114.5 879.5,-95.5 799.5,-95.5"/>
<text text-anchor="middle" x="839.5" y="-102.5" font-family="Helvetica,sans-Serif" font-size="10.00">AxiVersionTb</text>
</a>
</g>
</g>
<!-- Node1&#45;&gt;Node17 -->
<g id="edge25" class="edge">
<title>Node1&#45;&gt;Node17</title>
<path fill="none" stroke="midnightblue" d="M738.37,-105C757.75,-105 780.42,-105 799.29,-105"/>
<polygon fill="midnightblue" stroke="midnightblue" points="738.28,-101.5 728.28,-105 738.28,-108.5 738.28,-101.5"/>
</g>
<!-- Node18 -->
<g id="node18" class="node">
<title>Node18</title>
<g id="a_node18"><a xlink:href="classSrpV3AxiLiteTb.html" target="_top" xlink:title=" ">
<polygon fill="white" stroke="black" points="794,-57.5 794,-76.5 885,-76.5 885,-57.5 794,-57.5"/>
<text text-anchor="middle" x="839.5" y="-64.5" font-family="Helvetica,sans-Serif" font-size="10.00">SrpV3AxiLiteTb</text>
</a>
</g>
</g>
<!-- Node1&#45;&gt;Node18 -->
<g id="edge26" class="edge">
<title>Node1&#45;&gt;Node18</title>
<path fill="none" stroke="midnightblue" d="M738.13,-92.99C746.7,-90.64 755.63,-88.22 764,-86 775.87,-82.85 788.83,-79.51 800.56,-76.53"/>
<polygon fill="midnightblue" stroke="midnightblue" points="737.02,-89.66 728.31,-95.69 738.88,-96.41 737.02,-89.66"/>
</g>
<!-- Node19 -->
<g id="node19" class="node">
<title>Node19</title>
<g id="a_node19"><a xlink:href="classSugoiSubordinateSimModel.html" target="_top" xlink:title=" ">
<polygon fill="white" stroke="black" points="764,-19.5 764,-38.5 915,-38.5 915,-19.5 764,-19.5"/>
<text text-anchor="middle" x="839.5" y="-26.5" font-family="Helvetica,sans-Serif" font-size="10.00">SugoiSubordinateSimModel</text>
</a>
</g>
</g>
<!-- Node1&#45;&gt;Node19 -->
<g id="edge27" class="edge">
<title>Node1&#45;&gt;Node19</title>
<path fill="none" stroke="midnightblue" d="M711.14,-88.1C724.24,-75.31 743.81,-58.26 764,-48 771.62,-44.13 780.08,-41.01 788.49,-38.5"/>
<polygon fill="midnightblue" stroke="midnightblue" points="708.43,-85.85 703.86,-95.41 713.4,-90.79 708.43,-85.85"/>
</g>
<!-- Node2 -->
<g id="node2" class="node">
<title>Node2</title>
<g id="a_node2"><a xlink:href="classDeviceDna.html" target="_top" xlink:title=" ">
<polygon fill="white" stroke="black" points="430,-57.5 430,-76.5 500,-76.5 500,-57.5 430,-57.5"/>
<text text-anchor="middle" x="465" y="-64.5" font-family="Helvetica,sans-Serif" font-size="10.00">DeviceDna</text>
</a>
</g>
</g>
<!-- Node2&#45;&gt;Node1 -->
<g id="edge1" class="edge">
<title>Node2&#45;&gt;Node1</title>
<path fill="none" stroke="midnightblue" d="M510.44,-70.56C542.25,-73.54 586.01,-78.53 624,-86 636.68,-88.49 650.44,-92.1 662.32,-95.5"/>
<polygon fill="midnightblue" stroke="midnightblue" points="510.41,-67.04 500.13,-69.63 509.78,-74.01 510.41,-67.04"/>
</g>
<!-- Node3 -->
<g id="node3" class="node">
<title>Node3</title>
<g id="a_node3"><a xlink:href="classDeviceDna7Series.html" target="_top" xlink:title=" ">
<polygon fill="white" stroke="black" points="269.5,-0.5 269.5,-19.5 375.5,-19.5 375.5,-0.5 269.5,-0.5"/>
<text text-anchor="middle" x="322.5" y="-7.5" font-family="Helvetica,sans-Serif" font-size="10.00">DeviceDna7Series</text>
</a>
</g>
</g>
<!-- Node3&#45;&gt;Node2 -->
<g id="edge2" class="edge">
<title>Node3&#45;&gt;Node2</title>
<path fill="none" stroke="midnightblue" d="M356.61,-23.33C365.2,-26.8 374.45,-30.53 383,-34 402.42,-41.87 424.44,-50.85 440.61,-57.45"/>
<polygon fill="midnightblue" stroke="midnightblue" points="357.83,-20.05 347.25,-19.56 355.22,-26.54 357.83,-20.05"/>
</g>
<!-- Node4 -->
<g id="node4" class="node">
<title>Node4</title>
<g id="a_node4"><a xlink:href="classRstSync.html" target="_top" xlink:title=" ">
<polygon fill="white" stroke="black" points="143,-133.5 143,-152.5 199,-152.5 199,-133.5 143,-133.5"/>
<text text-anchor="middle" x="171" y="-140.5" font-family="Helvetica,sans-Serif" font-size="10.00">RstSync</text>
</a>
</g>
</g>
<!-- Node4&#45;&gt;Node3 -->
<g id="edge3" class="edge">
<title>Node4&#45;&gt;Node3</title>
<path fill="none" stroke="midnightblue" d="M190.37,-126.66C221.79,-98.71 284.94,-42.52 310.44,-19.84"/>
<polygon fill="midnightblue" stroke="midnightblue" points="187.9,-124.17 182.75,-133.43 192.55,-129.4 187.9,-124.17"/>
</g>
<!-- Node7 -->
<g id="node7" class="node">
<title>Node7</title>
<g id="a_node7"><a xlink:href="classDeviceDnaUltraScale.html" target="_top" xlink:title=" ">
<polygon fill="white" stroke="black" points="262.5,-76.5 262.5,-95.5 382.5,-95.5 382.5,-76.5 262.5,-76.5"/>
<text text-anchor="middle" x="322.5" y="-83.5" font-family="Helvetica,sans-Serif" font-size="10.00">DeviceDnaUltraScale</text>
</a>
</g>
</g>
<!-- Node4&#45;&gt;Node7 -->
<g id="edge7" class="edge">
<title>Node4&#45;&gt;Node7</title>
<path fill="none" stroke="midnightblue" d="M206.63,-129.8C234.08,-119.33 271.79,-104.95 296.4,-95.57"/>
<polygon fill="midnightblue" stroke="midnightblue" points="205.12,-126.63 197.02,-133.46 207.61,-133.17 205.12,-126.63"/>
</g>
<!-- Node10 -->
<g id="node10" class="node">
<title>Node10</title>
<g id="a_node10"><a xlink:href="classIprog7Series.html" target="_top" xlink:title=" ">
<polygon fill="white" stroke="black" points="426.5,-152.5 426.5,-171.5 503.5,-171.5 503.5,-152.5 426.5,-152.5"/>
<text text-anchor="middle" x="465" y="-159.5" font-family="Helvetica,sans-Serif" font-size="10.00">Iprog7Series</text>
</a>
</g>
</g>
<!-- Node4&#45;&gt;Node10 -->
<g id="edge12" class="edge">
<title>Node4&#45;&gt;Node10</title>
<path fill="none" stroke="midnightblue" d="M209.39,-145.43C265.31,-149.07 370.16,-155.89 426.28,-159.55"/>
<polygon fill="midnightblue" stroke="midnightblue" points="209.41,-141.93 199.21,-144.77 208.96,-148.91 209.41,-141.93"/>
</g>
<!-- Node13 -->
<g id="node13" class="node">
<title>Node13</title>
<g id="a_node13"><a xlink:href="classIprogUltraScale.html" target="_top" xlink:title=" ">
<polygon fill="white" stroke="black" points="419,-114.5 419,-133.5 511,-133.5 511,-114.5 419,-114.5"/>
<text text-anchor="middle" x="465" y="-121.5" font-family="Helvetica,sans-Serif" font-size="10.00">IprogUltraScale</text>
</a>
</g>
</g>
<!-- Node4&#45;&gt;Node13 -->
<g id="edge18" class="edge">
<title>Node4&#45;&gt;Node13</title>
<path fill="none" stroke="midnightblue" d="M209.28,-140.57C262.77,-137.09 361.17,-130.69 418.75,-126.94"/>
<polygon fill="midnightblue" stroke="midnightblue" points="208.96,-137.09 199.21,-141.23 209.41,-144.07 208.96,-137.09"/>
</g>
<!-- Node14 -->
<g id="node14" class="node">
<title>Node14</title>
<g id="a_node14"><a xlink:href="classSynchronizerOneShot.html" target="_top" xlink:title=" ">
<polygon fill="white" stroke="black" points="262,-228.5 262,-247.5 383,-247.5 383,-228.5 262,-228.5"/>
<text text-anchor="middle" x="322.5" y="-235.5" font-family="Helvetica,sans-Serif" font-size="10.00">SynchronizerOneShot</text>
</a>
</g>
</g>
<!-- Node4&#45;&gt;Node14 -->
<g id="edge20" class="edge">
<title>Node4&#45;&gt;Node14</title>
<path fill="none" stroke="midnightblue" d="M195.69,-158.17C205.41,-164.77 216.57,-172.85 226,-181 243.6,-196.21 242.3,-206.63 262,-219 268.06,-222.81 274.95,-225.91 281.84,-228.43"/>
<polygon fill="midnightblue" stroke="midnightblue" points="197.53,-155.18 187.26,-152.56 193.65,-161.01 197.53,-155.18"/>
</g>
<!-- Node5 -->
<g id="node5" class="node">
<title>Node5</title>
<g id="a_node5"><a xlink:href="classSynchronizer.html" target="_top" xlink:title=" ">
<polygon fill="white" stroke="black" points="0,-161.5 0,-180.5 80,-180.5 80,-161.5 0,-161.5"/>
<text text-anchor="middle" x="40" y="-168.5" font-family="Helvetica,sans-Serif" font-size="10.00">Synchronizer</text>
</a>
</g>
</g>
<!-- Node5&#45;&gt;Node4 -->
<g id="edge4" class="edge">
<title>Node5&#45;&gt;Node4</title>
<path fill="none" stroke="midnightblue" d="M89.83,-160.4C107.83,-156.49 127.55,-152.21 142.93,-148.87"/>
<polygon fill="midnightblue" stroke="midnightblue" points="89.08,-156.98 80.05,-162.52 90.57,-163.82 89.08,-156.98"/>
</g>
<!-- Node12 -->
<g id="node12" class="node">
<title>Node12</title>
<g id="a_node12"><a xlink:href="classSynchronizerEdge.html" target="_top" xlink:title=" ">
<polygon fill="white" stroke="black" points="119,-190.5 119,-209.5 223,-209.5 223,-190.5 119,-190.5"/>
<text text-anchor="middle" x="171" y="-197.5" font-family="Helvetica,sans-Serif" font-size="10.00">SynchronizerEdge</text>
</a>
</g>
</g>
<!-- Node5&#45;&gt;Node12 -->
<g id="edge16" class="edge">
<title>Node5&#45;&gt;Node12</title>
<path fill="none" stroke="midnightblue" d="M90.16,-182.05C102.45,-184.81 115.54,-187.76 127.48,-190.44"/>
<polygon fill="midnightblue" stroke="midnightblue" points="90.58,-178.56 80.05,-179.78 89.04,-185.39 90.58,-178.56"/>
</g>
<!-- Node6 -->
<g id="node6" class="node">
<title>Node6</title>
<g id="a_node6"><a xlink:href="classSynchronizerVector.html" target="_top" xlink:title=" ">
<polygon fill="white" stroke="black" points="116,-57.5 116,-76.5 226,-76.5 226,-57.5 116,-57.5"/>
<text text-anchor="middle" x="171" y="-64.5" font-family="Helvetica,sans-Serif" font-size="10.00">SynchronizerVector</text>
</a>
</g>
</g>
<!-- Node6&#45;&gt;Node3 -->
<g id="edge5" class="edge">
<title>Node6&#45;&gt;Node3</title>
<path fill="none" stroke="midnightblue" d="M206.63,-53.8C234.08,-43.33 271.79,-28.95 296.4,-19.57"/>
<polygon fill="midnightblue" stroke="midnightblue" points="205.12,-50.63 197.02,-57.46 207.61,-57.17 205.12,-50.63"/>
</g>
<!-- Node6&#45;&gt;Node7 -->
<g id="edge8" class="edge">
<title>Node6&#45;&gt;Node7</title>
<path fill="none" stroke="midnightblue" d="M236.4,-75.18C245.02,-76.28 253.83,-77.4 262.35,-78.48"/>
<polygon fill="midnightblue" stroke="midnightblue" points="236.76,-71.7 226.4,-73.91 235.87,-78.65 236.76,-71.7"/>
</g>
<!-- Node11 -->
<g id="node11" class="node">
<title>Node11</title>
<g id="a_node11"><a xlink:href="classIprog7SeriesCore.html" target="_top" xlink:title=" ">
<polygon fill="white" stroke="black" points="272.5,-190.5 272.5,-209.5 372.5,-209.5 372.5,-190.5 272.5,-190.5"/>
<text text-anchor="middle" x="322.5" y="-197.5" font-family="Helvetica,sans-Serif" font-size="10.00">Iprog7SeriesCore</text>
</a>
</g>
</g>
<!-- Node6&#45;&gt;Node11 -->
<g id="edge14" class="edge">
<title>Node6&#45;&gt;Node11</title>
<path fill="none" stroke="midnightblue" d="M190.37,-83.34C221.79,-111.29 284.94,-167.48 310.44,-190.16"/>
<polygon fill="midnightblue" stroke="midnightblue" points="192.55,-80.6 182.75,-76.57 187.9,-85.83 192.55,-80.6"/>
</g>
<!-- Node6&#45;&gt;Node13 -->
<g id="edge22" class="edge">
<title>Node6&#45;&gt;Node13</title>
<path fill="none" stroke="midnightblue" d="M236.23,-57.1C278.85,-52.9 335.47,-51.95 383,-67 398.16,-71.8 433.71,-99.43 452.26,-114.39"/>
<polygon fill="midnightblue" stroke="midnightblue" points="235.83,-53.62 226.26,-58.16 236.58,-60.58 235.83,-53.62"/>
</g>
<!-- Node7&#45;&gt;Node2 -->
<g id="edge6" class="edge">
<title>Node7&#45;&gt;Node2</title>
<path fill="none" stroke="midnightblue" d="M392.91,-76.61C405.71,-74.88 418.55,-73.15 429.73,-71.63"/>
<polygon fill="midnightblue" stroke="midnightblue" points="392.12,-73.19 382.68,-78 393.06,-80.13 392.12,-73.19"/>
</g>
<!-- Node8 -->
<g id="node8" class="node">
<title>Node8</title>
<g id="a_node8"><a xlink:href="classDS2411Core.html" target="_top" xlink:title=" ">
<polygon fill="white" stroke="black" points="547,-95.5 547,-114.5 624,-114.5 624,-95.5 547,-95.5"/>
<text text-anchor="middle" x="585.5" y="-102.5" font-family="Helvetica,sans-Serif" font-size="10.00">DS2411Core</text>
</a>
</g>
</g>
<!-- Node8&#45;&gt;Node1 -->
<g id="edge9" class="edge">
<title>Node8&#45;&gt;Node1</title>
<path fill="none" stroke="midnightblue" d="M634.05,-105C642.71,-105 651.56,-105 659.69,-105"/>
<polygon fill="midnightblue" stroke="midnightblue" points="634.05,-101.5 624.05,-105 634.05,-108.5 634.05,-101.5"/>
</g>
<!-- Node9 -->
<g id="node9" class="node">
<title>Node9</title>
<g id="a_node9"><a xlink:href="classIprog.html" target="_top" xlink:title=" ">
<polygon fill="white" stroke="black" points="565,-133.5 565,-152.5 606,-152.5 606,-133.5 565,-133.5"/>
<text text-anchor="middle" x="585.5" y="-140.5" font-family="Helvetica,sans-Serif" font-size="10.00">Iprog</text>
</a>
</g>
</g>
<!-- Node9&#45;&gt;Node1 -->
<g id="edge10" class="edge">
<title>Node9&#45;&gt;Node1</title>
<path fill="none" stroke="midnightblue" d="M615.83,-132.53C631.64,-126.89 651,-119.99 666.37,-114.5"/>
<polygon fill="midnightblue" stroke="midnightblue" points="614.28,-129.37 606.03,-136.03 616.63,-135.97 614.28,-129.37"/>
</g>
<!-- Node10&#45;&gt;Node9 -->
<g id="edge11" class="edge">
<title>Node10&#45;&gt;Node9</title>
<path fill="none" stroke="midnightblue" d="M514.08,-154.29C531.88,-151.44 551.06,-148.36 564.91,-146.14"/>
<polygon fill="midnightblue" stroke="midnightblue" points="513.14,-150.9 503.82,-155.94 514.25,-157.81 513.14,-150.9"/>
</g>
<!-- Node11&#45;&gt;Node10 -->
<g id="edge13" class="edge">
<title>Node11&#45;&gt;Node10</title>
<path fill="none" stroke="midnightblue" d="M368.78,-187.75C388.14,-182.52 410.42,-176.49 428.56,-171.59"/>
<polygon fill="midnightblue" stroke="midnightblue" points="367.69,-184.42 358.95,-190.41 369.52,-191.18 367.69,-184.42"/>
</g>
<!-- Node12&#45;&gt;Node11 -->
<g id="edge15" class="edge">
<title>Node12&#45;&gt;Node11</title>
<path fill="none" stroke="midnightblue" d="M233.33,-200C246.37,-200 259.96,-200 272.47,-200"/>
<polygon fill="midnightblue" stroke="midnightblue" points="233.03,-196.5 223.03,-200 233.03,-203.5 233.03,-196.5"/>
</g>
<!-- Node12&#45;&gt;Node14 -->
<g id="edge21" class="edge">
<title>Node12&#45;&gt;Node14</title>
<path fill="none" stroke="midnightblue" d="M219.65,-212.11C240.47,-217.4 264.54,-223.52 284.05,-228.48"/>
<polygon fill="midnightblue" stroke="midnightblue" points="220.28,-208.66 209.73,-209.59 218.55,-215.44 220.28,-208.66"/>
</g>
<!-- Node13&#45;&gt;Node9 -->
<g id="edge17" class="edge">
<title>Node13&#45;&gt;Node9</title>
<path fill="none" stroke="midnightblue" d="M521.3,-132.87C536.9,-135.37 552.88,-137.93 564.86,-139.85"/>
<polygon fill="midnightblue" stroke="midnightblue" points="521.57,-129.36 511.14,-131.24 520.46,-136.28 521.57,-129.36"/>
</g>
<!-- Node14&#45;&gt;Node13 -->
<g id="edge19" class="edge">
<title>Node14&#45;&gt;Node13</title>
<path fill="none" stroke="midnightblue" d="M376.81,-223.63C378.99,-222.22 381.07,-220.69 383,-219 411.13,-194.39 392.01,-168.86 419,-143 422.92,-139.25 427.69,-136.18 432.64,-133.7"/>
<polygon fill="midnightblue" stroke="midnightblue" points="375.1,-220.57 367.94,-228.38 378.41,-226.74 375.1,-220.57"/>
</g>
<!-- Node20 -->
<g id="node20" class="node">
<title>Node20</title>
<g id="a_node20"><a xlink:href="classSugoiTopTb.html" target="_top" xlink:title=" ">
<polygon fill="white" stroke="black" points="951,-19.5 951,-38.5 1023,-38.5 1023,-19.5 951,-19.5"/>
<text text-anchor="middle" x="987" y="-26.5" font-family="Helvetica,sans-Serif" font-size="10.00">SugoiTopTb</text>
</a>
</g>
</g>
<!-- Node19&#45;&gt;Node20 -->
<g id="edge28" class="edge">
<title>Node19&#45;&gt;Node20</title>
<path fill="none" stroke="midnightblue" d="M925.5,-29C934.39,-29 943.04,-29 950.88,-29"/>
<polygon fill="midnightblue" stroke="midnightblue" points="925.38,-25.5 915.38,-29 925.38,-32.5 925.38,-25.5"/>
</g>
</g>
</svg>
