<?xml version="1.0" encoding="UTF-8" standalone="no"?>
<!DOCTYPE svg PUBLIC "-//W3C//DTD SVG 1.1//EN"
 "http://www.w3.org/Graphics/SVG/1.1/DTD/svg11.dtd">
<!-- Generated by graphviz version 2.43.0 (0)
 -->
<!-- Title: Crc32Parallel Pages: 1 -->
<svg width="917pt" height="434pt"
 viewBox="0.00 0.00 917.00 434.00" xmlns="http://www.w3.org/2000/svg" xmlns:xlink="http://www.w3.org/1999/xlink">
<g id="graph0" class="graph" transform="scale(1 1) rotate(0) translate(4 430)">
<title>Crc32Parallel</title>
<!-- Node1 -->
<g id="Node000001" class="node">
<title>Node1</title>
<g id="a_Node000001"><a xlink:title=" ">
<polygon fill="#999999" stroke="#666666" points="80,-130 0,-130 0,-111 80,-111 80,-130"/>
<text text-anchor="middle" x="40" y="-118" font-family="Helvetica,sans-Serif" font-size="10.00">Crc32Parallel</text>
</a>
</g>
</g>
<!-- Node2 -->
<g id="Node000002" class="node">
<title>Node2</title>
<g id="a_Node000002"><a xlink:href="classAxiStreamDepacketizer2.html" target="_top" xlink:title=" ">
<polygon fill="white" stroke="#bfbfbf" points="253,-204 116,-204 116,-185 253,-185 253,-204"/>
<text text-anchor="middle" x="184.5" y="-192" font-family="Helvetica,sans-Serif" font-size="10.00">AxiStreamDepacketizer2</text>
</a>
</g>
</g>
<!-- Node1&#45;&gt;Node2 -->
<g id="edge1_Node000001_Node000002" class="edge">
<title>Node1&#45;&gt;Node2</title>
<g id="a_edge1_Node000001_Node000002"><a xlink:title=" ">
<path fill="none" stroke="#63b8ff" d="M58.98,-137.05C73.42,-149.52 94.73,-166.2 116,-176.5 122.88,-179.83 130.46,-182.61 137.98,-184.91"/>
<polygon fill="#63b8ff" stroke="#63b8ff" points="61.13,-134.28 51.32,-130.26 56.49,-139.51 61.13,-134.28"/>
</a>
</g>
</g>
<!-- Node36 -->
<g id="Node000036" class="node">
<title>Node36</title>
<g id="a_Node000036"><a xlink:href="classAxiStreamPacketizer2.html" target="_top" xlink:title=" ">
<polygon fill="white" stroke="#bfbfbf" points="246,-241 123,-241 123,-222 246,-222 246,-241"/>
<text text-anchor="middle" x="184.5" y="-229" font-family="Helvetica,sans-Serif" font-size="10.00">AxiStreamPacketizer2</text>
</a>
</g>
</g>
<!-- Node1&#45;&gt;Node36 -->
<g id="edge34_Node000001_Node000036" class="edge">
<title>Node1&#45;&gt;Node36</title>
<g id="a_edge34_Node000001_Node000036"><a xlink:title=" ">
<path fill="none" stroke="#63b8ff" d="M51.06,-139.05C63.52,-160.25 86.72,-194.47 116,-213.5 121.29,-216.94 127.21,-219.72 133.3,-221.97"/>
<polygon fill="#63b8ff" stroke="#63b8ff" points="53.95,-137.04 45.97,-130.07 47.86,-140.5 53.95,-137.04"/>
</a>
</g>
</g>
<!-- Node39 -->
<g id="Node000039" class="node">
<title>Node39</title>
<g id="a_Node000039"><a xlink:href="classPgp4TxLiteProtocol.html" target="_top" xlink:title=" ">
<polygon fill="white" stroke="#bfbfbf" points="239.5,-167 129.5,-167 129.5,-148 239.5,-148 239.5,-167"/>
<text text-anchor="middle" x="184.5" y="-155" font-family="Helvetica,sans-Serif" font-size="10.00">Pgp4TxLiteProtocol</text>
</a>
</g>
</g>
<!-- Node1&#45;&gt;Node39 -->
<g id="edge42_Node000001_Node000039" class="edge">
<title>Node1&#45;&gt;Node39</title>
<g id="a_edge42_Node000001_Node000039"><a xlink:title=" ">
<path fill="none" stroke="#63b8ff" d="M87.42,-132.55C106.54,-137.52 128.4,-143.19 146.43,-147.88"/>
<polygon fill="#63b8ff" stroke="#63b8ff" points="88.26,-129.15 77.7,-130.03 86.5,-135.93 88.26,-129.15"/>
</a>
</g>
</g>
<!-- Node42 -->
<g id="Node000042" class="node">
<title>Node42</title>
<g id="a_Node000042"><a xlink:href="classEthMacRxImportGmii.html" target="_top" xlink:title=" ">
<polygon fill="white" stroke="#bfbfbf" points="245,-130 124,-130 124,-111 245,-111 245,-130"/>
<text text-anchor="middle" x="184.5" y="-118" font-family="Helvetica,sans-Serif" font-size="10.00">EthMacRxImportGmii</text>
</a>
</g>
</g>
<!-- Node1&#45;&gt;Node42 -->
<g id="edge47_Node000001_Node000042" class="edge">
<title>Node1&#45;&gt;Node42</title>
<g id="a_edge47_Node000001_Node000042"><a xlink:title=" ">
<path fill="none" stroke="#63b8ff" d="M90.37,-120.5C101.13,-120.5 112.63,-120.5 123.75,-120.5"/>
<polygon fill="#63b8ff" stroke="#63b8ff" points="90.32,-117 80.32,-120.5 90.32,-124 90.32,-117"/>
</a>
</g>
</g>
<!-- Node79 -->
<g id="Node000079" class="node">
<title>Node79</title>
<g id="a_Node000079"><a xlink:href="classEthMacRxImportXgmii.html" target="_top" xlink:title=" ">
<polygon fill="white" stroke="#bfbfbf" points="247.5,-93 121.5,-93 121.5,-74 247.5,-74 247.5,-93"/>
<text text-anchor="middle" x="184.5" y="-81" font-family="Helvetica,sans-Serif" font-size="10.00">EthMacRxImportXgmii</text>
</a>
</g>
</g>
<!-- Node1&#45;&gt;Node79 -->
<g id="edge51_Node000001_Node000079" class="edge">
<title>Node1&#45;&gt;Node79</title>
<g id="a_edge51_Node000001_Node000079"><a xlink:title=" ">
<path fill="none" stroke="#63b8ff" d="M87.42,-108.45C106.54,-103.48 128.4,-97.81 146.43,-93.12"/>
<polygon fill="#63b8ff" stroke="#63b8ff" points="86.5,-105.07 77.7,-110.97 88.26,-111.85 86.5,-105.07"/>
</a>
</g>
</g>
<!-- Node80 -->
<g id="Node000080" class="node">
<title>Node80</title>
<g id="a_Node000080"><a xlink:href="classEthMacTxExportGmii.html" target="_top" xlink:title=" ">
<polygon fill="white" stroke="#bfbfbf" points="244,-56 125,-56 125,-37 244,-37 244,-56"/>
<text text-anchor="middle" x="184.5" y="-44" font-family="Helvetica,sans-Serif" font-size="10.00">EthMacTxExportGmii</text>
</a>
</g>
</g>
<!-- Node1&#45;&gt;Node80 -->
<g id="edge53_Node000001_Node000080" class="edge">
<title>Node1&#45;&gt;Node80</title>
<g id="a_edge53_Node000001_Node000080"><a xlink:title=" ">
<path fill="none" stroke="#63b8ff" d="M58.98,-103.95C73.42,-91.48 94.73,-74.8 116,-64.5 122.88,-61.17 130.46,-58.39 137.98,-56.09"/>
<polygon fill="#63b8ff" stroke="#63b8ff" points="56.49,-101.49 51.32,-110.74 61.13,-106.72 56.49,-101.49"/>
</a>
</g>
</g>
<!-- Node83 -->
<g id="Node000083" class="node">
<title>Node83</title>
<g id="a_Node000083"><a xlink:href="classEthMacTxExportXgmii.html" target="_top" xlink:title=" ">
<polygon fill="white" stroke="#bfbfbf" points="247,-19 122,-19 122,0 247,0 247,-19"/>
<text text-anchor="middle" x="184.5" y="-7" font-family="Helvetica,sans-Serif" font-size="10.00">EthMacTxExportXgmii</text>
</a>
</g>
</g>
<!-- Node1&#45;&gt;Node83 -->
<g id="edge57_Node000001_Node000083" class="edge">
<title>Node1&#45;&gt;Node83</title>
<g id="a_edge57_Node000001_Node000083"><a xlink:title=" ">
<path fill="none" stroke="#63b8ff" d="M51.06,-101.95C63.52,-80.75 86.72,-46.53 116,-27.5 121.29,-24.06 127.21,-21.28 133.3,-19.03"/>
<polygon fill="#63b8ff" stroke="#63b8ff" points="47.86,-100.5 45.97,-110.93 53.95,-103.96 47.86,-100.5"/>
</a>
</g>
</g>
<!-- Node3 -->
<g id="Node000003" class="node">
<title>Node3</title>
<g id="a_Node000003"><a xlink:href="classAxiStreamPacketizer2Tb.html" target="_top" xlink:title=" ">
<polygon fill="white" stroke="#bfbfbf" points="424,-204 289,-204 289,-185 424,-185 424,-204"/>
<text text-anchor="middle" x="356.5" y="-192" font-family="Helvetica,sans-Serif" font-size="10.00">AxiStreamPacketizer2Tb</text>
</a>
</g>
</g>
<!-- Node2&#45;&gt;Node3 -->
<g id="edge2_Node000002_Node000003" class="edge">
<title>Node2&#45;&gt;Node3</title>
<g id="a_edge2_Node000002_Node000003"><a xlink:title=" ">
<path fill="none" stroke="#63b8ff" d="M263.19,-194.5C271.77,-194.5 280.46,-194.5 288.89,-194.5"/>
<polygon fill="#63b8ff" stroke="#63b8ff" points="263.18,-191 253.18,-194.5 263.18,-198 263.18,-191"/>
</a>
</g>
</g>
<!-- Node4 -->
<g id="Node000004" class="node">
<title>Node4</title>
<g id="a_Node000004"><a xlink:href="classPgp3Rx.html" target="_top" xlink:title=" ">
<polygon fill="white" stroke="#bfbfbf" points="383,-333 330,-333 330,-314 383,-314 383,-333"/>
<text text-anchor="middle" x="356.5" y="-321" font-family="Helvetica,sans-Serif" font-size="10.00">Pgp3Rx</text>
</a>
</g>
</g>
<!-- Node2&#45;&gt;Node4 -->
<g id="edge3_Node000002_Node000004" class="edge">
<title>Node2&#45;&gt;Node4</title>
<g id="a_edge3_Node000002_Node000004"><a xlink:title=" ">
<path fill="none" stroke="#63b8ff" d="M246.48,-208.82C248.77,-210.24 250.96,-211.79 253,-213.5 281.06,-236.96 263.71,-261.08 289,-287.5 300.35,-299.35 316.47,-308.21 330,-314.18"/>
<polygon fill="#63b8ff" stroke="#63b8ff" points="247.7,-205.51 237.21,-204.03 244.48,-211.73 247.7,-205.51"/>
</a>
</g>
</g>
<!-- Node16 -->
<g id="Node000016" class="node">
<title>Node16</title>
<g id="a_Node000016"><a xlink:href="classPgp4Rx.html" target="_top" xlink:title=" ">
<polygon fill="white" stroke="#bfbfbf" points="383,-167 330,-167 330,-148 383,-148 383,-167"/>
<text text-anchor="middle" x="356.5" y="-155" font-family="Helvetica,sans-Serif" font-size="10.00">Pgp4Rx</text>
</a>
</g>
</g>
<!-- Node2&#45;&gt;Node16 -->
<g id="edge14_Node000002_Node000016" class="edge">
<title>Node2&#45;&gt;Node16</title>
<g id="a_edge14_Node000002_Node000016"><a xlink:title=" ">
<path fill="none" stroke="#63b8ff" d="M239.28,-182.79C269.54,-176.21 305.93,-168.29 329.84,-163.09"/>
<polygon fill="#63b8ff" stroke="#63b8ff" points="238.31,-179.42 229.28,-184.97 239.79,-186.26 238.31,-179.42"/>
</a>
</g>
</g>
<!-- Node32 -->
<g id="Node000032" class="node">
<title>Node32</title>
<g id="a_Node000032"><a xlink:href="classRssiCoreWrapper.html" target="_top" xlink:title=" ">
<polygon fill="white" stroke="#bfbfbf" points="407,-278 306,-278 306,-259 407,-259 407,-278"/>
<text text-anchor="middle" x="356.5" y="-266" font-family="Helvetica,sans-Serif" font-size="10.00">RssiCoreWrapper</text>
</a>
</g>
</g>
<!-- Node2&#45;&gt;Node32 -->
<g id="edge30_Node000002_Node000032" class="edge">
<title>Node2&#45;&gt;Node32</title>
<g id="a_edge30_Node000002_Node000032"><a xlink:title=" ">
<path fill="none" stroke="#63b8ff" d="M241.42,-207.68C245.44,-209.4 249.35,-211.33 253,-213.5 272.72,-225.23 269.22,-238.87 289,-250.5 294.77,-253.9 301.2,-256.67 307.73,-258.93"/>
<polygon fill="#63b8ff" stroke="#63b8ff" points="242.46,-204.33 231.86,-204.05 239.97,-210.87 242.46,-204.33"/>
</a>
</g>
</g>
<!-- Node5 -->
<g id="Node000005" class="node">
<title>Node5</title>
<g id="a_Node000005"><a xlink:href="classPgp3Core.html" target="_top" xlink:title=" ">
<polygon fill="white" stroke="#bfbfbf" points="547.5,-352 484.5,-352 484.5,-333 547.5,-333 547.5,-352"/>
<text text-anchor="middle" x="516" y="-340" font-family="Helvetica,sans-Serif" font-size="10.00">Pgp3Core</text>
</a>
</g>
</g>
<!-- Node4&#45;&gt;Node5 -->
<g id="edge4_Node000004_Node000005" class="edge">
<title>Node4&#45;&gt;Node5</title>
<g id="a_edge4_Node000004_Node000005"><a xlink:title=" ">
<path fill="none" stroke="#63b8ff" d="M393.16,-327.8C420.69,-331.12 458.36,-335.67 484.5,-338.82"/>
<polygon fill="#63b8ff" stroke="#63b8ff" points="393.5,-324.32 383.16,-326.59 392.66,-331.27 393.5,-324.32"/>
</a>
</g>
</g>
<!-- Node15 -->
<g id="Node000015" class="node">
<title>Node15</title>
<g id="a_Node000015"><a xlink:href="classPgp3Tb.html" target="_top" xlink:title=" ">
<polygon fill="white" stroke="#bfbfbf" points="542.5,-389 489.5,-389 489.5,-370 542.5,-370 542.5,-389"/>
<text text-anchor="middle" x="516" y="-377" font-family="Helvetica,sans-Serif" font-size="10.00">Pgp3Tb</text>
</a>
</g>
</g>
<!-- Node4&#45;&gt;Node15 -->
<g id="edge13_Node000004_Node000015" class="edge">
<title>Node4&#45;&gt;Node15</title>
<g id="a_edge13_Node000004_Node000015"><a xlink:title=" ">
<path fill="none" stroke="#63b8ff" d="M392.99,-332.17C403.15,-335.05 414.14,-338.54 424,-342.5 440.79,-349.24 443.34,-354.44 460,-361.5 469.44,-365.5 480.08,-369.17 489.48,-372.14"/>
<polygon fill="#63b8ff" stroke="#63b8ff" points="393.74,-328.75 383.18,-329.51 391.91,-335.51 393.74,-328.75"/>
</a>
</g>
</g>
<!-- Node6 -->
<g id="Node000006" class="node">
<title>Node6</title>
<g id="a_Node000006"><a xlink:href="classPgp3GthUs.html" target="_top" xlink:title=" ">
<polygon fill="white" stroke="#bfbfbf" points="715.5,-315 644.5,-315 644.5,-296 715.5,-296 715.5,-315"/>
<text text-anchor="middle" x="680" y="-303" font-family="Helvetica,sans-Serif" font-size="10.00">Pgp3GthUs</text>
</a>
</g>
</g>
<!-- Node5&#45;&gt;Node6 -->
<g id="edge5_Node000005_Node000006" class="edge">
<title>Node5&#45;&gt;Node6</title>
<g id="a_edge5_Node000005_Node000006"><a xlink:title=" ">
<path fill="none" stroke="#63b8ff" d="M557.67,-333.21C584.37,-327.11 618.93,-319.22 644.33,-313.42"/>
<polygon fill="#63b8ff" stroke="#63b8ff" points="556.82,-329.81 547.85,-335.45 558.38,-336.64 556.82,-329.81"/>
</a>
</g>
</g>
<!-- Node8 -->
<g id="Node000008" class="node">
<title>Node8</title>
<g id="a_Node000008"><a xlink:href="classPgp3Gtp7.html" target="_top" xlink:title=" ">
<polygon fill="white" stroke="#bfbfbf" points="712,-426 648,-426 648,-407 712,-407 712,-426"/>
<text text-anchor="middle" x="680" y="-414" font-family="Helvetica,sans-Serif" font-size="10.00">Pgp3Gtp7</text>
</a>
</g>
</g>
<!-- Node5&#45;&gt;Node8 -->
<g id="edge7_Node000005_Node000008" class="edge">
<title>Node5&#45;&gt;Node8</title>
<g id="a_edge7_Node000005_Node000008"><a xlink:title=" ">
<path fill="none" stroke="#63b8ff" d="M556.98,-353.81C562.21,-356 567.36,-358.55 572,-361.5 591.37,-373.8 588.13,-387.03 608,-398.5 620.11,-405.5 634.93,-409.8 647.88,-412.44"/>
<polygon fill="#63b8ff" stroke="#63b8ff" points="558.15,-350.51 547.56,-350.25 555.68,-357.06 558.15,-350.51"/>
</a>
</g>
</g>
<!-- Node11 -->
<g id="Node000011" class="node">
<title>Node11</title>
<g id="a_Node000011"><a xlink:href="classPgp3Gtx7.html" target="_top" xlink:title=" ">
<polygon fill="white" stroke="#bfbfbf" points="712,-389 648,-389 648,-370 712,-370 712,-389"/>
<text text-anchor="middle" x="680" y="-377" font-family="Helvetica,sans-Serif" font-size="10.00">Pgp3Gtx7</text>
</a>
</g>
</g>
<!-- Node5&#45;&gt;Node11 -->
<g id="edge9_Node000005_Node000011" class="edge">
<title>Node5&#45;&gt;Node11</title>
<g id="a_edge9_Node000005_Node000011"><a xlink:title=" ">
<path fill="none" stroke="#63b8ff" d="M557.74,-351.81C585.74,-358.2 622.35,-366.56 647.99,-372.42"/>
<polygon fill="#63b8ff" stroke="#63b8ff" points="558.38,-348.36 547.85,-349.55 556.82,-355.19 558.38,-348.36"/>
</a>
</g>
</g>
<!-- Node13 -->
<g id="Node000013" class="node">
<title>Node13</title>
<g id="a_Node000013"><a xlink:href="classPgp3GtyUs.html" target="_top" xlink:title=" ">
<polygon fill="white" stroke="#bfbfbf" points="715.5,-352 644.5,-352 644.5,-333 715.5,-333 715.5,-352"/>
<text text-anchor="middle" x="680" y="-340" font-family="Helvetica,sans-Serif" font-size="10.00">Pgp3GtyUs</text>
</a>
</g>
</g>
<!-- Node5&#45;&gt;Node13 -->
<g id="edge11_Node000005_Node000013" class="edge">
<title>Node5&#45;&gt;Node13</title>
<g id="a_edge11_Node000005_Node000013"><a xlink:title=" ">
<path fill="none" stroke="#63b8ff" d="M558.02,-342.5C584.68,-342.5 619.04,-342.5 644.33,-342.5"/>
<polygon fill="#63b8ff" stroke="#63b8ff" points="557.85,-339 547.85,-342.5 557.85,-346 557.85,-339"/>
</a>
</g>
</g>
<!-- Node7 -->
<g id="Node000007" class="node">
<title>Node7</title>
<g id="a_Node000007"><a xlink:href="classPgp3GthUsWrapper.html" target="_top" xlink:title=" ">
<polygon fill="white" stroke="#bfbfbf" points="904.5,-315 792.5,-315 792.5,-296 904.5,-296 904.5,-315"/>
<text text-anchor="middle" x="848.5" y="-303" font-family="Helvetica,sans-Serif" font-size="10.00">Pgp3GthUsWrapper</text>
</a>
</g>
</g>
<!-- Node6&#45;&gt;Node7 -->
<g id="edge6_Node000006_Node000007" class="edge">
<title>Node6&#45;&gt;Node7</title>
<g id="a_edge6_Node000006_Node000007"><a xlink:title=" ">
<path fill="none" stroke="#63b8ff" d="M726.18,-305.5C746.58,-305.5 770.86,-305.5 792.33,-305.5"/>
<polygon fill="#63b8ff" stroke="#63b8ff" points="725.9,-302 715.9,-305.5 725.9,-309 725.9,-302"/>
</a>
</g>
</g>
<!-- Node9 -->
<g id="Node000009" class="node">
<title>Node9</title>
<g id="a_Node000009"><a xlink:href="classPgp3Gtp7Wrapper.html" target="_top" xlink:title=" ">
<polygon fill="white" stroke="orangered" points="901,-426 796,-426 796,-407 901,-407 901,-426"/>
<text text-anchor="middle" x="848.5" y="-414" font-family="Helvetica,sans-Serif" font-size="10.00">Pgp3Gtp7Wrapper</text>
</a>
</g>
</g>
<!-- Node8&#45;&gt;Node9 -->
<g id="edge8_Node000008_Node000009" class="edge">
<title>Node8&#45;&gt;Node9</title>
<g id="a_edge8_Node000008_Node000009"><a xlink:title=" ">
<path fill="none" stroke="#63b8ff" d="M722.41,-416.5C744.59,-416.5 772.12,-416.5 795.7,-416.5"/>
<polygon fill="#63b8ff" stroke="#63b8ff" points="722.32,-413 712.32,-416.5 722.32,-420 722.32,-413"/>
</a>
</g>
</g>
<!-- Node12 -->
<g id="Node000012" class="node">
<title>Node12</title>
<g id="a_Node000012"><a xlink:href="classPgp3Gtx7Wrapper.html" target="_top" xlink:title=" ">
<polygon fill="white" stroke="#bfbfbf" points="901,-389 796,-389 796,-370 901,-370 901,-389"/>
<text text-anchor="middle" x="848.5" y="-377" font-family="Helvetica,sans-Serif" font-size="10.00">Pgp3Gtx7Wrapper</text>
</a>
</g>
</g>
<!-- Node11&#45;&gt;Node12 -->
<g id="edge10_Node000011_Node000012" class="edge">
<title>Node11&#45;&gt;Node12</title>
<g id="a_edge10_Node000011_Node000012"><a xlink:title=" ">
<path fill="none" stroke="#63b8ff" d="M722.41,-379.5C744.59,-379.5 772.12,-379.5 795.7,-379.5"/>
<polygon fill="#63b8ff" stroke="#63b8ff" points="722.32,-376 712.32,-379.5 722.32,-383 722.32,-376"/>
</a>
</g>
</g>
<!-- Node14 -->
<g id="Node000014" class="node">
<title>Node14</title>
<g id="a_Node000014"><a xlink:href="classPgp3GtyUsWrapper.html" target="_top" xlink:title=" ">
<polygon fill="white" stroke="#bfbfbf" points="904.5,-352 792.5,-352 792.5,-333 904.5,-333 904.5,-352"/>
<text text-anchor="middle" x="848.5" y="-340" font-family="Helvetica,sans-Serif" font-size="10.00">Pgp3GtyUsWrapper</text>
</a>
</g>
</g>
<!-- Node13&#45;&gt;Node14 -->
<g id="edge12_Node000013_Node000014" class="edge">
<title>Node13&#45;&gt;Node14</title>
<g id="a_edge12_Node000013_Node000014"><a xlink:title=" ">
<path fill="none" stroke="#63b8ff" d="M726.18,-342.5C746.58,-342.5 770.86,-342.5 792.33,-342.5"/>
<polygon fill="#63b8ff" stroke="#63b8ff" points="725.9,-339 715.9,-342.5 725.9,-346 725.9,-339"/>
</a>
</g>
</g>
<!-- Node17 -->
<g id="Node000017" class="node">
<title>Node17</title>
<g id="a_Node000017"><a xlink:href="classPgp4Core.html" target="_top" xlink:title=" ">
<polygon fill="white" stroke="#bfbfbf" points="547.5,-204 484.5,-204 484.5,-185 547.5,-185 547.5,-204"/>
<text text-anchor="middle" x="516" y="-192" font-family="Helvetica,sans-Serif" font-size="10.00">Pgp4Core</text>
</a>
</g>
</g>
<!-- Node16&#45;&gt;Node17 -->
<g id="edge15_Node000016_Node000017" class="edge">
<title>Node16&#45;&gt;Node17</title>
<g id="a_edge15_Node000016_Node000017"><a xlink:title=" ">
<path fill="none" stroke="#63b8ff" d="M393.16,-165.88C420.69,-172.34 458.36,-181.19 484.5,-187.33"/>
<polygon fill="#63b8ff" stroke="#63b8ff" points="393.69,-162.41 383.16,-163.53 392.09,-169.22 393.69,-162.41"/>
</a>
</g>
</g>
<!-- Node27 -->
<g id="Node000027" class="node">
<title>Node27</title>
<g id="a_Node000027"><a xlink:href="classPgp4CoreLite.html" target="_top" xlink:title=" ">
<polygon fill="white" stroke="#bfbfbf" points="556.5,-130 475.5,-130 475.5,-111 556.5,-111 556.5,-130"/>
<text text-anchor="middle" x="516" y="-118" font-family="Helvetica,sans-Serif" font-size="10.00">Pgp4CoreLite</text>
</a>
</g>
</g>
<!-- Node16&#45;&gt;Node27 -->
<g id="edge25_Node000016_Node000027" class="edge">
<title>Node16&#45;&gt;Node27</title>
<g id="a_edge25_Node000016_Node000027"><a xlink:title=" ">
<path fill="none" stroke="#63b8ff" d="M393.12,-149.13C417.62,-143.38 450.18,-135.73 475.49,-129.78"/>
<polygon fill="#63b8ff" stroke="#63b8ff" points="392.09,-145.78 383.16,-151.47 393.69,-152.59 392.09,-145.78"/>
</a>
</g>
</g>
<!-- Node31 -->
<g id="Node000031" class="node">
<title>Node31</title>
<g id="a_Node000031"><a xlink:href="classPgp4TxLiteTb.html" target="_top" xlink:title=" ">
<polygon fill="white" stroke="#bfbfbf" points="557.5,-167 474.5,-167 474.5,-148 557.5,-148 557.5,-167"/>
<text text-anchor="middle" x="516" y="-155" font-family="Helvetica,sans-Serif" font-size="10.00">Pgp4TxLiteTb</text>
</a>
</g>
</g>
<!-- Node16&#45;&gt;Node31 -->
<g id="edge29_Node000016_Node000031" class="edge">
<title>Node16&#45;&gt;Node31</title>
<g id="a_edge29_Node000016_Node000031"><a xlink:title=" ">
<path fill="none" stroke="#63b8ff" d="M393.3,-157.5C417.39,-157.5 449.21,-157.5 474.27,-157.5"/>
<polygon fill="#63b8ff" stroke="#63b8ff" points="393.16,-154 383.16,-157.5 393.16,-161 393.16,-154"/>
</a>
</g>
</g>
<!-- Node18 -->
<g id="Node000018" class="node">
<title>Node18</title>
<g id="a_Node000018"><a xlink:href="classPgp4Tb.html" target="_top" xlink:title=" ">
<polygon fill="white" stroke="#bfbfbf" points="706.5,-167 653.5,-167 653.5,-148 706.5,-148 706.5,-167"/>
<text text-anchor="middle" x="680" y="-155" font-family="Helvetica,sans-Serif" font-size="10.00">Pgp4Tb</text>
</a>
</g>
</g>
<!-- Node17&#45;&gt;Node18 -->
<g id="edge16_Node000017_Node000018" class="edge">
<title>Node17&#45;&gt;Node18</title>
<g id="a_edge16_Node000017_Node000018"><a xlink:title=" ">
<path fill="none" stroke="#63b8ff" d="M557.62,-185.22C587.64,-178.37 627.61,-169.24 653.33,-163.36"/>
<polygon fill="#63b8ff" stroke="#63b8ff" points="556.82,-181.81 547.85,-187.45 558.38,-188.64 556.82,-181.81"/>
</a>
</g>
</g>
<!-- Node19 -->
<g id="Node000019" class="node">
<title>Node19</title>
<g id="a_Node000019"><a xlink:href="classPgp4GthUs.html" target="_top" xlink:title=" ">
<polygon fill="white" stroke="#bfbfbf" points="715.5,-130 644.5,-130 644.5,-111 715.5,-111 715.5,-130"/>
<text text-anchor="middle" x="680" y="-118" font-family="Helvetica,sans-Serif" font-size="10.00">Pgp4GthUs</text>
</a>
</g>
</g>
<!-- Node17&#45;&gt;Node19 -->
<g id="edge17_Node000017_Node000019" class="edge">
<title>Node17&#45;&gt;Node19</title>
<g id="a_edge17_Node000017_Node000019"><a xlink:title=" ">
<path fill="none" stroke="#63b8ff" d="M556.98,-183.97C562.22,-181.87 567.36,-179.39 572,-176.5 591.47,-164.36 588.21,-151.1 608,-139.5 619.01,-133.05 632.25,-128.74 644.3,-125.88"/>
<polygon fill="#63b8ff" stroke="#63b8ff" points="555.78,-180.68 547.56,-187.37 558.16,-187.27 555.78,-180.68"/>
</a>
</g>
</g>
<!-- Node21 -->
<g id="Node000021" class="node">
<title>Node21</title>
<g id="a_Node000021"><a xlink:href="classPgp4Gtp7.html" target="_top" xlink:title=" ">
<polygon fill="white" stroke="#bfbfbf" points="712,-278 648,-278 648,-259 712,-259 712,-278"/>
<text text-anchor="middle" x="680" y="-266" font-family="Helvetica,sans-Serif" font-size="10.00">Pgp4Gtp7</text>
</a>
</g>
</g>
<!-- Node17&#45;&gt;Node21 -->
<g id="edge19_Node000017_Node000021" class="edge">
<title>Node17&#45;&gt;Node21</title>
<g id="a_edge19_Node000017_Node000021"><a xlink:title=" ">
<path fill="none" stroke="#63b8ff" d="M556.98,-205.81C562.21,-208 567.36,-210.55 572,-213.5 591.37,-225.8 588.13,-239.03 608,-250.5 620.11,-257.5 634.93,-261.8 647.88,-264.44"/>
<polygon fill="#63b8ff" stroke="#63b8ff" points="558.15,-202.51 547.56,-202.25 555.68,-209.06 558.15,-202.51"/>
</a>
</g>
</g>
<!-- Node23 -->
<g id="Node000023" class="node">
<title>Node23</title>
<g id="a_Node000023"><a xlink:href="classPgp4Gtx7.html" target="_top" xlink:title=" ">
<polygon fill="white" stroke="#bfbfbf" points="712,-241 648,-241 648,-222 712,-222 712,-241"/>
<text text-anchor="middle" x="680" y="-229" font-family="Helvetica,sans-Serif" font-size="10.00">Pgp4Gtx7</text>
</a>
</g>
</g>
<!-- Node17&#45;&gt;Node23 -->
<g id="edge21_Node000017_Node000023" class="edge">
<title>Node17&#45;&gt;Node23</title>
<g id="a_edge21_Node000017_Node000023"><a xlink:title=" ">
<path fill="none" stroke="#63b8ff" d="M557.74,-203.81C585.74,-210.2 622.35,-218.56 647.99,-224.42"/>
<polygon fill="#63b8ff" stroke="#63b8ff" points="558.38,-200.36 547.85,-201.55 556.82,-207.19 558.38,-200.36"/>
</a>
</g>
</g>
<!-- Node25 -->
<g id="Node000025" class="node">
<title>Node25</title>
<g id="a_Node000025"><a xlink:href="classPgp4GtyUs.html" target="_top" xlink:title=" ">
<polygon fill="white" stroke="#bfbfbf" points="715.5,-204 644.5,-204 644.5,-185 715.5,-185 715.5,-204"/>
<text text-anchor="middle" x="680" y="-192" font-family="Helvetica,sans-Serif" font-size="10.00">Pgp4GtyUs</text>
</a>
</g>
</g>
<!-- Node17&#45;&gt;Node25 -->
<g id="edge23_Node000017_Node000025" class="edge">
<title>Node17&#45;&gt;Node25</title>
<g id="a_edge23_Node000017_Node000025"><a xlink:title=" ">
<path fill="none" stroke="#63b8ff" d="M558.02,-194.5C584.68,-194.5 619.04,-194.5 644.33,-194.5"/>
<polygon fill="#63b8ff" stroke="#63b8ff" points="557.85,-191 547.85,-194.5 557.85,-198 557.85,-191"/>
</a>
</g>
</g>
<!-- Node20 -->
<g id="Node000020" class="node">
<title>Node20</title>
<g id="a_Node000020"><a xlink:href="classPgp4GthUsWrapper.html" target="_top" xlink:title=" ">
<polygon fill="white" stroke="#bfbfbf" points="904.5,-130 792.5,-130 792.5,-111 904.5,-111 904.5,-130"/>
<text text-anchor="middle" x="848.5" y="-118" font-family="Helvetica,sans-Serif" font-size="10.00">Pgp4GthUsWrapper</text>
</a>
</g>
</g>
<!-- Node19&#45;&gt;Node20 -->
<g id="edge18_Node000019_Node000020" class="edge">
<title>Node19&#45;&gt;Node20</title>
<g id="a_edge18_Node000019_Node000020"><a xlink:title=" ">
<path fill="none" stroke="#63b8ff" d="M726.18,-120.5C746.58,-120.5 770.86,-120.5 792.33,-120.5"/>
<polygon fill="#63b8ff" stroke="#63b8ff" points="725.9,-117 715.9,-120.5 725.9,-124 725.9,-117"/>
</a>
</g>
</g>
<!-- Node22 -->
<g id="Node000022" class="node">
<title>Node22</title>
<g id="a_Node000022"><a xlink:href="classPgp4Gtp7Wrapper.html" target="_top" xlink:title=" ">
<polygon fill="white" stroke="#bfbfbf" points="901,-278 796,-278 796,-259 901,-259 901,-278"/>
<text text-anchor="middle" x="848.5" y="-266" font-family="Helvetica,sans-Serif" font-size="10.00">Pgp4Gtp7Wrapper</text>
</a>
</g>
</g>
<!-- Node21&#45;&gt;Node22 -->
<g id="edge20_Node000021_Node000022" class="edge">
<title>Node21&#45;&gt;Node22</title>
<g id="a_edge20_Node000021_Node000022"><a xlink:title=" ">
<path fill="none" stroke="#63b8ff" d="M722.41,-268.5C744.59,-268.5 772.12,-268.5 795.7,-268.5"/>
<polygon fill="#63b8ff" stroke="#63b8ff" points="722.32,-265 712.32,-268.5 722.32,-272 722.32,-265"/>
</a>
</g>
</g>
<!-- Node24 -->
<g id="Node000024" class="node">
<title>Node24</title>
<g id="a_Node000024"><a xlink:href="classPgp4Gtx7Wrapper.html" target="_top" xlink:title=" ">
<polygon fill="white" stroke="#bfbfbf" points="901,-241 796,-241 796,-222 901,-222 901,-241"/>
<text text-anchor="middle" x="848.5" y="-229" font-family="Helvetica,sans-Serif" font-size="10.00">Pgp4Gtx7Wrapper</text>
</a>
</g>
</g>
<!-- Node23&#45;&gt;Node24 -->
<g id="edge22_Node000023_Node000024" class="edge">
<title>Node23&#45;&gt;Node24</title>
<g id="a_edge22_Node000023_Node000024"><a xlink:title=" ">
<path fill="none" stroke="#63b8ff" d="M722.41,-231.5C744.59,-231.5 772.12,-231.5 795.7,-231.5"/>
<polygon fill="#63b8ff" stroke="#63b8ff" points="722.32,-228 712.32,-231.5 722.32,-235 722.32,-228"/>
</a>
</g>
</g>
<!-- Node26 -->
<g id="Node000026" class="node">
<title>Node26</title>
<g id="a_Node000026"><a xlink:href="classPgp4GtyUsWrapper.html" target="_top" xlink:title=" ">
<polygon fill="white" stroke="#bfbfbf" points="904.5,-204 792.5,-204 792.5,-185 904.5,-185 904.5,-204"/>
<text text-anchor="middle" x="848.5" y="-192" font-family="Helvetica,sans-Serif" font-size="10.00">Pgp4GtyUsWrapper</text>
</a>
</g>
</g>
<!-- Node25&#45;&gt;Node26 -->
<g id="edge24_Node000025_Node000026" class="edge">
<title>Node25&#45;&gt;Node26</title>
<g id="a_edge24_Node000025_Node000026"><a xlink:title=" ">
<path fill="none" stroke="#63b8ff" d="M726.18,-194.5C746.58,-194.5 770.86,-194.5 792.33,-194.5"/>
<polygon fill="#63b8ff" stroke="#63b8ff" points="725.9,-191 715.9,-194.5 725.9,-198 725.9,-191"/>
</a>
</g>
</g>
<!-- Node28 -->
<g id="Node000028" class="node">
<title>Node28</title>
<g id="a_Node000028"><a xlink:href="classPgp4CoreLiteTb.html" target="_top" xlink:title=" ">
<polygon fill="white" stroke="#bfbfbf" points="726.5,-93 633.5,-93 633.5,-74 726.5,-74 726.5,-93"/>
<text text-anchor="middle" x="680" y="-81" font-family="Helvetica,sans-Serif" font-size="10.00">Pgp4CoreLiteTb</text>
</a>
</g>
</g>
<!-- Node27&#45;&gt;Node28 -->
<g id="edge26_Node000027_Node000028" class="edge">
<title>Node27&#45;&gt;Node28</title>
<g id="a_edge26_Node000027_Node000028"><a xlink:title=" ">
<path fill="none" stroke="#63b8ff" d="M566.4,-109.22C589.05,-104.05 615.6,-97.98 637.23,-93.04"/>
<polygon fill="#63b8ff" stroke="#63b8ff" points="565.6,-105.81 556.63,-111.45 567.16,-112.63 565.6,-105.81"/>
</a>
</g>
</g>
<!-- Node29 -->
<g id="Node000029" class="node">
<title>Node29</title>
<g id="a_Node000029"><a xlink:href="classPgp4RxLiteLowSpeedLane.html" target="_top" xlink:title=" ">
<polygon fill="white" stroke="#bfbfbf" points="752,-56 608,-56 608,-37 752,-37 752,-56"/>
<text text-anchor="middle" x="680" y="-44" font-family="Helvetica,sans-Serif" font-size="10.00">Pgp4RxLiteLowSpeedLane</text>
</a>
</g>
</g>
<!-- Node27&#45;&gt;Node29 -->
<g id="edge27_Node000027_Node000029" class="edge">
<title>Node27&#45;&gt;Node29</title>
<g id="a_edge27_Node000027_Node000029"><a xlink:title=" ">
<path fill="none" stroke="#63b8ff" d="M564.22,-106.83C566.92,-105.5 569.53,-104.06 572,-102.5 591.66,-90.06 587.93,-76.27 608,-64.5 613.81,-61.09 620.26,-58.32 626.84,-56.07"/>
<polygon fill="#63b8ff" stroke="#63b8ff" points="562.6,-103.71 554.82,-110.9 565.38,-110.13 562.6,-103.71"/>
</a>
</g>
</g>
<!-- Node30 -->
<g id="Node000030" class="node">
<title>Node30</title>
<g id="a_Node000030"><a xlink:href="classPgp4LiteRxLowSpeed.html" target="_top" xlink:title=" ">
<polygon fill="white" stroke="#bfbfbf" points="909,-56 788,-56 788,-37 909,-37 909,-56"/>
<text text-anchor="middle" x="848.5" y="-44" font-family="Helvetica,sans-Serif" font-size="10.00">Pgp4LiteRxLowSpeed</text>
</a>
</g>
</g>
<!-- Node29&#45;&gt;Node30 -->
<g id="edge28_Node000029_Node000030" class="edge">
<title>Node29&#45;&gt;Node30</title>
<g id="a_edge28_Node000029_Node000030"><a xlink:title=" ">
<path fill="none" stroke="#63b8ff" d="M762.22,-46.5C770.88,-46.5 779.56,-46.5 787.9,-46.5"/>
<polygon fill="#63b8ff" stroke="#63b8ff" points="762.09,-43 752.09,-46.5 762.09,-50 762.09,-43"/>
</a>
</g>
</g>
<!-- Node33 -->
<g id="Node000033" class="node">
<title>Node33</title>
<g id="a_Node000033"><a xlink:href="classRssiCoreTb.html" target="_top" xlink:title=" ">
<polygon fill="white" stroke="#bfbfbf" points="551.5,-315 480.5,-315 480.5,-296 551.5,-296 551.5,-315"/>
<text text-anchor="middle" x="516" y="-303" font-family="Helvetica,sans-Serif" font-size="10.00">RssiCoreTb</text>
</a>
</g>
</g>
<!-- Node32&#45;&gt;Node33 -->
<g id="edge31_Node000032_Node000033" class="edge">
<title>Node32&#45;&gt;Node33</title>
<g id="a_edge31_Node000032_Node000033"><a xlink:title=" ">
<path fill="none" stroke="#63b8ff" d="M407.93,-280.35C431.6,-285.91 459.2,-292.39 480.45,-297.38"/>
<polygon fill="#63b8ff" stroke="#63b8ff" points="408.6,-276.91 398.06,-278.03 406.99,-283.72 408.6,-276.91"/>
</a>
</g>
</g>
<!-- Node34 -->
<g id="Node000034" class="node">
<title>Node34</title>
<g id="a_Node000034"><a xlink:href="classRssiInterleaveTb.html" target="_top" xlink:title=" ">
<polygon fill="white" stroke="#bfbfbf" points="565,-278 467,-278 467,-259 565,-259 565,-278"/>
<text text-anchor="middle" x="516" y="-266" font-family="Helvetica,sans-Serif" font-size="10.00">RssiInterleaveTb</text>
</a>
</g>
</g>
<!-- Node32&#45;&gt;Node34 -->
<g id="edge32_Node000032_Node000034" class="edge">
<title>Node32&#45;&gt;Node34</title>
<g id="a_edge32_Node000032_Node000034"><a xlink:title=" ">
<path fill="none" stroke="#63b8ff" d="M417.34,-268.5C433.7,-268.5 451.22,-268.5 466.84,-268.5"/>
<polygon fill="#63b8ff" stroke="#63b8ff" points="417.33,-265 407.33,-268.5 417.33,-272 417.33,-265"/>
</a>
</g>
</g>
<!-- Node35 -->
<g id="Node000035" class="node">
<title>Node35</title>
<g id="a_Node000035"><a xlink:href="classRawEthFramerTb.html" target="_top" xlink:title=" ">
<polygon fill="white" stroke="#bfbfbf" points="566,-241 466,-241 466,-222 566,-222 566,-241"/>
<text text-anchor="middle" x="516" y="-229" font-family="Helvetica,sans-Serif" font-size="10.00">RawEthFramerTb</text>
</a>
</g>
</g>
<!-- Node32&#45;&gt;Node35 -->
<g id="edge33_Node000032_Node000035" class="edge">
<title>Node32&#45;&gt;Node35</title>
<g id="a_edge33_Node000032_Node000035"><a xlink:title=" ">
<path fill="none" stroke="#63b8ff" d="M407.97,-256.64C429.41,-251.61 454.06,-245.82 474.3,-241.06"/>
<polygon fill="#63b8ff" stroke="#63b8ff" points="406.99,-253.28 398.06,-258.97 408.6,-260.09 406.99,-253.28"/>
</a>
</g>
</g>
<!-- Node36&#45;&gt;Node3 -->
<g id="edge35_Node000036_Node000003" class="edge">
<title>Node36&#45;&gt;Node3</title>
<g id="a_edge35_Node000036_Node000003"><a xlink:title=" ">
<path fill="none" stroke="#63b8ff" d="M239.35,-219.78C262.63,-214.71 289.53,-208.86 311.57,-204.06"/>
<polygon fill="#63b8ff" stroke="#63b8ff" points="238.31,-216.42 229.28,-221.97 239.79,-223.26 238.31,-216.42"/>
</a>
</g>
</g>
<!-- Node36&#45;&gt;Node32 -->
<g id="edge41_Node000036_Node000032" class="edge">
<title>Node36&#45;&gt;Node32</title>
<g id="a_edge41_Node000036_Node000032"><a xlink:title=" ">
<path fill="none" stroke="#63b8ff" d="M239.35,-243.22C262.63,-248.29 289.53,-254.14 311.57,-258.94"/>
<polygon fill="#63b8ff" stroke="#63b8ff" points="239.79,-239.74 229.28,-241.03 238.31,-246.58 239.79,-239.74"/>
</a>
</g>
</g>
<!-- Node37 -->
<g id="Node000037" class="node">
<title>Node37</title>
<g id="a_Node000037"><a xlink:href="classPgp3Tx.html" target="_top" xlink:title=" ">
<polygon fill="white" stroke="#bfbfbf" points="383,-370 330,-370 330,-351 383,-351 383,-370"/>
<text text-anchor="middle" x="356.5" y="-358" font-family="Helvetica,sans-Serif" font-size="10.00">Pgp3Tx</text>
</a>
</g>
</g>
<!-- Node36&#45;&gt;Node37 -->
<g id="edge36_Node000036_Node000037" class="edge">
<title>Node36&#45;&gt;Node37</title>
<g id="a_edge36_Node000036_Node000037"><a xlink:title=" ">
<path fill="none" stroke="#63b8ff" d="M197.47,-249.67C214.74,-274.41 248.98,-318.38 289,-342.5 301.4,-349.97 316.93,-354.4 329.87,-356.99"/>
<polygon fill="#63b8ff" stroke="#63b8ff" points="200.23,-247.5 191.71,-241.21 194.45,-251.44 200.23,-247.5"/>
</a>
</g>
</g>
<!-- Node38 -->
<g id="Node000038" class="node">
<title>Node38</title>
<g id="a_Node000038"><a xlink:href="classPgp4Tx.html" target="_top" xlink:title=" ">
<polygon fill="white" stroke="#bfbfbf" points="383,-241 330,-241 330,-222 383,-222 383,-241"/>
<text text-anchor="middle" x="356.5" y="-229" font-family="Helvetica,sans-Serif" font-size="10.00">Pgp4Tx</text>
</a>
</g>
</g>
<!-- Node36&#45;&gt;Node38 -->
<g id="edge39_Node000036_Node000038" class="edge">
<title>Node36&#45;&gt;Node38</title>
<g id="a_edge39_Node000036_Node000038"><a xlink:title=" ">
<path fill="none" stroke="#63b8ff" d="M256.58,-231.5C282.46,-231.5 310.11,-231.5 329.57,-231.5"/>
<polygon fill="#63b8ff" stroke="#63b8ff" points="256.39,-228 246.39,-231.5 256.39,-235 256.39,-228"/>
</a>
</g>
</g>
<!-- Node37&#45;&gt;Node5 -->
<g id="edge37_Node000037_Node000005" class="edge">
<title>Node37&#45;&gt;Node5</title>
<g id="a_edge37_Node000037_Node000005"><a xlink:title=" ">
<path fill="none" stroke="#63b8ff" d="M393.16,-356.42C420.69,-353.28 458.36,-348.97 484.5,-345.99"/>
<polygon fill="#63b8ff" stroke="#63b8ff" points="392.69,-352.96 383.16,-357.57 393.49,-359.91 392.69,-352.96"/>
</a>
</g>
</g>
<!-- Node37&#45;&gt;Node15 -->
<g id="edge38_Node000037_Node000015" class="edge">
<title>Node37&#45;&gt;Node15</title>
<g id="a_edge38_Node000037_Node000015"><a xlink:title=" ">
<path fill="none" stroke="#63b8ff" d="M393.38,-364.83C422.64,-368.36 463.27,-373.26 489.36,-376.41"/>
<polygon fill="#63b8ff" stroke="#63b8ff" points="393.5,-361.32 383.16,-363.59 392.66,-368.27 393.5,-361.32"/>
</a>
</g>
</g>
<!-- Node38&#45;&gt;Node17 -->
<g id="edge40_Node000038_Node000017" class="edge">
<title>Node38&#45;&gt;Node17</title>
<g id="a_edge40_Node000038_Node000017"><a xlink:title=" ">
<path fill="none" stroke="#63b8ff" d="M393.16,-223.12C420.69,-216.66 458.36,-207.81 484.5,-201.67"/>
<polygon fill="#63b8ff" stroke="#63b8ff" points="392.09,-219.78 383.16,-225.47 393.69,-226.59 392.09,-219.78"/>
</a>
</g>
</g>
<!-- Node40 -->
<g id="Node000040" class="node">
<title>Node40</title>
<g id="a_Node000040"><a xlink:href="classPgp4TxLite.html" target="_top" xlink:title=" ">
<polygon fill="white" stroke="#bfbfbf" points="392,-130 321,-130 321,-111 392,-111 392,-130"/>
<text text-anchor="middle" x="356.5" y="-118" font-family="Helvetica,sans-Serif" font-size="10.00">Pgp4TxLite</text>
</a>
</g>
</g>
<!-- Node39&#45;&gt;Node40 -->
<g id="edge43_Node000039_Node000040" class="edge">
<title>Node39&#45;&gt;Node40</title>
<g id="a_edge43_Node000039_Node000040"><a xlink:title=" ">
<path fill="none" stroke="#63b8ff" d="M239.26,-145.8C265.99,-139.98 297.51,-133.12 320.98,-128.01"/>
<polygon fill="#63b8ff" stroke="#63b8ff" points="238.31,-142.42 229.28,-147.97 239.79,-149.26 238.31,-142.42"/>
</a>
</g>
</g>
<!-- Node40&#45;&gt;Node27 -->
<g id="edge44_Node000040_Node000027" class="edge">
<title>Node40&#45;&gt;Node27</title>
<g id="a_edge44_Node000040_Node000027"><a xlink:title=" ">
<path fill="none" stroke="#63b8ff" d="M402.25,-120.5C425.24,-120.5 453.01,-120.5 475.24,-120.5"/>
<polygon fill="#63b8ff" stroke="#63b8ff" points="402.06,-117 392.06,-120.5 402.06,-124 402.06,-117"/>
</a>
</g>
</g>
<!-- Node40&#45;&gt;Node31 -->
<g id="edge45_Node000040_Node000031" class="edge">
<title>Node40&#45;&gt;Node31</title>
<g id="a_edge45_Node000040_Node000031"><a xlink:title=" ">
<path fill="none" stroke="#63b8ff" d="M401.83,-130.91C424.61,-136.26 452.17,-142.74 474.39,-147.96"/>
<polygon fill="#63b8ff" stroke="#63b8ff" points="402.6,-127.5 392.06,-128.62 401,-134.31 402.6,-127.5"/>
</a>
</g>
</g>
<!-- Node41 -->
<g id="Node000041" class="node">
<title>Node41</title>
<g id="a_Node000041"><a xlink:href="classPgp4TxLiteWrapper.html" target="_top" xlink:title=" ">
<polygon fill="white" stroke="#bfbfbf" points="572,-93 460,-93 460,-74 572,-74 572,-93"/>
<text text-anchor="middle" x="516" y="-81" font-family="Helvetica,sans-Serif" font-size="10.00">Pgp4TxLiteWrapper</text>
</a>
</g>
</g>
<!-- Node40&#45;&gt;Node41 -->
<g id="edge46_Node000040_Node000041" class="edge">
<title>Node40&#45;&gt;Node41</title>
<g id="a_edge46_Node000040_Node000041"><a xlink:title=" ">
<path fill="none" stroke="#63b8ff" d="M401.83,-110.09C424.61,-104.74 452.17,-98.26 474.39,-93.04"/>
<polygon fill="#63b8ff" stroke="#63b8ff" points="401,-106.69 392.06,-112.38 402.6,-113.5 401,-106.69"/>
</a>
</g>
</g>
<!-- Node43 -->
<g id="Node000043" class="node">
<title>Node43</title>
<g id="a_Node000043"><a xlink:href="classEthMacRxImport.html" target="_top" xlink:title=" ">
<polygon fill="white" stroke="#bfbfbf" points="405.5,-93 307.5,-93 307.5,-74 405.5,-74 405.5,-93"/>
<text text-anchor="middle" x="356.5" y="-81" font-family="Helvetica,sans-Serif" font-size="10.00">EthMacRxImport</text>
</a>
</g>
</g>
<!-- Node42&#45;&gt;Node43 -->
<g id="edge48_Node000042_Node000043" class="edge">
<title>Node42&#45;&gt;Node43</title>
<g id="a_edge48_Node000042_Node000043"><a xlink:title=" ">
<path fill="none" stroke="#63b8ff" d="M239.35,-108.78C262.63,-103.71 289.53,-97.86 311.57,-93.06"/>
<polygon fill="#63b8ff" stroke="#63b8ff" points="238.31,-105.42 229.28,-110.97 239.79,-112.26 238.31,-105.42"/>
</a>
</g>
</g>
<!-- Node44 -->
<g id="Node000044" class="node">
<title>Node44</title>
<g id="a_Node000044"><a xlink:href="classEthMacRx.html" target="_top" xlink:title=" ">
<polygon fill="white" stroke="#bfbfbf" points="548.5,-56 483.5,-56 483.5,-37 548.5,-37 548.5,-56"/>
<text text-anchor="middle" x="516" y="-44" font-family="Helvetica,sans-Serif" font-size="10.00">EthMacRx</text>
</a>
</g>
</g>
<!-- Node43&#45;&gt;Node44 -->
<g id="edge49_Node000043_Node000044" class="edge">
<title>Node43&#45;&gt;Node44</title>
<g id="a_edge49_Node000043_Node000044"><a xlink:title=" ">
<path fill="none" stroke="#63b8ff" d="M408,-71.64C432.71,-65.83 461.7,-59.02 483.27,-53.95"/>
<polygon fill="#63b8ff" stroke="#63b8ff" points="406.99,-68.28 398.06,-73.97 408.6,-75.09 406.99,-68.28"/>
</a>
</g>
</g>
<!-- Node45 -->
<g id="Node000045" class="node">
<title>Node45</title>
<g id="a_Node000045"><a xlink:href="classEthMacTop.html" target="_top" xlink:title=" ">
<polygon fill="white" stroke="orangered" points="714.5,-19 645.5,-19 645.5,0 714.5,0 714.5,-19"/>
<text text-anchor="middle" x="680" y="-7" font-family="Helvetica,sans-Serif" font-size="10.00">EthMacTop</text>
</a>
</g>
</g>
<!-- Node44&#45;&gt;Node45 -->
<g id="edge50_Node000044_Node000045" class="edge">
<title>Node44&#45;&gt;Node45</title>
<g id="a_edge50_Node000044_Node000045"><a xlink:title=" ">
<path fill="none" stroke="#63b8ff" d="M558.52,-37.02C585.42,-30.87 620.01,-22.97 645.23,-17.21"/>
<polygon fill="#63b8ff" stroke="#63b8ff" points="557.59,-33.64 548.62,-39.28 559.15,-40.46 557.59,-33.64"/>
</a>
</g>
</g>
<!-- Node79&#45;&gt;Node43 -->
<g id="edge52_Node000079_Node000043" class="edge">
<title>Node79&#45;&gt;Node43</title>
<g id="a_edge52_Node000079_Node000043"><a xlink:title=" ">
<path fill="none" stroke="#63b8ff" d="M258.08,-83.5C274.71,-83.5 291.98,-83.5 307.28,-83.5"/>
<polygon fill="#63b8ff" stroke="#63b8ff" points="257.84,-80 247.84,-83.5 257.84,-87 257.84,-80"/>
</a>
</g>
</g>
<!-- Node81 -->
<g id="Node000081" class="node">
<title>Node81</title>
<g id="a_Node000081"><a xlink:href="classEthMacTxExport.html" target="_top" xlink:title=" ">
<polygon fill="white" stroke="#bfbfbf" points="404.5,-19 308.5,-19 308.5,0 404.5,0 404.5,-19"/>
<text text-anchor="middle" x="356.5" y="-7" font-family="Helvetica,sans-Serif" font-size="10.00">EthMacTxExport</text>
</a>
</g>
</g>
<!-- Node80&#45;&gt;Node81 -->
<g id="edge54_Node000080_Node000081" class="edge">
<title>Node80&#45;&gt;Node81</title>
<g id="a_edge54_Node000080_Node000081"><a xlink:title=" ">
<path fill="none" stroke="#63b8ff" d="M239.35,-34.78C262.63,-29.71 289.53,-23.86 311.57,-19.06"/>
<polygon fill="#63b8ff" stroke="#63b8ff" points="238.31,-31.42 229.28,-36.97 239.79,-38.26 238.31,-31.42"/>
</a>
</g>
</g>
<!-- Node82 -->
<g id="Node000082" class="node">
<title>Node82</title>
<g id="a_Node000082"><a xlink:href="classEthMacTx.html" target="_top" xlink:title=" ">
<polygon fill="white" stroke="#bfbfbf" points="548.5,-19 483.5,-19 483.5,0 548.5,0 548.5,-19"/>
<text text-anchor="middle" x="516" y="-7" font-family="Helvetica,sans-Serif" font-size="10.00">EthMacTx</text>
</a>
</g>
</g>
<!-- Node81&#45;&gt;Node82 -->
<g id="edge55_Node000081_Node000082" class="edge">
<title>Node81&#45;&gt;Node82</title>
<g id="a_edge55_Node000081_Node000082"><a xlink:title=" ">
<path fill="none" stroke="#63b8ff" d="M414.8,-9.5C437.88,-9.5 463.62,-9.5 483.23,-9.5"/>
<polygon fill="#63b8ff" stroke="#63b8ff" points="414.76,-6 404.76,-9.5 414.76,-13 414.76,-6"/>
</a>
</g>
</g>
<!-- Node82&#45;&gt;Node45 -->
<g id="edge56_Node000082_Node000045" class="edge">
<title>Node82&#45;&gt;Node45</title>
<g id="a_edge56_Node000082_Node000045"><a xlink:title=" ">
<path fill="none" stroke="#63b8ff" d="M558.87,-9.5C585.72,-9.5 620.12,-9.5 645.23,-9.5"/>
<polygon fill="#63b8ff" stroke="#63b8ff" points="558.62,-6 548.62,-9.5 558.62,-13 558.62,-6"/>
</a>
</g>
</g>
<!-- Node83&#45;&gt;Node81 -->
<g id="edge58_Node000083_Node000081" class="edge">
<title>Node83&#45;&gt;Node81</title>
<g id="a_edge58_Node000083_Node000081"><a xlink:title=" ">
<path fill="none" stroke="#63b8ff" d="M257.39,-9.5C274.62,-9.5 292.58,-9.5 308.35,-9.5"/>
<polygon fill="#63b8ff" stroke="#63b8ff" points="257.35,-6 247.35,-9.5 257.35,-13 257.35,-6"/>
</a>
</g>
</g>
</g>
</svg>
