<?xml version="1.0" encoding="UTF-8" standalone="no"?>
<!DOCTYPE svg PUBLIC "-//W3C//DTD SVG 1.1//EN"
 "http://www.w3.org/Graphics/SVG/1.1/DTD/svg11.dtd">
<!-- Generated by graphviz version 2.43.0 (0)
 -->
<!-- Title: CoaXPressOverFiberBridge Pages: 1 -->
<!--zoomable 310 -->
<svg id="main" version="1.1" xmlns="http://www.w3.org/2000/svg" xmlns:xlink="http://www.w3.org/1999/xlink" xml:space="preserve" onload="init(evt)">
<style type="text/css"><![CDATA[
.edge:hover path { stroke: red; }
.edge:hover polygon { stroke: red; fill: red; }
]]></style>
<script type="text/javascript"><![CDATA[
var edges = document.getElementsByTagName('g');
if (edges && edges.length) {
  for (var i=0;i<edges.length;i++) {
    if (edges[i].id.substr(0,4)=='edge') {
      edges[i].setAttribute('class','edge');
    }
  }
}
]]></script>
        <defs>
                <circle id="rim" cx="0" cy="0" r="7"/>
                <circle id="rim2" cx="0" cy="0" r="3.5"/>
                <g id="zoomPlus">
                        <use xlink:href="#rim" fill="#404040">
                                <set attributeName="fill" to="#808080" begin="zoomplus.mouseover" end="zoomplus.mouseout"/>
                        </use>
                        <path d="M-4,0h8M0,-4v8" fill="none" stroke="white" stroke-width="1.5" pointer-events="none"/>
                </g>
                <g id="zoomMin">
                        <use xlink:href="#rim" fill="#404040">
                                <set attributeName="fill" to="#808080" begin="zoomminus.mouseover" end="zoomminus.mouseout"/>
                        </use>
                        <path d="M-4,0h8" fill="none" stroke="white" stroke-width="1.5" pointer-events="none"/>
                </g>
                <g id="dirArrow">
                        <path fill="none" stroke="white" stroke-width="1.5" d="M0,-3.0v7 M-2.5,-0.5L0,-3.0L2.5,-0.5"/>
                </g>
               <g id="resetDef">
                       <use xlink:href="#rim2" fill="#404040">
                               <set attributeName="fill" to="#808080" begin="reset.mouseover" end="reset.mouseout"/>
                       </use>
               </g>
        </defs>

<script type="text/javascript">
var viewWidth = 775;
var viewHeight = 310;
var sectionId = 'dynsection-1';
</script>
<script xlink:href="svgpan.js"/>
<svg id="graph" class="graph">
<g id="viewport">
<title>CoaXPressOverFiberBridge</title>
<polygon fill="white" stroke="transparent" points="-4,4 -4,-306.09 771,-306.09 771,4 -4,4"/>
<!-- Node1 -->
<g id="node1" class="node">
<title>Node1</title>
<g id="a_node1"><a xlink:title=" ">
<polygon fill="#bfbfbf" stroke="black" points="620,-152.5 620,-171.5 767,-171.5 767,-152.5 620,-152.5"/>
<text text-anchor="middle" x="693.5" y="-159.5" font-family="Helvetica,sans-Serif" font-size="10.00">CoaXPressOverFiberBridge</text>
</a>
</g>
</g>
<!-- Node2 -->
<g id="node2" class="node">
<title>Node2</title>
<g id="a_node2"><a xlink:href="classAsyncGearbox.html" target="_top" xlink:title=" ">
<polygon fill="white" stroke="black" points="460.5,-190.5 460.5,-209.5 547.5,-209.5 547.5,-190.5 460.5,-190.5"/>
<text text-anchor="middle" x="504" y="-197.5" font-family="Helvetica,sans-Serif" font-size="10.00">AsyncGearbox</text>
</a>
</g>
</g>
<!-- Node2&#45;&gt;Node1 -->
<g id="edge1" class="edge">
<title>Node2&#45;&gt;Node1</title>
<path fill="none" stroke="midnightblue" d="M557.44,-189.37C585.09,-183.77 618.72,-176.95 645.51,-171.52"/>
<polygon fill="midnightblue" stroke="midnightblue" points="556.65,-185.96 547.55,-191.38 558.04,-192.82 556.65,-185.96"/>
</g>
<!-- Node3 -->
<g id="node3" class="node">
<title>Node3</title>
<g id="a_node3"><a xlink:href="classSynchronizerOneShot.html" target="_top" xlink:title=" ">
<polygon fill="white" stroke="black" points="267,-228.5 267,-247.5 388,-247.5 388,-228.5 267,-228.5"/>
<text text-anchor="middle" x="327.5" y="-235.5" font-family="Helvetica,sans-Serif" font-size="10.00">SynchronizerOneShot</text>
</a>
</g>
</g>
<!-- Node3&#45;&gt;Node2 -->
<g id="edge2" class="edge">
<title>Node3&#45;&gt;Node2</title>
<path fill="none" stroke="midnightblue" d="M382.62,-226.21C407.69,-220.75 437.04,-214.36 460.49,-209.26"/>
<polygon fill="midnightblue" stroke="midnightblue" points="381.56,-222.86 372.53,-228.41 383.05,-229.7 381.56,-222.86"/>
</g>
<!-- Node4 -->
<g id="node4" class="node">
<title>Node4</title>
<g id="a_node4"><a xlink:href="classRstSync.html" target="_top" xlink:title=" ">
<polygon fill="white" stroke="black" points="145.5,-228.5 145.5,-247.5 201.5,-247.5 201.5,-228.5 145.5,-228.5"/>
<text text-anchor="middle" x="173.5" y="-235.5" font-family="Helvetica,sans-Serif" font-size="10.00">RstSync</text>
</a>
</g>
</g>
<!-- Node4&#45;&gt;Node3 -->
<g id="edge3" class="edge">
<title>Node4&#45;&gt;Node3</title>
<path fill="none" stroke="midnightblue" d="M212.01,-238C228.52,-238 248.33,-238 266.8,-238"/>
<polygon fill="midnightblue" stroke="midnightblue" points="211.67,-234.5 201.67,-238 211.67,-241.5 211.67,-234.5"/>
</g>
<!-- Node7 -->
<g id="node7" class="node">
<title>Node7</title>
<g id="a_node7"><a xlink:href="classFifoAsync.html" target="_top" xlink:title=" ">
<polygon fill="white" stroke="black" points="295.5,-152.5 295.5,-171.5 359.5,-171.5 359.5,-152.5 295.5,-152.5"/>
<text text-anchor="middle" x="327.5" y="-159.5" font-family="Helvetica,sans-Serif" font-size="10.00">FifoAsync</text>
</a>
</g>
</g>
<!-- Node4&#45;&gt;Node7 -->
<g id="edge9" class="edge">
<title>Node4&#45;&gt;Node7</title>
<path fill="none" stroke="midnightblue" d="M207.8,-224.49C215.48,-221.2 223.58,-217.59 231,-214 259.39,-200.28 291.38,-182.33 310.19,-171.51"/>
<polygon fill="midnightblue" stroke="midnightblue" points="206.23,-221.35 198.37,-228.46 208.94,-227.8 206.23,-221.35"/>
</g>
<!-- Node5 -->
<g id="node5" class="node">
<title>Node5</title>
<g id="a_node5"><a xlink:href="classSynchronizer.html" target="_top" xlink:title=" ">
<polygon fill="white" stroke="black" points="0,-247.5 0,-266.5 80,-266.5 80,-247.5 0,-247.5"/>
<text text-anchor="middle" x="40" y="-254.5" font-family="Helvetica,sans-Serif" font-size="10.00">Synchronizer</text>
</a>
</g>
</g>
<!-- Node5&#45;&gt;Node2 -->
<g id="edge7" class="edge">
<title>Node5&#45;&gt;Node2</title>
<path fill="none" stroke="midnightblue" d="M63.53,-271.94C77.88,-280.55 97.25,-290.52 116,-295 165.71,-306.88 180.25,-301.05 231,-295 302.29,-286.5 320.53,-281.54 388,-257 424.65,-243.67 464.93,-221.93 486.75,-209.51"/>
<polygon fill="midnightblue" stroke="midnightblue" points="65.22,-268.87 54.88,-266.56 61.52,-274.81 65.22,-268.87"/>
</g>
<!-- Node5&#45;&gt;Node4 -->
<g id="edge4" class="edge">
<title>Node5&#45;&gt;Node4</title>
<path fill="none" stroke="midnightblue" d="M90.24,-249.88C108.93,-247.18 129.52,-244.21 145.43,-241.91"/>
<polygon fill="midnightblue" stroke="midnightblue" points="89.49,-246.46 80.1,-251.35 90.5,-253.38 89.49,-246.46"/>
</g>
<!-- Node6 -->
<g id="node6" class="node">
<title>Node6</title>
<g id="a_node6"><a xlink:href="classSynchronizerEdge.html" target="_top" xlink:title=" ">
<polygon fill="white" stroke="black" points="121.5,-266.5 121.5,-285.5 225.5,-285.5 225.5,-266.5 121.5,-266.5"/>
<text text-anchor="middle" x="173.5" y="-273.5" font-family="Helvetica,sans-Serif" font-size="10.00">SynchronizerEdge</text>
</a>
</g>
</g>
<!-- Node5&#45;&gt;Node6 -->
<g id="edge6" class="edge">
<title>Node5&#45;&gt;Node6</title>
<path fill="none" stroke="midnightblue" d="M90.02,-264.08C100.17,-265.55 110.89,-267.1 121.12,-268.58"/>
<polygon fill="midnightblue" stroke="midnightblue" points="90.5,-260.62 80.1,-262.65 89.49,-267.54 90.5,-260.62"/>
</g>
<!-- Node5&#45;&gt;Node7 -->
<g id="edge11" class="edge">
<title>Node5&#45;&gt;Node7</title>
<path fill="none" stroke="midnightblue" d="M66.67,-242.34C80.89,-234.65 99.06,-225.51 116,-219 177.85,-195.24 253.51,-177.33 295.19,-168.37"/>
<polygon fill="midnightblue" stroke="midnightblue" points="64.6,-239.49 57.53,-247.38 67.98,-245.62 64.6,-239.49"/>
</g>
<!-- Node6&#45;&gt;Node3 -->
<g id="edge5" class="edge">
<title>Node6&#45;&gt;Node3</title>
<path fill="none" stroke="midnightblue" d="M222.66,-263.96C243.9,-258.65 268.5,-252.5 288.42,-247.52"/>
<polygon fill="midnightblue" stroke="midnightblue" points="221.71,-260.59 212.86,-266.41 223.41,-267.38 221.71,-260.59"/>
</g>
<!-- Node7&#45;&gt;Node2 -->
<g id="edge8" class="edge">
<title>Node7&#45;&gt;Node2</title>
<path fill="none" stroke="midnightblue" d="M369.71,-170.97C396.99,-176.91 432.69,-184.69 460.27,-190.7"/>
<polygon fill="midnightblue" stroke="midnightblue" points="370.21,-167.5 359.7,-168.79 368.72,-174.34 370.21,-167.5"/>
</g>
<!-- Node8 -->
<g id="node8" class="node">
<title>Node8</title>
<g id="a_node8"><a xlink:href="classSynchronizerVector.html" target="_top" xlink:title=" ">
<polygon fill="white" stroke="black" points="118.5,-152.5 118.5,-171.5 228.5,-171.5 228.5,-152.5 118.5,-152.5"/>
<text text-anchor="middle" x="173.5" y="-159.5" font-family="Helvetica,sans-Serif" font-size="10.00">SynchronizerVector</text>
</a>
</g>
</g>
<!-- Node8&#45;&gt;Node7 -->
<g id="edge10" class="edge">
<title>Node8&#45;&gt;Node7</title>
<path fill="none" stroke="midnightblue" d="M238.63,-162C258.21,-162 278.86,-162 295.22,-162"/>
<polygon fill="midnightblue" stroke="midnightblue" points="238.52,-158.5 228.52,-162 238.52,-165.5 238.52,-158.5"/>
</g>
<!-- Node9 -->
<g id="node9" class="node">
<title>Node9</title>
<g id="a_node9"><a xlink:href="classFifoWrFsm.html" target="_top" xlink:title=" ">
<polygon fill="white" stroke="black" points="139,-114.5 139,-133.5 208,-133.5 208,-114.5 139,-114.5"/>
<text text-anchor="middle" x="173.5" y="-121.5" font-family="Helvetica,sans-Serif" font-size="10.00">FifoWrFsm</text>
</a>
</g>
</g>
<!-- Node9&#45;&gt;Node7 -->
<g id="edge12" class="edge">
<title>Node9&#45;&gt;Node7</title>
<path fill="none" stroke="midnightblue" d="M218.09,-134.9C242.81,-141.08 273.16,-148.66 295.45,-154.24"/>
<polygon fill="midnightblue" stroke="midnightblue" points="218.78,-131.46 208.23,-132.43 217.09,-138.25 218.78,-131.46"/>
</g>
<!-- Node10 -->
<g id="node10" class="node">
<title>Node10</title>
<g id="a_node10"><a xlink:href="classFifoRdFsm.html" target="_top" xlink:title=" ">
<polygon fill="white" stroke="black" points="139.5,-76.5 139.5,-95.5 207.5,-95.5 207.5,-76.5 139.5,-76.5"/>
<text text-anchor="middle" x="173.5" y="-83.5" font-family="Helvetica,sans-Serif" font-size="10.00">FifoRdFsm</text>
</a>
</g>
</g>
<!-- Node10&#45;&gt;Node7 -->
<g id="edge13" class="edge">
<title>Node10&#45;&gt;Node7</title>
<path fill="none" stroke="midnightblue" d="M217.09,-97.78C221.95,-99.85 226.7,-102.25 231,-105 250.61,-117.52 247.3,-130.63 267,-143 275.54,-148.36 285.73,-152.34 295.24,-155.22"/>
<polygon fill="midnightblue" stroke="midnightblue" points="218.3,-94.49 207.71,-94.17 215.79,-101.03 218.3,-94.49"/>
</g>
<!-- Node11 -->
<g id="node11" class="node">
<title>Node11</title>
<g id="a_node11"><a xlink:href="classSimpleDualPortRam.html" target="_top" xlink:title=" ">
<polygon fill="white" stroke="black" points="116,-38.5 116,-57.5 231,-57.5 231,-38.5 116,-38.5"/>
<text text-anchor="middle" x="173.5" y="-45.5" font-family="Helvetica,sans-Serif" font-size="10.00">SimpleDualPortRam</text>
</a>
</g>
</g>
<!-- Node11&#45;&gt;Node7 -->
<g id="edge14" class="edge">
<title>Node11&#45;&gt;Node7</title>
<path fill="none" stroke="midnightblue" d="M225.36,-62.68C227.35,-64 229.24,-65.44 231,-67 258.94,-91.82 238.87,-118.39 267,-143 274.92,-149.93 285.38,-154.33 295.32,-157.13"/>
<polygon fill="midnightblue" stroke="midnightblue" points="226.59,-59.37 216.14,-57.62 223.22,-65.5 226.59,-59.37"/>
</g>
<!-- Node12 -->
<g id="node12" class="node">
<title>Node12</title>
<g id="a_node12"><a xlink:href="classFifoOutputPipeline.html" target="_top" xlink:title=" ">
<polygon fill="white" stroke="black" points="120,-0.5 120,-19.5 227,-19.5 227,-0.5 120,-0.5"/>
<text text-anchor="middle" x="173.5" y="-7.5" font-family="Helvetica,sans-Serif" font-size="10.00">FifoOutputPipeline</text>
</a>
</g>
</g>
<!-- Node12&#45;&gt;Node7 -->
<g id="edge15" class="edge">
<title>Node12&#45;&gt;Node7</title>
<path fill="none" stroke="midnightblue" d="M226.35,-24.93C228,-26.18 229.56,-27.53 231,-29 268.22,-66.92 229.49,-105.37 267,-143 274.58,-150.6 285.19,-155.17 295.36,-157.91"/>
<polygon fill="midnightblue" stroke="midnightblue" points="227.85,-21.74 217.49,-19.51 224.2,-27.71 227.85,-21.74"/>
</g>
<!-- Node13 -->
<g id="node13" class="node">
<title>Node13</title>
<g id="a_node13"><a xlink:href="classGearbox.html" target="_top" xlink:title=" ">
<polygon fill="white" stroke="black" points="298.5,-114.5 298.5,-133.5 356.5,-133.5 356.5,-114.5 298.5,-114.5"/>
<text text-anchor="middle" x="327.5" y="-121.5" font-family="Helvetica,sans-Serif" font-size="10.00">Gearbox</text>
</a>
</g>
</g>
<!-- Node13&#45;&gt;Node2 -->
<g id="edge16" class="edge">
<title>Node13&#45;&gt;Node2</title>
<path fill="none" stroke="midnightblue" d="M366.4,-132.94C373.87,-135.56 381.42,-138.87 388,-143 407.7,-155.37 403.86,-169.36 424,-181 434.99,-187.35 448.02,-191.59 460.29,-194.41"/>
<polygon fill="midnightblue" stroke="midnightblue" points="367.31,-129.56 356.72,-129.88 365.2,-136.23 367.31,-129.56"/>
</g>
<!-- Node14 -->
<g id="node14" class="node">
<title>Node14</title>
<g id="a_node14"><a xlink:href="classCoaXPressOverFiberBridgeRx.html" target="_top" xlink:title=" ">
<polygon fill="white" stroke="black" points="424,-152.5 424,-171.5 584,-171.5 584,-152.5 424,-152.5"/>
<text text-anchor="middle" x="504" y="-159.5" font-family="Helvetica,sans-Serif" font-size="10.00">CoaXPressOverFiberBridgeRx</text>
</a>
</g>
</g>
<!-- Node14&#45;&gt;Node1 -->
<g id="edge17" class="edge">
<title>Node14&#45;&gt;Node1</title>
<path fill="none" stroke="midnightblue" d="M594.25,-162C602.81,-162 611.42,-162 619.8,-162"/>
<polygon fill="midnightblue" stroke="midnightblue" points="594.25,-158.5 584.25,-162 594.25,-165.5 594.25,-158.5"/>
</g>
<!-- Node15 -->
<g id="node15" class="node">
<title>Node15</title>
<g id="a_node15"><a xlink:href="classCoaXPressOverFiberBridgeTx.html" target="_top" xlink:title=" ">
<polygon fill="white" stroke="black" points="424.5,-114.5 424.5,-133.5 583.5,-133.5 583.5,-114.5 424.5,-114.5"/>
<text text-anchor="middle" x="504" y="-121.5" font-family="Helvetica,sans-Serif" font-size="10.00">CoaXPressOverFiberBridgeTx</text>
</a>
</g>
</g>
<!-- Node15&#45;&gt;Node1 -->
<g id="edge18" class="edge">
<title>Node15&#45;&gt;Node1</title>
<path fill="none" stroke="midnightblue" d="M562.28,-135.61C588.95,-141.01 620.28,-147.36 645.53,-152.48"/>
<polygon fill="midnightblue" stroke="midnightblue" points="562.81,-132.15 552.31,-133.59 561.42,-139.01 562.81,-132.15"/>
</g>
</g>
</svg>
        <g id="navigator" transform="translate(0 0)" fill="#404254">
                <rect fill="#f2f5e9" fill-opacity="0.5" stroke="#606060" stroke-width=".5" x="0" y="0" width="60" height="60"/>
                <use id="zoomplus" xlink:href="#zoomPlus" x="17" y="9" onmousedown="handleZoom(evt,'in')"/>
                <use id="zoomminus" xlink:href="#zoomMin" x="42" y="9" onmousedown="handleZoom(evt,'out')"/>
                <use id="reset" xlink:href="#resetDef" x="30" y="36" onmousedown="handleReset()"/>
                <g id="arrowUp" xlink:href="#dirArrow" transform="translate(30 24)" onmousedown="handlePan(0,-1)">
                  <use xlink:href="#rim" fill="#404040">
                        <set attributeName="fill" to="#808080" begin="arrowUp.mouseover" end="arrowUp.mouseout"/>
                  </use>
                  <path fill="none" stroke="white" stroke-width="1.5" d="M0,-3.0v7 M-2.5,-0.5L0,-3.0L2.5,-0.5"/>
                </g>
                <g id="arrowRight" xlink:href="#dirArrow" transform="rotate(90) translate(36 -43)" onmousedown="handlePan(1,0)">
                  <use xlink:href="#rim" fill="#404040">
                        <set attributeName="fill" to="#808080" begin="arrowRight.mouseover" end="arrowRight.mouseout"/>
                  </use>
                  <path fill="none" stroke="white" stroke-width="1.5" d="M0,-3.0v7 M-2.5,-0.5L0,-3.0L2.5,-0.5"/>
                </g>
                <g id="arrowDown" xlink:href="#dirArrow" transform="rotate(180) translate(-30 -48)" onmousedown="handlePan(0,1)">
                  <use xlink:href="#rim" fill="#404040">
                        <set attributeName="fill" to="#808080" begin="arrowDown.mouseover" end="arrowDown.mouseout"/>
                  </use>
                  <path fill="none" stroke="white" stroke-width="1.5" d="M0,-3.0v7 M-2.5,-0.5L0,-3.0L2.5,-0.5"/>
                </g>
                <g id="arrowLeft" xlink:href="#dirArrow" transform="rotate(270) translate(-36 17)" onmousedown="handlePan(-1,0)">
                  <use xlink:href="#rim" fill="#404040">
                        <set attributeName="fill" to="#808080" begin="arrowLeft.mouseover" end="arrowLeft.mouseout"/>
                  </use>
                  <path fill="none" stroke="white" stroke-width="1.5" d="M0,-3.0v7 M-2.5,-0.5L0,-3.0L2.5,-0.5"/>
                </g>
        </g>
        <svg viewBox="0 0 15 15" width="100%" height="30px" preserveAspectRatio="xMaxYMin meet">
         <g id="arrow_out" transform="scale(0.3 0.3)">
          <a xlink:href="classCoaXPressOverFiberBridge__coll__graph_org.svg" target="_base">
           <rect id="button" ry="5" rx="5" y="6" x="6" height="38" width="38"
                fill="#f2f5e9" fill-opacity="0.5" stroke="#606060" stroke-width="1.0"/>
           <path id="arrow"
             d="M 11.500037,31.436501 C 11.940474,20.09759 22.043105,11.32322 32.158766,21.979434 L 37.068811,17.246167 C 37.068811,17.246167 37.088388,32 37.088388,32 L 22.160133,31.978069 C 22.160133,31.978069 26.997745,27.140456 26.997745,27.140456 C 18.528582,18.264221 13.291696,25.230495 11.500037,31.436501 z"
             style="fill:#404040;"/>
          </a>
         </g>
        </svg>
</svg>
