<?xml version="1.0" encoding="UTF-8" standalone="no"?>
<!DOCTYPE svg PUBLIC "-//W3C//DTD SVG 1.1//EN"
 "http://www.w3.org/Graphics/SVG/1.1/DTD/svg11.dtd">
<!-- Generated by graphviz version 2.43.0 (0)
 -->
<!-- Title: Decoder8b10b Pages: 1 -->
<svg width="918pt" height="408pt"
 viewBox="0.00 0.00 918.00 408.00" xmlns="http://www.w3.org/2000/svg" xmlns:xlink="http://www.w3.org/1999/xlink">
<g id="graph0" class="graph" transform="scale(1 1) rotate(0) translate(4 404)">
<title>Decoder8b10b</title>
<polygon fill="white" stroke="transparent" points="-4,4 -4,-404 914,-404 914,4 -4,4"/>
<!-- Node1 -->
<g id="node1" class="node">
<title>Node1</title>
<g id="a_node1"><a xlink:title=" ">
<polygon fill="#bfbfbf" stroke="black" points="0,-266.5 0,-285.5 87,-285.5 87,-266.5 0,-266.5"/>
<text text-anchor="middle" x="43.5" y="-273.5" font-family="Helvetica,sans-Serif" font-size="10.00">Decoder8b10b</text>
</a>
</g>
</g>
<!-- Node2 -->
<g id="node2" class="node">
<title>Node2</title>
<g id="a_node2"><a xlink:href="classLineCode8b10bTb.html" target="_top" xlink:title=" ">
<polygon fill="white" stroke="black" points="133.5,-380.5 133.5,-399.5 237.5,-399.5 237.5,-380.5 133.5,-380.5"/>
<text text-anchor="middle" x="185.5" y="-387.5" font-family="Helvetica,sans-Serif" font-size="10.00">LineCode8b10bTb</text>
</a>
</g>
</g>
<!-- Node1&#45;&gt;Node2 -->
<g id="edge1" class="edge">
<title>Node1&#45;&gt;Node2</title>
<path fill="none" stroke="midnightblue" d="M59.24,-293.92C73.13,-313.49 95.83,-343.81 123,-362 136.84,-371.26 155.4,-376.18 168.5,-380.45"/>
<polygon fill="midnightblue" stroke="midnightblue" points="61.94,-291.67 53.32,-285.51 56.22,-295.7 61.94,-291.67"/>
</g>
<!-- Node1&#45;&gt;Node2 -->
<g id="edge21" class="edge">
<title>Node1&#45;&gt;Node2</title>
<path fill="none" stroke="midnightblue" d="M51.92,-294.88C64.12,-318.71 90.33,-358.13 123,-380 126.25,-382.18 129.76,-384.11 133.4,-385.81"/>
<polygon fill="midnightblue" stroke="midnightblue" points="55.02,-293.25 47.58,-285.71 48.7,-296.25 55.02,-293.25"/>
</g>
<!-- Node3 -->
<g id="node3" class="node">
<title>Node3</title>
<g id="a_node3"><a xlink:href="classSspDecoder8b10b.html" target="_top" xlink:title=" ">
<polygon fill="white" stroke="black" points="133.5,-342.5 133.5,-361.5 237.5,-361.5 237.5,-342.5 133.5,-342.5"/>
<text text-anchor="middle" x="185.5" y="-349.5" font-family="Helvetica,sans-Serif" font-size="10.00">SspDecoder8b10b</text>
</a>
</g>
</g>
<!-- Node1&#45;&gt;Node3 -->
<g id="edge2" class="edge">
<title>Node1&#45;&gt;Node3</title>
<path fill="none" stroke="midnightblue" d="M72.39,-291.64C86.78,-302.03 105.04,-315.01 123,-324 138.79,-331.9 158.52,-337.29 171.3,-342.37"/>
<polygon fill="midnightblue" stroke="midnightblue" points="74.13,-288.57 63.97,-285.56 70.03,-294.25 74.13,-288.57"/>
</g>
<!-- Node1&#45;&gt;Node3 -->
<g id="edge34" class="edge">
<title>Node1&#45;&gt;Node3</title>
<path fill="none" stroke="midnightblue" d="M56.78,-293.34C71.56,-308.57 97.58,-329.28 123,-342 126.3,-343.65 129.77,-345.19 133.31,-346.6"/>
<polygon fill="midnightblue" stroke="midnightblue" points="59.08,-290.66 49.8,-285.53 53.86,-295.32 59.08,-290.66"/>
</g>
<!-- Node12 -->
<g id="node12" class="node">
<title>Node12</title>
<g id="a_node12"><a xlink:href="classSugoiManagerCore.html" target="_top" xlink:title=" ">
<polygon fill="white" stroke="black" points="131,-304.5 131,-323.5 240,-323.5 240,-304.5 131,-304.5"/>
<text text-anchor="middle" x="185.5" y="-311.5" font-family="Helvetica,sans-Serif" font-size="10.00">SugoiManagerCore</text>
</a>
</g>
</g>
<!-- Node1&#45;&gt;Node12 -->
<g id="edge16" class="edge">
<title>Node1&#45;&gt;Node12</title>
<path fill="none" stroke="midnightblue" d="M97.14,-283.73C121.54,-289.81 148.94,-297.86 166.43,-304.39"/>
<polygon fill="midnightblue" stroke="midnightblue" points="97.81,-280.29 87.27,-281.33 96.16,-287.09 97.81,-280.29"/>
</g>
<!-- Node1&#45;&gt;Node12 -->
<g id="edge35" class="edge">
<title>Node1&#45;&gt;Node12</title>
<path fill="none" stroke="midnightblue" d="M72.22,-289.03C88.98,-294.72 110.92,-301.03 130.95,-306.05"/>
<polygon fill="midnightblue" stroke="midnightblue" points="73.11,-285.63 62.52,-285.59 70.77,-292.23 73.11,-285.63"/>
</g>
<!-- Node14 -->
<g id="node14" class="node">
<title>Node14</title>
<g id="a_node14"><a xlink:href="classSugoiSubordinateCore.html" target="_top" xlink:title=" ">
<polygon fill="white" stroke="black" points="123,-266.5 123,-285.5 248,-285.5 248,-266.5 123,-266.5"/>
<text text-anchor="middle" x="185.5" y="-273.5" font-family="Helvetica,sans-Serif" font-size="10.00">SugoiSubordinateCore</text>
</a>
</g>
</g>
<!-- Node1&#45;&gt;Node14 -->
<g id="edge18" class="edge">
<title>Node1&#45;&gt;Node14</title>
<path fill="none" stroke="midnightblue" d="M97.27,-269.44C105.65,-269.25 114.37,-269.2 122.93,-269.29"/>
<polygon fill="midnightblue" stroke="midnightblue" points="97.16,-265.94 87.27,-269.73 97.36,-272.93 97.16,-265.94"/>
</g>
<!-- Node1&#45;&gt;Node14 -->
<g id="edge36" class="edge">
<title>Node1&#45;&gt;Node14</title>
<path fill="none" stroke="midnightblue" d="M97.27,-282.56C105.65,-282.75 114.37,-282.8 122.93,-282.71"/>
<polygon fill="midnightblue" stroke="midnightblue" points="97.36,-279.07 87.27,-282.27 97.16,-286.06 97.36,-279.07"/>
</g>
<!-- Node16 -->
<g id="node16" class="node">
<title>Node16</title>
<g id="a_node16"><a xlink:href="classPgpParallelSimModel.html" target="_top" xlink:title=" ">
<polygon fill="white" stroke="black" points="126,-228.5 126,-247.5 245,-247.5 245,-228.5 126,-228.5"/>
<text text-anchor="middle" x="185.5" y="-235.5" font-family="Helvetica,sans-Serif" font-size="10.00">PgpParallelSimModel</text>
</a>
</g>
</g>
<!-- Node1&#45;&gt;Node16 -->
<g id="edge22" class="edge">
<title>Node1&#45;&gt;Node16</title>
<path fill="none" stroke="midnightblue" d="M89.62,-263.75C108.91,-258.52 131.11,-252.49 149.18,-247.59"/>
<polygon fill="midnightblue" stroke="midnightblue" points="88.56,-260.41 79.83,-266.41 90.4,-267.17 88.56,-260.41"/>
</g>
<!-- Node17 -->
<g id="node17" class="node">
<title>Node17</title>
<g id="a_node17"><a xlink:href="classPgp2bGth7Fixedlat.html" target="_top" xlink:title=" ">
<polygon fill="white" stroke="black" points="131.5,-190.5 131.5,-209.5 239.5,-209.5 239.5,-190.5 131.5,-190.5"/>
<text text-anchor="middle" x="185.5" y="-197.5" font-family="Helvetica,sans-Serif" font-size="10.00">Pgp2bGth7Fixedlat</text>
</a>
</g>
</g>
<!-- Node1&#45;&gt;Node17 -->
<g id="edge23" class="edge">
<title>Node1&#45;&gt;Node17</title>
<path fill="none" stroke="midnightblue" d="M62.83,-259.99C78.06,-247.38 100.76,-230.13 123,-219 130.4,-215.3 138.65,-212.15 146.66,-209.55"/>
<polygon fill="midnightblue" stroke="midnightblue" points="60.56,-257.32 55.19,-266.45 65.08,-262.67 60.56,-257.32"/>
</g>
<!-- Node19 -->
<g id="node19" class="node">
<title>Node19</title>
<g id="a_node19"><a xlink:href="classPgp2bGtp7FixedLat.html" target="_top" xlink:title=" ">
<polygon fill="white" stroke="black" points="130.5,-152.5 130.5,-171.5 240.5,-171.5 240.5,-152.5 130.5,-152.5"/>
<text text-anchor="middle" x="185.5" y="-159.5" font-family="Helvetica,sans-Serif" font-size="10.00">Pgp2bGtp7FixedLat</text>
</a>
</g>
</g>
<!-- Node1&#45;&gt;Node19 -->
<g id="edge25" class="edge">
<title>Node1&#45;&gt;Node19</title>
<path fill="none" stroke="midnightblue" d="M55.1,-257.55C68.34,-236.12 92.94,-201.13 123,-181 128.76,-177.15 135.33,-174.04 141.99,-171.56"/>
<polygon fill="midnightblue" stroke="midnightblue" points="51.97,-255.96 49.84,-266.34 57.98,-259.56 51.97,-255.96"/>
</g>
<!-- Node21 -->
<g id="node21" class="node">
<title>Node21</title>
<g id="a_node21"><a xlink:href="classPgp2bGtx7Fixedlat.html" target="_top" xlink:title=" ">
<polygon fill="white" stroke="black" points="131.5,-114.5 131.5,-133.5 239.5,-133.5 239.5,-114.5 131.5,-114.5"/>
<text text-anchor="middle" x="185.5" y="-121.5" font-family="Helvetica,sans-Serif" font-size="10.00">Pgp2bGtx7Fixedlat</text>
</a>
</g>
</g>
<!-- Node1&#45;&gt;Node21 -->
<g id="edge27" class="edge">
<title>Node1&#45;&gt;Node21</title>
<path fill="none" stroke="midnightblue" d="M50.83,-256.56C61.24,-227.58 84.76,-173.21 123,-143 127.91,-139.12 133.62,-136.03 139.53,-133.57"/>
<polygon fill="midnightblue" stroke="midnightblue" points="47.41,-255.73 47.47,-266.32 54.03,-258.01 47.41,-255.73"/>
</g>
<!-- Node25 -->
<g id="node25" class="node">
<title>Node25</title>
<g id="a_node25"><a xlink:href="classSaltRxLvds.html" target="_top" xlink:title=" ">
<polygon fill="white" stroke="black" points="150,-76.5 150,-95.5 221,-95.5 221,-76.5 150,-76.5"/>
<text text-anchor="middle" x="185.5" y="-83.5" font-family="Helvetica,sans-Serif" font-size="10.00">SaltRxLvds</text>
</a>
</g>
</g>
<!-- Node1&#45;&gt;Node25 -->
<g id="edge31" class="edge">
<title>Node1&#45;&gt;Node25</title>
<path fill="none" stroke="midnightblue" d="M48.11,-256.15C55.61,-220.61 76.24,-146.01 123,-105 130.56,-98.37 140.41,-94.05 150,-91.24"/>
<polygon fill="midnightblue" stroke="midnightblue" points="44.63,-255.73 46.12,-266.22 51.49,-257.09 44.63,-255.73"/>
</g>
<!-- Node28 -->
<g id="node28" class="node">
<title>Node28</title>
<g id="a_node28"><a xlink:href="classGtp16FixedLatCore.html" target="_top" xlink:title=" ">
<polygon fill="white" stroke="black" points="131,-38.5 131,-57.5 240,-57.5 240,-38.5 131,-38.5"/>
<text text-anchor="middle" x="185.5" y="-45.5" font-family="Helvetica,sans-Serif" font-size="10.00">Gtp16FixedLatCore</text>
</a>
</g>
</g>
<!-- Node1&#45;&gt;Node28 -->
<g id="edge37" class="edge">
<title>Node1&#45;&gt;Node28</title>
<path fill="none" stroke="midnightblue" d="M46.2,-256.43C50.82,-215.32 67.3,-119.47 123,-67 127.15,-63.09 132.08,-59.99 137.33,-57.52"/>
<polygon fill="midnightblue" stroke="midnightblue" points="42.71,-256.19 45.19,-266.49 49.67,-256.89 42.71,-256.19"/>
</g>
<!-- Node29 -->
<g id="node29" class="node">
<title>Node29</title>
<g id="a_node29"><a xlink:href="classGtpDualFixedLatCore.html" target="_top" xlink:title=" ">
<polygon fill="white" stroke="black" points="126,-0.5 126,-19.5 245,-19.5 245,-0.5 126,-0.5"/>
<text text-anchor="middle" x="185.5" y="-7.5" font-family="Helvetica,sans-Serif" font-size="10.00">GtpDualFixedLatCore</text>
</a>
</g>
</g>
<!-- Node1&#45;&gt;Node29 -->
<g id="edge38" class="edge">
<title>Node1&#45;&gt;Node29</title>
<path fill="none" stroke="midnightblue" d="M44.89,-256.13C46.91,-209.66 58.51,-92.97 123,-29 126.89,-25.14 131.54,-22.07 136.52,-19.61"/>
<polygon fill="midnightblue" stroke="midnightblue" points="41.39,-256.25 44.56,-266.36 48.39,-256.48 41.39,-256.25"/>
</g>
<!-- Node4 -->
<g id="node4" class="node">
<title>Node4</title>
<g id="a_node4"><a xlink:href="classSspDecoder8b10bTb.html" target="_top" xlink:title=" ">
<polygon fill="white" stroke="black" points="302,-380.5 302,-399.5 418,-399.5 418,-380.5 302,-380.5"/>
<text text-anchor="middle" x="360" y="-387.5" font-family="Helvetica,sans-Serif" font-size="10.00">SspDecoder8b10bTb</text>
</a>
</g>
</g>
<!-- Node3&#45;&gt;Node4 -->
<g id="edge3" class="edge">
<title>Node3&#45;&gt;Node4</title>
<path fill="none" stroke="midnightblue" d="M247.66,-358.98C278.65,-365.15 314.37,-373.61 336.82,-380.41"/>
<polygon fill="midnightblue" stroke="midnightblue" points="248.27,-355.54 237.79,-357.07 246.94,-362.41 248.27,-355.54"/>
</g>
<!-- Node3&#45;&gt;Node4 -->
<g id="edge14" class="edge">
<title>Node3&#45;&gt;Node4</title>
<path fill="none" stroke="midnightblue" d="M218.42,-364.41C241.72,-370.92 273.97,-378.36 301.69,-383.78"/>
<polygon fill="midnightblue" stroke="midnightblue" points="219.28,-361.02 208.7,-361.59 217.33,-367.74 219.28,-361.02"/>
</g>
<!-- Node5 -->
<g id="node5" class="node">
<title>Node5</title>
<g id="a_node5"><a xlink:href="classSspEncoder8b10bTb.html" target="_top" xlink:title=" ">
<polygon fill="white" stroke="black" points="302.5,-342.5 302.5,-361.5 417.5,-361.5 417.5,-342.5 302.5,-342.5"/>
<text text-anchor="middle" x="360" y="-349.5" font-family="Helvetica,sans-Serif" font-size="10.00">SspEncoder8b10bTb</text>
</a>
</g>
</g>
<!-- Node3&#45;&gt;Node5 -->
<g id="edge4" class="edge">
<title>Node3&#45;&gt;Node5</title>
<path fill="none" stroke="midnightblue" d="M248.04,-345.5C265.78,-345.13 285.06,-345.17 302.48,-345.62"/>
<polygon fill="midnightblue" stroke="midnightblue" points="247.69,-342.01 237.79,-345.77 247.88,-349.01 247.69,-342.01"/>
</g>
<!-- Node3&#45;&gt;Node5 -->
<g id="edge15" class="edge">
<title>Node3&#45;&gt;Node5</title>
<path fill="none" stroke="midnightblue" d="M248.04,-358.5C265.78,-358.87 285.06,-358.83 302.48,-358.38"/>
<polygon fill="midnightblue" stroke="midnightblue" points="247.88,-354.99 237.79,-358.23 247.69,-361.99 247.88,-354.99"/>
</g>
<!-- Node6 -->
<g id="node6" class="node">
<title>Node6</title>
<g id="a_node6"><a xlink:href="classSspLowSpeedDecoderLane.html" target="_top" xlink:title=" ">
<polygon fill="white" stroke="black" points="286.5,-304.5 286.5,-323.5 433.5,-323.5 433.5,-304.5 286.5,-304.5"/>
<text text-anchor="middle" x="360" y="-311.5" font-family="Helvetica,sans-Serif" font-size="10.00">SspLowSpeedDecoderLane</text>
</a>
</g>
</g>
<!-- Node3&#45;&gt;Node6 -->
<g id="edge5" class="edge">
<title>Node3&#45;&gt;Node6</title>
<path fill="none" stroke="midnightblue" d="M239.85,-340.25C264.24,-334.87 292.76,-328.59 315.78,-323.52"/>
<polygon fill="midnightblue" stroke="midnightblue" points="239.04,-336.84 230.03,-342.41 240.55,-343.68 239.04,-336.84"/>
</g>
<!-- Node7 -->
<g id="node7" class="node">
<title>Node7</title>
<g id="a_node7"><a xlink:href="classSspLowSpeedDecoder10b12bWrapper.html" target="_top" xlink:title=" ">
<polygon fill="white" stroke="black" points="489.5,-351 489.5,-381 649.5,-381 649.5,-351 489.5,-351"/>
<text text-anchor="start" x="497.5" y="-369" font-family="Helvetica,sans-Serif" font-size="10.00">SspLowSpeedDecoder10b12b</text>
<text text-anchor="middle" x="569.5" y="-358" font-family="Helvetica,sans-Serif" font-size="10.00">Wrapper</text>
</a>
</g>
</g>
<!-- Node6&#45;&gt;Node7 -->
<g id="edge6" class="edge">
<title>Node6&#45;&gt;Node7</title>
<path fill="none" stroke="midnightblue" d="M443.51,-325.9C453.11,-328.26 462.77,-330.69 472,-333 494.44,-338.62 519.83,-344.93 538.93,-350.96"/>
<polygon fill="midnightblue" stroke="midnightblue" points="444.08,-322.44 433.54,-323.48 442.43,-329.24 444.08,-322.44"/>
</g>
<!-- Node6&#45;&gt;Node7 -->
<g id="edge11" class="edge">
<title>Node6&#45;&gt;Node7</title>
<path fill="none" stroke="midnightblue" d="M384.77,-326.98C407.24,-334.71 441.91,-343.46 472,-351 477.69,-352.43 483.58,-353.9 489.5,-355.35"/>
<polygon fill="midnightblue" stroke="midnightblue" points="385.96,-323.69 375.36,-323.51 383.54,-330.26 385.96,-323.69"/>
</g>
<!-- Node8 -->
<g id="node8" class="node">
<title>Node8</title>
<g id="a_node8"><a xlink:href="classSspLowSpeedDecoder12b14bWrapper.html" target="_top" xlink:title=" ">
<polygon fill="white" stroke="black" points="489.5,-302 489.5,-332 649.5,-332 649.5,-302 489.5,-302"/>
<text text-anchor="start" x="497.5" y="-320" font-family="Helvetica,sans-Serif" font-size="10.00">SspLowSpeedDecoder12b14b</text>
<text text-anchor="middle" x="569.5" y="-309" font-family="Helvetica,sans-Serif" font-size="10.00">Wrapper</text>
</a>
</g>
</g>
<!-- Node6&#45;&gt;Node8 -->
<g id="edge7" class="edge">
<title>Node6&#45;&gt;Node8</title>
<path fill="none" stroke="midnightblue" d="M443.83,-308.57C458.8,-308.61 474.38,-308.85 489.25,-309.27"/>
<polygon fill="midnightblue" stroke="midnightblue" points="443.57,-305.07 433.57,-308.58 443.58,-312.07 443.57,-305.07"/>
</g>
<!-- Node6&#45;&gt;Node8 -->
<g id="edge12" class="edge">
<title>Node6&#45;&gt;Node8</title>
<path fill="none" stroke="midnightblue" d="M443.83,-321.82C458.8,-322.22 474.38,-322.43 489.25,-322.43"/>
<polygon fill="midnightblue" stroke="midnightblue" points="443.67,-318.32 433.57,-321.52 443.47,-325.31 443.67,-318.32"/>
</g>
<!-- Node9 -->
<g id="node9" class="node">
<title>Node9</title>
<g id="a_node9"><a xlink:href="classSspLowSpeedDecoder8b10bWrapper.html" target="_top" xlink:title=" ">
<polygon fill="white" stroke="black" points="472,-263.5 472,-282.5 667,-282.5 667,-263.5 472,-263.5"/>
<text text-anchor="middle" x="569.5" y="-270.5" font-family="Helvetica,sans-Serif" font-size="10.00">SspLowSpeedDecoder8b10bWrapper</text>
</a>
</g>
</g>
<!-- Node6&#45;&gt;Node9 -->
<g id="edge8" class="edge">
<title>Node6&#45;&gt;Node9</title>
<path fill="none" stroke="midnightblue" d="M395.73,-301.95C420.62,-295.68 455.21,-288.37 486.91,-282.51"/>
<polygon fill="midnightblue" stroke="midnightblue" points="394.83,-298.56 386.03,-304.47 396.59,-305.34 394.83,-298.56"/>
</g>
<!-- Node6&#45;&gt;Node9 -->
<g id="edge13" class="edge">
<title>Node6&#45;&gt;Node9</title>
<path fill="none" stroke="midnightblue" d="M443.55,-304.31C479.3,-297.68 518.56,-289.25 543.35,-282.56"/>
<polygon fill="midnightblue" stroke="midnightblue" points="442.78,-300.89 433.57,-306.13 444.04,-307.78 442.78,-300.89"/>
</g>
<!-- Node10 -->
<g id="node10" class="node">
<title>Node10</title>
<g id="a_node10"><a xlink:href="classSspLowSpeedDecoder8b10bWrapperTb.html" target="_top" xlink:title=" ">
<polygon fill="white" stroke="black" points="703,-282.5 703,-301.5 910,-301.5 910,-282.5 703,-282.5"/>
<text text-anchor="middle" x="806.5" y="-289.5" font-family="Helvetica,sans-Serif" font-size="10.00">SspLowSpeedDecoder8b10bWrapperTb</text>
</a>
</g>
</g>
<!-- Node9&#45;&gt;Node10 -->
<g id="edge9" class="edge">
<title>Node9&#45;&gt;Node10</title>
<path fill="none" stroke="midnightblue" d="M677.09,-281.62C685.64,-282.31 694.27,-283.01 702.79,-283.7"/>
<polygon fill="midnightblue" stroke="midnightblue" points="677.35,-278.13 667.1,-280.81 676.79,-285.1 677.35,-278.13"/>
</g>
<!-- Node11 -->
<g id="node11" class="node">
<title>Node11</title>
<g id="a_node11"><a xlink:href="classSelectioDeserUltraScaleTb.html" target="_top" xlink:title=" ">
<polygon fill="white" stroke="black" points="733.5,-244.5 733.5,-263.5 879.5,-263.5 879.5,-244.5 733.5,-244.5"/>
<text text-anchor="middle" x="806.5" y="-251.5" font-family="Helvetica,sans-Serif" font-size="10.00">SelectioDeserUltraScaleTb</text>
</a>
</g>
</g>
<!-- Node9&#45;&gt;Node11 -->
<g id="edge10" class="edge">
<title>Node9&#45;&gt;Node11</title>
<path fill="none" stroke="midnightblue" d="M677.29,-264.37C696.26,-262.83 715.62,-261.27 733.35,-259.83"/>
<polygon fill="midnightblue" stroke="midnightblue" points="676.79,-260.9 667.1,-265.19 677.35,-267.87 676.79,-260.9"/>
</g>
<!-- Node13 -->
<g id="node13" class="node">
<title>Node13</title>
<g id="a_node13"><a xlink:href="classSugoiTopTb.html" target="_top" xlink:title=" ">
<polygon fill="white" stroke="black" points="533.5,-225.5 533.5,-244.5 605.5,-244.5 605.5,-225.5 533.5,-225.5"/>
<text text-anchor="middle" x="569.5" y="-232.5" font-family="Helvetica,sans-Serif" font-size="10.00">SugoiTopTb</text>
</a>
</g>
</g>
<!-- Node12&#45;&gt;Node13 -->
<g id="edge17" class="edge">
<title>Node12&#45;&gt;Node13</title>
<path fill="none" stroke="midnightblue" d="M240.92,-302.35C298.33,-290.11 391.47,-270.39 472,-254 492.25,-249.88 514.91,-245.41 533.19,-241.84"/>
<polygon fill="midnightblue" stroke="midnightblue" points="240.02,-298.96 230.97,-304.47 241.48,-305.81 240.02,-298.96"/>
</g>
<!-- Node15 -->
<g id="node15" class="node">
<title>Node15</title>
<g id="a_node15"><a xlink:href="classSugoiSubordinateSimModel.html" target="_top" xlink:title=" ">
<polygon fill="white" stroke="black" points="284.5,-228.5 284.5,-247.5 435.5,-247.5 435.5,-228.5 284.5,-228.5"/>
<text text-anchor="middle" x="360" y="-235.5" font-family="Helvetica,sans-Serif" font-size="10.00">SugoiSubordinateSimModel</text>
</a>
</g>
</g>
<!-- Node14&#45;&gt;Node15 -->
<g id="edge19" class="edge">
<title>Node14&#45;&gt;Node15</title>
<path fill="none" stroke="midnightblue" d="M239.85,-264.25C264.24,-258.87 292.76,-252.59 315.78,-247.52"/>
<polygon fill="midnightblue" stroke="midnightblue" points="239.04,-260.84 230.03,-266.41 240.55,-267.68 239.04,-260.84"/>
</g>
<!-- Node15&#45;&gt;Node13 -->
<g id="edge20" class="edge">
<title>Node15&#45;&gt;Node13</title>
<path fill="none" stroke="midnightblue" d="M445.9,-236.77C476.51,-236.33 509.39,-235.85 533.39,-235.51"/>
<polygon fill="midnightblue" stroke="midnightblue" points="445.57,-233.28 435.62,-236.92 445.67,-240.28 445.57,-233.28"/>
</g>
<!-- Node18 -->
<g id="node18" class="node">
<title>Node18</title>
<g id="a_node18"><a xlink:href="classPgp2bGth7FixedLatWrapper.html" target="_top" xlink:title=" ">
<polygon fill="white" stroke="black" points="284,-190.5 284,-209.5 436,-209.5 436,-190.5 284,-190.5"/>
<text text-anchor="middle" x="360" y="-197.5" font-family="Helvetica,sans-Serif" font-size="10.00">Pgp2bGth7FixedLatWrapper</text>
</a>
</g>
</g>
<!-- Node17&#45;&gt;Node18 -->
<g id="edge24" class="edge">
<title>Node17&#45;&gt;Node18</title>
<path fill="none" stroke="midnightblue" d="M249.68,-200C260.78,-200 272.43,-200 283.82,-200"/>
<polygon fill="midnightblue" stroke="midnightblue" points="249.66,-196.5 239.66,-200 249.66,-203.5 249.66,-196.5"/>
</g>
<!-- Node20 -->
<g id="node20" class="node">
<title>Node20</title>
<g id="a_node20"><a xlink:href="classPgp2bGtp7FixedLatWrapper.html" target="_top" xlink:title=" ">
<polygon fill="white" stroke="black" points="284,-152.5 284,-171.5 436,-171.5 436,-152.5 284,-152.5"/>
<text text-anchor="middle" x="360" y="-159.5" font-family="Helvetica,sans-Serif" font-size="10.00">Pgp2bGtp7FixedLatWrapper</text>
</a>
</g>
</g>
<!-- Node19&#45;&gt;Node20 -->
<g id="edge26" class="edge">
<title>Node19&#45;&gt;Node20</title>
<path fill="none" stroke="midnightblue" d="M250.78,-162C261.58,-162 272.87,-162 283.91,-162"/>
<polygon fill="midnightblue" stroke="midnightblue" points="250.61,-158.5 240.61,-162 250.61,-165.5 250.61,-158.5"/>
</g>
<!-- Node22 -->
<g id="node22" class="node">
<title>Node22</title>
<g id="a_node22"><a xlink:href="classPgp2bGtx7FixedLatWrapper.html" target="_top" xlink:title=" ">
<polygon fill="white" stroke="black" points="284,-114.5 284,-133.5 436,-133.5 436,-114.5 284,-114.5"/>
<text text-anchor="middle" x="360" y="-121.5" font-family="Helvetica,sans-Serif" font-size="10.00">Pgp2bGtx7FixedLatWrapper</text>
</a>
</g>
</g>
<!-- Node21&#45;&gt;Node22 -->
<g id="edge28" class="edge">
<title>Node21&#45;&gt;Node22</title>
<path fill="none" stroke="midnightblue" d="M249.68,-124C260.78,-124 272.43,-124 283.82,-124"/>
<polygon fill="midnightblue" stroke="midnightblue" points="249.66,-120.5 239.66,-124 249.66,-127.5 249.66,-120.5"/>
</g>
<!-- Node23 -->
<g id="node23" class="node">
<title>Node23</title>
<g id="a_node23"><a xlink:href="classPgp2bGtx7FixedLatTb.html" target="_top" xlink:title=" ">
<polygon fill="white" stroke="black" points="508.5,-152.5 508.5,-171.5 630.5,-171.5 630.5,-152.5 508.5,-152.5"/>
<text text-anchor="middle" x="569.5" y="-159.5" font-family="Helvetica,sans-Serif" font-size="10.00">Pgp2bGtx7FixedLatTb</text>
</a>
</g>
</g>
<!-- Node22&#45;&gt;Node23 -->
<g id="edge29" class="edge">
<title>Node22&#45;&gt;Node23</title>
<path fill="none" stroke="midnightblue" d="M422.96,-135.35C452.73,-140.8 488.02,-147.26 516.39,-152.46"/>
<polygon fill="midnightblue" stroke="midnightblue" points="423.56,-131.9 413.09,-133.54 422.3,-138.78 423.56,-131.9"/>
</g>
<!-- Node24 -->
<g id="node24" class="node">
<title>Node24</title>
<g id="a_node24"><a xlink:href="classPgp2bGtx7FixedLatWrapperTb.html" target="_top" xlink:title=" ">
<polygon fill="white" stroke="black" points="487.5,-114.5 487.5,-133.5 651.5,-133.5 651.5,-114.5 487.5,-114.5"/>
<text text-anchor="middle" x="569.5" y="-121.5" font-family="Helvetica,sans-Serif" font-size="10.00">Pgp2bGtx7FixedLatWrapperTb</text>
</a>
</g>
</g>
<!-- Node22&#45;&gt;Node24 -->
<g id="edge30" class="edge">
<title>Node22&#45;&gt;Node24</title>
<path fill="none" stroke="midnightblue" d="M446.43,-124C459.92,-124 473.85,-124 487.24,-124"/>
<polygon fill="midnightblue" stroke="midnightblue" points="446.21,-120.5 436.21,-124 446.21,-127.5 446.21,-120.5"/>
</g>
<!-- Node26 -->
<g id="node26" class="node">
<title>Node26</title>
<g id="a_node26"><a xlink:href="classSaltCore.html" target="_top" xlink:title=" ">
<polygon fill="white" stroke="black" points="331,-76.5 331,-95.5 389,-95.5 389,-76.5 331,-76.5"/>
<text text-anchor="middle" x="360" y="-83.5" font-family="Helvetica,sans-Serif" font-size="10.00">SaltCore</text>
</a>
</g>
</g>
<!-- Node25&#45;&gt;Node26 -->
<g id="edge32" class="edge">
<title>Node25&#45;&gt;Node26</title>
<path fill="none" stroke="midnightblue" d="M231.68,-86C263.14,-86 304.12,-86 330.97,-86"/>
<polygon fill="midnightblue" stroke="midnightblue" points="231.41,-82.5 221.41,-86 231.41,-89.5 231.41,-82.5"/>
</g>
<!-- Node27 -->
<g id="node27" class="node">
<title>Node27</title>
<g id="a_node27"><a xlink:href="classSaltCoreTb.html" target="_top" xlink:title=" ">
<polygon fill="white" stroke="black" points="534.5,-76.5 534.5,-95.5 604.5,-95.5 604.5,-76.5 534.5,-76.5"/>
<text text-anchor="middle" x="569.5" y="-83.5" font-family="Helvetica,sans-Serif" font-size="10.00">SaltCoreTb</text>
</a>
</g>
</g>
<!-- Node26&#45;&gt;Node27 -->
<g id="edge33" class="edge">
<title>Node26&#45;&gt;Node27</title>
<path fill="none" stroke="midnightblue" d="M399.75,-86C438.41,-86 497.22,-86 534.22,-86"/>
<polygon fill="midnightblue" stroke="midnightblue" points="399.42,-82.5 389.42,-86 399.42,-89.5 399.42,-82.5"/>
</g>
</g>
</svg>
