<?xml version="1.0" encoding="UTF-8" standalone="no"?>
<!DOCTYPE svg PUBLIC "-//W3C//DTD SVG 1.1//EN"
 "http://www.w3.org/Graphics/SVG/1.1/DTD/svg11.dtd">
<!-- Generated by graphviz version 2.43.0 (0)
 -->
<!-- Title: SspLowSpeedDecoder8b10bWrapperTb Pages: 1 -->
<!--zoomable 427 -->
<svg id="main" version="1.1" xmlns="http://www.w3.org/2000/svg" xmlns:xlink="http://www.w3.org/1999/xlink" xml:space="preserve" onload="init(evt)">
<style type="text/css"><![CDATA[
.edge:hover path { stroke: red; }
.edge:hover polygon { stroke: red; fill: red; }
]]></style>
<script type="text/javascript"><![CDATA[
var edges = document.getElementsByTagName('g');
if (edges && edges.length) {
  for (var i=0;i<edges.length;i++) {
    if (edges[i].id.substr(0,4)=='edge') {
      edges[i].setAttribute('class','edge');
    }
  }
}
]]></script>
        <defs>
                <circle id="rim" cx="0" cy="0" r="7"/>
                <circle id="rim2" cx="0" cy="0" r="3.5"/>
                <g id="zoomPlus">
                        <use xlink:href="#rim" fill="#404040">
                                <set attributeName="fill" to="#808080" begin="zoomplus.mouseover" end="zoomplus.mouseout"/>
                        </use>
                        <path d="M-4,0h8M0,-4v8" fill="none" stroke="white" stroke-width="1.5" pointer-events="none"/>
                </g>
                <g id="zoomMin">
                        <use xlink:href="#rim" fill="#404040">
                                <set attributeName="fill" to="#808080" begin="zoomminus.mouseover" end="zoomminus.mouseout"/>
                        </use>
                        <path d="M-4,0h8" fill="none" stroke="white" stroke-width="1.5" pointer-events="none"/>
                </g>
                <g id="dirArrow">
                        <path fill="none" stroke="white" stroke-width="1.5" d="M0,-3.0v7 M-2.5,-0.5L0,-3.0L2.5,-0.5"/>
                </g>
               <g id="resetDef">
                       <use xlink:href="#rim2" fill="#404040">
                               <set attributeName="fill" to="#808080" begin="reset.mouseover" end="reset.mouseout"/>
                       </use>
               </g>
        </defs>

<script type="text/javascript">
var viewWidth = 1724;
var viewHeight = 427;
var sectionId = 'dynsection-1';
</script>
<script xlink:href="svgpan.js"/>
<svg id="graph" class="graph">
<g id="viewport">
<title>SspLowSpeedDecoder8b10bWrapperTb</title>
<polygon fill="white" stroke="transparent" points="-4,4 -4,-423 1720,-423 1720,4 -4,4"/>
<!-- Node1 -->
<g id="node1" class="node">
<title>Node1</title>
<g id="a_node1"><a xlink:title=" ">
<polygon fill="#bfbfbf" stroke="black" points="1509,-171.5 1509,-190.5 1716,-190.5 1716,-171.5 1509,-171.5"/>
<text text-anchor="middle" x="1612.5" y="-178.5" font-family="Helvetica,sans-Serif" font-size="10.00">SspLowSpeedDecoder8b10bWrapperTb</text>
</a>
</g>
</g>
<!-- Node2 -->
<g id="node2" class="node">
<title>Node2</title>
<g id="a_node2"><a xlink:href="classClkRst.html" target="_top" xlink:title=" ">
<polygon fill="white" stroke="black" points="956,-399.5 956,-418.5 1004,-418.5 1004,-399.5 956,-399.5"/>
<text text-anchor="middle" x="980" y="-406.5" font-family="Helvetica,sans-Serif" font-size="10.00">ClkRst</text>
</a>
</g>
</g>
<!-- Node2&#45;&gt;Node1 -->
<g id="edge1" class="edge">
<title>Node2&#45;&gt;Node1</title>
<path fill="none" stroke="midnightblue" d="M1014.37,-404.45C1096.14,-392.37 1311.6,-354.77 1473,-275 1523.28,-250.15 1576.47,-209.34 1599.6,-190.76"/>
<polygon fill="midnightblue" stroke="midnightblue" points="1013.58,-401.03 1004.18,-405.93 1014.58,-407.96 1013.58,-401.03"/>
</g>
<!-- Node7 -->
<g id="node7" class="node">
<title>Node7</title>
<g id="a_node7"><a xlink:href="classSelectioDeserUltraScale.html" target="_top" xlink:title=" ">
<polygon fill="white" stroke="black" points="1101.5,-323.5 1101.5,-342.5 1235.5,-342.5 1235.5,-323.5 1101.5,-323.5"/>
<text text-anchor="middle" x="1168.5" y="-330.5" font-family="Helvetica,sans-Serif" font-size="10.00">SelectioDeserUltraScale</text>
</a>
</g>
</g>
<!-- Node2&#45;&gt;Node7 -->
<g id="edge19" class="edge">
<title>Node2&#45;&gt;Node7</title>
<path fill="none" stroke="midnightblue" d="M1013.97,-401.7C1028.28,-397.82 1044.94,-392.31 1059,-385 1076.98,-375.64 1077.12,-366.55 1095,-357 1105.99,-351.13 1118.69,-346.34 1130.35,-342.62"/>
<polygon fill="midnightblue" stroke="midnightblue" points="1012.86,-398.37 1004.04,-404.24 1014.59,-405.15 1012.86,-398.37"/>
</g>
<!-- Node3 -->
<g id="node3" class="node">
<title>Node3</title>
<g id="a_node3"><a xlink:href="classSspEncoder8b10b.html" target="_top" xlink:title=" ">
<polygon fill="white" stroke="black" points="1324,-95.5 1324,-114.5 1427,-114.5 1427,-95.5 1324,-95.5"/>
<text text-anchor="middle" x="1375.5" y="-102.5" font-family="Helvetica,sans-Serif" font-size="10.00">SspEncoder8b10b</text>
</a>
</g>
</g>
<!-- Node3&#45;&gt;Node1 -->
<g id="edge2" class="edge">
<title>Node3&#45;&gt;Node1</title>
<path fill="none" stroke="midnightblue" d="M1437.01,-115.02C1449.04,-117.55 1461.5,-120.54 1473,-124 1516.57,-137.12 1565.29,-158.94 1591.76,-171.43"/>
<polygon fill="midnightblue" stroke="midnightblue" points="1437.54,-111.56 1427.04,-113.02 1436.16,-118.42 1437.54,-111.56"/>
</g>
<!-- Node4 -->
<g id="node4" class="node">
<title>Node4</title>
<g id="a_node4"><a xlink:href="classSspFramer.html" target="_top" xlink:title=" ">
<polygon fill="white" stroke="black" points="1134.5,-95.5 1134.5,-114.5 1202.5,-114.5 1202.5,-95.5 1134.5,-95.5"/>
<text text-anchor="middle" x="1168.5" y="-102.5" font-family="Helvetica,sans-Serif" font-size="10.00">SspFramer</text>
</a>
</g>
</g>
<!-- Node4&#45;&gt;Node3 -->
<g id="edge3" class="edge">
<title>Node4&#45;&gt;Node3</title>
<path fill="none" stroke="midnightblue" d="M1212.98,-105C1245.41,-105 1289.81,-105 1323.86,-105"/>
<polygon fill="midnightblue" stroke="midnightblue" points="1212.89,-101.5 1202.89,-105 1212.89,-108.5 1212.89,-101.5"/>
</g>
<!-- Node5 -->
<g id="node5" class="node">
<title>Node5</title>
<g id="a_node5"><a xlink:href="classEncoder8b10b.html" target="_top" xlink:title=" ">
<polygon fill="white" stroke="black" points="1125.5,-57.5 1125.5,-76.5 1211.5,-76.5 1211.5,-57.5 1125.5,-57.5"/>
<text text-anchor="middle" x="1168.5" y="-64.5" font-family="Helvetica,sans-Serif" font-size="10.00">Encoder8b10b</text>
</a>
</g>
</g>
<!-- Node5&#45;&gt;Node3 -->
<g id="edge4" class="edge">
<title>Node5&#45;&gt;Node3</title>
<path fill="none" stroke="midnightblue" d="M1221.83,-76.7C1253.13,-82.5 1292.72,-89.84 1323.75,-95.59"/>
<polygon fill="midnightblue" stroke="midnightblue" points="1222.45,-73.25 1211.98,-74.87 1221.17,-80.14 1222.45,-73.25"/>
</g>
<!-- Node6 -->
<g id="node6" class="node">
<title>Node6</title>
<g id="a_node6"><a xlink:href="classGearbox.html" target="_top" xlink:title=" ">
<polygon fill="white" stroke="black" points="951,-171.5 951,-190.5 1009,-190.5 1009,-171.5 951,-171.5"/>
<text text-anchor="middle" x="980" y="-178.5" font-family="Helvetica,sans-Serif" font-size="10.00">Gearbox</text>
</a>
</g>
</g>
<!-- Node6&#45;&gt;Node1 -->
<g id="edge5" class="edge">
<title>Node6&#45;&gt;Node1</title>
<path fill="none" stroke="midnightblue" d="M1019.4,-181C1114.98,-181 1366.15,-181 1508.76,-181"/>
<polygon fill="midnightblue" stroke="midnightblue" points="1019.32,-177.5 1009.32,-181 1019.32,-184.5 1019.32,-177.5"/>
</g>
<!-- Node23 -->
<g id="node23" class="node">
<title>Node23</title>
<g id="a_node23"><a xlink:href="classSspLowSpeedDecoderLane.html" target="_top" xlink:title=" ">
<polygon fill="white" stroke="black" points="1095,-133.5 1095,-152.5 1242,-152.5 1242,-133.5 1095,-133.5"/>
<text text-anchor="middle" x="1168.5" y="-140.5" font-family="Helvetica,sans-Serif" font-size="10.00">SspLowSpeedDecoderLane</text>
</a>
</g>
</g>
<!-- Node6&#45;&gt;Node23 -->
<g id="edge27" class="edge">
<title>Node6&#45;&gt;Node23</title>
<path fill="none" stroke="midnightblue" d="M1019.22,-173.21C1048.62,-167.22 1089.39,-158.91 1120.74,-152.53"/>
<polygon fill="midnightblue" stroke="midnightblue" points="1018.43,-169.8 1009.33,-175.23 1019.82,-176.66 1018.43,-169.8"/>
</g>
<!-- Node7&#45;&gt;Node1 -->
<g id="edge6" class="edge">
<title>Node7&#45;&gt;Node1</title>
<path fill="none" stroke="midnightblue" d="M1206.85,-320.16C1293.68,-290.3 1507.52,-216.76 1583.86,-190.5"/>
<polygon fill="midnightblue" stroke="midnightblue" points="1205.47,-316.93 1197.15,-323.49 1207.74,-323.55 1205.47,-316.93"/>
</g>
<!-- Node8 -->
<g id="node8" class="node">
<title>Node8</title>
<g id="a_node8"><a xlink:href="classAxiLiteToDrp.html" target="_top" xlink:title=" ">
<polygon fill="white" stroke="black" points="553.5,-361.5 553.5,-380.5 631.5,-380.5 631.5,-361.5 553.5,-361.5"/>
<text text-anchor="middle" x="592.5" y="-368.5" font-family="Helvetica,sans-Serif" font-size="10.00">AxiLiteToDrp</text>
</a>
</g>
</g>
<!-- Node8&#45;&gt;Node7 -->
<g id="edge7" class="edge">
<title>Node8&#45;&gt;Node7</title>
<path fill="none" stroke="midnightblue" d="M641.73,-371.13C726.42,-370.9 907.3,-368.31 1059,-352 1079.44,-349.8 1101.85,-346.1 1120.96,-342.54"/>
<polygon fill="midnightblue" stroke="midnightblue" points="641.63,-367.63 631.64,-371.15 641.65,-374.63 641.63,-367.63"/>
</g>
<!-- Node9 -->
<g id="node9" class="node">
<title>Node9</title>
<g id="a_node9"><a xlink:href="classAxiLiteAsync.html" target="_top" xlink:title=" ">
<polygon fill="white" stroke="black" points="387.5,-323.5 387.5,-342.5 467.5,-342.5 467.5,-323.5 387.5,-323.5"/>
<text text-anchor="middle" x="427.5" y="-330.5" font-family="Helvetica,sans-Serif" font-size="10.00">AxiLiteAsync</text>
</a>
</g>
</g>
<!-- Node9&#45;&gt;Node8 -->
<g id="edge8" class="edge">
<title>Node9&#45;&gt;Node8</title>
<path fill="none" stroke="midnightblue" d="M477.31,-344.38C501.65,-350.05 530.65,-356.81 553.34,-362.1"/>
<polygon fill="midnightblue" stroke="midnightblue" points="478.08,-340.96 467.54,-342.1 476.49,-347.78 478.08,-340.96"/>
</g>
<!-- Node32 -->
<g id="node32" class="node">
<title>Node32</title>
<g id="a_node32"><a xlink:href="classSspLowSpeedDecoderReg.html" target="_top" xlink:title=" ">
<polygon fill="white" stroke="black" points="1097,-209.5 1097,-228.5 1240,-228.5 1240,-209.5 1097,-209.5"/>
<text text-anchor="middle" x="1168.5" y="-216.5" font-family="Helvetica,sans-Serif" font-size="10.00">SspLowSpeedDecoderReg</text>
</a>
</g>
</g>
<!-- Node9&#45;&gt;Node32 -->
<g id="edge39" class="edge">
<title>Node9&#45;&gt;Node32</title>
<path fill="none" stroke="midnightblue" d="M477.88,-322.64C492.68,-319.68 508.97,-316.56 524,-314 760.75,-273.66 821.8,-275.61 1059,-238 1077.32,-235.1 1097.34,-231.66 1115.13,-228.52"/>
<polygon fill="midnightblue" stroke="midnightblue" points="477.01,-319.24 467.9,-324.65 478.4,-326.1 477.01,-319.24"/>
</g>
<!-- Node10 -->
<g id="node10" class="node">
<title>Node10</title>
<g id="a_node10"><a xlink:href="classRstSync.html" target="_top" xlink:title=" ">
<polygon fill="white" stroke="black" points="145.5,-380.5 145.5,-399.5 201.5,-399.5 201.5,-380.5 145.5,-380.5"/>
<text text-anchor="middle" x="173.5" y="-387.5" font-family="Helvetica,sans-Serif" font-size="10.00">RstSync</text>
</a>
</g>
</g>
<!-- Node10&#45;&gt;Node9 -->
<g id="edge9" class="edge">
<title>Node10&#45;&gt;Node9</title>
<path fill="none" stroke="midnightblue" d="M211.72,-381.58C258.71,-370.95 339.16,-352.76 387.13,-341.9"/>
<polygon fill="midnightblue" stroke="midnightblue" points="210.93,-378.17 201.95,-383.79 212.47,-385 210.93,-378.17"/>
</g>
<!-- Node12 -->
<g id="node12" class="node">
<title>Node12</title>
<g id="a_node12"><a xlink:href="classFifoAsync.html" target="_top" xlink:title=" ">
<polygon fill="white" stroke="black" points="267,-266.5 267,-285.5 331,-285.5 331,-266.5 267,-266.5"/>
<text text-anchor="middle" x="299" y="-273.5" font-family="Helvetica,sans-Serif" font-size="10.00">FifoAsync</text>
</a>
</g>
</g>
<!-- Node10&#45;&gt;Node12 -->
<g id="edge12" class="edge">
<title>Node10&#45;&gt;Node12</title>
<path fill="none" stroke="midnightblue" d="M211.02,-381.55C218.07,-378.89 225.09,-375.45 231,-371 253.46,-354.1 250.78,-341.96 267,-319 275.18,-307.42 284.74,-294.22 291.05,-285.53"/>
<polygon fill="midnightblue" stroke="midnightblue" points="209.9,-378.24 201.5,-384.7 212.1,-384.88 209.9,-378.24"/>
</g>
<!-- Node35 -->
<g id="node35" class="node">
<title>Node35</title>
<g id="a_node35"><a xlink:href="classSynchronizerOneShot.html" target="_top" xlink:title=" ">
<polygon fill="white" stroke="black" points="367,-209.5 367,-228.5 488,-228.5 488,-209.5 367,-209.5"/>
<text text-anchor="middle" x="427.5" y="-216.5" font-family="Helvetica,sans-Serif" font-size="10.00">SynchronizerOneShot</text>
</a>
</g>
</g>
<!-- Node10&#45;&gt;Node35 -->
<g id="edge44" class="edge">
<title>Node10&#45;&gt;Node35</title>
<path fill="none" stroke="midnightblue" d="M211.34,-379.55C218.04,-377.11 224.86,-374.25 231,-371 255.66,-357.93 312.14,-315.57 331,-295 351.25,-272.92 343.3,-256.33 367,-238 371.98,-234.15 377.75,-231.07 383.71,-228.61"/>
<polygon fill="midnightblue" stroke="midnightblue" points="210.03,-376.3 201.68,-382.83 212.28,-382.93 210.03,-376.3"/>
</g>
<!-- Node11 -->
<g id="node11" class="node">
<title>Node11</title>
<g id="a_node11"><a xlink:href="classSynchronizer.html" target="_top" xlink:title=" ">
<polygon fill="white" stroke="black" points="0,-304.5 0,-323.5 80,-323.5 80,-304.5 0,-304.5"/>
<text text-anchor="middle" x="40" y="-311.5" font-family="Helvetica,sans-Serif" font-size="10.00">Synchronizer</text>
</a>
</g>
</g>
<!-- Node11&#45;&gt;Node10 -->
<g id="edge10" class="edge">
<title>Node11&#45;&gt;Node10</title>
<path fill="none" stroke="midnightblue" d="M59.12,-330.48C73.63,-342.98 94.98,-359.86 116,-371 125.15,-375.84 135.77,-379.8 145.32,-382.83"/>
<polygon fill="midnightblue" stroke="midnightblue" points="61.23,-327.68 51.42,-323.7 56.61,-332.93 61.23,-327.68"/>
</g>
<!-- Node11&#45;&gt;Node12 -->
<g id="edge14" class="edge">
<title>Node11&#45;&gt;Node12</title>
<path fill="none" stroke="midnightblue" d="M90.65,-311.44C129.19,-308.88 183.82,-303.98 231,-295 243.47,-292.63 256.98,-289 268.58,-285.56"/>
<polygon fill="midnightblue" stroke="midnightblue" points="89.98,-307.98 80.23,-312.1 90.43,-314.96 89.98,-307.98"/>
</g>
<!-- Node36 -->
<g id="node36" class="node">
<title>Node36</title>
<g id="a_node36"><a xlink:href="classSynchronizerEdge.html" target="_top" xlink:title=" ">
<polygon fill="white" stroke="black" points="121.5,-152.5 121.5,-171.5 225.5,-171.5 225.5,-152.5 121.5,-152.5"/>
<text text-anchor="middle" x="173.5" y="-159.5" font-family="Helvetica,sans-Serif" font-size="10.00">SynchronizerEdge</text>
</a>
</g>
</g>
<!-- Node11&#45;&gt;Node36 -->
<g id="edge46" class="edge">
<title>Node11&#45;&gt;Node36</title>
<path fill="none" stroke="midnightblue" d="M46.89,-294.69C56.65,-265.86 78.86,-211.7 116,-181 120.71,-177.11 126.24,-174 131.98,-171.53"/>
<polygon fill="midnightblue" stroke="midnightblue" points="43.5,-293.8 43.76,-304.39 50.16,-295.95 43.5,-293.8"/>
</g>
<!-- Node12&#45;&gt;Node9 -->
<g id="edge11" class="edge">
<title>Node12&#45;&gt;Node9</title>
<path fill="none" stroke="midnightblue" d="M330.53,-289.76C353.64,-300.17 384.8,-314.21 405.26,-323.43"/>
<polygon fill="midnightblue" stroke="midnightblue" points="331.73,-286.46 321.17,-285.54 328.85,-292.84 331.73,-286.46"/>
</g>
<!-- Node38 -->
<g id="node38" class="node">
<title>Node38</title>
<g id="a_node38"><a xlink:href="classSynchronizerFifo.html" target="_top" xlink:title=" ">
<polygon fill="white" stroke="black" points="378.5,-247.5 378.5,-266.5 476.5,-266.5 476.5,-247.5 378.5,-247.5"/>
<text text-anchor="middle" x="427.5" y="-254.5" font-family="Helvetica,sans-Serif" font-size="10.00">SynchronizerFifo</text>
</a>
</g>
</g>
<!-- Node12&#45;&gt;Node38 -->
<g id="edge50" class="edge">
<title>Node12&#45;&gt;Node38</title>
<path fill="none" stroke="midnightblue" d="M341.32,-269.79C353.15,-268.02 366.15,-266.06 378.35,-264.23"/>
<polygon fill="midnightblue" stroke="midnightblue" points="340.64,-266.36 331.27,-271.3 341.68,-273.28 340.64,-266.36"/>
</g>
<!-- Node13 -->
<g id="node13" class="node">
<title>Node13</title>
<g id="a_node13"><a xlink:href="classSynchronizerVector.html" target="_top" xlink:title=" ">
<polygon fill="white" stroke="black" points="118.5,-114.5 118.5,-133.5 228.5,-133.5 228.5,-114.5 118.5,-114.5"/>
<text text-anchor="middle" x="173.5" y="-121.5" font-family="Helvetica,sans-Serif" font-size="10.00">SynchronizerVector</text>
</a>
</g>
</g>
<!-- Node13&#45;&gt;Node12 -->
<g id="edge13" class="edge">
<title>Node13&#45;&gt;Node12</title>
<path fill="none" stroke="midnightblue" d="M224.73,-138.36C226.94,-139.77 229.05,-141.31 231,-143 271.05,-177.72 289.92,-242.12 295.85,-266.4"/>
<polygon fill="midnightblue" stroke="midnightblue" points="226.24,-135.2 215.76,-133.59 222.95,-141.38 226.24,-135.2"/>
</g>
<!-- Node33 -->
<g id="node33" class="node">
<title>Node33</title>
<g id="a_node33"><a xlink:href="classSyncStatusVector.html" target="_top" xlink:title=" ">
<polygon fill="white" stroke="black" points="929.5,-209.5 929.5,-228.5 1030.5,-228.5 1030.5,-209.5 929.5,-209.5"/>
<text text-anchor="middle" x="980" y="-216.5" font-family="Helvetica,sans-Serif" font-size="10.00">SyncStatusVector</text>
</a>
</g>
</g>
<!-- Node13&#45;&gt;Node33 -->
<g id="edge41" class="edge">
<title>Node13&#45;&gt;Node33</title>
<path fill="none" stroke="midnightblue" d="M223.51,-135.83C274.05,-146.99 355.3,-162 426.5,-162 426.5,-162 426.5,-162 593.5,-162 721.71,-162 871.34,-193.23 940.43,-209.46"/>
<polygon fill="midnightblue" stroke="midnightblue" points="224.03,-132.36 213.51,-133.59 222.5,-139.19 224.03,-132.36"/>
</g>
<!-- Node14 -->
<g id="node14" class="node">
<title>Node14</title>
<g id="a_node14"><a xlink:href="classFifoWrFsm.html" target="_top" xlink:title=" ">
<polygon fill="white" stroke="black" points="139,-228.5 139,-247.5 208,-247.5 208,-228.5 139,-228.5"/>
<text text-anchor="middle" x="173.5" y="-235.5" font-family="Helvetica,sans-Serif" font-size="10.00">FifoWrFsm</text>
</a>
</g>
</g>
<!-- Node14&#45;&gt;Node12 -->
<g id="edge15" class="edge">
<title>Node14&#45;&gt;Node12</title>
<path fill="none" stroke="midnightblue" d="M215.24,-250.54C232.04,-255.7 251.2,-261.6 266.85,-266.41"/>
<polygon fill="midnightblue" stroke="midnightblue" points="216.25,-247.18 205.66,-247.59 214.19,-253.88 216.25,-247.18"/>
</g>
<!-- Node15 -->
<g id="node15" class="node">
<title>Node15</title>
<g id="a_node15"><a xlink:href="classFifoRdFsm.html" target="_top" xlink:title=" ">
<polygon fill="white" stroke="black" points="139.5,-190.5 139.5,-209.5 207.5,-209.5 207.5,-190.5 139.5,-190.5"/>
<text text-anchor="middle" x="173.5" y="-197.5" font-family="Helvetica,sans-Serif" font-size="10.00">FifoRdFsm</text>
</a>
</g>
</g>
<!-- Node15&#45;&gt;Node12 -->
<g id="edge16" class="edge">
<title>Node15&#45;&gt;Node12</title>
<path fill="none" stroke="midnightblue" d="M217.37,-212.47C222.08,-214.4 226.72,-216.58 231,-219 254.13,-232.08 276.77,-253.71 288.9,-266.23"/>
<polygon fill="midnightblue" stroke="midnightblue" points="218.27,-209.06 207.68,-208.81 215.8,-215.61 218.27,-209.06"/>
</g>
<!-- Node16 -->
<g id="node16" class="node">
<title>Node16</title>
<g id="a_node16"><a xlink:href="classSimpleDualPortRam.html" target="_top" xlink:title=" ">
<polygon fill="white" stroke="black" points="116,-342.5 116,-361.5 231,-361.5 231,-342.5 116,-342.5"/>
<text text-anchor="middle" x="173.5" y="-349.5" font-family="Helvetica,sans-Serif" font-size="10.00">SimpleDualPortRam</text>
</a>
</g>
</g>
<!-- Node16&#45;&gt;Node12 -->
<g id="edge17" class="edge">
<title>Node16&#45;&gt;Node12</title>
<path fill="none" stroke="midnightblue" d="M210.21,-338.49C217.26,-335.36 224.49,-331.82 231,-328 252.33,-315.48 274.52,-297 287.25,-285.77"/>
<polygon fill="midnightblue" stroke="midnightblue" points="208.62,-335.36 200.78,-342.48 211.35,-341.81 208.62,-335.36"/>
</g>
<!-- Node17 -->
<g id="node17" class="node">
<title>Node17</title>
<g id="a_node17"><a xlink:href="classFifoOutputPipeline.html" target="_top" xlink:title=" ">
<polygon fill="white" stroke="black" points="120,-266.5 120,-285.5 227,-285.5 227,-266.5 120,-266.5"/>
<text text-anchor="middle" x="173.5" y="-273.5" font-family="Helvetica,sans-Serif" font-size="10.00">FifoOutputPipeline</text>
</a>
</g>
</g>
<!-- Node17&#45;&gt;Node12 -->
<g id="edge18" class="edge">
<title>Node17&#45;&gt;Node12</title>
<path fill="none" stroke="midnightblue" d="M237.43,-276C247.66,-276 257.84,-276 266.85,-276"/>
<polygon fill="midnightblue" stroke="midnightblue" points="237.23,-272.5 227.23,-276 237.23,-279.5 237.23,-272.5"/>
</g>
<!-- Node18 -->
<g id="node18" class="node">
<title>Node18</title>
<g id="a_node18"><a xlink:href="classRstPipeline.html" target="_top" xlink:title=" ">
<polygon fill="white" stroke="black" points="944.5,-285.5 944.5,-304.5 1015.5,-304.5 1015.5,-285.5 944.5,-285.5"/>
<text text-anchor="middle" x="980" y="-292.5" font-family="Helvetica,sans-Serif" font-size="10.00">RstPipeline</text>
</a>
</g>
</g>
<!-- Node18&#45;&gt;Node7 -->
<g id="edge20" class="edge">
<title>Node18&#45;&gt;Node7</title>
<path fill="none" stroke="midnightblue" d="M1025.8,-304.13C1054.49,-309.97 1091.66,-317.55 1120.73,-323.47"/>
<polygon fill="midnightblue" stroke="midnightblue" points="1026.14,-300.63 1015.64,-302.06 1024.74,-307.48 1026.14,-300.63"/>
</g>
<!-- Node18&#45;&gt;Node23 -->
<g id="edge26" class="edge">
<title>Node18&#45;&gt;Node23</title>
<path fill="none" stroke="midnightblue" d="M1004.39,-279.56C1020.34,-268.65 1041.63,-253.28 1059,-238 1076.46,-222.63 1077.81,-215.68 1095,-200 1114.64,-182.09 1139.29,-163.44 1154.2,-152.54"/>
<polygon fill="midnightblue" stroke="midnightblue" points="1002.01,-276.95 995.69,-285.44 1005.93,-282.75 1002.01,-276.95"/>
</g>
<!-- Node19 -->
<g id="node19" class="node">
<title>Node19</title>
<g id="a_node19"><a xlink:href="classSelectioDeserLaneUltraScale.html" target="_top" xlink:title=" ">
<polygon fill="white" stroke="black" points="901,-323.5 901,-342.5 1059,-342.5 1059,-323.5 901,-323.5"/>
<text text-anchor="middle" x="980" y="-330.5" font-family="Helvetica,sans-Serif" font-size="10.00">SelectioDeserLaneUltraScale</text>
</a>
</g>
</g>
<!-- Node19&#45;&gt;Node7 -->
<g id="edge21" class="edge">
<title>Node19&#45;&gt;Node7</title>
<path fill="none" stroke="midnightblue" d="M1069.3,-333C1080.08,-333 1090.95,-333 1101.33,-333"/>
<polygon fill="midnightblue" stroke="midnightblue" points="1069.01,-329.5 1059.01,-333 1069.01,-336.5 1069.01,-329.5"/>
</g>
<!-- Node20 -->
<g id="node20" class="node">
<title>Node20</title>
<g id="a_node20"><a xlink:href="classIdelaye3Wrapper.html" target="_top" xlink:title=" ">
<polygon fill="white" stroke="black" points="731,-323.5 731,-342.5 831,-342.5 831,-323.5 731,-323.5"/>
<text text-anchor="middle" x="781" y="-330.5" font-family="Helvetica,sans-Serif" font-size="10.00">Idelaye3Wrapper</text>
</a>
</g>
</g>
<!-- Node20&#45;&gt;Node19 -->
<g id="edge22" class="edge">
<title>Node20&#45;&gt;Node19</title>
<path fill="none" stroke="midnightblue" d="M841.36,-333C860.1,-333 881.1,-333 900.95,-333"/>
<polygon fill="midnightblue" stroke="midnightblue" points="841.2,-329.5 831.2,-333 841.2,-336.5 841.2,-329.5"/>
</g>
<!-- Node21 -->
<g id="node21" class="node">
<title>Node21</title>
<g id="a_node21"><a xlink:href="classDelaye3PatchFsm.html" target="_top" xlink:title=" ">
<polygon fill="white" stroke="black" points="540.5,-323.5 540.5,-342.5 644.5,-342.5 644.5,-323.5 540.5,-323.5"/>
<text text-anchor="middle" x="592.5" y="-330.5" font-family="Helvetica,sans-Serif" font-size="10.00">Delaye3PatchFsm</text>
</a>
</g>
</g>
<!-- Node21&#45;&gt;Node20 -->
<g id="edge23" class="edge">
<title>Node21&#45;&gt;Node20</title>
<path fill="none" stroke="midnightblue" d="M655.27,-333C679.87,-333 707.79,-333 730.96,-333"/>
<polygon fill="midnightblue" stroke="midnightblue" points="654.96,-329.5 644.96,-333 654.96,-336.5 654.96,-329.5"/>
</g>
<!-- Node22 -->
<g id="node22" class="node">
<title>Node22</title>
<g id="a_node22"><a xlink:href="classSspLowSpeedDecoder8b10bWrapper.html" target="_top" xlink:title=" ">
<polygon fill="white" stroke="black" points="1278,-133.5 1278,-152.5 1473,-152.5 1473,-133.5 1278,-133.5"/>
<text text-anchor="middle" x="1375.5" y="-140.5" font-family="Helvetica,sans-Serif" font-size="10.00">SspLowSpeedDecoder8b10bWrapper</text>
</a>
</g>
</g>
<!-- Node22&#45;&gt;Node1 -->
<g id="edge24" class="edge">
<title>Node22&#45;&gt;Node1</title>
<path fill="none" stroke="midnightblue" d="M1445.79,-154.2C1479.69,-159.69 1520.07,-166.22 1552.48,-171.46"/>
<polygon fill="midnightblue" stroke="midnightblue" points="1445.93,-150.68 1435.5,-152.54 1444.81,-157.59 1445.93,-150.68"/>
</g>
<!-- Node23&#45;&gt;Node22 -->
<g id="edge25" class="edge">
<title>Node23&#45;&gt;Node22</title>
<path fill="none" stroke="midnightblue" d="M1252.28,-143C1260.74,-143 1269.39,-143 1277.98,-143"/>
<polygon fill="midnightblue" stroke="midnightblue" points="1252.06,-139.5 1242.06,-143 1252.06,-146.5 1252.06,-139.5"/>
</g>
<!-- Node24 -->
<g id="node24" class="node">
<title>Node24</title>
<g id="a_node24"><a xlink:href="classSelectIoRxGearboxAligner.html" target="_top" xlink:title=" ">
<polygon fill="white" stroke="black" points="908,-95.5 908,-114.5 1052,-114.5 1052,-95.5 908,-95.5"/>
<text text-anchor="middle" x="980" y="-102.5" font-family="Helvetica,sans-Serif" font-size="10.00">SelectIoRxGearboxAligner</text>
</a>
</g>
</g>
<!-- Node24&#45;&gt;Node23 -->
<g id="edge28" class="edge">
<title>Node24&#45;&gt;Node23</title>
<path fill="none" stroke="midnightblue" d="M1037.98,-116.61C1064.5,-122.01 1095.67,-128.36 1120.78,-133.48"/>
<polygon fill="midnightblue" stroke="midnightblue" points="1038.56,-113.16 1028.06,-114.59 1037.16,-120.02 1038.56,-113.16"/>
</g>
<!-- Node25 -->
<g id="node25" class="node">
<title>Node25</title>
<g id="a_node25"><a xlink:href="classSspDecoder10b12b.html" target="_top" xlink:title=" ">
<polygon fill="white" stroke="black" points="925,-133.5 925,-152.5 1035,-152.5 1035,-133.5 925,-133.5"/>
<text text-anchor="middle" x="980" y="-140.5" font-family="Helvetica,sans-Serif" font-size="10.00">SspDecoder10b12b</text>
</a>
</g>
</g>
<!-- Node25&#45;&gt;Node23 -->
<g id="edge29" class="edge">
<title>Node25&#45;&gt;Node23</title>
<path fill="none" stroke="midnightblue" d="M1045.45,-143C1061.35,-143 1078.5,-143 1094.77,-143"/>
<polygon fill="midnightblue" stroke="midnightblue" points="1045.19,-139.5 1035.19,-143 1045.19,-146.5 1045.19,-139.5"/>
</g>
<!-- Node26 -->
<g id="node26" class="node">
<title>Node26</title>
<g id="a_node26"><a xlink:href="classDecoder10b12b.html" target="_top" xlink:title=" ">
<polygon fill="white" stroke="black" points="734.5,-114.5 734.5,-133.5 827.5,-133.5 827.5,-114.5 734.5,-114.5"/>
<text text-anchor="middle" x="781" y="-121.5" font-family="Helvetica,sans-Serif" font-size="10.00">Decoder10b12b</text>
</a>
</g>
</g>
<!-- Node26&#45;&gt;Node25 -->
<g id="edge30" class="edge">
<title>Node26&#45;&gt;Node25</title>
<path fill="none" stroke="midnightblue" d="M837.85,-129.39C865.11,-132.02 897.77,-135.17 924.81,-137.77"/>
<polygon fill="midnightblue" stroke="midnightblue" points="837.98,-125.88 827.69,-128.41 837.31,-132.85 837.98,-125.88"/>
</g>
<!-- Node27 -->
<g id="node27" class="node">
<title>Node27</title>
<g id="a_node27"><a xlink:href="classSspDeframer.html" target="_top" xlink:title=" ">
<polygon fill="white" stroke="black" points="741,-38.5 741,-57.5 821,-57.5 821,-38.5 741,-38.5"/>
<text text-anchor="middle" x="781" y="-45.5" font-family="Helvetica,sans-Serif" font-size="10.00">SspDeframer</text>
</a>
</g>
</g>
<!-- Node27&#45;&gt;Node25 -->
<g id="edge31" class="edge">
<title>Node27&#45;&gt;Node25</title>
<path fill="none" stroke="midnightblue" d="M831.19,-52.69C843.03,-55.52 855.1,-59.99 865,-67 889.45,-84.32 876.67,-106.51 901,-124 908.02,-129.04 916.21,-132.76 924.6,-135.49"/>
<polygon fill="midnightblue" stroke="midnightblue" points="831.84,-49.25 821.34,-50.67 830.44,-56.11 831.84,-49.25"/>
</g>
<!-- Node28 -->
<g id="node28" class="node">
<title>Node28</title>
<g id="a_node28"><a xlink:href="classSspDecoder12b14b.html" target="_top" xlink:title=" ">
<polygon fill="white" stroke="black" points="925,-19.5 925,-38.5 1035,-38.5 1035,-19.5 925,-19.5"/>
<text text-anchor="middle" x="980" y="-26.5" font-family="Helvetica,sans-Serif" font-size="10.00">SspDecoder12b14b</text>
</a>
</g>
</g>
<!-- Node27&#45;&gt;Node28 -->
<g id="edge34" class="edge">
<title>Node27&#45;&gt;Node28</title>
<path fill="none" stroke="midnightblue" d="M831.5,-43.23C859.9,-40.49 895.59,-37.04 924.75,-34.23"/>
<polygon fill="midnightblue" stroke="midnightblue" points="831.01,-39.76 821.39,-44.2 831.68,-46.72 831.01,-39.76"/>
</g>
<!-- Node30 -->
<g id="node30" class="node">
<title>Node30</title>
<g id="a_node30"><a xlink:href="classSspDecoder8b10b.html" target="_top" xlink:title=" ">
<polygon fill="white" stroke="black" points="928,-57.5 928,-76.5 1032,-76.5 1032,-57.5 928,-57.5"/>
<text text-anchor="middle" x="980" y="-64.5" font-family="Helvetica,sans-Serif" font-size="10.00">SspDecoder8b10b</text>
</a>
</g>
</g>
<!-- Node27&#45;&gt;Node30 -->
<g id="edge37" class="edge">
<title>Node27&#45;&gt;Node30</title>
<path fill="none" stroke="midnightblue" d="M831.43,-52.77C860.81,-55.6 898.01,-59.19 927.71,-62.05"/>
<polygon fill="midnightblue" stroke="midnightblue" points="831.68,-49.28 821.39,-51.8 831.01,-56.24 831.68,-49.28"/>
</g>
<!-- Node28&#45;&gt;Node23 -->
<g id="edge32" class="edge">
<title>Node28&#45;&gt;Node23</title>
<path fill="none" stroke="midnightblue" d="M1044.65,-39.23C1049.8,-41.59 1054.68,-44.48 1059,-48 1087.98,-71.61 1066.23,-100.14 1095,-124 1099.71,-127.9 1105.13,-131.01 1110.85,-133.49"/>
<polygon fill="midnightblue" stroke="midnightblue" points="1045.73,-35.9 1035.14,-35.52 1043.19,-42.42 1045.73,-35.9"/>
</g>
<!-- Node29 -->
<g id="node29" class="node">
<title>Node29</title>
<g id="a_node29"><a xlink:href="classDecoder12b14b.html" target="_top" xlink:title=" ">
<polygon fill="white" stroke="black" points="734.5,-0.5 734.5,-19.5 827.5,-19.5 827.5,-0.5 734.5,-0.5"/>
<text text-anchor="middle" x="781" y="-7.5" font-family="Helvetica,sans-Serif" font-size="10.00">Decoder12b14b</text>
</a>
</g>
</g>
<!-- Node29&#45;&gt;Node28 -->
<g id="edge33" class="edge">
<title>Node29&#45;&gt;Node28</title>
<path fill="none" stroke="midnightblue" d="M837.85,-15.39C865.11,-18.02 897.77,-21.17 924.81,-23.77"/>
<polygon fill="midnightblue" stroke="midnightblue" points="837.98,-11.88 827.69,-14.41 837.31,-18.85 837.98,-11.88"/>
</g>
<!-- Node30&#45;&gt;Node23 -->
<g id="edge35" class="edge">
<title>Node30&#45;&gt;Node23</title>
<path fill="none" stroke="midnightblue" d="M1041.71,-78.09C1047.75,-80.27 1053.62,-82.88 1059,-86 1079.12,-97.67 1074.98,-112.15 1095,-124 1101.49,-127.84 1108.77,-130.92 1116.13,-133.38"/>
<polygon fill="midnightblue" stroke="midnightblue" points="1042.74,-74.74 1032.15,-75 1040.59,-81.4 1042.74,-74.74"/>
</g>
<!-- Node31 -->
<g id="node31" class="node">
<title>Node31</title>
<g id="a_node31"><a xlink:href="classDecoder8b10b.html" target="_top" xlink:title=" ">
<polygon fill="white" stroke="black" points="737.5,-76.5 737.5,-95.5 824.5,-95.5 824.5,-76.5 737.5,-76.5"/>
<text text-anchor="middle" x="781" y="-83.5" font-family="Helvetica,sans-Serif" font-size="10.00">Decoder8b10b</text>
</a>
</g>
</g>
<!-- Node31&#45;&gt;Node30 -->
<g id="edge36" class="edge">
<title>Node31&#45;&gt;Node30</title>
<path fill="none" stroke="midnightblue" d="M835.05,-80.88C863.9,-78.1 899.42,-74.68 927.96,-71.92"/>
<polygon fill="midnightblue" stroke="midnightblue" points="834.36,-77.43 824.75,-81.88 835.04,-84.4 834.36,-77.43"/>
</g>
<!-- Node32&#45;&gt;Node22 -->
<g id="edge38" class="edge">
<title>Node32&#45;&gt;Node22</title>
<path fill="none" stroke="midnightblue" d="M1205.05,-205.82C1246.05,-190.62 1312.43,-166.01 1348.75,-152.55"/>
<polygon fill="midnightblue" stroke="midnightblue" points="1203.62,-202.62 1195.46,-209.37 1206.06,-209.18 1203.62,-202.62"/>
</g>
<!-- Node33&#45;&gt;Node32 -->
<g id="edge40" class="edge">
<title>Node33&#45;&gt;Node32</title>
<path fill="none" stroke="midnightblue" d="M1041.17,-219C1058.87,-219 1078.4,-219 1096.7,-219"/>
<polygon fill="midnightblue" stroke="midnightblue" points="1040.98,-215.5 1030.98,-219 1040.98,-222.5 1040.98,-215.5"/>
</g>
<!-- Node34 -->
<g id="node34" class="node">
<title>Node34</title>
<g id="a_node34"><a xlink:href="classSynchronizerOneShotCntVector.html" target="_top" xlink:title=" ">
<polygon fill="white" stroke="black" points="697,-209.5 697,-228.5 865,-228.5 865,-209.5 697,-209.5"/>
<text text-anchor="middle" x="781" y="-216.5" font-family="Helvetica,sans-Serif" font-size="10.00">SynchronizerOneShotCntVector</text>
</a>
</g>
</g>
<!-- Node34&#45;&gt;Node33 -->
<g id="edge42" class="edge">
<title>Node34&#45;&gt;Node33</title>
<path fill="none" stroke="midnightblue" d="M875.3,-219C893.99,-219 912.93,-219 929.42,-219"/>
<polygon fill="midnightblue" stroke="midnightblue" points="875.26,-215.5 865.26,-219 875.26,-222.5 875.26,-215.5"/>
</g>
<!-- Node35&#45;&gt;Node34 -->
<g id="edge43" class="edge">
<title>Node35&#45;&gt;Node34</title>
<path fill="none" stroke="midnightblue" d="M498.16,-219C555.33,-219 636.44,-219 696.98,-219"/>
<polygon fill="midnightblue" stroke="midnightblue" points="498.13,-215.5 488.13,-219 498.13,-222.5 498.13,-215.5"/>
</g>
<!-- Node37 -->
<g id="node37" class="node">
<title>Node37</title>
<g id="a_node37"><a xlink:href="classSynchronizerOneShotCnt.html" target="_top" xlink:title=" ">
<polygon fill="white" stroke="black" points="524,-228.5 524,-247.5 661,-247.5 661,-228.5 524,-228.5"/>
<text text-anchor="middle" x="592.5" y="-235.5" font-family="Helvetica,sans-Serif" font-size="10.00">SynchronizerOneShotCnt</text>
</a>
</g>
</g>
<!-- Node35&#45;&gt;Node37 -->
<g id="edge48" class="edge">
<title>Node35&#45;&gt;Node37</title>
<path fill="none" stroke="midnightblue" d="M498.41,-227.15C506.81,-228.13 515.38,-229.13 523.75,-230.1"/>
<polygon fill="midnightblue" stroke="midnightblue" points="498.61,-223.65 488.27,-225.97 497.8,-230.6 498.61,-223.65"/>
</g>
<!-- Node36&#45;&gt;Node35 -->
<g id="edge45" class="edge">
<title>Node36&#45;&gt;Node35</title>
<path fill="none" stroke="midnightblue" d="M226.59,-173.78C273.24,-184.33 340.79,-199.61 384.18,-209.43"/>
<polygon fill="midnightblue" stroke="midnightblue" points="227.2,-170.33 216.68,-171.54 225.66,-177.16 227.2,-170.33"/>
</g>
<!-- Node37&#45;&gt;Node34 -->
<g id="edge47" class="edge">
<title>Node37&#45;&gt;Node34</title>
<path fill="none" stroke="midnightblue" d="M671.25,-230.08C679.67,-229.22 688.25,-228.35 696.73,-227.48"/>
<polygon fill="midnightblue" stroke="midnightblue" points="670.69,-226.62 661.09,-231.11 671.4,-233.58 670.69,-226.62"/>
</g>
<!-- Node38&#45;&gt;Node37 -->
<g id="edge49" class="edge">
<title>Node38&#45;&gt;Node37</title>
<path fill="none" stroke="midnightblue" d="M486.49,-250.24C498.6,-248.83 511.47,-247.33 523.89,-245.88"/>
<polygon fill="midnightblue" stroke="midnightblue" points="486.05,-246.77 476.52,-251.4 486.86,-253.72 486.05,-246.77"/>
</g>
</g>
</svg>
        <g id="navigator" transform="translate(0 0)" fill="#404254">
                <rect fill="#f2f5e9" fill-opacity="0.5" stroke="#606060" stroke-width=".5" x="0" y="0" width="60" height="60"/>
                <use id="zoomplus" xlink:href="#zoomPlus" x="17" y="9" onmousedown="handleZoom(evt,'in')"/>
                <use id="zoomminus" xlink:href="#zoomMin" x="42" y="9" onmousedown="handleZoom(evt,'out')"/>
                <use id="reset" xlink:href="#resetDef" x="30" y="36" onmousedown="handleReset()"/>
                <g id="arrowUp" xlink:href="#dirArrow" transform="translate(30 24)" onmousedown="handlePan(0,-1)">
                  <use xlink:href="#rim" fill="#404040">
                        <set attributeName="fill" to="#808080" begin="arrowUp.mouseover" end="arrowUp.mouseout"/>
                  </use>
                  <path fill="none" stroke="white" stroke-width="1.5" d="M0,-3.0v7 M-2.5,-0.5L0,-3.0L2.5,-0.5"/>
                </g>
                <g id="arrowRight" xlink:href="#dirArrow" transform="rotate(90) translate(36 -43)" onmousedown="handlePan(1,0)">
                  <use xlink:href="#rim" fill="#404040">
                        <set attributeName="fill" to="#808080" begin="arrowRight.mouseover" end="arrowRight.mouseout"/>
                  </use>
                  <path fill="none" stroke="white" stroke-width="1.5" d="M0,-3.0v7 M-2.5,-0.5L0,-3.0L2.5,-0.5"/>
                </g>
                <g id="arrowDown" xlink:href="#dirArrow" transform="rotate(180) translate(-30 -48)" onmousedown="handlePan(0,1)">
                  <use xlink:href="#rim" fill="#404040">
                        <set attributeName="fill" to="#808080" begin="arrowDown.mouseover" end="arrowDown.mouseout"/>
                  </use>
                  <path fill="none" stroke="white" stroke-width="1.5" d="M0,-3.0v7 M-2.5,-0.5L0,-3.0L2.5,-0.5"/>
                </g>
                <g id="arrowLeft" xlink:href="#dirArrow" transform="rotate(270) translate(-36 17)" onmousedown="handlePan(-1,0)">
                  <use xlink:href="#rim" fill="#404040">
                        <set attributeName="fill" to="#808080" begin="arrowLeft.mouseover" end="arrowLeft.mouseout"/>
                  </use>
                  <path fill="none" stroke="white" stroke-width="1.5" d="M0,-3.0v7 M-2.5,-0.5L0,-3.0L2.5,-0.5"/>
                </g>
        </g>
        <svg viewBox="0 0 15 15" width="100%" height="30px" preserveAspectRatio="xMaxYMin meet">
         <g id="arrow_out" transform="scale(0.3 0.3)">
          <a xlink:href="classSspLowSpeedDecoder8b10bWrapperTb__coll__graph_org.svg" target="_base">
           <rect id="button" ry="5" rx="5" y="6" x="6" height="38" width="38"
                fill="#f2f5e9" fill-opacity="0.5" stroke="#606060" stroke-width="1.0"/>
           <path id="arrow"
             d="M 11.500037,31.436501 C 11.940474,20.09759 22.043105,11.32322 32.158766,21.979434 L 37.068811,17.246167 C 37.068811,17.246167 37.088388,32 37.088388,32 L 22.160133,31.978069 C 22.160133,31.978069 26.997745,27.140456 26.997745,27.140456 C 18.528582,18.264221 13.291696,25.230495 11.500037,31.436501 z"
             style="fill:#404040;"/>
          </a>
         </g>
        </svg>
</svg>
