<?xml version="1.0" encoding="UTF-8" standalone="no"?>
<!DOCTYPE svg PUBLIC "-//W3C//DTD SVG 1.1//EN"
 "http://www.w3.org/Graphics/SVG/1.1/DTD/svg11.dtd">
<!-- Generated by graphviz version 2.43.0 (0)
 -->
<!-- Title: SsiInsertSof Pages: 1 -->
<svg width="1411pt" height="280pt"
 viewBox="0.00 0.00 1411.00 279.50" xmlns="http://www.w3.org/2000/svg" xmlns:xlink="http://www.w3.org/1999/xlink">
<g id="graph0" class="graph" transform="scale(1 1) rotate(0) translate(4 275.5)">
<title>SsiInsertSof</title>
<!-- Node1 -->
<g id="Node000001" class="node">
<title>Node1</title>
<g id="a_Node000001"><a xlink:title=" ">
<polygon fill="#999999" stroke="#666666" points="899,-158.5 825,-158.5 825,-139.5 899,-139.5 899,-158.5"/>
<text text-anchor="middle" x="862" y="-146.5" font-family="Helvetica,sans-Serif" font-size="10.00">SsiInsertSof</text>
</a>
</g>
</g>
<!-- Node19 -->
<g id="Node000019" class="node">
<title>Node19</title>
<g id="a_Node000019"><a xlink:href="classAxiStreamResizeTb.html" target="_top" xlink:title=" ">
<polygon fill="white" stroke="#bfbfbf" points="1071,-251.5 959,-251.5 959,-232.5 1071,-232.5 1071,-251.5"/>
<text text-anchor="middle" x="1015" y="-239.5" font-family="Helvetica,sans-Serif" font-size="10.00">AxiStreamResizeTb</text>
</a>
</g>
</g>
<!-- Node1&#45;&gt;Node19 -->
<g id="edge29_Node000001_Node000019" class="edge">
<title>Node1&#45;&gt;Node19</title>
<g id="a_edge29_Node000001_Node000019"><a xlink:title=" ">
<path fill="none" stroke="#63b8ff" d="M875.15,-166.7C888,-184.01 909.85,-209.77 935,-224 942.35,-228.16 950.59,-231.35 958.9,-233.81"/>
<polygon fill="#63b8ff" stroke="#63b8ff" points="877.96,-164.61 869.29,-158.53 872.28,-168.69 877.96,-164.61"/>
</a>
</g>
</g>
<!-- Node20 -->
<g id="Node000020" class="node">
<title>Node20</title>
<g id="a_Node000020"><a xlink:href="classHtspTxFifo.html" target="_top" xlink:title=" ">
<polygon fill="white" stroke="#bfbfbf" points="1049.5,-214.5 980.5,-214.5 980.5,-195.5 1049.5,-195.5 1049.5,-214.5"/>
<text text-anchor="middle" x="1015" y="-202.5" font-family="Helvetica,sans-Serif" font-size="10.00">HtspTxFifo</text>
</a>
</g>
</g>
<!-- Node1&#45;&gt;Node20 -->
<g id="edge30_Node000001_Node000020" class="edge">
<title>Node1&#45;&gt;Node20</title>
<g id="a_edge30_Node000001_Node000020"><a xlink:title=" ">
<path fill="none" stroke="#63b8ff" d="M886.94,-163.67C900.62,-171.52 918.31,-180.82 935,-187 949.51,-192.38 966.14,-196.46 980.38,-199.36"/>
<polygon fill="#63b8ff" stroke="#63b8ff" points="888.58,-160.57 878.19,-158.52 885.03,-166.61 888.58,-160.57"/>
</a>
</g>
</g>
<!-- Node21 -->
<g id="Node000021" class="node">
<title>Node21</title>
<g id="a_Node000021"><a xlink:href="classPgp4CoreLiteTb.html" target="_top" xlink:title=" ">
<polygon fill="white" stroke="#bfbfbf" points="1061.5,-177.5 968.5,-177.5 968.5,-158.5 1061.5,-158.5 1061.5,-177.5"/>
<text text-anchor="middle" x="1015" y="-165.5" font-family="Helvetica,sans-Serif" font-size="10.00">Pgp4CoreLiteTb</text>
</a>
</g>
</g>
<!-- Node1&#45;&gt;Node21 -->
<g id="edge31_Node000001_Node000021" class="edge">
<title>Node1&#45;&gt;Node21</title>
<g id="a_edge31_Node000001_Node000021"><a xlink:title=" ">
<path fill="none" stroke="#63b8ff" d="M909.27,-154.82C928.04,-157.18 949.67,-159.91 968.38,-162.26"/>
<polygon fill="#63b8ff" stroke="#63b8ff" points="909.53,-151.33 899.17,-153.55 908.65,-158.27 909.53,-151.33"/>
</a>
</g>
</g>
<!-- Node22 -->
<g id="Node000022" class="node">
<title>Node22</title>
<g id="a_Node000022"><a xlink:href="classPgp4CoreTb.html" target="_top" xlink:title=" ">
<polygon fill="white" stroke="#bfbfbf" points="1052.5,-140.5 977.5,-140.5 977.5,-121.5 1052.5,-121.5 1052.5,-140.5"/>
<text text-anchor="middle" x="1015" y="-128.5" font-family="Helvetica,sans-Serif" font-size="10.00">Pgp4CoreTb</text>
</a>
</g>
</g>
<!-- Node1&#45;&gt;Node22 -->
<g id="edge32_Node000001_Node000022" class="edge">
<title>Node1&#45;&gt;Node22</title>
<g id="a_edge32_Node000001_Node000022"><a xlink:title=" ">
<path fill="none" stroke="#63b8ff" d="M909.23,-143.49C931.1,-140.88 956.84,-137.81 977.34,-135.37"/>
<polygon fill="#63b8ff" stroke="#63b8ff" points="908.68,-140.03 899.17,-144.69 909.51,-146.98 908.68,-140.03"/>
</a>
</g>
</g>
<!-- Node23 -->
<g id="Node000023" class="node">
<title>Node23</title>
<g id="a_Node000023"><a xlink:href="classCoaXPressRx.html" target="_top" xlink:title=" ">
<polygon fill="white" stroke="#bfbfbf" points="1055.5,-103.5 974.5,-103.5 974.5,-84.5 1055.5,-84.5 1055.5,-103.5"/>
<text text-anchor="middle" x="1015" y="-91.5" font-family="Helvetica,sans-Serif" font-size="10.00">CoaXPressRx</text>
</a>
</g>
</g>
<!-- Node1&#45;&gt;Node23 -->
<g id="edge33_Node000001_Node000023" class="edge">
<title>Node1&#45;&gt;Node23</title>
<g id="a_edge33_Node000001_Node000023"><a xlink:title=" ">
<path fill="none" stroke="#63b8ff" d="M887.52,-134.45C901.13,-126.88 918.58,-117.98 935,-112 947.56,-107.43 961.67,-103.77 974.46,-100.98"/>
<polygon fill="#63b8ff" stroke="#63b8ff" points="885.74,-131.44 878.78,-139.43 889.2,-137.52 885.74,-131.44"/>
</a>
</g>
</g>
<!-- Node27 -->
<g id="Node000027" class="node">
<title>Node27</title>
<g id="a_Node000027"><a xlink:href="classMicroblazeBasicCoreWrapper.html" target="_top" xlink:title=" ">
<polygon fill="white" stroke="#bfbfbf" points="1095,-66.5 935,-66.5 935,-47.5 1095,-47.5 1095,-66.5"/>
<text text-anchor="middle" x="1015" y="-54.5" font-family="Helvetica,sans-Serif" font-size="10.00">MicroblazeBasicCoreWrapper</text>
</a>
</g>
</g>
<!-- Node1&#45;&gt;Node27 -->
<g id="edge37_Node000001_Node000027" class="edge">
<title>Node1&#45;&gt;Node27</title>
<g id="a_edge37_Node000001_Node000027"><a xlink:title=" ">
<path fill="none" stroke="#63b8ff" d="M875.41,-131.27C888.33,-114.2 910.11,-88.97 935,-75 941.13,-71.56 947.88,-68.77 954.78,-66.52"/>
<polygon fill="#63b8ff" stroke="#63b8ff" points="872.58,-129.21 869.5,-139.35 878.23,-133.34 872.58,-129.21"/>
</a>
</g>
</g>
<!-- Node2 -->
<g id="Node000002" class="node">
<title>Node2</title>
<g id="a_Node000002"><a xlink:href="classAxiStreamFifoV2.html" target="_top" xlink:title=" ">
<polygon fill="white" stroke="#bfbfbf" points="789,-158.5 691,-158.5 691,-139.5 789,-139.5 789,-158.5"/>
<text text-anchor="middle" x="740" y="-146.5" font-family="Helvetica,sans-Serif" font-size="10.00">AxiStreamFifoV2</text>
</a>
</g>
</g>
<!-- Node2&#45;&gt;Node1 -->
<g id="edge1_Node000001_Node000002" class="edge">
<title>Node2&#45;&gt;Node1</title>
<g id="a_edge1_Node000001_Node000002"><a xlink:title=" ">
<path fill="none" stroke="#63b8ff" d="M799.24,-149C807.92,-149 816.65,-149 824.7,-149"/>
<polygon fill="#63b8ff" stroke="#63b8ff" points="799.12,-145.5 789.12,-149 799.12,-152.5 799.12,-145.5"/>
</a>
</g>
</g>
<!-- Node3 -->
<g id="Node000003" class="node">
<title>Node3</title>
<g id="a_Node000003"><a xlink:href="classAxiStreamGearbox.html" target="_top" xlink:title=" ">
<polygon fill="white" stroke="#bfbfbf" points="655,-215.5 546,-215.5 546,-196.5 655,-196.5 655,-215.5"/>
<text text-anchor="middle" x="600.5" y="-203.5" font-family="Helvetica,sans-Serif" font-size="10.00">AxiStreamGearbox</text>
</a>
</g>
</g>
<!-- Node3&#45;&gt;Node2 -->
<g id="edge2_Node000002_Node000003" class="edge">
<title>Node3&#45;&gt;Node2</title>
<g id="a_edge2_Node000002_Node000003"><a xlink:title=" ">
<path fill="none" stroke="#63b8ff" d="M634.02,-192.52C659.2,-182.08 693.48,-167.87 715.91,-158.57"/>
<polygon fill="#63b8ff" stroke="#63b8ff" points="632.41,-189.4 624.51,-196.46 635.09,-195.86 632.41,-189.4"/>
</a>
</g>
</g>
<!-- Node4 -->
<g id="Node000004" class="node">
<title>Node4</title>
<g id="a_Node000004"><a xlink:href="classAxiStreamResize.html" target="_top" xlink:title=" ">
<polygon fill="white" stroke="#bfbfbf" points="510,-253.5 410,-253.5 410,-234.5 510,-234.5 510,-253.5"/>
<text text-anchor="middle" x="460" y="-241.5" font-family="Helvetica,sans-Serif" font-size="10.00">AxiStreamResize</text>
</a>
</g>
</g>
<!-- Node4&#45;&gt;Node3 -->
<g id="edge3_Node000003_Node000004" class="edge">
<title>Node4&#45;&gt;Node3</title>
<g id="a_edge3_Node000003_Node000004"><a xlink:title=" ">
<path fill="none" stroke="#63b8ff" d="M505.63,-231.75C524.72,-226.52 546.68,-220.49 564.56,-215.59"/>
<polygon fill="#63b8ff" stroke="#63b8ff" points="504.67,-228.39 495.95,-234.41 506.52,-235.14 504.67,-228.39"/>
</a>
</g>
</g>
<!-- Node5 -->
<g id="Node000005" class="node">
<title>Node5</title>
<g id="a_Node000005"><a xlink:href="classAxiStreamPipeline.html" target="_top" xlink:title=" ">
<polygon fill="white" stroke="#bfbfbf" points="374,-234.5 267,-234.5 267,-215.5 374,-215.5 374,-234.5"/>
<text text-anchor="middle" x="320.5" y="-222.5" font-family="Helvetica,sans-Serif" font-size="10.00">AxiStreamPipeline</text>
</a>
</g>
</g>
<!-- Node5&#45;&gt;Node2 -->
<g id="edge28_Node000002_Node000005" class="edge">
<title>Node5&#45;&gt;Node2</title>
<g id="a_edge28_Node000002_Node000005"><a xlink:title=" ">
<path fill="none" stroke="#63b8ff" d="M380.7,-213.52C390.48,-211.66 400.52,-209.76 410,-208 509.7,-189.49 626.59,-168.76 690.74,-157.46"/>
<polygon fill="#63b8ff" stroke="#63b8ff" points="379.8,-210.13 370.63,-215.45 381.11,-217.01 379.8,-210.13"/>
</a>
</g>
</g>
<!-- Node5&#45;&gt;Node3 -->
<g id="edge5_Node000003_Node000005" class="edge">
<title>Node5&#45;&gt;Node3</title>
<g id="a_edge5_Node000003_Node000005"><a xlink:title=" ">
<path fill="none" stroke="#63b8ff" d="M384.2,-220.71C432.81,-217.39 499.47,-212.84 545.68,-209.68"/>
<polygon fill="#63b8ff" stroke="#63b8ff" points="383.85,-217.23 374.12,-221.4 384.33,-224.21 383.85,-217.23"/>
</a>
</g>
</g>
<!-- Node5&#45;&gt;Node4 -->
<g id="edge4_Node000004_Node000005" class="edge">
<title>Node5&#45;&gt;Node4</title>
<g id="a_edge4_Node000004_Node000005"><a xlink:title=" ">
<path fill="none" stroke="#63b8ff" d="M384.23,-233.67C392.79,-234.85 401.48,-236.05 409.76,-237.2"/>
<polygon fill="#63b8ff" stroke="#63b8ff" points="384.65,-230.19 374.27,-232.29 383.69,-237.13 384.65,-230.19"/>
</a>
</g>
</g>
<!-- Node6 -->
<g id="Node000006" class="node">
<title>Node6</title>
<g id="a_Node000006"><a xlink:href="classFifoCascade.html" target="_top" xlink:title=" ">
<polygon fill="white" stroke="#bfbfbf" points="638.5,-139.5 562.5,-139.5 562.5,-120.5 638.5,-120.5 638.5,-139.5"/>
<text text-anchor="middle" x="600.5" y="-127.5" font-family="Helvetica,sans-Serif" font-size="10.00">FifoCascade</text>
</a>
</g>
</g>
<!-- Node6&#45;&gt;Node2 -->
<g id="edge6_Node000002_Node000006" class="edge">
<title>Node6&#45;&gt;Node2</title>
<g id="a_edge6_Node000002_Node000006"><a xlink:title=" ">
<path fill="none" stroke="#63b8ff" d="M648.82,-136.54C662.42,-138.42 677.25,-140.47 690.89,-142.35"/>
<polygon fill="#63b8ff" stroke="#63b8ff" points="649.09,-133.04 638.71,-135.14 648.14,-139.98 649.09,-133.04"/>
</a>
</g>
</g>
<!-- Node7 -->
<g id="Node000007" class="node">
<title>Node7</title>
<g id="a_Node000007"><a xlink:href="classFifo.html" target="_top" xlink:title=" ">
<polygon fill="white" stroke="#bfbfbf" points="477.5,-139.5 442.5,-139.5 442.5,-120.5 477.5,-120.5 477.5,-139.5"/>
<text text-anchor="middle" x="460" y="-127.5" font-family="Helvetica,sans-Serif" font-size="10.00">Fifo</text>
</a>
</g>
</g>
<!-- Node7&#45;&gt;Node6 -->
<g id="edge7_Node000006_Node000007" class="edge">
<title>Node7&#45;&gt;Node6</title>
<g id="a_edge7_Node000006_Node000007"><a xlink:title=" ">
<path fill="none" stroke="#63b8ff" d="M487.94,-130C509.16,-130 538.96,-130 562.43,-130"/>
<polygon fill="#63b8ff" stroke="#63b8ff" points="487.71,-126.5 477.71,-130 487.71,-133.5 487.71,-126.5"/>
</a>
</g>
</g>
<!-- Node8 -->
<g id="Node000008" class="node">
<title>Node8</title>
<g id="a_Node000008"><a xlink:href="classFifoXpm.html" target="_top" xlink:title=" ">
<polygon fill="white" stroke="#bfbfbf" points="349,-84.5 292,-84.5 292,-65.5 349,-65.5 349,-84.5"/>
<text text-anchor="middle" x="320.5" y="-72.5" font-family="Helvetica,sans-Serif" font-size="10.00">FifoXpm</text>
</a>
</g>
</g>
<!-- Node8&#45;&gt;Node7 -->
<g id="edge8_Node000007_Node000008" class="edge">
<title>Node8&#45;&gt;Node7</title>
<g id="a_edge8_Node000007_Node000008"><a xlink:title=" ">
<path fill="none" stroke="#63b8ff" d="M358.85,-87.39C363.97,-89.21 369.13,-91.11 374,-93 398,-102.32 425.21,-114.44 442.23,-122.23"/>
<polygon fill="#63b8ff" stroke="#63b8ff" points="359.77,-84.01 349.17,-84.02 357.46,-90.62 359.77,-84.01"/>
</a>
</g>
</g>
<!-- Node9 -->
<g id="Node000009" class="node">
<title>Node9</title>
<g id="a_Node000009"><a xlink:href="classRstSync.html" target="_top" xlink:title=" ">
<polygon fill="white" stroke="#bfbfbf" points="201.5,-47.5 145.5,-47.5 145.5,-28.5 201.5,-28.5 201.5,-47.5"/>
<text text-anchor="middle" x="173.5" y="-35.5" font-family="Helvetica,sans-Serif" font-size="10.00">RstSync</text>
</a>
</g>
</g>
<!-- Node9&#45;&gt;Node8 -->
<g id="edge9_Node000008_Node000009" class="edge">
<title>Node9&#45;&gt;Node8</title>
<g id="a_edge9_Node000008_Node000009"><a xlink:title=" ">
<path fill="none" stroke="#63b8ff" d="M211.64,-47.48C236.66,-53.86 269.11,-62.14 291.86,-67.95"/>
<polygon fill="#63b8ff" stroke="#63b8ff" points="212.33,-44.04 201.77,-44.96 210.6,-50.82 212.33,-44.04"/>
</a>
</g>
</g>
<!-- Node13 -->
<g id="Node000013" class="node">
<title>Node13</title>
<g id="a_Node000013"><a xlink:href="classFifoAsync.html" target="_top" xlink:title=" ">
<polygon fill="white" stroke="#bfbfbf" points="352.5,-159.5 288.5,-159.5 288.5,-140.5 352.5,-140.5 352.5,-159.5"/>
<text text-anchor="middle" x="320.5" y="-147.5" font-family="Helvetica,sans-Serif" font-size="10.00">FifoAsync</text>
</a>
</g>
</g>
<!-- Node9&#45;&gt;Node13 -->
<g id="edge15_Node000013_Node000009" class="edge">
<title>Node9&#45;&gt;Node13</title>
<g id="a_edge15_Node000013_Node000009"><a xlink:title=" ">
<path fill="none" stroke="#63b8ff" d="M211.36,-44.99C218.44,-47.59 225.38,-51.14 231,-56 258.66,-79.93 240.02,-105.31 267,-130 273.04,-135.53 280.78,-139.58 288.43,-142.54"/>
<polygon fill="#63b8ff" stroke="#63b8ff" points="212.34,-41.63 201.75,-42.02 210.27,-48.32 212.34,-41.63"/>
</a>
</g>
</g>
<!-- Node10 -->
<g id="Node000010" class="node">
<title>Node10</title>
<g id="a_Node000010"><a xlink:href="classSynchronizer.html" target="_top" xlink:title=" ">
<polygon fill="white" stroke="#bfbfbf" points="80,-47.5 0,-47.5 0,-28.5 80,-28.5 80,-47.5"/>
<text text-anchor="middle" x="40" y="-35.5" font-family="Helvetica,sans-Serif" font-size="10.00">Synchronizer</text>
</a>
</g>
</g>
<!-- Node10&#45;&gt;Node2 -->
<g id="edge27_Node000002_Node000010" class="edge">
<title>Node10&#45;&gt;Node2</title>
<g id="a_edge27_Node000002_Node000010"><a xlink:title=" ">
<path fill="none" stroke="#63b8ff" d="M83.76,-25.95C94.24,-23.34 105.47,-20.81 116,-19 205.52,-3.58 228.66,0 319.5,0 319.5,0 319.5,0 461,0 579.28,0 695.87,-106.08 729.42,-139.22"/>
<polygon fill="#63b8ff" stroke="#63b8ff" points="82.8,-22.58 73.99,-28.47 84.55,-29.36 82.8,-22.58"/>
</a>
</g>
</g>
<!-- Node10&#45;&gt;Node9 -->
<g id="edge10_Node000009_Node000010" class="edge">
<title>Node10&#45;&gt;Node9</title>
<g id="a_edge10_Node000009_Node000010"><a xlink:title=" ">
<path fill="none" stroke="#63b8ff" d="M90.24,-38C108.93,-38 129.52,-38 145.43,-38"/>
<polygon fill="#63b8ff" stroke="#63b8ff" points="90.1,-34.5 80.1,-38 90.1,-41.5 90.1,-34.5"/>
</a>
</g>
</g>
<!-- Node10&#45;&gt;Node13 -->
<g id="edge17_Node000013_Node000010" class="edge">
<title>Node10&#45;&gt;Node13</title>
<g id="a_edge17_Node000013_Node000010"><a xlink:title=" ">
<path fill="none" stroke="#63b8ff" d="M50.26,-56.58C62.19,-78.32 85.14,-113.44 116,-130 171.06,-159.54 246.6,-157.91 288.43,-154.01"/>
<polygon fill="#63b8ff" stroke="#63b8ff" points="53.32,-54.87 45.56,-47.65 47.12,-58.13 53.32,-54.87"/>
</a>
</g>
</g>
<!-- Node11 -->
<g id="Node000011" class="node">
<title>Node11</title>
<g id="a_Node000011"><a xlink:href="classFifoOutputPipeline.html" target="_top" xlink:title=" ">
<polygon fill="white" stroke="#bfbfbf" points="227,-84.5 120,-84.5 120,-65.5 227,-65.5 227,-84.5"/>
<text text-anchor="middle" x="173.5" y="-72.5" font-family="Helvetica,sans-Serif" font-size="10.00">FifoOutputPipeline</text>
</a>
</g>
</g>
<!-- Node11&#45;&gt;Node8 -->
<g id="edge11_Node000008_Node000011" class="edge">
<title>Node11&#45;&gt;Node8</title>
<g id="a_edge11_Node000008_Node000011"><a xlink:title=" ">
<path fill="none" stroke="#63b8ff" d="M237.4,-75C256.43,-75 276.36,-75 291.81,-75"/>
<polygon fill="#63b8ff" stroke="#63b8ff" points="237.26,-71.5 227.26,-75 237.26,-78.5 237.26,-71.5"/>
</a>
</g>
</g>
<!-- Node12 -->
<g id="Node000012" class="node">
<title>Node12</title>
<g id="a_Node000012"><a xlink:href="classFifoAlteraMf.html" target="_top" xlink:title=" ">
<polygon fill="white" stroke="#bfbfbf" points="359,-121.5 282,-121.5 282,-102.5 359,-102.5 359,-121.5"/>
<text text-anchor="middle" x="320.5" y="-109.5" font-family="Helvetica,sans-Serif" font-size="10.00">FifoAlteraMf</text>
</a>
</g>
</g>
<!-- Node11&#45;&gt;Node12 -->
<g id="edge13_Node000012_Node000011" class="edge">
<title>Node11&#45;&gt;Node12</title>
<g id="a_edge13_Node000012_Node000011"><a xlink:title=" ">
<path fill="none" stroke="#63b8ff" d="M221.77,-87.06C241.31,-92.05 263.65,-97.75 282.03,-102.44"/>
<polygon fill="#63b8ff" stroke="#63b8ff" points="222.4,-83.61 211.84,-84.53 220.67,-90.39 222.4,-83.61"/>
</a>
</g>
</g>
<!-- Node11&#45;&gt;Node13 -->
<g id="edge21_Node000013_Node000011" class="edge">
<title>Node11&#45;&gt;Node13</title>
<g id="a_edge21_Node000013_Node000011"><a xlink:title=" ">
<path fill="none" stroke="#63b8ff" d="M222.7,-88.51C225.58,-89.88 228.37,-91.37 231,-93 250.51,-105.07 247.83,-117.4 267,-130 273.52,-134.29 281.09,-137.85 288.42,-140.72"/>
<polygon fill="#63b8ff" stroke="#63b8ff" points="223.88,-85.21 213.31,-84.56 221.17,-91.67 223.88,-85.21"/>
</a>
</g>
</g>
<!-- Node18 -->
<g id="Node000018" class="node">
<title>Node18</title>
<g id="a_Node000018"><a xlink:href="classFifoSync.html" target="_top" xlink:title=" ">
<polygon fill="white" stroke="#bfbfbf" points="349.5,-197.5 291.5,-197.5 291.5,-178.5 349.5,-178.5 349.5,-197.5"/>
<text text-anchor="middle" x="320.5" y="-185.5" font-family="Helvetica,sans-Serif" font-size="10.00">FifoSync</text>
</a>
</g>
</g>
<!-- Node11&#45;&gt;Node18 -->
<g id="edge26_Node000018_Node000011" class="edge">
<title>Node11&#45;&gt;Node18</title>
<g id="a_edge26_Node000018_Node000011"><a xlink:title=" ">
<path fill="none" stroke="#63b8ff" d="M226.79,-89.73C228.26,-90.75 229.67,-91.84 231,-93 259.14,-117.6 239.34,-143.86 267,-169 273.81,-175.19 282.8,-179.41 291.41,-182.26"/>
<polygon fill="#63b8ff" stroke="#63b8ff" points="228.27,-86.54 217.85,-84.63 224.8,-92.62 228.27,-86.54"/>
</a>
</g>
</g>
<!-- Node12&#45;&gt;Node7 -->
<g id="edge12_Node000007_Node000012" class="edge">
<title>Node12&#45;&gt;Node7</title>
<g id="a_edge12_Node000007_Node000012"><a xlink:title=" ">
<path fill="none" stroke="#63b8ff" d="M369.27,-118.25C394.63,-121.57 424.2,-125.44 442.26,-127.81"/>
<polygon fill="#63b8ff" stroke="#63b8ff" points="369.44,-114.75 359.07,-116.92 368.53,-121.69 369.44,-114.75"/>
</a>
</g>
</g>
<!-- Node13&#45;&gt;Node7 -->
<g id="edge14_Node000007_Node000013" class="edge">
<title>Node13&#45;&gt;Node7</title>
<g id="a_edge14_Node000007_Node000013"><a xlink:title=" ">
<path fill="none" stroke="#63b8ff" d="M362.89,-143.98C389.45,-140.12 422.53,-135.31 442.14,-132.45"/>
<polygon fill="#63b8ff" stroke="#63b8ff" points="362.09,-140.56 352.7,-145.46 363.1,-147.49 362.09,-140.56"/>
</a>
</g>
</g>
<!-- Node14 -->
<g id="Node000014" class="node">
<title>Node14</title>
<g id="a_Node000014"><a xlink:href="classSynchronizerVector.html" target="_top" xlink:title=" ">
<polygon fill="white" stroke="#bfbfbf" points="228.5,-121.5 118.5,-121.5 118.5,-102.5 228.5,-102.5 228.5,-121.5"/>
<text text-anchor="middle" x="173.5" y="-109.5" font-family="Helvetica,sans-Serif" font-size="10.00">SynchronizerVector</text>
</a>
</g>
</g>
<!-- Node14&#45;&gt;Node13 -->
<g id="edge16_Node000013_Node000014" class="edge">
<title>Node14&#45;&gt;Node13</title>
<g id="a_edge16_Node000013_Node000014"><a xlink:title=" ">
<path fill="none" stroke="#63b8ff" d="M220.91,-124.16C242.94,-129.94 268.68,-136.68 288.33,-141.83"/>
<polygon fill="#63b8ff" stroke="#63b8ff" points="221.65,-120.74 211.09,-121.59 219.88,-127.51 221.65,-120.74"/>
</a>
</g>
</g>
<!-- Node15 -->
<g id="Node000015" class="node">
<title>Node15</title>
<g id="a_Node000015"><a xlink:href="classFifoWrFsm.html" target="_top" xlink:title=" ">
<polygon fill="white" stroke="#bfbfbf" points="208,-197.5 139,-197.5 139,-178.5 208,-178.5 208,-197.5"/>
<text text-anchor="middle" x="173.5" y="-185.5" font-family="Helvetica,sans-Serif" font-size="10.00">FifoWrFsm</text>
</a>
</g>
</g>
<!-- Node15&#45;&gt;Node13 -->
<g id="edge18_Node000013_Node000015" class="edge">
<title>Node15&#45;&gt;Node13</title>
<g id="a_edge18_Node000013_Node000015"><a xlink:title=" ">
<path fill="none" stroke="#63b8ff" d="M217.82,-176.65C240.39,-170.73 267.49,-163.63 288.04,-158.25"/>
<polygon fill="#63b8ff" stroke="#63b8ff" points="216.92,-173.27 208.13,-179.19 218.69,-180.04 216.92,-173.27"/>
</a>
</g>
</g>
<!-- Node15&#45;&gt;Node18 -->
<g id="edge23_Node000018_Node000015" class="edge">
<title>Node15&#45;&gt;Node18</title>
<g id="a_edge23_Node000018_Node000015"><a xlink:title=" ">
<path fill="none" stroke="#63b8ff" d="M218.31,-188C242.04,-188 270.67,-188 291.41,-188"/>
<polygon fill="#63b8ff" stroke="#63b8ff" points="218.13,-184.5 208.13,-188 218.13,-191.5 218.13,-184.5"/>
</a>
</g>
</g>
<!-- Node16 -->
<g id="Node000016" class="node">
<title>Node16</title>
<g id="a_Node000016"><a xlink:href="classFifoRdFsm.html" target="_top" xlink:title=" ">
<polygon fill="white" stroke="#bfbfbf" points="207.5,-271.5 139.5,-271.5 139.5,-252.5 207.5,-252.5 207.5,-271.5"/>
<text text-anchor="middle" x="173.5" y="-259.5" font-family="Helvetica,sans-Serif" font-size="10.00">FifoRdFsm</text>
</a>
</g>
</g>
<!-- Node16&#45;&gt;Node13 -->
<g id="edge19_Node000013_Node000016" class="edge">
<title>Node16&#45;&gt;Node13</title>
<g id="a_edge19_Node000013_Node000016"><a xlink:title=" ">
<path fill="none" stroke="#63b8ff" d="M217.3,-252.57C222.25,-250.3 226.97,-247.49 231,-244 258.66,-220.07 240.02,-194.69 267,-170 273.04,-164.47 280.78,-160.42 288.43,-157.46"/>
<polygon fill="#63b8ff" stroke="#63b8ff" points="215.67,-249.45 207.59,-256.3 218.18,-255.98 215.67,-249.45"/>
</a>
</g>
</g>
<!-- Node16&#45;&gt;Node18 -->
<g id="edge24_Node000018_Node000016" class="edge">
<title>Node16&#45;&gt;Node18</title>
<g id="a_edge24_Node000018_Node000016"><a xlink:title=" ">
<path fill="none" stroke="#63b8ff" d="M217.06,-250.97C221.92,-248.98 226.68,-246.67 231,-244 250.51,-231.93 247.72,-219.44 267,-207 274.41,-202.22 283.19,-198.43 291.42,-195.54"/>
<polygon fill="#63b8ff" stroke="#63b8ff" points="215.85,-247.69 207.67,-254.41 218.26,-254.26 215.85,-247.69"/>
</a>
</g>
</g>
<!-- Node17 -->
<g id="Node000017" class="node">
<title>Node17</title>
<g id="a_Node000017"><a xlink:href="classSimpleDualPortRam.html" target="_top" xlink:title=" ">
<polygon fill="white" stroke="#bfbfbf" points="231,-234.5 116,-234.5 116,-215.5 231,-215.5 231,-234.5"/>
<text text-anchor="middle" x="173.5" y="-222.5" font-family="Helvetica,sans-Serif" font-size="10.00">SimpleDualPortRam</text>
</a>
</g>
</g>
<!-- Node17&#45;&gt;Node13 -->
<g id="edge20_Node000013_Node000017" class="edge">
<title>Node17&#45;&gt;Node13</title>
<g id="a_edge20_Node000013_Node000017"><a xlink:title=" ">
<path fill="none" stroke="#63b8ff" d="M222.7,-211.49C225.58,-210.12 228.37,-208.63 231,-207 250.51,-194.93 247.83,-182.6 267,-170 273.52,-165.71 281.09,-162.15 288.42,-159.28"/>
<polygon fill="#63b8ff" stroke="#63b8ff" points="221.17,-208.33 213.31,-215.44 223.88,-214.79 221.17,-208.33"/>
</a>
</g>
</g>
<!-- Node17&#45;&gt;Node18 -->
<g id="edge25_Node000018_Node000017" class="edge">
<title>Node17&#45;&gt;Node18</title>
<g id="a_edge25_Node000018_Node000017"><a xlink:title=" ">
<path fill="none" stroke="#63b8ff" d="M221.77,-212.94C244.8,-207.06 271.7,-200.2 291.45,-195.16"/>
<polygon fill="#63b8ff" stroke="#63b8ff" points="220.67,-209.61 211.84,-215.47 222.4,-216.39 220.67,-209.61"/>
</a>
</g>
</g>
<!-- Node18&#45;&gt;Node7 -->
<g id="edge22_Node000007_Node000018" class="edge">
<title>Node18&#45;&gt;Node7</title>
<g id="a_edge22_Node000007_Node000018"><a xlink:title=" ">
<path fill="none" stroke="#63b8ff" d="M358.86,-174.91C363.98,-172.99 369.14,-170.99 374,-169 398.04,-159.15 425.23,-146.38 442.25,-138.19"/>
<polygon fill="#63b8ff" stroke="#63b8ff" points="357.36,-171.73 349.18,-178.47 359.78,-178.3 357.36,-171.73"/>
</a>
</g>
</g>
<!-- Node24 -->
<g id="Node000024" class="node">
<title>Node24</title>
<g id="a_Node000024"><a xlink:href="classCoaXPressCore.html" target="_top" xlink:title=" ">
<polygon fill="white" stroke="#bfbfbf" points="1222,-103.5 1131,-103.5 1131,-84.5 1222,-84.5 1222,-103.5"/>
<text text-anchor="middle" x="1176.5" y="-91.5" font-family="Helvetica,sans-Serif" font-size="10.00">CoaXPressCore</text>
</a>
</g>
</g>
<!-- Node23&#45;&gt;Node24 -->
<g id="edge34_Node000023_Node000024" class="edge">
<title>Node23&#45;&gt;Node24</title>
<g id="a_edge34_Node000023_Node000024"><a xlink:title=" ">
<path fill="none" stroke="#63b8ff" d="M1066.05,-94C1086.8,-94 1110.68,-94 1130.83,-94"/>
<polygon fill="#63b8ff" stroke="#63b8ff" points="1065.84,-90.5 1055.84,-94 1065.84,-97.5 1065.84,-90.5"/>
</a>
</g>
</g>
<!-- Node25 -->
<g id="Node000025" class="node">
<title>Node25</title>
<g id="a_Node000025"><a xlink:href="classCoaxpressOverFiberGthUs.html" target="_top" xlink:title=" ">
<polygon fill="white" stroke="#bfbfbf" points="1403,-122.5 1258,-122.5 1258,-103.5 1403,-103.5 1403,-122.5"/>
<text text-anchor="middle" x="1330.5" y="-110.5" font-family="Helvetica,sans-Serif" font-size="10.00">CoaxpressOverFiberGthUs</text>
</a>
</g>
</g>
<!-- Node24&#45;&gt;Node25 -->
<g id="edge35_Node000024_Node000025" class="edge">
<title>Node24&#45;&gt;Node25</title>
<g id="a_edge35_Node000024_Node000025"><a xlink:title=" ">
<path fill="none" stroke="#63b8ff" d="M1232.25,-100.84C1240.59,-101.89 1249.31,-102.98 1257.95,-104.06"/>
<polygon fill="#63b8ff" stroke="#63b8ff" points="1232.64,-97.37 1222.28,-99.6 1231.77,-104.31 1232.64,-97.37"/>
</a>
</g>
</g>
<!-- Node26 -->
<g id="Node000026" class="node">
<title>Node26</title>
<g id="a_Node000026"><a xlink:href="classCoaxpressOverFiberGtyUs.html" target="_top" xlink:title=" ">
<polygon fill="white" stroke="#bfbfbf" points="1403,-85.5 1258,-85.5 1258,-66.5 1403,-66.5 1403,-85.5"/>
<text text-anchor="middle" x="1330.5" y="-73.5" font-family="Helvetica,sans-Serif" font-size="10.00">CoaxpressOverFiberGtyUs</text>
</a>
</g>
</g>
<!-- Node24&#45;&gt;Node26 -->
<g id="edge36_Node000024_Node000026" class="edge">
<title>Node24&#45;&gt;Node26</title>
<g id="a_edge36_Node000024_Node000026"><a xlink:title=" ">
<path fill="none" stroke="#63b8ff" d="M1232.25,-87.52C1240.59,-86.53 1249.31,-85.5 1257.95,-84.47"/>
<polygon fill="#63b8ff" stroke="#63b8ff" points="1231.8,-84.04 1222.28,-88.7 1232.63,-91 1231.8,-84.04"/>
</a>
</g>
</g>
</g>
</svg>
