<?xml version="1.0" encoding="UTF-8" standalone="no"?>
<!DOCTYPE svg PUBLIC "-//W3C//DTD SVG 1.1//EN"
 "http://www.w3.org/Graphics/SVG/1.1/DTD/svg11.dtd">
<!-- Generated by graphviz version 2.43.0 (0)
 -->
<!-- Title: AxiStreamPacketizer2 Pages: 1 -->
<!--zoomable 341 -->

<svg id="main" version="1.1" xmlns="http://www.w3.org/2000/svg" xmlns:xlink="http://www.w3.org/1999/xlink" xml:space="preserve" onload="init(evt)">
<style type="text/css"><![CDATA[
.node, .edge {opacity: 0.7;}
.node.selected, .edge.selected {opacity: 1;}
.edge:hover path { stroke: red; }
.edge:hover polygon { stroke: red; fill: red; }
]]></style>

<defs>
  <circle id="rim" cx="0" cy="0" r="7"/>
  <circle id="rim2" cx="0" cy="0" r="3.5"/>
  <g id="zoomPlus">
    <use xlink:href="#rim" fill="#404040"><set attributeName="fill" to="#808080" begin="zoomplus.mouseover" end="zoomplus.mouseout"/></use>
    <path d="M-4,0h8M0,-4v8" fill="none" stroke="white" stroke-width="1.5" pointer-events="none"/>
  </g>
  <g id="zoomMin">
    <use xlink:href="#rim" fill="#404040"><set attributeName="fill" to="#808080" begin="zoomminus.mouseover" end="zoomminus.mouseout"/></use>
    <path d="M-4,0h8" fill="none" stroke="white" stroke-width="1.5" pointer-events="none"/>
  </g>
  <g id="arrowUp" transform="translate(30 24)">
    <use xlink:href="#rim"/>
    <path pointer-events="none" fill="none" stroke="white" stroke-width="1.5" d="M0,-3.0v7 M-2.5,-0.5L0,-3.0L2.5,-0.5"/>
  </g>
  <g id="arrowRight" transform="rotate(90) translate(36 -43)">
    <use xlink:href="#rim"/>
    <path pointer-events="none" fill="none" stroke="white" stroke-width="1.5" d="M0,-3.0v7 M-2.5,-0.5L0,-3.0L2.5,-0.5"/>
  </g>
  <g id="arrowDown" transform="rotate(180) translate(-30 -48)">
    <use xlink:href="#rim"/>
    <path pointer-events="none" fill="none" stroke="white" stroke-width="1.5" d="M0,-3.0v7 M-2.5,-0.5L0,-3.0L2.5,-0.5"/>
  </g>
  <g id="arrowLeft" transform="rotate(270) translate(-36 17)">
    <use xlink:href="#rim"/>
    <path pointer-events="none" fill="none" stroke="white" stroke-width="1.5" d="M0,-3.0v7 M-2.5,-0.5L0,-3.0L2.5,-0.5"/>
  </g>
  <g id="resetDef">
    <use xlink:href="#rim2" fill="#404040"><set attributeName="fill" to="#808080" begin="reset.mouseover" end="reset.mouseout"/></use>
  </g>
</defs>
<script type="application/ecmascript">
var viewWidth = 1085;
var viewHeight = 341;
var sectionId = 'dynsection-0';
</script>
<script type="application/ecmascript" xlink:href="svg.min.js"/>
<svg id="graph" class="graph">
<g id="viewport">
<title>AxiStreamPacketizer2</title>
<!-- Node1 -->
<g id="Node000001" class="node">
<title>Node1</title>
<g id="a_Node000001"><a xlink:title=" ">
<polygon fill="#999999" stroke="#666666" points="403,-148 280,-148 280,-129 403,-129 403,-148"/>
<text text-anchor="middle" x="341.5" y="-136" font-family="Helvetica,sans-Serif" font-size="10.00">AxiStreamPacketizer2</text>
</a>
</g>
</g>
<!-- Node8 -->
<g id="Node000008" class="node">
<title>Node8</title>
<g id="a_Node000008"><a xlink:href="classAxiStreamPacketizer2Tb.html" target="_top" xlink:title=" ">
<polygon fill="white" stroke="#bfbfbf" points="574,-204 439,-204 439,-185 574,-185 574,-204"/>
<text text-anchor="middle" x="506.5" y="-192" font-family="Helvetica,sans-Serif" font-size="10.00">AxiStreamPacketizer2Tb</text>
</a>
</g>
</g>
<!-- Node1&#45;&gt;Node8 -->
<g id="edge7_Node000001_Node000008" class="edge">
<title>Node1&#45;&gt;Node8</title>
<g id="a_edge7_Node000001_Node000008"><a xlink:title=" ">
<path fill="none" stroke="#63b8ff" d="M374.34,-152.07C393,-159.76 417.12,-169.26 439,-176.5 448.08,-179.51 457.98,-182.39 467.3,-184.94"/>
<polygon fill="#63b8ff" stroke="#63b8ff" points="375.44,-148.73 364.86,-148.12 372.75,-155.19 375.44,-148.73"/>
</a>
</g>
</g>
<!-- Node9 -->
<g id="Node000009" class="node">
<title>Node9</title>
<g id="a_Node000009"><a xlink:href="classPgp3Tx.html" target="_top" xlink:title=" ">
<polygon fill="white" stroke="#bfbfbf" points="533,-167 480,-167 480,-148 533,-148 533,-167"/>
<text text-anchor="middle" x="506.5" y="-155" font-family="Helvetica,sans-Serif" font-size="10.00">Pgp3Tx</text>
</a>
</g>
</g>
<!-- Node1&#45;&gt;Node9 -->
<g id="edge8_Node000001_Node000009" class="edge">
<title>Node1&#45;&gt;Node9</title>
<g id="a_edge8_Node000001_Node000009"><a xlink:title=" ">
<path fill="none" stroke="#63b8ff" d="M413.23,-146.74C436.87,-149.5 461.75,-152.4 479.71,-154.49"/>
<polygon fill="#63b8ff" stroke="#63b8ff" points="413.53,-143.26 403.2,-145.57 412.72,-150.21 413.53,-143.26"/>
</a>
</g>
</g>
<!-- Node21 -->
<g id="Node000021" class="node">
<title>Node21</title>
<g id="a_Node000021"><a xlink:href="classPgp4Tx.html" target="_top" xlink:title=" ">
<polygon fill="white" stroke="#bfbfbf" points="533,-130 480,-130 480,-111 533,-111 533,-130"/>
<text text-anchor="middle" x="506.5" y="-118" font-family="Helvetica,sans-Serif" font-size="10.00">Pgp4Tx</text>
</a>
</g>
</g>
<!-- Node1&#45;&gt;Node21 -->
<g id="edge20_Node000001_Node000021" class="edge">
<title>Node1&#45;&gt;Node21</title>
<g id="a_edge20_Node000001_Node000021"><a xlink:title=" ">
<path fill="none" stroke="#63b8ff" d="M413.23,-130.69C436.87,-128.08 461.75,-125.33 479.71,-123.35"/>
<polygon fill="#63b8ff" stroke="#63b8ff" points="412.75,-127.22 403.2,-131.8 413.52,-134.18 412.75,-127.22"/>
</a>
</g>
</g>
<!-- Node32 -->
<g id="Node000032" class="node">
<title>Node32</title>
<g id="a_Node000032"><a xlink:href="classRssiCoreWrapper.html" target="_top" xlink:title=" ">
<polygon fill="white" stroke="#bfbfbf" points="557,-75 456,-75 456,-56 557,-56 557,-75"/>
<text text-anchor="middle" x="506.5" y="-63" font-family="Helvetica,sans-Serif" font-size="10.00">RssiCoreWrapper</text>
</a>
</g>
</g>
<!-- Node1&#45;&gt;Node32 -->
<g id="edge31_Node000001_Node000032" class="edge">
<title>Node1&#45;&gt;Node32</title>
<g id="a_edge31_Node000001_Node000032"><a xlink:title=" ">
<path fill="none" stroke="#63b8ff" d="M373.25,-124.73C405.67,-110.21 455.87,-87.73 484.19,-75.05"/>
<polygon fill="#63b8ff" stroke="#63b8ff" points="371.51,-121.67 363.81,-128.96 374.37,-128.06 371.51,-121.67"/>
</a>
</g>
</g>
<!-- Node2 -->
<g id="Node000002" class="node">
<title>Node2</title>
<g id="a_Node000002"><a xlink:href="classAxiStreamPipeline.html" target="_top" xlink:title=" ">
<polygon fill="white" stroke="#bfbfbf" points="244,-204 137,-204 137,-185 244,-185 244,-204"/>
<text text-anchor="middle" x="190.5" y="-192" font-family="Helvetica,sans-Serif" font-size="10.00">AxiStreamPipeline</text>
</a>
</g>
</g>
<!-- Node2&#45;&gt;Node1 -->
<g id="edge1_Node000001_Node000002" class="edge">
<title>Node2&#45;&gt;Node1</title>
<g id="a_edge1_Node000001_Node000002"><a xlink:title=" ">
<path fill="none" stroke="#63b8ff" d="M229.86,-181.57C234.63,-179.9 239.44,-178.18 244,-176.5 269.18,-167.23 297.74,-155.88 317.21,-148.01"/>
<polygon fill="#63b8ff" stroke="#63b8ff" points="228.49,-178.34 220.19,-184.92 230.79,-184.95 228.49,-178.34"/>
</a>
</g>
</g>
<!-- Node3 -->
<g id="Node000003" class="node">
<title>Node3</title>
<g id="a_Node000003"><a xlink:href="classDualPortRam.html" target="_top" xlink:title=" ">
<polygon fill="white" stroke="#bfbfbf" points="231,-167 150,-167 150,-148 231,-148 231,-167"/>
<text text-anchor="middle" x="190.5" y="-155" font-family="Helvetica,sans-Serif" font-size="10.00">DualPortRam</text>
</a>
</g>
</g>
<!-- Node3&#45;&gt;Node1 -->
<g id="edge2_Node000001_Node000003" class="edge">
<title>Node3&#45;&gt;Node1</title>
<g id="a_edge2_Node000001_Node000003"><a xlink:title=" ">
<path fill="none" stroke="#63b8ff" d="M241.2,-151.16C253.63,-149.58 267.1,-147.86 279.98,-146.22"/>
<polygon fill="#63b8ff" stroke="#63b8ff" points="240.52,-147.72 231.04,-152.46 241.4,-154.67 240.52,-147.72"/>
</a>
</g>
</g>
<!-- Node4 -->
<g id="Node000004" class="node">
<title>Node4</title>
<g id="a_Node000004"><a xlink:href="classTrueDualPortRam.html" target="_top" xlink:title=" ">
<polygon fill="white" stroke="#bfbfbf" points="101,-185 0,-185 0,-166 101,-166 101,-185"/>
<text text-anchor="middle" x="50.5" y="-173" font-family="Helvetica,sans-Serif" font-size="10.00">TrueDualPortRam</text>
</a>
</g>
</g>
<!-- Node4&#45;&gt;Node3 -->
<g id="edge3_Node000003_Node000004" class="edge">
<title>Node4&#45;&gt;Node3</title>
<g id="a_edge3_Node000003_Node000004"><a xlink:title=" ">
<path fill="none" stroke="#63b8ff" d="M111.55,-167.67C124.46,-165.98 137.79,-164.24 149.7,-162.69"/>
<polygon fill="#63b8ff" stroke="#63b8ff" points="110.78,-164.24 101.32,-169 111.69,-171.18 110.78,-164.24"/>
</a>
</g>
</g>
<!-- Node5 -->
<g id="Node000005" class="node">
<title>Node5</title>
<g id="a_Node000005"><a xlink:href="classLutRam.html" target="_top" xlink:title=" ">
<polygon fill="white" stroke="#bfbfbf" points="77.5,-148 23.5,-148 23.5,-129 77.5,-129 77.5,-148"/>
<text text-anchor="middle" x="50.5" y="-136" font-family="Helvetica,sans-Serif" font-size="10.00">LutRam</text>
</a>
</g>
</g>
<!-- Node5&#45;&gt;Node3 -->
<g id="edge4_Node000003_Node000005" class="edge">
<title>Node5&#45;&gt;Node3</title>
<g id="a_edge4_Node000003_Node000005"><a xlink:title=" ">
<path fill="none" stroke="#63b8ff" d="M87.9,-143.51C107.01,-146.14 130.44,-149.37 149.99,-152.06"/>
<polygon fill="#63b8ff" stroke="#63b8ff" points="88.17,-140.02 77.78,-142.12 87.21,-146.95 88.17,-140.02"/>
</a>
</g>
</g>
<!-- Node6 -->
<g id="Node000006" class="node">
<title>Node6</title>
<g id="a_Node000006"><a xlink:href="classCrc32Parallel.html" target="_top" xlink:title=" ">
<polygon fill="white" stroke="#bfbfbf" points="230.5,-130 150.5,-130 150.5,-111 230.5,-111 230.5,-130"/>
<text text-anchor="middle" x="190.5" y="-118" font-family="Helvetica,sans-Serif" font-size="10.00">Crc32Parallel</text>
</a>
</g>
</g>
<!-- Node6&#45;&gt;Node1 -->
<g id="edge5_Node000001_Node000006" class="edge">
<title>Node6&#45;&gt;Node1</title>
<g id="a_edge5_Node000001_Node000006"><a xlink:title=" ">
<path fill="none" stroke="#63b8ff" d="M240.88,-126.46C253.39,-127.98 266.99,-129.62 279.99,-131.19"/>
<polygon fill="#63b8ff" stroke="#63b8ff" points="241,-122.95 230.65,-125.23 240.16,-129.9 241,-122.95"/>
</a>
</g>
</g>
<!-- Node7 -->
<g id="Node000007" class="node">
<title>Node7</title>
<g id="a_Node000007"><a xlink:href="classCrc32.html" target="_top" xlink:title=" ">
<polygon fill="white" stroke="#bfbfbf" points="212.5,-93 168.5,-93 168.5,-74 212.5,-74 212.5,-93"/>
<text text-anchor="middle" x="190.5" y="-81" font-family="Helvetica,sans-Serif" font-size="10.00">Crc32</text>
</a>
</g>
</g>
<!-- Node7&#45;&gt;Node1 -->
<g id="edge6_Node000001_Node000007" class="edge">
<title>Node7&#45;&gt;Node1</title>
<g id="a_edge6_Node000001_Node000007"><a xlink:title=" ">
<path fill="none" stroke="#63b8ff" d="M222,-93.75C229.23,-96.24 236.9,-98.92 244,-101.5 268.79,-110.5 296.93,-121.36 316.4,-128.98"/>
<polygon fill="#63b8ff" stroke="#63b8ff" points="223.1,-90.43 212.51,-90.51 220.84,-97.05 223.1,-90.43"/>
</a>
</g>
</g>
<!-- Node10 -->
<g id="Node000010" class="node">
<title>Node10</title>
<g id="a_Node000010"><a xlink:href="classPgp3Core.html" target="_top" xlink:title=" ">
<polygon fill="white" stroke="#bfbfbf" points="691.5,-259 628.5,-259 628.5,-240 691.5,-240 691.5,-259"/>
<text text-anchor="middle" x="660" y="-247" font-family="Helvetica,sans-Serif" font-size="10.00">Pgp3Core</text>
</a>
</g>
</g>
<!-- Node9&#45;&gt;Node10 -->
<g id="edge9_Node000009_Node000010" class="edge">
<title>Node9&#45;&gt;Node10</title>
<g id="a_edge9_Node000009_Node000010"><a xlink:title=" ">
<path fill="none" stroke="#63b8ff" d="M543.12,-164.64C553.44,-167.51 564.49,-171.38 574,-176.5 605.86,-193.65 636.29,-224.42 650.56,-239.96"/>
<polygon fill="#63b8ff" stroke="#63b8ff" points="543.68,-161.17 533.12,-162.11 541.95,-167.96 543.68,-161.17"/>
</a>
</g>
</g>
<!-- Node20 -->
<g id="Node000020" class="node">
<title>Node20</title>
<g id="a_Node000020"><a xlink:href="classPgp3Tb.html" target="_top" xlink:title=" ">
<polygon fill="white" stroke="#bfbfbf" points="686.5,-167 633.5,-167 633.5,-148 686.5,-148 686.5,-167"/>
<text text-anchor="middle" x="660" y="-155" font-family="Helvetica,sans-Serif" font-size="10.00">Pgp3Tb</text>
</a>
</g>
</g>
<!-- Node9&#45;&gt;Node20 -->
<g id="edge19_Node000009_Node000020" class="edge">
<title>Node9&#45;&gt;Node20</title>
<g id="a_edge19_Node000009_Node000020"><a xlink:title=" ">
<path fill="none" stroke="#63b8ff" d="M543.28,-157.5C570.99,-157.5 608.69,-157.5 633.43,-157.5"/>
<polygon fill="#63b8ff" stroke="#63b8ff" points="543.2,-154 533.2,-157.5 543.2,-161 543.2,-154"/>
</a>
</g>
</g>
<!-- Node11 -->
<g id="Node000011" class="node">
<title>Node11</title>
<g id="a_Node000011"><a xlink:href="classPgp3GthUs.html" target="_top" xlink:title=" ">
<polygon fill="white" stroke="#bfbfbf" points="817,-333 746,-333 746,-314 817,-314 817,-333"/>
<text text-anchor="middle" x="781.5" y="-321" font-family="Helvetica,sans-Serif" font-size="10.00">Pgp3GthUs</text>
</a>
</g>
</g>
<!-- Node10&#45;&gt;Node11 -->
<g id="edge10_Node000010_Node000011" class="edge">
<title>Node10&#45;&gt;Node11</title>
<g id="a_edge10_Node000010_Node000011"><a xlink:title=" ">
<path fill="none" stroke="#63b8ff" d="M683.18,-265.01C700.1,-276.62 724.15,-292.65 746,-305.5 750.89,-308.38 756.29,-311.3 761.33,-313.94"/>
<polygon fill="#63b8ff" stroke="#63b8ff" points="684.78,-261.86 674.57,-259.06 680.8,-267.62 684.78,-261.86"/>
</a>
</g>
</g>
<!-- Node13 -->
<g id="Node000013" class="node">
<title>Node13</title>
<g id="a_Node000013"><a xlink:href="classPgp3Gtp7.html" target="_top" xlink:title=" ">
<polygon fill="white" stroke="#bfbfbf" points="813.5,-296 749.5,-296 749.5,-277 813.5,-277 813.5,-296"/>
<text text-anchor="middle" x="781.5" y="-284" font-family="Helvetica,sans-Serif" font-size="10.00">Pgp3Gtp7</text>
</a>
</g>
</g>
<!-- Node10&#45;&gt;Node13 -->
<g id="edge12_Node000010_Node000013" class="edge">
<title>Node10&#45;&gt;Node13</title>
<g id="a_edge12_Node000010_Node000013"><a xlink:title=" ">
<path fill="none" stroke="#63b8ff" d="M701.7,-262.1C717.31,-266.93 734.85,-272.37 749.41,-276.88"/>
<polygon fill="#63b8ff" stroke="#63b8ff" points="702.36,-258.64 691.77,-259.03 700.29,-265.33 702.36,-258.64"/>
</a>
</g>
</g>
<!-- Node16 -->
<g id="Node000016" class="node">
<title>Node16</title>
<g id="a_Node000016"><a xlink:href="classPgp3Gtx7.html" target="_top" xlink:title=" ">
<polygon fill="white" stroke="#bfbfbf" points="813.5,-259 749.5,-259 749.5,-240 813.5,-240 813.5,-259"/>
<text text-anchor="middle" x="781.5" y="-247" font-family="Helvetica,sans-Serif" font-size="10.00">Pgp3Gtx7</text>
</a>
</g>
</g>
<!-- Node10&#45;&gt;Node16 -->
<g id="edge15_Node000010_Node000016" class="edge">
<title>Node10&#45;&gt;Node16</title>
<g id="a_edge15_Node000010_Node000016"><a xlink:title=" ">
<path fill="none" stroke="#63b8ff" d="M702.15,-249.5C717.64,-249.5 734.99,-249.5 749.41,-249.5"/>
<polygon fill="#63b8ff" stroke="#63b8ff" points="701.77,-246 691.77,-249.5 701.77,-253 701.77,-246"/>
</a>
</g>
</g>
<!-- Node18 -->
<g id="Node000018" class="node">
<title>Node18</title>
<g id="a_Node000018"><a xlink:href="classPgp3GtyUs.html" target="_top" xlink:title=" ">
<polygon fill="white" stroke="#bfbfbf" points="817,-222 746,-222 746,-203 817,-203 817,-222"/>
<text text-anchor="middle" x="781.5" y="-210" font-family="Helvetica,sans-Serif" font-size="10.00">Pgp3GtyUs</text>
</a>
</g>
</g>
<!-- Node10&#45;&gt;Node18 -->
<g id="edge17_Node000010_Node000018" class="edge">
<title>Node10&#45;&gt;Node18</title>
<g id="a_edge17_Node000010_Node000018"><a xlink:title=" ">
<path fill="none" stroke="#63b8ff" d="M701.7,-236.9C717.31,-232.07 734.85,-226.63 749.41,-222.12"/>
<polygon fill="#63b8ff" stroke="#63b8ff" points="700.29,-233.67 691.77,-239.97 702.36,-240.36 700.29,-233.67"/>
</a>
</g>
</g>
<!-- Node12 -->
<g id="Node000012" class="node">
<title>Node12</title>
<g id="a_Node000012"><a xlink:href="classPgp3GthUsWrapper.html" target="_top" xlink:title=" ">
<polygon fill="white" stroke="#bfbfbf" points="965,-333 853,-333 853,-314 965,-314 965,-333"/>
<text text-anchor="middle" x="909" y="-321" font-family="Helvetica,sans-Serif" font-size="10.00">Pgp3GthUsWrapper</text>
</a>
</g>
</g>
<!-- Node11&#45;&gt;Node12 -->
<g id="edge11_Node000011_Node000012" class="edge">
<title>Node11&#45;&gt;Node12</title>
<g id="a_edge11_Node000011_Node000012"><a xlink:title=" ">
<path fill="none" stroke="#63b8ff" d="M827.29,-323.5C835.54,-323.5 844.24,-323.5 852.75,-323.5"/>
<polygon fill="#63b8ff" stroke="#63b8ff" points="827.13,-320 817.13,-323.5 827.13,-327 827.13,-320"/>
</a>
</g>
</g>
<!-- Node14 -->
<g id="Node000014" class="node">
<title>Node14</title>
<g id="a_Node000014"><a xlink:href="classPgp3Gtp7Wrapper.html" target="_top" xlink:title=" ">
<polygon fill="white" stroke="#bfbfbf" points="961.5,-296 856.5,-296 856.5,-277 961.5,-277 961.5,-296"/>
<text text-anchor="middle" x="909" y="-284" font-family="Helvetica,sans-Serif" font-size="10.00">Pgp3Gtp7Wrapper</text>
</a>
</g>
</g>
<!-- Node13&#45;&gt;Node14 -->
<g id="edge13_Node000013_Node000014" class="edge">
<title>Node13&#45;&gt;Node14</title>
<g id="a_edge13_Node000013_Node000014"><a xlink:title=" ">
<path fill="none" stroke="#63b8ff" d="M823.62,-286.5C834.07,-286.5 845.43,-286.5 856.33,-286.5"/>
<polygon fill="#63b8ff" stroke="#63b8ff" points="823.52,-283 813.52,-286.5 823.52,-290 823.52,-283"/>
</a>
</g>
</g>
<!-- Node15 -->
<g id="Node000015" class="node">
<title>Node15</title>
<g id="a_Node000015"><a xlink:href="classPgp3Gtp7Tb.html" target="_top" xlink:title=" ">
<polygon fill="white" stroke="#bfbfbf" points="1077,-296 1001,-296 1001,-277 1077,-277 1077,-296"/>
<text text-anchor="middle" x="1039" y="-284" font-family="Helvetica,sans-Serif" font-size="10.00">Pgp3Gtp7Tb</text>
</a>
</g>
</g>
<!-- Node14&#45;&gt;Node15 -->
<g id="edge14_Node000014_Node000015" class="edge">
<title>Node14&#45;&gt;Node15</title>
<g id="a_edge14_Node000014_Node000015"><a xlink:title=" ">
<path fill="none" stroke="#63b8ff" d="M971.88,-286.5C981.72,-286.5 991.63,-286.5 1000.67,-286.5"/>
<polygon fill="#63b8ff" stroke="#63b8ff" points="971.69,-283 961.69,-286.5 971.69,-290 971.69,-283"/>
</a>
</g>
</g>
<!-- Node17 -->
<g id="Node000017" class="node">
<title>Node17</title>
<g id="a_Node000017"><a xlink:href="classPgp3Gtx7Wrapper.html" target="_top" xlink:title=" ">
<polygon fill="white" stroke="#bfbfbf" points="961.5,-259 856.5,-259 856.5,-240 961.5,-240 961.5,-259"/>
<text text-anchor="middle" x="909" y="-247" font-family="Helvetica,sans-Serif" font-size="10.00">Pgp3Gtx7Wrapper</text>
</a>
</g>
</g>
<!-- Node16&#45;&gt;Node17 -->
<g id="edge16_Node000016_Node000017" class="edge">
<title>Node16&#45;&gt;Node17</title>
<g id="a_edge16_Node000016_Node000017"><a xlink:title=" ">
<path fill="none" stroke="#63b8ff" d="M823.62,-249.5C834.07,-249.5 845.43,-249.5 856.33,-249.5"/>
<polygon fill="#63b8ff" stroke="#63b8ff" points="823.52,-246 813.52,-249.5 823.52,-253 823.52,-246"/>
</a>
</g>
</g>
<!-- Node19 -->
<g id="Node000019" class="node">
<title>Node19</title>
<g id="a_Node000019"><a xlink:href="classPgp3GtyUsWrapper.html" target="_top" xlink:title=" ">
<polygon fill="white" stroke="#bfbfbf" points="965,-222 853,-222 853,-203 965,-203 965,-222"/>
<text text-anchor="middle" x="909" y="-210" font-family="Helvetica,sans-Serif" font-size="10.00">Pgp3GtyUsWrapper</text>
</a>
</g>
</g>
<!-- Node18&#45;&gt;Node19 -->
<g id="edge18_Node000018_Node000019" class="edge">
<title>Node18&#45;&gt;Node19</title>
<g id="a_edge18_Node000018_Node000019"><a xlink:title=" ">
<path fill="none" stroke="#63b8ff" d="M827.29,-212.5C835.54,-212.5 844.24,-212.5 852.75,-212.5"/>
<polygon fill="#63b8ff" stroke="#63b8ff" points="827.13,-209 817.13,-212.5 827.13,-216 827.13,-209"/>
</a>
</g>
</g>
<!-- Node22 -->
<g id="Node000022" class="node">
<title>Node22</title>
<g id="a_Node000022"><a xlink:href="classPgp4Core.html" target="_top" xlink:title=" ">
<polygon fill="white" stroke="#bfbfbf" points="691.5,-130 628.5,-130 628.5,-111 691.5,-111 691.5,-130"/>
<text text-anchor="middle" x="660" y="-118" font-family="Helvetica,sans-Serif" font-size="10.00">Pgp4Core</text>
</a>
</g>
</g>
<!-- Node21&#45;&gt;Node22 -->
<g id="edge21_Node000021_Node000022" class="edge">
<title>Node21&#45;&gt;Node22</title>
<g id="a_edge21_Node000021_Node000022"><a xlink:title=" ">
<path fill="none" stroke="#63b8ff" d="M543.36,-120.5C569.27,-120.5 603.88,-120.5 628.47,-120.5"/>
<polygon fill="#63b8ff" stroke="#63b8ff" points="543.2,-117 533.2,-120.5 543.2,-124 543.2,-117"/>
</a>
</g>
</g>
<!-- Node23 -->
<g id="Node000023" class="node">
<title>Node23</title>
<g id="a_Node000023"><a xlink:href="classPgp4Tb.html" target="_top" xlink:title=" ">
<polygon fill="white" stroke="#bfbfbf" points="808,-185 755,-185 755,-166 808,-166 808,-185"/>
<text text-anchor="middle" x="781.5" y="-173" font-family="Helvetica,sans-Serif" font-size="10.00">Pgp4Tb</text>
</a>
</g>
</g>
<!-- Node22&#45;&gt;Node23 -->
<g id="edge22_Node000022_Node000023" class="edge">
<title>Node22&#45;&gt;Node23</title>
<g id="a_edge22_Node000022_Node000023"><a xlink:title=" ">
<path fill="none" stroke="#63b8ff" d="M696.8,-133.89C701.28,-135.71 705.76,-137.6 710,-139.5 715.17,-141.82 742.97,-156.1 762.07,-165.97"/>
<polygon fill="#63b8ff" stroke="#63b8ff" points="697.73,-130.5 687.14,-130.07 695.15,-137 697.73,-130.5"/>
</a>
</g>
</g>
<!-- Node24 -->
<g id="Node000024" class="node">
<title>Node24</title>
<g id="a_Node000024"><a xlink:href="classPgp4GthUs.html" target="_top" xlink:title=" ">
<polygon fill="white" stroke="#bfbfbf" points="817,-148 746,-148 746,-129 817,-129 817,-148"/>
<text text-anchor="middle" x="781.5" y="-136" font-family="Helvetica,sans-Serif" font-size="10.00">Pgp4GthUs</text>
</a>
</g>
</g>
<!-- Node22&#45;&gt;Node24 -->
<g id="edge23_Node000022_Node000024" class="edge">
<title>Node22&#45;&gt;Node24</title>
<g id="a_edge23_Node000022_Node000024"><a xlink:title=" ">
<path fill="none" stroke="#63b8ff" d="M701.81,-126.65C716.05,-128.79 731.89,-131.18 745.61,-133.24"/>
<polygon fill="#63b8ff" stroke="#63b8ff" points="702.18,-123.16 691.77,-125.14 701.14,-130.09 702.18,-123.16"/>
</a>
</g>
</g>
<!-- Node26 -->
<g id="Node000026" class="node">
<title>Node26</title>
<g id="a_Node000026"><a xlink:href="classPgp4Gtp7.html" target="_top" xlink:title=" ">
<polygon fill="white" stroke="#bfbfbf" points="813.5,-111 749.5,-111 749.5,-92 813.5,-92 813.5,-111"/>
<text text-anchor="middle" x="781.5" y="-99" font-family="Helvetica,sans-Serif" font-size="10.00">Pgp4Gtp7</text>
</a>
</g>
</g>
<!-- Node22&#45;&gt;Node26 -->
<g id="edge25_Node000022_Node000026" class="edge">
<title>Node22&#45;&gt;Node26</title>
<g id="a_edge25_Node000022_Node000026"><a xlink:title=" ">
<path fill="none" stroke="#63b8ff" d="M701.7,-114.03C717.31,-111.55 734.85,-108.76 749.41,-106.44"/>
<polygon fill="#63b8ff" stroke="#63b8ff" points="701.1,-110.58 691.77,-115.61 702.2,-117.49 701.1,-110.58"/>
</a>
</g>
</g>
<!-- Node28 -->
<g id="Node000028" class="node">
<title>Node28</title>
<g id="a_Node000028"><a xlink:href="classPgp4Gtx7.html" target="_top" xlink:title=" ">
<polygon fill="white" stroke="#bfbfbf" points="813.5,-74 749.5,-74 749.5,-55 813.5,-55 813.5,-74"/>
<text text-anchor="middle" x="781.5" y="-62" font-family="Helvetica,sans-Serif" font-size="10.00">Pgp4Gtx7</text>
</a>
</g>
</g>
<!-- Node22&#45;&gt;Node28 -->
<g id="edge27_Node000022_Node000028" class="edge">
<title>Node22&#45;&gt;Node28</title>
<g id="a_edge27_Node000022_Node000028"><a xlink:title=" ">
<path fill="none" stroke="#63b8ff" d="M696.83,-107.16C701.3,-105.34 705.78,-103.43 710,-101.5 726.46,-93.99 729.98,-90.91 746,-82.5 751.26,-79.74 756.99,-76.75 762.23,-74.01"/>
<polygon fill="#63b8ff" stroke="#63b8ff" points="695.17,-104.05 687.17,-111 697.76,-110.56 695.17,-104.05"/>
</a>
</g>
</g>
<!-- Node30 -->
<g id="Node000030" class="node">
<title>Node30</title>
<g id="a_Node000030"><a xlink:href="classPgp4GtyUs.html" target="_top" xlink:title=" ">
<polygon fill="white" stroke="#bfbfbf" points="817,-37 746,-37 746,-18 817,-18 817,-37"/>
<text text-anchor="middle" x="781.5" y="-25" font-family="Helvetica,sans-Serif" font-size="10.00">Pgp4GtyUs</text>
</a>
</g>
</g>
<!-- Node22&#45;&gt;Node30 -->
<g id="edge29_Node000022_Node000030" class="edge">
<title>Node22&#45;&gt;Node30</title>
<g id="a_edge29_Node000022_Node000030"><a xlink:title=" ">
<path fill="none" stroke="#63b8ff" d="M700.95,-107.57C704.16,-105.78 707.23,-103.76 710,-101.5 732.92,-82.79 724.15,-65.45 746,-45.5 749.49,-42.31 753.65,-39.52 757.86,-37.15"/>
<polygon fill="#63b8ff" stroke="#63b8ff" points="699.14,-104.55 691.64,-112.03 702.17,-110.86 699.14,-104.55"/>
</a>
</g>
</g>
<!-- Node25 -->
<g id="Node000025" class="node">
<title>Node25</title>
<g id="a_Node000025"><a xlink:href="classPgp4GthUsWrapper.html" target="_top" xlink:title=" ">
<polygon fill="white" stroke="#bfbfbf" points="965,-148 853,-148 853,-129 965,-129 965,-148"/>
<text text-anchor="middle" x="909" y="-136" font-family="Helvetica,sans-Serif" font-size="10.00">Pgp4GthUsWrapper</text>
</a>
</g>
</g>
<!-- Node24&#45;&gt;Node25 -->
<g id="edge24_Node000024_Node000025" class="edge">
<title>Node24&#45;&gt;Node25</title>
<g id="a_edge24_Node000024_Node000025"><a xlink:title=" ">
<path fill="none" stroke="#63b8ff" d="M827.29,-138.5C835.54,-138.5 844.24,-138.5 852.75,-138.5"/>
<polygon fill="#63b8ff" stroke="#63b8ff" points="827.13,-135 817.13,-138.5 827.13,-142 827.13,-135"/>
</a>
</g>
</g>
<!-- Node27 -->
<g id="Node000027" class="node">
<title>Node27</title>
<g id="a_Node000027"><a xlink:href="classPgp4Gtp7Wrapper.html" target="_top" xlink:title=" ">
<polygon fill="white" stroke="#bfbfbf" points="961.5,-111 856.5,-111 856.5,-92 961.5,-92 961.5,-111"/>
<text text-anchor="middle" x="909" y="-99" font-family="Helvetica,sans-Serif" font-size="10.00">Pgp4Gtp7Wrapper</text>
</a>
</g>
</g>
<!-- Node26&#45;&gt;Node27 -->
<g id="edge26_Node000026_Node000027" class="edge">
<title>Node26&#45;&gt;Node27</title>
<g id="a_edge26_Node000026_Node000027"><a xlink:title=" ">
<path fill="none" stroke="#63b8ff" d="M823.62,-101.5C834.07,-101.5 845.43,-101.5 856.33,-101.5"/>
<polygon fill="#63b8ff" stroke="#63b8ff" points="823.52,-98 813.52,-101.5 823.52,-105 823.52,-98"/>
</a>
</g>
</g>
<!-- Node29 -->
<g id="Node000029" class="node">
<title>Node29</title>
<g id="a_Node000029"><a xlink:href="classPgp4Gtx7Wrapper.html" target="_top" xlink:title=" ">
<polygon fill="white" stroke="#bfbfbf" points="961.5,-74 856.5,-74 856.5,-55 961.5,-55 961.5,-74"/>
<text text-anchor="middle" x="909" y="-62" font-family="Helvetica,sans-Serif" font-size="10.00">Pgp4Gtx7Wrapper</text>
</a>
</g>
</g>
<!-- Node28&#45;&gt;Node29 -->
<g id="edge28_Node000028_Node000029" class="edge">
<title>Node28&#45;&gt;Node29</title>
<g id="a_edge28_Node000028_Node000029"><a xlink:title=" ">
<path fill="none" stroke="#63b8ff" d="M823.62,-64.5C834.07,-64.5 845.43,-64.5 856.33,-64.5"/>
<polygon fill="#63b8ff" stroke="#63b8ff" points="823.52,-61 813.52,-64.5 823.52,-68 823.52,-61"/>
</a>
</g>
</g>
<!-- Node31 -->
<g id="Node000031" class="node">
<title>Node31</title>
<g id="a_Node000031"><a xlink:href="classPgp4GtyUsWrapper.html" target="_top" xlink:title=" ">
<polygon fill="white" stroke="#bfbfbf" points="965,-37 853,-37 853,-18 965,-18 965,-37"/>
<text text-anchor="middle" x="909" y="-25" font-family="Helvetica,sans-Serif" font-size="10.00">Pgp4GtyUsWrapper</text>
</a>
</g>
</g>
<!-- Node30&#45;&gt;Node31 -->
<g id="edge30_Node000030_Node000031" class="edge">
<title>Node30&#45;&gt;Node31</title>
<g id="a_edge30_Node000030_Node000031"><a xlink:title=" ">
<path fill="none" stroke="#63b8ff" d="M827.29,-27.5C835.54,-27.5 844.24,-27.5 852.75,-27.5"/>
<polygon fill="#63b8ff" stroke="#63b8ff" points="827.13,-24 817.13,-27.5 827.13,-31 827.13,-24"/>
</a>
</g>
</g>
<!-- Node33 -->
<g id="Node000033" class="node">
<title>Node33</title>
<g id="a_Node000033"><a xlink:href="classRssiCoreTb.html" target="_top" xlink:title=" ">
<polygon fill="white" stroke="#bfbfbf" points="695.5,-93 624.5,-93 624.5,-74 695.5,-74 695.5,-93"/>
<text text-anchor="middle" x="660" y="-81" font-family="Helvetica,sans-Serif" font-size="10.00">RssiCoreTb</text>
</a>
</g>
</g>
<!-- Node32&#45;&gt;Node33 -->
<g id="edge32_Node000032_Node000033" class="edge">
<title>Node32&#45;&gt;Node33</title>
<g id="a_edge32_Node000032_Node000033"><a xlink:title=" ">
<path fill="none" stroke="#63b8ff" d="M567.06,-72.58C586.4,-74.87 607.23,-77.35 624.15,-79.36"/>
<polygon fill="#63b8ff" stroke="#63b8ff" points="567.45,-69.1 557.11,-71.39 566.62,-76.05 567.45,-69.1"/>
</a>
</g>
</g>
<!-- Node34 -->
<g id="Node000034" class="node">
<title>Node34</title>
<g id="a_Node000034"><a xlink:href="classRssiInterleaveTb.html" target="_top" xlink:title=" ">
<polygon fill="white" stroke="#bfbfbf" points="709,-56 611,-56 611,-37 709,-37 709,-56"/>
<text text-anchor="middle" x="660" y="-44" font-family="Helvetica,sans-Serif" font-size="10.00">RssiInterleaveTb</text>
</a>
</g>
</g>
<!-- Node32&#45;&gt;Node34 -->
<g id="edge33_Node000032_Node000034" class="edge">
<title>Node32&#45;&gt;Node34</title>
<g id="a_edge33_Node000032_Node000034"><a xlink:title=" ">
<path fill="none" stroke="#63b8ff" d="M567.42,-57.98C581.83,-56.18 597.04,-54.27 610.83,-52.54"/>
<polygon fill="#63b8ff" stroke="#63b8ff" points="566.59,-54.56 557.11,-59.28 567.46,-61.51 566.59,-54.56"/>
</a>
</g>
</g>
<!-- Node35 -->
<g id="Node000035" class="node">
<title>Node35</title>
<g id="a_Node000035"><a xlink:href="classRawEthFramerTb.html" target="_top" xlink:title=" ">
<polygon fill="white" stroke="#bfbfbf" points="710,-19 610,-19 610,0 710,0 710,-19"/>
<text text-anchor="middle" x="660" y="-7" font-family="Helvetica,sans-Serif" font-size="10.00">RawEthFramerTb</text>
</a>
</g>
</g>
<!-- Node32&#45;&gt;Node35 -->
<g id="edge34_Node000032_Node000035" class="edge">
<title>Node32&#45;&gt;Node35</title>
<g id="a_edge34_Node000032_Node000035"><a xlink:title=" ">
<path fill="none" stroke="#63b8ff" d="M542.71,-52.42C562.48,-45.08 587.61,-35.76 610,-27.5 617.48,-24.74 625.61,-21.75 633.06,-19.01"/>
<polygon fill="#63b8ff" stroke="#63b8ff" points="541.34,-49.19 533.19,-55.95 543.78,-55.75 541.34,-49.19"/>
</a>
</g>
</g>
</g>
</svg>

<g id="navigator" transform="translate(0 0)" fill="#404254">
  <rect fill="#f2f5e9" fill-opacity="0.5" stroke="#606060" stroke-width=".5" x="0" y="0" width="60" height="60"/>
  <use id="zoomplus" xlink:href="#zoomPlus" x="17" y="9" onmousedown="handleZoom(evt,'in')"/>
  <use id="zoomminus" xlink:href="#zoomMin" x="42" y="9" onmousedown="handleZoom(evt,'out')"/>
  <use id="reset" xlink:href="#resetDef" x="30" y="36" onmousedown="handleReset()"/>
   <use id="arrowup" xlink:href="#arrowUp" x="0" y="0" onmousedown="handlePan(0,-1)"/>
  <use id="arrowright" xlink:href="#arrowRight" x="0" y="0" onmousedown="handlePan(1,0)"/>
  <use id="arrowdown" xlink:href="#arrowDown" x="0" y="0" onmousedown="handlePan(0,1)"/>
  <use id="arrowleft" xlink:href="#arrowLeft" x="0" y="0" onmousedown="handlePan(-1,0)"/>
</g>
<svg viewBox="0 0 15 15" width="100%" height="30px" preserveAspectRatio="xMaxYMin meet">
 <g id="arrow_out" transform="scale(0.3 0.3)">
  <a xlink:href="classAxiStreamPacketizer2__inherit__graph_org.svg" target="_base">
   <rect id="button" ry="5" rx="5" y="6" x="6" height="38" width="38"
        fill="#f2f5e9" fill-opacity="0.5" stroke="#606060" stroke-width="1.0"/>
   <path id="arrow"
     d="M 11.500037,31.436501 C 11.940474,20.09759 22.043105,11.32322 32.158766,21.979434 L 37.068811,17.246167 C 37.068811,17.246167 37.088388,32 37.088388,32 L 22.160133,31.978069 C 22.160133,31.978069 26.997745,27.140456 26.997745,27.140456 C 18.528582,18.264221 13.291696,25.230495 11.500037,31.436501 z"
     style="fill:#404040;"/>
  </a>
 </g>
</svg>

<style type='text/css'>
<![CDATA[
[data-mouse-over-selected='false'] { opacity: 0.7; }
[data-mouse-over-selected='true']  { opacity: 1.0; }
]]>
</style>
<script type="application/ecmascript"><![CDATA[
document.addEventListener('DOMContentLoaded', (event) => {
  highlightEdges();
  highlightAdjacentNodes();
});
]]></script>
</svg>
