<?xml version="1.0" encoding="UTF-8" standalone="no"?>
<!DOCTYPE svg PUBLIC "-//W3C//DTD SVG 1.1//EN"
 "http://www.w3.org/Graphics/SVG/1.1/DTD/svg11.dtd">
<!-- Generated by graphviz version 2.43.0 (0)
 -->
<!-- Title: HtspRx Pages: 1 -->
<svg width="190pt" height="308pt"
 viewBox="0.00 0.00 190.00 308.00" xmlns="http://www.w3.org/2000/svg" xmlns:xlink="http://www.w3.org/1999/xlink">
<g id="graph0" class="graph" transform="scale(1 1) rotate(0) translate(4 304)">
<title>HtspRx</title>
<polygon fill="white" stroke="transparent" points="-4,4 -4,-304 186,-304 186,4 -4,4"/>
<!-- Node1 -->
<g id="node1" class="node">
<title>Node1</title>
<g id="a_node1"><a xlink:title=" ">
<polygon fill="#bfbfbf" stroke="black" points="59,-168.5 59,-187.5 111,-187.5 111,-168.5 59,-168.5"/>
<text text-anchor="middle" x="85" y="-175.5" font-family="Helvetica,sans-Serif" font-size="10.00">HtspRx</text>
</a>
</g>
</g>
<!-- Node4 -->
<g id="node4" class="node">
<title>Node4</title>
<g id="a_node4"><a xlink:href="classHtspCore.html" target="_top" xlink:title=" ">
<polygon fill="white" stroke="black" points="54,-112.5 54,-131.5 116,-131.5 116,-112.5 54,-112.5"/>
<text text-anchor="middle" x="85" y="-119.5" font-family="Helvetica,sans-Serif" font-size="10.00">HtspCore</text>
</a>
</g>
</g>
<!-- Node1&#45;&gt;Node4 -->
<g id="edge3" class="edge">
<title>Node1&#45;&gt;Node4</title>
<path fill="none" stroke="midnightblue" d="M85,-157.8C85,-148.91 85,-138.78 85,-131.75"/>
<polygon fill="midnightblue" stroke="midnightblue" points="81.5,-158.08 85,-168.08 88.5,-158.08 81.5,-158.08"/>
</g>
<!-- Node2 -->
<g id="node2" class="node">
<title>Node2</title>
<g id="a_node2"><a xlink:href="classAxiStreamDeMux.html" target="_top" xlink:title=" ">
<polygon fill="white" stroke="black" points="34,-224.5 34,-243.5 136,-243.5 136,-224.5 34,-224.5"/>
<text text-anchor="middle" x="85" y="-231.5" font-family="Helvetica,sans-Serif" font-size="10.00">AxiStreamDeMux</text>
</a>
</g>
</g>
<!-- Node2&#45;&gt;Node1 -->
<g id="edge1" class="edge">
<title>Node2&#45;&gt;Node1</title>
<path fill="none" stroke="midnightblue" d="M85,-213.8C85,-204.91 85,-194.78 85,-187.75"/>
<polygon fill="midnightblue" stroke="midnightblue" points="81.5,-214.08 85,-224.08 88.5,-214.08 81.5,-214.08"/>
</g>
<!-- Node3 -->
<g id="node3" class="node">
<title>Node3</title>
<g id="a_node3"><a xlink:href="classAxiStreamPipeline.html" target="_top" xlink:title=" ">
<polygon fill="white" stroke="black" points="31.5,-280.5 31.5,-299.5 138.5,-299.5 138.5,-280.5 31.5,-280.5"/>
<text text-anchor="middle" x="85" y="-287.5" font-family="Helvetica,sans-Serif" font-size="10.00">AxiStreamPipeline</text>
</a>
</g>
</g>
<!-- Node3&#45;&gt;Node2 -->
<g id="edge2" class="edge">
<title>Node3&#45;&gt;Node2</title>
<path fill="none" stroke="midnightblue" d="M85,-269.8C85,-260.91 85,-250.78 85,-243.75"/>
<polygon fill="midnightblue" stroke="midnightblue" points="81.5,-270.08 85,-280.08 88.5,-270.08 81.5,-270.08"/>
</g>
<!-- Node5 -->
<g id="node5" class="node">
<title>Node5</title>
<g id="a_node5"><a xlink:href="classHtspCoreTb.html" target="_top" xlink:title=" ">
<polygon fill="white" stroke="black" points="0,-56.5 0,-75.5 74,-75.5 74,-56.5 0,-56.5"/>
<text text-anchor="middle" x="37" y="-63.5" font-family="Helvetica,sans-Serif" font-size="10.00">HtspCoreTb</text>
</a>
</g>
</g>
<!-- Node4&#45;&gt;Node5 -->
<g id="edge4" class="edge">
<title>Node4&#45;&gt;Node5</title>
<path fill="none" stroke="midnightblue" d="M70.27,-104.43C61.86,-94.97 51.65,-83.48 44.78,-75.75"/>
<polygon fill="midnightblue" stroke="midnightblue" points="67.81,-106.93 77.07,-112.08 73.05,-102.28 67.81,-106.93"/>
</g>
<!-- Node6 -->
<g id="node6" class="node">
<title>Node6</title>
<g id="a_node6"><a xlink:href="classHtspCaui4Gty.html" target="_top" xlink:title=" ">
<polygon fill="white" stroke="black" points="92,-56.5 92,-75.5 176,-75.5 176,-56.5 92,-56.5"/>
<text text-anchor="middle" x="134" y="-63.5" font-family="Helvetica,sans-Serif" font-size="10.00">HtspCaui4Gty</text>
</a>
</g>
</g>
<!-- Node4&#45;&gt;Node6 -->
<g id="edge5" class="edge">
<title>Node4&#45;&gt;Node6</title>
<path fill="none" stroke="midnightblue" d="M100.03,-104.43C108.62,-94.97 119.04,-83.48 126.06,-75.75"/>
<polygon fill="midnightblue" stroke="midnightblue" points="97.22,-102.33 93.09,-112.08 102.4,-107.03 97.22,-102.33"/>
</g>
<!-- Node7 -->
<g id="node7" class="node">
<title>Node7</title>
<g id="a_node7"><a xlink:href="classHtspCaui4GtyTb.html" target="_top" xlink:title=" ">
<polygon fill="white" stroke="black" points="86,-0.5 86,-19.5 182,-19.5 182,-0.5 86,-0.5"/>
<text text-anchor="middle" x="134" y="-7.5" font-family="Helvetica,sans-Serif" font-size="10.00">HtspCaui4GtyTb</text>
</a>
</g>
</g>
<!-- Node6&#45;&gt;Node7 -->
<g id="edge6" class="edge">
<title>Node6&#45;&gt;Node7</title>
<path fill="none" stroke="midnightblue" d="M134,-45.8C134,-36.91 134,-26.78 134,-19.75"/>
<polygon fill="midnightblue" stroke="midnightblue" points="130.5,-46.08 134,-56.08 137.5,-46.08 130.5,-46.08"/>
</g>
</g>
</svg>
