<?xml version="1.0" encoding="UTF-8" standalone="no"?>
<!DOCTYPE svg PUBLIC "-//W3C//DTD SVG 1.1//EN"
 "http://www.w3.org/Graphics/SVG/1.1/DTD/svg11.dtd">
<!-- Generated by graphviz version 2.43.0 (0)
 -->
<!-- Title: RstPipeline Pages: 1 -->
<svg width="847pt" height="572pt"
 viewBox="0.00 0.00 847.00 572.00" xmlns="http://www.w3.org/2000/svg" xmlns:xlink="http://www.w3.org/1999/xlink">
<g id="graph0" class="graph" transform="scale(1 1) rotate(0) translate(4 568)">
<title>RstPipeline</title>
<!-- Node1 -->
<g id="Node000001" class="node">
<title>Node1</title>
<g id="a_Node000001"><a xlink:title=" ">
<polygon fill="#999999" stroke="#666666" points="71,-319 0,-319 0,-300 71,-300 71,-319"/>
<text text-anchor="middle" x="35.5" y="-307" font-family="Helvetica,sans-Serif" font-size="10.00">RstPipeline</text>
</a>
</g>
</g>
<!-- Node2 -->
<g id="Node000002" class="node">
<title>Node2</title>
<g id="a_Node000002"><a xlink:href="classAxiStreamDmaFifo.html" target="_top" xlink:title=" ">
<polygon fill="white" stroke="#bfbfbf" points="236,-564 127,-564 127,-545 236,-545 236,-564"/>
<text text-anchor="middle" x="181.5" y="-552" font-family="Helvetica,sans-Serif" font-size="10.00">AxiStreamDmaFifo</text>
</a>
</g>
</g>
<!-- Node1&#45;&gt;Node2 -->
<g id="edge1_Node000001_Node000002" class="edge">
<title>Node1&#45;&gt;Node2</title>
<g id="a_edge1_Node000001_Node000002"><a xlink:title=" ">
<path fill="none" stroke="#63b8ff" d="M36.52,-329.47C37.71,-373.61 47,-480.05 107,-536.5 112.65,-541.81 119.59,-545.63 126.94,-548.36"/>
<polygon fill="#63b8ff" stroke="#63b8ff" points="40.02,-329.37 36.37,-319.43 33.02,-329.48 40.02,-329.37"/>
</a>
</g>
</g>
<!-- Node3 -->
<g id="Node000003" class="node">
<title>Node3</title>
<g id="a_Node000003"><a xlink:href="classAxiStreamDmaV2.html" target="_top" xlink:title=" ">
<polygon fill="white" stroke="#bfbfbf" points="233.5,-527 129.5,-527 129.5,-508 233.5,-508 233.5,-527"/>
<text text-anchor="middle" x="181.5" y="-515" font-family="Helvetica,sans-Serif" font-size="10.00">AxiStreamDmaV2</text>
</a>
</g>
</g>
<!-- Node1&#45;&gt;Node3 -->
<g id="edge2_Node000001_Node000003" class="edge">
<title>Node1&#45;&gt;Node3</title>
<g id="a_edge2_Node000001_Node000003"><a xlink:title=" ">
<path fill="none" stroke="#63b8ff" d="M38.51,-329.16C43.38,-366.5 59.15,-448 107,-493.5 113.61,-499.79 121.9,-504.43 130.5,-507.86"/>
<polygon fill="#63b8ff" stroke="#63b8ff" points="41.97,-328.6 37.33,-319.08 35.02,-329.42 41.97,-328.6"/>
</a>
</g>
</g>
<!-- Node4 -->
<g id="Node000004" class="node">
<title>Node4</title>
<g id="a_Node000004"><a xlink:href="classRstPipelineVector.html" target="_top" xlink:title=" ">
<polygon fill="white" stroke="#bfbfbf" points="232.5,-451 130.5,-451 130.5,-432 232.5,-432 232.5,-451"/>
<text text-anchor="middle" x="181.5" y="-439" font-family="Helvetica,sans-Serif" font-size="10.00">RstPipelineVector</text>
</a>
</g>
</g>
<!-- Node1&#45;&gt;Node4 -->
<g id="edge3_Node000001_Node000004" class="edge">
<title>Node1&#45;&gt;Node4</title>
<g id="a_edge3_Node000001_Node000004"><a xlink:title=" ">
<path fill="none" stroke="#63b8ff" d="M44.17,-328.62C54.78,-352.73 76.2,-393.89 107,-417.5 115.2,-423.79 125.12,-428.47 134.98,-431.93"/>
<polygon fill="#63b8ff" stroke="#63b8ff" points="47.28,-327 40.17,-319.15 40.83,-329.72 47.28,-327"/>
</a>
</g>
</g>
<!-- Node5 -->
<g id="Node000005" class="node">
<title>Node5</title>
<g id="a_Node000005"><a xlink:href="classJesdRxReg.html" target="_top" xlink:title=" ">
<polygon fill="white" stroke="#bfbfbf" points="423.5,-432 355.5,-432 355.5,-413 423.5,-413 423.5,-432"/>
<text text-anchor="middle" x="389.5" y="-420" font-family="Helvetica,sans-Serif" font-size="10.00">JesdRxReg</text>
</a>
</g>
</g>
<!-- Node1&#45;&gt;Node5 -->
<g id="edge12_Node000001_Node000005" class="edge">
<title>Node1&#45;&gt;Node5</title>
<g id="a_edge12_Node000001_Node000005"><a xlink:title=" ">
<path fill="none" stroke="#63b8ff" d="M47.86,-327.4C60.14,-345.08 81.43,-371.34 107,-384.5 188.56,-426.47 300.21,-427.51 355.16,-424.94"/>
<polygon fill="#63b8ff" stroke="#63b8ff" points="50.75,-325.42 42.29,-319.05 44.93,-329.31 50.75,-325.42"/>
</a>
</g>
</g>
<!-- Node8 -->
<g id="Node000008" class="node">
<title>Node8</title>
<g id="a_Node000008"><a xlink:href="classJesdTxReg.html" target="_top" xlink:title=" ">
<polygon fill="white" stroke="#bfbfbf" points="423.5,-469 355.5,-469 355.5,-450 423.5,-450 423.5,-469"/>
<text text-anchor="middle" x="389.5" y="-457" font-family="Helvetica,sans-Serif" font-size="10.00">JesdTxReg</text>
</a>
</g>
</g>
<!-- Node1&#45;&gt;Node8 -->
<g id="edge13_Node000001_Node000008" class="edge">
<title>Node1&#45;&gt;Node8</title>
<g id="a_edge13_Node000001_Node000008"><a xlink:title=" ">
<path fill="none" stroke="#63b8ff" d="M39.01,-329.26C44.49,-363.06 60.96,-431.18 107,-460.5 186.15,-510.9 304.92,-485.14 359.36,-469.11"/>
<polygon fill="#63b8ff" stroke="#63b8ff" points="42.45,-328.6 37.55,-319.21 35.52,-329.61 42.45,-328.6"/>
</a>
</g>
</g>
<!-- Node10 -->
<g id="Node000010" class="node">
<title>Node10</title>
<g id="a_Node000010"><a xlink:href="classHtspRxFifo.html" target="_top" xlink:title=" ">
<polygon fill="white" stroke="#bfbfbf" points="216.5,-375 146.5,-375 146.5,-356 216.5,-356 216.5,-375"/>
<text text-anchor="middle" x="181.5" y="-363" font-family="Helvetica,sans-Serif" font-size="10.00">HtspRxFifo</text>
</a>
</g>
</g>
<!-- Node1&#45;&gt;Node10 -->
<g id="edge10_Node000001_Node000010" class="edge">
<title>Node1&#45;&gt;Node10</title>
<g id="a_edge10_Node000001_Node000010"><a xlink:title=" ">
<path fill="none" stroke="#63b8ff" d="M60.59,-324.47C73.89,-332.21 90.92,-341.31 107,-347.5 119.51,-352.31 133.72,-356.15 146.28,-359.02"/>
<polygon fill="#63b8ff" stroke="#63b8ff" points="62.02,-321.24 51.64,-319.13 58.44,-327.26 62.02,-321.24"/>
</a>
</g>
</g>
<!-- Node11 -->
<g id="Node000011" class="node">
<title>Node11</title>
<g id="a_Node000011"><a xlink:href="classHtspTxFifo.html" target="_top" xlink:title=" ">
<polygon fill="white" stroke="#bfbfbf" points="216,-338 147,-338 147,-319 216,-319 216,-338"/>
<text text-anchor="middle" x="181.5" y="-326" font-family="Helvetica,sans-Serif" font-size="10.00">HtspTxFifo</text>
</a>
</g>
</g>
<!-- Node1&#45;&gt;Node11 -->
<g id="edge11_Node000001_Node000011" class="edge">
<title>Node1&#45;&gt;Node11</title>
<g id="a_edge11_Node000001_Node000011"><a xlink:title=" ">
<path fill="none" stroke="#63b8ff" d="M81.42,-315.43C102.6,-318.22 127.44,-321.5 146.95,-324.07"/>
<polygon fill="#63b8ff" stroke="#63b8ff" points="81.73,-311.94 71.36,-314.1 80.81,-318.88 81.73,-311.94"/>
</a>
</g>
</g>
<!-- Node12 -->
<g id="Node000012" class="node">
<title>Node12</title>
<g id="a_Node000012"><a xlink:href="classPgp4LiteRxLowSpeed.html" target="_top" xlink:title=" ">
<polygon fill="white" stroke="#bfbfbf" points="242,-301 121,-301 121,-282 242,-282 242,-301"/>
<text text-anchor="middle" x="181.5" y="-289" font-family="Helvetica,sans-Serif" font-size="10.00">Pgp4LiteRxLowSpeed</text>
</a>
</g>
</g>
<!-- Node1&#45;&gt;Node12 -->
<g id="edge14_Node000001_Node000012" class="edge">
<title>Node1&#45;&gt;Node12</title>
<g id="a_edge14_Node000001_Node000012"><a xlink:title=" ">
<path fill="none" stroke="#63b8ff" d="M81.52,-303.87C94.01,-302.31 107.77,-300.59 120.96,-298.94"/>
<polygon fill="#63b8ff" stroke="#63b8ff" points="80.85,-300.43 71.36,-305.14 81.72,-307.38 80.85,-300.43"/>
</a>
</g>
</g>
<!-- Node13 -->
<g id="Node000013" class="node">
<title>Node13</title>
<g id="a_Node000013"><a xlink:href="classPgpRxVcFifo.html" target="_top" xlink:title=" ">
<polygon fill="white" stroke="#bfbfbf" points="220,-264 143,-264 143,-245 220,-245 220,-264"/>
<text text-anchor="middle" x="181.5" y="-252" font-family="Helvetica,sans-Serif" font-size="10.00">PgpRxVcFifo</text>
</a>
</g>
</g>
<!-- Node1&#45;&gt;Node13 -->
<g id="edge15_Node000001_Node000013" class="edge">
<title>Node1&#45;&gt;Node13</title>
<g id="a_edge15_Node000001_Node000013"><a xlink:title=" ">
<path fill="none" stroke="#63b8ff" d="M61.76,-294.89C74.93,-287.72 91.49,-279.38 107,-273.5 118.46,-269.15 131.29,-265.46 142.99,-262.51"/>
<polygon fill="#63b8ff" stroke="#63b8ff" points="59.88,-291.94 52.84,-299.86 63.28,-298.05 59.88,-291.94"/>
</a>
</g>
</g>
<!-- Node18 -->
<g id="Node000018" class="node">
<title>Node18</title>
<g id="a_Node000018"><a xlink:href="classPgpTxVcFifo.html" target="_top" xlink:title=" ">
<polygon fill="white" stroke="#bfbfbf" points="220,-227 143,-227 143,-208 220,-208 220,-227"/>
<text text-anchor="middle" x="181.5" y="-215" font-family="Helvetica,sans-Serif" font-size="10.00">PgpTxVcFifo</text>
</a>
</g>
</g>
<!-- Node1&#45;&gt;Node18 -->
<g id="edge20_Node000001_Node000018" class="edge">
<title>Node1&#45;&gt;Node18</title>
<g id="a_edge20_Node000001_Node000018"><a xlink:title=" ">
<path fill="none" stroke="#63b8ff" d="M49.27,-291.42C62.02,-274.71 83.11,-250.43 107,-236.5 117.82,-230.19 130.73,-225.95 142.69,-223.11"/>
<polygon fill="#63b8ff" stroke="#63b8ff" points="46.2,-289.69 43.08,-299.81 51.83,-293.84 46.2,-289.69"/>
</a>
</g>
</g>
<!-- Node19 -->
<g id="Node000019" class="node">
<title>Node19</title>
<g id="a_Node000019"><a xlink:href="classSspLowSpeedDecoderLane.html" target="_top" xlink:title=" ">
<polygon fill="white" stroke="#bfbfbf" points="255,-181 108,-181 108,-162 255,-162 255,-181"/>
<text text-anchor="middle" x="181.5" y="-169" font-family="Helvetica,sans-Serif" font-size="10.00">SspLowSpeedDecoderLane</text>
</a>
</g>
</g>
<!-- Node1&#45;&gt;Node19 -->
<g id="edge22_Node000001_Node000019" class="edge">
<title>Node1&#45;&gt;Node19</title>
<g id="a_edge22_Node000001_Node000019"><a xlink:title=" ">
<path fill="none" stroke="#63b8ff" d="M44.12,-290.59C54.78,-266.32 76.35,-224.41 107,-199.5 117.07,-191.32 129.78,-185.35 141.8,-181.09"/>
<polygon fill="#63b8ff" stroke="#63b8ff" points="40.89,-289.23 40.22,-299.8 47.34,-291.95 40.89,-289.23"/>
</a>
</g>
</g>
<!-- Node25 -->
<g id="Node000025" class="node">
<title>Node25</title>
<g id="a_Node000025"><a xlink:href="classTenGigEthGthUltraScaleRst.html" target="_top" xlink:title=" ">
<polygon fill="white" stroke="#bfbfbf" points="256,-66 107,-66 107,-47 256,-47 256,-66"/>
<text text-anchor="middle" x="181.5" y="-54" font-family="Helvetica,sans-Serif" font-size="10.00">TenGigEthGthUltraScaleRst</text>
</a>
</g>
</g>
<!-- Node1&#45;&gt;Node25 -->
<g id="edge28_Node000001_Node000025" class="edge">
<title>Node1&#45;&gt;Node25</title>
<g id="a_edge28_Node000001_Node000025"><a xlink:title=" ">
<path fill="none" stroke="#63b8ff" d="M38.53,-289.44C43.52,-249.25 59.64,-157.74 107,-99.5 119.5,-84.13 139.05,-73.07 154.85,-66.02"/>
<polygon fill="#63b8ff" stroke="#63b8ff" points="35.03,-289.22 37.38,-299.55 41.99,-290.01 35.03,-289.22"/>
</a>
</g>
</g>
<!-- Node28 -->
<g id="Node000028" class="node">
<title>Node28</title>
<g id="a_Node000028"><a xlink:href="classHtspCaui4Gty.html" target="_top" xlink:title=" ">
<polygon fill="white" stroke="#bfbfbf" points="223.5,-29 139.5,-29 139.5,-10 223.5,-10 223.5,-29"/>
<text text-anchor="middle" x="181.5" y="-17" font-family="Helvetica,sans-Serif" font-size="10.00">HtspCaui4Gty</text>
</a>
</g>
</g>
<!-- Node1&#45;&gt;Node28 -->
<g id="edge31_Node000001_Node000028" class="edge">
<title>Node1&#45;&gt;Node28</title>
<g id="a_edge31_Node000001_Node000028"><a xlink:title=" ">
<path fill="none" stroke="#63b8ff" d="M39.01,-289.91C46.57,-233.87 70.87,-74.57 107,-38.5 115.58,-29.93 127.49,-25.07 139.22,-22.35"/>
<polygon fill="#63b8ff" stroke="#63b8ff" points="35.52,-289.58 37.69,-299.95 42.46,-290.49 35.52,-289.58"/>
</a>
</g>
</g>
<!-- Node30 -->
<g id="Node000030" class="node">
<title>Node30</title>
<g id="a_Node000030"><a xlink:href="classSelectioDeserUltraScale.html" target="_top" xlink:title=" ">
<polygon fill="white" stroke="#bfbfbf" points="456.5,-93 322.5,-93 322.5,-74 456.5,-74 456.5,-93"/>
<text text-anchor="middle" x="389.5" y="-81" font-family="Helvetica,sans-Serif" font-size="10.00">SelectioDeserUltraScale</text>
</a>
</g>
</g>
<!-- Node1&#45;&gt;Node30 -->
<g id="edge33_Node000001_Node000030" class="edge">
<title>Node1&#45;&gt;Node30</title>
<g id="a_edge33_Node000001_Node000030"><a xlink:title=" ">
<path fill="none" stroke="#63b8ff" d="M39.82,-289.9C46.47,-256.77 64.59,-189.78 107,-153.5 167.27,-101.94 259.93,-87.33 322.31,-83.71"/>
<polygon fill="#63b8ff" stroke="#63b8ff" points="36.37,-289.27 37.98,-299.74 43.26,-290.55 36.37,-289.27"/>
</a>
</g>
</g>
<!-- Node4&#45;&gt;Node5 -->
<g id="edge4_Node000004_Node000005" class="edge">
<title>Node4&#45;&gt;Node5</title>
<g id="a_edge4_Node000004_Node000005"><a xlink:title=" ">
<path fill="none" stroke="#63b8ff" d="M242.73,-435.94C279.43,-432.56 324.95,-428.36 355.26,-425.57"/>
<polygon fill="#63b8ff" stroke="#63b8ff" points="242.27,-432.47 232.63,-436.88 242.91,-439.44 242.27,-432.47"/>
</a>
</g>
</g>
<!-- Node4&#45;&gt;Node8 -->
<g id="edge7_Node000004_Node000008" class="edge">
<title>Node4&#45;&gt;Node8</title>
<g id="a_edge7_Node000004_Node000008"><a xlink:title=" ">
<path fill="none" stroke="#63b8ff" d="M242.73,-446.76C279.43,-449.97 324.95,-453.95 355.26,-456.6"/>
<polygon fill="#63b8ff" stroke="#63b8ff" points="242.9,-443.26 232.63,-445.88 242.29,-450.24 242.9,-443.26"/>
</a>
</g>
</g>
<!-- Node6 -->
<g id="Node000006" class="node">
<title>Node6</title>
<g id="a_Node000006"><a xlink:href="classJesd204bRx.html" target="_top" xlink:title=" ">
<polygon fill="white" stroke="#bfbfbf" points="663.5,-432 589.5,-432 589.5,-413 663.5,-413 663.5,-432"/>
<text text-anchor="middle" x="626.5" y="-420" font-family="Helvetica,sans-Serif" font-size="10.00">Jesd204bRx</text>
</a>
</g>
</g>
<!-- Node5&#45;&gt;Node6 -->
<g id="edge5_Node000005_Node000006" class="edge">
<title>Node5&#45;&gt;Node6</title>
<g id="a_edge5_Node000005_Node000006"><a xlink:title=" ">
<path fill="none" stroke="#63b8ff" d="M433.94,-422.5C478.67,-422.5 547.58,-422.5 589.41,-422.5"/>
<polygon fill="#63b8ff" stroke="#63b8ff" points="433.67,-419 423.67,-422.5 433.67,-426 433.67,-419"/>
</a>
</g>
</g>
<!-- Node7 -->
<g id="Node000007" class="node">
<title>Node7</title>
<g id="a_Node000007"><a xlink:href="classJesd204bTb.html" target="_top" xlink:title=" ">
<polygon fill="white" stroke="#bfbfbf" points="839,-450 766,-450 766,-431 839,-431 839,-450"/>
<text text-anchor="middle" x="802.5" y="-438" font-family="Helvetica,sans-Serif" font-size="10.00">Jesd204bTb</text>
</a>
</g>
</g>
<!-- Node6&#45;&gt;Node7 -->
<g id="edge6_Node000006_Node000007" class="edge">
<title>Node6&#45;&gt;Node7</title>
<g id="a_edge6_Node000006_Node000007"><a xlink:title=" ">
<path fill="none" stroke="#63b8ff" d="M673.8,-427.29C702.64,-430.27 739.19,-434.05 765.79,-436.81"/>
<polygon fill="#63b8ff" stroke="#63b8ff" points="673.86,-423.78 663.55,-426.23 673.14,-430.74 673.86,-423.78"/>
</a>
</g>
</g>
<!-- Node9 -->
<g id="Node000009" class="node">
<title>Node9</title>
<g id="a_Node000009"><a xlink:href="classJesd204bTx.html" target="_top" xlink:title=" ">
<polygon fill="white" stroke="#bfbfbf" points="663,-469 590,-469 590,-450 663,-450 663,-469"/>
<text text-anchor="middle" x="626.5" y="-457" font-family="Helvetica,sans-Serif" font-size="10.00">Jesd204bTx</text>
</a>
</g>
</g>
<!-- Node8&#45;&gt;Node9 -->
<g id="edge8_Node000008_Node000009" class="edge">
<title>Node8&#45;&gt;Node9</title>
<g id="a_edge8_Node000008_Node000009"><a xlink:title=" ">
<path fill="none" stroke="#63b8ff" d="M433.68,-459.5C478.55,-459.5 547.93,-459.5 589.81,-459.5"/>
<polygon fill="#63b8ff" stroke="#63b8ff" points="433.67,-456 423.67,-459.5 433.67,-463 433.67,-456"/>
</a>
</g>
</g>
<!-- Node9&#45;&gt;Node7 -->
<g id="edge9_Node000009_Node000007" class="edge">
<title>Node9&#45;&gt;Node7</title>
<g id="a_edge9_Node000009_Node000007"><a xlink:title=" ">
<path fill="none" stroke="#63b8ff" d="M673.41,-454.49C702.36,-451.33 739.19,-447.3 765.92,-444.39"/>
<polygon fill="#63b8ff" stroke="#63b8ff" points="672.69,-451.04 663.13,-455.61 673.45,-458 672.69,-451.04"/>
</a>
</g>
</g>
<!-- Node14 -->
<g id="Node000014" class="node">
<title>Node14</title>
<g id="a_Node000014"><a xlink:href="classPgp4CoreLiteTb.html" target="_top" xlink:title=" ">
<polygon fill="white" stroke="#bfbfbf" points="436,-375 343,-375 343,-356 436,-356 436,-375"/>
<text text-anchor="middle" x="389.5" y="-363" font-family="Helvetica,sans-Serif" font-size="10.00">Pgp4CoreLiteTb</text>
</a>
</g>
</g>
<!-- Node13&#45;&gt;Node14 -->
<g id="edge16_Node000013_Node000014" class="edge">
<title>Node13&#45;&gt;Node14</title>
<g id="a_edge16_Node000013_Node000014"><a xlink:title=" ">
<path fill="none" stroke="#63b8ff" d="M229.88,-260.35C239.26,-263.19 248.5,-267.37 256,-273.5 284.31,-296.65 262.91,-325.33 292,-347.5 306.37,-358.45 325.38,-363.42 342.73,-365.48"/>
<polygon fill="#63b8ff" stroke="#63b8ff" points="230.68,-256.95 220.13,-257.85 228.95,-263.73 230.68,-256.95"/>
</a>
</g>
</g>
<!-- Node15 -->
<g id="Node000015" class="node">
<title>Node15</title>
<g id="a_Node000015"><a xlink:href="classPgp4Tb.html" target="_top" xlink:title=" ">
<polygon fill="white" stroke="#bfbfbf" points="416,-338 363,-338 363,-319 416,-319 416,-338"/>
<text text-anchor="middle" x="389.5" y="-326" font-family="Helvetica,sans-Serif" font-size="10.00">Pgp4Tb</text>
</a>
</g>
</g>
<!-- Node13&#45;&gt;Node15 -->
<g id="edge17_Node000013_Node000015" class="edge">
<title>Node13&#45;&gt;Node15</title>
<g id="a_edge17_Node000013_Node000015"><a xlink:title=" ">
<path fill="none" stroke="#63b8ff" d="M229.97,-262.71C238.97,-265.37 248.05,-268.88 256,-273.5 275.84,-285.02 271.77,-299.67 292,-310.5 314.08,-322.33 342.62,-326.51 362.92,-327.92"/>
<polygon fill="#63b8ff" stroke="#63b8ff" points="230.86,-259.32 220.3,-260.13 229.06,-266.09 230.86,-259.32"/>
</a>
</g>
</g>
<!-- Node16 -->
<g id="Node000016" class="node">
<title>Node16</title>
<g id="a_Node000016"><a xlink:href="classPgp4FecTb.html" target="_top" xlink:title=" ">
<polygon fill="white" stroke="#bfbfbf" points="424,-301 355,-301 355,-282 424,-282 424,-301"/>
<text text-anchor="middle" x="389.5" y="-289" font-family="Helvetica,sans-Serif" font-size="10.00">Pgp4FecTb</text>
</a>
</g>
</g>
<!-- Node13&#45;&gt;Node16 -->
<g id="edge18_Node000013_Node000016" class="edge">
<title>Node13&#45;&gt;Node16</title>
<g id="a_edge18_Node000013_Node000016"><a xlink:title=" ">
<path fill="none" stroke="#63b8ff" d="M230.14,-263.06C268.27,-269.9 320.8,-279.34 354.71,-285.43"/>
<polygon fill="#63b8ff" stroke="#63b8ff" points="230.74,-259.61 220.28,-261.29 229.51,-266.5 230.74,-259.61"/>
</a>
</g>
</g>
<!-- Node17 -->
<g id="Node000017" class="node">
<title>Node17</title>
<g id="a_Node000017"><a xlink:href="classPgpXvcWrapper.html" target="_top" xlink:title=" ">
<polygon fill="white" stroke="#bfbfbf" points="436.5,-264 342.5,-264 342.5,-245 436.5,-245 436.5,-264"/>
<text text-anchor="middle" x="389.5" y="-252" font-family="Helvetica,sans-Serif" font-size="10.00">PgpXvcWrapper</text>
</a>
</g>
</g>
<!-- Node13&#45;&gt;Node17 -->
<g id="edge19_Node000013_Node000017" class="edge">
<title>Node13&#45;&gt;Node17</title>
<g id="a_edge19_Node000013_Node000017"><a xlink:title=" ">
<path fill="none" stroke="#63b8ff" d="M230.36,-254.5C264.08,-254.5 308.96,-254.5 342.3,-254.5"/>
<polygon fill="#63b8ff" stroke="#63b8ff" points="230.28,-251 220.28,-254.5 230.28,-258 230.28,-251"/>
</a>
</g>
</g>
<!-- Node18&#45;&gt;Node17 -->
<g id="edge21_Node000018_Node000017" class="edge">
<title>Node18&#45;&gt;Node17</title>
<g id="a_edge21_Node000018_Node000017"><a xlink:title=" ">
<path fill="none" stroke="#63b8ff" d="M230.36,-226.1C264.08,-232.15 308.96,-240.21 342.3,-246.2"/>
<polygon fill="#63b8ff" stroke="#63b8ff" points="230.74,-222.61 220.28,-224.29 229.51,-229.5 230.74,-222.61"/>
</a>
</g>
</g>
<!-- Node20 -->
<g id="Node000020" class="node">
<title>Node20</title>
<g id="a_Node000020"><a xlink:href="classSspLowSpeedDecoder10b12bWrapper.html" target="_top" xlink:title=" ">
<polygon fill="white" stroke="#bfbfbf" points="469.5,-226.5 309.5,-226.5 309.5,-196.5 469.5,-196.5 469.5,-226.5"/>
<text text-anchor="start" x="317.5" y="-214.5" font-family="Helvetica,sans-Serif" font-size="10.00">SspLowSpeedDecoder10b12b</text>
<text text-anchor="middle" x="389.5" y="-203.5" font-family="Helvetica,sans-Serif" font-size="10.00">Wrapper</text>
</a>
</g>
</g>
<!-- Node19&#45;&gt;Node20 -->
<g id="edge23_Node000019_Node000020" class="edge">
<title>Node19&#45;&gt;Node20</title>
<g id="a_edge23_Node000019_Node000020"><a xlink:title=" ">
<path fill="none" stroke="#63b8ff" d="M241.62,-182.98C263.31,-187.19 288.18,-192.02 311.22,-196.49"/>
<polygon fill="#63b8ff" stroke="#63b8ff" points="242.06,-179.5 231.58,-181.03 240.73,-186.37 242.06,-179.5"/>
</a>
</g>
</g>
<!-- Node21 -->
<g id="Node000021" class="node">
<title>Node21</title>
<g id="a_Node000021"><a xlink:href="classSspLowSpeedDecoder12b14bWrapper.html" target="_top" xlink:title=" ">
<polygon fill="white" stroke="#bfbfbf" points="469.5,-178.5 309.5,-178.5 309.5,-148.5 469.5,-148.5 469.5,-178.5"/>
<text text-anchor="start" x="317.5" y="-166.5" font-family="Helvetica,sans-Serif" font-size="10.00">SspLowSpeedDecoder12b14b</text>
<text text-anchor="middle" x="389.5" y="-155.5" font-family="Helvetica,sans-Serif" font-size="10.00">Wrapper</text>
</a>
</g>
</g>
<!-- Node19&#45;&gt;Node21 -->
<g id="edge24_Node000019_Node000021" class="edge">
<title>Node19&#45;&gt;Node21</title>
<g id="a_edge24_Node000019_Node000021"><a xlink:title=" ">
<path fill="none" stroke="#63b8ff" d="M265.51,-168.28C279.92,-167.72 294.87,-167.14 309.17,-166.58"/>
<polygon fill="#63b8ff" stroke="#63b8ff" points="264.98,-164.79 255.13,-168.68 265.26,-171.79 264.98,-164.79"/>
</a>
</g>
</g>
<!-- Node22 -->
<g id="Node000022" class="node">
<title>Node22</title>
<g id="a_Node000022"><a xlink:href="classSspLowSpeedDecoder8b10bWrapper.html" target="_top" xlink:title=" ">
<polygon fill="white" stroke="#bfbfbf" points="487,-130 292,-130 292,-111 487,-111 487,-130"/>
<text text-anchor="middle" x="389.5" y="-118" font-family="Helvetica,sans-Serif" font-size="10.00">SspLowSpeedDecoder8b10bWrapper</text>
</a>
</g>
</g>
<!-- Node19&#45;&gt;Node22 -->
<g id="edge25_Node000019_Node000022" class="edge">
<title>Node19&#45;&gt;Node22</title>
<g id="a_edge25_Node000019_Node000022"><a xlink:title=" ">
<path fill="none" stroke="#63b8ff" d="M222.23,-158.96C242.91,-152.66 268.69,-145.19 292,-139.5 306.1,-136.06 321.48,-132.81 335.72,-130"/>
<polygon fill="#63b8ff" stroke="#63b8ff" points="221.05,-155.66 212.51,-161.94 223.1,-162.35 221.05,-155.66"/>
</a>
</g>
</g>
<!-- Node23 -->
<g id="Node000023" class="node">
<title>Node23</title>
<g id="a_Node000023"><a xlink:href="classSspLowSpeedDecoder8b10bWrapperTb.html" target="_top" xlink:title=" ">
<polygon fill="white" stroke="#bfbfbf" points="730,-93 523,-93 523,-74 730,-74 730,-93"/>
<text text-anchor="middle" x="626.5" y="-81" font-family="Helvetica,sans-Serif" font-size="10.00">SspLowSpeedDecoder8b10bWrapperTb</text>
</a>
</g>
</g>
<!-- Node22&#45;&gt;Node23 -->
<g id="edge26_Node000022_Node000023" class="edge">
<title>Node22&#45;&gt;Node23</title>
<g id="a_edge26_Node000022_Node000023"><a xlink:title=" ">
<path fill="none" stroke="#63b8ff" d="M461.07,-109.39C494.11,-104.19 533.07,-98.05 564.78,-93.06"/>
<polygon fill="#63b8ff" stroke="#63b8ff" points="460.35,-105.96 451.02,-110.97 461.44,-112.87 460.35,-105.96"/>
</a>
</g>
</g>
<!-- Node24 -->
<g id="Node000024" class="node">
<title>Node24</title>
<g id="a_Node000024"><a xlink:href="classSelectioDeserUltraScaleTb.html" target="_top" xlink:title=" ">
<polygon fill="white" stroke="#bfbfbf" points="699.5,-130 553.5,-130 553.5,-111 699.5,-111 699.5,-130"/>
<text text-anchor="middle" x="626.5" y="-118" font-family="Helvetica,sans-Serif" font-size="10.00">SelectioDeserUltraScaleTb</text>
</a>
</g>
</g>
<!-- Node22&#45;&gt;Node24 -->
<g id="edge27_Node000022_Node000024" class="edge">
<title>Node22&#45;&gt;Node24</title>
<g id="a_edge27_Node000022_Node000024"><a xlink:title=" ">
<path fill="none" stroke="#63b8ff" d="M497.29,-120.5C516.26,-120.5 535.62,-120.5 553.35,-120.5"/>
<polygon fill="#63b8ff" stroke="#63b8ff" points="497.1,-117 487.1,-120.5 497.1,-124 497.1,-117"/>
</a>
</g>
</g>
<!-- Node26 -->
<g id="Node000026" class="node">
<title>Node26</title>
<g id="a_Node000026"><a xlink:href="classTenGigEthGthUltraScale.html" target="_top" xlink:title=" ">
<polygon fill="white" stroke="#bfbfbf" points="456,-56 323,-56 323,-37 456,-37 456,-56"/>
<text text-anchor="middle" x="389.5" y="-44" font-family="Helvetica,sans-Serif" font-size="10.00">TenGigEthGthUltraScale</text>
</a>
</g>
</g>
<!-- Node25&#45;&gt;Node26 -->
<g id="edge29_Node000025_Node000026" class="edge">
<title>Node25&#45;&gt;Node26</title>
<g id="a_edge29_Node000025_Node000026"><a xlink:title=" ">
<path fill="none" stroke="#63b8ff" d="M266.32,-52.43C285.12,-51.52 304.81,-50.56 322.75,-49.69"/>
<polygon fill="#63b8ff" stroke="#63b8ff" points="266.11,-48.94 256.29,-52.92 266.45,-55.93 266.11,-48.94"/>
</a>
</g>
</g>
<!-- Node27 -->
<g id="Node000027" class="node">
<title>Node27</title>
<g id="a_Node000027"><a xlink:href="classTenGigEthGthUltraScaleWrapper.html" target="_top" xlink:title=" ">
<polygon fill="white" stroke="#bfbfbf" points="713.5,-56 539.5,-56 539.5,-37 713.5,-37 713.5,-56"/>
<text text-anchor="middle" x="626.5" y="-44" font-family="Helvetica,sans-Serif" font-size="10.00">TenGigEthGthUltraScaleWrapper</text>
</a>
</g>
</g>
<!-- Node26&#45;&gt;Node27 -->
<g id="edge30_Node000026_Node000027" class="edge">
<title>Node26&#45;&gt;Node27</title>
<g id="a_edge30_Node000026_Node000027"><a xlink:title=" ">
<path fill="none" stroke="#63b8ff" d="M466.39,-46.5C489.57,-46.5 515.24,-46.5 539.07,-46.5"/>
<polygon fill="#63b8ff" stroke="#63b8ff" points="466.27,-43 456.27,-46.5 466.27,-50 466.27,-43"/>
</a>
</g>
</g>
<!-- Node29 -->
<g id="Node000029" class="node">
<title>Node29</title>
<g id="a_Node000029"><a xlink:href="classHtspCaui4GtyTb.html" target="_top" xlink:title=" ">
<polygon fill="white" stroke="#bfbfbf" points="437.5,-19 341.5,-19 341.5,0 437.5,0 437.5,-19"/>
<text text-anchor="middle" x="389.5" y="-7" font-family="Helvetica,sans-Serif" font-size="10.00">HtspCaui4GtyTb</text>
</a>
</g>
</g>
<!-- Node28&#45;&gt;Node29 -->
<g id="edge32_Node000028_Node000029" class="edge">
<title>Node28&#45;&gt;Node29</title>
<g id="a_edge32_Node000028_Node000029"><a xlink:title=" ">
<path fill="none" stroke="#63b8ff" d="M234.01,-17C266.91,-15.4 309.23,-13.35 341.25,-11.79"/>
<polygon fill="#63b8ff" stroke="#63b8ff" points="233.51,-13.52 223.69,-17.5 233.85,-20.51 233.51,-13.52"/>
</a>
</g>
</g>
<!-- Node30&#45;&gt;Node23 -->
<g id="edge34_Node000030_Node000023" class="edge">
<title>Node30&#45;&gt;Node23</title>
<g id="a_edge34_Node000030_Node000023"><a xlink:title=" ">
<path fill="none" stroke="#63b8ff" d="M466.87,-83.5C484.65,-83.5 503.86,-83.5 522.57,-83.5"/>
<polygon fill="#63b8ff" stroke="#63b8ff" points="466.59,-80 456.59,-83.5 466.59,-87 466.59,-80"/>
</a>
</g>
</g>
<!-- Node30&#45;&gt;Node24 -->
<g id="edge35_Node000030_Node000024" class="edge">
<title>Node30&#45;&gt;Node24</title>
<g id="a_edge35_Node000030_Node000024"><a xlink:title=" ">
<path fill="none" stroke="#63b8ff" d="M461.07,-94.61C494.11,-99.81 533.07,-105.95 564.78,-110.94"/>
<polygon fill="#63b8ff" stroke="#63b8ff" points="461.44,-91.13 451.02,-93.03 460.35,-98.04 461.44,-91.13"/>
</a>
</g>
</g>
</g>
</svg>
