<?xml version="1.0" encoding="UTF-8" standalone="no"?>
<!DOCTYPE svg PUBLIC "-//W3C//DTD SVG 1.1//EN"
 "http://www.w3.org/Graphics/SVG/1.1/DTD/svg11.dtd">
<!-- Generated by graphviz version 2.43.0 (0)
 -->
<!-- Title: Scrambler Pages: 1 -->
<svg width="778pt" height="434pt"
 viewBox="0.00 0.00 778.00 434.00" xmlns="http://www.w3.org/2000/svg" xmlns:xlink="http://www.w3.org/1999/xlink">
<g id="graph0" class="graph" transform="scale(1 1) rotate(0) translate(4 430)">
<title>Scrambler</title>
<!-- Node1 -->
<g id="Node000001" class="node">
<title>Node1</title>
<g id="a_Node000001"><a xlink:title=" ">
<polygon fill="#999999" stroke="#666666" points="66,-186 0,-186 0,-167 66,-167 66,-186"/>
<text text-anchor="middle" x="33" y="-174" font-family="Helvetica,sans-Serif" font-size="10.00">Scrambler</text>
</a>
</g>
</g>
<!-- Node2 -->
<g id="Node000002" class="node">
<title>Node2</title>
<g id="a_Node000002"><a xlink:href="classPgp3Rx.html" target="_top" xlink:title=" ">
<polygon fill="white" stroke="#bfbfbf" points="164,-259 111,-259 111,-240 164,-240 164,-259"/>
<text text-anchor="middle" x="137.5" y="-247" font-family="Helvetica,sans-Serif" font-size="10.00">Pgp3Rx</text>
</a>
</g>
</g>
<!-- Node1&#45;&gt;Node2 -->
<g id="edge1_Node000001_Node000002" class="edge">
<title>Node1&#45;&gt;Node2</title>
<g id="a_edge1_Node000001_Node000002"><a xlink:title=" ">
<path fill="none" stroke="#63b8ff" d="M55.76,-192C76.15,-206.52 105.98,-227.77 123.1,-239.95"/>
<polygon fill="#63b8ff" stroke="#63b8ff" points="57.58,-188.99 47.4,-186.04 53.52,-194.7 57.58,-188.99"/>
</a>
</g>
</g>
<!-- Node14 -->
<g id="Node000014" class="node">
<title>Node14</title>
<g id="a_Node000014"><a xlink:href="classPgp3Tx.html" target="_top" xlink:title=" ">
<polygon fill="white" stroke="#bfbfbf" points="164,-296 111,-296 111,-277 164,-277 164,-296"/>
<text text-anchor="middle" x="137.5" y="-284" font-family="Helvetica,sans-Serif" font-size="10.00">Pgp3Tx</text>
</a>
</g>
</g>
<!-- Node1&#45;&gt;Node14 -->
<g id="edge13_Node000001_Node000014" class="edge">
<title>Node1&#45;&gt;Node14</title>
<g id="a_edge13_Node000001_Node000014"><a xlink:title=" ">
<path fill="none" stroke="#63b8ff" d="M44.36,-194.72C56.3,-214.51 77.45,-246.13 102,-267.5 106.13,-271.09 111.04,-274.29 115.85,-277"/>
<polygon fill="#63b8ff" stroke="#63b8ff" points="47.35,-192.9 39.27,-186.06 41.32,-196.45 47.35,-192.9"/>
</a>
</g>
</g>
<!-- Node15 -->
<g id="Node000015" class="node">
<title>Node15</title>
<g id="a_Node000015"><a xlink:href="classPgp4Rx.html" target="_top" xlink:title=" ">
<polygon fill="white" stroke="#bfbfbf" points="164,-149 111,-149 111,-130 164,-130 164,-149"/>
<text text-anchor="middle" x="137.5" y="-137" font-family="Helvetica,sans-Serif" font-size="10.00">Pgp4Rx</text>
</a>
</g>
</g>
<!-- Node1&#45;&gt;Node15 -->
<g id="edge16_Node000001_Node000015" class="edge">
<title>Node1&#45;&gt;Node15</title>
<g id="a_edge16_Node000001_Node000015"><a xlink:title=" ">
<path fill="none" stroke="#63b8ff" d="M69.9,-163.54C83.42,-158.66 98.51,-153.21 110.9,-148.74"/>
<polygon fill="#63b8ff" stroke="#63b8ff" points="68.61,-160.28 60.4,-166.97 70.99,-166.87 68.61,-160.28"/>
</a>
</g>
</g>
<!-- Node32 -->
<g id="Node000032" class="node">
<title>Node32</title>
<g id="a_Node000032"><a xlink:href="classPgp4Tx.html" target="_top" xlink:title=" ">
<polygon fill="white" stroke="#bfbfbf" points="164,-186 111,-186 111,-167 164,-167 164,-186"/>
<text text-anchor="middle" x="137.5" y="-174" font-family="Helvetica,sans-Serif" font-size="10.00">Pgp4Tx</text>
</a>
</g>
</g>
<!-- Node1&#45;&gt;Node32 -->
<g id="edge33_Node000001_Node000032" class="edge">
<title>Node1&#45;&gt;Node32</title>
<g id="a_edge33_Node000001_Node000032"><a xlink:title=" ">
<path fill="none" stroke="#63b8ff" d="M76.27,-176.5C88.04,-176.5 100.47,-176.5 110.96,-176.5"/>
<polygon fill="#63b8ff" stroke="#63b8ff" points="76.15,-173 66.15,-176.5 76.15,-180 76.15,-173"/>
</a>
</g>
</g>
<!-- Node33 -->
<g id="Node000033" class="node">
<title>Node33</title>
<g id="a_Node000033"><a xlink:href="classPgp4TxLite.html" target="_top" xlink:title=" ">
<polygon fill="white" stroke="#bfbfbf" points="173,-112 102,-112 102,-93 173,-93 173,-112"/>
<text text-anchor="middle" x="137.5" y="-100" font-family="Helvetica,sans-Serif" font-size="10.00">Pgp4TxLite</text>
</a>
</g>
</g>
<!-- Node1&#45;&gt;Node33 -->
<g id="edge35_Node000001_Node000033" class="edge">
<title>Node1&#45;&gt;Node33</title>
<g id="a_edge35_Node000001_Node000033"><a xlink:title=" ">
<path fill="none" stroke="#63b8ff" d="M52.02,-159.9C65.28,-148.14 84.05,-132.39 102,-120.5 106.51,-117.52 111.57,-114.64 116.39,-112.09"/>
<polygon fill="#63b8ff" stroke="#63b8ff" points="49.62,-157.35 44.53,-166.65 54.3,-162.56 49.62,-157.35"/>
</a>
</g>
</g>
<!-- Node3 -->
<g id="Node000003" class="node">
<title>Node3</title>
<g id="a_Node000003"><a xlink:href="classPgp3Core.html" target="_top" xlink:title=" ">
<polygon fill="white" stroke="#bfbfbf" points="296.5,-333 233.5,-333 233.5,-314 296.5,-314 296.5,-333"/>
<text text-anchor="middle" x="265" y="-321" font-family="Helvetica,sans-Serif" font-size="10.00">Pgp3Core</text>
</a>
</g>
</g>
<!-- Node2&#45;&gt;Node3 -->
<g id="edge2_Node000002_Node000003" class="edge">
<title>Node2&#45;&gt;Node3</title>
<g id="a_edge2_Node000002_Node000003"><a xlink:title=" ">
<path fill="none" stroke="#63b8ff" d="M166.81,-264.06C168.91,-265.21 171,-266.36 173,-267.5 200.26,-282.98 231.19,-302.42 249.06,-313.86"/>
<polygon fill="#63b8ff" stroke="#63b8ff" points="168.08,-260.78 157.61,-259.16 164.79,-266.95 168.08,-260.78"/>
</a>
</g>
</g>
<!-- Node13 -->
<g id="Node000013" class="node">
<title>Node13</title>
<g id="a_Node000013"><a xlink:href="classPgp3Tb.html" target="_top" xlink:title=" ">
<polygon fill="white" stroke="#bfbfbf" points="291.5,-278 238.5,-278 238.5,-259 291.5,-259 291.5,-278"/>
<text text-anchor="middle" x="265" y="-266" font-family="Helvetica,sans-Serif" font-size="10.00">Pgp3Tb</text>
</a>
</g>
</g>
<!-- Node2&#45;&gt;Node13 -->
<g id="edge12_Node000002_Node000013" class="edge">
<title>Node2&#45;&gt;Node13</title>
<g id="a_edge12_Node000002_Node000013"><a xlink:title=" ">
<path fill="none" stroke="#63b8ff" d="M174.11,-254.89C194.58,-257.99 219.82,-261.81 238.33,-264.61"/>
<polygon fill="#63b8ff" stroke="#63b8ff" points="174.61,-251.43 164.2,-253.39 173.56,-258.35 174.61,-251.43"/>
</a>
</g>
</g>
<!-- Node4 -->
<g id="Node000004" class="node">
<title>Node4</title>
<g id="a_Node000004"><a xlink:href="classPgp3GthUs.html" target="_top" xlink:title=" ">
<polygon fill="white" stroke="#bfbfbf" points="464.5,-426 393.5,-426 393.5,-407 464.5,-407 464.5,-426"/>
<text text-anchor="middle" x="429" y="-414" font-family="Helvetica,sans-Serif" font-size="10.00">Pgp3GthUs</text>
</a>
</g>
</g>
<!-- Node3&#45;&gt;Node4 -->
<g id="edge3_Node000003_Node000004" class="edge">
<title>Node3&#45;&gt;Node4</title>
<g id="a_edge3_Node000003_Node000004"><a xlink:title=" ">
<path fill="none" stroke="#63b8ff" d="M282.24,-340.76C299.29,-357.88 327.65,-383.64 357,-398.5 368.23,-404.19 381.39,-408.17 393.31,-410.91"/>
<polygon fill="#63b8ff" stroke="#63b8ff" points="284.31,-337.87 274.83,-333.14 279.29,-342.75 284.31,-337.87"/>
</a>
</g>
</g>
<!-- Node6 -->
<g id="Node000006" class="node">
<title>Node6</title>
<g id="a_Node000006"><a xlink:href="classPgp3Gtp7.html" target="_top" xlink:title=" ">
<polygon fill="white" stroke="#bfbfbf" points="461,-389 397,-389 397,-370 461,-370 461,-389"/>
<text text-anchor="middle" x="429" y="-377" font-family="Helvetica,sans-Serif" font-size="10.00">Pgp3Gtp7</text>
</a>
</g>
</g>
<!-- Node3&#45;&gt;Node6 -->
<g id="edge5_Node000003_Node000006" class="edge">
<title>Node3&#45;&gt;Node6</title>
<g id="a_edge5_Node000003_Node000006"><a xlink:title=" ">
<path fill="none" stroke="#63b8ff" d="M295.81,-337.25C313.37,-345.03 336.17,-354.55 357,-361.5 369.91,-365.81 384.43,-369.66 396.96,-372.68"/>
<polygon fill="#63b8ff" stroke="#63b8ff" points="297.19,-334.04 286.63,-333.14 294.32,-340.43 297.19,-334.04"/>
</a>
</g>
</g>
<!-- Node9 -->
<g id="Node000009" class="node">
<title>Node9</title>
<g id="a_Node000009"><a xlink:href="classPgp3Gtx7.html" target="_top" xlink:title=" ">
<polygon fill="white" stroke="#bfbfbf" points="461,-352 397,-352 397,-333 461,-333 461,-352"/>
<text text-anchor="middle" x="429" y="-340" font-family="Helvetica,sans-Serif" font-size="10.00">Pgp3Gtx7</text>
</a>
</g>
</g>
<!-- Node3&#45;&gt;Node9 -->
<g id="edge8_Node000003_Node000009" class="edge">
<title>Node3&#45;&gt;Node9</title>
<g id="a_edge8_Node000003_Node000009"><a xlink:title=" ">
<path fill="none" stroke="#63b8ff" d="M307.11,-328.32C335.06,-331.6 371.46,-335.87 396.99,-338.86"/>
<polygon fill="#63b8ff" stroke="#63b8ff" points="307.19,-324.81 296.85,-327.12 306.38,-331.76 307.19,-324.81"/>
</a>
</g>
</g>
<!-- Node11 -->
<g id="Node000011" class="node">
<title>Node11</title>
<g id="a_Node000011"><a xlink:href="classPgp3GtyUs.html" target="_top" xlink:title=" ">
<polygon fill="white" stroke="#bfbfbf" points="464.5,-315 393.5,-315 393.5,-296 464.5,-296 464.5,-315"/>
<text text-anchor="middle" x="429" y="-303" font-family="Helvetica,sans-Serif" font-size="10.00">Pgp3GtyUs</text>
</a>
</g>
</g>
<!-- Node3&#45;&gt;Node11 -->
<g id="edge10_Node000003_Node000011" class="edge">
<title>Node3&#45;&gt;Node11</title>
<g id="a_edge10_Node000003_Node000011"><a xlink:title=" ">
<path fill="none" stroke="#63b8ff" d="M307.02,-318.94C333.68,-315.98 368.04,-312.16 393.33,-309.35"/>
<polygon fill="#63b8ff" stroke="#63b8ff" points="306.4,-315.49 296.85,-320.07 307.18,-322.45 306.4,-315.49"/>
</a>
</g>
</g>
<!-- Node5 -->
<g id="Node000005" class="node">
<title>Node5</title>
<g id="a_Node000005"><a xlink:href="classPgp3GthUsWrapper.html" target="_top" xlink:title=" ">
<polygon fill="white" stroke="#bfbfbf" points="653.5,-426 541.5,-426 541.5,-407 653.5,-407 653.5,-426"/>
<text text-anchor="middle" x="597.5" y="-414" font-family="Helvetica,sans-Serif" font-size="10.00">Pgp3GthUsWrapper</text>
</a>
</g>
</g>
<!-- Node4&#45;&gt;Node5 -->
<g id="edge4_Node000004_Node000005" class="edge">
<title>Node4&#45;&gt;Node5</title>
<g id="a_edge4_Node000004_Node000005"><a xlink:title=" ">
<path fill="none" stroke="#63b8ff" d="M475.18,-416.5C495.58,-416.5 519.86,-416.5 541.33,-416.5"/>
<polygon fill="#63b8ff" stroke="#63b8ff" points="474.9,-413 464.9,-416.5 474.9,-420 474.9,-413"/>
</a>
</g>
</g>
<!-- Node7 -->
<g id="Node000007" class="node">
<title>Node7</title>
<g id="a_Node000007"><a xlink:href="classPgp3Gtp7Wrapper.html" target="_top" xlink:title=" ">
<polygon fill="white" stroke="#bfbfbf" points="650,-389 545,-389 545,-370 650,-370 650,-389"/>
<text text-anchor="middle" x="597.5" y="-377" font-family="Helvetica,sans-Serif" font-size="10.00">Pgp3Gtp7Wrapper</text>
</a>
</g>
</g>
<!-- Node6&#45;&gt;Node7 -->
<g id="edge6_Node000006_Node000007" class="edge">
<title>Node6&#45;&gt;Node7</title>
<g id="a_edge6_Node000006_Node000007"><a xlink:title=" ">
<path fill="none" stroke="#63b8ff" d="M471.41,-379.5C493.59,-379.5 521.12,-379.5 544.7,-379.5"/>
<polygon fill="#63b8ff" stroke="#63b8ff" points="471.32,-376 461.32,-379.5 471.32,-383 471.32,-376"/>
</a>
</g>
</g>
<!-- Node8 -->
<g id="Node000008" class="node">
<title>Node8</title>
<g id="a_Node000008"><a xlink:href="classPgp3Gtp7Tb.html" target="_top" xlink:title=" ">
<polygon fill="white" stroke="#bfbfbf" points="770,-389 694,-389 694,-370 770,-370 770,-389"/>
<text text-anchor="middle" x="732" y="-377" font-family="Helvetica,sans-Serif" font-size="10.00">Pgp3Gtp7Tb</text>
</a>
</g>
</g>
<!-- Node7&#45;&gt;Node8 -->
<g id="edge7_Node000007_Node000008" class="edge">
<title>Node7&#45;&gt;Node8</title>
<g id="a_edge7_Node000007_Node000008"><a xlink:title=" ">
<path fill="none" stroke="#63b8ff" d="M660.45,-379.5C671.81,-379.5 683.33,-379.5 693.68,-379.5"/>
<polygon fill="#63b8ff" stroke="#63b8ff" points="660.11,-376 650.11,-379.5 660.11,-383 660.11,-376"/>
</a>
</g>
</g>
<!-- Node10 -->
<g id="Node000010" class="node">
<title>Node10</title>
<g id="a_Node000010"><a xlink:href="classPgp3Gtx7Wrapper.html" target="_top" xlink:title=" ">
<polygon fill="white" stroke="#bfbfbf" points="650,-352 545,-352 545,-333 650,-333 650,-352"/>
<text text-anchor="middle" x="597.5" y="-340" font-family="Helvetica,sans-Serif" font-size="10.00">Pgp3Gtx7Wrapper</text>
</a>
</g>
</g>
<!-- Node9&#45;&gt;Node10 -->
<g id="edge9_Node000009_Node000010" class="edge">
<title>Node9&#45;&gt;Node10</title>
<g id="a_edge9_Node000009_Node000010"><a xlink:title=" ">
<path fill="none" stroke="#63b8ff" d="M471.41,-342.5C493.59,-342.5 521.12,-342.5 544.7,-342.5"/>
<polygon fill="#63b8ff" stroke="#63b8ff" points="471.32,-339 461.32,-342.5 471.32,-346 471.32,-339"/>
</a>
</g>
</g>
<!-- Node12 -->
<g id="Node000012" class="node">
<title>Node12</title>
<g id="a_Node000012"><a xlink:href="classPgp3GtyUsWrapper.html" target="_top" xlink:title=" ">
<polygon fill="white" stroke="#bfbfbf" points="653.5,-315 541.5,-315 541.5,-296 653.5,-296 653.5,-315"/>
<text text-anchor="middle" x="597.5" y="-303" font-family="Helvetica,sans-Serif" font-size="10.00">Pgp3GtyUsWrapper</text>
</a>
</g>
</g>
<!-- Node11&#45;&gt;Node12 -->
<g id="edge11_Node000011_Node000012" class="edge">
<title>Node11&#45;&gt;Node12</title>
<g id="a_edge11_Node000011_Node000012"><a xlink:title=" ">
<path fill="none" stroke="#63b8ff" d="M475.18,-305.5C495.58,-305.5 519.86,-305.5 541.33,-305.5"/>
<polygon fill="#63b8ff" stroke="#63b8ff" points="474.9,-302 464.9,-305.5 474.9,-309 474.9,-302"/>
</a>
</g>
</g>
<!-- Node14&#45;&gt;Node3 -->
<g id="edge14_Node000014_Node000003" class="edge">
<title>Node14&#45;&gt;Node3</title>
<g id="a_edge14_Node000014_Node000003"><a xlink:title=" ">
<path fill="none" stroke="#63b8ff" d="M173.87,-296.93C192.64,-302.46 215.48,-309.19 233.46,-314.5"/>
<polygon fill="#63b8ff" stroke="#63b8ff" points="174.78,-293.55 164.2,-294.08 172.8,-300.26 174.78,-293.55"/>
</a>
</g>
</g>
<!-- Node14&#45;&gt;Node13 -->
<g id="edge15_Node000014_Node000013" class="edge">
<title>Node14&#45;&gt;Node13</title>
<g id="a_edge15_Node000014_Node000013"><a xlink:title=" ">
<path fill="none" stroke="#63b8ff" d="M174.11,-281.39C194.58,-278.46 219.82,-274.84 238.33,-272.18"/>
<polygon fill="#63b8ff" stroke="#63b8ff" points="173.6,-277.93 164.2,-282.81 174.6,-284.86 173.6,-277.93"/>
</a>
</g>
</g>
<!-- Node16 -->
<g id="Node000016" class="node">
<title>Node16</title>
<g id="a_Node000016"><a xlink:href="classPgp4Core.html" target="_top" xlink:title=" ">
<polygon fill="white" stroke="#bfbfbf" points="296.5,-186 233.5,-186 233.5,-167 296.5,-167 296.5,-186"/>
<text text-anchor="middle" x="265" y="-174" font-family="Helvetica,sans-Serif" font-size="10.00">Pgp4Core</text>
</a>
</g>
</g>
<!-- Node15&#45;&gt;Node16 -->
<g id="edge17_Node000015_Node000016" class="edge">
<title>Node15&#45;&gt;Node16</title>
<g id="a_edge17_Node000015_Node000016"><a xlink:title=" ">
<path fill="none" stroke="#63b8ff" d="M173.87,-149.93C192.64,-155.46 215.48,-162.19 233.46,-167.5"/>
<polygon fill="#63b8ff" stroke="#63b8ff" points="174.78,-146.55 164.2,-147.08 172.8,-153.26 174.78,-146.55"/>
</a>
</g>
</g>
<!-- Node27 -->
<g id="Node000027" class="node">
<title>Node27</title>
<g id="a_Node000027"><a xlink:href="classPgp4CoreLite.html" target="_top" xlink:title=" ">
<polygon fill="white" stroke="#bfbfbf" points="305.5,-149 224.5,-149 224.5,-130 305.5,-130 305.5,-149"/>
<text text-anchor="middle" x="265" y="-137" font-family="Helvetica,sans-Serif" font-size="10.00">Pgp4CoreLite</text>
</a>
</g>
</g>
<!-- Node15&#45;&gt;Node27 -->
<g id="edge28_Node000015_Node000027" class="edge">
<title>Node15&#45;&gt;Node27</title>
<g id="a_edge28_Node000015_Node000027"><a xlink:title=" ">
<path fill="none" stroke="#63b8ff" d="M174.52,-139.5C190.15,-139.5 208.49,-139.5 224.49,-139.5"/>
<polygon fill="#63b8ff" stroke="#63b8ff" points="174.2,-136 164.2,-139.5 174.2,-143 174.2,-136"/>
</a>
</g>
</g>
<!-- Node31 -->
<g id="Node000031" class="node">
<title>Node31</title>
<g id="a_Node000031"><a xlink:href="classPgp4TxLiteTb.html" target="_top" xlink:title=" ">
<polygon fill="white" stroke="#bfbfbf" points="306.5,-112 223.5,-112 223.5,-93 306.5,-93 306.5,-112"/>
<text text-anchor="middle" x="265" y="-100" font-family="Helvetica,sans-Serif" font-size="10.00">Pgp4TxLiteTb</text>
</a>
</g>
</g>
<!-- Node15&#45;&gt;Node31 -->
<g id="edge32_Node000015_Node000031" class="edge">
<title>Node15&#45;&gt;Node31</title>
<g id="a_edge32_Node000015_Node000031"><a xlink:title=" ">
<path fill="none" stroke="#63b8ff" d="M173.84,-129.08C191.98,-123.73 213.93,-117.26 231.63,-112.04"/>
<polygon fill="#63b8ff" stroke="#63b8ff" points="172.8,-125.74 164.2,-131.92 174.78,-132.45 172.8,-125.74"/>
</a>
</g>
</g>
<!-- Node17 -->
<g id="Node000017" class="node">
<title>Node17</title>
<g id="a_Node000017"><a xlink:href="classPgp4Tb.html" target="_top" xlink:title=" ">
<polygon fill="white" stroke="#bfbfbf" points="455.5,-278 402.5,-278 402.5,-259 455.5,-259 455.5,-278"/>
<text text-anchor="middle" x="429" y="-266" font-family="Helvetica,sans-Serif" font-size="10.00">Pgp4Tb</text>
</a>
</g>
</g>
<!-- Node16&#45;&gt;Node17 -->
<g id="edge18_Node000016_Node000017" class="edge">
<title>Node16&#45;&gt;Node17</title>
<g id="a_edge18_Node000016_Node000017"><a xlink:title=" ">
<path fill="none" stroke="#63b8ff" d="M282.65,-193.47C299.83,-210.05 328.12,-234.87 357,-249.5 371.23,-256.71 388.49,-261.41 402.43,-264.33"/>
<polygon fill="#63b8ff" stroke="#63b8ff" points="284.73,-190.61 275.15,-186.07 279.81,-195.59 284.73,-190.61"/>
</a>
</g>
</g>
<!-- Node18 -->
<g id="Node000018" class="node">
<title>Node18</title>
<g id="a_Node000018"><a xlink:href="classPgp4GthUs.html" target="_top" xlink:title=" ">
<polygon fill="white" stroke="#bfbfbf" points="464.5,-241 393.5,-241 393.5,-222 464.5,-222 464.5,-241"/>
<text text-anchor="middle" x="429" y="-229" font-family="Helvetica,sans-Serif" font-size="10.00">Pgp4GthUs</text>
</a>
</g>
</g>
<!-- Node16&#45;&gt;Node18 -->
<g id="edge19_Node000016_Node000018" class="edge">
<title>Node16&#45;&gt;Node18</title>
<g id="a_edge19_Node000016_Node000018"><a xlink:title=" ">
<path fill="none" stroke="#63b8ff" d="M297.79,-190.12C315.12,-197.28 337.04,-205.91 357,-212.5 368.75,-216.38 381.79,-220.05 393.46,-223.11"/>
<polygon fill="#63b8ff" stroke="#63b8ff" points="298.75,-186.73 288.17,-186.1 296.05,-193.19 298.75,-186.73"/>
</a>
</g>
</g>
<!-- Node20 -->
<g id="Node000020" class="node">
<title>Node20</title>
<g id="a_Node000020"><a xlink:href="classPgp4Gtp7.html" target="_top" xlink:title=" ">
<polygon fill="white" stroke="#bfbfbf" points="461,-204 397,-204 397,-185 461,-185 461,-204"/>
<text text-anchor="middle" x="429" y="-192" font-family="Helvetica,sans-Serif" font-size="10.00">Pgp4Gtp7</text>
</a>
</g>
</g>
<!-- Node16&#45;&gt;Node20 -->
<g id="edge21_Node000016_Node000020" class="edge">
<title>Node16&#45;&gt;Node20</title>
<g id="a_edge21_Node000016_Node000020"><a xlink:title=" ">
<path fill="none" stroke="#63b8ff" d="M307.11,-181.07C335.06,-184.17 371.46,-188.22 396.99,-191.05"/>
<polygon fill="#63b8ff" stroke="#63b8ff" points="307.18,-177.55 296.85,-179.93 306.4,-184.51 307.18,-177.55"/>
</a>
</g>
</g>
<!-- Node22 -->
<g id="Node000022" class="node">
<title>Node22</title>
<g id="a_Node000022"><a xlink:href="classPgp4Gtx7.html" target="_top" xlink:title=" ">
<polygon fill="white" stroke="#bfbfbf" points="461,-167 397,-167 397,-148 461,-148 461,-167"/>
<text text-anchor="middle" x="429" y="-155" font-family="Helvetica,sans-Serif" font-size="10.00">Pgp4Gtx7</text>
</a>
</g>
</g>
<!-- Node16&#45;&gt;Node22 -->
<g id="edge23_Node000016_Node000022" class="edge">
<title>Node16&#45;&gt;Node22</title>
<g id="a_edge23_Node000016_Node000022"><a xlink:title=" ">
<path fill="none" stroke="#63b8ff" d="M307.11,-171.68C335.06,-168.4 371.46,-164.13 396.99,-161.14"/>
<polygon fill="#63b8ff" stroke="#63b8ff" points="306.38,-168.24 296.85,-172.88 307.19,-175.19 306.38,-168.24"/>
</a>
</g>
</g>
<!-- Node24 -->
<g id="Node000024" class="node">
<title>Node24</title>
<g id="a_Node000024"><a xlink:href="classPgp4GtyUs.html" target="_top" xlink:title=" ">
<polygon fill="white" stroke="#bfbfbf" points="464.5,-130 393.5,-130 393.5,-111 464.5,-111 464.5,-130"/>
<text text-anchor="middle" x="429" y="-118" font-family="Helvetica,sans-Serif" font-size="10.00">Pgp4GtyUs</text>
</a>
</g>
</g>
<!-- Node16&#45;&gt;Node24 -->
<g id="edge25_Node000016_Node000024" class="edge">
<title>Node16&#45;&gt;Node24</title>
<g id="a_edge25_Node000016_Node000024"><a xlink:title=" ">
<path fill="none" stroke="#63b8ff" d="M305.99,-163.49C311.09,-161.6 316.2,-159.58 321,-157.5 337.6,-150.3 340.11,-144.99 357,-138.5 368.51,-134.07 381.5,-130.42 393.18,-127.58"/>
<polygon fill="#63b8ff" stroke="#63b8ff" points="304.53,-160.3 296.29,-166.97 306.89,-166.89 304.53,-160.3"/>
</a>
</g>
</g>
<!-- Node26 -->
<g id="Node000026" class="node">
<title>Node26</title>
<g id="a_Node000026"><a xlink:href="classPgp4FecTb.html" target="_top" xlink:title=" ">
<polygon fill="white" stroke="#bfbfbf" points="463.5,-93 394.5,-93 394.5,-74 463.5,-74 463.5,-93"/>
<text text-anchor="middle" x="429" y="-81" font-family="Helvetica,sans-Serif" font-size="10.00">Pgp4FecTb</text>
</a>
</g>
</g>
<!-- Node16&#45;&gt;Node26 -->
<g id="edge27_Node000016_Node000026" class="edge">
<title>Node16&#45;&gt;Node26</title>
<g id="a_edge27_Node000016_Node000026"><a xlink:title=" ">
<path fill="none" stroke="#63b8ff" d="M306.22,-166.18C311.49,-163.83 316.58,-160.97 321,-157.5 344.26,-139.22 332.99,-118.78 357,-101.5 367.84,-93.7 381.73,-89.27 394.35,-86.76"/>
<polygon fill="#63b8ff" stroke="#63b8ff" points="304.72,-163.01 296.65,-169.88 307.24,-169.54 304.72,-163.01"/>
</a>
</g>
</g>
<!-- Node19 -->
<g id="Node000019" class="node">
<title>Node19</title>
<g id="a_Node000019"><a xlink:href="classPgp4GthUsWrapper.html" target="_top" xlink:title=" ">
<polygon fill="white" stroke="#bfbfbf" points="653.5,-241 541.5,-241 541.5,-222 653.5,-222 653.5,-241"/>
<text text-anchor="middle" x="597.5" y="-229" font-family="Helvetica,sans-Serif" font-size="10.00">Pgp4GthUsWrapper</text>
</a>
</g>
</g>
<!-- Node18&#45;&gt;Node19 -->
<g id="edge20_Node000018_Node000019" class="edge">
<title>Node18&#45;&gt;Node19</title>
<g id="a_edge20_Node000018_Node000019"><a xlink:title=" ">
<path fill="none" stroke="#63b8ff" d="M475.18,-231.5C495.58,-231.5 519.86,-231.5 541.33,-231.5"/>
<polygon fill="#63b8ff" stroke="#63b8ff" points="474.9,-228 464.9,-231.5 474.9,-235 474.9,-228"/>
</a>
</g>
</g>
<!-- Node21 -->
<g id="Node000021" class="node">
<title>Node21</title>
<g id="a_Node000021"><a xlink:href="classPgp4Gtp7Wrapper.html" target="_top" xlink:title=" ">
<polygon fill="white" stroke="#bfbfbf" points="650,-204 545,-204 545,-185 650,-185 650,-204"/>
<text text-anchor="middle" x="597.5" y="-192" font-family="Helvetica,sans-Serif" font-size="10.00">Pgp4Gtp7Wrapper</text>
</a>
</g>
</g>
<!-- Node20&#45;&gt;Node21 -->
<g id="edge22_Node000020_Node000021" class="edge">
<title>Node20&#45;&gt;Node21</title>
<g id="a_edge22_Node000020_Node000021"><a xlink:title=" ">
<path fill="none" stroke="#63b8ff" d="M471.41,-194.5C493.59,-194.5 521.12,-194.5 544.7,-194.5"/>
<polygon fill="#63b8ff" stroke="#63b8ff" points="471.32,-191 461.32,-194.5 471.32,-198 471.32,-191"/>
</a>
</g>
</g>
<!-- Node23 -->
<g id="Node000023" class="node">
<title>Node23</title>
<g id="a_Node000023"><a xlink:href="classPgp4Gtx7Wrapper.html" target="_top" xlink:title=" ">
<polygon fill="white" stroke="#bfbfbf" points="650,-167 545,-167 545,-148 650,-148 650,-167"/>
<text text-anchor="middle" x="597.5" y="-155" font-family="Helvetica,sans-Serif" font-size="10.00">Pgp4Gtx7Wrapper</text>
</a>
</g>
</g>
<!-- Node22&#45;&gt;Node23 -->
<g id="edge24_Node000022_Node000023" class="edge">
<title>Node22&#45;&gt;Node23</title>
<g id="a_edge24_Node000022_Node000023"><a xlink:title=" ">
<path fill="none" stroke="#63b8ff" d="M471.41,-157.5C493.59,-157.5 521.12,-157.5 544.7,-157.5"/>
<polygon fill="#63b8ff" stroke="#63b8ff" points="471.32,-154 461.32,-157.5 471.32,-161 471.32,-154"/>
</a>
</g>
</g>
<!-- Node25 -->
<g id="Node000025" class="node">
<title>Node25</title>
<g id="a_Node000025"><a xlink:href="classPgp4GtyUsWrapper.html" target="_top" xlink:title=" ">
<polygon fill="white" stroke="#bfbfbf" points="653.5,-130 541.5,-130 541.5,-111 653.5,-111 653.5,-130"/>
<text text-anchor="middle" x="597.5" y="-118" font-family="Helvetica,sans-Serif" font-size="10.00">Pgp4GtyUsWrapper</text>
</a>
</g>
</g>
<!-- Node24&#45;&gt;Node25 -->
<g id="edge26_Node000024_Node000025" class="edge">
<title>Node24&#45;&gt;Node25</title>
<g id="a_edge26_Node000024_Node000025"><a xlink:title=" ">
<path fill="none" stroke="#63b8ff" d="M475.18,-120.5C495.58,-120.5 519.86,-120.5 541.33,-120.5"/>
<polygon fill="#63b8ff" stroke="#63b8ff" points="474.9,-117 464.9,-120.5 474.9,-124 474.9,-117"/>
</a>
</g>
</g>
<!-- Node28 -->
<g id="Node000028" class="node">
<title>Node28</title>
<g id="a_Node000028"><a xlink:href="classPgp4CoreLiteTb.html" target="_top" xlink:title=" ">
<polygon fill="white" stroke="#bfbfbf" points="475.5,-56 382.5,-56 382.5,-37 475.5,-37 475.5,-56"/>
<text text-anchor="middle" x="429" y="-44" font-family="Helvetica,sans-Serif" font-size="10.00">Pgp4CoreLiteTb</text>
</a>
</g>
</g>
<!-- Node27&#45;&gt;Node28 -->
<g id="edge29_Node000027_Node000028" class="edge">
<title>Node27&#45;&gt;Node28</title>
<g id="a_edge29_Node000027_Node000028"><a xlink:title=" ">
<path fill="none" stroke="#63b8ff" d="M313.59,-125.46C316.2,-123.96 318.69,-122.31 321,-120.5 344.26,-102.22 332.99,-81.78 357,-64.5 364.43,-59.15 373.3,-55.39 382.21,-52.74"/>
<polygon fill="#63b8ff" stroke="#63b8ff" points="311.83,-122.42 304.4,-129.97 314.92,-128.7 311.83,-122.42"/>
</a>
</g>
</g>
<!-- Node29 -->
<g id="Node000029" class="node">
<title>Node29</title>
<g id="a_Node000029"><a xlink:href="classPgp4RxLiteLowSpeedLane.html" target="_top" xlink:title=" ">
<polygon fill="white" stroke="#bfbfbf" points="501,-19 357,-19 357,0 501,0 501,-19"/>
<text text-anchor="middle" x="429" y="-7" font-family="Helvetica,sans-Serif" font-size="10.00">Pgp4RxLiteLowSpeedLane</text>
</a>
</g>
</g>
<!-- Node27&#45;&gt;Node29 -->
<g id="edge30_Node000027_Node000029" class="edge">
<title>Node27&#45;&gt;Node29</title>
<g id="a_edge30_Node000027_Node000029"><a xlink:title=" ">
<path fill="none" stroke="#63b8ff" d="M314.77,-125.51C316.99,-124 319.09,-122.34 321,-120.5 352.91,-89.74 323.82,-56.89 357,-27.5 360.81,-24.13 365.16,-21.37 369.79,-19.12"/>
<polygon fill="#63b8ff" stroke="#63b8ff" points="312.73,-122.63 305.68,-130.54 316.12,-128.76 312.73,-122.63"/>
</a>
</g>
</g>
<!-- Node30 -->
<g id="Node000030" class="node">
<title>Node30</title>
<g id="a_Node000030"><a xlink:href="classPgp4LiteRxLowSpeed.html" target="_top" xlink:title=" ">
<polygon fill="white" stroke="#bfbfbf" points="658,-19 537,-19 537,0 658,0 658,-19"/>
<text text-anchor="middle" x="597.5" y="-7" font-family="Helvetica,sans-Serif" font-size="10.00">Pgp4LiteRxLowSpeed</text>
</a>
</g>
</g>
<!-- Node29&#45;&gt;Node30 -->
<g id="edge31_Node000029_Node000030" class="edge">
<title>Node29&#45;&gt;Node30</title>
<g id="a_edge31_Node000029_Node000030"><a xlink:title=" ">
<path fill="none" stroke="#63b8ff" d="M511.22,-9.5C519.88,-9.5 528.56,-9.5 536.9,-9.5"/>
<polygon fill="#63b8ff" stroke="#63b8ff" points="511.09,-6 501.09,-9.5 511.09,-13 511.09,-6"/>
</a>
</g>
</g>
<!-- Node32&#45;&gt;Node16 -->
<g id="edge34_Node000032_Node000016" class="edge">
<title>Node32&#45;&gt;Node16</title>
<g id="a_edge34_Node000032_Node000016"><a xlink:title=" ">
<path fill="none" stroke="#63b8ff" d="M174.39,-176.5C193.06,-176.5 215.64,-176.5 233.46,-176.5"/>
<polygon fill="#63b8ff" stroke="#63b8ff" points="174.2,-173 164.2,-176.5 174.2,-180 174.2,-173"/>
</a>
</g>
</g>
<!-- Node33&#45;&gt;Node27 -->
<g id="edge36_Node000033_Node000027" class="edge">
<title>Node33&#45;&gt;Node27</title>
<g id="a_edge36_Node000033_Node000027"><a xlink:title=" ">
<path fill="none" stroke="#63b8ff" d="M180.78,-114.96C197.28,-119.83 215.91,-125.32 231.35,-129.88"/>
<polygon fill="#63b8ff" stroke="#63b8ff" points="181.4,-111.5 170.82,-112.03 179.42,-118.21 181.4,-111.5"/>
</a>
</g>
</g>
<!-- Node33&#45;&gt;Node31 -->
<g id="edge37_Node000033_Node000031" class="edge">
<title>Node33&#45;&gt;Node31</title>
<g id="a_edge37_Node000033_Node000031"><a xlink:title=" ">
<path fill="none" stroke="#63b8ff" d="M183.29,-102.5C196.32,-102.5 210.49,-102.5 223.26,-102.5"/>
<polygon fill="#63b8ff" stroke="#63b8ff" points="183.13,-99 173.13,-102.5 183.13,-106 183.13,-99"/>
</a>
</g>
</g>
<!-- Node34 -->
<g id="Node000034" class="node">
<title>Node34</title>
<g id="a_Node000034"><a xlink:href="classPgp4TxLiteWrapper.html" target="_top" xlink:title=" ">
<polygon fill="white" stroke="#bfbfbf" points="321,-75 209,-75 209,-56 321,-56 321,-75"/>
<text text-anchor="middle" x="265" y="-63" font-family="Helvetica,sans-Serif" font-size="10.00">Pgp4TxLiteWrapper</text>
</a>
</g>
</g>
<!-- Node33&#45;&gt;Node34 -->
<g id="edge38_Node000033_Node000034" class="edge">
<title>Node33&#45;&gt;Node34</title>
<g id="a_edge38_Node000033_Node000034"><a xlink:title=" ">
<path fill="none" stroke="#63b8ff" d="M180.78,-90.04C197.28,-85.17 215.91,-79.68 231.35,-75.12"/>
<polygon fill="#63b8ff" stroke="#63b8ff" points="179.42,-86.79 170.82,-92.97 181.4,-93.5 179.42,-86.79"/>
</a>
</g>
</g>
</g>
</svg>
