<?xml version="1.0" encoding="UTF-8" standalone="no"?>
<!DOCTYPE svg PUBLIC "-//W3C//DTD SVG 1.1//EN"
 "http://www.w3.org/Graphics/SVG/1.1/DTD/svg11.dtd">
<!-- Generated by graphviz version 2.43.0 (0)
 -->
<!-- Title: Pgp3GtyUsIpWrapper Pages: 1 -->
<svg width="688pt" height="412pt"
 viewBox="0.00 0.00 687.50 412.00" xmlns="http://www.w3.org/2000/svg" xmlns:xlink="http://www.w3.org/1999/xlink">
<g id="graph0" class="graph" transform="scale(1 1) rotate(0) translate(4 408)">
<title>Pgp3GtyUsIpWrapper</title>
<!-- Node1 -->
<g id="Node000001" class="node">
<title>Node1</title>
<g id="a_Node000001"><a xlink:title=" ">
<polygon fill="#999999" stroke="#666666" points="180.5,-129 59.5,-129 59.5,-110 180.5,-110 180.5,-129"/>
<text text-anchor="middle" x="120" y="-117" font-family="Helvetica,sans-Serif" font-size="10.00">Pgp3GtyUsIpWrapper</text>
</a>
</g>
</g>
<!-- Node13 -->
<g id="Node000013" class="node">
<title>Node13</title>
<g id="a_Node000013"><a xlink:href="classPgp3GtyUs.html" target="_top" xlink:title=" ">
<polygon fill="white" stroke="#bfbfbf" points="111.5,-74 40.5,-74 40.5,-55 111.5,-55 111.5,-74"/>
<text text-anchor="middle" x="76" y="-62" font-family="Helvetica,sans-Serif" font-size="10.00">Pgp3GtyUs</text>
</a>
</g>
</g>
<!-- Node1&#45;&gt;Node13 -->
<g id="edge15_Node000001_Node000013" class="edge">
<title>Node1&#45;&gt;Node13</title>
<g id="a_edge15_Node000001_Node000013"><a xlink:title=" ">
<path fill="none" stroke="#63b8ff" d="M106.27,-101.96C98.6,-92.72 89.37,-81.6 83.13,-74.09"/>
<polygon fill="#63b8ff" stroke="#63b8ff" points="103.65,-104.29 112.73,-109.75 109.04,-99.82 103.65,-104.29"/>
</a>
</g>
</g>
<!-- Node15 -->
<g id="Node000015" class="node">
<title>Node15</title>
<g id="a_Node000015"><a xlink:href="classPgp4GtyUs.html" target="_top" xlink:title=" ">
<polygon fill="white" stroke="#bfbfbf" points="210.5,-74 139.5,-74 139.5,-55 210.5,-55 210.5,-74"/>
<text text-anchor="middle" x="175" y="-62" font-family="Helvetica,sans-Serif" font-size="10.00">Pgp4GtyUs</text>
</a>
</g>
</g>
<!-- Node1&#45;&gt;Node15 -->
<g id="edge17_Node000001_Node000015" class="edge">
<title>Node1&#45;&gt;Node15</title>
<g id="a_edge17_Node000001_Node000015"><a xlink:title=" ">
<path fill="none" stroke="#63b8ff" d="M136.29,-102.8C146.04,-93.41 158.05,-81.83 166.09,-74.09"/>
<polygon fill="#63b8ff" stroke="#63b8ff" points="133.85,-100.29 129.08,-109.75 138.71,-105.33 133.85,-100.29"/>
</a>
</g>
</g>
<!-- Node2 -->
<g id="Node000002" class="node">
<title>Node2</title>
<g id="a_Node000002"><a xlink:href="classRstSync.html" target="_top" xlink:title=" ">
<polygon fill="white" stroke="#bfbfbf" points="81,-349 25,-349 25,-330 81,-330 81,-349"/>
<text text-anchor="middle" x="53" y="-337" font-family="Helvetica,sans-Serif" font-size="10.00">RstSync</text>
</a>
</g>
</g>
<!-- Node2&#45;&gt;Node1 -->
<g id="edge1_Node000001_Node000002" class="edge">
<title>Node2&#45;&gt;Node1</title>
<g id="a_edge1_Node000001_Node000002"><a xlink:title=" ">
<path fill="none" stroke="#63b8ff" d="M50.96,-319.92C48.18,-286.82 46.17,-216.33 72,-165 79.66,-149.77 94.82,-137.11 106.07,-129.24"/>
<polygon fill="#63b8ff" stroke="#63b8ff" points="47.49,-320.35 51.93,-329.97 54.46,-319.68 47.49,-320.35"/>
</a>
</g>
</g>
<!-- Node6 -->
<g id="Node000006" class="node">
<title>Node6</title>
<g id="a_Node000006"><a xlink:href="classAxiLiteAsync.html" target="_top" xlink:title=" ">
<polygon fill="white" stroke="#bfbfbf" points="161,-239 81,-239 81,-220 161,-220 161,-239"/>
<text text-anchor="middle" x="121" y="-227" font-family="Helvetica,sans-Serif" font-size="10.00">AxiLiteAsync</text>
</a>
</g>
</g>
<!-- Node2&#45;&gt;Node6 -->
<g id="edge6_Node000006_Node000002" class="edge">
<title>Node2&#45;&gt;Node6</title>
<g id="a_edge6_Node000006_Node000002"><a xlink:title=" ">
<path fill="none" stroke="#63b8ff" d="M63.97,-321.07C78.72,-297.64 104.38,-256.89 115.55,-239.16"/>
<polygon fill="#63b8ff" stroke="#63b8ff" points="60.93,-319.33 58.56,-329.66 66.85,-323.06 60.93,-319.33"/>
</a>
</g>
</g>
<!-- Node7 -->
<g id="Node000007" class="node">
<title>Node7</title>
<g id="a_Node000007"><a xlink:href="classFifoAsync.html" target="_top" xlink:title=" ">
<polygon fill="white" stroke="#bfbfbf" points="278,-294 214,-294 214,-275 278,-275 278,-294"/>
<text text-anchor="middle" x="246" y="-282" font-family="Helvetica,sans-Serif" font-size="10.00">FifoAsync</text>
</a>
</g>
</g>
<!-- Node2&#45;&gt;Node7 -->
<g id="edge8_Node000007_Node000002" class="edge">
<title>Node2&#45;&gt;Node7</title>
<g id="a_edge8_Node000007_Node000002"><a xlink:title=" ">
<path fill="none" stroke="#63b8ff" d="M90.79,-328.12C127.07,-318.16 181.22,-303.29 215.03,-294.01"/>
<polygon fill="#63b8ff" stroke="#63b8ff" points="89.78,-324.77 81.06,-330.79 91.63,-331.52 89.78,-324.77"/>
</a>
</g>
</g>
<!-- Node3 -->
<g id="Node000003" class="node">
<title>Node3</title>
<g id="a_Node000003"><a xlink:href="classSynchronizer.html" target="_top" xlink:title=" ">
<polygon fill="white" stroke="#bfbfbf" points="121,-404 41,-404 41,-385 121,-385 121,-404"/>
<text text-anchor="middle" x="81" y="-392" font-family="Helvetica,sans-Serif" font-size="10.00">Synchronizer</text>
</a>
</g>
</g>
<!-- Node3&#45;&gt;Node2 -->
<g id="edge2_Node000002_Node000003" class="edge">
<title>Node3&#45;&gt;Node2</title>
<g id="a_edge2_Node000002_Node000003"><a xlink:title=" ">
<path fill="none" stroke="#63b8ff" d="M71.66,-375.82C66.91,-366.82 61.34,-356.29 57.54,-349.09"/>
<polygon fill="#63b8ff" stroke="#63b8ff" points="68.61,-377.54 76.38,-384.75 74.8,-374.27 68.61,-377.54"/>
</a>
</g>
</g>
<!-- Node3&#45;&gt;Node7 -->
<g id="edge10_Node000007_Node000003" class="edge">
<title>Node3&#45;&gt;Node7</title>
<g id="a_edge10_Node000007_Node000003"><a xlink:title=" ">
<path fill="none" stroke="#63b8ff" d="M90.14,-376.09C98.36,-361.94 111.64,-342.36 128,-330 153.59,-310.66 188.54,-298.88 213.75,-292.35"/>
<polygon fill="#63b8ff" stroke="#63b8ff" points="87.06,-374.42 85.28,-384.87 93.19,-377.81 87.06,-374.42"/>
</a>
</g>
</g>
<!-- Node4 -->
<g id="Node000004" class="node">
<title>Node4</title>
<g id="a_Node000004"><a xlink:href="classPgp4GtyUsIpFecWrapper.html" target="_top" xlink:title=" ">
<polygon fill="white" stroke="#bfbfbf" points="314.5,-184 177.5,-184 177.5,-165 314.5,-165 314.5,-184"/>
<text text-anchor="middle" x="246" y="-172" font-family="Helvetica,sans-Serif" font-size="10.00">Pgp4GtyUsIpFecWrapper</text>
</a>
</g>
</g>
<!-- Node4&#45;&gt;Node1 -->
<g id="edge3_Node000001_Node000004" class="edge">
<title>Node4&#45;&gt;Node1</title>
<g id="a_edge3_Node000001_Node000004"><a xlink:title=" ">
<path fill="none" stroke="#63b8ff" d="M216.35,-161.03C193.05,-151.23 161.2,-137.83 140.61,-129.17"/>
<polygon fill="#63b8ff" stroke="#63b8ff" points="215.18,-164.33 225.76,-164.98 217.9,-157.88 215.18,-164.33"/>
</a>
</g>
</g>
<!-- Node5 -->
<g id="Node000005" class="node">
<title>Node5</title>
<g id="a_Node000005"><a xlink:href="classAxiLiteToDrp.html" target="_top" xlink:title=" ">
<polygon fill="white" stroke="#bfbfbf" points="159,-184 81,-184 81,-165 159,-165 159,-184"/>
<text text-anchor="middle" x="120" y="-172" font-family="Helvetica,sans-Serif" font-size="10.00">AxiLiteToDrp</text>
</a>
</g>
</g>
<!-- Node5&#45;&gt;Node1 -->
<g id="edge4_Node000001_Node000005" class="edge">
<title>Node5&#45;&gt;Node1</title>
<g id="a_edge4_Node000001_Node000005"><a xlink:title=" ">
<path fill="none" stroke="#63b8ff" d="M120,-154.66C120,-145.93 120,-135.99 120,-129.09"/>
<polygon fill="#63b8ff" stroke="#63b8ff" points="116.5,-154.75 120,-164.75 123.5,-154.75 116.5,-154.75"/>
</a>
</g>
</g>
<!-- Node6&#45;&gt;Node5 -->
<g id="edge5_Node000005_Node000006" class="edge">
<title>Node6&#45;&gt;Node5</title>
<g id="a_edge5_Node000005_Node000006"><a xlink:title=" ">
<path fill="none" stroke="#63b8ff" d="M120.64,-209.66C120.48,-200.93 120.29,-190.99 120.16,-184.09"/>
<polygon fill="#63b8ff" stroke="#63b8ff" points="117.15,-209.82 120.83,-219.75 124.15,-209.68 117.15,-209.82"/>
</a>
</g>
</g>
<!-- Node7&#45;&gt;Node6 -->
<g id="edge7_Node000006_Node000007" class="edge">
<title>Node7&#45;&gt;Node6</title>
<g id="a_edge7_Node000006_Node000007"><a xlink:title=" ">
<path fill="none" stroke="#63b8ff" d="M216.59,-271.03C193.47,-261.23 161.87,-247.83 141.45,-239.17"/>
<polygon fill="#63b8ff" stroke="#63b8ff" points="215.34,-274.3 225.92,-274.98 218.08,-267.86 215.34,-274.3"/>
</a>
</g>
</g>
<!-- Node8 -->
<g id="Node000008" class="node">
<title>Node8</title>
<g id="a_Node000008"><a xlink:href="classSynchronizerVector.html" target="_top" xlink:title=" ">
<polygon fill="white" stroke="#bfbfbf" points="247,-349 137,-349 137,-330 247,-330 247,-349"/>
<text text-anchor="middle" x="192" y="-337" font-family="Helvetica,sans-Serif" font-size="10.00">SynchronizerVector</text>
</a>
</g>
</g>
<!-- Node8&#45;&gt;Node7 -->
<g id="edge9_Node000007_Node000008" class="edge">
<title>Node8&#45;&gt;Node7</title>
<g id="a_edge9_Node000007_Node000008"><a xlink:title=" ">
<path fill="none" stroke="#63b8ff" d="M208.28,-322.52C217.8,-313.18 229.44,-301.75 237.25,-294.09"/>
<polygon fill="#63b8ff" stroke="#63b8ff" points="205.6,-320.25 200.92,-329.75 210.51,-325.24 205.6,-320.25"/>
</a>
</g>
</g>
<!-- Node9 -->
<g id="Node000009" class="node">
<title>Node9</title>
<g id="a_Node000009"><a xlink:href="classFifoWrFsm.html" target="_top" xlink:title=" ">
<polygon fill="white" stroke="#bfbfbf" points="334.5,-349 265.5,-349 265.5,-330 334.5,-330 334.5,-349"/>
<text text-anchor="middle" x="300" y="-337" font-family="Helvetica,sans-Serif" font-size="10.00">FifoWrFsm</text>
</a>
</g>
</g>
<!-- Node9&#45;&gt;Node7 -->
<g id="edge11_Node000007_Node000009" class="edge">
<title>Node9&#45;&gt;Node7</title>
<g id="a_edge11_Node000007_Node000009"><a xlink:title=" ">
<path fill="none" stroke="#63b8ff" d="M283.72,-322.52C274.2,-313.18 262.56,-301.75 254.75,-294.09"/>
<polygon fill="#63b8ff" stroke="#63b8ff" points="281.49,-325.24 291.08,-329.75 286.4,-320.25 281.49,-325.24"/>
</a>
</g>
</g>
<!-- Node10 -->
<g id="Node000010" class="node">
<title>Node10</title>
<g id="a_Node000010"><a xlink:href="classFifoRdFsm.html" target="_top" xlink:title=" ">
<polygon fill="white" stroke="#bfbfbf" points="421,-349 353,-349 353,-330 421,-330 421,-349"/>
<text text-anchor="middle" x="387" y="-337" font-family="Helvetica,sans-Serif" font-size="10.00">FifoRdFsm</text>
</a>
</g>
</g>
<!-- Node10&#45;&gt;Node7 -->
<g id="edge12_Node000007_Node000010" class="edge">
<title>Node10&#45;&gt;Node7</title>
<g id="a_edge12_Node000007_Node000010"><a xlink:title=" ">
<path fill="none" stroke="#63b8ff" d="M354.86,-326.42C328.71,-316.59 292.41,-302.95 269.07,-294.17"/>
<polygon fill="#63b8ff" stroke="#63b8ff" points="353.75,-329.74 364.35,-329.98 356.22,-323.19 353.75,-329.74"/>
</a>
</g>
</g>
<!-- Node11 -->
<g id="Node000011" class="node">
<title>Node11</title>
<g id="a_Node000011"><a xlink:href="classSimpleDualPortRam.html" target="_top" xlink:title=" ">
<polygon fill="white" stroke="#bfbfbf" points="554.5,-349 439.5,-349 439.5,-330 554.5,-330 554.5,-349"/>
<text text-anchor="middle" x="497" y="-337" font-family="Helvetica,sans-Serif" font-size="10.00">SimpleDualPortRam</text>
</a>
</g>
</g>
<!-- Node11&#45;&gt;Node7 -->
<g id="edge13_Node000007_Node000011" class="edge">
<title>Node11&#45;&gt;Node7</title>
<g id="a_edge13_Node000007_Node000011"><a xlink:title=" ">
<path fill="none" stroke="#63b8ff" d="M446.68,-327.87C396.49,-317.28 320.89,-301.31 278.25,-292.31"/>
<polygon fill="#63b8ff" stroke="#63b8ff" points="446.17,-331.34 456.67,-329.98 447.61,-324.49 446.17,-331.34"/>
</a>
</g>
</g>
<!-- Node12 -->
<g id="Node000012" class="node">
<title>Node12</title>
<g id="a_Node000012"><a xlink:href="classFifoOutputPipeline.html" target="_top" xlink:title=" ">
<polygon fill="white" stroke="#bfbfbf" points="679.5,-349 572.5,-349 572.5,-330 679.5,-330 679.5,-349"/>
<text text-anchor="middle" x="626" y="-337" font-family="Helvetica,sans-Serif" font-size="10.00">FifoOutputPipeline</text>
</a>
</g>
</g>
<!-- Node12&#45;&gt;Node7 -->
<g id="edge14_Node000007_Node000012" class="edge">
<title>Node12&#45;&gt;Node7</title>
<g id="a_edge14_Node000007_Node000012"><a xlink:title=" ">
<path fill="none" stroke="#63b8ff" d="M562.41,-329.63C480.39,-318.19 340.85,-298.73 278.16,-289.99"/>
<polygon fill="#63b8ff" stroke="#63b8ff" points="561.97,-333.1 572.36,-331.02 562.94,-326.17 561.97,-333.1"/>
</a>
</g>
</g>
<!-- Node14 -->
<g id="Node000014" class="node">
<title>Node14</title>
<g id="a_Node000014"><a xlink:href="classPgp3GtyUsWrapper.html" target="_top" xlink:title=" ">
<polygon fill="white" stroke="#bfbfbf" points="112,-19 0,-19 0,0 112,0 112,-19"/>
<text text-anchor="middle" x="56" y="-7" font-family="Helvetica,sans-Serif" font-size="10.00">Pgp3GtyUsWrapper</text>
</a>
</g>
</g>
<!-- Node13&#45;&gt;Node14 -->
<g id="edge16_Node000013_Node000014" class="edge">
<title>Node13&#45;&gt;Node14</title>
<g id="a_edge16_Node000013_Node000014"><a xlink:title=" ">
<path fill="none" stroke="#63b8ff" d="M69.11,-45.24C65.76,-36.37 61.9,-26.14 59.24,-19.09"/>
<polygon fill="#63b8ff" stroke="#63b8ff" points="65.89,-46.63 72.7,-54.75 72.44,-44.16 65.89,-46.63"/>
</a>
</g>
</g>
<!-- Node16 -->
<g id="Node000016" class="node">
<title>Node16</title>
<g id="a_Node000016"><a xlink:href="classPgp4GtyUsWrapper.html" target="_top" xlink:title=" ">
<polygon fill="white" stroke="#bfbfbf" points="242,-19 130,-19 130,0 242,0 242,-19"/>
<text text-anchor="middle" x="186" y="-7" font-family="Helvetica,sans-Serif" font-size="10.00">Pgp4GtyUsWrapper</text>
</a>
</g>
</g>
<!-- Node15&#45;&gt;Node16 -->
<g id="edge18_Node000015_Node000016" class="edge">
<title>Node15&#45;&gt;Node16</title>
<g id="a_edge18_Node000015_Node000016"><a xlink:title=" ">
<path fill="none" stroke="#63b8ff" d="M178.85,-44.95C180.68,-36.15 182.77,-26.06 184.22,-19.09"/>
<polygon fill="#63b8ff" stroke="#63b8ff" points="175.42,-44.25 176.82,-54.75 182.28,-45.67 175.42,-44.25"/>
</a>
</g>
</g>
</g>
</svg>
