<?xml version="1.0" encoding="UTF-8" standalone="no"?>
<!DOCTYPE svg PUBLIC "-//W3C//DTD SVG 1.1//EN"
 "http://www.w3.org/Graphics/SVG/1.1/DTD/svg11.dtd">
<!-- Generated by graphviz version 2.43.0 (0)
 -->
<!-- Title: SugoiManagerCore Pages: 1 -->
<!--zoomable 560 -->
<svg id="main" version="1.1" xmlns="http://www.w3.org/2000/svg" xmlns:xlink="http://www.w3.org/1999/xlink" xml:space="preserve" onload="init(evt)">
<style type="text/css"><![CDATA[
.edge:hover path { stroke: red; }
.edge:hover polygon { stroke: red; fill: red; }
]]></style>
<script type="text/javascript"><![CDATA[
var edges = document.getElementsByTagName('g');
if (edges && edges.length) {
  for (var i=0;i<edges.length;i++) {
    if (edges[i].id.substr(0,4)=='edge') {
      edges[i].setAttribute('class','edge');
    }
  }
}
]]></script>
        <defs>
                <circle id="rim" cx="0" cy="0" r="7"/>
                <circle id="rim2" cx="0" cy="0" r="3.5"/>
                <g id="zoomPlus">
                        <use xlink:href="#rim" fill="#404040">
                                <set attributeName="fill" to="#808080" begin="zoomplus.mouseover" end="zoomplus.mouseout"/>
                        </use>
                        <path d="M-4,0h8M0,-4v8" fill="none" stroke="white" stroke-width="1.5" pointer-events="none"/>
                </g>
                <g id="zoomMin">
                        <use xlink:href="#rim" fill="#404040">
                                <set attributeName="fill" to="#808080" begin="zoomminus.mouseover" end="zoomminus.mouseout"/>
                        </use>
                        <path d="M-4,0h8" fill="none" stroke="white" stroke-width="1.5" pointer-events="none"/>
                </g>
                <g id="dirArrow">
                        <path fill="none" stroke="white" stroke-width="1.5" d="M0,-3.0v7 M-2.5,-0.5L0,-3.0L2.5,-0.5"/>
                </g>
               <g id="resetDef">
                       <use xlink:href="#rim2" fill="#404040">
                               <set attributeName="fill" to="#808080" begin="reset.mouseover" end="reset.mouseout"/>
                       </use>
               </g>
        </defs>

<script type="text/javascript">
var viewWidth = 890;
var viewHeight = 560;
var sectionId = 'dynsection-0';
</script>
<script xlink:href="svgpan.js"/>
<svg id="graph" class="graph">
<g id="viewport">
<title>SugoiManagerCore</title>
<polygon fill="white" stroke="transparent" points="-4,4 -4,-556 886,-556 886,4 -4,4"/>
<!-- Node1 -->
<g id="node1" class="node">
<title>Node1</title>
<g id="a_node1"><a xlink:title=" ">
<polygon fill="#bfbfbf" stroke="black" points="665,-171.5 665,-190.5 774,-190.5 774,-171.5 665,-171.5"/>
<text text-anchor="middle" x="719.5" y="-178.5" font-family="Helvetica,sans-Serif" font-size="10.00">SugoiManagerCore</text>
</a>
</g>
</g>
<!-- Node25 -->
<g id="node25" class="node">
<title>Node25</title>
<g id="a_node25"><a xlink:href="classSugoiTopTb.html" target="_top" xlink:title=" ">
<polygon fill="white" stroke="black" points="810,-171.5 810,-190.5 882,-190.5 882,-171.5 810,-171.5"/>
<text text-anchor="middle" x="846" y="-178.5" font-family="Helvetica,sans-Serif" font-size="10.00">SugoiTopTb</text>
</a>
</g>
</g>
<!-- Node1&#45;&gt;Node25 -->
<g id="edge25" class="edge">
<title>Node1&#45;&gt;Node25</title>
<path fill="none" stroke="midnightblue" d="M784.03,-181C792.92,-181 801.77,-181 809.86,-181"/>
<polygon fill="midnightblue" stroke="midnightblue" points="784.02,-177.5 774.02,-181 784.02,-184.5 784.02,-177.5"/>
</g>
<!-- Node2 -->
<g id="node2" class="node">
<title>Node2</title>
<g id="a_node2"><a xlink:href="classAxiLiteAsync.html" target="_top" xlink:title=" ">
<polygon fill="white" stroke="black" points="517,-342.5 517,-361.5 597,-361.5 597,-342.5 517,-342.5"/>
<text text-anchor="middle" x="557" y="-349.5" font-family="Helvetica,sans-Serif" font-size="10.00">AxiLiteAsync</text>
</a>
</g>
</g>
<!-- Node2&#45;&gt;Node1 -->
<g id="edge1" class="edge">
<title>Node2&#45;&gt;Node1</title>
<path fill="none" stroke="midnightblue" d="M606.94,-344.31C614.81,-341.6 622.5,-337.94 629,-333 679.95,-294.26 707.36,-217.47 715.71,-190.57"/>
<polygon fill="midnightblue" stroke="midnightblue" points="605.91,-340.96 597.31,-347.16 607.89,-347.68 605.91,-340.96"/>
</g>
<!-- Node3 -->
<g id="node3" class="node">
<title>Node3</title>
<g id="a_node3"><a xlink:href="classRstSync.html" target="_top" xlink:title=" ">
<polygon fill="white" stroke="black" points="167.5,-304.5 167.5,-323.5 236.5,-323.5 236.5,-304.5 167.5,-304.5"/>
<text text-anchor="middle" x="202" y="-311.5" font-family="Helvetica,sans-Serif" font-size="10.00">RstSync(2)</text>
</a>
</g>
</g>
<!-- Node3&#45;&gt;Node2 -->
<g id="edge2" class="edge">
<title>Node3&#45;&gt;Node2</title>
<path fill="none" stroke="midnightblue" d="M246.51,-323.67C263.17,-327.07 282.4,-330.63 300,-333 376.41,-343.28 466.46,-348.34 516.82,-350.55"/>
<polygon fill="midnightblue" stroke="midnightblue" points="247.01,-320.2 236.5,-321.59 245.58,-327.05 247.01,-320.2"/>
</g>
<!-- Node5 -->
<g id="node5" class="node">
<title>Node5</title>
<g id="a_node5"><a xlink:href="classFifoAsync.html" target="_top" xlink:title=" ">
<polygon fill="white" stroke="black" points="336,-380.5 336,-399.5 413,-399.5 413,-380.5 336,-380.5"/>
<text text-anchor="middle" x="374.5" y="-387.5" font-family="Helvetica,sans-Serif" font-size="10.00">FifoAsync(5)</text>
</a>
</g>
</g>
<!-- Node3&#45;&gt;Node5 -->
<g id="edge5" class="edge">
<title>Node3&#45;&gt;Node5</title>
<path fill="none" stroke="midnightblue" d="M246.31,-324.87C252.44,-327.15 258.51,-329.84 264,-333 282.82,-343.82 281.26,-355.05 300,-366 311.01,-372.43 323.97,-377.4 335.92,-381.1"/>
<polygon fill="midnightblue" stroke="midnightblue" points="247.31,-321.51 236.72,-321.62 245.06,-328.14 247.31,-321.51"/>
</g>
<!-- Node4 -->
<g id="node4" class="node">
<title>Node4</title>
<g id="a_node4"><a xlink:href="classSynchronizer.html" target="_top" xlink:title=" ">
<polygon fill="white" stroke="black" points="12,-304.5 12,-323.5 92,-323.5 92,-304.5 12,-304.5"/>
<text text-anchor="middle" x="52" y="-311.5" font-family="Helvetica,sans-Serif" font-size="10.00">Synchronizer</text>
</a>
</g>
</g>
<!-- Node4&#45;&gt;Node3 -->
<g id="edge3" class="edge">
<title>Node4&#45;&gt;Node3</title>
<path fill="none" stroke="midnightblue" d="M102.42,-314C123.65,-314 147.93,-314 167.08,-314"/>
<polygon fill="midnightblue" stroke="midnightblue" points="102.27,-310.5 92.27,-314 102.27,-317.5 102.27,-310.5"/>
</g>
<!-- Node5&#45;&gt;Node2 -->
<g id="edge4" class="edge">
<title>Node5&#45;&gt;Node2</title>
<path fill="none" stroke="midnightblue" d="M423.33,-379.93C452.57,-373.77 489.5,-366 516.96,-360.22"/>
<polygon fill="midnightblue" stroke="midnightblue" points="422.4,-376.55 413.34,-382.03 423.85,-383.4 422.4,-376.55"/>
</g>
<!-- Node6 -->
<g id="node6" class="node">
<title>Node6</title>
<g id="a_node6"><a xlink:href="classSynchronizerVector.html" target="_top" xlink:title=" ">
<polygon fill="white" stroke="black" points="140,-532.5 140,-551.5 264,-551.5 264,-532.5 140,-532.5"/>
<text text-anchor="middle" x="202" y="-539.5" font-family="Helvetica,sans-Serif" font-size="10.00">SynchronizerVector(2)</text>
</a>
</g>
</g>
<!-- Node6&#45;&gt;Node5 -->
<g id="edge6" class="edge">
<title>Node6&#45;&gt;Node5</title>
<path fill="none" stroke="midnightblue" d="M254.62,-528.36C257.9,-526.76 261.06,-524.98 264,-523 314.88,-488.79 354.49,-424.08 368.25,-399.66"/>
<polygon fill="midnightblue" stroke="midnightblue" points="252.98,-525.26 245.17,-532.41 255.74,-531.69 252.98,-525.26"/>
</g>
<!-- Node7 -->
<g id="node7" class="node">
<title>Node7</title>
<g id="a_node7"><a xlink:href="classSynchronizer.html" target="_top" xlink:title=" ">
<polygon fill="white" stroke="black" points="155.5,-494.5 155.5,-513.5 248.5,-513.5 248.5,-494.5 155.5,-494.5"/>
<text text-anchor="middle" x="202" y="-501.5" font-family="Helvetica,sans-Serif" font-size="10.00">Synchronizer(2)</text>
</a>
</g>
</g>
<!-- Node7&#45;&gt;Node5 -->
<g id="edge7" class="edge">
<title>Node7&#45;&gt;Node5</title>
<path fill="none" stroke="midnightblue" d="M251.57,-490.92C255.87,-489.15 260.08,-487.18 264,-485 306.87,-461.12 347.97,-418.5 365.11,-399.54"/>
<polygon fill="midnightblue" stroke="midnightblue" points="250.21,-487.69 242.07,-494.47 252.66,-494.25 250.21,-487.69"/>
</g>
<!-- Node8 -->
<g id="node8" class="node">
<title>Node8</title>
<g id="a_node8"><a xlink:href="classFifoWrFsm.html" target="_top" xlink:title=" ">
<polygon fill="white" stroke="black" points="167.5,-456.5 167.5,-475.5 236.5,-475.5 236.5,-456.5 167.5,-456.5"/>
<text text-anchor="middle" x="202" y="-463.5" font-family="Helvetica,sans-Serif" font-size="10.00">FifoWrFsm</text>
</a>
</g>
</g>
<!-- Node8&#45;&gt;Node5 -->
<g id="edge8" class="edge">
<title>Node8&#45;&gt;Node5</title>
<path fill="none" stroke="midnightblue" d="M246.51,-453.49C252.45,-451.48 258.42,-449.3 264,-447 298.28,-432.87 336.23,-411.81 357.24,-399.63"/>
<polygon fill="midnightblue" stroke="midnightblue" points="245.05,-450.29 236.62,-456.7 247.22,-456.94 245.05,-450.29"/>
</g>
<!-- Node9 -->
<g id="node9" class="node">
<title>Node9</title>
<g id="a_node9"><a xlink:href="classFifoRdFsm.html" target="_top" xlink:title=" ">
<polygon fill="white" stroke="black" points="168,-418.5 168,-437.5 236,-437.5 236,-418.5 168,-418.5"/>
<text text-anchor="middle" x="202" y="-425.5" font-family="Helvetica,sans-Serif" font-size="10.00">FifoRdFsm</text>
</a>
</g>
</g>
<!-- Node9&#45;&gt;Node5 -->
<g id="edge9" class="edge">
<title>Node9&#45;&gt;Node5</title>
<path fill="none" stroke="midnightblue" d="M246.08,-418.4C273.74,-412.23 309.32,-404.3 335.85,-398.39"/>
<polygon fill="midnightblue" stroke="midnightblue" points="245.28,-414.99 236.28,-420.58 246.8,-421.82 245.28,-414.99"/>
</g>
<!-- Node10 -->
<g id="node10" class="node">
<title>Node10</title>
<g id="a_node10"><a xlink:href="classSimpleDualPortRam.html" target="_top" xlink:title=" ">
<polygon fill="white" stroke="black" points="144.5,-380.5 144.5,-399.5 259.5,-399.5 259.5,-380.5 144.5,-380.5"/>
<text text-anchor="middle" x="202" y="-387.5" font-family="Helvetica,sans-Serif" font-size="10.00">SimpleDualPortRam</text>
</a>
</g>
</g>
<!-- Node10&#45;&gt;Node5 -->
<g id="edge10" class="edge">
<title>Node10&#45;&gt;Node5</title>
<path fill="none" stroke="midnightblue" d="M269.9,-390C292.27,-390 316.41,-390 335.76,-390"/>
<polygon fill="midnightblue" stroke="midnightblue" points="269.77,-386.5 259.77,-390 269.77,-393.5 269.77,-386.5"/>
</g>
<!-- Node11 -->
<g id="node11" class="node">
<title>Node11</title>
<g id="a_node11"><a xlink:href="classFifoOutputPipeline.html" target="_top" xlink:title=" ">
<polygon fill="white" stroke="black" points="148.5,-342.5 148.5,-361.5 255.5,-361.5 255.5,-342.5 148.5,-342.5"/>
<text text-anchor="middle" x="202" y="-349.5" font-family="Helvetica,sans-Serif" font-size="10.00">FifoOutputPipeline</text>
</a>
</g>
</g>
<!-- Node11&#45;&gt;Node5 -->
<g id="edge11" class="edge">
<title>Node11&#45;&gt;Node5</title>
<path fill="none" stroke="midnightblue" d="M256.07,-363.83C281.98,-369.6 312.55,-376.42 336,-381.64"/>
<polygon fill="midnightblue" stroke="midnightblue" points="256.55,-360.35 246.02,-361.59 255.02,-367.18 256.55,-360.35"/>
</g>
<!-- Node12 -->
<g id="node12" class="node">
<title>Node12</title>
<g id="a_node12"><a xlink:href="classSugoiManagerRx.html" target="_top" xlink:title=" ">
<polygon fill="white" stroke="black" points="507.5,-304.5 507.5,-323.5 606.5,-323.5 606.5,-304.5 507.5,-304.5"/>
<text text-anchor="middle" x="557" y="-311.5" font-family="Helvetica,sans-Serif" font-size="10.00">SugoiManagerRx</text>
</a>
</g>
</g>
<!-- Node12&#45;&gt;Node1 -->
<g id="edge12" class="edge">
<title>Node12&#45;&gt;Node1</title>
<path fill="none" stroke="midnightblue" d="M616.18,-301.85C620.68,-299.9 625.02,-297.63 629,-295 671.21,-267.14 702.31,-212.75 713.73,-190.67"/>
<polygon fill="midnightblue" stroke="midnightblue" points="614.87,-298.6 606.78,-305.44 617.37,-305.14 614.87,-298.6"/>
</g>
<!-- Node13 -->
<g id="node13" class="node">
<title>Node13</title>
<g id="a_node13"><a xlink:href="classSugoiManagerRx7Series.html" target="_top" xlink:title=" ">
<polygon fill="white" stroke="black" points="307,-304.5 307,-323.5 442,-323.5 442,-304.5 307,-304.5"/>
<text text-anchor="middle" x="374.5" y="-311.5" font-family="Helvetica,sans-Serif" font-size="10.00">SugoiManagerRx7Series</text>
</a>
</g>
</g>
<!-- Node13&#45;&gt;Node12 -->
<g id="edge13" class="edge">
<title>Node13&#45;&gt;Node12</title>
<path fill="none" stroke="midnightblue" d="M452.44,-314C471.06,-314 490.44,-314 507.34,-314"/>
<polygon fill="midnightblue" stroke="midnightblue" points="452.2,-310.5 442.2,-314 452.2,-317.5 452.2,-310.5"/>
</g>
<!-- Node14 -->
<g id="node14" class="node">
<title>Node14</title>
<g id="a_node14"><a xlink:href="classSugoiManagerRxUltrascale.html" target="_top" xlink:title=" ">
<polygon fill="white" stroke="black" points="300,-266.5 300,-285.5 449,-285.5 449,-266.5 300,-266.5"/>
<text text-anchor="middle" x="374.5" y="-273.5" font-family="Helvetica,sans-Serif" font-size="10.00">SugoiManagerRxUltrascale</text>
</a>
</g>
</g>
<!-- Node14&#45;&gt;Node12 -->
<g id="edge14" class="edge">
<title>Node14&#45;&gt;Node12</title>
<path fill="none" stroke="midnightblue" d="M430.98,-287.68C456.58,-293.07 486.58,-299.39 510.78,-304.48"/>
<polygon fill="midnightblue" stroke="midnightblue" points="431.55,-284.22 421.05,-285.59 430.11,-291.07 431.55,-284.22"/>
</g>
<!-- Node15 -->
<g id="node15" class="node">
<title>Node15</title>
<g id="a_node15"><a xlink:href="classIdelaye3Wrapper.html" target="_top" xlink:title=" ">
<polygon fill="white" stroke="black" points="152,-266.5 152,-285.5 252,-285.5 252,-266.5 152,-266.5"/>
<text text-anchor="middle" x="202" y="-273.5" font-family="Helvetica,sans-Serif" font-size="10.00">Idelaye3Wrapper</text>
</a>
</g>
</g>
<!-- Node15&#45;&gt;Node14 -->
<g id="edge15" class="edge">
<title>Node15&#45;&gt;Node14</title>
<path fill="none" stroke="midnightblue" d="M262.66,-276C274.67,-276 287.44,-276 299.87,-276"/>
<polygon fill="midnightblue" stroke="midnightblue" points="262.32,-272.5 252.32,-276 262.32,-279.5 262.32,-272.5"/>
</g>
<!-- Node16 -->
<g id="node16" class="node">
<title>Node16</title>
<g id="a_node16"><a xlink:href="classDelaye3PatchFsm.html" target="_top" xlink:title=" ">
<polygon fill="white" stroke="black" points="0,-266.5 0,-285.5 104,-285.5 104,-266.5 0,-266.5"/>
<text text-anchor="middle" x="52" y="-273.5" font-family="Helvetica,sans-Serif" font-size="10.00">Delaye3PatchFsm</text>
</a>
</g>
</g>
<!-- Node16&#45;&gt;Node15 -->
<g id="edge16" class="edge">
<title>Node16&#45;&gt;Node15</title>
<path fill="none" stroke="midnightblue" d="M114.6,-276C126.99,-276 139.84,-276 151.74,-276"/>
<polygon fill="midnightblue" stroke="midnightblue" points="114.35,-272.5 104.35,-276 114.35,-279.5 114.35,-272.5"/>
</g>
<!-- Node17 -->
<g id="node17" class="node">
<title>Node17</title>
<g id="a_node17"><a xlink:href="classSelectIoRxGearboxAligner.html" target="_top" xlink:title=" ">
<polygon fill="white" stroke="black" points="485,-266.5 485,-285.5 629,-285.5 629,-266.5 485,-266.5"/>
<text text-anchor="middle" x="557" y="-273.5" font-family="Helvetica,sans-Serif" font-size="10.00">SelectIoRxGearboxAligner</text>
</a>
</g>
</g>
<!-- Node17&#45;&gt;Node1 -->
<g id="edge17" class="edge">
<title>Node17&#45;&gt;Node1</title>
<path fill="none" stroke="midnightblue" d="M614.83,-263.25C619.73,-261.42 624.52,-259.35 629,-257 662.76,-239.3 694.96,-206.91 709.86,-190.73"/>
<polygon fill="midnightblue" stroke="midnightblue" points="613.67,-259.95 605.32,-266.48 615.92,-266.58 613.67,-259.95"/>
</g>
<!-- Node18 -->
<g id="node18" class="node">
<title>Node18</title>
<g id="a_node18"><a xlink:href="classGearbox.html" target="_top" xlink:title=" ">
<polygon fill="white" stroke="black" points="521.5,-228.5 521.5,-247.5 592.5,-247.5 592.5,-228.5 521.5,-228.5"/>
<text text-anchor="middle" x="557" y="-235.5" font-family="Helvetica,sans-Serif" font-size="10.00">Gearbox(2)</text>
</a>
</g>
</g>
<!-- Node18&#45;&gt;Node1 -->
<g id="edge18" class="edge">
<title>Node18&#45;&gt;Node1</title>
<path fill="none" stroke="midnightblue" d="M602.42,-227.14C611.29,-224.68 620.5,-221.93 629,-219 653.26,-210.65 680.26,-198.82 698.2,-190.58"/>
<polygon fill="midnightblue" stroke="midnightblue" points="601.35,-223.8 592.6,-229.78 603.17,-230.56 601.35,-223.8"/>
</g>
<!-- Node19 -->
<g id="node19" class="node">
<title>Node19</title>
<g id="a_node19"><a xlink:href="classDecoder8b10b.html" target="_top" xlink:title=" ">
<polygon fill="white" stroke="black" points="513.5,-190.5 513.5,-209.5 600.5,-209.5 600.5,-190.5 513.5,-190.5"/>
<text text-anchor="middle" x="557" y="-197.5" font-family="Helvetica,sans-Serif" font-size="10.00">Decoder8b10b</text>
</a>
</g>
</g>
<!-- Node19&#45;&gt;Node1 -->
<g id="edge19" class="edge">
<title>Node19&#45;&gt;Node1</title>
<path fill="none" stroke="midnightblue" d="M610.57,-193.78C627.95,-191.72 647.31,-189.43 664.77,-187.36"/>
<polygon fill="midnightblue" stroke="midnightblue" points="610.11,-190.31 600.59,-194.96 610.93,-197.26 610.11,-190.31"/>
</g>
<!-- Node20 -->
<g id="node20" class="node">
<title>Node20</title>
<g id="a_node20"><a xlink:href="classSugoiManagerFsm.html" target="_top" xlink:title=" ">
<polygon fill="white" stroke="black" points="503.5,-152.5 503.5,-171.5 610.5,-171.5 610.5,-152.5 503.5,-152.5"/>
<text text-anchor="middle" x="557" y="-159.5" font-family="Helvetica,sans-Serif" font-size="10.00">SugoiManagerFsm</text>
</a>
</g>
</g>
<!-- Node20&#45;&gt;Node1 -->
<g id="edge20" class="edge">
<title>Node20&#45;&gt;Node1</title>
<path fill="none" stroke="midnightblue" d="M620.51,-169.4C635.11,-171.13 650.54,-172.96 664.73,-174.63"/>
<polygon fill="midnightblue" stroke="midnightblue" points="620.9,-165.92 610.55,-168.22 620.07,-172.87 620.9,-165.92"/>
</g>
<!-- Node21 -->
<g id="node21" class="node">
<title>Node21</title>
<g id="a_node21"><a xlink:href="classEncoder8b10b.html" target="_top" xlink:title=" ">
<polygon fill="white" stroke="black" points="514,-114.5 514,-133.5 600,-133.5 600,-114.5 514,-114.5"/>
<text text-anchor="middle" x="557" y="-121.5" font-family="Helvetica,sans-Serif" font-size="10.00">Encoder8b10b</text>
</a>
</g>
</g>
<!-- Node21&#45;&gt;Node1 -->
<g id="edge21" class="edge">
<title>Node21&#45;&gt;Node1</title>
<path fill="none" stroke="midnightblue" d="M607.52,-136.3C614.77,-138.37 622.12,-140.63 629,-143 653.26,-151.35 680.26,-163.18 698.2,-171.42"/>
<polygon fill="midnightblue" stroke="midnightblue" points="608.3,-132.88 597.73,-133.58 606.43,-139.63 608.3,-132.88"/>
</g>
<!-- Node22 -->
<g id="node22" class="node">
<title>Node22</title>
<g id="a_node22"><a xlink:href="classOutputBufferReg.html" target="_top" xlink:title=" ">
<polygon fill="white" stroke="black" points="508,-76.5 508,-95.5 606,-95.5 606,-76.5 508,-76.5"/>
<text text-anchor="middle" x="557" y="-83.5" font-family="Helvetica,sans-Serif" font-size="10.00">OutputBufferReg</text>
</a>
</g>
</g>
<!-- Node22&#45;&gt;Node1 -->
<g id="edge22" class="edge">
<title>Node22&#45;&gt;Node1</title>
<path fill="none" stroke="midnightblue" d="M614.83,-98.75C619.73,-100.58 624.52,-102.65 629,-105 662.76,-122.7 694.96,-155.09 709.86,-171.27"/>
<polygon fill="midnightblue" stroke="midnightblue" points="615.92,-95.42 605.32,-95.52 613.67,-102.05 615.92,-95.42"/>
</g>
<!-- Node23 -->
<g id="node23" class="node">
<title>Node23</title>
<g id="a_node23"><a xlink:href="classClkOutBufDiff.html" target="_top" xlink:title=" ">
<polygon fill="white" stroke="black" points="515.5,-38.5 515.5,-57.5 598.5,-57.5 598.5,-38.5 515.5,-38.5"/>
<text text-anchor="middle" x="557" y="-45.5" font-family="Helvetica,sans-Serif" font-size="10.00">ClkOutBufDiff</text>
</a>
</g>
</g>
<!-- Node23&#45;&gt;Node1 -->
<g id="edge23" class="edge">
<title>Node23&#45;&gt;Node1</title>
<path fill="none" stroke="midnightblue" d="M608.47,-57.14C615.69,-59.67 622.78,-62.89 629,-67 671.21,-94.86 702.31,-149.25 713.73,-171.33"/>
<polygon fill="midnightblue" stroke="midnightblue" points="609.19,-53.7 598.6,-54.11 607.13,-60.39 609.19,-53.7"/>
</g>
<!-- Node24 -->
<g id="node24" class="node">
<title>Node24</title>
<g id="a_node24"><a xlink:href="classClkOutBufSingle.html" target="_top" xlink:title=" ">
<polygon fill="white" stroke="black" points="509,-0.5 509,-19.5 605,-19.5 605,-0.5 509,-0.5"/>
<text text-anchor="middle" x="557" y="-7.5" font-family="Helvetica,sans-Serif" font-size="10.00">ClkOutBufSingle</text>
</a>
</g>
</g>
<!-- Node24&#45;&gt;Node1 -->
<g id="edge24" class="edge">
<title>Node24&#45;&gt;Node1</title>
<path fill="none" stroke="midnightblue" d="M614.55,-20.66C619.7,-22.92 624.62,-25.67 629,-29 679.95,-67.74 707.36,-144.53 715.71,-171.43"/>
<polygon fill="midnightblue" stroke="midnightblue" points="615.68,-17.34 605.09,-17.07 613.2,-23.89 615.68,-17.34"/>
</g>
</g>
</svg>
        <g id="navigator" transform="translate(0 0)" fill="#404254">
                <rect fill="#f2f5e9" fill-opacity="0.5" stroke="#606060" stroke-width=".5" x="0" y="0" width="60" height="60"/>
                <use id="zoomplus" xlink:href="#zoomPlus" x="17" y="9" onmousedown="handleZoom(evt,'in')"/>
                <use id="zoomminus" xlink:href="#zoomMin" x="42" y="9" onmousedown="handleZoom(evt,'out')"/>
                <use id="reset" xlink:href="#resetDef" x="30" y="36" onmousedown="handleReset()"/>
                <g id="arrowUp" xlink:href="#dirArrow" transform="translate(30 24)" onmousedown="handlePan(0,-1)">
                  <use xlink:href="#rim" fill="#404040">
                        <set attributeName="fill" to="#808080" begin="arrowUp.mouseover" end="arrowUp.mouseout"/>
                  </use>
                  <path fill="none" stroke="white" stroke-width="1.5" d="M0,-3.0v7 M-2.5,-0.5L0,-3.0L2.5,-0.5"/>
                </g>
                <g id="arrowRight" xlink:href="#dirArrow" transform="rotate(90) translate(36 -43)" onmousedown="handlePan(1,0)">
                  <use xlink:href="#rim" fill="#404040">
                        <set attributeName="fill" to="#808080" begin="arrowRight.mouseover" end="arrowRight.mouseout"/>
                  </use>
                  <path fill="none" stroke="white" stroke-width="1.5" d="M0,-3.0v7 M-2.5,-0.5L0,-3.0L2.5,-0.5"/>
                </g>
                <g id="arrowDown" xlink:href="#dirArrow" transform="rotate(180) translate(-30 -48)" onmousedown="handlePan(0,1)">
                  <use xlink:href="#rim" fill="#404040">
                        <set attributeName="fill" to="#808080" begin="arrowDown.mouseover" end="arrowDown.mouseout"/>
                  </use>
                  <path fill="none" stroke="white" stroke-width="1.5" d="M0,-3.0v7 M-2.5,-0.5L0,-3.0L2.5,-0.5"/>
                </g>
                <g id="arrowLeft" xlink:href="#dirArrow" transform="rotate(270) translate(-36 17)" onmousedown="handlePan(-1,0)">
                  <use xlink:href="#rim" fill="#404040">
                        <set attributeName="fill" to="#808080" begin="arrowLeft.mouseover" end="arrowLeft.mouseout"/>
                  </use>
                  <path fill="none" stroke="white" stroke-width="1.5" d="M0,-3.0v7 M-2.5,-0.5L0,-3.0L2.5,-0.5"/>
                </g>
        </g>
        <svg viewBox="0 0 15 15" width="100%" height="30px" preserveAspectRatio="xMaxYMin meet">
         <g id="arrow_out" transform="scale(0.3 0.3)">
          <a xlink:href="classSugoiManagerCore__inherit__graph_org.svg" target="_base">
           <rect id="button" ry="5" rx="5" y="6" x="6" height="38" width="38"
                fill="#f2f5e9" fill-opacity="0.5" stroke="#606060" stroke-width="1.0"/>
           <path id="arrow"
             d="M 11.500037,31.436501 C 11.940474,20.09759 22.043105,11.32322 32.158766,21.979434 L 37.068811,17.246167 C 37.068811,17.246167 37.088388,32 37.088388,32 L 22.160133,31.978069 C 22.160133,31.978069 26.997745,27.140456 26.997745,27.140456 C 18.528582,18.264221 13.291696,25.230495 11.500037,31.436501 z"
             style="fill:#404040;"/>
          </a>
         </g>
        </svg>
</svg>
