<?xml version="1.0" encoding="UTF-8" standalone="no"?>
<!DOCTYPE svg PUBLIC "-//W3C//DTD SVG 1.1//EN"
 "http://www.w3.org/Graphics/SVG/1.1/DTD/svg11.dtd">
<!-- Generated by graphviz version 2.43.0 (0)
 -->
<!-- Title: FifoWrFsm Pages: 1 -->
<svg width="766pt" height="1358pt"
 viewBox="0.00 0.00 766.00 1358.00" xmlns="http://www.w3.org/2000/svg" xmlns:xlink="http://www.w3.org/1999/xlink">
<g id="graph0" class="graph" transform="scale(1 1) rotate(0) translate(4 1354)">
<title>FifoWrFsm</title>
<polygon fill="white" stroke="transparent" points="-4,4 -4,-1354 762,-1354 762,4 -4,4"/>
<!-- Node1 -->
<g id="node1" class="node">
<title>Node1</title>
<g id="a_node1"><a xlink:title=" ">
<polygon fill="#bfbfbf" stroke="black" points="0,-1017.5 0,-1036.5 69,-1036.5 69,-1017.5 0,-1017.5"/>
<text text-anchor="middle" x="34.5" y="-1024.5" font-family="Helvetica,sans-Serif" font-size="10.00">FifoWrFsm</text>
</a>
</g>
</g>
<!-- Node2 -->
<g id="node2" class="node">
<title>Node2</title>
<g id="a_node2"><a xlink:href="classFifoAsync.html" target="_top" xlink:title=" ">
<polygon fill="white" stroke="black" points="105,-941.5 105,-960.5 169,-960.5 169,-941.5 105,-941.5"/>
<text text-anchor="middle" x="137" y="-948.5" font-family="Helvetica,sans-Serif" font-size="10.00">FifoAsync</text>
</a>
</g>
</g>
<!-- Node1&#45;&gt;Node2 -->
<g id="edge1" class="edge">
<title>Node1&#45;&gt;Node2</title>
<path fill="none" stroke="midnightblue" d="M56.22,-1011.33C76.43,-996.05 106.51,-973.3 123.37,-960.55"/>
<polygon fill="midnightblue" stroke="midnightblue" points="54.09,-1008.55 48.23,-1017.37 58.32,-1014.13 54.09,-1008.55"/>
</g>
<!-- Node289 -->
<g id="node47" class="node">
<title>Node289</title>
<g id="a_node47"><a xlink:href="classFifoSync.html" target="_top" xlink:title=" ">
<polygon fill="white" stroke="black" points="108,-1121.5 108,-1140.5 166,-1140.5 166,-1121.5 108,-1121.5"/>
<text text-anchor="middle" x="137" y="-1128.5" font-family="Helvetica,sans-Serif" font-size="10.00">FifoSync</text>
</a>
</g>
</g>
<!-- Node1&#45;&gt;Node289 -->
<g id="edge54" class="edge">
<title>Node1&#45;&gt;Node289</title>
<path fill="none" stroke="midnightblue" d="M51.87,-1043.94C73.19,-1066 109.71,-1103.8 126.75,-1121.43"/>
<polygon fill="midnightblue" stroke="midnightblue" points="54.24,-1041.36 44.77,-1036.6 49.21,-1046.22 54.24,-1041.36"/>
</g>
<!-- Node3 -->
<g id="node3" class="node">
<title>Node3</title>
<g id="a_node3"><a xlink:href="classAsyncGearbox.html" target="_top" xlink:title=" ">
<polygon fill="white" stroke="black" points="245.5,-779.5 245.5,-798.5 332.5,-798.5 332.5,-779.5 245.5,-779.5"/>
<text text-anchor="middle" x="289" y="-786.5" font-family="Helvetica,sans-Serif" font-size="10.00">AsyncGearbox</text>
</a>
</g>
</g>
<!-- Node2&#45;&gt;Node3 -->
<g id="edge2" class="edge">
<title>Node2&#45;&gt;Node3</title>
<path fill="none" stroke="midnightblue" d="M142.72,-931.76C150.73,-903.03 169.67,-848.99 205,-818 216.36,-808.03 231.35,-801.44 245.46,-797.1"/>
<polygon fill="midnightblue" stroke="midnightblue" points="139.34,-930.87 140.17,-941.43 146.11,-932.65 139.34,-930.87"/>
</g>
<!-- Node17 -->
<g id="node11" class="node">
<title>Node17</title>
<g id="a_node11"><a xlink:href="classAxiLiteAsync.html" target="_top" xlink:title=" ">
<polygon fill="white" stroke="black" points="249,-361.5 249,-380.5 329,-380.5 329,-361.5 249,-361.5"/>
<text text-anchor="middle" x="289" y="-368.5" font-family="Helvetica,sans-Serif" font-size="10.00">AxiLiteAsync</text>
</a>
</g>
</g>
<!-- Node2&#45;&gt;Node17 -->
<g id="edge10" class="edge">
<title>Node2&#45;&gt;Node17</title>
<path fill="none" stroke="midnightblue" d="M143.05,-931.47C166.92,-839.18 267.99,-448.37 285.43,-380.93"/>
<polygon fill="midnightblue" stroke="midnightblue" points="139.59,-930.86 140.48,-941.42 146.37,-932.61 139.59,-930.86"/>
</g>
<!-- Node119 -->
<g id="node30" class="node">
<title>Node119</title>
<g id="a_node30"><a xlink:href="classFifo.html" target="_top" xlink:title=" ">
<polygon fill="white" stroke="red" points="271.5,-1102.5 271.5,-1121.5 306.5,-1121.5 306.5,-1102.5 271.5,-1102.5"/>
<text text-anchor="middle" x="289" y="-1109.5" font-family="Helvetica,sans-Serif" font-size="10.00">Fifo</text>
</a>
</g>
</g>
<!-- Node2&#45;&gt;Node119 -->
<g id="edge31" class="edge">
<title>Node2&#45;&gt;Node119</title>
<path fill="none" stroke="midnightblue" d="M143.46,-970.52C152.13,-998.22 171.61,-1048.91 205,-1079 224.01,-1096.13 252.99,-1104.89 271.2,-1108.95"/>
<polygon fill="midnightblue" stroke="midnightblue" points="146.77,-969.39 140.56,-960.8 140.06,-971.39 146.77,-969.39"/>
</g>
<!-- Node221 -->
<g id="node40" class="node">
<title>Node221</title>
<g id="a_node40"><a xlink:href="classGearboxTb.html" target="_top" xlink:title=" ">
<polygon fill="white" stroke="black" points="254,-979.5 254,-998.5 324,-998.5 324,-979.5 254,-979.5"/>
<text text-anchor="middle" x="289" y="-986.5" font-family="Helvetica,sans-Serif" font-size="10.00">GearboxTb</text>
</a>
</g>
</g>
<!-- Node2&#45;&gt;Node221 -->
<g id="edge43" class="edge">
<title>Node2&#45;&gt;Node221</title>
<path fill="none" stroke="midnightblue" d="M179.06,-963C187.61,-965.4 196.58,-967.84 205,-970 221.04,-974.11 238.93,-978.26 253.98,-981.63"/>
<polygon fill="midnightblue" stroke="midnightblue" points="179.84,-959.59 169.27,-960.23 177.93,-966.32 179.84,-959.59"/>
</g>
<!-- Node222 -->
<g id="node41" class="node">
<title>Node222</title>
<g id="a_node41"><a xlink:href="classPgp3Gtp7RxGearbox.html" target="_top" xlink:title=" ">
<polygon fill="white" stroke="red" points="230,-941.5 230,-960.5 348,-960.5 348,-941.5 230,-941.5"/>
<text text-anchor="middle" x="289" y="-948.5" font-family="Helvetica,sans-Serif" font-size="10.00">Pgp3Gtp7RxGearbox</text>
</a>
</g>
</g>
<!-- Node2&#45;&gt;Node222 -->
<g id="edge44" class="edge">
<title>Node2&#45;&gt;Node222</title>
<path fill="none" stroke="midnightblue" d="M179.46,-951C195.07,-951 213.13,-951 229.98,-951"/>
<polygon fill="midnightblue" stroke="midnightblue" points="179.08,-947.5 169.08,-951 179.08,-954.5 179.08,-947.5"/>
</g>
<!-- Node223 -->
<g id="node42" class="node">
<title>Node223</title>
<g id="a_node42"><a xlink:href="classPgp3Gtp7TxGearbox.html" target="_top" xlink:title=" ">
<polygon fill="white" stroke="red" points="230.5,-903.5 230.5,-922.5 347.5,-922.5 347.5,-903.5 230.5,-903.5"/>
<text text-anchor="middle" x="289" y="-910.5" font-family="Helvetica,sans-Serif" font-size="10.00">Pgp3Gtp7TxGearbox</text>
</a>
</g>
</g>
<!-- Node2&#45;&gt;Node223 -->
<g id="edge45" class="edge">
<title>Node2&#45;&gt;Node223</title>
<path fill="none" stroke="midnightblue" d="M179.06,-939C187.61,-936.6 196.58,-934.16 205,-932 217.75,-928.74 231.66,-925.45 244.39,-922.54"/>
<polygon fill="midnightblue" stroke="midnightblue" points="177.93,-935.68 169.27,-941.77 179.84,-942.41 177.93,-935.68"/>
</g>
<!-- Node224 -->
<g id="node43" class="node">
<title>Node224</title>
<g id="a_node43"><a xlink:href="classPgp3RxEb.html" target="_top" xlink:title=" ">
<polygon fill="white" stroke="red" points="450,-950.5 450,-969.5 515,-969.5 515,-950.5 450,-950.5"/>
<text text-anchor="middle" x="482.5" y="-957.5" font-family="Helvetica,sans-Serif" font-size="10.00">Pgp3RxEb</text>
</a>
</g>
</g>
<!-- Node2&#45;&gt;Node224 -->
<g id="edge46" class="edge">
<title>Node2&#45;&gt;Node224</title>
<path fill="none" stroke="midnightblue" d="M145.73,-969.92C155.76,-991.65 175.55,-1026.21 205,-1041 271.72,-1074.51 307.61,-1077.04 373,-1041 399.24,-1026.54 385.4,-1002.46 409,-984 420.8,-974.77 436.31,-969.01 449.96,-965.46"/>
<polygon fill="midnightblue" stroke="midnightblue" points="148.9,-968.45 141.69,-960.69 142.49,-971.26 148.9,-968.45"/>
</g>
<!-- Node227 -->
<g id="node44" class="node">
<title>Node227</title>
<g id="a_node44"><a xlink:href="classPgp4RxEb.html" target="_top" xlink:title=" ">
<polygon fill="white" stroke="red" points="450,-912.5 450,-931.5 515,-931.5 515,-912.5 450,-912.5"/>
<text text-anchor="middle" x="482.5" y="-919.5" font-family="Helvetica,sans-Serif" font-size="10.00">Pgp4RxEb</text>
</a>
</g>
</g>
<!-- Node2&#45;&gt;Node227 -->
<g id="edge47" class="edge">
<title>Node2&#45;&gt;Node227</title>
<path fill="none" stroke="midnightblue" d="M152.12,-968.42C164.43,-982.11 183.63,-1000.14 205,-1008 275.08,-1033.78 308.91,-1046.32 373,-1008 402.01,-990.65 382.44,-961.91 409,-941 420.55,-931.9 436.03,-927.14 449.72,-924.65"/>
<polygon fill="midnightblue" stroke="midnightblue" points="154.56,-965.88 145.39,-960.58 149.25,-970.44 154.56,-965.88"/>
</g>
<!-- Node232 -->
<g id="node45" class="node">
<title>Node232</title>
<g id="a_node45"><a xlink:href="classSynchronizerFifo.html" target="_top" xlink:title=" ">
<polygon fill="white" stroke="red" points="240,-865.5 240,-884.5 338,-884.5 338,-865.5 240,-865.5"/>
<text text-anchor="middle" x="289" y="-872.5" font-family="Helvetica,sans-Serif" font-size="10.00">SynchronizerFifo</text>
</a>
</g>
</g>
<!-- Node2&#45;&gt;Node232 -->
<g id="edge48" class="edge">
<title>Node2&#45;&gt;Node232</title>
<path fill="none" stroke="midnightblue" d="M153.51,-933.94C166.15,-921.07 185.1,-903.98 205,-894 215.7,-888.63 227.94,-884.76 239.67,-881.97"/>
<polygon fill="midnightblue" stroke="midnightblue" points="150.86,-931.65 146.5,-941.31 155.93,-936.48 150.86,-931.65"/>
</g>
<!-- Node282 -->
<g id="node46" class="node">
<title>Node282</title>
<g id="a_node46"><a xlink:href="classSynchronizerOneShotCntVector.html" target="_top" xlink:title=" ">
<polygon fill="white" stroke="red" points="205,-827.5 205,-846.5 373,-846.5 373,-827.5 205,-827.5"/>
<text text-anchor="middle" x="289" y="-834.5" font-family="Helvetica,sans-Serif" font-size="10.00">SynchronizerOneShotCntVector</text>
</a>
</g>
</g>
<!-- Node2&#45;&gt;Node282 -->
<g id="edge53" class="edge">
<title>Node2&#45;&gt;Node282</title>
<path fill="none" stroke="midnightblue" d="M146.1,-932.2C156.5,-910.4 176.64,-875.02 205,-856 210.77,-852.13 217.22,-849.04 223.9,-846.58"/>
<polygon fill="midnightblue" stroke="midnightblue" points="142.86,-930.87 141.9,-941.42 149.23,-933.77 142.86,-930.87"/>
</g>
<!-- Node4 -->
<g id="node4" class="node">
<title>Node4</title>
<g id="a_node4"><a xlink:href="classClinkDataShift.html" target="_top" xlink:title=" ">
<polygon fill="white" stroke="red" points="439.5,-874.5 439.5,-893.5 525.5,-893.5 525.5,-874.5 439.5,-874.5"/>
<text text-anchor="middle" x="482.5" y="-881.5" font-family="Helvetica,sans-Serif" font-size="10.00">ClinkDataShift</text>
</a>
</g>
</g>
<!-- Node3&#45;&gt;Node4 -->
<g id="edge3" class="edge">
<title>Node3&#45;&gt;Node4</title>
<path fill="none" stroke="midnightblue" d="M341.89,-801.92C352.76,-806.01 363.72,-811.28 373,-818 394.31,-833.43 387.09,-850.43 409,-865 417.99,-870.98 428.78,-875.08 439.24,-877.89"/>
<polygon fill="midnightblue" stroke="midnightblue" points="343,-798.6 332.4,-798.62 340.69,-805.21 343,-798.6"/>
</g>
<!-- Node7 -->
<g id="node7" class="node">
<title>Node7</title>
<g id="a_node7"><a xlink:href="classCoaXPressOverFiberBridge.html" target="_top" xlink:title=" ">
<polygon fill="white" stroke="red" points="409,-684.5 409,-703.5 556,-703.5 556,-684.5 409,-684.5"/>
<text text-anchor="middle" x="482.5" y="-691.5" font-family="Helvetica,sans-Serif" font-size="10.00">CoaXPressOverFiberBridge</text>
</a>
</g>
</g>
<!-- Node3&#45;&gt;Node7 -->
<g id="edge6" class="edge">
<title>Node3&#45;&gt;Node7</title>
<path fill="none" stroke="midnightblue" d="M310.34,-773.19C333.18,-756.12 371.92,-729.22 409,-713 417.58,-709.25 427.07,-706.1 436.28,-703.52"/>
<polygon fill="midnightblue" stroke="midnightblue" points="307.98,-770.59 302.12,-779.42 312.21,-776.16 307.98,-770.59"/>
</g>
<!-- Node12 -->
<g id="node8" class="node">
<title>Node12</title>
<g id="a_node8"><a xlink:href="classSaltRxLvds.html" target="_top" xlink:title=" ">
<polygon fill="white" stroke="red" points="447,-836.5 447,-855.5 518,-855.5 518,-836.5 447,-836.5"/>
<text text-anchor="middle" x="482.5" y="-843.5" font-family="Helvetica,sans-Serif" font-size="10.00">SaltRxLvds</text>
</a>
</g>
</g>
<!-- Node3&#45;&gt;Node12 -->
<g id="edge7" class="edge">
<title>Node3&#45;&gt;Node12</title>
<path fill="none" stroke="midnightblue" d="M328.23,-801.77C351.49,-809.4 381.85,-819.11 409,-827 421.25,-830.56 434.74,-834.18 446.73,-837.29"/>
<polygon fill="midnightblue" stroke="midnightblue" points="329.32,-798.45 318.73,-798.64 327.13,-805.1 329.32,-798.45"/>
</g>
<!-- Node15 -->
<g id="node9" class="node">
<title>Node15</title>
<g id="a_node9"><a xlink:href="classSaltTxLvds.html" target="_top" xlink:title=" ">
<polygon fill="white" stroke="red" points="447.5,-646.5 447.5,-665.5 517.5,-665.5 517.5,-646.5 447.5,-646.5"/>
<text text-anchor="middle" x="482.5" y="-653.5" font-family="Helvetica,sans-Serif" font-size="10.00">SaltTxLvds</text>
</a>
</g>
</g>
<!-- Node3&#45;&gt;Node15 -->
<g id="edge8" class="edge">
<title>Node3&#45;&gt;Node15</title>
<path fill="none" stroke="midnightblue" d="M303.42,-771.39C323.57,-746.19 364.11,-700.12 409,-675 420.7,-668.46 434.72,-664.1 447.3,-661.24"/>
<polygon fill="midnightblue" stroke="midnightblue" points="300.58,-769.33 297.17,-779.36 306.09,-773.65 300.58,-769.33"/>
</g>
<!-- Node16 -->
<g id="node10" class="node">
<title>Node16</title>
<g id="a_node10"><a xlink:href="classSelectioDeserUltraScaleTb.html" target="_top" xlink:title=" ">
<polygon fill="white" stroke="red" points="409.5,-760.5 409.5,-779.5 555.5,-779.5 555.5,-760.5 409.5,-760.5"/>
<text text-anchor="middle" x="482.5" y="-767.5" font-family="Helvetica,sans-Serif" font-size="10.00">SelectioDeserUltraScaleTb</text>
</a>
</g>
</g>
<!-- Node3&#45;&gt;Node16 -->
<g id="edge9" class="edge">
<title>Node3&#45;&gt;Node16</title>
<path fill="none" stroke="midnightblue" d="M342.63,-783.78C363.24,-781.73 387.22,-779.35 409.4,-777.15"/>
<polygon fill="midnightblue" stroke="midnightblue" points="342.11,-780.31 332.5,-784.78 342.8,-787.28 342.11,-780.31"/>
</g>
<!-- Node5 -->
<g id="node5" class="node">
<title>Node5</title>
<g id="a_node5"><a xlink:href="classClinkData.html" target="_top" xlink:title=" ">
<polygon fill="white" stroke="black" points="595.5,-874.5 595.5,-893.5 660.5,-893.5 660.5,-874.5 595.5,-874.5"/>
<text text-anchor="middle" x="628" y="-881.5" font-family="Helvetica,sans-Serif" font-size="10.00">ClinkData</text>
</a>
</g>
</g>
<!-- Node4&#45;&gt;Node5 -->
<g id="edge4" class="edge">
<title>Node4&#45;&gt;Node5</title>
<path fill="none" stroke="midnightblue" d="M535.99,-884C555.95,-884 578.07,-884 595.5,-884"/>
<polygon fill="midnightblue" stroke="midnightblue" points="535.78,-880.5 525.78,-884 535.78,-887.5 535.78,-880.5"/>
</g>
<!-- Node6 -->
<g id="node6" class="node">
<title>Node6</title>
<g id="a_node6"><a xlink:href="classClinkTop.html" target="_top" xlink:title=" ">
<polygon fill="white" stroke="red" points="700,-741.5 700,-760.5 758,-760.5 758,-741.5 700,-741.5"/>
<text text-anchor="middle" x="729" y="-748.5" font-family="Helvetica,sans-Serif" font-size="10.00">ClinkTop</text>
</a>
</g>
</g>
<!-- Node5&#45;&gt;Node6 -->
<g id="edge5" class="edge">
<title>Node5&#45;&gt;Node6</title>
<path fill="none" stroke="midnightblue" d="M642.24,-866.21C663.39,-837.8 704.08,-783.14 720.68,-760.84"/>
<polygon fill="midnightblue" stroke="midnightblue" points="639.28,-864.32 636.12,-874.43 644.9,-868.5 639.28,-864.32"/>
</g>
<!-- Node17&#45;&gt;Node6 -->
<g id="edge17" class="edge">
<title>Node17&#45;&gt;Node6</title>
<path fill="none" stroke="midnightblue" d="M294.39,-390.34C305.46,-434.49 338.74,-543.18 409,-599 461.84,-640.98 494.36,-609.54 556,-637 621.45,-666.16 689.61,-719.34 716.3,-741.21"/>
<polygon fill="midnightblue" stroke="midnightblue" points="297.79,-389.48 292.05,-380.58 290.98,-391.12 297.79,-389.48"/>
</g>
<!-- Node18 -->
<g id="node12" class="node">
<title>Node18</title>
<g id="a_node12"><a xlink:href="classAxiLiteAsyncTb.html" target="_top" xlink:title=" ">
<polygon fill="white" stroke="red" points="436.5,-494.5 436.5,-513.5 528.5,-513.5 528.5,-494.5 436.5,-494.5"/>
<text text-anchor="middle" x="482.5" y="-501.5" font-family="Helvetica,sans-Serif" font-size="10.00">AxiLiteAsyncTb</text>
</a>
</g>
</g>
<!-- Node17&#45;&gt;Node18 -->
<g id="edge11" class="edge">
<title>Node17&#45;&gt;Node18</title>
<path fill="none" stroke="midnightblue" d="M304.7,-388.47C325.61,-412.29 366.17,-454.87 409,-480 419.29,-486.04 431.31,-490.8 442.56,-494.43"/>
<polygon fill="midnightblue" stroke="midnightblue" points="307.1,-385.89 297.92,-380.61 301.8,-390.47 307.1,-385.89"/>
</g>
<!-- Node19 -->
<g id="node13" class="node">
<title>Node19</title>
<g id="a_node13"><a xlink:href="classAxiLiteToDrp.html" target="_top" xlink:title=" ">
<polygon fill="white" stroke="red" points="443.5,-418.5 443.5,-437.5 521.5,-437.5 521.5,-418.5 443.5,-418.5"/>
<text text-anchor="middle" x="482.5" y="-425.5" font-family="Helvetica,sans-Serif" font-size="10.00">AxiLiteToDrp</text>
</a>
</g>
</g>
<!-- Node17&#45;&gt;Node19 -->
<g id="edge12" class="edge">
<title>Node17&#45;&gt;Node19</title>
<path fill="none" stroke="midnightblue" d="M328.23,-383.77C351.49,-391.4 381.85,-401.11 409,-409 420.12,-412.23 432.27,-415.51 443.39,-418.42"/>
<polygon fill="midnightblue" stroke="midnightblue" points="329.32,-380.45 318.73,-380.64 327.13,-387.1 329.32,-380.45"/>
</g>
<!-- Node28 -->
<g id="node14" class="node">
<title>Node28</title>
<g id="a_node14"><a xlink:href="classGigEthGtx7.html" target="_top" xlink:title=" ">
<polygon fill="white" stroke="red" points="592,-437.5 592,-456.5 664,-456.5 664,-437.5 592,-437.5"/>
<text text-anchor="middle" x="628" y="-444.5" font-family="Helvetica,sans-Serif" font-size="10.00">GigEthGtx7</text>
</a>
</g>
</g>
<!-- Node17&#45;&gt;Node28 -->
<g id="edge21" class="edge">
<title>Node17&#45;&gt;Node28</title>
<path fill="none" stroke="midnightblue" d="M308.26,-387.47C330.29,-406.12 369.32,-435.41 409,-447 471.3,-465.2 547.97,-459.01 591.79,-452.95"/>
<polygon fill="midnightblue" stroke="midnightblue" points="310.27,-384.58 300.43,-380.67 305.69,-389.87 310.27,-384.58"/>
</g>
<!-- Node98 -->
<g id="node15" class="node">
<title>Node98</title>
<g id="a_node15"><a xlink:href="classAxiRateGen.html" target="_top" xlink:title=" ">
<polygon fill="white" stroke="black" points="445.5,-380.5 445.5,-399.5 519.5,-399.5 519.5,-380.5 445.5,-380.5"/>
<text text-anchor="middle" x="482.5" y="-387.5" font-family="Helvetica,sans-Serif" font-size="10.00">AxiRateGen</text>
</a>
</g>
</g>
<!-- Node17&#45;&gt;Node98 -->
<g id="edge14" class="edge">
<title>Node17&#45;&gt;Node98</title>
<path fill="none" stroke="midnightblue" d="M339.58,-375.92C372.64,-379.2 415.36,-383.44 445.25,-386.4"/>
<polygon fill="midnightblue" stroke="midnightblue" points="339.51,-372.4 329.21,-374.89 338.82,-379.36 339.51,-372.4"/>
</g>
<!-- Node99 -->
<g id="node16" class="node">
<title>Node99</title>
<g id="a_node16"><a xlink:href="classAxiStreamBatcherAxil.html" target="_top" xlink:title=" ">
<polygon fill="white" stroke="black" points="420.5,-342.5 420.5,-361.5 544.5,-361.5 544.5,-342.5 420.5,-342.5"/>
<text text-anchor="middle" x="482.5" y="-349.5" font-family="Helvetica,sans-Serif" font-size="10.00">AxiStreamBatcherAxil</text>
</a>
</g>
</g>
<!-- Node17&#45;&gt;Node99 -->
<g id="edge15" class="edge">
<title>Node17&#45;&gt;Node99</title>
<path fill="none" stroke="midnightblue" d="M339.45,-366.09C364.17,-363.64 394.32,-360.65 420.46,-358.06"/>
<polygon fill="midnightblue" stroke="midnightblue" points="338.82,-362.64 329.21,-367.11 339.51,-369.6 338.82,-362.64"/>
</g>
<!-- Node100 -->
<g id="node17" class="node">
<title>Node100</title>
<g id="a_node17"><a xlink:href="classAxiStreamDmaV2Fifo.html" target="_top" xlink:title=" ">
<polygon fill="white" stroke="black" points="421.5,-798.5 421.5,-817.5 543.5,-817.5 543.5,-798.5 421.5,-798.5"/>
<text text-anchor="middle" x="482.5" y="-805.5" font-family="Helvetica,sans-Serif" font-size="10.00">AxiStreamDmaV2Fifo</text>
</a>
</g>
</g>
<!-- Node17&#45;&gt;Node100 -->
<g id="edge16" class="edge">
<title>Node17&#45;&gt;Node100</title>
<path fill="none" stroke="midnightblue" d="M289.26,-390.92C287.93,-457.64 293.04,-675.46 409,-789 412.9,-792.82 417.48,-795.9 422.4,-798.38"/>
<polygon fill="midnightblue" stroke="midnightblue" points="292.77,-390.68 289.55,-380.59 285.77,-390.49 292.77,-390.68"/>
</g>
<!-- Node101 -->
<g id="node18" class="node">
<title>Node101</title>
<g id="a_node18"><a xlink:href="classGigEthGth7.html" target="_top" xlink:title=" ">
<polygon fill="white" stroke="red" points="446.5,-304.5 446.5,-323.5 518.5,-323.5 518.5,-304.5 446.5,-304.5"/>
<text text-anchor="middle" x="482.5" y="-311.5" font-family="Helvetica,sans-Serif" font-size="10.00">GigEthGth7</text>
</a>
</g>
</g>
<!-- Node17&#45;&gt;Node101 -->
<g id="edge18" class="edge">
<title>Node17&#45;&gt;Node101</title>
<path fill="none" stroke="midnightblue" d="M328.23,-358.23C351.49,-350.6 381.85,-340.89 409,-333 421.12,-329.48 434.46,-325.9 446.37,-322.81"/>
<polygon fill="midnightblue" stroke="midnightblue" points="327.13,-354.9 318.73,-361.36 329.32,-361.55 327.13,-354.9"/>
</g>
<!-- Node103 -->
<g id="node19" class="node">
<title>Node103</title>
<g id="a_node19"><a xlink:href="classGigEthGthUltraScale.html" target="_top" xlink:title=" ">
<polygon fill="white" stroke="red" points="424.5,-266.5 424.5,-285.5 540.5,-285.5 540.5,-266.5 424.5,-266.5"/>
<text text-anchor="middle" x="482.5" y="-273.5" font-family="Helvetica,sans-Serif" font-size="10.00">GigEthGthUltraScale</text>
</a>
</g>
</g>
<!-- Node17&#45;&gt;Node103 -->
<g id="edge19" class="edge">
<title>Node17&#45;&gt;Node103</title>
<path fill="none" stroke="midnightblue" d="M310.34,-355.19C333.18,-338.12 371.92,-311.22 409,-295 417.58,-291.25 427.07,-288.1 436.28,-285.52"/>
<polygon fill="midnightblue" stroke="midnightblue" points="307.98,-352.59 302.12,-361.42 312.21,-358.16 307.98,-352.59"/>
</g>
<!-- Node104 -->
<g id="node20" class="node">
<title>Node104</title>
<g id="a_node20"><a xlink:href="classGigEthGtp7.html" target="_top" xlink:title=" ">
<polygon fill="white" stroke="red" points="446.5,-228.5 446.5,-247.5 518.5,-247.5 518.5,-228.5 446.5,-228.5"/>
<text text-anchor="middle" x="482.5" y="-235.5" font-family="Helvetica,sans-Serif" font-size="10.00">GigEthGtp7</text>
</a>
</g>
</g>
<!-- Node17&#45;&gt;Node104 -->
<g id="edge20" class="edge">
<title>Node17&#45;&gt;Node104</title>
<path fill="none" stroke="midnightblue" d="M303.42,-353.39C323.57,-328.19 364.11,-282.12 409,-257 420.36,-250.65 433.9,-246.36 446.2,-243.49"/>
<polygon fill="midnightblue" stroke="midnightblue" points="300.58,-351.33 297.17,-361.36 306.09,-355.65 300.58,-351.33"/>
</g>
<!-- Node105 -->
<g id="node21" class="node">
<title>Node105</title>
<g id="a_node21"><a xlink:href="classGigEthGtyUltraScale.html" target="_top" xlink:title=" ">
<polygon fill="white" stroke="red" points="424.5,-190.5 424.5,-209.5 540.5,-209.5 540.5,-190.5 424.5,-190.5"/>
<text text-anchor="middle" x="482.5" y="-197.5" font-family="Helvetica,sans-Serif" font-size="10.00">GigEthGtyUltraScale</text>
</a>
</g>
</g>
<!-- Node17&#45;&gt;Node105 -->
<g id="edge22" class="edge">
<title>Node17&#45;&gt;Node105</title>
<path fill="none" stroke="midnightblue" d="M299.42,-352.15C316.6,-319.77 356.18,-253.71 409,-219 414.87,-215.14 421.49,-212.06 428.28,-209.61"/>
<polygon fill="midnightblue" stroke="midnightblue" points="296.12,-350.91 294.64,-361.4 302.34,-354.12 296.12,-350.91"/>
</g>
<!-- Node106 -->
<g id="node22" class="node">
<title>Node106</title>
<g id="a_node22"><a xlink:href="classGigEthLvdsUltraScale.html" target="_top" xlink:title=" ">
<polygon fill="white" stroke="red" points="421.5,-152.5 421.5,-171.5 543.5,-171.5 543.5,-152.5 421.5,-152.5"/>
<text text-anchor="middle" x="482.5" y="-159.5" font-family="Helvetica,sans-Serif" font-size="10.00">GigEthLvdsUltraScale</text>
</a>
</g>
</g>
<!-- Node17&#45;&gt;Node106 -->
<g id="edge23" class="edge">
<title>Node17&#45;&gt;Node106</title>
<path fill="none" stroke="midnightblue" d="M296.5,-351.8C310.58,-313.2 347.65,-226.09 409,-181 414.24,-177.15 420.2,-174.07 426.4,-171.62"/>
<polygon fill="midnightblue" stroke="midnightblue" points="293.17,-350.72 293.14,-361.32 299.77,-353.05 293.17,-350.72"/>
</g>
<!-- Node108 -->
<g id="node23" class="node">
<title>Node108</title>
<g id="a_node23"><a xlink:href="classSsiSem.html" target="_top" xlink:title=" ">
<polygon fill="white" stroke="red" points="456,-722.5 456,-741.5 509,-741.5 509,-722.5 456,-722.5"/>
<text text-anchor="middle" x="482.5" y="-729.5" font-family="Helvetica,sans-Serif" font-size="10.00">SsiSem</text>
</a>
</g>
</g>
<!-- Node17&#45;&gt;Node108 -->
<g id="edge24" class="edge">
<title>Node17&#45;&gt;Node108</title>
<path fill="none" stroke="midnightblue" d="M290.71,-390.69C293.92,-449.11 311.62,-622.98 409,-713 421.61,-724.66 440.49,-729.35 455.83,-731.15"/>
<polygon fill="midnightblue" stroke="midnightblue" points="294.2,-390.43 290.24,-380.61 287.21,-390.76 294.2,-390.43"/>
</g>
<!-- Node109 -->
<g id="node24" class="node">
<title>Node109</title>
<g id="a_node24"><a xlink:href="classSspLowSpeedDecoderReg.html" target="_top" xlink:title=" ">
<polygon fill="white" stroke="red" points="411,-114.5 411,-133.5 554,-133.5 554,-114.5 411,-114.5"/>
<text text-anchor="middle" x="482.5" y="-121.5" font-family="Helvetica,sans-Serif" font-size="10.00">SspLowSpeedDecoderReg</text>
</a>
</g>
</g>
<!-- Node17&#45;&gt;Node109 -->
<g id="edge25" class="edge">
<title>Node17&#45;&gt;Node109</title>
<path fill="none" stroke="midnightblue" d="M294.41,-351.68C305.5,-307.56 338.83,-198.94 409,-143 413.88,-139.11 419.48,-136.01 425.36,-133.54"/>
<polygon fill="midnightblue" stroke="midnightblue" points="291,-350.89 292.06,-361.43 297.8,-352.53 291,-350.89"/>
</g>
<!-- Node113 -->
<g id="node25" class="node">
<title>Node113</title>
<g id="a_node25"><a xlink:href="classSugoiManagerCore.html" target="_top" xlink:title=" ">
<polygon fill="white" stroke="red" points="428,-76.5 428,-95.5 537,-95.5 537,-76.5 428,-76.5"/>
<text text-anchor="middle" x="482.5" y="-83.5" font-family="Helvetica,sans-Serif" font-size="10.00">SugoiManagerCore</text>
</a>
</g>
</g>
<!-- Node17&#45;&gt;Node113 -->
<g id="edge26" class="edge">
<title>Node17&#45;&gt;Node113</title>
<path fill="none" stroke="midnightblue" d="M292.86,-351.54C301.16,-302.33 329.88,-172.08 409,-105 414.46,-100.37 420.92,-96.86 427.7,-94.19"/>
<polygon fill="midnightblue" stroke="midnightblue" points="289.4,-351.07 291.28,-361.5 296.31,-352.17 289.4,-351.07"/>
</g>
<!-- Node115 -->
<g id="node26" class="node">
<title>Node115</title>
<g id="a_node26"><a xlink:href="classTenGigEthGth7.html" target="_top" xlink:title=" ">
<polygon fill="white" stroke="red" points="438,-38.5 438,-57.5 527,-57.5 527,-38.5 438,-38.5"/>
<text text-anchor="middle" x="482.5" y="-45.5" font-family="Helvetica,sans-Serif" font-size="10.00">TenGigEthGth7</text>
</a>
</g>
</g>
<!-- Node17&#45;&gt;Node115 -->
<g id="edge27" class="edge">
<title>Node17&#45;&gt;Node115</title>
<path fill="none" stroke="midnightblue" d="M291.68,-351.36C297.37,-297.35 320.84,-145.42 409,-67 417.07,-59.82 427.53,-55.3 437.98,-52.47"/>
<polygon fill="midnightblue" stroke="midnightblue" points="288.19,-351.05 290.71,-361.34 295.16,-351.72 288.19,-351.05"/>
</g>
<!-- Node116 -->
<g id="node27" class="node">
<title>Node116</title>
<g id="a_node27"><a xlink:href="classTenGigEthGthUltraScale.html" target="_top" xlink:title=" ">
<polygon fill="white" stroke="red" points="416,-0.5 416,-19.5 549,-19.5 549,-0.5 416,-0.5"/>
<text text-anchor="middle" x="482.5" y="-7.5" font-family="Helvetica,sans-Serif" font-size="10.00">TenGigEthGthUltraScale</text>
</a>
</g>
</g>
<!-- Node17&#45;&gt;Node116 -->
<g id="edge28" class="edge">
<title>Node17&#45;&gt;Node116</title>
<path fill="none" stroke="midnightblue" d="M290.71,-351.31C293.92,-292.89 311.62,-119.02 409,-29 413.2,-25.11 418.1,-22 423.34,-19.51"/>
<polygon fill="midnightblue" stroke="midnightblue" points="287.21,-351.24 290.24,-361.39 294.2,-351.57 287.21,-351.24"/>
</g>
<!-- Node117 -->
<g id="node28" class="node">
<title>Node117</title>
<g id="a_node28"><a xlink:href="classTenGigEthGtx7.html" target="_top" xlink:title=" ">
<polygon fill="white" stroke="red" points="438,-570.5 438,-589.5 527,-589.5 527,-570.5 438,-570.5"/>
<text text-anchor="middle" x="482.5" y="-577.5" font-family="Helvetica,sans-Serif" font-size="10.00">TenGigEthGtx7</text>
</a>
</g>
</g>
<!-- Node17&#45;&gt;Node117 -->
<g id="edge29" class="edge">
<title>Node17&#45;&gt;Node117</title>
<path fill="none" stroke="midnightblue" d="M296.5,-390.2C310.58,-428.8 347.65,-515.91 409,-561 417.39,-567.16 427.61,-571.33 437.71,-574.15"/>
<polygon fill="midnightblue" stroke="midnightblue" points="299.77,-388.95 293.14,-380.68 293.17,-391.28 299.77,-388.95"/>
</g>
<!-- Node118 -->
<g id="node29" class="node">
<title>Node118</title>
<g id="a_node29"><a xlink:href="classTenGigEthGtyUltraScale.html" target="_top" xlink:title=" ">
<polygon fill="white" stroke="red" points="416,-532.5 416,-551.5 549,-551.5 549,-532.5 416,-532.5"/>
<text text-anchor="middle" x="482.5" y="-539.5" font-family="Helvetica,sans-Serif" font-size="10.00">TenGigEthGtyUltraScale</text>
</a>
</g>
</g>
<!-- Node17&#45;&gt;Node118 -->
<g id="edge30" class="edge">
<title>Node17&#45;&gt;Node118</title>
<path fill="none" stroke="midnightblue" d="M299.42,-389.85C316.6,-422.23 356.18,-488.29 409,-523 414.87,-526.86 421.49,-529.94 428.28,-532.39"/>
<polygon fill="midnightblue" stroke="midnightblue" points="302.34,-387.88 294.64,-380.6 296.12,-391.09 302.34,-387.88"/>
</g>
<!-- Node19&#45;&gt;Node28 -->
<g id="edge13" class="edge">
<title>Node19&#45;&gt;Node28</title>
<path fill="none" stroke="midnightblue" d="M531.58,-434.37C551.25,-436.97 573.59,-439.93 591.7,-442.33"/>
<polygon fill="midnightblue" stroke="midnightblue" points="531.95,-430.88 521.58,-433.04 531.03,-437.82 531.95,-430.88"/>
</g>
<!-- Node119&#45;&gt;Node5 -->
<g id="edge35" class="edge">
<title>Node119&#45;&gt;Node5</title>
<path fill="none" stroke="midnightblue" d="M316.27,-1102.3C333.68,-1094.99 356.3,-1083.7 373,-1069 394.1,-1050.43 385.95,-1033.08 409,-1017 464.35,-978.39 499.96,-1016.6 556,-979 589.51,-956.51 613.33,-912.77 622.65,-893.5"/>
<polygon fill="midnightblue" stroke="midnightblue" points="314.69,-1099.17 306.71,-1106.14 317.3,-1105.66 314.69,-1099.17"/>
</g>
<!-- Node119&#45;&gt;Node100 -->
<g id="edge33" class="edge">
<title>Node119&#45;&gt;Node100</title>
<path fill="none" stroke="midnightblue" d="M307.53,-1095.41C326.7,-1076.23 356.83,-1042.8 373,-1008 407.56,-933.62 352.77,-886.71 409,-827 412.57,-823.21 416.79,-820.14 421.38,-817.66"/>
<polygon fill="midnightblue" stroke="midnightblue" points="304.99,-1093 300.3,-1102.49 309.89,-1098 304.99,-1093"/>
</g>
<!-- Node120 -->
<g id="node31" class="node">
<title>Node120</title>
<g id="a_node31"><a xlink:href="classAxiStreamDmaV2Desc.html" target="_top" xlink:title=" ">
<polygon fill="white" stroke="red" points="418.5,-1254.5 418.5,-1273.5 546.5,-1273.5 546.5,-1254.5 418.5,-1254.5"/>
<text text-anchor="middle" x="482.5" y="-1261.5" font-family="Helvetica,sans-Serif" font-size="10.00">AxiStreamDmaV2Desc</text>
</a>
</g>
</g>
<!-- Node119&#45;&gt;Node120 -->
<g id="edge32" class="edge">
<title>Node119&#45;&gt;Node120</title>
<path fill="none" stroke="midnightblue" d="M316.72,-1111.55C334.74,-1112.67 357.9,-1117.07 373,-1131 412.06,-1167.02 370.51,-1208.37 409,-1245 413.05,-1248.86 417.79,-1251.95 422.87,-1254.44"/>
<polygon fill="midnightblue" stroke="midnightblue" points="316.65,-1108.05 306.54,-1111.22 316.42,-1115.04 316.65,-1108.05"/>
</g>
<!-- Node122 -->
<g id="node32" class="node">
<title>Node122</title>
<g id="a_node32"><a xlink:href="classAxiStreamScatterGather.html" target="_top" xlink:title=" ">
<polygon fill="white" stroke="black" points="415,-1216.5 415,-1235.5 550,-1235.5 550,-1216.5 415,-1216.5"/>
<text text-anchor="middle" x="482.5" y="-1223.5" font-family="Helvetica,sans-Serif" font-size="10.00">AxiStreamScatterGather</text>
</a>
</g>
</g>
<!-- Node119&#45;&gt;Node122 -->
<g id="edge34" class="edge">
<title>Node119&#45;&gt;Node122</title>
<path fill="none" stroke="midnightblue" d="M317.03,-1112.29C334.67,-1113.79 357.25,-1118.35 373,-1131 402.14,-1154.41 380.23,-1183.14 409,-1207 413.71,-1210.9 419.13,-1214.01 424.85,-1216.49"/>
<polygon fill="midnightblue" stroke="midnightblue" points="316.98,-1108.78 306.8,-1111.71 316.58,-1115.77 316.98,-1108.78"/>
</g>
<!-- Node123 -->
<g id="node33" class="node">
<title>Node123</title>
<g id="a_node33"><a xlink:href="classEthMacRxImportXgmii.html" target="_top" xlink:title=" ">
<polygon fill="white" stroke="red" points="419.5,-1178.5 419.5,-1197.5 545.5,-1197.5 545.5,-1178.5 419.5,-1178.5"/>
<text text-anchor="middle" x="482.5" y="-1185.5" font-family="Helvetica,sans-Serif" font-size="10.00">EthMacRxImportXgmii</text>
</a>
</g>
</g>
<!-- Node119&#45;&gt;Node123 -->
<g id="edge36" class="edge">
<title>Node119&#45;&gt;Node123</title>
<path fill="none" stroke="midnightblue" d="M316.97,-1114.16C333.96,-1116.45 355.83,-1121.2 373,-1131 393.2,-1142.53 388.98,-1157.15 409,-1169 415.49,-1172.84 422.77,-1175.92 430.13,-1178.38"/>
<polygon fill="midnightblue" stroke="midnightblue" points="316.95,-1110.63 306.62,-1112.97 316.15,-1117.59 316.95,-1110.63"/>
</g>
<!-- Node139 -->
<g id="node34" class="node">
<title>Node139</title>
<g id="a_node34"><a xlink:href="classEthMacTxCsum.html" target="_top" xlink:title=" ">
<polygon fill="white" stroke="red" points="436.5,-1140.5 436.5,-1159.5 528.5,-1159.5 528.5,-1140.5 436.5,-1140.5"/>
<text text-anchor="middle" x="482.5" y="-1147.5" font-family="Helvetica,sans-Serif" font-size="10.00">EthMacTxCsum</text>
</a>
</g>
</g>
<!-- Node119&#45;&gt;Node139 -->
<g id="edge37" class="edge">
<title>Node119&#45;&gt;Node139</title>
<path fill="none" stroke="midnightblue" d="M316.7,-1117.3C347.69,-1123.45 399.28,-1133.69 436.5,-1141.07"/>
<polygon fill="midnightblue" stroke="midnightblue" points="317.15,-1113.82 306.66,-1115.31 315.79,-1120.69 317.15,-1113.82"/>
</g>
<!-- Node141 -->
<g id="node35" class="node">
<title>Node141</title>
<g id="a_node35"><a xlink:href="classEthMacTxExportXgmii.html" target="_top" xlink:title=" ">
<polygon fill="white" stroke="red" points="420,-1102.5 420,-1121.5 545,-1121.5 545,-1102.5 420,-1102.5"/>
<text text-anchor="middle" x="482.5" y="-1109.5" font-family="Helvetica,sans-Serif" font-size="10.00">EthMacTxExportXgmii</text>
</a>
</g>
</g>
<!-- Node119&#45;&gt;Node141 -->
<g id="edge38" class="edge">
<title>Node119&#45;&gt;Node141</title>
<path fill="none" stroke="midnightblue" d="M316.73,-1112C343.32,-1112 385.06,-1112 419.88,-1112"/>
<polygon fill="midnightblue" stroke="midnightblue" points="316.66,-1108.5 306.66,-1112 316.66,-1115.5 316.66,-1108.5"/>
</g>
<!-- Node143 -->
<g id="node36" class="node">
<title>Node143</title>
<g id="a_node36"><a xlink:href="classFifoCascade.html" target="_top" xlink:title=" ">
<polygon fill="white" stroke="red" points="444.5,-1064.5 444.5,-1083.5 520.5,-1083.5 520.5,-1064.5 444.5,-1064.5"/>
<text text-anchor="middle" x="482.5" y="-1071.5" font-family="Helvetica,sans-Serif" font-size="10.00">FifoCascade</text>
</a>
</g>
</g>
<!-- Node119&#45;&gt;Node143 -->
<g id="edge39" class="edge">
<title>Node119&#45;&gt;Node143</title>
<path fill="none" stroke="midnightblue" d="M316.54,-1106.73C349.7,-1100.15 406.65,-1088.85 444.19,-1081.4"/>
<polygon fill="midnightblue" stroke="midnightblue" points="315.79,-1103.31 306.66,-1108.69 317.15,-1110.18 315.79,-1103.31"/>
</g>
<!-- Node206 -->
<g id="node37" class="node">
<title>Node206</title>
<g id="a_node37"><a xlink:href="classFifoTbSubModule.html" target="_top" xlink:title=" ">
<polygon fill="white" stroke="red" points="432,-1026.5 432,-1045.5 533,-1045.5 533,-1026.5 432,-1026.5"/>
<text text-anchor="middle" x="482.5" y="-1033.5" font-family="Helvetica,sans-Serif" font-size="10.00">FifoTbSubModule</text>
</a>
</g>
</g>
<!-- Node119&#45;&gt;Node206 -->
<g id="edge40" class="edge">
<title>Node119&#45;&gt;Node206</title>
<path fill="none" stroke="midnightblue" d="M316.3,-1103.15C332.94,-1097.16 354.69,-1088.61 373,-1079 390.03,-1070.07 391.46,-1062.88 409,-1055 417.31,-1051.27 426.49,-1048.16 435.46,-1045.6"/>
<polygon fill="midnightblue" stroke="midnightblue" points="314.95,-1099.91 306.67,-1106.53 317.27,-1106.52 314.95,-1099.91"/>
</g>
<!-- Node208 -->
<g id="node38" class="node">
<title>Node208</title>
<g id="a_node38"><a xlink:href="classFwftCntTbSubModule.html" target="_top" xlink:title=" ">
<polygon fill="white" stroke="red" points="422.5,-1330.5 422.5,-1349.5 542.5,-1349.5 542.5,-1330.5 422.5,-1330.5"/>
<text text-anchor="middle" x="482.5" y="-1337.5" font-family="Helvetica,sans-Serif" font-size="10.00">FwftCntTbSubModule</text>
</a>
</g>
</g>
<!-- Node119&#45;&gt;Node208 -->
<g id="edge41" class="edge">
<title>Node119&#45;&gt;Node208</title>
<path fill="none" stroke="midnightblue" d="M316.67,-1110.98C335.02,-1111.78 358.6,-1116.05 373,-1131 432.61,-1192.91 350.36,-1258.16 409,-1321 412.82,-1325.09 417.4,-1328.34 422.38,-1330.92"/>
<polygon fill="midnightblue" stroke="midnightblue" points="316.62,-1107.48 306.57,-1110.85 316.53,-1114.48 316.62,-1107.48"/>
</g>
<!-- Node210 -->
<g id="node39" class="node">
<title>Node210</title>
<g id="a_node39"><a xlink:href="classiq16bTo32b.html" target="_top" xlink:title=" ">
<polygon fill="white" stroke="black" points="446.5,-1292.5 446.5,-1311.5 518.5,-1311.5 518.5,-1292.5 446.5,-1292.5"/>
<text text-anchor="middle" x="482.5" y="-1299.5" font-family="Helvetica,sans-Serif" font-size="10.00">iq16bTo32b</text>
</a>
</g>
</g>
<!-- Node119&#45;&gt;Node210 -->
<g id="edge42" class="edge">
<title>Node119&#45;&gt;Node210</title>
<path fill="none" stroke="midnightblue" d="M316.79,-1111.2C335,-1112.13 358.35,-1116.46 373,-1131 422.27,-1179.91 360.5,-1233.33 409,-1283 418.73,-1292.96 432.99,-1297.91 446.29,-1300.31"/>
<polygon fill="midnightblue" stroke="midnightblue" points="316.84,-1107.7 306.77,-1110.99 316.69,-1114.69 316.84,-1107.7"/>
</g>
<!-- Node232&#45;&gt;Node4 -->
<g id="edge49" class="edge">
<title>Node232&#45;&gt;Node4</title>
<path fill="none" stroke="midnightblue" d="M348.45,-877.75C377.8,-879.13 412.69,-880.77 439.38,-882.02"/>
<polygon fill="midnightblue" stroke="midnightblue" points="348.48,-874.24 338.32,-877.27 348.15,-881.24 348.48,-874.24"/>
</g>
<!-- Node232&#45;&gt;Node108 -->
<g id="edge52" class="edge">
<title>Node232&#45;&gt;Node108</title>
<path fill="none" stroke="midnightblue" d="M347.92,-869.73C357.11,-866.76 365.9,-862.38 373,-856 409.67,-823 372.85,-784.57 409,-751 421.59,-739.31 440.47,-734.63 455.81,-732.83"/>
<polygon fill="midnightblue" stroke="midnightblue" points="347,-866.35 338.26,-872.34 348.83,-873.11 347,-866.35"/>
</g>
<!-- Node232&#45;&gt;Node224 -->
<g id="edge50" class="edge">
<title>Node232&#45;&gt;Node224</title>
<path fill="none" stroke="midnightblue" d="M348.2,-882.89C356.93,-885.58 365.5,-889.18 373,-894 395.14,-908.22 387.09,-926.43 409,-941 421.03,-949 436.26,-953.63 449.65,-956.31"/>
<polygon fill="midnightblue" stroke="midnightblue" points="348.91,-879.45 338.34,-880.22 347.08,-886.21 348.91,-879.45"/>
</g>
<!-- Node232&#45;&gt;Node227 -->
<g id="edge51" class="edge">
<title>Node232&#45;&gt;Node227</title>
<path fill="none" stroke="midnightblue" d="M342.63,-886.82C352.72,-889.15 363.2,-891.61 373,-894 398.9,-900.3 428.15,-907.88 449.75,-913.56"/>
<polygon fill="midnightblue" stroke="midnightblue" points="343.23,-883.37 332.7,-884.54 341.67,-890.19 343.23,-883.37"/>
</g>
<!-- Node289&#45;&gt;Node119 -->
<g id="edge56" class="edge">
<title>Node289&#45;&gt;Node119</title>
<path fill="none" stroke="midnightblue" d="M176.53,-1126.12C207.08,-1122.25 248.31,-1117.03 271.1,-1114.14"/>
<polygon fill="midnightblue" stroke="midnightblue" points="175.69,-1122.7 166.21,-1127.43 176.57,-1129.64 175.69,-1122.7"/>
</g>
<!-- Node290 -->
<g id="node48" class="node">
<title>Node290</title>
<g id="a_node48"><a xlink:href="classAxiStreamDmaWrite.html" target="_top" xlink:title=" ">
<polygon fill="white" stroke="red" points="230.5,-1178.5 230.5,-1197.5 347.5,-1197.5 347.5,-1178.5 230.5,-1178.5"/>
<text text-anchor="middle" x="289" y="-1185.5" font-family="Helvetica,sans-Serif" font-size="10.00">AxiStreamDmaWrite</text>
</a>
</g>
</g>
<!-- Node289&#45;&gt;Node290 -->
<g id="edge55" class="edge">
<title>Node289&#45;&gt;Node290</title>
<path fill="none" stroke="midnightblue" d="M160.52,-1145.96C173.15,-1153.79 189.45,-1162.96 205,-1169 214.65,-1172.75 225.22,-1175.86 235.5,-1178.42"/>
<polygon fill="midnightblue" stroke="midnightblue" points="162.35,-1142.98 152.04,-1140.57 158.6,-1148.89 162.35,-1142.98"/>
</g>
<!-- Node293 -->
<g id="node49" class="node">
<title>Node293</title>
<g id="a_node49"><a xlink:href="classJesdRxLane.html" target="_top" xlink:title=" ">
<polygon fill="white" stroke="red" points="252.5,-1140.5 252.5,-1159.5 325.5,-1159.5 325.5,-1140.5 252.5,-1140.5"/>
<text text-anchor="middle" x="289" y="-1147.5" font-family="Helvetica,sans-Serif" font-size="10.00">JesdRxLane</text>
</a>
</g>
</g>
<!-- Node289&#45;&gt;Node293 -->
<g id="edge57" class="edge">
<title>Node289&#45;&gt;Node293</title>
<path fill="none" stroke="midnightblue" d="M176.17,-1135.84C199.65,-1138.81 229.53,-1142.59 252.5,-1145.5"/>
<polygon fill="midnightblue" stroke="midnightblue" points="176.57,-1132.36 166.21,-1134.57 175.69,-1139.3 176.57,-1132.36"/>
</g>
</g>
</svg>
