<?xml version="1.0" encoding="UTF-8" standalone="no"?>
<!DOCTYPE svg PUBLIC "-//W3C//DTD SVG 1.1//EN"
 "http://www.w3.org/Graphics/SVG/1.1/DTD/svg11.dtd">
<!-- Generated by graphviz version 2.43.0 (0)
 -->
<!-- Title: Pgp2bGthUltra Pages: 1 -->
<svg width="902pt" height="586pt"
 viewBox="0.00 0.00 902.00 586.00" xmlns="http://www.w3.org/2000/svg" xmlns:xlink="http://www.w3.org/1999/xlink">
<g id="graph0" class="graph" transform="scale(1 1) rotate(0) translate(4 582)">
<title>Pgp2bGthUltra</title>
<!-- Node1 -->
<g id="Node000001" class="node">
<title>Node1</title>
<g id="a_Node000001"><a xlink:title=" ">
<polygon fill="#999999" stroke="#666666" points="894,-512 806,-512 806,-493 894,-493 894,-512"/>
<text text-anchor="middle" x="850" y="-500" font-family="Helvetica,sans-Serif" font-size="10.00">Pgp2bGthUltra</text>
</a>
</g>
</g>
<!-- Node2 -->
<g id="Node000002" class="node">
<title>Node2</title>
<g id="a_Node000002"><a xlink:href="classPwrUpRst.html" target="_top" xlink:title=" ">
<polygon fill="white" stroke="#bfbfbf" points="611,-531 547,-531 547,-512 611,-512 611,-531"/>
<text text-anchor="middle" x="579" y="-519" font-family="Helvetica,sans-Serif" font-size="10.00">PwrUpRst</text>
</a>
</g>
</g>
<!-- Node2&#45;&gt;Node1 -->
<g id="edge1_Node000001_Node000002" class="edge">
<title>Node2&#45;&gt;Node1</title>
<g id="a_edge1_Node000001_Node000002"><a xlink:title=" ">
<path fill="none" stroke="#63b8ff" d="M621.24,-518.59C671.19,-515.06 754.93,-509.14 805.76,-505.55"/>
<polygon fill="#63b8ff" stroke="#63b8ff" points="620.85,-515.11 611.12,-519.3 621.34,-522.09 620.85,-515.11"/>
</a>
</g>
</g>
<!-- Node3 -->
<g id="Node000003" class="node">
<title>Node3</title>
<g id="a_Node000003"><a xlink:href="classRstSync.html" target="_top" xlink:title=" ">
<polygon fill="white" stroke="#bfbfbf" points="201.5,-541 145.5,-541 145.5,-522 201.5,-522 201.5,-541"/>
<text text-anchor="middle" x="173.5" y="-529" font-family="Helvetica,sans-Serif" font-size="10.00">RstSync</text>
</a>
</g>
</g>
<!-- Node3&#45;&gt;Node2 -->
<g id="edge2_Node000002_Node000003" class="edge">
<title>Node3&#45;&gt;Node2</title>
<g id="a_edge2_Node000002_Node000003"><a xlink:title=" ">
<path fill="none" stroke="#63b8ff" d="M212.06,-530.57C291.2,-528.61 473.83,-524.08 546.92,-522.27"/>
<polygon fill="#63b8ff" stroke="#63b8ff" points="211.51,-527.08 201.6,-530.83 211.68,-534.08 211.51,-527.08"/>
</a>
</g>
</g>
<!-- Node5 -->
<g id="Node000005" class="node">
<title>Node5</title>
<g id="a_Node000005"><a xlink:href="classSynchronizerOneShot.html" target="_top" xlink:title=" ">
<polygon fill="white" stroke="#bfbfbf" points="388,-569 267,-569 267,-550 388,-550 388,-569"/>
<text text-anchor="middle" x="327.5" y="-557" font-family="Helvetica,sans-Serif" font-size="10.00">SynchronizerOneShot</text>
</a>
</g>
</g>
<!-- Node3&#45;&gt;Node5 -->
<g id="edge5_Node000005_Node000003" class="edge">
<title>Node3&#45;&gt;Node5</title>
<g id="a_edge5_Node000005_Node000003"><a xlink:title=" ">
<path fill="none" stroke="#63b8ff" d="M211.7,-538.35C230.65,-541.84 253.99,-546.14 274.67,-549.95"/>
<polygon fill="#63b8ff" stroke="#63b8ff" points="212.14,-534.88 201.67,-536.51 210.87,-541.76 212.14,-534.88"/>
</a>
</g>
</g>
<!-- Node21 -->
<g id="Node000021" class="node">
<title>Node21</title>
<g id="a_Node000021"><a xlink:href="classAxiLiteAsync.html" target="_top" xlink:title=" ">
<polygon fill="white" stroke="#bfbfbf" points="504,-493 424,-493 424,-474 504,-474 504,-493"/>
<text text-anchor="middle" x="464" y="-481" font-family="Helvetica,sans-Serif" font-size="10.00">AxiLiteAsync</text>
</a>
</g>
</g>
<!-- Node3&#45;&gt;Node21 -->
<g id="edge26_Node000021_Node000003" class="edge">
<title>Node3&#45;&gt;Node21</title>
<g id="a_edge26_Node000021_Node000003"><a xlink:title=" ">
<path fill="none" stroke="#63b8ff" d="M211.77,-520.63C228.54,-516.05 248.64,-510.99 267,-507.5 320.89,-497.26 383.98,-490.44 423.72,-486.77"/>
<polygon fill="#63b8ff" stroke="#63b8ff" points="210.51,-517.35 201.81,-523.4 212.38,-524.09 210.51,-517.35"/>
</a>
</g>
</g>
<!-- Node22 -->
<g id="Node000022" class="node">
<title>Node22</title>
<g id="a_Node000022"><a xlink:href="classFifoAsync.html" target="_top" xlink:title=" ">
<polygon fill="white" stroke="#bfbfbf" points="359.5,-438 295.5,-438 295.5,-419 359.5,-419 359.5,-438"/>
<text text-anchor="middle" x="327.5" y="-426" font-family="Helvetica,sans-Serif" font-size="10.00">FifoAsync</text>
</a>
</g>
</g>
<!-- Node3&#45;&gt;Node22 -->
<g id="edge28_Node000022_Node000003" class="edge">
<title>Node3&#45;&gt;Node22</title>
<g id="a_edge28_Node000022_Node000003"><a xlink:title=" ">
<path fill="none" stroke="#63b8ff" d="M211.43,-523.13C218.27,-520.66 225.11,-517.5 231,-513.5 251.9,-499.3 248.41,-486.62 267,-469.5 280.29,-457.26 297.45,-445.82 309.93,-438.15"/>
<polygon fill="#63b8ff" stroke="#63b8ff" points="209.99,-519.92 201.52,-526.28 212.11,-526.59 209.99,-519.92"/>
</a>
</g>
</g>
<!-- Node4 -->
<g id="Node000004" class="node">
<title>Node4</title>
<g id="a_Node000004"><a xlink:href="classSynchronizer.html" target="_top" xlink:title=" ">
<polygon fill="white" stroke="#bfbfbf" points="80,-466 0,-466 0,-447 80,-447 80,-466"/>
<text text-anchor="middle" x="40" y="-454" font-family="Helvetica,sans-Serif" font-size="10.00">Synchronizer</text>
</a>
</g>
</g>
<!-- Node4&#45;&gt;Node3 -->
<g id="edge3_Node000003_Node000004" class="edge">
<title>Node4&#45;&gt;Node3</title>
<g id="a_edge3_Node000003_Node000004"><a xlink:title=" ">
<path fill="none" stroke="#63b8ff" d="M59.07,-473.07C73.56,-485.63 94.89,-502.53 116,-513.5 125.14,-518.25 135.76,-522.03 145.31,-524.88"/>
<polygon fill="#63b8ff" stroke="#63b8ff" points="61.19,-470.27 51.38,-466.26 56.55,-475.51 61.19,-470.27"/>
</a>
</g>
</g>
<!-- Node6 -->
<g id="Node000006" class="node">
<title>Node6</title>
<g id="a_Node000006"><a xlink:href="classSynchronizerEdge.html" target="_top" xlink:title=" ">
<polygon fill="white" stroke="#bfbfbf" points="225.5,-578 121.5,-578 121.5,-559 225.5,-559 225.5,-578"/>
<text text-anchor="middle" x="173.5" y="-566" font-family="Helvetica,sans-Serif" font-size="10.00">SynchronizerEdge</text>
</a>
</g>
</g>
<!-- Node4&#45;&gt;Node6 -->
<g id="edge7_Node000006_Node000004" class="edge">
<title>Node4&#45;&gt;Node6</title>
<g id="a_edge7_Node000006_Node000004"><a xlink:title=" ">
<path fill="none" stroke="#63b8ff" d="M51.01,-474.72C63.53,-495.89 86.92,-530.48 116,-550.5 120.92,-553.89 126.51,-556.66 132.21,-558.93"/>
<polygon fill="#63b8ff" stroke="#63b8ff" points="54.04,-472.97 46.03,-466.04 47.97,-476.45 54.04,-472.97"/>
</a>
</g>
</g>
<!-- Node8 -->
<g id="Node000008" class="node">
<title>Node8</title>
<g id="a_Node000008"><a xlink:href="classPgp2bTx.html" target="_top" xlink:title=" ">
<polygon fill="white" stroke="#bfbfbf" points="357,-196 298,-196 298,-177 357,-177 357,-196"/>
<text text-anchor="middle" x="327.5" y="-184" font-family="Helvetica,sans-Serif" font-size="10.00">Pgp2bTx</text>
</a>
</g>
</g>
<!-- Node4&#45;&gt;Node8 -->
<g id="edge11_Node000008_Node000004" class="edge">
<title>Node4&#45;&gt;Node8</title>
<g id="a_edge11_Node000008_Node000004"><a xlink:title=" ">
<path fill="none" stroke="#63b8ff" d="M43.25,-436.6C50.3,-378.25 74.02,-209.69 116,-177.5 171.59,-134.88 261.8,-161.06 303.73,-176.96"/>
<polygon fill="#63b8ff" stroke="#63b8ff" points="39.75,-436.39 42.06,-446.73 46.7,-437.2 39.75,-436.39"/>
</a>
</g>
</g>
<!-- Node4&#45;&gt;Node22 -->
<g id="edge30_Node000022_Node000004" class="edge">
<title>Node4&#45;&gt;Node22</title>
<g id="a_edge30_Node000022_Node000004"><a xlink:title=" ">
<path fill="none" stroke="#63b8ff" d="M57.49,-439.88C71.63,-426.88 93.28,-409.83 116,-402.5 181.01,-381.53 262.33,-404.6 302.19,-418.9"/>
<polygon fill="#63b8ff" stroke="#63b8ff" points="54.89,-437.52 50.08,-446.96 59.72,-442.58 54.89,-437.52"/>
</a>
</g>
</g>
<!-- Node5&#45;&gt;Node1 -->
<g id="edge4_Node000001_Node000005" class="edge">
<title>Node5&#45;&gt;Node1</title>
<g id="a_edge4_Node000001_Node000005"><a xlink:title=" ">
<path fill="none" stroke="#63b8ff" d="M398.43,-559.01C486.04,-557.28 640.4,-550.54 770,-525.5 787.11,-522.19 805.85,-516.82 820.79,-512.09"/>
<polygon fill="#63b8ff" stroke="#63b8ff" points="398.28,-555.51 388.34,-559.2 398.41,-562.51 398.28,-555.51"/>
</a>
</g>
</g>
<!-- Node6&#45;&gt;Node5 -->
<g id="edge6_Node000005_Node000006" class="edge">
<title>Node6&#45;&gt;Node5</title>
<g id="a_edge6_Node000005_Node000006"><a xlink:title=" ">
<path fill="none" stroke="#63b8ff" d="M235.68,-564.88C245.98,-564.27 256.66,-563.63 266.92,-563.03"/>
<polygon fill="#63b8ff" stroke="#63b8ff" points="235.31,-561.39 225.54,-565.48 235.73,-568.38 235.31,-561.39"/>
</a>
</g>
</g>
<!-- Node7 -->
<g id="Node000007" class="node">
<title>Node7</title>
<g id="a_Node000007"><a xlink:href="classPgp2bLane.html" target="_top" xlink:title=" ">
<polygon fill="white" stroke="#bfbfbf" points="499,-168 429,-168 429,-149 499,-149 499,-168"/>
<text text-anchor="middle" x="464" y="-156" font-family="Helvetica,sans-Serif" font-size="10.00">Pgp2bLane</text>
</a>
</g>
</g>
<!-- Node7&#45;&gt;Node1 -->
<g id="edge8_Node000001_Node000007" class="edge">
<title>Node7&#45;&gt;Node1</title>
<g id="a_edge8_Node000001_Node000007"><a xlink:title=" ">
<path fill="none" stroke="#63b8ff" d="M483.42,-175C551.13,-235.65 785.05,-445.21 838.2,-492.82"/>
<polygon fill="#63b8ff" stroke="#63b8ff" points="485.45,-172.13 475.67,-168.06 480.78,-177.34 485.45,-172.13"/>
</a>
</g>
</g>
<!-- Node8&#45;&gt;Node7 -->
<g id="edge9_Node000007_Node000008" class="edge">
<title>Node8&#45;&gt;Node7</title>
<g id="a_edge9_Node000007_Node000008"><a xlink:title=" ">
<path fill="none" stroke="#63b8ff" d="M366.82,-178.52C386.35,-174.46 409.89,-169.56 428.8,-165.62"/>
<polygon fill="#63b8ff" stroke="#63b8ff" points="366.1,-175.1 357.02,-180.56 367.53,-181.95 366.1,-175.1"/>
</a>
</g>
</g>
<!-- Node9 -->
<g id="Node000009" class="node">
<title>Node9</title>
<g id="a_Node000009"><a xlink:href="classSynchronizerVector.html" target="_top" xlink:title=" ">
<polygon fill="white" stroke="#bfbfbf" points="228.5,-317 118.5,-317 118.5,-298 228.5,-298 228.5,-317"/>
<text text-anchor="middle" x="173.5" y="-305" font-family="Helvetica,sans-Serif" font-size="10.00">SynchronizerVector</text>
</a>
</g>
</g>
<!-- Node9&#45;&gt;Node8 -->
<g id="edge10_Node000008_Node000009" class="edge">
<title>Node9&#45;&gt;Node8</title>
<g id="a_edge10_Node000008_Node000009"><a xlink:title=" ">
<path fill="none" stroke="#63b8ff" d="M222.89,-293.99C225.7,-292.62 228.43,-291.13 231,-289.5 271.55,-263.75 306.25,-216.64 320.08,-196.29"/>
<polygon fill="#63b8ff" stroke="#63b8ff" points="221.49,-290.78 213.68,-297.94 224.25,-297.22 221.49,-290.78"/>
</a>
</g>
</g>
<!-- Node9&#45;&gt;Node22 -->
<g id="edge29_Node000022_Node000009" class="edge">
<title>Node9&#45;&gt;Node22</title>
<g id="a_edge29_Node000022_Node000009"><a xlink:title=" ">
<path fill="none" stroke="#63b8ff" d="M220.98,-321C224.47,-322.65 227.86,-324.48 231,-326.5 271.2,-352.34 306.08,-398.81 320.03,-418.86"/>
<polygon fill="#63b8ff" stroke="#63b8ff" points="222.16,-317.69 211.58,-317.03 219.44,-324.14 222.16,-317.69"/>
</a>
</g>
</g>
<!-- Node10 -->
<g id="Node000010" class="node">
<title>Node10</title>
<g id="a_Node000010"><a xlink:href="classPgp2bTxPhy.html" target="_top" xlink:title=" ">
<polygon fill="white" stroke="#bfbfbf" points="212,-280 135,-280 135,-261 212,-261 212,-280"/>
<text text-anchor="middle" x="173.5" y="-268" font-family="Helvetica,sans-Serif" font-size="10.00">Pgp2bTxPhy</text>
</a>
</g>
</g>
<!-- Node10&#45;&gt;Node8 -->
<g id="edge12_Node000008_Node000010" class="edge">
<title>Node10&#45;&gt;Node8</title>
<g id="a_edge12_Node000008_Node000010"><a xlink:title=" ">
<path fill="none" stroke="#63b8ff" d="M219.75,-257.42C223.61,-255.9 227.41,-254.26 231,-252.5 263.74,-236.42 297.92,-210.08 315.14,-196.03"/>
<polygon fill="#63b8ff" stroke="#63b8ff" points="218.29,-254.23 210.09,-260.93 220.69,-260.8 218.29,-254.23"/>
</a>
</g>
</g>
<!-- Node11 -->
<g id="Node000011" class="node">
<title>Node11</title>
<g id="a_Node000011"><a xlink:href="classPgp2bTxSched.html" target="_top" xlink:title=" ">
<polygon fill="white" stroke="#bfbfbf" points="217.5,-243 129.5,-243 129.5,-224 217.5,-224 217.5,-243"/>
<text text-anchor="middle" x="173.5" y="-231" font-family="Helvetica,sans-Serif" font-size="10.00">Pgp2bTxSched</text>
</a>
</g>
</g>
<!-- Node11&#45;&gt;Node8 -->
<g id="edge13_Node000008_Node000011" class="edge">
<title>Node11&#45;&gt;Node8</title>
<g id="a_edge13_Node000008_Node000011"><a xlink:title=" ">
<path fill="none" stroke="#63b8ff" d="M214.88,-221.01C241.02,-212.93 274.42,-202.6 297.84,-195.36"/>
<polygon fill="#63b8ff" stroke="#63b8ff" points="213.78,-217.69 205.26,-223.99 215.85,-224.38 213.78,-217.69"/>
</a>
</g>
</g>
<!-- Node12 -->
<g id="Node000012" class="node">
<title>Node12</title>
<g id="a_Node000012"><a xlink:href="classPgp2bTxCell.html" target="_top" xlink:title=" ">
<polygon fill="white" stroke="#bfbfbf" points="212,-206 135,-206 135,-187 212,-187 212,-206"/>
<text text-anchor="middle" x="173.5" y="-194" font-family="Helvetica,sans-Serif" font-size="10.00">Pgp2bTxCell</text>
</a>
</g>
</g>
<!-- Node12&#45;&gt;Node8 -->
<g id="edge14_Node000008_Node000012" class="edge">
<title>Node12&#45;&gt;Node8</title>
<g id="a_edge14_Node000008_Node000012"><a xlink:title=" ">
<path fill="none" stroke="#63b8ff" d="M222.06,-193.37C246.95,-191.73 276.6,-189.78 297.94,-188.38"/>
<polygon fill="#63b8ff" stroke="#63b8ff" points="221.82,-189.88 212.07,-194.03 222.28,-196.86 221.82,-189.88"/>
</a>
</g>
</g>
<!-- Node13 -->
<g id="Node000013" class="node">
<title>Node13</title>
<g id="a_Node000013"><a xlink:href="classAxiStreamPipeline.html" target="_top" xlink:title=" ">
<polygon fill="white" stroke="#bfbfbf" points="227,-130 120,-130 120,-111 227,-111 227,-130"/>
<text text-anchor="middle" x="173.5" y="-118" font-family="Helvetica,sans-Serif" font-size="10.00">AxiStreamPipeline</text>
</a>
</g>
</g>
<!-- Node13&#45;&gt;Node8 -->
<g id="edge15_Node000008_Node000013" class="edge">
<title>Node13&#45;&gt;Node8</title>
<g id="a_edge15_Node000008_Node000013"><a xlink:title=" ">
<path fill="none" stroke="#63b8ff" d="M206.49,-134C214.5,-137.41 223.07,-141.07 231,-144.5 256.44,-155.5 285.58,-168.35 304.91,-176.91"/>
<polygon fill="#63b8ff" stroke="#63b8ff" points="207.65,-130.69 197.07,-130.01 204.91,-137.14 207.65,-130.69"/>
</a>
</g>
</g>
<!-- Node18 -->
<g id="Node000018" class="node">
<title>Node18</title>
<g id="a_Node000018"><a xlink:href="classAxiStreamDeMux.html" target="_top" xlink:title=" ">
<polygon fill="white" stroke="#bfbfbf" points="378.5,-140 276.5,-140 276.5,-121 378.5,-121 378.5,-140"/>
<text text-anchor="middle" x="327.5" y="-128" font-family="Helvetica,sans-Serif" font-size="10.00">AxiStreamDeMux</text>
</a>
</g>
</g>
<!-- Node13&#45;&gt;Node18 -->
<g id="edge22_Node000018_Node000013" class="edge">
<title>Node13&#45;&gt;Node18</title>
<g id="a_edge22_Node000018_Node000013"><a xlink:title=" ">
<path fill="none" stroke="#63b8ff" d="M237.5,-124.64C250.48,-125.5 263.97,-126.39 276.42,-127.2"/>
<polygon fill="#63b8ff" stroke="#63b8ff" points="237.44,-121.13 227.24,-123.97 236.98,-128.12 237.44,-121.13"/>
</a>
</g>
</g>
<!-- Node14 -->
<g id="Node000014" class="node">
<title>Node14</title>
<g id="a_Node000014"><a xlink:href="classCRC32Rtl.html" target="_top" xlink:title=" ">
<polygon fill="white" stroke="#bfbfbf" points="204.5,-93 142.5,-93 142.5,-74 204.5,-74 204.5,-93"/>
<text text-anchor="middle" x="173.5" y="-81" font-family="Helvetica,sans-Serif" font-size="10.00">CRC32Rtl</text>
</a>
</g>
</g>
<!-- Node14&#45;&gt;Node8 -->
<g id="edge16_Node000008_Node000014" class="edge">
<title>Node14&#45;&gt;Node8</title>
<g id="a_edge16_Node000008_Node000014"><a xlink:title=" ">
<path fill="none" stroke="#63b8ff" d="M214.38,-92.8C220.24,-95.11 225.98,-97.97 231,-101.5 252.52,-116.63 247.62,-130.7 267,-148.5 279.37,-159.86 295.54,-169.94 307.9,-176.86"/>
<polygon fill="#63b8ff" stroke="#63b8ff" points="215.12,-89.35 204.52,-89.4 212.84,-95.97 215.12,-89.35"/>
</a>
</g>
</g>
<!-- Node15 -->
<g id="Node000015" class="node">
<title>Node15</title>
<g id="a_Node000015"><a xlink:href="classPgp2bRx.html" target="_top" xlink:title=" ">
<polygon fill="white" stroke="#bfbfbf" points="357,-75 298,-75 298,-56 357,-56 357,-75"/>
<text text-anchor="middle" x="327.5" y="-63" font-family="Helvetica,sans-Serif" font-size="10.00">Pgp2bRx</text>
</a>
</g>
</g>
<!-- Node14&#45;&gt;Node15 -->
<g id="edge20_Node000015_Node000014" class="edge">
<title>Node14&#45;&gt;Node15</title>
<g id="a_edge20_Node000015_Node000014"><a xlink:title=" ">
<path fill="none" stroke="#63b8ff" d="M214.52,-78.76C240.7,-75.66 274.29,-71.68 297.82,-68.9"/>
<polygon fill="#63b8ff" stroke="#63b8ff" points="214.05,-75.29 204.53,-79.94 214.87,-82.24 214.05,-75.29"/>
</a>
</g>
</g>
<!-- Node15&#45;&gt;Node7 -->
<g id="edge17_Node000007_Node000015" class="edge">
<title>Node15&#45;&gt;Node7</title>
<g id="a_edge17_Node000007_Node000015"><a xlink:title=" ">
<path fill="none" stroke="#63b8ff" d="M350.72,-80.86C378.62,-100.15 425.64,-132.67 448.99,-148.81"/>
<polygon fill="#63b8ff" stroke="#63b8ff" points="352.6,-77.91 342.39,-75.1 348.62,-83.67 352.6,-77.91"/>
</a>
</g>
</g>
<!-- Node16 -->
<g id="Node000016" class="node">
<title>Node16</title>
<g id="a_Node000016"><a xlink:href="classPgp2bRxPhy.html" target="_top" xlink:title=" ">
<polygon fill="white" stroke="#bfbfbf" points="212,-19 135,-19 135,0 212,0 212,-19"/>
<text text-anchor="middle" x="173.5" y="-7" font-family="Helvetica,sans-Serif" font-size="10.00">Pgp2bRxPhy</text>
</a>
</g>
</g>
<!-- Node16&#45;&gt;Node15 -->
<g id="edge18_Node000015_Node000016" class="edge">
<title>Node16&#45;&gt;Node15</title>
<g id="a_edge18_Node000015_Node000016"><a xlink:title=" ">
<path fill="none" stroke="#63b8ff" d="M215.6,-22.22C220.8,-23.94 226.04,-25.72 231,-27.5 256.2,-36.52 284.66,-48.01 303.9,-55.99"/>
<polygon fill="#63b8ff" stroke="#63b8ff" points="216.31,-18.77 205.72,-19.01 214.15,-25.43 216.31,-18.77"/>
</a>
</g>
</g>
<!-- Node17 -->
<g id="Node000017" class="node">
<title>Node17</title>
<g id="a_Node000017"><a xlink:href="classPgp2bRxCell.html" target="_top" xlink:title=" ">
<polygon fill="white" stroke="#bfbfbf" points="212.5,-56 134.5,-56 134.5,-37 212.5,-37 212.5,-56"/>
<text text-anchor="middle" x="173.5" y="-44" font-family="Helvetica,sans-Serif" font-size="10.00">Pgp2bRxCell</text>
</a>
</g>
</g>
<!-- Node17&#45;&gt;Node15 -->
<g id="edge19_Node000015_Node000017" class="edge">
<title>Node17&#45;&gt;Node15</title>
<g id="a_edge19_Node000015_Node000017"><a xlink:title=" ">
<path fill="none" stroke="#63b8ff" d="M223.09,-52.57C247.7,-55.65 276.73,-59.28 297.75,-61.91"/>
<polygon fill="#63b8ff" stroke="#63b8ff" points="223.21,-49.06 212.86,-51.29 222.34,-56.01 223.21,-49.06"/>
</a>
</g>
</g>
<!-- Node18&#45;&gt;Node7 -->
<g id="edge21_Node000007_Node000018" class="edge">
<title>Node18&#45;&gt;Node7</title>
<g id="a_edge21_Node000007_Node000018"><a xlink:title=" ">
<path fill="none" stroke="#63b8ff" d="M384.62,-142.18C399.61,-145.3 415.35,-148.58 428.76,-151.37"/>
<polygon fill="#63b8ff" stroke="#63b8ff" points="384.91,-138.67 374.41,-140.06 383.49,-145.52 384.91,-138.67"/>
</a>
</g>
</g>
<!-- Node19 -->
<g id="Node000019" class="node">
<title>Node19</title>
<g id="a_Node000019"><a xlink:href="classPgpGthCoreWrapper.html" target="_top" xlink:title=" ">
<polygon fill="white" stroke="#bfbfbf" points="770,-493 654,-493 654,-474 770,-474 770,-493"/>
<text text-anchor="middle" x="712" y="-481" font-family="Helvetica,sans-Serif" font-size="10.00">PgpGthCoreWrapper</text>
</a>
</g>
</g>
<!-- Node19&#45;&gt;Node1 -->
<g id="edge23_Node000001_Node000019" class="edge">
<title>Node19&#45;&gt;Node1</title>
<g id="a_edge23_Node000001_Node000019"><a xlink:title=" ">
<path fill="none" stroke="#63b8ff" d="M780.4,-492.92C789.05,-494.13 797.72,-495.34 805.84,-496.47"/>
<polygon fill="#63b8ff" stroke="#63b8ff" points="780.67,-489.42 770.28,-491.5 779.7,-496.35 780.67,-489.42"/>
</a>
</g>
</g>
<!-- Node20 -->
<g id="Node000020" class="node">
<title>Node20</title>
<g id="a_Node000020"><a xlink:href="classAxiLiteToDrp.html" target="_top" xlink:title=" ">
<polygon fill="white" stroke="#bfbfbf" points="618,-493 540,-493 540,-474 618,-474 618,-493"/>
<text text-anchor="middle" x="579" y="-481" font-family="Helvetica,sans-Serif" font-size="10.00">AxiLiteToDrp</text>
</a>
</g>
</g>
<!-- Node20&#45;&gt;Node19 -->
<g id="edge24_Node000019_Node000020" class="edge">
<title>Node20&#45;&gt;Node19</title>
<g id="a_edge24_Node000019_Node000020"><a xlink:title=" ">
<path fill="none" stroke="#63b8ff" d="M628.49,-483.5C636.79,-483.5 645.47,-483.5 653.96,-483.5"/>
<polygon fill="#63b8ff" stroke="#63b8ff" points="628.24,-480 618.24,-483.5 628.24,-487 628.24,-480"/>
</a>
</g>
</g>
<!-- Node21&#45;&gt;Node20 -->
<g id="edge25_Node000020_Node000021" class="edge">
<title>Node21&#45;&gt;Node20</title>
<g id="a_edge25_Node000020_Node000021"><a xlink:title=" ">
<path fill="none" stroke="#63b8ff" d="M514.37,-483.5C522.83,-483.5 531.51,-483.5 539.63,-483.5"/>
<polygon fill="#63b8ff" stroke="#63b8ff" points="514.2,-480 504.2,-483.5 514.2,-487 514.2,-480"/>
</a>
</g>
</g>
<!-- Node22&#45;&gt;Node21 -->
<g id="edge27_Node000021_Node000022" class="edge">
<title>Node22&#45;&gt;Node21</title>
<g id="a_edge27_Node000021_Node000022"><a xlink:title=" ">
<path fill="none" stroke="#63b8ff" d="M361.4,-441.95C385.54,-451.83 417.76,-465 439.39,-473.84"/>
<polygon fill="#63b8ff" stroke="#63b8ff" points="362.51,-438.63 351.93,-438.08 359.86,-445.1 362.51,-438.63"/>
</a>
</g>
</g>
<!-- Node23 -->
<g id="Node000023" class="node">
<title>Node23</title>
<g id="a_Node000023"><a xlink:href="classFifoWrFsm.html" target="_top" xlink:title=" ">
<polygon fill="white" stroke="#bfbfbf" points="208,-354 139,-354 139,-335 208,-335 208,-354"/>
<text text-anchor="middle" x="173.5" y="-342" font-family="Helvetica,sans-Serif" font-size="10.00">FifoWrFsm</text>
</a>
</g>
</g>
<!-- Node23&#45;&gt;Node22 -->
<g id="edge31_Node000022_Node000023" class="edge">
<title>Node23&#45;&gt;Node22</title>
<g id="a_edge31_Node000022_Node000023"><a xlink:title=" ">
<path fill="none" stroke="#63b8ff" d="M208.6,-357.95C216.08,-361.19 223.89,-364.79 231,-368.5 261.2,-384.27 294.47,-406.32 312.68,-418.83"/>
<polygon fill="#63b8ff" stroke="#63b8ff" points="209.94,-354.72 199.37,-354.06 207.23,-361.17 209.94,-354.72"/>
</a>
</g>
</g>
<!-- Node24 -->
<g id="Node000024" class="node">
<title>Node24</title>
<g id="a_Node000024"><a xlink:href="classFifoRdFsm.html" target="_top" xlink:title=" ">
<polygon fill="white" stroke="#bfbfbf" points="207.5,-504 139.5,-504 139.5,-485 207.5,-485 207.5,-504"/>
<text text-anchor="middle" x="173.5" y="-492" font-family="Helvetica,sans-Serif" font-size="10.00">FifoRdFsm</text>
</a>
</g>
</g>
<!-- Node24&#45;&gt;Node22 -->
<g id="edge32_Node000022_Node000024" class="edge">
<title>Node24&#45;&gt;Node22</title>
<g id="a_edge32_Node000022_Node000024"><a xlink:title=" ">
<path fill="none" stroke="#63b8ff" d="M217.06,-481.74C221.8,-480.08 226.53,-478.32 231,-476.5 259.35,-464.94 290.83,-448.34 309.63,-438"/>
<polygon fill="#63b8ff" stroke="#63b8ff" points="215.75,-478.49 207.38,-484.99 217.97,-485.12 215.75,-478.49"/>
</a>
</g>
</g>
<!-- Node25 -->
<g id="Node000025" class="node">
<title>Node25</title>
<g id="a_Node000025"><a xlink:href="classSimpleDualPortRam.html" target="_top" xlink:title=" ">
<polygon fill="white" stroke="#bfbfbf" points="231,-467 116,-467 116,-448 231,-448 231,-467"/>
<text text-anchor="middle" x="173.5" y="-455" font-family="Helvetica,sans-Serif" font-size="10.00">SimpleDualPortRam</text>
</a>
</g>
</g>
<!-- Node25&#45;&gt;Node22 -->
<g id="edge33_Node000022_Node000025" class="edge">
<title>Node25&#45;&gt;Node22</title>
<g id="a_edge33_Node000022_Node000025"><a xlink:title=" ">
<path fill="none" stroke="#63b8ff" d="M234.73,-446.01C255.51,-442.04 277.94,-437.77 295.42,-434.43"/>
<polygon fill="#63b8ff" stroke="#63b8ff" points="233.86,-442.61 224.69,-447.92 235.17,-449.49 233.86,-442.61"/>
</a>
</g>
</g>
<!-- Node26 -->
<g id="Node000026" class="node">
<title>Node26</title>
<g id="a_Node000026"><a xlink:href="classFifoOutputPipeline.html" target="_top" xlink:title=" ">
<polygon fill="white" stroke="#bfbfbf" points="227,-430 120,-430 120,-411 227,-411 227,-430"/>
<text text-anchor="middle" x="173.5" y="-418" font-family="Helvetica,sans-Serif" font-size="10.00">FifoOutputPipeline</text>
</a>
</g>
</g>
<!-- Node26&#45;&gt;Node22 -->
<g id="edge34_Node000022_Node000026" class="edge">
<title>Node26&#45;&gt;Node22</title>
<g id="a_edge34_Node000022_Node000026"><a xlink:title=" ">
<path fill="none" stroke="#63b8ff" d="M237.49,-423.82C257.36,-424.86 278.46,-425.97 295.13,-426.85"/>
<polygon fill="#63b8ff" stroke="#63b8ff" points="237.41,-420.31 227.24,-423.28 237.04,-427.3 237.41,-420.31"/>
</a>
</g>
</g>
</g>
</svg>
