<?xml version="1.0" encoding="UTF-8" standalone="no"?>
<!DOCTYPE svg PUBLIC "-//W3C//DTD SVG 1.1//EN"
 "http://www.w3.org/Graphics/SVG/1.1/DTD/svg11.dtd">
<!-- Generated by graphviz version 2.43.0 (0)
 -->
<!-- Title: SaltTx Pages: 1 -->
<!--zoomable 476 -->
<svg id="main" version="1.1" xmlns="http://www.w3.org/2000/svg" xmlns:xlink="http://www.w3.org/1999/xlink" xml:space="preserve" onload="init(evt)">
<style type="text/css"><![CDATA[
.edge:hover path { stroke: red; }
.edge:hover polygon { stroke: red; fill: red; }
]]></style>
<script type="text/javascript"><![CDATA[
var edges = document.getElementsByTagName('g');
if (edges && edges.length) {
  for (var i=0;i<edges.length;i++) {
    if (edges[i].id.substr(0,4)=='edge') {
      edges[i].setAttribute('class','edge');
    }
  }
}
]]></script>
        <defs>
                <circle id="rim" cx="0" cy="0" r="7"/>
                <circle id="rim2" cx="0" cy="0" r="3.5"/>
                <g id="zoomPlus">
                        <use xlink:href="#rim" fill="#404040">
                                <set attributeName="fill" to="#808080" begin="zoomplus.mouseover" end="zoomplus.mouseout"/>
                        </use>
                        <path d="M-4,0h8M0,-4v8" fill="none" stroke="white" stroke-width="1.5" pointer-events="none"/>
                </g>
                <g id="zoomMin">
                        <use xlink:href="#rim" fill="#404040">
                                <set attributeName="fill" to="#808080" begin="zoomminus.mouseover" end="zoomminus.mouseout"/>
                        </use>
                        <path d="M-4,0h8" fill="none" stroke="white" stroke-width="1.5" pointer-events="none"/>
                </g>
                <g id="dirArrow">
                        <path fill="none" stroke="white" stroke-width="1.5" d="M0,-3.0v7 M-2.5,-0.5L0,-3.0L2.5,-0.5"/>
                </g>
               <g id="resetDef">
                       <use xlink:href="#rim2" fill="#404040">
                               <set attributeName="fill" to="#808080" begin="reset.mouseover" end="reset.mouseout"/>
                       </use>
               </g>
        </defs>

<script type="text/javascript">
var viewWidth = 868;
var viewHeight = 476;
var sectionId = 'dynsection-0';
</script>
<script xlink:href="svgpan.js"/>
<svg id="graph" class="graph">
<g id="viewport">
<title>SaltTx</title>
<polygon fill="white" stroke="transparent" points="-4,4 -4,-472 863.98,-472 863.98,4 -4,4"/>
<!-- Node1 -->
<g id="node1" class="node">
<title>Node1</title>
<g id="a_node1"><a xlink:title=" ">
<polygon fill="#bfbfbf" stroke="black" points="164.98,-112.5 164.98,-131.5 211.98,-131.5 211.98,-112.5 164.98,-112.5"/>
<text text-anchor="middle" x="188.48" y="-119.5" font-family="Helvetica,sans-Serif" font-size="10.00">SaltTx</text>
</a>
</g>
</g>
<!-- Node20 -->
<g id="node20" class="node">
<title>Node20</title>
<g id="a_node20"><a xlink:href="classSaltCore.html" target="_top" xlink:title=" ">
<polygon fill="white" stroke="black" points="159.48,-56.5 159.48,-75.5 217.48,-75.5 217.48,-56.5 159.48,-56.5"/>
<text text-anchor="middle" x="188.48" y="-63.5" font-family="Helvetica,sans-Serif" font-size="10.00">SaltCore</text>
</a>
</g>
</g>
<!-- Node1&#45;&gt;Node20 -->
<g id="edge29" class="edge">
<title>Node1&#45;&gt;Node20</title>
<path fill="none" stroke="midnightblue" d="M188.48,-101.8C188.48,-92.91 188.48,-82.78 188.48,-75.75"/>
<polygon fill="midnightblue" stroke="midnightblue" points="184.98,-102.08 188.48,-112.08 191.98,-102.08 184.98,-102.08"/>
</g>
<!-- Node2 -->
<g id="node2" class="node">
<title>Node2</title>
<g id="a_node2"><a xlink:href="classAxiStreamFifoV2.html" target="_top" xlink:title=" ">
<polygon fill="white" stroke="black" points="86.48,-168.5 86.48,-187.5 184.48,-187.5 184.48,-168.5 86.48,-168.5"/>
<text text-anchor="middle" x="135.48" y="-175.5" font-family="Helvetica,sans-Serif" font-size="10.00">AxiStreamFifoV2</text>
</a>
</g>
</g>
<!-- Node2&#45;&gt;Node1 -->
<g id="edge1" class="edge">
<title>Node2&#45;&gt;Node1</title>
<path fill="none" stroke="midnightblue" d="M151.46,-160.72C160.8,-151.2 172.23,-139.56 179.89,-131.75"/>
<polygon fill="midnightblue" stroke="midnightblue" points="148.74,-158.49 144.23,-168.08 153.74,-163.4 148.74,-158.49"/>
</g>
<!-- Node3 -->
<g id="node3" class="node">
<title>Node3</title>
<g id="a_node3"><a xlink:href="classAxiStreamGearbox.html" target="_top" xlink:title=" ">
<polygon fill="white" stroke="black" points="39.98,-224.5 39.98,-243.5 148.98,-243.5 148.98,-224.5 39.98,-224.5"/>
<text text-anchor="middle" x="94.48" y="-231.5" font-family="Helvetica,sans-Serif" font-size="10.00">AxiStreamGearbox</text>
</a>
</g>
</g>
<!-- Node3&#45;&gt;Node2 -->
<g id="edge2" class="edge">
<title>Node3&#45;&gt;Node2</title>
<path fill="none" stroke="midnightblue" d="M107.5,-215.86C114.6,-206.5 123.09,-195.33 128.84,-187.75"/>
<polygon fill="midnightblue" stroke="midnightblue" points="104.51,-214 101.25,-224.08 110.09,-218.24 104.51,-214"/>
</g>
<!-- Node4 -->
<g id="node4" class="node">
<title>Node4</title>
<g id="a_node4"><a xlink:href="classAxiStreamResize.html" target="_top" xlink:title=" ">
<polygon fill="white" stroke="black" points="11.48,-280.5 11.48,-299.5 111.48,-299.5 111.48,-280.5 11.48,-280.5"/>
<text text-anchor="middle" x="61.48" y="-287.5" font-family="Helvetica,sans-Serif" font-size="10.00">AxiStreamResize</text>
</a>
</g>
</g>
<!-- Node4&#45;&gt;Node3 -->
<g id="edge3" class="edge">
<title>Node4&#45;&gt;Node3</title>
<path fill="none" stroke="midnightblue" d="M72.31,-271.27C77.95,-262.05 84.6,-251.17 89.13,-243.75"/>
<polygon fill="midnightblue" stroke="midnightblue" points="69.16,-269.73 66.93,-280.08 75.13,-273.38 69.16,-269.73"/>
</g>
<!-- Node5 -->
<g id="node5" class="node">
<title>Node5</title>
<g id="a_node5"><a xlink:href="classAxiStreamPipeline.html" target="_top" xlink:title=" ">
<polygon fill="white" stroke="black" points="7.98,-336.5 7.98,-355.5 114.98,-355.5 114.98,-336.5 7.98,-336.5"/>
<text text-anchor="middle" x="61.48" y="-343.5" font-family="Helvetica,sans-Serif" font-size="10.00">AxiStreamPipeline</text>
</a>
</g>
</g>
<!-- Node5&#45;&gt;Node2 -->
<g id="edge27" class="edge">
<title>Node5&#45;&gt;Node2</title>
<path fill="none" stroke="midnightblue" d="M33.65,-331.27C21.75,-323.81 9.09,-313.34 2.48,-300 -1.46,-292.03 0.44,-288.65 2.48,-280 8.88,-252.92 10.24,-243.09 30.48,-224 49.67,-205.9 77.26,-194.46 99.35,-187.65"/>
<polygon fill="midnightblue" stroke="midnightblue" points="32.09,-334.41 42.5,-336.4 35.6,-328.36 32.09,-334.41"/>
</g>
<!-- Node5&#45;&gt;Node3 -->
<g id="edge5" class="edge">
<title>Node5&#45;&gt;Node3</title>
<path fill="none" stroke="midnightblue" d="M89.31,-331.27C101.22,-323.81 113.88,-313.34 120.48,-300 130.19,-280.39 113.39,-256.22 102.56,-243.6"/>
<polygon fill="midnightblue" stroke="midnightblue" points="87.36,-328.36 80.47,-336.4 90.87,-334.41 87.36,-328.36"/>
</g>
<!-- Node5&#45;&gt;Node4 -->
<g id="edge4" class="edge">
<title>Node5&#45;&gt;Node4</title>
<path fill="none" stroke="midnightblue" d="M61.48,-325.8C61.48,-316.91 61.48,-306.78 61.48,-299.75"/>
<polygon fill="midnightblue" stroke="midnightblue" points="57.98,-326.08 61.48,-336.08 64.98,-326.08 57.98,-326.08"/>
</g>
<!-- Node6 -->
<g id="node6" class="node">
<title>Node6</title>
<g id="a_node6"><a xlink:href="classFifoCascade.html" target="_top" xlink:title=" ">
<polygon fill="white" stroke="black" points="367.48,-224.5 367.48,-243.5 443.48,-243.5 443.48,-224.5 367.48,-224.5"/>
<text text-anchor="middle" x="405.48" y="-231.5" font-family="Helvetica,sans-Serif" font-size="10.00">FifoCascade</text>
</a>
</g>
</g>
<!-- Node6&#45;&gt;Node2 -->
<g id="edge6" class="edge">
<title>Node6&#45;&gt;Node2</title>
<path fill="none" stroke="midnightblue" d="M357.28,-223.36C306.43,-213.19 227.03,-197.31 178.3,-187.56"/>
<polygon fill="midnightblue" stroke="midnightblue" points="356.88,-226.85 367.37,-225.38 358.25,-219.98 356.88,-226.85"/>
</g>
<!-- Node7 -->
<g id="node7" class="node">
<title>Node7</title>
<g id="a_node7"><a xlink:href="classFifo.html" target="_top" xlink:title=" ">
<polygon fill="white" stroke="black" points="559.98,-280.5 559.98,-299.5 594.98,-299.5 594.98,-280.5 559.98,-280.5"/>
<text text-anchor="middle" x="577.48" y="-287.5" font-family="Helvetica,sans-Serif" font-size="10.00">Fifo</text>
</a>
</g>
</g>
<!-- Node7&#45;&gt;Node6 -->
<g id="edge7" class="edge">
<title>Node7&#45;&gt;Node6</title>
<path fill="none" stroke="midnightblue" d="M550.06,-280.39C517.87,-270.28 464.81,-253.63 432.71,-243.55"/>
<polygon fill="midnightblue" stroke="midnightblue" points="549.13,-283.77 559.72,-283.42 551.23,-277.09 549.13,-283.77"/>
</g>
<!-- Node8 -->
<g id="node8" class="node">
<title>Node8</title>
<g id="a_node8"><a xlink:href="classFifoXpm.html" target="_top" xlink:title=" ">
<polygon fill="white" stroke="black" points="663.98,-336.5 663.98,-355.5 720.98,-355.5 720.98,-336.5 663.98,-336.5"/>
<text text-anchor="middle" x="692.48" y="-343.5" font-family="Helvetica,sans-Serif" font-size="10.00">FifoXpm</text>
</a>
</g>
</g>
<!-- Node8&#45;&gt;Node7 -->
<g id="edge8" class="edge">
<title>Node8&#45;&gt;Node7</title>
<path fill="none" stroke="midnightblue" d="M664.94,-332.07C643.32,-321.91 613.85,-308.08 595.24,-299.34"/>
<polygon fill="midnightblue" stroke="midnightblue" points="663.72,-335.36 674.26,-336.44 666.7,-329.02 663.72,-335.36"/>
</g>
<!-- Node9 -->
<g id="node9" class="node">
<title>Node9</title>
<g id="a_node9"><a xlink:href="classFifoOutputPipeline.html" target="_top" xlink:title=" ">
<polygon fill="white" stroke="black" points="752.98,-392.5 752.98,-411.5 859.98,-411.5 859.98,-392.5 752.98,-392.5"/>
<text text-anchor="middle" x="806.48" y="-399.5" font-family="Helvetica,sans-Serif" font-size="10.00">FifoOutputPipeline</text>
</a>
</g>
</g>
<!-- Node9&#45;&gt;Node8 -->
<g id="edge9" class="edge">
<title>Node9&#45;&gt;Node8</title>
<path fill="none" stroke="midnightblue" d="M779.24,-388.1C757.94,-378.01 728.94,-364.27 710.46,-355.52"/>
<polygon fill="midnightblue" stroke="midnightblue" points="777.88,-391.33 788.42,-392.44 780.88,-385 777.88,-391.33"/>
</g>
<!-- Node10 -->
<g id="node10" class="node">
<title>Node10</title>
<g id="a_node10"><a xlink:href="classFifoAlteraMf.html" target="_top" xlink:title=" ">
<polygon fill="white" stroke="black" points="757.98,-336.5 757.98,-355.5 834.98,-355.5 834.98,-336.5 757.98,-336.5"/>
<text text-anchor="middle" x="796.48" y="-343.5" font-family="Helvetica,sans-Serif" font-size="10.00">FifoAlteraMf</text>
</a>
</g>
</g>
<!-- Node9&#45;&gt;Node10 -->
<g id="edge11" class="edge">
<title>Node9&#45;&gt;Node10</title>
<path fill="none" stroke="midnightblue" d="M802.98,-382.1C801.32,-373.14 799.42,-362.86 798.1,-355.75"/>
<polygon fill="midnightblue" stroke="midnightblue" points="799.57,-382.89 804.83,-392.08 806.45,-381.61 799.57,-382.89"/>
</g>
<!-- Node11 -->
<g id="node11" class="node">
<title>Node11</title>
<g id="a_node11"><a xlink:href="classFifoAsync.html" target="_top" xlink:title=" ">
<polygon fill="white" stroke="black" points="452.48,-336.5 452.48,-355.5 516.48,-355.5 516.48,-336.5 452.48,-336.5"/>
<text text-anchor="middle" x="484.48" y="-343.5" font-family="Helvetica,sans-Serif" font-size="10.00">FifoAsync</text>
</a>
</g>
</g>
<!-- Node9&#45;&gt;Node11 -->
<g id="edge20" class="edge">
<title>Node9&#45;&gt;Node11</title>
<path fill="none" stroke="midnightblue" d="M745.31,-390.74C677.27,-379.33 569.94,-361.33 516.68,-352.4"/>
<polygon fill="midnightblue" stroke="midnightblue" points="745.02,-394.24 755.46,-392.44 746.18,-387.34 745.02,-394.24"/>
</g>
<!-- Node18 -->
<g id="node18" class="node">
<title>Node18</title>
<g id="a_node18"><a xlink:href="classFifoSync.html" target="_top" xlink:title=" ">
<polygon fill="white" stroke="black" points="548.48,-336.5 548.48,-355.5 606.48,-355.5 606.48,-336.5 548.48,-336.5"/>
<text text-anchor="middle" x="577.48" y="-343.5" font-family="Helvetica,sans-Serif" font-size="10.00">FifoSync</text>
</a>
</g>
</g>
<!-- Node9&#45;&gt;Node18 -->
<g id="edge25" class="edge">
<title>Node9&#45;&gt;Node18</title>
<path fill="none" stroke="midnightblue" d="M760.21,-390.09C714.33,-379.27 645.46,-363.03 606.69,-353.89"/>
<polygon fill="midnightblue" stroke="midnightblue" points="759.66,-393.55 770.2,-392.44 761.27,-386.74 759.66,-393.55"/>
</g>
<!-- Node10&#45;&gt;Node7 -->
<g id="edge10" class="edge">
<title>Node10&#45;&gt;Node7</title>
<path fill="none" stroke="midnightblue" d="M751.89,-334C703.54,-322.08 628.76,-303.64 595.04,-295.33"/>
<polygon fill="midnightblue" stroke="midnightblue" points="751.23,-337.45 761.78,-336.44 752.91,-330.65 751.23,-337.45"/>
</g>
<!-- Node11&#45;&gt;Node7 -->
<g id="edge12" class="edge">
<title>Node11&#45;&gt;Node7</title>
<path fill="none" stroke="midnightblue" d="M508.29,-331.18C525.4,-321.24 547.95,-308.15 562.58,-299.65"/>
<polygon fill="midnightblue" stroke="midnightblue" points="506.31,-328.28 499.42,-336.32 509.83,-334.33 506.31,-328.28"/>
</g>
<!-- Node12 -->
<g id="node12" class="node">
<title>Node12</title>
<g id="a_node12"><a xlink:href="classRstSync.html" target="_top" xlink:title=" ">
<polygon fill="white" stroke="black" points="205.48,-392.5 205.48,-411.5 261.48,-411.5 261.48,-392.5 205.48,-392.5"/>
<text text-anchor="middle" x="233.48" y="-399.5" font-family="Helvetica,sans-Serif" font-size="10.00">RstSync</text>
</a>
</g>
</g>
<!-- Node12&#45;&gt;Node11 -->
<g id="edge13" class="edge">
<title>Node12&#45;&gt;Node11</title>
<path fill="none" stroke="midnightblue" d="M271.59,-391.8C341.43,-376.06 412.07,-361.56 452.15,-353.47"/>
<polygon fill="midnightblue" stroke="midnightblue" points="270.72,-388.41 261.74,-394.03 272.27,-395.24 270.72,-388.41"/>
</g>
<!-- Node13 -->
<g id="node13" class="node">
<title>Node13</title>
<g id="a_node13"><a xlink:href="classSynchronizer.html" target="_top" xlink:title=" ">
<polygon fill="white" stroke="black" points="193.48,-448.5 193.48,-467.5 273.48,-467.5 273.48,-448.5 193.48,-448.5"/>
<text text-anchor="middle" x="233.48" y="-455.5" font-family="Helvetica,sans-Serif" font-size="10.00">Synchronizer</text>
</a>
</g>
</g>
<!-- Node13&#45;&gt;Node2 -->
<g id="edge26" class="edge">
<title>Node13&#45;&gt;Node2</title>
<path fill="none" stroke="midnightblue" d="M217.77,-441.17C210.43,-433.02 202.08,-422.6 196.48,-412 182.42,-385.39 177.48,-377.1 177.48,-347 177.48,-347 177.48,-347 177.48,-289 177.48,-248.93 152.86,-205.74 141.32,-187.69"/>
<polygon fill="midnightblue" stroke="midnightblue" points="215.25,-443.59 224.65,-448.48 220.35,-438.8 215.25,-443.59"/>
</g>
<!-- Node13&#45;&gt;Node11 -->
<g id="edge16" class="edge">
<title>Node13&#45;&gt;Node11</title>
<path fill="none" stroke="midnightblue" d="M283.74,-448.47C317.39,-441.54 362.02,-429.92 398.48,-412 429.39,-396.81 460.29,-369.88 475.23,-355.93"/>
<polygon fill="midnightblue" stroke="midnightblue" points="282.8,-445.09 273.68,-450.48 284.17,-451.96 282.8,-445.09"/>
</g>
<!-- Node13&#45;&gt;Node12 -->
<g id="edge14" class="edge">
<title>Node13&#45;&gt;Node12</title>
<path fill="none" stroke="midnightblue" d="M233.48,-437.8C233.48,-428.91 233.48,-418.78 233.48,-411.75"/>
<polygon fill="midnightblue" stroke="midnightblue" points="229.98,-438.08 233.48,-448.08 236.98,-438.08 229.98,-438.08"/>
</g>
<!-- Node14 -->
<g id="node14" class="node">
<title>Node14</title>
<g id="a_node14"><a xlink:href="classSynchronizerVector.html" target="_top" xlink:title=" ">
<polygon fill="white" stroke="black" points="279.48,-392.5 279.48,-411.5 389.48,-411.5 389.48,-392.5 279.48,-392.5"/>
<text text-anchor="middle" x="334.48" y="-399.5" font-family="Helvetica,sans-Serif" font-size="10.00">SynchronizerVector</text>
</a>
</g>
</g>
<!-- Node14&#45;&gt;Node11 -->
<g id="edge15" class="edge">
<title>Node14&#45;&gt;Node11</title>
<path fill="none" stroke="midnightblue" d="M367.71,-389.04C395.93,-378.88 435.74,-364.55 460.83,-355.52"/>
<polygon fill="midnightblue" stroke="midnightblue" points="366.47,-385.76 358.25,-392.44 368.84,-392.35 366.47,-385.76"/>
</g>
<!-- Node15 -->
<g id="node15" class="node">
<title>Node15</title>
<g id="a_node15"><a xlink:href="classFifoWrFsm.html" target="_top" xlink:title=" ">
<polygon fill="white" stroke="black" points="445.98,-392.5 445.98,-411.5 514.98,-411.5 514.98,-392.5 445.98,-392.5"/>
<text text-anchor="middle" x="480.48" y="-399.5" font-family="Helvetica,sans-Serif" font-size="10.00">FifoWrFsm</text>
</a>
</g>
</g>
<!-- Node15&#45;&gt;Node11 -->
<g id="edge17" class="edge">
<title>Node15&#45;&gt;Node11</title>
<path fill="none" stroke="midnightblue" d="M481.88,-382.1C482.55,-373.14 483.31,-362.86 483.83,-355.75"/>
<polygon fill="midnightblue" stroke="midnightblue" points="478.39,-381.85 481.14,-392.08 485.37,-382.37 478.39,-381.85"/>
</g>
<!-- Node15&#45;&gt;Node18 -->
<g id="edge22" class="edge">
<title>Node15&#45;&gt;Node18</title>
<path fill="none" stroke="midnightblue" d="M504.82,-387.45C522.72,-377.48 546.54,-364.23 561.94,-355.65"/>
<polygon fill="midnightblue" stroke="midnightblue" points="503.1,-384.4 496.07,-392.32 506.51,-390.52 503.1,-384.4"/>
</g>
<!-- Node16 -->
<g id="node16" class="node">
<title>Node16</title>
<g id="a_node16"><a xlink:href="classFifoRdFsm.html" target="_top" xlink:title=" ">
<polygon fill="white" stroke="black" points="533.48,-392.5 533.48,-411.5 601.48,-411.5 601.48,-392.5 533.48,-392.5"/>
<text text-anchor="middle" x="567.48" y="-399.5" font-family="Helvetica,sans-Serif" font-size="10.00">FifoRdFsm</text>
</a>
</g>
</g>
<!-- Node16&#45;&gt;Node11 -->
<g id="edge18" class="edge">
<title>Node16&#45;&gt;Node11</title>
<path fill="none" stroke="midnightblue" d="M545.38,-386.62C530.22,-376.76 510.6,-363.99 497.78,-355.65"/>
<polygon fill="midnightblue" stroke="midnightblue" points="543.86,-389.8 554.15,-392.32 547.67,-383.94 543.86,-389.8"/>
</g>
<!-- Node16&#45;&gt;Node18 -->
<g id="edge23" class="edge">
<title>Node16&#45;&gt;Node18</title>
<path fill="none" stroke="midnightblue" d="M570.98,-382.1C572.64,-373.14 574.55,-362.86 575.86,-355.75"/>
<polygon fill="midnightblue" stroke="midnightblue" points="567.51,-381.61 569.13,-392.08 574.4,-382.89 567.51,-381.61"/>
</g>
<!-- Node17 -->
<g id="node17" class="node">
<title>Node17</title>
<g id="a_node17"><a xlink:href="classSimpleDualPortRam.html" target="_top" xlink:title=" ">
<polygon fill="white" stroke="black" points="619.98,-392.5 619.98,-411.5 734.98,-411.5 734.98,-392.5 619.98,-392.5"/>
<text text-anchor="middle" x="677.48" y="-399.5" font-family="Helvetica,sans-Serif" font-size="10.00">SimpleDualPortRam</text>
</a>
</g>
</g>
<!-- Node17&#45;&gt;Node11 -->
<g id="edge19" class="edge">
<title>Node17&#45;&gt;Node11</title>
<path fill="none" stroke="midnightblue" d="M637.09,-389.7C600.66,-379.51 547.9,-364.74 514.92,-355.52"/>
<polygon fill="midnightblue" stroke="midnightblue" points="636.33,-393.12 646.9,-392.44 638.21,-386.38 636.33,-393.12"/>
</g>
<!-- Node17&#45;&gt;Node18 -->
<g id="edge24" class="edge">
<title>Node17&#45;&gt;Node18</title>
<path fill="none" stroke="midnightblue" d="M652.39,-387.45C633.93,-377.48 609.39,-364.23 593.51,-355.65"/>
<polygon fill="midnightblue" stroke="midnightblue" points="650.95,-390.65 661.42,-392.32 654.28,-384.49 650.95,-390.65"/>
</g>
<!-- Node18&#45;&gt;Node7 -->
<g id="edge21" class="edge">
<title>Node18&#45;&gt;Node7</title>
<path fill="none" stroke="midnightblue" d="M577.48,-325.8C577.48,-316.91 577.48,-306.78 577.48,-299.75"/>
<polygon fill="midnightblue" stroke="midnightblue" points="573.98,-326.08 577.48,-336.08 580.98,-326.08 573.98,-326.08"/>
</g>
<!-- Node19 -->
<g id="node19" class="node">
<title>Node19</title>
<g id="a_node19"><a xlink:href="classSaltTxResize.html" target="_top" xlink:title=" ">
<polygon fill="white" stroke="black" points="202.48,-168.5 202.48,-187.5 282.48,-187.5 282.48,-168.5 202.48,-168.5"/>
<text text-anchor="middle" x="242.48" y="-175.5" font-family="Helvetica,sans-Serif" font-size="10.00">SaltTxResize</text>
</a>
</g>
</g>
<!-- Node19&#45;&gt;Node1 -->
<g id="edge28" class="edge">
<title>Node19&#45;&gt;Node1</title>
<path fill="none" stroke="midnightblue" d="M226.48,-161C216.91,-151.43 205.12,-139.64 197.23,-131.75"/>
<polygon fill="midnightblue" stroke="midnightblue" points="224.02,-163.49 233.57,-168.08 228.97,-158.54 224.02,-163.49"/>
</g>
<!-- Node21 -->
<g id="node21" class="node">
<title>Node21</title>
<g id="a_node21"><a xlink:href="classSaltCoreTb.html" target="_top" xlink:title=" ">
<polygon fill="white" stroke="black" points="153.48,-0.5 153.48,-19.5 223.48,-19.5 223.48,-0.5 153.48,-0.5"/>
<text text-anchor="middle" x="188.48" y="-7.5" font-family="Helvetica,sans-Serif" font-size="10.00">SaltCoreTb</text>
</a>
</g>
</g>
<!-- Node20&#45;&gt;Node21 -->
<g id="edge30" class="edge">
<title>Node20&#45;&gt;Node21</title>
<path fill="none" stroke="midnightblue" d="M188.48,-45.8C188.48,-36.91 188.48,-26.78 188.48,-19.75"/>
<polygon fill="midnightblue" stroke="midnightblue" points="184.98,-46.08 188.48,-56.08 191.98,-46.08 184.98,-46.08"/>
</g>
</g>
</svg>
        <g id="navigator" transform="translate(0 0)" fill="#404254">
                <rect fill="#f2f5e9" fill-opacity="0.5" stroke="#606060" stroke-width=".5" x="0" y="0" width="60" height="60"/>
                <use id="zoomplus" xlink:href="#zoomPlus" x="17" y="9" onmousedown="handleZoom(evt,'in')"/>
                <use id="zoomminus" xlink:href="#zoomMin" x="42" y="9" onmousedown="handleZoom(evt,'out')"/>
                <use id="reset" xlink:href="#resetDef" x="30" y="36" onmousedown="handleReset()"/>
                <g id="arrowUp" xlink:href="#dirArrow" transform="translate(30 24)" onmousedown="handlePan(0,-1)">
                  <use xlink:href="#rim" fill="#404040">
                        <set attributeName="fill" to="#808080" begin="arrowUp.mouseover" end="arrowUp.mouseout"/>
                  </use>
                  <path fill="none" stroke="white" stroke-width="1.5" d="M0,-3.0v7 M-2.5,-0.5L0,-3.0L2.5,-0.5"/>
                </g>
                <g id="arrowRight" xlink:href="#dirArrow" transform="rotate(90) translate(36 -43)" onmousedown="handlePan(1,0)">
                  <use xlink:href="#rim" fill="#404040">
                        <set attributeName="fill" to="#808080" begin="arrowRight.mouseover" end="arrowRight.mouseout"/>
                  </use>
                  <path fill="none" stroke="white" stroke-width="1.5" d="M0,-3.0v7 M-2.5,-0.5L0,-3.0L2.5,-0.5"/>
                </g>
                <g id="arrowDown" xlink:href="#dirArrow" transform="rotate(180) translate(-30 -48)" onmousedown="handlePan(0,1)">
                  <use xlink:href="#rim" fill="#404040">
                        <set attributeName="fill" to="#808080" begin="arrowDown.mouseover" end="arrowDown.mouseout"/>
                  </use>
                  <path fill="none" stroke="white" stroke-width="1.5" d="M0,-3.0v7 M-2.5,-0.5L0,-3.0L2.5,-0.5"/>
                </g>
                <g id="arrowLeft" xlink:href="#dirArrow" transform="rotate(270) translate(-36 17)" onmousedown="handlePan(-1,0)">
                  <use xlink:href="#rim" fill="#404040">
                        <set attributeName="fill" to="#808080" begin="arrowLeft.mouseover" end="arrowLeft.mouseout"/>
                  </use>
                  <path fill="none" stroke="white" stroke-width="1.5" d="M0,-3.0v7 M-2.5,-0.5L0,-3.0L2.5,-0.5"/>
                </g>
        </g>
        <svg viewBox="0 0 15 15" width="100%" height="30px" preserveAspectRatio="xMaxYMin meet">
         <g id="arrow_out" transform="scale(0.3 0.3)">
          <a xlink:href="classSaltTx__inherit__graph_org.svg" target="_base">
           <rect id="button" ry="5" rx="5" y="6" x="6" height="38" width="38"
                fill="#f2f5e9" fill-opacity="0.5" stroke="#606060" stroke-width="1.0"/>
           <path id="arrow"
             d="M 11.500037,31.436501 C 11.940474,20.09759 22.043105,11.32322 32.158766,21.979434 L 37.068811,17.246167 C 37.068811,17.246167 37.088388,32 37.088388,32 L 22.160133,31.978069 C 22.160133,31.978069 26.997745,27.140456 26.997745,27.140456 C 18.528582,18.264221 13.291696,25.230495 11.500037,31.436501 z"
             style="fill:#404040;"/>
          </a>
         </g>
        </svg>
</svg>
