<?xml version="1.0" encoding="UTF-8" standalone="no"?>
<!DOCTYPE svg PUBLIC "-//W3C//DTD SVG 1.1//EN"
 "http://www.w3.org/Graphics/SVG/1.1/DTD/svg11.dtd">
<!-- Generated by graphviz version 2.43.0 (0)
 -->
<!-- Title: Pgp2fcGtyCoreWrapper Pages: 1 -->
<!--zoomable 267 -->

<svg id="main" version="1.1" xmlns="http://www.w3.org/2000/svg" xmlns:xlink="http://www.w3.org/1999/xlink" xml:space="preserve" onload="init(evt)">
<style type="text/css"><![CDATA[
.node, .edge {opacity: 0.7;}
.node.selected, .edge.selected {opacity: 1;}
.edge:hover path { stroke: red; }
.edge:hover polygon { stroke: red; fill: red; }
]]></style>

<defs>
  <circle id="rim" cx="0" cy="0" r="7"/>
  <circle id="rim2" cx="0" cy="0" r="3.5"/>
  <g id="zoomPlus">
    <use xlink:href="#rim" fill="#404040"><set attributeName="fill" to="#808080" begin="zoomplus.mouseover" end="zoomplus.mouseout"/></use>
    <path d="M-4,0h8M0,-4v8" fill="none" stroke="white" stroke-width="1.5" pointer-events="none"/>
  </g>
  <g id="zoomMin">
    <use xlink:href="#rim" fill="#404040"><set attributeName="fill" to="#808080" begin="zoomminus.mouseover" end="zoomminus.mouseout"/></use>
    <path d="M-4,0h8" fill="none" stroke="white" stroke-width="1.5" pointer-events="none"/>
  </g>
  <g id="arrowUp" transform="translate(30 24)">
    <use xlink:href="#rim"/>
    <path pointer-events="none" fill="none" stroke="white" stroke-width="1.5" d="M0,-3.0v7 M-2.5,-0.5L0,-3.0L2.5,-0.5"/>
  </g>
  <g id="arrowRight" transform="rotate(90) translate(36 -43)">
    <use xlink:href="#rim"/>
    <path pointer-events="none" fill="none" stroke="white" stroke-width="1.5" d="M0,-3.0v7 M-2.5,-0.5L0,-3.0L2.5,-0.5"/>
  </g>
  <g id="arrowDown" transform="rotate(180) translate(-30 -48)">
    <use xlink:href="#rim"/>
    <path pointer-events="none" fill="none" stroke="white" stroke-width="1.5" d="M0,-3.0v7 M-2.5,-0.5L0,-3.0L2.5,-0.5"/>
  </g>
  <g id="arrowLeft" transform="rotate(270) translate(-36 17)">
    <use xlink:href="#rim"/>
    <path pointer-events="none" fill="none" stroke="white" stroke-width="1.5" d="M0,-3.0v7 M-2.5,-0.5L0,-3.0L2.5,-0.5"/>
  </g>
  <g id="resetDef">
    <use xlink:href="#rim2" fill="#404040"><set attributeName="fill" to="#808080" begin="reset.mouseover" end="reset.mouseout"/></use>
  </g>
</defs>
<script type="application/ecmascript">
var viewWidth = 895;
var viewHeight = 267;
var sectionId = 'dynsection-1';
</script>
<script type="application/ecmascript" xlink:href="svg.min.js"/>
<svg id="graph" class="graph">
<g id="viewport">
<title>Pgp2fcGtyCoreWrapper</title>
<!-- Node1 -->
<g id="Node000001" class="node">
<title>Node1</title>
<g id="a_Node000001"><a xlink:title=" ">
<polygon fill="#999999" stroke="#666666" points="887,-222 756,-222 756,-203 887,-203 887,-222"/>
<text text-anchor="middle" x="821.5" y="-210" font-family="Helvetica,sans-Serif" font-size="10.00">Pgp2fcGtyCoreWrapper</text>
</a>
</g>
</g>
<!-- Node2 -->
<g id="Node000002" class="node">
<title>Node2</title>
<g id="a_Node000002"><a xlink:href="classAxiLiteCrossbar.html" target="_top" xlink:title=" ">
<polygon fill="white" stroke="#bfbfbf" points="719,-259 626,-259 626,-240 719,-240 719,-259"/>
<text text-anchor="middle" x="672.5" y="-247" font-family="Helvetica,sans-Serif" font-size="10.00">AxiLiteCrossbar</text>
</a>
</g>
</g>
<!-- Node2&#45;&gt;Node1 -->
<g id="edge1_Node000001_Node000002" class="edge">
<title>Node2&#45;&gt;Node1</title>
<g id="a_edge1_Node000001_Node000002"><a xlink:title=" ">
<path fill="none" stroke="#63b8ff" d="M721.15,-237.51C741.03,-232.5 763.8,-226.77 782.52,-222.06"/>
<polygon fill="#63b8ff" stroke="#63b8ff" points="720.2,-234.14 711.36,-239.97 721.91,-240.92 720.2,-234.14"/>
</a>
</g>
</g>
<!-- Node3 -->
<g id="Node000003" class="node">
<title>Node3</title>
<g id="a_Node000003"><a xlink:href="classGtRxAlignCheck.html" target="_top" xlink:title=" ">
<polygon fill="white" stroke="#bfbfbf" points="720,-185 625,-185 625,-166 720,-166 720,-185"/>
<text text-anchor="middle" x="672.5" y="-173" font-family="Helvetica,sans-Serif" font-size="10.00">GtRxAlignCheck</text>
</a>
</g>
</g>
<!-- Node3&#45;&gt;Node1 -->
<g id="edge2_Node000001_Node000003" class="edge">
<title>Node3&#45;&gt;Node1</title>
<g id="a_edge2_Node000001_Node000003"><a xlink:title=" ">
<path fill="none" stroke="#63b8ff" d="M721.15,-187.49C741.03,-192.5 763.8,-198.23 782.52,-202.94"/>
<polygon fill="#63b8ff" stroke="#63b8ff" points="721.91,-184.08 711.36,-185.03 720.2,-190.86 721.91,-184.08"/>
</a>
</g>
</g>
<!-- Node4 -->
<g id="Node000004" class="node">
<title>Node4</title>
<g id="a_Node000004"><a xlink:href="classSyncClockFreq.html" target="_top" xlink:title=" ">
<polygon fill="white" stroke="#bfbfbf" points="589,-148 501,-148 501,-129 589,-129 589,-148"/>
<text text-anchor="middle" x="545" y="-136" font-family="Helvetica,sans-Serif" font-size="10.00">SyncClockFreq</text>
</a>
</g>
</g>
<!-- Node4&#45;&gt;Node3 -->
<g id="edge3_Node000003_Node000004" class="edge">
<title>Node4&#45;&gt;Node3</title>
<g id="a_edge3_Node000003_Node000004"><a xlink:title=" ">
<path fill="none" stroke="#63b8ff" d="M588.28,-150.96C604.78,-155.83 623.41,-161.32 638.85,-165.88"/>
<polygon fill="#63b8ff" stroke="#63b8ff" points="588.9,-147.5 578.32,-148.03 586.92,-154.21 588.9,-147.5"/>
</a>
</g>
</g>
<!-- Node5 -->
<g id="Node000005" class="node">
<title>Node5</title>
<g id="a_Node000005"><a xlink:href="classSynchronizerFifo.html" target="_top" xlink:title=" ">
<polygon fill="white" stroke="#bfbfbf" points="465,-148 367,-148 367,-129 465,-129 465,-148"/>
<text text-anchor="middle" x="416" y="-136" font-family="Helvetica,sans-Serif" font-size="10.00">SynchronizerFifo</text>
</a>
</g>
</g>
<!-- Node5&#45;&gt;Node4 -->
<g id="edge4_Node000004_Node000005" class="edge">
<title>Node5&#45;&gt;Node4</title>
<g id="a_edge4_Node000004_Node000005"><a xlink:title=" ">
<path fill="none" stroke="#63b8ff" d="M475.11,-138.5C483.8,-138.5 492.62,-138.5 500.93,-138.5"/>
<polygon fill="#63b8ff" stroke="#63b8ff" points="475.01,-135 465.01,-138.5 475.01,-142 475.01,-135"/>
</a>
</g>
</g>
<!-- Node6 -->
<g id="Node000006" class="node">
<title>Node6</title>
<g id="a_Node000006"><a xlink:href="classFifoAsync.html" target="_top" xlink:title=" ">
<polygon fill="white" stroke="#bfbfbf" points="331,-148 267,-148 267,-129 331,-129 331,-148"/>
<text text-anchor="middle" x="299" y="-136" font-family="Helvetica,sans-Serif" font-size="10.00">FifoAsync</text>
</a>
</g>
</g>
<!-- Node6&#45;&gt;Node5 -->
<g id="edge5_Node000005_Node000006" class="edge">
<title>Node6&#45;&gt;Node5</title>
<g id="a_edge5_Node000005_Node000006"><a xlink:title=" ">
<path fill="none" stroke="#63b8ff" d="M341.33,-138.5C349.65,-138.5 358.46,-138.5 366.98,-138.5"/>
<polygon fill="#63b8ff" stroke="#63b8ff" points="341.12,-135 331.12,-138.5 341.12,-142 341.12,-135"/>
</a>
</g>
</g>
<!-- Node16 -->
<g id="Node000016" class="node">
<title>Node16</title>
<g id="a_Node000016"><a xlink:href="classAxiLiteAsync.html" target="_top" xlink:title=" ">
<polygon fill="white" stroke="#bfbfbf" points="456,-223 376,-223 376,-204 456,-204 456,-223"/>
<text text-anchor="middle" x="416" y="-211" font-family="Helvetica,sans-Serif" font-size="10.00">AxiLiteAsync</text>
</a>
</g>
</g>
<!-- Node6&#45;&gt;Node16 -->
<g id="edge18_Node000016_Node000006" class="edge">
<title>Node6&#45;&gt;Node16</title>
<g id="a_edge18_Node000016_Node000006"><a xlink:title=" ">
<path fill="none" stroke="#63b8ff" d="M323.55,-153.86C346.58,-168.88 380.94,-191.29 400.33,-203.93"/>
<polygon fill="#63b8ff" stroke="#63b8ff" points="325.32,-150.84 315.03,-148.3 321.5,-156.7 325.32,-150.84"/>
</a>
</g>
</g>
<!-- Node7 -->
<g id="Node000007" class="node">
<title>Node7</title>
<g id="a_Node000007"><a xlink:href="classRstSync.html" target="_top" xlink:title=" ">
<polygon fill="white" stroke="#bfbfbf" points="201.5,-243 145.5,-243 145.5,-224 201.5,-224 201.5,-243"/>
<text text-anchor="middle" x="173.5" y="-231" font-family="Helvetica,sans-Serif" font-size="10.00">RstSync</text>
</a>
</g>
</g>
<!-- Node7&#45;&gt;Node6 -->
<g id="edge6_Node000006_Node000007" class="edge">
<title>Node7&#45;&gt;Node6</title>
<g id="a_edge6_Node000006_Node000007"><a xlink:title=" ">
<path fill="none" stroke="#63b8ff" d="M210.9,-220.67C217.85,-217.5 224.87,-213.77 231,-209.5 256.32,-191.88 279.5,-163.43 290.79,-148.45"/>
<polygon fill="#63b8ff" stroke="#63b8ff" points="209.39,-217.51 201.55,-224.64 212.13,-223.95 209.39,-217.51"/>
</a>
</g>
</g>
<!-- Node7&#45;&gt;Node16 -->
<g id="edge17_Node000016_Node000007" class="edge">
<title>Node7&#45;&gt;Node16</title>
<g id="a_edge17_Node000016_Node000007"><a xlink:title=" ">
<path fill="none" stroke="#63b8ff" d="M211.72,-230.41C256.19,-226.71 330.27,-220.55 375.66,-216.77"/>
<polygon fill="#63b8ff" stroke="#63b8ff" points="211.3,-226.93 201.62,-231.24 211.88,-233.9 211.3,-226.93"/>
</a>
</g>
</g>
<!-- Node8 -->
<g id="Node000008" class="node">
<title>Node8</title>
<g id="a_Node000008"><a xlink:href="classSynchronizer.html" target="_top" xlink:title=" ">
<polygon fill="white" stroke="#bfbfbf" points="80,-224 0,-224 0,-205 80,-205 80,-224"/>
<text text-anchor="middle" x="40" y="-212" font-family="Helvetica,sans-Serif" font-size="10.00">Synchronizer</text>
</a>
</g>
</g>
<!-- Node8&#45;&gt;Node6 -->
<g id="edge9_Node000006_Node000008" class="edge">
<title>Node8&#45;&gt;Node6</title>
<g id="a_edge9_Node000006_Node000008"><a xlink:title=" ">
<path fill="none" stroke="#63b8ff" d="M90.21,-208.56C129.25,-202.87 184.74,-192.57 231,-175.5 250.2,-168.42 270.54,-156.47 283.71,-148.07"/>
<polygon fill="#63b8ff" stroke="#63b8ff" points="89.57,-205.12 80.16,-209.98 90.55,-212.05 89.57,-205.12"/>
</a>
</g>
</g>
<!-- Node8&#45;&gt;Node7 -->
<g id="edge7_Node000007_Node000008" class="edge">
<title>Node8&#45;&gt;Node7</title>
<g id="a_edge7_Node000007_Node000008"><a xlink:title=" ">
<path fill="none" stroke="#63b8ff" d="M90.24,-221.62C108.93,-224.32 129.52,-227.29 145.43,-229.59"/>
<polygon fill="#63b8ff" stroke="#63b8ff" points="90.5,-218.12 80.1,-220.15 89.49,-225.04 90.5,-218.12"/>
</a>
</g>
</g>
<!-- Node9 -->
<g id="Node000009" class="node">
<title>Node9</title>
<g id="a_Node000009"><a xlink:href="classSynchronizerVector.html" target="_top" xlink:title=" ">
<polygon fill="white" stroke="#bfbfbf" points="228.5,-167 118.5,-167 118.5,-148 228.5,-148 228.5,-167"/>
<text text-anchor="middle" x="173.5" y="-155" font-family="Helvetica,sans-Serif" font-size="10.00">SynchronizerVector</text>
</a>
</g>
</g>
<!-- Node9&#45;&gt;Node6 -->
<g id="edge8_Node000006_Node000009" class="edge">
<title>Node9&#45;&gt;Node6</title>
<g id="a_edge8_Node000006_Node000009"><a xlink:title=" ">
<path fill="none" stroke="#63b8ff" d="M238.85,-147.6C248.62,-146.1 258.31,-144.61 266.93,-143.28"/>
<polygon fill="#63b8ff" stroke="#63b8ff" points="238.02,-144.19 228.67,-149.17 239.08,-151.1 238.02,-144.19"/>
</a>
</g>
</g>
<!-- Node10 -->
<g id="Node000010" class="node">
<title>Node10</title>
<g id="a_Node000010"><a xlink:href="classFifoWrFsm.html" target="_top" xlink:title=" ">
<polygon fill="white" stroke="#bfbfbf" points="208,-130 139,-130 139,-111 208,-111 208,-130"/>
<text text-anchor="middle" x="173.5" y="-118" font-family="Helvetica,sans-Serif" font-size="10.00">FifoWrFsm</text>
</a>
</g>
</g>
<!-- Node10&#45;&gt;Node6 -->
<g id="edge10_Node000006_Node000010" class="edge">
<title>Node10&#45;&gt;Node6</title>
<g id="a_edge10_Node000006_Node000010"><a xlink:title=" ">
<path fill="none" stroke="#63b8ff" d="M218.45,-126.91C234.45,-129.24 252.18,-131.82 266.84,-133.96"/>
<polygon fill="#63b8ff" stroke="#63b8ff" points="218.65,-123.4 208.25,-125.42 217.64,-130.32 218.65,-123.4"/>
</a>
</g>
</g>
<!-- Node11 -->
<g id="Node000011" class="node">
<title>Node11</title>
<g id="a_Node000011"><a xlink:href="classFifoRdFsm.html" target="_top" xlink:title=" ">
<polygon fill="white" stroke="#bfbfbf" points="207.5,-93 139.5,-93 139.5,-74 207.5,-74 207.5,-93"/>
<text text-anchor="middle" x="173.5" y="-81" font-family="Helvetica,sans-Serif" font-size="10.00">FifoRdFsm</text>
</a>
</g>
</g>
<!-- Node11&#45;&gt;Node6 -->
<g id="edge11_Node000006_Node000011" class="edge">
<title>Node11&#45;&gt;Node6</title>
<g id="a_edge11_Node000006_Node000011"><a xlink:title=" ">
<path fill="none" stroke="#63b8ff" d="M217.31,-96.15C221.98,-97.82 226.62,-99.61 231,-101.5 249.43,-109.43 269.43,-120.88 282.73,-128.94"/>
<polygon fill="#63b8ff" stroke="#63b8ff" points="218.36,-92.81 207.76,-92.9 216.1,-99.44 218.36,-92.81"/>
</a>
</g>
</g>
<!-- Node12 -->
<g id="Node000012" class="node">
<title>Node12</title>
<g id="a_Node000012"><a xlink:href="classSimpleDualPortRam.html" target="_top" xlink:title=" ">
<polygon fill="white" stroke="#bfbfbf" points="231,-56 116,-56 116,-37 231,-37 231,-56"/>
<text text-anchor="middle" x="173.5" y="-44" font-family="Helvetica,sans-Serif" font-size="10.00">SimpleDualPortRam</text>
</a>
</g>
</g>
<!-- Node12&#45;&gt;Node6 -->
<g id="edge12_Node000006_Node000012" class="edge">
<title>Node12&#45;&gt;Node6</title>
<g id="a_edge12_Node000006_Node000012"><a xlink:title=" ">
<path fill="none" stroke="#63b8ff" d="M222.91,-59.97C225.72,-61.35 228.44,-62.85 231,-64.5 258.11,-81.94 281.19,-113.1 291.79,-128.84"/>
<polygon fill="#63b8ff" stroke="#63b8ff" points="224.28,-56.75 213.71,-56.01 221.51,-63.18 224.28,-56.75"/>
</a>
</g>
</g>
<!-- Node13 -->
<g id="Node000013" class="node">
<title>Node13</title>
<g id="a_Node000013"><a xlink:href="classFifoOutputPipeline.html" target="_top" xlink:title=" ">
<polygon fill="white" stroke="#bfbfbf" points="227,-19 120,-19 120,0 227,0 227,-19"/>
<text text-anchor="middle" x="173.5" y="-7" font-family="Helvetica,sans-Serif" font-size="10.00">FifoOutputPipeline</text>
</a>
</g>
</g>
<!-- Node13&#45;&gt;Node6 -->
<g id="edge13_Node000006_Node000013" class="edge">
<title>Node13&#45;&gt;Node6</title>
<g id="a_edge13_Node000006_Node000013"><a xlink:title=" ">
<path fill="none" stroke="#63b8ff" d="M225.38,-23.62C227.34,-24.81 229.23,-26.1 231,-27.5 266.34,-55.39 287.35,-107.45 294.86,-128.89"/>
<polygon fill="#63b8ff" stroke="#63b8ff" points="226.86,-20.44 216.37,-19 223.67,-26.68 226.86,-20.44"/>
</a>
</g>
</g>
<!-- Node14 -->
<g id="Node000014" class="node">
<title>Node14</title>
<g id="a_Node000014"><a xlink:href="classAxiLiteMaster.html" target="_top" xlink:title=" ">
<polygon fill="white" stroke="#bfbfbf" points="587,-185 503,-185 503,-166 587,-166 587,-185"/>
<text text-anchor="middle" x="545" y="-173" font-family="Helvetica,sans-Serif" font-size="10.00">AxiLiteMaster</text>
</a>
</g>
</g>
<!-- Node14&#45;&gt;Node3 -->
<g id="edge14_Node000003_Node000014" class="edge">
<title>Node14&#45;&gt;Node3</title>
<g id="a_edge14_Node000003_Node000014"><a xlink:title=" ">
<path fill="none" stroke="#63b8ff" d="M597.17,-175.5C606.26,-175.5 615.69,-175.5 624.66,-175.5"/>
<polygon fill="#63b8ff" stroke="#63b8ff" points="597.09,-172 587.09,-175.5 597.09,-179 597.09,-172"/>
</a>
</g>
</g>
<!-- Node15 -->
<g id="Node000015" class="node">
<title>Node15</title>
<g id="a_Node000015"><a xlink:href="classAxiLiteToDrp.html" target="_top" xlink:title=" ">
<polygon fill="white" stroke="#bfbfbf" points="711.5,-222 633.5,-222 633.5,-203 711.5,-203 711.5,-222"/>
<text text-anchor="middle" x="672.5" y="-210" font-family="Helvetica,sans-Serif" font-size="10.00">AxiLiteToDrp</text>
</a>
</g>
</g>
<!-- Node15&#45;&gt;Node1 -->
<g id="edge15_Node000001_Node000015" class="edge">
<title>Node15&#45;&gt;Node1</title>
<g id="a_edge15_Node000001_Node000015"><a xlink:title=" ">
<path fill="none" stroke="#63b8ff" d="M721.9,-212.5C732.8,-212.5 744.54,-212.5 755.98,-212.5"/>
<polygon fill="#63b8ff" stroke="#63b8ff" points="721.74,-209 711.74,-212.5 721.74,-216 721.74,-209"/>
</a>
</g>
</g>
<!-- Node16&#45;&gt;Node15 -->
<g id="edge16_Node000015_Node000016" class="edge">
<title>Node16&#45;&gt;Node15</title>
<g id="a_edge16_Node000015_Node000016"><a xlink:title=" ">
<path fill="none" stroke="#63b8ff" d="M466.24,-213.31C515.11,-213.11 588.98,-212.82 633.5,-212.65"/>
<polygon fill="#63b8ff" stroke="#63b8ff" points="466.19,-209.81 456.21,-213.35 466.22,-216.81 466.19,-209.81"/>
</a>
</g>
</g>
</g>
</svg>

<g id="navigator" transform="translate(0 0)" fill="#404254">
  <rect fill="#f2f5e9" fill-opacity="0.5" stroke="#606060" stroke-width=".5" x="0" y="0" width="60" height="60"/>
  <use id="zoomplus" xlink:href="#zoomPlus" x="17" y="9" onmousedown="handleZoom(evt,'in')"/>
  <use id="zoomminus" xlink:href="#zoomMin" x="42" y="9" onmousedown="handleZoom(evt,'out')"/>
  <use id="reset" xlink:href="#resetDef" x="30" y="36" onmousedown="handleReset()"/>
   <use id="arrowup" xlink:href="#arrowUp" x="0" y="0" onmousedown="handlePan(0,-1)"/>
  <use id="arrowright" xlink:href="#arrowRight" x="0" y="0" onmousedown="handlePan(1,0)"/>
  <use id="arrowdown" xlink:href="#arrowDown" x="0" y="0" onmousedown="handlePan(0,1)"/>
  <use id="arrowleft" xlink:href="#arrowLeft" x="0" y="0" onmousedown="handlePan(-1,0)"/>
</g>
<svg viewBox="0 0 15 15" width="100%" height="30px" preserveAspectRatio="xMaxYMin meet">
 <g id="arrow_out" transform="scale(0.3 0.3)">
  <a xlink:href="classPgp2fcGtyCoreWrapper__coll__graph_org.svg" target="_base">
   <rect id="button" ry="5" rx="5" y="6" x="6" height="38" width="38"
        fill="#f2f5e9" fill-opacity="0.5" stroke="#606060" stroke-width="1.0"/>
   <path id="arrow"
     d="M 11.500037,31.436501 C 11.940474,20.09759 22.043105,11.32322 32.158766,21.979434 L 37.068811,17.246167 C 37.068811,17.246167 37.088388,32 37.088388,32 L 22.160133,31.978069 C 22.160133,31.978069 26.997745,27.140456 26.997745,27.140456 C 18.528582,18.264221 13.291696,25.230495 11.500037,31.436501 z"
     style="fill:#404040;"/>
  </a>
 </g>
</svg>

<style type='text/css'>
<![CDATA[
[data-mouse-over-selected='false'] { opacity: 0.7; }
[data-mouse-over-selected='true']  { opacity: 1.0; }
]]>
</style>
<script type="application/ecmascript"><![CDATA[
document.addEventListener('DOMContentLoaded', (event) => {
  highlightEdges();
  highlightAdjacentNodes();
});
]]></script>
</svg>
