<?xml version="1.0" encoding="UTF-8" standalone="no"?>
<!DOCTYPE svg PUBLIC "-//W3C//DTD SVG 1.1//EN"
 "http://www.w3.org/Graphics/SVG/1.1/DTD/svg11.dtd">
<!-- Generated by graphviz version 2.43.0 (0)
 -->
<!-- Title: SspFramer Pages: 1 -->
<svg width="464pt" height="218pt"
 viewBox="0.00 0.00 464.00 218.00" xmlns="http://www.w3.org/2000/svg" xmlns:xlink="http://www.w3.org/1999/xlink">
<g id="graph0" class="graph" transform="scale(1 1) rotate(0) translate(4 214)">
<title>SspFramer</title>
<polygon fill="white" stroke="transparent" points="-4,4 -4,-214 460,-214 460,4 -4,4"/>
<!-- Node1 -->
<g id="node1" class="node">
<title>Node1</title>
<g id="a_node1"><a xlink:title=" ">
<polygon fill="#bfbfbf" stroke="black" points="0,-152.5 0,-171.5 68,-171.5 68,-152.5 0,-152.5"/>
<text text-anchor="middle" x="34" y="-159.5" font-family="Helvetica,sans-Serif" font-size="10.00">SspFramer</text>
</a>
</g>
</g>
<!-- Node2 -->
<g id="node2" class="node">
<title>Node2</title>
<g id="a_node2"><a xlink:href="classSspEncoder10b12b.html" target="_top" xlink:title=" ">
<polygon fill="white" stroke="black" points="104,-190.5 104,-209.5 213,-209.5 213,-190.5 104,-190.5"/>
<text text-anchor="middle" x="158.5" y="-197.5" font-family="Helvetica,sans-Serif" font-size="10.00">SspEncoder10b12b</text>
</a>
</g>
</g>
<!-- Node1&#45;&gt;Node2 -->
<g id="edge1" class="edge">
<title>Node1&#45;&gt;Node2</title>
<path fill="none" stroke="midnightblue" d="M75.88,-174.68C92.43,-179.81 111.22,-185.64 126.6,-190.41"/>
<polygon fill="midnightblue" stroke="midnightblue" points="76.5,-171.21 65.91,-171.59 74.43,-177.89 76.5,-171.21"/>
</g>
<!-- Node4 -->
<g id="node4" class="node">
<title>Node4</title>
<g id="a_node4"><a xlink:href="classSspEncoder12b14b.html" target="_top" xlink:title=" ">
<polygon fill="white" stroke="black" points="104,-152.5 104,-171.5 213,-171.5 213,-152.5 104,-152.5"/>
<text text-anchor="middle" x="158.5" y="-159.5" font-family="Helvetica,sans-Serif" font-size="10.00">SspEncoder12b14b</text>
</a>
</g>
</g>
<!-- Node1&#45;&gt;Node4 -->
<g id="edge3" class="edge">
<title>Node1&#45;&gt;Node4</title>
<path fill="none" stroke="midnightblue" d="M78.22,-162C86.41,-162 95.07,-162 103.54,-162"/>
<polygon fill="midnightblue" stroke="midnightblue" points="78.15,-158.5 68.15,-162 78.15,-165.5 78.15,-158.5"/>
</g>
<!-- Node6 -->
<g id="node6" class="node">
<title>Node6</title>
<g id="a_node6"><a xlink:href="classSspEncoder8b10b.html" target="_top" xlink:title=" ">
<polygon fill="white" stroke="black" points="107,-76.5 107,-95.5 210,-95.5 210,-76.5 107,-76.5"/>
<text text-anchor="middle" x="158.5" y="-83.5" font-family="Helvetica,sans-Serif" font-size="10.00">SspEncoder8b10b</text>
</a>
</g>
</g>
<!-- Node1&#45;&gt;Node6 -->
<g id="edge5" class="edge">
<title>Node1&#45;&gt;Node6</title>
<path fill="none" stroke="midnightblue" d="M59.27,-146.94C83.9,-131.66 121.28,-108.47 142.11,-95.55"/>
<polygon fill="midnightblue" stroke="midnightblue" points="57.17,-144.13 50.51,-152.37 60.86,-150.08 57.17,-144.13"/>
</g>
<!-- Node3 -->
<g id="node3" class="node">
<title>Node3</title>
<g id="a_node3"><a xlink:href="classSsp10b12bTb.html" target="_top" xlink:title=" ">
<polygon fill="white" stroke="black" points="311.5,-190.5 311.5,-209.5 393.5,-209.5 393.5,-190.5 311.5,-190.5"/>
<text text-anchor="middle" x="352.5" y="-197.5" font-family="Helvetica,sans-Serif" font-size="10.00">Ssp10b12bTb</text>
</a>
</g>
</g>
<!-- Node2&#45;&gt;Node3 -->
<g id="edge2" class="edge">
<title>Node2&#45;&gt;Node3</title>
<path fill="none" stroke="midnightblue" d="M223.29,-200C252.3,-200 285.74,-200 311.2,-200"/>
<polygon fill="midnightblue" stroke="midnightblue" points="223.24,-196.5 213.24,-200 223.24,-203.5 223.24,-196.5"/>
</g>
<!-- Node5 -->
<g id="node5" class="node">
<title>Node5</title>
<g id="a_node5"><a xlink:href="classSsp12b14bTb.html" target="_top" xlink:title=" ">
<polygon fill="white" stroke="black" points="311.5,-152.5 311.5,-171.5 393.5,-171.5 393.5,-152.5 311.5,-152.5"/>
<text text-anchor="middle" x="352.5" y="-159.5" font-family="Helvetica,sans-Serif" font-size="10.00">Ssp12b14bTb</text>
</a>
</g>
</g>
<!-- Node4&#45;&gt;Node5 -->
<g id="edge4" class="edge">
<title>Node4&#45;&gt;Node5</title>
<path fill="none" stroke="midnightblue" d="M223.29,-162C252.3,-162 285.74,-162 311.2,-162"/>
<polygon fill="midnightblue" stroke="midnightblue" points="223.24,-158.5 213.24,-162 223.24,-165.5 223.24,-158.5"/>
</g>
<!-- Node7 -->
<g id="node7" class="node">
<title>Node7</title>
<g id="a_node7"><a xlink:href="classSelectioDeserUltraScaleTb.html" target="_top" xlink:title=" ">
<polygon fill="white" stroke="black" points="279.5,-114.5 279.5,-133.5 425.5,-133.5 425.5,-114.5 279.5,-114.5"/>
<text text-anchor="middle" x="352.5" y="-121.5" font-family="Helvetica,sans-Serif" font-size="10.00">SelectioDeserUltraScaleTb</text>
</a>
</g>
</g>
<!-- Node6&#45;&gt;Node7 -->
<g id="edge6" class="edge">
<title>Node6&#45;&gt;Node7</title>
<path fill="none" stroke="midnightblue" d="M213.29,-97.65C225.05,-100.14 237.43,-102.7 249,-105 265.15,-108.21 282.77,-111.54 298.78,-114.5"/>
<polygon fill="midnightblue" stroke="midnightblue" points="213.66,-94.16 203.15,-95.5 212.21,-101 213.66,-94.16"/>
</g>
<!-- Node8 -->
<g id="node8" class="node">
<title>Node8</title>
<g id="a_node8"><a xlink:href="classSspDecoder8b10bTb.html" target="_top" xlink:title=" ">
<polygon fill="white" stroke="black" points="294.5,-76.5 294.5,-95.5 410.5,-95.5 410.5,-76.5 294.5,-76.5"/>
<text text-anchor="middle" x="352.5" y="-83.5" font-family="Helvetica,sans-Serif" font-size="10.00">SspDecoder8b10bTb</text>
</a>
</g>
</g>
<!-- Node6&#45;&gt;Node8 -->
<g id="edge7" class="edge">
<title>Node6&#45;&gt;Node8</title>
<path fill="none" stroke="midnightblue" d="M220.47,-86C244.15,-86 271.12,-86 294.41,-86"/>
<polygon fill="midnightblue" stroke="midnightblue" points="220.2,-82.5 210.2,-86 220.2,-89.5 220.2,-82.5"/>
</g>
<!-- Node9 -->
<g id="node9" class="node">
<title>Node9</title>
<g id="a_node9"><a xlink:href="classSspEncoder8b10bTb.html" target="_top" xlink:title=" ">
<polygon fill="white" stroke="black" points="295,-38.5 295,-57.5 410,-57.5 410,-38.5 295,-38.5"/>
<text text-anchor="middle" x="352.5" y="-45.5" font-family="Helvetica,sans-Serif" font-size="10.00">SspEncoder8b10bTb</text>
</a>
</g>
</g>
<!-- Node6&#45;&gt;Node9 -->
<g id="edge8" class="edge">
<title>Node6&#45;&gt;Node9</title>
<path fill="none" stroke="midnightblue" d="M213.29,-74.35C225.05,-71.86 237.43,-69.3 249,-67 265.15,-63.79 282.77,-60.46 298.78,-57.5"/>
<polygon fill="midnightblue" stroke="midnightblue" points="212.21,-71 203.15,-76.5 213.66,-77.84 212.21,-71"/>
</g>
<!-- Node10 -->
<g id="node10" class="node">
<title>Node10</title>
<g id="a_node10"><a xlink:href="classSspLowSpeedDecoder8b10bWrapperTb.html" target="_top" xlink:title=" ">
<polygon fill="white" stroke="black" points="249,-0.5 249,-19.5 456,-19.5 456,-0.5 249,-0.5"/>
<text text-anchor="middle" x="352.5" y="-7.5" font-family="Helvetica,sans-Serif" font-size="10.00">SspLowSpeedDecoder8b10bWrapperTb</text>
</a>
</g>
</g>
<!-- Node6&#45;&gt;Node10 -->
<g id="edge9" class="edge">
<title>Node6&#45;&gt;Node10</title>
<path fill="none" stroke="midnightblue" d="M179.35,-70.17C196.73,-57.13 223.16,-39.17 249,-29 258.85,-25.12 269.55,-22.02 280.2,-19.55"/>
<polygon fill="midnightblue" stroke="midnightblue" points="176.94,-67.61 171.14,-76.48 181.2,-73.16 176.94,-67.61"/>
</g>
</g>
</svg>
