<?xml version="1.0" encoding="UTF-8" standalone="no"?>
<!DOCTYPE svg PUBLIC "-//W3C//DTD SVG 1.1//EN"
 "http://www.w3.org/Graphics/SVG/1.1/DTD/svg11.dtd">
<!-- Generated by graphviz version 2.43.0 (0)
 -->
<!-- Title: SspEncoder8b10b Pages: 1 -->
<svg width="476pt" height="142pt"
 viewBox="0.00 0.00 476.00 142.00" xmlns="http://www.w3.org/2000/svg" xmlns:xlink="http://www.w3.org/1999/xlink">
<g id="graph0" class="graph" transform="scale(1 1) rotate(0) translate(4 138)">
<title>SspEncoder8b10b</title>
<polygon fill="white" stroke="transparent" points="-4,4 -4,-138 472,-138 472,4 -4,4"/>
<!-- Node1 -->
<g id="node1" class="node">
<title>Node1</title>
<g id="a_node1"><a xlink:title=" ">
<polygon fill="#bfbfbf" stroke="black" points="122,-57.5 122,-76.5 225,-76.5 225,-57.5 122,-57.5"/>
<text text-anchor="middle" x="173.5" y="-64.5" font-family="Helvetica,sans-Serif" font-size="10.00">SspEncoder8b10b</text>
</a>
</g>
</g>
<!-- Node4 -->
<g id="node4" class="node">
<title>Node4</title>
<g id="a_node4"><a xlink:href="classSspDecoder8b10bTb.html" target="_top" xlink:title=" ">
<polygon fill="white" stroke="black" points="306.5,-114.5 306.5,-133.5 422.5,-133.5 422.5,-114.5 306.5,-114.5"/>
<text text-anchor="middle" x="364.5" y="-121.5" font-family="Helvetica,sans-Serif" font-size="10.00">SspDecoder8b10bTb</text>
</a>
</g>
</g>
<!-- Node1&#45;&gt;Node4 -->
<g id="edge3" class="edge">
<title>Node1&#45;&gt;Node4</title>
<path fill="none" stroke="midnightblue" d="M202.09,-81.08C218.78,-89.09 240.69,-98.75 261,-105 275.44,-109.45 291.37,-113.01 306.27,-115.8"/>
<polygon fill="midnightblue" stroke="midnightblue" points="203.44,-77.84 192.92,-76.58 200.36,-84.13 203.44,-77.84"/>
</g>
<!-- Node5 -->
<g id="node5" class="node">
<title>Node5</title>
<g id="a_node5"><a xlink:href="classSspEncoder8b10bTb.html" target="_top" xlink:title=" ">
<polygon fill="white" stroke="black" points="307,-76.5 307,-95.5 422,-95.5 422,-76.5 307,-76.5"/>
<text text-anchor="middle" x="364.5" y="-83.5" font-family="Helvetica,sans-Serif" font-size="10.00">SspEncoder8b10bTb</text>
</a>
</g>
</g>
<!-- Node1&#45;&gt;Node5 -->
<g id="edge4" class="edge">
<title>Node1&#45;&gt;Node5</title>
<path fill="none" stroke="midnightblue" d="M235.12,-73.09C258.08,-75.4 284.11,-78.02 306.71,-80.29"/>
<polygon fill="midnightblue" stroke="midnightblue" points="235.45,-69.61 225.15,-72.09 234.75,-76.57 235.45,-69.61"/>
</g>
<!-- Node6 -->
<g id="node6" class="node">
<title>Node6</title>
<g id="a_node6"><a xlink:href="classSspLowSpeedDecoder8b10bWrapperTb.html" target="_top" xlink:title=" ">
<polygon fill="white" stroke="black" points="261,-38.5 261,-57.5 468,-57.5 468,-38.5 261,-38.5"/>
<text text-anchor="middle" x="364.5" y="-45.5" font-family="Helvetica,sans-Serif" font-size="10.00">SspLowSpeedDecoder8b10bWrapperTb</text>
</a>
</g>
</g>
<!-- Node1&#45;&gt;Node6 -->
<g id="edge5" class="edge">
<title>Node1&#45;&gt;Node6</title>
<path fill="none" stroke="midnightblue" d="M235.25,-60.89C246.02,-59.81 257.47,-58.66 268.92,-57.51"/>
<polygon fill="midnightblue" stroke="midnightblue" points="234.75,-57.43 225.15,-61.91 235.45,-64.39 234.75,-57.43"/>
</g>
<!-- Node7 -->
<g id="node7" class="node">
<title>Node7</title>
<g id="a_node7"><a xlink:href="classSelectioDeserUltraScaleTb.html" target="_top" xlink:title=" ">
<polygon fill="white" stroke="black" points="291.5,-0.5 291.5,-19.5 437.5,-19.5 437.5,-0.5 291.5,-0.5"/>
<text text-anchor="middle" x="364.5" y="-7.5" font-family="Helvetica,sans-Serif" font-size="10.00">SelectioDeserUltraScaleTb</text>
</a>
</g>
</g>
<!-- Node1&#45;&gt;Node7 -->
<g id="edge6" class="edge">
<title>Node1&#45;&gt;Node7</title>
<path fill="none" stroke="midnightblue" d="M202.09,-52.92C218.78,-44.91 240.69,-35.25 261,-29 273.28,-25.22 286.63,-22.07 299.52,-19.5"/>
<polygon fill="midnightblue" stroke="midnightblue" points="200.36,-49.87 192.92,-57.42 203.44,-56.16 200.36,-49.87"/>
</g>
<!-- Node2 -->
<g id="node2" class="node">
<title>Node2</title>
<g id="a_node2"><a xlink:href="classSspFramer.html" target="_top" xlink:title=" ">
<polygon fill="white" stroke="black" points="9,-76.5 9,-95.5 77,-95.5 77,-76.5 9,-76.5"/>
<text text-anchor="middle" x="43" y="-83.5" font-family="Helvetica,sans-Serif" font-size="10.00">SspFramer</text>
</a>
</g>
</g>
<!-- Node2&#45;&gt;Node1 -->
<g id="edge1" class="edge">
<title>Node2&#45;&gt;Node1</title>
<path fill="none" stroke="midnightblue" d="M87.3,-79.6C98.3,-77.97 110.22,-76.21 121.55,-74.53"/>
<polygon fill="midnightblue" stroke="midnightblue" points="86.47,-76.18 77.09,-81.11 87.5,-83.11 86.47,-76.18"/>
</g>
<!-- Node3 -->
<g id="node3" class="node">
<title>Node3</title>
<g id="a_node3"><a xlink:href="classEncoder8b10b.html" target="_top" xlink:title=" ">
<polygon fill="white" stroke="black" points="0,-38.5 0,-57.5 86,-57.5 86,-38.5 0,-38.5"/>
<text text-anchor="middle" x="43" y="-45.5" font-family="Helvetica,sans-Serif" font-size="10.00">Encoder8b10b</text>
</a>
</g>
</g>
<!-- Node3&#45;&gt;Node1 -->
<g id="edge2" class="edge">
<title>Node3&#45;&gt;Node1</title>
<path fill="none" stroke="midnightblue" d="M96.2,-55.72C104.66,-56.97 113.4,-58.26 121.82,-59.51"/>
<polygon fill="midnightblue" stroke="midnightblue" points="96.48,-52.22 86.08,-54.22 95.46,-59.15 96.48,-52.22"/>
</g>
</g>
</svg>
