<?xml version="1.0" encoding="UTF-8" standalone="no"?>
<!DOCTYPE svg PUBLIC "-//W3C//DTD SVG 1.1//EN"
 "http://www.w3.org/Graphics/SVG/1.1/DTD/svg11.dtd">
<!-- Generated by graphviz version 2.43.0 (0)
 -->
<!-- Title: RssiCoreWrapper Pages: 1 -->
<svg width="1347pt" height="806pt"
 viewBox="0.00 0.00 1347.00 806.38" xmlns="http://www.w3.org/2000/svg" xmlns:xlink="http://www.w3.org/1999/xlink">
<g id="graph0" class="graph" transform="scale(1 1) rotate(0) translate(4 802.38)">
<title>RssiCoreWrapper</title>
<polygon fill="white" stroke="transparent" points="-4,4 -4,-802.38 1343,-802.38 1343,4 -4,4"/>
<!-- Node1 -->
<g id="node1" class="node">
<title>Node1</title>
<g id="a_node1"><a xlink:title=" ">
<polygon fill="#bfbfbf" stroke="black" points="1238,-171.5 1238,-190.5 1339,-190.5 1339,-171.5 1238,-171.5"/>
<text text-anchor="middle" x="1288.5" y="-178.5" font-family="Helvetica,sans-Serif" font-size="10.00">RssiCoreWrapper</text>
</a>
</g>
</g>
<!-- Node2 -->
<g id="node2" class="node">
<title>Node2</title>
<g id="a_node2"><a xlink:href="classAxiStreamResize.html" target="_top" xlink:title=" ">
<polygon fill="white" stroke="black" points="887.5,-228.5 887.5,-247.5 1000.5,-247.5 1000.5,-228.5 887.5,-228.5"/>
<text text-anchor="middle" x="944" y="-235.5" font-family="Helvetica,sans-Serif" font-size="10.00">AxiStreamResize(2)</text>
</a>
</g>
</g>
<!-- Node2&#45;&gt;Node1 -->
<g id="edge1" class="edge">
<title>Node2&#45;&gt;Node1</title>
<path fill="none" stroke="midnightblue" d="M1010.71,-239.31C1063.23,-238.89 1138.33,-234.99 1202,-219 1227.05,-212.71 1253.97,-199.57 1270.77,-190.52"/>
<polygon fill="midnightblue" stroke="midnightblue" points="1010.5,-235.81 1000.52,-239.35 1010.53,-242.81 1010.5,-235.81"/>
</g>
<!-- Node13 -->
<g id="node13" class="node">
<title>Node13</title>
<g id="a_node13"><a xlink:href="classRssiCore.html" target="_top" xlink:title=" ">
<polygon fill="white" stroke="black" points="1104,-456.5 1104,-475.5 1163,-475.5 1163,-456.5 1104,-456.5"/>
<text text-anchor="middle" x="1133.5" y="-463.5" font-family="Helvetica,sans-Serif" font-size="10.00">RssiCore</text>
</a>
</g>
</g>
<!-- Node2&#45;&gt;Node13 -->
<g id="edge27" class="edge">
<title>Node2&#45;&gt;Node13</title>
<path fill="none" stroke="midnightblue" d="M972.91,-252.79C990.44,-263.02 1012.72,-277.85 1029,-295 1078.94,-347.6 1116.32,-428.29 1128.36,-456.14"/>
<polygon fill="midnightblue" stroke="midnightblue" points="974.16,-249.48 963.73,-247.6 970.71,-255.57 974.16,-249.48"/>
</g>
<!-- Node3 -->
<g id="node3" class="node">
<title>Node3</title>
<g id="a_node3"><a xlink:href="classAxiStreamPipeline.html" target="_top" xlink:title=" ">
<polygon fill="white" stroke="black" points="383,-285.5 383,-304.5 490,-304.5 490,-285.5 383,-285.5"/>
<text text-anchor="middle" x="436.5" y="-292.5" font-family="Helvetica,sans-Serif" font-size="10.00">AxiStreamPipeline</text>
</a>
</g>
</g>
<!-- Node3&#45;&gt;Node2 -->
<g id="edge2" class="edge">
<title>Node3&#45;&gt;Node2</title>
<path fill="none" stroke="midnightblue" d="M465.39,-281.04C484.03,-272.43 509.38,-262.1 533,-257 657.33,-230.17 807.61,-231.52 887.21,-234.79"/>
<polygon fill="midnightblue" stroke="midnightblue" points="463.84,-277.9 456.3,-285.34 466.83,-284.23 463.84,-277.9"/>
</g>
<!-- Node4 -->
<g id="node4" class="node">
<title>Node4</title>
<g id="a_node4"><a xlink:href="classAxiStreamMux.html" target="_top" xlink:title=" ">
<polygon fill="white" stroke="black" points="1089,-190.5 1089,-209.5 1178,-209.5 1178,-190.5 1089,-190.5"/>
<text text-anchor="middle" x="1133.5" y="-197.5" font-family="Helvetica,sans-Serif" font-size="10.00">AxiStreamMux</text>
</a>
</g>
</g>
<!-- Node3&#45;&gt;Node4 -->
<g id="edge4" class="edge">
<title>Node3&#45;&gt;Node4</title>
<path fill="none" stroke="midnightblue" d="M456.32,-278.78C474.57,-264.13 503.72,-243.46 533,-234 732.39,-169.57 988.25,-185.36 1088.98,-195.11"/>
<polygon fill="midnightblue" stroke="midnightblue" points="453.77,-276.35 448.29,-285.42 458.23,-281.75 453.77,-276.35"/>
</g>
<!-- Node36 -->
<g id="node34" class="node">
<title>Node36</title>
<g id="a_node34"><a xlink:href="classAxiStreamFifoV2.html" target="_top" xlink:title=" ">
<polygon fill="white" stroke="black" points="888,-456.5 888,-475.5 1000,-475.5 1000,-456.5 888,-456.5"/>
<text text-anchor="middle" x="944" y="-463.5" font-family="Helvetica,sans-Serif" font-size="10.00">AxiStreamFifoV2(2)</text>
</a>
</g>
</g>
<!-- Node3&#45;&gt;Node36 -->
<g id="edge45" class="edge">
<title>Node3&#45;&gt;Node36</title>
<path fill="none" stroke="midnightblue" d="M453.83,-311.84C471.68,-329.25 501.9,-355.96 533,-371 651.56,-428.36 806.42,-452.04 887.69,-461.04"/>
<polygon fill="midnightblue" stroke="midnightblue" points="456.1,-309.15 446.54,-304.57 451.15,-314.11 456.1,-309.15"/>
</g>
<!-- Node37 -->
<g id="node35" class="node">
<title>Node37</title>
<g id="a_node35"><a xlink:href="classAxiStreamGearbox.html" target="_top" xlink:title=" ">
<polygon fill="white" stroke="black" points="700,-342.5 700,-361.5 822,-361.5 822,-342.5 700,-342.5"/>
<text text-anchor="middle" x="761" y="-349.5" font-family="Helvetica,sans-Serif" font-size="10.00">AxiStreamGearbox(2)</text>
</a>
</g>
</g>
<!-- Node3&#45;&gt;Node37 -->
<g id="edge40" class="edge">
<title>Node3&#45;&gt;Node37</title>
<path fill="none" stroke="midnightblue" d="M500.39,-305.14C545.66,-312.55 608.17,-323.01 663,-333 679.21,-335.95 696.9,-339.36 712.68,-342.47"/>
<polygon fill="midnightblue" stroke="midnightblue" points="500.86,-301.67 490.42,-303.51 499.73,-308.58 500.86,-301.67"/>
</g>
<!-- Node38 -->
<g id="node36" class="node">
<title>Node38</title>
<g id="a_node36"><a xlink:href="classAxiStreamResize.html" target="_top" xlink:title=" ">
<polygon fill="white" stroke="black" points="548,-342.5 548,-361.5 648,-361.5 648,-342.5 548,-342.5"/>
<text text-anchor="middle" x="598" y="-349.5" font-family="Helvetica,sans-Serif" font-size="10.00">AxiStreamResize</text>
</a>
</g>
</g>
<!-- Node3&#45;&gt;Node38 -->
<g id="edge39" class="edge">
<title>Node3&#45;&gt;Node38</title>
<path fill="none" stroke="midnightblue" d="M473.68,-307.93C503.02,-318.42 543.73,-332.96 570.22,-342.43"/>
<polygon fill="midnightblue" stroke="midnightblue" points="474.79,-304.61 464.2,-304.54 472.44,-311.2 474.79,-304.61"/>
</g>
<!-- Node56 -->
<g id="node50" class="node">
<title>Node56</title>
<g id="a_node50"><a xlink:href="classAxiStreamDeMux.html" target="_top" xlink:title=" ">
<polygon fill="white" stroke="black" points="547,-266.5 547,-285.5 649,-285.5 649,-266.5 547,-266.5"/>
<text text-anchor="middle" x="598" y="-273.5" font-family="Helvetica,sans-Serif" font-size="10.00">AxiStreamDeMux</text>
</a>
</g>
</g>
<!-- Node3&#45;&gt;Node56 -->
<g id="edge72" class="edge">
<title>Node3&#45;&gt;Node56</title>
<path fill="none" stroke="midnightblue" d="M500.18,-287.53C515.66,-285.69 532.03,-283.74 546.82,-281.98"/>
<polygon fill="midnightblue" stroke="midnightblue" points="499.68,-284.07 490.17,-288.73 500.51,-291.02 499.68,-284.07"/>
</g>
<!-- Node4&#45;&gt;Node1 -->
<g id="edge3" class="edge">
<title>Node4&#45;&gt;Node1</title>
<path fill="none" stroke="midnightblue" d="M1188.66,-193.27C1204.73,-191.28 1222.24,-189.1 1238,-187.15"/>
<polygon fill="midnightblue" stroke="midnightblue" points="1187.84,-189.85 1178.34,-194.56 1188.7,-196.8 1187.84,-189.85"/>
</g>
<!-- Node5 -->
<g id="node5" class="node">
<title>Node5</title>
<g id="a_node5"><a xlink:href="classAxiStreamPacketizer.html" target="_top" xlink:title=" ">
<polygon fill="white" stroke="black" points="1075,-152.5 1075,-171.5 1192,-171.5 1192,-152.5 1075,-152.5"/>
<text text-anchor="middle" x="1133.5" y="-159.5" font-family="Helvetica,sans-Serif" font-size="10.00">AxiStreamPacketizer</text>
</a>
</g>
</g>
<!-- Node5&#45;&gt;Node1 -->
<g id="edge5" class="edge">
<title>Node5&#45;&gt;Node1</title>
<path fill="none" stroke="midnightblue" d="M1202.59,-170.46C1214.37,-171.92 1226.41,-173.41 1237.59,-174.8"/>
<polygon fill="midnightblue" stroke="midnightblue" points="1202.7,-166.94 1192.34,-169.18 1201.84,-173.89 1202.7,-166.94"/>
</g>
<!-- Node6 -->
<g id="node6" class="node">
<title>Node6</title>
<g id="a_node6"><a xlink:href="classAxiStreamPipeline.html" target="_top" xlink:title=" ">
<polygon fill="white" stroke="black" points="884,-114.5 884,-133.5 1004,-133.5 1004,-114.5 884,-114.5"/>
<text text-anchor="middle" x="944" y="-121.5" font-family="Helvetica,sans-Serif" font-size="10.00">AxiStreamPipeline(2)</text>
</a>
</g>
</g>
<!-- Node6&#45;&gt;Node5 -->
<g id="edge6" class="edge">
<title>Node6&#45;&gt;Node5</title>
<path fill="none" stroke="midnightblue" d="M1002.28,-135.61C1028.95,-141.01 1060.28,-147.36 1085.53,-152.48"/>
<polygon fill="midnightblue" stroke="midnightblue" points="1002.81,-132.15 992.31,-133.59 1001.42,-139.01 1002.81,-132.15"/>
</g>
<!-- Node7 -->
<g id="node7" class="node">
<title>Node7</title>
<g id="a_node7"><a xlink:href="classAxiStreamPacketizer2.html" target="_top" xlink:title=" ">
<polygon fill="white" stroke="black" points="1072,-76.5 1072,-95.5 1195,-95.5 1195,-76.5 1072,-76.5"/>
<text text-anchor="middle" x="1133.5" y="-83.5" font-family="Helvetica,sans-Serif" font-size="10.00">AxiStreamPacketizer2</text>
</a>
</g>
</g>
<!-- Node6&#45;&gt;Node7 -->
<g id="edge8" class="edge">
<title>Node6&#45;&gt;Node7</title>
<path fill="none" stroke="midnightblue" d="M1002.28,-112.39C1028.95,-106.99 1060.28,-100.64 1085.53,-95.52"/>
<polygon fill="midnightblue" stroke="midnightblue" points="1001.42,-108.99 992.31,-114.41 1002.81,-115.85 1001.42,-108.99"/>
</g>
<!-- Node54 -->
<g id="node48" class="node">
<title>Node54</title>
<g id="a_node48"><a xlink:href="classAxiStreamDepacketizer.html" target="_top" xlink:title=" ">
<polygon fill="white" stroke="black" points="1068,-114.5 1068,-133.5 1199,-133.5 1199,-114.5 1068,-114.5"/>
<text text-anchor="middle" x="1133.5" y="-121.5" font-family="Helvetica,sans-Serif" font-size="10.00">AxiStreamDepacketizer</text>
</a>
</g>
</g>
<!-- Node6&#45;&gt;Node54 -->
<g id="edge65" class="edge">
<title>Node6&#45;&gt;Node54</title>
<path fill="none" stroke="midnightblue" d="M1014.24,-124C1031.78,-124 1050.56,-124 1067.87,-124"/>
<polygon fill="midnightblue" stroke="midnightblue" points="1014.07,-120.5 1004.07,-124 1014.07,-127.5 1014.07,-120.5"/>
</g>
<!-- Node55 -->
<g id="node49" class="node">
<title>Node55</title>
<g id="a_node49"><a xlink:href="classAxiStreamDepacketizer2.html" target="_top" xlink:title=" ">
<polygon fill="white" stroke="black" points="1065,-38.5 1065,-57.5 1202,-57.5 1202,-38.5 1065,-38.5"/>
<text text-anchor="middle" x="1133.5" y="-45.5" font-family="Helvetica,sans-Serif" font-size="10.00">AxiStreamDepacketizer2</text>
</a>
</g>
</g>
<!-- Node6&#45;&gt;Node55 -->
<g id="edge67" class="edge">
<title>Node6&#45;&gt;Node55</title>
<path fill="none" stroke="midnightblue" d="M1013.74,-112.06C1019.05,-110.06 1024.21,-107.73 1029,-105 1049.22,-93.49 1045.09,-79.03 1065,-67 1071.36,-63.16 1078.52,-60.07 1085.74,-57.59"/>
<polygon fill="midnightblue" stroke="midnightblue" points="1012.42,-108.82 1004.05,-115.31 1014.65,-115.45 1012.42,-108.82"/>
</g>
<!-- Node7&#45;&gt;Node1 -->
<g id="edge7" class="edge">
<title>Node7&#45;&gt;Node1</title>
<path fill="none" stroke="midnightblue" d="M1189.3,-99.1C1193.7,-100.84 1197.99,-102.8 1202,-105 1234.58,-122.82 1265.19,-155.16 1279.32,-171.3"/>
<polygon fill="midnightblue" stroke="midnightblue" points="1190.16,-95.69 1179.56,-95.61 1187.79,-102.28 1190.16,-95.69"/>
</g>
<!-- Node8 -->
<g id="node8" class="node">
<title>Node8</title>
<g id="a_node8"><a xlink:href="classDualPortRam.html" target="_top" xlink:title=" ">
<polygon fill="white" stroke="black" points="903.5,-76.5 903.5,-95.5 984.5,-95.5 984.5,-76.5 903.5,-76.5"/>
<text text-anchor="middle" x="944" y="-83.5" font-family="Helvetica,sans-Serif" font-size="10.00">DualPortRam</text>
</a>
</g>
</g>
<!-- Node8&#45;&gt;Node7 -->
<g id="edge9" class="edge">
<title>Node8&#45;&gt;Node7</title>
<path fill="none" stroke="midnightblue" d="M994.9,-86C1018.51,-86 1046.9,-86 1071.75,-86"/>
<polygon fill="midnightblue" stroke="midnightblue" points="994.76,-82.5 984.76,-86 994.76,-89.5 994.76,-82.5"/>
</g>
<!-- Node8&#45;&gt;Node55 -->
<g id="edge68" class="edge">
<title>Node8&#45;&gt;Node55</title>
<path fill="none" stroke="midnightblue" d="M994.79,-75.91C1022.91,-70.21 1057.85,-63.13 1085.5,-57.52"/>
<polygon fill="midnightblue" stroke="midnightblue" points="993.87,-72.52 984.76,-77.94 995.26,-79.39 993.87,-72.52"/>
</g>
<!-- Node9 -->
<g id="node9" class="node">
<title>Node9</title>
<g id="a_node9"><a xlink:href="classTrueDualPortRam.html" target="_top" xlink:title=" ">
<polygon fill="white" stroke="black" points="710.5,-95.5 710.5,-114.5 811.5,-114.5 811.5,-95.5 710.5,-95.5"/>
<text text-anchor="middle" x="761" y="-102.5" font-family="Helvetica,sans-Serif" font-size="10.00">TrueDualPortRam</text>
</a>
</g>
</g>
<!-- Node9&#45;&gt;Node8 -->
<g id="edge10" class="edge">
<title>Node9&#45;&gt;Node8</title>
<path fill="none" stroke="midnightblue" d="M821.96,-98.71C848.68,-95.9 879.43,-92.67 903.25,-90.17"/>
<polygon fill="midnightblue" stroke="midnightblue" points="821.52,-95.23 811.94,-99.76 822.25,-102.19 821.52,-95.23"/>
</g>
<!-- Node10 -->
<g id="node10" class="node">
<title>Node10</title>
<g id="a_node10"><a xlink:href="classLutRam.html" target="_top" xlink:title=" ">
<polygon fill="white" stroke="black" points="734,-57.5 734,-76.5 788,-76.5 788,-57.5 734,-57.5"/>
<text text-anchor="middle" x="761" y="-64.5" font-family="Helvetica,sans-Serif" font-size="10.00">LutRam</text>
</a>
</g>
</g>
<!-- Node10&#45;&gt;Node8 -->
<g id="edge11" class="edge">
<title>Node10&#45;&gt;Node8</title>
<path fill="none" stroke="midnightblue" d="M798.49,-70.83C828.86,-74.02 872.04,-78.55 903.28,-81.83"/>
<polygon fill="midnightblue" stroke="midnightblue" points="798.63,-67.33 788.32,-69.76 797.9,-74.29 798.63,-67.33"/>
</g>
<!-- Node11 -->
<g id="node11" class="node">
<title>Node11</title>
<g id="a_node11"><a xlink:href="classCrc32Parallel.html" target="_top" xlink:title=" ">
<polygon fill="white" stroke="black" points="904,-38.5 904,-57.5 984,-57.5 984,-38.5 904,-38.5"/>
<text text-anchor="middle" x="944" y="-45.5" font-family="Helvetica,sans-Serif" font-size="10.00">Crc32Parallel</text>
</a>
</g>
</g>
<!-- Node11&#45;&gt;Node7 -->
<g id="edge12" class="edge">
<title>Node11&#45;&gt;Node7</title>
<path fill="none" stroke="midnightblue" d="M994.37,-58C1022.6,-63.73 1057.81,-70.86 1085.62,-76.5"/>
<polygon fill="midnightblue" stroke="midnightblue" points="994.8,-54.52 984.31,-55.97 993.41,-61.38 994.8,-54.52"/>
</g>
<!-- Node11&#45;&gt;Node55 -->
<g id="edge69" class="edge">
<title>Node11&#45;&gt;Node55</title>
<path fill="none" stroke="midnightblue" d="M994.52,-48C1016.03,-48 1041.58,-48 1064.81,-48"/>
<polygon fill="midnightblue" stroke="midnightblue" points="994.31,-44.5 984.31,-48 994.31,-51.5 994.31,-44.5"/>
</g>
<!-- Node12 -->
<g id="node12" class="node">
<title>Node12</title>
<g id="a_node12"><a xlink:href="classCrc32.html" target="_top" xlink:title=" ">
<polygon fill="white" stroke="black" points="922,-0.5 922,-19.5 966,-19.5 966,-0.5 922,-0.5"/>
<text text-anchor="middle" x="944" y="-7.5" font-family="Helvetica,sans-Serif" font-size="10.00">Crc32</text>
</a>
</g>
</g>
<!-- Node12&#45;&gt;Node7 -->
<g id="edge13" class="edge">
<title>Node12&#45;&gt;Node7</title>
<path fill="none" stroke="midnightblue" d="M976.5,-12.69C992.99,-15.16 1013.01,-19.9 1029,-29 1049.22,-40.51 1045.09,-54.97 1065,-67 1071.36,-70.84 1078.52,-73.93 1085.74,-76.41"/>
<polygon fill="midnightblue" stroke="midnightblue" points="976.62,-9.17 966.25,-11.37 975.72,-16.12 976.62,-9.17"/>
</g>
<!-- Node12&#45;&gt;Node55 -->
<g id="edge70" class="edge">
<title>Node12&#45;&gt;Node55</title>
<path fill="none" stroke="midnightblue" d="M975.97,-16.28C1005.73,-22.31 1051.09,-31.5 1085.33,-38.44"/>
<polygon fill="midnightblue" stroke="midnightblue" points="976.64,-12.84 966.14,-14.29 975.25,-19.7 976.64,-12.84"/>
</g>
<!-- Node13&#45;&gt;Node1 -->
<g id="edge14" class="edge">
<title>Node13&#45;&gt;Node1</title>
<path fill="none" stroke="midnightblue" d="M1144.62,-447.16C1174.25,-391.96 1260.14,-231.97 1282.26,-190.77"/>
<polygon fill="midnightblue" stroke="midnightblue" points="1141.41,-445.72 1139.77,-456.19 1147.58,-449.03 1141.41,-445.72"/>
</g>
<!-- Node14 -->
<g id="node14" class="node">
<title>Node14</title>
<g id="a_node14"><a xlink:href="classRssiAxiLiteRegItf.html" target="_top" xlink:title=" ">
<polygon fill="white" stroke="black" points="894,-646.5 894,-665.5 994,-665.5 994,-646.5 894,-646.5"/>
<text text-anchor="middle" x="944" y="-653.5" font-family="Helvetica,sans-Serif" font-size="10.00">RssiAxiLiteRegItf</text>
</a>
</g>
</g>
<!-- Node14&#45;&gt;Node13 -->
<g id="edge15" class="edge">
<title>Node14&#45;&gt;Node13</title>
<path fill="none" stroke="midnightblue" d="M1003.79,-649.1C1012.76,-646.29 1021.52,-642.39 1029,-637 1088.68,-593.99 1120.5,-504.94 1129.67,-475.61"/>
<polygon fill="midnightblue" stroke="midnightblue" points="1002.75,-645.75 994,-651.74 1004.57,-652.51 1002.75,-645.75"/>
</g>
<!-- Node15 -->
<g id="node15" class="node">
<title>Node15</title>
<g id="a_node15"><a xlink:href="classSynchronizerVector.html" target="_top" xlink:title=" ">
<polygon fill="white" stroke="black" points="699,-608.5 699,-627.5 823,-627.5 823,-608.5 699,-608.5"/>
<text text-anchor="middle" x="761" y="-615.5" font-family="Helvetica,sans-Serif" font-size="10.00">SynchronizerVector(3)</text>
</a>
</g>
</g>
<!-- Node15&#45;&gt;Node14 -->
<g id="edge16" class="edge">
<title>Node15&#45;&gt;Node14</title>
<path fill="none" stroke="midnightblue" d="M817.64,-629.68C843.31,-635.07 873.39,-641.39 897.65,-646.48"/>
<polygon fill="midnightblue" stroke="midnightblue" points="818.18,-626.22 807.67,-627.59 816.74,-633.07 818.18,-626.22"/>
</g>
<!-- Node16 -->
<g id="node16" class="node">
<title>Node16</title>
<g id="a_node16"><a xlink:href="classSynchronizerFifo.html" target="_top" xlink:title=" ">
<polygon fill="white" stroke="black" points="705.5,-646.5 705.5,-665.5 816.5,-665.5 816.5,-646.5 705.5,-646.5"/>
<text text-anchor="middle" x="761" y="-653.5" font-family="Helvetica,sans-Serif" font-size="10.00">SynchronizerFifo(4)</text>
</a>
</g>
</g>
<!-- Node16&#45;&gt;Node14 -->
<g id="edge17" class="edge">
<title>Node16&#45;&gt;Node14</title>
<path fill="none" stroke="midnightblue" d="M827.08,-656C849.12,-656 873.34,-656 893.93,-656"/>
<polygon fill="midnightblue" stroke="midnightblue" points="826.8,-652.5 816.8,-656 826.8,-659.5 826.8,-652.5"/>
</g>
<!-- Node44 -->
<g id="node39" class="node">
<title>Node44</title>
<g id="a_node39"><a xlink:href="classAxiStreamMon.html" target="_top" xlink:title=" ">
<polygon fill="white" stroke="black" points="899.5,-684.5 899.5,-703.5 988.5,-703.5 988.5,-684.5 899.5,-684.5"/>
<text text-anchor="middle" x="944" y="-691.5" font-family="Helvetica,sans-Serif" font-size="10.00">AxiStreamMon</text>
</a>
</g>
</g>
<!-- Node16&#45;&gt;Node44 -->
<g id="edge59" class="edge">
<title>Node16&#45;&gt;Node44</title>
<path fill="none" stroke="midnightblue" d="M817.49,-667.65C843.74,-673.16 874.64,-679.65 899.21,-684.81"/>
<polygon fill="midnightblue" stroke="midnightblue" points="818.18,-664.22 807.67,-665.59 816.74,-671.07 818.18,-664.22"/>
</g>
<!-- Node17 -->
<g id="node17" class="node">
<title>Node17</title>
<g id="a_node17"><a xlink:href="classFifoAsync.html" target="_top" xlink:title=" ">
<polygon fill="white" stroke="red" points="276,-608.5 276,-627.5 340,-627.5 340,-608.5 276,-608.5"/>
<text text-anchor="middle" x="308" y="-615.5" font-family="Helvetica,sans-Serif" font-size="10.00">FifoAsync</text>
</a>
</g>
</g>
<!-- Node17&#45;&gt;Node16 -->
<g id="edge18" class="edge">
<title>Node17&#45;&gt;Node16</title>
<path fill="none" stroke="midnightblue" d="M350.43,-618.35C416.69,-619.33 550.53,-623.04 663,-637 681.22,-639.26 701.16,-642.95 718.19,-646.48"/>
<polygon fill="midnightblue" stroke="midnightblue" points="350.43,-614.85 340.38,-618.21 350.34,-621.85 350.43,-614.85"/>
</g>
<!-- Node40 -->
<g id="node38" class="node">
<title>Node40</title>
<g id="a_node38"><a xlink:href="classFifo.html" target="_top" xlink:title=" ">
<polygon fill="white" stroke="red" points="412.5,-546.5 412.5,-565.5 460.5,-565.5 460.5,-546.5 412.5,-546.5"/>
<text text-anchor="middle" x="436.5" y="-553.5" font-family="Helvetica,sans-Serif" font-size="10.00">Fifo(4)</text>
</a>
</g>
</g>
<!-- Node17&#45;&gt;Node40 -->
<g id="edge43" class="edge">
<title>Node17&#45;&gt;Node40</title>
<path fill="none" stroke="midnightblue" d="M337.75,-603.91C361.59,-592.22 394.86,-575.92 415.78,-565.66"/>
<polygon fill="midnightblue" stroke="midnightblue" points="335.93,-600.9 328.49,-608.45 339.01,-607.19 335.93,-600.9"/>
</g>
<!-- Node49 -->
<g id="node43" class="node">
<title>Node49</title>
<g id="a_node43"><a xlink:href="classSynchronizerFifo.html" target="_top" xlink:title=" ">
<polygon fill="white" stroke="black" points="387.5,-760.5 387.5,-779.5 485.5,-779.5 485.5,-760.5 387.5,-760.5"/>
<text text-anchor="middle" x="436.5" y="-767.5" font-family="Helvetica,sans-Serif" font-size="10.00">SynchronizerFifo</text>
</a>
</g>
</g>
<!-- Node17&#45;&gt;Node49 -->
<g id="edge53" class="edge">
<title>Node17&#45;&gt;Node49</title>
<path fill="none" stroke="midnightblue" d="M313.62,-637.36C321.49,-666.25 340.26,-720.49 376,-751 380.54,-754.87 385.87,-757.96 391.45,-760.42"/>
<polygon fill="midnightblue" stroke="midnightblue" points="317,-636.45 311.12,-627.64 310.22,-638.19 317,-636.45"/>
</g>
<!-- Node52 -->
<g id="node46" class="node">
<title>Node52</title>
<g id="a_node46"><a xlink:href="classSynchronizerFifo.html" target="_top" xlink:title=" ">
<polygon fill="white" stroke="black" points="381,-646.5 381,-665.5 492,-665.5 492,-646.5 381,-646.5"/>
<text text-anchor="middle" x="436.5" y="-653.5" font-family="Helvetica,sans-Serif" font-size="10.00">SynchronizerFifo(3)</text>
</a>
</g>
</g>
<!-- Node17&#45;&gt;Node52 -->
<g id="edge58" class="edge">
<title>Node17&#45;&gt;Node52</title>
<path fill="none" stroke="midnightblue" d="M350.17,-630.37C367.55,-635.59 387.48,-641.58 403.71,-646.45"/>
<polygon fill="midnightblue" stroke="midnightblue" points="350.85,-626.92 340.27,-627.39 348.84,-633.62 350.85,-626.92"/>
</g>
<!-- Node18 -->
<g id="node18" class="node">
<title>Node18</title>
<g id="a_node18"><a xlink:href="classRstSync.html" target="_top" xlink:title=" ">
<polygon fill="white" stroke="black" points="143.5,-646.5 143.5,-665.5 212.5,-665.5 212.5,-646.5 143.5,-646.5"/>
<text text-anchor="middle" x="178" y="-653.5" font-family="Helvetica,sans-Serif" font-size="10.00">RstSync(2)</text>
</a>
</g>
</g>
<!-- Node18&#45;&gt;Node17 -->
<g id="edge19" class="edge">
<title>Node18&#45;&gt;Node17</title>
<path fill="none" stroke="midnightblue" d="M221.38,-643.42C239.07,-638.17 259.27,-632.17 275.6,-627.32"/>
<polygon fill="midnightblue" stroke="midnightblue" points="219.89,-640.21 211.3,-646.41 221.88,-646.92 219.89,-640.21"/>
</g>
<!-- Node19 -->
<g id="node19" class="node">
<title>Node19</title>
<g id="a_node19"><a xlink:href="classSynchronizer.html" target="_top" xlink:title=" ">
<polygon fill="white" stroke="black" points="0,-646.5 0,-665.5 80,-665.5 80,-646.5 0,-646.5"/>
<text text-anchor="middle" x="40" y="-653.5" font-family="Helvetica,sans-Serif" font-size="10.00">Synchronizer</text>
</a>
</g>
</g>
<!-- Node19&#45;&gt;Node18 -->
<g id="edge20" class="edge">
<title>Node19&#45;&gt;Node18</title>
<path fill="none" stroke="midnightblue" d="M90.43,-656C107.99,-656 127.34,-656 143.28,-656"/>
<polygon fill="midnightblue" stroke="midnightblue" points="90.34,-652.5 80.34,-656 90.34,-659.5 90.34,-652.5"/>
</g>
<!-- Node19&#45;&gt;Node36 -->
<g id="edge44" class="edge">
<title>Node19&#45;&gt;Node36</title>
<path fill="none" stroke="midnightblue" d="M46.28,-636.5C55.35,-606.99 76.78,-551.4 116,-523 186.1,-472.23 220.45,-485 307,-485 307,-485 307,-485 599,-485 701.13,-485 820.06,-476.55 887.94,-470.92"/>
<polygon fill="midnightblue" stroke="midnightblue" points="42.83,-635.85 43.4,-646.43 49.55,-637.8 42.83,-635.85"/>
</g>
<!-- Node45 -->
<g id="node40" class="node">
<title>Node45</title>
<g id="a_node40"><a xlink:href="classRstSync.html" target="_top" xlink:title=" ">
<polygon fill="white" stroke="black" points="280,-722.5 280,-741.5 336,-741.5 336,-722.5 280,-722.5"/>
<text text-anchor="middle" x="308" y="-729.5" font-family="Helvetica,sans-Serif" font-size="10.00">RstSync</text>
</a>
</g>
</g>
<!-- Node19&#45;&gt;Node45 -->
<g id="edge48" class="edge">
<title>Node19&#45;&gt;Node45</title>
<path fill="none" stroke="midnightblue" d="M57.53,-672.93C71.69,-686.29 93.35,-704.1 116,-713 171.2,-734.7 241.98,-735.41 279.99,-733.83"/>
<polygon fill="midnightblue" stroke="midnightblue" points="59.7,-670.16 50.1,-665.68 54.81,-675.17 59.7,-670.16"/>
</g>
<!-- Node20 -->
<g id="node20" class="node">
<title>Node20</title>
<g id="a_node20"><a xlink:href="classSynchronizerVector.html" target="_top" xlink:title=" ">
<polygon fill="white" stroke="black" points="116,-608.5 116,-627.5 240,-627.5 240,-608.5 116,-608.5"/>
<text text-anchor="middle" x="178" y="-615.5" font-family="Helvetica,sans-Serif" font-size="10.00">SynchronizerVector(2)</text>
</a>
</g>
</g>
<!-- Node20&#45;&gt;Node17 -->
<g id="edge21" class="edge">
<title>Node20&#45;&gt;Node17</title>
<path fill="none" stroke="midnightblue" d="M250.14,-618C259.08,-618 267.83,-618 275.69,-618"/>
<polygon fill="midnightblue" stroke="midnightblue" points="250,-614.5 240,-618 250,-621.5 250,-614.5"/>
</g>
<!-- Node21 -->
<g id="node21" class="node">
<title>Node21</title>
<g id="a_node21"><a xlink:href="classSynchronizer.html" target="_top" xlink:title=" ">
<polygon fill="white" stroke="black" points="131.5,-570.5 131.5,-589.5 224.5,-589.5 224.5,-570.5 131.5,-570.5"/>
<text text-anchor="middle" x="178" y="-577.5" font-family="Helvetica,sans-Serif" font-size="10.00">Synchronizer(2)</text>
</a>
</g>
</g>
<!-- Node21&#45;&gt;Node17 -->
<g id="edge22" class="edge">
<title>Node21&#45;&gt;Node17</title>
<path fill="none" stroke="midnightblue" d="M221.38,-592.58C239.07,-597.83 259.27,-603.83 275.6,-608.68"/>
<polygon fill="midnightblue" stroke="midnightblue" points="221.88,-589.08 211.3,-589.59 219.89,-595.79 221.88,-589.08"/>
</g>
<!-- Node22 -->
<g id="node22" class="node">
<title>Node22</title>
<g id="a_node22"><a xlink:href="classFifoWrFsm.html" target="_top" xlink:title=" ">
<polygon fill="white" stroke="black" points="143.5,-532.5 143.5,-551.5 212.5,-551.5 212.5,-532.5 143.5,-532.5"/>
<text text-anchor="middle" x="178" y="-539.5" font-family="Helvetica,sans-Serif" font-size="10.00">FifoWrFsm</text>
</a>
</g>
</g>
<!-- Node22&#45;&gt;Node17 -->
<g id="edge23" class="edge">
<title>Node22&#45;&gt;Node17</title>
<path fill="none" stroke="midnightblue" d="M222.2,-553.05C228.35,-555.31 234.45,-557.94 240,-561 263.28,-573.82 285.86,-595.55 297.95,-608.15"/>
<polygon fill="midnightblue" stroke="midnightblue" points="223.2,-549.69 212.6,-549.82 220.96,-556.33 223.2,-549.69"/>
</g>
<!-- Node23 -->
<g id="node23" class="node">
<title>Node23</title>
<g id="a_node23"><a xlink:href="classFifoRdFsm.html" target="_top" xlink:title=" ">
<polygon fill="white" stroke="black" points="144,-684.5 144,-703.5 212,-703.5 212,-684.5 144,-684.5"/>
<text text-anchor="middle" x="178" y="-691.5" font-family="Helvetica,sans-Serif" font-size="10.00">FifoRdFsm</text>
</a>
</g>
</g>
<!-- Node23&#45;&gt;Node17 -->
<g id="edge24" class="edge">
<title>Node23&#45;&gt;Node17</title>
<path fill="none" stroke="midnightblue" d="M221.99,-683.02C228.21,-680.75 234.39,-678.09 240,-675 263.28,-662.18 285.86,-640.45 297.95,-627.85"/>
<polygon fill="midnightblue" stroke="midnightblue" points="220.66,-679.78 212.28,-686.28 222.88,-686.42 220.66,-679.78"/>
</g>
<!-- Node26 -->
<g id="node24" class="node">
<title>Node26</title>
<g id="a_node24"><a xlink:href="classRssiParamSync.html" target="_top" xlink:title=" ">
<polygon fill="white" stroke="black" points="709,-570.5 709,-589.5 813,-589.5 813,-570.5 709,-570.5"/>
<text text-anchor="middle" x="761" y="-577.5" font-family="Helvetica,sans-Serif" font-size="10.00">RssiParamSync(2)</text>
</a>
</g>
</g>
<!-- Node26&#45;&gt;Node14 -->
<g id="edge25" class="edge">
<title>Node26&#45;&gt;Node14</title>
<path fill="none" stroke="midnightblue" d="M812.35,-593.36C816.06,-595.04 819.65,-596.92 823,-599 842.75,-611.3 838.78,-625.49 859,-637 869.53,-642.99 881.8,-647.09 893.66,-649.9"/>
<polygon fill="midnightblue" stroke="midnightblue" points="813.56,-590.08 802.98,-589.58 810.94,-596.57 813.56,-590.08"/>
</g>
<!-- Node27 -->
<g id="node25" class="node">
<title>Node27</title>
<g id="a_node25"><a xlink:href="classSynchronizerVector.html" target="_top" xlink:title=" ">
<polygon fill="white" stroke="black" points="533,-570.5 533,-589.5 663,-589.5 663,-570.5 533,-570.5"/>
<text text-anchor="middle" x="598" y="-577.5" font-family="Helvetica,sans-Serif" font-size="10.00">SynchronizerVector(12)</text>
</a>
</g>
</g>
<!-- Node27&#45;&gt;Node26 -->
<g id="edge26" class="edge">
<title>Node27&#45;&gt;Node26</title>
<path fill="none" stroke="midnightblue" d="M673.14,-580C685.19,-580 697.42,-580 708.76,-580"/>
<polygon fill="midnightblue" stroke="midnightblue" points="673.09,-576.5 663.09,-580 673.09,-583.5 673.09,-576.5"/>
</g>
<!-- Node28 -->
<g id="node26" class="node">
<title>Node28</title>
<g id="a_node26"><a xlink:href="classRssiConnFsm.html" target="_top" xlink:title=" ">
<polygon fill="white" stroke="black" points="902.5,-418.5 902.5,-437.5 985.5,-437.5 985.5,-418.5 902.5,-418.5"/>
<text text-anchor="middle" x="944" y="-425.5" font-family="Helvetica,sans-Serif" font-size="10.00">RssiConnFsm</text>
</a>
</g>
</g>
<!-- Node28&#45;&gt;Node13 -->
<g id="edge28" class="edge">
<title>Node28&#45;&gt;Node13</title>
<path fill="none" stroke="midnightblue" d="M995.64,-438.26C1030.33,-445.29 1075.09,-454.36 1103.79,-460.18"/>
<polygon fill="midnightblue" stroke="midnightblue" points="996.18,-434.8 985.68,-436.25 994.79,-441.66 996.18,-434.8"/>
</g>
<!-- Node29 -->
<g id="node27" class="node">
<title>Node29</title>
<g id="a_node27"><a xlink:href="classRssiMonitor.html" target="_top" xlink:title=" ">
<polygon fill="white" stroke="black" points="907,-380.5 907,-399.5 981,-399.5 981,-380.5 907,-380.5"/>
<text text-anchor="middle" x="944" y="-387.5" font-family="Helvetica,sans-Serif" font-size="10.00">RssiMonitor</text>
</a>
</g>
</g>
<!-- Node29&#45;&gt;Node13 -->
<g id="edge29" class="edge">
<title>Node29&#45;&gt;Node13</title>
<path fill="none" stroke="midnightblue" d="M991.02,-397.97C1003.55,-400.79 1016.98,-404.43 1029,-409 1062.56,-421.74 1098.6,-443.7 1118.05,-456.32"/>
<polygon fill="midnightblue" stroke="midnightblue" points="991.72,-394.54 981.21,-395.88 990.26,-401.38 991.72,-394.54"/>
</g>
<!-- Node30 -->
<g id="node28" class="node">
<title>Node30</title>
<g id="a_node28"><a xlink:href="classRssiHeaderReg.html" target="_top" xlink:title=" ">
<polygon fill="white" stroke="black" points="898.5,-342.5 898.5,-361.5 989.5,-361.5 989.5,-342.5 898.5,-342.5"/>
<text text-anchor="middle" x="944" y="-349.5" font-family="Helvetica,sans-Serif" font-size="10.00">RssiHeaderReg</text>
</a>
</g>
</g>
<!-- Node30&#45;&gt;Node13 -->
<g id="edge30" class="edge">
<title>Node30&#45;&gt;Node13</title>
<path fill="none" stroke="midnightblue" d="M999.69,-360.03C1009.77,-362.7 1019.96,-366.26 1029,-371 1071.35,-393.18 1109.52,-437.09 1125.09,-456.45"/>
<polygon fill="midnightblue" stroke="midnightblue" points="1000.22,-356.56 989.68,-357.64 998.59,-363.37 1000.22,-356.56"/>
</g>
<!-- Node31 -->
<g id="node29" class="node">
<title>Node31</title>
<g id="a_node29"><a xlink:href="classRssiTxFsm.html" target="_top" xlink:title=" ">
<polygon fill="white" stroke="black" points="909,-304.5 909,-323.5 979,-323.5 979,-304.5 909,-304.5"/>
<text text-anchor="middle" x="944" y="-311.5" font-family="Helvetica,sans-Serif" font-size="10.00">RssiTxFsm</text>
</a>
</g>
</g>
<!-- Node31&#45;&gt;Node13 -->
<g id="edge31" class="edge">
<title>Node31&#45;&gt;Node13</title>
<path fill="none" stroke="midnightblue" d="M989.42,-318.21C1002.9,-320.97 1017.23,-325.52 1029,-333 1079.87,-365.32 1115.89,-431.75 1128.02,-456.46"/>
<polygon fill="midnightblue" stroke="midnightblue" points="989.8,-314.72 979.34,-316.42 988.58,-321.62 989.8,-314.72"/>
</g>
<!-- Node32 -->
<g id="node30" class="node">
<title>Node32</title>
<g id="a_node30"><a xlink:href="classSimpleDualPortRamXpm.html" target="_top" xlink:title=" ">
<polygon fill="white" stroke="black" points="868.5,-608.5 868.5,-627.5 1019.5,-627.5 1019.5,-608.5 868.5,-608.5"/>
<text text-anchor="middle" x="944" y="-615.5" font-family="Helvetica,sans-Serif" font-size="10.00">SimpleDualPortRamXpm(2)</text>
</a>
</g>
</g>
<!-- Node32&#45;&gt;Node13 -->
<g id="edge32" class="edge">
<title>Node32&#45;&gt;Node13</title>
<path fill="none" stroke="midnightblue" d="M1018.84,-604.5C1022.37,-602.87 1025.78,-601.04 1029,-599 1079.87,-566.68 1115.89,-500.25 1128.02,-475.54"/>
<polygon fill="midnightblue" stroke="midnightblue" points="1017.21,-601.38 1009.25,-608.38 1019.83,-607.87 1017.21,-601.38"/>
</g>
<!-- Node33 -->
<g id="node31" class="node">
<title>Node33</title>
<g id="a_node31"><a xlink:href="classSimpleDualPortRamAlteraMf.html" target="_top" xlink:title=" ">
<polygon fill="white" stroke="black" points="859,-570.5 859,-589.5 1029,-589.5 1029,-570.5 859,-570.5"/>
<text text-anchor="middle" x="944" y="-577.5" font-family="Helvetica,sans-Serif" font-size="10.00">SimpleDualPortRamAlteraMf(2)</text>
</a>
</g>
</g>
<!-- Node33&#45;&gt;Node13 -->
<g id="edge33" class="edge">
<title>Node33&#45;&gt;Node13</title>
<path fill="none" stroke="midnightblue" d="M1014.73,-567.26C1019.67,-565.44 1024.48,-563.37 1029,-561 1071.35,-538.82 1109.52,-494.91 1125.09,-475.55"/>
<polygon fill="midnightblue" stroke="midnightblue" points="1013.51,-563.98 1005.12,-570.44 1015.71,-570.62 1013.51,-563.98"/>
</g>
<!-- Node34 -->
<g id="node32" class="node">
<title>Node34</title>
<g id="a_node32"><a xlink:href="classRssiChksum.html" target="_top" xlink:title=" ">
<polygon fill="white" stroke="black" points="899,-532.5 899,-551.5 989,-551.5 989,-532.5 899,-532.5"/>
<text text-anchor="middle" x="944" y="-539.5" font-family="Helvetica,sans-Serif" font-size="10.00">RssiChksum(2)</text>
</a>
</g>
</g>
<!-- Node34&#45;&gt;Node13 -->
<g id="edge34" class="edge">
<title>Node34&#45;&gt;Node13</title>
<path fill="none" stroke="midnightblue" d="M999.21,-532.09C1009.27,-529.6 1019.56,-526.58 1029,-523 1062.56,-510.26 1098.6,-488.3 1118.05,-475.68"/>
<polygon fill="midnightblue" stroke="midnightblue" points="998.22,-528.73 989.29,-534.42 999.82,-535.55 998.22,-528.73"/>
</g>
<!-- Node35 -->
<g id="node33" class="node">
<title>Node35</title>
<g id="a_node33"><a xlink:href="classRssiRxFsm.html" target="_top" xlink:title=" ">
<polygon fill="white" stroke="black" points="908.5,-494.5 908.5,-513.5 979.5,-513.5 979.5,-494.5 908.5,-494.5"/>
<text text-anchor="middle" x="944" y="-501.5" font-family="Helvetica,sans-Serif" font-size="10.00">RssiRxFsm</text>
</a>
</g>
</g>
<!-- Node35&#45;&gt;Node13 -->
<g id="edge35" class="edge">
<title>Node35&#45;&gt;Node13</title>
<path fill="none" stroke="midnightblue" d="M989.91,-494.9C1025.34,-487.72 1073.68,-477.92 1103.99,-471.78"/>
<polygon fill="midnightblue" stroke="midnightblue" points="988.93,-491.52 979.83,-496.94 990.32,-498.39 988.93,-491.52"/>
</g>
<!-- Node36&#45;&gt;Node13 -->
<g id="edge36" class="edge">
<title>Node36&#45;&gt;Node13</title>
<path fill="none" stroke="midnightblue" d="M1010.42,-466C1042.37,-466 1079.17,-466 1103.94,-466"/>
<polygon fill="midnightblue" stroke="midnightblue" points="1010.24,-462.5 1000.24,-466 1010.24,-469.5 1010.24,-462.5"/>
</g>
<!-- Node37&#45;&gt;Node36 -->
<g id="edge37" class="edge">
<title>Node37&#45;&gt;Node36</title>
<path fill="none" stroke="midnightblue" d="M781.99,-368.1C794.23,-378.26 809.99,-391.9 823,-405 840.33,-422.44 837.94,-434.31 859,-447 867.71,-452.25 877.72,-456.05 887.72,-458.8"/>
<polygon fill="midnightblue" stroke="midnightblue" points="784.11,-365.31 774.16,-361.67 779.66,-370.72 784.11,-365.31"/>
</g>
<!-- Node38&#45;&gt;Node37 -->
<g id="edge38" class="edge">
<title>Node38&#45;&gt;Node37</title>
<path fill="none" stroke="midnightblue" d="M658.32,-352C671.84,-352 686.21,-352 699.76,-352"/>
<polygon fill="midnightblue" stroke="midnightblue" points="658.18,-348.5 648.18,-352 658.18,-355.5 658.18,-348.5"/>
</g>
<!-- Node39 -->
<g id="node37" class="node">
<title>Node39</title>
<g id="a_node37"><a xlink:href="classFifoCascade.html" target="_top" xlink:title=" ">
<polygon fill="white" stroke="black" points="553.5,-522.5 553.5,-541.5 642.5,-541.5 642.5,-522.5 553.5,-522.5"/>
<text text-anchor="middle" x="598" y="-529.5" font-family="Helvetica,sans-Serif" font-size="10.00">FifoCascade(2)</text>
</a>
</g>
</g>
<!-- Node39&#45;&gt;Node36 -->
<g id="edge41" class="edge">
<title>Node39&#45;&gt;Node36</title>
<path fill="none" stroke="midnightblue" d="M652.53,-527.52C698.34,-522.89 765.77,-514.14 823,-499 839.6,-494.61 842.58,-490.02 859,-485 870.58,-481.46 883.24,-478.26 895.14,-475.53"/>
<polygon fill="midnightblue" stroke="midnightblue" points="652.13,-524.05 642.52,-528.51 652.82,-531.01 652.13,-524.05"/>
</g>
<!-- Node40&#45;&gt;Node39 -->
<g id="edge42" class="edge">
<title>Node40&#45;&gt;Node39</title>
<path fill="none" stroke="midnightblue" d="M470.71,-551C494.67,-547.4 527.24,-542.5 553.3,-538.57"/>
<polygon fill="midnightblue" stroke="midnightblue" points="470.06,-547.56 460.69,-552.51 471.1,-554.48 470.06,-547.56"/>
</g>
<!-- Node44&#45;&gt;Node13 -->
<g id="edge46" class="edge">
<title>Node44&#45;&gt;Node13</title>
<path fill="none" stroke="midnightblue" d="M998.7,-689.25C1009.54,-686.35 1020.27,-681.87 1029,-675 1097.73,-620.91 1124.16,-509.31 1130.74,-475.75"/>
<polygon fill="midnightblue" stroke="midnightblue" points="997.75,-685.88 988.77,-691.5 999.3,-692.7 997.75,-685.88"/>
</g>
<!-- Node45&#45;&gt;Node44 -->
<g id="edge47" class="edge">
<title>Node45&#45;&gt;Node44</title>
<path fill="none" stroke="midnightblue" d="M323.12,-749.42C335.43,-763.11 354.63,-781.14 376,-789 426.47,-807.56 443.31,-792.12 497,-789 642.62,-780.54 682.8,-791.28 823,-751 862.24,-739.73 904.58,-716.79 926.98,-703.71"/>
<polygon fill="midnightblue" stroke="midnightblue" points="325.56,-746.88 316.39,-741.58 320.25,-751.44 325.56,-746.88"/>
</g>
<!-- Node47 -->
<g id="node42" class="node">
<title>Node47</title>
<g id="a_node42"><a xlink:href="classSynchronizerOneShot.html" target="_top" xlink:title=" ">
<polygon fill="white" stroke="red" points="376,-722.5 376,-741.5 497,-741.5 497,-722.5 376,-722.5"/>
<text text-anchor="middle" x="436.5" y="-729.5" font-family="Helvetica,sans-Serif" font-size="10.00">SynchronizerOneShot</text>
</a>
</g>
</g>
<!-- Node45&#45;&gt;Node47 -->
<g id="edge51" class="edge">
<title>Node45&#45;&gt;Node47</title>
<path fill="none" stroke="midnightblue" d="M346.22,-732C355.55,-732 365.8,-732 375.91,-732"/>
<polygon fill="midnightblue" stroke="midnightblue" points="346.14,-728.5 336.14,-732 346.14,-735.5 346.14,-728.5"/>
</g>
<!-- Node46 -->
<g id="node41" class="node">
<title>Node46</title>
<g id="a_node41"><a xlink:href="classSyncTrigRate.html" target="_top" xlink:title=" ">
<polygon fill="white" stroke="black" points="721,-722.5 721,-741.5 801,-741.5 801,-722.5 721,-722.5"/>
<text text-anchor="middle" x="761" y="-729.5" font-family="Helvetica,sans-Serif" font-size="10.00">SyncTrigRate</text>
</a>
</g>
</g>
<!-- Node46&#45;&gt;Node44 -->
<g id="edge49" class="edge">
<title>Node46&#45;&gt;Node44</title>
<path fill="none" stroke="midnightblue" d="M811.11,-721.69C838.66,-715.91 872.75,-708.75 899.36,-703.16"/>
<polygon fill="midnightblue" stroke="midnightblue" points="810.34,-718.27 801.27,-723.75 811.78,-725.13 810.34,-718.27"/>
</g>
<!-- Node47&#45;&gt;Node46 -->
<g id="edge50" class="edge">
<title>Node47&#45;&gt;Node46</title>
<path fill="none" stroke="midnightblue" d="M507.23,-732C572.48,-732 667.63,-732 720.62,-732"/>
<polygon fill="midnightblue" stroke="midnightblue" points="507.03,-728.5 497.03,-732 507.03,-735.5 507.03,-728.5"/>
</g>
<!-- Node50 -->
<g id="node44" class="node">
<title>Node50</title>
<g id="a_node44"><a xlink:href="classSyncMinMax.html" target="_top" xlink:title=" ">
<polygon fill="white" stroke="black" points="558.5,-684.5 558.5,-703.5 637.5,-703.5 637.5,-684.5 558.5,-684.5"/>
<text text-anchor="middle" x="598" y="-691.5" font-family="Helvetica,sans-Serif" font-size="10.00">SyncMinMax</text>
</a>
</g>
</g>
<!-- Node47&#45;&gt;Node50 -->
<g id="edge55" class="edge">
<title>Node47&#45;&gt;Node50</title>
<path fill="none" stroke="midnightblue" d="M487.62,-720.06C510.49,-714.61 537.14,-708.26 558.41,-703.19"/>
<polygon fill="midnightblue" stroke="midnightblue" points="486.67,-716.69 477.75,-722.41 488.29,-723.5 486.67,-716.69"/>
</g>
<!-- Node53 -->
<g id="node47" class="node">
<title>Node53</title>
<g id="a_node47"><a xlink:href="classSyncMinMax.html" target="_top" xlink:title=" ">
<polygon fill="white" stroke="black" points="552,-646.5 552,-665.5 644,-665.5 644,-646.5 552,-646.5"/>
<text text-anchor="middle" x="598" y="-653.5" font-family="Helvetica,sans-Serif" font-size="10.00">SyncMinMax(2)</text>
</a>
</g>
</g>
<!-- Node47&#45;&gt;Node53 -->
<g id="edge61" class="edge">
<title>Node47&#45;&gt;Node53</title>
<path fill="none" stroke="midnightblue" d="M486.45,-718.63C490.12,-716.95 493.69,-715.08 497,-713 516.7,-700.63 513.17,-687.17 533,-675 539.22,-671.18 546.26,-668.09 553.33,-665.6"/>
<polygon fill="midnightblue" stroke="midnightblue" points="485.09,-715.41 477.16,-722.43 487.74,-721.89 485.09,-715.41"/>
</g>
<!-- Node49&#45;&gt;Node46 -->
<g id="edge52" class="edge">
<title>Node49&#45;&gt;Node46</title>
<path fill="none" stroke="midnightblue" d="M495.51,-764.43C541.09,-759.9 606.16,-753.12 663,-746 682.08,-743.61 703.21,-740.6 720.87,-737.99"/>
<polygon fill="midnightblue" stroke="midnightblue" points="495.12,-760.95 485.51,-765.41 495.8,-767.91 495.12,-760.95"/>
</g>
<!-- Node50&#45;&gt;Node46 -->
<g id="edge54" class="edge">
<title>Node50&#45;&gt;Node46</title>
<path fill="none" stroke="midnightblue" d="M647.34,-705.41C670.86,-710.96 698.76,-717.55 720.91,-722.77"/>
<polygon fill="midnightblue" stroke="midnightblue" points="648.1,-701.99 637.56,-703.1 646.49,-708.81 648.1,-701.99"/>
</g>
<!-- Node51 -->
<g id="node45" class="node">
<title>Node51</title>
<g id="a_node45"><a xlink:href="classDspComparator.html" target="_top" xlink:title=" ">
<polygon fill="white" stroke="red" points="383,-684.5 383,-703.5 490,-703.5 490,-684.5 383,-684.5"/>
<text text-anchor="middle" x="436.5" y="-691.5" font-family="Helvetica,sans-Serif" font-size="10.00">DspComparator(2)</text>
</a>
</g>
</g>
<!-- Node51&#45;&gt;Node50 -->
<g id="edge56" class="edge">
<title>Node51&#45;&gt;Node50</title>
<path fill="none" stroke="midnightblue" d="M500.25,-694C519.84,-694 540.85,-694 558.28,-694"/>
<polygon fill="midnightblue" stroke="midnightblue" points="500.17,-690.5 490.17,-694 500.17,-697.5 500.17,-690.5"/>
</g>
<!-- Node51&#45;&gt;Node53 -->
<g id="edge62" class="edge">
<title>Node51&#45;&gt;Node53</title>
<path fill="none" stroke="midnightblue" d="M487.73,-682.03C510.09,-676.71 536.04,-670.52 557.04,-665.52"/>
<polygon fill="midnightblue" stroke="midnightblue" points="486.67,-678.69 477.75,-684.41 488.29,-685.5 486.67,-678.69"/>
</g>
<!-- Node52&#45;&gt;Node50 -->
<g id="edge57" class="edge">
<title>Node52&#45;&gt;Node50</title>
<path fill="none" stroke="midnightblue" d="M487.62,-667.94C510.49,-673.39 537.14,-679.74 558.41,-684.81"/>
<polygon fill="midnightblue" stroke="midnightblue" points="488.29,-664.5 477.75,-665.59 486.67,-671.31 488.29,-664.5"/>
</g>
<!-- Node52&#45;&gt;Node53 -->
<g id="edge63" class="edge">
<title>Node52&#45;&gt;Node53</title>
<path fill="none" stroke="midnightblue" d="M502.55,-656C519.08,-656 536.49,-656 551.8,-656"/>
<polygon fill="midnightblue" stroke="midnightblue" points="502.39,-652.5 492.39,-656 502.39,-659.5 502.39,-652.5"/>
</g>
<!-- Node53&#45;&gt;Node44 -->
<g id="edge60" class="edge">
<title>Node53&#45;&gt;Node44</title>
<path fill="none" stroke="midnightblue" d="M653.58,-667.5C668.27,-670.28 684.2,-673.02 699,-675 768.7,-684.31 850.26,-689.52 899.21,-692.04"/>
<polygon fill="midnightblue" stroke="midnightblue" points="654.11,-664.03 643.63,-665.57 652.78,-670.91 654.11,-664.03"/>
</g>
<!-- Node54&#45;&gt;Node1 -->
<g id="edge64" class="edge">
<title>Node54&#45;&gt;Node1</title>
<path fill="none" stroke="midnightblue" d="M1181.82,-136.39C1188.64,-138.44 1195.54,-140.67 1202,-143 1225.22,-151.38 1251.01,-163.21 1268.13,-171.43"/>
<polygon fill="midnightblue" stroke="midnightblue" points="1182.52,-132.94 1171.94,-133.5 1180.56,-139.66 1182.52,-132.94"/>
</g>
<!-- Node55&#45;&gt;Node1 -->
<g id="edge66" class="edge">
<title>Node55&#45;&gt;Node1</title>
<path fill="none" stroke="midnightblue" d="M1192.77,-61.64C1196,-63.23 1199.1,-65.01 1202,-67 1243.02,-95.11 1272.33,-149.36 1283.04,-171.37"/>
<polygon fill="midnightblue" stroke="midnightblue" points="1194,-58.35 1183.43,-57.61 1191.23,-64.78 1194,-58.35"/>
</g>
<!-- Node56&#45;&gt;Node1 -->
<g id="edge71" class="edge">
<title>Node56&#45;&gt;Node1</title>
<path fill="none" stroke="midnightblue" d="M659.05,-283.88C770.2,-296.05 1013.81,-311.35 1202,-242 1232.8,-230.65 1262.56,-205.1 1277.51,-190.94"/>
<polygon fill="midnightblue" stroke="midnightblue" points="659.36,-280.39 649.04,-282.75 658.58,-287.35 659.36,-280.39"/>
</g>
</g>
</svg>
