<?xml version="1.0" encoding="UTF-8" standalone="no"?>
<!DOCTYPE svg PUBLIC "-//W3C//DTD SVG 1.1//EN"
 "http://www.w3.org/Graphics/SVG/1.1/DTD/svg11.dtd">
<!-- Generated by graphviz version 2.43.0 (0)
 -->
<!-- Title: AxiStreamFifoV2 Pages: 1 -->
<svg width="740pt" height="302pt"
 viewBox="0.00 0.00 739.94 302.00" xmlns="http://www.w3.org/2000/svg" xmlns:xlink="http://www.w3.org/1999/xlink">
<g id="graph0" class="graph" transform="scale(1 1) rotate(0) translate(4 298)">
<title>AxiStreamFifoV2</title>
<!-- Node1 -->
<g id="Node000001" class="node">
<title>Node1</title>
<g id="a_Node000001"><a xlink:title=" ">
<polygon fill="#999999" stroke="#666666" points="282,-19 184,-19 184,0 282,0 282,-19"/>
<text text-anchor="middle" x="233" y="-7" font-family="Helvetica,sans-Serif" font-size="10.00">AxiStreamFifoV2</text>
</a>
</g>
</g>
<!-- Node2 -->
<g id="Node000002" class="node">
<title>Node2</title>
<g id="a_Node000002"><a xlink:href="classAxiStreamGearbox.html" target="_top" xlink:title=" ">
<polygon fill="white" stroke="#bfbfbf" points="171.5,-74 62.5,-74 62.5,-55 171.5,-55 171.5,-74"/>
<text text-anchor="middle" x="117" y="-62" font-family="Helvetica,sans-Serif" font-size="10.00">AxiStreamGearbox</text>
</a>
</g>
</g>
<!-- Node2&#45;&gt;Node1 -->
<g id="edge1_Node000001_Node000002" class="edge">
<title>Node2&#45;&gt;Node1</title>
<g id="a_edge1_Node000001_Node000002"><a xlink:title=" ">
<path fill="none" stroke="#63b8ff" d="M144.87,-50.77C166.27,-40.99 195.24,-27.75 214.02,-19.17"/>
<polygon fill="#63b8ff" stroke="#63b8ff" points="143.28,-47.65 135.64,-54.98 146.19,-54.01 143.28,-47.65"/>
</a>
</g>
</g>
<!-- Node3 -->
<g id="Node000003" class="node">
<title>Node3</title>
<g id="a_Node000003"><a xlink:href="classAxiStreamResize.html" target="_top" xlink:title=" ">
<polygon fill="white" stroke="#bfbfbf" points="100,-129 0,-129 0,-110 100,-110 100,-129"/>
<text text-anchor="middle" x="50" y="-117" font-family="Helvetica,sans-Serif" font-size="10.00">AxiStreamResize</text>
</a>
</g>
</g>
<!-- Node3&#45;&gt;Node2 -->
<g id="edge2_Node000002_Node000003" class="edge">
<title>Node3&#45;&gt;Node2</title>
<g id="a_edge2_Node000002_Node000003"><a xlink:title=" ">
<path fill="none" stroke="#63b8ff" d="M68.83,-103.6C80.84,-94.11 95.97,-82.13 106.04,-74.17"/>
<polygon fill="#63b8ff" stroke="#63b8ff" points="66.44,-101.04 60.76,-109.98 70.78,-106.53 66.44,-101.04"/>
</a>
</g>
</g>
<!-- Node4 -->
<g id="Node000004" class="node">
<title>Node4</title>
<g id="a_Node000004"><a xlink:href="classAxiStreamPipeline.html" target="_top" xlink:title=" ">
<polygon fill="white" stroke="#bfbfbf" points="124.5,-184 17.5,-184 17.5,-165 124.5,-165 124.5,-184"/>
<text text-anchor="middle" x="71" y="-172" font-family="Helvetica,sans-Serif" font-size="10.00">AxiStreamPipeline</text>
</a>
</g>
</g>
<!-- Node4&#45;&gt;Node1 -->
<g id="edge27_Node000001_Node000004" class="edge">
<title>Node4&#45;&gt;Node1</title>
<g id="a_edge27_Node000001_Node000004"><a xlink:title=" ">
<path fill="none" stroke="#63b8ff" d="M90.22,-158.83C100.99,-150.39 114.52,-139.43 126,-129 151.36,-105.97 157.01,-99.39 180,-74 197.16,-55.05 216.08,-31.75 226.02,-19.32"/>
<polygon fill="#63b8ff" stroke="#63b8ff" points="88.02,-156.1 82.27,-164.99 92.31,-161.63 88.02,-156.1"/>
</a>
</g>
</g>
<!-- Node4&#45;&gt;Node2 -->
<g id="edge4_Node000002_Node000004" class="edge">
<title>Node4&#45;&gt;Node2</title>
<g id="a_edge4_Node000002_Node000004"><a xlink:title=" ">
<path fill="none" stroke="#63b8ff" d="M88.49,-157.7C96.06,-149.84 104.26,-139.73 109,-129 117.08,-110.71 117.75,-86.74 117.44,-74.13"/>
<polygon fill="#63b8ff" stroke="#63b8ff" points="85.98,-155.26 81.28,-164.75 90.88,-160.26 85.98,-155.26"/>
</a>
</g>
</g>
<!-- Node4&#45;&gt;Node3 -->
<g id="edge3_Node000003_Node000004" class="edge">
<title>Node4&#45;&gt;Node3</title>
<g id="a_edge3_Node000003_Node000004"><a xlink:title=" ">
<path fill="none" stroke="#63b8ff" d="M63.76,-155.24C60.25,-146.37 56.2,-136.14 53.4,-129.09"/>
<polygon fill="#63b8ff" stroke="#63b8ff" points="60.59,-156.74 67.53,-164.75 67.1,-154.16 60.59,-156.74"/>
</a>
</g>
</g>
<!-- Node5 -->
<g id="Node000005" class="node">
<title>Node5</title>
<g id="a_Node000005"><a xlink:href="classFifoCascade.html" target="_top" xlink:title=" ">
<polygon fill="white" stroke="#bfbfbf" points="304,-74 228,-74 228,-55 304,-55 304,-74"/>
<text text-anchor="middle" x="266" y="-62" font-family="Helvetica,sans-Serif" font-size="10.00">FifoCascade</text>
</a>
</g>
</g>
<!-- Node5&#45;&gt;Node1 -->
<g id="edge5_Node000001_Node000005" class="edge">
<title>Node5&#45;&gt;Node1</title>
<g id="a_edge5_Node000001_Node000005"><a xlink:title=" ">
<path fill="none" stroke="#63b8ff" d="M255.17,-46.1C249.53,-37.04 242.88,-26.37 238.35,-19.09"/>
<polygon fill="#63b8ff" stroke="#63b8ff" points="252.29,-48.11 260.55,-54.75 258.24,-44.41 252.29,-48.11"/>
</a>
</g>
</g>
<!-- Node6 -->
<g id="Node000006" class="node">
<title>Node6</title>
<g id="a_Node000006"><a xlink:href="classFifo.html" target="_top" xlink:title=" ">
<polygon fill="white" stroke="#bfbfbf" points="283.5,-129 248.5,-129 248.5,-110 283.5,-110 283.5,-129"/>
<text text-anchor="middle" x="266" y="-117" font-family="Helvetica,sans-Serif" font-size="10.00">Fifo</text>
</a>
</g>
</g>
<!-- Node6&#45;&gt;Node5 -->
<g id="edge6_Node000005_Node000006" class="edge">
<title>Node6&#45;&gt;Node5</title>
<g id="a_edge6_Node000005_Node000006"><a xlink:title=" ">
<path fill="none" stroke="#63b8ff" d="M266,-99.66C266,-90.93 266,-80.99 266,-74.09"/>
<polygon fill="#63b8ff" stroke="#63b8ff" points="262.5,-99.75 266,-109.75 269.5,-99.75 262.5,-99.75"/>
</a>
</g>
</g>
<!-- Node7 -->
<g id="Node000007" class="node">
<title>Node7</title>
<g id="a_Node000007"><a xlink:href="classFifoXpm.html" target="_top" xlink:title=" ">
<polygon fill="white" stroke="#bfbfbf" points="199.5,-184 142.5,-184 142.5,-165 199.5,-165 199.5,-184"/>
<text text-anchor="middle" x="171" y="-172" font-family="Helvetica,sans-Serif" font-size="10.00">FifoXpm</text>
</a>
</g>
</g>
<!-- Node7&#45;&gt;Node6 -->
<g id="edge7_Node000006_Node000007" class="edge">
<title>Node7&#45;&gt;Node6</title>
<g id="a_edge7_Node000006_Node000007"><a xlink:title=" ">
<path fill="none" stroke="#63b8ff" d="M195.26,-159.97C212.63,-150.28 235.49,-137.52 250.46,-129.17"/>
<polygon fill="#63b8ff" stroke="#63b8ff" points="193.29,-157.06 186.26,-164.98 196.7,-163.17 193.29,-157.06"/>
</a>
</g>
</g>
<!-- Node8 -->
<g id="Node000008" class="node">
<title>Node8</title>
<g id="a_Node000008"><a xlink:href="classRstSync.html" target="_top" xlink:title=" ">
<polygon fill="white" stroke="#bfbfbf" points="103,-239 47,-239 47,-220 103,-220 103,-239"/>
<text text-anchor="middle" x="75" y="-227" font-family="Helvetica,sans-Serif" font-size="10.00">RstSync</text>
</a>
</g>
</g>
<!-- Node8&#45;&gt;Node7 -->
<g id="edge8_Node000007_Node000008" class="edge">
<title>Node8&#45;&gt;Node7</title>
<g id="a_edge8_Node000007_Node000008"><a xlink:title=" ">
<path fill="none" stroke="#63b8ff" d="M99.52,-214.97C117.06,-205.28 140.17,-192.52 155.3,-184.17"/>
<polygon fill="#63b8ff" stroke="#63b8ff" points="97.49,-212.09 90.42,-219.98 100.87,-218.22 97.49,-212.09"/>
</a>
</g>
</g>
<!-- Node12 -->
<g id="Node000012" class="node">
<title>Node12</title>
<g id="a_Node000012"><a xlink:href="classFifoAsync.html" target="_top" xlink:title=" ">
<polygon fill="white" stroke="#bfbfbf" points="377,-184 313,-184 313,-165 377,-165 377,-184"/>
<text text-anchor="middle" x="345" y="-172" font-family="Helvetica,sans-Serif" font-size="10.00">FifoAsync</text>
</a>
</g>
</g>
<!-- Node8&#45;&gt;Node12 -->
<g id="edge14_Node000012_Node000008" class="edge">
<title>Node8&#45;&gt;Node12</title>
<g id="a_edge14_Node000012_Node000008"><a xlink:title=" ">
<path fill="none" stroke="#63b8ff" d="M113.1,-219.84C198.2,-202.18 221.28,-199.97 303,-184 306.21,-183.37 309.56,-182.71 312.91,-182.04"/>
<polygon fill="#63b8ff" stroke="#63b8ff" points="112.33,-216.42 103.26,-221.89 113.76,-223.27 112.33,-216.42"/>
</a>
</g>
</g>
<!-- Node9 -->
<g id="Node000009" class="node">
<title>Node9</title>
<g id="a_Node000009"><a xlink:href="classSynchronizer.html" target="_top" xlink:title=" ">
<polygon fill="white" stroke="#bfbfbf" points="297,-294 217,-294 217,-275 297,-275 297,-294"/>
<text text-anchor="middle" x="257" y="-282" font-family="Helvetica,sans-Serif" font-size="10.00">Synchronizer</text>
</a>
</g>
</g>
<!-- Node9&#45;&gt;Node1 -->
<g id="edge26_Node000001_Node000009" class="edge">
<title>Node9&#45;&gt;Node1</title>
<g id="a_edge26_Node000001_Node000009"><a xlink:title=" ">
<path fill="none" stroke="#63b8ff" d="M307.16,-281.71C418.97,-277.29 681.25,-264.32 712,-239 734.74,-220.28 731,-204.96 731,-175.5 731,-175.5 731,-175.5 731,-118.5 731,-27.27 407.75,-12.94 282.11,-10.81"/>
<polygon fill="#63b8ff" stroke="#63b8ff" points="307,-278.22 297.14,-282.1 307.27,-285.21 307,-278.22"/>
</a>
</g>
</g>
<!-- Node9&#45;&gt;Node8 -->
<g id="edge9_Node000008_Node000009" class="edge">
<title>Node9&#45;&gt;Node8</title>
<g id="a_edge9_Node000008_Node000009"><a xlink:title=" ">
<path fill="none" stroke="#63b8ff" d="M218.02,-272.15C183.54,-262.11 134.07,-247.7 103.27,-238.73"/>
<polygon fill="#63b8ff" stroke="#63b8ff" points="217.18,-275.55 227.76,-274.98 219.14,-268.83 217.18,-275.55"/>
</a>
</g>
</g>
<!-- Node9&#45;&gt;Node12 -->
<g id="edge16_Node000012_Node000009" class="edge">
<title>Node9&#45;&gt;Node12</title>
<g id="a_edge16_Node000012_Node000009"><a xlink:title=" ">
<path fill="none" stroke="#63b8ff" d="M259.1,-264.76C261.4,-251.22 266.17,-233.08 276,-220 288.42,-203.48 308.9,-191.39 324.34,-184.02"/>
<polygon fill="#63b8ff" stroke="#63b8ff" points="255.61,-264.46 257.69,-274.85 262.54,-265.43 255.61,-264.46"/>
</a>
</g>
</g>
<!-- Node10 -->
<g id="Node000010" class="node">
<title>Node10</title>
<g id="a_Node000010"><a xlink:href="classFifoOutputPipeline.html" target="_top" xlink:title=" ">
<polygon fill="white" stroke="#bfbfbf" points="228.5,-239 121.5,-239 121.5,-220 228.5,-220 228.5,-239"/>
<text text-anchor="middle" x="175" y="-227" font-family="Helvetica,sans-Serif" font-size="10.00">FifoOutputPipeline</text>
</a>
</g>
</g>
<!-- Node10&#45;&gt;Node7 -->
<g id="edge10_Node000007_Node000010" class="edge">
<title>Node10&#45;&gt;Node7</title>
<g id="a_edge10_Node000007_Node000010"><a xlink:title=" ">
<path fill="none" stroke="#63b8ff" d="M173.58,-209.66C172.92,-200.93 172.17,-190.99 171.65,-184.09"/>
<polygon fill="#63b8ff" stroke="#63b8ff" points="170.1,-210.04 174.34,-219.75 177.08,-209.51 170.1,-210.04"/>
</a>
</g>
</g>
<!-- Node11 -->
<g id="Node000011" class="node">
<title>Node11</title>
<g id="a_Node000011"><a xlink:href="classFifoAlteraMf.html" target="_top" xlink:title=" ">
<polygon fill="white" stroke="#bfbfbf" points="294.5,-184 217.5,-184 217.5,-165 294.5,-165 294.5,-184"/>
<text text-anchor="middle" x="256" y="-172" font-family="Helvetica,sans-Serif" font-size="10.00">FifoAlteraMf</text>
</a>
</g>
</g>
<!-- Node10&#45;&gt;Node11 -->
<g id="edge12_Node000011_Node000010" class="edge">
<title>Node10&#45;&gt;Node11</title>
<g id="a_edge12_Node000011_Node000010"><a xlink:title=" ">
<path fill="none" stroke="#63b8ff" d="M196.51,-214.42C211.21,-204.81 230.22,-192.37 242.75,-184.17"/>
<polygon fill="#63b8ff" stroke="#63b8ff" points="194.47,-211.58 188.01,-219.98 198.3,-217.44 194.47,-211.58"/>
</a>
</g>
</g>
<!-- Node10&#45;&gt;Node12 -->
<g id="edge20_Node000012_Node000010" class="edge">
<title>Node10&#45;&gt;Node12</title>
<g id="a_edge20_Node000012_Node000010"><a xlink:title=" ">
<path fill="none" stroke="#63b8ff" d="M212.12,-216.93C243.87,-207.03 288.85,-193.01 317.47,-184.08"/>
<polygon fill="#63b8ff" stroke="#63b8ff" points="210.82,-213.67 202.31,-219.98 212.9,-220.35 210.82,-213.67"/>
</a>
</g>
</g>
<!-- Node17 -->
<g id="Node000017" class="node">
<title>Node17</title>
<g id="a_Node000017"><a xlink:href="classFifoSync.html" target="_top" xlink:title=" ">
<polygon fill="white" stroke="#bfbfbf" points="477,-184 419,-184 419,-165 477,-165 477,-184"/>
<text text-anchor="middle" x="448" y="-172" font-family="Helvetica,sans-Serif" font-size="10.00">FifoSync</text>
</a>
</g>
</g>
<!-- Node10&#45;&gt;Node17 -->
<g id="edge25_Node000017_Node000010" class="edge">
<title>Node10&#45;&gt;Node17</title>
<g id="a_edge25_Node000017_Node000010"><a xlink:title=" ">
<path fill="none" stroke="#63b8ff" d="M228.78,-218.06C285.79,-206.99 373.71,-189.92 418.94,-181.14"/>
<polygon fill="#63b8ff" stroke="#63b8ff" points="228.01,-214.64 218.86,-219.98 229.35,-221.51 228.01,-214.64"/>
</a>
</g>
</g>
<!-- Node11&#45;&gt;Node6 -->
<g id="edge11_Node000006_Node000011" class="edge">
<title>Node11&#45;&gt;Node6</title>
<g id="a_edge11_Node000006_Node000011"><a xlink:title=" ">
<path fill="none" stroke="#63b8ff" d="M259.55,-154.66C261.2,-145.93 263.08,-135.99 264.38,-129.09"/>
<polygon fill="#63b8ff" stroke="#63b8ff" points="256.07,-154.27 257.65,-164.75 262.94,-155.57 256.07,-154.27"/>
</a>
</g>
</g>
<!-- Node12&#45;&gt;Node6 -->
<g id="edge13_Node000006_Node000012" class="edge">
<title>Node12&#45;&gt;Node6</title>
<g id="a_edge13_Node000006_Node000012"><a xlink:title=" ">
<path fill="none" stroke="#63b8ff" d="M323.61,-159.15C309.33,-149.57 291.03,-137.29 278.92,-129.17"/>
<polygon fill="#63b8ff" stroke="#63b8ff" points="322.05,-162.32 332.31,-164.98 325.95,-156.51 322.05,-162.32"/>
</a>
</g>
</g>
<!-- Node13 -->
<g id="Node000013" class="node">
<title>Node13</title>
<g id="a_Node000013"><a xlink:href="classSynchronizerVector.html" target="_top" xlink:title=" ">
<polygon fill="white" stroke="#bfbfbf" points="395,-239 285,-239 285,-220 395,-220 395,-239"/>
<text text-anchor="middle" x="340" y="-227" font-family="Helvetica,sans-Serif" font-size="10.00">SynchronizerVector</text>
</a>
</g>
</g>
<!-- Node13&#45;&gt;Node12 -->
<g id="edge15_Node000012_Node000013" class="edge">
<title>Node13&#45;&gt;Node12</title>
<g id="a_edge15_Node000012_Node000013"><a xlink:title=" ">
<path fill="none" stroke="#63b8ff" d="M341.78,-209.66C342.6,-200.93 343.54,-190.99 344.19,-184.09"/>
<polygon fill="#63b8ff" stroke="#63b8ff" points="338.28,-209.46 340.83,-219.75 345.25,-210.12 338.28,-209.46"/>
</a>
</g>
</g>
<!-- Node14 -->
<g id="Node000014" class="node">
<title>Node14</title>
<g id="a_Node000014"><a xlink:href="classFifoWrFsm.html" target="_top" xlink:title=" ">
<polygon fill="white" stroke="#bfbfbf" points="482.5,-239 413.5,-239 413.5,-220 482.5,-220 482.5,-239"/>
<text text-anchor="middle" x="448" y="-227" font-family="Helvetica,sans-Serif" font-size="10.00">FifoWrFsm</text>
</a>
</g>
</g>
<!-- Node14&#45;&gt;Node12 -->
<g id="edge17_Node000012_Node000014" class="edge">
<title>Node14&#45;&gt;Node12</title>
<g id="a_edge17_Node000012_Node000014"><a xlink:title=" ">
<path fill="none" stroke="#63b8ff" d="M422.48,-215.37C403.56,-205.63 378.3,-192.64 361.85,-184.17"/>
<polygon fill="#63b8ff" stroke="#63b8ff" points="420.96,-218.52 431.45,-219.98 424.16,-212.3 420.96,-218.52"/>
</a>
</g>
</g>
<!-- Node14&#45;&gt;Node17 -->
<g id="edge22_Node000017_Node000014" class="edge">
<title>Node14&#45;&gt;Node17</title>
<g id="a_edge22_Node000017_Node000014"><a xlink:title=" ">
<path fill="none" stroke="#63b8ff" d="M448,-209.66C448,-200.93 448,-190.99 448,-184.09"/>
<polygon fill="#63b8ff" stroke="#63b8ff" points="444.5,-209.75 448,-219.75 451.5,-209.75 444.5,-209.75"/>
</a>
</g>
</g>
<!-- Node15 -->
<g id="Node000015" class="node">
<title>Node15</title>
<g id="a_Node000015"><a xlink:href="classFifoRdFsm.html" target="_top" xlink:title=" ">
<polygon fill="white" stroke="#bfbfbf" points="569,-239 501,-239 501,-220 569,-220 569,-239"/>
<text text-anchor="middle" x="535" y="-227" font-family="Helvetica,sans-Serif" font-size="10.00">FifoRdFsm</text>
</a>
</g>
</g>
<!-- Node15&#45;&gt;Node12 -->
<g id="edge18_Node000012_Node000015" class="edge">
<title>Node15&#45;&gt;Node12</title>
<g id="a_edge18_Node000012_Node000015"><a xlink:title=" ">
<path fill="none" stroke="#63b8ff" d="M494.43,-217.18C458.9,-207.27 408.03,-193.08 375.77,-184.08"/>
<polygon fill="#63b8ff" stroke="#63b8ff" points="493.9,-220.67 504.47,-219.98 495.78,-213.93 493.9,-220.67"/>
</a>
</g>
</g>
<!-- Node15&#45;&gt;Node17 -->
<g id="edge23_Node000017_Node000015" class="edge">
<title>Node15&#45;&gt;Node17</title>
<g id="a_edge23_Node000017_Node000015"><a xlink:title=" ">
<path fill="none" stroke="#63b8ff" d="M512.34,-214.7C496.49,-205.04 475.81,-192.44 462.23,-184.17"/>
<polygon fill="#63b8ff" stroke="#63b8ff" points="510.66,-217.77 521.02,-219.98 514.3,-211.79 510.66,-217.77"/>
</a>
</g>
</g>
<!-- Node16 -->
<g id="Node000016" class="node">
<title>Node16</title>
<g id="a_Node000016"><a xlink:href="classSimpleDualPortRam.html" target="_top" xlink:title=" ">
<polygon fill="white" stroke="#bfbfbf" points="702.5,-239 587.5,-239 587.5,-220 702.5,-220 702.5,-239"/>
<text text-anchor="middle" x="645" y="-227" font-family="Helvetica,sans-Serif" font-size="10.00">SimpleDualPortRam</text>
</a>
</g>
</g>
<!-- Node16&#45;&gt;Node12 -->
<g id="edge19_Node000012_Node000016" class="edge">
<title>Node16&#45;&gt;Node12</title>
<g id="a_edge19_Node000012_Node000016"><a xlink:title=" ">
<path fill="none" stroke="#63b8ff" d="M586.7,-218.2C524.26,-207.17 427.4,-190.06 377.36,-181.22"/>
<polygon fill="#63b8ff" stroke="#63b8ff" points="586.34,-221.69 596.8,-219.98 587.56,-214.8 586.34,-221.69"/>
</a>
</g>
</g>
<!-- Node16&#45;&gt;Node17 -->
<g id="edge24_Node000017_Node000016" class="edge">
<title>Node16&#45;&gt;Node17</title>
<g id="a_edge24_Node000017_Node000016"><a xlink:title=" ">
<path fill="none" stroke="#63b8ff" d="M603.62,-217.37C565.67,-207.16 510.45,-192.3 477.01,-183.3"/>
<polygon fill="#63b8ff" stroke="#63b8ff" points="602.78,-220.77 613.35,-219.98 604.6,-214.01 602.78,-220.77"/>
</a>
</g>
</g>
<!-- Node17&#45;&gt;Node6 -->
<g id="edge21_Node000006_Node000017" class="edge">
<title>Node17&#45;&gt;Node6</title>
<g id="a_edge21_Node000006_Node000017"><a xlink:title=" ">
<path fill="none" stroke="#63b8ff" d="M408.84,-162.1C370.04,-150.8 312.36,-134 283.61,-125.63"/>
<polygon fill="#63b8ff" stroke="#63b8ff" points="408.18,-165.55 418.76,-164.98 410.14,-158.83 408.18,-165.55"/>
</a>
</g>
</g>
</g>
</svg>
