<?xml version="1.0" encoding="UTF-8" standalone="no"?>
<!DOCTYPE svg PUBLIC "-//W3C//DTD SVG 1.1//EN"
 "http://www.w3.org/Graphics/SVG/1.1/DTD/svg11.dtd">
<!-- Generated by graphviz version 2.43.0 (0)
 -->
<!-- Title: SugoiSubordinateSimModel Pages: 1 -->
<svg width="791pt" height="412pt"
 viewBox="0.00 0.00 790.62 412.00" xmlns="http://www.w3.org/2000/svg" xmlns:xlink="http://www.w3.org/1999/xlink">
<g id="graph0" class="graph" transform="scale(1 1) rotate(0) translate(4 408)">
<title>SugoiSubordinateSimModel</title>
<!-- Node1 -->
<g id="Node000001" class="node">
<title>Node1</title>
<g id="a_Node000001"><a xlink:title=" ">
<polygon fill="#999999" stroke="#666666" points="600,-74 449,-74 449,-55 600,-55 600,-74"/>
<text text-anchor="middle" x="524.5" y="-62" font-family="Helvetica,sans-Serif" font-size="10.00">SugoiSubordinateSimModel</text>
</a>
</g>
</g>
<!-- Node25 -->
<g id="Node000025" class="node">
<title>Node25</title>
<g id="a_Node000025"><a xlink:href="classSugoiTopTb.html" target="_top" xlink:title=" ">
<polygon fill="white" stroke="#bfbfbf" points="560.5,-19 488.5,-19 488.5,0 560.5,0 560.5,-19"/>
<text text-anchor="middle" x="524.5" y="-7" font-family="Helvetica,sans-Serif" font-size="10.00">SugoiTopTb</text>
</a>
</g>
</g>
<!-- Node1&#45;&gt;Node25 -->
<g id="edge33_Node000001_Node000025" class="edge">
<title>Node1&#45;&gt;Node25</title>
<g id="a_edge33_Node000001_Node000025"><a xlink:title=" ">
<path fill="none" stroke="#63b8ff" d="M524.5,-44.66C524.5,-35.93 524.5,-25.99 524.5,-19.09"/>
<polygon fill="#63b8ff" stroke="#63b8ff" points="521,-44.75 524.5,-54.75 528,-44.75 521,-44.75"/>
</a>
</g>
</g>
<!-- Node2 -->
<g id="Node000002" class="node">
<title>Node2</title>
<g id="a_Node000002"><a xlink:href="classSugoiSubordinateCore.html" target="_top" xlink:title=" ">
<polygon fill="white" stroke="#bfbfbf" points="352,-129 227,-129 227,-110 352,-110 352,-129"/>
<text text-anchor="middle" x="289.5" y="-117" font-family="Helvetica,sans-Serif" font-size="10.00">SugoiSubordinateCore</text>
</a>
</g>
</g>
<!-- Node2&#45;&gt;Node1 -->
<g id="edge1_Node000001_Node000002" class="edge">
<title>Node2&#45;&gt;Node1</title>
<g id="a_edge1_Node000001_Node000002"><a xlink:title=" ">
<path fill="none" stroke="#63b8ff" d="M337.15,-107.75C381.19,-97.82 445.77,-83.26 486.45,-74.08"/>
<polygon fill="#63b8ff" stroke="#63b8ff" points="336.24,-104.37 327.26,-109.98 337.78,-111.2 336.24,-104.37"/>
</a>
</g>
</g>
<!-- Node3 -->
<g id="Node000003" class="node">
<title>Node3</title>
<g id="a_Node000003"><a xlink:href="classGearbox.html" target="_top" xlink:title=" ">
<polygon fill="white" stroke="#bfbfbf" points="408.5,-184 350.5,-184 350.5,-165 408.5,-165 408.5,-184"/>
<text text-anchor="middle" x="379.5" y="-172" font-family="Helvetica,sans-Serif" font-size="10.00">Gearbox</text>
</a>
</g>
</g>
<!-- Node3&#45;&gt;Node2 -->
<g id="edge2_Node000002_Node000003" class="edge">
<title>Node3&#45;&gt;Node2</title>
<g id="a_edge2_Node000002_Node000003"><a xlink:title=" ">
<path fill="none" stroke="#63b8ff" d="M356.06,-159.7C339.66,-150.04 318.27,-137.44 304.22,-129.17"/>
<polygon fill="#63b8ff" stroke="#63b8ff" points="354.65,-162.93 365.04,-164.98 358.2,-156.89 354.65,-162.93"/>
</a>
</g>
</g>
<!-- Node4 -->
<g id="Node000004" class="node">
<title>Node4</title>
<g id="a_Node000004"><a xlink:href="classDecoder8b10b.html" target="_top" xlink:title=" ">
<polygon fill="white" stroke="#bfbfbf" points="87,-184 0,-184 0,-165 87,-165 87,-184"/>
<text text-anchor="middle" x="43.5" y="-172" font-family="Helvetica,sans-Serif" font-size="10.00">Decoder8b10b</text>
</a>
</g>
</g>
<!-- Node4&#45;&gt;Node2 -->
<g id="edge3_Node000002_Node000004" class="edge">
<title>Node4&#45;&gt;Node2</title>
<g id="a_edge3_Node000002_Node000004"><a xlink:title=" ">
<path fill="none" stroke="#63b8ff" d="M92.8,-162.88C138.91,-152.94 206.9,-138.3 249.67,-129.08"/>
<polygon fill="#63b8ff" stroke="#63b8ff" points="92.06,-159.46 83.02,-164.98 93.54,-166.3 92.06,-159.46"/>
</a>
</g>
</g>
<!-- Node5 -->
<g id="Node000005" class="node">
<title>Node5</title>
<g id="a_Node000005"><a xlink:href="classSugoiSubordinateFsm.html" target="_top" xlink:title=" ">
<polygon fill="white" stroke="#bfbfbf" points="228,-184 105,-184 105,-165 228,-165 228,-184"/>
<text text-anchor="middle" x="166.5" y="-172" font-family="Helvetica,sans-Serif" font-size="10.00">SugoiSubordinateFsm</text>
</a>
</g>
</g>
<!-- Node5&#45;&gt;Node2 -->
<g id="edge4_Node000002_Node000005" class="edge">
<title>Node5&#45;&gt;Node2</title>
<g id="a_edge4_Node000002_Node000005"><a xlink:title=" ">
<path fill="none" stroke="#63b8ff" d="M195.75,-160.9C218.47,-151.11 249.37,-137.79 269.38,-129.17"/>
<polygon fill="#63b8ff" stroke="#63b8ff" points="194.06,-157.81 186.26,-164.98 196.83,-164.24 194.06,-157.81"/>
</a>
</g>
</g>
<!-- Node6 -->
<g id="Node000006" class="node">
<title>Node6</title>
<g id="a_Node000006"><a xlink:href="classEncoder8b10b.html" target="_top" xlink:title=" ">
<polygon fill="white" stroke="#bfbfbf" points="332.5,-184 246.5,-184 246.5,-165 332.5,-165 332.5,-184"/>
<text text-anchor="middle" x="289.5" y="-172" font-family="Helvetica,sans-Serif" font-size="10.00">Encoder8b10b</text>
</a>
</g>
</g>
<!-- Node6&#45;&gt;Node2 -->
<g id="edge5_Node000002_Node000006" class="edge">
<title>Node6&#45;&gt;Node2</title>
<g id="a_edge5_Node000002_Node000006"><a xlink:title=" ">
<path fill="none" stroke="#63b8ff" d="M289.5,-154.66C289.5,-145.93 289.5,-135.99 289.5,-129.09"/>
<polygon fill="#63b8ff" stroke="#63b8ff" points="286,-154.75 289.5,-164.75 293,-154.75 286,-154.75"/>
</a>
</g>
</g>
<!-- Node7 -->
<g id="Node000007" class="node">
<title>Node7</title>
<g id="a_Node000007"><a xlink:href="classAxiLiteCrossbar.html" target="_top" xlink:title=" ">
<polygon fill="white" stroke="#bfbfbf" points="472,-129 379,-129 379,-110 472,-110 472,-129"/>
<text text-anchor="middle" x="425.5" y="-117" font-family="Helvetica,sans-Serif" font-size="10.00">AxiLiteCrossbar</text>
</a>
</g>
</g>
<!-- Node7&#45;&gt;Node1 -->
<g id="edge6_Node000001_Node000007" class="edge">
<title>Node7&#45;&gt;Node1</title>
<g id="a_edge6_Node000001_Node000007"><a xlink:title=" ">
<path fill="none" stroke="#63b8ff" d="M450.28,-105.23C468.44,-95.51 492.56,-82.6 508.3,-74.17"/>
<polygon fill="#63b8ff" stroke="#63b8ff" points="448.57,-102.18 441.41,-109.98 451.87,-108.35 448.57,-102.18"/>
</a>
</g>
</g>
<!-- Node8 -->
<g id="Node000008" class="node">
<title>Node8</title>
<g id="a_Node000008"><a xlink:href="classAxiVersion.html" target="_top" xlink:title=" ">
<polygon fill="white" stroke="#bfbfbf" points="558.5,-129 490.5,-129 490.5,-110 558.5,-110 558.5,-129"/>
<text text-anchor="middle" x="524.5" y="-117" font-family="Helvetica,sans-Serif" font-size="10.00">AxiVersion</text>
</a>
</g>
</g>
<!-- Node8&#45;&gt;Node1 -->
<g id="edge7_Node000001_Node000008" class="edge">
<title>Node8&#45;&gt;Node1</title>
<g id="a_edge7_Node000001_Node000008"><a xlink:title=" ">
<path fill="none" stroke="#63b8ff" d="M524.5,-99.66C524.5,-90.93 524.5,-80.99 524.5,-74.09"/>
<polygon fill="#63b8ff" stroke="#63b8ff" points="521,-99.75 524.5,-109.75 528,-99.75 521,-99.75"/>
</a>
</g>
</g>
<!-- Node9 -->
<g id="Node000009" class="node">
<title>Node9</title>
<g id="a_Node000009"><a xlink:href="classDeviceDna.html" target="_top" xlink:title=" ">
<polygon fill="white" stroke="#bfbfbf" points="669.5,-239 599.5,-239 599.5,-220 669.5,-220 669.5,-239"/>
<text text-anchor="middle" x="634.5" y="-227" font-family="Helvetica,sans-Serif" font-size="10.00">DeviceDna</text>
</a>
</g>
</g>
<!-- Node9&#45;&gt;Node8 -->
<g id="edge8_Node000008_Node000009" class="edge">
<title>Node9&#45;&gt;Node8</title>
<g id="a_edge8_Node000008_Node000009"><a xlink:title=" ">
<path fill="none" stroke="#63b8ff" d="M621.95,-211.55C611.74,-198.25 596.59,-179.61 581.5,-165 567.25,-151.2 548.87,-137.49 536.9,-129.01"/>
<polygon fill="#63b8ff" stroke="#63b8ff" points="619.35,-213.91 628.17,-219.79 624.94,-209.7 619.35,-213.91"/>
</a>
</g>
</g>
<!-- Node10 -->
<g id="Node000010" class="node">
<title>Node10</title>
<g id="a_Node000010"><a xlink:href="classDeviceDna7Series.html" target="_top" xlink:title=" ">
<polygon fill="white" stroke="#bfbfbf" points="766.5,-294 660.5,-294 660.5,-275 766.5,-275 766.5,-294"/>
<text text-anchor="middle" x="713.5" y="-282" font-family="Helvetica,sans-Serif" font-size="10.00">DeviceDna7Series</text>
</a>
</g>
</g>
<!-- Node10&#45;&gt;Node9 -->
<g id="edge9_Node000009_Node000010" class="edge">
<title>Node10&#45;&gt;Node9</title>
<g id="a_edge9_Node000009_Node000010"><a xlink:title=" ">
<path fill="none" stroke="#63b8ff" d="M692.11,-269.15C677.83,-259.57 659.53,-247.29 647.42,-239.17"/>
<polygon fill="#63b8ff" stroke="#63b8ff" points="690.55,-272.32 700.81,-274.98 694.45,-266.51 690.55,-272.32"/>
</a>
</g>
</g>
<!-- Node11 -->
<g id="Node000011" class="node">
<title>Node11</title>
<g id="a_Node000011"><a xlink:href="classRstSync.html" target="_top" xlink:title=" ">
<polygon fill="white" stroke="#bfbfbf" points="404.5,-349 348.5,-349 348.5,-330 404.5,-330 404.5,-349"/>
<text text-anchor="middle" x="376.5" y="-337" font-family="Helvetica,sans-Serif" font-size="10.00">RstSync</text>
</a>
</g>
</g>
<!-- Node11&#45;&gt;Node10 -->
<g id="edge10_Node000010_Node000011" class="edge">
<title>Node11&#45;&gt;Node10</title>
<g id="a_edge10_Node000010_Node000011"><a xlink:title=" ">
<path fill="none" stroke="#63b8ff" d="M414.87,-332.47C475.11,-322.99 592.03,-304.6 660.34,-293.86"/>
<polygon fill="#63b8ff" stroke="#63b8ff" points="413.99,-329.06 404.65,-334.07 415.08,-335.98 413.99,-329.06"/>
</a>
</g>
</g>
<!-- Node14 -->
<g id="Node000014" class="node">
<title>Node14</title>
<g id="a_Node000014"><a xlink:href="classDeviceDnaUltraScale.html" target="_top" xlink:title=" ">
<polygon fill="white" stroke="#bfbfbf" points="642.5,-294 522.5,-294 522.5,-275 642.5,-275 642.5,-294"/>
<text text-anchor="middle" x="582.5" y="-282" font-family="Helvetica,sans-Serif" font-size="10.00">DeviceDnaUltraScale</text>
</a>
</g>
</g>
<!-- Node11&#45;&gt;Node14 -->
<g id="edge14_Node000014_Node000011" class="edge">
<title>Node11&#45;&gt;Node14</title>
<g id="a_edge14_Node000014_Node000011"><a xlink:title=" ">
<path fill="none" stroke="#63b8ff" d="M414.54,-328.71C453.16,-318.78 512.35,-303.55 549.18,-294.07"/>
<polygon fill="#63b8ff" stroke="#63b8ff" points="413.52,-325.36 404.71,-331.24 415.27,-332.14 413.52,-325.36"/>
</a>
</g>
</g>
<!-- Node18 -->
<g id="Node000018" class="node">
<title>Node18</title>
<g id="a_Node000018"><a xlink:href="classIprog7Series.html" target="_top" xlink:title=" ">
<polygon fill="white" stroke="#bfbfbf" points="480,-239 403,-239 403,-220 480,-220 480,-239"/>
<text text-anchor="middle" x="441.5" y="-227" font-family="Helvetica,sans-Serif" font-size="10.00">Iprog7Series</text>
</a>
</g>
</g>
<!-- Node11&#45;&gt;Node18 -->
<g id="edge20_Node000018_Node000011" class="edge">
<title>Node11&#45;&gt;Node18</title>
<g id="a_edge20_Node000018_Node000011"><a xlink:title=" ">
<path fill="none" stroke="#63b8ff" d="M379.48,-319.86C382.19,-306.62 387.09,-288.83 395.5,-275 404.39,-260.38 419.23,-247.25 429.65,-239.1"/>
<polygon fill="#63b8ff" stroke="#63b8ff" points="376.03,-319.25 377.68,-329.71 382.92,-320.5 376.03,-319.25"/>
</a>
</g>
</g>
<!-- Node21 -->
<g id="Node000021" class="node">
<title>Node21</title>
<g id="a_Node000021"><a xlink:href="classIprogUltraScale.html" target="_top" xlink:title=" ">
<polygon fill="white" stroke="#bfbfbf" points="384.5,-239 292.5,-239 292.5,-220 384.5,-220 384.5,-239"/>
<text text-anchor="middle" x="338.5" y="-227" font-family="Helvetica,sans-Serif" font-size="10.00">IprogUltraScale</text>
</a>
</g>
</g>
<!-- Node11&#45;&gt;Node21 -->
<g id="edge26_Node000021_Node000011" class="edge">
<title>Node11&#45;&gt;Node21</title>
<g id="a_edge26_Node000021_Node000011"><a xlink:title=" ">
<path fill="none" stroke="#63b8ff" d="M370.03,-320.12C361.74,-296.56 347.7,-256.66 341.55,-239.16"/>
<polygon fill="#63b8ff" stroke="#63b8ff" points="366.77,-321.39 373.39,-329.66 373.37,-319.07 366.77,-321.39"/>
</a>
</g>
</g>
<!-- Node22 -->
<g id="Node000022" class="node">
<title>Node22</title>
<g id="a_Node000022"><a xlink:href="classSynchronizerOneShot.html" target="_top" xlink:title=" ">
<polygon fill="white" stroke="#bfbfbf" points="310,-294 189,-294 189,-275 310,-275 310,-294"/>
<text text-anchor="middle" x="249.5" y="-282" font-family="Helvetica,sans-Serif" font-size="10.00">SynchronizerOneShot</text>
</a>
</g>
</g>
<!-- Node11&#45;&gt;Node22 -->
<g id="edge28_Node000022_Node000011" class="edge">
<title>Node11&#45;&gt;Node22</title>
<g id="a_edge28_Node000022_Node000011"><a xlink:title=" ">
<path fill="none" stroke="#63b8ff" d="M346.62,-326.03C323.13,-316.23 291.03,-302.83 270.28,-294.17"/>
<polygon fill="#63b8ff" stroke="#63b8ff" points="345.52,-329.36 356.1,-329.98 348.21,-322.9 345.52,-329.36"/>
</a>
</g>
</g>
<!-- Node12 -->
<g id="Node000012" class="node">
<title>Node12</title>
<g id="a_Node000012"><a xlink:href="classSynchronizer.html" target="_top" xlink:title=" ">
<polygon fill="white" stroke="#bfbfbf" points="367.5,-404 287.5,-404 287.5,-385 367.5,-385 367.5,-404"/>
<text text-anchor="middle" x="327.5" y="-392" font-family="Helvetica,sans-Serif" font-size="10.00">Synchronizer</text>
</a>
</g>
</g>
<!-- Node12&#45;&gt;Node11 -->
<g id="edge11_Node000011_Node000012" class="edge">
<title>Node12&#45;&gt;Node11</title>
<g id="a_edge11_Node000011_Node000012"><a xlink:title=" ">
<path fill="none" stroke="#63b8ff" d="M342.53,-377.24C351.12,-367.95 361.54,-356.68 368.56,-349.09"/>
<polygon fill="#63b8ff" stroke="#63b8ff" points="339.81,-375.03 335.59,-384.75 344.95,-379.78 339.81,-375.03"/>
</a>
</g>
</g>
<!-- Node20 -->
<g id="Node000020" class="node">
<title>Node20</title>
<g id="a_Node000020"><a xlink:href="classSynchronizerEdge.html" target="_top" xlink:title=" ">
<polygon fill="white" stroke="#bfbfbf" points="330.5,-349 226.5,-349 226.5,-330 330.5,-330 330.5,-349"/>
<text text-anchor="middle" x="278.5" y="-337" font-family="Helvetica,sans-Serif" font-size="10.00">SynchronizerEdge</text>
</a>
</g>
</g>
<!-- Node12&#45;&gt;Node20 -->
<g id="edge24_Node000020_Node000012" class="edge">
<title>Node12&#45;&gt;Node20</title>
<g id="a_edge24_Node000020_Node000012"><a xlink:title=" ">
<path fill="none" stroke="#63b8ff" d="M312.47,-377.24C303.88,-367.95 293.46,-356.68 286.44,-349.09"/>
<polygon fill="#63b8ff" stroke="#63b8ff" points="310.05,-379.78 319.41,-384.75 315.19,-375.03 310.05,-379.78"/>
</a>
</g>
</g>
<!-- Node13 -->
<g id="Node000013" class="node">
<title>Node13</title>
<g id="a_Node000013"><a xlink:href="classSynchronizerVector.html" target="_top" xlink:title=" ">
<polygon fill="white" stroke="#bfbfbf" points="702.5,-349 592.5,-349 592.5,-330 702.5,-330 702.5,-349"/>
<text text-anchor="middle" x="647.5" y="-337" font-family="Helvetica,sans-Serif" font-size="10.00">SynchronizerVector</text>
</a>
</g>
</g>
<!-- Node13&#45;&gt;Node10 -->
<g id="edge12_Node000010_Node000013" class="edge">
<title>Node13&#45;&gt;Node10</title>
<g id="a_edge12_Node000010_Node000013"><a xlink:title=" ">
<path fill="none" stroke="#63b8ff" d="M666.05,-323.6C677.88,-314.11 692.79,-302.13 702.7,-294.17"/>
<polygon fill="#63b8ff" stroke="#63b8ff" points="663.71,-320.99 658.1,-329.98 668.09,-326.45 663.71,-320.99"/>
</a>
</g>
</g>
<!-- Node13&#45;&gt;Node14 -->
<g id="edge15_Node000014_Node000013" class="edge">
<title>Node13&#45;&gt;Node14</title>
<g id="a_edge15_Node000014_Node000013"><a xlink:title=" ">
<path fill="none" stroke="#63b8ff" d="M629.23,-323.6C617.58,-314.11 602.9,-302.13 593.13,-294.17"/>
<polygon fill="#63b8ff" stroke="#63b8ff" points="627.09,-326.38 637.06,-329.98 631.52,-320.95 627.09,-326.38"/>
</a>
</g>
</g>
<!-- Node19 -->
<g id="Node000019" class="node">
<title>Node19</title>
<g id="a_Node000019"><a xlink:href="classIprog7SeriesCore.html" target="_top" xlink:title=" ">
<polygon fill="white" stroke="#bfbfbf" points="504.5,-294 404.5,-294 404.5,-275 504.5,-275 504.5,-294"/>
<text text-anchor="middle" x="454.5" y="-282" font-family="Helvetica,sans-Serif" font-size="10.00">Iprog7SeriesCore</text>
</a>
</g>
</g>
<!-- Node13&#45;&gt;Node19 -->
<g id="edge22_Node000019_Node000013" class="edge">
<title>Node13&#45;&gt;Node19</title>
<g id="a_edge22_Node000019_Node000013"><a xlink:title=" ">
<path fill="none" stroke="#63b8ff" d="M606.75,-327.31C570.64,-317.39 518.67,-303.12 485.75,-294.08"/>
<polygon fill="#63b8ff" stroke="#63b8ff" points="605.92,-330.71 616.49,-329.98 607.78,-323.96 605.92,-330.71"/>
</a>
</g>
</g>
<!-- Node13&#45;&gt;Node21 -->
<g id="edge30_Node000021_Node000013" class="edge">
<title>Node13&#45;&gt;Node21</title>
<g id="a_edge30_Node000021_Node000013"><a xlink:title=" ">
<path fill="none" stroke="#63b8ff" d="M712.72,-327.99C755.6,-318.38 799.67,-301.55 775.5,-275 746.8,-243.47 435.81,-244.26 393.5,-239 390.62,-238.64 387.67,-238.25 384.69,-237.84"/>
<polygon fill="#63b8ff" stroke="#63b8ff" points="711.81,-324.6 702.76,-330.1 713.27,-331.45 711.81,-324.6"/>
</a>
</g>
</g>
<!-- Node14&#45;&gt;Node9 -->
<g id="edge13_Node000009_Node000014" class="edge">
<title>Node14&#45;&gt;Node9</title>
<g id="a_edge13_Node000009_Node000014"><a xlink:title=" ">
<path fill="none" stroke="#63b8ff" d="M598.18,-267.52C607.34,-258.18 618.55,-246.75 626.07,-239.09"/>
<polygon fill="#63b8ff" stroke="#63b8ff" points="595.59,-265.16 591.09,-274.75 600.59,-270.06 595.59,-265.16"/>
</a>
</g>
</g>
<!-- Node15 -->
<g id="Node000015" class="node">
<title>Node15</title>
<g id="a_Node000015"><a xlink:href="classDS2411Core.html" target="_top" xlink:title=" ">
<polygon fill="white" stroke="#bfbfbf" points="573,-184 496,-184 496,-165 573,-165 573,-184"/>
<text text-anchor="middle" x="534.5" y="-172" font-family="Helvetica,sans-Serif" font-size="10.00">DS2411Core</text>
</a>
</g>
</g>
<!-- Node15&#45;&gt;Node8 -->
<g id="edge16_Node000008_Node000015" class="edge">
<title>Node15&#45;&gt;Node8</title>
<g id="a_edge16_Node000008_Node000015"><a xlink:title=" ">
<path fill="none" stroke="#63b8ff" d="M530.95,-154.66C529.3,-145.93 527.42,-135.99 526.12,-129.09"/>
<polygon fill="#63b8ff" stroke="#63b8ff" points="527.56,-155.57 532.85,-164.75 534.43,-154.27 527.56,-155.57"/>
</a>
</g>
</g>
<!-- Node16 -->
<g id="Node000016" class="node">
<title>Node16</title>
<g id="a_Node000016"><a xlink:href="classIoBufWrapper.html" target="_top" xlink:title=" ">
<polygon fill="white" stroke="#bfbfbf" points="581,-239 498,-239 498,-220 581,-220 581,-239"/>
<text text-anchor="middle" x="539.5" y="-227" font-family="Helvetica,sans-Serif" font-size="10.00">IoBufWrapper</text>
</a>
</g>
</g>
<!-- Node16&#45;&gt;Node15 -->
<g id="edge17_Node000015_Node000016" class="edge">
<title>Node16&#45;&gt;Node15</title>
<g id="a_edge17_Node000015_Node000016"><a xlink:title=" ">
<path fill="none" stroke="#63b8ff" d="M537.72,-209.66C536.9,-200.93 535.96,-190.99 535.31,-184.09"/>
<polygon fill="#63b8ff" stroke="#63b8ff" points="534.25,-210.12 538.67,-219.75 541.22,-209.46 534.25,-210.12"/>
</a>
</g>
</g>
<!-- Node17 -->
<g id="Node000017" class="node">
<title>Node17</title>
<g id="a_Node000017"><a xlink:href="classIprog.html" target="_top" xlink:title=" ">
<polygon fill="white" stroke="#bfbfbf" points="468,-184 427,-184 427,-165 468,-165 468,-184"/>
<text text-anchor="middle" x="447.5" y="-172" font-family="Helvetica,sans-Serif" font-size="10.00">Iprog</text>
</a>
</g>
</g>
<!-- Node17&#45;&gt;Node8 -->
<g id="edge18_Node000008_Node000017" class="edge">
<title>Node17&#45;&gt;Node8</title>
<g id="a_edge18_Node000008_Node000017"><a xlink:title=" ">
<path fill="none" stroke="#63b8ff" d="M468.35,-159.15C482.26,-149.57 500.11,-137.29 511.9,-129.17"/>
<polygon fill="#63b8ff" stroke="#63b8ff" points="466.12,-156.43 459.87,-164.98 470.09,-162.2 466.12,-156.43"/>
</a>
</g>
</g>
<!-- Node18&#45;&gt;Node17 -->
<g id="edge19_Node000017_Node000018" class="edge">
<title>Node18&#45;&gt;Node17</title>
<g id="a_edge19_Node000017_Node000018"><a xlink:title=" ">
<path fill="none" stroke="#63b8ff" d="M443.63,-209.66C444.62,-200.93 445.75,-190.99 446.53,-184.09"/>
<polygon fill="#63b8ff" stroke="#63b8ff" points="440.14,-209.42 442.49,-219.75 447.09,-210.21 440.14,-209.42"/>
</a>
</g>
</g>
<!-- Node19&#45;&gt;Node18 -->
<g id="edge21_Node000018_Node000019" class="edge">
<title>Node19&#45;&gt;Node18</title>
<g id="a_edge21_Node000018_Node000019"><a xlink:title=" ">
<path fill="none" stroke="#63b8ff" d="M449.95,-264.95C447.79,-256.15 445.32,-246.06 443.61,-239.09"/>
<polygon fill="#63b8ff" stroke="#63b8ff" points="446.57,-265.87 452.35,-274.75 453.37,-264.2 446.57,-265.87"/>
</a>
</g>
</g>
<!-- Node20&#45;&gt;Node19 -->
<g id="edge23_Node000019_Node000020" class="edge">
<title>Node20&#45;&gt;Node19</title>
<g id="a_edge23_Node000019_Node000020"><a xlink:title=" ">
<path fill="none" stroke="#63b8ff" d="M316.5,-327.06C349.4,-317.15 396.24,-303.04 426,-294.08"/>
<polygon fill="#63b8ff" stroke="#63b8ff" points="315.34,-323.75 306.78,-329.98 317.36,-330.45 315.34,-323.75"/>
</a>
</g>
</g>
<!-- Node20&#45;&gt;Node22 -->
<g id="edge29_Node000022_Node000020" class="edge">
<title>Node20&#45;&gt;Node22</title>
<g id="a_edge29_Node000022_Node000020"><a xlink:title=" ">
<path fill="none" stroke="#63b8ff" d="M268.82,-320.82C263.9,-311.82 258.14,-301.29 254.2,-294.09"/>
<polygon fill="#63b8ff" stroke="#63b8ff" points="265.84,-322.66 273.71,-329.75 271.98,-319.3 265.84,-322.66"/>
</a>
</g>
</g>
<!-- Node21&#45;&gt;Node17 -->
<g id="edge25_Node000017_Node000021" class="edge">
<title>Node21&#45;&gt;Node17</title>
<g id="a_edge25_Node000017_Node000021"><a xlink:title=" ">
<path fill="none" stroke="#63b8ff" d="M365.23,-215.5C385.29,-205.75 412.18,-192.68 429.67,-184.17"/>
<polygon fill="#63b8ff" stroke="#63b8ff" points="363.48,-212.46 356.01,-219.98 366.54,-218.76 363.48,-212.46"/>
</a>
</g>
</g>
<!-- Node22&#45;&gt;Node21 -->
<g id="edge27_Node000021_Node000022" class="edge">
<title>Node22&#45;&gt;Node21</title>
<g id="a_edge27_Node000021_Node000022"><a xlink:title=" ">
<path fill="none" stroke="#63b8ff" d="M272.68,-269.7C288.89,-260.04 310.05,-247.44 323.94,-239.17"/>
<polygon fill="#63b8ff" stroke="#63b8ff" points="270.6,-266.86 263.8,-274.98 274.18,-272.88 270.6,-266.86"/>
</a>
</g>
</g>
<!-- Node23 -->
<g id="Node000023" class="node">
<title>Node23</title>
<g id="a_Node000023"><a xlink:href="classOutputBufferReg.html" target="_top" xlink:title=" ">
<polygon fill="white" stroke="#bfbfbf" points="674.5,-129 576.5,-129 576.5,-110 674.5,-110 674.5,-129"/>
<text text-anchor="middle" x="625.5" y="-117" font-family="Helvetica,sans-Serif" font-size="10.00">OutputBufferReg</text>
</a>
</g>
</g>
<!-- Node23&#45;&gt;Node1 -->
<g id="edge31_Node000001_Node000023" class="edge">
<title>Node23&#45;&gt;Node1</title>
<g id="a_edge31_Node000001_Node000023"><a xlink:title=" ">
<path fill="none" stroke="#63b8ff" d="M600.22,-105.23C581.7,-95.51 557.08,-82.6 541.02,-74.17"/>
<polygon fill="#63b8ff" stroke="#63b8ff" points="598.79,-108.44 609.27,-109.98 602.04,-102.24 598.79,-108.44"/>
</a>
</g>
</g>
<!-- Node24 -->
<g id="Node000024" class="node">
<title>Node24</title>
<g id="a_Node000024"><a xlink:href="classClkOutBufDiff.html" target="_top" xlink:title=" ">
<polygon fill="white" stroke="#bfbfbf" points="776,-129 693,-129 693,-110 776,-110 776,-129"/>
<text text-anchor="middle" x="734.5" y="-117" font-family="Helvetica,sans-Serif" font-size="10.00">ClkOutBufDiff</text>
</a>
</g>
</g>
<!-- Node24&#45;&gt;Node1 -->
<g id="edge32_Node000001_Node000024" class="edge">
<title>Node24&#45;&gt;Node1</title>
<g id="a_edge32_Node000001_Node000024"><a xlink:title=" ">
<path fill="none" stroke="#63b8ff" d="M690.92,-107.5C651.6,-97.58 594.55,-83.18 558.5,-74.08"/>
<polygon fill="#63b8ff" stroke="#63b8ff" points="690.21,-110.93 700.76,-109.98 691.92,-104.14 690.21,-110.93"/>
</a>
</g>
</g>
</g>
</svg>
