<?xml version="1.0" encoding="UTF-8" standalone="no"?>
<!DOCTYPE svg PUBLIC "-//W3C//DTD SVG 1.1//EN"
 "http://www.w3.org/Graphics/SVG/1.1/DTD/svg11.dtd">
<!-- Generated by graphviz version 2.43.0 (0)
 -->
<!-- Title: HtspTxFifo Pages: 1 -->
<!--zoomable 412 -->

<svg id="main" version="1.1" xmlns="http://www.w3.org/2000/svg" xmlns:xlink="http://www.w3.org/1999/xlink" xml:space="preserve" onload="init(evt)">
<style type="text/css"><![CDATA[
.node, .edge {opacity: 0.7;}
.node.selected, .edge.selected {opacity: 1;}
.edge:hover path { stroke: red; }
.edge:hover polygon { stroke: red; fill: red; }
]]></style>

<defs>
  <circle id="rim" cx="0" cy="0" r="7"/>
  <circle id="rim2" cx="0" cy="0" r="3.5"/>
  <g id="zoomPlus">
    <use xlink:href="#rim" fill="#404040"><set attributeName="fill" to="#808080" begin="zoomplus.mouseover" end="zoomplus.mouseout"/></use>
    <path d="M-4,0h8M0,-4v8" fill="none" stroke="white" stroke-width="1.5" pointer-events="none"/>
  </g>
  <g id="zoomMin">
    <use xlink:href="#rim" fill="#404040"><set attributeName="fill" to="#808080" begin="zoomminus.mouseover" end="zoomminus.mouseout"/></use>
    <path d="M-4,0h8" fill="none" stroke="white" stroke-width="1.5" pointer-events="none"/>
  </g>
  <g id="arrowUp" transform="translate(30 24)">
    <use xlink:href="#rim"/>
    <path pointer-events="none" fill="none" stroke="white" stroke-width="1.5" d="M0,-3.0v7 M-2.5,-0.5L0,-3.0L2.5,-0.5"/>
  </g>
  <g id="arrowRight" transform="rotate(90) translate(36 -43)">
    <use xlink:href="#rim"/>
    <path pointer-events="none" fill="none" stroke="white" stroke-width="1.5" d="M0,-3.0v7 M-2.5,-0.5L0,-3.0L2.5,-0.5"/>
  </g>
  <g id="arrowDown" transform="rotate(180) translate(-30 -48)">
    <use xlink:href="#rim"/>
    <path pointer-events="none" fill="none" stroke="white" stroke-width="1.5" d="M0,-3.0v7 M-2.5,-0.5L0,-3.0L2.5,-0.5"/>
  </g>
  <g id="arrowLeft" transform="rotate(270) translate(-36 17)">
    <use xlink:href="#rim"/>
    <path pointer-events="none" fill="none" stroke="white" stroke-width="1.5" d="M0,-3.0v7 M-2.5,-0.5L0,-3.0L2.5,-0.5"/>
  </g>
  <g id="resetDef">
    <use xlink:href="#rim2" fill="#404040"><set attributeName="fill" to="#808080" begin="reset.mouseover" end="reset.mouseout"/></use>
  </g>
</defs>
<script type="application/ecmascript">
var viewWidth = 729;
var viewHeight = 412;
var sectionId = 'dynsection-1';
</script>
<script type="application/ecmascript" xlink:href="svg.min.js"/>
<svg id="graph" class="graph">
<g id="viewport">
<title>HtspTxFifo</title>
<!-- Node1 -->
<g id="Node000001" class="node">
<title>Node1</title>
<g id="a_Node000001"><a xlink:title=" ">
<polygon fill="#999999" stroke="#666666" points="462.5,-19 393.5,-19 393.5,0 462.5,0 462.5,-19"/>
<text text-anchor="middle" x="428" y="-7" font-family="Helvetica,sans-Serif" font-size="10.00">HtspTxFifo</text>
</a>
</g>
</g>
<!-- Node2 -->
<g id="Node000002" class="node">
<title>Node2</title>
<g id="a_Node000002"><a xlink:href="classRstPipeline.html" target="_top" xlink:title=" ">
<polygon fill="white" stroke="#bfbfbf" points="270.5,-74 199.5,-74 199.5,-55 270.5,-55 270.5,-74"/>
<text text-anchor="middle" x="235" y="-62" font-family="Helvetica,sans-Serif" font-size="10.00">RstPipeline</text>
</a>
</g>
</g>
<!-- Node2&#45;&gt;Node1 -->
<g id="edge1_Node000001_Node000002" class="edge">
<title>Node2&#45;&gt;Node1</title>
<g id="a_edge1_Node000001_Node000002"><a xlink:title=" ">
<path fill="none" stroke="#63b8ff" d="M275.75,-52.31C311.86,-42.39 363.83,-28.12 396.75,-19.08"/>
<polygon fill="#63b8ff" stroke="#63b8ff" points="274.72,-48.96 266.01,-54.98 276.58,-55.71 274.72,-48.96"/>
</a>
</g>
</g>
<!-- Node3 -->
<g id="Node000003" class="node">
<title>Node3</title>
<g id="a_Node000003"><a xlink:href="classSynchronizer.html" target="_top" xlink:title=" ">
<polygon fill="white" stroke="#bfbfbf" points="550,-404 470,-404 470,-385 550,-385 550,-404"/>
<text text-anchor="middle" x="510" y="-392" font-family="Helvetica,sans-Serif" font-size="10.00">Synchronizer</text>
</a>
</g>
</g>
<!-- Node3&#45;&gt;Node1 -->
<g id="edge2_Node000001_Node000003" class="edge">
<title>Node3&#45;&gt;Node1</title>
<g id="a_edge2_Node000001_Node000003"><a xlink:title=" ">
<path fill="none" stroke="#63b8ff" d="M560.25,-389.5C622.66,-381.48 721,-357.42 721,-285.5 721,-285.5 721,-285.5 721,-118.5 721,-64.02 540.37,-28.51 462.76,-15.77"/>
<polygon fill="#63b8ff" stroke="#63b8ff" points="559.7,-386.04 550.18,-390.7 560.53,-392.99 559.7,-386.04"/>
</a>
</g>
</g>
<!-- Node5 -->
<g id="Node000005" class="node">
<title>Node5</title>
<g id="a_Node000005"><a xlink:href="classAxiStreamFifoV2.html" target="_top" xlink:title=" ">
<polygon fill="white" stroke="#bfbfbf" points="375,-129 277,-129 277,-110 375,-110 375,-129"/>
<text text-anchor="middle" x="326" y="-117" font-family="Helvetica,sans-Serif" font-size="10.00">AxiStreamFifoV2</text>
</a>
</g>
</g>
<!-- Node3&#45;&gt;Node5 -->
<g id="edge30_Node000005_Node000003" class="edge">
<title>Node3&#45;&gt;Node5</title>
<g id="a_edge30_Node000005_Node000003"><a xlink:title=" ">
<path fill="none" stroke="#63b8ff" d="M560.13,-391.14C593.69,-386.95 636.59,-376.16 664,-349 684.93,-328.27 683,-314.96 683,-285.5 683,-285.5 683,-285.5 683,-228.5 683,-164.96 473.2,-135.37 375.26,-125.02"/>
<polygon fill="#63b8ff" stroke="#63b8ff" points="559.6,-387.68 550.04,-392.24 560.36,-394.64 559.6,-387.68"/>
</a>
</g>
</g>
<!-- Node12 -->
<g id="Node000012" class="node">
<title>Node12</title>
<g id="a_Node000012"><a xlink:href="classRstSync.html" target="_top" xlink:title=" ">
<polygon fill="white" stroke="#bfbfbf" points="56,-349 0,-349 0,-330 56,-330 56,-349"/>
<text text-anchor="middle" x="28" y="-337" font-family="Helvetica,sans-Serif" font-size="10.00">RstSync</text>
</a>
</g>
</g>
<!-- Node3&#45;&gt;Node12 -->
<g id="edge13_Node000012_Node000003" class="edge">
<title>Node3&#45;&gt;Node12</title>
<g id="a_edge13_Node000012_Node000003"><a xlink:title=" ">
<path fill="none" stroke="#63b8ff" d="M459.76,-390.55C377.05,-385.23 207.17,-372.34 65,-349 62.14,-348.53 59.17,-347.97 56.21,-347.37"/>
<polygon fill="#63b8ff" stroke="#63b8ff" points="459.69,-394.05 469.89,-391.19 460.13,-387.07 459.69,-394.05"/>
</a>
</g>
</g>
<!-- Node15 -->
<g id="Node000015" class="node">
<title>Node15</title>
<g id="a_Node000015"><a xlink:href="classFifoAsync.html" target="_top" xlink:title=" ">
<polygon fill="white" stroke="#bfbfbf" points="370,-294 306,-294 306,-275 370,-275 370,-294"/>
<text text-anchor="middle" x="338" y="-282" font-family="Helvetica,sans-Serif" font-size="10.00">FifoAsync</text>
</a>
</g>
</g>
<!-- Node3&#45;&gt;Node15 -->
<g id="edge20_Node000015_Node000003" class="edge">
<title>Node3&#45;&gt;Node15</title>
<g id="a_edge20_Node000015_Node000003"><a xlink:title=" ">
<path fill="none" stroke="#63b8ff" d="M459.87,-391.01C426.57,-386.75 384.14,-375.93 357,-349 341.97,-334.09 338.73,-307.81 338.1,-294.2"/>
<polygon fill="#63b8ff" stroke="#63b8ff" points="459.55,-394.5 469.88,-392.13 460.33,-387.54 459.55,-394.5"/>
</a>
</g>
</g>
<!-- Node4 -->
<g id="Node000004" class="node">
<title>Node4</title>
<g id="a_Node000004"><a xlink:href="classAxiStreamFlush.html" target="_top" xlink:title=" ">
<polygon fill="white" stroke="#bfbfbf" points="475,-74 381,-74 381,-55 475,-55 475,-74"/>
<text text-anchor="middle" x="428" y="-62" font-family="Helvetica,sans-Serif" font-size="10.00">AxiStreamFlush</text>
</a>
</g>
</g>
<!-- Node4&#45;&gt;Node1 -->
<g id="edge3_Node000001_Node000004" class="edge">
<title>Node4&#45;&gt;Node1</title>
<g id="a_edge3_Node000001_Node000004"><a xlink:title=" ">
<path fill="none" stroke="#63b8ff" d="M428,-44.66C428,-35.93 428,-25.99 428,-19.09"/>
<polygon fill="#63b8ff" stroke="#63b8ff" points="424.5,-44.75 428,-54.75 431.5,-44.75 424.5,-44.75"/>
</a>
</g>
</g>
<!-- Node5&#45;&gt;Node1 -->
<g id="edge4_Node000001_Node000005" class="edge">
<title>Node5&#45;&gt;Node1</title>
<g id="a_edge4_Node000001_Node000005"><a xlink:title=" ">
<path fill="none" stroke="#63b8ff" d="M385.24,-109.4C424.84,-101.98 471.83,-90.07 484,-74 499.62,-53.38 467.29,-31.1 445.56,-19.19"/>
<polygon fill="#63b8ff" stroke="#63b8ff" points="384.57,-105.97 375.35,-111.2 385.82,-112.86 384.57,-105.97"/>
</a>
</g>
</g>
<!-- Node21 -->
<g id="Node000021" class="node">
<title>Node21</title>
<g id="a_Node000021"><a xlink:href="classSsiInsertSof.html" target="_top" xlink:title=" ">
<polygon fill="white" stroke="#bfbfbf" points="363,-74 289,-74 289,-55 363,-55 363,-74"/>
<text text-anchor="middle" x="326" y="-62" font-family="Helvetica,sans-Serif" font-size="10.00">SsiInsertSof</text>
</a>
</g>
</g>
<!-- Node5&#45;&gt;Node21 -->
<g id="edge33_Node000021_Node000005" class="edge">
<title>Node5&#45;&gt;Node21</title>
<g id="a_edge33_Node000021_Node000005"><a xlink:title=" ">
<path fill="none" stroke="#63b8ff" d="M326,-99.66C326,-90.93 326,-80.99 326,-74.09"/>
<polygon fill="#63b8ff" stroke="#63b8ff" points="322.5,-99.75 326,-109.75 329.5,-99.75 322.5,-99.75"/>
</a>
</g>
</g>
<!-- Node6 -->
<g id="Node000006" class="node">
<title>Node6</title>
<g id="a_Node000006"><a xlink:href="classAxiStreamGearbox.html" target="_top" xlink:title=" ">
<polygon fill="white" stroke="#bfbfbf" points="196.5,-184 87.5,-184 87.5,-165 196.5,-165 196.5,-184"/>
<text text-anchor="middle" x="142" y="-172" font-family="Helvetica,sans-Serif" font-size="10.00">AxiStreamGearbox</text>
</a>
</g>
</g>
<!-- Node6&#45;&gt;Node5 -->
<g id="edge5_Node000005_Node000006" class="edge">
<title>Node6&#45;&gt;Node5</title>
<g id="a_edge5_Node000005_Node000006"><a xlink:title=" ">
<path fill="none" stroke="#63b8ff" d="M181.29,-162.18C215.7,-152.27 264.96,-138.08 296.21,-129.08"/>
<polygon fill="#63b8ff" stroke="#63b8ff" points="180.2,-158.85 171.56,-164.98 182.14,-165.58 180.2,-158.85"/>
</a>
</g>
</g>
<!-- Node7 -->
<g id="Node000007" class="node">
<title>Node7</title>
<g id="a_Node000007"><a xlink:href="classAxiStreamResize.html" target="_top" xlink:title=" ">
<polygon fill="white" stroke="#bfbfbf" points="114,-239 14,-239 14,-220 114,-220 114,-239"/>
<text text-anchor="middle" x="64" y="-227" font-family="Helvetica,sans-Serif" font-size="10.00">AxiStreamResize</text>
</a>
</g>
</g>
<!-- Node7&#45;&gt;Node6 -->
<g id="edge6_Node000006_Node000007" class="edge">
<title>Node7&#45;&gt;Node6</title>
<g id="a_edge6_Node000006_Node000007"><a xlink:title=" ">
<path fill="none" stroke="#63b8ff" d="M85.12,-214.15C99.21,-204.57 117.29,-192.29 129.24,-184.17"/>
<polygon fill="#63b8ff" stroke="#63b8ff" points="82.84,-211.47 76.53,-219.98 86.77,-217.26 82.84,-211.47"/>
</a>
</g>
</g>
<!-- Node8 -->
<g id="Node000008" class="node">
<title>Node8</title>
<g id="a_Node000008"><a xlink:href="classAxiStreamPipeline.html" target="_top" xlink:title=" ">
<polygon fill="white" stroke="#bfbfbf" points="117.5,-294 10.5,-294 10.5,-275 117.5,-275 117.5,-294"/>
<text text-anchor="middle" x="64" y="-282" font-family="Helvetica,sans-Serif" font-size="10.00">AxiStreamPipeline</text>
</a>
</g>
</g>
<!-- Node8&#45;&gt;Node5 -->
<g id="edge31_Node000005_Node000008" class="edge">
<title>Node8&#45;&gt;Node5</title>
<g id="a_edge31_Node000005_Node000008"><a xlink:title=" ">
<path fill="none" stroke="#63b8ff" d="M88.61,-269.9C104.06,-261.26 124.34,-249.71 142,-239 207.3,-199.39 283.49,-148.93 313.21,-129.07"/>
<polygon fill="#63b8ff" stroke="#63b8ff" points="86.72,-266.95 79.68,-274.88 90.12,-273.07 86.72,-266.95"/>
</a>
</g>
</g>
<!-- Node8&#45;&gt;Node6 -->
<g id="edge8_Node000006_Node000008" class="edge">
<title>Node8&#45;&gt;Node6</title>
<g id="a_edge8_Node000006_Node000008"><a xlink:title=" ">
<path fill="none" stroke="#63b8ff" d="M89.2,-269.63C100.98,-261.98 114.3,-251.51 123,-239 134.96,-221.81 139.52,-196.96 141.15,-184.04"/>
<polygon fill="#63b8ff" stroke="#63b8ff" points="87.28,-266.69 80.59,-274.9 90.94,-272.66 87.28,-266.69"/>
</a>
</g>
</g>
<!-- Node8&#45;&gt;Node7 -->
<g id="edge7_Node000007_Node000008" class="edge">
<title>Node8&#45;&gt;Node7</title>
<g id="a_edge7_Node000007_Node000008"><a xlink:title=" ">
<path fill="none" stroke="#63b8ff" d="M64,-264.66C64,-255.93 64,-245.99 64,-239.09"/>
<polygon fill="#63b8ff" stroke="#63b8ff" points="60.5,-264.75 64,-274.75 67.5,-264.75 60.5,-264.75"/>
</a>
</g>
</g>
<!-- Node9 -->
<g id="Node000009" class="node">
<title>Node9</title>
<g id="a_Node000009"><a xlink:href="classFifoCascade.html" target="_top" xlink:title=" ">
<polygon fill="white" stroke="#bfbfbf" points="364,-184 288,-184 288,-165 364,-165 364,-184"/>
<text text-anchor="middle" x="326" y="-172" font-family="Helvetica,sans-Serif" font-size="10.00">FifoCascade</text>
</a>
</g>
</g>
<!-- Node9&#45;&gt;Node5 -->
<g id="edge9_Node000005_Node000009" class="edge">
<title>Node9&#45;&gt;Node5</title>
<g id="a_edge9_Node000005_Node000009"><a xlink:title=" ">
<path fill="none" stroke="#63b8ff" d="M326,-154.66C326,-145.93 326,-135.99 326,-129.09"/>
<polygon fill="#63b8ff" stroke="#63b8ff" points="322.5,-154.75 326,-164.75 329.5,-154.75 322.5,-154.75"/>
</a>
</g>
</g>
<!-- Node10 -->
<g id="Node000010" class="node">
<title>Node10</title>
<g id="a_Node000010"><a xlink:href="classFifo.html" target="_top" xlink:title=" ">
<polygon fill="white" stroke="#bfbfbf" points="343.5,-239 308.5,-239 308.5,-220 343.5,-220 343.5,-239"/>
<text text-anchor="middle" x="326" y="-227" font-family="Helvetica,sans-Serif" font-size="10.00">Fifo</text>
</a>
</g>
</g>
<!-- Node10&#45;&gt;Node9 -->
<g id="edge10_Node000009_Node000010" class="edge">
<title>Node10&#45;&gt;Node9</title>
<g id="a_edge10_Node000009_Node000010"><a xlink:title=" ">
<path fill="none" stroke="#63b8ff" d="M326,-209.66C326,-200.93 326,-190.99 326,-184.09"/>
<polygon fill="#63b8ff" stroke="#63b8ff" points="322.5,-209.75 326,-219.75 329.5,-209.75 322.5,-209.75"/>
</a>
</g>
</g>
<!-- Node11 -->
<g id="Node000011" class="node">
<title>Node11</title>
<g id="a_Node000011"><a xlink:href="classFifoXpm.html" target="_top" xlink:title=" ">
<polygon fill="white" stroke="#bfbfbf" points="192.5,-294 135.5,-294 135.5,-275 192.5,-275 192.5,-294"/>
<text text-anchor="middle" x="164" y="-282" font-family="Helvetica,sans-Serif" font-size="10.00">FifoXpm</text>
</a>
</g>
</g>
<!-- Node11&#45;&gt;Node10 -->
<g id="edge11_Node000010_Node000011" class="edge">
<title>Node11&#45;&gt;Node10</title>
<g id="a_edge11_Node000010_Node000011"><a xlink:title=" ">
<path fill="none" stroke="#63b8ff" d="M199.9,-271.75C233.43,-260.79 282.08,-244.87 308.06,-236.37"/>
<polygon fill="#63b8ff" stroke="#63b8ff" points="198.44,-268.55 190.03,-274.98 200.62,-275.2 198.44,-268.55"/>
</a>
</g>
</g>
<!-- Node12&#45;&gt;Node11 -->
<g id="edge12_Node000011_Node000012" class="edge">
<title>Node12&#45;&gt;Node11</title>
<g id="a_edge12_Node000011_Node000012"><a xlink:title=" ">
<path fill="none" stroke="#63b8ff" d="M59.33,-326.29C84.54,-316.47 119.33,-302.91 141.75,-294.17"/>
<polygon fill="#63b8ff" stroke="#63b8ff" points="57.9,-323.09 49.85,-329.98 60.44,-329.61 57.9,-323.09"/>
</a>
</g>
</g>
<!-- Node12&#45;&gt;Node15 -->
<g id="edge18_Node000015_Node000012" class="edge">
<title>Node12&#45;&gt;Node15</title>
<g id="a_edge18_Node000015_Node000012"><a xlink:title=" ">
<path fill="none" stroke="#63b8ff" d="M66.07,-329.91C168.72,-310.46 196.82,-311.76 296,-294 299.22,-293.42 302.58,-292.79 305.92,-292.15"/>
<polygon fill="#63b8ff" stroke="#63b8ff" points="65.4,-326.48 56.24,-331.79 66.72,-333.35 65.4,-326.48"/>
</a>
</g>
</g>
<!-- Node13 -->
<g id="Node000013" class="node">
<title>Node13</title>
<g id="a_Node000013"><a xlink:href="classFifoOutputPipeline.html" target="_top" xlink:title=" ">
<polygon fill="white" stroke="#bfbfbf" points="181.5,-349 74.5,-349 74.5,-330 181.5,-330 181.5,-349"/>
<text text-anchor="middle" x="128" y="-337" font-family="Helvetica,sans-Serif" font-size="10.00">FifoOutputPipeline</text>
</a>
</g>
</g>
<!-- Node13&#45;&gt;Node11 -->
<g id="edge14_Node000011_Node000013" class="edge">
<title>Node13&#45;&gt;Node11</title>
<g id="a_edge14_Node000011_Node000013"><a xlink:title=" ">
<path fill="none" stroke="#63b8ff" d="M139.62,-321.39C145.82,-312.27 153.17,-301.45 158.17,-294.09"/>
<polygon fill="#63b8ff" stroke="#63b8ff" points="136.67,-319.51 133.94,-329.75 142.46,-323.44 136.67,-319.51"/>
</a>
</g>
</g>
<!-- Node14 -->
<g id="Node000014" class="node">
<title>Node14</title>
<g id="a_Node000014"><a xlink:href="classFifoAlteraMf.html" target="_top" xlink:title=" ">
<polygon fill="white" stroke="#bfbfbf" points="287.5,-294 210.5,-294 210.5,-275 287.5,-275 287.5,-294"/>
<text text-anchor="middle" x="249" y="-282" font-family="Helvetica,sans-Serif" font-size="10.00">FifoAlteraMf</text>
</a>
</g>
</g>
<!-- Node13&#45;&gt;Node14 -->
<g id="edge16_Node000014_Node000013" class="edge">
<title>Node13&#45;&gt;Node14</title>
<g id="a_edge16_Node000014_Node000013"><a xlink:title=" ">
<path fill="none" stroke="#63b8ff" d="M156.77,-325.9C179.12,-316.11 209.52,-302.79 229.21,-294.17"/>
<polygon fill="#63b8ff" stroke="#63b8ff" points="155.2,-322.77 147.44,-329.98 158,-329.18 155.2,-322.77"/>
</a>
</g>
</g>
<!-- Node13&#45;&gt;Node15 -->
<g id="edge24_Node000015_Node000013" class="edge">
<title>Node13&#45;&gt;Node15</title>
<g id="a_edge24_Node000015_Node000013"><a xlink:title=" ">
<path fill="none" stroke="#63b8ff" d="M171.48,-327.53C211.44,-317.44 269.76,-302.72 305.72,-293.65"/>
<polygon fill="#63b8ff" stroke="#63b8ff" points="170.58,-324.14 161.74,-329.98 172.29,-330.93 170.58,-324.14"/>
</a>
</g>
</g>
<!-- Node20 -->
<g id="Node000020" class="node">
<title>Node20</title>
<g id="a_Node000020"><a xlink:href="classFifoSync.html" target="_top" xlink:title=" ">
<polygon fill="white" stroke="#bfbfbf" points="453,-294 395,-294 395,-275 453,-275 453,-294"/>
<text text-anchor="middle" x="424" y="-282" font-family="Helvetica,sans-Serif" font-size="10.00">FifoSync</text>
</a>
</g>
</g>
<!-- Node13&#45;&gt;Node20 -->
<g id="edge29_Node000020_Node000013" class="edge">
<title>Node13&#45;&gt;Node20</title>
<g id="a_edge29_Node000020_Node000013"><a xlink:title=" ">
<path fill="none" stroke="#63b8ff" d="M187.24,-328.19C238.13,-319.29 313.43,-306 379,-294 384.16,-293.05 389.65,-292.03 394.96,-291.03"/>
<polygon fill="#63b8ff" stroke="#63b8ff" points="186.33,-324.8 177.09,-329.97 187.54,-331.69 186.33,-324.8"/>
</a>
</g>
</g>
<!-- Node14&#45;&gt;Node10 -->
<g id="edge15_Node000010_Node000014" class="edge">
<title>Node14&#45;&gt;Node10</title>
<g id="a_edge15_Node000010_Node000014"><a xlink:title=" ">
<path fill="none" stroke="#63b8ff" d="M269.85,-269.15C283.76,-259.57 301.61,-247.29 313.4,-239.17"/>
<polygon fill="#63b8ff" stroke="#63b8ff" points="267.62,-266.43 261.37,-274.98 271.59,-272.2 267.62,-266.43"/>
</a>
</g>
</g>
<!-- Node15&#45;&gt;Node10 -->
<g id="edge17_Node000010_Node000015" class="edge">
<title>Node15&#45;&gt;Node10</title>
<g id="a_edge17_Node000010_Node000015"><a xlink:title=" ">
<path fill="none" stroke="#63b8ff" d="M333.8,-264.95C331.81,-256.15 329.52,-246.06 327.94,-239.09"/>
<polygon fill="#63b8ff" stroke="#63b8ff" points="330.4,-265.77 336.02,-274.75 337.22,-264.22 330.4,-265.77"/>
</a>
</g>
</g>
<!-- Node16 -->
<g id="Node000016" class="node">
<title>Node16</title>
<g id="a_Node000016"><a xlink:href="classSynchronizerVector.html" target="_top" xlink:title=" ">
<polygon fill="white" stroke="#bfbfbf" points="310,-349 200,-349 200,-330 310,-330 310,-349"/>
<text text-anchor="middle" x="255" y="-337" font-family="Helvetica,sans-Serif" font-size="10.00">SynchronizerVector</text>
</a>
</g>
</g>
<!-- Node16&#45;&gt;Node15 -->
<g id="edge19_Node000015_Node000016" class="edge">
<title>Node16&#45;&gt;Node15</title>
<g id="a_edge19_Node000015_Node000016"><a xlink:title=" ">
<path fill="none" stroke="#63b8ff" d="M277.04,-324.42C292.11,-314.81 311.59,-302.37 324.42,-294.17"/>
<polygon fill="#63b8ff" stroke="#63b8ff" points="274.88,-321.65 268.34,-329.98 278.65,-327.55 274.88,-321.65"/>
</a>
</g>
</g>
<!-- Node17 -->
<g id="Node000017" class="node">
<title>Node17</title>
<g id="a_Node000017"><a xlink:href="classFifoWrFsm.html" target="_top" xlink:title=" ">
<polygon fill="white" stroke="#bfbfbf" points="568.5,-349 499.5,-349 499.5,-330 568.5,-330 568.5,-349"/>
<text text-anchor="middle" x="534" y="-337" font-family="Helvetica,sans-Serif" font-size="10.00">FifoWrFsm</text>
</a>
</g>
</g>
<!-- Node17&#45;&gt;Node15 -->
<g id="edge21_Node000015_Node000017" class="edge">
<title>Node17&#45;&gt;Node15</title>
<g id="a_edge21_Node000015_Node000017"><a xlink:title=" ">
<path fill="none" stroke="#63b8ff" d="M492.62,-327.31C455.95,-317.39 403.17,-303.12 369.74,-294.08"/>
<polygon fill="#63b8ff" stroke="#63b8ff" points="491.94,-330.75 502.51,-329.98 493.77,-324 491.94,-330.75"/>
</a>
</g>
</g>
<!-- Node17&#45;&gt;Node20 -->
<g id="edge26_Node000020_Node000017" class="edge">
<title>Node17&#45;&gt;Node20</title>
<g id="a_edge26_Node000020_Node000017"><a xlink:title=" ">
<path fill="none" stroke="#63b8ff" d="M507.3,-325.63C487.03,-315.87 459.73,-302.71 441.99,-294.17"/>
<polygon fill="#63b8ff" stroke="#63b8ff" points="505.8,-328.8 516.33,-329.98 508.84,-322.49 505.8,-328.8"/>
</a>
</g>
</g>
<!-- Node18 -->
<g id="Node000018" class="node">
<title>Node18</title>
<g id="a_Node000018"><a xlink:href="classFifoRdFsm.html" target="_top" xlink:title=" ">
<polygon fill="white" stroke="#bfbfbf" points="655,-349 587,-349 587,-330 655,-330 655,-349"/>
<text text-anchor="middle" x="621" y="-337" font-family="Helvetica,sans-Serif" font-size="10.00">FifoRdFsm</text>
</a>
</g>
</g>
<!-- Node18&#45;&gt;Node15 -->
<g id="edge22_Node000015_Node000018" class="edge">
<title>Node18&#45;&gt;Node15</title>
<g id="a_edge22_Node000015_Node000018"><a xlink:title=" ">
<path fill="none" stroke="#63b8ff" d="M577.3,-330.06C577.2,-330.04 577.1,-330.02 577,-330 502.98,-315.96 415.99,-299.86 370.1,-291.41"/>
<polygon fill="#63b8ff" stroke="#63b8ff" points="576.42,-333.45 586.89,-331.89 577.73,-326.58 576.42,-333.45"/>
</a>
</g>
</g>
<!-- Node18&#45;&gt;Node20 -->
<g id="edge27_Node000020_Node000018" class="edge">
<title>Node18&#45;&gt;Node20</title>
<g id="a_edge27_Node000020_Node000018"><a xlink:title=" ">
<path fill="none" stroke="#63b8ff" d="M579.62,-327.37C541.67,-317.16 486.45,-302.3 453.01,-293.3"/>
<polygon fill="#63b8ff" stroke="#63b8ff" points="578.78,-330.77 589.35,-329.98 580.6,-324.01 578.78,-330.77"/>
</a>
</g>
</g>
<!-- Node19 -->
<g id="Node000019" class="node">
<title>Node19</title>
<g id="a_Node000019"><a xlink:href="classSimpleDualPortRam.html" target="_top" xlink:title=" ">
<polygon fill="white" stroke="#bfbfbf" points="481.5,-349 366.5,-349 366.5,-330 481.5,-330 481.5,-349"/>
<text text-anchor="middle" x="424" y="-337" font-family="Helvetica,sans-Serif" font-size="10.00">SimpleDualPortRam</text>
</a>
</g>
</g>
<!-- Node19&#45;&gt;Node15 -->
<g id="edge23_Node000015_Node000019" class="edge">
<title>Node19&#45;&gt;Node15</title>
<g id="a_edge23_Node000015_Node000019"><a xlink:title=" ">
<path fill="none" stroke="#63b8ff" d="M401.6,-324.7C385.93,-315.04 365.49,-302.44 352.07,-294.17"/>
<polygon fill="#63b8ff" stroke="#63b8ff" points="399.83,-327.72 410.18,-329.98 403.51,-321.76 399.83,-327.72"/>
</a>
</g>
</g>
<!-- Node19&#45;&gt;Node20 -->
<g id="edge28_Node000020_Node000019" class="edge">
<title>Node19&#45;&gt;Node20</title>
<g id="a_edge28_Node000020_Node000019"><a xlink:title=" ">
<path fill="none" stroke="#63b8ff" d="M424,-319.66C424,-310.93 424,-300.99 424,-294.09"/>
<polygon fill="#63b8ff" stroke="#63b8ff" points="420.5,-319.75 424,-329.75 427.5,-319.75 420.5,-319.75"/>
</a>
</g>
</g>
<!-- Node20&#45;&gt;Node10 -->
<g id="edge25_Node000010_Node000020" class="edge">
<title>Node20&#45;&gt;Node10</title>
<g id="a_edge25_Node000010_Node000020"><a xlink:title=" ">
<path fill="none" stroke="#63b8ff" d="M398.97,-269.97C381.06,-260.28 357.47,-247.52 342.03,-239.17"/>
<polygon fill="#63b8ff" stroke="#63b8ff" points="397.79,-273.31 408.25,-274.98 401.12,-267.15 397.79,-273.31"/>
</a>
</g>
</g>
<!-- Node21&#45;&gt;Node1 -->
<g id="edge32_Node000001_Node000021" class="edge">
<title>Node21&#45;&gt;Node1</title>
<g id="a_edge32_Node000001_Node000021"><a xlink:title=" ">
<path fill="none" stroke="#63b8ff" d="M351.27,-50.37C370.01,-40.63 395.02,-27.64 411.31,-19.17"/>
<polygon fill="#63b8ff" stroke="#63b8ff" points="349.65,-47.27 342.39,-54.98 352.88,-53.48 349.65,-47.27"/>
</a>
</g>
</g>
</g>
</svg>

<g id="navigator" transform="translate(0 0)" fill="#404254">
  <rect fill="#f2f5e9" fill-opacity="0.5" stroke="#606060" stroke-width=".5" x="0" y="0" width="60" height="60"/>
  <use id="zoomplus" xlink:href="#zoomPlus" x="17" y="9" onmousedown="handleZoom(evt,'in')"/>
  <use id="zoomminus" xlink:href="#zoomMin" x="42" y="9" onmousedown="handleZoom(evt,'out')"/>
  <use id="reset" xlink:href="#resetDef" x="30" y="36" onmousedown="handleReset()"/>
   <use id="arrowup" xlink:href="#arrowUp" x="0" y="0" onmousedown="handlePan(0,-1)"/>
  <use id="arrowright" xlink:href="#arrowRight" x="0" y="0" onmousedown="handlePan(1,0)"/>
  <use id="arrowdown" xlink:href="#arrowDown" x="0" y="0" onmousedown="handlePan(0,1)"/>
  <use id="arrowleft" xlink:href="#arrowLeft" x="0" y="0" onmousedown="handlePan(-1,0)"/>
</g>
<svg viewBox="0 0 15 15" width="100%" height="30px" preserveAspectRatio="xMaxYMin meet">
 <g id="arrow_out" transform="scale(0.3 0.3)">
  <a xlink:href="classHtspTxFifo__coll__graph_org.svg" target="_base">
   <rect id="button" ry="5" rx="5" y="6" x="6" height="38" width="38"
        fill="#f2f5e9" fill-opacity="0.5" stroke="#606060" stroke-width="1.0"/>
   <path id="arrow"
     d="M 11.500037,31.436501 C 11.940474,20.09759 22.043105,11.32322 32.158766,21.979434 L 37.068811,17.246167 C 37.068811,17.246167 37.088388,32 37.088388,32 L 22.160133,31.978069 C 22.160133,31.978069 26.997745,27.140456 26.997745,27.140456 C 18.528582,18.264221 13.291696,25.230495 11.500037,31.436501 z"
     style="fill:#404040;"/>
  </a>
 </g>
</svg>

<style type='text/css'>
<![CDATA[
[data-mouse-over-selected='false'] { opacity: 0.7; }
[data-mouse-over-selected='true']  { opacity: 1.0; }
]]>
</style>
<script type="application/ecmascript"><![CDATA[
document.addEventListener('DOMContentLoaded', (event) => {
  highlightEdges();
  highlightAdjacentNodes();
});
]]></script>
</svg>
