<?xml version="1.0" encoding="UTF-8" standalone="no"?>
<!DOCTYPE svg PUBLIC "-//W3C//DTD SVG 1.1//EN"
 "http://www.w3.org/Graphics/SVG/1.1/DTD/svg11.dtd">
<!-- Generated by graphviz version 2.43.0 (0)
 -->
<!-- Title: GigEthGtx7Wrapper Pages: 1 -->
<svg width="1313pt" height="826pt"
 viewBox="0.00 0.00 1313.00 826.00" xmlns="http://www.w3.org/2000/svg" xmlns:xlink="http://www.w3.org/1999/xlink">
<g id="graph0" class="graph" transform="scale(1 1) rotate(0) translate(4 822)">
<title>GigEthGtx7Wrapper</title>
<polygon fill="white" stroke="transparent" points="-4,4 -4,-822 1309,-822 1309,4 -4,4"/>
<!-- Node1 -->
<g id="node1" class="node">
<title>Node1</title>
<g id="a_node1"><a xlink:title=" ">
<polygon fill="#bfbfbf" stroke="black" points="1192,-634.5 1192,-653.5 1305,-653.5 1305,-634.5 1192,-634.5"/>
<text text-anchor="middle" x="1248.5" y="-641.5" font-family="Helvetica,sans-Serif" font-size="10.00">GigEthGtx7Wrapper</text>
</a>
</g>
</g>
<!-- Node2 -->
<g id="node2" class="node">
<title>Node2</title>
<g id="a_node2"><a xlink:href="classPwrUpRst.html" target="_top" xlink:title=" ">
<polygon fill="white" stroke="black" points="946,-672.5 946,-691.5 1010,-691.5 1010,-672.5 946,-672.5"/>
<text text-anchor="middle" x="978" y="-679.5" font-family="Helvetica,sans-Serif" font-size="10.00">PwrUpRst</text>
</a>
</g>
</g>
<!-- Node2&#45;&gt;Node1 -->
<g id="edge1" class="edge">
<title>Node2&#45;&gt;Node1</title>
<path fill="none" stroke="midnightblue" d="M1020.25,-678.72C1056.22,-675.59 1109.73,-670.27 1156,-663 1172.35,-660.43 1190.19,-656.89 1205.75,-653.57"/>
<polygon fill="midnightblue" stroke="midnightblue" points="1019.8,-675.25 1010.14,-679.59 1020.4,-682.22 1019.8,-675.25"/>
</g>
<!-- Node16 -->
<g id="node16" class="node">
<title>Node16</title>
<g id="a_node16"><a xlink:href="classGigEthGtx7.html" target="_top" xlink:title=" ">
<polygon fill="white" stroke="black" points="1074,-596.5 1074,-615.5 1146,-615.5 1146,-596.5 1074,-596.5"/>
<text text-anchor="middle" x="1110" y="-603.5" font-family="Helvetica,sans-Serif" font-size="10.00">GigEthGtx7</text>
</a>
</g>
</g>
<!-- Node2&#45;&gt;Node16 -->
<g id="edge21" class="edge">
<title>Node2&#45;&gt;Node16</title>
<path fill="none" stroke="midnightblue" d="M1019.2,-668.14C1022.26,-666.57 1025.23,-664.86 1028,-663 1047.32,-650.03 1044.88,-638.25 1064,-625 1069.3,-621.33 1075.42,-618.16 1081.4,-615.53"/>
<polygon fill="midnightblue" stroke="midnightblue" points="1017.46,-665.09 1009.84,-672.44 1020.39,-671.45 1017.46,-665.09"/>
</g>
<!-- Node3 -->
<g id="node3" class="node">
<title>Node3</title>
<g id="a_node3"><a xlink:href="classRstSync.html" target="_top" xlink:title=" ">
<polygon fill="white" stroke="black" points="309,-532.5 309,-551.5 365,-551.5 365,-532.5 309,-532.5"/>
<text text-anchor="middle" x="337" y="-539.5" font-family="Helvetica,sans-Serif" font-size="10.00">RstSync</text>
</a>
</g>
</g>
<!-- Node3&#45;&gt;Node2 -->
<g id="edge2" class="edge">
<title>Node3&#45;&gt;Node2</title>
<path fill="none" stroke="midnightblue" d="M339.77,-562.04C344.59,-602.97 361.93,-695.63 422,-735 600.51,-851.99 883.25,-728.13 958.24,-691.52"/>
<polygon fill="midnightblue" stroke="midnightblue" points="343.24,-561.53 338.72,-551.95 336.27,-562.26 343.24,-561.53"/>
</g>
<!-- Node7 -->
<g id="node7" class="node">
<title>Node7</title>
<g id="a_node7"><a xlink:href="classAxiLiteAsync.html" target="_top" xlink:title=" ">
<polygon fill="white" stroke="black" points="801.5,-618.5 801.5,-637.5 881.5,-637.5 881.5,-618.5 801.5,-618.5"/>
<text text-anchor="middle" x="841.5" y="-625.5" font-family="Helvetica,sans-Serif" font-size="10.00">AxiLiteAsync</text>
</a>
</g>
</g>
<!-- Node3&#45;&gt;Node7 -->
<g id="edge7" class="edge">
<title>Node3&#45;&gt;Node7</title>
<path fill="none" stroke="midnightblue" d="M375.24,-543.76C417.91,-546.13 489.83,-551.24 551,-561 644.23,-575.87 752.1,-603.72 806.05,-618.39"/>
<polygon fill="midnightblue" stroke="midnightblue" points="375.22,-540.25 365.05,-543.21 374.85,-547.24 375.22,-540.25"/>
</g>
<!-- Node8 -->
<g id="node8" class="node">
<title>Node8</title>
<g id="a_node8"><a xlink:href="classFifoAsync.html" target="_top" xlink:title=" ">
<polygon fill="white" stroke="black" points="639,-627.5 639,-646.5 703,-646.5 703,-627.5 639,-627.5"/>
<text text-anchor="middle" x="671" y="-634.5" font-family="Helvetica,sans-Serif" font-size="10.00">FifoAsync</text>
</a>
</g>
</g>
<!-- Node3&#45;&gt;Node8 -->
<g id="edge9" class="edge">
<title>Node3&#45;&gt;Node8</title>
<path fill="none" stroke="midnightblue" d="M340.91,-561.82C347.58,-599.17 367.81,-679.24 422,-713 470.66,-743.31 495.97,-729.07 551,-713 595.94,-699.87 640.06,-664.03 659.57,-646.67"/>
<polygon fill="midnightblue" stroke="midnightblue" points="344.32,-561 339.25,-551.7 337.41,-562.13 344.32,-561"/>
</g>
<!-- Node56 -->
<g id="node50" class="node">
<title>Node56</title>
<g id="a_node50"><a xlink:href="classSynchronizerOneShot.html" target="_top" xlink:title=" ">
<polygon fill="white" stroke="red" points="426,-456.5 426,-475.5 547,-475.5 547,-456.5 426,-456.5"/>
<text text-anchor="middle" x="486.5" y="-463.5" font-family="Helvetica,sans-Serif" font-size="10.00">SynchronizerOneShot</text>
</a>
</g>
</g>
<!-- Node3&#45;&gt;Node56 -->
<g id="edge67" class="edge">
<title>Node3&#45;&gt;Node56</title>
<path fill="none" stroke="midnightblue" d="M357.77,-526.01C374.16,-513.41 398.49,-496.17 422,-485 429.8,-481.3 438.47,-478.13 446.85,-475.51"/>
<polygon fill="midnightblue" stroke="midnightblue" points="355.25,-523.54 349.54,-532.47 359.57,-529.05 355.25,-523.54"/>
</g>
<!-- Node4 -->
<g id="node4" class="node">
<title>Node4</title>
<g id="a_node4"><a xlink:href="classSynchronizer.html" target="_top" xlink:title=" ">
<polygon fill="white" stroke="black" points="157.5,-494.5 157.5,-513.5 237.5,-513.5 237.5,-494.5 157.5,-494.5"/>
<text text-anchor="middle" x="197.5" y="-501.5" font-family="Helvetica,sans-Serif" font-size="10.00">Synchronizer</text>
</a>
</g>
</g>
<!-- Node4&#45;&gt;Node3 -->
<g id="edge3" class="edge">
<title>Node4&#45;&gt;Node3</title>
<path fill="none" stroke="midnightblue" d="M242.85,-516.26C264.51,-522.24 289.89,-529.26 308.68,-534.45"/>
<polygon fill="midnightblue" stroke="midnightblue" points="243.77,-512.88 233.2,-513.59 241.9,-519.63 243.77,-512.88"/>
</g>
<!-- Node4&#45;&gt;Node8 -->
<g id="edge11" class="edge">
<title>Node4&#45;&gt;Node8</title>
<path fill="none" stroke="midnightblue" d="M208.88,-522.27C236.41,-568.62 316.48,-690.27 422,-735 474.79,-757.38 497.03,-754.36 551,-735 601.13,-717.01 645.23,-667.77 662.38,-646.74"/>
<polygon fill="midnightblue" stroke="midnightblue" points="211.87,-520.45 203.81,-513.58 205.82,-523.98 211.87,-520.45"/>
</g>
<!-- Node20 -->
<g id="node20" class="node">
<title>Node20</title>
<g id="a_node20"><a xlink:href="classAxiStreamFifoV2.html" target="_top" xlink:title=" ">
<polygon fill="white" stroke="black" points="288,-152.5 288,-171.5 386,-171.5 386,-152.5 288,-152.5"/>
<text text-anchor="middle" x="337" y="-159.5" font-family="Helvetica,sans-Serif" font-size="10.00">AxiStreamFifoV2</text>
</a>
</g>
</g>
<!-- Node4&#45;&gt;Node20 -->
<g id="edge28" class="edge">
<title>Node4&#45;&gt;Node20</title>
<path fill="none" stroke="midnightblue" d="M206.17,-484.93C231.71,-421.39 313.37,-218.28 332.13,-171.62"/>
<polygon fill="midnightblue" stroke="midnightblue" points="202.8,-483.91 202.32,-494.5 209.3,-486.52 202.8,-483.91"/>
</g>
<!-- Node53 -->
<g id="node47" class="node">
<title>Node53</title>
<g id="a_node47"><a xlink:href="classWatchDogRst.html" target="_top" xlink:title=" ">
<polygon fill="white" stroke="black" points="296,-456.5 296,-475.5 378,-475.5 378,-456.5 296,-456.5"/>
<text text-anchor="middle" x="337" y="-463.5" font-family="Helvetica,sans-Serif" font-size="10.00">WatchDogRst</text>
</a>
</g>
</g>
<!-- Node4&#45;&gt;Node53 -->
<g id="edge61" class="edge">
<title>Node4&#45;&gt;Node53</title>
<path fill="none" stroke="midnightblue" d="M243.07,-491.68C261.96,-486.46 283.65,-480.47 301.31,-475.59"/>
<polygon fill="midnightblue" stroke="midnightblue" points="241.9,-488.37 233.2,-494.41 243.77,-495.12 241.9,-488.37"/>
</g>
<!-- Node5 -->
<g id="node5" class="node">
<title>Node5</title>
<g id="a_node5"><a xlink:href="classClockManager7.html" target="_top" xlink:title=" ">
<polygon fill="white" stroke="black" points="1064,-634.5 1064,-653.5 1156,-653.5 1156,-634.5 1064,-634.5"/>
<text text-anchor="middle" x="1110" y="-641.5" font-family="Helvetica,sans-Serif" font-size="10.00">ClockManager7</text>
</a>
</g>
</g>
<!-- Node5&#45;&gt;Node1 -->
<g id="edge4" class="edge">
<title>Node5&#45;&gt;Node1</title>
<path fill="none" stroke="midnightblue" d="M1166.11,-644C1174.48,-644 1183.13,-644 1191.52,-644"/>
<polygon fill="midnightblue" stroke="midnightblue" points="1166.07,-640.5 1156.07,-644 1166.07,-647.5 1166.07,-640.5"/>
</g>
<!-- Node6 -->
<g id="node6" class="node">
<title>Node6</title>
<g id="a_node6"><a xlink:href="classAxiLiteToDrp.html" target="_top" xlink:title=" ">
<polygon fill="white" stroke="black" points="939,-634.5 939,-653.5 1017,-653.5 1017,-634.5 939,-634.5"/>
<text text-anchor="middle" x="978" y="-641.5" font-family="Helvetica,sans-Serif" font-size="10.00">AxiLiteToDrp</text>
</a>
</g>
</g>
<!-- Node6&#45;&gt;Node5 -->
<g id="edge5" class="edge">
<title>Node6&#45;&gt;Node5</title>
<path fill="none" stroke="midnightblue" d="M1027.47,-644C1039.31,-644 1051.94,-644 1063.63,-644"/>
<polygon fill="midnightblue" stroke="midnightblue" points="1027.3,-640.5 1017.3,-644 1027.3,-647.5 1027.3,-640.5"/>
</g>
<!-- Node6&#45;&gt;Node16 -->
<g id="edge58" class="edge">
<title>Node6&#45;&gt;Node16</title>
<path fill="none" stroke="midnightblue" d="M1021.88,-631.46C1039.57,-626.3 1059.73,-620.4 1076.21,-615.59"/>
<polygon fill="midnightblue" stroke="midnightblue" points="1020.42,-628.25 1011.8,-634.41 1022.38,-634.96 1020.42,-628.25"/>
</g>
<!-- Node7&#45;&gt;Node6 -->
<g id="edge6" class="edge">
<title>Node7&#45;&gt;Node6</title>
<path fill="none" stroke="midnightblue" d="M891.74,-633.86C907.28,-635.71 924.2,-637.72 938.85,-639.46"/>
<polygon fill="midnightblue" stroke="midnightblue" points="892.11,-630.38 881.76,-632.67 891.28,-637.33 892.11,-630.38"/>
</g>
<!-- Node7&#45;&gt;Node16 -->
<g id="edge19" class="edge">
<title>Node7&#45;&gt;Node16</title>
<path fill="none" stroke="midnightblue" d="M866.16,-613.09C882.76,-603.55 905.86,-592.03 928,-587 979.45,-575.3 1040.8,-586.95 1077.24,-596.47"/>
<polygon fill="midnightblue" stroke="midnightblue" points="864,-610.31 857.19,-618.42 867.57,-616.32 864,-610.31"/>
</g>
<!-- Node8&#45;&gt;Node7 -->
<g id="edge8" class="edge">
<title>Node8&#45;&gt;Node7</title>
<path fill="none" stroke="midnightblue" d="M713.53,-634.78C740.35,-633.35 775.02,-631.5 801.36,-630.09"/>
<polygon fill="midnightblue" stroke="midnightblue" points="713.1,-631.3 703.3,-635.33 713.47,-638.29 713.1,-631.3"/>
</g>
<!-- Node9 -->
<g id="node9" class="node">
<title>Node9</title>
<g id="a_node9"><a xlink:href="classSynchronizerVector.html" target="_top" xlink:title=" ">
<polygon fill="white" stroke="black" points="431.5,-494.5 431.5,-513.5 541.5,-513.5 541.5,-494.5 431.5,-494.5"/>
<text text-anchor="middle" x="486.5" y="-501.5" font-family="Helvetica,sans-Serif" font-size="10.00">SynchronizerVector</text>
</a>
</g>
</g>
<!-- Node9&#45;&gt;Node8 -->
<g id="edge10" class="edge">
<title>Node9&#45;&gt;Node8</title>
<path fill="none" stroke="midnightblue" d="M508.95,-519.63C546.96,-547.34 625.11,-604.28 656.5,-627.16"/>
<polygon fill="midnightblue" stroke="midnightblue" points="510.77,-516.63 500.62,-513.57 506.65,-522.28 510.77,-516.63"/>
</g>
<!-- Node52 -->
<g id="node46" class="node">
<title>Node52</title>
<g id="a_node46"><a xlink:href="classGigEthReg.html" target="_top" xlink:title=" ">
<polygon fill="white" stroke="black" points="944,-515.5 944,-534.5 1012,-534.5 1012,-515.5 944,-515.5"/>
<text text-anchor="middle" x="978" y="-522.5" font-family="Helvetica,sans-Serif" font-size="10.00">GigEthReg</text>
</a>
</g>
</g>
<!-- Node9&#45;&gt;Node52 -->
<g id="edge62" class="edge">
<title>Node9&#45;&gt;Node52</title>
<path fill="none" stroke="midnightblue" d="M551.75,-514.15C563.45,-515.68 575.57,-517.06 587,-518 718.78,-528.85 876.41,-527.22 943.8,-525.84"/>
<polygon fill="midnightblue" stroke="midnightblue" points="551.98,-510.64 541.6,-512.77 551.03,-517.58 551.98,-510.64"/>
</g>
<!-- Node54 -->
<g id="node48" class="node">
<title>Node54</title>
<g id="a_node48"><a xlink:href="classSyncStatusVector.html" target="_top" xlink:title=" ">
<polygon fill="white" stroke="black" points="791,-494.5 791,-513.5 892,-513.5 892,-494.5 791,-494.5"/>
<text text-anchor="middle" x="841.5" y="-501.5" font-family="Helvetica,sans-Serif" font-size="10.00">SyncStatusVector</text>
</a>
</g>
</g>
<!-- Node9&#45;&gt;Node54 -->
<g id="edge64" class="edge">
<title>Node9&#45;&gt;Node54</title>
<path fill="none" stroke="midnightblue" d="M552.17,-504C621.01,-504 728.45,-504 790.9,-504"/>
<polygon fill="midnightblue" stroke="midnightblue" points="551.88,-500.5 541.88,-504 551.88,-507.5 551.88,-500.5"/>
</g>
<!-- Node10 -->
<g id="node10" class="node">
<title>Node10</title>
<g id="a_node10"><a xlink:href="classFifoWrFsm.html" target="_top" xlink:title=" ">
<polygon fill="white" stroke="black" points="452,-684.5 452,-703.5 521,-703.5 521,-684.5 452,-684.5"/>
<text text-anchor="middle" x="486.5" y="-691.5" font-family="Helvetica,sans-Serif" font-size="10.00">FifoWrFsm</text>
</a>
</g>
</g>
<!-- Node10&#45;&gt;Node8 -->
<g id="edge12" class="edge">
<title>Node10&#45;&gt;Node8</title>
<path fill="none" stroke="midnightblue" d="M529.46,-681.56C536.65,-679.4 544.05,-677.15 551,-675 581.66,-665.52 616.65,-654.3 640.7,-646.52"/>
<polygon fill="midnightblue" stroke="midnightblue" points="528.41,-678.22 519.84,-684.45 530.42,-684.93 528.41,-678.22"/>
</g>
<!-- Node11 -->
<g id="node11" class="node">
<title>Node11</title>
<g id="a_node11"><a xlink:href="classFifoRdFsm.html" target="_top" xlink:title=" ">
<polygon fill="white" stroke="black" points="452.5,-646.5 452.5,-665.5 520.5,-665.5 520.5,-646.5 452.5,-646.5"/>
<text text-anchor="middle" x="486.5" y="-653.5" font-family="Helvetica,sans-Serif" font-size="10.00">FifoRdFsm</text>
</a>
</g>
</g>
<!-- Node11&#45;&gt;Node8 -->
<g id="edge13" class="edge">
<title>Node11&#45;&gt;Node8</title>
<path fill="none" stroke="midnightblue" d="M530.87,-651.48C564.05,-648.03 609,-643.35 638.72,-640.26"/>
<polygon fill="midnightblue" stroke="midnightblue" points="530.13,-648.04 520.55,-652.56 530.86,-655 530.13,-648.04"/>
</g>
<!-- Node12 -->
<g id="node12" class="node">
<title>Node12</title>
<g id="a_node12"><a xlink:href="classSimpleDualPortRam.html" target="_top" xlink:title=" ">
<polygon fill="white" stroke="black" points="429,-608.5 429,-627.5 544,-627.5 544,-608.5 429,-608.5"/>
<text text-anchor="middle" x="486.5" y="-615.5" font-family="Helvetica,sans-Serif" font-size="10.00">SimpleDualPortRam</text>
</a>
</g>
</g>
<!-- Node12&#45;&gt;Node8 -->
<g id="edge14" class="edge">
<title>Node12&#45;&gt;Node8</title>
<path fill="none" stroke="midnightblue" d="M554.3,-624.95C583.2,-627.96 615.64,-631.34 638.8,-633.75"/>
<polygon fill="midnightblue" stroke="midnightblue" points="554.55,-621.46 544.24,-623.91 553.83,-628.42 554.55,-621.46"/>
</g>
<!-- Node13 -->
<g id="node13" class="node">
<title>Node13</title>
<g id="a_node13"><a xlink:href="classFifoOutputPipeline.html" target="_top" xlink:title=" ">
<polygon fill="white" stroke="black" points="433,-570.5 433,-589.5 540,-589.5 540,-570.5 433,-570.5"/>
<text text-anchor="middle" x="486.5" y="-577.5" font-family="Helvetica,sans-Serif" font-size="10.00">FifoOutputPipeline</text>
</a>
</g>
</g>
<!-- Node13&#45;&gt;Node8 -->
<g id="edge15" class="edge">
<title>Node13&#45;&gt;Node8</title>
<path fill="none" stroke="midnightblue" d="M529.46,-592.44C536.65,-594.6 544.05,-596.85 551,-599 581.66,-608.48 616.65,-619.7 640.7,-627.48"/>
<polygon fill="midnightblue" stroke="midnightblue" points="530.42,-589.07 519.84,-589.55 528.41,-595.78 530.42,-589.07"/>
</g>
<!-- Node14 -->
<g id="node14" class="node">
<title>Node14</title>
<g id="a_node14"><a xlink:href="classMmcmEmulation.html" target="_top" xlink:title=" ">
<polygon fill="white" stroke="black" points="928,-754.5 928,-773.5 1028,-773.5 1028,-754.5 928,-754.5"/>
<text text-anchor="middle" x="978" y="-761.5" font-family="Helvetica,sans-Serif" font-size="10.00">MmcmEmulation</text>
</a>
</g>
</g>
<!-- Node14&#45;&gt;Node5 -->
<g id="edge16" class="edge">
<title>Node14&#45;&gt;Node5</title>
<path fill="none" stroke="midnightblue" d="M997.05,-747.34C1024.66,-721.86 1076.47,-674.03 1098.58,-653.62"/>
<polygon fill="midnightblue" stroke="midnightblue" points="994.61,-744.83 989.64,-754.18 999.36,-749.97 994.61,-744.83"/>
</g>
<!-- Node15 -->
<g id="node15" class="node">
<title>Node15</title>
<g id="a_node15"><a xlink:href="classClkRst.html" target="_top" xlink:title=" ">
<polygon fill="white" stroke="black" points="817.5,-798.5 817.5,-817.5 865.5,-817.5 865.5,-798.5 817.5,-798.5"/>
<text text-anchor="middle" x="841.5" y="-805.5" font-family="Helvetica,sans-Serif" font-size="10.00">ClkRst</text>
</a>
</g>
</g>
<!-- Node15&#45;&gt;Node14 -->
<g id="edge17" class="edge">
<title>Node15&#45;&gt;Node14</title>
<path fill="none" stroke="midnightblue" d="M875.24,-797.29C897.34,-790.06 926.25,-780.6 947.61,-773.62"/>
<polygon fill="midnightblue" stroke="midnightblue" points="874.04,-794 865.62,-800.44 876.21,-800.65 874.04,-794"/>
</g>
<!-- Node16&#45;&gt;Node1 -->
<g id="edge18" class="edge">
<title>Node16&#45;&gt;Node1</title>
<path fill="none" stroke="midnightblue" d="M1155.25,-618.32C1174,-623.54 1195.53,-629.53 1213.07,-634.41"/>
<polygon fill="midnightblue" stroke="midnightblue" points="1156.02,-614.9 1145.44,-615.59 1154.14,-621.64 1156.02,-614.9"/>
</g>
<!-- Node17 -->
<g id="node17" class="node">
<title>Node17</title>
<g id="a_node17"><a xlink:href="classAxiLiteCrossbar.html" target="_top" xlink:title=" ">
<polygon fill="white" stroke="black" points="931.5,-596.5 931.5,-615.5 1024.5,-615.5 1024.5,-596.5 931.5,-596.5"/>
<text text-anchor="middle" x="978" y="-603.5" font-family="Helvetica,sans-Serif" font-size="10.00">AxiLiteCrossbar</text>
</a>
</g>
</g>
<!-- Node17&#45;&gt;Node16 -->
<g id="edge20" class="edge">
<title>Node17&#45;&gt;Node16</title>
<path fill="none" stroke="midnightblue" d="M1035.2,-606C1048.3,-606 1061.9,-606 1073.79,-606"/>
<polygon fill="midnightblue" stroke="midnightblue" points="1034.83,-602.5 1024.83,-606 1034.83,-609.5 1034.83,-602.5"/>
</g>
<!-- Node18 -->
<g id="node18" class="node">
<title>Node18</title>
<g id="a_node18"><a xlink:href="classEthMacTop.html" target="_top" xlink:title=" ">
<polygon fill="white" stroke="black" points="943.5,-171.5 943.5,-190.5 1012.5,-190.5 1012.5,-171.5 943.5,-171.5"/>
<text text-anchor="middle" x="978" y="-178.5" font-family="Helvetica,sans-Serif" font-size="10.00">EthMacTop</text>
</a>
</g>
</g>
<!-- Node18&#45;&gt;Node16 -->
<g id="edge22" class="edge">
<title>Node18&#45;&gt;Node16</title>
<path fill="none" stroke="midnightblue" d="M985.01,-200.64C1007.91,-275.51 1089.28,-541.53 1105.99,-596.15"/>
<polygon fill="midnightblue" stroke="midnightblue" points="988.23,-199.21 981.96,-190.68 981.54,-201.26 988.23,-199.21"/>
</g>
<!-- Node19 -->
<g id="node19" class="node">
<title>Node19</title>
<g id="a_node19"><a xlink:href="classEthMacTxFifo.html" target="_top" xlink:title=" ">
<polygon fill="white" stroke="black" points="800,-76.5 800,-95.5 883,-95.5 883,-76.5 800,-76.5"/>
<text text-anchor="middle" x="841.5" y="-83.5" font-family="Helvetica,sans-Serif" font-size="10.00">EthMacTxFifo</text>
</a>
</g>
</g>
<!-- Node19&#45;&gt;Node18 -->
<g id="edge23" class="edge">
<title>Node19&#45;&gt;Node18</title>
<path fill="none" stroke="midnightblue" d="M864.77,-101.73C892.83,-121.55 940.2,-155.01 963.39,-171.39"/>
<polygon fill="midnightblue" stroke="midnightblue" points="866.57,-98.72 856.39,-95.81 862.54,-104.44 866.57,-98.72"/>
</g>
<!-- Node20&#45;&gt;Node19 -->
<g id="edge24" class="edge">
<title>Node20&#45;&gt;Node19</title>
<path fill="none" stroke="midnightblue" d="M357.31,-145.82C373.59,-132.97 398.01,-115.46 422,-105 558.54,-45.45 606.93,-50.75 755,-67 771.93,-68.86 790.41,-72.73 805.85,-76.49"/>
<polygon fill="midnightblue" stroke="midnightblue" points="354.73,-143.4 349.15,-152.41 359.13,-148.85 354.73,-143.4"/>
</g>
<!-- Node31 -->
<g id="node26" class="node">
<title>Node31</title>
<g id="a_node26"><a xlink:href="classEthMacTxCsum.html" target="_top" xlink:title=" ">
<polygon fill="white" stroke="black" points="440.5,-342.5 440.5,-361.5 532.5,-361.5 532.5,-342.5 440.5,-342.5"/>
<text text-anchor="middle" x="486.5" y="-349.5" font-family="Helvetica,sans-Serif" font-size="10.00">EthMacTxCsum</text>
</a>
</g>
</g>
<!-- Node20&#45;&gt;Node31 -->
<g id="edge34" class="edge">
<title>Node20&#45;&gt;Node31</title>
<path fill="none" stroke="midnightblue" d="M346.98,-180.77C367.98,-224.62 418.8,-330.29 422,-333 427.36,-337.54 433.77,-340.99 440.42,-343.62"/>
<polygon fill="midnightblue" stroke="midnightblue" points="350.02,-179.01 342.54,-171.5 343.7,-182.03 350.02,-179.01"/>
</g>
<!-- Node35 -->
<g id="node30" class="node">
<title>Node35</title>
<g id="a_node30"><a xlink:href="classEthMacTxExportXgmii.html" target="_top" xlink:title=" ">
<polygon fill="white" stroke="red" points="424,-304.5 424,-323.5 549,-323.5 549,-304.5 424,-304.5"/>
<text text-anchor="middle" x="486.5" y="-311.5" font-family="Helvetica,sans-Serif" font-size="10.00">EthMacTxExportXgmii</text>
</a>
</g>
</g>
<!-- Node20&#45;&gt;Node35 -->
<g id="edge39" class="edge">
<title>Node20&#45;&gt;Node35</title>
<path fill="none" stroke="midnightblue" d="M344.96,-181.11C356.49,-210.06 382.28,-264.86 422,-295 427.13,-298.9 433.06,-302 439.19,-304.46"/>
<polygon fill="midnightblue" stroke="midnightblue" points="348.21,-179.79 341.36,-171.7 341.67,-182.29 348.21,-179.79"/>
</g>
<!-- Node43 -->
<g id="node37" class="node">
<title>Node43</title>
<g id="a_node37"><a xlink:href="classEthMacRxImportGmii.html" target="_top" xlink:title=" ">
<polygon fill="white" stroke="red" points="426,-114.5 426,-133.5 547,-133.5 547,-114.5 426,-114.5"/>
<text text-anchor="middle" x="486.5" y="-121.5" font-family="Helvetica,sans-Serif" font-size="10.00">EthMacRxImportGmii</text>
</a>
</g>
</g>
<!-- Node20&#45;&gt;Node43 -->
<g id="edge47" class="edge">
<title>Node20&#45;&gt;Node43</title>
<path fill="none" stroke="midnightblue" d="M385.01,-149.89C405.56,-144.6 429.3,-138.48 448.55,-133.52"/>
<polygon fill="midnightblue" stroke="midnightblue" points="384.03,-146.53 375.22,-152.41 385.78,-153.31 384.03,-146.53"/>
</g>
<!-- Node49 -->
<g id="node43" class="node">
<title>Node49</title>
<g id="a_node43"><a xlink:href="classSsiFifo.html" target="_top" xlink:title=" ">
<polygon fill="white" stroke="black" points="462,-0.5 462,-19.5 511,-19.5 511,-0.5 462,-0.5"/>
<text text-anchor="middle" x="486.5" y="-7.5" font-family="Helvetica,sans-Serif" font-size="10.00">SsiFifo</text>
</a>
</g>
</g>
<!-- Node20&#45;&gt;Node49 -->
<g id="edge55" class="edge">
<title>Node20&#45;&gt;Node49</title>
<path fill="none" stroke="midnightblue" d="M345.76,-143.18C358.05,-115.55 384.48,-64.07 422,-34 433.59,-24.71 449.15,-18.75 461.97,-15.1"/>
<polygon fill="midnightblue" stroke="midnightblue" points="342.49,-141.93 341.75,-152.5 348.92,-144.7 342.49,-141.93"/>
</g>
<!-- Node21 -->
<g id="node21" class="node">
<title>Node21</title>
<g id="a_node21"><a xlink:href="classAxiStreamGearbox.html" target="_top" xlink:title=" ">
<polygon fill="white" stroke="red" points="143,-152.5 143,-171.5 252,-171.5 252,-152.5 143,-152.5"/>
<text text-anchor="middle" x="197.5" y="-159.5" font-family="Helvetica,sans-Serif" font-size="10.00">AxiStreamGearbox</text>
</a>
</g>
</g>
<!-- Node21&#45;&gt;Node20 -->
<g id="edge25" class="edge">
<title>Node21&#45;&gt;Node20</title>
<path fill="none" stroke="midnightblue" d="M262.1,-162C270.72,-162 279.45,-162 287.75,-162"/>
<polygon fill="midnightblue" stroke="midnightblue" points="262.05,-158.5 252.05,-162 262.05,-165.5 262.05,-158.5"/>
</g>
<!-- Node23 -->
<g id="node22" class="node">
<title>Node23</title>
<g id="a_node22"><a xlink:href="classAxiStreamPipeline.html" target="_top" xlink:title=" ">
<polygon fill="white" stroke="black" points="0,-133.5 0,-152.5 107,-152.5 107,-133.5 0,-133.5"/>
<text text-anchor="middle" x="53.5" y="-140.5" font-family="Helvetica,sans-Serif" font-size="10.00">AxiStreamPipeline</text>
</a>
</g>
</g>
<!-- Node23&#45;&gt;Node20 -->
<g id="edge29" class="edge">
<title>Node23&#45;&gt;Node20</title>
<path fill="none" stroke="midnightblue" d="M117.2,-139.46C156.13,-138.13 207.11,-137.99 252,-143 268.64,-144.86 286.8,-148.73 301.96,-152.49"/>
<polygon fill="midnightblue" stroke="midnightblue" points="116.93,-135.96 107.07,-139.84 117.19,-142.96 116.93,-135.96"/>
</g>
<!-- Node23&#45;&gt;Node21 -->
<g id="edge26" class="edge">
<title>Node23&#45;&gt;Node21</title>
<path fill="none" stroke="midnightblue" d="M117.5,-151.43C125.88,-152.55 134.42,-153.69 142.63,-154.79"/>
<polygon fill="midnightblue" stroke="midnightblue" points="117.75,-147.93 107.38,-150.07 116.82,-154.87 117.75,-147.93"/>
</g>
<!-- Node23&#45;&gt;Node31 -->
<g id="edge33" class="edge">
<title>Node23&#45;&gt;Node31</title>
<path fill="none" stroke="midnightblue" d="M70.89,-159.97C87.75,-176.69 115.38,-202.11 143,-219 246,-281.97 383.89,-324.52 448.79,-342.43"/>
<polygon fill="midnightblue" stroke="midnightblue" points="73.05,-157.17 63.52,-152.53 68.08,-162.1 73.05,-157.17"/>
</g>
<!-- Node51 -->
<g id="node45" class="node">
<title>Node51</title>
<g id="a_node45"><a xlink:href="classSsiObFrameFilter.html" target="_top" xlink:title=" ">
<polygon fill="white" stroke="black" points="147.5,-57.5 147.5,-76.5 247.5,-76.5 247.5,-57.5 147.5,-57.5"/>
<text text-anchor="middle" x="197.5" y="-64.5" font-family="Helvetica,sans-Serif" font-size="10.00">SsiObFrameFilter</text>
</a>
</g>
</g>
<!-- Node23&#45;&gt;Node51 -->
<g id="edge57" class="edge">
<title>Node23&#45;&gt;Node51</title>
<path fill="none" stroke="midnightblue" d="M81.51,-128.54C110.04,-113.28 154.2,-89.64 178.66,-76.55"/>
<polygon fill="midnightblue" stroke="midnightblue" points="79.65,-125.57 72.48,-133.37 82.95,-131.74 79.65,-125.57"/>
</g>
<!-- Node24 -->
<g id="node23" class="node">
<title>Node24</title>
<g id="a_node23"><a xlink:href="classFifoCascade.html" target="_top" xlink:title=" ">
<polygon fill="white" stroke="red" points="159.5,-190.5 159.5,-209.5 235.5,-209.5 235.5,-190.5 159.5,-190.5"/>
<text text-anchor="middle" x="197.5" y="-197.5" font-family="Helvetica,sans-Serif" font-size="10.00">FifoCascade</text>
</a>
</g>
</g>
<!-- Node24&#45;&gt;Node20 -->
<g id="edge27" class="edge">
<title>Node24&#45;&gt;Node20</title>
<path fill="none" stroke="midnightblue" d="M243.07,-187.68C261.96,-182.46 283.65,-176.47 301.31,-171.59"/>
<polygon fill="midnightblue" stroke="midnightblue" points="241.9,-184.37 233.2,-190.41 243.77,-191.12 241.9,-184.37"/>
</g>
<!-- Node29 -->
<g id="node24" class="node">
<title>Node29</title>
<g id="a_node24"><a xlink:href="classEthMacTx.html" target="_top" xlink:title=" ">
<polygon fill="white" stroke="black" points="809,-304.5 809,-323.5 874,-323.5 874,-304.5 809,-304.5"/>
<text text-anchor="middle" x="841.5" y="-311.5" font-family="Helvetica,sans-Serif" font-size="10.00">EthMacTx</text>
</a>
</g>
</g>
<!-- Node29&#45;&gt;Node18 -->
<g id="edge30" class="edge">
<title>Node29&#45;&gt;Node18</title>
<path fill="none" stroke="midnightblue" d="M859.39,-297.3C887.78,-269.23 944.21,-213.43 967.05,-190.84"/>
<polygon fill="midnightblue" stroke="midnightblue" points="856.82,-294.91 852.17,-304.43 861.74,-299.89 856.82,-294.91"/>
</g>
<!-- Node30 -->
<g id="node25" class="node">
<title>Node30</title>
<g id="a_node25"><a xlink:href="classEthMacTxBypass.html" target="_top" xlink:title=" ">
<polygon fill="white" stroke="black" points="621,-380.5 621,-399.5 721,-399.5 721,-380.5 621,-380.5"/>
<text text-anchor="middle" x="671" y="-387.5" font-family="Helvetica,sans-Serif" font-size="10.00">EthMacTxBypass</text>
</a>
</g>
</g>
<!-- Node30&#45;&gt;Node29 -->
<g id="edge31" class="edge">
<title>Node30&#45;&gt;Node29</title>
<path fill="none" stroke="midnightblue" d="M731.14,-379.26C739.31,-376.97 747.47,-374.24 755,-371 783.84,-358.58 813.44,-336.3 829.12,-323.58"/>
<polygon fill="midnightblue" stroke="midnightblue" points="730.02,-375.93 721.22,-381.83 731.78,-382.71 730.02,-375.93"/>
</g>
<!-- Node31&#45;&gt;Node29 -->
<g id="edge32" class="edge">
<title>Node31&#45;&gt;Node29</title>
<path fill="none" stroke="midnightblue" d="M541.38,-340.55C556.12,-337.74 572.13,-334.97 587,-333 666.41,-322.48 760.64,-317.32 808.76,-315.22"/>
<polygon fill="midnightblue" stroke="midnightblue" points="540.55,-337.15 531.41,-342.5 541.89,-344.02 540.55,-337.15"/>
</g>
<!-- Node32 -->
<g id="node27" class="node">
<title>Node32</title>
<g id="a_node27"><a xlink:href="classEthMacTxPause.html" target="_top" xlink:title=" ">
<polygon fill="white" stroke="black" points="624.5,-342.5 624.5,-361.5 717.5,-361.5 717.5,-342.5 624.5,-342.5"/>
<text text-anchor="middle" x="671" y="-349.5" font-family="Helvetica,sans-Serif" font-size="10.00">EthMacTxPause</text>
</a>
</g>
</g>
<!-- Node32&#45;&gt;Node29 -->
<g id="edge35" class="edge">
<title>Node32&#45;&gt;Node29</title>
<path fill="none" stroke="midnightblue" d="M724.45,-340.17C752.12,-333.93 785.16,-326.48 808.9,-321.13"/>
<polygon fill="midnightblue" stroke="midnightblue" points="723.5,-336.8 714.52,-342.41 725.04,-343.63 723.5,-336.8"/>
</g>
<!-- Node33 -->
<g id="node28" class="node">
<title>Node33</title>
<g id="a_node28"><a xlink:href="classEthMacTxExport.html" target="_top" xlink:title=" ">
<polygon fill="white" stroke="black" points="623,-266.5 623,-285.5 719,-285.5 719,-266.5 623,-266.5"/>
<text text-anchor="middle" x="671" y="-273.5" font-family="Helvetica,sans-Serif" font-size="10.00">EthMacTxExport</text>
</a>
</g>
</g>
<!-- Node33&#45;&gt;Node29 -->
<g id="edge36" class="edge">
<title>Node33&#45;&gt;Node29</title>
<path fill="none" stroke="midnightblue" d="M724.45,-287.83C752.12,-294.07 785.16,-301.52 808.9,-306.87"/>
<polygon fill="midnightblue" stroke="midnightblue" points="725.04,-284.37 714.52,-285.59 723.5,-291.2 725.04,-284.37"/>
</g>
<!-- Node34 -->
<g id="node29" class="node">
<title>Node34</title>
<g id="a_node29"><a xlink:href="classEthMacTxExportXlgmii.html" target="_top" xlink:title=" ">
<polygon fill="white" stroke="black" points="422.5,-266.5 422.5,-285.5 550.5,-285.5 550.5,-266.5 422.5,-266.5"/>
<text text-anchor="middle" x="486.5" y="-273.5" font-family="Helvetica,sans-Serif" font-size="10.00">EthMacTxExportXlgmii</text>
</a>
</g>
</g>
<!-- Node34&#45;&gt;Node33 -->
<g id="edge37" class="edge">
<title>Node34&#45;&gt;Node33</title>
<path fill="none" stroke="midnightblue" d="M560.71,-276C581.63,-276 603.86,-276 622.78,-276"/>
<polygon fill="midnightblue" stroke="midnightblue" points="560.56,-272.5 550.56,-276 560.56,-279.5 560.56,-272.5"/>
</g>
<!-- Node35&#45;&gt;Node33 -->
<g id="edge38" class="edge">
<title>Node35&#45;&gt;Node33</title>
<path fill="none" stroke="midnightblue" d="M543.6,-302.32C569.48,-296.93 599.81,-290.61 624.28,-285.52"/>
<polygon fill="midnightblue" stroke="midnightblue" points="542.63,-298.95 533.55,-304.41 544.06,-305.8 542.63,-298.95"/>
</g>
<!-- Node37 -->
<g id="node31" class="node">
<title>Node37</title>
<g id="a_node31"><a xlink:href="classEthMacTxExportGmii.html" target="_top" xlink:title=" ">
<polygon fill="white" stroke="red" points="427,-228.5 427,-247.5 546,-247.5 546,-228.5 427,-228.5"/>
<text text-anchor="middle" x="486.5" y="-235.5" font-family="Helvetica,sans-Serif" font-size="10.00">EthMacTxExportGmii</text>
</a>
</g>
</g>
<!-- Node37&#45;&gt;Node33 -->
<g id="edge40" class="edge">
<title>Node37&#45;&gt;Node33</title>
<path fill="none" stroke="midnightblue" d="M543.6,-249.68C569.48,-255.07 599.81,-261.39 624.28,-266.48"/>
<polygon fill="midnightblue" stroke="midnightblue" points="544.06,-246.2 533.55,-247.59 542.63,-253.05 544.06,-246.2"/>
</g>
<!-- Node38 -->
<g id="node32" class="node">
<title>Node38</title>
<g id="a_node32"><a xlink:href="classEthMacFlowCtrl.html" target="_top" xlink:title=" ">
<polygon fill="white" stroke="black" points="795,-190.5 795,-209.5 888,-209.5 888,-190.5 795,-190.5"/>
<text text-anchor="middle" x="841.5" y="-197.5" font-family="Helvetica,sans-Serif" font-size="10.00">EthMacFlowCtrl</text>
</a>
</g>
</g>
<!-- Node38&#45;&gt;Node18 -->
<g id="edge41" class="edge">
<title>Node38&#45;&gt;Node18</title>
<path fill="none" stroke="midnightblue" d="M898.01,-192.16C913.42,-189.98 929.68,-187.68 943.42,-185.74"/>
<polygon fill="midnightblue" stroke="midnightblue" points="897.45,-188.7 888.04,-193.57 898.43,-195.63 897.45,-188.7"/>
</g>
<!-- Node39 -->
<g id="node33" class="node">
<title>Node39</title>
<g id="a_node33"><a xlink:href="classEthMacRx.html" target="_top" xlink:title=" ">
<polygon fill="white" stroke="black" points="809,-152.5 809,-171.5 874,-171.5 874,-152.5 809,-152.5"/>
<text text-anchor="middle" x="841.5" y="-159.5" font-family="Helvetica,sans-Serif" font-size="10.00">EthMacRx</text>
</a>
</g>
</g>
<!-- Node39&#45;&gt;Node18 -->
<g id="edge42" class="edge">
<title>Node39&#45;&gt;Node18</title>
<path fill="none" stroke="midnightblue" d="M883.95,-167.86C903,-170.55 925.31,-173.7 943.31,-176.24"/>
<polygon fill="midnightblue" stroke="midnightblue" points="884.43,-164.39 874.03,-166.45 883.45,-171.32 884.43,-164.39"/>
</g>
<!-- Node40 -->
<g id="node34" class="node">
<title>Node40</title>
<g id="a_node34"><a xlink:href="classEthMacRxImport.html" target="_top" xlink:title=" ">
<polygon fill="white" stroke="black" points="622,-228.5 622,-247.5 720,-247.5 720,-228.5 622,-228.5"/>
<text text-anchor="middle" x="671" y="-235.5" font-family="Helvetica,sans-Serif" font-size="10.00">EthMacRxImport</text>
</a>
</g>
</g>
<!-- Node40&#45;&gt;Node39 -->
<g id="edge43" class="edge">
<title>Node40&#45;&gt;Node39</title>
<path fill="none" stroke="midnightblue" d="M730.1,-229.32C738.77,-226.73 747.35,-223.37 755,-219 775.2,-207.47 771.66,-193.93 791,-181 796.59,-177.26 803.01,-174.11 809.34,-171.52"/>
<polygon fill="midnightblue" stroke="midnightblue" points="729.08,-225.97 720.32,-231.93 730.88,-232.73 729.08,-225.97"/>
</g>
<!-- Node41 -->
<g id="node35" class="node">
<title>Node41</title>
<g id="a_node35"><a xlink:href="classEthMacRxImportXlgmii.html" target="_top" xlink:title=" ">
<polygon fill="white" stroke="black" points="422,-190.5 422,-209.5 551,-209.5 551,-190.5 422,-190.5"/>
<text text-anchor="middle" x="486.5" y="-197.5" font-family="Helvetica,sans-Serif" font-size="10.00">EthMacRxImportXlgmii</text>
</a>
</g>
</g>
<!-- Node41&#45;&gt;Node40 -->
<g id="edge44" class="edge">
<title>Node41&#45;&gt;Node40</title>
<path fill="none" stroke="midnightblue" d="M543.6,-211.68C569.48,-217.07 599.81,-223.39 624.28,-228.48"/>
<polygon fill="midnightblue" stroke="midnightblue" points="544.06,-208.2 533.55,-209.59 542.63,-215.05 544.06,-208.2"/>
</g>
<!-- Node42 -->
<g id="node36" class="node">
<title>Node42</title>
<g id="a_node36"><a xlink:href="classEthMacRxImportXgmii.html" target="_top" xlink:title=" ">
<polygon fill="white" stroke="red" points="423.5,-152.5 423.5,-171.5 549.5,-171.5 549.5,-152.5 423.5,-152.5"/>
<text text-anchor="middle" x="486.5" y="-159.5" font-family="Helvetica,sans-Serif" font-size="10.00">EthMacRxImportXgmii</text>
</a>
</g>
</g>
<!-- Node42&#45;&gt;Node40 -->
<g id="edge45" class="edge">
<title>Node42&#45;&gt;Node40</title>
<path fill="none" stroke="midnightblue" d="M540.09,-175.31C543.89,-177 547.57,-178.89 551,-181 570.81,-193.19 566.8,-207.47 587,-219 597.53,-225.01 609.83,-229.12 621.68,-231.93"/>
<polygon fill="midnightblue" stroke="midnightblue" points="541.08,-171.94 530.49,-171.52 538.51,-178.45 541.08,-171.94"/>
</g>
<!-- Node43&#45;&gt;Node40 -->
<g id="edge46" class="edge">
<title>Node43&#45;&gt;Node40</title>
<path fill="none" stroke="midnightblue" d="M544.64,-138.33C546.88,-139.74 549.01,-141.29 551,-143 579.35,-167.35 557.86,-195.59 587,-219 596.91,-226.96 609.53,-231.72 621.92,-234.52"/>
<polygon fill="midnightblue" stroke="midnightblue" points="546.03,-135.11 535.56,-133.54 542.77,-141.3 546.03,-135.11"/>
</g>
<!-- Node44 -->
<g id="node38" class="node">
<title>Node44</title>
<g id="a_node38"><a xlink:href="classEthMacRxPause.html" target="_top" xlink:title=" ">
<polygon fill="white" stroke="black" points="624,-190.5 624,-209.5 718,-209.5 718,-190.5 624,-190.5"/>
<text text-anchor="middle" x="671" y="-197.5" font-family="Helvetica,sans-Serif" font-size="10.00">EthMacRxPause</text>
</a>
</g>
</g>
<!-- Node44&#45;&gt;Node39 -->
<g id="edge48" class="edge">
<title>Node44&#45;&gt;Node39</title>
<path fill="none" stroke="midnightblue" d="M724.45,-188.17C752.12,-181.93 785.16,-174.48 808.9,-169.13"/>
<polygon fill="midnightblue" stroke="midnightblue" points="723.5,-184.8 714.52,-190.41 725.04,-191.63 723.5,-184.8"/>
</g>
<!-- Node45 -->
<g id="node39" class="node">
<title>Node45</title>
<g id="a_node39"><a xlink:href="classEthMacRxCsum.html" target="_top" xlink:title=" ">
<polygon fill="white" stroke="black" points="624.5,-152.5 624.5,-171.5 717.5,-171.5 717.5,-152.5 624.5,-152.5"/>
<text text-anchor="middle" x="671" y="-159.5" font-family="Helvetica,sans-Serif" font-size="10.00">EthMacRxCsum</text>
</a>
</g>
</g>
<!-- Node45&#45;&gt;Node39 -->
<g id="edge49" class="edge">
<title>Node45&#45;&gt;Node39</title>
<path fill="none" stroke="midnightblue" d="M727.71,-162C754.72,-162 786.18,-162 809,-162"/>
<polygon fill="midnightblue" stroke="midnightblue" points="727.6,-158.5 717.6,-162 727.6,-165.5 727.6,-158.5"/>
</g>
<!-- Node46 -->
<g id="node40" class="node">
<title>Node46</title>
<g id="a_node40"><a xlink:href="classEthMacRxBypass.html" target="_top" xlink:title=" ">
<polygon fill="white" stroke="black" points="620.5,-114.5 620.5,-133.5 721.5,-133.5 721.5,-114.5 620.5,-114.5"/>
<text text-anchor="middle" x="671" y="-121.5" font-family="Helvetica,sans-Serif" font-size="10.00">EthMacRxBypass</text>
</a>
</g>
</g>
<!-- Node46&#45;&gt;Node39 -->
<g id="edge50" class="edge">
<title>Node46&#45;&gt;Node39</title>
<path fill="none" stroke="midnightblue" d="M724.45,-135.83C752.12,-142.07 785.16,-149.52 808.9,-154.87"/>
<polygon fill="midnightblue" stroke="midnightblue" points="725.04,-132.37 714.52,-133.59 723.5,-139.2 725.04,-132.37"/>
</g>
<!-- Node47 -->
<g id="node41" class="node">
<title>Node47</title>
<g id="a_node41"><a xlink:href="classEthMacRxFilter.html" target="_top" xlink:title=" ">
<polygon fill="white" stroke="black" points="626,-76.5 626,-95.5 716,-95.5 716,-76.5 626,-76.5"/>
<text text-anchor="middle" x="671" y="-83.5" font-family="Helvetica,sans-Serif" font-size="10.00">EthMacRxFilter</text>
</a>
</g>
</g>
<!-- Node47&#45;&gt;Node39 -->
<g id="edge51" class="edge">
<title>Node47&#45;&gt;Node39</title>
<path fill="none" stroke="midnightblue" d="M725.82,-95.32C735.73,-97.87 745.84,-101.05 755,-105 783.84,-117.42 813.44,-139.7 829.12,-152.42"/>
<polygon fill="midnightblue" stroke="midnightblue" points="726.56,-91.89 716.02,-92.97 724.93,-98.7 726.56,-91.89"/>
</g>
<!-- Node48 -->
<g id="node42" class="node">
<title>Node48</title>
<g id="a_node42"><a xlink:href="classEthMacRxFifo.html" target="_top" xlink:title=" ">
<polygon fill="white" stroke="black" points="800,-0.5 800,-19.5 883,-19.5 883,-0.5 800,-0.5"/>
<text text-anchor="middle" x="841.5" y="-7.5" font-family="Helvetica,sans-Serif" font-size="10.00">EthMacRxFifo</text>
</a>
</g>
</g>
<!-- Node48&#45;&gt;Node18 -->
<g id="edge52" class="edge">
<title>Node48&#45;&gt;Node18</title>
<path fill="none" stroke="midnightblue" d="M858.39,-27.61C868.27,-38.73 881.13,-53.5 892,-67 922.35,-104.69 956.05,-151.49 970.18,-171.36"/>
<polygon fill="midnightblue" stroke="midnightblue" points="860.77,-25.02 851.49,-19.9 855.55,-29.68 860.77,-25.02"/>
</g>
<!-- Node49&#45;&gt;Node48 -->
<g id="edge53" class="edge">
<title>Node49&#45;&gt;Node48</title>
<path fill="none" stroke="midnightblue" d="M521.36,-10C586.64,-10 729.62,-10 799.89,-10"/>
<polygon fill="midnightblue" stroke="midnightblue" points="521.21,-6.5 511.21,-10 521.21,-13.5 521.21,-6.5"/>
</g>
<!-- Node50 -->
<g id="node44" class="node">
<title>Node50</title>
<g id="a_node44"><a xlink:href="classSsiIbFrameFilter.html" target="_top" xlink:title=" ">
<polygon fill="white" stroke="black" points="289.5,-38.5 289.5,-57.5 384.5,-57.5 384.5,-38.5 289.5,-38.5"/>
<text text-anchor="middle" x="337" y="-45.5" font-family="Helvetica,sans-Serif" font-size="10.00">SsiIbFrameFilter</text>
</a>
</g>
</g>
<!-- Node50&#45;&gt;Node49 -->
<g id="edge54" class="edge">
<title>Node50&#45;&gt;Node49</title>
<path fill="none" stroke="midnightblue" d="M385.09,-35.87C410.62,-29.29 441.07,-21.45 461.69,-16.13"/>
<polygon fill="midnightblue" stroke="midnightblue" points="384.03,-32.53 375.22,-38.41 385.78,-39.31 384.03,-32.53"/>
</g>
<!-- Node51&#45;&gt;Node49 -->
<g id="edge56" class="edge">
<title>Node51&#45;&gt;Node49</title>
<path fill="none" stroke="midnightblue" d="M225.44,-53C242.82,-44.61 266.19,-34.54 288,-29 349.43,-13.4 424.58,-10.41 462,-9.96"/>
<polygon fill="midnightblue" stroke="midnightblue" points="223.86,-49.88 216.44,-57.44 226.96,-56.15 223.86,-49.88"/>
</g>
<!-- Node52&#45;&gt;Node16 -->
<g id="edge59" class="edge">
<title>Node52&#45;&gt;Node16</title>
<path fill="none" stroke="midnightblue" d="M1004.28,-539.73C1011.94,-544.25 1020.34,-549.28 1028,-554 1051.47,-568.47 1078.33,-585.89 1094.47,-596.45"/>
<polygon fill="midnightblue" stroke="midnightblue" points="1005.82,-536.57 995.42,-534.52 1002.27,-542.6 1005.82,-536.57"/>
</g>
<!-- Node53&#45;&gt;Node52 -->
<g id="edge60" class="edge">
<title>Node53&#45;&gt;Node52</title>
<path fill="none" stroke="midnightblue" d="M381.99,-454.12C394.79,-451.18 408.87,-448.47 422,-447 569.09,-430.57 608.35,-427.04 755,-447 817.61,-455.52 832.76,-463.02 892,-485 915.7,-493.79 941.86,-506.6 958.82,-515.34"/>
<polygon fill="midnightblue" stroke="midnightblue" points="380.95,-450.77 372.04,-456.49 382.58,-457.57 380.95,-450.77"/>
</g>
<!-- Node54&#45;&gt;Node52 -->
<g id="edge63" class="edge">
<title>Node54&#45;&gt;Node52</title>
<path fill="none" stroke="midnightblue" d="M902.44,-513.36C916.65,-515.58 931.31,-517.87 943.83,-519.82"/>
<polygon fill="midnightblue" stroke="midnightblue" points="902.62,-509.84 892.2,-511.76 901.54,-516.76 902.62,-509.84"/>
</g>
<!-- Node55 -->
<g id="node49" class="node">
<title>Node55</title>
<g id="a_node49"><a xlink:href="classSynchronizerOneShotCntVector.html" target="_top" xlink:title=" ">
<polygon fill="white" stroke="red" points="587,-456.5 587,-475.5 755,-475.5 755,-456.5 587,-456.5"/>
<text text-anchor="middle" x="671" y="-463.5" font-family="Helvetica,sans-Serif" font-size="10.00">SynchronizerOneShotCntVector</text>
</a>
</g>
</g>
<!-- Node55&#45;&gt;Node54 -->
<g id="edge65" class="edge">
<title>Node55&#45;&gt;Node54</title>
<path fill="none" stroke="midnightblue" d="M724.43,-477.82C748.19,-483.18 775.9,-489.43 798.29,-494.48"/>
<polygon fill="midnightblue" stroke="midnightblue" points="725.04,-474.37 714.52,-475.59 723.5,-481.2 725.04,-474.37"/>
</g>
<!-- Node56&#45;&gt;Node55 -->
<g id="edge66" class="edge">
<title>Node56&#45;&gt;Node55</title>
<path fill="none" stroke="midnightblue" d="M557.29,-466C566.92,-466 576.88,-466 586.72,-466"/>
<polygon fill="midnightblue" stroke="midnightblue" points="557,-462.5 547,-466 557,-469.5 557,-462.5"/>
</g>
</g>
</svg>
