<?xml version="1.0" encoding="UTF-8" standalone="no"?>
<!DOCTYPE svg PUBLIC "-//W3C//DTD SVG 1.1//EN"
 "http://www.w3.org/Graphics/SVG/1.1/DTD/svg11.dtd">
<!-- Generated by graphviz version 2.43.0 (0)
 -->
<!-- Title: Pgp2fcGtp7Wrapper Pages: 1 -->
<svg width="992pt" height="750pt"
 viewBox="0.00 0.00 992.00 750.00" xmlns="http://www.w3.org/2000/svg" xmlns:xlink="http://www.w3.org/1999/xlink">
<g id="graph0" class="graph" transform="scale(1 1) rotate(0) translate(4 746)">
<title>Pgp2fcGtp7Wrapper</title>
<polygon fill="white" stroke="transparent" points="-4,4 -4,-746 988,-746 988,4 -4,4"/>
<!-- Node1 -->
<g id="node1" class="node">
<title>Node1</title>
<g id="a_node1"><a xlink:title=" ">
<polygon fill="#bfbfbf" stroke="black" points="870,-568.5 870,-587.5 984,-587.5 984,-568.5 870,-568.5"/>
<text text-anchor="middle" x="927" y="-575.5" font-family="Helvetica,sans-Serif" font-size="10.00">Pgp2fcGtp7Wrapper</text>
</a>
</g>
</g>
<!-- Node2 -->
<g id="node2" class="node">
<title>Node2</title>
<g id="a_node2"><a xlink:href="classPwrUpRst.html" target="_top" xlink:title=" ">
<polygon fill="white" stroke="black" points="468,-569.5 468,-588.5 532,-588.5 532,-569.5 468,-569.5"/>
<text text-anchor="middle" x="500" y="-576.5" font-family="Helvetica,sans-Serif" font-size="10.00">PwrUpRst</text>
</a>
</g>
</g>
<!-- Node2&#45;&gt;Node1 -->
<g id="edge1" class="edge">
<title>Node2&#45;&gt;Node1</title>
<path fill="none" stroke="midnightblue" d="M542.48,-578.9C619.16,-578.72 783.18,-578.34 869.78,-578.13"/>
<polygon fill="midnightblue" stroke="midnightblue" points="542.24,-575.4 532.25,-578.93 542.26,-582.4 542.24,-575.4"/>
</g>
<!-- Node3 -->
<g id="node3" class="node">
<title>Node3</title>
<g id="a_node3"><a xlink:href="classRstSync.html" target="_top" xlink:title=" ">
<polygon fill="white" stroke="black" points="145.5,-532.5 145.5,-551.5 201.5,-551.5 201.5,-532.5 145.5,-532.5"/>
<text text-anchor="middle" x="173.5" y="-539.5" font-family="Helvetica,sans-Serif" font-size="10.00">RstSync</text>
</a>
</g>
</g>
<!-- Node3&#45;&gt;Node2 -->
<g id="edge2" class="edge">
<title>Node3&#45;&gt;Node2</title>
<path fill="none" stroke="midnightblue" d="M211.59,-548.06C228.47,-550.7 248.72,-553.71 267,-556 338.69,-564.97 423.2,-572.61 467.8,-576.42"/>
<polygon fill="midnightblue" stroke="midnightblue" points="211.99,-544.58 201.57,-546.47 210.9,-551.49 211.99,-544.58"/>
</g>
<!-- Node7 -->
<g id="node7" class="node">
<title>Node7</title>
<g id="a_node7"><a xlink:href="classAxiLiteAsync.html" target="_top" xlink:title=" ">
<polygon fill="white" stroke="black" points="460,-608.5 460,-627.5 540,-627.5 540,-608.5 460,-608.5"/>
<text text-anchor="middle" x="500" y="-615.5" font-family="Helvetica,sans-Serif" font-size="10.00">AxiLiteAsync</text>
</a>
</g>
</g>
<!-- Node3&#45;&gt;Node7 -->
<g id="edge7" class="edge">
<title>Node3&#45;&gt;Node7</title>
<path fill="none" stroke="midnightblue" d="M207.28,-555.56C228.95,-564.36 255.41,-574.78 267,-578 333.55,-596.49 413.34,-608 459.89,-613.69"/>
<polygon fill="midnightblue" stroke="midnightblue" points="208.32,-552.2 197.74,-551.66 205.67,-558.68 208.32,-552.2"/>
</g>
<!-- Node8 -->
<g id="node8" class="node">
<title>Node8</title>
<g id="a_node8"><a xlink:href="classFifoAsync.html" target="_top" xlink:title=" ">
<polygon fill="white" stroke="black" points="313.5,-646.5 313.5,-665.5 377.5,-665.5 377.5,-646.5 313.5,-646.5"/>
<text text-anchor="middle" x="345.5" y="-653.5" font-family="Helvetica,sans-Serif" font-size="10.00">FifoAsync</text>
</a>
</g>
</g>
<!-- Node3&#45;&gt;Node8 -->
<g id="edge9" class="edge">
<title>Node3&#45;&gt;Node8</title>
<path fill="none" stroke="midnightblue" d="M211.24,-553.36C218.32,-556.67 225.3,-560.83 231,-566 255.75,-588.45 241.14,-610.84 267,-632 280.08,-642.71 297.93,-648.65 313.2,-651.94"/>
<polygon fill="midnightblue" stroke="midnightblue" points="212.21,-549.97 201.63,-549.35 209.51,-556.43 212.21,-549.97"/>
</g>
<!-- Node30 -->
<g id="node30" class="node">
<title>Node30</title>
<g id="a_node30"><a xlink:href="classSynchronizerOneShot.html" target="_top" xlink:title=" ">
<polygon fill="white" stroke="black" points="285,-380.5 285,-399.5 406,-399.5 406,-380.5 285,-380.5"/>
<text text-anchor="middle" x="345.5" y="-387.5" font-family="Helvetica,sans-Serif" font-size="10.00">SynchronizerOneShot</text>
</a>
</g>
</g>
<!-- Node3&#45;&gt;Node30 -->
<g id="edge39" class="edge">
<title>Node3&#45;&gt;Node30</title>
<path fill="none" stroke="midnightblue" d="M193.66,-525.74C205.47,-515.02 220.34,-500.2 231,-485 252.46,-454.4 238.04,-432.63 267,-409 272.26,-404.71 278.34,-401.36 284.75,-398.76"/>
<polygon fill="midnightblue" stroke="midnightblue" points="191.23,-523.21 186.06,-532.45 195.87,-528.45 191.23,-523.21"/>
</g>
<!-- Node34 -->
<g id="node34" class="node">
<title>Node34</title>
<g id="a_node34"><a xlink:href="classGtp7Core.html" target="_top" xlink:title=" ">
<polygon fill="white" stroke="black" points="469,-438.5 469,-457.5 531,-457.5 531,-438.5 469,-438.5"/>
<text text-anchor="middle" x="500" y="-445.5" font-family="Helvetica,sans-Serif" font-size="10.00">Gtp7Core</text>
</a>
</g>
</g>
<!-- Node3&#45;&gt;Node34 -->
<g id="edge47" class="edge">
<title>Node3&#45;&gt;Node34</title>
<path fill="none" stroke="midnightblue" d="M212.03,-546.95C262.67,-551.93 354.53,-554.92 424,-523 455.62,-508.47 481.43,-474.51 492.78,-457.74"/>
<polygon fill="midnightblue" stroke="midnightblue" points="212.19,-543.44 201.87,-545.86 211.44,-550.4 212.19,-543.44"/>
</g>
<!-- Node37 -->
<g id="node37" class="node">
<title>Node37</title>
<g id="a_node37"><a xlink:href="classGtp7RxFixedLatPhaseAligner.html" target="_top" xlink:title=" ">
<polygon fill="white" stroke="black" points="267,-494.5 267,-513.5 424,-513.5 424,-494.5 267,-494.5"/>
<text text-anchor="middle" x="345.5" y="-501.5" font-family="Helvetica,sans-Serif" font-size="10.00">Gtp7RxFixedLatPhaseAligner</text>
</a>
</g>
</g>
<!-- Node3&#45;&gt;Node37 -->
<g id="edge51" class="edge">
<title>Node3&#45;&gt;Node37</title>
<path fill="none" stroke="midnightblue" d="M211.88,-533.64C238.49,-527.7 274.29,-519.69 301.99,-513.5"/>
<polygon fill="midnightblue" stroke="midnightblue" points="210.81,-530.3 201.81,-535.89 212.34,-537.13 210.81,-530.3"/>
</g>
<!-- Node40 -->
<g id="node40" class="node">
<title>Node40</title>
<g id="a_node40"><a xlink:href="classGtp7RxRstSeq.html" target="_top" xlink:title=" ">
<polygon fill="white" stroke="black" points="302.5,-456.5 302.5,-475.5 388.5,-475.5 388.5,-456.5 302.5,-456.5"/>
<text text-anchor="middle" x="345.5" y="-463.5" font-family="Helvetica,sans-Serif" font-size="10.00">Gtp7RxRstSeq</text>
</a>
</g>
</g>
<!-- Node3&#45;&gt;Node40 -->
<g id="edge59" class="edge">
<title>Node3&#45;&gt;Node40</title>
<path fill="none" stroke="midnightblue" d="M210.87,-528.72C217.77,-525.6 224.78,-522 231,-518 249.25,-506.25 247.86,-495.24 267,-485 277.87,-479.18 290.55,-475.12 302.47,-472.28"/>
<polygon fill="midnightblue" stroke="midnightblue" points="209.43,-525.53 201.6,-532.67 212.17,-531.97 209.43,-525.53"/>
</g>
<!-- Node4 -->
<g id="node4" class="node">
<title>Node4</title>
<g id="a_node4"><a xlink:href="classSynchronizer.html" target="_top" xlink:title=" ">
<polygon fill="white" stroke="black" points="0,-399.5 0,-418.5 80,-418.5 80,-399.5 0,-399.5"/>
<text text-anchor="middle" x="40" y="-406.5" font-family="Helvetica,sans-Serif" font-size="10.00">Synchronizer</text>
</a>
</g>
</g>
<!-- Node4&#45;&gt;Node3 -->
<g id="edge3" class="edge">
<title>Node4&#45;&gt;Node3</title>
<path fill="none" stroke="midnightblue" d="M49.6,-427.55C61.49,-451.39 85.02,-492.7 116,-518 124.58,-525.01 135.52,-530.29 145.48,-534.08"/>
<polygon fill="midnightblue" stroke="midnightblue" points="52.73,-425.99 45.23,-418.5 46.43,-429.03 52.73,-425.99"/>
</g>
<!-- Node4&#45;&gt;Node8 -->
<g id="edge11" class="edge">
<title>Node4&#45;&gt;Node8</title>
<path fill="none" stroke="midnightblue" d="M45.48,-428.79C53.81,-461.08 74.69,-525.07 116,-561 156.62,-596.32 181.26,-578.42 231,-599 266.05,-613.5 305.23,-634.25 327.18,-646.3"/>
<polygon fill="midnightblue" stroke="midnightblue" points="48.82,-427.68 43.05,-418.79 42.01,-429.34 48.82,-427.68"/>
</g>
<!-- Node19 -->
<g id="node19" class="node">
<title>Node19</title>
<g id="a_node19"><a xlink:href="classPgp2fcTx.html" target="_top" xlink:title=" ">
<polygon fill="white" stroke="black" points="314.5,-181.5 314.5,-200.5 376.5,-200.5 376.5,-181.5 314.5,-181.5"/>
<text text-anchor="middle" x="345.5" y="-188.5" font-family="Helvetica,sans-Serif" font-size="10.00">Pgp2fcTx</text>
</a>
</g>
</g>
<!-- Node4&#45;&gt;Node19 -->
<g id="edge24" class="edge">
<title>Node4&#45;&gt;Node19</title>
<path fill="none" stroke="midnightblue" d="M48.05,-389.65C58.67,-363.19 81.33,-316.03 116,-290 158.53,-258.08 182.09,-277.86 231,-257 268.95,-240.82 309.97,-214.52 330.75,-200.51"/>
<polygon fill="midnightblue" stroke="midnightblue" points="44.66,-388.71 44.34,-399.3 51.19,-391.22 44.66,-388.71"/>
</g>
<!-- Node31 -->
<g id="node31" class="node">
<title>Node31</title>
<g id="a_node31"><a xlink:href="classSynchronizerEdge.html" target="_top" xlink:title=" ">
<polygon fill="white" stroke="black" points="121.5,-342.5 121.5,-361.5 225.5,-361.5 225.5,-342.5 121.5,-342.5"/>
<text text-anchor="middle" x="173.5" y="-349.5" font-family="Helvetica,sans-Serif" font-size="10.00">SynchronizerEdge</text>
</a>
</g>
</g>
<!-- Node4&#45;&gt;Node31 -->
<g id="edge41" class="edge">
<title>Node4&#45;&gt;Node31</title>
<path fill="none" stroke="midnightblue" d="M71.96,-395.27C85.47,-389.31 101.5,-382.27 116,-376 127.15,-371.18 139.58,-365.89 149.93,-361.51"/>
<polygon fill="midnightblue" stroke="midnightblue" points="70.36,-392.15 62.63,-399.4 73.19,-398.55 70.36,-392.15"/>
</g>
<!-- Node36 -->
<g id="node36" class="node">
<title>Node36</title>
<g id="a_node36"><a xlink:href="classGtp7AutoPhaseAligner.html" target="_top" xlink:title=" ">
<polygon fill="white" stroke="black" points="282.5,-418.5 282.5,-437.5 408.5,-437.5 408.5,-418.5 282.5,-418.5"/>
<text text-anchor="middle" x="345.5" y="-425.5" font-family="Helvetica,sans-Serif" font-size="10.00">Gtp7AutoPhaseAligner</text>
</a>
</g>
</g>
<!-- Node4&#45;&gt;Node36 -->
<g id="edge49" class="edge">
<title>Node4&#45;&gt;Node36</title>
<path fill="none" stroke="midnightblue" d="M90.11,-412.07C142.48,-415.35 225.57,-420.55 282.44,-424.11"/>
<polygon fill="midnightblue" stroke="midnightblue" points="90.26,-408.58 80.06,-411.45 89.82,-415.56 90.26,-408.58"/>
</g>
<!-- Node38 -->
<g id="node38" class="node">
<title>Node38</title>
<g id="a_node38"><a xlink:href="classGtp7TxRst.html" target="_top" xlink:title=" ">
<polygon fill="white" stroke="black" points="311.5,-266.5 311.5,-285.5 379.5,-285.5 379.5,-266.5 311.5,-266.5"/>
<text text-anchor="middle" x="345.5" y="-273.5" font-family="Helvetica,sans-Serif" font-size="10.00">Gtp7TxRst</text>
</a>
</g>
</g>
<!-- Node4&#45;&gt;Node38 -->
<g id="edge53" class="edge">
<title>Node4&#45;&gt;Node38</title>
<path fill="none" stroke="midnightblue" d="M53.84,-391.19C67.36,-373.76 90.23,-347.73 116,-333 179.18,-296.88 264.97,-283.43 311.39,-278.59"/>
<polygon fill="midnightblue" stroke="midnightblue" points="50.87,-389.33 47.66,-399.42 56.47,-393.53 50.87,-389.33"/>
</g>
<!-- Node39 -->
<g id="node39" class="node">
<title>Node39</title>
<g id="a_node39"><a xlink:href="classGtp7TxManualPhaseAligner.html" target="_top" xlink:title=" ">
<polygon fill="white" stroke="black" points="269.5,-342.5 269.5,-361.5 421.5,-361.5 421.5,-342.5 269.5,-342.5"/>
<text text-anchor="middle" x="345.5" y="-349.5" font-family="Helvetica,sans-Serif" font-size="10.00">Gtp7TxManualPhaseAligner</text>
</a>
</g>
</g>
<!-- Node4&#45;&gt;Node39 -->
<g id="edge55" class="edge">
<title>Node4&#45;&gt;Node39</title>
<path fill="none" stroke="midnightblue" d="M90.08,-399.78C146.03,-389.27 237.06,-372.18 293.71,-361.54"/>
<polygon fill="midnightblue" stroke="midnightblue" points="89.24,-396.38 80.06,-401.66 90.53,-403.26 89.24,-396.38"/>
</g>
<!-- Node4&#45;&gt;Node40 -->
<g id="edge58" class="edge">
<title>Node4&#45;&gt;Node40</title>
<path fill="none" stroke="midnightblue" d="M52.37,-427.05C65.23,-445.59 88.06,-473.32 116,-485 148.59,-498.63 245.84,-484.22 302.41,-474.11"/>
<polygon fill="midnightblue" stroke="midnightblue" points="55.18,-424.96 46.73,-418.57 49.35,-428.83 55.18,-424.96"/>
</g>
<!-- Node5 -->
<g id="node5" class="node">
<title>Node5</title>
<g id="a_node5"><a xlink:href="classClockManager7.html" target="_top" xlink:title=" ">
<polygon fill="white" stroke="black" points="741.5,-644.5 741.5,-663.5 833.5,-663.5 833.5,-644.5 741.5,-644.5"/>
<text text-anchor="middle" x="787.5" y="-651.5" font-family="Helvetica,sans-Serif" font-size="10.00">ClockManager7</text>
</a>
</g>
</g>
<!-- Node5&#45;&gt;Node1 -->
<g id="edge4" class="edge">
<title>Node5&#45;&gt;Node1</title>
<path fill="none" stroke="midnightblue" d="M822.8,-640.37C826.62,-638.65 830.42,-636.84 834,-635 862.74,-620.22 894.39,-599.57 912.07,-587.61"/>
<polygon fill="midnightblue" stroke="midnightblue" points="821.17,-637.26 813.38,-644.45 823.95,-643.69 821.17,-637.26"/>
</g>
<!-- Node6 -->
<g id="node6" class="node">
<title>Node6</title>
<g id="a_node6"><a xlink:href="classAxiLiteToDrp.html" target="_top" xlink:title=" ">
<polygon fill="white" stroke="black" points="601.5,-607.5 601.5,-626.5 679.5,-626.5 679.5,-607.5 601.5,-607.5"/>
<text text-anchor="middle" x="640.5" y="-614.5" font-family="Helvetica,sans-Serif" font-size="10.00">AxiLiteToDrp</text>
</a>
</g>
</g>
<!-- Node6&#45;&gt;Node5 -->
<g id="edge5" class="edge">
<title>Node6&#45;&gt;Node5</title>
<path fill="none" stroke="midnightblue" d="M688.77,-629.06C708.31,-634.05 730.65,-639.75 749.03,-644.44"/>
<polygon fill="midnightblue" stroke="midnightblue" points="689.4,-625.61 678.84,-626.53 687.67,-632.39 689.4,-625.61"/>
</g>
<!-- Node16 -->
<g id="node16" class="node">
<title>Node16</title>
<g id="a_node16"><a xlink:href="classGtp7QuadPll.html" target="_top" xlink:title=" ">
<polygon fill="white" stroke="black" points="749,-606.5 749,-625.5 826,-625.5 826,-606.5 749,-606.5"/>
<text text-anchor="middle" x="787.5" y="-613.5" font-family="Helvetica,sans-Serif" font-size="10.00">Gtp7QuadPll</text>
</a>
</g>
</g>
<!-- Node6&#45;&gt;Node16 -->
<g id="edge19" class="edge">
<title>Node6&#45;&gt;Node16</title>
<path fill="none" stroke="midnightblue" d="M689.7,-616.67C708.98,-616.53 730.84,-616.38 748.91,-616.26"/>
<polygon fill="midnightblue" stroke="midnightblue" points="689.57,-613.17 679.6,-616.74 689.62,-620.17 689.57,-613.17"/>
</g>
<!-- Node17 -->
<g id="node17" class="node">
<title>Node17</title>
<g id="a_node17"><a xlink:href="classPgp2fcGtp7.html" target="_top" xlink:title=" ">
<polygon fill="white" stroke="black" points="751,-509.5 751,-528.5 824,-528.5 824,-509.5 751,-509.5"/>
<text text-anchor="middle" x="787.5" y="-516.5" font-family="Helvetica,sans-Serif" font-size="10.00">Pgp2fcGtp7</text>
</a>
</g>
</g>
<!-- Node6&#45;&gt;Node17 -->
<g id="edge60" class="edge">
<title>Node6&#45;&gt;Node17</title>
<path fill="none" stroke="midnightblue" d="M664.27,-601.61C694.44,-581.22 746.81,-545.83 772.06,-528.76"/>
<polygon fill="midnightblue" stroke="midnightblue" points="661.99,-598.93 655.67,-607.42 665.91,-604.73 661.99,-598.93"/>
</g>
<!-- Node7&#45;&gt;Node6 -->
<g id="edge6" class="edge">
<title>Node7&#45;&gt;Node6</title>
<path fill="none" stroke="midnightblue" d="M550.42,-617.64C567.07,-617.52 585.37,-617.39 601.04,-617.28"/>
<polygon fill="midnightblue" stroke="midnightblue" points="550.29,-614.14 540.32,-617.72 550.34,-621.14 550.29,-614.14"/>
</g>
<!-- Node8&#45;&gt;Node7 -->
<g id="edge8" class="edge">
<title>Node8&#45;&gt;Node7</title>
<path fill="none" stroke="midnightblue" d="M387.46,-645.79C410.25,-640.11 438.45,-633.09 460.79,-627.52"/>
<polygon fill="midnightblue" stroke="midnightblue" points="386.59,-642.4 377.73,-648.22 388.28,-649.2 386.59,-642.4"/>
</g>
<!-- Node9 -->
<g id="node9" class="node">
<title>Node9</title>
<g id="a_node9"><a xlink:href="classSynchronizerVector.html" target="_top" xlink:title=" ">
<polygon fill="white" stroke="black" points="118.5,-456.5 118.5,-475.5 228.5,-475.5 228.5,-456.5 118.5,-456.5"/>
<text text-anchor="middle" x="173.5" y="-463.5" font-family="Helvetica,sans-Serif" font-size="10.00">SynchronizerVector</text>
</a>
</g>
</g>
<!-- Node9&#45;&gt;Node8 -->
<g id="edge10" class="edge">
<title>Node9&#45;&gt;Node8</title>
<path fill="none" stroke="midnightblue" d="M191.93,-482.92C203.28,-494.09 218.28,-509.17 231,-523 272.31,-567.9 318.72,-624.29 336.75,-646.44"/>
<polygon fill="midnightblue" stroke="midnightblue" points="194.33,-480.36 184.73,-475.87 189.43,-485.37 194.33,-480.36"/>
</g>
<!-- Node9&#45;&gt;Node19 -->
<g id="edge23" class="edge">
<title>Node9&#45;&gt;Node19</title>
<path fill="none" stroke="midnightblue" d="M186.89,-448.05C199.32,-429.44 218.38,-399.16 231,-371 252.72,-322.51 237.63,-301.28 267,-257 283.21,-232.55 310.99,-212.06 328.51,-200.67"/>
<polygon fill="midnightblue" stroke="midnightblue" points="183.93,-446.18 181.22,-456.42 189.72,-450.1 183.93,-446.18"/>
</g>
<!-- Node10 -->
<g id="node10" class="node">
<title>Node10</title>
<g id="a_node10"><a xlink:href="classFifoWrFsm.html" target="_top" xlink:title=" ">
<polygon fill="white" stroke="black" points="139,-722.5 139,-741.5 208,-741.5 208,-722.5 139,-722.5"/>
<text text-anchor="middle" x="173.5" y="-729.5" font-family="Helvetica,sans-Serif" font-size="10.00">FifoWrFsm</text>
</a>
</g>
</g>
<!-- Node10&#45;&gt;Node8 -->
<g id="edge12" class="edge">
<title>Node10&#45;&gt;Node8</title>
<path fill="none" stroke="midnightblue" d="M215.15,-719.1C220.52,-717.17 225.93,-715.12 231,-713 266.01,-698.41 305.21,-677.69 327.17,-665.67"/>
<polygon fill="midnightblue" stroke="midnightblue" points="213.88,-715.84 205.58,-722.42 216.18,-722.45 213.88,-715.84"/>
</g>
<!-- Node11 -->
<g id="node11" class="node">
<title>Node11</title>
<g id="a_node11"><a xlink:href="classFifoRdFsm.html" target="_top" xlink:title=" ">
<polygon fill="white" stroke="black" points="139.5,-684.5 139.5,-703.5 207.5,-703.5 207.5,-684.5 139.5,-684.5"/>
<text text-anchor="middle" x="173.5" y="-691.5" font-family="Helvetica,sans-Serif" font-size="10.00">FifoRdFsm</text>
</a>
</g>
</g>
<!-- Node11&#45;&gt;Node8 -->
<g id="edge13" class="edge">
<title>Node11&#45;&gt;Node8</title>
<path fill="none" stroke="midnightblue" d="M217.82,-684.32C247.67,-677.65 286.62,-668.94 313.41,-662.95"/>
<polygon fill="midnightblue" stroke="midnightblue" points="216.68,-680.99 207.68,-686.58 218.2,-687.82 216.68,-680.99"/>
</g>
<!-- Node12 -->
<g id="node12" class="node">
<title>Node12</title>
<g id="a_node12"><a xlink:href="classSimpleDualPortRam.html" target="_top" xlink:title=" ">
<polygon fill="white" stroke="black" points="116,-646.5 116,-665.5 231,-665.5 231,-646.5 116,-646.5"/>
<text text-anchor="middle" x="173.5" y="-653.5" font-family="Helvetica,sans-Serif" font-size="10.00">SimpleDualPortRam</text>
</a>
</g>
</g>
<!-- Node12&#45;&gt;Node8 -->
<g id="edge14" class="edge">
<title>Node12&#45;&gt;Node8</title>
<path fill="none" stroke="midnightblue" d="M241.25,-656C266.13,-656 293.21,-656 313.39,-656"/>
<polygon fill="midnightblue" stroke="midnightblue" points="241.11,-652.5 231.11,-656 241.11,-659.5 241.11,-652.5"/>
</g>
<!-- Node13 -->
<g id="node13" class="node">
<title>Node13</title>
<g id="a_node13"><a xlink:href="classFifoOutputPipeline.html" target="_top" xlink:title=" ">
<polygon fill="white" stroke="black" points="120,-608.5 120,-627.5 227,-627.5 227,-608.5 120,-608.5"/>
<text text-anchor="middle" x="173.5" y="-615.5" font-family="Helvetica,sans-Serif" font-size="10.00">FifoOutputPipeline</text>
</a>
</g>
</g>
<!-- Node13&#45;&gt;Node8 -->
<g id="edge15" class="edge">
<title>Node13&#45;&gt;Node8</title>
<path fill="none" stroke="midnightblue" d="M227.52,-629.85C255.73,-636.16 289.45,-643.69 313.42,-649.05"/>
<polygon fill="midnightblue" stroke="midnightblue" points="227.92,-626.35 217.4,-627.59 226.39,-633.19 227.92,-626.35"/>
</g>
<!-- Node14 -->
<g id="node14" class="node">
<title>Node14</title>
<g id="a_node14"><a xlink:href="classMmcmEmulation.html" target="_top" xlink:title=" ">
<polygon fill="white" stroke="black" points="590.5,-646.5 590.5,-665.5 690.5,-665.5 690.5,-646.5 590.5,-646.5"/>
<text text-anchor="middle" x="640.5" y="-653.5" font-family="Helvetica,sans-Serif" font-size="10.00">MmcmEmulation</text>
</a>
</g>
</g>
<!-- Node14&#45;&gt;Node5 -->
<g id="edge16" class="edge">
<title>Node14&#45;&gt;Node5</title>
<path fill="none" stroke="midnightblue" d="M700.79,-655.18C714.34,-655 728.52,-654.8 741.37,-654.62"/>
<polygon fill="midnightblue" stroke="midnightblue" points="700.54,-651.69 690.59,-655.32 700.64,-658.68 700.54,-651.69"/>
</g>
<!-- Node15 -->
<g id="node15" class="node">
<title>Node15</title>
<g id="a_node15"><a xlink:href="classClkRst.html" target="_top" xlink:title=" ">
<polygon fill="white" stroke="black" points="476,-646.5 476,-665.5 524,-665.5 524,-646.5 476,-646.5"/>
<text text-anchor="middle" x="500" y="-653.5" font-family="Helvetica,sans-Serif" font-size="10.00">ClkRst</text>
</a>
</g>
</g>
<!-- Node15&#45;&gt;Node14 -->
<g id="edge17" class="edge">
<title>Node15&#45;&gt;Node14</title>
<path fill="none" stroke="midnightblue" d="M534.57,-656C551.31,-656 571.89,-656 590.36,-656"/>
<polygon fill="midnightblue" stroke="midnightblue" points="534.18,-652.5 524.18,-656 534.18,-659.5 534.18,-652.5"/>
</g>
<!-- Node16&#45;&gt;Node1 -->
<g id="edge18" class="edge">
<title>Node16&#45;&gt;Node1</title>
<path fill="none" stroke="midnightblue" d="M833.07,-603.68C851.96,-598.46 873.65,-592.47 891.31,-587.59"/>
<polygon fill="midnightblue" stroke="midnightblue" points="831.9,-600.37 823.2,-606.41 833.77,-607.12 831.9,-600.37"/>
</g>
<!-- Node17&#45;&gt;Node1 -->
<g id="edge20" class="edge">
<title>Node17&#45;&gt;Node1</title>
<path fill="none" stroke="midnightblue" d="M820.16,-532.58C845.68,-543.54 880.94,-558.67 903.61,-568.39"/>
<polygon fill="midnightblue" stroke="midnightblue" points="821.47,-529.34 810.9,-528.61 818.71,-535.77 821.47,-529.34"/>
</g>
<!-- Node18 -->
<g id="node18" class="node">
<title>Node18</title>
<g id="a_node18"><a xlink:href="classPgp2fcLane.html" target="_top" xlink:title=" ">
<polygon fill="white" stroke="black" points="463.5,-152.5 463.5,-171.5 536.5,-171.5 536.5,-152.5 463.5,-152.5"/>
<text text-anchor="middle" x="500" y="-159.5" font-family="Helvetica,sans-Serif" font-size="10.00">Pgp2fcLane</text>
</a>
</g>
</g>
<!-- Node18&#45;&gt;Node17 -->
<g id="edge21" class="edge">
<title>Node18&#45;&gt;Node17</title>
<path fill="none" stroke="midnightblue" d="M519.5,-178.32C558.87,-213.94 651.69,-302.9 705,-395 729.71,-437.7 707.27,-464 741,-500 744.63,-503.87 749.17,-506.99 753.96,-509.48"/>
<polygon fill="midnightblue" stroke="midnightblue" points="521.73,-175.61 511.95,-171.54 517.06,-180.82 521.73,-175.61"/>
</g>
<!-- Node19&#45;&gt;Node18 -->
<g id="edge22" class="edge">
<title>Node19&#45;&gt;Node18</title>
<path fill="none" stroke="midnightblue" d="M386.75,-183.35C410.53,-178.82 440.37,-173.15 463.31,-168.79"/>
<polygon fill="midnightblue" stroke="midnightblue" points="385.8,-179.96 376.63,-185.27 387.11,-186.84 385.8,-179.96"/>
</g>
<!-- Node20 -->
<g id="node20" class="node">
<title>Node20</title>
<g id="a_node20"><a xlink:href="classPgp2fcTxPhy.html" target="_top" xlink:title=" ">
<polygon fill="white" stroke="black" points="133.5,-190.5 133.5,-209.5 213.5,-209.5 213.5,-190.5 133.5,-190.5"/>
<text text-anchor="middle" x="173.5" y="-197.5" font-family="Helvetica,sans-Serif" font-size="10.00">Pgp2fcTxPhy</text>
</a>
</g>
</g>
<!-- Node20&#45;&gt;Node19 -->
<g id="edge25" class="edge">
<title>Node20&#45;&gt;Node19</title>
<path fill="none" stroke="midnightblue" d="M223.56,-197.4C252.91,-195.85 289.27,-193.92 314.42,-192.59"/>
<polygon fill="midnightblue" stroke="midnightblue" points="223.3,-193.91 213.5,-197.94 223.67,-200.9 223.3,-193.91"/>
</g>
<!-- Node21 -->
<g id="node21" class="node">
<title>Node21</title>
<g id="a_node21"><a xlink:href="classCRC7Rtl.html" target="_top" xlink:title=" ">
<polygon fill="white" stroke="black" points="12,-114.5 12,-133.5 68,-133.5 68,-114.5 12,-114.5"/>
<text text-anchor="middle" x="40" y="-121.5" font-family="Helvetica,sans-Serif" font-size="10.00">CRC7Rtl</text>
</a>
</g>
</g>
<!-- Node21&#45;&gt;Node20 -->
<g id="edge26" class="edge">
<title>Node21&#45;&gt;Node20</title>
<path fill="none" stroke="midnightblue" d="M59.12,-140.48C73.63,-152.98 94.98,-169.86 116,-181 122.95,-184.68 130.75,-187.85 138.29,-190.49"/>
<polygon fill="midnightblue" stroke="midnightblue" points="61.23,-137.68 51.42,-133.7 56.61,-142.93 61.23,-137.68"/>
</g>
<!-- Node27 -->
<g id="node27" class="node">
<title>Node27</title>
<g id="a_node27"><a xlink:href="classPgp2fcRxPhy.html" target="_top" xlink:title=" ">
<polygon fill="white" stroke="black" points="133.5,-38.5 133.5,-57.5 213.5,-57.5 213.5,-38.5 133.5,-38.5"/>
<text text-anchor="middle" x="173.5" y="-45.5" font-family="Helvetica,sans-Serif" font-size="10.00">Pgp2fcRxPhy</text>
</a>
</g>
</g>
<!-- Node21&#45;&gt;Node27 -->
<g id="edge33" class="edge">
<title>Node21&#45;&gt;Node27</title>
<path fill="none" stroke="midnightblue" d="M59.12,-107.52C73.63,-95.02 94.98,-78.14 116,-67 122.95,-63.32 130.75,-60.15 138.29,-57.51"/>
<polygon fill="midnightblue" stroke="midnightblue" points="56.61,-105.07 51.42,-114.3 61.23,-110.32 56.61,-105.07"/>
</g>
<!-- Node22 -->
<g id="node22" class="node">
<title>Node22</title>
<g id="a_node22"><a xlink:href="classPgp2fcTxSched.html" target="_top" xlink:title=" ">
<polygon fill="white" stroke="black" points="128,-152.5 128,-171.5 219,-171.5 219,-152.5 128,-152.5"/>
<text text-anchor="middle" x="173.5" y="-159.5" font-family="Helvetica,sans-Serif" font-size="10.00">Pgp2fcTxSched</text>
</a>
</g>
</g>
<!-- Node22&#45;&gt;Node19 -->
<g id="edge27" class="edge">
<title>Node22&#45;&gt;Node19</title>
<path fill="none" stroke="midnightblue" d="M229.3,-171.35C257.5,-176.16 290.79,-181.84 314.32,-185.85"/>
<polygon fill="midnightblue" stroke="midnightblue" points="229.61,-167.85 219.17,-169.62 228.43,-174.75 229.61,-167.85"/>
</g>
<!-- Node23 -->
<g id="node23" class="node">
<title>Node23</title>
<g id="a_node23"><a xlink:href="classPgp2fcTxCell.html" target="_top" xlink:title=" ">
<polygon fill="white" stroke="black" points="133.5,-228.5 133.5,-247.5 213.5,-247.5 213.5,-228.5 133.5,-228.5"/>
<text text-anchor="middle" x="173.5" y="-235.5" font-family="Helvetica,sans-Serif" font-size="10.00">Pgp2fcTxCell</text>
</a>
</g>
</g>
<!-- Node23&#45;&gt;Node19 -->
<g id="edge28" class="edge">
<title>Node23&#45;&gt;Node19</title>
<path fill="none" stroke="midnightblue" d="M218.74,-225.77C248.84,-217.45 287.87,-206.66 314.42,-199.32"/>
<polygon fill="midnightblue" stroke="midnightblue" points="217.61,-222.45 208.9,-228.49 219.47,-229.2 217.61,-222.45"/>
</g>
<!-- Node24 -->
<g id="node24" class="node">
<title>Node24</title>
<g id="a_node24"><a xlink:href="classAxiStreamPipeline.html" target="_top" xlink:title=" ">
<polygon fill="white" stroke="black" points="120,-114.5 120,-133.5 227,-133.5 227,-114.5 120,-114.5"/>
<text text-anchor="middle" x="173.5" y="-121.5" font-family="Helvetica,sans-Serif" font-size="10.00">AxiStreamPipeline</text>
</a>
</g>
</g>
<!-- Node24&#45;&gt;Node19 -->
<g id="edge29" class="edge">
<title>Node24&#45;&gt;Node19</title>
<path fill="none" stroke="midnightblue" d="M213.84,-136.8C219.62,-138.81 225.48,-140.91 231,-143 263.61,-155.36 300.71,-171.44 323.36,-181.49"/>
<polygon fill="midnightblue" stroke="midnightblue" points="214.86,-133.45 204.27,-133.54 212.6,-140.08 214.86,-133.45"/>
</g>
<!-- Node29 -->
<g id="node29" class="node">
<title>Node29</title>
<g id="a_node29"><a xlink:href="classAxiStreamDeMux.html" target="_top" xlink:title=" ">
<polygon fill="white" stroke="black" points="294.5,-124.5 294.5,-143.5 396.5,-143.5 396.5,-124.5 294.5,-124.5"/>
<text text-anchor="middle" x="345.5" y="-131.5" font-family="Helvetica,sans-Serif" font-size="10.00">AxiStreamDeMux</text>
</a>
</g>
</g>
<!-- Node24&#45;&gt;Node29 -->
<g id="edge37" class="edge">
<title>Node24&#45;&gt;Node29</title>
<path fill="none" stroke="midnightblue" d="M237.57,-127.71C256.28,-128.81 276.51,-130 294.29,-131.05"/>
<polygon fill="midnightblue" stroke="midnightblue" points="237.55,-124.2 227.36,-127.11 237.13,-131.19 237.55,-124.2"/>
</g>
<!-- Node25 -->
<g id="node25" class="node">
<title>Node25</title>
<g id="a_node25"><a xlink:href="classCRC32Rtl.html" target="_top" xlink:title=" ">
<polygon fill="white" stroke="black" points="142.5,-76.5 142.5,-95.5 204.5,-95.5 204.5,-76.5 142.5,-76.5"/>
<text text-anchor="middle" x="173.5" y="-83.5" font-family="Helvetica,sans-Serif" font-size="10.00">CRC32Rtl</text>
</a>
</g>
</g>
<!-- Node25&#45;&gt;Node19 -->
<g id="edge30" class="edge">
<title>Node25&#45;&gt;Node19</title>
<path fill="none" stroke="midnightblue" d="M213.99,-95.84C219.99,-98.28 225.88,-101.3 231,-105 252.61,-120.62 246.46,-135.99 267,-153 282,-165.42 301.76,-175.03 317.56,-181.47"/>
<polygon fill="midnightblue" stroke="midnightblue" points="215.16,-92.54 204.56,-92.44 212.78,-99.12 215.16,-92.54"/>
</g>
<!-- Node26 -->
<g id="node26" class="node">
<title>Node26</title>
<g id="a_node26"><a xlink:href="classPgp2fcRx.html" target="_top" xlink:title=" ">
<polygon fill="white" stroke="black" points="314.5,-57.5 314.5,-76.5 376.5,-76.5 376.5,-57.5 314.5,-57.5"/>
<text text-anchor="middle" x="345.5" y="-64.5" font-family="Helvetica,sans-Serif" font-size="10.00">Pgp2fcRx</text>
</a>
</g>
</g>
<!-- Node25&#45;&gt;Node26 -->
<g id="edge35" class="edge">
<title>Node25&#45;&gt;Node26</title>
<path fill="none" stroke="midnightblue" d="M214.8,-81.5C245.29,-78.09 286.51,-73.48 314.23,-70.38"/>
<polygon fill="midnightblue" stroke="midnightblue" points="214.05,-78.06 204.5,-82.65 214.83,-85.01 214.05,-78.06"/>
</g>
<!-- Node26&#45;&gt;Node18 -->
<g id="edge31" class="edge">
<title>Node26&#45;&gt;Node18</title>
<path fill="none" stroke="midnightblue" d="M370.78,-81.99C386.07,-91.44 406.2,-103.91 424,-115 444.74,-127.92 468.65,-142.92 483.79,-152.43"/>
<polygon fill="midnightblue" stroke="midnightblue" points="372.3,-78.82 361.95,-76.54 368.62,-84.77 372.3,-78.82"/>
</g>
<!-- Node27&#45;&gt;Node26 -->
<g id="edge32" class="edge">
<title>Node27&#45;&gt;Node26</title>
<path fill="none" stroke="midnightblue" d="M223.56,-53.48C252.91,-56.76 289.27,-60.83 314.42,-63.64"/>
<polygon fill="midnightblue" stroke="midnightblue" points="223.83,-49.99 213.5,-52.36 223.05,-56.95 223.83,-49.99"/>
</g>
<!-- Node28 -->
<g id="node28" class="node">
<title>Node28</title>
<g id="a_node28"><a xlink:href="classPgp2fcRxCell.html" target="_top" xlink:title=" ">
<polygon fill="white" stroke="black" points="133,-0.5 133,-19.5 214,-19.5 214,-0.5 133,-0.5"/>
<text text-anchor="middle" x="173.5" y="-7.5" font-family="Helvetica,sans-Serif" font-size="10.00">Pgp2fcRxCell</text>
</a>
</g>
</g>
<!-- Node28&#45;&gt;Node26 -->
<g id="edge34" class="edge">
<title>Node28&#45;&gt;Node26</title>
<path fill="none" stroke="midnightblue" d="M212.65,-22.79C243.96,-33.29 287.6,-47.92 315.95,-57.43"/>
<polygon fill="midnightblue" stroke="midnightblue" points="213.55,-19.4 202.95,-19.54 211.32,-26.04 213.55,-19.4"/>
</g>
<!-- Node29&#45;&gt;Node18 -->
<g id="edge36" class="edge">
<title>Node29&#45;&gt;Node18</title>
<path fill="none" stroke="midnightblue" d="M406.7,-145.05C425.81,-148.56 446.34,-152.33 463.17,-155.42"/>
<polygon fill="midnightblue" stroke="midnightblue" points="407.32,-141.61 396.86,-143.25 406.06,-148.49 407.32,-141.61"/>
</g>
<!-- Node30&#45;&gt;Node17 -->
<g id="edge38" class="edge">
<title>Node30&#45;&gt;Node17</title>
<path fill="none" stroke="midnightblue" d="M416.13,-386.91C492.56,-386.73 616.17,-396.19 705,-451 728,-465.19 719.76,-483.3 741,-500 745.71,-503.7 751.25,-506.8 756.81,-509.35"/>
<polygon fill="midnightblue" stroke="midnightblue" points="416.1,-383.41 406.13,-386.99 416.16,-390.41 416.1,-383.41"/>
</g>
<!-- Node31&#45;&gt;Node30 -->
<g id="edge40" class="edge">
<title>Node31&#45;&gt;Node30</title>
<path fill="none" stroke="midnightblue" d="M227.4,-363.82C251.37,-369.18 279.32,-375.43 301.91,-380.48"/>
<polygon fill="midnightblue" stroke="midnightblue" points="227.92,-360.35 217.4,-361.59 226.39,-367.19 227.92,-360.35"/>
</g>
<!-- Node35 -->
<g id="node35" class="node">
<title>Node35</title>
<g id="a_node35"><a xlink:href="classGtp7RxRst.html" target="_top" xlink:title=" ">
<polygon fill="white" stroke="black" points="311.5,-304.5 311.5,-323.5 379.5,-323.5 379.5,-304.5 311.5,-304.5"/>
<text text-anchor="middle" x="345.5" y="-311.5" font-family="Helvetica,sans-Serif" font-size="10.00">Gtp7RxRst</text>
</a>
</g>
</g>
<!-- Node31&#45;&gt;Node35 -->
<g id="edge46" class="edge">
<title>Node31&#45;&gt;Node35</title>
<path fill="none" stroke="midnightblue" d="M227.24,-340.21C254.68,-334.08 287.38,-326.77 311.27,-321.43"/>
<polygon fill="midnightblue" stroke="midnightblue" points="226.39,-336.81 217.4,-342.41 227.92,-343.65 226.39,-336.81"/>
</g>
<!-- Node31&#45;&gt;Node39 -->
<g id="edge56" class="edge">
<title>Node31&#45;&gt;Node39</title>
<path fill="none" stroke="midnightblue" d="M235.75,-352C246.64,-352 258.1,-352 269.33,-352"/>
<polygon fill="midnightblue" stroke="midnightblue" points="235.51,-348.5 225.51,-352 235.51,-355.5 235.51,-348.5"/>
</g>
<!-- Node32 -->
<g id="node32" class="node">
<title>Node32</title>
<g id="a_node32"><a xlink:href="classDecoder8b10b.html" target="_top" xlink:title=" ">
<polygon fill="white" stroke="black" points="597,-528.5 597,-547.5 684,-547.5 684,-528.5 597,-528.5"/>
<text text-anchor="middle" x="640.5" y="-535.5" font-family="Helvetica,sans-Serif" font-size="10.00">Decoder8b10b</text>
</a>
</g>
</g>
<!-- Node32&#45;&gt;Node17 -->
<g id="edge42" class="edge">
<title>Node32&#45;&gt;Node17</title>
<path fill="none" stroke="midnightblue" d="M694.17,-531.1C713.04,-528.63 733.85,-525.9 750.92,-523.66"/>
<polygon fill="midnightblue" stroke="midnightblue" points="693.68,-527.63 684.22,-532.4 694.59,-534.57 693.68,-527.63"/>
</g>
<!-- Node33 -->
<g id="node33" class="node">
<title>Node33</title>
<g id="a_node33"><a xlink:href="classPgp3RxGearboxAligner.html" target="_top" xlink:title=" ">
<polygon fill="white" stroke="black" points="576,-490.5 576,-509.5 705,-509.5 705,-490.5 576,-490.5"/>
<text text-anchor="middle" x="640.5" y="-497.5" font-family="Helvetica,sans-Serif" font-size="10.00">Pgp3RxGearboxAligner</text>
</a>
</g>
</g>
<!-- Node33&#45;&gt;Node17 -->
<g id="edge43" class="edge">
<title>Node33&#45;&gt;Node17</title>
<path fill="none" stroke="midnightblue" d="M715.07,-509.64C727.52,-511.27 739.93,-512.9 750.82,-514.33"/>
<polygon fill="midnightblue" stroke="midnightblue" points="715.47,-506.16 705.1,-508.33 714.56,-513.1 715.47,-506.16"/>
</g>
<!-- Node34&#45;&gt;Node17 -->
<g id="edge44" class="edge">
<title>Node34&#45;&gt;Node17</title>
<path fill="none" stroke="midnightblue" d="M541.19,-450.63C583.01,-454.26 649.96,-462.58 705,-481 722.16,-486.74 724.64,-492.28 741,-500 747.81,-503.21 755.32,-506.46 762.24,-509.34"/>
<polygon fill="midnightblue" stroke="midnightblue" points="541.37,-447.14 531.12,-449.81 540.8,-454.11 541.37,-447.14"/>
</g>
<!-- Node35&#45;&gt;Node34 -->
<g id="edge45" class="edge">
<title>Node35&#45;&gt;Node34</title>
<path fill="none" stroke="midnightblue" d="M389.55,-318.6C401.49,-321.39 413.93,-325.86 424,-333 463.09,-360.71 487.03,-415.8 495.51,-438.19"/>
<polygon fill="midnightblue" stroke="midnightblue" points="390.18,-315.16 379.69,-316.62 388.81,-322.02 390.18,-315.16"/>
</g>
<!-- Node36&#45;&gt;Node34 -->
<g id="edge48" class="edge">
<title>Node36&#45;&gt;Node34</title>
<path fill="none" stroke="midnightblue" d="M418.84,-437.49C436.47,-439.8 454.38,-442.15 468.78,-444.04"/>
<polygon fill="midnightblue" stroke="midnightblue" points="418.9,-433.96 408.53,-436.13 417.99,-440.91 418.9,-433.96"/>
</g>
<!-- Node37&#45;&gt;Node34 -->
<g id="edge50" class="edge">
<title>Node37&#45;&gt;Node34</title>
<path fill="none" stroke="midnightblue" d="M402.42,-491.84C409.75,-489.79 417.11,-487.51 424,-485 444.74,-477.45 467.29,-465.82 482.19,-457.62"/>
<polygon fill="midnightblue" stroke="midnightblue" points="401.25,-488.53 392.48,-494.48 403.05,-495.3 401.25,-488.53"/>
</g>
<!-- Node38&#45;&gt;Node34 -->
<g id="edge52" class="edge">
<title>Node38&#45;&gt;Node34</title>
<path fill="none" stroke="midnightblue" d="M389.81,-279.76C401.87,-282.53 414.3,-287.2 424,-295 472.16,-333.77 491.67,-411.21 497.21,-438.34"/>
<polygon fill="midnightblue" stroke="midnightblue" points="390.32,-276.29 379.84,-277.85 389,-283.17 390.32,-276.29"/>
</g>
<!-- Node39&#45;&gt;Node34 -->
<g id="edge54" class="edge">
<title>Node39&#45;&gt;Node34</title>
<path fill="none" stroke="midnightblue" d="M411.68,-365.07C415.96,-366.81 420.11,-368.77 424,-371 454.45,-388.42 480.63,-421.78 492.38,-438.27"/>
<polygon fill="midnightblue" stroke="midnightblue" points="412.76,-361.74 402.17,-361.62 410.37,-368.32 412.76,-361.74"/>
</g>
<!-- Node40&#45;&gt;Node34 -->
<g id="edge57" class="edge">
<title>Node40&#45;&gt;Node34</title>
<path fill="none" stroke="midnightblue" d="M398.68,-459.84C422.01,-457.09 448.69,-453.94 468.67,-451.58"/>
<polygon fill="midnightblue" stroke="midnightblue" points="398.1,-456.39 388.57,-461.03 398.92,-463.34 398.1,-456.39"/>
</g>
<!-- Node41 -->
<g id="node41" class="node">
<title>Node41</title>
<g id="a_node41"><a xlink:href="classAxiLiteCrossbar.html" target="_top" xlink:title=" ">
<polygon fill="white" stroke="black" points="741,-471.5 741,-490.5 834,-490.5 834,-471.5 741,-471.5"/>
<text text-anchor="middle" x="787.5" y="-478.5" font-family="Helvetica,sans-Serif" font-size="10.00">AxiLiteCrossbar</text>
</a>
</g>
</g>
<!-- Node41&#45;&gt;Node1 -->
<g id="edge61" class="edge">
<title>Node41&#45;&gt;Node1</title>
<path fill="none" stroke="midnightblue" d="M824.48,-494.79C827.77,-496.41 830.99,-498.16 834,-500 867.22,-520.34 900.73,-552.3 916.58,-568.26"/>
<polygon fill="midnightblue" stroke="midnightblue" points="825.71,-491.5 815.17,-490.52 822.8,-497.87 825.71,-491.5"/>
</g>
</g>
</svg>
