<?xml version="1.0" encoding="UTF-8" standalone="no"?>
<!DOCTYPE svg PUBLIC "-//W3C//DTD SVG 1.1//EN"
 "http://www.w3.org/Graphics/SVG/1.1/DTD/svg11.dtd">
<!-- Generated by graphviz version 2.43.0 (0)
 -->
<!-- Title: CoaXPressConfig Pages: 1 -->
<!--zoomable 467 -->

<svg id="main" version="1.1" xmlns="http://www.w3.org/2000/svg" xmlns:xlink="http://www.w3.org/1999/xlink" xml:space="preserve" onload="init(evt)">
<style type="text/css"><![CDATA[
.node, .edge {opacity: 0.7;}
.node.selected, .edge.selected {opacity: 1;}
.edge:hover path { stroke: red; }
.edge:hover polygon { stroke: red; fill: red; }
]]></style>

<defs>
  <circle id="rim" cx="0" cy="0" r="7"/>
  <circle id="rim2" cx="0" cy="0" r="3.5"/>
  <g id="zoomPlus">
    <use xlink:href="#rim" fill="#404040"><set attributeName="fill" to="#808080" begin="zoomplus.mouseover" end="zoomplus.mouseout"/></use>
    <path d="M-4,0h8M0,-4v8" fill="none" stroke="white" stroke-width="1.5" pointer-events="none"/>
  </g>
  <g id="zoomMin">
    <use xlink:href="#rim" fill="#404040"><set attributeName="fill" to="#808080" begin="zoomminus.mouseover" end="zoomminus.mouseout"/></use>
    <path d="M-4,0h8" fill="none" stroke="white" stroke-width="1.5" pointer-events="none"/>
  </g>
  <g id="arrowUp" transform="translate(30 24)">
    <use xlink:href="#rim"/>
    <path pointer-events="none" fill="none" stroke="white" stroke-width="1.5" d="M0,-3.0v7 M-2.5,-0.5L0,-3.0L2.5,-0.5"/>
  </g>
  <g id="arrowRight" transform="rotate(90) translate(36 -43)">
    <use xlink:href="#rim"/>
    <path pointer-events="none" fill="none" stroke="white" stroke-width="1.5" d="M0,-3.0v7 M-2.5,-0.5L0,-3.0L2.5,-0.5"/>
  </g>
  <g id="arrowDown" transform="rotate(180) translate(-30 -48)">
    <use xlink:href="#rim"/>
    <path pointer-events="none" fill="none" stroke="white" stroke-width="1.5" d="M0,-3.0v7 M-2.5,-0.5L0,-3.0L2.5,-0.5"/>
  </g>
  <g id="arrowLeft" transform="rotate(270) translate(-36 17)">
    <use xlink:href="#rim"/>
    <path pointer-events="none" fill="none" stroke="white" stroke-width="1.5" d="M0,-3.0v7 M-2.5,-0.5L0,-3.0L2.5,-0.5"/>
  </g>
  <g id="resetDef">
    <use xlink:href="#rim2" fill="#404040"><set attributeName="fill" to="#808080" begin="reset.mouseover" end="reset.mouseout"/></use>
  </g>
</defs>
<script type="application/ecmascript">
var viewWidth = 1020;
var viewHeight = 467;
var sectionId = 'dynsection-1';
</script>
<script type="application/ecmascript" xlink:href="svg.min.js"/>
<svg id="graph" class="graph">
<g id="viewport">
<title>CoaXPressConfig</title>
<!-- Node1 -->
<g id="Node000001" class="node">
<title>Node1</title>
<g id="a_Node000001"><a xlink:title=" ">
<polygon fill="#999999" stroke="#666666" points="294.5,-19 195.5,-19 195.5,0 294.5,0 294.5,-19"/>
<text text-anchor="middle" x="245" y="-7" font-family="Helvetica,sans-Serif" font-size="10.00">CoaXPressConfig</text>
</a>
</g>
</g>
<!-- Node2 -->
<g id="Node000002" class="node">
<title>Node2</title>
<g id="a_Node000002"><a xlink:href="classSrpV3AxiLite.html" target="_top" xlink:title=" ">
<polygon fill="white" stroke="#bfbfbf" points="284.5,-74 205.5,-74 205.5,-55 284.5,-55 284.5,-74"/>
<text text-anchor="middle" x="245" y="-62" font-family="Helvetica,sans-Serif" font-size="10.00">SrpV3AxiLite</text>
</a>
</g>
</g>
<!-- Node2&#45;&gt;Node1 -->
<g id="edge1_Node000001_Node000002" class="edge">
<title>Node2&#45;&gt;Node1</title>
<g id="a_edge1_Node000001_Node000002"><a xlink:title=" ">
<path fill="none" stroke="#63b8ff" d="M245,-44.66C245,-35.93 245,-25.99 245,-19.09"/>
<polygon fill="#63b8ff" stroke="#63b8ff" points="241.5,-44.75 245,-54.75 248.5,-44.75 241.5,-44.75"/>
</a>
</g>
</g>
<!-- Node3 -->
<g id="Node000003" class="node">
<title>Node3</title>
<g id="a_Node000003"><a xlink:href="classSsiFrameLimiter.html" target="_top" xlink:title=" ">
<polygon fill="white" stroke="#bfbfbf" points="217,-129 121,-129 121,-110 217,-110 217,-129"/>
<text text-anchor="middle" x="169" y="-117" font-family="Helvetica,sans-Serif" font-size="10.00">SsiFrameLimiter</text>
</a>
</g>
</g>
<!-- Node3&#45;&gt;Node2 -->
<g id="edge2_Node000002_Node000003" class="edge">
<title>Node3&#45;&gt;Node2</title>
<g id="a_edge2_Node000002_Node000003"><a xlink:title=" ">
<path fill="none" stroke="#63b8ff" d="M189.58,-104.15C203.31,-94.57 220.93,-82.29 232.57,-74.17"/>
<polygon fill="#63b8ff" stroke="#63b8ff" points="187.41,-101.39 181.21,-109.98 191.42,-107.14 187.41,-101.39"/>
</a>
</g>
</g>
<!-- Node4 -->
<g id="Node000004" class="node">
<title>Node4</title>
<g id="a_Node000004"><a xlink:href="classAxiStreamGearbox.html" target="_top" xlink:title=" ">
<polygon fill="white" stroke="#bfbfbf" points="140.5,-239 31.5,-239 31.5,-220 140.5,-220 140.5,-239"/>
<text text-anchor="middle" x="86" y="-227" font-family="Helvetica,sans-Serif" font-size="10.00">AxiStreamGearbox</text>
</a>
</g>
</g>
<!-- Node4&#45;&gt;Node3 -->
<g id="edge3_Node000003_Node000004" class="edge">
<title>Node4&#45;&gt;Node3</title>
<g id="a_edge3_Node000003_Node000004"><a xlink:title=" ">
<path fill="none" stroke="#63b8ff" d="M98.92,-211.69C116.84,-188.37 148.6,-147.05 162.35,-129.16"/>
<polygon fill="#63b8ff" stroke="#63b8ff" points="96.11,-209.6 92.79,-219.66 101.66,-213.87 96.11,-209.6"/>
</a>
</g>
</g>
<!-- Node7 -->
<g id="Node000007" class="node">
<title>Node7</title>
<g id="a_Node000007"><a xlink:href="classAxiStreamFifoV2.html" target="_top" xlink:title=" ">
<polygon fill="white" stroke="#bfbfbf" points="256,-184 158,-184 158,-165 256,-165 256,-184"/>
<text text-anchor="middle" x="207" y="-172" font-family="Helvetica,sans-Serif" font-size="10.00">AxiStreamFifoV2</text>
</a>
</g>
</g>
<!-- Node4&#45;&gt;Node7 -->
<g id="edge8_Node000007_Node000004" class="edge">
<title>Node4&#45;&gt;Node7</title>
<g id="a_edge8_Node000007_Node000004"><a xlink:title=" ">
<path fill="none" stroke="#63b8ff" d="M114.77,-215.9C137.12,-206.11 167.52,-192.79 187.21,-184.17"/>
<polygon fill="#63b8ff" stroke="#63b8ff" points="113.2,-212.77 105.44,-219.98 116,-219.18 113.2,-212.77"/>
</a>
</g>
</g>
<!-- Node5 -->
<g id="Node000005" class="node">
<title>Node5</title>
<g id="a_Node000005"><a xlink:href="classAxiStreamResize.html" target="_top" xlink:title=" ">
<polygon fill="white" stroke="#bfbfbf" points="100,-294 0,-294 0,-275 100,-275 100,-294"/>
<text text-anchor="middle" x="50" y="-282" font-family="Helvetica,sans-Serif" font-size="10.00">AxiStreamResize</text>
</a>
</g>
</g>
<!-- Node5&#45;&gt;Node4 -->
<g id="edge4_Node000004_Node000005" class="edge">
<title>Node5&#45;&gt;Node4</title>
<g id="a_edge4_Node000004_Node000005"><a xlink:title=" ">
<path fill="none" stroke="#63b8ff" d="M61.62,-266.39C67.82,-257.27 75.17,-246.45 80.17,-239.09"/>
<polygon fill="#63b8ff" stroke="#63b8ff" points="58.67,-264.51 55.94,-274.75 64.46,-268.44 58.67,-264.51"/>
</a>
</g>
</g>
<!-- Node6 -->
<g id="Node000006" class="node">
<title>Node6</title>
<g id="a_Node000006"><a xlink:href="classAxiStreamPipeline.html" target="_top" xlink:title=" ">
<polygon fill="white" stroke="#bfbfbf" points="178.5,-349 71.5,-349 71.5,-330 178.5,-330 178.5,-349"/>
<text text-anchor="middle" x="125" y="-337" font-family="Helvetica,sans-Serif" font-size="10.00">AxiStreamPipeline</text>
</a>
</g>
</g>
<!-- Node6&#45;&gt;Node4 -->
<g id="edge6_Node000004_Node000006" class="edge">
<title>Node6&#45;&gt;Node4</title>
<g id="a_edge6_Node000004_Node000006"><a xlink:title=" ">
<path fill="none" stroke="#63b8ff" d="M121.46,-319.72C118.75,-306.9 114.54,-289.64 109,-275 104.07,-261.99 96.32,-247.86 91.2,-239.09"/>
<polygon fill="#63b8ff" stroke="#63b8ff" points="118.05,-320.56 123.44,-329.68 124.92,-319.19 118.05,-320.56"/>
</a>
</g>
</g>
<!-- Node6&#45;&gt;Node5 -->
<g id="edge5_Node000005_Node000006" class="edge">
<title>Node6&#45;&gt;Node5</title>
<g id="a_edge5_Node000005_Node000006"><a xlink:title=" ">
<path fill="none" stroke="#63b8ff" d="M104.69,-324.15C91.14,-314.57 73.76,-302.29 62.27,-294.17"/>
<polygon fill="#63b8ff" stroke="#63b8ff" points="102.76,-327.07 112.95,-329.98 106.8,-321.36 102.76,-327.07"/>
</a>
</g>
</g>
<!-- Node6&#45;&gt;Node7 -->
<g id="edge32_Node000007_Node000006" class="edge">
<title>Node6&#45;&gt;Node7</title>
<g id="a_edge32_Node000007_Node000006"><a xlink:title=" ">
<path fill="none" stroke="#63b8ff" d="M133.94,-320.73C151.43,-285.97 189.58,-210.12 202.57,-184.31"/>
<polygon fill="#63b8ff" stroke="#63b8ff" points="130.78,-319.23 129.41,-329.74 137.03,-322.38 130.78,-319.23"/>
</a>
</g>
</g>
<!-- Node7&#45;&gt;Node2 -->
<g id="edge33_Node000002_Node000007" class="edge">
<title>Node7&#45;&gt;Node2</title>
<g id="a_edge33_Node000002_Node000007"><a xlink:title=" ">
<path fill="none" stroke="#63b8ff" d="M215.19,-155.61C218.73,-147.56 222.78,-137.89 226,-129 232.97,-109.74 239.43,-86.56 242.72,-74.23"/>
<polygon fill="#63b8ff" stroke="#63b8ff" points="211.98,-154.2 211.08,-164.75 218.37,-157.06 211.98,-154.2"/>
</a>
</g>
</g>
<!-- Node7&#45;&gt;Node3 -->
<g id="edge7_Node000003_Node000007" class="edge">
<title>Node7&#45;&gt;Node3</title>
<g id="a_edge7_Node000003_Node000007"><a xlink:title=" ">
<path fill="none" stroke="#63b8ff" d="M194.73,-156.39C188.19,-147.27 180.43,-136.45 175.16,-129.09"/>
<polygon fill="#63b8ff" stroke="#63b8ff" points="192.05,-158.66 200.73,-164.75 197.74,-154.58 192.05,-158.66"/>
</a>
</g>
</g>
<!-- Node8 -->
<g id="Node000008" class="node">
<title>Node8</title>
<g id="a_Node000008"><a xlink:href="classFifoCascade.html" target="_top" xlink:title=" ">
<polygon fill="white" stroke="#bfbfbf" points="519,-239 443,-239 443,-220 519,-220 519,-239"/>
<text text-anchor="middle" x="481" y="-227" font-family="Helvetica,sans-Serif" font-size="10.00">FifoCascade</text>
</a>
</g>
</g>
<!-- Node8&#45;&gt;Node7 -->
<g id="edge9_Node000007_Node000008" class="edge">
<title>Node8&#45;&gt;Node7</title>
<g id="a_edge9_Node000007_Node000008"><a xlink:title=" ">
<path fill="none" stroke="#63b8ff" d="M433.04,-219.22C381.7,-209.29 300.93,-193.67 251.12,-184.03"/>
<polygon fill="#63b8ff" stroke="#63b8ff" points="432.42,-222.67 442.9,-221.13 433.75,-215.8 432.42,-222.67"/>
</a>
</g>
</g>
<!-- Node9 -->
<g id="Node000009" class="node">
<title>Node9</title>
<g id="a_Node000009"><a xlink:href="classFifo.html" target="_top" xlink:title=" ">
<polygon fill="white" stroke="#bfbfbf" points="619.5,-294 584.5,-294 584.5,-275 619.5,-275 619.5,-294"/>
<text text-anchor="middle" x="602" y="-282" font-family="Helvetica,sans-Serif" font-size="10.00">Fifo</text>
</a>
</g>
</g>
<!-- Node9&#45;&gt;Node8 -->
<g id="edge10_Node000008_Node000009" class="edge">
<title>Node9&#45;&gt;Node8</title>
<g id="a_edge10_Node000008_Node000009"><a xlink:title=" ">
<path fill="none" stroke="#63b8ff" d="M575.06,-271.7C552.5,-261.82 520.84,-247.95 500.62,-239.1"/>
<polygon fill="#63b8ff" stroke="#63b8ff" points="573.84,-274.99 584.41,-275.79 576.65,-268.58 573.84,-274.99"/>
</a>
</g>
</g>
<!-- Node10 -->
<g id="Node000010" class="node">
<title>Node10</title>
<g id="a_Node000010"><a xlink:href="classFifoXpm.html" target="_top" xlink:title=" ">
<polygon fill="white" stroke="#bfbfbf" points="804.5,-349 747.5,-349 747.5,-330 804.5,-330 804.5,-349"/>
<text text-anchor="middle" x="776" y="-337" font-family="Helvetica,sans-Serif" font-size="10.00">FifoXpm</text>
</a>
</g>
</g>
<!-- Node10&#45;&gt;Node9 -->
<g id="edge11_Node000009_Node000010" class="edge">
<title>Node10&#45;&gt;Node9</title>
<g id="a_edge11_Node000009_Node000010"><a xlink:title=" ">
<path fill="none" stroke="#63b8ff" d="M738.2,-326.99C701.53,-315.82 647.49,-299.36 619.79,-290.92"/>
<polygon fill="#63b8ff" stroke="#63b8ff" points="737.46,-330.42 748.04,-329.98 739.5,-323.72 737.46,-330.42"/>
</a>
</g>
</g>
<!-- Node11 -->
<g id="Node000011" class="node">
<title>Node11</title>
<g id="a_Node000011"><a xlink:href="classRstSync.html" target="_top" xlink:title=" ">
<polygon fill="white" stroke="#bfbfbf" points="890,-404 834,-404 834,-385 890,-385 890,-404"/>
<text text-anchor="middle" x="862" y="-392" font-family="Helvetica,sans-Serif" font-size="10.00">RstSync</text>
</a>
</g>
</g>
<!-- Node11&#45;&gt;Node10 -->
<g id="edge12_Node000010_Node000011" class="edge">
<title>Node11&#45;&gt;Node10</title>
<g id="a_edge12_Node000010_Node000011"><a xlink:title=" ">
<path fill="none" stroke="#63b8ff" d="M839.6,-379.7C823.93,-370.04 803.49,-357.44 790.07,-349.17"/>
<polygon fill="#63b8ff" stroke="#63b8ff" points="837.83,-382.72 848.18,-384.98 841.51,-376.76 837.83,-382.72"/>
</a>
</g>
</g>
<!-- Node15 -->
<g id="Node000015" class="node">
<title>Node15</title>
<g id="a_Node000015"><a xlink:href="classFifoAsync.html" target="_top" xlink:title=" ">
<polygon fill="white" stroke="#bfbfbf" points="634,-349 570,-349 570,-330 634,-330 634,-349"/>
<text text-anchor="middle" x="602" y="-337" font-family="Helvetica,sans-Serif" font-size="10.00">FifoAsync</text>
</a>
</g>
</g>
<!-- Node11&#45;&gt;Node15 -->
<g id="edge18_Node000015_Node000011" class="edge">
<title>Node11&#45;&gt;Node15</title>
<g id="a_edge18_Node000015_Node000011"><a xlink:title=" ">
<path fill="none" stroke="#63b8ff" d="M823.62,-384.75C743.12,-367.59 721.28,-364.5 644,-349 640.79,-348.36 637.44,-347.68 634.1,-347.01"/>
<polygon fill="#63b8ff" stroke="#63b8ff" points="823.23,-388.25 833.74,-386.92 824.69,-381.4 823.23,-388.25"/>
</a>
</g>
</g>
<!-- Node21 -->
<g id="Node000021" class="node">
<title>Node21</title>
<g id="a_Node000021"><a xlink:href="classSynchronizerOneShot.html" target="_top" xlink:title=" ">
<polygon fill="white" stroke="#bfbfbf" points="943.5,-349 822.5,-349 822.5,-330 943.5,-330 943.5,-349"/>
<text text-anchor="middle" x="883" y="-337" font-family="Helvetica,sans-Serif" font-size="10.00">SynchronizerOneShot</text>
</a>
</g>
</g>
<!-- Node11&#45;&gt;Node21 -->
<g id="edge35_Node000021_Node000011" class="edge">
<title>Node11&#45;&gt;Node21</title>
<g id="a_edge35_Node000021_Node000011"><a xlink:title=" ">
<path fill="none" stroke="#63b8ff" d="M869.24,-375.24C872.75,-366.37 876.8,-356.14 879.6,-349.09"/>
<polygon fill="#63b8ff" stroke="#63b8ff" points="865.9,-374.16 865.47,-384.75 872.41,-376.74 865.9,-374.16"/>
</a>
</g>
</g>
<!-- Node12 -->
<g id="Node000012" class="node">
<title>Node12</title>
<g id="a_Node000012"><a xlink:href="classSynchronizer.html" target="_top" xlink:title=" ">
<polygon fill="white" stroke="#bfbfbf" points="811,-459 731,-459 731,-440 811,-440 811,-459"/>
<text text-anchor="middle" x="771" y="-447" font-family="Helvetica,sans-Serif" font-size="10.00">Synchronizer</text>
</a>
</g>
</g>
<!-- Node12&#45;&gt;Node7 -->
<g id="edge31_Node000007_Node000012" class="edge">
<title>Node12&#45;&gt;Node7</title>
<g id="a_edge31_Node000007_Node000012"><a xlink:title=" ">
<path fill="none" stroke="#63b8ff" d="M720.57,-447.58C592.83,-444.81 263.94,-434.73 226,-404 203.11,-385.46 207,-369.96 207,-340.5 207,-340.5 207,-340.5 207,-283.5 207,-246.56 207,-202.52 207,-184.18"/>
<polygon fill="#63b8ff" stroke="#63b8ff" points="720.79,-451.09 730.86,-447.8 720.93,-444.09 720.79,-451.09"/>
</a>
</g>
</g>
<!-- Node12&#45;&gt;Node11 -->
<g id="edge13_Node000011_Node000012" class="edge">
<title>Node12&#45;&gt;Node11</title>
<g id="a_edge13_Node000011_Node000012"><a xlink:title=" ">
<path fill="none" stroke="#63b8ff" d="M794.7,-434.7C811.28,-425.04 832.91,-412.44 847.11,-404.17"/>
<polygon fill="#63b8ff" stroke="#63b8ff" points="792.5,-431.93 785.62,-439.98 796.02,-437.98 792.5,-431.93"/>
</a>
</g>
</g>
<!-- Node12&#45;&gt;Node15 -->
<g id="edge20_Node000015_Node000012" class="edge">
<title>Node12&#45;&gt;Node15</title>
<g id="a_edge20_Node000015_Node000012"><a xlink:title=" ">
<path fill="none" stroke="#63b8ff" d="M748.58,-434.57C734.58,-425.84 716.2,-414.33 700,-404 669.57,-384.61 634.08,-361.48 615.27,-349.19"/>
<polygon fill="#63b8ff" stroke="#63b8ff" points="746.75,-437.55 757.08,-439.86 750.45,-431.61 746.75,-437.55"/>
</a>
</g>
</g>
<!-- Node22 -->
<g id="Node000022" class="node">
<title>Node22</title>
<g id="a_Node000022"><a xlink:href="classSynchronizerEdge.html" target="_top" xlink:title=" ">
<polygon fill="white" stroke="#bfbfbf" points="1012,-404 908,-404 908,-385 1012,-385 1012,-404"/>
<text text-anchor="middle" x="960" y="-392" font-family="Helvetica,sans-Serif" font-size="10.00">SynchronizerEdge</text>
</a>
</g>
</g>
<!-- Node12&#45;&gt;Node22 -->
<g id="edge37_Node000022_Node000012" class="edge">
<title>Node12&#45;&gt;Node22</title>
<g id="a_edge37_Node000022_Node000012"><a xlink:title=" ">
<path fill="none" stroke="#63b8ff" d="M811.35,-437.18C846.7,-427.27 897.3,-413.08 929.4,-404.08"/>
<polygon fill="#63b8ff" stroke="#63b8ff" points="810.05,-433.91 801.37,-439.98 811.94,-440.65 810.05,-433.91"/>
</a>
</g>
</g>
<!-- Node13 -->
<g id="Node000013" class="node">
<title>Node13</title>
<g id="a_Node000013"><a xlink:href="classFifoOutputPipeline.html" target="_top" xlink:title=" ">
<polygon fill="white" stroke="#bfbfbf" points="815.5,-404 708.5,-404 708.5,-385 815.5,-385 815.5,-404"/>
<text text-anchor="middle" x="762" y="-392" font-family="Helvetica,sans-Serif" font-size="10.00">FifoOutputPipeline</text>
</a>
</g>
</g>
<!-- Node13&#45;&gt;Node10 -->
<g id="edge14_Node000010_Node000013" class="edge">
<title>Node13&#45;&gt;Node10</title>
<g id="a_edge14_Node000010_Node000013"><a xlink:title=" ">
<path fill="none" stroke="#63b8ff" d="M766.9,-374.95C769.22,-366.15 771.89,-356.06 773.73,-349.09"/>
<polygon fill="#63b8ff" stroke="#63b8ff" points="763.48,-374.19 764.31,-384.75 770.25,-375.97 763.48,-374.19"/>
</a>
</g>
</g>
<!-- Node14 -->
<g id="Node000014" class="node">
<title>Node14</title>
<g id="a_Node000014"><a xlink:href="classFifoAlteraMf.html" target="_top" xlink:title=" ">
<polygon fill="white" stroke="#bfbfbf" points="729.5,-349 652.5,-349 652.5,-330 729.5,-330 729.5,-349"/>
<text text-anchor="middle" x="691" y="-337" font-family="Helvetica,sans-Serif" font-size="10.00">FifoAlteraMf</text>
</a>
</g>
</g>
<!-- Node13&#45;&gt;Node14 -->
<g id="edge16_Node000014_Node000013" class="edge">
<title>Node13&#45;&gt;Node14</title>
<g id="a_edge16_Node000014_Node000013"><a xlink:title=" ">
<path fill="none" stroke="#63b8ff" d="M742.41,-378.88C729.63,-369.34 713.39,-357.21 702.61,-349.17"/>
<polygon fill="#63b8ff" stroke="#63b8ff" points="740.49,-381.81 750.59,-384.98 744.67,-376.2 740.49,-381.81"/>
</a>
</g>
</g>
<!-- Node13&#45;&gt;Node15 -->
<g id="edge24_Node000015_Node000013" class="edge">
<title>Node13&#45;&gt;Node15</title>
<g id="a_edge24_Node000015_Node000013"><a xlink:title=" ">
<path fill="none" stroke="#63b8ff" d="M726.67,-381.8C696.81,-371.91 654.73,-357.97 627.91,-349.08"/>
<polygon fill="#63b8ff" stroke="#63b8ff" points="725.7,-385.16 736.29,-384.98 727.9,-378.52 725.7,-385.16"/>
</a>
</g>
</g>
<!-- Node20 -->
<g id="Node000020" class="node">
<title>Node20</title>
<g id="a_Node000020"><a xlink:href="classFifoSync.html" target="_top" xlink:title=" ">
<polygon fill="white" stroke="#bfbfbf" points="552,-349 494,-349 494,-330 552,-330 552,-349"/>
<text text-anchor="middle" x="523" y="-337" font-family="Helvetica,sans-Serif" font-size="10.00">FifoSync</text>
</a>
</g>
</g>
<!-- Node13&#45;&gt;Node20 -->
<g id="edge29_Node000020_Node000013" class="edge">
<title>Node13&#45;&gt;Node20</title>
<g id="a_edge29_Node000020_Node000013"><a xlink:title=" ">
<path fill="none" stroke="#63b8ff" d="M713.54,-382.8C672.82,-373.81 613.1,-360.59 561,-349 558.1,-348.35 555.07,-347.68 552.04,-347"/>
<polygon fill="#63b8ff" stroke="#63b8ff" points="712.94,-386.25 723.46,-384.99 714.45,-379.42 712.94,-386.25"/>
</a>
</g>
</g>
<!-- Node14&#45;&gt;Node9 -->
<g id="edge15_Node000009_Node000014" class="edge">
<title>Node14&#45;&gt;Node9</title>
<g id="a_edge15_Node000009_Node000014"><a xlink:title=" ">
<path fill="none" stroke="#63b8ff" d="M667.82,-324.7C651.61,-315.04 630.45,-302.44 616.56,-294.17"/>
<polygon fill="#63b8ff" stroke="#63b8ff" points="666.32,-327.88 676.7,-329.98 669.9,-321.86 666.32,-327.88"/>
</a>
</g>
</g>
<!-- Node15&#45;&gt;Node9 -->
<g id="edge17_Node000009_Node000015" class="edge">
<title>Node15&#45;&gt;Node9</title>
<g id="a_edge17_Node000009_Node000015"><a xlink:title=" ">
<path fill="none" stroke="#63b8ff" d="M602,-319.66C602,-310.93 602,-300.99 602,-294.09"/>
<polygon fill="#63b8ff" stroke="#63b8ff" points="598.5,-319.75 602,-329.75 605.5,-319.75 598.5,-319.75"/>
</a>
</g>
</g>
<!-- Node16 -->
<g id="Node000016" class="node">
<title>Node16</title>
<g id="a_Node000016"><a xlink:href="classSynchronizerVector.html" target="_top" xlink:title=" ">
<polygon fill="white" stroke="#bfbfbf" points="345,-404 235,-404 235,-385 345,-385 345,-404"/>
<text text-anchor="middle" x="290" y="-392" font-family="Helvetica,sans-Serif" font-size="10.00">SynchronizerVector</text>
</a>
</g>
</g>
<!-- Node16&#45;&gt;Node7 -->
<g id="edge30_Node000007_Node000016" class="edge">
<title>Node16&#45;&gt;Node7</title>
<g id="a_edge30_Node000007_Node000016"><a xlink:title=" ">
<path fill="none" stroke="#63b8ff" d="M283.11,-375.42C266.12,-330.79 222.67,-216.67 210.32,-184.22"/>
<polygon fill="#63b8ff" stroke="#63b8ff" points="279.92,-376.85 286.75,-384.95 286.46,-374.36 279.92,-376.85"/>
</a>
</g>
</g>
<!-- Node16&#45;&gt;Node15 -->
<g id="edge19_Node000015_Node000016" class="edge">
<title>Node16&#45;&gt;Node15</title>
<g id="a_edge19_Node000015_Node000016"><a xlink:title=" ">
<path fill="none" stroke="#63b8ff" d="M355.09,-383.59C410.07,-375.04 490.83,-362.03 561,-349 563.86,-348.47 566.83,-347.9 569.8,-347.31"/>
<polygon fill="#63b8ff" stroke="#63b8ff" points="354.48,-380.14 345.13,-385.14 355.55,-387.06 354.48,-380.14"/>
</a>
</g>
</g>
<!-- Node17 -->
<g id="Node000017" class="node">
<title>Node17</title>
<g id="a_Node000017"><a xlink:href="classFifoWrFsm.html" target="_top" xlink:title=" ">
<polygon fill="white" stroke="#bfbfbf" points="651.5,-404 582.5,-404 582.5,-385 651.5,-385 651.5,-404"/>
<text text-anchor="middle" x="617" y="-392" font-family="Helvetica,sans-Serif" font-size="10.00">FifoWrFsm</text>
</a>
</g>
</g>
<!-- Node17&#45;&gt;Node15 -->
<g id="edge21_Node000015_Node000017" class="edge">
<title>Node17&#45;&gt;Node15</title>
<g id="a_edge21_Node000015_Node000017"><a xlink:title=" ">
<path fill="none" stroke="#63b8ff" d="M611.75,-374.95C609.26,-366.15 606.4,-356.06 604.43,-349.09"/>
<polygon fill="#63b8ff" stroke="#63b8ff" points="608.43,-376.08 614.52,-384.75 615.17,-374.17 608.43,-376.08"/>
</a>
</g>
</g>
<!-- Node17&#45;&gt;Node20 -->
<g id="edge26_Node000020_Node000017" class="edge">
<title>Node17&#45;&gt;Node20</title>
<g id="a_edge26_Node000020_Node000017"><a xlink:title=" ">
<path fill="none" stroke="#63b8ff" d="M593,-379.97C575.81,-370.28 553.19,-357.52 538.38,-349.17"/>
<polygon fill="#63b8ff" stroke="#63b8ff" points="591.47,-383.12 601.9,-384.98 594.91,-377.02 591.47,-383.12"/>
</a>
</g>
</g>
<!-- Node18 -->
<g id="Node000018" class="node">
<title>Node18</title>
<g id="a_Node000018"><a xlink:href="classFifoRdFsm.html" target="_top" xlink:title=" ">
<polygon fill="white" stroke="#bfbfbf" points="431,-404 363,-404 363,-385 431,-385 431,-404"/>
<text text-anchor="middle" x="397" y="-392" font-family="Helvetica,sans-Serif" font-size="10.00">FifoRdFsm</text>
</a>
</g>
</g>
<!-- Node18&#45;&gt;Node15 -->
<g id="edge22_Node000015_Node000018" class="edge">
<title>Node18&#45;&gt;Node15</title>
<g id="a_edge22_Node000015_Node000018"><a xlink:title=" ">
<path fill="none" stroke="#63b8ff" d="M439.88,-382.41C478.63,-372.4 534.8,-357.87 569.82,-348.82"/>
<polygon fill="#63b8ff" stroke="#63b8ff" points="438.74,-379.09 429.94,-384.98 440.49,-385.87 438.74,-379.09"/>
</a>
</g>
</g>
<!-- Node18&#45;&gt;Node20 -->
<g id="edge27_Node000020_Node000018" class="edge">
<title>Node18&#45;&gt;Node20</title>
<g id="a_edge27_Node000020_Node000018"><a xlink:title=" ">
<path fill="none" stroke="#63b8ff" d="M426.65,-381.03C449.95,-371.23 481.8,-357.83 502.39,-349.17"/>
<polygon fill="#63b8ff" stroke="#63b8ff" points="425.1,-377.88 417.24,-384.98 427.82,-384.33 425.1,-377.88"/>
</a>
</g>
</g>
<!-- Node19 -->
<g id="Node000019" class="node">
<title>Node19</title>
<g id="a_Node000019"><a xlink:href="classSimpleDualPortRam.html" target="_top" xlink:title=" ">
<polygon fill="white" stroke="#bfbfbf" points="564.5,-404 449.5,-404 449.5,-385 564.5,-385 564.5,-404"/>
<text text-anchor="middle" x="507" y="-392" font-family="Helvetica,sans-Serif" font-size="10.00">SimpleDualPortRam</text>
</a>
</g>
</g>
<!-- Node19&#45;&gt;Node15 -->
<g id="edge23_Node000015_Node000019" class="edge">
<title>Node19&#45;&gt;Node15</title>
<g id="a_edge23_Node000015_Node000019"><a xlink:title=" ">
<path fill="none" stroke="#63b8ff" d="M531.26,-379.97C548.63,-370.28 571.49,-357.52 586.46,-349.17"/>
<polygon fill="#63b8ff" stroke="#63b8ff" points="529.29,-377.06 522.26,-384.98 532.7,-383.17 529.29,-377.06"/>
</a>
</g>
</g>
<!-- Node19&#45;&gt;Node20 -->
<g id="edge28_Node000020_Node000019" class="edge">
<title>Node19&#45;&gt;Node20</title>
<g id="a_edge28_Node000020_Node000019"><a xlink:title=" ">
<path fill="none" stroke="#63b8ff" d="M512.6,-374.95C515.26,-366.15 518.3,-356.06 520.41,-349.09"/>
<polygon fill="#63b8ff" stroke="#63b8ff" points="509.18,-374.16 509.64,-384.75 515.88,-376.19 509.18,-374.16"/>
</a>
</g>
</g>
<!-- Node20&#45;&gt;Node9 -->
<g id="edge25_Node000009_Node000020" class="edge">
<title>Node20&#45;&gt;Node9</title>
<g id="a_edge25_Node000009_Node000020"><a xlink:title=" ">
<path fill="none" stroke="#63b8ff" d="M544.39,-324.15C558.67,-314.57 576.97,-302.29 589.08,-294.17"/>
<polygon fill="#63b8ff" stroke="#63b8ff" points="542.05,-321.51 535.69,-329.98 545.95,-327.32 542.05,-321.51"/>
</a>
</g>
</g>
<!-- Node21&#45;&gt;Node2 -->
<g id="edge34_Node000002_Node000021" class="edge">
<title>Node21&#45;&gt;Node2</title>
<g id="a_edge34_Node000002_Node000021"><a xlink:title=" ">
<path fill="none" stroke="#63b8ff" d="M839.78,-327.18C774.42,-308.78 658,-270.4 658,-230.5 658,-230.5 658,-230.5 658,-173.5 658,-96.79 387.97,-73.52 284.6,-67.42"/>
<polygon fill="#63b8ff" stroke="#63b8ff" points="839.23,-330.66 849.8,-329.96 841.1,-323.92 839.23,-330.66"/>
</a>
</g>
</g>
<!-- Node22&#45;&gt;Node21 -->
<g id="edge36_Node000021_Node000022" class="edge">
<title>Node22&#45;&gt;Node21</title>
<g id="a_edge36_Node000021_Node000022"><a xlink:title=" ">
<path fill="none" stroke="#63b8ff" d="M939.15,-379.15C925.24,-369.57 907.39,-357.29 895.6,-349.17"/>
<polygon fill="#63b8ff" stroke="#63b8ff" points="937.41,-382.2 947.63,-384.98 941.38,-376.43 937.41,-382.2"/>
</a>
</g>
</g>
</g>
</svg>

<g id="navigator" transform="translate(0 0)" fill="#404254">
  <rect fill="#f2f5e9" fill-opacity="0.5" stroke="#606060" stroke-width=".5" x="0" y="0" width="60" height="60"/>
  <use id="zoomplus" xlink:href="#zoomPlus" x="17" y="9" onmousedown="handleZoom(evt,'in')"/>
  <use id="zoomminus" xlink:href="#zoomMin" x="42" y="9" onmousedown="handleZoom(evt,'out')"/>
  <use id="reset" xlink:href="#resetDef" x="30" y="36" onmousedown="handleReset()"/>
   <use id="arrowup" xlink:href="#arrowUp" x="0" y="0" onmousedown="handlePan(0,-1)"/>
  <use id="arrowright" xlink:href="#arrowRight" x="0" y="0" onmousedown="handlePan(1,0)"/>
  <use id="arrowdown" xlink:href="#arrowDown" x="0" y="0" onmousedown="handlePan(0,1)"/>
  <use id="arrowleft" xlink:href="#arrowLeft" x="0" y="0" onmousedown="handlePan(-1,0)"/>
</g>
<svg viewBox="0 0 15 15" width="100%" height="30px" preserveAspectRatio="xMaxYMin meet">
 <g id="arrow_out" transform="scale(0.3 0.3)">
  <a xlink:href="classCoaXPressConfig__coll__graph_org.svg" target="_base">
   <rect id="button" ry="5" rx="5" y="6" x="6" height="38" width="38"
        fill="#f2f5e9" fill-opacity="0.5" stroke="#606060" stroke-width="1.0"/>
   <path id="arrow"
     d="M 11.500037,31.436501 C 11.940474,20.09759 22.043105,11.32322 32.158766,21.979434 L 37.068811,17.246167 C 37.068811,17.246167 37.088388,32 37.088388,32 L 22.160133,31.978069 C 22.160133,31.978069 26.997745,27.140456 26.997745,27.140456 C 18.528582,18.264221 13.291696,25.230495 11.500037,31.436501 z"
     style="fill:#404040;"/>
  </a>
 </g>
</svg>

<style type='text/css'>
<![CDATA[
[data-mouse-over-selected='false'] { opacity: 0.7; }
[data-mouse-over-selected='true']  { opacity: 1.0; }
]]>
</style>
<script type="application/ecmascript"><![CDATA[
document.addEventListener('DOMContentLoaded', (event) => {
  highlightEdges();
  highlightAdjacentNodes();
});
]]></script>
</svg>
