<?xml version="1.0" encoding="UTF-8" standalone="no"?>
<!DOCTYPE svg PUBLIC "-//W3C//DTD SVG 1.1//EN"
 "http://www.w3.org/Graphics/SVG/1.1/DTD/svg11.dtd">
<!-- Generated by graphviz version 2.43.0 (0)
 -->
<!-- Title: Gearbox Pages: 1 -->
<svg width="768pt" height="393pt"
 viewBox="0.00 0.00 768.00 393.00" xmlns="http://www.w3.org/2000/svg" xmlns:xlink="http://www.w3.org/1999/xlink">
<g id="graph0" class="graph" transform="scale(1 1) rotate(0) translate(4 389)">
<title>Gearbox</title>
<polygon fill="white" stroke="transparent" points="-4,4 -4,-389 764,-389 764,4 -4,4"/>
<!-- Node1 -->
<g id="node1" class="node">
<title>Node1</title>
<g id="a_node1"><a xlink:title=" ">
<polygon fill="#bfbfbf" stroke="black" points="0,-139.5 0,-158.5 58,-158.5 58,-139.5 0,-139.5"/>
<text text-anchor="middle" x="29" y="-146.5" font-family="Helvetica,sans-Serif" font-size="10.00">Gearbox</text>
</a>
</g>
</g>
<!-- Node2 -->
<g id="node2" class="node">
<title>Node2</title>
<g id="a_node2"><a xlink:href="classAd9249Deserializer.html" target="_top" xlink:title=" ">
<polygon fill="white" stroke="black" points="111.5,-327.5 111.5,-346.5 223.5,-346.5 223.5,-327.5 111.5,-327.5"/>
<text text-anchor="middle" x="167.5" y="-334.5" font-family="Helvetica,sans-Serif" font-size="10.00">Ad9249Deserializer</text>
</a>
</g>
</g>
<!-- Node1&#45;&gt;Node2 -->
<g id="edge1" class="edge">
<title>Node1&#45;&gt;Node2</title>
<path fill="none" stroke="midnightblue" d="M36.39,-168.52C45.91,-195.57 65.76,-245.04 94,-280 110.1,-299.93 134.39,-317.21 150.35,-327.37"/>
<polygon fill="midnightblue" stroke="midnightblue" points="39.59,-167.06 33.05,-158.72 32.96,-169.31 39.59,-167.06"/>
</g>
<!-- Node4 -->
<g id="node4" class="node">
<title>Node4</title>
<g id="a_node4"><a xlink:href="classAsyncGearbox.html" target="_top" xlink:title=" ">
<polygon fill="white" stroke="black" points="124,-251.5 124,-270.5 211,-270.5 211,-251.5 124,-251.5"/>
<text text-anchor="middle" x="167.5" y="-258.5" font-family="Helvetica,sans-Serif" font-size="10.00">AsyncGearbox</text>
</a>
</g>
</g>
<!-- Node1&#45;&gt;Node4 -->
<g id="edge3" class="edge">
<title>Node1&#45;&gt;Node4</title>
<path fill="none" stroke="midnightblue" d="M49.41,-164.92C78.22,-188.57 131.44,-232.24 154.89,-251.48"/>
<polygon fill="midnightblue" stroke="midnightblue" points="51.59,-162.19 41.64,-158.55 47.15,-167.6 51.59,-162.19"/>
</g>
<!-- Node13 -->
<g id="node13" class="node">
<title>Node13</title>
<g id="a_node13"><a xlink:href="classGearboxTb.html" target="_top" xlink:title=" ">
<polygon fill="white" stroke="black" points="132.5,-158.5 132.5,-177.5 202.5,-177.5 202.5,-158.5 132.5,-158.5"/>
<text text-anchor="middle" x="167.5" y="-165.5" font-family="Helvetica,sans-Serif" font-size="10.00">GearboxTb</text>
</a>
</g>
</g>
<!-- Node1&#45;&gt;Node13 -->
<g id="edge13" class="edge">
<title>Node1&#45;&gt;Node13</title>
<path fill="none" stroke="midnightblue" d="M68.37,-154.34C88.52,-157.15 112.99,-160.55 132.46,-163.26"/>
<polygon fill="midnightblue" stroke="midnightblue" points="68.67,-150.85 58.28,-152.94 67.7,-157.78 68.67,-150.85"/>
</g>
<!-- Node14 -->
<g id="node14" class="node">
<title>Node14</title>
<g id="a_node14"><a xlink:href="classSspLowSpeedDecoderLane.html" target="_top" xlink:title=" ">
<polygon fill="white" stroke="black" points="94,-120.5 94,-139.5 241,-139.5 241,-120.5 94,-120.5"/>
<text text-anchor="middle" x="167.5" y="-127.5" font-family="Helvetica,sans-Serif" font-size="10.00">SspLowSpeedDecoderLane</text>
</a>
</g>
</g>
<!-- Node1&#45;&gt;Node14 -->
<g id="edge14" class="edge">
<title>Node1&#45;&gt;Node14</title>
<path fill="none" stroke="midnightblue" d="M68.32,-143.67C77.59,-142.38 87.79,-140.96 97.99,-139.54"/>
<polygon fill="midnightblue" stroke="midnightblue" points="67.7,-140.22 58.28,-145.06 68.67,-147.15 67.7,-140.22"/>
</g>
<!-- Node18 -->
<g id="node18" class="node">
<title>Node18</title>
<g id="a_node18"><a xlink:href="classSugoiManagerCore.html" target="_top" xlink:title=" ">
<polygon fill="white" stroke="black" points="113,-71.5 113,-90.5 222,-90.5 222,-71.5 113,-71.5"/>
<text text-anchor="middle" x="167.5" y="-78.5" font-family="Helvetica,sans-Serif" font-size="10.00">SugoiManagerCore</text>
</a>
</g>
</g>
<!-- Node1&#45;&gt;Node18 -->
<g id="edge19" class="edge">
<title>Node1&#45;&gt;Node18</title>
<path fill="none" stroke="midnightblue" d="M53.16,-134.16C65.12,-126.77 80.1,-117.96 94,-111 109.23,-103.38 126.87,-96.05 140.94,-90.54"/>
<polygon fill="midnightblue" stroke="midnightblue" points="51.28,-131.2 44.66,-139.47 55,-137.14 51.28,-131.2"/>
</g>
<!-- Node20 -->
<g id="node20" class="node">
<title>Node20</title>
<g id="a_node20"><a xlink:href="classSugoiSubordinateCore.html" target="_top" xlink:title=" ">
<polygon fill="white" stroke="black" points="105,-11.5 105,-30.5 230,-30.5 230,-11.5 105,-11.5"/>
<text text-anchor="middle" x="167.5" y="-18.5" font-family="Helvetica,sans-Serif" font-size="10.00">SugoiSubordinateCore</text>
</a>
</g>
</g>
<!-- Node1&#45;&gt;Node20 -->
<g id="edge21" class="edge">
<title>Node1&#45;&gt;Node20</title>
<path fill="none" stroke="midnightblue" d="M40.4,-130.51C51.73,-111.57 71.3,-82.13 94,-62 109.04,-48.66 129.12,-37.72 144.33,-30.51"/>
<polygon fill="midnightblue" stroke="midnightblue" points="37.26,-128.94 35.25,-139.35 43.31,-132.47 37.26,-128.94"/>
</g>
<!-- Node3 -->
<g id="node3" class="node">
<title>Node3</title>
<g id="a_node3"><a xlink:href="classAd9249ReadoutGroup.html" target="_top" xlink:title=" ">
<polygon fill="white" stroke="black" points="313,-365.5 313,-384.5 436,-384.5 436,-365.5 313,-365.5"/>
<text text-anchor="middle" x="374.5" y="-372.5" font-family="Helvetica,sans-Serif" font-size="10.00">Ad9249ReadoutGroup</text>
</a>
</g>
</g>
<!-- Node2&#45;&gt;Node3 -->
<g id="edge2" class="edge">
<title>Node2&#45;&gt;Node3</title>
<path fill="none" stroke="midnightblue" d="M230.1,-348.42C259.43,-353.86 294.11,-360.28 322.01,-365.46"/>
<polygon fill="midnightblue" stroke="midnightblue" points="230.44,-344.92 219.97,-346.54 229.16,-351.8 230.44,-344.92"/>
</g>
<!-- Node5 -->
<g id="node5" class="node">
<title>Node5</title>
<g id="a_node5"><a xlink:href="classClinkDataShift.html" target="_top" xlink:title=" ">
<polygon fill="white" stroke="black" points="331.5,-327.5 331.5,-346.5 417.5,-346.5 417.5,-327.5 331.5,-327.5"/>
<text text-anchor="middle" x="374.5" y="-334.5" font-family="Helvetica,sans-Serif" font-size="10.00">ClinkDataShift</text>
</a>
</g>
</g>
<!-- Node4&#45;&gt;Node5 -->
<g id="edge4" class="edge">
<title>Node4&#45;&gt;Node5</title>
<path fill="none" stroke="midnightblue" d="M192.02,-275.92C213.41,-288.85 246.24,-307.15 277,-318 294.39,-324.13 314.28,-328.47 331.47,-331.44"/>
<polygon fill="midnightblue" stroke="midnightblue" points="193.67,-272.83 183.32,-270.57 190,-278.79 193.67,-272.83"/>
</g>
<!-- Node8 -->
<g id="node8" class="node">
<title>Node8</title>
<g id="a_node8"><a xlink:href="classSaltRxLvds.html" target="_top" xlink:title=" ">
<polygon fill="white" stroke="black" points="339,-289.5 339,-308.5 410,-308.5 410,-289.5 339,-289.5"/>
<text text-anchor="middle" x="374.5" y="-296.5" font-family="Helvetica,sans-Serif" font-size="10.00">SaltRxLvds</text>
</a>
</g>
</g>
<!-- Node4&#45;&gt;Node8 -->
<g id="edge7" class="edge">
<title>Node4&#45;&gt;Node8</title>
<path fill="none" stroke="midnightblue" d="M221.56,-270.84C258.48,-277.68 306.64,-286.61 338.74,-292.56"/>
<polygon fill="midnightblue" stroke="midnightblue" points="221.95,-267.35 211.47,-268.97 220.67,-274.23 221.95,-267.35"/>
</g>
<!-- Node11 -->
<g id="node11" class="node">
<title>Node11</title>
<g id="a_node11"><a xlink:href="classSaltTxLvds.html" target="_top" xlink:title=" ">
<polygon fill="white" stroke="black" points="339.5,-251.5 339.5,-270.5 409.5,-270.5 409.5,-251.5 339.5,-251.5"/>
<text text-anchor="middle" x="374.5" y="-258.5" font-family="Helvetica,sans-Serif" font-size="10.00">SaltTxLvds</text>
</a>
</g>
</g>
<!-- Node4&#45;&gt;Node11 -->
<g id="edge10" class="edge">
<title>Node4&#45;&gt;Node11</title>
<path fill="none" stroke="midnightblue" d="M221.63,-261C258.78,-261 307.31,-261 339.39,-261"/>
<polygon fill="midnightblue" stroke="midnightblue" points="221.47,-257.5 211.47,-261 221.47,-264.5 221.47,-257.5"/>
</g>
<!-- Node12 -->
<g id="node12" class="node">
<title>Node12</title>
<g id="a_node12"><a xlink:href="classSelectioDeserUltraScaleTb.html" target="_top" xlink:title=" ">
<polygon fill="white" stroke="black" points="508,-85.5 508,-104.5 654,-104.5 654,-85.5 508,-85.5"/>
<text text-anchor="middle" x="581" y="-92.5" font-family="Helvetica,sans-Serif" font-size="10.00">SelectioDeserUltraScaleTb</text>
</a>
</g>
</g>
<!-- Node4&#45;&gt;Node12 -->
<g id="edge12" class="edge">
<title>Node4&#45;&gt;Node12</title>
<path fill="none" stroke="midnightblue" d="M221.03,-251.54C306.42,-236.12 466.45,-206.94 472,-204 519.06,-179.03 558.51,-126.55 573.51,-104.78"/>
<polygon fill="midnightblue" stroke="midnightblue" points="220.22,-248.13 211,-253.35 221.46,-255.02 220.22,-248.13"/>
</g>
<!-- Node6 -->
<g id="node6" class="node">
<title>Node6</title>
<g id="a_node6"><a xlink:href="classClinkData.html" target="_top" xlink:title=" ">
<polygon fill="white" stroke="black" points="548.5,-327.5 548.5,-346.5 613.5,-346.5 613.5,-327.5 548.5,-327.5"/>
<text text-anchor="middle" x="581" y="-334.5" font-family="Helvetica,sans-Serif" font-size="10.00">ClinkData</text>
</a>
</g>
</g>
<!-- Node5&#45;&gt;Node6 -->
<g id="edge5" class="edge">
<title>Node5&#45;&gt;Node6</title>
<path fill="none" stroke="midnightblue" d="M428.26,-337C466.29,-337 516.36,-337 548.38,-337"/>
<polygon fill="midnightblue" stroke="midnightblue" points="427.87,-333.5 417.87,-337 427.87,-340.5 427.87,-333.5"/>
</g>
<!-- Node7 -->
<g id="node7" class="node">
<title>Node7</title>
<g id="a_node7"><a xlink:href="classClinkTop.html" target="_top" xlink:title=" ">
<polygon fill="white" stroke="black" points="696,-327.5 696,-346.5 754,-346.5 754,-327.5 696,-327.5"/>
<text text-anchor="middle" x="725" y="-334.5" font-family="Helvetica,sans-Serif" font-size="10.00">ClinkTop</text>
</a>
</g>
</g>
<!-- Node6&#45;&gt;Node7 -->
<g id="edge6" class="edge">
<title>Node6&#45;&gt;Node7</title>
<path fill="none" stroke="midnightblue" d="M623.79,-337C647.04,-337 675.35,-337 695.94,-337"/>
<polygon fill="midnightblue" stroke="midnightblue" points="623.51,-333.5 613.51,-337 623.51,-340.5 623.51,-333.5"/>
</g>
<!-- Node9 -->
<g id="node9" class="node">
<title>Node9</title>
<g id="a_node9"><a xlink:href="classSaltCore.html" target="_top" xlink:title=" ">
<polygon fill="white" stroke="black" points="552,-270.5 552,-289.5 610,-289.5 610,-270.5 552,-270.5"/>
<text text-anchor="middle" x="581" y="-277.5" font-family="Helvetica,sans-Serif" font-size="10.00">SaltCore</text>
</a>
</g>
</g>
<!-- Node8&#45;&gt;Node9 -->
<g id="edge8" class="edge">
<title>Node8&#45;&gt;Node9</title>
<path fill="none" stroke="midnightblue" d="M420.22,-294.84C460.26,-291.12 517.74,-285.78 551.74,-282.63"/>
<polygon fill="midnightblue" stroke="midnightblue" points="419.82,-291.37 410.19,-295.78 420.47,-298.34 419.82,-291.37"/>
</g>
<!-- Node10 -->
<g id="node10" class="node">
<title>Node10</title>
<g id="a_node10"><a xlink:href="classSaltCoreTb.html" target="_top" xlink:title=" ">
<polygon fill="white" stroke="black" points="690,-270.5 690,-289.5 760,-289.5 760,-270.5 690,-270.5"/>
<text text-anchor="middle" x="725" y="-277.5" font-family="Helvetica,sans-Serif" font-size="10.00">SaltCoreTb</text>
</a>
</g>
</g>
<!-- Node9&#45;&gt;Node10 -->
<g id="edge9" class="edge">
<title>Node9&#45;&gt;Node10</title>
<path fill="none" stroke="midnightblue" d="M620.26,-280C642,-280 668.99,-280 689.99,-280"/>
<polygon fill="midnightblue" stroke="midnightblue" points="620.05,-276.5 610.05,-280 620.05,-283.5 620.05,-276.5"/>
</g>
<!-- Node11&#45;&gt;Node9 -->
<g id="edge11" class="edge">
<title>Node11&#45;&gt;Node9</title>
<path fill="none" stroke="midnightblue" d="M419.78,-265.11C459.9,-268.84 517.82,-274.22 551.92,-277.39"/>
<polygon fill="midnightblue" stroke="midnightblue" points="420.01,-261.62 409.73,-264.18 419.36,-268.59 420.01,-261.62"/>
</g>
<!-- Node15 -->
<g id="node15" class="node">
<title>Node15</title>
<g id="a_node15"><a xlink:href="classSspLowSpeedDecoder10b12bWrapper.html" target="_top" xlink:title=" ">
<polygon fill="white" stroke="black" points="294.5,-164 294.5,-194 454.5,-194 454.5,-164 294.5,-164"/>
<text text-anchor="start" x="302.5" y="-182" font-family="Helvetica,sans-Serif" font-size="10.00">SspLowSpeedDecoder10b12b</text>
<text text-anchor="middle" x="374.5" y="-171" font-family="Helvetica,sans-Serif" font-size="10.00">Wrapper</text>
</a>
</g>
</g>
<!-- Node14&#45;&gt;Node15 -->
<g id="edge15" class="edge">
<title>Node14&#45;&gt;Node15</title>
<path fill="none" stroke="midnightblue" d="M218.4,-141.93C246.16,-148.56 280.98,-156.89 310.59,-163.96"/>
<polygon fill="midnightblue" stroke="midnightblue" points="219.05,-138.48 208.51,-139.56 217.43,-145.29 219.05,-138.48"/>
</g>
<!-- Node16 -->
<g id="node16" class="node">
<title>Node16</title>
<g id="a_node16"><a xlink:href="classSspLowSpeedDecoder12b14bWrapper.html" target="_top" xlink:title=" ">
<polygon fill="white" stroke="black" points="294.5,-115 294.5,-145 454.5,-145 454.5,-115 294.5,-115"/>
<text text-anchor="start" x="302.5" y="-133" font-family="Helvetica,sans-Serif" font-size="10.00">SspLowSpeedDecoder12b14b</text>
<text text-anchor="middle" x="374.5" y="-122" font-family="Helvetica,sans-Serif" font-size="10.00">Wrapper</text>
</a>
</g>
</g>
<!-- Node14&#45;&gt;Node16 -->
<g id="edge16" class="edge">
<title>Node14&#45;&gt;Node16</title>
<path fill="none" stroke="midnightblue" d="M251.31,-130C265.54,-130 280.29,-130 294.41,-130"/>
<polygon fill="midnightblue" stroke="midnightblue" points="251.06,-126.5 241.06,-130 251.06,-133.5 251.06,-126.5"/>
</g>
<!-- Node17 -->
<g id="node17" class="node">
<title>Node17</title>
<g id="a_node17"><a xlink:href="classSspLowSpeedDecoder8b10bWrapper.html" target="_top" xlink:title=" ">
<polygon fill="white" stroke="black" points="277,-76.5 277,-95.5 472,-95.5 472,-76.5 277,-76.5"/>
<text text-anchor="middle" x="374.5" y="-83.5" font-family="Helvetica,sans-Serif" font-size="10.00">SspLowSpeedDecoder8b10bWrapper</text>
</a>
</g>
</g>
<!-- Node14&#45;&gt;Node17 -->
<g id="edge17" class="edge">
<title>Node14&#45;&gt;Node17</title>
<path fill="none" stroke="midnightblue" d="M221.14,-118.21C238.88,-114.27 258.79,-109.9 277,-106 293.23,-102.52 311.01,-98.81 326.84,-95.54"/>
<polygon fill="midnightblue" stroke="midnightblue" points="219.99,-114.88 210.98,-120.47 221.5,-121.71 219.99,-114.88"/>
</g>
<!-- Node17&#45;&gt;Node12 -->
<g id="edge18" class="edge">
<title>Node17&#45;&gt;Node12</title>
<path fill="none" stroke="midnightblue" d="M482.28,-90.7C490.98,-91.08 499.64,-91.46 508,-91.83"/>
<polygon fill="midnightblue" stroke="midnightblue" points="482.21,-87.19 472.06,-90.25 481.9,-94.19 482.21,-87.19"/>
</g>
<!-- Node19 -->
<g id="node19" class="node">
<title>Node19</title>
<g id="a_node19"><a xlink:href="classSugoiTopTb.html" target="_top" xlink:title=" ">
<polygon fill="white" stroke="black" points="545,-28.5 545,-47.5 617,-47.5 617,-28.5 545,-28.5"/>
<text text-anchor="middle" x="581" y="-35.5" font-family="Helvetica,sans-Serif" font-size="10.00">SugoiTopTb</text>
</a>
</g>
</g>
<!-- Node18&#45;&gt;Node19 -->
<g id="edge20" class="edge">
<title>Node18&#45;&gt;Node19</title>
<path fill="none" stroke="midnightblue" d="M232.27,-72.42C246.95,-70.54 262.51,-68.63 277,-67 373.89,-56.12 488.5,-45.86 544.97,-40.98"/>
<polygon fill="midnightblue" stroke="midnightblue" points="231.74,-68.96 222.27,-73.71 232.63,-75.9 231.74,-68.96"/>
</g>
<!-- Node21 -->
<g id="node21" class="node">
<title>Node21</title>
<g id="a_node21"><a xlink:href="classSugoiSubordinateSimModel.html" target="_top" xlink:title=" ">
<polygon fill="white" stroke="black" points="299,-0.5 299,-19.5 450,-19.5 450,-0.5 299,-0.5"/>
<text text-anchor="middle" x="374.5" y="-7.5" font-family="Helvetica,sans-Serif" font-size="10.00">SugoiSubordinateSimModel</text>
</a>
</g>
</g>
<!-- Node20&#45;&gt;Node21 -->
<g id="edge22" class="edge">
<title>Node20&#45;&gt;Node21</title>
<path fill="none" stroke="midnightblue" d="M240.06,-17.16C259.01,-16.14 279.51,-15.04 298.63,-14.02"/>
<polygon fill="midnightblue" stroke="midnightblue" points="239.8,-13.67 230.01,-17.7 240.18,-20.66 239.8,-13.67"/>
</g>
<!-- Node21&#45;&gt;Node19 -->
<g id="edge23" class="edge">
<title>Node21&#45;&gt;Node19</title>
<path fill="none" stroke="midnightblue" d="M454.99,-20.88C486.08,-25.14 520.12,-29.8 544.82,-33.18"/>
<polygon fill="midnightblue" stroke="midnightblue" points="455.4,-17.41 445.02,-19.52 454.45,-24.34 455.4,-17.41"/>
</g>
</g>
</svg>
