<?xml version="1.0" encoding="UTF-8" standalone="no"?>
<!DOCTYPE svg PUBLIC "-//W3C//DTD SVG 1.1//EN"
 "http://www.w3.org/Graphics/SVG/1.1/DTD/svg11.dtd">
<!-- Generated by graphviz version 2.43.0 (0)
 -->
<!-- Title: Pgp4RxProtocol Pages: 1 -->
<!--zoomable 357 -->

<svg id="main" version="1.1" xmlns="http://www.w3.org/2000/svg" xmlns:xlink="http://www.w3.org/1999/xlink" xml:space="preserve" onload="init(evt)">
<style type="text/css"><![CDATA[
.node, .edge {opacity: 0.7;}
.node.selected, .edge.selected {opacity: 1;}
.edge:hover path { stroke: red; }
.edge:hover polygon { stroke: red; fill: red; }
]]></style>

<defs>
  <circle id="rim" cx="0" cy="0" r="7"/>
  <circle id="rim2" cx="0" cy="0" r="3.5"/>
  <g id="zoomPlus">
    <use xlink:href="#rim" fill="#404040"><set attributeName="fill" to="#808080" begin="zoomplus.mouseover" end="zoomplus.mouseout"/></use>
    <path d="M-4,0h8M0,-4v8" fill="none" stroke="white" stroke-width="1.5" pointer-events="none"/>
  </g>
  <g id="zoomMin">
    <use xlink:href="#rim" fill="#404040"><set attributeName="fill" to="#808080" begin="zoomminus.mouseover" end="zoomminus.mouseout"/></use>
    <path d="M-4,0h8" fill="none" stroke="white" stroke-width="1.5" pointer-events="none"/>
  </g>
  <g id="arrowUp" transform="translate(30 24)">
    <use xlink:href="#rim"/>
    <path pointer-events="none" fill="none" stroke="white" stroke-width="1.5" d="M0,-3.0v7 M-2.5,-0.5L0,-3.0L2.5,-0.5"/>
  </g>
  <g id="arrowRight" transform="rotate(90) translate(36 -43)">
    <use xlink:href="#rim"/>
    <path pointer-events="none" fill="none" stroke="white" stroke-width="1.5" d="M0,-3.0v7 M-2.5,-0.5L0,-3.0L2.5,-0.5"/>
  </g>
  <g id="arrowDown" transform="rotate(180) translate(-30 -48)">
    <use xlink:href="#rim"/>
    <path pointer-events="none" fill="none" stroke="white" stroke-width="1.5" d="M0,-3.0v7 M-2.5,-0.5L0,-3.0L2.5,-0.5"/>
  </g>
  <g id="arrowLeft" transform="rotate(270) translate(-36 17)">
    <use xlink:href="#rim"/>
    <path pointer-events="none" fill="none" stroke="white" stroke-width="1.5" d="M0,-3.0v7 M-2.5,-0.5L0,-3.0L2.5,-0.5"/>
  </g>
  <g id="resetDef">
    <use xlink:href="#rim2" fill="#404040"><set attributeName="fill" to="#808080" begin="reset.mouseover" end="reset.mouseout"/></use>
  </g>
</defs>
<script type="application/ecmascript">
var viewWidth = 1056;
var viewHeight = 357;
var sectionId = 'dynsection-1';
</script>
<script type="application/ecmascript" xlink:href="svg.min.js"/>
<svg id="graph" class="graph">
<g id="viewport">
<title>Pgp4RxProtocol</title>
<!-- Node1 -->
<g id="Node000001" class="node">
<title>Node1</title>
<g id="a_Node000001"><a xlink:title=" ">
<polygon fill="#999999" stroke="#666666" points="178.5,-19 85.5,-19 85.5,0 178.5,0 178.5,-19"/>
<text text-anchor="middle" x="132" y="-7" font-family="Helvetica,sans-Serif" font-size="10.00">Pgp4RxProtocol</text>
</a>
</g>
</g>
<!-- Node2 -->
<g id="Node000002" class="node">
<title>Node2</title>
<g id="a_Node000002"><a xlink:href="classSynchronizerEdge.html" target="_top" xlink:title=" ">
<polygon fill="white" stroke="#bfbfbf" points="104,-74 0,-74 0,-55 104,-55 104,-74"/>
<text text-anchor="middle" x="52" y="-62" font-family="Helvetica,sans-Serif" font-size="10.00">SynchronizerEdge</text>
</a>
</g>
</g>
<!-- Node2&#45;&gt;Node1 -->
<g id="edge1_Node000001_Node000002" class="edge">
<title>Node2&#45;&gt;Node1</title>
<g id="a_edge1_Node000001_Node000002"><a xlink:title=" ">
<path fill="none" stroke="#63b8ff" d="M73.25,-49.42C87.76,-39.81 106.54,-27.37 118.91,-19.17"/>
<polygon fill="#63b8ff" stroke="#63b8ff" points="71.26,-46.54 64.85,-54.98 75.12,-52.38 71.26,-46.54"/>
</a>
</g>
</g>
<!-- Node3 -->
<g id="Node000003" class="node">
<title>Node3</title>
<g id="a_Node000003"><a xlink:href="classSynchronizer.html" target="_top" xlink:title=" ">
<polygon fill="white" stroke="#bfbfbf" points="475,-349 395,-349 395,-330 475,-330 475,-349"/>
<text text-anchor="middle" x="435" y="-337" font-family="Helvetica,sans-Serif" font-size="10.00">Synchronizer</text>
</a>
</g>
</g>
<!-- Node3&#45;&gt;Node2 -->
<g id="edge2_Node000002_Node000003" class="edge">
<title>Node3&#45;&gt;Node2</title>
<g id="a_edge2_Node000002_Node000003"><a xlink:title=" ">
<path fill="none" stroke="#63b8ff" d="M384.76,-334.08C285.33,-323.95 73,-294.79 73,-230.5 73,-230.5 73,-230.5 73,-173.5 73,-135.87 60.56,-92.2 54.83,-74.07"/>
<polygon fill="#63b8ff" stroke="#63b8ff" points="384.58,-337.58 394.88,-335.09 385.27,-330.62 384.58,-337.58"/>
</a>
</g>
</g>
<!-- Node5 -->
<g id="Node000005" class="node">
<title>Node5</title>
<g id="a_Node000005"><a xlink:href="classAxiStreamFifoV2.html" target="_top" xlink:title=" ">
<polygon fill="white" stroke="#bfbfbf" points="371,-74 273,-74 273,-55 371,-55 371,-74"/>
<text text-anchor="middle" x="322" y="-62" font-family="Helvetica,sans-Serif" font-size="10.00">AxiStreamFifoV2</text>
</a>
</g>
</g>
<!-- Node3&#45;&gt;Node5 -->
<g id="edge34_Node000005_Node000003" class="edge">
<title>Node3&#45;&gt;Node5</title>
<g id="a_edge34_Node000005_Node000003"><a xlink:title=" ">
<path fill="none" stroke="#63b8ff" d="M412.82,-324.04C402.44,-316.26 390.7,-305.83 383,-294 366.93,-269.31 364,-259.96 364,-230.5 364,-230.5 364,-230.5 364,-173.5 364,-134.07 339.38,-91.71 327.84,-74.02"/>
<polygon fill="#63b8ff" stroke="#63b8ff" points="410.93,-326.99 421.1,-329.93 414.98,-321.28 410.93,-326.99"/>
</a>
</g>
</g>
<!-- Node11 -->
<g id="Node000011" class="node">
<title>Node11</title>
<g id="a_Node000011"><a xlink:href="classRstSync.html" target="_top" xlink:title=" ">
<polygon fill="white" stroke="#bfbfbf" points="576,-294 520,-294 520,-275 576,-275 576,-294"/>
<text text-anchor="middle" x="548" y="-282" font-family="Helvetica,sans-Serif" font-size="10.00">RstSync</text>
</a>
</g>
</g>
<!-- Node3&#45;&gt;Node11 -->
<g id="edge13_Node000011_Node000003" class="edge">
<title>Node3&#45;&gt;Node11</title>
<g id="a_edge13_Node000011_Node000003"><a xlink:title=" ">
<path fill="none" stroke="#63b8ff" d="M462.43,-325.63C483.25,-315.87 511.3,-302.71 529.51,-294.17"/>
<polygon fill="#63b8ff" stroke="#63b8ff" points="460.72,-322.57 453.16,-329.98 463.7,-328.91 460.72,-322.57"/>
</a>
</g>
</g>
<!-- Node14 -->
<g id="Node000014" class="node">
<title>Node14</title>
<g id="a_Node000014"><a xlink:href="classFifoAsync.html" target="_top" xlink:title=" ">
<polygon fill="white" stroke="#bfbfbf" points="766,-239 702,-239 702,-220 766,-220 766,-239"/>
<text text-anchor="middle" x="734" y="-227" font-family="Helvetica,sans-Serif" font-size="10.00">FifoAsync</text>
</a>
</g>
</g>
<!-- Node3&#45;&gt;Node14 -->
<g id="edge20_Node000014_Node000003" class="edge">
<title>Node3&#45;&gt;Node14</title>
<g id="a_edge20_Node000014_Node000003"><a xlink:title=" ">
<path fill="none" stroke="#63b8ff" d="M485.19,-333.18C560.01,-324.84 693.88,-308.17 711,-294 727.8,-280.09 732.33,-252.87 733.55,-239.03"/>
<polygon fill="#63b8ff" stroke="#63b8ff" points="484.6,-329.73 475.04,-334.3 485.37,-336.68 484.6,-329.73"/>
</a>
</g>
</g>
<!-- Node4 -->
<g id="Node000004" class="node">
<title>Node4</title>
<g id="a_Node000004"><a xlink:href="classAxiStreamPipeline.html" target="_top" xlink:title=" ">
<polygon fill="white" stroke="#bfbfbf" points="242.5,-239 135.5,-239 135.5,-220 242.5,-220 242.5,-239"/>
<text text-anchor="middle" x="189" y="-227" font-family="Helvetica,sans-Serif" font-size="10.00">AxiStreamPipeline</text>
</a>
</g>
</g>
<!-- Node4&#45;&gt;Node1 -->
<g id="edge3_Node000001_Node000004" class="edge">
<title>Node4&#45;&gt;Node1</title>
<g id="a_edge3_Node000001_Node000004"><a xlink:title=" ">
<path fill="none" stroke="#63b8ff" d="M184.2,-210.13C172.48,-165.3 142.75,-51.6 134.28,-19.22"/>
<polygon fill="#63b8ff" stroke="#63b8ff" points="180.85,-211.16 186.77,-219.95 187.62,-209.39 180.85,-211.16"/>
</a>
</g>
</g>
<!-- Node4&#45;&gt;Node5 -->
<g id="edge35_Node000005_Node000004" class="edge">
<title>Node4&#45;&gt;Node5</title>
<g id="a_edge35_Node000005_Node000004"><a xlink:title=" ">
<path fill="none" stroke="#63b8ff" d="M188.46,-209.74C188.72,-184.25 192.88,-138.58 217,-110 232.64,-91.47 257.36,-80.48 278.88,-74.06"/>
<polygon fill="#63b8ff" stroke="#63b8ff" points="184.96,-209.93 188.55,-219.9 191.96,-209.87 184.96,-209.93"/>
</a>
</g>
</g>
<!-- Node6 -->
<g id="Node000006" class="node">
<title>Node6</title>
<g id="a_Node000006"><a xlink:href="classAxiStreamGearbox.html" target="_top" xlink:title=" ">
<polygon fill="white" stroke="#bfbfbf" points="335.5,-129 226.5,-129 226.5,-110 335.5,-110 335.5,-129"/>
<text text-anchor="middle" x="281" y="-117" font-family="Helvetica,sans-Serif" font-size="10.00">AxiStreamGearbox</text>
</a>
</g>
</g>
<!-- Node4&#45;&gt;Node6 -->
<g id="edge8_Node000006_Node000004" class="edge">
<title>Node4&#45;&gt;Node6</title>
<g id="a_edge8_Node000006_Node000004"><a xlink:title=" ">
<path fill="none" stroke="#63b8ff" d="M197.61,-210.57C204.5,-197.22 214.98,-178.97 227,-165 239.2,-150.82 256.26,-137.59 267.92,-129.31"/>
<polygon fill="#63b8ff" stroke="#63b8ff" points="194.4,-209.16 193.07,-219.67 200.67,-212.28 194.4,-209.16"/>
</a>
</g>
</g>
<!-- Node7 -->
<g id="Node000007" class="node">
<title>Node7</title>
<g id="a_Node000007"><a xlink:href="classAxiStreamResize.html" target="_top" xlink:title=" ">
<polygon fill="white" stroke="#bfbfbf" points="336,-184 236,-184 236,-165 336,-165 336,-184"/>
<text text-anchor="middle" x="286" y="-172" font-family="Helvetica,sans-Serif" font-size="10.00">AxiStreamResize</text>
</a>
</g>
</g>
<!-- Node4&#45;&gt;Node7 -->
<g id="edge7_Node000007_Node000004" class="edge">
<title>Node4&#45;&gt;Node7</title>
<g id="a_edge7_Node000007_Node000004"><a xlink:title=" ">
<path fill="none" stroke="#63b8ff" d="M213.77,-214.97C231.5,-205.28 254.85,-192.52 270.13,-184.17"/>
<polygon fill="#63b8ff" stroke="#63b8ff" points="211.68,-212.12 204.58,-219.98 215.04,-218.26 211.68,-212.12"/>
</a>
</g>
</g>
<!-- Node5&#45;&gt;Node1 -->
<g id="edge4_Node000001_Node000005" class="edge">
<title>Node5&#45;&gt;Node1</title>
<g id="a_edge4_Node000001_Node000005"><a xlink:title=" ">
<path fill="none" stroke="#63b8ff" d="M281.43,-52.18C245.9,-42.27 195.03,-28.08 162.77,-19.08"/>
<polygon fill="#63b8ff" stroke="#63b8ff" points="280.9,-55.67 291.47,-54.98 282.78,-48.93 280.9,-55.67"/>
</a>
</g>
</g>
<!-- Node6&#45;&gt;Node5 -->
<g id="edge5_Node000005_Node000006" class="edge">
<title>Node6&#45;&gt;Node5</title>
<g id="a_edge5_Node000005_Node000006"><a xlink:title=" ">
<path fill="none" stroke="#63b8ff" d="M294.02,-101.67C301.12,-92.5 309.6,-81.52 315.36,-74.09"/>
<polygon fill="#63b8ff" stroke="#63b8ff" points="291.12,-99.7 287.77,-109.75 296.66,-103.98 291.12,-99.7"/>
</a>
</g>
</g>
<!-- Node7&#45;&gt;Node6 -->
<g id="edge6_Node000006_Node000007" class="edge">
<title>Node7&#45;&gt;Node6</title>
<g id="a_edge6_Node000006_Node000007"><a xlink:title=" ">
<path fill="none" stroke="#63b8ff" d="M284.22,-154.66C283.4,-145.93 282.46,-135.99 281.81,-129.09"/>
<polygon fill="#63b8ff" stroke="#63b8ff" points="280.75,-155.12 285.17,-164.75 287.72,-154.46 280.75,-155.12"/>
</a>
</g>
</g>
<!-- Node8 -->
<g id="Node000008" class="node">
<title>Node8</title>
<g id="a_Node000008"><a xlink:href="classFifoCascade.html" target="_top" xlink:title=" ">
<polygon fill="white" stroke="#bfbfbf" points="596,-129 520,-129 520,-110 596,-110 596,-129"/>
<text text-anchor="middle" x="558" y="-117" font-family="Helvetica,sans-Serif" font-size="10.00">FifoCascade</text>
</a>
</g>
</g>
<!-- Node8&#45;&gt;Node5 -->
<g id="edge9_Node000005_Node000008" class="edge">
<title>Node8&#45;&gt;Node5</title>
<g id="a_edge9_Node000005_Node000008"><a xlink:title=" ">
<path fill="none" stroke="#63b8ff" d="M510.15,-107.75C465.92,-97.82 401.07,-83.26 360.21,-74.08"/>
<polygon fill="#63b8ff" stroke="#63b8ff" points="509.56,-111.21 520.08,-109.98 511.09,-104.38 509.56,-111.21"/>
</a>
</g>
</g>
<!-- Node9 -->
<g id="Node000009" class="node">
<title>Node9</title>
<g id="a_Node000009"><a xlink:href="classFifo.html" target="_top" xlink:title=" ">
<polygon fill="white" stroke="#bfbfbf" points="662.5,-184 627.5,-184 627.5,-165 662.5,-165 662.5,-184"/>
<text text-anchor="middle" x="645" y="-172" font-family="Helvetica,sans-Serif" font-size="10.00">Fifo</text>
</a>
</g>
</g>
<!-- Node9&#45;&gt;Node8 -->
<g id="edge10_Node000008_Node000009" class="edge">
<title>Node9&#45;&gt;Node8</title>
<g id="a_edge10_Node000008_Node000009"><a xlink:title=" ">
<path fill="none" stroke="#63b8ff" d="M622.34,-159.7C606.49,-150.04 585.81,-137.44 572.23,-129.17"/>
<polygon fill="#63b8ff" stroke="#63b8ff" points="620.66,-162.77 631.02,-164.98 624.3,-156.79 620.66,-162.77"/>
</a>
</g>
</g>
<!-- Node10 -->
<g id="Node000010" class="node">
<title>Node10</title>
<g id="a_Node000010"><a xlink:href="classFifoXpm.html" target="_top" xlink:title=" ">
<polygon fill="white" stroke="#bfbfbf" points="588.5,-239 531.5,-239 531.5,-220 588.5,-220 588.5,-239"/>
<text text-anchor="middle" x="560" y="-227" font-family="Helvetica,sans-Serif" font-size="10.00">FifoXpm</text>
</a>
</g>
</g>
<!-- Node10&#45;&gt;Node9 -->
<g id="edge11_Node000009_Node000010" class="edge">
<title>Node10&#45;&gt;Node9</title>
<g id="a_edge11_Node000009_Node000010"><a xlink:title=" ">
<path fill="none" stroke="#63b8ff" d="M582.57,-214.42C598,-204.81 617.95,-192.37 631.09,-184.17"/>
<polygon fill="#63b8ff" stroke="#63b8ff" points="580.29,-211.72 573.66,-219.98 583.99,-217.66 580.29,-211.72"/>
</a>
</g>
</g>
<!-- Node11&#45;&gt;Node10 -->
<g id="edge12_Node000010_Node000011" class="edge">
<title>Node11&#45;&gt;Node10</title>
<g id="a_edge12_Node000010_Node000011"><a xlink:title=" ">
<path fill="none" stroke="#63b8ff" d="M552.2,-264.95C554.19,-256.15 556.48,-246.06 558.06,-239.09"/>
<polygon fill="#63b8ff" stroke="#63b8ff" points="548.78,-264.22 549.98,-274.75 555.6,-265.77 548.78,-264.22"/>
</a>
</g>
</g>
<!-- Node11&#45;&gt;Node14 -->
<g id="edge18_Node000014_Node000011" class="edge">
<title>Node11&#45;&gt;Node14</title>
<g id="a_edge18_Node000014_Node000011"><a xlink:title=" ">
<path fill="none" stroke="#63b8ff" d="M586.07,-272.65C620.94,-262.72 671.85,-248.21 703.94,-239.07"/>
<polygon fill="#63b8ff" stroke="#63b8ff" points="584.91,-269.34 576.25,-275.45 586.83,-276.08 584.91,-269.34"/>
</a>
</g>
</g>
<!-- Node12 -->
<g id="Node000012" class="node">
<title>Node12</title>
<g id="a_Node000012"><a xlink:href="classFifoOutputPipeline.html" target="_top" xlink:title=" ">
<polygon fill="white" stroke="#bfbfbf" points="701.5,-294 594.5,-294 594.5,-275 701.5,-275 701.5,-294"/>
<text text-anchor="middle" x="648" y="-282" font-family="Helvetica,sans-Serif" font-size="10.00">FifoOutputPipeline</text>
</a>
</g>
</g>
<!-- Node12&#45;&gt;Node10 -->
<g id="edge14_Node000010_Node000012" class="edge">
<title>Node12&#45;&gt;Node10</title>
<g id="a_edge14_Node000010_Node000012"><a xlink:title=" ">
<path fill="none" stroke="#63b8ff" d="M625.08,-269.7C609.05,-260.04 588.13,-247.44 574.4,-239.17"/>
<polygon fill="#63b8ff" stroke="#63b8ff" points="623.49,-272.82 633.86,-274.98 627.1,-266.83 623.49,-272.82"/>
</a>
</g>
</g>
<!-- Node13 -->
<g id="Node000013" class="node">
<title>Node13</title>
<g id="a_Node000013"><a xlink:href="classFifoAlteraMf.html" target="_top" xlink:title=" ">
<polygon fill="white" stroke="#bfbfbf" points="683.5,-239 606.5,-239 606.5,-220 683.5,-220 683.5,-239"/>
<text text-anchor="middle" x="645" y="-227" font-family="Helvetica,sans-Serif" font-size="10.00">FifoAlteraMf</text>
</a>
</g>
</g>
<!-- Node12&#45;&gt;Node13 -->
<g id="edge16_Node000013_Node000012" class="edge">
<title>Node12&#45;&gt;Node13</title>
<g id="a_edge16_Node000013_Node000012"><a xlink:title=" ">
<path fill="none" stroke="#63b8ff" d="M646.93,-264.66C646.44,-255.93 645.88,-245.99 645.49,-239.09"/>
<polygon fill="#63b8ff" stroke="#63b8ff" points="643.44,-264.96 647.5,-274.75 650.43,-264.57 643.44,-264.96"/>
</a>
</g>
</g>
<!-- Node12&#45;&gt;Node14 -->
<g id="edge27_Node000014_Node000012" class="edge">
<title>Node12&#45;&gt;Node14</title>
<g id="a_edge27_Node000014_Node000012"><a xlink:title=" ">
<path fill="none" stroke="#63b8ff" d="M670.4,-269.7C686.07,-260.04 706.51,-247.44 719.93,-239.17"/>
<polygon fill="#63b8ff" stroke="#63b8ff" points="668.49,-266.76 661.82,-274.98 672.17,-272.72 668.49,-266.76"/>
</a>
</g>
</g>
<!-- Node22 -->
<g id="Node000022" class="node">
<title>Node22</title>
<g id="a_Node000022"><a xlink:href="classFifoSync.html" target="_top" xlink:title=" ">
<polygon fill="white" stroke="#bfbfbf" points="845,-239 787,-239 787,-220 845,-220 845,-239"/>
<text text-anchor="middle" x="816" y="-227" font-family="Helvetica,sans-Serif" font-size="10.00">FifoSync</text>
</a>
</g>
</g>
<!-- Node12&#45;&gt;Node22 -->
<g id="edge32_Node000022_Node000012" class="edge">
<title>Node12&#45;&gt;Node22</title>
<g id="a_edge32_Node000022_Node000012"><a xlink:title=" ">
<path fill="none" stroke="#63b8ff" d="M684.68,-271.93C716.06,-262.03 760.51,-248.01 788.8,-239.08"/>
<polygon fill="#63b8ff" stroke="#63b8ff" points="683.48,-268.64 674.99,-274.98 685.58,-275.31 683.48,-268.64"/>
</a>
</g>
</g>
<!-- Node13&#45;&gt;Node9 -->
<g id="edge15_Node000009_Node000013" class="edge">
<title>Node13&#45;&gt;Node9</title>
<g id="a_edge15_Node000009_Node000013"><a xlink:title=" ">
<path fill="none" stroke="#63b8ff" d="M645,-209.66C645,-200.93 645,-190.99 645,-184.09"/>
<polygon fill="#63b8ff" stroke="#63b8ff" points="641.5,-209.75 645,-219.75 648.5,-209.75 641.5,-209.75"/>
</a>
</g>
</g>
<!-- Node14&#45;&gt;Node9 -->
<g id="edge17_Node000009_Node000014" class="edge">
<title>Node14&#45;&gt;Node9</title>
<g id="a_edge17_Node000009_Node000014"><a xlink:title=" ">
<path fill="none" stroke="#63b8ff" d="M710.82,-214.7C694.61,-205.04 673.45,-192.44 659.56,-184.17"/>
<polygon fill="#63b8ff" stroke="#63b8ff" points="709.32,-217.88 719.7,-219.98 712.9,-211.86 709.32,-217.88"/>
</a>
</g>
</g>
<!-- Node15 -->
<g id="Node000015" class="node">
<title>Node15</title>
<g id="a_Node000015"><a xlink:href="classSynchronizerVector.html" target="_top" xlink:title=" ">
<polygon fill="white" stroke="#bfbfbf" points="502,-294 392,-294 392,-275 502,-275 502,-294"/>
<text text-anchor="middle" x="447" y="-282" font-family="Helvetica,sans-Serif" font-size="10.00">SynchronizerVector</text>
</a>
</g>
</g>
<!-- Node15&#45;&gt;Node5 -->
<g id="edge33_Node000005_Node000015" class="edge">
<title>Node15&#45;&gt;Node5</title>
<g id="a_edge33_Node000005_Node000015"><a xlink:title=" ">
<path fill="none" stroke="#63b8ff" d="M442.99,-264.96C435.05,-231.42 414.82,-159.56 378,-110 366.74,-94.85 349.11,-82 336.64,-74.06"/>
<polygon fill="#63b8ff" stroke="#63b8ff" points="439.59,-265.8 445.22,-274.77 446.42,-264.25 439.59,-265.8"/>
</a>
</g>
</g>
<!-- Node15&#45;&gt;Node14 -->
<g id="edge19_Node000014_Node000015" class="edge">
<title>Node15&#45;&gt;Node14</title>
<g id="a_edge19_Node000014_Node000015"><a xlink:title=" ">
<path fill="none" stroke="#63b8ff" d="M506.51,-273.17C556.38,-264.41 629.42,-251.34 693,-239 695.85,-238.45 698.82,-237.86 701.79,-237.26"/>
<polygon fill="#63b8ff" stroke="#63b8ff" points="505.79,-269.75 496.54,-274.92 507,-276.64 505.79,-269.75"/>
</a>
</g>
</g>
<!-- Node16 -->
<g id="Node000016" class="node">
<title>Node16</title>
<g id="a_Node000016"><a xlink:href="classFifoWrFsm.html" target="_top" xlink:title=" ">
<polygon fill="white" stroke="#bfbfbf" points="960.5,-294 891.5,-294 891.5,-275 960.5,-275 960.5,-294"/>
<text text-anchor="middle" x="926" y="-282" font-family="Helvetica,sans-Serif" font-size="10.00">FifoWrFsm</text>
</a>
</g>
</g>
<!-- Node16&#45;&gt;Node14 -->
<g id="edge21_Node000014_Node000016" class="edge">
<title>Node16&#45;&gt;Node14</title>
<g id="a_edge21_Node000014_Node000016"><a xlink:title=" ">
<path fill="none" stroke="#63b8ff" d="M885.47,-272.31C849.54,-262.39 797.84,-248.12 765.09,-239.08"/>
<polygon fill="#63b8ff" stroke="#63b8ff" points="884.58,-275.7 895.15,-274.98 886.44,-268.95 884.58,-275.7"/>
</a>
</g>
</g>
<!-- Node16&#45;&gt;Node22 -->
<g id="edge29_Node000022_Node000016" class="edge">
<title>Node16&#45;&gt;Node22</title>
<g id="a_edge29_Node000022_Node000016"><a xlink:title=" ">
<path fill="none" stroke="#63b8ff" d="M899.3,-270.63C879.03,-260.87 851.73,-247.71 833.99,-239.17"/>
<polygon fill="#63b8ff" stroke="#63b8ff" points="897.8,-273.8 908.33,-274.98 900.84,-267.49 897.8,-273.8"/>
</a>
</g>
</g>
<!-- Node17 -->
<g id="Node000017" class="node">
<title>Node17</title>
<g id="a_Node000017"><a xlink:href="classFifoRdFsm.html" target="_top" xlink:title=" ">
<polygon fill="white" stroke="#bfbfbf" points="1047,-294 979,-294 979,-275 1047,-275 1047,-294"/>
<text text-anchor="middle" x="1013" y="-282" font-family="Helvetica,sans-Serif" font-size="10.00">FifoRdFsm</text>
</a>
</g>
</g>
<!-- Node17&#45;&gt;Node14 -->
<g id="edge22_Node000014_Node000017" class="edge">
<title>Node17&#45;&gt;Node14</title>
<g id="a_edge22_Node000014_Node000017"><a xlink:title=" ">
<path fill="none" stroke="#63b8ff" d="M968.83,-274.79C883.11,-258.32 860.21,-254.65 778,-239 774.18,-238.27 770.17,-237.51 766.2,-236.74"/>
<polygon fill="#63b8ff" stroke="#63b8ff" points="968.26,-278.24 978.74,-276.7 969.58,-271.37 968.26,-278.24"/>
</a>
</g>
</g>
<!-- Node17&#45;&gt;Node22 -->
<g id="edge30_Node000022_Node000017" class="edge">
<title>Node17&#45;&gt;Node22</title>
<g id="a_edge30_Node000022_Node000017"><a xlink:title=" ">
<path fill="none" stroke="#63b8ff" d="M971.62,-272.37C933.67,-262.16 878.45,-247.3 845.01,-238.3"/>
<polygon fill="#63b8ff" stroke="#63b8ff" points="970.78,-275.77 981.35,-274.98 972.6,-269.01 970.78,-275.77"/>
</a>
</g>
</g>
<!-- Node18 -->
<g id="Node000018" class="node">
<title>Node18</title>
<g id="a_Node000018"><a xlink:href="classSimpleDualPortRam.html" target="_top" xlink:title=" ">
<polygon fill="white" stroke="#bfbfbf" points="873.5,-294 758.5,-294 758.5,-275 873.5,-275 873.5,-294"/>
<text text-anchor="middle" x="816" y="-282" font-family="Helvetica,sans-Serif" font-size="10.00">SimpleDualPortRam</text>
</a>
</g>
</g>
<!-- Node18&#45;&gt;Node14 -->
<g id="edge23_Node000014_Node000018" class="edge">
<title>Node18&#45;&gt;Node14</title>
<g id="a_edge23_Node000014_Node000018"><a xlink:title=" ">
<path fill="none" stroke="#63b8ff" d="M794.22,-269.42C779.34,-259.81 760.09,-247.37 747.41,-239.17"/>
<polygon fill="#63b8ff" stroke="#63b8ff" points="792.53,-272.5 802.83,-274.98 796.33,-266.62 792.53,-272.5"/>
</a>
</g>
</g>
<!-- Node18&#45;&gt;Node22 -->
<g id="edge31_Node000022_Node000018" class="edge">
<title>Node18&#45;&gt;Node22</title>
<g id="a_edge31_Node000022_Node000018"><a xlink:title=" ">
<path fill="none" stroke="#63b8ff" d="M816,-264.66C816,-255.93 816,-245.99 816,-239.09"/>
<polygon fill="#63b8ff" stroke="#63b8ff" points="812.5,-264.75 816,-274.75 819.5,-264.75 812.5,-264.75"/>
</a>
</g>
</g>
<!-- Node19 -->
<g id="Node000019" class="node">
<title>Node19</title>
<g id="a_Node000019"><a xlink:href="classSimpleDualPortRamXpm.html" target="_top" xlink:title=" ">
<polygon fill="white" stroke="#bfbfbf" points="1047.5,-349 910.5,-349 910.5,-330 1047.5,-330 1047.5,-349"/>
<text text-anchor="middle" x="979" y="-337" font-family="Helvetica,sans-Serif" font-size="10.00">SimpleDualPortRamXpm</text>
</a>
</g>
</g>
<!-- Node19&#45;&gt;Node18 -->
<g id="edge24_Node000018_Node000019" class="edge">
<title>Node19&#45;&gt;Node18</title>
<g id="a_edge24_Node000018_Node000019"><a xlink:title=" ">
<path fill="none" stroke="#63b8ff" d="M943.01,-326.8C912.59,-316.91 869.72,-302.97 842.39,-294.08"/>
<polygon fill="#63b8ff" stroke="#63b8ff" points="942.22,-330.22 952.81,-329.98 944.38,-323.56 942.22,-330.22"/>
</a>
</g>
</g>
<!-- Node20 -->
<g id="Node000020" class="node">
<title>Node20</title>
<g id="a_Node000020"><a xlink:href="classSimpleDualPortRamAlteraMf.html" target="_top" xlink:title=" ">
<polygon fill="white" stroke="#bfbfbf" points="721.5,-349 564.5,-349 564.5,-330 721.5,-330 721.5,-349"/>
<text text-anchor="middle" x="643" y="-337" font-family="Helvetica,sans-Serif" font-size="10.00">SimpleDualPortRamAlteraMf</text>
</a>
</g>
</g>
<!-- Node20&#45;&gt;Node18 -->
<g id="edge25_Node000018_Node000020" class="edge">
<title>Node20&#45;&gt;Node18</title>
<g id="a_edge25_Node000018_Node000020"><a xlink:title=" ">
<path fill="none" stroke="#63b8ff" d="M680.77,-326.93C713.09,-317.03 758.86,-303.01 787.99,-294.08"/>
<polygon fill="#63b8ff" stroke="#63b8ff" points="679.33,-323.71 670.8,-329.98 681.38,-330.4 679.33,-323.71"/>
</a>
</g>
</g>
<!-- Node21 -->
<g id="Node000021" class="node">
<title>Node21</title>
<g id="a_Node000021"><a xlink:href="classSimpleDualPortRamInferred.html" target="_top" xlink:title=" ">
<polygon fill="white" stroke="#bfbfbf" points="892.5,-349 739.5,-349 739.5,-330 892.5,-330 892.5,-349"/>
<text text-anchor="middle" x="816" y="-337" font-family="Helvetica,sans-Serif" font-size="10.00">SimpleDualPortRamInferred</text>
</a>
</g>
</g>
<!-- Node21&#45;&gt;Node18 -->
<g id="edge26_Node000018_Node000021" class="edge">
<title>Node21&#45;&gt;Node18</title>
<g id="a_edge26_Node000018_Node000021"><a xlink:title=" ">
<path fill="none" stroke="#63b8ff" d="M816,-319.66C816,-310.93 816,-300.99 816,-294.09"/>
<polygon fill="#63b8ff" stroke="#63b8ff" points="812.5,-319.75 816,-329.75 819.5,-319.75 812.5,-319.75"/>
</a>
</g>
</g>
<!-- Node22&#45;&gt;Node9 -->
<g id="edge28_Node000009_Node000022" class="edge">
<title>Node22&#45;&gt;Node9</title>
<g id="a_edge28_Node000009_Node000022"><a xlink:title=" ">
<path fill="none" stroke="#63b8ff" d="M778.9,-217C743.08,-205.9 690.34,-189.55 662.96,-181.07"/>
<polygon fill="#63b8ff" stroke="#63b8ff" points="777.94,-220.37 788.53,-219.98 780.01,-213.68 777.94,-220.37"/>
</a>
</g>
</g>
</g>
</svg>

<g id="navigator" transform="translate(0 0)" fill="#404254">
  <rect fill="#f2f5e9" fill-opacity="0.5" stroke="#606060" stroke-width=".5" x="0" y="0" width="60" height="60"/>
  <use id="zoomplus" xlink:href="#zoomPlus" x="17" y="9" onmousedown="handleZoom(evt,'in')"/>
  <use id="zoomminus" xlink:href="#zoomMin" x="42" y="9" onmousedown="handleZoom(evt,'out')"/>
  <use id="reset" xlink:href="#resetDef" x="30" y="36" onmousedown="handleReset()"/>
   <use id="arrowup" xlink:href="#arrowUp" x="0" y="0" onmousedown="handlePan(0,-1)"/>
  <use id="arrowright" xlink:href="#arrowRight" x="0" y="0" onmousedown="handlePan(1,0)"/>
  <use id="arrowdown" xlink:href="#arrowDown" x="0" y="0" onmousedown="handlePan(0,1)"/>
  <use id="arrowleft" xlink:href="#arrowLeft" x="0" y="0" onmousedown="handlePan(-1,0)"/>
</g>
<svg viewBox="0 0 15 15" width="100%" height="30px" preserveAspectRatio="xMaxYMin meet">
 <g id="arrow_out" transform="scale(0.3 0.3)">
  <a xlink:href="classPgp4RxProtocol__coll__graph_org.svg" target="_base">
   <rect id="button" ry="5" rx="5" y="6" x="6" height="38" width="38"
        fill="#f2f5e9" fill-opacity="0.5" stroke="#606060" stroke-width="1.0"/>
   <path id="arrow"
     d="M 11.500037,31.436501 C 11.940474,20.09759 22.043105,11.32322 32.158766,21.979434 L 37.068811,17.246167 C 37.068811,17.246167 37.088388,32 37.088388,32 L 22.160133,31.978069 C 22.160133,31.978069 26.997745,27.140456 26.997745,27.140456 C 18.528582,18.264221 13.291696,25.230495 11.500037,31.436501 z"
     style="fill:#404040;"/>
  </a>
 </g>
</svg>

<style type='text/css'>
<![CDATA[
[data-mouse-over-selected='false'] { opacity: 0.7; }
[data-mouse-over-selected='true']  { opacity: 1.0; }
]]>
</style>
<script type="application/ecmascript"><![CDATA[
document.addEventListener('DOMContentLoaded', (event) => {
  highlightEdges();
  highlightAdjacentNodes();
});
]]></script>
</svg>
