<?xml version="1.0" encoding="UTF-8" standalone="no"?>
<!DOCTYPE svg PUBLIC "-//W3C//DTD SVG 1.1//EN"
 "http://www.w3.org/Graphics/SVG/1.1/DTD/svg11.dtd">
<!-- Generated by graphviz version 2.43.0 (0)
 -->
<!-- Title: ethernet/GigEthCore Pages: 1 -->
<!--zoomable 94 -->

<svg id="main" version="1.1" xmlns="http://www.w3.org/2000/svg" xmlns:xlink="http://www.w3.org/1999/xlink" xml:space="preserve" onload="init(evt)">
<style type="text/css"><![CDATA[
.node, .edge {opacity: 0.7;}
.node.selected, .edge.selected {opacity: 1;}
.edge:hover path { stroke: red; }
.edge:hover polygon { stroke: red; fill: red; }
]]></style>

<defs>
  <circle id="rim" cx="0" cy="0" r="7"/>
  <circle id="rim2" cx="0" cy="0" r="3.5"/>
  <g id="zoomPlus">
    <use xlink:href="#rim" fill="#404040"><set attributeName="fill" to="#808080" begin="zoomplus.mouseover" end="zoomplus.mouseout"/></use>
    <path d="M-4,0h8M0,-4v8" fill="none" stroke="white" stroke-width="1.5" pointer-events="none"/>
  </g>
  <g id="zoomMin">
    <use xlink:href="#rim" fill="#404040"><set attributeName="fill" to="#808080" begin="zoomminus.mouseover" end="zoomminus.mouseout"/></use>
    <path d="M-4,0h8" fill="none" stroke="white" stroke-width="1.5" pointer-events="none"/>
  </g>
  <g id="arrowUp" transform="translate(30 24)">
    <use xlink:href="#rim"/>
    <path pointer-events="none" fill="none" stroke="white" stroke-width="1.5" d="M0,-3.0v7 M-2.5,-0.5L0,-3.0L2.5,-0.5"/>
  </g>
  <g id="arrowRight" transform="rotate(90) translate(36 -43)">
    <use xlink:href="#rim"/>
    <path pointer-events="none" fill="none" stroke="white" stroke-width="1.5" d="M0,-3.0v7 M-2.5,-0.5L0,-3.0L2.5,-0.5"/>
  </g>
  <g id="arrowDown" transform="rotate(180) translate(-30 -48)">
    <use xlink:href="#rim"/>
    <path pointer-events="none" fill="none" stroke="white" stroke-width="1.5" d="M0,-3.0v7 M-2.5,-0.5L0,-3.0L2.5,-0.5"/>
  </g>
  <g id="arrowLeft" transform="rotate(270) translate(-36 17)">
    <use xlink:href="#rim"/>
    <path pointer-events="none" fill="none" stroke="white" stroke-width="1.5" d="M0,-3.0v7 M-2.5,-0.5L0,-3.0L2.5,-0.5"/>
  </g>
  <g id="resetDef">
    <use xlink:href="#rim2" fill="#404040"><set attributeName="fill" to="#808080" begin="reset.mouseover" end="reset.mouseout"/></use>
  </g>
</defs>
<script type="application/ecmascript">
var viewWidth = 778;
var viewHeight = 94;
var sectionId = 'dynsection-0';
</script>
<script type="application/ecmascript" xlink:href="svg.min.js"/>
<svg id="graph" class="graph">
<g id="viewport">
<title>ethernet/GigEthCore</title>
<g id="clust1" class="cluster">
<title>clusterdir_e39ed67d19575c03889109c3aa5e8389</title>
<g id="a_clust1"><a xlink:href="dir_e39ed67d19575c03889109c3aa5e8389.html" target="_top" xlink:title="ethernet">
<polygon fill="#edf0f7" stroke="#404040" stroke-dasharray="5,2" points="8,-8 8,-78 762,-78 762,-8 8,-8"/>
<text text-anchor="middle" x="385" y="-66" font-family="Helvetica,sans-Serif" font-size="10.00">ethernet</text>
</a>
</g>
</g>
<g id="clust2" class="cluster">
<title>clusterdir_a081b496cd6053c9f7ee7c41477ed60b</title>
<g id="a_clust2"><a xlink:href="dir_a081b496cd6053c9f7ee7c41477ed60b.html" target="_top">
<polygon fill="#edf0f7" stroke="#404040" stroke-width="2" points="16,-16 16,-51 754,-51 754,-16 16,-16"/>
</a>
</g>
</g>
<!-- dir_a081b496cd6053c9f7ee7c41477ed60b -->
<g id="node1" class="node">
<title>dir_a081b496cd6053c9f7ee7c41477ed60b</title>
<text text-anchor="middle" x="710" y="-31" font-family="Helvetica,sans-Serif" font-size="10.00">GigEthCore</text>
</g>
<!-- dir_0422c95c0b44354555dd94afae280c66 -->
<g id="node2" class="node">
<title>dir_0422c95c0b44354555dd94afae280c66</title>
<g id="a_node2"><a xlink:href="dir_0422c95c0b44354555dd94afae280c66.html" target="_top" xlink:title="core">
<polygon fill="#a2b4d6" stroke="#404040" points="656,-43 618,-43 618,-24 656,-24 656,-43"/>
<text text-anchor="middle" x="637" y="-31" font-family="Helvetica,sans-Serif" font-size="10.00">core</text>
</a>
</g>
</g>
<!-- dir_fe4cb756ea9002cfc803b727b5aa28e2 -->
<g id="node3" class="node">
<title>dir_fe4cb756ea9002cfc803b727b5aa28e2</title>
<g id="a_node3"><a xlink:href="dir_fe4cb756ea9002cfc803b727b5aa28e2.html" target="_top" xlink:title="gth7">
<polygon fill="#a2b4d6" stroke="#404040" points="600,-43 562,-43 562,-24 600,-24 600,-43"/>
<text text-anchor="middle" x="581" y="-31" font-family="Helvetica,sans-Serif" font-size="10.00">gth7</text>
</a>
</g>
</g>
<!-- dir_137db5e2c0415e188b52fa0d18f85c26 -->
<g id="node4" class="node">
<title>dir_137db5e2c0415e188b52fa0d18f85c26</title>
<g id="a_node4"><a xlink:href="dir_137db5e2c0415e188b52fa0d18f85c26.html" target="_top" xlink:title="gthUltraScale">
<polygon fill="#a2b4d6" stroke="#404040" points="543.5,-43 460.5,-43 460.5,-24 543.5,-24 543.5,-43"/>
<text text-anchor="middle" x="502" y="-31" font-family="Helvetica,sans-Serif" font-size="10.00">gthUltraScale</text>
</a>
</g>
</g>
<!-- dir_2bf2b86ed599c55b269babe3de709f4b -->
<g id="node5" class="node">
<title>dir_2bf2b86ed599c55b269babe3de709f4b</title>
<g id="a_node5"><a xlink:href="dir_2bf2b86ed599c55b269babe3de709f4b.html" target="_top" xlink:title="gthUltraScale+">
<polygon fill="#a2b4d6" stroke="#404040" points="442.5,-43 351.5,-43 351.5,-24 442.5,-24 442.5,-43"/>
<text text-anchor="middle" x="397" y="-31" font-family="Helvetica,sans-Serif" font-size="10.00">gthUltraScale+</text>
</a>
</g>
</g>
<!-- dir_1bd3d986dbd35354fc04553a297fa9f9 -->
<g id="node6" class="node">
<title>dir_1bd3d986dbd35354fc04553a297fa9f9</title>
<g id="a_node6"><a xlink:href="dir_1bd3d986dbd35354fc04553a297fa9f9.html" target="_top" xlink:title="gtp7">
<polygon fill="#a2b4d6" stroke="#404040" points="333,-43 295,-43 295,-24 333,-24 333,-43"/>
<text text-anchor="middle" x="314" y="-31" font-family="Helvetica,sans-Serif" font-size="10.00">gtp7</text>
</a>
</g>
</g>
<!-- dir_b6a32bed27ec87c355ca32964c64aeb4 -->
<g id="node7" class="node">
<title>dir_b6a32bed27ec87c355ca32964c64aeb4</title>
<g id="a_node7"><a xlink:href="dir_b6a32bed27ec87c355ca32964c64aeb4.html" target="_top" xlink:title="gtx7">
<polygon fill="#a2b4d6" stroke="#404040" points="277,-43 239,-43 239,-24 277,-24 277,-43"/>
<text text-anchor="middle" x="258" y="-31" font-family="Helvetica,sans-Serif" font-size="10.00">gtx7</text>
</a>
</g>
</g>
<!-- dir_5c9ed3cdcdd33b965ddd3e18c89982fb -->
<g id="node8" class="node">
<title>dir_5c9ed3cdcdd33b965ddd3e18c89982fb</title>
<g id="a_node8"><a xlink:href="dir_5c9ed3cdcdd33b965ddd3e18c89982fb.html" target="_top" xlink:title="gtyUltraScale+">
<polygon fill="#a2b4d6" stroke="#404040" points="220.5,-43 129.5,-43 129.5,-24 220.5,-24 220.5,-43"/>
<text text-anchor="middle" x="175" y="-31" font-family="Helvetica,sans-Serif" font-size="10.00">gtyUltraScale+</text>
</a>
</g>
</g>
<!-- dir_beef362cf091fb66af9e785fed5eee9c -->
<g id="node9" class="node">
<title>dir_beef362cf091fb66af9e785fed5eee9c</title>
<g id="a_node9"><a xlink:href="dir_beef362cf091fb66af9e785fed5eee9c.html" target="_top" xlink:title="lvdsUltraScale">
<polygon fill="#a2b4d6" stroke="#404040" points="111.5,-43 24.5,-43 24.5,-24 111.5,-24 111.5,-43"/>
<text text-anchor="middle" x="68" y="-31" font-family="Helvetica,sans-Serif" font-size="10.00">lvdsUltraScale</text>
</a>
</g>
</g>
</g>
</svg>

<g id="navigator" transform="translate(0 0)" fill="#404254">
  <rect fill="#f2f5e9" fill-opacity="0.5" stroke="#606060" stroke-width=".5" x="0" y="0" width="60" height="60"/>
  <use id="zoomplus" xlink:href="#zoomPlus" x="17" y="9" onmousedown="handleZoom(evt,'in')"/>
  <use id="zoomminus" xlink:href="#zoomMin" x="42" y="9" onmousedown="handleZoom(evt,'out')"/>
  <use id="reset" xlink:href="#resetDef" x="30" y="36" onmousedown="handleReset()"/>
   <use id="arrowup" xlink:href="#arrowUp" x="0" y="0" onmousedown="handlePan(0,-1)"/>
  <use id="arrowright" xlink:href="#arrowRight" x="0" y="0" onmousedown="handlePan(1,0)"/>
  <use id="arrowdown" xlink:href="#arrowDown" x="0" y="0" onmousedown="handlePan(0,1)"/>
  <use id="arrowleft" xlink:href="#arrowLeft" x="0" y="0" onmousedown="handlePan(-1,0)"/>
</g>
<svg viewBox="0 0 15 15" width="100%" height="30px" preserveAspectRatio="xMaxYMin meet">
 <g id="arrow_out" transform="scale(0.3 0.3)">
  <a xlink:href="dir_a081b496cd6053c9f7ee7c41477ed60b_dep_org.svg" target="_base">
   <rect id="button" ry="5" rx="5" y="6" x="6" height="38" width="38"
        fill="#f2f5e9" fill-opacity="0.5" stroke="#606060" stroke-width="1.0"/>
   <path id="arrow"
     d="M 11.500037,31.436501 C 11.940474,20.09759 22.043105,11.32322 32.158766,21.979434 L 37.068811,17.246167 C 37.068811,17.246167 37.088388,32 37.088388,32 L 22.160133,31.978069 C 22.160133,31.978069 26.997745,27.140456 26.997745,27.140456 C 18.528582,18.264221 13.291696,25.230495 11.500037,31.436501 z"
     style="fill:#404040;"/>
  </a>
 </g>
</svg>

<style type='text/css'>
<![CDATA[
[data-mouse-over-selected='false'] { opacity: 0.7; }
[data-mouse-over-selected='true']  { opacity: 1.0; }
]]>
</style>
<script type="application/ecmascript"><![CDATA[
document.addEventListener('DOMContentLoaded', (event) => {
  highlightEdges();
  highlightAdjacentNodes();
});
]]></script>
</svg>
