<?xml version="1.0" encoding="UTF-8" standalone="no"?>
<!DOCTYPE svg PUBLIC "-//W3C//DTD SVG 1.1//EN"
 "http://www.w3.org/Graphics/SVG/1.1/DTD/svg11.dtd">
<!-- Generated by graphviz version 2.40.1 (20161225.0304)
 -->
<!-- Title: Scrambler Pages: 1 -->
<svg width="381pt" height="308pt"
 viewBox="0.00 0.00 381.00 308.00" xmlns="http://www.w3.org/2000/svg" xmlns:xlink="http://www.w3.org/1999/xlink">
<g id="graph0" class="graph" transform="scale(1 1) rotate(0) translate(4 304)">
<title>Scrambler</title>
<polygon fill="#ffffff" stroke="transparent" points="-4,4 -4,-304 377,-304 377,4 -4,4"/>
<!-- Node0 -->
<g id="node1" class="node">
<title>Node0</title>
<polygon fill="#bfbfbf" stroke="#000000" points="226.5,-280.5 226.5,-299.5 292.5,-299.5 292.5,-280.5 226.5,-280.5"/>
<text text-anchor="middle" x="259.5" y="-287.5" font-family="Helvetica,sans-Serif" font-size="10.00" fill="#000000">Scrambler</text>
</g>
<!-- Node1 -->
<g id="node2" class="node">
<title>Node1</title>
<g id="a_node2"><a xlink:href="classPgp3Rx.html" target="_top" xlink:title="Pgp3Rx">
<polygon fill="#ffffff" stroke="#000000" points="198,-224.5 198,-243.5 251,-243.5 251,-224.5 198,-224.5"/>
<text text-anchor="middle" x="224.5" y="-231.5" font-family="Helvetica,sans-Serif" font-size="10.00" fill="#000000">Pgp3Rx</text>
</a>
</g>
</g>
<!-- Node0&#45;&gt;Node1 -->
<g id="edge1" class="edge">
<title>Node0&#45;&gt;Node1</title>
<path fill="none" stroke="#191970" d="M248.0185,-271.6296C242.1804,-262.2887 235.3248,-251.3197 230.5267,-243.6427"/>
<polygon fill="#191970" stroke="#191970" points="245.1354,-273.6206 253.4035,-280.2455 251.0714,-269.9105 245.1354,-273.6206"/>
</g>
<!-- Node12 -->
<g id="node13" class="node">
<title>Node12</title>
<g id="a_node13"><a xlink:href="classPgp3Tx.html" target="_top" xlink:title="Pgp3Tx">
<polygon fill="#ffffff" stroke="#000000" points="269,-224.5 269,-243.5 322,-243.5 322,-224.5 269,-224.5"/>
<text text-anchor="middle" x="295.5" y="-231.5" font-family="Helvetica,sans-Serif" font-size="10.00" fill="#000000">Pgp3Tx</text>
</a>
</g>
</g>
<!-- Node0&#45;&gt;Node12 -->
<g id="edge12" class="edge">
<title>Node0&#45;&gt;Node12</title>
<path fill="none" stroke="#191970" d="M271.3096,-271.6296C277.3144,-262.2887 284.3659,-251.3197 289.3011,-243.6427"/>
<polygon fill="#191970" stroke="#191970" points="268.2342,-269.9411 265.7707,-280.2455 274.1225,-273.7264 268.2342,-269.9411"/>
</g>
<!-- Node2 -->
<g id="node3" class="node">
<title>Node2</title>
<g id="a_node3"><a xlink:href="classPgp3Core.html" target="_top" xlink:title="Pgp3Core">
<polygon fill="#ffffff" stroke="#000000" points="191,-168.5 191,-187.5 254,-187.5 254,-168.5 191,-168.5"/>
<text text-anchor="middle" x="222.5" y="-175.5" font-family="Helvetica,sans-Serif" font-size="10.00" fill="#000000">Pgp3Core</text>
</a>
</g>
</g>
<!-- Node1&#45;&gt;Node2 -->
<g id="edge2" class="edge">
<title>Node1&#45;&gt;Node2</title>
<path fill="none" stroke="#191970" d="M223.7913,-214.1575C223.4698,-205.155 223.1043,-194.9199 222.8444,-187.6427"/>
<polygon fill="#191970" stroke="#191970" points="220.2968,-214.3769 224.1516,-224.2455 227.2924,-214.127 220.2968,-214.3769"/>
</g>
<!-- Node11 -->
<g id="node12" class="node">
<title>Node11</title>
<g id="a_node12"><a xlink:href="classPgp3Tb.html" target="_top" xlink:title="Pgp3Tb">
<polygon fill="#ffffff" stroke="#000000" points="272,-168.5 272,-187.5 325,-187.5 325,-168.5 272,-168.5"/>
<text text-anchor="middle" x="298.5" y="-175.5" font-family="Helvetica,sans-Serif" font-size="10.00" fill="#000000">Pgp3Tb</text>
</a>
</g>
</g>
<!-- Node1&#45;&gt;Node11 -->
<g id="edge11" class="edge">
<title>Node1&#45;&gt;Node11</title>
<path fill="none" stroke="#191970" d="M245.3657,-218.2097C258.3625,-208.3743 274.6622,-196.0394 285.7579,-187.6427"/>
<polygon fill="#191970" stroke="#191970" points="243.2518,-215.4201 237.3898,-224.2455 247.476,-221.002 243.2518,-215.4201"/>
</g>
<!-- Node3 -->
<g id="node4" class="node">
<title>Node3</title>
<g id="a_node4"><a xlink:href="classPgp3GthUs.html" target="_top" xlink:title="Pgp3GthUs">
<polygon fill="#ffffff" stroke="#000000" points="40,-112.5 40,-131.5 111,-131.5 111,-112.5 40,-112.5"/>
<text text-anchor="middle" x="75.5" y="-119.5" font-family="Helvetica,sans-Serif" font-size="10.00" fill="#000000">Pgp3GthUs</text>
</a>
</g>
</g>
<!-- Node2&#45;&gt;Node3 -->
<g id="edge3" class="edge">
<title>Node2&#45;&gt;Node3</title>
<path fill="none" stroke="#191970" d="M187.8206,-164.7888C160.9802,-154.5639 124.453,-140.6488 100.4404,-131.5011"/>
<polygon fill="#191970" stroke="#191970" points="186.6389,-168.0839 197.2298,-168.3733 189.1309,-161.5425 186.6389,-168.0839"/>
</g>
<!-- Node5 -->
<g id="node6" class="node">
<title>Node5</title>
<g id="a_node6"><a xlink:href="classPgp3Gtp7.html" target="_top" xlink:title="Pgp3Gtp7">
<polygon fill="#ffffff" stroke="#000000" points="149.5,-112.5 149.5,-131.5 213.5,-131.5 213.5,-112.5 149.5,-112.5"/>
<text text-anchor="middle" x="181.5" y="-119.5" font-family="Helvetica,sans-Serif" font-size="10.00" fill="#000000">Pgp3Gtp7</text>
</a>
</g>
</g>
<!-- Node2&#45;&gt;Node5 -->
<g id="edge5" class="edge">
<title>Node2&#45;&gt;Node5</title>
<path fill="none" stroke="#191970" d="M209.2636,-159.9209C202.3789,-150.5176 194.2391,-139.3997 188.5598,-131.6427"/>
<polygon fill="#191970" stroke="#191970" points="206.6269,-162.2445 215.3583,-168.2455 212.2749,-158.1093 206.6269,-162.2445"/>
</g>
<!-- Node8 -->
<g id="node9" class="node">
<title>Node8</title>
<g id="a_node9"><a xlink:href="classPgp3Gtx7.html" target="_top" xlink:title="Pgp3Gtx7">
<polygon fill="#ffffff" stroke="#000000" points="231.5,-112.5 231.5,-131.5 295.5,-131.5 295.5,-112.5 231.5,-112.5"/>
<text text-anchor="middle" x="263.5" y="-119.5" font-family="Helvetica,sans-Serif" font-size="10.00" fill="#000000">Pgp3Gtx7</text>
</a>
</g>
</g>
<!-- Node2&#45;&gt;Node8 -->
<g id="edge8" class="edge">
<title>Node2&#45;&gt;Node8</title>
<path fill="none" stroke="#191970" d="M235.7364,-159.9209C242.6211,-150.5176 250.7609,-139.3997 256.4402,-131.6427"/>
<polygon fill="#191970" stroke="#191970" points="232.7251,-158.1093 229.6417,-168.2455 238.3731,-162.2445 232.7251,-158.1093"/>
</g>
<!-- Node10 -->
<g id="node11" class="node">
<title>Node10</title>
<g id="a_node11"><a xlink:href="classPgp3Tb2.html" target="_top" xlink:title="Pgp3Tb2">
<polygon fill="#ffffff" stroke="#000000" points="314,-112.5 314,-131.5 373,-131.5 373,-112.5 314,-112.5"/>
<text text-anchor="middle" x="343.5" y="-119.5" font-family="Helvetica,sans-Serif" font-size="10.00" fill="#000000">Pgp3Tb2</text>
</a>
</g>
</g>
<!-- Node2&#45;&gt;Node10 -->
<g id="edge10" class="edge">
<title>Node2&#45;&gt;Node10</title>
<path fill="none" stroke="#191970" d="M252.5104,-164.1109C274.4525,-153.9559 303.6388,-140.4482 322.9708,-131.5011"/>
<polygon fill="#191970" stroke="#191970" points="250.9058,-160.9968 243.3006,-168.3733 253.8459,-167.3494 250.9058,-160.9968"/>
</g>
<!-- Node4 -->
<g id="node5" class="node">
<title>Node4</title>
<g id="a_node5"><a xlink:href="classPgp3GthUsWrapper.html" target="_top" xlink:title="Pgp3GthUsWrapper">
<polygon fill="#ffffff" stroke="#000000" points="0,-56.5 0,-75.5 111,-75.5 111,-56.5 0,-56.5"/>
<text text-anchor="middle" x="55.5" y="-63.5" font-family="Helvetica,sans-Serif" font-size="10.00" fill="#000000">Pgp3GthUsWrapper</text>
</a>
</g>
</g>
<!-- Node3&#45;&gt;Node4 -->
<g id="edge4" class="edge">
<title>Node3&#45;&gt;Node4</title>
<path fill="none" stroke="#191970" d="M68.6247,-102.7493C65.3594,-93.6064 61.5999,-83.0798 58.9438,-75.6427"/>
<polygon fill="#191970" stroke="#191970" points="65.3567,-104.0053 72.0163,-112.2455 71.9489,-101.6509 65.3567,-104.0053"/>
</g>
<!-- Node6 -->
<g id="node7" class="node">
<title>Node6</title>
<g id="a_node7"><a xlink:href="classPgp3Gtp7Wrapper.html" target="_top" xlink:title="Pgp3Gtp7Wrapper">
<polygon fill="#ffffff" stroke="#000000" points="129.5,-56.5 129.5,-75.5 233.5,-75.5 233.5,-56.5 129.5,-56.5"/>
<text text-anchor="middle" x="181.5" y="-63.5" font-family="Helvetica,sans-Serif" font-size="10.00" fill="#000000">Pgp3Gtp7Wrapper</text>
</a>
</g>
</g>
<!-- Node5&#45;&gt;Node6 -->
<g id="edge6" class="edge">
<title>Node5&#45;&gt;Node6</title>
<path fill="none" stroke="#191970" d="M181.5,-102.1575C181.5,-93.155 181.5,-82.9199 181.5,-75.6427"/>
<polygon fill="#191970" stroke="#191970" points="178.0001,-102.2455 181.5,-112.2455 185.0001,-102.2456 178.0001,-102.2455"/>
</g>
<!-- Node7 -->
<g id="node8" class="node">
<title>Node7</title>
<g id="a_node8"><a xlink:href="classPgp3Gtp7Tb.html" target="_top" xlink:title="Pgp3Gtp7Tb">
<polygon fill="#ffffff" stroke="#000000" points="143.5,-.5 143.5,-19.5 219.5,-19.5 219.5,-.5 143.5,-.5"/>
<text text-anchor="middle" x="181.5" y="-7.5" font-family="Helvetica,sans-Serif" font-size="10.00" fill="#000000">Pgp3Gtp7Tb</text>
</a>
</g>
</g>
<!-- Node6&#45;&gt;Node7 -->
<g id="edge7" class="edge">
<title>Node6&#45;&gt;Node7</title>
<path fill="none" stroke="#191970" d="M181.5,-46.1575C181.5,-37.155 181.5,-26.9199 181.5,-19.6427"/>
<polygon fill="#191970" stroke="#191970" points="178.0001,-46.2455 181.5,-56.2455 185.0001,-46.2456 178.0001,-46.2455"/>
</g>
<!-- Node9 -->
<g id="node10" class="node">
<title>Node9</title>
<g id="a_node10"><a xlink:href="classPgp3Gtx7Wrapper.html" target="_top" xlink:title="Pgp3Gtx7Wrapper">
<polygon fill="#ffffff" stroke="#000000" points="251.5,-56.5 251.5,-75.5 355.5,-75.5 355.5,-56.5 251.5,-56.5"/>
<text text-anchor="middle" x="303.5" y="-63.5" font-family="Helvetica,sans-Serif" font-size="10.00" fill="#000000">Pgp3Gtx7Wrapper</text>
</a>
</g>
</g>
<!-- Node8&#45;&gt;Node9 -->
<g id="edge9" class="edge">
<title>Node8&#45;&gt;Node9</title>
<path fill="none" stroke="#191970" d="M276.4136,-103.9209C283.1303,-94.5176 291.0717,-83.3997 296.6124,-75.6427"/>
<polygon fill="#191970" stroke="#191970" points="273.4318,-102.0738 270.4675,-112.2455 279.128,-106.1425 273.4318,-102.0738"/>
</g>
<!-- Node12&#45;&gt;Node2 -->
<g id="edge13" class="edge">
<title>Node12&#45;&gt;Node2</title>
<path fill="none" stroke="#191970" d="M274.549,-217.928C261.7893,-208.1397 245.9115,-195.9595 235.0699,-187.6427"/>
<polygon fill="#191970" stroke="#191970" points="272.7197,-220.9359 282.7844,-224.2455 276.9804,-215.3819 272.7197,-220.9359"/>
</g>
<!-- Node12&#45;&gt;Node11 -->
<g id="edge14" class="edge">
<title>Node12&#45;&gt;Node11</title>
<path fill="none" stroke="#191970" d="M296.563,-214.1575C297.0453,-205.155 297.5936,-194.9199 297.9834,-187.6427"/>
<polygon fill="#191970" stroke="#191970" points="293.0626,-214.0726 296.0226,-224.2455 300.0526,-214.4471 293.0626,-214.0726"/>
</g>
</g>
</svg>
