<?xml version="1.0" encoding="UTF-8" standalone="no"?>
<!DOCTYPE svg PUBLIC "-//W3C//DTD SVG 1.1//EN"
 "http://www.w3.org/Graphics/SVG/1.1/DTD/svg11.dtd">
<!-- Generated by graphviz version 2.43.0 (0)
 -->
<!-- Title: Pgp3GthUs Pages: 1 -->
<svg width="1434pt" height="710pt"
 viewBox="0.00 0.00 1434.00 710.05" xmlns="http://www.w3.org/2000/svg" xmlns:xlink="http://www.w3.org/1999/xlink">
<g id="graph0" class="graph" transform="scale(1 1) rotate(0) translate(4 706.05)">
<title>Pgp3GthUs</title>
<polygon fill="white" stroke="transparent" points="-4,4 -4,-706.05 1430,-706.05 1430,4 -4,4"/>
<!-- Node1 -->
<g id="node1" class="node">
<title>Node1</title>
<g id="a_node1"><a xlink:title=" ">
<polygon fill="#bfbfbf" stroke="black" points="1355,-599.5 1355,-618.5 1426,-618.5 1426,-599.5 1355,-599.5"/>
<text text-anchor="middle" x="1390.5" y="-606.5" font-family="Helvetica,sans-Serif" font-size="10.00">Pgp3GthUs</text>
</a>
</g>
</g>
<!-- Node2 -->
<g id="node2" class="node">
<title>Node2</title>
<g id="a_node2"><a xlink:href="classAxiLiteCrossbar.html" target="_top" xlink:title=" ">
<polygon fill="white" stroke="black" points="1212,-637.5 1212,-656.5 1319,-656.5 1319,-637.5 1212,-637.5"/>
<text text-anchor="middle" x="1265.5" y="-644.5" font-family="Helvetica,sans-Serif" font-size="10.00">AxiLiteCrossbar(2)</text>
</a>
</g>
</g>
<!-- Node2&#45;&gt;Node1 -->
<g id="edge1" class="edge">
<title>Node2&#45;&gt;Node1</title>
<path fill="none" stroke="midnightblue" d="M1307.54,-634.32C1324.16,-629.19 1343.03,-623.36 1358.47,-618.59"/>
<polygon fill="midnightblue" stroke="midnightblue" points="1306.06,-631.12 1297.54,-637.41 1308.13,-637.8 1306.06,-631.12"/>
</g>
<!-- Node3 -->
<g id="node3" class="node">
<title>Node3</title>
<g id="a_node3"><a xlink:href="classPgp3Core.html" target="_top" xlink:title=" ">
<polygon fill="white" stroke="black" points="1227,-440.5 1227,-459.5 1304,-459.5 1304,-440.5 1227,-440.5"/>
<text text-anchor="middle" x="1265.5" y="-447.5" font-family="Helvetica,sans-Serif" font-size="10.00">Pgp3Core(2)</text>
</a>
</g>
</g>
<!-- Node3&#45;&gt;Node1 -->
<g id="edge2" class="edge">
<title>Node3&#45;&gt;Node1</title>
<path fill="none" stroke="midnightblue" d="M1280.45,-468.04C1306.6,-501.83 1362.12,-573.6 1382.12,-599.46"/>
<polygon fill="midnightblue" stroke="midnightblue" points="1283.08,-465.71 1274.19,-459.95 1277.54,-470 1283.08,-465.71"/>
</g>
<!-- Node4 -->
<g id="node4" class="node">
<title>Node4</title>
<g id="a_node4"><a xlink:href="classPgp3Tx.html" target="_top" xlink:title=" ">
<polygon fill="white" stroke="black" points="816.5,-304.5 816.5,-323.5 869.5,-323.5 869.5,-304.5 816.5,-304.5"/>
<text text-anchor="middle" x="843" y="-311.5" font-family="Helvetica,sans-Serif" font-size="10.00">Pgp3Tx</text>
</a>
</g>
</g>
<!-- Node4&#45;&gt;Node3 -->
<g id="edge3" class="edge">
<title>Node4&#45;&gt;Node3</title>
<path fill="none" stroke="midnightblue" d="M879.45,-325.47C960.83,-351.79 1159.81,-416.14 1235.04,-440.47"/>
<polygon fill="midnightblue" stroke="midnightblue" points="880.26,-322.05 869.67,-322.3 878.11,-328.71 880.26,-322.05"/>
</g>
<!-- Node5 -->
<g id="node5" class="node">
<title>Node5</title>
<g id="a_node5"><a xlink:href="classSynchronizer.html" target="_top" xlink:title=" ">
<polygon fill="white" stroke="black" points="608,-380.5 608,-399.5 701,-399.5 701,-380.5 608,-380.5"/>
<text text-anchor="middle" x="654.5" y="-387.5" font-family="Helvetica,sans-Serif" font-size="10.00">Synchronizer(3)</text>
</a>
</g>
</g>
<!-- Node5&#45;&gt;Node4 -->
<g id="edge4" class="edge">
<title>Node5&#45;&gt;Node4</title>
<path fill="none" stroke="midnightblue" d="M693.64,-376.97C703.27,-373.53 713.56,-369.74 723,-366 757.8,-352.23 797.51,-334.45 821.12,-323.66"/>
<polygon fill="midnightblue" stroke="midnightblue" points="692.18,-373.77 683.91,-380.4 694.5,-380.37 692.18,-373.77"/>
</g>
<!-- Node6 -->
<g id="node6" class="node">
<title>Node6</title>
<g id="a_node6"><a xlink:href="classSynchronizerVector.html" target="_top" xlink:title=" ">
<polygon fill="white" stroke="black" points="599.5,-418.5 599.5,-437.5 709.5,-437.5 709.5,-418.5 599.5,-418.5"/>
<text text-anchor="middle" x="654.5" y="-425.5" font-family="Helvetica,sans-Serif" font-size="10.00">SynchronizerVector</text>
</a>
</g>
</g>
<!-- Node6&#45;&gt;Node4 -->
<g id="edge5" class="edge">
<title>Node6&#45;&gt;Node4</title>
<path fill="none" stroke="midnightblue" d="M708.81,-415.19C713.71,-413.36 718.51,-411.3 723,-409 768.87,-385.47 813.9,-342.67 832.76,-323.6"/>
<polygon fill="midnightblue" stroke="midnightblue" points="707.66,-411.88 699.33,-418.42 709.92,-418.5 707.66,-411.88"/>
</g>
<!-- Node39 -->
<g id="node39" class="node">
<title>Node39</title>
<g id="a_node39"><a xlink:href="classSyncStatusVector.html" target="_top" xlink:title=" ">
<polygon fill="white" stroke="black" points="963,-477.5 963,-496.5 1078,-496.5 1078,-477.5 963,-477.5"/>
<text text-anchor="middle" x="1020.5" y="-484.5" font-family="Helvetica,sans-Serif" font-size="10.00">SyncStatusVector(5)</text>
</a>
</g>
</g>
<!-- Node6&#45;&gt;Node39 -->
<g id="edge49" class="edge">
<title>Node6&#45;&gt;Node39</title>
<path fill="none" stroke="midnightblue" d="M719.71,-436.42C774.83,-443.9 856.32,-455.55 927,-468 942.82,-470.79 960.09,-474.23 975.37,-477.41"/>
<polygon fill="midnightblue" stroke="midnightblue" points="720.11,-432.94 709.73,-435.07 719.17,-439.88 720.11,-432.94"/>
</g>
<!-- Node7 -->
<g id="node7" class="node">
<title>Node7</title>
<g id="a_node7"><a xlink:href="classSynchronizerOneShot.html" target="_top" xlink:title=" ">
<polygon fill="white" stroke="black" points="422.5,-342.5 422.5,-361.5 543.5,-361.5 543.5,-342.5 422.5,-342.5"/>
<text text-anchor="middle" x="483" y="-349.5" font-family="Helvetica,sans-Serif" font-size="10.00">SynchronizerOneShot</text>
</a>
</g>
</g>
<!-- Node7&#45;&gt;Node4 -->
<g id="edge6" class="edge">
<title>Node7&#45;&gt;Node4</title>
<path fill="none" stroke="midnightblue" d="M553.78,-347.91C601.52,-344.76 666.2,-339.78 723,-333 755.2,-329.16 792.03,-323 816.08,-318.74"/>
<polygon fill="midnightblue" stroke="midnightblue" points="553.3,-344.43 543.55,-348.58 553.76,-351.42 553.3,-344.43"/>
</g>
<!-- Node8 -->
<g id="node8" class="node">
<title>Node8</title>
<g id="a_node8"><a xlink:href="classRstSync.html" target="_top" xlink:title=" ">
<polygon fill="white" stroke="black" points="300,-380.5 300,-399.5 356,-399.5 356,-380.5 300,-380.5"/>
<text text-anchor="middle" x="328" y="-387.5" font-family="Helvetica,sans-Serif" font-size="10.00">RstSync</text>
</a>
</g>
</g>
<!-- Node8&#45;&gt;Node7 -->
<g id="edge7" class="edge">
<title>Node8&#45;&gt;Node7</title>
<path fill="none" stroke="midnightblue" d="M365.93,-380.83C389.4,-375 419.73,-367.47 443.5,-361.56"/>
<polygon fill="midnightblue" stroke="midnightblue" points="364.86,-377.49 356,-383.29 366.55,-384.28 364.86,-377.49"/>
</g>
<!-- Node41 -->
<g id="node41" class="node">
<title>Node41</title>
<g id="a_node41"><a xlink:href="classSynchronizerOneShot.html" target="_top" xlink:title=" ">
<polygon fill="white" stroke="black" points="416,-418.5 416,-437.5 550,-437.5 550,-418.5 416,-418.5"/>
<text text-anchor="middle" x="483" y="-425.5" font-family="Helvetica,sans-Serif" font-size="10.00">SynchronizerOneShot(2)</text>
</a>
</g>
</g>
<!-- Node8&#45;&gt;Node41 -->
<g id="edge52" class="edge">
<title>Node8&#45;&gt;Node41</title>
<path fill="none" stroke="midnightblue" d="M365.93,-399.17C389.4,-405 419.73,-412.53 443.5,-418.44"/>
<polygon fill="midnightblue" stroke="midnightblue" points="366.55,-395.72 356,-396.71 364.86,-402.51 366.55,-395.72"/>
</g>
<!-- Node9 -->
<g id="node9" class="node">
<title>Node9</title>
<g id="a_node9"><a xlink:href="classSynchronizer.html" target="_top" xlink:title=" ">
<polygon fill="white" stroke="black" points="0,-513.5 0,-532.5 80,-532.5 80,-513.5 0,-513.5"/>
<text text-anchor="middle" x="40" y="-520.5" font-family="Helvetica,sans-Serif" font-size="10.00">Synchronizer</text>
</a>
</g>
</g>
<!-- Node9&#45;&gt;Node8 -->
<g id="edge8" class="edge">
<title>Node9&#45;&gt;Node8</title>
<path fill="none" stroke="midnightblue" d="M47.65,-503.53C57.81,-477.07 79.91,-430.6 116,-409 173.91,-374.34 257.21,-379.61 299.75,-385.37"/>
<polygon fill="midnightblue" stroke="midnightblue" points="44.26,-502.61 44.12,-513.2 50.83,-505 44.26,-502.61"/>
</g>
<!-- Node10 -->
<g id="node10" class="node">
<title>Node10</title>
<g id="a_node10"><a xlink:href="classSynchronizerEdge.html" target="_top" xlink:title=" ">
<polygon fill="white" stroke="black" points="276,-342.5 276,-361.5 380,-361.5 380,-342.5 276,-342.5"/>
<text text-anchor="middle" x="328" y="-349.5" font-family="Helvetica,sans-Serif" font-size="10.00">SynchronizerEdge</text>
</a>
</g>
</g>
<!-- Node9&#45;&gt;Node10 -->
<g id="edge10" class="edge">
<title>Node9&#45;&gt;Node10</title>
<path fill="none" stroke="midnightblue" d="M44.88,-503.5C52.4,-471.26 72.24,-407.39 116,-377 162.81,-344.49 229.97,-342.11 275.87,-345.34"/>
<polygon fill="midnightblue" stroke="midnightblue" points="41.41,-502.96 42.71,-513.48 48.25,-504.45 41.41,-502.96"/>
</g>
<!-- Node27 -->
<g id="node27" class="node">
<title>Node27</title>
<g id="a_node27"><a xlink:href="classRstSync.html" target="_top" xlink:title=" ">
<polygon fill="white" stroke="black" points="143.5,-646.5 143.5,-665.5 212.5,-665.5 212.5,-646.5 143.5,-646.5"/>
<text text-anchor="middle" x="178" y="-653.5" font-family="Helvetica,sans-Serif" font-size="10.00">RstSync(2)</text>
</a>
</g>
</g>
<!-- Node9&#45;&gt;Node27 -->
<g id="edge29" class="edge">
<title>Node9&#45;&gt;Node27</title>
<path fill="none" stroke="midnightblue" d="M48.51,-541.81C59.56,-567.11 82.57,-611.82 116,-637 123.97,-643.01 133.88,-647.14 143.38,-649.97"/>
<polygon fill="midnightblue" stroke="midnightblue" points="51.73,-540.42 44.63,-532.56 45.27,-543.13 51.73,-540.42"/>
</g>
<!-- Node46 -->
<g id="node46" class="node">
<title>Node46</title>
<g id="a_node46"><a xlink:href="classRstSync.html" target="_top" xlink:title=" ">
<polygon fill="white" stroke="black" points="293.5,-677.5 293.5,-696.5 362.5,-696.5 362.5,-677.5 293.5,-677.5"/>
<text text-anchor="middle" x="328" y="-684.5" font-family="Helvetica,sans-Serif" font-size="10.00">RstSync(4)</text>
</a>
</g>
</g>
<!-- Node9&#45;&gt;Node46 -->
<g id="edge62" class="edge">
<title>Node9&#45;&gt;Node46</title>
<path fill="none" stroke="midnightblue" d="M44.23,-542.65C50.91,-576.32 69.7,-644.36 116,-675 169.7,-710.54 248.94,-702.99 293.46,-694.73"/>
<polygon fill="midnightblue" stroke="midnightblue" points="47.64,-541.87 42.4,-532.66 40.75,-543.12 47.64,-541.87"/>
</g>
<!-- Node10&#45;&gt;Node7 -->
<g id="edge9" class="edge">
<title>Node10&#45;&gt;Node7</title>
<path fill="none" stroke="midnightblue" d="M390.65,-352C401.09,-352 411.91,-352 422.3,-352"/>
<polygon fill="midnightblue" stroke="midnightblue" points="390.37,-348.5 380.37,-352 390.37,-355.5 390.37,-348.5"/>
</g>
<!-- Node34 -->
<g id="node34" class="node">
<title>Node34</title>
<g id="a_node34"><a xlink:href="classPgp3RxProtocol.html" target="_top" xlink:title=" ">
<polygon fill="white" stroke="black" points="436.5,-76.5 436.5,-95.5 529.5,-95.5 529.5,-76.5 436.5,-76.5"/>
<text text-anchor="middle" x="483" y="-83.5" font-family="Helvetica,sans-Serif" font-size="10.00">Pgp3RxProtocol</text>
</a>
</g>
</g>
<!-- Node10&#45;&gt;Node34 -->
<g id="edge37" class="edge">
<title>Node10&#45;&gt;Node34</title>
<path fill="none" stroke="midnightblue" d="M335.61,-332.48C355.16,-274.83 411.63,-109.12 416,-105 421.72,-99.6 428.88,-95.72 436.36,-92.94"/>
<polygon fill="midnightblue" stroke="midnightblue" points="332.21,-331.61 332.31,-342.2 338.84,-333.86 332.21,-331.61"/>
</g>
<!-- Node10&#45;&gt;Node41 -->
<g id="edge53" class="edge">
<title>Node10&#45;&gt;Node41</title>
<path fill="none" stroke="midnightblue" d="M366.47,-365.21C371.07,-367.05 375.67,-369 380,-371 411.67,-385.64 446.83,-406.34 466.49,-418.35"/>
<polygon fill="midnightblue" stroke="midnightblue" points="367.7,-361.93 357.11,-361.6 365.18,-368.46 367.7,-361.93"/>
</g>
<!-- Node11 -->
<g id="node11" class="node">
<title>Node11</title>
<g id="a_node11"><a xlink:href="classAxiStreamMux.html" target="_top" xlink:title=" ">
<polygon fill="white" stroke="black" points="610,-114.5 610,-133.5 699,-133.5 699,-114.5 610,-114.5"/>
<text text-anchor="middle" x="654.5" y="-121.5" font-family="Helvetica,sans-Serif" font-size="10.00">AxiStreamMux</text>
</a>
</g>
</g>
<!-- Node11&#45;&gt;Node4 -->
<g id="edge11" class="edge">
<title>Node11&#45;&gt;Node4</title>
<path fill="none" stroke="midnightblue" d="M708.98,-135.23C713.94,-137.38 718.71,-139.95 723,-143 754.82,-165.65 817.66,-271.82 836.52,-304.44"/>
<polygon fill="midnightblue" stroke="midnightblue" points="709.86,-131.82 699.27,-131.57 707.4,-138.37 709.86,-131.82"/>
</g>
<!-- Node12 -->
<g id="node12" class="node">
<title>Node12</title>
<g id="a_node12"><a xlink:href="classAxiStreamPipeline.html" target="_top" xlink:title=" ">
<polygon fill="white" stroke="black" points="429.5,-114.5 429.5,-133.5 536.5,-133.5 536.5,-114.5 429.5,-114.5"/>
<text text-anchor="middle" x="483" y="-121.5" font-family="Helvetica,sans-Serif" font-size="10.00">AxiStreamPipeline</text>
</a>
</g>
</g>
<!-- Node12&#45;&gt;Node11 -->
<g id="edge12" class="edge">
<title>Node12&#45;&gt;Node11</title>
<path fill="none" stroke="midnightblue" d="M546.83,-124C567.82,-124 590.74,-124 609.94,-124"/>
<polygon fill="midnightblue" stroke="midnightblue" points="546.7,-120.5 536.7,-124 546.7,-127.5 546.7,-120.5"/>
</g>
<!-- Node36 -->
<g id="node36" class="node">
<title>Node36</title>
<g id="a_node36"><a xlink:href="classAxiStreamDeMux.html" target="_top" xlink:title=" ">
<polygon fill="white" stroke="black" points="603.5,-0.5 603.5,-19.5 705.5,-19.5 705.5,-0.5 603.5,-0.5"/>
<text text-anchor="middle" x="654.5" y="-7.5" font-family="Helvetica,sans-Serif" font-size="10.00">AxiStreamDeMux</text>
</a>
</g>
</g>
<!-- Node12&#45;&gt;Node36 -->
<g id="edge44" class="edge">
<title>Node12&#45;&gt;Node36</title>
<path fill="none" stroke="midnightblue" d="M543.65,-109.63C545.88,-108.23 548.01,-106.69 550,-105 578.48,-80.8 557.45,-53.12 586,-29 591.12,-24.68 597.15,-21.34 603.47,-18.76"/>
<polygon fill="midnightblue" stroke="midnightblue" points="541.82,-106.64 534.61,-114.39 545.08,-112.83 541.82,-106.64"/>
</g>
<!-- Node13 -->
<g id="node13" class="node">
<title>Node13</title>
<g id="a_node13"><a xlink:href="classAxiStreamPacketizer2.html" target="_top" xlink:title=" ">
<polygon fill="white" stroke="black" points="593,-266.5 593,-285.5 716,-285.5 716,-266.5 593,-266.5"/>
<text text-anchor="middle" x="654.5" y="-273.5" font-family="Helvetica,sans-Serif" font-size="10.00">AxiStreamPacketizer2</text>
</a>
</g>
</g>
<!-- Node13&#45;&gt;Node4 -->
<g id="edge13" class="edge">
<title>Node13&#45;&gt;Node4</title>
<path fill="none" stroke="midnightblue" d="M712.58,-287.63C747.28,-294.7 789.88,-303.38 816.49,-308.8"/>
<polygon fill="midnightblue" stroke="midnightblue" points="713.06,-284.16 702.56,-285.59 711.66,-291.02 713.06,-284.16"/>
</g>
<!-- Node14 -->
<g id="node14" class="node">
<title>Node14</title>
<g id="a_node14"><a xlink:href="classAxiStreamPipeline.html" target="_top" xlink:title=" ">
<polygon fill="white" stroke="black" points="423,-228.5 423,-247.5 543,-247.5 543,-228.5 423,-228.5"/>
<text text-anchor="middle" x="483" y="-235.5" font-family="Helvetica,sans-Serif" font-size="10.00">AxiStreamPipeline(2)</text>
</a>
</g>
</g>
<!-- Node14&#45;&gt;Node13 -->
<g id="edge14" class="edge">
<title>Node14&#45;&gt;Node13</title>
<path fill="none" stroke="midnightblue" d="M536.74,-249.82C560.64,-255.18 588.52,-261.43 611.04,-266.48"/>
<polygon fill="midnightblue" stroke="midnightblue" points="537.3,-246.36 526.77,-247.59 535.76,-253.19 537.3,-246.36"/>
</g>
<!-- Node35 -->
<g id="node35" class="node">
<title>Node35</title>
<g id="a_node35"><a xlink:href="classAxiStreamDepacketizer2.html" target="_top" xlink:title=" ">
<polygon fill="white" stroke="black" points="586,-152.5 586,-171.5 723,-171.5 723,-152.5 586,-152.5"/>
<text text-anchor="middle" x="654.5" y="-159.5" font-family="Helvetica,sans-Serif" font-size="10.00">AxiStreamDepacketizer2</text>
</a>
</g>
</g>
<!-- Node14&#45;&gt;Node35 -->
<g id="edge39" class="edge">
<title>Node14&#45;&gt;Node35</title>
<path fill="none" stroke="midnightblue" d="M538.71,-224.8C542.64,-223.09 546.45,-221.16 550,-219 569.88,-206.91 566.09,-193.03 586,-181 592.36,-177.16 599.52,-174.07 606.74,-171.59"/>
<polygon fill="midnightblue" stroke="midnightblue" points="537.43,-221.54 529.38,-228.42 539.97,-228.06 537.43,-221.54"/>
</g>
<!-- Node15 -->
<g id="node15" class="node">
<title>Node15</title>
<g id="a_node15"><a xlink:href="classDualPortRam.html" target="_top" xlink:title=" ">
<polygon fill="white" stroke="black" points="442.5,-152.5 442.5,-171.5 523.5,-171.5 523.5,-152.5 442.5,-152.5"/>
<text text-anchor="middle" x="483" y="-159.5" font-family="Helvetica,sans-Serif" font-size="10.00">DualPortRam</text>
</a>
</g>
</g>
<!-- Node15&#45;&gt;Node13 -->
<g id="edge15" class="edge">
<title>Node15&#45;&gt;Node13</title>
<path fill="none" stroke="midnightblue" d="M533.33,-171.06C539.36,-173.6 545.11,-176.85 550,-181 578.48,-205.2 557.45,-232.88 586,-257 590.56,-260.85 595.84,-263.92 601.41,-266.37"/>
<polygon fill="midnightblue" stroke="midnightblue" points="534.29,-167.69 523.7,-167.63 531.94,-174.28 534.29,-167.69"/>
</g>
<!-- Node15&#45;&gt;Node35 -->
<g id="edge40" class="edge">
<title>Node15&#45;&gt;Node35</title>
<path fill="none" stroke="midnightblue" d="M534.07,-162C550.28,-162 568.54,-162 585.81,-162"/>
<polygon fill="midnightblue" stroke="midnightblue" points="533.74,-158.5 523.74,-162 533.74,-165.5 533.74,-158.5"/>
</g>
<!-- Node16 -->
<g id="node16" class="node">
<title>Node16</title>
<g id="a_node16"><a xlink:href="classTrueDualPortRam.html" target="_top" xlink:title=" ">
<polygon fill="white" stroke="black" points="277.5,-171.5 277.5,-190.5 378.5,-190.5 378.5,-171.5 277.5,-171.5"/>
<text text-anchor="middle" x="328" y="-178.5" font-family="Helvetica,sans-Serif" font-size="10.00">TrueDualPortRam</text>
</a>
</g>
</g>
<!-- Node16&#45;&gt;Node15 -->
<g id="edge16" class="edge">
<title>Node16&#45;&gt;Node15</title>
<path fill="none" stroke="midnightblue" d="M388.77,-173.58C406.71,-171.35 425.94,-168.96 442.25,-166.94"/>
<polygon fill="midnightblue" stroke="midnightblue" points="388.17,-170.13 378.67,-174.83 389.03,-177.07 388.17,-170.13"/>
</g>
<!-- Node17 -->
<g id="node17" class="node">
<title>Node17</title>
<g id="a_node17"><a xlink:href="classQuadPortRam.html" target="_top" xlink:title=" ">
<polygon fill="white" stroke="black" points="286,-133.5 286,-152.5 370,-152.5 370,-133.5 286,-133.5"/>
<text text-anchor="middle" x="328" y="-140.5" font-family="Helvetica,sans-Serif" font-size="10.00">QuadPortRam</text>
</a>
</g>
</g>
<!-- Node17&#45;&gt;Node15 -->
<g id="edge17" class="edge">
<title>Node17&#45;&gt;Node15</title>
<path fill="none" stroke="midnightblue" d="M380.05,-149.34C400.39,-151.87 423.44,-154.73 442.47,-157.09"/>
<polygon fill="midnightblue" stroke="midnightblue" points="380.36,-145.85 370,-148.09 379.49,-152.8 380.36,-145.85"/>
</g>
<!-- Node18 -->
<g id="node18" class="node">
<title>Node18</title>
<g id="a_node18"><a xlink:href="classCrc32Parallel.html" target="_top" xlink:title=" ">
<polygon fill="white" stroke="black" points="443,-190.5 443,-209.5 523,-209.5 523,-190.5 443,-190.5"/>
<text text-anchor="middle" x="483" y="-197.5" font-family="Helvetica,sans-Serif" font-size="10.00">Crc32Parallel</text>
</a>
</g>
</g>
<!-- Node18&#45;&gt;Node13 -->
<g id="edge18" class="edge">
<title>Node18&#45;&gt;Node13</title>
<path fill="none" stroke="midnightblue" d="M532.67,-210.76C538.72,-213.03 544.65,-215.75 550,-219 569.88,-231.09 566.09,-244.97 586,-257 592.36,-260.84 599.52,-263.93 606.74,-266.41"/>
<polygon fill="midnightblue" stroke="midnightblue" points="533.73,-207.43 523.14,-207.57 531.5,-214.06 533.73,-207.43"/>
</g>
<!-- Node18&#45;&gt;Node35 -->
<g id="edge41" class="edge">
<title>Node18&#45;&gt;Node35</title>
<path fill="none" stroke="midnightblue" d="M533.17,-188.98C557.75,-183.47 587.22,-176.86 610.84,-171.56"/>
<polygon fill="midnightblue" stroke="midnightblue" points="532.3,-185.58 523.31,-191.19 533.84,-192.41 532.3,-185.58"/>
</g>
<!-- Node19 -->
<g id="node19" class="node">
<title>Node19</title>
<g id="a_node19"><a xlink:href="classCrc32.html" target="_top" xlink:title=" ">
<polygon fill="white" stroke="black" points="461,-266.5 461,-285.5 505,-285.5 505,-266.5 461,-266.5"/>
<text text-anchor="middle" x="483" y="-273.5" font-family="Helvetica,sans-Serif" font-size="10.00">Crc32</text>
</a>
</g>
</g>
<!-- Node19&#45;&gt;Node13 -->
<g id="edge19" class="edge">
<title>Node19&#45;&gt;Node13</title>
<path fill="none" stroke="midnightblue" d="M515.37,-276C537.01,-276 566.48,-276 592.65,-276"/>
<polygon fill="midnightblue" stroke="midnightblue" points="515.12,-272.5 505.12,-276 515.12,-279.5 515.12,-272.5"/>
</g>
<!-- Node19&#45;&gt;Node35 -->
<g id="edge42" class="edge">
<title>Node19&#45;&gt;Node35</title>
<path fill="none" stroke="midnightblue" d="M515.26,-272.56C527.22,-269.91 540.3,-265.24 550,-257 578.48,-232.8 557.45,-205.12 586,-181 590.56,-177.15 595.84,-174.08 601.41,-171.63"/>
<polygon fill="midnightblue" stroke="midnightblue" points="514.36,-269.17 505.15,-274.4 515.61,-276.05 514.36,-269.17"/>
</g>
<!-- Node20 -->
<g id="node20" class="node">
<title>Node20</title>
<g id="a_node20"><a xlink:href="classPgp3TxProtocol.html" target="_top" xlink:title=" ">
<polygon fill="white" stroke="black" points="608.5,-228.5 608.5,-247.5 700.5,-247.5 700.5,-228.5 608.5,-228.5"/>
<text text-anchor="middle" x="654.5" y="-235.5" font-family="Helvetica,sans-Serif" font-size="10.00">Pgp3TxProtocol</text>
</a>
</g>
</g>
<!-- Node20&#45;&gt;Node4 -->
<g id="edge20" class="edge">
<title>Node20&#45;&gt;Node4</title>
<path fill="none" stroke="midnightblue" d="M703.37,-250.37C710.02,-252.41 716.72,-254.63 723,-257 760.08,-270.98 801.39,-292.1 824.28,-304.32"/>
<polygon fill="midnightblue" stroke="midnightblue" points="704.3,-246.99 693.71,-247.52 702.32,-253.7 704.3,-246.99"/>
</g>
<!-- Node21 -->
<g id="node21" class="node">
<title>Node21</title>
<g id="a_node21"><a xlink:href="classScrambler.html" target="_top" xlink:title=" ">
<polygon fill="white" stroke="black" points="621.5,-190.5 621.5,-209.5 687.5,-209.5 687.5,-190.5 621.5,-190.5"/>
<text text-anchor="middle" x="654.5" y="-197.5" font-family="Helvetica,sans-Serif" font-size="10.00">Scrambler</text>
</a>
</g>
</g>
<!-- Node21&#45;&gt;Node4 -->
<g id="edge21" class="edge">
<title>Node21&#45;&gt;Node4</title>
<path fill="none" stroke="midnightblue" d="M697.41,-208.99C706.11,-211.62 715.05,-214.92 723,-219 768.87,-242.53 813.9,-285.33 832.76,-304.4"/>
<polygon fill="midnightblue" stroke="midnightblue" points="698.31,-205.6 687.74,-206.29 696.43,-212.35 698.31,-205.6"/>
</g>
<!-- Node22 -->
<g id="node22" class="node">
<title>Node22</title>
<g id="a_node22"><a xlink:href="classPgp3Rx.html" target="_top" xlink:title=" ">
<polygon fill="white" stroke="black" points="816.5,-152.5 816.5,-171.5 869.5,-171.5 869.5,-152.5 816.5,-152.5"/>
<text text-anchor="middle" x="843" y="-159.5" font-family="Helvetica,sans-Serif" font-size="10.00">Pgp3Rx</text>
</a>
</g>
</g>
<!-- Node21&#45;&gt;Node22 -->
<g id="edge24" class="edge">
<title>Node21&#45;&gt;Node22</title>
<path fill="none" stroke="midnightblue" d="M697.42,-191.46C733.93,-184.02 785.68,-173.48 816.35,-167.23"/>
<polygon fill="midnightblue" stroke="midnightblue" points="696.66,-188.04 687.56,-193.47 698.06,-194.9 696.66,-188.04"/>
</g>
<!-- Node22&#45;&gt;Node3 -->
<g id="edge22" class="edge">
<title>Node22&#45;&gt;Node3</title>
<path fill="none" stroke="midnightblue" d="M866.38,-177.33C942.33,-229.34 1188.87,-398.2 1250.46,-440.38"/>
<polygon fill="midnightblue" stroke="midnightblue" points="868.22,-174.35 857.99,-171.58 864.26,-180.12 868.22,-174.35"/>
</g>
<!-- Node23 -->
<g id="node23" class="node">
<title>Node23</title>
<g id="a_node23"><a xlink:href="classPgp3RxGearboxAligner.html" target="_top" xlink:title=" ">
<polygon fill="white" stroke="black" points="590,-38.5 590,-57.5 719,-57.5 719,-38.5 590,-38.5"/>
<text text-anchor="middle" x="654.5" y="-45.5" font-family="Helvetica,sans-Serif" font-size="10.00">Pgp3RxGearboxAligner</text>
</a>
</g>
</g>
<!-- Node23&#45;&gt;Node22 -->
<g id="edge23" class="edge">
<title>Node23&#45;&gt;Node22</title>
<path fill="none" stroke="midnightblue" d="M698.33,-60.99C706.71,-64.15 715.29,-67.84 723,-72 766.77,-95.61 811.82,-134.43 831.61,-152.36"/>
<polygon fill="midnightblue" stroke="midnightblue" points="699.23,-57.6 688.64,-57.53 696.88,-64.19 699.23,-57.6"/>
</g>
<!-- Node24 -->
<g id="node24" class="node">
<title>Node24</title>
<g id="a_node24"><a xlink:href="classPgp3RxEb.html" target="_top" xlink:title=" ">
<polygon fill="white" stroke="black" points="622,-304.5 622,-323.5 687,-323.5 687,-304.5 622,-304.5"/>
<text text-anchor="middle" x="654.5" y="-311.5" font-family="Helvetica,sans-Serif" font-size="10.00">Pgp3RxEb</text>
</a>
</g>
</g>
<!-- Node24&#45;&gt;Node22 -->
<g id="edge25" class="edge">
<title>Node24&#45;&gt;Node22</title>
<path fill="none" stroke="midnightblue" d="M697.2,-306.24C706.12,-303.52 715.19,-299.87 723,-295 776.89,-261.39 820.78,-196.32 836.13,-171.73"/>
<polygon fill="midnightblue" stroke="midnightblue" points="696,-302.94 687.27,-308.95 697.84,-309.7 696,-302.94"/>
</g>
<!-- Node25 -->
<g id="node25" class="node">
<title>Node25</title>
<g id="a_node25"><a xlink:href="classSynchronizerFifo.html" target="_top" xlink:title=" ">
<polygon fill="white" stroke="black" points="434,-494.5 434,-513.5 532,-513.5 532,-494.5 434,-494.5"/>
<text text-anchor="middle" x="483" y="-501.5" font-family="Helvetica,sans-Serif" font-size="10.00">SynchronizerFifo</text>
</a>
</g>
</g>
<!-- Node25&#45;&gt;Node24 -->
<g id="edge26" class="edge">
<title>Node25&#45;&gt;Node24</title>
<path fill="none" stroke="midnightblue" d="M506.26,-488.54C520.17,-478.04 537.7,-463.16 550,-447 572.63,-417.26 563.2,-400.62 586,-371 601.06,-351.43 623.88,-333.93 638.73,-323.64"/>
<polygon fill="midnightblue" stroke="midnightblue" points="504.15,-485.75 498.15,-494.48 508.29,-491.39 504.15,-485.75"/>
</g>
<!-- Node42 -->
<g id="node42" class="node">
<title>Node42</title>
<g id="a_node42"><a xlink:href="classSynchronizerOneShotCnt.html" target="_top" xlink:title=" ">
<polygon fill="white" stroke="black" points="586,-494.5 586,-513.5 723,-513.5 723,-494.5 586,-494.5"/>
<text text-anchor="middle" x="654.5" y="-501.5" font-family="Helvetica,sans-Serif" font-size="10.00">SynchronizerOneShotCnt</text>
</a>
</g>
</g>
<!-- Node25&#45;&gt;Node42 -->
<g id="edge56" class="edge">
<title>Node25&#45;&gt;Node42</title>
<path fill="none" stroke="midnightblue" d="M542.17,-504C556.27,-504 571.47,-504 585.96,-504"/>
<polygon fill="midnightblue" stroke="midnightblue" points="542.12,-500.5 532.12,-504 542.12,-507.5 542.12,-500.5"/>
</g>
<!-- Node26 -->
<g id="node26" class="node">
<title>Node26</title>
<g id="a_node26"><a xlink:href="classFifoAsync.html" target="_top" xlink:title=" ">
<polygon fill="white" stroke="black" points="296,-532.5 296,-551.5 360,-551.5 360,-532.5 296,-532.5"/>
<text text-anchor="middle" x="328" y="-539.5" font-family="Helvetica,sans-Serif" font-size="10.00">FifoAsync</text>
</a>
</g>
</g>
<!-- Node26&#45;&gt;Node25 -->
<g id="edge27" class="edge">
<title>Node26&#45;&gt;Node25</title>
<path fill="none" stroke="midnightblue" d="M370.09,-531.79C392.96,-526.11 421.25,-519.09 443.66,-513.52"/>
<polygon fill="midnightblue" stroke="midnightblue" points="369.19,-528.41 360.33,-534.22 370.88,-535.2 369.19,-528.41"/>
</g>
<!-- Node38 -->
<g id="node38" class="node">
<title>Node38</title>
<g id="a_node38"><a xlink:href="classSynchronizerFifo.html" target="_top" xlink:title=" ">
<polygon fill="white" stroke="black" points="965,-560.5 965,-579.5 1076,-579.5 1076,-560.5 965,-560.5"/>
<text text-anchor="middle" x="1020.5" y="-567.5" font-family="Helvetica,sans-Serif" font-size="10.00">SynchronizerFifo(6)</text>
</a>
</g>
</g>
<!-- Node26&#45;&gt;Node38 -->
<g id="edge47" class="edge">
<title>Node26&#45;&gt;Node38</title>
<path fill="none" stroke="midnightblue" d="M370.24,-552.78C384.61,-556.06 400.92,-559.26 416,-561 617.16,-584.23 858.52,-577.52 964.76,-572.83"/>
<polygon fill="midnightblue" stroke="midnightblue" points="370.69,-549.29 360.16,-550.39 369.08,-556.1 370.69,-549.29"/>
</g>
<!-- Node44 -->
<g id="node44" class="node">
<title>Node44</title>
<g id="a_node44"><a xlink:href="classSynchronizerFifo.html" target="_top" xlink:title=" ">
<polygon fill="white" stroke="black" points="427.5,-532.5 427.5,-551.5 538.5,-551.5 538.5,-532.5 427.5,-532.5"/>
<text text-anchor="middle" x="483" y="-539.5" font-family="Helvetica,sans-Serif" font-size="10.00">SynchronizerFifo(2)</text>
</a>
</g>
</g>
<!-- Node26&#45;&gt;Node44 -->
<g id="edge59" class="edge">
<title>Node26&#45;&gt;Node44</title>
<path fill="none" stroke="midnightblue" d="M370.78,-542C388.27,-542 408.83,-542 427.49,-542"/>
<polygon fill="midnightblue" stroke="midnightblue" points="370.33,-538.5 360.33,-542 370.33,-545.5 370.33,-538.5"/>
</g>
<!-- Node27&#45;&gt;Node26 -->
<g id="edge28" class="edge">
<title>Node27&#45;&gt;Node26</title>
<path fill="none" stroke="midnightblue" d="M222.11,-647.55C228.59,-644.93 234.82,-641.5 240,-637 268.22,-612.49 248.46,-586.27 276,-561 281.64,-555.83 288.82,-552.02 295.99,-549.24"/>
<polygon fill="midnightblue" stroke="midnightblue" points="220.86,-644.28 212.54,-650.84 223.14,-650.9 220.86,-644.28"/>
</g>
<!-- Node48 -->
<g id="node48" class="node">
<title>Node48</title>
<g id="a_node48"><a xlink:href="classAxiLiteAsync.html" target="_top" xlink:title=" ">
<polygon fill="white" stroke="black" points="443,-618.5 443,-637.5 523,-637.5 523,-618.5 443,-618.5"/>
<text text-anchor="middle" x="483" y="-625.5" font-family="Helvetica,sans-Serif" font-size="10.00">AxiLiteAsync</text>
</a>
</g>
</g>
<!-- Node27&#45;&gt;Node48 -->
<g id="edge65" class="edge">
<title>Node27&#45;&gt;Node48</title>
<path fill="none" stroke="midnightblue" d="M222.7,-651.96C281.66,-646.51 385.82,-636.89 442.53,-631.65"/>
<polygon fill="midnightblue" stroke="midnightblue" points="222.22,-648.49 212.58,-652.9 222.86,-655.46 222.22,-648.49"/>
</g>
<!-- Node49 -->
<g id="node49" class="node">
<title>Node49</title>
<g id="a_node49"><a xlink:href="classFifoAsync.html" target="_top" xlink:title=" ">
<polygon fill="white" stroke="black" points="289.5,-570.5 289.5,-589.5 366.5,-589.5 366.5,-570.5 289.5,-570.5"/>
<text text-anchor="middle" x="328" y="-577.5" font-family="Helvetica,sans-Serif" font-size="10.00">FifoAsync(5)</text>
</a>
</g>
</g>
<!-- Node27&#45;&gt;Node49 -->
<g id="edge67" class="edge">
<title>Node27&#45;&gt;Node49</title>
<path fill="none" stroke="midnightblue" d="M222.09,-644.23C228.21,-642.09 234.34,-639.67 240,-637 268.41,-623.59 298.39,-602.08 314.69,-589.67"/>
<polygon fill="midnightblue" stroke="midnightblue" points="220.96,-640.92 212.56,-647.38 223.15,-647.57 220.96,-640.92"/>
</g>
<!-- Node28 -->
<g id="node28" class="node">
<title>Node28</title>
<g id="a_node28"><a xlink:href="classSynchronizerVector.html" target="_top" xlink:title=" ">
<polygon fill="white" stroke="black" points="116,-532.5 116,-551.5 240,-551.5 240,-532.5 116,-532.5"/>
<text text-anchor="middle" x="178" y="-539.5" font-family="Helvetica,sans-Serif" font-size="10.00">SynchronizerVector(2)</text>
</a>
</g>
</g>
<!-- Node28&#45;&gt;Node26 -->
<g id="edge30" class="edge">
<title>Node28&#45;&gt;Node26</title>
<path fill="none" stroke="midnightblue" d="M250.44,-542C266.32,-542 282.37,-542 295.64,-542"/>
<polygon fill="midnightblue" stroke="midnightblue" points="250.05,-538.5 240.05,-542 250.05,-545.5 250.05,-538.5"/>
</g>
<!-- Node28&#45;&gt;Node49 -->
<g id="edge68" class="edge">
<title>Node28&#45;&gt;Node49</title>
<path fill="none" stroke="midnightblue" d="M226.17,-554.11C246.79,-559.4 270.61,-565.52 289.92,-570.48"/>
<polygon fill="midnightblue" stroke="midnightblue" points="226.9,-550.69 216.35,-551.59 225.16,-557.47 226.9,-550.69"/>
</g>
<!-- Node29 -->
<g id="node29" class="node">
<title>Node29</title>
<g id="a_node29"><a xlink:href="classSynchronizer.html" target="_top" xlink:title=" ">
<polygon fill="white" stroke="black" points="131.5,-494.5 131.5,-513.5 224.5,-513.5 224.5,-494.5 131.5,-494.5"/>
<text text-anchor="middle" x="178" y="-501.5" font-family="Helvetica,sans-Serif" font-size="10.00">Synchronizer(2)</text>
</a>
</g>
</g>
<!-- Node29&#45;&gt;Node26 -->
<g id="edge31" class="edge">
<title>Node29&#45;&gt;Node26</title>
<path fill="none" stroke="midnightblue" d="M226.14,-516.1C248.86,-521.94 275.48,-528.77 295.67,-533.96"/>
<polygon fill="midnightblue" stroke="midnightblue" points="226.9,-512.69 216.35,-513.59 225.16,-519.47 226.9,-512.69"/>
</g>
<!-- Node29&#45;&gt;Node49 -->
<g id="edge69" class="edge">
<title>Node29&#45;&gt;Node49</title>
<path fill="none" stroke="midnightblue" d="M229.35,-517.36C233.06,-519.04 236.65,-520.92 240,-523 259.75,-535.3 256.6,-548.16 276,-561 281.67,-564.75 288.19,-567.9 294.63,-570.48"/>
<polygon fill="midnightblue" stroke="midnightblue" points="230.56,-514.08 219.98,-513.58 227.94,-520.57 230.56,-514.08"/>
</g>
<!-- Node30 -->
<g id="node30" class="node">
<title>Node30</title>
<g id="a_node30"><a xlink:href="classFifoWrFsm.html" target="_top" xlink:title=" ">
<polygon fill="white" stroke="black" points="143.5,-456.5 143.5,-475.5 212.5,-475.5 212.5,-456.5 143.5,-456.5"/>
<text text-anchor="middle" x="178" y="-463.5" font-family="Helvetica,sans-Serif" font-size="10.00">FifoWrFsm</text>
</a>
</g>
</g>
<!-- Node30&#45;&gt;Node26 -->
<g id="edge32" class="edge">
<title>Node30&#45;&gt;Node26</title>
<path fill="none" stroke="midnightblue" d="M222.09,-477.77C228.21,-479.91 234.34,-482.33 240,-485 268.41,-498.41 298.39,-519.92 314.69,-532.33"/>
<polygon fill="midnightblue" stroke="midnightblue" points="223.15,-474.43 212.56,-474.62 220.96,-481.08 223.15,-474.43"/>
</g>
<!-- Node30&#45;&gt;Node49 -->
<g id="edge70" class="edge">
<title>Node30&#45;&gt;Node49</title>
<path fill="none" stroke="midnightblue" d="M222.11,-474.45C228.59,-477.07 234.82,-480.5 240,-485 268.22,-509.51 248.46,-535.73 276,-561 280.18,-564.83 285.2,-567.91 290.44,-570.38"/>
<polygon fill="midnightblue" stroke="midnightblue" points="223.14,-471.1 212.54,-471.16 220.86,-477.72 223.14,-471.1"/>
</g>
<!-- Node31 -->
<g id="node31" class="node">
<title>Node31</title>
<g id="a_node31"><a xlink:href="classFifoRdFsm.html" target="_top" xlink:title=" ">
<polygon fill="white" stroke="black" points="144,-418.5 144,-437.5 212,-437.5 212,-418.5 144,-418.5"/>
<text text-anchor="middle" x="178" y="-425.5" font-family="Helvetica,sans-Serif" font-size="10.00">FifoRdFsm</text>
</a>
</g>
</g>
<!-- Node31&#45;&gt;Node26 -->
<g id="edge33" class="edge">
<title>Node31&#45;&gt;Node26</title>
<path fill="none" stroke="midnightblue" d="M221.94,-438.2C228.24,-440.59 234.47,-443.49 240,-447 276.82,-470.37 308.02,-513.26 320.81,-532.37"/>
<polygon fill="midnightblue" stroke="midnightblue" points="222.65,-434.74 212.05,-434.86 220.4,-441.38 222.65,-434.74"/>
</g>
<!-- Node31&#45;&gt;Node49 -->
<g id="edge71" class="edge">
<title>Node31&#45;&gt;Node49</title>
<path fill="none" stroke="midnightblue" d="M222.04,-435.6C228.68,-438.32 234.98,-442 240,-447 277.64,-484.5 239.39,-522.49 276,-561 279.78,-564.97 284.46,-568.12 289.44,-570.61"/>
<polygon fill="midnightblue" stroke="midnightblue" points="222.77,-432.15 212.17,-432.27 220.53,-438.78 222.77,-432.15"/>
</g>
<!-- Node32 -->
<g id="node32" class="node">
<title>Node32</title>
<g id="a_node32"><a xlink:href="classSimpleDualPortRam.html" target="_top" xlink:title=" ">
<polygon fill="white" stroke="black" points="120.5,-608.5 120.5,-627.5 235.5,-627.5 235.5,-608.5 120.5,-608.5"/>
<text text-anchor="middle" x="178" y="-615.5" font-family="Helvetica,sans-Serif" font-size="10.00">SimpleDualPortRam</text>
</a>
</g>
</g>
<!-- Node32&#45;&gt;Node26 -->
<g id="edge34" class="edge">
<title>Node32&#45;&gt;Node26</title>
<path fill="none" stroke="midnightblue" d="M229.35,-604.64C233.06,-602.96 236.65,-601.08 240,-599 259.75,-586.7 256.6,-573.84 276,-561 282.07,-556.99 289.1,-553.67 295.97,-550.99"/>
<polygon fill="midnightblue" stroke="midnightblue" points="227.94,-601.43 219.98,-608.42 230.56,-607.92 227.94,-601.43"/>
</g>
<!-- Node32&#45;&gt;Node49 -->
<g id="edge72" class="edge">
<title>Node32&#45;&gt;Node49</title>
<path fill="none" stroke="midnightblue" d="M226.17,-605.89C246.79,-600.6 270.61,-594.48 289.92,-589.52"/>
<polygon fill="midnightblue" stroke="midnightblue" points="225.16,-602.53 216.35,-608.41 226.9,-609.31 225.16,-602.53"/>
</g>
<!-- Node33 -->
<g id="node33" class="node">
<title>Node33</title>
<g id="a_node33"><a xlink:href="classFifoOutputPipeline.html" target="_top" xlink:title=" ">
<polygon fill="white" stroke="black" points="124.5,-570.5 124.5,-589.5 231.5,-589.5 231.5,-570.5 124.5,-570.5"/>
<text text-anchor="middle" x="178" y="-577.5" font-family="Helvetica,sans-Serif" font-size="10.00">FifoOutputPipeline</text>
</a>
</g>
</g>
<!-- Node33&#45;&gt;Node26 -->
<g id="edge35" class="edge">
<title>Node33&#45;&gt;Node26</title>
<path fill="none" stroke="midnightblue" d="M226.14,-567.9C248.86,-562.06 275.48,-555.23 295.67,-550.04"/>
<polygon fill="midnightblue" stroke="midnightblue" points="225.16,-564.53 216.35,-570.41 226.9,-571.31 225.16,-564.53"/>
</g>
<!-- Node33&#45;&gt;Node49 -->
<g id="edge73" class="edge">
<title>Node33&#45;&gt;Node49</title>
<path fill="none" stroke="midnightblue" d="M241.6,-580C257.88,-580 274.91,-580 289.45,-580"/>
<polygon fill="midnightblue" stroke="midnightblue" points="241.6,-576.5 231.6,-580 241.6,-583.5 241.6,-576.5"/>
</g>
<!-- Node34&#45;&gt;Node22 -->
<g id="edge36" class="edge">
<title>Node34&#45;&gt;Node22</title>
<path fill="none" stroke="midnightblue" d="M539.87,-84.71C588.94,-84.93 661.84,-88.53 723,-105 762.37,-115.6 804.52,-139.02 826.56,-152.3"/>
<polygon fill="midnightblue" stroke="midnightblue" points="539.77,-81.21 529.77,-84.72 539.77,-88.21 539.77,-81.21"/>
</g>
<!-- Node35&#45;&gt;Node22 -->
<g id="edge38" class="edge">
<title>Node35&#45;&gt;Node22</title>
<path fill="none" stroke="midnightblue" d="M733.45,-162C763.02,-162 794.71,-162 816.17,-162"/>
<polygon fill="midnightblue" stroke="midnightblue" points="733.09,-158.5 723.09,-162 733.09,-165.5 733.09,-158.5"/>
</g>
<!-- Node36&#45;&gt;Node22 -->
<g id="edge43" class="edge">
<title>Node36&#45;&gt;Node22</title>
<path fill="none" stroke="midnightblue" d="M712.23,-23.32C715.98,-25 719.61,-26.89 723,-29 776.89,-62.61 820.78,-127.68 836.13,-152.27"/>
<polygon fill="midnightblue" stroke="midnightblue" points="713.3,-19.98 702.72,-19.56 710.73,-26.49 713.3,-19.98"/>
</g>
<!-- Node37 -->
<g id="node37" class="node">
<title>Node37</title>
<g id="a_node37"><a xlink:href="classPgp3AxiL.html" target="_top" xlink:title=" ">
<polygon fill="white" stroke="black" points="1114,-501.5 1114,-520.5 1176,-520.5 1176,-501.5 1114,-501.5"/>
<text text-anchor="middle" x="1145" y="-508.5" font-family="Helvetica,sans-Serif" font-size="10.00">Pgp3AxiL</text>
</a>
</g>
</g>
<!-- Node37&#45;&gt;Node3 -->
<g id="edge45" class="edge">
<title>Node37&#45;&gt;Node3</title>
<path fill="none" stroke="midnightblue" d="M1173.45,-496.87C1195.63,-485.45 1226.26,-469.69 1245.72,-459.67"/>
<polygon fill="midnightblue" stroke="midnightblue" points="1171.8,-493.78 1164.52,-501.47 1175.01,-500 1171.8,-493.78"/>
</g>
<!-- Node38&#45;&gt;Node37 -->
<g id="edge46" class="edge">
<title>Node38&#45;&gt;Node37</title>
<path fill="none" stroke="midnightblue" d="M1059.64,-556.81C1065.85,-554.39 1072.16,-551.74 1078,-549 1096.07,-540.51 1115.79,-528.82 1128.92,-520.65"/>
<polygon fill="midnightblue" stroke="midnightblue" points="1058.16,-553.63 1050.04,-560.44 1060.64,-560.18 1058.16,-553.63"/>
</g>
<!-- Node39&#45;&gt;Node37 -->
<g id="edge48" class="edge">
<title>Node39&#45;&gt;Node37</title>
<path fill="none" stroke="midnightblue" d="M1080.36,-498.53C1091.92,-500.8 1103.59,-503.08 1113.73,-505.07"/>
<polygon fill="midnightblue" stroke="midnightblue" points="1080.75,-495.04 1070.27,-496.55 1079.41,-501.91 1080.75,-495.04"/>
</g>
<!-- Node40 -->
<g id="node40" class="node">
<title>Node40</title>
<g id="a_node40"><a xlink:href="classSynchronizerOneShotCntVector.html" target="_top" xlink:title=" ">
<polygon fill="white" stroke="black" points="759,-477.5 759,-496.5 927,-496.5 927,-477.5 759,-477.5"/>
<text text-anchor="middle" x="843" y="-484.5" font-family="Helvetica,sans-Serif" font-size="10.00">SynchronizerOneShotCntVector</text>
</a>
</g>
</g>
<!-- Node40&#45;&gt;Node39 -->
<g id="edge50" class="edge">
<title>Node40&#45;&gt;Node39</title>
<path fill="none" stroke="midnightblue" d="M937.37,-487C946.09,-487 954.74,-487 962.96,-487"/>
<polygon fill="midnightblue" stroke="midnightblue" points="937.12,-483.5 927.12,-487 937.12,-490.5 937.12,-483.5"/>
</g>
<!-- Node41&#45;&gt;Node40 -->
<g id="edge51" class="edge">
<title>Node41&#45;&gt;Node40</title>
<path fill="none" stroke="midnightblue" d="M543.46,-439.38C557.41,-441.96 572.21,-444.64 586,-447 651.18,-458.16 725.91,-469.69 777.74,-477.49"/>
<polygon fill="midnightblue" stroke="midnightblue" points="543.97,-435.91 533.49,-437.52 542.68,-442.79 543.97,-435.91"/>
</g>
<!-- Node41&#45;&gt;Node42 -->
<g id="edge55" class="edge">
<title>Node41&#45;&gt;Node42</title>
<path fill="none" stroke="midnightblue" d="M509.96,-442.42C530.31,-453.43 559.52,-468.6 586,-480 598.22,-485.26 612.02,-490.32 623.94,-494.42"/>
<polygon fill="midnightblue" stroke="midnightblue" points="511.45,-439.25 501,-437.53 508.1,-445.39 511.45,-439.25"/>
</g>
<!-- Node42&#45;&gt;Node40 -->
<g id="edge54" class="edge">
<title>Node42&#45;&gt;Node40</title>
<path fill="none" stroke="midnightblue" d="M733.25,-496.91C741.67,-496.15 750.25,-495.36 758.73,-494.59"/>
<polygon fill="midnightblue" stroke="midnightblue" points="732.74,-493.45 723.09,-497.84 733.37,-500.42 732.74,-493.45"/>
</g>
<!-- Node43 -->
<g id="node43" class="node">
<title>Node43</title>
<g id="a_node43"><a xlink:href="classSyncClockFreq.html" target="_top" xlink:title=" ">
<polygon fill="white" stroke="black" points="970,-520.5 970,-539.5 1071,-539.5 1071,-520.5 970,-520.5"/>
<text text-anchor="middle" x="1020.5" y="-527.5" font-family="Helvetica,sans-Serif" font-size="10.00">SyncClockFreq(2)</text>
</a>
</g>
</g>
<!-- Node43&#45;&gt;Node37 -->
<g id="edge57" class="edge">
<title>Node43&#45;&gt;Node37</title>
<path fill="none" stroke="midnightblue" d="M1081.24,-520.73C1092.58,-518.98 1103.99,-517.21 1113.92,-515.67"/>
<polygon fill="midnightblue" stroke="midnightblue" points="1080.67,-517.28 1071.33,-522.27 1081.74,-524.2 1080.67,-517.28"/>
</g>
<!-- Node44&#45;&gt;Node43 -->
<g id="edge58" class="edge">
<title>Node44&#45;&gt;Node43</title>
<path fill="none" stroke="midnightblue" d="M548.94,-540.54C657.3,-538.12 872.69,-533.29 969.88,-531.11"/>
<polygon fill="midnightblue" stroke="midnightblue" points="548.71,-537.05 538.79,-540.77 548.87,-544.05 548.71,-537.05"/>
</g>
<!-- Node45 -->
<g id="node45" class="node">
<title>Node45</title>
<g id="a_node45"><a xlink:href="classPgp3GthUsIpWrapper.html" target="_top" xlink:title=" ">
<polygon fill="white" stroke="black" points="776,-618.5 776,-637.5 910,-637.5 910,-618.5 776,-618.5"/>
<text text-anchor="middle" x="843" y="-625.5" font-family="Helvetica,sans-Serif" font-size="10.00">Pgp3GthUsIpWrapper(2)</text>
</a>
</g>
</g>
<!-- Node45&#45;&gt;Node1 -->
<g id="edge60" class="edge">
<title>Node45&#45;&gt;Node1</title>
<path fill="none" stroke="midnightblue" d="M920.28,-625.34C1040.2,-621.17 1268.11,-613.23 1354.83,-610.21"/>
<polygon fill="midnightblue" stroke="midnightblue" points="919.94,-621.85 910.07,-625.7 920.19,-628.85 919.94,-621.85"/>
</g>
<!-- Node46&#45;&gt;Node45 -->
<g id="edge61" class="edge">
<title>Node46&#45;&gt;Node45</title>
<path fill="none" stroke="midnightblue" d="M372.71,-683.38C445.5,-677.18 596.13,-663.56 723,-647 743.85,-644.28 766.67,-640.77 786.7,-637.5"/>
<polygon fill="midnightblue" stroke="midnightblue" points="372.21,-679.91 362.54,-684.25 372.8,-686.89 372.21,-679.91"/>
</g>
<!-- Node47 -->
<g id="node47" class="node">
<title>Node47</title>
<g id="a_node47"><a xlink:href="classAxiLiteToDrp.html" target="_top" xlink:title=" ">
<polygon fill="white" stroke="black" points="608.5,-618.5 608.5,-637.5 700.5,-637.5 700.5,-618.5 608.5,-618.5"/>
<text text-anchor="middle" x="654.5" y="-625.5" font-family="Helvetica,sans-Serif" font-size="10.00">AxiLiteToDrp(2)</text>
</a>
</g>
</g>
<!-- Node47&#45;&gt;Node45 -->
<g id="edge63" class="edge">
<title>Node47&#45;&gt;Node45</title>
<path fill="none" stroke="midnightblue" d="M710.71,-628C731.12,-628 754.46,-628 775.75,-628"/>
<polygon fill="midnightblue" stroke="midnightblue" points="710.65,-624.5 700.65,-628 710.65,-631.5 710.65,-624.5"/>
</g>
<!-- Node48&#45;&gt;Node47 -->
<g id="edge64" class="edge">
<title>Node48&#45;&gt;Node47</title>
<path fill="none" stroke="midnightblue" d="M533.5,-628C557.18,-628 585.33,-628 608.41,-628"/>
<polygon fill="midnightblue" stroke="midnightblue" points="533.31,-624.5 523.31,-628 533.31,-631.5 533.31,-624.5"/>
</g>
<!-- Node49&#45;&gt;Node48 -->
<g id="edge66" class="edge">
<title>Node49&#45;&gt;Node48</title>
<path fill="none" stroke="midnightblue" d="M369.42,-592.68C395.14,-600.75 427.91,-611.03 451.46,-618.42"/>
<polygon fill="midnightblue" stroke="midnightblue" points="370.18,-589.25 359.59,-589.6 368.09,-595.93 370.18,-589.25"/>
</g>
</g>
</svg>
