<?xml version="1.0" encoding="UTF-8" standalone="no"?>
<!DOCTYPE svg PUBLIC "-//W3C//DTD SVG 1.1//EN"
 "http://www.w3.org/Graphics/SVG/1.1/DTD/svg11.dtd">
<!-- Generated by graphviz version 2.43.0 (0)
 -->
<!-- Title: MmcmEmulation Pages: 1 -->
<svg width="902pt" height="560pt"
 viewBox="0.00 0.00 902.00 560.00" xmlns="http://www.w3.org/2000/svg" xmlns:xlink="http://www.w3.org/1999/xlink">
<g id="graph0" class="graph" transform="scale(1 1) rotate(0) translate(4 556)">
<title>MmcmEmulation</title>
<polygon fill="white" stroke="transparent" points="-4,4 -4,-556 898,-556 898,4 -4,4"/>
<!-- Node1 -->
<g id="node1" class="node">
<title>Node1</title>
<g id="a_node1"><a xlink:title=" ">
<polygon fill="#bfbfbf" stroke="black" points="84,-209.5 84,-228.5 184,-228.5 184,-209.5 84,-209.5"/>
<text text-anchor="middle" x="134" y="-216.5" font-family="Helvetica,sans-Serif" font-size="10.00">MmcmEmulation</text>
</a>
</g>
</g>
<!-- Node3 -->
<g id="node3" class="node">
<title>Node3</title>
<g id="a_node3"><a xlink:href="classClockManager7.html" target="_top" xlink:title=" ">
<polygon fill="white" stroke="black" points="242.5,-342.5 242.5,-361.5 334.5,-361.5 334.5,-342.5 242.5,-342.5"/>
<text text-anchor="middle" x="288.5" y="-349.5" font-family="Helvetica,sans-Serif" font-size="10.00">ClockManager7</text>
</a>
</g>
</g>
<!-- Node1&#45;&gt;Node3 -->
<g id="edge2" class="edge">
<title>Node1&#45;&gt;Node3</title>
<path fill="none" stroke="midnightblue" d="M153.73,-235.34C185.79,-263.29 250.21,-319.48 276.22,-342.16"/>
<polygon fill="midnightblue" stroke="midnightblue" points="155.8,-232.5 145.97,-228.57 151.2,-237.78 155.8,-232.5"/>
</g>
<!-- Node19 -->
<g id="node19" class="node">
<title>Node19</title>
<g id="a_node19"><a xlink:href="classClockManagerUltraScale.html" target="_top" xlink:title=" ">
<polygon fill="white" stroke="black" points="220,-95.5 220,-114.5 357,-114.5 357,-95.5 220,-95.5"/>
<text text-anchor="middle" x="288.5" y="-102.5" font-family="Helvetica,sans-Serif" font-size="10.00">ClockManagerUltraScale</text>
</a>
</g>
</g>
<!-- Node1&#45;&gt;Node19 -->
<g id="edge19" class="edge">
<title>Node1&#45;&gt;Node19</title>
<path fill="none" stroke="midnightblue" d="M155.97,-203.32C187.97,-179.4 248.05,-134.49 274.47,-114.74"/>
<polygon fill="midnightblue" stroke="midnightblue" points="153.65,-200.69 147.74,-209.48 157.84,-206.29 153.65,-200.69"/>
</g>
<!-- Node2 -->
<g id="node2" class="node">
<title>Node2</title>
<g id="a_node2"><a xlink:href="classClkRst.html" target="_top" xlink:title=" ">
<polygon fill="white" stroke="black" points="0,-209.5 0,-228.5 48,-228.5 48,-209.5 0,-209.5"/>
<text text-anchor="middle" x="24" y="-216.5" font-family="Helvetica,sans-Serif" font-size="10.00">ClkRst</text>
</a>
</g>
</g>
<!-- Node2&#45;&gt;Node1 -->
<g id="edge1" class="edge">
<title>Node2&#45;&gt;Node1</title>
<path fill="none" stroke="midnightblue" d="M58.25,-219C66.3,-219 75.07,-219 83.68,-219"/>
<polygon fill="midnightblue" stroke="midnightblue" points="58.17,-215.5 48.17,-219 58.17,-222.5 58.17,-215.5"/>
</g>
<!-- Node4 -->
<g id="node4" class="node">
<title>Node4</title>
<g id="a_node4"><a xlink:href="classAd9249Group.html" target="_top" xlink:title=" ">
<polygon fill="white" stroke="black" points="430.5,-532.5 430.5,-551.5 513.5,-551.5 513.5,-532.5 430.5,-532.5"/>
<text text-anchor="middle" x="472" y="-539.5" font-family="Helvetica,sans-Serif" font-size="10.00">Ad9249Group</text>
</a>
</g>
</g>
<!-- Node3&#45;&gt;Node4 -->
<g id="edge3" class="edge">
<title>Node3&#45;&gt;Node4</title>
<path fill="none" stroke="midnightblue" d="M295.57,-371.26C307.88,-407.01 339.24,-483.57 393,-523 403.79,-530.91 417.46,-535.56 430.32,-538.28"/>
<polygon fill="midnightblue" stroke="midnightblue" points="298.83,-369.96 292.36,-361.56 292.18,-372.16 298.83,-369.96"/>
</g>
<!-- Node6 -->
<g id="node6" class="node">
<title>Node6</title>
<g id="a_node6"><a xlink:href="classGigEthGth7Wrapper.html" target="_top" xlink:title=" ">
<polygon fill="white" stroke="black" points="415.5,-494.5 415.5,-513.5 528.5,-513.5 528.5,-494.5 415.5,-494.5"/>
<text text-anchor="middle" x="472" y="-501.5" font-family="Helvetica,sans-Serif" font-size="10.00">GigEthGth7Wrapper</text>
</a>
</g>
</g>
<!-- Node3&#45;&gt;Node6 -->
<g id="edge5" class="edge">
<title>Node3&#45;&gt;Node6</title>
<path fill="none" stroke="midnightblue" d="M298.89,-371C314.33,-400.22 347.95,-455.86 393,-485 399.79,-489.39 407.5,-492.77 415.38,-495.36"/>
<polygon fill="midnightblue" stroke="midnightblue" points="301.87,-369.15 294.19,-361.85 295.64,-372.35 301.87,-369.15"/>
</g>
<!-- Node7 -->
<g id="node7" class="node">
<title>Node7</title>
<g id="a_node7"><a xlink:href="classGigEthGtp7Wrapper.html" target="_top" xlink:title=" ">
<polygon fill="white" stroke="black" points="415.5,-456.5 415.5,-475.5 528.5,-475.5 528.5,-456.5 415.5,-456.5"/>
<text text-anchor="middle" x="472" y="-463.5" font-family="Helvetica,sans-Serif" font-size="10.00">GigEthGtp7Wrapper</text>
</a>
</g>
</g>
<!-- Node3&#45;&gt;Node7 -->
<g id="edge6" class="edge">
<title>Node3&#45;&gt;Node7</title>
<path fill="none" stroke="midnightblue" d="M303.62,-369.53C321.94,-391.08 355.97,-427.21 393,-447 400.25,-450.88 408.31,-453.97 416.4,-456.45"/>
<polygon fill="midnightblue" stroke="midnightblue" points="306.27,-367.24 297.18,-361.79 300.89,-371.72 306.27,-367.24"/>
</g>
<!-- Node8 -->
<g id="node8" class="node">
<title>Node8</title>
<g id="a_node8"><a xlink:href="classGigEthGtx7Wrapper.html" target="_top" xlink:title=" ">
<polygon fill="white" stroke="black" points="415.5,-418.5 415.5,-437.5 528.5,-437.5 528.5,-418.5 415.5,-418.5"/>
<text text-anchor="middle" x="472" y="-425.5" font-family="Helvetica,sans-Serif" font-size="10.00">GigEthGtx7Wrapper</text>
</a>
</g>
</g>
<!-- Node3&#45;&gt;Node8 -->
<g id="edge7" class="edge">
<title>Node3&#45;&gt;Node8</title>
<path fill="none" stroke="midnightblue" d="M312.58,-367.04C333,-379.77 363.99,-397.71 393,-409 402.48,-412.69 412.9,-415.82 422.95,-418.41"/>
<polygon fill="midnightblue" stroke="midnightblue" points="314.3,-363.99 303.98,-361.6 310.56,-369.9 314.3,-363.99"/>
</g>
<!-- Node9 -->
<g id="node9" class="node">
<title>Node9</title>
<g id="a_node9"><a xlink:href="classPgp2bGtp7FixedLatWrapper.html" target="_top" xlink:title=" ">
<polygon fill="white" stroke="black" points="396,-380.5 396,-399.5 548,-399.5 548,-380.5 396,-380.5"/>
<text text-anchor="middle" x="472" y="-387.5" font-family="Helvetica,sans-Serif" font-size="10.00">Pgp2bGtp7FixedLatWrapper</text>
</a>
</g>
</g>
<!-- Node3&#45;&gt;Node9 -->
<g id="edge8" class="edge">
<title>Node3&#45;&gt;Node9</title>
<path fill="none" stroke="midnightblue" d="M344.87,-363.59C370.73,-369.01 401.14,-375.37 425.62,-380.5"/>
<polygon fill="midnightblue" stroke="midnightblue" points="345.34,-360.11 334.83,-361.49 343.9,-366.97 345.34,-360.11"/>
</g>
<!-- Node10 -->
<g id="node10" class="node">
<title>Node10</title>
<g id="a_node10"><a xlink:href="classPgp2bGtp7VarLatWrapper.html" target="_top" xlink:title=" ">
<polygon fill="white" stroke="black" points="401,-342.5 401,-361.5 543,-361.5 543,-342.5 401,-342.5"/>
<text text-anchor="middle" x="472" y="-349.5" font-family="Helvetica,sans-Serif" font-size="10.00">Pgp2bGtp7VarLatWrapper</text>
</a>
</g>
</g>
<!-- Node3&#45;&gt;Node10 -->
<g id="edge9" class="edge">
<title>Node3&#45;&gt;Node10</title>
<path fill="none" stroke="midnightblue" d="M344.94,-352C362.58,-352 382.31,-352 400.84,-352"/>
<polygon fill="midnightblue" stroke="midnightblue" points="344.83,-348.5 334.83,-352 344.83,-355.5 344.83,-348.5"/>
</g>
<!-- Node11 -->
<g id="node11" class="node">
<title>Node11</title>
<g id="a_node11"><a xlink:href="classPgp2bGtx7FixedLatWrapper.html" target="_top" xlink:title=" ">
<polygon fill="white" stroke="black" points="396,-304.5 396,-323.5 548,-323.5 548,-304.5 396,-304.5"/>
<text text-anchor="middle" x="472" y="-311.5" font-family="Helvetica,sans-Serif" font-size="10.00">Pgp2bGtx7FixedLatWrapper</text>
</a>
</g>
</g>
<!-- Node3&#45;&gt;Node11 -->
<g id="edge10" class="edge">
<title>Node3&#45;&gt;Node11</title>
<path fill="none" stroke="midnightblue" d="M344.87,-340.41C370.73,-334.99 401.14,-328.63 425.62,-323.5"/>
<polygon fill="midnightblue" stroke="midnightblue" points="343.9,-337.03 334.83,-342.51 345.34,-343.89 343.9,-337.03"/>
</g>
<!-- Node14 -->
<g id="node14" class="node">
<title>Node14</title>
<g id="a_node14"><a xlink:href="classPgp2bGtx7VarLatWrapper.html" target="_top" xlink:title=" ">
<polygon fill="white" stroke="black" points="401,-266.5 401,-285.5 543,-285.5 543,-266.5 401,-266.5"/>
<text text-anchor="middle" x="472" y="-273.5" font-family="Helvetica,sans-Serif" font-size="10.00">Pgp2bGtx7VarLatWrapper</text>
</a>
</g>
</g>
<!-- Node3&#45;&gt;Node14 -->
<g id="edge13" class="edge">
<title>Node3&#45;&gt;Node14</title>
<path fill="none" stroke="midnightblue" d="M312.58,-336.96C333,-324.23 363.99,-306.29 393,-295 402.48,-291.31 412.9,-288.18 422.95,-285.59"/>
<polygon fill="midnightblue" stroke="midnightblue" points="310.56,-334.1 303.98,-342.4 314.3,-340.01 310.56,-334.1"/>
</g>
<!-- Node16 -->
<g id="node16" class="node">
<title>Node16</title>
<g id="a_node16"><a xlink:href="classPgp3Gtx7IpWrapper.html" target="_top" xlink:title=" ">
<polygon fill="white" stroke="black" points="415,-228.5 415,-247.5 529,-247.5 529,-228.5 415,-228.5"/>
<text text-anchor="middle" x="472" y="-235.5" font-family="Helvetica,sans-Serif" font-size="10.00">Pgp3Gtx7IpWrapper</text>
</a>
</g>
</g>
<!-- Node3&#45;&gt;Node16 -->
<g id="edge15" class="edge">
<title>Node3&#45;&gt;Node16</title>
<path fill="none" stroke="midnightblue" d="M303.62,-334.47C321.94,-312.92 355.97,-276.79 393,-257 400.25,-253.12 408.31,-250.03 416.4,-247.55"/>
<polygon fill="midnightblue" stroke="midnightblue" points="300.89,-332.28 297.18,-342.21 306.27,-336.76 300.89,-332.28"/>
</g>
<!-- Node18 -->
<g id="node18" class="node">
<title>Node18</title>
<g id="a_node18"><a xlink:href="classPgp3Gtx7Wrapper.html" target="_top" xlink:title=" ">
<polygon fill="white" stroke="black" points="788,-209.5 788,-228.5 893,-228.5 893,-209.5 788,-209.5"/>
<text text-anchor="middle" x="840.5" y="-216.5" font-family="Helvetica,sans-Serif" font-size="10.00">Pgp3Gtx7Wrapper</text>
</a>
</g>
</g>
<!-- Node3&#45;&gt;Node18 -->
<g id="edge18" class="edge">
<title>Node3&#45;&gt;Node18</title>
<path fill="none" stroke="midnightblue" d="M297.52,-332.96C311.63,-302.27 344.12,-242.9 393,-219 532.8,-150.65 727.91,-189.5 805.62,-209.45"/>
<polygon fill="midnightblue" stroke="midnightblue" points="294.29,-331.61 293.44,-342.17 300.69,-334.44 294.29,-331.61"/>
</g>
<!-- Node5 -->
<g id="node5" class="node">
<title>Node5</title>
<g id="a_node5"><a xlink:href="classAd9249.html" target="_top" xlink:title=" ">
<polygon fill="white" stroke="black" points="642.5,-532.5 642.5,-551.5 695.5,-551.5 695.5,-532.5 642.5,-532.5"/>
<text text-anchor="middle" x="669" y="-539.5" font-family="Helvetica,sans-Serif" font-size="10.00">Ad9249</text>
</a>
</g>
</g>
<!-- Node4&#45;&gt;Node5 -->
<g id="edge4" class="edge">
<title>Node4&#45;&gt;Node5</title>
<path fill="none" stroke="midnightblue" d="M524.25,-542C562.25,-542 612.46,-542 642.37,-542"/>
<polygon fill="midnightblue" stroke="midnightblue" points="523.88,-538.5 513.88,-542 523.88,-545.5 523.88,-538.5"/>
</g>
<!-- Node12 -->
<g id="node12" class="node">
<title>Node12</title>
<g id="a_node12"><a xlink:href="classPgp2bGtx7FixedLatTb.html" target="_top" xlink:title=" ">
<polygon fill="white" stroke="black" points="608,-342.5 608,-361.5 730,-361.5 730,-342.5 608,-342.5"/>
<text text-anchor="middle" x="669" y="-349.5" font-family="Helvetica,sans-Serif" font-size="10.00">Pgp2bGtx7FixedLatTb</text>
</a>
</g>
</g>
<!-- Node11&#45;&gt;Node12 -->
<g id="edge11" class="edge">
<title>Node11&#45;&gt;Node12</title>
<path fill="none" stroke="midnightblue" d="M531.96,-325.49C559.78,-330.91 592.6,-337.31 619.02,-342.46"/>
<polygon fill="midnightblue" stroke="midnightblue" points="532.44,-322.02 521.96,-323.54 531.1,-328.89 532.44,-322.02"/>
</g>
<!-- Node13 -->
<g id="node13" class="node">
<title>Node13</title>
<g id="a_node13"><a xlink:href="classPgp2bGtx7FixedLatWrapperTb.html" target="_top" xlink:title=" ">
<polygon fill="white" stroke="black" points="587,-304.5 587,-323.5 751,-323.5 751,-304.5 587,-304.5"/>
<text text-anchor="middle" x="669" y="-311.5" font-family="Helvetica,sans-Serif" font-size="10.00">Pgp2bGtx7FixedLatWrapperTb</text>
</a>
</g>
</g>
<!-- Node11&#45;&gt;Node13 -->
<g id="edge12" class="edge">
<title>Node11&#45;&gt;Node13</title>
<path fill="none" stroke="midnightblue" d="M558.3,-314C567.75,-314 577.37,-314 586.77,-314"/>
<polygon fill="midnightblue" stroke="midnightblue" points="558.11,-310.5 548.11,-314 558.11,-317.5 558.11,-310.5"/>
</g>
<!-- Node15 -->
<g id="node15" class="node">
<title>Node15</title>
<g id="a_node15"><a xlink:href="classPgp2bGtx7VarLatWrapperTb.html" target="_top" xlink:title=" ">
<polygon fill="white" stroke="black" points="592,-266.5 592,-285.5 746,-285.5 746,-266.5 592,-266.5"/>
<text text-anchor="middle" x="669" y="-273.5" font-family="Helvetica,sans-Serif" font-size="10.00">Pgp2bGtx7VarLatWrapperTb</text>
</a>
</g>
</g>
<!-- Node14&#45;&gt;Node15 -->
<g id="edge14" class="edge">
<title>Node14&#45;&gt;Node15</title>
<path fill="none" stroke="midnightblue" d="M553.27,-276C566.04,-276 579.23,-276 591.9,-276"/>
<polygon fill="midnightblue" stroke="midnightblue" points="553.12,-272.5 543.12,-276 553.12,-279.5 553.12,-272.5"/>
</g>
<!-- Node17 -->
<g id="node17" class="node">
<title>Node17</title>
<g id="a_node17"><a xlink:href="classPgp3Gtx7.html" target="_top" xlink:title=" ">
<polygon fill="white" stroke="black" points="637,-228.5 637,-247.5 701,-247.5 701,-228.5 637,-228.5"/>
<text text-anchor="middle" x="669" y="-235.5" font-family="Helvetica,sans-Serif" font-size="10.00">Pgp3Gtx7</text>
</a>
</g>
</g>
<!-- Node16&#45;&gt;Node17 -->
<g id="edge16" class="edge">
<title>Node16&#45;&gt;Node17</title>
<path fill="none" stroke="midnightblue" d="M539.19,-238C572.2,-238 610.56,-238 636.78,-238"/>
<polygon fill="midnightblue" stroke="midnightblue" points="539.14,-234.5 529.14,-238 539.14,-241.5 539.14,-234.5"/>
</g>
<!-- Node17&#45;&gt;Node18 -->
<g id="edge17" class="edge">
<title>Node17&#45;&gt;Node18</title>
<path fill="none" stroke="midnightblue" d="M711.25,-233.38C734.36,-230.79 763.38,-227.53 787.98,-224.78"/>
<polygon fill="midnightblue" stroke="midnightblue" points="710.64,-229.92 701.09,-234.52 711.42,-236.88 710.64,-229.92"/>
</g>
<!-- Node20 -->
<g id="node20" class="node">
<title>Node20</title>
<g id="a_node20"><a xlink:href="classAd9249ReadoutGroup.html" target="_top" xlink:title=" ">
<polygon fill="white" stroke="black" points="410.5,-152.5 410.5,-171.5 533.5,-171.5 533.5,-152.5 410.5,-152.5"/>
<text text-anchor="middle" x="472" y="-159.5" font-family="Helvetica,sans-Serif" font-size="10.00">Ad9249ReadoutGroup</text>
</a>
</g>
</g>
<!-- Node19&#45;&gt;Node20 -->
<g id="edge20" class="edge">
<title>Node19&#45;&gt;Node20</title>
<path fill="none" stroke="midnightblue" d="M322.45,-118.18C342.62,-125.98 369.08,-135.72 393,-143 404.2,-146.41 416.45,-149.63 427.85,-152.41"/>
<polygon fill="midnightblue" stroke="midnightblue" points="323.67,-114.9 313.08,-114.53 321.13,-121.42 323.67,-114.9"/>
</g>
<!-- Node21 -->
<g id="node21" class="node">
<title>Node21</title>
<g id="a_node21"><a xlink:href="classCaui4GtyIpWrapper.html" target="_top" xlink:title=" ">
<polygon fill="white" stroke="black" points="416,-114.5 416,-133.5 528,-133.5 528,-114.5 416,-114.5"/>
<text text-anchor="middle" x="472" y="-121.5" font-family="Helvetica,sans-Serif" font-size="10.00">Caui4GtyIpWrapper</text>
</a>
</g>
</g>
<!-- Node19&#45;&gt;Node21 -->
<g id="edge21" class="edge">
<title>Node19&#45;&gt;Node21</title>
<path fill="none" stroke="midnightblue" d="M367.18,-113.13C383.54,-114.84 400.47,-116.62 415.8,-118.22"/>
<polygon fill="midnightblue" stroke="midnightblue" points="367.39,-109.64 357.08,-112.07 366.67,-116.6 367.39,-109.64"/>
</g>
<!-- Node24 -->
<g id="node24" class="node">
<title>Node24</title>
<g id="a_node24"><a xlink:href="classClinkDataShift.html" target="_top" xlink:title=" ">
<polygon fill="white" stroke="black" points="429,-76.5 429,-95.5 515,-95.5 515,-76.5 429,-76.5"/>
<text text-anchor="middle" x="472" y="-83.5" font-family="Helvetica,sans-Serif" font-size="10.00">ClinkDataShift</text>
</a>
</g>
</g>
<!-- Node19&#45;&gt;Node24 -->
<g id="edge24" class="edge">
<title>Node19&#45;&gt;Node24</title>
<path fill="none" stroke="midnightblue" d="M367.08,-96.88C388.3,-94.66 410.51,-92.33 428.92,-90.4"/>
<polygon fill="midnightblue" stroke="midnightblue" points="366.67,-93.4 357.08,-97.93 367.39,-100.36 366.67,-93.4"/>
</g>
<!-- Node27 -->
<g id="node27" class="node">
<title>Node27</title>
<g id="a_node27"><a xlink:href="classGigEthGthUltraScaleWrapper.html" target="_top" xlink:title=" ">
<polygon fill="white" stroke="black" points="393,-38.5 393,-57.5 551,-57.5 551,-38.5 393,-38.5"/>
<text text-anchor="middle" x="472" y="-45.5" font-family="Helvetica,sans-Serif" font-size="10.00">GigEthGthUltraScaleWrapper</text>
</a>
</g>
</g>
<!-- Node19&#45;&gt;Node27 -->
<g id="edge27" class="edge">
<title>Node19&#45;&gt;Node27</title>
<path fill="none" stroke="midnightblue" d="M322.45,-91.82C342.62,-84.02 369.08,-74.28 393,-67 404.2,-63.59 416.45,-60.37 427.85,-57.59"/>
<polygon fill="midnightblue" stroke="midnightblue" points="321.13,-88.58 313.08,-95.47 323.67,-95.1 321.13,-88.58"/>
</g>
<!-- Node28 -->
<g id="node28" class="node">
<title>Node28</title>
<g id="a_node28"><a xlink:href="classGigEthGtyUltraScaleWrapper.html" target="_top" xlink:title=" ">
<polygon fill="white" stroke="black" points="393,-0.5 393,-19.5 551,-19.5 551,-0.5 393,-0.5"/>
<text text-anchor="middle" x="472" y="-7.5" font-family="Helvetica,sans-Serif" font-size="10.00">GigEthGtyUltraScaleWrapper</text>
</a>
</g>
</g>
<!-- Node19&#45;&gt;Node28 -->
<g id="edge28" class="edge">
<title>Node19&#45;&gt;Node28</title>
<path fill="none" stroke="midnightblue" d="M307.29,-88.47C326.86,-71.17 359.94,-44.41 393,-29 401.21,-25.17 410.28,-22.06 419.24,-19.56"/>
<polygon fill="midnightblue" stroke="midnightblue" points="304.85,-85.96 299.77,-95.25 309.54,-91.16 304.85,-85.96"/>
</g>
<!-- Node22 -->
<g id="node22" class="node">
<title>Node22</title>
<g id="a_node22"><a xlink:href="classPgpEthCaui4Gty.html" target="_top" xlink:title=" ">
<polygon fill="white" stroke="black" points="621.5,-114.5 621.5,-133.5 716.5,-133.5 716.5,-114.5 621.5,-114.5"/>
<text text-anchor="middle" x="669" y="-121.5" font-family="Helvetica,sans-Serif" font-size="10.00">PgpEthCaui4Gty</text>
</a>
</g>
</g>
<!-- Node21&#45;&gt;Node22 -->
<g id="edge22" class="edge">
<title>Node21&#45;&gt;Node22</title>
<path fill="none" stroke="midnightblue" d="M538.31,-124C565.5,-124 596.45,-124 621.29,-124"/>
<polygon fill="midnightblue" stroke="midnightblue" points="538.1,-120.5 528.1,-124 538.1,-127.5 538.1,-120.5"/>
</g>
<!-- Node23 -->
<g id="node23" class="node">
<title>Node23</title>
<g id="a_node23"><a xlink:href="classPgpEthCaui4GtyTb.html" target="_top" xlink:title=" ">
<polygon fill="white" stroke="black" points="787,-114.5 787,-133.5 894,-133.5 894,-114.5 787,-114.5"/>
<text text-anchor="middle" x="840.5" y="-121.5" font-family="Helvetica,sans-Serif" font-size="10.00">PgpEthCaui4GtyTb</text>
</a>
</g>
</g>
<!-- Node22&#45;&gt;Node23 -->
<g id="edge23" class="edge">
<title>Node22&#45;&gt;Node23</title>
<path fill="none" stroke="midnightblue" d="M726.97,-124C746.35,-124 767.9,-124 786.92,-124"/>
<polygon fill="midnightblue" stroke="midnightblue" points="726.77,-120.5 716.77,-124 726.77,-127.5 726.77,-120.5"/>
</g>
<!-- Node25 -->
<g id="node25" class="node">
<title>Node25</title>
<g id="a_node25"><a xlink:href="classClinkData.html" target="_top" xlink:title=" ">
<polygon fill="white" stroke="black" points="636.5,-76.5 636.5,-95.5 701.5,-95.5 701.5,-76.5 636.5,-76.5"/>
<text text-anchor="middle" x="669" y="-83.5" font-family="Helvetica,sans-Serif" font-size="10.00">ClinkData</text>
</a>
</g>
</g>
<!-- Node24&#45;&gt;Node25 -->
<g id="edge25" class="edge">
<title>Node24&#45;&gt;Node25</title>
<path fill="none" stroke="midnightblue" d="M525.47,-86C560.86,-86 606.38,-86 636.34,-86"/>
<polygon fill="midnightblue" stroke="midnightblue" points="525.31,-82.5 515.31,-86 525.31,-89.5 525.31,-82.5"/>
</g>
<!-- Node26 -->
<g id="node26" class="node">
<title>Node26</title>
<g id="a_node26"><a xlink:href="classClinkTop.html" target="_top" xlink:title=" ">
<polygon fill="white" stroke="black" points="811.5,-76.5 811.5,-95.5 869.5,-95.5 869.5,-76.5 811.5,-76.5"/>
<text text-anchor="middle" x="840.5" y="-83.5" font-family="Helvetica,sans-Serif" font-size="10.00">ClinkTop</text>
</a>
</g>
</g>
<!-- Node25&#45;&gt;Node26 -->
<g id="edge26" class="edge">
<title>Node25&#45;&gt;Node26</title>
<path fill="none" stroke="midnightblue" d="M711.96,-86C742.96,-86 784.32,-86 811.42,-86"/>
<polygon fill="midnightblue" stroke="midnightblue" points="711.88,-82.5 701.88,-86 711.88,-89.5 711.88,-82.5"/>
</g>
</g>
</svg>
