<?xml version="1.0" encoding="UTF-8" standalone="no"?>
<!DOCTYPE svg PUBLIC "-//W3C//DTD SVG 1.1//EN"
 "http://www.w3.org/Graphics/SVG/1.1/DTD/svg11.dtd">
<!-- Generated by graphviz version 2.43.0 (0)
 -->
<!-- Title: RstPipeline Pages: 1 -->
<!--zoomable 218 -->
<svg id="main" version="1.1" xmlns="http://www.w3.org/2000/svg" xmlns:xlink="http://www.w3.org/1999/xlink" xml:space="preserve" onload="init(evt)">
<style type="text/css"><![CDATA[
.edge:hover path { stroke: red; }
.edge:hover polygon { stroke: red; fill: red; }
]]></style>
<script type="text/javascript"><![CDATA[
var edges = document.getElementsByTagName('g');
if (edges && edges.length) {
  for (var i=0;i<edges.length;i++) {
    if (edges[i].id.substr(0,4)=='edge') {
      edges[i].setAttribute('class','edge');
    }
  }
}
]]></script>
        <defs>
                <circle id="rim" cx="0" cy="0" r="7"/>
                <circle id="rim2" cx="0" cy="0" r="3.5"/>
                <g id="zoomPlus">
                        <use xlink:href="#rim" fill="#404040">
                                <set attributeName="fill" to="#808080" begin="zoomplus.mouseover" end="zoomplus.mouseout"/>
                        </use>
                        <path d="M-4,0h8M0,-4v8" fill="none" stroke="white" stroke-width="1.5" pointer-events="none"/>
                </g>
                <g id="zoomMin">
                        <use xlink:href="#rim" fill="#404040">
                                <set attributeName="fill" to="#808080" begin="zoomminus.mouseover" end="zoomminus.mouseout"/>
                        </use>
                        <path d="M-4,0h8" fill="none" stroke="white" stroke-width="1.5" pointer-events="none"/>
                </g>
                <g id="dirArrow">
                        <path fill="none" stroke="white" stroke-width="1.5" d="M0,-3.0v7 M-2.5,-0.5L0,-3.0L2.5,-0.5"/>
                </g>
               <g id="resetDef">
                       <use xlink:href="#rim2" fill="#404040">
                               <set attributeName="fill" to="#808080" begin="reset.mouseover" end="reset.mouseout"/>
                       </use>
               </g>
        </defs>

<script type="text/javascript">
var viewWidth = 752;
var viewHeight = 218;
var sectionId = 'dynsection-0';
</script>
<script xlink:href="svgpan.js"/>
<svg id="graph" class="graph">
<g id="viewport">
<title>RstPipeline</title>
<polygon fill="white" stroke="transparent" points="-4,4 -4,-214 748,-214 748,4 -4,4"/>
<!-- Node1 -->
<g id="node1" class="node">
<title>Node1</title>
<g id="a_node1"><a xlink:title=" ">
<polygon fill="#bfbfbf" stroke="black" points="0,-95.5 0,-114.5 71,-114.5 71,-95.5 0,-95.5"/>
<text text-anchor="middle" x="35.5" y="-102.5" font-family="Helvetica,sans-Serif" font-size="10.00">RstPipeline</text>
</a>
</g>
</g>
<!-- Node2 -->
<g id="node2" class="node">
<title>Node2</title>
<g id="a_node2"><a xlink:href="classAxiStreamDmaFifo.html" target="_top" xlink:title=" ">
<polygon fill="white" stroke="black" points="127,-190.5 127,-209.5 236,-209.5 236,-190.5 127,-190.5"/>
<text text-anchor="middle" x="181.5" y="-197.5" font-family="Helvetica,sans-Serif" font-size="10.00">AxiStreamDmaFifo</text>
</a>
</g>
</g>
<!-- Node1&#45;&gt;Node2 -->
<g id="edge1" class="edge">
<title>Node1&#45;&gt;Node2</title>
<path fill="none" stroke="midnightblue" d="M48.35,-122.79C60.89,-140.22 82.26,-166.24 107,-181 113.45,-184.85 120.67,-187.93 128,-190.38"/>
<polygon fill="midnightblue" stroke="midnightblue" points="51.21,-120.78 42.63,-114.57 45.47,-124.78 51.21,-120.78"/>
</g>
<!-- Node3 -->
<g id="node3" class="node">
<title>Node3</title>
<g id="a_node3"><a xlink:href="classAxiStreamDmaV2.html" target="_top" xlink:title=" ">
<polygon fill="white" stroke="black" points="129.5,-152.5 129.5,-171.5 233.5,-171.5 233.5,-152.5 129.5,-152.5"/>
<text text-anchor="middle" x="181.5" y="-159.5" font-family="Helvetica,sans-Serif" font-size="10.00">AxiStreamDmaV2</text>
</a>
</g>
</g>
<!-- Node1&#45;&gt;Node3 -->
<g id="edge2" class="edge">
<title>Node1&#45;&gt;Node3</title>
<path fill="none" stroke="midnightblue" d="M64.57,-119.1C77.36,-125.27 92.78,-132.37 107,-138 120.36,-143.28 135.39,-148.34 148.36,-152.44"/>
<polygon fill="midnightblue" stroke="midnightblue" points="65.89,-115.85 55.37,-114.6 62.82,-122.14 65.89,-115.85"/>
</g>
<!-- Node4 -->
<g id="node4" class="node">
<title>Node4</title>
<g id="a_node4"><a xlink:href="classJesdRxReg.html" target="_top" xlink:title=" ">
<polygon fill="white" stroke="black" points="324.5,-95.5 324.5,-114.5 392.5,-114.5 392.5,-95.5 324.5,-95.5"/>
<text text-anchor="middle" x="358.5" y="-102.5" font-family="Helvetica,sans-Serif" font-size="10.00">JesdRxReg</text>
</a>
</g>
</g>
<!-- Node1&#45;&gt;Node4 -->
<g id="edge3" class="edge">
<title>Node1&#45;&gt;Node4</title>
<path fill="none" stroke="midnightblue" d="M81.55,-105C146.92,-105 266.57,-105 324.43,-105"/>
<polygon fill="midnightblue" stroke="midnightblue" points="81.16,-101.5 71.16,-105 81.16,-108.5 81.16,-101.5"/>
</g>
<!-- Node7 -->
<g id="node7" class="node">
<title>Node7</title>
<g id="a_node7"><a xlink:href="classJesdTxReg.html" target="_top" xlink:title=" ">
<polygon fill="white" stroke="black" points="324.5,-57.5 324.5,-76.5 392.5,-76.5 392.5,-57.5 324.5,-57.5"/>
<text text-anchor="middle" x="358.5" y="-64.5" font-family="Helvetica,sans-Serif" font-size="10.00">JesdTxReg</text>
</a>
</g>
</g>
<!-- Node1&#45;&gt;Node7 -->
<g id="edge6" class="edge">
<title>Node1&#45;&gt;Node7</title>
<path fill="none" stroke="midnightblue" d="M58.19,-89.66C71.57,-81.15 89.47,-71.42 107,-67 182.9,-47.85 275.91,-55.63 324.44,-61.94"/>
<polygon fill="midnightblue" stroke="midnightblue" points="56.11,-86.83 49.71,-95.27 59.98,-92.67 56.11,-86.83"/>
</g>
<!-- Node9 -->
<g id="node9" class="node">
<title>Node9</title>
<g id="a_node9"><a xlink:href="classRstPipelineVector.html" target="_top" xlink:title=" ">
<polygon fill="white" stroke="black" points="130.5,-76.5 130.5,-95.5 232.5,-95.5 232.5,-76.5 130.5,-76.5"/>
<text text-anchor="middle" x="181.5" y="-83.5" font-family="Helvetica,sans-Serif" font-size="10.00">RstPipelineVector</text>
</a>
</g>
</g>
<!-- Node1&#45;&gt;Node9 -->
<g id="edge9" class="edge">
<title>Node1&#45;&gt;Node9</title>
<path fill="none" stroke="midnightblue" d="M81.28,-99.09C96.87,-97.03 114.46,-94.71 130.45,-92.6"/>
<polygon fill="midnightblue" stroke="midnightblue" points="80.81,-95.62 71.36,-100.4 81.73,-102.56 80.81,-95.62"/>
</g>
<!-- Node10 -->
<g id="node10" class="node">
<title>Node10</title>
<g id="a_node10"><a xlink:href="classTenGigEthGthUltraScaleRst.html" target="_top" xlink:title=" ">
<polygon fill="white" stroke="black" points="107,-0.5 107,-19.5 256,-19.5 256,-0.5 107,-0.5"/>
<text text-anchor="middle" x="181.5" y="-7.5" font-family="Helvetica,sans-Serif" font-size="10.00">TenGigEthGthUltraScaleRst</text>
</a>
</g>
</g>
<!-- Node1&#45;&gt;Node10 -->
<g id="edge12" class="edge">
<title>Node1&#45;&gt;Node10</title>
<path fill="none" stroke="midnightblue" d="M50,-87.24C63,-71.25 84.04,-48.15 107,-34 116.94,-27.87 128.62,-23.14 139.7,-19.56"/>
<polygon fill="midnightblue" stroke="midnightblue" points="47.09,-85.27 43.64,-95.29 52.58,-89.61 47.09,-85.27"/>
</g>
<!-- Node5 -->
<g id="node5" class="node">
<title>Node5</title>
<g id="a_node5"><a xlink:href="classJesd204bRx.html" target="_top" xlink:title=" ">
<polygon fill="white" stroke="black" points="511,-95.5 511,-114.5 585,-114.5 585,-95.5 511,-95.5"/>
<text text-anchor="middle" x="548" y="-102.5" font-family="Helvetica,sans-Serif" font-size="10.00">Jesd204bRx</text>
</a>
</g>
</g>
<!-- Node4&#45;&gt;Node5 -->
<g id="edge4" class="edge">
<title>Node4&#45;&gt;Node5</title>
<path fill="none" stroke="midnightblue" d="M402.77,-105C435.47,-105 479.86,-105 510.72,-105"/>
<polygon fill="midnightblue" stroke="midnightblue" points="402.59,-101.5 392.59,-105 402.59,-108.5 402.59,-101.5"/>
</g>
<!-- Node6 -->
<g id="node6" class="node">
<title>Node6</title>
<g id="a_node6"><a xlink:href="classJesd204bTb.html" target="_top" xlink:title=" ">
<polygon fill="white" stroke="black" points="671,-76.5 671,-95.5 744,-95.5 744,-76.5 671,-76.5"/>
<text text-anchor="middle" x="707.5" y="-83.5" font-family="Helvetica,sans-Serif" font-size="10.00">Jesd204bTb</text>
</a>
</g>
</g>
<!-- Node5&#45;&gt;Node6 -->
<g id="edge5" class="edge">
<title>Node5&#45;&gt;Node6</title>
<path fill="none" stroke="midnightblue" d="M595.14,-99.43C619.29,-96.52 648.4,-93.01 670.81,-90.31"/>
<polygon fill="midnightblue" stroke="midnightblue" points="594.64,-95.97 585.13,-100.64 595.48,-102.92 594.64,-95.97"/>
</g>
<!-- Node8 -->
<g id="node8" class="node">
<title>Node8</title>
<g id="a_node8"><a xlink:href="classJesd204bTx.html" target="_top" xlink:title=" ">
<polygon fill="white" stroke="black" points="511.5,-57.5 511.5,-76.5 584.5,-76.5 584.5,-57.5 511.5,-57.5"/>
<text text-anchor="middle" x="548" y="-64.5" font-family="Helvetica,sans-Serif" font-size="10.00">Jesd204bTx</text>
</a>
</g>
</g>
<!-- Node7&#45;&gt;Node8 -->
<g id="edge7" class="edge">
<title>Node7&#45;&gt;Node8</title>
<path fill="none" stroke="midnightblue" d="M402.83,-67C435.76,-67 480.51,-67 511.37,-67"/>
<polygon fill="midnightblue" stroke="midnightblue" points="402.59,-63.5 392.59,-67 402.59,-70.5 402.59,-63.5"/>
</g>
<!-- Node8&#45;&gt;Node6 -->
<g id="edge8" class="edge">
<title>Node8&#45;&gt;Node6</title>
<path fill="none" stroke="midnightblue" d="M594.79,-72.52C619.04,-75.45 648.38,-78.99 670.9,-81.71"/>
<polygon fill="midnightblue" stroke="midnightblue" points="595.09,-69.03 584.74,-71.31 594.25,-75.98 595.09,-69.03"/>
</g>
<!-- Node9&#45;&gt;Node4 -->
<g id="edge10" class="edge">
<title>Node9&#45;&gt;Node4</title>
<path fill="none" stroke="midnightblue" d="M242.91,-92.56C270.27,-95.53 301.53,-98.92 324.49,-101.42"/>
<polygon fill="midnightblue" stroke="midnightblue" points="242.97,-89.04 232.65,-91.44 242.21,-96 242.97,-89.04"/>
</g>
<!-- Node9&#45;&gt;Node7 -->
<g id="edge11" class="edge">
<title>Node9&#45;&gt;Node7</title>
<path fill="none" stroke="midnightblue" d="M242.91,-79.44C270.27,-76.47 301.53,-73.08 324.49,-70.58"/>
<polygon fill="midnightblue" stroke="midnightblue" points="242.21,-76 232.65,-80.56 242.97,-82.96 242.21,-76"/>
</g>
<!-- Node11 -->
<g id="node11" class="node">
<title>Node11</title>
<g id="a_node11"><a xlink:href="classTenGigEthGthUltraScale.html" target="_top" xlink:title=" ">
<polygon fill="white" stroke="black" points="292,-0.5 292,-19.5 425,-19.5 425,-0.5 292,-0.5"/>
<text text-anchor="middle" x="358.5" y="-7.5" font-family="Helvetica,sans-Serif" font-size="10.00">TenGigEthGthUltraScale</text>
</a>
</g>
</g>
<!-- Node10&#45;&gt;Node11 -->
<g id="edge13" class="edge">
<title>Node10&#45;&gt;Node11</title>
<path fill="none" stroke="midnightblue" d="M266.28,-10C274.9,-10 283.56,-10 291.94,-10"/>
<polygon fill="midnightblue" stroke="midnightblue" points="266.21,-6.5 256.21,-10 266.21,-13.5 266.21,-6.5"/>
</g>
<!-- Node12 -->
<g id="node12" class="node">
<title>Node12</title>
<g id="a_node12"><a xlink:href="classTenGigEthGthUltraScaleWrapper.html" target="_top" xlink:title=" ">
<polygon fill="white" stroke="black" points="461,-0.5 461,-19.5 635,-19.5 635,-0.5 461,-0.5"/>
<text text-anchor="middle" x="548" y="-7.5" font-family="Helvetica,sans-Serif" font-size="10.00">TenGigEthGthUltraScaleWrapper</text>
</a>
</g>
</g>
<!-- Node11&#45;&gt;Node12 -->
<g id="edge14" class="edge">
<title>Node11&#45;&gt;Node12</title>
<path fill="none" stroke="midnightblue" d="M435.2,-10C443.59,-10 452.19,-10 460.7,-10"/>
<polygon fill="midnightblue" stroke="midnightblue" points="435.08,-6.5 425.08,-10 435.08,-13.5 435.08,-6.5"/>
</g>
</g>
</svg>
        <g id="navigator" transform="translate(0 0)" fill="#404254">
                <rect fill="#f2f5e9" fill-opacity="0.5" stroke="#606060" stroke-width=".5" x="0" y="0" width="60" height="60"/>
                <use id="zoomplus" xlink:href="#zoomPlus" x="17" y="9" onmousedown="handleZoom(evt,'in')"/>
                <use id="zoomminus" xlink:href="#zoomMin" x="42" y="9" onmousedown="handleZoom(evt,'out')"/>
                <use id="reset" xlink:href="#resetDef" x="30" y="36" onmousedown="handleReset()"/>
                <g id="arrowUp" xlink:href="#dirArrow" transform="translate(30 24)" onmousedown="handlePan(0,-1)">
                  <use xlink:href="#rim" fill="#404040">
                        <set attributeName="fill" to="#808080" begin="arrowUp.mouseover" end="arrowUp.mouseout"/>
                  </use>
                  <path fill="none" stroke="white" stroke-width="1.5" d="M0,-3.0v7 M-2.5,-0.5L0,-3.0L2.5,-0.5"/>
                </g>
                <g id="arrowRight" xlink:href="#dirArrow" transform="rotate(90) translate(36 -43)" onmousedown="handlePan(1,0)">
                  <use xlink:href="#rim" fill="#404040">
                        <set attributeName="fill" to="#808080" begin="arrowRight.mouseover" end="arrowRight.mouseout"/>
                  </use>
                  <path fill="none" stroke="white" stroke-width="1.5" d="M0,-3.0v7 M-2.5,-0.5L0,-3.0L2.5,-0.5"/>
                </g>
                <g id="arrowDown" xlink:href="#dirArrow" transform="rotate(180) translate(-30 -48)" onmousedown="handlePan(0,1)">
                  <use xlink:href="#rim" fill="#404040">
                        <set attributeName="fill" to="#808080" begin="arrowDown.mouseover" end="arrowDown.mouseout"/>
                  </use>
                  <path fill="none" stroke="white" stroke-width="1.5" d="M0,-3.0v7 M-2.5,-0.5L0,-3.0L2.5,-0.5"/>
                </g>
                <g id="arrowLeft" xlink:href="#dirArrow" transform="rotate(270) translate(-36 17)" onmousedown="handlePan(-1,0)">
                  <use xlink:href="#rim" fill="#404040">
                        <set attributeName="fill" to="#808080" begin="arrowLeft.mouseover" end="arrowLeft.mouseout"/>
                  </use>
                  <path fill="none" stroke="white" stroke-width="1.5" d="M0,-3.0v7 M-2.5,-0.5L0,-3.0L2.5,-0.5"/>
                </g>
        </g>
        <svg viewBox="0 0 15 15" width="100%" height="30px" preserveAspectRatio="xMaxYMin meet">
         <g id="arrow_out" transform="scale(0.3 0.3)">
          <a xlink:href="classRstPipeline__inherit__graph_org.svg" target="_base">
           <rect id="button" ry="5" rx="5" y="6" x="6" height="38" width="38"
                fill="#f2f5e9" fill-opacity="0.5" stroke="#606060" stroke-width="1.0"/>
           <path id="arrow"
             d="M 11.500037,31.436501 C 11.940474,20.09759 22.043105,11.32322 32.158766,21.979434 L 37.068811,17.246167 C 37.068811,17.246167 37.088388,32 37.088388,32 L 22.160133,31.978069 C 22.160133,31.978069 26.997745,27.140456 26.997745,27.140456 C 18.528582,18.264221 13.291696,25.230495 11.500037,31.436501 z"
             style="fill:#404040;"/>
          </a>
         </g>
        </svg>
</svg>
