<?xml version="1.0" encoding="UTF-8" standalone="no"?>
<!DOCTYPE svg PUBLIC "-//W3C//DTD SVG 1.1//EN"
 "http://www.w3.org/Graphics/SVG/1.1/DTD/svg11.dtd">
<!-- Generated by graphviz version 2.40.1 (20161225.0304)
 -->
<!-- Title: JesdTxReg Pages: 1 -->
<!--zoomable 332 -->
<svg id="main" version="1.1" xmlns="http://www.w3.org/2000/svg" xmlns:xlink="http://www.w3.org/1999/xlink" xml:space="preserve" onload="init(evt)">
<style type="text/css"><![CDATA[
.edge:hover path { stroke: red; }
.edge:hover polygon { stroke: red; fill: red; }
]]></style>
<script type="text/javascript"><![CDATA[
var edges = document.getElementsByTagName('g');
if (edges && edges.length) {
  for (var i=0;i<edges.length;i++) {
    if (edges[i].id.substr(0,4)=='edge') {
      edges[i].setAttribute('class','edge');
    }
  }
}
]]></script>
        <defs>
                <circle id="rim" cx="0" cy="0" r="7"/>
                <circle id="rim2" cx="0" cy="0" r="3.5"/>
                <g id="zoomPlus">
                        <use xlink:href="#rim" fill="#404040">
                                <set attributeName="fill" to="#808080" begin="zoomplus.mouseover" end="zoomplus.mouseout"/>
                        </use>
                        <path d="M-4,0h8M0,-4v8" fill="none" stroke="white" stroke-width="1.5" pointer-events="none"/>
                </g>
                <g id="zoomMin">
                        <use xlink:href="#rim" fill="#404040">
                                <set attributeName="fill" to="#808080" begin="zoomminus.mouseover" end="zoomminus.mouseout"/>
                        </use>
                        <path d="M-4,0h8" fill="none" stroke="white" stroke-width="1.5" pointer-events="none"/>
                </g>
                <g id="dirArrow">
                        <path fill="none" stroke="white" stroke-width="1.5" d="M0,-3.0v7 M-2.5,-0.5L0,-3.0L2.5,-0.5"/>
                </g>
               <g id="resetDef">
                       <use xlink:href="#rim2" fill="#404040">
                               <set attributeName="fill" to="#808080" begin="reset.mouseover" end="reset.mouseout"/>
                       </use>
               </g>
        </defs>

<script type="text/javascript">
var viewWidth = 1183;
var viewHeight = 332;
var sectionId = 'dynsection-1';
</script>
<script xlink:href="svgpan.js"/>
<svg id="graph" class="graph">
<g id="viewport">
<title>JesdTxReg</title>
<polygon fill="#ffffff" stroke="transparent" points="-4,4 -4,-328 1179,-328 1179,4 -4,4"/>
<!-- Node24 -->
<g id="node1" class="node">
<title>Node24</title>
<polygon fill="#bfbfbf" stroke="#000000" points="1108,-228.5 1108,-247.5 1175,-247.5 1175,-228.5 1108,-228.5"/>
<text text-anchor="middle" x="1141.5" y="-235.5" font-family="Helvetica,sans-Serif" font-size="10.00" fill="#000000">JesdTxReg</text>
</g>
<!-- Node25 -->
<g id="node2" class="node">
<title>Node25</title>
<g id="a_node2"><a xlink:href="classJesdSysrefMon.html" target="_top" xlink:title="JesdSysrefMon">
<polygon fill="#ffffff" stroke="#000000" points="603.5,-228.5 603.5,-247.5 691.5,-247.5 691.5,-228.5 603.5,-228.5"/>
<text text-anchor="middle" x="647.5" y="-235.5" font-family="Helvetica,sans-Serif" font-size="10.00" fill="#000000">JesdSysrefMon</text>
</a>
</g>
</g>
<!-- Node25&#45;&gt;Node24 -->
<g id="edge1" class="edge">
<title>Node25&#45;&gt;Node24</title>
<path fill="none" stroke="#191970" d="M701.9265,-238C804.5745,-238 1023.9772,-238 1107.9005,-238"/>
<polygon fill="#191970" stroke="#191970" points="701.774,-234.5001 691.774,-238 701.7739,-241.5001 701.774,-234.5001"/>
</g>
<!-- Node26 -->
<g id="node3" class="node">
<title>Node26</title>
<g id="a_node3"><a xlink:href="classSynchronizerOneShot.html" target="_top" xlink:title="SynchronizerOneShot">
<polygon fill="#ffffff" stroke="#000000" points="282.5,-266.5 282.5,-285.5 403.5,-285.5 403.5,-266.5 282.5,-266.5"/>
<text text-anchor="middle" x="343" y="-273.5" font-family="Helvetica,sans-Serif" font-size="10.00" fill="#000000">SynchronizerOneShot</text>
</a>
</g>
</g>
<!-- Node26&#45;&gt;Node25 -->
<g id="edge2" class="edge">
<title>Node26&#45;&gt;Node25</title>
<path fill="none" stroke="#191970" d="M399.9077,-264.5733C414.86,-261.8261 431.0009,-259.0864 446,-257 499.9442,-249.4963 562.4337,-244.1138 603.3452,-241.0347"/>
<polygon fill="#191970" stroke="#191970" points="398.9608,-261.1896 389.7747,-266.4684 400.2477,-268.0703 398.9608,-261.1896"/>
</g>
<!-- Node27 -->
<g id="node4" class="node">
<title>Node27</title>
<g id="a_node4"><a xlink:href="classRstSync.html" target="_top" xlink:title="RstSync">
<polygon fill="#ffffff" stroke="#000000" points="150,-304.5 150,-323.5 206,-323.5 206,-304.5 150,-304.5"/>
<text text-anchor="middle" x="178" y="-311.5" font-family="Helvetica,sans-Serif" font-size="10.00" fill="#000000">RstSync</text>
</a>
</g>
</g>
<!-- Node27&#45;&gt;Node26 -->
<g id="edge3" class="edge">
<title>Node27&#45;&gt;Node26</title>
<path fill="none" stroke="#191970" d="M216.4403,-305.1471C242.0164,-299.2568 275.5875,-291.5253 301.7269,-285.5053"/>
<polygon fill="#191970" stroke="#191970" points="215.3239,-301.8125 206.3645,-307.4676 216.8949,-308.6339 215.3239,-301.8125"/>
</g>
<!-- Node43 -->
<g id="node20" class="node">
<title>Node43</title>
<g id="a_node20"><a xlink:href="classSynchronizerOneShot.html" target="_top" xlink:title="SynchronizerOneShot(2)">
<polygon fill="#ffffff" stroke="#000000" points="276,-304.5 276,-323.5 410,-323.5 410,-304.5 276,-304.5"/>
<text text-anchor="middle" x="343" y="-311.5" font-family="Helvetica,sans-Serif" font-size="10.00" fill="#000000">SynchronizerOneShot(2)</text>
</a>
</g>
</g>
<!-- Node27&#45;&gt;Node43 -->
<g id="edge22" class="edge">
<title>Node27&#45;&gt;Node43</title>
<path fill="none" stroke="#191970" d="M216.8202,-314C234.4618,-314 255.8481,-314 275.9625,-314"/>
<polygon fill="#191970" stroke="#191970" points="216.3645,-310.5001 206.3645,-314 216.3645,-317.5001 216.3645,-310.5001"/>
</g>
<!-- Node28 -->
<g id="node5" class="node">
<title>Node28</title>
<g id="a_node5"><a xlink:href="classSynchronizer.html" target="_top" xlink:title="Synchronizer">
<polygon fill="#ffffff" stroke="#000000" points="0,-266.5 0,-285.5 80,-285.5 80,-266.5 0,-266.5"/>
<text text-anchor="middle" x="40" y="-273.5" font-family="Helvetica,sans-Serif" font-size="10.00" fill="#000000">Synchronizer</text>
</a>
</g>
</g>
<!-- Node28&#45;&gt;Node27 -->
<g id="edge4" class="edge">
<title>Node28&#45;&gt;Node27</title>
<path fill="none" stroke="#191970" d="M84.667,-288.2996C106.0329,-294.183 130.9688,-301.0494 149.6885,-306.2041"/>
<polygon fill="#191970" stroke="#191970" points="85.3936,-284.8695 74.8232,-285.589 83.5352,-291.6183 85.3936,-284.8695"/>
</g>
<!-- Node29 -->
<g id="node6" class="node">
<title>Node29</title>
<g id="a_node6"><a xlink:href="classSynchronizerEdge.html" target="_top" xlink:title="SynchronizerEdge">
<polygon fill="#ffffff" stroke="#000000" points="126,-266.5 126,-285.5 230,-285.5 230,-266.5 126,-266.5"/>
<text text-anchor="middle" x="178" y="-273.5" font-family="Helvetica,sans-Serif" font-size="10.00" fill="#000000">SynchronizerEdge</text>
</a>
</g>
</g>
<!-- Node28&#45;&gt;Node29 -->
<g id="edge6" class="edge">
<title>Node28&#45;&gt;Node29</title>
<path fill="none" stroke="#191970" d="M90.5861,-276C102.0702,-276 114.2884,-276 125.8366,-276"/>
<polygon fill="#191970" stroke="#191970" points="90.2863,-272.5001 80.2863,-276 90.2863,-279.5001 90.2863,-272.5001"/>
</g>
<!-- Node32 -->
<g id="node9" class="node">
<title>Node32</title>
<g id="a_node9"><a xlink:href="classRstSync.html" target="_top" xlink:title="RstSync(2)">
<polygon fill="#ffffff" stroke="#000000" points="143.5,-228.5 143.5,-247.5 212.5,-247.5 212.5,-228.5 143.5,-228.5"/>
<text text-anchor="middle" x="178" y="-235.5" font-family="Helvetica,sans-Serif" font-size="10.00" fill="#000000">RstSync(2)</text>
</a>
</g>
</g>
<!-- Node28&#45;&gt;Node32 -->
<g id="edge10" class="edge">
<title>Node28&#45;&gt;Node32</title>
<path fill="none" stroke="#191970" d="M84.473,-263.7538C103.4946,-258.516 125.3751,-252.4909 143.1879,-247.5859"/>
<polygon fill="#191970" stroke="#191970" points="83.5352,-260.3817 74.8232,-266.411 85.3936,-267.1305 83.5352,-260.3817"/>
</g>
<!-- Node29&#45;&gt;Node26 -->
<g id="edge5" class="edge">
<title>Node29&#45;&gt;Node26</title>
<path fill="none" stroke="#191970" d="M240.5412,-276C254.2915,-276 268.8288,-276 282.497,-276"/>
<polygon fill="#191970" stroke="#191970" points="240.2071,-272.5001 230.207,-276 240.207,-279.5001 240.2071,-272.5001"/>
</g>
<!-- Node29&#45;&gt;Node43 -->
<g id="edge23" class="edge">
<title>Node29&#45;&gt;Node43</title>
<path fill="none" stroke="#191970" d="M229.654,-287.8961C252.8465,-293.2374 279.8383,-299.4537 301.6629,-304.4799"/>
<polygon fill="#191970" stroke="#191970" points="230.1669,-284.4226 219.6365,-285.589 228.5959,-291.2441 230.1669,-284.4226"/>
</g>
<!-- Node30 -->
<g id="node7" class="node">
<title>Node30</title>
<g id="a_node7"><a xlink:href="classSynchronizerFifo.html" target="_top" xlink:title="SynchronizerFifo">
<polygon fill="#ffffff" stroke="#000000" points="446,-266.5 446,-285.5 543,-285.5 543,-266.5 446,-266.5"/>
<text text-anchor="middle" x="494.5" y="-273.5" font-family="Helvetica,sans-Serif" font-size="10.00" fill="#000000">SynchronizerFifo</text>
</a>
</g>
</g>
<!-- Node30&#45;&gt;Node25 -->
<g id="edge7" class="edge">
<title>Node30&#45;&gt;Node25</title>
<path fill="none" stroke="#191970" d="M542.9768,-263.96C564.3517,-258.6512 589.1134,-252.5012 609.1693,-247.5201"/>
<polygon fill="#191970" stroke="#191970" points="541.9698,-260.6037 533.1084,-266.411 543.6572,-267.3973 541.9698,-260.6037"/>
</g>
<!-- Node42 -->
<g id="node19" class="node">
<title>Node42</title>
<g id="a_node19"><a xlink:href="classSynchronizerOneShotCnt.html" target="_top" xlink:title="SynchronizerOneShotCnt">
<polygon fill="#ffffff" stroke="#000000" points="579,-304.5 579,-323.5 716,-323.5 716,-304.5 579,-304.5"/>
<text text-anchor="middle" x="647.5" y="-311.5" font-family="Helvetica,sans-Serif" font-size="10.00" fill="#000000">SynchronizerOneShotCnt</text>
</a>
</g>
</g>
<!-- Node30&#45;&gt;Node42 -->
<g id="edge24" class="edge">
<title>Node30&#45;&gt;Node42</title>
<path fill="none" stroke="#191970" d="M542.9768,-288.04C564.3517,-293.3488 589.1134,-299.4988 609.1693,-304.4799"/>
<polygon fill="#191970" stroke="#191970" points="543.6572,-284.6027 533.1084,-285.589 541.9698,-291.3963 543.6572,-284.6027"/>
</g>
<!-- Node31 -->
<g id="node8" class="node">
<title>Node31</title>
<g id="a_node8"><a xlink:href="classFifoAsync.html" target="_top" xlink:title="FifoAsync">
<polygon fill="#ffffff" stroke="#000000" points="311.5,-133.5 311.5,-152.5 374.5,-152.5 374.5,-133.5 311.5,-133.5"/>
<text text-anchor="middle" x="343" y="-140.5" font-family="Helvetica,sans-Serif" font-size="10.00" fill="#000000">FifoAsync</text>
</a>
</g>
</g>
<!-- Node31&#45;&gt;Node30 -->
<g id="edge8" class="edge">
<title>Node31&#45;&gt;Node30</title>
<path fill="none" stroke="#191970" d="M361.6118,-159.339C393.455,-187.2938 457.4511,-243.4752 483.2945,-266.1628"/>
<polygon fill="#191970" stroke="#191970" points="363.7196,-156.5321 353.8955,-152.565 359.1015,-161.7927 363.7196,-156.5321"/>
</g>
<!-- Node32&#45;&gt;Node31 -->
<g id="edge9" class="edge">
<title>Node32&#45;&gt;Node31</title>
<path fill="none" stroke="#191970" d="M222.1594,-226.4965C228.2831,-224.3203 234.3912,-221.8246 240,-219 277.1159,-200.3083 314.967,-168.3716 332.6747,-152.5136"/>
<polygon fill="#191970" stroke="#191970" points="220.9922,-223.1959 212.5933,-229.6543 223.1865,-229.8431 220.9922,-223.1959"/>
</g>
<!-- Node33 -->
<g id="node10" class="node">
<title>Node33</title>
<g id="a_node10"><a xlink:href="classSynchronizerVector.html" target="_top" xlink:title="SynchronizerVector(2)">
<polygon fill="#ffffff" stroke="#000000" points="116,-190.5 116,-209.5 240,-209.5 240,-190.5 116,-190.5"/>
<text text-anchor="middle" x="178" y="-197.5" font-family="Helvetica,sans-Serif" font-size="10.00" fill="#000000">SynchronizerVector(2)</text>
</a>
</g>
</g>
<!-- Node33&#45;&gt;Node31 -->
<g id="edge11" class="edge">
<title>Node33&#45;&gt;Node31</title>
<path fill="none" stroke="#191970" d="M219.9676,-187.4883C226.6874,-185.3846 233.5497,-183.1763 240,-181 266.9092,-171.9209 297.3867,-160.5376 318.1631,-152.6079"/>
<polygon fill="#191970" stroke="#191970" points="218.8095,-184.1828 210.289,-190.4797 220.8766,-190.8706 218.8095,-184.1828"/>
</g>
<!-- Node34 -->
<g id="node11" class="node">
<title>Node34</title>
<g id="a_node11"><a xlink:href="classSynchronizer.html" target="_top" xlink:title="Synchronizer(2)">
<polygon fill="#ffffff" stroke="#000000" points="131.5,-152.5 131.5,-171.5 224.5,-171.5 224.5,-152.5 131.5,-152.5"/>
<text text-anchor="middle" x="178" y="-159.5" font-family="Helvetica,sans-Serif" font-size="10.00" fill="#000000">Synchronizer(2)</text>
</a>
</g>
</g>
<!-- Node34&#45;&gt;Node31 -->
<g id="edge12" class="edge">
<title>Node34&#45;&gt;Node31</title>
<path fill="none" stroke="#191970" d="M234.8357,-155.4553C260.4883,-152.5013 289.8175,-149.124 311.4577,-146.6321"/>
<polygon fill="#191970" stroke="#191970" points="234.375,-151.9851 224.841,-156.6062 235.1758,-158.9392 234.375,-151.9851"/>
</g>
<!-- Node35 -->
<g id="node12" class="node">
<title>Node35</title>
<g id="a_node12"><a xlink:href="classFifoWrFsm.html" target="_top" xlink:title="FifoWrFsm">
<polygon fill="#ffffff" stroke="#000000" points="144.5,-114.5 144.5,-133.5 211.5,-133.5 211.5,-114.5 144.5,-114.5"/>
<text text-anchor="middle" x="178" y="-121.5" font-family="Helvetica,sans-Serif" font-size="10.00" fill="#000000">FifoWrFsm</text>
</a>
</g>
</g>
<!-- Node35&#45;&gt;Node31 -->
<g id="edge13" class="edge">
<title>Node35&#45;&gt;Node31</title>
<path fill="none" stroke="#191970" d="M221.8006,-129.0437C250.0294,-132.2943 286.0737,-136.4449 311.4927,-139.3719"/>
<polygon fill="#191970" stroke="#191970" points="222.1231,-125.5578 211.7884,-127.8908 221.3223,-132.5118 222.1231,-125.5578"/>
</g>
<!-- Node36 -->
<g id="node13" class="node">
<title>Node36</title>
<g id="a_node13"><a xlink:href="classFifoRdFsm.html" target="_top" xlink:title="FifoRdFsm">
<polygon fill="#ffffff" stroke="#000000" points="144.5,-76.5 144.5,-95.5 211.5,-95.5 211.5,-76.5 144.5,-76.5"/>
<text text-anchor="middle" x="178" y="-83.5" font-family="Helvetica,sans-Serif" font-size="10.00" fill="#000000">FifoRdFsm</text>
</a>
</g>
</g>
<!-- Node36&#45;&gt;Node31 -->
<g id="edge14" class="edge">
<title>Node36&#45;&gt;Node31</title>
<path fill="none" stroke="#191970" d="M219.9676,-98.5117C226.6874,-100.6154 233.5497,-102.8237 240,-105 266.9092,-114.0791 297.3867,-125.4624 318.1631,-133.3921"/>
<polygon fill="#191970" stroke="#191970" points="220.8766,-95.1294 210.289,-95.5203 218.8095,-101.8172 220.8766,-95.1294"/>
</g>
<!-- Node37 -->
<g id="node14" class="node">
<title>Node37</title>
<g id="a_node14"><a xlink:href="classSimpleDualPortRam.html" target="_top" xlink:title="SimpleDualPortRam">
<polygon fill="#ffffff" stroke="#000000" points="120.5,-38.5 120.5,-57.5 235.5,-57.5 235.5,-38.5 120.5,-38.5"/>
<text text-anchor="middle" x="178" y="-45.5" font-family="Helvetica,sans-Serif" font-size="10.00" fill="#000000">SimpleDualPortRam</text>
</a>
</g>
</g>
<!-- Node37&#45;&gt;Node31 -->
<g id="edge15" class="edge">
<title>Node37&#45;&gt;Node31</title>
<path fill="none" stroke="#191970" d="M226.2479,-61.0069C230.9821,-62.809 235.6418,-64.8052 240,-67 277.1159,-85.6917 314.967,-117.6284 332.6747,-133.4864"/>
<polygon fill="#191970" stroke="#191970" points="227.0932,-57.5942 216.4984,-57.5795 224.7716,-64.198 227.0932,-57.5942"/>
</g>
<!-- Node38 -->
<g id="node15" class="node">
<title>Node38</title>
<g id="a_node15"><a xlink:href="classFifoOutputPipeline.html" target="_top" xlink:title="FifoOutputPipeline">
<polygon fill="#ffffff" stroke="#000000" points="125,-.5 125,-19.5 231,-19.5 231,-.5 125,-.5"/>
<text text-anchor="middle" x="178" y="-7.5" font-family="Helvetica,sans-Serif" font-size="10.00" fill="#000000">FifoOutputPipeline</text>
</a>
</g>
</g>
<!-- Node38&#45;&gt;Node31 -->
<g id="edge16" class="edge">
<title>Node38&#45;&gt;Node31</title>
<path fill="none" stroke="#191970" d="M229.4078,-23.3022C233.1014,-24.9925 236.6757,-26.8846 240,-29 285.2325,-57.7828 322.9323,-111.6452 337.0436,-133.4607"/>
<polygon fill="#191970" stroke="#191970" points="230.6367,-20.0237 220.0546,-19.5038 228.0028,-26.5093 230.6367,-20.0237"/>
</g>
<!-- Node39 -->
<g id="node16" class="node">
<title>Node39</title>
<g id="a_node16"><a xlink:href="classSyncStatusVector.html" target="_top" xlink:title="SyncStatusVector">
<polygon fill="#ffffff" stroke="#000000" points="963.5,-266.5 963.5,-285.5 1064.5,-285.5 1064.5,-266.5 963.5,-266.5"/>
<text text-anchor="middle" x="1014" y="-273.5" font-family="Helvetica,sans-Serif" font-size="10.00" fill="#000000">SyncStatusVector</text>
</a>
</g>
</g>
<!-- Node39&#45;&gt;Node24 -->
<g id="edge17" class="edge">
<title>Node39&#45;&gt;Node24</title>
<path fill="none" stroke="#191970" d="M1056.0592,-263.4647C1073.4041,-258.2952 1093.1812,-252.4009 1109.3367,-247.5859"/>
<polygon fill="#191970" stroke="#191970" points="1054.7574,-260.2005 1046.1736,-266.411 1056.7568,-266.9089 1054.7574,-260.2005"/>
</g>
<!-- Node40 -->
<g id="node17" class="node">
<title>Node40</title>
<g id="a_node17"><a xlink:href="classSynchronizerVector.html" target="_top" xlink:title="SynchronizerVector">
<polygon fill="#ffffff" stroke="#000000" points="781,-266.5 781,-285.5 891,-285.5 891,-266.5 781,-266.5"/>
<text text-anchor="middle" x="836" y="-273.5" font-family="Helvetica,sans-Serif" font-size="10.00" fill="#000000">SynchronizerVector</text>
</a>
</g>
</g>
<!-- Node40&#45;&gt;Node39 -->
<g id="edge18" class="edge">
<title>Node40&#45;&gt;Node39</title>
<path fill="none" stroke="#191970" d="M901.4979,-276C921.8741,-276 944.0206,-276 963.2324,-276"/>
<polygon fill="#191970" stroke="#191970" points="901.3446,-272.5001 891.3446,-276 901.3446,-279.5001 901.3446,-272.5001"/>
</g>
<!-- Node41 -->
<g id="node18" class="node">
<title>Node41</title>
<g id="a_node18"><a xlink:href="classSynchronizerOneShotCntVector.html" target="_top" xlink:title="SynchronizerOneShotCntVector">
<polygon fill="#ffffff" stroke="#000000" points="752,-304.5 752,-323.5 920,-323.5 920,-304.5 752,-304.5"/>
<text text-anchor="middle" x="836" y="-311.5" font-family="Helvetica,sans-Serif" font-size="10.00" fill="#000000">SynchronizerOneShotCntVector</text>
</a>
</g>
</g>
<!-- Node41&#45;&gt;Node39 -->
<g id="edge19" class="edge">
<title>Node41&#45;&gt;Node39</title>
<path fill="none" stroke="#191970" d="M890.7162,-302.319C915.959,-296.9301 945.5452,-290.6139 969.4061,-285.5201"/>
<polygon fill="#191970" stroke="#191970" points="889.9658,-298.9003 880.9169,-304.411 891.4273,-305.746 889.9658,-298.9003"/>
</g>
<!-- Node42&#45;&gt;Node41 -->
<g id="edge20" class="edge">
<title>Node42&#45;&gt;Node41</title>
<path fill="none" stroke="#191970" d="M726.2491,-314C734.6652,-314 743.2509,-314 751.7277,-314"/>
<polygon fill="#191970" stroke="#191970" points="726.0861,-310.5001 716.0861,-314 726.086,-317.5001 726.0861,-310.5001"/>
</g>
<!-- Node43&#45;&gt;Node42 -->
<g id="edge21" class="edge">
<title>Node43&#45;&gt;Node42</title>
<path fill="none" stroke="#191970" d="M420.4084,-314C469.2671,-314 531.8134,-314 578.8899,-314"/>
<polygon fill="#191970" stroke="#191970" points="420.2008,-310.5001 410.2008,-314 420.2007,-317.5001 420.2008,-310.5001"/>
</g>
<!-- Node44 -->
<g id="node21" class="node">
<title>Node44</title>
<g id="a_node21"><a xlink:href="classRstPipelineVector.html" target="_top" xlink:title="RstPipelineVector(9)">
<polygon fill="#ffffff" stroke="#000000" points="956,-190.5 956,-209.5 1072,-209.5 1072,-190.5 956,-190.5"/>
<text text-anchor="middle" x="1014" y="-197.5" font-family="Helvetica,sans-Serif" font-size="10.00" fill="#000000">RstPipelineVector(9)</text>
</a>
</g>
</g>
<!-- Node44&#45;&gt;Node24 -->
<g id="edge25" class="edge">
<title>Node44&#45;&gt;Node24</title>
<path fill="none" stroke="#191970" d="M1056.0592,-212.5353C1073.4041,-217.7048 1093.1812,-223.5991 1109.3367,-228.4141"/>
<polygon fill="#191970" stroke="#191970" points="1056.7568,-209.0911 1046.1736,-209.589 1054.7574,-215.7995 1056.7568,-209.0911"/>
</g>
<!-- Node45 -->
<g id="node22" class="node">
<title>Node45</title>
<g id="a_node22"><a xlink:href="classRstPipeline.html" target="_top" xlink:title="RstPipeline">
<polygon fill="#ffffff" stroke="#000000" points="800.5,-190.5 800.5,-209.5 871.5,-209.5 871.5,-190.5 800.5,-190.5"/>
<text text-anchor="middle" x="836" y="-197.5" font-family="Helvetica,sans-Serif" font-size="10.00" fill="#000000">RstPipeline</text>
</a>
</g>
</g>
<!-- Node45&#45;&gt;Node44 -->
<g id="edge26" class="edge">
<title>Node45&#45;&gt;Node44</title>
<path fill="none" stroke="#191970" d="M881.8854,-200C904.3845,-200 931.7308,-200 955.694,-200"/>
<polygon fill="#191970" stroke="#191970" points="881.5932,-196.5001 871.5931,-200 881.5931,-203.5001 881.5932,-196.5001"/>
</g>
</g>
</svg>
        <g id="navigator" transform="translate(0 0)" fill="#404254">
                <rect fill="#f2f5e9" fill-opacity="0.5" stroke="#606060" stroke-width=".5" x="0" y="0" width="60" height="60"/>
                <use id="zoomplus" xlink:href="#zoomPlus" x="17" y="9" onmousedown="handleZoom(evt,'in')"/>
                <use id="zoomminus" xlink:href="#zoomMin" x="42" y="9" onmousedown="handleZoom(evt,'out')"/>
                <use id="reset" xlink:href="#resetDef" x="30" y="36" onmousedown="handleReset()"/>
                <g id="arrowUp" xlink:href="#dirArrow" transform="translate(30 24)" onmousedown="handlePan(0,-1)">
                  <use xlink:href="#rim" fill="#404040">
                        <set attributeName="fill" to="#808080" begin="arrowUp.mouseover" end="arrowUp.mouseout"/>
                  </use>
                  <path fill="none" stroke="white" stroke-width="1.5" d="M0,-3.0v7 M-2.5,-0.5L0,-3.0L2.5,-0.5"/>
                </g>
                <g id="arrowRight" xlink:href="#dirArrow" transform="rotate(90) translate(36 -43)" onmousedown="handlePan(1,0)">
                  <use xlink:href="#rim" fill="#404040">
                        <set attributeName="fill" to="#808080" begin="arrowRight.mouseover" end="arrowRight.mouseout"/>
                  </use>
                  <path fill="none" stroke="white" stroke-width="1.5" d="M0,-3.0v7 M-2.5,-0.5L0,-3.0L2.5,-0.5"/>
                </g>
                <g id="arrowDown" xlink:href="#dirArrow" transform="rotate(180) translate(-30 -48)" onmousedown="handlePan(0,1)">
                  <use xlink:href="#rim" fill="#404040">
                        <set attributeName="fill" to="#808080" begin="arrowDown.mouseover" end="arrowDown.mouseout"/>
                  </use>
                  <path fill="none" stroke="white" stroke-width="1.5" d="M0,-3.0v7 M-2.5,-0.5L0,-3.0L2.5,-0.5"/>
                </g>
                <g id="arrowLeft" xlink:href="#dirArrow" transform="rotate(270) translate(-36 17)" onmousedown="handlePan(-1,0)">
                  <use xlink:href="#rim" fill="#404040">
                        <set attributeName="fill" to="#808080" begin="arrowLeft.mouseover" end="arrowLeft.mouseout"/>
                  </use>
                  <path fill="none" stroke="white" stroke-width="1.5" d="M0,-3.0v7 M-2.5,-0.5L0,-3.0L2.5,-0.5"/>
                </g>
        </g>
        <svg viewBox="0 0 15 15" width="100%" height="30px" preserveAspectRatio="xMaxYMin meet">
         <g id="arrow_out" transform="scale(0.3 0.3)">
          <a xlink:href="classJesdTxReg__coll__graph_org.svg" target="_base">
           <rect id="button" ry="5" rx="5" y="6" x="6" height="38" width="38"
                fill="#f2f5e9" fill-opacity="0.5" stroke="#606060" stroke-width="1.0"/>
           <path id="arrow"
             d="M 11.500037,31.436501 C 11.940474,20.09759 22.043105,11.32322 32.158766,21.979434 L 37.068811,17.246167 C 37.068811,17.246167 37.088388,32 37.088388,32 L 22.160133,31.978069 C 22.160133,31.978069 26.997745,27.140456 26.997745,27.140456 C 18.528582,18.264221 13.291696,25.230495 11.500037,31.436501 z"
             style="fill:#404040;"/>
          </a>
         </g>
        </svg>
</svg>
