<?xml version="1.0" encoding="UTF-8" standalone="no"?>
<!DOCTYPE svg PUBLIC "-//W3C//DTD SVG 1.1//EN"
 "http://www.w3.org/Graphics/SVG/1.1/DTD/svg11.dtd">
<!-- Generated by graphviz version 2.40.1 (20161225.0304)
 -->
<!-- Title: SaltUltraScale Pages: 1 -->
<!--zoomable 414 -->
<svg id="main" version="1.1" xmlns="http://www.w3.org/2000/svg" xmlns:xlink="http://www.w3.org/1999/xlink" xml:space="preserve" onload="init(evt)">
<style type="text/css"><![CDATA[
.edge:hover path { stroke: red; }
.edge:hover polygon { stroke: red; fill: red; }
]]></style>
<script type="text/javascript"><![CDATA[
var edges = document.getElementsByTagName('g');
if (edges && edges.length) {
  for (var i=0;i<edges.length;i++) {
    if (edges[i].id.substr(0,4)=='edge') {
      edges[i].setAttribute('class','edge');
    }
  }
}
]]></script>
        <defs>
                <circle id="rim" cx="0" cy="0" r="7"/>
                <circle id="rim2" cx="0" cy="0" r="3.5"/>
                <g id="zoomPlus">
                        <use xlink:href="#rim" fill="#404040">
                                <set attributeName="fill" to="#808080" begin="zoomplus.mouseover" end="zoomplus.mouseout"/>
                        </use>
                        <path d="M-4,0h8M0,-4v8" fill="none" stroke="white" stroke-width="1.5" pointer-events="none"/>
                </g>
                <g id="zoomMin">
                        <use xlink:href="#rim" fill="#404040">
                                <set attributeName="fill" to="#808080" begin="zoomminus.mouseover" end="zoomminus.mouseout"/>
                        </use>
                        <path d="M-4,0h8" fill="none" stroke="white" stroke-width="1.5" pointer-events="none"/>
                </g>
                <g id="dirArrow">
                        <path fill="none" stroke="white" stroke-width="1.5" d="M0,-3.0v7 M-2.5,-0.5L0,-3.0L2.5,-0.5"/>
                </g>
               <g id="resetDef">
                       <use xlink:href="#rim2" fill="#404040">
                               <set attributeName="fill" to="#808080" begin="reset.mouseover" end="reset.mouseout"/>
                       </use>
               </g>
        </defs>

<script type="text/javascript">
var viewWidth = 1147;
var viewHeight = 414;
var sectionId = 'dynsection-1';
</script>
<script xlink:href="svgpan.js"/>
<svg id="graph" class="graph">
<g id="viewport">
<title>SaltUltraScale</title>
<polygon fill="#ffffff" stroke="transparent" points="-4,4 -4,-410.045 1143,-410.045 1143,4 -4,4"/>
<!-- Node29 -->
<g id="node1" class="node">
<title>Node29</title>
<polygon fill="#bfbfbf" stroke="#000000" points="1053,-190.5 1053,-209.5 1139,-209.5 1139,-190.5 1053,-190.5"/>
<text text-anchor="middle" x="1096" y="-197.5" font-family="Helvetica,sans-Serif" font-size="10.00" fill="#000000">SaltUltraScale</text>
</g>
<!-- Node30 -->
<g id="node2" class="node">
<title>Node30</title>
<g id="a_node2"><a xlink:href="classSaltTx.html" target="_top" xlink:title="SaltTx">
<polygon fill="#ffffff" stroke="#000000" points="885.5,-228.5 885.5,-247.5 932.5,-247.5 932.5,-228.5 885.5,-228.5"/>
<text text-anchor="middle" x="909" y="-235.5" font-family="Helvetica,sans-Serif" font-size="10.00" fill="#000000">SaltTx</text>
</a>
</g>
</g>
<!-- Node30&#45;&gt;Node29 -->
<g id="edge1" class="edge">
<title>Node30&#45;&gt;Node29</title>
<path fill="none" stroke="#191970" d="M942.5343,-231.1855C973.4033,-224.9127 1019.3574,-215.5744 1052.9315,-208.7519"/>
<polygon fill="#191970" stroke="#191970" points="941.7864,-227.7659 932.6837,-233.1873 943.1804,-234.6257 941.7864,-227.7659"/>
</g>
<!-- Node31 -->
<g id="node3" class="node">
<title>Node31</title>
<g id="a_node3"><a xlink:href="classAxiStreamFifoV2.html" target="_top" xlink:title="AxiStreamFifoV2(2)">
<polygon fill="#ffffff" stroke="#000000" points="738,-228.5 738,-247.5 849,-247.5 849,-228.5 738,-228.5"/>
<text text-anchor="middle" x="793.5" y="-235.5" font-family="Helvetica,sans-Serif" font-size="10.00" fill="#000000">AxiStreamFifoV2(2)</text>
</a>
</g>
</g>
<!-- Node31&#45;&gt;Node30 -->
<g id="edge2" class="edge">
<title>Node31&#45;&gt;Node30</title>
<path fill="none" stroke="#191970" d="M859.315,-238C868.5588,-238 877.5214,-238 885.2302,-238"/>
<polygon fill="#191970" stroke="#191970" points="859.2201,-234.5001 849.2201,-238 859.2201,-241.5001 859.2201,-234.5001"/>
</g>
<!-- Node32 -->
<g id="node4" class="node">
<title>Node32</title>
<g id="a_node4"><a xlink:href="classAxiStreamResize.html" target="_top" xlink:title="AxiStreamResize(2)">
<polygon fill="#ffffff" stroke="#000000" points="589,-152.5 589,-171.5 702,-171.5 702,-152.5 589,-152.5"/>
<text text-anchor="middle" x="645.5" y="-159.5" font-family="Helvetica,sans-Serif" font-size="10.00" fill="#000000">AxiStreamResize(2)</text>
</a>
</g>
</g>
<!-- Node32&#45;&gt;Node31 -->
<g id="edge3" class="edge">
<title>Node32&#45;&gt;Node31</title>
<path fill="none" stroke="#191970" d="M682.7417,-175.6763C689.3612,-178.7009 696.0389,-182.1638 702,-186 720.2522,-197.7459 719.3377,-207.9172 738,-219 744.3048,-222.7442 751.4533,-225.8852 758.4722,-228.4661"/>
<polygon fill="#191970" stroke="#191970" points="683.7448,-172.2979 673.1753,-171.5659 680.9814,-178.7294 683.7448,-172.2979"/>
</g>
<!-- Node52 -->
<g id="node24" class="node">
<title>Node52</title>
<g id="a_node24"><a xlink:href="classAxiStreamFifoV2.html" target="_top" xlink:title="AxiStreamFifoV2">
<polygon fill="#ffffff" stroke="#000000" points="744.5,-114.5 744.5,-133.5 842.5,-133.5 842.5,-114.5 744.5,-114.5"/>
<text text-anchor="middle" x="793.5" y="-121.5" font-family="Helvetica,sans-Serif" font-size="10.00" fill="#000000">AxiStreamFifoV2</text>
</a>
</g>
</g>
<!-- Node32&#45;&gt;Node52 -->
<g id="edge32" class="edge">
<title>Node32&#45;&gt;Node52</title>
<path fill="none" stroke="#191970" d="M692.6735,-149.8879C713.2856,-144.5956 737.1093,-138.4787 756.4219,-133.5201"/>
<polygon fill="#191970" stroke="#191970" points="691.662,-146.534 682.8466,-152.411 693.4029,-153.3141 691.662,-146.534"/>
</g>
<!-- Node33 -->
<g id="node5" class="node">
<title>Node33</title>
<g id="a_node5"><a xlink:href="classAxiStreamPipeline.html" target="_top" xlink:title="AxiStreamPipeline">
<polygon fill="#ffffff" stroke="#000000" points="446,-152.5 446,-171.5 553,-171.5 553,-152.5 446,-152.5"/>
<text text-anchor="middle" x="499.5" y="-159.5" font-family="Helvetica,sans-Serif" font-size="10.00" fill="#000000">AxiStreamPipeline</text>
</a>
</g>
</g>
<!-- Node33&#45;&gt;Node31 -->
<g id="edge26" class="edge">
<title>Node33&#45;&gt;Node31</title>
<path fill="none" stroke="#191970" d="M546.1362,-174.0556C604.4466,-189.1291 703.0781,-214.6256 756.4822,-228.4308"/>
<polygon fill="#191970" stroke="#191970" points="546.9954,-170.6627 536.4376,-171.5485 545.2434,-177.4399 546.9954,-170.6627"/>
</g>
<!-- Node33&#45;&gt;Node32 -->
<g id="edge4" class="edge">
<title>Node33&#45;&gt;Node32</title>
<path fill="none" stroke="#191970" d="M563.2027,-162C571.6312,-162 580.2279,-162 588.5332,-162"/>
<polygon fill="#191970" stroke="#191970" points="563.036,-158.5001 553.036,-162 563.0359,-165.5001 563.036,-158.5001"/>
</g>
<!-- Node33&#45;&gt;Node52 -->
<g id="edge35" class="edge">
<title>Node33&#45;&gt;Node52</title>
<path fill="none" stroke="#191970" d="M549.4584,-150.3195C562.2913,-147.6154 576.113,-144.9597 589,-143 641.7004,-134.9858 702.5906,-129.8522 744.1323,-126.9679"/>
<polygon fill="#191970" stroke="#191970" points="548.4523,-146.956 539.4154,-152.4862 549.9286,-153.7985 548.4523,-146.956"/>
</g>
<!-- Node34 -->
<g id="node6" class="node">
<title>Node34</title>
<g id="a_node6"><a xlink:href="classFifoCascade.html" target="_top" xlink:title="FifoCascade(2)">
<polygon fill="#ffffff" stroke="#000000" points="601,-228.5 601,-247.5 690,-247.5 690,-228.5 601,-228.5"/>
<text text-anchor="middle" x="645.5" y="-235.5" font-family="Helvetica,sans-Serif" font-size="10.00" fill="#000000">FifoCascade(2)</text>
</a>
</g>
</g>
<!-- Node34&#45;&gt;Node31 -->
<g id="edge5" class="edge">
<title>Node34&#45;&gt;Node31</title>
<path fill="none" stroke="#191970" d="M700.3735,-238C712.6061,-238 725.5872,-238 737.8507,-238"/>
<polygon fill="#191970" stroke="#191970" points="700.3066,-234.5001 690.3065,-238 700.3065,-241.5001 700.3066,-234.5001"/>
</g>
<!-- Node34&#45;&gt;Node52 -->
<g id="edge33" class="edge">
<title>Node34&#45;&gt;Node52</title>
<path fill="none" stroke="#191970" d="M662.288,-221.2631C673.5799,-209.9568 688.7643,-194.6583 702,-181 718.1899,-164.2931 718.4278,-155.5763 738,-143 743.912,-139.2012 750.6689,-136.0699 757.3859,-133.5222"/>
<polygon fill="#191970" stroke="#191970" points="659.7626,-218.8387 655.1642,-228.3836 664.7112,-223.7897 659.7626,-218.8387"/>
</g>
<!-- Node35 -->
<g id="node7" class="node">
<title>Node35</title>
<g id="a_node7"><a xlink:href="classFifo.html" target="_top" xlink:title="Fifo(4)">
<polygon fill="#ffffff" stroke="#000000" points="476,-190.5 476,-209.5 523,-209.5 523,-190.5 476,-190.5"/>
<text text-anchor="middle" x="499.5" y="-197.5" font-family="Helvetica,sans-Serif" font-size="10.00" fill="#000000">Fifo(4)</text>
</a>
</g>
</g>
<!-- Node35&#45;&gt;Node34 -->
<g id="edge6" class="edge">
<title>Node35&#45;&gt;Node34</title>
<path fill="none" stroke="#191970" d="M533.129,-208.7527C555.7723,-214.6462 585.6269,-222.4166 608.8722,-228.4667"/>
<polygon fill="#191970" stroke="#191970" points="533.8416,-205.3217 523.2824,-206.1899 532.0783,-212.096 533.8416,-205.3217"/>
</g>
<!-- Node36 -->
<g id="node8" class="node">
<title>Node36</title>
<g id="a_node8"><a xlink:href="classFifoXpm.html" target="_top" xlink:title="FifoXpm">
<polygon fill="#ffffff" stroke="#000000" points="315,-114.5 315,-133.5 371,-133.5 371,-114.5 315,-114.5"/>
<text text-anchor="middle" x="343" y="-121.5" font-family="Helvetica,sans-Serif" font-size="10.00" fill="#000000">FifoXpm</text>
</a>
</g>
</g>
<!-- Node36&#45;&gt;Node35 -->
<g id="edge7" class="edge">
<title>Node36&#45;&gt;Node35</title>
<path fill="none" stroke="#191970" d="M380.8035,-130.9334C390.747,-133.7495 401.1568,-137.6464 410,-143 429.9016,-155.0482 426.4999,-168.3122 446,-181 455.0052,-186.8593 466.041,-191.1735 475.7455,-194.1962"/>
<polygon fill="#191970" stroke="#191970" points="381.6449,-127.536 371.0907,-128.4636 379.9198,-134.3201 381.6449,-127.536"/>
</g>
<!-- Node37 -->
<g id="node9" class="node">
<title>Node37</title>
<g id="a_node9"><a xlink:href="classFifoOutputPipeline.html" target="_top" xlink:title="FifoOutputPipeline">
<polygon fill="#ffffff" stroke="#000000" points="125,-114.5 125,-133.5 231,-133.5 231,-114.5 125,-114.5"/>
<text text-anchor="middle" x="178" y="-121.5" font-family="Helvetica,sans-Serif" font-size="10.00" fill="#000000">FifoOutputPipeline</text>
</a>
</g>
</g>
<!-- Node37&#45;&gt;Node36 -->
<g id="edge8" class="edge">
<title>Node37&#45;&gt;Node36</title>
<path fill="none" stroke="#191970" d="M241.4452,-124C266.8539,-124 294.8135,-124 314.9516,-124"/>
<polygon fill="#191970" stroke="#191970" points="241.1153,-120.5001 231.1153,-124 241.1152,-127.5001 241.1153,-120.5001"/>
</g>
<!-- Node38 -->
<g id="node10" class="node">
<title>Node38</title>
<g id="a_node10"><a xlink:href="classFifoAlteraMf.html" target="_top" xlink:title="FifoAlteraMf">
<polygon fill="#ffffff" stroke="#000000" points="305.5,-152.5 305.5,-171.5 380.5,-171.5 380.5,-152.5 305.5,-152.5"/>
<text text-anchor="middle" x="343" y="-159.5" font-family="Helvetica,sans-Serif" font-size="10.00" fill="#000000">FifoAlteraMf</text>
</a>
</g>
</g>
<!-- Node37&#45;&gt;Node38 -->
<g id="edge10" class="edge">
<title>Node37&#45;&gt;Node38</title>
<path fill="none" stroke="#191970" d="M229.5081,-135.8625C254.0484,-141.5142 282.8694,-148.1517 305.3267,-153.3237"/>
<polygon fill="#191970" stroke="#191970" points="230.1669,-132.4226 219.6365,-133.589 228.5959,-139.2441 230.1669,-132.4226"/>
</g>
<!-- Node39 -->
<g id="node11" class="node">
<title>Node39</title>
<g id="a_node11"><a xlink:href="classFifoAsync.html" target="_top" xlink:title="FifoAsync">
<polygon fill="#ffffff" stroke="#000000" points="311.5,-228.5 311.5,-247.5 374.5,-247.5 374.5,-228.5 311.5,-228.5"/>
<text text-anchor="middle" x="343" y="-235.5" font-family="Helvetica,sans-Serif" font-size="10.00" fill="#000000">FifoAsync</text>
</a>
</g>
</g>
<!-- Node37&#45;&gt;Node39 -->
<g id="edge19" class="edge">
<title>Node37&#45;&gt;Node39</title>
<path fill="none" stroke="#191970" d="M233.6666,-138.3245C235.8996,-139.7388 238.0253,-141.2927 240,-143 268.2736,-167.4446 247.4708,-194.8541 276,-219 285.8749,-227.3577 299.1998,-232.0481 311.3655,-234.6768"/>
<polygon fill="#191970" stroke="#191970" points="235.0891,-135.1175 224.6135,-133.5326 231.8143,-141.3042 235.0891,-135.1175"/>
</g>
<!-- Node47 -->
<g id="node19" class="node">
<title>Node47</title>
<g id="a_node19"><a xlink:href="classFifoSync.html" target="_top" xlink:title="FifoSync">
<polygon fill="#ffffff" stroke="#000000" points="314.5,-190.5 314.5,-209.5 371.5,-209.5 371.5,-190.5 314.5,-190.5"/>
<text text-anchor="middle" x="343" y="-197.5" font-family="Helvetica,sans-Serif" font-size="10.00" fill="#000000">FifoSync</text>
</a>
</g>
</g>
<!-- Node37&#45;&gt;Node47 -->
<g id="edge24" class="edge">
<title>Node37&#45;&gt;Node47</title>
<path fill="none" stroke="#191970" d="M229.1786,-137.3122C232.9464,-139.0024 236.5986,-140.8916 240,-143 259.7738,-155.2569 256.0984,-168.9518 276,-181 287.5841,-188.0129 301.8563,-192.5262 314.2473,-195.3848"/>
<polygon fill="#191970" stroke="#191970" points="230.2369,-133.9661 219.6519,-133.509 227.6415,-140.4672 230.2369,-133.9661"/>
</g>
<!-- Node38&#45;&gt;Node35 -->
<g id="edge9" class="edge">
<title>Node38&#45;&gt;Node35</title>
<path fill="none" stroke="#191970" d="M390.9057,-173.6321C418.9528,-180.4422 453.1541,-188.7467 475.5873,-194.1937"/>
<polygon fill="#191970" stroke="#191970" points="391.4278,-170.1572 380.8843,-171.1987 389.7761,-176.9595 391.4278,-170.1572"/>
</g>
<!-- Node39&#45;&gt;Node35 -->
<g id="edge11" class="edge">
<title>Node39&#45;&gt;Node35</title>
<path fill="none" stroke="#191970" d="M384.5463,-227.9121C413.6004,-220.8574 451.3828,-211.6834 475.5447,-205.8166"/>
<polygon fill="#191970" stroke="#191970" points="383.5619,-224.5493 374.6701,-230.3101 385.2136,-231.3517 383.5619,-224.5493"/>
</g>
<!-- Node40 -->
<g id="node12" class="node">
<title>Node40</title>
<g id="a_node12"><a xlink:href="classRstSync.html" target="_top" xlink:title="RstSync(2)">
<polygon fill="#ffffff" stroke="#000000" points="143.5,-304.5 143.5,-323.5 212.5,-323.5 212.5,-304.5 143.5,-304.5"/>
<text text-anchor="middle" x="178" y="-311.5" font-family="Helvetica,sans-Serif" font-size="10.00" fill="#000000">RstSync(2)</text>
</a>
</g>
</g>
<!-- Node40&#45;&gt;Node39 -->
<g id="edge12" class="edge">
<title>Node40&#45;&gt;Node39</title>
<path fill="none" stroke="#191970" d="M222.4974,-301.5951C228.4516,-299.5785 234.4234,-297.367 240,-295 272.7346,-281.1057 308.554,-259.7664 328.1423,-247.5215"/>
<polygon fill="#191970" stroke="#191970" points="221.0089,-298.3976 212.566,-304.7983 223.1576,-305.0597 221.0089,-298.3976"/>
</g>
<!-- Node41 -->
<g id="node13" class="node">
<title>Node41</title>
<g id="a_node13"><a xlink:href="classSynchronizer.html" target="_top" xlink:title="Synchronizer">
<polygon fill="#ffffff" stroke="#000000" points="0,-76.5 0,-95.5 80,-95.5 80,-76.5 0,-76.5"/>
<text text-anchor="middle" x="40" y="-83.5" font-family="Helvetica,sans-Serif" font-size="10.00" fill="#000000">Synchronizer</text>
</a>
</g>
</g>
<!-- Node41&#45;&gt;Node31 -->
<g id="edge25" class="edge">
<title>Node41&#45;&gt;Node31</title>
<path fill="none" stroke="#191970" d="M42.3363,-105.7686C49.71,-164.5398 74.4905,-336.2599 116,-371 193.639,-435.9774 241.7583,-390 343,-390 343,-390 343,-390 499.5,-390 620.8677,-390 627.1443,-306.4078 738,-257 745.7209,-253.5588 754.2693,-250.3518 762.2971,-247.5888"/>
<polygon fill="#191970" stroke="#191970" points="45.7803,-105.0963 41.0938,-95.5944 38.8319,-105.9449 45.7803,-105.0963"/>
</g>
<!-- Node41&#45;&gt;Node40 -->
<g id="edge13" class="edge">
<title>Node41&#45;&gt;Node40</title>
<path fill="none" stroke="#191970" d="M41.4349,-105.5656C45.5074,-146.6651 60.7304,-242.5009 116,-295 123.4279,-302.0556 133.4093,-306.4959 143.1901,-309.2887"/>
<polygon fill="#191970" stroke="#191970" points="44.9133,-105.1646 40.5579,-95.5064 37.9398,-105.7726 44.9133,-105.1646"/>
</g>
<!-- Node41&#45;&gt;Node52 -->
<g id="edge34" class="edge">
<title>Node41&#45;&gt;Node52</title>
<path fill="none" stroke="#191970" d="M90.544,-86C150.6957,-86 254.1719,-86 343,-86 343,-86 343,-86 499.5,-86 588.022,-86 690.3088,-103.1538 747.9038,-114.411"/>
<polygon fill="#191970" stroke="#191970" points="90.1903,-82.5001 80.1903,-86 90.1903,-89.5001 90.1903,-82.5001"/>
</g>
<!-- Node54 -->
<g id="node26" class="node">
<title>Node54</title>
<g id="a_node26"><a xlink:href="classRstSync.html" target="_top" xlink:title="RstSync">
<polygon fill="#ffffff" stroke="#000000" points="150,-38.5 150,-57.5 206,-57.5 206,-38.5 150,-38.5"/>
<text text-anchor="middle" x="178" y="-45.5" font-family="Helvetica,sans-Serif" font-size="10.00" fill="#000000">RstSync</text>
</a>
</g>
</g>
<!-- Node41&#45;&gt;Node54 -->
<g id="edge38" class="edge">
<title>Node41&#45;&gt;Node54</title>
<path fill="none" stroke="#191970" d="M84.667,-73.7004C106.0329,-67.817 130.9688,-60.9506 149.6885,-55.7959"/>
<polygon fill="#191970" stroke="#191970" points="83.5352,-70.3817 74.8232,-76.411 85.3936,-77.1305 83.5352,-70.3817"/>
</g>
<!-- Node55 -->
<g id="node27" class="node">
<title>Node55</title>
<g id="a_node27"><a xlink:href="classSynchronizerEdge.html" target="_top" xlink:title="SynchronizerEdge">
<polygon fill="#ffffff" stroke="#000000" points="126,-.5 126,-19.5 230,-19.5 230,-.5 126,-.5"/>
<text text-anchor="middle" x="178" y="-7.5" font-family="Helvetica,sans-Serif" font-size="10.00" fill="#000000">SynchronizerEdge</text>
</a>
</g>
</g>
<!-- Node41&#45;&gt;Node55 -->
<g id="edge40" class="edge">
<title>Node41&#45;&gt;Node55</title>
<path fill="none" stroke="#191970" d="M58.3137,-69.3759C72.9974,-56.7922 94.6163,-39.8739 116,-29 123.3256,-25.2749 131.5148,-22.1292 139.4794,-19.5356"/>
<polygon fill="#191970" stroke="#191970" points="55.7357,-66.9815 50.5238,-76.2057 60.3504,-72.245 55.7357,-66.9815"/>
</g>
<!-- Node42 -->
<g id="node14" class="node">
<title>Node42</title>
<g id="a_node14"><a xlink:href="classSynchronizerVector.html" target="_top" xlink:title="SynchronizerVector(2)">
<polygon fill="#ffffff" stroke="#000000" points="116,-266.5 116,-285.5 240,-285.5 240,-266.5 116,-266.5"/>
<text text-anchor="middle" x="178" y="-273.5" font-family="Helvetica,sans-Serif" font-size="10.00" fill="#000000">SynchronizerVector(2)</text>
</a>
</g>
</g>
<!-- Node42&#45;&gt;Node39 -->
<g id="edge14" class="edge">
<title>Node42&#45;&gt;Node39</title>
<path fill="none" stroke="#191970" d="M229.6101,-264.114C256.3549,-257.9546 288.1616,-250.6294 311.2718,-245.3071"/>
<polygon fill="#191970" stroke="#191970" points="228.5959,-260.7559 219.6365,-266.411 230.1669,-267.5774 228.5959,-260.7559"/>
</g>
<!-- Node43 -->
<g id="node15" class="node">
<title>Node43</title>
<g id="a_node15"><a xlink:href="classSynchronizer.html" target="_top" xlink:title="Synchronizer(2)">
<polygon fill="#ffffff" stroke="#000000" points="131.5,-342.5 131.5,-361.5 224.5,-361.5 224.5,-342.5 131.5,-342.5"/>
<text text-anchor="middle" x="178" y="-349.5" font-family="Helvetica,sans-Serif" font-size="10.00" fill="#000000">Synchronizer(2)</text>
</a>
</g>
</g>
<!-- Node43&#45;&gt;Node39 -->
<g id="edge15" class="edge">
<title>Node43&#45;&gt;Node39</title>
<path fill="none" stroke="#191970" d="M228.1557,-338.7995C232.263,-337.0717 236.2656,-335.1441 240,-333 281.1386,-309.3805 319.3673,-266.6234 335.2499,-247.588"/>
<polygon fill="#191970" stroke="#191970" points="226.5683,-335.6582 218.4591,-342.4766 229.0504,-342.2034 226.5683,-335.6582"/>
</g>
<!-- Node44 -->
<g id="node16" class="node">
<title>Node44</title>
<g id="a_node16"><a xlink:href="classFifoWrFsm.html" target="_top" xlink:title="FifoWrFsm">
<polygon fill="#ffffff" stroke="#000000" points="144.5,-190.5 144.5,-209.5 211.5,-209.5 211.5,-190.5 144.5,-190.5"/>
<text text-anchor="middle" x="178" y="-197.5" font-family="Helvetica,sans-Serif" font-size="10.00" fill="#000000">FifoWrFsm</text>
</a>
</g>
</g>
<!-- Node44&#45;&gt;Node39 -->
<g id="edge16" class="edge">
<title>Node44&#45;&gt;Node39</title>
<path fill="none" stroke="#191970" d="M221.8006,-210.0874C250.0294,-216.5886 286.0737,-224.8897 311.4927,-230.7438"/>
<polygon fill="#191970" stroke="#191970" points="222.3188,-206.6152 211.7884,-207.7816 220.7478,-213.4366 222.3188,-206.6152"/>
</g>
<!-- Node44&#45;&gt;Node47 -->
<g id="edge21" class="edge">
<title>Node44&#45;&gt;Node47</title>
<path fill="none" stroke="#191970" d="M222.1701,-200C251.4707,-200 289.0652,-200 314.4792,-200"/>
<polygon fill="#191970" stroke="#191970" points="221.7884,-196.5001 211.7884,-200 221.7883,-203.5001 221.7884,-196.5001"/>
</g>
<!-- Node45 -->
<g id="node17" class="node">
<title>Node45</title>
<g id="a_node17"><a xlink:href="classFifoRdFsm.html" target="_top" xlink:title="FifoRdFsm">
<polygon fill="#ffffff" stroke="#000000" points="144.5,-152.5 144.5,-171.5 211.5,-171.5 211.5,-152.5 144.5,-152.5"/>
<text text-anchor="middle" x="178" y="-159.5" font-family="Helvetica,sans-Serif" font-size="10.00" fill="#000000">FifoRdFsm</text>
</a>
</g>
</g>
<!-- Node45&#45;&gt;Node39 -->
<g id="edge17" class="edge">
<title>Node45&#45;&gt;Node39</title>
<path fill="none" stroke="#191970" d="M221.13,-172.0436C227.702,-174.4611 234.2139,-177.4134 240,-181 259.7738,-193.2569 256.0984,-206.9518 276,-219 286.6532,-225.4494 299.5799,-229.7847 311.2261,-232.6632"/>
<polygon fill="#191970" stroke="#191970" points="222.1292,-168.6876 211.5359,-168.8726 219.9324,-175.334 222.1292,-168.6876"/>
</g>
<!-- Node45&#45;&gt;Node47 -->
<g id="edge22" class="edge">
<title>Node45&#45;&gt;Node47</title>
<path fill="none" stroke="#191970" d="M221.7851,-172.0838C251.1407,-178.8445 288.9537,-187.553 314.4792,-193.4316"/>
<polygon fill="#191970" stroke="#191970" points="222.3188,-168.6152 211.7884,-169.7816 220.7478,-175.4366 222.3188,-168.6152"/>
</g>
<!-- Node46 -->
<g id="node18" class="node">
<title>Node46</title>
<g id="a_node18"><a xlink:href="classSimpleDualPortRam.html" target="_top" xlink:title="SimpleDualPortRam">
<polygon fill="#ffffff" stroke="#000000" points="120.5,-228.5 120.5,-247.5 235.5,-247.5 235.5,-228.5 120.5,-228.5"/>
<text text-anchor="middle" x="178" y="-235.5" font-family="Helvetica,sans-Serif" font-size="10.00" fill="#000000">SimpleDualPortRam</text>
</a>
</g>
</g>
<!-- Node46&#45;&gt;Node39 -->
<g id="edge18" class="edge">
<title>Node46&#45;&gt;Node39</title>
<path fill="none" stroke="#191970" d="M245.9364,-238C268.4805,-238 292.5229,-238 311.0396,-238"/>
<polygon fill="#191970" stroke="#191970" points="245.709,-234.5001 235.709,-238 245.709,-241.5001 245.709,-234.5001"/>
</g>
<!-- Node46&#45;&gt;Node47 -->
<g id="edge23" class="edge">
<title>Node46&#45;&gt;Node47</title>
<path fill="none" stroke="#191970" d="M229.6552,-226.1037C257.6054,-219.6666 291.0735,-211.9588 314.3652,-206.5947"/>
<polygon fill="#191970" stroke="#191970" points="228.5959,-222.7559 219.6365,-228.411 230.1669,-229.5774 228.5959,-222.7559"/>
</g>
<!-- Node47&#45;&gt;Node35 -->
<g id="edge20" class="edge">
<title>Node47&#45;&gt;Node35</title>
<path fill="none" stroke="#191970" d="M382.0315,-200C411.4057,-200 450.7243,-200 475.5873,-200"/>
<polygon fill="#191970" stroke="#191970" points="381.7045,-196.5001 371.7045,-200 381.7045,-203.5001 381.7045,-196.5001"/>
</g>
<!-- Node48 -->
<g id="node20" class="node">
<title>Node48</title>
<g id="a_node20"><a xlink:href="classSaltTxResize.html" target="_top" xlink:title="SaltTxResize">
<polygon fill="#ffffff" stroke="#000000" points="754,-266.5 754,-285.5 833,-285.5 833,-266.5 754,-266.5"/>
<text text-anchor="middle" x="793.5" y="-273.5" font-family="Helvetica,sans-Serif" font-size="10.00" fill="#000000">SaltTxResize</text>
</a>
</g>
</g>
<!-- Node48&#45;&gt;Node30 -->
<g id="edge27" class="edge">
<title>Node48&#45;&gt;Node30</title>
<path fill="none" stroke="#191970" d="M832.5923,-263.1385C850.0835,-257.3838 870.1332,-250.7874 885.3045,-245.7959"/>
<polygon fill="#191970" stroke="#191970" points="831.0508,-259.961 822.6455,-266.411 833.2385,-266.6104 831.0508,-259.961"/>
</g>
<!-- Node49 -->
<g id="node21" class="node">
<title>Node49</title>
<g id="a_node21"><a xlink:href="classSaltRx.html" target="_top" xlink:title="SaltRx">
<polygon fill="#ffffff" stroke="#000000" points="969,-171.5 969,-190.5 1017,-190.5 1017,-171.5 969,-171.5"/>
<text text-anchor="middle" x="993" y="-178.5" font-family="Helvetica,sans-Serif" font-size="10.00" fill="#000000">SaltRx</text>
</a>
</g>
</g>
<!-- Node49&#45;&gt;Node29 -->
<g id="edge28" class="edge">
<title>Node49&#45;&gt;Node29</title>
<path fill="none" stroke="#191970" d="M1027.0763,-187.2859C1035.2518,-188.794 1044.0913,-190.4246 1052.6254,-191.9989"/>
<polygon fill="#191970" stroke="#191970" points="1027.618,-183.8269 1017.1489,-185.4547 1026.3481,-190.7107 1027.618,-183.8269"/>
</g>
<!-- Node50 -->
<g id="node22" class="node">
<title>Node50</title>
<g id="a_node22"><a xlink:href="classSsiFifo.html" target="_top" xlink:title="SsiFifo">
<polygon fill="#ffffff" stroke="#000000" points="885,-152.5 885,-171.5 933,-171.5 933,-152.5 885,-152.5"/>
<text text-anchor="middle" x="909" y="-159.5" font-family="Helvetica,sans-Serif" font-size="10.00" fill="#000000">SsiFifo</text>
</a>
</g>
</g>
<!-- Node50&#45;&gt;Node49 -->
<g id="edge29" class="edge">
<title>Node50&#45;&gt;Node49</title>
<path fill="none" stroke="#191970" d="M943.0917,-169.7112C951.6928,-171.6567 960.7531,-173.7061 968.7583,-175.5168"/>
<polygon fill="#191970" stroke="#191970" points="943.8221,-166.2881 933.2963,-167.4956 942.2777,-173.1156 943.8221,-166.2881"/>
</g>
<!-- Node51 -->
<g id="node23" class="node">
<title>Node51</title>
<g id="a_node23"><a xlink:href="classSsiIbFrameFilter.html" target="_top" xlink:title="SsiIbFrameFilter">
<polygon fill="#ffffff" stroke="#000000" points="746.5,-152.5 746.5,-171.5 840.5,-171.5 840.5,-152.5 746.5,-152.5"/>
<text text-anchor="middle" x="793.5" y="-159.5" font-family="Helvetica,sans-Serif" font-size="10.00" fill="#000000">SsiIbFrameFilter</text>
</a>
</g>
</g>
<!-- Node51&#45;&gt;Node50 -->
<g id="edge30" class="edge">
<title>Node51&#45;&gt;Node50</title>
<path fill="none" stroke="#191970" d="M851.1599,-162C862.994,-162 874.8331,-162 884.6895,-162"/>
<polygon fill="#191970" stroke="#191970" points="850.8116,-158.5001 840.8115,-162 850.8115,-165.5001 850.8116,-158.5001"/>
</g>
<!-- Node52&#45;&gt;Node50 -->
<g id="edge31" class="edge">
<title>Node52&#45;&gt;Node50</title>
<path fill="none" stroke="#191970" d="M832.5212,-136.8382C849.885,-142.5509 869.7819,-149.0971 884.928,-154.0802"/>
<polygon fill="#191970" stroke="#191970" points="833.2385,-133.3896 822.6455,-133.589 831.0508,-140.039 833.2385,-133.3896"/>
</g>
<!-- Node53 -->
<g id="node25" class="node">
<title>Node53</title>
<g id="a_node25"><a xlink:href="classSynchronizerOneShot.html" target="_top" xlink:title="SynchronizerOneShot(5)">
<polygon fill="#ffffff" stroke="#000000" points="276,-38.5 276,-57.5 410,-57.5 410,-38.5 276,-38.5"/>
<text text-anchor="middle" x="343" y="-45.5" font-family="Helvetica,sans-Serif" font-size="10.00" fill="#000000">SynchronizerOneShot(5)</text>
</a>
</g>
</g>
<!-- Node53&#45;&gt;Node50 -->
<g id="edge36" class="edge">
<title>Node53&#45;&gt;Node50</title>
<path fill="none" stroke="#191970" d="M420.3355,-39.7422C524.2773,-32.2675 711.824,-31.7798 849,-105 871.3084,-116.9075 891.3021,-139.3836 901.6196,-152.2683"/>
<polygon fill="#191970" stroke="#191970" points="419.941,-36.262 410.2349,-40.5097 420.4714,-43.2419 419.941,-36.262"/>
</g>
<!-- Node54&#45;&gt;Node53 -->
<g id="edge37" class="edge">
<title>Node54&#45;&gt;Node53</title>
<path fill="none" stroke="#191970" d="M216.8202,-48C234.4618,-48 255.8481,-48 275.9625,-48"/>
<polygon fill="#191970" stroke="#191970" points="216.3645,-44.5001 206.3645,-48 216.3645,-51.5001 216.3645,-44.5001"/>
</g>
<!-- Node55&#45;&gt;Node53 -->
<g id="edge39" class="edge">
<title>Node55&#45;&gt;Node53</title>
<path fill="none" stroke="#191970" d="M229.654,-21.8961C252.8465,-27.2374 279.8383,-33.4537 301.6629,-38.4799"/>
<polygon fill="#191970" stroke="#191970" points="230.1669,-18.4226 219.6365,-19.589 228.5959,-25.2441 230.1669,-18.4226"/>
</g>
<!-- Node56 -->
<g id="node28" class="node">
<title>Node56</title>
<g id="a_node28"><a xlink:href="classSsiObFrameFilter.html" target="_top" xlink:title="SsiObFrameFilter">
<polygon fill="#ffffff" stroke="#000000" points="744.5,-190.5 744.5,-209.5 842.5,-209.5 842.5,-190.5 744.5,-190.5"/>
<text text-anchor="middle" x="793.5" y="-197.5" font-family="Helvetica,sans-Serif" font-size="10.00" fill="#000000">SsiObFrameFilter</text>
</a>
</g>
</g>
<!-- Node56&#45;&gt;Node50 -->
<g id="edge41" class="edge">
<title>Node56&#45;&gt;Node50</title>
<path fill="none" stroke="#191970" d="M832.5212,-187.1618C849.885,-181.4491 869.7819,-174.9029 884.928,-169.9198"/>
<polygon fill="#191970" stroke="#191970" points="831.0508,-183.961 822.6455,-190.411 833.2385,-190.6104 831.0508,-183.961"/>
</g>
</g>
</svg>
        <g id="navigator" transform="translate(0 0)" fill="#404254">
                <rect fill="#f2f5e9" fill-opacity="0.5" stroke="#606060" stroke-width=".5" x="0" y="0" width="60" height="60"/>
                <use id="zoomplus" xlink:href="#zoomPlus" x="17" y="9" onmousedown="handleZoom(evt,'in')"/>
                <use id="zoomminus" xlink:href="#zoomMin" x="42" y="9" onmousedown="handleZoom(evt,'out')"/>
                <use id="reset" xlink:href="#resetDef" x="30" y="36" onmousedown="handleReset()"/>
                <g id="arrowUp" xlink:href="#dirArrow" transform="translate(30 24)" onmousedown="handlePan(0,-1)">
                  <use xlink:href="#rim" fill="#404040">
                        <set attributeName="fill" to="#808080" begin="arrowUp.mouseover" end="arrowUp.mouseout"/>
                  </use>
                  <path fill="none" stroke="white" stroke-width="1.5" d="M0,-3.0v7 M-2.5,-0.5L0,-3.0L2.5,-0.5"/>
                </g>
                <g id="arrowRight" xlink:href="#dirArrow" transform="rotate(90) translate(36 -43)" onmousedown="handlePan(1,0)">
                  <use xlink:href="#rim" fill="#404040">
                        <set attributeName="fill" to="#808080" begin="arrowRight.mouseover" end="arrowRight.mouseout"/>
                  </use>
                  <path fill="none" stroke="white" stroke-width="1.5" d="M0,-3.0v7 M-2.5,-0.5L0,-3.0L2.5,-0.5"/>
                </g>
                <g id="arrowDown" xlink:href="#dirArrow" transform="rotate(180) translate(-30 -48)" onmousedown="handlePan(0,1)">
                  <use xlink:href="#rim" fill="#404040">
                        <set attributeName="fill" to="#808080" begin="arrowDown.mouseover" end="arrowDown.mouseout"/>
                  </use>
                  <path fill="none" stroke="white" stroke-width="1.5" d="M0,-3.0v7 M-2.5,-0.5L0,-3.0L2.5,-0.5"/>
                </g>
                <g id="arrowLeft" xlink:href="#dirArrow" transform="rotate(270) translate(-36 17)" onmousedown="handlePan(-1,0)">
                  <use xlink:href="#rim" fill="#404040">
                        <set attributeName="fill" to="#808080" begin="arrowLeft.mouseover" end="arrowLeft.mouseout"/>
                  </use>
                  <path fill="none" stroke="white" stroke-width="1.5" d="M0,-3.0v7 M-2.5,-0.5L0,-3.0L2.5,-0.5"/>
                </g>
        </g>
        <svg viewBox="0 0 15 15" width="100%" height="30px" preserveAspectRatio="xMaxYMin meet">
         <g id="arrow_out" transform="scale(0.3 0.3)">
          <a xlink:href="classSaltUltraScale__coll__graph_org.svg" target="_base">
           <rect id="button" ry="5" rx="5" y="6" x="6" height="38" width="38"
                fill="#f2f5e9" fill-opacity="0.5" stroke="#606060" stroke-width="1.0"/>
           <path id="arrow"
             d="M 11.500037,31.436501 C 11.940474,20.09759 22.043105,11.32322 32.158766,21.979434 L 37.068811,17.246167 C 37.068811,17.246167 37.088388,32 37.088388,32 L 22.160133,31.978069 C 22.160133,31.978069 26.997745,27.140456 26.997745,27.140456 C 18.528582,18.264221 13.291696,25.230495 11.500037,31.436501 z"
             style="fill:#404040;"/>
          </a>
         </g>
        </svg>
</svg>
