<?xml version="1.0" encoding="UTF-8" standalone="no"?>
<!DOCTYPE svg PUBLIC "-//W3C//DTD SVG 1.1//EN"
 "http://www.w3.org/Graphics/SVG/1.1/DTD/svg11.dtd">
<!-- Generated by graphviz version 2.40.1 (20161225.0304)
 -->
<!-- Title: SsiPrbsRx Pages: 1 -->
<!--zoomable 560 -->
<svg id="main" version="1.1" xmlns="http://www.w3.org/2000/svg" xmlns:xlink="http://www.w3.org/1999/xlink" xml:space="preserve" onload="init(evt)">
<style type="text/css"><![CDATA[
.edge:hover path { stroke: red; }
.edge:hover polygon { stroke: red; fill: red; }
]]></style>
<script type="text/javascript"><![CDATA[
var edges = document.getElementsByTagName('g');
if (edges && edges.length) {
  for (var i=0;i<edges.length;i++) {
    if (edges[i].id.substr(0,4)=='edge') {
      edges[i].setAttribute('class','edge');
    }
  }
}
]]></script>
        <defs>
                <circle id="rim" cx="0" cy="0" r="7"/>
                <circle id="rim2" cx="0" cy="0" r="3.5"/>
                <g id="zoomPlus">
                        <use xlink:href="#rim" fill="#404040">
                                <set attributeName="fill" to="#808080" begin="zoomplus.mouseover" end="zoomplus.mouseout"/>
                        </use>
                        <path d="M-4,0h8M0,-4v8" fill="none" stroke="white" stroke-width="1.5" pointer-events="none"/>
                </g>
                <g id="zoomMin">
                        <use xlink:href="#rim" fill="#404040">
                                <set attributeName="fill" to="#808080" begin="zoomminus.mouseover" end="zoomminus.mouseout"/>
                        </use>
                        <path d="M-4,0h8" fill="none" stroke="white" stroke-width="1.5" pointer-events="none"/>
                </g>
                <g id="dirArrow">
                        <path fill="none" stroke="white" stroke-width="1.5" d="M0,-3.0v7 M-2.5,-0.5L0,-3.0L2.5,-0.5"/>
                </g>
               <g id="resetDef">
                       <use xlink:href="#rim2" fill="#404040">
                               <set attributeName="fill" to="#808080" begin="reset.mouseover" end="reset.mouseout"/>
                       </use>
               </g>
        </defs>

<script type="text/javascript">
var viewWidth = 1320;
var viewHeight = 560;
var sectionId = 'dynsection-0';
</script>
<script xlink:href="svgpan.js"/>
<svg id="graph" class="graph">
<g id="viewport">
<title>SsiPrbsRx</title>
<polygon fill="#ffffff" stroke="transparent" points="-4,4 -4,-556 1316,-556 1316,4 -4,4"/>
<!-- Node0 -->
<g id="node1" class="node">
<title>Node0</title>
<polygon fill="#bfbfbf" stroke="#000000" points="1100,-266.5 1100,-285.5 1165,-285.5 1165,-266.5 1100,-266.5"/>
<text text-anchor="middle" x="1132.5" y="-273.5" font-family="Helvetica,sans-Serif" font-size="10.00" fill="#000000">SsiPrbsRx</text>
</g>
<!-- Node26 -->
<g id="node27" class="node">
<title>Node26</title>
<g id="a_node27"><a xlink:href="classAxiRssiCoreTb.html" target="_top" xlink:title="AxiRssiCoreTb">
<polygon fill="#ffffff" stroke="#000000" points="1213,-532.5 1213,-551.5 1300,-551.5 1300,-532.5 1213,-532.5"/>
<text text-anchor="middle" x="1256.5" y="-539.5" font-family="Helvetica,sans-Serif" font-size="10.00" fill="#000000">AxiRssiCoreTb</text>
</a>
</g>
</g>
<!-- Node0&#45;&gt;Node26 -->
<g id="edge39" class="edge">
<title>Node0&#45;&gt;Node26</title>
<path fill="none" stroke="#191970" d="M1135.5605,-295.7784C1144.0499,-348.2791 1169.3678,-489.4338 1201,-523 1204.6321,-526.8541 1209.0786,-529.9265 1213.8587,-532.3756"/>
<polygon fill="#191970" stroke="#191970" points="1138.9904,-295.0598 1133.9678,-285.7311 1132.0767,-296.1558 1138.9904,-295.0598"/>
</g>
<!-- Node27 -->
<g id="node28" class="node">
<title>Node27</title>
<g id="a_node28"><a xlink:href="classAxiStreamMuxTb.html" target="_top" xlink:title="AxiStreamMuxTb">
<polygon fill="#ffffff" stroke="#000000" points="1206.5,-494.5 1206.5,-513.5 1306.5,-513.5 1306.5,-494.5 1206.5,-494.5"/>
<text text-anchor="middle" x="1256.5" y="-501.5" font-family="Helvetica,sans-Serif" font-size="10.00" fill="#000000">AxiStreamMuxTb</text>
</a>
</g>
</g>
<!-- Node0&#45;&gt;Node27 -->
<g id="edge40" class="edge">
<title>Node0&#45;&gt;Node27</title>
<path fill="none" stroke="#191970" d="M1136.6244,-295.7696C1146.7132,-342.4087 1173.8047,-457.4456 1201,-485 1204.8632,-488.9142 1209.5661,-492.0225 1214.5825,-494.4907"/>
<polygon fill="#191970" stroke="#191970" points="1139.9898,-294.7681 1134.4852,-285.7155 1133.143,-296.225 1139.9898,-294.7681"/>
</g>
<!-- Node28 -->
<g id="node29" class="node">
<title>Node28</title>
<g id="a_node29"><a xlink:href="classAxiStreamResizeTb.html" target="_top" xlink:title="AxiStreamResizeTb">
<polygon fill="#ffffff" stroke="#000000" points="1201,-456.5 1201,-475.5 1312,-475.5 1312,-456.5 1201,-456.5"/>
<text text-anchor="middle" x="1256.5" y="-463.5" font-family="Helvetica,sans-Serif" font-size="10.00" fill="#000000">AxiStreamResizeTb</text>
</a>
</g>
</g>
<!-- Node0&#45;&gt;Node28 -->
<g id="edge41" class="edge">
<title>Node0&#45;&gt;Node28</title>
<path fill="none" stroke="#191970" d="M1134.9931,-295.672C1140.4852,-330.9183 1156.8569,-405.06 1201,-447 1205.0608,-450.8582 1209.9385,-453.9355 1215.0947,-456.3895"/>
<polygon fill="#191970" stroke="#191970" points="1138.4459,-295.0918 1133.5709,-285.6852 1131.5158,-296.0788 1138.4459,-295.0918"/>
</g>
<!-- Node29 -->
<g id="node30" class="node">
<title>Node29</title>
<g id="a_node30"><a xlink:href="classEthMacPauseTb.html" target="_top" xlink:title="EthMacPauseTb">
<polygon fill="#ffffff" stroke="#000000" points="1210.5,-418.5 1210.5,-437.5 1302.5,-437.5 1302.5,-418.5 1210.5,-418.5"/>
<text text-anchor="middle" x="1256.5" y="-425.5" font-family="Helvetica,sans-Serif" font-size="10.00" fill="#000000">EthMacPauseTb</text>
</a>
</g>
</g>
<!-- Node0&#45;&gt;Node29 -->
<g id="edge42" class="edge">
<title>Node0&#45;&gt;Node29</title>
<path fill="none" stroke="#191970" d="M1137.4258,-295.2737C1145.7458,-324.0445 1165.2731,-378.1352 1201,-409 1205.4699,-412.8616 1210.7632,-415.9487 1216.2774,-418.414"/>
<polygon fill="#191970" stroke="#191970" points="1140.7908,-294.3096 1134.7755,-285.588 1134.039,-296.1572 1140.7908,-294.3096"/>
</g>
<!-- Node30 -->
<g id="node31" class="node">
<title>Node30</title>
<g id="a_node31"><a xlink:href="classfifo__tb.html" target="_top" xlink:title="fifo_tb">
<polygon fill="#ffffff" stroke="#000000" points="1233,-380.5 1233,-399.5 1280,-399.5 1280,-380.5 1233,-380.5"/>
<text text-anchor="middle" x="1256.5" y="-387.5" font-family="Helvetica,sans-Serif" font-size="10.00" fill="#000000">fifo_tb</text>
</a>
</g>
</g>
<!-- Node0&#45;&gt;Node30 -->
<g id="edge43" class="edge">
<title>Node0&#45;&gt;Node30</title>
<path fill="none" stroke="#191970" d="M1141.4227,-294.6178C1152.549,-315.9603 1173.5032,-350.6145 1201,-371 1210.3266,-377.9145 1222.3526,-382.4386 1232.8242,-385.33"/>
<polygon fill="#191970" stroke="#191970" points="1144.5042,-292.955 1136.889,-285.5889 1138.2486,-296.0962 1144.5042,-292.955"/>
</g>
<!-- Node31 -->
<g id="node32" class="node">
<title>Node31</title>
<g id="a_node32"><a xlink:href="classpgp__test.html" target="_top" xlink:title="pgp_test">
<polygon fill="#ffffff" stroke="#000000" points="1227,-342.5 1227,-361.5 1286,-361.5 1286,-342.5 1227,-342.5"/>
<text text-anchor="middle" x="1256.5" y="-349.5" font-family="Helvetica,sans-Serif" font-size="10.00" fill="#000000">pgp_test</text>
</a>
</g>
</g>
<!-- Node0&#45;&gt;Node31 -->
<g id="edge44" class="edge">
<title>Node0&#45;&gt;Node31</title>
<path fill="none" stroke="#191970" d="M1149.1833,-292.8931C1162.3065,-305.394 1181.565,-322.0796 1201,-333 1208.9909,-337.49 1218.2228,-341.1713 1226.8354,-344.0576"/>
<polygon fill="#191970" stroke="#191970" points="1151.4579,-290.2223 1141.8583,-285.7392 1146.567,-295.2302 1151.4579,-290.2223"/>
</g>
<!-- Node32 -->
<g id="node33" class="node">
<title>Node32</title>
<g id="a_node33"><a xlink:href="classPgpEthCaui4GtyTb.html" target="_top" xlink:title="PgpEthCaui4GtyTb">
<polygon fill="#ffffff" stroke="#000000" points="1203,-304.5 1203,-323.5 1310,-323.5 1310,-304.5 1203,-304.5"/>
<text text-anchor="middle" x="1256.5" y="-311.5" font-family="Helvetica,sans-Serif" font-size="10.00" fill="#000000">PgpEthCaui4GtyTb</text>
</a>
</g>
</g>
<!-- Node0&#45;&gt;Node32 -->
<g id="edge45" class="edge">
<title>Node0&#45;&gt;Node32</title>
<path fill="none" stroke="#191970" d="M1173.4047,-288.5353C1190.2734,-293.7048 1209.5076,-299.5991 1225.2196,-304.4141"/>
<polygon fill="#191970" stroke="#191970" points="1174.3771,-285.1727 1163.7904,-285.589 1172.326,-291.8655 1174.3771,-285.1727"/>
</g>
<!-- Node33 -->
<g id="node34" class="node">
<title>Node33</title>
<g id="a_node34"><a xlink:href="classPgpEthCoreTb.html" target="_top" xlink:title="PgpEthCoreTb">
<polygon fill="#ffffff" stroke="#000000" points="1214,-266.5 1214,-285.5 1299,-285.5 1299,-266.5 1214,-266.5"/>
<text text-anchor="middle" x="1256.5" y="-273.5" font-family="Helvetica,sans-Serif" font-size="10.00" fill="#000000">PgpEthCoreTb</text>
</a>
</g>
</g>
<!-- Node0&#45;&gt;Node33 -->
<g id="edge46" class="edge">
<title>Node0&#45;&gt;Node33</title>
<path fill="none" stroke="#191970" d="M1175.2484,-276C1187.7388,-276 1201.3865,-276 1213.8696,-276"/>
<polygon fill="#191970" stroke="#191970" points="1175.0796,-272.5001 1165.0795,-276 1175.0795,-279.5001 1175.0796,-272.5001"/>
</g>
<!-- Node34 -->
<g id="node35" class="node">
<title>Node34</title>
<g id="a_node35"><a xlink:href="classRawEthFramerTb.html" target="_top" xlink:title="RawEthFramerTb">
<polygon fill="#ffffff" stroke="#000000" points="1207,-228.5 1207,-247.5 1306,-247.5 1306,-228.5 1207,-228.5"/>
<text text-anchor="middle" x="1256.5" y="-235.5" font-family="Helvetica,sans-Serif" font-size="10.00" fill="#000000">RawEthFramerTb</text>
</a>
</g>
</g>
<!-- Node0&#45;&gt;Node34 -->
<g id="edge47" class="edge">
<title>Node0&#45;&gt;Node34</title>
<path fill="none" stroke="#191970" d="M1173.4047,-263.4647C1190.2734,-258.2952 1209.5076,-252.4009 1225.2196,-247.5859"/>
<polygon fill="#191970" stroke="#191970" points="1172.326,-260.1345 1163.7904,-266.411 1174.3771,-266.8273 1172.326,-260.1345"/>
</g>
<!-- Node35 -->
<g id="node36" class="node">
<title>Node35</title>
<g id="a_node36"><a xlink:href="classRssiInterleaveTb.html" target="_top" xlink:title="RssiInterleaveTb">
<polygon fill="#ffffff" stroke="#000000" points="1207.5,-190.5 1207.5,-209.5 1305.5,-209.5 1305.5,-190.5 1207.5,-190.5"/>
<text text-anchor="middle" x="1256.5" y="-197.5" font-family="Helvetica,sans-Serif" font-size="10.00" fill="#000000">RssiInterleaveTb</text>
</a>
</g>
</g>
<!-- Node0&#45;&gt;Node35 -->
<g id="edge48" class="edge">
<title>Node0&#45;&gt;Node35</title>
<path fill="none" stroke="#191970" d="M1149.1833,-259.1069C1162.3065,-246.606 1181.565,-229.9204 1201,-219 1207.5703,-215.3082 1214.9796,-212.1631 1222.1938,-209.5572"/>
<polygon fill="#191970" stroke="#191970" points="1146.567,-256.7698 1141.8583,-266.2608 1151.4579,-261.7777 1146.567,-256.7698"/>
</g>
<!-- Node36 -->
<g id="node37" class="node">
<title>Node36</title>
<g id="a_node37"><a xlink:href="classSalt7SeriesTb.html" target="_top" xlink:title="Salt7SeriesTb">
<polygon fill="#ffffff" stroke="#000000" points="1215,-152.5 1215,-171.5 1298,-171.5 1298,-152.5 1215,-152.5"/>
<text text-anchor="middle" x="1256.5" y="-159.5" font-family="Helvetica,sans-Serif" font-size="10.00" fill="#000000">Salt7SeriesTb</text>
</a>
</g>
</g>
<!-- Node0&#45;&gt;Node36 -->
<g id="edge49" class="edge">
<title>Node0&#45;&gt;Node36</title>
<path fill="none" stroke="#191970" d="M1141.4227,-257.3822C1152.549,-236.0397 1173.5032,-201.3855 1201,-181 1206.1542,-177.1788 1212.1328,-174.0877 1218.2178,-171.5987"/>
<polygon fill="#191970" stroke="#191970" points="1138.2486,-255.9038 1136.889,-266.4111 1144.5042,-259.045 1138.2486,-255.9038"/>
</g>
<!-- Node37 -->
<g id="node38" class="node">
<title>Node37</title>
<g id="a_node38"><a xlink:href="classSaltUltraScaleTb.html" target="_top" xlink:title="SaltUltraScaleTb">
<polygon fill="#ffffff" stroke="#000000" points="1207.5,-114.5 1207.5,-133.5 1305.5,-133.5 1305.5,-114.5 1207.5,-114.5"/>
<text text-anchor="middle" x="1256.5" y="-121.5" font-family="Helvetica,sans-Serif" font-size="10.00" fill="#000000">SaltUltraScaleTb</text>
</a>
</g>
</g>
<!-- Node0&#45;&gt;Node37 -->
<g id="edge50" class="edge">
<title>Node0&#45;&gt;Node37</title>
<path fill="none" stroke="#191970" d="M1137.4258,-256.7263C1145.7458,-227.9555 1165.2731,-173.8648 1201,-143 1205.4699,-139.1384 1210.7632,-136.0513 1216.2774,-133.586"/>
<polygon fill="#191970" stroke="#191970" points="1134.039,-255.8428 1134.7755,-266.412 1140.7908,-257.6904 1134.039,-255.8428"/>
</g>
<!-- Node38 -->
<g id="node39" class="node">
<title>Node38</title>
<g id="a_node39"><a xlink:href="classSsiFifoTb.html" target="_top" xlink:title="SsiFifoTb">
<polygon fill="#ffffff" stroke="#000000" points="1226.5,-76.5 1226.5,-95.5 1286.5,-95.5 1286.5,-76.5 1226.5,-76.5"/>
<text text-anchor="middle" x="1256.5" y="-83.5" font-family="Helvetica,sans-Serif" font-size="10.00" fill="#000000">SsiFifoTb</text>
</a>
</g>
</g>
<!-- Node0&#45;&gt;Node38 -->
<g id="edge51" class="edge">
<title>Node0&#45;&gt;Node38</title>
<path fill="none" stroke="#191970" d="M1134.9931,-256.328C1140.4852,-221.0817 1156.8569,-146.94 1201,-105 1207.9403,-98.406 1217.2668,-94.0928 1226.2912,-91.2744"/>
<polygon fill="#191970" stroke="#191970" points="1131.5158,-255.9212 1133.5709,-266.3148 1138.4459,-256.9082 1131.5158,-255.9212"/>
</g>
<!-- Node39 -->
<g id="node40" class="node">
<title>Node39</title>
<g id="a_node40"><a xlink:href="classSsiPrbsTb.html" target="_top" xlink:title="SsiPrbsTb">
<polygon fill="#ffffff" stroke="#000000" points="1224.5,-38.5 1224.5,-57.5 1288.5,-57.5 1288.5,-38.5 1224.5,-38.5"/>
<text text-anchor="middle" x="1256.5" y="-45.5" font-family="Helvetica,sans-Serif" font-size="10.00" fill="#000000">SsiPrbsTb</text>
</a>
</g>
</g>
<!-- Node0&#45;&gt;Node39 -->
<g id="edge52" class="edge">
<title>Node0&#45;&gt;Node39</title>
<path fill="none" stroke="#191970" d="M1136.6244,-256.2304C1146.7132,-209.5913 1173.8047,-94.5544 1201,-67 1207.2956,-60.6213 1215.8211,-56.3828 1224.2995,-53.5669"/>
<polygon fill="#191970" stroke="#191970" points="1133.143,-255.775 1134.4852,-266.2845 1139.9898,-257.2319 1133.143,-255.775"/>
</g>
<!-- Node40 -->
<g id="node41" class="node">
<title>Node40</title>
<g id="a_node41"><a xlink:href="classUdpEngineTb.html" target="_top" xlink:title="UdpEngineTb">
<polygon fill="#ffffff" stroke="#000000" points="1216,-.5 1216,-19.5 1297,-19.5 1297,-.5 1216,-.5"/>
<text text-anchor="middle" x="1256.5" y="-7.5" font-family="Helvetica,sans-Serif" font-size="10.00" fill="#000000">UdpEngineTb</text>
</a>
</g>
</g>
<!-- Node0&#45;&gt;Node40 -->
<g id="edge53" class="edge">
<title>Node0&#45;&gt;Node40</title>
<path fill="none" stroke="#191970" d="M1135.5605,-256.2216C1144.0499,-203.7209 1169.3678,-62.5662 1201,-29 1205.121,-24.627 1210.2904,-21.2605 1215.8061,-18.6688"/>
<polygon fill="#191970" stroke="#191970" points="1132.0767,-255.8442 1133.9678,-266.2689 1138.9904,-256.9402 1132.0767,-255.8442"/>
</g>
<!-- Node1 -->
<g id="node2" class="node">
<title>Node1</title>
<g id="a_node2"><a xlink:href="classAxiStreamFifoV2.html" target="_top" xlink:title="AxiStreamFifoV2">
<polygon fill="#ffffff" stroke="#000000" points="794,-419.5 794,-438.5 892,-438.5 892,-419.5 794,-419.5"/>
<text text-anchor="middle" x="843" y="-426.5" font-family="Helvetica,sans-Serif" font-size="10.00" fill="#000000">AxiStreamFifoV2</text>
</a>
</g>
</g>
<!-- Node1&#45;&gt;Node0 -->
<g id="edge1" class="edge">
<title>Node1&#45;&gt;Node0</title>
<path fill="none" stroke="#191970" d="M870.118,-414.6682C928.5773,-383.7726 1065.1568,-311.5907 1114.3973,-285.5672"/>
<polygon fill="#191970" stroke="#191970" points="868.3153,-411.6621 861.1095,-419.4292 871.5862,-417.851 868.3153,-411.6621"/>
</g>
<!-- Node2 -->
<g id="node3" class="node">
<title>Node2</title>
<g id="a_node3"><a xlink:href="classAxiStreamResize.html" target="_top" xlink:title="AxiStreamResize(2)">
<polygon fill="#ffffff" stroke="#000000" points="598,-495.5 598,-514.5 711,-514.5 711,-495.5 598,-495.5"/>
<text text-anchor="middle" x="654.5" y="-502.5" font-family="Helvetica,sans-Serif" font-size="10.00" fill="#000000">AxiStreamResize(2)</text>
</a>
</g>
</g>
<!-- Node2&#45;&gt;Node1 -->
<g id="edge2" class="edge">
<title>Node2&#45;&gt;Node1</title>
<path fill="none" stroke="#191970" d="M692.9025,-492.0908C702.7632,-488.627 713.3187,-484.788 723,-481 758.0997,-467.2667 798.136,-449.4793 821.9484,-438.6699"/>
<polygon fill="#191970" stroke="#191970" points="691.6303,-488.8274 683.3314,-495.4137 693.9262,-495.4402 691.6303,-488.8274"/>
</g>
<!-- Node3 -->
<g id="node4" class="node">
<title>Node3</title>
<g id="a_node4"><a xlink:href="classAxiStreamPipeline.html" target="_top" xlink:title="AxiStreamPipeline">
<polygon fill="#ffffff" stroke="#000000" points="429.5,-476.5 429.5,-495.5 536.5,-495.5 536.5,-476.5 429.5,-476.5"/>
<text text-anchor="middle" x="483" y="-483.5" font-family="Helvetica,sans-Serif" font-size="10.00" fill="#000000">AxiStreamPipeline</text>
</a>
</g>
</g>
<!-- Node3&#45;&gt;Node1 -->
<g id="edge25" class="edge">
<title>Node3&#45;&gt;Node1</title>
<path fill="none" stroke="#191970" d="M546.61,-475.9284C617.2164,-464.7491 729.6525,-446.9467 793.8313,-436.785"/>
<polygon fill="#191970" stroke="#191970" points="545.8365,-472.5072 536.5069,-477.5281 546.9312,-479.4211 545.8365,-472.5072"/>
</g>
<!-- Node3&#45;&gt;Node2 -->
<g id="edge3" class="edge">
<title>Node3&#45;&gt;Node2</title>
<path fill="none" stroke="#191970" d="M547.0241,-493.0931C563.7404,-494.945 581.6359,-496.9276 597.9342,-498.7332"/>
<polygon fill="#191970" stroke="#191970" points="547.1177,-489.5821 536.7931,-491.9596 546.3469,-496.5395 547.1177,-489.5821"/>
</g>
<!-- Node4 -->
<g id="node5" class="node">
<title>Node4</title>
<g id="a_node5"><a xlink:href="classFifoCascade.html" target="_top" xlink:title="FifoCascade(2)">
<polygon fill="#ffffff" stroke="#000000" points="610,-362.5 610,-381.5 699,-381.5 699,-362.5 610,-362.5"/>
<text text-anchor="middle" x="654.5" y="-369.5" font-family="Helvetica,sans-Serif" font-size="10.00" fill="#000000">FifoCascade(2)</text>
</a>
</g>
</g>
<!-- Node4&#45;&gt;Node1 -->
<g id="edge4" class="edge">
<title>Node4&#45;&gt;Node1</title>
<path fill="none" stroke="#191970" d="M695.9043,-384.5201C730.6805,-395.036 779.6392,-409.8405 811.3464,-419.4284"/>
<polygon fill="#191970" stroke="#191970" points="696.6357,-381.0848 686.0507,-381.5405 694.6095,-387.7852 696.6357,-381.0848"/>
</g>
<!-- Node5 -->
<g id="node6" class="node">
<title>Node5</title>
<g id="a_node6"><a xlink:href="classFifo.html" target="_top" xlink:title="Fifo(4)">
<polygon fill="#ffffff" stroke="#000000" points="459.5,-343.5 459.5,-362.5 506.5,-362.5 506.5,-343.5 459.5,-343.5"/>
<text text-anchor="middle" x="483" y="-350.5" font-family="Helvetica,sans-Serif" font-size="10.00" fill="#000000">Fifo(4)</text>
</a>
</g>
</g>
<!-- Node5&#45;&gt;Node4 -->
<g id="edge5" class="edge">
<title>Node5&#45;&gt;Node4</title>
<path fill="none" stroke="#191970" d="M516.8173,-356.7465C543.3822,-359.6896 580.6146,-363.8145 609.6644,-367.0328"/>
<polygon fill="#191970" stroke="#191970" points="517.171,-353.2644 506.8463,-355.6419 516.4001,-360.2218 517.171,-353.2644"/>
</g>
<!-- Node6 -->
<g id="node7" class="node">
<title>Node6</title>
<g id="a_node7"><a xlink:href="classFifoXpm.html" target="_top" xlink:title="FifoXpm">
<polygon fill="#ffffff" stroke="#000000" points="300,-343.5 300,-362.5 356,-362.5 356,-343.5 300,-343.5"/>
<text text-anchor="middle" x="328" y="-350.5" font-family="Helvetica,sans-Serif" font-size="10.00" fill="#000000">FifoXpm</text>
</a>
</g>
</g>
<!-- Node6&#45;&gt;Node5 -->
<g id="edge6" class="edge">
<title>Node6&#45;&gt;Node5</title>
<path fill="none" stroke="#191970" d="M366.2877,-353C395.3744,-353 434.4662,-353 459.2016,-353"/>
<polygon fill="#191970" stroke="#191970" points="366.0694,-349.5001 356.0693,-353 366.0693,-356.5001 366.0694,-349.5001"/>
</g>
<!-- Node7 -->
<g id="node8" class="node">
<title>Node7</title>
<g id="a_node8"><a xlink:href="classFifoOutputPipeline.html" target="_top" xlink:title="FifoOutputPipeline">
<polygon fill="#ffffff" stroke="#000000" points="125,-381.5 125,-400.5 231,-400.5 231,-381.5 125,-381.5"/>
<text text-anchor="middle" x="178" y="-388.5" font-family="Helvetica,sans-Serif" font-size="10.00" fill="#000000">FifoOutputPipeline</text>
</a>
</g>
</g>
<!-- Node7&#45;&gt;Node6 -->
<g id="edge7" class="edge">
<title>Node7&#45;&gt;Node6</title>
<path fill="none" stroke="#191970" d="M225.6291,-378.934C249.9782,-372.7655 278.7881,-365.467 299.6319,-360.1866"/>
<polygon fill="#191970" stroke="#191970" points="224.6856,-375.5623 215.8513,-381.411 226.4047,-382.348 224.6856,-375.5623"/>
</g>
<!-- Node8 -->
<g id="node9" class="node">
<title>Node8</title>
<g id="a_node9"><a xlink:href="classFifoAlteraMf.html" target="_top" xlink:title="FifoAlteraMf">
<polygon fill="#ffffff" stroke="#000000" points="290.5,-381.5 290.5,-400.5 365.5,-400.5 365.5,-381.5 290.5,-381.5"/>
<text text-anchor="middle" x="328" y="-388.5" font-family="Helvetica,sans-Serif" font-size="10.00" fill="#000000">FifoAlteraMf</text>
</a>
</g>
</g>
<!-- Node7&#45;&gt;Node8 -->
<g id="edge9" class="edge">
<title>Node7&#45;&gt;Node8</title>
<path fill="none" stroke="#191970" d="M241.5402,-391C258.1845,-391 275.6,-391 290.4027,-391"/>
<polygon fill="#191970" stroke="#191970" points="241.3068,-387.5001 231.3067,-391 241.3067,-394.5001 241.3068,-387.5001"/>
</g>
<!-- Node9 -->
<g id="node10" class="node">
<title>Node9</title>
<g id="a_node10"><a xlink:href="classFifoAsync.html" target="_top" xlink:title="FifoAsync">
<polygon fill="#ffffff" stroke="#000000" points="296.5,-267.5 296.5,-286.5 359.5,-286.5 359.5,-267.5 296.5,-267.5"/>
<text text-anchor="middle" x="328" y="-274.5" font-family="Helvetica,sans-Serif" font-size="10.00" fill="#000000">FifoAsync</text>
</a>
</g>
</g>
<!-- Node7&#45;&gt;Node9 -->
<g id="edge18" class="edge">
<title>Node7&#45;&gt;Node9</title>
<path fill="none" stroke="#191970" d="M233.6666,-376.6755C235.8996,-375.2612 238.0253,-373.7073 240,-372 268.2736,-347.5554 248.3833,-321.1845 276,-296 281.7525,-290.7541 289.0707,-286.9257 296.3878,-284.143"/>
<polygon fill="#191970" stroke="#191970" points="231.8143,-373.6958 224.6135,-381.4674 235.0891,-379.8825 231.8143,-373.6958"/>
</g>
<!-- Node17 -->
<g id="node18" class="node">
<title>Node17</title>
<g id="a_node18"><a xlink:href="classFifoSync.html" target="_top" xlink:title="FifoSync">
<polygon fill="#ffffff" stroke="#000000" points="299.5,-305.5 299.5,-324.5 356.5,-324.5 356.5,-305.5 299.5,-305.5"/>
<text text-anchor="middle" x="328" y="-312.5" font-family="Helvetica,sans-Serif" font-size="10.00" fill="#000000">FifoSync</text>
</a>
</g>
</g>
<!-- Node7&#45;&gt;Node17 -->
<g id="edge23" class="edge">
<title>Node7&#45;&gt;Node17</title>
<path fill="none" stroke="#191970" d="M229.1786,-377.6878C232.9464,-375.9976 236.5986,-374.1084 240,-372 259.7738,-359.7431 256.5576,-346.7761 276,-334 283.0686,-329.3551 291.4221,-325.6584 299.3418,-322.807"/>
<polygon fill="#191970" stroke="#191970" points="227.6415,-374.5328 219.6519,-381.491 230.2369,-381.0339 227.6415,-374.5328"/>
</g>
<!-- Node8&#45;&gt;Node5 -->
<g id="edge8" class="edge">
<title>Node8&#45;&gt;Node5</title>
<path fill="none" stroke="#191970" d="M375.4466,-379.3679C403.2248,-372.5578 437.0983,-364.2533 459.3165,-358.8063"/>
<polygon fill="#191970" stroke="#191970" points="374.4001,-376.0208 365.5212,-381.8013 376.067,-382.8194 374.4001,-376.0208"/>
</g>
<!-- Node9&#45;&gt;Node5 -->
<g id="edge10" class="edge">
<title>Node9&#45;&gt;Node5</title>
<path fill="none" stroke="#191970" d="M366.1993,-290.1836C370.8922,-292.0295 375.5865,-293.9872 380,-296 411.9834,-310.5863 447.485,-331.303 467.3393,-343.3278"/>
<polygon fill="#191970" stroke="#191970" points="367.2503,-286.8391 356.6589,-286.5693 364.7704,-293.3851 367.2503,-286.8391"/>
</g>
<!-- Node18 -->
<g id="node19" class="node">
<title>Node18</title>
<g id="a_node19"><a xlink:href="classSynchronizerFifo.html" target="_top" xlink:title="SynchronizerFifo">
<polygon fill="#ffffff" stroke="#000000" points="434.5,-266.5 434.5,-285.5 531.5,-285.5 531.5,-266.5 434.5,-266.5"/>
<text text-anchor="middle" x="483" y="-273.5" font-family="Helvetica,sans-Serif" font-size="10.00" fill="#000000">SynchronizerFifo</text>
</a>
</g>
</g>
<!-- Node9&#45;&gt;Node18 -->
<g id="edge27" class="edge">
<title>Node9&#45;&gt;Node18</title>
<path fill="none" stroke="#191970" d="M370.0017,-276.729C389.8196,-276.6012 413.5878,-276.4478 434.2013,-276.3148"/>
<polygon fill="#191970" stroke="#191970" points="369.7178,-273.2307 359.7406,-276.7952 369.763,-280.2305 369.7178,-273.2307"/>
</g>
<!-- Node10 -->
<g id="node11" class="node">
<title>Node10</title>
<g id="a_node11"><a xlink:href="classRstSync.html" target="_top" xlink:title="RstSync(2)">
<polygon fill="#ffffff" stroke="#000000" points="143.5,-153.5 143.5,-172.5 212.5,-172.5 212.5,-153.5 143.5,-153.5"/>
<text text-anchor="middle" x="178" y="-160.5" font-family="Helvetica,sans-Serif" font-size="10.00" fill="#000000">RstSync(2)</text>
</a>
</g>
</g>
<!-- Node10&#45;&gt;Node9 -->
<g id="edge11" class="edge">
<title>Node10&#45;&gt;Node9</title>
<path fill="none" stroke="#191970" d="M222.2643,-173.398C228.4563,-175.7451 234.5559,-178.583 240,-182 277.1316,-205.3054 308.7545,-248.227 321.7165,-267.3585"/>
<polygon fill="#191970" stroke="#191970" points="223.1334,-169.997 212.5391,-170.1009 220.8858,-176.6264 223.1334,-169.997"/>
</g>
<!-- Node11 -->
<g id="node12" class="node">
<title>Node11</title>
<g id="a_node12"><a xlink:href="classSynchronizer.html" target="_top" xlink:title="Synchronizer">
<polygon fill="#ffffff" stroke="#000000" points="0,-134.5 0,-153.5 80,-153.5 80,-134.5 0,-134.5"/>
<text text-anchor="middle" x="40" y="-141.5" font-family="Helvetica,sans-Serif" font-size="10.00" fill="#000000">Synchronizer</text>
</a>
</g>
</g>
<!-- Node11&#45;&gt;Node1 -->
<g id="edge24" class="edge">
<title>Node11&#45;&gt;Node1</title>
<path fill="none" stroke="#191970" d="M42.7117,-163.542C50.8844,-219.4103 77.1307,-377.8583 116,-410 188.9031,-470.2849 233.4001,-429 328,-429 328,-429 328,-429 483,-429 594.0938,-429 724.4716,-429 793.7957,-429"/>
<polygon fill="#191970" stroke="#191970" points="46.1607,-162.9351 41.2817,-153.5305 39.231,-163.925 46.1607,-162.9351"/>
</g>
<!-- Node11&#45;&gt;Node10 -->
<g id="edge12" class="edge">
<title>Node11&#45;&gt;Node10</title>
<path fill="none" stroke="#191970" d="M90.3506,-150.9323C107.8473,-153.3413 127.0737,-155.9884 143.05,-158.188"/>
<polygon fill="#191970" stroke="#191970" points="90.6702,-147.4434 80.2863,-149.5467 89.7154,-154.378 90.6702,-147.4434"/>
</g>
<!-- Node23 -->
<g id="node24" class="node">
<title>Node23</title>
<g id="a_node24"><a xlink:href="classRstSync.html" target="_top" xlink:title="RstSync">
<polygon fill="#ffffff" stroke="#000000" points="300,-135.5 300,-154.5 356,-154.5 356,-135.5 300,-135.5"/>
<text text-anchor="middle" x="328" y="-142.5" font-family="Helvetica,sans-Serif" font-size="10.00" fill="#000000">RstSync</text>
</a>
</g>
</g>
<!-- Node11&#45;&gt;Node23 -->
<g id="edge33" class="edge">
<title>Node11&#45;&gt;Node23</title>
<path fill="none" stroke="#191970" d="M90.3635,-143.8418C130.8064,-143.7529 189.0538,-143.7105 240,-144 260.0149,-144.1137 282.5891,-144.3729 299.8623,-144.5989"/>
<polygon fill="#191970" stroke="#191970" points="90.2149,-140.342 80.2232,-143.8659 90.2316,-147.342 90.2149,-140.342"/>
</g>
<!-- Node24 -->
<g id="node25" class="node">
<title>Node24</title>
<g id="a_node25"><a xlink:href="classSynchronizerEdge.html" target="_top" xlink:title="SynchronizerEdge">
<polygon fill="#ffffff" stroke="#000000" points="276,-96.5 276,-115.5 380,-115.5 380,-96.5 276,-96.5"/>
<text text-anchor="middle" x="328" y="-103.5" font-family="Helvetica,sans-Serif" font-size="10.00" fill="#000000">SynchronizerEdge</text>
</a>
</g>
</g>
<!-- Node11&#45;&gt;Node24 -->
<g id="edge35" class="edge">
<title>Node11&#45;&gt;Node24</title>
<path fill="none" stroke="#191970" d="M90.044,-137.397C142.058,-130.534 223.0976,-119.8413 275.8714,-112.8781"/>
<polygon fill="#191970" stroke="#191970" points="89.5014,-133.9381 80.0452,-138.7163 90.4171,-140.878 89.5014,-133.9381"/>
</g>
<!-- Node12 -->
<g id="node13" class="node">
<title>Node12</title>
<g id="a_node13"><a xlink:href="classSynchronizerVector.html" target="_top" xlink:title="SynchronizerVector(2)">
<polygon fill="#ffffff" stroke="#000000" points="116,-229.5 116,-248.5 240,-248.5 240,-229.5 116,-229.5"/>
<text text-anchor="middle" x="178" y="-236.5" font-family="Helvetica,sans-Serif" font-size="10.00" fill="#000000">SynchronizerVector(2)</text>
</a>
</g>
</g>
<!-- Node12&#45;&gt;Node9 -->
<g id="edge13" class="edge">
<title>Node12&#45;&gt;Node9</title>
<path fill="none" stroke="#191970" d="M225.7785,-251.1039C248.8021,-256.9365 275.7856,-263.7723 296.2462,-268.9557"/>
<polygon fill="#191970" stroke="#191970" points="226.4047,-247.652 215.8513,-248.589 224.6856,-254.4377 226.4047,-247.652"/>
</g>
<!-- Node13 -->
<g id="node14" class="node">
<title>Node13</title>
<g id="a_node14"><a xlink:href="classSynchronizer.html" target="_top" xlink:title="Synchronizer(2)">
<polygon fill="#ffffff" stroke="#000000" points="131.5,-191.5 131.5,-210.5 224.5,-210.5 224.5,-191.5 131.5,-191.5"/>
<text text-anchor="middle" x="178" y="-198.5" font-family="Helvetica,sans-Serif" font-size="10.00" fill="#000000">Synchronizer(2)</text>
</a>
</g>
</g>
<!-- Node13&#45;&gt;Node9 -->
<g id="edge14" class="edge">
<title>Node13&#45;&gt;Node9</title>
<path fill="none" stroke="#191970" d="M224.5364,-213.7114C229.8335,-215.6121 235.0891,-217.7116 240,-220 268.7087,-233.3779 299.0453,-254.9028 315.5342,-267.3196"/>
<polygon fill="#191970" stroke="#191970" points="225.6164,-210.382 215.0223,-210.5069 223.382,-217.0158 225.6164,-210.382"/>
</g>
<!-- Node14 -->
<g id="node15" class="node">
<title>Node14</title>
<g id="a_node15"><a xlink:href="classFifoWrFsm.html" target="_top" xlink:title="FifoWrFsm">
<polygon fill="#ffffff" stroke="#000000" points="144.5,-305.5 144.5,-324.5 211.5,-324.5 211.5,-305.5 144.5,-305.5"/>
<text text-anchor="middle" x="178" y="-312.5" font-family="Helvetica,sans-Serif" font-size="10.00" fill="#000000">FifoWrFsm</text>
</a>
</g>
</g>
<!-- Node14&#45;&gt;Node9 -->
<g id="edge15" class="edge">
<title>Node14&#45;&gt;Node9</title>
<path fill="none" stroke="#191970" d="M221.58,-303.9597C245.5531,-297.8866 274.7542,-290.4889 296.4994,-284.9802"/>
<polygon fill="#191970" stroke="#191970" points="220.4972,-300.6234 211.6629,-306.4721 222.2162,-307.4091 220.4972,-300.6234"/>
</g>
<!-- Node14&#45;&gt;Node17 -->
<g id="edge20" class="edge">
<title>Node14&#45;&gt;Node17</title>
<path fill="none" stroke="#191970" d="M221.6652,-315C246.7411,-315 277.5147,-315 299.4925,-315"/>
<polygon fill="#191970" stroke="#191970" points="221.663,-311.5001 211.6629,-315 221.6629,-318.5001 221.663,-311.5001"/>
</g>
<!-- Node15 -->
<g id="node16" class="node">
<title>Node15</title>
<g id="a_node16"><a xlink:href="classFifoRdFsm.html" target="_top" xlink:title="FifoRdFsm">
<polygon fill="#ffffff" stroke="#000000" points="144.5,-267.5 144.5,-286.5 211.5,-286.5 211.5,-267.5 144.5,-267.5"/>
<text text-anchor="middle" x="178" y="-274.5" font-family="Helvetica,sans-Serif" font-size="10.00" fill="#000000">FifoRdFsm</text>
</a>
</g>
</g>
<!-- Node15&#45;&gt;Node9 -->
<g id="edge16" class="edge">
<title>Node15&#45;&gt;Node9</title>
<path fill="none" stroke="#191970" d="M221.9014,-277C245.8136,-277 274.8512,-277 296.4994,-277"/>
<polygon fill="#191970" stroke="#191970" points="221.663,-273.5001 211.6629,-277 221.6629,-280.5001 221.663,-273.5001"/>
</g>
<!-- Node15&#45;&gt;Node17 -->
<g id="edge21" class="edge">
<title>Node15&#45;&gt;Node17</title>
<path fill="none" stroke="#191970" d="M221.6652,-288.0619C246.7411,-294.4144 277.5147,-302.2104 299.4925,-307.7781"/>
<polygon fill="#191970" stroke="#191970" points="222.2162,-284.5909 211.6629,-285.5279 220.4972,-291.3766 222.2162,-284.5909"/>
</g>
<!-- Node16 -->
<g id="node17" class="node">
<title>Node16</title>
<g id="a_node17"><a xlink:href="classSimpleDualPortRam.html" target="_top" xlink:title="SimpleDualPortRam">
<polygon fill="#ffffff" stroke="#000000" points="120.5,-343.5 120.5,-362.5 235.5,-362.5 235.5,-343.5 120.5,-343.5"/>
<text text-anchor="middle" x="178" y="-350.5" font-family="Helvetica,sans-Serif" font-size="10.00" fill="#000000">SimpleDualPortRam</text>
</a>
</g>
</g>
<!-- Node16&#45;&gt;Node9 -->
<g id="edge17" class="edge">
<title>Node16&#45;&gt;Node9</title>
<path fill="none" stroke="#191970" d="M229.1786,-339.6878C232.9464,-337.9976 236.5986,-336.1084 240,-334 259.7738,-321.7431 256.5576,-308.7761 276,-296 282.185,-291.9357 289.3538,-288.5974 296.3549,-285.9161"/>
<polygon fill="#191970" stroke="#191970" points="227.6415,-336.5328 219.6519,-343.491 230.2369,-343.0339 227.6415,-336.5328"/>
</g>
<!-- Node16&#45;&gt;Node17 -->
<g id="edge22" class="edge">
<title>Node16&#45;&gt;Node17</title>
<path fill="none" stroke="#191970" d="M225.562,-340.951C249.7406,-334.8257 278.3321,-327.5825 299.1562,-322.3071"/>
<polygon fill="#191970" stroke="#191970" points="224.6856,-337.5623 215.8513,-343.411 226.4047,-344.348 224.6856,-337.5623"/>
</g>
<!-- Node17&#45;&gt;Node5 -->
<g id="edge19" class="edge">
<title>Node17&#45;&gt;Node5</title>
<path fill="none" stroke="#191970" d="M366.6458,-324.4745C395.785,-331.6183 434.8096,-341.1856 459.4312,-347.2218"/>
<polygon fill="#191970" stroke="#191970" points="367.3369,-321.0403 356.7911,-322.0585 365.67,-327.839 367.3369,-321.0403"/>
</g>
<!-- Node18&#45;&gt;Node0 -->
<g id="edge26" class="edge">
<title>Node18&#45;&gt;Node0</title>
<path fill="none" stroke="#191970" d="M541.5633,-276C674.6563,-276 996.329,-276 1099.8323,-276"/>
<polygon fill="#191970" stroke="#191970" points="541.5525,-272.5001 531.5524,-276 541.5524,-279.5001 541.5525,-272.5001"/>
</g>
<!-- Node25 -->
<g id="node26" class="node">
<title>Node25</title>
<g id="a_node26"><a xlink:href="classSynchronizerOneShotCnt.html" target="_top" xlink:title="SynchronizerOneShotCnt">
<polygon fill="#ffffff" stroke="#000000" points="586,-183.5 586,-202.5 723,-202.5 723,-183.5 586,-183.5"/>
<text text-anchor="middle" x="654.5" y="-190.5" font-family="Helvetica,sans-Serif" font-size="10.00" fill="#000000">SynchronizerOneShotCnt</text>
</a>
</g>
</g>
<!-- Node18&#45;&gt;Node25 -->
<g id="edge38" class="edge">
<title>Node18&#45;&gt;Node25</title>
<path fill="none" stroke="#191970" d="M511.8711,-262.0274C546.7851,-245.1302 604.6136,-217.1433 634.7928,-202.5376"/>
<polygon fill="#191970" stroke="#191970" points="510.1498,-258.972 502.6732,-266.4788 513.1992,-265.2729 510.1498,-258.972"/>
</g>
<!-- Node19 -->
<g id="node20" class="node">
<title>Node19</title>
<g id="a_node20"><a xlink:href="classSyncStatusVector.html" target="_top" xlink:title="SyncStatusVector">
<polygon fill="#ffffff" stroke="#000000" points="963,-226.5 963,-245.5 1064,-245.5 1064,-226.5 963,-226.5"/>
<text text-anchor="middle" x="1013.5" y="-233.5" font-family="Helvetica,sans-Serif" font-size="10.00" fill="#000000">SyncStatusVector</text>
</a>
</g>
</g>
<!-- Node19&#45;&gt;Node0 -->
<g id="edge28" class="edge">
<title>Node19&#45;&gt;Node0</title>
<path fill="none" stroke="#191970" d="M1051.6899,-248.8369C1068.7571,-254.5738 1088.5197,-261.2167 1104.2291,-266.4972"/>
<polygon fill="#191970" stroke="#191970" points="1052.5975,-245.4496 1042.0035,-245.581 1050.3671,-252.0848 1052.5975,-245.4496"/>
</g>
<!-- Node20 -->
<g id="node21" class="node">
<title>Node20</title>
<g id="a_node21"><a xlink:href="classSynchronizerVector.html" target="_top" xlink:title="SynchronizerVector">
<polygon fill="#ffffff" stroke="#000000" points="788,-226.5 788,-245.5 898,-245.5 898,-226.5 788,-226.5"/>
<text text-anchor="middle" x="843" y="-233.5" font-family="Helvetica,sans-Serif" font-size="10.00" fill="#000000">SynchronizerVector</text>
</a>
</g>
</g>
<!-- Node20&#45;&gt;Node19 -->
<g id="edge29" class="edge">
<title>Node20&#45;&gt;Node19</title>
<path fill="none" stroke="#191970" d="M908.4911,-236C926.4849,-236 945.7215,-236 962.7493,-236"/>
<polygon fill="#191970" stroke="#191970" points="908.3565,-232.5001 898.3565,-236 908.3564,-239.5001 908.3565,-232.5001"/>
</g>
<!-- Node21 -->
<g id="node22" class="node">
<title>Node21</title>
<g id="a_node22"><a xlink:href="classSynchronizerOneShotCntVector.html" target="_top" xlink:title="SynchronizerOneShotCntVector">
<polygon fill="#ffffff" stroke="#000000" points="759,-183.5 759,-202.5 927,-202.5 927,-183.5 759,-183.5"/>
<text text-anchor="middle" x="843" y="-190.5" font-family="Helvetica,sans-Serif" font-size="10.00" fill="#000000">SynchronizerOneShotCntVector</text>
</a>
</g>
</g>
<!-- Node21&#45;&gt;Node19 -->
<g id="edge30" class="edge">
<title>Node21&#45;&gt;Node19</title>
<path fill="none" stroke="#191970" d="M890.8042,-205.0562C917.6729,-211.8325 950.7349,-220.1707 975.7663,-226.4836"/>
<polygon fill="#191970" stroke="#191970" points="891.3918,-201.5949 880.8395,-202.5431 889.6799,-208.3823 891.3918,-201.5949"/>
</g>
<!-- Node22 -->
<g id="node23" class="node">
<title>Node22</title>
<g id="a_node23"><a xlink:href="classSynchronizerOneShot.html" target="_top" xlink:title="SynchronizerOneShot(2)">
<polygon fill="#ffffff" stroke="#000000" points="416,-135.5 416,-154.5 550,-154.5 550,-135.5 416,-135.5"/>
<text text-anchor="middle" x="483" y="-142.5" font-family="Helvetica,sans-Serif" font-size="10.00" fill="#000000">SynchronizerOneShot(2)</text>
</a>
</g>
</g>
<!-- Node22&#45;&gt;Node21 -->
<g id="edge31" class="edge">
<title>Node22&#45;&gt;Node21</title>
<path fill="none" stroke="#191970" d="M560.1989,-153.5978C607.2951,-159.0244 668.6874,-166.4215 723,-174 743.4727,-176.8567 765.8564,-180.3105 785.6878,-183.4858"/>
<polygon fill="#191970" stroke="#191970" points="560.405,-150.0985 550.0712,-152.4357 559.607,-157.0529 560.405,-150.0985"/>
</g>
<!-- Node22&#45;&gt;Node25 -->
<g id="edge37" class="edge">
<title>Node22&#45;&gt;Node25</title>
<path fill="none" stroke="#191970" d="M527.1688,-157.3621C556.1629,-165.4771 593.525,-175.9341 620.266,-183.4185"/>
<polygon fill="#191970" stroke="#191970" points="527.8667,-153.923 517.2934,-154.5982 525.98,-160.664 527.8667,-153.923"/>
</g>
<!-- Node23&#45;&gt;Node22 -->
<g id="edge32" class="edge">
<title>Node23&#45;&gt;Node22</title>
<path fill="none" stroke="#191970" d="M366.4418,-145C381.3882,-145 398.9587,-145 415.8599,-145"/>
<polygon fill="#191970" stroke="#191970" points="366.0694,-141.5001 356.0693,-145 366.0693,-148.5001 366.0694,-141.5001"/>
</g>
<!-- Node24&#45;&gt;Node22 -->
<g id="edge34" class="edge">
<title>Node24&#45;&gt;Node22</title>
<path fill="none" stroke="#191970" d="M375.86,-118.0422C398.162,-123.6537 424.3196,-130.2353 445.2059,-135.4905"/>
<polygon fill="#191970" stroke="#191970" points="376.4691,-114.5864 365.9173,-115.5405 374.761,-121.3748 376.4691,-114.5864"/>
</g>
<!-- Node25&#45;&gt;Node21 -->
<g id="edge36" class="edge">
<title>Node25&#45;&gt;Node21</title>
<path fill="none" stroke="#191970" d="M733.2491,-193C741.6652,-193 750.2509,-193 758.7277,-193"/>
<polygon fill="#191970" stroke="#191970" points="733.0861,-189.5001 723.0861,-193 733.086,-196.5001 733.0861,-189.5001"/>
</g>
</g>
</svg>
        <g id="navigator" transform="translate(0 0)" fill="#404254">
                <rect fill="#f2f5e9" fill-opacity="0.5" stroke="#606060" stroke-width=".5" x="0" y="0" width="60" height="60"/>
                <use id="zoomplus" xlink:href="#zoomPlus" x="17" y="9" onmousedown="handleZoom(evt,'in')"/>
                <use id="zoomminus" xlink:href="#zoomMin" x="42" y="9" onmousedown="handleZoom(evt,'out')"/>
                <use id="reset" xlink:href="#resetDef" x="30" y="36" onmousedown="handleReset()"/>
                <g id="arrowUp" xlink:href="#dirArrow" transform="translate(30 24)" onmousedown="handlePan(0,-1)">
                  <use xlink:href="#rim" fill="#404040">
                        <set attributeName="fill" to="#808080" begin="arrowUp.mouseover" end="arrowUp.mouseout"/>
                  </use>
                  <path fill="none" stroke="white" stroke-width="1.5" d="M0,-3.0v7 M-2.5,-0.5L0,-3.0L2.5,-0.5"/>
                </g>
                <g id="arrowRight" xlink:href="#dirArrow" transform="rotate(90) translate(36 -43)" onmousedown="handlePan(1,0)">
                  <use xlink:href="#rim" fill="#404040">
                        <set attributeName="fill" to="#808080" begin="arrowRight.mouseover" end="arrowRight.mouseout"/>
                  </use>
                  <path fill="none" stroke="white" stroke-width="1.5" d="M0,-3.0v7 M-2.5,-0.5L0,-3.0L2.5,-0.5"/>
                </g>
                <g id="arrowDown" xlink:href="#dirArrow" transform="rotate(180) translate(-30 -48)" onmousedown="handlePan(0,1)">
                  <use xlink:href="#rim" fill="#404040">
                        <set attributeName="fill" to="#808080" begin="arrowDown.mouseover" end="arrowDown.mouseout"/>
                  </use>
                  <path fill="none" stroke="white" stroke-width="1.5" d="M0,-3.0v7 M-2.5,-0.5L0,-3.0L2.5,-0.5"/>
                </g>
                <g id="arrowLeft" xlink:href="#dirArrow" transform="rotate(270) translate(-36 17)" onmousedown="handlePan(-1,0)">
                  <use xlink:href="#rim" fill="#404040">
                        <set attributeName="fill" to="#808080" begin="arrowLeft.mouseover" end="arrowLeft.mouseout"/>
                  </use>
                  <path fill="none" stroke="white" stroke-width="1.5" d="M0,-3.0v7 M-2.5,-0.5L0,-3.0L2.5,-0.5"/>
                </g>
        </g>
        <svg viewBox="0 0 15 15" width="100%" height="30px" preserveAspectRatio="xMaxYMin meet">
         <g id="arrow_out" transform="scale(0.3 0.3)">
          <a xlink:href="classSsiPrbsRx__inherit__graph_org.svg" target="_base">
           <rect id="button" ry="5" rx="5" y="6" x="6" height="38" width="38"
                fill="#f2f5e9" fill-opacity="0.5" stroke="#606060" stroke-width="1.0"/>
           <path id="arrow"
             d="M 11.500037,31.436501 C 11.940474,20.09759 22.043105,11.32322 32.158766,21.979434 L 37.068811,17.246167 C 37.068811,17.246167 37.088388,32 37.088388,32 L 22.160133,31.978069 C 22.160133,31.978069 26.997745,27.140456 26.997745,27.140456 C 18.528582,18.264221 13.291696,25.230495 11.500037,31.436501 z"
             style="fill:#404040;"/>
          </a>
         </g>
        </svg>
</svg>
