<?xml version="1.0" encoding="UTF-8" standalone="no"?>
<!DOCTYPE svg PUBLIC "-//W3C//DTD SVG 1.1//EN"
 "http://www.w3.org/Graphics/SVG/1.1/DTD/svg11.dtd">
<!-- Generated by graphviz version 2.43.0 (0)
 -->
<!-- Title: Delaye3PatchFsm Pages: 1 -->
<svg width="758pt" height="180pt"
 viewBox="0.00 0.00 758.00 180.00" xmlns="http://www.w3.org/2000/svg" xmlns:xlink="http://www.w3.org/1999/xlink">
<g id="graph0" class="graph" transform="scale(1 1) rotate(0) translate(4 176)">
<title>Delaye3PatchFsm</title>
<polygon fill="white" stroke="transparent" points="-4,4 -4,-176 754,-176 754,4 -4,4"/>
<!-- Node1 -->
<g id="node1" class="node">
<title>Node1</title>
<g id="a_node1"><a xlink:title=" ">
<polygon fill="#bfbfbf" stroke="black" points="0,-95.5 0,-114.5 104,-114.5 104,-95.5 0,-95.5"/>
<text text-anchor="middle" x="52" y="-102.5" font-family="Helvetica,sans-Serif" font-size="10.00">Delaye3PatchFsm</text>
</a>
</g>
</g>
<!-- Node2 -->
<g id="node2" class="node">
<title>Node2</title>
<g id="a_node2"><a xlink:href="classIdelaye3Wrapper.html" target="_top" xlink:title=" ">
<polygon fill="white" stroke="black" points="142,-76.5 142,-95.5 242,-95.5 242,-76.5 142,-76.5"/>
<text text-anchor="middle" x="192" y="-83.5" font-family="Helvetica,sans-Serif" font-size="10.00">Idelaye3Wrapper</text>
</a>
</g>
</g>
<!-- Node1&#45;&gt;Node2 -->
<g id="edge1" class="edge">
<title>Node1&#45;&gt;Node2</title>
<path fill="none" stroke="midnightblue" d="M114.29,-96.56C123.52,-95.29 132.93,-93.99 141.86,-92.77"/>
<polygon fill="midnightblue" stroke="midnightblue" points="113.82,-93.09 104.39,-97.93 114.77,-100.03 113.82,-93.09"/>
</g>
<!-- Node14 -->
<g id="node14" class="node">
<title>Node14</title>
<g id="a_node14"><a xlink:href="classOdelaye3Wrapper.html" target="_top" xlink:title=" ">
<polygon fill="white" stroke="black" points="140,-114.5 140,-133.5 244,-133.5 244,-114.5 140,-114.5"/>
<text text-anchor="middle" x="192" y="-121.5" font-family="Helvetica,sans-Serif" font-size="10.00">Odelaye3Wrapper</text>
</a>
</g>
</g>
<!-- Node1&#45;&gt;Node14 -->
<g id="edge13" class="edge">
<title>Node1&#45;&gt;Node14</title>
<path fill="none" stroke="midnightblue" d="M114.5,-113.47C122.87,-114.62 131.4,-115.79 139.57,-116.92"/>
<polygon fill="midnightblue" stroke="midnightblue" points="114.77,-109.97 104.39,-112.07 113.82,-116.91 114.77,-109.97"/>
</g>
<!-- Node3 -->
<g id="node3" class="node">
<title>Node3</title>
<g id="a_node3"><a xlink:href="classAd9249Deserializer.html" target="_top" xlink:title=" ">
<polygon fill="white" stroke="black" points="303,-114.5 303,-133.5 415,-133.5 415,-114.5 303,-114.5"/>
<text text-anchor="middle" x="359" y="-121.5" font-family="Helvetica,sans-Serif" font-size="10.00">Ad9249Deserializer</text>
</a>
</g>
</g>
<!-- Node2&#45;&gt;Node3 -->
<g id="edge2" class="edge">
<title>Node2&#45;&gt;Node3</title>
<path fill="none" stroke="midnightblue" d="M244.65,-97.9C267.85,-103.24 294.84,-109.45 316.66,-114.48"/>
<polygon fill="midnightblue" stroke="midnightblue" points="245.17,-94.42 234.64,-95.59 243.6,-101.24 245.17,-94.42"/>
</g>
<!-- Node5 -->
<g id="node5" class="node">
<title>Node5</title>
<g id="a_node5"><a xlink:href="classAd9249ReadoutClkUS.html" target="_top" xlink:title=" ">
<polygon fill="white" stroke="black" points="297.5,-76.5 297.5,-95.5 420.5,-95.5 420.5,-76.5 297.5,-76.5"/>
<text text-anchor="middle" x="359" y="-83.5" font-family="Helvetica,sans-Serif" font-size="10.00">Ad9249ReadoutClkUS</text>
</a>
</g>
</g>
<!-- Node2&#45;&gt;Node5 -->
<g id="edge4" class="edge">
<title>Node2&#45;&gt;Node5</title>
<path fill="none" stroke="midnightblue" d="M252.06,-86C266.8,-86 282.63,-86 297.44,-86"/>
<polygon fill="midnightblue" stroke="midnightblue" points="252.06,-82.5 242.06,-86 252.06,-89.5 252.06,-82.5"/>
</g>
<!-- Node6 -->
<g id="node6" class="node">
<title>Node6</title>
<g id="a_node6"><a xlink:href="classAxiAds42lb69DeserBit.html" target="_top" xlink:title=" ">
<polygon fill="white" stroke="black" points="296.5,-152.5 296.5,-171.5 421.5,-171.5 421.5,-152.5 296.5,-152.5"/>
<text text-anchor="middle" x="359" y="-159.5" font-family="Helvetica,sans-Serif" font-size="10.00">AxiAds42lb69DeserBit</text>
</a>
</g>
</g>
<!-- Node2&#45;&gt;Node6 -->
<g id="edge5" class="edge">
<title>Node2&#45;&gt;Node6</title>
<path fill="none" stroke="midnightblue" d="M234.68,-99.67C237.93,-101.29 241.07,-103.06 244,-105 263.4,-117.84 259.88,-131.33 280,-143 286.63,-146.85 294.01,-149.92 301.52,-152.37"/>
<polygon fill="midnightblue" stroke="midnightblue" points="235.93,-96.4 225.37,-95.52 233.08,-102.79 235.93,-96.4"/>
</g>
<!-- Node9 -->
<g id="node9" class="node">
<title>Node9</title>
<g id="a_node9"><a xlink:href="classClinkDataShift.html" target="_top" xlink:title=" ">
<polygon fill="white" stroke="black" points="316,-38.5 316,-57.5 402,-57.5 402,-38.5 316,-38.5"/>
<text text-anchor="middle" x="359" y="-45.5" font-family="Helvetica,sans-Serif" font-size="10.00">ClinkDataShift</text>
</a>
</g>
</g>
<!-- Node2&#45;&gt;Node9 -->
<g id="edge8" class="edge">
<title>Node2&#45;&gt;Node9</title>
<path fill="none" stroke="midnightblue" d="M244.65,-74.1C267.85,-68.76 294.84,-62.55 316.66,-57.52"/>
<polygon fill="midnightblue" stroke="midnightblue" points="243.6,-70.76 234.64,-76.41 245.17,-77.58 243.6,-70.76"/>
</g>
<!-- Node12 -->
<g id="node12" class="node">
<title>Node12</title>
<g id="a_node12"><a xlink:href="classSelectioDeserLaneUltraScale.html" target="_top" xlink:title=" ">
<polygon fill="white" stroke="black" points="280,-0.5 280,-19.5 438,-19.5 438,-0.5 280,-0.5"/>
<text text-anchor="middle" x="359" y="-7.5" font-family="Helvetica,sans-Serif" font-size="10.00">SelectioDeserLaneUltraScale</text>
</a>
</g>
</g>
<!-- Node2&#45;&gt;Node12 -->
<g id="edge11" class="edge">
<title>Node2&#45;&gt;Node12</title>
<path fill="none" stroke="midnightblue" d="M212.66,-70.29C229.6,-57.47 255.17,-39.77 280,-29 288.69,-25.23 298.27,-22.12 307.65,-19.59"/>
<polygon fill="midnightblue" stroke="midnightblue" points="210.41,-67.6 204.64,-76.49 214.69,-73.14 210.41,-67.6"/>
</g>
<!-- Node4 -->
<g id="node4" class="node">
<title>Node4</title>
<g id="a_node4"><a xlink:href="classAd9249ReadoutGroup.html" target="_top" xlink:title=" ">
<polygon fill="white" stroke="black" points="479.5,-114.5 479.5,-133.5 602.5,-133.5 602.5,-114.5 479.5,-114.5"/>
<text text-anchor="middle" x="541" y="-121.5" font-family="Helvetica,sans-Serif" font-size="10.00">Ad9249ReadoutGroup</text>
</a>
</g>
</g>
<!-- Node3&#45;&gt;Node4 -->
<g id="edge3" class="edge">
<title>Node3&#45;&gt;Node4</title>
<path fill="none" stroke="midnightblue" d="M425.64,-124C443.2,-124 462.11,-124 479.39,-124"/>
<polygon fill="midnightblue" stroke="midnightblue" points="425.47,-120.5 415.47,-124 425.47,-127.5 425.47,-120.5"/>
</g>
<!-- Node7 -->
<g id="node7" class="node">
<title>Node7</title>
<g id="a_node7"><a xlink:href="classAxiAds42lb69Deser.html" target="_top" xlink:title=" ">
<polygon fill="white" stroke="black" points="485,-152.5 485,-171.5 597,-171.5 597,-152.5 485,-152.5"/>
<text text-anchor="middle" x="541" y="-159.5" font-family="Helvetica,sans-Serif" font-size="10.00">AxiAds42lb69Deser</text>
</a>
</g>
</g>
<!-- Node6&#45;&gt;Node7 -->
<g id="edge6" class="edge">
<title>Node6&#45;&gt;Node7</title>
<path fill="none" stroke="midnightblue" d="M431.92,-162C449.5,-162 468.05,-162 484.72,-162"/>
<polygon fill="midnightblue" stroke="midnightblue" points="431.69,-158.5 421.69,-162 431.69,-165.5 431.69,-158.5"/>
</g>
<!-- Node8 -->
<g id="node8" class="node">
<title>Node8</title>
<g id="a_node8"><a xlink:href="classAxiAds42lb69Core.html" target="_top" xlink:title=" ">
<polygon fill="white" stroke="black" points="644,-152.5 644,-171.5 750,-171.5 750,-152.5 644,-152.5"/>
<text text-anchor="middle" x="697" y="-159.5" font-family="Helvetica,sans-Serif" font-size="10.00">AxiAds42lb69Core</text>
</a>
</g>
</g>
<!-- Node7&#45;&gt;Node8 -->
<g id="edge7" class="edge">
<title>Node7&#45;&gt;Node8</title>
<path fill="none" stroke="midnightblue" d="M607.28,-162C619.47,-162 632.06,-162 643.8,-162"/>
<polygon fill="midnightblue" stroke="midnightblue" points="607.16,-158.5 597.16,-162 607.16,-165.5 607.16,-158.5"/>
</g>
<!-- Node10 -->
<g id="node10" class="node">
<title>Node10</title>
<g id="a_node10"><a xlink:href="classClinkData.html" target="_top" xlink:title=" ">
<polygon fill="white" stroke="black" points="508.5,-38.5 508.5,-57.5 573.5,-57.5 573.5,-38.5 508.5,-38.5"/>
<text text-anchor="middle" x="541" y="-45.5" font-family="Helvetica,sans-Serif" font-size="10.00">ClinkData</text>
</a>
</g>
</g>
<!-- Node9&#45;&gt;Node10 -->
<g id="edge9" class="edge">
<title>Node9&#45;&gt;Node10</title>
<path fill="none" stroke="midnightblue" d="M412.45,-48C443.56,-48 481.98,-48 508.47,-48"/>
<polygon fill="midnightblue" stroke="midnightblue" points="412.2,-44.5 402.2,-48 412.2,-51.5 412.2,-44.5"/>
</g>
<!-- Node11 -->
<g id="node11" class="node">
<title>Node11</title>
<g id="a_node11"><a xlink:href="classClinkTop.html" target="_top" xlink:title=" ">
<polygon fill="white" stroke="black" points="668,-38.5 668,-57.5 726,-57.5 726,-38.5 668,-38.5"/>
<text text-anchor="middle" x="697" y="-45.5" font-family="Helvetica,sans-Serif" font-size="10.00">ClinkTop</text>
</a>
</g>
</g>
<!-- Node10&#45;&gt;Node11 -->
<g id="edge10" class="edge">
<title>Node10&#45;&gt;Node11</title>
<path fill="none" stroke="midnightblue" d="M583.74,-48C610.44,-48 644.34,-48 667.87,-48"/>
<polygon fill="midnightblue" stroke="midnightblue" points="583.54,-44.5 573.54,-48 583.54,-51.5 583.54,-44.5"/>
</g>
<!-- Node13 -->
<g id="node13" class="node">
<title>Node13</title>
<g id="a_node13"><a xlink:href="classSelectioDeserUltraScale.html" target="_top" xlink:title=" ">
<polygon fill="white" stroke="black" points="474,-0.5 474,-19.5 608,-19.5 608,-0.5 474,-0.5"/>
<text text-anchor="middle" x="541" y="-7.5" font-family="Helvetica,sans-Serif" font-size="10.00">SelectioDeserUltraScale</text>
</a>
</g>
</g>
<!-- Node12&#45;&gt;Node13 -->
<g id="edge12" class="edge">
<title>Node12&#45;&gt;Node13</title>
<path fill="none" stroke="midnightblue" d="M448.22,-10C456.81,-10 465.42,-10 473.74,-10"/>
<polygon fill="midnightblue" stroke="midnightblue" points="448.17,-6.5 438.17,-10 448.17,-13.5 448.17,-6.5"/>
</g>
<!-- Node14&#45;&gt;Node3 -->
<g id="edge14" class="edge">
<title>Node14&#45;&gt;Node3</title>
<path fill="none" stroke="midnightblue" d="M254.51,-124C270.33,-124 287.24,-124 302.72,-124"/>
<polygon fill="midnightblue" stroke="midnightblue" points="254.3,-120.5 244.3,-124 254.3,-127.5 254.3,-120.5"/>
</g>
<!-- Node14&#45;&gt;Node6 -->
<g id="edge15" class="edge">
<title>Node14&#45;&gt;Node6</title>
<path fill="none" stroke="midnightblue" d="M244.65,-135.9C267.85,-141.24 294.84,-147.45 316.66,-152.48"/>
<polygon fill="midnightblue" stroke="midnightblue" points="245.17,-132.42 234.64,-133.59 243.6,-139.24 245.17,-132.42"/>
</g>
</g>
</svg>
