<?xml version="1.0" encoding="UTF-8" standalone="no"?>
<!DOCTYPE svg PUBLIC "-//W3C//DTD SVG 1.1//EN"
 "http://www.w3.org/Graphics/SVG/1.1/DTD/svg11.dtd">
<!-- Generated by graphviz version 2.40.1 (20161225.0304)
 -->
<!-- Title: SaltRx Pages: 1 -->
<!--zoomable 375 -->
<svg id="main" version="1.1" xmlns="http://www.w3.org/2000/svg" xmlns:xlink="http://www.w3.org/1999/xlink" xml:space="preserve" onload="init(evt)">
<style type="text/css"><![CDATA[
.edge:hover path { stroke: red; }
.edge:hover polygon { stroke: red; fill: red; }
]]></style>
<script type="text/javascript"><![CDATA[
var edges = document.getElementsByTagName('g');
if (edges && edges.length) {
  for (var i=0;i<edges.length;i++) {
    if (edges[i].id.substr(0,4)=='edge') {
      edges[i].setAttribute('class','edge');
    }
  }
}
]]></script>
        <defs>
                <circle id="rim" cx="0" cy="0" r="7"/>
                <circle id="rim2" cx="0" cy="0" r="3.5"/>
                <g id="zoomPlus">
                        <use xlink:href="#rim" fill="#404040">
                                <set attributeName="fill" to="#808080" begin="zoomplus.mouseover" end="zoomplus.mouseout"/>
                        </use>
                        <path d="M-4,0h8M0,-4v8" fill="none" stroke="white" stroke-width="1.5" pointer-events="none"/>
                </g>
                <g id="zoomMin">
                        <use xlink:href="#rim" fill="#404040">
                                <set attributeName="fill" to="#808080" begin="zoomminus.mouseover" end="zoomminus.mouseout"/>
                        </use>
                        <path d="M-4,0h8" fill="none" stroke="white" stroke-width="1.5" pointer-events="none"/>
                </g>
                <g id="dirArrow">
                        <path fill="none" stroke="white" stroke-width="1.5" d="M0,-3.0v7 M-2.5,-0.5L0,-3.0L2.5,-0.5"/>
                </g>
               <g id="resetDef">
                       <use xlink:href="#rim2" fill="#404040">
                               <set attributeName="fill" to="#808080" begin="reset.mouseover" end="reset.mouseout"/>
                       </use>
               </g>
        </defs>

<script type="text/javascript">
var viewWidth = 1268;
var viewHeight = 375;
var sectionId = 'dynsection-0';
</script>
<script xlink:href="svgpan.js"/>
<svg id="graph" class="graph">
<g id="viewport">
<title>SaltRx</title>
<polygon fill="#ffffff" stroke="transparent" points="-4,4 -4,-371.0121 1264,-371.0121 1264,4 -4,4"/>
<!-- Node0 -->
<g id="node1" class="node">
<title>Node0</title>
<polygon fill="#bfbfbf" stroke="#000000" points="956,-128.5121 956,-147.5121 1004,-147.5121 1004,-128.5121 956,-128.5121"/>
<text text-anchor="middle" x="980" y="-135.5121" font-family="Helvetica,sans-Serif" font-size="10.00" fill="#000000">SaltRx</text>
</g>
<!-- Node24 -->
<g id="node25" class="node">
<title>Node24</title>
<g id="a_node25"><a xlink:href="classSalt7Series.html" target="_top" xlink:title="Salt7Series">
<polygon fill="#ffffff" stroke="#000000" points="1047.5,-147.5121 1047.5,-166.5121 1118.5,-166.5121 1118.5,-147.5121 1047.5,-147.5121"/>
<text text-anchor="middle" x="1083" y="-154.5121" font-family="Helvetica,sans-Serif" font-size="10.00" fill="#000000">Salt7Series</text>
</a>
</g>
</g>
<!-- Node0&#45;&gt;Node24 -->
<g id="edge34" class="edge">
<title>Node0&#45;&gt;Node24</title>
<path fill="none" stroke="#191970" d="M1014.3031,-144.3399C1024.901,-146.2948 1036.5965,-148.4523 1047.2872,-150.4243"/>
<polygon fill="#191970" stroke="#191970" points="1014.618,-140.839 1004.1489,-142.4668 1013.3481,-147.7229 1014.618,-140.839"/>
</g>
<!-- Node26 -->
<g id="node27" class="node">
<title>Node26</title>
<g id="a_node27"><a xlink:href="classSaltUltraScale.html" target="_top" xlink:title="SaltUltraScale">
<polygon fill="#ffffff" stroke="#000000" points="1040,-109.5121 1040,-128.5121 1126,-128.5121 1126,-109.5121 1040,-109.5121"/>
<text text-anchor="middle" x="1083" y="-116.5121" font-family="Helvetica,sans-Serif" font-size="10.00" fill="#000000">SaltUltraScale</text>
</a>
</g>
</g>
<!-- Node0&#45;&gt;Node26 -->
<g id="edge36" class="edge">
<title>Node0&#45;&gt;Node26</title>
<path fill="none" stroke="#191970" d="M1014.0763,-131.7262C1022.2518,-130.2181 1031.0913,-128.5875 1039.6254,-127.0133"/>
<polygon fill="#191970" stroke="#191970" points="1013.3481,-128.3014 1004.1489,-133.5575 1014.618,-135.1853 1013.3481,-128.3014"/>
</g>
<!-- Node1 -->
<g id="node2" class="node">
<title>Node1</title>
<g id="a_node2"><a xlink:href="classSsiFifo.html" target="_top" xlink:title="SsiFifo">
<polygon fill="#ffffff" stroke="#000000" points="872,-128.5121 872,-147.5121 920,-147.5121 920,-128.5121 872,-128.5121"/>
<text text-anchor="middle" x="896" y="-135.5121" font-family="Helvetica,sans-Serif" font-size="10.00" fill="#000000">SsiFifo</text>
</a>
</g>
</g>
<!-- Node1&#45;&gt;Node0 -->
<g id="edge1" class="edge">
<title>Node1&#45;&gt;Node0</title>
<path fill="none" stroke="#191970" d="M930.3723,-138.0121C938.8897,-138.0121 947.8401,-138.0121 955.7583,-138.0121"/>
<polygon fill="#191970" stroke="#191970" points="930.2963,-134.5122 920.2963,-138.0121 930.2962,-141.5122 930.2963,-134.5122"/>
</g>
<!-- Node2 -->
<g id="node3" class="node">
<title>Node2</title>
<g id="a_node3"><a xlink:href="classSsiIbFrameFilter.html" target="_top" xlink:title="SsiIbFrameFilter">
<polygon fill="#ffffff" stroke="#000000" points="740,-195.5121 740,-214.5121 834,-214.5121 834,-195.5121 740,-195.5121"/>
<text text-anchor="middle" x="787" y="-202.5121" font-family="Helvetica,sans-Serif" font-size="10.00" fill="#000000">SsiIbFrameFilter</text>
</a>
</g>
</g>
<!-- Node2&#45;&gt;Node1 -->
<g id="edge2" class="edge">
<title>Node2&#45;&gt;Node1</title>
<path fill="none" stroke="#191970" d="M817.771,-190.9151C823.9091,-187.8326 830.2369,-184.456 836,-181.0121 853.3815,-170.6253 872.1629,-156.6801 883.9953,-147.5255"/>
<polygon fill="#191970" stroke="#191970" points="815.8476,-187.9588 808.3901,-195.4844 818.913,-194.252 815.8476,-187.9588"/>
</g>
<!-- Node3 -->
<g id="node4" class="node">
<title>Node3</title>
<g id="a_node4"><a xlink:href="classAxiStreamFifoV2.html" target="_top" xlink:title="AxiStreamFifoV2">
<polygon fill="#ffffff" stroke="#000000" points="738,-100.5121 738,-119.5121 836,-119.5121 836,-100.5121 738,-100.5121"/>
<text text-anchor="middle" x="787" y="-107.5121" font-family="Helvetica,sans-Serif" font-size="10.00" fill="#000000">AxiStreamFifoV2</text>
</a>
</g>
</g>
<!-- Node3&#45;&gt;Node1 -->
<g id="edge3" class="edge">
<title>Node3&#45;&gt;Node1</title>
<path fill="none" stroke="#191970" d="M834.0439,-122.0968C847.1236,-125.4567 860.7873,-128.9667 871.9445,-131.8328"/>
<polygon fill="#191970" stroke="#191970" points="834.7631,-118.668 824.2068,-119.5698 833.0215,-125.4479 834.7631,-118.668"/>
</g>
<!-- Node4 -->
<g id="node5" class="node">
<title>Node4</title>
<g id="a_node5"><a xlink:href="classAxiStreamResize.html" target="_top" xlink:title="AxiStreamResize(2)">
<polygon fill="#ffffff" stroke="#000000" points="589,-43.5121 589,-62.5121 702,-62.5121 702,-43.5121 589,-43.5121"/>
<text text-anchor="middle" x="645.5" y="-50.5121" font-family="Helvetica,sans-Serif" font-size="10.00" fill="#000000">AxiStreamResize(2)</text>
</a>
</g>
</g>
<!-- Node4&#45;&gt;Node3 -->
<g id="edge4" class="edge">
<title>Node4&#45;&gt;Node3</title>
<path fill="none" stroke="#191970" d="M677.9569,-66.5303C695.6681,-73.8604 718.0014,-83.028 738,-91.0121 745.7958,-94.1245 754.3168,-97.4537 762.0348,-100.442"/>
<polygon fill="#191970" stroke="#191970" points="679.215,-63.2631 668.637,-62.6662 676.534,-69.7293 679.215,-63.2631"/>
</g>
<!-- Node5 -->
<g id="node6" class="node">
<title>Node5</title>
<g id="a_node6"><a xlink:href="classAxiStreamPipeline.html" target="_top" xlink:title="AxiStreamPipeline">
<polygon fill="#ffffff" stroke="#000000" points="446,-62.5121 446,-81.5121 553,-81.5121 553,-62.5121 446,-62.5121"/>
<text text-anchor="middle" x="499.5" y="-69.5121" font-family="Helvetica,sans-Serif" font-size="10.00" fill="#000000">AxiStreamPipeline</text>
</a>
</g>
</g>
<!-- Node5&#45;&gt;Node3 -->
<g id="edge27" class="edge">
<title>Node5&#45;&gt;Node3</title>
<path fill="none" stroke="#191970" d="M563.4798,-80.4686C616.1446,-87.4295 689.7126,-97.1533 737.8412,-103.5146"/>
<polygon fill="#191970" stroke="#191970" points="563.6117,-76.9557 553.2393,-79.1151 562.6944,-83.8953 563.6117,-76.9557"/>
</g>
<!-- Node5&#45;&gt;Node4 -->
<g id="edge5" class="edge">
<title>Node5&#45;&gt;Node4</title>
<path fill="none" stroke="#191970" d="M563.2027,-63.7221C571.6312,-62.6252 580.2279,-61.5065 588.5332,-60.4256"/>
<polygon fill="#191970" stroke="#191970" points="562.5007,-60.2838 553.036,-65.0451 563.4041,-67.2253 562.5007,-60.2838"/>
</g>
<!-- Node6 -->
<g id="node7" class="node">
<title>Node6</title>
<g id="a_node7"><a xlink:href="classFifoCascade.html" target="_top" xlink:title="FifoCascade(2)">
<polygon fill="#ffffff" stroke="#000000" points="601,-119.5121 601,-138.5121 690,-138.5121 690,-119.5121 601,-119.5121"/>
<text text-anchor="middle" x="645.5" y="-126.5121" font-family="Helvetica,sans-Serif" font-size="10.00" fill="#000000">FifoCascade(2)</text>
</a>
</g>
</g>
<!-- Node6&#45;&gt;Node3 -->
<g id="edge6" class="edge">
<title>Node6&#45;&gt;Node3</title>
<path fill="none" stroke="#191970" d="M700.3816,-121.6429C712.6466,-119.996 725.5824,-118.259 737.6095,-116.6441"/>
<polygon fill="#191970" stroke="#191970" points="699.7167,-118.2006 690.2715,-123.0004 700.6484,-125.1384 699.7167,-118.2006"/>
</g>
<!-- Node7 -->
<g id="node8" class="node">
<title>Node7</title>
<g id="a_node8"><a xlink:href="classFifo.html" target="_top" xlink:title="Fifo(4)">
<polygon fill="#ffffff" stroke="#000000" points="476,-119.5121 476,-138.5121 523,-138.5121 523,-119.5121 476,-119.5121"/>
<text text-anchor="middle" x="499.5" y="-126.5121" font-family="Helvetica,sans-Serif" font-size="10.00" fill="#000000">Fifo(4)</text>
</a>
</g>
</g>
<!-- Node7&#45;&gt;Node6 -->
<g id="edge7" class="edge">
<title>Node7&#45;&gt;Node6</title>
<path fill="none" stroke="#191970" d="M533.4953,-129.0121C553.5374,-129.0121 579.1329,-129.0121 600.7955,-129.0121"/>
<polygon fill="#191970" stroke="#191970" points="533.2824,-125.5122 523.2824,-129.0121 533.2823,-132.5122 533.2824,-125.5122"/>
</g>
<!-- Node8 -->
<g id="node9" class="node">
<title>Node8</title>
<g id="a_node9"><a xlink:href="classFifoXpm.html" target="_top" xlink:title="FifoXpm">
<polygon fill="#ffffff" stroke="#000000" points="315,-43.5121 315,-62.5121 371,-62.5121 371,-43.5121 315,-43.5121"/>
<text text-anchor="middle" x="343" y="-50.5121" font-family="Helvetica,sans-Serif" font-size="10.00" fill="#000000">FifoXpm</text>
</a>
</g>
</g>
<!-- Node8&#45;&gt;Node7 -->
<g id="edge8" class="edge">
<title>Node8&#45;&gt;Node7</title>
<path fill="none" stroke="#191970" d="M380.8503,-61.6754C390.5512,-64.4528 400.8302,-67.8983 410,-72.0121 439.4138,-85.2079 470.4368,-106.9987 487.1239,-119.4671"/>
<polygon fill="#191970" stroke="#191970" points="381.5874,-58.2491 371.0208,-59.0228 379.7635,-65.0074 381.5874,-58.2491"/>
</g>
<!-- Node9 -->
<g id="node10" class="node">
<title>Node9</title>
<g id="a_node10"><a xlink:href="classFifoOutputPipeline.html" target="_top" xlink:title="FifoOutputPipeline">
<polygon fill="#ffffff" stroke="#000000" points="125,-43.5121 125,-62.5121 231,-62.5121 231,-43.5121 125,-43.5121"/>
<text text-anchor="middle" x="178" y="-50.5121" font-family="Helvetica,sans-Serif" font-size="10.00" fill="#000000">FifoOutputPipeline</text>
</a>
</g>
</g>
<!-- Node9&#45;&gt;Node8 -->
<g id="edge9" class="edge">
<title>Node9&#45;&gt;Node8</title>
<path fill="none" stroke="#191970" d="M241.4452,-53.0121C266.8539,-53.0121 294.8135,-53.0121 314.9516,-53.0121"/>
<polygon fill="#191970" stroke="#191970" points="241.1153,-49.5122 231.1153,-53.0121 241.1152,-56.5122 241.1153,-49.5122"/>
</g>
<!-- Node10 -->
<g id="node11" class="node">
<title>Node10</title>
<g id="a_node11"><a xlink:href="classFifoAlteraMf.html" target="_top" xlink:title="FifoAlteraMf">
<polygon fill="#ffffff" stroke="#000000" points="305.5,-81.5121 305.5,-100.5121 380.5,-100.5121 380.5,-81.5121 305.5,-81.5121"/>
<text text-anchor="middle" x="343" y="-88.5121" font-family="Helvetica,sans-Serif" font-size="10.00" fill="#000000">FifoAlteraMf</text>
</a>
</g>
</g>
<!-- Node9&#45;&gt;Node10 -->
<g id="edge11" class="edge">
<title>Node9&#45;&gt;Node10</title>
<path fill="none" stroke="#191970" d="M229.5081,-64.8746C254.0484,-70.5263 282.8694,-77.1639 305.3267,-82.3358"/>
<polygon fill="#191970" stroke="#191970" points="230.1669,-61.4348 219.6365,-62.6011 228.5959,-68.2562 230.1669,-61.4348"/>
</g>
<!-- Node11 -->
<g id="node12" class="node">
<title>Node11</title>
<g id="a_node12"><a xlink:href="classFifoAsync.html" target="_top" xlink:title="FifoAsync">
<polygon fill="#ffffff" stroke="#000000" points="311.5,-157.5121 311.5,-176.5121 374.5,-176.5121 374.5,-157.5121 311.5,-157.5121"/>
<text text-anchor="middle" x="343" y="-164.5121" font-family="Helvetica,sans-Serif" font-size="10.00" fill="#000000">FifoAsync</text>
</a>
</g>
</g>
<!-- Node9&#45;&gt;Node11 -->
<g id="edge20" class="edge">
<title>Node9&#45;&gt;Node11</title>
<path fill="none" stroke="#191970" d="M233.6666,-67.3367C235.8996,-68.7509 238.0253,-70.3048 240,-72.0121 268.2736,-96.4568 247.4708,-123.8663 276,-148.0121 285.8749,-156.3698 299.1998,-161.0603 311.3655,-163.689"/>
<polygon fill="#191970" stroke="#191970" points="235.0891,-64.1296 224.6135,-62.5447 231.8143,-70.3164 235.0891,-64.1296"/>
</g>
<!-- Node19 -->
<g id="node20" class="node">
<title>Node19</title>
<g id="a_node20"><a xlink:href="classFifoSync.html" target="_top" xlink:title="FifoSync">
<polygon fill="#ffffff" stroke="#000000" points="314.5,-119.5121 314.5,-138.5121 371.5,-138.5121 371.5,-119.5121 314.5,-119.5121"/>
<text text-anchor="middle" x="343" y="-126.5121" font-family="Helvetica,sans-Serif" font-size="10.00" fill="#000000">FifoSync</text>
</a>
</g>
</g>
<!-- Node9&#45;&gt;Node19 -->
<g id="edge25" class="edge">
<title>Node9&#45;&gt;Node19</title>
<path fill="none" stroke="#191970" d="M229.1786,-66.3243C232.9464,-68.0145 236.5986,-69.9037 240,-72.0121 259.7738,-84.269 256.0984,-97.9639 276,-110.0121 287.5841,-117.025 301.8563,-121.5384 314.2473,-124.3969"/>
<polygon fill="#191970" stroke="#191970" points="230.2369,-62.9782 219.6519,-62.5212 227.6415,-69.4794 230.2369,-62.9782"/>
</g>
<!-- Node10&#45;&gt;Node7 -->
<g id="edge10" class="edge">
<title>Node10&#45;&gt;Node7</title>
<path fill="none" stroke="#191970" d="M390.9057,-102.6442C418.9528,-109.4543 453.1541,-117.7588 475.5873,-123.2059"/>
<polygon fill="#191970" stroke="#191970" points="391.4278,-99.1693 380.8843,-100.2109 389.7761,-105.9717 391.4278,-99.1693"/>
</g>
<!-- Node11&#45;&gt;Node7 -->
<g id="edge12" class="edge">
<title>Node11&#45;&gt;Node7</title>
<path fill="none" stroke="#191970" d="M384.5463,-156.9242C413.6004,-149.8696 451.3828,-140.6955 475.5447,-134.8288"/>
<polygon fill="#191970" stroke="#191970" points="383.5619,-153.5615 374.6701,-159.3223 385.2136,-160.3638 383.5619,-153.5615"/>
</g>
<!-- Node12 -->
<g id="node13" class="node">
<title>Node12</title>
<g id="a_node13"><a xlink:href="classRstSync.html" target="_top" xlink:title="RstSync(2)">
<polygon fill="#ffffff" stroke="#000000" points="143.5,-195.5121 143.5,-214.5121 212.5,-214.5121 212.5,-195.5121 143.5,-195.5121"/>
<text text-anchor="middle" x="178" y="-202.5121" font-family="Helvetica,sans-Serif" font-size="10.00" fill="#000000">RstSync(2)</text>
</a>
</g>
</g>
<!-- Node12&#45;&gt;Node11 -->
<g id="edge13" class="edge">
<title>Node12&#45;&gt;Node11</title>
<path fill="none" stroke="#191970" d="M222.5437,-194.7536C250.5695,-188.2992 286.0681,-180.1237 311.2504,-174.3242"/>
<polygon fill="#191970" stroke="#191970" points="221.5488,-191.391 212.5894,-197.0461 223.1198,-198.2124 221.5488,-191.391"/>
</g>
<!-- Node13 -->
<g id="node14" class="node">
<title>Node13</title>
<g id="a_node14"><a xlink:href="classSynchronizer.html" target="_top" xlink:title="Synchronizer">
<polygon fill="#ffffff" stroke="#000000" points="0,-252.5121 0,-271.5121 80,-271.5121 80,-252.5121 0,-252.5121"/>
<text text-anchor="middle" x="40" y="-259.5121" font-family="Helvetica,sans-Serif" font-size="10.00" fill="#000000">Synchronizer</text>
</a>
</g>
</g>
<!-- Node13&#45;&gt;Node3 -->
<g id="edge26" class="edge">
<title>Node13&#45;&gt;Node3</title>
<path fill="none" stroke="#191970" d="M43.7094,-242.3024C53.6117,-191.9282 82.2273,-60.5646 116,-34.0121 195.589,28.5616 241.7583,-15.0121 343,-15.0121 343,-15.0121 343,-15.0121 499.5,-15.0121 589.8953,-15.0121 624.9602,13.2761 702,-34.0121 727.536,-49.6866 714.8663,-71.9698 738,-91.0121 742.6494,-94.8392 748.1583,-97.9558 753.7746,-100.474"/>
<polygon fill="#191970" stroke="#191970" points="40.2457,-241.78 41.7896,-252.2617 47.1192,-243.105 40.2457,-241.78"/>
</g>
<!-- Node13&#45;&gt;Node12 -->
<g id="edge14" class="edge">
<title>Node13&#45;&gt;Node12</title>
<path fill="none" stroke="#191970" d="M65.9947,-247.6668C80.4506,-240.0348 98.9219,-230.8434 116,-224.0121 124.6758,-220.5418 134.2432,-217.3245 143.212,-214.561"/>
<polygon fill="#191970" stroke="#191970" points="64.2915,-244.6086 57.1299,-252.4164 67.5974,-250.7787 64.2915,-244.6086"/>
</g>
<!-- Node21 -->
<g id="node22" class="node">
<title>Node21</title>
<g id="a_node22"><a xlink:href="classRstSync.html" target="_top" xlink:title="RstSync">
<polygon fill="#ffffff" stroke="#000000" points="150,-347.5121 150,-366.5121 206,-366.5121 206,-347.5121 150,-347.5121"/>
<text text-anchor="middle" x="178" y="-354.5121" font-family="Helvetica,sans-Serif" font-size="10.00" fill="#000000">RstSync</text>
</a>
</g>
</g>
<!-- Node13&#45;&gt;Node21 -->
<g id="edge30" class="edge">
<title>Node13&#45;&gt;Node21</title>
<path fill="none" stroke="#191970" d="M53.4504,-279.8136C67.3435,-297.0303 90.535,-322.6998 116,-338.0121 126.3234,-344.2197 138.8484,-348.5574 149.931,-351.5039"/>
<polygon fill="#191970" stroke="#191970" points="55.9961,-277.388 47.07,-271.6805 50.4886,-281.7087 55.9961,-277.388"/>
</g>
<!-- Node22 -->
<g id="node23" class="node">
<title>Node22</title>
<g id="a_node23"><a xlink:href="classSynchronizerEdge.html" target="_top" xlink:title="SynchronizerEdge">
<polygon fill="#ffffff" stroke="#000000" points="126,-309.5121 126,-328.5121 230,-328.5121 230,-309.5121 126,-309.5121"/>
<text text-anchor="middle" x="178" y="-316.5121" font-family="Helvetica,sans-Serif" font-size="10.00" fill="#000000">SynchronizerEdge</text>
</a>
</g>
</g>
<!-- Node13&#45;&gt;Node22 -->
<g id="edge32" class="edge">
<title>Node13&#45;&gt;Node22</title>
<path fill="none" stroke="#191970" d="M65.9947,-276.3575C80.4506,-283.9894 98.9219,-293.1809 116,-300.0121 124.6758,-303.4825 134.2432,-306.6997 143.212,-309.4632"/>
<polygon fill="#191970" stroke="#191970" points="67.5974,-273.2455 57.1299,-271.6079 64.2915,-279.4157 67.5974,-273.2455"/>
</g>
<!-- Node14 -->
<g id="node15" class="node">
<title>Node14</title>
<g id="a_node15"><a xlink:href="classSynchronizerVector.html" target="_top" xlink:title="SynchronizerVector(2)">
<polygon fill="#ffffff" stroke="#000000" points="116,-271.5121 116,-290.5121 240,-290.5121 240,-271.5121 116,-271.5121"/>
<text text-anchor="middle" x="178" y="-278.5121" font-family="Helvetica,sans-Serif" font-size="10.00" fill="#000000">SynchronizerVector(2)</text>
</a>
</g>
</g>
<!-- Node14&#45;&gt;Node11 -->
<g id="edge15" class="edge">
<title>Node14&#45;&gt;Node11</title>
<path fill="none" stroke="#191970" d="M228.1557,-267.8116C232.263,-266.0838 236.2656,-264.1562 240,-262.0121 281.1386,-238.3927 319.3673,-195.6355 335.2499,-176.6001"/>
<polygon fill="#191970" stroke="#191970" points="226.5683,-264.6703 218.4591,-271.4888 229.0504,-271.2155 226.5683,-264.6703"/>
</g>
<!-- Node15 -->
<g id="node16" class="node">
<title>Node15</title>
<g id="a_node16"><a xlink:href="classSynchronizer.html" target="_top" xlink:title="Synchronizer(2)">
<polygon fill="#ffffff" stroke="#000000" points="131.5,-233.5121 131.5,-252.5121 224.5,-252.5121 224.5,-233.5121 131.5,-233.5121"/>
<text text-anchor="middle" x="178" y="-240.5121" font-family="Helvetica,sans-Serif" font-size="10.00" fill="#000000">Synchronizer(2)</text>
</a>
</g>
</g>
<!-- Node15&#45;&gt;Node11 -->
<g id="edge16" class="edge">
<title>Node15&#45;&gt;Node11</title>
<path fill="none" stroke="#191970" d="M223.1354,-230.3905C228.8777,-228.4324 234.6225,-226.2946 240,-224.0121 272.7346,-210.1179 308.554,-188.7785 328.1423,-176.5336"/>
<polygon fill="#191970" stroke="#191970" points="221.9674,-227.0898 213.5391,-233.5097 224.1313,-233.7469 221.9674,-227.0898"/>
</g>
<!-- Node16 -->
<g id="node17" class="node">
<title>Node16</title>
<g id="a_node17"><a xlink:href="classFifoWrFsm.html" target="_top" xlink:title="FifoWrFsm">
<polygon fill="#ffffff" stroke="#000000" points="144.5,-119.5121 144.5,-138.5121 211.5,-138.5121 211.5,-119.5121 144.5,-119.5121"/>
<text text-anchor="middle" x="178" y="-126.5121" font-family="Helvetica,sans-Serif" font-size="10.00" fill="#000000">FifoWrFsm</text>
</a>
</g>
</g>
<!-- Node16&#45;&gt;Node11 -->
<g id="edge17" class="edge">
<title>Node16&#45;&gt;Node11</title>
<path fill="none" stroke="#191970" d="M221.8006,-139.0996C250.0294,-145.6007 286.0737,-153.9018 311.4927,-159.7559"/>
<polygon fill="#191970" stroke="#191970" points="222.3188,-135.6273 211.7884,-136.7937 220.7478,-142.4488 222.3188,-135.6273"/>
</g>
<!-- Node16&#45;&gt;Node19 -->
<g id="edge22" class="edge">
<title>Node16&#45;&gt;Node19</title>
<path fill="none" stroke="#191970" d="M222.1701,-129.0121C251.4707,-129.0121 289.0652,-129.0121 314.4792,-129.0121"/>
<polygon fill="#191970" stroke="#191970" points="221.7884,-125.5122 211.7884,-129.0121 221.7883,-132.5122 221.7884,-125.5122"/>
</g>
<!-- Node17 -->
<g id="node18" class="node">
<title>Node17</title>
<g id="a_node18"><a xlink:href="classFifoRdFsm.html" target="_top" xlink:title="FifoRdFsm">
<polygon fill="#ffffff" stroke="#000000" points="144.5,-81.5121 144.5,-100.5121 211.5,-100.5121 211.5,-81.5121 144.5,-81.5121"/>
<text text-anchor="middle" x="178" y="-88.5121" font-family="Helvetica,sans-Serif" font-size="10.00" fill="#000000">FifoRdFsm</text>
</a>
</g>
</g>
<!-- Node17&#45;&gt;Node11 -->
<g id="edge18" class="edge">
<title>Node17&#45;&gt;Node11</title>
<path fill="none" stroke="#191970" d="M221.13,-101.0557C227.702,-103.4733 234.2139,-106.4256 240,-110.0121 259.7738,-122.269 256.0984,-135.9639 276,-148.0121 286.6532,-154.4615 299.5799,-158.7969 311.2261,-161.6753"/>
<polygon fill="#191970" stroke="#191970" points="222.1292,-97.6998 211.5359,-97.8847 219.9324,-104.3461 222.1292,-97.6998"/>
</g>
<!-- Node17&#45;&gt;Node19 -->
<g id="edge23" class="edge">
<title>Node17&#45;&gt;Node19</title>
<path fill="none" stroke="#191970" d="M221.7851,-101.096C251.1407,-107.8566 288.9537,-116.5651 314.4792,-122.4437"/>
<polygon fill="#191970" stroke="#191970" points="222.3188,-97.6273 211.7884,-98.7937 220.7478,-104.4488 222.3188,-97.6273"/>
</g>
<!-- Node18 -->
<g id="node19" class="node">
<title>Node18</title>
<g id="a_node19"><a xlink:href="classSimpleDualPortRam.html" target="_top" xlink:title="SimpleDualPortRam">
<polygon fill="#ffffff" stroke="#000000" points="120.5,-157.5121 120.5,-176.5121 235.5,-176.5121 235.5,-157.5121 120.5,-157.5121"/>
<text text-anchor="middle" x="178" y="-164.5121" font-family="Helvetica,sans-Serif" font-size="10.00" fill="#000000">SimpleDualPortRam</text>
</a>
</g>
</g>
<!-- Node18&#45;&gt;Node11 -->
<g id="edge19" class="edge">
<title>Node18&#45;&gt;Node11</title>
<path fill="none" stroke="#191970" d="M245.9364,-167.0121C268.4805,-167.0121 292.5229,-167.0121 311.0396,-167.0121"/>
<polygon fill="#191970" stroke="#191970" points="245.709,-163.5122 235.709,-167.0121 245.709,-170.5122 245.709,-163.5122"/>
</g>
<!-- Node18&#45;&gt;Node19 -->
<g id="edge24" class="edge">
<title>Node18&#45;&gt;Node19</title>
<path fill="none" stroke="#191970" d="M229.6552,-155.1158C257.6054,-148.6788 291.0735,-140.971 314.3652,-135.6068"/>
<polygon fill="#191970" stroke="#191970" points="228.5959,-151.7681 219.6365,-157.4231 230.1669,-158.5895 228.5959,-151.7681"/>
</g>
<!-- Node19&#45;&gt;Node7 -->
<g id="edge21" class="edge">
<title>Node19&#45;&gt;Node7</title>
<path fill="none" stroke="#191970" d="M382.0315,-129.0121C411.4057,-129.0121 450.7243,-129.0121 475.5873,-129.0121"/>
<polygon fill="#191970" stroke="#191970" points="381.7045,-125.5122 371.7045,-129.0121 381.7045,-132.5122 381.7045,-125.5122"/>
</g>
<!-- Node20 -->
<g id="node21" class="node">
<title>Node20</title>
<g id="a_node21"><a xlink:href="classSynchronizerOneShot.html" target="_top" xlink:title="SynchronizerOneShot(5)">
<polygon fill="#ffffff" stroke="#000000" points="276,-309.5121 276,-328.5121 410,-328.5121 410,-309.5121 276,-309.5121"/>
<text text-anchor="middle" x="343" y="-316.5121" font-family="Helvetica,sans-Serif" font-size="10.00" fill="#000000">SynchronizerOneShot(5)</text>
</a>
</g>
</g>
<!-- Node20&#45;&gt;Node1 -->
<g id="edge28" class="edge">
<title>Node20&#45;&gt;Node1</title>
<path fill="none" stroke="#191970" d="M380.3709,-306.0143C450.3413,-281.7707 605.9771,-228.2825 738,-186.0121 785.2344,-170.8889 840.7841,-154.285 871.8393,-145.1081"/>
<polygon fill="#191970" stroke="#191970" points="378.9833,-302.7909 370.6821,-309.3742 381.2768,-309.4046 378.9833,-302.7909"/>
</g>
<!-- Node21&#45;&gt;Node20 -->
<g id="edge29" class="edge">
<title>Node21&#45;&gt;Node20</title>
<path fill="none" stroke="#191970" d="M216.4403,-348.1592C242.0164,-342.269 275.5875,-334.5374 301.7269,-328.5175"/>
<polygon fill="#191970" stroke="#191970" points="215.3239,-344.8246 206.3645,-350.4797 216.8949,-351.6461 215.3239,-344.8246"/>
</g>
<!-- Node22&#45;&gt;Node20 -->
<g id="edge31" class="edge">
<title>Node22&#45;&gt;Node20</title>
<path fill="none" stroke="#191970" d="M240.2219,-319.0121C251.8134,-319.0121 263.9742,-319.0121 275.7097,-319.0121"/>
<polygon fill="#191970" stroke="#191970" points="240.2071,-315.5122 230.207,-319.0121 240.207,-322.5122 240.2071,-315.5122"/>
</g>
<!-- Node23 -->
<g id="node24" class="node">
<title>Node23</title>
<g id="a_node24"><a xlink:href="classSsiObFrameFilter.html" target="_top" xlink:title="SsiObFrameFilter">
<polygon fill="#ffffff" stroke="#000000" points="738,-62.5121 738,-81.5121 836,-81.5121 836,-62.5121 738,-62.5121"/>
<text text-anchor="middle" x="787" y="-69.5121" font-family="Helvetica,sans-Serif" font-size="10.00" fill="#000000">SsiObFrameFilter</text>
</a>
</g>
</g>
<!-- Node23&#45;&gt;Node1 -->
<g id="edge33" class="edge">
<title>Node23&#45;&gt;Node1</title>
<path fill="none" stroke="#191970" d="M825.1821,-85.5312C828.9083,-87.2307 832.5737,-89.0631 836,-91.0121 854.8623,-101.742 874.1813,-118.013 885.6308,-128.3221"/>
<polygon fill="#191970" stroke="#191970" points="826.4686,-82.2751 815.8959,-81.5895 823.7334,-88.7186 826.4686,-82.2751"/>
</g>
<!-- Node25 -->
<g id="node26" class="node">
<title>Node25</title>
<g id="a_node26"><a xlink:href="classSalt7SeriesTb.html" target="_top" xlink:title="Salt7SeriesTb">
<polygon fill="#ffffff" stroke="#000000" points="1169.5,-147.5121 1169.5,-166.5121 1252.5,-166.5121 1252.5,-147.5121 1169.5,-147.5121"/>
<text text-anchor="middle" x="1211" y="-154.5121" font-family="Helvetica,sans-Serif" font-size="10.00" fill="#000000">Salt7SeriesTb</text>
</a>
</g>
</g>
<!-- Node24&#45;&gt;Node25 -->
<g id="edge35" class="edge">
<title>Node24&#45;&gt;Node25</title>
<path fill="none" stroke="#191970" d="M1128.9115,-157.0121C1142.0559,-157.0121 1156.3093,-157.0121 1169.1932,-157.0121"/>
<polygon fill="#191970" stroke="#191970" points="1128.6552,-153.5122 1118.6551,-157.0121 1128.6551,-160.5122 1128.6552,-153.5122"/>
</g>
<!-- Node27 -->
<g id="node28" class="node">
<title>Node27</title>
<g id="a_node28"><a xlink:href="classSaltUltraScaleTb.html" target="_top" xlink:title="SaltUltraScaleTb">
<polygon fill="#ffffff" stroke="#000000" points="1162,-109.5121 1162,-128.5121 1260,-128.5121 1260,-109.5121 1162,-109.5121"/>
<text text-anchor="middle" x="1211" y="-116.5121" font-family="Helvetica,sans-Serif" font-size="10.00" fill="#000000">SaltUltraScaleTb</text>
</a>
</g>
</g>
<!-- Node26&#45;&gt;Node27 -->
<g id="edge37" class="edge">
<title>Node26&#45;&gt;Node27</title>
<path fill="none" stroke="#191970" d="M1136.4794,-119.0121C1144.932,-119.0121 1153.6364,-119.0121 1161.9808,-119.0121"/>
<polygon fill="#191970" stroke="#191970" points="1136.335,-115.5122 1126.335,-119.0121 1136.3349,-122.5122 1136.335,-115.5122"/>
</g>
</g>
</svg>
        <g id="navigator" transform="translate(0 0)" fill="#404254">
                <rect fill="#f2f5e9" fill-opacity="0.5" stroke="#606060" stroke-width=".5" x="0" y="0" width="60" height="60"/>
                <use id="zoomplus" xlink:href="#zoomPlus" x="17" y="9" onmousedown="handleZoom(evt,'in')"/>
                <use id="zoomminus" xlink:href="#zoomMin" x="42" y="9" onmousedown="handleZoom(evt,'out')"/>
                <use id="reset" xlink:href="#resetDef" x="30" y="36" onmousedown="handleReset()"/>
                <g id="arrowUp" xlink:href="#dirArrow" transform="translate(30 24)" onmousedown="handlePan(0,-1)">
                  <use xlink:href="#rim" fill="#404040">
                        <set attributeName="fill" to="#808080" begin="arrowUp.mouseover" end="arrowUp.mouseout"/>
                  </use>
                  <path fill="none" stroke="white" stroke-width="1.5" d="M0,-3.0v7 M-2.5,-0.5L0,-3.0L2.5,-0.5"/>
                </g>
                <g id="arrowRight" xlink:href="#dirArrow" transform="rotate(90) translate(36 -43)" onmousedown="handlePan(1,0)">
                  <use xlink:href="#rim" fill="#404040">
                        <set attributeName="fill" to="#808080" begin="arrowRight.mouseover" end="arrowRight.mouseout"/>
                  </use>
                  <path fill="none" stroke="white" stroke-width="1.5" d="M0,-3.0v7 M-2.5,-0.5L0,-3.0L2.5,-0.5"/>
                </g>
                <g id="arrowDown" xlink:href="#dirArrow" transform="rotate(180) translate(-30 -48)" onmousedown="handlePan(0,1)">
                  <use xlink:href="#rim" fill="#404040">
                        <set attributeName="fill" to="#808080" begin="arrowDown.mouseover" end="arrowDown.mouseout"/>
                  </use>
                  <path fill="none" stroke="white" stroke-width="1.5" d="M0,-3.0v7 M-2.5,-0.5L0,-3.0L2.5,-0.5"/>
                </g>
                <g id="arrowLeft" xlink:href="#dirArrow" transform="rotate(270) translate(-36 17)" onmousedown="handlePan(-1,0)">
                  <use xlink:href="#rim" fill="#404040">
                        <set attributeName="fill" to="#808080" begin="arrowLeft.mouseover" end="arrowLeft.mouseout"/>
                  </use>
                  <path fill="none" stroke="white" stroke-width="1.5" d="M0,-3.0v7 M-2.5,-0.5L0,-3.0L2.5,-0.5"/>
                </g>
        </g>
        <svg viewBox="0 0 15 15" width="100%" height="30px" preserveAspectRatio="xMaxYMin meet">
         <g id="arrow_out" transform="scale(0.3 0.3)">
          <a xlink:href="classSaltRx__inherit__graph_org.svg" target="_base">
           <rect id="button" ry="5" rx="5" y="6" x="6" height="38" width="38"
                fill="#f2f5e9" fill-opacity="0.5" stroke="#606060" stroke-width="1.0"/>
           <path id="arrow"
             d="M 11.500037,31.436501 C 11.940474,20.09759 22.043105,11.32322 32.158766,21.979434 L 37.068811,17.246167 C 37.068811,17.246167 37.088388,32 37.088388,32 L 22.160133,31.978069 C 22.160133,31.978069 26.997745,27.140456 26.997745,27.140456 C 18.528582,18.264221 13.291696,25.230495 11.500037,31.436501 z"
             style="fill:#404040;"/>
          </a>
         </g>
        </svg>
</svg>
