<?xml version="1.0" encoding="UTF-8" standalone="no"?>
<!DOCTYPE svg PUBLIC "-//W3C//DTD SVG 1.1//EN"
 "http://www.w3.org/Graphics/SVG/1.1/DTD/svg11.dtd">
<!-- Generated by graphviz version 2.43.0 (0)
 -->
<!-- Title: SspDecoder8b10b Pages: 1 -->
<svg width="649pt" height="148pt"
 viewBox="0.00 0.00 649.00 148.00" xmlns="http://www.w3.org/2000/svg" xmlns:xlink="http://www.w3.org/1999/xlink">
<g id="graph0" class="graph" transform="scale(1 1) rotate(0) translate(4 144)">
<title>SspDecoder8b10b</title>
<polygon fill="white" stroke="transparent" points="-4,4 -4,-144 645,-144 645,4 -4,4"/>
<!-- Node1 -->
<g id="node1" class="node">
<title>Node1</title>
<g id="a_node1"><a xlink:title=" ">
<polygon fill="#bfbfbf" stroke="black" points="123,-82.5 123,-101.5 227,-101.5 227,-82.5 123,-82.5"/>
<text text-anchor="middle" x="175" y="-89.5" font-family="Helvetica,sans-Serif" font-size="10.00">SspDecoder8b10b</text>
</a>
</g>
</g>
<!-- Node4 -->
<g id="node4" class="node">
<title>Node4</title>
<g id="a_node4"><a xlink:href="classSspDecoder8b10bTb.html" target="_top" xlink:title=" ">
<polygon fill="white" stroke="black" points="278.5,-120.5 278.5,-139.5 394.5,-139.5 394.5,-120.5 278.5,-120.5"/>
<text text-anchor="middle" x="336.5" y="-127.5" font-family="Helvetica,sans-Serif" font-size="10.00">SspDecoder8b10bTb</text>
</a>
</g>
</g>
<!-- Node1&#45;&gt;Node4 -->
<g id="edge3" class="edge">
<title>Node1&#45;&gt;Node4</title>
<path fill="none" stroke="midnightblue" d="M226.23,-103.97C248.59,-109.29 274.54,-115.48 295.54,-120.48"/>
<polygon fill="midnightblue" stroke="midnightblue" points="226.79,-100.5 216.25,-101.59 225.17,-107.31 226.79,-100.5"/>
</g>
<!-- Node5 -->
<g id="node5" class="node">
<title>Node5</title>
<g id="a_node5"><a xlink:href="classSspEncoder8b10bTb.html" target="_top" xlink:title=" ">
<polygon fill="white" stroke="black" points="279,-82.5 279,-101.5 394,-101.5 394,-82.5 279,-82.5"/>
<text text-anchor="middle" x="336.5" y="-89.5" font-family="Helvetica,sans-Serif" font-size="10.00">SspEncoder8b10bTb</text>
</a>
</g>
</g>
<!-- Node1&#45;&gt;Node5 -->
<g id="edge4" class="edge">
<title>Node1&#45;&gt;Node5</title>
<path fill="none" stroke="midnightblue" d="M237.53,-92C251.08,-92 265.37,-92 278.73,-92"/>
<polygon fill="midnightblue" stroke="midnightblue" points="237.34,-88.5 227.34,-92 237.34,-95.5 237.34,-88.5"/>
</g>
<!-- Node6 -->
<g id="node6" class="node">
<title>Node6</title>
<g id="a_node6"><a xlink:href="classSspLowSpeedDecoderLane.html" target="_top" xlink:title=" ">
<polygon fill="white" stroke="black" points="263,-44.5 263,-63.5 410,-63.5 410,-44.5 263,-44.5"/>
<text text-anchor="middle" x="336.5" y="-51.5" font-family="Helvetica,sans-Serif" font-size="10.00">SspLowSpeedDecoderLane</text>
</a>
</g>
</g>
<!-- Node1&#45;&gt;Node6 -->
<g id="edge5" class="edge">
<title>Node1&#45;&gt;Node6</title>
<path fill="none" stroke="midnightblue" d="M226.23,-80.03C248.59,-74.71 274.54,-68.52 295.54,-63.52"/>
<polygon fill="midnightblue" stroke="midnightblue" points="225.17,-76.69 216.25,-82.41 226.79,-83.5 225.17,-76.69"/>
</g>
<!-- Node2 -->
<g id="node2" class="node">
<title>Node2</title>
<g id="a_node2"><a xlink:href="classDecoder8b10b.html" target="_top" xlink:title=" ">
<polygon fill="white" stroke="black" points="0,-101.5 0,-120.5 87,-120.5 87,-101.5 0,-101.5"/>
<text text-anchor="middle" x="43.5" y="-108.5" font-family="Helvetica,sans-Serif" font-size="10.00">Decoder8b10b</text>
</a>
</g>
</g>
<!-- Node2&#45;&gt;Node1 -->
<g id="edge1" class="edge">
<title>Node2&#45;&gt;Node1</title>
<path fill="none" stroke="midnightblue" d="M97.32,-103.25C105.71,-102.02 114.37,-100.75 122.72,-99.52"/>
<polygon fill="midnightblue" stroke="midnightblue" points="96.65,-99.81 87.26,-104.73 97.66,-106.74 96.65,-99.81"/>
</g>
<!-- Node3 -->
<g id="node3" class="node">
<title>Node3</title>
<g id="a_node3"><a xlink:href="classSspDeframer.html" target="_top" xlink:title=" ">
<polygon fill="white" stroke="black" points="3.5,-63.5 3.5,-82.5 83.5,-82.5 83.5,-63.5 3.5,-63.5"/>
<text text-anchor="middle" x="43.5" y="-70.5" font-family="Helvetica,sans-Serif" font-size="10.00">SspDeframer</text>
</a>
</g>
</g>
<!-- Node3&#45;&gt;Node1 -->
<g id="edge2" class="edge">
<title>Node3&#45;&gt;Node1</title>
<path fill="none" stroke="midnightblue" d="M93.82,-80.24C103.36,-81.64 113.37,-83.1 122.96,-84.51"/>
<polygon fill="midnightblue" stroke="midnightblue" points="94.11,-76.74 83.71,-78.75 93.09,-83.67 94.11,-76.74"/>
</g>
<!-- Node7 -->
<g id="node7" class="node">
<title>Node7</title>
<g id="a_node7"><a xlink:href="classSspLowSpeedDecoder10b12bWrapper.html" target="_top" xlink:title=" ">
<polygon fill="white" stroke="black" points="463.5,-88 463.5,-118 623.5,-118 623.5,-88 463.5,-88"/>
<text text-anchor="start" x="471.5" y="-106" font-family="Helvetica,sans-Serif" font-size="10.00">SspLowSpeedDecoder10b12b</text>
<text text-anchor="middle" x="543.5" y="-95" font-family="Helvetica,sans-Serif" font-size="10.00">Wrapper</text>
</a>
</g>
</g>
<!-- Node6&#45;&gt;Node7 -->
<g id="edge6" class="edge">
<title>Node6&#45;&gt;Node7</title>
<path fill="none" stroke="midnightblue" d="M387.4,-65.93C415.16,-72.56 449.98,-80.89 479.59,-87.96"/>
<polygon fill="midnightblue" stroke="midnightblue" points="388.05,-62.48 377.51,-63.56 386.43,-69.29 388.05,-62.48"/>
</g>
<!-- Node8 -->
<g id="node8" class="node">
<title>Node8</title>
<g id="a_node8"><a xlink:href="classSspLowSpeedDecoder12b14bWrapper.html" target="_top" xlink:title=" ">
<polygon fill="white" stroke="black" points="463.5,-39 463.5,-69 623.5,-69 623.5,-39 463.5,-39"/>
<text text-anchor="start" x="471.5" y="-57" font-family="Helvetica,sans-Serif" font-size="10.00">SspLowSpeedDecoder12b14b</text>
<text text-anchor="middle" x="543.5" y="-46" font-family="Helvetica,sans-Serif" font-size="10.00">Wrapper</text>
</a>
</g>
</g>
<!-- Node6&#45;&gt;Node8 -->
<g id="edge7" class="edge">
<title>Node6&#45;&gt;Node8</title>
<path fill="none" stroke="midnightblue" d="M420.31,-54C434.54,-54 449.29,-54 463.41,-54"/>
<polygon fill="midnightblue" stroke="midnightblue" points="420.06,-50.5 410.06,-54 420.06,-57.5 420.06,-50.5"/>
</g>
<!-- Node9 -->
<g id="node9" class="node">
<title>Node9</title>
<g id="a_node9"><a xlink:href="classSspLowSpeedDecoder8b10bWrapper.html" target="_top" xlink:title=" ">
<polygon fill="white" stroke="black" points="446,-0.5 446,-19.5 641,-19.5 641,-0.5 446,-0.5"/>
<text text-anchor="middle" x="543.5" y="-7.5" font-family="Helvetica,sans-Serif" font-size="10.00">SspLowSpeedDecoder8b10bWrapper</text>
</a>
</g>
</g>
<!-- Node6&#45;&gt;Node9 -->
<g id="edge8" class="edge">
<title>Node6&#45;&gt;Node9</title>
<path fill="none" stroke="midnightblue" d="M387.3,-42.17C405.71,-37.89 426.78,-33.11 446,-29 461.03,-25.79 477.42,-22.49 492.35,-19.56"/>
<polygon fill="midnightblue" stroke="midnightblue" points="386.31,-38.81 377.37,-44.49 387.9,-45.63 386.31,-38.81"/>
</g>
</g>
</svg>
