<?xml version="1.0" encoding="UTF-8" standalone="no"?>
<!DOCTYPE svg PUBLIC "-//W3C//DTD SVG 1.1//EN"
 "http://www.w3.org/Graphics/SVG/1.1/DTD/svg11.dtd">
<!-- Generated by graphviz version 2.40.1 (20161225.0304)
 -->
<!-- Title: AxiLiteRamSyncStatusVector Pages: 1 -->
<!--zoomable 332 -->
<svg id="main" version="1.1" xmlns="http://www.w3.org/2000/svg" xmlns:xlink="http://www.w3.org/1999/xlink" xml:space="preserve" onload="init(evt)">
<style type="text/css"><![CDATA[
.edge:hover path { stroke: red; }
.edge:hover polygon { stroke: red; fill: red; }
]]></style>
<script type="text/javascript"><![CDATA[
var edges = document.getElementsByTagName('g');
if (edges && edges.length) {
  for (var i=0;i<edges.length;i++) {
    if (edges[i].id.substr(0,4)=='edge') {
      edges[i].setAttribute('class','edge');
    }
  }
}
]]></script>
        <defs>
                <circle id="rim" cx="0" cy="0" r="7"/>
                <circle id="rim2" cx="0" cy="0" r="3.5"/>
                <g id="zoomPlus">
                        <use xlink:href="#rim" fill="#404040">
                                <set attributeName="fill" to="#808080" begin="zoomplus.mouseover" end="zoomplus.mouseout"/>
                        </use>
                        <path d="M-4,0h8M0,-4v8" fill="none" stroke="white" stroke-width="1.5" pointer-events="none"/>
                </g>
                <g id="zoomMin">
                        <use xlink:href="#rim" fill="#404040">
                                <set attributeName="fill" to="#808080" begin="zoomminus.mouseover" end="zoomminus.mouseout"/>
                        </use>
                        <path d="M-4,0h8" fill="none" stroke="white" stroke-width="1.5" pointer-events="none"/>
                </g>
                <g id="dirArrow">
                        <path fill="none" stroke="white" stroke-width="1.5" d="M0,-3.0v7 M-2.5,-0.5L0,-3.0L2.5,-0.5"/>
                </g>
               <g id="resetDef">
                       <use xlink:href="#rim2" fill="#404040">
                               <set attributeName="fill" to="#808080" begin="reset.mouseover" end="reset.mouseout"/>
                       </use>
               </g>
        </defs>

<script type="text/javascript">
var viewWidth = 1795;
var viewHeight = 332;
var sectionId = 'dynsection-0';
</script>
<script xlink:href="svgpan.js"/>
<svg id="graph" class="graph">
<g id="viewport">
<title>AxiLiteRamSyncStatusVector</title>
<polygon fill="#ffffff" stroke="transparent" points="-4,4 -4,-328 1791,-328 1791,4 -4,4"/>
<!-- Node0 -->
<g id="node1" class="node">
<title>Node0</title>
<polygon fill="#bfbfbf" stroke="#000000" points="1139,-123.5 1139,-142.5 1297,-142.5 1297,-123.5 1139,-123.5"/>
<text text-anchor="middle" x="1218" y="-130.5" font-family="Helvetica,sans-Serif" font-size="10.00" fill="#000000">AxiLiteRamSyncStatusVector</text>
</g>
<!-- Node24 -->
<g id="node25" class="node">
<title>Node24</title>
<g id="a_node25"><a xlink:href="classPgpEthAxiL.html" target="_top" xlink:title="PgpEthAxiL">
<polygon fill="#ffffff" stroke="#000000" points="1333,-123.5 1333,-142.5 1404,-142.5 1404,-123.5 1333,-123.5"/>
<text text-anchor="middle" x="1368.5" y="-130.5" font-family="Helvetica,sans-Serif" font-size="10.00" fill="#000000">PgpEthAxiL</text>
</a>
</g>
</g>
<!-- Node0&#45;&gt;Node24 -->
<g id="edge29" class="edge">
<title>Node0&#45;&gt;Node24</title>
<path fill="none" stroke="#191970" d="M1307.3799,-133C1316.303,-133 1324.9511,-133 1332.7978,-133"/>
<polygon fill="#191970" stroke="#191970" points="1307.2167,-129.5001 1297.2166,-133 1307.2166,-136.5001 1307.2167,-129.5001"/>
</g>
<!-- Node1 -->
<g id="node2" class="node">
<title>Node1</title>
<g id="a_node2"><a xlink:href="classAxiDualPortRam.html" target="_top" xlink:title="AxiDualPortRam">
<polygon fill="#ffffff" stroke="#000000" points="645,-171.5 645,-190.5 742,-190.5 742,-171.5 645,-171.5"/>
<text text-anchor="middle" x="693.5" y="-178.5" font-family="Helvetica,sans-Serif" font-size="10.00" fill="#000000">AxiDualPortRam</text>
</a>
</g>
</g>
<!-- Node1&#45;&gt;Node0 -->
<g id="edge1" class="edge">
<title>Node1&#45;&gt;Node0</title>
<path fill="none" stroke="#191970" d="M752.6149,-175.5901C847.1724,-166.9366 1032.5574,-149.9709 1138.5835,-140.2679"/>
<polygon fill="#191970" stroke="#191970" points="752.0121,-172.1305 742.3727,-176.5274 752.6501,-179.1014 752.0121,-172.1305"/>
</g>
<!-- Node2 -->
<g id="node3" class="node">
<title>Node2</title>
<g id="a_node3"><a xlink:href="classTrueDualPortRamXpm.html" target="_top" xlink:title="TrueDualPortRamXpm">
<polygon fill="#ffffff" stroke="#000000" points="455.5,-152.5 455.5,-171.5 579.5,-171.5 579.5,-152.5 455.5,-152.5"/>
<text text-anchor="middle" x="517.5" y="-159.5" font-family="Helvetica,sans-Serif" font-size="10.00" fill="#000000">TrueDualPortRamXpm</text>
</a>
</g>
</g>
<!-- Node2&#45;&gt;Node1 -->
<g id="edge2" class="edge">
<title>Node2&#45;&gt;Node1</title>
<path fill="none" stroke="#191970" d="M589.5035,-169.7731C608.1789,-171.7892 627.849,-173.9127 644.9951,-175.7637"/>
<polygon fill="#191970" stroke="#191970" points="589.8689,-166.2923 579.551,-168.6987 589.1176,-173.2519 589.8689,-166.2923"/>
</g>
<!-- Node3 -->
<g id="node4" class="node">
<title>Node3</title>
<g id="a_node4"><a xlink:href="classTrueDualPortRamAlteraMf.html" target="_top" xlink:title="TrueDualPortRamAlteraMf">
<polygon fill="#ffffff" stroke="#000000" points="446,-266.5 446,-285.5 589,-285.5 589,-266.5 446,-266.5"/>
<text text-anchor="middle" x="517.5" y="-273.5" font-family="Helvetica,sans-Serif" font-size="10.00" fill="#000000">TrueDualPortRamAlteraMf</text>
</a>
</g>
</g>
<!-- Node3&#45;&gt;Node1 -->
<g id="edge3" class="edge">
<title>Node3&#45;&gt;Node1</title>
<path fill="none" stroke="#191970" d="M561.8581,-263.2116C571.02,-259.9915 580.4712,-256.2289 589,-252 624.9607,-234.1692 662.9085,-205.5498 681.6265,-190.6776"/>
<polygon fill="#191970" stroke="#191970" points="560.4551,-259.9905 552.0874,-266.4892 562.6813,-266.6271 560.4551,-259.9905"/>
</g>
<!-- Node4 -->
<g id="node5" class="node">
<title>Node4</title>
<g id="a_node5"><a xlink:href="classDualPortRam.html" target="_top" xlink:title="DualPortRam(2)">
<polygon fill="#ffffff" stroke="#000000" points="470,-190.5 470,-209.5 565,-209.5 565,-190.5 470,-190.5"/>
<text text-anchor="middle" x="517.5" y="-197.5" font-family="Helvetica,sans-Serif" font-size="10.00" fill="#000000">DualPortRam(2)</text>
</a>
</g>
</g>
<!-- Node4&#45;&gt;Node1 -->
<g id="edge4" class="edge">
<title>Node4&#45;&gt;Node1</title>
<path fill="none" stroke="#191970" d="M575.2472,-193.7659C597.7874,-191.3326 623.3426,-188.5738 644.9149,-186.245"/>
<polygon fill="#191970" stroke="#191970" points="574.6947,-190.3051 565.1281,-194.8583 575.4461,-197.2647 574.6947,-190.3051"/>
</g>
<!-- Node5 -->
<g id="node6" class="node">
<title>Node5</title>
<g id="a_node6"><a xlink:href="classTrueDualPortRam.html" target="_top" xlink:title="TrueDualPortRam">
<polygon fill="#ffffff" stroke="#000000" points="292.5,-228.5 292.5,-247.5 393.5,-247.5 393.5,-228.5 292.5,-228.5"/>
<text text-anchor="middle" x="343" y="-235.5" font-family="Helvetica,sans-Serif" font-size="10.00" fill="#000000">TrueDualPortRam</text>
</a>
</g>
</g>
<!-- Node5&#45;&gt;Node1 -->
<g id="edge7" class="edge">
<title>Node5&#45;&gt;Node1</title>
<path fill="none" stroke="#191970" d="M403.5582,-237.8798C453.7596,-236.6971 526.7203,-232.4651 589,-219 618.8125,-212.5544 651.6314,-199.5901 672.3894,-190.6089"/>
<polygon fill="#191970" stroke="#191970" points="403.4447,-234.3813 393.5175,-238.0828 403.5863,-241.3798 403.4447,-234.3813"/>
</g>
<!-- Node5&#45;&gt;Node4 -->
<g id="edge5" class="edge">
<title>Node5&#45;&gt;Node4</title>
<path fill="none" stroke="#191970" d="M396.9691,-226.2474C421.6433,-220.8742 450.4948,-214.5914 473.7829,-209.5201"/>
<polygon fill="#191970" stroke="#191970" points="396.06,-222.8633 387.0337,-228.411 397.5495,-229.703 396.06,-222.8633"/>
</g>
<!-- Node6 -->
<g id="node7" class="node">
<title>Node6</title>
<g id="a_node7"><a xlink:href="classQuadPortRam.html" target="_top" xlink:title="QuadPortRam">
<polygon fill="#ffffff" stroke="#000000" points="301,-190.5 301,-209.5 385,-209.5 385,-190.5 301,-190.5"/>
<text text-anchor="middle" x="343" y="-197.5" font-family="Helvetica,sans-Serif" font-size="10.00" fill="#000000">QuadPortRam</text>
</a>
</g>
</g>
<!-- Node6&#45;&gt;Node4 -->
<g id="edge6" class="edge">
<title>Node6&#45;&gt;Node4</title>
<path fill="none" stroke="#191970" d="M395.4347,-200C419.0616,-200 446.763,-200 469.7991,-200"/>
<polygon fill="#191970" stroke="#191970" points="395.2416,-196.5001 385.2416,-200 395.2415,-203.5001 395.2416,-196.5001"/>
</g>
<!-- Node7 -->
<g id="node8" class="node">
<title>Node7</title>
<g id="a_node8"><a xlink:href="classSynchronizerFifo.html" target="_top" xlink:title="SynchronizerFifo">
<polygon fill="#ffffff" stroke="#000000" points="469,-114.5 469,-133.5 566,-133.5 566,-114.5 469,-114.5"/>
<text text-anchor="middle" x="517.5" y="-121.5" font-family="Helvetica,sans-Serif" font-size="10.00" fill="#000000">SynchronizerFifo</text>
</a>
</g>
</g>
<!-- Node7&#45;&gt;Node1 -->
<g id="edge8" class="edge">
<title>Node7&#45;&gt;Node1</title>
<path fill="none" stroke="#191970" d="M565.6785,-136.174C573.5078,-138.3325 581.5039,-140.6462 589,-143 616.8112,-151.7327 648.171,-163.3844 669.2173,-171.4732"/>
<polygon fill="#191970" stroke="#191970" points="566.4677,-132.7618 555.9008,-133.5317 564.6414,-139.5194 566.4677,-132.7618"/>
</g>
<!-- Node23 -->
<g id="node24" class="node">
<title>Node23</title>
<g id="a_node24"><a xlink:href="classSynchronizerOneShotCnt.html" target="_top" xlink:title="SynchronizerOneShotCnt">
<polygon fill="#ffffff" stroke="#000000" points="625,-95.5 625,-114.5 762,-114.5 762,-95.5 625,-95.5"/>
<text text-anchor="middle" x="693.5" y="-102.5" font-family="Helvetica,sans-Serif" font-size="10.00" fill="#000000">SynchronizerOneShotCnt</text>
</a>
</g>
</g>
<!-- Node7&#45;&gt;Node23 -->
<g id="edge28" class="edge">
<title>Node7&#45;&gt;Node23</title>
<path fill="none" stroke="#191970" d="M576.0699,-117.6771C591.6454,-115.9957 608.6111,-114.1641 624.6799,-112.4294"/>
<polygon fill="#191970" stroke="#191970" points="575.6252,-114.2047 566.0587,-118.7579 576.3766,-121.1643 575.6252,-114.2047"/>
</g>
<!-- Node8 -->
<g id="node9" class="node">
<title>Node8</title>
<g id="a_node9"><a xlink:href="classFifoAsync.html" target="_top" xlink:title="FifoAsync">
<polygon fill="#ffffff" stroke="#000000" points="311.5,-152.5 311.5,-171.5 374.5,-171.5 374.5,-152.5 311.5,-152.5"/>
<text text-anchor="middle" x="343" y="-159.5" font-family="Helvetica,sans-Serif" font-size="10.00" fill="#000000">FifoAsync</text>
</a>
</g>
</g>
<!-- Node8&#45;&gt;Node7 -->
<g id="edge9" class="edge">
<title>Node8&#45;&gt;Node7</title>
<path fill="none" stroke="#191970" d="M384.4747,-152.9683C411.3569,-147.1143 446.3268,-139.499 473.6651,-133.5457"/>
<polygon fill="#191970" stroke="#191970" points="383.6269,-149.5708 374.6006,-155.1185 385.1164,-156.4105 383.6269,-149.5708"/>
</g>
<!-- Node9 -->
<g id="node10" class="node">
<title>Node9</title>
<g id="a_node10"><a xlink:href="classRstSync.html" target="_top" xlink:title="RstSync(2)">
<polygon fill="#ffffff" stroke="#000000" points="143.5,-228.5 143.5,-247.5 212.5,-247.5 212.5,-228.5 143.5,-228.5"/>
<text text-anchor="middle" x="178" y="-235.5" font-family="Helvetica,sans-Serif" font-size="10.00" fill="#000000">RstSync(2)</text>
</a>
</g>
</g>
<!-- Node9&#45;&gt;Node8 -->
<g id="edge10" class="edge">
<title>Node9&#45;&gt;Node8</title>
<path fill="none" stroke="#191970" d="M222.2298,-227.5466C228.4266,-225.2073 234.5368,-222.3864 240,-219 259.7738,-206.7431 256.0984,-193.0482 276,-181 286.6532,-174.5506 299.5799,-170.2153 311.2261,-167.3368"/>
<polygon fill="#191970" stroke="#191970" points="220.8518,-224.3179 212.5011,-230.8382 223.0953,-230.9486 220.8518,-224.3179"/>
</g>
<!-- Node10 -->
<g id="node11" class="node">
<title>Node10</title>
<g id="a_node11"><a xlink:href="classSynchronizer.html" target="_top" xlink:title="Synchronizer">
<polygon fill="#ffffff" stroke="#000000" points="0,-38.5 0,-57.5 80,-57.5 80,-38.5 0,-38.5"/>
<text text-anchor="middle" x="40" y="-45.5" font-family="Helvetica,sans-Serif" font-size="10.00" fill="#000000">Synchronizer</text>
</a>
</g>
</g>
<!-- Node10&#45;&gt;Node9 -->
<g id="edge11" class="edge">
<title>Node10&#45;&gt;Node9</title>
<path fill="none" stroke="#191970" d="M43.2935,-67.8539C50.2315,-103.3917 69.7006,-177.9835 116,-219 123.6684,-225.7934 133.7193,-230.158 143.4898,-232.962"/>
<polygon fill="#191970" stroke="#191970" points="46.6945,-66.9932 41.4631,-57.7801 39.8073,-68.2447 46.6945,-66.9932"/>
</g>
<!-- Node21 -->
<g id="node22" class="node">
<title>Node21</title>
<g id="a_node22"><a xlink:href="classRstSync.html" target="_top" xlink:title="RstSync">
<polygon fill="#ffffff" stroke="#000000" points="150,-38.5 150,-57.5 206,-57.5 206,-38.5 150,-38.5"/>
<text text-anchor="middle" x="178" y="-45.5" font-family="Helvetica,sans-Serif" font-size="10.00" fill="#000000">RstSync</text>
</a>
</g>
</g>
<!-- Node10&#45;&gt;Node21 -->
<g id="edge23" class="edge">
<title>Node10&#45;&gt;Node21</title>
<path fill="none" stroke="#191970" d="M90.488,-48C110.4608,-48 132.6684,-48 149.7146,-48"/>
<polygon fill="#191970" stroke="#191970" points="90.2863,-44.5001 80.2863,-48 90.2863,-51.5001 90.2863,-44.5001"/>
</g>
<!-- Node22 -->
<g id="node23" class="node">
<title>Node22</title>
<g id="a_node23"><a xlink:href="classSynchronizerEdge.html" target="_top" xlink:title="SynchronizerEdge">
<polygon fill="#ffffff" stroke="#000000" points="126,-.5 126,-19.5 230,-19.5 230,-.5 126,-.5"/>
<text text-anchor="middle" x="178" y="-7.5" font-family="Helvetica,sans-Serif" font-size="10.00" fill="#000000">SynchronizerEdge</text>
</a>
</g>
</g>
<!-- Node10&#45;&gt;Node22 -->
<g id="edge25" class="edge">
<title>Node10&#45;&gt;Node22</title>
<path fill="none" stroke="#191970" d="M84.473,-35.7538C103.4946,-30.516 125.3751,-24.4909 143.1879,-19.5859"/>
<polygon fill="#191970" stroke="#191970" points="83.5352,-32.3817 74.8232,-38.411 85.3936,-39.1305 83.5352,-32.3817"/>
</g>
<!-- Node11 -->
<g id="node12" class="node">
<title>Node11</title>
<g id="a_node12"><a xlink:href="classSynchronizerVector.html" target="_top" xlink:title="SynchronizerVector(2)">
<polygon fill="#ffffff" stroke="#000000" points="116,-190.5 116,-209.5 240,-209.5 240,-190.5 116,-190.5"/>
<text text-anchor="middle" x="178" y="-197.5" font-family="Helvetica,sans-Serif" font-size="10.00" fill="#000000">SynchronizerVector(2)</text>
</a>
</g>
</g>
<!-- Node11&#45;&gt;Node8 -->
<g id="edge12" class="edge">
<title>Node11&#45;&gt;Node8</title>
<path fill="none" stroke="#191970" d="M229.6101,-188.114C256.3549,-181.9546 288.1616,-174.6294 311.2718,-169.3071"/>
<polygon fill="#191970" stroke="#191970" points="228.5959,-184.7559 219.6365,-190.411 230.1669,-191.5774 228.5959,-184.7559"/>
</g>
<!-- Node12 -->
<g id="node13" class="node">
<title>Node12</title>
<g id="a_node13"><a xlink:href="classSynchronizer.html" target="_top" xlink:title="Synchronizer(2)">
<polygon fill="#ffffff" stroke="#000000" points="131.5,-152.5 131.5,-171.5 224.5,-171.5 224.5,-152.5 131.5,-152.5"/>
<text text-anchor="middle" x="178" y="-159.5" font-family="Helvetica,sans-Serif" font-size="10.00" fill="#000000">Synchronizer(2)</text>
</a>
</g>
</g>
<!-- Node12&#45;&gt;Node8 -->
<g id="edge13" class="edge">
<title>Node12&#45;&gt;Node8</title>
<path fill="none" stroke="#191970" d="M235.1765,-162C260.7477,-162 289.9133,-162 311.4577,-162"/>
<polygon fill="#191970" stroke="#191970" points="234.8411,-158.5001 224.841,-162 234.841,-165.5001 234.8411,-158.5001"/>
</g>
<!-- Node13 -->
<g id="node14" class="node">
<title>Node13</title>
<g id="a_node14"><a xlink:href="classFifoWrFsm.html" target="_top" xlink:title="FifoWrFsm">
<polygon fill="#ffffff" stroke="#000000" points="144.5,-114.5 144.5,-133.5 211.5,-133.5 211.5,-114.5 144.5,-114.5"/>
<text text-anchor="middle" x="178" y="-121.5" font-family="Helvetica,sans-Serif" font-size="10.00" fill="#000000">FifoWrFsm</text>
</a>
</g>
</g>
<!-- Node13&#45;&gt;Node8 -->
<g id="edge14" class="edge">
<title>Node13&#45;&gt;Node8</title>
<path fill="none" stroke="#191970" d="M221.8006,-134.0874C250.0294,-140.5886 286.0737,-148.8897 311.4927,-154.7438"/>
<polygon fill="#191970" stroke="#191970" points="222.3188,-130.6152 211.7884,-131.7816 220.7478,-137.4366 222.3188,-130.6152"/>
</g>
<!-- Node14 -->
<g id="node15" class="node">
<title>Node14</title>
<g id="a_node15"><a xlink:href="classFifoRdFsm.html" target="_top" xlink:title="FifoRdFsm">
<polygon fill="#ffffff" stroke="#000000" points="144.5,-76.5 144.5,-95.5 211.5,-95.5 211.5,-76.5 144.5,-76.5"/>
<text text-anchor="middle" x="178" y="-83.5" font-family="Helvetica,sans-Serif" font-size="10.00" fill="#000000">FifoRdFsm</text>
</a>
</g>
</g>
<!-- Node14&#45;&gt;Node8 -->
<g id="edge15" class="edge">
<title>Node14&#45;&gt;Node8</title>
<path fill="none" stroke="#191970" d="M221.4085,-98.0381C227.7219,-100.1524 234.0833,-102.4886 240,-105 272.7346,-118.8943 308.554,-140.2336 328.1423,-152.4785"/>
<polygon fill="#191970" stroke="#191970" points="222.1884,-94.6131 211.5976,-94.9051 220.0589,-101.2814 222.1884,-94.6131"/>
</g>
<!-- Node15 -->
<g id="node16" class="node">
<title>Node15</title>
<g id="a_node16"><a xlink:href="classSimpleDualPortRam.html" target="_top" xlink:title="SimpleDualPortRam">
<polygon fill="#ffffff" stroke="#000000" points="120.5,-304.5 120.5,-323.5 235.5,-323.5 235.5,-304.5 120.5,-304.5"/>
<text text-anchor="middle" x="178" y="-311.5" font-family="Helvetica,sans-Serif" font-size="10.00" fill="#000000">SimpleDualPortRam</text>
</a>
</g>
</g>
<!-- Node15&#45;&gt;Node8 -->
<g id="edge16" class="edge">
<title>Node15&#45;&gt;Node8</title>
<path fill="none" stroke="#191970" d="M235.2906,-299.0444C236.9535,-297.8018 238.531,-296.4565 240,-295 277.7303,-257.5896 237.8783,-218.0115 276,-181 285.4555,-171.8199 299.0054,-167.0127 311.449,-164.5189"/>
<polygon fill="#191970" stroke="#191970" points="233.116,-296.2693 226.3716,-304.4403 236.7394,-302.2586 233.116,-296.2693"/>
</g>
<!-- Node16 -->
<g id="node17" class="node">
<title>Node16</title>
<g id="a_node17"><a xlink:href="classFifoOutputPipeline.html" target="_top" xlink:title="FifoOutputPipeline">
<polygon fill="#ffffff" stroke="#000000" points="125,-266.5 125,-285.5 231,-285.5 231,-266.5 125,-266.5"/>
<text text-anchor="middle" x="178" y="-273.5" font-family="Helvetica,sans-Serif" font-size="10.00" fill="#000000">FifoOutputPipeline</text>
</a>
</g>
</g>
<!-- Node16&#45;&gt;Node8 -->
<g id="edge17" class="edge">
<title>Node16&#45;&gt;Node8</title>
<path fill="none" stroke="#191970" d="M233.6666,-261.6755C235.8996,-260.2612 238.0253,-258.7073 240,-257 268.2736,-232.5554 247.4708,-205.1459 276,-181 285.8749,-172.6423 299.1998,-167.9519 311.3655,-165.3232"/>
<polygon fill="#191970" stroke="#191970" points="231.8143,-258.6958 224.6135,-266.4674 235.0891,-264.8825 231.8143,-258.6958"/>
</g>
<!-- Node17 -->
<g id="node18" class="node">
<title>Node17</title>
<g id="a_node18"><a xlink:href="classSyncStatusVector.html" target="_top" xlink:title="SyncStatusVector">
<polygon fill="#ffffff" stroke="#000000" points="1002,-95.5 1002,-114.5 1103,-114.5 1103,-95.5 1002,-95.5"/>
<text text-anchor="middle" x="1052.5" y="-102.5" font-family="Helvetica,sans-Serif" font-size="10.00" fill="#000000">SyncStatusVector</text>
</a>
</g>
</g>
<!-- Node17&#45;&gt;Node0 -->
<g id="edge18" class="edge">
<title>Node17&#45;&gt;Node0</title>
<path fill="none" stroke="#191970" d="M1113.2676,-115.2809C1129.1035,-117.9601 1146.0974,-120.8352 1161.6914,-123.4735"/>
<polygon fill="#191970" stroke="#191970" points="1113.4985,-111.7703 1103.0547,-113.5531 1112.3307,-118.6722 1113.4985,-111.7703"/>
</g>
<!-- Node18 -->
<g id="node19" class="node">
<title>Node18</title>
<g id="a_node19"><a xlink:href="classSynchronizerVector.html" target="_top" xlink:title="SynchronizerVector">
<polygon fill="#ffffff" stroke="#000000" points="827,-57.5 827,-76.5 937,-76.5 937,-57.5 827,-57.5"/>
<text text-anchor="middle" x="882" y="-64.5" font-family="Helvetica,sans-Serif" font-size="10.00" fill="#000000">SynchronizerVector</text>
</a>
</g>
</g>
<!-- Node18&#45;&gt;Node17 -->
<g id="edge19" class="edge">
<title>Node18&#45;&gt;Node17</title>
<path fill="none" stroke="#191970" d="M935.0536,-78.8243C959.0911,-84.1816 987.1318,-90.4311 1009.785,-95.4799"/>
<polygon fill="#191970" stroke="#191970" points="935.5463,-75.3483 925.0243,-76.589 934.0235,-82.1806 935.5463,-75.3483"/>
</g>
<!-- Node19 -->
<g id="node20" class="node">
<title>Node19</title>
<g id="a_node20"><a xlink:href="classSynchronizerOneShotCntVector.html" target="_top" xlink:title="SynchronizerOneShotCntVector">
<polygon fill="#ffffff" stroke="#000000" points="798,-95.5 798,-114.5 966,-114.5 966,-95.5 798,-95.5"/>
<text text-anchor="middle" x="882" y="-102.5" font-family="Helvetica,sans-Serif" font-size="10.00" fill="#000000">SynchronizerOneShotCntVector</text>
</a>
</g>
</g>
<!-- Node19&#45;&gt;Node17 -->
<g id="edge20" class="edge">
<title>Node19&#45;&gt;Node17</title>
<path fill="none" stroke="#191970" d="M976.4293,-105C985.0683,-105 993.58,-105 1001.6042,-105"/>
<polygon fill="#191970" stroke="#191970" points="976.251,-101.5001 966.251,-105 976.251,-108.5001 976.251,-101.5001"/>
</g>
<!-- Node20 -->
<g id="node21" class="node">
<title>Node20</title>
<g id="a_node21"><a xlink:href="classSynchronizerOneShot.html" target="_top" xlink:title="SynchronizerOneShot(2)">
<polygon fill="#ffffff" stroke="#000000" points="276,-38.5 276,-57.5 410,-57.5 410,-38.5 276,-38.5"/>
<text text-anchor="middle" x="343" y="-45.5" font-family="Helvetica,sans-Serif" font-size="10.00" fill="#000000">SynchronizerOneShot(2)</text>
</a>
</g>
</g>
<!-- Node20&#45;&gt;Node19 -->
<g id="edge21" class="edge">
<title>Node20&#45;&gt;Node19</title>
<path fill="none" stroke="#191970" d="M420.3094,-50.7926C468.8286,-52.943 532.6577,-56.4977 589,-62 666.2577,-69.5448 685.2169,-74.5964 762,-86 782.0295,-88.9747 803.9118,-92.3903 823.4408,-95.4977"/>
<polygon fill="#191970" stroke="#191970" points="420.3385,-47.2907 410.1965,-50.3548 420.0358,-54.2841 420.3385,-47.2907"/>
</g>
<!-- Node20&#45;&gt;Node23 -->
<g id="edge27" class="edge">
<title>Node20&#45;&gt;Node23</title>
<path fill="none" stroke="#191970" d="M411.8282,-59.1932C476.8966,-69.7749 573.4664,-85.4796 634.9352,-95.4759"/>
<polygon fill="#191970" stroke="#191970" points="412.098,-55.6911 401.6658,-57.5405 410.9743,-62.6004 412.098,-55.6911"/>
</g>
<!-- Node21&#45;&gt;Node20 -->
<g id="edge22" class="edge">
<title>Node21&#45;&gt;Node20</title>
<path fill="none" stroke="#191970" d="M216.8202,-48C234.4618,-48 255.8481,-48 275.9625,-48"/>
<polygon fill="#191970" stroke="#191970" points="216.3645,-44.5001 206.3645,-48 216.3645,-51.5001 216.3645,-44.5001"/>
</g>
<!-- Node22&#45;&gt;Node20 -->
<g id="edge24" class="edge">
<title>Node22&#45;&gt;Node20</title>
<path fill="none" stroke="#191970" d="M229.654,-21.8961C252.8465,-27.2374 279.8383,-33.4537 301.6629,-38.4799"/>
<polygon fill="#191970" stroke="#191970" points="230.1669,-18.4226 219.6365,-19.589 228.5959,-25.2441 230.1669,-18.4226"/>
</g>
<!-- Node23&#45;&gt;Node19 -->
<g id="edge26" class="edge">
<title>Node23&#45;&gt;Node19</title>
<path fill="none" stroke="#191970" d="M772.2491,-105C780.6652,-105 789.2509,-105 797.7277,-105"/>
<polygon fill="#191970" stroke="#191970" points="772.0861,-101.5001 762.0861,-105 772.086,-108.5001 772.0861,-101.5001"/>
</g>
<!-- Node25 -->
<g id="node26" class="node">
<title>Node25</title>
<g id="a_node26"><a xlink:href="classPgpEthCore.html" target="_top" xlink:title="PgpEthCore">
<polygon fill="#ffffff" stroke="#000000" points="1440,-123.5 1440,-142.5 1513,-142.5 1513,-123.5 1440,-123.5"/>
<text text-anchor="middle" x="1476.5" y="-130.5" font-family="Helvetica,sans-Serif" font-size="10.00" fill="#000000">PgpEthCore</text>
</a>
</g>
</g>
<!-- Node24&#45;&gt;Node25 -->
<g id="edge30" class="edge">
<title>Node24&#45;&gt;Node25</title>
<path fill="none" stroke="#191970" d="M1414.3263,-133C1422.8187,-133 1431.5873,-133 1439.7654,-133"/>
<polygon fill="#191970" stroke="#191970" points="1414.1626,-129.5001 1404.1626,-133 1414.1625,-136.5001 1414.1626,-129.5001"/>
</g>
<!-- Node26 -->
<g id="node27" class="node">
<title>Node26</title>
<g id="a_node27"><a xlink:href="classPgpEthCaui4Gty.html" target="_top" xlink:title="PgpEthCaui4Gty">
<polygon fill="#ffffff" stroke="#000000" points="1549,-142.5 1549,-161.5 1644,-161.5 1644,-142.5 1549,-142.5"/>
<text text-anchor="middle" x="1596.5" y="-149.5" font-family="Helvetica,sans-Serif" font-size="10.00" fill="#000000">PgpEthCaui4Gty</text>
</a>
</g>
</g>
<!-- Node25&#45;&gt;Node26 -->
<g id="edge31" class="edge">
<title>Node25&#45;&gt;Node26</title>
<path fill="none" stroke="#191970" d="M1523.2385,-140.4003C1531.6943,-141.7391 1540.52,-143.1365 1548.9974,-144.4788"/>
<polygon fill="#191970" stroke="#191970" points="1523.5803,-136.9109 1513.156,-138.8039 1522.4856,-143.8247 1523.5803,-136.9109"/>
</g>
<!-- Node28 -->
<g id="node29" class="node">
<title>Node28</title>
<g id="a_node29"><a xlink:href="classPgpEthCoreTb.html" target="_top" xlink:title="PgpEthCoreTb">
<polygon fill="#ffffff" stroke="#000000" points="1554,-104.5 1554,-123.5 1639,-123.5 1639,-104.5 1554,-104.5"/>
<text text-anchor="middle" x="1596.5" y="-111.5" font-family="Helvetica,sans-Serif" font-size="10.00" fill="#000000">PgpEthCoreTb</text>
</a>
</g>
</g>
<!-- Node25&#45;&gt;Node28 -->
<g id="edge33" class="edge">
<title>Node25&#45;&gt;Node28</title>
<path fill="none" stroke="#191970" d="M1523.0414,-125.6309C1533.1515,-124.0302 1543.7992,-122.3443 1553.7542,-120.7681"/>
<polygon fill="#191970" stroke="#191970" points="1522.4856,-122.1753 1513.156,-127.1961 1523.5803,-129.0891 1522.4856,-122.1753"/>
</g>
<!-- Node27 -->
<g id="node28" class="node">
<title>Node27</title>
<g id="a_node28"><a xlink:href="classPgpEthCaui4GtyTb.html" target="_top" xlink:title="PgpEthCaui4GtyTb">
<polygon fill="#ffffff" stroke="#000000" points="1680,-142.5 1680,-161.5 1787,-161.5 1787,-142.5 1680,-142.5"/>
<text text-anchor="middle" x="1733.5" y="-149.5" font-family="Helvetica,sans-Serif" font-size="10.00" fill="#000000">PgpEthCaui4GtyTb</text>
</a>
</g>
</g>
<!-- Node26&#45;&gt;Node27 -->
<g id="edge32" class="edge">
<title>Node26&#45;&gt;Node27</title>
<path fill="none" stroke="#191970" d="M1654.27,-152C1662.786,-152 1671.5288,-152 1679.9544,-152"/>
<polygon fill="#191970" stroke="#191970" points="1654.0315,-148.5001 1644.0315,-152 1654.0314,-155.5001 1654.0315,-148.5001"/>
</g>
</g>
</svg>
        <g id="navigator" transform="translate(0 0)" fill="#404254">
                <rect fill="#f2f5e9" fill-opacity="0.5" stroke="#606060" stroke-width=".5" x="0" y="0" width="60" height="60"/>
                <use id="zoomplus" xlink:href="#zoomPlus" x="17" y="9" onmousedown="handleZoom(evt,'in')"/>
                <use id="zoomminus" xlink:href="#zoomMin" x="42" y="9" onmousedown="handleZoom(evt,'out')"/>
                <use id="reset" xlink:href="#resetDef" x="30" y="36" onmousedown="handleReset()"/>
                <g id="arrowUp" xlink:href="#dirArrow" transform="translate(30 24)" onmousedown="handlePan(0,-1)">
                  <use xlink:href="#rim" fill="#404040">
                        <set attributeName="fill" to="#808080" begin="arrowUp.mouseover" end="arrowUp.mouseout"/>
                  </use>
                  <path fill="none" stroke="white" stroke-width="1.5" d="M0,-3.0v7 M-2.5,-0.5L0,-3.0L2.5,-0.5"/>
                </g>
                <g id="arrowRight" xlink:href="#dirArrow" transform="rotate(90) translate(36 -43)" onmousedown="handlePan(1,0)">
                  <use xlink:href="#rim" fill="#404040">
                        <set attributeName="fill" to="#808080" begin="arrowRight.mouseover" end="arrowRight.mouseout"/>
                  </use>
                  <path fill="none" stroke="white" stroke-width="1.5" d="M0,-3.0v7 M-2.5,-0.5L0,-3.0L2.5,-0.5"/>
                </g>
                <g id="arrowDown" xlink:href="#dirArrow" transform="rotate(180) translate(-30 -48)" onmousedown="handlePan(0,1)">
                  <use xlink:href="#rim" fill="#404040">
                        <set attributeName="fill" to="#808080" begin="arrowDown.mouseover" end="arrowDown.mouseout"/>
                  </use>
                  <path fill="none" stroke="white" stroke-width="1.5" d="M0,-3.0v7 M-2.5,-0.5L0,-3.0L2.5,-0.5"/>
                </g>
                <g id="arrowLeft" xlink:href="#dirArrow" transform="rotate(270) translate(-36 17)" onmousedown="handlePan(-1,0)">
                  <use xlink:href="#rim" fill="#404040">
                        <set attributeName="fill" to="#808080" begin="arrowLeft.mouseover" end="arrowLeft.mouseout"/>
                  </use>
                  <path fill="none" stroke="white" stroke-width="1.5" d="M0,-3.0v7 M-2.5,-0.5L0,-3.0L2.5,-0.5"/>
                </g>
        </g>
        <svg viewBox="0 0 15 15" width="100%" height="30px" preserveAspectRatio="xMaxYMin meet">
         <g id="arrow_out" transform="scale(0.3 0.3)">
          <a xlink:href="classAxiLiteRamSyncStatusVector__inherit__graph_org.svg" target="_base">
           <rect id="button" ry="5" rx="5" y="6" x="6" height="38" width="38"
                fill="#f2f5e9" fill-opacity="0.5" stroke="#606060" stroke-width="1.0"/>
           <path id="arrow"
             d="M 11.500037,31.436501 C 11.940474,20.09759 22.043105,11.32322 32.158766,21.979434 L 37.068811,17.246167 C 37.068811,17.246167 37.088388,32 37.088388,32 L 22.160133,31.978069 C 22.160133,31.978069 26.997745,27.140456 26.997745,27.140456 C 18.528582,18.264221 13.291696,25.230495 11.500037,31.436501 z"
             style="fill:#404040;"/>
          </a>
         </g>
        </svg>
</svg>
