<?xml version="1.0" encoding="UTF-8" standalone="no"?>
<!DOCTYPE svg PUBLIC "-//W3C//DTD SVG 1.1//EN"
 "http://www.w3.org/Graphics/SVG/1.1/DTD/svg11.dtd">
<!-- Generated by graphviz version 2.40.1 (20161225.0304)
 -->
<!-- Title: Jesd204bTb Pages: 1 -->
<svg width="1446pt" height="550pt"
 viewBox="0.00 0.00 1446.00 549.91" xmlns="http://www.w3.org/2000/svg" xmlns:xlink="http://www.w3.org/1999/xlink">
<g id="graph0" class="graph" transform="scale(1 1) rotate(0) translate(4 545.906)">
<title>Jesd204bTb</title>
<polygon fill="#ffffff" stroke="transparent" points="-4,4 -4,-545.906 1442,-545.906 1442,4 -4,4"/>
<!-- Node0 -->
<g id="node1" class="node">
<title>Node0</title>
<polygon fill="#bfbfbf" stroke="#000000" points="1365,-359.406 1365,-378.406 1438,-378.406 1438,-359.406 1365,-359.406"/>
<text text-anchor="middle" x="1401.5" y="-366.406" font-family="Helvetica,sans-Serif" font-size="10.00" fill="#000000">Jesd204bTb</text>
</g>
<!-- Node1 -->
<g id="node2" class="node">
<title>Node1</title>
<g id="a_node2"><a xlink:href="classClkRst.html" target="_top" xlink:title="ClkRst">
<polygon fill="#ffffff" stroke="#000000" points="1268,-397.406 1268,-416.406 1316,-416.406 1316,-397.406 1268,-397.406"/>
<text text-anchor="middle" x="1292" y="-404.406" font-family="Helvetica,sans-Serif" font-size="10.00" fill="#000000">ClkRst</text>
</a>
</g>
</g>
<!-- Node1&#45;&gt;Node0 -->
<g id="edge1" class="edge">
<title>Node1&#45;&gt;Node0</title>
<path fill="none" stroke="#191970" d="M1325.7707,-395.1865C1341.2703,-389.8077 1359.4128,-383.5116 1374.054,-378.4307"/>
<polygon fill="#191970" stroke="#191970" points="1324.33,-391.9816 1316.0302,-398.5668 1326.625,-398.5947 1324.33,-391.9816"/>
</g>
<!-- Node2 -->
<g id="node3" class="node">
<title>Node2</title>
<g id="a_node3"><a xlink:href="classJesd204bTx.html" target="_top" xlink:title="Jesd204bTx">
<polygon fill="#ffffff" stroke="#000000" points="1255.5,-359.406 1255.5,-378.406 1328.5,-378.406 1328.5,-359.406 1255.5,-359.406"/>
<text text-anchor="middle" x="1292" y="-366.406" font-family="Helvetica,sans-Serif" font-size="10.00" fill="#000000">Jesd204bTx</text>
</a>
</g>
</g>
<!-- Node2&#45;&gt;Node0 -->
<g id="edge2" class="edge">
<title>Node2&#45;&gt;Node0</title>
<path fill="none" stroke="#191970" d="M1339.0315,-368.906C1347.5991,-368.906 1356.4239,-368.906 1364.6441,-368.906"/>
<polygon fill="#191970" stroke="#191970" points="1338.7666,-365.4061 1328.7665,-368.906 1338.7665,-372.4061 1338.7666,-365.4061"/>
</g>
<!-- Node3 -->
<g id="node4" class="node">
<title>Node3</title>
<g id="a_node4"><a xlink:href="classJesdTxReg.html" target="_top" xlink:title="JesdTxReg">
<polygon fill="#ffffff" stroke="#000000" points="1133.5,-339.406 1133.5,-358.406 1200.5,-358.406 1200.5,-339.406 1133.5,-339.406"/>
<text text-anchor="middle" x="1167" y="-346.406" font-family="Helvetica,sans-Serif" font-size="10.00" fill="#000000">JesdTxReg</text>
</a>
</g>
</g>
<!-- Node3&#45;&gt;Node2 -->
<g id="edge3" class="edge">
<title>Node3&#45;&gt;Node2</title>
<path fill="none" stroke="#191970" d="M1211.0087,-355.9474C1225.4091,-358.2515 1241.2488,-360.7858 1255.0718,-362.9975"/>
<polygon fill="#191970" stroke="#191970" points="1211.2542,-352.4423 1200.8268,-354.3183 1210.1482,-359.3543 1211.2542,-352.4423"/>
</g>
<!-- Node4 -->
<g id="node5" class="node">
<title>Node4</title>
<g id="a_node5"><a xlink:href="classJesdSysrefMon.html" target="_top" xlink:title="JesdSysrefMon">
<polygon fill="#ffffff" stroke="#000000" points="610.5,-285.406 610.5,-304.406 698.5,-304.406 698.5,-285.406 610.5,-285.406"/>
<text text-anchor="middle" x="654.5" y="-292.406" font-family="Helvetica,sans-Serif" font-size="10.00" fill="#000000">JesdSysrefMon</text>
</a>
</g>
</g>
<!-- Node4&#45;&gt;Node3 -->
<g id="edge4" class="edge">
<title>Node4&#45;&gt;Node3</title>
<path fill="none" stroke="#191970" d="M709.0884,-298.2053C790.0737,-303.4588 946.7238,-314.9979 1079,-332.906 1097.0038,-335.3435 1116.9322,-338.895 1133.2655,-342.0331"/>
<polygon fill="#191970" stroke="#191970" points="708.8503,-294.6829 698.6468,-297.5357 708.4023,-301.6686 708.8503,-294.6829"/>
</g>
<!-- Node33 -->
<g id="node34" class="node">
<title>Node33</title>
<g id="a_node34"><a xlink:href="classJesdRxReg.html" target="_top" xlink:title="JesdRxReg">
<polygon fill="#ffffff" stroke="#000000" points="1133,-192.406 1133,-211.406 1201,-211.406 1201,-192.406 1133,-192.406"/>
<text text-anchor="middle" x="1167" y="-199.406" font-family="Helvetica,sans-Serif" font-size="10.00" fill="#000000">JesdRxReg</text>
</a>
</g>
</g>
<!-- Node4&#45;&gt;Node33 -->
<g id="edge42" class="edge">
<title>Node4&#45;&gt;Node33</title>
<path fill="none" stroke="#191970" d="M676.4092,-279.4871C696.7791,-266.0208 728.4888,-247.2143 759,-237.906 892.6472,-197.1333 1061.509,-197.7428 1132.7837,-200.2286"/>
<polygon fill="#191970" stroke="#191970" points="674.2167,-276.7446 667.893,-285.2453 678.1376,-282.5435 674.2167,-276.7446"/>
</g>
<!-- Node5 -->
<g id="node6" class="node">
<title>Node5</title>
<g id="a_node6"><a xlink:href="classSynchronizerOneShot.html" target="_top" xlink:title="SynchronizerOneShot">
<polygon fill="#ffffff" stroke="#000000" points="422.5,-323.406 422.5,-342.406 543.5,-342.406 543.5,-323.406 422.5,-323.406"/>
<text text-anchor="middle" x="483" y="-330.406" font-family="Helvetica,sans-Serif" font-size="10.00" fill="#000000">SynchronizerOneShot</text>
</a>
</g>
</g>
<!-- Node5&#45;&gt;Node4 -->
<g id="edge5" class="edge">
<title>Node5&#45;&gt;Node4</title>
<path fill="none" stroke="#191970" d="M536.0412,-321.1534C560.2913,-315.7803 588.6467,-309.4974 611.5345,-304.4261"/>
<polygon fill="#191970" stroke="#191970" points="535.2827,-317.7365 526.2767,-323.317 536.7971,-324.5708 535.2827,-317.7365"/>
</g>
<!-- Node6 -->
<g id="node7" class="node">
<title>Node6</title>
<g id="a_node7"><a xlink:href="classRstSync.html" target="_top" xlink:title="RstSync">
<polygon fill="#ffffff" stroke="#000000" points="300,-361.406 300,-380.406 356,-380.406 356,-361.406 300,-361.406"/>
<text text-anchor="middle" x="328" y="-368.406" font-family="Helvetica,sans-Serif" font-size="10.00" fill="#000000">RstSync</text>
</a>
</g>
</g>
<!-- Node6&#45;&gt;Node5 -->
<g id="edge6" class="edge">
<title>Node6&#45;&gt;Node5</title>
<path fill="none" stroke="#191970" d="M365.7904,-361.6413C389.538,-355.8193 420.1012,-348.3264 444.0636,-342.4517"/>
<polygon fill="#191970" stroke="#191970" points="364.9483,-358.244 356.0693,-364.0245 366.6151,-365.0427 364.9483,-358.244"/>
</g>
<!-- Node21 -->
<g id="node22" class="node">
<title>Node21</title>
<g id="a_node22"><a xlink:href="classSynchronizerOneShot.html" target="_top" xlink:title="SynchronizerOneShot(2)">
<polygon fill="#ffffff" stroke="#000000" points="416,-361.406 416,-380.406 550,-380.406 550,-361.406 416,-361.406"/>
<text text-anchor="middle" x="483" y="-368.406" font-family="Helvetica,sans-Serif" font-size="10.00" fill="#000000">SynchronizerOneShot(2)</text>
</a>
</g>
</g>
<!-- Node6&#45;&gt;Node21 -->
<g id="edge24" class="edge">
<title>Node6&#45;&gt;Node21</title>
<path fill="none" stroke="#191970" d="M366.4418,-370.906C381.3882,-370.906 398.9587,-370.906 415.8599,-370.906"/>
<polygon fill="#191970" stroke="#191970" points="366.0694,-367.4061 356.0693,-370.906 366.0693,-374.4061 366.0694,-367.4061"/>
</g>
<!-- Node7 -->
<g id="node8" class="node">
<title>Node7</title>
<g id="a_node8"><a xlink:href="classSynchronizer.html" target="_top" xlink:title="Synchronizer">
<polygon fill="#ffffff" stroke="#000000" points="0,-323.406 0,-342.406 80,-342.406 80,-323.406 0,-323.406"/>
<text text-anchor="middle" x="40" y="-330.406" font-family="Helvetica,sans-Serif" font-size="10.00" fill="#000000">Synchronizer</text>
</a>
</g>
</g>
<!-- Node7&#45;&gt;Node2 -->
<g id="edge32" class="edge">
<title>Node7&#45;&gt;Node2</title>
<path fill="none" stroke="#191970" d="M52.022,-350.7732C87.6477,-401.3562 198.3062,-541.906 328,-541.906 328,-541.906 328,-541.906 1021,-541.906 1113.4829,-541.906 1151.4235,-541.0448 1219,-477.906 1250.4792,-448.4941 1226.0001,-419.7652 1255,-387.906 1258.4026,-384.168 1262.7108,-381.0536 1267.1749,-378.5013"/>
<polygon fill="#191970" stroke="#191970" points="54.8203,-348.666 46.2554,-342.4294 49.0617,-352.6459 54.8203,-348.666"/>
</g>
<!-- Node7&#45;&gt;Node6 -->
<g id="edge7" class="edge">
<title>Node7&#45;&gt;Node6</title>
<path fill="none" stroke="#191970" d="M90.0991,-342.6442C98.7208,-344.1741 107.6062,-345.6593 116,-346.906 181.5833,-356.6468 259.1007,-364.4995 299.799,-368.3421"/>
<polygon fill="#191970" stroke="#191970" points="90.6083,-339.1796 80.1443,-340.8395 89.3595,-346.0673 90.6083,-339.1796"/>
</g>
<!-- Node8 -->
<g id="node9" class="node">
<title>Node8</title>
<g id="a_node9"><a xlink:href="classSynchronizerEdge.html" target="_top" xlink:title="SynchronizerEdge">
<polygon fill="#ffffff" stroke="#000000" points="276,-323.406 276,-342.406 380,-342.406 380,-323.406 276,-323.406"/>
<text text-anchor="middle" x="328" y="-330.406" font-family="Helvetica,sans-Serif" font-size="10.00" fill="#000000">SynchronizerEdge</text>
</a>
</g>
</g>
<!-- Node7&#45;&gt;Node8 -->
<g id="edge9" class="edge">
<title>Node7&#45;&gt;Node8</title>
<path fill="none" stroke="#191970" d="M90.3695,-332.906C142.3956,-332.906 223.2076,-332.906 275.8714,-332.906"/>
<polygon fill="#191970" stroke="#191970" points="90.0452,-329.4061 80.0452,-332.906 90.0451,-336.4061 90.0452,-329.4061"/>
</g>
<!-- Node11 -->
<g id="node12" class="node">
<title>Node11</title>
<g id="a_node12"><a xlink:href="classRstSync.html" target="_top" xlink:title="RstSync(2)">
<polygon fill="#ffffff" stroke="#000000" points="143.5,-247.406 143.5,-266.406 212.5,-266.406 212.5,-247.406 143.5,-247.406"/>
<text text-anchor="middle" x="178" y="-254.406" font-family="Helvetica,sans-Serif" font-size="10.00" fill="#000000">RstSync(2)</text>
</a>
</g>
</g>
<!-- Node7&#45;&gt;Node11 -->
<g id="edge13" class="edge">
<title>Node7&#45;&gt;Node11</title>
<path fill="none" stroke="#191970" d="M58.3137,-316.282C72.9974,-303.6982 94.6163,-286.7799 116,-275.906 124.5298,-271.5685 134.2304,-268.0168 143.3841,-265.2071"/>
<polygon fill="#191970" stroke="#191970" points="55.7357,-313.8875 50.5238,-323.1118 60.3504,-319.151 55.7357,-313.8875"/>
</g>
<!-- Node32 -->
<g id="node33" class="node">
<title>Node32</title>
<g id="a_node33"><a xlink:href="classJesd204bRx.html" target="_top" xlink:title="Jesd204bRx">
<polygon fill="#ffffff" stroke="#000000" points="1255,-172.406 1255,-191.406 1329,-191.406 1329,-172.406 1255,-172.406"/>
<text text-anchor="middle" x="1292" y="-179.406" font-family="Helvetica,sans-Serif" font-size="10.00" fill="#000000">Jesd204bRx</text>
</a>
</g>
</g>
<!-- Node7&#45;&gt;Node32 -->
<g id="edge49" class="edge">
<title>Node7&#45;&gt;Node32</title>
<path fill="none" stroke="#191970" d="M42.4888,-313.3112C50.2937,-255.0313 76.1658,-84.5551 116,-47.906 186.4447,16.906 232.2761,-9.906 328,-9.906 328,-9.906 328,-9.906 1021,-9.906 1109.4042,-9.906 1146.5721,21.7844 1219,-28.906 1269.6358,-64.3447 1286.3199,-144.5974 1290.6808,-172.294"/>
<polygon fill="#191970" stroke="#191970" points="38.996,-313.029 41.1699,-323.3984 45.9369,-313.9365 38.996,-313.029"/>
</g>
<!-- Node8&#45;&gt;Node5 -->
<g id="edge8" class="edge">
<title>Node8&#45;&gt;Node5</title>
<path fill="none" stroke="#191970" d="M390.0624,-332.906C400.6688,-332.906 411.6772,-332.906 422.249,-332.906"/>
<polygon fill="#191970" stroke="#191970" points="390.044,-329.4061 380.0439,-332.906 390.0439,-336.4061 390.044,-329.4061"/>
</g>
<!-- Node8&#45;&gt;Node21 -->
<g id="edge25" class="edge">
<title>Node8&#45;&gt;Node21</title>
<path fill="none" stroke="#191970" d="M377.1105,-344.946C398.7647,-350.2548 423.8502,-356.4048 444.1682,-361.386"/>
<polygon fill="#191970" stroke="#191970" points="377.6588,-341.4769 367.113,-342.495 375.992,-348.2755 377.6588,-341.4769"/>
</g>
<!-- Node9 -->
<g id="node10" class="node">
<title>Node9</title>
<g id="a_node10"><a xlink:href="classSynchronizerFifo.html" target="_top" xlink:title="SynchronizerFifo">
<polygon fill="#ffffff" stroke="#000000" points="434.5,-285.406 434.5,-304.406 531.5,-304.406 531.5,-285.406 434.5,-285.406"/>
<text text-anchor="middle" x="483" y="-292.406" font-family="Helvetica,sans-Serif" font-size="10.00" fill="#000000">SynchronizerFifo</text>
</a>
</g>
</g>
<!-- Node9&#45;&gt;Node4 -->
<g id="edge10" class="edge">
<title>Node9&#45;&gt;Node4</title>
<path fill="none" stroke="#191970" d="M541.7951,-294.906C564.2735,-294.906 589.5028,-294.906 610.3832,-294.906"/>
<polygon fill="#191970" stroke="#191970" points="541.6863,-291.4061 531.6863,-294.906 541.6862,-298.4061 541.6863,-291.4061"/>
</g>
<!-- Node22 -->
<g id="node23" class="node">
<title>Node22</title>
<g id="a_node23"><a xlink:href="classSynchronizerOneShotCnt.html" target="_top" xlink:title="SynchronizerOneShotCnt">
<polygon fill="#ffffff" stroke="#000000" points="586,-323.406 586,-342.406 723,-342.406 723,-323.406 586,-323.406"/>
<text text-anchor="middle" x="654.5" y="-330.406" font-family="Helvetica,sans-Serif" font-size="10.00" fill="#000000">SynchronizerOneShotCnt</text>
</a>
</g>
</g>
<!-- Node9&#45;&gt;Node22 -->
<g id="edge28" class="edge">
<title>Node9&#45;&gt;Node22</title>
<path fill="none" stroke="#191970" d="M536.0412,-306.6586C560.2913,-312.0318 588.6467,-318.3146 611.5345,-323.386"/>
<polygon fill="#191970" stroke="#191970" points="536.7971,-303.2413 526.2767,-304.495 535.2827,-310.0755 536.7971,-303.2413"/>
</g>
<!-- Node10 -->
<g id="node11" class="node">
<title>Node10</title>
<g id="a_node11"><a xlink:href="classFifoAsync.html" target="_top" xlink:title="FifoAsync">
<polygon fill="#ffffff" stroke="#000000" points="296.5,-171.406 296.5,-190.406 359.5,-190.406 359.5,-171.406 296.5,-171.406"/>
<text text-anchor="middle" x="328" y="-178.406" font-family="Helvetica,sans-Serif" font-size="10.00" fill="#000000">FifoAsync</text>
</a>
</g>
</g>
<!-- Node10&#45;&gt;Node9 -->
<g id="edge11" class="edge">
<title>Node10&#45;&gt;Node9</title>
<path fill="none" stroke="#191970" d="M349.3132,-196.5815C381.8379,-220.5029 442.9073,-265.4185 469.7597,-285.168"/>
<polygon fill="#191970" stroke="#191970" points="351.0781,-193.5349 340.9486,-190.4295 346.9307,-199.174 351.0781,-193.5349"/>
</g>
<!-- Node11&#45;&gt;Node10 -->
<g id="edge12" class="edge">
<title>Node11&#45;&gt;Node10</title>
<path fill="none" stroke="#191970" d="M222.6571,-244.8602C228.5865,-242.7875 234.5087,-240.4649 240,-237.906 268.7087,-224.5281 299.0453,-203.0032 315.5342,-190.5864"/>
<polygon fill="#191970" stroke="#191970" points="221.1582,-241.6682 212.7465,-248.1098 223.3393,-248.3198 221.1582,-241.6682"/>
</g>
<!-- Node12 -->
<g id="node13" class="node">
<title>Node12</title>
<g id="a_node13"><a xlink:href="classSynchronizerVector.html" target="_top" xlink:title="SynchronizerVector(2)">
<polygon fill="#ffffff" stroke="#000000" points="116,-285.406 116,-304.406 240,-304.406 240,-285.406 116,-285.406"/>
<text text-anchor="middle" x="178" y="-292.406" font-family="Helvetica,sans-Serif" font-size="10.00" fill="#000000">SynchronizerVector(2)</text>
</a>
</g>
</g>
<!-- Node12&#45;&gt;Node10 -->
<g id="edge14" class="edge">
<title>Node12&#45;&gt;Node10</title>
<path fill="none" stroke="#191970" d="M229.3786,-281.5576C233.0789,-279.8778 236.6626,-278.0007 240,-275.906 277.1316,-252.6006 308.7545,-209.6791 321.7165,-190.5475"/>
<polygon fill="#191970" stroke="#191970" points="227.9766,-278.349 220.0143,-285.3384 230.5974,-284.84 227.9766,-278.349"/>
</g>
<!-- Node13 -->
<g id="node14" class="node">
<title>Node13</title>
<g id="a_node14"><a xlink:href="classSynchronizer.html" target="_top" xlink:title="Synchronizer(2)">
<polygon fill="#ffffff" stroke="#000000" points="131.5,-209.406 131.5,-228.406 224.5,-228.406 224.5,-209.406 131.5,-209.406"/>
<text text-anchor="middle" x="178" y="-216.406" font-family="Helvetica,sans-Serif" font-size="10.00" fill="#000000">Synchronizer(2)</text>
</a>
</g>
</g>
<!-- Node13&#45;&gt;Node10 -->
<g id="edge15" class="edge">
<title>Node13&#45;&gt;Node10</title>
<path fill="none" stroke="#191970" d="M225.7785,-206.8021C248.8021,-200.9695 275.7856,-194.1337 296.2462,-188.9503"/>
<polygon fill="#191970" stroke="#191970" points="224.6856,-203.4684 215.8513,-209.317 226.4047,-210.254 224.6856,-203.4684"/>
</g>
<!-- Node14 -->
<g id="node15" class="node">
<title>Node14</title>
<g id="a_node15"><a xlink:href="classFifoWrFsm.html" target="_top" xlink:title="FifoWrFsm">
<polygon fill="#ffffff" stroke="#000000" points="144.5,-171.406 144.5,-190.406 211.5,-190.406 211.5,-171.406 144.5,-171.406"/>
<text text-anchor="middle" x="178" y="-178.406" font-family="Helvetica,sans-Serif" font-size="10.00" fill="#000000">FifoWrFsm</text>
</a>
</g>
</g>
<!-- Node14&#45;&gt;Node10 -->
<g id="edge16" class="edge">
<title>Node14&#45;&gt;Node10</title>
<path fill="none" stroke="#191970" d="M221.9014,-180.906C245.8136,-180.906 274.8512,-180.906 296.4994,-180.906"/>
<polygon fill="#191970" stroke="#191970" points="221.663,-177.4061 211.6629,-180.906 221.6629,-184.4061 221.663,-177.4061"/>
</g>
<!-- Node39 -->
<g id="node40" class="node">
<title>Node39</title>
<g id="a_node40"><a xlink:href="classFifoSync.html" target="_top" xlink:title="FifoSync">
<polygon fill="#ffffff" stroke="#000000" points="299.5,-114.406 299.5,-133.406 356.5,-133.406 356.5,-114.406 299.5,-114.406"/>
<text text-anchor="middle" x="328" y="-121.406" font-family="Helvetica,sans-Serif" font-size="10.00" fill="#000000">FifoSync</text>
</a>
</g>
</g>
<!-- Node14&#45;&gt;Node39 -->
<g id="edge54" class="edge">
<title>Node14&#45;&gt;Node39</title>
<path fill="none" stroke="#191970" d="M221.4177,-168.2682C227.6898,-166.2494 234.0369,-164.0996 240,-161.906 263.5833,-153.2306 289.9623,-141.5687 307.6339,-133.4617"/>
<polygon fill="#191970" stroke="#191970" points="220.1831,-164.9872 211.6893,-171.3201 222.2785,-171.6663 220.1831,-164.9872"/>
</g>
<!-- Node15 -->
<g id="node16" class="node">
<title>Node15</title>
<g id="a_node16"><a xlink:href="classFifoRdFsm.html" target="_top" xlink:title="FifoRdFsm">
<polygon fill="#ffffff" stroke="#000000" points="144.5,-133.406 144.5,-152.406 211.5,-152.406 211.5,-133.406 144.5,-133.406"/>
<text text-anchor="middle" x="178" y="-140.406" font-family="Helvetica,sans-Serif" font-size="10.00" fill="#000000">FifoRdFsm</text>
</a>
</g>
</g>
<!-- Node15&#45;&gt;Node10 -->
<g id="edge17" class="edge">
<title>Node15&#45;&gt;Node10</title>
<path fill="none" stroke="#191970" d="M221.58,-153.9463C245.5531,-160.0195 274.7542,-167.4171 296.4994,-172.9259"/>
<polygon fill="#191970" stroke="#191970" points="222.2162,-150.497 211.6629,-151.434 220.4972,-157.2826 222.2162,-150.497"/>
</g>
<!-- Node15&#45;&gt;Node39 -->
<g id="edge55" class="edge">
<title>Node15&#45;&gt;Node39</title>
<path fill="none" stroke="#191970" d="M221.6652,-137.3751C246.7411,-134.1988 277.5147,-130.3008 299.4925,-127.517"/>
<polygon fill="#191970" stroke="#191970" points="221.1438,-133.9131 211.6629,-138.6421 222.0235,-140.8576 221.1438,-133.9131"/>
</g>
<!-- Node16 -->
<g id="node17" class="node">
<title>Node16</title>
<g id="a_node17"><a xlink:href="classSimpleDualPortRam.html" target="_top" xlink:title="SimpleDualPortRam">
<polygon fill="#ffffff" stroke="#000000" points="120.5,-95.406 120.5,-114.406 235.5,-114.406 235.5,-95.406 120.5,-95.406"/>
<text text-anchor="middle" x="178" y="-102.406" font-family="Helvetica,sans-Serif" font-size="10.00" fill="#000000">SimpleDualPortRam</text>
</a>
</g>
</g>
<!-- Node16&#45;&gt;Node10 -->
<g id="edge18" class="edge">
<title>Node16&#45;&gt;Node10</title>
<path fill="none" stroke="#191970" d="M224.5364,-117.6174C229.8335,-119.5181 235.0891,-121.6176 240,-123.906 268.7087,-137.284 299.0453,-158.8088 315.5342,-171.2256"/>
<polygon fill="#191970" stroke="#191970" points="225.6164,-114.288 215.0223,-114.413 223.382,-120.9219 225.6164,-114.288"/>
</g>
<!-- Node16&#45;&gt;Node39 -->
<g id="edge56" class="edge">
<title>Node16&#45;&gt;Node39</title>
<path fill="none" stroke="#191970" d="M245.6503,-113.4751C264.5204,-115.8653 284.0171,-118.3349 299.3003,-120.2707"/>
<polygon fill="#191970" stroke="#191970" points="245.9255,-109.982 235.5649,-112.1976 245.0458,-116.9265 245.9255,-109.982"/>
</g>
<!-- Node17 -->
<g id="node18" class="node">
<title>Node17</title>
<g id="a_node18"><a xlink:href="classFifoOutputPipeline.html" target="_top" xlink:title="FifoOutputPipeline">
<polygon fill="#ffffff" stroke="#000000" points="125,-57.406 125,-76.406 231,-76.406 231,-57.406 125,-57.406"/>
<text text-anchor="middle" x="178" y="-64.406" font-family="Helvetica,sans-Serif" font-size="10.00" fill="#000000">FifoOutputPipeline</text>
</a>
</g>
</g>
<!-- Node17&#45;&gt;Node10 -->
<g id="edge19" class="edge">
<title>Node17&#45;&gt;Node10</title>
<path fill="none" stroke="#191970" d="M232.0946,-80.7848C234.8719,-82.3179 237.5301,-84.019 240,-85.906 263.809,-104.0969 255.5429,-121.0135 276,-142.906 286.535,-154.1803 300.8226,-164.3418 311.7556,-171.3142"/>
<polygon fill="#191970" stroke="#191970" points="233.4404,-77.5496 222.9041,-76.4373 230.447,-83.8773 233.4404,-77.5496"/>
</g>
<!-- Node17&#45;&gt;Node39 -->
<g id="edge57" class="edge">
<title>Node17&#45;&gt;Node39</title>
<path fill="none" stroke="#191970" d="M222.8798,-79.5578C228.6998,-81.5189 234.5335,-83.6494 240,-85.906 256.7229,-92.8093 259.4657,-97.5625 276,-104.906 283.5544,-108.2612 291.9015,-111.5063 299.6563,-114.3367"/>
<polygon fill="#191970" stroke="#191970" points="223.7569,-76.1632 213.1653,-76.4248 221.6083,-82.8253 223.7569,-76.1632"/>
</g>
<!-- Node18 -->
<g id="node19" class="node">
<title>Node18</title>
<g id="a_node19"><a xlink:href="classSyncStatusVector.html" target="_top" xlink:title="SyncStatusVector">
<polygon fill="#ffffff" stroke="#000000" points="970.5,-342.406 970.5,-361.406 1071.5,-361.406 1071.5,-342.406 970.5,-342.406"/>
<text text-anchor="middle" x="1021" y="-349.406" font-family="Helvetica,sans-Serif" font-size="10.00" fill="#000000">SyncStatusVector</text>
</a>
</g>
</g>
<!-- Node18&#45;&gt;Node3 -->
<g id="edge20" class="edge">
<title>Node18&#45;&gt;Node3</title>
<path fill="none" stroke="#191970" d="M1081.8834,-350.655C1099.502,-350.293 1118.0894,-349.911 1133.3844,-349.5968"/>
<polygon fill="#191970" stroke="#191970" points="1081.5799,-347.1604 1071.654,-350.8652 1081.7238,-354.1589 1081.5799,-347.1604"/>
</g>
<!-- Node18&#45;&gt;Node33 -->
<g id="edge43" class="edge">
<title>Node18&#45;&gt;Node33</title>
<path fill="none" stroke="#191970" d="M1040.494,-335.5856C1052.5486,-324.8464 1067.8032,-310.0235 1079,-294.906 1099.5871,-267.1101 1089.9558,-249.7646 1115,-225.906 1121.4072,-219.8022 1129.6443,-215.0417 1137.6646,-211.4282"/>
<polygon fill="#191970" stroke="#191970" points="1037.9977,-333.1181 1032.7489,-342.3214 1042.5913,-338.4 1037.9977,-333.1181"/>
</g>
<!-- Node19 -->
<g id="node20" class="node">
<title>Node19</title>
<g id="a_node20"><a xlink:href="classSynchronizerVector.html" target="_top" xlink:title="SynchronizerVector">
<polygon fill="#ffffff" stroke="#000000" points="788,-437.406 788,-456.406 898,-456.406 898,-437.406 788,-437.406"/>
<text text-anchor="middle" x="843" y="-444.406" font-family="Helvetica,sans-Serif" font-size="10.00" fill="#000000">SynchronizerVector</text>
</a>
</g>
</g>
<!-- Node19&#45;&gt;Node2 -->
<g id="edge33" class="edge">
<title>Node19&#45;&gt;Node2</title>
<path fill="none" stroke="#191970" d="M875.5192,-460.1962C899.2974,-469.1696 932.5759,-480.2039 963,-484.906 1013.9506,-492.7805 1027.8965,-491.7183 1079,-484.906 1142.9082,-476.3869 1167.44,-485.6153 1219,-446.906 1243.5655,-428.4632 1232.496,-408.8147 1255,-387.906 1258.9147,-384.2688 1263.6578,-381.1468 1268.4233,-378.5461"/>
<polygon fill="#191970" stroke="#191970" points="876.5357,-456.8369 865.9462,-456.5011 874.015,-463.3673 876.5357,-456.8369"/>
</g>
<!-- Node19&#45;&gt;Node18 -->
<g id="edge21" class="edge">
<title>Node19&#45;&gt;Node18</title>
<path fill="none" stroke="#191970" d="M864.0953,-431.2589C887.3631,-414.5579 926.374,-388.1743 963,-370.906 970.5715,-367.3363 978.9933,-364.1603 987.0196,-361.4751"/>
<polygon fill="#191970" stroke="#191970" points="861.738,-428.6453 855.704,-437.354 865.8518,-434.3089 861.738,-428.6453"/>
</g>
<!-- Node20 -->
<g id="node21" class="node">
<title>Node20</title>
<g id="a_node21"><a xlink:href="classSynchronizerOneShotCntVector.html" target="_top" xlink:title="SynchronizerOneShotCntVector">
<polygon fill="#ffffff" stroke="#000000" points="759,-342.406 759,-361.406 927,-361.406 927,-342.406 759,-342.406"/>
<text text-anchor="middle" x="843" y="-349.406" font-family="Helvetica,sans-Serif" font-size="10.00" fill="#000000">SynchronizerOneShotCntVector</text>
</a>
</g>
</g>
<!-- Node20&#45;&gt;Node18 -->
<g id="edge22" class="edge">
<title>Node20&#45;&gt;Node18</title>
<path fill="none" stroke="#191970" d="M937.0912,-351.906C948.5081,-351.906 959.813,-351.906 970.251,-351.906"/>
<polygon fill="#191970" stroke="#191970" points="937.0482,-348.4061 927.0482,-351.906 937.0481,-355.4061 937.0482,-348.4061"/>
</g>
<!-- Node21&#45;&gt;Node20 -->
<g id="edge23" class="edge">
<title>Node21&#45;&gt;Node20</title>
<path fill="none" stroke="#191970" d="M560.5707,-366.812C618.9864,-363.729 698.9753,-359.5073 758.9173,-356.3437"/>
<polygon fill="#191970" stroke="#191970" points="560.0925,-363.3323 550.2909,-367.3546 560.4615,-370.3226 560.0925,-363.3323"/>
</g>
<!-- Node21&#45;&gt;Node22 -->
<g id="edge27" class="edge">
<title>Node21&#45;&gt;Node22</title>
<path fill="none" stroke="#191970" d="M536.0412,-359.1534C560.2913,-353.7803 588.6467,-347.4974 611.5345,-342.4261"/>
<polygon fill="#191970" stroke="#191970" points="535.2827,-355.7365 526.2767,-361.317 536.7971,-362.5708 535.2827,-355.7365"/>
</g>
<!-- Node22&#45;&gt;Node20 -->
<g id="edge26" class="edge">
<title>Node22&#45;&gt;Node20</title>
<path fill="none" stroke="#191970" d="M733.2491,-340.8436C741.6652,-341.6919 750.2509,-342.5573 758.7277,-343.4117"/>
<polygon fill="#191970" stroke="#191970" points="733.3867,-337.3398 723.0861,-339.8192 732.6846,-344.3045 733.3867,-337.3398"/>
</g>
<!-- Node23 -->
<g id="node24" class="node">
<title>Node23</title>
<g id="a_node24"><a xlink:href="classRstPipelineVector.html" target="_top" xlink:title="RstPipelineVector(9)">
<polygon fill="#ffffff" stroke="#000000" points="963,-266.406 963,-285.406 1079,-285.406 1079,-266.406 963,-266.406"/>
<text text-anchor="middle" x="1021" y="-273.406" font-family="Helvetica,sans-Serif" font-size="10.00" fill="#000000">RstPipelineVector(9)</text>
</a>
</g>
</g>
<!-- Node23&#45;&gt;Node3 -->
<g id="edge29" class="edge">
<title>Node23&#45;&gt;Node3</title>
<path fill="none" stroke="#191970" d="M1055.1833,-289.2799C1063.082,-292.5822 1071.3967,-296.2313 1079,-299.906 1104.8204,-312.3851 1133.6737,-328.985 1151.0772,-339.3045"/>
<polygon fill="#191970" stroke="#191970" points="1056.4109,-286.0005 1045.8306,-285.4454 1053.7554,-292.4773 1056.4109,-286.0005"/>
</g>
<!-- Node24 -->
<g id="node25" class="node">
<title>Node24</title>
<g id="a_node25"><a xlink:href="classRstPipeline.html" target="_top" xlink:title="RstPipeline">
<polygon fill="#ffffff" stroke="#000000" points="807.5,-247.406 807.5,-266.406 878.5,-266.406 878.5,-247.406 807.5,-247.406"/>
<text text-anchor="middle" x="843" y="-254.406" font-family="Helvetica,sans-Serif" font-size="10.00" fill="#000000">RstPipeline</text>
</a>
</g>
</g>
<!-- Node24&#45;&gt;Node23 -->
<g id="edge30" class="edge">
<title>Node24&#45;&gt;Node23</title>
<path fill="none" stroke="#191970" d="M888.5803,-261.7713C911.137,-264.1791 938.6224,-267.1129 962.694,-269.6823"/>
<polygon fill="#191970" stroke="#191970" points="888.9082,-258.2865 878.5931,-260.7053 888.1651,-265.247 888.9082,-258.2865"/>
</g>
<!-- Node34 -->
<g id="node35" class="node">
<title>Node34</title>
<g id="a_node35"><a xlink:href="classRstPipelineVector.html" target="_top" xlink:title="RstPipelineVector(8)">
<polygon fill="#ffffff" stroke="#000000" points="963,-228.406 963,-247.406 1079,-247.406 1079,-228.406 963,-228.406"/>
<text text-anchor="middle" x="1021" y="-235.406" font-family="Helvetica,sans-Serif" font-size="10.00" fill="#000000">RstPipelineVector(8)</text>
</a>
</g>
</g>
<!-- Node24&#45;&gt;Node34 -->
<g id="edge45" class="edge">
<title>Node24&#45;&gt;Node34</title>
<path fill="none" stroke="#191970" d="M888.5803,-252.0407C911.137,-249.633 938.6224,-246.6991 962.694,-244.1297"/>
<polygon fill="#191970" stroke="#191970" points="888.1651,-248.565 878.5931,-253.1068 888.9082,-255.5255 888.1651,-248.565"/>
</g>
<!-- Node25 -->
<g id="node26" class="node">
<title>Node25</title>
<g id="a_node26"><a xlink:href="classJesdTestStreamTx.html" target="_top" xlink:title="JesdTestStreamTx">
<polygon fill="#ffffff" stroke="#000000" points="1115,-418.406 1115,-437.406 1219,-437.406 1219,-418.406 1115,-418.406"/>
<text text-anchor="middle" x="1167" y="-425.406" font-family="Helvetica,sans-Serif" font-size="10.00" fill="#000000">JesdTestStreamTx</text>
</a>
</g>
</g>
<!-- Node25&#45;&gt;Node2 -->
<g id="edge31" class="edge">
<title>Node25&#45;&gt;Node2</title>
<path fill="none" stroke="#191970" d="M1205.4092,-414.753C1210.0393,-412.9097 1214.6612,-410.9444 1219,-408.906 1235.7653,-401.0297 1238.7553,-396.8067 1255,-387.906 1260.6995,-384.7832 1266.9646,-381.5078 1272.6932,-378.573"/>
<polygon fill="#191970" stroke="#191970" points="1204.0776,-411.5149 1195.9821,-418.3497 1206.5728,-418.0551 1204.0776,-411.5149"/>
</g>
<!-- Node26 -->
<g id="node27" class="node">
<title>Node26</title>
<g id="a_node27"><a xlink:href="classSlvDelay.html" target="_top" xlink:title="SlvDelay">
<polygon fill="#ffffff" stroke="#000000" points="1137,-282.406 1137,-301.406 1197,-301.406 1197,-282.406 1137,-282.406"/>
<text text-anchor="middle" x="1167" y="-289.406" font-family="Helvetica,sans-Serif" font-size="10.00" fill="#000000">SlvDelay</text>
</a>
</g>
</g>
<!-- Node26&#45;&gt;Node2 -->
<g id="edge34" class="edge">
<title>Node26&#45;&gt;Node2</title>
<path fill="none" stroke="#191970" d="M1191.1594,-306.7882C1216.2539,-322.2464 1254.7868,-345.9827 1276.2251,-359.1887"/>
<polygon fill="#191970" stroke="#191970" points="1192.9285,-303.7673 1182.5786,-301.5024 1189.2572,-309.7272 1192.9285,-303.7673"/>
</g>
<!-- Node26&#45;&gt;Node32 -->
<g id="edge50" class="edge">
<title>Node26&#45;&gt;Node32</title>
<path fill="none" stroke="#191970" d="M1197.7706,-277.6341C1205.0428,-273.6507 1212.5512,-269.0011 1219,-263.906 1247.1162,-241.6916 1273.3061,-207.8815 1285.2357,-191.4872"/>
<polygon fill="#191970" stroke="#191970" points="1196.0408,-274.5886 1188.7829,-282.307 1199.2699,-280.7993 1196.0408,-274.5886"/>
</g>
<!-- Node27 -->
<g id="node28" class="node">
<title>Node27</title>
<g id="a_node28"><a xlink:href="classJesdLmfcGen.html" target="_top" xlink:title="JesdLmfcGen">
<polygon fill="#ffffff" stroke="#000000" points="1127,-235.406 1127,-254.406 1207,-254.406 1207,-235.406 1127,-235.406"/>
<text text-anchor="middle" x="1167" y="-242.406" font-family="Helvetica,sans-Serif" font-size="10.00" fill="#000000">JesdLmfcGen</text>
</a>
</g>
</g>
<!-- Node27&#45;&gt;Node2 -->
<g id="edge35" class="edge">
<title>Node27&#45;&gt;Node2</title>
<path fill="none" stroke="#191970" d="M1198.9147,-259.306C1205.9033,-263.1988 1212.9988,-267.7759 1219,-272.906 1249.8757,-299.3001 1275.8779,-340.8215 1286.6616,-359.3853"/>
<polygon fill="#191970" stroke="#191970" points="1200.0496,-255.9508 1189.5639,-254.4343 1196.8153,-262.1588 1200.0496,-255.9508"/>
</g>
<!-- Node27&#45;&gt;Node32 -->
<g id="edge51" class="edge">
<title>Node27&#45;&gt;Node32</title>
<path fill="none" stroke="#191970" d="M1197.6624,-231.1144C1204.7093,-227.8452 1212.145,-224.3155 1219,-220.906 1238.2982,-211.3078 1260.0439,-199.5679 1274.7434,-191.4914"/>
<polygon fill="#191970" stroke="#191970" points="1196.0118,-228.0209 1188.385,-235.3751 1198.9333,-234.3821 1196.0118,-228.0209"/>
</g>
<!-- Node28 -->
<g id="node29" class="node">
<title>Node28</title>
<g id="a_node29"><a xlink:href="classJesdTxLane.html" target="_top" xlink:title="JesdTxLane">
<polygon fill="#ffffff" stroke="#000000" points="1131,-380.406 1131,-399.406 1203,-399.406 1203,-380.406 1131,-380.406"/>
<text text-anchor="middle" x="1167" y="-387.406" font-family="Helvetica,sans-Serif" font-size="10.00" fill="#000000">JesdTxLane</text>
</a>
</g>
</g>
<!-- Node28&#45;&gt;Node2 -->
<g id="edge36" class="edge">
<title>Node28&#45;&gt;Node2</title>
<path fill="none" stroke="#191970" d="M1213.0844,-382.1638C1227.0674,-379.8147 1242.2303,-377.2673 1255.493,-375.0392"/>
<polygon fill="#191970" stroke="#191970" points="1212.4371,-378.7235 1203.1552,-383.832 1213.5969,-385.6267 1212.4371,-378.7235"/>
</g>
<!-- Node29 -->
<g id="node30" class="node">
<title>Node29</title>
<g id="a_node30"><a xlink:href="classJesdSyncFsmTx.html" target="_top" xlink:title="JesdSyncFsmTx">
<polygon fill="#ffffff" stroke="#000000" points="975,-418.406 975,-437.406 1067,-437.406 1067,-418.406 975,-418.406"/>
<text text-anchor="middle" x="1021" y="-425.406" font-family="Helvetica,sans-Serif" font-size="10.00" fill="#000000">JesdSyncFsmTx</text>
</a>
</g>
</g>
<!-- Node29&#45;&gt;Node28 -->
<g id="edge37" class="edge">
<title>Node29&#45;&gt;Node28</title>
<path fill="none" stroke="#191970" d="M1067.6119,-415.7741C1088.1081,-410.4395 1111.8111,-404.2703 1130.9277,-399.2947"/>
<polygon fill="#191970" stroke="#191970" points="1066.6379,-412.411 1057.842,-418.317 1068.4012,-419.1853 1066.6379,-412.411"/>
</g>
<!-- Node30 -->
<g id="node31" class="node">
<title>Node30</title>
<g id="a_node31"><a xlink:href="classJesdIlasGen.html" target="_top" xlink:title="JesdIlasGen">
<polygon fill="#ffffff" stroke="#000000" points="984,-380.406 984,-399.406 1058,-399.406 1058,-380.406 984,-380.406"/>
<text text-anchor="middle" x="1021" y="-387.406" font-family="Helvetica,sans-Serif" font-size="10.00" fill="#000000">JesdIlasGen</text>
</a>
</g>
</g>
<!-- Node30&#45;&gt;Node28 -->
<g id="edge38" class="edge">
<title>Node30&#45;&gt;Node28</title>
<path fill="none" stroke="#191970" d="M1068.2253,-389.906C1088.5545,-389.906 1111.9435,-389.906 1130.8574,-389.906"/>
<polygon fill="#191970" stroke="#191970" points="1068.2198,-386.4061 1058.2197,-389.906 1068.2197,-393.4061 1068.2198,-386.4061"/>
</g>
<!-- Node31 -->
<g id="node32" class="node">
<title>Node31</title>
<g id="a_node32"><a xlink:href="classJesdAlignChGen.html" target="_top" xlink:title="JesdAlignChGen">
<polygon fill="#ffffff" stroke="#000000" points="974,-456.406 974,-475.406 1068,-475.406 1068,-456.406 974,-456.406"/>
<text text-anchor="middle" x="1021" y="-463.406" font-family="Helvetica,sans-Serif" font-size="10.00" fill="#000000">JesdAlignChGen</text>
</a>
</g>
</g>
<!-- Node31&#45;&gt;Node28 -->
<g id="edge39" class="edge">
<title>Node31&#45;&gt;Node28</title>
<path fill="none" stroke="#191970" d="M1068.8623,-452.3927C1072.392,-450.7477 1075.8136,-448.9237 1079,-446.906 1098.6552,-434.4598 1095.5576,-421.6821 1115,-408.906 1120.7031,-405.1584 1127.2425,-402.0281 1133.7158,-399.4609"/>
<polygon fill="#191970" stroke="#191970" points="1067.2476,-449.2733 1059.3534,-456.3396 1069.9312,-455.7385 1067.2476,-449.2733"/>
</g>
<!-- Node32&#45;&gt;Node0 -->
<g id="edge40" class="edge">
<title>Node32&#45;&gt;Node0</title>
<path fill="none" stroke="#191970" d="M1302.6989,-200.1771C1325.5293,-239.1662 1378.3595,-329.3876 1395.7993,-359.1705"/>
<polygon fill="#191970" stroke="#191970" points="1305.6541,-198.2973 1297.5807,-191.4365 1299.6135,-201.8345 1305.6541,-198.2973"/>
</g>
<!-- Node33&#45;&gt;Node32 -->
<g id="edge41" class="edge">
<title>Node33&#45;&gt;Node32</title>
<path fill="none" stroke="#191970" d="M1211.2392,-194.8278C1225.4881,-192.5479 1241.1253,-190.046 1254.8132,-187.8559"/>
<polygon fill="#191970" stroke="#191970" points="1210.4782,-191.4049 1201.1568,-196.4409 1211.5842,-198.317 1210.4782,-191.4049"/>
</g>
<!-- Node34&#45;&gt;Node33 -->
<g id="edge44" class="edge">
<title>Node34&#45;&gt;Node33</title>
<path fill="none" stroke="#191970" d="M1069.5969,-225.9232C1090.2211,-220.8378 1113.7819,-215.0283 1132.5647,-210.3969"/>
<polygon fill="#191970" stroke="#191970" points="1068.6133,-222.5609 1059.742,-228.3532 1070.2892,-229.3573 1068.6133,-222.5609"/>
</g>
<!-- Node35 -->
<g id="node36" class="node">
<title>Node35</title>
<g id="a_node36"><a xlink:href="classJesdTxTest.html" target="_top" xlink:title="JesdTxTest">
<polygon fill="#ffffff" stroke="#000000" points="1133,-152.406 1133,-171.406 1201,-171.406 1201,-152.406 1133,-152.406"/>
<text text-anchor="middle" x="1167" y="-159.406" font-family="Helvetica,sans-Serif" font-size="10.00" fill="#000000">JesdTxTest</text>
</a>
</g>
</g>
<!-- Node35&#45;&gt;Node32 -->
<g id="edge46" class="edge">
<title>Node35&#45;&gt;Node32</title>
<path fill="none" stroke="#191970" d="M1211.2392,-168.9843C1225.4881,-171.2641 1241.1253,-173.7661 1254.8132,-175.9561"/>
<polygon fill="#191970" stroke="#191970" points="1211.5842,-165.4951 1201.1568,-167.3711 1210.4782,-172.4071 1211.5842,-165.4951"/>
</g>
<!-- Node36 -->
<g id="node37" class="node">
<title>Node36</title>
<g id="a_node37"><a xlink:href="classSlvDelay.html" target="_top" xlink:title="SlvDelay(2)">
<polygon fill="#ffffff" stroke="#000000" points="984,-114.406 984,-133.406 1058,-133.406 1058,-114.406 984,-114.406"/>
<text text-anchor="middle" x="1021" y="-121.406" font-family="Helvetica,sans-Serif" font-size="10.00" fill="#000000">SlvDelay(2)</text>
</a>
</g>
</g>
<!-- Node36&#45;&gt;Node35 -->
<g id="edge47" class="edge">
<title>Node36&#45;&gt;Node35</title>
<path fill="none" stroke="#191970" d="M1067.5908,-136.0324C1088.7217,-141.5322 1113.2648,-147.9201 1132.6772,-152.9727"/>
<polygon fill="#191970" stroke="#191970" points="1068.4012,-132.6268 1057.842,-133.495 1066.6379,-139.4011 1068.4012,-132.6268"/>
</g>
<!-- Node37 -->
<g id="node38" class="node">
<title>Node37</title>
<g id="a_node38"><a xlink:href="classJesdSyncFsmTxTest.html" target="_top" xlink:title="JesdSyncFsmTxTest">
<polygon fill="#ffffff" stroke="#000000" points="965,-152.406 965,-171.406 1077,-171.406 1077,-152.406 965,-152.406"/>
<text text-anchor="middle" x="1021" y="-159.406" font-family="Helvetica,sans-Serif" font-size="10.00" fill="#000000">JesdSyncFsmTxTest</text>
</a>
</g>
</g>
<!-- Node37&#45;&gt;Node35 -->
<g id="edge48" class="edge">
<title>Node37&#45;&gt;Node35</title>
<path fill="none" stroke="#191970" d="M1087.2965,-161.906C1103.0594,-161.906 1119.2427,-161.906 1132.8732,-161.906"/>
<polygon fill="#191970" stroke="#191970" points="1087.0299,-158.4061 1077.0299,-161.906 1087.0298,-165.4061 1087.0299,-158.4061"/>
</g>
<!-- Node38 -->
<g id="node39" class="node">
<title>Node38</title>
<g id="a_node39"><a xlink:href="classJesdRxLane.html" target="_top" xlink:title="JesdRxLane">
<polygon fill="#ffffff" stroke="#000000" points="446.5,-76.406 446.5,-95.406 519.5,-95.406 519.5,-76.406 446.5,-76.406"/>
<text text-anchor="middle" x="483" y="-83.406" font-family="Helvetica,sans-Serif" font-size="10.00" fill="#000000">JesdRxLane</text>
</a>
</g>
</g>
<!-- Node38&#45;&gt;Node32 -->
<g id="edge52" class="edge">
<title>Node38&#45;&gt;Node32</title>
<path fill="none" stroke="#191970" d="M529.5906,-85.906C598.211,-85.906 730.4942,-85.906 843,-85.906 843,-85.906 843,-85.906 1021,-85.906 1123.8216,-85.906 1236.6432,-148.0681 1276.7917,-172.3502"/>
<polygon fill="#191970" stroke="#191970" points="529.5375,-82.4061 519.5374,-85.906 529.5374,-89.4061 529.5375,-82.4061"/>
</g>
<!-- Node39&#45;&gt;Node38 -->
<g id="edge53" class="edge">
<title>Node39&#45;&gt;Node38</title>
<path fill="none" stroke="#191970" d="M366.7837,-114.3978C391.1806,-108.4166 422.4655,-100.7467 446.429,-94.8718"/>
<polygon fill="#191970" stroke="#191970" points="365.67,-111.0671 356.7911,-116.8476 367.3369,-117.8657 365.67,-111.0671"/>
</g>
<!-- Node40 -->
<g id="node41" class="node">
<title>Node40</title>
<g id="a_node41"><a xlink:href="classJesdSyncFsmRx.html" target="_top" xlink:title="JesdSyncFsmRx">
<polygon fill="#ffffff" stroke="#000000" points="281.5,-76.406 281.5,-95.406 374.5,-95.406 374.5,-76.406 281.5,-76.406"/>
<text text-anchor="middle" x="328" y="-83.406" font-family="Helvetica,sans-Serif" font-size="10.00" fill="#000000">JesdSyncFsmRx</text>
</a>
</g>
</g>
<!-- Node40&#45;&gt;Node38 -->
<g id="edge58" class="edge">
<title>Node40&#45;&gt;Node38</title>
<path fill="none" stroke="#191970" d="M384.7231,-85.906C405.3003,-85.906 427.9875,-85.906 446.3745,-85.906"/>
<polygon fill="#191970" stroke="#191970" points="384.5051,-82.4061 374.5051,-85.906 384.5051,-89.4061 384.5051,-82.4061"/>
</g>
<!-- Node41 -->
<g id="node42" class="node">
<title>Node41</title>
<g id="a_node42"><a xlink:href="classJesdAlignFrRepCh.html" target="_top" xlink:title="JesdAlignFrRepCh">
<polygon fill="#ffffff" stroke="#000000" points="277.5,-38.406 277.5,-57.406 378.5,-57.406 378.5,-38.406 277.5,-38.406"/>
<text text-anchor="middle" x="328" y="-45.406" font-family="Helvetica,sans-Serif" font-size="10.00" fill="#000000">JesdAlignFrRepCh</text>
</a>
</g>
</g>
<!-- Node41&#45;&gt;Node38 -->
<g id="edge59" class="edge">
<title>Node41&#45;&gt;Node38</title>
<path fill="none" stroke="#191970" d="M377.1206,-59.9485C399.5356,-65.4438 425.6253,-71.84 446.2979,-76.9081"/>
<polygon fill="#191970" stroke="#191970" points="377.6588,-56.4769 367.113,-57.495 375.992,-63.2755 377.6588,-56.4769"/>
</g>
<!-- Node42 -->
<g id="node43" class="node">
<title>Node42</title>
<g id="a_node43"><a xlink:href="classJesdTestSigGen.html" target="_top" xlink:title="JesdTestSigGen">
<polygon fill="#ffffff" stroke="#000000" points="1121.5,-38.406 1121.5,-57.406 1212.5,-57.406 1212.5,-38.406 1121.5,-38.406"/>
<text text-anchor="middle" x="1167" y="-45.406" font-family="Helvetica,sans-Serif" font-size="10.00" fill="#000000">JesdTestSigGen</text>
</a>
</g>
</g>
<!-- Node42&#45;&gt;Node32 -->
<g id="edge60" class="edge">
<title>Node42&#45;&gt;Node32</title>
<path fill="none" stroke="#191970" d="M1204.479,-62.1064C1209.6451,-64.9251 1214.6593,-68.1852 1219,-71.906 1253.6295,-101.5899 1278.5322,-151.5936 1287.9049,-172.3893"/>
<polygon fill="#191970" stroke="#191970" points="1205.6465,-58.7801 1195.1287,-57.5053 1202.5559,-65.0609 1205.6465,-58.7801"/>
</g>
</g>
</svg>
