<?xml version="1.0" encoding="UTF-8" standalone="no"?>
<!DOCTYPE svg PUBLIC "-//W3C//DTD SVG 1.1//EN"
 "http://www.w3.org/Graphics/SVG/1.1/DTD/svg11.dtd">
<!-- Generated by graphviz version 2.40.1 (20161225.0304)
 -->
<!-- Title: AxiLiteCrossbar Pages: 1 -->
<!--zoomable 484 -->
<svg id="main" version="1.1" xmlns="http://www.w3.org/2000/svg" xmlns:xlink="http://www.w3.org/1999/xlink" xml:space="preserve" onload="init(evt)">
<style type="text/css"><![CDATA[
.edge:hover path { stroke: red; }
.edge:hover polygon { stroke: red; fill: red; }
]]></style>
<script type="text/javascript"><![CDATA[
var edges = document.getElementsByTagName('g');
if (edges && edges.length) {
  for (var i=0;i<edges.length;i++) {
    if (edges[i].id.substr(0,4)=='edge') {
      edges[i].setAttribute('class','edge');
    }
  }
}
]]></script>
        <defs>
                <circle id="rim" cx="0" cy="0" r="7"/>
                <circle id="rim2" cx="0" cy="0" r="3.5"/>
                <g id="zoomPlus">
                        <use xlink:href="#rim" fill="#404040">
                                <set attributeName="fill" to="#808080" begin="zoomplus.mouseover" end="zoomplus.mouseout"/>
                        </use>
                        <path d="M-4,0h8M0,-4v8" fill="none" stroke="white" stroke-width="1.5" pointer-events="none"/>
                </g>
                <g id="zoomMin">
                        <use xlink:href="#rim" fill="#404040">
                                <set attributeName="fill" to="#808080" begin="zoomminus.mouseover" end="zoomminus.mouseout"/>
                        </use>
                        <path d="M-4,0h8" fill="none" stroke="white" stroke-width="1.5" pointer-events="none"/>
                </g>
                <g id="dirArrow">
                        <path fill="none" stroke="white" stroke-width="1.5" d="M0,-3.0v7 M-2.5,-0.5L0,-3.0L2.5,-0.5"/>
                </g>
               <g id="resetDef">
                       <use xlink:href="#rim2" fill="#404040">
                               <set attributeName="fill" to="#808080" begin="reset.mouseover" end="reset.mouseout"/>
                       </use>
               </g>
        </defs>

<script type="text/javascript">
var viewWidth = 709;
var viewHeight = 484;
var sectionId = 'dynsection-0';
</script>
<script xlink:href="svgpan.js"/>
<svg id="graph" class="graph">
<g id="viewport">
<title>AxiLiteCrossbar</title>
<polygon fill="#ffffff" stroke="transparent" points="-4,4 -4,-480 705,-480 705,4 -4,4"/>
<!-- Node0 -->
<g id="node1" class="node">
<title>Node0</title>
<polygon fill="#bfbfbf" stroke="#000000" points="0,-228.5 0,-247.5 93,-247.5 93,-228.5 0,-228.5"/>
<text text-anchor="middle" x="46.5" y="-235.5" font-family="Helvetica,sans-Serif" font-size="10.00" fill="#000000">AxiLiteCrossbar</text>
</g>
<!-- Node1 -->
<g id="node2" class="node">
<title>Node1</title>
<g id="a_node2"><a xlink:href="classAxiLiteAsyncTb.html" target="_top" xlink:title="AxiLiteAsyncTb">
<polygon fill="#ffffff" stroke="#000000" points="158.5,-456.5 158.5,-475.5 250.5,-475.5 250.5,-456.5 158.5,-456.5"/>
<text text-anchor="middle" x="204.5" y="-463.5" font-family="Helvetica,sans-Serif" font-size="10.00" fill="#000000">AxiLiteAsyncTb</text>
</a>
</g>
</g>
<!-- Node0&#45;&gt;Node1 -->
<g id="edge1" class="edge">
<title>Node0&#45;&gt;Node1</title>
<path fill="none" stroke="#191970" d="M48.3917,-257.8284C53.4521,-299.431 71.1315,-396.1751 129,-447 137.226,-454.2247 147.805,-458.7797 158.4245,-461.6311"/>
<polygon fill="#191970" stroke="#191970" points="51.8439,-257.2002 47.2762,-247.6406 44.8855,-257.9622 51.8439,-257.2002"/>
</g>
<!-- Node2 -->
<g id="node3" class="node">
<title>Node2</title>
<g id="a_node3"><a xlink:href="classAxiStreamDma.html" target="_top" xlink:title="AxiStreamDma">
<polygon fill="#ffffff" stroke="#000000" points="159,-418.5 159,-437.5 250,-437.5 250,-418.5 159,-418.5"/>
<text text-anchor="middle" x="204.5" y="-425.5" font-family="Helvetica,sans-Serif" font-size="10.00" fill="#000000">AxiStreamDma</text>
</a>
</g>
</g>
<!-- Node0&#45;&gt;Node2 -->
<g id="edge2" class="edge">
<title>Node0&#45;&gt;Node2</title>
<path fill="none" stroke="#191970" d="M50.28,-257.614C58.2272,-293.3768 80.1253,-369.1599 129,-409 137.4861,-415.9174 148.1606,-420.3595 158.7891,-423.2002"/>
<polygon fill="#191970" stroke="#191970" points="53.64,-256.5809 48.1734,-247.5052 46.7872,-258.009 53.64,-256.5809"/>
</g>
<!-- Node3 -->
<g id="node4" class="node">
<title>Node3</title>
<g id="a_node4"><a xlink:href="classAxiStreamDmaRingWrite.html" target="_top" xlink:title="AxiStreamDmaRingWrite">
<polygon fill="#ffffff" stroke="#000000" points="135.5,-380.5 135.5,-399.5 273.5,-399.5 273.5,-380.5 135.5,-380.5"/>
<text text-anchor="middle" x="204.5" y="-387.5" font-family="Helvetica,sans-Serif" font-size="10.00" fill="#000000">AxiStreamDmaRingWrite</text>
</a>
</g>
</g>
<!-- Node0&#45;&gt;Node3 -->
<g id="edge3" class="edge">
<title>Node0&#45;&gt;Node3</title>
<path fill="none" stroke="#191970" d="M53.0815,-257.3221C64.0606,-286.5604 88.9449,-341.7302 129,-371 134.3474,-374.9076 140.4138,-378.0154 146.7281,-380.4864"/>
<polygon fill="#191970" stroke="#191970" points="56.3416,-256.0445 49.6634,-247.8194 49.7547,-258.4139 56.3416,-256.0445"/>
</g>
<!-- Node4 -->
<g id="node5" class="node">
<title>Node4</title>
<g id="a_node5"><a xlink:href="classClinkTop.html" target="_top" xlink:title="ClinkTop">
<polygon fill="#ffffff" stroke="#000000" points="175.5,-342.5 175.5,-361.5 233.5,-361.5 233.5,-342.5 175.5,-342.5"/>
<text text-anchor="middle" x="204.5" y="-349.5" font-family="Helvetica,sans-Serif" font-size="10.00" fill="#000000">ClinkTop</text>
</a>
</g>
</g>
<!-- Node0&#45;&gt;Node4 -->
<g id="edge4" class="edge">
<title>Node0&#45;&gt;Node4</title>
<path fill="none" stroke="#191970" d="M57.2855,-256.0966C71.1387,-277.7349 97.2266,-313.4705 129,-333 142.9332,-341.564 160.5622,-346.2771 175.2806,-348.8662"/>
<polygon fill="#191970" stroke="#191970" points="60.2069,-254.1664 51.9603,-247.5147 54.2589,-257.8572 60.2069,-254.1664"/>
</g>
<!-- Node5 -->
<g id="node6" class="node">
<title>Node5</title>
<g id="a_node6"><a xlink:href="classPgp2bGtp7FixedLatWrapper.html" target="_top" xlink:title="Pgp2bGtp7FixedLatWrapper">
<polygon fill="#ffffff" stroke="#000000" points="129,-304.5 129,-323.5 280,-323.5 280,-304.5 129,-304.5"/>
<text text-anchor="middle" x="204.5" y="-311.5" font-family="Helvetica,sans-Serif" font-size="10.00" fill="#000000">Pgp2bGtp7FixedLatWrapper</text>
</a>
</g>
</g>
<!-- Node0&#45;&gt;Node5 -->
<g id="edge5" class="edge">
<title>Node0&#45;&gt;Node5</title>
<path fill="none" stroke="#191970" d="M65.4689,-254.0659C81.4642,-266.8565 105.4535,-284.3272 129,-295 137.3713,-298.7944 146.6224,-301.9136 155.6952,-304.4486"/>
<polygon fill="#191970" stroke="#191970" points="67.4152,-251.1362 57.4587,-247.5144 62.9835,-256.5547 67.4152,-251.1362"/>
</g>
<!-- Node6 -->
<g id="node7" class="node">
<title>Node6</title>
<g id="a_node7"><a xlink:href="classPgp3GthUs.html" target="_top" xlink:title="Pgp3GthUs">
<polygon fill="#ffffff" stroke="#000000" points="169,-266.5 169,-285.5 240,-285.5 240,-266.5 169,-266.5"/>
<text text-anchor="middle" x="204.5" y="-273.5" font-family="Helvetica,sans-Serif" font-size="10.00" fill="#000000">Pgp3GthUs</text>
</a>
</g>
</g>
<!-- Node0&#45;&gt;Node6 -->
<g id="edge6" class="edge">
<title>Node0&#45;&gt;Node6</title>
<path fill="none" stroke="#191970" d="M96.2093,-249.9554C119.8182,-255.6335 147.4929,-262.2894 168.9556,-267.4513"/>
<polygon fill="#191970" stroke="#191970" points="96.9113,-246.5245 86.3701,-247.589 95.2744,-253.3304 96.9113,-246.5245"/>
</g>
<!-- Node7 -->
<g id="node8" class="node">
<title>Node7</title>
<g id="a_node8"><a xlink:href="classPgp3GthUsWrapper.html" target="_top" xlink:title="Pgp3GthUsWrapper">
<polygon fill="#ffffff" stroke="#000000" points="316,-237.5 316,-256.5 427,-256.5 427,-237.5 316,-237.5"/>
<text text-anchor="middle" x="371.5" y="-244.5" font-family="Helvetica,sans-Serif" font-size="10.00" fill="#000000">Pgp3GthUsWrapper</text>
</a>
</g>
</g>
<!-- Node0&#45;&gt;Node7 -->
<g id="edge8" class="edge">
<title>Node0&#45;&gt;Node7</title>
<path fill="none" stroke="#191970" d="M103.0772,-239.5668C162.8018,-241.2207 256.3545,-243.8114 315.7604,-245.4564"/>
<polygon fill="#191970" stroke="#191970" points="103.1577,-236.0677 93.0646,-239.2895 102.9638,-243.0651 103.1577,-236.0677"/>
</g>
<!-- Node8 -->
<g id="node9" class="node">
<title>Node8</title>
<g id="a_node9"><a xlink:href="classPgp3Gtp7.html" target="_top" xlink:title="Pgp3Gtp7">
<polygon fill="#ffffff" stroke="#000000" points="172.5,-190.5 172.5,-209.5 236.5,-209.5 236.5,-190.5 172.5,-190.5"/>
<text text-anchor="middle" x="204.5" y="-197.5" font-family="Helvetica,sans-Serif" font-size="10.00" fill="#000000">Pgp3Gtp7</text>
</a>
</g>
</g>
<!-- Node0&#45;&gt;Node8 -->
<g id="edge9" class="edge">
<title>Node0&#45;&gt;Node8</title>
<path fill="none" stroke="#191970" d="M96.3515,-226.0104C121.1919,-220.0361 150.5042,-212.9863 172.3419,-207.7342"/>
<polygon fill="#191970" stroke="#191970" points="95.2744,-222.6696 86.3701,-228.411 96.9113,-229.4755 95.2744,-222.6696"/>
</g>
<!-- Node9 -->
<g id="node10" class="node">
<title>Node9</title>
<g id="a_node10"><a xlink:href="classPgp3Gtp7Wrapper.html" target="_top" xlink:title="Pgp3Gtp7Wrapper">
<polygon fill="#ffffff" stroke="#000000" points="319.5,-180.5 319.5,-199.5 423.5,-199.5 423.5,-180.5 319.5,-180.5"/>
<text text-anchor="middle" x="371.5" y="-187.5" font-family="Helvetica,sans-Serif" font-size="10.00" fill="#000000">Pgp3Gtp7Wrapper</text>
</a>
</g>
</g>
<!-- Node0&#45;&gt;Node9 -->
<g id="edge12" class="edge">
<title>Node0&#45;&gt;Node9</title>
<path fill="none" stroke="#191970" d="M63.8154,-221.2881C79.4304,-207.465 103.759,-188.8716 129,-181 197.3728,-159.6774 281.8754,-170.6427 330.9344,-180.4163"/>
<polygon fill="#191970" stroke="#191970" points="61.0894,-219.0392 56.0864,-228.3785 65.8214,-224.1975 61.0894,-219.0392"/>
</g>
<!-- Node11 -->
<g id="node12" class="node">
<title>Node11</title>
<g id="a_node12"><a xlink:href="classPgp3Gtx7.html" target="_top" xlink:title="Pgp3Gtx7">
<polygon fill="#ffffff" stroke="#000000" points="172.5,-114.5 172.5,-133.5 236.5,-133.5 236.5,-114.5 172.5,-114.5"/>
<text text-anchor="middle" x="204.5" y="-121.5" font-family="Helvetica,sans-Serif" font-size="10.00" fill="#000000">Pgp3Gtx7</text>
</a>
</g>
</g>
<!-- Node0&#45;&gt;Node11 -->
<g id="edge13" class="edge">
<title>Node0&#45;&gt;Node11</title>
<path fill="none" stroke="#191970" d="M58.5679,-219.9717C73.0338,-199.6895 99.1007,-167.0935 129,-148 142.0989,-139.6351 158.3443,-133.9787 172.4063,-130.2695"/>
<polygon fill="#191970" stroke="#191970" points="55.5924,-218.1204 52.7657,-228.3313 61.343,-222.1118 55.5924,-218.1204"/>
</g>
<!-- Node12 -->
<g id="node13" class="node">
<title>Node12</title>
<g id="a_node13"><a xlink:href="classPgp3Gtx7Wrapper.html" target="_top" xlink:title="Pgp3Gtx7Wrapper">
<polygon fill="#ffffff" stroke="#000000" points="319.5,-95.5 319.5,-114.5 423.5,-114.5 423.5,-95.5 319.5,-95.5"/>
<text text-anchor="middle" x="371.5" y="-102.5" font-family="Helvetica,sans-Serif" font-size="10.00" fill="#000000">Pgp3Gtx7Wrapper</text>
</a>
</g>
</g>
<!-- Node0&#45;&gt;Node12 -->
<g id="edge15" class="edge">
<title>Node0&#45;&gt;Node12</title>
<path fill="none" stroke="#191970" d="M51.9825,-218.3051C61.7143,-187.6097 85.227,-129.358 129,-105 195.5871,-67.9467 289.24,-83.2891 338.3995,-95.4591"/>
<polygon fill="#191970" stroke="#191970" points="48.5194,-217.6698 49.0086,-228.2533 55.2262,-219.6748 48.5194,-217.6698"/>
</g>
<!-- Node13 -->
<g id="node14" class="node">
<title>Node13</title>
<g id="a_node14"><a xlink:href="classPgpEthAxiL.html" target="_top" xlink:title="PgpEthAxiL">
<polygon fill="#ffffff" stroke="#000000" points="169,-38.5 169,-57.5 240,-57.5 240,-38.5 169,-38.5"/>
<text text-anchor="middle" x="204.5" y="-45.5" font-family="Helvetica,sans-Serif" font-size="10.00" fill="#000000">PgpEthAxiL</text>
</a>
</g>
</g>
<!-- Node0&#45;&gt;Node13 -->
<g id="edge16" class="edge">
<title>Node0&#45;&gt;Node13</title>
<path fill="none" stroke="#191970" d="M50.9366,-218.2459C59.7409,-183.574 82.6999,-111.6893 129,-72 140.1734,-62.422 155.1962,-56.6578 168.8986,-53.1927"/>
<polygon fill="#191970" stroke="#191970" points="47.5004,-217.5661 48.5638,-228.1074 54.3061,-219.2037 47.5004,-217.5661"/>
</g>
<!-- Node18 -->
<g id="node19" class="node">
<title>Node18</title>
<g id="a_node19"><a xlink:href="classRssiCoreTb.html" target="_top" xlink:title="RssiCoreTb">
<polygon fill="#ffffff" stroke="#000000" points="169,-.5 169,-19.5 240,-19.5 240,-.5 169,-.5"/>
<text text-anchor="middle" x="204.5" y="-7.5" font-family="Helvetica,sans-Serif" font-size="10.00" fill="#000000">RssiCoreTb</text>
</a>
</g>
</g>
<!-- Node0&#45;&gt;Node18 -->
<g id="edge21" class="edge">
<title>Node0&#45;&gt;Node18</title>
<path fill="none" stroke="#191970" d="M48.3917,-218.1716C53.4521,-176.569 71.1315,-79.8249 129,-29 139.968,-19.367 155.1191,-14.4803 168.9718,-12.0496"/>
<polygon fill="#191970" stroke="#191970" points="44.8855,-218.0378 47.2762,-228.3594 51.8439,-218.7998 44.8855,-218.0378"/>
</g>
<!-- Node6&#45;&gt;Node7 -->
<g id="edge7" class="edge">
<title>Node6&#45;&gt;Node7</title>
<path fill="none" stroke="#191970" d="M250.3593,-268.0364C270.8664,-264.4753 295.2041,-260.249 316.6662,-256.522"/>
<polygon fill="#191970" stroke="#191970" points="249.5794,-264.6194 240.3257,-269.7788 250.7771,-271.5162 249.5794,-264.6194"/>
</g>
<!-- Node8&#45;&gt;Node9 -->
<g id="edge10" class="edge">
<title>Node8&#45;&gt;Node9</title>
<path fill="none" stroke="#191970" d="M246.7585,-197.4696C268.8177,-196.1486 296.0047,-194.5207 319.3614,-193.1221"/>
<polygon fill="#191970" stroke="#191970" points="246.4722,-193.9803 236.6993,-198.0719 246.8906,-200.9678 246.4722,-193.9803"/>
</g>
<!-- Node10 -->
<g id="node11" class="node">
<title>Node10</title>
<g id="a_node11"><a xlink:href="classPgp3Gtp7Tb.html" target="_top" xlink:title="Pgp3Gtp7Tb">
<polygon fill="#ffffff" stroke="#000000" points="472.5,-180.5 472.5,-199.5 548.5,-199.5 548.5,-180.5 472.5,-180.5"/>
<text text-anchor="middle" x="510.5" y="-187.5" font-family="Helvetica,sans-Serif" font-size="10.00" fill="#000000">Pgp3Gtp7Tb</text>
</a>
</g>
</g>
<!-- Node9&#45;&gt;Node10 -->
<g id="edge11" class="edge">
<title>Node9&#45;&gt;Node10</title>
<path fill="none" stroke="#191970" d="M434.0341,-190C447.1108,-190 460.5197,-190 472.3841,-190"/>
<polygon fill="#191970" stroke="#191970" points="433.654,-186.5001 423.6539,-190 433.6539,-193.5001 433.654,-186.5001"/>
</g>
<!-- Node11&#45;&gt;Node12 -->
<g id="edge14" class="edge">
<title>Node11&#45;&gt;Node12</title>
<path fill="none" stroke="#191970" d="M246.7585,-119.1921C268.8177,-116.6824 296.0047,-113.5893 319.3614,-110.9319"/>
<polygon fill="#191970" stroke="#191970" points="246.2395,-115.7285 236.6993,-120.3366 247.0309,-122.6837 246.2395,-115.7285"/>
</g>
<!-- Node14 -->
<g id="node15" class="node">
<title>Node14</title>
<g id="a_node15"><a xlink:href="classPgpEthCore.html" target="_top" xlink:title="PgpEthCore">
<polygon fill="#ffffff" stroke="#000000" points="335,-38.5 335,-57.5 408,-57.5 408,-38.5 335,-38.5"/>
<text text-anchor="middle" x="371.5" y="-45.5" font-family="Helvetica,sans-Serif" font-size="10.00" fill="#000000">PgpEthCore</text>
</a>
</g>
</g>
<!-- Node13&#45;&gt;Node14 -->
<g id="edge17" class="edge">
<title>Node13&#45;&gt;Node14</title>
<path fill="none" stroke="#191970" d="M250.5362,-48C277.109,-48 310.0678,-48 334.8681,-48"/>
<polygon fill="#191970" stroke="#191970" points="250.3257,-44.5001 240.3257,-48 250.3257,-51.5001 250.3257,-44.5001"/>
</g>
<!-- Node15 -->
<g id="node16" class="node">
<title>Node15</title>
<g id="a_node16"><a xlink:href="classPgpEthCaui4Gty.html" target="_top" xlink:title="PgpEthCaui4Gty">
<polygon fill="#ffffff" stroke="#000000" points="463,-57.5 463,-76.5 558,-76.5 558,-57.5 463,-57.5"/>
<text text-anchor="middle" x="510.5" y="-64.5" font-family="Helvetica,sans-Serif" font-size="10.00" fill="#000000">PgpEthCaui4Gty</text>
</a>
</g>
</g>
<!-- Node14&#45;&gt;Node15 -->
<g id="edge18" class="edge">
<title>Node14&#45;&gt;Node15</title>
<path fill="none" stroke="#191970" d="M418.2132,-54.3853C432.6244,-56.3551 448.5054,-58.5259 462.9709,-60.5032"/>
<polygon fill="#191970" stroke="#191970" points="418.4025,-50.8787 408.0206,-52.992 417.4544,-57.8142 418.4025,-50.8787"/>
</g>
<!-- Node17 -->
<g id="node18" class="node">
<title>Node17</title>
<g id="a_node18"><a xlink:href="classPgpEthCoreTb.html" target="_top" xlink:title="PgpEthCoreTb">
<polygon fill="#ffffff" stroke="#000000" points="468,-19.5 468,-38.5 553,-38.5 553,-19.5 468,-19.5"/>
<text text-anchor="middle" x="510.5" y="-26.5" font-family="Helvetica,sans-Serif" font-size="10.00" fill="#000000">PgpEthCoreTb</text>
</a>
</g>
</g>
<!-- Node14&#45;&gt;Node17 -->
<g id="edge20" class="edge">
<title>Node14&#45;&gt;Node17</title>
<path fill="none" stroke="#191970" d="M418.2513,-41.6095C434.2808,-39.4185 452.1249,-36.9793 467.8153,-34.8346"/>
<polygon fill="#191970" stroke="#191970" points="417.4544,-38.1858 408.0206,-43.008 418.4025,-45.1213 417.4544,-38.1858"/>
</g>
<!-- Node16 -->
<g id="node17" class="node">
<title>Node16</title>
<g id="a_node17"><a xlink:href="classPgpEthCaui4GtyTb.html" target="_top" xlink:title="PgpEthCaui4GtyTb">
<polygon fill="#ffffff" stroke="#000000" points="594,-57.5 594,-76.5 701,-76.5 701,-57.5 594,-57.5"/>
<text text-anchor="middle" x="647.5" y="-64.5" font-family="Helvetica,sans-Serif" font-size="10.00" fill="#000000">PgpEthCaui4GtyTb</text>
</a>
</g>
</g>
<!-- Node15&#45;&gt;Node16 -->
<g id="edge19" class="edge">
<title>Node15&#45;&gt;Node16</title>
<path fill="none" stroke="#191970" d="M568.27,-67C576.786,-67 585.5288,-67 593.9544,-67"/>
<polygon fill="#191970" stroke="#191970" points="568.0315,-63.5001 558.0315,-67 568.0314,-70.5001 568.0315,-63.5001"/>
</g>
</g>
</svg>
        <g id="navigator" transform="translate(0 0)" fill="#404254">
                <rect fill="#f2f5e9" fill-opacity="0.5" stroke="#606060" stroke-width=".5" x="0" y="0" width="60" height="60"/>
                <use id="zoomplus" xlink:href="#zoomPlus" x="17" y="9" onmousedown="handleZoom(evt,'in')"/>
                <use id="zoomminus" xlink:href="#zoomMin" x="42" y="9" onmousedown="handleZoom(evt,'out')"/>
                <use id="reset" xlink:href="#resetDef" x="30" y="36" onmousedown="handleReset()"/>
                <g id="arrowUp" xlink:href="#dirArrow" transform="translate(30 24)" onmousedown="handlePan(0,-1)">
                  <use xlink:href="#rim" fill="#404040">
                        <set attributeName="fill" to="#808080" begin="arrowUp.mouseover" end="arrowUp.mouseout"/>
                  </use>
                  <path fill="none" stroke="white" stroke-width="1.5" d="M0,-3.0v7 M-2.5,-0.5L0,-3.0L2.5,-0.5"/>
                </g>
                <g id="arrowRight" xlink:href="#dirArrow" transform="rotate(90) translate(36 -43)" onmousedown="handlePan(1,0)">
                  <use xlink:href="#rim" fill="#404040">
                        <set attributeName="fill" to="#808080" begin="arrowRight.mouseover" end="arrowRight.mouseout"/>
                  </use>
                  <path fill="none" stroke="white" stroke-width="1.5" d="M0,-3.0v7 M-2.5,-0.5L0,-3.0L2.5,-0.5"/>
                </g>
                <g id="arrowDown" xlink:href="#dirArrow" transform="rotate(180) translate(-30 -48)" onmousedown="handlePan(0,1)">
                  <use xlink:href="#rim" fill="#404040">
                        <set attributeName="fill" to="#808080" begin="arrowDown.mouseover" end="arrowDown.mouseout"/>
                  </use>
                  <path fill="none" stroke="white" stroke-width="1.5" d="M0,-3.0v7 M-2.5,-0.5L0,-3.0L2.5,-0.5"/>
                </g>
                <g id="arrowLeft" xlink:href="#dirArrow" transform="rotate(270) translate(-36 17)" onmousedown="handlePan(-1,0)">
                  <use xlink:href="#rim" fill="#404040">
                        <set attributeName="fill" to="#808080" begin="arrowLeft.mouseover" end="arrowLeft.mouseout"/>
                  </use>
                  <path fill="none" stroke="white" stroke-width="1.5" d="M0,-3.0v7 M-2.5,-0.5L0,-3.0L2.5,-0.5"/>
                </g>
        </g>
        <svg viewBox="0 0 15 15" width="100%" height="30px" preserveAspectRatio="xMaxYMin meet">
         <g id="arrow_out" transform="scale(0.3 0.3)">
          <a xlink:href="classAxiLiteCrossbar__inherit__graph_org.svg" target="_base">
           <rect id="button" ry="5" rx="5" y="6" x="6" height="38" width="38"
                fill="#f2f5e9" fill-opacity="0.5" stroke="#606060" stroke-width="1.0"/>
           <path id="arrow"
             d="M 11.500037,31.436501 C 11.940474,20.09759 22.043105,11.32322 32.158766,21.979434 L 37.068811,17.246167 C 37.068811,17.246167 37.088388,32 37.088388,32 L 22.160133,31.978069 C 22.160133,31.978069 26.997745,27.140456 26.997745,27.140456 C 18.528582,18.264221 13.291696,25.230495 11.500037,31.436501 z"
             style="fill:#404040;"/>
          </a>
         </g>
        </svg>
</svg>
