<?xml version="1.0" encoding="UTF-8" standalone="no"?>
<!DOCTYPE svg PUBLIC "-//W3C//DTD SVG 1.1//EN"
 "http://www.w3.org/Graphics/SVG/1.1/DTD/svg11.dtd">
<!-- Generated by graphviz version 2.40.1 (20161225.0304)
 -->
<!-- Title: AxiLiteSaciMaster Pages: 1 -->
<svg width="124pt" height="196pt"
 viewBox="0.00 0.00 124.00 196.00" xmlns="http://www.w3.org/2000/svg" xmlns:xlink="http://www.w3.org/1999/xlink">
<g id="graph0" class="graph" transform="scale(1 1) rotate(0) translate(4 192)">
<title>AxiLiteSaciMaster</title>
<polygon fill="#ffffff" stroke="transparent" points="-4,4 -4,-192 120,-192 120,4 -4,4"/>
<!-- Node0 -->
<g id="node1" class="node">
<title>Node0</title>
<polygon fill="#bfbfbf" stroke="#000000" points="6,-56.5 6,-75.5 110,-75.5 110,-56.5 6,-56.5"/>
<text text-anchor="middle" x="58" y="-63.5" font-family="Helvetica,sans-Serif" font-size="10.00" fill="#000000">AxiLiteSaciMaster</text>
</g>
<!-- Node3 -->
<g id="node4" class="node">
<title>Node3</title>
<g id="a_node4"><a xlink:href="classAxiLiteSaciMasterTb.html" target="_top" xlink:title="AxiLiteSaciMasterTb">
<polygon fill="#ffffff" stroke="#000000" points="0,-.5 0,-19.5 116,-19.5 116,-.5 0,-.5"/>
<text text-anchor="middle" x="58" y="-7.5" font-family="Helvetica,sans-Serif" font-size="10.00" fill="#000000">AxiLiteSaciMasterTb</text>
</a>
</g>
</g>
<!-- Node0&#45;&gt;Node3 -->
<g id="edge3" class="edge">
<title>Node0&#45;&gt;Node3</title>
<path fill="none" stroke="#191970" d="M58,-46.1575C58,-37.155 58,-26.9199 58,-19.6427"/>
<polygon fill="#191970" stroke="#191970" points="54.5001,-46.2455 58,-56.2455 61.5001,-46.2456 54.5001,-46.2455"/>
</g>
<!-- Node1 -->
<g id="node2" class="node">
<title>Node1</title>
<g id="a_node2"><a xlink:href="classSaciMaster2.html" target="_top" xlink:title="SaciMaster2">
<polygon fill="#ffffff" stroke="#000000" points="20,-112.5 20,-131.5 96,-131.5 96,-112.5 20,-112.5"/>
<text text-anchor="middle" x="58" y="-119.5" font-family="Helvetica,sans-Serif" font-size="10.00" fill="#000000">SaciMaster2</text>
</a>
</g>
</g>
<!-- Node1&#45;&gt;Node0 -->
<g id="edge1" class="edge">
<title>Node1&#45;&gt;Node0</title>
<path fill="none" stroke="#191970" d="M58,-102.1575C58,-93.155 58,-82.9199 58,-75.6427"/>
<polygon fill="#191970" stroke="#191970" points="54.5001,-102.2455 58,-112.2455 61.5001,-102.2456 54.5001,-102.2455"/>
</g>
<!-- Node2 -->
<g id="node3" class="node">
<title>Node2</title>
<g id="a_node3"><a xlink:href="classSynchronizer.html" target="_top" xlink:title="Synchronizer">
<polygon fill="#ffffff" stroke="#000000" points="18,-168.5 18,-187.5 98,-187.5 98,-168.5 18,-168.5"/>
<text text-anchor="middle" x="58" y="-175.5" font-family="Helvetica,sans-Serif" font-size="10.00" fill="#000000">Synchronizer</text>
</a>
</g>
</g>
<!-- Node2&#45;&gt;Node1 -->
<g id="edge2" class="edge">
<title>Node2&#45;&gt;Node1</title>
<path fill="none" stroke="#191970" d="M58,-158.1575C58,-149.155 58,-138.9199 58,-131.6427"/>
<polygon fill="#191970" stroke="#191970" points="54.5001,-158.2455 58,-168.2455 61.5001,-158.2456 54.5001,-158.2455"/>
</g>
</g>
</svg>
