<?xml version="1.0" encoding="UTF-8" standalone="no"?>
<!DOCTYPE svg PUBLIC "-//W3C//DTD SVG 1.1//EN"
 "http://www.w3.org/Graphics/SVG/1.1/DTD/svg11.dtd">
<!-- Generated by graphviz version 2.40.1 (20161225.0304)
 -->
<!-- Title: i2cRamSlave Pages: 1 -->
<svg width="88pt" height="140pt"
 viewBox="0.00 0.00 88.00 140.00" xmlns="http://www.w3.org/2000/svg" xmlns:xlink="http://www.w3.org/1999/xlink">
<g id="graph0" class="graph" transform="scale(1 1) rotate(0) translate(4 136)">
<title>i2cRamSlave</title>
<polygon fill="#ffffff" stroke="transparent" points="-4,4 -4,-136 84,-136 84,4 -4,4"/>
<!-- Node4 -->
<g id="node1" class="node">
<title>Node4</title>
<polygon fill="#bfbfbf" stroke="#000000" points="0,-.5 0,-19.5 80,-19.5 80,-.5 0,-.5"/>
<text text-anchor="middle" x="40" y="-7.5" font-family="Helvetica,sans-Serif" font-size="10.00" fill="#000000">i2cRamSlave</text>
</g>
<!-- Node5 -->
<g id="node2" class="node">
<title>Node5</title>
<g id="a_node2"><a xlink:href="classI2cRegSlave.html" target="_top" xlink:title="I2cRegSlave">
<polygon fill="#ffffff" stroke="#000000" points="2,-56.5 2,-75.5 78,-75.5 78,-56.5 2,-56.5"/>
<text text-anchor="middle" x="40" y="-63.5" font-family="Helvetica,sans-Serif" font-size="10.00" fill="#000000">I2cRegSlave</text>
</a>
</g>
</g>
<!-- Node5&#45;&gt;Node4 -->
<g id="edge1" class="edge">
<title>Node5&#45;&gt;Node4</title>
<path fill="none" stroke="#191970" d="M40,-46.1575C40,-37.155 40,-26.9199 40,-19.6427"/>
<polygon fill="#191970" stroke="#191970" points="36.5001,-46.2455 40,-56.2455 43.5001,-46.2456 36.5001,-46.2455"/>
</g>
<!-- Node6 -->
<g id="node3" class="node">
<title>Node6</title>
<g id="a_node3"><a xlink:href="classI2cSlave.html" target="_top" xlink:title="I2cSlave">
<polygon fill="#ffffff" stroke="#000000" points="11,-112.5 11,-131.5 69,-131.5 69,-112.5 11,-112.5"/>
<text text-anchor="middle" x="40" y="-119.5" font-family="Helvetica,sans-Serif" font-size="10.00" fill="#000000">I2cSlave</text>
</a>
</g>
</g>
<!-- Node6&#45;&gt;Node5 -->
<g id="edge2" class="edge">
<title>Node6&#45;&gt;Node5</title>
<path fill="none" stroke="#191970" d="M40,-102.1575C40,-93.155 40,-82.9199 40,-75.6427"/>
<polygon fill="#191970" stroke="#191970" points="36.5001,-102.2455 40,-112.2455 43.5001,-102.2456 36.5001,-102.2455"/>
</g>
</g>
</svg>
