<?xml version="1.0" encoding="UTF-8" standalone="no"?>
<!DOCTYPE svg PUBLIC "-//W3C//DTD SVG 1.1//EN"
 "http://www.w3.org/Graphics/SVG/1.1/DTD/svg11.dtd">
<!-- Generated by graphviz version 2.43.0 (0)
 -->
<!-- Title: AsyncGearbox Pages: 1 -->
<svg width="845pt" height="332pt"
 viewBox="0.00 0.00 845.00 332.00" xmlns="http://www.w3.org/2000/svg" xmlns:xlink="http://www.w3.org/1999/xlink">
<g id="graph0" class="graph" transform="scale(1 1) rotate(0) translate(4 328)">
<title>AsyncGearbox</title>
<polygon fill="white" stroke="transparent" points="-4,4 -4,-328 841,-328 841,4 -4,4"/>
<!-- Node1 -->
<g id="node1" class="node">
<title>Node1</title>
<g id="a_node1"><a xlink:title=" ">
<polygon fill="#bfbfbf" stroke="black" points="433,-180.5 433,-199.5 520,-199.5 520,-180.5 433,-180.5"/>
<text text-anchor="middle" x="476.5" y="-187.5" font-family="Helvetica,sans-Serif" font-size="10.00">AsyncGearbox</text>
</a>
</g>
</g>
<!-- Node15 -->
<g id="node15" class="node">
<title>Node15</title>
<g id="a_node15"><a xlink:href="classClinkDataShift.html" target="_top" xlink:title=" ">
<polygon fill="white" stroke="black" points="556,-180.5 556,-199.5 642,-199.5 642,-180.5 556,-180.5"/>
<text text-anchor="middle" x="599" y="-187.5" font-family="Helvetica,sans-Serif" font-size="10.00">ClinkDataShift</text>
</a>
</g>
</g>
<!-- Node1&#45;&gt;Node15 -->
<g id="edge17" class="edge">
<title>Node1&#45;&gt;Node15</title>
<path fill="none" stroke="midnightblue" d="M530.48,-190C538.93,-190 547.57,-190 555.72,-190"/>
<polygon fill="midnightblue" stroke="midnightblue" points="530.32,-186.5 520.32,-190 530.32,-193.5 530.32,-186.5"/>
</g>
<!-- Node2 -->
<g id="node2" class="node">
<title>Node2</title>
<g id="a_node2"><a xlink:href="classSynchronizerOneShot.html" target="_top" xlink:title=" ">
<polygon fill="white" stroke="black" points="276,-266.5 276,-285.5 397,-285.5 397,-266.5 276,-266.5"/>
<text text-anchor="middle" x="336.5" y="-273.5" font-family="Helvetica,sans-Serif" font-size="10.00">SynchronizerOneShot</text>
</a>
</g>
</g>
<!-- Node2&#45;&gt;Node1 -->
<g id="edge1" class="edge">
<title>Node2&#45;&gt;Node1</title>
<path fill="none" stroke="midnightblue" d="M361.31,-261.16C389.65,-243.5 436.16,-214.52 460.14,-199.57"/>
<polygon fill="midnightblue" stroke="midnightblue" points="359.43,-258.21 352.8,-266.47 363.13,-264.15 359.43,-258.21"/>
</g>
<!-- Node3 -->
<g id="node3" class="node">
<title>Node3</title>
<g id="a_node3"><a xlink:href="classRstSync.html" target="_top" xlink:title=" ">
<polygon fill="white" stroke="black" points="150,-304.5 150,-323.5 206,-323.5 206,-304.5 150,-304.5"/>
<text text-anchor="middle" x="178" y="-311.5" font-family="Helvetica,sans-Serif" font-size="10.00">RstSync</text>
</a>
</g>
</g>
<!-- Node3&#45;&gt;Node2 -->
<g id="edge2" class="edge">
<title>Node3&#45;&gt;Node2</title>
<path fill="none" stroke="midnightblue" d="M216.12,-304.99C240.25,-299.13 271.68,-291.5 296.24,-285.53"/>
<polygon fill="midnightblue" stroke="midnightblue" points="215.15,-301.62 206.26,-307.38 216.8,-308.42 215.15,-301.62"/>
</g>
<!-- Node4 -->
<g id="node4" class="node">
<title>Node4</title>
<g id="a_node4"><a xlink:href="classSynchronizer.html" target="_top" xlink:title=" ">
<polygon fill="white" stroke="black" points="0,-266.5 0,-285.5 80,-285.5 80,-266.5 0,-266.5"/>
<text text-anchor="middle" x="40" y="-273.5" font-family="Helvetica,sans-Serif" font-size="10.00">Synchronizer</text>
</a>
</g>
</g>
<!-- Node4&#45;&gt;Node3 -->
<g id="edge3" class="edge">
<title>Node4&#45;&gt;Node3</title>
<path fill="none" stroke="midnightblue" d="M85.16,-288.34C106.52,-294.31 131.48,-301.28 149.98,-306.45"/>
<polygon fill="midnightblue" stroke="midnightblue" points="85.89,-284.91 75.32,-285.59 84.01,-291.65 85.89,-284.91"/>
</g>
<!-- Node5 -->
<g id="node5" class="node">
<title>Node5</title>
<g id="a_node5"><a xlink:href="classSynchronizerEdge.html" target="_top" xlink:title=" ">
<polygon fill="white" stroke="black" points="126,-266.5 126,-285.5 230,-285.5 230,-266.5 126,-266.5"/>
<text text-anchor="middle" x="178" y="-273.5" font-family="Helvetica,sans-Serif" font-size="10.00">SynchronizerEdge</text>
</a>
</g>
</g>
<!-- Node4&#45;&gt;Node5 -->
<g id="edge5" class="edge">
<title>Node4&#45;&gt;Node5</title>
<path fill="none" stroke="midnightblue" d="M90.56,-276C101.96,-276 114.11,-276 125.59,-276"/>
<polygon fill="midnightblue" stroke="midnightblue" points="90.34,-272.5 80.34,-276 90.34,-279.5 90.34,-272.5"/>
</g>
<!-- Node8 -->
<g id="node8" class="node">
<title>Node8</title>
<g id="a_node8"><a xlink:href="classRstSync.html" target="_top" xlink:title=" ">
<polygon fill="white" stroke="black" points="143.5,-190.5 143.5,-209.5 212.5,-209.5 212.5,-190.5 143.5,-190.5"/>
<text text-anchor="middle" x="178" y="-197.5" font-family="Helvetica,sans-Serif" font-size="10.00">RstSync(2)</text>
</a>
</g>
</g>
<!-- Node4&#45;&gt;Node8 -->
<g id="edge9" class="edge">
<title>Node4&#45;&gt;Node8</title>
<path fill="none" stroke="midnightblue" d="M59.05,-259.39C73.53,-246.81 94.86,-229.9 116,-219 124.48,-214.63 134.15,-211.05 143.24,-208.23"/>
<polygon fill="midnightblue" stroke="midnightblue" points="56.52,-256.96 51.37,-266.21 61.17,-262.19 56.52,-256.96"/>
</g>
<!-- Node5&#45;&gt;Node2 -->
<g id="edge4" class="edge">
<title>Node5&#45;&gt;Node2</title>
<path fill="none" stroke="midnightblue" d="M240.37,-276C252.09,-276 264.33,-276 275.99,-276"/>
<polygon fill="midnightblue" stroke="midnightblue" points="240.24,-272.5 230.24,-276 240.24,-279.5 240.24,-272.5"/>
</g>
<!-- Node6 -->
<g id="node6" class="node">
<title>Node6</title>
<g id="a_node6"><a xlink:href="classSynchronizer.html" target="_top" xlink:title=" ">
<polygon fill="white" stroke="black" points="131.5,-228.5 131.5,-247.5 224.5,-247.5 224.5,-228.5 131.5,-228.5"/>
<text text-anchor="middle" x="178" y="-235.5" font-family="Helvetica,sans-Serif" font-size="10.00">Synchronizer(2)</text>
</a>
</g>
</g>
<!-- Node6&#45;&gt;Node1 -->
<g id="edge6" class="edge">
<title>Node6&#45;&gt;Node1</title>
<path fill="none" stroke="midnightblue" d="M234.67,-228.99C292.11,-219.69 380.45,-205.39 432.66,-196.94"/>
<polygon fill="midnightblue" stroke="midnightblue" points="233.99,-225.55 224.68,-230.61 235.11,-232.46 233.99,-225.55"/>
</g>
<!-- Node7 -->
<g id="node7" class="node">
<title>Node7</title>
<g id="a_node7"><a xlink:href="classFifoAsync.html" target="_top" xlink:title=" ">
<polygon fill="white" stroke="black" points="298,-152.5 298,-171.5 375,-171.5 375,-152.5 298,-152.5"/>
<text text-anchor="middle" x="336.5" y="-159.5" font-family="Helvetica,sans-Serif" font-size="10.00">FifoAsync(2)</text>
</a>
</g>
</g>
<!-- Node6&#45;&gt;Node7 -->
<g id="edge11" class="edge">
<title>Node6&#45;&gt;Node7</title>
<path fill="none" stroke="midnightblue" d="M224.29,-225.21C229.66,-223.31 235,-221.23 240,-219 270.68,-205.3 303.77,-183.89 321.82,-171.58"/>
<polygon fill="midnightblue" stroke="midnightblue" points="223.05,-221.94 214.68,-228.44 225.28,-228.57 223.05,-221.94"/>
</g>
<!-- Node7&#45;&gt;Node1 -->
<g id="edge7" class="edge">
<title>Node7&#45;&gt;Node1</title>
<path fill="none" stroke="midnightblue" d="M385.15,-171.67C400.69,-174.82 417.83,-178.3 432.97,-181.37"/>
<polygon fill="midnightblue" stroke="midnightblue" points="385.71,-168.21 375.21,-169.65 384.31,-175.07 385.71,-168.21"/>
</g>
<!-- Node8&#45;&gt;Node7 -->
<g id="edge8" class="edge">
<title>Node8&#45;&gt;Node7</title>
<path fill="none" stroke="midnightblue" d="M222.37,-189.47C246.06,-183.72 275.13,-176.66 297.87,-171.14"/>
<polygon fill="midnightblue" stroke="midnightblue" points="221.46,-186.09 212.57,-191.85 223.12,-192.89 221.46,-186.09"/>
</g>
<!-- Node9 -->
<g id="node9" class="node">
<title>Node9</title>
<g id="a_node9"><a xlink:href="classSynchronizerVector.html" target="_top" xlink:title=" ">
<polygon fill="white" stroke="black" points="116,-152.5 116,-171.5 240,-171.5 240,-152.5 116,-152.5"/>
<text text-anchor="middle" x="178" y="-159.5" font-family="Helvetica,sans-Serif" font-size="10.00">SynchronizerVector(2)</text>
</a>
</g>
</g>
<!-- Node9&#45;&gt;Node7 -->
<g id="edge10" class="edge">
<title>Node9&#45;&gt;Node7</title>
<path fill="none" stroke="midnightblue" d="M250.49,-162C266.8,-162 283.51,-162 297.75,-162"/>
<polygon fill="midnightblue" stroke="midnightblue" points="250.4,-158.5 240.4,-162 250.4,-165.5 250.4,-158.5"/>
</g>
<!-- Node10 -->
<g id="node10" class="node">
<title>Node10</title>
<g id="a_node10"><a xlink:href="classFifoWrFsm.html" target="_top" xlink:title=" ">
<polygon fill="white" stroke="black" points="143.5,-114.5 143.5,-133.5 212.5,-133.5 212.5,-114.5 143.5,-114.5"/>
<text text-anchor="middle" x="178" y="-121.5" font-family="Helvetica,sans-Serif" font-size="10.00">FifoWrFsm</text>
</a>
</g>
</g>
<!-- Node10&#45;&gt;Node7 -->
<g id="edge12" class="edge">
<title>Node10&#45;&gt;Node7</title>
<path fill="none" stroke="midnightblue" d="M222.37,-134.53C246.06,-140.28 275.13,-147.34 297.87,-152.86"/>
<polygon fill="midnightblue" stroke="midnightblue" points="223.12,-131.11 212.57,-132.15 221.46,-137.91 223.12,-131.11"/>
</g>
<!-- Node11 -->
<g id="node11" class="node">
<title>Node11</title>
<g id="a_node11"><a xlink:href="classFifoRdFsm.html" target="_top" xlink:title=" ">
<polygon fill="white" stroke="black" points="144,-76.5 144,-95.5 212,-95.5 212,-76.5 144,-76.5"/>
<text text-anchor="middle" x="178" y="-83.5" font-family="Helvetica,sans-Serif" font-size="10.00">FifoRdFsm</text>
</a>
</g>
</g>
<!-- Node11&#45;&gt;Node7 -->
<g id="edge13" class="edge">
<title>Node11&#45;&gt;Node7</title>
<path fill="none" stroke="midnightblue" d="M222.1,-96.36C228.34,-98.72 234.5,-101.57 240,-105 259.75,-117.3 256.3,-130.63 276,-143 282.61,-147.15 290.21,-150.47 297.72,-153.1"/>
<polygon fill="midnightblue" stroke="midnightblue" points="222.91,-92.94 212.31,-93.04 220.66,-99.57 222.91,-92.94"/>
</g>
<!-- Node12 -->
<g id="node12" class="node">
<title>Node12</title>
<g id="a_node12"><a xlink:href="classSimpleDualPortRam.html" target="_top" xlink:title=" ">
<polygon fill="white" stroke="black" points="120.5,-38.5 120.5,-57.5 235.5,-57.5 235.5,-38.5 120.5,-38.5"/>
<text text-anchor="middle" x="178" y="-45.5" font-family="Helvetica,sans-Serif" font-size="10.00">SimpleDualPortRam</text>
</a>
</g>
</g>
<!-- Node12&#45;&gt;Node7 -->
<g id="edge14" class="edge">
<title>Node12&#45;&gt;Node7</title>
<path fill="none" stroke="midnightblue" d="M233.77,-62.38C235.97,-63.78 238.06,-65.31 240,-67 268.22,-91.51 247.87,-118.39 276,-143 282.2,-148.43 289.97,-152.31 297.82,-155.08"/>
<polygon fill="midnightblue" stroke="midnightblue" points="235.34,-59.24 224.87,-57.62 232.04,-65.42 235.34,-59.24"/>
</g>
<!-- Node13 -->
<g id="node13" class="node">
<title>Node13</title>
<g id="a_node13"><a xlink:href="classFifoOutputPipeline.html" target="_top" xlink:title=" ">
<polygon fill="white" stroke="black" points="124.5,-0.5 124.5,-19.5 231.5,-19.5 231.5,-0.5 124.5,-0.5"/>
<text text-anchor="middle" x="178" y="-7.5" font-family="Helvetica,sans-Serif" font-size="10.00">FifoOutputPipeline</text>
</a>
</g>
</g>
<!-- Node13&#45;&gt;Node7 -->
<g id="edge15" class="edge">
<title>Node13&#45;&gt;Node7</title>
<path fill="none" stroke="midnightblue" d="M235.27,-24.93C236.94,-26.18 238.53,-27.53 240,-29 277.64,-66.5 238.49,-105.37 276,-143 281.97,-148.99 289.83,-153.09 297.87,-155.91"/>
<polygon fill="midnightblue" stroke="midnightblue" points="236.66,-21.68 226.3,-19.51 233.04,-27.67 236.66,-21.68"/>
</g>
<!-- Node14 -->
<g id="node14" class="node">
<title>Node14</title>
<g id="a_node14"><a xlink:href="classGearbox.html" target="_top" xlink:title=" ">
<polygon fill="white" stroke="black" points="307.5,-114.5 307.5,-133.5 365.5,-133.5 365.5,-114.5 307.5,-114.5"/>
<text text-anchor="middle" x="336.5" y="-121.5" font-family="Helvetica,sans-Serif" font-size="10.00">Gearbox</text>
</a>
</g>
</g>
<!-- Node14&#45;&gt;Node1 -->
<g id="edge16" class="edge">
<title>Node14&#45;&gt;Node1</title>
<path fill="none" stroke="midnightblue" d="M375.31,-134.63C382.62,-137.08 390.14,-139.9 397,-143 420.89,-153.79 446.59,-170.2 461.85,-180.5"/>
<polygon fill="midnightblue" stroke="midnightblue" points="376.14,-131.22 365.55,-131.5 374,-137.88 376.14,-131.22"/>
</g>
<!-- Node16 -->
<g id="node16" class="node">
<title>Node16</title>
<g id="a_node16"><a xlink:href="classClinkData.html" target="_top" xlink:title=" ">
<polygon fill="white" stroke="black" points="678,-180.5 678,-199.5 743,-199.5 743,-180.5 678,-180.5"/>
<text text-anchor="middle" x="710.5" y="-187.5" font-family="Helvetica,sans-Serif" font-size="10.00">ClinkData</text>
</a>
</g>
</g>
<!-- Node15&#45;&gt;Node16 -->
<g id="edge18" class="edge">
<title>Node15&#45;&gt;Node16</title>
<path fill="none" stroke="midnightblue" d="M652.25,-190C661.04,-190 669.91,-190 677.97,-190"/>
<polygon fill="midnightblue" stroke="midnightblue" points="652.02,-186.5 642.02,-190 652.02,-193.5 652.02,-186.5"/>
</g>
<!-- Node17 -->
<g id="node17" class="node">
<title>Node17</title>
<g id="a_node17"><a xlink:href="classClinkTop.html" target="_top" xlink:title=" ">
<polygon fill="white" stroke="black" points="779,-180.5 779,-199.5 837,-199.5 837,-180.5 779,-180.5"/>
<text text-anchor="middle" x="808" y="-187.5" font-family="Helvetica,sans-Serif" font-size="10.00">ClinkTop</text>
</a>
</g>
</g>
<!-- Node16&#45;&gt;Node17 -->
<g id="edge19" class="edge">
<title>Node16&#45;&gt;Node17</title>
<path fill="none" stroke="midnightblue" d="M753.3,-190C761.89,-190 770.74,-190 778.72,-190"/>
<polygon fill="midnightblue" stroke="midnightblue" points="753.03,-186.5 743.03,-190 753.03,-193.5 753.03,-186.5"/>
</g>
</g>
</svg>
