<?xml version="1.0" encoding="UTF-8" standalone="no"?>
<!DOCTYPE svg PUBLIC "-//W3C//DTD SVG 1.1//EN"
 "http://www.w3.org/Graphics/SVG/1.1/DTD/svg11.dtd">
<!-- Generated by graphviz version 2.40.1 (20161225.0304)
 -->
<!-- Title: XauiGthUltraScaleWrapper Pages: 1 -->
<svg width="1577pt" height="541pt"
 viewBox="0.00 0.00 1577.00 541.00" xmlns="http://www.w3.org/2000/svg" xmlns:xlink="http://www.w3.org/1999/xlink">
<g id="graph0" class="graph" transform="scale(1 1) rotate(0) translate(4 537)">
<title>XauiGthUltraScaleWrapper</title>
<polygon fill="#ffffff" stroke="transparent" points="-4,4 -4,-537 1573,-537 1573,4 -4,4"/>
<!-- Node61 -->
<g id="node1" class="node">
<title>Node61</title>
<polygon fill="#bfbfbf" stroke="#000000" points="1423,-475.5 1423,-494.5 1569,-494.5 1569,-475.5 1423,-475.5"/>
<text text-anchor="middle" x="1496" y="-482.5" font-family="Helvetica,sans-Serif" font-size="10.00" fill="#000000">XauiGthUltraScaleWrapper</text>
</g>
<!-- Node62 -->
<g id="node2" class="node">
<title>Node62</title>
<g id="a_node2"><a xlink:href="classPwrUpRst.html" target="_top" xlink:title="PwrUpRst(2)">
<polygon fill="#ffffff" stroke="#000000" points="1155,-475.5 1155,-494.5 1232,-494.5 1232,-475.5 1155,-475.5"/>
<text text-anchor="middle" x="1193.5" y="-482.5" font-family="Helvetica,sans-Serif" font-size="10.00" fill="#000000">PwrUpRst(2)</text>
</a>
</g>
</g>
<!-- Node62&#45;&gt;Node61 -->
<g id="edge1" class="edge">
<title>Node62&#45;&gt;Node61</title>
<path fill="none" stroke="#191970" d="M1242.421,-485C1291.2724,-485 1366.9427,-485 1422.9171,-485"/>
<polygon fill="#191970" stroke="#191970" points="1242.1191,-481.5001 1232.1191,-485 1242.1191,-488.5001 1242.1191,-481.5001"/>
</g>
<!-- Node63 -->
<g id="node3" class="node">
<title>Node63</title>
<g id="a_node3"><a xlink:href="classRstSync.html" target="_top" xlink:title="RstSync">
<polygon fill="#ffffff" stroke="#000000" points="324,-437.5 324,-456.5 380,-456.5 380,-437.5 324,-437.5"/>
<text text-anchor="middle" x="352" y="-444.5" font-family="Helvetica,sans-Serif" font-size="10.00" fill="#000000">RstSync</text>
</a>
</g>
</g>
<!-- Node63&#45;&gt;Node62 -->
<g id="edge2" class="edge">
<title>Node63&#45;&gt;Node62</title>
<path fill="none" stroke="#191970" d="M390.2787,-455.6332C407.7944,-459.3105 428.8667,-463.3536 448,-466 553.333,-480.5693 580.1642,-485 686.5,-485 686.5,-485 686.5,-485 875,-485 975.9136,-485 1094.8124,-485 1154.7677,-485"/>
<polygon fill="#191970" stroke="#191970" points="390.9292,-452.1933 380.4183,-453.5237 389.4647,-459.0384 390.9292,-452.1933"/>
</g>
<!-- Node117 -->
<g id="node47" class="node">
<title>Node117</title>
<g id="a_node47"><a xlink:href="classSynchronizerOneShot.html" target="_top" xlink:title="SynchronizerOneShot">
<polygon fill="#ffffff" stroke="#000000" points="454.5,-437.5 454.5,-456.5 575.5,-456.5 575.5,-437.5 454.5,-437.5"/>
<text text-anchor="middle" x="515" y="-444.5" font-family="Helvetica,sans-Serif" font-size="10.00" fill="#000000">SynchronizerOneShot</text>
</a>
</g>
</g>
<!-- Node63&#45;&gt;Node117 -->
<g id="edge64" class="edge">
<title>Node63&#45;&gt;Node117</title>
<path fill="none" stroke="#191970" d="M390.1222,-447C409.2093,-447 432.776,-447 454.2759,-447"/>
<polygon fill="#191970" stroke="#191970" points="390.0207,-443.5001 380.0207,-447 390.0207,-450.5001 390.0207,-443.5001"/>
</g>
<!-- Node120 -->
<g id="node50" class="node">
<title>Node120</title>
<g id="a_node50"><a xlink:href="classSynchronizerOneShot.html" target="_top" xlink:title="SynchronizerOneShot(2)">
<polygon fill="#ffffff" stroke="#000000" points="448,-399.5 448,-418.5 582,-418.5 582,-399.5 448,-399.5"/>
<text text-anchor="middle" x="515" y="-406.5" font-family="Helvetica,sans-Serif" font-size="10.00" fill="#000000">SynchronizerOneShot(2)</text>
</a>
</g>
</g>
<!-- Node63&#45;&gt;Node120 -->
<g id="edge69" class="edge">
<title>Node63&#45;&gt;Node120</title>
<path fill="none" stroke="#191970" d="M389.9744,-438.1471C415.2404,-432.2568 448.4047,-424.5253 474.2272,-418.5053"/>
<polygon fill="#191970" stroke="#191970" points="388.9649,-434.7885 380.0207,-440.4676 390.5542,-441.6057 388.9649,-434.7885"/>
</g>
<!-- Node64 -->
<g id="node4" class="node">
<title>Node64</title>
<g id="a_node4"><a xlink:href="classSynchronizer.html" target="_top" xlink:title="Synchronizer">
<polygon fill="#ffffff" stroke="#000000" points="159.5,-399.5 159.5,-418.5 239.5,-418.5 239.5,-399.5 159.5,-399.5"/>
<text text-anchor="middle" x="199.5" y="-406.5" font-family="Helvetica,sans-Serif" font-size="10.00" fill="#000000">Synchronizer</text>
</a>
</g>
</g>
<!-- Node64&#45;&gt;Node63 -->
<g id="edge3" class="edge">
<title>Node64&#45;&gt;Node63</title>
<path fill="none" stroke="#191970" d="M247.9911,-421.083C272.9194,-427.2947 302.4319,-434.6486 323.6399,-439.9332"/>
<polygon fill="#191970" stroke="#191970" points="248.5318,-417.6108 237.9822,-418.589 246.8392,-424.4031 248.5318,-417.6108"/>
</g>
<!-- Node65 -->
<g id="node5" class="node">
<title>Node65</title>
<g id="a_node5"><a xlink:href="classWatchDogRst.html" target="_top" xlink:title="WatchDogRst(2)">
<polygon fill="#ffffff" stroke="#000000" points="1280,-513.5 1280,-532.5 1375,-532.5 1375,-513.5 1280,-513.5"/>
<text text-anchor="middle" x="1327.5" y="-520.5" font-family="Helvetica,sans-Serif" font-size="10.00" fill="#000000">WatchDogRst(2)</text>
</a>
</g>
</g>
<!-- Node64&#45;&gt;Node65 -->
<g id="edge5" class="edge">
<title>Node64&#45;&gt;Node65</title>
<path fill="none" stroke="#191970" d="M220.9015,-424.79C239.0273,-437.5087 266.1222,-455.0208 292,-466 386.1723,-505.9545 412.7024,-523 515,-523 515,-523 515,-523 1057,-523 1134.9566,-523 1225.5507,-523 1279.6145,-523"/>
<polygon fill="#191970" stroke="#191970" points="222.4646,-421.6051 212.2943,-418.6359 218.3932,-427.2993 222.4646,-421.6051"/>
</g>
<!-- Node69 -->
<g id="node9" class="node">
<title>Node69</title>
<g id="a_node9"><a xlink:href="classAxiStreamFifoV2.html" target="_top" xlink:title="AxiStreamFifoV2(3)">
<polygon fill="#ffffff" stroke="#000000" points="296.5,-361.5 296.5,-380.5 407.5,-380.5 407.5,-361.5 296.5,-361.5"/>
<text text-anchor="middle" x="352" y="-368.5" font-family="Helvetica,sans-Serif" font-size="10.00" fill="#000000">AxiStreamFifoV2(3)</text>
</a>
</g>
</g>
<!-- Node64&#45;&gt;Node69 -->
<g id="edge14" class="edge">
<title>Node64&#45;&gt;Node69</title>
<path fill="none" stroke="#191970" d="M247.8184,-396.96C269.1234,-391.6512 293.8042,-385.5012 313.7945,-380.5201"/>
<polygon fill="#191970" stroke="#191970" points="246.8392,-393.5969 237.9822,-399.411 248.5318,-400.3892 246.8392,-393.5969"/>
</g>
<!-- Node89 -->
<g id="node18" class="node">
<title>Node89</title>
<g id="a_node18"><a xlink:href="classAxiStreamFifoV2.html" target="_top" xlink:title="AxiStreamFifoV2">
<polygon fill="#ffffff" stroke="#000000" points="303,-228.5 303,-247.5 401,-247.5 401,-228.5 303,-228.5"/>
<text text-anchor="middle" x="352" y="-235.5" font-family="Helvetica,sans-Serif" font-size="10.00" fill="#000000">AxiStreamFifoV2</text>
</a>
</g>
</g>
<!-- Node64&#45;&gt;Node89 -->
<g id="edge23" class="edge">
<title>Node64&#45;&gt;Node89</title>
<path fill="none" stroke="#191970" d="M218.6591,-392.7365C230.4681,-382.0195 245.3383,-367.2001 256,-352 277.4628,-321.4012 267.2345,-303.993 292,-276 302.7845,-263.8101 318.3996,-254.088 330.9965,-247.5297"/>
<polygon fill="#191970" stroke="#191970" points="216.2346,-390.2083 211.0621,-399.4548 220.8717,-395.4521 216.2346,-390.2083"/>
</g>
<!-- Node118 -->
<g id="node48" class="node">
<title>Node118</title>
<g id="a_node48"><a xlink:href="classSynchronizerEdge.html" target="_top" xlink:title="SynchronizerEdge">
<polygon fill="#ffffff" stroke="#000000" points="300,-399.5 300,-418.5 404,-418.5 404,-399.5 300,-399.5"/>
<text text-anchor="middle" x="352" y="-406.5" font-family="Helvetica,sans-Serif" font-size="10.00" fill="#000000">SynchronizerEdge</text>
</a>
</g>
</g>
<!-- Node64&#45;&gt;Node118 -->
<g id="edge66" class="edge">
<title>Node64&#45;&gt;Node118</title>
<path fill="none" stroke="#191970" d="M249.8309,-409C265.8837,-409 283.6761,-409 299.8548,-409"/>
<polygon fill="#191970" stroke="#191970" points="249.5676,-405.5001 239.5676,-409 249.5675,-412.5001 249.5676,-405.5001"/>
</g>
<!-- Node65&#45;&gt;Node61 -->
<g id="edge4" class="edge">
<title>Node65&#45;&gt;Node61</title>
<path fill="none" stroke="#191970" d="M1379.9313,-511.1757C1403.6868,-505.8184 1431.3986,-499.5689 1453.7861,-494.5201"/>
<polygon fill="#191970" stroke="#191970" points="1379.0047,-507.7967 1370.0197,-513.411 1380.5447,-514.6252 1379.0047,-507.7967"/>
</g>
<!-- Node66 -->
<g id="node6" class="node">
<title>Node66</title>
<g id="a_node6"><a xlink:href="classXauiGthUltraScale.html" target="_top" xlink:title="XauiGthUltraScale(2)">
<polygon fill="#ffffff" stroke="#000000" points="1268,-418.5 1268,-437.5 1387,-437.5 1387,-418.5 1268,-418.5"/>
<text text-anchor="middle" x="1327.5" y="-425.5" font-family="Helvetica,sans-Serif" font-size="10.00" fill="#000000">XauiGthUltraScale(2)</text>
</a>
</g>
</g>
<!-- Node66&#45;&gt;Node61 -->
<g id="edge6" class="edge">
<title>Node66&#45;&gt;Node61</title>
<path fill="none" stroke="#191970" d="M1365.3146,-440.7919C1396.3478,-451.2898 1439.6051,-465.9228 1467.7049,-475.4284"/>
<polygon fill="#191970" stroke="#191970" points="1366.2974,-437.4296 1355.7031,-437.5405 1364.0542,-444.0604 1366.2974,-437.4296"/>
</g>
<!-- Node67 -->
<g id="node7" class="node">
<title>Node67</title>
<g id="a_node7"><a xlink:href="classEthMacTop.html" target="_top" xlink:title="EthMacTop(2)">
<polygon fill="#ffffff" stroke="#000000" points="1016,-190.5 1016,-209.5 1098,-209.5 1098,-190.5 1016,-190.5"/>
<text text-anchor="middle" x="1057" y="-197.5" font-family="Helvetica,sans-Serif" font-size="10.00" fill="#000000">EthMacTop(2)</text>
</a>
</g>
</g>
<!-- Node67&#45;&gt;Node66 -->
<g id="edge7" class="edge">
<title>Node67&#45;&gt;Node66</title>
<path fill="none" stroke="#191970" d="M1076.1711,-216.159C1128.8078,-260.5256 1274.4183,-383.2583 1316.1732,-418.4528"/>
<polygon fill="#191970" stroke="#191970" points="1078.1806,-213.2753 1068.2787,-209.5066 1073.6692,-218.6276 1078.1806,-213.2753"/>
</g>
<!-- Node68 -->
<g id="node8" class="node">
<title>Node68</title>
<g id="a_node8"><a xlink:href="classEthMacTxFifo.html" target="_top" xlink:title="EthMacTxFifo">
<polygon fill="#ffffff" stroke="#000000" points="834.5,-318.5 834.5,-337.5 915.5,-337.5 915.5,-318.5 834.5,-318.5"/>
<text text-anchor="middle" x="875" y="-325.5" font-family="Helvetica,sans-Serif" font-size="10.00" fill="#000000">EthMacTxFifo</text>
</a>
</g>
</g>
<!-- Node68&#45;&gt;Node67 -->
<g id="edge8" class="edge">
<title>Node68&#45;&gt;Node67</title>
<path fill="none" stroke="#191970" d="M900.4963,-313.1698C917.3826,-303.1171 939.8624,-289.2894 959,-276 991.3632,-253.5265 1027.5353,-224.347 1045.5331,-209.5329"/>
<polygon fill="#191970" stroke="#191970" points="898.5765,-310.2388 891.7472,-318.3389 902.1372,-316.2656 898.5765,-310.2388"/>
</g>
<!-- Node69&#45;&gt;Node68 -->
<g id="edge9" class="edge">
<title>Node69&#45;&gt;Node68</title>
<path fill="none" stroke="#191970" d="M418.0501,-370.9224C498.0878,-370.1294 636.9039,-366.51 755,-352 781.9918,-348.6836 811.9918,-342.6836 835.2438,-337.5127"/>
<polygon fill="#191970" stroke="#191970" points="417.6014,-367.4261 407.6322,-371.0129 417.6622,-374.4258 417.6014,-367.4261"/>
</g>
<!-- Node70 -->
<g id="node10" class="node">
<title>Node70</title>
<g id="a_node10"><a xlink:href="classAxiStreamResize.html" target="_top" xlink:title="AxiStreamResize(2)">
<polygon fill="#ffffff" stroke="#000000" points="143,-285.5 143,-304.5 256,-304.5 256,-285.5 143,-285.5"/>
<text text-anchor="middle" x="199.5" y="-292.5" font-family="Helvetica,sans-Serif" font-size="10.00" fill="#000000">AxiStreamResize(2)</text>
</a>
</g>
</g>
<!-- Node70&#45;&gt;Node69 -->
<g id="edge10" class="edge">
<title>Node70&#45;&gt;Node69</title>
<path fill="none" stroke="#191970" d="M245.0238,-308.4119C248.829,-310.0977 252.5395,-311.9576 256,-314 274.6924,-325.0321 273.6244,-335.448 292,-347 301.2132,-352.792 312.0587,-357.6404 321.9768,-361.4287"/>
<polygon fill="#191970" stroke="#191970" points="246.0433,-305.0498 235.4591,-304.5753 243.4372,-311.5466 246.0433,-305.0498"/>
</g>
<!-- Node70&#45;&gt;Node89 -->
<g id="edge21" class="edge">
<title>Node70&#45;&gt;Node89</title>
<path fill="none" stroke="#191970" d="M238.6019,-282.1483C244.4509,-280.1398 250.3964,-278.0497 256,-276 281.0828,-266.8254 309.4887,-255.4577 328.8523,-247.5578"/>
<polygon fill="#191970" stroke="#191970" points="237.2727,-278.9032 228.9267,-285.4297 239.5211,-285.5323 237.2727,-278.9032"/>
</g>
<!-- Node71 -->
<g id="node11" class="node">
<title>Node71</title>
<g id="a_node11"><a xlink:href="classAxiStreamPipeline.html" target="_top" xlink:title="AxiStreamPipeline">
<polygon fill="#ffffff" stroke="#000000" points="0,-228.5 0,-247.5 107,-247.5 107,-228.5 0,-228.5"/>
<text text-anchor="middle" x="53.5" y="-235.5" font-family="Helvetica,sans-Serif" font-size="10.00" fill="#000000">AxiStreamPipeline</text>
</a>
</g>
</g>
<!-- Node71&#45;&gt;Node69 -->
<g id="edge15" class="edge">
<title>Node71&#45;&gt;Node69</title>
<path fill="none" stroke="#191970" d="M66.426,-256.0195C88.6047,-286.6943 132.5372,-346.3121 143,-352 190.0549,-377.5803 251.9831,-380.048 296.1884,-377.512"/>
<polygon fill="#191970" stroke="#191970" points="69.233,-253.9281 60.5471,-247.8614 63.5539,-258.0206 69.233,-253.9281"/>
</g>
<!-- Node71&#45;&gt;Node70 -->
<g id="edge11" class="edge">
<title>Node71&#45;&gt;Node70</title>
<path fill="none" stroke="#191970" d="M84.1661,-251.7124C101.3367,-259.2151 123.2122,-268.4849 143,-276 151.6104,-279.2701 161.0627,-282.5629 169.7309,-285.4674"/>
<polygon fill="#191970" stroke="#191970" points="85.214,-248.3497 74.6513,-247.5258 82.3948,-254.7569 85.214,-248.3497"/>
</g>
<!-- Node71&#45;&gt;Node89 -->
<g id="edge24" class="edge">
<title>Node71&#45;&gt;Node89</title>
<path fill="none" stroke="#191970" d="M117.278,-238C172.7408,-238 251.9574,-238 302.6833,-238"/>
<polygon fill="#191970" stroke="#191970" points="117.2106,-234.5001 107.2106,-238 117.2105,-241.5001 117.2106,-234.5001"/>
</g>
<!-- Node91 -->
<g id="node20" class="node">
<title>Node91</title>
<g id="a_node20"><a xlink:href="classAxiStreamMux.html" target="_top" xlink:title="AxiStreamMux">
<polygon fill="#ffffff" stroke="#000000" points="155.5,-247.5 155.5,-266.5 243.5,-266.5 243.5,-247.5 155.5,-247.5"/>
<text text-anchor="middle" x="199.5" y="-254.5" font-family="Helvetica,sans-Serif" font-size="10.00" fill="#000000">AxiStreamMux</text>
</a>
</g>
</g>
<!-- Node71&#45;&gt;Node91 -->
<g id="edge27" class="edge">
<title>Node71&#45;&gt;Node91</title>
<path fill="none" stroke="#191970" d="M117.1714,-246.286C129.9512,-247.9491 143.1188,-249.6627 155.0726,-251.2184"/>
<polygon fill="#191970" stroke="#191970" points="117.4041,-242.7869 107.036,-244.967 116.5007,-249.7283 117.4041,-242.7869"/>
</g>
<!-- Node97 -->
<g id="node26" class="node">
<title>Node97</title>
<g id="a_node26"><a xlink:href="classAxiStreamResize.html" target="_top" xlink:title="AxiStreamResize">
<polygon fill="#ffffff" stroke="#000000" points="302.5,-133.5 302.5,-152.5 401.5,-152.5 401.5,-133.5 302.5,-133.5"/>
<text text-anchor="middle" x="352" y="-140.5" font-family="Helvetica,sans-Serif" font-size="10.00" fill="#000000">AxiStreamResize</text>
</a>
</g>
</g>
<!-- Node71&#45;&gt;Node97 -->
<g id="edge35" class="edge">
<title>Node71&#45;&gt;Node97</title>
<path fill="none" stroke="#191970" d="M93.1775,-225.3323C140.5032,-210.2283 222.0114,-184.2327 292,-162 301.6847,-158.9235 312.2513,-155.5748 321.7808,-152.5577"/>
<polygon fill="#191970" stroke="#191970" points="92.0763,-222.0097 83.614,-228.3847 94.2047,-228.6783 92.0763,-222.0097"/>
</g>
<!-- Node112 -->
<g id="node41" class="node">
<title>Node112</title>
<g id="a_node41"><a xlink:href="classSsiObFrameFilter.html" target="_top" xlink:title="SsiObFrameFilter">
<polygon fill="#ffffff" stroke="#000000" points="150.5,-76.5 150.5,-95.5 248.5,-95.5 248.5,-76.5 150.5,-76.5"/>
<text text-anchor="middle" x="199.5" y="-83.5" font-family="Helvetica,sans-Serif" font-size="10.00" fill="#000000">SsiObFrameFilter</text>
</a>
</g>
</g>
<!-- Node71&#45;&gt;Node112 -->
<g id="edge57" class="edge">
<title>Node71&#45;&gt;Node112</title>
<path fill="none" stroke="#191970" d="M69.6301,-221.207C100.319,-189.2569 166.2033,-120.6651 190.3705,-95.5047"/>
<polygon fill="#191970" stroke="#191970" points="67.0361,-218.8552 62.633,-228.4917 72.0845,-223.7043 67.0361,-218.8552"/>
</g>
<!-- Node72 -->
<g id="node12" class="node">
<title>Node72</title>
<g id="a_node12"><a xlink:href="classFifoCascade.html" target="_top" xlink:title="FifoCascade(2)">
<polygon fill="#ffffff" stroke="#000000" points="155,-323.5 155,-342.5 244,-342.5 244,-323.5 155,-323.5"/>
<text text-anchor="middle" x="199.5" y="-330.5" font-family="Helvetica,sans-Serif" font-size="10.00" fill="#000000">FifoCascade(2)</text>
</a>
</g>
</g>
<!-- Node72&#45;&gt;Node69 -->
<g id="edge12" class="edge">
<title>Node72&#45;&gt;Node69</title>
<path fill="none" stroke="#191970" d="M247.8184,-345.04C269.1234,-350.3488 293.8042,-356.4988 313.7945,-361.4799"/>
<polygon fill="#191970" stroke="#191970" points="248.5318,-341.6108 237.9822,-342.589 246.8392,-348.4031 248.5318,-341.6108"/>
</g>
<!-- Node72&#45;&gt;Node89 -->
<g id="edge22" class="edge">
<title>Node72&#45;&gt;Node89</title>
<path fill="none" stroke="#191970" d="M245.9697,-319.4819C249.4628,-317.8352 252.8493,-316.0124 256,-314 275.6063,-301.4769 274.0351,-290.7816 292,-276 305.3298,-265.0321 322.0245,-254.6956 334.4171,-247.5801"/>
<polygon fill="#191970" stroke="#191970" points="244.424,-316.3349 236.5631,-323.4383 247.138,-322.7874 244.424,-316.3349"/>
</g>
<!-- Node73 -->
<g id="node13" class="node">
<title>Node73</title>
<g id="a_node13"><a xlink:href="classFifo.html" target="_top" xlink:title="Fifo(4)">
<polygon fill="#ffffff" stroke="#ff0000" points="30,-323.5 30,-342.5 77,-342.5 77,-323.5 30,-323.5"/>
<text text-anchor="middle" x="53.5" y="-330.5" font-family="Helvetica,sans-Serif" font-size="10.00" fill="#000000">Fifo(4)</text>
</a>
</g>
</g>
<!-- Node73&#45;&gt;Node72 -->
<g id="edge13" class="edge">
<title>Node73&#45;&gt;Node72</title>
<path fill="none" stroke="#191970" d="M87.4953,-333C107.5374,-333 133.1329,-333 154.7955,-333"/>
<polygon fill="#191970" stroke="#191970" points="87.2824,-329.5001 77.2824,-333 87.2823,-336.5001 87.2824,-329.5001"/>
</g>
<!-- Node85 -->
<g id="node14" class="node">
<title>Node85</title>
<g id="a_node14"><a xlink:href="classEthMacTx.html" target="_top" xlink:title="EthMacTx">
<polygon fill="#ffffff" stroke="#000000" points="843,-247.5 843,-266.5 907,-266.5 907,-247.5 843,-247.5"/>
<text text-anchor="middle" x="875" y="-254.5" font-family="Helvetica,sans-Serif" font-size="10.00" fill="#000000">EthMacTx</text>
</a>
</g>
</g>
<!-- Node85&#45;&gt;Node67 -->
<g id="edge16" class="edge">
<title>Node85&#45;&gt;Node67</title>
<path fill="none" stroke="#191970" d="M915.4097,-244.3442C948.959,-233.837 995.9554,-219.1184 1026.4379,-209.5716"/>
<polygon fill="#191970" stroke="#191970" points="913.9596,-241.1307 905.4627,-247.4595 916.0517,-247.8107 913.9596,-241.1307"/>
</g>
<!-- Node86 -->
<g id="node15" class="node">
<title>Node86</title>
<g id="a_node15"><a xlink:href="classEthMacTxBypass.html" target="_top" xlink:title="EthMacTxBypass">
<polygon fill="#ffffff" stroke="#000000" points="637,-247.5 637,-266.5 736,-266.5 736,-247.5 637,-247.5"/>
<text text-anchor="middle" x="686.5" y="-254.5" font-family="Helvetica,sans-Serif" font-size="10.00" fill="#000000">EthMacTxBypass</text>
</a>
</g>
</g>
<!-- Node86&#45;&gt;Node85 -->
<g id="edge17" class="edge">
<title>Node86&#45;&gt;Node85</title>
<path fill="none" stroke="#191970" d="M746.1961,-257C778.2602,-257 816.5172,-257 842.9635,-257"/>
<polygon fill="#191970" stroke="#191970" points="746.0262,-253.5001 736.0262,-257 746.0261,-260.5001 746.0262,-253.5001"/>
</g>
<!-- Node87 -->
<g id="node16" class="node">
<title>Node87</title>
<g id="a_node16"><a xlink:href="classEthMacTxCsum.html" target="_top" xlink:title="EthMacTxCsum(2)">
<polygon fill="#ffffff" stroke="#000000" points="462.5,-285.5 462.5,-304.5 567.5,-304.5 567.5,-285.5 462.5,-285.5"/>
<text text-anchor="middle" x="515" y="-292.5" font-family="Helvetica,sans-Serif" font-size="10.00" fill="#000000">EthMacTxCsum(2)</text>
</a>
</g>
</g>
<!-- Node87&#45;&gt;Node85 -->
<g id="edge18" class="edge">
<title>Node87&#45;&gt;Node85</title>
<path fill="none" stroke="#191970" d="M577.5842,-291.3872C626.092,-288.2628 694.9375,-283.1214 755,-276 784.8482,-272.461 818.6489,-266.9748 842.7533,-262.8057"/>
<polygon fill="#191970" stroke="#191970" points="577.3108,-287.8974 567.5523,-292.0233 577.7538,-294.8834 577.3108,-287.8974"/>
</g>
<!-- Node88 -->
<g id="node17" class="node">
<title>Node88</title>
<g id="a_node17"><a xlink:href="classAxiStreamPipeline.html" target="_top" xlink:title="AxiStreamPipeline(2)">
<polygon fill="#ffffff" stroke="#000000" points="292,-285.5 292,-304.5 412,-304.5 412,-285.5 292,-285.5"/>
<text text-anchor="middle" x="352" y="-292.5" font-family="Helvetica,sans-Serif" font-size="10.00" fill="#000000">AxiStreamPipeline(2)</text>
</a>
</g>
</g>
<!-- Node88&#45;&gt;Node87 -->
<g id="edge19" class="edge">
<title>Node88&#45;&gt;Node87</title>
<path fill="none" stroke="#191970" d="M422.3634,-295C435.7483,-295 449.5415,-295 462.2624,-295"/>
<polygon fill="#191970" stroke="#191970" points="422.2321,-291.5001 412.2321,-295 422.232,-298.5001 422.2321,-291.5001"/>
</g>
<!-- Node89&#45;&gt;Node87 -->
<g id="edge20" class="edge">
<title>Node89&#45;&gt;Node87</title>
<path fill="none" stroke="#191970" d="M383.7036,-251.4797C402.2706,-259.1392 426.2698,-268.6389 448,-276 457.8482,-279.3361 468.6409,-282.575 478.632,-285.4055"/>
<polygon fill="#191970" stroke="#191970" points="384.8411,-248.1621 374.2638,-247.5513 382.1515,-254.6249 384.8411,-248.1621"/>
</g>
<!-- Node94 -->
<g id="node23" class="node">
<title>Node94</title>
<g id="a_node23"><a xlink:href="classEthMacTxExportXgmii.html" target="_top" xlink:title="EthMacTxExportXgmii">
<polygon fill="#ffffff" stroke="#000000" points="453,-209.5 453,-228.5 577,-228.5 577,-209.5 453,-209.5"/>
<text text-anchor="middle" x="515" y="-216.5" font-family="Helvetica,sans-Serif" font-size="10.00" fill="#000000">EthMacTxExportXgmii</text>
</a>
</g>
</g>
<!-- Node89&#45;&gt;Node94 -->
<g id="edge31" class="edge">
<title>Node89&#45;&gt;Node94</title>
<path fill="none" stroke="#191970" d="M411.4491,-231.0704C424.9152,-229.5007 439.2499,-227.8298 452.8254,-226.2474"/>
<polygon fill="#191970" stroke="#191970" points="410.8752,-227.6135 401.3477,-232.2478 411.6857,-234.5664 410.8752,-227.6135"/>
</g>
<!-- Node104 -->
<g id="node33" class="node">
<title>Node104</title>
<g id="a_node33"><a xlink:href="classEthMacRxImportGmii.html" target="_top" xlink:title="EthMacRxImportGmii">
<polygon fill="#ffffff" stroke="#000000" points="455,-171.5 455,-190.5 575,-190.5 575,-171.5 455,-171.5"/>
<text text-anchor="middle" x="515" y="-178.5" font-family="Helvetica,sans-Serif" font-size="10.00" fill="#000000">EthMacRxImportGmii</text>
</a>
</g>
</g>
<!-- Node89&#45;&gt;Node104 -->
<g id="edge46" class="edge">
<title>Node89&#45;&gt;Node104</title>
<path fill="none" stroke="#191970" d="M383.7036,-224.5203C402.2706,-216.8608 426.2698,-207.3611 448,-200 457.8482,-196.6639 468.6409,-193.425 478.632,-190.5945"/>
<polygon fill="#191970" stroke="#191970" points="382.1515,-221.3751 374.2638,-228.4487 384.8411,-227.8379 382.1515,-221.3751"/>
</g>
<!-- Node110 -->
<g id="node39" class="node">
<title>Node110</title>
<g id="a_node39"><a xlink:href="classSsiFifo.html" target="_top" xlink:title="SsiFifo(3)">
<polygon fill="#ffffff" stroke="#000000" points="484,-19.5 484,-38.5 546,-38.5 546,-19.5 484,-19.5"/>
<text text-anchor="middle" x="515" y="-26.5" font-family="Helvetica,sans-Serif" font-size="10.00" fill="#000000">SsiFifo(3)</text>
</a>
</g>
</g>
<!-- Node89&#45;&gt;Node110 -->
<g id="edge55" class="edge">
<title>Node89&#45;&gt;Node110</title>
<path fill="none" stroke="#191970" d="M384.2666,-223.7273C394.4999,-217.7498 404.9689,-209.8615 412,-200 452.3037,-143.4724 399.9955,-98.153 448,-48 457.2798,-38.3048 471.1086,-33.4451 483.7968,-31.0503"/>
<polygon fill="#191970" stroke="#191970" points="382.5701,-220.6656 375.4265,-228.49 385.8902,-226.8282 382.5701,-220.6656"/>
</g>
<!-- Node90 -->
<g id="node19" class="node">
<title>Node90</title>
<g id="a_node19"><a xlink:href="classEthMacTxPause.html" target="_top" xlink:title="EthMacTxPause">
<polygon fill="#ffffff" stroke="#000000" points="640.5,-323.5 640.5,-342.5 732.5,-342.5 732.5,-323.5 640.5,-323.5"/>
<text text-anchor="middle" x="686.5" y="-330.5" font-family="Helvetica,sans-Serif" font-size="10.00" fill="#000000">EthMacTxPause</text>
</a>
</g>
</g>
<!-- Node90&#45;&gt;Node85 -->
<g id="edge25" class="edge">
<title>Node90&#45;&gt;Node85</title>
<path fill="none" stroke="#191970" d="M724.9025,-320.0908C734.7632,-316.627 745.3187,-312.788 755,-309 790.0997,-295.2667 830.136,-277.4793 853.9484,-266.6699"/>
<polygon fill="#191970" stroke="#191970" points="723.6303,-316.8274 715.3314,-323.4137 725.9262,-323.4402 723.6303,-316.8274"/>
</g>
<!-- Node91&#45;&gt;Node90 -->
<g id="edge26" class="edge">
<title>Node91&#45;&gt;Node90</title>
<path fill="none" stroke="#191970" d="M245.9697,-270.5181C249.4628,-272.1648 252.8493,-273.9876 256,-276 275.6063,-288.5231 270.8561,-304.296 292,-314 408.0693,-367.27 564.0627,-353.0849 640.4505,-341.4007"/>
<polygon fill="#191970" stroke="#191970" points="247.138,-267.2126 236.5631,-266.5617 244.424,-273.6651 247.138,-267.2126"/>
</g>
<!-- Node92 -->
<g id="node21" class="node">
<title>Node92</title>
<g id="a_node21"><a xlink:href="classEthMacTxExport.html" target="_top" xlink:title="EthMacTxExport">
<polygon fill="#ffffff" stroke="#000000" points="639,-209.5 639,-228.5 734,-228.5 734,-209.5 639,-209.5"/>
<text text-anchor="middle" x="686.5" y="-216.5" font-family="Helvetica,sans-Serif" font-size="10.00" fill="#000000">EthMacTxExport</text>
</a>
</g>
</g>
<!-- Node92&#45;&gt;Node85 -->
<g id="edge28" class="edge">
<title>Node92&#45;&gt;Node85</title>
<path fill="none" stroke="#191970" d="M743.9021,-230.5718C776.3799,-237.119 815.7863,-245.063 842.8633,-250.5215"/>
<polygon fill="#191970" stroke="#191970" points="744.561,-227.1343 734.0665,-228.589 743.1776,-233.9962 744.561,-227.1343"/>
</g>
<!-- Node93 -->
<g id="node22" class="node">
<title>Node93</title>
<g id="a_node22"><a xlink:href="classEthMacTxExportXlgmii.html" target="_top" xlink:title="EthMacTxExportXlgmii">
<polygon fill="#ffffff" stroke="#000000" points="451.5,-247.5 451.5,-266.5 578.5,-266.5 578.5,-247.5 451.5,-247.5"/>
<text text-anchor="middle" x="515" y="-254.5" font-family="Helvetica,sans-Serif" font-size="10.00" fill="#000000">EthMacTxExportXlgmii</text>
</a>
</g>
</g>
<!-- Node93&#45;&gt;Node92 -->
<g id="edge29" class="edge">
<title>Node93&#45;&gt;Node92</title>
<path fill="none" stroke="#191970" d="M568.0412,-245.2474C592.2913,-239.8742 620.6467,-233.5914 643.5345,-228.5201"/>
<polygon fill="#191970" stroke="#191970" points="567.2827,-241.8305 558.2767,-247.411 568.7971,-248.6648 567.2827,-241.8305"/>
</g>
<!-- Node94&#45;&gt;Node92 -->
<g id="edge30" class="edge">
<title>Node94&#45;&gt;Node92</title>
<path fill="none" stroke="#191970" d="M587.5243,-219C604.9022,-219 623.0227,-219 638.9377,-219"/>
<polygon fill="#191970" stroke="#191970" points="587.4006,-215.5001 577.4006,-219 587.4005,-222.5001 587.4006,-215.5001"/>
</g>
<!-- Node95 -->
<g id="node24" class="node">
<title>Node95</title>
<g id="a_node24"><a xlink:href="classCrc32Parallel.html" target="_top" xlink:title="Crc32Parallel">
<polygon fill="#ffffff" stroke="#000000" points="312,-171.5 312,-190.5 392,-190.5 392,-171.5 312,-171.5"/>
<text text-anchor="middle" x="352" y="-178.5" font-family="Helvetica,sans-Serif" font-size="10.00" fill="#000000">Crc32Parallel</text>
</a>
</g>
</g>
<!-- Node95&#45;&gt;Node94 -->
<g id="edge32" class="edge">
<title>Node95&#45;&gt;Node94</title>
<path fill="none" stroke="#191970" d="M402.2344,-192.7111C425.2777,-198.0831 452.2515,-204.3715 474.0392,-209.4509"/>
<polygon fill="#191970" stroke="#191970" points="402.8257,-189.2551 392.2921,-190.3933 401.2363,-196.0723 402.8257,-189.2551"/>
</g>
<!-- Node96 -->
<g id="node25" class="node">
<title>Node96</title>
<g id="a_node25"><a xlink:href="classEthMacTxExportGmii.html" target="_top" xlink:title="EthMacTxExportGmii">
<polygon fill="#ffffff" stroke="#000000" points="455.5,-133.5 455.5,-152.5 574.5,-152.5 574.5,-133.5 455.5,-133.5"/>
<text text-anchor="middle" x="515" y="-140.5" font-family="Helvetica,sans-Serif" font-size="10.00" fill="#000000">EthMacTxExportGmii</text>
</a>
</g>
</g>
<!-- Node95&#45;&gt;Node96 -->
<g id="edge36" class="edge">
<title>Node95&#45;&gt;Node96</title>
<path fill="none" stroke="#191970" d="M402.2344,-169.2889C425.2777,-163.9169 452.2515,-157.6285 474.0392,-152.5491"/>
<polygon fill="#191970" stroke="#191970" points="401.2363,-165.9277 392.2921,-171.6067 402.8257,-172.7449 401.2363,-165.9277"/>
</g>
<!-- Node102 -->
<g id="node31" class="node">
<title>Node102</title>
<g id="a_node31"><a xlink:href="classEthMacRxImportXgmii.html" target="_top" xlink:title="EthMacRxImportXgmii">
<polygon fill="#ffffff" stroke="#000000" points="452.5,-57.5 452.5,-76.5 577.5,-76.5 577.5,-57.5 452.5,-57.5"/>
<text text-anchor="middle" x="515" y="-64.5" font-family="Helvetica,sans-Serif" font-size="10.00" fill="#000000">EthMacRxImportXgmii</text>
</a>
</g>
</g>
<!-- Node95&#45;&gt;Node102 -->
<g id="edge44" class="edge">
<title>Node95&#45;&gt;Node102</title>
<path fill="none" stroke="#191970" d="M401.3815,-169.199C405.1994,-167.1682 408.8049,-164.7885 412,-162 440.1595,-137.424 419.4708,-110.1459 448,-86 452.6144,-82.0945 457.9822,-78.9899 463.633,-76.5221"/>
<polygon fill="#191970" stroke="#191970" points="399.8681,-166.0418 392.1806,-173.3323 402.7367,-172.4271 399.8681,-166.0418"/>
</g>
<!-- Node95&#45;&gt;Node104 -->
<g id="edge47" class="edge">
<title>Node95&#45;&gt;Node104</title>
<path fill="none" stroke="#191970" d="M402.3377,-181C418.9421,-181 437.5782,-181 454.8402,-181"/>
<polygon fill="#191970" stroke="#191970" points="402.2922,-177.5001 392.2921,-181 402.2921,-184.5001 402.2922,-177.5001"/>
</g>
<!-- Node96&#45;&gt;Node92 -->
<g id="edge33" class="edge">
<title>Node96&#45;&gt;Node92</title>
<path fill="none" stroke="#191970" d="M570.5347,-156.1505C574.5252,-157.875 578.3929,-159.8163 582,-162 601.9016,-174.0482 598.0638,-188.0091 618,-200 624.4512,-203.8802 631.7173,-206.99 639.0437,-209.4763"/>
<polygon fill="#191970" stroke="#191970" points="571.6559,-152.8318 561.066,-152.5082 569.1427,-159.3651 571.6559,-152.8318"/>
</g>
<!-- Node97&#45;&gt;Node96 -->
<g id="edge34" class="edge">
<title>Node97&#45;&gt;Node96</title>
<path fill="none" stroke="#191970" d="M411.9411,-143C426.1463,-143 441.293,-143 455.4794,-143"/>
<polygon fill="#191970" stroke="#191970" points="411.7911,-139.5001 401.7911,-143 411.791,-146.5001 411.7911,-139.5001"/>
</g>
<!-- Node97&#45;&gt;Node102 -->
<g id="edge42" class="edge">
<title>Node97&#45;&gt;Node102</title>
<path fill="none" stroke="#191970" d="M375.6846,-127.9753C399.1545,-113.2638 433.6161,-92.1846 448,-86 456.4416,-82.3704 465.7761,-79.2213 474.7292,-76.5873"/>
<polygon fill="#191970" stroke="#191970" points="373.59,-125.1581 366.9919,-133.4476 377.3193,-131.082 373.59,-125.1581"/>
</g>
<!-- Node98 -->
<g id="node27" class="node">
<title>Node98</title>
<g id="a_node27"><a xlink:href="classEthMacFlowCtrl.html" target="_top" xlink:title="EthMacFlowCtrl">
<polygon fill="#ffffff" stroke="#000000" points="829,-95.5 829,-114.5 921,-114.5 921,-95.5 829,-95.5"/>
<text text-anchor="middle" x="875" y="-102.5" font-family="Helvetica,sans-Serif" font-size="10.00" fill="#000000">EthMacFlowCtrl</text>
</a>
</g>
</g>
<!-- Node98&#45;&gt;Node67 -->
<g id="edge37" class="edge">
<title>Node98&#45;&gt;Node67</title>
<path fill="none" stroke="#191970" d="M931.0184,-114.0701C940.5991,-116.6277 950.2695,-119.8788 959,-124 995.6042,-141.279 1031.298,-174.1668 1047.6777,-190.4192"/>
<polygon fill="#191970" stroke="#191970" points="931.6551,-110.6228 921.11,-111.6485 929.9931,-117.4226 931.6551,-110.6228"/>
</g>
<!-- Node99 -->
<g id="node28" class="node">
<title>Node99</title>
<g id="a_node28"><a xlink:href="classEthMacRx.html" target="_top" xlink:title="EthMacRx">
<polygon fill="#ffffff" stroke="#000000" points="842.5,-133.5 842.5,-152.5 907.5,-152.5 907.5,-133.5 842.5,-133.5"/>
<text text-anchor="middle" x="875" y="-140.5" font-family="Helvetica,sans-Serif" font-size="10.00" fill="#000000">EthMacRx</text>
</a>
</g>
</g>
<!-- Node99&#45;&gt;Node67 -->
<g id="edge38" class="edge">
<title>Node99&#45;&gt;Node67</title>
<path fill="none" stroke="#191970" d="M915.4097,-155.6558C948.959,-166.163 995.9554,-180.8816 1026.4379,-190.4284"/>
<polygon fill="#191970" stroke="#191970" points="916.0517,-152.1893 905.4627,-152.5405 913.9596,-158.8693 916.0517,-152.1893"/>
</g>
<!-- Node100 -->
<g id="node29" class="node">
<title>Node100</title>
<g id="a_node29"><a xlink:href="classEthMacRxImport.html" target="_top" xlink:title="EthMacRxImport">
<polygon fill="#ffffff" stroke="#000000" points="638,-19.5 638,-38.5 735,-38.5 735,-19.5 638,-19.5"/>
<text text-anchor="middle" x="686.5" y="-26.5" font-family="Helvetica,sans-Serif" font-size="10.00" fill="#000000">EthMacRxImport</text>
</a>
</g>
</g>
<!-- Node100&#45;&gt;Node99 -->
<g id="edge39" class="edge">
<title>Node100&#45;&gt;Node99</title>
<path fill="none" stroke="#191970" d="M744.3486,-40.934C748.1576,-42.9367 751.7598,-45.2736 755,-48 783.5986,-72.0636 761.8307,-100.6314 791,-124 805.3527,-135.4985 825.3048,-140.3338 842.1622,-142.2544"/>
<polygon fill="#191970" stroke="#191970" points="745.7178,-37.7124 735.1589,-36.841 742.8698,-44.1068 745.7178,-37.7124"/>
</g>
<!-- Node101 -->
<g id="node30" class="node">
<title>Node101</title>
<g id="a_node30"><a xlink:href="classEthMacRxImportXlgmii.html" target="_top" xlink:title="EthMacRxImportXlgmii">
<polygon fill="#ffffff" stroke="#000000" points="451,-95.5 451,-114.5 579,-114.5 579,-95.5 451,-95.5"/>
<text text-anchor="middle" x="515" y="-102.5" font-family="Helvetica,sans-Serif" font-size="10.00" fill="#000000">EthMacRxImportXlgmii</text>
</a>
</g>
</g>
<!-- Node101&#45;&gt;Node100 -->
<g id="edge40" class="edge">
<title>Node101&#45;&gt;Node100</title>
<path fill="none" stroke="#191970" d="M570.5347,-91.8495C574.5252,-90.125 578.3929,-88.1837 582,-86 601.9016,-73.9518 598.0638,-59.9909 618,-48 624.4512,-44.1198 631.7173,-41.01 639.0437,-38.5237"/>
<polygon fill="#191970" stroke="#191970" points="569.1427,-88.6349 561.066,-95.4918 571.6559,-95.1682 569.1427,-88.6349"/>
</g>
<!-- Node102&#45;&gt;Node100 -->
<g id="edge41" class="edge">
<title>Node102&#45;&gt;Node100</title>
<path fill="none" stroke="#191970" d="M568.0412,-55.2474C592.2913,-49.8742 620.6467,-43.5914 643.5345,-38.5201"/>
<polygon fill="#191970" stroke="#191970" points="567.2827,-51.8305 558.2767,-57.411 568.7971,-58.6648 567.2827,-51.8305"/>
</g>
<!-- Node103 -->
<g id="node32" class="node">
<title>Node103</title>
<g id="a_node32"><a xlink:href="classFifo.html" target="_top" xlink:title="Fifo">
<polygon fill="#ffffff" stroke="#ff0000" points="335,-76.5 335,-95.5 369,-95.5 369,-76.5 335,-76.5"/>
<text text-anchor="middle" x="352" y="-83.5" font-family="Helvetica,sans-Serif" font-size="10.00" fill="#000000">Fifo</text>
</a>
</g>
</g>
<!-- Node103&#45;&gt;Node102 -->
<g id="edge43" class="edge">
<title>Node103&#45;&gt;Node102</title>
<path fill="none" stroke="#191970" d="M379.3122,-82.8164C399.2077,-80.4973 426.9808,-77.2599 452.2213,-74.3178"/>
<polygon fill="#191970" stroke="#191970" points="378.6633,-79.3682 369.1358,-84.0026 379.4738,-86.3211 378.6633,-79.3682"/>
</g>
<!-- Node104&#45;&gt;Node100 -->
<g id="edge45" class="edge">
<title>Node104&#45;&gt;Node100</title>
<path fill="none" stroke="#191970" d="M577.2238,-166.038C578.9047,-164.7961 580.5036,-163.4528 582,-162 620.1217,-124.9885 579.7719,-84.9016 618,-48 623.594,-42.6001 630.5832,-38.7073 637.9421,-35.9068"/>
<polygon fill="#191970" stroke="#191970" points="575.0011,-163.2903 568.2321,-171.4409 578.6064,-169.2905 575.0011,-163.2903"/>
</g>
<!-- Node105 -->
<g id="node34" class="node">
<title>Node105</title>
<g id="a_node34"><a xlink:href="classEthMacRxPause.html" target="_top" xlink:title="EthMacRxPause">
<polygon fill="#ffffff" stroke="#000000" points="640,-57.5 640,-76.5 733,-76.5 733,-57.5 640,-57.5"/>
<text text-anchor="middle" x="686.5" y="-64.5" font-family="Helvetica,sans-Serif" font-size="10.00" fill="#000000">EthMacRxPause</text>
</a>
</g>
</g>
<!-- Node105&#45;&gt;Node99 -->
<g id="edge48" class="edge">
<title>Node105&#45;&gt;Node99</title>
<path fill="none" stroke="#191970" d="M742.7334,-79.8423C747.0057,-81.6411 751.1481,-83.6832 755,-86 774.9362,-97.9909 770.7811,-112.4922 791,-124 806.5933,-132.8751 826.0249,-137.6046 842.2702,-140.1249"/>
<polygon fill="#191970" stroke="#191970" points="743.8278,-76.5148 733.2355,-76.2812 741.3702,-83.0692 743.8278,-76.5148"/>
</g>
<!-- Node106 -->
<g id="node35" class="node">
<title>Node106</title>
<g id="a_node35"><a xlink:href="classEthMacRxCsum.html" target="_top" xlink:title="EthMacRxCsum(2)">
<polygon fill="#ffffff" stroke="#000000" points="633.5,-171.5 633.5,-190.5 739.5,-190.5 739.5,-171.5 633.5,-171.5"/>
<text text-anchor="middle" x="686.5" y="-178.5" font-family="Helvetica,sans-Serif" font-size="10.00" fill="#000000">EthMacRxCsum(2)</text>
</a>
</g>
</g>
<!-- Node106&#45;&gt;Node99 -->
<g id="edge49" class="edge">
<title>Node106&#45;&gt;Node99</title>
<path fill="none" stroke="#191970" d="M744.255,-169.3571C776.435,-162.8699 815.3278,-155.0294 842.2869,-149.5947"/>
<polygon fill="#191970" stroke="#191970" points="743.1776,-166.0038 734.0665,-171.411 744.561,-172.8657 743.1776,-166.0038"/>
</g>
<!-- Node107 -->
<g id="node36" class="node">
<title>Node107</title>
<g id="a_node36"><a xlink:href="classEthMacRxBypass.html" target="_top" xlink:title="EthMacRxBypass">
<polygon fill="#ffffff" stroke="#000000" points="636.5,-133.5 636.5,-152.5 736.5,-152.5 736.5,-133.5 636.5,-133.5"/>
<text text-anchor="middle" x="686.5" y="-140.5" font-family="Helvetica,sans-Serif" font-size="10.00" fill="#000000">EthMacRxBypass</text>
</a>
</g>
</g>
<!-- Node107&#45;&gt;Node99 -->
<g id="edge50" class="edge">
<title>Node107&#45;&gt;Node99</title>
<path fill="none" stroke="#191970" d="M746.5832,-143C778.2925,-143 815.9691,-143 842.281,-143"/>
<polygon fill="#191970" stroke="#191970" points="746.5197,-139.5001 736.5196,-143 746.5196,-146.5001 746.5197,-139.5001"/>
</g>
<!-- Node108 -->
<g id="node37" class="node">
<title>Node108</title>
<g id="a_node37"><a xlink:href="classEthMacRxFilter.html" target="_top" xlink:title="EthMacRxFilter">
<polygon fill="#ffffff" stroke="#000000" points="642,-95.5 642,-114.5 731,-114.5 731,-95.5 642,-95.5"/>
<text text-anchor="middle" x="686.5" y="-102.5" font-family="Helvetica,sans-Serif" font-size="10.00" fill="#000000">EthMacRxFilter</text>
</a>
</g>
</g>
<!-- Node108&#45;&gt;Node99 -->
<g id="edge51" class="edge">
<title>Node108&#45;&gt;Node99</title>
<path fill="none" stroke="#191970" d="M741.0844,-116.0038C773.9109,-122.6213 814.5896,-130.8218 842.4448,-136.4371"/>
<polygon fill="#191970" stroke="#191970" points="741.6663,-112.5507 731.1719,-114.0055 740.283,-119.4127 741.6663,-112.5507"/>
</g>
<!-- Node109 -->
<g id="node38" class="node">
<title>Node109</title>
<g id="a_node38"><a xlink:href="classEthMacRxFifo.html" target="_top" xlink:title="EthMacRxFifo">
<polygon fill="#ffffff" stroke="#000000" points="834,-19.5 834,-38.5 916,-38.5 916,-19.5 834,-19.5"/>
<text text-anchor="middle" x="875" y="-26.5" font-family="Helvetica,sans-Serif" font-size="10.00" fill="#000000">EthMacRxFifo</text>
</a>
</g>
</g>
<!-- Node109&#45;&gt;Node67 -->
<g id="edge52" class="edge">
<title>Node109&#45;&gt;Node67</title>
<path fill="none" stroke="#191970" d="M900.6975,-43.9558C918.0163,-54.6143 940.9134,-69.864 959,-86 997.5613,-120.4026 1035.0972,-169.7841 1050.1263,-190.3942"/>
<polygon fill="#191970" stroke="#191970" points="902.0851,-40.705 891.7158,-38.5302 898.4657,-46.6967 902.0851,-40.705"/>
</g>
<!-- Node110&#45;&gt;Node109 -->
<g id="edge53" class="edge">
<title>Node110&#45;&gt;Node109</title>
<path fill="none" stroke="#191970" d="M556.3261,-19.5959C575.0467,-15.7971 597.5266,-11.8725 618,-10 678.6358,-4.4542 694.2987,-5.2242 755,-10 781.39,-12.0763 810.745,-16.6831 833.8156,-20.8403"/>
<polygon fill="#191970" stroke="#191970" points="555.4223,-16.209 546.3491,-21.6796 556.8534,-23.0612 555.4223,-16.209"/>
</g>
<!-- Node111 -->
<g id="node40" class="node">
<title>Node111</title>
<g id="a_node40"><a xlink:href="classSsiIbFrameFilter.html" target="_top" xlink:title="SsiIbFrameFilter">
<polygon fill="#ffffff" stroke="#000000" points="305,-.5 305,-19.5 399,-19.5 399,-.5 305,-.5"/>
<text text-anchor="middle" x="352" y="-7.5" font-family="Helvetica,sans-Serif" font-size="10.00" fill="#000000">SsiIbFrameFilter</text>
</a>
</g>
</g>
<!-- Node111&#45;&gt;Node110 -->
<g id="edge54" class="edge">
<title>Node111&#45;&gt;Node110</title>
<path fill="none" stroke="#191970" d="M409.3,-16.6791C434.3972,-19.6046 462.8615,-22.9225 483.9242,-25.3777"/>
<polygon fill="#191970" stroke="#191970" points="409.4844,-13.177 399.1464,-15.4956 408.6738,-20.1299 409.4844,-13.177"/>
</g>
<!-- Node112&#45;&gt;Node110 -->
<g id="edge56" class="edge">
<title>Node112&#45;&gt;Node110</title>
<path fill="none" stroke="#191970" d="M254.7113,-74.3411C266.9726,-71.8408 279.9156,-69.27 292,-67 360.3189,-54.1664 440.7691,-40.9136 483.9159,-33.9563"/>
<polygon fill="#191970" stroke="#191970" points="253.6972,-70.9763 244.6059,-76.4168 255.1056,-77.8331 253.6972,-70.9763"/>
</g>
<!-- Node113 -->
<g id="node42" class="node">
<title>Node113</title>
<g id="a_node42"><a xlink:href="classXauiReg.html" target="_top" xlink:title="XauiReg(2)">
<polygon fill="#ffffff" stroke="#000000" points="1158.5,-418.5 1158.5,-437.5 1228.5,-437.5 1228.5,-418.5 1158.5,-418.5"/>
<text text-anchor="middle" x="1193.5" y="-425.5" font-family="Helvetica,sans-Serif" font-size="10.00" fill="#000000">XauiReg(2)</text>
</a>
</g>
</g>
<!-- Node113&#45;&gt;Node66 -->
<g id="edge58" class="edge">
<title>Node113&#45;&gt;Node66</title>
<path fill="none" stroke="#191970" d="M1238.9204,-428C1248.2409,-428 1258.185,-428 1267.9178,-428"/>
<polygon fill="#191970" stroke="#191970" points="1238.707,-424.5001 1228.7069,-428 1238.7069,-431.5001 1238.707,-424.5001"/>
</g>
<!-- Node79 -->
<g id="node43" class="node">
<title>Node79</title>
<g id="a_node43"><a xlink:href="classSynchronizerVector.html" target="_top" xlink:title="SynchronizerVector(2)">
<polygon fill="#ffffff" stroke="#000000" points="995,-385.5 995,-404.5 1119,-404.5 1119,-385.5 995,-385.5"/>
<text text-anchor="middle" x="1057" y="-392.5" font-family="Helvetica,sans-Serif" font-size="10.00" fill="#000000">SynchronizerVector(2)</text>
</a>
</g>
</g>
<!-- Node79&#45;&gt;Node113 -->
<g id="edge59" class="edge">
<title>Node79&#45;&gt;Node113</title>
<path fill="none" stroke="#191970" d="M1106.3662,-406.9347C1123.5574,-411.0908 1142.4837,-415.6664 1158.2924,-419.4883"/>
<polygon fill="#191970" stroke="#191970" points="1107.0239,-403.4929 1096.4815,-404.545 1105.379,-410.2969 1107.0239,-403.4929"/>
</g>
<!-- Node114 -->
<g id="node44" class="node">
<title>Node114</title>
<g id="a_node44"><a xlink:href="classSyncStatusVector.html" target="_top" xlink:title="SyncStatusVector">
<polygon fill="#ffffff" stroke="#000000" points="1006.5,-423.5 1006.5,-442.5 1107.5,-442.5 1107.5,-423.5 1006.5,-423.5"/>
<text text-anchor="middle" x="1057" y="-430.5" font-family="Helvetica,sans-Serif" font-size="10.00" fill="#000000">SyncStatusVector</text>
</a>
</g>
</g>
<!-- Node114&#45;&gt;Node113 -->
<g id="edge60" class="edge">
<title>Node114&#45;&gt;Node113</title>
<path fill="none" stroke="#191970" d="M1117.8272,-430.7719C1131.7065,-430.2635 1146.0002,-429.7399 1158.3756,-429.2866"/>
<polygon fill="#191970" stroke="#191970" points="1117.6927,-427.2744 1107.8276,-431.1382 1117.949,-434.2697 1117.6927,-427.2744"/>
</g>
<!-- Node115 -->
<g id="node45" class="node">
<title>Node115</title>
<g id="a_node45"><a xlink:href="classSynchronizerVector.html" target="_top" xlink:title="SynchronizerVector">
<polygon fill="#ffffff" stroke="#000000" points="820,-390.5 820,-409.5 930,-409.5 930,-390.5 820,-390.5"/>
<text text-anchor="middle" x="875" y="-397.5" font-family="Helvetica,sans-Serif" font-size="10.00" fill="#000000">SynchronizerVector</text>
</a>
</g>
</g>
<!-- Node115&#45;&gt;Node114 -->
<g id="edge61" class="edge">
<title>Node115&#45;&gt;Node114</title>
<path fill="none" stroke="#191970" d="M937.737,-411.3754C960.1461,-415.4386 985.0938,-419.9621 1006.3558,-423.8173"/>
<polygon fill="#191970" stroke="#191970" points="938.106,-407.8853 927.6419,-409.545 936.857,-414.773 938.106,-407.8853"/>
</g>
<!-- Node116 -->
<g id="node46" class="node">
<title>Node116</title>
<g id="a_node46"><a xlink:href="classSynchronizerOneShotCntVector.html" target="_top" xlink:title="SynchronizerOneShotCntVector">
<polygon fill="#ffffff" stroke="#000000" points="791,-428.5 791,-447.5 959,-447.5 959,-428.5 791,-428.5"/>
<text text-anchor="middle" x="875" y="-435.5" font-family="Helvetica,sans-Serif" font-size="10.00" fill="#000000">SynchronizerOneShotCntVector</text>
</a>
</g>
</g>
<!-- Node116&#45;&gt;Node114 -->
<g id="edge62" class="edge">
<title>Node116&#45;&gt;Node114</title>
<path fill="none" stroke="#191970" d="M969.2906,-435.4096C982.0303,-435.0596 994.6839,-434.712 1006.2509,-434.3942"/>
<polygon fill="#191970" stroke="#191970" points="968.9744,-431.9169 959.0743,-435.6903 969.1667,-438.9142 968.9744,-431.9169"/>
</g>
<!-- Node117&#45;&gt;Node116 -->
<g id="edge63" class="edge">
<title>Node117&#45;&gt;Node116</title>
<path fill="none" stroke="#191970" d="M585.9794,-445.2255C644.8113,-443.7547 728.5718,-441.6607 790.7882,-440.1053"/>
<polygon fill="#191970" stroke="#191970" points="585.5714,-441.7345 575.662,-445.4834 585.7464,-448.7323 585.5714,-441.7345"/>
</g>
<!-- Node118&#45;&gt;Node117 -->
<g id="edge65" class="edge">
<title>Node118&#45;&gt;Node117</title>
<path fill="none" stroke="#191970" d="M403.0279,-420.8961C425.9392,-426.2374 452.6039,-432.4537 474.164,-437.4799"/>
<polygon fill="#191970" stroke="#191970" points="403.6653,-417.4509 393.1318,-418.589 402.076,-424.2681 403.6653,-417.4509"/>
</g>
<!-- Node118&#45;&gt;Node120 -->
<g id="edge70" class="edge">
<title>Node118&#45;&gt;Node120</title>
<path fill="none" stroke="#191970" d="M414.0436,-409C425.1399,-409 436.7472,-409 447.9758,-409"/>
<polygon fill="#191970" stroke="#191970" points="414.0224,-405.5001 404.0224,-409 414.0223,-412.5001 414.0224,-405.5001"/>
</g>
<!-- Node119 -->
<g id="node49" class="node">
<title>Node119</title>
<g id="a_node49"><a xlink:href="classSynchronizerOneShotCnt.html" target="_top" xlink:title="SynchronizerOneShotCnt">
<polygon fill="#ffffff" stroke="#ff0000" points="618,-399.5 618,-418.5 755,-418.5 755,-399.5 618,-399.5"/>
<text text-anchor="middle" x="686.5" y="-406.5" font-family="Helvetica,sans-Serif" font-size="10.00" fill="#000000">SynchronizerOneShotCnt</text>
</a>
</g>
</g>
<!-- Node119&#45;&gt;Node116 -->
<g id="edge67" class="edge">
<title>Node119&#45;&gt;Node116</title>
<path fill="none" stroke="#191970" d="M758.596,-420.0917C776.5233,-422.8497 795.5842,-425.7822 812.9797,-428.4584"/>
<polygon fill="#191970" stroke="#191970" points="758.899,-416.5972 748.483,-418.5359 757.8345,-423.5158 758.899,-416.5972"/>
</g>
<!-- Node120&#45;&gt;Node119 -->
<g id="edge68" class="edge">
<title>Node120&#45;&gt;Node119</title>
<path fill="none" stroke="#191970" d="M592.56,-409C601.0427,-409 609.6333,-409 617.9957,-409"/>
<polygon fill="#191970" stroke="#191970" points="592.2891,-405.5001 582.2891,-409 592.2891,-412.5001 592.2891,-405.5001"/>
</g>
</g>
</svg>
