<?xml version="1.0" encoding="UTF-8" standalone="no"?>
<!DOCTYPE svg PUBLIC "-//W3C//DTD SVG 1.1//EN"
 "http://www.w3.org/Graphics/SVG/1.1/DTD/svg11.dtd">
<!-- Generated by graphviz version 2.40.1 (20161225.0304)
 -->
<!-- Title: FifoAlteraMf Pages: 1 -->
<!--zoomable 807 -->
<svg id="main" version="1.1" xmlns="http://www.w3.org/2000/svg" xmlns:xlink="http://www.w3.org/1999/xlink" xml:space="preserve" onload="init(evt)">
<style type="text/css"><![CDATA[
.edge:hover path { stroke: red; }
.edge:hover polygon { stroke: red; fill: red; }
]]></style>
<script type="text/javascript"><![CDATA[
var edges = document.getElementsByTagName('g');
if (edges && edges.length) {
  for (var i=0;i<edges.length;i++) {
    if (edges[i].id.substr(0,4)=='edge') {
      edges[i].setAttribute('class','edge');
    }
  }
}
]]></script>
        <defs>
                <circle id="rim" cx="0" cy="0" r="7"/>
                <circle id="rim2" cx="0" cy="0" r="3.5"/>
                <g id="zoomPlus">
                        <use xlink:href="#rim" fill="#404040">
                                <set attributeName="fill" to="#808080" begin="zoomplus.mouseover" end="zoomplus.mouseout"/>
                        </use>
                        <path d="M-4,0h8M0,-4v8" fill="none" stroke="white" stroke-width="1.5" pointer-events="none"/>
                </g>
                <g id="zoomMin">
                        <use xlink:href="#rim" fill="#404040">
                                <set attributeName="fill" to="#808080" begin="zoomminus.mouseover" end="zoomminus.mouseout"/>
                        </use>
                        <path d="M-4,0h8" fill="none" stroke="white" stroke-width="1.5" pointer-events="none"/>
                </g>
                <g id="dirArrow">
                        <path fill="none" stroke="white" stroke-width="1.5" d="M0,-3.0v7 M-2.5,-0.5L0,-3.0L2.5,-0.5"/>
                </g>
               <g id="resetDef">
                       <use xlink:href="#rim2" fill="#404040">
                               <set attributeName="fill" to="#808080" begin="reset.mouseover" end="reset.mouseout"/>
                       </use>
               </g>
        </defs>

<script type="text/javascript">
var viewWidth = 1026;
var viewHeight = 807;
var sectionId = 'dynsection-0';
</script>
<script xlink:href="svgpan.js"/>
<svg id="graph" class="graph">
<g id="viewport">
<title>FifoAlteraMf</title>
<polygon fill="#ffffff" stroke="transparent" points="-4,4 -4,-803 1022,-803 1022,4 -4,4"/>
<!-- Node0 -->
<g id="node1" class="node">
<title>Node0</title>
<polygon fill="#bfbfbf" stroke="#000000" points="142,-285.5 142,-304.5 217,-304.5 217,-285.5 142,-285.5"/>
<text text-anchor="middle" x="179.5" y="-292.5" font-family="Helvetica,sans-Serif" font-size="10.00" fill="#000000">FifoAlteraMf</text>
</g>
<!-- Node2 -->
<g id="node3" class="node">
<title>Node2</title>
<g id="a_node3"><a xlink:href="classFifo.html" target="_top" xlink:title="Fifo">
<polygon fill="#ffffff" stroke="#000000" points="253,-285.5 253,-304.5 287,-304.5 287,-285.5 253,-285.5"/>
<text text-anchor="middle" x="270" y="-292.5" font-family="Helvetica,sans-Serif" font-size="10.00" fill="#000000">Fifo</text>
</a>
</g>
</g>
<!-- Node0&#45;&gt;Node2 -->
<g id="edge2" class="edge">
<title>Node0&#45;&gt;Node2</title>
<path fill="none" stroke="#191970" d="M227.0959,-295C236.3336,-295 245.4405,-295 252.8712,-295"/>
<polygon fill="#191970" stroke="#191970" points="227.094,-291.5001 217.0939,-295 227.0939,-298.5001 227.094,-291.5001"/>
</g>
<!-- Node1 -->
<g id="node2" class="node">
<title>Node1</title>
<g id="a_node2"><a xlink:href="classFifoOutputPipeline.html" target="_top" xlink:title="FifoOutputPipeline">
<polygon fill="#ffffff" stroke="#000000" points="0,-285.5 0,-304.5 106,-304.5 106,-285.5 0,-285.5"/>
<text text-anchor="middle" x="53" y="-292.5" font-family="Helvetica,sans-Serif" font-size="10.00" fill="#000000">FifoOutputPipeline</text>
</a>
</g>
</g>
<!-- Node1&#45;&gt;Node0 -->
<g id="edge1" class="edge">
<title>Node1&#45;&gt;Node0</title>
<path fill="none" stroke="#191970" d="M116.3835,-295C125.0212,-295 133.6556,-295 141.6422,-295"/>
<polygon fill="#191970" stroke="#191970" points="116.2808,-291.5001 106.2808,-295 116.2807,-298.5001 116.2808,-291.5001"/>
</g>
<!-- Node3 -->
<g id="node4" class="node">
<title>Node3</title>
<g id="a_node4"><a xlink:href="classAxiStreamDmaV2Desc.html" target="_top" xlink:title="AxiStreamDmaV2Desc">
<polygon fill="#ffffff" stroke="#000000" points="326.5,-779.5 326.5,-798.5 454.5,-798.5 454.5,-779.5 326.5,-779.5"/>
<text text-anchor="middle" x="390.5" y="-786.5" font-family="Helvetica,sans-Serif" font-size="10.00" fill="#000000">AxiStreamDmaV2Desc</text>
</a>
</g>
</g>
<!-- Node2&#45;&gt;Node3 -->
<g id="edge3" class="edge">
<title>Node2&#45;&gt;Node3</title>
<path fill="none" stroke="#191970" d="M270.9095,-314.6118C275.0274,-399.7591 293.0336,-734.6934 323,-770 326.2299,-773.8055 330.1566,-776.8794 334.4741,-779.3584"/>
<polygon fill="#191970" stroke="#191970" points="274.4002,-314.3298 270.4299,-304.507 267.408,-314.6617 274.4002,-314.3298"/>
</g>
<!-- Node5 -->
<g id="node6" class="node">
<title>Node5</title>
<g id="a_node6"><a xlink:href="classAxiStreamScatterGather.html" target="_top" xlink:title="AxiStreamScatterGather">
<polygon fill="#ffffff" stroke="#000000" points="323,-741.5 323,-760.5 458,-760.5 458,-741.5 323,-741.5"/>
<text text-anchor="middle" x="390.5" y="-748.5" font-family="Helvetica,sans-Serif" font-size="10.00" fill="#000000">AxiStreamScatterGather</text>
</a>
</g>
</g>
<!-- Node2&#45;&gt;Node5 -->
<g id="edge5" class="edge">
<title>Node2&#45;&gt;Node5</title>
<path fill="none" stroke="#191970" d="M271.2284,-315.0529C276.3392,-395.8048 296.8764,-694.4049 323,-727 328.0558,-733.3083 334.8959,-737.9605 342.2881,-741.3907"/>
<polygon fill="#191970" stroke="#191970" points="274.7033,-314.5397 270.5874,-304.777 267.7168,-314.9755 274.7033,-314.5397"/>
</g>
<!-- Node6 -->
<g id="node7" class="node">
<title>Node6</title>
<g id="a_node7"><a xlink:href="classClinkData.html" target="_top" xlink:title="ClinkData">
<polygon fill="#ffffff" stroke="#000000" points="358,-342.5 358,-361.5 423,-361.5 423,-342.5 358,-342.5"/>
<text text-anchor="middle" x="390.5" y="-349.5" font-family="Helvetica,sans-Serif" font-size="10.00" fill="#000000">ClinkData</text>
</a>
</g>
</g>
<!-- Node2&#45;&gt;Node6 -->
<g id="edge6" class="edge">
<title>Node2&#45;&gt;Node6</title>
<path fill="none" stroke="#191970" d="M289.1258,-311.1928C298.7778,-318.6981 310.9692,-327.215 323,-333 333.8619,-338.2229 346.4176,-342.2477 357.7325,-345.22"/>
<polygon fill="#191970" stroke="#191970" points="291.0369,-308.238 281.053,-304.692 286.6465,-313.69 291.0369,-308.238"/>
</g>
<!-- Node8 -->
<g id="node9" class="node">
<title>Node8</title>
<g id="a_node9"><a xlink:href="classEthMacRxImportXgmii.html" target="_top" xlink:title="EthMacRxImportXgmii">
<polygon fill="#ffffff" stroke="#000000" points="328,-551.5 328,-570.5 453,-570.5 453,-551.5 328,-551.5"/>
<text text-anchor="middle" x="390.5" y="-558.5" font-family="Helvetica,sans-Serif" font-size="10.00" fill="#000000">EthMacRxImportXgmii</text>
</a>
</g>
</g>
<!-- Node2&#45;&gt;Node8 -->
<g id="edge8" class="edge">
<title>Node2&#45;&gt;Node8</title>
<path fill="none" stroke="#191970" d="M278.6009,-313.9862C302.4054,-366.534 368.5601,-512.5684 386.1552,-551.409"/>
<polygon fill="#191970" stroke="#191970" points="281.7462,-312.4472 274.4316,-304.7825 275.3699,-315.3358 281.7462,-312.4472"/>
</g>
<!-- Node44 -->
<g id="node12" class="node">
<title>Node44</title>
<g id="a_node12"><a xlink:href="classEthMacTxExportXgmii.html" target="_top" xlink:title="EthMacTxExportXgmii">
<polygon fill="#ffffff" stroke="#000000" points="653,-703.5 653,-722.5 777,-722.5 777,-703.5 653,-703.5"/>
<text text-anchor="middle" x="715" y="-710.5" font-family="Helvetica,sans-Serif" font-size="10.00" fill="#000000">EthMacTxExportXgmii</text>
</a>
</g>
</g>
<!-- Node2&#45;&gt;Node44 -->
<g id="edge11" class="edge">
<title>Node2&#45;&gt;Node44</title>
<path fill="none" stroke="#191970" d="M271.1182,-314.6537C274.7823,-372.3786 288.2489,-539.8775 323,-580 407.2203,-677.238 565.3152,-703.5193 652.7999,-710.5322"/>
<polygon fill="#191970" stroke="#191970" points="274.6101,-314.413 270.5126,-304.6426 267.6229,-314.8357 274.6101,-314.413"/>
</g>
<!-- Node47 -->
<g id="node15" class="node">
<title>Node47</title>
<g id="a_node15"><a xlink:href="classFifoCascade.html" target="_top" xlink:title="FifoCascade">
<polygon fill="#ffffff" stroke="#000000" points="353,-380.5 353,-399.5 428,-399.5 428,-380.5 353,-380.5"/>
<text text-anchor="middle" x="390.5" y="-387.5" font-family="Helvetica,sans-Serif" font-size="10.00" fill="#000000">FifoCascade</text>
</a>
</g>
</g>
<!-- Node2&#45;&gt;Node47 -->
<g id="edge14" class="edge">
<title>Node2&#45;&gt;Node47</title>
<path fill="none" stroke="#191970" d="M278.3879,-313.689C287.1165,-331.0456 302.3973,-356.3503 323,-371 331.731,-377.2083 342.4356,-381.3935 352.7251,-384.2129"/>
<polygon fill="#191970" stroke="#191970" points="281.4817,-312.0453 274.015,-304.5287 275.1645,-315.061 281.4817,-312.0453"/>
</g>
<!-- Node109 -->
<g id="node38" class="node">
<title>Node109</title>
<g id="a_node38"><a xlink:href="classFifoTbSubModule.html" target="_top" xlink:title="FifoTbSubModule">
<polygon fill="#ffffff" stroke="#000000" points="341,-304.5 341,-323.5 440,-323.5 440,-304.5 341,-304.5"/>
<text text-anchor="middle" x="390.5" y="-311.5" font-family="Helvetica,sans-Serif" font-size="10.00" fill="#000000">FifoTbSubModule</text>
</a>
</g>
</g>
<!-- Node2&#45;&gt;Node109 -->
<g id="edge41" class="edge">
<title>Node2&#45;&gt;Node109</title>
<path fill="none" stroke="#191970" d="M297.0676,-299.2679C309.9684,-301.3021 325.8188,-303.8013 340.776,-306.1597"/>
<polygon fill="#191970" stroke="#191970" points="297.4323,-295.7823 287.0091,-297.6819 296.3419,-302.6968 297.4323,-295.7823"/>
</g>
<!-- Node111 -->
<g id="node40" class="node">
<title>Node111</title>
<g id="a_node40"><a xlink:href="classiq16bTo32b.html" target="_top" xlink:title="iq16bTo32b">
<polygon fill="#ffffff" stroke="#000000" points="354.5,-266.5 354.5,-285.5 426.5,-285.5 426.5,-266.5 354.5,-266.5"/>
<text text-anchor="middle" x="390.5" y="-273.5" font-family="Helvetica,sans-Serif" font-size="10.00" fill="#000000">iq16bTo32b</text>
</a>
</g>
</g>
<!-- Node2&#45;&gt;Node111 -->
<g id="edge43" class="edge">
<title>Node2&#45;&gt;Node111</title>
<path fill="none" stroke="#191970" d="M297.2757,-290.6993C314.1236,-288.0427 335.9429,-284.6024 354.2363,-281.7179"/>
<polygon fill="#191970" stroke="#191970" points="296.3419,-287.3032 287.0091,-292.3181 297.4323,-294.2177 296.3419,-287.3032"/>
</g>
<!-- Node112 -->
<g id="node41" class="node">
<title>Node112</title>
<g id="a_node41"><a xlink:href="classiq32bTo16b.html" target="_top" xlink:title="iq32bTo16b">
<polygon fill="#ffffff" stroke="#000000" points="354.5,-228.5 354.5,-247.5 426.5,-247.5 426.5,-228.5 354.5,-228.5"/>
<text text-anchor="middle" x="390.5" y="-235.5" font-family="Helvetica,sans-Serif" font-size="10.00" fill="#000000">iq32bTo16b</text>
</a>
</g>
</g>
<!-- Node2&#45;&gt;Node112 -->
<g id="edge44" class="edge">
<title>Node2&#45;&gt;Node112</title>
<path fill="none" stroke="#191970" d="M289.1258,-278.8072C298.7778,-271.3019 310.9692,-262.785 323,-257 332.7648,-252.3047 343.8984,-248.5776 354.2688,-245.7131"/>
<polygon fill="#191970" stroke="#191970" points="286.6465,-276.31 281.053,-285.308 291.0369,-281.762 286.6465,-276.31"/>
</g>
<!-- Node113 -->
<g id="node42" class="node">
<title>Node113</title>
<g id="a_node42"><a xlink:href="classJesd16bTo32b.html" target="_top" xlink:title="Jesd16bTo32b">
<polygon fill="#ffffff" stroke="#000000" points="349,-190.5 349,-209.5 432,-209.5 432,-190.5 349,-190.5"/>
<text text-anchor="middle" x="390.5" y="-197.5" font-family="Helvetica,sans-Serif" font-size="10.00" fill="#000000">Jesd16bTo32b</text>
</a>
</g>
</g>
<!-- Node2&#45;&gt;Node113 -->
<g id="edge45" class="edge">
<title>Node2&#45;&gt;Node113</title>
<path fill="none" stroke="#191970" d="M278.3879,-276.311C287.1165,-258.9544 302.3973,-233.6497 323,-219 330.6397,-213.5677 339.7903,-209.6844 348.8517,-206.9097"/>
<polygon fill="#191970" stroke="#191970" points="275.1645,-274.939 274.015,-285.4713 281.4817,-277.9547 275.1645,-274.939"/>
</g>
<!-- Node114 -->
<g id="node43" class="node">
<title>Node114</title>
<g id="a_node43"><a xlink:href="classJesd32bTo16b.html" target="_top" xlink:title="Jesd32bTo16b">
<polygon fill="#ffffff" stroke="#000000" points="349,-152.5 349,-171.5 432,-171.5 432,-152.5 349,-152.5"/>
<text text-anchor="middle" x="390.5" y="-159.5" font-family="Helvetica,sans-Serif" font-size="10.00" fill="#000000">Jesd32bTo16b</text>
</a>
</g>
</g>
<!-- Node2&#45;&gt;Node114 -->
<g id="edge46" class="edge">
<title>Node2&#45;&gt;Node114</title>
<path fill="none" stroke="#191970" d="M273.8141,-275.4568C279.8099,-249.9809 293.8948,-205.7646 323,-181 330.3249,-174.7675 339.557,-170.5723 348.8216,-167.7504"/>
<polygon fill="#191970" stroke="#191970" points="270.3541,-274.8978 271.6612,-285.4117 277.196,-276.3775 270.3541,-274.8978"/>
</g>
<!-- Node115 -->
<g id="node44" class="node">
<title>Node115</title>
<g id="a_node44"><a xlink:href="classJesd32bTo64b.html" target="_top" xlink:title="Jesd32bTo64b">
<polygon fill="#ffffff" stroke="#000000" points="349,-114.5 349,-133.5 432,-133.5 432,-114.5 349,-114.5"/>
<text text-anchor="middle" x="390.5" y="-121.5" font-family="Helvetica,sans-Serif" font-size="10.00" fill="#000000">Jesd32bTo64b</text>
</a>
</g>
</g>
<!-- Node2&#45;&gt;Node115 -->
<g id="edge47" class="edge">
<title>Node2&#45;&gt;Node115</title>
<path fill="none" stroke="#191970" d="M271.2252,-275.1424C274.3084,-242.7605 285.1248,-178.6282 323,-143 330.094,-136.3269 339.346,-131.969 348.7145,-129.131"/>
<polygon fill="#191970" stroke="#191970" points="267.7314,-274.9268 270.4255,-285.1734 274.7092,-275.4832 267.7314,-274.9268"/>
</g>
<!-- Node116 -->
<g id="node45" class="node">
<title>Node116</title>
<g id="a_node45"><a xlink:href="classJesd64bTo32b.html" target="_top" xlink:title="Jesd64bTo32b">
<polygon fill="#ffffff" stroke="#000000" points="349,-76.5 349,-95.5 432,-95.5 432,-76.5 349,-76.5"/>
<text text-anchor="middle" x="390.5" y="-83.5" font-family="Helvetica,sans-Serif" font-size="10.00" fill="#000000">Jesd64bTo32b</text>
</a>
</g>
</g>
<!-- Node2&#45;&gt;Node116 -->
<g id="edge48" class="edge">
<title>Node2&#45;&gt;Node116</title>
<path fill="none" stroke="#191970" d="M272.9696,-275.5364C279.968,-232.1296 298.7476,-129.3094 323,-105 329.9646,-98.019 339.2796,-93.5535 348.7603,-90.7106"/>
<polygon fill="#191970" stroke="#191970" points="269.5098,-275.0081 271.414,-285.4304 276.4248,-276.0954 269.5098,-275.0081"/>
</g>
<!-- Node117 -->
<g id="node46" class="node">
<title>Node117</title>
<g id="a_node46"><a xlink:href="classUartWrapper.html" target="_top" xlink:title="UartWrapper">
<polygon fill="#ffffff" stroke="#000000" points="351.5,-38.5 351.5,-57.5 429.5,-57.5 429.5,-38.5 351.5,-38.5"/>
<text text-anchor="middle" x="390.5" y="-45.5" font-family="Helvetica,sans-Serif" font-size="10.00" fill="#000000">UartWrapper</text>
</a>
</g>
</g>
<!-- Node2&#45;&gt;Node117 -->
<g id="edge49" class="edge">
<title>Node2&#45;&gt;Node117</title>
<path fill="none" stroke="#191970" d="M272.0074,-275.4037C277.4707,-225.8244 294.1614,-97.1961 323,-67 330.4833,-59.1644 340.9218,-54.4806 351.3562,-51.7041"/>
<polygon fill="#191970" stroke="#191970" points="268.5144,-275.1521 270.9346,-285.4668 275.475,-275.8942 268.5144,-275.1521"/>
</g>
<!-- Node4 -->
<g id="node5" class="node">
<title>Node4</title>
<g id="a_node5"><a xlink:href="classAxiStreamDmaV2.html" target="_top" xlink:title="AxiStreamDmaV2">
<polygon fill="#ffffff" stroke="#000000" points="500,-779.5 500,-798.5 604,-798.5 604,-779.5 500,-779.5"/>
<text text-anchor="middle" x="552" y="-786.5" font-family="Helvetica,sans-Serif" font-size="10.00" fill="#000000">AxiStreamDmaV2</text>
</a>
</g>
</g>
<!-- Node3&#45;&gt;Node4 -->
<g id="edge4" class="edge">
<title>Node3&#45;&gt;Node4</title>
<path fill="none" stroke="#191970" d="M465.0528,-789C476.808,-789 488.7394,-789 499.8426,-789"/>
<polygon fill="#191970" stroke="#191970" points="464.7932,-785.5001 454.7931,-789 464.7931,-792.5001 464.7932,-785.5001"/>
</g>
<!-- Node7 -->
<g id="node8" class="node">
<title>Node7</title>
<g id="a_node8"><a xlink:href="classClinkTop.html" target="_top" xlink:title="ClinkTop">
<polygon fill="#ffffff" stroke="#ff0000" points="839.5,-256.5 839.5,-275.5 897.5,-275.5 897.5,-256.5 839.5,-256.5"/>
<text text-anchor="middle" x="868.5" y="-263.5" font-family="Helvetica,sans-Serif" font-size="10.00" fill="#000000">ClinkTop</text>
</a>
</g>
</g>
<!-- Node6&#45;&gt;Node7 -->
<g id="edge7" class="edge">
<title>Node6&#45;&gt;Node7</title>
<path fill="none" stroke="#191970" d="M433.2841,-347.2203C442.4624,-344.3602 451.3786,-339.9043 458,-333 506.0532,-282.8937 439.5457,-224.0637 494,-181 526.3079,-155.4502 765.2386,-192.3772 784,-200 815.7319,-212.8927 845.502,-241.3478 859.7377,-256.334"/>
<polygon fill="#191970" stroke="#191970" points="432.1562,-343.8952 423.318,-349.7378 433.8706,-350.682 432.1562,-343.8952"/>
</g>
<!-- Node9 -->
<g id="node10" class="node">
<title>Node9</title>
<g id="a_node10"><a xlink:href="classEthMacRxImport.html" target="_top" xlink:title="EthMacRxImport">
<polygon fill="#ffffff" stroke="#000000" points="820,-608.5 820,-627.5 917,-627.5 917,-608.5 820,-608.5"/>
<text text-anchor="middle" x="868.5" y="-615.5" font-family="Helvetica,sans-Serif" font-size="10.00" fill="#000000">EthMacRxImport</text>
</a>
</g>
</g>
<!-- Node8&#45;&gt;Node9 -->
<g id="edge9" class="edge">
<title>Node8&#45;&gt;Node9</title>
<path fill="none" stroke="#191970" d="M432.6365,-573.3936C482.8982,-587.4762 569.7153,-609.5941 646,-618 705.5139,-624.5579 774.527,-623.1746 819.719,-621.0623"/>
<polygon fill="#191970" stroke="#191970" points="433.3596,-569.9608 422.7843,-570.6045 431.4528,-576.6961 433.3596,-569.9608"/>
</g>
<!-- Node10 -->
<g id="node11" class="node">
<title>Node10</title>
<g id="a_node11"><a xlink:href="classEthMacRx.html" target="_top" xlink:title="EthMacRx">
<polygon fill="#ffffff" stroke="#ff0000" points="953,-608.5 953,-627.5 1018,-627.5 1018,-608.5 953,-608.5"/>
<text text-anchor="middle" x="985.5" y="-615.5" font-family="Helvetica,sans-Serif" font-size="10.00" fill="#000000">EthMacRx</text>
</a>
</g>
</g>
<!-- Node9&#45;&gt;Node10 -->
<g id="edge10" class="edge">
<title>Node9&#45;&gt;Node10</title>
<path fill="none" stroke="#191970" d="M927.3629,-618C936.1396,-618 944.9054,-618 952.8701,-618"/>
<polygon fill="#191970" stroke="#191970" points="927.1021,-614.5001 917.1021,-618 927.1021,-621.5001 927.1021,-614.5001"/>
</g>
<!-- Node45 -->
<g id="node13" class="node">
<title>Node45</title>
<g id="a_node13"><a xlink:href="classEthMacTxExport.html" target="_top" xlink:title="EthMacTxExport">
<polygon fill="#ffffff" stroke="#000000" points="821,-696.5 821,-715.5 916,-715.5 916,-696.5 821,-696.5"/>
<text text-anchor="middle" x="868.5" y="-703.5" font-family="Helvetica,sans-Serif" font-size="10.00" fill="#000000">EthMacTxExport</text>
</a>
</g>
</g>
<!-- Node44&#45;&gt;Node45 -->
<g id="edge12" class="edge">
<title>Node44&#45;&gt;Node45</title>
<path fill="none" stroke="#191970" d="M787.6771,-709.6857C798.8961,-709.1741 810.2314,-708.6572 820.7206,-708.1789"/>
<polygon fill="#191970" stroke="#191970" points="787.2645,-706.2008 777.4343,-710.1528 787.5834,-713.1936 787.2645,-706.2008"/>
</g>
<!-- Node46 -->
<g id="node14" class="node">
<title>Node46</title>
<g id="a_node14"><a xlink:href="classEthMacTx.html" target="_top" xlink:title="EthMacTx">
<polygon fill="#ffffff" stroke="#ff0000" points="953.5,-651.5 953.5,-670.5 1017.5,-670.5 1017.5,-651.5 953.5,-651.5"/>
<text text-anchor="middle" x="985.5" y="-658.5" font-family="Helvetica,sans-Serif" font-size="10.00" fill="#000000">EthMacTx</text>
</a>
</g>
</g>
<!-- Node45&#45;&gt;Node46 -->
<g id="edge13" class="edge">
<title>Node45&#45;&gt;Node46</title>
<path fill="none" stroke="#191970" d="M902.8784,-692.7775C921.4281,-685.643 943.9006,-676.9998 960.7231,-670.5296"/>
<polygon fill="#191970" stroke="#191970" points="901.3897,-689.6001 893.3127,-696.4567 903.9026,-696.1335 901.3897,-689.6001"/>
</g>
<!-- Node48 -->
<g id="node16" class="node">
<title>Node48</title>
<g id="a_node16"><a xlink:href="classAxiLiteFifoPop.html" target="_top" xlink:title="AxiLiteFifoPop">
<polygon fill="#ffffff" stroke="#000000" points="509,-190.5 509,-209.5 595,-209.5 595,-190.5 509,-190.5"/>
<text text-anchor="middle" x="552" y="-197.5" font-family="Helvetica,sans-Serif" font-size="10.00" fill="#000000">AxiLiteFifoPop</text>
</a>
</g>
</g>
<!-- Node47&#45;&gt;Node48 -->
<g id="edge15" class="edge">
<title>Node47&#45;&gt;Node48</title>
<path fill="none" stroke="#191970" d="M437.8735,-383.6414C445.3905,-380.7956 452.4898,-376.7456 458,-371 506.0532,-320.8937 447.0143,-270.1087 494,-219 498.0876,-214.5537 503.2303,-211.1455 508.7557,-208.5334"/>
<polygon fill="#191970" stroke="#191970" points="436.7294,-380.3317 428.2166,-386.6391 438.8046,-387.0171 436.7294,-380.3317"/>
</g>
<!-- Node49 -->
<g id="node17" class="node">
<title>Node49</title>
<g id="a_node17"><a xlink:href="classAxiLiteFifoPush.html" target="_top" xlink:title="AxiLiteFifoPush">
<polygon fill="#ffffff" stroke="#000000" points="506.5,-494.5 506.5,-513.5 597.5,-513.5 597.5,-494.5 506.5,-494.5"/>
<text text-anchor="middle" x="552" y="-501.5" font-family="Helvetica,sans-Serif" font-size="10.00" fill="#000000">AxiLiteFifoPush</text>
</a>
</g>
</g>
<!-- Node47&#45;&gt;Node49 -->
<g id="edge16" class="edge">
<title>Node47&#45;&gt;Node49</title>
<path fill="none" stroke="#191970" d="M405.1228,-407.3533C423.7634,-428.4613 457.9241,-463.8826 494,-485 500.4011,-488.747 507.6382,-491.8654 514.7755,-494.4189"/>
<polygon fill="#191970" stroke="#191970" points="407.5299,-404.7864 398.3374,-399.5186 402.2385,-409.3691 407.5299,-404.7864"/>
</g>
<!-- Node50 -->
<g id="node18" class="node">
<title>Node50</title>
<g id="a_node18"><a xlink:href="classAxiLiteFifoPushPop.html" target="_top" xlink:title="AxiLiteFifoPushPop">
<polygon fill="#ffffff" stroke="#000000" points="497.5,-266.5 497.5,-285.5 606.5,-285.5 606.5,-266.5 497.5,-266.5"/>
<text text-anchor="middle" x="552" y="-273.5" font-family="Helvetica,sans-Serif" font-size="10.00" fill="#000000">AxiLiteFifoPushPop</text>
</a>
</g>
</g>
<!-- Node47&#45;&gt;Node50 -->
<g id="edge17" class="edge">
<title>Node47&#45;&gt;Node50</title>
<path fill="none" stroke="#191970" d="M438.1494,-382.1785C445.3294,-379.4819 452.2454,-375.8608 458,-371 486.5527,-346.8819 465.9624,-319.715 494,-295 498.3718,-291.1463 503.5422,-288.0715 508.9663,-285.6188"/>
<polygon fill="#191970" stroke="#191970" points="436.7513,-378.9502 428.2794,-385.3123 438.8697,-385.6219 436.7513,-378.9502"/>
</g>
<!-- Node52 -->
<g id="node20" class="node">
<title>Node52</title>
<g id="a_node20"><a xlink:href="classAxiReadPathFifo.html" target="_top" xlink:title="AxiReadPathFifo">
<polygon fill="#ffffff" stroke="#000000" points="504.5,-228.5 504.5,-247.5 599.5,-247.5 599.5,-228.5 504.5,-228.5"/>
<text text-anchor="middle" x="552" y="-235.5" font-family="Helvetica,sans-Serif" font-size="10.00" fill="#000000">AxiReadPathFifo</text>
</a>
</g>
</g>
<!-- Node47&#45;&gt;Node52 -->
<g id="edge19" class="edge">
<title>Node47&#45;&gt;Node52</title>
<path fill="none" stroke="#191970" d="M437.7729,-383.2081C445.2371,-380.404 452.3444,-376.4802 458,-371 496.1577,-334.0256 456.6307,-294.771 494,-257 497.8752,-253.0831 502.5692,-249.9736 507.5894,-247.5049"/>
<polygon fill="#191970" stroke="#191970" points="436.7121,-379.8726 428.2097,-386.1939 438.7984,-386.5545 436.7121,-379.8726"/>
</g>
<!-- Node55 -->
<g id="node22" class="node">
<title>Node55</title>
<g id="a_node22"><a xlink:href="classAxiStreamDmaFifo.html" target="_top" xlink:title="AxiStreamDmaFifo">
<polygon fill="#ffffff" stroke="#000000" points="498,-456.5 498,-475.5 606,-475.5 606,-456.5 498,-456.5"/>
<text text-anchor="middle" x="552" y="-463.5" font-family="Helvetica,sans-Serif" font-size="10.00" fill="#000000">AxiStreamDmaFifo</text>
</a>
</g>
</g>
<!-- Node47&#45;&gt;Node55 -->
<g id="edge21" class="edge">
<title>Node47&#45;&gt;Node55</title>
<path fill="none" stroke="#191970" d="M414.5151,-404.9106C435.0866,-417.2683 465.7754,-434.7332 494,-447 502.0658,-450.5055 510.9983,-453.7351 519.3876,-456.4993"/>
<polygon fill="#191970" stroke="#191970" points="416.1842,-401.8294 405.8204,-399.6291 412.5501,-407.8121 416.1842,-401.8294"/>
</g>
<!-- Node56 -->
<g id="node23" class="node">
<title>Node56</title>
<g id="a_node23"><a xlink:href="classAxiStreamFifo.html" target="_top" xlink:title="AxiStreamFifo">
<polygon fill="#ffffff" stroke="#000000" points="509.5,-418.5 509.5,-437.5 594.5,-437.5 594.5,-418.5 509.5,-418.5"/>
<text text-anchor="middle" x="552" y="-425.5" font-family="Helvetica,sans-Serif" font-size="10.00" fill="#000000">AxiStreamFifo</text>
</a>
</g>
</g>
<!-- Node47&#45;&gt;Node56 -->
<g id="edge22" class="edge">
<title>Node47&#45;&gt;Node56</title>
<path fill="none" stroke="#191970" d="M438.3799,-401.2659C461.6622,-406.744 489.3404,-413.2566 511.5495,-418.4822"/>
<polygon fill="#191970" stroke="#191970" points="438.9004,-397.7928 428.3646,-398.9093 437.2971,-404.6067 438.9004,-397.7928"/>
</g>
<!-- Node57 -->
<g id="node24" class="node">
<title>Node57</title>
<g id="a_node24"><a xlink:href="classAxiStreamFifoV2.html" target="_top" xlink:title="AxiStreamFifoV2">
<polygon fill="#ffffff" stroke="#ff0000" points="503,-532.5 503,-551.5 601,-551.5 601,-532.5 503,-532.5"/>
<text text-anchor="middle" x="552" y="-539.5" font-family="Helvetica,sans-Serif" font-size="10.00" fill="#000000">AxiStreamFifoV2</text>
</a>
</g>
</g>
<!-- Node47&#45;&gt;Node57 -->
<g id="edge23" class="edge">
<title>Node47&#45;&gt;Node57</title>
<path fill="none" stroke="#191970" d="M400.167,-408.5838C415.9948,-437.2413 450.1166,-492.1307 494,-523 499.4599,-526.8407 505.7451,-529.9418 512.1188,-532.4346"/>
<polygon fill="#191970" stroke="#191970" points="403.1662,-406.7711 395.3455,-399.6236 397.002,-410.0882 403.1662,-406.7711"/>
</g>
<!-- Node105 -->
<g id="node35" class="node">
<title>Node105</title>
<g id="a_node35"><a xlink:href="classAxiWritePathFifo.html" target="_top" xlink:title="AxiWritePathFifo">
<polygon fill="#ffffff" stroke="#ff0000" points="504,-380.5 504,-399.5 600,-399.5 600,-380.5 504,-380.5"/>
<text text-anchor="middle" x="552" y="-387.5" font-family="Helvetica,sans-Serif" font-size="10.00" fill="#000000">AxiWritePathFifo</text>
</a>
</g>
</g>
<!-- Node47&#45;&gt;Node105 -->
<g id="edge38" class="edge">
<title>Node47&#45;&gt;Node105</title>
<path fill="none" stroke="#191970" d="M438.5085,-390C459.1693,-390 483.2727,-390 503.9393,-390"/>
<polygon fill="#191970" stroke="#191970" points="438.3646,-386.5001 428.3646,-390 438.3645,-393.5001 438.3646,-386.5001"/>
</g>
<!-- Node107 -->
<g id="node36" class="node">
<title>Node107</title>
<g id="a_node36"><a xlink:href="classFifoMux.html" target="_top" xlink:title="FifoMux">
<polygon fill="#ffffff" stroke="#000000" points="525,-342.5 525,-361.5 579,-361.5 579,-342.5 525,-342.5"/>
<text text-anchor="middle" x="552" y="-349.5" font-family="Helvetica,sans-Serif" font-size="10.00" fill="#000000">FifoMux</text>
</a>
</g>
</g>
<!-- Node47&#45;&gt;Node107 -->
<g id="edge39" class="edge">
<title>Node47&#45;&gt;Node107</title>
<path fill="none" stroke="#191970" d="M438.45,-378.7176C466.7061,-372.0691 501.4176,-363.9017 524.97,-358.36"/>
<polygon fill="#191970" stroke="#191970" points="437.2971,-375.3933 428.3646,-381.0907 438.9004,-382.2072 437.2971,-375.3933"/>
</g>
<!-- Node108 -->
<g id="node37" class="node">
<title>Node108</title>
<g id="a_node37"><a xlink:href="classSspDecoder8b10bTb.html" target="_top" xlink:title="SspDecoder8b10bTb">
<polygon fill="#ffffff" stroke="#000000" points="494,-304.5 494,-323.5 610,-323.5 610,-304.5 494,-304.5"/>
<text text-anchor="middle" x="552" y="-311.5" font-family="Helvetica,sans-Serif" font-size="10.00" fill="#000000">SspDecoder8b10bTb</text>
</a>
</g>
</g>
<!-- Node47&#45;&gt;Node108 -->
<g id="edge40" class="edge">
<title>Node47&#45;&gt;Node108</title>
<path fill="none" stroke="#191970" d="M437.686,-380.2605C444.7622,-377.8078 451.7672,-374.765 458,-371 477.9133,-358.9711 474.3448,-345.4462 494,-333 499.9979,-329.202 506.8291,-326.0905 513.6466,-323.5664"/>
<polygon fill="#191970" stroke="#191970" points="436.5697,-376.9422 428.0584,-383.2515 438.6465,-383.627 436.5697,-376.9422"/>
</g>
<!-- Node51 -->
<g id="node19" class="node">
<title>Node51</title>
<g id="a_node19"><a xlink:href="classAxiStreamDma.html" target="_top" xlink:title="AxiStreamDma">
<polygon fill="#ffffff" stroke="#000000" points="669.5,-247.5 669.5,-266.5 760.5,-266.5 760.5,-247.5 669.5,-247.5"/>
<text text-anchor="middle" x="715" y="-254.5" font-family="Helvetica,sans-Serif" font-size="10.00" fill="#000000">AxiStreamDma</text>
</a>
</g>
</g>
<!-- Node50&#45;&gt;Node51 -->
<g id="edge18" class="edge">
<title>Node50&#45;&gt;Node51</title>
<path fill="none" stroke="#191970" d="M616.9208,-268.4325C634.4836,-266.3853 653.119,-264.2131 669.3753,-262.3182"/>
<polygon fill="#191970" stroke="#191970" points="616.2576,-264.9861 606.7301,-269.6204 617.0681,-271.939 616.2576,-264.9861"/>
</g>
<!-- Node53 -->
<g id="node21" class="node">
<title>Node53</title>
<g id="a_node21"><a xlink:href="classAxiReadEmulate.html" target="_top" xlink:title="AxiReadEmulate">
<polygon fill="#ffffff" stroke="#ff0000" points="666.5,-209.5 666.5,-228.5 763.5,-228.5 763.5,-209.5 666.5,-209.5"/>
<text text-anchor="middle" x="715" y="-216.5" font-family="Helvetica,sans-Serif" font-size="10.00" fill="#000000">AxiReadEmulate</text>
</a>
</g>
</g>
<!-- Node52&#45;&gt;Node53 -->
<g id="edge20" class="edge">
<title>Node52&#45;&gt;Node53</title>
<path fill="none" stroke="#191970" d="M609.6465,-231.2805C628.14,-229.1248 648.4304,-226.7597 666.2249,-224.6854"/>
<polygon fill="#191970" stroke="#191970" points="609.112,-227.819 599.5845,-232.4533 609.9225,-234.7719 609.112,-227.819"/>
</g>
<!-- Node57&#45;&gt;Node44 -->
<g id="edge35" class="edge">
<title>Node57&#45;&gt;Node44</title>
<path fill="none" stroke="#191970" d="M565.9581,-559.5323C583.7712,-581.5823 615.8935,-620.2738 646,-651 665.161,-670.5554 689.3013,-691.4795 703.3582,-703.3309"/>
<polygon fill="#191970" stroke="#191970" points="568.6496,-557.294 559.659,-551.6886 563.1917,-561.6772 568.6496,-557.294"/>
</g>
<!-- Node58 -->
<g id="node25" class="node">
<title>Node58</title>
<g id="a_node25"><a xlink:href="classAxiLiteSrpV0.html" target="_top" xlink:title="AxiLiteSrpV0">
<polygon fill="#ffffff" stroke="#ff0000" points="675.5,-551.5 675.5,-570.5 754.5,-570.5 754.5,-551.5 675.5,-551.5"/>
<text text-anchor="middle" x="715" y="-558.5" font-family="Helvetica,sans-Serif" font-size="10.00" fill="#000000">AxiLiteSrpV0</text>
</a>
</g>
</g>
<!-- Node57&#45;&gt;Node58 -->
<g id="edge24" class="edge">
<title>Node57&#45;&gt;Node58</title>
<path fill="none" stroke="#191970" d="M611.2877,-548.9108C632.6111,-551.3964 656.1306,-554.1379 675.374,-556.381"/>
<polygon fill="#191970" stroke="#191970" points="611.6857,-545.4336 601.3477,-547.7522 610.8752,-552.3865 611.6857,-545.4336"/>
</g>
<!-- Node60 -->
<g id="node26" class="node">
<title>Node60</title>
<g id="a_node26"><a xlink:href="classAxiStreamDmaRingRead.html" target="_top" xlink:title="AxiStreamDmaRingRead">
<polygon fill="#ffffff" stroke="#000000" points="646.5,-513.5 646.5,-532.5 783.5,-532.5 783.5,-513.5 646.5,-513.5"/>
<text text-anchor="middle" x="715" y="-520.5" font-family="Helvetica,sans-Serif" font-size="10.00" fill="#000000">AxiStreamDmaRingRead</text>
</a>
</g>
</g>
<!-- Node57&#45;&gt;Node60 -->
<g id="edge25" class="edge">
<title>Node57&#45;&gt;Node60</title>
<path fill="none" stroke="#191970" d="M611.5224,-535.0618C622.8178,-533.7452 634.7218,-532.3576 646.2747,-531.0109"/>
<polygon fill="#191970" stroke="#191970" points="610.8752,-531.6135 601.3477,-536.2478 611.6857,-538.5664 610.8752,-531.6135"/>
</g>
<!-- Node61 -->
<g id="node27" class="node">
<title>Node61</title>
<g id="a_node27"><a xlink:href="classAxiStreamDmaRingWrite.html" target="_top" xlink:title="AxiStreamDmaRingWrite">
<polygon fill="#ffffff" stroke="#000000" points="646,-475.5 646,-494.5 784,-494.5 784,-475.5 646,-475.5"/>
<text text-anchor="middle" x="715" y="-482.5" font-family="Helvetica,sans-Serif" font-size="10.00" fill="#000000">AxiStreamDmaRingWrite</text>
</a>
</g>
</g>
<!-- Node57&#45;&gt;Node61 -->
<g id="edge26" class="edge">
<title>Node57&#45;&gt;Node61</title>
<path fill="none" stroke="#191970" d="M594.1684,-529.1176C599.5485,-527.2025 604.9396,-525.146 610,-523 626.6558,-515.9365 629.1799,-510.6629 646,-504 655.1259,-500.385 665.1902,-497.1918 674.7448,-494.5042"/>
<polygon fill="#191970" stroke="#191970" points="592.8991,-525.8526 584.5702,-532.4009 595.1647,-532.4759 592.8991,-525.8526"/>
</g>
<!-- Node62 -->
<g id="node28" class="node">
<title>Node62</title>
<g id="a_node28"><a xlink:href="classCaui4GtyIpWrapper.html" target="_top" xlink:title="Caui4GtyIpWrapper">
<polygon fill="#ffffff" stroke="#ff0000" points="659.5,-437.5 659.5,-456.5 770.5,-456.5 770.5,-437.5 659.5,-437.5"/>
<text text-anchor="middle" x="715" y="-444.5" font-family="Helvetica,sans-Serif" font-size="10.00" fill="#000000">Caui4GtyIpWrapper</text>
</a>
</g>
</g>
<!-- Node57&#45;&gt;Node62 -->
<g id="edge27" class="edge">
<title>Node57&#45;&gt;Node62</title>
<path fill="none" stroke="#191970" d="M602.5986,-527.9169C605.1997,-526.4353 607.6886,-524.8014 610,-523 633.6332,-504.5813 621.9327,-483.8478 646,-466 651.1897,-462.1514 657.118,-459.0824 663.2708,-456.635"/>
<polygon fill="#191970" stroke="#191970" points="600.8749,-524.8634 593.4178,-532.3896 603.9407,-531.1563 600.8749,-524.8634"/>
</g>
<!-- Node65 -->
<g id="node29" class="node">
<title>Node65</title>
<g id="a_node29"><a xlink:href="classClinkFraming.html" target="_top" xlink:title="ClinkFraming">
<polygon fill="#ffffff" stroke="#ff0000" points="675,-361.5 675,-380.5 755,-380.5 755,-361.5 675,-361.5"/>
<text text-anchor="middle" x="715" y="-368.5" font-family="Helvetica,sans-Serif" font-size="10.00" fill="#000000">ClinkFraming</text>
</a>
</g>
</g>
<!-- Node57&#45;&gt;Node65 -->
<g id="edge28" class="edge">
<title>Node57&#45;&gt;Node65</title>
<path fill="none" stroke="#191970" d="M605.9777,-526.694C607.3995,-525.5502 608.7463,-524.321 610,-523 652.1566,-478.5821 602.7925,-433.3963 646,-390 653.7146,-382.2516 664.2788,-377.5852 674.8218,-374.7973"/>
<polygon fill="#191970" stroke="#191970" points="603.6731,-524.0138 597.1419,-532.3561 607.4499,-529.9076 603.6731,-524.0138"/>
</g>
<!-- Node67 -->
<g id="node30" class="node">
<title>Node67</title>
<g id="a_node30"><a xlink:href="classClinkUart.html" target="_top" xlink:title="ClinkUart">
<polygon fill="#ffffff" stroke="#ff0000" points="684,-399.5 684,-418.5 746,-418.5 746,-399.5 684,-399.5"/>
<text text-anchor="middle" x="715" y="-406.5" font-family="Helvetica,sans-Serif" font-size="10.00" fill="#000000">ClinkUart</text>
</a>
</g>
</g>
<!-- Node57&#45;&gt;Node67 -->
<g id="edge30" class="edge">
<title>Node57&#45;&gt;Node67</title>
<path fill="none" stroke="#191970" d="M604.6867,-527.3467C606.5679,-526.0213 608.3504,-524.576 610,-523 642.6479,-491.8097 612.6151,-458.4 646,-428 656.2893,-418.6306 670.7825,-413.8227 683.8318,-411.3784"/>
<polygon fill="#191970" stroke="#191970" points="602.8143,-524.3864 595.9114,-532.4239 606.3199,-530.4454 602.8143,-524.3864"/>
</g>
<!-- Node69 -->
<g id="node31" class="node">
<title>Node69</title>
<g id="a_node31"><a xlink:href="classEthMacRxImportGmii.html" target="_top" xlink:title="EthMacRxImportGmii">
<polygon fill="#ffffff" stroke="#000000" points="655,-589.5 655,-608.5 775,-608.5 775,-589.5 655,-589.5"/>
<text text-anchor="middle" x="715" y="-596.5" font-family="Helvetica,sans-Serif" font-size="10.00" fill="#000000">EthMacRxImportGmii</text>
</a>
</g>
</g>
<!-- Node57&#45;&gt;Node69 -->
<g id="edge31" class="edge">
<title>Node57&#45;&gt;Node69</title>
<path fill="none" stroke="#191970" d="M583.2471,-555.6884C601.3766,-563.363 624.7577,-572.8085 646,-580 656.0035,-583.3867 666.971,-586.619 677.1594,-589.4262"/>
<polygon fill="#191970" stroke="#191970" points="584.3331,-552.3463 573.7624,-551.6324 581.5808,-558.7825 584.3331,-552.3463"/>
</g>
<!-- Node70 -->
<g id="node32" class="node">
<title>Node70</title>
<g id="a_node32"><a xlink:href="classEthMacTxCsum.html" target="_top" xlink:title="EthMacTxCsum">
<polygon fill="#ffffff" stroke="#000000" points="822.5,-649.5 822.5,-668.5 914.5,-668.5 914.5,-649.5 822.5,-649.5"/>
<text text-anchor="middle" x="868.5" y="-656.5" font-family="Helvetica,sans-Serif" font-size="10.00" fill="#000000">EthMacTxCsum</text>
</a>
</g>
</g>
<!-- Node57&#45;&gt;Node70 -->
<g id="edge33" class="edge">
<title>Node57&#45;&gt;Node70</title>
<path fill="none" stroke="#191970" d="M567.8886,-559.1334C585.2998,-576.7935 614.9159,-603.704 646,-618 703.097,-644.2597 775.7368,-653.7104 822.1874,-657.1056"/>
<polygon fill="#191970" stroke="#191970" points="570.2409,-556.53 560.7863,-551.7487 565.1957,-561.3824 570.2409,-556.53"/>
</g>
<!-- Node71 -->
<g id="node33" class="node">
<title>Node71</title>
<g id="a_node33"><a xlink:href="classEthMacTxFifo.html" target="_top" xlink:title="EthMacTxFifo">
<polygon fill="#ffffff" stroke="#ff0000" points="674.5,-323.5 674.5,-342.5 755.5,-342.5 755.5,-323.5 674.5,-323.5"/>
<text text-anchor="middle" x="715" y="-330.5" font-family="Helvetica,sans-Serif" font-size="10.00" fill="#000000">EthMacTxFifo</text>
</a>
</g>
</g>
<!-- Node57&#45;&gt;Node71 -->
<g id="edge36" class="edge">
<title>Node57&#45;&gt;Node71</title>
<path fill="none" stroke="#191970" d="M606.1606,-526.7154C607.523,-525.5652 608.8087,-524.3289 610,-523 661.8429,-465.17 592.788,-408.5728 646,-352 653.4062,-344.126 663.7476,-339.4095 674.1737,-336.6138"/>
<polygon fill="#191970" stroke="#191970" points="604.0132,-523.9406 597.6408,-532.4048 607.9007,-529.762 604.0132,-523.9406"/>
</g>
<!-- Node72 -->
<g id="node34" class="node">
<title>Node72</title>
<g id="a_node34"><a xlink:href="classfifo__tb.html" target="_top" xlink:title="fifo_tb">
<polygon fill="#ffffff" stroke="#000000" points="691.5,-285.5 691.5,-304.5 738.5,-304.5 738.5,-285.5 691.5,-285.5"/>
<text text-anchor="middle" x="715" y="-292.5" font-family="Helvetica,sans-Serif" font-size="10.00" fill="#000000">fifo_tb</text>
</a>
</g>
</g>
<!-- Node57&#45;&gt;Node72 -->
<g id="edge37" class="edge">
<title>Node57&#45;&gt;Node72</title>
<path fill="none" stroke="#191970" d="M606.3075,-526.7008C607.6208,-525.5546 608.8572,-524.3231 610,-523 671.6112,-451.667 582.6994,-383.8382 646,-314 657.3483,-301.4796 676.1127,-296.8999 691.2107,-295.3574"/>
<polygon fill="#191970" stroke="#191970" points="604.3155,-523.823 598.0634,-532.3765 608.2849,-529.5887 604.3155,-523.823"/>
</g>
<!-- Node65&#45;&gt;Node7 -->
<g id="edge29" class="edge">
<title>Node65&#45;&gt;Node7</title>
<path fill="none" stroke="#191970" d="M764.8846,-360.6711C771.5418,-358.3251 778.0988,-355.4691 784,-352 818.6457,-331.633 848.8541,-293.4415 861.7929,-275.6187"/>
<polygon fill="#191970" stroke="#191970" points="763.6047,-357.4049 755.1241,-363.7554 765.714,-364.0795 763.6047,-357.4049"/>
</g>
<!-- Node69&#45;&gt;Node9 -->
<g id="edge32" class="edge">
<title>Node69&#45;&gt;Node9</title>
<path fill="none" stroke="#191970" d="M785.3793,-607.7114C797.0208,-609.1524 808.8591,-610.6177 819.813,-611.9736"/>
<polygon fill="#191970" stroke="#191970" points="785.5809,-604.2098 775.2267,-606.4548 784.721,-611.1568 785.5809,-604.2098"/>
</g>
<!-- Node70&#45;&gt;Node46 -->
<g id="edge34" class="edge">
<title>Node70&#45;&gt;Node46</title>
<path fill="none" stroke="#191970" d="M924.8412,-659.9631C934.6046,-660.13 944.4483,-660.2983 953.2825,-660.4493"/>
<polygon fill="#191970" stroke="#191970" points="924.7999,-656.462 914.7415,-659.7905 924.6802,-663.461 924.7999,-656.462"/>
</g>
<!-- Node110 -->
<g id="node39" class="node">
<title>Node110</title>
<g id="a_node39"><a xlink:href="classFifoFwftTb.html" target="_top" xlink:title="FifoFwftTb">
<polygon fill="#ffffff" stroke="#000000" points="518.5,-114.5 518.5,-133.5 585.5,-133.5 585.5,-114.5 518.5,-114.5"/>
<text text-anchor="middle" x="552" y="-121.5" font-family="Helvetica,sans-Serif" font-size="10.00" fill="#000000">FifoFwftTb</text>
</a>
</g>
</g>
<!-- Node109&#45;&gt;Node110 -->
<g id="edge42" class="edge">
<title>Node109&#45;&gt;Node110</title>
<path fill="none" stroke="#191970" d="M449.0859,-302.1242C452.3341,-300.1008 455.3483,-297.744 458,-295 504.7423,-246.6306 450.1901,-199.0405 494,-148 500.3169,-140.6405 509.2518,-135.4974 518.2208,-131.9191"/>
<polygon fill="#191970" stroke="#191970" points="447.3507,-299.0802 440.0293,-306.7384 450.5284,-305.3173 447.3507,-299.0802"/>
</g>
<!-- Node118 -->
<g id="node47" class="node">
<title>Node118</title>
<g id="a_node47"><a xlink:href="classUartAxiLiteMaster.html" target="_top" xlink:title="UartAxiLiteMaster">
<polygon fill="#ffffff" stroke="#000000" points="500,-38.5 500,-57.5 604,-57.5 604,-38.5 500,-38.5"/>
<text text-anchor="middle" x="552" y="-45.5" font-family="Helvetica,sans-Serif" font-size="10.00" fill="#000000">UartAxiLiteMaster</text>
</a>
</g>
</g>
<!-- Node117&#45;&gt;Node118 -->
<g id="edge50" class="edge">
<title>Node117&#45;&gt;Node118</title>
<path fill="none" stroke="#191970" d="M439.8335,-48C458.8324,-48 480.5802,-48 499.8374,-48"/>
<polygon fill="#191970" stroke="#191970" points="439.5947,-44.5001 429.5946,-48 439.5946,-51.5001 439.5947,-44.5001"/>
</g>
<!-- Node119 -->
<g id="node48" class="node">
<title>Node119</title>
<g id="a_node48"><a xlink:href="classUartAxiLiteMasterTb.html" target="_top" xlink:title="UartAxiLiteMasterTb">
<polygon fill="#ffffff" stroke="#000000" points="657,-57.5 657,-76.5 773,-76.5 773,-57.5 657,-57.5"/>
<text text-anchor="middle" x="715" y="-64.5" font-family="Helvetica,sans-Serif" font-size="10.00" fill="#000000">UartAxiLiteMasterTb</text>
</a>
</g>
</g>
<!-- Node117&#45;&gt;Node119 -->
<g id="edge52" class="edge">
<title>Node117&#45;&gt;Node119</title>
<path fill="none" stroke="#191970" d="M439.4001,-58.8595C456.5707,-62.1708 476.0535,-65.3664 494,-67 549.0225,-72.0085 612.0705,-71.3825 656.7058,-69.876"/>
<polygon fill="#191970" stroke="#191970" points="440.0772,-55.4257 429.5865,-56.9074 438.7115,-62.2912 440.0772,-55.4257"/>
</g>
<!-- Node120 -->
<g id="node49" class="node">
<title>Node120</title>
<g id="a_node49"><a xlink:href="classUartSem.html" target="_top" xlink:title="UartSem">
<polygon fill="#ffffff" stroke="#000000" points="522.5,-.5 522.5,-19.5 581.5,-19.5 581.5,-.5 522.5,-.5"/>
<text text-anchor="middle" x="552" y="-7.5" font-family="Helvetica,sans-Serif" font-size="10.00" fill="#000000">UartSem</text>
</a>
</g>
</g>
<!-- Node117&#45;&gt;Node120 -->
<g id="edge53" class="edge">
<title>Node117&#45;&gt;Node120</title>
<path fill="none" stroke="#191970" d="M439.6398,-36.4377C466.6473,-30.083 499.2567,-22.4102 522.3725,-16.9712"/>
<polygon fill="#191970" stroke="#191970" points="438.5272,-33.1038 429.5946,-38.8013 440.1305,-39.9178 438.5272,-33.1038"/>
</g>
<!-- Node118&#45;&gt;Node119 -->
<g id="edge51" class="edge">
<title>Node118&#45;&gt;Node119</title>
<path fill="none" stroke="#191970" d="M614.1002,-55.2387C628.1751,-56.8793 643.0695,-58.6155 656.9684,-60.2356"/>
<polygon fill="#191970" stroke="#191970" points="614.3604,-51.7454 604.0224,-54.064 613.5499,-58.6983 614.3604,-51.7454"/>
</g>
</g>
</svg>
        <g id="navigator" transform="translate(0 0)" fill="#404254">
                <rect fill="#f2f5e9" fill-opacity="0.5" stroke="#606060" stroke-width=".5" x="0" y="0" width="60" height="60"/>
                <use id="zoomplus" xlink:href="#zoomPlus" x="17" y="9" onmousedown="handleZoom(evt,'in')"/>
                <use id="zoomminus" xlink:href="#zoomMin" x="42" y="9" onmousedown="handleZoom(evt,'out')"/>
                <use id="reset" xlink:href="#resetDef" x="30" y="36" onmousedown="handleReset()"/>
                <g id="arrowUp" xlink:href="#dirArrow" transform="translate(30 24)" onmousedown="handlePan(0,-1)">
                  <use xlink:href="#rim" fill="#404040">
                        <set attributeName="fill" to="#808080" begin="arrowUp.mouseover" end="arrowUp.mouseout"/>
                  </use>
                  <path fill="none" stroke="white" stroke-width="1.5" d="M0,-3.0v7 M-2.5,-0.5L0,-3.0L2.5,-0.5"/>
                </g>
                <g id="arrowRight" xlink:href="#dirArrow" transform="rotate(90) translate(36 -43)" onmousedown="handlePan(1,0)">
                  <use xlink:href="#rim" fill="#404040">
                        <set attributeName="fill" to="#808080" begin="arrowRight.mouseover" end="arrowRight.mouseout"/>
                  </use>
                  <path fill="none" stroke="white" stroke-width="1.5" d="M0,-3.0v7 M-2.5,-0.5L0,-3.0L2.5,-0.5"/>
                </g>
                <g id="arrowDown" xlink:href="#dirArrow" transform="rotate(180) translate(-30 -48)" onmousedown="handlePan(0,1)">
                  <use xlink:href="#rim" fill="#404040">
                        <set attributeName="fill" to="#808080" begin="arrowDown.mouseover" end="arrowDown.mouseout"/>
                  </use>
                  <path fill="none" stroke="white" stroke-width="1.5" d="M0,-3.0v7 M-2.5,-0.5L0,-3.0L2.5,-0.5"/>
                </g>
                <g id="arrowLeft" xlink:href="#dirArrow" transform="rotate(270) translate(-36 17)" onmousedown="handlePan(-1,0)">
                  <use xlink:href="#rim" fill="#404040">
                        <set attributeName="fill" to="#808080" begin="arrowLeft.mouseover" end="arrowLeft.mouseout"/>
                  </use>
                  <path fill="none" stroke="white" stroke-width="1.5" d="M0,-3.0v7 M-2.5,-0.5L0,-3.0L2.5,-0.5"/>
                </g>
        </g>
        <svg viewBox="0 0 15 15" width="100%" height="30px" preserveAspectRatio="xMaxYMin meet">
         <g id="arrow_out" transform="scale(0.3 0.3)">
          <a xlink:href="classFifoAlteraMf__inherit__graph_org.svg" target="_base">
           <rect id="button" ry="5" rx="5" y="6" x="6" height="38" width="38"
                fill="#f2f5e9" fill-opacity="0.5" stroke="#606060" stroke-width="1.0"/>
           <path id="arrow"
             d="M 11.500037,31.436501 C 11.940474,20.09759 22.043105,11.32322 32.158766,21.979434 L 37.068811,17.246167 C 37.068811,17.246167 37.088388,32 37.088388,32 L 22.160133,31.978069 C 22.160133,31.978069 26.997745,27.140456 26.997745,27.140456 C 18.528582,18.264221 13.291696,25.230495 11.500037,31.436501 z"
             style="fill:#404040;"/>
          </a>
         </g>
        </svg>
</svg>
