<?xml version="1.0" encoding="UTF-8" standalone="no"?>
<!DOCTYPE svg PUBLIC "-//W3C//DTD SVG 1.1//EN"
 "http://www.w3.org/Graphics/SVG/1.1/DTD/svg11.dtd">
<!-- Generated by graphviz version 2.40.1 (20161225.0304)
 -->
<!-- Title: SimpleDualPortRam Pages: 1 -->
<svg width="763pt" height="1016pt"
 viewBox="0.00 0.00 763.00 1016.00" xmlns="http://www.w3.org/2000/svg" xmlns:xlink="http://www.w3.org/1999/xlink">
<g id="graph0" class="graph" transform="scale(1 1) rotate(0) translate(4 1012)">
<title>SimpleDualPortRam</title>
<polygon fill="#ffffff" stroke="transparent" points="-4,4 -4,-1012 759,-1012 759,4 -4,4"/>
<!-- Node0 -->
<g id="node1" class="node">
<title>Node0</title>
<polygon fill="#bfbfbf" stroke="#000000" points="0,-779.5 0,-798.5 115,-798.5 115,-779.5 0,-779.5"/>
<text text-anchor="middle" x="57.5" y="-786.5" font-family="Helvetica,sans-Serif" font-size="10.00" fill="#000000">SimpleDualPortRam</text>
</g>
<!-- Node1 -->
<g id="node2" class="node">
<title>Node1</title>
<g id="a_node2"><a xlink:href="classAxiMicronMt28ewReg.html" target="_top" xlink:title="AxiMicronMt28ewReg">
<polygon fill="#ffffff" stroke="#000000" points="151,-980.5 151,-999.5 272,-999.5 272,-980.5 151,-980.5"/>
<text text-anchor="middle" x="211.5" y="-987.5" font-family="Helvetica,sans-Serif" font-size="10.00" fill="#000000">AxiMicronMt28ewReg</text>
</a>
</g>
</g>
<!-- Node0&#45;&gt;Node1 -->
<g id="edge1" class="edge">
<title>Node0&#45;&gt;Node1</title>
<path fill="none" stroke="#191970" d="M63.1129,-808.3869C74.2831,-843.8102 102.4916,-919.4405 151,-964 158.7458,-971.1152 168.7379,-976.4743 178.3614,-980.4205"/>
<polygon fill="#191970" stroke="#191970" points="66.4451,-807.3142 60.1897,-798.7631 59.7473,-809.3487 66.4451,-807.3142"/>
</g>
<!-- Node3 -->
<g id="node4" class="node">
<title>Node3</title>
<g id="a_node4"><a xlink:href="classAxiMicronN25QReg.html" target="_top" xlink:title="AxiMicronN25QReg">
<polygon fill="#ffffff" stroke="#000000" points="156.5,-935.5 156.5,-954.5 266.5,-954.5 266.5,-935.5 156.5,-935.5"/>
<text text-anchor="middle" x="211.5" y="-942.5" font-family="Helvetica,sans-Serif" font-size="10.00" fill="#000000">AxiMicronN25QReg</text>
</a>
</g>
</g>
<!-- Node0&#45;&gt;Node3 -->
<g id="edge3" class="edge">
<title>Node0&#45;&gt;Node3</title>
<path fill="none" stroke="#191970" d="M68.1068,-807.5285C83.6531,-833.4449 114.7472,-880.8343 151,-912 162.2501,-921.6714 176.7961,-929.7161 188.8057,-935.4408"/>
<polygon fill="#191970" stroke="#191970" points="71.0169,-805.5724 62.9315,-798.7258 64.9825,-809.1202 71.0169,-805.5724"/>
</g>
<!-- Node5 -->
<g id="node6" class="node">
<title>Node5</title>
<g id="a_node6"><a xlink:href="classAxiMicronP30Reg.html" target="_top" xlink:title="AxiMicronP30Reg">
<polygon fill="#ffffff" stroke="#000000" points="161,-883.5 161,-902.5 262,-902.5 262,-883.5 161,-883.5"/>
<text text-anchor="middle" x="211.5" y="-890.5" font-family="Helvetica,sans-Serif" font-size="10.00" fill="#000000">AxiMicronP30Reg</text>
</a>
</g>
</g>
<!-- Node0&#45;&gt;Node5 -->
<g id="edge5" class="edge">
<title>Node0&#45;&gt;Node5</title>
<path fill="none" stroke="#191970" d="M80.0614,-804.2363C112.281,-825.995 170.5329,-865.3339 197.3224,-883.4255"/>
<polygon fill="#191970" stroke="#191970" points="81.958,-801.2937 71.7119,-798.5977 78.0404,-807.0948 81.958,-801.2937"/>
</g>
<!-- Node7 -->
<g id="node8" class="node">
<title>Node7</title>
<g id="a_node8"><a xlink:href="classAxiRam.html" target="_top" xlink:title="AxiRam">
<polygon fill="#ffffff" stroke="#000000" points="184,-817.5 184,-836.5 239,-836.5 239,-817.5 184,-817.5"/>
<text text-anchor="middle" x="211.5" y="-824.5" font-family="Helvetica,sans-Serif" font-size="10.00" fill="#000000">AxiRam</text>
</a>
</g>
</g>
<!-- Node0&#45;&gt;Node7 -->
<g id="edge7" class="edge">
<title>Node0&#45;&gt;Node7</title>
<path fill="none" stroke="#191970" d="M106.2659,-801.0331C131.8609,-807.3488 162.2869,-814.8565 183.8234,-820.1707"/>
<polygon fill="#191970" stroke="#191970" points="106.908,-797.5867 96.3607,-798.589 105.231,-804.3828 106.908,-797.5867"/>
</g>
<!-- Node11 -->
<g id="node12" class="node">
<title>Node11</title>
<g id="a_node12"><a xlink:href="classBoxcarIntegrator.html" target="_top" xlink:title="BoxcarIntegrator">
<polygon fill="#ffffff" stroke="#000000" points="162.5,-760.5 162.5,-779.5 260.5,-779.5 260.5,-760.5 162.5,-760.5"/>
<text text-anchor="middle" x="211.5" y="-767.5" font-family="Helvetica,sans-Serif" font-size="10.00" fill="#000000">BoxcarIntegrator</text>
</a>
</g>
</g>
<!-- Node0&#45;&gt;Node11 -->
<g id="edge11" class="edge">
<title>Node0&#45;&gt;Node11</title>
<path fill="none" stroke="#191970" d="M125.2347,-780.6431C137.7658,-779.0971 150.629,-777.5101 162.4709,-776.0491"/>
<polygon fill="#191970" stroke="#191970" points="124.7782,-777.1728 115.2821,-781.871 125.6354,-784.1201 124.7782,-777.1728"/>
</g>
<!-- Node15 -->
<g id="node16" class="node">
<title>Node15</title>
<g id="a_node16"><a xlink:href="classFifoAsync.html" target="_top" xlink:title="FifoAsync">
<polygon fill="#ffffff" stroke="#000000" points="180,-551.5 180,-570.5 243,-570.5 243,-551.5 180,-551.5"/>
<text text-anchor="middle" x="211.5" y="-558.5" font-family="Helvetica,sans-Serif" font-size="10.00" fill="#000000">FifoAsync</text>
</a>
</g>
</g>
<!-- Node0&#45;&gt;Node15 -->
<g id="edge15" class="edge">
<title>Node0&#45;&gt;Node15</title>
<path fill="none" stroke="#191970" d="M69.5507,-771.1587C100.4234,-725.4511 181.5738,-605.3063 205.0515,-570.5472"/>
<polygon fill="#191970" stroke="#191970" points="66.618,-769.2475 63.9211,-779.4934 72.4188,-773.1656 66.618,-769.2475"/>
</g>
<!-- Node242 -->
<g id="node44" class="node">
<title>Node242</title>
<g id="a_node44"><a xlink:href="classFifoSync.html" target="_top" xlink:title="FifoSync">
<polygon fill="#ffffff" stroke="#000000" points="183,-304.5 183,-323.5 240,-323.5 240,-304.5 183,-304.5"/>
<text text-anchor="middle" x="211.5" y="-311.5" font-family="Helvetica,sans-Serif" font-size="10.00" fill="#000000">FifoSync</text>
</a>
</g>
</g>
<!-- Node0&#45;&gt;Node242 -->
<g id="edge47" class="edge">
<title>Node0&#45;&gt;Node242</title>
<path fill="none" stroke="#191970" d="M63.9313,-769.163C90.2444,-688.0026 189.2091,-382.7543 208.3012,-323.8665"/>
<polygon fill="#191970" stroke="#191970" points="60.4713,-768.487 60.7165,-779.0789 67.13,-770.6458 60.4713,-768.487"/>
</g>
<!-- Node148 -->
<g id="node48" class="node">
<title>Node148</title>
<g id="a_node48"><a xlink:href="classRssiCore.html" target="_top" xlink:title="RssiCore">
<polygon fill="#ffffff" stroke="#ff0000" points="182,-228.5 182,-247.5 241,-247.5 241,-228.5 182,-228.5"/>
<text text-anchor="middle" x="211.5" y="-235.5" font-family="Helvetica,sans-Serif" font-size="10.00" fill="#000000">RssiCore</text>
</a>
</g>
</g>
<!-- Node0&#45;&gt;Node148 -->
<g id="edge52" class="edge">
<title>Node0&#45;&gt;Node148</title>
<path fill="none" stroke="#191970" d="M59.6517,-768.7063C68.608,-686.6335 104.6378,-379.6404 151,-295 162.023,-274.8761 182.6917,-257.7617 196.7721,-247.6813"/>
<polygon fill="#191970" stroke="#191970" points="56.12,-768.8128 58.5287,-779.1302 63.0798,-769.5626 56.12,-768.8128"/>
</g>
<!-- Node2 -->
<g id="node3" class="node">
<title>Node2</title>
<g id="a_node3"><a xlink:href="classAxiMicronMt28ewCore.html" target="_top" xlink:title="AxiMicronMt28ewCore">
<polygon fill="#ffffff" stroke="#000000" points="329.5,-988.5 329.5,-1007.5 454.5,-1007.5 454.5,-988.5 329.5,-988.5"/>
<text text-anchor="middle" x="392" y="-995.5" font-family="Helvetica,sans-Serif" font-size="10.00" fill="#000000">AxiMicronMt28ewCore</text>
</a>
</g>
</g>
<!-- Node1&#45;&gt;Node2 -->
<g id="edge2" class="edge">
<title>Node1&#45;&gt;Node2</title>
<path fill="none" stroke="#191970" d="M282.2026,-993.1336C297.7774,-993.8239 314.168,-994.5504 329.3962,-995.2253"/>
<polygon fill="#191970" stroke="#191970" points="282.2512,-989.6324 272.106,-992.6861 281.9412,-996.6256 282.2512,-989.6324"/>
</g>
<!-- Node4 -->
<g id="node5" class="node">
<title>Node4</title>
<g id="a_node5"><a xlink:href="classAxiMicronN25QCore.html" target="_top" xlink:title="AxiMicronN25QCore">
<polygon fill="#ffffff" stroke="#000000" points="335,-950.5 335,-969.5 449,-969.5 449,-950.5 335,-950.5"/>
<text text-anchor="middle" x="392" y="-957.5" font-family="Helvetica,sans-Serif" font-size="10.00" fill="#000000">AxiMicronN25QCore</text>
</a>
</g>
</g>
<!-- Node3&#45;&gt;Node4 -->
<g id="edge4" class="edge">
<title>Node3&#45;&gt;Node4</title>
<path fill="none" stroke="#191970" d="M276.6913,-950.4176C295.6683,-951.9946 316.2506,-953.705 334.7027,-955.2385"/>
<polygon fill="#191970" stroke="#191970" points="276.8923,-946.9223 266.6367,-949.582 276.3125,-953.8982 276.8923,-946.9223"/>
</g>
<!-- Node6 -->
<g id="node7" class="node">
<title>Node6</title>
<g id="a_node7"><a xlink:href="classAxiMicronP30Core.html" target="_top" xlink:title="AxiMicronP30Core">
<polygon fill="#ffffff" stroke="#000000" points="339.5,-912.5 339.5,-931.5 444.5,-931.5 444.5,-912.5 339.5,-912.5"/>
<text text-anchor="middle" x="392" y="-919.5" font-family="Helvetica,sans-Serif" font-size="10.00" fill="#000000">AxiMicronP30Core</text>
</a>
</g>
</g>
<!-- Node5&#45;&gt;Node6 -->
<g id="edge6" class="edge">
<title>Node5&#45;&gt;Node6</title>
<path fill="none" stroke="#191970" d="M272.3779,-902.7809C294.128,-906.2754 318.4326,-910.1803 339.4234,-913.5528"/>
<polygon fill="#191970" stroke="#191970" points="272.6883,-899.286 262.2597,-901.1553 271.5778,-906.1974 272.6883,-899.286"/>
</g>
<!-- Node8 -->
<g id="node9" class="node">
<title>Node8</title>
<g id="a_node9"><a xlink:href="classAxiRamTb.html" target="_top" xlink:title="AxiRamTb">
<polygon fill="#ffffff" stroke="#ff0000" points="358.5,-874.5 358.5,-893.5 425.5,-893.5 425.5,-874.5 358.5,-874.5"/>
<text text-anchor="middle" x="392" y="-881.5" font-family="Helvetica,sans-Serif" font-size="10.00" fill="#000000">AxiRamTb</text>
</a>
</g>
</g>
<!-- Node7&#45;&gt;Node8 -->
<g id="edge8" class="edge">
<title>Node7&#45;&gt;Node8</title>
<path fill="none" stroke="#191970" d="M242.2369,-840.4948C260.9854,-848.3751 285.5801,-858.0944 308,-865 324.2898,-870.0174 342.7289,-874.334 358.1729,-877.5789"/>
<polygon fill="#191970" stroke="#191970" points="243.58,-837.2626 233.008,-836.5661 240.8382,-843.7033 243.58,-837.2626"/>
</g>
<!-- Node9 -->
<g id="node10" class="node">
<title>Node9</title>
<g id="a_node10"><a xlink:href="classAxiRssiCoreTb.html" target="_top" xlink:title="AxiRssiCoreTb">
<polygon fill="#ffffff" stroke="#ff0000" points="348.5,-836.5 348.5,-855.5 435.5,-855.5 435.5,-836.5 348.5,-836.5"/>
<text text-anchor="middle" x="392" y="-843.5" font-family="Helvetica,sans-Serif" font-size="10.00" fill="#000000">AxiRssiCoreTb</text>
</a>
</g>
</g>
<!-- Node7&#45;&gt;Node9 -->
<g id="edge9" class="edge">
<title>Node7&#45;&gt;Node9</title>
<path fill="none" stroke="#191970" d="M249.4179,-830.9914C278.3058,-834.0322 318.1233,-838.2235 348.3402,-841.4042"/>
<polygon fill="#191970" stroke="#191970" points="249.619,-827.4933 239.3076,-829.9271 248.8862,-834.4548 249.619,-827.4933"/>
</g>
<!-- Node10 -->
<g id="node11" class="node">
<title>Node10</title>
<g id="a_node11"><a xlink:href="classSrpV3AxiTb.html" target="_top" xlink:title="SrpV3AxiTb">
<polygon fill="#ffffff" stroke="#ff0000" points="355.5,-798.5 355.5,-817.5 428.5,-817.5 428.5,-798.5 355.5,-798.5"/>
<text text-anchor="middle" x="392" y="-805.5" font-family="Helvetica,sans-Serif" font-size="10.00" fill="#000000">SrpV3AxiTb</text>
</a>
</g>
</g>
<!-- Node7&#45;&gt;Node10 -->
<g id="edge10" class="edge">
<title>Node7&#45;&gt;Node10</title>
<path fill="none" stroke="#191970" d="M249.3636,-823.0144C280.5716,-819.7293 324.5625,-815.0987 355.4145,-811.8511"/>
<polygon fill="#191970" stroke="#191970" points="248.8862,-819.5452 239.3076,-824.0729 249.619,-826.5067 248.8862,-819.5452"/>
</g>
<!-- Node12 -->
<g id="node13" class="node">
<title>Node12</title>
<g id="a_node13"><a xlink:href="classBoxcarFilter.html" target="_top" xlink:title="BoxcarFilter">
<polygon fill="#ffffff" stroke="#000000" points="355,-722.5 355,-741.5 429,-741.5 429,-722.5 355,-722.5"/>
<text text-anchor="middle" x="392" y="-729.5" font-family="Helvetica,sans-Serif" font-size="10.00" fill="#000000">BoxcarFilter</text>
</a>
</g>
</g>
<!-- Node11&#45;&gt;Node12 -->
<g id="edge12" class="edge">
<title>Node11&#45;&gt;Node12</title>
<path fill="none" stroke="#191970" d="M266.9072,-758.3353C295.4971,-752.3164 329.5982,-745.1372 354.9694,-739.7959"/>
<polygon fill="#191970" stroke="#191970" points="266.1122,-754.9259 257.0478,-760.411 267.5543,-761.7757 266.1122,-754.9259"/>
</g>
<!-- Node14 -->
<g id="node15" class="node">
<title>Node14</title>
<g id="a_node15"><a xlink:href="classBoxcarIntegratorTb.html" target="_top" xlink:title="BoxcarIntegratorTb">
<polygon fill="#ffffff" stroke="#000000" points="337,-760.5 337,-779.5 447,-779.5 447,-760.5 337,-760.5"/>
<text text-anchor="middle" x="392" y="-767.5" font-family="Helvetica,sans-Serif" font-size="10.00" fill="#000000">BoxcarIntegratorTb</text>
</a>
</g>
</g>
<!-- Node11&#45;&gt;Node14 -->
<g id="edge14" class="edge">
<title>Node11&#45;&gt;Node14</title>
<path fill="none" stroke="#191970" d="M270.9846,-770C292.1543,-770 315.8893,-770 336.6943,-770"/>
<polygon fill="#191970" stroke="#191970" points="270.8225,-766.5001 260.8224,-770 270.8224,-773.5001 270.8225,-766.5001"/>
</g>
<!-- Node13 -->
<g id="node14" class="node">
<title>Node13</title>
<g id="a_node14"><a xlink:href="classBoxcarFilterTb.html" target="_top" xlink:title="BoxcarFilterTb">
<polygon fill="#ffffff" stroke="#000000" points="536.5,-722.5 536.5,-741.5 622.5,-741.5 622.5,-722.5 536.5,-722.5"/>
<text text-anchor="middle" x="579.5" y="-729.5" font-family="Helvetica,sans-Serif" font-size="10.00" fill="#000000">BoxcarFilterTb</text>
</a>
</g>
</g>
<!-- Node12&#45;&gt;Node13 -->
<g id="edge13" class="edge">
<title>Node12&#45;&gt;Node13</title>
<path fill="none" stroke="#191970" d="M439.2119,-732C469.0323,-732 507.2697,-732 536.2906,-732"/>
<polygon fill="#191970" stroke="#191970" points="439.044,-728.5001 429.044,-732 439.0439,-735.5001 439.044,-728.5001"/>
</g>
<!-- Node16 -->
<g id="node17" class="node">
<title>Node16</title>
<g id="a_node17"><a xlink:href="classAsyncGearbox.html" target="_top" xlink:title="AsyncGearbox">
<polygon fill="#ffffff" stroke="#000000" points="348.5,-646.5 348.5,-665.5 435.5,-665.5 435.5,-646.5 348.5,-646.5"/>
<text text-anchor="middle" x="392" y="-653.5" font-family="Helvetica,sans-Serif" font-size="10.00" fill="#000000">AsyncGearbox</text>
</a>
</g>
</g>
<!-- Node15&#45;&gt;Node16 -->
<g id="edge16" class="edge">
<title>Node15&#45;&gt;Node16</title>
<path fill="none" stroke="#191970" d="M228.0195,-577.8711C246.0678,-595.3121 276.6156,-622.0412 308,-637 320.5522,-642.9828 335.0702,-647.1262 348.4692,-649.9771"/>
<polygon fill="#191970" stroke="#191970" points="230.2215,-575.1265 220.6485,-570.5869 225.3011,-580.1055 230.2215,-575.1265"/>
</g>
<!-- Node20 -->
<g id="node19" class="node">
<title>Node20</title>
<g id="a_node19"><a xlink:href="classAxiLiteAsync.html" target="_top" xlink:title="AxiLiteAsync">
<polygon fill="#ffffff" stroke="#000000" points="352,-380.5 352,-399.5 432,-399.5 432,-380.5 352,-380.5"/>
<text text-anchor="middle" x="392" y="-387.5" font-family="Helvetica,sans-Serif" font-size="10.00" fill="#000000">AxiLiteAsync</text>
</a>
</g>
</g>
<!-- Node15&#45;&gt;Node20 -->
<g id="edge18" class="edge">
<title>Node15&#45;&gt;Node20</title>
<path fill="none" stroke="#191970" d="M224.2943,-543.013C241.6266,-519.3728 274.2932,-477.3029 308,-447 329.2319,-427.9121 357.2301,-410.1566 374.9287,-399.6909"/>
<polygon fill="#191970" stroke="#191970" points="221.2646,-541.2295 218.2361,-551.3823 226.9349,-545.3341 221.2646,-541.2295"/>
</g>
<!-- Node98 -->
<g id="node35" class="node">
<title>Node98</title>
<g id="a_node35"><a xlink:href="classFifo.html" target="_top" xlink:title="Fifo">
<polygon fill="#ffffff" stroke="#ff0000" points="375,-342.5 375,-361.5 409,-361.5 409,-342.5 375,-342.5"/>
<text text-anchor="middle" x="392" y="-349.5" font-family="Helvetica,sans-Serif" font-size="10.00" fill="#000000">Fifo</text>
</a>
</g>
</g>
<!-- Node15&#45;&gt;Node98 -->
<g id="edge35" class="edge">
<title>Node15&#45;&gt;Node98</title>
<path fill="none" stroke="#191970" d="M215.663,-541.1919C224.9442,-502.1631 251.1462,-415.275 308,-371 327.3464,-355.9339 356.3789,-352.3736 374.7474,-351.7605"/>
<polygon fill="#191970" stroke="#191970" points="212.1774,-540.7392 213.3959,-551.2638 219.0066,-542.2765 212.1774,-540.7392"/>
</g>
<!-- Node191 -->
<g id="node38" class="node">
<title>Node191</title>
<g id="a_node38"><a xlink:href="classGearboxTb.html" target="_top" xlink:title="GearboxTb">
<polygon fill="#ffffff" stroke="#000000" points="357,-570.5 357,-589.5 427,-589.5 427,-570.5 357,-570.5"/>
<text text-anchor="middle" x="392" y="-577.5" font-family="Helvetica,sans-Serif" font-size="10.00" fill="#000000">GearboxTb</text>
</a>
</g>
</g>
<!-- Node15&#45;&gt;Node191 -->
<g id="edge38" class="edge">
<title>Node15&#45;&gt;Node191</title>
<path fill="none" stroke="#191970" d="M253.5265,-565.4238C284.8642,-568.7225 327.1845,-573.1773 356.7609,-576.2906"/>
<polygon fill="#191970" stroke="#191970" points="253.6658,-561.9192 243.3543,-564.3531 252.9329,-568.8808 253.6658,-561.9192"/>
</g>
<!-- Node192 -->
<g id="node39" class="node">
<title>Node192</title>
<g id="a_node39"><a xlink:href="classPgp3Gtp7RxGearbox.html" target="_top" xlink:title="Pgp3Gtp7RxGearbox">
<polygon fill="#ffffff" stroke="#ff0000" points="333,-532.5 333,-551.5 451,-551.5 451,-532.5 333,-532.5"/>
<text text-anchor="middle" x="392" y="-539.5" font-family="Helvetica,sans-Serif" font-size="10.00" fill="#000000">Pgp3Gtp7RxGearbox</text>
</a>
</g>
</g>
<!-- Node15&#45;&gt;Node192 -->
<g id="edge39" class="edge">
<title>Node15&#45;&gt;Node192</title>
<path fill="none" stroke="#191970" d="M253.3808,-556.5915C276.9655,-554.1089 306.8053,-550.9679 332.753,-548.2365"/>
<polygon fill="#191970" stroke="#191970" points="252.9329,-553.1192 243.3543,-557.6469 253.6658,-560.0808 252.9329,-553.1192"/>
</g>
<!-- Node193 -->
<g id="node40" class="node">
<title>Node193</title>
<g id="a_node40"><a xlink:href="classPgp3Gtp7TxGearbox.html" target="_top" xlink:title="Pgp3Gtp7TxGearbox">
<polygon fill="#ffffff" stroke="#ff0000" points="333.5,-494.5 333.5,-513.5 450.5,-513.5 450.5,-494.5 333.5,-494.5"/>
<text text-anchor="middle" x="392" y="-501.5" font-family="Helvetica,sans-Serif" font-size="10.00" fill="#000000">Pgp3Gtp7TxGearbox</text>
</a>
</g>
</g>
<!-- Node15&#45;&gt;Node193 -->
<g id="edge40" class="edge">
<title>Node15&#45;&gt;Node193</title>
<path fill="none" stroke="#191970" d="M242.2369,-547.5052C260.9854,-539.6249 285.5801,-529.9056 308,-523 319.4314,-519.479 331.9213,-516.3031 343.6918,-513.6006"/>
<polygon fill="#191970" stroke="#191970" points="240.8382,-544.2967 233.008,-551.4339 243.58,-550.7374 240.8382,-544.2967"/>
</g>
<!-- Node194 -->
<g id="node41" class="node">
<title>Node194</title>
<g id="a_node41"><a xlink:href="classPgp3RxEb.html" target="_top" xlink:title="Pgp3RxEb">
<polygon fill="#ffffff" stroke="#ff0000" points="547,-684.5 547,-703.5 612,-703.5 612,-684.5 547,-684.5"/>
<text text-anchor="middle" x="579.5" y="-691.5" font-family="Helvetica,sans-Serif" font-size="10.00" fill="#000000">Pgp3RxEb</text>
</a>
</g>
</g>
<!-- Node15&#45;&gt;Node194 -->
<g id="edge41" class="edge">
<title>Node15&#45;&gt;Node194</title>
<path fill="none" stroke="#191970" d="M220.9564,-579.5955C235.5711,-606.1093 266.3664,-653.8984 308,-675 386.1815,-714.6256 493.6143,-706.8011 546.8571,-699.4864"/>
<polygon fill="#191970" stroke="#191970" points="223.9447,-577.7606 216.1585,-570.5756 217.7646,-581.048 223.9447,-577.7606"/>
</g>
<!-- Node197 -->
<g id="node42" class="node">
<title>Node197</title>
<g id="a_node42"><a xlink:href="classSynchronizerFifo.html" target="_top" xlink:title="SynchronizerFifo">
<polygon fill="#ffffff" stroke="#ff0000" points="343.5,-608.5 343.5,-627.5 440.5,-627.5 440.5,-608.5 343.5,-608.5"/>
<text text-anchor="middle" x="392" y="-615.5" font-family="Helvetica,sans-Serif" font-size="10.00" fill="#000000">SynchronizerFifo</text>
</a>
</g>
</g>
<!-- Node15&#45;&gt;Node197 -->
<g id="edge42" class="edge">
<title>Node15&#45;&gt;Node197</title>
<path fill="none" stroke="#191970" d="M242.2369,-574.4948C260.9854,-582.3751 285.5801,-592.0944 308,-599 319.4314,-602.521 331.9213,-605.6969 343.6918,-608.3994"/>
<polygon fill="#191970" stroke="#191970" points="243.58,-571.2626 233.008,-570.5661 240.8382,-577.7033 243.58,-571.2626"/>
</g>
<!-- Node235 -->
<g id="node43" class="node">
<title>Node235</title>
<g id="a_node43"><a xlink:href="classSynchronizerOneShotCntVector.html" target="_top" xlink:title="SynchronizerOneShotCntVector">
<polygon fill="#ffffff" stroke="#ff0000" points="308,-456.5 308,-475.5 476,-475.5 476,-456.5 308,-456.5"/>
<text text-anchor="middle" x="392" y="-463.5" font-family="Helvetica,sans-Serif" font-size="10.00" fill="#000000">SynchronizerOneShotCntVector</text>
</a>
</g>
</g>
<!-- Node15&#45;&gt;Node235 -->
<g id="edge46" class="edge">
<title>Node15&#45;&gt;Node235</title>
<path fill="none" stroke="#191970" d="M228.0195,-544.1289C246.0678,-526.6879 276.6156,-499.9588 308,-485 316.0982,-481.1401 325.0146,-478.0459 333.9209,-475.5704"/>
<polygon fill="#191970" stroke="#191970" points="225.3011,-541.8945 220.6485,-551.4131 230.2215,-546.8735 225.3011,-541.8945"/>
</g>
<!-- Node17 -->
<g id="node18" class="node">
<title>Node17</title>
<g id="a_node18"><a xlink:href="classClinkDataShift.html" target="_top" xlink:title="ClinkDataShift">
<polygon fill="#ffffff" stroke="#ff0000" points="536,-646.5 536,-665.5 623,-665.5 623,-646.5 536,-646.5"/>
<text text-anchor="middle" x="579.5" y="-653.5" font-family="Helvetica,sans-Serif" font-size="10.00" fill="#000000">ClinkDataShift</text>
</a>
</g>
</g>
<!-- Node16&#45;&gt;Node17 -->
<g id="edge17" class="edge">
<title>Node16&#45;&gt;Node17</title>
<path fill="none" stroke="#191970" d="M446.1547,-656C474.6267,-656 509.0678,-656 535.815,-656"/>
<polygon fill="#191970" stroke="#191970" points="445.9605,-652.5001 435.9604,-656 445.9604,-659.5001 445.9605,-652.5001"/>
</g>
<!-- Node21 -->
<g id="node20" class="node">
<title>Node21</title>
<g id="a_node20"><a xlink:href="classAxiLiteAsyncTb.html" target="_top" xlink:title="AxiLiteAsyncTb">
<polygon fill="#ffffff" stroke="#ff0000" points="533.5,-456.5 533.5,-475.5 625.5,-475.5 625.5,-456.5 533.5,-456.5"/>
<text text-anchor="middle" x="579.5" y="-463.5" font-family="Helvetica,sans-Serif" font-size="10.00" fill="#000000">AxiLiteAsyncTb</text>
</a>
</g>
</g>
<!-- Node20&#45;&gt;Node21 -->
<g id="edge19" class="edge">
<title>Node20&#45;&gt;Node21</title>
<path fill="none" stroke="#191970" d="M422.3939,-403.8446C446.5119,-414.6665 481.1786,-429.8586 512,-442 524.8449,-447.06 539.2411,-452.2441 551.4284,-456.4934"/>
<polygon fill="#191970" stroke="#191970" points="423.6185,-400.5575 413.0634,-399.6399 420.7424,-406.9394 423.6185,-400.5575"/>
</g>
<!-- Node22 -->
<g id="node21" class="node">
<title>Node22</title>
<g id="a_node21"><a xlink:href="classAxiLiteToDrp.html" target="_top" xlink:title="AxiLiteToDrp">
<polygon fill="#ffffff" stroke="#ff0000" points="540.5,-380.5 540.5,-399.5 618.5,-399.5 618.5,-380.5 540.5,-380.5"/>
<text text-anchor="middle" x="579.5" y="-387.5" font-family="Helvetica,sans-Serif" font-size="10.00" fill="#000000">AxiLiteToDrp</text>
</a>
</g>
</g>
<!-- Node20&#45;&gt;Node22 -->
<g id="edge20" class="edge">
<title>Node20&#45;&gt;Node22</title>
<path fill="none" stroke="#191970" d="M442.3206,-390C473.0772,-390 511.839,-390 540.3071,-390"/>
<polygon fill="#191970" stroke="#191970" points="442.2235,-386.5001 432.2235,-390 442.2234,-393.5001 442.2235,-386.5001"/>
</g>
<!-- Node31 -->
<g id="node22" class="node">
<title>Node31</title>
<g id="a_node22"><a xlink:href="classGigEthGtx7.html" target="_top" xlink:title="GigEthGtx7">
<polygon fill="#ffffff" stroke="#ff0000" points="683,-399.5 683,-418.5 755,-418.5 755,-399.5 683,-399.5"/>
<text text-anchor="middle" x="719" y="-406.5" font-family="Helvetica,sans-Serif" font-size="10.00" fill="#000000">GigEthGtx7</text>
</a>
</g>
</g>
<!-- Node20&#45;&gt;Node31 -->
<g id="edge27" class="edge">
<title>Node20&#45;&gt;Node31</title>
<path fill="none" stroke="#191970" d="M441.9626,-399.7081C463.4292,-403.4116 488.855,-407.179 512,-409 571.6516,-413.6932 641.2722,-412.2816 682.6612,-410.7209"/>
<polygon fill="#191970" stroke="#191970" points="442.543,-396.2565 432.0863,-397.9613 441.3238,-403.1495 442.543,-396.2565"/>
</g>
<!-- Node83 -->
<g id="node23" class="node">
<title>Node83</title>
<g id="a_node23"><a xlink:href="classAxiStreamBatcherAxil.html" target="_top" xlink:title="AxiStreamBatcherAxil">
<polygon fill="#ffffff" stroke="#000000" points="517.5,-342.5 517.5,-361.5 641.5,-361.5 641.5,-342.5 517.5,-342.5"/>
<text text-anchor="middle" x="579.5" y="-349.5" font-family="Helvetica,sans-Serif" font-size="10.00" fill="#000000">AxiStreamBatcherAxil</text>
</a>
</g>
</g>
<!-- Node20&#45;&gt;Node83 -->
<g id="edge22" class="edge">
<title>Node20&#45;&gt;Node83</title>
<path fill="none" stroke="#191970" d="M442.2153,-379.823C470.224,-374.1466 504.8966,-367.1196 532.3891,-361.5478"/>
<polygon fill="#191970" stroke="#191970" points="441.329,-376.4314 432.2235,-381.848 442.7194,-383.2919 441.329,-376.4314"/>
</g>
<!-- Node19 -->
<g id="node24" class="node">
<title>Node19</title>
<g id="a_node24"><a xlink:href="classClinkTop.html" target="_top" xlink:title="ClinkTop">
<polygon fill="#ffffff" stroke="#ff0000" points="550.5,-304.5 550.5,-323.5 608.5,-323.5 608.5,-304.5 550.5,-304.5"/>
<text text-anchor="middle" x="579.5" y="-311.5" font-family="Helvetica,sans-Serif" font-size="10.00" fill="#000000">ClinkTop</text>
</a>
</g>
</g>
<!-- Node20&#45;&gt;Node19 -->
<g id="edge23" class="edge">
<title>Node20&#45;&gt;Node19</title>
<path fill="none" stroke="#191970" d="M442.265,-383.679C453.8383,-380.8776 465.7486,-376.8347 476,-371 496.2189,-359.4922 492.0867,-345.0289 512,-333 523.5668,-326.013 537.7932,-321.5129 550.1983,-318.6568"/>
<polygon fill="#191970" stroke="#191970" points="441.273,-380.3122 432.2316,-385.8351 442.7437,-387.156 441.273,-380.3122"/>
</g>
<!-- Node84 -->
<g id="node25" class="node">
<title>Node84</title>
<g id="a_node25"><a xlink:href="classGigEthGth7.html" target="_top" xlink:title="GigEthGth7">
<polygon fill="#ffffff" stroke="#ff0000" points="543.5,-266.5 543.5,-285.5 615.5,-285.5 615.5,-266.5 543.5,-266.5"/>
<text text-anchor="middle" x="579.5" y="-273.5" font-family="Helvetica,sans-Serif" font-size="10.00" fill="#000000">GigEthGth7</text>
</a>
</g>
</g>
<!-- Node20&#45;&gt;Node84 -->
<g id="edge24" class="edge">
<title>Node20&#45;&gt;Node84</title>
<path fill="none" stroke="#191970" d="M442.3911,-386.2267C454.3653,-383.3735 466.4279,-378.6686 476,-371 505.1693,-347.6314 483.4473,-319.1181 512,-295 520.8353,-287.5369 532.4086,-282.9964 543.4711,-280.237"/>
<polygon fill="#191970" stroke="#191970" points="441.5351,-382.8283 432.4102,-388.2122 442.9009,-389.6938 441.5351,-382.8283"/>
</g>
<!-- Node86 -->
<g id="node26" class="node">
<title>Node86</title>
<g id="a_node26"><a xlink:href="classGigEthGthUltraScale.html" target="_top" xlink:title="GigEthGthUltraScale">
<polygon fill="#ffffff" stroke="#ff0000" points="521.5,-228.5 521.5,-247.5 637.5,-247.5 637.5,-228.5 521.5,-228.5"/>
<text text-anchor="middle" x="579.5" y="-235.5" font-family="Helvetica,sans-Serif" font-size="10.00" fill="#000000">GigEthGthUltraScale</text>
</a>
</g>
</g>
<!-- Node20&#45;&gt;Node86 -->
<g id="edge25" class="edge">
<title>Node20&#45;&gt;Node86</title>
<path fill="none" stroke="#191970" d="M442.463,-387.2681C454.6532,-384.4231 466.8012,-379.4617 476,-371 515.1048,-335.0288 473.8423,-293.9744 512,-257 516.0217,-253.103 520.7776,-249.993 525.8739,-247.513"/>
<polygon fill="#191970" stroke="#191970" points="441.4545,-383.8965 432.277,-389.1904 442.7527,-390.7751 441.4545,-383.8965"/>
</g>
<!-- Node87 -->
<g id="node27" class="node">
<title>Node87</title>
<g id="a_node27"><a xlink:href="classGigEthGtp7.html" target="_top" xlink:title="GigEthGtp7">
<polygon fill="#ffffff" stroke="#ff0000" points="543.5,-190.5 543.5,-209.5 615.5,-209.5 615.5,-190.5 543.5,-190.5"/>
<text text-anchor="middle" x="579.5" y="-197.5" font-family="Helvetica,sans-Serif" font-size="10.00" fill="#000000">GigEthGtp7</text>
</a>
</g>
</g>
<!-- Node20&#45;&gt;Node87 -->
<g id="edge26" class="edge">
<title>Node20&#45;&gt;Node87</title>
<path fill="none" stroke="#191970" d="M442.1826,-387.8827C454.6101,-385.0656 466.9448,-379.9641 476,-371 525.338,-322.1583 463.9468,-269.1063 512,-219 520.1737,-210.477 531.8443,-205.6851 543.1882,-203.0203"/>
<polygon fill="#191970" stroke="#191970" points="441.4721,-384.4544 432.257,-389.6825 442.721,-391.3421 441.4721,-384.4544"/>
</g>
<!-- Node88 -->
<g id="node28" class="node">
<title>Node88</title>
<g id="a_node28"><a xlink:href="classGigEthGtyUltraScale.html" target="_top" xlink:title="GigEthGtyUltraScale">
<polygon fill="#ffffff" stroke="#ff0000" points="521.5,-152.5 521.5,-171.5 637.5,-171.5 637.5,-152.5 521.5,-152.5"/>
<text text-anchor="middle" x="579.5" y="-159.5" font-family="Helvetica,sans-Serif" font-size="10.00" fill="#000000">GigEthGtyUltraScale</text>
</a>
</g>
</g>
<!-- Node20&#45;&gt;Node88 -->
<g id="edge28" class="edge">
<title>Node20&#45;&gt;Node88</title>
<path fill="none" stroke="#191970" d="M442.1115,-388.2312C454.6566,-385.4315 467.0683,-380.2517 476,-371 535.6948,-309.1664 453.9308,-244.3627 512,-181 515.5369,-177.1407 519.79,-174.0418 524.419,-171.5568"/>
<polygon fill="#191970" stroke="#191970" points="441.3264,-384.8155 432.0859,-389.9984 442.5417,-391.7092 441.3264,-384.8155"/>
</g>
<!-- Node89 -->
<g id="node29" class="node">
<title>Node89</title>
<g id="a_node29"><a xlink:href="classGigEthLvdsUltraScale.html" target="_top" xlink:title="GigEthLvdsUltraScale">
<polygon fill="#ffffff" stroke="#ff0000" points="518.5,-114.5 518.5,-133.5 640.5,-133.5 640.5,-114.5 518.5,-114.5"/>
<text text-anchor="middle" x="579.5" y="-121.5" font-family="Helvetica,sans-Serif" font-size="10.00" fill="#000000">GigEthLvdsUltraScale</text>
</a>
</g>
</g>
<!-- Node20&#45;&gt;Node89 -->
<g id="edge29" class="edge">
<title>Node20&#45;&gt;Node89</title>
<path fill="none" stroke="#191970" d="M442.3005,-388.4108C454.8463,-385.6119 467.2111,-380.3875 476,-371 546.114,-296.1103 443.8541,-219.6849 512,-143 515.3965,-139.1779 519.4953,-136.0986 523.9747,-133.6211"/>
<polygon fill="#191970" stroke="#191970" points="441.5111,-384.9957 432.265,-390.1687 442.7189,-391.8907 441.5111,-384.9957"/>
</g>
<!-- Node93 -->
<g id="node30" class="node">
<title>Node93</title>
<g id="a_node30"><a xlink:href="classSsiSem.html" target="_top" xlink:title="SsiSem">
<polygon fill="#ffffff" stroke="#ff0000" points="553,-608.5 553,-627.5 606,-627.5 606,-608.5 553,-608.5"/>
<text text-anchor="middle" x="579.5" y="-615.5" font-family="Helvetica,sans-Serif" font-size="10.00" fill="#000000">SsiSem</text>
</a>
</g>
</g>
<!-- Node20&#45;&gt;Node93 -->
<g id="edge30" class="edge">
<title>Node20&#45;&gt;Node93</title>
<path fill="none" stroke="#191970" d="M423.7985,-404.2486C441.7232,-413.8578 463.0522,-428.2187 476,-447 515.4047,-504.1579 463.9468,-548.8937 512,-599 522.5332,-609.9832 538.8733,-614.7706 552.8382,-616.7941"/>
<polygon fill="#191970" stroke="#191970" points="425.2963,-401.0836 414.7978,-399.6585 422.1162,-407.3195 425.2963,-401.0836"/>
</g>
<!-- Node94 -->
<g id="node31" class="node">
<title>Node94</title>
<g id="a_node31"><a xlink:href="classTenGigEthGth7.html" target="_top" xlink:title="TenGigEthGth7">
<polygon fill="#ffffff" stroke="#ff0000" points="535,-76.5 535,-95.5 624,-95.5 624,-76.5 535,-76.5"/>
<text text-anchor="middle" x="579.5" y="-83.5" font-family="Helvetica,sans-Serif" font-size="10.00" fill="#000000">TenGigEthGth7</text>
</a>
</g>
</g>
<!-- Node20&#45;&gt;Node94 -->
<g id="edge31" class="edge">
<title>Node20&#45;&gt;Node94</title>
<path fill="none" stroke="#191970" d="M442.4383,-388.5384C454.9847,-385.74 467.3153,-380.484 476,-371 556.5689,-283.0162 433.7427,-195.046 512,-105 517.9894,-98.1083 526.263,-93.624 534.9682,-90.7279"/>
<polygon fill="#191970" stroke="#191970" points="441.6456,-385.1237 432.3956,-390.2896 442.8482,-392.0196 441.6456,-385.1237"/>
</g>
<!-- Node95 -->
<g id="node32" class="node">
<title>Node95</title>
<g id="a_node32"><a xlink:href="classTenGigEthGthUltraScale.html" target="_top" xlink:title="TenGigEthGthUltraScale">
<polygon fill="#ffffff" stroke="#ff0000" points="513,-570.5 513,-589.5 646,-589.5 646,-570.5 513,-570.5"/>
<text text-anchor="middle" x="579.5" y="-577.5" font-family="Helvetica,sans-Serif" font-size="10.00" fill="#000000">TenGigEthGthUltraScale</text>
</a>
</g>
</g>
<!-- Node20&#45;&gt;Node95 -->
<g id="edge32" class="edge">
<title>Node20&#45;&gt;Node95</title>
<path fill="none" stroke="#191970" d="M422.6013,-404.224C440.4888,-413.9621 462.1932,-428.4652 476,-447 507.7409,-489.6102 473.8423,-524.0256 512,-561 516.0217,-564.897 520.7776,-568.007 525.8739,-570.487"/>
<polygon fill="#191970" stroke="#191970" points="424.1438,-401.0812 413.6573,-399.5698 420.9125,-407.2907 424.1438,-401.0812"/>
</g>
<!-- Node96 -->
<g id="node33" class="node">
<title>Node96</title>
<g id="a_node33"><a xlink:href="classTenGigEthGtx7.html" target="_top" xlink:title="TenGigEthGtx7">
<polygon fill="#ffffff" stroke="#ff0000" points="535,-532.5 535,-551.5 624,-551.5 624,-532.5 535,-532.5"/>
<text text-anchor="middle" x="579.5" y="-539.5" font-family="Helvetica,sans-Serif" font-size="10.00" fill="#000000">TenGigEthGtx7</text>
</a>
</g>
</g>
<!-- Node20&#45;&gt;Node96 -->
<g id="edge33" class="edge">
<title>Node20&#45;&gt;Node96</title>
<path fill="none" stroke="#191970" d="M420.7005,-404.3477C438.4402,-414.3578 460.6684,-429.108 476,-447 500.3198,-475.3811 483.4473,-498.8819 512,-523 518.5102,-528.4991 526.507,-532.4115 534.6906,-535.1937"/>
<polygon fill="#191970" stroke="#191970" points="422.3496,-401.2605 411.8932,-399.5536 419.0029,-407.4087 422.3496,-401.2605"/>
</g>
<!-- Node97 -->
<g id="node34" class="node">
<title>Node97</title>
<g id="a_node34"><a xlink:href="classTenGigEthGtyUltraScale.html" target="_top" xlink:title="TenGigEthGtyUltraScale">
<polygon fill="#ffffff" stroke="#ff0000" points="513,-494.5 513,-513.5 646,-513.5 646,-494.5 513,-494.5"/>
<text text-anchor="middle" x="579.5" y="-501.5" font-family="Helvetica,sans-Serif" font-size="10.00" fill="#000000">TenGigEthGtyUltraScale</text>
</a>
</g>
</g>
<!-- Node20&#45;&gt;Node97 -->
<g id="edge34" class="edge">
<title>Node20&#45;&gt;Node97</title>
<path fill="none" stroke="#191970" d="M417.1344,-405.0415C434.3797,-415.8354 457.4156,-431.2092 476,-447 493.7289,-462.0639 492.0867,-472.9711 512,-485 518.3565,-488.8397 525.5163,-491.9284 532.7356,-494.4058"/>
<polygon fill="#191970" stroke="#191970" points="418.5636,-401.8109 408.2145,-399.5424 414.8901,-407.7696 418.5636,-401.8109"/>
</g>
<!-- Node22&#45;&gt;Node31 -->
<g id="edge21" class="edge">
<title>Node22&#45;&gt;Node31</title>
<path fill="none" stroke="#191970" d="M628.948,-396.7349C646.7491,-399.1594 666.4828,-401.8471 682.9293,-404.0871"/>
<polygon fill="#191970" stroke="#191970" points="629.1107,-393.2248 618.7298,-395.3431 628.1659,-400.1607 629.1107,-393.2248"/>
</g>
<!-- Node99 -->
<g id="node36" class="node">
<title>Node99</title>
<g id="a_node36"><a xlink:href="classAxiStreamDmaV2Desc.html" target="_top" xlink:title="AxiStreamDmaV2Desc">
<polygon fill="#ffffff" stroke="#ff0000" points="515.5,-38.5 515.5,-57.5 643.5,-57.5 643.5,-38.5 515.5,-38.5"/>
<text text-anchor="middle" x="579.5" y="-45.5" font-family="Helvetica,sans-Serif" font-size="10.00" fill="#000000">AxiStreamDmaV2Desc</text>
</a>
</g>
</g>
<!-- Node98&#45;&gt;Node99 -->
<g id="edge36" class="edge">
<title>Node98&#45;&gt;Node99</title>
<path fill="none" stroke="#191970" d="M419.3019,-353.3447C437.9802,-352.6881 461.8377,-348.4657 476,-333 556.5689,-245.0162 433.7427,-157.046 512,-67 515.3541,-63.1407 519.4245,-60.0363 523.8858,-57.543"/>
<polygon fill="#191970" stroke="#191970" points="419.2702,-349.8447 409.2842,-353.3846 419.2981,-356.8447 419.2702,-349.8447"/>
</g>
<!-- Node101 -->
<g id="node37" class="node">
<title>Node101</title>
<g id="a_node37"><a xlink:href="classAxiStreamScatterGather.html" target="_top" xlink:title="AxiStreamScatterGather">
<polygon fill="#ffffff" stroke="#000000" points="512,-.5 512,-19.5 647,-19.5 647,-.5 512,-.5"/>
<text text-anchor="middle" x="579.5" y="-7.5" font-family="Helvetica,sans-Serif" font-size="10.00" fill="#000000">AxiStreamScatterGather</text>
</a>
</g>
</g>
<!-- Node98&#45;&gt;Node101 -->
<g id="edge37" class="edge">
<title>Node98&#45;&gt;Node101</title>
<path fill="none" stroke="#191970" d="M419.3811,-353.4167C438.0971,-352.7942 461.9669,-348.583 476,-333 567.046,-231.8979 423.6098,-132.432 512,-29 515.2427,-25.2054 519.1782,-22.139 523.5012,-19.6647"/>
<polygon fill="#191970" stroke="#191970" points="419.3335,-349.9167 409.34,-353.4353 419.3465,-356.9167 419.3335,-349.9167"/>
</g>
<!-- Node197&#45;&gt;Node17 -->
<g id="edge43" class="edge">
<title>Node197&#45;&gt;Node17</title>
<path fill="none" stroke="#191970" d="M449.3065,-629.6141C477.112,-635.2494 509.983,-641.9112 535.7393,-647.1312"/>
<polygon fill="#191970" stroke="#191970" points="449.8101,-626.1451 439.3142,-627.589 448.4197,-633.0056 449.8101,-626.1451"/>
</g>
<!-- Node197&#45;&gt;Node93 -->
<g id="edge45" class="edge">
<title>Node197&#45;&gt;Node93</title>
<path fill="none" stroke="#191970" d="M451.1228,-618C485.2861,-618 526.5873,-618 552.9483,-618"/>
<polygon fill="#191970" stroke="#191970" points="450.774,-614.5001 440.774,-618 450.7739,-621.5001 450.774,-614.5001"/>
</g>
<!-- Node197&#45;&gt;Node194 -->
<g id="edge44" class="edge">
<title>Node197&#45;&gt;Node194</title>
<path fill="none" stroke="#191970" d="M450.7958,-626.6096C459.5702,-629.2092 468.2582,-632.5937 476,-637 496.2189,-648.5078 492.0867,-662.9711 512,-675 522.5247,-681.3576 535.2515,-685.6561 546.8045,-688.5306"/>
<polygon fill="#191970" stroke="#191970" points="451.4606,-623.1653 440.8983,-623.9955 449.673,-629.9332 451.4606,-623.1653"/>
</g>
<!-- Node242&#45;&gt;Node98 -->
<g id="edge50" class="edge">
<title>Node242&#45;&gt;Node98</title>
<path fill="none" stroke="#191970" d="M249.9742,-322.0998C288.6455,-330.2412 346.4826,-342.4174 374.939,-348.4082"/>
<polygon fill="#191970" stroke="#191970" points="250.6073,-318.6565 240.1008,-320.0212 249.1652,-325.5063 250.6073,-318.6565"/>
</g>
<!-- Node243 -->
<g id="node45" class="node">
<title>Node243</title>
<g id="a_node45"><a xlink:href="classAxiStreamDmaWrite.html" target="_top" xlink:title="AxiStreamDmaWrite">
<polygon fill="#ffffff" stroke="#ff0000" points="334,-304.5 334,-323.5 450,-323.5 450,-304.5 334,-304.5"/>
<text text-anchor="middle" x="392" y="-311.5" font-family="Helvetica,sans-Serif" font-size="10.00" fill="#000000">AxiStreamDmaWrite</text>
</a>
</g>
</g>
<!-- Node242&#45;&gt;Node243 -->
<g id="edge48" class="edge">
<title>Node242&#45;&gt;Node243</title>
<path fill="none" stroke="#191970" d="M250.3547,-314C274.6412,-314 306.376,-314 333.65,-314"/>
<polygon fill="#191970" stroke="#191970" points="250.1008,-310.5001 240.1008,-314 250.1007,-317.5001 250.1008,-310.5001"/>
</g>
<!-- Node141 -->
<g id="node46" class="node">
<title>Node141</title>
<g id="a_node46"><a xlink:href="classEthMacTxCsum.html" target="_top" xlink:title="EthMacTxCsum">
<polygon fill="#ffffff" stroke="#ff0000" points="346,-266.5 346,-285.5 438,-285.5 438,-266.5 346,-266.5"/>
<text text-anchor="middle" x="392" y="-273.5" font-family="Helvetica,sans-Serif" font-size="10.00" fill="#000000">EthMacTxCsum</text>
</a>
</g>
</g>
<!-- Node242&#45;&gt;Node141 -->
<g id="edge49" class="edge">
<title>Node242&#45;&gt;Node141</title>
<path fill="none" stroke="#191970" d="M250.0285,-305.8887C278.3285,-299.9309 316.8709,-291.8167 346.6561,-285.5461"/>
<polygon fill="#191970" stroke="#191970" points="249.1652,-302.4937 240.1008,-307.9788 250.6073,-309.3435 249.1652,-302.4937"/>
</g>
<!-- Node246 -->
<g id="node47" class="node">
<title>Node246</title>
<g id="a_node47"><a xlink:href="classJesdRxLane.html" target="_top" xlink:title="JesdRxLane">
<polygon fill="#ffffff" stroke="#ff0000" points="355.5,-228.5 355.5,-247.5 428.5,-247.5 428.5,-228.5 355.5,-228.5"/>
<text text-anchor="middle" x="392" y="-235.5" font-family="Helvetica,sans-Serif" font-size="10.00" fill="#000000">JesdRxLane</text>
</a>
</g>
</g>
<!-- Node242&#45;&gt;Node246 -->
<g id="edge51" class="edge">
<title>Node242&#45;&gt;Node246</title>
<path fill="none" stroke="#191970" d="M233.0097,-298.6352C251.9308,-285.7853 280.6476,-267.8612 308,-257 323.008,-251.0406 340.3032,-246.7278 355.2846,-243.733"/>
<polygon fill="#191970" stroke="#191970" points="230.7897,-295.9149 224.5569,-304.4825 234.7721,-301.6718 230.7897,-295.9149"/>
</g>
<!-- Node149 -->
<g id="node49" class="node">
<title>Node149</title>
<g id="a_node49"><a xlink:href="classRssiCoreWrapper.html" target="_top" xlink:title="RssiCoreWrapper">
<polygon fill="#ffffff" stroke="#ff0000" points="342,-190.5 342,-209.5 442,-209.5 442,-190.5 342,-190.5"/>
<text text-anchor="middle" x="392" y="-197.5" font-family="Helvetica,sans-Serif" font-size="10.00" fill="#000000">RssiCoreWrapper</text>
</a>
</g>
</g>
<!-- Node148&#45;&gt;Node149 -->
<g id="edge53" class="edge">
<title>Node148&#45;&gt;Node149</title>
<path fill="none" stroke="#191970" d="M251.2082,-229.6404C279.367,-223.7122 317.2139,-215.7444 346.576,-209.5629"/>
<polygon fill="#191970" stroke="#191970" points="250.3703,-226.24 241.3059,-231.7251 251.8125,-233.0898 250.3703,-226.24"/>
</g>
</g>
</svg>
