<?xml version="1.0" encoding="UTF-8" standalone="no"?>
<!DOCTYPE svg PUBLIC "-//W3C//DTD SVG 1.1//EN"
 "http://www.w3.org/Graphics/SVG/1.1/DTD/svg11.dtd">
<!-- Generated by graphviz version 2.43.0 (0)
 -->
<!-- Title: AxiLiteCrossbar Pages: 1 -->
<!--zoomable 598 -->
<svg id="main" version="1.1" xmlns="http://www.w3.org/2000/svg" xmlns:xlink="http://www.w3.org/1999/xlink" xml:space="preserve" onload="init(evt)">
<style type="text/css"><![CDATA[
.edge:hover path { stroke: red; }
.edge:hover polygon { stroke: red; fill: red; }
]]></style>
<script type="text/javascript"><![CDATA[
var edges = document.getElementsByTagName('g');
if (edges && edges.length) {
  for (var i=0;i<edges.length;i++) {
    if (edges[i].id.substr(0,4)=='edge') {
      edges[i].setAttribute('class','edge');
    }
  }
}
]]></script>
        <defs>
                <circle id="rim" cx="0" cy="0" r="7"/>
                <circle id="rim2" cx="0" cy="0" r="3.5"/>
                <g id="zoomPlus">
                        <use xlink:href="#rim" fill="#404040">
                                <set attributeName="fill" to="#808080" begin="zoomplus.mouseover" end="zoomplus.mouseout"/>
                        </use>
                        <path d="M-4,0h8M0,-4v8" fill="none" stroke="white" stroke-width="1.5" pointer-events="none"/>
                </g>
                <g id="zoomMin">
                        <use xlink:href="#rim" fill="#404040">
                                <set attributeName="fill" to="#808080" begin="zoomminus.mouseover" end="zoomminus.mouseout"/>
                        </use>
                        <path d="M-4,0h8" fill="none" stroke="white" stroke-width="1.5" pointer-events="none"/>
                </g>
                <g id="dirArrow">
                        <path fill="none" stroke="white" stroke-width="1.5" d="M0,-3.0v7 M-2.5,-0.5L0,-3.0L2.5,-0.5"/>
                </g>
               <g id="resetDef">
                       <use xlink:href="#rim2" fill="#404040">
                               <set attributeName="fill" to="#808080" begin="reset.mouseover" end="reset.mouseout"/>
                       </use>
               </g>
        </defs>

<script type="text/javascript">
var viewWidth = 712;
var viewHeight = 598;
var sectionId = 'dynsection-0';
</script>
<script xlink:href="svgpan.js"/>
<svg id="graph" class="graph">
<g id="viewport">
<title>AxiLiteCrossbar</title>
<polygon fill="white" stroke="transparent" points="-4,4 -4,-594 708,-594 708,4 -4,4"/>
<!-- Node1 -->
<g id="node1" class="node">
<title>Node1</title>
<g id="a_node1"><a xlink:title=" ">
<polygon fill="#bfbfbf" stroke="black" points="0,-285.5 0,-304.5 93,-304.5 93,-285.5 0,-285.5"/>
<text text-anchor="middle" x="46.5" y="-292.5" font-family="Helvetica,sans-Serif" font-size="10.00">AxiLiteCrossbar</text>
</a>
</g>
</g>
<!-- Node2 -->
<g id="node2" class="node">
<title>Node2</title>
<g id="a_node2"><a xlink:href="classAxiLiteAsyncTb.html" target="_top" xlink:title=" ">
<polygon fill="white" stroke="black" points="159,-570.5 159,-589.5 251,-589.5 251,-570.5 159,-570.5"/>
<text text-anchor="middle" x="205" y="-577.5" font-family="Helvetica,sans-Serif" font-size="10.00">AxiLiteAsyncTb</text>
</a>
</g>
</g>
<!-- Node1&#45;&gt;Node2 -->
<g id="edge1" class="edge">
<title>Node1&#45;&gt;Node2</title>
<path fill="none" stroke="midnightblue" d="M47.39,-314.96C48.24,-364.32 57.59,-493.02 129,-561 137.17,-568.78 148.06,-573.5 158.99,-576.33"/>
<polygon fill="midnightblue" stroke="midnightblue" points="50.88,-314.67 47.32,-304.69 43.89,-314.71 50.88,-314.67"/>
</g>
<!-- Node3 -->
<g id="node3" class="node">
<title>Node3</title>
<g id="a_node3"><a xlink:href="classAxiStreamDma.html" target="_top" xlink:title=" ">
<polygon fill="white" stroke="black" points="159.5,-532.5 159.5,-551.5 250.5,-551.5 250.5,-532.5 159.5,-532.5"/>
<text text-anchor="middle" x="205" y="-539.5" font-family="Helvetica,sans-Serif" font-size="10.00">AxiStreamDma</text>
</a>
</g>
</g>
<!-- Node1&#45;&gt;Node3 -->
<g id="edge2" class="edge">
<title>Node1&#45;&gt;Node3</title>
<path fill="none" stroke="midnightblue" d="M48.56,-314.76C52.02,-358.97 66.75,-466.41 129,-523 137.35,-530.59 148.29,-535.24 159.23,-538.07"/>
<polygon fill="midnightblue" stroke="midnightblue" points="52.03,-314.25 47.87,-304.51 45.05,-314.72 52.03,-314.25"/>
</g>
<!-- Node4 -->
<g id="node4" class="node">
<title>Node4</title>
<g id="a_node4"><a xlink:href="classAxiStreamDmaRingWrite.html" target="_top" xlink:title=" ">
<polygon fill="white" stroke="black" points="135.5,-494.5 135.5,-513.5 274.5,-513.5 274.5,-494.5 135.5,-494.5"/>
<text text-anchor="middle" x="205" y="-501.5" font-family="Helvetica,sans-Serif" font-size="10.00">AxiStreamDmaRingWrite</text>
</a>
</g>
</g>
<!-- Node1&#45;&gt;Node4 -->
<g id="edge3" class="edge">
<title>Node1&#45;&gt;Node4</title>
<path fill="none" stroke="midnightblue" d="M50.13,-314.61C56.39,-353.3 75.84,-439.6 129,-485 133.49,-488.84 138.66,-491.92 144.13,-494.39"/>
<polygon fill="midnightblue" stroke="midnightblue" points="53.58,-314.01 48.64,-304.64 46.66,-315.04 53.58,-314.01"/>
</g>
<!-- Node5 -->
<g id="node5" class="node">
<title>Node5</title>
<g id="a_node5"><a xlink:href="classClinkTop.html" target="_top" xlink:title=" ">
<polygon fill="white" stroke="black" points="176,-456.5 176,-475.5 234,-475.5 234,-456.5 176,-456.5"/>
<text text-anchor="middle" x="205" y="-463.5" font-family="Helvetica,sans-Serif" font-size="10.00">ClinkTop</text>
</a>
</g>
</g>
<!-- Node1&#45;&gt;Node5 -->
<g id="edge4" class="edge">
<title>Node1&#45;&gt;Node5</title>
<path fill="none" stroke="midnightblue" d="M52.34,-314.26C61.54,-346.77 84.7,-412.38 129,-447 142.34,-457.42 160.71,-462.19 175.94,-464.34"/>
<polygon fill="midnightblue" stroke="midnightblue" points="55.72,-313.34 49.75,-304.59 48.96,-315.16 55.72,-313.34"/>
</g>
<!-- Node6 -->
<g id="node6" class="node">
<title>Node6</title>
<g id="a_node6"><a xlink:href="classGigEthGtx7.html" target="_top" xlink:title=" ">
<polygon fill="white" stroke="black" points="169,-418.5 169,-437.5 241,-437.5 241,-418.5 169,-418.5"/>
<text text-anchor="middle" x="205" y="-425.5" font-family="Helvetica,sans-Serif" font-size="10.00">GigEthGtx7</text>
</a>
</g>
</g>
<!-- Node1&#45;&gt;Node6 -->
<g id="edge5" class="edge">
<title>Node1&#45;&gt;Node6</title>
<path fill="none" stroke="midnightblue" d="M55.9,-314.08C68.19,-339.69 93.51,-384.76 129,-409 140.65,-416.95 155.36,-421.58 168.66,-424.27"/>
<polygon fill="midnightblue" stroke="midnightblue" points="58.95,-312.32 51.58,-304.71 52.59,-315.25 58.95,-312.32"/>
</g>
<!-- Node8 -->
<g id="node8" class="node">
<title>Node8</title>
<g id="a_node8"><a xlink:href="classPgp2bGtp7FixedLatWrapper.html" target="_top" xlink:title=" ">
<polygon fill="white" stroke="black" points="129,-380.5 129,-399.5 281,-399.5 281,-380.5 129,-380.5"/>
<text text-anchor="middle" x="205" y="-387.5" font-family="Helvetica,sans-Serif" font-size="10.00">Pgp2bGtp7FixedLatWrapper</text>
</a>
</g>
</g>
<!-- Node1&#45;&gt;Node8 -->
<g id="edge7" class="edge">
<title>Node1&#45;&gt;Node8</title>
<path fill="none" stroke="midnightblue" d="M61.39,-312.29C76.29,-329.69 101.56,-356.03 129,-371 136.08,-374.86 143.95,-377.95 151.87,-380.43"/>
<polygon fill="midnightblue" stroke="midnightblue" points="64.03,-309.99 54.94,-304.55 58.65,-314.47 64.03,-309.99"/>
</g>
<!-- Node9 -->
<g id="node9" class="node">
<title>Node9</title>
<g id="a_node9"><a xlink:href="classPgp3GthUs.html" target="_top" xlink:title=" ">
<polygon fill="white" stroke="black" points="169.5,-342.5 169.5,-361.5 240.5,-361.5 240.5,-342.5 169.5,-342.5"/>
<text text-anchor="middle" x="205" y="-349.5" font-family="Helvetica,sans-Serif" font-size="10.00">Pgp3GthUs</text>
</a>
</g>
</g>
<!-- Node1&#45;&gt;Node9 -->
<g id="edge8" class="edge">
<title>Node1&#45;&gt;Node9</title>
<path fill="none" stroke="midnightblue" d="M79.15,-308.46C94.16,-314.68 112.4,-321.99 129,-328 143.14,-333.12 158.98,-338.27 172.44,-342.48"/>
<polygon fill="midnightblue" stroke="midnightblue" points="80.39,-305.18 69.81,-304.56 77.69,-311.64 80.39,-305.18"/>
</g>
<!-- Node10 -->
<g id="node10" class="node">
<title>Node10</title>
<g id="a_node10"><a xlink:href="classPgp3GthUsWrapper.html" target="_top" xlink:title=" ">
<polygon fill="white" stroke="black" points="317.5,-323.5 317.5,-342.5 429.5,-342.5 429.5,-323.5 317.5,-323.5"/>
<text text-anchor="middle" x="373.5" y="-330.5" font-family="Helvetica,sans-Serif" font-size="10.00">Pgp3GthUsWrapper</text>
</a>
</g>
</g>
<!-- Node1&#45;&gt;Node10 -->
<g id="edge10" class="edge">
<title>Node1&#45;&gt;Node10</title>
<path fill="none" stroke="midnightblue" d="M103.05,-301.5C162.88,-308.49 257.5,-319.55 317.22,-326.54"/>
<polygon fill="midnightblue" stroke="midnightblue" points="103.37,-298.01 93.03,-300.32 102.56,-304.96 103.37,-298.01"/>
</g>
<!-- Node11 -->
<g id="node11" class="node">
<title>Node11</title>
<g id="a_node11"><a xlink:href="classPgp3Gtp7.html" target="_top" xlink:title=" ">
<polygon fill="white" stroke="black" points="173,-266.5 173,-285.5 237,-285.5 237,-266.5 173,-266.5"/>
<text text-anchor="middle" x="205" y="-273.5" font-family="Helvetica,sans-Serif" font-size="10.00">Pgp3Gtp7</text>
</a>
</g>
</g>
<!-- Node1&#45;&gt;Node11 -->
<g id="edge11" class="edge">
<title>Node1&#45;&gt;Node11</title>
<path fill="none" stroke="midnightblue" d="M103.35,-288.22C126.74,-285.38 153.04,-282.19 172.89,-279.78"/>
<polygon fill="midnightblue" stroke="midnightblue" points="102.69,-284.77 93.19,-289.45 103.54,-291.72 102.69,-284.77"/>
</g>
<!-- Node12 -->
<g id="node12" class="node">
<title>Node12</title>
<g id="a_node12"><a xlink:href="classPgp3Gtp7Wrapper.html" target="_top" xlink:title=" ">
<polygon fill="white" stroke="black" points="321,-237.5 321,-256.5 426,-256.5 426,-237.5 321,-237.5"/>
<text text-anchor="middle" x="373.5" y="-244.5" font-family="Helvetica,sans-Serif" font-size="10.00">Pgp3Gtp7Wrapper</text>
</a>
</g>
</g>
<!-- Node1&#45;&gt;Node12 -->
<g id="edge14" class="edge">
<title>Node1&#45;&gt;Node12</title>
<path fill="none" stroke="midnightblue" d="M72.07,-280.42C87.77,-271.9 108.9,-261.89 129,-257 193.75,-241.25 270.99,-241.09 320.85,-243.31"/>
<polygon fill="midnightblue" stroke="midnightblue" points="70.06,-277.53 63.05,-285.47 73.48,-283.64 70.06,-277.53"/>
</g>
<!-- Node14 -->
<g id="node14" class="node">
<title>Node14</title>
<g id="a_node14"><a xlink:href="classPgp3Gtx7.html" target="_top" xlink:title=" ">
<polygon fill="white" stroke="black" points="173,-190.5 173,-209.5 237,-209.5 237,-190.5 173,-190.5"/>
<text text-anchor="middle" x="205" y="-197.5" font-family="Helvetica,sans-Serif" font-size="10.00">Pgp3Gtx7</text>
</a>
</g>
</g>
<!-- Node1&#45;&gt;Node14 -->
<g id="edge15" class="edge">
<title>Node1&#45;&gt;Node14</title>
<path fill="none" stroke="midnightblue" d="M63.21,-277.75C78.59,-261.8 103.38,-238.44 129,-224 142.58,-216.35 158.94,-210.75 172.9,-206.9"/>
<polygon fill="midnightblue" stroke="midnightblue" points="60.38,-275.65 56.08,-285.33 65.48,-280.45 60.38,-275.65"/>
</g>
<!-- Node15 -->
<g id="node15" class="node">
<title>Node15</title>
<g id="a_node15"><a xlink:href="classPgp3Gtx7Wrapper.html" target="_top" xlink:title=" ">
<polygon fill="white" stroke="black" points="321,-180.5 321,-199.5 426,-199.5 426,-180.5 321,-180.5"/>
<text text-anchor="middle" x="373.5" y="-187.5" font-family="Helvetica,sans-Serif" font-size="10.00">Pgp3Gtx7Wrapper</text>
</a>
</g>
</g>
<!-- Node1&#45;&gt;Node15 -->
<g id="edge17" class="edge">
<title>Node1&#45;&gt;Node15</title>
<path fill="none" stroke="midnightblue" d="M54.63,-275.77C65.8,-248.83 90.23,-200.94 129,-181 199.16,-144.91 296.33,-166.18 343.92,-180.39"/>
<polygon fill="midnightblue" stroke="midnightblue" points="51.3,-274.68 50.89,-285.27 57.81,-277.25 51.3,-274.68"/>
</g>
<!-- Node16 -->
<g id="node16" class="node">
<title>Node16</title>
<g id="a_node16"><a xlink:href="classPgp3GtyUs.html" target="_top" xlink:title=" ">
<polygon fill="white" stroke="black" points="169.5,-114.5 169.5,-133.5 240.5,-133.5 240.5,-114.5 169.5,-114.5"/>
<text text-anchor="middle" x="205" y="-121.5" font-family="Helvetica,sans-Serif" font-size="10.00">Pgp3GtyUs</text>
</a>
</g>
</g>
<!-- Node1&#45;&gt;Node16 -->
<g id="edge18" class="edge">
<title>Node1&#45;&gt;Node16</title>
<path fill="none" stroke="midnightblue" d="M53.03,-275.79C63.01,-244.47 87.03,-182.44 129,-148 140.41,-138.63 155.55,-132.9 169.23,-129.4"/>
<polygon fill="midnightblue" stroke="midnightblue" points="49.64,-274.91 50.07,-285.49 56.33,-276.95 49.64,-274.91"/>
</g>
<!-- Node17 -->
<g id="node17" class="node">
<title>Node17</title>
<g id="a_node17"><a xlink:href="classPgp3GtyUsWrapper.html" target="_top" xlink:title=" ">
<polygon fill="white" stroke="black" points="317.5,-95.5 317.5,-114.5 429.5,-114.5 429.5,-95.5 317.5,-95.5"/>
<text text-anchor="middle" x="373.5" y="-102.5" font-family="Helvetica,sans-Serif" font-size="10.00">Pgp3GtyUsWrapper</text>
</a>
</g>
</g>
<!-- Node1&#45;&gt;Node17 -->
<g id="edge20" class="edge">
<title>Node1&#45;&gt;Node17</title>
<path fill="none" stroke="midnightblue" d="M49.15,-275.03C53.68,-234.62 70.23,-143.74 129,-105 194.83,-61.61 293.98,-81.44 342.96,-95.41"/>
<polygon fill="midnightblue" stroke="midnightblue" points="45.64,-274.91 48.14,-285.21 52.61,-275.6 45.64,-274.91"/>
</g>
<!-- Node18 -->
<g id="node18" class="node">
<title>Node18</title>
<g id="a_node18"><a xlink:href="classPgpEthAxiL.html" target="_top" xlink:title=" ">
<polygon fill="white" stroke="black" points="169.5,-38.5 169.5,-57.5 240.5,-57.5 240.5,-38.5 169.5,-38.5"/>
<text text-anchor="middle" x="205" y="-45.5" font-family="Helvetica,sans-Serif" font-size="10.00">PgpEthAxiL</text>
</a>
</g>
</g>
<!-- Node1&#45;&gt;Node18 -->
<g id="edge21" class="edge">
<title>Node1&#45;&gt;Node18</title>
<path fill="none" stroke="midnightblue" d="M49.01,-275.34C53.37,-232.26 69.77,-128.87 129,-72 139.85,-61.58 155.22,-55.69 169.23,-52.35"/>
<polygon fill="midnightblue" stroke="midnightblue" points="45.52,-275.09 48.11,-285.36 52.49,-275.72 45.52,-275.09"/>
</g>
<!-- Node23 -->
<g id="node23" class="node">
<title>Node23</title>
<g id="a_node23"><a xlink:href="classRssiCoreTb.html" target="_top" xlink:title=" ">
<polygon fill="white" stroke="black" points="169.5,-0.5 169.5,-19.5 240.5,-19.5 240.5,-0.5 169.5,-0.5"/>
<text text-anchor="middle" x="205" y="-7.5" font-family="Helvetica,sans-Serif" font-size="10.00">RssiCoreTb</text>
</a>
</g>
</g>
<!-- Node1&#45;&gt;Node23 -->
<g id="edge26" class="edge">
<title>Node1&#45;&gt;Node23</title>
<path fill="none" stroke="midnightblue" d="M47.39,-275.04C48.24,-225.68 57.59,-96.98 129,-29 139.8,-18.72 155.33,-13.78 169.47,-11.49"/>
<polygon fill="midnightblue" stroke="midnightblue" points="43.89,-275.29 47.32,-285.31 50.88,-275.33 43.89,-275.29"/>
</g>
<!-- Node7 -->
<g id="node7" class="node">
<title>Node7</title>
<g id="a_node7"><a xlink:href="classGigEthGtx7Wrapper.html" target="_top" xlink:title=" ">
<polygon fill="white" stroke="black" points="317,-418.5 317,-437.5 430,-437.5 430,-418.5 317,-418.5"/>
<text text-anchor="middle" x="373.5" y="-425.5" font-family="Helvetica,sans-Serif" font-size="10.00">GigEthGtx7Wrapper</text>
</a>
</g>
</g>
<!-- Node6&#45;&gt;Node7 -->
<g id="edge6" class="edge">
<title>Node6&#45;&gt;Node7</title>
<path fill="none" stroke="midnightblue" d="M251.5,-428C271.7,-428 295.67,-428 316.93,-428"/>
<polygon fill="midnightblue" stroke="midnightblue" points="251.31,-424.5 241.31,-428 251.31,-431.5 251.31,-424.5"/>
</g>
<!-- Node9&#45;&gt;Node10 -->
<g id="edge9" class="edge">
<title>Node9&#45;&gt;Node10</title>
<path fill="none" stroke="midnightblue" d="M250.9,-346.88C271.36,-344.54 295.76,-341.76 317.33,-339.3"/>
<polygon fill="midnightblue" stroke="midnightblue" points="250.44,-343.41 240.9,-348.02 251.24,-350.36 250.44,-343.41"/>
</g>
<!-- Node11&#45;&gt;Node12 -->
<g id="edge12" class="edge">
<title>Node11&#45;&gt;Node12</title>
<path fill="none" stroke="midnightblue" d="M247.41,-268.79C269.59,-264.92 297.12,-260.13 320.7,-256.02"/>
<polygon fill="midnightblue" stroke="midnightblue" points="246.57,-265.38 237.32,-270.55 247.77,-272.28 246.57,-265.38"/>
</g>
<!-- Node13 -->
<g id="node13" class="node">
<title>Node13</title>
<g id="a_node13"><a xlink:href="classPgp3Gtp7Tb.html" target="_top" xlink:title=" ">
<polygon fill="white" stroke="black" points="475.5,-237.5 475.5,-256.5 551.5,-256.5 551.5,-237.5 475.5,-237.5"/>
<text text-anchor="middle" x="513.5" y="-244.5" font-family="Helvetica,sans-Serif" font-size="10.00">Pgp3Gtp7Tb</text>
</a>
</g>
</g>
<!-- Node12&#45;&gt;Node13 -->
<g id="edge13" class="edge">
<title>Node12&#45;&gt;Node13</title>
<path fill="none" stroke="midnightblue" d="M436.29,-247C449.53,-247 463.11,-247 475.08,-247"/>
<polygon fill="midnightblue" stroke="midnightblue" points="436.28,-243.5 426.28,-247 436.28,-250.5 436.28,-243.5"/>
</g>
<!-- Node14&#45;&gt;Node15 -->
<g id="edge16" class="edge">
<title>Node14&#45;&gt;Node15</title>
<path fill="none" stroke="midnightblue" d="M247.41,-197.51C269.59,-196.18 297.12,-194.53 320.7,-193.11"/>
<polygon fill="midnightblue" stroke="midnightblue" points="247.09,-194.03 237.32,-198.12 247.51,-201.01 247.09,-194.03"/>
</g>
<!-- Node16&#45;&gt;Node17 -->
<g id="edge19" class="edge">
<title>Node16&#45;&gt;Node17</title>
<path fill="none" stroke="midnightblue" d="M250.9,-118.88C271.36,-116.54 295.76,-113.76 317.33,-111.3"/>
<polygon fill="midnightblue" stroke="midnightblue" points="250.44,-115.41 240.9,-120.02 251.24,-122.36 250.44,-115.41"/>
</g>
<!-- Node19 -->
<g id="node19" class="node">
<title>Node19</title>
<g id="a_node19"><a xlink:href="classPgpEthCore.html" target="_top" xlink:title=" ">
<polygon fill="white" stroke="black" points="337,-38.5 337,-57.5 410,-57.5 410,-38.5 337,-38.5"/>
<text text-anchor="middle" x="373.5" y="-45.5" font-family="Helvetica,sans-Serif" font-size="10.00">PgpEthCore</text>
</a>
</g>
</g>
<!-- Node18&#45;&gt;Node19 -->
<g id="edge22" class="edge">
<title>Node18&#45;&gt;Node19</title>
<path fill="none" stroke="midnightblue" d="M251.22,-48C278.12,-48 311.76,-48 336.78,-48"/>
<polygon fill="midnightblue" stroke="midnightblue" points="250.9,-44.5 240.9,-48 250.9,-51.5 250.9,-44.5"/>
</g>
<!-- Node20 -->
<g id="node20" class="node">
<title>Node20</title>
<g id="a_node20"><a xlink:href="classPgpEthCaui4Gty.html" target="_top" xlink:title=" ">
<polygon fill="white" stroke="black" points="466,-57.5 466,-76.5 561,-76.5 561,-57.5 466,-57.5"/>
<text text-anchor="middle" x="513.5" y="-64.5" font-family="Helvetica,sans-Serif" font-size="10.00">PgpEthCaui4Gty</text>
</a>
</g>
</g>
<!-- Node19&#45;&gt;Node20 -->
<g id="edge23" class="edge">
<title>Node19&#45;&gt;Node20</title>
<path fill="none" stroke="midnightblue" d="M419.95,-54.26C434.69,-56.29 451.06,-58.54 465.89,-60.58"/>
<polygon fill="midnightblue" stroke="midnightblue" points="420.42,-50.79 410.04,-52.89 419.47,-57.72 420.42,-50.79"/>
</g>
<!-- Node22 -->
<g id="node22" class="node">
<title>Node22</title>
<g id="a_node22"><a xlink:href="classPgpEthCoreTb.html" target="_top" xlink:title=" ">
<polygon fill="white" stroke="black" points="471,-19.5 471,-38.5 556,-38.5 556,-19.5 471,-19.5"/>
<text text-anchor="middle" x="513.5" y="-26.5" font-family="Helvetica,sans-Serif" font-size="10.00">PgpEthCoreTb</text>
</a>
</g>
</g>
<!-- Node19&#45;&gt;Node22 -->
<g id="edge25" class="edge">
<title>Node19&#45;&gt;Node22</title>
<path fill="none" stroke="midnightblue" d="M420.39,-41.68C436.64,-39.44 454.82,-36.94 470.71,-34.75"/>
<polygon fill="midnightblue" stroke="midnightblue" points="419.47,-38.28 410.04,-43.11 420.42,-45.21 419.47,-38.28"/>
</g>
<!-- Node21 -->
<g id="node21" class="node">
<title>Node21</title>
<g id="a_node21"><a xlink:href="classPgpEthCaui4GtyTb.html" target="_top" xlink:title=" ">
<polygon fill="white" stroke="black" points="597,-57.5 597,-76.5 704,-76.5 704,-57.5 597,-57.5"/>
<text text-anchor="middle" x="650.5" y="-64.5" font-family="Helvetica,sans-Serif" font-size="10.00">PgpEthCaui4GtyTb</text>
</a>
</g>
</g>
<!-- Node20&#45;&gt;Node21 -->
<g id="edge24" class="edge">
<title>Node20&#45;&gt;Node21</title>
<path fill="none" stroke="midnightblue" d="M571.43,-67C579.82,-67 588.43,-67 596.74,-67"/>
<polygon fill="midnightblue" stroke="midnightblue" points="571.34,-63.5 561.34,-67 571.34,-70.5 571.34,-63.5"/>
</g>
</g>
</svg>
        <g id="navigator" transform="translate(0 0)" fill="#404254">
                <rect fill="#f2f5e9" fill-opacity="0.5" stroke="#606060" stroke-width=".5" x="0" y="0" width="60" height="60"/>
                <use id="zoomplus" xlink:href="#zoomPlus" x="17" y="9" onmousedown="handleZoom(evt,'in')"/>
                <use id="zoomminus" xlink:href="#zoomMin" x="42" y="9" onmousedown="handleZoom(evt,'out')"/>
                <use id="reset" xlink:href="#resetDef" x="30" y="36" onmousedown="handleReset()"/>
                <g id="arrowUp" xlink:href="#dirArrow" transform="translate(30 24)" onmousedown="handlePan(0,-1)">
                  <use xlink:href="#rim" fill="#404040">
                        <set attributeName="fill" to="#808080" begin="arrowUp.mouseover" end="arrowUp.mouseout"/>
                  </use>
                  <path fill="none" stroke="white" stroke-width="1.5" d="M0,-3.0v7 M-2.5,-0.5L0,-3.0L2.5,-0.5"/>
                </g>
                <g id="arrowRight" xlink:href="#dirArrow" transform="rotate(90) translate(36 -43)" onmousedown="handlePan(1,0)">
                  <use xlink:href="#rim" fill="#404040">
                        <set attributeName="fill" to="#808080" begin="arrowRight.mouseover" end="arrowRight.mouseout"/>
                  </use>
                  <path fill="none" stroke="white" stroke-width="1.5" d="M0,-3.0v7 M-2.5,-0.5L0,-3.0L2.5,-0.5"/>
                </g>
                <g id="arrowDown" xlink:href="#dirArrow" transform="rotate(180) translate(-30 -48)" onmousedown="handlePan(0,1)">
                  <use xlink:href="#rim" fill="#404040">
                        <set attributeName="fill" to="#808080" begin="arrowDown.mouseover" end="arrowDown.mouseout"/>
                  </use>
                  <path fill="none" stroke="white" stroke-width="1.5" d="M0,-3.0v7 M-2.5,-0.5L0,-3.0L2.5,-0.5"/>
                </g>
                <g id="arrowLeft" xlink:href="#dirArrow" transform="rotate(270) translate(-36 17)" onmousedown="handlePan(-1,0)">
                  <use xlink:href="#rim" fill="#404040">
                        <set attributeName="fill" to="#808080" begin="arrowLeft.mouseover" end="arrowLeft.mouseout"/>
                  </use>
                  <path fill="none" stroke="white" stroke-width="1.5" d="M0,-3.0v7 M-2.5,-0.5L0,-3.0L2.5,-0.5"/>
                </g>
        </g>
        <svg viewBox="0 0 15 15" width="100%" height="30px" preserveAspectRatio="xMaxYMin meet">
         <g id="arrow_out" transform="scale(0.3 0.3)">
          <a xlink:href="classAxiLiteCrossbar__inherit__graph_org.svg" target="_base">
           <rect id="button" ry="5" rx="5" y="6" x="6" height="38" width="38"
                fill="#f2f5e9" fill-opacity="0.5" stroke="#606060" stroke-width="1.0"/>
           <path id="arrow"
             d="M 11.500037,31.436501 C 11.940474,20.09759 22.043105,11.32322 32.158766,21.979434 L 37.068811,17.246167 C 37.068811,17.246167 37.088388,32 37.088388,32 L 22.160133,31.978069 C 22.160133,31.978069 26.997745,27.140456 26.997745,27.140456 C 18.528582,18.264221 13.291696,25.230495 11.500037,31.436501 z"
             style="fill:#404040;"/>
          </a>
         </g>
        </svg>
</svg>
