<?xml version="1.0" encoding="UTF-8" standalone="no"?>
<!DOCTYPE svg PUBLIC "-//W3C//DTD SVG 1.1//EN"
 "http://www.w3.org/Graphics/SVG/1.1/DTD/svg11.dtd">
<!-- Generated by graphviz version 2.40.1 (20161225.0304)
 -->
<!-- Title: SemWrapper Pages: 1 -->
<svg width="240pt" height="196pt"
 viewBox="0.00 0.00 240.00 196.00" xmlns="http://www.w3.org/2000/svg" xmlns:xlink="http://www.w3.org/1999/xlink">
<g id="graph0" class="graph" transform="scale(1 1) rotate(0) translate(4 192)">
<title>SemWrapper</title>
<polygon fill="#ffffff" stroke="transparent" points="-4,4 -4,-192 236,-192 236,4 -4,4"/>
<!-- Node7 -->
<g id="node1" class="node">
<title>Node7</title>
<polygon fill="#bfbfbf" stroke="#000000" points="77.5,-.5 77.5,-19.5 156.5,-19.5 156.5,-.5 77.5,-.5"/>
<text text-anchor="middle" x="117" y="-7.5" font-family="Helvetica,sans-Serif" font-size="10.00" fill="#000000">SemWrapper</text>
</g>
<!-- Node8 -->
<g id="node2" class="node">
<title>Node8</title>
<g id="a_node2"><a xlink:href="classIprog7SeriesCore.html" target="_top" xlink:title="Iprog7SeriesCore">
<polygon fill="#ffffff" stroke="#000000" points="67,-56.5 67,-75.5 167,-75.5 167,-56.5 67,-56.5"/>
<text text-anchor="middle" x="117" y="-63.5" font-family="Helvetica,sans-Serif" font-size="10.00" fill="#000000">Iprog7SeriesCore</text>
</a>
</g>
</g>
<!-- Node8&#45;&gt;Node7 -->
<g id="edge1" class="edge">
<title>Node8&#45;&gt;Node7</title>
<path fill="none" stroke="#191970" d="M117,-46.1575C117,-37.155 117,-26.9199 117,-19.6427"/>
<polygon fill="#191970" stroke="#191970" points="113.5001,-46.2455 117,-56.2455 120.5001,-46.2456 113.5001,-46.2455"/>
</g>
<!-- Node9 -->
<g id="node3" class="node">
<title>Node9</title>
<g id="a_node3"><a xlink:href="classSynchronizerVector.html" target="_top" xlink:title="SynchronizerVector">
<polygon fill="#ffffff" stroke="#000000" points="0,-112.5 0,-131.5 110,-131.5 110,-112.5 0,-112.5"/>
<text text-anchor="middle" x="55" y="-119.5" font-family="Helvetica,sans-Serif" font-size="10.00" fill="#000000">SynchronizerVector</text>
</a>
</g>
</g>
<!-- Node9&#45;&gt;Node8 -->
<g id="edge2" class="edge">
<title>Node9&#45;&gt;Node8</title>
<path fill="none" stroke="#191970" d="M73.4221,-105.3607C84.1481,-95.6727 97.2934,-83.7995 106.3242,-75.6427"/>
<polygon fill="#191970" stroke="#191970" points="70.8746,-102.9453 65.7996,-112.2455 75.5666,-108.14 70.8746,-102.9453"/>
</g>
<!-- Node10 -->
<g id="node4" class="node">
<title>Node10</title>
<g id="a_node4"><a xlink:href="classSynchronizerEdge.html" target="_top" xlink:title="SynchronizerEdge">
<polygon fill="#ffffff" stroke="#000000" points="128,-112.5 128,-131.5 232,-131.5 232,-112.5 128,-112.5"/>
<text text-anchor="middle" x="180" y="-119.5" font-family="Helvetica,sans-Serif" font-size="10.00" fill="#000000">SynchronizerEdge</text>
</a>
</g>
</g>
<!-- Node10&#45;&gt;Node8 -->
<g id="edge3" class="edge">
<title>Node10&#45;&gt;Node8</title>
<path fill="none" stroke="#191970" d="M161.2808,-105.3607C150.3818,-95.6727 137.0245,-83.7995 127.848,-75.6427"/>
<polygon fill="#191970" stroke="#191970" points="159.2268,-108.2178 169.0262,-112.2455 163.8774,-102.9859 159.2268,-108.2178"/>
</g>
<!-- Node11 -->
<g id="node5" class="node">
<title>Node11</title>
<g id="a_node5"><a xlink:href="classSynchronizer.html" target="_top" xlink:title="Synchronizer">
<polygon fill="#ffffff" stroke="#000000" points="140,-168.5 140,-187.5 220,-187.5 220,-168.5 140,-168.5"/>
<text text-anchor="middle" x="180" y="-175.5" font-family="Helvetica,sans-Serif" font-size="10.00" fill="#000000">Synchronizer</text>
</a>
</g>
</g>
<!-- Node11&#45;&gt;Node10 -->
<g id="edge4" class="edge">
<title>Node11&#45;&gt;Node10</title>
<path fill="none" stroke="#191970" d="M180,-158.1575C180,-149.155 180,-138.9199 180,-131.6427"/>
<polygon fill="#191970" stroke="#191970" points="176.5001,-158.2455 180,-168.2455 183.5001,-158.2456 176.5001,-158.2455"/>
</g>
</g>
</svg>
