<?xml version="1.0" encoding="UTF-8" standalone="no"?>
<!DOCTYPE svg PUBLIC "-//W3C//DTD SVG 1.1//EN"
 "http://www.w3.org/Graphics/SVG/1.1/DTD/svg11.dtd">
<!-- Generated by graphviz version 2.40.1 (20161225.0304)
 -->
<!-- Title: SspDecoder8b10b Pages: 1 -->
<svg width="194pt" height="140pt"
 viewBox="0.00 0.00 193.50 140.00" xmlns="http://www.w3.org/2000/svg" xmlns:xlink="http://www.w3.org/1999/xlink">
<g id="graph0" class="graph" transform="scale(1 1) rotate(0) translate(4 136)">
<title>SspDecoder8b10b</title>
<polygon fill="#ffffff" stroke="transparent" points="-4,4 -4,-136 189.5,-136 189.5,4 -4,4"/>
<!-- Node0 -->
<g id="node1" class="node">
<title>Node0</title>
<polygon fill="#bfbfbf" stroke="#000000" points="42.5,-56.5 42.5,-75.5 146.5,-75.5 146.5,-56.5 42.5,-56.5"/>
<text text-anchor="middle" x="94.5" y="-63.5" font-family="Helvetica,sans-Serif" font-size="10.00" fill="#000000">SspDecoder8b10b</text>
</g>
<!-- Node3 -->
<g id="node4" class="node">
<title>Node3</title>
<g id="a_node4"><a xlink:href="classSspDecoder8b10bTb.html" target="_top" xlink:title="SspDecoder8b10bTb">
<polygon fill="#ffffff" stroke="#000000" points="36.5,-.5 36.5,-19.5 152.5,-19.5 152.5,-.5 36.5,-.5"/>
<text text-anchor="middle" x="94.5" y="-7.5" font-family="Helvetica,sans-Serif" font-size="10.00" fill="#000000">SspDecoder8b10bTb</text>
</a>
</g>
</g>
<!-- Node0&#45;&gt;Node3 -->
<g id="edge3" class="edge">
<title>Node0&#45;&gt;Node3</title>
<path fill="none" stroke="#191970" d="M94.5,-46.1575C94.5,-37.155 94.5,-26.9199 94.5,-19.6427"/>
<polygon fill="#191970" stroke="#191970" points="91.0001,-46.2455 94.5,-56.2455 98.0001,-46.2456 91.0001,-46.2455"/>
</g>
<!-- Node1 -->
<g id="node2" class="node">
<title>Node1</title>
<g id="a_node2"><a xlink:href="classDecoder8b10b.html" target="_top" xlink:title="Decoder8b10b">
<polygon fill="#ffffff" stroke="#000000" points="0,-112.5 0,-131.5 87,-131.5 87,-112.5 0,-112.5"/>
<text text-anchor="middle" x="43.5" y="-119.5" font-family="Helvetica,sans-Serif" font-size="10.00" fill="#000000">Decoder8b10b</text>
</a>
</g>
</g>
<!-- Node1&#45;&gt;Node0 -->
<g id="edge1" class="edge">
<title>Node1&#45;&gt;Node0</title>
<path fill="none" stroke="#191970" d="M59.1749,-104.7884C67.8994,-95.2085 78.4354,-83.6396 85.7183,-75.6427"/>
<polygon fill="#191970" stroke="#191970" points="56.5291,-102.4954 52.3835,-112.2455 61.7046,-107.2088 56.5291,-102.4954"/>
</g>
<!-- Node2 -->
<g id="node3" class="node">
<title>Node2</title>
<g id="a_node3"><a xlink:href="classSspDeframer.html" target="_top" xlink:title="SspDeframer">
<polygon fill="#ffffff" stroke="#000000" points="105.5,-112.5 105.5,-131.5 185.5,-131.5 185.5,-112.5 105.5,-112.5"/>
<text text-anchor="middle" x="145.5" y="-119.5" font-family="Helvetica,sans-Serif" font-size="10.00" fill="#000000">SspDeframer</text>
</a>
</g>
</g>
<!-- Node2&#45;&gt;Node0 -->
<g id="edge2" class="edge">
<title>Node2&#45;&gt;Node0</title>
<path fill="none" stroke="#191970" d="M129.8251,-104.7884C121.1006,-95.2085 110.5646,-83.6396 103.2817,-75.6427"/>
<polygon fill="#191970" stroke="#191970" points="127.2954,-107.2088 136.6165,-112.2455 132.4709,-102.4954 127.2954,-107.2088"/>
</g>
</g>
</svg>
