<?xml version="1.0" encoding="UTF-8" standalone="no"?>
<!DOCTYPE svg PUBLIC "-//W3C//DTD SVG 1.1//EN"
 "http://www.w3.org/Graphics/SVG/1.1/DTD/svg11.dtd">
<!-- Generated by graphviz version 2.43.0 (0)
 -->
<!-- Title: SsiFifo Pages: 1 -->
<svg width="1301pt" height="712pt"
 viewBox="0.00 0.00 1301.00 712.00" xmlns="http://www.w3.org/2000/svg" xmlns:xlink="http://www.w3.org/1999/xlink">
<g id="graph0" class="graph" transform="scale(1 1) rotate(0) translate(4 708)">
<title>SsiFifo</title>
<polygon fill="white" stroke="transparent" points="-4,4 -4,-708 1297,-708 1297,4 -4,4"/>
<!-- Node1 -->
<g id="node1" class="node">
<title>Node1</title>
<g id="a_node1"><a xlink:title=" ">
<polygon fill="#bfbfbf" stroke="black" points="829,-95.5 829,-114.5 878,-114.5 878,-95.5 829,-95.5"/>
<text text-anchor="middle" x="853.5" y="-102.5" font-family="Helvetica,sans-Serif" font-size="10.00">SsiFifo</text>
</a>
</g>
</g>
<!-- Node21 -->
<g id="node21" class="node">
<title>Node21</title>
<g id="a_node21"><a xlink:href="classEthMacRxFifo.html" target="_top" xlink:title=" ">
<polygon fill="white" stroke="black" points="914,-276.5 914,-295.5 997,-295.5 997,-276.5 914,-276.5"/>
<text text-anchor="middle" x="955.5" y="-283.5" font-family="Helvetica,sans-Serif" font-size="10.00">EthMacRxFifo</text>
</a>
</g>
</g>
<!-- Node1&#45;&gt;Node21 -->
<g id="edge29" class="edge">
<title>Node1&#45;&gt;Node21</title>
<path fill="none" stroke="midnightblue" d="M864.86,-123.75C885.92,-161.88 933.12,-247.31 949.1,-276.22"/>
<polygon fill="midnightblue" stroke="midnightblue" points="867.78,-121.79 859.88,-114.73 861.65,-125.18 867.78,-121.79"/>
</g>
<!-- Node56 -->
<g id="node40" class="node">
<title>Node56</title>
<g id="a_node40"><a xlink:href="classSaltRx.html" target="_top" xlink:title=" ">
<polygon fill="white" stroke="black" points="931.5,-152.5 931.5,-171.5 979.5,-171.5 979.5,-152.5 931.5,-152.5"/>
<text text-anchor="middle" x="955.5" y="-159.5" font-family="Helvetica,sans-Serif" font-size="10.00">SaltRx</text>
</a>
</g>
</g>
<!-- Node1&#45;&gt;Node56 -->
<g id="edge48" class="edge">
<title>Node1&#45;&gt;Node56</title>
<path fill="none" stroke="midnightblue" d="M876.91,-120.29C887.89,-127.52 901.42,-136.07 914,-143 919.99,-146.3 926.64,-149.57 932.8,-152.45"/>
<polygon fill="midnightblue" stroke="midnightblue" points="878.63,-117.23 868.37,-114.59 874.75,-123.05 878.63,-117.23"/>
</g>
<!-- Node61 -->
<g id="node44" class="node">
<title>Node61</title>
<g id="a_node44"><a xlink:href="classSrpV0AxiLite.html" target="_top" xlink:title=" ">
<polygon fill="white" stroke="black" points="916,-114.5 916,-133.5 995,-133.5 995,-114.5 916,-114.5"/>
<text text-anchor="middle" x="955.5" y="-121.5" font-family="Helvetica,sans-Serif" font-size="10.00">SrpV0AxiLite</text>
</a>
</g>
</g>
<!-- Node1&#45;&gt;Node61 -->
<g id="edge52" class="edge">
<title>Node1&#45;&gt;Node61</title>
<path fill="none" stroke="midnightblue" d="M888.16,-111.4C897.01,-113.08 906.63,-114.9 915.73,-116.63"/>
<polygon fill="midnightblue" stroke="midnightblue" points="888.68,-107.93 878.2,-109.5 887.37,-114.81 888.68,-107.93"/>
</g>
<!-- Node63 -->
<g id="node46" class="node">
<title>Node63</title>
<g id="a_node46"><a xlink:href="classSrpV3Core.html" target="_top" xlink:title=" ">
<polygon fill="white" stroke="black" points="921.5,-76.5 921.5,-95.5 989.5,-95.5 989.5,-76.5 921.5,-76.5"/>
<text text-anchor="middle" x="955.5" y="-83.5" font-family="Helvetica,sans-Serif" font-size="10.00">SrpV3Core</text>
</a>
</g>
</g>
<!-- Node1&#45;&gt;Node63 -->
<g id="edge54" class="edge">
<title>Node1&#45;&gt;Node63</title>
<path fill="none" stroke="midnightblue" d="M888.34,-98.57C898.92,-96.56 910.58,-94.34 921.13,-92.34"/>
<polygon fill="midnightblue" stroke="midnightblue" points="887.37,-95.19 878.2,-100.5 888.68,-102.07 887.37,-95.19"/>
</g>
<!-- Node67 -->
<g id="node48" class="node">
<title>Node67</title>
<g id="a_node48"><a xlink:href="classSsiFifoTb.html" target="_top" xlink:title=" ">
<polygon fill="white" stroke="black" points="925,-38.5 925,-57.5 986,-57.5 986,-38.5 925,-38.5"/>
<text text-anchor="middle" x="955.5" y="-45.5" font-family="Helvetica,sans-Serif" font-size="10.00">SsiFifoTb</text>
</a>
</g>
</g>
<!-- Node1&#45;&gt;Node67 -->
<g id="edge56" class="edge">
<title>Node1&#45;&gt;Node67</title>
<path fill="none" stroke="midnightblue" d="M876.91,-89.71C887.89,-82.48 901.42,-73.93 914,-67 919.99,-63.7 926.64,-60.43 932.8,-57.55"/>
<polygon fill="midnightblue" stroke="midnightblue" points="874.75,-86.95 868.37,-95.41 878.63,-92.77 874.75,-86.95"/>
</g>
<!-- Node68 -->
<g id="node49" class="node">
<title>Node68</title>
<g id="a_node49"><a xlink:href="classSsiFilterTb.html" target="_top" xlink:title=" ">
<polygon fill="white" stroke="black" points="921.5,-0.5 921.5,-19.5 989.5,-19.5 989.5,-0.5 921.5,-0.5"/>
<text text-anchor="middle" x="955.5" y="-7.5" font-family="Helvetica,sans-Serif" font-size="10.00">SsiFilterTb</text>
</a>
</g>
</g>
<!-- Node1&#45;&gt;Node68 -->
<g id="edge57" class="edge">
<title>Node1&#45;&gt;Node68</title>
<path fill="none" stroke="midnightblue" d="M865.39,-86.56C876.05,-69.78 893.62,-45.23 914,-29 918.62,-25.32 924.06,-22.15 929.44,-19.52"/>
<polygon fill="midnightblue" stroke="midnightblue" points="862.2,-85.06 859.94,-95.42 868.16,-88.73 862.2,-85.06"/>
</g>
<!-- Node2 -->
<g id="node2" class="node">
<title>Node2</title>
<g id="a_node2"><a xlink:href="classSsiIbFrameFilter.html" target="_top" xlink:title=" ">
<polygon fill="white" stroke="black" points="689.5,-133.5 689.5,-152.5 784.5,-152.5 784.5,-133.5 689.5,-133.5"/>
<text text-anchor="middle" x="737" y="-140.5" font-family="Helvetica,sans-Serif" font-size="10.00">SsiIbFrameFilter</text>
</a>
</g>
</g>
<!-- Node2&#45;&gt;Node1 -->
<g id="edge1" class="edge">
<title>Node2&#45;&gt;Node1</title>
<path fill="none" stroke="midnightblue" d="M776.68,-130.16C793.9,-124.45 813.62,-117.9 828.64,-112.92"/>
<polygon fill="midnightblue" stroke="midnightblue" points="775.28,-126.94 766.89,-133.41 777.49,-133.58 775.28,-126.94"/>
</g>
<!-- Node3 -->
<g id="node3" class="node">
<title>Node3</title>
<g id="a_node3"><a xlink:href="classAxiStreamFifoV2.html" target="_top" xlink:title=" ">
<polygon fill="white" stroke="black" points="681,-95.5 681,-114.5 793,-114.5 793,-95.5 681,-95.5"/>
<text text-anchor="middle" x="737" y="-102.5" font-family="Helvetica,sans-Serif" font-size="10.00">AxiStreamFifoV2(2)</text>
</a>
</g>
</g>
<!-- Node3&#45;&gt;Node1 -->
<g id="edge2" class="edge">
<title>Node3&#45;&gt;Node1</title>
<path fill="none" stroke="midnightblue" d="M803.25,-105C812.41,-105 821.29,-105 828.94,-105"/>
<polygon fill="midnightblue" stroke="midnightblue" points="803.24,-101.5 793.24,-105 803.24,-108.5 803.24,-101.5"/>
</g>
<!-- Node4 -->
<g id="node4" class="node">
<title>Node4</title>
<g id="a_node4"><a xlink:href="classAxiStreamResize.html" target="_top" xlink:title=" ">
<polygon fill="white" stroke="black" points="532,-95.5 532,-114.5 645,-114.5 645,-95.5 532,-95.5"/>
<text text-anchor="middle" x="588.5" y="-102.5" font-family="Helvetica,sans-Serif" font-size="10.00">AxiStreamResize(2)</text>
</a>
</g>
</g>
<!-- Node4&#45;&gt;Node3 -->
<g id="edge3" class="edge">
<title>Node4&#45;&gt;Node3</title>
<path fill="none" stroke="midnightblue" d="M655.53,-105C663.99,-105 672.57,-105 680.84,-105"/>
<polygon fill="midnightblue" stroke="midnightblue" points="655.3,-101.5 645.3,-105 655.3,-108.5 655.3,-101.5"/>
</g>
<!-- Node5 -->
<g id="node5" class="node">
<title>Node5</title>
<g id="a_node5"><a xlink:href="classAxiStreamPipeline.html" target="_top" xlink:title=" ">
<polygon fill="white" stroke="black" points="389,-57.5 389,-76.5 496,-76.5 496,-57.5 389,-57.5"/>
<text text-anchor="middle" x="442.5" y="-64.5" font-family="Helvetica,sans-Serif" font-size="10.00">AxiStreamPipeline</text>
</a>
</g>
</g>
<!-- Node5&#45;&gt;Node3 -->
<g id="edge26" class="edge">
<title>Node5&#45;&gt;Node3</title>
<path fill="none" stroke="midnightblue" d="M506.41,-71.11C546.26,-74.17 598.82,-79.02 645,-86 661.44,-88.48 679.38,-92.04 694.95,-95.41"/>
<polygon fill="midnightblue" stroke="midnightblue" points="506.54,-67.61 496.31,-70.36 506.02,-74.59 506.54,-67.61"/>
</g>
<!-- Node5&#45;&gt;Node4 -->
<g id="edge4" class="edge">
<title>Node5&#45;&gt;Node4</title>
<path fill="none" stroke="midnightblue" d="M489.67,-79.18C509.66,-84.46 532.72,-90.54 551.42,-95.48"/>
<polygon fill="midnightblue" stroke="midnightblue" points="490.4,-75.76 479.84,-76.59 488.61,-82.52 490.4,-75.76"/>
</g>
<!-- Node20 -->
<g id="node20" class="node">
<title>Node20</title>
<g id="a_node20"><a xlink:href="classSsiObFrameFilter.html" target="_top" xlink:title=" ">
<polygon fill="white" stroke="black" points="687,-38.5 687,-57.5 787,-57.5 787,-38.5 687,-38.5"/>
<text text-anchor="middle" x="737" y="-45.5" font-family="Helvetica,sans-Serif" font-size="10.00">SsiObFrameFilter</text>
</a>
</g>
</g>
<!-- Node5&#45;&gt;Node20 -->
<g id="edge28" class="edge">
<title>Node5&#45;&gt;Node20</title>
<path fill="none" stroke="midnightblue" d="M506.27,-56.02C514.89,-54.82 523.65,-53.76 532,-53 584.75,-48.2 645.46,-47.3 686.84,-47.39"/>
<polygon fill="midnightblue" stroke="midnightblue" points="505.63,-52.58 496.24,-57.49 506.64,-59.5 505.63,-52.58"/>
</g>
<!-- Node6 -->
<g id="node6" class="node">
<title>Node6</title>
<g id="a_node6"><a xlink:href="classFifoCascade.html" target="_top" xlink:title=" ">
<polygon fill="white" stroke="black" points="544,-133.5 544,-152.5 633,-152.5 633,-133.5 544,-133.5"/>
<text text-anchor="middle" x="588.5" y="-140.5" font-family="Helvetica,sans-Serif" font-size="10.00">FifoCascade(2)</text>
</a>
</g>
</g>
<!-- Node6&#45;&gt;Node3 -->
<g id="edge5" class="edge">
<title>Node6&#45;&gt;Node3</title>
<path fill="none" stroke="midnightblue" d="M636.2,-130.89C656.6,-125.6 680.18,-119.48 699.3,-114.52"/>
<polygon fill="midnightblue" stroke="midnightblue" points="635.27,-127.51 626.47,-133.41 637.03,-134.29 635.27,-127.51"/>
</g>
<!-- Node7 -->
<g id="node7" class="node">
<title>Node7</title>
<g id="a_node7"><a xlink:href="classFifo.html" target="_top" xlink:title=" ">
<polygon fill="white" stroke="black" points="418.5,-114.5 418.5,-133.5 466.5,-133.5 466.5,-114.5 418.5,-114.5"/>
<text text-anchor="middle" x="442.5" y="-121.5" font-family="Helvetica,sans-Serif" font-size="10.00">Fifo(4)</text>
</a>
</g>
</g>
<!-- Node7&#45;&gt;Node6 -->
<g id="edge6" class="edge">
<title>Node7&#45;&gt;Node6</title>
<path fill="none" stroke="midnightblue" d="M476.78,-128.39C496.7,-131.02 522.26,-134.39 543.8,-137.23"/>
<polygon fill="midnightblue" stroke="midnightblue" points="477.01,-124.89 466.64,-127.05 476.09,-131.83 477.01,-124.89"/>
</g>
<!-- Node8 -->
<g id="node8" class="node">
<title>Node8</title>
<g id="a_node8"><a xlink:href="classFifoXpm.html" target="_top" xlink:title=" ">
<polygon fill="white" stroke="black" points="286,-38.5 286,-57.5 343,-57.5 343,-38.5 286,-38.5"/>
<text text-anchor="middle" x="314.5" y="-45.5" font-family="Helvetica,sans-Serif" font-size="10.00">FifoXpm</text>
</a>
</g>
</g>
<!-- Node8&#45;&gt;Node7 -->
<g id="edge7" class="edge">
<title>Node8&#45;&gt;Node7</title>
<path fill="none" stroke="midnightblue" d="M344.6,-62.37C347.46,-63.89 350.3,-65.45 353,-67 380.11,-82.54 410.49,-102.75 427.68,-114.46"/>
<polygon fill="midnightblue" stroke="midnightblue" points="346.04,-59.17 335.55,-57.68 342.82,-65.39 346.04,-59.17"/>
</g>
<!-- Node9 -->
<g id="node9" class="node">
<title>Node9</title>
<g id="a_node9"><a xlink:href="classFifoOutputPipeline.html" target="_top" xlink:title=" ">
<polygon fill="white" stroke="black" points="124.5,-38.5 124.5,-57.5 231.5,-57.5 231.5,-38.5 124.5,-38.5"/>
<text text-anchor="middle" x="178" y="-45.5" font-family="Helvetica,sans-Serif" font-size="10.00">FifoOutputPipeline</text>
</a>
</g>
</g>
<!-- Node9&#45;&gt;Node8 -->
<g id="edge8" class="edge">
<title>Node9&#45;&gt;Node8</title>
<path fill="none" stroke="midnightblue" d="M241.8,-48C257.19,-48 272.88,-48 285.65,-48"/>
<polygon fill="midnightblue" stroke="midnightblue" points="241.77,-44.5 231.77,-48 241.77,-51.5 241.77,-44.5"/>
</g>
<!-- Node10 -->
<g id="node10" class="node">
<title>Node10</title>
<g id="a_node10"><a xlink:href="classFifoAlteraMf.html" target="_top" xlink:title=" ">
<polygon fill="white" stroke="black" points="276,-76.5 276,-95.5 353,-95.5 353,-76.5 276,-76.5"/>
<text text-anchor="middle" x="314.5" y="-83.5" font-family="Helvetica,sans-Serif" font-size="10.00">FifoAlteraMf</text>
</a>
</g>
</g>
<!-- Node9&#45;&gt;Node10 -->
<g id="edge10" class="edge">
<title>Node9&#45;&gt;Node10</title>
<path fill="none" stroke="midnightblue" d="M222.6,-60.32C241.08,-65.54 262.29,-71.53 279.57,-76.41"/>
<polygon fill="midnightblue" stroke="midnightblue" points="223.51,-56.94 212.94,-57.59 221.61,-63.68 223.51,-56.94"/>
</g>
<!-- Node11 -->
<g id="node11" class="node">
<title>Node11</title>
<g id="a_node11"><a xlink:href="classFifoAsync.html" target="_top" xlink:title=" ">
<polygon fill="white" stroke="black" points="282.5,-152.5 282.5,-171.5 346.5,-171.5 346.5,-152.5 282.5,-152.5"/>
<text text-anchor="middle" x="314.5" y="-159.5" font-family="Helvetica,sans-Serif" font-size="10.00">FifoAsync</text>
</a>
</g>
</g>
<!-- Node9&#45;&gt;Node11 -->
<g id="edge19" class="edge">
<title>Node9&#45;&gt;Node11</title>
<path fill="none" stroke="midnightblue" d="M233.77,-62.38C235.97,-63.78 238.06,-65.31 240,-67 268.22,-91.51 249.93,-116.22 276,-143 279.67,-146.76 284.24,-149.91 288.91,-152.5"/>
<polygon fill="midnightblue" stroke="midnightblue" points="235.34,-59.24 224.87,-57.62 232.04,-65.42 235.34,-59.24"/>
</g>
<!-- Node19 -->
<g id="node19" class="node">
<title>Node19</title>
<g id="a_node19"><a xlink:href="classFifoSync.html" target="_top" xlink:title=" ">
<polygon fill="white" stroke="black" points="285.5,-114.5 285.5,-133.5 343.5,-133.5 343.5,-114.5 285.5,-114.5"/>
<text text-anchor="middle" x="314.5" y="-121.5" font-family="Helvetica,sans-Serif" font-size="10.00">FifoSync</text>
</a>
</g>
</g>
<!-- Node9&#45;&gt;Node19 -->
<g id="edge24" class="edge">
<title>Node9&#45;&gt;Node19</title>
<path fill="none" stroke="midnightblue" d="M229.35,-61.36C233.06,-63.04 236.65,-64.92 240,-67 259.75,-79.3 257.35,-91.09 276,-105 280.68,-108.49 286.1,-111.65 291.33,-114.36"/>
<polygon fill="midnightblue" stroke="midnightblue" points="230.56,-58.08 219.98,-57.58 227.94,-64.57 230.56,-58.08"/>
</g>
<!-- Node10&#45;&gt;Node7 -->
<g id="edge9" class="edge">
<title>Node10&#45;&gt;Node7</title>
<path fill="none" stroke="midnightblue" d="M357.01,-98.52C377.45,-104.68 401.32,-111.88 418.46,-117.05"/>
<polygon fill="midnightblue" stroke="midnightblue" points="357.88,-95.13 347.3,-95.59 355.86,-101.83 357.88,-95.13"/>
</g>
<!-- Node11&#45;&gt;Node7 -->
<g id="edge11" class="edge">
<title>Node11&#45;&gt;Node7</title>
<path fill="none" stroke="midnightblue" d="M356.37,-149.67C376.86,-143.5 400.92,-136.24 418.22,-131.02"/>
<polygon fill="midnightblue" stroke="midnightblue" points="355.21,-146.37 346.65,-152.61 357.23,-153.07 355.21,-146.37"/>
</g>
<!-- Node12 -->
<g id="node12" class="node">
<title>Node12</title>
<g id="a_node12"><a xlink:href="classRstSync.html" target="_top" xlink:title=" ">
<polygon fill="white" stroke="black" points="143.5,-228.5 143.5,-247.5 212.5,-247.5 212.5,-228.5 143.5,-228.5"/>
<text text-anchor="middle" x="178" y="-235.5" font-family="Helvetica,sans-Serif" font-size="10.00">RstSync(2)</text>
</a>
</g>
</g>
<!-- Node12&#45;&gt;Node11 -->
<g id="edge12" class="edge">
<title>Node12&#45;&gt;Node11</title>
<path fill="none" stroke="midnightblue" d="M222.29,-226.64C228.38,-224.44 234.45,-221.9 240,-219 264.91,-206.01 289.91,-184.34 303.38,-171.8"/>
<polygon fill="midnightblue" stroke="midnightblue" points="221.15,-223.33 212.78,-229.83 223.38,-229.97 221.15,-223.33"/>
</g>
<!-- Node13 -->
<g id="node13" class="node">
<title>Node13</title>
<g id="a_node13"><a xlink:href="classSynchronizer.html" target="_top" xlink:title=" ">
<polygon fill="white" stroke="black" points="0,-266.5 0,-285.5 80,-285.5 80,-266.5 0,-266.5"/>
<text text-anchor="middle" x="40" y="-273.5" font-family="Helvetica,sans-Serif" font-size="10.00">Synchronizer</text>
</a>
</g>
</g>
<!-- Node13&#45;&gt;Node3 -->
<g id="edge25" class="edge">
<title>Node13&#45;&gt;Node3</title>
<path fill="none" stroke="midnightblue" d="M83.76,-288.03C94.24,-290.64 105.47,-293.17 116,-295 202.88,-310.09 225.32,-314 313.5,-314 313.5,-314 313.5,-314 443.5,-314 555.68,-314 561.36,-236.75 645,-162 662.35,-146.5 661.45,-136.6 681,-124 686.86,-120.22 693.56,-117.1 700.21,-114.56"/>
<polygon fill="midnightblue" stroke="midnightblue" points="84.55,-284.62 74,-285.51 82.81,-291.4 84.55,-284.62"/>
</g>
<!-- Node13&#45;&gt;Node12 -->
<g id="edge13" class="edge">
<title>Node13&#45;&gt;Node12</title>
<path fill="none" stroke="midnightblue" d="M85.16,-263.66C104,-258.4 125.63,-252.35 143.16,-247.45"/>
<polygon fill="midnightblue" stroke="midnightblue" points="84.01,-260.35 75.32,-266.41 85.89,-267.09 84.01,-260.35"/>
</g>
<!-- Node14 -->
<g id="node14" class="node">
<title>Node14</title>
<g id="a_node14"><a xlink:href="classSynchronizerVector.html" target="_top" xlink:title=" ">
<polygon fill="white" stroke="black" points="116,-190.5 116,-209.5 240,-209.5 240,-190.5 116,-190.5"/>
<text text-anchor="middle" x="178" y="-197.5" font-family="Helvetica,sans-Serif" font-size="10.00">SynchronizerVector(2)</text>
</a>
</g>
</g>
<!-- Node14&#45;&gt;Node11 -->
<g id="edge14" class="edge">
<title>Node14&#45;&gt;Node11</title>
<path fill="none" stroke="midnightblue" d="M222.79,-187.63C242.22,-182.14 264.65,-175.8 282.34,-170.8"/>
<polygon fill="midnightblue" stroke="midnightblue" points="221.61,-184.32 212.94,-190.41 223.51,-191.06 221.61,-184.32"/>
</g>
<!-- Node15 -->
<g id="node15" class="node">
<title>Node15</title>
<g id="a_node15"><a xlink:href="classSynchronizer.html" target="_top" xlink:title=" ">
<polygon fill="white" stroke="black" points="131.5,-266.5 131.5,-285.5 224.5,-285.5 224.5,-266.5 131.5,-266.5"/>
<text text-anchor="middle" x="178" y="-273.5" font-family="Helvetica,sans-Serif" font-size="10.00">Synchronizer(2)</text>
</a>
</g>
</g>
<!-- Node15&#45;&gt;Node11 -->
<g id="edge15" class="edge">
<title>Node15&#45;&gt;Node11</title>
<path fill="none" stroke="midnightblue" d="M230.85,-262.38C234.05,-260.78 237.13,-258.99 240,-257 273.4,-233.8 298.56,-190.82 308.66,-171.66"/>
<polygon fill="midnightblue" stroke="midnightblue" points="229.34,-259.22 221.59,-266.44 232.15,-265.64 229.34,-259.22"/>
</g>
<!-- Node16 -->
<g id="node16" class="node">
<title>Node16</title>
<g id="a_node16"><a xlink:href="classFifoWrFsm.html" target="_top" xlink:title=" ">
<polygon fill="white" stroke="black" points="143.5,-114.5 143.5,-133.5 212.5,-133.5 212.5,-114.5 143.5,-114.5"/>
<text text-anchor="middle" x="178" y="-121.5" font-family="Helvetica,sans-Serif" font-size="10.00">FifoWrFsm</text>
</a>
</g>
</g>
<!-- Node16&#45;&gt;Node11 -->
<g id="edge16" class="edge">
<title>Node16&#45;&gt;Node11</title>
<path fill="none" stroke="midnightblue" d="M222.45,-136.28C241.9,-141.77 264.41,-148.13 282.18,-153.15"/>
<polygon fill="midnightblue" stroke="midnightblue" points="223.17,-132.84 212.59,-133.49 221.26,-139.58 223.17,-132.84"/>
</g>
<!-- Node16&#45;&gt;Node19 -->
<g id="edge21" class="edge">
<title>Node16&#45;&gt;Node19</title>
<path fill="none" stroke="midnightblue" d="M222.69,-124C243.26,-124 267.19,-124 285.32,-124"/>
<polygon fill="midnightblue" stroke="midnightblue" points="222.59,-120.5 212.59,-124 222.59,-127.5 222.59,-120.5"/>
</g>
<!-- Node17 -->
<g id="node17" class="node">
<title>Node17</title>
<g id="a_node17"><a xlink:href="classFifoRdFsm.html" target="_top" xlink:title=" ">
<polygon fill="white" stroke="black" points="144,-76.5 144,-95.5 212,-95.5 212,-76.5 144,-76.5"/>
<text text-anchor="middle" x="178" y="-83.5" font-family="Helvetica,sans-Serif" font-size="10.00">FifoRdFsm</text>
</a>
</g>
</g>
<!-- Node17&#45;&gt;Node11 -->
<g id="edge17" class="edge">
<title>Node17&#45;&gt;Node11</title>
<path fill="none" stroke="midnightblue" d="M222.1,-96.36C228.34,-98.72 234.5,-101.57 240,-105 259.75,-117.3 257.35,-129.09 276,-143 280.68,-146.49 286.1,-149.65 291.33,-152.36"/>
<polygon fill="midnightblue" stroke="midnightblue" points="222.91,-92.94 212.31,-93.04 220.66,-99.57 222.91,-92.94"/>
</g>
<!-- Node17&#45;&gt;Node19 -->
<g id="edge22" class="edge">
<title>Node17&#45;&gt;Node19</title>
<path fill="none" stroke="midnightblue" d="M222.06,-98.17C242.72,-104 266.88,-110.83 285.18,-116"/>
<polygon fill="midnightblue" stroke="midnightblue" points="222.82,-94.74 212.25,-95.39 220.92,-101.48 222.82,-94.74"/>
</g>
<!-- Node18 -->
<g id="node18" class="node">
<title>Node18</title>
<g id="a_node18"><a xlink:href="classSimpleDualPortRam.html" target="_top" xlink:title=" ">
<polygon fill="white" stroke="black" points="120.5,-152.5 120.5,-171.5 235.5,-171.5 235.5,-152.5 120.5,-152.5"/>
<text text-anchor="middle" x="178" y="-159.5" font-family="Helvetica,sans-Serif" font-size="10.00">SimpleDualPortRam</text>
</a>
</g>
</g>
<!-- Node18&#45;&gt;Node11 -->
<g id="edge18" class="edge">
<title>Node18&#45;&gt;Node11</title>
<path fill="none" stroke="midnightblue" d="M245.81,-162C258.53,-162 271.27,-162 282.21,-162"/>
<polygon fill="midnightblue" stroke="midnightblue" points="245.65,-158.5 235.65,-162 245.65,-165.5 245.65,-158.5"/>
</g>
<!-- Node18&#45;&gt;Node19 -->
<g id="edge23" class="edge">
<title>Node18&#45;&gt;Node19</title>
<path fill="none" stroke="midnightblue" d="M222.75,-149.64C243.36,-143.82 267.34,-137.04 285.47,-131.92"/>
<polygon fill="midnightblue" stroke="midnightblue" points="221.61,-146.32 212.94,-152.41 223.51,-153.06 221.61,-146.32"/>
</g>
<!-- Node19&#45;&gt;Node7 -->
<g id="edge20" class="edge">
<title>Node19&#45;&gt;Node7</title>
<path fill="none" stroke="midnightblue" d="M354.01,-124C375.04,-124 400.39,-124 418.37,-124"/>
<polygon fill="midnightblue" stroke="midnightblue" points="353.78,-120.5 343.78,-124 353.78,-127.5 353.78,-120.5"/>
</g>
<!-- Node20&#45;&gt;Node1 -->
<g id="edge27" class="edge">
<title>Node20&#45;&gt;Node1</title>
<path fill="none" stroke="midnightblue" d="M766.2,-62.04C787.06,-72.42 814.92,-86.29 833.27,-95.43"/>
<polygon fill="midnightblue" stroke="midnightblue" points="767.68,-58.86 757.16,-57.54 764.56,-65.13 767.68,-58.86"/>
</g>
<!-- Node22 -->
<g id="node22" class="node">
<title>Node22</title>
<g id="a_node22"><a xlink:href="classEthMacTop.html" target="_top" xlink:title=" ">
<polygon fill="white" stroke="black" points="1044,-361.5 1044,-380.5 1113,-380.5 1113,-361.5 1044,-361.5"/>
<text text-anchor="middle" x="1078.5" y="-368.5" font-family="Helvetica,sans-Serif" font-size="10.00">EthMacTop</text>
</a>
</g>
</g>
<!-- Node21&#45;&gt;Node22 -->
<g id="edge30" class="edge">
<title>Node21&#45;&gt;Node22</title>
<path fill="none" stroke="midnightblue" d="M978.82,-301.68C1003.68,-319.14 1043.09,-346.83 1063.78,-361.36"/>
<polygon fill="midnightblue" stroke="midnightblue" points="980.57,-298.63 970.38,-295.75 976.55,-304.36 980.57,-298.63"/>
</g>
<!-- Node23 -->
<g id="node23" class="node">
<title>Node23</title>
<g id="a_node23"><a xlink:href="classEthMacPauseTb.html" target="_top" xlink:title=" ">
<polygon fill="white" stroke="black" points="1180,-532.5 1180,-551.5 1273,-551.5 1273,-532.5 1180,-532.5"/>
<text text-anchor="middle" x="1226.5" y="-539.5" font-family="Helvetica,sans-Serif" font-size="10.00">EthMacPauseTb</text>
</a>
</g>
</g>
<!-- Node22&#45;&gt;Node23 -->
<g id="edge31" class="edge">
<title>Node22&#45;&gt;Node23</title>
<path fill="none" stroke="midnightblue" d="M1084.46,-390.52C1093.71,-422.93 1116.7,-487.76 1160,-523 1165.79,-527.71 1172.69,-531.25 1179.81,-533.91"/>
<polygon fill="midnightblue" stroke="midnightblue" points="1087.74,-389.24 1081.75,-380.51 1080.98,-391.07 1087.74,-389.24"/>
</g>
<!-- Node24 -->
<g id="node24" class="node">
<title>Node24</title>
<g id="a_node24"><a xlink:href="classEthMacTb.html" target="_top" xlink:title=" ">
<polygon fill="white" stroke="black" points="1194,-494.5 1194,-513.5 1259,-513.5 1259,-494.5 1194,-494.5"/>
<text text-anchor="middle" x="1226.5" y="-501.5" font-family="Helvetica,sans-Serif" font-size="10.00">EthMacTb</text>
</a>
</g>
</g>
<!-- Node22&#45;&gt;Node24 -->
<g id="edge32" class="edge">
<title>Node22&#45;&gt;Node24</title>
<path fill="none" stroke="midnightblue" d="M1087.86,-389.9C1100.06,-415.32 1125.14,-460.16 1160,-485 1169.93,-492.08 1182.47,-496.54 1193.92,-499.34"/>
<polygon fill="midnightblue" stroke="midnightblue" points="1090.93,-388.22 1083.56,-380.61 1084.58,-391.16 1090.93,-388.22"/>
</g>
<!-- Node25 -->
<g id="node25" class="node">
<title>Node25</title>
<g id="a_node25"><a xlink:href="classGigEthGth7.html" target="_top" xlink:title=" ">
<polygon fill="white" stroke="red" points="1190.5,-456.5 1190.5,-475.5 1262.5,-475.5 1262.5,-456.5 1190.5,-456.5"/>
<text text-anchor="middle" x="1226.5" y="-463.5" font-family="Helvetica,sans-Serif" font-size="10.00">GigEthGth7</text>
</a>
</g>
</g>
<!-- Node22&#45;&gt;Node25 -->
<g id="edge33" class="edge">
<title>Node22&#45;&gt;Node25</title>
<path fill="none" stroke="midnightblue" d="M1093.51,-388.38C1108.32,-405.64 1133.19,-431.67 1160,-447 1169.25,-452.29 1180.09,-456.21 1190.26,-459.07"/>
<polygon fill="midnightblue" stroke="midnightblue" points="1096.19,-386.13 1087.09,-380.7 1090.82,-390.62 1096.19,-386.13"/>
</g>
<!-- Node27 -->
<g id="node26" class="node">
<title>Node27</title>
<g id="a_node26"><a xlink:href="classGigEthGthUltraScale.html" target="_top" xlink:title=" ">
<polygon fill="white" stroke="red" points="1168.5,-418.5 1168.5,-437.5 1284.5,-437.5 1284.5,-418.5 1168.5,-418.5"/>
<text text-anchor="middle" x="1226.5" y="-425.5" font-family="Helvetica,sans-Serif" font-size="10.00">GigEthGthUltraScale</text>
</a>
</g>
</g>
<!-- Node22&#45;&gt;Node27 -->
<g id="edge34" class="edge">
<title>Node22&#45;&gt;Node27</title>
<path fill="none" stroke="midnightblue" d="M1106.65,-385.14C1122.04,-392.81 1141.81,-402.12 1160,-409 1169.19,-412.48 1179.31,-415.7 1188.78,-418.46"/>
<polygon fill="midnightblue" stroke="midnightblue" points="1108.19,-381.99 1097.68,-380.6 1105.03,-388.24 1108.19,-381.99"/>
</g>
<!-- Node29 -->
<g id="node27" class="node">
<title>Node29</title>
<g id="a_node27"><a xlink:href="classGigEthGtp7.html" target="_top" xlink:title=" ">
<polygon fill="white" stroke="red" points="1190.5,-380.5 1190.5,-399.5 1262.5,-399.5 1262.5,-380.5 1190.5,-380.5"/>
<text text-anchor="middle" x="1226.5" y="-387.5" font-family="Helvetica,sans-Serif" font-size="10.00">GigEthGtp7</text>
</a>
</g>
</g>
<!-- Node22&#45;&gt;Node29 -->
<g id="edge35" class="edge">
<title>Node22&#45;&gt;Node29</title>
<path fill="none" stroke="midnightblue" d="M1123.5,-376.73C1144.88,-379.51 1170.22,-382.81 1190.3,-385.42"/>
<polygon fill="midnightblue" stroke="midnightblue" points="1123.73,-373.23 1113.36,-375.41 1122.83,-380.17 1123.73,-373.23"/>
</g>
<!-- Node31 -->
<g id="node28" class="node">
<title>Node31</title>
<g id="a_node28"><a xlink:href="classGigEthGtx7.html" target="_top" xlink:title=" ">
<polygon fill="white" stroke="red" points="1190.5,-342.5 1190.5,-361.5 1262.5,-361.5 1262.5,-342.5 1190.5,-342.5"/>
<text text-anchor="middle" x="1226.5" y="-349.5" font-family="Helvetica,sans-Serif" font-size="10.00">GigEthGtx7</text>
</a>
</g>
</g>
<!-- Node22&#45;&gt;Node31 -->
<g id="edge36" class="edge">
<title>Node22&#45;&gt;Node31</title>
<path fill="none" stroke="midnightblue" d="M1123.5,-365.27C1144.88,-362.49 1170.22,-359.19 1190.3,-356.58"/>
<polygon fill="midnightblue" stroke="midnightblue" points="1122.83,-361.83 1113.36,-366.59 1123.73,-368.77 1122.83,-361.83"/>
</g>
<!-- Node33 -->
<g id="node29" class="node">
<title>Node33</title>
<g id="a_node29"><a xlink:href="classGigEthGtyUltraScale.html" target="_top" xlink:title=" ">
<polygon fill="white" stroke="red" points="1168.5,-304.5 1168.5,-323.5 1284.5,-323.5 1284.5,-304.5 1168.5,-304.5"/>
<text text-anchor="middle" x="1226.5" y="-311.5" font-family="Helvetica,sans-Serif" font-size="10.00">GigEthGtyUltraScale</text>
</a>
</g>
</g>
<!-- Node22&#45;&gt;Node33 -->
<g id="edge37" class="edge">
<title>Node22&#45;&gt;Node33</title>
<path fill="none" stroke="midnightblue" d="M1106.65,-356.86C1122.04,-349.19 1141.81,-339.88 1160,-333 1169.19,-329.52 1179.31,-326.3 1188.78,-323.54"/>
<polygon fill="midnightblue" stroke="midnightblue" points="1105.03,-353.76 1097.68,-361.4 1108.19,-360.01 1105.03,-353.76"/>
</g>
<!-- Node35 -->
<g id="node30" class="node">
<title>Node35</title>
<g id="a_node30"><a xlink:href="classGigEthLvdsUltraScale.html" target="_top" xlink:title=" ">
<polygon fill="white" stroke="red" points="1165.5,-266.5 1165.5,-285.5 1287.5,-285.5 1287.5,-266.5 1165.5,-266.5"/>
<text text-anchor="middle" x="1226.5" y="-273.5" font-family="Helvetica,sans-Serif" font-size="10.00">GigEthLvdsUltraScale</text>
</a>
</g>
</g>
<!-- Node22&#45;&gt;Node35 -->
<g id="edge38" class="edge">
<title>Node22&#45;&gt;Node35</title>
<path fill="none" stroke="midnightblue" d="M1093.51,-353.62C1108.32,-336.36 1133.19,-310.33 1160,-295 1166.68,-291.18 1174.19,-288.07 1181.68,-285.57"/>
<polygon fill="midnightblue" stroke="midnightblue" points="1090.82,-351.38 1087.09,-361.3 1096.19,-355.87 1090.82,-351.38"/>
</g>
<!-- Node39 -->
<g id="node31" class="node">
<title>Node39</title>
<g id="a_node31"><a xlink:href="classTenGigEthGth7.html" target="_top" xlink:title=" ">
<polygon fill="white" stroke="red" points="1182,-228.5 1182,-247.5 1271,-247.5 1271,-228.5 1182,-228.5"/>
<text text-anchor="middle" x="1226.5" y="-235.5" font-family="Helvetica,sans-Serif" font-size="10.00">TenGigEthGth7</text>
</a>
</g>
</g>
<!-- Node22&#45;&gt;Node39 -->
<g id="edge39" class="edge">
<title>Node22&#45;&gt;Node39</title>
<path fill="none" stroke="midnightblue" d="M1087.86,-352.1C1100.06,-326.68 1125.14,-281.84 1160,-257 1166.46,-252.4 1174.03,-248.9 1181.68,-246.25"/>
<polygon fill="midnightblue" stroke="midnightblue" points="1084.58,-350.84 1083.56,-361.39 1090.93,-353.78 1084.58,-350.84"/>
</g>
<!-- Node41 -->
<g id="node32" class="node">
<title>Node41</title>
<g id="a_node32"><a xlink:href="classTenGigEthGthUltraScale.html" target="_top" xlink:title=" ">
<polygon fill="white" stroke="red" points="1160,-190.5 1160,-209.5 1293,-209.5 1293,-190.5 1160,-190.5"/>
<text text-anchor="middle" x="1226.5" y="-197.5" font-family="Helvetica,sans-Serif" font-size="10.00">TenGigEthGthUltraScale</text>
</a>
</g>
</g>
<!-- Node22&#45;&gt;Node41 -->
<g id="edge40" class="edge">
<title>Node22&#45;&gt;Node41</title>
<path fill="none" stroke="midnightblue" d="M1084.46,-351.48C1093.71,-319.07 1116.7,-254.24 1160,-219 1164.78,-215.11 1170.31,-212.02 1176.11,-209.56"/>
<polygon fill="midnightblue" stroke="midnightblue" points="1080.98,-350.93 1081.75,-361.49 1087.74,-352.76 1080.98,-350.93"/>
</g>
<!-- Node43 -->
<g id="node33" class="node">
<title>Node43</title>
<g id="a_node33"><a xlink:href="classTenGigEthGtx7.html" target="_top" xlink:title=" ">
<polygon fill="white" stroke="red" points="1182,-152.5 1182,-171.5 1271,-171.5 1271,-152.5 1182,-152.5"/>
<text text-anchor="middle" x="1226.5" y="-159.5" font-family="Helvetica,sans-Serif" font-size="10.00">TenGigEthGtx7</text>
</a>
</g>
</g>
<!-- Node22&#45;&gt;Node43 -->
<g id="edge41" class="edge">
<title>Node22&#45;&gt;Node43</title>
<path fill="none" stroke="midnightblue" d="M1082.16,-351.55C1088.45,-313.15 1107.83,-227.33 1160,-181 1166.2,-175.5 1173.9,-171.58 1181.83,-168.8"/>
<polygon fill="midnightblue" stroke="midnightblue" points="1078.7,-351.04 1080.66,-361.45 1085.62,-352.08 1078.7,-351.04"/>
</g>
<!-- Node45 -->
<g id="node34" class="node">
<title>Node45</title>
<g id="a_node34"><a xlink:href="classTenGigEthGtyUltraScale.html" target="_top" xlink:title=" ">
<polygon fill="white" stroke="red" points="1160,-114.5 1160,-133.5 1293,-133.5 1293,-114.5 1160,-114.5"/>
<text text-anchor="middle" x="1226.5" y="-121.5" font-family="Helvetica,sans-Serif" font-size="10.00">TenGigEthGtyUltraScale</text>
</a>
</g>
</g>
<!-- Node22&#45;&gt;Node45 -->
<g id="edge42" class="edge">
<title>Node22&#45;&gt;Node45</title>
<path fill="none" stroke="midnightblue" d="M1085.21,-351.68C1100.83,-299.4 1144.12,-158 1160,-143 1164.13,-139.1 1169.02,-135.99 1174.23,-133.52"/>
<polygon fill="midnightblue" stroke="midnightblue" points="1081.81,-350.83 1082.32,-361.41 1088.52,-352.82 1081.81,-350.83"/>
</g>
<!-- Node47 -->
<g id="node35" class="node">
<title>Node47</title>
<g id="a_node35"><a xlink:href="classUdpEngineTb.html" target="_top" xlink:title=" ">
<polygon fill="white" stroke="black" points="1186,-76.5 1186,-95.5 1267,-95.5 1267,-76.5 1186,-76.5"/>
<text text-anchor="middle" x="1226.5" y="-83.5" font-family="Helvetica,sans-Serif" font-size="10.00">UdpEngineTb</text>
</a>
</g>
</g>
<!-- Node22&#45;&gt;Node47 -->
<g id="edge43" class="edge">
<title>Node22&#45;&gt;Node47</title>
<path fill="none" stroke="midnightblue" d="M1085.3,-351.39C1103.39,-290.3 1157.71,-107.26 1160,-105 1166.99,-98.09 1176.33,-93.67 1185.77,-90.84"/>
<polygon fill="midnightblue" stroke="midnightblue" points="1081.85,-350.73 1082.36,-361.31 1088.56,-352.72 1081.85,-350.73"/>
</g>
<!-- Node48 -->
<g id="node36" class="node">
<title>Node48</title>
<g id="a_node36"><a xlink:href="classXauiGth7.html" target="_top" xlink:title=" ">
<polygon fill="white" stroke="red" points="1195.5,-684.5 1195.5,-703.5 1257.5,-703.5 1257.5,-684.5 1195.5,-684.5"/>
<text text-anchor="middle" x="1226.5" y="-691.5" font-family="Helvetica,sans-Serif" font-size="10.00">XauiGth7</text>
</a>
</g>
</g>
<!-- Node22&#45;&gt;Node48 -->
<g id="edge44" class="edge">
<title>Node22&#45;&gt;Node48</title>
<path fill="none" stroke="midnightblue" d="M1082.19,-390.91C1090.81,-451.75 1119.5,-633.54 1160,-675 1169.27,-684.49 1182.96,-689.31 1195.44,-691.73"/>
<polygon fill="midnightblue" stroke="midnightblue" points="1085.62,-390.15 1080.78,-380.73 1078.69,-391.11 1085.62,-390.15"/>
</g>
<!-- Node50 -->
<g id="node37" class="node">
<title>Node50</title>
<g id="a_node37"><a xlink:href="classXauiGthUltraScale.html" target="_top" xlink:title=" ">
<polygon fill="white" stroke="red" points="1173.5,-646.5 1173.5,-665.5 1279.5,-665.5 1279.5,-646.5 1173.5,-646.5"/>
<text text-anchor="middle" x="1226.5" y="-653.5" font-family="Helvetica,sans-Serif" font-size="10.00">XauiGthUltraScale</text>
</a>
</g>
</g>
<!-- Node22&#45;&gt;Node50 -->
<g id="edge45" class="edge">
<title>Node22&#45;&gt;Node50</title>
<path fill="none" stroke="midnightblue" d="M1079.45,-390.8C1080.43,-439.81 1089.95,-567.76 1160,-637 1163.87,-640.83 1168.47,-643.9 1173.4,-646.35"/>
<polygon fill="midnightblue" stroke="midnightblue" points="1082.95,-390.58 1079.35,-380.61 1075.95,-390.65 1082.95,-390.58"/>
</g>
<!-- Node52 -->
<g id="node38" class="node">
<title>Node52</title>
<g id="a_node38"><a xlink:href="classXauiGtx7.html" target="_top" xlink:title=" ">
<polygon fill="white" stroke="red" points="1195.5,-608.5 1195.5,-627.5 1257.5,-627.5 1257.5,-608.5 1195.5,-608.5"/>
<text text-anchor="middle" x="1226.5" y="-615.5" font-family="Helvetica,sans-Serif" font-size="10.00">XauiGtx7</text>
</a>
</g>
</g>
<!-- Node22&#45;&gt;Node52 -->
<g id="edge46" class="edge">
<title>Node22&#45;&gt;Node52</title>
<path fill="none" stroke="midnightblue" d="M1080.63,-390.93C1084.22,-435.02 1099.08,-541.46 1160,-599 1169.55,-608.02 1183.14,-612.79 1195.46,-615.3"/>
<polygon fill="midnightblue" stroke="midnightblue" points="1084.12,-390.64 1079.92,-380.91 1077.13,-391.13 1084.12,-390.64"/>
</g>
<!-- Node54 -->
<g id="node39" class="node">
<title>Node54</title>
<g id="a_node39"><a xlink:href="classXauiGtyUltraScale.html" target="_top" xlink:title=" ">
<polygon fill="white" stroke="red" points="1173.5,-570.5 1173.5,-589.5 1279.5,-589.5 1279.5,-570.5 1173.5,-570.5"/>
<text text-anchor="middle" x="1226.5" y="-577.5" font-family="Helvetica,sans-Serif" font-size="10.00">XauiGtyUltraScale</text>
</a>
</g>
</g>
<!-- Node22&#45;&gt;Node54 -->
<g id="edge47" class="edge">
<title>Node22&#45;&gt;Node54</title>
<path fill="none" stroke="midnightblue" d="M1082.16,-390.45C1088.45,-428.85 1107.83,-514.67 1160,-561 1164.34,-564.85 1169.42,-567.93 1174.79,-570.38"/>
<polygon fill="midnightblue" stroke="midnightblue" points="1085.62,-389.92 1080.66,-380.55 1078.7,-390.96 1085.62,-389.92"/>
</g>
<!-- Node57 -->
<g id="node41" class="node">
<title>Node57</title>
<g id="a_node41"><a xlink:href="classSalt7Series.html" target="_top" xlink:title=" ">
<polygon fill="white" stroke="black" points="1043,-190.5 1043,-209.5 1114,-209.5 1114,-190.5 1043,-190.5"/>
<text text-anchor="middle" x="1078.5" y="-197.5" font-family="Helvetica,sans-Serif" font-size="10.00">Salt7Series</text>
</a>
</g>
</g>
<!-- Node56&#45;&gt;Node57 -->
<g id="edge49" class="edge">
<title>Node56&#45;&gt;Node57</title>
<path fill="none" stroke="midnightblue" d="M989.09,-172.24C1007.18,-177.91 1029.52,-184.93 1047.22,-190.49"/>
<polygon fill="midnightblue" stroke="midnightblue" points="990.13,-168.89 979.54,-169.24 988.04,-175.57 990.13,-168.89"/>
</g>
<!-- Node59 -->
<g id="node43" class="node">
<title>Node59</title>
<g id="a_node43"><a xlink:href="classSaltUltraScale.html" target="_top" xlink:title=" ">
<polygon fill="white" stroke="red" points="1035.5,-152.5 1035.5,-171.5 1121.5,-171.5 1121.5,-152.5 1035.5,-152.5"/>
<text text-anchor="middle" x="1078.5" y="-159.5" font-family="Helvetica,sans-Serif" font-size="10.00">SaltUltraScale</text>
</a>
</g>
</g>
<!-- Node56&#45;&gt;Node59 -->
<g id="edge51" class="edge">
<title>Node56&#45;&gt;Node59</title>
<path fill="none" stroke="midnightblue" d="M989.78,-162C1003.89,-162 1020.49,-162 1035.44,-162"/>
<polygon fill="midnightblue" stroke="midnightblue" points="989.54,-158.5 979.54,-162 989.54,-165.5 989.54,-158.5"/>
</g>
<!-- Node58 -->
<g id="node42" class="node">
<title>Node58</title>
<g id="a_node42"><a xlink:href="classSalt7SeriesTb.html" target="_top" xlink:title=" ">
<polygon fill="white" stroke="black" points="1185,-38.5 1185,-57.5 1268,-57.5 1268,-38.5 1185,-38.5"/>
<text text-anchor="middle" x="1226.5" y="-45.5" font-family="Helvetica,sans-Serif" font-size="10.00">Salt7SeriesTb</text>
</a>
</g>
</g>
<!-- Node57&#45;&gt;Node58 -->
<g id="edge50" class="edge">
<title>Node57&#45;&gt;Node58</title>
<path fill="none" stroke="midnightblue" d="M1120.09,-184.72C1121.49,-183.56 1122.8,-182.33 1124,-181 1159.69,-141.64 1121.99,-104.13 1160,-67 1166.78,-60.38 1175.71,-56.04 1184.8,-53.21"/>
<polygon fill="midnightblue" stroke="midnightblue" points="1117.82,-182.02 1111.41,-190.45 1121.68,-187.86 1117.82,-182.02"/>
</g>
<!-- Node62 -->
<g id="node45" class="node">
<title>Node62</title>
<g id="a_node45"><a xlink:href="classAxiLiteSrpV0Tb.html" target="_top" xlink:title=" ">
<polygon fill="white" stroke="black" points="1033,-114.5 1033,-133.5 1124,-133.5 1124,-114.5 1033,-114.5"/>
<text text-anchor="middle" x="1078.5" y="-121.5" font-family="Helvetica,sans-Serif" font-size="10.00">AxiLiteSrpV0Tb</text>
</a>
</g>
</g>
<!-- Node61&#45;&gt;Node62 -->
<g id="edge53" class="edge">
<title>Node61&#45;&gt;Node62</title>
<path fill="none" stroke="midnightblue" d="M1005.24,-124C1014.39,-124 1023.91,-124 1032.93,-124"/>
<polygon fill="midnightblue" stroke="midnightblue" points="1005.12,-120.5 995.12,-124 1005.12,-127.5 1005.12,-120.5"/>
</g>
<!-- Node64 -->
<g id="node47" class="node">
<title>Node64</title>
<g id="a_node47"><a xlink:href="classSrpV3Axi.html" target="_top" xlink:title=" ">
<polygon fill="white" stroke="red" points="1048,-76.5 1048,-95.5 1109,-95.5 1109,-76.5 1048,-76.5"/>
<text text-anchor="middle" x="1078.5" y="-83.5" font-family="Helvetica,sans-Serif" font-size="10.00">SrpV3Axi</text>
</a>
</g>
</g>
<!-- Node63&#45;&gt;Node64 -->
<g id="edge55" class="edge">
<title>Node63&#45;&gt;Node64</title>
<path fill="none" stroke="midnightblue" d="M999.73,-86C1015.65,-86 1033.32,-86 1047.78,-86"/>
<polygon fill="midnightblue" stroke="midnightblue" points="999.56,-82.5 989.56,-86 999.56,-89.5 999.56,-82.5"/>
</g>
</g>
</svg>
