<?xml version="1.0" encoding="UTF-8" standalone="no"?>
<!DOCTYPE svg PUBLIC "-//W3C//DTD SVG 1.1//EN"
 "http://www.w3.org/Graphics/SVG/1.1/DTD/svg11.dtd">
<!-- Generated by graphviz version 2.40.1 (20161225.0304)
 -->
<!-- Title: Sgmii88E1111LvdsUltraScale Pages: 1 -->
<svg width="1428pt" height="680pt"
 viewBox="0.00 0.00 1428.00 680.32" xmlns="http://www.w3.org/2000/svg" xmlns:xlink="http://www.w3.org/1999/xlink">
<g id="graph0" class="graph" transform="scale(1 1) rotate(0) translate(4 676.3171)">
<title>Sgmii88E1111LvdsUltraScale</title>
<polygon fill="#ffffff" stroke="transparent" points="-4,4 -4,-676.3171 1424,-676.3171 1424,4 -4,4"/>
<!-- Node70 -->
<g id="node1" class="node">
<title>Node70</title>
<polygon fill="#bfbfbf" stroke="#000000" points="1261,-560.5 1261,-579.5 1420,-579.5 1420,-560.5 1261,-560.5"/>
<text text-anchor="middle" x="1340.5" y="-567.5" font-family="Helvetica,sans-Serif" font-size="10.00" fill="#000000">Sgmii88E1111LvdsUltraScale</text>
</g>
<!-- Node71 -->
<g id="node2" class="node">
<title>Node71</title>
<g id="a_node2"><a xlink:href="classPwrUpRst.html" target="_top" xlink:title="PwrUpRst(2)">
<polygon fill="#ffffff" stroke="#000000" points="1105.5,-560.5 1105.5,-579.5 1182.5,-579.5 1182.5,-560.5 1105.5,-560.5"/>
<text text-anchor="middle" x="1144" y="-567.5" font-family="Helvetica,sans-Serif" font-size="10.00" fill="#000000">PwrUpRst(2)</text>
</a>
</g>
</g>
<!-- Node71&#45;&gt;Node70 -->
<g id="edge1" class="edge">
<title>Node71&#45;&gt;Node70</title>
<path fill="none" stroke="#191970" d="M1192.8559,-570C1213.3578,-570 1237.7381,-570 1260.7198,-570"/>
<polygon fill="#191970" stroke="#191970" points="1192.8221,-566.5001 1182.8221,-570 1192.822,-573.5001 1192.8221,-566.5001"/>
</g>
<!-- Node72 -->
<g id="node3" class="node">
<title>Node72</title>
<g id="a_node3"><a xlink:href="classRstSync.html" target="_top" xlink:title="RstSync">
<polygon fill="#ffffff" stroke="#000000" points="670,-560.5 670,-579.5 726,-579.5 726,-560.5 670,-560.5"/>
<text text-anchor="middle" x="698" y="-567.5" font-family="Helvetica,sans-Serif" font-size="10.00" fill="#000000">RstSync</text>
</a>
</g>
</g>
<!-- Node72&#45;&gt;Node71 -->
<g id="edge2" class="edge">
<title>Node72&#45;&gt;Node71</title>
<path fill="none" stroke="#191970" d="M736.3944,-570C820.6587,-570 1020.9944,-570 1105.4246,-570"/>
<polygon fill="#191970" stroke="#191970" points="736.2377,-566.5001 726.2377,-570 736.2376,-573.5001 736.2377,-566.5001"/>
</g>
<!-- Node79 -->
<g id="node10" class="node">
<title>Node79</title>
<g id="a_node10"><a xlink:href="classPwrUpRst.html" target="_top" xlink:title="PwrUpRst">
<polygon fill="#ffffff" stroke="#000000" points="788,-522.5 788,-541.5 852,-541.5 852,-522.5 788,-522.5"/>
<text text-anchor="middle" x="820" y="-529.5" font-family="Helvetica,sans-Serif" font-size="10.00" fill="#000000">PwrUpRst</text>
</a>
</g>
</g>
<!-- Node72&#45;&gt;Node79 -->
<g id="edge10" class="edge">
<title>Node72&#45;&gt;Node79</title>
<path fill="none" stroke="#191970" d="M736.0091,-558.1611C753.148,-552.8227 773.1235,-546.6009 789.293,-541.5645"/>
<polygon fill="#191970" stroke="#191970" points="734.8026,-554.871 726.2959,-561.1865 736.8844,-561.5543 734.8026,-554.871"/>
</g>
<!-- Node73 -->
<g id="node4" class="node">
<title>Node73</title>
<g id="a_node4"><a xlink:href="classSynchronizer.html" target="_top" xlink:title="Synchronizer">
<polygon fill="#ffffff" stroke="#000000" points="187,-399.5 187,-418.5 267,-418.5 267,-399.5 187,-399.5"/>
<text text-anchor="middle" x="227" y="-406.5" font-family="Helvetica,sans-Serif" font-size="10.00" fill="#000000">Synchronizer</text>
</a>
</g>
</g>
<!-- Node73&#45;&gt;Node72 -->
<g id="edge3" class="edge">
<title>Node73&#45;&gt;Node72</title>
<path fill="none" stroke="#191970" d="M229.5746,-428.6393C237.1575,-477.4892 264.3329,-604.2554 347,-656 394.8446,-685.9478 418.501,-666.2877 474,-656 494.633,-652.1753 621.5624,-601.091 674.6714,-579.5136"/>
<polygon fill="#191970" stroke="#191970" points="233.0348,-428.1119 228.1422,-418.7144 226.1066,-429.1118 233.0348,-428.1119"/>
</g>
<!-- Node83 -->
<g id="node14" class="node">
<title>Node83</title>
<g id="a_node14"><a xlink:href="classRstSync.html" target="_top" xlink:title="RstSync(2)">
<polygon fill="#ffffff" stroke="#000000" points="376,-399.5 376,-418.5 445,-418.5 445,-399.5 376,-399.5"/>
<text text-anchor="middle" x="410.5" y="-406.5" font-family="Helvetica,sans-Serif" font-size="10.00" fill="#000000">RstSync(2)</text>
</a>
</g>
</g>
<!-- Node73&#45;&gt;Node83 -->
<g id="edge15" class="edge">
<title>Node73&#45;&gt;Node83</title>
<path fill="none" stroke="#191970" d="M277.5362,-409C308.8036,-409 348.1322,-409 375.8806,-409"/>
<polygon fill="#191970" stroke="#191970" points="277.2699,-405.5001 267.2699,-409 277.2698,-412.5001 277.2699,-405.5001"/>
</g>
<!-- Node93 -->
<g id="node24" class="node">
<title>Node93</title>
<g id="a_node24"><a xlink:href="classAxiStreamFifoV2.html" target="_top" xlink:title="AxiStreamFifoV2(3)">
<polygon fill="#ffffff" stroke="#000000" points="355,-361.5 355,-380.5 466,-380.5 466,-361.5 355,-361.5"/>
<text text-anchor="middle" x="410.5" y="-368.5" font-family="Helvetica,sans-Serif" font-size="10.00" fill="#000000">AxiStreamFifoV2(3)</text>
</a>
</g>
</g>
<!-- Node73&#45;&gt;Node93 -->
<g id="edge31" class="edge">
<title>Node73&#45;&gt;Node93</title>
<path fill="none" stroke="#191970" d="M277.3774,-398.5676C304.6062,-392.929 337.9841,-386.0169 364.506,-380.5246"/>
<polygon fill="#191970" stroke="#191970" points="276.3523,-395.2056 267.2699,-400.6607 277.7719,-402.0601 276.3523,-395.2056"/>
</g>
<!-- Node106 -->
<g id="node32" class="node">
<title>Node106</title>
<g id="a_node32"><a xlink:href="classAxiStreamFifoV2.html" target="_top" xlink:title="AxiStreamFifoV2">
<polygon fill="#ffffff" stroke="#000000" points="361.5,-304.5 361.5,-323.5 459.5,-323.5 459.5,-304.5 361.5,-304.5"/>
<text text-anchor="middle" x="410.5" y="-311.5" font-family="Helvetica,sans-Serif" font-size="10.00" fill="#000000">AxiStreamFifoV2</text>
</a>
</g>
</g>
<!-- Node73&#45;&gt;Node106 -->
<g id="edge40" class="edge">
<title>Node73&#45;&gt;Node106</title>
<path fill="none" stroke="#191970" d="M254.5791,-394.722C292.5164,-375.0814 359.7721,-340.2624 392.1188,-323.5162"/>
<polygon fill="#191970" stroke="#191970" points="252.8761,-391.6623 245.6048,-399.3681 256.0944,-397.8787 252.8761,-391.6623"/>
</g>
<!-- Node131 -->
<g id="node47" class="node">
<title>Node131</title>
<g id="a_node47"><a xlink:href="classWatchDogRst.html" target="_top" xlink:title="WatchDogRst">
<polygon fill="#ffffff" stroke="#000000" points="369.5,-114.5 369.5,-133.5 451.5,-133.5 451.5,-114.5 369.5,-114.5"/>
<text text-anchor="middle" x="410.5" y="-121.5" font-family="Helvetica,sans-Serif" font-size="10.00" fill="#000000">WatchDogRst</text>
</a>
</g>
</g>
<!-- Node73&#45;&gt;Node131 -->
<g id="edge59" class="edge">
<title>Node73&#45;&gt;Node131</title>
<path fill="none" stroke="#191970" d="M259.587,-394.8507C277.5852,-385.3409 298.7217,-371.0473 311,-352 362.069,-272.7769 284.4725,-213.5313 347,-143 352.8779,-136.3697 360.9646,-132.0091 369.3997,-129.1526"/>
<polygon fill="#191970" stroke="#191970" points="257.8999,-391.7811 250.5247,-399.3875 261.0336,-398.0406 257.8999,-391.7811"/>
</g>
<!-- Node74 -->
<g id="node5" class="node">
<title>Node74</title>
<g id="a_node5"><a xlink:href="classSgmii88E1111Mdio.html" target="_top" xlink:title="Sgmii88E1111Mdio">
<polygon fill="#ffffff" stroke="#000000" points="1089,-598.5 1089,-617.5 1199,-617.5 1199,-598.5 1089,-598.5"/>
<text text-anchor="middle" x="1144" y="-605.5" font-family="Helvetica,sans-Serif" font-size="10.00" fill="#000000">Sgmii88E1111Mdio</text>
</a>
</g>
</g>
<!-- Node74&#45;&gt;Node70 -->
<g id="edge4" class="edge">
<title>Node74&#45;&gt;Node70</title>
<path fill="none" stroke="#191970" d="M1203.4123,-596.5106C1231.4495,-591.0886 1264.5157,-584.6942 1291.1481,-579.5439"/>
<polygon fill="#191970" stroke="#191970" points="1202.4852,-593.125 1193.3316,-598.46 1203.8143,-599.9976 1202.4852,-593.125"/>
</g>
<!-- Node75 -->
<g id="node6" class="node">
<title>Node75</title>
<g id="a_node6"><a xlink:href="classMdioLinkIrqHandler.html" target="_top" xlink:title="MdioLinkIrqHandler">
<polygon fill="#ffffff" stroke="#000000" points="906,-598.5 906,-617.5 1017,-617.5 1017,-598.5 906,-598.5"/>
<text text-anchor="middle" x="961.5" y="-605.5" font-family="Helvetica,sans-Serif" font-size="10.00" fill="#000000">MdioLinkIrqHandler</text>
</a>
</g>
</g>
<!-- Node75&#45;&gt;Node74 -->
<g id="edge5" class="edge">
<title>Node75&#45;&gt;Node74</title>
<path fill="none" stroke="#191970" d="M1027.3078,-608C1047.5035,-608 1069.5062,-608 1088.9075,-608"/>
<polygon fill="#191970" stroke="#191970" points="1027.2477,-604.5001 1017.2477,-608 1027.2476,-611.5001 1027.2477,-604.5001"/>
</g>
<!-- Node76 -->
<g id="node7" class="node">
<title>Node76</title>
<g id="a_node7"><a xlink:href="classMdioSeqCore.html" target="_top" xlink:title="MdioSeqCore">
<polygon fill="#ffffff" stroke="#000000" points="780,-598.5 780,-617.5 860,-617.5 860,-598.5 780,-598.5"/>
<text text-anchor="middle" x="820" y="-605.5" font-family="Helvetica,sans-Serif" font-size="10.00" fill="#000000">MdioSeqCore</text>
</a>
</g>
</g>
<!-- Node76&#45;&gt;Node75 -->
<g id="edge6" class="edge">
<title>Node76&#45;&gt;Node75</title>
<path fill="none" stroke="#191970" d="M870.4632,-608C881.9527,-608 894.222,-608 905.9118,-608"/>
<polygon fill="#191970" stroke="#191970" points="870.1698,-604.5001 860.1697,-608 870.1697,-611.5001 870.1698,-604.5001"/>
</g>
<!-- Node77 -->
<g id="node8" class="node">
<title>Node77</title>
<g id="a_node8"><a xlink:href="classMdioCore.html" target="_top" xlink:title="MdioCore">
<polygon fill="#ffffff" stroke="#000000" points="667,-598.5 667,-617.5 729,-617.5 729,-598.5 667,-598.5"/>
<text text-anchor="middle" x="698" y="-605.5" font-family="Helvetica,sans-Serif" font-size="10.00" fill="#000000">MdioCore</text>
</a>
</g>
</g>
<!-- Node77&#45;&gt;Node76 -->
<g id="edge7" class="edge">
<title>Node77&#45;&gt;Node76</title>
<path fill="none" stroke="#191970" d="M739.2376,-608C752.3055,-608 766.73,-608 779.7291,-608"/>
<polygon fill="#191970" stroke="#191970" points="739.1015,-604.5001 729.1014,-608 739.1014,-611.5001 739.1015,-604.5001"/>
</g>
<!-- Node78 -->
<g id="node9" class="node">
<title>Node78</title>
<g id="a_node9"><a xlink:href="classGigEthLvdsUltraScaleWrapper.html" target="_top" xlink:title="GigEthLvdsUltraScaleWrapper">
<polygon fill="#ffffff" stroke="#000000" points="1063,-503.5 1063,-522.5 1225,-522.5 1225,-503.5 1063,-503.5"/>
<text text-anchor="middle" x="1144" y="-510.5" font-family="Helvetica,sans-Serif" font-size="10.00" fill="#000000">GigEthLvdsUltraScaleWrapper</text>
</a>
</g>
</g>
<!-- Node78&#45;&gt;Node70 -->
<g id="edge8" class="edge">
<title>Node78&#45;&gt;Node70</title>
<path fill="none" stroke="#191970" d="M1186.6956,-525.385C1222.9752,-535.9088 1274.3083,-550.7993 1307.503,-560.4284"/>
<polygon fill="#191970" stroke="#191970" points="1187.4689,-521.9651 1176.8897,-522.5405 1185.5187,-528.6879 1187.4689,-521.9651"/>
</g>
<!-- Node79&#45;&gt;Node78 -->
<g id="edge9" class="edge">
<title>Node79&#45;&gt;Node78</title>
<path fill="none" stroke="#191970" d="M862.5202,-529.5065C913.2454,-526.5319 999.1632,-521.4935 1062.7638,-517.7639"/>
<polygon fill="#191970" stroke="#191970" points="862.0288,-526.0292 852.2509,-530.1087 862.4387,-533.0172 862.0288,-526.0292"/>
</g>
<!-- Node81 -->
<g id="node12" class="node">
<title>Node81</title>
<g id="a_node12"><a xlink:href="classGigEthLvdsUltraScale.html" target="_top" xlink:title="GigEthLvdsUltraScale">
<polygon fill="#ffffff" stroke="#000000" points="900.5,-446.5 900.5,-465.5 1022.5,-465.5 1022.5,-446.5 900.5,-446.5"/>
<text text-anchor="middle" x="961.5" y="-453.5" font-family="Helvetica,sans-Serif" font-size="10.00" fill="#000000">GigEthLvdsUltraScale</text>
</a>
</g>
</g>
<!-- Node79&#45;&gt;Node81 -->
<g id="edge24" class="edge">
<title>Node79&#45;&gt;Node81</title>
<path fill="none" stroke="#191970" d="M838.2683,-515.2858C852.9273,-502.653 874.5351,-485.7128 896,-475 903.5219,-471.246 911.9097,-468.1128 920.1045,-465.5448"/>
<polygon fill="#191970" stroke="#191970" points="835.6761,-512.9054 830.4939,-522.1464 840.3078,-518.154 835.6761,-512.9054"/>
</g>
<!-- Node80 -->
<g id="node11" class="node">
<title>Node80</title>
<g id="a_node11"><a xlink:href="classGigEthLvdsClockEnable.html" target="_top" xlink:title="GigEthLvdsClockEnable">
<polygon fill="#ffffff" stroke="#000000" points="896,-484.5 896,-503.5 1027,-503.5 1027,-484.5 896,-484.5"/>
<text text-anchor="middle" x="961.5" y="-491.5" font-family="Helvetica,sans-Serif" font-size="10.00" fill="#000000">GigEthLvdsClockEnable</text>
</a>
</g>
</g>
<!-- Node80&#45;&gt;Node78 -->
<g id="edge11" class="edge">
<title>Node80&#45;&gt;Node78</title>
<path fill="none" stroke="#191970" d="M1037.272,-501.8886C1045.6773,-502.7637 1054.263,-503.6575 1062.7327,-504.5393"/>
<polygon fill="#191970" stroke="#191970" points="1037.4375,-498.387 1027.1289,-500.8326 1036.7126,-505.3494 1037.4375,-498.387"/>
</g>
<!-- Node81&#45;&gt;Node78 -->
<g id="edge12" class="edge">
<title>Node81&#45;&gt;Node78</title>
<path fill="none" stroke="#191970" d="M1005.048,-468.4228C1012.3875,-470.5765 1019.9193,-472.8238 1027,-475 1057.2135,-484.286 1091.5974,-495.5358 1115.2314,-503.375"/>
<polygon fill="#191970" stroke="#191970" points="1005.799,-464.9961 995.2192,-465.5595 1003.8411,-471.7168 1005.799,-464.9961"/>
</g>
<!-- Node82 -->
<g id="node13" class="node">
<title>Node82</title>
<g id="a_node13"><a xlink:href="classAxiLiteAsync.html" target="_top" xlink:title="AxiLiteAsync">
<polygon fill="#ffffff" stroke="#000000" points="658,-494.5 658,-513.5 738,-513.5 738,-494.5 658,-494.5"/>
<text text-anchor="middle" x="698" y="-501.5" font-family="Helvetica,sans-Serif" font-size="10.00" fill="#000000">AxiLiteAsync</text>
</a>
</g>
</g>
<!-- Node82&#45;&gt;Node81 -->
<g id="edge13" class="edge">
<title>Node82&#45;&gt;Node81</title>
<path fill="none" stroke="#191970" d="M748.0936,-494.8748C794.2443,-486.4678 862.4645,-474.0406 909.2785,-465.5128"/>
<polygon fill="#191970" stroke="#191970" points="747.2308,-491.4743 738.02,-496.7098 748.4854,-498.3609 747.2308,-491.4743"/>
</g>
<!-- Node83&#45;&gt;Node82 -->
<g id="edge14" class="edge">
<title>Node83&#45;&gt;Node82</title>
<path fill="none" stroke="#191970" d="M454.9117,-418.5665C461.6124,-421.0447 468.21,-424.1408 474,-428 495.0248,-442.0134 488.1591,-459.2958 510,-472 555.7904,-498.6348 617.7803,-504.4761 657.8334,-505.1116"/>
<polygon fill="#191970" stroke="#191970" points="455.6953,-415.1405 445.1028,-415.3608 453.5208,-421.7942 455.6953,-415.1405"/>
</g>
<!-- Node84 -->
<g id="node15" class="node">
<title>Node84</title>
<g id="a_node15"><a xlink:href="classFifoAsync.html" target="_top" xlink:title="FifoAsync(5)">
<polygon fill="#ffffff" stroke="#000000" points="524.5,-532.5 524.5,-551.5 601.5,-551.5 601.5,-532.5 524.5,-532.5"/>
<text text-anchor="middle" x="563" y="-539.5" font-family="Helvetica,sans-Serif" font-size="10.00" fill="#000000">FifoAsync(5)</text>
</a>
</g>
</g>
<!-- Node83&#45;&gt;Node84 -->
<g id="edge17" class="edge">
<title>Node83&#45;&gt;Node84</title>
<path fill="none" stroke="#191970" d="M454.7005,-416.5674C461.7465,-419.2879 468.5109,-422.9828 474,-428 505.7993,-457.0655 480.2253,-486.8637 510,-518 515.9338,-524.2052 523.7702,-528.9356 531.5915,-532.4865"/>
<polygon fill="#191970" stroke="#191970" points="455.603,-413.1808 445.0111,-413.429 453.446,-419.8402 455.603,-413.1808"/>
</g>
<!-- Node84&#45;&gt;Node82 -->
<g id="edge16" class="edge">
<title>Node84&#45;&gt;Node82</title>
<path fill="none" stroke="#191970" d="M606.7625,-529.6817C625.3106,-524.4607 646.5991,-518.4684 663.9447,-513.5859"/>
<polygon fill="#191970" stroke="#191970" points="605.7438,-526.3323 597.0662,-532.411 607.6405,-533.0705 605.7438,-526.3323"/>
</g>
<!-- Node85 -->
<g id="node16" class="node">
<title>Node85</title>
<g id="a_node16"><a xlink:href="classSynchronizerVector.html" target="_top" xlink:title="SynchronizerVector(2)">
<polygon fill="#ffffff" stroke="#000000" points="348.5,-513.5 348.5,-532.5 472.5,-532.5 472.5,-513.5 348.5,-513.5"/>
<text text-anchor="middle" x="410.5" y="-520.5" font-family="Helvetica,sans-Serif" font-size="10.00" fill="#000000">SynchronizerVector(2)</text>
</a>
</g>
</g>
<!-- Node85&#45;&gt;Node84 -->
<g id="edge18" class="edge">
<title>Node85&#45;&gt;Node84</title>
<path fill="none" stroke="#191970" d="M482.8605,-532.0154C497.1348,-533.7938 511.5912,-535.595 524.222,-537.1686"/>
<polygon fill="#191970" stroke="#191970" points="482.8836,-528.4913 472.5276,-530.728 482.0181,-535.4376 482.8836,-528.4913"/>
</g>
<!-- Node86 -->
<g id="node17" class="node">
<title>Node86</title>
<g id="a_node17"><a xlink:href="classSynchronizer.html" target="_top" xlink:title="Synchronizer(2)">
<polygon fill="#ffffff" stroke="#000000" points="364,-475.5 364,-494.5 457,-494.5 457,-475.5 364,-475.5"/>
<text text-anchor="middle" x="410.5" y="-482.5" font-family="Helvetica,sans-Serif" font-size="10.00" fill="#000000">Synchronizer(2)</text>
</a>
</g>
</g>
<!-- Node86&#45;&gt;Node84 -->
<g id="edge19" class="edge">
<title>Node86&#45;&gt;Node84</title>
<path fill="none" stroke="#191970" d="M454.9687,-497.6089C461.3924,-499.6319 467.893,-501.7906 474,-504 497.856,-512.6308 524.5339,-524.3007 542.4048,-532.4218"/>
<polygon fill="#191970" stroke="#191970" points="455.5917,-494.1392 445.005,-494.554 453.5397,-500.8317 455.5917,-494.1392"/>
</g>
<!-- Node87 -->
<g id="node18" class="node">
<title>Node87</title>
<g id="a_node18"><a xlink:href="classFifoWrFsm.html" target="_top" xlink:title="FifoWrFsm">
<polygon fill="#ffffff" stroke="#000000" points="377,-437.5 377,-456.5 444,-456.5 444,-437.5 377,-437.5"/>
<text text-anchor="middle" x="410.5" y="-444.5" font-family="Helvetica,sans-Serif" font-size="10.00" fill="#000000">FifoWrFsm</text>
</a>
</g>
</g>
<!-- Node87&#45;&gt;Node84 -->
<g id="edge20" class="edge">
<title>Node87&#45;&gt;Node84</title>
<path fill="none" stroke="#191970" d="M453.8143,-455.6539C460.9562,-458.2568 467.9823,-461.6309 474,-466 496.7461,-482.5147 488.4148,-499.9944 510,-518 517.136,-523.9526 525.9879,-528.7263 534.4009,-532.3998"/>
<polygon fill="#191970" stroke="#191970" points="454.6778,-452.2559 444.0874,-452.5614 452.5568,-458.9268 454.6778,-452.2559"/>
</g>
<!-- Node88 -->
<g id="node19" class="node">
<title>Node88</title>
<g id="a_node19"><a xlink:href="classFifoRdFsm.html" target="_top" xlink:title="FifoRdFsm">
<polygon fill="#ffffff" stroke="#000000" points="377,-627.5 377,-646.5 444,-646.5 444,-627.5 377,-627.5"/>
<text text-anchor="middle" x="410.5" y="-634.5" font-family="Helvetica,sans-Serif" font-size="10.00" fill="#000000">FifoRdFsm</text>
</a>
</g>
</g>
<!-- Node88&#45;&gt;Node84 -->
<g id="edge21" class="edge">
<title>Node88&#45;&gt;Node84</title>
<path fill="none" stroke="#191970" d="M454.1249,-626.583C460.9722,-624.207 467.8215,-621.3653 474,-618 507.3668,-599.8256 539.4758,-567.6504 554.3606,-551.6263"/>
<polygon fill="#191970" stroke="#191970" points="452.6475,-623.3797 444.1726,-629.738 454.7628,-630.0524 452.6475,-623.3797"/>
</g>
<!-- Node89 -->
<g id="node20" class="node">
<title>Node89</title>
<g id="a_node20"><a xlink:href="classSimpleDualPortRam.html" target="_top" xlink:title="SimpleDualPortRam">
<polygon fill="#ffffff" stroke="#000000" points="353,-589.5 353,-608.5 468,-608.5 468,-589.5 353,-589.5"/>
<text text-anchor="middle" x="410.5" y="-596.5" font-family="Helvetica,sans-Serif" font-size="10.00" fill="#000000">SimpleDualPortRam</text>
</a>
</g>
</g>
<!-- Node89&#45;&gt;Node84 -->
<g id="edge22" class="edge">
<title>Node89&#45;&gt;Node84</title>
<path fill="none" stroke="#191970" d="M454.9687,-586.3911C461.3924,-584.3681 467.893,-582.2094 474,-580 497.856,-571.3692 524.5339,-559.6993 542.4048,-551.5782"/>
<polygon fill="#191970" stroke="#191970" points="453.5397,-583.1683 445.005,-589.446 455.5917,-589.8608 453.5397,-583.1683"/>
</g>
<!-- Node90 -->
<g id="node21" class="node">
<title>Node90</title>
<g id="a_node21"><a xlink:href="classFifoOutputPipeline.html" target="_top" xlink:title="FifoOutputPipeline">
<polygon fill="#ffffff" stroke="#000000" points="357.5,-551.5 357.5,-570.5 463.5,-570.5 463.5,-551.5 357.5,-551.5"/>
<text text-anchor="middle" x="410.5" y="-558.5" font-family="Helvetica,sans-Serif" font-size="10.00" fill="#000000">FifoOutputPipeline</text>
</a>
</g>
</g>
<!-- Node90&#45;&gt;Node84 -->
<g id="edge23" class="edge">
<title>Node90&#45;&gt;Node84</title>
<path fill="none" stroke="#191970" d="M473.8034,-553.113C490.9534,-550.9763 509.0035,-548.7274 524.3453,-546.816"/>
<polygon fill="#191970" stroke="#191970" points="473.3276,-549.6451 463.8371,-554.3547 474.1931,-556.5914 473.3276,-549.6451"/>
</g>
<!-- Node91 -->
<g id="node22" class="node">
<title>Node91</title>
<g id="a_node22"><a xlink:href="classEthMacTop.html" target="_top" xlink:title="EthMacTop">
<polygon fill="#ffffff" stroke="#000000" points="786,-370.5 786,-389.5 854,-389.5 854,-370.5 786,-370.5"/>
<text text-anchor="middle" x="820" y="-377.5" font-family="Helvetica,sans-Serif" font-size="10.00" fill="#000000">EthMacTop</text>
</a>
</g>
</g>
<!-- Node91&#45;&gt;Node81 -->
<g id="edge25" class="edge">
<title>Node91&#45;&gt;Node81</title>
<path fill="none" stroke="#191970" d="M846.9132,-394.4551C875.3399,-409.7232 919.3485,-433.3603 943.7244,-446.4527"/>
<polygon fill="#191970" stroke="#191970" points="848.3869,-391.2738 837.9211,-389.6255 845.0747,-397.4406 848.3869,-391.2738"/>
</g>
<!-- Node92 -->
<g id="node23" class="node">
<title>Node92</title>
<g id="a_node23"><a xlink:href="classEthMacTxFifo.html" target="_top" xlink:title="EthMacTxFifo">
<polygon fill="#ffffff" stroke="#000000" points="657.5,-447.5 657.5,-466.5 738.5,-466.5 738.5,-447.5 657.5,-447.5"/>
<text text-anchor="middle" x="698" y="-454.5" font-family="Helvetica,sans-Serif" font-size="10.00" fill="#000000">EthMacTxFifo</text>
</a>
</g>
</g>
<!-- Node92&#45;&gt;Node91 -->
<g id="edge26" class="edge">
<title>Node92&#45;&gt;Node91</title>
<path fill="none" stroke="#191970" d="M721.8772,-441.9522C728.9957,-437.4646 736.8144,-432.5342 744,-428 765.1166,-414.6753 789.5249,-399.2565 804.8617,-389.5661"/>
<polygon fill="#191970" stroke="#191970" points="719.9286,-439.0431 713.3353,-447.3365 723.6613,-444.9649 719.9286,-439.0431"/>
</g>
<!-- Node93&#45;&gt;Node92 -->
<g id="edge27" class="edge">
<title>Node93&#45;&gt;Node92</title>
<path fill="none" stroke="#191970" d="M466.0498,-384.8809C468.841,-386.413 471.5135,-388.1132 474,-390 497.8692,-408.1119 484.1525,-431.8447 510,-447 554.9722,-473.3688 616.8841,-470.7614 657.1695,-465.0489"/>
<polygon fill="#191970" stroke="#191970" points="467.3528,-381.626 456.814,-380.5378 464.3739,-387.9606 467.3528,-381.626"/>
</g>
<!-- Node94 -->
<g id="node25" class="node">
<title>Node94</title>
<g id="a_node25"><a xlink:href="classAxiStreamResize.html" target="_top" xlink:title="AxiStreamResize(2)">
<polygon fill="#ffffff" stroke="#000000" points="170.5,-323.5 170.5,-342.5 283.5,-342.5 283.5,-323.5 170.5,-323.5"/>
<text text-anchor="middle" x="227" y="-330.5" font-family="Helvetica,sans-Serif" font-size="10.00" fill="#000000">AxiStreamResize(2)</text>
</a>
</g>
</g>
<!-- Node94&#45;&gt;Node93 -->
<g id="edge28" class="edge">
<title>Node94&#45;&gt;Node93</title>
<path fill="none" stroke="#191970" d="M283.4069,-344.681C309.4296,-350.0699 339.9301,-356.3861 364.5282,-361.4799"/>
<polygon fill="#191970" stroke="#191970" points="283.8068,-341.1896 273.3048,-342.589 282.3873,-348.0442 283.8068,-341.1896"/>
</g>
<!-- Node94&#45;&gt;Node106 -->
<g id="edge38" class="edge">
<title>Node94&#45;&gt;Node106</title>
<path fill="none" stroke="#191970" d="M293.6492,-326.099C315.9981,-323.7849 340.4995,-321.248 361.2688,-319.0975"/>
<polygon fill="#191970" stroke="#191970" points="293.1397,-322.6329 283.5534,-327.1443 293.8607,-329.5957 293.1397,-322.6329"/>
</g>
<!-- Node95 -->
<g id="node26" class="node">
<title>Node95</title>
<g id="a_node26"><a xlink:href="classAxiStreamPipeline.html" target="_top" xlink:title="AxiStreamPipeline">
<polygon fill="#ffffff" stroke="#000000" points="0,-285.5 0,-304.5 107,-304.5 107,-285.5 0,-285.5"/>
<text text-anchor="middle" x="53.5" y="-292.5" font-family="Helvetica,sans-Serif" font-size="10.00" fill="#000000">AxiStreamPipeline</text>
</a>
</g>
</g>
<!-- Node95&#45;&gt;Node93 -->
<g id="edge32" class="edge">
<title>Node95&#45;&gt;Node93</title>
<path fill="none" stroke="#191970" d="M72.5015,-311.1157C89.6944,-324.6658 116.3364,-343.1935 143,-352 213.403,-375.2527 299.7296,-376.9282 354.9247,-374.8735"/>
<polygon fill="#191970" stroke="#191970" points="74.393,-308.1432 64.422,-304.5614 69.983,-313.5795 74.393,-308.1432"/>
</g>
<!-- Node95&#45;&gt;Node94 -->
<g id="edge29" class="edge">
<title>Node95&#45;&gt;Node94</title>
<path fill="none" stroke="#191970" d="M107.1598,-306.7526C131.6927,-312.1258 160.3787,-318.4086 183.5335,-323.4799"/>
<polygon fill="#191970" stroke="#191970" points="107.7987,-303.3096 97.2814,-304.589 106.301,-310.1475 107.7987,-303.3096"/>
</g>
<!-- Node95&#45;&gt;Node106 -->
<g id="edge41" class="edge">
<title>Node95&#45;&gt;Node106</title>
<path fill="none" stroke="#191970" d="M99.6,-283.289C113.4569,-280.2917 128.7624,-277.4946 143,-276 217.2586,-268.2047 237.5721,-262.4557 311,-276 340.277,-281.4004 372.0835,-295.038 391.6582,-304.4159"/>
<polygon fill="#191970" stroke="#191970" points="98.7911,-279.8834 89.802,-285.4911 100.3262,-286.713 98.7911,-279.8834"/>
</g>
<!-- Node108 -->
<g id="node34" class="node">
<title>Node108</title>
<g id="a_node34"><a xlink:href="classAxiStreamMux.html" target="_top" xlink:title="AxiStreamMux">
<polygon fill="#ffffff" stroke="#000000" points="183,-152.5 183,-171.5 271,-171.5 271,-152.5 183,-152.5"/>
<text text-anchor="middle" x="227" y="-159.5" font-family="Helvetica,sans-Serif" font-size="10.00" fill="#000000">AxiStreamMux</text>
</a>
</g>
</g>
<!-- Node95&#45;&gt;Node108 -->
<g id="edge44" class="edge">
<title>Node95&#45;&gt;Node108</title>
<path fill="none" stroke="#191970" d="M74.3509,-279.0163C110.6572,-251.1849 184.4451,-194.6214 214.1673,-171.8372"/>
<polygon fill="#191970" stroke="#191970" points="71.7848,-276.5733 65.9777,-285.435 76.0435,-282.1289 71.7848,-276.5733"/>
</g>
<!-- Node96 -->
<g id="node27" class="node">
<title>Node96</title>
<g id="a_node27"><a xlink:href="classFifoCascade.html" target="_top" xlink:title="FifoCascade(2)">
<polygon fill="#ffffff" stroke="#ff0000" points="182.5,-285.5 182.5,-304.5 271.5,-304.5 271.5,-285.5 182.5,-285.5"/>
<text text-anchor="middle" x="227" y="-292.5" font-family="Helvetica,sans-Serif" font-size="10.00" fill="#000000">FifoCascade(2)</text>
</a>
</g>
</g>
<!-- Node96&#45;&gt;Node93 -->
<g id="edge30" class="edge">
<title>Node96&#45;&gt;Node93</title>
<path fill="none" stroke="#191970" d="M281.598,-304.861C291.5389,-307.3539 301.6999,-310.3785 311,-314 319.6263,-317.3591 368.2429,-345.9269 394.1851,-361.2988"/>
<polygon fill="#191970" stroke="#191970" points="282.3071,-301.4323 271.7707,-302.5429 280.7,-308.2453 282.3071,-301.4323"/>
</g>
<!-- Node96&#45;&gt;Node106 -->
<g id="edge39" class="edge">
<title>Node96&#45;&gt;Node106</title>
<path fill="none" stroke="#191970" d="M282.0201,-300.6969C307.2001,-303.3041 336.8008,-306.369 361.2396,-308.8995"/>
<polygon fill="#191970" stroke="#191970" points="282.1965,-297.1965 271.8892,-299.6479 281.4755,-304.1593 282.1965,-297.1965"/>
</g>
<!-- Node102 -->
<g id="node28" class="node">
<title>Node102</title>
<g id="a_node28"><a xlink:href="classEthMacTx.html" target="_top" xlink:title="EthMacTx">
<polygon fill="#ffffff" stroke="#000000" points="666,-152.5 666,-171.5 730,-171.5 730,-152.5 666,-152.5"/>
<text text-anchor="middle" x="698" y="-159.5" font-family="Helvetica,sans-Serif" font-size="10.00" fill="#000000">EthMacTx</text>
</a>
</g>
</g>
<!-- Node102&#45;&gt;Node91 -->
<g id="edge33" class="edge">
<title>Node102&#45;&gt;Node91</title>
<path fill="none" stroke="#191970" d="M708.3779,-180.5441C733.3266,-225.1247 795.9822,-337.083 814.6628,-370.4629"/>
<polygon fill="#191970" stroke="#191970" points="711.3375,-178.6656 703.3996,-171.6485 705.229,-182.0842 711.3375,-178.6656"/>
</g>
<!-- Node103 -->
<g id="node29" class="node">
<title>Node103</title>
<g id="a_node29"><a xlink:href="classEthMacTxBypass.html" target="_top" xlink:title="EthMacTxBypass">
<polygon fill="#ffffff" stroke="#000000" points="513.5,-114.5 513.5,-133.5 612.5,-133.5 612.5,-114.5 513.5,-114.5"/>
<text text-anchor="middle" x="563" y="-121.5" font-family="Helvetica,sans-Serif" font-size="10.00" fill="#000000">EthMacTxBypass</text>
</a>
</g>
</g>
<!-- Node103&#45;&gt;Node102 -->
<g id="edge34" class="edge">
<title>Node103&#45;&gt;Node102</title>
<path fill="none" stroke="#191970" d="M606.8036,-136.3299C626.0104,-141.7362 648.1489,-147.9679 665.8035,-152.9373"/>
<polygon fill="#191970" stroke="#191970" points="607.6405,-132.9295 597.0662,-133.589 605.7438,-139.6677 607.6405,-132.9295"/>
</g>
<!-- Node104 -->
<g id="node30" class="node">
<title>Node104</title>
<g id="a_node30"><a xlink:href="classEthMacTxCsum.html" target="_top" xlink:title="EthMacTxCsum(2)">
<polygon fill="#ffffff" stroke="#000000" points="510.5,-190.5 510.5,-209.5 615.5,-209.5 615.5,-190.5 510.5,-190.5"/>
<text text-anchor="middle" x="563" y="-197.5" font-family="Helvetica,sans-Serif" font-size="10.00" fill="#000000">EthMacTxCsum(2)</text>
</a>
</g>
</g>
<!-- Node104&#45;&gt;Node102 -->
<g id="edge35" class="edge">
<title>Node104&#45;&gt;Node102</title>
<path fill="none" stroke="#191970" d="M606.8036,-187.6701C626.0104,-182.2638 648.1489,-176.0321 665.8035,-171.0627"/>
<polygon fill="#191970" stroke="#191970" points="605.7438,-184.3323 597.0662,-190.411 607.6405,-191.0705 605.7438,-184.3323"/>
</g>
<!-- Node105 -->
<g id="node31" class="node">
<title>Node105</title>
<g id="a_node31"><a xlink:href="classAxiStreamPipeline.html" target="_top" xlink:title="AxiStreamPipeline(2)">
<polygon fill="#ffffff" stroke="#000000" points="350.5,-190.5 350.5,-209.5 470.5,-209.5 470.5,-190.5 350.5,-190.5"/>
<text text-anchor="middle" x="410.5" y="-197.5" font-family="Helvetica,sans-Serif" font-size="10.00" fill="#000000">AxiStreamPipeline(2)</text>
</a>
</g>
</g>
<!-- Node105&#45;&gt;Node104 -->
<g id="edge36" class="edge">
<title>Node105&#45;&gt;Node104</title>
<path fill="none" stroke="#191970" d="M480.9189,-200C490.7271,-200 500.6647,-200 510.0775,-200"/>
<polygon fill="#191970" stroke="#191970" points="480.7721,-196.5001 470.772,-200 480.772,-203.5001 480.7721,-196.5001"/>
</g>
<!-- Node106&#45;&gt;Node104 -->
<g id="edge37" class="edge">
<title>Node106&#45;&gt;Node104</title>
<path fill="none" stroke="#191970" d="M424.7862,-296.451C442.7181,-275.4355 475.3516,-240.398 510,-219 515.988,-215.302 522.8001,-212.1812 529.4991,-209.6054"/>
<polygon fill="#191970" stroke="#191970" points="421.9791,-294.3516 418.2447,-304.2665 427.347,-298.8445 421.9791,-294.3516"/>
</g>
<!-- Node127 -->
<g id="node45" class="node">
<title>Node127</title>
<g id="a_node45"><a xlink:href="classSsiFifo.html" target="_top" xlink:title="SsiFifo(3)">
<polygon fill="#ffffff" stroke="#ff0000" points="532,-418.5 532,-437.5 594,-437.5 594,-418.5 532,-418.5"/>
<text text-anchor="middle" x="563" y="-425.5" font-family="Helvetica,sans-Serif" font-size="10.00" fill="#000000">SsiFifo(3)</text>
</a>
</g>
</g>
<!-- Node106&#45;&gt;Node127 -->
<g id="edge56" class="edge">
<title>Node106&#45;&gt;Node127</title>
<path fill="none" stroke="#191970" d="M440.9936,-328.4266C452.1886,-334.6593 464.4477,-342.6748 474,-352 495.4403,-372.9306 486.6236,-390.2564 510,-409 516.3296,-414.0752 524.1261,-417.8567 531.773,-420.6499"/>
<polygon fill="#191970" stroke="#191970" points="442.3979,-325.2097 431.9228,-323.6208 439.1207,-331.3952 442.3979,-325.2097"/>
</g>
<!-- Node107 -->
<g id="node33" class="node">
<title>Node107</title>
<g id="a_node33"><a xlink:href="classEthMacTxPause.html" target="_top" xlink:title="EthMacTxPause">
<polygon fill="#ffffff" stroke="#000000" points="517,-76.5 517,-95.5 609,-95.5 609,-76.5 517,-76.5"/>
<text text-anchor="middle" x="563" y="-83.5" font-family="Helvetica,sans-Serif" font-size="10.00" fill="#000000">EthMacTxPause</text>
</a>
</g>
</g>
<!-- Node107&#45;&gt;Node102 -->
<g id="edge42" class="edge">
<title>Node107&#45;&gt;Node102</title>
<path fill="none" stroke="#191970" d="M603.3421,-99.193C607.6849,-100.9863 611.9814,-102.9291 616,-105 642.8163,-118.8191 671.0611,-140.1854 686.4041,-152.4554"/>
<polygon fill="#191970" stroke="#191970" points="604.4401,-95.8649 593.851,-95.514 601.91,-102.3917 604.4401,-95.8649"/>
</g>
<!-- Node108&#45;&gt;Node107 -->
<g id="edge43" class="edge">
<title>Node108&#45;&gt;Node107</title>
<path fill="none" stroke="#191970" d="M251.532,-147.1409C275.1046,-133.6536 312.1824,-114.4711 347,-105 404.03,-89.4867 472.3498,-85.8553 516.6619,-85.3666"/>
<polygon fill="#191970" stroke="#191970" points="249.4738,-144.2895 242.5991,-152.351 253.0006,-150.3361 249.4738,-144.2895"/>
</g>
<!-- Node109 -->
<g id="node35" class="node">
<title>Node109</title>
<g id="a_node35"><a xlink:href="classEthMacTxExport.html" target="_top" xlink:title="EthMacTxExport">
<polygon fill="#ffffff" stroke="#ff0000" points="515.5,-152.5 515.5,-171.5 610.5,-171.5 610.5,-152.5 515.5,-152.5"/>
<text text-anchor="middle" x="563" y="-159.5" font-family="Helvetica,sans-Serif" font-size="10.00" fill="#000000">EthMacTxExport</text>
</a>
</g>
</g>
<!-- Node109&#45;&gt;Node102 -->
<g id="edge45" class="edge">
<title>Node109&#45;&gt;Node102</title>
<path fill="none" stroke="#191970" d="M621.0287,-162C636.3078,-162 652.2474,-162 665.6319,-162"/>
<polygon fill="#191970" stroke="#191970" points="620.596,-158.5001 610.5959,-162 620.5959,-165.5001 620.596,-158.5001"/>
</g>
<!-- Node110 -->
<g id="node36" class="node">
<title>Node110</title>
<g id="a_node36"><a xlink:href="classEthMacTxExportXlgmii.html" target="_top" xlink:title="EthMacTxExportXlgmii">
<polygon fill="#ffffff" stroke="#000000" points="347,-152.5 347,-171.5 474,-171.5 474,-152.5 347,-152.5"/>
<text text-anchor="middle" x="410.5" y="-159.5" font-family="Helvetica,sans-Serif" font-size="10.00" fill="#000000">EthMacTxExportXlgmii</text>
</a>
</g>
</g>
<!-- Node110&#45;&gt;Node109 -->
<g id="edge46" class="edge">
<title>Node110&#45;&gt;Node109</title>
<path fill="none" stroke="#191970" d="M484.3238,-162C494.8361,-162 505.4098,-162 515.2448,-162"/>
<polygon fill="#191970" stroke="#191970" points="484.2902,-158.5001 474.2901,-162 484.2901,-165.5001 484.2902,-158.5001"/>
</g>
<!-- Node115 -->
<g id="node37" class="node">
<title>Node115</title>
<g id="a_node37"><a xlink:href="classEthMacFlowCtrl.html" target="_top" xlink:title="EthMacFlowCtrl">
<polygon fill="#ffffff" stroke="#000000" points="652,-304.5 652,-323.5 744,-323.5 744,-304.5 652,-304.5"/>
<text text-anchor="middle" x="698" y="-311.5" font-family="Helvetica,sans-Serif" font-size="10.00" fill="#000000">EthMacFlowCtrl</text>
</a>
</g>
</g>
<!-- Node115&#45;&gt;Node91 -->
<g id="edge47" class="edge">
<title>Node115&#45;&gt;Node91</title>
<path fill="none" stroke="#191970" d="M732.6805,-327.6128C736.5408,-329.3377 740.382,-331.1495 744,-333 766.5135,-344.5148 791.1687,-360.4206 806.111,-370.4574"/>
<polygon fill="#191970" stroke="#191970" points="733.7319,-324.2555 723.1618,-323.5315 730.9734,-330.689 733.7319,-324.2555"/>
</g>
<!-- Node116 -->
<g id="node38" class="node">
<title>Node116</title>
<g id="a_node38"><a xlink:href="classEthMacRx.html" target="_top" xlink:title="EthMacRx">
<polygon fill="#ffffff" stroke="#000000" points="665.5,-342.5 665.5,-361.5 730.5,-361.5 730.5,-342.5 665.5,-342.5"/>
<text text-anchor="middle" x="698" y="-349.5" font-family="Helvetica,sans-Serif" font-size="10.00" fill="#000000">EthMacRx</text>
</a>
</g>
</g>
<!-- Node116&#45;&gt;Node91 -->
<g id="edge48" class="edge">
<title>Node116&#45;&gt;Node91</title>
<path fill="none" stroke="#191970" d="M740.6541,-361.7895C755.4798,-365.1921 771.8996,-368.9606 785.9376,-372.1824"/>
<polygon fill="#191970" stroke="#191970" points="741.2233,-358.3292 730.6938,-359.5035 739.6574,-365.1518 741.2233,-358.3292"/>
</g>
<!-- Node117 -->
<g id="node39" class="node">
<title>Node117</title>
<g id="a_node39"><a xlink:href="classEthMacRxImport.html" target="_top" xlink:title="EthMacRxImport">
<polygon fill="#ffffff" stroke="#ff0000" points="514.5,-228.5 514.5,-247.5 611.5,-247.5 611.5,-228.5 514.5,-228.5"/>
<text text-anchor="middle" x="563" y="-235.5" font-family="Helvetica,sans-Serif" font-size="10.00" fill="#000000">EthMacRxImport</text>
</a>
</g>
</g>
<!-- Node117&#45;&gt;Node116 -->
<g id="edge49" class="edge">
<title>Node117&#45;&gt;Node116</title>
<path fill="none" stroke="#191970" d="M610.4149,-252.6538C612.3886,-253.9813 614.264,-255.4266 616,-257 643.6933,-282.1002 624.9104,-307.2495 652,-333 656.0081,-336.8099 660.8871,-339.9024 665.9511,-342.398"/>
<polygon fill="#191970" stroke="#191970" points="611.7005,-249.3637 601.2608,-247.557 608.2953,-255.4797 611.7005,-249.3637"/>
</g>
<!-- Node122 -->
<g id="node40" class="node">
<title>Node122</title>
<g id="a_node40"><a xlink:href="classEthMacRxPause.html" target="_top" xlink:title="EthMacRxPause">
<polygon fill="#ffffff" stroke="#000000" points="516.5,-380.5 516.5,-399.5 609.5,-399.5 609.5,-380.5 516.5,-380.5"/>
<text text-anchor="middle" x="563" y="-387.5" font-family="Helvetica,sans-Serif" font-size="10.00" fill="#000000">EthMacRxPause</text>
</a>
</g>
</g>
<!-- Node122&#45;&gt;Node116 -->
<g id="edge50" class="edge">
<title>Node122&#45;&gt;Node116</title>
<path fill="none" stroke="#191970" d="M606.7292,-377.691C625.7862,-372.3269 647.7411,-366.1469 665.3418,-361.1927"/>
<polygon fill="#191970" stroke="#191970" points="605.7438,-374.3323 597.0662,-380.411 607.6405,-381.0705 605.7438,-374.3323"/>
</g>
<!-- Node123 -->
<g id="node41" class="node">
<title>Node123</title>
<g id="a_node41"><a xlink:href="classEthMacRxCsum.html" target="_top" xlink:title="EthMacRxCsum(2)">
<polygon fill="#ffffff" stroke="#000000" points="510,-342.5 510,-361.5 616,-361.5 616,-342.5 510,-342.5"/>
<text text-anchor="middle" x="563" y="-349.5" font-family="Helvetica,sans-Serif" font-size="10.00" fill="#000000">EthMacRxCsum(2)</text>
</a>
</g>
</g>
<!-- Node123&#45;&gt;Node116 -->
<g id="edge51" class="edge">
<title>Node123&#45;&gt;Node116</title>
<path fill="none" stroke="#191970" d="M626.5269,-352C639.9272,-352 653.537,-352 665.2341,-352"/>
<polygon fill="#191970" stroke="#191970" points="626.3556,-348.5001 616.3556,-352 626.3555,-355.5001 626.3556,-348.5001"/>
</g>
<!-- Node124 -->
<g id="node42" class="node">
<title>Node124</title>
<g id="a_node42"><a xlink:href="classEthMacRxBypass.html" target="_top" xlink:title="EthMacRxBypass">
<polygon fill="#ffffff" stroke="#000000" points="513,-304.5 513,-323.5 613,-323.5 613,-304.5 513,-304.5"/>
<text text-anchor="middle" x="563" y="-311.5" font-family="Helvetica,sans-Serif" font-size="10.00" fill="#000000">EthMacRxBypass</text>
</a>
</g>
</g>
<!-- Node124&#45;&gt;Node116 -->
<g id="edge52" class="edge">
<title>Node124&#45;&gt;Node116</title>
<path fill="none" stroke="#191970" d="M606.7292,-326.309C625.7862,-331.6731 647.7411,-337.8531 665.3418,-342.8073"/>
<polygon fill="#191970" stroke="#191970" points="607.6405,-322.9295 597.0662,-323.589 605.7438,-329.6677 607.6405,-322.9295"/>
</g>
<!-- Node125 -->
<g id="node43" class="node">
<title>Node125</title>
<g id="a_node43"><a xlink:href="classEthMacRxFilter.html" target="_top" xlink:title="EthMacRxFilter">
<polygon fill="#ffffff" stroke="#000000" points="518.5,-266.5 518.5,-285.5 607.5,-285.5 607.5,-266.5 518.5,-266.5"/>
<text text-anchor="middle" x="563" y="-273.5" font-family="Helvetica,sans-Serif" font-size="10.00" fill="#000000">EthMacRxFilter</text>
</a>
</g>
</g>
<!-- Node125&#45;&gt;Node116 -->
<g id="edge53" class="edge">
<title>Node125&#45;&gt;Node116</title>
<path fill="none" stroke="#191970" d="M606.5964,-289.7043C609.8708,-291.3091 613.0456,-293.0715 616,-295 635.4813,-307.7167 632.8261,-319.8244 652,-333 657.2697,-336.6212 663.3365,-339.7365 669.2993,-342.3357"/>
<polygon fill="#191970" stroke="#191970" points="607.7692,-286.3971 597.205,-285.5919 604.9614,-292.8093 607.7692,-286.3971"/>
</g>
<!-- Node126 -->
<g id="node44" class="node">
<title>Node126</title>
<g id="a_node44"><a xlink:href="classEthMacRxFifo.html" target="_top" xlink:title="EthMacRxFifo">
<polygon fill="#ffffff" stroke="#000000" points="657,-399.5 657,-418.5 739,-418.5 739,-399.5 657,-399.5"/>
<text text-anchor="middle" x="698" y="-406.5" font-family="Helvetica,sans-Serif" font-size="10.00" fill="#000000">EthMacRxFifo</text>
</a>
</g>
</g>
<!-- Node126&#45;&gt;Node91 -->
<g id="edge54" class="edge">
<title>Node126&#45;&gt;Node91</title>
<path fill="none" stroke="#191970" d="M748.2596,-397.0531C760.921,-394.0434 774.2199,-390.8822 785.8806,-388.1103"/>
<polygon fill="#191970" stroke="#191970" points="747.205,-393.7061 738.2855,-399.4239 748.8238,-400.5164 747.205,-393.7061"/>
</g>
<!-- Node127&#45;&gt;Node126 -->
<g id="edge55" class="edge">
<title>Node127&#45;&gt;Node126</title>
<path fill="none" stroke="#191970" d="M604.3267,-422.1837C621.009,-419.8358 640.2151,-417.1327 656.8768,-414.7877"/>
<polygon fill="#191970" stroke="#191970" points="603.7256,-418.7337 594.311,-423.5933 604.7013,-425.6653 603.7256,-418.7337"/>
</g>
<!-- Node130 -->
<g id="node46" class="node">
<title>Node130</title>
<g id="a_node46"><a xlink:href="classGigEthReg.html" target="_top" xlink:title="GigEthReg">
<polygon fill="#ffffff" stroke="#000000" points="529.5,-38.5 529.5,-57.5 596.5,-57.5 596.5,-38.5 529.5,-38.5"/>
<text text-anchor="middle" x="563" y="-45.5" font-family="Helvetica,sans-Serif" font-size="10.00" fill="#000000">GigEthReg</text>
</a>
</g>
</g>
<!-- Node130&#45;&gt;Node81 -->
<g id="edge57" class="edge">
<title>Node130&#45;&gt;Node81</title>
<path fill="none" stroke="#191970" d="M601.0871,-61.1046C640.4268,-76.103 701.8554,-103.765 744,-143 851.7624,-243.3227 936.5041,-405.6982 956.8373,-446.477"/>
<polygon fill="#191970" stroke="#191970" points="602.1793,-57.7766 591.5866,-57.5649 599.7354,-64.3361 602.1793,-57.7766"/>
</g>
<!-- Node131&#45;&gt;Node130 -->
<g id="edge58" class="edge">
<title>Node131&#45;&gt;Node130</title>
<path fill="none" stroke="#191970" d="M433.8619,-109.0487C453.6406,-96.7769 483.0021,-79.4545 510,-67 517.4557,-63.5606 525.7249,-60.3326 533.471,-57.5477"/>
<polygon fill="#191970" stroke="#191970" points="431.8458,-106.1817 425.2333,-114.4597 435.5648,-112.1121 431.8458,-106.1817"/>
</g>
<!-- Node132 -->
<g id="node48" class="node">
<title>Node132</title>
<g id="a_node48"><a xlink:href="classSynchronizerVector.html" target="_top" xlink:title="SynchronizerVector">
<polygon fill="#ffffff" stroke="#000000" points="172,-38.5 172,-57.5 282,-57.5 282,-38.5 172,-38.5"/>
<text text-anchor="middle" x="227" y="-45.5" font-family="Helvetica,sans-Serif" font-size="10.00" fill="#000000">SynchronizerVector</text>
</a>
</g>
</g>
<!-- Node132&#45;&gt;Node130 -->
<g id="edge60" class="edge">
<title>Node132&#45;&gt;Node130</title>
<path fill="none" stroke="#191970" d="M292.2888,-48C363.3288,-48 474.1307,-48 529.3519,-48"/>
<polygon fill="#191970" stroke="#191970" points="292.1074,-44.5001 282.1073,-48 292.1073,-51.5001 292.1074,-44.5001"/>
</g>
<!-- Node133 -->
<g id="node49" class="node">
<title>Node133</title>
<g id="a_node49"><a xlink:href="classSyncStatusVector.html" target="_top" xlink:title="SyncStatusVector">
<polygon fill="#ffffff" stroke="#000000" points="360,-.5 360,-19.5 461,-19.5 461,-.5 360,-.5"/>
<text text-anchor="middle" x="410.5" y="-7.5" font-family="Helvetica,sans-Serif" font-size="10.00" fill="#000000">SyncStatusVector</text>
</a>
</g>
</g>
<!-- Node132&#45;&gt;Node133 -->
<g id="edge62" class="edge">
<title>Node132&#45;&gt;Node133</title>
<path fill="none" stroke="#191970" d="M283.4069,-36.319C309.4296,-30.9301 339.9301,-24.6139 364.5282,-19.5201"/>
<polygon fill="#191970" stroke="#191970" points="282.3873,-32.9558 273.3048,-38.411 283.8068,-39.8104 282.3873,-32.9558"/>
</g>
<!-- Node133&#45;&gt;Node130 -->
<g id="edge61" class="edge">
<title>Node133&#45;&gt;Node130</title>
<path fill="none" stroke="#191970" d="M458.8932,-22.0586C481.8708,-27.7842 508.7613,-34.4848 529.4566,-39.6416"/>
<polygon fill="#191970" stroke="#191970" points="459.5318,-18.6108 448.9822,-19.589 457.8392,-25.4031 459.5318,-18.6108"/>
</g>
<!-- Node134 -->
<g id="node50" class="node">
<title>Node134</title>
<g id="a_node50"><a xlink:href="classSynchronizerOneShotCntVector.html" target="_top" xlink:title="SynchronizerOneShotCntVector">
<polygon fill="#ffffff" stroke="#ff0000" points="143,-.5 143,-19.5 311,-19.5 311,-.5 143,-.5"/>
<text text-anchor="middle" x="227" y="-7.5" font-family="Helvetica,sans-Serif" font-size="10.00" fill="#000000">SynchronizerOneShotCntVector</text>
</a>
</g>
</g>
<!-- Node134&#45;&gt;Node133 -->
<g id="edge63" class="edge">
<title>Node134&#45;&gt;Node133</title>
<path fill="none" stroke="#191970" d="M321.3584,-10C334.6072,-10 347.7834,-10 359.7808,-10"/>
<polygon fill="#191970" stroke="#191970" points="321.2312,-6.5001 311.2311,-10 321.2311,-13.5001 321.2312,-6.5001"/>
</g>
</g>
</svg>
