<?xml version="1.0" encoding="UTF-8" standalone="no"?>
<!DOCTYPE svg PUBLIC "-//W3C//DTD SVG 1.1//EN"
 "http://www.w3.org/Graphics/SVG/1.1/DTD/svg11.dtd">
<!-- Generated by graphviz version 2.43.0 (0)
 -->
<!-- Title: SrpV3AxiLite Pages: 1 -->
<svg width="1219pt" height="370pt"
 viewBox="0.00 0.00 1219.00 370.00" xmlns="http://www.w3.org/2000/svg" xmlns:xlink="http://www.w3.org/1999/xlink">
<g id="graph0" class="graph" transform="scale(1 1) rotate(0) translate(4 366)">
<title>SrpV3AxiLite</title>
<polygon fill="white" stroke="transparent" points="-4,4 -4,-366 1215,-366 1215,4 -4,4"/>
<!-- Node1 -->
<g id="node1" class="node">
<title>Node1</title>
<g id="a_node1"><a xlink:title=" ">
<polygon fill="#bfbfbf" stroke="black" points="1005,-152.5 1005,-171.5 1084,-171.5 1084,-152.5 1005,-152.5"/>
<text text-anchor="middle" x="1044.5" y="-159.5" font-family="Helvetica,sans-Serif" font-size="10.00">SrpV3AxiLite</text>
</a>
</g>
</g>
<!-- Node24 -->
<g id="node24" class="node">
<title>Node24</title>
<g id="a_node24"><a xlink:href="classRssiCoreTb.html" target="_top" xlink:title=" ">
<polygon fill="white" stroke="black" points="1130,-171.5 1130,-190.5 1201,-190.5 1201,-171.5 1130,-171.5"/>
<text text-anchor="middle" x="1165.5" y="-178.5" font-family="Helvetica,sans-Serif" font-size="10.00">RssiCoreTb</text>
</a>
</g>
</g>
<!-- Node1&#45;&gt;Node24 -->
<g id="edge35" class="edge">
<title>Node1&#45;&gt;Node24</title>
<path fill="none" stroke="midnightblue" d="M1094.35,-169.8C1106.2,-171.69 1118.63,-173.68 1129.68,-175.44"/>
<polygon fill="midnightblue" stroke="midnightblue" points="1094.56,-166.29 1084.14,-168.17 1093.46,-173.2 1094.56,-166.29"/>
</g>
<!-- Node25 -->
<g id="node25" class="node">
<title>Node25</title>
<g id="a_node25"><a xlink:href="classSrpV3AxiLiteTb.html" target="_top" xlink:title=" ">
<polygon fill="white" stroke="black" points="1120,-133.5 1120,-152.5 1211,-152.5 1211,-133.5 1120,-133.5"/>
<text text-anchor="middle" x="1165.5" y="-140.5" font-family="Helvetica,sans-Serif" font-size="10.00">SrpV3AxiLiteTb</text>
</a>
</g>
</g>
<!-- Node1&#45;&gt;Node25 -->
<g id="edge36" class="edge">
<title>Node1&#45;&gt;Node25</title>
<path fill="none" stroke="midnightblue" d="M1094.27,-154.21C1102.74,-152.86 1111.5,-151.46 1119.86,-150.13"/>
<polygon fill="midnightblue" stroke="midnightblue" points="1093.46,-150.8 1084.14,-155.83 1094.56,-157.71 1093.46,-150.8"/>
</g>
<!-- Node2 -->
<g id="node2" class="node">
<title>Node2</title>
<g id="a_node2"><a xlink:href="classSsiFrameLimiter.html" target="_top" xlink:title=" ">
<polygon fill="white" stroke="black" points="873,-114.5 873,-133.5 969,-133.5 969,-114.5 873,-114.5"/>
<text text-anchor="middle" x="921" y="-121.5" font-family="Helvetica,sans-Serif" font-size="10.00">SsiFrameLimiter</text>
</a>
</g>
</g>
<!-- Node2&#45;&gt;Node1 -->
<g id="edge1" class="edge">
<title>Node2&#45;&gt;Node1</title>
<path fill="none" stroke="midnightblue" d="M962.54,-136.68C978.96,-141.81 997.6,-147.64 1012.85,-152.41"/>
<polygon fill="midnightblue" stroke="midnightblue" points="963.25,-133.23 952.66,-133.59 961.16,-139.91 963.25,-133.23"/>
</g>
<!-- Node3 -->
<g id="node3" class="node">
<title>Node3</title>
<g id="a_node3"><a xlink:href="classAxiStreamResize.html" target="_top" xlink:title=" ">
<polygon fill="white" stroke="black" points="731,-76.5 731,-95.5 831,-95.5 831,-76.5 731,-76.5"/>
<text text-anchor="middle" x="781" y="-83.5" font-family="Helvetica,sans-Serif" font-size="10.00">AxiStreamResize</text>
</a>
</g>
</g>
<!-- Node3&#45;&gt;Node2 -->
<g id="edge2" class="edge">
<title>Node3&#45;&gt;Node2</title>
<path fill="none" stroke="midnightblue" d="M826.47,-98.25C845.49,-103.48 867.38,-109.51 885.19,-114.41"/>
<polygon fill="midnightblue" stroke="midnightblue" points="827.39,-94.87 816.82,-95.59 825.54,-101.62 827.39,-94.87"/>
</g>
<!-- Node4 -->
<g id="node4" class="node">
<title>Node4</title>
<g id="a_node4"><a xlink:href="classAxiStreamPipeline.html" target="_top" xlink:title=" ">
<polygon fill="white" stroke="black" points="433,-57.5 433,-76.5 540,-76.5 540,-57.5 433,-57.5"/>
<text text-anchor="middle" x="486.5" y="-64.5" font-family="Helvetica,sans-Serif" font-size="10.00">AxiStreamPipeline</text>
</a>
</g>
</g>
<!-- Node4&#45;&gt;Node3 -->
<g id="edge3" class="edge">
<title>Node4&#45;&gt;Node3</title>
<path fill="none" stroke="midnightblue" d="M550.31,-66.5C590.12,-66.69 642.67,-67.88 689,-72 702.53,-73.2 717.11,-75.15 730.55,-77.22"/>
<polygon fill="midnightblue" stroke="midnightblue" points="550.22,-63 540.21,-66.47 550.2,-70 550.22,-63"/>
</g>
<!-- Node5 -->
<g id="node5" class="node">
<title>Node5</title>
<g id="a_node5"><a xlink:href="classAxiStreamFifoV2.html" target="_top" xlink:title=" ">
<polygon fill="white" stroke="black" points="725,-133.5 725,-152.5 837,-152.5 837,-133.5 725,-133.5"/>
<text text-anchor="middle" x="781" y="-140.5" font-family="Helvetica,sans-Serif" font-size="10.00">AxiStreamFifoV2(2)</text>
</a>
</g>
</g>
<!-- Node4&#45;&gt;Node5 -->
<g id="edge28" class="edge">
<title>Node4&#45;&gt;Node5</title>
<path fill="none" stroke="midnightblue" d="M550.33,-75.39C590.5,-81.59 643.41,-91.35 689,-105 714.42,-112.61 742.42,-124.94 760.55,-133.48"/>
<polygon fill="midnightblue" stroke="midnightblue" points="550.82,-71.92 540.41,-73.88 549.77,-78.84 550.82,-71.92"/>
</g>
<!-- Node6 -->
<g id="node6" class="node">
<title>Node6</title>
<g id="a_node6"><a xlink:href="classAxiStreamResize.html" target="_top" xlink:title=" ">
<polygon fill="white" stroke="black" points="576,-114.5 576,-133.5 689,-133.5 689,-114.5 576,-114.5"/>
<text text-anchor="middle" x="632.5" y="-121.5" font-family="Helvetica,sans-Serif" font-size="10.00">AxiStreamResize(2)</text>
</a>
</g>
</g>
<!-- Node4&#45;&gt;Node6 -->
<g id="edge6" class="edge">
<title>Node4&#45;&gt;Node6</title>
<path fill="none" stroke="midnightblue" d="M524.05,-79.98C529.41,-81.96 534.86,-84 540,-86 563.89,-95.28 590.97,-106.63 609.43,-114.5"/>
<polygon fill="midnightblue" stroke="midnightblue" points="525.16,-76.66 514.57,-76.52 522.76,-83.24 525.16,-76.66"/>
</g>
<!-- Node5&#45;&gt;Node1 -->
<g id="edge29" class="edge">
<title>Node5&#45;&gt;Node1</title>
<path fill="none" stroke="midnightblue" d="M847.14,-147.73C896.79,-151.34 963.48,-156.19 1004.96,-159.2"/>
<polygon fill="midnightblue" stroke="midnightblue" points="847.37,-144.24 837.14,-147.01 846.86,-151.22 847.37,-144.24"/>
</g>
<!-- Node5&#45;&gt;Node2 -->
<g id="edge4" class="edge">
<title>Node5&#45;&gt;Node2</title>
<path fill="none" stroke="midnightblue" d="M847.3,-134.01C855.85,-132.83 864.47,-131.64 872.65,-130.52"/>
<polygon fill="midnightblue" stroke="midnightblue" points="846.76,-130.55 837.33,-135.38 847.72,-137.48 846.76,-130.55"/>
</g>
<!-- Node6&#45;&gt;Node5 -->
<g id="edge5" class="edge">
<title>Node6&#45;&gt;Node5</title>
<path fill="none" stroke="midnightblue" d="M699.25,-132.53C707.8,-133.64 716.48,-134.76 724.84,-135.85"/>
<polygon fill="midnightblue" stroke="midnightblue" points="699.67,-129.05 689.3,-131.24 698.77,-135.99 699.67,-129.05"/>
</g>
<!-- Node7 -->
<g id="node7" class="node">
<title>Node7</title>
<g id="a_node7"><a xlink:href="classFifoCascade.html" target="_top" xlink:title=" ">
<polygon fill="white" stroke="black" points="588,-152.5 588,-171.5 677,-171.5 677,-152.5 588,-152.5"/>
<text text-anchor="middle" x="632.5" y="-159.5" font-family="Helvetica,sans-Serif" font-size="10.00">FifoCascade(2)</text>
</a>
</g>
</g>
<!-- Node7&#45;&gt;Node5 -->
<g id="edge7" class="edge">
<title>Node7&#45;&gt;Node5</title>
<path fill="none" stroke="midnightblue" d="M687.16,-155.04C699.46,-153.45 712.55,-151.75 724.9,-150.15"/>
<polygon fill="midnightblue" stroke="midnightblue" points="686.52,-151.59 677.06,-156.35 687.43,-158.54 686.52,-151.59"/>
</g>
<!-- Node8 -->
<g id="node8" class="node">
<title>Node8</title>
<g id="a_node8"><a xlink:href="classFifo.html" target="_top" xlink:title=" ">
<polygon fill="white" stroke="black" points="462.5,-95.5 462.5,-114.5 510.5,-114.5 510.5,-95.5 462.5,-95.5"/>
<text text-anchor="middle" x="486.5" y="-102.5" font-family="Helvetica,sans-Serif" font-size="10.00">Fifo(4)</text>
</a>
</g>
</g>
<!-- Node8&#45;&gt;Node7 -->
<g id="edge8" class="edge">
<title>Node8&#45;&gt;Node7</title>
<path fill="none" stroke="midnightblue" d="M517.82,-118.7C534.8,-126.19 556.43,-135.46 576,-143 584.46,-146.26 593.74,-149.55 602.26,-152.45"/>
<polygon fill="midnightblue" stroke="midnightblue" points="518.98,-115.38 508.42,-114.51 516.13,-121.77 518.98,-115.38"/>
</g>
<!-- Node9 -->
<g id="node9" class="node">
<title>Node9</title>
<g id="a_node9"><a xlink:href="classFifoXpm.html" target="_top" xlink:title=" ">
<polygon fill="white" stroke="black" points="308,-0.5 308,-19.5 365,-19.5 365,-0.5 308,-0.5"/>
<text text-anchor="middle" x="336.5" y="-7.5" font-family="Helvetica,sans-Serif" font-size="10.00">FifoXpm</text>
</a>
</g>
</g>
<!-- Node9&#45;&gt;Node8 -->
<g id="edge9" class="edge">
<title>Node9&#45;&gt;Node8</title>
<path fill="none" stroke="midnightblue" d="M374.95,-17.58C382.75,-20.31 390.55,-24.01 397,-29 420.7,-47.33 409.65,-67.22 433,-86 441.46,-92.8 452.57,-97.29 462.38,-100.19"/>
<polygon fill="midnightblue" stroke="midnightblue" points="375.76,-14.17 365.18,-14.6 373.73,-20.86 375.76,-14.17"/>
</g>
<!-- Node10 -->
<g id="node10" class="node">
<title>Node10</title>
<g id="a_node10"><a xlink:href="classFifoOutputPipeline.html" target="_top" xlink:title=" ">
<polygon fill="white" stroke="black" points="124.5,-0.5 124.5,-19.5 231.5,-19.5 231.5,-0.5 124.5,-0.5"/>
<text text-anchor="middle" x="178" y="-7.5" font-family="Helvetica,sans-Serif" font-size="10.00">FifoOutputPipeline</text>
</a>
</g>
</g>
<!-- Node10&#45;&gt;Node9 -->
<g id="edge10" class="edge">
<title>Node10&#45;&gt;Node9</title>
<path fill="none" stroke="midnightblue" d="M241.62,-10C264.63,-10 289.53,-10 307.9,-10"/>
<polygon fill="midnightblue" stroke="midnightblue" points="241.55,-6.5 231.55,-10 241.55,-13.5 241.55,-6.5"/>
</g>
<!-- Node11 -->
<g id="node11" class="node">
<title>Node11</title>
<g id="a_node11"><a xlink:href="classFifoAlteraMf.html" target="_top" xlink:title=" ">
<polygon fill="white" stroke="black" points="298,-38.5 298,-57.5 375,-57.5 375,-38.5 298,-38.5"/>
<text text-anchor="middle" x="336.5" y="-45.5" font-family="Helvetica,sans-Serif" font-size="10.00">FifoAlteraMf</text>
</a>
</g>
</g>
<!-- Node10&#45;&gt;Node11 -->
<g id="edge12" class="edge">
<title>Node10&#45;&gt;Node11</title>
<path fill="none" stroke="midnightblue" d="M228.22,-21.95C250.74,-27.42 277,-33.8 297.91,-38.87"/>
<polygon fill="midnightblue" stroke="midnightblue" points="229.04,-18.55 218.49,-19.59 227.38,-25.35 229.04,-18.55"/>
</g>
<!-- Node12 -->
<g id="node12" class="node">
<title>Node12</title>
<g id="a_node12"><a xlink:href="classFifoAsync.html" target="_top" xlink:title=" ">
<polygon fill="white" stroke="black" points="304.5,-114.5 304.5,-133.5 368.5,-133.5 368.5,-114.5 304.5,-114.5"/>
<text text-anchor="middle" x="336.5" y="-121.5" font-family="Helvetica,sans-Serif" font-size="10.00">FifoAsync</text>
</a>
</g>
</g>
<!-- Node10&#45;&gt;Node12 -->
<g id="edge21" class="edge">
<title>Node10&#45;&gt;Node12</title>
<path fill="none" stroke="midnightblue" d="M233.77,-24.38C235.97,-25.78 238.06,-27.31 240,-29 268.22,-53.51 247.87,-80.39 276,-105 283.92,-111.93 294.38,-116.33 304.32,-119.13"/>
<polygon fill="midnightblue" stroke="midnightblue" points="235.34,-21.24 224.87,-19.62 232.04,-27.42 235.34,-21.24"/>
</g>
<!-- Node20 -->
<g id="node20" class="node">
<title>Node20</title>
<g id="a_node20"><a xlink:href="classFifoSync.html" target="_top" xlink:title=" ">
<polygon fill="white" stroke="black" points="307.5,-76.5 307.5,-95.5 365.5,-95.5 365.5,-76.5 307.5,-76.5"/>
<text text-anchor="middle" x="336.5" y="-83.5" font-family="Helvetica,sans-Serif" font-size="10.00">FifoSync</text>
</a>
</g>
</g>
<!-- Node10&#45;&gt;Node20 -->
<g id="edge26" class="edge">
<title>Node10&#45;&gt;Node20</title>
<path fill="none" stroke="midnightblue" d="M229.35,-23.36C233.06,-25.04 236.65,-26.92 240,-29 259.75,-41.3 256.3,-54.63 276,-67 285.46,-72.94 296.94,-77.18 307.28,-80.12"/>
<polygon fill="midnightblue" stroke="midnightblue" points="230.56,-20.08 219.98,-19.58 227.94,-26.57 230.56,-20.08"/>
</g>
<!-- Node11&#45;&gt;Node8 -->
<g id="edge11" class="edge">
<title>Node11&#45;&gt;Node8</title>
<path fill="none" stroke="midnightblue" d="M380.77,-60.82C386.29,-62.75 391.81,-64.82 397,-67 413.68,-74 416.45,-78.68 433,-86 442.49,-90.2 453.21,-94.2 462.49,-97.45"/>
<polygon fill="midnightblue" stroke="midnightblue" points="381.52,-57.38 370.92,-57.53 379.3,-64.02 381.52,-57.38"/>
</g>
<!-- Node12&#45;&gt;Node8 -->
<g id="edge13" class="edge">
<title>Node12&#45;&gt;Node8</title>
<path fill="none" stroke="midnightblue" d="M378.47,-118.74C405.48,-115.27 439.87,-110.86 462.27,-107.98"/>
<polygon fill="midnightblue" stroke="midnightblue" points="378,-115.27 368.53,-120.02 378.89,-122.22 378,-115.27"/>
</g>
<!-- Node13 -->
<g id="node13" class="node">
<title>Node13</title>
<g id="a_node13"><a xlink:href="classRstSync.html" target="_top" xlink:title=" ">
<polygon fill="white" stroke="black" points="143.5,-190.5 143.5,-209.5 212.5,-209.5 212.5,-190.5 143.5,-190.5"/>
<text text-anchor="middle" x="178" y="-197.5" font-family="Helvetica,sans-Serif" font-size="10.00">RstSync(2)</text>
</a>
</g>
</g>
<!-- Node13&#45;&gt;Node12 -->
<g id="edge14" class="edge">
<title>Node13&#45;&gt;Node12</title>
<path fill="none" stroke="midnightblue" d="M222.64,-187.79C228.56,-185.74 234.49,-183.46 240,-181 270.68,-167.3 303.77,-145.89 321.82,-133.58"/>
<polygon fill="midnightblue" stroke="midnightblue" points="221.17,-184.59 212.77,-191.04 223.36,-191.24 221.17,-184.59"/>
</g>
<!-- Node14 -->
<g id="node14" class="node">
<title>Node14</title>
<g id="a_node14"><a xlink:href="classSynchronizer.html" target="_top" xlink:title=" ">
<polygon fill="white" stroke="black" points="0,-285.5 0,-304.5 80,-304.5 80,-285.5 0,-285.5"/>
<text text-anchor="middle" x="40" y="-292.5" font-family="Helvetica,sans-Serif" font-size="10.00">Synchronizer</text>
</a>
</g>
</g>
<!-- Node14&#45;&gt;Node5 -->
<g id="edge27" class="edge">
<title>Node14&#45;&gt;Node5</title>
<path fill="none" stroke="midnightblue" d="M90.06,-289.89C148.47,-284.27 248.98,-276 335.5,-276 335.5,-276 335.5,-276 487.5,-276 606.88,-276 731.07,-183.06 768.6,-152.57"/>
<polygon fill="midnightblue" stroke="midnightblue" points="89.62,-286.42 80.01,-290.88 90.3,-293.39 89.62,-286.42"/>
</g>
<!-- Node14&#45;&gt;Node13 -->
<g id="edge15" class="edge">
<title>Node14&#45;&gt;Node13</title>
<path fill="none" stroke="midnightblue" d="M54.24,-277.22C67.92,-260.01 90.79,-234.35 116,-219 124.34,-213.92 134.15,-210.09 143.44,-207.25"/>
<polygon fill="midnightblue" stroke="midnightblue" points="51.3,-275.29 47.96,-285.34 56.84,-279.57 51.3,-275.29"/>
</g>
<!-- Node22 -->
<g id="node22" class="node">
<title>Node22</title>
<g id="a_node22"><a xlink:href="classRstSync.html" target="_top" xlink:title=" ">
<polygon fill="white" stroke="black" points="150,-342.5 150,-361.5 206,-361.5 206,-342.5 150,-342.5"/>
<text text-anchor="middle" x="178" y="-349.5" font-family="Helvetica,sans-Serif" font-size="10.00">RstSync</text>
</a>
</g>
</g>
<!-- Node14&#45;&gt;Node22 -->
<g id="edge32" class="edge">
<title>Node14&#45;&gt;Node22</title>
<path fill="none" stroke="midnightblue" d="M67.05,-309.55C81.25,-317.14 99.3,-326.22 116,-333 126.89,-337.42 139.23,-341.44 149.94,-344.63"/>
<polygon fill="midnightblue" stroke="midnightblue" points="68.36,-306.28 57.9,-304.59 65.02,-312.43 68.36,-306.28"/>
</g>
<!-- Node23 -->
<g id="node23" class="node">
<title>Node23</title>
<g id="a_node23"><a xlink:href="classSynchronizerEdge.html" target="_top" xlink:title=" ">
<polygon fill="white" stroke="black" points="126,-304.5 126,-323.5 230,-323.5 230,-304.5 126,-304.5"/>
<text text-anchor="middle" x="178" y="-311.5" font-family="Helvetica,sans-Serif" font-size="10.00">SynchronizerEdge</text>
</a>
</g>
</g>
<!-- Node14&#45;&gt;Node23 -->
<g id="edge34" class="edge">
<title>Node14&#45;&gt;Node23</title>
<path fill="none" stroke="midnightblue" d="M90.56,-301.92C101.96,-303.52 114.11,-305.21 125.59,-306.82"/>
<polygon fill="midnightblue" stroke="midnightblue" points="90.72,-298.41 80.34,-300.5 89.76,-305.35 90.72,-298.41"/>
</g>
<!-- Node15 -->
<g id="node15" class="node">
<title>Node15</title>
<g id="a_node15"><a xlink:href="classSynchronizerVector.html" target="_top" xlink:title=" ">
<polygon fill="white" stroke="black" points="116,-152.5 116,-171.5 240,-171.5 240,-152.5 116,-152.5"/>
<text text-anchor="middle" x="178" y="-159.5" font-family="Helvetica,sans-Serif" font-size="10.00">SynchronizerVector(2)</text>
</a>
</g>
</g>
<!-- Node15&#45;&gt;Node12 -->
<g id="edge16" class="edge">
<title>Node15&#45;&gt;Node12</title>
<path fill="none" stroke="midnightblue" d="M228.48,-149.98C253.35,-143.95 282.73,-136.81 304.41,-131.55"/>
<polygon fill="midnightblue" stroke="midnightblue" points="227.38,-146.65 218.49,-152.41 229.04,-153.45 227.38,-146.65"/>
</g>
<!-- Node16 -->
<g id="node16" class="node">
<title>Node16</title>
<g id="a_node16"><a xlink:href="classSynchronizer.html" target="_top" xlink:title=" ">
<polygon fill="white" stroke="black" points="131.5,-228.5 131.5,-247.5 224.5,-247.5 224.5,-228.5 131.5,-228.5"/>
<text text-anchor="middle" x="178" y="-235.5" font-family="Helvetica,sans-Serif" font-size="10.00">Synchronizer(2)</text>
</a>
</g>
</g>
<!-- Node16&#45;&gt;Node12 -->
<g id="edge17" class="edge">
<title>Node16&#45;&gt;Node12</title>
<path fill="none" stroke="midnightblue" d="M228.61,-224.82C232.57,-223.09 236.42,-221.16 240,-219 279.06,-195.46 314.02,-152.66 328.47,-133.6"/>
<polygon fill="midnightblue" stroke="midnightblue" points="227.28,-221.59 219.24,-228.5 229.83,-228.1 227.28,-221.59"/>
</g>
<!-- Node17 -->
<g id="node17" class="node">
<title>Node17</title>
<g id="a_node17"><a xlink:href="classFifoWrFsm.html" target="_top" xlink:title=" ">
<polygon fill="white" stroke="black" points="143.5,-76.5 143.5,-95.5 212.5,-95.5 212.5,-76.5 143.5,-76.5"/>
<text text-anchor="middle" x="178" y="-83.5" font-family="Helvetica,sans-Serif" font-size="10.00">FifoWrFsm</text>
</a>
</g>
</g>
<!-- Node17&#45;&gt;Node12 -->
<g id="edge18" class="edge">
<title>Node17&#45;&gt;Node12</title>
<path fill="none" stroke="midnightblue" d="M222.55,-96.57C248.55,-102.89 280.95,-110.76 304.38,-116.44"/>
<polygon fill="midnightblue" stroke="midnightblue" points="223.12,-93.11 212.57,-94.15 221.46,-99.91 223.12,-93.11"/>
</g>
<!-- Node17&#45;&gt;Node20 -->
<g id="edge23" class="edge">
<title>Node17&#45;&gt;Node20</title>
<path fill="none" stroke="midnightblue" d="M222.6,-86C249.76,-86 283.89,-86 307.47,-86"/>
<polygon fill="midnightblue" stroke="midnightblue" points="222.57,-82.5 212.57,-86 222.57,-89.5 222.57,-82.5"/>
</g>
<!-- Node18 -->
<g id="node18" class="node">
<title>Node18</title>
<g id="a_node18"><a xlink:href="classFifoRdFsm.html" target="_top" xlink:title=" ">
<polygon fill="white" stroke="black" points="144,-38.5 144,-57.5 212,-57.5 212,-38.5 144,-38.5"/>
<text text-anchor="middle" x="178" y="-45.5" font-family="Helvetica,sans-Serif" font-size="10.00">FifoRdFsm</text>
</a>
</g>
</g>
<!-- Node18&#45;&gt;Node12 -->
<g id="edge19" class="edge">
<title>Node18&#45;&gt;Node12</title>
<path fill="none" stroke="midnightblue" d="M222.1,-58.36C228.34,-60.72 234.5,-63.57 240,-67 259.75,-79.3 256.3,-92.63 276,-105 284.54,-110.36 294.73,-114.34 304.24,-117.22"/>
<polygon fill="midnightblue" stroke="midnightblue" points="222.91,-54.94 212.31,-55.04 220.66,-61.57 222.91,-54.94"/>
</g>
<!-- Node18&#45;&gt;Node20 -->
<g id="edge24" class="edge">
<title>Node18&#45;&gt;Node20</title>
<path fill="none" stroke="midnightblue" d="M222.22,-58.49C249.38,-65.09 283.64,-73.41 307.33,-79.16"/>
<polygon fill="midnightblue" stroke="midnightblue" points="222.73,-55.02 212.19,-56.06 221.08,-61.82 222.73,-55.02"/>
</g>
<!-- Node19 -->
<g id="node19" class="node">
<title>Node19</title>
<g id="a_node19"><a xlink:href="classSimpleDualPortRam.html" target="_top" xlink:title=" ">
<polygon fill="white" stroke="black" points="120.5,-114.5 120.5,-133.5 235.5,-133.5 235.5,-114.5 120.5,-114.5"/>
<text text-anchor="middle" x="178" y="-121.5" font-family="Helvetica,sans-Serif" font-size="10.00">SimpleDualPortRam</text>
</a>
</g>
</g>
<!-- Node19&#45;&gt;Node12 -->
<g id="edge20" class="edge">
<title>Node19&#45;&gt;Node12</title>
<path fill="none" stroke="midnightblue" d="M245.67,-124C265.96,-124 287.32,-124 304.11,-124"/>
<polygon fill="midnightblue" stroke="midnightblue" points="245.5,-120.5 235.5,-124 245.5,-127.5 245.5,-120.5"/>
</g>
<!-- Node19&#45;&gt;Node20 -->
<g id="edge25" class="edge">
<title>Node19&#45;&gt;Node20</title>
<path fill="none" stroke="midnightblue" d="M228.21,-112.05C254.29,-105.72 285.39,-98.17 307.37,-92.83"/>
<polygon fill="midnightblue" stroke="midnightblue" points="227.38,-108.65 218.49,-114.41 229.04,-115.45 227.38,-108.65"/>
</g>
<!-- Node20&#45;&gt;Node8 -->
<g id="edge22" class="edge">
<title>Node20&#45;&gt;Node8</title>
<path fill="none" stroke="midnightblue" d="M375.72,-90.91C403.11,-94.42 439.11,-99.04 462.28,-102.02"/>
<polygon fill="midnightblue" stroke="midnightblue" points="376.05,-87.42 365.69,-89.62 375.16,-94.36 376.05,-87.42"/>
</g>
<!-- Node21 -->
<g id="node21" class="node">
<title>Node21</title>
<g id="a_node21"><a xlink:href="classSynchronizerOneShot.html" target="_top" xlink:title=" ">
<polygon fill="white" stroke="black" points="276,-304.5 276,-323.5 397,-323.5 397,-304.5 276,-304.5"/>
<text text-anchor="middle" x="336.5" y="-311.5" font-family="Helvetica,sans-Serif" font-size="10.00">SynchronizerOneShot</text>
</a>
</g>
</g>
<!-- Node21&#45;&gt;Node1 -->
<g id="edge30" class="edge">
<title>Node21&#45;&gt;Node1</title>
<path fill="none" stroke="midnightblue" d="M407.23,-314C466.8,-314 554.78,-314 631.5,-314 631.5,-314 631.5,-314 782,-314 895.95,-314 1004.61,-204.78 1035.08,-171.51"/>
<polygon fill="midnightblue" stroke="midnightblue" points="407.19,-310.5 397.19,-314 407.19,-317.5 407.19,-310.5"/>
</g>
<!-- Node22&#45;&gt;Node21 -->
<g id="edge31" class="edge">
<title>Node22&#45;&gt;Node21</title>
<path fill="none" stroke="midnightblue" d="M216.12,-342.99C240.25,-337.13 271.68,-329.5 296.24,-323.53"/>
<polygon fill="midnightblue" stroke="midnightblue" points="215.15,-339.62 206.26,-345.38 216.8,-346.42 215.15,-339.62"/>
</g>
<!-- Node23&#45;&gt;Node21 -->
<g id="edge33" class="edge">
<title>Node23&#45;&gt;Node21</title>
<path fill="none" stroke="midnightblue" d="M240.37,-314C252.09,-314 264.33,-314 275.99,-314"/>
<polygon fill="midnightblue" stroke="midnightblue" points="240.24,-310.5 230.24,-314 240.24,-317.5 240.24,-310.5"/>
</g>
</g>
</svg>
