<?xml version="1.0" encoding="UTF-8" standalone="no"?>
<!DOCTYPE svg PUBLIC "-//W3C//DTD SVG 1.1//EN"
 "http://www.w3.org/Graphics/SVG/1.1/DTD/svg11.dtd">
<!-- Generated by graphviz version 2.40.1 (20161225.0304)
 -->
<!-- Title: SsiPrbsTxOld Pages: 1 -->
<!--zoomable 292 -->
<svg id="main" version="1.1" xmlns="http://www.w3.org/2000/svg" xmlns:xlink="http://www.w3.org/1999/xlink" xml:space="preserve" onload="init(evt)">
<style type="text/css"><![CDATA[
.edge:hover path { stroke: red; }
.edge:hover polygon { stroke: red; fill: red; }
]]></style>
<script type="text/javascript"><![CDATA[
var edges = document.getElementsByTagName('g');
if (edges && edges.length) {
  for (var i=0;i<edges.length;i++) {
    if (edges[i].id.substr(0,4)=='edge') {
      edges[i].setAttribute('class','edge');
    }
  }
}
]]></script>
        <defs>
                <circle id="rim" cx="0" cy="0" r="7"/>
                <circle id="rim2" cx="0" cy="0" r="3.5"/>
                <g id="zoomPlus">
                        <use xlink:href="#rim" fill="#404040">
                                <set attributeName="fill" to="#808080" begin="zoomplus.mouseover" end="zoomplus.mouseout"/>
                        </use>
                        <path d="M-4,0h8M0,-4v8" fill="none" stroke="white" stroke-width="1.5" pointer-events="none"/>
                </g>
                <g id="zoomMin">
                        <use xlink:href="#rim" fill="#404040">
                                <set attributeName="fill" to="#808080" begin="zoomminus.mouseover" end="zoomminus.mouseout"/>
                        </use>
                        <path d="M-4,0h8" fill="none" stroke="white" stroke-width="1.5" pointer-events="none"/>
                </g>
                <g id="dirArrow">
                        <path fill="none" stroke="white" stroke-width="1.5" d="M0,-3.0v7 M-2.5,-0.5L0,-3.0L2.5,-0.5"/>
                </g>
               <g id="resetDef">
                       <use xlink:href="#rim2" fill="#404040">
                               <set attributeName="fill" to="#808080" begin="reset.mouseover" end="reset.mouseout"/>
                       </use>
               </g>
        </defs>

<script type="text/javascript">
var viewWidth = 901;
var viewHeight = 292;
var sectionId = 'dynsection-1';
</script>
<script xlink:href="svgpan.js"/>
<svg id="graph" class="graph">
<g id="viewport">
<title>SsiPrbsTxOld</title>
<polygon fill="#ffffff" stroke="transparent" points="-4,4 -4,-287.7111 897,-287.7111 897,4 -4,4"/>
<!-- Node18 -->
<g id="node1" class="node">
<title>Node18</title>
<polygon fill="#bfbfbf" stroke="#000000" points="813,-74.2111 813,-93.2111 893,-93.2111 893,-74.2111 813,-74.2111"/>
<text text-anchor="middle" x="853" y="-81.2111" font-family="Helvetica,sans-Serif" font-size="10.00" fill="#000000">SsiPrbsTxOld</text>
</g>
<!-- Node19 -->
<g id="node2" class="node">
<title>Node19</title>
<g id="a_node2"><a xlink:href="classAxiStreamFifoV2.html" target="_top" xlink:title="AxiStreamFifoV2">
<polygon fill="#ffffff" stroke="#000000" points="679,-74.2111 679,-93.2111 777,-93.2111 777,-74.2111 679,-74.2111"/>
<text text-anchor="middle" x="728" y="-81.2111" font-family="Helvetica,sans-Serif" font-size="10.00" fill="#000000">AxiStreamFifoV2</text>
</a>
</g>
</g>
<!-- Node19&#45;&gt;Node18 -->
<g id="edge1" class="edge">
<title>Node19&#45;&gt;Node18</title>
<path fill="none" stroke="#191970" d="M787.2074,-83.7111C795.933,-83.7111 804.7445,-83.7111 812.959,-83.7111"/>
<polygon fill="#191970" stroke="#191970" points="787.0446,-80.2112 777.0445,-83.7111 787.0445,-87.2112 787.0446,-80.2112"/>
</g>
<!-- Node20 -->
<g id="node3" class="node">
<title>Node20</title>
<g id="a_node3"><a xlink:href="classAxiStreamResize.html" target="_top" xlink:title="AxiStreamResize(2)">
<polygon fill="#ffffff" stroke="#000000" points="530,-131.2111 530,-150.2111 643,-150.2111 643,-131.2111 530,-131.2111"/>
<text text-anchor="middle" x="586.5" y="-138.2111" font-family="Helvetica,sans-Serif" font-size="10.00" fill="#000000">AxiStreamResize(2)</text>
</a>
</g>
</g>
<!-- Node20&#45;&gt;Node19 -->
<g id="edge2" class="edge">
<title>Node20&#45;&gt;Node19</title>
<path fill="none" stroke="#191970" d="M619.6182,-127.3702C645.5701,-116.9161 681.0503,-102.6237 704.2388,-93.2828"/>
<polygon fill="#191970" stroke="#191970" points="618.1518,-124.1876 610.1839,-131.1706 620.7674,-130.6805 618.1518,-124.1876"/>
</g>
<!-- Node21 -->
<g id="node4" class="node">
<title>Node21</title>
<g id="a_node4"><a xlink:href="classAxiStreamPipeline.html" target="_top" xlink:title="AxiStreamPipeline">
<polygon fill="#ffffff" stroke="#000000" points="387,-121.2111 387,-140.2111 494,-140.2111 494,-121.2111 387,-121.2111"/>
<text text-anchor="middle" x="440.5" y="-128.2111" font-family="Helvetica,sans-Serif" font-size="10.00" fill="#000000">AxiStreamPipeline</text>
</a>
</g>
</g>
<!-- Node21&#45;&gt;Node19 -->
<g id="edge25" class="edge">
<title>Node21&#45;&gt;Node19</title>
<path fill="none" stroke="#191970" d="M504.1509,-120.3056C556.838,-111.6924 630.6123,-99.6319 678.8412,-91.7475"/>
<polygon fill="#191970" stroke="#191970" points="503.5436,-116.8583 494.2393,-121.9259 504.673,-123.7666 503.5436,-116.8583"/>
</g>
<!-- Node21&#45;&gt;Node20 -->
<g id="edge3" class="edge">
<title>Node21&#45;&gt;Node20</title>
<path fill="none" stroke="#191970" d="M504.2027,-135.0743C512.6312,-135.6516 521.2279,-136.2404 529.5332,-136.8093"/>
<polygon fill="#191970" stroke="#191970" points="504.2518,-131.5696 494.036,-134.378 503.7734,-138.5532 504.2518,-131.5696"/>
</g>
<!-- Node22 -->
<g id="node5" class="node">
<title>Node22</title>
<g id="a_node5"><a xlink:href="classFifoCascade.html" target="_top" xlink:title="FifoCascade(2)">
<polygon fill="#ffffff" stroke="#000000" points="542,-55.2111 542,-74.2111 631,-74.2111 631,-55.2111 542,-55.2111"/>
<text text-anchor="middle" x="586.5" y="-62.2111" font-family="Helvetica,sans-Serif" font-size="10.00" fill="#000000">FifoCascade(2)</text>
</a>
</g>
</g>
<!-- Node22&#45;&gt;Node19 -->
<g id="edge4" class="edge">
<title>Node22&#45;&gt;Node19</title>
<path fill="none" stroke="#191970" d="M641.3816,-72.0804C653.6466,-73.7273 666.5824,-75.4642 678.6095,-77.0792"/>
<polygon fill="#191970" stroke="#191970" points="641.6484,-68.5849 631.2715,-70.7229 640.7167,-75.5226 641.6484,-68.5849"/>
</g>
<!-- Node23 -->
<g id="node6" class="node">
<title>Node23</title>
<g id="a_node6"><a xlink:href="classFifo.html" target="_top" xlink:title="Fifo(4)">
<polygon fill="#ffffff" stroke="#000000" points="417,-74.2111 417,-93.2111 464,-93.2111 464,-74.2111 417,-74.2111"/>
<text text-anchor="middle" x="440.5" y="-81.2111" font-family="Helvetica,sans-Serif" font-size="10.00" fill="#000000">Fifo(4)</text>
</a>
</g>
</g>
<!-- Node23&#45;&gt;Node22 -->
<g id="edge5" class="edge">
<title>Node23&#45;&gt;Node22</title>
<path fill="none" stroke="#191970" d="M474.2186,-79.3231C494.3015,-76.7096 520.0331,-73.3609 541.7955,-70.5288"/>
<polygon fill="#191970" stroke="#191970" points="473.747,-75.8549 464.2824,-80.6162 474.6504,-82.7963 473.747,-75.8549"/>
</g>
<!-- Node24 -->
<g id="node7" class="node">
<title>Node24</title>
<g id="a_node7"><a xlink:href="classFifoXpm.html" target="_top" xlink:title="FifoXpm">
<polygon fill="#ffffff" stroke="#000000" points="285.5,-74.2111 285.5,-93.2111 341.5,-93.2111 341.5,-74.2111 285.5,-74.2111"/>
<text text-anchor="middle" x="313.5" y="-81.2111" font-family="Helvetica,sans-Serif" font-size="10.00" fill="#000000">FifoXpm</text>
</a>
</g>
</g>
<!-- Node24&#45;&gt;Node23 -->
<g id="edge6" class="edge">
<title>Node24&#45;&gt;Node23</title>
<path fill="none" stroke="#191970" d="M351.9324,-83.7111C373.001,-83.7111 398.4554,-83.7111 416.6589,-83.7111"/>
<polygon fill="#191970" stroke="#191970" points="351.6855,-80.2112 341.6854,-83.7111 351.6854,-87.2112 351.6855,-80.2112"/>
</g>
<!-- Node25 -->
<g id="node8" class="node">
<title>Node25</title>
<g id="a_node8"><a xlink:href="classFifoOutputPipeline.html" target="_top" xlink:title="FifoOutputPipeline">
<polygon fill="#ffffff" stroke="#000000" points="125,-36.2111 125,-55.2111 231,-55.2111 231,-36.2111 125,-36.2111"/>
<text text-anchor="middle" x="178" y="-43.2111" font-family="Helvetica,sans-Serif" font-size="10.00" fill="#000000">FifoOutputPipeline</text>
</a>
</g>
</g>
<!-- Node25&#45;&gt;Node24 -->
<g id="edge7" class="edge">
<title>Node25&#45;&gt;Node24</title>
<path fill="none" stroke="#191970" d="M222.072,-58.0708C242.8353,-63.8937 266.9927,-70.6685 285.2597,-75.7913"/>
<polygon fill="#191970" stroke="#191970" points="222.766,-54.6305 212.1924,-55.3001 220.8758,-61.3704 222.766,-54.6305"/>
</g>
<!-- Node26 -->
<g id="node9" class="node">
<title>Node26</title>
<g id="a_node9"><a xlink:href="classFifoAlteraMf.html" target="_top" xlink:title="FifoAlteraMf">
<polygon fill="#ffffff" stroke="#000000" points="276,-36.2111 276,-55.2111 351,-55.2111 351,-36.2111 276,-36.2111"/>
<text text-anchor="middle" x="313.5" y="-43.2111" font-family="Helvetica,sans-Serif" font-size="10.00" fill="#000000">FifoAlteraMf</text>
</a>
</g>
</g>
<!-- Node25&#45;&gt;Node26 -->
<g id="edge9" class="edge">
<title>Node25&#45;&gt;Node26</title>
<path fill="none" stroke="#191970" d="M241.4613,-45.7111C253.271,-45.7111 265.2552,-45.7111 275.9708,-45.7111"/>
<polygon fill="#191970" stroke="#191970" points="241.1643,-42.2112 231.1643,-45.7111 241.1643,-49.2112 241.1643,-42.2112"/>
</g>
<!-- Node27 -->
<g id="node10" class="node">
<title>Node27</title>
<g id="a_node10"><a xlink:href="classFifoAsync.html" target="_top" xlink:title="FifoAsync">
<polygon fill="#ffffff" stroke="#000000" points="282,-150.2111 282,-169.2111 345,-169.2111 345,-150.2111 282,-150.2111"/>
<text text-anchor="middle" x="313.5" y="-157.2111" font-family="Helvetica,sans-Serif" font-size="10.00" fill="#000000">FifoAsync</text>
</a>
</g>
</g>
<!-- Node25&#45;&gt;Node27 -->
<g id="edge18" class="edge">
<title>Node25&#45;&gt;Node27</title>
<path fill="none" stroke="#191970" d="M233.6666,-60.0357C235.8996,-61.4499 238.0253,-63.0038 240,-64.7111 268.2736,-89.1557 249.9252,-113.9335 276,-140.7111 279.666,-144.4759 284.2362,-147.626 288.912,-150.2092"/>
<polygon fill="#191970" stroke="#191970" points="235.0891,-56.8286 224.6135,-55.2437 231.8143,-63.0154 235.0891,-56.8286"/>
</g>
<!-- Node35 -->
<g id="node18" class="node">
<title>Node35</title>
<g id="a_node18"><a xlink:href="classFifoSync.html" target="_top" xlink:title="FifoSync">
<polygon fill="#ffffff" stroke="#000000" points="285,-112.2111 285,-131.2111 342,-131.2111 342,-112.2111 285,-112.2111"/>
<text text-anchor="middle" x="313.5" y="-119.2111" font-family="Helvetica,sans-Serif" font-size="10.00" fill="#000000">FifoSync</text>
</a>
</g>
</g>
<!-- Node25&#45;&gt;Node35 -->
<g id="edge23" class="edge">
<title>Node25&#45;&gt;Node35</title>
<path fill="none" stroke="#191970" d="M229.1786,-59.0233C232.9464,-60.7135 236.5986,-62.6027 240,-64.7111 259.7738,-76.968 257.3493,-88.8048 276,-102.7111 280.6808,-106.2012 286.0982,-109.3655 291.3347,-112.0667"/>
<polygon fill="#191970" stroke="#191970" points="230.2369,-55.6772 219.6519,-55.2202 227.6415,-62.1784 230.2369,-55.6772"/>
</g>
<!-- Node26&#45;&gt;Node23 -->
<g id="edge8" class="edge">
<title>Node26&#45;&gt;Node23</title>
<path fill="none" stroke="#191970" d="M355.2723,-58.2099C375.7317,-64.3316 399.6128,-71.4772 416.8821,-76.6443"/>
<polygon fill="#191970" stroke="#191970" points="356.1311,-54.8136 345.5475,-55.3001 354.1245,-61.5199 356.1311,-54.8136"/>
</g>
<!-- Node27&#45;&gt;Node23 -->
<g id="edge10" class="edge">
<title>Node27&#45;&gt;Node23</title>
<path fill="none" stroke="#191970" d="M343.2403,-145.3759C345.9057,-143.8724 348.5286,-142.3076 351,-140.7111 368.258,-129.5628 369.8159,-122.9731 387,-111.7111 397.4341,-104.8729 409.728,-98.3419 419.8981,-93.31"/>
<polygon fill="#191970" stroke="#191970" points="341.3511,-142.4166 334.1725,-150.2088 344.6435,-148.5941 341.3511,-142.4166"/>
</g>
<!-- Node28 -->
<g id="node11" class="node">
<title>Node28</title>
<g id="a_node11"><a xlink:href="classRstSync.html" target="_top" xlink:title="RstSync(2)">
<polygon fill="#ffffff" stroke="#000000" points="143.5,-264.2111 143.5,-283.2111 212.5,-283.2111 212.5,-264.2111 143.5,-264.2111"/>
<text text-anchor="middle" x="178" y="-271.2111" font-family="Helvetica,sans-Serif" font-size="10.00" fill="#000000">RstSync(2)</text>
</a>
</g>
</g>
<!-- Node28&#45;&gt;Node27 -->
<g id="edge11" class="edge">
<title>Node28&#45;&gt;Node27</title>
<path fill="none" stroke="#191970" d="M222.3361,-263.8269C228.5616,-261.4039 234.6519,-258.4081 240,-254.7111 273.4495,-231.5888 298.5866,-188.5714 308.6668,-169.3838"/>
<polygon fill="#191970" stroke="#191970" points="220.8583,-260.6332 212.5292,-267.1813 223.1238,-267.2565 220.8583,-260.6332"/>
</g>
<!-- Node29 -->
<g id="node12" class="node">
<title>Node29</title>
<g id="a_node12"><a xlink:href="classSynchronizer.html" target="_top" xlink:title="Synchronizer">
<polygon fill="#ffffff" stroke="#000000" points="0,-131.2111 0,-150.2111 80,-150.2111 80,-131.2111 0,-131.2111"/>
<text text-anchor="middle" x="40" y="-138.2111" font-family="Helvetica,sans-Serif" font-size="10.00" fill="#000000">Synchronizer</text>
</a>
</g>
</g>
<!-- Node29&#45;&gt;Node19 -->
<g id="edge24" class="edge">
<title>Node29&#45;&gt;Node19</title>
<path fill="none" stroke="#191970" d="M46.8297,-121.2615C57.2356,-94.8351 79.7644,-48.3998 116,-26.7111 191.6648,18.5778 225.317,-7.7111 313.5,-7.7111 313.5,-7.7111 313.5,-7.7111 440.5,-7.7111 532.0709,-7.7111 555.5992,-18.392 643,-45.7111 666.914,-53.186 693.03,-65.5398 709.9148,-74.1242"/>
<polygon fill="#191970" stroke="#191970" points="43.4394,-120.3354 43.2149,-130.9279 49.9959,-122.7873 43.4394,-120.3354"/>
</g>
<!-- Node29&#45;&gt;Node28 -->
<g id="edge12" class="edge">
<title>Node29&#45;&gt;Node28</title>
<path fill="none" stroke="#191970" d="M47.6632,-159.5415C58.9174,-184.8667 82.2967,-229.6134 116,-254.7111 123.9459,-260.6282 133.7552,-264.7224 143.2078,-267.5478"/>
<polygon fill="#191970" stroke="#191970" points="50.8544,-158.1023 43.7066,-150.2819 44.4174,-160.8529 50.8544,-158.1023"/>
</g>
<!-- Node30 -->
<g id="node13" class="node">
<title>Node30</title>
<g id="a_node13"><a xlink:href="classSynchronizerVector.html" target="_top" xlink:title="SynchronizerVector(2)">
<polygon fill="#ffffff" stroke="#000000" points="116,-226.2111 116,-245.2111 240,-245.2111 240,-226.2111 116,-226.2111"/>
<text text-anchor="middle" x="178" y="-233.2111" font-family="Helvetica,sans-Serif" font-size="10.00" fill="#000000">SynchronizerVector(2)</text>
</a>
</g>
</g>
<!-- Node30&#45;&gt;Node27 -->
<g id="edge13" class="edge">
<title>Node30&#45;&gt;Node27</title>
<path fill="none" stroke="#191970" d="M226.497,-222.7368C231.1534,-220.9329 235.7277,-218.9272 240,-216.7111 264.9417,-203.7738 289.9335,-182.0906 303.3848,-169.5271"/>
<polygon fill="#191970" stroke="#191970" points="225.1392,-219.505 216.8944,-226.1588 227.489,-226.0988 225.1392,-219.505"/>
</g>
<!-- Node31 -->
<g id="node14" class="node">
<title>Node31</title>
<g id="a_node14"><a xlink:href="classSynchronizer.html" target="_top" xlink:title="Synchronizer(2)">
<polygon fill="#ffffff" stroke="#000000" points="131.5,-188.2111 131.5,-207.2111 224.5,-207.2111 224.5,-188.2111 131.5,-188.2111"/>
<text text-anchor="middle" x="178" y="-195.2111" font-family="Helvetica,sans-Serif" font-size="10.00" fill="#000000">Synchronizer(2)</text>
</a>
</g>
</g>
<!-- Node31&#45;&gt;Node27 -->
<g id="edge14" class="edge">
<title>Node31&#45;&gt;Node27</title>
<path fill="none" stroke="#191970" d="M222.0405,-185.3603C241.4689,-179.9117 263.8739,-173.6284 281.6457,-168.6445"/>
<polygon fill="#191970" stroke="#191970" points="220.8758,-182.0518 212.1924,-188.1221 222.766,-188.7918 220.8758,-182.0518"/>
</g>
<!-- Node32 -->
<g id="node15" class="node">
<title>Node32</title>
<g id="a_node15"><a xlink:href="classFifoWrFsm.html" target="_top" xlink:title="FifoWrFsm">
<polygon fill="#ffffff" stroke="#000000" points="144.5,-150.2111 144.5,-169.2111 211.5,-169.2111 211.5,-150.2111 144.5,-150.2111"/>
<text text-anchor="middle" x="178" y="-157.2111" font-family="Helvetica,sans-Serif" font-size="10.00" fill="#000000">FifoWrFsm</text>
</a>
</g>
</g>
<!-- Node32&#45;&gt;Node27 -->
<g id="edge15" class="edge">
<title>Node32&#45;&gt;Node27</title>
<path fill="none" stroke="#191970" d="M222.0405,-159.7111C241.5786,-159.7111 264.1271,-159.7111 281.9463,-159.7111"/>
<polygon fill="#191970" stroke="#191970" points="221.8429,-156.2112 211.8428,-159.7111 221.8428,-163.2112 221.8429,-156.2112"/>
</g>
<!-- Node32&#45;&gt;Node35 -->
<g id="edge20" class="edge">
<title>Node32&#45;&gt;Node35</title>
<path fill="none" stroke="#191970" d="M221.6565,-147.468C242.29,-141.6815 266.3516,-134.9336 284.6694,-129.7965"/>
<polygon fill="#191970" stroke="#191970" points="220.5263,-144.1498 211.8428,-150.2202 222.4165,-150.8898 220.5263,-144.1498"/>
</g>
<!-- Node33 -->
<g id="node16" class="node">
<title>Node33</title>
<g id="a_node16"><a xlink:href="classFifoRdFsm.html" target="_top" xlink:title="FifoRdFsm">
<polygon fill="#ffffff" stroke="#000000" points="144.5,-112.2111 144.5,-131.2111 211.5,-131.2111 211.5,-112.2111 144.5,-112.2111"/>
<text text-anchor="middle" x="178" y="-119.2111" font-family="Helvetica,sans-Serif" font-size="10.00" fill="#000000">FifoRdFsm</text>
</a>
</g>
</g>
<!-- Node33&#45;&gt;Node27 -->
<g id="edge16" class="edge">
<title>Node33&#45;&gt;Node27</title>
<path fill="none" stroke="#191970" d="M221.5011,-133.9107C241.1626,-139.4246 263.9628,-145.8188 281.9463,-150.8621"/>
<polygon fill="#191970" stroke="#191970" points="222.4165,-130.5325 211.8428,-131.2021 220.5263,-137.2724 222.4165,-130.5325"/>
</g>
<!-- Node33&#45;&gt;Node35 -->
<g id="edge21" class="edge">
<title>Node33&#45;&gt;Node35</title>
<path fill="none" stroke="#191970" d="M221.9381,-121.7111C242.5086,-121.7111 266.4348,-121.7111 284.6694,-121.7111"/>
<polygon fill="#191970" stroke="#191970" points="221.8429,-118.2112 211.8428,-121.7111 221.8428,-125.2112 221.8429,-118.2112"/>
</g>
<!-- Node34 -->
<g id="node17" class="node">
<title>Node34</title>
<g id="a_node17"><a xlink:href="classSimpleDualPortRam.html" target="_top" xlink:title="SimpleDualPortRam">
<polygon fill="#ffffff" stroke="#000000" points="120.5,-74.2111 120.5,-93.2111 235.5,-93.2111 235.5,-74.2111 120.5,-74.2111"/>
<text text-anchor="middle" x="178" y="-81.2111" font-family="Helvetica,sans-Serif" font-size="10.00" fill="#000000">SimpleDualPortRam</text>
</a>
</g>
</g>
<!-- Node34&#45;&gt;Node27 -->
<g id="edge17" class="edge">
<title>Node34&#45;&gt;Node27</title>
<path fill="none" stroke="#191970" d="M229.1786,-97.0233C232.9464,-98.7135 236.5986,-100.6027 240,-102.7111 259.7738,-114.968 257.3493,-126.8048 276,-140.7111 280.6808,-144.2012 286.0982,-147.3655 291.3347,-150.0667"/>
<polygon fill="#191970" stroke="#191970" points="230.2369,-93.6772 219.6519,-93.2202 227.6415,-100.1784 230.2369,-93.6772"/>
</g>
<!-- Node34&#45;&gt;Node35 -->
<g id="edge22" class="edge">
<title>Node34&#45;&gt;Node35</title>
<path fill="none" stroke="#191970" d="M222.0012,-96.0509C242.6127,-101.8313 266.5816,-108.5532 284.8157,-113.6668"/>
<polygon fill="#191970" stroke="#191970" points="222.766,-92.6305 212.1924,-93.3001 220.8758,-99.3704 222.766,-92.6305"/>
</g>
<!-- Node35&#45;&gt;Node23 -->
<g id="edge19" class="edge">
<title>Node35&#45;&gt;Node23</title>
<path fill="none" stroke="#191970" d="M351.672,-110.2896C372.8367,-103.9568 398.4912,-96.2807 416.7775,-90.8092"/>
<polygon fill="#191970" stroke="#191970" points="350.5783,-106.9634 342.0013,-113.1832 352.5849,-113.6697 350.5783,-106.9634"/>
</g>
</g>
</svg>
        <g id="navigator" transform="translate(0 0)" fill="#404254">
                <rect fill="#f2f5e9" fill-opacity="0.5" stroke="#606060" stroke-width=".5" x="0" y="0" width="60" height="60"/>
                <use id="zoomplus" xlink:href="#zoomPlus" x="17" y="9" onmousedown="handleZoom(evt,'in')"/>
                <use id="zoomminus" xlink:href="#zoomMin" x="42" y="9" onmousedown="handleZoom(evt,'out')"/>
                <use id="reset" xlink:href="#resetDef" x="30" y="36" onmousedown="handleReset()"/>
                <g id="arrowUp" xlink:href="#dirArrow" transform="translate(30 24)" onmousedown="handlePan(0,-1)">
                  <use xlink:href="#rim" fill="#404040">
                        <set attributeName="fill" to="#808080" begin="arrowUp.mouseover" end="arrowUp.mouseout"/>
                  </use>
                  <path fill="none" stroke="white" stroke-width="1.5" d="M0,-3.0v7 M-2.5,-0.5L0,-3.0L2.5,-0.5"/>
                </g>
                <g id="arrowRight" xlink:href="#dirArrow" transform="rotate(90) translate(36 -43)" onmousedown="handlePan(1,0)">
                  <use xlink:href="#rim" fill="#404040">
                        <set attributeName="fill" to="#808080" begin="arrowRight.mouseover" end="arrowRight.mouseout"/>
                  </use>
                  <path fill="none" stroke="white" stroke-width="1.5" d="M0,-3.0v7 M-2.5,-0.5L0,-3.0L2.5,-0.5"/>
                </g>
                <g id="arrowDown" xlink:href="#dirArrow" transform="rotate(180) translate(-30 -48)" onmousedown="handlePan(0,1)">
                  <use xlink:href="#rim" fill="#404040">
                        <set attributeName="fill" to="#808080" begin="arrowDown.mouseover" end="arrowDown.mouseout"/>
                  </use>
                  <path fill="none" stroke="white" stroke-width="1.5" d="M0,-3.0v7 M-2.5,-0.5L0,-3.0L2.5,-0.5"/>
                </g>
                <g id="arrowLeft" xlink:href="#dirArrow" transform="rotate(270) translate(-36 17)" onmousedown="handlePan(-1,0)">
                  <use xlink:href="#rim" fill="#404040">
                        <set attributeName="fill" to="#808080" begin="arrowLeft.mouseover" end="arrowLeft.mouseout"/>
                  </use>
                  <path fill="none" stroke="white" stroke-width="1.5" d="M0,-3.0v7 M-2.5,-0.5L0,-3.0L2.5,-0.5"/>
                </g>
        </g>
        <svg viewBox="0 0 15 15" width="100%" height="30px" preserveAspectRatio="xMaxYMin meet">
         <g id="arrow_out" transform="scale(0.3 0.3)">
          <a xlink:href="classSsiPrbsTxOld__coll__graph_org.svg" target="_base">
           <rect id="button" ry="5" rx="5" y="6" x="6" height="38" width="38"
                fill="#f2f5e9" fill-opacity="0.5" stroke="#606060" stroke-width="1.0"/>
           <path id="arrow"
             d="M 11.500037,31.436501 C 11.940474,20.09759 22.043105,11.32322 32.158766,21.979434 L 37.068811,17.246167 C 37.068811,17.246167 37.088388,32 37.088388,32 L 22.160133,31.978069 C 22.160133,31.978069 26.997745,27.140456 26.997745,27.140456 C 18.528582,18.264221 13.291696,25.230495 11.500037,31.436501 z"
             style="fill:#404040;"/>
          </a>
         </g>
        </svg>
</svg>
