<?xml version="1.0" encoding="UTF-8" standalone="no"?>
<!DOCTYPE svg PUBLIC "-//W3C//DTD SVG 1.1//EN"
 "http://www.w3.org/Graphics/SVG/1.1/DTD/svg11.dtd">
<!-- Generated by graphviz version 2.40.1 (20161225.0304)
 -->
<!-- Title: TrueDualPortRamXpm Pages: 1 -->
<!--zoomable 332 -->
<svg id="main" version="1.1" xmlns="http://www.w3.org/2000/svg" xmlns:xlink="http://www.w3.org/1999/xlink" xml:space="preserve" onload="init(evt)">
<style type="text/css"><![CDATA[
.edge:hover path { stroke: red; }
.edge:hover polygon { stroke: red; fill: red; }
]]></style>
<script type="text/javascript"><![CDATA[
var edges = document.getElementsByTagName('g');
if (edges && edges.length) {
  for (var i=0;i<edges.length;i++) {
    if (edges[i].id.substr(0,4)=='edge') {
      edges[i].setAttribute('class','edge');
    }
  }
}
]]></script>
        <defs>
                <circle id="rim" cx="0" cy="0" r="7"/>
                <circle id="rim2" cx="0" cy="0" r="3.5"/>
                <g id="zoomPlus">
                        <use xlink:href="#rim" fill="#404040">
                                <set attributeName="fill" to="#808080" begin="zoomplus.mouseover" end="zoomplus.mouseout"/>
                        </use>
                        <path d="M-4,0h8M0,-4v8" fill="none" stroke="white" stroke-width="1.5" pointer-events="none"/>
                </g>
                <g id="zoomMin">
                        <use xlink:href="#rim" fill="#404040">
                                <set attributeName="fill" to="#808080" begin="zoomminus.mouseover" end="zoomminus.mouseout"/>
                        </use>
                        <path d="M-4,0h8" fill="none" stroke="white" stroke-width="1.5" pointer-events="none"/>
                </g>
                <g id="dirArrow">
                        <path fill="none" stroke="white" stroke-width="1.5" d="M0,-3.0v7 M-2.5,-0.5L0,-3.0L2.5,-0.5"/>
                </g>
               <g id="resetDef">
                       <use xlink:href="#rim2" fill="#404040">
                               <set attributeName="fill" to="#808080" begin="reset.mouseover" end="reset.mouseout"/>
                       </use>
               </g>
        </defs>

<script type="text/javascript">
var viewWidth = 976;
var viewHeight = 332;
var sectionId = 'dynsection-0';
</script>
<script xlink:href="svgpan.js"/>
<svg id="graph" class="graph">
<g id="viewport">
<title>TrueDualPortRamXpm</title>
<polygon fill="#ffffff" stroke="transparent" points="-4,4 -4,-328 972,-328 972,4 -4,4"/>
<!-- Node0 -->
<g id="node1" class="node">
<title>Node0</title>
<polygon fill="#bfbfbf" stroke="#000000" points="0,-133.5 0,-152.5 124,-152.5 124,-133.5 0,-133.5"/>
<text text-anchor="middle" x="62" y="-140.5" font-family="Helvetica,sans-Serif" font-size="10.00" fill="#000000">TrueDualPortRamXpm</text>
</g>
<!-- Node1 -->
<g id="node2" class="node">
<title>Node1</title>
<g id="a_node2"><a xlink:href="classAxiDualPortRam.html" target="_top" xlink:title="AxiDualPortRam">
<polygon fill="#ffffff" stroke="#000000" points="173.5,-152.5 173.5,-171.5 270.5,-171.5 270.5,-152.5 173.5,-152.5"/>
<text text-anchor="middle" x="222" y="-159.5" font-family="Helvetica,sans-Serif" font-size="10.00" fill="#000000">AxiDualPortRam</text>
</a>
</g>
</g>
<!-- Node0&#45;&gt;Node1 -->
<g id="edge1" class="edge">
<title>Node0&#45;&gt;Node1</title>
<path fill="none" stroke="#191970" d="M134.3672,-151.5936C147.6117,-153.1664 161.1378,-154.7726 173.4756,-156.2377"/>
<polygon fill="#191970" stroke="#191970" points="134.6613,-148.104 124.3183,-150.4003 133.8358,-155.0552 134.6613,-148.104"/>
</g>
<!-- Node16 -->
<g id="node17" class="node">
<title>Node16</title>
<g id="a_node17"><a xlink:href="classAxiLiteSequencerRam.html" target="_top" xlink:title="AxiLiteSequencerRam">
<polygon fill="#ffffff" stroke="#000000" points="160,-114.5 160,-133.5 284,-133.5 284,-114.5 160,-114.5"/>
<text text-anchor="middle" x="222" y="-121.5" font-family="Helvetica,sans-Serif" font-size="10.00" fill="#000000">AxiLiteSequencerRam</text>
</a>
</g>
</g>
<!-- Node0&#45;&gt;Node16 -->
<g id="edge16" class="edge">
<title>Node0&#45;&gt;Node16</title>
<path fill="none" stroke="#191970" d="M134.2667,-134.4183C142.8078,-133.4041 151.4676,-132.3757 159.8518,-131.3801"/>
<polygon fill="#191970" stroke="#191970" points="133.8358,-130.9448 124.3183,-135.5997 134.6613,-137.896 133.8358,-130.9448"/>
</g>
<!-- Node2 -->
<g id="node3" class="node">
<title>Node2</title>
<g id="a_node3"><a xlink:href="classAxiLiteAsyncTb.html" target="_top" xlink:title="AxiLiteAsyncTb">
<polygon fill="#ffffff" stroke="#000000" points="353,-304.5 353,-323.5 445,-323.5 445,-304.5 353,-304.5"/>
<text text-anchor="middle" x="399" y="-311.5" font-family="Helvetica,sans-Serif" font-size="10.00" fill="#000000">AxiLiteAsyncTb</text>
</a>
</g>
</g>
<!-- Node1&#45;&gt;Node2 -->
<g id="edge2" class="edge">
<title>Node1&#45;&gt;Node2</title>
<path fill="none" stroke="#191970" d="M230.6047,-181.0151C244.8507,-210.2549 276.1762,-265.9172 320,-295 329.7555,-301.4741 341.4895,-305.7473 352.8936,-308.5664"/>
<polygon fill="#191970" stroke="#191970" points="233.7183,-179.4116 226.2855,-171.8614 227.3876,-182.3988 233.7183,-179.4116"/>
</g>
<!-- Node3 -->
<g id="node4" class="node">
<title>Node3</title>
<g id="a_node4"><a xlink:href="classAxiLiteRamSyncStatusVector.html" target="_top" xlink:title="AxiLiteRamSyncStatusVector">
<polygon fill="#ffffff" stroke="#000000" points="320,-266.5 320,-285.5 478,-285.5 478,-266.5 320,-266.5"/>
<text text-anchor="middle" x="399" y="-273.5" font-family="Helvetica,sans-Serif" font-size="10.00" fill="#000000">AxiLiteRamSyncStatusVector</text>
</a>
</g>
</g>
<!-- Node1&#45;&gt;Node3 -->
<g id="edge3" class="edge">
<title>Node1&#45;&gt;Node3</title>
<path fill="none" stroke="#191970" d="M235.116,-179.5273C252.2279,-201.1119 284.2349,-237.3247 320,-257 327.045,-260.8756 334.8692,-263.9673 342.7764,-266.432"/>
<polygon fill="#191970" stroke="#191970" points="237.8083,-177.2873 228.9205,-171.5202 232.272,-181.571 237.8083,-177.2873"/>
</g>
<!-- Node9 -->
<g id="node10" class="node">
<title>Node9</title>
<g id="a_node10"><a xlink:href="classAxiLiteSrpV0Tb.html" target="_top" xlink:title="AxiLiteSrpV0Tb">
<polygon fill="#ffffff" stroke="#000000" points="353.5,-228.5 353.5,-247.5 444.5,-247.5 444.5,-228.5 353.5,-228.5"/>
<text text-anchor="middle" x="399" y="-235.5" font-family="Helvetica,sans-Serif" font-size="10.00" fill="#000000">AxiLiteSrpV0Tb</text>
</a>
</g>
</g>
<!-- Node1&#45;&gt;Node9 -->
<g id="edge9" class="edge">
<title>Node1&#45;&gt;Node9</title>
<path fill="none" stroke="#191970" d="M243.9851,-177.2989C263.2475,-190.0762 292.4016,-207.9316 320,-219 330.4741,-223.2007 342.1168,-226.6314 353.1748,-229.3632"/>
<polygon fill="#191970" stroke="#191970" points="245.8704,-174.3488 235.6231,-171.6575 241.9555,-180.1517 245.8704,-174.3488"/>
</g>
<!-- Node10 -->
<g id="node11" class="node">
<title>Node10</title>
<g id="a_node11"><a xlink:href="classAxiLiteWriteFilterTb.html" target="_top" xlink:title="AxiLiteWriteFilterTb">
<polygon fill="#ffffff" stroke="#000000" points="343,-190.5 343,-209.5 455,-209.5 455,-190.5 343,-190.5"/>
<text text-anchor="middle" x="399" y="-197.5" font-family="Helvetica,sans-Serif" font-size="10.00" fill="#000000">AxiLiteWriteFilterTb</text>
</a>
</g>
</g>
<!-- Node1&#45;&gt;Node10 -->
<g id="edge10" class="edge">
<title>Node1&#45;&gt;Node10</title>
<path fill="none" stroke="#191970" d="M276.7423,-173.7526C301.77,-179.1258 331.0348,-185.4086 354.6566,-190.4799"/>
<polygon fill="#191970" stroke="#191970" points="277.1765,-170.2661 266.6646,-171.589 275.7071,-177.1102 277.1765,-170.2661"/>
</g>
<!-- Node11 -->
<g id="node12" class="node">
<title>Node11</title>
<g id="a_node12"><a xlink:href="classAxiStreamDmaRingWrite.html" target="_top" xlink:title="AxiStreamDmaRingWrite">
<polygon fill="#ffffff" stroke="#000000" points="330,-152.5 330,-171.5 468,-171.5 468,-152.5 330,-152.5"/>
<text text-anchor="middle" x="399" y="-159.5" font-family="Helvetica,sans-Serif" font-size="10.00" fill="#000000">AxiStreamDmaRingWrite</text>
</a>
</g>
</g>
<!-- Node1&#45;&gt;Node11 -->
<g id="edge11" class="edge">
<title>Node1&#45;&gt;Node11</title>
<path fill="none" stroke="#191970" d="M280.9027,-162C296.5667,-162 313.6287,-162 329.7889,-162"/>
<polygon fill="#191970" stroke="#191970" points="280.8346,-158.5001 270.8346,-162 280.8345,-165.5001 280.8346,-158.5001"/>
</g>
<!-- Node12 -->
<g id="node13" class="node">
<title>Node12</title>
<g id="a_node13"><a xlink:href="classAxiStreamMonAxiL.html" target="_top" xlink:title="AxiStreamMonAxiL">
<polygon fill="#ffffff" stroke="#000000" points="344.5,-114.5 344.5,-133.5 453.5,-133.5 453.5,-114.5 344.5,-114.5"/>
<text text-anchor="middle" x="399" y="-121.5" font-family="Helvetica,sans-Serif" font-size="10.00" fill="#000000">AxiStreamMonAxiL</text>
</a>
</g>
</g>
<!-- Node1&#45;&gt;Node12 -->
<g id="edge12" class="edge">
<title>Node1&#45;&gt;Node12</title>
<path fill="none" stroke="#191970" d="M276.7423,-150.2474C301.77,-144.8742 331.0348,-138.5914 354.6566,-133.5201"/>
<polygon fill="#191970" stroke="#191970" points="275.7071,-146.8898 266.6646,-152.411 277.1765,-153.7339 275.7071,-146.8898"/>
</g>
<!-- Node13 -->
<g id="node14" class="node">
<title>Node13</title>
<g id="a_node14"><a xlink:href="classClinkTop.html" target="_top" xlink:title="ClinkTop">
<polygon fill="#ffffff" stroke="#000000" points="370,-76.5 370,-95.5 428,-95.5 428,-76.5 370,-76.5"/>
<text text-anchor="middle" x="399" y="-83.5" font-family="Helvetica,sans-Serif" font-size="10.00" fill="#000000">ClinkTop</text>
</a>
</g>
</g>
<!-- Node1&#45;&gt;Node13 -->
<g id="edge13" class="edge">
<title>Node1&#45;&gt;Node13</title>
<path fill="none" stroke="#191970" d="M273.1786,-148.6878C276.9464,-146.9976 280.5986,-145.1084 284,-143 303.7738,-130.7431 299.8596,-116.6448 320,-105 335.143,-96.2446 354.1511,-91.5133 369.7272,-88.9618"/>
<polygon fill="#191970" stroke="#191970" points="271.6415,-145.5328 263.6519,-152.491 274.2369,-152.0339 271.6415,-145.5328"/>
</g>
<!-- Node14 -->
<g id="node15" class="node">
<title>Node14</title>
<g id="a_node15"><a xlink:href="classRawEthFramerWrapper.html" target="_top" xlink:title="RawEthFramerWrapper">
<polygon fill="#ffffff" stroke="#000000" points="335,-38.5 335,-57.5 463,-57.5 463,-38.5 335,-38.5"/>
<text text-anchor="middle" x="399" y="-45.5" font-family="Helvetica,sans-Serif" font-size="10.00" fill="#000000">RawEthFramerWrapper</text>
</a>
</g>
</g>
<!-- Node1&#45;&gt;Node14 -->
<g id="edge14" class="edge">
<title>Node1&#45;&gt;Node14</title>
<path fill="none" stroke="#191970" d="M277.6666,-147.6755C279.8996,-146.2612 282.0253,-144.7073 284,-143 312.2736,-118.5554 290.99,-90.5661 320,-67 324.7081,-63.1754 330.0634,-60.0996 335.7157,-57.6289"/>
<polygon fill="#191970" stroke="#191970" points="275.8143,-144.6958 268.6135,-152.4674 279.0891,-150.8825 275.8143,-144.6958"/>
</g>
<!-- Node15 -->
<g id="node16" class="node">
<title>Node15</title>
<g id="a_node16"><a xlink:href="classUartAxiLiteMasterTb.html" target="_top" xlink:title="UartAxiLiteMasterTb">
<polygon fill="#ffffff" stroke="#000000" points="341,-.5 341,-19.5 457,-19.5 457,-.5 341,-.5"/>
<text text-anchor="middle" x="399" y="-7.5" font-family="Helvetica,sans-Serif" font-size="10.00" fill="#000000">UartAxiLiteMasterTb</text>
</a>
</g>
</g>
<!-- Node1&#45;&gt;Node15 -->
<g id="edge15" class="edge">
<title>Node1&#45;&gt;Node15</title>
<path fill="none" stroke="#191970" d="M279.2906,-147.0444C280.9535,-145.8018 282.531,-144.4565 284,-143 321.7303,-105.5896 281.1403,-65.2358 320,-29 325.8807,-23.5164 333.0591,-19.5328 340.6658,-16.6531"/>
<polygon fill="#191970" stroke="#191970" points="277.116,-144.2693 270.3716,-152.4403 280.7394,-150.2586 277.116,-144.2693"/>
</g>
<!-- Node4 -->
<g id="node5" class="node">
<title>Node4</title>
<g id="a_node5"><a xlink:href="classPgpEthAxiL.html" target="_top" xlink:title="PgpEthAxiL">
<polygon fill="#ffffff" stroke="#000000" points="514,-266.5 514,-285.5 585,-285.5 585,-266.5 514,-266.5"/>
<text text-anchor="middle" x="549.5" y="-273.5" font-family="Helvetica,sans-Serif" font-size="10.00" fill="#000000">PgpEthAxiL</text>
</a>
</g>
</g>
<!-- Node3&#45;&gt;Node4 -->
<g id="edge4" class="edge">
<title>Node3&#45;&gt;Node4</title>
<path fill="none" stroke="#191970" d="M488.3799,-276C497.303,-276 505.9511,-276 513.7978,-276"/>
<polygon fill="#191970" stroke="#191970" points="488.2167,-272.5001 478.2166,-276 488.2166,-279.5001 488.2167,-272.5001"/>
</g>
<!-- Node5 -->
<g id="node6" class="node">
<title>Node5</title>
<g id="a_node6"><a xlink:href="classPgpEthCore.html" target="_top" xlink:title="PgpEthCore">
<polygon fill="#ffffff" stroke="#000000" points="621,-266.5 621,-285.5 694,-285.5 694,-266.5 621,-266.5"/>
<text text-anchor="middle" x="657.5" y="-273.5" font-family="Helvetica,sans-Serif" font-size="10.00" fill="#000000">PgpEthCore</text>
</a>
</g>
</g>
<!-- Node4&#45;&gt;Node5 -->
<g id="edge5" class="edge">
<title>Node4&#45;&gt;Node5</title>
<path fill="none" stroke="#191970" d="M595.3263,-276C603.8187,-276 612.5873,-276 620.7654,-276"/>
<polygon fill="#191970" stroke="#191970" points="595.1626,-272.5001 585.1626,-276 595.1625,-279.5001 595.1626,-272.5001"/>
</g>
<!-- Node6 -->
<g id="node7" class="node">
<title>Node6</title>
<g id="a_node7"><a xlink:href="classPgpEthCaui4Gty.html" target="_top" xlink:title="PgpEthCaui4Gty">
<polygon fill="#ffffff" stroke="#000000" points="730,-285.5 730,-304.5 825,-304.5 825,-285.5 730,-285.5"/>
<text text-anchor="middle" x="777.5" y="-292.5" font-family="Helvetica,sans-Serif" font-size="10.00" fill="#000000">PgpEthCaui4Gty</text>
</a>
</g>
</g>
<!-- Node5&#45;&gt;Node6 -->
<g id="edge6" class="edge">
<title>Node5&#45;&gt;Node6</title>
<path fill="none" stroke="#191970" d="M704.2385,-283.4003C712.6943,-284.7391 721.52,-286.1365 729.9974,-287.4788"/>
<polygon fill="#191970" stroke="#191970" points="704.5803,-279.9109 694.156,-281.8039 703.4856,-286.8247 704.5803,-279.9109"/>
</g>
<!-- Node8 -->
<g id="node9" class="node">
<title>Node8</title>
<g id="a_node9"><a xlink:href="classPgpEthCoreTb.html" target="_top" xlink:title="PgpEthCoreTb">
<polygon fill="#ffffff" stroke="#000000" points="735,-247.5 735,-266.5 820,-266.5 820,-247.5 735,-247.5"/>
<text text-anchor="middle" x="777.5" y="-254.5" font-family="Helvetica,sans-Serif" font-size="10.00" fill="#000000">PgpEthCoreTb</text>
</a>
</g>
</g>
<!-- Node5&#45;&gt;Node8 -->
<g id="edge8" class="edge">
<title>Node5&#45;&gt;Node8</title>
<path fill="none" stroke="#191970" d="M704.0414,-268.6309C714.1515,-267.0302 724.7992,-265.3443 734.7542,-263.7681"/>
<polygon fill="#191970" stroke="#191970" points="703.4856,-265.1753 694.156,-270.1961 704.5803,-272.0891 703.4856,-265.1753"/>
</g>
<!-- Node7 -->
<g id="node8" class="node">
<title>Node7</title>
<g id="a_node8"><a xlink:href="classPgpEthCaui4GtyTb.html" target="_top" xlink:title="PgpEthCaui4GtyTb">
<polygon fill="#ffffff" stroke="#000000" points="861,-285.5 861,-304.5 968,-304.5 968,-285.5 861,-285.5"/>
<text text-anchor="middle" x="914.5" y="-292.5" font-family="Helvetica,sans-Serif" font-size="10.00" fill="#000000">PgpEthCaui4GtyTb</text>
</a>
</g>
</g>
<!-- Node6&#45;&gt;Node7 -->
<g id="edge7" class="edge">
<title>Node6&#45;&gt;Node7</title>
<path fill="none" stroke="#191970" d="M835.27,-295C843.786,-295 852.5288,-295 860.9544,-295"/>
<polygon fill="#191970" stroke="#191970" points="835.0315,-291.5001 825.0315,-295 835.0314,-298.5001 835.0315,-291.5001"/>
</g>
</g>
</svg>
        <g id="navigator" transform="translate(0 0)" fill="#404254">
                <rect fill="#f2f5e9" fill-opacity="0.5" stroke="#606060" stroke-width=".5" x="0" y="0" width="60" height="60"/>
                <use id="zoomplus" xlink:href="#zoomPlus" x="17" y="9" onmousedown="handleZoom(evt,'in')"/>
                <use id="zoomminus" xlink:href="#zoomMin" x="42" y="9" onmousedown="handleZoom(evt,'out')"/>
                <use id="reset" xlink:href="#resetDef" x="30" y="36" onmousedown="handleReset()"/>
                <g id="arrowUp" xlink:href="#dirArrow" transform="translate(30 24)" onmousedown="handlePan(0,-1)">
                  <use xlink:href="#rim" fill="#404040">
                        <set attributeName="fill" to="#808080" begin="arrowUp.mouseover" end="arrowUp.mouseout"/>
                  </use>
                  <path fill="none" stroke="white" stroke-width="1.5" d="M0,-3.0v7 M-2.5,-0.5L0,-3.0L2.5,-0.5"/>
                </g>
                <g id="arrowRight" xlink:href="#dirArrow" transform="rotate(90) translate(36 -43)" onmousedown="handlePan(1,0)">
                  <use xlink:href="#rim" fill="#404040">
                        <set attributeName="fill" to="#808080" begin="arrowRight.mouseover" end="arrowRight.mouseout"/>
                  </use>
                  <path fill="none" stroke="white" stroke-width="1.5" d="M0,-3.0v7 M-2.5,-0.5L0,-3.0L2.5,-0.5"/>
                </g>
                <g id="arrowDown" xlink:href="#dirArrow" transform="rotate(180) translate(-30 -48)" onmousedown="handlePan(0,1)">
                  <use xlink:href="#rim" fill="#404040">
                        <set attributeName="fill" to="#808080" begin="arrowDown.mouseover" end="arrowDown.mouseout"/>
                  </use>
                  <path fill="none" stroke="white" stroke-width="1.5" d="M0,-3.0v7 M-2.5,-0.5L0,-3.0L2.5,-0.5"/>
                </g>
                <g id="arrowLeft" xlink:href="#dirArrow" transform="rotate(270) translate(-36 17)" onmousedown="handlePan(-1,0)">
                  <use xlink:href="#rim" fill="#404040">
                        <set attributeName="fill" to="#808080" begin="arrowLeft.mouseover" end="arrowLeft.mouseout"/>
                  </use>
                  <path fill="none" stroke="white" stroke-width="1.5" d="M0,-3.0v7 M-2.5,-0.5L0,-3.0L2.5,-0.5"/>
                </g>
        </g>
        <svg viewBox="0 0 15 15" width="100%" height="30px" preserveAspectRatio="xMaxYMin meet">
         <g id="arrow_out" transform="scale(0.3 0.3)">
          <a xlink:href="classTrueDualPortRamXpm__inherit__graph_org.svg" target="_base">
           <rect id="button" ry="5" rx="5" y="6" x="6" height="38" width="38"
                fill="#f2f5e9" fill-opacity="0.5" stroke="#606060" stroke-width="1.0"/>
           <path id="arrow"
             d="M 11.500037,31.436501 C 11.940474,20.09759 22.043105,11.32322 32.158766,21.979434 L 37.068811,17.246167 C 37.068811,17.246167 37.088388,32 37.088388,32 L 22.160133,31.978069 C 22.160133,31.978069 26.997745,27.140456 26.997745,27.140456 C 18.528582,18.264221 13.291696,25.230495 11.500037,31.436501 z"
             style="fill:#404040;"/>
          </a>
         </g>
        </svg>
</svg>
