<?xml version="1.0" encoding="UTF-8" standalone="no"?>
<!DOCTYPE svg PUBLIC "-//W3C//DTD SVG 1.1//EN"
 "http://www.w3.org/Graphics/SVG/1.1/DTD/svg11.dtd">
<!-- Generated by graphviz version 2.43.0 (0)
 -->
<!-- Title: EthMacRxImportXlgmii Pages: 1 -->
<!--zoomable 636 -->
<svg id="main" version="1.1" xmlns="http://www.w3.org/2000/svg" xmlns:xlink="http://www.w3.org/1999/xlink" xml:space="preserve" onload="init(evt)">
<style type="text/css"><![CDATA[
.edge:hover path { stroke: red; }
.edge:hover polygon { stroke: red; fill: red; }
]]></style>
<script type="text/javascript"><![CDATA[
var edges = document.getElementsByTagName('g');
if (edges && edges.length) {
  for (var i=0;i<edges.length;i++) {
    if (edges[i].id.substr(0,4)=='edge') {
      edges[i].setAttribute('class','edge');
    }
  }
}
]]></script>
        <defs>
                <circle id="rim" cx="0" cy="0" r="7"/>
                <circle id="rim2" cx="0" cy="0" r="3.5"/>
                <g id="zoomPlus">
                        <use xlink:href="#rim" fill="#404040">
                                <set attributeName="fill" to="#808080" begin="zoomplus.mouseover" end="zoomplus.mouseout"/>
                        </use>
                        <path d="M-4,0h8M0,-4v8" fill="none" stroke="white" stroke-width="1.5" pointer-events="none"/>
                </g>
                <g id="zoomMin">
                        <use xlink:href="#rim" fill="#404040">
                                <set attributeName="fill" to="#808080" begin="zoomminus.mouseover" end="zoomminus.mouseout"/>
                        </use>
                        <path d="M-4,0h8" fill="none" stroke="white" stroke-width="1.5" pointer-events="none"/>
                </g>
                <g id="dirArrow">
                        <path fill="none" stroke="white" stroke-width="1.5" d="M0,-3.0v7 M-2.5,-0.5L0,-3.0L2.5,-0.5"/>
                </g>
               <g id="resetDef">
                       <use xlink:href="#rim2" fill="#404040">
                               <set attributeName="fill" to="#808080" begin="reset.mouseover" end="reset.mouseout"/>
                       </use>
               </g>
        </defs>

<script type="text/javascript">
var viewWidth = 1053;
var viewHeight = 636;
var sectionId = 'dynsection-0';
</script>
<script xlink:href="svgpan.js"/>
<svg id="graph" class="graph">
<g id="viewport">
<title>EthMacRxImportXlgmii</title>
<polygon fill="white" stroke="transparent" points="-4,4 -4,-632 1049,-632 1049,4 -4,4"/>
<!-- Node1 -->
<g id="node1" class="node">
<title>Node1</title>
<g id="a_node1"><a xlink:title=" ">
<polygon fill="#bfbfbf" stroke="black" points="0,-304.5 0,-323.5 129,-323.5 129,-304.5 0,-304.5"/>
<text text-anchor="middle" x="64.5" y="-311.5" font-family="Helvetica,sans-Serif" font-size="10.00">EthMacRxImportXlgmii</text>
</a>
</g>
</g>
<!-- Node2 -->
<g id="node2" class="node">
<title>Node2</title>
<g id="a_node2"><a xlink:href="classEthMacRxImport.html" target="_top" xlink:title=" ">
<polygon fill="white" stroke="black" points="165,-304.5 165,-323.5 263,-323.5 263,-304.5 165,-304.5"/>
<text text-anchor="middle" x="214" y="-311.5" font-family="Helvetica,sans-Serif" font-size="10.00">EthMacRxImport</text>
</a>
</g>
</g>
<!-- Node1&#45;&gt;Node2 -->
<g id="edge1" class="edge">
<title>Node1&#45;&gt;Node2</title>
<path fill="none" stroke="midnightblue" d="M139.38,-314C147.95,-314 156.53,-314 164.63,-314"/>
<polygon fill="midnightblue" stroke="midnightblue" points="139.34,-310.5 129.34,-314 139.34,-317.5 139.34,-310.5"/>
</g>
<!-- Node3 -->
<g id="node3" class="node">
<title>Node3</title>
<g id="a_node3"><a xlink:href="classEthMacRx.html" target="_top" xlink:title=" ">
<polygon fill="white" stroke="black" points="299,-304.5 299,-323.5 364,-323.5 364,-304.5 299,-304.5"/>
<text text-anchor="middle" x="331.5" y="-311.5" font-family="Helvetica,sans-Serif" font-size="10.00">EthMacRx</text>
</a>
</g>
</g>
<!-- Node2&#45;&gt;Node3 -->
<g id="edge2" class="edge">
<title>Node2&#45;&gt;Node3</title>
<path fill="none" stroke="midnightblue" d="M273.52,-314C282.24,-314 290.94,-314 298.82,-314"/>
<polygon fill="midnightblue" stroke="midnightblue" points="273.31,-310.5 263.31,-314 273.31,-317.5 273.31,-310.5"/>
</g>
<!-- Node4 -->
<g id="node4" class="node">
<title>Node4</title>
<g id="a_node4"><a xlink:href="classEthMacTop.html" target="_top" xlink:title=" ">
<polygon fill="white" stroke="black" points="400,-304.5 400,-323.5 469,-323.5 469,-304.5 400,-304.5"/>
<text text-anchor="middle" x="434.5" y="-311.5" font-family="Helvetica,sans-Serif" font-size="10.00">EthMacTop</text>
</a>
</g>
</g>
<!-- Node3&#45;&gt;Node4 -->
<g id="edge3" class="edge">
<title>Node3&#45;&gt;Node4</title>
<path fill="none" stroke="midnightblue" d="M374.32,-314C382.82,-314 391.66,-314 399.84,-314"/>
<polygon fill="midnightblue" stroke="midnightblue" points="374.18,-310.5 364.18,-314 374.18,-317.5 374.18,-310.5"/>
</g>
<!-- Node5 -->
<g id="node5" class="node">
<title>Node5</title>
<g id="a_node5"><a xlink:href="classEthMacPauseTb.html" target="_top" xlink:title=" ">
<polygon fill="white" stroke="black" points="525,-608.5 525,-627.5 618,-627.5 618,-608.5 525,-608.5"/>
<text text-anchor="middle" x="571.5" y="-615.5" font-family="Helvetica,sans-Serif" font-size="10.00">EthMacPauseTb</text>
</a>
</g>
</g>
<!-- Node4&#45;&gt;Node5 -->
<g id="edge4" class="edge">
<title>Node4&#45;&gt;Node5</title>
<path fill="none" stroke="midnightblue" d="M437.75,-333.78C444.73,-391.85 467.85,-560.21 505,-599 510.41,-604.64 517.38,-608.64 524.75,-611.46"/>
<polygon fill="midnightblue" stroke="midnightblue" points="441.21,-333.23 436.57,-323.71 434.26,-334.04 441.21,-333.23"/>
</g>
<!-- Node6 -->
<g id="node6" class="node">
<title>Node6</title>
<g id="a_node6"><a xlink:href="classEthMacTb.html" target="_top" xlink:title=" ">
<polygon fill="white" stroke="black" points="539,-570.5 539,-589.5 604,-589.5 604,-570.5 539,-570.5"/>
<text text-anchor="middle" x="571.5" y="-577.5" font-family="Helvetica,sans-Serif" font-size="10.00">EthMacTb</text>
</a>
</g>
</g>
<!-- Node4&#45;&gt;Node6 -->
<g id="edge5" class="edge">
<title>Node4&#45;&gt;Node6</title>
<path fill="none" stroke="midnightblue" d="M435.01,-333.88C435,-380.39 441.66,-497.15 505,-561 513.92,-569.99 526.83,-574.79 538.83,-577.32"/>
<polygon fill="midnightblue" stroke="midnightblue" points="438.52,-333.69 435.13,-323.65 431.52,-333.61 438.52,-333.69"/>
</g>
<!-- Node7 -->
<g id="node7" class="node">
<title>Node7</title>
<g id="a_node7"><a xlink:href="classGigEthGth7.html" target="_top" xlink:title=" ">
<polygon fill="white" stroke="black" points="535.5,-532.5 535.5,-551.5 607.5,-551.5 607.5,-532.5 535.5,-532.5"/>
<text text-anchor="middle" x="571.5" y="-539.5" font-family="Helvetica,sans-Serif" font-size="10.00">GigEthGth7</text>
</a>
</g>
</g>
<!-- Node4&#45;&gt;Node7 -->
<g id="edge6" class="edge">
<title>Node4&#45;&gt;Node7</title>
<path fill="none" stroke="midnightblue" d="M436.21,-333.59C438.77,-374.74 450.59,-470.66 505,-523 513.19,-530.88 524.45,-535.52 535.32,-538.25"/>
<polygon fill="midnightblue" stroke="midnightblue" points="439.7,-333.33 435.7,-323.52 432.71,-333.68 439.7,-333.33"/>
</g>
<!-- Node9 -->
<g id="node9" class="node">
<title>Node9</title>
<g id="a_node9"><a xlink:href="classGigEthGthUltraScale.html" target="_top" xlink:title=" ">
<polygon fill="white" stroke="black" points="513.5,-494.5 513.5,-513.5 629.5,-513.5 629.5,-494.5 513.5,-494.5"/>
<text text-anchor="middle" x="571.5" y="-501.5" font-family="Helvetica,sans-Serif" font-size="10.00">GigEthGthUltraScale</text>
</a>
</g>
</g>
<!-- Node4&#45;&gt;Node9 -->
<g id="edge8" class="edge">
<title>Node4&#45;&gt;Node9</title>
<path fill="none" stroke="midnightblue" d="M437.92,-333.89C443.33,-369.48 459.68,-444.15 505,-485 509.31,-488.88 514.37,-491.98 519.73,-494.44"/>
<polygon fill="midnightblue" stroke="midnightblue" points="441.37,-333.22 436.53,-323.8 434.43,-334.18 441.37,-333.22"/>
</g>
<!-- Node11 -->
<g id="node11" class="node">
<title>Node11</title>
<g id="a_node11"><a xlink:href="classGigEthGtp7.html" target="_top" xlink:title=" ">
<polygon fill="white" stroke="black" points="535.5,-456.5 535.5,-475.5 607.5,-475.5 607.5,-456.5 535.5,-456.5"/>
<text text-anchor="middle" x="571.5" y="-463.5" font-family="Helvetica,sans-Serif" font-size="10.00">GigEthGtp7</text>
</a>
</g>
</g>
<!-- Node4&#45;&gt;Node11 -->
<g id="edge10" class="edge">
<title>Node4&#45;&gt;Node11</title>
<path fill="none" stroke="midnightblue" d="M440.4,-333.49C448.71,-362.55 468.35,-417.01 505,-447 513.61,-454.05 524.73,-458.48 535.36,-461.27"/>
<polygon fill="midnightblue" stroke="midnightblue" points="443.74,-332.45 437.75,-323.71 436.98,-334.27 443.74,-332.45"/>
</g>
<!-- Node13 -->
<g id="node13" class="node">
<title>Node13</title>
<g id="a_node13"><a xlink:href="classGigEthGtx7.html" target="_top" xlink:title=" ">
<polygon fill="white" stroke="black" points="535.5,-418.5 535.5,-437.5 607.5,-437.5 607.5,-418.5 535.5,-418.5"/>
<text text-anchor="middle" x="571.5" y="-425.5" font-family="Helvetica,sans-Serif" font-size="10.00">GigEthGtx7</text>
</a>
</g>
</g>
<!-- Node4&#45;&gt;Node13 -->
<g id="edge12" class="edge">
<title>Node4&#45;&gt;Node13</title>
<path fill="none" stroke="midnightblue" d="M444.45,-332.85C455.65,-354.41 476.82,-389.27 505,-409 513.92,-415.25 524.89,-419.46 535.28,-422.29"/>
<polygon fill="midnightblue" stroke="midnightblue" points="447.49,-331.1 439.9,-323.72 441.23,-334.23 447.49,-331.1"/>
</g>
<!-- Node15 -->
<g id="node15" class="node">
<title>Node15</title>
<g id="a_node15"><a xlink:href="classGigEthGtyUltraScale.html" target="_top" xlink:title=" ">
<polygon fill="white" stroke="black" points="513.5,-380.5 513.5,-399.5 629.5,-399.5 629.5,-380.5 513.5,-380.5"/>
<text text-anchor="middle" x="571.5" y="-387.5" font-family="Helvetica,sans-Serif" font-size="10.00">GigEthGtyUltraScale</text>
</a>
</g>
</g>
<!-- Node4&#45;&gt;Node15 -->
<g id="edge14" class="edge">
<title>Node4&#45;&gt;Node15</title>
<path fill="none" stroke="midnightblue" d="M452.32,-331.15C465.59,-343.78 485.1,-360.52 505,-371 512.23,-374.81 520.32,-377.94 528.28,-380.49"/>
<polygon fill="midnightblue" stroke="midnightblue" points="454.52,-328.4 444.93,-323.9 449.62,-333.4 454.52,-328.4"/>
</g>
<!-- Node17 -->
<g id="node17" class="node">
<title>Node17</title>
<g id="a_node17"><a xlink:href="classGigEthLvdsUltraScale.html" target="_top" xlink:title=" ">
<polygon fill="white" stroke="black" points="510.5,-342.5 510.5,-361.5 632.5,-361.5 632.5,-342.5 510.5,-342.5"/>
<text text-anchor="middle" x="571.5" y="-349.5" font-family="Helvetica,sans-Serif" font-size="10.00">GigEthLvdsUltraScale</text>
</a>
</g>
</g>
<!-- Node4&#45;&gt;Node17 -->
<g id="edge16" class="edge">
<title>Node4&#45;&gt;Node17</title>
<path fill="none" stroke="midnightblue" d="M479,-326.24C497.71,-331.51 519.26,-337.58 536.74,-342.5"/>
<polygon fill="midnightblue" stroke="midnightblue" points="479.79,-322.83 469.22,-323.49 477.9,-329.57 479.79,-322.83"/>
</g>
<!-- Node21 -->
<g id="node21" class="node">
<title>Node21</title>
<g id="a_node21"><a xlink:href="classTenGigEthGth7.html" target="_top" xlink:title=" ">
<polygon fill="white" stroke="black" points="527,-304.5 527,-323.5 616,-323.5 616,-304.5 527,-304.5"/>
<text text-anchor="middle" x="571.5" y="-311.5" font-family="Helvetica,sans-Serif" font-size="10.00">TenGigEthGth7</text>
</a>
</g>
</g>
<!-- Node4&#45;&gt;Node21 -->
<g id="edge20" class="edge">
<title>Node4&#45;&gt;Node21</title>
<path fill="none" stroke="midnightblue" d="M479.4,-314C494.58,-314 511.59,-314 526.77,-314"/>
<polygon fill="midnightblue" stroke="midnightblue" points="479.22,-310.5 469.22,-314 479.22,-317.5 479.22,-310.5"/>
</g>
<!-- Node23 -->
<g id="node23" class="node">
<title>Node23</title>
<g id="a_node23"><a xlink:href="classTenGigEthGthUltraScale.html" target="_top" xlink:title=" ">
<polygon fill="white" stroke="black" points="505,-266.5 505,-285.5 638,-285.5 638,-266.5 505,-266.5"/>
<text text-anchor="middle" x="571.5" y="-273.5" font-family="Helvetica,sans-Serif" font-size="10.00">TenGigEthGthUltraScale</text>
</a>
</g>
</g>
<!-- Node4&#45;&gt;Node23 -->
<g id="edge22" class="edge">
<title>Node4&#45;&gt;Node23</title>
<path fill="none" stroke="midnightblue" d="M479,-301.76C497.71,-296.49 519.26,-290.42 536.74,-285.5"/>
<polygon fill="midnightblue" stroke="midnightblue" points="477.9,-298.43 469.22,-304.51 479.79,-305.17 477.9,-298.43"/>
</g>
<!-- Node25 -->
<g id="node25" class="node">
<title>Node25</title>
<g id="a_node25"><a xlink:href="classTenGigEthGtx7.html" target="_top" xlink:title=" ">
<polygon fill="white" stroke="black" points="527,-228.5 527,-247.5 616,-247.5 616,-228.5 527,-228.5"/>
<text text-anchor="middle" x="571.5" y="-235.5" font-family="Helvetica,sans-Serif" font-size="10.00">TenGigEthGtx7</text>
</a>
</g>
</g>
<!-- Node4&#45;&gt;Node25 -->
<g id="edge24" class="edge">
<title>Node4&#45;&gt;Node25</title>
<path fill="none" stroke="midnightblue" d="M452.32,-296.85C465.59,-284.22 485.1,-267.48 505,-257 512.23,-253.19 520.32,-250.06 528.28,-247.51"/>
<polygon fill="midnightblue" stroke="midnightblue" points="449.62,-294.6 444.93,-304.1 454.52,-299.6 449.62,-294.6"/>
</g>
<!-- Node27 -->
<g id="node27" class="node">
<title>Node27</title>
<g id="a_node27"><a xlink:href="classTenGigEthGtyUltraScale.html" target="_top" xlink:title=" ">
<polygon fill="white" stroke="black" points="505,-190.5 505,-209.5 638,-209.5 638,-190.5 505,-190.5"/>
<text text-anchor="middle" x="571.5" y="-197.5" font-family="Helvetica,sans-Serif" font-size="10.00">TenGigEthGtyUltraScale</text>
</a>
</g>
</g>
<!-- Node4&#45;&gt;Node27 -->
<g id="edge26" class="edge">
<title>Node4&#45;&gt;Node27</title>
<path fill="none" stroke="midnightblue" d="M444.45,-295.15C455.65,-273.59 476.82,-238.73 505,-219 510.53,-215.13 516.84,-212.04 523.32,-209.58"/>
<polygon fill="midnightblue" stroke="midnightblue" points="441.23,-293.77 439.9,-304.28 447.49,-296.9 441.23,-293.77"/>
</g>
<!-- Node29 -->
<g id="node29" class="node">
<title>Node29</title>
<g id="a_node29"><a xlink:href="classUdpEngineTb.html" target="_top" xlink:title=" ">
<polygon fill="white" stroke="black" points="531,-152.5 531,-171.5 612,-171.5 612,-152.5 531,-152.5"/>
<text text-anchor="middle" x="571.5" y="-159.5" font-family="Helvetica,sans-Serif" font-size="10.00">UdpEngineTb</text>
</a>
</g>
</g>
<!-- Node4&#45;&gt;Node29 -->
<g id="edge28" class="edge">
<title>Node4&#45;&gt;Node29</title>
<path fill="none" stroke="midnightblue" d="M440.4,-294.51C448.71,-265.45 468.35,-210.99 505,-181 512.42,-174.93 521.71,-170.79 530.93,-167.98"/>
<polygon fill="midnightblue" stroke="midnightblue" points="436.98,-293.73 437.75,-304.29 443.74,-295.55 436.98,-293.73"/>
</g>
<!-- Node30 -->
<g id="node30" class="node">
<title>Node30</title>
<g id="a_node30"><a xlink:href="classXauiGth7.html" target="_top" xlink:title=" ">
<polygon fill="white" stroke="black" points="540.5,-114.5 540.5,-133.5 602.5,-133.5 602.5,-114.5 540.5,-114.5"/>
<text text-anchor="middle" x="571.5" y="-121.5" font-family="Helvetica,sans-Serif" font-size="10.00">XauiGth7</text>
</a>
</g>
</g>
<!-- Node4&#45;&gt;Node30 -->
<g id="edge29" class="edge">
<title>Node4&#45;&gt;Node30</title>
<path fill="none" stroke="midnightblue" d="M437.92,-294.11C443.33,-258.52 459.68,-183.85 505,-143 514.67,-134.28 528.13,-129.55 540.33,-126.98"/>
<polygon fill="midnightblue" stroke="midnightblue" points="434.43,-293.82 436.53,-304.2 441.37,-294.78 434.43,-293.82"/>
</g>
<!-- Node32 -->
<g id="node32" class="node">
<title>Node32</title>
<g id="a_node32"><a xlink:href="classXauiGthUltraScale.html" target="_top" xlink:title=" ">
<polygon fill="white" stroke="black" points="518.5,-76.5 518.5,-95.5 624.5,-95.5 624.5,-76.5 518.5,-76.5"/>
<text text-anchor="middle" x="571.5" y="-83.5" font-family="Helvetica,sans-Serif" font-size="10.00">XauiGthUltraScale</text>
</a>
</g>
</g>
<!-- Node4&#45;&gt;Node32 -->
<g id="edge31" class="edge">
<title>Node4&#45;&gt;Node32</title>
<path fill="none" stroke="midnightblue" d="M436.21,-294.41C438.77,-253.26 450.59,-157.34 505,-105 509.01,-101.14 513.76,-98.06 518.83,-95.6"/>
<polygon fill="midnightblue" stroke="midnightblue" points="432.71,-294.32 435.7,-304.48 439.7,-294.67 432.71,-294.32"/>
</g>
<!-- Node34 -->
<g id="node34" class="node">
<title>Node34</title>
<g id="a_node34"><a xlink:href="classXauiGtx7.html" target="_top" xlink:title=" ">
<polygon fill="white" stroke="black" points="540.5,-38.5 540.5,-57.5 602.5,-57.5 602.5,-38.5 540.5,-38.5"/>
<text text-anchor="middle" x="571.5" y="-45.5" font-family="Helvetica,sans-Serif" font-size="10.00">XauiGtx7</text>
</a>
</g>
</g>
<!-- Node4&#45;&gt;Node34 -->
<g id="edge33" class="edge">
<title>Node4&#45;&gt;Node34</title>
<path fill="none" stroke="midnightblue" d="M435.01,-294.12C435,-247.61 441.66,-130.85 505,-67 514.26,-57.67 527.8,-52.86 540.17,-50.4"/>
<polygon fill="midnightblue" stroke="midnightblue" points="431.52,-294.39 435.13,-304.35 438.52,-294.31 431.52,-294.39"/>
</g>
<!-- Node36 -->
<g id="node36" class="node">
<title>Node36</title>
<g id="a_node36"><a xlink:href="classXauiGtyUltraScale.html" target="_top" xlink:title=" ">
<polygon fill="white" stroke="black" points="518.5,-0.5 518.5,-19.5 624.5,-19.5 624.5,-0.5 518.5,-0.5"/>
<text text-anchor="middle" x="571.5" y="-7.5" font-family="Helvetica,sans-Serif" font-size="10.00">XauiGtyUltraScale</text>
</a>
</g>
</g>
<!-- Node4&#45;&gt;Node36 -->
<g id="edge35" class="edge">
<title>Node4&#45;&gt;Node36</title>
<path fill="none" stroke="midnightblue" d="M437.75,-294.22C444.73,-236.15 467.85,-67.79 505,-29 508.77,-25.07 513.3,-21.93 518.19,-19.44"/>
<polygon fill="midnightblue" stroke="midnightblue" points="434.26,-293.96 436.57,-304.29 441.21,-294.77 434.26,-293.96"/>
</g>
<!-- Node8 -->
<g id="node8" class="node">
<title>Node8</title>
<g id="a_node8"><a xlink:href="classGigEthGth7Wrapper.html" target="_top" xlink:title=" ">
<polygon fill="white" stroke="black" points="704.5,-532.5 704.5,-551.5 817.5,-551.5 817.5,-532.5 704.5,-532.5"/>
<text text-anchor="middle" x="761" y="-539.5" font-family="Helvetica,sans-Serif" font-size="10.00">GigEthGth7Wrapper</text>
</a>
</g>
</g>
<!-- Node7&#45;&gt;Node8 -->
<g id="edge7" class="edge">
<title>Node7&#45;&gt;Node8</title>
<path fill="none" stroke="midnightblue" d="M618.08,-542C644.04,-542 676.77,-542 704.25,-542"/>
<polygon fill="midnightblue" stroke="midnightblue" points="617.77,-538.5 607.77,-542 617.77,-545.5 617.77,-538.5"/>
</g>
<!-- Node10 -->
<g id="node10" class="node">
<title>Node10</title>
<g id="a_node10"><a xlink:href="classGigEthGthUltraScaleWrapper.html" target="_top" xlink:title=" ">
<polygon fill="white" stroke="black" points="682,-494.5 682,-513.5 840,-513.5 840,-494.5 682,-494.5"/>
<text text-anchor="middle" x="761" y="-501.5" font-family="Helvetica,sans-Serif" font-size="10.00">GigEthGthUltraScaleWrapper</text>
</a>
</g>
</g>
<!-- Node9&#45;&gt;Node10 -->
<g id="edge9" class="edge">
<title>Node9&#45;&gt;Node10</title>
<path fill="none" stroke="midnightblue" d="M639.77,-504C653.4,-504 667.85,-504 681.82,-504"/>
<polygon fill="midnightblue" stroke="midnightblue" points="639.52,-500.5 629.52,-504 639.52,-507.5 639.52,-500.5"/>
</g>
<!-- Node12 -->
<g id="node12" class="node">
<title>Node12</title>
<g id="a_node12"><a xlink:href="classGigEthGtp7Wrapper.html" target="_top" xlink:title=" ">
<polygon fill="white" stroke="black" points="704.5,-456.5 704.5,-475.5 817.5,-475.5 817.5,-456.5 704.5,-456.5"/>
<text text-anchor="middle" x="761" y="-463.5" font-family="Helvetica,sans-Serif" font-size="10.00">GigEthGtp7Wrapper</text>
</a>
</g>
</g>
<!-- Node11&#45;&gt;Node12 -->
<g id="edge11" class="edge">
<title>Node11&#45;&gt;Node12</title>
<path fill="none" stroke="midnightblue" d="M618.08,-466C644.04,-466 676.77,-466 704.25,-466"/>
<polygon fill="midnightblue" stroke="midnightblue" points="617.77,-462.5 607.77,-466 617.77,-469.5 617.77,-462.5"/>
</g>
<!-- Node14 -->
<g id="node14" class="node">
<title>Node14</title>
<g id="a_node14"><a xlink:href="classGigEthGtx7Wrapper.html" target="_top" xlink:title=" ">
<polygon fill="white" stroke="black" points="704.5,-418.5 704.5,-437.5 817.5,-437.5 817.5,-418.5 704.5,-418.5"/>
<text text-anchor="middle" x="761" y="-425.5" font-family="Helvetica,sans-Serif" font-size="10.00">GigEthGtx7Wrapper</text>
</a>
</g>
</g>
<!-- Node13&#45;&gt;Node14 -->
<g id="edge13" class="edge">
<title>Node13&#45;&gt;Node14</title>
<path fill="none" stroke="midnightblue" d="M618.08,-428C644.04,-428 676.77,-428 704.25,-428"/>
<polygon fill="midnightblue" stroke="midnightblue" points="617.77,-424.5 607.77,-428 617.77,-431.5 617.77,-424.5"/>
</g>
<!-- Node16 -->
<g id="node16" class="node">
<title>Node16</title>
<g id="a_node16"><a xlink:href="classGigEthGtyUltraScaleWrapper.html" target="_top" xlink:title=" ">
<polygon fill="white" stroke="black" points="682,-380.5 682,-399.5 840,-399.5 840,-380.5 682,-380.5"/>
<text text-anchor="middle" x="761" y="-387.5" font-family="Helvetica,sans-Serif" font-size="10.00">GigEthGtyUltraScaleWrapper</text>
</a>
</g>
</g>
<!-- Node15&#45;&gt;Node16 -->
<g id="edge15" class="edge">
<title>Node15&#45;&gt;Node16</title>
<path fill="none" stroke="midnightblue" d="M639.77,-390C653.4,-390 667.85,-390 681.82,-390"/>
<polygon fill="midnightblue" stroke="midnightblue" points="639.52,-386.5 629.52,-390 639.52,-393.5 639.52,-386.5"/>
</g>
<!-- Node18 -->
<g id="node18" class="node">
<title>Node18</title>
<g id="a_node18"><a xlink:href="classGigEthLvdsUltraScaleWrapper.html" target="_top" xlink:title=" ">
<polygon fill="white" stroke="black" points="679.5,-342.5 679.5,-361.5 842.5,-361.5 842.5,-342.5 679.5,-342.5"/>
<text text-anchor="middle" x="761" y="-349.5" font-family="Helvetica,sans-Serif" font-size="10.00">GigEthLvdsUltraScaleWrapper</text>
</a>
</g>
</g>
<!-- Node17&#45;&gt;Node18 -->
<g id="edge17" class="edge">
<title>Node17&#45;&gt;Node18</title>
<path fill="none" stroke="midnightblue" d="M642.9,-352C654.8,-352 667.24,-352 679.38,-352"/>
<polygon fill="midnightblue" stroke="midnightblue" points="642.6,-348.5 632.6,-352 642.6,-355.5 642.6,-348.5"/>
</g>
<!-- Node19 -->
<g id="node19" class="node">
<title>Node19</title>
<g id="a_node19"><a xlink:href="classSgmii88E1111LvdsUltraScale.html" target="_top" xlink:title=" ">
<polygon fill="white" stroke="black" points="885,-361.5 885,-380.5 1044,-380.5 1044,-361.5 885,-361.5"/>
<text text-anchor="middle" x="964.5" y="-368.5" font-family="Helvetica,sans-Serif" font-size="10.00">Sgmii88E1111LvdsUltraScale</text>
</a>
</g>
</g>
<!-- Node18&#45;&gt;Node19 -->
<g id="edge18" class="edge">
<title>Node18&#45;&gt;Node19</title>
<path fill="none" stroke="midnightblue" d="M852.7,-360.55C863.4,-361.56 874.25,-362.58 884.76,-363.58"/>
<polygon fill="midnightblue" stroke="midnightblue" points="852.79,-357.05 842.51,-359.59 852.13,-364.01 852.79,-357.05"/>
</g>
<!-- Node20 -->
<g id="node20" class="node">
<title>Node20</title>
<g id="a_node20"><a xlink:href="classSgmiiDp83867LvdsUltraScale.html" target="_top" xlink:title=" ">
<polygon fill="white" stroke="black" points="884,-323.5 884,-342.5 1045,-342.5 1045,-323.5 884,-323.5"/>
<text text-anchor="middle" x="964.5" y="-330.5" font-family="Helvetica,sans-Serif" font-size="10.00">SgmiiDp83867LvdsUltraScale</text>
</a>
</g>
</g>
<!-- Node18&#45;&gt;Node20 -->
<g id="edge19" class="edge">
<title>Node18&#45;&gt;Node20</title>
<path fill="none" stroke="midnightblue" d="M852.78,-343.44C863.12,-342.47 873.6,-341.48 883.78,-340.52"/>
<polygon fill="midnightblue" stroke="midnightblue" points="852.13,-339.99 842.51,-344.41 852.79,-346.95 852.13,-339.99"/>
</g>
<!-- Node22 -->
<g id="node22" class="node">
<title>Node22</title>
<g id="a_node22"><a xlink:href="classTenGigEthGth7Wrapper.html" target="_top" xlink:title=" ">
<polygon fill="white" stroke="black" points="696,-304.5 696,-323.5 826,-323.5 826,-304.5 696,-304.5"/>
<text text-anchor="middle" x="761" y="-311.5" font-family="Helvetica,sans-Serif" font-size="10.00">TenGigEthGth7Wrapper</text>
</a>
</g>
</g>
<!-- Node21&#45;&gt;Node22 -->
<g id="edge21" class="edge">
<title>Node21&#45;&gt;Node22</title>
<path fill="none" stroke="midnightblue" d="M626.74,-314C648.29,-314 673.26,-314 695.71,-314"/>
<polygon fill="midnightblue" stroke="midnightblue" points="626.46,-310.5 616.46,-314 626.46,-317.5 626.46,-310.5"/>
</g>
<!-- Node24 -->
<g id="node24" class="node">
<title>Node24</title>
<g id="a_node24"><a xlink:href="classTenGigEthGthUltraScaleWrapper.html" target="_top" xlink:title=" ">
<polygon fill="white" stroke="black" points="674,-266.5 674,-285.5 848,-285.5 848,-266.5 674,-266.5"/>
<text text-anchor="middle" x="761" y="-273.5" font-family="Helvetica,sans-Serif" font-size="10.00">TenGigEthGthUltraScaleWrapper</text>
</a>
</g>
</g>
<!-- Node23&#45;&gt;Node24 -->
<g id="edge23" class="edge">
<title>Node23&#45;&gt;Node24</title>
<path fill="none" stroke="midnightblue" d="M648.2,-276C656.59,-276 665.19,-276 673.7,-276"/>
<polygon fill="midnightblue" stroke="midnightblue" points="648.08,-272.5 638.08,-276 648.08,-279.5 648.08,-272.5"/>
</g>
<!-- Node26 -->
<g id="node26" class="node">
<title>Node26</title>
<g id="a_node26"><a xlink:href="classTenGigEthGtx7Wrapper.html" target="_top" xlink:title=" ">
<polygon fill="white" stroke="black" points="696,-228.5 696,-247.5 826,-247.5 826,-228.5 696,-228.5"/>
<text text-anchor="middle" x="761" y="-235.5" font-family="Helvetica,sans-Serif" font-size="10.00">TenGigEthGtx7Wrapper</text>
</a>
</g>
</g>
<!-- Node25&#45;&gt;Node26 -->
<g id="edge25" class="edge">
<title>Node25&#45;&gt;Node26</title>
<path fill="none" stroke="midnightblue" d="M626.74,-238C648.29,-238 673.26,-238 695.71,-238"/>
<polygon fill="midnightblue" stroke="midnightblue" points="626.46,-234.5 616.46,-238 626.46,-241.5 626.46,-234.5"/>
</g>
<!-- Node28 -->
<g id="node28" class="node">
<title>Node28</title>
<g id="a_node28"><a xlink:href="classTenGigEthGtyUltraScaleWrapper.html" target="_top" xlink:title=" ">
<polygon fill="white" stroke="black" points="674,-190.5 674,-209.5 848,-209.5 848,-190.5 674,-190.5"/>
<text text-anchor="middle" x="761" y="-197.5" font-family="Helvetica,sans-Serif" font-size="10.00">TenGigEthGtyUltraScaleWrapper</text>
</a>
</g>
</g>
<!-- Node27&#45;&gt;Node28 -->
<g id="edge27" class="edge">
<title>Node27&#45;&gt;Node28</title>
<path fill="none" stroke="midnightblue" d="M648.2,-200C656.59,-200 665.19,-200 673.7,-200"/>
<polygon fill="midnightblue" stroke="midnightblue" points="648.08,-196.5 638.08,-200 648.08,-203.5 648.08,-196.5"/>
</g>
<!-- Node31 -->
<g id="node31" class="node">
<title>Node31</title>
<g id="a_node31"><a xlink:href="classXauiGth7Wrapper.html" target="_top" xlink:title=" ">
<polygon fill="white" stroke="black" points="709.5,-114.5 709.5,-133.5 812.5,-133.5 812.5,-114.5 709.5,-114.5"/>
<text text-anchor="middle" x="761" y="-121.5" font-family="Helvetica,sans-Serif" font-size="10.00">XauiGth7Wrapper</text>
</a>
</g>
</g>
<!-- Node30&#45;&gt;Node31 -->
<g id="edge30" class="edge">
<title>Node30&#45;&gt;Node31</title>
<path fill="none" stroke="midnightblue" d="M612.95,-124C641.23,-124 679.19,-124 709.46,-124"/>
<polygon fill="midnightblue" stroke="midnightblue" points="612.63,-120.5 602.63,-124 612.63,-127.5 612.63,-120.5"/>
</g>
<!-- Node33 -->
<g id="node33" class="node">
<title>Node33</title>
<g id="a_node33"><a xlink:href="classXauiGthUltraScaleWrapper.html" target="_top" xlink:title=" ">
<polygon fill="white" stroke="black" points="687.5,-76.5 687.5,-95.5 834.5,-95.5 834.5,-76.5 687.5,-76.5"/>
<text text-anchor="middle" x="761" y="-83.5" font-family="Helvetica,sans-Serif" font-size="10.00">XauiGthUltraScaleWrapper</text>
</a>
</g>
</g>
<!-- Node32&#45;&gt;Node33 -->
<g id="edge32" class="edge">
<title>Node32&#45;&gt;Node33</title>
<path fill="none" stroke="midnightblue" d="M634.97,-86C651.77,-86 670.08,-86 687.38,-86"/>
<polygon fill="midnightblue" stroke="midnightblue" points="634.73,-82.5 624.73,-86 634.73,-89.5 634.73,-82.5"/>
</g>
<!-- Node35 -->
<g id="node35" class="node">
<title>Node35</title>
<g id="a_node35"><a xlink:href="classXauiGtx7Wrapper.html" target="_top" xlink:title=" ">
<polygon fill="white" stroke="black" points="709.5,-38.5 709.5,-57.5 812.5,-57.5 812.5,-38.5 709.5,-38.5"/>
<text text-anchor="middle" x="761" y="-45.5" font-family="Helvetica,sans-Serif" font-size="10.00">XauiGtx7Wrapper</text>
</a>
</g>
</g>
<!-- Node34&#45;&gt;Node35 -->
<g id="edge34" class="edge">
<title>Node34&#45;&gt;Node35</title>
<path fill="none" stroke="midnightblue" d="M612.95,-48C641.23,-48 679.19,-48 709.46,-48"/>
<polygon fill="midnightblue" stroke="midnightblue" points="612.63,-44.5 602.63,-48 612.63,-51.5 612.63,-44.5"/>
</g>
<!-- Node37 -->
<g id="node37" class="node">
<title>Node37</title>
<g id="a_node37"><a xlink:href="classXauiGtyUltraScaleWrapper.html" target="_top" xlink:title=" ">
<polygon fill="white" stroke="black" points="687.5,-0.5 687.5,-19.5 834.5,-19.5 834.5,-0.5 687.5,-0.5"/>
<text text-anchor="middle" x="761" y="-7.5" font-family="Helvetica,sans-Serif" font-size="10.00">XauiGtyUltraScaleWrapper</text>
</a>
</g>
</g>
<!-- Node36&#45;&gt;Node37 -->
<g id="edge36" class="edge">
<title>Node36&#45;&gt;Node37</title>
<path fill="none" stroke="midnightblue" d="M634.97,-10C651.77,-10 670.08,-10 687.38,-10"/>
<polygon fill="midnightblue" stroke="midnightblue" points="634.73,-6.5 624.73,-10 634.73,-13.5 634.73,-6.5"/>
</g>
</g>
</svg>
        <g id="navigator" transform="translate(0 0)" fill="#404254">
                <rect fill="#f2f5e9" fill-opacity="0.5" stroke="#606060" stroke-width=".5" x="0" y="0" width="60" height="60"/>
                <use id="zoomplus" xlink:href="#zoomPlus" x="17" y="9" onmousedown="handleZoom(evt,'in')"/>
                <use id="zoomminus" xlink:href="#zoomMin" x="42" y="9" onmousedown="handleZoom(evt,'out')"/>
                <use id="reset" xlink:href="#resetDef" x="30" y="36" onmousedown="handleReset()"/>
                <g id="arrowUp" xlink:href="#dirArrow" transform="translate(30 24)" onmousedown="handlePan(0,-1)">
                  <use xlink:href="#rim" fill="#404040">
                        <set attributeName="fill" to="#808080" begin="arrowUp.mouseover" end="arrowUp.mouseout"/>
                  </use>
                  <path fill="none" stroke="white" stroke-width="1.5" d="M0,-3.0v7 M-2.5,-0.5L0,-3.0L2.5,-0.5"/>
                </g>
                <g id="arrowRight" xlink:href="#dirArrow" transform="rotate(90) translate(36 -43)" onmousedown="handlePan(1,0)">
                  <use xlink:href="#rim" fill="#404040">
                        <set attributeName="fill" to="#808080" begin="arrowRight.mouseover" end="arrowRight.mouseout"/>
                  </use>
                  <path fill="none" stroke="white" stroke-width="1.5" d="M0,-3.0v7 M-2.5,-0.5L0,-3.0L2.5,-0.5"/>
                </g>
                <g id="arrowDown" xlink:href="#dirArrow" transform="rotate(180) translate(-30 -48)" onmousedown="handlePan(0,1)">
                  <use xlink:href="#rim" fill="#404040">
                        <set attributeName="fill" to="#808080" begin="arrowDown.mouseover" end="arrowDown.mouseout"/>
                  </use>
                  <path fill="none" stroke="white" stroke-width="1.5" d="M0,-3.0v7 M-2.5,-0.5L0,-3.0L2.5,-0.5"/>
                </g>
                <g id="arrowLeft" xlink:href="#dirArrow" transform="rotate(270) translate(-36 17)" onmousedown="handlePan(-1,0)">
                  <use xlink:href="#rim" fill="#404040">
                        <set attributeName="fill" to="#808080" begin="arrowLeft.mouseover" end="arrowLeft.mouseout"/>
                  </use>
                  <path fill="none" stroke="white" stroke-width="1.5" d="M0,-3.0v7 M-2.5,-0.5L0,-3.0L2.5,-0.5"/>
                </g>
        </g>
        <svg viewBox="0 0 15 15" width="100%" height="30px" preserveAspectRatio="xMaxYMin meet">
         <g id="arrow_out" transform="scale(0.3 0.3)">
          <a xlink:href="classEthMacRxImportXlgmii__inherit__graph_org.svg" target="_base">
           <rect id="button" ry="5" rx="5" y="6" x="6" height="38" width="38"
                fill="#f2f5e9" fill-opacity="0.5" stroke="#606060" stroke-width="1.0"/>
           <path id="arrow"
             d="M 11.500037,31.436501 C 11.940474,20.09759 22.043105,11.32322 32.158766,21.979434 L 37.068811,17.246167 C 37.068811,17.246167 37.088388,32 37.088388,32 L 22.160133,31.978069 C 22.160133,31.978069 26.997745,27.140456 26.997745,27.140456 C 18.528582,18.264221 13.291696,25.230495 11.500037,31.436501 z"
             style="fill:#404040;"/>
          </a>
         </g>
        </svg>
</svg>
