<?xml version="1.0" encoding="UTF-8" standalone="no"?>
<!DOCTYPE svg PUBLIC "-//W3C//DTD SVG 1.1//EN"
 "http://www.w3.org/Graphics/SVG/1.1/DTD/svg11.dtd">
<!-- Generated by graphviz version 2.43.0 (0)
 -->
<!-- Title: Ad9249Deserializer Pages: 1 -->
<svg width="230pt" height="196pt"
 viewBox="0.00 0.00 230.00 196.00" xmlns="http://www.w3.org/2000/svg" xmlns:xlink="http://www.w3.org/1999/xlink">
<g id="graph0" class="graph" transform="scale(1 1) rotate(0) translate(4 192)">
<title>Ad9249Deserializer</title>
<polygon fill="white" stroke="transparent" points="-4,4 -4,-192 226,-192 226,4 -4,4"/>
<!-- Node1 -->
<g id="node1" class="node">
<title>Node1</title>
<g id="a_node1"><a xlink:title=" ">
<polygon fill="#bfbfbf" stroke="black" points="54,-56.5 54,-75.5 166,-75.5 166,-56.5 54,-56.5"/>
<text text-anchor="middle" x="110" y="-63.5" font-family="Helvetica,sans-Serif" font-size="10.00">Ad9249Deserializer</text>
</a>
</g>
</g>
<!-- Node5 -->
<g id="node5" class="node">
<title>Node5</title>
<g id="a_node5"><a xlink:href="classAd9249ReadoutGroup.html" target="_top" xlink:title=" ">
<polygon fill="white" stroke="black" points="48.5,-0.5 48.5,-19.5 171.5,-19.5 171.5,-0.5 48.5,-0.5"/>
<text text-anchor="middle" x="110" y="-7.5" font-family="Helvetica,sans-Serif" font-size="10.00">Ad9249ReadoutGroup</text>
</a>
</g>
</g>
<!-- Node1&#45;&gt;Node5 -->
<g id="edge5" class="edge">
<title>Node1&#45;&gt;Node5</title>
<path fill="none" stroke="midnightblue" d="M110,-45.8C110,-36.91 110,-26.78 110,-19.75"/>
<polygon fill="midnightblue" stroke="midnightblue" points="106.5,-46.08 110,-56.08 113.5,-46.08 106.5,-46.08"/>
</g>
<!-- Node2 -->
<g id="node2" class="node">
<title>Node2</title>
<g id="a_node2"><a xlink:href="classIdelaye3Wrapper.html" target="_top" xlink:title=" ">
<polygon fill="white" stroke="black" points="0,-112.5 0,-131.5 100,-131.5 100,-112.5 0,-112.5"/>
<text text-anchor="middle" x="50" y="-119.5" font-family="Helvetica,sans-Serif" font-size="10.00">Idelaye3Wrapper</text>
</a>
</g>
</g>
<!-- Node2&#45;&gt;Node1 -->
<g id="edge1" class="edge">
<title>Node2&#45;&gt;Node1</title>
<path fill="none" stroke="midnightblue" d="M67.18,-105.54C77.88,-95.91 91.26,-83.87 100.18,-75.83"/>
<polygon fill="midnightblue" stroke="midnightblue" points="64.73,-103.03 59.64,-112.32 69.41,-108.24 64.73,-103.03"/>
</g>
<!-- Node3 -->
<g id="node3" class="node">
<title>Node3</title>
<g id="a_node3"><a xlink:href="classDelaye3PatchFsm.html" target="_top" xlink:title=" ">
<polygon fill="white" stroke="black" points="58,-168.5 58,-187.5 162,-187.5 162,-168.5 58,-168.5"/>
<text text-anchor="middle" x="110" y="-175.5" font-family="Helvetica,sans-Serif" font-size="10.00">Delaye3PatchFsm</text>
</a>
</g>
</g>
<!-- Node3&#45;&gt;Node2 -->
<g id="edge2" class="edge">
<title>Node3&#45;&gt;Node2</title>
<path fill="none" stroke="midnightblue" d="M92.82,-161.54C82.12,-151.91 68.74,-139.87 59.82,-131.83"/>
<polygon fill="midnightblue" stroke="midnightblue" points="90.59,-164.24 100.36,-168.32 95.27,-159.03 90.59,-164.24"/>
</g>
<!-- Node4 -->
<g id="node4" class="node">
<title>Node4</title>
<g id="a_node4"><a xlink:href="classOdelaye3Wrapper.html" target="_top" xlink:title=" ">
<polygon fill="white" stroke="black" points="118,-112.5 118,-131.5 222,-131.5 222,-112.5 118,-112.5"/>
<text text-anchor="middle" x="170" y="-119.5" font-family="Helvetica,sans-Serif" font-size="10.00">Odelaye3Wrapper</text>
</a>
</g>
</g>
<!-- Node3&#45;&gt;Node4 -->
<g id="edge4" class="edge">
<title>Node3&#45;&gt;Node4</title>
<path fill="none" stroke="midnightblue" d="M127.18,-161.54C137.88,-151.91 151.26,-139.87 160.18,-131.83"/>
<polygon fill="midnightblue" stroke="midnightblue" points="124.73,-159.03 119.64,-168.32 129.41,-164.24 124.73,-159.03"/>
</g>
<!-- Node4&#45;&gt;Node1 -->
<g id="edge3" class="edge">
<title>Node4&#45;&gt;Node1</title>
<path fill="none" stroke="midnightblue" d="M152.82,-105.54C142.12,-95.91 128.74,-83.87 119.82,-75.83"/>
<polygon fill="midnightblue" stroke="midnightblue" points="150.59,-108.24 160.36,-112.32 155.27,-103.03 150.59,-108.24"/>
</g>
</g>
</svg>
