<?xml version="1.0" encoding="UTF-8" standalone="no"?>
<!DOCTYPE svg PUBLIC "-//W3C//DTD SVG 1.1//EN"
 "http://www.w3.org/Graphics/SVG/1.1/DTD/svg11.dtd">
<!-- Generated by graphviz version 2.40.1 (20161225.0304)
 -->
<!-- Title: UdpEngineWrapper Pages: 1 -->
<!--zoomable 539 -->
<svg id="main" version="1.1" xmlns="http://www.w3.org/2000/svg" xmlns:xlink="http://www.w3.org/1999/xlink" xml:space="preserve" onload="init(evt)">
<style type="text/css"><![CDATA[
.edge:hover path { stroke: red; }
.edge:hover polygon { stroke: red; fill: red; }
]]></style>
<script type="text/javascript"><![CDATA[
var edges = document.getElementsByTagName('g');
if (edges && edges.length) {
  for (var i=0;i<edges.length;i++) {
    if (edges[i].id.substr(0,4)=='edge') {
      edges[i].setAttribute('class','edge');
    }
  }
}
]]></script>
        <defs>
                <circle id="rim" cx="0" cy="0" r="7"/>
                <circle id="rim2" cx="0" cy="0" r="3.5"/>
                <g id="zoomPlus">
                        <use xlink:href="#rim" fill="#404040">
                                <set attributeName="fill" to="#808080" begin="zoomplus.mouseover" end="zoomplus.mouseout"/>
                        </use>
                        <path d="M-4,0h8M0,-4v8" fill="none" stroke="white" stroke-width="1.5" pointer-events="none"/>
                </g>
                <g id="zoomMin">
                        <use xlink:href="#rim" fill="#404040">
                                <set attributeName="fill" to="#808080" begin="zoomminus.mouseover" end="zoomminus.mouseout"/>
                        </use>
                        <path d="M-4,0h8" fill="none" stroke="white" stroke-width="1.5" pointer-events="none"/>
                </g>
                <g id="dirArrow">
                        <path fill="none" stroke="white" stroke-width="1.5" d="M0,-3.0v7 M-2.5,-0.5L0,-3.0L2.5,-0.5"/>
                </g>
               <g id="resetDef">
                       <use xlink:href="#rim2" fill="#404040">
                               <set attributeName="fill" to="#808080" begin="reset.mouseover" end="reset.mouseout"/>
                       </use>
               </g>
        </defs>

<script type="text/javascript">
var viewWidth = 1322;
var viewHeight = 539;
var sectionId = 'dynsection-0';
</script>
<script xlink:href="svgpan.js"/>
<svg id="graph" class="graph">
<g id="viewport">
<title>UdpEngineWrapper</title>
<polygon fill="#ffffff" stroke="transparent" points="-4,4 -4,-534.7111 1318,-534.7111 1318,4 -4,4"/>
<!-- Node0 -->
<g id="node1" class="node">
<title>Node0</title>
<polygon fill="#bfbfbf" stroke="#000000" points="1069,-245.2111 1069,-264.2111 1179,-264.2111 1179,-245.2111 1069,-245.2111"/>
<text text-anchor="middle" x="1124" y="-252.2111" font-family="Helvetica,sans-Serif" font-size="10.00" fill="#000000">UdpEngineWrapper</text>
</g>
<!-- Node33 -->
<g id="node34" class="node">
<title>Node33</title>
<g id="a_node34"><a xlink:href="classRawEthFramerTb.html" target="_top" xlink:title="RawEthFramerTb">
<polygon fill="#ffffff" stroke="#000000" points="1215,-264.2111 1215,-283.2111 1314,-283.2111 1314,-264.2111 1215,-264.2111"/>
<text text-anchor="middle" x="1264.5" y="-271.2111" font-family="Helvetica,sans-Serif" font-size="10.00" fill="#000000">RawEthFramerTb</text>
</a>
</g>
</g>
<!-- Node0&#45;&gt;Node33 -->
<g id="edge49" class="edge">
<title>Node0&#45;&gt;Node33</title>
<path fill="none" stroke="#191970" d="M1189.0942,-263.5139C1197.6518,-264.6712 1206.312,-265.8423 1214.5632,-266.9581"/>
<polygon fill="#191970" stroke="#191970" points="1189.5049,-260.0377 1179.1261,-262.1659 1188.5668,-266.9745 1189.5049,-260.0377"/>
</g>
<!-- Node34 -->
<g id="node35" class="node">
<title>Node34</title>
<g id="a_node35"><a xlink:href="classUdpEngineTb.html" target="_top" xlink:title="UdpEngineTb">
<polygon fill="#ffffff" stroke="#000000" points="1224,-226.2111 1224,-245.2111 1305,-245.2111 1305,-226.2111 1224,-226.2111"/>
<text text-anchor="middle" x="1264.5" y="-233.2111" font-family="Helvetica,sans-Serif" font-size="10.00" fill="#000000">UdpEngineTb</text>
</a>
</g>
</g>
<!-- Node0&#45;&gt;Node34 -->
<g id="edge50" class="edge">
<title>Node0&#45;&gt;Node34</title>
<path fill="none" stroke="#191970" d="M1189.3769,-245.8701C1201.1332,-244.2803 1213.0724,-242.6658 1223.8689,-241.2057"/>
<polygon fill="#191970" stroke="#191970" points="1188.5668,-242.4477 1179.1261,-247.2564 1189.5049,-249.3846 1188.5668,-242.4477"/>
</g>
<!-- Node1 -->
<g id="node2" class="node">
<title>Node1</title>
<g id="a_node2"><a xlink:href="classIpV4Engine.html" target="_top" xlink:title="IpV4Engine">
<polygon fill="#ffffff" stroke="#000000" points="845,-397.2111 845,-416.2111 916,-416.2111 916,-397.2111 845,-397.2111"/>
<text text-anchor="middle" x="880.5" y="-404.2111" font-family="Helvetica,sans-Serif" font-size="10.00" fill="#000000">IpV4Engine</text>
</a>
</g>
</g>
<!-- Node1&#45;&gt;Node0 -->
<g id="edge1" class="edge">
<title>Node1&#45;&gt;Node0</title>
<path fill="none" stroke="#191970" d="M904.229,-391.8988C953.8979,-360.894 1067.6135,-289.9093 1108.7737,-264.2158"/>
<polygon fill="#191970" stroke="#191970" points="902.3616,-388.9385 895.732,-397.2029 906.0683,-394.8765 902.3616,-388.9385"/>
</g>
<!-- Node2 -->
<g id="node3" class="node">
<title>Node2</title>
<g id="a_node3"><a xlink:href="classIpV4EngineDeMux.html" target="_top" xlink:title="IpV4EngineDeMux">
<polygon fill="#ffffff" stroke="#000000" points="689,-359.2111 689,-378.2111 794,-378.2111 794,-359.2111 689,-359.2111"/>
<text text-anchor="middle" x="741.5" y="-366.2111" font-family="Helvetica,sans-Serif" font-size="10.00" fill="#000000">IpV4EngineDeMux</text>
</a>
</g>
</g>
<!-- Node2&#45;&gt;Node1 -->
<g id="edge2" class="edge">
<title>Node2&#45;&gt;Node1</title>
<path fill="none" stroke="#191970" d="M786.2953,-380.9573C805.4547,-386.1952 827.4938,-392.2202 845.4357,-397.1252"/>
<polygon fill="#191970" stroke="#191970" points="787.1446,-377.5611 776.5756,-378.3001 785.2986,-384.3134 787.1446,-377.5611"/>
</g>
<!-- Node3 -->
<g id="node4" class="node">
<title>Node3</title>
<g id="a_node4"><a xlink:href="classAxiStreamMux.html" target="_top" xlink:title="AxiStreamMux">
<polygon fill="#ffffff" stroke="#000000" points="546,-321.2111 546,-340.2111 634,-340.2111 634,-321.2111 546,-321.2111"/>
<text text-anchor="middle" x="590" y="-328.2111" font-family="Helvetica,sans-Serif" font-size="10.00" fill="#000000">AxiStreamMux</text>
</a>
</g>
</g>
<!-- Node3&#45;&gt;Node1 -->
<g id="edge3" class="edge">
<title>Node3&#45;&gt;Node1</title>
<path fill="none" stroke="#191970" d="M644.3806,-328.3433C687.0931,-328.2087 747.4318,-331.8835 797,-349.7111 826.3991,-360.2848 855.284,-383.7116 870.1564,-397.0058"/>
<polygon fill="#191970" stroke="#191970" points="644.1541,-324.8454 634.1908,-328.4485 644.2264,-331.845 644.1541,-324.8454"/>
</g>
<!-- Node6 -->
<g id="node7" class="node">
<title>Node6</title>
<g id="a_node7"><a xlink:href="classIpV4EngineRx.html" target="_top" xlink:title="IpV4EngineRx">
<polygon fill="#ffffff" stroke="#000000" points="699.5,-397.2111 699.5,-416.2111 783.5,-416.2111 783.5,-397.2111 699.5,-397.2111"/>
<text text-anchor="middle" x="741.5" y="-404.2111" font-family="Helvetica,sans-Serif" font-size="10.00" fill="#000000">IpV4EngineRx</text>
</a>
</g>
</g>
<!-- Node3&#45;&gt;Node6 -->
<g id="edge7" class="edge">
<title>Node3&#45;&gt;Node6</title>
<path fill="none" stroke="#191970" d="M612.6787,-345.9934C631.687,-358.3518 659.8401,-375.6241 686,-387.7111 693.5811,-391.2139 701.9999,-394.4222 709.9418,-397.1651"/>
<polygon fill="#191970" stroke="#191970" points="614.4078,-342.9414 604.1308,-340.3656 610.5584,-348.788 614.4078,-342.9414"/>
</g>
<!-- Node8 -->
<g id="node9" class="node">
<title>Node8</title>
<g id="a_node9"><a xlink:href="classIpV4EngineTx.html" target="_top" xlink:title="IpV4EngineTx">
<polygon fill="#ffffff" stroke="#000000" points="700,-511.2111 700,-530.2111 783,-530.2111 783,-511.2111 700,-511.2111"/>
<text text-anchor="middle" x="741.5" y="-518.2111" font-family="Helvetica,sans-Serif" font-size="10.00" fill="#000000">IpV4EngineTx</text>
</a>
</g>
</g>
<!-- Node3&#45;&gt;Node8 -->
<g id="edge11" class="edge">
<title>Node3&#45;&gt;Node8</title>
<path fill="none" stroke="#191970" d="M611.7392,-346.7327C624.49,-357.1416 640.0077,-371.7183 650,-387.7111 678.154,-432.7718 648.8821,-463.6931 686,-501.7111 689.9131,-505.7191 694.7065,-508.8819 699.8214,-511.3777"/>
<polygon fill="#191970" stroke="#191970" points="613.8686,-343.9547 603.8455,-340.5214 609.5399,-349.4558 613.8686,-343.9547"/>
</g>
<!-- Node10 -->
<g id="node11" class="node">
<title>Node10</title>
<g id="a_node11"><a xlink:href="classUdpEngine.html" target="_top" xlink:title="UdpEngine">
<polygon fill="#ffffff" stroke="#000000" points="964,-226.2111 964,-245.2111 1033,-245.2111 1033,-226.2111 964,-226.2111"/>
<text text-anchor="middle" x="998.5" y="-233.2111" font-family="Helvetica,sans-Serif" font-size="10.00" fill="#000000">UdpEngine</text>
</a>
</g>
</g>
<!-- Node3&#45;&gt;Node10 -->
<g id="edge48" class="edge">
<title>Node3&#45;&gt;Node10</title>
<path fill="none" stroke="#191970" d="M644.1122,-327.0554C711.9954,-321.241 831.2335,-306.9334 928,-273.7111 948.5154,-266.6677 970.2069,-254.0976 984.0231,-245.352"/>
<polygon fill="#191970" stroke="#191970" points="643.7515,-323.5732 634.0738,-327.8851 644.3282,-330.5494 643.7515,-323.5732"/>
</g>
<!-- Node4 -->
<g id="node5" class="node">
<title>Node4</title>
<g id="a_node5"><a xlink:href="classAxiStreamPipeline.html" target="_top" xlink:title="AxiStreamPipeline">
<polygon fill="#ffffff" stroke="#000000" points="387,-207.2111 387,-226.2111 494,-226.2111 494,-207.2111 387,-207.2111"/>
<text text-anchor="middle" x="440.5" y="-214.2111" font-family="Helvetica,sans-Serif" font-size="10.00" fill="#000000">AxiStreamPipeline</text>
</a>
</g>
</g>
<!-- Node4&#45;&gt;Node3 -->
<g id="edge4" class="edge">
<title>Node4&#45;&gt;Node3</title>
<path fill="none" stroke="#191970" d="M461.0569,-232.3866C492.4275,-256.308 551.33,-301.2236 577.2295,-320.9731"/>
<polygon fill="#191970" stroke="#191970" points="463.0633,-229.5151 452.9891,-226.2346 458.8188,-235.0815 463.0633,-229.5151"/>
</g>
<!-- Node7 -->
<g id="node8" class="node">
<title>Node7</title>
<g id="a_node8"><a xlink:href="classAxiStreamDeMux.html" target="_top" xlink:title="AxiStreamDeMux">
<polygon fill="#ffffff" stroke="#000000" points="539.5,-397.2111 539.5,-416.2111 640.5,-416.2111 640.5,-397.2111 539.5,-397.2111"/>
<text text-anchor="middle" x="590" y="-404.2111" font-family="Helvetica,sans-Serif" font-size="10.00" fill="#000000">AxiStreamDeMux</text>
</a>
</g>
</g>
<!-- Node4&#45;&gt;Node7 -->
<g id="edge9" class="edge">
<title>Node4&#45;&gt;Node7</title>
<path fill="none" stroke="#191970" d="M451.1614,-235.1911C466.8573,-261.7322 497.821,-311.6369 530,-349.7111 545.2101,-367.7078 565.5563,-386.039 578.2157,-396.8904"/>
<polygon fill="#191970" stroke="#191970" points="453.9933,-233.1004 445.9227,-226.2363 447.9513,-236.6352 453.9933,-233.1004"/>
</g>
<!-- Node13 -->
<g id="node14" class="node">
<title>Node13</title>
<g id="a_node14"><a xlink:href="classAxiStreamDeMux.html" target="_top" xlink:title="AxiStreamDeMux(2)">
<polygon fill="#ffffff" stroke="#000000" points="532.5,-169.2111 532.5,-188.2111 647.5,-188.2111 647.5,-169.2111 532.5,-169.2111"/>
<text text-anchor="middle" x="590" y="-176.2111" font-family="Helvetica,sans-Serif" font-size="10.00" fill="#000000">AxiStreamDeMux(2)</text>
</a>
</g>
</g>
<!-- Node4&#45;&gt;Node13 -->
<g id="edge18" class="edge">
<title>Node4&#45;&gt;Node13</title>
<path fill="none" stroke="#191970" d="M488.1516,-204.599C508.9726,-199.3067 533.0377,-193.1898 552.5461,-188.2312"/>
<polygon fill="#191970" stroke="#191970" points="487.0547,-201.2664 478.2252,-207.1221 488.7792,-208.0507 487.0547,-201.2664"/>
</g>
<!-- Node15 -->
<g id="node16" class="node">
<title>Node15</title>
<g id="a_node16"><a xlink:href="classAxiStreamFifoV2.html" target="_top" xlink:title="AxiStreamFifoV2(2)">
<polygon fill="#ffffff" stroke="#000000" points="686,-93.2111 686,-112.2111 797,-112.2111 797,-93.2111 686,-93.2111"/>
<text text-anchor="middle" x="741.5" y="-100.2111" font-family="Helvetica,sans-Serif" font-size="10.00" fill="#000000">AxiStreamFifoV2(2)</text>
</a>
</g>
</g>
<!-- Node4&#45;&gt;Node15 -->
<g id="edge44" class="edge">
<title>Node4&#45;&gt;Node15</title>
<path fill="none" stroke="#191970" d="M451.6655,-198.3881C466.4707,-175.9375 494.8699,-138.7849 530,-121.7111 578.7421,-98.0217 641.2443,-95.2733 685.6323,-97.2275"/>
<polygon fill="#191970" stroke="#191970" points="448.5949,-196.6941 446.1728,-207.0083 454.4983,-200.4557 448.5949,-196.6941"/>
</g>
<!-- Node16 -->
<g id="node17" class="node">
<title>Node16</title>
<g id="a_node17"><a xlink:href="classAxiStreamResize.html" target="_top" xlink:title="AxiStreamResize(2)">
<polygon fill="#ffffff" stroke="#000000" points="533.5,-131.2111 533.5,-150.2111 646.5,-150.2111 646.5,-131.2111 533.5,-131.2111"/>
<text text-anchor="middle" x="590" y="-138.2111" font-family="Helvetica,sans-Serif" font-size="10.00" fill="#000000">AxiStreamResize(2)</text>
</a>
</g>
</g>
<!-- Node4&#45;&gt;Node16 -->
<g id="edge22" class="edge">
<title>Node4&#45;&gt;Node16</title>
<path fill="none" stroke="#191970" d="M461.5958,-201.0395C479.1825,-188.5357 505.2678,-171.2605 530,-159.7111 537.7222,-156.105 546.3087,-152.9326 554.516,-150.2642"/>
<polygon fill="#191970" stroke="#191970" points="459.2813,-198.3937 453.2259,-207.0876 463.3812,-204.0675 459.2813,-198.3937"/>
</g>
<!-- Node31 -->
<g id="node32" class="node">
<title>Node31</title>
<g id="a_node32"><a xlink:href="classUdpEngineTx.html" target="_top" xlink:title="UdpEngineTx(2)">
<polygon fill="#ffffff" stroke="#000000" points="833,-245.2111 833,-264.2111 928,-264.2111 928,-245.2111 833,-245.2111"/>
<text text-anchor="middle" x="880.5" y="-252.2111" font-family="Helvetica,sans-Serif" font-size="10.00" fill="#000000">UdpEngineTx(2)</text>
</a>
</g>
</g>
<!-- Node4&#45;&gt;Node31 -->
<g id="edge46" class="edge">
<title>Node4&#45;&gt;Node31</title>
<path fill="none" stroke="#191970" d="M488.9113,-228.4191C502.1619,-231.2315 516.5732,-233.9329 530,-235.7111 637.6853,-249.9726 765.3393,-253.5854 832.9462,-254.4644"/>
<polygon fill="#191970" stroke="#191970" points="489.5572,-224.9777 479.0403,-226.2603 488.0616,-231.8161 489.5572,-224.9777"/>
</g>
<!-- Node5 -->
<g id="node6" class="node">
<title>Node5</title>
<g id="a_node6"><a xlink:href="classArpEngine.html" target="_top" xlink:title="ArpEngine">
<polygon fill="#ffffff" stroke="#000000" points="708.5,-473.2111 708.5,-492.2111 774.5,-492.2111 774.5,-473.2111 708.5,-473.2111"/>
<text text-anchor="middle" x="741.5" y="-480.2111" font-family="Helvetica,sans-Serif" font-size="10.00" fill="#000000">ArpEngine</text>
</a>
</g>
</g>
<!-- Node5&#45;&gt;Node1 -->
<g id="edge5" class="edge">
<title>Node5&#45;&gt;Node1</title>
<path fill="none" stroke="#191970" d="M783.5449,-469.6732C788.1596,-467.8442 792.7288,-465.8508 797,-463.7111 824.306,-450.0322 853.0679,-428.6155 868.6918,-416.2989"/>
<polygon fill="#191970" stroke="#191970" points="782.2419,-466.4235 774.0897,-473.1905 784.6826,-472.9842 782.2419,-466.4235"/>
</g>
<!-- Node6&#45;&gt;Node1 -->
<g id="edge6" class="edge">
<title>Node6&#45;&gt;Node1</title>
<path fill="none" stroke="#191970" d="M793.8996,-406.7111C810.8331,-406.7111 829.2106,-406.7111 844.6617,-406.7111"/>
<polygon fill="#191970" stroke="#191970" points="793.5818,-403.2112 783.5818,-406.7111 793.5818,-410.2112 793.5818,-403.2112"/>
</g>
<!-- Node7&#45;&gt;Node6 -->
<g id="edge8" class="edge">
<title>Node7&#45;&gt;Node6</title>
<path fill="none" stroke="#191970" d="M651.2569,-406.7111C667.311,-406.7111 684.2672,-406.7111 699.0942,-406.7111"/>
<polygon fill="#191970" stroke="#191970" points="650.8688,-403.2112 640.8688,-406.7111 650.8687,-410.2112 650.8688,-403.2112"/>
</g>
<!-- Node7&#45;&gt;Node8 -->
<g id="edge12" class="edge">
<title>Node7&#45;&gt;Node8</title>
<path fill="none" stroke="#191970" d="M603.5644,-424.3272C620.6747,-445.4481 651.9974,-480.6293 686,-501.7111 692.059,-505.4678 698.9541,-508.5906 705.7751,-511.1453"/>
<polygon fill="#191970" stroke="#191970" points="606.0906,-421.8798 597.1353,-416.2184 600.6055,-426.2288 606.0906,-421.8798"/>
</g>
<!-- Node8&#45;&gt;Node1 -->
<g id="edge10" class="edge">
<title>Node8&#45;&gt;Node1</title>
<path fill="none" stroke="#191970" d="M787.6764,-507.0488C790.9305,-505.4427 794.076,-503.668 797,-501.7111 832.585,-477.896 862.4065,-435.2413 874.5978,-416.2658"/>
<polygon fill="#191970" stroke="#191970" points="786.0748,-503.9291 778.3125,-511.14 788.8773,-510.3436 786.0748,-503.9291"/>
</g>
<!-- Node9 -->
<g id="node10" class="node">
<title>Node9</title>
<g id="a_node10"><a xlink:href="classIcmpEngine.html" target="_top" xlink:title="IcmpEngine">
<polygon fill="#ffffff" stroke="#000000" points="704.5,-435.2111 704.5,-454.2111 778.5,-454.2111 778.5,-435.2111 704.5,-435.2111"/>
<text text-anchor="middle" x="741.5" y="-442.2111" font-family="Helvetica,sans-Serif" font-size="10.00" fill="#000000">IcmpEngine</text>
</a>
</g>
</g>
<!-- Node9&#45;&gt;Node1 -->
<g id="edge13" class="edge">
<title>Node9&#45;&gt;Node1</title>
<path fill="none" stroke="#191970" d="M786.2953,-432.4649C805.4547,-427.2271 827.4938,-421.202 845.4357,-416.2971"/>
<polygon fill="#191970" stroke="#191970" points="785.2986,-429.1089 776.5756,-435.1221 787.1446,-435.8611 785.2986,-429.1089"/>
</g>
<!-- Node10&#45;&gt;Node0 -->
<g id="edge14" class="edge">
<title>Node10&#45;&gt;Node0</title>
<path fill="none" stroke="#191970" d="M1043.2858,-242.4914C1051.5359,-243.7405 1060.2385,-245.058 1068.7541,-246.3472"/>
<polygon fill="#191970" stroke="#191970" points="1043.5369,-238.9897 1033.1256,-240.9533 1042.489,-245.9108 1043.5369,-238.9897"/>
</g>
<!-- Node11 -->
<g id="node12" class="node">
<title>Node11</title>
<g id="a_node12"><a xlink:href="classUdpEngineRx.html" target="_top" xlink:title="UdpEngineRx">
<polygon fill="#ffffff" stroke="#000000" points="700.5,-207.2111 700.5,-226.2111 782.5,-226.2111 782.5,-207.2111 700.5,-207.2111"/>
<text text-anchor="middle" x="741.5" y="-214.2111" font-family="Helvetica,sans-Serif" font-size="10.00" fill="#000000">UdpEngineRx</text>
</a>
</g>
</g>
<!-- Node11&#45;&gt;Node10 -->
<g id="edge15" class="edge">
<title>Node11&#45;&gt;Node10</title>
<path fill="none" stroke="#191970" d="M792.6102,-220.4897C843.3547,-224.2412 919.7587,-229.8898 963.82,-233.1472"/>
<polygon fill="#191970" stroke="#191970" points="792.7375,-216.9897 782.5066,-219.7427 792.2213,-223.9706 792.7375,-216.9897"/>
</g>
<!-- Node12 -->
<g id="node13" class="node">
<title>Node12</title>
<g id="a_node13"><a xlink:href="classAxiStreamPipeline.html" target="_top" xlink:title="AxiStreamPipeline(2)">
<polygon fill="#ffffff" stroke="#000000" points="530,-207.2111 530,-226.2111 650,-226.2111 650,-207.2111 530,-207.2111"/>
<text text-anchor="middle" x="590" y="-214.2111" font-family="Helvetica,sans-Serif" font-size="10.00" fill="#000000">AxiStreamPipeline(2)</text>
</a>
</g>
</g>
<!-- Node12&#45;&gt;Node11 -->
<g id="edge16" class="edge">
<title>Node12&#45;&gt;Node11</title>
<path fill="none" stroke="#191970" d="M660.6719,-216.7111C674.3142,-216.7111 688.1771,-216.7111 700.4801,-216.7111"/>
<polygon fill="#191970" stroke="#191970" points="660.3122,-213.2112 650.3121,-216.7111 660.3121,-220.2112 660.3122,-213.2112"/>
</g>
<!-- Node13&#45;&gt;Node11 -->
<g id="edge17" class="edge">
<title>Node13&#45;&gt;Node11</title>
<path fill="none" stroke="#191970" d="M638.0016,-190.7511C659.1668,-196.0599 683.6858,-202.2099 703.5451,-207.1911"/>
<polygon fill="#191970" stroke="#191970" points="638.7809,-187.3383 628.2298,-188.3001 637.0779,-194.1279 638.7809,-187.3383"/>
</g>
<!-- Node14 -->
<g id="node15" class="node">
<title>Node14</title>
<g id="a_node15"><a xlink:href="classUdpEngineDhcp.html" target="_top" xlink:title="UdpEngineDhcp">
<polygon fill="#ffffff" stroke="#000000" points="833.5,-169.2111 833.5,-188.2111 927.5,-188.2111 927.5,-169.2111 833.5,-169.2111"/>
<text text-anchor="middle" x="880.5" y="-176.2111" font-family="Helvetica,sans-Serif" font-size="10.00" fill="#000000">UdpEngineDhcp</text>
</a>
</g>
</g>
<!-- Node14&#45;&gt;Node10 -->
<g id="edge19" class="edge">
<title>Node14&#45;&gt;Node10</title>
<path fill="none" stroke="#191970" d="M909.2694,-192.6082C930.7994,-203.0083 959.6883,-216.9631 978.685,-226.1395"/>
<polygon fill="#191970" stroke="#191970" points="910.7774,-189.4498 900.2505,-188.2517 907.7327,-195.7529 910.7774,-189.4498"/>
</g>
<!-- Node15&#45;&gt;Node14 -->
<g id="edge20" class="edge">
<title>Node15&#45;&gt;Node14</title>
<path fill="none" stroke="#191970" d="M763.9868,-118.2836C782.1213,-130.4536 808.5452,-147.3253 833,-159.7111 839.6557,-163.0821 847.0578,-166.2865 853.9997,-169.0708"/>
<polygon fill="#191970" stroke="#191970" points="765.5533,-115.1168 755.3136,-112.3967 761.6221,-120.9087 765.5533,-115.1168"/>
</g>
<!-- Node16&#45;&gt;Node15 -->
<g id="edge21" class="edge">
<title>Node16&#45;&gt;Node15</title>
<path fill="none" stroke="#191970" d="M638.0016,-128.6711C659.1668,-123.3624 683.6858,-117.2124 703.5451,-112.2312"/>
<polygon fill="#191970" stroke="#191970" points="637.0779,-125.2943 628.2298,-131.1221 638.7809,-132.084 637.0779,-125.2943"/>
</g>
<!-- Node17 -->
<g id="node18" class="node">
<title>Node17</title>
<g id="a_node18"><a xlink:href="classFifoCascade.html" target="_top" xlink:title="FifoCascade(2)">
<polygon fill="#ffffff" stroke="#000000" points="545.5,-55.2111 545.5,-74.2111 634.5,-74.2111 634.5,-55.2111 545.5,-55.2111"/>
<text text-anchor="middle" x="590" y="-62.2111" font-family="Helvetica,sans-Serif" font-size="10.00" fill="#000000">FifoCascade(2)</text>
</a>
</g>
</g>
<!-- Node17&#45;&gt;Node15 -->
<g id="edge23" class="edge">
<title>Node17&#45;&gt;Node15</title>
<path fill="none" stroke="#191970" d="M638.0016,-76.7511C659.1668,-82.0599 683.6858,-88.2099 703.5451,-93.1911"/>
<polygon fill="#191970" stroke="#191970" points="638.7809,-73.3383 628.2298,-74.3001 637.0779,-80.1279 638.7809,-73.3383"/>
</g>
<!-- Node18 -->
<g id="node19" class="node">
<title>Node18</title>
<g id="a_node19"><a xlink:href="classFifo.html" target="_top" xlink:title="Fifo(4)">
<polygon fill="#ffffff" stroke="#000000" points="417,-74.2111 417,-93.2111 464,-93.2111 464,-74.2111 417,-74.2111"/>
<text text-anchor="middle" x="440.5" y="-81.2111" font-family="Helvetica,sans-Serif" font-size="10.00" fill="#000000">Fifo(4)</text>
</a>
</g>
</g>
<!-- Node18&#45;&gt;Node17 -->
<g id="edge24" class="edge">
<title>Node18&#45;&gt;Node17</title>
<path fill="none" stroke="#191970" d="M474.253,-79.4214C495.2695,-76.7505 522.5462,-73.2839 545.3412,-70.3868"/>
<polygon fill="#191970" stroke="#191970" points="473.6676,-75.9676 464.1887,-80.7005 474.5502,-82.9117 473.6676,-75.9676"/>
</g>
<!-- Node19 -->
<g id="node20" class="node">
<title>Node19</title>
<g id="a_node20"><a xlink:href="classFifoXpm.html" target="_top" xlink:title="FifoXpm">
<polygon fill="#ffffff" stroke="#000000" points="285.5,-74.2111 285.5,-93.2111 341.5,-93.2111 341.5,-74.2111 285.5,-74.2111"/>
<text text-anchor="middle" x="313.5" y="-81.2111" font-family="Helvetica,sans-Serif" font-size="10.00" fill="#000000">FifoXpm</text>
</a>
</g>
</g>
<!-- Node19&#45;&gt;Node18 -->
<g id="edge25" class="edge">
<title>Node19&#45;&gt;Node18</title>
<path fill="none" stroke="#191970" d="M351.9324,-83.7111C373.001,-83.7111 398.4554,-83.7111 416.6589,-83.7111"/>
<polygon fill="#191970" stroke="#191970" points="351.6855,-80.2112 341.6854,-83.7111 351.6854,-87.2112 351.6855,-80.2112"/>
</g>
<!-- Node20 -->
<g id="node21" class="node">
<title>Node20</title>
<g id="a_node21"><a xlink:href="classFifoOutputPipeline.html" target="_top" xlink:title="FifoOutputPipeline">
<polygon fill="#ffffff" stroke="#000000" points="125,-36.2111 125,-55.2111 231,-55.2111 231,-36.2111 125,-36.2111"/>
<text text-anchor="middle" x="178" y="-43.2111" font-family="Helvetica,sans-Serif" font-size="10.00" fill="#000000">FifoOutputPipeline</text>
</a>
</g>
</g>
<!-- Node20&#45;&gt;Node19 -->
<g id="edge26" class="edge">
<title>Node20&#45;&gt;Node19</title>
<path fill="none" stroke="#191970" d="M222.072,-58.0708C242.8353,-63.8937 266.9927,-70.6685 285.2597,-75.7913"/>
<polygon fill="#191970" stroke="#191970" points="222.766,-54.6305 212.1924,-55.3001 220.8758,-61.3704 222.766,-54.6305"/>
</g>
<!-- Node21 -->
<g id="node22" class="node">
<title>Node21</title>
<g id="a_node22"><a xlink:href="classFifoAlteraMf.html" target="_top" xlink:title="FifoAlteraMf">
<polygon fill="#ffffff" stroke="#000000" points="276,-36.2111 276,-55.2111 351,-55.2111 351,-36.2111 276,-36.2111"/>
<text text-anchor="middle" x="313.5" y="-43.2111" font-family="Helvetica,sans-Serif" font-size="10.00" fill="#000000">FifoAlteraMf</text>
</a>
</g>
</g>
<!-- Node20&#45;&gt;Node21 -->
<g id="edge28" class="edge">
<title>Node20&#45;&gt;Node21</title>
<path fill="none" stroke="#191970" d="M241.4613,-45.7111C253.271,-45.7111 265.2552,-45.7111 275.9708,-45.7111"/>
<polygon fill="#191970" stroke="#191970" points="241.1643,-42.2112 231.1643,-45.7111 241.1643,-49.2112 241.1643,-42.2112"/>
</g>
<!-- Node22 -->
<g id="node23" class="node">
<title>Node22</title>
<g id="a_node23"><a xlink:href="classFifoAsync.html" target="_top" xlink:title="FifoAsync">
<polygon fill="#ffffff" stroke="#000000" points="282,-150.2111 282,-169.2111 345,-169.2111 345,-150.2111 282,-150.2111"/>
<text text-anchor="middle" x="313.5" y="-157.2111" font-family="Helvetica,sans-Serif" font-size="10.00" fill="#000000">FifoAsync</text>
</a>
</g>
</g>
<!-- Node20&#45;&gt;Node22 -->
<g id="edge37" class="edge">
<title>Node20&#45;&gt;Node22</title>
<path fill="none" stroke="#191970" d="M233.6666,-60.0357C235.8996,-61.4499 238.0253,-63.0038 240,-64.7111 268.2736,-89.1557 249.9252,-113.9335 276,-140.7111 279.666,-144.4759 284.2362,-147.626 288.912,-150.2092"/>
<polygon fill="#191970" stroke="#191970" points="235.0891,-56.8286 224.6135,-55.2437 231.8143,-63.0154 235.0891,-56.8286"/>
</g>
<!-- Node30 -->
<g id="node31" class="node">
<title>Node30</title>
<g id="a_node31"><a xlink:href="classFifoSync.html" target="_top" xlink:title="FifoSync">
<polygon fill="#ffffff" stroke="#000000" points="285,-112.2111 285,-131.2111 342,-131.2111 342,-112.2111 285,-112.2111"/>
<text text-anchor="middle" x="313.5" y="-119.2111" font-family="Helvetica,sans-Serif" font-size="10.00" fill="#000000">FifoSync</text>
</a>
</g>
</g>
<!-- Node20&#45;&gt;Node30 -->
<g id="edge42" class="edge">
<title>Node20&#45;&gt;Node30</title>
<path fill="none" stroke="#191970" d="M229.1786,-59.0233C232.9464,-60.7135 236.5986,-62.6027 240,-64.7111 259.7738,-76.968 257.3493,-88.8048 276,-102.7111 280.6808,-106.2012 286.0982,-109.3655 291.3347,-112.0667"/>
<polygon fill="#191970" stroke="#191970" points="230.2369,-55.6772 219.6519,-55.2202 227.6415,-62.1784 230.2369,-55.6772"/>
</g>
<!-- Node21&#45;&gt;Node18 -->
<g id="edge27" class="edge">
<title>Node21&#45;&gt;Node18</title>
<path fill="none" stroke="#191970" d="M355.2723,-58.2099C375.7317,-64.3316 399.6128,-71.4772 416.8821,-76.6443"/>
<polygon fill="#191970" stroke="#191970" points="356.1311,-54.8136 345.5475,-55.3001 354.1245,-61.5199 356.1311,-54.8136"/>
</g>
<!-- Node22&#45;&gt;Node18 -->
<g id="edge29" class="edge">
<title>Node22&#45;&gt;Node18</title>
<path fill="none" stroke="#191970" d="M342.116,-145.5803C345.1377,-143.979 348.1466,-142.3374 351,-140.7111 378.3682,-125.1127 409.1075,-104.9204 426.5031,-93.2311"/>
<polygon fill="#191970" stroke="#191970" points="340.4348,-142.5093 333.1558,-150.2077 343.6469,-148.7289 340.4348,-142.5093"/>
</g>
<!-- Node23 -->
<g id="node24" class="node">
<title>Node23</title>
<g id="a_node24"><a xlink:href="classRstSync.html" target="_top" xlink:title="RstSync(2)">
<polygon fill="#ffffff" stroke="#000000" points="143.5,-264.2111 143.5,-283.2111 212.5,-283.2111 212.5,-264.2111 143.5,-264.2111"/>
<text text-anchor="middle" x="178" y="-271.2111" font-family="Helvetica,sans-Serif" font-size="10.00" fill="#000000">RstSync(2)</text>
</a>
</g>
</g>
<!-- Node23&#45;&gt;Node22 -->
<g id="edge30" class="edge">
<title>Node23&#45;&gt;Node22</title>
<path fill="none" stroke="#191970" d="M222.3361,-263.8269C228.5616,-261.4039 234.6519,-258.4081 240,-254.7111 273.4495,-231.5888 298.5866,-188.5714 308.6668,-169.3838"/>
<polygon fill="#191970" stroke="#191970" points="220.8583,-260.6332 212.5292,-267.1813 223.1238,-267.2565 220.8583,-260.6332"/>
</g>
<!-- Node24 -->
<g id="node25" class="node">
<title>Node24</title>
<g id="a_node25"><a xlink:href="classSynchronizer.html" target="_top" xlink:title="Synchronizer">
<polygon fill="#ffffff" stroke="#000000" points="0,-131.2111 0,-150.2111 80,-150.2111 80,-131.2111 0,-131.2111"/>
<text text-anchor="middle" x="40" y="-138.2111" font-family="Helvetica,sans-Serif" font-size="10.00" fill="#000000">Synchronizer</text>
</a>
</g>
</g>
<!-- Node24&#45;&gt;Node15 -->
<g id="edge43" class="edge">
<title>Node24&#45;&gt;Node15</title>
<path fill="none" stroke="#191970" d="M46.8297,-121.2615C57.2356,-94.8351 79.7644,-48.3998 116,-26.7111 191.6648,18.5778 225.317,-7.7111 313.5,-7.7111 313.5,-7.7111 313.5,-7.7111 440.5,-7.7111 535.1304,-7.7111 561.7147,-11.6432 650,-45.7111 680.9054,-57.6371 712.8153,-80.3201 729.5666,-93.1841"/>
<polygon fill="#191970" stroke="#191970" points="43.4394,-120.3354 43.2149,-130.9279 49.9959,-122.7873 43.4394,-120.3354"/>
</g>
<!-- Node24&#45;&gt;Node23 -->
<g id="edge31" class="edge">
<title>Node24&#45;&gt;Node23</title>
<path fill="none" stroke="#191970" d="M47.6632,-159.5415C58.9174,-184.8667 82.2967,-229.6134 116,-254.7111 123.9459,-260.6282 133.7552,-264.7224 143.2078,-267.5478"/>
<polygon fill="#191970" stroke="#191970" points="50.8544,-158.1023 43.7066,-150.2819 44.4174,-160.8529 50.8544,-158.1023"/>
</g>
<!-- Node25 -->
<g id="node26" class="node">
<title>Node25</title>
<g id="a_node26"><a xlink:href="classSynchronizerVector.html" target="_top" xlink:title="SynchronizerVector(2)">
<polygon fill="#ffffff" stroke="#000000" points="116,-226.2111 116,-245.2111 240,-245.2111 240,-226.2111 116,-226.2111"/>
<text text-anchor="middle" x="178" y="-233.2111" font-family="Helvetica,sans-Serif" font-size="10.00" fill="#000000">SynchronizerVector(2)</text>
</a>
</g>
</g>
<!-- Node25&#45;&gt;Node22 -->
<g id="edge32" class="edge">
<title>Node25&#45;&gt;Node22</title>
<path fill="none" stroke="#191970" d="M226.497,-222.7368C231.1534,-220.9329 235.7277,-218.9272 240,-216.7111 264.9417,-203.7738 289.9335,-182.0906 303.3848,-169.5271"/>
<polygon fill="#191970" stroke="#191970" points="225.1392,-219.505 216.8944,-226.1588 227.489,-226.0988 225.1392,-219.505"/>
</g>
<!-- Node26 -->
<g id="node27" class="node">
<title>Node26</title>
<g id="a_node27"><a xlink:href="classSynchronizer.html" target="_top" xlink:title="Synchronizer(2)">
<polygon fill="#ffffff" stroke="#000000" points="131.5,-188.2111 131.5,-207.2111 224.5,-207.2111 224.5,-188.2111 131.5,-188.2111"/>
<text text-anchor="middle" x="178" y="-195.2111" font-family="Helvetica,sans-Serif" font-size="10.00" fill="#000000">Synchronizer(2)</text>
</a>
</g>
</g>
<!-- Node26&#45;&gt;Node22 -->
<g id="edge33" class="edge">
<title>Node26&#45;&gt;Node22</title>
<path fill="none" stroke="#191970" d="M222.0405,-185.3603C241.4689,-179.9117 263.8739,-173.6284 281.6457,-168.6445"/>
<polygon fill="#191970" stroke="#191970" points="220.8758,-182.0518 212.1924,-188.1221 222.766,-188.7918 220.8758,-182.0518"/>
</g>
<!-- Node27 -->
<g id="node28" class="node">
<title>Node27</title>
<g id="a_node28"><a xlink:href="classFifoWrFsm.html" target="_top" xlink:title="FifoWrFsm">
<polygon fill="#ffffff" stroke="#000000" points="144.5,-150.2111 144.5,-169.2111 211.5,-169.2111 211.5,-150.2111 144.5,-150.2111"/>
<text text-anchor="middle" x="178" y="-157.2111" font-family="Helvetica,sans-Serif" font-size="10.00" fill="#000000">FifoWrFsm</text>
</a>
</g>
</g>
<!-- Node27&#45;&gt;Node22 -->
<g id="edge34" class="edge">
<title>Node27&#45;&gt;Node22</title>
<path fill="none" stroke="#191970" d="M222.0405,-159.7111C241.5786,-159.7111 264.1271,-159.7111 281.9463,-159.7111"/>
<polygon fill="#191970" stroke="#191970" points="221.8429,-156.2112 211.8428,-159.7111 221.8428,-163.2112 221.8429,-156.2112"/>
</g>
<!-- Node27&#45;&gt;Node30 -->
<g id="edge39" class="edge">
<title>Node27&#45;&gt;Node30</title>
<path fill="none" stroke="#191970" d="M221.6565,-147.468C242.29,-141.6815 266.3516,-134.9336 284.6694,-129.7965"/>
<polygon fill="#191970" stroke="#191970" points="220.5263,-144.1498 211.8428,-150.2202 222.4165,-150.8898 220.5263,-144.1498"/>
</g>
<!-- Node28 -->
<g id="node29" class="node">
<title>Node28</title>
<g id="a_node29"><a xlink:href="classFifoRdFsm.html" target="_top" xlink:title="FifoRdFsm">
<polygon fill="#ffffff" stroke="#000000" points="144.5,-112.2111 144.5,-131.2111 211.5,-131.2111 211.5,-112.2111 144.5,-112.2111"/>
<text text-anchor="middle" x="178" y="-119.2111" font-family="Helvetica,sans-Serif" font-size="10.00" fill="#000000">FifoRdFsm</text>
</a>
</g>
</g>
<!-- Node28&#45;&gt;Node22 -->
<g id="edge35" class="edge">
<title>Node28&#45;&gt;Node22</title>
<path fill="none" stroke="#191970" d="M221.5011,-133.9107C241.1626,-139.4246 263.9628,-145.8188 281.9463,-150.8621"/>
<polygon fill="#191970" stroke="#191970" points="222.4165,-130.5325 211.8428,-131.2021 220.5263,-137.2724 222.4165,-130.5325"/>
</g>
<!-- Node28&#45;&gt;Node30 -->
<g id="edge40" class="edge">
<title>Node28&#45;&gt;Node30</title>
<path fill="none" stroke="#191970" d="M221.9381,-121.7111C242.5086,-121.7111 266.4348,-121.7111 284.6694,-121.7111"/>
<polygon fill="#191970" stroke="#191970" points="221.8429,-118.2112 211.8428,-121.7111 221.8428,-125.2112 221.8429,-118.2112"/>
</g>
<!-- Node29 -->
<g id="node30" class="node">
<title>Node29</title>
<g id="a_node30"><a xlink:href="classSimpleDualPortRam.html" target="_top" xlink:title="SimpleDualPortRam">
<polygon fill="#ffffff" stroke="#000000" points="120.5,-74.2111 120.5,-93.2111 235.5,-93.2111 235.5,-74.2111 120.5,-74.2111"/>
<text text-anchor="middle" x="178" y="-81.2111" font-family="Helvetica,sans-Serif" font-size="10.00" fill="#000000">SimpleDualPortRam</text>
</a>
</g>
</g>
<!-- Node29&#45;&gt;Node22 -->
<g id="edge36" class="edge">
<title>Node29&#45;&gt;Node22</title>
<path fill="none" stroke="#191970" d="M229.1786,-97.0233C232.9464,-98.7135 236.5986,-100.6027 240,-102.7111 259.7738,-114.968 257.3493,-126.8048 276,-140.7111 280.6808,-144.2012 286.0982,-147.3655 291.3347,-150.0667"/>
<polygon fill="#191970" stroke="#191970" points="230.2369,-93.6772 219.6519,-93.2202 227.6415,-100.1784 230.2369,-93.6772"/>
</g>
<!-- Node29&#45;&gt;Node30 -->
<g id="edge41" class="edge">
<title>Node29&#45;&gt;Node30</title>
<path fill="none" stroke="#191970" d="M222.0012,-96.0509C242.6127,-101.8313 266.5816,-108.5532 284.8157,-113.6668"/>
<polygon fill="#191970" stroke="#191970" points="222.766,-92.6305 212.1924,-93.3001 220.8758,-99.3704 222.766,-92.6305"/>
</g>
<!-- Node30&#45;&gt;Node18 -->
<g id="edge38" class="edge">
<title>Node30&#45;&gt;Node18</title>
<path fill="none" stroke="#191970" d="M351.672,-110.2896C372.8367,-103.9568 398.4912,-96.2807 416.7775,-90.8092"/>
<polygon fill="#191970" stroke="#191970" points="350.5783,-106.9634 342.0013,-113.1832 352.5849,-113.6697 350.5783,-106.9634"/>
</g>
<!-- Node31&#45;&gt;Node10 -->
<g id="edge45" class="edge">
<title>Node31&#45;&gt;Node10</title>
<path fill="none" stroke="#191970" d="M938.2998,-245.4044C946.9938,-244.0045 955.7226,-242.599 963.7306,-241.3096"/>
<polygon fill="#191970" stroke="#191970" points="937.4714,-241.9926 928.155,-247.0379 938.5842,-248.9036 937.4714,-241.9926"/>
</g>
<!-- Node32 -->
<g id="node33" class="node">
<title>Node32</title>
<g id="a_node33"><a xlink:href="classUdpEngineArp.html" target="_top" xlink:title="UdpEngineArp">
<polygon fill="#ffffff" stroke="#000000" points="837.5,-131.2111 837.5,-150.2111 923.5,-150.2111 923.5,-131.2111 837.5,-131.2111"/>
<text text-anchor="middle" x="880.5" y="-138.2111" font-family="Helvetica,sans-Serif" font-size="10.00" fill="#000000">UdpEngineArp</text>
</a>
</g>
</g>
<!-- Node32&#45;&gt;Node10 -->
<g id="edge47" class="edge">
<title>Node32&#45;&gt;Node10</title>
<path fill="none" stroke="#191970" d="M919.3624,-154.5511C922.3727,-156.1315 925.2909,-157.8509 928,-159.7111 955.5956,-178.6598 980.3078,-210.1936 991.759,-226.0218"/>
<polygon fill="#191970" stroke="#191970" points="920.7105,-151.3174 910.1721,-150.2249 917.7291,-157.6508 920.7105,-151.3174"/>
</g>
</g>
</svg>
        <g id="navigator" transform="translate(0 0)" fill="#404254">
                <rect fill="#f2f5e9" fill-opacity="0.5" stroke="#606060" stroke-width=".5" x="0" y="0" width="60" height="60"/>
                <use id="zoomplus" xlink:href="#zoomPlus" x="17" y="9" onmousedown="handleZoom(evt,'in')"/>
                <use id="zoomminus" xlink:href="#zoomMin" x="42" y="9" onmousedown="handleZoom(evt,'out')"/>
                <use id="reset" xlink:href="#resetDef" x="30" y="36" onmousedown="handleReset()"/>
                <g id="arrowUp" xlink:href="#dirArrow" transform="translate(30 24)" onmousedown="handlePan(0,-1)">
                  <use xlink:href="#rim" fill="#404040">
                        <set attributeName="fill" to="#808080" begin="arrowUp.mouseover" end="arrowUp.mouseout"/>
                  </use>
                  <path fill="none" stroke="white" stroke-width="1.5" d="M0,-3.0v7 M-2.5,-0.5L0,-3.0L2.5,-0.5"/>
                </g>
                <g id="arrowRight" xlink:href="#dirArrow" transform="rotate(90) translate(36 -43)" onmousedown="handlePan(1,0)">
                  <use xlink:href="#rim" fill="#404040">
                        <set attributeName="fill" to="#808080" begin="arrowRight.mouseover" end="arrowRight.mouseout"/>
                  </use>
                  <path fill="none" stroke="white" stroke-width="1.5" d="M0,-3.0v7 M-2.5,-0.5L0,-3.0L2.5,-0.5"/>
                </g>
                <g id="arrowDown" xlink:href="#dirArrow" transform="rotate(180) translate(-30 -48)" onmousedown="handlePan(0,1)">
                  <use xlink:href="#rim" fill="#404040">
                        <set attributeName="fill" to="#808080" begin="arrowDown.mouseover" end="arrowDown.mouseout"/>
                  </use>
                  <path fill="none" stroke="white" stroke-width="1.5" d="M0,-3.0v7 M-2.5,-0.5L0,-3.0L2.5,-0.5"/>
                </g>
                <g id="arrowLeft" xlink:href="#dirArrow" transform="rotate(270) translate(-36 17)" onmousedown="handlePan(-1,0)">
                  <use xlink:href="#rim" fill="#404040">
                        <set attributeName="fill" to="#808080" begin="arrowLeft.mouseover" end="arrowLeft.mouseout"/>
                  </use>
                  <path fill="none" stroke="white" stroke-width="1.5" d="M0,-3.0v7 M-2.5,-0.5L0,-3.0L2.5,-0.5"/>
                </g>
        </g>
        <svg viewBox="0 0 15 15" width="100%" height="30px" preserveAspectRatio="xMaxYMin meet">
         <g id="arrow_out" transform="scale(0.3 0.3)">
          <a xlink:href="classUdpEngineWrapper__inherit__graph_org.svg" target="_base">
           <rect id="button" ry="5" rx="5" y="6" x="6" height="38" width="38"
                fill="#f2f5e9" fill-opacity="0.5" stroke="#606060" stroke-width="1.0"/>
           <path id="arrow"
             d="M 11.500037,31.436501 C 11.940474,20.09759 22.043105,11.32322 32.158766,21.979434 L 37.068811,17.246167 C 37.068811,17.246167 37.088388,32 37.088388,32 L 22.160133,31.978069 C 22.160133,31.978069 26.997745,27.140456 26.997745,27.140456 C 18.528582,18.264221 13.291696,25.230495 11.500037,31.436501 z"
             style="fill:#404040;"/>
          </a>
         </g>
        </svg>
</svg>
