<?xml version="1.0" encoding="UTF-8" standalone="no"?>
<!DOCTYPE svg PUBLIC "-//W3C//DTD SVG 1.1//EN"
 "http://www.w3.org/Graphics/SVG/1.1/DTD/svg11.dtd">
<!-- Generated by graphviz version 2.40.1 (20161225.0304)
 -->
<!-- Title: Gtx7TxManualPhaseAligner Pages: 1 -->
<svg width="477pt" height="420pt"
 viewBox="0.00 0.00 476.50 420.00" xmlns="http://www.w3.org/2000/svg" xmlns:xlink="http://www.w3.org/1999/xlink">
<g id="graph0" class="graph" transform="scale(1 1) rotate(0) translate(4 416)">
<title>Gtx7TxManualPhaseAligner</title>
<polygon fill="#ffffff" stroke="transparent" points="-4,4 -4,-416 472.5,-416 472.5,4 -4,4"/>
<!-- Node0 -->
<g id="node1" class="node">
<title>Node0</title>
<polygon fill="#bfbfbf" stroke="#000000" points="76.5,-280.5 76.5,-299.5 227.5,-299.5 227.5,-280.5 76.5,-280.5"/>
<text text-anchor="middle" x="152" y="-287.5" font-family="Helvetica,sans-Serif" font-size="10.00" fill="#000000">Gtx7TxManualPhaseAligner</text>
</g>
<!-- Node4 -->
<g id="node5" class="node">
<title>Node4</title>
<g id="a_node5"><a xlink:href="classGLinkGtx7Core.html" target="_top" xlink:title="GLinkGtx7Core">
<polygon fill="#ffffff" stroke="#000000" points="60,-224.5 60,-243.5 150,-243.5 150,-224.5 60,-224.5"/>
<text text-anchor="middle" x="105" y="-231.5" font-family="Helvetica,sans-Serif" font-size="10.00" fill="#000000">GLinkGtx7Core</text>
</a>
</g>
</g>
<!-- Node0&#45;&gt;Node4 -->
<g id="edge4" class="edge">
<title>Node0&#45;&gt;Node4</title>
<path fill="none" stroke="#191970" d="M137.3128,-272.5004C129.3204,-262.9775 119.7375,-251.5596 113.093,-243.6427"/>
<polygon fill="#191970" stroke="#191970" points="134.7036,-274.8358 143.8132,-280.2455 140.0654,-270.3357 134.7036,-274.8358"/>
</g>
<!-- Node7 -->
<g id="node8" class="node">
<title>Node7</title>
<g id="a_node8"><a xlink:href="classGtx7Core.html" target="_top" xlink:title="Gtx7Core">
<polygon fill="#ffffff" stroke="#000000" points="191,-224.5 191,-243.5 253,-243.5 253,-224.5 191,-224.5"/>
<text text-anchor="middle" x="222" y="-231.5" font-family="Helvetica,sans-Serif" font-size="10.00" fill="#000000">Gtx7Core</text>
</a>
</g>
</g>
<!-- Node0&#45;&gt;Node7 -->
<g id="edge7" class="edge">
<title>Node0&#45;&gt;Node7</title>
<path fill="none" stroke="#191970" d="M172.09,-273.928C184.3253,-264.1397 199.5507,-251.9595 209.9467,-243.6427"/>
<polygon fill="#191970" stroke="#191970" points="169.8153,-271.2655 164.1931,-280.2455 174.1882,-276.7316 169.8153,-271.2655"/>
</g>
<!-- Node1 -->
<g id="node2" class="node">
<title>Node1</title>
<g id="a_node2"><a xlink:href="classSynchronizer.html" target="_top" xlink:title="Synchronizer(2)">
<polygon fill="#ffffff" stroke="#000000" points="47.5,-336.5 47.5,-355.5 140.5,-355.5 140.5,-336.5 47.5,-336.5"/>
<text text-anchor="middle" x="94" y="-343.5" font-family="Helvetica,sans-Serif" font-size="10.00" fill="#000000">Synchronizer(2)</text>
</a>
</g>
</g>
<!-- Node1&#45;&gt;Node0 -->
<g id="edge1" class="edge">
<title>Node1&#45;&gt;Node0</title>
<path fill="none" stroke="#191970" d="M111.5293,-329.0751C121.5083,-319.4402 133.6476,-307.7196 142.0129,-299.6427"/>
<polygon fill="#191970" stroke="#191970" points="108.8658,-326.7817 104.1028,-336.2455 113.728,-331.8175 108.8658,-326.7817"/>
</g>
<!-- Node2 -->
<g id="node3" class="node">
<title>Node2</title>
<g id="a_node3"><a xlink:href="classSynchronizerEdge.html" target="_top" xlink:title="SynchronizerEdge">
<polygon fill="#ffffff" stroke="#000000" points="159,-336.5 159,-355.5 263,-355.5 263,-336.5 159,-336.5"/>
<text text-anchor="middle" x="211" y="-343.5" font-family="Helvetica,sans-Serif" font-size="10.00" fill="#000000">SynchronizerEdge</text>
</a>
</g>
</g>
<!-- Node2&#45;&gt;Node0 -->
<g id="edge2" class="edge">
<title>Node2&#45;&gt;Node0</title>
<path fill="none" stroke="#191970" d="M193.4693,-329.3607C183.2623,-319.6727 170.7531,-307.7995 162.1592,-299.6427"/>
<polygon fill="#191970" stroke="#191970" points="191.0604,-331.8998 200.723,-336.2455 195.8794,-326.8227 191.0604,-331.8998"/>
</g>
<!-- Node3 -->
<g id="node4" class="node">
<title>Node3</title>
<g id="a_node4"><a xlink:href="classSynchronizer.html" target="_top" xlink:title="Synchronizer">
<polygon fill="#ffffff" stroke="#000000" points="171,-392.5 171,-411.5 251,-411.5 251,-392.5 171,-392.5"/>
<text text-anchor="middle" x="211" y="-399.5" font-family="Helvetica,sans-Serif" font-size="10.00" fill="#000000">Synchronizer</text>
</a>
</g>
</g>
<!-- Node3&#45;&gt;Node2 -->
<g id="edge3" class="edge">
<title>Node3&#45;&gt;Node2</title>
<path fill="none" stroke="#191970" d="M211,-382.1575C211,-373.155 211,-362.9199 211,-355.6427"/>
<polygon fill="#191970" stroke="#191970" points="207.5001,-382.2455 211,-392.2455 214.5001,-382.2456 207.5001,-382.2455"/>
</g>
<!-- Node5 -->
<g id="node6" class="node">
<title>Node5</title>
<g id="a_node6"><a xlink:href="classGLinkGtx7FixedLat.html" target="_top" xlink:title="GLinkGtx7FixedLat">
<polygon fill="#ffffff" stroke="#000000" points="28,-168.5 28,-187.5 136,-187.5 136,-168.5 28,-168.5"/>
<text text-anchor="middle" x="82" y="-175.5" font-family="Helvetica,sans-Serif" font-size="10.00" fill="#000000">GLinkGtx7FixedLat</text>
</a>
</g>
</g>
<!-- Node4&#45;&gt;Node5 -->
<g id="edge5" class="edge">
<title>Node4&#45;&gt;Node5</title>
<path fill="none" stroke="#191970" d="M97.0934,-214.7493C93.3383,-205.6064 89.0149,-195.0798 85.9604,-187.6427"/>
<polygon fill="#191970" stroke="#191970" points="93.9569,-216.3251 100.9937,-224.2455 100.432,-213.6656 93.9569,-216.3251"/>
</g>
<!-- Node6 -->
<g id="node7" class="node">
<title>Node6</title>
<g id="a_node7"><a xlink:href="classGLinkGtx7FixedLatTb.html" target="_top" xlink:title="GLinkGtx7FixedLatTb">
<polygon fill="#ffffff" stroke="#000000" points="8,-112.5 8,-131.5 128,-131.5 128,-112.5 8,-112.5"/>
<text text-anchor="middle" x="68" y="-119.5" font-family="Helvetica,sans-Serif" font-size="10.00" fill="#000000">GLinkGtx7FixedLatTb</text>
</a>
</g>
</g>
<!-- Node5&#45;&gt;Node6 -->
<g id="edge6" class="edge">
<title>Node5&#45;&gt;Node6</title>
<path fill="none" stroke="#191970" d="M77.1135,-158.4538C74.8451,-149.3803 72.25,-138.9998 70.4107,-131.6427"/>
<polygon fill="#191970" stroke="#191970" points="73.7405,-159.393 79.5614,-168.2455 80.5315,-157.6952 73.7405,-159.393"/>
</g>
<!-- Node8 -->
<g id="node9" class="node">
<title>Node8</title>
<g id="a_node9"><a xlink:href="classPgp2bGtx7Fixedlat.html" target="_top" xlink:title="Pgp2bGtx7Fixedlat">
<polygon fill="#ffffff" stroke="#000000" points="168,-168.5 168,-187.5 276,-187.5 276,-168.5 168,-168.5"/>
<text text-anchor="middle" x="222" y="-175.5" font-family="Helvetica,sans-Serif" font-size="10.00" fill="#000000">Pgp2bGtx7Fixedlat</text>
</a>
</g>
</g>
<!-- Node7&#45;&gt;Node8 -->
<g id="edge8" class="edge">
<title>Node7&#45;&gt;Node8</title>
<path fill="none" stroke="#191970" d="M222,-214.1575C222,-205.155 222,-194.9199 222,-187.6427"/>
<polygon fill="#191970" stroke="#191970" points="218.5001,-214.2455 222,-224.2455 225.5001,-214.2456 218.5001,-214.2455"/>
</g>
<!-- Node12 -->
<g id="node13" class="node">
<title>Node12</title>
<g id="a_node13"><a xlink:href="classPgp2bGtx7MultiLane.html" target="_top" xlink:title="Pgp2bGtx7MultiLane">
<polygon fill="#ffffff" stroke="#000000" points="307.5,-168.5 307.5,-187.5 424.5,-187.5 424.5,-168.5 307.5,-168.5"/>
<text text-anchor="middle" x="366" y="-175.5" font-family="Helvetica,sans-Serif" font-size="10.00" fill="#000000">Pgp2bGtx7MultiLane</text>
</a>
</g>
</g>
<!-- Node7&#45;&gt;Node12 -->
<g id="edge12" class="edge">
<title>Node7&#45;&gt;Node12</title>
<path fill="none" stroke="#191970" d="M256.3182,-220.6541C282.578,-210.4419 318.1492,-196.6086 341.5685,-187.5011"/>
<polygon fill="#191970" stroke="#191970" points="254.806,-217.4867 246.7545,-224.3733 257.3431,-224.0108 254.806,-217.4867"/>
</g>
<!-- Node9 -->
<g id="node10" class="node">
<title>Node9</title>
<g id="a_node10"><a xlink:href="classPgp2bGtx7FixedLatWrapper.html" target="_top" xlink:title="Pgp2bGtx7FixedLatWrapper">
<polygon fill="#ffffff" stroke="#000000" points="146.5,-112.5 146.5,-131.5 297.5,-131.5 297.5,-112.5 146.5,-112.5"/>
<text text-anchor="middle" x="222" y="-119.5" font-family="Helvetica,sans-Serif" font-size="10.00" fill="#000000">Pgp2bGtx7FixedLatWrapper</text>
</a>
</g>
</g>
<!-- Node8&#45;&gt;Node9 -->
<g id="edge9" class="edge">
<title>Node8&#45;&gt;Node9</title>
<path fill="none" stroke="#191970" d="M222,-158.1575C222,-149.155 222,-138.9199 222,-131.6427"/>
<polygon fill="#191970" stroke="#191970" points="218.5001,-158.2455 222,-168.2455 225.5001,-158.2456 218.5001,-158.2455"/>
</g>
<!-- Node10 -->
<g id="node11" class="node">
<title>Node10</title>
<g id="a_node11"><a xlink:href="classPgp2bGtx7FixedLatTb.html" target="_top" xlink:title="Pgp2bGtx7FixedLatTb">
<polygon fill="#ffffff" stroke="#000000" points="0,-56.5 0,-75.5 122,-75.5 122,-56.5 0,-56.5"/>
<text text-anchor="middle" x="61" y="-63.5" font-family="Helvetica,sans-Serif" font-size="10.00" fill="#000000">Pgp2bGtx7FixedLatTb</text>
</a>
</g>
</g>
<!-- Node9&#45;&gt;Node10 -->
<g id="edge10" class="edge">
<title>Node9&#45;&gt;Node10</title>
<path fill="none" stroke="#191970" d="M184.7889,-109.057C155.3241,-98.8084 114.8459,-84.729 88.3157,-75.5011"/>
<polygon fill="#191970" stroke="#191970" points="183.7283,-112.3937 194.3231,-112.3733 186.028,-105.7822 183.7283,-112.3937"/>
</g>
<!-- Node11 -->
<g id="node12" class="node">
<title>Node11</title>
<g id="a_node12"><a xlink:href="classPgp2bGtx7FixedLatWrapperTb.html" target="_top" xlink:title="Pgp2bGtx7FixedLatWrapperTb">
<polygon fill="#ffffff" stroke="#000000" points="140.5,-56.5 140.5,-75.5 303.5,-75.5 303.5,-56.5 140.5,-56.5"/>
<text text-anchor="middle" x="222" y="-63.5" font-family="Helvetica,sans-Serif" font-size="10.00" fill="#000000">Pgp2bGtx7FixedLatWrapperTb</text>
</a>
</g>
</g>
<!-- Node9&#45;&gt;Node11 -->
<g id="edge11" class="edge">
<title>Node9&#45;&gt;Node11</title>
<path fill="none" stroke="#191970" d="M222,-102.1575C222,-93.155 222,-82.9199 222,-75.6427"/>
<polygon fill="#191970" stroke="#191970" points="218.5001,-102.2455 222,-112.2455 225.5001,-102.2456 218.5001,-102.2455"/>
</g>
<!-- Node13 -->
<g id="node14" class="node">
<title>Node13</title>
<g id="a_node14"><a xlink:href="classPgp2bGtx7VarLat.html" target="_top" xlink:title="Pgp2bGtx7VarLat">
<polygon fill="#ffffff" stroke="#000000" points="328.5,-112.5 328.5,-131.5 429.5,-131.5 429.5,-112.5 328.5,-112.5"/>
<text text-anchor="middle" x="379" y="-119.5" font-family="Helvetica,sans-Serif" font-size="10.00" fill="#000000">Pgp2bGtx7VarLat</text>
</a>
</g>
</g>
<!-- Node12&#45;&gt;Node13 -->
<g id="edge13" class="edge">
<title>Node12&#45;&gt;Node13</title>
<path fill="none" stroke="#191970" d="M370.5375,-158.4538C372.6439,-149.3803 375.0536,-138.9998 376.7615,-131.6427"/>
<polygon fill="#191970" stroke="#191970" points="367.1165,-157.7131 368.2644,-168.2455 373.9351,-159.2961 367.1165,-157.7131"/>
</g>
<!-- Node14 -->
<g id="node15" class="node">
<title>Node14</title>
<g id="a_node15"><a xlink:href="classPgp2bGtx7VarLatWrapper.html" target="_top" xlink:title="Pgp2bGtx7VarLatWrapper">
<polygon fill="#ffffff" stroke="#000000" points="321.5,-56.5 321.5,-75.5 462.5,-75.5 462.5,-56.5 321.5,-56.5"/>
<text text-anchor="middle" x="392" y="-63.5" font-family="Helvetica,sans-Serif" font-size="10.00" fill="#000000">Pgp2bGtx7VarLatWrapper</text>
</a>
</g>
</g>
<!-- Node13&#45;&gt;Node14 -->
<g id="edge14" class="edge">
<title>Node13&#45;&gt;Node14</title>
<path fill="none" stroke="#191970" d="M383.5375,-102.4538C385.6439,-93.3803 388.0536,-82.9998 389.7615,-75.6427"/>
<polygon fill="#191970" stroke="#191970" points="380.1165,-101.7131 381.2644,-112.2455 386.9351,-103.2961 380.1165,-101.7131"/>
</g>
<!-- Node15 -->
<g id="node16" class="node">
<title>Node15</title>
<g id="a_node16"><a xlink:href="classPgp2bGtx7VarLatWrapperTb.html" target="_top" xlink:title="Pgp2bGtx7VarLatWrapperTb">
<polygon fill="#ffffff" stroke="#000000" points="315.5,-.5 315.5,-19.5 468.5,-19.5 468.5,-.5 315.5,-.5"/>
<text text-anchor="middle" x="392" y="-7.5" font-family="Helvetica,sans-Serif" font-size="10.00" fill="#000000">Pgp2bGtx7VarLatWrapperTb</text>
</a>
</g>
</g>
<!-- Node14&#45;&gt;Node15 -->
<g id="edge15" class="edge">
<title>Node14&#45;&gt;Node15</title>
<path fill="none" stroke="#191970" d="M392,-46.1575C392,-37.155 392,-26.9199 392,-19.6427"/>
<polygon fill="#191970" stroke="#191970" points="388.5001,-46.2455 392,-56.2455 395.5001,-46.2456 388.5001,-46.2455"/>
</g>
</g>
</svg>
