<?xml version="1.0" encoding="UTF-8" standalone="no"?>
<!DOCTYPE svg PUBLIC "-//W3C//DTD SVG 1.1//EN"
 "http://www.w3.org/Graphics/SVG/1.1/DTD/svg11.dtd">
<!-- Generated by graphviz version 2.40.1 (20161225.0304)
 -->
<!-- Title: SynchronizerVector Pages: 1 -->
<svg width="761pt" height="1040pt"
 viewBox="0.00 0.00 761.00 1039.64" xmlns="http://www.w3.org/2000/svg" xmlns:xlink="http://www.w3.org/1999/xlink">
<g id="graph0" class="graph" transform="scale(1 1) rotate(0) translate(4 1035.6387)">
<title>SynchronizerVector</title>
<polygon fill="#ffffff" stroke="transparent" points="-4,4 -4,-1035.6387 757,-1035.6387 757,4 -4,4"/>
<!-- Node0 -->
<g id="node1" class="node">
<title>Node0</title>
<polygon fill="#bfbfbf" stroke="#000000" points="0,-518.1387 0,-537.1387 110,-537.1387 110,-518.1387 0,-518.1387"/>
<text text-anchor="middle" x="55" y="-525.1387" font-family="Helvetica,sans-Serif" font-size="10.00" fill="#000000">SynchronizerVector</text>
</g>
<!-- Node1 -->
<g id="node2" class="node">
<title>Node1</title>
<g id="a_node2"><a xlink:href="classAd9249ReadoutGroup.html" target="_top" xlink:title="Ad9249ReadoutGroup">
<polygon fill="#ffffff" stroke="#000000" points="165.5,-1012.1387 165.5,-1031.1387 287.5,-1031.1387 287.5,-1012.1387 165.5,-1012.1387"/>
<text text-anchor="middle" x="226.5" y="-1019.1387" font-family="Helvetica,sans-Serif" font-size="10.00" fill="#000000">Ad9249ReadoutGroup</text>
</a>
</g>
</g>
<!-- Node0&#45;&gt;Node1 -->
<g id="edge1" class="edge">
<title>Node0&#45;&gt;Node1</title>
<path fill="none" stroke="#191970" d="M56.0301,-547.9514C60.6039,-629.981 81.7662,-935.6154 146,-1002.6387 151.3653,-1008.237 158.049,-1012.319 165.2561,-1015.2751"/>
<polygon fill="#191970" stroke="#191970" points="59.5017,-547.325 55.4725,-537.5262 52.5117,-547.6989 59.5017,-547.325"/>
</g>
<!-- Node2 -->
<g id="node3" class="node">
<title>Node2</title>
<g id="a_node3"><a xlink:href="classAxiAds42lb69Core.html" target="_top" xlink:title="AxiAds42lb69Core">
<polygon fill="#ffffff" stroke="#000000" points="173.5,-974.1387 173.5,-993.1387 279.5,-993.1387 279.5,-974.1387 173.5,-974.1387"/>
<text text-anchor="middle" x="226.5" y="-981.1387" font-family="Helvetica,sans-Serif" font-size="10.00" fill="#000000">AxiAds42lb69Core</text>
</a>
</g>
</g>
<!-- Node0&#45;&gt;Node2 -->
<g id="edge2" class="edge">
<title>Node0&#45;&gt;Node2</title>
<path fill="none" stroke="#191970" d="M56.386,-547.8057C62.1293,-625.4348 86.6014,-903.6461 146,-964.6387 153.3135,-972.1485 163.0018,-976.9203 173.1159,-979.905"/>
<polygon fill="#191970" stroke="#191970" points="59.8529,-547.2172 55.6474,-537.4928 52.8708,-547.7173 59.8529,-547.2172"/>
</g>
<!-- Node3 -->
<g id="node4" class="node">
<title>Node3</title>
<g id="a_node4"><a xlink:href="classAxiLtc2270Deser.html" target="_top" xlink:title="AxiLtc2270Deser">
<polygon fill="#ffffff" stroke="#000000" points="177,-936.1387 177,-955.1387 276,-955.1387 276,-936.1387 177,-936.1387"/>
<text text-anchor="middle" x="226.5" y="-943.1387" font-family="Helvetica,sans-Serif" font-size="10.00" fill="#000000">AxiLtc2270Deser</text>
</a>
</g>
</g>
<!-- Node0&#45;&gt;Node3 -->
<g id="edge3" class="edge">
<title>Node0&#45;&gt;Node3</title>
<path fill="none" stroke="#191970" d="M56.7831,-547.4481C63.7337,-620.2448 91.3657,-871.5904 146,-926.6387 154.2947,-934.9962 165.5349,-939.9491 176.9826,-942.821"/>
<polygon fill="#191970" stroke="#191970" points="60.2555,-546.9879 55.8442,-537.3551 53.2856,-547.6363 60.2555,-546.9879"/>
</g>
<!-- Node5 -->
<g id="node6" class="node">
<title>Node5</title>
<g id="a_node6"><a xlink:href="classAxiMemTester.html" target="_top" xlink:title="AxiMemTester">
<polygon fill="#ffffff" stroke="#000000" points="183.5,-898.1387 183.5,-917.1387 269.5,-917.1387 269.5,-898.1387 183.5,-898.1387"/>
<text text-anchor="middle" x="226.5" y="-905.1387" font-family="Helvetica,sans-Serif" font-size="10.00" fill="#000000">AxiMemTester</text>
</a>
</g>
</g>
<!-- Node0&#45;&gt;Node5 -->
<g id="edge5" class="edge">
<title>Node0&#45;&gt;Node5</title>
<path fill="none" stroke="#191970" d="M57.3278,-547.7335C65.6735,-616.3221 96.2671,-839.6536 146,-888.6387 155.9235,-898.413 169.8843,-903.5081 183.3981,-906.0666"/>
<polygon fill="#191970" stroke="#191970" points="60.7609,-546.9632 56.1034,-537.4471 53.81,-547.7907 60.7609,-546.9632"/>
</g>
<!-- Node7 -->
<g id="node8" class="node">
<title>Node7</title>
<g id="a_node8"><a xlink:href="classAxiStreamDmaRingRead.html" target="_top" xlink:title="AxiStreamDmaRingRead">
<polygon fill="#ffffff" stroke="#000000" points="158,-860.1387 158,-879.1387 295,-879.1387 295,-860.1387 158,-860.1387"/>
<text text-anchor="middle" x="226.5" y="-867.1387" font-family="Helvetica,sans-Serif" font-size="10.00" fill="#000000">AxiStreamDmaRingRead</text>
</a>
</g>
</g>
<!-- Node0&#45;&gt;Node7 -->
<g id="edge7" class="edge">
<title>Node0&#45;&gt;Node7</title>
<path fill="none" stroke="#191970" d="M57.9509,-547.6538C67.7338,-611.3313 101.0501,-807.5741 146,-850.6387 149.9402,-854.4136 154.4844,-857.4865 159.3664,-859.9826"/>
<polygon fill="#191970" stroke="#191970" points="61.3527,-546.7396 56.4006,-537.3734 54.4309,-547.7835 61.3527,-546.7396"/>
</g>
<!-- Node8 -->
<g id="node9" class="node">
<title>Node8</title>
<g id="a_node9"><a xlink:href="classClinkData.html" target="_top" xlink:title="ClinkData">
<polygon fill="#ffffff" stroke="#000000" points="194,-822.1387 194,-841.1387 259,-841.1387 259,-822.1387 194,-822.1387"/>
<text text-anchor="middle" x="226.5" y="-829.1387" font-family="Helvetica,sans-Serif" font-size="10.00" fill="#000000">ClinkData</text>
</a>
</g>
</g>
<!-- Node0&#45;&gt;Node8 -->
<g id="edge8" class="edge">
<title>Node0&#45;&gt;Node8</title>
<path fill="none" stroke="#191970" d="M58.7291,-547.5631C70.0634,-606.0425 105.7967,-775.4283 146,-812.6387 158.857,-824.5386 177.7422,-829.4115 193.9899,-831.2524"/>
<polygon fill="#191970" stroke="#191970" points="62.1057,-546.5848 56.7935,-537.418 55.2297,-547.8968 62.1057,-546.5848"/>
</g>
<!-- Node10 -->
<g id="node11" class="node">
<title>Node10</title>
<g id="a_node11"><a xlink:href="classCode12b14bTb.html" target="_top" xlink:title="Code12b14bTb">
<polygon fill="#ffffff" stroke="#000000" points="182,-784.1387 182,-803.1387 271,-803.1387 271,-784.1387 182,-784.1387"/>
<text text-anchor="middle" x="226.5" y="-791.1387" font-family="Helvetica,sans-Serif" font-size="10.00" fill="#000000">Code12b14bTb</text>
</a>
</g>
</g>
<!-- Node0&#45;&gt;Node10 -->
<g id="edge10" class="edge">
<title>Node0&#45;&gt;Node10</title>
<path fill="none" stroke="#191970" d="M56.1685,-547.2592C60.058,-594.1165 76.624,-713.2003 146,-774.6387 155.8902,-783.3973 169.0684,-788.3145 181.894,-791.0202"/>
<polygon fill="#191970" stroke="#191970" points="59.6543,-546.9361 55.4424,-537.2145 52.6725,-547.4409 59.6543,-546.9361"/>
</g>
<!-- Node11 -->
<g id="node12" class="node">
<title>Node11</title>
<g id="a_node12"><a xlink:href="classDeviceDna7Series.html" target="_top" xlink:title="DeviceDna7Series">
<polygon fill="#ffffff" stroke="#000000" points="173.5,-746.1387 173.5,-765.1387 279.5,-765.1387 279.5,-746.1387 173.5,-746.1387"/>
<text text-anchor="middle" x="226.5" y="-753.1387" font-family="Helvetica,sans-Serif" font-size="10.00" fill="#000000">DeviceDna7Series</text>
</a>
</g>
</g>
<!-- Node0&#45;&gt;Node11 -->
<g id="edge11" class="edge">
<title>Node0&#45;&gt;Node11</title>
<path fill="none" stroke="#191970" d="M57.6506,-547.3144C64.3452,-588.9884 85.9076,-686.4368 146,-736.6387 153.8243,-743.1752 163.5006,-747.5475 173.3997,-750.4532"/>
<polygon fill="#191970" stroke="#191970" points="61.0998,-546.7136 56.1659,-537.3378 54.1761,-547.744 61.0998,-546.7136"/>
</g>
<!-- Node17 -->
<g id="node14" class="node">
<title>Node17</title>
<g id="a_node14"><a xlink:href="classDeviceDnaUltraScale.html" target="_top" xlink:title="DeviceDnaUltraScale">
<polygon fill="#ffffff" stroke="#000000" points="166.5,-708.1387 166.5,-727.1387 286.5,-727.1387 286.5,-708.1387 166.5,-708.1387"/>
<text text-anchor="middle" x="226.5" y="-715.1387" font-family="Helvetica,sans-Serif" font-size="10.00" fill="#000000">DeviceDnaUltraScale</text>
</a>
</g>
</g>
<!-- Node0&#45;&gt;Node17 -->
<g id="edge13" class="edge">
<title>Node0&#45;&gt;Node17</title>
<path fill="none" stroke="#191970" d="M60.2761,-547.0092C70.7174,-581.6634 97.3258,-654.3144 146,-693.6387 153.8273,-699.9625 163.2834,-704.6209 172.9214,-708.0522"/>
<polygon fill="#191970" stroke="#191970" points="63.5772,-545.8244 57.4466,-537.1834 56.8505,-547.7615 63.5772,-545.8244"/>
</g>
<!-- Node19 -->
<g id="node16" class="node">
<title>Node19</title>
<g id="a_node16"><a xlink:href="classGigEthReg.html" target="_top" xlink:title="GigEthReg">
<polygon fill="#ffffff" stroke="#000000" points="375.5,-366.1387 375.5,-385.1387 442.5,-385.1387 442.5,-366.1387 375.5,-366.1387"/>
<text text-anchor="middle" x="409" y="-373.1387" font-family="Helvetica,sans-Serif" font-size="10.00" fill="#000000">GigEthReg</text>
</a>
</g>
</g>
<!-- Node0&#45;&gt;Node19 -->
<g id="edge16" class="edge">
<title>Node0&#45;&gt;Node19</title>
<path fill="none" stroke="#191970" d="M67.0263,-509.6721C82.5947,-487.901 111.8188,-451.7656 146,-432.6387 185.1398,-410.737 313.5074,-389.6254 375.245,-380.4384"/>
<polygon fill="#191970" stroke="#191970" points="64.0493,-507.8228 61.2156,-518.0317 69.7971,-511.8182 64.0493,-507.8228"/>
</g>
<!-- Node34 -->
<g id="node23" class="node">
<title>Node34</title>
<g id="a_node23"><a xlink:href="classIprog7SeriesCore.html" target="_top" xlink:title="Iprog7SeriesCore">
<polygon fill="#ffffff" stroke="#000000" points="176.5,-632.1387 176.5,-651.1387 276.5,-651.1387 276.5,-632.1387 176.5,-632.1387"/>
<text text-anchor="middle" x="226.5" y="-639.1387" font-family="Helvetica,sans-Serif" font-size="10.00" fill="#000000">Iprog7SeriesCore</text>
</a>
</g>
</g>
<!-- Node0&#45;&gt;Node34 -->
<g id="edge23" class="edge">
<title>Node0&#45;&gt;Node34</title>
<path fill="none" stroke="#191970" d="M68.4457,-545.443C84.6869,-565.7511 113.8595,-598.5988 146,-617.6387 156.4142,-623.808 168.5374,-628.4998 180.1668,-632.0235"/>
<polygon fill="#191970" stroke="#191970" points="71.0298,-543.0653 62.1173,-537.3366 65.512,-547.3728 71.0298,-543.0653"/>
</g>
<!-- Node40 -->
<g id="node27" class="node">
<title>Node40</title>
<g id="a_node27"><a xlink:href="classIprogUltraScale.html" target="_top" xlink:title="IprogUltraScale">
<polygon fill="#ffffff" stroke="#000000" points="363,-708.1387 363,-727.1387 455,-727.1387 455,-708.1387 363,-708.1387"/>
<text text-anchor="middle" x="409" y="-715.1387" font-family="Helvetica,sans-Serif" font-size="10.00" fill="#000000">IprogUltraScale</text>
</a>
</g>
</g>
<!-- Node0&#45;&gt;Node40 -->
<g id="edge27" class="edge">
<title>Node0&#45;&gt;Node40</title>
<path fill="none" stroke="#191970" d="M62.5181,-546.7191C75.125,-576.0939 103.4071,-631.9914 146,-660.6387 155.0133,-666.7009 289.765,-694.0439 362.7835,-708.5438"/>
<polygon fill="#191970" stroke="#191970" points="65.6375,-545.1031 58.5851,-537.1965 59.1676,-547.7753 65.6375,-545.1031"/>
</g>
<!-- Node41 -->
<g id="node28" class="node">
<title>Node41</title>
<g id="a_node28"><a xlink:href="classJesd204bTx.html" target="_top" xlink:title="Jesd204bTx">
<polygon fill="#ffffff" stroke="#ff0000" points="541,-575.1387 541,-594.1387 614,-594.1387 614,-575.1387 541,-575.1387"/>
<text text-anchor="middle" x="577.5" y="-582.1387" font-family="Helvetica,sans-Serif" font-size="10.00" fill="#000000">Jesd204bTx</text>
</a>
</g>
</g>
<!-- Node0&#45;&gt;Node41 -->
<g id="edge29" class="edge">
<title>Node0&#45;&gt;Node41</title>
<path fill="none" stroke="#191970" d="M73.9306,-543.9936C91.3367,-557.8713 118.5365,-576.7476 146,-584.6387 287.12,-625.1868 465.0874,-603.6456 540.7576,-591.3208"/>
<polygon fill="#191970" stroke="#191970" points="75.7165,-540.9304 65.7715,-537.2768 71.2675,-546.3347 75.7165,-540.9304"/>
</g>
<!-- Node43 -->
<g id="node30" class="node">
<title>Node43</title>
<g id="a_node30"><a xlink:href="classJesdRxReg.html" target="_top" xlink:title="JesdRxReg">
<polygon fill="#ffffff" stroke="#000000" points="375,-252.1387 375,-271.1387 443,-271.1387 443,-252.1387 375,-252.1387"/>
<text text-anchor="middle" x="409" y="-259.1387" font-family="Helvetica,sans-Serif" font-size="10.00" fill="#000000">JesdRxReg</text>
</a>
</g>
</g>
<!-- Node0&#45;&gt;Node43 -->
<g id="edge31" class="edge">
<title>Node0&#45;&gt;Node43</title>
<path fill="none" stroke="#191970" d="M61.9374,-508.6315C74.0376,-478.3202 101.9919,-419.4242 146,-389.6387 206.4907,-348.6975 242.0775,-390.1107 307,-356.6387 349.1575,-334.9037 386.5518,-290.7631 401.7647,-271.2662"/>
<polygon fill="#191970" stroke="#191970" points="58.632,-507.4762 58.3183,-518.0664 65.1676,-509.9832 58.632,-507.4762"/>
</g>
<!-- Node45 -->
<g id="node32" class="node">
<title>Node45</title>
<g id="a_node32"><a xlink:href="classPgp2bTx.html" target="_top" xlink:title="Pgp2bTx">
<polygon fill="#ffffff" stroke="#000000" points="197,-556.1387 197,-575.1387 256,-575.1387 256,-556.1387 197,-556.1387"/>
<text text-anchor="middle" x="226.5" y="-563.1387" font-family="Helvetica,sans-Serif" font-size="10.00" fill="#000000">Pgp2bTx</text>
</a>
</g>
</g>
<!-- Node0&#45;&gt;Node45 -->
<g id="edge34" class="edge">
<title>Node0&#45;&gt;Node45</title>
<path fill="none" stroke="#191970" d="M108.3414,-539.4578C137.5677,-545.9336 172.6833,-553.7143 196.9998,-559.1022"/>
<polygon fill="#191970" stroke="#191970" points="108.7971,-535.9739 98.2767,-537.2277 107.2827,-542.8082 108.7971,-535.9739"/>
</g>
<!-- Node68 -->
<g id="node34" class="node">
<title>Node68</title>
<g id="a_node34"><a xlink:href="classPgp3Tx.html" target="_top" xlink:title="Pgp3Tx">
<polygon fill="#ffffff" stroke="#000000" points="200,-518.1387 200,-537.1387 253,-537.1387 253,-518.1387 200,-518.1387"/>
<text text-anchor="middle" x="226.5" y="-525.1387" font-family="Helvetica,sans-Serif" font-size="10.00" fill="#000000">Pgp3Tx</text>
</a>
</g>
</g>
<!-- Node0&#45;&gt;Node68 -->
<g id="edge36" class="edge">
<title>Node0&#45;&gt;Node68</title>
<path fill="none" stroke="#191970" d="M120.2219,-527.6387C147.8362,-527.6387 178.468,-527.6387 199.7237,-527.6387"/>
<polygon fill="#191970" stroke="#191970" points="120.2077,-524.1388 110.2077,-527.6387 120.2077,-531.1388 120.2077,-524.1388"/>
</g>
<!-- Node78 -->
<g id="node37" class="node">
<title>Node78</title>
<g id="a_node37"><a xlink:href="classPgpEthAxiL.html" target="_top" xlink:title="PgpEthAxiL">
<polygon fill="#ffffff" stroke="#ff0000" points="191,-480.1387 191,-499.1387 262,-499.1387 262,-480.1387 191,-480.1387"/>
<text text-anchor="middle" x="226.5" y="-487.1387" font-family="Helvetica,sans-Serif" font-size="10.00" fill="#000000">PgpEthAxiL</text>
</a>
</g>
</g>
<!-- Node0&#45;&gt;Node78 -->
<g id="edge39" class="edge">
<title>Node0&#45;&gt;Node78</title>
<path fill="none" stroke="#191970" d="M108.286,-515.8319C135.1077,-509.8889 166.9008,-502.8443 190.7567,-497.5585"/>
<polygon fill="#191970" stroke="#191970" points="107.2827,-512.4692 98.2767,-518.0497 108.7971,-519.3035 107.2827,-512.4692"/>
</g>
<!-- Node83 -->
<g id="node39" class="node">
<title>Node83</title>
<g id="a_node39"><a xlink:href="classRssiAxiLiteRegItf.html" target="_top" xlink:title="RssiAxiLiteRegItf">
<polygon fill="#ffffff" stroke="#ff0000" points="177,-442.1387 177,-461.1387 276,-461.1387 276,-442.1387 177,-442.1387"/>
<text text-anchor="middle" x="226.5" y="-449.1387" font-family="Helvetica,sans-Serif" font-size="10.00" fill="#000000">RssiAxiLiteRegItf</text>
</a>
</g>
</g>
<!-- Node0&#45;&gt;Node83 -->
<g id="edge41" class="edge">
<title>Node0&#45;&gt;Node83</title>
<path fill="none" stroke="#191970" d="M75.6582,-511.9256C93.4347,-499.1041 120.2191,-481.4078 146,-470.6387 155.6726,-466.5983 166.3746,-463.3172 176.7324,-460.6909"/>
<polygon fill="#191970" stroke="#191970" points="73.2159,-509.3772 67.2364,-518.1234 77.365,-515.0151 73.2159,-509.3772"/>
</g>
<!-- Node33 -->
<g id="node41" class="node">
<title>Node33</title>
<g id="a_node41"><a xlink:href="classSgmiiDp83867LvdsUltraScale.html" target="_top" xlink:title="SgmiiDp83867LvdsUltraScale">
<polygon fill="#ffffff" stroke="#ff0000" points="146,-328.1387 146,-347.1387 307,-347.1387 307,-328.1387 146,-328.1387"/>
<text text-anchor="middle" x="226.5" y="-335.1387" font-family="Helvetica,sans-Serif" font-size="10.00" fill="#000000">SgmiiDp83867LvdsUltraScale</text>
</a>
</g>
</g>
<!-- Node0&#45;&gt;Node33 -->
<g id="edge43" class="edge">
<title>Node0&#45;&gt;Node33</title>
<path fill="none" stroke="#191970" d="M60.2761,-508.2682C70.7174,-473.614 97.3258,-400.963 146,-361.6387 153.8273,-355.3149 163.2834,-350.6565 172.9214,-347.2252"/>
<polygon fill="#191970" stroke="#191970" points="56.8505,-507.5159 57.4466,-518.094 63.5772,-509.453 56.8505,-507.5159"/>
</g>
<!-- Node93 -->
<g id="node42" class="node">
<title>Node93</title>
<g id="a_node42"><a xlink:href="classSrpV3AxiLite.html" target="_top" xlink:title="SrpV3AxiLite">
<polygon fill="#ffffff" stroke="#ff0000" points="187,-290.1387 187,-309.1387 266,-309.1387 266,-290.1387 187,-290.1387"/>
<text text-anchor="middle" x="226.5" y="-297.1387" font-family="Helvetica,sans-Serif" font-size="10.00" fill="#000000">SrpV3AxiLite</text>
</a>
</g>
</g>
<!-- Node0&#45;&gt;Node93 -->
<g id="edge44" class="edge">
<title>Node0&#45;&gt;Node93</title>
<path fill="none" stroke="#191970" d="M57.6506,-507.963C64.3452,-466.289 85.9076,-368.8406 146,-318.6387 157.3508,-309.1561 172.5991,-304.2284 186.7712,-301.7252"/>
<polygon fill="#191970" stroke="#191970" points="54.1761,-507.5333 56.1659,-517.9396 61.0998,-508.5638 54.1761,-507.5333"/>
</g>
<!-- Node94 -->
<g id="node43" class="node">
<title>Node94</title>
<g id="a_node43"><a xlink:href="classSrpV3Core.html" target="_top" xlink:title="SrpV3Core">
<polygon fill="#ffffff" stroke="#ff0000" points="192.5,-252.1387 192.5,-271.1387 260.5,-271.1387 260.5,-252.1387 192.5,-252.1387"/>
<text text-anchor="middle" x="226.5" y="-259.1387" font-family="Helvetica,sans-Serif" font-size="10.00" fill="#000000">SrpV3Core</text>
</a>
</g>
</g>
<!-- Node0&#45;&gt;Node94 -->
<g id="edge45" class="edge">
<title>Node0&#45;&gt;Node94</title>
<path fill="none" stroke="#191970" d="M56.1685,-508.0182C60.058,-461.1609 76.624,-342.0771 146,-280.6387 158.5777,-269.5 176.4733,-264.5741 192.1986,-262.5088"/>
<polygon fill="#191970" stroke="#191970" points="52.6725,-507.8365 55.4424,-518.0629 59.6543,-508.3413 52.6725,-507.8365"/>
</g>
<!-- Node97 -->
<g id="node44" class="node">
<title>Node97</title>
<g id="a_node44"><a xlink:href="classSyncStatusVector.html" target="_top" xlink:title="SyncStatusVector">
<polygon fill="#ffffff" stroke="#ff0000" points="176,-214.1387 176,-233.1387 277,-233.1387 277,-214.1387 176,-214.1387"/>
<text text-anchor="middle" x="226.5" y="-221.1387" font-family="Helvetica,sans-Serif" font-size="10.00" fill="#000000">SyncStatusVector</text>
</a>
</g>
</g>
<!-- Node0&#45;&gt;Node97 -->
<g id="edge46" class="edge">
<title>Node0&#45;&gt;Node97</title>
<path fill="none" stroke="#191970" d="M58.7291,-507.7143C70.0634,-449.2349 105.7967,-279.8491 146,-242.6387 154.22,-235.0306 164.9042,-230.2948 175.7877,-227.3873"/>
<polygon fill="#191970" stroke="#191970" points="55.2297,-507.3806 56.7935,-517.8594 62.1057,-508.6926 55.2297,-507.3806"/>
</g>
<!-- Node102 -->
<g id="node45" class="node">
<title>Node102</title>
<g id="a_node45"><a xlink:href="classTenGigEthReg.html" target="_top" xlink:title="TenGigEthReg">
<polygon fill="#ffffff" stroke="#ff0000" points="367.5,-100.1387 367.5,-119.1387 450.5,-119.1387 450.5,-100.1387 367.5,-100.1387"/>
<text text-anchor="middle" x="409" y="-107.1387" font-family="Helvetica,sans-Serif" font-size="10.00" fill="#000000">TenGigEthReg</text>
</a>
</g>
</g>
<!-- Node0&#45;&gt;Node102 -->
<g id="edge57" class="edge">
<title>Node0&#45;&gt;Node102</title>
<path fill="none" stroke="#191970" d="M56.581,-507.8191C62.818,-435.0225 88.2551,-184.0206 146,-133.6387 207.6684,-79.8335 311.2035,-89.393 368.2389,-100.1122"/>
<polygon fill="#191970" stroke="#191970" points="53.0823,-507.6591 55.7428,-517.9144 60.0583,-508.2383 53.0823,-507.6591"/>
</g>
<!-- Node103 -->
<g id="node46" class="node">
<title>Node103</title>
<g id="a_node46"><a xlink:href="classTenGigEthGth7.html" target="_top" xlink:title="TenGigEthGth7">
<polygon fill="#ffffff" stroke="#ff0000" points="533,-138.1387 533,-157.1387 622,-157.1387 622,-138.1387 533,-138.1387"/>
<text text-anchor="middle" x="577.5" y="-145.1387" font-family="Helvetica,sans-Serif" font-size="10.00" fill="#000000">TenGigEthGth7</text>
</a>
</g>
</g>
<!-- Node0&#45;&gt;Node103 -->
<g id="edge54" class="edge">
<title>Node0&#45;&gt;Node103</title>
<path fill="none" stroke="#191970" d="M56.998,-507.8196C64.3507,-439.2132 92.3076,-213.6298 146,-169.6387 204.0226,-122.0998 434.7516,-135.4127 532.919,-143.5119"/>
<polygon fill="#191970" stroke="#191970" points="53.4837,-507.7758 55.9278,-518.0849 60.446,-508.5017 53.4837,-507.7758"/>
</g>
<!-- Node105 -->
<g id="node47" class="node">
<title>Node105</title>
<g id="a_node47"><a xlink:href="classTenGigEthGthUltraScale.html" target="_top" xlink:title="TenGigEthGthUltraScale">
<polygon fill="#ffffff" stroke="#ff0000" points="511,-91.1387 511,-110.1387 644,-110.1387 644,-91.1387 511,-91.1387"/>
<text text-anchor="middle" x="577.5" y="-98.1387" font-family="Helvetica,sans-Serif" font-size="10.00" fill="#000000">TenGigEthGthUltraScale</text>
</a>
</g>
</g>
<!-- Node0&#45;&gt;Node105 -->
<g id="edge55" class="edge">
<title>Node0&#45;&gt;Node105</title>
<path fill="none" stroke="#191970" d="M55.942,-507.4542C60.0838,-428.5622 79.5384,-142.7364 146,-88.6387 202.7414,-42.4529 423.9354,-73.6989 525.7208,-91.1295"/>
<polygon fill="#191970" stroke="#191970" points="52.4232,-507.7467 55.421,-517.9086 59.4145,-508.0952 52.4232,-507.7467"/>
</g>
<!-- Node107 -->
<g id="node48" class="node">
<title>Node107</title>
<g id="a_node48"><a xlink:href="classTenGigEthGtx7.html" target="_top" xlink:title="TenGigEthGtx7">
<polygon fill="#ffffff" stroke="#ff0000" points="533,-34.1387 533,-53.1387 622,-53.1387 622,-34.1387 533,-34.1387"/>
<text text-anchor="middle" x="577.5" y="-41.1387" font-family="Helvetica,sans-Serif" font-size="10.00" fill="#000000">TenGigEthGtx7</text>
</a>
</g>
</g>
<!-- Node0&#45;&gt;Node107 -->
<g id="edge56" class="edge">
<title>Node0&#45;&gt;Node107</title>
<path fill="none" stroke="#191970" d="M55.7243,-507.8366C59.1415,-426.5809 76.5247,-120.2174 146,-60.6387 263.6634,40.2638 472.7168,-10.7267 548.7985,-34.0806"/>
<polygon fill="#191970" stroke="#191970" points="52.215,-508.0051 55.317,-518.1356 59.2096,-508.2818 52.215,-508.0051"/>
</g>
<!-- Node111 -->
<g id="node49" class="node">
<title>Node111</title>
<g id="a_node49"><a xlink:href="classXauiReg.html" target="_top" xlink:title="XauiReg">
<polygon fill="#ffffff" stroke="#ff0000" points="381,-195.1387 381,-214.1387 437,-214.1387 437,-195.1387 381,-195.1387"/>
<text text-anchor="middle" x="409" y="-202.1387" font-family="Helvetica,sans-Serif" font-size="10.00" fill="#000000">XauiReg</text>
</a>
</g>
</g>
<!-- Node0&#45;&gt;Node111 -->
<g id="edge58" class="edge">
<title>Node0&#45;&gt;Node111</title>
<path fill="none" stroke="#191970" d="M57.4581,-508.0022C65.9297,-443.848 96.1595,-242.3777 146,-204.6387 216.4372,-151.3039 330.6512,-178.5963 382.2214,-195.1017"/>
<polygon fill="#191970" stroke="#191970" points="53.9757,-507.6422 56.168,-518.0078 60.9182,-508.5375 53.9757,-507.6422"/>
</g>
<!-- Node4 -->
<g id="node5" class="node">
<title>Node4</title>
<g id="a_node5"><a xlink:href="classAxiLtc2270Core.html" target="_top" xlink:title="AxiLtc2270Core">
<polygon fill="#ffffff" stroke="#000000" points="362.5,-936.1387 362.5,-955.1387 455.5,-955.1387 455.5,-936.1387 362.5,-936.1387"/>
<text text-anchor="middle" x="409" y="-943.1387" font-family="Helvetica,sans-Serif" font-size="10.00" fill="#000000">AxiLtc2270Core</text>
</a>
</g>
</g>
<!-- Node3&#45;&gt;Node4 -->
<g id="edge4" class="edge">
<title>Node3&#45;&gt;Node4</title>
<path fill="none" stroke="#191970" d="M286.6801,-945.6387C311.2857,-945.6387 339.3141,-945.6387 362.3275,-945.6387"/>
<polygon fill="#191970" stroke="#191970" points="286.369,-942.1388 276.3689,-945.6387 286.3689,-949.1388 286.369,-942.1388"/>
</g>
<!-- Node6 -->
<g id="node7" class="node">
<title>Node6</title>
<g id="a_node7"><a xlink:href="classAxiRamTb.html" target="_top" xlink:title="AxiRamTb">
<polygon fill="#ffffff" stroke="#000000" points="375.5,-898.1387 375.5,-917.1387 442.5,-917.1387 442.5,-898.1387 375.5,-898.1387"/>
<text text-anchor="middle" x="409" y="-905.1387" font-family="Helvetica,sans-Serif" font-size="10.00" fill="#000000">AxiRamTb</text>
</a>
</g>
</g>
<!-- Node5&#45;&gt;Node6 -->
<g id="edge6" class="edge">
<title>Node5&#45;&gt;Node6</title>
<path fill="none" stroke="#191970" d="M279.9316,-907.6387C310.8263,-907.6387 348.7482,-907.6387 375.4686,-907.6387"/>
<polygon fill="#191970" stroke="#191970" points="279.75,-904.1388 269.75,-907.6387 279.7499,-911.1388 279.75,-904.1388"/>
</g>
<!-- Node9 -->
<g id="node10" class="node">
<title>Node9</title>
<g id="a_node10"><a xlink:href="classClinkTop.html" target="_top" xlink:title="ClinkTop">
<polygon fill="#ffffff" stroke="#000000" points="380,-822.1387 380,-841.1387 438,-841.1387 438,-822.1387 380,-822.1387"/>
<text text-anchor="middle" x="409" y="-829.1387" font-family="Helvetica,sans-Serif" font-size="10.00" fill="#000000">ClinkTop</text>
</a>
</g>
</g>
<!-- Node8&#45;&gt;Node9 -->
<g id="edge9" class="edge">
<title>Node8&#45;&gt;Node9</title>
<path fill="none" stroke="#191970" d="M269.2611,-831.6387C303.3352,-831.6387 350.1228,-831.6387 379.9642,-831.6387"/>
<polygon fill="#191970" stroke="#191970" points="269.1274,-828.1388 259.1273,-831.6387 269.1273,-835.1388 269.1274,-828.1388"/>
</g>
<!-- Node12 -->
<g id="node13" class="node">
<title>Node12</title>
<g id="a_node13"><a xlink:href="classDeviceDna.html" target="_top" xlink:title="DeviceDna">
<polygon fill="#ffffff" stroke="#ff0000" points="374,-784.1387 374,-803.1387 444,-803.1387 444,-784.1387 374,-784.1387"/>
<text text-anchor="middle" x="409" y="-791.1387" font-family="Helvetica,sans-Serif" font-size="10.00" fill="#000000">DeviceDna</text>
</a>
</g>
</g>
<!-- Node11&#45;&gt;Node12 -->
<g id="edge12" class="edge">
<title>Node11&#45;&gt;Node12</title>
<path fill="none" stroke="#191970" d="M282.4141,-767.2811C312.2337,-773.4901 348.0076,-780.9389 373.9067,-786.3316"/>
<polygon fill="#191970" stroke="#191970" points="283.056,-763.8397 272.5525,-765.2277 281.629,-770.6928 283.056,-763.8397"/>
</g>
<!-- Node17&#45;&gt;Node12 -->
<g id="edge14" class="edge">
<title>Node17&#45;&gt;Node12</title>
<path fill="none" stroke="#191970" d="M294.7133,-730.6891C298.9792,-732.4301 303.1143,-734.4031 307,-736.6387 327.165,-748.2407 323.1223,-762.551 343,-774.6387 352.3728,-780.3384 363.5329,-784.3953 373.985,-787.254"/>
<polygon fill="#191970" stroke="#191970" points="295.8055,-727.3621 285.2114,-727.236 293.4146,-733.9412 295.8055,-727.3621"/>
</g>
<!-- Node18 -->
<g id="node15" class="node">
<title>Node18</title>
<g id="a_node15"><a xlink:href="classDeviceDnaUltraScaleTb.html" target="_top" xlink:title="DeviceDnaUltraScaleTb">
<polygon fill="#ffffff" stroke="#000000" points="343,-746.1387 343,-765.1387 475,-765.1387 475,-746.1387 343,-746.1387"/>
<text text-anchor="middle" x="409" y="-753.1387" font-family="Helvetica,sans-Serif" font-size="10.00" fill="#000000">DeviceDnaUltraScaleTb</text>
</a>
</g>
</g>
<!-- Node17&#45;&gt;Node18 -->
<g id="edge15" class="edge">
<title>Node17&#45;&gt;Node18</title>
<path fill="none" stroke="#191970" d="M282.5995,-729.3197C308.4804,-734.7086 338.8146,-741.0248 363.2787,-746.1186"/>
<polygon fill="#191970" stroke="#191970" points="283.056,-725.8397 272.5525,-727.2277 281.629,-732.6928 283.056,-725.8397"/>
</g>
<!-- Node20 -->
<g id="node17" class="node">
<title>Node20</title>
<g id="a_node17"><a xlink:href="classGigEthGth7.html" target="_top" xlink:title="GigEthGth7">
<polygon fill="#ffffff" stroke="#ff0000" points="541.5,-328.1387 541.5,-347.1387 613.5,-347.1387 613.5,-328.1387 541.5,-328.1387"/>
<text text-anchor="middle" x="577.5" y="-335.1387" font-family="Helvetica,sans-Serif" font-size="10.00" fill="#000000">GigEthGth7</text>
</a>
</g>
</g>
<!-- Node19&#45;&gt;Node20 -->
<g id="edge17" class="edge">
<title>Node19&#45;&gt;Node20</title>
<path fill="none" stroke="#191970" d="M452.4621,-365.8372C480.0026,-359.6263 515.2073,-351.6869 541.2401,-345.816"/>
<polygon fill="#191970" stroke="#191970" points="451.6785,-362.4259 442.6935,-368.0402 453.2185,-369.2544 451.6785,-362.4259"/>
</g>
<!-- Node22 -->
<g id="node18" class="node">
<title>Node22</title>
<g id="a_node18"><a xlink:href="classGigEthGthUltraScale.html" target="_top" xlink:title="GigEthGthUltraScale">
<polygon fill="#ffffff" stroke="#ff0000" points="519.5,-290.1387 519.5,-309.1387 635.5,-309.1387 635.5,-290.1387 519.5,-290.1387"/>
<text text-anchor="middle" x="577.5" y="-297.1387" font-family="Helvetica,sans-Serif" font-size="10.00" fill="#000000">GigEthGthUltraScale</text>
</a>
</g>
</g>
<!-- Node19&#45;&gt;Node22 -->
<g id="edge18" class="edge">
<title>Node19&#45;&gt;Node22</title>
<path fill="none" stroke="#191970" d="M432.1706,-360.6442C452.354,-348.089 482.7353,-330.3876 511,-318.6387 519.6482,-315.0439 529.1999,-311.8758 538.3016,-309.2081"/>
<polygon fill="#191970" stroke="#191970" points="430.2513,-357.7166 423.6591,-366.0108 433.9848,-363.6379 430.2513,-357.7166"/>
</g>
<!-- Node24 -->
<g id="node19" class="node">
<title>Node24</title>
<g id="a_node19"><a xlink:href="classGigEthGtp7.html" target="_top" xlink:title="GigEthGtp7">
<polygon fill="#ffffff" stroke="#ff0000" points="541.5,-480.1387 541.5,-499.1387 613.5,-499.1387 613.5,-480.1387 541.5,-480.1387"/>
<text text-anchor="middle" x="577.5" y="-487.1387" font-family="Helvetica,sans-Serif" font-size="10.00" fill="#000000">GigEthGtp7</text>
</a>
</g>
</g>
<!-- Node19&#45;&gt;Node24 -->
<g id="edge19" class="edge">
<title>Node19&#45;&gt;Node24</title>
<path fill="none" stroke="#191970" d="M452.1786,-382.3741C460.4032,-385.1581 468.4693,-389.0891 475,-394.6387 503.4812,-418.8412 482.4946,-446.4647 511,-470.6387 519.5165,-477.8611 530.6214,-482.3435 541.3102,-485.1234"/>
<polygon fill="#191970" stroke="#191970" points="453.1109,-379.0005 442.5333,-379.6047 451.179,-385.7286 453.1109,-379.0005"/>
</g>
<!-- Node26 -->
<g id="node20" class="node">
<title>Node26</title>
<g id="a_node20"><a xlink:href="classGigEthGtx7.html" target="_top" xlink:title="GigEthGtx7">
<polygon fill="#ffffff" stroke="#ff0000" points="541.5,-442.1387 541.5,-461.1387 613.5,-461.1387 613.5,-442.1387 541.5,-442.1387"/>
<text text-anchor="middle" x="577.5" y="-449.1387" font-family="Helvetica,sans-Serif" font-size="10.00" fill="#000000">GigEthGtx7</text>
</a>
</g>
</g>
<!-- Node19&#45;&gt;Node26 -->
<g id="edge20" class="edge">
<title>Node19&#45;&gt;Node26</title>
<path fill="none" stroke="#191970" d="M452.4688,-384.5706C460.2843,-387.1594 468.1232,-390.4569 475,-394.6387 494.8777,-406.7264 491.1103,-420.5708 511,-432.6387 520.1362,-438.182 530.9574,-442.1674 541.1877,-445.0081"/>
<polygon fill="#191970" stroke="#191970" points="453.2384,-381.1481 442.6558,-381.6573 451.2462,-387.8587 453.2384,-381.1481"/>
</g>
<!-- Node28 -->
<g id="node21" class="node">
<title>Node28</title>
<g id="a_node21"><a xlink:href="classGigEthGtyUltraScale.html" target="_top" xlink:title="GigEthGtyUltraScale">
<polygon fill="#ffffff" stroke="#ff0000" points="519.5,-404.1387 519.5,-423.1387 635.5,-423.1387 635.5,-404.1387 519.5,-404.1387"/>
<text text-anchor="middle" x="577.5" y="-411.1387" font-family="Helvetica,sans-Serif" font-size="10.00" fill="#000000">GigEthGtyUltraScale</text>
</a>
</g>
</g>
<!-- Node19&#45;&gt;Node28 -->
<g id="edge21" class="edge">
<title>Node19&#45;&gt;Node28</title>
<path fill="none" stroke="#191970" d="M452.4547,-385.4386C477.9141,-391.1802 509.925,-398.3992 535.1851,-404.0959"/>
<polygon fill="#191970" stroke="#191970" points="453.2185,-382.023 442.6935,-383.2372 451.6785,-388.8515 453.2185,-382.023"/>
</g>
<!-- Node30 -->
<g id="node22" class="node">
<title>Node30</title>
<g id="a_node22"><a xlink:href="classGigEthLvdsUltraScale.html" target="_top" xlink:title="GigEthLvdsUltraScale">
<polygon fill="#ffffff" stroke="#ff0000" points="516.5,-366.1387 516.5,-385.1387 638.5,-385.1387 638.5,-366.1387 516.5,-366.1387"/>
<text text-anchor="middle" x="577.5" y="-373.1387" font-family="Helvetica,sans-Serif" font-size="10.00" fill="#000000">GigEthLvdsUltraScale</text>
</a>
</g>
</g>
<!-- Node19&#45;&gt;Node30 -->
<g id="edge22" class="edge">
<title>Node19&#45;&gt;Node30</title>
<path fill="none" stroke="#191970" d="M452.7368,-375.6387C472.1003,-375.6387 495.2111,-375.6387 516.2497,-375.6387"/>
<polygon fill="#191970" stroke="#191970" points="452.6935,-372.1388 442.6935,-375.6387 452.6935,-379.1388 452.6935,-372.1388"/>
</g>
<!-- Node35 -->
<g id="node24" class="node">
<title>Node35</title>
<g id="a_node24"><a xlink:href="classIprog7Series.html" target="_top" xlink:title="Iprog7Series">
<polygon fill="#ffffff" stroke="#000000" points="370.5,-632.1387 370.5,-651.1387 447.5,-651.1387 447.5,-632.1387 370.5,-632.1387"/>
<text text-anchor="middle" x="409" y="-639.1387" font-family="Helvetica,sans-Serif" font-size="10.00" fill="#000000">Iprog7Series</text>
</a>
</g>
</g>
<!-- Node34&#45;&gt;Node35 -->
<g id="edge24" class="edge">
<title>Node34&#45;&gt;Node35</title>
<path fill="none" stroke="#191970" d="M287.1448,-641.6387C314.5983,-641.6387 346.2318,-641.6387 370.3871,-641.6387"/>
<polygon fill="#191970" stroke="#191970" points="286.8521,-638.1388 276.852,-641.6387 286.852,-645.1388 286.8521,-638.1388"/>
</g>
<!-- Node37 -->
<g id="node26" class="node">
<title>Node37</title>
<g id="a_node26"><a xlink:href="classSemWrapper.html" target="_top" xlink:title="SemWrapper">
<polygon fill="#ffffff" stroke="#ff0000" points="369.5,-670.1387 369.5,-689.1387 448.5,-689.1387 448.5,-670.1387 369.5,-670.1387"/>
<text text-anchor="middle" x="409" y="-677.1387" font-family="Helvetica,sans-Serif" font-size="10.00" fill="#000000">SemWrapper</text>
</a>
</g>
</g>
<!-- Node34&#45;&gt;Node37 -->
<g id="edge26" class="edge">
<title>Node34&#45;&gt;Node37</title>
<path fill="none" stroke="#191970" d="M282.6439,-653.3289C310.745,-659.1801 344.087,-666.1226 369.4635,-671.4064"/>
<polygon fill="#191970" stroke="#191970" points="283.056,-649.8397 272.5525,-651.2277 281.629,-656.6928 283.056,-649.8397"/>
</g>
<!-- Node36 -->
<g id="node25" class="node">
<title>Node36</title>
<g id="a_node25"><a xlink:href="classIprog.html" target="_top" xlink:title="Iprog">
<polygon fill="#ffffff" stroke="#ff0000" points="557,-651.1387 557,-670.1387 598,-670.1387 598,-651.1387 557,-651.1387"/>
<text text-anchor="middle" x="577.5" y="-658.1387" font-family="Helvetica,sans-Serif" font-size="10.00" fill="#000000">Iprog</text>
</a>
</g>
</g>
<!-- Node35&#45;&gt;Node36 -->
<g id="edge25" class="edge">
<title>Node35&#45;&gt;Node36</title>
<path fill="none" stroke="#191970" d="M457.9931,-647.1631C490.8747,-650.8709 532.4982,-655.5643 556.9426,-658.3207"/>
<polygon fill="#191970" stroke="#191970" points="457.9865,-643.6403 447.6573,-645.9977 457.2021,-650.5962 457.9865,-643.6403"/>
</g>
<!-- Node40&#45;&gt;Node36 -->
<g id="edge28" class="edge">
<title>Node40&#45;&gt;Node36</title>
<path fill="none" stroke="#191970" d="M453.6941,-705.2628C460.8471,-703.1413 468.1471,-700.8919 475,-698.6387 503.6663,-689.2133 536.2639,-676.8372 556.851,-668.8117"/>
<polygon fill="#191970" stroke="#191970" points="452.7068,-701.9049 444.0868,-708.0649 454.6668,-708.6249 452.7068,-701.9049"/>
</g>
<!-- Node42 -->
<g id="node29" class="node">
<title>Node42</title>
<g id="a_node29"><a xlink:href="classJesd204bTb.html" target="_top" xlink:title="Jesd204bTb">
<polygon fill="#ffffff" stroke="#000000" points="680,-413.1387 680,-432.1387 753,-432.1387 753,-413.1387 680,-413.1387"/>
<text text-anchor="middle" x="716.5" y="-420.1387" font-family="Helvetica,sans-Serif" font-size="10.00" fill="#000000">Jesd204bTb</text>
</a>
</g>
</g>
<!-- Node41&#45;&gt;Node42 -->
<g id="edge30" class="edge">
<title>Node41&#45;&gt;Node42</title>
<path fill="none" stroke="#191970" d="M592.9445,-567.1724C606.4816,-551.8195 626.6509,-528.8382 644,-508.6387 667.666,-481.0844 695.2146,-448.1712 708.5108,-432.2319"/>
<polygon fill="#191970" stroke="#191970" points="590.1603,-565.0378 586.1663,-574.8509 595.4082,-569.6703 590.1603,-565.0378"/>
</g>
<!-- Node44 -->
<g id="node31" class="node">
<title>Node44</title>
<g id="a_node31"><a xlink:href="classJesd204bRx.html" target="_top" xlink:title="Jesd204bRx">
<polygon fill="#ffffff" stroke="#000000" points="540.5,-252.1387 540.5,-271.1387 614.5,-271.1387 614.5,-252.1387 540.5,-252.1387"/>
<text text-anchor="middle" x="577.5" y="-259.1387" font-family="Helvetica,sans-Serif" font-size="10.00" fill="#000000">Jesd204bRx</text>
</a>
</g>
</g>
<!-- Node43&#45;&gt;Node44 -->
<g id="edge32" class="edge">
<title>Node43&#45;&gt;Node44</title>
<path fill="none" stroke="#191970" d="M453.4524,-261.6387C480.4861,-261.6387 514.6174,-261.6387 540.2318,-261.6387"/>
<polygon fill="#191970" stroke="#191970" points="453.0985,-258.1388 443.0985,-261.6387 453.0985,-265.1388 453.0985,-258.1388"/>
</g>
<!-- Node44&#45;&gt;Node42 -->
<g id="edge33" class="edge">
<title>Node44&#45;&gt;Node42</title>
<path fill="none" stroke="#191970" d="M624.3269,-269.7021C631.4146,-272.3695 638.2631,-275.9181 644,-280.6387 688.2447,-317.0453 708.3397,-387.4186 714.4113,-413.0246"/>
<polygon fill="#191970" stroke="#191970" points="625.1868,-266.3024 614.5957,-266.5836 623.0505,-272.9685 625.1868,-266.3024"/>
</g>
<!-- Node46 -->
<g id="node33" class="node">
<title>Node46</title>
<g id="a_node33"><a xlink:href="classPgp2bLane.html" target="_top" xlink:title="Pgp2bLane">
<polygon fill="#ffffff" stroke="#ff0000" points="374,-556.1387 374,-575.1387 444,-575.1387 444,-556.1387 374,-556.1387"/>
<text text-anchor="middle" x="409" y="-563.1387" font-family="Helvetica,sans-Serif" font-size="10.00" fill="#000000">Pgp2bLane</text>
</a>
</g>
</g>
<!-- Node45&#45;&gt;Node46 -->
<g id="edge35" class="edge">
<title>Node45&#45;&gt;Node46</title>
<path fill="none" stroke="#191970" d="M266.5996,-565.6387C298.7058,-565.6387 343.2917,-565.6387 373.9767,-565.6387"/>
<polygon fill="#191970" stroke="#191970" points="266.228,-562.1388 256.228,-565.6387 266.2279,-569.1388 266.228,-562.1388"/>
</g>
<!-- Node69 -->
<g id="node35" class="node">
<title>Node69</title>
<g id="a_node35"><a xlink:href="classPgp3Core.html" target="_top" xlink:title="Pgp3Core">
<polygon fill="#ffffff" stroke="#ff0000" points="377.5,-518.1387 377.5,-537.1387 440.5,-537.1387 440.5,-518.1387 377.5,-518.1387"/>
<text text-anchor="middle" x="409" y="-525.1387" font-family="Helvetica,sans-Serif" font-size="10.00" fill="#000000">Pgp3Core</text>
</a>
</g>
</g>
<!-- Node68&#45;&gt;Node69 -->
<g id="edge37" class="edge">
<title>Node68&#45;&gt;Node69</title>
<path fill="none" stroke="#191970" d="M263.303,-527.6387C296.7095,-527.6387 345.4648,-527.6387 377.2117,-527.6387"/>
<polygon fill="#191970" stroke="#191970" points="263.0371,-524.1388 253.0371,-527.6387 263.037,-531.1388 263.0371,-524.1388"/>
</g>
<!-- Node77 -->
<g id="node36" class="node">
<title>Node77</title>
<g id="a_node36"><a xlink:href="classPgp3Tb.html" target="_top" xlink:title="Pgp3Tb">
<polygon fill="#ffffff" stroke="#000000" points="382.5,-480.1387 382.5,-499.1387 435.5,-499.1387 435.5,-480.1387 382.5,-480.1387"/>
<text text-anchor="middle" x="409" y="-487.1387" font-family="Helvetica,sans-Serif" font-size="10.00" fill="#000000">Pgp3Tb</text>
</a>
</g>
</g>
<!-- Node68&#45;&gt;Node77 -->
<g id="edge38" class="edge">
<title>Node68&#45;&gt;Node77</title>
<path fill="none" stroke="#191970" d="M262.9453,-520.0501C298.2445,-512.7001 350.9245,-501.7311 382.4309,-495.1709"/>
<polygon fill="#191970" stroke="#191970" points="262.1136,-516.6481 253.0371,-522.1132 263.5406,-523.5011 262.1136,-516.6481"/>
</g>
<!-- Node79 -->
<g id="node38" class="node">
<title>Node79</title>
<g id="a_node38"><a xlink:href="classPgpEthCore.html" target="_top" xlink:title="PgpEthCore">
<polygon fill="#ffffff" stroke="#ff0000" points="372.5,-442.1387 372.5,-461.1387 445.5,-461.1387 445.5,-442.1387 372.5,-442.1387"/>
<text text-anchor="middle" x="409" y="-449.1387" font-family="Helvetica,sans-Serif" font-size="10.00" fill="#000000">PgpEthCore</text>
</a>
</g>
</g>
<!-- Node78&#45;&gt;Node79 -->
<g id="edge40" class="edge">
<title>Node78&#45;&gt;Node79</title>
<path fill="none" stroke="#191970" d="M272.2118,-480.1206C303.1144,-473.6861 343.3868,-465.3006 372.2177,-459.2975"/>
<polygon fill="#191970" stroke="#191970" points="271.1976,-476.7566 262.1211,-482.2217 272.6246,-483.6097 271.1976,-476.7566"/>
</g>
<!-- Node84 -->
<g id="node40" class="node">
<title>Node84</title>
<g id="a_node40"><a xlink:href="classAxiRssiCore.html" target="_top" xlink:title="AxiRssiCore">
<polygon fill="#ffffff" stroke="#ff0000" points="371.5,-404.1387 371.5,-423.1387 446.5,-423.1387 446.5,-404.1387 371.5,-404.1387"/>
<text text-anchor="middle" x="409" y="-411.1387" font-family="Helvetica,sans-Serif" font-size="10.00" fill="#000000">AxiRssiCore</text>
</a>
</g>
</g>
<!-- Node83&#45;&gt;Node84 -->
<g id="edge42" class="edge">
<title>Node83&#45;&gt;Node84</title>
<path fill="none" stroke="#191970" d="M282.4859,-439.9814C311.2884,-433.9841 345.6306,-426.8334 371.262,-421.4965"/>
<polygon fill="#191970" stroke="#191970" points="281.629,-436.5846 272.5525,-442.0497 283.056,-443.4377 281.629,-436.5846"/>
</g>
<!-- Node97&#45;&gt;Node19 -->
<g id="edge47" class="edge">
<title>Node97&#45;&gt;Node19</title>
<path fill="none" stroke="#191970" d="M286.9112,-233.0433C293.9908,-235.5296 300.866,-238.6708 307,-242.6387 319.9493,-251.0152 381.402,-336.7283 402.1438,-365.9448"/>
<polygon fill="#191970" stroke="#191970" points="287.7683,-229.645 277.1809,-230.0425 285.7054,-236.3341 287.7683,-229.645"/>
</g>
<!-- Node97&#45;&gt;Node43 -->
<g id="edge48" class="edge">
<title>Node97&#45;&gt;Node43</title>
<path fill="none" stroke="#191970" d="M282.5159,-235.3023C312.6494,-241.5767 348.8393,-249.1121 374.7736,-254.5121"/>
<polygon fill="#191970" stroke="#191970" points="283.056,-231.8397 272.5525,-233.2277 281.629,-238.6928 283.056,-231.8397"/>
</g>
<!-- Node97&#45;&gt;Node102 -->
<g id="edge49" class="edge">
<title>Node97&#45;&gt;Node102</title>
<path fill="none" stroke="#191970" d="M250.6442,-208.5569C288.7917,-184.7277 361.9261,-139.0438 393.6691,-119.2153"/>
<polygon fill="#191970" stroke="#191970" points="248.373,-205.8488 241.7459,-214.1152 252.0815,-211.7857 248.373,-205.8488"/>
</g>
<!-- Node97&#45;&gt;Node111 -->
<g id="edge53" class="edge">
<title>Node97&#45;&gt;Node111</title>
<path fill="none" stroke="#191970" d="M287.3686,-217.3017C318.929,-214.016 355.963,-210.1604 380.8017,-207.5744"/>
<polygon fill="#191970" stroke="#191970" points="286.9202,-213.8294 277.3364,-218.3461 287.6451,-220.7917 286.9202,-213.8294"/>
</g>
<!-- Node102&#45;&gt;Node103 -->
<g id="edge50" class="edge">
<title>Node102&#45;&gt;Node103</title>
<path fill="none" stroke="#191970" d="M460.6092,-121.2776C484.5,-126.6654 512.5332,-132.9874 535.1571,-138.0896"/>
<polygon fill="#191970" stroke="#191970" points="461.1767,-117.8177 450.6517,-119.032 459.6367,-124.6462 461.1767,-117.8177"/>
</g>
<!-- Node102&#45;&gt;Node105 -->
<g id="edge51" class="edge">
<title>Node102&#45;&gt;Node105</title>
<path fill="none" stroke="#191970" d="M460.7401,-106.8751C476.5303,-106.0317 494.12,-105.0922 510.7569,-104.2036"/>
<polygon fill="#191970" stroke="#191970" points="460.4508,-103.3855 450.6517,-107.414 460.8242,-110.3755 460.4508,-103.3855"/>
</g>
<!-- Node102&#45;&gt;Node107 -->
<g id="edge52" class="edge">
<title>Node102&#45;&gt;Node107</title>
<path fill="none" stroke="#191970" d="M443.0989,-96.2824C475.7893,-83.4779 524.318,-64.4696 553.2425,-53.1402"/>
<polygon fill="#191970" stroke="#191970" points="441.536,-93.1356 433.5013,-100.0417 444.0891,-99.6535 441.536,-93.1356"/>
</g>
</g>
</svg>
