<?xml version="1.0" encoding="UTF-8" standalone="no"?>
<!DOCTYPE svg PUBLIC "-//W3C//DTD SVG 1.1//EN"
 "http://www.w3.org/Graphics/SVG/1.1/DTD/svg11.dtd">
<!-- Generated by graphviz version 2.40.1 (20161225.0304)
 -->
<!-- Title: IpV4EngineDeMux Pages: 1 -->
<svg width="317pt" height="196pt"
 viewBox="0.00 0.00 316.50 196.00" xmlns="http://www.w3.org/2000/svg" xmlns:xlink="http://www.w3.org/1999/xlink">
<g id="graph0" class="graph" transform="scale(1 1) rotate(0) translate(4 192)">
<title>IpV4EngineDeMux</title>
<polygon fill="#ffffff" stroke="transparent" points="-4,4 -4,-192 312.5,-192 312.5,4 -4,4"/>
<!-- Node0 -->
<g id="node1" class="node">
<title>Node0</title>
<polygon fill="#bfbfbf" stroke="#000000" points="49.5,-168.5 49.5,-187.5 154.5,-187.5 154.5,-168.5 49.5,-168.5"/>
<text text-anchor="middle" x="102" y="-175.5" font-family="Helvetica,sans-Serif" font-size="10.00" fill="#000000">IpV4EngineDeMux</text>
</g>
<!-- Node1 -->
<g id="node2" class="node">
<title>Node1</title>
<g id="a_node2"><a xlink:href="classIpV4Engine.html" target="_top" xlink:title="IpV4Engine">
<polygon fill="#ffffff" stroke="#000000" points="66.5,-112.5 66.5,-131.5 137.5,-131.5 137.5,-112.5 66.5,-112.5"/>
<text text-anchor="middle" x="102" y="-119.5" font-family="Helvetica,sans-Serif" font-size="10.00" fill="#000000">IpV4Engine</text>
</a>
</g>
</g>
<!-- Node0&#45;&gt;Node1 -->
<g id="edge1" class="edge">
<title>Node0&#45;&gt;Node1</title>
<path fill="none" stroke="#191970" d="M102,-158.1575C102,-149.155 102,-138.9199 102,-131.6427"/>
<polygon fill="#191970" stroke="#191970" points="98.5001,-158.2455 102,-168.2455 105.5001,-158.2456 98.5001,-158.2455"/>
</g>
<!-- Node2 -->
<g id="node3" class="node">
<title>Node2</title>
<g id="a_node3"><a xlink:href="classIpV4EngineTb.html" target="_top" xlink:title="IpV4EngineTb">
<polygon fill="#ffffff" stroke="#000000" points="3.5,-56.5 3.5,-75.5 86.5,-75.5 86.5,-56.5 3.5,-56.5"/>
<text text-anchor="middle" x="45" y="-63.5" font-family="Helvetica,sans-Serif" font-size="10.00" fill="#000000">IpV4EngineTb</text>
</a>
</g>
</g>
<!-- Node1&#45;&gt;Node2 -->
<g id="edge2" class="edge">
<title>Node1&#45;&gt;Node2</title>
<path fill="none" stroke="#191970" d="M84.7729,-105.0751C74.9659,-95.4402 63.036,-83.7196 54.8149,-75.6427"/>
<polygon fill="#191970" stroke="#191970" points="82.4851,-107.734 92.0714,-112.2455 87.3909,-102.7406 82.4851,-107.734"/>
</g>
<!-- Node3 -->
<g id="node4" class="node">
<title>Node3</title>
<g id="a_node4"><a xlink:href="classUdpEngineWrapper.html" target="_top" xlink:title="UdpEngineWrapper">
<polygon fill="#ffffff" stroke="#000000" points="105,-56.5 105,-75.5 215,-75.5 215,-56.5 105,-56.5"/>
<text text-anchor="middle" x="160" y="-63.5" font-family="Helvetica,sans-Serif" font-size="10.00" fill="#000000">UdpEngineWrapper</text>
</a>
</g>
</g>
<!-- Node1&#45;&gt;Node3 -->
<g id="edge3" class="edge">
<title>Node1&#45;&gt;Node3</title>
<path fill="none" stroke="#191970" d="M119.5293,-105.0751C129.5083,-95.4402 141.6476,-83.7196 150.0129,-75.6427"/>
<polygon fill="#191970" stroke="#191970" points="116.8658,-102.7817 112.1028,-112.2455 121.728,-107.8175 116.8658,-102.7817"/>
</g>
<!-- Node4 -->
<g id="node5" class="node">
<title>Node4</title>
<g id="a_node5"><a xlink:href="classEthMacPauseTb.html" target="_top" xlink:title="EthMacPauseTb">
<polygon fill="#ffffff" stroke="#000000" points="0,-.5 0,-19.5 92,-19.5 92,-.5 0,-.5"/>
<text text-anchor="middle" x="46" y="-7.5" font-family="Helvetica,sans-Serif" font-size="10.00" fill="#000000">EthMacPauseTb</text>
</a>
</g>
</g>
<!-- Node3&#45;&gt;Node4 -->
<g id="edge4" class="edge">
<title>Node3&#45;&gt;Node4</title>
<path fill="none" stroke="#191970" d="M131.1679,-51.8368C110.5605,-41.7139 83.3918,-28.3679 65.3416,-19.5011"/>
<polygon fill="#191970" stroke="#191970" points="129.884,-55.1056 140.4027,-56.3733 132.9703,-48.8227 129.884,-55.1056"/>
</g>
<!-- Node5 -->
<g id="node6" class="node">
<title>Node5</title>
<g id="a_node6"><a xlink:href="classRawEthFramerTb.html" target="_top" xlink:title="RawEthFramerTb">
<polygon fill="#ffffff" stroke="#000000" points="110.5,-.5 110.5,-19.5 209.5,-19.5 209.5,-.5 110.5,-.5"/>
<text text-anchor="middle" x="160" y="-7.5" font-family="Helvetica,sans-Serif" font-size="10.00" fill="#000000">RawEthFramerTb</text>
</a>
</g>
</g>
<!-- Node3&#45;&gt;Node5 -->
<g id="edge5" class="edge">
<title>Node3&#45;&gt;Node5</title>
<path fill="none" stroke="#191970" d="M160,-46.1575C160,-37.155 160,-26.9199 160,-19.6427"/>
<polygon fill="#191970" stroke="#191970" points="156.5001,-46.2455 160,-56.2455 163.5001,-46.2456 156.5001,-46.2455"/>
</g>
<!-- Node6 -->
<g id="node7" class="node">
<title>Node6</title>
<g id="a_node7"><a xlink:href="classUdpEngineTb.html" target="_top" xlink:title="UdpEngineTb">
<polygon fill="#ffffff" stroke="#000000" points="227.5,-.5 227.5,-19.5 308.5,-19.5 308.5,-.5 227.5,-.5"/>
<text text-anchor="middle" x="268" y="-7.5" font-family="Helvetica,sans-Serif" font-size="10.00" fill="#000000">UdpEngineTb</text>
</a>
</g>
</g>
<!-- Node3&#45;&gt;Node6 -->
<g id="edge6" class="edge">
<title>Node3&#45;&gt;Node6</title>
<path fill="none" stroke="#191970" d="M187.7771,-51.5971C207.1382,-41.558 232.4385,-28.4393 249.4034,-19.6427"/>
<polygon fill="#191970" stroke="#191970" points="186.0786,-48.5352 178.8122,-56.2455 189.3008,-54.7495 186.0786,-48.5352"/>
</g>
</g>
</svg>
