<?xml version="1.0" encoding="UTF-8" standalone="no"?>
<!DOCTYPE svg PUBLIC "-//W3C//DTD SVG 1.1//EN"
 "http://www.w3.org/Graphics/SVG/1.1/DTD/svg11.dtd">
<!-- Generated by graphviz version 2.40.1 (20161225.0304)
 -->
<!-- Title: TenGigEthGth7Wrapper Pages: 1 -->
<svg width="1353pt" height="736pt"
 viewBox="0.00 0.00 1353.00 736.31" xmlns="http://www.w3.org/2000/svg" xmlns:xlink="http://www.w3.org/1999/xlink">
<g id="graph0" class="graph" transform="scale(1 1) rotate(0) translate(4 732.311)">
<title>TenGigEthGth7Wrapper</title>
<polygon fill="#ffffff" stroke="transparent" points="-4,4 -4,-732.311 1349,-732.311 1349,4 -4,4"/>
<!-- Node66 -->
<g id="node1" class="node">
<title>Node66</title>
<polygon fill="#bfbfbf" stroke="#000000" points="1216,-532.5 1216,-551.5 1345,-551.5 1345,-532.5 1216,-532.5"/>
<text text-anchor="middle" x="1280.5" y="-539.5" font-family="Helvetica,sans-Serif" font-size="10.00" fill="#000000">TenGigEthGth7Wrapper</text>
</g>
<!-- Node67 -->
<g id="node2" class="node">
<title>Node67</title>
<g id="a_node2"><a xlink:href="classTenGigEthGth7Clk.html" target="_top" xlink:title="TenGigEthGth7Clk">
<polygon fill="#ffffff" stroke="#000000" points="1076,-570.5 1076,-589.5 1180,-589.5 1180,-570.5 1076,-570.5"/>
<text text-anchor="middle" x="1128" y="-577.5" font-family="Helvetica,sans-Serif" font-size="10.00" fill="#000000">TenGigEthGth7Clk</text>
</a>
</g>
</g>
<!-- Node67&#45;&gt;Node66 -->
<g id="edge1" class="edge">
<title>Node67&#45;&gt;Node66</title>
<path fill="none" stroke="#191970" d="M1176.3184,-567.96C1197.6234,-562.6512 1222.3042,-556.5012 1242.2945,-551.5201"/>
<polygon fill="#191970" stroke="#191970" points="1175.3392,-564.5969 1166.4822,-570.411 1177.0318,-571.3892 1175.3392,-564.5969"/>
</g>
<!-- Node68 -->
<g id="node3" class="node">
<title>Node68</title>
<g id="a_node3"><a xlink:href="classPwrUpRst.html" target="_top" xlink:title="PwrUpRst">
<polygon fill="#ffffff" stroke="#000000" points="966.5,-627.5 966.5,-646.5 1030.5,-646.5 1030.5,-627.5 966.5,-627.5"/>
<text text-anchor="middle" x="998.5" y="-634.5" font-family="Helvetica,sans-Serif" font-size="10.00" fill="#000000">PwrUpRst</text>
</a>
</g>
</g>
<!-- Node68&#45;&gt;Node67 -->
<g id="edge2" class="edge">
<title>Node68&#45;&gt;Node67</title>
<path fill="none" stroke="#191970" d="M1029.4394,-623.3819C1053.1319,-612.9535 1085.2189,-598.8303 1106.2539,-589.5716"/>
<polygon fill="#191970" stroke="#191970" points="1027.918,-620.2274 1020.1754,-627.4595 1030.738,-626.6343 1027.918,-620.2274"/>
</g>
<!-- Node69 -->
<g id="node4" class="node">
<title>Node69</title>
<g id="a_node4"><a xlink:href="classRstSync.html" target="_top" xlink:title="RstSync">
<polygon fill="#ffffff" stroke="#000000" points="842.5,-665.5 842.5,-684.5 898.5,-684.5 898.5,-665.5 842.5,-665.5"/>
<text text-anchor="middle" x="870.5" y="-672.5" font-family="Helvetica,sans-Serif" font-size="10.00" fill="#000000">RstSync</text>
</a>
</g>
</g>
<!-- Node69&#45;&gt;Node68 -->
<g id="edge3" class="edge">
<title>Node69&#45;&gt;Node68</title>
<path fill="none" stroke="#191970" d="M908.4309,-663.7392C926.8792,-658.2624 948.8132,-651.7508 966.417,-646.5246"/>
<polygon fill="#191970" stroke="#191970" points="907.1805,-660.4594 898.5901,-666.6607 909.1727,-667.17 907.1805,-660.4594"/>
</g>
<!-- Node70 -->
<g id="node5" class="node">
<title>Node70</title>
<g id="a_node5"><a xlink:href="classSynchronizer.html" target="_top" xlink:title="Synchronizer">
<polygon fill="#ffffff" stroke="#000000" points="159.5,-532.5 159.5,-551.5 239.5,-551.5 239.5,-532.5 159.5,-532.5"/>
<text text-anchor="middle" x="199.5" y="-539.5" font-family="Helvetica,sans-Serif" font-size="10.00" fill="#000000">Synchronizer</text>
</a>
</g>
</g>
<!-- Node70&#45;&gt;Node69 -->
<g id="edge4" class="edge">
<title>Node70&#45;&gt;Node69</title>
<path fill="none" stroke="#191970" d="M206.2248,-561.3716C218.0636,-592.069 245.8429,-650.879 292,-675 481.1513,-773.8477 754.8856,-708.5928 842.451,-683.5622"/>
<polygon fill="#191970" stroke="#191970" points="209.4366,-559.9647 202.6981,-551.7889 202.8674,-562.3824 209.4366,-559.9647"/>
</g>
<!-- Node74 -->
<g id="node9" class="node">
<title>Node74</title>
<g id="a_node9"><a xlink:href="classRstSync.html" target="_top" xlink:title="RstSync(2)">
<polygon fill="#ffffff" stroke="#000000" points="319.5,-646.5 319.5,-665.5 388.5,-665.5 388.5,-646.5 319.5,-646.5"/>
<text text-anchor="middle" x="354" y="-653.5" font-family="Helvetica,sans-Serif" font-size="10.00" fill="#000000">RstSync(2)</text>
</a>
</g>
</g>
<!-- Node70&#45;&gt;Node74 -->
<g id="edge9" class="edge">
<title>Node70&#45;&gt;Node74</title>
<path fill="none" stroke="#191970" d="M212.3156,-559.8221C228.548,-581.1487 258.4749,-616.5355 292,-637 300.2639,-642.0445 309.9724,-645.8439 319.2224,-648.6655"/>
<polygon fill="#191970" stroke="#191970" points="215.0003,-557.5668 206.2267,-551.6274 209.3815,-561.7417 215.0003,-557.5668"/>
</g>
<!-- Node85 -->
<g id="node20" class="node">
<title>Node85</title>
<g id="a_node20"><a xlink:href="classAxiStreamFifoV2.html" target="_top" xlink:title="AxiStreamFifoV2(3)">
<polygon fill="#ffffff" stroke="#000000" points="298.5,-380.5 298.5,-399.5 409.5,-399.5 409.5,-380.5 298.5,-380.5"/>
<text text-anchor="middle" x="354" y="-387.5" font-family="Helvetica,sans-Serif" font-size="10.00" fill="#000000">AxiStreamFifoV2(3)</text>
</a>
</g>
</g>
<!-- Node70&#45;&gt;Node85 -->
<g id="edge26" class="edge">
<title>Node70&#45;&gt;Node85</title>
<path fill="none" stroke="#191970" d="M207.7242,-522.923C221.1532,-494.0094 250.5138,-439.2631 292,-409 297.2752,-405.1519 303.3426,-402.0721 309.5724,-399.6102"/>
<polygon fill="#191970" stroke="#191970" points="204.4109,-521.7574 203.5046,-532.3134 210.7959,-524.6265 204.4109,-521.7574"/>
</g>
<!-- Node98 -->
<g id="node28" class="node">
<title>Node98</title>
<g id="a_node28"><a xlink:href="classAxiStreamFifoV2.html" target="_top" xlink:title="AxiStreamFifoV2">
<polygon fill="#ffffff" stroke="#000000" points="305,-304.5 305,-323.5 403,-323.5 403,-304.5 305,-304.5"/>
<text text-anchor="middle" x="354" y="-311.5" font-family="Helvetica,sans-Serif" font-size="10.00" fill="#000000">AxiStreamFifoV2</text>
</a>
</g>
</g>
<!-- Node70&#45;&gt;Node98 -->
<g id="edge35" class="edge">
<title>Node70&#45;&gt;Node98</title>
<path fill="none" stroke="#191970" d="M202.6073,-522.3553C210.1691,-481.1045 233.3995,-384.9954 292,-333 296.3789,-329.1146 301.537,-326.0238 306.9771,-323.5649"/>
<polygon fill="#191970" stroke="#191970" points="199.1163,-522.0052 200.8736,-532.4532 206.0154,-523.1897 199.1163,-522.0052"/>
</g>
<!-- Node71 -->
<g id="node6" class="node">
<title>Node71</title>
<g id="a_node6"><a xlink:href="classGth7QuadPll.html" target="_top" xlink:title="Gth7QuadPll">
<polygon fill="#ffffff" stroke="#000000" points="960,-570.5 960,-589.5 1037,-589.5 1037,-570.5 960,-570.5"/>
<text text-anchor="middle" x="998.5" y="-577.5" font-family="Helvetica,sans-Serif" font-size="10.00" fill="#000000">Gth7QuadPll</text>
</a>
</g>
</g>
<!-- Node71&#45;&gt;Node67 -->
<g id="edge5" class="edge">
<title>Node71&#45;&gt;Node67</title>
<path fill="none" stroke="#191970" d="M1047.0239,-580C1056.4748,-580 1066.4188,-580 1075.9775,-580"/>
<polygon fill="#191970" stroke="#191970" points="1047.0037,-576.5001 1037.0036,-580 1047.0036,-583.5001 1047.0037,-576.5001"/>
</g>
<!-- Node72 -->
<g id="node7" class="node">
<title>Node72</title>
<g id="a_node7"><a xlink:href="classAxiLiteToDrp.html" target="_top" xlink:title="AxiLiteToDrp">
<polygon fill="#ffffff" stroke="#000000" points="831.5,-570.5 831.5,-589.5 909.5,-589.5 909.5,-570.5 831.5,-570.5"/>
<text text-anchor="middle" x="870.5" y="-577.5" font-family="Helvetica,sans-Serif" font-size="10.00" fill="#000000">AxiLiteToDrp</text>
</a>
</g>
</g>
<!-- Node72&#45;&gt;Node71 -->
<g id="edge6" class="edge">
<title>Node72&#45;&gt;Node71</title>
<path fill="none" stroke="#191970" d="M919.9268,-580C933.0931,-580 947.1284,-580 959.6397,-580"/>
<polygon fill="#191970" stroke="#191970" points="919.5998,-576.5001 909.5997,-580 919.5997,-583.5001 919.5998,-576.5001"/>
</g>
<!-- Node73 -->
<g id="node8" class="node">
<title>Node73</title>
<g id="a_node8"><a xlink:href="classAxiLiteAsync.html" target="_top" xlink:title="AxiLiteAsync">
<polygon fill="#ffffff" stroke="#000000" points="660,-551.5 660,-570.5 740,-570.5 740,-551.5 660,-551.5"/>
<text text-anchor="middle" x="700" y="-558.5" font-family="Helvetica,sans-Serif" font-size="10.00" fill="#000000">AxiLiteAsync</text>
</a>
</g>
</g>
<!-- Node73&#45;&gt;Node72 -->
<g id="edge7" class="edge">
<title>Node73&#45;&gt;Node72</title>
<path fill="none" stroke="#191970" d="M750.3947,-566.6158C776.2333,-569.4952 807.2324,-572.9497 831.2652,-575.6278"/>
<polygon fill="#191970" stroke="#191970" points="750.7323,-563.1319 740.4061,-565.5027 749.9569,-570.0888 750.7323,-563.1319"/>
</g>
<!-- Node82 -->
<g id="node17" class="node">
<title>Node82</title>
<g id="a_node17"><a xlink:href="classTenGigEthGth7.html" target="_top" xlink:title="TenGigEthGth7">
<polygon fill="#ffffff" stroke="#000000" points="1083.5,-494.5 1083.5,-513.5 1172.5,-513.5 1172.5,-494.5 1083.5,-494.5"/>
<text text-anchor="middle" x="1128" y="-501.5" font-family="Helvetica,sans-Serif" font-size="10.00" fill="#000000">TenGigEthGth7</text>
</a>
</g>
</g>
<!-- Node73&#45;&gt;Node82 -->
<g id="edge19" class="edge">
<title>Node73&#45;&gt;Node82</title>
<path fill="none" stroke="#191970" d="M750.4297,-556.9723C817.0079,-551.2877 937.7593,-539.7067 1040,-523 1055.7337,-520.429 1072.8999,-516.8905 1087.8592,-513.5636"/>
<polygon fill="#191970" stroke="#191970" points="749.8908,-553.5052 740.2206,-557.8339 750.4795,-560.4804 749.8908,-553.5052"/>
</g>
<!-- Node74&#45;&gt;Node73 -->
<g id="edge8" class="edge">
<title>Node74&#45;&gt;Node73</title>
<path fill="none" stroke="#191970" d="M398.5815,-643.7594C468.3982,-624.5901 602.0693,-587.8885 665.2631,-570.5376"/>
<polygon fill="#191970" stroke="#191970" points="397.4764,-640.4332 388.76,-646.4561 399.3298,-647.1834 397.4764,-640.4332"/>
</g>
<!-- Node75 -->
<g id="node10" class="node">
<title>Node75</title>
<g id="a_node10"><a xlink:href="classFifoAsync.html" target="_top" xlink:title="FifoAsync(5)">
<polygon fill="#ffffff" stroke="#000000" points="477.5,-541.5 477.5,-560.5 554.5,-560.5 554.5,-541.5 477.5,-541.5"/>
<text text-anchor="middle" x="516" y="-548.5" font-family="Helvetica,sans-Serif" font-size="10.00" fill="#000000">FifoAsync(5)</text>
</a>
</g>
</g>
<!-- Node74&#45;&gt;Node75 -->
<g id="edge11" class="edge">
<title>Node74&#45;&gt;Node75</title>
<path fill="none" stroke="#191970" d="M398.3598,-644.8766C404.4539,-642.6444 410.5005,-640.0317 416,-637 426.0265,-631.4727 481.4218,-582.0916 505.1774,-560.7518"/>
<polygon fill="#191970" stroke="#191970" points="397.1845,-641.5791 388.8161,-648.0768 399.41,-648.2159 397.1845,-641.5791"/>
</g>
<!-- Node75&#45;&gt;Node73 -->
<g id="edge10" class="edge">
<title>Node75&#45;&gt;Node73</title>
<path fill="none" stroke="#191970" d="M564.7236,-553.648C594.4213,-555.262 631.9106,-557.2995 659.8877,-558.82"/>
<polygon fill="#191970" stroke="#191970" points="564.7477,-550.1443 554.5724,-553.0963 564.3677,-557.1339 564.7477,-550.1443"/>
</g>
<!-- Node76 -->
<g id="node11" class="node">
<title>Node76</title>
<g id="a_node11"><a xlink:href="classSynchronizerVector.html" target="_top" xlink:title="SynchronizerVector(2)">
<polygon fill="#ffffff" stroke="#000000" points="292,-608.5 292,-627.5 416,-627.5 416,-608.5 292,-608.5"/>
<text text-anchor="middle" x="354" y="-615.5" font-family="Helvetica,sans-Serif" font-size="10.00" fill="#000000">SynchronizerVector(2)</text>
</a>
</g>
</g>
<!-- Node76&#45;&gt;Node75 -->
<g id="edge12" class="edge">
<title>Node76&#45;&gt;Node75</title>
<path fill="none" stroke="#191970" d="M398.3735,-605.2911C404.3471,-603.3218 410.3571,-601.2045 416,-599 445.5965,-587.4374 478.5833,-570.8395 498.2951,-560.5005"/>
<polygon fill="#191970" stroke="#191970" points="396.8949,-602.0885 388.4261,-608.4548 399.0165,-608.7592 396.8949,-602.0885"/>
</g>
<!-- Node77 -->
<g id="node12" class="node">
<title>Node77</title>
<g id="a_node12"><a xlink:href="classSynchronizer.html" target="_top" xlink:title="Synchronizer(2)">
<polygon fill="#ffffff" stroke="#000000" points="307.5,-418.5 307.5,-437.5 400.5,-437.5 400.5,-418.5 307.5,-418.5"/>
<text text-anchor="middle" x="354" y="-425.5" font-family="Helvetica,sans-Serif" font-size="10.00" fill="#000000">Synchronizer(2)</text>
</a>
</g>
</g>
<!-- Node77&#45;&gt;Node75 -->
<g id="edge13" class="edge">
<title>Node77&#45;&gt;Node75</title>
<path fill="none" stroke="#191970" d="M409.4827,-442.3119C411.7772,-443.7296 413.9648,-445.2877 416,-447 443.0728,-469.7776 427.0677,-492.8975 452,-518 462.2191,-528.2889 476.3178,-536.0291 488.6819,-541.4178"/>
<polygon fill="#191970" stroke="#191970" points="410.689,-438.9954 400.1988,-437.51 407.473,-445.2129 410.689,-438.9954"/>
</g>
<!-- Node123 -->
<g id="node46" class="node">
<title>Node123</title>
<g id="a_node46"><a xlink:href="classTenGigEthRst.html" target="_top" xlink:title="TenGigEthRst">
<polygon fill="#ffffff" stroke="#000000" points="958,-494.5 958,-513.5 1039,-513.5 1039,-494.5 958,-494.5"/>
<text text-anchor="middle" x="998.5" y="-501.5" font-family="Helvetica,sans-Serif" font-size="10.00" fill="#000000">TenGigEthRst</text>
</a>
</g>
</g>
<!-- Node77&#45;&gt;Node123 -->
<g id="edge57" class="edge">
<title>Node77&#45;&gt;Node123</title>
<path fill="none" stroke="#191970" d="M398.719,-440.0867C450.5599,-453.5462 538.7782,-474.7529 616,-485 739.7467,-501.4208 887.7187,-503.9752 957.8223,-504.1701"/>
<polygon fill="#191970" stroke="#191970" points="399.4102,-436.6498 388.8499,-437.5037 397.6378,-443.4217 399.4102,-436.6498"/>
</g>
<!-- Node78 -->
<g id="node13" class="node">
<title>Node78</title>
<g id="a_node13"><a xlink:href="classFifoWrFsm.html" target="_top" xlink:title="FifoWrFsm">
<polygon fill="#ffffff" stroke="#000000" points="320.5,-570.5 320.5,-589.5 387.5,-589.5 387.5,-570.5 320.5,-570.5"/>
<text text-anchor="middle" x="354" y="-577.5" font-family="Helvetica,sans-Serif" font-size="10.00" fill="#000000">FifoWrFsm</text>
</a>
</g>
</g>
<!-- Node78&#45;&gt;Node75 -->
<g id="edge14" class="edge">
<title>Node78&#45;&gt;Node75</title>
<path fill="none" stroke="#191970" d="M397.4744,-572.2175C422.3633,-567.7621 453.3202,-562.2205 477.3546,-557.918"/>
<polygon fill="#191970" stroke="#191970" points="396.7933,-568.7838 387.5665,-573.9912 398.0268,-575.6742 396.7933,-568.7838"/>
</g>
<!-- Node79 -->
<g id="node14" class="node">
<title>Node79</title>
<g id="a_node14"><a xlink:href="classFifoRdFsm.html" target="_top" xlink:title="FifoRdFsm">
<polygon fill="#ffffff" stroke="#000000" points="320.5,-532.5 320.5,-551.5 387.5,-551.5 387.5,-532.5 320.5,-532.5"/>
<text text-anchor="middle" x="354" y="-539.5" font-family="Helvetica,sans-Serif" font-size="10.00" fill="#000000">FifoRdFsm</text>
</a>
</g>
</g>
<!-- Node79&#45;&gt;Node75 -->
<g id="edge15" class="edge">
<title>Node79&#45;&gt;Node75</title>
<path fill="none" stroke="#191970" d="M397.8066,-544.4337C422.6383,-545.8132 453.427,-547.5237 477.3546,-548.853"/>
<polygon fill="#191970" stroke="#191970" points="397.7453,-540.925 387.5665,-543.8648 397.3569,-547.9142 397.7453,-540.925"/>
</g>
<!-- Node80 -->
<g id="node15" class="node">
<title>Node80</title>
<g id="a_node15"><a xlink:href="classSimpleDualPortRam.html" target="_top" xlink:title="SimpleDualPortRam">
<polygon fill="#ffffff" stroke="#000000" points="296.5,-494.5 296.5,-513.5 411.5,-513.5 411.5,-494.5 296.5,-494.5"/>
<text text-anchor="middle" x="354" y="-501.5" font-family="Helvetica,sans-Serif" font-size="10.00" fill="#000000">SimpleDualPortRam</text>
</a>
</g>
</g>
<!-- Node80&#45;&gt;Node75 -->
<g id="edge16" class="edge">
<title>Node80&#45;&gt;Node75</title>
<path fill="none" stroke="#191970" d="M396.7341,-516.3982C423.7303,-524.2304 458.0894,-534.1988 482.988,-541.4224"/>
<polygon fill="#191970" stroke="#191970" points="397.3623,-512.9362 386.7831,-513.5112 395.4119,-519.659 397.3623,-512.9362"/>
</g>
<!-- Node81 -->
<g id="node16" class="node">
<title>Node81</title>
<g id="a_node16"><a xlink:href="classFifoOutputPipeline.html" target="_top" xlink:title="FifoOutputPipeline">
<polygon fill="#ffffff" stroke="#000000" points="301,-456.5 301,-475.5 407,-475.5 407,-456.5 301,-456.5"/>
<text text-anchor="middle" x="354" y="-463.5" font-family="Helvetica,sans-Serif" font-size="10.00" fill="#000000">FifoOutputPipeline</text>
</a>
</g>
</g>
<!-- Node81&#45;&gt;Node75 -->
<g id="edge17" class="edge">
<title>Node81&#45;&gt;Node75</title>
<path fill="none" stroke="#191970" d="M404.1486,-479.2129C408.2574,-480.9381 412.2623,-482.8616 416,-485 434.8398,-495.7784 434.1971,-505.5835 452,-518 465.1247,-527.1538 481.1247,-535.4038 493.8435,-541.3653"/>
<polygon fill="#191970" stroke="#191970" points="405.0411,-475.8084 394.4496,-475.5399 402.5619,-482.3547 405.0411,-475.8084"/>
</g>
<!-- Node82&#45;&gt;Node66 -->
<g id="edge18" class="edge">
<title>Node82&#45;&gt;Node66</title>
<path fill="none" stroke="#191970" d="M1176.3184,-516.04C1197.6234,-521.3488 1222.3042,-527.4988 1242.2945,-532.4799"/>
<polygon fill="#191970" stroke="#191970" points="1177.0318,-512.6108 1166.4822,-513.589 1175.3392,-519.4031 1177.0318,-512.6108"/>
</g>
<!-- Node83 -->
<g id="node18" class="node">
<title>Node83</title>
<g id="a_node18"><a xlink:href="classEthMacTop.html" target="_top" xlink:title="EthMacTop">
<polygon fill="#ffffff" stroke="#000000" points="964.5,-323.5 964.5,-342.5 1032.5,-342.5 1032.5,-323.5 964.5,-323.5"/>
<text text-anchor="middle" x="998.5" y="-330.5" font-family="Helvetica,sans-Serif" font-size="10.00" fill="#000000">EthMacTop</text>
</a>
</g>
</g>
<!-- Node83&#45;&gt;Node82 -->
<g id="edge20" class="edge">
<title>Node83&#45;&gt;Node82</title>
<path fill="none" stroke="#191970" d="M1011.9853,-350.8068C1039.1911,-386.7311 1099.8357,-466.8101 1120.7469,-494.4226"/>
<polygon fill="#191970" stroke="#191970" points="1014.661,-348.5426 1005.8335,-342.6837 1009.0806,-352.7687 1014.661,-348.5426"/>
</g>
<!-- Node84 -->
<g id="node19" class="node">
<title>Node84</title>
<g id="a_node19"><a xlink:href="classEthMacTxFifo.html" target="_top" xlink:title="EthMacTxFifo">
<polygon fill="#ffffff" stroke="#000000" points="830,-342.5 830,-361.5 911,-361.5 911,-342.5 830,-342.5"/>
<text text-anchor="middle" x="870.5" y="-349.5" font-family="Helvetica,sans-Serif" font-size="10.00" fill="#000000">EthMacTxFifo</text>
</a>
</g>
</g>
<!-- Node84&#45;&gt;Node83 -->
<g id="edge21" class="edge">
<title>Node84&#45;&gt;Node83</title>
<path fill="none" stroke="#191970" d="M921.6317,-344.4101C936.0297,-342.2729 951.334,-340.0012 964.4649,-338.0521"/>
<polygon fill="#191970" stroke="#191970" points="920.7296,-341.0056 911.3519,-345.936 921.7575,-347.9297 920.7296,-341.0056"/>
</g>
<!-- Node85&#45;&gt;Node84 -->
<g id="edge22" class="edge">
<title>Node85&#45;&gt;Node84</title>
<path fill="none" stroke="#191970" d="M419.912,-385.1507C528.1988,-377.1838 740.6106,-361.5562 829.6737,-355.0037"/>
<polygon fill="#191970" stroke="#191970" points="419.4815,-381.6728 409.7653,-385.8972 419.9952,-388.654 419.4815,-381.6728"/>
</g>
<!-- Node86 -->
<g id="node21" class="node">
<title>Node86</title>
<g id="a_node21"><a xlink:href="classAxiStreamResize.html" target="_top" xlink:title="AxiStreamResize(2)">
<polygon fill="#ffffff" stroke="#000000" points="143,-304.5 143,-323.5 256,-323.5 256,-304.5 143,-304.5"/>
<text text-anchor="middle" x="199.5" y="-311.5" font-family="Helvetica,sans-Serif" font-size="10.00" fill="#000000">AxiStreamResize(2)</text>
</a>
</g>
</g>
<!-- Node86&#45;&gt;Node85 -->
<g id="edge23" class="edge">
<title>Node86&#45;&gt;Node85</title>
<path fill="none" stroke="#191970" d="M245.9697,-327.5181C249.4628,-329.1648 252.8493,-330.9876 256,-333 275.6063,-345.5231 272.2262,-358.7431 292,-371 298.2197,-374.8553 305.278,-377.9778 312.3481,-380.491"/>
<polygon fill="#191970" stroke="#191970" points="247.138,-324.2126 236.5631,-323.5617 244.424,-330.6651 247.138,-324.2126"/>
</g>
<!-- Node86&#45;&gt;Node98 -->
<g id="edge33" class="edge">
<title>Node86&#45;&gt;Node98</title>
<path fill="none" stroke="#191970" d="M266.4312,-314C279.3885,-314 292.7401,-314 304.9925,-314"/>
<polygon fill="#191970" stroke="#191970" points="266.1528,-310.5001 256.1528,-314 266.1528,-317.5001 266.1528,-310.5001"/>
</g>
<!-- Node87 -->
<g id="node22" class="node">
<title>Node87</title>
<g id="a_node22"><a xlink:href="classAxiStreamPipeline.html" target="_top" xlink:title="AxiStreamPipeline">
<polygon fill="#ffffff" stroke="#000000" points="0,-285.5 0,-304.5 107,-304.5 107,-285.5 0,-285.5"/>
<text text-anchor="middle" x="53.5" y="-292.5" font-family="Helvetica,sans-Serif" font-size="10.00" fill="#000000">AxiStreamPipeline</text>
</a>
</g>
</g>
<!-- Node87&#45;&gt;Node85 -->
<g id="edge27" class="edge">
<title>Node87&#45;&gt;Node85</title>
<path fill="none" stroke="#191970" d="M67.6972,-312.131C83.8469,-330.2634 112.0243,-358.0165 143,-371 192.6941,-391.8294 254.6117,-395.0411 298.4884,-393.9778"/>
<polygon fill="#191970" stroke="#191970" points="70.344,-309.8409 61.1565,-304.5644 65.0483,-314.4186 70.344,-309.8409"/>
</g>
<!-- Node87&#45;&gt;Node86 -->
<g id="edge24" class="edge">
<title>Node87&#45;&gt;Node86</title>
<path fill="none" stroke="#191970" d="M117.2027,-303.2901C125.6312,-304.3869 134.2279,-305.5057 142.5332,-306.5865"/>
<polygon fill="#191970" stroke="#191970" points="117.4041,-299.7869 107.036,-301.967 116.5007,-306.7283 117.4041,-299.7869"/>
</g>
<!-- Node87&#45;&gt;Node98 -->
<g id="edge36" class="edge">
<title>Node87&#45;&gt;Node98</title>
<path fill="none" stroke="#191970" d="M117.4837,-291.8775C157.4044,-290.702 209.8032,-290.5631 256,-295 275.3215,-296.8557 296.4945,-300.7244 314.2007,-304.4895"/>
<polygon fill="#191970" stroke="#191970" points="117.2359,-288.3836 107.3545,-292.2057 117.4627,-295.3799 117.2359,-288.3836"/>
</g>
<!-- Node100 -->
<g id="node30" class="node">
<title>Node100</title>
<g id="a_node30"><a xlink:href="classAxiStreamMux.html" target="_top" xlink:title="AxiStreamMux">
<polygon fill="#ffffff" stroke="#000000" points="155.5,-219.5 155.5,-238.5 243.5,-238.5 243.5,-219.5 155.5,-219.5"/>
<text text-anchor="middle" x="199.5" y="-226.5" font-family="Helvetica,sans-Serif" font-size="10.00" fill="#000000">AxiStreamMux</text>
</a>
</g>
</g>
<!-- Node87&#45;&gt;Node100 -->
<g id="edge39" class="edge">
<title>Node87&#45;&gt;Node100</title>
<path fill="none" stroke="#191970" d="M84.1228,-281.1568C112.3376,-268.4022 153.4723,-249.8071 178.2447,-238.6085"/>
<polygon fill="#191970" stroke="#191970" points="82.4001,-278.0945 74.7297,-285.403 85.2836,-284.473 82.4001,-278.0945"/>
</g>
<!-- Node88 -->
<g id="node23" class="node">
<title>Node88</title>
<g id="a_node23"><a xlink:href="classFifoCascade.html" target="_top" xlink:title="FifoCascade(2)">
<polygon fill="#ffffff" stroke="#ff0000" points="155,-342.5 155,-361.5 244,-361.5 244,-342.5 155,-342.5"/>
<text text-anchor="middle" x="199.5" y="-349.5" font-family="Helvetica,sans-Serif" font-size="10.00" fill="#000000">FifoCascade(2)</text>
</a>
</g>
</g>
<!-- Node88&#45;&gt;Node85 -->
<g id="edge25" class="edge">
<title>Node88&#45;&gt;Node85</title>
<path fill="none" stroke="#191970" d="M248.4521,-364.04C270.0365,-369.3488 295.041,-375.4988 315.2935,-380.4799"/>
<polygon fill="#191970" stroke="#191970" points="249.0334,-360.5787 238.4869,-361.589 247.3615,-367.3762 249.0334,-360.5787"/>
</g>
<!-- Node88&#45;&gt;Node98 -->
<g id="edge34" class="edge">
<title>Node88&#45;&gt;Node98</title>
<path fill="none" stroke="#191970" d="M248.4521,-339.96C270.0365,-334.6512 295.041,-328.5012 315.2935,-323.5201"/>
<polygon fill="#191970" stroke="#191970" points="247.3615,-336.6238 238.4869,-342.411 249.0334,-343.4213 247.3615,-336.6238"/>
</g>
<!-- Node94 -->
<g id="node24" class="node">
<title>Node94</title>
<g id="a_node24"><a xlink:href="classEthMacTx.html" target="_top" xlink:title="EthMacTx">
<polygon fill="#ffffff" stroke="#000000" points="838.5,-304.5 838.5,-323.5 902.5,-323.5 902.5,-304.5 838.5,-304.5"/>
<text text-anchor="middle" x="870.5" y="-311.5" font-family="Helvetica,sans-Serif" font-size="10.00" fill="#000000">EthMacTx</text>
</a>
</g>
</g>
<!-- Node94&#45;&gt;Node83 -->
<g id="edge28" class="edge">
<title>Node94&#45;&gt;Node83</title>
<path fill="none" stroke="#191970" d="M912.8845,-320.2914C929.6223,-322.776 948.595,-325.5922 964.419,-327.9411"/>
<polygon fill="#191970" stroke="#191970" points="913.2054,-316.8008 902.7998,-318.7945 912.1775,-323.7249 913.2054,-316.8008"/>
</g>
<!-- Node95 -->
<g id="node25" class="node">
<title>Node95</title>
<g id="a_node25"><a xlink:href="classEthMacTxBypass.html" target="_top" xlink:title="EthMacTxBypass">
<polygon fill="#ffffff" stroke="#000000" points="650.5,-304.5 650.5,-323.5 749.5,-323.5 749.5,-304.5 650.5,-304.5"/>
<text text-anchor="middle" x="700" y="-311.5" font-family="Helvetica,sans-Serif" font-size="10.00" fill="#000000">EthMacTxBypass</text>
</a>
</g>
</g>
<!-- Node95&#45;&gt;Node94 -->
<g id="edge29" class="edge">
<title>Node95&#45;&gt;Node94</title>
<path fill="none" stroke="#191970" d="M760.0702,-314C786.4616,-314 816.39,-314 838.4263,-314"/>
<polygon fill="#191970" stroke="#191970" points="759.774,-310.5001 749.774,-314 759.774,-317.5001 759.774,-310.5001"/>
</g>
<!-- Node96 -->
<g id="node26" class="node">
<title>Node96</title>
<g id="a_node26"><a xlink:href="classEthMacTxCsum.html" target="_top" xlink:title="EthMacTxCsum(2)">
<polygon fill="#ffffff" stroke="#000000" points="463.5,-342.5 463.5,-361.5 568.5,-361.5 568.5,-342.5 463.5,-342.5"/>
<text text-anchor="middle" x="516" y="-349.5" font-family="Helvetica,sans-Serif" font-size="10.00" fill="#000000">EthMacTxCsum(2)</text>
</a>
</g>
</g>
<!-- Node96&#45;&gt;Node94 -->
<g id="edge30" class="edge">
<title>Node96&#45;&gt;Node94</title>
<path fill="none" stroke="#191970" d="M578.8178,-350.1276C633.3058,-347.8889 714.1743,-343.0892 784,-333 802.1086,-330.3835 822.0728,-326.094 838.2545,-322.2522"/>
<polygon fill="#191970" stroke="#191970" points="578.4759,-346.6382 568.6214,-350.5292 578.7515,-353.6328 578.4759,-346.6382"/>
</g>
<!-- Node97 -->
<g id="node27" class="node">
<title>Node97</title>
<g id="a_node27"><a xlink:href="classAxiStreamPipeline.html" target="_top" xlink:title="AxiStreamPipeline(2)">
<polygon fill="#ffffff" stroke="#000000" points="294,-342.5 294,-361.5 414,-361.5 414,-342.5 294,-342.5"/>
<text text-anchor="middle" x="354" y="-349.5" font-family="Helvetica,sans-Serif" font-size="10.00" fill="#000000">AxiStreamPipeline(2)</text>
</a>
</g>
</g>
<!-- Node97&#45;&gt;Node96 -->
<g id="edge31" class="edge">
<title>Node97&#45;&gt;Node96</title>
<path fill="none" stroke="#191970" d="M424.6426,-352C437.6397,-352 450.9986,-352 463.3508,-352"/>
<polygon fill="#191970" stroke="#191970" points="424.3229,-348.5001 414.3228,-352 424.3228,-355.5001 424.3229,-348.5001"/>
</g>
<!-- Node98&#45;&gt;Node96 -->
<g id="edge32" class="edge">
<title>Node98&#45;&gt;Node96</title>
<path fill="none" stroke="#191970" d="M404.7148,-325.8961C427.4856,-331.2374 453.9867,-337.4537 475.4145,-342.4799"/>
<polygon fill="#191970" stroke="#191970" points="405.4145,-322.4653 394.8794,-323.589 403.8159,-329.2803 405.4145,-322.4653"/>
</g>
<!-- Node103 -->
<g id="node33" class="node">
<title>Node103</title>
<g id="a_node33"><a xlink:href="classEthMacTxExportXgmii.html" target="_top" xlink:title="EthMacTxExportXgmii">
<polygon fill="#ffffff" stroke="#ff0000" points="454,-304.5 454,-323.5 578,-323.5 578,-304.5 454,-304.5"/>
<text text-anchor="middle" x="516" y="-311.5" font-family="Helvetica,sans-Serif" font-size="10.00" fill="#000000">EthMacTxExportXgmii</text>
</a>
</g>
</g>
<!-- Node98&#45;&gt;Node103 -->
<g id="edge43" class="edge">
<title>Node98&#45;&gt;Node103</title>
<path fill="none" stroke="#191970" d="M413.4168,-314C426.6064,-314 440.6197,-314 453.9131,-314"/>
<polygon fill="#191970" stroke="#191970" points="413.045,-310.5001 403.045,-314 413.0449,-317.5001 413.045,-310.5001"/>
</g>
<!-- Node99 -->
<g id="node29" class="node">
<title>Node99</title>
<g id="a_node29"><a xlink:href="classEthMacTxPause.html" target="_top" xlink:title="EthMacTxPause">
<polygon fill="#ffffff" stroke="#000000" points="470,-190.5 470,-209.5 562,-209.5 562,-190.5 470,-190.5"/>
<text text-anchor="middle" x="516" y="-197.5" font-family="Helvetica,sans-Serif" font-size="10.00" fill="#000000">EthMacTxPause</text>
</a>
</g>
</g>
<!-- Node99&#45;&gt;Node94 -->
<g id="edge37" class="edge">
<title>Node99&#45;&gt;Node94</title>
<path fill="none" stroke="#191970" d="M571.9431,-210.7458C644.6474,-224.8889 764.641,-248.9039 784,-257 813.2022,-269.2126 843.1361,-291.5743 858.9931,-304.3577"/>
<polygon fill="#191970" stroke="#191970" points="572.4972,-207.2881 562.0135,-208.8184 571.1633,-214.1598 572.4972,-207.2881"/>
</g>
<!-- Node100&#45;&gt;Node99 -->
<g id="edge38" class="edge">
<title>Node100&#45;&gt;Node99</title>
<path fill="none" stroke="#191970" d="M253.6898,-224.0347C314.5789,-218.4556 412.3883,-209.4937 469.7982,-204.2333"/>
<polygon fill="#191970" stroke="#191970" points="253.1469,-220.5697 243.508,-224.9677 253.7856,-227.5405 253.1469,-220.5697"/>
</g>
<!-- Node101 -->
<g id="node31" class="node">
<title>Node101</title>
<g id="a_node31"><a xlink:href="classEthMacTxExport.html" target="_top" xlink:title="EthMacTxExport">
<polygon fill="#ffffff" stroke="#000000" points="652.5,-266.5 652.5,-285.5 747.5,-285.5 747.5,-266.5 652.5,-266.5"/>
<text text-anchor="middle" x="700" y="-273.5" font-family="Helvetica,sans-Serif" font-size="10.00" fill="#000000">EthMacTxExport</text>
</a>
</g>
</g>
<!-- Node101&#45;&gt;Node94 -->
<g id="edge40" class="edge">
<title>Node101&#45;&gt;Node94</title>
<path fill="none" stroke="#191970" d="M753.0341,-287.8199C780.9403,-294.0395 814.2466,-301.4626 838.2549,-306.8134"/>
<polygon fill="#191970" stroke="#191970" points="753.5463,-284.3483 743.0243,-285.589 752.0235,-291.1806 753.5463,-284.3483"/>
</g>
<!-- Node102 -->
<g id="node32" class="node">
<title>Node102</title>
<g id="a_node32"><a xlink:href="classEthMacTxExportXlgmii.html" target="_top" xlink:title="EthMacTxExportXlgmii">
<polygon fill="#ffffff" stroke="#000000" points="452.5,-266.5 452.5,-285.5 579.5,-285.5 579.5,-266.5 452.5,-266.5"/>
<text text-anchor="middle" x="516" y="-273.5" font-family="Helvetica,sans-Serif" font-size="10.00" fill="#000000">EthMacTxExportXlgmii</text>
</a>
</g>
</g>
<!-- Node102&#45;&gt;Node101 -->
<g id="edge41" class="edge">
<title>Node102&#45;&gt;Node101</title>
<path fill="none" stroke="#191970" d="M589.8069,-276C610.8987,-276 633.3194,-276 652.392,-276"/>
<polygon fill="#191970" stroke="#191970" points="589.58,-272.5001 579.58,-276 589.58,-279.5001 589.58,-272.5001"/>
</g>
<!-- Node103&#45;&gt;Node101 -->
<g id="edge42" class="edge">
<title>Node103&#45;&gt;Node101</title>
<path fill="none" stroke="#191970" d="M572.5606,-302.319C598.6542,-296.9301 629.2378,-290.6139 653.9029,-285.5201"/>
<polygon fill="#191970" stroke="#191970" points="571.5164,-298.9607 562.431,-304.411 572.9322,-305.816 571.5164,-298.9607"/>
</g>
<!-- Node105 -->
<g id="node34" class="node">
<title>Node105</title>
<g id="a_node34"><a xlink:href="classEthMacTxExportGmii.html" target="_top" xlink:title="EthMacTxExportGmii">
<polygon fill="#ffffff" stroke="#ff0000" points="456.5,-228.5 456.5,-247.5 575.5,-247.5 575.5,-228.5 456.5,-228.5"/>
<text text-anchor="middle" x="516" y="-235.5" font-family="Helvetica,sans-Serif" font-size="10.00" fill="#000000">EthMacTxExportGmii</text>
</a>
</g>
</g>
<!-- Node105&#45;&gt;Node101 -->
<g id="edge44" class="edge">
<title>Node105&#45;&gt;Node101</title>
<path fill="none" stroke="#191970" d="M572.5606,-249.681C598.6542,-255.0699 629.2378,-261.3861 653.9029,-266.4799"/>
<polygon fill="#191970" stroke="#191970" points="572.9322,-246.184 562.431,-247.589 571.5164,-253.0393 572.9322,-246.184"/>
</g>
<!-- Node107 -->
<g id="node35" class="node">
<title>Node107</title>
<g id="a_node35"><a xlink:href="classEthMacFlowCtrl.html" target="_top" xlink:title="EthMacFlowCtrl">
<polygon fill="#ffffff" stroke="#000000" points="824.5,-380.5 824.5,-399.5 916.5,-399.5 916.5,-380.5 824.5,-380.5"/>
<text text-anchor="middle" x="870.5" y="-387.5" font-family="Helvetica,sans-Serif" font-size="10.00" fill="#000000">EthMacFlowCtrl</text>
</a>
</g>
</g>
<!-- Node107&#45;&gt;Node83 -->
<g id="edge45" class="edge">
<title>Node107&#45;&gt;Node83</title>
<path fill="none" stroke="#191970" d="M907.0094,-376.7407C911.7444,-374.8818 916.507,-372.9414 921,-371 941.634,-362.0842 964.695,-350.5703 980.2548,-342.564"/>
<polygon fill="#191970" stroke="#191970" points="905.508,-373.5679 897.424,-380.4163 908.0143,-380.1038 905.508,-373.5679"/>
</g>
<!-- Node108 -->
<g id="node36" class="node">
<title>Node108</title>
<g id="a_node36"><a xlink:href="classEthMacRx.html" target="_top" xlink:title="EthMacRx">
<polygon fill="#ffffff" stroke="#000000" points="838,-133.5 838,-152.5 903,-152.5 903,-133.5 838,-133.5"/>
<text text-anchor="middle" x="870.5" y="-140.5" font-family="Helvetica,sans-Serif" font-size="10.00" fill="#000000">EthMacRx</text>
</a>
</g>
</g>
<!-- Node108&#45;&gt;Node83 -->
<g id="edge46" class="edge">
<title>Node108&#45;&gt;Node83</title>
<path fill="none" stroke="#191970" d="M882.6691,-161.0635C909.17,-200.4008 971.3636,-292.7194 991.8361,-323.1083"/>
<polygon fill="#191970" stroke="#191970" points="885.5135,-159.0214 877.0235,-152.6833 879.708,-162.9324 885.5135,-159.0214"/>
</g>
<!-- Node109 -->
<g id="node37" class="node">
<title>Node109</title>
<g id="a_node37"><a xlink:href="classEthMacRxImport.html" target="_top" xlink:title="EthMacRxImport">
<polygon fill="#ffffff" stroke="#ff0000" points="651.5,-76.5 651.5,-95.5 748.5,-95.5 748.5,-76.5 651.5,-76.5"/>
<text text-anchor="middle" x="700" y="-83.5" font-family="Helvetica,sans-Serif" font-size="10.00" fill="#000000">EthMacRxImport</text>
</a>
</g>
</g>
<!-- Node109&#45;&gt;Node108 -->
<g id="edge47" class="edge">
<title>Node109&#45;&gt;Node108</title>
<path fill="none" stroke="#191970" d="M758.786,-97.7851C767.3173,-99.9315 775.9364,-102.344 784,-105 807.992,-112.9024 834.421,-125.0486 851.6729,-133.473"/>
<polygon fill="#191970" stroke="#191970" points="759.3915,-94.3309 748.8497,-95.3891 757.7505,-101.1359 759.3915,-94.3309"/>
</g>
<!-- Node110 -->
<g id="node38" class="node">
<title>Node110</title>
<g id="a_node38"><a xlink:href="classEthMacRxImportXlgmii.html" target="_top" xlink:title="EthMacRxImportXlgmii">
<polygon fill="#ffffff" stroke="#000000" points="452,-95.5 452,-114.5 580,-114.5 580,-95.5 452,-95.5"/>
<text text-anchor="middle" x="516" y="-102.5" font-family="Helvetica,sans-Serif" font-size="10.00" fill="#000000">EthMacRxImportXlgmii</text>
</a>
</g>
</g>
<!-- Node110&#45;&gt;Node109 -->
<g id="edge48" class="edge">
<title>Node110&#45;&gt;Node109</title>
<path fill="none" stroke="#191970" d="M590.1237,-97.3459C610.7946,-95.2114 632.7178,-92.9476 651.4992,-91.0082"/>
<polygon fill="#191970" stroke="#191970" points="589.6835,-93.8727 580.096,-98.3814 590.4026,-100.8356 589.6835,-93.8727"/>
</g>
<!-- Node111 -->
<g id="node39" class="node">
<title>Node111</title>
<g id="a_node39"><a xlink:href="classEthMacRxImportXgmii.html" target="_top" xlink:title="EthMacRxImportXgmii">
<polygon fill="#ffffff" stroke="#ff0000" points="453.5,-57.5 453.5,-76.5 578.5,-76.5 578.5,-57.5 453.5,-57.5"/>
<text text-anchor="middle" x="516" y="-64.5" font-family="Helvetica,sans-Serif" font-size="10.00" fill="#000000">EthMacRxImportXgmii</text>
</a>
</g>
</g>
<!-- Node111&#45;&gt;Node109 -->
<g id="edge49" class="edge">
<title>Node111&#45;&gt;Node109</title>
<path fill="none" stroke="#191970" d="M588.7253,-74.5097C609.722,-76.6778 632.1212,-78.9908 651.2781,-80.9689"/>
<polygon fill="#191970" stroke="#191970" points="588.8574,-71.0048 578.5508,-73.459 588.1383,-77.9678 588.8574,-71.0048"/>
</g>
<!-- Node114 -->
<g id="node40" class="node">
<title>Node114</title>
<g id="a_node40"><a xlink:href="classEthMacRxPause.html" target="_top" xlink:title="EthMacRxPause">
<polygon fill="#ffffff" stroke="#000000" points="653.5,-190.5 653.5,-209.5 746.5,-209.5 746.5,-190.5 653.5,-190.5"/>
<text text-anchor="middle" x="700" y="-197.5" font-family="Helvetica,sans-Serif" font-size="10.00" fill="#000000">EthMacRxPause</text>
</a>
</g>
</g>
<!-- Node114&#45;&gt;Node108 -->
<g id="edge50" class="edge">
<title>Node114&#45;&gt;Node108</title>
<path fill="none" stroke="#191970" d="M756.5768,-188.7653C765.8237,-186.4836 775.2396,-183.8855 784,-181 807.992,-173.0976 834.421,-160.9514 851.6729,-152.527"/>
<polygon fill="#191970" stroke="#191970" points="755.5732,-185.406 746.6484,-191.1156 757.1857,-192.2178 755.5732,-185.406"/>
</g>
<!-- Node115 -->
<g id="node41" class="node">
<title>Node115</title>
<g id="a_node41"><a xlink:href="classEthMacRxCsum.html" target="_top" xlink:title="EthMacRxCsum(2)">
<polygon fill="#ffffff" stroke="#000000" points="647,-152.5 647,-171.5 753,-171.5 753,-152.5 647,-152.5"/>
<text text-anchor="middle" x="700" y="-159.5" font-family="Helvetica,sans-Serif" font-size="10.00" fill="#000000">EthMacRxCsum(2)</text>
</a>
</g>
</g>
<!-- Node115&#45;&gt;Node108 -->
<g id="edge51" class="edge">
<title>Node115&#45;&gt;Node108</title>
<path fill="none" stroke="#191970" d="M762.97,-154.9828C788.4104,-152.1478 816.6976,-148.9956 837.8717,-146.636"/>
<polygon fill="#191970" stroke="#191970" points="762.5635,-151.5064 753.0127,-156.0924 763.3388,-158.4633 762.5635,-151.5064"/>
</g>
<!-- Node116 -->
<g id="node42" class="node">
<title>Node116</title>
<g id="a_node42"><a xlink:href="classEthMacRxBypass.html" target="_top" xlink:title="EthMacRxBypass">
<polygon fill="#ffffff" stroke="#000000" points="650,-114.5 650,-133.5 750,-133.5 750,-114.5 650,-114.5"/>
<text text-anchor="middle" x="700" y="-121.5" font-family="Helvetica,sans-Serif" font-size="10.00" fill="#000000">EthMacRxBypass</text>
</a>
</g>
</g>
<!-- Node116&#45;&gt;Node108 -->
<g id="edge52" class="edge">
<title>Node116&#45;&gt;Node108</title>
<path fill="none" stroke="#191970" d="M760.41,-130.7319C786.4797,-133.637 815.945,-136.9206 837.8276,-139.3591"/>
<polygon fill="#191970" stroke="#191970" points="760.5596,-127.227 750.2334,-129.5979 759.7843,-134.1839 760.5596,-127.227"/>
</g>
<!-- Node117 -->
<g id="node43" class="node">
<title>Node117</title>
<g id="a_node43"><a xlink:href="classEthMacRxFilter.html" target="_top" xlink:title="EthMacRxFilter">
<polygon fill="#ffffff" stroke="#000000" points="655.5,-38.5 655.5,-57.5 744.5,-57.5 744.5,-38.5 655.5,-38.5"/>
<text text-anchor="middle" x="700" y="-45.5" font-family="Helvetica,sans-Serif" font-size="10.00" fill="#000000">EthMacRxFilter</text>
</a>
</g>
</g>
<!-- Node117&#45;&gt;Node108 -->
<g id="edge53" class="edge">
<title>Node117&#45;&gt;Node108</title>
<path fill="none" stroke="#191970" d="M754.6038,-56.187C764.6958,-58.8486 774.9096,-62.3634 784,-67 817.4785,-84.0759 848.4355,-117.0589 862.5192,-133.3763"/>
<polygon fill="#191970" stroke="#191970" points="755.1377,-52.7162 744.5984,-53.7999 753.5131,-59.5251 755.1377,-52.7162"/>
</g>
<!-- Node118 -->
<g id="node44" class="node">
<title>Node118</title>
<g id="a_node44"><a xlink:href="classEthMacRxFifo.html" target="_top" xlink:title="EthMacRxFifo">
<polygon fill="#ffffff" stroke="#000000" points="829.5,-38.5 829.5,-57.5 911.5,-57.5 911.5,-38.5 829.5,-38.5"/>
<text text-anchor="middle" x="870.5" y="-45.5" font-family="Helvetica,sans-Serif" font-size="10.00" fill="#000000">EthMacRxFifo</text>
</a>
</g>
</g>
<!-- Node118&#45;&gt;Node83 -->
<g id="edge54" class="edge">
<title>Node118&#45;&gt;Node83</title>
<path fill="none" stroke="#191970" d="M884.3339,-66.19C895.2704,-81.146 910.4079,-103.1887 921,-124 958.2134,-197.1166 986.9409,-292.4642 995.7167,-323.0799"/>
<polygon fill="#191970" stroke="#191970" points="886.9212,-63.8039 878.1454,-57.8679 881.3041,-67.981 886.9212,-63.8039"/>
</g>
<!-- Node119 -->
<g id="node45" class="node">
<title>Node119</title>
<g id="a_node45"><a xlink:href="classSsiFifo.html" target="_top" xlink:title="SsiFifo(3)">
<polygon fill="#ffffff" stroke="#ff0000" points="669,-.5 669,-19.5 731,-19.5 731,-.5 669,-.5"/>
<text text-anchor="middle" x="700" y="-7.5" font-family="Helvetica,sans-Serif" font-size="10.00" fill="#000000">SsiFifo(3)</text>
</a>
</g>
</g>
<!-- Node119&#45;&gt;Node118 -->
<g id="edge55" class="edge">
<title>Node119&#45;&gt;Node118</title>
<path fill="none" stroke="#191970" d="M741.1089,-19.1621C767.8868,-25.1302 802.6889,-32.8867 829.4542,-38.852"/>
<polygon fill="#191970" stroke="#191970" points="741.7943,-15.729 731.2723,-16.9698 740.2714,-22.5614 741.7943,-15.729"/>
</g>
<!-- Node123&#45;&gt;Node82 -->
<g id="edge56" class="edge">
<title>Node123&#45;&gt;Node82</title>
<path fill="none" stroke="#191970" d="M1049.2801,-504C1060.5719,-504 1072.459,-504 1083.4773,-504"/>
<polygon fill="#191970" stroke="#191970" points="1049.1193,-500.5001 1039.1193,-504 1049.1193,-507.5001 1049.1193,-500.5001"/>
</g>
<!-- Node124 -->
<g id="node47" class="node">
<title>Node124</title>
<g id="a_node47"><a xlink:href="classTenGigEthReg.html" target="_top" xlink:title="TenGigEthReg">
<polygon fill="#ffffff" stroke="#000000" points="957,-456.5 957,-475.5 1040,-475.5 1040,-456.5 957,-456.5"/>
<text text-anchor="middle" x="998.5" y="-463.5" font-family="Helvetica,sans-Serif" font-size="10.00" fill="#000000">TenGigEthReg</text>
</a>
</g>
</g>
<!-- Node124&#45;&gt;Node82 -->
<g id="edge58" class="edge">
<title>Node124&#45;&gt;Node82</title>
<path fill="none" stroke="#191970" d="M1041.219,-478.5353C1058.836,-483.7048 1078.9232,-489.5991 1095.3321,-494.4141"/>
<polygon fill="#191970" stroke="#191970" points="1041.7592,-475.0463 1031.1783,-475.589 1039.7882,-481.7631 1041.7592,-475.0463"/>
</g>
<!-- Node125 -->
<g id="node48" class="node">
<title>Node125</title>
<g id="a_node48"><a xlink:href="classSynchronizerVector.html" target="_top" xlink:title="SynchronizerVector">
<polygon fill="#ffffff" stroke="#000000" points="645,-418.5 645,-437.5 755,-437.5 755,-418.5 645,-418.5"/>
<text text-anchor="middle" x="700" y="-425.5" font-family="Helvetica,sans-Serif" font-size="10.00" fill="#000000">SynchronizerVector</text>
</a>
</g>
</g>
<!-- Node125&#45;&gt;Node124 -->
<g id="edge59" class="edge">
<title>Node125&#45;&gt;Node124</title>
<path fill="none" stroke="#191970" d="M765.2729,-430.9559C809.4482,-433.6058 869.0024,-438.4437 921,-447 935.3529,-449.3618 950.9697,-452.9825 964.3989,-456.4321"/>
<polygon fill="#191970" stroke="#191970" points="765.4261,-427.459 755.2407,-430.3758 765.0219,-434.4474 765.4261,-427.459"/>
</g>
<!-- Node126 -->
<g id="node49" class="node">
<title>Node126</title>
<g id="a_node49"><a xlink:href="classSyncStatusVector.html" target="_top" xlink:title="SyncStatusVector">
<polygon fill="#ffffff" stroke="#000000" points="820,-456.5 820,-475.5 921,-475.5 921,-456.5 820,-456.5"/>
<text text-anchor="middle" x="870.5" y="-463.5" font-family="Helvetica,sans-Serif" font-size="10.00" fill="#000000">SyncStatusVector</text>
</a>
</g>
</g>
<!-- Node125&#45;&gt;Node126 -->
<g id="edge61" class="edge">
<title>Node125&#45;&gt;Node126</title>
<path fill="none" stroke="#191970" d="M753.0536,-439.8243C777.0911,-445.1816 805.1318,-451.4311 827.785,-456.4799"/>
<polygon fill="#191970" stroke="#191970" points="753.5463,-436.3483 743.0243,-437.589 752.0235,-443.1806 753.5463,-436.3483"/>
</g>
<!-- Node126&#45;&gt;Node124 -->
<g id="edge60" class="edge">
<title>Node126&#45;&gt;Node124</title>
<path fill="none" stroke="#191970" d="M931.2268,-466C939.9273,-466 948.7087,-466 956.9255,-466"/>
<polygon fill="#191970" stroke="#191970" points="931.089,-462.5001 921.089,-466 931.089,-469.5001 931.089,-462.5001"/>
</g>
<!-- Node127 -->
<g id="node50" class="node">
<title>Node127</title>
<g id="a_node50"><a xlink:href="classSynchronizerOneShotCntVector.html" target="_top" xlink:title="SynchronizerOneShotCntVector">
<polygon fill="#ffffff" stroke="#ff0000" points="616,-456.5 616,-475.5 784,-475.5 784,-456.5 616,-456.5"/>
<text text-anchor="middle" x="700" y="-463.5" font-family="Helvetica,sans-Serif" font-size="10.00" fill="#000000">SynchronizerOneShotCntVector</text>
</a>
</g>
</g>
<!-- Node127&#45;&gt;Node126 -->
<g id="edge62" class="edge">
<title>Node127&#45;&gt;Node126</title>
<path fill="none" stroke="#191970" d="M794.4293,-466C803.0683,-466 811.58,-466 819.6042,-466"/>
<polygon fill="#191970" stroke="#191970" points="794.251,-462.5001 784.251,-466 794.251,-469.5001 794.251,-462.5001"/>
</g>
</g>
</svg>
