<?xml version="1.0" encoding="UTF-8" standalone="no"?>
<!DOCTYPE svg PUBLIC "-//W3C//DTD SVG 1.1//EN"
 "http://www.w3.org/Graphics/SVG/1.1/DTD/svg11.dtd">
<!-- Generated by graphviz version 2.40.1 (20161225.0304)
 -->
<!-- Title: AxiStreamPacketizer2 Pages: 1 -->
<!--zoomable 256 -->
<svg id="main" version="1.1" xmlns="http://www.w3.org/2000/svg" xmlns:xlink="http://www.w3.org/1999/xlink" xml:space="preserve" onload="init(evt)">
<style type="text/css"><![CDATA[
.edge:hover path { stroke: red; }
.edge:hover polygon { stroke: red; fill: red; }
]]></style>
<script type="text/javascript"><![CDATA[
var edges = document.getElementsByTagName('g');
if (edges && edges.length) {
  for (var i=0;i<edges.length;i++) {
    if (edges[i].id.substr(0,4)=='edge') {
      edges[i].setAttribute('class','edge');
    }
  }
}
]]></script>
        <defs>
                <circle id="rim" cx="0" cy="0" r="7"/>
                <circle id="rim2" cx="0" cy="0" r="3.5"/>
                <g id="zoomPlus">
                        <use xlink:href="#rim" fill="#404040">
                                <set attributeName="fill" to="#808080" begin="zoomplus.mouseover" end="zoomplus.mouseout"/>
                        </use>
                        <path d="M-4,0h8M0,-4v8" fill="none" stroke="white" stroke-width="1.5" pointer-events="none"/>
                </g>
                <g id="zoomMin">
                        <use xlink:href="#rim" fill="#404040">
                                <set attributeName="fill" to="#808080" begin="zoomminus.mouseover" end="zoomminus.mouseout"/>
                        </use>
                        <path d="M-4,0h8" fill="none" stroke="white" stroke-width="1.5" pointer-events="none"/>
                </g>
                <g id="dirArrow">
                        <path fill="none" stroke="white" stroke-width="1.5" d="M0,-3.0v7 M-2.5,-0.5L0,-3.0L2.5,-0.5"/>
                </g>
               <g id="resetDef">
                       <use xlink:href="#rim2" fill="#404040">
                               <set attributeName="fill" to="#808080" begin="reset.mouseover" end="reset.mouseout"/>
                       </use>
               </g>
        </defs>

<script type="text/javascript">
var viewWidth = 1098;
var viewHeight = 256;
var sectionId = 'dynsection-0';
</script>
<script xlink:href="svgpan.js"/>
<svg id="graph" class="graph">
<g id="viewport">
<title>AxiStreamPacketizer2</title>
<polygon fill="#ffffff" stroke="transparent" points="-4,4 -4,-252 1094,-252 1094,4 -4,4"/>
<!-- Node0 -->
<g id="node1" class="node">
<title>Node0</title>
<polygon fill="#bfbfbf" stroke="#000000" points="293,-171.5 293,-190.5 417,-190.5 417,-171.5 293,-171.5"/>
<text text-anchor="middle" x="355" y="-178.5" font-family="Helvetica,sans-Serif" font-size="10.00" fill="#000000">AxiStreamPacketizer2</text>
</g>
<!-- Node7 -->
<g id="node8" class="node">
<title>Node7</title>
<g id="a_node8"><a xlink:href="classAxiRssiCoreWrapper.html" target="_top" xlink:title="AxiRssiCoreWrapper">
<polygon fill="#ffffff" stroke="#000000" points="463,-228.5 463,-247.5 579,-247.5 579,-228.5 463,-228.5"/>
<text text-anchor="middle" x="521" y="-235.5" font-family="Helvetica,sans-Serif" font-size="10.00" fill="#000000">AxiRssiCoreWrapper</text>
</a>
</g>
</g>
<!-- Node0&#45;&gt;Node7 -->
<g id="edge7" class="edge">
<title>Node0&#45;&gt;Node7</title>
<path fill="none" stroke="#191970" d="M387.1176,-194.3646C406.1124,-202.0392 430.7353,-211.5924 453,-219 463.1189,-222.3666 474.2137,-225.6393 484.4524,-228.4932"/>
<polygon fill="#191970" stroke="#191970" points="388.3213,-191.0757 377.7398,-190.5439 385.6801,-197.5584 388.3213,-191.0757"/>
</g>
<!-- Node9 -->
<g id="node10" class="node">
<title>Node9</title>
<g id="a_node10"><a xlink:href="classAxiStreamPacketizer2Tb.html" target="_top" xlink:title="AxiStreamPacketizer2Tb">
<polygon fill="#ffffff" stroke="#000000" points="453,-190.5 453,-209.5 589,-209.5 589,-190.5 453,-190.5"/>
<text text-anchor="middle" x="521" y="-197.5" font-family="Helvetica,sans-Serif" font-size="10.00" fill="#000000">AxiStreamPacketizer2Tb</text>
</a>
</g>
</g>
<!-- Node0&#45;&gt;Node9 -->
<g id="edge9" class="edge">
<title>Node0&#45;&gt;Node9</title>
<path fill="none" stroke="#191970" d="M427.4574,-189.2933C435.8766,-190.257 444.4429,-191.2374 452.8022,-192.1942"/>
<polygon fill="#191970" stroke="#191970" points="427.6177,-185.7889 417.2846,-188.129 426.8217,-192.7435 427.6177,-185.7889"/>
</g>
<!-- Node10 -->
<g id="node11" class="node">
<title>Node10</title>
<g id="a_node11"><a xlink:href="classPgp3Tx.html" target="_top" xlink:title="Pgp3Tx">
<polygon fill="#ffffff" stroke="#000000" points="494.5,-152.5 494.5,-171.5 547.5,-171.5 547.5,-152.5 494.5,-152.5"/>
<text text-anchor="middle" x="521" y="-159.5" font-family="Helvetica,sans-Serif" font-size="10.00" fill="#000000">Pgp3Tx</text>
</a>
</g>
</g>
<!-- Node0&#45;&gt;Node10 -->
<g id="edge10" class="edge">
<title>Node0&#45;&gt;Node10</title>
<path fill="none" stroke="#191970" d="M427.4089,-172.7122C451.2566,-169.9827 476.29,-167.1174 494.4601,-165.0377"/>
<polygon fill="#191970" stroke="#191970" points="426.8217,-169.2565 417.2846,-173.871 427.6177,-176.2111 426.8217,-169.2565"/>
</g>
<!-- Node20 -->
<g id="node21" class="node">
<title>Node20</title>
<g id="a_node21"><a xlink:href="classRssiCoreWrapper.html" target="_top" xlink:title="RssiCoreWrapper">
<polygon fill="#ffffff" stroke="#000000" points="471,-76.5 471,-95.5 571,-95.5 571,-76.5 471,-76.5"/>
<text text-anchor="middle" x="521" y="-83.5" font-family="Helvetica,sans-Serif" font-size="10.00" fill="#000000">RssiCoreWrapper</text>
</a>
</g>
</g>
<!-- Node0&#45;&gt;Node20 -->
<g id="edge20" class="edge">
<title>Node0&#45;&gt;Node20</title>
<path fill="none" stroke="#191970" d="M380.802,-166.2338C415.1706,-146.565 475.0114,-112.3188 504.125,-95.6574"/>
<polygon fill="#191970" stroke="#191970" points="378.7712,-163.3633 371.8305,-171.3681 382.2482,-169.4388 378.7712,-163.3633"/>
</g>
<!-- Node1 -->
<g id="node2" class="node">
<title>Node1</title>
<g id="a_node2"><a xlink:href="classAxiStreamPipeline.html" target="_top" xlink:title="AxiStreamPipeline(2)">
<polygon fill="#ffffff" stroke="#000000" points="137,-228.5 137,-247.5 257,-247.5 257,-228.5 137,-228.5"/>
<text text-anchor="middle" x="197" y="-235.5" font-family="Helvetica,sans-Serif" font-size="10.00" fill="#000000">AxiStreamPipeline(2)</text>
</a>
</g>
</g>
<!-- Node1&#45;&gt;Node0 -->
<g id="edge1" class="edge">
<title>Node1&#45;&gt;Node0</title>
<path fill="none" stroke="#191970" d="M238.2963,-225.301C244.5837,-223.2585 250.98,-221.1179 257,-219 282.6487,-209.9764 311.6393,-198.5839 331.3927,-190.6369"/>
<polygon fill="#191970" stroke="#191970" points="237.0322,-222.0306 228.5754,-228.4128 239.1664,-228.6974 237.0322,-222.0306"/>
</g>
<!-- Node2 -->
<g id="node3" class="node">
<title>Node2</title>
<g id="a_node3"><a xlink:href="classDualPortRam.html" target="_top" xlink:title="DualPortRam">
<polygon fill="#ffffff" stroke="#000000" points="156.5,-190.5 156.5,-209.5 237.5,-209.5 237.5,-190.5 156.5,-190.5"/>
<text text-anchor="middle" x="197" y="-197.5" font-family="Helvetica,sans-Serif" font-size="10.00" fill="#000000">DualPortRam</text>
</a>
</g>
</g>
<!-- Node2&#45;&gt;Node0 -->
<g id="edge2" class="edge">
<title>Node2&#45;&gt;Node0</title>
<path fill="none" stroke="#191970" d="M247.8641,-193.8834C262.2293,-192.156 278.0222,-190.2568 292.9652,-188.4599"/>
<polygon fill="#191970" stroke="#191970" points="247.1995,-190.438 237.6889,-195.107 248.0353,-197.388 247.1995,-190.438"/>
</g>
<!-- Node3 -->
<g id="node4" class="node">
<title>Node3</title>
<g id="a_node4"><a xlink:href="classTrueDualPortRam.html" target="_top" xlink:title="TrueDualPortRam">
<polygon fill="#ffffff" stroke="#000000" points="0,-209.5 0,-228.5 101,-228.5 101,-209.5 0,-209.5"/>
<text text-anchor="middle" x="50.5" y="-216.5" font-family="Helvetica,sans-Serif" font-size="10.00" fill="#000000">TrueDualPortRam</text>
</a>
</g>
</g>
<!-- Node3&#45;&gt;Node2 -->
<g id="edge3" class="edge">
<title>Node3&#45;&gt;Node2</title>
<path fill="none" stroke="#191970" d="M111.6399,-211.0706C126.746,-209.1114 142.5589,-207.0606 156.412,-205.264"/>
<polygon fill="#191970" stroke="#191970" points="110.7942,-207.6509 101.3274,-212.408 111.6946,-214.5927 110.7942,-207.6509"/>
</g>
<!-- Node4 -->
<g id="node5" class="node">
<title>Node4</title>
<g id="a_node5"><a xlink:href="classQuadPortRam.html" target="_top" xlink:title="QuadPortRam">
<polygon fill="#ffffff" stroke="#000000" points="8.5,-171.5 8.5,-190.5 92.5,-190.5 92.5,-171.5 8.5,-171.5"/>
<text text-anchor="middle" x="50.5" y="-178.5" font-family="Helvetica,sans-Serif" font-size="10.00" fill="#000000">QuadPortRam</text>
</a>
</g>
</g>
<!-- Node4&#45;&gt;Node2 -->
<g id="edge4" class="edge">
<title>Node4&#45;&gt;Node2</title>
<path fill="none" stroke="#191970" d="M103.0014,-187.8091C120.6023,-190.0918 139.9452,-192.6004 156.4848,-194.7455"/>
<polygon fill="#191970" stroke="#191970" points="103.241,-184.3109 92.8739,-186.4956 102.3406,-191.2528 103.241,-184.3109"/>
</g>
<!-- Node5 -->
<g id="node6" class="node">
<title>Node5</title>
<g id="a_node6"><a xlink:href="classCrc32Parallel.html" target="_top" xlink:title="Crc32Parallel">
<polygon fill="#ffffff" stroke="#000000" points="157,-152.5 157,-171.5 237,-171.5 237,-152.5 157,-152.5"/>
<text text-anchor="middle" x="197" y="-159.5" font-family="Helvetica,sans-Serif" font-size="10.00" fill="#000000">Crc32Parallel</text>
</a>
</g>
</g>
<!-- Node5&#45;&gt;Node0 -->
<g id="edge5" class="edge">
<title>Node5&#45;&gt;Node0</title>
<path fill="none" stroke="#191970" d="M247.5163,-168.0747C261.9784,-169.8139 277.9109,-171.7298 292.9785,-173.5417"/>
<polygon fill="#191970" stroke="#191970" points="247.6253,-164.5627 237.2789,-166.8437 246.7895,-171.5126 247.6253,-164.5627"/>
</g>
<!-- Node6 -->
<g id="node7" class="node">
<title>Node6</title>
<g id="a_node7"><a xlink:href="classCrc32.html" target="_top" xlink:title="Crc32">
<polygon fill="#ffffff" stroke="#000000" points="175,-114.5 175,-133.5 219,-133.5 219,-114.5 175,-114.5"/>
<text text-anchor="middle" x="197" y="-121.5" font-family="Helvetica,sans-Serif" font-size="10.00" fill="#000000">Crc32</text>
</a>
</g>
</g>
<!-- Node6&#45;&gt;Node0 -->
<g id="edge6" class="edge">
<title>Node6&#45;&gt;Node0</title>
<path fill="none" stroke="#191970" d="M228.619,-133.601C237.8114,-136.5033 247.8411,-139.7778 257,-143 282.6487,-152.0236 311.6393,-163.4161 331.3927,-171.3631"/>
<polygon fill="#191970" stroke="#191970" points="229.6422,-130.2539 219.0537,-130.6179 227.5582,-136.9365 229.6422,-130.2539"/>
</g>
<!-- Node8 -->
<g id="node9" class="node">
<title>Node8</title>
<g id="a_node9"><a xlink:href="classAxiRssiCoreTb.html" target="_top" xlink:title="AxiRssiCoreTb">
<polygon fill="#ffffff" stroke="#000000" points="631,-228.5 631,-247.5 718,-247.5 718,-228.5 631,-228.5"/>
<text text-anchor="middle" x="674.5" y="-235.5" font-family="Helvetica,sans-Serif" font-size="10.00" fill="#000000">AxiRssiCoreTb</text>
</a>
</g>
</g>
<!-- Node7&#45;&gt;Node8 -->
<g id="edge8" class="edge">
<title>Node7&#45;&gt;Node8</title>
<path fill="none" stroke="#191970" d="M589.2047,-238C603.3081,-238 617.8013,-238 630.7474,-238"/>
<polygon fill="#191970" stroke="#191970" points="589.0318,-234.5001 579.0318,-238 589.0317,-241.5001 589.0318,-234.5001"/>
</g>
<!-- Node11 -->
<g id="node12" class="node">
<title>Node11</title>
<g id="a_node12"><a xlink:href="classPgp3Core.html" target="_top" xlink:title="Pgp3Core">
<polygon fill="#ffffff" stroke="#000000" points="643,-190.5 643,-209.5 706,-209.5 706,-190.5 643,-190.5"/>
<text text-anchor="middle" x="674.5" y="-197.5" font-family="Helvetica,sans-Serif" font-size="10.00" fill="#000000">Pgp3Core</text>
</a>
</g>
</g>
<!-- Node10&#45;&gt;Node11 -->
<g id="edge11" class="edge">
<title>Node10&#45;&gt;Node11</title>
<path fill="none" stroke="#191970" d="M557.5745,-171.0543C583.5148,-177.476 617.9819,-186.0086 642.7645,-192.1437"/>
<polygon fill="#191970" stroke="#191970" points="558.2857,-167.6248 547.7377,-168.6191 556.6036,-174.4196 558.2857,-167.6248"/>
</g>
<!-- Node19 -->
<g id="node20" class="node">
<title>Node19</title>
<g id="a_node20"><a xlink:href="classPgp3Tb.html" target="_top" xlink:title="Pgp3Tb">
<polygon fill="#ffffff" stroke="#000000" points="648,-152.5 648,-171.5 701,-171.5 701,-152.5 648,-152.5"/>
<text text-anchor="middle" x="674.5" y="-159.5" font-family="Helvetica,sans-Serif" font-size="10.00" fill="#000000">Pgp3Tb</text>
</a>
</g>
</g>
<!-- Node10&#45;&gt;Node19 -->
<g id="edge19" class="edge">
<title>Node10&#45;&gt;Node19</title>
<path fill="none" stroke="#191970" d="M557.8465,-162C585.5721,-162 622.922,-162 647.8117,-162"/>
<polygon fill="#191970" stroke="#191970" points="557.7377,-158.5001 547.7377,-162 557.7376,-165.5001 557.7377,-158.5001"/>
</g>
<!-- Node12 -->
<g id="node13" class="node">
<title>Node12</title>
<g id="a_node13"><a xlink:href="classPgp3GthUs.html" target="_top" xlink:title="Pgp3GthUs">
<polygon fill="#ffffff" stroke="#000000" points="760,-228.5 760,-247.5 831,-247.5 831,-228.5 760,-228.5"/>
<text text-anchor="middle" x="795.5" y="-235.5" font-family="Helvetica,sans-Serif" font-size="10.00" fill="#000000">Pgp3GthUs</text>
</a>
</g>
</g>
<!-- Node11&#45;&gt;Node12 -->
<g id="edge12" class="edge">
<title>Node11&#45;&gt;Node12</title>
<path fill="none" stroke="#191970" d="M714.8771,-212.6804C731.2262,-217.8148 749.7878,-223.6441 764.9764,-228.4141"/>
<polygon fill="#191970" stroke="#191970" points="715.6227,-209.2461 705.0334,-209.589 713.5253,-215.9245 715.6227,-209.2461"/>
</g>
<!-- Node14 -->
<g id="node15" class="node">
<title>Node14</title>
<g id="a_node15"><a xlink:href="classPgp3Gtp7.html" target="_top" xlink:title="Pgp3Gtp7">
<polygon fill="#ffffff" stroke="#000000" points="763.5,-190.5 763.5,-209.5 827.5,-209.5 827.5,-190.5 763.5,-190.5"/>
<text text-anchor="middle" x="795.5" y="-197.5" font-family="Helvetica,sans-Serif" font-size="10.00" fill="#000000">Pgp3Gtp7</text>
</a>
</g>
</g>
<!-- Node11&#45;&gt;Node14 -->
<g id="edge14" class="edge">
<title>Node11&#45;&gt;Node14</title>
<path fill="none" stroke="#191970" d="M716.5238,-200C731.7828,-200 748.7763,-200 763.0792,-200"/>
<polygon fill="#191970" stroke="#191970" points="716.2914,-196.5001 706.2913,-200 716.2913,-203.5001 716.2914,-196.5001"/>
</g>
<!-- Node17 -->
<g id="node18" class="node">
<title>Node17</title>
<g id="a_node18"><a xlink:href="classPgp3Gtx7.html" target="_top" xlink:title="Pgp3Gtx7">
<polygon fill="#ffffff" stroke="#000000" points="763.5,-152.5 763.5,-171.5 827.5,-171.5 827.5,-152.5 763.5,-152.5"/>
<text text-anchor="middle" x="795.5" y="-159.5" font-family="Helvetica,sans-Serif" font-size="10.00" fill="#000000">Pgp3Gtx7</text>
</a>
</g>
</g>
<!-- Node11&#45;&gt;Node17 -->
<g id="edge17" class="edge">
<title>Node11&#45;&gt;Node17</title>
<path fill="none" stroke="#191970" d="M714.8771,-187.3196C731.2262,-182.1852 749.7878,-176.3559 764.9764,-171.5859"/>
<polygon fill="#191970" stroke="#191970" points="713.5253,-184.0755 705.0334,-190.411 715.6227,-190.7539 713.5253,-184.0755"/>
</g>
<!-- Node13 -->
<g id="node14" class="node">
<title>Node13</title>
<g id="a_node14"><a xlink:href="classPgp3GthUsWrapper.html" target="_top" xlink:title="Pgp3GthUsWrapper">
<polygon fill="#ffffff" stroke="#000000" points="867,-228.5 867,-247.5 978,-247.5 978,-228.5 867,-228.5"/>
<text text-anchor="middle" x="922.5" y="-235.5" font-family="Helvetica,sans-Serif" font-size="10.00" fill="#000000">Pgp3GthUsWrapper</text>
</a>
</g>
</g>
<!-- Node12&#45;&gt;Node13 -->
<g id="edge13" class="edge">
<title>Node12&#45;&gt;Node13</title>
<path fill="none" stroke="#191970" d="M841.3365,-238C849.5445,-238 858.1802,-238 866.6328,-238"/>
<polygon fill="#191970" stroke="#191970" points="841.2146,-234.5001 831.2146,-238 841.2145,-241.5001 841.2146,-234.5001"/>
</g>
<!-- Node15 -->
<g id="node16" class="node">
<title>Node15</title>
<g id="a_node16"><a xlink:href="classPgp3Gtp7Wrapper.html" target="_top" xlink:title="Pgp3Gtp7Wrapper">
<polygon fill="#ffffff" stroke="#000000" points="870.5,-190.5 870.5,-209.5 974.5,-209.5 974.5,-190.5 870.5,-190.5"/>
<text text-anchor="middle" x="922.5" y="-197.5" font-family="Helvetica,sans-Serif" font-size="10.00" fill="#000000">Pgp3Gtp7Wrapper</text>
</a>
</g>
</g>
<!-- Node14&#45;&gt;Node15 -->
<g id="edge15" class="edge">
<title>Node14&#45;&gt;Node15</title>
<path fill="none" stroke="#191970" d="M837.6348,-200C848.061,-200 859.357,-200 870.2027,-200"/>
<polygon fill="#191970" stroke="#191970" points="837.5475,-196.5001 827.5475,-200 837.5474,-203.5001 837.5475,-196.5001"/>
</g>
<!-- Node16 -->
<g id="node17" class="node">
<title>Node16</title>
<g id="a_node17"><a xlink:href="classPgp3Gtp7Tb.html" target="_top" xlink:title="Pgp3Gtp7Tb">
<polygon fill="#ffffff" stroke="#000000" points="1014,-190.5 1014,-209.5 1090,-209.5 1090,-190.5 1014,-190.5"/>
<text text-anchor="middle" x="1052" y="-197.5" font-family="Helvetica,sans-Serif" font-size="10.00" fill="#000000">Pgp3Gtp7Tb</text>
</a>
</g>
</g>
<!-- Node15&#45;&gt;Node16 -->
<g id="edge16" class="edge">
<title>Node15&#45;&gt;Node16</title>
<path fill="none" stroke="#191970" d="M984.9996,-200C994.8485,-200 1004.767,-200 1013.8421,-200"/>
<polygon fill="#191970" stroke="#191970" points="984.7994,-196.5001 974.7993,-200 984.7993,-203.5001 984.7994,-196.5001"/>
</g>
<!-- Node18 -->
<g id="node19" class="node">
<title>Node18</title>
<g id="a_node19"><a xlink:href="classPgp3Gtx7Wrapper.html" target="_top" xlink:title="Pgp3Gtx7Wrapper">
<polygon fill="#ffffff" stroke="#000000" points="870.5,-152.5 870.5,-171.5 974.5,-171.5 974.5,-152.5 870.5,-152.5"/>
<text text-anchor="middle" x="922.5" y="-159.5" font-family="Helvetica,sans-Serif" font-size="10.00" fill="#000000">Pgp3Gtx7Wrapper</text>
</a>
</g>
</g>
<!-- Node17&#45;&gt;Node18 -->
<g id="edge18" class="edge">
<title>Node17&#45;&gt;Node18</title>
<path fill="none" stroke="#191970" d="M837.6348,-162C848.061,-162 859.357,-162 870.2027,-162"/>
<polygon fill="#191970" stroke="#191970" points="837.5475,-158.5001 827.5475,-162 837.5474,-165.5001 837.5475,-158.5001"/>
</g>
<!-- Node21 -->
<g id="node22" class="node">
<title>Node21</title>
<g id="a_node22"><a xlink:href="classRawEthFramerTb.html" target="_top" xlink:title="RawEthFramerTb">
<polygon fill="#ffffff" stroke="#000000" points="625,-114.5 625,-133.5 724,-133.5 724,-114.5 625,-114.5"/>
<text text-anchor="middle" x="674.5" y="-121.5" font-family="Helvetica,sans-Serif" font-size="10.00" fill="#000000">RawEthFramerTb</text>
</a>
</g>
</g>
<!-- Node20&#45;&gt;Node21 -->
<g id="edge21" class="edge">
<title>Node20&#45;&gt;Node21</title>
<path fill="none" stroke="#191970" d="M569.6352,-98.04C591.0799,-103.3488 615.9226,-109.4988 636.044,-114.4799"/>
<polygon fill="#191970" stroke="#191970" points="570.2826,-94.5947 559.7345,-95.589 568.6004,-101.3896 570.2826,-94.5947"/>
</g>
<!-- Node22 -->
<g id="node23" class="node">
<title>Node22</title>
<g id="a_node23"><a xlink:href="classRssiCoreTb.html" target="_top" xlink:title="RssiCoreTb">
<polygon fill="#ffffff" stroke="#000000" points="639,-76.5 639,-95.5 710,-95.5 710,-76.5 639,-76.5"/>
<text text-anchor="middle" x="674.5" y="-83.5" font-family="Helvetica,sans-Serif" font-size="10.00" fill="#000000">RssiCoreTb</text>
</a>
</g>
</g>
<!-- Node20&#45;&gt;Node22 -->
<g id="edge22" class="edge">
<title>Node20&#45;&gt;Node22</title>
<path fill="none" stroke="#191970" d="M581.2649,-86C600.7058,-86 621.6279,-86 638.7169,-86"/>
<polygon fill="#191970" stroke="#191970" points="581.2617,-82.5001 571.2616,-86 581.2616,-89.5001 581.2617,-82.5001"/>
</g>
<!-- Node23 -->
<g id="node24" class="node">
<title>Node23</title>
<g id="a_node24"><a xlink:href="classRssiInterleaveTb.html" target="_top" xlink:title="RssiInterleaveTb">
<polygon fill="#ffffff" stroke="#000000" points="625.5,-38.5 625.5,-57.5 723.5,-57.5 723.5,-38.5 625.5,-38.5"/>
<text text-anchor="middle" x="674.5" y="-45.5" font-family="Helvetica,sans-Serif" font-size="10.00" fill="#000000">RssiInterleaveTb</text>
</a>
</g>
</g>
<!-- Node20&#45;&gt;Node23 -->
<g id="edge23" class="edge">
<title>Node20&#45;&gt;Node23</title>
<path fill="none" stroke="#191970" d="M569.6352,-73.96C591.0799,-68.6512 615.9226,-62.5012 636.044,-57.5201"/>
<polygon fill="#191970" stroke="#191970" points="568.6004,-70.6104 559.7345,-76.411 570.2826,-77.4053 568.6004,-70.6104"/>
</g>
<!-- Node24 -->
<g id="node25" class="node">
<title>Node24</title>
<g id="a_node25"><a xlink:href="classSrpV3AxiLiteTb.html" target="_top" xlink:title="SrpV3AxiLiteTb">
<polygon fill="#ffffff" stroke="#000000" points="629,-.5 629,-19.5 720,-19.5 720,-.5 629,-.5"/>
<text text-anchor="middle" x="674.5" y="-7.5" font-family="Helvetica,sans-Serif" font-size="10.00" fill="#000000">SrpV3AxiLiteTb</text>
</a>
</g>
</g>
<!-- Node20&#45;&gt;Node24 -->
<g id="edge24" class="edge">
<title>Node20&#45;&gt;Node24</title>
<path fill="none" stroke="#191970" d="M545.6644,-71.2489C566.4361,-59.1277 597.1356,-41.912 625,-29 632.2662,-25.6329 640.3106,-22.36 647.765,-19.5062"/>
<polygon fill="#191970" stroke="#191970" points="543.7093,-68.3383 536.8651,-76.4258 547.2589,-74.3716 543.7093,-68.3383"/>
</g>
</g>
</svg>
        <g id="navigator" transform="translate(0 0)" fill="#404254">
                <rect fill="#f2f5e9" fill-opacity="0.5" stroke="#606060" stroke-width=".5" x="0" y="0" width="60" height="60"/>
                <use id="zoomplus" xlink:href="#zoomPlus" x="17" y="9" onmousedown="handleZoom(evt,'in')"/>
                <use id="zoomminus" xlink:href="#zoomMin" x="42" y="9" onmousedown="handleZoom(evt,'out')"/>
                <use id="reset" xlink:href="#resetDef" x="30" y="36" onmousedown="handleReset()"/>
                <g id="arrowUp" xlink:href="#dirArrow" transform="translate(30 24)" onmousedown="handlePan(0,-1)">
                  <use xlink:href="#rim" fill="#404040">
                        <set attributeName="fill" to="#808080" begin="arrowUp.mouseover" end="arrowUp.mouseout"/>
                  </use>
                  <path fill="none" stroke="white" stroke-width="1.5" d="M0,-3.0v7 M-2.5,-0.5L0,-3.0L2.5,-0.5"/>
                </g>
                <g id="arrowRight" xlink:href="#dirArrow" transform="rotate(90) translate(36 -43)" onmousedown="handlePan(1,0)">
                  <use xlink:href="#rim" fill="#404040">
                        <set attributeName="fill" to="#808080" begin="arrowRight.mouseover" end="arrowRight.mouseout"/>
                  </use>
                  <path fill="none" stroke="white" stroke-width="1.5" d="M0,-3.0v7 M-2.5,-0.5L0,-3.0L2.5,-0.5"/>
                </g>
                <g id="arrowDown" xlink:href="#dirArrow" transform="rotate(180) translate(-30 -48)" onmousedown="handlePan(0,1)">
                  <use xlink:href="#rim" fill="#404040">
                        <set attributeName="fill" to="#808080" begin="arrowDown.mouseover" end="arrowDown.mouseout"/>
                  </use>
                  <path fill="none" stroke="white" stroke-width="1.5" d="M0,-3.0v7 M-2.5,-0.5L0,-3.0L2.5,-0.5"/>
                </g>
                <g id="arrowLeft" xlink:href="#dirArrow" transform="rotate(270) translate(-36 17)" onmousedown="handlePan(-1,0)">
                  <use xlink:href="#rim" fill="#404040">
                        <set attributeName="fill" to="#808080" begin="arrowLeft.mouseover" end="arrowLeft.mouseout"/>
                  </use>
                  <path fill="none" stroke="white" stroke-width="1.5" d="M0,-3.0v7 M-2.5,-0.5L0,-3.0L2.5,-0.5"/>
                </g>
        </g>
        <svg viewBox="0 0 15 15" width="100%" height="30px" preserveAspectRatio="xMaxYMin meet">
         <g id="arrow_out" transform="scale(0.3 0.3)">
          <a xlink:href="classAxiStreamPacketizer2__inherit__graph_org.svg" target="_base">
           <rect id="button" ry="5" rx="5" y="6" x="6" height="38" width="38"
                fill="#f2f5e9" fill-opacity="0.5" stroke="#606060" stroke-width="1.0"/>
           <path id="arrow"
             d="M 11.500037,31.436501 C 11.940474,20.09759 22.043105,11.32322 32.158766,21.979434 L 37.068811,17.246167 C 37.068811,17.246167 37.088388,32 37.088388,32 L 22.160133,31.978069 C 22.160133,31.978069 26.997745,27.140456 26.997745,27.140456 C 18.528582,18.264221 13.291696,25.230495 11.500037,31.436501 z"
             style="fill:#404040;"/>
          </a>
         </g>
        </svg>
</svg>
