<?xml version="1.0" encoding="UTF-8" standalone="no"?>
<!DOCTYPE svg PUBLIC "-//W3C//DTD SVG 1.1//EN"
 "http://www.w3.org/Graphics/SVG/1.1/DTD/svg11.dtd">
<!-- Generated by graphviz version 2.40.1 (20161225.0304)
 -->
<!-- Title: GigEthReg Pages: 1 -->
<svg width="1721pt" height="384pt"
 viewBox="0.00 0.00 1721.00 384.28" xmlns="http://www.w3.org/2000/svg" xmlns:xlink="http://www.w3.org/1999/xlink">
<g id="graph0" class="graph" transform="scale(1 1) rotate(0) translate(4 380.2822)">
<title>GigEthReg</title>
<polygon fill="#ffffff" stroke="transparent" points="-4,4 -4,-380.2822 1717,-380.2822 1717,4 -4,4"/>
<!-- Node0 -->
<g id="node1" class="node">
<title>Node0</title>
<polygon fill="#bfbfbf" stroke="#000000" points="1093,-193.7822 1093,-212.7822 1160,-212.7822 1160,-193.7822 1093,-193.7822"/>
<text text-anchor="middle" x="1126.5" y="-200.7822" font-family="Helvetica,sans-Serif" font-size="10.00" fill="#000000">GigEthReg</text>
</g>
<!-- Node20 -->
<g id="node21" class="node">
<title>Node20</title>
<g id="a_node21"><a xlink:href="classGigEthGth7.html" target="_top" xlink:title="GigEthGth7">
<polygon fill="#ffffff" stroke="#000000" points="1221,-288.7822 1221,-307.7822 1293,-307.7822 1293,-288.7822 1221,-288.7822"/>
<text text-anchor="middle" x="1257" y="-295.7822" font-family="Helvetica,sans-Serif" font-size="10.00" fill="#000000">GigEthGth7</text>
</a>
</g>
</g>
<!-- Node0&#45;&gt;Node20 -->
<g id="edge26" class="edge">
<title>Node0&#45;&gt;Node20</title>
<path fill="none" stroke="#191970" d="M1138.826,-221.5789C1151.328,-238.804 1172.1886,-264.154 1196,-279.2822 1203.4899,-284.0408 1212.2556,-287.6807 1220.7684,-290.4364"/>
<polygon fill="#191970" stroke="#191970" points="1141.386,-219.1341 1132.7747,-212.9618 1135.6574,-223.157 1141.386,-219.1341"/>
</g>
<!-- Node22 -->
<g id="node23" class="node">
<title>Node22</title>
<g id="a_node23"><a xlink:href="classGigEthGthUltraScale.html" target="_top" xlink:title="GigEthGthUltraScale">
<polygon fill="#ffffff" stroke="#000000" points="1199,-250.7822 1199,-269.7822 1315,-269.7822 1315,-250.7822 1199,-250.7822"/>
<text text-anchor="middle" x="1257" y="-257.7822" font-family="Helvetica,sans-Serif" font-size="10.00" fill="#000000">GigEthGthUltraScale</text>
</a>
</g>
</g>
<!-- Node0&#45;&gt;Node22 -->
<g id="edge28" class="edge">
<title>Node0&#45;&gt;Node22</title>
<path fill="none" stroke="#191970" d="M1150.6386,-218.025C1163.7441,-225.6298 1180.4133,-234.6711 1196,-241.2822 1204.2713,-244.7905 1213.4153,-247.9809 1222.0517,-250.7032"/>
<polygon fill="#191970" stroke="#191970" points="1152.1817,-214.8715 1141.792,-212.7967 1148.6201,-220.8977 1152.1817,-214.8715"/>
</g>
<!-- Node24 -->
<g id="node25" class="node">
<title>Node24</title>
<g id="a_node25"><a xlink:href="classGigEthGtp7.html" target="_top" xlink:title="GigEthGtp7">
<polygon fill="#ffffff" stroke="#000000" points="1221,-212.7822 1221,-231.7822 1293,-231.7822 1293,-212.7822 1221,-212.7822"/>
<text text-anchor="middle" x="1257" y="-219.7822" font-family="Helvetica,sans-Serif" font-size="10.00" fill="#000000">GigEthGtp7</text>
</a>
</g>
</g>
<!-- Node0&#45;&gt;Node24 -->
<g id="edge30" class="edge">
<title>Node0&#45;&gt;Node24</title>
<path fill="none" stroke="#191970" d="M1170.0426,-209.6217C1186.5018,-212.0181 1205.0408,-214.7173 1220.7595,-217.0058"/>
<polygon fill="#191970" stroke="#191970" points="1170.507,-206.1525 1160.107,-208.1752 1169.4984,-213.0795 1170.507,-206.1525"/>
</g>
<!-- Node26 -->
<g id="node27" class="node">
<title>Node26</title>
<g id="a_node27"><a xlink:href="classGigEthGtx7.html" target="_top" xlink:title="GigEthGtx7">
<polygon fill="#ffffff" stroke="#000000" points="1221,-174.7822 1221,-193.7822 1293,-193.7822 1293,-174.7822 1221,-174.7822"/>
<text text-anchor="middle" x="1257" y="-181.7822" font-family="Helvetica,sans-Serif" font-size="10.00" fill="#000000">GigEthGtx7</text>
</a>
</g>
</g>
<!-- Node0&#45;&gt;Node26 -->
<g id="edge32" class="edge">
<title>Node0&#45;&gt;Node26</title>
<path fill="none" stroke="#191970" d="M1170.0426,-196.9427C1186.5018,-194.5463 1205.0408,-191.8471 1220.7595,-189.5586"/>
<polygon fill="#191970" stroke="#191970" points="1169.4984,-193.4849 1160.107,-198.3892 1170.507,-200.4119 1169.4984,-193.4849"/>
</g>
<!-- Node28 -->
<g id="node29" class="node">
<title>Node28</title>
<g id="a_node29"><a xlink:href="classGigEthGtyUltraScale.html" target="_top" xlink:title="GigEthGtyUltraScale">
<polygon fill="#ffffff" stroke="#000000" points="1199,-136.7822 1199,-155.7822 1315,-155.7822 1315,-136.7822 1199,-136.7822"/>
<text text-anchor="middle" x="1257" y="-143.7822" font-family="Helvetica,sans-Serif" font-size="10.00" fill="#000000">GigEthGtyUltraScale</text>
</a>
</g>
</g>
<!-- Node0&#45;&gt;Node28 -->
<g id="edge34" class="edge">
<title>Node0&#45;&gt;Node28</title>
<path fill="none" stroke="#191970" d="M1150.6386,-188.5394C1163.7441,-180.9346 1180.4133,-171.8933 1196,-165.2822 1204.2713,-161.7739 1213.4153,-158.5835 1222.0517,-155.8612"/>
<polygon fill="#191970" stroke="#191970" points="1148.6201,-185.6667 1141.792,-193.7677 1152.1817,-191.6929 1148.6201,-185.6667"/>
</g>
<!-- Node30 -->
<g id="node31" class="node">
<title>Node30</title>
<g id="a_node31"><a xlink:href="classGigEthLvdsUltraScale.html" target="_top" xlink:title="GigEthLvdsUltraScale">
<polygon fill="#ffffff" stroke="#000000" points="1196,-98.7822 1196,-117.7822 1318,-117.7822 1318,-98.7822 1196,-98.7822"/>
<text text-anchor="middle" x="1257" y="-105.7822" font-family="Helvetica,sans-Serif" font-size="10.00" fill="#000000">GigEthLvdsUltraScale</text>
</a>
</g>
</g>
<!-- Node0&#45;&gt;Node30 -->
<g id="edge36" class="edge">
<title>Node0&#45;&gt;Node30</title>
<path fill="none" stroke="#191970" d="M1138.826,-184.9855C1151.328,-167.7604 1172.1886,-142.4104 1196,-127.2822 1201.9919,-123.4753 1208.8003,-120.3844 1215.6426,-117.8894"/>
<polygon fill="#191970" stroke="#191970" points="1135.6574,-183.4074 1132.7747,-193.6025 1141.386,-187.4303 1135.6574,-183.4074"/>
</g>
<!-- Node1 -->
<g id="node2" class="node">
<title>Node1</title>
<g id="a_node2"><a xlink:href="classWatchDogRst.html" target="_top" xlink:title="WatchDogRst">
<polygon fill="#ffffff" stroke="#000000" points="453.5,-41.7822 453.5,-60.7822 535.5,-60.7822 535.5,-41.7822 453.5,-41.7822"/>
<text text-anchor="middle" x="494.5" y="-48.7822" font-family="Helvetica,sans-Serif" font-size="10.00" fill="#000000">WatchDogRst</text>
</a>
</g>
</g>
<!-- Node1&#45;&gt;Node0 -->
<g id="edge1" class="edge">
<title>Node1&#45;&gt;Node0</title>
<path fill="none" stroke="#191970" d="M543.9957,-63.1862C667.7452,-92.9488 988.1534,-170.009 1092.8541,-195.1901"/>
<polygon fill="#191970" stroke="#191970" points="544.5756,-59.726 534.0344,-60.7905 542.9387,-66.5319 544.5756,-59.726"/>
</g>
<!-- Node2 -->
<g id="node3" class="node">
<title>Node2</title>
<g id="a_node3"><a xlink:href="classSynchronizer.html" target="_top" xlink:title="Synchronizer">
<polygon fill="#ffffff" stroke="#000000" points="0,-299.7822 0,-318.7822 80,-318.7822 80,-299.7822 0,-299.7822"/>
<text text-anchor="middle" x="40" y="-306.7822" font-family="Helvetica,sans-Serif" font-size="10.00" fill="#000000">Synchronizer</text>
</a>
</g>
</g>
<!-- Node2&#45;&gt;Node1 -->
<g id="edge2" class="edge">
<title>Node2&#45;&gt;Node1</title>
<path fill="none" stroke="#191970" d="M42.5766,-289.5691C50.3827,-233.2367 75.7335,-73.6553 116,-43.2822 224.8807,38.8467 405.9249,-17.4189 470.6156,-41.6861"/>
<polygon fill="#191970" stroke="#191970" points="39.0829,-289.2875 41.2139,-299.6658 46.02,-290.2238 39.0829,-289.2875"/>
</g>
<!-- Node7 -->
<g id="node8" class="node">
<title>Node7</title>
<g id="a_node8"><a xlink:href="classRstSync.html" target="_top" xlink:title="RstSync">
<polygon fill="#ffffff" stroke="#000000" points="150,-318.7822 150,-337.7822 206,-337.7822 206,-318.7822 150,-318.7822"/>
<text text-anchor="middle" x="178" y="-325.7822" font-family="Helvetica,sans-Serif" font-size="10.00" fill="#000000">RstSync</text>
</a>
</g>
</g>
<!-- Node2&#45;&gt;Node7 -->
<g id="edge9" class="edge">
<title>Node2&#45;&gt;Node7</title>
<path fill="none" stroke="#191970" d="M90.2132,-316.1956C110.257,-318.9553 132.5902,-322.0301 149.7146,-324.3878"/>
<polygon fill="#191970" stroke="#191970" points="90.6702,-312.7256 80.2863,-314.8289 89.7154,-319.6602 90.6702,-312.7256"/>
</g>
<!-- Node8 -->
<g id="node9" class="node">
<title>Node8</title>
<g id="a_node9"><a xlink:href="classSynchronizerEdge.html" target="_top" xlink:title="SynchronizerEdge">
<polygon fill="#ffffff" stroke="#000000" points="126,-356.7822 126,-375.7822 230,-375.7822 230,-356.7822 126,-356.7822"/>
<text text-anchor="middle" x="178" y="-363.7822" font-family="Helvetica,sans-Serif" font-size="10.00" fill="#000000">SynchronizerEdge</text>
</a>
</g>
</g>
<!-- Node2&#45;&gt;Node8 -->
<g id="edge11" class="edge">
<title>Node2&#45;&gt;Node8</title>
<path fill="none" stroke="#191970" d="M65.9947,-323.6275C80.4506,-331.2595 98.9219,-340.4509 116,-347.2822 124.6758,-350.7525 134.2432,-353.9698 143.212,-356.7333"/>
<polygon fill="#191970" stroke="#191970" points="67.5974,-320.5156 57.1299,-318.8779 64.2915,-326.6858 67.5974,-320.5156"/>
</g>
<!-- Node13 -->
<g id="node14" class="node">
<title>Node13</title>
<g id="a_node14"><a xlink:href="classRstSync.html" target="_top" xlink:title="RstSync(2)">
<polygon fill="#ffffff" stroke="#000000" points="143.5,-280.7822 143.5,-299.7822 212.5,-299.7822 212.5,-280.7822 143.5,-280.7822"/>
<text text-anchor="middle" x="178" y="-287.7822" font-family="Helvetica,sans-Serif" font-size="10.00" fill="#000000">RstSync(2)</text>
</a>
</g>
</g>
<!-- Node2&#45;&gt;Node13 -->
<g id="edge19" class="edge">
<title>Node2&#45;&gt;Node13</title>
<path fill="none" stroke="#191970" d="M90.3506,-302.3499C107.8473,-299.9409 127.0737,-297.2938 143.05,-295.0942"/>
<polygon fill="#191970" stroke="#191970" points="89.7154,-298.9042 80.2863,-303.7355 90.6702,-305.8388 89.7154,-298.9042"/>
</g>
<!-- Node3 -->
<g id="node4" class="node">
<title>Node3</title>
<g id="a_node4"><a xlink:href="classSynchronizerVector.html" target="_top" xlink:title="SynchronizerVector">
<polygon fill="#ffffff" stroke="#000000" points="781,-212.7822 781,-231.7822 891,-231.7822 891,-212.7822 781,-212.7822"/>
<text text-anchor="middle" x="836" y="-219.7822" font-family="Helvetica,sans-Serif" font-size="10.00" fill="#000000">SynchronizerVector</text>
</a>
</g>
</g>
<!-- Node3&#45;&gt;Node0 -->
<g id="edge3" class="edge">
<title>Node3&#45;&gt;Node0</title>
<path fill="none" stroke="#191970" d="M901.3591,-218.0074C960.7453,-214.1233 1045.9943,-208.5476 1092.7065,-205.4924"/>
<polygon fill="#191970" stroke="#191970" points="901.0748,-214.5184 891.3246,-218.6637 901.5317,-221.5035 901.0748,-214.5184"/>
</g>
<!-- Node4 -->
<g id="node5" class="node">
<title>Node4</title>
<g id="a_node5"><a xlink:href="classSyncStatusVector.html" target="_top" xlink:title="SyncStatusVector">
<polygon fill="#ffffff" stroke="#000000" points="956,-231.7822 956,-250.7822 1057,-250.7822 1057,-231.7822 956,-231.7822"/>
<text text-anchor="middle" x="1006.5" y="-238.7822" font-family="Helvetica,sans-Serif" font-size="10.00" fill="#000000">SyncStatusVector</text>
</a>
</g>
</g>
<!-- Node3&#45;&gt;Node4 -->
<g id="edge5" class="edge">
<title>Node3&#45;&gt;Node4</title>
<path fill="none" stroke="#191970" d="M901.4911,-229.5803C919.4849,-231.5855 938.7215,-233.7292 955.7493,-235.6267"/>
<polygon fill="#191970" stroke="#191970" points="901.6826,-226.0801 891.3565,-228.451 900.9073,-233.037 901.6826,-226.0801"/>
</g>
<!-- Node4&#45;&gt;Node0 -->
<g id="edge4" class="edge">
<title>Node4&#45;&gt;Node0</title>
<path fill="none" stroke="#191970" d="M1046.5435,-228.6018C1062.7574,-223.4674 1081.1656,-217.6381 1096.2286,-212.8681"/>
<polygon fill="#191970" stroke="#191970" points="1045.2578,-225.3375 1036.7811,-231.6932 1047.3711,-232.0109 1045.2578,-225.3375"/>
</g>
<!-- Node5 -->
<g id="node6" class="node">
<title>Node5</title>
<g id="a_node6"><a xlink:href="classSynchronizerOneShotCntVector.html" target="_top" xlink:title="SynchronizerOneShotCntVector">
<polygon fill="#ffffff" stroke="#000000" points="752,-259.7822 752,-278.7822 920,-278.7822 920,-259.7822 752,-259.7822"/>
<text text-anchor="middle" x="836" y="-266.7822" font-family="Helvetica,sans-Serif" font-size="10.00" fill="#000000">SynchronizerOneShotCntVector</text>
</a>
</g>
</g>
<!-- Node5&#45;&gt;Node4 -->
<g id="edge6" class="edge">
<title>Node5&#45;&gt;Node4</title>
<path fill="none" stroke="#191970" d="M904.2331,-258.0768C921.5034,-255.2406 939.7448,-252.2449 955.9644,-249.5813"/>
<polygon fill="#191970" stroke="#191970" points="903.5002,-254.6502 894.1996,-259.7245 904.6346,-261.5576 903.5002,-254.6502"/>
</g>
<!-- Node6 -->
<g id="node7" class="node">
<title>Node6</title>
<g id="a_node7"><a xlink:href="classSynchronizerOneShot.html" target="_top" xlink:title="SynchronizerOneShot">
<polygon fill="#ffffff" stroke="#000000" points="282.5,-337.7822 282.5,-356.7822 403.5,-356.7822 403.5,-337.7822 282.5,-337.7822"/>
<text text-anchor="middle" x="343" y="-344.7822" font-family="Helvetica,sans-Serif" font-size="10.00" fill="#000000">SynchronizerOneShot</text>
</a>
</g>
</g>
<!-- Node6&#45;&gt;Node5 -->
<g id="edge7" class="edge">
<title>Node6&#45;&gt;Node5</title>
<path fill="none" stroke="#191970" d="M413.3417,-336.159C488.3302,-324.3003 610.5505,-304.9701 716,-288.2822 735.4794,-285.1995 756.7372,-281.8341 775.876,-278.8037"/>
<polygon fill="#191970" stroke="#191970" points="412.4112,-332.7626 403.0807,-337.7817 413.5046,-339.6767 412.4112,-332.7626"/>
</g>
<!-- Node7&#45;&gt;Node6 -->
<g id="edge8" class="edge">
<title>Node7&#45;&gt;Node6</title>
<path fill="none" stroke="#191970" d="M216.4152,-332.7058C235.9714,-334.9577 260.207,-337.7485 282.221,-340.2834"/>
<polygon fill="#191970" stroke="#191970" points="216.6993,-329.2154 206.3645,-331.5484 215.8984,-336.1695 216.6993,-329.2154"/>
</g>
<!-- Node10 -->
<g id="node11" class="node">
<title>Node10</title>
<g id="a_node11"><a xlink:href="classSynchronizerOneShot.html" target="_top" xlink:title="SynchronizerOneShot(2)">
<polygon fill="#ffffff" stroke="#000000" points="276,-299.7822 276,-318.7822 410,-318.7822 410,-299.7822 276,-299.7822"/>
<text text-anchor="middle" x="343" y="-306.7822" font-family="Helvetica,sans-Serif" font-size="10.00" fill="#000000">SynchronizerOneShot(2)</text>
</a>
</g>
</g>
<!-- Node7&#45;&gt;Node10 -->
<g id="edge14" class="edge">
<title>Node7&#45;&gt;Node10</title>
<path fill="none" stroke="#191970" d="M216.3219,-323.8694C234.0582,-321.827 255.6583,-319.3397 275.9625,-317.0017"/>
<polygon fill="#191970" stroke="#191970" points="215.8984,-320.3949 206.3645,-325.016 216.6993,-327.349 215.8984,-320.3949"/>
</g>
<!-- Node8&#45;&gt;Node6 -->
<g id="edge10" class="edge">
<title>Node8&#45;&gt;Node6</title>
<path fill="none" stroke="#191970" d="M240.5412,-359.0805C254.2915,-357.4971 268.8288,-355.8231 282.497,-354.2492"/>
<polygon fill="#191970" stroke="#191970" points="239.741,-355.6494 230.207,-360.2705 240.5418,-362.6035 239.741,-355.6494"/>
</g>
<!-- Node8&#45;&gt;Node10 -->
<g id="edge15" class="edge">
<title>Node8&#45;&gt;Node10</title>
<path fill="none" stroke="#191970" d="M222.8798,-353.6305C228.6998,-351.6693 234.5335,-349.5388 240,-347.2822 256.7229,-340.379 259.2055,-335.0091 276,-328.2822 284.8668,-324.7307 294.6415,-321.5617 303.9194,-318.8775"/>
<polygon fill="#191970" stroke="#191970" points="221.6083,-350.3629 213.1653,-356.7635 223.7569,-357.0251 221.6083,-350.3629"/>
</g>
<!-- Node9 -->
<g id="node10" class="node">
<title>Node9</title>
<g id="a_node10"><a xlink:href="classSynchronizerOneShotCnt.html" target="_top" xlink:title="SynchronizerOneShotCnt">
<polygon fill="#ffffff" stroke="#000000" points="579,-259.7822 579,-278.7822 716,-278.7822 716,-259.7822 579,-259.7822"/>
<text text-anchor="middle" x="647.5" y="-266.7822" font-family="Helvetica,sans-Serif" font-size="10.00" fill="#000000">SynchronizerOneShotCnt</text>
</a>
</g>
</g>
<!-- Node9&#45;&gt;Node5 -->
<g id="edge12" class="edge">
<title>Node9&#45;&gt;Node5</title>
<path fill="none" stroke="#191970" d="M726.2491,-269.2822C734.6652,-269.2822 743.2509,-269.2822 751.7277,-269.2822"/>
<polygon fill="#191970" stroke="#191970" points="726.0861,-265.7823 716.0861,-269.2822 726.086,-272.7823 726.0861,-265.7823"/>
</g>
<!-- Node10&#45;&gt;Node9 -->
<g id="edge13" class="edge">
<title>Node10&#45;&gt;Node9</title>
<path fill="none" stroke="#191970" d="M420.4084,-299.1136C469.2671,-292.6954 531.8134,-284.4791 578.8899,-278.295"/>
<polygon fill="#191970" stroke="#191970" points="419.6597,-295.6818 410.2008,-300.4545 420.5715,-302.6222 419.6597,-295.6818"/>
</g>
<!-- Node11 -->
<g id="node12" class="node">
<title>Node11</title>
<g id="a_node12"><a xlink:href="classSynchronizerFifo.html" target="_top" xlink:title="SynchronizerFifo">
<polygon fill="#ffffff" stroke="#000000" points="446,-240.7822 446,-259.7822 543,-259.7822 543,-240.7822 446,-240.7822"/>
<text text-anchor="middle" x="494.5" y="-247.7822" font-family="Helvetica,sans-Serif" font-size="10.00" fill="#000000">SynchronizerFifo</text>
</a>
</g>
</g>
<!-- Node11&#45;&gt;Node9 -->
<g id="edge16" class="edge">
<title>Node11&#45;&gt;Node9</title>
<path fill="none" stroke="#191970" d="M553.3181,-257.5864C561.6496,-258.621 570.2771,-259.6924 578.7754,-260.7478"/>
<polygon fill="#191970" stroke="#191970" points="553.686,-254.1053 543.3308,-256.3462 552.8232,-261.0519 553.686,-254.1053"/>
</g>
<!-- Node12 -->
<g id="node13" class="node">
<title>Node12</title>
<g id="a_node13"><a xlink:href="classFifoAsync.html" target="_top" xlink:title="FifoAsync">
<polygon fill="#ffffff" stroke="#000000" points="311.5,-185.7822 311.5,-204.7822 374.5,-204.7822 374.5,-185.7822 311.5,-185.7822"/>
<text text-anchor="middle" x="343" y="-192.7822" font-family="Helvetica,sans-Serif" font-size="10.00" fill="#000000">FifoAsync</text>
</a>
</g>
</g>
<!-- Node12&#45;&gt;Node11 -->
<g id="edge17" class="edge">
<title>Node12&#45;&gt;Node11</title>
<path fill="none" stroke="#191970" d="M379.0053,-208.3534C406.4058,-218.3008 443.4858,-231.7622 468.1594,-240.7196"/>
<polygon fill="#191970" stroke="#191970" points="379.9834,-204.9851 369.3893,-204.8625 377.5947,-211.5649 379.9834,-204.9851"/>
</g>
<!-- Node13&#45;&gt;Node12 -->
<g id="edge18" class="edge">
<title>Node13&#45;&gt;Node12</title>
<path fill="none" stroke="#191970" d="M222.1594,-278.7786C228.2831,-276.6025 234.3912,-274.1068 240,-271.2822 277.1159,-252.5905 314.967,-220.6538 332.6747,-204.7958"/>
<polygon fill="#191970" stroke="#191970" points="220.9922,-275.4781 212.5933,-281.9365 223.1865,-282.1253 220.9922,-275.4781"/>
</g>
<!-- Node14 -->
<g id="node15" class="node">
<title>Node14</title>
<g id="a_node15"><a xlink:href="classSynchronizerVector.html" target="_top" xlink:title="SynchronizerVector(2)">
<polygon fill="#ffffff" stroke="#000000" points="116,-90.7822 116,-109.7822 240,-109.7822 240,-90.7822 116,-90.7822"/>
<text text-anchor="middle" x="178" y="-97.7822" font-family="Helvetica,sans-Serif" font-size="10.00" fill="#000000">SynchronizerVector(2)</text>
</a>
</g>
</g>
<!-- Node14&#45;&gt;Node12 -->
<g id="edge20" class="edge">
<title>Node14&#45;&gt;Node12</title>
<path fill="none" stroke="#191970" d="M226.2479,-113.2891C230.9821,-115.0912 235.6418,-117.0874 240,-119.2822 277.1159,-137.9739 314.967,-169.9106 332.6747,-185.7686"/>
<polygon fill="#191970" stroke="#191970" points="227.0932,-109.8764 216.4984,-109.8617 224.7716,-116.4802 227.0932,-109.8764"/>
</g>
<!-- Node15 -->
<g id="node16" class="node">
<title>Node15</title>
<g id="a_node16"><a xlink:href="classSynchronizer.html" target="_top" xlink:title="Synchronizer(2)">
<polygon fill="#ffffff" stroke="#000000" points="131.5,-52.7822 131.5,-71.7822 224.5,-71.7822 224.5,-52.7822 131.5,-52.7822"/>
<text text-anchor="middle" x="178" y="-59.7822" font-family="Helvetica,sans-Serif" font-size="10.00" fill="#000000">Synchronizer(2)</text>
</a>
</g>
</g>
<!-- Node15&#45;&gt;Node12 -->
<g id="edge21" class="edge">
<title>Node15&#45;&gt;Node12</title>
<path fill="none" stroke="#191970" d="M229.4078,-75.5844C233.1014,-77.2747 236.6757,-79.1668 240,-81.2822 285.2325,-110.065 322.9323,-163.9274 337.0436,-185.7429"/>
<polygon fill="#191970" stroke="#191970" points="230.6367,-72.3059 220.0546,-71.786 228.0028,-78.7915 230.6367,-72.3059"/>
</g>
<!-- Node16 -->
<g id="node17" class="node">
<title>Node16</title>
<g id="a_node17"><a xlink:href="classFifoWrFsm.html" target="_top" xlink:title="FifoWrFsm">
<polygon fill="#ffffff" stroke="#000000" points="144.5,-242.7822 144.5,-261.7822 211.5,-261.7822 211.5,-242.7822 144.5,-242.7822"/>
<text text-anchor="middle" x="178" y="-249.7822" font-family="Helvetica,sans-Serif" font-size="10.00" fill="#000000">FifoWrFsm</text>
</a>
</g>
</g>
<!-- Node16&#45;&gt;Node12 -->
<g id="edge22" class="edge">
<title>Node16&#45;&gt;Node12</title>
<path fill="none" stroke="#191970" d="M219.9676,-239.7705C226.6874,-237.6668 233.5497,-235.4585 240,-233.2822 266.9092,-224.2031 297.3867,-212.8198 318.1631,-204.8901"/>
<polygon fill="#191970" stroke="#191970" points="218.8095,-236.465 210.289,-242.7619 220.8766,-243.1528 218.8095,-236.465"/>
</g>
<!-- Node17 -->
<g id="node18" class="node">
<title>Node17</title>
<g id="a_node18"><a xlink:href="classFifoRdFsm.html" target="_top" xlink:title="FifoRdFsm">
<polygon fill="#ffffff" stroke="#000000" points="144.5,-204.7822 144.5,-223.7822 211.5,-223.7822 211.5,-204.7822 144.5,-204.7822"/>
<text text-anchor="middle" x="178" y="-211.7822" font-family="Helvetica,sans-Serif" font-size="10.00" fill="#000000">FifoRdFsm</text>
</a>
</g>
</g>
<!-- Node17&#45;&gt;Node12 -->
<g id="edge23" class="edge">
<title>Node17&#45;&gt;Node12</title>
<path fill="none" stroke="#191970" d="M221.8006,-209.2385C250.0294,-205.9879 286.0737,-201.8373 311.4927,-198.9103"/>
<polygon fill="#191970" stroke="#191970" points="221.3223,-205.7703 211.7884,-210.3914 222.1231,-212.7244 221.3223,-205.7703"/>
</g>
<!-- Node18 -->
<g id="node19" class="node">
<title>Node18</title>
<g id="a_node19"><a xlink:href="classSimpleDualPortRam.html" target="_top" xlink:title="SimpleDualPortRam">
<polygon fill="#ffffff" stroke="#000000" points="120.5,-166.7822 120.5,-185.7822 235.5,-185.7822 235.5,-166.7822 120.5,-166.7822"/>
<text text-anchor="middle" x="178" y="-173.7822" font-family="Helvetica,sans-Serif" font-size="10.00" fill="#000000">SimpleDualPortRam</text>
</a>
</g>
</g>
<!-- Node18&#45;&gt;Node12 -->
<g id="edge24" class="edge">
<title>Node18&#45;&gt;Node12</title>
<path fill="none" stroke="#191970" d="M245.9364,-184.1052C268.4805,-186.7012 292.5229,-189.4697 311.0396,-191.6019"/>
<polygon fill="#191970" stroke="#191970" points="246.0438,-180.5945 235.709,-182.9275 245.2429,-187.5485 246.0438,-180.5945"/>
</g>
<!-- Node19 -->
<g id="node20" class="node">
<title>Node19</title>
<g id="a_node20"><a xlink:href="classFifoOutputPipeline.html" target="_top" xlink:title="FifoOutputPipeline">
<polygon fill="#ffffff" stroke="#000000" points="125,-128.7822 125,-147.7822 231,-147.7822 231,-128.7822 125,-128.7822"/>
<text text-anchor="middle" x="178" y="-135.7822" font-family="Helvetica,sans-Serif" font-size="10.00" fill="#000000">FifoOutputPipeline</text>
</a>
</g>
</g>
<!-- Node19&#45;&gt;Node12 -->
<g id="edge25" class="edge">
<title>Node19&#45;&gt;Node12</title>
<path fill="none" stroke="#191970" d="M219.9676,-150.7939C226.6874,-152.8976 233.5497,-155.1059 240,-157.2822 266.9092,-166.3613 297.3867,-177.7446 318.1631,-185.6743"/>
<polygon fill="#191970" stroke="#191970" points="220.8766,-147.4115 210.289,-147.8025 218.8095,-154.0994 220.8766,-147.4115"/>
</g>
<!-- Node21 -->
<g id="node22" class="node">
<title>Node21</title>
<g id="a_node22"><a xlink:href="classGigEthGth7Wrapper.html" target="_top" xlink:title="GigEthGth7Wrapper">
<polygon fill="#ffffff" stroke="#000000" points="1378.5,-288.7822 1378.5,-307.7822 1491.5,-307.7822 1491.5,-288.7822 1378.5,-288.7822"/>
<text text-anchor="middle" x="1435" y="-295.7822" font-family="Helvetica,sans-Serif" font-size="10.00" fill="#000000">GigEthGth7Wrapper</text>
</a>
</g>
</g>
<!-- Node20&#45;&gt;Node21 -->
<g id="edge27" class="edge">
<title>Node20&#45;&gt;Node21</title>
<path fill="none" stroke="#191970" d="M1303.1894,-298.2822C1326.1531,-298.2822 1354.1083,-298.2822 1378.3548,-298.2822"/>
<polygon fill="#191970" stroke="#191970" points="1303.021,-294.7823 1293.021,-298.2822 1303.0209,-301.7823 1303.021,-294.7823"/>
</g>
<!-- Node23 -->
<g id="node24" class="node">
<title>Node23</title>
<g id="a_node24"><a xlink:href="classGigEthGthUltraScaleWrapper.html" target="_top" xlink:title="GigEthGthUltraScaleWrapper">
<polygon fill="#ffffff" stroke="#000000" points="1356.5,-250.7822 1356.5,-269.7822 1513.5,-269.7822 1513.5,-250.7822 1356.5,-250.7822"/>
<text text-anchor="middle" x="1435" y="-257.7822" font-family="Helvetica,sans-Serif" font-size="10.00" fill="#000000">GigEthGthUltraScaleWrapper</text>
</a>
</g>
</g>
<!-- Node22&#45;&gt;Node23 -->
<g id="edge29" class="edge">
<title>Node22&#45;&gt;Node23</title>
<path fill="none" stroke="#191970" d="M1325.5782,-260.2822C1335.6057,-260.2822 1345.9987,-260.2822 1356.21,-260.2822"/>
<polygon fill="#191970" stroke="#191970" points="1325.2839,-256.7823 1315.2839,-260.2822 1325.2838,-263.7823 1325.2839,-256.7823"/>
</g>
<!-- Node25 -->
<g id="node26" class="node">
<title>Node25</title>
<g id="a_node26"><a xlink:href="classGigEthGtp7Wrapper.html" target="_top" xlink:title="GigEthGtp7Wrapper">
<polygon fill="#ffffff" stroke="#000000" points="1378.5,-212.7822 1378.5,-231.7822 1491.5,-231.7822 1491.5,-212.7822 1378.5,-212.7822"/>
<text text-anchor="middle" x="1435" y="-219.7822" font-family="Helvetica,sans-Serif" font-size="10.00" fill="#000000">GigEthGtp7Wrapper</text>
</a>
</g>
</g>
<!-- Node24&#45;&gt;Node25 -->
<g id="edge31" class="edge">
<title>Node24&#45;&gt;Node25</title>
<path fill="none" stroke="#191970" d="M1303.1894,-222.2822C1326.1531,-222.2822 1354.1083,-222.2822 1378.3548,-222.2822"/>
<polygon fill="#191970" stroke="#191970" points="1303.021,-218.7823 1293.021,-222.2822 1303.0209,-225.7823 1303.021,-218.7823"/>
</g>
<!-- Node27 -->
<g id="node28" class="node">
<title>Node27</title>
<g id="a_node28"><a xlink:href="classGigEthGtx7Wrapper.html" target="_top" xlink:title="GigEthGtx7Wrapper">
<polygon fill="#ffffff" stroke="#000000" points="1378.5,-174.7822 1378.5,-193.7822 1491.5,-193.7822 1491.5,-174.7822 1378.5,-174.7822"/>
<text text-anchor="middle" x="1435" y="-181.7822" font-family="Helvetica,sans-Serif" font-size="10.00" fill="#000000">GigEthGtx7Wrapper</text>
</a>
</g>
</g>
<!-- Node26&#45;&gt;Node27 -->
<g id="edge33" class="edge">
<title>Node26&#45;&gt;Node27</title>
<path fill="none" stroke="#191970" d="M1303.1894,-184.2822C1326.1531,-184.2822 1354.1083,-184.2822 1378.3548,-184.2822"/>
<polygon fill="#191970" stroke="#191970" points="1303.021,-180.7823 1293.021,-184.2822 1303.0209,-187.7823 1303.021,-180.7823"/>
</g>
<!-- Node29 -->
<g id="node30" class="node">
<title>Node29</title>
<g id="a_node30"><a xlink:href="classGigEthGtyUltraScaleWrapper.html" target="_top" xlink:title="GigEthGtyUltraScaleWrapper">
<polygon fill="#ffffff" stroke="#000000" points="1356.5,-136.7822 1356.5,-155.7822 1513.5,-155.7822 1513.5,-136.7822 1356.5,-136.7822"/>
<text text-anchor="middle" x="1435" y="-143.7822" font-family="Helvetica,sans-Serif" font-size="10.00" fill="#000000">GigEthGtyUltraScaleWrapper</text>
</a>
</g>
</g>
<!-- Node28&#45;&gt;Node29 -->
<g id="edge35" class="edge">
<title>Node28&#45;&gt;Node29</title>
<path fill="none" stroke="#191970" d="M1325.5782,-146.2822C1335.6057,-146.2822 1345.9987,-146.2822 1356.21,-146.2822"/>
<polygon fill="#191970" stroke="#191970" points="1325.2839,-142.7823 1315.2839,-146.2822 1325.2838,-149.7823 1325.2839,-142.7823"/>
</g>
<!-- Node31 -->
<g id="node32" class="node">
<title>Node31</title>
<g id="a_node32"><a xlink:href="classGigEthLvdsUltraScaleWrapper.html" target="_top" xlink:title="GigEthLvdsUltraScaleWrapper">
<polygon fill="#ffffff" stroke="#000000" points="1354,-98.7822 1354,-117.7822 1516,-117.7822 1516,-98.7822 1354,-98.7822"/>
<text text-anchor="middle" x="1435" y="-105.7822" font-family="Helvetica,sans-Serif" font-size="10.00" fill="#000000">GigEthLvdsUltraScaleWrapper</text>
</a>
</g>
</g>
<!-- Node30&#45;&gt;Node31 -->
<g id="edge37" class="edge">
<title>Node30&#45;&gt;Node31</title>
<path fill="none" stroke="#191970" d="M1328.3492,-108.2822C1336.7283,-108.2822 1345.3249,-108.2822 1353.8255,-108.2822"/>
<polygon fill="#191970" stroke="#191970" points="1328.2575,-104.7823 1318.2575,-108.2822 1328.2575,-111.7823 1328.2575,-104.7823"/>
</g>
<!-- Node32 -->
<g id="node33" class="node">
<title>Node32</title>
<g id="a_node33"><a xlink:href="classSgmii88E1111LvdsUltraScale.html" target="_top" xlink:title="Sgmii88E1111LvdsUltraScale">
<polygon fill="#ffffff" stroke="#000000" points="1553,-117.7822 1553,-136.7822 1712,-136.7822 1712,-117.7822 1553,-117.7822"/>
<text text-anchor="middle" x="1632.5" y="-124.7822" font-family="Helvetica,sans-Serif" font-size="10.00" fill="#000000">Sgmii88E1111LvdsUltraScale</text>
</a>
</g>
</g>
<!-- Node31&#45;&gt;Node32 -->
<g id="edge38" class="edge">
<title>Node31&#45;&gt;Node32</title>
<path fill="none" stroke="#191970" d="M1526.2015,-117.056C1535.1175,-117.9138 1544.116,-118.7794 1552.904,-119.6249"/>
<polygon fill="#191970" stroke="#191970" points="1526.475,-113.5663 1516.1858,-116.0925 1525.8046,-120.5341 1526.475,-113.5663"/>
</g>
<!-- Node33 -->
<g id="node34" class="node">
<title>Node33</title>
<g id="a_node34"><a xlink:href="classSgmiiDp83867LvdsUltraScale.html" target="_top" xlink:title="SgmiiDp83867LvdsUltraScale">
<polygon fill="#ffffff" stroke="#000000" points="1552,-79.7822 1552,-98.7822 1713,-98.7822 1713,-79.7822 1552,-79.7822"/>
<text text-anchor="middle" x="1632.5" y="-86.7822" font-family="Helvetica,sans-Serif" font-size="10.00" fill="#000000">SgmiiDp83867LvdsUltraScale</text>
</a>
</g>
</g>
<!-- Node31&#45;&gt;Node33 -->
<g id="edge39" class="edge">
<title>Node31&#45;&gt;Node33</title>
<path fill="none" stroke="#191970" d="M1526.2167,-99.5069C1534.8047,-98.6807 1543.4692,-97.8472 1551.9483,-97.0315"/>
<polygon fill="#191970" stroke="#191970" points="1525.8046,-96.0303 1516.1858,-100.4719 1526.475,-102.9981 1525.8046,-96.0303"/>
</g>
</g>
</svg>
