<?xml version="1.0" encoding="UTF-8" standalone="no"?>
<!DOCTYPE svg PUBLIC "-//W3C//DTD SVG 1.1//EN"
 "http://www.w3.org/Graphics/SVG/1.1/DTD/svg11.dtd">
<!-- Generated by graphviz version 2.43.0 (0)
 -->
<!-- Title: XauiGth7 Pages: 1 -->
<svg width="1490pt" height="672pt"
 viewBox="0.00 0.00 1490.00 672.00" xmlns="http://www.w3.org/2000/svg" xmlns:xlink="http://www.w3.org/1999/xlink">
<g id="graph0" class="graph" transform="scale(1 1) rotate(0) translate(4 668)">
<title>XauiGth7</title>
<polygon fill="white" stroke="transparent" points="-4,4 -4,-668 1486,-668 1486,4 -4,4"/>
<!-- Node1 -->
<g id="node1" class="node">
<title>Node1</title>
<g id="a_node1"><a xlink:title=" ">
<polygon fill="#bfbfbf" stroke="black" points="1420,-114.5 1420,-133.5 1482,-133.5 1482,-114.5 1420,-114.5"/>
<text text-anchor="middle" x="1451" y="-121.5" font-family="Helvetica,sans-Serif" font-size="10.00">XauiGth7</text>
</a>
</g>
</g>
<!-- Node2 -->
<g id="node2" class="node">
<title>Node2</title>
<g id="a_node2"><a xlink:href="classEthMacTop.html" target="_top" xlink:title=" ">
<polygon fill="white" stroke="black" points="1167.5,-171.5 1167.5,-190.5 1236.5,-190.5 1236.5,-171.5 1167.5,-171.5"/>
<text text-anchor="middle" x="1202" y="-178.5" font-family="Helvetica,sans-Serif" font-size="10.00">EthMacTop</text>
</a>
</g>
</g>
<!-- Node2&#45;&gt;Node1 -->
<g id="edge1" class="edge">
<title>Node2&#45;&gt;Node1</title>
<path fill="none" stroke="midnightblue" d="M1246.43,-172.81C1283.22,-165.65 1337.29,-154.61 1384,-143 1395.8,-140.07 1408.68,-136.45 1419.9,-133.17"/>
<polygon fill="midnightblue" stroke="midnightblue" points="1245.68,-169.39 1236.53,-174.73 1247.01,-176.26 1245.68,-169.39"/>
</g>
<!-- Node3 -->
<g id="node3" class="node">
<title>Node3</title>
<g id="a_node3"><a xlink:href="classEthMacTxFifo.html" target="_top" xlink:title=" ">
<polygon fill="white" stroke="black" points="978.5,-190.5 978.5,-209.5 1061.5,-209.5 1061.5,-190.5 978.5,-190.5"/>
<text text-anchor="middle" x="1020" y="-197.5" font-family="Helvetica,sans-Serif" font-size="10.00">EthMacTxFifo</text>
</a>
</g>
</g>
<!-- Node3&#45;&gt;Node2 -->
<g id="edge2" class="edge">
<title>Node3&#45;&gt;Node2</title>
<path fill="none" stroke="midnightblue" d="M1071.89,-194.63C1102.42,-191.41 1140.41,-187.4 1167.25,-184.56"/>
<polygon fill="midnightblue" stroke="midnightblue" points="1071.42,-191.16 1061.84,-195.69 1072.16,-198.12 1071.42,-191.16"/>
</g>
<!-- Node4 -->
<g id="node4" class="node">
<title>Node4</title>
<g id="a_node4"><a xlink:href="classAxiStreamFifoV2.html" target="_top" xlink:title=" ">
<polygon fill="white" stroke="black" points="441,-209.5 441,-228.5 553,-228.5 553,-209.5 441,-209.5"/>
<text text-anchor="middle" x="497" y="-216.5" font-family="Helvetica,sans-Serif" font-size="10.00">AxiStreamFifoV2(3)</text>
</a>
</g>
</g>
<!-- Node4&#45;&gt;Node3 -->
<g id="edge3" class="edge">
<title>Node4&#45;&gt;Node3</title>
<path fill="none" stroke="midnightblue" d="M563.48,-216.61C672.6,-212.63 888.51,-204.76 978.32,-201.48"/>
<polygon fill="midnightblue" stroke="midnightblue" points="563.13,-213.12 553.26,-216.98 563.38,-220.12 563.13,-213.12"/>
</g>
<!-- Node5 -->
<g id="node5" class="node">
<title>Node5</title>
<g id="a_node5"><a xlink:href="classAxiStreamGearbox.html" target="_top" xlink:title=" ">
<polygon fill="white" stroke="black" points="279,-252.5 279,-271.5 401,-271.5 401,-252.5 279,-252.5"/>
<text text-anchor="middle" x="340" y="-259.5" font-family="Helvetica,sans-Serif" font-size="10.00">AxiStreamGearbox(2)</text>
</a>
</g>
</g>
<!-- Node5&#45;&gt;Node4 -->
<g id="edge4" class="edge">
<title>Node5&#45;&gt;Node4</title>
<path fill="none" stroke="midnightblue" d="M385.11,-249.76C409.41,-243.02 439.14,-234.77 461.7,-228.52"/>
<polygon fill="midnightblue" stroke="midnightblue" points="384.1,-246.41 375.4,-252.46 385.97,-253.16 384.1,-246.41"/>
</g>
<!-- Node26 -->
<g id="node16" class="node">
<title>Node26</title>
<g id="a_node16"><a xlink:href="classAxiStreamFifoV2.html" target="_top" xlink:title=" ">
<polygon fill="white" stroke="black" points="448,-285.5 448,-304.5 546,-304.5 546,-285.5 448,-285.5"/>
<text text-anchor="middle" x="497" y="-292.5" font-family="Helvetica,sans-Serif" font-size="10.00">AxiStreamFifoV2</text>
</a>
</g>
</g>
<!-- Node5&#45;&gt;Node26 -->
<g id="edge18" class="edge">
<title>Node5&#45;&gt;Node26</title>
<path fill="none" stroke="midnightblue" d="M395.72,-273.65C413.9,-277.52 433.93,-281.78 451.27,-285.48"/>
<polygon fill="midnightblue" stroke="midnightblue" points="396.34,-270.2 385.83,-271.54 394.88,-277.05 396.34,-270.2"/>
</g>
<!-- Node48 -->
<g id="node38" class="node">
<title>Node48</title>
<g id="a_node38"><a xlink:href="classAxiStreamFifoV2.html" target="_top" xlink:title=" ">
<polygon fill="white" stroke="black" points="441,-171.5 441,-190.5 553,-190.5 553,-171.5 441,-171.5"/>
<text text-anchor="middle" x="497" y="-178.5" font-family="Helvetica,sans-Serif" font-size="10.00">AxiStreamFifoV2(2)</text>
</a>
</g>
</g>
<!-- Node5&#45;&gt;Node48 -->
<g id="edge53" class="edge">
<title>Node5&#45;&gt;Node48</title>
<path fill="none" stroke="midnightblue" d="M361.55,-246.46C380.38,-232.78 409.45,-213.05 437,-200 444.59,-196.41 453.03,-193.24 461.1,-190.57"/>
<polygon fill="midnightblue" stroke="midnightblue" points="359.39,-243.7 353.42,-252.45 363.54,-249.34 359.39,-243.7"/>
</g>
<!-- Node6 -->
<g id="node6" class="node">
<title>Node6</title>
<g id="a_node6"><a xlink:href="classAxiStreamResize.html" target="_top" xlink:title=" ">
<polygon fill="white" stroke="black" points="143,-404.5 143,-423.5 243,-423.5 243,-404.5 143,-404.5"/>
<text text-anchor="middle" x="193" y="-411.5" font-family="Helvetica,sans-Serif" font-size="10.00">AxiStreamResize</text>
</a>
</g>
</g>
<!-- Node6&#45;&gt;Node5 -->
<g id="edge5" class="edge">
<title>Node6&#45;&gt;Node5</title>
<path fill="none" stroke="midnightblue" d="M238.59,-399.02C240.16,-397.79 241.64,-396.45 243,-395 279.35,-356.25 241.44,-318.59 279,-281 282.86,-277.14 287.5,-274.06 292.47,-271.6"/>
<polygon fill="midnightblue" stroke="midnightblue" points="236.67,-396.1 230.1,-404.41 240.42,-402.01 236.67,-396.1"/>
</g>
<!-- Node33 -->
<g id="node23" class="node">
<title>Node33</title>
<g id="a_node23"><a xlink:href="classEthMacTxExportGmii.html" target="_top" xlink:title=" ">
<polygon fill="white" stroke="black" points="600.5,-378.5 600.5,-397.5 719.5,-397.5 719.5,-378.5 600.5,-378.5"/>
<text text-anchor="middle" x="660" y="-385.5" font-family="Helvetica,sans-Serif" font-size="10.00">EthMacTxExportGmii</text>
</a>
</g>
</g>
<!-- Node6&#45;&gt;Node33 -->
<g id="edge31" class="edge">
<title>Node6&#45;&gt;Node33</title>
<path fill="none" stroke="midnightblue" d="M253.31,-410.68C342.8,-405.68 511.32,-396.26 600.4,-391.28"/>
<polygon fill="midnightblue" stroke="midnightblue" points="253.11,-407.19 243.32,-411.24 253.5,-414.18 253.11,-407.19"/>
</g>
<!-- Node38 -->
<g id="node28" class="node">
<title>Node38</title>
<g id="a_node28"><a xlink:href="classEthMacRxImportXgmii.html" target="_top" xlink:title=" ">
<polygon fill="white" stroke="black" points="597,-416.5 597,-435.5 723,-435.5 723,-416.5 597,-416.5"/>
<text text-anchor="middle" x="660" y="-423.5" font-family="Helvetica,sans-Serif" font-size="10.00">EthMacRxImportXgmii</text>
</a>
</g>
</g>
<!-- Node6&#45;&gt;Node38 -->
<g id="edge38" class="edge">
<title>Node6&#45;&gt;Node38</title>
<path fill="none" stroke="midnightblue" d="M253.45,-415.53C341.84,-417.82 507.12,-422.08 596.98,-424.4"/>
<polygon fill="midnightblue" stroke="midnightblue" points="253.41,-412.03 243.32,-415.27 253.23,-419.03 253.41,-412.03"/>
</g>
<!-- Node7 -->
<g id="node7" class="node">
<title>Node7</title>
<g id="a_node7"><a xlink:href="classAxiStreamPipeline.html" target="_top" xlink:title=" ">
<polygon fill="white" stroke="black" points="0,-252.5 0,-271.5 107,-271.5 107,-252.5 0,-252.5"/>
<text text-anchor="middle" x="53.5" y="-259.5" font-family="Helvetica,sans-Serif" font-size="10.00">AxiStreamPipeline</text>
</a>
</g>
</g>
<!-- Node7&#45;&gt;Node4 -->
<g id="edge12" class="edge">
<title>Node7&#45;&gt;Node4</title>
<path fill="none" stroke="midnightblue" d="M117.53,-255.86C204.09,-247.43 358.39,-232.4 440.7,-224.39"/>
<polygon fill="midnightblue" stroke="midnightblue" points="116.93,-252.4 107.32,-256.86 117.61,-259.37 116.93,-252.4"/>
</g>
<!-- Node7&#45;&gt;Node5 -->
<g id="edge7" class="edge">
<title>Node7&#45;&gt;Node5</title>
<path fill="none" stroke="midnightblue" d="M117.31,-262C165.45,-262 231.46,-262 278.91,-262"/>
<polygon fill="midnightblue" stroke="midnightblue" points="117.01,-258.5 107.01,-262 117.01,-265.5 117.01,-258.5"/>
</g>
<!-- Node7&#45;&gt;Node6 -->
<g id="edge6" class="edge">
<title>Node7&#45;&gt;Node6</title>
<path fill="none" stroke="midnightblue" d="M62.61,-281.14C75.62,-309.69 103.72,-363.44 143,-395 147.77,-398.83 153.39,-401.95 159.11,-404.48"/>
<polygon fill="midnightblue" stroke="midnightblue" points="65.75,-279.58 58.51,-271.85 59.35,-282.41 65.75,-279.58"/>
</g>
<!-- Node7&#45;&gt;Node26 -->
<g id="edge21" class="edge">
<title>Node7&#45;&gt;Node26</title>
<path fill="none" stroke="midnightblue" d="M92.51,-274.74C136.72,-288.83 212.18,-310.65 279,-319 332.8,-325.72 347.19,-325.69 401,-319 423.11,-316.25 447.47,-310.03 465.99,-304.61"/>
<polygon fill="midnightblue" stroke="midnightblue" points="93.36,-271.34 82.77,-271.6 91.21,-278 93.36,-271.34"/>
</g>
<!-- Node28 -->
<g id="node18" class="node">
<title>Node28</title>
<g id="a_node18"><a xlink:href="classAxiStreamMux.html" target="_top" xlink:title=" ">
<polygon fill="white" stroke="black" points="148.5,-483.5 148.5,-502.5 237.5,-502.5 237.5,-483.5 148.5,-483.5"/>
<text text-anchor="middle" x="193" y="-490.5" font-family="Helvetica,sans-Serif" font-size="10.00">AxiStreamMux</text>
</a>
</g>
</g>
<!-- Node7&#45;&gt;Node28 -->
<g id="edge24" class="edge">
<title>Node7&#45;&gt;Node28</title>
<path fill="none" stroke="midnightblue" d="M62.68,-280.83C77.05,-313.1 108.55,-380.56 143,-433 155.4,-451.88 172.63,-471.82 183.01,-483.3"/>
<polygon fill="midnightblue" stroke="midnightblue" points="65.88,-279.39 58.64,-271.65 59.47,-282.21 65.88,-279.39"/>
</g>
<!-- Node7&#45;&gt;Node48 -->
<g id="edge56" class="edge">
<title>Node7&#45;&gt;Node48</title>
<path fill="none" stroke="midnightblue" d="M79.52,-247.44C119.89,-224.89 202.59,-182.5 279,-167 338.01,-155.03 407.73,-163.41 451.9,-171.43"/>
<polygon fill="midnightblue" stroke="midnightblue" points="77.64,-244.49 70.66,-252.46 81.08,-250.58 77.64,-244.49"/>
</g>
<!-- Node49 -->
<g id="node39" class="node">
<title>Node49</title>
<g id="a_node39"><a xlink:href="classSsiObFrameFilter.html" target="_top" xlink:title=" ">
<polygon fill="white" stroke="black" points="143,-100.5 143,-119.5 243,-119.5 243,-100.5 143,-100.5"/>
<text text-anchor="middle" x="193" y="-107.5" font-family="Helvetica,sans-Serif" font-size="10.00">SsiObFrameFilter</text>
</a>
</g>
</g>
<!-- Node7&#45;&gt;Node49 -->
<g id="edge58" class="edge">
<title>Node7&#45;&gt;Node49</title>
<path fill="none" stroke="midnightblue" d="M63.52,-243.24C77.36,-216.12 106.14,-165.72 143,-134 149.82,-128.13 158.33,-123.31 166.33,-119.57"/>
<polygon fill="midnightblue" stroke="midnightblue" points="60.28,-241.9 58.96,-252.41 66.55,-245.02 60.28,-241.9"/>
</g>
<!-- Node8 -->
<g id="node8" class="node">
<title>Node8</title>
<g id="a_node8"><a xlink:href="classFifoCascade.html" target="_top" xlink:title=" ">
<polygon fill="white" stroke="black" points="295.5,-290.5 295.5,-309.5 384.5,-309.5 384.5,-290.5 295.5,-290.5"/>
<text text-anchor="middle" x="340" y="-297.5" font-family="Helvetica,sans-Serif" font-size="10.00">FifoCascade(2)</text>
</a>
</g>
</g>
<!-- Node8&#45;&gt;Node4 -->
<g id="edge8" class="edge">
<title>Node8&#45;&gt;Node4</title>
<path fill="none" stroke="midnightblue" d="M391.6,-286.36C394.88,-284.76 398.05,-282.98 401,-281 421.71,-267.13 416.33,-251.92 437,-238 442.71,-234.15 449.26,-231.04 455.86,-228.54"/>
<polygon fill="midnightblue" stroke="midnightblue" points="389.95,-283.26 382.14,-290.42 392.71,-289.69 389.95,-283.26"/>
</g>
<!-- Node8&#45;&gt;Node26 -->
<g id="edge19" class="edge">
<title>Node8&#45;&gt;Node26</title>
<path fill="none" stroke="midnightblue" d="M395.03,-298.26C412.22,-297.7 431.1,-297.09 447.84,-296.55"/>
<polygon fill="midnightblue" stroke="midnightblue" points="394.47,-294.77 384.59,-298.59 394.7,-301.77 394.47,-294.77"/>
</g>
<!-- Node8&#45;&gt;Node48 -->
<g id="edge54" class="edge">
<title>Node8&#45;&gt;Node48</title>
<path fill="none" stroke="midnightblue" d="M393.81,-286.34C396.36,-284.75 398.79,-282.98 401,-281 430.37,-254.74 407.7,-226.33 437,-200 441.32,-196.12 446.45,-193.03 451.84,-190.57"/>
<polygon fill="midnightblue" stroke="midnightblue" points="391.95,-283.36 384.68,-291.07 395.17,-289.58 391.95,-283.36"/>
</g>
<!-- Node9 -->
<g id="node9" class="node">
<title>Node9</title>
<g id="a_node9"><a xlink:href="classFifo.html" target="_top" xlink:title=" ">
<polygon fill="white" stroke="red" points="169,-366.5 169,-385.5 217,-385.5 217,-366.5 169,-366.5"/>
<text text-anchor="middle" x="193" y="-373.5" font-family="Helvetica,sans-Serif" font-size="10.00">Fifo(4)</text>
</a>
</g>
</g>
<!-- Node9&#45;&gt;Node8 -->
<g id="edge9" class="edge">
<title>Node9&#45;&gt;Node8</title>
<path fill="none" stroke="midnightblue" d="M221.58,-361.54C250.71,-346.28 295.81,-322.64 320.78,-309.55"/>
<polygon fill="midnightblue" stroke="midnightblue" points="219.6,-358.63 212.36,-366.37 222.85,-364.83 219.6,-358.63"/>
</g>
<!-- Node10 -->
<g id="node10" class="node">
<title>Node10</title>
<g id="a_node10"><a xlink:href="classFifoXpm.html" target="_top" xlink:title=" ">
<polygon fill="white" stroke="red" points="25,-404.5 25,-423.5 82,-423.5 82,-404.5 25,-404.5"/>
<text text-anchor="middle" x="53.5" y="-411.5" font-family="Helvetica,sans-Serif" font-size="10.00">FifoXpm</text>
</a>
</g>
</g>
<!-- Node10&#45;&gt;Node9 -->
<g id="edge10" class="edge">
<title>Node10&#45;&gt;Node9</title>
<path fill="none" stroke="midnightblue" d="M92.03,-403.63C116.56,-396.85 147.81,-388.21 168.78,-382.42"/>
<polygon fill="midnightblue" stroke="midnightblue" points="91.03,-400.27 82.33,-406.31 92.9,-407.02 91.03,-400.27"/>
</g>
<!-- Node39 -->
<g id="node29" class="node">
<title>Node39</title>
<g id="a_node29"><a xlink:href="classFifo.html" target="_top" xlink:title=" ">
<polygon fill="white" stroke="red" points="322.5,-454.5 322.5,-473.5 357.5,-473.5 357.5,-454.5 322.5,-454.5"/>
<text text-anchor="middle" x="340" y="-461.5" font-family="Helvetica,sans-Serif" font-size="10.00">Fifo</text>
</a>
</g>
</g>
<!-- Node10&#45;&gt;Node39 -->
<g id="edge40" class="edge">
<title>Node10&#45;&gt;Node39</title>
<path fill="none" stroke="midnightblue" d="M92.18,-422.57C107.86,-426 126.27,-429.88 143,-433 209.21,-445.33 288.6,-456.91 322.43,-461.69"/>
<polygon fill="midnightblue" stroke="midnightblue" points="92.84,-419.13 82.32,-420.38 91.33,-425.96 92.84,-419.13"/>
</g>
<!-- Node15 -->
<g id="node11" class="node">
<title>Node15</title>
<g id="a_node11"><a xlink:href="classSynchronizer.html" target="_top" xlink:title=" ">
<polygon fill="white" stroke="black" points="300,-176.5 300,-195.5 380,-195.5 380,-176.5 300,-176.5"/>
<text text-anchor="middle" x="340" y="-183.5" font-family="Helvetica,sans-Serif" font-size="10.00">Synchronizer</text>
</a>
</g>
</g>
<!-- Node15&#45;&gt;Node4 -->
<g id="edge11" class="edge">
<title>Node15&#45;&gt;Node4</title>
<path fill="none" stroke="midnightblue" d="M390.06,-196.44C409.63,-200.61 432,-205.38 451.14,-209.45"/>
<polygon fill="midnightblue" stroke="midnightblue" points="390.62,-192.99 380.11,-194.33 389.16,-199.83 390.62,-192.99"/>
</g>
<!-- Node15&#45;&gt;Node26 -->
<g id="edge20" class="edge">
<title>Node15&#45;&gt;Node26</title>
<path fill="none" stroke="midnightblue" d="M358.64,-202.72C385.73,-228.37 434.73,-274.66 437,-276 443.4,-279.77 450.63,-282.89 457.79,-285.43"/>
<polygon fill="midnightblue" stroke="midnightblue" points="360.99,-200.12 351.32,-195.79 356.17,-205.2 360.99,-200.12"/>
</g>
<!-- Node15&#45;&gt;Node48 -->
<g id="edge55" class="edge">
<title>Node15&#45;&gt;Node48</title>
<path fill="none" stroke="midnightblue" d="M390.36,-184.41C406.42,-183.89 424.34,-183.31 440.8,-182.78"/>
<polygon fill="midnightblue" stroke="midnightblue" points="389.99,-180.92 380.11,-184.74 390.22,-187.91 389.99,-180.92"/>
</g>
<!-- Node57 -->
<g id="node47" class="node">
<title>Node57</title>
<g id="a_node47"><a xlink:href="classRstSync.html" target="_top" xlink:title=" ">
<polygon fill="white" stroke="black" points="469,-38.5 469,-57.5 525,-57.5 525,-38.5 469,-38.5"/>
<text text-anchor="middle" x="497" y="-45.5" font-family="Helvetica,sans-Serif" font-size="10.00">RstSync</text>
</a>
</g>
</g>
<!-- Node15&#45;&gt;Node57 -->
<g id="edge67" class="edge">
<title>Node15&#45;&gt;Node57</title>
<path fill="none" stroke="midnightblue" d="M351.17,-167.53C366.46,-141.42 397.81,-93.92 437,-67 446.49,-60.48 458.36,-56.09 468.95,-53.19"/>
<polygon fill="midnightblue" stroke="midnightblue" points="348.02,-165.98 346.11,-176.4 354.11,-169.45 348.02,-165.98"/>
</g>
<!-- Node58 -->
<g id="node48" class="node">
<title>Node58</title>
<g id="a_node48"><a xlink:href="classSynchronizerEdge.html" target="_top" xlink:title=" ">
<polygon fill="white" stroke="black" points="445,-0.5 445,-19.5 549,-19.5 549,-0.5 445,-0.5"/>
<text text-anchor="middle" x="497" y="-7.5" font-family="Helvetica,sans-Serif" font-size="10.00">SynchronizerEdge</text>
</a>
</g>
</g>
<!-- Node15&#45;&gt;Node58 -->
<g id="edge69" class="edge">
<title>Node15&#45;&gt;Node58</title>
<path fill="none" stroke="midnightblue" d="M347.61,-166.83C359.97,-133.83 389.65,-66.26 437,-29 441.9,-25.14 447.62,-22.05 453.52,-19.59"/>
<polygon fill="midnightblue" stroke="midnightblue" points="344.32,-165.65 344.21,-176.24 350.9,-168.03 344.32,-165.65"/>
</g>
<!-- Node22 -->
<g id="node12" class="node">
<title>Node22</title>
<g id="a_node12"><a xlink:href="classEthMacTx.html" target="_top" xlink:title=" ">
<polygon fill="white" stroke="black" points="987.5,-264.5 987.5,-283.5 1052.5,-283.5 1052.5,-264.5 987.5,-264.5"/>
<text text-anchor="middle" x="1020" y="-271.5" font-family="Helvetica,sans-Serif" font-size="10.00">EthMacTx</text>
</a>
</g>
</g>
<!-- Node22&#45;&gt;Node2 -->
<g id="edge13" class="edge">
<title>Node22&#45;&gt;Node2</title>
<path fill="none" stroke="midnightblue" d="M1048.84,-259.61C1086.02,-240.41 1150.84,-206.92 1182.52,-190.55"/>
<polygon fill="midnightblue" stroke="midnightblue" points="1046.86,-256.7 1039.59,-264.4 1050.08,-262.92 1046.86,-256.7"/>
</g>
<!-- Node23 -->
<g id="node13" class="node">
<title>Node23</title>
<g id="a_node13"><a xlink:href="classEthMacTxBypass.html" target="_top" xlink:title=" ">
<polygon fill="white" stroke="black" points="781.5,-226.5 781.5,-245.5 881.5,-245.5 881.5,-226.5 781.5,-226.5"/>
<text text-anchor="middle" x="831.5" y="-233.5" font-family="Helvetica,sans-Serif" font-size="10.00">EthMacTxBypass</text>
</a>
</g>
</g>
<!-- Node23&#45;&gt;Node22 -->
<g id="edge14" class="edge">
<title>Node23&#45;&gt;Node22</title>
<path fill="none" stroke="midnightblue" d="M889.74,-247.66C921.9,-254.22 960.81,-262.14 987.49,-267.58"/>
<polygon fill="midnightblue" stroke="midnightblue" points="890.06,-244.16 879.56,-245.59 888.66,-251.02 890.06,-244.16"/>
</g>
<!-- Node24 -->
<g id="node14" class="node">
<title>Node24</title>
<g id="a_node14"><a xlink:href="classEthMacTxCsum.html" target="_top" xlink:title=" ">
<polygon fill="white" stroke="black" points="607,-226.5 607,-245.5 713,-245.5 713,-226.5 607,-226.5"/>
<text text-anchor="middle" x="660" y="-233.5" font-family="Helvetica,sans-Serif" font-size="10.00">EthMacTxCsum(2)</text>
</a>
</g>
</g>
<!-- Node24&#45;&gt;Node22 -->
<g id="edge15" class="edge">
<title>Node24&#45;&gt;Node22</title>
<path fill="none" stroke="midnightblue" d="M716.46,-247.48C731.51,-250.28 747.83,-253.03 763,-255 843.44,-265.44 938.89,-270.64 987.36,-272.77"/>
<polygon fill="midnightblue" stroke="midnightblue" points="716.75,-243.97 706.27,-245.54 715.44,-250.85 716.75,-243.97"/>
</g>
<!-- Node25 -->
<g id="node15" class="node">
<title>Node25</title>
<g id="a_node15"><a xlink:href="classAxiStreamPipeline.html" target="_top" xlink:title=" ">
<polygon fill="white" stroke="black" points="437,-247.5 437,-266.5 557,-266.5 557,-247.5 437,-247.5"/>
<text text-anchor="middle" x="497" y="-254.5" font-family="Helvetica,sans-Serif" font-size="10.00">AxiStreamPipeline(2)</text>
</a>
</g>
</g>
<!-- Node25&#45;&gt;Node24 -->
<g id="edge16" class="edge">
<title>Node25&#45;&gt;Node24</title>
<path fill="none" stroke="midnightblue" d="M567.12,-247.98C580.45,-246.25 594.21,-244.45 606.88,-242.8"/>
<polygon fill="midnightblue" stroke="midnightblue" points="566.5,-244.54 557.04,-249.3 567.4,-251.48 566.5,-244.54"/>
</g>
<!-- Node26&#45;&gt;Node24 -->
<g id="edge17" class="edge">
<title>Node26&#45;&gt;Node24</title>
<path fill="none" stroke="midnightblue" d="M541.39,-282.22C546.71,-280.31 552.03,-278.22 557,-276 573.91,-268.45 575.97,-262.28 593,-255 601.44,-251.39 610.78,-248.23 619.7,-245.58"/>
<polygon fill="midnightblue" stroke="midnightblue" points="540.19,-278.93 531.86,-285.48 542.45,-285.56 540.19,-278.93"/>
</g>
<!-- Node31 -->
<g id="node21" class="node">
<title>Node31</title>
<g id="a_node21"><a xlink:href="classEthMacTxExportXgmii.html" target="_top" xlink:title=" ">
<polygon fill="white" stroke="black" points="597.5,-264.5 597.5,-283.5 722.5,-283.5 722.5,-264.5 597.5,-264.5"/>
<text text-anchor="middle" x="660" y="-271.5" font-family="Helvetica,sans-Serif" font-size="10.00">EthMacTxExportXgmii</text>
</a>
</g>
</g>
<!-- Node26&#45;&gt;Node31 -->
<g id="edge28" class="edge">
<title>Node26&#45;&gt;Node31</title>
<path fill="none" stroke="midnightblue" d="M556.3,-287.4C569.62,-285.66 583.82,-283.81 597.28,-282.05"/>
<polygon fill="midnightblue" stroke="midnightblue" points="555.77,-283.94 546.31,-288.7 556.67,-290.88 555.77,-283.94"/>
</g>
<!-- Node40 -->
<g id="node30" class="node">
<title>Node40</title>
<g id="a_node30"><a xlink:href="classEthMacRxImportGmii.html" target="_top" xlink:title=" ">
<polygon fill="white" stroke="black" points="599.5,-340.5 599.5,-359.5 720.5,-359.5 720.5,-340.5 599.5,-340.5"/>
<text text-anchor="middle" x="660" y="-347.5" font-family="Helvetica,sans-Serif" font-size="10.00">EthMacRxImportGmii</text>
</a>
</g>
</g>
<!-- Node26&#45;&gt;Node40 -->
<g id="edge43" class="edge">
<title>Node26&#45;&gt;Node40</title>
<path fill="none" stroke="midnightblue" d="M531.16,-308.33C549.3,-315.43 572.24,-324.09 593,-331 602.96,-334.31 613.87,-337.59 623.9,-340.47"/>
<polygon fill="midnightblue" stroke="midnightblue" points="532.21,-304.98 521.62,-304.57 529.64,-311.49 532.21,-304.98"/>
</g>
<!-- Node27 -->
<g id="node17" class="node">
<title>Node27</title>
<g id="a_node17"><a xlink:href="classEthMacTxPause.html" target="_top" xlink:title=" ">
<polygon fill="white" stroke="black" points="293.5,-492.5 293.5,-511.5 386.5,-511.5 386.5,-492.5 293.5,-492.5"/>
<text text-anchor="middle" x="340" y="-499.5" font-family="Helvetica,sans-Serif" font-size="10.00">EthMacTxPause</text>
</a>
</g>
</g>
<!-- Node27&#45;&gt;Node22 -->
<g id="edge22" class="edge">
<title>Node27&#45;&gt;Node22</title>
<path fill="none" stroke="midnightblue" d="M392.54,-513.5C497.28,-533.86 738.72,-565.19 900,-464 970.89,-419.53 1006.64,-315.74 1016.28,-283.64"/>
<polygon fill="midnightblue" stroke="midnightblue" points="393.03,-510.03 382.54,-511.51 391.66,-516.89 393.03,-510.03"/>
</g>
<!-- Node28&#45;&gt;Node27 -->
<g id="edge23" class="edge">
<title>Node28&#45;&gt;Node27</title>
<path fill="none" stroke="midnightblue" d="M247.66,-496.33C262.64,-497.26 278.78,-498.26 293.26,-499.16"/>
<polygon fill="midnightblue" stroke="midnightblue" points="247.7,-492.83 237.5,-495.7 247.27,-499.81 247.7,-492.83"/>
</g>
<!-- Node29 -->
<g id="node19" class="node">
<title>Node29</title>
<g id="a_node19"><a xlink:href="classEthMacTxExport.html" target="_top" xlink:title=" ">
<polygon fill="white" stroke="black" points="783.5,-302.5 783.5,-321.5 879.5,-321.5 879.5,-302.5 783.5,-302.5"/>
<text text-anchor="middle" x="831.5" y="-309.5" font-family="Helvetica,sans-Serif" font-size="10.00">EthMacTxExport</text>
</a>
</g>
</g>
<!-- Node29&#45;&gt;Node22 -->
<g id="edge25" class="edge">
<title>Node29&#45;&gt;Node22</title>
<path fill="none" stroke="midnightblue" d="M889.74,-300.34C921.9,-293.78 960.81,-285.86 987.49,-280.42"/>
<polygon fill="midnightblue" stroke="midnightblue" points="888.66,-296.98 879.56,-302.41 890.06,-303.84 888.66,-296.98"/>
</g>
<!-- Node30 -->
<g id="node20" class="node">
<title>Node30</title>
<g id="a_node20"><a xlink:href="classEthMacTxExportXlgmii.html" target="_top" xlink:title=" ">
<polygon fill="white" stroke="black" points="596,-302.5 596,-321.5 724,-321.5 724,-302.5 596,-302.5"/>
<text text-anchor="middle" x="660" y="-309.5" font-family="Helvetica,sans-Serif" font-size="10.00">EthMacTxExportXlgmii</text>
</a>
</g>
</g>
<!-- Node30&#45;&gt;Node29 -->
<g id="edge26" class="edge">
<title>Node30&#45;&gt;Node29</title>
<path fill="none" stroke="midnightblue" d="M734.38,-312C751.03,-312 768.28,-312 783.49,-312"/>
<polygon fill="midnightblue" stroke="midnightblue" points="734.12,-308.5 724.12,-312 734.12,-315.5 734.12,-308.5"/>
</g>
<!-- Node31&#45;&gt;Node29 -->
<g id="edge27" class="edge">
<title>Node31&#45;&gt;Node29</title>
<path fill="none" stroke="midnightblue" d="M713.74,-285.82C737.64,-291.18 765.52,-297.43 788.04,-302.48"/>
<polygon fill="midnightblue" stroke="midnightblue" points="714.3,-282.36 703.77,-283.59 712.76,-289.19 714.3,-282.36"/>
</g>
<!-- Node32 -->
<g id="node22" class="node">
<title>Node32</title>
<g id="a_node22"><a xlink:href="classCrc32Parallel.html" target="_top" xlink:title=" ">
<polygon fill="white" stroke="black" points="457,-340.5 457,-359.5 537,-359.5 537,-340.5 457,-340.5"/>
<text text-anchor="middle" x="497" y="-347.5" font-family="Helvetica,sans-Serif" font-size="10.00">Crc32Parallel</text>
</a>
</g>
</g>
<!-- Node32&#45;&gt;Node31 -->
<g id="edge29" class="edge">
<title>Node32&#45;&gt;Node31</title>
<path fill="none" stroke="midnightblue" d="M522.56,-335.05C549.46,-318.7 589.29,-294.61 593,-293 601.42,-289.34 610.74,-286.16 619.67,-283.51"/>
<polygon fill="midnightblue" stroke="midnightblue" points="520.4,-332.27 513.67,-340.45 524.03,-338.25 520.4,-332.27"/>
</g>
<!-- Node32&#45;&gt;Node33 -->
<g id="edge32" class="edge">
<title>Node32&#45;&gt;Node33</title>
<path fill="none" stroke="midnightblue" d="M547.25,-361.62C570.12,-367.02 596.97,-373.36 618.62,-378.47"/>
<polygon fill="midnightblue" stroke="midnightblue" points="547.92,-358.19 537.39,-359.3 546.31,-365 547.92,-358.19"/>
</g>
<!-- Node32&#45;&gt;Node38 -->
<g id="edge41" class="edge">
<title>Node32&#45;&gt;Node38</title>
<path fill="none" stroke="midnightblue" d="M519.94,-365.42C538.65,-378.01 566.63,-395.53 593,-407 601.42,-410.66 610.74,-413.84 619.67,-416.49"/>
<polygon fill="midnightblue" stroke="midnightblue" points="521.78,-362.44 511.55,-359.69 517.83,-368.22 521.78,-362.44"/>
</g>
<!-- Node32&#45;&gt;Node40 -->
<g id="edge44" class="edge">
<title>Node32&#45;&gt;Node40</title>
<path fill="none" stroke="midnightblue" d="M547.78,-350C564.07,-350 582.35,-350 599.3,-350"/>
<polygon fill="midnightblue" stroke="midnightblue" points="547.39,-346.5 537.39,-350 547.38,-353.5 547.39,-346.5"/>
</g>
<!-- Node33&#45;&gt;Node29 -->
<g id="edge30" class="edge">
<title>Node33&#45;&gt;Node29</title>
<path fill="none" stroke="midnightblue" d="M709.51,-375.38C715.47,-373.44 721.42,-371.3 727,-369 759.99,-355.37 795.95,-333.93 815.6,-321.6"/>
<polygon fill="midnightblue" stroke="midnightblue" points="708.06,-372.17 699.54,-378.47 710.13,-378.86 708.06,-372.17"/>
</g>
<!-- Node34 -->
<g id="node24" class="node">
<title>Node34</title>
<g id="a_node24"><a xlink:href="classEthMacFlowCtrl.html" target="_top" xlink:title=" ">
<polygon fill="white" stroke="black" points="973.5,-152.5 973.5,-171.5 1066.5,-171.5 1066.5,-152.5 973.5,-152.5"/>
<text text-anchor="middle" x="1020" y="-159.5" font-family="Helvetica,sans-Serif" font-size="10.00">EthMacFlowCtrl</text>
</a>
</g>
</g>
<!-- Node34&#45;&gt;Node2 -->
<g id="edge33" class="edge">
<title>Node34&#45;&gt;Node2</title>
<path fill="none" stroke="midnightblue" d="M1077.1,-167.92C1106.71,-171.05 1142.07,-174.78 1167.42,-177.46"/>
<polygon fill="midnightblue" stroke="midnightblue" points="1077.2,-164.41 1066.89,-166.84 1076.46,-171.37 1077.2,-164.41"/>
</g>
<!-- Node35 -->
<g id="node25" class="node">
<title>Node35</title>
<g id="a_node25"><a xlink:href="classEthMacRx.html" target="_top" xlink:title=" ">
<polygon fill="white" stroke="black" points="987.5,-549.5 987.5,-568.5 1052.5,-568.5 1052.5,-549.5 987.5,-549.5"/>
<text text-anchor="middle" x="1020" y="-556.5" font-family="Helvetica,sans-Serif" font-size="10.00">EthMacRx</text>
</a>
</g>
</g>
<!-- Node35&#45;&gt;Node2 -->
<g id="edge34" class="edge">
<title>Node35&#45;&gt;Node2</title>
<path fill="none" stroke="midnightblue" d="M1029.98,-540.14C1062.37,-472.13 1172.5,-240.85 1196.4,-190.66"/>
<polygon fill="midnightblue" stroke="midnightblue" points="1026.77,-538.74 1025.63,-549.28 1033.09,-541.75 1026.77,-538.74"/>
</g>
<!-- Node36 -->
<g id="node26" class="node">
<title>Node36</title>
<g id="a_node26"><a xlink:href="classEthMacRxImport.html" target="_top" xlink:title=" ">
<polygon fill="white" stroke="black" points="782.5,-435.5 782.5,-454.5 880.5,-454.5 880.5,-435.5 782.5,-435.5"/>
<text text-anchor="middle" x="831.5" y="-442.5" font-family="Helvetica,sans-Serif" font-size="10.00">EthMacRxImport</text>
</a>
</g>
</g>
<!-- Node36&#45;&gt;Node35 -->
<g id="edge35" class="edge">
<title>Node36&#45;&gt;Node35</title>
<path fill="none" stroke="midnightblue" d="M856.68,-459.78C895.52,-483.52 970.76,-529.51 1003.33,-549.42"/>
<polygon fill="midnightblue" stroke="midnightblue" points="858.44,-456.75 848.08,-454.52 854.79,-462.73 858.44,-456.75"/>
</g>
<!-- Node37 -->
<g id="node27" class="node">
<title>Node37</title>
<g id="a_node27"><a xlink:href="classEthMacRxImportXlgmii.html" target="_top" xlink:title=" ">
<polygon fill="white" stroke="black" points="595.5,-454.5 595.5,-473.5 724.5,-473.5 724.5,-454.5 595.5,-454.5"/>
<text text-anchor="middle" x="660" y="-461.5" font-family="Helvetica,sans-Serif" font-size="10.00">EthMacRxImportXlgmii</text>
</a>
</g>
</g>
<!-- Node37&#45;&gt;Node36 -->
<g id="edge36" class="edge">
<title>Node37&#45;&gt;Node36</title>
<path fill="none" stroke="midnightblue" d="M734.59,-455.75C750.8,-453.93 767.56,-452.06 782.44,-450.39"/>
<polygon fill="midnightblue" stroke="midnightblue" points="734.15,-452.28 724.6,-456.87 734.93,-459.24 734.15,-452.28"/>
</g>
<!-- Node38&#45;&gt;Node36 -->
<g id="edge37" class="edge">
<title>Node38&#45;&gt;Node36</title>
<path fill="none" stroke="midnightblue" d="M733.37,-434.11C749.94,-435.97 767.17,-437.9 782.43,-439.61"/>
<polygon fill="midnightblue" stroke="midnightblue" points="733.48,-430.6 723.15,-432.97 732.7,-437.56 733.48,-430.6"/>
</g>
<!-- Node39&#45;&gt;Node38 -->
<g id="edge39" class="edge">
<title>Node39&#45;&gt;Node38</title>
<path fill="none" stroke="midnightblue" d="M367.74,-461.25C408.58,-457.01 488.92,-448.45 557,-440 569.86,-438.4 583.62,-436.59 596.73,-434.81"/>
<polygon fill="midnightblue" stroke="midnightblue" points="367.13,-457.8 357.55,-462.31 367.85,-464.76 367.13,-457.8"/>
</g>
<!-- Node40&#45;&gt;Node36 -->
<g id="edge42" class="edge">
<title>Node40&#45;&gt;Node36</title>
<path fill="none" stroke="midnightblue" d="M712.39,-362.84C717.42,-364.68 722.37,-366.72 727,-369 764.41,-387.39 802.39,-419.47 820.15,-435.42"/>
<polygon fill="midnightblue" stroke="midnightblue" points="713.28,-359.45 702.68,-359.58 711.04,-366.08 713.28,-359.45"/>
</g>
<!-- Node41 -->
<g id="node31" class="node">
<title>Node41</title>
<g id="a_node31"><a xlink:href="classEthMacRxPause.html" target="_top" xlink:title=" ">
<polygon fill="white" stroke="black" points="784.5,-568.5 784.5,-587.5 878.5,-587.5 878.5,-568.5 784.5,-568.5"/>
<text text-anchor="middle" x="831.5" y="-575.5" font-family="Helvetica,sans-Serif" font-size="10.00">EthMacRxPause</text>
</a>
</g>
</g>
<!-- Node41&#45;&gt;Node35 -->
<g id="edge45" class="edge">
<title>Node41&#45;&gt;Node35</title>
<path fill="none" stroke="midnightblue" d="M888.82,-572.26C921.14,-568.97 960.52,-564.96 987.45,-562.21"/>
<polygon fill="midnightblue" stroke="midnightblue" points="888.19,-568.81 878.6,-573.3 888.9,-575.77 888.19,-568.81"/>
</g>
<!-- Node42 -->
<g id="node32" class="node">
<title>Node42</title>
<g id="a_node32"><a xlink:href="classEthMacRxCsum.html" target="_top" xlink:title=" ">
<polygon fill="white" stroke="black" points="778,-530.5 778,-549.5 885,-549.5 885,-530.5 778,-530.5"/>
<text text-anchor="middle" x="831.5" y="-537.5" font-family="Helvetica,sans-Serif" font-size="10.00">EthMacRxCsum(2)</text>
</a>
</g>
</g>
<!-- Node42&#45;&gt;Node35 -->
<g id="edge46" class="edge">
<title>Node42&#45;&gt;Node35</title>
<path fill="none" stroke="midnightblue" d="M895.69,-546.44C926.5,-549.58 962.23,-553.22 987.27,-555.77"/>
<polygon fill="midnightblue" stroke="midnightblue" points="895.75,-542.93 885.44,-545.39 895.04,-549.89 895.75,-542.93"/>
</g>
<!-- Node43 -->
<g id="node33" class="node">
<title>Node43</title>
<g id="a_node33"><a xlink:href="classEthMacRxBypass.html" target="_top" xlink:title=" ">
<polygon fill="white" stroke="black" points="781,-644.5 781,-663.5 882,-663.5 882,-644.5 781,-644.5"/>
<text text-anchor="middle" x="831.5" y="-651.5" font-family="Helvetica,sans-Serif" font-size="10.00">EthMacRxBypass</text>
</a>
</g>
</g>
<!-- Node43&#45;&gt;Node35 -->
<g id="edge47" class="edge">
<title>Node43&#45;&gt;Node35</title>
<path fill="none" stroke="midnightblue" d="M883.42,-641.42C889.1,-639.5 894.73,-637.36 900,-635 941.83,-616.25 986.05,-584.34 1006.84,-568.5"/>
<polygon fill="midnightblue" stroke="midnightblue" points="882.36,-638.08 873.88,-644.43 884.46,-644.76 882.36,-638.08"/>
</g>
<!-- Node44 -->
<g id="node34" class="node">
<title>Node44</title>
<g id="a_node34"><a xlink:href="classEthMacRxFilter.html" target="_top" xlink:title=" ">
<polygon fill="white" stroke="black" points="786.5,-606.5 786.5,-625.5 876.5,-625.5 876.5,-606.5 786.5,-606.5"/>
<text text-anchor="middle" x="831.5" y="-613.5" font-family="Helvetica,sans-Serif" font-size="10.00">EthMacRxFilter</text>
</a>
</g>
</g>
<!-- Node44&#45;&gt;Node35 -->
<g id="edge48" class="edge">
<title>Node44&#45;&gt;Node35</title>
<path fill="none" stroke="midnightblue" d="M877.12,-603.68C884.77,-601.5 892.62,-599.22 900,-597 930.74,-587.77 965.71,-576.51 989.75,-568.65"/>
<polygon fill="midnightblue" stroke="midnightblue" points="875.92,-600.38 867.25,-606.47 877.83,-607.11 875.92,-600.38"/>
</g>
<!-- Node45 -->
<g id="node35" class="node">
<title>Node45</title>
<g id="a_node35"><a xlink:href="classEthMacRxFifo.html" target="_top" xlink:title=" ">
<polygon fill="white" stroke="black" points="978.5,-114.5 978.5,-133.5 1061.5,-133.5 1061.5,-114.5 978.5,-114.5"/>
<text text-anchor="middle" x="1020" y="-121.5" font-family="Helvetica,sans-Serif" font-size="10.00">EthMacRxFifo</text>
</a>
</g>
</g>
<!-- Node45&#45;&gt;Node2 -->
<g id="edge49" class="edge">
<title>Node45&#45;&gt;Node2</title>
<path fill="none" stroke="midnightblue" d="M1071.9,-134.4C1082.58,-136.93 1093.72,-139.83 1104,-143 1130.44,-151.16 1159.93,-163.14 1179.37,-171.46"/>
<polygon fill="midnightblue" stroke="midnightblue" points="1072.38,-130.91 1061.85,-132.09 1070.81,-137.74 1072.38,-130.91"/>
</g>
<!-- Node46 -->
<g id="node36" class="node">
<title>Node46</title>
<g id="a_node36"><a xlink:href="classSsiFifo.html" target="_top" xlink:title=" ">
<polygon fill="white" stroke="black" points="629,-114.5 629,-133.5 691,-133.5 691,-114.5 629,-114.5"/>
<text text-anchor="middle" x="660" y="-121.5" font-family="Helvetica,sans-Serif" font-size="10.00">SsiFifo(3)</text>
</a>
</g>
</g>
<!-- Node46&#45;&gt;Node45 -->
<g id="edge50" class="edge">
<title>Node46&#45;&gt;Node45</title>
<path fill="none" stroke="midnightblue" d="M701.22,-124C769.92,-124 909.14,-124 978.22,-124"/>
<polygon fill="midnightblue" stroke="midnightblue" points="701.21,-120.5 691.21,-124 701.21,-127.5 701.21,-120.5"/>
</g>
<!-- Node47 -->
<g id="node37" class="node">
<title>Node47</title>
<g id="a_node37"><a xlink:href="classSsiIbFrameFilter.html" target="_top" xlink:title=" ">
<polygon fill="white" stroke="black" points="449.5,-76.5 449.5,-95.5 544.5,-95.5 544.5,-76.5 449.5,-76.5"/>
<text text-anchor="middle" x="497" y="-83.5" font-family="Helvetica,sans-Serif" font-size="10.00">SsiIbFrameFilter</text>
</a>
</g>
</g>
<!-- Node47&#45;&gt;Node46 -->
<g id="edge51" class="edge">
<title>Node47&#45;&gt;Node46</title>
<path fill="none" stroke="midnightblue" d="M548.46,-97.91C574.83,-104.13 606.23,-111.54 628.81,-116.87"/>
<polygon fill="midnightblue" stroke="midnightblue" points="549.16,-94.48 538.63,-95.59 547.56,-101.29 549.16,-94.48"/>
</g>
<!-- Node48&#45;&gt;Node46 -->
<g id="edge52" class="edge">
<title>Node48&#45;&gt;Node46</title>
<path fill="none" stroke="midnightblue" d="M534.52,-168.07C564.14,-157.58 605.23,-143.04 631.96,-133.57"/>
<polygon fill="midnightblue" stroke="midnightblue" points="533.21,-164.82 524.95,-171.46 535.54,-171.42 533.21,-164.82"/>
</g>
<!-- Node49&#45;&gt;Node46 -->
<g id="edge57" class="edge">
<title>Node49&#45;&gt;Node46</title>
<path fill="none" stroke="midnightblue" d="M253.6,-111.79C354,-114.82 553.29,-120.82 628.93,-123.09"/>
<polygon fill="midnightblue" stroke="midnightblue" points="253.42,-108.29 243.32,-111.48 253.21,-115.28 253.42,-108.29"/>
</g>
<!-- Node50 -->
<g id="node40" class="node">
<title>Node50</title>
<g id="a_node40"><a xlink:href="classXauiGth7Core.html" target="_top" xlink:title=" ">
<polygon fill="white" stroke="black" points="1300,-114.5 1300,-133.5 1384,-133.5 1384,-114.5 1300,-114.5"/>
<text text-anchor="middle" x="1342" y="-121.5" font-family="Helvetica,sans-Serif" font-size="10.00">XauiGth7Core</text>
</a>
</g>
</g>
<!-- Node50&#45;&gt;Node1 -->
<g id="edge59" class="edge">
<title>Node50&#45;&gt;Node1</title>
<path fill="none" stroke="midnightblue" d="M1394.26,-124C1403.02,-124 1411.87,-124 1419.85,-124"/>
<polygon fill="midnightblue" stroke="midnightblue" points="1394.06,-120.5 1384.06,-124 1394.06,-127.5 1394.06,-120.5"/>
</g>
<!-- Node51 -->
<g id="node41" class="node">
<title>Node51</title>
<g id="a_node41"><a xlink:href="classXauiReg.html" target="_top" xlink:title=" ">
<polygon fill="white" stroke="black" points="1313.5,-76.5 1313.5,-95.5 1370.5,-95.5 1370.5,-76.5 1313.5,-76.5"/>
<text text-anchor="middle" x="1342" y="-83.5" font-family="Helvetica,sans-Serif" font-size="10.00">XauiReg</text>
</a>
</g>
</g>
<!-- Node51&#45;&gt;Node1 -->
<g id="edge60" class="edge">
<title>Node51&#45;&gt;Node1</title>
<path fill="none" stroke="midnightblue" d="M1379.53,-98.97C1393.78,-104.03 1409.83,-109.73 1423.01,-114.41"/>
<polygon fill="midnightblue" stroke="midnightblue" points="1380.6,-95.64 1370,-95.59 1378.25,-102.23 1380.6,-95.64"/>
</g>
<!-- Node52 -->
<g id="node42" class="node">
<title>Node52</title>
<g id="a_node42"><a xlink:href="classSynchronizerVector.html" target="_top" xlink:title=" ">
<polygon fill="white" stroke="black" points="1140,-38.5 1140,-57.5 1264,-57.5 1264,-38.5 1140,-38.5"/>
<text text-anchor="middle" x="1202" y="-45.5" font-family="Helvetica,sans-Serif" font-size="10.00">SynchronizerVector(3)</text>
</a>
</g>
</g>
<!-- Node52&#45;&gt;Node51 -->
<g id="edge61" class="edge">
<title>Node52&#45;&gt;Node51</title>
<path fill="none" stroke="midnightblue" d="M1247.74,-60.32C1269.26,-66.24 1294.39,-73.16 1313.14,-78.33"/>
<polygon fill="midnightblue" stroke="midnightblue" points="1248.39,-56.87 1237.82,-57.59 1246.54,-63.62 1248.39,-56.87"/>
</g>
<!-- Node53 -->
<g id="node43" class="node">
<title>Node53</title>
<g id="a_node43"><a xlink:href="classSyncStatusVector.html" target="_top" xlink:title=" ">
<polygon fill="white" stroke="black" points="1151.5,-76.5 1151.5,-95.5 1252.5,-95.5 1252.5,-76.5 1151.5,-76.5"/>
<text text-anchor="middle" x="1202" y="-83.5" font-family="Helvetica,sans-Serif" font-size="10.00">SyncStatusVector</text>
</a>
</g>
</g>
<!-- Node53&#45;&gt;Node51 -->
<g id="edge62" class="edge">
<title>Node53&#45;&gt;Node51</title>
<path fill="none" stroke="midnightblue" d="M1263.01,-86C1280.54,-86 1298.85,-86 1313.32,-86"/>
<polygon fill="midnightblue" stroke="midnightblue" points="1262.82,-82.5 1252.82,-86 1262.82,-89.5 1262.82,-82.5"/>
</g>
<!-- Node54 -->
<g id="node44" class="node">
<title>Node54</title>
<g id="a_node44"><a xlink:href="classSynchronizerVector.html" target="_top" xlink:title=" ">
<polygon fill="white" stroke="black" points="965,-38.5 965,-57.5 1075,-57.5 1075,-38.5 965,-38.5"/>
<text text-anchor="middle" x="1020" y="-45.5" font-family="Helvetica,sans-Serif" font-size="10.00">SynchronizerVector</text>
</a>
</g>
</g>
<!-- Node54&#45;&gt;Node53 -->
<g id="edge63" class="edge">
<title>Node54&#45;&gt;Node53</title>
<path fill="none" stroke="midnightblue" d="M1076.33,-59.68C1101.86,-65.07 1131.78,-71.39 1155.91,-76.48"/>
<polygon fill="midnightblue" stroke="midnightblue" points="1076.93,-56.23 1066.42,-57.59 1075.48,-63.08 1076.93,-56.23"/>
</g>
<!-- Node55 -->
<g id="node45" class="node">
<title>Node55</title>
<g id="a_node45"><a xlink:href="classSynchronizerOneShotCntVector.html" target="_top" xlink:title=" ">
<polygon fill="white" stroke="black" points="936,-76.5 936,-95.5 1104,-95.5 1104,-76.5 936,-76.5"/>
<text text-anchor="middle" x="1020" y="-83.5" font-family="Helvetica,sans-Serif" font-size="10.00">SynchronizerOneShotCntVector</text>
</a>
</g>
</g>
<!-- Node55&#45;&gt;Node53 -->
<g id="edge64" class="edge">
<title>Node55&#45;&gt;Node53</title>
<path fill="none" stroke="midnightblue" d="M1114.37,-86C1127.12,-86 1139.77,-86 1151.31,-86"/>
<polygon fill="midnightblue" stroke="midnightblue" points="1114.15,-82.5 1104.15,-86 1114.15,-89.5 1114.15,-82.5"/>
</g>
<!-- Node56 -->
<g id="node46" class="node">
<title>Node56</title>
<g id="a_node46"><a xlink:href="classSynchronizerOneShot.html" target="_top" xlink:title=" ">
<polygon fill="white" stroke="black" points="593,-38.5 593,-57.5 727,-57.5 727,-38.5 593,-38.5"/>
<text text-anchor="middle" x="660" y="-45.5" font-family="Helvetica,sans-Serif" font-size="10.00">SynchronizerOneShot(2)</text>
</a>
</g>
</g>
<!-- Node56&#45;&gt;Node55 -->
<g id="edge65" class="edge">
<title>Node56&#45;&gt;Node55</title>
<path fill="none" stroke="midnightblue" d="M737.19,-52.52C784.2,-55.69 845.71,-60.52 900,-67 921.4,-69.55 944.84,-73.13 965.22,-76.49"/>
<polygon fill="midnightblue" stroke="midnightblue" points="737.29,-49.02 727.08,-51.85 736.82,-56 737.29,-49.02"/>
</g>
<!-- Node59 -->
<g id="node49" class="node">
<title>Node59</title>
<g id="a_node49"><a xlink:href="classSynchronizerOneShotCnt.html" target="_top" xlink:title=" ">
<polygon fill="white" stroke="black" points="763,-76.5 763,-95.5 900,-95.5 900,-76.5 763,-76.5"/>
<text text-anchor="middle" x="831.5" y="-83.5" font-family="Helvetica,sans-Serif" font-size="10.00">SynchronizerOneShotCnt</text>
</a>
</g>
</g>
<!-- Node56&#45;&gt;Node59 -->
<g id="edge71" class="edge">
<title>Node56&#45;&gt;Node59</title>
<path fill="none" stroke="midnightblue" d="M713.74,-59.82C737.64,-65.18 765.52,-71.43 788.04,-76.48"/>
<polygon fill="midnightblue" stroke="midnightblue" points="714.3,-56.36 703.77,-57.59 712.76,-63.19 714.3,-56.36"/>
</g>
<!-- Node57&#45;&gt;Node56 -->
<g id="edge66" class="edge">
<title>Node57&#45;&gt;Node56</title>
<path fill="none" stroke="midnightblue" d="M535.45,-48C552.56,-48 573.36,-48 592.97,-48"/>
<polygon fill="midnightblue" stroke="midnightblue" points="535.31,-44.5 525.31,-48 535.31,-51.5 535.31,-44.5"/>
</g>
<!-- Node58&#45;&gt;Node56 -->
<g id="edge68" class="edge">
<title>Node58&#45;&gt;Node56</title>
<path fill="none" stroke="midnightblue" d="M548.4,-21.9C571.03,-27.24 597.37,-33.45 618.67,-38.48"/>
<polygon fill="midnightblue" stroke="midnightblue" points="549.16,-18.48 538.63,-19.59 547.56,-25.29 549.16,-18.48"/>
</g>
<!-- Node59&#45;&gt;Node55 -->
<g id="edge70" class="edge">
<title>Node59&#45;&gt;Node55</title>
<path fill="none" stroke="midnightblue" d="M910.25,-86C918.67,-86 927.25,-86 935.73,-86"/>
<polygon fill="midnightblue" stroke="midnightblue" points="910.09,-82.5 900.09,-86 910.09,-89.5 910.09,-82.5"/>
</g>
<!-- Node60 -->
<g id="node50" class="node">
<title>Node60</title>
<g id="a_node50"><a xlink:href="classSynchronizerFifo.html" target="_top" xlink:title=" ">
<polygon fill="white" stroke="red" points="611,-76.5 611,-95.5 709,-95.5 709,-76.5 611,-76.5"/>
<text text-anchor="middle" x="660" y="-83.5" font-family="Helvetica,sans-Serif" font-size="10.00">SynchronizerFifo</text>
</a>
</g>
</g>
<!-- Node60&#45;&gt;Node59 -->
<g id="edge72" class="edge">
<title>Node60&#45;&gt;Node59</title>
<path fill="none" stroke="midnightblue" d="M719.17,-86C733.27,-86 748.47,-86 762.96,-86"/>
<polygon fill="midnightblue" stroke="midnightblue" points="719.12,-82.5 709.12,-86 719.12,-89.5 719.12,-82.5"/>
</g>
</g>
</svg>
