<?xml version="1.0" encoding="UTF-8" standalone="no"?>
<!DOCTYPE svg PUBLIC "-//W3C//DTD SVG 1.1//EN"
 "http://www.w3.org/Graphics/SVG/1.1/DTD/svg11.dtd">
<!-- Generated by graphviz version 2.43.0 (0)
 -->
<!-- Title: RssiCoreTb Pages: 1 -->
<!--zoomable 845 -->
<svg id="main" version="1.1" xmlns="http://www.w3.org/2000/svg" xmlns:xlink="http://www.w3.org/1999/xlink" xml:space="preserve" onload="init(evt)">
<style type="text/css"><![CDATA[
.edge:hover path { stroke: red; }
.edge:hover polygon { stroke: red; fill: red; }
]]></style>
<script type="text/javascript"><![CDATA[
var edges = document.getElementsByTagName('g');
if (edges && edges.length) {
  for (var i=0;i<edges.length;i++) {
    if (edges[i].id.substr(0,4)=='edge') {
      edges[i].setAttribute('class','edge');
    }
  }
}
]]></script>
        <defs>
                <circle id="rim" cx="0" cy="0" r="7"/>
                <circle id="rim2" cx="0" cy="0" r="3.5"/>
                <g id="zoomPlus">
                        <use xlink:href="#rim" fill="#404040">
                                <set attributeName="fill" to="#808080" begin="zoomplus.mouseover" end="zoomplus.mouseout"/>
                        </use>
                        <path d="M-4,0h8M0,-4v8" fill="none" stroke="white" stroke-width="1.5" pointer-events="none"/>
                </g>
                <g id="zoomMin">
                        <use xlink:href="#rim" fill="#404040">
                                <set attributeName="fill" to="#808080" begin="zoomminus.mouseover" end="zoomminus.mouseout"/>
                        </use>
                        <path d="M-4,0h8" fill="none" stroke="white" stroke-width="1.5" pointer-events="none"/>
                </g>
                <g id="dirArrow">
                        <path fill="none" stroke="white" stroke-width="1.5" d="M0,-3.0v7 M-2.5,-0.5L0,-3.0L2.5,-0.5"/>
                </g>
               <g id="resetDef">
                       <use xlink:href="#rim2" fill="#404040">
                               <set attributeName="fill" to="#808080" begin="reset.mouseover" end="reset.mouseout"/>
                       </use>
               </g>
        </defs>

<script type="text/javascript">
var viewWidth = 1190;
var viewHeight = 845;
var sectionId = 'dynsection-0';
</script>
<script xlink:href="svgpan.js"/>
<svg id="graph" class="graph">
<g id="viewport">
<title>RssiCoreTb</title>
<polygon fill="white" stroke="transparent" points="-4,4 -4,-840.69 1186,-840.69 1186,4 -4,4"/>
<!-- Node1 -->
<g id="node1" class="node">
<title>Node1</title>
<g id="a_node1"><a xlink:title=" ">
<polygon fill="#bfbfbf" stroke="black" points="1111,-494.5 1111,-513.5 1182,-513.5 1182,-494.5 1111,-494.5"/>
<text text-anchor="middle" x="1146.5" y="-501.5" font-family="Helvetica,sans-Serif" font-size="10.00">RssiCoreTb</text>
</a>
</g>
</g>
<!-- Node2 -->
<g id="node2" class="node">
<title>Node2</title>
<g id="a_node2"><a xlink:href="classClkRst.html" target="_top" xlink:title=" ">
<polygon fill="white" stroke="black" points="994,-551.5 994,-570.5 1042,-570.5 1042,-551.5 994,-551.5"/>
<text text-anchor="middle" x="1018" y="-558.5" font-family="Helvetica,sans-Serif" font-size="10.00">ClkRst</text>
</a>
</g>
</g>
<!-- Node2&#45;&gt;Node1 -->
<g id="edge1" class="edge">
<title>Node2&#45;&gt;Node1</title>
<path fill="none" stroke="midnightblue" d="M1051.96,-550.84C1059.62,-548.2 1067.67,-545.19 1075,-542 1094.38,-533.56 1115.6,-521.75 1129.64,-513.54"/>
<polygon fill="midnightblue" stroke="midnightblue" points="1050.6,-547.61 1042.22,-554.09 1052.81,-554.25 1050.6,-547.61"/>
</g>
<!-- Node3 -->
<g id="node3" class="node">
<title>Node3</title>
<g id="a_node3"><a xlink:href="classAxiLiteCrossbar.html" target="_top" xlink:title=" ">
<polygon fill="white" stroke="black" points="971.5,-513.5 971.5,-532.5 1064.5,-532.5 1064.5,-513.5 971.5,-513.5"/>
<text text-anchor="middle" x="1018" y="-520.5" font-family="Helvetica,sans-Serif" font-size="10.00">AxiLiteCrossbar</text>
</a>
</g>
</g>
<!-- Node3&#45;&gt;Node1 -->
<g id="edge2" class="edge">
<title>Node3&#45;&gt;Node1</title>
<path fill="none" stroke="midnightblue" d="M1074.78,-514.62C1086.96,-512.79 1099.53,-510.91 1110.62,-509.24"/>
<polygon fill="midnightblue" stroke="midnightblue" points="1074.04,-511.19 1064.67,-516.14 1075.08,-518.12 1074.04,-511.19"/>
</g>
<!-- Node4 -->
<g id="node4" class="node">
<title>Node4</title>
<g id="a_node4"><a xlink:href="classSrpV3AxiLite.html" target="_top" xlink:title=" ">
<polygon fill="white" stroke="black" points="978.5,-475.5 978.5,-494.5 1057.5,-494.5 1057.5,-475.5 978.5,-475.5"/>
<text text-anchor="middle" x="1018" y="-482.5" font-family="Helvetica,sans-Serif" font-size="10.00">SrpV3AxiLite</text>
</a>
</g>
</g>
<!-- Node4&#45;&gt;Node1 -->
<g id="edge3" class="edge">
<title>Node4&#45;&gt;Node1</title>
<path fill="none" stroke="midnightblue" d="M1067.88,-492.34C1082.26,-494.5 1097.68,-496.82 1110.96,-498.81"/>
<polygon fill="midnightblue" stroke="midnightblue" points="1068.05,-488.83 1057.64,-490.8 1067.01,-495.75 1068.05,-488.83"/>
</g>
<!-- Node5 -->
<g id="node5" class="node">
<title>Node5</title>
<g id="a_node5"><a xlink:href="classSsiFrameLimiter.html" target="_top" xlink:title=" ">
<polygon fill="white" stroke="black" points="808.5,-741.5 808.5,-760.5 904.5,-760.5 904.5,-741.5 808.5,-741.5"/>
<text text-anchor="middle" x="856.5" y="-748.5" font-family="Helvetica,sans-Serif" font-size="10.00">SsiFrameLimiter</text>
</a>
</g>
</g>
<!-- Node5&#45;&gt;Node4 -->
<g id="edge4" class="edge">
<title>Node5&#45;&gt;Node4</title>
<path fill="none" stroke="midnightblue" d="M860.17,-731.44C867.5,-685.18 892.21,-568.16 961,-504 965.96,-499.38 972.08,-495.88 978.44,-493.23"/>
<polygon fill="midnightblue" stroke="midnightblue" points="856.7,-730.96 858.69,-741.36 863.63,-731.99 856.7,-730.96"/>
</g>
<!-- Node6 -->
<g id="node6" class="node">
<title>Node6</title>
<g id="a_node6"><a xlink:href="classAxiStreamResize.html" target="_top" xlink:title=" ">
<polygon fill="white" stroke="black" points="434,-665.5 434,-684.5 534,-684.5 534,-665.5 434,-665.5"/>
<text text-anchor="middle" x="484" y="-672.5" font-family="Helvetica,sans-Serif" font-size="10.00">AxiStreamResize</text>
</a>
</g>
</g>
<!-- Node6&#45;&gt;Node5 -->
<g id="edge5" class="edge">
<title>Node6&#45;&gt;Node5</title>
<path fill="none" stroke="midnightblue" d="M523.75,-688.31C531.31,-691.44 539.05,-695.04 546,-699 563.61,-709.04 563.13,-719.59 582,-727 656.98,-756.45 752.15,-757.48 808.19,-754.77"/>
<polygon fill="midnightblue" stroke="midnightblue" points="524.92,-685.01 514.33,-684.6 522.35,-691.52 524.92,-685.01"/>
</g>
<!-- Node7 -->
<g id="node7" class="node">
<title>Node7</title>
<g id="a_node7"><a xlink:href="classAxiStreamPipeline.html" target="_top" xlink:title=" ">
<polygon fill="white" stroke="black" points="267.5,-627.5 267.5,-646.5 374.5,-646.5 374.5,-627.5 267.5,-627.5"/>
<text text-anchor="middle" x="321" y="-634.5" font-family="Helvetica,sans-Serif" font-size="10.00">AxiStreamPipeline</text>
</a>
</g>
</g>
<!-- Node7&#45;&gt;Node6 -->
<g id="edge6" class="edge">
<title>Node7&#45;&gt;Node6</title>
<path fill="none" stroke="midnightblue" d="M372.4,-648.9C395.03,-654.24 421.37,-660.45 442.67,-665.48"/>
<polygon fill="midnightblue" stroke="midnightblue" points="373.16,-645.48 362.63,-646.59 371.56,-652.29 373.16,-645.48"/>
</g>
<!-- Node8 -->
<g id="node8" class="node">
<title>Node8</title>
<g id="a_node8"><a xlink:href="classAxiStreamFifoV2.html" target="_top" xlink:title=" ">
<polygon fill="white" stroke="black" points="611,-779.5 611,-798.5 723,-798.5 723,-779.5 611,-779.5"/>
<text text-anchor="middle" x="667" y="-786.5" font-family="Helvetica,sans-Serif" font-size="10.00">AxiStreamFifoV2(2)</text>
</a>
</g>
</g>
<!-- Node7&#45;&gt;Node8 -->
<g id="edge17" class="edge">
<title>Node7&#45;&gt;Node8</title>
<path fill="none" stroke="midnightblue" d="M346.82,-651.98C371.32,-666.62 407.2,-687.61 422,-694 474.92,-716.86 493.68,-707.82 546,-732 563.23,-739.97 565.13,-746.29 582,-755 600.31,-764.45 621.88,-773.14 638.58,-779.36"/>
<polygon fill="midnightblue" stroke="midnightblue" points="348.43,-648.87 338.05,-646.73 344.83,-654.87 348.43,-648.87"/>
</g>
<!-- Node9 -->
<g id="node9" class="node">
<title>Node9</title>
<g id="a_node9"><a xlink:href="classAxiStreamResize.html" target="_top" xlink:title=" ">
<polygon fill="white" stroke="black" points="427.5,-627.5 427.5,-646.5 540.5,-646.5 540.5,-627.5 427.5,-627.5"/>
<text text-anchor="middle" x="484" y="-634.5" font-family="Helvetica,sans-Serif" font-size="10.00">AxiStreamResize(2)</text>
</a>
</g>
</g>
<!-- Node7&#45;&gt;Node9 -->
<g id="edge9" class="edge">
<title>Node7&#45;&gt;Node9</title>
<path fill="none" stroke="midnightblue" d="M384.79,-637C398.85,-637 413.66,-637 427.4,-637"/>
<polygon fill="midnightblue" stroke="midnightblue" points="384.72,-633.5 374.72,-637 384.72,-640.5 384.72,-633.5"/>
</g>
<!-- Node28 -->
<g id="node21" class="node">
<title>Node28</title>
<g id="a_node21"><a xlink:href="classAxiStreamMux.html" target="_top" xlink:title=" ">
<polygon fill="white" stroke="black" points="812,-190.5 812,-209.5 901,-209.5 901,-190.5 812,-190.5"/>
<text text-anchor="middle" x="856.5" y="-197.5" font-family="Helvetica,sans-Serif" font-size="10.00">AxiStreamMux</text>
</a>
</g>
</g>
<!-- Node7&#45;&gt;Node28 -->
<g id="edge27" class="edge">
<title>Node7&#45;&gt;Node28</title>
<path fill="none" stroke="midnightblue" d="M336.08,-619.52C381,-564.13 521.56,-393.95 582,-357 648.98,-316.04 684.79,-349.58 752,-309 796.45,-282.16 834.34,-231.18 849,-209.81"/>
<polygon fill="midnightblue" stroke="midnightblue" points="333.28,-617.41 329.71,-627.39 338.72,-621.82 333.28,-617.41"/>
</g>
<!-- Node60 -->
<g id="node49" class="node">
<title>Node60</title>
<g id="a_node49"><a xlink:href="classAxiStreamDeMux.html" target="_top" xlink:title=" ">
<polygon fill="white" stroke="black" points="805.5,-152.5 805.5,-171.5 907.5,-171.5 907.5,-152.5 805.5,-152.5"/>
<text text-anchor="middle" x="856.5" y="-159.5" font-family="Helvetica,sans-Serif" font-size="10.00">AxiStreamDeMux</text>
</a>
</g>
</g>
<!-- Node7&#45;&gt;Node60 -->
<g id="edge68" class="edge">
<title>Node7&#45;&gt;Node60</title>
<path fill="none" stroke="midnightblue" d="M323.92,-617.08C329.59,-569.48 350.66,-448.41 422,-385 464.63,-347.12 497.89,-382.63 546,-352 567.03,-338.61 560.53,-321.66 582,-309 648.3,-269.91 693.14,-325.59 752,-276 786.53,-246.91 754.7,-211.49 788,-181 793.03,-176.4 799.09,-172.9 805.48,-170.24"/>
<polygon fill="midnightblue" stroke="midnightblue" points="320.41,-616.96 322.81,-627.28 327.37,-617.72 320.41,-616.96"/>
</g>
<!-- Node8&#45;&gt;Node4 -->
<g id="edge18" class="edge">
<title>Node8&#45;&gt;Node4</title>
<path fill="none" stroke="midnightblue" d="M712.25,-800.71C769.36,-812.89 868.14,-823.51 925,-770 1011.88,-688.24 885.14,-596.08 961,-504 965.5,-498.53 971.65,-494.63 978.22,-491.85"/>
<polygon fill="midnightblue" stroke="midnightblue" points="712.95,-797.28 702.43,-798.52 711.42,-804.11 712.95,-797.28"/>
</g>
<!-- Node8&#45;&gt;Node5 -->
<g id="edge7" class="edge">
<title>Node8&#45;&gt;Node5</title>
<path fill="none" stroke="midnightblue" d="M725.28,-777.39C751.95,-771.99 783.28,-765.64 808.53,-760.52"/>
<polygon fill="midnightblue" stroke="midnightblue" points="724.42,-773.99 715.31,-779.41 725.81,-780.85 724.42,-773.99"/>
</g>
<!-- Node37 -->
<g id="node30" class="node">
<title>Node37</title>
<g id="a_node30"><a xlink:href="classRssiCore.html" target="_top" xlink:title=" ">
<polygon fill="white" stroke="black" points="827,-513.5 827,-532.5 886,-532.5 886,-513.5 827,-513.5"/>
<text text-anchor="middle" x="856.5" y="-520.5" font-family="Helvetica,sans-Serif" font-size="10.00">RssiCore</text>
</a>
</g>
</g>
<!-- Node8&#45;&gt;Node37 -->
<g id="edge53" class="edge">
<title>Node8&#45;&gt;Node37</title>
<path fill="none" stroke="midnightblue" d="M694.48,-773.99C712.43,-762.81 735.75,-746.21 752,-727 806.64,-662.42 842.01,-564.08 852.35,-532.87"/>
<polygon fill="midnightblue" stroke="midnightblue" points="692.4,-771.16 685.65,-779.33 696.02,-777.15 692.4,-771.16"/>
</g>
<!-- Node9&#45;&gt;Node8 -->
<g id="edge8" class="edge">
<title>Node9&#45;&gt;Node8</title>
<path fill="none" stroke="midnightblue" d="M539.59,-651.36C541.85,-652.77 544,-654.31 546,-656 573.02,-678.84 559.15,-699.99 582,-727 601.08,-749.56 629.92,-768.52 648.35,-779.33"/>
<polygon fill="midnightblue" stroke="midnightblue" points="540.94,-648.12 530.46,-646.6 537.7,-654.33 540.94,-648.12"/>
</g>
<!-- Node27 -->
<g id="node20" class="node">
<title>Node27</title>
<g id="a_node20"><a xlink:href="classRssiCoreWrapper.html" target="_top" xlink:title=" ">
<polygon fill="white" stroke="black" points="961,-152.5 961,-171.5 1075,-171.5 1075,-152.5 961,-152.5"/>
<text text-anchor="middle" x="1018" y="-159.5" font-family="Helvetica,sans-Serif" font-size="10.00">RssiCoreWrapper(2)</text>
</a>
</g>
</g>
<!-- Node9&#45;&gt;Node27 -->
<g id="edge25" class="edge">
<title>Node9&#45;&gt;Node27</title>
<path fill="none" stroke="midnightblue" d="M491.39,-617.86C509.97,-562.65 563.81,-406.02 582,-390 640.48,-338.48 681.11,-379.39 752,-347 860.7,-297.33 971.97,-202.24 1006.28,-171.7"/>
<polygon fill="midnightblue" stroke="midnightblue" points="488.02,-616.88 488.16,-627.48 494.66,-619.11 488.02,-616.88"/>
</g>
<!-- Node9&#45;&gt;Node37 -->
<g id="edge44" class="edge">
<title>Node9&#45;&gt;Node37</title>
<path fill="none" stroke="midnightblue" d="M535.35,-650.36C539.06,-652.04 542.65,-653.92 546,-656 565.75,-668.3 560.63,-684.81 582,-694 651.41,-723.85 686.18,-731.1 752,-694 816.39,-657.71 845.28,-563.43 853.17,-532.78"/>
<polygon fill="midnightblue" stroke="midnightblue" points="536.56,-647.08 525.98,-646.58 533.94,-653.57 536.56,-647.08"/>
</g>
<!-- Node10 -->
<g id="node10" class="node">
<title>Node10</title>
<g id="a_node10"><a xlink:href="classFifoCascade.html" target="_top" xlink:title=" ">
<polygon fill="white" stroke="black" points="439.5,-741.5 439.5,-760.5 528.5,-760.5 528.5,-741.5 439.5,-741.5"/>
<text text-anchor="middle" x="484" y="-748.5" font-family="Helvetica,sans-Serif" font-size="10.00">FifoCascade(2)</text>
</a>
</g>
</g>
<!-- Node10&#45;&gt;Node8 -->
<g id="edge10" class="edge">
<title>Node10&#45;&gt;Node8</title>
<path fill="none" stroke="midnightblue" d="M538.91,-762.32C564.96,-767.79 595.88,-774.28 620.7,-779.49"/>
<polygon fill="midnightblue" stroke="midnightblue" points="539.32,-758.83 528.82,-760.2 537.88,-765.68 539.32,-758.83"/>
</g>
<!-- Node11 -->
<g id="node11" class="node">
<title>Node11</title>
<g id="a_node11"><a xlink:href="classFifo.html" target="_top" xlink:title=" ">
<polygon fill="white" stroke="black" points="297,-684.5 297,-703.5 345,-703.5 345,-684.5 297,-684.5"/>
<text text-anchor="middle" x="321" y="-691.5" font-family="Helvetica,sans-Serif" font-size="10.00">Fifo(4)</text>
</a>
</g>
</g>
<!-- Node11&#45;&gt;Node10 -->
<g id="edge11" class="edge">
<title>Node11&#45;&gt;Node10</title>
<path fill="none" stroke="midnightblue" d="M354.61,-705.54C384.42,-716.1 428.01,-731.53 455.94,-741.42"/>
<polygon fill="midnightblue" stroke="midnightblue" points="355.66,-702.2 345.07,-702.17 353.33,-708.8 355.66,-702.2"/>
</g>
<!-- Node12 -->
<g id="node12" class="node">
<title>Node12</title>
<g id="a_node12"><a xlink:href="classFifoXpm.html" target="_top" xlink:title=" ">
<polygon fill="white" stroke="red" points="139.5,-722.5 139.5,-741.5 196.5,-741.5 196.5,-722.5 139.5,-722.5"/>
<text text-anchor="middle" x="168" y="-729.5" font-family="Helvetica,sans-Serif" font-size="10.00">FifoXpm</text>
</a>
</g>
</g>
<!-- Node12&#45;&gt;Node11 -->
<g id="edge12" class="edge">
<title>Node12&#45;&gt;Node11</title>
<path fill="none" stroke="midnightblue" d="M206.66,-722.52C235,-715.39 272.94,-705.84 296.93,-699.81"/>
<polygon fill="midnightblue" stroke="midnightblue" points="205.54,-719.2 196.7,-725.03 207.25,-725.98 205.54,-719.2"/>
</g>
<!-- Node14 -->
<g id="node13" class="node">
<title>Node14</title>
<g id="a_node13"><a xlink:href="classFifoAlteraMf.html" target="_top" xlink:title=" ">
<polygon fill="white" stroke="red" points="129.5,-684.5 129.5,-703.5 206.5,-703.5 206.5,-684.5 129.5,-684.5"/>
<text text-anchor="middle" x="168" y="-691.5" font-family="Helvetica,sans-Serif" font-size="10.00">FifoAlteraMf</text>
</a>
</g>
</g>
<!-- Node14&#45;&gt;Node11 -->
<g id="edge13" class="edge">
<title>Node14&#45;&gt;Node11</title>
<path fill="none" stroke="midnightblue" d="M217.02,-694C243.7,-694 275.67,-694 296.84,-694"/>
<polygon fill="midnightblue" stroke="midnightblue" points="216.71,-690.5 206.71,-694 216.71,-697.5 216.71,-690.5"/>
</g>
<!-- Node15 -->
<g id="node14" class="node">
<title>Node15</title>
<g id="a_node14"><a xlink:href="classFifoAsync.html" target="_top" xlink:title=" ">
<polygon fill="white" stroke="red" points="136,-428.5 136,-447.5 200,-447.5 200,-428.5 136,-428.5"/>
<text text-anchor="middle" x="168" y="-435.5" font-family="Helvetica,sans-Serif" font-size="10.00">FifoAsync</text>
</a>
</g>
</g>
<!-- Node15&#45;&gt;Node11 -->
<g id="edge14" class="edge">
<title>Node15&#45;&gt;Node11</title>
<path fill="none" stroke="midnightblue" d="M172.43,-457.71C180.45,-498.84 203.85,-595 256,-656 267,-668.87 283.5,-678.52 296.99,-684.87"/>
<polygon fill="midnightblue" stroke="midnightblue" points="175.87,-457.05 170.6,-447.86 168.98,-458.33 175.87,-457.05"/>
</g>
<!-- Node40 -->
<g id="node33" class="node">
<title>Node40</title>
<g id="a_node33"><a xlink:href="classSynchronizerFifo.html" target="_top" xlink:title=" ">
<polygon fill="white" stroke="black" points="428.5,-247.5 428.5,-266.5 539.5,-266.5 539.5,-247.5 428.5,-247.5"/>
<text text-anchor="middle" x="484" y="-254.5" font-family="Helvetica,sans-Serif" font-size="10.00">SynchronizerFifo(4)</text>
</a>
</g>
</g>
<!-- Node15&#45;&gt;Node40 -->
<g id="edge41" class="edge">
<title>Node15&#45;&gt;Node40</title>
<path fill="none" stroke="midnightblue" d="M173.2,-418.11C181.83,-382.7 205.18,-309.35 256,-276 307.08,-242.48 379.19,-242.5 428.33,-247.78"/>
<polygon fill="midnightblue" stroke="midnightblue" points="169.72,-417.64 170.9,-428.17 176.54,-419.2 169.72,-417.64"/>
</g>
<!-- Node23 -->
<g id="node15" class="node">
<title>Node23</title>
<g id="a_node15"><a xlink:href="classFifoSync.html" target="_top" xlink:title=" ">
<polygon fill="white" stroke="red" points="139,-646.5 139,-665.5 197,-665.5 197,-646.5 139,-646.5"/>
<text text-anchor="middle" x="168" y="-653.5" font-family="Helvetica,sans-Serif" font-size="10.00">FifoSync</text>
</a>
</g>
</g>
<!-- Node23&#45;&gt;Node11 -->
<g id="edge15" class="edge">
<title>Node23&#45;&gt;Node11</title>
<path fill="none" stroke="midnightblue" d="M206.96,-665.55C235.12,-672.64 272.64,-682.08 296.56,-688.1"/>
<polygon fill="midnightblue" stroke="midnightblue" points="207.6,-662.1 197.05,-663.06 205.89,-668.89 207.6,-662.1"/>
</g>
<!-- Node17 -->
<g id="node16" class="node">
<title>Node17</title>
<g id="a_node16"><a xlink:href="classSynchronizer.html" target="_top" xlink:title=" ">
<polygon fill="white" stroke="red" points="0,-228.5 0,-247.5 80,-247.5 80,-228.5 0,-228.5"/>
<text text-anchor="middle" x="40" y="-235.5" font-family="Helvetica,sans-Serif" font-size="10.00">Synchronizer</text>
</a>
</g>
</g>
<!-- Node17&#45;&gt;Node8 -->
<g id="edge16" class="edge">
<title>Node17&#45;&gt;Node8</title>
<path fill="none" stroke="midnightblue" d="M40.75,-257.7C40.11,-343.42 42.3,-682.72 116,-751 264.32,-888.42 542.37,-824.92 635.05,-798.52"/>
<polygon fill="midnightblue" stroke="midnightblue" points="44.25,-257.57 40.85,-247.54 37.25,-257.5 44.25,-257.57"/>
</g>
<!-- Node25 -->
<g id="node18" class="node">
<title>Node25</title>
<g id="a_node18"><a xlink:href="classRstSync.html" target="_top" xlink:title=" ">
<polygon fill="white" stroke="black" points="140,-190.5 140,-209.5 196,-209.5 196,-190.5 140,-190.5"/>
<text text-anchor="middle" x="168" y="-197.5" font-family="Helvetica,sans-Serif" font-size="10.00">RstSync</text>
</a>
</g>
</g>
<!-- Node17&#45;&gt;Node25 -->
<g id="edge21" class="edge">
<title>Node17&#45;&gt;Node25</title>
<path fill="none" stroke="midnightblue" d="M82.37,-225.52C101.28,-219.82 123.14,-213.23 139.91,-208.17"/>
<polygon fill="midnightblue" stroke="midnightblue" points="81.36,-222.17 72.8,-228.41 83.38,-228.87 81.36,-222.17"/>
</g>
<!-- Node26 -->
<g id="node19" class="node">
<title>Node26</title>
<g id="a_node19"><a xlink:href="classSynchronizerEdge.html" target="_top" xlink:title=" ">
<polygon fill="white" stroke="black" points="116,-228.5 116,-247.5 220,-247.5 220,-228.5 116,-228.5"/>
<text text-anchor="middle" x="168" y="-235.5" font-family="Helvetica,sans-Serif" font-size="10.00">SynchronizerEdge</text>
</a>
</g>
</g>
<!-- Node17&#45;&gt;Node26 -->
<g id="edge23" class="edge">
<title>Node17&#45;&gt;Node26</title>
<path fill="none" stroke="midnightblue" d="M90.21,-238C98.6,-238 107.34,-238 115.79,-238"/>
<polygon fill="midnightblue" stroke="midnightblue" points="90.18,-234.5 80.18,-238 90.18,-241.5 90.18,-234.5"/>
</g>
<!-- Node24 -->
<g id="node17" class="node">
<title>Node24</title>
<g id="a_node17"><a xlink:href="classSynchronizerOneShot.html" target="_top" xlink:title=" ">
<polygon fill="white" stroke="red" points="260.5,-190.5 260.5,-209.5 381.5,-209.5 381.5,-190.5 260.5,-190.5"/>
<text text-anchor="middle" x="321" y="-197.5" font-family="Helvetica,sans-Serif" font-size="10.00">SynchronizerOneShot</text>
</a>
</g>
</g>
<!-- Node24&#45;&gt;Node4 -->
<g id="edge19" class="edge">
<title>Node24&#45;&gt;Node4</title>
<path fill="none" stroke="midnightblue" d="M350.2,-186.12C369.81,-177.27 396.84,-166.62 422,-162 476.21,-152.05 491.12,-156.98 546,-162 638.71,-170.48 670.39,-155.2 752,-200 883.78,-272.35 986.67,-434.22 1011.34,-475.35"/>
<polygon fill="midnightblue" stroke="midnightblue" points="348.54,-183.03 340.94,-190.42 351.49,-189.38 348.54,-183.03"/>
</g>
<!-- Node52 -->
<g id="node45" class="node">
<title>Node52</title>
<g id="a_node45"><a xlink:href="classSyncTrigRate.html" target="_top" xlink:title=" ">
<polygon fill="white" stroke="red" points="444,-209.5 444,-228.5 524,-228.5 524,-209.5 444,-209.5"/>
<text text-anchor="middle" x="484" y="-216.5" font-family="Helvetica,sans-Serif" font-size="10.00">SyncTrigRate</text>
</a>
</g>
</g>
<!-- Node24&#45;&gt;Node52 -->
<g id="edge56" class="edge">
<title>Node24&#45;&gt;Node52</title>
<path fill="none" stroke="midnightblue" d="M392.2,-208.28C409.78,-210.36 428.03,-212.51 443.52,-214.34"/>
<polygon fill="midnightblue" stroke="midnightblue" points="392.29,-204.77 381.95,-207.07 391.47,-211.72 392.29,-204.77"/>
</g>
<!-- Node57 -->
<g id="node46" class="node">
<title>Node57</title>
<g id="a_node46"><a xlink:href="classSyncMinMax.html" target="_top" xlink:title=" ">
<polygon fill="white" stroke="red" points="438,-171.5 438,-190.5 530,-190.5 530,-171.5 438,-171.5"/>
<text text-anchor="middle" x="484" y="-178.5" font-family="Helvetica,sans-Serif" font-size="10.00">SyncMinMax(2)</text>
</a>
</g>
</g>
<!-- Node24&#45;&gt;Node57 -->
<g id="edge59" class="edge">
<title>Node24&#45;&gt;Node57</title>
<path fill="none" stroke="midnightblue" d="M392.05,-191.73C407.58,-189.9 423.63,-188.01 437.85,-186.33"/>
<polygon fill="midnightblue" stroke="midnightblue" points="391.47,-188.28 381.95,-192.93 392.29,-195.23 391.47,-188.28"/>
</g>
<!-- Node25&#45;&gt;Node24 -->
<g id="edge20" class="edge">
<title>Node25&#45;&gt;Node24</title>
<path fill="none" stroke="midnightblue" d="M206.52,-200C222.76,-200 242.18,-200 260.32,-200"/>
<polygon fill="midnightblue" stroke="midnightblue" points="206.34,-196.5 196.34,-200 206.34,-203.5 206.34,-196.5"/>
</g>
<!-- Node26&#45;&gt;Node24 -->
<g id="edge22" class="edge">
<title>Node26&#45;&gt;Node24</title>
<path fill="none" stroke="midnightblue" d="M216.84,-225.96C237.94,-220.65 262.38,-214.5 282.17,-209.52"/>
<polygon fill="midnightblue" stroke="midnightblue" points="215.95,-222.58 207.1,-228.41 217.66,-229.36 215.95,-222.58"/>
</g>
<!-- Node27&#45;&gt;Node1 -->
<g id="edge24" class="edge">
<title>Node27&#45;&gt;Node1</title>
<path fill="none" stroke="midnightblue" d="M1026.05,-181.07C1049.56,-244.61 1124.68,-447.72 1141.94,-494.38"/>
<polygon fill="midnightblue" stroke="midnightblue" points="1029.27,-179.67 1022.52,-171.5 1022.7,-182.1 1029.27,-179.67"/>
</g>
<!-- Node28&#45;&gt;Node27 -->
<g id="edge26" class="edge">
<title>Node28&#45;&gt;Node27</title>
<path fill="none" stroke="midnightblue" d="M907.73,-188.03C930.09,-182.71 956.04,-176.52 977.04,-171.52"/>
<polygon fill="midnightblue" stroke="midnightblue" points="906.67,-184.69 897.75,-190.41 908.29,-191.5 906.67,-184.69"/>
</g>
<!-- Node29 -->
<g id="node22" class="node">
<title>Node29</title>
<g id="a_node22"><a xlink:href="classAxiStreamPacketizer.html" target="_top" xlink:title=" ">
<polygon fill="white" stroke="black" points="798,-0.5 798,-19.5 915,-19.5 915,-0.5 798,-0.5"/>
<text text-anchor="middle" x="856.5" y="-7.5" font-family="Helvetica,sans-Serif" font-size="10.00">AxiStreamPacketizer</text>
</a>
</g>
</g>
<!-- Node29&#45;&gt;Node27 -->
<g id="edge28" class="edge">
<title>Node29&#45;&gt;Node27</title>
<path fill="none" stroke="midnightblue" d="M916.32,-23.74C919.36,-25.31 922.28,-27.05 925,-29 971.84,-62.44 1002.66,-127.61 1013.08,-152.25"/>
<polygon fill="midnightblue" stroke="midnightblue" points="917.47,-20.42 906.91,-19.55 914.62,-26.82 917.47,-20.42"/>
</g>
<!-- Node30 -->
<g id="node23" class="node">
<title>Node30</title>
<g id="a_node23"><a xlink:href="classAxiStreamPipeline.html" target="_top" xlink:title=" ">
<polygon fill="white" stroke="black" points="607,-19.5 607,-38.5 727,-38.5 727,-19.5 607,-19.5"/>
<text text-anchor="middle" x="667" y="-26.5" font-family="Helvetica,sans-Serif" font-size="10.00">AxiStreamPipeline(2)</text>
</a>
</g>
</g>
<!-- Node30&#45;&gt;Node29 -->
<g id="edge29" class="edge">
<title>Node30&#45;&gt;Node29</title>
<path fill="none" stroke="midnightblue" d="M737.02,-22.01C756.96,-19.99 778.51,-17.8 797.69,-15.86"/>
<polygon fill="midnightblue" stroke="midnightblue" points="736.66,-18.52 727.07,-23.01 737.37,-25.49 736.66,-18.52"/>
</g>
<!-- Node31 -->
<g id="node24" class="node">
<title>Node31</title>
<g id="a_node24"><a xlink:href="classAxiStreamPacketizer2.html" target="_top" xlink:title=" ">
<polygon fill="white" stroke="black" points="795,-114.5 795,-133.5 918,-133.5 918,-114.5 795,-114.5"/>
<text text-anchor="middle" x="856.5" y="-121.5" font-family="Helvetica,sans-Serif" font-size="10.00">AxiStreamPacketizer2</text>
</a>
</g>
</g>
<!-- Node30&#45;&gt;Node31 -->
<g id="edge31" class="edge">
<title>Node30&#45;&gt;Node31</title>
<path fill="none" stroke="midnightblue" d="M737.11,-39.83C742.38,-42.07 747.42,-44.77 752,-48 776.47,-65.29 763.98,-87.08 788,-105 793.17,-108.86 799.1,-111.93 805.24,-114.38"/>
<polygon fill="midnightblue" stroke="midnightblue" points="738.03,-36.43 727.43,-36.26 735.6,-43 738.03,-36.43"/>
</g>
<!-- Node58 -->
<g id="node47" class="node">
<title>Node58</title>
<g id="a_node47"><a xlink:href="classAxiStreamDepacketizer.html" target="_top" xlink:title=" ">
<polygon fill="white" stroke="black" points="791,-38.5 791,-57.5 922,-57.5 922,-38.5 791,-38.5"/>
<text text-anchor="middle" x="856.5" y="-45.5" font-family="Helvetica,sans-Serif" font-size="10.00">AxiStreamDepacketizer</text>
</a>
</g>
</g>
<!-- Node30&#45;&gt;Node58 -->
<g id="edge61" class="edge">
<title>Node30&#45;&gt;Node58</title>
<path fill="none" stroke="midnightblue" d="M737.24,-36.02C754.78,-37.79 773.56,-39.7 790.87,-41.45"/>
<polygon fill="midnightblue" stroke="midnightblue" points="737.37,-32.51 727.07,-34.99 736.66,-39.48 737.37,-32.51"/>
</g>
<!-- Node59 -->
<g id="node48" class="node">
<title>Node59</title>
<g id="a_node48"><a xlink:href="classAxiStreamDepacketizer2.html" target="_top" xlink:title=" ">
<polygon fill="white" stroke="black" points="788,-76.5 788,-95.5 925,-95.5 925,-76.5 788,-76.5"/>
<text text-anchor="middle" x="856.5" y="-83.5" font-family="Helvetica,sans-Serif" font-size="10.00">AxiStreamDepacketizer2</text>
</a>
</g>
</g>
<!-- Node30&#45;&gt;Node59 -->
<g id="edge63" class="edge">
<title>Node30&#45;&gt;Node59</title>
<path fill="none" stroke="midnightblue" d="M729.99,-41.07C737.49,-43.1 744.98,-45.4 752,-48 768.97,-54.27 771.2,-60.29 788,-67 796.93,-70.57 806.78,-73.74 816.13,-76.43"/>
<polygon fill="midnightblue" stroke="midnightblue" points="730.71,-37.64 720.15,-38.55 728.98,-44.42 730.71,-37.64"/>
</g>
<!-- Node31&#45;&gt;Node27 -->
<g id="edge30" class="edge">
<title>Node31&#45;&gt;Node27</title>
<path fill="none" stroke="midnightblue" d="M907.73,-135.97C930.09,-141.29 956.04,-147.48 977.04,-152.48"/>
<polygon fill="midnightblue" stroke="midnightblue" points="908.29,-132.5 897.75,-133.59 906.67,-139.31 908.29,-132.5"/>
</g>
<!-- Node32 -->
<g id="node25" class="node">
<title>Node32</title>
<g id="a_node25"><a xlink:href="classDualPortRam.html" target="_top" xlink:title=" ">
<polygon fill="white" stroke="black" points="626.5,-95.5 626.5,-114.5 707.5,-114.5 707.5,-95.5 626.5,-95.5"/>
<text text-anchor="middle" x="667" y="-102.5" font-family="Helvetica,sans-Serif" font-size="10.00">DualPortRam</text>
</a>
</g>
</g>
<!-- Node32&#45;&gt;Node31 -->
<g id="edge32" class="edge">
<title>Node32&#45;&gt;Node31</title>
<path fill="none" stroke="midnightblue" d="M717.9,-110.06C741.51,-112.45 769.9,-115.33 794.75,-117.84"/>
<polygon fill="midnightblue" stroke="midnightblue" points="718.07,-106.56 707.76,-109.03 717.36,-113.52 718.07,-106.56"/>
</g>
<!-- Node32&#45;&gt;Node59 -->
<g id="edge64" class="edge">
<title>Node32&#45;&gt;Node59</title>
<path fill="none" stroke="midnightblue" d="M717.93,-99.94C739.34,-97.77 764.68,-95.2 787.74,-92.87"/>
<polygon fill="midnightblue" stroke="midnightblue" points="717.36,-96.48 707.76,-100.97 718.07,-103.44 717.36,-96.48"/>
</g>
<!-- Node33 -->
<g id="node26" class="node">
<title>Node33</title>
<g id="a_node26"><a xlink:href="classTrueDualPortRam.html" target="_top" xlink:title=" ">
<polygon fill="white" stroke="black" points="433.5,-95.5 433.5,-114.5 534.5,-114.5 534.5,-95.5 433.5,-95.5"/>
<text text-anchor="middle" x="484" y="-102.5" font-family="Helvetica,sans-Serif" font-size="10.00">TrueDualPortRam</text>
</a>
</g>
</g>
<!-- Node33&#45;&gt;Node32 -->
<g id="edge33" class="edge">
<title>Node33&#45;&gt;Node32</title>
<path fill="none" stroke="midnightblue" d="M544.96,-105C571.68,-105 602.43,-105 626.25,-105"/>
<polygon fill="midnightblue" stroke="midnightblue" points="544.94,-101.5 534.94,-105 544.94,-108.5 544.94,-101.5"/>
</g>
<!-- Node34 -->
<g id="node27" class="node">
<title>Node34</title>
<g id="a_node27"><a xlink:href="classQuadPortRam.html" target="_top" xlink:title=" ">
<polygon fill="white" stroke="black" points="442,-57.5 442,-76.5 526,-76.5 526,-57.5 442,-57.5"/>
<text text-anchor="middle" x="484" y="-64.5" font-family="Helvetica,sans-Serif" font-size="10.00">QuadPortRam</text>
</a>
</g>
</g>
<!-- Node34&#45;&gt;Node32 -->
<g id="edge34" class="edge">
<title>Node34&#45;&gt;Node32</title>
<path fill="none" stroke="midnightblue" d="M535.9,-77.69C564.54,-83.7 599.76,-91.09 626.33,-96.67"/>
<polygon fill="midnightblue" stroke="midnightblue" points="536.58,-74.25 526.07,-75.62 535.14,-81.1 536.58,-74.25"/>
</g>
<!-- Node35 -->
<g id="node28" class="node">
<title>Node35</title>
<g id="a_node28"><a xlink:href="classCrc32Parallel.html" target="_top" xlink:title=" ">
<polygon fill="white" stroke="black" points="627,-57.5 627,-76.5 707,-76.5 707,-57.5 627,-57.5"/>
<text text-anchor="middle" x="667" y="-64.5" font-family="Helvetica,sans-Serif" font-size="10.00">Crc32Parallel</text>
</a>
</g>
</g>
<!-- Node35&#45;&gt;Node31 -->
<g id="edge35" class="edge">
<title>Node35&#45;&gt;Node31</title>
<path fill="none" stroke="midnightblue" d="M717.1,-75.83C728.71,-78.54 740.94,-81.91 752,-86 768.97,-92.27 771.2,-98.29 788,-105 796.93,-108.57 806.78,-111.74 816.13,-114.43"/>
<polygon fill="midnightblue" stroke="midnightblue" points="717.61,-72.36 707.09,-73.61 716.1,-79.19 717.61,-72.36"/>
</g>
<!-- Node35&#45;&gt;Node59 -->
<g id="edge65" class="edge">
<title>Node35&#45;&gt;Node59</title>
<path fill="none" stroke="midnightblue" d="M717.52,-72.02C739.03,-74.2 764.58,-76.79 787.81,-79.14"/>
<polygon fill="midnightblue" stroke="midnightblue" points="717.61,-68.51 707.31,-70.98 716.9,-75.47 717.61,-68.51"/>
</g>
<!-- Node36 -->
<g id="node29" class="node">
<title>Node36</title>
<g id="a_node29"><a xlink:href="classCrc32.html" target="_top" xlink:title=" ">
<polygon fill="white" stroke="black" points="645,-133.5 645,-152.5 689,-152.5 689,-133.5 645,-133.5"/>
<text text-anchor="middle" x="667" y="-140.5" font-family="Helvetica,sans-Serif" font-size="10.00">Crc32</text>
</a>
</g>
</g>
<!-- Node36&#45;&gt;Node31 -->
<g id="edge36" class="edge">
<title>Node36&#45;&gt;Node31</title>
<path fill="none" stroke="midnightblue" d="M699.16,-139.84C725.14,-137.21 762.92,-133.38 794.84,-130.15"/>
<polygon fill="midnightblue" stroke="midnightblue" points="698.74,-136.37 689.14,-140.86 699.45,-143.33 698.74,-136.37"/>
</g>
<!-- Node36&#45;&gt;Node59 -->
<g id="edge66" class="edge">
<title>Node36&#45;&gt;Node59</title>
<path fill="none" stroke="midnightblue" d="M699.12,-137.99C715.2,-134.89 734.97,-130.29 752,-124 768.97,-117.73 771.2,-111.71 788,-105 796.93,-101.43 806.78,-98.26 816.13,-95.57"/>
<polygon fill="midnightblue" stroke="midnightblue" points="698.36,-134.57 689.15,-139.8 699.62,-141.45 698.36,-134.57"/>
</g>
<!-- Node37&#45;&gt;Node27 -->
<g id="edge37" class="edge">
<title>Node37&#45;&gt;Node27</title>
<path fill="none" stroke="midnightblue" d="M867.18,-504.18C880.64,-477.79 905.57,-428.15 925,-385 961.63,-303.66 1000.99,-203.3 1013.19,-171.88"/>
<polygon fill="midnightblue" stroke="midnightblue" points="863.9,-502.9 862.46,-513.4 870.13,-506.09 863.9,-502.9"/>
</g>
<!-- Node38 -->
<g id="node31" class="node">
<title>Node38</title>
<g id="a_node31"><a xlink:href="classRssiAxiLiteRegItf.html" target="_top" xlink:title=" ">
<polygon fill="white" stroke="black" points="617,-247.5 617,-266.5 717,-266.5 717,-247.5 617,-247.5"/>
<text text-anchor="middle" x="667" y="-254.5" font-family="Helvetica,sans-Serif" font-size="10.00">RssiAxiLiteRegItf</text>
</a>
</g>
</g>
<!-- Node38&#45;&gt;Node37 -->
<g id="edge38" class="edge">
<title>Node38&#45;&gt;Node37</title>
<path fill="none" stroke="midnightblue" d="M680.7,-275.01C717.13,-326.7 821.19,-474.33 848.74,-513.41"/>
<polygon fill="midnightblue" stroke="midnightblue" points="683.52,-272.94 674.9,-266.78 677.8,-276.97 683.52,-272.94"/>
</g>
<!-- Node39 -->
<g id="node32" class="node">
<title>Node39</title>
<g id="a_node32"><a xlink:href="classSynchronizerVector.html" target="_top" xlink:title=" ">
<polygon fill="white" stroke="black" points="422,-323.5 422,-342.5 546,-342.5 546,-323.5 422,-323.5"/>
<text text-anchor="middle" x="484" y="-330.5" font-family="Helvetica,sans-Serif" font-size="10.00">SynchronizerVector(3)</text>
</a>
</g>
</g>
<!-- Node39&#45;&gt;Node38 -->
<g id="edge39" class="edge">
<title>Node39&#45;&gt;Node38</title>
<path fill="none" stroke="midnightblue" d="M534.34,-319.74C538.38,-318.02 542.32,-316.12 546,-314 564.82,-303.18 563.06,-291.6 582,-281 593.12,-274.78 605.98,-270.06 618.25,-266.52"/>
<polygon fill="midnightblue" stroke="midnightblue" points="532.88,-316.55 524.8,-323.39 535.39,-323.08 532.88,-316.55"/>
</g>
<!-- Node40&#45;&gt;Node38 -->
<g id="edge40" class="edge">
<title>Node40&#45;&gt;Node38</title>
<path fill="none" stroke="midnightblue" d="M550.08,-257C572.12,-257 596.34,-257 616.93,-257"/>
<polygon fill="midnightblue" stroke="midnightblue" points="549.8,-253.5 539.8,-257 549.8,-260.5 549.8,-253.5"/>
</g>
<!-- Node51 -->
<g id="node44" class="node">
<title>Node51</title>
<g id="a_node44"><a xlink:href="classAxiStreamMon.html" target="_top" xlink:title=" ">
<polygon fill="white" stroke="black" points="622.5,-209.5 622.5,-228.5 711.5,-228.5 711.5,-209.5 622.5,-209.5"/>
<text text-anchor="middle" x="667" y="-216.5" font-family="Helvetica,sans-Serif" font-size="10.00">AxiStreamMon</text>
</a>
</g>
</g>
<!-- Node40&#45;&gt;Node51 -->
<g id="edge57" class="edge">
<title>Node40&#45;&gt;Node51</title>
<path fill="none" stroke="midnightblue" d="M540.49,-245.35C566.74,-239.84 597.64,-233.35 622.21,-228.19"/>
<polygon fill="midnightblue" stroke="midnightblue" points="539.74,-241.93 530.67,-247.41 541.18,-248.78 539.74,-241.93"/>
</g>
<!-- Node41 -->
<g id="node34" class="node">
<title>Node41</title>
<g id="a_node34"><a xlink:href="classRssiParamSync.html" target="_top" xlink:title=" ">
<polygon fill="white" stroke="black" points="432,-285.5 432,-304.5 536,-304.5 536,-285.5 432,-285.5"/>
<text text-anchor="middle" x="484" y="-292.5" font-family="Helvetica,sans-Serif" font-size="10.00">RssiParamSync(2)</text>
</a>
</g>
</g>
<!-- Node41&#45;&gt;Node38 -->
<g id="edge42" class="edge">
<title>Node41&#45;&gt;Node38</title>
<path fill="none" stroke="midnightblue" d="M540.64,-283.32C566.31,-277.93 596.39,-271.61 620.65,-266.52"/>
<polygon fill="midnightblue" stroke="midnightblue" points="539.74,-279.93 530.67,-285.41 541.18,-286.78 539.74,-279.93"/>
</g>
<!-- Node42 -->
<g id="node35" class="node">
<title>Node42</title>
<g id="a_node35"><a xlink:href="classSynchronizerVector.html" target="_top" xlink:title=" ">
<polygon fill="white" stroke="black" points="256,-285.5 256,-304.5 386,-304.5 386,-285.5 256,-285.5"/>
<text text-anchor="middle" x="321" y="-292.5" font-family="Helvetica,sans-Serif" font-size="10.00">SynchronizerVector(12)</text>
</a>
</g>
</g>
<!-- Node42&#45;&gt;Node41 -->
<g id="edge43" class="edge">
<title>Node42&#45;&gt;Node41</title>
<path fill="none" stroke="midnightblue" d="M396.14,-295C408.19,-295 420.42,-295 431.76,-295"/>
<polygon fill="midnightblue" stroke="midnightblue" points="396.09,-291.5 386.09,-295 396.09,-298.5 396.09,-291.5"/>
</g>
<!-- Node43 -->
<g id="node36" class="node">
<title>Node43</title>
<g id="a_node36"><a xlink:href="classRssiConnFsm.html" target="_top" xlink:title=" ">
<polygon fill="white" stroke="black" points="625.5,-665.5 625.5,-684.5 708.5,-684.5 708.5,-665.5 625.5,-665.5"/>
<text text-anchor="middle" x="667" y="-672.5" font-family="Helvetica,sans-Serif" font-size="10.00">RssiConnFsm</text>
</a>
</g>
</g>
<!-- Node43&#45;&gt;Node37 -->
<g id="edge45" class="edge">
<title>Node43&#45;&gt;Node37</title>
<path fill="none" stroke="midnightblue" d="M718.69,-669.38C730.25,-666.56 742.04,-662.33 752,-656 802.87,-623.68 838.89,-557.25 851.02,-532.54"/>
<polygon fill="midnightblue" stroke="midnightblue" points="717.7,-666.02 708.65,-671.52 719.16,-672.86 717.7,-666.02"/>
</g>
<!-- Node44 -->
<g id="node37" class="node">
<title>Node44</title>
<g id="a_node37"><a xlink:href="classRssiMonitor.html" target="_top" xlink:title=" ">
<polygon fill="white" stroke="black" points="630,-627.5 630,-646.5 704,-646.5 704,-627.5 630,-627.5"/>
<text text-anchor="middle" x="667" y="-634.5" font-family="Helvetica,sans-Serif" font-size="10.00">RssiMonitor</text>
</a>
</g>
</g>
<!-- Node44&#45;&gt;Node37 -->
<g id="edge46" class="edge">
<title>Node44&#45;&gt;Node37</title>
<path fill="none" stroke="midnightblue" d="M714.17,-631.04C726.9,-628.22 740.4,-624.08 752,-618 794.35,-595.82 832.52,-551.91 848.09,-532.55"/>
<polygon fill="midnightblue" stroke="midnightblue" points="713.29,-627.65 704.17,-633.03 714.66,-634.51 713.29,-627.65"/>
</g>
<!-- Node45 -->
<g id="node38" class="node">
<title>Node45</title>
<g id="a_node38"><a xlink:href="classRssiHeaderReg.html" target="_top" xlink:title=" ">
<polygon fill="white" stroke="black" points="621.5,-589.5 621.5,-608.5 712.5,-608.5 712.5,-589.5 621.5,-589.5"/>
<text text-anchor="middle" x="667" y="-596.5" font-family="Helvetica,sans-Serif" font-size="10.00">RssiHeaderReg</text>
</a>
</g>
</g>
<!-- Node45&#45;&gt;Node37 -->
<g id="edge47" class="edge">
<title>Node45&#45;&gt;Node37</title>
<path fill="none" stroke="midnightblue" d="M722.55,-589.01C732.49,-586.53 742.67,-583.54 752,-580 785.56,-567.26 821.6,-545.3 841.05,-532.68"/>
<polygon fill="midnightblue" stroke="midnightblue" points="721.65,-585.63 712.72,-591.32 723.26,-592.44 721.65,-585.63"/>
</g>
<!-- Node46 -->
<g id="node39" class="node">
<title>Node46</title>
<g id="a_node39"><a xlink:href="classRssiTxFsm.html" target="_top" xlink:title=" ">
<polygon fill="white" stroke="black" points="632,-551.5 632,-570.5 702,-570.5 702,-551.5 632,-551.5"/>
<text text-anchor="middle" x="667" y="-558.5" font-family="Helvetica,sans-Serif" font-size="10.00">RssiTxFsm</text>
</a>
</g>
</g>
<!-- Node46&#45;&gt;Node37 -->
<g id="edge48" class="edge">
<title>Node46&#45;&gt;Node37</title>
<path fill="none" stroke="midnightblue" d="M712.47,-551.99C747.88,-544.81 796.41,-534.98 826.85,-528.81"/>
<polygon fill="midnightblue" stroke="midnightblue" points="711.5,-548.61 702.39,-554.03 712.89,-555.47 711.5,-548.61"/>
</g>
<!-- Node47 -->
<g id="node40" class="node">
<title>Node47</title>
<g id="a_node40"><a xlink:href="classSimpleDualPortRamXpm.html" target="_top" xlink:title=" ">
<polygon fill="white" stroke="black" points="591.5,-513.5 591.5,-532.5 742.5,-532.5 742.5,-513.5 591.5,-513.5"/>
<text text-anchor="middle" x="667" y="-520.5" font-family="Helvetica,sans-Serif" font-size="10.00">SimpleDualPortRamXpm(2)</text>
</a>
</g>
</g>
<!-- Node47&#45;&gt;Node37 -->
<g id="edge49" class="edge">
<title>Node47&#45;&gt;Node37</title>
<path fill="none" stroke="midnightblue" d="M752.79,-523C779.45,-523 807.07,-523 826.95,-523"/>
<polygon fill="midnightblue" stroke="midnightblue" points="752.64,-519.5 742.64,-523 752.64,-526.5 752.64,-519.5"/>
</g>
<!-- Node48 -->
<g id="node41" class="node">
<title>Node48</title>
<g id="a_node41"><a xlink:href="classSimpleDualPortRamAlteraMf.html" target="_top" xlink:title=" ">
<polygon fill="white" stroke="black" points="582,-475.5 582,-494.5 752,-494.5 752,-475.5 582,-475.5"/>
<text text-anchor="middle" x="667" y="-482.5" font-family="Helvetica,sans-Serif" font-size="10.00">SimpleDualPortRamAlteraMf(2)</text>
</a>
</g>
</g>
<!-- Node48&#45;&gt;Node37 -->
<g id="edge50" class="edge">
<title>Node48&#45;&gt;Node37</title>
<path fill="none" stroke="midnightblue" d="M725.48,-496.65C759.09,-503.46 800.04,-511.76 826.9,-517.2"/>
<polygon fill="midnightblue" stroke="midnightblue" points="725.81,-493.15 715.31,-494.59 724.42,-500.01 725.81,-493.15"/>
</g>
<!-- Node49 -->
<g id="node42" class="node">
<title>Node49</title>
<g id="a_node42"><a xlink:href="classRssiChksum.html" target="_top" xlink:title=" ">
<polygon fill="white" stroke="black" points="622,-437.5 622,-456.5 712,-456.5 712,-437.5 622,-437.5"/>
<text text-anchor="middle" x="667" y="-444.5" font-family="Helvetica,sans-Serif" font-size="10.00">RssiChksum(2)</text>
</a>
</g>
</g>
<!-- Node49&#45;&gt;Node37 -->
<g id="edge51" class="edge">
<title>Node49&#45;&gt;Node37</title>
<path fill="none" stroke="midnightblue" d="M722.21,-456.91C732.27,-459.4 742.56,-462.42 752,-466 785.56,-478.74 821.6,-500.7 841.05,-513.32"/>
<polygon fill="midnightblue" stroke="midnightblue" points="722.82,-453.45 712.29,-454.58 721.22,-460.27 722.82,-453.45"/>
</g>
<!-- Node50 -->
<g id="node43" class="node">
<title>Node50</title>
<g id="a_node43"><a xlink:href="classRssiRxFsm.html" target="_top" xlink:title=" ">
<polygon fill="white" stroke="black" points="631.5,-399.5 631.5,-418.5 702.5,-418.5 702.5,-399.5 631.5,-399.5"/>
<text text-anchor="middle" x="667" y="-406.5" font-family="Helvetica,sans-Serif" font-size="10.00">RssiRxFsm</text>
</a>
</g>
</g>
<!-- Node50&#45;&gt;Node37 -->
<g id="edge52" class="edge">
<title>Node50&#45;&gt;Node37</title>
<path fill="none" stroke="midnightblue" d="M712.41,-414.58C725.65,-417.4 739.86,-421.64 752,-428 794.35,-450.18 832.52,-494.09 848.09,-513.45"/>
<polygon fill="midnightblue" stroke="midnightblue" points="712.99,-411.13 702.51,-412.68 711.68,-418 712.99,-411.13"/>
</g>
<!-- Node51&#45;&gt;Node37 -->
<g id="edge54" class="edge">
<title>Node51&#45;&gt;Node37</title>
<path fill="none" stroke="midnightblue" d="M721.97,-222.94C732.89,-225.88 743.58,-230.58 752,-238 839.67,-315.27 853.12,-472.85 855.15,-513.34"/>
<polygon fill="midnightblue" stroke="midnightblue" points="722.46,-219.46 711.93,-220.71 720.93,-226.3 722.46,-219.46"/>
</g>
<!-- Node52&#45;&gt;Node51 -->
<g id="edge55" class="edge">
<title>Node52&#45;&gt;Node51</title>
<path fill="none" stroke="midnightblue" d="M534.47,-219C561.96,-219 595.86,-219 622.36,-219"/>
<polygon fill="midnightblue" stroke="midnightblue" points="534.27,-215.5 524.27,-219 534.27,-222.5 534.27,-215.5"/>
</g>
<!-- Node57&#45;&gt;Node51 -->
<g id="edge58" class="edge">
<title>Node57&#45;&gt;Node51</title>
<path fill="none" stroke="midnightblue" d="M540.06,-192.56C566.44,-198.1 597.59,-204.64 622.3,-209.83"/>
<polygon fill="midnightblue" stroke="midnightblue" points="540.71,-189.12 530.21,-190.49 539.27,-195.97 540.71,-189.12"/>
</g>
<!-- Node58&#45;&gt;Node27 -->
<g id="edge60" class="edge">
<title>Node58&#45;&gt;Node27</title>
<path fill="none" stroke="midnightblue" d="M913.42,-61.17C917.45,-62.89 921.35,-64.82 925,-67 963.45,-89.94 996.7,-133.05 1010.37,-152.3"/>
<polygon fill="midnightblue" stroke="midnightblue" points="914.46,-57.82 903.87,-57.53 911.97,-64.36 914.46,-57.82"/>
</g>
<!-- Node59&#45;&gt;Node27 -->
<g id="edge62" class="edge">
<title>Node59&#45;&gt;Node27</title>
<path fill="none" stroke="midnightblue" d="M908.16,-98.58C913.92,-100.5 919.65,-102.64 925,-105 955.1,-118.24 987.04,-140.02 1004.24,-152.47"/>
<polygon fill="midnightblue" stroke="midnightblue" points="909.07,-95.2 898.48,-95.55 906.98,-101.88 909.07,-95.2"/>
</g>
<!-- Node60&#45;&gt;Node27 -->
<g id="edge67" class="edge">
<title>Node60&#45;&gt;Node27</title>
<path fill="none" stroke="midnightblue" d="M917.64,-162C931.78,-162 946.8,-162 960.76,-162"/>
<polygon fill="midnightblue" stroke="midnightblue" points="917.53,-158.5 907.53,-162 917.53,-165.5 917.53,-158.5"/>
</g>
</g>
</svg>
        <g id="navigator" transform="translate(0 0)" fill="#404254">
                <rect fill="#f2f5e9" fill-opacity="0.5" stroke="#606060" stroke-width=".5" x="0" y="0" width="60" height="60"/>
                <use id="zoomplus" xlink:href="#zoomPlus" x="17" y="9" onmousedown="handleZoom(evt,'in')"/>
                <use id="zoomminus" xlink:href="#zoomMin" x="42" y="9" onmousedown="handleZoom(evt,'out')"/>
                <use id="reset" xlink:href="#resetDef" x="30" y="36" onmousedown="handleReset()"/>
                <g id="arrowUp" xlink:href="#dirArrow" transform="translate(30 24)" onmousedown="handlePan(0,-1)">
                  <use xlink:href="#rim" fill="#404040">
                        <set attributeName="fill" to="#808080" begin="arrowUp.mouseover" end="arrowUp.mouseout"/>
                  </use>
                  <path fill="none" stroke="white" stroke-width="1.5" d="M0,-3.0v7 M-2.5,-0.5L0,-3.0L2.5,-0.5"/>
                </g>
                <g id="arrowRight" xlink:href="#dirArrow" transform="rotate(90) translate(36 -43)" onmousedown="handlePan(1,0)">
                  <use xlink:href="#rim" fill="#404040">
                        <set attributeName="fill" to="#808080" begin="arrowRight.mouseover" end="arrowRight.mouseout"/>
                  </use>
                  <path fill="none" stroke="white" stroke-width="1.5" d="M0,-3.0v7 M-2.5,-0.5L0,-3.0L2.5,-0.5"/>
                </g>
                <g id="arrowDown" xlink:href="#dirArrow" transform="rotate(180) translate(-30 -48)" onmousedown="handlePan(0,1)">
                  <use xlink:href="#rim" fill="#404040">
                        <set attributeName="fill" to="#808080" begin="arrowDown.mouseover" end="arrowDown.mouseout"/>
                  </use>
                  <path fill="none" stroke="white" stroke-width="1.5" d="M0,-3.0v7 M-2.5,-0.5L0,-3.0L2.5,-0.5"/>
                </g>
                <g id="arrowLeft" xlink:href="#dirArrow" transform="rotate(270) translate(-36 17)" onmousedown="handlePan(-1,0)">
                  <use xlink:href="#rim" fill="#404040">
                        <set attributeName="fill" to="#808080" begin="arrowLeft.mouseover" end="arrowLeft.mouseout"/>
                  </use>
                  <path fill="none" stroke="white" stroke-width="1.5" d="M0,-3.0v7 M-2.5,-0.5L0,-3.0L2.5,-0.5"/>
                </g>
        </g>
        <svg viewBox="0 0 15 15" width="100%" height="30px" preserveAspectRatio="xMaxYMin meet">
         <g id="arrow_out" transform="scale(0.3 0.3)">
          <a xlink:href="classRssiCoreTb__inherit__graph_org.svg" target="_base">
           <rect id="button" ry="5" rx="5" y="6" x="6" height="38" width="38"
                fill="#f2f5e9" fill-opacity="0.5" stroke="#606060" stroke-width="1.0"/>
           <path id="arrow"
             d="M 11.500037,31.436501 C 11.940474,20.09759 22.043105,11.32322 32.158766,21.979434 L 37.068811,17.246167 C 37.068811,17.246167 37.088388,32 37.088388,32 L 22.160133,31.978069 C 22.160133,31.978069 26.997745,27.140456 26.997745,27.140456 C 18.528582,18.264221 13.291696,25.230495 11.500037,31.436501 z"
             style="fill:#404040;"/>
          </a>
         </g>
        </svg>
</svg>
