<?xml version="1.0" encoding="UTF-8" standalone="no"?>
<!DOCTYPE svg PUBLIC "-//W3C//DTD SVG 1.1//EN"
 "http://www.w3.org/Graphics/SVG/1.1/DTD/svg11.dtd">
<!-- Generated by graphviz version 2.40.1 (20161225.0304)
 -->
<!-- Title: Decoder8b10b Pages: 1 -->
<svg width="636pt" height="256pt"
 viewBox="0.00 0.00 636.00 256.00" xmlns="http://www.w3.org/2000/svg" xmlns:xlink="http://www.w3.org/1999/xlink">
<g id="graph0" class="graph" transform="scale(1 1) rotate(0) translate(4 252)">
<title>Decoder8b10b</title>
<polygon fill="#ffffff" stroke="transparent" points="-4,4 -4,-252 632,-252 632,4 -4,4"/>
<!-- Node0 -->
<g id="node1" class="node">
<title>Node0</title>
<polygon fill="#bfbfbf" stroke="#000000" points="0,-114.5 0,-133.5 87,-133.5 87,-114.5 0,-114.5"/>
<text text-anchor="middle" x="43.5" y="-121.5" font-family="Helvetica,sans-Serif" font-size="10.00" fill="#000000">Decoder8b10b</text>
</g>
<!-- Node1 -->
<g id="node2" class="node">
<title>Node1</title>
<g id="a_node2"><a xlink:href="classGtp16FixedLatCore.html" target="_top" xlink:title="Gtp16FixedLatCore">
<polygon fill="#ffffff" stroke="#000000" points="128,-228.5 128,-247.5 237,-247.5 237,-228.5 128,-228.5"/>
<text text-anchor="middle" x="182.5" y="-235.5" font-family="Helvetica,sans-Serif" font-size="10.00" fill="#000000">Gtp16FixedLatCore</text>
</a>
</g>
</g>
<!-- Node0&#45;&gt;Node1 -->
<g id="edge1" class="edge">
<title>Node0&#45;&gt;Node1</title>
<path fill="none" stroke="#191970" d="M54.327,-142.3973C67.8174,-163.7807 92.8121,-198.72 123,-219 128.7608,-222.87 135.3599,-225.9925 142.0182,-228.4994"/>
<polygon fill="#191970" stroke="#191970" points="57.1658,-140.3308 48.9609,-133.6278 51.1949,-143.9844 57.1658,-140.3308"/>
</g>
<!-- Node2 -->
<g id="node3" class="node">
<title>Node2</title>
<g id="a_node3"><a xlink:href="classGtpDualFixedLatCore.html" target="_top" xlink:title="GtpDualFixedLatCore">
<polygon fill="#ffffff" stroke="#000000" points="123,-190.5 123,-209.5 242,-209.5 242,-190.5 123,-190.5"/>
<text text-anchor="middle" x="182.5" y="-197.5" font-family="Helvetica,sans-Serif" font-size="10.00" fill="#000000">GtpDualFixedLatCore</text>
</a>
</g>
</g>
<!-- Node0&#45;&gt;Node2 -->
<g id="edge2" class="edge">
<title>Node0&#45;&gt;Node2</title>
<path fill="none" stroke="#191970" d="M62.1252,-139.9376C77.5855,-152.5086 100.5923,-169.7425 123,-181 130.2672,-184.651 138.3832,-187.7936 146.227,-190.4122"/>
<polygon fill="#191970" stroke="#191970" points="64.2958,-137.1908 54.3642,-133.501 59.8272,-142.5789 64.2958,-137.1908"/>
</g>
<!-- Node3 -->
<g id="node4" class="node">
<title>Node3</title>
<g id="a_node4"><a xlink:href="classPgp2bGth7Fixedlat.html" target="_top" xlink:title="Pgp2bGth7Fixedlat">
<polygon fill="#ffffff" stroke="#000000" points="128.5,-152.5 128.5,-171.5 236.5,-171.5 236.5,-152.5 128.5,-152.5"/>
<text text-anchor="middle" x="182.5" y="-159.5" font-family="Helvetica,sans-Serif" font-size="10.00" fill="#000000">Pgp2bGth7Fixedlat</text>
</a>
</g>
</g>
<!-- Node0&#45;&gt;Node3 -->
<g id="edge3" class="edge">
<title>Node0&#45;&gt;Node3</title>
<path fill="none" stroke="#191970" d="M88.2953,-136.2462C107.4547,-141.484 129.4938,-147.5091 147.4357,-152.4141"/>
<polygon fill="#191970" stroke="#191970" points="89.1446,-132.85 78.5756,-133.589 87.2986,-139.6022 89.1446,-132.85"/>
</g>
<!-- Node5 -->
<g id="node6" class="node">
<title>Node5</title>
<g id="a_node6"><a xlink:href="classPgp2bGtp7FixedLat.html" target="_top" xlink:title="Pgp2bGtp7FixedLat">
<polygon fill="#ffffff" stroke="#000000" points="127.5,-114.5 127.5,-133.5 237.5,-133.5 237.5,-114.5 127.5,-114.5"/>
<text text-anchor="middle" x="182.5" y="-121.5" font-family="Helvetica,sans-Serif" font-size="10.00" fill="#000000">Pgp2bGtp7FixedLat</text>
</a>
</g>
</g>
<!-- Node0&#45;&gt;Node5 -->
<g id="edge5" class="edge">
<title>Node0&#45;&gt;Node5</title>
<path fill="none" stroke="#191970" d="M97.1861,-124C107.056,-124 117.3752,-124 127.289,-124"/>
<polygon fill="#191970" stroke="#191970" points="97.0991,-120.5001 87.0991,-124 97.0991,-127.5001 97.0991,-120.5001"/>
</g>
<!-- Node7 -->
<g id="node8" class="node">
<title>Node7</title>
<g id="a_node8"><a xlink:href="classPgp2bGtx7Fixedlat.html" target="_top" xlink:title="Pgp2bGtx7Fixedlat">
<polygon fill="#ffffff" stroke="#000000" points="128.5,-76.5 128.5,-95.5 236.5,-95.5 236.5,-76.5 128.5,-76.5"/>
<text text-anchor="middle" x="182.5" y="-83.5" font-family="Helvetica,sans-Serif" font-size="10.00" fill="#000000">Pgp2bGtx7Fixedlat</text>
</a>
</g>
</g>
<!-- Node0&#45;&gt;Node7 -->
<g id="edge7" class="edge">
<title>Node0&#45;&gt;Node7</title>
<path fill="none" stroke="#191970" d="M88.2953,-111.7538C107.4547,-106.516 129.4938,-100.4909 147.4357,-95.5859"/>
<polygon fill="#191970" stroke="#191970" points="87.2986,-108.3978 78.5756,-114.411 89.1446,-115.15 87.2986,-108.3978"/>
</g>
<!-- Node11 -->
<g id="node12" class="node">
<title>Node11</title>
<g id="a_node12"><a xlink:href="classPgpParallelSimModel.html" target="_top" xlink:title="PgpParallelSimModel">
<polygon fill="#ffffff" stroke="#000000" points="123,-38.5 123,-57.5 242,-57.5 242,-38.5 123,-38.5"/>
<text text-anchor="middle" x="182.5" y="-45.5" font-family="Helvetica,sans-Serif" font-size="10.00" fill="#000000">PgpParallelSimModel</text>
</a>
</g>
</g>
<!-- Node0&#45;&gt;Node11 -->
<g id="edge11" class="edge">
<title>Node0&#45;&gt;Node11</title>
<path fill="none" stroke="#191970" d="M62.1252,-108.0624C77.5855,-95.4914 100.5923,-78.2575 123,-67 130.2672,-63.349 138.3832,-60.2064 146.227,-57.5878"/>
<polygon fill="#191970" stroke="#191970" points="59.8272,-105.4211 54.3642,-114.499 64.2958,-110.8092 59.8272,-105.4211"/>
</g>
<!-- Node12 -->
<g id="node13" class="node">
<title>Node12</title>
<g id="a_node13"><a xlink:href="classSspDecoder8b10b.html" target="_top" xlink:title="SspDecoder8b10b">
<polygon fill="#ffffff" stroke="#000000" points="130.5,-.5 130.5,-19.5 234.5,-19.5 234.5,-.5 130.5,-.5"/>
<text text-anchor="middle" x="182.5" y="-7.5" font-family="Helvetica,sans-Serif" font-size="10.00" fill="#000000">SspDecoder8b10b</text>
</a>
</g>
</g>
<!-- Node0&#45;&gt;Node12 -->
<g id="edge12" class="edge">
<title>Node0&#45;&gt;Node12</title>
<path fill="none" stroke="#191970" d="M54.327,-105.6027C67.8174,-84.2193 92.8121,-49.28 123,-29 128.7608,-25.13 135.3599,-22.0075 142.0182,-19.5006"/>
<polygon fill="#191970" stroke="#191970" points="51.1949,-104.0156 48.9609,-114.3722 57.1658,-107.6692 51.1949,-104.0156"/>
</g>
<!-- Node4 -->
<g id="node5" class="node">
<title>Node4</title>
<g id="a_node5"><a xlink:href="classPgp2bGth7FixedLatWrapper.html" target="_top" xlink:title="Pgp2bGth7FixedLatWrapper">
<polygon fill="#ffffff" stroke="#000000" points="278,-152.5 278,-171.5 429,-171.5 429,-152.5 278,-152.5"/>
<text text-anchor="middle" x="353.5" y="-159.5" font-family="Helvetica,sans-Serif" font-size="10.00" fill="#000000">Pgp2bGth7FixedLatWrapper</text>
</a>
</g>
</g>
<!-- Node3&#45;&gt;Node4 -->
<g id="edge4" class="edge">
<title>Node3&#45;&gt;Node4</title>
<path fill="none" stroke="#191970" d="M246.6302,-162C256.8226,-162 267.4479,-162 277.8747,-162"/>
<polygon fill="#191970" stroke="#191970" points="246.6055,-158.5001 236.6055,-162 246.6054,-165.5001 246.6055,-158.5001"/>
</g>
<!-- Node6 -->
<g id="node7" class="node">
<title>Node6</title>
<g id="a_node7"><a xlink:href="classPgp2bGtp7FixedLatWrapper.html" target="_top" xlink:title="Pgp2bGtp7FixedLatWrapper">
<polygon fill="#ffffff" stroke="#000000" points="278,-114.5 278,-133.5 429,-133.5 429,-114.5 278,-114.5"/>
<text text-anchor="middle" x="353.5" y="-121.5" font-family="Helvetica,sans-Serif" font-size="10.00" fill="#000000">Pgp2bGtp7FixedLatWrapper</text>
</a>
</g>
</g>
<!-- Node5&#45;&gt;Node6 -->
<g id="edge6" class="edge">
<title>Node5&#45;&gt;Node6</title>
<path fill="none" stroke="#191970" d="M247.7023,-124C257.6045,-124 267.8922,-124 277.9914,-124"/>
<polygon fill="#191970" stroke="#191970" points="247.5468,-120.5001 237.5467,-124 247.5467,-127.5001 247.5468,-120.5001"/>
</g>
<!-- Node8 -->
<g id="node9" class="node">
<title>Node8</title>
<g id="a_node9"><a xlink:href="classPgp2bGtx7FixedLatWrapper.html" target="_top" xlink:title="Pgp2bGtx7FixedLatWrapper">
<polygon fill="#ffffff" stroke="#000000" points="278,-76.5 278,-95.5 429,-95.5 429,-76.5 278,-76.5"/>
<text text-anchor="middle" x="353.5" y="-83.5" font-family="Helvetica,sans-Serif" font-size="10.00" fill="#000000">Pgp2bGtx7FixedLatWrapper</text>
</a>
</g>
</g>
<!-- Node7&#45;&gt;Node8 -->
<g id="edge8" class="edge">
<title>Node7&#45;&gt;Node8</title>
<path fill="none" stroke="#191970" d="M246.6302,-86C256.8226,-86 267.4479,-86 277.8747,-86"/>
<polygon fill="#191970" stroke="#191970" points="246.6055,-82.5001 236.6055,-86 246.6054,-89.5001 246.6055,-82.5001"/>
</g>
<!-- Node9 -->
<g id="node10" class="node">
<title>Node9</title>
<g id="a_node10"><a xlink:href="classPgp2bGtx7FixedLatTb.html" target="_top" xlink:title="Pgp2bGtx7FixedLatTb">
<polygon fill="#ffffff" stroke="#000000" points="485.5,-95.5 485.5,-114.5 607.5,-114.5 607.5,-95.5 485.5,-95.5"/>
<text text-anchor="middle" x="546.5" y="-102.5" font-family="Helvetica,sans-Serif" font-size="10.00" fill="#000000">Pgp2bGtx7FixedLatTb</text>
</a>
</g>
</g>
<!-- Node8&#45;&gt;Node9 -->
<g id="edge9" class="edge">
<title>Node8&#45;&gt;Node9</title>
<path fill="none" stroke="#191970" d="M439.3316,-94.4497C454.8188,-95.9744 470.6771,-97.5356 485.2845,-98.9736"/>
<polygon fill="#191970" stroke="#191970" points="439.5196,-90.9514 429.2248,-93.4548 438.8337,-97.9177 439.5196,-90.9514"/>
</g>
<!-- Node10 -->
<g id="node11" class="node">
<title>Node10</title>
<g id="a_node11"><a xlink:href="classPgp2bGtx7FixedLatWrapperTb.html" target="_top" xlink:title="Pgp2bGtx7FixedLatWrapperTb">
<polygon fill="#ffffff" stroke="#000000" points="465,-57.5 465,-76.5 628,-76.5 628,-57.5 465,-57.5"/>
<text text-anchor="middle" x="546.5" y="-64.5" font-family="Helvetica,sans-Serif" font-size="10.00" fill="#000000">Pgp2bGtx7FixedLatWrapperTb</text>
</a>
</g>
</g>
<!-- Node8&#45;&gt;Node10 -->
<g id="edge10" class="edge">
<title>Node8&#45;&gt;Node10</title>
<path fill="none" stroke="#191970" d="M439.2009,-77.5631C447.7579,-76.7207 456.4296,-75.867 464.9424,-75.029"/>
<polygon fill="#191970" stroke="#191970" points="438.8337,-74.0823 429.2248,-78.5452 439.5196,-81.0486 438.8337,-74.0823"/>
</g>
<!-- Node13 -->
<g id="node14" class="node">
<title>Node13</title>
<g id="a_node14"><a xlink:href="classSspDecoder8b10bTb.html" target="_top" xlink:title="SspDecoder8b10bTb">
<polygon fill="#ffffff" stroke="#000000" points="295.5,-.5 295.5,-19.5 411.5,-19.5 411.5,-.5 295.5,-.5"/>
<text text-anchor="middle" x="353.5" y="-7.5" font-family="Helvetica,sans-Serif" font-size="10.00" fill="#000000">SspDecoder8b10bTb</text>
</a>
</g>
</g>
<!-- Node12&#45;&gt;Node13 -->
<g id="edge13" class="edge">
<title>Node12&#45;&gt;Node13</title>
<path fill="none" stroke="#191970" d="M244.8199,-10C261.3146,-10 279.0544,-10 295.3201,-10"/>
<polygon fill="#191970" stroke="#191970" points="244.7348,-6.5001 234.7348,-10 244.7348,-13.5001 244.7348,-6.5001"/>
</g>
</g>
</svg>
