<?xml version="1.0" encoding="UTF-8" standalone="no"?>
<!DOCTYPE svg PUBLIC "-//W3C//DTD SVG 1.1//EN"
 "http://www.w3.org/Graphics/SVG/1.1/DTD/svg11.dtd">
<!-- Generated by graphviz version 2.40.1 (20161225.0304)
 -->
<!-- Title: Pgp2bGtp7VarLat Pages: 1 -->
<svg width="991pt" height="674pt"
 viewBox="0.00 0.00 991.00 674.00" xmlns="http://www.w3.org/2000/svg" xmlns:xlink="http://www.w3.org/1999/xlink">
<g id="graph0" class="graph" transform="scale(1 1) rotate(0) translate(4 670)">
<title>Pgp2bGtp7VarLat</title>
<polygon fill="#ffffff" stroke="transparent" points="-4,4 -4,-670 987,-670 987,4 -4,4"/>
<!-- Node37 -->
<g id="node1" class="node">
<title>Node37</title>
<polygon fill="#bfbfbf" stroke="#000000" points="882,-304.5 882,-323.5 983,-323.5 983,-304.5 882,-304.5"/>
<text text-anchor="middle" x="932.5" y="-311.5" font-family="Helvetica,sans-Serif" font-size="10.00" fill="#000000">Pgp2bGtp7VarLat</text>
</g>
<!-- Node38 -->
<g id="node2" class="node">
<title>Node38</title>
<g id="a_node2"><a xlink:href="classPgp2bGtp7MultiLane.html" target="_top" xlink:title="Pgp2bGtp7MultiLane">
<polygon fill="#ffffff" stroke="#000000" points="729,-304.5 729,-323.5 846,-323.5 846,-304.5 729,-304.5"/>
<text text-anchor="middle" x="787.5" y="-311.5" font-family="Helvetica,sans-Serif" font-size="10.00" fill="#000000">Pgp2bGtp7MultiLane</text>
</a>
</g>
</g>
<!-- Node38&#45;&gt;Node37 -->
<g id="edge1" class="edge">
<title>Node38&#45;&gt;Node37</title>
<path fill="none" stroke="#191970" d="M856.0989,-314C864.705,-314 873.3846,-314 881.6508,-314"/>
<polygon fill="#191970" stroke="#191970" points="856.0591,-310.5001 846.0591,-314 856.0591,-317.5001 856.0591,-310.5001"/>
</g>
<!-- Node39 -->
<g id="node3" class="node">
<title>Node39</title>
<g id="a_node3"><a xlink:href="classPgp2bLane.html" target="_top" xlink:title="Pgp2bLane">
<polygon fill="#ffffff" stroke="#000000" points="349.5,-475.5 349.5,-494.5 419.5,-494.5 419.5,-475.5 349.5,-475.5"/>
<text text-anchor="middle" x="384.5" y="-482.5" font-family="Helvetica,sans-Serif" font-size="10.00" fill="#000000">Pgp2bLane</text>
</a>
</g>
</g>
<!-- Node39&#45;&gt;Node38 -->
<g id="edge2" class="edge">
<title>Node39&#45;&gt;Node38</title>
<path fill="none" stroke="#191970" d="M416.4355,-471.4492C495.159,-438.0454 697.0437,-352.3822 764.8798,-323.5982"/>
<polygon fill="#191970" stroke="#191970" points="414.869,-468.3118 407.0306,-475.4399 417.6033,-474.7557 414.869,-468.3118"/>
</g>
<!-- Node40 -->
<g id="node4" class="node">
<title>Node40</title>
<g id="a_node4"><a xlink:href="classPgp2bTx.html" target="_top" xlink:title="Pgp2bTx">
<polygon fill="#ffffff" stroke="#000000" points="178.5,-532.5 178.5,-551.5 237.5,-551.5 237.5,-532.5 178.5,-532.5"/>
<text text-anchor="middle" x="208" y="-539.5" font-family="Helvetica,sans-Serif" font-size="10.00" fill="#000000">Pgp2bTx</text>
</a>
</g>
</g>
<!-- Node40&#45;&gt;Node39 -->
<g id="edge3" class="edge">
<title>Node40&#45;&gt;Node39</title>
<path fill="none" stroke="#191970" d="M247.3542,-530.0894C254.8815,-527.7689 262.6918,-525.3322 270,-523 299.5308,-513.5762 333.1858,-502.348 356.3263,-494.5514"/>
<polygon fill="#191970" stroke="#191970" points="246.2218,-526.7757 237.6878,-533.0543 248.2745,-533.468 246.2218,-526.7757"/>
</g>
<!-- Node41 -->
<g id="node5" class="node">
<title>Node41</title>
<g id="a_node5"><a xlink:href="classSynchronizerVector.html" target="_top" xlink:title="SynchronizerVector">
<polygon fill="#ffffff" stroke="#000000" points="0,-608.5 0,-627.5 110,-627.5 110,-608.5 0,-608.5"/>
<text text-anchor="middle" x="55" y="-615.5" font-family="Helvetica,sans-Serif" font-size="10.00" fill="#000000">SynchronizerVector</text>
</a>
</g>
</g>
<!-- Node41&#45;&gt;Node40 -->
<g id="edge4" class="edge">
<title>Node41&#45;&gt;Node40</title>
<path fill="none" stroke="#191970" d="M95.435,-605.0438C100.3985,-603.1579 105.355,-601.1287 110,-599 140.955,-584.8142 174.827,-563.7706 193.537,-551.6163"/>
<polygon fill="#191970" stroke="#191970" points="94.167,-601.7806 85.9612,-608.4825 96.5553,-608.3606 94.167,-601.7806"/>
</g>
<!-- Node42 -->
<g id="node6" class="node">
<title>Node42</title>
<g id="a_node6"><a xlink:href="classSynchronizer.html" target="_top" xlink:title="Synchronizer">
<polygon fill="#ffffff" stroke="#000000" points="15,-323.5 15,-342.5 95,-342.5 95,-323.5 15,-323.5"/>
<text text-anchor="middle" x="55" y="-330.5" font-family="Helvetica,sans-Serif" font-size="10.00" fill="#000000">Synchronizer</text>
</a>
</g>
</g>
<!-- Node42&#45;&gt;Node40 -->
<g id="edge5" class="edge">
<title>Node42&#45;&gt;Node40</title>
<path fill="none" stroke="#191970" d="M84.5109,-347.7306C93.9191,-353.7572 103.5499,-361.5593 110,-371 149.1643,-428.3229 98.5257,-472.3448 146,-523 154.3914,-531.9536 166.8769,-536.7272 178.4489,-539.2571"/>
<polygon fill="#191970" stroke="#191970" points="86.0588,-344.5798 75.6699,-342.5011 82.4949,-350.6047 86.0588,-344.5798"/>
</g>
<!-- Node54 -->
<g id="node18" class="node">
<title>Node54</title>
<g id="a_node18"><a xlink:href="classSynchronizerEdge.html" target="_top" xlink:title="SynchronizerEdge(2)">
<polygon fill="#ffffff" stroke="#000000" points="149.5,-418.5 149.5,-437.5 266.5,-437.5 266.5,-418.5 149.5,-418.5"/>
<text text-anchor="middle" x="208" y="-425.5" font-family="Helvetica,sans-Serif" font-size="10.00" fill="#000000">SynchronizerEdge(2)</text>
</a>
</g>
</g>
<!-- Node42&#45;&gt;Node54 -->
<g id="edge20" class="edge">
<title>Node42&#45;&gt;Node54</title>
<path fill="none" stroke="#191970" d="M79.1528,-348.1078C89.056,-354.6992 100.4188,-362.7895 110,-371 127.6655,-386.1382 126.2262,-396.7431 146,-409 152.2197,-412.8553 159.278,-415.9778 166.3481,-418.491"/>
<polygon fill="#191970" stroke="#191970" points="80.8517,-345.0375 70.5614,-342.5155 77.033,-350.9042 80.8517,-345.0375"/>
</g>
<!-- Node55 -->
<g id="node19" class="node">
<title>Node55</title>
<g id="a_node19"><a xlink:href="classRstSync.html" target="_top" xlink:title="RstSync(2)">
<polygon fill="#ffffff" stroke="#000000" points="173.5,-266.5 173.5,-285.5 242.5,-285.5 242.5,-266.5 173.5,-266.5"/>
<text text-anchor="middle" x="208" y="-273.5" font-family="Helvetica,sans-Serif" font-size="10.00" fill="#000000">RstSync(2)</text>
</a>
</g>
</g>
<!-- Node42&#45;&gt;Node55 -->
<g id="edge22" class="edge">
<title>Node42&#45;&gt;Node55</title>
<path fill="none" stroke="#191970" d="M90.0705,-319.9345C118.1938,-309.4572 157.0137,-294.9949 182.3077,-285.5716"/>
<polygon fill="#191970" stroke="#191970" points="88.7577,-316.6885 80.6088,-323.4595 91.2015,-323.2481 88.7577,-316.6885"/>
</g>
<!-- Node59 -->
<g id="node23" class="node">
<title>Node59</title>
<g id="a_node23"><a xlink:href="classRstSync.html" target="_top" xlink:title="RstSync">
<polygon fill="#ffffff" stroke="#000000" points="180,-380.5 180,-399.5 236,-399.5 236,-380.5 180,-380.5"/>
<text text-anchor="middle" x="208" y="-387.5" font-family="Helvetica,sans-Serif" font-size="10.00" fill="#000000">RstSync</text>
</a>
</g>
</g>
<!-- Node42&#45;&gt;Node59 -->
<g id="edge27" class="edge">
<title>Node42&#45;&gt;Node59</title>
<path fill="none" stroke="#191970" d="M85.286,-346.5252C102.8487,-354.1464 125.4833,-363.5928 146,-371 156.9067,-374.9377 169.0735,-378.7825 179.7208,-381.9717"/>
<polygon fill="#191970" stroke="#191970" points="86.6607,-343.3064 76.0964,-342.5035 83.8542,-349.7191 86.6607,-343.3064"/>
</g>
<!-- Node63 -->
<g id="node27" class="node">
<title>Node63</title>
<g id="a_node27"><a xlink:href="classSynchronizerEdge.html" target="_top" xlink:title="SynchronizerEdge">
<polygon fill="#ffffff" stroke="#000000" points="156,-228.5 156,-247.5 260,-247.5 260,-228.5 156,-228.5"/>
<text text-anchor="middle" x="208" y="-235.5" font-family="Helvetica,sans-Serif" font-size="10.00" fill="#000000">SynchronizerEdge</text>
</a>
</g>
</g>
<!-- Node42&#45;&gt;Node63 -->
<g id="edge33" class="edge">
<title>Node42&#45;&gt;Node63</title>
<path fill="none" stroke="#191970" d="M71.3516,-315.7978C88.4874,-298.6822 116.9168,-272.7597 146,-257 152.9287,-253.2454 160.7039,-250.1236 168.3446,-247.5691"/>
<polygon fill="#191970" stroke="#191970" points="68.3922,-313.8172 63.8934,-323.4095 73.3921,-318.7163 68.3922,-313.8172"/>
</g>
<!-- Node64 -->
<g id="node28" class="node">
<title>Node64</title>
<g id="a_node28"><a xlink:href="classGtp7RxRstSeq.html" target="_top" xlink:title="Gtp7RxRstSeq">
<polygon fill="#ffffff" stroke="#000000" points="341.5,-304.5 341.5,-323.5 427.5,-323.5 427.5,-304.5 341.5,-304.5"/>
<text text-anchor="middle" x="384.5" y="-311.5" font-family="Helvetica,sans-Serif" font-size="10.00" fill="#000000">Gtp7RxRstSeq</text>
</a>
</g>
</g>
<!-- Node42&#45;&gt;Node64 -->
<g id="edge35" class="edge">
<title>Node42&#45;&gt;Node64</title>
<path fill="none" stroke="#191970" d="M105.3987,-330.0939C169.8878,-326.3752 280.5067,-319.9966 341.3149,-316.4902"/>
<polygon fill="#191970" stroke="#191970" points="104.8556,-326.6193 95.0738,-330.6892 105.2587,-333.6077 104.8556,-326.6193"/>
</g>
<!-- Node43 -->
<g id="node7" class="node">
<title>Node43</title>
<g id="a_node7"><a xlink:href="classPgp2bTxPhy.html" target="_top" xlink:title="Pgp2bTxPhy">
<polygon fill="#ffffff" stroke="#000000" points="16.5,-570.5 16.5,-589.5 93.5,-589.5 93.5,-570.5 16.5,-570.5"/>
<text text-anchor="middle" x="55" y="-577.5" font-family="Helvetica,sans-Serif" font-size="10.00" fill="#000000">Pgp2bTxPhy</text>
</a>
</g>
</g>
<!-- Node43&#45;&gt;Node40 -->
<g id="edge6" class="edge">
<title>Node43&#45;&gt;Node40</title>
<path fill="none" stroke="#191970" d="M103.4448,-567.9679C127.9332,-561.8859 156.8738,-554.698 178.0913,-549.4283"/>
<polygon fill="#191970" stroke="#191970" points="102.4698,-564.6037 93.6084,-570.411 104.1572,-571.3973 102.4698,-564.6037"/>
</g>
<!-- Node44 -->
<g id="node8" class="node">
<title>Node44</title>
<g id="a_node8"><a xlink:href="classPgp2bTxSched.html" target="_top" xlink:title="Pgp2bTxSched">
<polygon fill="#ffffff" stroke="#000000" points="11,-532.5 11,-551.5 99,-551.5 99,-532.5 11,-532.5"/>
<text text-anchor="middle" x="55" y="-539.5" font-family="Helvetica,sans-Serif" font-size="10.00" fill="#000000">Pgp2bTxSched</text>
</a>
</g>
</g>
<!-- Node44&#45;&gt;Node40 -->
<g id="edge7" class="edge">
<title>Node44&#45;&gt;Node40</title>
<path fill="none" stroke="#191970" d="M109.3419,-542C132.5774,-542 158.7977,-542 178.364,-542"/>
<polygon fill="#191970" stroke="#191970" points="109.254,-538.5001 99.2539,-542 109.2539,-545.5001 109.254,-538.5001"/>
</g>
<!-- Node45 -->
<g id="node9" class="node">
<title>Node45</title>
<g id="a_node9"><a xlink:href="classPgp2bTxCell.html" target="_top" xlink:title="Pgp2bTxCell">
<polygon fill="#ffffff" stroke="#000000" points="16.5,-646.5 16.5,-665.5 93.5,-665.5 93.5,-646.5 16.5,-646.5"/>
<text text-anchor="middle" x="55" y="-653.5" font-family="Helvetica,sans-Serif" font-size="10.00" fill="#000000">Pgp2bTxCell</text>
</a>
</g>
</g>
<!-- Node45&#45;&gt;Node40 -->
<g id="edge8" class="edge">
<title>Node45&#45;&gt;Node40</title>
<path fill="none" stroke="#191970" d="M99.3738,-642.6141C103.0653,-640.9227 106.6585,-639.0544 110,-637 149.1607,-612.9236 185.2479,-570.7814 200.4307,-551.781"/>
<polygon fill="#191970" stroke="#191970" points="97.9838,-639.4014 90.0821,-646.4592 100.6605,-645.8694 97.9838,-639.4014"/>
</g>
<!-- Node46 -->
<g id="node10" class="node">
<title>Node46</title>
<g id="a_node10"><a xlink:href="classAxiStreamPipeline.html" target="_top" xlink:title="AxiStreamPipeline">
<polygon fill="#ffffff" stroke="#000000" points="1.5,-494.5 1.5,-513.5 108.5,-513.5 108.5,-494.5 1.5,-494.5"/>
<text text-anchor="middle" x="55" y="-501.5" font-family="Helvetica,sans-Serif" font-size="10.00" fill="#000000">AxiStreamPipeline</text>
</a>
</g>
</g>
<!-- Node46&#45;&gt;Node40 -->
<g id="edge9" class="edge">
<title>Node46&#45;&gt;Node40</title>
<path fill="none" stroke="#191970" d="M103.4448,-516.0321C127.9332,-522.1141 156.8738,-529.302 178.0913,-534.5717"/>
<polygon fill="#191970" stroke="#191970" points="104.1572,-512.6027 93.6084,-513.589 102.4698,-519.3963 104.1572,-512.6027"/>
</g>
<!-- Node51 -->
<g id="node15" class="node">
<title>Node51</title>
<g id="a_node15"><a xlink:href="classAxiStreamDeMux.html" target="_top" xlink:title="AxiStreamDeMux">
<polygon fill="#ffffff" stroke="#000000" points="157.5,-494.5 157.5,-513.5 258.5,-513.5 258.5,-494.5 157.5,-494.5"/>
<text text-anchor="middle" x="208" y="-501.5" font-family="Helvetica,sans-Serif" font-size="10.00" fill="#000000">AxiStreamDeMux</text>
</a>
</g>
</g>
<!-- Node46&#45;&gt;Node51 -->
<g id="edge16" class="edge">
<title>Node46&#45;&gt;Node51</title>
<path fill="none" stroke="#191970" d="M118.7107,-504C131.5969,-504 144.9815,-504 157.3454,-504"/>
<polygon fill="#191970" stroke="#191970" points="118.512,-500.5001 108.512,-504 118.5119,-507.5001 118.512,-500.5001"/>
</g>
<!-- Node47 -->
<g id="node11" class="node">
<title>Node47</title>
<g id="a_node11"><a xlink:href="classCRC32Rtl.html" target="_top" xlink:title="CRC32Rtl">
<polygon fill="#ffffff" stroke="#000000" points="24,-456.5 24,-475.5 86,-475.5 86,-456.5 24,-456.5"/>
<text text-anchor="middle" x="55" y="-463.5" font-family="Helvetica,sans-Serif" font-size="10.00" fill="#000000">CRC32Rtl</text>
</a>
</g>
</g>
<!-- Node47&#45;&gt;Node40 -->
<g id="edge10" class="edge">
<title>Node47&#45;&gt;Node40</title>
<path fill="none" stroke="#191970" d="M95.7608,-477.5701C100.7317,-479.6997 105.6017,-482.1652 110,-485 129.5547,-497.6035 126.2262,-510.7431 146,-523 155.7602,-529.0499 167.5854,-533.2951 178.2806,-536.2133"/>
<polygon fill="#191970" stroke="#191970" points="96.7647,-474.2063 86.1749,-473.8801 94.25,-480.739 96.7647,-474.2063"/>
</g>
<!-- Node48 -->
<g id="node12" class="node">
<title>Node48</title>
<g id="a_node12"><a xlink:href="classPgp2bRx.html" target="_top" xlink:title="Pgp2bRx">
<polygon fill="#ffffff" stroke="#000000" points="178.5,-456.5 178.5,-475.5 237.5,-475.5 237.5,-456.5 178.5,-456.5"/>
<text text-anchor="middle" x="208" y="-463.5" font-family="Helvetica,sans-Serif" font-size="10.00" fill="#000000">Pgp2bRx</text>
</a>
</g>
</g>
<!-- Node47&#45;&gt;Node48 -->
<g id="edge14" class="edge">
<title>Node47&#45;&gt;Node48</title>
<path fill="none" stroke="#191970" d="M96.5828,-466C122.4194,-466 155.0212,-466 178.2704,-466"/>
<polygon fill="#191970" stroke="#191970" points="96.3311,-462.5001 86.331,-466 96.331,-469.5001 96.3311,-462.5001"/>
</g>
<!-- Node48&#45;&gt;Node39 -->
<g id="edge11" class="edge">
<title>Node48&#45;&gt;Node39</title>
<path fill="none" stroke="#191970" d="M247.8365,-470.2883C278.3701,-473.5753 320.1014,-478.0676 349.3902,-481.2205"/>
<polygon fill="#191970" stroke="#191970" points="247.8593,-466.7707 237.5421,-469.1802 247.1101,-473.7305 247.8593,-466.7707"/>
</g>
<!-- Node49 -->
<g id="node13" class="node">
<title>Node49</title>
<g id="a_node13"><a xlink:href="classPgp2bRxPhy.html" target="_top" xlink:title="Pgp2bRxPhy">
<polygon fill="#ffffff" stroke="#000000" points="16.5,-380.5 16.5,-399.5 93.5,-399.5 93.5,-380.5 16.5,-380.5"/>
<text text-anchor="middle" x="55" y="-387.5" font-family="Helvetica,sans-Serif" font-size="10.00" fill="#000000">Pgp2bRxPhy</text>
</a>
</g>
</g>
<!-- Node49&#45;&gt;Node48 -->
<g id="edge12" class="edge">
<title>Node49&#45;&gt;Node48</title>
<path fill="none" stroke="#191970" d="M100.0848,-403.5245C103.5385,-405.1726 106.8874,-406.9938 110,-409 129.5547,-421.6035 126.2262,-434.7431 146,-447 155.7602,-453.0499 167.5854,-457.2951 178.2806,-460.2133"/>
<polygon fill="#191970" stroke="#191970" points="101.3596,-400.2632 90.7882,-399.5582 98.6126,-406.7017 101.3596,-400.2632"/>
</g>
<!-- Node50 -->
<g id="node14" class="node">
<title>Node50</title>
<g id="a_node14"><a xlink:href="classPgp2bRxCell.html" target="_top" xlink:title="Pgp2bRxCell">
<polygon fill="#ffffff" stroke="#000000" points="16,-418.5 16,-437.5 94,-437.5 94,-418.5 16,-418.5"/>
<text text-anchor="middle" x="55" y="-425.5" font-family="Helvetica,sans-Serif" font-size="10.00" fill="#000000">Pgp2bRxCell</text>
</a>
</g>
</g>
<!-- Node50&#45;&gt;Node48 -->
<g id="edge13" class="edge">
<title>Node50&#45;&gt;Node48</title>
<path fill="none" stroke="#191970" d="M103.4448,-440.0321C127.9332,-446.1141 156.8738,-453.302 178.0913,-458.5717"/>
<polygon fill="#191970" stroke="#191970" points="104.1572,-436.6027 93.6084,-437.589 102.4698,-443.3963 104.1572,-436.6027"/>
</g>
<!-- Node51&#45;&gt;Node39 -->
<g id="edge15" class="edge">
<title>Node51&#45;&gt;Node39</title>
<path fill="none" stroke="#191970" d="M268.678,-497.4681C295.5791,-494.5722 326.2801,-491.2673 349.3118,-488.788"/>
<polygon fill="#191970" stroke="#191970" points="268.1457,-494.0051 258.5778,-498.5554 268.895,-500.9649 268.1457,-494.0051"/>
</g>
<!-- Node52 -->
<g id="node16" class="node">
<title>Node52</title>
<g id="a_node16"><a xlink:href="classGtp7Core.html" target="_top" xlink:title="Gtp7Core">
<polygon fill="#ffffff" stroke="#000000" points="508,-304.5 508,-323.5 570,-323.5 570,-304.5 508,-304.5"/>
<text text-anchor="middle" x="539" y="-311.5" font-family="Helvetica,sans-Serif" font-size="10.00" fill="#000000">Gtp7Core</text>
</a>
</g>
</g>
<!-- Node52&#45;&gt;Node38 -->
<g id="edge17" class="edge">
<title>Node52&#45;&gt;Node38</title>
<path fill="none" stroke="#191970" d="M580.2842,-314C620.8019,-314 682.9948,-314 728.6778,-314"/>
<polygon fill="#191970" stroke="#191970" points="580.2211,-310.5001 570.2211,-314 580.221,-317.5001 580.2211,-310.5001"/>
</g>
<!-- Node53 -->
<g id="node17" class="node">
<title>Node53</title>
<g id="a_node17"><a xlink:href="classGtp7RxRst.html" target="_top" xlink:title="Gtp7RxRst">
<polygon fill="#ffffff" stroke="#000000" points="350.5,-418.5 350.5,-437.5 418.5,-437.5 418.5,-418.5 350.5,-418.5"/>
<text text-anchor="middle" x="384.5" y="-425.5" font-family="Helvetica,sans-Serif" font-size="10.00" fill="#000000">Gtp7RxRst</text>
</a>
</g>
</g>
<!-- Node53&#45;&gt;Node52 -->
<g id="edge18" class="edge">
<title>Node53&#45;&gt;Node52</title>
<path fill="none" stroke="#191970" d="M428.9769,-422.5428C440.6715,-419.7284 452.8441,-415.4633 463,-409 497.9251,-386.7732 523.921,-342.894 534.188,-323.5465"/>
<polygon fill="#191970" stroke="#191970" points="427.9532,-419.1813 418.8856,-424.6613 429.3914,-426.032 427.9532,-419.1813"/>
</g>
<!-- Node54&#45;&gt;Node53 -->
<g id="edge19" class="edge">
<title>Node54&#45;&gt;Node53</title>
<path fill="none" stroke="#191970" d="M277.0339,-428C302.2189,-428 329.5985,-428 350.4184,-428"/>
<polygon fill="#191970" stroke="#191970" points="276.772,-424.5001 266.7719,-428 276.7719,-431.5001 276.772,-424.5001"/>
</g>
<!-- Node55&#45;&gt;Node52 -->
<g id="edge21" class="edge">
<title>Node55&#45;&gt;Node52</title>
<path fill="none" stroke="#191970" d="M252.9266,-277.0329C304.0793,-278.7439 390.013,-283.2457 463,-295 477.9045,-297.4003 494.1723,-301.2912 507.819,-304.9287"/>
<polygon fill="#191970" stroke="#191970" points="252.97,-273.5327 242.8652,-276.7176 252.7507,-280.5292 252.97,-273.5327"/>
</g>
<!-- Node55&#45;&gt;Node64 -->
<g id="edge36" class="edge">
<title>Node55&#45;&gt;Node64</title>
<path fill="none" stroke="#191970" d="M252.883,-285.6632C280.018,-291.5053 314.4326,-298.9147 341.265,-304.6916"/>
<polygon fill="#191970" stroke="#191970" points="253.3834,-282.1908 242.8707,-283.5076 251.91,-289.034 253.3834,-282.1908"/>
</g>
<!-- Node66 -->
<g id="node30" class="node">
<title>Node66</title>
<g id="a_node30"><a xlink:href="classAxiLiteAsync.html" target="_top" xlink:title="AxiLiteAsync">
<polygon fill="#ffffff" stroke="#000000" points="499,-228.5 499,-247.5 579,-247.5 579,-228.5 499,-228.5"/>
<text text-anchor="middle" x="539" y="-235.5" font-family="Helvetica,sans-Serif" font-size="10.00" fill="#000000">AxiLiteAsync</text>
</a>
</g>
</g>
<!-- Node55&#45;&gt;Node66 -->
<g id="edge39" class="edge">
<title>Node55&#45;&gt;Node66</title>
<path fill="none" stroke="#191970" d="M253.117,-270.8204C318.0183,-263.3695 436.7277,-249.7412 498.7858,-242.6167"/>
<polygon fill="#191970" stroke="#191970" points="252.3327,-267.3874 242.7972,-272.0052 253.1312,-274.3417 252.3327,-267.3874"/>
</g>
<!-- Node67 -->
<g id="node31" class="node">
<title>Node67</title>
<g id="a_node31"><a xlink:href="classFifoAsync.html" target="_top" xlink:title="FifoAsync(5)">
<polygon fill="#ffffff" stroke="#000000" points="346,-114.5 346,-133.5 423,-133.5 423,-114.5 346,-114.5"/>
<text text-anchor="middle" x="384.5" y="-121.5" font-family="Helvetica,sans-Serif" font-size="10.00" fill="#000000">FifoAsync(5)</text>
</a>
</g>
</g>
<!-- Node55&#45;&gt;Node67 -->
<g id="edge41" class="edge">
<title>Node55&#45;&gt;Node67</title>
<path fill="none" stroke="#191970" d="M252.3717,-268.2458C258.8886,-265.5409 265.0585,-261.8997 270,-257 307.7303,-219.5896 267.1665,-179.2639 306,-143 316.6582,-133.047 331.6122,-128.0451 345.6126,-125.6141"/>
<polygon fill="#191970" stroke="#191970" points="250.9981,-265.0169 242.678,-271.5764 253.2726,-271.6371 250.9981,-265.0169"/>
</g>
<!-- Node56 -->
<g id="node20" class="node">
<title>Node56</title>
<g id="a_node20"><a xlink:href="classGtp7AutoPhaseAligner.html" target="_top" xlink:title="Gtp7AutoPhaseAligner(2)">
<polygon fill="#ffffff" stroke="#000000" points="314.5,-152.5 314.5,-171.5 454.5,-171.5 454.5,-152.5 314.5,-152.5"/>
<text text-anchor="middle" x="384.5" y="-159.5" font-family="Helvetica,sans-Serif" font-size="10.00" fill="#000000">Gtp7AutoPhaseAligner(2)</text>
</a>
</g>
</g>
<!-- Node56&#45;&gt;Node52 -->
<g id="edge23" class="edge">
<title>Node56&#45;&gt;Node52</title>
<path fill="none" stroke="#191970" d="M456.5209,-176.4201C458.7843,-177.8126 460.9537,-179.3353 463,-181 491.9929,-204.5871 480.1977,-224.6981 499,-257 509.0956,-274.3441 522.9173,-293.1619 531.3879,-304.2495"/>
<polygon fill="#191970" stroke="#191970" points="457.873,-173.1783 447.3861,-171.6694 454.6431,-179.3887 457.873,-173.1783"/>
</g>
<!-- Node57 -->
<g id="node21" class="node">
<title>Node57</title>
<g id="a_node21"><a xlink:href="classSynchronizer.html" target="_top" xlink:title="Synchronizer(2)">
<polygon fill="#ffffff" stroke="#000000" points="161.5,-190.5 161.5,-209.5 254.5,-209.5 254.5,-190.5 161.5,-190.5"/>
<text text-anchor="middle" x="208" y="-197.5" font-family="Helvetica,sans-Serif" font-size="10.00" fill="#000000">Synchronizer(2)</text>
</a>
</g>
</g>
<!-- Node57&#45;&gt;Node56 -->
<g id="edge24" class="edge">
<title>Node57&#45;&gt;Node56</title>
<path fill="none" stroke="#191970" d="M262.5876,-188.2474C287.5447,-182.8742 316.7268,-176.5914 340.2819,-171.5201"/>
<polygon fill="#191970" stroke="#191970" points="261.5777,-184.8846 252.5384,-190.411 263.0511,-191.7278 261.5777,-184.8846"/>
</g>
<!-- Node62 -->
<g id="node26" class="node">
<title>Node62</title>
<g id="a_node26"><a xlink:href="classGtp7TxManualPhaseAligner.html" target="_top" xlink:title="Gtp7TxManualPhaseAligner">
<polygon fill="#ffffff" stroke="#000000" points="309,-190.5 309,-209.5 460,-209.5 460,-190.5 309,-190.5"/>
<text text-anchor="middle" x="384.5" y="-197.5" font-family="Helvetica,sans-Serif" font-size="10.00" fill="#000000">Gtp7TxManualPhaseAligner</text>
</a>
</g>
</g>
<!-- Node57&#45;&gt;Node62 -->
<g id="edge31" class="edge">
<title>Node57&#45;&gt;Node62</title>
<path fill="none" stroke="#191970" d="M265.2009,-200C279.0912,-200 294.1576,-200 308.7579,-200"/>
<polygon fill="#191970" stroke="#191970" points="264.8354,-196.5001 254.8354,-200 264.8353,-203.5001 264.8354,-196.5001"/>
</g>
<!-- Node57&#45;&gt;Node67 -->
<g id="edge43" class="edge">
<title>Node57&#45;&gt;Node67</title>
<path fill="none" stroke="#191970" d="M259.1786,-186.6878C262.9464,-184.9976 266.5986,-183.1084 270,-181 289.7738,-168.7431 285.8681,-154.6593 306,-143 318.0126,-136.0429 332.474,-131.6253 345.6937,-128.8233"/>
<polygon fill="#191970" stroke="#191970" points="257.6415,-183.5328 249.6519,-190.491 260.2369,-190.0339 257.6415,-183.5328"/>
</g>
<!-- Node58 -->
<g id="node22" class="node">
<title>Node58</title>
<g id="a_node22"><a xlink:href="classGtp7RxFixedLatPhaseAligner.html" target="_top" xlink:title="Gtp7RxFixedLatPhaseAligner">
<polygon fill="#ffffff" stroke="#000000" points="306,-380.5 306,-399.5 463,-399.5 463,-380.5 306,-380.5"/>
<text text-anchor="middle" x="384.5" y="-387.5" font-family="Helvetica,sans-Serif" font-size="10.00" fill="#000000">Gtp7RxFixedLatPhaseAligner</text>
</a>
</g>
</g>
<!-- Node58&#45;&gt;Node52 -->
<g id="edge25" class="edge">
<title>Node58&#45;&gt;Node52</title>
<path fill="none" stroke="#191970" d="M446.6006,-377.4928C452.2517,-375.6047 457.7998,-373.4513 463,-371 489.2569,-358.6232 515.3324,-336.3231 529.0655,-323.5942"/>
<polygon fill="#191970" stroke="#191970" points="445.5707,-374.1477 437.0362,-380.4257 447.6229,-380.8402 445.5707,-374.1477"/>
</g>
<!-- Node59&#45;&gt;Node58 -->
<g id="edge26" class="edge">
<title>Node59&#45;&gt;Node58</title>
<path fill="none" stroke="#191970" d="M246.6802,-390C264.1168,-390 285.3746,-390 305.9241,-390"/>
<polygon fill="#191970" stroke="#191970" points="246.3578,-386.5001 236.3578,-390 246.3577,-393.5001 246.3578,-386.5001"/>
</g>
<!-- Node60 -->
<g id="node24" class="node">
<title>Node60</title>
<g id="a_node24"><a xlink:href="classGtp7TxRst.html" target="_top" xlink:title="Gtp7TxRst">
<polygon fill="#ffffff" stroke="#000000" points="350.5,-342.5 350.5,-361.5 418.5,-361.5 418.5,-342.5 350.5,-342.5"/>
<text text-anchor="middle" x="384.5" y="-349.5" font-family="Helvetica,sans-Serif" font-size="10.00" fill="#000000">Gtp7TxRst</text>
</a>
</g>
</g>
<!-- Node60&#45;&gt;Node52 -->
<g id="edge28" class="edge">
<title>Node60&#45;&gt;Node52</title>
<path fill="none" stroke="#191970" d="M428.5555,-341.3984C439.7913,-338.6777 451.8455,-335.7442 463,-333 477.7915,-329.3611 494.1874,-325.2695 507.9525,-321.8178"/>
<polygon fill="#191970" stroke="#191970" points="427.4136,-338.0736 418.5162,-343.8257 429.0587,-344.8775 427.4136,-338.0736"/>
</g>
<!-- Node61 -->
<g id="node25" class="node">
<title>Node61</title>
<g id="a_node25"><a xlink:href="classSynchronizer.html" target="_top" xlink:title="Synchronizer(10)">
<polygon fill="#ffffff" stroke="#000000" points="158.5,-342.5 158.5,-361.5 257.5,-361.5 257.5,-342.5 158.5,-342.5"/>
<text text-anchor="middle" x="208" y="-349.5" font-family="Helvetica,sans-Serif" font-size="10.00" fill="#000000">Synchronizer(10)</text>
</a>
</g>
</g>
<!-- Node61&#45;&gt;Node60 -->
<g id="edge29" class="edge">
<title>Node61&#45;&gt;Node60</title>
<path fill="none" stroke="#191970" d="M267.9353,-352C295.4011,-352 326.9596,-352 350.3072,-352"/>
<polygon fill="#191970" stroke="#191970" points="267.6348,-348.5001 257.6348,-352 267.6348,-355.5001 267.6348,-348.5001"/>
</g>
<!-- Node62&#45;&gt;Node52 -->
<g id="edge30" class="edge">
<title>Node62&#45;&gt;Node52</title>
<path fill="none" stroke="#191970" d="M405.7444,-215.6755C438.1642,-239.5969 499.0367,-284.5125 525.8024,-304.262"/>
<polygon fill="#191970" stroke="#191970" points="407.5316,-212.6445 397.4068,-209.5235 403.3754,-218.2772 407.5316,-212.6445"/>
</g>
<!-- Node63&#45;&gt;Node62 -->
<g id="edge32" class="edge">
<title>Node63&#45;&gt;Node62</title>
<path fill="none" stroke="#191970" d="M262.5876,-226.2474C287.5447,-220.8742 316.7268,-214.5914 340.2819,-209.5201"/>
<polygon fill="#191970" stroke="#191970" points="261.5777,-222.8846 252.5384,-228.411 263.0511,-229.7278 261.5777,-222.8846"/>
</g>
<!-- Node64&#45;&gt;Node52 -->
<g id="edge34" class="edge">
<title>Node64&#45;&gt;Node52</title>
<path fill="none" stroke="#191970" d="M437.6918,-314C461.1236,-314 487.8361,-314 507.9466,-314"/>
<polygon fill="#191970" stroke="#191970" points="437.5369,-310.5001 427.5369,-314 437.5368,-317.5001 437.5369,-310.5001"/>
</g>
<!-- Node65 -->
<g id="node29" class="node">
<title>Node65</title>
<g id="a_node29"><a xlink:href="classAxiLiteToDrp.html" target="_top" xlink:title="AxiLiteToDrp">
<polygon fill="#ffffff" stroke="#000000" points="615,-247.5 615,-266.5 693,-266.5 693,-247.5 615,-247.5"/>
<text text-anchor="middle" x="654" y="-254.5" font-family="Helvetica,sans-Serif" font-size="10.00" fill="#000000">AxiLiteToDrp</text>
</a>
</g>
</g>
<!-- Node65&#45;&gt;Node38 -->
<g id="edge37" class="edge">
<title>Node65&#45;&gt;Node38</title>
<path fill="none" stroke="#191970" d="M685.5699,-270.4793C710.0251,-280.9208 743.3011,-295.1285 765.0822,-304.4284"/>
<polygon fill="#191970" stroke="#191970" points="686.9161,-267.2484 676.3449,-266.5405 684.1673,-273.6862 686.9161,-267.2484"/>
</g>
<!-- Node66&#45;&gt;Node65 -->
<g id="edge38" class="edge">
<title>Node66&#45;&gt;Node65</title>
<path fill="none" stroke="#191970" d="M589.1448,-246.2848C597.7249,-247.7024 606.5271,-249.1567 614.7703,-250.5186"/>
<polygon fill="#191970" stroke="#191970" points="589.6582,-242.8222 579.2214,-244.6453 588.5171,-249.7286 589.6582,-242.8222"/>
</g>
<!-- Node67&#45;&gt;Node66 -->
<g id="edge40" class="edge">
<title>Node67&#45;&gt;Node66</title>
<path fill="none" stroke="#191970" d="M433.1079,-130.5087C443.4994,-133.3024 454.0354,-137.2948 463,-143 497.9251,-165.2268 523.921,-209.106 534.188,-228.4535"/>
<polygon fill="#191970" stroke="#191970" points="433.7818,-127.0716 423.2452,-128.1807 432.1737,-133.8844 433.7818,-127.0716"/>
</g>
<!-- Node68 -->
<g id="node32" class="node">
<title>Node68</title>
<g id="a_node32"><a xlink:href="classSynchronizerVector.html" target="_top" xlink:title="SynchronizerVector(2)">
<polygon fill="#ffffff" stroke="#000000" points="146,-152.5 146,-171.5 270,-171.5 270,-152.5 146,-152.5"/>
<text text-anchor="middle" x="208" y="-159.5" font-family="Helvetica,sans-Serif" font-size="10.00" fill="#000000">SynchronizerVector(2)</text>
</a>
</g>
</g>
<!-- Node68&#45;&gt;Node67 -->
<g id="edge42" class="edge">
<title>Node68&#45;&gt;Node67</title>
<path fill="none" stroke="#191970" d="M262.6193,-150.2406C289.621,-144.4272 321.5622,-137.5503 345.9708,-132.2952"/>
<polygon fill="#191970" stroke="#191970" points="261.5777,-146.8846 252.5384,-152.411 263.0511,-153.7278 261.5777,-146.8846"/>
</g>
<!-- Node69 -->
<g id="node33" class="node">
<title>Node69</title>
<g id="a_node33"><a xlink:href="classFifoWrFsm.html" target="_top" xlink:title="FifoWrFsm">
<polygon fill="#ffffff" stroke="#000000" points="174.5,-114.5 174.5,-133.5 241.5,-133.5 241.5,-114.5 174.5,-114.5"/>
<text text-anchor="middle" x="208" y="-121.5" font-family="Helvetica,sans-Serif" font-size="10.00" fill="#000000">FifoWrFsm</text>
</a>
</g>
</g>
<!-- Node69&#45;&gt;Node67 -->
<g id="edge44" class="edge">
<title>Node69&#45;&gt;Node67</title>
<path fill="none" stroke="#191970" d="M251.8159,-124C280.6506,-124 318.0484,-124 345.7876,-124"/>
<polygon fill="#191970" stroke="#191970" points="251.6138,-120.5001 241.6137,-124 251.6137,-127.5001 251.6138,-120.5001"/>
</g>
<!-- Node70 -->
<g id="node34" class="node">
<title>Node70</title>
<g id="a_node34"><a xlink:href="classFifoRdFsm.html" target="_top" xlink:title="FifoRdFsm">
<polygon fill="#ffffff" stroke="#000000" points="174.5,-76.5 174.5,-95.5 241.5,-95.5 241.5,-76.5 174.5,-76.5"/>
<text text-anchor="middle" x="208" y="-83.5" font-family="Helvetica,sans-Serif" font-size="10.00" fill="#000000">FifoRdFsm</text>
</a>
</g>
</g>
<!-- Node70&#45;&gt;Node67 -->
<g id="edge45" class="edge">
<title>Node70&#45;&gt;Node67</title>
<path fill="none" stroke="#191970" d="M251.437,-95.3519C280.3223,-101.5708 317.9267,-109.6669 345.7876,-115.6653"/>
<polygon fill="#191970" stroke="#191970" points="252.1264,-91.9202 241.6137,-93.237 250.6531,-98.7634 252.1264,-91.9202"/>
</g>
<!-- Node71 -->
<g id="node35" class="node">
<title>Node71</title>
<g id="a_node35"><a xlink:href="classSimpleDualPortRam.html" target="_top" xlink:title="SimpleDualPortRam">
<polygon fill="#ffffff" stroke="#000000" points="150.5,-38.5 150.5,-57.5 265.5,-57.5 265.5,-38.5 150.5,-38.5"/>
<text text-anchor="middle" x="208" y="-45.5" font-family="Helvetica,sans-Serif" font-size="10.00" fill="#000000">SimpleDualPortRam</text>
</a>
</g>
</g>
<!-- Node71&#45;&gt;Node67 -->
<g id="edge46" class="edge">
<title>Node71&#45;&gt;Node67</title>
<path fill="none" stroke="#191970" d="M252.6166,-60.7039C258.5151,-62.6652 264.4401,-64.7817 270,-67 305.6803,-81.2359 345.4263,-102.2619 367.4485,-114.3995"/>
<polygon fill="#191970" stroke="#191970" points="253.3747,-57.2718 242.7838,-57.5593 251.2424,-63.9392 253.3747,-57.2718"/>
</g>
<!-- Node72 -->
<g id="node36" class="node">
<title>Node72</title>
<g id="a_node36"><a xlink:href="classFifoOutputPipeline.html" target="_top" xlink:title="FifoOutputPipeline">
<polygon fill="#ffffff" stroke="#000000" points="155,-.5 155,-19.5 261,-19.5 261,-.5 155,-.5"/>
<text text-anchor="middle" x="208" y="-7.5" font-family="Helvetica,sans-Serif" font-size="10.00" fill="#000000">FifoOutputPipeline</text>
</a>
</g>
</g>
<!-- Node72&#45;&gt;Node67 -->
<g id="edge47" class="edge">
<title>Node72&#45;&gt;Node67</title>
<path fill="none" stroke="#191970" d="M257.3164,-23.1237C261.6999,-24.8812 265.9908,-26.8359 270,-29 314.3228,-52.9253 357.5573,-95.5224 375.6446,-114.4641"/>
<polygon fill="#191970" stroke="#191970" points="258.2396,-19.7347 247.6458,-19.5868 255.8352,-26.3088 258.2396,-19.7347"/>
</g>
</g>
</svg>
