<?xml version="1.0" encoding="UTF-8" standalone="no"?>
<!DOCTYPE svg PUBLIC "-//W3C//DTD SVG 1.1//EN"
 "http://www.w3.org/Graphics/SVG/1.1/DTD/svg11.dtd">
<!-- Generated by graphviz version 2.40.1 (20161225.0304)
 -->
<!-- Title: SsiSem Pages: 1 -->
<svg width="912pt" height="408pt"
 viewBox="0.00 0.00 912.00 408.00" xmlns="http://www.w3.org/2000/svg" xmlns:xlink="http://www.w3.org/1999/xlink">
<g id="graph0" class="graph" transform="scale(1 1) rotate(0) translate(4 404)">
<title>SsiSem</title>
<polygon fill="#ffffff" stroke="transparent" points="-4,4 -4,-404 908,-404 908,4 -4,4"/>
<!-- Node28 -->
<g id="node1" class="node">
<title>Node28</title>
<polygon fill="#bfbfbf" stroke="#000000" points="851,-181.5 851,-200.5 904,-200.5 904,-181.5 851,-181.5"/>
<text text-anchor="middle" x="877.5" y="-188.5" font-family="Helvetica,sans-Serif" font-size="10.00" fill="#000000">SsiSem</text>
</g>
<!-- Node29 -->
<g id="node2" class="node">
<title>Node29</title>
<g id="a_node2"><a xlink:href="classSemWrapper.html" target="_top" xlink:title="SemWrapper">
<polygon fill="#ffffff" stroke="#000000" points="720,-309.5 720,-328.5 799,-328.5 799,-309.5 720,-309.5"/>
<text text-anchor="middle" x="759.5" y="-316.5" font-family="Helvetica,sans-Serif" font-size="10.00" fill="#000000">SemWrapper</text>
</a>
</g>
</g>
<!-- Node29&#45;&gt;Node28 -->
<g id="edge1" class="edge">
<title>Node29&#45;&gt;Node28</title>
<path fill="none" stroke="#191970" d="M775.3712,-301.7838C800.4945,-274.5314 848.6124,-222.3357 868.5279,-200.7324"/>
<polygon fill="#191970" stroke="#191970" points="772.5739,-299.6544 768.3692,-309.3792 777.7206,-304.3991 772.5739,-299.6544"/>
</g>
<!-- Node30 -->
<g id="node3" class="node">
<title>Node30</title>
<g id="a_node3"><a xlink:href="classIprog7SeriesCore.html" target="_top" xlink:title="Iprog7SeriesCore">
<polygon fill="#ffffff" stroke="#000000" points="276,-380.5 276,-399.5 376,-399.5 376,-380.5 276,-380.5"/>
<text text-anchor="middle" x="326" y="-387.5" font-family="Helvetica,sans-Serif" font-size="10.00" fill="#000000">Iprog7SeriesCore</text>
</a>
</g>
</g>
<!-- Node30&#45;&gt;Node29 -->
<g id="edge2" class="edge">
<title>Node30&#45;&gt;Node29</title>
<path fill="none" stroke="#191970" d="M386.3423,-393.0022C455.6585,-394.8047 572.1654,-392.7593 668,-366 697.241,-357.8352 727.9959,-339.7883 745.3593,-328.5844"/>
<polygon fill="#191970" stroke="#191970" points="386.1489,-389.495 376.0496,-392.697 385.9414,-396.492 386.1489,-389.495"/>
</g>
<!-- Node31 -->
<g id="node4" class="node">
<title>Node31</title>
<g id="a_node4"><a xlink:href="classSynchronizerVector.html" target="_top" xlink:title="SynchronizerVector">
<polygon fill="#ffffff" stroke="#000000" points="123,-380.5 123,-399.5 233,-399.5 233,-380.5 123,-380.5"/>
<text text-anchor="middle" x="178" y="-387.5" font-family="Helvetica,sans-Serif" font-size="10.00" fill="#000000">SynchronizerVector</text>
</a>
</g>
</g>
<!-- Node31&#45;&gt;Node30 -->
<g id="edge3" class="edge">
<title>Node31&#45;&gt;Node30</title>
<path fill="none" stroke="#191970" d="M243.3993,-390C254.2435,-390 265.3375,-390 275.7326,-390"/>
<polygon fill="#191970" stroke="#191970" points="243.1098,-386.5001 233.1097,-390 243.1097,-393.5001 243.1098,-386.5001"/>
</g>
<!-- Node32 -->
<g id="node5" class="node">
<title>Node32</title>
<g id="a_node5"><a xlink:href="classSynchronizerEdge.html" target="_top" xlink:title="SynchronizerEdge">
<polygon fill="#ffffff" stroke="#000000" points="126,-304.5 126,-323.5 230,-323.5 230,-304.5 126,-304.5"/>
<text text-anchor="middle" x="178" y="-311.5" font-family="Helvetica,sans-Serif" font-size="10.00" fill="#000000">SynchronizerEdge</text>
</a>
</g>
</g>
<!-- Node32&#45;&gt;Node30 -->
<g id="edge4" class="edge">
<title>Node32&#45;&gt;Node30</title>
<path fill="none" stroke="#191970" d="M205.7626,-328.2565C235.4813,-343.5174 281.8014,-367.3034 307.4079,-380.4527"/>
<polygon fill="#191970" stroke="#191970" points="207.2388,-325.0801 196.7443,-323.6255 204.0411,-331.307 207.2388,-325.0801"/>
</g>
<!-- Node53 -->
<g id="node26" class="node">
<title>Node53</title>
<g id="a_node26"><a xlink:href="classFifoSyncBuiltIn.html" target="_top" xlink:title="FifoSyncBuiltIn">
<polygon fill="#ffffff" stroke="#000000" points="281.5,-228.5 281.5,-247.5 370.5,-247.5 370.5,-228.5 281.5,-228.5"/>
<text text-anchor="middle" x="326" y="-235.5" font-family="Helvetica,sans-Serif" font-size="10.00" fill="#000000">FifoSyncBuiltIn</text>
</a>
</g>
</g>
<!-- Node32&#45;&gt;Node53 -->
<g id="edge43" class="edge">
<title>Node32&#45;&gt;Node53</title>
<path fill="none" stroke="#191970" d="M225.1582,-301.1231C230.2481,-299.2702 235.2857,-297.2271 240,-295 268.1809,-281.6868 297.7832,-260.1387 313.8559,-247.7003"/>
<polygon fill="#191970" stroke="#191970" points="223.7176,-297.9161 215.3774,-304.4499 225.9718,-304.5432 223.7176,-297.9161"/>
</g>
<!-- Node54 -->
<g id="node27" class="node">
<title>Node54</title>
<g id="a_node27"><a xlink:href="classFifoAsyncBuiltIn.html" target="_top" xlink:title="FifoAsyncBuiltIn">
<polygon fill="#ffffff" stroke="#000000" points="278.5,-190.5 278.5,-209.5 373.5,-209.5 373.5,-190.5 278.5,-190.5"/>
<text text-anchor="middle" x="326" y="-197.5" font-family="Helvetica,sans-Serif" font-size="10.00" fill="#000000">FifoAsyncBuiltIn</text>
</a>
</g>
</g>
<!-- Node32&#45;&gt;Node54 -->
<g id="edge48" class="edge">
<title>Node32&#45;&gt;Node54</title>
<path fill="none" stroke="#191970" d="M233.6666,-299.6755C235.8996,-298.2612 238.0253,-296.7073 240,-295 268.2736,-270.5554 248.5455,-244.3612 276,-219 280.1609,-215.1563 285.1778,-212.0656 290.4065,-209.5873"/>
<polygon fill="#191970" stroke="#191970" points="231.8143,-296.6958 224.6135,-304.4674 235.0891,-302.8825 231.8143,-296.6958"/>
</g>
<!-- Node33 -->
<g id="node6" class="node">
<title>Node33</title>
<g id="a_node6"><a xlink:href="classSynchronizer.html" target="_top" xlink:title="Synchronizer">
<polygon fill="#ffffff" stroke="#000000" points="0,-285.5 0,-304.5 80,-304.5 80,-285.5 0,-285.5"/>
<text text-anchor="middle" x="40" y="-292.5" font-family="Helvetica,sans-Serif" font-size="10.00" fill="#000000">Synchronizer</text>
</a>
</g>
</g>
<!-- Node33&#45;&gt;Node32 -->
<g id="edge5" class="edge">
<title>Node33&#45;&gt;Node32</title>
<path fill="none" stroke="#191970" d="M90.2348,-301.9164C101.8207,-303.5116 114.1706,-305.2119 125.8366,-306.8181"/>
<polygon fill="#191970" stroke="#191970" points="90.6702,-298.4434 80.2863,-300.5467 89.7154,-305.378 90.6702,-298.4434"/>
</g>
<!-- Node36 -->
<g id="node9" class="node">
<title>Node36</title>
<g id="a_node9"><a xlink:href="classRstSync.html" target="_top" xlink:title="RstSync(2)">
<polygon fill="#ffffff" stroke="#000000" points="143.5,-228.5 143.5,-247.5 212.5,-247.5 212.5,-228.5 143.5,-228.5"/>
<text text-anchor="middle" x="178" y="-235.5" font-family="Helvetica,sans-Serif" font-size="10.00" fill="#000000">RstSync(2)</text>
</a>
</g>
</g>
<!-- Node33&#45;&gt;Node36 -->
<g id="edge9" class="edge">
<title>Node33&#45;&gt;Node36</title>
<path fill="none" stroke="#191970" d="M65.9947,-280.6547C80.4506,-273.0227 98.9219,-263.8312 116,-257 124.6758,-253.5297 134.2432,-250.3124 143.212,-247.5489"/>
<polygon fill="#191970" stroke="#191970" points="64.2915,-277.5964 57.1299,-285.4043 67.5974,-283.7666 64.2915,-277.5964"/>
</g>
<!-- Node45 -->
<g id="node18" class="node">
<title>Node45</title>
<g id="a_node18"><a xlink:href="classAxiStreamFifoV2.html" target="_top" xlink:title="AxiStreamFifoV2(2)">
<polygon fill="#ffffff" stroke="#000000" points="704,-124.5 704,-143.5 815,-143.5 815,-124.5 704,-124.5"/>
<text text-anchor="middle" x="759.5" y="-131.5" font-family="Helvetica,sans-Serif" font-size="10.00" fill="#000000">AxiStreamFifoV2(2)</text>
</a>
</g>
</g>
<!-- Node33&#45;&gt;Node45 -->
<g id="edge51" class="edge">
<title>Node33&#45;&gt;Node45</title>
<path fill="none" stroke="#191970" d="M63.8346,-309.819C78.3592,-318.0977 97.6088,-327.7724 116,-333 206.1437,-358.6227 232.2854,-352 326,-352 326,-352 326,-352 465.5,-352 607.5177,-352 725.6492,-185.838 753.3546,-143.6485"/>
<polygon fill="#191970" stroke="#191970" points="65.423,-306.6927 55.0287,-304.641 61.8748,-312.7269 65.423,-306.6927"/>
</g>
<!-- Node55 -->
<g id="node28" class="node">
<title>Node55</title>
<g id="a_node28"><a xlink:href="classRstSync.html" target="_top" xlink:title="RstSync(4)">
<polygon fill="#ffffff" stroke="#000000" points="143.5,-266.5 143.5,-285.5 212.5,-285.5 212.5,-266.5 143.5,-266.5"/>
<text text-anchor="middle" x="178" y="-273.5" font-family="Helvetica,sans-Serif" font-size="10.00" fill="#000000">RstSync(4)</text>
</a>
</g>
</g>
<!-- Node33&#45;&gt;Node55 -->
<g id="edge47" class="edge">
<title>Node33&#45;&gt;Node55</title>
<path fill="none" stroke="#191970" d="M90.3506,-288.0677C107.8473,-285.6587 127.0737,-283.0116 143.05,-280.812"/>
<polygon fill="#191970" stroke="#191970" points="89.7154,-284.622 80.2863,-289.4533 90.6702,-291.5566 89.7154,-284.622"/>
</g>
<!-- Node34 -->
<g id="node7" class="node">
<title>Node34</title>
<g id="a_node7"><a xlink:href="classSynchronizerFifo.html" target="_top" xlink:title="SynchronizerFifo">
<polygon fill="#ffffff" stroke="#000000" points="563,-162.5 563,-181.5 660,-181.5 660,-162.5 563,-162.5"/>
<text text-anchor="middle" x="611.5" y="-169.5" font-family="Helvetica,sans-Serif" font-size="10.00" fill="#000000">SynchronizerFifo</text>
</a>
</g>
</g>
<!-- Node34&#45;&gt;Node28 -->
<g id="edge6" class="edge">
<title>Node34&#45;&gt;Node28</title>
<path fill="none" stroke="#191970" d="M670.4825,-176.213C726.7783,-180.2342 809.0328,-186.1095 850.8922,-189.0994"/>
<polygon fill="#191970" stroke="#191970" points="670.5125,-172.7063 660.2885,-175.4849 670.0137,-179.6886 670.5125,-172.7063"/>
</g>
<!-- Node35 -->
<g id="node8" class="node">
<title>Node35</title>
<g id="a_node8"><a xlink:href="classFifoAsync.html" target="_top" xlink:title="FifoAsync">
<polygon fill="#ffffff" stroke="#000000" points="294.5,-114.5 294.5,-133.5 357.5,-133.5 357.5,-114.5 294.5,-114.5"/>
<text text-anchor="middle" x="326" y="-121.5" font-family="Helvetica,sans-Serif" font-size="10.00" fill="#000000">FifoAsync</text>
</a>
</g>
</g>
<!-- Node35&#45;&gt;Node34 -->
<g id="edge7" class="edge">
<title>Node35&#45;&gt;Node34</title>
<path fill="none" stroke="#191970" d="M367.6221,-133.8384C381.6729,-136.9879 397.4759,-140.3436 412,-143 463.2982,-152.3822 522.4648,-160.6669 562.9627,-165.9535"/>
<polygon fill="#191970" stroke="#191970" points="368.2709,-130.3967 357.744,-131.5945 366.7202,-137.2228 368.2709,-130.3967"/>
</g>
<!-- Node49 -->
<g id="node22" class="node">
<title>Node49</title>
<g id="a_node22"><a xlink:href="classFifo.html" target="_top" xlink:title="Fifo(4)">
<polygon fill="#ffffff" stroke="#000000" points="442,-114.5 442,-133.5 489,-133.5 489,-114.5 442,-114.5"/>
<text text-anchor="middle" x="465.5" y="-121.5" font-family="Helvetica,sans-Serif" font-size="10.00" fill="#000000">Fifo(4)</text>
</a>
</g>
</g>
<!-- Node35&#45;&gt;Node49 -->
<g id="edge35" class="edge">
<title>Node35&#45;&gt;Node49</title>
<path fill="none" stroke="#191970" d="M367.6594,-124C391.8793,-124 421.5245,-124 441.7938,-124"/>
<polygon fill="#191970" stroke="#191970" points="367.6547,-120.5001 357.6547,-124 367.6547,-127.5001 367.6547,-120.5001"/>
</g>
<!-- Node36&#45;&gt;Node35 -->
<g id="edge8" class="edge">
<title>Node36&#45;&gt;Node35</title>
<path fill="none" stroke="#191970" d="M222.2438,-229.4716C228.6741,-226.8614 234.8503,-223.4523 240,-219 268.2736,-194.5554 248.5455,-168.3612 276,-143 281.1841,-138.2112 287.6969,-134.5911 294.2926,-131.868"/>
<polygon fill="#191970" stroke="#191970" points="221.043,-226.1834 212.7308,-232.7528 223.3255,-232.8008 221.043,-226.1834"/>
</g>
<!-- Node43 -->
<g id="node16" class="node">
<title>Node43</title>
<g id="a_node16"><a xlink:href="classAxiLiteAsync.html" target="_top" xlink:title="AxiLiteAsync">
<polygon fill="#ffffff" stroke="#000000" points="425.5,-200.5 425.5,-219.5 505.5,-219.5 505.5,-200.5 425.5,-200.5"/>
<text text-anchor="middle" x="465.5" y="-207.5" font-family="Helvetica,sans-Serif" font-size="10.00" fill="#000000">AxiLiteAsync</text>
</a>
</g>
</g>
<!-- Node36&#45;&gt;Node43 -->
<g id="edge17" class="edge">
<title>Node36&#45;&gt;Node43</title>
<path fill="none" stroke="#191970" d="M219.8194,-250.0315C260.3054,-259.8112 323.1455,-270.034 376,-257 405.3087,-249.7724 435.6355,-231.0403 452.382,-219.5256"/>
<polygon fill="#191970" stroke="#191970" points="220.5794,-246.6137 210.0277,-247.5691 218.8721,-253.4023 220.5794,-246.6137"/>
</g>
<!-- Node44 -->
<g id="node17" class="node">
<title>Node44</title>
<g id="a_node17"><a xlink:href="classFifoAsync.html" target="_top" xlink:title="FifoAsync(5)">
<polygon fill="#ffffff" stroke="#000000" points="287.5,-152.5 287.5,-171.5 364.5,-171.5 364.5,-152.5 287.5,-152.5"/>
<text text-anchor="middle" x="326" y="-159.5" font-family="Helvetica,sans-Serif" font-size="10.00" fill="#000000">FifoAsync(5)</text>
</a>
</g>
</g>
<!-- Node36&#45;&gt;Node44 -->
<g id="edge19" class="edge">
<title>Node36&#45;&gt;Node44</title>
<path fill="none" stroke="#191970" d="M222.2298,-227.5466C228.4266,-225.2073 234.5368,-222.3864 240,-219 259.7738,-206.7431 256.64,-193.9005 276,-181 281.5639,-177.2925 287.9532,-174.1675 294.2635,-171.5907"/>
<polygon fill="#191970" stroke="#191970" points="220.8518,-224.3179 212.5011,-230.8382 223.0953,-230.9486 220.8518,-224.3179"/>
</g>
<!-- Node36&#45;&gt;Node53 -->
<g id="edge42" class="edge">
<title>Node36&#45;&gt;Node53</title>
<path fill="none" stroke="#191970" d="M222.9476,-238C241.4828,-238 262.9089,-238 281.407,-238"/>
<polygon fill="#191970" stroke="#191970" points="222.6995,-234.5001 212.6994,-238 222.6994,-241.5001 222.6995,-234.5001"/>
</g>
<!-- Node37 -->
<g id="node10" class="node">
<title>Node37</title>
<g id="a_node10"><a xlink:href="classSynchronizerVector.html" target="_top" xlink:title="SynchronizerVector(2)">
<polygon fill="#ffffff" stroke="#000000" points="116,-190.5 116,-209.5 240,-209.5 240,-190.5 116,-190.5"/>
<text text-anchor="middle" x="178" y="-197.5" font-family="Helvetica,sans-Serif" font-size="10.00" fill="#000000">SynchronizerVector(2)</text>
</a>
</g>
</g>
<!-- Node37&#45;&gt;Node35 -->
<g id="edge10" class="edge">
<title>Node37&#45;&gt;Node35</title>
<path fill="none" stroke="#191970" d="M229.1786,-186.6878C232.9464,-184.9976 236.5986,-183.1084 240,-181 259.7738,-168.7431 256.64,-155.9005 276,-143 281.5639,-139.2925 287.9532,-136.1675 294.2635,-133.5907"/>
<polygon fill="#191970" stroke="#191970" points="227.6415,-183.5328 219.6519,-190.491 230.2369,-190.0339 227.6415,-183.5328"/>
</g>
<!-- Node37&#45;&gt;Node44 -->
<g id="edge20" class="edge">
<title>Node37&#45;&gt;Node44</title>
<path fill="none" stroke="#191970" d="M225.1735,-187.8879C245.7856,-182.5956 269.6093,-176.4787 288.9219,-171.5201"/>
<polygon fill="#191970" stroke="#191970" points="224.162,-184.534 215.3466,-190.411 225.9029,-191.3141 224.162,-184.534"/>
</g>
<!-- Node37&#45;&gt;Node54 -->
<g id="edge49" class="edge">
<title>Node37&#45;&gt;Node54</title>
<path fill="none" stroke="#191970" d="M250.4787,-200C259.8637,-200 269.2814,-200 278.1275,-200"/>
<polygon fill="#191970" stroke="#191970" points="250.3364,-196.5001 240.3364,-200 250.3363,-203.5001 250.3364,-196.5001"/>
</g>
<!-- Node38 -->
<g id="node11" class="node">
<title>Node38</title>
<g id="a_node11"><a xlink:href="classSynchronizer.html" target="_top" xlink:title="Synchronizer(2)">
<polygon fill="#ffffff" stroke="#000000" points="131.5,-152.5 131.5,-171.5 224.5,-171.5 224.5,-152.5 131.5,-152.5"/>
<text text-anchor="middle" x="178" y="-159.5" font-family="Helvetica,sans-Serif" font-size="10.00" fill="#000000">Synchronizer(2)</text>
</a>
</g>
</g>
<!-- Node38&#45;&gt;Node35 -->
<g id="edge11" class="edge">
<title>Node38&#45;&gt;Node35</title>
<path fill="none" stroke="#191970" d="M225.0709,-149.9142C247.6207,-144.1244 274.0335,-137.3427 294.1821,-132.1695"/>
<polygon fill="#191970" stroke="#191970" points="224.162,-146.534 215.3466,-152.411 225.9029,-153.3141 224.162,-146.534"/>
</g>
<!-- Node38&#45;&gt;Node44 -->
<g id="edge21" class="edge">
<title>Node38&#45;&gt;Node44</title>
<path fill="none" stroke="#191970" d="M234.9685,-162C252.5104,-162 271.4024,-162 287.4046,-162"/>
<polygon fill="#191970" stroke="#191970" points="234.8282,-158.5001 224.8281,-162 234.8281,-165.5001 234.8282,-158.5001"/>
</g>
<!-- Node39 -->
<g id="node12" class="node">
<title>Node39</title>
<g id="a_node12"><a xlink:href="classFifoWrFsm.html" target="_top" xlink:title="FifoWrFsm">
<polygon fill="#ffffff" stroke="#000000" points="144.5,-114.5 144.5,-133.5 211.5,-133.5 211.5,-114.5 144.5,-114.5"/>
<text text-anchor="middle" x="178" y="-121.5" font-family="Helvetica,sans-Serif" font-size="10.00" fill="#000000">FifoWrFsm</text>
</a>
</g>
</g>
<!-- Node39&#45;&gt;Node35 -->
<g id="edge12" class="edge">
<title>Node39&#45;&gt;Node35</title>
<path fill="none" stroke="#191970" d="M221.8928,-124C245.1553,-124 273.2032,-124 294.3227,-124"/>
<polygon fill="#191970" stroke="#191970" points="221.5835,-120.5001 211.5835,-124 221.5835,-127.5001 221.5835,-120.5001"/>
</g>
<!-- Node39&#45;&gt;Node44 -->
<g id="edge22" class="edge">
<title>Node39&#45;&gt;Node44</title>
<path fill="none" stroke="#191970" d="M221.4139,-135.1468C242.8392,-140.6479 268.4157,-147.2148 288.913,-152.4777"/>
<polygon fill="#191970" stroke="#191970" points="222.1398,-131.7197 211.5835,-132.6228 220.3989,-138.4998 222.1398,-131.7197"/>
</g>
<!-- Node52 -->
<g id="node25" class="node">
<title>Node52</title>
<g id="a_node25"><a xlink:href="classFifoSync.html" target="_top" xlink:title="FifoSync">
<polygon fill="#ffffff" stroke="#000000" points="297.5,-76.5 297.5,-95.5 354.5,-95.5 354.5,-76.5 297.5,-76.5"/>
<text text-anchor="middle" x="326" y="-83.5" font-family="Helvetica,sans-Serif" font-size="10.00" fill="#000000">FifoSync</text>
</a>
</g>
</g>
<!-- Node39&#45;&gt;Node52 -->
<g id="edge37" class="edge">
<title>Node39&#45;&gt;Node52</title>
<path fill="none" stroke="#191970" d="M221.3191,-112.8775C245.7035,-106.6167 275.4888,-98.9691 297.044,-93.4347"/>
<polygon fill="#191970" stroke="#191970" points="220.3989,-109.5002 211.5835,-115.3772 222.1398,-116.2803 220.3989,-109.5002"/>
</g>
<!-- Node40 -->
<g id="node13" class="node">
<title>Node40</title>
<g id="a_node13"><a xlink:href="classFifoRdFsm.html" target="_top" xlink:title="FifoRdFsm">
<polygon fill="#ffffff" stroke="#000000" points="144.5,-76.5 144.5,-95.5 211.5,-95.5 211.5,-76.5 144.5,-76.5"/>
<text text-anchor="middle" x="178" y="-83.5" font-family="Helvetica,sans-Serif" font-size="10.00" fill="#000000">FifoRdFsm</text>
</a>
</g>
</g>
<!-- Node40&#45;&gt;Node35 -->
<g id="edge13" class="edge">
<title>Node40&#45;&gt;Node35</title>
<path fill="none" stroke="#191970" d="M221.5788,-97.1891C244.9025,-103.1777 273.1081,-110.4196 294.3227,-115.8666"/>
<polygon fill="#191970" stroke="#191970" points="222.1398,-93.7197 211.5835,-94.6228 220.3989,-100.4998 222.1398,-93.7197"/>
</g>
<!-- Node40&#45;&gt;Node44 -->
<g id="edge23" class="edge">
<title>Node40&#45;&gt;Node44</title>
<path fill="none" stroke="#191970" d="M221.13,-96.0436C227.702,-98.4611 234.2139,-101.4134 240,-105 259.7738,-117.2569 256.64,-130.0995 276,-143 281.5639,-146.7075 287.9532,-149.8325 294.2635,-152.4093"/>
<polygon fill="#191970" stroke="#191970" points="222.1292,-92.6876 211.5359,-92.8726 219.9324,-99.334 222.1292,-92.6876"/>
</g>
<!-- Node40&#45;&gt;Node52 -->
<g id="edge38" class="edge">
<title>Node40&#45;&gt;Node52</title>
<path fill="none" stroke="#191970" d="M221.6446,-86C245.9681,-86 275.5846,-86 297.044,-86"/>
<polygon fill="#191970" stroke="#191970" points="221.5835,-82.5001 211.5835,-86 221.5835,-89.5001 221.5835,-82.5001"/>
</g>
<!-- Node41 -->
<g id="node14" class="node">
<title>Node41</title>
<g id="a_node14"><a xlink:href="classSimpleDualPortRam.html" target="_top" xlink:title="SimpleDualPortRam">
<polygon fill="#ffffff" stroke="#000000" points="120.5,-38.5 120.5,-57.5 235.5,-57.5 235.5,-38.5 120.5,-38.5"/>
<text text-anchor="middle" x="178" y="-45.5" font-family="Helvetica,sans-Serif" font-size="10.00" fill="#000000">SimpleDualPortRam</text>
</a>
</g>
</g>
<!-- Node41&#45;&gt;Node35 -->
<g id="edge14" class="edge">
<title>Node41&#45;&gt;Node35</title>
<path fill="none" stroke="#191970" d="M229.1786,-61.3122C232.9464,-63.0024 236.5986,-64.8916 240,-67 259.7738,-79.2569 256.64,-92.0995 276,-105 281.5639,-108.7075 287.9532,-111.8325 294.2635,-114.4093"/>
<polygon fill="#191970" stroke="#191970" points="230.2369,-57.9661 219.6519,-57.509 227.6415,-64.4672 230.2369,-57.9661"/>
</g>
<!-- Node41&#45;&gt;Node44 -->
<g id="edge24" class="edge">
<title>Node41&#45;&gt;Node44</title>
<path fill="none" stroke="#191970" d="M233.6666,-62.3245C235.8996,-63.7388 238.0253,-65.2927 240,-67 268.2736,-91.4446 248.5455,-117.6388 276,-143 280.1609,-146.8437 285.1778,-149.9344 290.4065,-152.4127"/>
<polygon fill="#191970" stroke="#191970" points="235.0891,-59.1175 224.6135,-57.5326 231.8143,-65.3042 235.0891,-59.1175"/>
</g>
<!-- Node41&#45;&gt;Node52 -->
<g id="edge39" class="edge">
<title>Node41&#45;&gt;Node52</title>
<path fill="none" stroke="#191970" d="M225.1778,-60.1132C248.7985,-66.178 276.6358,-73.3254 297.0688,-78.5717"/>
<polygon fill="#191970" stroke="#191970" points="225.9029,-56.6859 215.3466,-57.589 224.162,-63.466 225.9029,-56.6859"/>
</g>
<!-- Node42 -->
<g id="node15" class="node">
<title>Node42</title>
<g id="a_node15"><a xlink:href="classFifoOutputPipeline.html" target="_top" xlink:title="FifoOutputPipeline">
<polygon fill="#ffffff" stroke="#000000" points="125,-.5 125,-19.5 231,-19.5 231,-.5 125,-.5"/>
<text text-anchor="middle" x="178" y="-7.5" font-family="Helvetica,sans-Serif" font-size="10.00" fill="#000000">FifoOutputPipeline</text>
</a>
</g>
</g>
<!-- Node42&#45;&gt;Node35 -->
<g id="edge15" class="edge">
<title>Node42&#45;&gt;Node35</title>
<path fill="none" stroke="#191970" d="M233.6666,-24.3245C235.8996,-25.7388 238.0253,-27.2927 240,-29 268.2736,-53.4446 248.5455,-79.6388 276,-105 281.1841,-109.7888 287.6969,-113.4089 294.2926,-116.132"/>
<polygon fill="#191970" stroke="#191970" points="235.0891,-21.1175 224.6135,-19.5326 231.8143,-27.3042 235.0891,-21.1175"/>
</g>
<!-- Node42&#45;&gt;Node44 -->
<g id="edge25" class="edge">
<title>Node42&#45;&gt;Node44</title>
<path fill="none" stroke="#191970" d="M235.2906,-24.9556C236.9535,-26.1982 238.531,-27.5435 240,-29 277.7303,-66.4104 239.5204,-104.3691 276,-143 279.6341,-146.8484 284.1287,-149.925 288.9204,-152.3827"/>
<polygon fill="#191970" stroke="#191970" points="236.7394,-21.7414 226.3716,-19.5597 233.116,-27.7307 236.7394,-21.7414"/>
</g>
<!-- Node50 -->
<g id="node23" class="node">
<title>Node50</title>
<g id="a_node23"><a xlink:href="classFifoXpm.html" target="_top" xlink:title="FifoXpm">
<polygon fill="#ffffff" stroke="#000000" points="298,-38.5 298,-57.5 354,-57.5 354,-38.5 298,-38.5"/>
<text text-anchor="middle" x="326" y="-45.5" font-family="Helvetica,sans-Serif" font-size="10.00" fill="#000000">FifoXpm</text>
</a>
</g>
</g>
<!-- Node42&#45;&gt;Node50 -->
<g id="edge32" class="edge">
<title>Node42&#45;&gt;Node50</title>
<path fill="none" stroke="#191970" d="M225.2462,-22.1308C249.0347,-28.2386 277.0856,-35.4409 297.5408,-40.6929"/>
<polygon fill="#191970" stroke="#191970" points="225.9029,-18.6859 215.3466,-19.589 224.162,-25.466 225.9029,-18.6859"/>
</g>
<!-- Node51 -->
<g id="node24" class="node">
<title>Node51</title>
<g id="a_node24"><a xlink:href="classFifoAlteraMf.html" target="_top" xlink:title="FifoAlteraMf">
<polygon fill="#ffffff" stroke="#000000" points="288.5,-.5 288.5,-19.5 363.5,-19.5 363.5,-.5 288.5,-.5"/>
<text text-anchor="middle" x="326" y="-7.5" font-family="Helvetica,sans-Serif" font-size="10.00" fill="#000000">FifoAlteraMf</text>
</a>
</g>
</g>
<!-- Node42&#45;&gt;Node51 -->
<g id="edge34" class="edge">
<title>Node42&#45;&gt;Node51</title>
<path fill="none" stroke="#191970" d="M241.3687,-10C257.323,-10 273.9506,-10 288.2015,-10"/>
<polygon fill="#191970" stroke="#191970" points="241.0134,-6.5001 231.0134,-10 241.0133,-13.5001 241.0134,-6.5001"/>
</g>
<!-- Node42&#45;&gt;Node52 -->
<g id="edge40" class="edge">
<title>Node42&#45;&gt;Node52</title>
<path fill="none" stroke="#191970" d="M229.1786,-23.3122C232.9464,-25.0024 236.5986,-26.8916 240,-29 259.7738,-41.2569 256.64,-54.0995 276,-67 282.4913,-71.3254 290.1059,-74.858 297.4079,-77.6522"/>
<polygon fill="#191970" stroke="#191970" points="230.2369,-19.9661 219.6519,-19.509 227.6415,-26.4672 230.2369,-19.9661"/>
</g>
<!-- Node42&#45;&gt;Node53 -->
<g id="edge44" class="edge">
<title>Node42&#45;&gt;Node53</title>
<path fill="none" stroke="#191970" d="M236.1833,-25.2894C237.535,-26.4391 238.8124,-27.6739 240,-29 297.3373,-93.0258 220.7992,-153.1233 276,-219 279.2207,-222.8435 283.3073,-225.911 287.7514,-228.3587"/>
<polygon fill="#191970" stroke="#191970" points="237.9867,-22.284 227.7395,-19.5921 234.0715,-28.0867 237.9867,-22.284"/>
</g>
<!-- Node42&#45;&gt;Node54 -->
<g id="edge50" class="edge">
<title>Node42&#45;&gt;Node54</title>
<path fill="none" stroke="#191970" d="M236.0151,-25.2878C237.4225,-26.4376 238.7562,-27.6729 240,-29 287.4743,-79.6552 230.2172,-128.811 276,-181 279.4294,-184.9092 283.751,-188.0173 288.4103,-190.4878"/>
<polygon fill="#191970" stroke="#191970" points="237.5539,-22.1134 227.2629,-19.5941 233.7367,-27.9811 237.5539,-22.1134"/>
</g>
<!-- Node43&#45;&gt;Node28 -->
<g id="edge16" class="edge">
<title>Node43&#45;&gt;Node28</title>
<path fill="none" stroke="#191970" d="M516.038,-208.6067C584.0268,-206.5879 708.6976,-202.3787 815,-196 826.7351,-195.2958 839.6923,-194.2959 850.752,-193.3751"/>
<polygon fill="#191970" stroke="#191970" points="515.5175,-205.1203 505.6243,-208.9119 515.7226,-212.1173 515.5175,-205.1203"/>
</g>
<!-- Node44&#45;&gt;Node43 -->
<g id="edge18" class="edge">
<title>Node44&#45;&gt;Node43</title>
<path fill="none" stroke="#191970" d="M363.4818,-174.897C386.8345,-182.9323 416.3771,-193.0975 437.6537,-200.4185"/>
<polygon fill="#191970" stroke="#191970" points="364.4893,-171.5423 353.8946,-171.5982 362.2117,-178.1614 364.4893,-171.5423"/>
</g>
<!-- Node45&#45;&gt;Node28 -->
<g id="edge26" class="edge">
<title>Node45&#45;&gt;Node28</title>
<path fill="none" stroke="#191970" d="M791.9597,-147.5344C799.5699,-150.8458 807.6117,-154.4586 815,-158 830.4908,-165.4252 847.7306,-174.5984 860.1735,-181.3872"/>
<polygon fill="#191970" stroke="#191970" points="793.2023,-144.259 782.6327,-143.5291 790.4402,-150.691 793.2023,-144.259"/>
</g>
<!-- Node46 -->
<g id="node19" class="node">
<title>Node46</title>
<g id="a_node19"><a xlink:href="classAxiStreamResize.html" target="_top" xlink:title="AxiStreamResize(2)">
<polygon fill="#ffffff" stroke="#000000" points="555,-86.5 555,-105.5 668,-105.5 668,-86.5 555,-86.5"/>
<text text-anchor="middle" x="611.5" y="-93.5" font-family="Helvetica,sans-Serif" font-size="10.00" fill="#000000">AxiStreamResize(2)</text>
</a>
</g>
</g>
<!-- Node46&#45;&gt;Node45 -->
<g id="edge27" class="edge">
<title>Node46&#45;&gt;Node45</title>
<path fill="none" stroke="#191970" d="M658.6735,-108.1121C679.2856,-113.4044 703.1093,-119.5213 722.4219,-124.4799"/>
<polygon fill="#191970" stroke="#191970" points="659.4029,-104.6859 648.8466,-105.589 657.662,-111.466 659.4029,-104.6859"/>
</g>
<!-- Node47 -->
<g id="node20" class="node">
<title>Node47</title>
<g id="a_node20"><a xlink:href="classAxiStreamPipeline.html" target="_top" xlink:title="AxiStreamPipeline">
<polygon fill="#ffffff" stroke="#000000" points="412,-67.5 412,-86.5 519,-86.5 519,-67.5 412,-67.5"/>
<text text-anchor="middle" x="465.5" y="-74.5" font-family="Helvetica,sans-Serif" font-size="10.00" fill="#000000">AxiStreamPipeline</text>
</a>
</g>
</g>
<!-- Node47&#45;&gt;Node45 -->
<g id="edge52" class="edge">
<title>Node47&#45;&gt;Node45</title>
<path fill="none" stroke="#191970" d="M529.0743,-68.1483C569.6087,-64.6505 622.8175,-64.0779 668,-77 700.3895,-86.2633 732.4675,-110.68 748.6591,-124.361"/>
<polygon fill="#191970" stroke="#191970" points="528.6815,-64.6697 519.0547,-69.0941 529.3394,-71.6387 528.6815,-64.6697"/>
</g>
<!-- Node47&#45;&gt;Node46 -->
<g id="edge28" class="edge">
<title>Node47&#45;&gt;Node46</title>
<path fill="none" stroke="#191970" d="M529.2027,-85.2901C537.6312,-86.3869 546.2279,-87.5057 554.5332,-88.5865"/>
<polygon fill="#191970" stroke="#191970" points="529.4041,-81.7869 519.036,-83.967 528.5007,-88.7283 529.4041,-81.7869"/>
</g>
<!-- Node48 -->
<g id="node21" class="node">
<title>Node48</title>
<g id="a_node21"><a xlink:href="classFifoCascade.html" target="_top" xlink:title="FifoCascade(2)">
<polygon fill="#ffffff" stroke="#000000" points="567,-124.5 567,-143.5 656,-143.5 656,-124.5 567,-124.5"/>
<text text-anchor="middle" x="611.5" y="-131.5" font-family="Helvetica,sans-Serif" font-size="10.00" fill="#000000">FifoCascade(2)</text>
</a>
</g>
</g>
<!-- Node48&#45;&gt;Node45 -->
<g id="edge29" class="edge">
<title>Node48&#45;&gt;Node45</title>
<path fill="none" stroke="#191970" d="M666.3735,-134C678.6061,-134 691.5872,-134 703.8507,-134"/>
<polygon fill="#191970" stroke="#191970" points="666.3066,-130.5001 656.3065,-134 666.3065,-137.5001 666.3066,-130.5001"/>
</g>
<!-- Node49&#45;&gt;Node48 -->
<g id="edge30" class="edge">
<title>Node49&#45;&gt;Node48</title>
<path fill="none" stroke="#191970" d="M499.4953,-126.3284C519.5374,-127.7012 545.1329,-129.4543 566.7955,-130.938"/>
<polygon fill="#191970" stroke="#191970" points="499.4982,-122.8205 489.2824,-125.6289 499.0198,-129.8042 499.4982,-122.8205"/>
</g>
<!-- Node50&#45;&gt;Node49 -->
<g id="edge31" class="edge">
<title>Node50&#45;&gt;Node49</title>
<path fill="none" stroke="#191970" d="M363.5789,-60.7896C367.8608,-62.6809 372.0879,-64.7568 376,-67 393.8234,-77.22 394.8159,-84.7381 412,-96 422.4341,-102.8382 434.728,-109.3692 444.8981,-114.4011"/>
<polygon fill="#191970" stroke="#191970" points="364.7991,-57.5072 354.2189,-56.9508 362.1429,-63.9837 364.7991,-57.5072"/>
</g>
<!-- Node51&#45;&gt;Node49 -->
<g id="edge33" class="edge">
<title>Node51&#45;&gt;Node49</title>
<path fill="none" stroke="#191970" d="M369.7912,-24.3531C371.9876,-25.7662 374.0765,-27.3114 376,-29 401.4042,-51.3012 387.9671,-72.2274 412,-96 420.422,-104.3308 431.8329,-110.7626 441.9531,-115.3486"/>
<polygon fill="#191970" stroke="#191970" points="371.368,-21.2267 360.9094,-19.5333 368.0293,-27.3792 371.368,-21.2267"/>
</g>
<!-- Node52&#45;&gt;Node49 -->
<g id="edge36" class="edge">
<title>Node52&#45;&gt;Node49</title>
<path fill="none" stroke="#191970" d="M364.357,-96.4485C389.0649,-103.179 420.4138,-111.7185 441.612,-117.4929"/>
<polygon fill="#191970" stroke="#191970" points="365.1349,-93.0329 354.5665,-93.7816 363.2951,-99.7868 365.1349,-93.0329"/>
</g>
<!-- Node53&#45;&gt;Node49 -->
<g id="edge41" class="edge">
<title>Node53&#45;&gt;Node49</title>
<path fill="none" stroke="#191970" d="M366.8648,-224.2839C370.0473,-222.6753 373.1338,-220.9157 376,-219 412.548,-194.5728 445.101,-152.6115 458.7251,-133.7193"/>
<polygon fill="#191970" stroke="#191970" points="365.4053,-221.1026 357.7445,-228.4213 368.2972,-227.4773 365.4053,-221.1026"/>
</g>
<!-- Node54&#45;&gt;Node49 -->
<g id="edge45" class="edge">
<title>Node54&#45;&gt;Node49</title>
<path fill="none" stroke="#191970" d="M363.5,-186.7111C367.7712,-184.9155 372.0175,-182.9986 376,-181 404.4842,-166.7055 435.3431,-145.7001 452.359,-133.5821"/>
<polygon fill="#191970" stroke="#191970" points="362.1857,-183.4672 354.2026,-190.4329 364.7871,-189.9659 362.1857,-183.4672"/>
</g>
<!-- Node55&#45;&gt;Node54 -->
<g id="edge46" class="edge">
<title>Node55&#45;&gt;Node54</title>
<path fill="none" stroke="#191970" d="M222.2298,-265.5466C228.4266,-263.2073 234.5368,-260.3864 240,-257 259.7738,-244.7431 256.64,-231.9005 276,-219 281.5639,-215.2925 287.9532,-212.1675 294.2635,-209.5907"/>
<polygon fill="#191970" stroke="#191970" points="220.8518,-262.3179 212.5011,-268.8382 223.0953,-268.9486 220.8518,-262.3179"/>
</g>
</g>
</svg>
