<?xml version="1.0" encoding="UTF-8" standalone="no"?>
<!DOCTYPE svg PUBLIC "-//W3C//DTD SVG 1.1//EN"
 "http://www.w3.org/Graphics/SVG/1.1/DTD/svg11.dtd">
<!-- Generated by graphviz version 2.43.0 (0)
 -->
<!-- Title: Gtp7RxRstSeq Pages: 1 -->
<svg width="118pt" height="140pt"
 viewBox="0.00 0.00 117.50 140.00" xmlns="http://www.w3.org/2000/svg" xmlns:xlink="http://www.w3.org/1999/xlink">
<g id="graph0" class="graph" transform="scale(1 1) rotate(0) translate(4 136)">
<title>Gtp7RxRstSeq</title>
<polygon fill="white" stroke="transparent" points="-4,4 -4,-136 113.5,-136 113.5,4 -4,4"/>
<!-- Node1 -->
<g id="node1" class="node">
<title>Node1</title>
<g id="a_node1"><a xlink:title=" ">
<polygon fill="#bfbfbf" stroke="black" points="0,-0.5 0,-19.5 86,-19.5 86,-0.5 0,-0.5"/>
<text text-anchor="middle" x="43" y="-7.5" font-family="Helvetica,sans-Serif" font-size="10.00">Gtp7RxRstSeq</text>
</a>
</g>
</g>
<!-- Node2 -->
<g id="node2" class="node">
<title>Node2</title>
<g id="a_node2"><a xlink:href="classSynchronizer.html" target="_top" xlink:title=" ">
<polygon fill="white" stroke="black" points="3,-112.5 3,-131.5 83,-131.5 83,-112.5 3,-112.5"/>
<text text-anchor="middle" x="43" y="-119.5" font-family="Helvetica,sans-Serif" font-size="10.00">Synchronizer</text>
</a>
</g>
</g>
<!-- Node2&#45;&gt;Node1 -->
<g id="edge1" class="edge">
<title>Node2&#45;&gt;Node1</title>
<path fill="none" stroke="midnightblue" d="M36.48,-102.61C32.65,-89.64 28.93,-71.82 31,-56 32.68,-43.17 36.95,-28.8 39.91,-19.83"/>
<polygon fill="midnightblue" stroke="midnightblue" points="33.18,-103.78 39.6,-112.21 39.84,-101.62 33.18,-103.78"/>
</g>
<!-- Node3 -->
<g id="node3" class="node">
<title>Node3</title>
<g id="a_node3"><a xlink:href="classRstSync.html" target="_top" xlink:title=" ">
<polygon fill="white" stroke="black" points="40.5,-56.5 40.5,-75.5 109.5,-75.5 109.5,-56.5 40.5,-56.5"/>
<text text-anchor="middle" x="75" y="-63.5" font-family="Helvetica,sans-Serif" font-size="10.00">RstSync(2)</text>
</a>
</g>
</g>
<!-- Node2&#45;&gt;Node3 -->
<g id="edge3" class="edge">
<title>Node2&#45;&gt;Node3</title>
<path fill="none" stroke="midnightblue" d="M53.5,-103.27C58.97,-94.05 65.42,-83.17 69.81,-75.75"/>
<polygon fill="midnightblue" stroke="midnightblue" points="50.37,-101.7 48.28,-112.08 56.39,-105.26 50.37,-101.7"/>
</g>
<!-- Node3&#45;&gt;Node1 -->
<g id="edge2" class="edge">
<title>Node3&#45;&gt;Node1</title>
<path fill="none" stroke="midnightblue" d="M64.5,-47.27C59.03,-38.05 52.58,-27.17 48.19,-19.75"/>
<polygon fill="midnightblue" stroke="midnightblue" points="61.61,-49.26 69.72,-56.08 67.63,-45.7 61.61,-49.26"/>
</g>
</g>
</svg>
