<?xml version="1.0" encoding="UTF-8" standalone="no"?>
<!DOCTYPE svg PUBLIC "-//W3C//DTD SVG 1.1//EN"
 "http://www.w3.org/Graphics/SVG/1.1/DTD/svg11.dtd">
<!-- Generated by graphviz version 2.40.1 (20161225.0304)
 -->
<!-- Title: BoxcarIntegrator Pages: 1 -->
<svg width="216pt" height="196pt"
 viewBox="0.00 0.00 216.00 196.00" xmlns="http://www.w3.org/2000/svg" xmlns:xlink="http://www.w3.org/1999/xlink">
<g id="graph0" class="graph" transform="scale(1 1) rotate(0) translate(4 192)">
<title>BoxcarIntegrator</title>
<polygon fill="#ffffff" stroke="transparent" points="-4,4 -4,-192 212,-192 212,4 -4,4"/>
<!-- Node0 -->
<g id="node1" class="node">
<title>Node0</title>
<polygon fill="#bfbfbf" stroke="#000000" points="49,-112.5 49,-131.5 147,-131.5 147,-112.5 49,-112.5"/>
<text text-anchor="middle" x="98" y="-119.5" font-family="Helvetica,sans-Serif" font-size="10.00" fill="#000000">BoxcarIntegrator</text>
</g>
<!-- Node2 -->
<g id="node3" class="node">
<title>Node2</title>
<g id="a_node3"><a xlink:href="classBoxcarFilter.html" target="_top" xlink:title="BoxcarFilter">
<polygon fill="#ffffff" stroke="#000000" points="6,-56.5 6,-75.5 80,-75.5 80,-56.5 6,-56.5"/>
<text text-anchor="middle" x="43" y="-63.5" font-family="Helvetica,sans-Serif" font-size="10.00" fill="#000000">BoxcarFilter</text>
</a>
</g>
</g>
<!-- Node0&#45;&gt;Node2 -->
<g id="edge2" class="edge">
<title>Node0&#45;&gt;Node2</title>
<path fill="none" stroke="#191970" d="M81.3774,-105.0751C71.9145,-95.4402 60.4031,-83.7196 52.4705,-75.6427"/>
<polygon fill="#191970" stroke="#191970" points="78.9155,-107.5635 88.4197,-112.2455 83.9097,-102.6585 78.9155,-107.5635"/>
</g>
<!-- Node4 -->
<g id="node5" class="node">
<title>Node4</title>
<g id="a_node5"><a xlink:href="classBoxcarIntegratorTb.html" target="_top" xlink:title="BoxcarIntegratorTb">
<polygon fill="#ffffff" stroke="#000000" points="98,-56.5 98,-75.5 208,-75.5 208,-56.5 98,-56.5"/>
<text text-anchor="middle" x="153" y="-63.5" font-family="Helvetica,sans-Serif" font-size="10.00" fill="#000000">BoxcarIntegratorTb</text>
</a>
</g>
</g>
<!-- Node0&#45;&gt;Node4 -->
<g id="edge4" class="edge">
<title>Node0&#45;&gt;Node4</title>
<path fill="none" stroke="#191970" d="M114.6226,-105.0751C124.0855,-95.4402 135.5969,-83.7196 143.5295,-75.6427"/>
<polygon fill="#191970" stroke="#191970" points="112.0903,-102.6585 107.5803,-112.2455 117.0845,-107.5635 112.0903,-102.6585"/>
</g>
<!-- Node1 -->
<g id="node2" class="node">
<title>Node1</title>
<g id="a_node2"><a xlink:href="classSimpleDualPortRam.html" target="_top" xlink:title="SimpleDualPortRam">
<polygon fill="#ffffff" stroke="#000000" points="40.5,-168.5 40.5,-187.5 155.5,-187.5 155.5,-168.5 40.5,-168.5"/>
<text text-anchor="middle" x="98" y="-175.5" font-family="Helvetica,sans-Serif" font-size="10.00" fill="#000000">SimpleDualPortRam</text>
</a>
</g>
</g>
<!-- Node1&#45;&gt;Node0 -->
<g id="edge1" class="edge">
<title>Node1&#45;&gt;Node0</title>
<path fill="none" stroke="#191970" d="M98,-158.1575C98,-149.155 98,-138.9199 98,-131.6427"/>
<polygon fill="#191970" stroke="#191970" points="94.5001,-158.2455 98,-168.2455 101.5001,-158.2456 94.5001,-158.2455"/>
</g>
<!-- Node3 -->
<g id="node4" class="node">
<title>Node3</title>
<g id="a_node4"><a xlink:href="classBoxcarFilterTb.html" target="_top" xlink:title="BoxcarFilterTb">
<polygon fill="#ffffff" stroke="#000000" points="0,-.5 0,-19.5 86,-19.5 86,-.5 0,-.5"/>
<text text-anchor="middle" x="43" y="-7.5" font-family="Helvetica,sans-Serif" font-size="10.00" fill="#000000">BoxcarFilterTb</text>
</a>
</g>
</g>
<!-- Node2&#45;&gt;Node3 -->
<g id="edge3" class="edge">
<title>Node2&#45;&gt;Node3</title>
<path fill="none" stroke="#191970" d="M43,-46.1575C43,-37.155 43,-26.9199 43,-19.6427"/>
<polygon fill="#191970" stroke="#191970" points="39.5001,-46.2455 43,-56.2455 46.5001,-46.2456 39.5001,-46.2455"/>
</g>
</g>
</svg>
