<?xml version="1.0" encoding="UTF-8" standalone="no"?>
<!DOCTYPE svg PUBLIC "-//W3C//DTD SVG 1.1//EN"
 "http://www.w3.org/Graphics/SVG/1.1/DTD/svg11.dtd">
<!-- Generated by graphviz version 2.40.1 (20161225.0304)
 -->
<!-- Title: GLinkEncoder Pages: 1 -->
<svg width="340pt" height="140pt"
 viewBox="0.00 0.00 340.00 140.00" xmlns="http://www.w3.org/2000/svg" xmlns:xlink="http://www.w3.org/1999/xlink">
<g id="graph0" class="graph" transform="scale(1 1) rotate(0) translate(4 136)">
<title>GLinkEncoder</title>
<polygon fill="#ffffff" stroke="transparent" points="-4,4 -4,-136 336,-136 336,4 -4,4"/>
<!-- Node0 -->
<g id="node1" class="node">
<title>Node0</title>
<polygon fill="#bfbfbf" stroke="#000000" points="138.5,-112.5 138.5,-131.5 221.5,-131.5 221.5,-112.5 138.5,-112.5"/>
<text text-anchor="middle" x="180" y="-119.5" font-family="Helvetica,sans-Serif" font-size="10.00" fill="#000000">GLinkEncoder</text>
</g>
<!-- Node1 -->
<g id="node2" class="node">
<title>Node1</title>
<g id="a_node2"><a xlink:href="classGLinkGtp7FixedLat.html" target="_top" xlink:title="GLinkGtp7FixedLat">
<polygon fill="#ffffff" stroke="#000000" points="0,-56.5 0,-75.5 108,-75.5 108,-56.5 0,-56.5"/>
<text text-anchor="middle" x="54" y="-63.5" font-family="Helvetica,sans-Serif" font-size="10.00" fill="#000000">GLinkGtp7FixedLat</text>
</a>
</g>
</g>
<!-- Node0&#45;&gt;Node1 -->
<g id="edge1" class="edge">
<title>Node0&#45;&gt;Node1</title>
<path fill="none" stroke="#191970" d="M149.0564,-108.2473C126.1735,-98.0771 95.5986,-84.4883 75.3775,-75.5011"/>
<polygon fill="#191970" stroke="#191970" points="147.7802,-111.5102 158.3398,-112.3733 150.6232,-105.1135 147.7802,-111.5102"/>
</g>
<!-- Node2 -->
<g id="node3" class="node">
<title>Node2</title>
<g id="a_node3"><a xlink:href="classGLinkGtx7FixedLat.html" target="_top" xlink:title="GLinkGtx7FixedLat">
<polygon fill="#ffffff" stroke="#000000" points="126,-56.5 126,-75.5 234,-75.5 234,-56.5 126,-56.5"/>
<text text-anchor="middle" x="180" y="-63.5" font-family="Helvetica,sans-Serif" font-size="10.00" fill="#000000">GLinkGtx7FixedLat</text>
</a>
</g>
</g>
<!-- Node0&#45;&gt;Node2 -->
<g id="edge2" class="edge">
<title>Node0&#45;&gt;Node2</title>
<path fill="none" stroke="#191970" d="M180,-102.1575C180,-93.155 180,-82.9199 180,-75.6427"/>
<polygon fill="#191970" stroke="#191970" points="176.5001,-102.2455 180,-112.2455 183.5001,-102.2456 176.5001,-102.2455"/>
</g>
<!-- Node4 -->
<g id="node5" class="node">
<title>Node4</title>
<g id="a_node5"><a xlink:href="classGLinkTxToRx.html" target="_top" xlink:title="GLinkTxToRx">
<polygon fill="#ffffff" stroke="#000000" points="252,-56.5 252,-75.5 332,-75.5 332,-56.5 252,-56.5"/>
<text text-anchor="middle" x="292" y="-63.5" font-family="Helvetica,sans-Serif" font-size="10.00" fill="#000000">GLinkTxToRx</text>
</a>
</g>
</g>
<!-- Node0&#45;&gt;Node4 -->
<g id="edge4" class="edge">
<title>Node0&#45;&gt;Node4</title>
<path fill="none" stroke="#191970" d="M208.3263,-107.8368C228.5721,-97.7139 255.2642,-84.3679 272.9978,-75.5011"/>
<polygon fill="#191970" stroke="#191970" points="206.6325,-104.7706 199.2535,-112.3733 209.763,-111.0316 206.6325,-104.7706"/>
</g>
<!-- Node3 -->
<g id="node4" class="node">
<title>Node3</title>
<g id="a_node4"><a xlink:href="classGLinkGtx7FixedLatTb.html" target="_top" xlink:title="GLinkGtx7FixedLatTb">
<polygon fill="#ffffff" stroke="#000000" points="120,-.5 120,-19.5 240,-19.5 240,-.5 120,-.5"/>
<text text-anchor="middle" x="180" y="-7.5" font-family="Helvetica,sans-Serif" font-size="10.00" fill="#000000">GLinkGtx7FixedLatTb</text>
</a>
</g>
</g>
<!-- Node2&#45;&gt;Node3 -->
<g id="edge3" class="edge">
<title>Node2&#45;&gt;Node3</title>
<path fill="none" stroke="#191970" d="M180,-46.1575C180,-37.155 180,-26.9199 180,-19.6427"/>
<polygon fill="#191970" stroke="#191970" points="176.5001,-46.2455 180,-56.2455 183.5001,-46.2456 176.5001,-46.2455"/>
</g>
</g>
</svg>
