<?xml version="1.0" encoding="UTF-8" standalone="no"?>
<!DOCTYPE svg PUBLIC "-//W3C//DTD SVG 1.1//EN"
 "http://www.w3.org/Graphics/SVG/1.1/DTD/svg11.dtd">
<!-- Generated by graphviz version 2.40.1 (20161225.0304)
 -->
<!-- Title: FifoWrFsm Pages: 1 -->
<svg width="742pt" height="1130pt"
 viewBox="0.00 0.00 742.00 1130.00" xmlns="http://www.w3.org/2000/svg" xmlns:xlink="http://www.w3.org/1999/xlink">
<g id="graph0" class="graph" transform="scale(1 1) rotate(0) translate(4 1126)">
<title>FifoWrFsm</title>
<polygon fill="#ffffff" stroke="transparent" points="-4,4 -4,-1126 738,-1126 738,4 -4,4"/>
<!-- Node0 -->
<g id="node1" class="node">
<title>Node0</title>
<polygon fill="#bfbfbf" stroke="#000000" points="0,-893.5 0,-912.5 67,-912.5 67,-893.5 0,-893.5"/>
<text text-anchor="middle" x="33.5" y="-900.5" font-family="Helvetica,sans-Serif" font-size="10.00" fill="#000000">FifoWrFsm</text>
</g>
<!-- Node1 -->
<g id="node2" class="node">
<title>Node1</title>
<g id="a_node2"><a xlink:href="classFifoAsync.html" target="_top" xlink:title="FifoAsync">
<polygon fill="#ffffff" stroke="#000000" points="103,-760.5 103,-779.5 166,-779.5 166,-760.5 103,-760.5"/>
<text text-anchor="middle" x="134.5" y="-767.5" font-family="Helvetica,sans-Serif" font-size="10.00" fill="#000000">FifoAsync</text>
</a>
</g>
</g>
<!-- Node0&#45;&gt;Node1 -->
<g id="edge1" class="edge">
<title>Node0&#45;&gt;Node1</title>
<path fill="none" stroke="#191970" d="M47.0103,-885.2093C68.5817,-856.8033 110.094,-802.1386 127.0296,-779.8372"/>
<polygon fill="#191970" stroke="#191970" points="44.0241,-883.3543 40.7637,-893.435 49.5989,-887.5878 44.0241,-883.3543"/>
</g>
<!-- Node231 -->
<g id="node46" class="node">
<title>Node231</title>
<g id="a_node46"><a xlink:href="classFifoSync.html" target="_top" xlink:title="FifoSync">
<polygon fill="#ffffff" stroke="#000000" points="106,-1026.5 106,-1045.5 163,-1045.5 163,-1026.5 106,-1026.5"/>
<text text-anchor="middle" x="134.5" y="-1033.5" font-family="Helvetica,sans-Serif" font-size="10.00" fill="#000000">FifoSync</text>
</a>
</g>
</g>
<!-- Node0&#45;&gt;Node231 -->
<g id="edge51" class="edge">
<title>Node0&#45;&gt;Node231</title>
<path fill="none" stroke="#191970" d="M47.0103,-920.7907C68.5817,-949.1967 110.094,-1003.8614 127.0296,-1026.1628"/>
<polygon fill="#191970" stroke="#191970" points="49.5989,-918.4122 40.7637,-912.565 44.0241,-922.6457 49.5989,-918.4122"/>
</g>
<!-- Node2 -->
<g id="node3" class="node">
<title>Node2</title>
<g id="a_node3"><a xlink:href="classAsyncGearbox.html" target="_top" xlink:title="AsyncGearbox">
<polygon fill="#ffffff" stroke="#000000" points="217.5,-684.5 217.5,-703.5 304.5,-703.5 304.5,-684.5 217.5,-684.5"/>
<text text-anchor="middle" x="261" y="-691.5" font-family="Helvetica,sans-Serif" font-size="10.00" fill="#000000">AsyncGearbox</text>
</a>
</g>
</g>
<!-- Node1&#45;&gt;Node2 -->
<g id="edge2" class="edge">
<title>Node1&#45;&gt;Node2</title>
<path fill="none" stroke="#191970" d="M150.8388,-752.992C163.7174,-740.4307 182.6726,-723.7199 202,-713 208.7756,-709.242 216.4069,-706.0949 223.8766,-703.5124"/>
<polygon fill="#191970" stroke="#191970" points="148.2446,-750.6366 143.6562,-760.1863 153.1984,-755.5823 148.2446,-750.6366"/>
</g>
<!-- Node6 -->
<g id="node7" class="node">
<title>Node6</title>
<g id="a_node7"><a xlink:href="classAxiLiteAsync.html" target="_top" xlink:title="AxiLiteAsync">
<polygon fill="#ffffff" stroke="#000000" points="221,-323.5 221,-342.5 301,-342.5 301,-323.5 221,-323.5"/>
<text text-anchor="middle" x="261" y="-330.5" font-family="Helvetica,sans-Serif" font-size="10.00" fill="#000000">AxiLiteAsync</text>
</a>
</g>
</g>
<!-- Node1&#45;&gt;Node6 -->
<g id="edge6" class="edge">
<title>Node1&#45;&gt;Node6</title>
<path fill="none" stroke="#191970" d="M140.0582,-750.7988C161.9841,-675.0551 242.0644,-398.4141 258.1678,-342.7839"/>
<polygon fill="#191970" stroke="#191970" points="136.6785,-749.8874 137.2598,-760.4662 143.4024,-751.8338 136.6785,-749.8874"/>
</g>
<!-- Node84 -->
<g id="node23" class="node">
<title>Node84</title>
<g id="a_node23"><a xlink:href="classFifo.html" target="_top" xlink:title="Fifo">
<polygon fill="#ffffff" stroke="#000000" points="244,-988.5 244,-1007.5 278,-1007.5 278,-988.5 244,-988.5"/>
<text text-anchor="middle" x="261" y="-995.5" font-family="Helvetica,sans-Serif" font-size="10.00" fill="#000000">Fifo</text>
</a>
</g>
</g>
<!-- Node1&#45;&gt;Node84 -->
<g id="edge23" class="edge">
<title>Node1&#45;&gt;Node84</title>
<path fill="none" stroke="#191970" d="M138.4929,-789.7993C148.277,-836.5039 174.6515,-951.6746 202,-979 213.1142,-990.1048 230.7414,-994.7231 243.8377,-996.6416"/>
<polygon fill="#191970" stroke="#191970" points="141.8646,-788.8193 136.4199,-779.7306 135.0084,-790.231 141.8646,-788.8193"/>
</g>
<!-- Node171 -->
<g id="node31" class="node">
<title>Node171</title>
<g id="a_node31"><a xlink:href="classGearboxTb.html" target="_top" xlink:title="GearboxTb">
<polygon fill="#ffffff" stroke="#000000" points="226,-950.5 226,-969.5 296,-969.5 296,-950.5 226,-950.5"/>
<text text-anchor="middle" x="261" y="-957.5" font-family="Helvetica,sans-Serif" font-size="10.00" fill="#000000">GearboxTb</text>
</a>
</g>
</g>
<!-- Node1&#45;&gt;Node171 -->
<g id="edge32" class="edge">
<title>Node1&#45;&gt;Node171</title>
<path fill="none" stroke="#191970" d="M136.7928,-789.7462C141.9422,-825.1114 157.6694,-899.4367 202,-941 208.5943,-947.1826 217.2133,-951.3536 225.8185,-954.1673"/>
<polygon fill="#191970" stroke="#191970" points="140.2485,-789.1798 135.4698,-779.7239 133.3087,-790.096 140.2485,-789.1798"/>
</g>
<!-- Node172 -->
<g id="node32" class="node">
<title>Node172</title>
<g id="a_node32"><a xlink:href="classiq16bTo32b.html" target="_top" xlink:title="iq16bTo32b">
<polygon fill="#ffffff" stroke="#000000" points="225,-912.5 225,-931.5 297,-931.5 297,-912.5 225,-912.5"/>
<text text-anchor="middle" x="261" y="-919.5" font-family="Helvetica,sans-Serif" font-size="10.00" fill="#000000">iq16bTo32b</text>
</a>
</g>
</g>
<!-- Node1&#45;&gt;Node172 -->
<g id="edge33" class="edge">
<title>Node1&#45;&gt;Node172</title>
<path fill="none" stroke="#191970" d="M139.2022,-789.353C147.2034,-818.2266 166.1928,-872.4493 202,-903 208.5491,-908.5877 216.7667,-912.5385 224.9705,-915.3299"/>
<polygon fill="#191970" stroke="#191970" points="142.5761,-788.4204 136.6614,-779.6302 135.8035,-790.1902 142.5761,-788.4204"/>
</g>
<!-- Node173 -->
<g id="node33" class="node">
<title>Node173</title>
<g id="a_node33"><a xlink:href="classiq32bTo16b.html" target="_top" xlink:title="iq32bTo16b">
<polygon fill="#ffffff" stroke="#000000" points="225,-874.5 225,-893.5 297,-893.5 297,-874.5 225,-874.5"/>
<text text-anchor="middle" x="261" y="-881.5" font-family="Helvetica,sans-Serif" font-size="10.00" fill="#000000">iq32bTo16b</text>
</a>
</g>
</g>
<!-- Node1&#45;&gt;Node173 -->
<g id="edge34" class="edge">
<title>Node1&#45;&gt;Node173</title>
<path fill="none" stroke="#191970" d="M143.159,-788.7081C153.9966,-810.1361 174.5253,-844.8711 202,-865 208.7709,-869.9606 216.8931,-873.6622 224.9144,-876.4115"/>
<polygon fill="#191970" stroke="#191970" points="146.2703,-787.1026 138.7501,-779.6396 139.9749,-790.1634 146.2703,-787.1026"/>
</g>
<!-- Node174 -->
<g id="node34" class="node">
<title>Node174</title>
<g id="a_node34"><a xlink:href="classJesd16bTo32b.html" target="_top" xlink:title="Jesd16bTo32b">
<polygon fill="#ffffff" stroke="#000000" points="219.5,-836.5 219.5,-855.5 302.5,-855.5 302.5,-836.5 219.5,-836.5"/>
<text text-anchor="middle" x="261" y="-843.5" font-family="Helvetica,sans-Serif" font-size="10.00" fill="#000000">Jesd16bTo32b</text>
</a>
</g>
</g>
<!-- Node1&#45;&gt;Node174 -->
<g id="edge35" class="edge">
<title>Node1&#45;&gt;Node174</title>
<path fill="none" stroke="#191970" d="M150.8388,-787.008C163.7174,-799.5693 182.6726,-816.2801 202,-827 208.7756,-830.758 216.4069,-833.9051 223.8766,-836.4876"/>
<polygon fill="#191970" stroke="#191970" points="153.1984,-784.4177 143.6562,-779.8137 148.2446,-789.3634 153.1984,-784.4177"/>
</g>
<!-- Node175 -->
<g id="node35" class="node">
<title>Node175</title>
<g id="a_node35"><a xlink:href="classJesd32bTo16b.html" target="_top" xlink:title="Jesd32bTo16b">
<polygon fill="#ffffff" stroke="#000000" points="219.5,-798.5 219.5,-817.5 302.5,-817.5 302.5,-798.5 219.5,-798.5"/>
<text text-anchor="middle" x="261" y="-805.5" font-family="Helvetica,sans-Serif" font-size="10.00" fill="#000000">Jesd32bTo16b</text>
</a>
</g>
</g>
<!-- Node1&#45;&gt;Node175 -->
<g id="edge36" class="edge">
<title>Node1&#45;&gt;Node175</title>
<path fill="none" stroke="#191970" d="M175.9857,-782.4621C193.3532,-787.6792 213.2139,-793.6453 229.3694,-798.4983"/>
<polygon fill="#191970" stroke="#191970" points="176.6792,-779.016 166.095,-779.491 174.6652,-785.72 176.6792,-779.016"/>
</g>
<!-- Node176 -->
<g id="node36" class="node">
<title>Node176</title>
<g id="a_node36"><a xlink:href="classJesd32bTo64b.html" target="_top" xlink:title="Jesd32bTo64b">
<polygon fill="#ffffff" stroke="#000000" points="219.5,-760.5 219.5,-779.5 302.5,-779.5 302.5,-760.5 219.5,-760.5"/>
<text text-anchor="middle" x="261" y="-767.5" font-family="Helvetica,sans-Serif" font-size="10.00" fill="#000000">Jesd32bTo64b</text>
</a>
</g>
</g>
<!-- Node1&#45;&gt;Node176 -->
<g id="edge37" class="edge">
<title>Node1&#45;&gt;Node176</title>
<path fill="none" stroke="#191970" d="M176.3106,-770C190.1317,-770 205.5018,-770 219.3136,-770"/>
<polygon fill="#191970" stroke="#191970" points="176.095,-766.5001 166.095,-770 176.0949,-773.5001 176.095,-766.5001"/>
</g>
<!-- Node177 -->
<g id="node37" class="node">
<title>Node177</title>
<g id="a_node37"><a xlink:href="classJesd64bTo32b.html" target="_top" xlink:title="Jesd64bTo32b">
<polygon fill="#ffffff" stroke="#000000" points="219.5,-722.5 219.5,-741.5 302.5,-741.5 302.5,-722.5 219.5,-722.5"/>
<text text-anchor="middle" x="261" y="-729.5" font-family="Helvetica,sans-Serif" font-size="10.00" fill="#000000">Jesd64bTo32b</text>
</a>
</g>
</g>
<!-- Node1&#45;&gt;Node177 -->
<g id="edge38" class="edge">
<title>Node1&#45;&gt;Node177</title>
<path fill="none" stroke="#191970" d="M175.9857,-757.5379C193.3532,-752.3208 213.2139,-746.3547 229.3694,-741.5017"/>
<polygon fill="#191970" stroke="#191970" points="174.6652,-754.28 166.095,-760.509 176.6792,-760.984 174.6652,-754.28"/>
</g>
<!-- Node178 -->
<g id="node38" class="node">
<title>Node178</title>
<g id="a_node38"><a xlink:href="classPgp3Gtp7RxGearbox.html" target="_top" xlink:title="Pgp3Gtp7RxGearbox">
<polygon fill="#ffffff" stroke="#000000" points="202,-608.5 202,-627.5 320,-627.5 320,-608.5 202,-608.5"/>
<text text-anchor="middle" x="261" y="-615.5" font-family="Helvetica,sans-Serif" font-size="10.00" fill="#000000">Pgp3Gtp7RxGearbox</text>
</a>
</g>
</g>
<!-- Node1&#45;&gt;Node178 -->
<g id="edge39" class="edge">
<title>Node1&#45;&gt;Node178</title>
<path fill="none" stroke="#191970" d="M139.2022,-750.647C147.2034,-721.7734 166.1928,-667.5507 202,-637 206.5844,-633.0886 211.9863,-629.9793 217.6288,-627.5083"/>
<polygon fill="#191970" stroke="#191970" points="135.8035,-749.8098 136.6614,-760.3698 142.5761,-751.5796 135.8035,-749.8098"/>
</g>
<!-- Node179 -->
<g id="node39" class="node">
<title>Node179</title>
<g id="a_node39"><a xlink:href="classPgp3Gtp7TxGearbox.html" target="_top" xlink:title="Pgp3Gtp7TxGearbox">
<polygon fill="#ffffff" stroke="#000000" points="202.5,-570.5 202.5,-589.5 319.5,-589.5 319.5,-570.5 202.5,-570.5"/>
<text text-anchor="middle" x="261" y="-577.5" font-family="Helvetica,sans-Serif" font-size="10.00" fill="#000000">Pgp3Gtp7TxGearbox</text>
</a>
</g>
</g>
<!-- Node1&#45;&gt;Node179 -->
<g id="edge41" class="edge">
<title>Node1&#45;&gt;Node179</title>
<path fill="none" stroke="#191970" d="M136.7928,-750.2538C141.9422,-714.8886 157.6694,-640.5633 202,-599 206.1607,-595.0991 211.1274,-591.999 216.3881,-589.5353"/>
<polygon fill="#191970" stroke="#191970" points="133.3087,-749.904 135.4698,-760.2761 140.2485,-750.8202 133.3087,-749.904"/>
</g>
<!-- Node180 -->
<g id="node40" class="node">
<title>Node180</title>
<g id="a_node40"><a xlink:href="classPgp3RxEb.html" target="_top" xlink:title="Pgp3RxEb">
<polygon fill="#ffffff" stroke="#000000" points="228.5,-133.5 228.5,-152.5 293.5,-152.5 293.5,-133.5 228.5,-133.5"/>
<text text-anchor="middle" x="261" y="-140.5" font-family="Helvetica,sans-Serif" font-size="10.00" fill="#000000">Pgp3RxEb</text>
</a>
</g>
</g>
<!-- Node1&#45;&gt;Node180 -->
<g id="edge43" class="edge">
<title>Node1&#45;&gt;Node180</title>
<path fill="none" stroke="#191970" d="M136.1317,-749.9486C141.6391,-685.7481 161.5036,-479.7705 202,-314 217.3528,-251.154 246.201,-178.7245 256.8841,-152.8291"/>
<polygon fill="#191970" stroke="#191970" points="132.6163,-749.9873 135.2688,-760.2447 139.5919,-750.572 132.6163,-749.9873"/>
</g>
<!-- Node184 -->
<g id="node42" class="node">
<title>Node184</title>
<g id="a_node42"><a xlink:href="classSynchronizerFifo.html" target="_top" xlink:title="SynchronizerFifo">
<polygon fill="#ffffff" stroke="#ff0000" points="212.5,-646.5 212.5,-665.5 309.5,-665.5 309.5,-646.5 212.5,-646.5"/>
<text text-anchor="middle" x="261" y="-653.5" font-family="Helvetica,sans-Serif" font-size="10.00" fill="#000000">SynchronizerFifo</text>
</a>
</g>
</g>
<!-- Node1&#45;&gt;Node184 -->
<g id="edge45" class="edge">
<title>Node1&#45;&gt;Node184</title>
<path fill="none" stroke="#191970" d="M143.159,-751.2919C153.9966,-729.8639 174.5253,-695.1289 202,-675 207.2952,-671.1205 213.4168,-668.0111 219.6704,-665.525"/>
<polygon fill="#191970" stroke="#191970" points="139.9749,-749.8366 138.7501,-760.3604 146.2703,-752.8974 139.9749,-749.8366"/>
</g>
<!-- Node3 -->
<g id="node4" class="node">
<title>Node3</title>
<g id="a_node4"><a xlink:href="classClinkDataShift.html" target="_top" xlink:title="ClinkDataShift">
<polygon fill="#ffffff" stroke="#ff0000" points="380,-798.5 380,-817.5 467,-817.5 467,-798.5 380,-798.5"/>
<text text-anchor="middle" x="423.5" y="-805.5" font-family="Helvetica,sans-Serif" font-size="10.00" fill="#000000">ClinkDataShift</text>
</a>
</g>
</g>
<!-- Node2&#45;&gt;Node3 -->
<g id="edge3" class="edge">
<title>Node2&#45;&gt;Node3</title>
<path fill="none" stroke="#191970" d="M313.7403,-708.3235C315.9512,-709.7384 318.0533,-711.2926 320,-713 348.0996,-737.6445 327.4473,-764.8819 356,-789 362.7892,-794.7348 371.1952,-798.7439 379.7437,-801.5452"/>
<polygon fill="#191970" stroke="#191970" points="315.2399,-705.1565 304.7709,-703.5284 311.9396,-711.3297 315.2399,-705.1565"/>
</g>
<!-- Node4 -->
<g id="node5" class="node">
<title>Node4</title>
<g id="a_node5"><a xlink:href="classClinkData.html" target="_top" xlink:title="ClinkData">
<polygon fill="#ffffff" stroke="#000000" points="551,-798.5 551,-817.5 616,-817.5 616,-798.5 551,-798.5"/>
<text text-anchor="middle" x="583.5" y="-805.5" font-family="Helvetica,sans-Serif" font-size="10.00" fill="#000000">ClinkData</text>
</a>
</g>
</g>
<!-- Node3&#45;&gt;Node4 -->
<g id="edge4" class="edge">
<title>Node3&#45;&gt;Node4</title>
<path fill="none" stroke="#191970" d="M477.3916,-808C501.7114,-808 529.6467,-808 550.7476,-808"/>
<polygon fill="#191970" stroke="#191970" points="477.2207,-804.5001 467.2207,-808 477.2207,-811.5001 477.2207,-804.5001"/>
</g>
<!-- Node5 -->
<g id="node6" class="node">
<title>Node5</title>
<g id="a_node6"><a xlink:href="classClinkTop.html" target="_top" xlink:title="ClinkTop">
<polygon fill="#ffffff" stroke="#ff0000" points="676,-646.5 676,-665.5 734,-665.5 734,-646.5 676,-646.5"/>
<text text-anchor="middle" x="705" y="-653.5" font-family="Helvetica,sans-Serif" font-size="10.00" fill="#000000">ClinkTop</text>
</a>
</g>
</g>
<!-- Node4&#45;&gt;Node5 -->
<g id="edge5" class="edge">
<title>Node4&#45;&gt;Node5</title>
<path fill="none" stroke="#191970" d="M597.5789,-790.3869C623.3892,-758.0975 677.4612,-690.4519 697.4025,-665.5047"/>
<polygon fill="#191970" stroke="#191970" points="594.6103,-788.4952 591.1004,-798.4917 600.0781,-792.8659 594.6103,-788.4952"/>
</g>
<!-- Node6&#45;&gt;Node5 -->
<g id="edge11" class="edge">
<title>Node6&#45;&gt;Node5</title>
<path fill="none" stroke="#191970" d="M267.6358,-352.2299C279.8484,-384.7016 309.0208,-450.2523 356,-485 408.5255,-523.85 586.6807,-523.2469 640,-561 671.8039,-583.5189 692.8705,-626.8521 701.1044,-646.2246"/>
<polygon fill="#191970" stroke="#191970" points="270.8371,-350.7903 264.1431,-342.5781 264.2548,-353.1723 270.8371,-350.7903"/>
</g>
<!-- Node7 -->
<g id="node8" class="node">
<title>Node7</title>
<g id="a_node8"><a xlink:href="classAxiLiteAsyncTb.html" target="_top" xlink:title="AxiLiteAsyncTb">
<polygon fill="#ffffff" stroke="#ff0000" points="377.5,-38.5 377.5,-57.5 469.5,-57.5 469.5,-38.5 377.5,-38.5"/>
<text text-anchor="middle" x="423.5" y="-45.5" font-family="Helvetica,sans-Serif" font-size="10.00" fill="#000000">AxiLiteAsyncTb</text>
</a>
</g>
</g>
<!-- Node6&#45;&gt;Node7 -->
<g id="edge7" class="edge">
<title>Node6&#45;&gt;Node7</title>
<path fill="none" stroke="#191970" d="M267.6695,-313.5789C288.4964,-253.031 351.2231,-71.4597 356,-67 361.9622,-61.4337 369.427,-57.4795 377.1996,-54.675"/>
<polygon fill="#191970" stroke="#191970" points="264.2323,-312.8115 264.2916,-323.4062 270.8522,-315.0869 264.2323,-312.8115"/>
</g>
<!-- Node8 -->
<g id="node9" class="node">
<title>Node8</title>
<g id="a_node9"><a xlink:href="classAxiLiteToDrp.html" target="_top" xlink:title="AxiLiteToDrp">
<polygon fill="#ffffff" stroke="#ff0000" points="384.5,-532.5 384.5,-551.5 462.5,-551.5 462.5,-532.5 384.5,-532.5"/>
<text text-anchor="middle" x="423.5" y="-539.5" font-family="Helvetica,sans-Serif" font-size="10.00" fill="#000000">AxiLiteToDrp</text>
</a>
</g>
</g>
<!-- Node6&#45;&gt;Node8 -->
<g id="edge8" class="edge">
<title>Node6&#45;&gt;Node8</title>
<path fill="none" stroke="#191970" d="M265.8969,-352.7406C276.1883,-390.2348 303.5577,-472.0967 356,-518 364.0485,-525.0449 374.307,-530.065 384.3825,-533.6257"/>
<polygon fill="#191970" stroke="#191970" points="269.1646,-351.403 263.2425,-342.6179 262.3935,-353.1786 269.1646,-351.403"/>
</g>
<!-- Node67 -->
<g id="node11" class="node">
<title>Node67</title>
<g id="a_node11"><a xlink:href="classAxiStreamBatcherAxil.html" target="_top" xlink:title="AxiStreamBatcherAxil">
<polygon fill="#ffffff" stroke="#000000" points="361.5,-456.5 361.5,-475.5 485.5,-475.5 485.5,-456.5 361.5,-456.5"/>
<text text-anchor="middle" x="423.5" y="-463.5" font-family="Helvetica,sans-Serif" font-size="10.00" fill="#000000">AxiStreamBatcherAxil</text>
</a>
</g>
</g>
<!-- Node6&#45;&gt;Node67 -->
<g id="edge10" class="edge">
<title>Node6&#45;&gt;Node67</title>
<path fill="none" stroke="#191970" d="M271.3081,-351.254C286.5437,-376.5656 317.4719,-422.02 356,-447 361.9247,-450.8413 368.6296,-453.9173 375.457,-456.3776"/>
<polygon fill="#191970" stroke="#191970" points="274.3278,-349.4844 266.2541,-342.624 268.2874,-353.0219 274.3278,-349.4844"/>
</g>
<!-- Node68 -->
<g id="node12" class="node">
<title>Node68</title>
<g id="a_node12"><a xlink:href="classGigEthGth7.html" target="_top" xlink:title="GigEthGth7">
<polygon fill="#ffffff" stroke="#ff0000" points="387.5,-418.5 387.5,-437.5 459.5,-437.5 459.5,-418.5 387.5,-418.5"/>
<text text-anchor="middle" x="423.5" y="-425.5" font-family="Helvetica,sans-Serif" font-size="10.00" fill="#000000">GigEthGth7</text>
</a>
</g>
</g>
<!-- Node6&#45;&gt;Node68 -->
<g id="edge12" class="edge">
<title>Node6&#45;&gt;Node68</title>
<path fill="none" stroke="#191970" d="M277.6544,-349.8391C295.5453,-367.0303 325.5337,-393.3489 356,-409 365.7459,-414.0067 376.982,-417.8413 387.4559,-420.7093"/>
<polygon fill="#191970" stroke="#191970" points="279.9178,-347.1565 270.3273,-342.6538 275.0166,-352.1544 279.9178,-347.1565"/>
</g>
<!-- Node70 -->
<g id="node13" class="node">
<title>Node70</title>
<g id="a_node13"><a xlink:href="classGigEthGthUltraScale.html" target="_top" xlink:title="GigEthGthUltraScale">
<polygon fill="#ffffff" stroke="#ff0000" points="365.5,-380.5 365.5,-399.5 481.5,-399.5 481.5,-380.5 365.5,-380.5"/>
<text text-anchor="middle" x="423.5" y="-387.5" font-family="Helvetica,sans-Serif" font-size="10.00" fill="#000000">GigEthGthUltraScale</text>
</a>
</g>
</g>
<!-- Node6&#45;&gt;Node70 -->
<g id="edge13" class="edge">
<title>Node6&#45;&gt;Node70</title>
<path fill="none" stroke="#191970" d="M292.3547,-346.516C310.7222,-354.1877 334.4714,-363.6873 356,-371 365.9135,-374.3673 376.784,-377.6165 386.8497,-380.4468"/>
<polygon fill="#191970" stroke="#191970" points="293.5915,-343.2392 283.0172,-342.5802 290.8725,-349.6896 293.5915,-343.2392"/>
</g>
<!-- Node71 -->
<g id="node14" class="node">
<title>Node71</title>
<g id="a_node14"><a xlink:href="classGigEthGtp7.html" target="_top" xlink:title="GigEthGtp7">
<polygon fill="#ffffff" stroke="#ff0000" points="387.5,-342.5 387.5,-361.5 459.5,-361.5 459.5,-342.5 387.5,-342.5"/>
<text text-anchor="middle" x="423.5" y="-349.5" font-family="Helvetica,sans-Serif" font-size="10.00" fill="#000000">GigEthGtp7</text>
</a>
</g>
</g>
<!-- Node6&#45;&gt;Node71 -->
<g id="edge14" class="edge">
<title>Node6&#45;&gt;Node71</title>
<path fill="none" stroke="#191970" d="M311.4083,-338.8939C336.0095,-341.7703 365.0405,-345.1647 387.3934,-347.7783"/>
<polygon fill="#191970" stroke="#191970" points="311.5074,-335.3817 301.1685,-337.6966 310.6944,-342.3344 311.5074,-335.3817"/>
</g>
<!-- Node72 -->
<g id="node15" class="node">
<title>Node72</title>
<g id="a_node15"><a xlink:href="classGigEthGtx7.html" target="_top" xlink:title="GigEthGtx7">
<polygon fill="#ffffff" stroke="#ff0000" points="387.5,-304.5 387.5,-323.5 459.5,-323.5 459.5,-304.5 387.5,-304.5"/>
<text text-anchor="middle" x="423.5" y="-311.5" font-family="Helvetica,sans-Serif" font-size="10.00" fill="#000000">GigEthGtx7</text>
</a>
</g>
</g>
<!-- Node6&#45;&gt;Node72 -->
<g id="edge15" class="edge">
<title>Node6&#45;&gt;Node72</title>
<path fill="none" stroke="#191970" d="M311.4083,-327.1061C336.0095,-324.2297 365.0405,-320.8353 387.3934,-318.2217"/>
<polygon fill="#191970" stroke="#191970" points="310.6944,-323.6656 301.1685,-328.3034 311.5074,-330.6183 310.6944,-323.6656"/>
</g>
<!-- Node74 -->
<g id="node16" class="node">
<title>Node74</title>
<g id="a_node16"><a xlink:href="classGigEthGtyUltraScale.html" target="_top" xlink:title="GigEthGtyUltraScale">
<polygon fill="#ffffff" stroke="#ff0000" points="365.5,-266.5 365.5,-285.5 481.5,-285.5 481.5,-266.5 365.5,-266.5"/>
<text text-anchor="middle" x="423.5" y="-273.5" font-family="Helvetica,sans-Serif" font-size="10.00" fill="#000000">GigEthGtyUltraScale</text>
</a>
</g>
</g>
<!-- Node6&#45;&gt;Node74 -->
<g id="edge16" class="edge">
<title>Node6&#45;&gt;Node74</title>
<path fill="none" stroke="#191970" d="M292.3547,-319.484C310.7222,-311.8123 334.4714,-302.3127 356,-295 365.9135,-291.6327 376.784,-288.3835 386.8497,-285.5532"/>
<polygon fill="#191970" stroke="#191970" points="290.8725,-316.3104 283.0172,-323.4198 293.5915,-322.7608 290.8725,-316.3104"/>
</g>
<!-- Node75 -->
<g id="node17" class="node">
<title>Node75</title>
<g id="a_node17"><a xlink:href="classGigEthLvdsUltraScale.html" target="_top" xlink:title="GigEthLvdsUltraScale">
<polygon fill="#ffffff" stroke="#ff0000" points="362.5,-228.5 362.5,-247.5 484.5,-247.5 484.5,-228.5 362.5,-228.5"/>
<text text-anchor="middle" x="423.5" y="-235.5" font-family="Helvetica,sans-Serif" font-size="10.00" fill="#000000">GigEthLvdsUltraScale</text>
</a>
</g>
</g>
<!-- Node6&#45;&gt;Node75 -->
<g id="edge17" class="edge">
<title>Node6&#45;&gt;Node75</title>
<path fill="none" stroke="#191970" d="M277.6544,-316.1609C295.5453,-298.9697 325.5337,-272.6511 356,-257 363.3636,-253.2172 371.5779,-250.1034 379.6713,-247.5702"/>
<polygon fill="#191970" stroke="#191970" points="275.0166,-313.8456 270.3273,-323.3462 279.9178,-318.8435 275.0166,-313.8456"/>
</g>
<!-- Node79 -->
<g id="node18" class="node">
<title>Node79</title>
<g id="a_node18"><a xlink:href="classSsiSem.html" target="_top" xlink:title="SsiSem">
<polygon fill="#ffffff" stroke="#ff0000" points="397,-646.5 397,-665.5 450,-665.5 450,-646.5 397,-646.5"/>
<text text-anchor="middle" x="423.5" y="-653.5" font-family="Helvetica,sans-Serif" font-size="10.00" fill="#000000">SsiSem</text>
</a>
</g>
</g>
<!-- Node6&#45;&gt;Node79 -->
<g id="edge18" class="edge">
<title>Node6&#45;&gt;Node79</title>
<path fill="none" stroke="#191970" d="M267.4871,-352.5722C281.1984,-392.8686 315.2373,-487.4844 356,-561 374.4449,-594.2655 402.2021,-629.9064 415.6466,-646.4936"/>
<polygon fill="#191970" stroke="#191970" points="270.7447,-351.2786 264.2388,-342.9166 264.1101,-353.5106 270.7447,-351.2786"/>
</g>
<!-- Node80 -->
<g id="node19" class="node">
<title>Node80</title>
<g id="a_node19"><a xlink:href="classTenGigEthGth7.html" target="_top" xlink:title="TenGigEthGth7">
<polygon fill="#ffffff" stroke="#ff0000" points="379,-190.5 379,-209.5 468,-209.5 468,-190.5 379,-190.5"/>
<text text-anchor="middle" x="423.5" y="-197.5" font-family="Helvetica,sans-Serif" font-size="10.00" fill="#000000">TenGigEthGth7</text>
</a>
</g>
</g>
<!-- Node6&#45;&gt;Node80 -->
<g id="edge19" class="edge">
<title>Node6&#45;&gt;Node80</title>
<path fill="none" stroke="#191970" d="M271.3081,-314.746C286.5437,-289.4344 317.4719,-243.98 356,-219 362.9462,-214.4964 370.9648,-211.0447 378.996,-208.404"/>
<polygon fill="#191970" stroke="#191970" points="268.2874,-312.9781 266.2541,-323.376 274.3278,-316.5156 268.2874,-312.9781"/>
</g>
<!-- Node81 -->
<g id="node20" class="node">
<title>Node81</title>
<g id="a_node20"><a xlink:href="classTenGigEthGthUltraScale.html" target="_top" xlink:title="TenGigEthGthUltraScale">
<polygon fill="#ffffff" stroke="#ff0000" points="357,-152.5 357,-171.5 490,-171.5 490,-152.5 357,-152.5"/>
<text text-anchor="middle" x="423.5" y="-159.5" font-family="Helvetica,sans-Serif" font-size="10.00" fill="#000000">TenGigEthGthUltraScale</text>
</a>
</g>
</g>
<!-- Node6&#45;&gt;Node81 -->
<g id="edge20" class="edge">
<title>Node6&#45;&gt;Node81</title>
<path fill="none" stroke="#191970" d="M267.6838,-313.8346C279.9684,-281.4595 309.246,-216.0501 356,-181 361.1627,-177.1297 367.0808,-174.0476 373.2204,-171.5932"/>
<polygon fill="#191970" stroke="#191970" points="264.3128,-312.8621 264.1684,-323.4559 270.8877,-315.2644 264.3128,-312.8621"/>
</g>
<!-- Node82 -->
<g id="node21" class="node">
<title>Node82</title>
<g id="a_node21"><a xlink:href="classTenGigEthGtx7.html" target="_top" xlink:title="TenGigEthGtx7">
<polygon fill="#ffffff" stroke="#ff0000" points="379,-114.5 379,-133.5 468,-133.5 468,-114.5 379,-114.5"/>
<text text-anchor="middle" x="423.5" y="-121.5" font-family="Helvetica,sans-Serif" font-size="10.00" fill="#000000">TenGigEthGtx7</text>
</a>
</g>
</g>
<!-- Node6&#45;&gt;Node82 -->
<g id="edge21" class="edge">
<title>Node6&#45;&gt;Node82</title>
<path fill="none" stroke="#191970" d="M265.2022,-313.4478C274.5247,-274.8762 300.6351,-188.7659 356,-143 362.5683,-137.5705 370.5915,-133.6896 378.7827,-130.9165"/>
<polygon fill="#191970" stroke="#191970" points="261.7446,-312.8666 262.9202,-323.396 268.5674,-314.4317 261.7446,-312.8666"/>
</g>
<!-- Node83 -->
<g id="node22" class="node">
<title>Node83</title>
<g id="a_node22"><a xlink:href="classTenGigEthGtyUltraScale.html" target="_top" xlink:title="TenGigEthGtyUltraScale">
<polygon fill="#ffffff" stroke="#ff0000" points="357,-76.5 357,-95.5 490,-95.5 490,-76.5 357,-76.5"/>
<text text-anchor="middle" x="423.5" y="-83.5" font-family="Helvetica,sans-Serif" font-size="10.00" fill="#000000">TenGigEthGtyUltraScale</text>
</a>
</g>
</g>
<!-- Node6&#45;&gt;Node83 -->
<g id="edge22" class="edge">
<title>Node6&#45;&gt;Node83</title>
<path fill="none" stroke="#191970" d="M266.6896,-313.604C281.6034,-263.9853 322.9576,-134.2855 356,-105 360.3732,-101.1241 365.4795,-98.0336 370.8902,-95.5704"/>
<polygon fill="#191970" stroke="#191970" points="263.2693,-312.827 263.7746,-323.4098 269.9791,-314.8217 263.2693,-312.827"/>
</g>
<!-- Node60 -->
<g id="node10" class="node">
<title>Node60</title>
<g id="a_node10"><a xlink:href="classPgp3Gtp7IpWrapper.html" target="_top" xlink:title="Pgp3Gtp7IpWrapper">
<polygon fill="#ffffff" stroke="#ff0000" points="527,-570.5 527,-589.5 640,-589.5 640,-570.5 527,-570.5"/>
<text text-anchor="middle" x="583.5" y="-577.5" font-family="Helvetica,sans-Serif" font-size="10.00" fill="#000000">Pgp3Gtp7IpWrapper</text>
</a>
</g>
</g>
<!-- Node8&#45;&gt;Node60 -->
<g id="edge9" class="edge">
<title>Node8&#45;&gt;Node60</title>
<path fill="none" stroke="#191970" d="M472.4407,-553.6234C495.1686,-559.0213 521.8559,-565.3595 543.3729,-570.4698"/>
<polygon fill="#191970" stroke="#191970" points="473.1786,-550.2014 462.6404,-551.2958 471.561,-557.0119 473.1786,-550.2014"/>
</g>
<!-- Node84&#45;&gt;Node4 -->
<g id="edge26" class="edge">
<title>Node84&#45;&gt;Node4</title>
<path fill="none" stroke="#191970" d="M288.3445,-994.7453C299.446,-992.1367 311.605,-987.4427 320,-979 357.464,-941.323 317.3123,-901.4194 356,-865 363.171,-858.2494 489.4775,-829.1384 550.7232,-815.3264"/>
<polygon fill="#191970" stroke="#191970" points="287.3606,-991.3691 278.1823,-996.6616 288.6578,-998.2478 287.3606,-991.3691"/>
</g>
<!-- Node85 -->
<g id="node24" class="node">
<title>Node85</title>
<g id="a_node24"><a xlink:href="classAxiStreamDmaV2Desc.html" target="_top" xlink:title="AxiStreamDmaV2Desc">
<polygon fill="#ffffff" stroke="#ff0000" points="359.5,-950.5 359.5,-969.5 487.5,-969.5 487.5,-950.5 359.5,-950.5"/>
<text text-anchor="middle" x="423.5" y="-957.5" font-family="Helvetica,sans-Serif" font-size="10.00" fill="#000000">AxiStreamDmaV2Desc</text>
</a>
</g>
</g>
<!-- Node84&#45;&gt;Node85 -->
<g id="edge24" class="edge">
<title>Node84&#45;&gt;Node85</title>
<path fill="none" stroke="#191970" d="M287.9114,-991.7069C313.6919,-985.6782 352.9481,-976.4983 382.5977,-969.5649"/>
<polygon fill="#191970" stroke="#191970" points="287.0235,-988.32 278.0832,-994.0052 288.6175,-995.1361 287.0235,-988.32"/>
</g>
<!-- Node87 -->
<g id="node25" class="node">
<title>Node87</title>
<g id="a_node25"><a xlink:href="classAxiStreamScatterGather.html" target="_top" xlink:title="AxiStreamScatterGather">
<polygon fill="#ffffff" stroke="#000000" points="356,-912.5 356,-931.5 491,-931.5 491,-912.5 356,-912.5"/>
<text text-anchor="middle" x="423.5" y="-919.5" font-family="Helvetica,sans-Serif" font-size="10.00" fill="#000000">AxiStreamScatterGather</text>
</a>
</g>
</g>
<!-- Node84&#45;&gt;Node87 -->
<g id="edge25" class="edge">
<title>Node84&#45;&gt;Node87</title>
<path fill="none" stroke="#191970" d="M288.1631,-992.3144C298.6287,-989.3602 310.3704,-985.0639 320,-979 339.6864,-966.6032 336.0867,-953.0289 356,-941 362.3565,-937.1603 369.5163,-934.0716 376.7356,-931.5942"/>
<polygon fill="#191970" stroke="#191970" points="287.0766,-988.9792 278.2484,-994.837 288.8026,-995.7631 287.0766,-988.9792"/>
</g>
<!-- Node88 -->
<g id="node26" class="node">
<title>Node88</title>
<g id="a_node26"><a xlink:href="classEthMacRxImportXgmii.html" target="_top" xlink:title="EthMacRxImportXgmii">
<polygon fill="#ffffff" stroke="#ff0000" points="361,-874.5 361,-893.5 486,-893.5 486,-874.5 361,-874.5"/>
<text text-anchor="middle" x="423.5" y="-881.5" font-family="Helvetica,sans-Serif" font-size="10.00" fill="#000000">EthMacRxImportXgmii</text>
</a>
</g>
</g>
<!-- Node84&#45;&gt;Node88 -->
<g id="edge27" class="edge">
<title>Node84&#45;&gt;Node88</title>
<path fill="none" stroke="#191970" d="M288.0329,-994.1166C298.9818,-991.4009 311.1101,-986.7968 320,-979 348.0996,-954.3555 327.4473,-927.1181 356,-903 360.5571,-899.1506 365.8427,-896.0788 371.4109,-893.6278"/>
<polygon fill="#191970" stroke="#191970" points="287.1244,-990.7304 278.0412,-996.1843 288.543,-997.5852 287.1244,-990.7304"/>
</g>
<!-- Node102 -->
<g id="node27" class="node">
<title>Node102</title>
<g id="a_node27"><a xlink:href="classEthMacTxExportXgmii.html" target="_top" xlink:title="EthMacTxExportXgmii">
<polygon fill="#ffffff" stroke="#ff0000" points="361.5,-1102.5 361.5,-1121.5 485.5,-1121.5 485.5,-1102.5 361.5,-1102.5"/>
<text text-anchor="middle" x="423.5" y="-1109.5" font-family="Helvetica,sans-Serif" font-size="10.00" fill="#000000">EthMacTxExportXgmii</text>
</a>
</g>
</g>
<!-- Node84&#45;&gt;Node102 -->
<g id="edge28" class="edge">
<title>Node84&#45;&gt;Node102</title>
<path fill="none" stroke="#191970" d="M288.0329,-1001.8834C298.9818,-1004.5991 311.1101,-1009.2032 320,-1017 348.0996,-1041.6445 327.4473,-1068.8819 356,-1093 360.5571,-1096.8494 365.8427,-1099.9212 371.4109,-1102.3722"/>
<polygon fill="#191970" stroke="#191970" points="288.543,-998.4148 278.0412,-999.8157 287.1244,-1005.2696 288.543,-998.4148"/>
</g>
<!-- Node105 -->
<g id="node28" class="node">
<title>Node105</title>
<g id="a_node28"><a xlink:href="classFifoCascade.html" target="_top" xlink:title="FifoCascade">
<polygon fill="#ffffff" stroke="#ff0000" points="386,-1064.5 386,-1083.5 461,-1083.5 461,-1064.5 386,-1064.5"/>
<text text-anchor="middle" x="423.5" y="-1071.5" font-family="Helvetica,sans-Serif" font-size="10.00" fill="#000000">FifoCascade</text>
</a>
</g>
</g>
<!-- Node84&#45;&gt;Node105 -->
<g id="edge29" class="edge">
<title>Node84&#45;&gt;Node105</title>
<path fill="none" stroke="#191970" d="M288.1631,-1003.6856C298.6287,-1006.6398 310.3704,-1010.9361 320,-1017 339.6864,-1029.3968 336.0867,-1042.9711 356,-1055 365.0659,-1060.4763 375.7656,-1064.4249 385.9416,-1067.2515"/>
<polygon fill="#191970" stroke="#191970" points="288.8026,-1000.2369 278.2484,-1001.163 287.0766,-1007.0208 288.8026,-1000.2369"/>
</g>
<!-- Node165 -->
<g id="node29" class="node">
<title>Node165</title>
<g id="a_node29"><a xlink:href="classFifoTbSubModule.html" target="_top" xlink:title="FifoTbSubModule">
<polygon fill="#ffffff" stroke="#ff0000" points="374,-1026.5 374,-1045.5 473,-1045.5 473,-1026.5 374,-1026.5"/>
<text text-anchor="middle" x="423.5" y="-1033.5" font-family="Helvetica,sans-Serif" font-size="10.00" fill="#000000">FifoTbSubModule</text>
</a>
</g>
</g>
<!-- Node84&#45;&gt;Node165 -->
<g id="edge30" class="edge">
<title>Node84&#45;&gt;Node165</title>
<path fill="none" stroke="#191970" d="M287.9114,-1004.2931C313.6919,-1010.3218 352.9481,-1019.5017 382.5977,-1026.4351"/>
<polygon fill="#191970" stroke="#191970" points="288.6175,-1000.8639 278.0832,-1001.9948 287.0235,-1007.68 288.6175,-1000.8639"/>
</g>
<!-- Node167 -->
<g id="node30" class="node">
<title>Node167</title>
<g id="a_node30"><a xlink:href="classUartWrapper.html" target="_top" xlink:title="UartWrapper">
<polygon fill="#ffffff" stroke="#ff0000" points="384.5,-988.5 384.5,-1007.5 462.5,-1007.5 462.5,-988.5 384.5,-988.5"/>
<text text-anchor="middle" x="423.5" y="-995.5" font-family="Helvetica,sans-Serif" font-size="10.00" fill="#000000">UartWrapper</text>
</a>
</g>
</g>
<!-- Node84&#45;&gt;Node167 -->
<g id="edge31" class="edge">
<title>Node84&#45;&gt;Node167</title>
<path fill="none" stroke="#191970" d="M288.088,-998C314.3577,-998 354.4987,-998 384.2628,-998"/>
<polygon fill="#191970" stroke="#191970" points="288.0832,-994.5001 278.0832,-998 288.0832,-1001.5001 288.0832,-994.5001"/>
</g>
<!-- Node178&#45;&gt;Node60 -->
<g id="edge40" class="edge">
<title>Node178&#45;&gt;Node60</title>
<path fill="none" stroke="#191970" d="M330.2706,-611.614C375.9736,-607.1933 437.1309,-600.8834 491,-594 502.5999,-592.5178 514.9917,-590.7619 526.8125,-589.0035"/>
<polygon fill="#191970" stroke="#191970" points="329.7954,-608.1434 320.1761,-612.584 330.4651,-615.1113 329.7954,-608.1434"/>
</g>
<!-- Node179&#45;&gt;Node60 -->
<g id="edge42" class="edge">
<title>Node179&#45;&gt;Node60</title>
<path fill="none" stroke="#191970" d="M330.0668,-580C388.7308,-580 471.9064,-580 526.7507,-580"/>
<polygon fill="#191970" stroke="#191970" points="329.7765,-576.5001 319.7765,-580 329.7764,-583.5001 329.7765,-576.5001"/>
</g>
<!-- Node181 -->
<g id="node41" class="node">
<title>Node181</title>
<g id="a_node41"><a xlink:href="classPgp3Rx.html" target="_top" xlink:title="Pgp3Rx">
<polygon fill="#ffffff" stroke="#ff0000" points="397,-.5 397,-19.5 450,-19.5 450,-.5 397,-.5"/>
<text text-anchor="middle" x="423.5" y="-7.5" font-family="Helvetica,sans-Serif" font-size="10.00" fill="#000000">Pgp3Rx</text>
</a>
</g>
</g>
<!-- Node180&#45;&gt;Node181 -->
<g id="edge44" class="edge">
<title>Node180&#45;&gt;Node181</title>
<path fill="none" stroke="#191970" d="M271.3081,-124.746C286.5437,-99.4344 317.4719,-53.98 356,-29 368.258,-21.0524 383.8557,-16.3809 396.9687,-13.6604"/>
<polygon fill="#191970" stroke="#191970" points="268.2874,-122.9781 266.2541,-133.376 274.3278,-126.5156 268.2874,-122.9781"/>
</g>
<!-- Node184&#45;&gt;Node3 -->
<g id="edge49" class="edge">
<title>Node184&#45;&gt;Node3</title>
<path fill="none" stroke="#191970" d="M315.3341,-670.9493C316.9853,-672.1932 318.5489,-673.5406 320,-675 357.464,-712.677 317.8423,-752.0256 356,-789 362.5572,-795.3538 371.0658,-799.6155 379.8197,-802.4655"/>
<polygon fill="#191970" stroke="#191970" points="316.826,-667.7601 306.4638,-665.5516 313.1871,-673.7399 316.826,-667.7601"/>
</g>
<!-- Node184&#45;&gt;Node79 -->
<g id="edge50" class="edge">
<title>Node184&#45;&gt;Node79</title>
<path fill="none" stroke="#191970" d="M320.0488,-656C346.4177,-656 376.1656,-656 396.9704,-656"/>
<polygon fill="#191970" stroke="#191970" points="319.7554,-652.5001 309.7554,-656 319.7553,-659.5001 319.7554,-652.5001"/>
</g>
<!-- Node11 -->
<g id="node43" class="node">
<title>Node11</title>
<g id="a_node43"><a xlink:href="classAd9249ReadoutGroup.html" target="_top" xlink:title="Ad9249ReadoutGroup">
<polygon fill="#ffffff" stroke="#ff0000" points="362.5,-722.5 362.5,-741.5 484.5,-741.5 484.5,-722.5 362.5,-722.5"/>
<text text-anchor="middle" x="423.5" y="-729.5" font-family="Helvetica,sans-Serif" font-size="10.00" fill="#000000">Ad9249ReadoutGroup</text>
</a>
</g>
</g>
<!-- Node184&#45;&gt;Node11 -->
<g id="edge46" class="edge">
<title>Node184&#45;&gt;Node11</title>
<path fill="none" stroke="#191970" d="M309.8485,-669.5358C313.3822,-671.1732 316.8072,-672.9894 320,-675 339.6864,-687.3968 336.0867,-700.9711 356,-713 362.3565,-716.8397 369.5163,-719.9284 376.7356,-722.4058"/>
<polygon fill="#191970" stroke="#191970" points="310.9048,-666.1855 300.3257,-665.6084 308.2359,-672.6568 310.9048,-666.1855"/>
</g>
<!-- Node185 -->
<g id="node44" class="node">
<title>Node185</title>
<g id="a_node44"><a xlink:href="classAxiAd9467Reg.html" target="_top" xlink:title="AxiAd9467Reg">
<polygon fill="#ffffff" stroke="#ff0000" points="380,-684.5 380,-703.5 467,-703.5 467,-684.5 380,-684.5"/>
<text text-anchor="middle" x="423.5" y="-691.5" font-family="Helvetica,sans-Serif" font-size="10.00" fill="#000000">AxiAd9467Reg</text>
</a>
</g>
</g>
<!-- Node184&#45;&gt;Node185 -->
<g id="edge47" class="edge">
<title>Node184&#45;&gt;Node185</title>
<path fill="none" stroke="#191970" d="M311.8714,-667.8961C334.7124,-673.2374 361.2953,-679.4537 382.7893,-684.4799"/>
<polygon fill="#191970" stroke="#191970" points="312.5399,-664.4581 302.0056,-665.589 310.9459,-671.2742 312.5399,-664.4581"/>
</g>
<!-- Node187 -->
<g id="node45" class="node">
<title>Node187</title>
<g id="a_node45"><a xlink:href="classAxiAds42lb69Deser.html" target="_top" xlink:title="AxiAds42lb69Deser">
<polygon fill="#ffffff" stroke="#ff0000" points="367.5,-760.5 367.5,-779.5 479.5,-779.5 479.5,-760.5 367.5,-760.5"/>
<text text-anchor="middle" x="423.5" y="-767.5" font-family="Helvetica,sans-Serif" font-size="10.00" fill="#000000">AxiAds42lb69Deser</text>
</a>
</g>
</g>
<!-- Node184&#45;&gt;Node187 -->
<g id="edge48" class="edge">
<title>Node184&#45;&gt;Node187</title>
<path fill="none" stroke="#191970" d="M313.7403,-670.3235C315.9512,-671.7384 318.0533,-673.2926 320,-675 348.0996,-699.6445 327.4473,-726.8819 356,-751 360.5571,-754.8494 365.8427,-757.9212 371.4109,-760.3722"/>
<polygon fill="#191970" stroke="#191970" points="315.2399,-667.1565 304.7709,-665.5284 311.9396,-673.3297 315.2399,-667.1565"/>
</g>
<!-- Node231&#45;&gt;Node84 -->
<g id="edge54" class="edge">
<title>Node231&#45;&gt;Node84</title>
<path fill="none" stroke="#191970" d="M172.9298,-1024.4559C196.5147,-1017.3711 225.5719,-1008.6424 243.6966,-1003.1979"/>
<polygon fill="#191970" stroke="#191970" points="171.7751,-1021.1482 163.2048,-1027.3772 173.789,-1027.8522 171.7751,-1021.1482"/>
</g>
<!-- Node232 -->
<g id="node47" class="node">
<title>Node232</title>
<g id="a_node47"><a xlink:href="classAxiStreamDmaWrite.html" target="_top" xlink:title="AxiStreamDmaWrite">
<polygon fill="#ffffff" stroke="#ff0000" points="203,-1064.5 203,-1083.5 319,-1083.5 319,-1064.5 203,-1064.5"/>
<text text-anchor="middle" x="261" y="-1071.5" font-family="Helvetica,sans-Serif" font-size="10.00" fill="#000000">AxiStreamDmaWrite</text>
</a>
</g>
</g>
<!-- Node231&#45;&gt;Node232 -->
<g id="edge52" class="edge">
<title>Node231&#45;&gt;Node232</title>
<path fill="none" stroke="#191970" d="M172.8555,-1047.5218C190.9069,-1052.9444 212.1774,-1059.3339 229.3006,-1064.4777"/>
<polygon fill="#191970" stroke="#191970" points="173.789,-1044.1478 163.2048,-1044.6228 171.7751,-1050.8518 173.789,-1044.1478"/>
</g>
<!-- Node126 -->
<g id="node48" class="node">
<title>Node126</title>
<g id="a_node48"><a xlink:href="classEthMacTxCsum.html" target="_top" xlink:title="EthMacTxCsum">
<polygon fill="#ffffff" stroke="#ff0000" points="215,-1026.5 215,-1045.5 307,-1045.5 307,-1026.5 215,-1026.5"/>
<text text-anchor="middle" x="261" y="-1033.5" font-family="Helvetica,sans-Serif" font-size="10.00" fill="#000000">EthMacTxCsum</text>
</a>
</g>
</g>
<!-- Node231&#45;&gt;Node126 -->
<g id="edge53" class="edge">
<title>Node231&#45;&gt;Node126</title>
<path fill="none" stroke="#191970" d="M173.2571,-1036C186.2962,-1036 200.9777,-1036 214.5471,-1036"/>
<polygon fill="#191970" stroke="#191970" points="173.2048,-1032.5001 163.2048,-1036 173.2048,-1039.5001 173.2048,-1032.5001"/>
</g>
<!-- Node235 -->
<g id="node49" class="node">
<title>Node235</title>
<g id="a_node49"><a xlink:href="classJesdRxLane.html" target="_top" xlink:title="JesdRxLane">
<polygon fill="#ffffff" stroke="#ff0000" points="224.5,-1102.5 224.5,-1121.5 297.5,-1121.5 297.5,-1102.5 224.5,-1102.5"/>
<text text-anchor="middle" x="261" y="-1109.5" font-family="Helvetica,sans-Serif" font-size="10.00" fill="#000000">JesdRxLane</text>
</a>
</g>
</g>
<!-- Node231&#45;&gt;Node235 -->
<g id="edge55" class="edge">
<title>Node231&#45;&gt;Node235</title>
<path fill="none" stroke="#191970" d="M150.8388,-1053.008C163.7174,-1065.5693 182.6726,-1082.2801 202,-1093 208.9638,-1096.8624 216.8315,-1100.0795 224.4987,-1102.7015"/>
<polygon fill="#191970" stroke="#191970" points="153.1984,-1050.4177 143.6562,-1045.8137 148.2446,-1055.3634 153.1984,-1050.4177"/>
</g>
</g>
</svg>
