<?xml version="1.0" encoding="UTF-8" standalone="no"?>
<!DOCTYPE svg PUBLIC "-//W3C//DTD SVG 1.1//EN"
 "http://www.w3.org/Graphics/SVG/1.1/DTD/svg11.dtd">
<!-- Generated by graphviz version 2.43.0 (0)
 -->
<!-- Title: IpV4EngineTx Pages: 1 -->
<svg width="319pt" height="308pt"
 viewBox="0.00 0.00 319.00 308.00" xmlns="http://www.w3.org/2000/svg" xmlns:xlink="http://www.w3.org/1999/xlink">
<g id="graph0" class="graph" transform="scale(1 1) rotate(0) translate(4 304)">
<title>IpV4EngineTx</title>
<polygon fill="white" stroke="transparent" points="-4,4 -4,-304 315,-304 315,4 -4,4"/>
<!-- Node1 -->
<g id="node1" class="node">
<title>Node1</title>
<g id="a_node1"><a xlink:title=" ">
<polygon fill="#bfbfbf" stroke="black" points="62,-168.5 62,-187.5 145,-187.5 145,-168.5 62,-168.5"/>
<text text-anchor="middle" x="103.5" y="-175.5" font-family="Helvetica,sans-Serif" font-size="10.00">IpV4EngineTx</text>
</a>
</g>
</g>
<!-- Node5 -->
<g id="node5" class="node">
<title>Node5</title>
<g id="a_node5"><a xlink:href="classIpV4Engine.html" target="_top" xlink:title=" ">
<polygon fill="white" stroke="black" points="68,-112.5 68,-131.5 139,-131.5 139,-112.5 68,-112.5"/>
<text text-anchor="middle" x="103.5" y="-119.5" font-family="Helvetica,sans-Serif" font-size="10.00">IpV4Engine</text>
</a>
</g>
</g>
<!-- Node1&#45;&gt;Node5 -->
<g id="edge5" class="edge">
<title>Node1&#45;&gt;Node5</title>
<path fill="none" stroke="midnightblue" d="M103.5,-157.8C103.5,-148.91 103.5,-138.78 103.5,-131.75"/>
<polygon fill="midnightblue" stroke="midnightblue" points="100,-158.08 103.5,-168.08 107,-158.08 100,-158.08"/>
</g>
<!-- Node2 -->
<g id="node2" class="node">
<title>Node2</title>
<g id="a_node2"><a xlink:href="classAxiStreamMux.html" target="_top" xlink:title=" ">
<polygon fill="white" stroke="black" points="3,-224.5 3,-243.5 92,-243.5 92,-224.5 3,-224.5"/>
<text text-anchor="middle" x="47.5" y="-231.5" font-family="Helvetica,sans-Serif" font-size="10.00">AxiStreamMux</text>
</a>
</g>
</g>
<!-- Node2&#45;&gt;Node1 -->
<g id="edge1" class="edge">
<title>Node2&#45;&gt;Node1</title>
<path fill="none" stroke="midnightblue" d="M63.83,-217.25C73.76,-207.67 86.09,-195.79 94.34,-187.83"/>
<polygon fill="midnightblue" stroke="midnightblue" points="61.27,-214.86 56.5,-224.32 66.13,-219.9 61.27,-214.86"/>
</g>
<!-- Node3 -->
<g id="node3" class="node">
<title>Node3</title>
<g id="a_node3"><a xlink:href="classAxiStreamPipeline.html" target="_top" xlink:title=" ">
<polygon fill="white" stroke="black" points="50,-280.5 50,-299.5 157,-299.5 157,-280.5 50,-280.5"/>
<text text-anchor="middle" x="103.5" y="-287.5" font-family="Helvetica,sans-Serif" font-size="10.00">AxiStreamPipeline</text>
</a>
</g>
</g>
<!-- Node3&#45;&gt;Node2 -->
<g id="edge2" class="edge">
<title>Node3&#45;&gt;Node2</title>
<path fill="none" stroke="midnightblue" d="M87.17,-273.25C77.24,-263.67 64.91,-251.79 56.66,-243.83"/>
<polygon fill="midnightblue" stroke="midnightblue" points="84.87,-275.9 94.5,-280.32 89.73,-270.86 84.87,-275.9"/>
</g>
<!-- Node4 -->
<g id="node4" class="node">
<title>Node4</title>
<g id="a_node4"><a xlink:href="classAxiStreamDeMux.html" target="_top" xlink:title=" ">
<polygon fill="white" stroke="black" points="109.5,-224.5 109.5,-243.5 211.5,-243.5 211.5,-224.5 109.5,-224.5"/>
<text text-anchor="middle" x="160.5" y="-231.5" font-family="Helvetica,sans-Serif" font-size="10.00">AxiStreamDeMux</text>
</a>
</g>
</g>
<!-- Node3&#45;&gt;Node4 -->
<g id="edge4" class="edge">
<title>Node3&#45;&gt;Node4</title>
<path fill="none" stroke="midnightblue" d="M120.12,-273.25C130.23,-263.67 142.78,-251.79 151.18,-243.83"/>
<polygon fill="midnightblue" stroke="midnightblue" points="117.51,-270.91 112.66,-280.32 122.32,-275.99 117.51,-270.91"/>
</g>
<!-- Node4&#45;&gt;Node1 -->
<g id="edge3" class="edge">
<title>Node4&#45;&gt;Node1</title>
<path fill="none" stroke="midnightblue" d="M143.88,-217.25C133.77,-207.67 121.22,-195.79 112.82,-187.83"/>
<polygon fill="midnightblue" stroke="midnightblue" points="141.68,-219.99 151.34,-224.32 146.49,-214.91 141.68,-219.99"/>
</g>
<!-- Node6 -->
<g id="node6" class="node">
<title>Node6</title>
<g id="a_node6"><a xlink:href="classIpV4EngineTb.html" target="_top" xlink:title=" ">
<polygon fill="white" stroke="black" points="5,-56.5 5,-75.5 88,-75.5 88,-56.5 5,-56.5"/>
<text text-anchor="middle" x="46.5" y="-63.5" font-family="Helvetica,sans-Serif" font-size="10.00">IpV4EngineTb</text>
</a>
</g>
</g>
<!-- Node5&#45;&gt;Node6 -->
<g id="edge6" class="edge">
<title>Node5&#45;&gt;Node6</title>
<path fill="none" stroke="midnightblue" d="M86.88,-105.25C76.77,-95.67 64.22,-83.79 55.82,-75.83"/>
<polygon fill="midnightblue" stroke="midnightblue" points="84.68,-107.99 94.34,-112.32 89.49,-102.91 84.68,-107.99"/>
</g>
<!-- Node7 -->
<g id="node7" class="node">
<title>Node7</title>
<g id="a_node7"><a xlink:href="classUdpEngineWrapper.html" target="_top" xlink:title=" ">
<polygon fill="white" stroke="black" points="106.5,-56.5 106.5,-75.5 216.5,-75.5 216.5,-56.5 106.5,-56.5"/>
<text text-anchor="middle" x="161.5" y="-63.5" font-family="Helvetica,sans-Serif" font-size="10.00">UdpEngineWrapper</text>
</a>
</g>
</g>
<!-- Node5&#45;&gt;Node7 -->
<g id="edge7" class="edge">
<title>Node5&#45;&gt;Node7</title>
<path fill="none" stroke="midnightblue" d="M120.41,-105.25C130.7,-95.67 143.47,-83.79 152.01,-75.83"/>
<polygon fill="midnightblue" stroke="midnightblue" points="117.75,-102.95 112.82,-112.32 122.52,-108.07 117.75,-102.95"/>
</g>
<!-- Node8 -->
<g id="node8" class="node">
<title>Node8</title>
<g id="a_node8"><a xlink:href="classEthMacPauseTb.html" target="_top" xlink:title=" ">
<polygon fill="white" stroke="black" points="0,-0.5 0,-19.5 93,-19.5 93,-0.5 0,-0.5"/>
<text text-anchor="middle" x="46.5" y="-7.5" font-family="Helvetica,sans-Serif" font-size="10.00">EthMacPauseTb</text>
</a>
</g>
</g>
<!-- Node7&#45;&gt;Node8 -->
<g id="edge8" class="edge">
<title>Node7&#45;&gt;Node8</title>
<path fill="none" stroke="midnightblue" d="M134.02,-52.1C112.53,-42.01 83.28,-28.27 64.64,-19.52"/>
<polygon fill="midnightblue" stroke="midnightblue" points="132.74,-55.36 143.28,-56.44 135.71,-49.02 132.74,-55.36"/>
</g>
<!-- Node9 -->
<g id="node9" class="node">
<title>Node9</title>
<g id="a_node9"><a xlink:href="classRawEthFramerTb.html" target="_top" xlink:title=" ">
<polygon fill="white" stroke="black" points="111.5,-0.5 111.5,-19.5 211.5,-19.5 211.5,-0.5 111.5,-0.5"/>
<text text-anchor="middle" x="161.5" y="-7.5" font-family="Helvetica,sans-Serif" font-size="10.00">RawEthFramerTb</text>
</a>
</g>
</g>
<!-- Node7&#45;&gt;Node9 -->
<g id="edge9" class="edge">
<title>Node7&#45;&gt;Node9</title>
<path fill="none" stroke="midnightblue" d="M161.5,-45.8C161.5,-36.91 161.5,-26.78 161.5,-19.75"/>
<polygon fill="midnightblue" stroke="midnightblue" points="158,-46.08 161.5,-56.08 165,-46.08 158,-46.08"/>
</g>
<!-- Node10 -->
<g id="node10" class="node">
<title>Node10</title>
<g id="a_node10"><a xlink:href="classUdpEngineTb.html" target="_top" xlink:title=" ">
<polygon fill="white" stroke="black" points="230,-0.5 230,-19.5 311,-19.5 311,-0.5 230,-0.5"/>
<text text-anchor="middle" x="270.5" y="-7.5" font-family="Helvetica,sans-Serif" font-size="10.00">UdpEngineTb</text>
</a>
</g>
</g>
<!-- Node7&#45;&gt;Node10 -->
<g id="edge10" class="edge">
<title>Node7&#45;&gt;Node10</title>
<path fill="none" stroke="midnightblue" d="M188.02,-51.86C208.23,-41.85 235.49,-28.35 253.03,-19.65"/>
<polygon fill="midnightblue" stroke="midnightblue" points="186.42,-48.75 179.01,-56.32 189.53,-55.02 186.42,-48.75"/>
</g>
</g>
</svg>
