<?xml version="1.0" encoding="UTF-8" standalone="no"?>
<!DOCTYPE svg PUBLIC "-//W3C//DTD SVG 1.1//EN"
 "http://www.w3.org/Graphics/SVG/1.1/DTD/svg11.dtd">
<!-- Generated by graphviz version 2.40.1 (20161225.0304)
 -->
<!-- Title: TenGigEthReg Pages: 1 -->
<svg width="1184pt" height="332pt"
 viewBox="0.00 0.00 1184.00 332.00" xmlns="http://www.w3.org/2000/svg" xmlns:xlink="http://www.w3.org/1999/xlink">
<g id="graph0" class="graph" transform="scale(1 1) rotate(0) translate(4 328)">
<title>TenGigEthReg</title>
<polygon fill="#ffffff" stroke="transparent" points="-4,4 -4,-328 1180,-328 1180,4 -4,4"/>
<!-- Node26 -->
<g id="node1" class="node">
<title>Node26</title>
<polygon fill="#bfbfbf" stroke="#000000" points="1093,-181.5 1093,-200.5 1176,-200.5 1176,-181.5 1093,-181.5"/>
<text text-anchor="middle" x="1134.5" y="-188.5" font-family="Helvetica,sans-Serif" font-size="10.00" fill="#000000">TenGigEthReg</text>
</g>
<!-- Node27 -->
<g id="node2" class="node">
<title>Node27</title>
<g id="a_node2"><a xlink:href="classSynchronizerVector.html" target="_top" xlink:title="SynchronizerVector">
<polygon fill="#ffffff" stroke="#000000" points="781,-200.5 781,-219.5 891,-219.5 891,-200.5 781,-200.5"/>
<text text-anchor="middle" x="836" y="-207.5" font-family="Helvetica,sans-Serif" font-size="10.00" fill="#000000">SynchronizerVector</text>
</a>
</g>
</g>
<!-- Node27&#45;&gt;Node26 -->
<g id="edge1" class="edge">
<title>Node27&#45;&gt;Node26</title>
<path fill="none" stroke="#191970" d="M901.3003,-205.8435C959.5322,-202.137 1043.0323,-196.8221 1092.7137,-193.6598"/>
<polygon fill="#191970" stroke="#191970" points="900.8548,-202.3647 891.0974,-206.493 901.2995,-209.3506 900.8548,-202.3647"/>
</g>
<!-- Node28 -->
<g id="node3" class="node">
<title>Node28</title>
<g id="a_node3"><a xlink:href="classSyncStatusVector.html" target="_top" xlink:title="SyncStatusVector">
<polygon fill="#ffffff" stroke="#000000" points="956,-162.5 956,-181.5 1057,-181.5 1057,-162.5 956,-162.5"/>
<text text-anchor="middle" x="1006.5" y="-169.5" font-family="Helvetica,sans-Serif" font-size="10.00" fill="#000000">SyncStatusVector</text>
</a>
</g>
</g>
<!-- Node27&#45;&gt;Node28 -->
<g id="edge3" class="edge">
<title>Node27&#45;&gt;Node28</title>
<path fill="none" stroke="#191970" d="M889.0536,-198.1757C913.0911,-192.8184 941.1318,-186.5689 963.785,-181.5201"/>
<polygon fill="#191970" stroke="#191970" points="888.0235,-194.8194 879.0243,-200.411 889.5463,-201.6517 888.0235,-194.8194"/>
</g>
<!-- Node28&#45;&gt;Node26 -->
<g id="edge2" class="edge">
<title>Node28&#45;&gt;Node26</title>
<path fill="none" stroke="#191970" d="M1067.2268,-181.0141C1075.9273,-182.3056 1084.7087,-183.6091 1092.9255,-184.8288"/>
<polygon fill="#191970" stroke="#191970" points="1067.4945,-177.5156 1057.089,-179.5093 1066.4667,-184.4397 1067.4945,-177.5156"/>
</g>
<!-- Node29 -->
<g id="node4" class="node">
<title>Node29</title>
<g id="a_node4"><a xlink:href="classSynchronizerOneShotCntVector.html" target="_top" xlink:title="SynchronizerOneShotCntVector">
<polygon fill="#ffffff" stroke="#000000" points="752,-162.5 752,-181.5 920,-181.5 920,-162.5 752,-162.5"/>
<text text-anchor="middle" x="836" y="-169.5" font-family="Helvetica,sans-Serif" font-size="10.00" fill="#000000">SynchronizerOneShotCntVector</text>
</a>
</g>
</g>
<!-- Node29&#45;&gt;Node28 -->
<g id="edge4" class="edge">
<title>Node29&#45;&gt;Node28</title>
<path fill="none" stroke="#191970" d="M930.4293,-172C939.0683,-172 947.58,-172 955.6042,-172"/>
<polygon fill="#191970" stroke="#191970" points="930.251,-168.5001 920.251,-172 930.251,-175.5001 930.251,-168.5001"/>
</g>
<!-- Node30 -->
<g id="node5" class="node">
<title>Node30</title>
<g id="a_node5"><a xlink:href="classSynchronizerOneShotCnt.html" target="_top" xlink:title="SynchronizerOneShotCnt">
<polygon fill="#ffffff" stroke="#000000" points="579,-162.5 579,-181.5 716,-181.5 716,-162.5 579,-162.5"/>
<text text-anchor="middle" x="647.5" y="-169.5" font-family="Helvetica,sans-Serif" font-size="10.00" fill="#000000">SynchronizerOneShotCnt</text>
</a>
</g>
</g>
<!-- Node30&#45;&gt;Node29 -->
<g id="edge5" class="edge">
<title>Node30&#45;&gt;Node29</title>
<path fill="none" stroke="#191970" d="M726.2491,-172C734.6652,-172 743.2509,-172 751.7277,-172"/>
<polygon fill="#191970" stroke="#191970" points="726.0861,-168.5001 716.0861,-172 726.086,-175.5001 726.0861,-168.5001"/>
</g>
<!-- Node31 -->
<g id="node6" class="node">
<title>Node31</title>
<g id="a_node6"><a xlink:href="classSynchronizerOneShot.html" target="_top" xlink:title="SynchronizerOneShot(2)">
<polygon fill="#ffffff" stroke="#000000" points="276,-266.5 276,-285.5 410,-285.5 410,-266.5 276,-266.5"/>
<text text-anchor="middle" x="343" y="-273.5" font-family="Helvetica,sans-Serif" font-size="10.00" fill="#000000">SynchronizerOneShot(2)</text>
</a>
</g>
</g>
<!-- Node31&#45;&gt;Node30 -->
<g id="edge6" class="edge">
<title>Node31&#45;&gt;Node30</title>
<path fill="none" stroke="#191970" d="M380.5831,-263.1637C442.4584,-242.0306 564.3933,-200.3846 619.4045,-181.5958"/>
<polygon fill="#191970" stroke="#191970" points="379.1616,-259.9507 370.8296,-266.495 381.4241,-266.575 379.1616,-259.9507"/>
</g>
<!-- Node32 -->
<g id="node7" class="node">
<title>Node32</title>
<g id="a_node7"><a xlink:href="classRstSync.html" target="_top" xlink:title="RstSync">
<polygon fill="#ffffff" stroke="#000000" points="150,-304.5 150,-323.5 206,-323.5 206,-304.5 150,-304.5"/>
<text text-anchor="middle" x="178" y="-311.5" font-family="Helvetica,sans-Serif" font-size="10.00" fill="#000000">RstSync</text>
</a>
</g>
</g>
<!-- Node32&#45;&gt;Node31 -->
<g id="edge7" class="edge">
<title>Node32&#45;&gt;Node31</title>
<path fill="none" stroke="#191970" d="M216.4403,-305.1471C242.0164,-299.2568 275.5875,-291.5253 301.7269,-285.5053"/>
<polygon fill="#191970" stroke="#191970" points="215.3239,-301.8125 206.3645,-307.4676 216.8949,-308.6339 215.3239,-301.8125"/>
</g>
<!-- Node33 -->
<g id="node8" class="node">
<title>Node33</title>
<g id="a_node8"><a xlink:href="classSynchronizer.html" target="_top" xlink:title="Synchronizer">
<polygon fill="#ffffff" stroke="#000000" points="0,-266.5 0,-285.5 80,-285.5 80,-266.5 0,-266.5"/>
<text text-anchor="middle" x="40" y="-273.5" font-family="Helvetica,sans-Serif" font-size="10.00" fill="#000000">Synchronizer</text>
</a>
</g>
</g>
<!-- Node33&#45;&gt;Node32 -->
<g id="edge8" class="edge">
<title>Node33&#45;&gt;Node32</title>
<path fill="none" stroke="#191970" d="M84.667,-288.2996C106.0329,-294.183 130.9688,-301.0494 149.6885,-306.2041"/>
<polygon fill="#191970" stroke="#191970" points="85.3936,-284.8695 74.8232,-285.589 83.5352,-291.6183 85.3936,-284.8695"/>
</g>
<!-- Node34 -->
<g id="node9" class="node">
<title>Node34</title>
<g id="a_node9"><a xlink:href="classSynchronizerEdge.html" target="_top" xlink:title="SynchronizerEdge">
<polygon fill="#ffffff" stroke="#000000" points="126,-266.5 126,-285.5 230,-285.5 230,-266.5 126,-266.5"/>
<text text-anchor="middle" x="178" y="-273.5" font-family="Helvetica,sans-Serif" font-size="10.00" fill="#000000">SynchronizerEdge</text>
</a>
</g>
</g>
<!-- Node33&#45;&gt;Node34 -->
<g id="edge10" class="edge">
<title>Node33&#45;&gt;Node34</title>
<path fill="none" stroke="#191970" d="M90.5861,-276C102.0702,-276 114.2884,-276 125.8366,-276"/>
<polygon fill="#191970" stroke="#191970" points="90.2863,-272.5001 80.2863,-276 90.2863,-279.5001 90.2863,-272.5001"/>
</g>
<!-- Node37 -->
<g id="node12" class="node">
<title>Node37</title>
<g id="a_node12"><a xlink:href="classRstSync.html" target="_top" xlink:title="RstSync(2)">
<polygon fill="#ffffff" stroke="#000000" points="143.5,-228.5 143.5,-247.5 212.5,-247.5 212.5,-228.5 143.5,-228.5"/>
<text text-anchor="middle" x="178" y="-235.5" font-family="Helvetica,sans-Serif" font-size="10.00" fill="#000000">RstSync(2)</text>
</a>
</g>
</g>
<!-- Node33&#45;&gt;Node37 -->
<g id="edge14" class="edge">
<title>Node33&#45;&gt;Node37</title>
<path fill="none" stroke="#191970" d="M84.473,-263.7538C103.4946,-258.516 125.3751,-252.4909 143.1879,-247.5859"/>
<polygon fill="#191970" stroke="#191970" points="83.5352,-260.3817 74.8232,-266.411 85.3936,-267.1305 83.5352,-260.3817"/>
</g>
<!-- Node34&#45;&gt;Node31 -->
<g id="edge9" class="edge">
<title>Node34&#45;&gt;Node31</title>
<path fill="none" stroke="#191970" d="M240.2219,-276C251.8134,-276 263.9742,-276 275.7097,-276"/>
<polygon fill="#191970" stroke="#191970" points="240.2071,-272.5001 230.207,-276 240.207,-279.5001 240.2071,-272.5001"/>
</g>
<!-- Node35 -->
<g id="node10" class="node">
<title>Node35</title>
<g id="a_node10"><a xlink:href="classSynchronizerFifo.html" target="_top" xlink:title="SynchronizerFifo">
<polygon fill="#ffffff" stroke="#000000" points="446,-143.5 446,-162.5 543,-162.5 543,-143.5 446,-143.5"/>
<text text-anchor="middle" x="494.5" y="-150.5" font-family="Helvetica,sans-Serif" font-size="10.00" fill="#000000">SynchronizerFifo</text>
</a>
</g>
</g>
<!-- Node35&#45;&gt;Node30 -->
<g id="edge11" class="edge">
<title>Node35&#45;&gt;Node30</title>
<path fill="none" stroke="#191970" d="M553.3181,-160.3042C561.6496,-161.3388 570.2771,-162.4102 578.7754,-163.4656"/>
<polygon fill="#191970" stroke="#191970" points="553.686,-156.8231 543.3308,-159.064 552.8232,-163.7697 553.686,-156.8231"/>
</g>
<!-- Node36 -->
<g id="node11" class="node">
<title>Node36</title>
<g id="a_node11"><a xlink:href="classFifoAsync.html" target="_top" xlink:title="FifoAsync">
<polygon fill="#ffffff" stroke="#000000" points="311.5,-128.5 311.5,-147.5 374.5,-147.5 374.5,-128.5 311.5,-128.5"/>
<text text-anchor="middle" x="343" y="-135.5" font-family="Helvetica,sans-Serif" font-size="10.00" fill="#000000">FifoAsync</text>
</a>
</g>
</g>
<!-- Node36&#45;&gt;Node35 -->
<g id="edge12" class="edge">
<title>Node36&#45;&gt;Node35</title>
<path fill="none" stroke="#191970" d="M384.8432,-142.1429C403.7222,-144.0121 426.1415,-146.2318 445.7738,-148.1756"/>
<polygon fill="#191970" stroke="#191970" points="385.0556,-138.6469 374.7594,-141.1445 384.3658,-145.6128 385.0556,-138.6469"/>
</g>
<!-- Node37&#45;&gt;Node36 -->
<g id="edge13" class="edge">
<title>Node37&#45;&gt;Node36</title>
<path fill="none" stroke="#191970" d="M222.2402,-226.6539C228.3519,-224.4545 234.4353,-221.9104 240,-219 278.0995,-199.0738 316.0838,-164.4201 333.3565,-147.6459"/>
<polygon fill="#191970" stroke="#191970" points="221.0695,-223.3546 212.6831,-229.8292 223.2766,-229.9976 221.0695,-223.3546"/>
</g>
<!-- Node38 -->
<g id="node13" class="node">
<title>Node38</title>
<g id="a_node13"><a xlink:href="classSynchronizerVector.html" target="_top" xlink:title="SynchronizerVector(2)">
<polygon fill="#ffffff" stroke="#000000" points="116,-190.5 116,-209.5 240,-209.5 240,-190.5 116,-190.5"/>
<text text-anchor="middle" x="178" y="-197.5" font-family="Helvetica,sans-Serif" font-size="10.00" fill="#000000">SynchronizerVector(2)</text>
</a>
</g>
</g>
<!-- Node38&#45;&gt;Node36 -->
<g id="edge15" class="edge">
<title>Node38&#45;&gt;Node36</title>
<path fill="none" stroke="#191970" d="M221.1747,-187.3661C227.5213,-185.3364 233.9542,-183.1824 240,-181 268.7979,-170.6045 301.2832,-156.6614 321.9345,-147.5096"/>
<polygon fill="#191970" stroke="#191970" points="219.8411,-184.1159 211.3404,-190.4395 221.9292,-190.7972 219.8411,-184.1159"/>
</g>
<!-- Node39 -->
<g id="node14" class="node">
<title>Node39</title>
<g id="a_node14"><a xlink:href="classSynchronizer.html" target="_top" xlink:title="Synchronizer(2)">
<polygon fill="#ffffff" stroke="#000000" points="131.5,-152.5 131.5,-171.5 224.5,-171.5 224.5,-152.5 131.5,-152.5"/>
<text text-anchor="middle" x="178" y="-159.5" font-family="Helvetica,sans-Serif" font-size="10.00" fill="#000000">Synchronizer(2)</text>
</a>
</g>
</g>
<!-- Node39&#45;&gt;Node36 -->
<g id="edge16" class="edge">
<title>Node39&#45;&gt;Node36</title>
<path fill="none" stroke="#191970" d="M234.8357,-153.733C260.4883,-150.0017 289.8175,-145.7356 311.4577,-142.588"/>
<polygon fill="#191970" stroke="#191970" points="234.2331,-150.2837 224.841,-155.1868 235.2407,-157.2108 234.2331,-150.2837"/>
</g>
<!-- Node40 -->
<g id="node15" class="node">
<title>Node40</title>
<g id="a_node15"><a xlink:href="classFifoWrFsm.html" target="_top" xlink:title="FifoWrFsm">
<polygon fill="#ffffff" stroke="#000000" points="144.5,-114.5 144.5,-133.5 211.5,-133.5 211.5,-114.5 144.5,-114.5"/>
<text text-anchor="middle" x="178" y="-121.5" font-family="Helvetica,sans-Serif" font-size="10.00" fill="#000000">FifoWrFsm</text>
</a>
</g>
</g>
<!-- Node40&#45;&gt;Node36 -->
<g id="edge17" class="edge">
<title>Node40&#45;&gt;Node36</title>
<path fill="none" stroke="#191970" d="M221.8006,-127.7164C250.0294,-130.1116 286.0737,-133.1699 311.4927,-135.3267"/>
<polygon fill="#191970" stroke="#191970" points="222.0485,-124.225 211.7884,-126.8669 221.4566,-131.1999 222.0485,-124.225"/>
</g>
<!-- Node41 -->
<g id="node16" class="node">
<title>Node41</title>
<g id="a_node16"><a xlink:href="classFifoRdFsm.html" target="_top" xlink:title="FifoRdFsm">
<polygon fill="#ffffff" stroke="#000000" points="144.5,-76.5 144.5,-95.5 211.5,-95.5 211.5,-76.5 144.5,-76.5"/>
<text text-anchor="middle" x="178" y="-83.5" font-family="Helvetica,sans-Serif" font-size="10.00" fill="#000000">FifoRdFsm</text>
</a>
</g>
</g>
<!-- Node41&#45;&gt;Node36 -->
<g id="edge18" class="edge">
<title>Node41&#45;&gt;Node36</title>
<path fill="none" stroke="#191970" d="M219.4392,-98.6194C226.3113,-100.735 233.3596,-102.9189 240,-105 264.7268,-112.7495 292.7256,-121.7335 313.2835,-128.3691"/>
<polygon fill="#191970" stroke="#191970" points="220.1518,-95.177 209.5649,-95.5885 218.0977,-101.8689 220.1518,-95.177"/>
</g>
<!-- Node42 -->
<g id="node17" class="node">
<title>Node42</title>
<g id="a_node17"><a xlink:href="classSimpleDualPortRam.html" target="_top" xlink:title="SimpleDualPortRam">
<polygon fill="#ffffff" stroke="#000000" points="120.5,-38.5 120.5,-57.5 235.5,-57.5 235.5,-38.5 120.5,-38.5"/>
<text text-anchor="middle" x="178" y="-45.5" font-family="Helvetica,sans-Serif" font-size="10.00" fill="#000000">SimpleDualPortRam</text>
</a>
</g>
</g>
<!-- Node42&#45;&gt;Node36 -->
<g id="edge19" class="edge">
<title>Node42&#45;&gt;Node36</title>
<path fill="none" stroke="#191970" d="M225.4,-60.8646C230.4138,-62.7141 235.368,-64.7599 240,-67 275.9764,-84.3983 313.4467,-113.4652 331.6779,-128.4392"/>
<polygon fill="#191970" stroke="#191970" points="226.3487,-57.4898 215.7541,-57.5504 224.0741,-64.1099 226.3487,-57.4898"/>
</g>
<!-- Node43 -->
<g id="node18" class="node">
<title>Node43</title>
<g id="a_node18"><a xlink:href="classFifoOutputPipeline.html" target="_top" xlink:title="FifoOutputPipeline">
<polygon fill="#ffffff" stroke="#000000" points="125,-.5 125,-19.5 231,-19.5 231,-.5 125,-.5"/>
<text text-anchor="middle" x="178" y="-7.5" font-family="Helvetica,sans-Serif" font-size="10.00" fill="#000000">FifoOutputPipeline</text>
</a>
</g>
</g>
<!-- Node43&#45;&gt;Node36 -->
<g id="edge20" class="edge">
<title>Node43&#45;&gt;Node36</title>
<path fill="none" stroke="#191970" d="M229.1816,-23.3074C232.9487,-24.9987 236.5999,-26.8894 240,-29 284.0201,-56.325 321.8418,-107.0328 336.502,-128.259"/>
<polygon fill="#191970" stroke="#191970" points="230.2409,-19.9616 219.656,-19.5024 227.6442,-26.4622 230.2409,-19.9616"/>
</g>
</g>
</svg>
