<?xml version="1.0" encoding="UTF-8" standalone="no"?>
<!DOCTYPE svg PUBLIC "-//W3C//DTD SVG 1.1//EN"
 "http://www.w3.org/Graphics/SVG/1.1/DTD/svg11.dtd">
<!-- Generated by graphviz version 2.43.0 (0)
 -->
<!-- Title: RssiCoreTb Pages: 1 -->
<svg width="1190pt" height="891pt"
 viewBox="0.00 0.00 1190.00 891.25" xmlns="http://www.w3.org/2000/svg" xmlns:xlink="http://www.w3.org/1999/xlink">
<g id="graph0" class="graph" transform="scale(1 1) rotate(0) translate(4 887.25)">
<title>RssiCoreTb</title>
<polygon fill="white" stroke="transparent" points="-4,4 -4,-887.25 1186,-887.25 1186,4 -4,4"/>
<!-- Node1 -->
<g id="node1" class="node">
<title>Node1</title>
<g id="a_node1"><a xlink:title=" ">
<polygon fill="#bfbfbf" stroke="black" points="1111,-532.5 1111,-551.5 1182,-551.5 1182,-532.5 1111,-532.5"/>
<text text-anchor="middle" x="1146.5" y="-539.5" font-family="Helvetica,sans-Serif" font-size="10.00">RssiCoreTb</text>
</a>
</g>
</g>
<!-- Node2 -->
<g id="node2" class="node">
<title>Node2</title>
<g id="a_node2"><a xlink:href="classClkRst.html" target="_top" xlink:title=" ">
<polygon fill="white" stroke="black" points="994,-589.5 994,-608.5 1042,-608.5 1042,-589.5 994,-589.5"/>
<text text-anchor="middle" x="1018" y="-596.5" font-family="Helvetica,sans-Serif" font-size="10.00">ClkRst</text>
</a>
</g>
</g>
<!-- Node2&#45;&gt;Node1 -->
<g id="edge1" class="edge">
<title>Node2&#45;&gt;Node1</title>
<path fill="none" stroke="midnightblue" d="M1051.96,-588.84C1059.62,-586.2 1067.67,-583.19 1075,-580 1094.38,-571.56 1115.6,-559.75 1129.64,-551.54"/>
<polygon fill="midnightblue" stroke="midnightblue" points="1050.6,-585.61 1042.22,-592.09 1052.81,-592.25 1050.6,-585.61"/>
</g>
<!-- Node3 -->
<g id="node3" class="node">
<title>Node3</title>
<g id="a_node3"><a xlink:href="classAxiLiteCrossbar.html" target="_top" xlink:title=" ">
<polygon fill="white" stroke="black" points="971.5,-551.5 971.5,-570.5 1064.5,-570.5 1064.5,-551.5 971.5,-551.5"/>
<text text-anchor="middle" x="1018" y="-558.5" font-family="Helvetica,sans-Serif" font-size="10.00">AxiLiteCrossbar</text>
</a>
</g>
</g>
<!-- Node3&#45;&gt;Node1 -->
<g id="edge2" class="edge">
<title>Node3&#45;&gt;Node1</title>
<path fill="none" stroke="midnightblue" d="M1074.78,-552.62C1086.96,-550.79 1099.53,-548.91 1110.62,-547.24"/>
<polygon fill="midnightblue" stroke="midnightblue" points="1074.04,-549.19 1064.67,-554.14 1075.08,-556.12 1074.04,-549.19"/>
</g>
<!-- Node4 -->
<g id="node4" class="node">
<title>Node4</title>
<g id="a_node4"><a xlink:href="classSrpV3AxiLite.html" target="_top" xlink:title=" ">
<polygon fill="white" stroke="black" points="978.5,-513.5 978.5,-532.5 1057.5,-532.5 1057.5,-513.5 978.5,-513.5"/>
<text text-anchor="middle" x="1018" y="-520.5" font-family="Helvetica,sans-Serif" font-size="10.00">SrpV3AxiLite</text>
</a>
</g>
</g>
<!-- Node4&#45;&gt;Node1 -->
<g id="edge3" class="edge">
<title>Node4&#45;&gt;Node1</title>
<path fill="none" stroke="midnightblue" d="M1067.88,-530.34C1082.26,-532.5 1097.68,-534.82 1110.96,-536.81"/>
<polygon fill="midnightblue" stroke="midnightblue" points="1068.05,-526.83 1057.64,-528.8 1067.01,-533.75 1068.05,-526.83"/>
</g>
<!-- Node5 -->
<g id="node5" class="node">
<title>Node5</title>
<g id="a_node5"><a xlink:href="classSsiFrameLimiter.html" target="_top" xlink:title=" ">
<polygon fill="white" stroke="black" points="808.5,-722.5 808.5,-741.5 904.5,-741.5 904.5,-722.5 808.5,-722.5"/>
<text text-anchor="middle" x="856.5" y="-729.5" font-family="Helvetica,sans-Serif" font-size="10.00">SsiFrameLimiter</text>
</a>
</g>
</g>
<!-- Node5&#45;&gt;Node4 -->
<g id="edge4" class="edge">
<title>Node5&#45;&gt;Node4</title>
<path fill="none" stroke="midnightblue" d="M869.06,-713.68C882.94,-691.41 906.66,-652.5 925,-618 942.54,-585 933.09,-566.86 961,-542 965.98,-537.56 972.05,-534.15 978.32,-531.53"/>
<polygon fill="midnightblue" stroke="midnightblue" points="865.93,-712.08 863.59,-722.41 871.86,-715.8 865.93,-712.08"/>
</g>
<!-- Node6 -->
<g id="node6" class="node">
<title>Node6</title>
<g id="a_node6"><a xlink:href="classAxiStreamResize.html" target="_top" xlink:title=" ">
<polygon fill="white" stroke="black" points="434,-722.5 434,-741.5 534,-741.5 534,-722.5 434,-722.5"/>
<text text-anchor="middle" x="484" y="-729.5" font-family="Helvetica,sans-Serif" font-size="10.00">AxiStreamResize</text>
</a>
</g>
</g>
<!-- Node6&#45;&gt;Node5 -->
<g id="edge5" class="edge">
<title>Node6&#45;&gt;Node5</title>
<path fill="none" stroke="midnightblue" d="M544.21,-732C617.6,-732 741.18,-732 808.44,-732"/>
<polygon fill="midnightblue" stroke="midnightblue" points="544.2,-728.5 534.2,-732 544.2,-735.5 544.2,-728.5"/>
</g>
<!-- Node7 -->
<g id="node7" class="node">
<title>Node7</title>
<g id="a_node7"><a xlink:href="classAxiStreamPipeline.html" target="_top" xlink:title=" ">
<polygon fill="white" stroke="black" points="267.5,-684.5 267.5,-703.5 374.5,-703.5 374.5,-684.5 267.5,-684.5"/>
<text text-anchor="middle" x="321" y="-691.5" font-family="Helvetica,sans-Serif" font-size="10.00">AxiStreamPipeline</text>
</a>
</g>
</g>
<!-- Node7&#45;&gt;Node6 -->
<g id="edge6" class="edge">
<title>Node7&#45;&gt;Node6</title>
<path fill="none" stroke="midnightblue" d="M372.4,-705.9C395.03,-711.24 421.37,-717.45 442.67,-722.48"/>
<polygon fill="midnightblue" stroke="midnightblue" points="373.16,-702.48 362.63,-703.59 371.56,-709.29 373.16,-702.48"/>
</g>
<!-- Node8 -->
<g id="node8" class="node">
<title>Node8</title>
<g id="a_node8"><a xlink:href="classAxiStreamFifoV2.html" target="_top" xlink:title=" ">
<polygon fill="white" stroke="black" points="611,-760.5 611,-779.5 723,-779.5 723,-760.5 611,-760.5"/>
<text text-anchor="middle" x="667" y="-767.5" font-family="Helvetica,sans-Serif" font-size="10.00">AxiStreamFifoV2(2)</text>
</a>
</g>
</g>
<!-- Node7&#45;&gt;Node8 -->
<g id="edge17" class="edge">
<title>Node7&#45;&gt;Node8</title>
<path fill="none" stroke="midnightblue" d="M346.83,-708.91C373.77,-724.96 414.01,-748.55 422,-751 484.75,-770.27 560.64,-773.2 610.94,-772.49"/>
<polygon fill="midnightblue" stroke="midnightblue" points="348.31,-705.72 337.93,-703.59 344.72,-711.73 348.31,-705.72"/>
</g>
<!-- Node9 -->
<g id="node9" class="node">
<title>Node9</title>
<g id="a_node9"><a xlink:href="classAxiStreamResize.html" target="_top" xlink:title=" ">
<polygon fill="white" stroke="black" points="427.5,-646.5 427.5,-665.5 540.5,-665.5 540.5,-646.5 427.5,-646.5"/>
<text text-anchor="middle" x="484" y="-653.5" font-family="Helvetica,sans-Serif" font-size="10.00">AxiStreamResize(2)</text>
</a>
</g>
</g>
<!-- Node7&#45;&gt;Node9 -->
<g id="edge9" class="edge">
<title>Node7&#45;&gt;Node9</title>
<path fill="none" stroke="midnightblue" d="M372.4,-682.1C395.03,-676.76 421.37,-670.55 442.67,-665.52"/>
<polygon fill="midnightblue" stroke="midnightblue" points="371.56,-678.71 362.63,-684.41 373.16,-685.52 371.56,-678.71"/>
</g>
<!-- Node28 -->
<g id="node21" class="node">
<title>Node28</title>
<g id="a_node21"><a xlink:href="classAxiStreamMux.html" target="_top" xlink:title=" ">
<polygon fill="white" stroke="black" points="812,-228.5 812,-247.5 901,-247.5 901,-228.5 812,-228.5"/>
<text text-anchor="middle" x="856.5" y="-235.5" font-family="Helvetica,sans-Serif" font-size="10.00">AxiStreamMux</text>
</a>
</g>
</g>
<!-- Node7&#45;&gt;Node28 -->
<g id="edge27" class="edge">
<title>Node7&#45;&gt;Node28</title>
<path fill="none" stroke="midnightblue" d="M328.16,-674.92C350.36,-609.34 433.04,-391.74 582,-291 652.11,-243.58 754.17,-236.23 811.74,-236.32"/>
<polygon fill="midnightblue" stroke="midnightblue" points="324.83,-673.81 325.01,-684.41 331.48,-676.02 324.83,-673.81"/>
</g>
<!-- Node60 -->
<g id="node50" class="node">
<title>Node60</title>
<g id="a_node50"><a xlink:href="classAxiStreamDeMux.html" target="_top" xlink:title=" ">
<polygon fill="white" stroke="black" points="805.5,-589.5 805.5,-608.5 907.5,-608.5 907.5,-589.5 805.5,-589.5"/>
<text text-anchor="middle" x="856.5" y="-596.5" font-family="Helvetica,sans-Serif" font-size="10.00">AxiStreamDeMux</text>
</a>
</g>
</g>
<!-- Node7&#45;&gt;Node60 -->
<g id="edge70" class="edge">
<title>Node7&#45;&gt;Node60</title>
<path fill="none" stroke="midnightblue" d="M384.66,-699.91C470.12,-705.79 626.88,-708.74 752,-667 789.93,-654.34 827.38,-624.18 845.03,-608.63"/>
<polygon fill="midnightblue" stroke="midnightblue" points="384.83,-696.41 374.6,-699.18 384.32,-703.39 384.83,-696.41"/>
</g>
<!-- Node8&#45;&gt;Node4 -->
<g id="edge18" class="edge">
<title>Node8&#45;&gt;Node4</title>
<path fill="none" stroke="midnightblue" d="M713.35,-781.69C770.35,-793.4 867.65,-803.05 925,-751 994.8,-687.65 899.77,-613.66 961,-542 965.6,-536.61 971.79,-532.75 978.38,-529.98"/>
<polygon fill="midnightblue" stroke="midnightblue" points="714.05,-778.26 703.54,-779.57 712.57,-785.1 714.05,-778.26"/>
</g>
<!-- Node8&#45;&gt;Node5 -->
<g id="edge7" class="edge">
<title>Node8&#45;&gt;Node5</title>
<path fill="none" stroke="midnightblue" d="M725.28,-758.39C751.95,-752.99 783.28,-746.64 808.53,-741.52"/>
<polygon fill="midnightblue" stroke="midnightblue" points="724.42,-754.99 715.31,-760.41 725.81,-761.85 724.42,-754.99"/>
</g>
<!-- Node37 -->
<g id="node30" class="node">
<title>Node37</title>
<g id="a_node30"><a xlink:href="classRssiCore.html" target="_top" xlink:title=" ">
<polygon fill="white" stroke="black" points="827,-456.5 827,-475.5 886,-475.5 886,-456.5 827,-456.5"/>
<text text-anchor="middle" x="856.5" y="-463.5" font-family="Helvetica,sans-Serif" font-size="10.00">RssiCore</text>
</a>
</g>
</g>
<!-- Node8&#45;&gt;Node37 -->
<g id="edge53" class="edge">
<title>Node8&#45;&gt;Node37</title>
<path fill="none" stroke="midnightblue" d="M685.18,-753.07C703.62,-734.16 732.84,-702 752,-670 774.13,-633.04 768.97,-618.65 788,-580 807.71,-539.97 836.31,-495.14 849.01,-475.78"/>
<polygon fill="midnightblue" stroke="midnightblue" points="682.55,-750.75 678,-760.32 687.52,-755.68 682.55,-750.75"/>
</g>
<!-- Node9&#45;&gt;Node8 -->
<g id="edge8" class="edge">
<title>Node9&#45;&gt;Node8</title>
<path fill="none" stroke="midnightblue" d="M508.95,-671.08C546.78,-694.91 619.31,-740.59 650.8,-760.42"/>
<polygon fill="midnightblue" stroke="midnightblue" points="510.45,-667.89 500.12,-665.52 506.72,-673.81 510.45,-667.89"/>
</g>
<!-- Node27 -->
<g id="node20" class="node">
<title>Node27</title>
<g id="a_node20"><a xlink:href="classRssiCoreWrapper.html" target="_top" xlink:title=" ">
<polygon fill="white" stroke="black" points="961,-228.5 961,-247.5 1075,-247.5 1075,-228.5 961,-228.5"/>
<text text-anchor="middle" x="1018" y="-235.5" font-family="Helvetica,sans-Serif" font-size="10.00">RssiCoreWrapper(2)</text>
</a>
</g>
</g>
<!-- Node9&#45;&gt;Node27 -->
<g id="edge25" class="edge">
<title>Node9&#45;&gt;Node27</title>
<path fill="none" stroke="midnightblue" d="M484.53,-636.2C484.34,-579.69 491.97,-416.37 582,-333 585.62,-329.64 861.04,-271.03 971.71,-247.58"/>
<polygon fill="midnightblue" stroke="midnightblue" points="481.03,-636.34 484.66,-646.3 488.03,-636.26 481.03,-636.34"/>
</g>
<!-- Node9&#45;&gt;Node37 -->
<g id="edge44" class="edge">
<title>Node9&#45;&gt;Node37</title>
<path fill="none" stroke="midnightblue" d="M546.42,-666.8C603.88,-673.59 689.91,-674.96 752,-637 756.05,-634.52 828.92,-511.14 849.89,-475.53"/>
<polygon fill="midnightblue" stroke="midnightblue" points="546.76,-663.32 536.39,-665.53 545.87,-670.26 546.76,-663.32"/>
</g>
<!-- Node10 -->
<g id="node10" class="node">
<title>Node10</title>
<g id="a_node10"><a xlink:href="classFifoCascade.html" target="_top" xlink:title=" ">
<polygon fill="white" stroke="black" points="439.5,-798.5 439.5,-817.5 528.5,-817.5 528.5,-798.5 439.5,-798.5"/>
<text text-anchor="middle" x="484" y="-805.5" font-family="Helvetica,sans-Serif" font-size="10.00">FifoCascade(2)</text>
</a>
</g>
</g>
<!-- Node10&#45;&gt;Node8 -->
<g id="edge10" class="edge">
<title>Node10&#45;&gt;Node8</title>
<path fill="none" stroke="midnightblue" d="M538.91,-796.68C564.96,-791.21 595.88,-784.72 620.7,-779.51"/>
<polygon fill="midnightblue" stroke="midnightblue" points="537.88,-793.32 528.82,-798.8 539.32,-800.17 537.88,-793.32"/>
</g>
<!-- Node11 -->
<g id="node11" class="node">
<title>Node11</title>
<g id="a_node11"><a xlink:href="classFifo.html" target="_top" xlink:title=" ">
<polygon fill="white" stroke="black" points="297,-741.5 297,-760.5 345,-760.5 345,-741.5 297,-741.5"/>
<text text-anchor="middle" x="321" y="-748.5" font-family="Helvetica,sans-Serif" font-size="10.00">Fifo(4)</text>
</a>
</g>
</g>
<!-- Node11&#45;&gt;Node10 -->
<g id="edge11" class="edge">
<title>Node11&#45;&gt;Node10</title>
<path fill="none" stroke="midnightblue" d="M354.61,-762.54C384.42,-773.1 428.01,-788.53 455.94,-798.42"/>
<polygon fill="midnightblue" stroke="midnightblue" points="355.66,-759.2 345.07,-759.17 353.33,-765.8 355.66,-759.2"/>
</g>
<!-- Node12 -->
<g id="node12" class="node">
<title>Node12</title>
<g id="a_node12"><a xlink:href="classFifoXpm.html" target="_top" xlink:title=" ">
<polygon fill="white" stroke="red" points="139.5,-779.5 139.5,-798.5 196.5,-798.5 196.5,-779.5 139.5,-779.5"/>
<text text-anchor="middle" x="168" y="-786.5" font-family="Helvetica,sans-Serif" font-size="10.00">FifoXpm</text>
</a>
</g>
</g>
<!-- Node12&#45;&gt;Node11 -->
<g id="edge12" class="edge">
<title>Node12&#45;&gt;Node11</title>
<path fill="none" stroke="midnightblue" d="M206.66,-779.52C235,-772.39 272.94,-762.84 296.93,-756.81"/>
<polygon fill="midnightblue" stroke="midnightblue" points="205.54,-776.2 196.7,-782.03 207.25,-782.98 205.54,-776.2"/>
</g>
<!-- Node14 -->
<g id="node13" class="node">
<title>Node14</title>
<g id="a_node13"><a xlink:href="classFifoAlteraMf.html" target="_top" xlink:title=" ">
<polygon fill="white" stroke="red" points="129.5,-741.5 129.5,-760.5 206.5,-760.5 206.5,-741.5 129.5,-741.5"/>
<text text-anchor="middle" x="168" y="-748.5" font-family="Helvetica,sans-Serif" font-size="10.00">FifoAlteraMf</text>
</a>
</g>
</g>
<!-- Node14&#45;&gt;Node11 -->
<g id="edge13" class="edge">
<title>Node14&#45;&gt;Node11</title>
<path fill="none" stroke="midnightblue" d="M217.02,-751C243.7,-751 275.67,-751 296.84,-751"/>
<polygon fill="midnightblue" stroke="midnightblue" points="216.71,-747.5 206.71,-751 216.71,-754.5 216.71,-747.5"/>
</g>
<!-- Node15 -->
<g id="node14" class="node">
<title>Node15</title>
<g id="a_node14"><a xlink:href="classFifoAsync.html" target="_top" xlink:title=" ">
<polygon fill="white" stroke="red" points="136,-228.5 136,-247.5 200,-247.5 200,-228.5 136,-228.5"/>
<text text-anchor="middle" x="168" y="-235.5" font-family="Helvetica,sans-Serif" font-size="10.00">FifoAsync</text>
</a>
</g>
</g>
<!-- Node15&#45;&gt;Node11 -->
<g id="edge14" class="edge">
<title>Node15&#45;&gt;Node11</title>
<path fill="none" stroke="midnightblue" d="M197.64,-252.97C206.27,-258.95 214.82,-266.66 220,-276 314.51,-446.43 152.72,-547.74 256,-713 265.25,-727.79 282.54,-737.55 296.82,-743.47"/>
<polygon fill="midnightblue" stroke="midnightblue" points="199.42,-249.96 189.1,-247.58 195.69,-255.88 199.42,-249.96"/>
</g>
<!-- Node40 -->
<g id="node33" class="node">
<title>Node40</title>
<g id="a_node33"><a xlink:href="classSynchronizerFifo.html" target="_top" xlink:title=" ">
<polygon fill="white" stroke="black" points="428.5,-190.5 428.5,-209.5 539.5,-209.5 539.5,-190.5 428.5,-190.5"/>
<text text-anchor="middle" x="484" y="-197.5" font-family="Helvetica,sans-Serif" font-size="10.00">SynchronizerFifo(4)</text>
</a>
</g>
</g>
<!-- Node15&#45;&gt;Node40 -->
<g id="edge41" class="edge">
<title>Node15&#45;&gt;Node40</title>
<path fill="none" stroke="midnightblue" d="M210.32,-227.81C224.7,-224.58 240.99,-221.26 256,-219 314.47,-210.21 382.06,-205.21 428.18,-202.56"/>
<polygon fill="midnightblue" stroke="midnightblue" points="209.18,-224.48 200.23,-230.14 210.76,-231.3 209.18,-224.48"/>
</g>
<!-- Node53 -->
<g id="node46" class="node">
<title>Node53</title>
<g id="a_node46"><a xlink:href="classSynchronizerFifo.html" target="_top" xlink:title=" ">
<polygon fill="white" stroke="black" points="272,-228.5 272,-247.5 370,-247.5 370,-228.5 272,-228.5"/>
<text text-anchor="middle" x="321" y="-235.5" font-family="Helvetica,sans-Serif" font-size="10.00">SynchronizerFifo</text>
</a>
</g>
</g>
<!-- Node15&#45;&gt;Node53 -->
<g id="edge58" class="edge">
<title>Node15&#45;&gt;Node53</title>
<path fill="none" stroke="midnightblue" d="M210.42,-238C229.41,-238 252.05,-238 271.8,-238"/>
<polygon fill="midnightblue" stroke="midnightblue" points="210.29,-234.5 200.29,-238 210.29,-241.5 210.29,-234.5"/>
</g>
<!-- Node23 -->
<g id="node15" class="node">
<title>Node23</title>
<g id="a_node15"><a xlink:href="classFifoSync.html" target="_top" xlink:title=" ">
<polygon fill="white" stroke="red" points="139,-703.5 139,-722.5 197,-722.5 197,-703.5 139,-703.5"/>
<text text-anchor="middle" x="168" y="-710.5" font-family="Helvetica,sans-Serif" font-size="10.00">FifoSync</text>
</a>
</g>
</g>
<!-- Node23&#45;&gt;Node11 -->
<g id="edge15" class="edge">
<title>Node23&#45;&gt;Node11</title>
<path fill="none" stroke="midnightblue" d="M206.96,-722.55C235.12,-729.64 272.64,-739.08 296.56,-745.1"/>
<polygon fill="midnightblue" stroke="midnightblue" points="207.6,-719.1 197.05,-720.06 205.89,-725.89 207.6,-719.1"/>
</g>
<!-- Node17 -->
<g id="node16" class="node">
<title>Node17</title>
<g id="a_node16"><a xlink:href="classSynchronizer.html" target="_top" xlink:title=" ">
<polygon fill="white" stroke="black" points="0,-323.5 0,-342.5 80,-342.5 80,-323.5 0,-323.5"/>
<text text-anchor="middle" x="40" y="-330.5" font-family="Helvetica,sans-Serif" font-size="10.00">Synchronizer</text>
</a>
</g>
</g>
<!-- Node17&#45;&gt;Node8 -->
<g id="edge16" class="edge">
<title>Node17&#45;&gt;Node8</title>
<path fill="none" stroke="midnightblue" d="M40.99,-353.05C41.41,-435.35 47.57,-745.76 116,-808 257.51,-936.72 359.39,-869.07 546,-827 586.5,-817.87 629.37,-793.4 651.26,-779.67"/>
<polygon fill="midnightblue" stroke="midnightblue" points="44.49,-352.61 40.96,-342.62 37.49,-352.63 44.49,-352.61"/>
</g>
<!-- Node25 -->
<g id="node18" class="node">
<title>Node25</title>
<g id="a_node18"><a xlink:href="classRstSync.html" target="_top" xlink:title=" ">
<polygon fill="white" stroke="black" points="140,-285.5 140,-304.5 196,-304.5 196,-285.5 140,-285.5"/>
<text text-anchor="middle" x="168" y="-292.5" font-family="Helvetica,sans-Serif" font-size="10.00">RstSync</text>
</a>
</g>
</g>
<!-- Node17&#45;&gt;Node25 -->
<g id="edge21" class="edge">
<title>Node17&#45;&gt;Node25</title>
<path fill="none" stroke="midnightblue" d="M82.37,-320.52C101.28,-314.82 123.14,-308.23 139.91,-303.17"/>
<polygon fill="midnightblue" stroke="midnightblue" points="81.36,-317.17 72.8,-323.41 83.38,-323.87 81.36,-317.17"/>
</g>
<!-- Node26 -->
<g id="node19" class="node">
<title>Node26</title>
<g id="a_node19"><a xlink:href="classSynchronizerEdge.html" target="_top" xlink:title=" ">
<polygon fill="white" stroke="black" points="116,-323.5 116,-342.5 220,-342.5 220,-323.5 116,-323.5"/>
<text text-anchor="middle" x="168" y="-330.5" font-family="Helvetica,sans-Serif" font-size="10.00">SynchronizerEdge</text>
</a>
</g>
</g>
<!-- Node17&#45;&gt;Node26 -->
<g id="edge23" class="edge">
<title>Node17&#45;&gt;Node26</title>
<path fill="none" stroke="midnightblue" d="M90.21,-333C98.6,-333 107.34,-333 115.79,-333"/>
<polygon fill="midnightblue" stroke="midnightblue" points="90.18,-329.5 80.18,-333 90.18,-336.5 90.18,-329.5"/>
</g>
<!-- Node24 -->
<g id="node17" class="node">
<title>Node24</title>
<g id="a_node17"><a xlink:href="classSynchronizerOneShot.html" target="_top" xlink:title=" ">
<polygon fill="white" stroke="black" points="260.5,-285.5 260.5,-304.5 381.5,-304.5 381.5,-285.5 260.5,-285.5"/>
<text text-anchor="middle" x="321" y="-292.5" font-family="Helvetica,sans-Serif" font-size="10.00">SynchronizerOneShot</text>
</a>
</g>
</g>
<!-- Node24&#45;&gt;Node4 -->
<g id="edge19" class="edge">
<title>Node24&#45;&gt;Node4</title>
<path fill="none" stroke="midnightblue" d="M391.73,-297.02C496.04,-300.75 687.37,-310.47 752,-333 867.46,-373.25 976.74,-480.84 1008.07,-513.48"/>
<polygon fill="midnightblue" stroke="midnightblue" points="391.72,-293.52 381.6,-296.67 391.48,-300.52 391.72,-293.52"/>
</g>
<!-- Node52 -->
<g id="node45" class="node">
<title>Node52</title>
<g id="a_node45"><a xlink:href="classSyncTrigRate.html" target="_top" xlink:title=" ">
<polygon fill="white" stroke="red" points="444,-228.5 444,-247.5 524,-247.5 524,-228.5 444,-228.5"/>
<text text-anchor="middle" x="484" y="-235.5" font-family="Helvetica,sans-Serif" font-size="10.00">SyncTrigRate</text>
</a>
</g>
</g>
<!-- Node24&#45;&gt;Node52 -->
<g id="edge56" class="edge">
<title>Node24&#45;&gt;Node52</title>
<path fill="none" stroke="midnightblue" d="M355.66,-281.62C374.97,-274.09 399.73,-264.69 422,-257 431.33,-253.78 441.55,-250.5 450.9,-247.59"/>
<polygon fill="midnightblue" stroke="midnightblue" points="354.13,-278.46 346.1,-285.37 356.68,-284.98 354.13,-278.46"/>
</g>
<!-- Node57 -->
<g id="node47" class="node">
<title>Node57</title>
<g id="a_node47"><a xlink:href="classSyncMinMax.html" target="_top" xlink:title=" ">
<polygon fill="white" stroke="red" points="438,-266.5 438,-285.5 530,-285.5 530,-266.5 438,-266.5"/>
<text text-anchor="middle" x="484" y="-273.5" font-family="Helvetica,sans-Serif" font-size="10.00">SyncMinMax(2)</text>
</a>
</g>
</g>
<!-- Node24&#45;&gt;Node57 -->
<g id="edge61" class="edge">
<title>Node24&#45;&gt;Node57</title>
<path fill="none" stroke="midnightblue" d="M392.05,-286.73C407.58,-284.9 423.63,-283.01 437.85,-281.33"/>
<polygon fill="midnightblue" stroke="midnightblue" points="391.47,-283.28 381.95,-287.93 392.29,-290.23 391.47,-283.28"/>
</g>
<!-- Node25&#45;&gt;Node24 -->
<g id="edge20" class="edge">
<title>Node25&#45;&gt;Node24</title>
<path fill="none" stroke="midnightblue" d="M206.52,-295C222.76,-295 242.18,-295 260.32,-295"/>
<polygon fill="midnightblue" stroke="midnightblue" points="206.34,-291.5 196.34,-295 206.34,-298.5 206.34,-291.5"/>
</g>
<!-- Node26&#45;&gt;Node24 -->
<g id="edge22" class="edge">
<title>Node26&#45;&gt;Node24</title>
<path fill="none" stroke="midnightblue" d="M216.84,-320.96C237.94,-315.65 262.38,-309.5 282.17,-304.52"/>
<polygon fill="midnightblue" stroke="midnightblue" points="215.95,-317.58 207.1,-323.41 217.66,-324.36 215.95,-317.58"/>
</g>
<!-- Node27&#45;&gt;Node1 -->
<g id="edge24" class="edge">
<title>Node27&#45;&gt;Node1</title>
<path fill="none" stroke="midnightblue" d="M1027.03,-257.29C1051.36,-315.76 1123.72,-489.65 1141.51,-532.42"/>
<polygon fill="midnightblue" stroke="midnightblue" points="1030.14,-255.66 1023.07,-247.77 1023.68,-258.35 1030.14,-255.66"/>
</g>
<!-- Node28&#45;&gt;Node27 -->
<g id="edge26" class="edge">
<title>Node28&#45;&gt;Node27</title>
<path fill="none" stroke="midnightblue" d="M911.31,-238C927.27,-238 944.78,-238 960.88,-238"/>
<polygon fill="midnightblue" stroke="midnightblue" points="911.08,-234.5 901.08,-238 911.08,-241.5 911.08,-234.5"/>
</g>
<!-- Node29 -->
<g id="node22" class="node">
<title>Node29</title>
<g id="a_node22"><a xlink:href="classAxiStreamPacketizer.html" target="_top" xlink:title=" ">
<polygon fill="white" stroke="black" points="798,-38.5 798,-57.5 915,-57.5 915,-38.5 798,-38.5"/>
<text text-anchor="middle" x="856.5" y="-45.5" font-family="Helvetica,sans-Serif" font-size="10.00">AxiStreamPacketizer</text>
</a>
</g>
</g>
<!-- Node29&#45;&gt;Node27 -->
<g id="edge28" class="edge">
<title>Node29&#45;&gt;Node27</title>
<path fill="none" stroke="midnightblue" d="M917.74,-62.04C920.29,-63.53 922.73,-65.18 925,-67 980.5,-111.49 1007.01,-198.81 1014.62,-228.13"/>
<polygon fill="midnightblue" stroke="midnightblue" points="919.23,-58.87 908.71,-57.57 916.12,-65.14 919.23,-58.87"/>
</g>
<!-- Node30 -->
<g id="node23" class="node">
<title>Node30</title>
<g id="a_node23"><a xlink:href="classAxiStreamPipeline.html" target="_top" xlink:title=" ">
<polygon fill="white" stroke="black" points="607,-0.5 607,-19.5 727,-19.5 727,-0.5 607,-0.5"/>
<text text-anchor="middle" x="667" y="-7.5" font-family="Helvetica,sans-Serif" font-size="10.00">AxiStreamPipeline(2)</text>
</a>
</g>
</g>
<!-- Node30&#45;&gt;Node29 -->
<g id="edge29" class="edge">
<title>Node30&#45;&gt;Node29</title>
<path fill="none" stroke="midnightblue" d="M725.28,-21.61C751.95,-27.01 783.28,-33.36 808.53,-38.48"/>
<polygon fill="midnightblue" stroke="midnightblue" points="725.81,-18.15 715.31,-19.59 724.42,-25.01 725.81,-18.15"/>
</g>
<!-- Node31 -->
<g id="node24" class="node">
<title>Node31</title>
<g id="a_node24"><a xlink:href="classAxiStreamPacketizer2.html" target="_top" xlink:title=" ">
<polygon fill="white" stroke="black" points="795,-76.5 795,-95.5 918,-95.5 918,-76.5 795,-76.5"/>
<text text-anchor="middle" x="856.5" y="-83.5" font-family="Helvetica,sans-Serif" font-size="10.00">AxiStreamPacketizer2</text>
</a>
</g>
</g>
<!-- Node30&#45;&gt;Node31 -->
<g id="edge31" class="edge">
<title>Node30&#45;&gt;Node31</title>
<path fill="none" stroke="midnightblue" d="M736.74,-21.94C742.05,-23.94 747.21,-26.27 752,-29 772.22,-40.51 768.09,-54.97 788,-67 794.36,-70.84 801.52,-73.93 808.74,-76.41"/>
<polygon fill="midnightblue" stroke="midnightblue" points="737.65,-18.55 727.05,-18.69 735.42,-25.18 737.65,-18.55"/>
</g>
<!-- Node58 -->
<g id="node48" class="node">
<title>Node58</title>
<g id="a_node48"><a xlink:href="classAxiStreamDepacketizer.html" target="_top" xlink:title=" ">
<polygon fill="white" stroke="black" points="791,-0.5 791,-19.5 922,-19.5 922,-0.5 791,-0.5"/>
<text text-anchor="middle" x="856.5" y="-7.5" font-family="Helvetica,sans-Serif" font-size="10.00">AxiStreamDepacketizer</text>
</a>
</g>
</g>
<!-- Node30&#45;&gt;Node58 -->
<g id="edge63" class="edge">
<title>Node30&#45;&gt;Node58</title>
<path fill="none" stroke="midnightblue" d="M737.24,-10C754.78,-10 773.56,-10 790.87,-10"/>
<polygon fill="midnightblue" stroke="midnightblue" points="737.07,-6.5 727.07,-10 737.07,-13.5 737.07,-6.5"/>
</g>
<!-- Node59 -->
<g id="node49" class="node">
<title>Node59</title>
<g id="a_node49"><a xlink:href="classAxiStreamDepacketizer2.html" target="_top" xlink:title=" ">
<polygon fill="white" stroke="black" points="788,-114.5 788,-133.5 925,-133.5 925,-114.5 788,-114.5"/>
<text text-anchor="middle" x="856.5" y="-121.5" font-family="Helvetica,sans-Serif" font-size="10.00">AxiStreamDepacketizer2</text>
</a>
</g>
</g>
<!-- Node30&#45;&gt;Node59 -->
<g id="edge65" class="edge">
<title>Node30&#45;&gt;Node59</title>
<path fill="none" stroke="midnightblue" d="M736.64,-19.82C742.15,-22.27 747.37,-25.29 752,-29 781.17,-52.37 759.45,-80.88 788,-105 792.56,-108.85 797.84,-111.92 803.41,-114.37"/>
<polygon fill="midnightblue" stroke="midnightblue" points="737.73,-16.49 727.14,-16.21 735.25,-23.03 737.73,-16.49"/>
</g>
<!-- Node31&#45;&gt;Node27 -->
<g id="edge30" class="edge">
<title>Node31&#45;&gt;Node27</title>
<path fill="none" stroke="midnightblue" d="M916.32,-99.74C919.36,-101.31 922.28,-103.05 925,-105 971.84,-138.44 1002.66,-203.61 1013.08,-228.25"/>
<polygon fill="midnightblue" stroke="midnightblue" points="917.47,-96.42 906.91,-95.55 914.62,-102.82 917.47,-96.42"/>
</g>
<!-- Node32 -->
<g id="node25" class="node">
<title>Node32</title>
<g id="a_node25"><a xlink:href="classDualPortRam.html" target="_top" xlink:title=" ">
<polygon fill="white" stroke="black" points="626.5,-114.5 626.5,-133.5 707.5,-133.5 707.5,-114.5 626.5,-114.5"/>
<text text-anchor="middle" x="667" y="-121.5" font-family="Helvetica,sans-Serif" font-size="10.00">DualPortRam</text>
</a>
</g>
</g>
<!-- Node32&#45;&gt;Node31 -->
<g id="edge32" class="edge">
<title>Node32&#45;&gt;Node31</title>
<path fill="none" stroke="midnightblue" d="M717.79,-113.91C745.91,-108.21 780.85,-101.13 808.5,-95.52"/>
<polygon fill="midnightblue" stroke="midnightblue" points="716.87,-110.52 707.76,-115.94 718.26,-117.39 716.87,-110.52"/>
</g>
<!-- Node32&#45;&gt;Node59 -->
<g id="edge66" class="edge">
<title>Node32&#45;&gt;Node59</title>
<path fill="none" stroke="midnightblue" d="M717.93,-124C739.34,-124 764.68,-124 787.74,-124"/>
<polygon fill="midnightblue" stroke="midnightblue" points="717.76,-120.5 707.76,-124 717.76,-127.5 717.76,-120.5"/>
</g>
<!-- Node33 -->
<g id="node26" class="node">
<title>Node33</title>
<g id="a_node26"><a xlink:href="classTrueDualPortRam.html" target="_top" xlink:title=" ">
<polygon fill="white" stroke="black" points="433.5,-76.5 433.5,-95.5 534.5,-95.5 534.5,-76.5 433.5,-76.5"/>
<text text-anchor="middle" x="484" y="-83.5" font-family="Helvetica,sans-Serif" font-size="10.00">TrueDualPortRam</text>
</a>
</g>
</g>
<!-- Node33&#45;&gt;Node32 -->
<g id="edge33" class="edge">
<title>Node33&#45;&gt;Node32</title>
<path fill="none" stroke="midnightblue" d="M540.65,-97.68C568.41,-103.51 601.35,-110.43 626.49,-115.7"/>
<polygon fill="midnightblue" stroke="midnightblue" points="541.18,-94.22 530.67,-95.59 539.74,-101.07 541.18,-94.22"/>
</g>
<!-- Node34 -->
<g id="node27" class="node">
<title>Node34</title>
<g id="a_node27"><a xlink:href="classQuadPortRam.html" target="_top" xlink:title=" ">
<polygon fill="white" stroke="black" points="442,-38.5 442,-57.5 526,-57.5 526,-38.5 442,-38.5"/>
<text text-anchor="middle" x="484" y="-45.5" font-family="Helvetica,sans-Serif" font-size="10.00">QuadPortRam</text>
</a>
</g>
</g>
<!-- Node34&#45;&gt;Node32 -->
<g id="edge34" class="edge">
<title>Node34&#45;&gt;Node32</title>
<path fill="none" stroke="midnightblue" d="M535.35,-61.36C539.06,-63.04 542.65,-64.92 546,-67 565.75,-79.3 561.78,-93.49 582,-105 595.38,-112.62 611.6,-117.18 626.19,-119.92"/>
<polygon fill="midnightblue" stroke="midnightblue" points="536.56,-58.08 525.98,-57.58 533.94,-64.57 536.56,-58.08"/>
</g>
<!-- Node35 -->
<g id="node28" class="node">
<title>Node35</title>
<g id="a_node28"><a xlink:href="classCrc32Parallel.html" target="_top" xlink:title=" ">
<polygon fill="white" stroke="black" points="627,-76.5 627,-95.5 707,-95.5 707,-76.5 627,-76.5"/>
<text text-anchor="middle" x="667" y="-83.5" font-family="Helvetica,sans-Serif" font-size="10.00">Crc32Parallel</text>
</a>
</g>
</g>
<!-- Node35&#45;&gt;Node31 -->
<g id="edge35" class="edge">
<title>Node35&#45;&gt;Node31</title>
<path fill="none" stroke="midnightblue" d="M717.48,-86C741.2,-86 769.82,-86 794.83,-86"/>
<polygon fill="midnightblue" stroke="midnightblue" points="717.31,-82.5 707.31,-86 717.31,-89.5 717.31,-82.5"/>
</g>
<!-- Node35&#45;&gt;Node59 -->
<g id="edge67" class="edge">
<title>Node35&#45;&gt;Node59</title>
<path fill="none" stroke="midnightblue" d="M717.37,-96C745.6,-101.73 780.81,-108.86 808.62,-114.5"/>
<polygon fill="midnightblue" stroke="midnightblue" points="717.8,-92.52 707.31,-93.97 716.41,-99.38 717.8,-92.52"/>
</g>
<!-- Node36 -->
<g id="node29" class="node">
<title>Node36</title>
<g id="a_node29"><a xlink:href="classCrc32.html" target="_top" xlink:title=" ">
<polygon fill="white" stroke="black" points="645,-38.5 645,-57.5 689,-57.5 689,-38.5 645,-38.5"/>
<text text-anchor="middle" x="667" y="-45.5" font-family="Helvetica,sans-Serif" font-size="10.00">Crc32</text>
</a>
</g>
</g>
<!-- Node36&#45;&gt;Node31 -->
<g id="edge36" class="edge">
<title>Node36&#45;&gt;Node31</title>
<path fill="none" stroke="midnightblue" d="M698.97,-54.28C728.73,-60.31 774.09,-69.5 808.33,-76.44"/>
<polygon fill="midnightblue" stroke="midnightblue" points="699.64,-50.84 689.14,-52.29 698.25,-57.7 699.64,-50.84"/>
</g>
<!-- Node36&#45;&gt;Node59 -->
<g id="edge68" class="edge">
<title>Node36&#45;&gt;Node59</title>
<path fill="none" stroke="midnightblue" d="M699.5,-50.69C715.99,-53.16 736.01,-57.9 752,-67 772.22,-78.51 768.09,-92.97 788,-105 794.36,-108.84 801.52,-111.93 808.74,-114.41"/>
<polygon fill="midnightblue" stroke="midnightblue" points="699.62,-47.17 689.25,-49.37 698.72,-54.12 699.62,-47.17"/>
</g>
<!-- Node37&#45;&gt;Node27 -->
<g id="edge37" class="edge">
<title>Node37&#45;&gt;Node27</title>
<path fill="none" stroke="midnightblue" d="M869.98,-448.16C901.96,-402.45 986.01,-282.31 1010.32,-247.55"/>
<polygon fill="midnightblue" stroke="midnightblue" points="867.01,-446.29 864.15,-456.49 872.75,-450.31 867.01,-446.29"/>
</g>
<!-- Node38 -->
<g id="node31" class="node">
<title>Node38</title>
<g id="a_node31"><a xlink:href="classRssiAxiLiteRegItf.html" target="_top" xlink:title=" ">
<polygon fill="white" stroke="black" points="617,-152.5 617,-171.5 717,-171.5 717,-152.5 617,-152.5"/>
<text text-anchor="middle" x="667" y="-159.5" font-family="Helvetica,sans-Serif" font-size="10.00">RssiAxiLiteRegItf</text>
</a>
</g>
</g>
<!-- Node38&#45;&gt;Node37 -->
<g id="edge38" class="edge">
<title>Node38&#45;&gt;Node37</title>
<path fill="none" stroke="midnightblue" d="M726.84,-167.38C736.03,-170.34 744.84,-174.69 752,-181 774.36,-200.71 838.17,-408.64 852.58,-456.3"/>
<polygon fill="midnightblue" stroke="midnightblue" points="727.74,-164 717.17,-164.76 725.91,-170.75 727.74,-164"/>
</g>
<!-- Node39 -->
<g id="node32" class="node">
<title>Node39</title>
<g id="a_node32"><a xlink:href="classSynchronizerVector.html" target="_top" xlink:title=" ">
<polygon fill="white" stroke="black" points="422,-152.5 422,-171.5 546,-171.5 546,-152.5 422,-152.5"/>
<text text-anchor="middle" x="484" y="-159.5" font-family="Helvetica,sans-Serif" font-size="10.00">SynchronizerVector(3)</text>
</a>
</g>
</g>
<!-- Node39&#45;&gt;Node38 -->
<g id="edge39" class="edge">
<title>Node39&#45;&gt;Node38</title>
<path fill="none" stroke="midnightblue" d="M556.2,-162C576.54,-162 598.24,-162 616.94,-162"/>
<polygon fill="midnightblue" stroke="midnightblue" points="556.03,-158.5 546.03,-162 556.03,-165.5 556.03,-158.5"/>
</g>
<!-- Node40&#45;&gt;Node38 -->
<g id="edge40" class="edge">
<title>Node40&#45;&gt;Node38</title>
<path fill="none" stroke="midnightblue" d="M540.64,-188.32C566.31,-182.93 596.39,-176.61 620.65,-171.52"/>
<polygon fill="midnightblue" stroke="midnightblue" points="539.74,-184.93 530.67,-190.41 541.18,-191.78 539.74,-184.93"/>
</g>
<!-- Node51 -->
<g id="node44" class="node">
<title>Node51</title>
<g id="a_node44"><a xlink:href="classAxiStreamMon.html" target="_top" xlink:title=" ">
<polygon fill="white" stroke="black" points="622.5,-190.5 622.5,-209.5 711.5,-209.5 711.5,-190.5 622.5,-190.5"/>
<text text-anchor="middle" x="667" y="-197.5" font-family="Helvetica,sans-Serif" font-size="10.00">AxiStreamMon</text>
</a>
</g>
</g>
<!-- Node40&#45;&gt;Node51 -->
<g id="edge59" class="edge">
<title>Node40&#45;&gt;Node51</title>
<path fill="none" stroke="midnightblue" d="M549.91,-200C573.94,-200 600.59,-200 622.29,-200"/>
<polygon fill="midnightblue" stroke="midnightblue" points="549.8,-196.5 539.8,-200 549.8,-203.5 549.8,-196.5"/>
</g>
<!-- Node41 -->
<g id="node34" class="node">
<title>Node41</title>
<g id="a_node34"><a xlink:href="classRssiParamSync.html" target="_top" xlink:title=" ">
<polygon fill="white" stroke="black" points="432,-114.5 432,-133.5 536,-133.5 536,-114.5 432,-114.5"/>
<text text-anchor="middle" x="484" y="-121.5" font-family="Helvetica,sans-Serif" font-size="10.00">RssiParamSync(2)</text>
</a>
</g>
</g>
<!-- Node41&#45;&gt;Node38 -->
<g id="edge42" class="edge">
<title>Node41&#45;&gt;Node38</title>
<path fill="none" stroke="midnightblue" d="M540.64,-135.68C566.31,-141.07 596.39,-147.39 620.65,-152.48"/>
<polygon fill="midnightblue" stroke="midnightblue" points="541.18,-132.22 530.67,-133.59 539.74,-139.07 541.18,-132.22"/>
</g>
<!-- Node42 -->
<g id="node35" class="node">
<title>Node42</title>
<g id="a_node35"><a xlink:href="classSynchronizerVector.html" target="_top" xlink:title=" ">
<polygon fill="white" stroke="black" points="256,-114.5 256,-133.5 386,-133.5 386,-114.5 256,-114.5"/>
<text text-anchor="middle" x="321" y="-121.5" font-family="Helvetica,sans-Serif" font-size="10.00">SynchronizerVector(12)</text>
</a>
</g>
</g>
<!-- Node42&#45;&gt;Node41 -->
<g id="edge43" class="edge">
<title>Node42&#45;&gt;Node41</title>
<path fill="none" stroke="midnightblue" d="M396.14,-124C408.19,-124 420.42,-124 431.76,-124"/>
<polygon fill="midnightblue" stroke="midnightblue" points="396.09,-120.5 386.09,-124 396.09,-127.5 396.09,-120.5"/>
</g>
<!-- Node43 -->
<g id="node36" class="node">
<title>Node43</title>
<g id="a_node36"><a xlink:href="classRssiConnFsm.html" target="_top" xlink:title=" ">
<polygon fill="white" stroke="black" points="625.5,-608.5 625.5,-627.5 708.5,-627.5 708.5,-608.5 625.5,-608.5"/>
<text text-anchor="middle" x="667" y="-615.5" font-family="Helvetica,sans-Serif" font-size="10.00">RssiConnFsm</text>
</a>
</g>
</g>
<!-- Node43&#45;&gt;Node37 -->
<g id="edge45" class="edge">
<title>Node43&#45;&gt;Node37</title>
<path fill="none" stroke="midnightblue" d="M718.69,-612.38C730.25,-609.56 742.04,-605.33 752,-599 802.87,-566.68 838.89,-500.25 851.02,-475.54"/>
<polygon fill="midnightblue" stroke="midnightblue" points="717.7,-609.02 708.65,-614.52 719.16,-615.86 717.7,-609.02"/>
</g>
<!-- Node44 -->
<g id="node37" class="node">
<title>Node44</title>
<g id="a_node37"><a xlink:href="classRssiMonitor.html" target="_top" xlink:title=" ">
<polygon fill="white" stroke="black" points="630,-570.5 630,-589.5 704,-589.5 704,-570.5 630,-570.5"/>
<text text-anchor="middle" x="667" y="-577.5" font-family="Helvetica,sans-Serif" font-size="10.00">RssiMonitor</text>
</a>
</g>
</g>
<!-- Node44&#45;&gt;Node37 -->
<g id="edge46" class="edge">
<title>Node44&#45;&gt;Node37</title>
<path fill="none" stroke="midnightblue" d="M714.17,-574.04C726.9,-571.22 740.4,-567.08 752,-561 794.35,-538.82 832.52,-494.91 848.09,-475.55"/>
<polygon fill="midnightblue" stroke="midnightblue" points="713.29,-570.65 704.17,-576.03 714.66,-577.51 713.29,-570.65"/>
</g>
<!-- Node45 -->
<g id="node38" class="node">
<title>Node45</title>
<g id="a_node38"><a xlink:href="classRssiHeaderReg.html" target="_top" xlink:title=" ">
<polygon fill="white" stroke="black" points="621.5,-532.5 621.5,-551.5 712.5,-551.5 712.5,-532.5 621.5,-532.5"/>
<text text-anchor="middle" x="667" y="-539.5" font-family="Helvetica,sans-Serif" font-size="10.00">RssiHeaderReg</text>
</a>
</g>
</g>
<!-- Node45&#45;&gt;Node37 -->
<g id="edge47" class="edge">
<title>Node45&#45;&gt;Node37</title>
<path fill="none" stroke="midnightblue" d="M722.55,-532.01C732.49,-529.53 742.67,-526.54 752,-523 785.56,-510.26 821.6,-488.3 841.05,-475.68"/>
<polygon fill="midnightblue" stroke="midnightblue" points="721.65,-528.63 712.72,-534.32 723.26,-535.44 721.65,-528.63"/>
</g>
<!-- Node46 -->
<g id="node39" class="node">
<title>Node46</title>
<g id="a_node39"><a xlink:href="classRssiTxFsm.html" target="_top" xlink:title=" ">
<polygon fill="white" stroke="black" points="632,-494.5 632,-513.5 702,-513.5 702,-494.5 632,-494.5"/>
<text text-anchor="middle" x="667" y="-501.5" font-family="Helvetica,sans-Serif" font-size="10.00">RssiTxFsm</text>
</a>
</g>
</g>
<!-- Node46&#45;&gt;Node37 -->
<g id="edge48" class="edge">
<title>Node46&#45;&gt;Node37</title>
<path fill="none" stroke="midnightblue" d="M712.47,-494.99C747.88,-487.81 796.41,-477.98 826.85,-471.81"/>
<polygon fill="midnightblue" stroke="midnightblue" points="711.5,-491.61 702.39,-497.03 712.89,-498.47 711.5,-491.61"/>
</g>
<!-- Node47 -->
<g id="node40" class="node">
<title>Node47</title>
<g id="a_node40"><a xlink:href="classSimpleDualPortRamXpm.html" target="_top" xlink:title=" ">
<polygon fill="white" stroke="black" points="591.5,-456.5 591.5,-475.5 742.5,-475.5 742.5,-456.5 591.5,-456.5"/>
<text text-anchor="middle" x="667" y="-463.5" font-family="Helvetica,sans-Serif" font-size="10.00">SimpleDualPortRamXpm(2)</text>
</a>
</g>
</g>
<!-- Node47&#45;&gt;Node37 -->
<g id="edge49" class="edge">
<title>Node47&#45;&gt;Node37</title>
<path fill="none" stroke="midnightblue" d="M752.79,-466C779.45,-466 807.07,-466 826.95,-466"/>
<polygon fill="midnightblue" stroke="midnightblue" points="752.64,-462.5 742.64,-466 752.64,-469.5 752.64,-462.5"/>
</g>
<!-- Node48 -->
<g id="node41" class="node">
<title>Node48</title>
<g id="a_node41"><a xlink:href="classSimpleDualPortRamAlteraMf.html" target="_top" xlink:title=" ">
<polygon fill="white" stroke="black" points="582,-418.5 582,-437.5 752,-437.5 752,-418.5 582,-418.5"/>
<text text-anchor="middle" x="667" y="-425.5" font-family="Helvetica,sans-Serif" font-size="10.00">SimpleDualPortRamAlteraMf(2)</text>
</a>
</g>
</g>
<!-- Node48&#45;&gt;Node37 -->
<g id="edge50" class="edge">
<title>Node48&#45;&gt;Node37</title>
<path fill="none" stroke="midnightblue" d="M725.48,-439.65C759.09,-446.46 800.04,-454.76 826.9,-460.2"/>
<polygon fill="midnightblue" stroke="midnightblue" points="725.81,-436.15 715.31,-437.59 724.42,-443.01 725.81,-436.15"/>
</g>
<!-- Node49 -->
<g id="node42" class="node">
<title>Node49</title>
<g id="a_node42"><a xlink:href="classRssiChksum.html" target="_top" xlink:title=" ">
<polygon fill="white" stroke="black" points="622,-380.5 622,-399.5 712,-399.5 712,-380.5 622,-380.5"/>
<text text-anchor="middle" x="667" y="-387.5" font-family="Helvetica,sans-Serif" font-size="10.00">RssiChksum(2)</text>
</a>
</g>
</g>
<!-- Node49&#45;&gt;Node37 -->
<g id="edge51" class="edge">
<title>Node49&#45;&gt;Node37</title>
<path fill="none" stroke="midnightblue" d="M722.21,-399.91C732.27,-402.4 742.56,-405.42 752,-409 785.56,-421.74 821.6,-443.7 841.05,-456.32"/>
<polygon fill="midnightblue" stroke="midnightblue" points="722.82,-396.45 712.29,-397.58 721.22,-403.27 722.82,-396.45"/>
</g>
<!-- Node50 -->
<g id="node43" class="node">
<title>Node50</title>
<g id="a_node43"><a xlink:href="classRssiRxFsm.html" target="_top" xlink:title=" ">
<polygon fill="white" stroke="black" points="631.5,-342.5 631.5,-361.5 702.5,-361.5 702.5,-342.5 631.5,-342.5"/>
<text text-anchor="middle" x="667" y="-349.5" font-family="Helvetica,sans-Serif" font-size="10.00">RssiRxFsm</text>
</a>
</g>
</g>
<!-- Node50&#45;&gt;Node37 -->
<g id="edge52" class="edge">
<title>Node50&#45;&gt;Node37</title>
<path fill="none" stroke="midnightblue" d="M712.41,-357.58C725.65,-360.4 739.86,-364.64 752,-371 794.35,-393.18 832.52,-437.09 848.09,-456.45"/>
<polygon fill="midnightblue" stroke="midnightblue" points="712.99,-354.13 702.51,-355.68 711.68,-361 712.99,-354.13"/>
</g>
<!-- Node51&#45;&gt;Node37 -->
<g id="edge54" class="edge">
<title>Node51&#45;&gt;Node37</title>
<path fill="none" stroke="midnightblue" d="M680.7,-218.01C717.13,-269.7 821.19,-417.33 848.74,-456.41"/>
<polygon fill="midnightblue" stroke="midnightblue" points="683.52,-215.94 674.9,-209.78 677.8,-219.97 683.52,-215.94"/>
</g>
<!-- Node52&#45;&gt;Node51 -->
<g id="edge55" class="edge">
<title>Node52&#45;&gt;Node51</title>
<path fill="none" stroke="midnightblue" d="M534.11,-227.69C561.66,-221.91 595.75,-214.75 622.36,-209.16"/>
<polygon fill="midnightblue" stroke="midnightblue" points="533.34,-224.27 524.27,-229.75 534.78,-231.13 533.34,-224.27"/>
</g>
<!-- Node53&#45;&gt;Node52 -->
<g id="edge57" class="edge">
<title>Node53&#45;&gt;Node52</title>
<path fill="none" stroke="midnightblue" d="M380.46,-238C401.57,-238 424.87,-238 443.91,-238"/>
<polygon fill="midnightblue" stroke="midnightblue" points="380.31,-234.5 370.31,-238 380.31,-241.5 380.31,-234.5"/>
</g>
<!-- Node57&#45;&gt;Node51 -->
<g id="edge60" class="edge">
<title>Node57&#45;&gt;Node51</title>
<path fill="none" stroke="midnightblue" d="M534.34,-262.74C538.38,-261.02 542.32,-259.12 546,-257 564.82,-246.18 563.06,-234.6 582,-224 594.31,-217.11 608.76,-212.06 622.17,-208.42"/>
<polygon fill="midnightblue" stroke="midnightblue" points="532.88,-259.55 524.8,-266.39 535.39,-266.08 532.88,-259.55"/>
</g>
<!-- Node58&#45;&gt;Node27 -->
<g id="edge62" class="edge">
<title>Node58&#45;&gt;Node27</title>
<path fill="none" stroke="midnightblue" d="M918.7,-24.31C920.92,-25.73 923.03,-27.29 925,-29 989.65,-85.16 1010.7,-195.34 1015.7,-228.4"/>
<polygon fill="midnightblue" stroke="midnightblue" points="920.16,-21.13 909.69,-19.5 916.87,-27.3 920.16,-21.13"/>
</g>
<!-- Node59&#45;&gt;Node27 -->
<g id="edge64" class="edge">
<title>Node59&#45;&gt;Node27</title>
<path fill="none" stroke="midnightblue" d="M879,-139.37C912.36,-163.21 975.63,-208.43 1003.38,-228.26"/>
<polygon fill="midnightblue" stroke="midnightblue" points="881,-136.49 870.82,-133.52 876.92,-142.19 881,-136.49"/>
</g>
<!-- Node60&#45;&gt;Node27 -->
<g id="edge69" class="edge">
<title>Node60&#45;&gt;Node27</title>
<path fill="none" stroke="midnightblue" d="M869.59,-580.9C883.98,-558.86 908.17,-520.23 925,-485 967.6,-395.81 1003.81,-281.29 1014.08,-247.67"/>
<polygon fill="midnightblue" stroke="midnightblue" points="866.66,-578.99 864.08,-589.26 872.5,-582.84 866.66,-578.99"/>
</g>
</g>
</svg>
