<?xml version="1.0" encoding="UTF-8" standalone="no"?>
<!DOCTYPE svg PUBLIC "-//W3C//DTD SVG 1.1//EN"
 "http://www.w3.org/Graphics/SVG/1.1/DTD/svg11.dtd">
<!-- Generated by graphviz version 2.43.0 (0)
 -->
<!-- Title: DspComparator Pages: 1 -->
<!--zoomable 322 -->
<svg id="main" version="1.1" xmlns="http://www.w3.org/2000/svg" xmlns:xlink="http://www.w3.org/1999/xlink" xml:space="preserve" onload="init(evt)">
<style type="text/css"><![CDATA[
.edge:hover path { stroke: red; }
.edge:hover polygon { stroke: red; fill: red; }
]]></style>
<script type="text/javascript"><![CDATA[
var edges = document.getElementsByTagName('g');
if (edges && edges.length) {
  for (var i=0;i<edges.length;i++) {
    if (edges[i].id.substr(0,4)=='edge') {
      edges[i].setAttribute('class','edge');
    }
  }
}
]]></script>
        <defs>
                <circle id="rim" cx="0" cy="0" r="7"/>
                <circle id="rim2" cx="0" cy="0" r="3.5"/>
                <g id="zoomPlus">
                        <use xlink:href="#rim" fill="#404040">
                                <set attributeName="fill" to="#808080" begin="zoomplus.mouseover" end="zoomplus.mouseout"/>
                        </use>
                        <path d="M-4,0h8M0,-4v8" fill="none" stroke="white" stroke-width="1.5" pointer-events="none"/>
                </g>
                <g id="zoomMin">
                        <use xlink:href="#rim" fill="#404040">
                                <set attributeName="fill" to="#808080" begin="zoomminus.mouseover" end="zoomminus.mouseout"/>
                        </use>
                        <path d="M-4,0h8" fill="none" stroke="white" stroke-width="1.5" pointer-events="none"/>
                </g>
                <g id="dirArrow">
                        <path fill="none" stroke="white" stroke-width="1.5" d="M0,-3.0v7 M-2.5,-0.5L0,-3.0L2.5,-0.5"/>
                </g>
               <g id="resetDef">
                       <use xlink:href="#rim2" fill="#404040">
                               <set attributeName="fill" to="#808080" begin="reset.mouseover" end="reset.mouseout"/>
                       </use>
               </g>
        </defs>

<script type="text/javascript">
var viewWidth = 1028;
var viewHeight = 322;
var sectionId = 'dynsection-0';
</script>
<script xlink:href="svgpan.js"/>
<svg id="graph" class="graph">
<g id="viewport">
<title>DspComparator</title>
<polygon fill="white" stroke="transparent" points="-4,4 -4,-318 1024,-318 1024,4 -4,4"/>
<!-- Node1 -->
<g id="node1" class="node">
<title>Node1</title>
<g id="a_node1"><a xlink:title=" ">
<polygon fill="#bfbfbf" stroke="black" points="143,-199.5 143,-218.5 236,-218.5 236,-199.5 143,-199.5"/>
<text text-anchor="middle" x="189.5" y="-206.5" font-family="Helvetica,sans-Serif" font-size="10.00">DspComparator</text>
</a>
</g>
</g>
<!-- Node3 -->
<g id="node3" class="node">
<title>Node3</title>
<g id="a_node3"><a xlink:href="classAxiStreamBatcherEventBuilder.html" target="_top" xlink:title=" ">
<polygon fill="white" stroke="black" points="272,-294.5 272,-313.5 439,-313.5 439,-294.5 272,-294.5"/>
<text text-anchor="middle" x="355.5" y="-301.5" font-family="Helvetica,sans-Serif" font-size="10.00">AxiStreamBatcherEventBuilder</text>
</a>
</g>
</g>
<!-- Node1&#45;&gt;Node3 -->
<g id="edge2" class="edge">
<title>Node1&#45;&gt;Node3</title>
<path fill="none" stroke="midnightblue" d="M204.32,-226.41C219.17,-243.91 244.4,-270.33 272,-285 279.27,-288.86 287.3,-291.94 295.42,-294.4"/>
<polygon fill="midnightblue" stroke="midnightblue" points="206.96,-224.11 197.9,-218.63 201.56,-228.57 206.96,-224.11"/>
</g>
<!-- Node4 -->
<g id="node4" class="node">
<title>Node4</title>
<g id="a_node4"><a xlink:href="classAxiStreamDmaV2Desc.html" target="_top" xlink:title=" ">
<polygon fill="white" stroke="black" points="291.5,-256.5 291.5,-275.5 419.5,-275.5 419.5,-256.5 291.5,-256.5"/>
<text text-anchor="middle" x="355.5" y="-263.5" font-family="Helvetica,sans-Serif" font-size="10.00">AxiStreamDmaV2Desc</text>
</a>
</g>
</g>
<!-- Node1&#45;&gt;Node4 -->
<g id="edge3" class="edge">
<title>Node1&#45;&gt;Node4</title>
<path fill="none" stroke="midnightblue" d="M217.25,-223.21C232.88,-231.07 253.17,-240.52 272,-247 282.56,-250.63 294.13,-253.78 305.16,-256.42"/>
<polygon fill="midnightblue" stroke="midnightblue" points="218.67,-220.01 208.18,-218.57 215.48,-226.24 218.67,-220.01"/>
</g>
<!-- Node6 -->
<g id="node6" class="node">
<title>Node6</title>
<g id="a_node6"><a xlink:href="classAxiStreamDmaV2Read.html" target="_top" xlink:title=" ">
<polygon fill="white" stroke="black" points="291.5,-218.5 291.5,-237.5 419.5,-237.5 419.5,-218.5 291.5,-218.5"/>
<text text-anchor="middle" x="355.5" y="-225.5" font-family="Helvetica,sans-Serif" font-size="10.00">AxiStreamDmaV2Read</text>
</a>
</g>
</g>
<!-- Node1&#45;&gt;Node6 -->
<g id="edge5" class="edge">
<title>Node1&#45;&gt;Node6</title>
<path fill="none" stroke="midnightblue" d="M246.45,-215.48C260.88,-217.15 276.52,-218.97 291.29,-220.68"/>
<polygon fill="midnightblue" stroke="midnightblue" points="246.52,-211.97 236.18,-214.29 245.71,-218.92 246.52,-211.97"/>
</g>
<!-- Node7 -->
<g id="node7" class="node">
<title>Node7</title>
<g id="a_node7"><a xlink:href="classAxiStreamPrbsFlowCtrl.html" target="_top" xlink:title=" ">
<polygon fill="white" stroke="black" points="291,-180.5 291,-199.5 420,-199.5 420,-180.5 291,-180.5"/>
<text text-anchor="middle" x="355.5" y="-187.5" font-family="Helvetica,sans-Serif" font-size="10.00">AxiStreamPrbsFlowCtrl</text>
</a>
</g>
</g>
<!-- Node1&#45;&gt;Node7 -->
<g id="edge7" class="edge">
<title>Node1&#45;&gt;Node7</title>
<path fill="none" stroke="midnightblue" d="M246.39,-202.52C260.74,-200.86 276.28,-199.06 290.99,-197.36"/>
<polygon fill="midnightblue" stroke="midnightblue" points="245.71,-199.08 236.18,-203.71 246.52,-206.03 245.71,-199.08"/>
</g>
<!-- Node10 -->
<g id="node10" class="node">
<title>Node10</title>
<g id="a_node10"><a xlink:href="classDspComparatorTb.html" target="_top" xlink:title=" ">
<polygon fill="white" stroke="black" points="303,-142.5 303,-161.5 408,-161.5 408,-142.5 303,-142.5"/>
<text text-anchor="middle" x="355.5" y="-149.5" font-family="Helvetica,sans-Serif" font-size="10.00">DspComparatorTb</text>
</a>
</g>
</g>
<!-- Node1&#45;&gt;Node10 -->
<g id="edge10" class="edge">
<title>Node1&#45;&gt;Node10</title>
<path fill="none" stroke="midnightblue" d="M217.25,-194.79C232.88,-186.93 253.17,-177.48 272,-171 282.56,-167.37 294.13,-164.22 305.16,-161.58"/>
<polygon fill="midnightblue" stroke="midnightblue" points="215.48,-191.76 208.18,-199.43 218.67,-197.99 215.48,-191.76"/>
</g>
<!-- Node11 -->
<g id="node11" class="node">
<title>Node11</title>
<g id="a_node11"><a xlink:href="classSyncMinMax.html" target="_top" xlink:title=" ">
<polygon fill="white" stroke="black" points="316,-104.5 316,-123.5 395,-123.5 395,-104.5 316,-104.5"/>
<text text-anchor="middle" x="355.5" y="-111.5" font-family="Helvetica,sans-Serif" font-size="10.00">SyncMinMax</text>
</a>
</g>
</g>
<!-- Node1&#45;&gt;Node11 -->
<g id="edge11" class="edge">
<title>Node1&#45;&gt;Node11</title>
<path fill="none" stroke="midnightblue" d="M204.32,-191.59C219.17,-174.09 244.4,-147.67 272,-133 285.37,-125.9 301.33,-121.43 315.64,-118.64"/>
<polygon fill="midnightblue" stroke="midnightblue" points="201.56,-189.43 197.9,-199.37 206.96,-193.89 201.56,-189.43"/>
</g>
<!-- Node2 -->
<g id="node2" class="node">
<title>Node2</title>
<g id="a_node2"><a xlink:href="classFifoOutputPipeline.html" target="_top" xlink:title=" ">
<polygon fill="white" stroke="black" points="0,-199.5 0,-218.5 107,-218.5 107,-199.5 0,-199.5"/>
<text text-anchor="middle" x="53.5" y="-206.5" font-family="Helvetica,sans-Serif" font-size="10.00">FifoOutputPipeline</text>
</a>
</g>
</g>
<!-- Node2&#45;&gt;Node1 -->
<g id="edge1" class="edge">
<title>Node2&#45;&gt;Node1</title>
<path fill="none" stroke="midnightblue" d="M117.09,-209C125.68,-209 134.37,-209 142.6,-209"/>
<polygon fill="midnightblue" stroke="midnightblue" points="117.08,-205.5 107.08,-209 117.08,-212.5 117.08,-205.5"/>
</g>
<!-- Node5 -->
<g id="node5" class="node">
<title>Node5</title>
<g id="a_node5"><a xlink:href="classAxiStreamDmaV2.html" target="_top" xlink:title=" ">
<polygon fill="white" stroke="black" points="475,-251.5 475,-270.5 579,-270.5 579,-251.5 475,-251.5"/>
<text text-anchor="middle" x="527" y="-258.5" font-family="Helvetica,sans-Serif" font-size="10.00">AxiStreamDmaV2</text>
</a>
</g>
</g>
<!-- Node4&#45;&gt;Node5 -->
<g id="edge4" class="edge">
<title>Node4&#45;&gt;Node5</title>
<path fill="none" stroke="midnightblue" d="M430.01,-263.83C445.18,-263.38 460.84,-262.92 474.99,-262.5"/>
<polygon fill="midnightblue" stroke="midnightblue" points="429.51,-260.34 419.62,-264.14 429.71,-267.34 429.51,-260.34"/>
</g>
<!-- Node6&#45;&gt;Node5 -->
<g id="edge6" class="edge">
<title>Node6&#45;&gt;Node5</title>
<path fill="none" stroke="midnightblue" d="M415.51,-239.49C435.62,-243.4 457.86,-247.73 477.08,-251.48"/>
<polygon fill="midnightblue" stroke="midnightblue" points="416.01,-236.02 405.53,-237.54 414.67,-242.89 416.01,-236.02"/>
</g>
<!-- Node8 -->
<g id="node8" class="node">
<title>Node8</title>
<g id="a_node8"><a xlink:href="classEthMacPauseTb.html" target="_top" xlink:title=" ">
<polygon fill="white" stroke="black" points="480.5,-209.5 480.5,-228.5 573.5,-228.5 573.5,-209.5 480.5,-209.5"/>
<text text-anchor="middle" x="527" y="-216.5" font-family="Helvetica,sans-Serif" font-size="10.00">EthMacPauseTb</text>
</a>
</g>
</g>
<!-- Node7&#45;&gt;Node8 -->
<g id="edge8" class="edge">
<title>Node7&#45;&gt;Node8</title>
<path fill="none" stroke="midnightblue" d="M422.43,-201.28C441.76,-204.59 462.47,-208.13 480.25,-211.17"/>
<polygon fill="midnightblue" stroke="midnightblue" points="422.92,-197.81 412.47,-199.58 421.74,-204.71 422.92,-197.81"/>
</g>
<!-- Node9 -->
<g id="node9" class="node">
<title>Node9</title>
<g id="a_node9"><a xlink:href="classSsiFifoTb.html" target="_top" xlink:title=" ">
<polygon fill="white" stroke="black" points="496.5,-171.5 496.5,-190.5 557.5,-190.5 557.5,-171.5 496.5,-171.5"/>
<text text-anchor="middle" x="527" y="-178.5" font-family="Helvetica,sans-Serif" font-size="10.00">SsiFifoTb</text>
</a>
</g>
</g>
<!-- Node7&#45;&gt;Node9 -->
<g id="edge9" class="edge">
<title>Node7&#45;&gt;Node9</title>
<path fill="none" stroke="midnightblue" d="M430.32,-186.08C453.55,-184.85 477.9,-183.55 496.22,-182.58"/>
<polygon fill="midnightblue" stroke="midnightblue" points="429.9,-182.6 420.1,-186.62 430.27,-189.59 429.9,-182.6"/>
</g>
<!-- Node12 -->
<g id="node12" class="node">
<title>Node12</title>
<g id="a_node12"><a xlink:href="classAxiStreamMon.html" target="_top" xlink:title=" ">
<polygon fill="white" stroke="black" points="482.5,-114.5 482.5,-133.5 571.5,-133.5 571.5,-114.5 482.5,-114.5"/>
<text text-anchor="middle" x="527" y="-121.5" font-family="Helvetica,sans-Serif" font-size="10.00">AxiStreamMon</text>
</a>
</g>
</g>
<!-- Node11&#45;&gt;Node12 -->
<g id="edge12" class="edge">
<title>Node11&#45;&gt;Node12</title>
<path fill="none" stroke="midnightblue" d="M405.45,-116.89C429.69,-118.32 458.72,-120.03 482.22,-121.42"/>
<polygon fill="midnightblue" stroke="midnightblue" points="405.58,-113.39 395.39,-116.29 405.16,-120.38 405.58,-113.39"/>
</g>
<!-- Node24 -->
<g id="node24" class="node">
<title>Node24</title>
<g id="a_node24"><a xlink:href="classPgpEthAxiL.html" target="_top" xlink:title=" ">
<polygon fill="white" stroke="black" points="491.5,-57.5 491.5,-76.5 562.5,-76.5 562.5,-57.5 491.5,-57.5"/>
<text text-anchor="middle" x="527" y="-64.5" font-family="Helvetica,sans-Serif" font-size="10.00">PgpEthAxiL</text>
</a>
</g>
</g>
<!-- Node11&#45;&gt;Node24 -->
<g id="edge24" class="edge">
<title>Node11&#45;&gt;Node24</title>
<path fill="none" stroke="midnightblue" d="M400.47,-101.81C428.82,-93.95 465.18,-83.86 491.46,-76.58"/>
<polygon fill="midnightblue" stroke="midnightblue" points="399.5,-98.44 390.8,-104.49 401.37,-105.19 399.5,-98.44"/>
</g>
<!-- Node13 -->
<g id="node13" class="node">
<title>Node13</title>
<g id="a_node13"><a xlink:href="classAxiRssiCore.html" target="_top" xlink:title=" ">
<polygon fill="white" stroke="black" points="632.5,-209.5 632.5,-228.5 707.5,-228.5 707.5,-209.5 632.5,-209.5"/>
<text text-anchor="middle" x="670" y="-216.5" font-family="Helvetica,sans-Serif" font-size="10.00">AxiRssiCore</text>
</a>
</g>
</g>
<!-- Node12&#45;&gt;Node13 -->
<g id="edge13" class="edge">
<title>Node12&#45;&gt;Node13</title>
<path fill="none" stroke="midnightblue" d="M550.67,-139.27C579.98,-159.02 630.15,-192.82 654.67,-209.34"/>
<polygon fill="midnightblue" stroke="midnightblue" points="552.54,-136.32 542.3,-133.63 548.63,-142.12 552.54,-136.32"/>
</g>
<!-- Node16 -->
<g id="node16" class="node">
<title>Node16</title>
<g id="a_node16"><a xlink:href="classAxiStreamMonAxiL.html" target="_top" xlink:title=" ">
<polygon fill="white" stroke="black" points="615,-152.5 615,-171.5 725,-171.5 725,-152.5 615,-152.5"/>
<text text-anchor="middle" x="670" y="-159.5" font-family="Helvetica,sans-Serif" font-size="10.00">AxiStreamMonAxiL</text>
</a>
</g>
</g>
<!-- Node12&#45;&gt;Node16 -->
<g id="edge16" class="edge">
<title>Node12&#45;&gt;Node16</title>
<path fill="none" stroke="midnightblue" d="M573.44,-136.25C592.87,-141.48 615.23,-147.51 633.43,-152.41"/>
<polygon fill="midnightblue" stroke="midnightblue" points="574.15,-132.81 563.58,-133.59 572.32,-139.57 574.15,-132.81"/>
</g>
<!-- Node17 -->
<g id="node17" class="node">
<title>Node17</title>
<g id="a_node17"><a xlink:href="classRssiCore.html" target="_top" xlink:title=" ">
<polygon fill="white" stroke="black" points="640.5,-114.5 640.5,-133.5 699.5,-133.5 699.5,-114.5 640.5,-114.5"/>
<text text-anchor="middle" x="670" y="-121.5" font-family="Helvetica,sans-Serif" font-size="10.00">RssiCore</text>
</a>
</g>
</g>
<!-- Node12&#45;&gt;Node17 -->
<g id="edge17" class="edge">
<title>Node12&#45;&gt;Node17</title>
<path fill="none" stroke="midnightblue" d="M582.02,-124C601.87,-124 623.56,-124 640.32,-124"/>
<polygon fill="midnightblue" stroke="midnightblue" points="581.84,-120.5 571.84,-124 581.84,-127.5 581.84,-120.5"/>
</g>
<!-- Node23 -->
<g id="node23" class="node">
<title>Node23</title>
<g id="a_node23"><a xlink:href="classSsiPrbsRateGen.html" target="_top" xlink:title=" ">
<polygon fill="white" stroke="black" points="623,-76.5 623,-95.5 717,-95.5 717,-76.5 623,-76.5"/>
<text text-anchor="middle" x="670" y="-83.5" font-family="Helvetica,sans-Serif" font-size="10.00">SsiPrbsRateGen</text>
</a>
</g>
</g>
<!-- Node12&#45;&gt;Node23 -->
<g id="edge23" class="edge">
<title>Node12&#45;&gt;Node23</title>
<path fill="none" stroke="midnightblue" d="M573.44,-111.75C592.87,-106.52 615.23,-100.49 633.43,-95.59"/>
<polygon fill="midnightblue" stroke="midnightblue" points="572.32,-108.43 563.58,-114.41 574.15,-115.19 572.32,-108.43"/>
</g>
<!-- Node14 -->
<g id="node14" class="node">
<title>Node14</title>
<g id="a_node14"><a xlink:href="classAxiRssiCoreWrapper.html" target="_top" xlink:title=" ">
<polygon fill="white" stroke="black" points="761,-214.5 761,-233.5 877,-233.5 877,-214.5 761,-214.5"/>
<text text-anchor="middle" x="819" y="-221.5" font-family="Helvetica,sans-Serif" font-size="10.00">AxiRssiCoreWrapper</text>
</a>
</g>
</g>
<!-- Node13&#45;&gt;Node14 -->
<g id="edge14" class="edge">
<title>Node13&#45;&gt;Node14</title>
<path fill="none" stroke="midnightblue" d="M717.86,-220.59C731.55,-221.06 746.65,-221.57 760.89,-222.06"/>
<polygon fill="midnightblue" stroke="midnightblue" points="717.83,-217.09 707.72,-220.25 717.59,-224.09 717.83,-217.09"/>
</g>
<!-- Node15 -->
<g id="node15" class="node">
<title>Node15</title>
<g id="a_node15"><a xlink:href="classAxiRssiCoreTb.html" target="_top" xlink:title=" ">
<polygon fill="white" stroke="black" points="923,-219.5 923,-238.5 1010,-238.5 1010,-219.5 923,-219.5"/>
<text text-anchor="middle" x="966.5" y="-226.5" font-family="Helvetica,sans-Serif" font-size="10.00">AxiRssiCoreTb</text>
</a>
</g>
</g>
<!-- Node14&#45;&gt;Node15 -->
<g id="edge15" class="edge">
<title>Node14&#45;&gt;Node15</title>
<path fill="none" stroke="midnightblue" d="M887.23,-226.31C899.39,-226.73 911.77,-227.15 922.98,-227.54"/>
<polygon fill="midnightblue" stroke="midnightblue" points="887.2,-222.81 877.09,-225.96 886.96,-229.8 887.2,-222.81"/>
</g>
<!-- Node18 -->
<g id="node18" class="node">
<title>Node18</title>
<g id="a_node18"><a xlink:href="classRssiCoreWrapper.html" target="_top" xlink:title=" ">
<polygon fill="white" stroke="black" points="768.5,-114.5 768.5,-133.5 869.5,-133.5 869.5,-114.5 768.5,-114.5"/>
<text text-anchor="middle" x="819" y="-121.5" font-family="Helvetica,sans-Serif" font-size="10.00">RssiCoreWrapper</text>
</a>
</g>
</g>
<!-- Node17&#45;&gt;Node18 -->
<g id="edge18" class="edge">
<title>Node17&#45;&gt;Node18</title>
<path fill="none" stroke="midnightblue" d="M709.78,-124C727.68,-124 749.16,-124 768.24,-124"/>
<polygon fill="midnightblue" stroke="midnightblue" points="709.69,-120.5 699.69,-124 709.69,-127.5 709.69,-120.5"/>
</g>
<!-- Node19 -->
<g id="node19" class="node">
<title>Node19</title>
<g id="a_node19"><a xlink:href="classRawEthFramerTb.html" target="_top" xlink:title=" ">
<polygon fill="white" stroke="black" points="916.5,-181.5 916.5,-200.5 1016.5,-200.5 1016.5,-181.5 916.5,-181.5"/>
<text text-anchor="middle" x="966.5" y="-188.5" font-family="Helvetica,sans-Serif" font-size="10.00">RawEthFramerTb</text>
</a>
</g>
</g>
<!-- Node18&#45;&gt;Node19 -->
<g id="edge19" class="edge">
<title>Node18&#45;&gt;Node19</title>
<path fill="none" stroke="midnightblue" d="M845.76,-138.44C864.19,-148.48 889.75,-161.84 913,-172 920.64,-175.34 929.07,-178.58 936.9,-181.41"/>
<polygon fill="midnightblue" stroke="midnightblue" points="847.27,-135.27 836.82,-133.52 843.9,-141.41 847.27,-135.27"/>
</g>
<!-- Node20 -->
<g id="node20" class="node">
<title>Node20</title>
<g id="a_node20"><a xlink:href="classRssiCoreTb.html" target="_top" xlink:title=" ">
<polygon fill="white" stroke="black" points="931,-143.5 931,-162.5 1002,-162.5 1002,-143.5 931,-143.5"/>
<text text-anchor="middle" x="966.5" y="-150.5" font-family="Helvetica,sans-Serif" font-size="10.00">RssiCoreTb</text>
</a>
</g>
</g>
<!-- Node18&#45;&gt;Node20 -->
<g id="edge20" class="edge">
<title>Node18&#45;&gt;Node20</title>
<path fill="none" stroke="midnightblue" d="M877.86,-135.53C895.8,-139.11 915.01,-142.94 930.86,-146.1"/>
<polygon fill="midnightblue" stroke="midnightblue" points="878.54,-132.1 868.05,-133.58 877.17,-138.96 878.54,-132.1"/>
</g>
<!-- Node21 -->
<g id="node21" class="node">
<title>Node21</title>
<g id="a_node21"><a xlink:href="classRssiInterleaveTb.html" target="_top" xlink:title=" ">
<polygon fill="white" stroke="black" points="917.5,-105.5 917.5,-124.5 1015.5,-124.5 1015.5,-105.5 917.5,-105.5"/>
<text text-anchor="middle" x="966.5" y="-112.5" font-family="Helvetica,sans-Serif" font-size="10.00">RssiInterleaveTb</text>
</a>
</g>
</g>
<!-- Node18&#45;&gt;Node21 -->
<g id="edge21" class="edge">
<title>Node18&#45;&gt;Node21</title>
<path fill="none" stroke="midnightblue" d="M879.9,-120.29C892.27,-119.53 905.14,-118.73 917.04,-118"/>
<polygon fill="midnightblue" stroke="midnightblue" points="879.43,-116.82 869.67,-120.93 879.86,-123.8 879.43,-116.82"/>
</g>
<!-- Node22 -->
<g id="node22" class="node">
<title>Node22</title>
<g id="a_node22"><a xlink:href="classSrpV3AxiLiteTb.html" target="_top" xlink:title=" ">
<polygon fill="white" stroke="black" points="921,-67.5 921,-86.5 1012,-86.5 1012,-67.5 921,-67.5"/>
<text text-anchor="middle" x="966.5" y="-74.5" font-family="Helvetica,sans-Serif" font-size="10.00">SrpV3AxiLiteTb</text>
</a>
</g>
</g>
<!-- Node18&#45;&gt;Node22 -->
<g id="edge22" class="edge">
<title>Node18&#45;&gt;Node22</title>
<path fill="none" stroke="midnightblue" d="M859.02,-111.39C883.17,-103.59 913.68,-93.74 935.85,-86.58"/>
<polygon fill="midnightblue" stroke="midnightblue" points="857.88,-108.08 849.44,-114.49 860.04,-114.75 857.88,-108.08"/>
</g>
<!-- Node25 -->
<g id="node25" class="node">
<title>Node25</title>
<g id="a_node25"><a xlink:href="classPgpEthCore.html" target="_top" xlink:title=" ">
<polygon fill="white" stroke="black" points="633.5,-38.5 633.5,-57.5 706.5,-57.5 706.5,-38.5 633.5,-38.5"/>
<text text-anchor="middle" x="670" y="-45.5" font-family="Helvetica,sans-Serif" font-size="10.00">PgpEthCore</text>
</a>
</g>
</g>
<!-- Node24&#45;&gt;Node25 -->
<g id="edge25" class="edge">
<title>Node24&#45;&gt;Node25</title>
<path fill="none" stroke="midnightblue" d="M572.99,-60.94C592.4,-58.32 614.8,-55.3 633.07,-52.84"/>
<polygon fill="midnightblue" stroke="midnightblue" points="572.3,-57.5 562.85,-62.3 573.23,-64.44 572.3,-57.5"/>
</g>
<!-- Node26 -->
<g id="node26" class="node">
<title>Node26</title>
<g id="a_node26"><a xlink:href="classPgpEthCaui4Gty.html" target="_top" xlink:title=" ">
<polygon fill="white" stroke="black" points="771.5,-38.5 771.5,-57.5 866.5,-57.5 866.5,-38.5 771.5,-38.5"/>
<text text-anchor="middle" x="819" y="-45.5" font-family="Helvetica,sans-Serif" font-size="10.00">PgpEthCaui4Gty</text>
</a>
</g>
</g>
<!-- Node25&#45;&gt;Node26 -->
<g id="edge26" class="edge">
<title>Node25&#45;&gt;Node26</title>
<path fill="none" stroke="midnightblue" d="M717.01,-48C734.31,-48 753.99,-48 771.35,-48"/>
<polygon fill="midnightblue" stroke="midnightblue" points="716.58,-44.5 706.58,-48 716.58,-51.5 716.58,-44.5"/>
</g>
<!-- Node28 -->
<g id="node28" class="node">
<title>Node28</title>
<g id="a_node28"><a xlink:href="classPgpEthCoreTb.html" target="_top" xlink:title=" ">
<polygon fill="white" stroke="black" points="776.5,-0.5 776.5,-19.5 861.5,-19.5 861.5,-0.5 776.5,-0.5"/>
<text text-anchor="middle" x="819" y="-7.5" font-family="Helvetica,sans-Serif" font-size="10.00">PgpEthCoreTb</text>
</a>
</g>
</g>
<!-- Node25&#45;&gt;Node28 -->
<g id="edge28" class="edge">
<title>Node25&#45;&gt;Node28</title>
<path fill="none" stroke="midnightblue" d="M716.47,-36.24C737.27,-30.87 761.59,-24.58 781.21,-19.51"/>
<polygon fill="midnightblue" stroke="midnightblue" points="715.39,-32.91 706.58,-38.8 717.14,-39.69 715.39,-32.91"/>
</g>
<!-- Node27 -->
<g id="node27" class="node">
<title>Node27</title>
<g id="a_node27"><a xlink:href="classPgpEthCaui4GtyTb.html" target="_top" xlink:title=" ">
<polygon fill="white" stroke="black" points="913,-29.5 913,-48.5 1020,-48.5 1020,-29.5 913,-29.5"/>
<text text-anchor="middle" x="966.5" y="-36.5" font-family="Helvetica,sans-Serif" font-size="10.00">PgpEthCaui4GtyTb</text>
</a>
</g>
</g>
<!-- Node26&#45;&gt;Node27 -->
<g id="edge27" class="edge">
<title>Node26&#45;&gt;Node27</title>
<path fill="none" stroke="midnightblue" d="M877.05,-44.47C888.88,-43.74 901.29,-42.97 912.94,-42.25"/>
<polygon fill="midnightblue" stroke="midnightblue" points="876.6,-40.99 866.84,-45.1 877.04,-47.98 876.6,-40.99"/>
</g>
</g>
</svg>
        <g id="navigator" transform="translate(0 0)" fill="#404254">
                <rect fill="#f2f5e9" fill-opacity="0.5" stroke="#606060" stroke-width=".5" x="0" y="0" width="60" height="60"/>
                <use id="zoomplus" xlink:href="#zoomPlus" x="17" y="9" onmousedown="handleZoom(evt,'in')"/>
                <use id="zoomminus" xlink:href="#zoomMin" x="42" y="9" onmousedown="handleZoom(evt,'out')"/>
                <use id="reset" xlink:href="#resetDef" x="30" y="36" onmousedown="handleReset()"/>
                <g id="arrowUp" xlink:href="#dirArrow" transform="translate(30 24)" onmousedown="handlePan(0,-1)">
                  <use xlink:href="#rim" fill="#404040">
                        <set attributeName="fill" to="#808080" begin="arrowUp.mouseover" end="arrowUp.mouseout"/>
                  </use>
                  <path fill="none" stroke="white" stroke-width="1.5" d="M0,-3.0v7 M-2.5,-0.5L0,-3.0L2.5,-0.5"/>
                </g>
                <g id="arrowRight" xlink:href="#dirArrow" transform="rotate(90) translate(36 -43)" onmousedown="handlePan(1,0)">
                  <use xlink:href="#rim" fill="#404040">
                        <set attributeName="fill" to="#808080" begin="arrowRight.mouseover" end="arrowRight.mouseout"/>
                  </use>
                  <path fill="none" stroke="white" stroke-width="1.5" d="M0,-3.0v7 M-2.5,-0.5L0,-3.0L2.5,-0.5"/>
                </g>
                <g id="arrowDown" xlink:href="#dirArrow" transform="rotate(180) translate(-30 -48)" onmousedown="handlePan(0,1)">
                  <use xlink:href="#rim" fill="#404040">
                        <set attributeName="fill" to="#808080" begin="arrowDown.mouseover" end="arrowDown.mouseout"/>
                  </use>
                  <path fill="none" stroke="white" stroke-width="1.5" d="M0,-3.0v7 M-2.5,-0.5L0,-3.0L2.5,-0.5"/>
                </g>
                <g id="arrowLeft" xlink:href="#dirArrow" transform="rotate(270) translate(-36 17)" onmousedown="handlePan(-1,0)">
                  <use xlink:href="#rim" fill="#404040">
                        <set attributeName="fill" to="#808080" begin="arrowLeft.mouseover" end="arrowLeft.mouseout"/>
                  </use>
                  <path fill="none" stroke="white" stroke-width="1.5" d="M0,-3.0v7 M-2.5,-0.5L0,-3.0L2.5,-0.5"/>
                </g>
        </g>
        <svg viewBox="0 0 15 15" width="100%" height="30px" preserveAspectRatio="xMaxYMin meet">
         <g id="arrow_out" transform="scale(0.3 0.3)">
          <a xlink:href="classDspComparator__inherit__graph_org.svg" target="_base">
           <rect id="button" ry="5" rx="5" y="6" x="6" height="38" width="38"
                fill="#f2f5e9" fill-opacity="0.5" stroke="#606060" stroke-width="1.0"/>
           <path id="arrow"
             d="M 11.500037,31.436501 C 11.940474,20.09759 22.043105,11.32322 32.158766,21.979434 L 37.068811,17.246167 C 37.068811,17.246167 37.088388,32 37.088388,32 L 22.160133,31.978069 C 22.160133,31.978069 26.997745,27.140456 26.997745,27.140456 C 18.528582,18.264221 13.291696,25.230495 11.500037,31.436501 z"
             style="fill:#404040;"/>
          </a>
         </g>
        </svg>
</svg>
