<?xml version="1.0" encoding="UTF-8" standalone="no"?>
<!DOCTYPE svg PUBLIC "-//W3C//DTD SVG 1.1//EN"
 "http://www.w3.org/Graphics/SVG/1.1/DTD/svg11.dtd">
<!-- Generated by graphviz version 2.40.1 (20161225.0304)
 -->
<!-- Title: SsiPrbsRx Pages: 1 -->
<svg width="1173pt" height="427pt"
 viewBox="0.00 0.00 1173.00 427.00" xmlns="http://www.w3.org/2000/svg" xmlns:xlink="http://www.w3.org/1999/xlink">
<g id="graph0" class="graph" transform="scale(1 1) rotate(0) translate(4 423)">
<title>SsiPrbsRx</title>
<polygon fill="#ffffff" stroke="transparent" points="-4,4 -4,-423 1169,-423 1169,4 -4,4"/>
<!-- Node41 -->
<g id="node1" class="node">
<title>Node41</title>
<polygon fill="#bfbfbf" stroke="#000000" points="1100,-170.5 1100,-189.5 1165,-189.5 1165,-170.5 1100,-170.5"/>
<text text-anchor="middle" x="1132.5" y="-177.5" font-family="Helvetica,sans-Serif" font-size="10.00" fill="#000000">SsiPrbsRx</text>
</g>
<!-- Node42 -->
<g id="node2" class="node">
<title>Node42</title>
<g id="a_node2"><a xlink:href="classAxiStreamFifoV2.html" target="_top" xlink:title="AxiStreamFifoV2">
<polygon fill="#ffffff" stroke="#000000" points="794,-323.5 794,-342.5 892,-342.5 892,-323.5 794,-323.5"/>
<text text-anchor="middle" x="843" y="-330.5" font-family="Helvetica,sans-Serif" font-size="10.00" fill="#000000">AxiStreamFifoV2</text>
</a>
</g>
</g>
<!-- Node42&#45;&gt;Node41 -->
<g id="edge1" class="edge">
<title>Node42&#45;&gt;Node41</title>
<path fill="none" stroke="#191970" d="M870.118,-318.6682C928.5773,-287.7726 1065.1568,-215.5907 1114.3973,-189.5672"/>
<polygon fill="#191970" stroke="#191970" points="868.3153,-315.6621 861.1095,-323.4292 871.5862,-321.851 868.3153,-315.6621"/>
</g>
<!-- Node43 -->
<g id="node3" class="node">
<title>Node43</title>
<g id="a_node3"><a xlink:href="classAxiStreamResize.html" target="_top" xlink:title="AxiStreamResize(2)">
<polygon fill="#ffffff" stroke="#000000" points="598,-399.5 598,-418.5 711,-418.5 711,-399.5 598,-399.5"/>
<text text-anchor="middle" x="654.5" y="-406.5" font-family="Helvetica,sans-Serif" font-size="10.00" fill="#000000">AxiStreamResize(2)</text>
</a>
</g>
</g>
<!-- Node43&#45;&gt;Node42 -->
<g id="edge2" class="edge">
<title>Node43&#45;&gt;Node42</title>
<path fill="none" stroke="#191970" d="M692.9025,-396.0908C702.7632,-392.627 713.3187,-388.788 723,-385 758.0997,-371.2667 798.136,-353.4793 821.9484,-342.6699"/>
<polygon fill="#191970" stroke="#191970" points="691.6303,-392.8274 683.3314,-399.4137 693.9262,-399.4402 691.6303,-392.8274"/>
</g>
<!-- Node44 -->
<g id="node4" class="node">
<title>Node44</title>
<g id="a_node4"><a xlink:href="classAxiStreamPipeline.html" target="_top" xlink:title="AxiStreamPipeline">
<polygon fill="#ffffff" stroke="#000000" points="429.5,-380.5 429.5,-399.5 536.5,-399.5 536.5,-380.5 429.5,-380.5"/>
<text text-anchor="middle" x="483" y="-387.5" font-family="Helvetica,sans-Serif" font-size="10.00" fill="#000000">AxiStreamPipeline</text>
</a>
</g>
</g>
<!-- Node44&#45;&gt;Node42 -->
<g id="edge25" class="edge">
<title>Node44&#45;&gt;Node42</title>
<path fill="none" stroke="#191970" d="M546.61,-379.9284C617.2164,-368.7491 729.6525,-350.9467 793.8313,-340.785"/>
<polygon fill="#191970" stroke="#191970" points="545.8365,-376.5072 536.5069,-381.5281 546.9312,-383.4211 545.8365,-376.5072"/>
</g>
<!-- Node44&#45;&gt;Node43 -->
<g id="edge3" class="edge">
<title>Node44&#45;&gt;Node43</title>
<path fill="none" stroke="#191970" d="M547.0241,-397.0931C563.7404,-398.945 581.6359,-400.9276 597.9342,-402.7332"/>
<polygon fill="#191970" stroke="#191970" points="547.1177,-393.5821 536.7931,-395.9596 546.3469,-400.5395 547.1177,-393.5821"/>
</g>
<!-- Node45 -->
<g id="node5" class="node">
<title>Node45</title>
<g id="a_node5"><a xlink:href="classFifoCascade.html" target="_top" xlink:title="FifoCascade(2)">
<polygon fill="#ffffff" stroke="#000000" points="610,-266.5 610,-285.5 699,-285.5 699,-266.5 610,-266.5"/>
<text text-anchor="middle" x="654.5" y="-273.5" font-family="Helvetica,sans-Serif" font-size="10.00" fill="#000000">FifoCascade(2)</text>
</a>
</g>
</g>
<!-- Node45&#45;&gt;Node42 -->
<g id="edge4" class="edge">
<title>Node45&#45;&gt;Node42</title>
<path fill="none" stroke="#191970" d="M695.9043,-288.5201C730.6805,-299.036 779.6392,-313.8405 811.3464,-323.4284"/>
<polygon fill="#191970" stroke="#191970" points="696.6357,-285.0848 686.0507,-285.5405 694.6095,-291.7852 696.6357,-285.0848"/>
</g>
<!-- Node46 -->
<g id="node6" class="node">
<title>Node46</title>
<g id="a_node6"><a xlink:href="classFifo.html" target="_top" xlink:title="Fifo(4)">
<polygon fill="#ffffff" stroke="#000000" points="459.5,-247.5 459.5,-266.5 506.5,-266.5 506.5,-247.5 459.5,-247.5"/>
<text text-anchor="middle" x="483" y="-254.5" font-family="Helvetica,sans-Serif" font-size="10.00" fill="#000000">Fifo(4)</text>
</a>
</g>
</g>
<!-- Node46&#45;&gt;Node45 -->
<g id="edge5" class="edge">
<title>Node46&#45;&gt;Node45</title>
<path fill="none" stroke="#191970" d="M516.8173,-260.7465C543.3822,-263.6896 580.6146,-267.8145 609.6644,-271.0328"/>
<polygon fill="#191970" stroke="#191970" points="517.171,-257.2644 506.8463,-259.6419 516.4001,-264.2218 517.171,-257.2644"/>
</g>
<!-- Node47 -->
<g id="node7" class="node">
<title>Node47</title>
<g id="a_node7"><a xlink:href="classFifoXpm.html" target="_top" xlink:title="FifoXpm">
<polygon fill="#ffffff" stroke="#000000" points="300,-247.5 300,-266.5 356,-266.5 356,-247.5 300,-247.5"/>
<text text-anchor="middle" x="328" y="-254.5" font-family="Helvetica,sans-Serif" font-size="10.00" fill="#000000">FifoXpm</text>
</a>
</g>
</g>
<!-- Node47&#45;&gt;Node46 -->
<g id="edge6" class="edge">
<title>Node47&#45;&gt;Node46</title>
<path fill="none" stroke="#191970" d="M366.2877,-257C395.3744,-257 434.4662,-257 459.2016,-257"/>
<polygon fill="#191970" stroke="#191970" points="366.0694,-253.5001 356.0693,-257 366.0693,-260.5001 366.0694,-253.5001"/>
</g>
<!-- Node48 -->
<g id="node8" class="node">
<title>Node48</title>
<g id="a_node8"><a xlink:href="classFifoOutputPipeline.html" target="_top" xlink:title="FifoOutputPipeline">
<polygon fill="#ffffff" stroke="#000000" points="125,-285.5 125,-304.5 231,-304.5 231,-285.5 125,-285.5"/>
<text text-anchor="middle" x="178" y="-292.5" font-family="Helvetica,sans-Serif" font-size="10.00" fill="#000000">FifoOutputPipeline</text>
</a>
</g>
</g>
<!-- Node48&#45;&gt;Node47 -->
<g id="edge7" class="edge">
<title>Node48&#45;&gt;Node47</title>
<path fill="none" stroke="#191970" d="M225.6291,-282.934C249.9782,-276.7655 278.7881,-269.467 299.6319,-264.1866"/>
<polygon fill="#191970" stroke="#191970" points="224.6856,-279.5623 215.8513,-285.411 226.4047,-286.348 224.6856,-279.5623"/>
</g>
<!-- Node49 -->
<g id="node9" class="node">
<title>Node49</title>
<g id="a_node9"><a xlink:href="classFifoAlteraMf.html" target="_top" xlink:title="FifoAlteraMf">
<polygon fill="#ffffff" stroke="#000000" points="290.5,-285.5 290.5,-304.5 365.5,-304.5 365.5,-285.5 290.5,-285.5"/>
<text text-anchor="middle" x="328" y="-292.5" font-family="Helvetica,sans-Serif" font-size="10.00" fill="#000000">FifoAlteraMf</text>
</a>
</g>
</g>
<!-- Node48&#45;&gt;Node49 -->
<g id="edge9" class="edge">
<title>Node48&#45;&gt;Node49</title>
<path fill="none" stroke="#191970" d="M241.5402,-295C258.1845,-295 275.6,-295 290.4027,-295"/>
<polygon fill="#191970" stroke="#191970" points="241.3068,-291.5001 231.3067,-295 241.3067,-298.5001 241.3068,-291.5001"/>
</g>
<!-- Node50 -->
<g id="node10" class="node">
<title>Node50</title>
<g id="a_node10"><a xlink:href="classFifoAsync.html" target="_top" xlink:title="FifoAsync">
<polygon fill="#ffffff" stroke="#000000" points="296.5,-171.5 296.5,-190.5 359.5,-190.5 359.5,-171.5 296.5,-171.5"/>
<text text-anchor="middle" x="328" y="-178.5" font-family="Helvetica,sans-Serif" font-size="10.00" fill="#000000">FifoAsync</text>
</a>
</g>
</g>
<!-- Node48&#45;&gt;Node50 -->
<g id="edge18" class="edge">
<title>Node48&#45;&gt;Node50</title>
<path fill="none" stroke="#191970" d="M233.6666,-280.6755C235.8996,-279.2612 238.0253,-277.7073 240,-276 268.2736,-251.5554 248.3833,-225.1845 276,-200 281.7525,-194.7541 289.0707,-190.9257 296.3878,-188.143"/>
<polygon fill="#191970" stroke="#191970" points="231.8143,-277.6958 224.6135,-285.4674 235.0891,-283.8825 231.8143,-277.6958"/>
</g>
<!-- Node58 -->
<g id="node18" class="node">
<title>Node58</title>
<g id="a_node18"><a xlink:href="classFifoSync.html" target="_top" xlink:title="FifoSync">
<polygon fill="#ffffff" stroke="#000000" points="299.5,-209.5 299.5,-228.5 356.5,-228.5 356.5,-209.5 299.5,-209.5"/>
<text text-anchor="middle" x="328" y="-216.5" font-family="Helvetica,sans-Serif" font-size="10.00" fill="#000000">FifoSync</text>
</a>
</g>
</g>
<!-- Node48&#45;&gt;Node58 -->
<g id="edge23" class="edge">
<title>Node48&#45;&gt;Node58</title>
<path fill="none" stroke="#191970" d="M229.1786,-281.6878C232.9464,-279.9976 236.5986,-278.1084 240,-276 259.7738,-263.7431 256.5576,-250.7761 276,-238 283.0686,-233.3551 291.4221,-229.6584 299.3418,-226.807"/>
<polygon fill="#191970" stroke="#191970" points="227.6415,-278.5328 219.6519,-285.491 230.2369,-285.0339 227.6415,-278.5328"/>
</g>
<!-- Node49&#45;&gt;Node46 -->
<g id="edge8" class="edge">
<title>Node49&#45;&gt;Node46</title>
<path fill="none" stroke="#191970" d="M375.4466,-283.3679C403.2248,-276.5578 437.0983,-268.2533 459.3165,-262.8063"/>
<polygon fill="#191970" stroke="#191970" points="374.4001,-280.0208 365.5212,-285.8013 376.067,-286.8194 374.4001,-280.0208"/>
</g>
<!-- Node50&#45;&gt;Node46 -->
<g id="edge10" class="edge">
<title>Node50&#45;&gt;Node46</title>
<path fill="none" stroke="#191970" d="M366.1993,-194.1836C370.8922,-196.0295 375.5865,-197.9872 380,-200 411.9834,-214.5863 447.485,-235.303 467.3393,-247.3278"/>
<polygon fill="#191970" stroke="#191970" points="367.2503,-190.8391 356.6589,-190.5693 364.7704,-197.3851 367.2503,-190.8391"/>
</g>
<!-- Node59 -->
<g id="node19" class="node">
<title>Node59</title>
<g id="a_node19"><a xlink:href="classSynchronizerFifo.html" target="_top" xlink:title="SynchronizerFifo">
<polygon fill="#ffffff" stroke="#000000" points="434.5,-170.5 434.5,-189.5 531.5,-189.5 531.5,-170.5 434.5,-170.5"/>
<text text-anchor="middle" x="483" y="-177.5" font-family="Helvetica,sans-Serif" font-size="10.00" fill="#000000">SynchronizerFifo</text>
</a>
</g>
</g>
<!-- Node50&#45;&gt;Node59 -->
<g id="edge27" class="edge">
<title>Node50&#45;&gt;Node59</title>
<path fill="none" stroke="#191970" d="M370.0017,-180.729C389.8196,-180.6012 413.5878,-180.4478 434.2013,-180.3148"/>
<polygon fill="#191970" stroke="#191970" points="369.7178,-177.2307 359.7406,-180.7952 369.763,-184.2305 369.7178,-177.2307"/>
</g>
<!-- Node51 -->
<g id="node11" class="node">
<title>Node51</title>
<g id="a_node11"><a xlink:href="classRstSync.html" target="_top" xlink:title="RstSync(2)">
<polygon fill="#ffffff" stroke="#000000" points="143.5,-57.5 143.5,-76.5 212.5,-76.5 212.5,-57.5 143.5,-57.5"/>
<text text-anchor="middle" x="178" y="-64.5" font-family="Helvetica,sans-Serif" font-size="10.00" fill="#000000">RstSync(2)</text>
</a>
</g>
</g>
<!-- Node51&#45;&gt;Node50 -->
<g id="edge11" class="edge">
<title>Node51&#45;&gt;Node50</title>
<path fill="none" stroke="#191970" d="M222.2643,-77.398C228.4563,-79.7451 234.5559,-82.583 240,-86 277.1316,-109.3054 308.7545,-152.227 321.7165,-171.3585"/>
<polygon fill="#191970" stroke="#191970" points="223.1334,-73.997 212.5391,-74.1009 220.8858,-80.6264 223.1334,-73.997"/>
</g>
<!-- Node52 -->
<g id="node12" class="node">
<title>Node52</title>
<g id="a_node12"><a xlink:href="classSynchronizer.html" target="_top" xlink:title="Synchronizer">
<polygon fill="#ffffff" stroke="#000000" points="0,-38.5 0,-57.5 80,-57.5 80,-38.5 0,-38.5"/>
<text text-anchor="middle" x="40" y="-45.5" font-family="Helvetica,sans-Serif" font-size="10.00" fill="#000000">Synchronizer</text>
</a>
</g>
</g>
<!-- Node52&#45;&gt;Node42 -->
<g id="edge24" class="edge">
<title>Node52&#45;&gt;Node42</title>
<path fill="none" stroke="#191970" d="M42.7117,-67.542C50.8844,-123.4103 77.1307,-281.8583 116,-314 188.9031,-374.2849 233.4001,-333 328,-333 328,-333 328,-333 483,-333 594.0938,-333 724.4716,-333 793.7957,-333"/>
<polygon fill="#191970" stroke="#191970" points="46.1607,-66.9351 41.2817,-57.5305 39.231,-67.925 46.1607,-66.9351"/>
</g>
<!-- Node52&#45;&gt;Node51 -->
<g id="edge12" class="edge">
<title>Node52&#45;&gt;Node51</title>
<path fill="none" stroke="#191970" d="M90.3506,-54.9323C107.8473,-57.3413 127.0737,-59.9884 143.05,-62.188"/>
<polygon fill="#191970" stroke="#191970" points="90.6702,-51.4434 80.2863,-53.5467 89.7154,-58.378 90.6702,-51.4434"/>
</g>
<!-- Node64 -->
<g id="node24" class="node">
<title>Node64</title>
<g id="a_node24"><a xlink:href="classRstSync.html" target="_top" xlink:title="RstSync">
<polygon fill="#ffffff" stroke="#000000" points="300,-39.5 300,-58.5 356,-58.5 356,-39.5 300,-39.5"/>
<text text-anchor="middle" x="328" y="-46.5" font-family="Helvetica,sans-Serif" font-size="10.00" fill="#000000">RstSync</text>
</a>
</g>
</g>
<!-- Node52&#45;&gt;Node64 -->
<g id="edge33" class="edge">
<title>Node52&#45;&gt;Node64</title>
<path fill="none" stroke="#191970" d="M90.3635,-47.8418C130.8064,-47.7529 189.0538,-47.7105 240,-48 260.0149,-48.1137 282.5891,-48.3729 299.8623,-48.5989"/>
<polygon fill="#191970" stroke="#191970" points="90.2149,-44.342 80.2232,-47.8659 90.2316,-51.342 90.2149,-44.342"/>
</g>
<!-- Node65 -->
<g id="node25" class="node">
<title>Node65</title>
<g id="a_node25"><a xlink:href="classSynchronizerEdge.html" target="_top" xlink:title="SynchronizerEdge">
<polygon fill="#ffffff" stroke="#000000" points="276,-.5 276,-19.5 380,-19.5 380,-.5 276,-.5"/>
<text text-anchor="middle" x="328" y="-7.5" font-family="Helvetica,sans-Serif" font-size="10.00" fill="#000000">SynchronizerEdge</text>
</a>
</g>
</g>
<!-- Node52&#45;&gt;Node65 -->
<g id="edge35" class="edge">
<title>Node52&#45;&gt;Node65</title>
<path fill="none" stroke="#191970" d="M90.044,-41.397C142.058,-34.534 223.0976,-23.8413 275.8714,-16.8781"/>
<polygon fill="#191970" stroke="#191970" points="89.5014,-37.9381 80.0452,-42.7163 90.4171,-44.878 89.5014,-37.9381"/>
</g>
<!-- Node53 -->
<g id="node13" class="node">
<title>Node53</title>
<g id="a_node13"><a xlink:href="classSynchronizerVector.html" target="_top" xlink:title="SynchronizerVector(2)">
<polygon fill="#ffffff" stroke="#000000" points="116,-133.5 116,-152.5 240,-152.5 240,-133.5 116,-133.5"/>
<text text-anchor="middle" x="178" y="-140.5" font-family="Helvetica,sans-Serif" font-size="10.00" fill="#000000">SynchronizerVector(2)</text>
</a>
</g>
</g>
<!-- Node53&#45;&gt;Node50 -->
<g id="edge13" class="edge">
<title>Node53&#45;&gt;Node50</title>
<path fill="none" stroke="#191970" d="M225.7785,-155.1039C248.8021,-160.9365 275.7856,-167.7723 296.2462,-172.9557"/>
<polygon fill="#191970" stroke="#191970" points="226.4047,-151.652 215.8513,-152.589 224.6856,-158.4377 226.4047,-151.652"/>
</g>
<!-- Node54 -->
<g id="node14" class="node">
<title>Node54</title>
<g id="a_node14"><a xlink:href="classSynchronizer.html" target="_top" xlink:title="Synchronizer(2)">
<polygon fill="#ffffff" stroke="#000000" points="131.5,-95.5 131.5,-114.5 224.5,-114.5 224.5,-95.5 131.5,-95.5"/>
<text text-anchor="middle" x="178" y="-102.5" font-family="Helvetica,sans-Serif" font-size="10.00" fill="#000000">Synchronizer(2)</text>
</a>
</g>
</g>
<!-- Node54&#45;&gt;Node50 -->
<g id="edge14" class="edge">
<title>Node54&#45;&gt;Node50</title>
<path fill="none" stroke="#191970" d="M224.5364,-117.7114C229.8335,-119.6121 235.0891,-121.7116 240,-124 268.7087,-137.3779 299.0453,-158.9028 315.5342,-171.3196"/>
<polygon fill="#191970" stroke="#191970" points="225.6164,-114.382 215.0223,-114.5069 223.382,-121.0158 225.6164,-114.382"/>
</g>
<!-- Node55 -->
<g id="node15" class="node">
<title>Node55</title>
<g id="a_node15"><a xlink:href="classFifoWrFsm.html" target="_top" xlink:title="FifoWrFsm">
<polygon fill="#ffffff" stroke="#000000" points="144.5,-209.5 144.5,-228.5 211.5,-228.5 211.5,-209.5 144.5,-209.5"/>
<text text-anchor="middle" x="178" y="-216.5" font-family="Helvetica,sans-Serif" font-size="10.00" fill="#000000">FifoWrFsm</text>
</a>
</g>
</g>
<!-- Node55&#45;&gt;Node50 -->
<g id="edge15" class="edge">
<title>Node55&#45;&gt;Node50</title>
<path fill="none" stroke="#191970" d="M221.58,-207.9597C245.5531,-201.8866 274.7542,-194.4889 296.4994,-188.9802"/>
<polygon fill="#191970" stroke="#191970" points="220.4972,-204.6234 211.6629,-210.4721 222.2162,-211.4091 220.4972,-204.6234"/>
</g>
<!-- Node55&#45;&gt;Node58 -->
<g id="edge20" class="edge">
<title>Node55&#45;&gt;Node58</title>
<path fill="none" stroke="#191970" d="M221.6652,-219C246.7411,-219 277.5147,-219 299.4925,-219"/>
<polygon fill="#191970" stroke="#191970" points="221.663,-215.5001 211.6629,-219 221.6629,-222.5001 221.663,-215.5001"/>
</g>
<!-- Node56 -->
<g id="node16" class="node">
<title>Node56</title>
<g id="a_node16"><a xlink:href="classFifoRdFsm.html" target="_top" xlink:title="FifoRdFsm">
<polygon fill="#ffffff" stroke="#000000" points="144.5,-171.5 144.5,-190.5 211.5,-190.5 211.5,-171.5 144.5,-171.5"/>
<text text-anchor="middle" x="178" y="-178.5" font-family="Helvetica,sans-Serif" font-size="10.00" fill="#000000">FifoRdFsm</text>
</a>
</g>
</g>
<!-- Node56&#45;&gt;Node50 -->
<g id="edge16" class="edge">
<title>Node56&#45;&gt;Node50</title>
<path fill="none" stroke="#191970" d="M221.9014,-181C245.8136,-181 274.8512,-181 296.4994,-181"/>
<polygon fill="#191970" stroke="#191970" points="221.663,-177.5001 211.6629,-181 221.6629,-184.5001 221.663,-177.5001"/>
</g>
<!-- Node56&#45;&gt;Node58 -->
<g id="edge21" class="edge">
<title>Node56&#45;&gt;Node58</title>
<path fill="none" stroke="#191970" d="M221.6652,-192.0619C246.7411,-198.4144 277.5147,-206.2104 299.4925,-211.7781"/>
<polygon fill="#191970" stroke="#191970" points="222.2162,-188.5909 211.6629,-189.5279 220.4972,-195.3766 222.2162,-188.5909"/>
</g>
<!-- Node57 -->
<g id="node17" class="node">
<title>Node57</title>
<g id="a_node17"><a xlink:href="classSimpleDualPortRam.html" target="_top" xlink:title="SimpleDualPortRam">
<polygon fill="#ffffff" stroke="#000000" points="120.5,-247.5 120.5,-266.5 235.5,-266.5 235.5,-247.5 120.5,-247.5"/>
<text text-anchor="middle" x="178" y="-254.5" font-family="Helvetica,sans-Serif" font-size="10.00" fill="#000000">SimpleDualPortRam</text>
</a>
</g>
</g>
<!-- Node57&#45;&gt;Node50 -->
<g id="edge17" class="edge">
<title>Node57&#45;&gt;Node50</title>
<path fill="none" stroke="#191970" d="M229.1786,-243.6878C232.9464,-241.9976 236.5986,-240.1084 240,-238 259.7738,-225.7431 256.5576,-212.7761 276,-200 282.185,-195.9357 289.3538,-192.5974 296.3549,-189.9161"/>
<polygon fill="#191970" stroke="#191970" points="227.6415,-240.5328 219.6519,-247.491 230.2369,-247.0339 227.6415,-240.5328"/>
</g>
<!-- Node57&#45;&gt;Node58 -->
<g id="edge22" class="edge">
<title>Node57&#45;&gt;Node58</title>
<path fill="none" stroke="#191970" d="M225.562,-244.951C249.7406,-238.8257 278.3321,-231.5825 299.1562,-226.3071"/>
<polygon fill="#191970" stroke="#191970" points="224.6856,-241.5623 215.8513,-247.411 226.4047,-248.348 224.6856,-241.5623"/>
</g>
<!-- Node58&#45;&gt;Node46 -->
<g id="edge19" class="edge">
<title>Node58&#45;&gt;Node46</title>
<path fill="none" stroke="#191970" d="M366.6458,-228.4745C395.785,-235.6183 434.8096,-245.1856 459.4312,-251.2218"/>
<polygon fill="#191970" stroke="#191970" points="367.3369,-225.0403 356.7911,-226.0585 365.67,-231.839 367.3369,-225.0403"/>
</g>
<!-- Node59&#45;&gt;Node41 -->
<g id="edge26" class="edge">
<title>Node59&#45;&gt;Node41</title>
<path fill="none" stroke="#191970" d="M541.5633,-180C674.6563,-180 996.329,-180 1099.8323,-180"/>
<polygon fill="#191970" stroke="#191970" points="541.5525,-176.5001 531.5524,-180 541.5524,-183.5001 541.5525,-176.5001"/>
</g>
<!-- Node66 -->
<g id="node26" class="node">
<title>Node66</title>
<g id="a_node26"><a xlink:href="classSynchronizerOneShotCnt.html" target="_top" xlink:title="SynchronizerOneShotCnt">
<polygon fill="#ffffff" stroke="#000000" points="586,-87.5 586,-106.5 723,-106.5 723,-87.5 586,-87.5"/>
<text text-anchor="middle" x="654.5" y="-94.5" font-family="Helvetica,sans-Serif" font-size="10.00" fill="#000000">SynchronizerOneShotCnt</text>
</a>
</g>
</g>
<!-- Node59&#45;&gt;Node66 -->
<g id="edge38" class="edge">
<title>Node59&#45;&gt;Node66</title>
<path fill="none" stroke="#191970" d="M511.8711,-166.0274C546.7851,-149.1302 604.6136,-121.1433 634.7928,-106.5376"/>
<polygon fill="#191970" stroke="#191970" points="510.1498,-162.972 502.6732,-170.4788 513.1992,-169.2729 510.1498,-162.972"/>
</g>
<!-- Node60 -->
<g id="node20" class="node">
<title>Node60</title>
<g id="a_node20"><a xlink:href="classSyncStatusVector.html" target="_top" xlink:title="SyncStatusVector">
<polygon fill="#ffffff" stroke="#000000" points="963,-130.5 963,-149.5 1064,-149.5 1064,-130.5 963,-130.5"/>
<text text-anchor="middle" x="1013.5" y="-137.5" font-family="Helvetica,sans-Serif" font-size="10.00" fill="#000000">SyncStatusVector</text>
</a>
</g>
</g>
<!-- Node60&#45;&gt;Node41 -->
<g id="edge28" class="edge">
<title>Node60&#45;&gt;Node41</title>
<path fill="none" stroke="#191970" d="M1051.6899,-152.8369C1068.7571,-158.5738 1088.5197,-165.2167 1104.2291,-170.4972"/>
<polygon fill="#191970" stroke="#191970" points="1052.5975,-149.4496 1042.0035,-149.581 1050.3671,-156.0848 1052.5975,-149.4496"/>
</g>
<!-- Node61 -->
<g id="node21" class="node">
<title>Node61</title>
<g id="a_node21"><a xlink:href="classSynchronizerVector.html" target="_top" xlink:title="SynchronizerVector">
<polygon fill="#ffffff" stroke="#000000" points="788,-130.5 788,-149.5 898,-149.5 898,-130.5 788,-130.5"/>
<text text-anchor="middle" x="843" y="-137.5" font-family="Helvetica,sans-Serif" font-size="10.00" fill="#000000">SynchronizerVector</text>
</a>
</g>
</g>
<!-- Node61&#45;&gt;Node60 -->
<g id="edge29" class="edge">
<title>Node61&#45;&gt;Node60</title>
<path fill="none" stroke="#191970" d="M908.4911,-140C926.4849,-140 945.7215,-140 962.7493,-140"/>
<polygon fill="#191970" stroke="#191970" points="908.3565,-136.5001 898.3565,-140 908.3564,-143.5001 908.3565,-136.5001"/>
</g>
<!-- Node62 -->
<g id="node22" class="node">
<title>Node62</title>
<g id="a_node22"><a xlink:href="classSynchronizerOneShotCntVector.html" target="_top" xlink:title="SynchronizerOneShotCntVector">
<polygon fill="#ffffff" stroke="#000000" points="759,-87.5 759,-106.5 927,-106.5 927,-87.5 759,-87.5"/>
<text text-anchor="middle" x="843" y="-94.5" font-family="Helvetica,sans-Serif" font-size="10.00" fill="#000000">SynchronizerOneShotCntVector</text>
</a>
</g>
</g>
<!-- Node62&#45;&gt;Node60 -->
<g id="edge30" class="edge">
<title>Node62&#45;&gt;Node60</title>
<path fill="none" stroke="#191970" d="M890.8042,-109.0562C917.6729,-115.8325 950.7349,-124.1707 975.7663,-130.4836"/>
<polygon fill="#191970" stroke="#191970" points="891.3918,-105.5949 880.8395,-106.5431 889.6799,-112.3823 891.3918,-105.5949"/>
</g>
<!-- Node63 -->
<g id="node23" class="node">
<title>Node63</title>
<g id="a_node23"><a xlink:href="classSynchronizerOneShot.html" target="_top" xlink:title="SynchronizerOneShot(2)">
<polygon fill="#ffffff" stroke="#000000" points="416,-39.5 416,-58.5 550,-58.5 550,-39.5 416,-39.5"/>
<text text-anchor="middle" x="483" y="-46.5" font-family="Helvetica,sans-Serif" font-size="10.00" fill="#000000">SynchronizerOneShot(2)</text>
</a>
</g>
</g>
<!-- Node63&#45;&gt;Node62 -->
<g id="edge31" class="edge">
<title>Node63&#45;&gt;Node62</title>
<path fill="none" stroke="#191970" d="M560.1989,-57.5978C607.2951,-63.0244 668.6874,-70.4215 723,-78 743.4727,-80.8567 765.8564,-84.3105 785.6878,-87.4858"/>
<polygon fill="#191970" stroke="#191970" points="560.405,-54.0985 550.0712,-56.4357 559.607,-61.0529 560.405,-54.0985"/>
</g>
<!-- Node63&#45;&gt;Node66 -->
<g id="edge37" class="edge">
<title>Node63&#45;&gt;Node66</title>
<path fill="none" stroke="#191970" d="M527.1688,-61.3621C556.1629,-69.4771 593.525,-79.9341 620.266,-87.4185"/>
<polygon fill="#191970" stroke="#191970" points="527.8667,-57.923 517.2934,-58.5982 525.98,-64.664 527.8667,-57.923"/>
</g>
<!-- Node64&#45;&gt;Node63 -->
<g id="edge32" class="edge">
<title>Node64&#45;&gt;Node63</title>
<path fill="none" stroke="#191970" d="M366.4418,-49C381.3882,-49 398.9587,-49 415.8599,-49"/>
<polygon fill="#191970" stroke="#191970" points="366.0694,-45.5001 356.0693,-49 366.0693,-52.5001 366.0694,-45.5001"/>
</g>
<!-- Node65&#45;&gt;Node63 -->
<g id="edge34" class="edge">
<title>Node65&#45;&gt;Node63</title>
<path fill="none" stroke="#191970" d="M375.86,-22.0422C398.162,-27.6537 424.3196,-34.2353 445.2059,-39.4905"/>
<polygon fill="#191970" stroke="#191970" points="376.4691,-18.5864 365.9173,-19.5405 374.761,-25.3748 376.4691,-18.5864"/>
</g>
<!-- Node66&#45;&gt;Node62 -->
<g id="edge36" class="edge">
<title>Node66&#45;&gt;Node62</title>
<path fill="none" stroke="#191970" d="M733.2491,-97C741.6652,-97 750.2509,-97 758.7277,-97"/>
<polygon fill="#191970" stroke="#191970" points="733.0861,-93.5001 723.0861,-97 733.086,-100.5001 733.0861,-93.5001"/>
</g>
</g>
</svg>
