<?xml version="1.0" encoding="UTF-8" standalone="no"?>
<!DOCTYPE svg PUBLIC "-//W3C//DTD SVG 1.1//EN"
 "http://www.w3.org/Graphics/SVG/1.1/DTD/svg11.dtd">
<!-- Generated by graphviz version 2.40.1 (20161225.0304)
 -->
<!-- Title: Sgmii88E1111Mdio Pages: 1 -->
<svg width="167pt" height="252pt"
 viewBox="0.00 0.00 167.00 252.00" xmlns="http://www.w3.org/2000/svg" xmlns:xlink="http://www.w3.org/1999/xlink">
<g id="graph0" class="graph" transform="scale(1 1) rotate(0) translate(4 248)">
<title>Sgmii88E1111Mdio</title>
<polygon fill="#ffffff" stroke="transparent" points="-4,4 -4,-248 163,-248 163,4 -4,4"/>
<!-- Node0 -->
<g id="node1" class="node">
<title>Node0</title>
<polygon fill="#bfbfbf" stroke="#000000" points="24.5,-56.5 24.5,-75.5 134.5,-75.5 134.5,-56.5 24.5,-56.5"/>
<text text-anchor="middle" x="79.5" y="-63.5" font-family="Helvetica,sans-Serif" font-size="10.00" fill="#000000">Sgmii88E1111Mdio</text>
</g>
<!-- Node4 -->
<g id="node5" class="node">
<title>Node4</title>
<g id="a_node5"><a xlink:href="classSgmii88E1111LvdsUltraScale.html" target="_top" xlink:title="Sgmii88E1111LvdsUltraScale">
<polygon fill="#ffffff" stroke="#000000" points="0,-.5 0,-19.5 159,-19.5 159,-.5 0,-.5"/>
<text text-anchor="middle" x="79.5" y="-7.5" font-family="Helvetica,sans-Serif" font-size="10.00" fill="#000000">Sgmii88E1111LvdsUltraScale</text>
</a>
</g>
</g>
<!-- Node0&#45;&gt;Node4 -->
<g id="edge4" class="edge">
<title>Node0&#45;&gt;Node4</title>
<path fill="none" stroke="#191970" d="M79.5,-46.1575C79.5,-37.155 79.5,-26.9199 79.5,-19.6427"/>
<polygon fill="#191970" stroke="#191970" points="76.0001,-46.2455 79.5,-56.2455 83.0001,-46.2456 76.0001,-46.2455"/>
</g>
<!-- Node1 -->
<g id="node2" class="node">
<title>Node1</title>
<g id="a_node2"><a xlink:href="classMdioLinkIrqHandler.html" target="_top" xlink:title="MdioLinkIrqHandler">
<polygon fill="#ffffff" stroke="#000000" points="24,-112.5 24,-131.5 135,-131.5 135,-112.5 24,-112.5"/>
<text text-anchor="middle" x="79.5" y="-119.5" font-family="Helvetica,sans-Serif" font-size="10.00" fill="#000000">MdioLinkIrqHandler</text>
</a>
</g>
</g>
<!-- Node1&#45;&gt;Node0 -->
<g id="edge1" class="edge">
<title>Node1&#45;&gt;Node0</title>
<path fill="none" stroke="#191970" d="M79.5,-102.1575C79.5,-93.155 79.5,-82.9199 79.5,-75.6427"/>
<polygon fill="#191970" stroke="#191970" points="76.0001,-102.2455 79.5,-112.2455 83.0001,-102.2456 76.0001,-102.2455"/>
</g>
<!-- Node2 -->
<g id="node3" class="node">
<title>Node2</title>
<g id="a_node3"><a xlink:href="classMdioSeqCore.html" target="_top" xlink:title="MdioSeqCore">
<polygon fill="#ffffff" stroke="#000000" points="39.5,-168.5 39.5,-187.5 119.5,-187.5 119.5,-168.5 39.5,-168.5"/>
<text text-anchor="middle" x="79.5" y="-175.5" font-family="Helvetica,sans-Serif" font-size="10.00" fill="#000000">MdioSeqCore</text>
</a>
</g>
</g>
<!-- Node2&#45;&gt;Node1 -->
<g id="edge2" class="edge">
<title>Node2&#45;&gt;Node1</title>
<path fill="none" stroke="#191970" d="M79.5,-158.1575C79.5,-149.155 79.5,-138.9199 79.5,-131.6427"/>
<polygon fill="#191970" stroke="#191970" points="76.0001,-158.2455 79.5,-168.2455 83.0001,-158.2456 76.0001,-158.2455"/>
</g>
<!-- Node3 -->
<g id="node4" class="node">
<title>Node3</title>
<g id="a_node4"><a xlink:href="classMdioCore.html" target="_top" xlink:title="MdioCore">
<polygon fill="#ffffff" stroke="#000000" points="48.5,-224.5 48.5,-243.5 110.5,-243.5 110.5,-224.5 48.5,-224.5"/>
<text text-anchor="middle" x="79.5" y="-231.5" font-family="Helvetica,sans-Serif" font-size="10.00" fill="#000000">MdioCore</text>
</a>
</g>
</g>
<!-- Node3&#45;&gt;Node2 -->
<g id="edge3" class="edge">
<title>Node3&#45;&gt;Node2</title>
<path fill="none" stroke="#191970" d="M79.5,-214.1575C79.5,-205.155 79.5,-194.9199 79.5,-187.6427"/>
<polygon fill="#191970" stroke="#191970" points="76.0001,-214.2455 79.5,-224.2455 83.0001,-214.2456 76.0001,-214.2455"/>
</g>
</g>
</svg>
