<?xml version="1.0" encoding="UTF-8" standalone="no"?>
<!DOCTYPE svg PUBLIC "-//W3C//DTD SVG 1.1//EN"
 "http://www.w3.org/Graphics/SVG/1.1/DTD/svg11.dtd">
<!-- Generated by graphviz version 2.43.0 (0)
 -->
<!-- Title: Gth7Core Pages: 1 -->
<svg width="519pt" height="285pt"
 viewBox="0.00 0.00 519.00 285.07" xmlns="http://www.w3.org/2000/svg" xmlns:xlink="http://www.w3.org/1999/xlink">
<g id="graph0" class="graph" transform="scale(1 1) rotate(0) translate(4 281.07)">
<title>Gth7Core</title>
<polygon fill="white" stroke="transparent" points="-4,4 -4,-281.07 515,-281.07 515,4 -4,4"/>
<!-- Node1 -->
<g id="node1" class="node">
<title>Node1</title>
<g id="a_node1"><a xlink:title=" ">
<polygon fill="#bfbfbf" stroke="black" points="449,-133.5 449,-152.5 511,-152.5 511,-133.5 449,-133.5"/>
<text text-anchor="middle" x="480" y="-140.5" font-family="Helvetica,sans-Serif" font-size="10.00">Gth7Core</text>
</a>
</g>
</g>
<!-- Node2 -->
<g id="node2" class="node">
<title>Node2</title>
<g id="a_node2"><a xlink:href="classGth7RxRst.html" target="_top" xlink:title=" ">
<polygon fill="white" stroke="black" points="300.5,-76.5 300.5,-95.5 368.5,-95.5 368.5,-76.5 300.5,-76.5"/>
<text text-anchor="middle" x="334.5" y="-83.5" font-family="Helvetica,sans-Serif" font-size="10.00">Gth7RxRst</text>
</a>
</g>
</g>
<!-- Node2&#45;&gt;Node1 -->
<g id="edge1" class="edge">
<title>Node2&#45;&gt;Node1</title>
<path fill="none" stroke="midnightblue" d="M378.38,-94.23C389.83,-97.04 402.06,-100.61 413,-105 432.02,-112.63 452.2,-124.95 465.17,-133.48"/>
<polygon fill="midnightblue" stroke="midnightblue" points="379.1,-90.81 368.57,-91.96 377.52,-97.63 379.1,-90.81"/>
</g>
<!-- Node3 -->
<g id="node3" class="node">
<title>Node3</title>
<g id="a_node3"><a xlink:href="classSynchronizer.html" target="_top" xlink:title=" ">
<polygon fill="white" stroke="black" points="121.5,-114.5 121.5,-133.5 214.5,-133.5 214.5,-114.5 121.5,-114.5"/>
<text text-anchor="middle" x="168" y="-121.5" font-family="Helvetica,sans-Serif" font-size="10.00">Synchronizer(8)</text>
</a>
</g>
</g>
<!-- Node3&#45;&gt;Node2 -->
<g id="edge2" class="edge">
<title>Node3&#45;&gt;Node2</title>
<path fill="none" stroke="midnightblue" d="M220.59,-112.08C246.62,-106.07 277.43,-98.95 300.29,-93.67"/>
<polygon fill="midnightblue" stroke="midnightblue" points="219.47,-108.75 210.51,-114.41 221.04,-115.57 219.47,-108.75"/>
</g>
<!-- Node4 -->
<g id="node4" class="node">
<title>Node4</title>
<g id="a_node4"><a xlink:href="classSynchronizerEdge.html" target="_top" xlink:title=" ">
<polygon fill="white" stroke="black" points="116,-76.5 116,-95.5 220,-95.5 220,-76.5 116,-76.5"/>
<text text-anchor="middle" x="168" y="-83.5" font-family="Helvetica,sans-Serif" font-size="10.00">SynchronizerEdge</text>
</a>
</g>
</g>
<!-- Node4&#45;&gt;Node2 -->
<g id="edge3" class="edge">
<title>Node4&#45;&gt;Node2</title>
<path fill="none" stroke="midnightblue" d="M230.43,-86C254.01,-86 280.04,-86 300.04,-86"/>
<polygon fill="midnightblue" stroke="midnightblue" points="230.15,-82.5 220.15,-86 230.15,-89.5 230.15,-82.5"/>
</g>
<!-- Node12 -->
<g id="node12" class="node">
<title>Node12</title>
<g id="a_node12"><a xlink:href="classGth7TxRst.html" target="_top" xlink:title=" ">
<polygon fill="white" stroke="black" points="300.5,-38.5 300.5,-57.5 368.5,-57.5 368.5,-38.5 300.5,-38.5"/>
<text text-anchor="middle" x="334.5" y="-45.5" font-family="Helvetica,sans-Serif" font-size="10.00">Gth7TxRst</text>
</a>
</g>
</g>
<!-- Node4&#45;&gt;Node12 -->
<g id="edge15" class="edge">
<title>Node4&#45;&gt;Node12</title>
<path fill="none" stroke="midnightblue" d="M220.59,-74.08C246.62,-68.07 277.43,-60.95 300.29,-55.67"/>
<polygon fill="midnightblue" stroke="midnightblue" points="219.47,-70.75 210.51,-76.41 221.04,-77.57 219.47,-70.75"/>
</g>
<!-- Node14 -->
<g id="node14" class="node">
<title>Node14</title>
<g id="a_node14"><a xlink:href="classGth7TxManualPhaseAligner.html" target="_top" xlink:title=" ">
<polygon fill="white" stroke="black" points="258.5,-114.5 258.5,-133.5 410.5,-133.5 410.5,-114.5 258.5,-114.5"/>
<text text-anchor="middle" x="334.5" y="-121.5" font-family="Helvetica,sans-Serif" font-size="10.00">Gth7TxManualPhaseAligner</text>
</a>
</g>
</g>
<!-- Node4&#45;&gt;Node14 -->
<g id="edge18" class="edge">
<title>Node4&#45;&gt;Node14</title>
<path fill="none" stroke="midnightblue" d="M220.5,-97.9C243.62,-103.24 270.53,-109.45 292.29,-114.48"/>
<polygon fill="midnightblue" stroke="midnightblue" points="221.04,-94.43 210.51,-95.59 219.47,-101.25 221.04,-94.43"/>
</g>
<!-- Node5 -->
<g id="node5" class="node">
<title>Node5</title>
<g id="a_node5"><a xlink:href="classSynchronizer.html" target="_top" xlink:title=" ">
<polygon fill="white" stroke="black" points="0,-133.5 0,-152.5 80,-152.5 80,-133.5 0,-133.5"/>
<text text-anchor="middle" x="40" y="-140.5" font-family="Helvetica,sans-Serif" font-size="10.00">Synchronizer</text>
</a>
</g>
</g>
<!-- Node5&#45;&gt;Node4 -->
<g id="edge4" class="edge">
<title>Node5&#45;&gt;Node4</title>
<path fill="none" stroke="midnightblue" d="M67.77,-128.51C81.93,-121.09 99.7,-112.14 116,-105 123.53,-101.7 131.83,-98.45 139.51,-95.6"/>
<polygon fill="midnightblue" stroke="midnightblue" points="65.81,-125.59 58.61,-133.37 69.09,-131.78 65.81,-125.59"/>
</g>
<!-- Node6 -->
<g id="node6" class="node">
<title>Node6</title>
<g id="a_node6"><a xlink:href="classRstSync.html" target="_top" xlink:title=" ">
<polygon fill="white" stroke="black" points="133.5,-228.5 133.5,-247.5 202.5,-247.5 202.5,-228.5 133.5,-228.5"/>
<text text-anchor="middle" x="168" y="-235.5" font-family="Helvetica,sans-Serif" font-size="10.00">RstSync(2)</text>
</a>
</g>
</g>
<!-- Node5&#45;&gt;Node6 -->
<g id="edge6" class="edge">
<title>Node5&#45;&gt;Node6</title>
<path fill="none" stroke="midnightblue" d="M56.49,-160.55C70.81,-176.03 93.26,-198.48 116,-214 124.16,-219.57 133.82,-224.48 142.53,-228.39"/>
<polygon fill="midnightblue" stroke="midnightblue" points="58.73,-157.81 49.42,-152.76 53.55,-162.51 58.73,-157.81"/>
</g>
<!-- Node11 -->
<g id="node11" class="node">
<title>Node11</title>
<g id="a_node11"><a xlink:href="classRstSync.html" target="_top" xlink:title=" ">
<polygon fill="white" stroke="black" points="140,-0.5 140,-19.5 196,-19.5 196,-0.5 140,-0.5"/>
<text text-anchor="middle" x="168" y="-7.5" font-family="Helvetica,sans-Serif" font-size="10.00">RstSync</text>
</a>
</g>
</g>
<!-- Node5&#45;&gt;Node11 -->
<g id="edge12" class="edge">
<title>Node5&#45;&gt;Node11</title>
<path fill="none" stroke="midnightblue" d="M48.88,-124.08C60.23,-99.01 83.43,-54.95 116,-29 122.95,-23.47 131.67,-19.43 139.92,-16.55"/>
<polygon fill="midnightblue" stroke="midnightblue" points="45.67,-122.69 44.88,-133.26 52.08,-125.49 45.67,-122.69"/>
</g>
<!-- Node15 -->
<g id="node15" class="node">
<title>Node15</title>
<g id="a_node15"><a xlink:href="classGth7RxRstSeq.html" target="_top" xlink:title=" ">
<polygon fill="white" stroke="black" points="291.5,-228.5 291.5,-247.5 377.5,-247.5 377.5,-228.5 291.5,-228.5"/>
<text text-anchor="middle" x="334.5" y="-235.5" font-family="Helvetica,sans-Serif" font-size="10.00">Gth7RxRstSeq</text>
</a>
</g>
</g>
<!-- Node5&#45;&gt;Node15 -->
<g id="edge20" class="edge">
<title>Node5&#45;&gt;Node15</title>
<path fill="none" stroke="midnightblue" d="M66.67,-157.65C80.89,-165.34 99.06,-174.49 116,-181 175.21,-203.76 246.89,-220.59 291.35,-229.85"/>
<polygon fill="midnightblue" stroke="midnightblue" points="67.98,-154.37 57.53,-152.61 64.6,-160.5 67.98,-154.37"/>
</g>
<!-- Node6&#45;&gt;Node1 -->
<g id="edge5" class="edge">
<title>Node6&#45;&gt;Node1</title>
<path fill="none" stroke="midnightblue" d="M200.86,-251.26C250,-269.47 345.68,-295.82 413,-257 453.22,-233.81 471.15,-175.72 476.86,-152.65"/>
<polygon fill="midnightblue" stroke="midnightblue" points="201.97,-247.94 191.38,-247.63 199.47,-254.48 201.97,-247.94"/>
</g>
<!-- Node6&#45;&gt;Node15 -->
<g id="edge21" class="edge">
<title>Node6&#45;&gt;Node15</title>
<path fill="none" stroke="midnightblue" d="M212.73,-238C237.09,-238 267.28,-238 291.37,-238"/>
<polygon fill="midnightblue" stroke="midnightblue" points="212.69,-234.5 202.69,-238 212.69,-241.5 212.69,-234.5"/>
</g>
<!-- Node7 -->
<g id="node7" class="node">
<title>Node7</title>
<g id="a_node7"><a xlink:href="classGth7RecClkMonitor.html" target="_top" xlink:title=" ">
<polygon fill="white" stroke="black" points="279,-190.5 279,-209.5 390,-209.5 390,-190.5 279,-190.5"/>
<text text-anchor="middle" x="334.5" y="-197.5" font-family="Helvetica,sans-Serif" font-size="10.00">Gth7RecClkMonitor</text>
</a>
</g>
</g>
<!-- Node7&#45;&gt;Node1 -->
<g id="edge7" class="edge">
<title>Node7&#45;&gt;Node1</title>
<path fill="none" stroke="midnightblue" d="M393.47,-187.7C400.14,-185.72 406.78,-183.49 413,-181 432.02,-173.37 452.2,-161.05 465.17,-152.52"/>
<polygon fill="midnightblue" stroke="midnightblue" points="392.41,-184.36 383.71,-190.42 394.28,-191.11 392.41,-184.36"/>
</g>
<!-- Node8 -->
<g id="node8" class="node">
<title>Node8</title>
<g id="a_node8"><a xlink:href="classGth7AutoPhaseAligner.html" target="_top" xlink:title=" ">
<polygon fill="white" stroke="black" points="264.5,-152.5 264.5,-171.5 404.5,-171.5 404.5,-152.5 264.5,-152.5"/>
<text text-anchor="middle" x="334.5" y="-159.5" font-family="Helvetica,sans-Serif" font-size="10.00">Gth7AutoPhaseAligner(2)</text>
</a>
</g>
</g>
<!-- Node8&#45;&gt;Node1 -->
<g id="edge8" class="edge">
<title>Node8&#45;&gt;Node1</title>
<path fill="none" stroke="midnightblue" d="M414.88,-151.49C426.92,-149.9 438.67,-148.34 448.75,-147"/>
<polygon fill="midnightblue" stroke="midnightblue" points="414.18,-148.05 404.73,-152.83 415.1,-154.99 414.18,-148.05"/>
</g>
<!-- Node9 -->
<g id="node9" class="node">
<title>Node9</title>
<g id="a_node9"><a xlink:href="classSynchronizer.html" target="_top" xlink:title=" ">
<polygon fill="white" stroke="black" points="121.5,-152.5 121.5,-171.5 214.5,-171.5 214.5,-152.5 121.5,-152.5"/>
<text text-anchor="middle" x="168" y="-159.5" font-family="Helvetica,sans-Serif" font-size="10.00">Synchronizer(2)</text>
</a>
</g>
</g>
<!-- Node9&#45;&gt;Node8 -->
<g id="edge9" class="edge">
<title>Node9&#45;&gt;Node8</title>
<path fill="none" stroke="midnightblue" d="M225.14,-162C237.71,-162 251.19,-162 264.23,-162"/>
<polygon fill="midnightblue" stroke="midnightblue" points="224.82,-158.5 214.82,-162 224.82,-165.5 224.82,-158.5"/>
</g>
<!-- Node9&#45;&gt;Node14 -->
<g id="edge17" class="edge">
<title>Node9&#45;&gt;Node14</title>
<path fill="none" stroke="midnightblue" d="M220.5,-150.1C243.62,-144.76 270.53,-138.55 292.29,-133.52"/>
<polygon fill="midnightblue" stroke="midnightblue" points="219.47,-146.75 210.51,-152.41 221.04,-153.57 219.47,-146.75"/>
</g>
<!-- Node10 -->
<g id="node10" class="node">
<title>Node10</title>
<g id="a_node10"><a xlink:href="classGth7RxFixedLatPhaseAligner.html" target="_top" xlink:title=" ">
<polygon fill="white" stroke="black" points="256,-0.5 256,-19.5 413,-19.5 413,-0.5 256,-0.5"/>
<text text-anchor="middle" x="334.5" y="-7.5" font-family="Helvetica,sans-Serif" font-size="10.00">Gth7RxFixedLatPhaseAligner</text>
</a>
</g>
</g>
<!-- Node10&#45;&gt;Node1 -->
<g id="edge10" class="edge">
<title>Node10&#45;&gt;Node1</title>
<path fill="none" stroke="midnightblue" d="M404.99,-23.87C407.79,-25.4 410.48,-27.11 413,-29 449.78,-56.57 469.49,-111.12 476.26,-133.29"/>
<polygon fill="midnightblue" stroke="midnightblue" points="406.24,-20.59 395.7,-19.51 403.27,-26.93 406.24,-20.59"/>
</g>
<!-- Node11&#45;&gt;Node10 -->
<g id="edge11" class="edge">
<title>Node11&#45;&gt;Node10</title>
<path fill="none" stroke="midnightblue" d="M206.37,-10C221.11,-10 238.63,-10 255.87,-10"/>
<polygon fill="midnightblue" stroke="midnightblue" points="206.16,-6.5 196.16,-10 206.16,-13.5 206.16,-6.5"/>
</g>
<!-- Node12&#45;&gt;Node1 -->
<g id="edge13" class="edge">
<title>Node12&#45;&gt;Node1</title>
<path fill="none" stroke="midnightblue" d="M378.62,-53.66C390.35,-56.48 402.67,-60.69 413,-67 441.04,-84.12 463.49,-117.08 473.44,-133.39"/>
<polygon fill="midnightblue" stroke="midnightblue" points="379.03,-50.17 368.52,-51.53 377.58,-57.02 379.03,-50.17"/>
</g>
<!-- Node13 -->
<g id="node13" class="node">
<title>Node13</title>
<g id="a_node13"><a xlink:href="classSynchronizer.html" target="_top" xlink:title=" ">
<polygon fill="white" stroke="black" points="121.5,-38.5 121.5,-57.5 214.5,-57.5 214.5,-38.5 121.5,-38.5"/>
<text text-anchor="middle" x="168" y="-45.5" font-family="Helvetica,sans-Serif" font-size="10.00">Synchronizer(6)</text>
</a>
</g>
</g>
<!-- Node13&#45;&gt;Node12 -->
<g id="edge14" class="edge">
<title>Node13&#45;&gt;Node12</title>
<path fill="none" stroke="midnightblue" d="M224.96,-48C250.07,-48 278.83,-48 300.44,-48"/>
<polygon fill="midnightblue" stroke="midnightblue" points="224.82,-44.5 214.82,-48 224.82,-51.5 224.82,-44.5"/>
</g>
<!-- Node14&#45;&gt;Node1 -->
<g id="edge16" class="edge">
<title>Node14&#45;&gt;Node1</title>
<path fill="none" stroke="midnightblue" d="M417.84,-134.9C428.85,-136.36 439.52,-137.77 448.78,-139"/>
<polygon fill="midnightblue" stroke="midnightblue" points="418.04,-131.4 407.67,-133.56 417.12,-138.34 418.04,-131.4"/>
</g>
<!-- Node15&#45;&gt;Node1 -->
<g id="edge19" class="edge">
<title>Node15&#45;&gt;Node1</title>
<path fill="none" stroke="midnightblue" d="M387.27,-230.02C396.24,-227.34 405.18,-223.77 413,-219 441.04,-201.88 463.49,-168.92 473.44,-152.61"/>
<polygon fill="midnightblue" stroke="midnightblue" points="386.35,-226.64 377.58,-232.59 388.14,-233.41 386.35,-226.64"/>
</g>
</g>
</svg>
