<?xml version="1.0" encoding="UTF-8" standalone="no"?>
<!DOCTYPE svg PUBLIC "-//W3C//DTD SVG 1.1//EN"
 "http://www.w3.org/Graphics/SVG/1.1/DTD/svg11.dtd">
<!-- Generated by graphviz version 2.43.0 (0)
 -->
<!-- Title: EthMacRxImport Pages: 1 -->
<svg width="1406pt" height="636pt"
 viewBox="0.00 0.00 1406.00 636.00" xmlns="http://www.w3.org/2000/svg" xmlns:xlink="http://www.w3.org/1999/xlink">
<g id="graph0" class="graph" transform="scale(1 1) rotate(0) translate(4 632)">
<title>EthMacRxImport</title>
<polygon fill="white" stroke="transparent" points="-4,4 -4,-632 1402,-632 1402,4 -4,4"/>
<!-- Node1 -->
<g id="node1" class="node">
<title>Node1</title>
<g id="a_node1"><a xlink:title=" ">
<polygon fill="#bfbfbf" stroke="black" points="726,-304.5 726,-323.5 824,-323.5 824,-304.5 726,-304.5"/>
<text text-anchor="middle" x="775" y="-311.5" font-family="Helvetica,sans-Serif" font-size="10.00">EthMacRxImport</text>
</a>
</g>
</g>
<!-- Node25 -->
<g id="node24" class="node">
<title>Node25</title>
<g id="a_node24"><a xlink:href="classEthMacRx.html" target="_top" xlink:title=" ">
<polygon fill="white" stroke="black" points="860,-304.5 860,-323.5 925,-323.5 925,-304.5 860,-304.5"/>
<text text-anchor="middle" x="892.5" y="-311.5" font-family="Helvetica,sans-Serif" font-size="10.00">EthMacRx</text>
</a>
</g>
</g>
<!-- Node1&#45;&gt;Node25 -->
<g id="edge33" class="edge">
<title>Node1&#45;&gt;Node25</title>
<path fill="none" stroke="midnightblue" d="M834.52,-314C843.24,-314 851.94,-314 859.82,-314"/>
<polygon fill="midnightblue" stroke="midnightblue" points="834.31,-310.5 824.31,-314 834.31,-317.5 834.31,-310.5"/>
</g>
<!-- Node2 -->
<g id="node2" class="node">
<title>Node2</title>
<g id="a_node2"><a xlink:href="classEthMacRxImportXlgmii.html" target="_top" xlink:title=" ">
<polygon fill="white" stroke="black" points="561,-342.5 561,-361.5 690,-361.5 690,-342.5 561,-342.5"/>
<text text-anchor="middle" x="625.5" y="-349.5" font-family="Helvetica,sans-Serif" font-size="10.00">EthMacRxImportXlgmii</text>
</a>
</g>
</g>
<!-- Node2&#45;&gt;Node1 -->
<g id="edge1" class="edge">
<title>Node2&#45;&gt;Node1</title>
<path fill="none" stroke="midnightblue" d="M673.51,-339.89C694.06,-334.6 717.8,-328.48 737.05,-323.52"/>
<polygon fill="midnightblue" stroke="midnightblue" points="672.53,-336.53 663.72,-342.41 674.28,-343.31 672.53,-336.53"/>
</g>
<!-- Node3 -->
<g id="node3" class="node">
<title>Node3</title>
<g id="a_node3"><a xlink:href="classEthMacRxImportXgmii.html" target="_top" xlink:title=" ">
<polygon fill="white" stroke="black" points="562.5,-266.5 562.5,-285.5 688.5,-285.5 688.5,-266.5 562.5,-266.5"/>
<text text-anchor="middle" x="625.5" y="-273.5" font-family="Helvetica,sans-Serif" font-size="10.00">EthMacRxImportXgmii</text>
</a>
</g>
</g>
<!-- Node3&#45;&gt;Node1 -->
<g id="edge2" class="edge">
<title>Node3&#45;&gt;Node1</title>
<path fill="none" stroke="midnightblue" d="M673.51,-288.11C694.06,-293.4 717.8,-299.52 737.05,-304.48"/>
<polygon fill="midnightblue" stroke="midnightblue" points="674.28,-284.69 663.72,-285.59 672.53,-291.47 674.28,-284.69"/>
</g>
<!-- Node4 -->
<g id="node4" class="node">
<title>Node4</title>
<g id="a_node4"><a xlink:href="classAxiStreamResize.html" target="_top" xlink:title=" ">
<polygon fill="white" stroke="black" points="425,-266.5 425,-285.5 525,-285.5 525,-266.5 425,-266.5"/>
<text text-anchor="middle" x="475" y="-273.5" font-family="Helvetica,sans-Serif" font-size="10.00">AxiStreamResize</text>
</a>
</g>
</g>
<!-- Node4&#45;&gt;Node3 -->
<g id="edge3" class="edge">
<title>Node4&#45;&gt;Node3</title>
<path fill="none" stroke="midnightblue" d="M535.29,-276C544.16,-276 553.34,-276 562.27,-276"/>
<polygon fill="midnightblue" stroke="midnightblue" points="535.04,-272.5 525.04,-276 535.04,-279.5 535.04,-272.5"/>
</g>
<!-- Node5 -->
<g id="node5" class="node">
<title>Node5</title>
<g id="a_node5"><a xlink:href="classAxiStreamPipeline.html" target="_top" xlink:title=" ">
<polygon fill="white" stroke="black" points="124.5,-342.5 124.5,-361.5 231.5,-361.5 231.5,-342.5 124.5,-342.5"/>
<text text-anchor="middle" x="178" y="-349.5" font-family="Helvetica,sans-Serif" font-size="10.00">AxiStreamPipeline</text>
</a>
</g>
</g>
<!-- Node5&#45;&gt;Node4 -->
<g id="edge4" class="edge">
<title>Node5&#45;&gt;Node4</title>
<path fill="none" stroke="midnightblue" d="M199.42,-336.39C218.22,-322.94 247.45,-304.26 276,-295 324.95,-279.13 383.99,-275.3 424.8,-274.87"/>
<polygon fill="midnightblue" stroke="midnightblue" points="197.31,-333.6 191.32,-342.34 201.45,-339.25 197.31,-333.6"/>
</g>
<!-- Node21 -->
<g id="node21" class="node">
<title>Node21</title>
<g id="a_node21"><a xlink:href="classAxiStreamFifoV2.html" target="_top" xlink:title=" ">
<polygon fill="white" stroke="black" points="426,-342.5 426,-361.5 524,-361.5 524,-342.5 426,-342.5"/>
<text text-anchor="middle" x="475" y="-349.5" font-family="Helvetica,sans-Serif" font-size="10.00">AxiStreamFifoV2</text>
</a>
</g>
</g>
<!-- Node5&#45;&gt;Node21 -->
<g id="edge31" class="edge">
<title>Node5&#45;&gt;Node21</title>
<path fill="none" stroke="midnightblue" d="M228.57,-363.63C243.71,-366.66 260.46,-369.49 276,-371 325.99,-375.85 339.08,-376.51 389,-371 405.83,-369.14 424.21,-365.27 439.55,-361.51"/>
<polygon fill="midnightblue" stroke="midnightblue" points="228.89,-360.12 218.39,-361.51 227.47,-366.97 228.89,-360.12"/>
</g>
<!-- Node22 -->
<g id="node22" class="node">
<title>Node22</title>
<g id="a_node22"><a xlink:href="classAxiStreamResize.html" target="_top" xlink:title=" ">
<polygon fill="white" stroke="black" points="276,-342.5 276,-361.5 389,-361.5 389,-342.5 276,-342.5"/>
<text text-anchor="middle" x="332.5" y="-349.5" font-family="Helvetica,sans-Serif" font-size="10.00">AxiStreamResize(2)</text>
</a>
</g>
</g>
<!-- Node5&#45;&gt;Node22 -->
<g id="edge28" class="edge">
<title>Node5&#45;&gt;Node22</title>
<path fill="none" stroke="midnightblue" d="M242.06,-352C253.26,-352 264.85,-352 275.83,-352"/>
<polygon fill="midnightblue" stroke="midnightblue" points="241.91,-348.5 231.91,-352 241.91,-355.5 241.91,-348.5"/>
</g>
<!-- Node6 -->
<g id="node6" class="node">
<title>Node6</title>
<g id="a_node6"><a xlink:href="classFifo.html" target="_top" xlink:title=" ">
<polygon fill="white" stroke="black" points="457.5,-190.5 457.5,-209.5 492.5,-209.5 492.5,-190.5 457.5,-190.5"/>
<text text-anchor="middle" x="475" y="-197.5" font-family="Helvetica,sans-Serif" font-size="10.00">Fifo</text>
</a>
</g>
</g>
<!-- Node6&#45;&gt;Node3 -->
<g id="edge5" class="edge">
<title>Node6&#45;&gt;Node3</title>
<path fill="none" stroke="midnightblue" d="M501.67,-213.14C531.31,-228.31 579.36,-252.9 605.72,-266.39"/>
<polygon fill="midnightblue" stroke="midnightblue" points="503.24,-210.01 492.75,-208.57 500.05,-216.24 503.24,-210.01"/>
</g>
<!-- Node7 -->
<g id="node7" class="node">
<title>Node7</title>
<g id="a_node7"><a xlink:href="classFifoXpm.html" target="_top" xlink:title=" ">
<polygon fill="white" stroke="red" points="304,-190.5 304,-209.5 361,-209.5 361,-190.5 304,-190.5"/>
<text text-anchor="middle" x="332.5" y="-197.5" font-family="Helvetica,sans-Serif" font-size="10.00">FifoXpm</text>
</a>
</g>
</g>
<!-- Node7&#45;&gt;Node6 -->
<g id="edge6" class="edge">
<title>Node7&#45;&gt;Node6</title>
<path fill="none" stroke="midnightblue" d="M371.52,-200C399.54,-200 436.29,-200 457.31,-200"/>
<polygon fill="midnightblue" stroke="midnightblue" points="371.26,-196.5 361.26,-200 371.26,-203.5 371.26,-196.5"/>
</g>
<!-- Node8 -->
<g id="node8" class="node">
<title>Node8</title>
<g id="a_node8"><a xlink:href="classFifoOutputPipeline.html" target="_top" xlink:title=" ">
<polygon fill="white" stroke="black" points="124.5,-228.5 124.5,-247.5 231.5,-247.5 231.5,-228.5 124.5,-228.5"/>
<text text-anchor="middle" x="178" y="-235.5" font-family="Helvetica,sans-Serif" font-size="10.00">FifoOutputPipeline</text>
</a>
</g>
</g>
<!-- Node8&#45;&gt;Node7 -->
<g id="edge7" class="edge">
<title>Node8&#45;&gt;Node7</title>
<path fill="none" stroke="midnightblue" d="M227.22,-225.98C252.4,-219.71 282.3,-212.26 303.62,-206.95"/>
<polygon fill="midnightblue" stroke="midnightblue" points="226.34,-222.6 217.48,-228.41 228.03,-229.39 226.34,-222.6"/>
</g>
<!-- Node9 -->
<g id="node9" class="node">
<title>Node9</title>
<g id="a_node9"><a xlink:href="classFifoAlteraMf.html" target="_top" xlink:title=" ">
<polygon fill="white" stroke="red" points="294,-228.5 294,-247.5 371,-247.5 371,-228.5 294,-228.5"/>
<text text-anchor="middle" x="332.5" y="-235.5" font-family="Helvetica,sans-Serif" font-size="10.00">FifoAlteraMf</text>
</a>
</g>
</g>
<!-- Node8&#45;&gt;Node9 -->
<g id="edge9" class="edge">
<title>Node8&#45;&gt;Node9</title>
<path fill="none" stroke="midnightblue" d="M242.07,-238C259.56,-238 278.01,-238 293.58,-238"/>
<polygon fill="midnightblue" stroke="midnightblue" points="241.91,-234.5 231.91,-238 241.91,-241.5 241.91,-234.5"/>
</g>
<!-- Node10 -->
<g id="node10" class="node">
<title>Node10</title>
<g id="a_node10"><a xlink:href="classFifoAsync.html" target="_top" xlink:title=" ">
<polygon fill="white" stroke="red" points="300.5,-114.5 300.5,-133.5 364.5,-133.5 364.5,-114.5 300.5,-114.5"/>
<text text-anchor="middle" x="332.5" y="-121.5" font-family="Helvetica,sans-Serif" font-size="10.00">FifoAsync</text>
</a>
</g>
</g>
<!-- Node8&#45;&gt;Node10 -->
<g id="edge18" class="edge">
<title>Node8&#45;&gt;Node10</title>
<path fill="none" stroke="midnightblue" d="M233.77,-223.62C235.97,-222.22 238.06,-220.69 240,-219 268.22,-194.49 248.13,-167.9 276,-143 282.84,-136.89 291.72,-132.73 300.38,-129.9"/>
<polygon fill="midnightblue" stroke="midnightblue" points="232.04,-220.58 224.87,-228.38 235.34,-226.76 232.04,-220.58"/>
</g>
<!-- Node18 -->
<g id="node18" class="node">
<title>Node18</title>
<g id="a_node18"><a xlink:href="classFifoSync.html" target="_top" xlink:title=" ">
<polygon fill="white" stroke="red" points="303.5,-152.5 303.5,-171.5 361.5,-171.5 361.5,-152.5 303.5,-152.5"/>
<text text-anchor="middle" x="332.5" y="-159.5" font-family="Helvetica,sans-Serif" font-size="10.00">FifoSync</text>
</a>
</g>
</g>
<!-- Node8&#45;&gt;Node18 -->
<g id="edge23" class="edge">
<title>Node8&#45;&gt;Node18</title>
<path fill="none" stroke="midnightblue" d="M229.35,-224.64C233.06,-222.96 236.65,-221.08 240,-219 259.75,-206.7 256.43,-193.58 276,-181 284.31,-175.66 294.29,-171.64 303.48,-168.7"/>
<polygon fill="midnightblue" stroke="midnightblue" points="227.94,-221.43 219.98,-228.42 230.56,-227.92 227.94,-221.43"/>
</g>
<!-- Node9&#45;&gt;Node6 -->
<g id="edge8" class="edge">
<title>Node9&#45;&gt;Node6</title>
<path fill="none" stroke="midnightblue" d="M378.92,-225.72C405.72,-218.47 438.06,-209.72 457.28,-204.52"/>
<polygon fill="midnightblue" stroke="midnightblue" points="377.69,-222.42 368.95,-228.41 379.52,-229.18 377.69,-222.42"/>
</g>
<!-- Node10&#45;&gt;Node6 -->
<g id="edge10" class="edge">
<title>Node10&#45;&gt;Node6</title>
<path fill="none" stroke="midnightblue" d="M374.26,-136.58C379.31,-138.54 384.33,-140.68 389,-143 416.7,-156.73 446.01,-178.13 461.95,-190.43"/>
<polygon fill="midnightblue" stroke="midnightblue" points="375.21,-133.2 364.62,-133.06 372.81,-139.77 375.21,-133.2"/>
</g>
<!-- Node11 -->
<g id="node11" class="node">
<title>Node11</title>
<g id="a_node11"><a xlink:href="classRstSync.html" target="_top" xlink:title=" ">
<polygon fill="white" stroke="black" points="143.5,-0.5 143.5,-19.5 212.5,-19.5 212.5,-0.5 143.5,-0.5"/>
<text text-anchor="middle" x="178" y="-7.5" font-family="Helvetica,sans-Serif" font-size="10.00">RstSync(2)</text>
</a>
</g>
</g>
<!-- Node11&#45;&gt;Node10 -->
<g id="edge11" class="edge">
<title>Node11&#45;&gt;Node10</title>
<path fill="none" stroke="midnightblue" d="M222.28,-20.48C228.45,-22.82 234.55,-25.64 240,-29 278,-52.46 311.2,-95.3 324.86,-114.38"/>
<polygon fill="midnightblue" stroke="midnightblue" points="223.19,-17.1 212.6,-17.18 220.94,-23.72 223.19,-17.1"/>
</g>
<!-- Node12 -->
<g id="node12" class="node">
<title>Node12</title>
<g id="a_node12"><a xlink:href="classSynchronizer.html" target="_top" xlink:title=" ">
<polygon fill="white" stroke="black" points="0,-209.5 0,-228.5 80,-228.5 80,-209.5 0,-209.5"/>
<text text-anchor="middle" x="40" y="-216.5" font-family="Helvetica,sans-Serif" font-size="10.00">Synchronizer</text>
</a>
</g>
</g>
<!-- Node12&#45;&gt;Node11 -->
<g id="edge12" class="edge">
<title>Node12&#45;&gt;Node11</title>
<path fill="none" stroke="midnightblue" d="M43.21,-199.12C48.53,-160.67 65.62,-75.78 116,-29 123.56,-21.98 133.68,-17.55 143.5,-14.76"/>
<polygon fill="midnightblue" stroke="midnightblue" points="39.73,-198.71 41.95,-209.07 46.68,-199.59 39.73,-198.71"/>
</g>
<!-- Node12&#45;&gt;Node21 -->
<g id="edge30" class="edge">
<title>Node12&#45;&gt;Node21</title>
<path fill="none" stroke="midnightblue" d="M44.37,-238.45C51.26,-271.8 70.37,-339.37 116,-371 215.9,-440.23 269.77,-410.59 389,-387 413.42,-382.17 439.64,-370.23 456.4,-361.64"/>
<polygon fill="midnightblue" stroke="midnightblue" points="47.79,-237.72 42.47,-228.55 40.91,-239.03 47.79,-237.72"/>
</g>
<!-- Node13 -->
<g id="node13" class="node">
<title>Node13</title>
<g id="a_node13"><a xlink:href="classSynchronizerVector.html" target="_top" xlink:title=" ">
<polygon fill="white" stroke="black" points="116,-76.5 116,-95.5 240,-95.5 240,-76.5 116,-76.5"/>
<text text-anchor="middle" x="178" y="-83.5" font-family="Helvetica,sans-Serif" font-size="10.00">SynchronizerVector(2)</text>
</a>
</g>
</g>
<!-- Node13&#45;&gt;Node10 -->
<g id="edge13" class="edge">
<title>Node13&#45;&gt;Node10</title>
<path fill="none" stroke="midnightblue" d="M227.4,-98.06C251.22,-104 279.25,-110.98 300.21,-116.2"/>
<polygon fill="midnightblue" stroke="midnightblue" points="228.03,-94.61 217.48,-95.59 226.34,-101.4 228.03,-94.61"/>
</g>
<!-- Node14 -->
<g id="node14" class="node">
<title>Node14</title>
<g id="a_node14"><a xlink:href="classSynchronizer.html" target="_top" xlink:title=" ">
<polygon fill="white" stroke="black" points="131.5,-38.5 131.5,-57.5 224.5,-57.5 224.5,-38.5 131.5,-38.5"/>
<text text-anchor="middle" x="178" y="-45.5" font-family="Helvetica,sans-Serif" font-size="10.00">Synchronizer(2)</text>
</a>
</g>
</g>
<!-- Node14&#45;&gt;Node10 -->
<g id="edge14" class="edge">
<title>Node14&#45;&gt;Node10</title>
<path fill="none" stroke="midnightblue" d="M224.54,-60.77C229.83,-62.66 235.08,-64.75 240,-67 269.61,-80.56 301.24,-102.02 318.46,-114.38"/>
<polygon fill="midnightblue" stroke="midnightblue" points="225.65,-57.45 215.05,-57.56 223.4,-64.08 225.65,-57.45"/>
</g>
<!-- Node15 -->
<g id="node15" class="node">
<title>Node15</title>
<g id="a_node15"><a xlink:href="classFifoWrFsm.html" target="_top" xlink:title=" ">
<polygon fill="white" stroke="black" points="143.5,-152.5 143.5,-171.5 212.5,-171.5 212.5,-152.5 143.5,-152.5"/>
<text text-anchor="middle" x="178" y="-159.5" font-family="Helvetica,sans-Serif" font-size="10.00">FifoWrFsm</text>
</a>
</g>
</g>
<!-- Node15&#45;&gt;Node10 -->
<g id="edge15" class="edge">
<title>Node15&#45;&gt;Node10</title>
<path fill="none" stroke="midnightblue" d="M222.74,-151.1C247.54,-144.92 277.98,-137.34 300.35,-131.76"/>
<polygon fill="midnightblue" stroke="midnightblue" points="221.7,-147.75 212.84,-153.57 223.39,-154.54 221.7,-147.75"/>
</g>
<!-- Node15&#45;&gt;Node18 -->
<g id="edge20" class="edge">
<title>Node15&#45;&gt;Node18</title>
<path fill="none" stroke="midnightblue" d="M223.15,-162C249.01,-162 280.9,-162 303.37,-162"/>
<polygon fill="midnightblue" stroke="midnightblue" points="222.84,-158.5 212.84,-162 222.84,-165.5 222.84,-158.5"/>
</g>
<!-- Node16 -->
<g id="node16" class="node">
<title>Node16</title>
<g id="a_node16"><a xlink:href="classFifoRdFsm.html" target="_top" xlink:title=" ">
<polygon fill="white" stroke="black" points="144,-114.5 144,-133.5 212,-133.5 212,-114.5 144,-114.5"/>
<text text-anchor="middle" x="178" y="-121.5" font-family="Helvetica,sans-Serif" font-size="10.00">FifoRdFsm</text>
</a>
</g>
</g>
<!-- Node16&#45;&gt;Node10 -->
<g id="edge16" class="edge">
<title>Node16&#45;&gt;Node10</title>
<path fill="none" stroke="midnightblue" d="M222.35,-124C247.2,-124 277.82,-124 300.3,-124"/>
<polygon fill="midnightblue" stroke="midnightblue" points="222.09,-120.5 212.09,-124 222.09,-127.5 222.09,-120.5"/>
</g>
<!-- Node16&#45;&gt;Node18 -->
<g id="edge21" class="edge">
<title>Node16&#45;&gt;Node18</title>
<path fill="none" stroke="midnightblue" d="M222.08,-134.74C248.12,-141.22 280.56,-149.31 303.34,-154.98"/>
<polygon fill="midnightblue" stroke="midnightblue" points="222.64,-131.27 212.09,-132.25 220.95,-138.06 222.64,-131.27"/>
</g>
<!-- Node17 -->
<g id="node17" class="node">
<title>Node17</title>
<g id="a_node17"><a xlink:href="classSimpleDualPortRam.html" target="_top" xlink:title=" ">
<polygon fill="white" stroke="black" points="120.5,-190.5 120.5,-209.5 235.5,-209.5 235.5,-190.5 120.5,-190.5"/>
<text text-anchor="middle" x="178" y="-197.5" font-family="Helvetica,sans-Serif" font-size="10.00">SimpleDualPortRam</text>
</a>
</g>
</g>
<!-- Node17&#45;&gt;Node10 -->
<g id="edge17" class="edge">
<title>Node17&#45;&gt;Node10</title>
<path fill="none" stroke="midnightblue" d="M229.35,-186.64C233.06,-184.96 236.65,-183.08 240,-181 259.75,-168.7 256.43,-155.58 276,-143 283.37,-138.27 292.05,-134.57 300.33,-131.74"/>
<polygon fill="midnightblue" stroke="midnightblue" points="227.94,-183.43 219.98,-190.42 230.56,-189.92 227.94,-183.43"/>
</g>
<!-- Node17&#45;&gt;Node18 -->
<g id="edge22" class="edge">
<title>Node17&#45;&gt;Node18</title>
<path fill="none" stroke="midnightblue" d="M227.49,-187.92C252.42,-181.71 281.93,-174.35 303.14,-169.07"/>
<polygon fill="midnightblue" stroke="midnightblue" points="226.34,-184.6 217.48,-190.41 228.03,-191.39 226.34,-184.6"/>
</g>
<!-- Node18&#45;&gt;Node6 -->
<g id="edge19" class="edge">
<title>Node18&#45;&gt;Node6</title>
<path fill="none" stroke="midnightblue" d="M371.49,-172.27C399.55,-179.86 436.38,-189.82 457.39,-195.51"/>
<polygon fill="midnightblue" stroke="midnightblue" points="372.16,-168.83 361.59,-169.6 370.33,-175.59 372.16,-168.83"/>
</g>
<!-- Node19 -->
<g id="node19" class="node">
<title>Node19</title>
<g id="a_node19"><a xlink:href="classCrc32Parallel.html" target="_top" xlink:title=" ">
<polygon fill="white" stroke="black" points="435,-304.5 435,-323.5 515,-323.5 515,-304.5 435,-304.5"/>
<text text-anchor="middle" x="475" y="-311.5" font-family="Helvetica,sans-Serif" font-size="10.00">Crc32Parallel</text>
</a>
</g>
</g>
<!-- Node19&#45;&gt;Node3 -->
<g id="edge24" class="edge">
<title>Node19&#45;&gt;Node3</title>
<path fill="none" stroke="midnightblue" d="M523.33,-301.89C544.01,-296.6 567.92,-290.48 587.3,-285.52"/>
<polygon fill="midnightblue" stroke="midnightblue" points="522.29,-298.54 513.47,-304.41 524.03,-305.32 522.29,-298.54"/>
</g>
<!-- Node20 -->
<g id="node20" class="node">
<title>Node20</title>
<g id="a_node20"><a xlink:href="classEthMacRxImportGmii.html" target="_top" xlink:title=" ">
<polygon fill="white" stroke="black" points="565,-304.5 565,-323.5 686,-323.5 686,-304.5 565,-304.5"/>
<text text-anchor="middle" x="625.5" y="-311.5" font-family="Helvetica,sans-Serif" font-size="10.00">EthMacRxImportGmii</text>
</a>
</g>
</g>
<!-- Node19&#45;&gt;Node20 -->
<g id="edge32" class="edge">
<title>Node19&#45;&gt;Node20</title>
<path fill="none" stroke="midnightblue" d="M525.33,-314C537.96,-314 551.67,-314 564.76,-314"/>
<polygon fill="midnightblue" stroke="midnightblue" points="525.02,-310.5 515.02,-314 525.02,-317.5 525.02,-310.5"/>
</g>
<!-- Node20&#45;&gt;Node1 -->
<g id="edge25" class="edge">
<title>Node20&#45;&gt;Node1</title>
<path fill="none" stroke="midnightblue" d="M696.11,-314C706.22,-314 716.43,-314 725.99,-314"/>
<polygon fill="midnightblue" stroke="midnightblue" points="696.07,-310.5 686.07,-314 696.07,-317.5 696.07,-310.5"/>
</g>
<!-- Node21&#45;&gt;Node20 -->
<g id="edge26" class="edge">
<title>Node21&#45;&gt;Node20</title>
<path fill="none" stroke="midnightblue" d="M523.33,-339.89C544.01,-334.6 567.92,-328.48 587.3,-323.52"/>
<polygon fill="midnightblue" stroke="midnightblue" points="522.29,-336.54 513.47,-342.41 524.03,-343.32 522.29,-336.54"/>
</g>
<!-- Node22&#45;&gt;Node21 -->
<g id="edge27" class="edge">
<title>Node22&#45;&gt;Node21</title>
<path fill="none" stroke="midnightblue" d="M399.08,-352C408.04,-352 417.11,-352 425.69,-352"/>
<polygon fill="midnightblue" stroke="midnightblue" points="399.03,-348.5 389.03,-352 399.03,-355.5 399.03,-348.5"/>
</g>
<!-- Node23 -->
<g id="node23" class="node">
<title>Node23</title>
<g id="a_node23"><a xlink:href="classFifoCascade.html" target="_top" xlink:title=" ">
<polygon fill="white" stroke="red" points="288,-304.5 288,-323.5 377,-323.5 377,-304.5 288,-304.5"/>
<text text-anchor="middle" x="332.5" y="-311.5" font-family="Helvetica,sans-Serif" font-size="10.00">FifoCascade(2)</text>
</a>
</g>
</g>
<!-- Node23&#45;&gt;Node21 -->
<g id="edge29" class="edge">
<title>Node23&#45;&gt;Node21</title>
<path fill="none" stroke="midnightblue" d="M378.78,-326.25C398.14,-331.48 420.42,-337.51 438.56,-342.41"/>
<polygon fill="midnightblue" stroke="midnightblue" points="379.52,-322.82 368.95,-323.59 377.69,-329.58 379.52,-322.82"/>
</g>
<!-- Node26 -->
<g id="node25" class="node">
<title>Node26</title>
<g id="a_node25"><a xlink:href="classEthMacTop.html" target="_top" xlink:title=" ">
<polygon fill="white" stroke="black" points="961,-304.5 961,-323.5 1030,-323.5 1030,-304.5 961,-304.5"/>
<text text-anchor="middle" x="995.5" y="-311.5" font-family="Helvetica,sans-Serif" font-size="10.00">EthMacTop</text>
</a>
</g>
</g>
<!-- Node25&#45;&gt;Node26 -->
<g id="edge34" class="edge">
<title>Node25&#45;&gt;Node26</title>
<path fill="none" stroke="midnightblue" d="M935.32,-314C943.82,-314 952.66,-314 960.84,-314"/>
<polygon fill="midnightblue" stroke="midnightblue" points="935.18,-310.5 925.18,-314 935.18,-317.5 935.18,-310.5"/>
</g>
<!-- Node27 -->
<g id="node26" class="node">
<title>Node27</title>
<g id="a_node26"><a xlink:href="classEthMacPauseTb.html" target="_top" xlink:title=" ">
<polygon fill="white" stroke="black" points="1086,-608.5 1086,-627.5 1179,-627.5 1179,-608.5 1086,-608.5"/>
<text text-anchor="middle" x="1132.5" y="-615.5" font-family="Helvetica,sans-Serif" font-size="10.00">EthMacPauseTb</text>
</a>
</g>
</g>
<!-- Node26&#45;&gt;Node27 -->
<g id="edge35" class="edge">
<title>Node26&#45;&gt;Node27</title>
<path fill="none" stroke="midnightblue" d="M998.75,-333.78C1005.73,-391.85 1028.85,-560.21 1066,-599 1071.41,-604.64 1078.38,-608.64 1085.75,-611.46"/>
<polygon fill="midnightblue" stroke="midnightblue" points="1002.21,-333.23 997.57,-323.71 995.26,-334.04 1002.21,-333.23"/>
</g>
<!-- Node28 -->
<g id="node27" class="node">
<title>Node28</title>
<g id="a_node27"><a xlink:href="classEthMacTb.html" target="_top" xlink:title=" ">
<polygon fill="white" stroke="black" points="1100,-570.5 1100,-589.5 1165,-589.5 1165,-570.5 1100,-570.5"/>
<text text-anchor="middle" x="1132.5" y="-577.5" font-family="Helvetica,sans-Serif" font-size="10.00">EthMacTb</text>
</a>
</g>
</g>
<!-- Node26&#45;&gt;Node28 -->
<g id="edge36" class="edge">
<title>Node26&#45;&gt;Node28</title>
<path fill="none" stroke="midnightblue" d="M996.01,-333.88C996,-380.39 1002.66,-497.15 1066,-561 1074.92,-569.99 1087.83,-574.79 1099.83,-577.32"/>
<polygon fill="midnightblue" stroke="midnightblue" points="999.52,-333.69 996.13,-323.65 992.52,-333.61 999.52,-333.69"/>
</g>
<!-- Node29 -->
<g id="node28" class="node">
<title>Node29</title>
<g id="a_node28"><a xlink:href="classGigEthGth7.html" target="_top" xlink:title=" ">
<polygon fill="white" stroke="black" points="1096.5,-532.5 1096.5,-551.5 1168.5,-551.5 1168.5,-532.5 1096.5,-532.5"/>
<text text-anchor="middle" x="1132.5" y="-539.5" font-family="Helvetica,sans-Serif" font-size="10.00">GigEthGth7</text>
</a>
</g>
</g>
<!-- Node26&#45;&gt;Node29 -->
<g id="edge37" class="edge">
<title>Node26&#45;&gt;Node29</title>
<path fill="none" stroke="midnightblue" d="M997.21,-333.59C999.77,-374.74 1011.59,-470.66 1066,-523 1074.19,-530.88 1085.45,-535.52 1096.32,-538.25"/>
<polygon fill="midnightblue" stroke="midnightblue" points="1000.7,-333.33 996.7,-323.52 993.71,-333.68 1000.7,-333.33"/>
</g>
<!-- Node31 -->
<g id="node30" class="node">
<title>Node31</title>
<g id="a_node30"><a xlink:href="classGigEthGthUltraScale.html" target="_top" xlink:title=" ">
<polygon fill="white" stroke="black" points="1074.5,-494.5 1074.5,-513.5 1190.5,-513.5 1190.5,-494.5 1074.5,-494.5"/>
<text text-anchor="middle" x="1132.5" y="-501.5" font-family="Helvetica,sans-Serif" font-size="10.00">GigEthGthUltraScale</text>
</a>
</g>
</g>
<!-- Node26&#45;&gt;Node31 -->
<g id="edge39" class="edge">
<title>Node26&#45;&gt;Node31</title>
<path fill="none" stroke="midnightblue" d="M998.92,-333.89C1004.33,-369.48 1020.68,-444.15 1066,-485 1070.31,-488.88 1075.37,-491.98 1080.73,-494.44"/>
<polygon fill="midnightblue" stroke="midnightblue" points="1002.37,-333.22 997.53,-323.8 995.43,-334.18 1002.37,-333.22"/>
</g>
<!-- Node33 -->
<g id="node32" class="node">
<title>Node33</title>
<g id="a_node32"><a xlink:href="classGigEthGtp7.html" target="_top" xlink:title=" ">
<polygon fill="white" stroke="black" points="1096.5,-456.5 1096.5,-475.5 1168.5,-475.5 1168.5,-456.5 1096.5,-456.5"/>
<text text-anchor="middle" x="1132.5" y="-463.5" font-family="Helvetica,sans-Serif" font-size="10.00">GigEthGtp7</text>
</a>
</g>
</g>
<!-- Node26&#45;&gt;Node33 -->
<g id="edge41" class="edge">
<title>Node26&#45;&gt;Node33</title>
<path fill="none" stroke="midnightblue" d="M1001.4,-333.49C1009.71,-362.55 1029.35,-417.01 1066,-447 1074.61,-454.05 1085.73,-458.48 1096.36,-461.27"/>
<polygon fill="midnightblue" stroke="midnightblue" points="1004.74,-332.45 998.75,-323.71 997.98,-334.27 1004.74,-332.45"/>
</g>
<!-- Node35 -->
<g id="node34" class="node">
<title>Node35</title>
<g id="a_node34"><a xlink:href="classGigEthGtx7.html" target="_top" xlink:title=" ">
<polygon fill="white" stroke="black" points="1096.5,-418.5 1096.5,-437.5 1168.5,-437.5 1168.5,-418.5 1096.5,-418.5"/>
<text text-anchor="middle" x="1132.5" y="-425.5" font-family="Helvetica,sans-Serif" font-size="10.00">GigEthGtx7</text>
</a>
</g>
</g>
<!-- Node26&#45;&gt;Node35 -->
<g id="edge43" class="edge">
<title>Node26&#45;&gt;Node35</title>
<path fill="none" stroke="midnightblue" d="M1005.45,-332.85C1016.65,-354.41 1037.82,-389.27 1066,-409 1074.92,-415.25 1085.89,-419.46 1096.28,-422.29"/>
<polygon fill="midnightblue" stroke="midnightblue" points="1008.49,-331.1 1000.9,-323.72 1002.23,-334.23 1008.49,-331.1"/>
</g>
<!-- Node37 -->
<g id="node36" class="node">
<title>Node37</title>
<g id="a_node36"><a xlink:href="classGigEthGtyUltraScale.html" target="_top" xlink:title=" ">
<polygon fill="white" stroke="black" points="1074.5,-380.5 1074.5,-399.5 1190.5,-399.5 1190.5,-380.5 1074.5,-380.5"/>
<text text-anchor="middle" x="1132.5" y="-387.5" font-family="Helvetica,sans-Serif" font-size="10.00">GigEthGtyUltraScale</text>
</a>
</g>
</g>
<!-- Node26&#45;&gt;Node37 -->
<g id="edge45" class="edge">
<title>Node26&#45;&gt;Node37</title>
<path fill="none" stroke="midnightblue" d="M1013.32,-331.15C1026.59,-343.78 1046.1,-360.52 1066,-371 1073.23,-374.81 1081.32,-377.94 1089.28,-380.49"/>
<polygon fill="midnightblue" stroke="midnightblue" points="1015.52,-328.4 1005.93,-323.9 1010.62,-333.4 1015.52,-328.4"/>
</g>
<!-- Node39 -->
<g id="node38" class="node">
<title>Node39</title>
<g id="a_node38"><a xlink:href="classGigEthLvdsUltraScale.html" target="_top" xlink:title=" ">
<polygon fill="white" stroke="black" points="1071.5,-342.5 1071.5,-361.5 1193.5,-361.5 1193.5,-342.5 1071.5,-342.5"/>
<text text-anchor="middle" x="1132.5" y="-349.5" font-family="Helvetica,sans-Serif" font-size="10.00">GigEthLvdsUltraScale</text>
</a>
</g>
</g>
<!-- Node26&#45;&gt;Node39 -->
<g id="edge47" class="edge">
<title>Node26&#45;&gt;Node39</title>
<path fill="none" stroke="midnightblue" d="M1040,-326.24C1058.71,-331.51 1080.26,-337.58 1097.74,-342.5"/>
<polygon fill="midnightblue" stroke="midnightblue" points="1040.79,-322.83 1030.22,-323.49 1038.9,-329.57 1040.79,-322.83"/>
</g>
<!-- Node43 -->
<g id="node40" class="node">
<title>Node43</title>
<g id="a_node40"><a xlink:href="classTenGigEthGth7.html" target="_top" xlink:title=" ">
<polygon fill="white" stroke="black" points="1088,-304.5 1088,-323.5 1177,-323.5 1177,-304.5 1088,-304.5"/>
<text text-anchor="middle" x="1132.5" y="-311.5" font-family="Helvetica,sans-Serif" font-size="10.00">TenGigEthGth7</text>
</a>
</g>
</g>
<!-- Node26&#45;&gt;Node43 -->
<g id="edge49" class="edge">
<title>Node26&#45;&gt;Node43</title>
<path fill="none" stroke="midnightblue" d="M1040.4,-314C1055.58,-314 1072.59,-314 1087.77,-314"/>
<polygon fill="midnightblue" stroke="midnightblue" points="1040.22,-310.5 1030.22,-314 1040.22,-317.5 1040.22,-310.5"/>
</g>
<!-- Node45 -->
<g id="node42" class="node">
<title>Node45</title>
<g id="a_node42"><a xlink:href="classTenGigEthGthUltraScale.html" target="_top" xlink:title=" ">
<polygon fill="white" stroke="red" points="1066,-266.5 1066,-285.5 1199,-285.5 1199,-266.5 1066,-266.5"/>
<text text-anchor="middle" x="1132.5" y="-273.5" font-family="Helvetica,sans-Serif" font-size="10.00">TenGigEthGthUltraScale</text>
</a>
</g>
</g>
<!-- Node26&#45;&gt;Node45 -->
<g id="edge51" class="edge">
<title>Node26&#45;&gt;Node45</title>
<path fill="none" stroke="midnightblue" d="M1040,-301.76C1058.71,-296.49 1080.26,-290.42 1097.74,-285.5"/>
<polygon fill="midnightblue" stroke="midnightblue" points="1038.9,-298.43 1030.22,-304.51 1040.79,-305.17 1038.9,-298.43"/>
</g>
<!-- Node47 -->
<g id="node43" class="node">
<title>Node47</title>
<g id="a_node43"><a xlink:href="classTenGigEthGtx7.html" target="_top" xlink:title=" ">
<polygon fill="white" stroke="red" points="1088,-228.5 1088,-247.5 1177,-247.5 1177,-228.5 1088,-228.5"/>
<text text-anchor="middle" x="1132.5" y="-235.5" font-family="Helvetica,sans-Serif" font-size="10.00">TenGigEthGtx7</text>
</a>
</g>
</g>
<!-- Node26&#45;&gt;Node47 -->
<g id="edge52" class="edge">
<title>Node26&#45;&gt;Node47</title>
<path fill="none" stroke="midnightblue" d="M1013.32,-296.85C1026.59,-284.22 1046.1,-267.48 1066,-257 1073.23,-253.19 1081.32,-250.06 1089.28,-247.51"/>
<polygon fill="midnightblue" stroke="midnightblue" points="1010.62,-294.6 1005.93,-304.1 1015.52,-299.6 1010.62,-294.6"/>
</g>
<!-- Node49 -->
<g id="node44" class="node">
<title>Node49</title>
<g id="a_node44"><a xlink:href="classTenGigEthGtyUltraScale.html" target="_top" xlink:title=" ">
<polygon fill="white" stroke="red" points="1066,-190.5 1066,-209.5 1199,-209.5 1199,-190.5 1066,-190.5"/>
<text text-anchor="middle" x="1132.5" y="-197.5" font-family="Helvetica,sans-Serif" font-size="10.00">TenGigEthGtyUltraScale</text>
</a>
</g>
</g>
<!-- Node26&#45;&gt;Node49 -->
<g id="edge53" class="edge">
<title>Node26&#45;&gt;Node49</title>
<path fill="none" stroke="midnightblue" d="M1005.45,-295.15C1016.65,-273.59 1037.82,-238.73 1066,-219 1071.53,-215.13 1077.84,-212.04 1084.32,-209.58"/>
<polygon fill="midnightblue" stroke="midnightblue" points="1002.23,-293.77 1000.9,-304.28 1008.49,-296.9 1002.23,-293.77"/>
</g>
<!-- Node51 -->
<g id="node45" class="node">
<title>Node51</title>
<g id="a_node45"><a xlink:href="classUdpEngineTb.html" target="_top" xlink:title=" ">
<polygon fill="white" stroke="black" points="1092,-152.5 1092,-171.5 1173,-171.5 1173,-152.5 1092,-152.5"/>
<text text-anchor="middle" x="1132.5" y="-159.5" font-family="Helvetica,sans-Serif" font-size="10.00">UdpEngineTb</text>
</a>
</g>
</g>
<!-- Node26&#45;&gt;Node51 -->
<g id="edge54" class="edge">
<title>Node26&#45;&gt;Node51</title>
<path fill="none" stroke="midnightblue" d="M1001.4,-294.51C1009.71,-265.45 1029.35,-210.99 1066,-181 1073.42,-174.93 1082.71,-170.79 1091.93,-167.98"/>
<polygon fill="midnightblue" stroke="midnightblue" points="997.98,-293.73 998.75,-304.29 1004.74,-295.55 997.98,-293.73"/>
</g>
<!-- Node52 -->
<g id="node46" class="node">
<title>Node52</title>
<g id="a_node46"><a xlink:href="classXauiGth7.html" target="_top" xlink:title=" ">
<polygon fill="white" stroke="red" points="1101.5,-114.5 1101.5,-133.5 1163.5,-133.5 1163.5,-114.5 1101.5,-114.5"/>
<text text-anchor="middle" x="1132.5" y="-121.5" font-family="Helvetica,sans-Serif" font-size="10.00">XauiGth7</text>
</a>
</g>
</g>
<!-- Node26&#45;&gt;Node52 -->
<g id="edge55" class="edge">
<title>Node26&#45;&gt;Node52</title>
<path fill="none" stroke="midnightblue" d="M998.92,-294.11C1004.33,-258.52 1020.68,-183.85 1066,-143 1075.67,-134.28 1089.13,-129.55 1101.33,-126.98"/>
<polygon fill="midnightblue" stroke="midnightblue" points="995.43,-293.82 997.53,-304.2 1002.37,-294.78 995.43,-293.82"/>
</g>
<!-- Node54 -->
<g id="node47" class="node">
<title>Node54</title>
<g id="a_node47"><a xlink:href="classXauiGthUltraScale.html" target="_top" xlink:title=" ">
<polygon fill="white" stroke="red" points="1079.5,-76.5 1079.5,-95.5 1185.5,-95.5 1185.5,-76.5 1079.5,-76.5"/>
<text text-anchor="middle" x="1132.5" y="-83.5" font-family="Helvetica,sans-Serif" font-size="10.00">XauiGthUltraScale</text>
</a>
</g>
</g>
<!-- Node26&#45;&gt;Node54 -->
<g id="edge56" class="edge">
<title>Node26&#45;&gt;Node54</title>
<path fill="none" stroke="midnightblue" d="M997.21,-294.41C999.77,-253.26 1011.59,-157.34 1066,-105 1070.01,-101.14 1074.76,-98.06 1079.83,-95.6"/>
<polygon fill="midnightblue" stroke="midnightblue" points="993.71,-294.32 996.7,-304.48 1000.7,-294.67 993.71,-294.32"/>
</g>
<!-- Node56 -->
<g id="node48" class="node">
<title>Node56</title>
<g id="a_node48"><a xlink:href="classXauiGtx7.html" target="_top" xlink:title=" ">
<polygon fill="white" stroke="red" points="1101.5,-38.5 1101.5,-57.5 1163.5,-57.5 1163.5,-38.5 1101.5,-38.5"/>
<text text-anchor="middle" x="1132.5" y="-45.5" font-family="Helvetica,sans-Serif" font-size="10.00">XauiGtx7</text>
</a>
</g>
</g>
<!-- Node26&#45;&gt;Node56 -->
<g id="edge57" class="edge">
<title>Node26&#45;&gt;Node56</title>
<path fill="none" stroke="midnightblue" d="M996.01,-294.12C996,-247.61 1002.66,-130.85 1066,-67 1075.26,-57.67 1088.8,-52.86 1101.17,-50.4"/>
<polygon fill="midnightblue" stroke="midnightblue" points="992.52,-294.39 996.13,-304.35 999.52,-294.31 992.52,-294.39"/>
</g>
<!-- Node58 -->
<g id="node49" class="node">
<title>Node58</title>
<g id="a_node49"><a xlink:href="classXauiGtyUltraScale.html" target="_top" xlink:title=" ">
<polygon fill="white" stroke="red" points="1079.5,-0.5 1079.5,-19.5 1185.5,-19.5 1185.5,-0.5 1079.5,-0.5"/>
<text text-anchor="middle" x="1132.5" y="-7.5" font-family="Helvetica,sans-Serif" font-size="10.00">XauiGtyUltraScale</text>
</a>
</g>
</g>
<!-- Node26&#45;&gt;Node58 -->
<g id="edge58" class="edge">
<title>Node26&#45;&gt;Node58</title>
<path fill="none" stroke="midnightblue" d="M998.75,-294.22C1005.73,-236.15 1028.85,-67.79 1066,-29 1069.77,-25.07 1074.3,-21.93 1079.19,-19.44"/>
<polygon fill="midnightblue" stroke="midnightblue" points="995.26,-293.96 997.57,-304.29 1002.21,-294.77 995.26,-293.96"/>
</g>
<!-- Node30 -->
<g id="node29" class="node">
<title>Node30</title>
<g id="a_node29"><a xlink:href="classGigEthGth7Wrapper.html" target="_top" xlink:title=" ">
<polygon fill="white" stroke="black" points="1260,-532.5 1260,-551.5 1373,-551.5 1373,-532.5 1260,-532.5"/>
<text text-anchor="middle" x="1316.5" y="-539.5" font-family="Helvetica,sans-Serif" font-size="10.00">GigEthGth7Wrapper</text>
</a>
</g>
</g>
<!-- Node29&#45;&gt;Node30 -->
<g id="edge38" class="edge">
<title>Node29&#45;&gt;Node30</title>
<path fill="none" stroke="midnightblue" d="M1178.7,-542C1203.23,-542 1233.76,-542 1259.75,-542"/>
<polygon fill="midnightblue" stroke="midnightblue" points="1178.59,-538.5 1168.59,-542 1178.59,-545.5 1178.59,-538.5"/>
</g>
<!-- Node32 -->
<g id="node31" class="node">
<title>Node32</title>
<g id="a_node31"><a xlink:href="classGigEthGthUltraScaleWrapper.html" target="_top" xlink:title=" ">
<polygon fill="white" stroke="black" points="1237.5,-494.5 1237.5,-513.5 1395.5,-513.5 1395.5,-494.5 1237.5,-494.5"/>
<text text-anchor="middle" x="1316.5" y="-501.5" font-family="Helvetica,sans-Serif" font-size="10.00">GigEthGthUltraScaleWrapper</text>
</a>
</g>
</g>
<!-- Node31&#45;&gt;Node32 -->
<g id="edge40" class="edge">
<title>Node31&#45;&gt;Node32</title>
<path fill="none" stroke="midnightblue" d="M1200.84,-504C1212.7,-504 1225.14,-504 1237.27,-504"/>
<polygon fill="midnightblue" stroke="midnightblue" points="1200.59,-500.5 1190.59,-504 1200.59,-507.5 1200.59,-500.5"/>
</g>
<!-- Node34 -->
<g id="node33" class="node">
<title>Node34</title>
<g id="a_node33"><a xlink:href="classGigEthGtp7Wrapper.html" target="_top" xlink:title=" ">
<polygon fill="white" stroke="black" points="1260,-456.5 1260,-475.5 1373,-475.5 1373,-456.5 1260,-456.5"/>
<text text-anchor="middle" x="1316.5" y="-463.5" font-family="Helvetica,sans-Serif" font-size="10.00">GigEthGtp7Wrapper</text>
</a>
</g>
</g>
<!-- Node33&#45;&gt;Node34 -->
<g id="edge42" class="edge">
<title>Node33&#45;&gt;Node34</title>
<path fill="none" stroke="midnightblue" d="M1178.7,-466C1203.23,-466 1233.76,-466 1259.75,-466"/>
<polygon fill="midnightblue" stroke="midnightblue" points="1178.59,-462.5 1168.59,-466 1178.59,-469.5 1178.59,-462.5"/>
</g>
<!-- Node36 -->
<g id="node35" class="node">
<title>Node36</title>
<g id="a_node35"><a xlink:href="classGigEthGtx7Wrapper.html" target="_top" xlink:title=" ">
<polygon fill="white" stroke="black" points="1260,-418.5 1260,-437.5 1373,-437.5 1373,-418.5 1260,-418.5"/>
<text text-anchor="middle" x="1316.5" y="-425.5" font-family="Helvetica,sans-Serif" font-size="10.00">GigEthGtx7Wrapper</text>
</a>
</g>
</g>
<!-- Node35&#45;&gt;Node36 -->
<g id="edge44" class="edge">
<title>Node35&#45;&gt;Node36</title>
<path fill="none" stroke="midnightblue" d="M1178.7,-428C1203.23,-428 1233.76,-428 1259.75,-428"/>
<polygon fill="midnightblue" stroke="midnightblue" points="1178.59,-424.5 1168.59,-428 1178.59,-431.5 1178.59,-424.5"/>
</g>
<!-- Node38 -->
<g id="node37" class="node">
<title>Node38</title>
<g id="a_node37"><a xlink:href="classGigEthGtyUltraScaleWrapper.html" target="_top" xlink:title=" ">
<polygon fill="white" stroke="black" points="1237.5,-380.5 1237.5,-399.5 1395.5,-399.5 1395.5,-380.5 1237.5,-380.5"/>
<text text-anchor="middle" x="1316.5" y="-387.5" font-family="Helvetica,sans-Serif" font-size="10.00">GigEthGtyUltraScaleWrapper</text>
</a>
</g>
</g>
<!-- Node37&#45;&gt;Node38 -->
<g id="edge46" class="edge">
<title>Node37&#45;&gt;Node38</title>
<path fill="none" stroke="midnightblue" d="M1200.84,-390C1212.7,-390 1225.14,-390 1237.27,-390"/>
<polygon fill="midnightblue" stroke="midnightblue" points="1200.59,-386.5 1190.59,-390 1200.59,-393.5 1200.59,-386.5"/>
</g>
<!-- Node40 -->
<g id="node39" class="node">
<title>Node40</title>
<g id="a_node39"><a xlink:href="classGigEthLvdsUltraScaleWrapper.html" target="_top" xlink:title=" ">
<polygon fill="white" stroke="red" points="1235,-342.5 1235,-361.5 1398,-361.5 1398,-342.5 1235,-342.5"/>
<text text-anchor="middle" x="1316.5" y="-349.5" font-family="Helvetica,sans-Serif" font-size="10.00">GigEthLvdsUltraScaleWrapper</text>
</a>
</g>
</g>
<!-- Node39&#45;&gt;Node40 -->
<g id="edge48" class="edge">
<title>Node39&#45;&gt;Node40</title>
<path fill="none" stroke="midnightblue" d="M1203.62,-352C1213.79,-352 1224.33,-352 1234.68,-352"/>
<polygon fill="midnightblue" stroke="midnightblue" points="1203.6,-348.5 1193.6,-352 1203.6,-355.5 1203.6,-348.5"/>
</g>
<!-- Node44 -->
<g id="node41" class="node">
<title>Node44</title>
<g id="a_node41"><a xlink:href="classTenGigEthGth7Wrapper.html" target="_top" xlink:title=" ">
<polygon fill="white" stroke="black" points="1251.5,-304.5 1251.5,-323.5 1381.5,-323.5 1381.5,-304.5 1251.5,-304.5"/>
<text text-anchor="middle" x="1316.5" y="-311.5" font-family="Helvetica,sans-Serif" font-size="10.00">TenGigEthGth7Wrapper</text>
</a>
</g>
</g>
<!-- Node43&#45;&gt;Node44 -->
<g id="edge50" class="edge">
<title>Node43&#45;&gt;Node44</title>
<path fill="none" stroke="midnightblue" d="M1187.29,-314C1207.36,-314 1230.33,-314 1251.24,-314"/>
<polygon fill="midnightblue" stroke="midnightblue" points="1187.09,-310.5 1177.09,-314 1187.09,-317.5 1187.09,-310.5"/>
</g>
</g>
</svg>
