<?xml version="1.0" encoding="UTF-8" standalone="no"?>
<!DOCTYPE svg PUBLIC "-//W3C//DTD SVG 1.1//EN"
 "http://www.w3.org/Graphics/SVG/1.1/DTD/svg11.dtd">
<!-- Generated by graphviz version 2.43.0 (0)
 -->
<!-- Title: FifoOutputPipeline Pages: 1 -->
<!--zoomable 1092 -->
<svg id="main" version="1.1" xmlns="http://www.w3.org/2000/svg" xmlns:xlink="http://www.w3.org/1999/xlink" xml:space="preserve" onload="init(evt)">
<style type="text/css"><![CDATA[
.edge:hover path { stroke: red; }
.edge:hover polygon { stroke: red; fill: red; }
]]></style>
<script type="text/javascript"><![CDATA[
var edges = document.getElementsByTagName('g');
if (edges && edges.length) {
  for (var i=0;i<edges.length;i++) {
    if (edges[i].id.substr(0,4)=='edge') {
      edges[i].setAttribute('class','edge');
    }
  }
}
]]></script>
        <defs>
                <circle id="rim" cx="0" cy="0" r="7"/>
                <circle id="rim2" cx="0" cy="0" r="3.5"/>
                <g id="zoomPlus">
                        <use xlink:href="#rim" fill="#404040">
                                <set attributeName="fill" to="#808080" begin="zoomplus.mouseover" end="zoomplus.mouseout"/>
                        </use>
                        <path d="M-4,0h8M0,-4v8" fill="none" stroke="white" stroke-width="1.5" pointer-events="none"/>
                </g>
                <g id="zoomMin">
                        <use xlink:href="#rim" fill="#404040">
                                <set attributeName="fill" to="#808080" begin="zoomminus.mouseover" end="zoomminus.mouseout"/>
                        </use>
                        <path d="M-4,0h8" fill="none" stroke="white" stroke-width="1.5" pointer-events="none"/>
                </g>
                <g id="dirArrow">
                        <path fill="none" stroke="white" stroke-width="1.5" d="M0,-3.0v7 M-2.5,-0.5L0,-3.0L2.5,-0.5"/>
                </g>
               <g id="resetDef">
                       <use xlink:href="#rim2" fill="#404040">
                               <set attributeName="fill" to="#808080" begin="reset.mouseover" end="reset.mouseout"/>
                       </use>
               </g>
        </defs>

<script type="text/javascript">
var viewWidth = 774;
var viewHeight = 1092;
var sectionId = 'dynsection-0';
</script>
<script xlink:href="svgpan.js"/>
<svg id="graph" class="graph">
<g id="viewport">
<title>FifoOutputPipeline</title>
<polygon fill="white" stroke="transparent" points="-4,4 -4,-1088 770,-1088 770,4 -4,4"/>
<!-- Node1 -->
<g id="node1" class="node">
<title>Node1</title>
<g id="a_node1"><a xlink:title=" ">
<polygon fill="#bfbfbf" stroke="black" points="0,-361.5 0,-380.5 107,-380.5 107,-361.5 0,-361.5"/>
<text text-anchor="middle" x="53.5" y="-368.5" font-family="Helvetica,sans-Serif" font-size="10.00">FifoOutputPipeline</text>
</a>
</g>
</g>
<!-- Node2 -->
<g id="node2" class="node">
<title>Node2</title>
<g id="a_node2"><a xlink:href="classAsyncGearbox.html" target="_top" xlink:title=" ">
<polygon fill="white" stroke="black" points="327.5,-684.5 327.5,-703.5 414.5,-703.5 414.5,-684.5 327.5,-684.5"/>
<text text-anchor="middle" x="371" y="-691.5" font-family="Helvetica,sans-Serif" font-size="10.00">AsyncGearbox</text>
</a>
</g>
</g>
<!-- Node1&#45;&gt;Node2 -->
<g id="edge1" class="edge">
<title>Node1&#45;&gt;Node2</title>
<path fill="none" stroke="midnightblue" d="M59.17,-390.35C69.07,-427.97 95.25,-512.01 143,-566 180.27,-608.14 208.38,-595.28 251,-632 269.88,-648.27 265.74,-661.98 287,-675 299.1,-682.41 313.8,-686.93 327.44,-689.7"/>
<polygon fill="midnightblue" stroke="midnightblue" points="62.56,-389.47 56.71,-380.64 55.77,-391.19 62.56,-389.47"/>
</g>
<!-- Node6 -->
<g id="node5" class="node">
<title>Node6</title>
<g id="a_node5"><a xlink:href="classDspAddSub.html" target="_top" xlink:title=" ">
<polygon fill="white" stroke="black" points="161,-361.5 161,-380.5 233,-380.5 233,-361.5 161,-361.5"/>
<text text-anchor="middle" x="197" y="-368.5" font-family="Helvetica,sans-Serif" font-size="10.00">DspAddSub</text>
</a>
</g>
</g>
<!-- Node1&#45;&gt;Node6 -->
<g id="edge4" class="edge">
<title>Node1&#45;&gt;Node6</title>
<path fill="none" stroke="midnightblue" d="M117.41,-371C132.33,-371 147.71,-371 160.87,-371"/>
<polygon fill="midnightblue" stroke="midnightblue" points="117.19,-367.5 107.19,-371 117.19,-374.5 117.19,-367.5"/>
</g>
<!-- Node10 -->
<g id="node9" class="node">
<title>Node10</title>
<g id="a_node9"><a xlink:href="classDspComparator.html" target="_top" xlink:title=" ">
<polygon fill="white" stroke="black" points="150.5,-247.5 150.5,-266.5 243.5,-266.5 243.5,-247.5 150.5,-247.5"/>
<text text-anchor="middle" x="197" y="-254.5" font-family="Helvetica,sans-Serif" font-size="10.00">DspComparator</text>
</a>
</g>
</g>
<!-- Node1&#45;&gt;Node10 -->
<g id="edge8" class="edge">
<title>Node1&#45;&gt;Node10</title>
<path fill="none" stroke="midnightblue" d="M74.62,-354.79C104.49,-330.73 159.66,-286.28 183.97,-266.69"/>
<polygon fill="midnightblue" stroke="midnightblue" points="72.16,-352.28 66.56,-361.28 76.55,-357.73 72.16,-352.28"/>
</g>
<!-- Node35 -->
<g id="node19" class="node">
<title>Node35</title>
<g id="a_node19"><a xlink:href="classDspPreSubMult.html" target="_top" xlink:title=" ">
<polygon fill="white" stroke="black" points="151.5,-171.5 151.5,-190.5 242.5,-190.5 242.5,-171.5 151.5,-171.5"/>
<text text-anchor="middle" x="197" y="-178.5" font-family="Helvetica,sans-Serif" font-size="10.00">DspPreSubMult</text>
</a>
</g>
</g>
<!-- Node1&#45;&gt;Node35 -->
<g id="edge20" class="edge">
<title>Node1&#45;&gt;Node35</title>
<path fill="none" stroke="midnightblue" d="M59.52,-351.32C69.5,-316.06 95.1,-241.9 143,-200 147.41,-196.14 152.67,-193.04 158.13,-190.57"/>
<polygon fill="midnightblue" stroke="midnightblue" points="56.05,-350.74 56.82,-361.31 62.81,-352.57 56.05,-350.74"/>
</g>
<!-- Node36 -->
<g id="node20" class="node">
<title>Node36</title>
<g id="a_node20"><a xlink:href="classDspSquareDiffMult.html" target="_top" xlink:title=" ">
<polygon fill="white" stroke="black" points="143,-133.5 143,-152.5 251,-152.5 251,-133.5 143,-133.5"/>
<text text-anchor="middle" x="197" y="-140.5" font-family="Helvetica,sans-Serif" font-size="10.00">DspSquareDiffMult</text>
</a>
</g>
</g>
<!-- Node1&#45;&gt;Node36 -->
<g id="edge21" class="edge">
<title>Node1&#45;&gt;Node36</title>
<path fill="none" stroke="midnightblue" d="M57.5,-351.01C64.7,-309.88 86.72,-215.19 143,-162 147.12,-158.11 152.09,-155 157.32,-152.53"/>
<polygon fill="midnightblue" stroke="midnightblue" points="54.01,-350.68 55.85,-361.11 60.91,-351.81 54.01,-350.68"/>
</g>
<!-- Node37 -->
<g id="node21" class="node">
<title>Node37</title>
<g id="a_node21"><a xlink:href="classFifoAlteraMf.html" target="_top" xlink:title=" ">
<polygon fill="white" stroke="black" points="158.5,-641.5 158.5,-660.5 235.5,-660.5 235.5,-641.5 158.5,-641.5"/>
<text text-anchor="middle" x="197" y="-648.5" font-family="Helvetica,sans-Serif" font-size="10.00">FifoAlteraMf</text>
</a>
</g>
</g>
<!-- Node1&#45;&gt;Node37 -->
<g id="edge22" class="edge">
<title>Node1&#45;&gt;Node37</title>
<path fill="none" stroke="midnightblue" d="M58.22,-390.93C66.99,-433.94 92.17,-537.29 143,-608 152.96,-621.85 168.48,-633.73 180.16,-641.47"/>
<polygon fill="midnightblue" stroke="midnightblue" points="61.61,-390.05 56.25,-380.91 54.74,-391.4 61.61,-390.05"/>
</g>
<!-- Node146 -->
<g id="node37" class="node">
<title>Node146</title>
<g id="a_node37"><a xlink:href="classFifoAsync.html" target="_top" xlink:title=" ">
<polygon fill="white" stroke="black" points="165,-537.5 165,-556.5 229,-556.5 229,-537.5 165,-537.5"/>
<text text-anchor="middle" x="197" y="-544.5" font-family="Helvetica,sans-Serif" font-size="10.00">FifoAsync</text>
</a>
</g>
</g>
<!-- Node1&#45;&gt;Node146 -->
<g id="edge40" class="edge">
<title>Node1&#45;&gt;Node146</title>
<path fill="none" stroke="midnightblue" d="M68.61,-388.55C98.01,-425.12 165,-508.44 188.04,-537.1"/>
<polygon fill="midnightblue" stroke="midnightblue" points="71.3,-386.31 62.31,-380.71 65.85,-390.7 71.3,-386.31"/>
</g>
<!-- Node248 -->
<g id="node45" class="node">
<title>Node248</title>
<g id="a_node45"><a xlink:href="classFifoSync.html" target="_top" xlink:title=" ">
<polygon fill="white" stroke="black" points="168,-209.5 168,-228.5 226,-228.5 226,-209.5 168,-209.5"/>
<text text-anchor="middle" x="197" y="-216.5" font-family="Helvetica,sans-Serif" font-size="10.00">FifoSync</text>
</a>
</g>
</g>
<!-- Node1&#45;&gt;Node248 -->
<g id="edge53" class="edge">
<title>Node1&#45;&gt;Node248</title>
<path fill="none" stroke="midnightblue" d="M62.32,-352.16C75.11,-323.55 103.12,-269.2 143,-238 150.24,-232.34 159.3,-228.27 167.88,-225.39"/>
<polygon fill="midnightblue" stroke="midnightblue" points="59.06,-350.87 58.31,-361.44 65.49,-353.65 59.06,-350.87"/>
</g>
<!-- Node255 -->
<g id="node49" class="node">
<title>Node255</title>
<g id="a_node49"><a xlink:href="classFifoXpm.html" target="_top" xlink:title=" ">
<polygon fill="white" stroke="black" points="168.5,-717.5 168.5,-736.5 225.5,-736.5 225.5,-717.5 168.5,-717.5"/>
<text text-anchor="middle" x="197" y="-724.5" font-family="Helvetica,sans-Serif" font-size="10.00">FifoXpm</text>
</a>
</g>
</g>
<!-- Node1&#45;&gt;Node255 -->
<g id="edge58" class="edge">
<title>Node1&#45;&gt;Node255</title>
<path fill="none" stroke="midnightblue" d="M57.14,-390.71C64.44,-440.42 88.13,-573.81 143,-670 153.85,-689.01 172.19,-706.79 184.2,-717.28"/>
<polygon fill="midnightblue" stroke="midnightblue" points="60.58,-390.09 55.72,-380.67 53.65,-391.06 60.58,-390.09"/>
</g>
<!-- Node3 -->
<g id="node3" class="node">
<title>Node3</title>
<g id="a_node3"><a xlink:href="classClinkDataShift.html" target="_top" xlink:title=" ">
<polygon fill="white" stroke="red" points="515.5,-494.5 515.5,-513.5 601.5,-513.5 601.5,-494.5 515.5,-494.5"/>
<text text-anchor="middle" x="558.5" y="-501.5" font-family="Helvetica,sans-Serif" font-size="10.00">ClinkDataShift</text>
</a>
</g>
</g>
<!-- Node2&#45;&gt;Node3 -->
<g id="edge2" class="edge">
<title>Node2&#45;&gt;Node3</title>
<path fill="none" stroke="midnightblue" d="M424.66,-691.01C435.88,-688.07 446.8,-683.13 455,-675 504.27,-626.09 443.05,-573.2 491,-523 497.55,-516.14 506.39,-511.71 515.49,-508.85"/>
<polygon fill="midnightblue" stroke="midnightblue" points="423.84,-687.61 414.78,-693.11 425.29,-694.45 423.84,-687.61"/>
</g>
<!-- Node4 -->
<g id="node4" class="node">
<title>Node4</title>
<g id="a_node4"><a xlink:href="classClinkData.html" target="_top" xlink:title=" ">
<polygon fill="white" stroke="red" points="681.5,-646.5 681.5,-665.5 746.5,-665.5 746.5,-646.5 681.5,-646.5"/>
<text text-anchor="middle" x="714" y="-653.5" font-family="Helvetica,sans-Serif" font-size="10.00">ClinkData</text>
</a>
</g>
</g>
<!-- Node3&#45;&gt;Node4 -->
<g id="edge3" class="edge">
<title>Node3&#45;&gt;Node4</title>
<path fill="none" stroke="midnightblue" d="M611.27,-514.73C616.5,-516.98 621.53,-519.71 626,-523 671.54,-556.55 699.93,-621.65 709.44,-646.26"/>
<polygon fill="midnightblue" stroke="midnightblue" points="612.29,-511.38 601.7,-511.16 609.84,-517.94 612.29,-511.38"/>
</g>
<!-- Node7 -->
<g id="node6" class="node">
<title>Node7</title>
<g id="a_node6"><a xlink:href="classAxiStreamDmaV2Desc.html" target="_top" xlink:title=" ">
<polygon fill="white" stroke="black" points="494.5,-323.5 494.5,-342.5 622.5,-342.5 622.5,-323.5 494.5,-323.5"/>
<text text-anchor="middle" x="558.5" y="-330.5" font-family="Helvetica,sans-Serif" font-size="10.00">AxiStreamDmaV2Desc</text>
</a>
</g>
</g>
<!-- Node6&#45;&gt;Node7 -->
<g id="edge5" class="edge">
<title>Node6&#45;&gt;Node7</title>
<path fill="none" stroke="midnightblue" d="M243.22,-366.22C306.65,-359.51 422.35,-347.29 494.28,-339.68"/>
<polygon fill="midnightblue" stroke="midnightblue" points="242.7,-362.76 233.12,-367.29 243.44,-369.72 242.7,-362.76"/>
</g>
<!-- Node9 -->
<g id="node8" class="node">
<title>Node9</title>
<g id="a_node8"><a xlink:href="classDspAddSubTb.html" target="_top" xlink:title=" ">
<polygon fill="white" stroke="black" points="329,-380.5 329,-399.5 413,-399.5 413,-380.5 329,-380.5"/>
<text text-anchor="middle" x="371" y="-387.5" font-family="Helvetica,sans-Serif" font-size="10.00">DspAddSubTb</text>
</a>
</g>
</g>
<!-- Node6&#45;&gt;Node9 -->
<g id="edge7" class="edge">
<title>Node6&#45;&gt;Node9</title>
<path fill="none" stroke="midnightblue" d="M243.38,-376.01C269.87,-378.94 303.03,-382.6 328.77,-385.45"/>
<polygon fill="midnightblue" stroke="midnightblue" points="243.55,-372.51 233.22,-374.89 242.78,-379.47 243.55,-372.51"/>
</g>
<!-- Node8 -->
<g id="node7" class="node">
<title>Node8</title>
<g id="a_node7"><a xlink:href="classAxiStreamDmaV2.html" target="_top" xlink:title=" ">
<polygon fill="white" stroke="black" points="662,-238.5 662,-257.5 766,-257.5 766,-238.5 662,-238.5"/>
<text text-anchor="middle" x="714" y="-245.5" font-family="Helvetica,sans-Serif" font-size="10.00">AxiStreamDmaV2</text>
</a>
</g>
</g>
<!-- Node7&#45;&gt;Node8 -->
<g id="edge6" class="edge">
<title>Node7&#45;&gt;Node8</title>
<path fill="none" stroke="midnightblue" d="M585.85,-318.41C617.21,-301.04 668.69,-272.53 695.52,-257.68"/>
<polygon fill="midnightblue" stroke="midnightblue" points="583.86,-315.51 576.81,-323.41 587.25,-321.63 583.86,-315.51"/>
</g>
<!-- Node10&#45;&gt;Node7 -->
<g id="edge10" class="edge">
<title>Node10&#45;&gt;Node7</title>
<path fill="none" stroke="midnightblue" d="M248.66,-245.62C302.27,-236.12 388.19,-228.26 455,-257 476.37,-266.19 472.7,-280.63 491,-295 505.43,-306.33 523.63,-316.49 537.34,-323.45"/>
<polygon fill="midnightblue" stroke="midnightblue" points="247.91,-242.2 238.71,-247.47 249.18,-249.08 247.91,-242.2"/>
</g>
<!-- Node11 -->
<g id="node10" class="node">
<title>Node11</title>
<g id="a_node10"><a xlink:href="classAxiStreamBatcherEventBuilder.html" target="_top" xlink:title=" ">
<polygon fill="white" stroke="black" points="287.5,-266.5 287.5,-285.5 454.5,-285.5 454.5,-266.5 287.5,-266.5"/>
<text text-anchor="middle" x="371" y="-273.5" font-family="Helvetica,sans-Serif" font-size="10.00">AxiStreamBatcherEventBuilder</text>
</a>
</g>
</g>
<!-- Node10&#45;&gt;Node11 -->
<g id="edge9" class="edge">
<title>Node10&#45;&gt;Node11</title>
<path fill="none" stroke="midnightblue" d="M253.68,-263.15C264.4,-264.33 275.85,-265.6 287.22,-266.86"/>
<polygon fill="midnightblue" stroke="midnightblue" points="253.97,-259.66 243.64,-262.04 253.2,-266.62 253.97,-259.66"/>
</g>
<!-- Node12 -->
<g id="node11" class="node">
<title>Node12</title>
<g id="a_node11"><a xlink:href="classAxiStreamDmaV2Read.html" target="_top" xlink:title=" ">
<polygon fill="white" stroke="black" points="307,-152.5 307,-171.5 435,-171.5 435,-152.5 307,-152.5"/>
<text text-anchor="middle" x="371" y="-159.5" font-family="Helvetica,sans-Serif" font-size="10.00">AxiStreamDmaV2Read</text>
</a>
</g>
</g>
<!-- Node10&#45;&gt;Node12 -->
<g id="edge11" class="edge">
<title>Node10&#45;&gt;Node12</title>
<path fill="none" stroke="midnightblue" d="M243.76,-242.94C246.31,-241.45 248.75,-239.81 251,-238 274.38,-219.26 262.55,-198.32 287,-181 293.03,-176.73 299.87,-173.4 306.98,-170.81"/>
<polygon fill="midnightblue" stroke="midnightblue" points="242.13,-239.84 234.76,-247.45 245.27,-246.1 242.13,-239.84"/>
</g>
<!-- Node13 -->
<g id="node12" class="node">
<title>Node13</title>
<g id="a_node12"><a xlink:href="classAxiStreamPrbsFlowCtrl.html" target="_top" xlink:title=" ">
<polygon fill="white" stroke="black" points="306.5,-114.5 306.5,-133.5 435.5,-133.5 435.5,-114.5 306.5,-114.5"/>
<text text-anchor="middle" x="371" y="-121.5" font-family="Helvetica,sans-Serif" font-size="10.00">AxiStreamPrbsFlowCtrl</text>
</a>
</g>
</g>
<!-- Node10&#45;&gt;Node13 -->
<g id="edge13" class="edge">
<title>Node10&#45;&gt;Node13</title>
<path fill="none" stroke="midnightblue" d="M245.77,-242.37C247.63,-241.04 249.39,-239.59 251,-238 283.21,-206.36 252.96,-172.66 287,-143 292.57,-138.14 299.13,-134.46 306.09,-131.68"/>
<polygon fill="midnightblue" stroke="midnightblue" points="243.93,-239.4 237.08,-247.48 247.48,-245.43 243.93,-239.4"/>
</g>
<!-- Node16 -->
<g id="node15" class="node">
<title>Node16</title>
<g id="a_node15"><a xlink:href="classDspComparatorTb.html" target="_top" xlink:title=" ">
<polygon fill="white" stroke="black" points="318.5,-304.5 318.5,-323.5 423.5,-323.5 423.5,-304.5 318.5,-304.5"/>
<text text-anchor="middle" x="371" y="-311.5" font-family="Helvetica,sans-Serif" font-size="10.00">DspComparatorTb</text>
</a>
</g>
</g>
<!-- Node10&#45;&gt;Node16 -->
<g id="edge16" class="edge">
<title>Node10&#45;&gt;Node16</title>
<path fill="none" stroke="midnightblue" d="M227.2,-271.03C244.33,-278.87 266.56,-288.36 287,-295 298.11,-298.61 310.26,-301.8 321.76,-304.49"/>
<polygon fill="midnightblue" stroke="midnightblue" points="228.3,-267.68 217.76,-266.65 225.35,-274.03 228.3,-267.68"/>
</g>
<!-- Node17 -->
<g id="node16" class="node">
<title>Node17</title>
<g id="a_node16"><a xlink:href="classSyncMinMax.html" target="_top" xlink:title=" ">
<polygon fill="white" stroke="black" points="331.5,-190.5 331.5,-209.5 410.5,-209.5 410.5,-190.5 331.5,-190.5"/>
<text text-anchor="middle" x="371" y="-197.5" font-family="Helvetica,sans-Serif" font-size="10.00">SyncMinMax</text>
</a>
</g>
</g>
<!-- Node10&#45;&gt;Node17 -->
<g id="edge17" class="edge">
<title>Node10&#45;&gt;Node17</title>
<path fill="none" stroke="midnightblue" d="M234.68,-243.99C240.16,-242.01 245.73,-239.97 251,-238 267.08,-231.99 270.74,-229.5 287,-224 302.35,-218.81 319.52,-213.73 334.24,-209.58"/>
<polygon fill="midnightblue" stroke="midnightblue" points="233.24,-240.79 225.01,-247.47 235.61,-247.38 233.24,-240.79"/>
</g>
<!-- Node12&#45;&gt;Node8 -->
<g id="edge12" class="edge">
<title>Node12&#45;&gt;Node8</title>
<path fill="none" stroke="midnightblue" d="M445.4,-156.54C497.48,-155.26 568.12,-158.85 626,-181 658.76,-193.54 689.37,-222.66 704,-238.06"/>
<polygon fill="midnightblue" stroke="midnightblue" points="445.13,-153.05 435.25,-156.86 445.35,-160.05 445.13,-153.05"/>
</g>
<!-- Node14 -->
<g id="node13" class="node">
<title>Node14</title>
<g id="a_node13"><a xlink:href="classEthMacPauseTb.html" target="_top" xlink:title=" ">
<polygon fill="white" stroke="red" points="512,-76.5 512,-95.5 605,-95.5 605,-76.5 512,-76.5"/>
<text text-anchor="middle" x="558.5" y="-83.5" font-family="Helvetica,sans-Serif" font-size="10.00">EthMacPauseTb</text>
</a>
</g>
</g>
<!-- Node13&#45;&gt;Node14 -->
<g id="edge14" class="edge">
<title>Node13&#45;&gt;Node14</title>
<path fill="none" stroke="midnightblue" d="M428.79,-112.37C455.48,-106.9 486.89,-100.47 511.99,-95.32"/>
<polygon fill="midnightblue" stroke="midnightblue" points="427.9,-108.98 418.81,-114.41 429.31,-115.83 427.9,-108.98"/>
</g>
<!-- Node15 -->
<g id="node14" class="node">
<title>Node15</title>
<g id="a_node14"><a xlink:href="classSsiFifoTb.html" target="_top" xlink:title=" ">
<polygon fill="white" stroke="red" points="528,-114.5 528,-133.5 589,-133.5 589,-114.5 528,-114.5"/>
<text text-anchor="middle" x="558.5" y="-121.5" font-family="Helvetica,sans-Serif" font-size="10.00">SsiFifoTb</text>
</a>
</g>
</g>
<!-- Node13&#45;&gt;Node15 -->
<g id="edge15" class="edge">
<title>Node13&#45;&gt;Node15</title>
<path fill="none" stroke="midnightblue" d="M445.61,-124C474.34,-124 505.62,-124 527.79,-124"/>
<polygon fill="midnightblue" stroke="midnightblue" points="445.58,-120.5 435.58,-124 445.58,-127.5 445.58,-120.5"/>
</g>
<!-- Node18 -->
<g id="node17" class="node">
<title>Node18</title>
<g id="a_node17"><a xlink:href="classAxiStreamMon.html" target="_top" xlink:title=" ">
<polygon fill="white" stroke="red" points="514,-266.5 514,-285.5 603,-285.5 603,-266.5 514,-266.5"/>
<text text-anchor="middle" x="558.5" y="-273.5" font-family="Helvetica,sans-Serif" font-size="10.00">AxiStreamMon</text>
</a>
</g>
</g>
<!-- Node17&#45;&gt;Node18 -->
<g id="edge18" class="edge">
<title>Node17&#45;&gt;Node18</title>
<path fill="none" stroke="midnightblue" d="M420.4,-212.34C431.88,-215.72 443.99,-219.66 455,-224 486.37,-236.37 520.99,-255.07 540.9,-266.35"/>
<polygon fill="midnightblue" stroke="midnightblue" points="421.09,-208.89 410.52,-209.51 419.17,-215.62 421.09,-208.89"/>
</g>
<!-- Node30 -->
<g id="node18" class="node">
<title>Node30</title>
<g id="a_node18"><a xlink:href="classPgpEthAxiL.html" target="_top" xlink:title=" ">
<polygon fill="white" stroke="red" points="523,-190.5 523,-209.5 594,-209.5 594,-190.5 523,-190.5"/>
<text text-anchor="middle" x="558.5" y="-197.5" font-family="Helvetica,sans-Serif" font-size="10.00">PgpEthAxiL</text>
</a>
</g>
</g>
<!-- Node17&#45;&gt;Node30 -->
<g id="edge19" class="edge">
<title>Node17&#45;&gt;Node30</title>
<path fill="none" stroke="midnightblue" d="M420.94,-200C452.96,-200 494.03,-200 522.73,-200"/>
<polygon fill="midnightblue" stroke="midnightblue" points="420.89,-196.5 410.89,-200 420.89,-203.5 420.89,-196.5"/>
</g>
<!-- Node38 -->
<g id="node22" class="node">
<title>Node38</title>
<g id="a_node22"><a xlink:href="classFifo.html" target="_top" xlink:title=" ">
<polygon fill="white" stroke="black" points="353.5,-722.5 353.5,-741.5 388.5,-741.5 388.5,-722.5 353.5,-722.5"/>
<text text-anchor="middle" x="371" y="-729.5" font-family="Helvetica,sans-Serif" font-size="10.00">Fifo</text>
</a>
</g>
</g>
<!-- Node37&#45;&gt;Node38 -->
<g id="edge23" class="edge">
<title>Node37&#45;&gt;Node38</title>
<path fill="none" stroke="midnightblue" d="M216.74,-667.29C233.91,-681.4 260.61,-701.32 287,-713 308.76,-722.63 335.98,-727.67 353.18,-730.07"/>
<polygon fill="midnightblue" stroke="midnightblue" points="218.59,-664.27 208.68,-660.52 214.08,-669.63 218.59,-664.27"/>
</g>
<!-- Node38&#45;&gt;Node4 -->
<g id="edge26" class="edge">
<title>Node38&#45;&gt;Node4</title>
<path fill="none" stroke="midnightblue" d="M394.81,-747.08C441.1,-775.61 548.27,-831.04 626,-789 676.24,-761.83 702.11,-691.64 710.18,-665.77"/>
<polygon fill="midnightblue" stroke="midnightblue" points="396.46,-743.98 386.14,-741.6 392.73,-749.9 396.46,-743.98"/>
</g>
<!-- Node38&#45;&gt;Node7 -->
<g id="edge24" class="edge">
<title>Node38&#45;&gt;Node7</title>
<path fill="none" stroke="midnightblue" d="M398.91,-733.25C417.38,-732.56 441,-728.33 455,-713 495.23,-668.96 471.6,-503.41 491,-447 505.38,-405.18 535.88,-361.62 550.01,-342.72"/>
<polygon fill="midnightblue" stroke="midnightblue" points="398.72,-729.75 388.74,-733.31 398.76,-736.75 398.72,-729.75"/>
</g>
<!-- Node39 -->
<g id="node23" class="node">
<title>Node39</title>
<g id="a_node23"><a xlink:href="classAxiStreamScatterGather.html" target="_top" xlink:title=" ">
<polygon fill="white" stroke="black" points="491,-722.5 491,-741.5 626,-741.5 626,-722.5 491,-722.5"/>
<text text-anchor="middle" x="558.5" y="-729.5" font-family="Helvetica,sans-Serif" font-size="10.00">AxiStreamScatterGather</text>
</a>
</g>
</g>
<!-- Node38&#45;&gt;Node39 -->
<g id="edge25" class="edge">
<title>Node38&#45;&gt;Node39</title>
<path fill="none" stroke="midnightblue" d="M398.89,-732C422.87,-732 458.98,-732 490.7,-732"/>
<polygon fill="midnightblue" stroke="midnightblue" points="398.79,-728.5 388.79,-732 398.79,-735.5 398.79,-728.5"/>
</g>
<!-- Node40 -->
<g id="node24" class="node">
<title>Node40</title>
<g id="a_node24"><a xlink:href="classEthMacRxImportXgmii.html" target="_top" xlink:title=" ">
<polygon fill="white" stroke="red" points="495.5,-684.5 495.5,-703.5 621.5,-703.5 621.5,-684.5 495.5,-684.5"/>
<text text-anchor="middle" x="558.5" y="-691.5" font-family="Helvetica,sans-Serif" font-size="10.00">EthMacRxImportXgmii</text>
</a>
</g>
</g>
<!-- Node38&#45;&gt;Node40 -->
<g id="edge27" class="edge">
<title>Node38&#45;&gt;Node40</title>
<path fill="none" stroke="midnightblue" d="M398.68,-726.53C427.91,-720.55 475.36,-710.83 510.8,-703.57"/>
<polygon fill="midnightblue" stroke="midnightblue" points="397.88,-723.13 388.79,-728.56 399.29,-729.98 397.88,-723.13"/>
</g>
<!-- Node76 -->
<g id="node25" class="node">
<title>Node76</title>
<g id="a_node25"><a xlink:href="classEthMacTxExportXgmii.html" target="_top" xlink:title=" ">
<polygon fill="white" stroke="red" points="496,-646.5 496,-665.5 621,-665.5 621,-646.5 496,-646.5"/>
<text text-anchor="middle" x="558.5" y="-653.5" font-family="Helvetica,sans-Serif" font-size="10.00">EthMacTxExportXgmii</text>
</a>
</g>
</g>
<!-- Node38&#45;&gt;Node76 -->
<g id="edge28" class="edge">
<title>Node38&#45;&gt;Node76</title>
<path fill="none" stroke="midnightblue" d="M398.97,-729.84C415.96,-727.55 437.83,-722.8 455,-713 475.2,-701.47 471.11,-687.07 491,-675 497.36,-671.14 504.55,-668.03 511.78,-665.54"/>
<polygon fill="midnightblue" stroke="midnightblue" points="398.15,-726.41 388.62,-731.03 398.95,-733.37 398.15,-726.41"/>
</g>
<!-- Node79 -->
<g id="node26" class="node">
<title>Node79</title>
<g id="a_node26"><a xlink:href="classFifoCascade.html" target="_top" xlink:title=" ">
<polygon fill="white" stroke="red" points="520.5,-608.5 520.5,-627.5 596.5,-627.5 596.5,-608.5 520.5,-608.5"/>
<text text-anchor="middle" x="558.5" y="-615.5" font-family="Helvetica,sans-Serif" font-size="10.00">FifoCascade</text>
</a>
</g>
</g>
<!-- Node38&#45;&gt;Node79 -->
<g id="edge29" class="edge">
<title>Node38&#45;&gt;Node79</title>
<path fill="none" stroke="midnightblue" d="M399.03,-731.71C416.67,-730.21 439.25,-725.65 455,-713 484.14,-689.59 462.49,-661.17 491,-637 499.24,-630.01 509.91,-625.59 520.27,-622.79"/>
<polygon fill="midnightblue" stroke="midnightblue" points="398.58,-728.23 388.8,-732.29 398.98,-735.22 398.58,-728.23"/>
</g>
<!-- Node131 -->
<g id="node27" class="node">
<title>Node131</title>
<g id="a_node27"><a xlink:href="classFifoTbSubModule.html" target="_top" xlink:title=" ">
<polygon fill="white" stroke="red" points="508,-570.5 508,-589.5 609,-589.5 609,-570.5 508,-570.5"/>
<text text-anchor="middle" x="558.5" y="-577.5" font-family="Helvetica,sans-Serif" font-size="10.00">FifoTbSubModule</text>
</a>
</g>
</g>
<!-- Node38&#45;&gt;Node131 -->
<g id="edge30" class="edge">
<title>Node38&#45;&gt;Node131</title>
<path fill="none" stroke="midnightblue" d="M398.72,-732.45C416.74,-731.33 439.9,-726.93 455,-713 494.06,-676.98 452.91,-636.05 491,-599 495.82,-594.31 501.71,-590.76 507.98,-588.09"/>
<polygon fill="midnightblue" stroke="midnightblue" points="398.42,-728.96 388.54,-732.78 398.65,-735.95 398.42,-728.96"/>
</g>
<!-- Node133 -->
<g id="node28" class="node">
<title>Node133</title>
<g id="a_node28"><a xlink:href="classFwftCntTbSubModule.html" target="_top" xlink:title=" ">
<polygon fill="white" stroke="red" points="498.5,-532.5 498.5,-551.5 618.5,-551.5 618.5,-532.5 498.5,-532.5"/>
<text text-anchor="middle" x="558.5" y="-539.5" font-family="Helvetica,sans-Serif" font-size="10.00">FwftCntTbSubModule</text>
</a>
</g>
</g>
<!-- Node38&#45;&gt;Node133 -->
<g id="edge31" class="edge">
<title>Node38&#45;&gt;Node133</title>
<path fill="none" stroke="midnightblue" d="M398.79,-732.8C417,-731.87 440.35,-727.54 455,-713 504.27,-664.09 443.05,-611.2 491,-561 494.65,-557.18 499.01,-554.11 503.73,-551.65"/>
<polygon fill="midnightblue" stroke="midnightblue" points="398.69,-729.31 388.77,-733.01 398.84,-736.3 398.69,-729.31"/>
</g>
<!-- Node135 -->
<g id="node29" class="node">
<title>Node135</title>
<g id="a_node29"><a xlink:href="classiq16bTo32b.html" target="_top" xlink:title=" ">
<polygon fill="white" stroke="black" points="522.5,-1064.5 522.5,-1083.5 594.5,-1083.5 594.5,-1064.5 522.5,-1064.5"/>
<text text-anchor="middle" x="558.5" y="-1071.5" font-family="Helvetica,sans-Serif" font-size="10.00">iq16bTo32b</text>
</a>
</g>
</g>
<!-- Node38&#45;&gt;Node135 -->
<g id="edge32" class="edge">
<title>Node38&#45;&gt;Node135</title>
<path fill="none" stroke="midnightblue" d="M373.26,-751.62C377.95,-807.65 399.2,-969.81 491,-1055 499.54,-1062.92 511.15,-1067.57 522.29,-1070.28"/>
<polygon fill="midnightblue" stroke="midnightblue" points="376.75,-751.32 372.51,-741.61 369.77,-751.84 376.75,-751.32"/>
</g>
<!-- Node136 -->
<g id="node30" class="node">
<title>Node136</title>
<g id="a_node30"><a xlink:href="classiq32bTo16b.html" target="_top" xlink:title=" ">
<polygon fill="white" stroke="black" points="522.5,-1026.5 522.5,-1045.5 594.5,-1045.5 594.5,-1026.5 522.5,-1026.5"/>
<text text-anchor="middle" x="558.5" y="-1033.5" font-family="Helvetica,sans-Serif" font-size="10.00">iq32bTo16b</text>
</a>
</g>
</g>
<!-- Node38&#45;&gt;Node136 -->
<g id="edge33" class="edge">
<title>Node38&#45;&gt;Node136</title>
<path fill="none" stroke="midnightblue" d="M374.36,-751.68C381.6,-803.26 408.3,-943.47 491,-1017 499.7,-1024.74 511.36,-1029.34 522.48,-1032.07"/>
<polygon fill="midnightblue" stroke="midnightblue" points="377.8,-751.02 373.03,-741.56 370.86,-751.93 377.8,-751.02"/>
</g>
<!-- Node137 -->
<g id="node31" class="node">
<title>Node137</title>
<g id="a_node31"><a xlink:href="classJesd16bTo32b.html" target="_top" xlink:title=" ">
<polygon fill="white" stroke="black" points="517,-988.5 517,-1007.5 600,-1007.5 600,-988.5 517,-988.5"/>
<text text-anchor="middle" x="558.5" y="-995.5" font-family="Helvetica,sans-Serif" font-size="10.00">Jesd16bTo32b</text>
</a>
</g>
</g>
<!-- Node38&#45;&gt;Node137 -->
<g id="edge34" class="edge">
<title>Node38&#45;&gt;Node137</title>
<path fill="none" stroke="midnightblue" d="M375.72,-751.52C385.64,-798.17 417.18,-916.81 491,-979 498.35,-985.19 507.6,-989.36 516.84,-992.18"/>
<polygon fill="midnightblue" stroke="midnightblue" points="379.11,-750.63 373.69,-741.53 372.25,-752.02 379.11,-750.63"/>
</g>
<!-- Node138 -->
<g id="node32" class="node">
<title>Node138</title>
<g id="a_node32"><a xlink:href="classJesd32bTo16b.html" target="_top" xlink:title=" ">
<polygon fill="white" stroke="black" points="517,-950.5 517,-969.5 600,-969.5 600,-950.5 517,-950.5"/>
<text text-anchor="middle" x="558.5" y="-957.5" font-family="Helvetica,sans-Serif" font-size="10.00">Jesd32bTo16b</text>
</a>
</g>
</g>
<!-- Node38&#45;&gt;Node138 -->
<g id="edge35" class="edge">
<title>Node38&#45;&gt;Node138</title>
<path fill="none" stroke="midnightblue" d="M377.49,-751.28C390.25,-792.56 425.89,-889.86 491,-941 498.46,-946.86 507.65,-950.91 516.79,-953.71"/>
<polygon fill="midnightblue" stroke="midnightblue" points="380.82,-750.22 374.61,-741.63 374.12,-752.22 380.82,-750.22"/>
</g>
<!-- Node139 -->
<g id="node33" class="node">
<title>Node139</title>
<g id="a_node33"><a xlink:href="classJesd32bTo64b.html" target="_top" xlink:title=" ">
<polygon fill="white" stroke="black" points="517,-912.5 517,-931.5 600,-931.5 600,-912.5 517,-912.5"/>
<text text-anchor="middle" x="558.5" y="-919.5" font-family="Helvetica,sans-Serif" font-size="10.00">Jesd32bTo64b</text>
</a>
</g>
</g>
<!-- Node38&#45;&gt;Node139 -->
<g id="edge36" class="edge">
<title>Node38&#45;&gt;Node139</title>
<path fill="none" stroke="midnightblue" d="M379.99,-751.12C395.8,-786.59 434.49,-862.61 491,-903 498.62,-908.45 507.77,-912.34 516.81,-915.12"/>
<polygon fill="midnightblue" stroke="midnightblue" points="383.17,-749.66 375.98,-741.88 376.75,-752.45 383.17,-749.66"/>
</g>
<!-- Node140 -->
<g id="node34" class="node">
<title>Node140</title>
<g id="a_node34"><a xlink:href="classJesd64bTo32b.html" target="_top" xlink:title=" ">
<polygon fill="white" stroke="black" points="517,-874.5 517,-893.5 600,-893.5 600,-874.5 517,-874.5"/>
<text text-anchor="middle" x="558.5" y="-881.5" font-family="Helvetica,sans-Serif" font-size="10.00">Jesd64bTo32b</text>
</a>
</g>
</g>
<!-- Node38&#45;&gt;Node140 -->
<g id="edge37" class="edge">
<title>Node38&#45;&gt;Node140</title>
<path fill="none" stroke="midnightblue" d="M383.42,-750.38C402.27,-779.16 442.64,-834.71 491,-865 498.84,-869.91 507.97,-873.58 516.92,-876.32"/>
<polygon fill="midnightblue" stroke="midnightblue" points="386.22,-748.25 377.88,-741.72 380.32,-752.03 386.22,-748.25"/>
</g>
<!-- Node141 -->
<g id="node35" class="node">
<title>Node141</title>
<g id="a_node35"><a xlink:href="classSlvDelayFifo.html" target="_top" xlink:title=" ">
<polygon fill="white" stroke="black" points="519.5,-836.5 519.5,-855.5 597.5,-855.5 597.5,-836.5 519.5,-836.5"/>
<text text-anchor="middle" x="558.5" y="-843.5" font-family="Helvetica,sans-Serif" font-size="10.00">SlvDelayFifo</text>
</a>
</g>
</g>
<!-- Node38&#45;&gt;Node141 -->
<g id="edge38" class="edge">
<title>Node38&#45;&gt;Node141</title>
<path fill="none" stroke="midnightblue" d="M390.06,-748.45C412.4,-768.11 452.23,-800.98 491,-822 501.57,-827.73 513.8,-832.6 524.86,-836.41"/>
<polygon fill="midnightblue" stroke="midnightblue" points="392.19,-745.66 382.4,-741.62 387.53,-750.88 392.19,-745.66"/>
</g>
<!-- Node142 -->
<g id="node36" class="node">
<title>Node142</title>
<g id="a_node36"><a xlink:href="classUartWrapper.html" target="_top" xlink:title=" ">
<polygon fill="white" stroke="red" points="519,-760.5 519,-779.5 598,-779.5 598,-760.5 519,-760.5"/>
<text text-anchor="middle" x="558.5" y="-767.5" font-family="Helvetica,sans-Serif" font-size="10.00">UartWrapper</text>
</a>
</g>
</g>
<!-- Node38&#45;&gt;Node142 -->
<g id="edge39" class="edge">
<title>Node38&#45;&gt;Node142</title>
<path fill="none" stroke="midnightblue" d="M398.6,-737.45C430.08,-743.9 482.75,-754.69 518.76,-762.06"/>
<polygon fill="midnightblue" stroke="midnightblue" points="399.29,-734.02 388.79,-735.44 397.88,-740.87 399.29,-734.02"/>
</g>
<!-- Node146&#45;&gt;Node2 -->
<g id="edge41" class="edge">
<title>Node146&#45;&gt;Node2</title>
<path fill="none" stroke="midnightblue" d="M228.92,-561.6C236.94,-566.54 245,-572.7 251,-580 279.67,-614.88 252.96,-645.34 287,-675 298.03,-684.61 312.95,-689.63 327.09,-692.18"/>
<polygon fill="midnightblue" stroke="midnightblue" points="230.41,-558.43 219.99,-556.54 226.96,-564.52 230.41,-558.43"/>
</g>
<!-- Node146&#45;&gt;Node38 -->
<g id="edge43" class="edge">
<title>Node146&#45;&gt;Node38</title>
<path fill="none" stroke="midnightblue" d="M210.28,-565.05C221.55,-581.97 238.34,-608.15 251,-632 269.47,-666.8 256.59,-687.96 287,-713 305.94,-728.6 335.22,-731.96 353.46,-732.39"/>
<polygon fill="midnightblue" stroke="midnightblue" points="213.14,-563.03 204.66,-556.68 207.33,-566.93 213.14,-563.03"/>
</g>
<!-- Node147 -->
<g id="node38" class="node">
<title>Node147</title>
<g id="a_node38"><a xlink:href="classAxiLiteAsync.html" target="_top" xlink:title=" ">
<polygon fill="white" stroke="red" points="331,-418.5 331,-437.5 411,-437.5 411,-418.5 331,-418.5"/>
<text text-anchor="middle" x="371" y="-425.5" font-family="Helvetica,sans-Serif" font-size="10.00">AxiLiteAsync</text>
</a>
</g>
</g>
<!-- Node146&#45;&gt;Node147 -->
<g id="edge42" class="edge">
<title>Node146&#45;&gt;Node147</title>
<path fill="none" stroke="midnightblue" d="M210.12,-529.07C225.53,-507.64 254.12,-472.15 287,-452 300.17,-443.93 316.18,-438.47 330.61,-434.82"/>
<polygon fill="midnightblue" stroke="midnightblue" points="207.22,-527.11 204.35,-537.31 212.96,-531.13 207.22,-527.11"/>
</g>
<!-- Node204 -->
<g id="node39" class="node">
<title>Node204</title>
<g id="a_node39"><a xlink:href="classGearboxTb.html" target="_top" xlink:title=" ">
<polygon fill="white" stroke="black" points="336,-646.5 336,-665.5 406,-665.5 406,-646.5 336,-646.5"/>
<text text-anchor="middle" x="371" y="-653.5" font-family="Helvetica,sans-Serif" font-size="10.00">GearboxTb</text>
</a>
</g>
</g>
<!-- Node146&#45;&gt;Node204 -->
<g id="edge44" class="edge">
<title>Node146&#45;&gt;Node204</title>
<path fill="none" stroke="midnightblue" d="M226.73,-561.66C235.13,-566.76 243.94,-572.99 251,-580 272.25,-601.12 262.55,-619.68 287,-637 301.11,-647 319.66,-651.82 335.65,-654.12"/>
<polygon fill="midnightblue" stroke="midnightblue" points="228.3,-558.52 217.88,-556.58 224.81,-564.59 228.3,-558.52"/>
</g>
<!-- Node205 -->
<g id="node40" class="node">
<title>Node205</title>
<g id="a_node40"><a xlink:href="classPgp3Gtp7RxGearbox.html" target="_top" xlink:title=" ">
<polygon fill="white" stroke="red" points="312,-608.5 312,-627.5 430,-627.5 430,-608.5 312,-608.5"/>
<text text-anchor="middle" x="371" y="-615.5" font-family="Helvetica,sans-Serif" font-size="10.00">Pgp3Gtp7RxGearbox</text>
</a>
</g>
</g>
<!-- Node146&#45;&gt;Node205 -->
<g id="edge45" class="edge">
<title>Node146&#45;&gt;Node205</title>
<path fill="none" stroke="midnightblue" d="M221.93,-562.09C243.57,-575.53 273.97,-593.84 287,-599 296.48,-602.75 306.89,-605.86 317.02,-608.41"/>
<polygon fill="midnightblue" stroke="midnightblue" points="223.61,-559.01 213.27,-556.68 219.9,-564.95 223.61,-559.01"/>
</g>
<!-- Node206 -->
<g id="node41" class="node">
<title>Node206</title>
<g id="a_node41"><a xlink:href="classPgp3Gtp7TxGearbox.html" target="_top" xlink:title=" ">
<polygon fill="white" stroke="red" points="312.5,-570.5 312.5,-589.5 429.5,-589.5 429.5,-570.5 312.5,-570.5"/>
<text text-anchor="middle" x="371" y="-577.5" font-family="Helvetica,sans-Serif" font-size="10.00">Pgp3Gtp7TxGearbox</text>
</a>
</g>
</g>
<!-- Node146&#45;&gt;Node206 -->
<g id="edge46" class="edge">
<title>Node146&#45;&gt;Node206</title>
<path fill="none" stroke="midnightblue" d="M239.14,-554.89C263.48,-559.56 294.47,-565.51 320.19,-570.44"/>
<polygon fill="midnightblue" stroke="midnightblue" points="239.63,-551.42 229.15,-552.98 238.31,-558.3 239.63,-551.42"/>
</g>
<!-- Node207 -->
<g id="node42" class="node">
<title>Node207</title>
<g id="a_node42"><a xlink:href="classPgp3RxEb.html" target="_top" xlink:title=" ">
<polygon fill="white" stroke="red" points="526,-456.5 526,-475.5 591,-475.5 591,-456.5 526,-456.5"/>
<text text-anchor="middle" x="558.5" y="-463.5" font-family="Helvetica,sans-Serif" font-size="10.00">Pgp3RxEb</text>
</a>
</g>
</g>
<!-- Node146&#45;&gt;Node207 -->
<g id="edge47" class="edge">
<title>Node146&#45;&gt;Node207</title>
<path fill="none" stroke="midnightblue" d="M215.78,-530.19C232.66,-515.39 259.48,-494.71 287,-485 369.35,-455.94 474.39,-459.02 525.99,-462.92"/>
<polygon fill="midnightblue" stroke="midnightblue" points="212.98,-528.01 207.91,-537.31 217.67,-533.2 212.98,-528.01"/>
</g>
<!-- Node210 -->
<g id="node43" class="node">
<title>Node210</title>
<g id="a_node43"><a xlink:href="classSynchronizerFifo.html" target="_top" xlink:title=" ">
<polygon fill="white" stroke="red" points="322,-532.5 322,-551.5 420,-551.5 420,-532.5 322,-532.5"/>
<text text-anchor="middle" x="371" y="-539.5" font-family="Helvetica,sans-Serif" font-size="10.00">SynchronizerFifo</text>
</a>
</g>
</g>
<!-- Node146&#45;&gt;Node210 -->
<g id="edge48" class="edge">
<title>Node146&#45;&gt;Node210</title>
<path fill="none" stroke="midnightblue" d="M239.34,-545.8C264.18,-545.08 295.9,-544.15 321.87,-543.4"/>
<polygon fill="midnightblue" stroke="midnightblue" points="239.04,-542.31 229.15,-546.09 239.25,-549.3 239.04,-542.31"/>
</g>
<!-- Node241 -->
<g id="node44" class="node">
<title>Node241</title>
<g id="a_node44"><a xlink:href="classSynchronizerOneShotCntVector.html" target="_top" xlink:title=" ">
<polygon fill="white" stroke="red" points="287,-494.5 287,-513.5 455,-513.5 455,-494.5 287,-494.5"/>
<text text-anchor="middle" x="371" y="-501.5" font-family="Helvetica,sans-Serif" font-size="10.00">SynchronizerOneShotCntVector</text>
</a>
</g>
</g>
<!-- Node146&#45;&gt;Node241 -->
<g id="edge52" class="edge">
<title>Node146&#45;&gt;Node241</title>
<path fill="none" stroke="midnightblue" d="M239.23,-535.53C254.24,-531.45 271.36,-526.9 287,-523 299.91,-519.78 314,-516.48 326.85,-513.55"/>
<polygon fill="midnightblue" stroke="midnightblue" points="237.95,-532.25 229.23,-538.26 239.8,-539 237.95,-532.25"/>
</g>
<!-- Node210&#45;&gt;Node3 -->
<g id="edge50" class="edge">
<title>Node210&#45;&gt;Node3</title>
<path fill="none" stroke="midnightblue" d="M428.84,-530.36C456.77,-524.63 489.84,-517.86 515.46,-512.61"/>
<polygon fill="midnightblue" stroke="midnightblue" points="427.9,-526.98 418.81,-532.41 429.31,-533.83 427.9,-526.98"/>
</g>
<!-- Node210&#45;&gt;Node18 -->
<g id="edge49" class="edge">
<title>Node210&#45;&gt;Node18</title>
<path fill="none" stroke="midnightblue" d="M430.19,-537.85C439.51,-534.79 448.29,-530.09 455,-523 519.81,-454.56 436.92,-391.2 491,-314 500.23,-300.82 515.59,-291.61 529.23,-285.56"/>
<polygon fill="midnightblue" stroke="midnightblue" points="429.09,-534.52 420.33,-540.49 430.9,-541.28 429.09,-534.52"/>
</g>
<!-- Node210&#45;&gt;Node207 -->
<g id="edge51" class="edge">
<title>Node210&#45;&gt;Node207</title>
<path fill="none" stroke="midnightblue" d="M430.1,-533.32C438.77,-530.73 447.35,-527.37 455,-523 475.2,-511.47 471.11,-497.07 491,-485 501.57,-478.58 514.4,-474.26 525.96,-471.37"/>
<polygon fill="midnightblue" stroke="midnightblue" points="429.08,-529.97 420.32,-535.93 430.88,-536.73 429.08,-529.97"/>
</g>
<!-- Node248&#45;&gt;Node38 -->
<g id="edge56" class="edge">
<title>Node248&#45;&gt;Node38</title>
<path fill="none" stroke="midnightblue" d="M235.71,-226.35C241.63,-229.09 247.07,-232.85 251,-238 315.16,-322.2 217.94,-632.77 287,-713 303.3,-731.93 334.25,-734.15 353.4,-733.47"/>
<polygon fill="midnightblue" stroke="midnightblue" points="236.77,-223.01 226.18,-222.83 234.35,-229.57 236.77,-223.01"/>
</g>
<!-- Node249 -->
<g id="node46" class="node">
<title>Node249</title>
<g id="a_node46"><a xlink:href="classAxiStreamDmaWrite.html" target="_top" xlink:title=" ">
<polygon fill="white" stroke="red" points="312.5,-76.5 312.5,-95.5 429.5,-95.5 429.5,-76.5 312.5,-76.5"/>
<text text-anchor="middle" x="371" y="-83.5" font-family="Helvetica,sans-Serif" font-size="10.00">AxiStreamDmaWrite</text>
</a>
</g>
</g>
<!-- Node248&#45;&gt;Node249 -->
<g id="edge54" class="edge">
<title>Node248&#45;&gt;Node249</title>
<path fill="none" stroke="midnightblue" d="M235.69,-210.14C241.31,-207.57 246.67,-204.26 251,-200 283.21,-168.36 252.96,-134.66 287,-105 294.24,-98.69 303.16,-94.36 312.43,-91.41"/>
<polygon fill="midnightblue" stroke="midnightblue" points="234.2,-206.96 226.11,-213.81 236.7,-213.5 234.2,-206.96"/>
</g>
<!-- Node101 -->
<g id="node47" class="node">
<title>Node101</title>
<g id="a_node47"><a xlink:href="classEthMacTxCsum.html" target="_top" xlink:title=" ">
<polygon fill="white" stroke="red" points="325,-38.5 325,-57.5 417,-57.5 417,-38.5 325,-38.5"/>
<text text-anchor="middle" x="371" y="-45.5" font-family="Helvetica,sans-Serif" font-size="10.00">EthMacTxCsum</text>
</a>
</g>
</g>
<!-- Node248&#45;&gt;Node101 -->
<g id="edge55" class="edge">
<title>Node248&#45;&gt;Node101</title>
<path fill="none" stroke="midnightblue" d="M235.89,-210.57C241.53,-207.95 246.84,-204.51 251,-200 292.54,-155 242.86,-109.44 287,-67 297.12,-57.27 311.16,-52.14 324.82,-49.54"/>
<polygon fill="midnightblue" stroke="midnightblue" points="234.31,-207.43 226.22,-214.26 236.81,-213.97 234.31,-207.43"/>
</g>
<!-- Node252 -->
<g id="node48" class="node">
<title>Node252</title>
<g id="a_node48"><a xlink:href="classJesdRxLane.html" target="_top" xlink:title=" ">
<polygon fill="white" stroke="red" points="334.5,-0.5 334.5,-19.5 407.5,-19.5 407.5,-0.5 334.5,-0.5"/>
<text text-anchor="middle" x="371" y="-7.5" font-family="Helvetica,sans-Serif" font-size="10.00">JesdRxLane</text>
</a>
</g>
</g>
<!-- Node248&#45;&gt;Node252 -->
<g id="edge57" class="edge">
<title>Node248&#45;&gt;Node252</title>
<path fill="none" stroke="midnightblue" d="M235.94,-210.85C241.62,-208.2 246.93,-204.67 251,-200 302.04,-141.46 232.57,-84.4 287,-29 299.23,-16.56 317.82,-11.55 334.3,-9.76"/>
<polygon fill="midnightblue" stroke="midnightblue" points="234.28,-207.74 226.18,-214.56 236.77,-214.28 234.28,-207.74"/>
</g>
<!-- Node255&#45;&gt;Node38 -->
<g id="edge59" class="edge">
<title>Node255&#45;&gt;Node38</title>
<path fill="none" stroke="midnightblue" d="M235.95,-728.1C272.61,-729.17 326.42,-730.73 353.36,-731.52"/>
<polygon fill="midnightblue" stroke="midnightblue" points="235.73,-724.6 225.63,-727.8 235.53,-731.59 235.73,-724.6"/>
</g>
</g>
</svg>
        <g id="navigator" transform="translate(0 0)" fill="#404254">
                <rect fill="#f2f5e9" fill-opacity="0.5" stroke="#606060" stroke-width=".5" x="0" y="0" width="60" height="60"/>
                <use id="zoomplus" xlink:href="#zoomPlus" x="17" y="9" onmousedown="handleZoom(evt,'in')"/>
                <use id="zoomminus" xlink:href="#zoomMin" x="42" y="9" onmousedown="handleZoom(evt,'out')"/>
                <use id="reset" xlink:href="#resetDef" x="30" y="36" onmousedown="handleReset()"/>
                <g id="arrowUp" xlink:href="#dirArrow" transform="translate(30 24)" onmousedown="handlePan(0,-1)">
                  <use xlink:href="#rim" fill="#404040">
                        <set attributeName="fill" to="#808080" begin="arrowUp.mouseover" end="arrowUp.mouseout"/>
                  </use>
                  <path fill="none" stroke="white" stroke-width="1.5" d="M0,-3.0v7 M-2.5,-0.5L0,-3.0L2.5,-0.5"/>
                </g>
                <g id="arrowRight" xlink:href="#dirArrow" transform="rotate(90) translate(36 -43)" onmousedown="handlePan(1,0)">
                  <use xlink:href="#rim" fill="#404040">
                        <set attributeName="fill" to="#808080" begin="arrowRight.mouseover" end="arrowRight.mouseout"/>
                  </use>
                  <path fill="none" stroke="white" stroke-width="1.5" d="M0,-3.0v7 M-2.5,-0.5L0,-3.0L2.5,-0.5"/>
                </g>
                <g id="arrowDown" xlink:href="#dirArrow" transform="rotate(180) translate(-30 -48)" onmousedown="handlePan(0,1)">
                  <use xlink:href="#rim" fill="#404040">
                        <set attributeName="fill" to="#808080" begin="arrowDown.mouseover" end="arrowDown.mouseout"/>
                  </use>
                  <path fill="none" stroke="white" stroke-width="1.5" d="M0,-3.0v7 M-2.5,-0.5L0,-3.0L2.5,-0.5"/>
                </g>
                <g id="arrowLeft" xlink:href="#dirArrow" transform="rotate(270) translate(-36 17)" onmousedown="handlePan(-1,0)">
                  <use xlink:href="#rim" fill="#404040">
                        <set attributeName="fill" to="#808080" begin="arrowLeft.mouseover" end="arrowLeft.mouseout"/>
                  </use>
                  <path fill="none" stroke="white" stroke-width="1.5" d="M0,-3.0v7 M-2.5,-0.5L0,-3.0L2.5,-0.5"/>
                </g>
        </g>
        <svg viewBox="0 0 15 15" width="100%" height="30px" preserveAspectRatio="xMaxYMin meet">
         <g id="arrow_out" transform="scale(0.3 0.3)">
          <a xlink:href="classFifoOutputPipeline__inherit__graph_org.svg" target="_base">
           <rect id="button" ry="5" rx="5" y="6" x="6" height="38" width="38"
                fill="#f2f5e9" fill-opacity="0.5" stroke="#606060" stroke-width="1.0"/>
           <path id="arrow"
             d="M 11.500037,31.436501 C 11.940474,20.09759 22.043105,11.32322 32.158766,21.979434 L 37.068811,17.246167 C 37.068811,17.246167 37.088388,32 37.088388,32 L 22.160133,31.978069 C 22.160133,31.978069 26.997745,27.140456 26.997745,27.140456 C 18.528582,18.264221 13.291696,25.230495 11.500037,31.436501 z"
             style="fill:#404040;"/>
          </a>
         </g>
        </svg>
</svg>
