<?xml version="1.0" encoding="UTF-8" standalone="no"?>
<!DOCTYPE svg PUBLIC "-//W3C//DTD SVG 1.1//EN"
 "http://www.w3.org/Graphics/SVG/1.1/DTD/svg11.dtd">
<!-- Generated by graphviz version 2.43.0 (0)
 -->
<!-- Title: AxiRssiCoreTb Pages: 1 -->
<svg width="1704pt" height="730pt"
 viewBox="0.00 0.00 1704.00 730.00" xmlns="http://www.w3.org/2000/svg" xmlns:xlink="http://www.w3.org/1999/xlink">
<g id="graph0" class="graph" transform="scale(1 1) rotate(0) translate(4 726)">
<title>AxiRssiCoreTb</title>
<polygon fill="white" stroke="transparent" points="-4,4 -4,-726 1700,-726 1700,4 -4,4"/>
<!-- Node1 -->
<g id="node1" class="node">
<title>Node1</title>
<g id="a_node1"><a xlink:title=" ">
<polygon fill="#bfbfbf" stroke="black" points="1609,-104.5 1609,-123.5 1696,-123.5 1696,-104.5 1609,-104.5"/>
<text text-anchor="middle" x="1652.5" y="-111.5" font-family="Helvetica,sans-Serif" font-size="10.00">AxiRssiCoreTb</text>
</a>
</g>
</g>
<!-- Node2 -->
<g id="node2" class="node">
<title>Node2</title>
<g id="a_node2"><a xlink:href="classClkRst.html" target="_top" xlink:title=" ">
<polygon fill="white" stroke="black" points="1484,-541.5 1484,-560.5 1532,-560.5 1532,-541.5 1484,-541.5"/>
<text text-anchor="middle" x="1508" y="-548.5" font-family="Helvetica,sans-Serif" font-size="10.00">ClkRst</text>
</a>
</g>
</g>
<!-- Node2&#45;&gt;Node1 -->
<g id="edge1" class="edge">
<title>Node2&#45;&gt;Node1</title>
<path fill="none" stroke="midnightblue" d="M1542.33,-548.1C1553.53,-545.49 1565.15,-540.7 1573,-532 1630,-468.81 1648,-180.54 1651.02,-123.74"/>
<polygon fill="midnightblue" stroke="midnightblue" points="1541.49,-544.7 1532.29,-549.94 1542.75,-551.58 1541.49,-544.7"/>
</g>
<!-- Node3 -->
<g id="node3" class="node">
<title>Node3</title>
<g id="a_node3"><a xlink:href="classSsiPrbsTx.html" target="_top" xlink:title=" ">
<polygon fill="white" stroke="black" points="1476,-104.5 1476,-123.5 1540,-123.5 1540,-104.5 1476,-104.5"/>
<text text-anchor="middle" x="1508" y="-111.5" font-family="Helvetica,sans-Serif" font-size="10.00">SsiPrbsTx</text>
</a>
</g>
</g>
<!-- Node3&#45;&gt;Node1 -->
<g id="edge2" class="edge">
<title>Node3&#45;&gt;Node1</title>
<path fill="none" stroke="midnightblue" d="M1550.4,-114C1568.79,-114 1590.42,-114 1608.95,-114"/>
<polygon fill="midnightblue" stroke="midnightblue" points="1550.27,-110.5 1540.27,-114 1550.27,-117.5 1550.27,-110.5"/>
</g>
<!-- Node4 -->
<g id="node4" class="node">
<title>Node4</title>
<g id="a_node4"><a xlink:href="classAxiStreamFifoV2.html" target="_top" xlink:title=" ">
<polygon fill="white" stroke="black" points="812.5,-180.5 812.5,-199.5 910.5,-199.5 910.5,-180.5 812.5,-180.5"/>
<text text-anchor="middle" x="861.5" y="-187.5" font-family="Helvetica,sans-Serif" font-size="10.00">AxiStreamFifoV2</text>
</a>
</g>
</g>
<!-- Node4&#45;&gt;Node3 -->
<g id="edge3" class="edge">
<title>Node4&#45;&gt;Node3</title>
<path fill="none" stroke="midnightblue" d="M881.91,-173.64C899.48,-159.94 926.71,-141.31 954,-133 1144.91,-74.84 1390.15,-98.56 1475.82,-109.57"/>
<polygon fill="midnightblue" stroke="midnightblue" points="879.26,-171.29 873.66,-180.28 883.64,-176.74 879.26,-171.29"/>
</g>
<!-- Node53 -->
<g id="node39" class="node">
<title>Node53</title>
<g id="a_node39"><a xlink:href="classAxiStreamDmaWrite.html" target="_top" xlink:title=" ">
<polygon fill="white" stroke="red" points="957.5,-218.5 957.5,-237.5 1074.5,-237.5 1074.5,-218.5 957.5,-218.5"/>
<text text-anchor="middle" x="1016" y="-225.5" font-family="Helvetica,sans-Serif" font-size="10.00">AxiStreamDmaWrite</text>
</a>
</g>
</g>
<!-- Node4&#45;&gt;Node53 -->
<g id="edge48" class="edge">
<title>Node4&#45;&gt;Node53</title>
<path fill="none" stroke="midnightblue" d="M910.82,-202.04C932.12,-207.35 956.8,-213.5 976.79,-218.48"/>
<polygon fill="midnightblue" stroke="midnightblue" points="911.53,-198.61 900.98,-199.59 909.84,-205.4 911.53,-198.61"/>
</g>
<!-- Node62 -->
<g id="node47" class="node">
<title>Node62</title>
<g id="a_node47"><a xlink:href="classSsiPrbsRx.html" target="_top" xlink:title=" ">
<polygon fill="white" stroke="black" points="983.5,-66.5 983.5,-85.5 1048.5,-85.5 1048.5,-66.5 983.5,-66.5"/>
<text text-anchor="middle" x="1016" y="-73.5" font-family="Helvetica,sans-Serif" font-size="10.00">SsiPrbsRx</text>
</a>
</g>
</g>
<!-- Node4&#45;&gt;Node62 -->
<g id="edge66" class="edge">
<title>Node4&#45;&gt;Node62</title>
<path fill="none" stroke="midnightblue" d="M878.78,-173.28C902.71,-148.81 945.48,-105.53 954,-100 963.07,-94.11 973.81,-89.29 983.73,-85.55"/>
<polygon fill="midnightblue" stroke="midnightblue" points="876.22,-170.89 871.74,-180.49 881.23,-175.78 876.22,-170.89"/>
</g>
<!-- Node5 -->
<g id="node5" class="node">
<title>Node5</title>
<g id="a_node5"><a xlink:href="classAxiStreamGearbox.html" target="_top" xlink:title=" ">
<polygon fill="white" stroke="black" points="624,-294.5 624,-313.5 746,-313.5 746,-294.5 624,-294.5"/>
<text text-anchor="middle" x="685" y="-301.5" font-family="Helvetica,sans-Serif" font-size="10.00">AxiStreamGearbox(2)</text>
</a>
</g>
</g>
<!-- Node5&#45;&gt;Node4 -->
<g id="edge4" class="edge">
<title>Node5&#45;&gt;Node4</title>
<path fill="none" stroke="midnightblue" d="M743.98,-291.26C752.67,-288.22 761.29,-284.51 769,-280 806.12,-258.29 839.28,-218.16 853.35,-199.72"/>
<polygon fill="midnightblue" stroke="midnightblue" points="742.64,-288.02 734.19,-294.42 744.79,-294.68 742.64,-288.02"/>
</g>
<!-- Node6 -->
<g id="node6" class="node">
<title>Node6</title>
<g id="a_node6"><a xlink:href="classAxiStreamResize.html" target="_top" xlink:title=" ">
<polygon fill="white" stroke="black" points="458.5,-332.5 458.5,-351.5 558.5,-351.5 558.5,-332.5 458.5,-332.5"/>
<text text-anchor="middle" x="508.5" y="-339.5" font-family="Helvetica,sans-Serif" font-size="10.00">AxiStreamResize</text>
</a>
</g>
</g>
<!-- Node6&#45;&gt;Node5 -->
<g id="edge5" class="edge">
<title>Node6&#45;&gt;Node5</title>
<path fill="none" stroke="midnightblue" d="M563.47,-330.25C588.14,-324.87 616.99,-318.59 640.28,-313.52"/>
<polygon fill="midnightblue" stroke="midnightblue" points="562.56,-326.86 553.53,-332.41 564.05,-333.7 562.56,-326.86"/>
</g>
<!-- Node7 -->
<g id="node7" class="node">
<title>Node7</title>
<g id="a_node7"><a xlink:href="classAxiStreamPipeline.html" target="_top" xlink:title=" ">
<polygon fill="white" stroke="black" points="309,-389.5 309,-408.5 416,-408.5 416,-389.5 309,-389.5"/>
<text text-anchor="middle" x="362.5" y="-396.5" font-family="Helvetica,sans-Serif" font-size="10.00">AxiStreamPipeline</text>
</a>
</g>
</g>
<!-- Node7&#45;&gt;Node4 -->
<g id="edge16" class="edge">
<title>Node7&#45;&gt;Node4</title>
<path fill="none" stroke="midnightblue" d="M374.2,-380.76C388.81,-357.5 417.18,-317.7 452,-296 483.4,-276.43 719.59,-221.74 817.83,-199.55"/>
<polygon fill="midnightblue" stroke="midnightblue" points="371.19,-378.98 368.97,-389.34 377.16,-382.62 371.19,-378.98"/>
</g>
<!-- Node7&#45;&gt;Node5 -->
<g id="edge7" class="edge">
<title>Node7&#45;&gt;Node5</title>
<path fill="none" stroke="midnightblue" d="M377.91,-381.33C393.89,-363.15 421.49,-335.74 452,-323 507,-300.03 575.64,-297.22 623.94,-298.97"/>
<polygon fill="midnightblue" stroke="midnightblue" points="374.85,-379.52 371.03,-389.41 380.18,-384.06 374.85,-379.52"/>
</g>
<!-- Node7&#45;&gt;Node6 -->
<g id="edge6" class="edge">
<title>Node7&#45;&gt;Node6</title>
<path fill="none" stroke="midnightblue" d="M397.2,-385.66C423.61,-375.2 459.72,-360.91 483.32,-351.57"/>
<polygon fill="midnightblue" stroke="midnightblue" points="395.61,-382.52 387.6,-389.46 398.19,-389.03 395.61,-382.52"/>
</g>
<!-- Node23 -->
<g id="node16" class="node">
<title>Node23</title>
<g id="a_node16"><a xlink:href="classAxiStreamResize.html" target="_top" xlink:title=" ">
<polygon fill="white" stroke="black" points="805,-465.5 805,-484.5 918,-484.5 918,-465.5 805,-465.5"/>
<text text-anchor="middle" x="861.5" y="-472.5" font-family="Helvetica,sans-Serif" font-size="10.00">AxiStreamResize(2)</text>
</a>
</g>
</g>
<!-- Node7&#45;&gt;Node23 -->
<g id="edge19" class="edge">
<title>Node7&#45;&gt;Node23</title>
<path fill="none" stroke="midnightblue" d="M390.59,-413.26C407.72,-421.61 430.6,-431.55 452,-437 575.21,-468.35 725.21,-474.46 804.73,-475.28"/>
<polygon fill="midnightblue" stroke="midnightblue" points="391.73,-409.92 381.22,-408.58 388.6,-416.18 391.73,-409.92"/>
</g>
<!-- Node24 -->
<g id="node17" class="node">
<title>Node24</title>
<g id="a_node17"><a xlink:href="classAxiStreamMux.html" target="_top" xlink:title=" ">
<polygon fill="white" stroke="black" points="1294,-683.5 1294,-702.5 1383,-702.5 1383,-683.5 1294,-683.5"/>
<text text-anchor="middle" x="1338.5" y="-690.5" font-family="Helvetica,sans-Serif" font-size="10.00">AxiStreamMux</text>
</a>
</g>
</g>
<!-- Node7&#45;&gt;Node24 -->
<g id="edge21" class="edge">
<title>Node7&#45;&gt;Node24</title>
<path fill="none" stroke="midnightblue" d="M371.09,-417.96C400.16,-487.14 511.55,-722 684,-722 684,-722 684,-722 1017,-722 1116.31,-722 1232.22,-708.02 1293.81,-699.47"/>
<polygon fill="midnightblue" stroke="midnightblue" points="374.31,-416.58 367.26,-408.67 367.83,-419.25 374.31,-416.58"/>
</g>
<!-- Node51 -->
<g id="node37" class="node">
<title>Node51</title>
<g id="a_node37"><a xlink:href="classAxiStreamResize.html" target="_top" xlink:title=" ">
<polygon fill="white" stroke="black" points="452,-408.5 452,-427.5 565,-427.5 565,-408.5 452,-408.5"/>
<text text-anchor="middle" x="508.5" y="-415.5" font-family="Helvetica,sans-Serif" font-size="10.00">AxiStreamResize(4)</text>
</a>
</g>
</g>
<!-- Node7&#45;&gt;Node51 -->
<g id="edge45" class="edge">
<title>Node7&#45;&gt;Node51</title>
<path fill="none" stroke="midnightblue" d="M426.47,-407.31C434.9,-408.42 443.5,-409.56 451.8,-410.65"/>
<polygon fill="midnightblue" stroke="midnightblue" points="426.67,-403.81 416.3,-405.97 425.76,-410.75 426.67,-403.81"/>
</g>
<!-- Node55 -->
<g id="node40" class="node">
<title>Node55</title>
<g id="a_node40"><a xlink:href="classAxiStreamDmaRead.html" target="_top" xlink:title=" ">
<polygon fill="white" stroke="red" points="958,-294.5 958,-313.5 1074,-313.5 1074,-294.5 958,-294.5"/>
<text text-anchor="middle" x="1016" y="-301.5" font-family="Helvetica,sans-Serif" font-size="10.00">AxiStreamDmaRead</text>
</a>
</g>
</g>
<!-- Node7&#45;&gt;Node55 -->
<g id="edge50" class="edge">
<title>Node7&#45;&gt;Node55</title>
<path fill="none" stroke="midnightblue" d="M426.17,-389.86C552.45,-371.45 835.79,-330.13 957.57,-312.37"/>
<polygon fill="midnightblue" stroke="midnightblue" points="425.65,-386.4 416.26,-391.31 426.66,-393.33 425.65,-386.4"/>
</g>
<!-- Node58 -->
<g id="node43" class="node">
<title>Node58</title>
<g id="a_node43"><a xlink:href="classAxiStreamDeMux.html" target="_top" xlink:title=" ">
<polygon fill="white" stroke="black" points="457.5,-522.5 457.5,-541.5 559.5,-541.5 559.5,-522.5 457.5,-522.5"/>
<text text-anchor="middle" x="508.5" y="-529.5" font-family="Helvetica,sans-Serif" font-size="10.00">AxiStreamDeMux</text>
</a>
</g>
</g>
<!-- Node7&#45;&gt;Node58 -->
<g id="edge60" class="edge">
<title>Node7&#45;&gt;Node58</title>
<path fill="none" stroke="midnightblue" d="M378.97,-416.05C396.15,-434.67 425.03,-465.04 452,-489 465.67,-501.14 482.37,-513.82 493.86,-522.23"/>
<polygon fill="midnightblue" stroke="midnightblue" points="381.49,-413.62 372.15,-408.61 376.33,-418.35 381.49,-413.62"/>
</g>
<!-- Node8 -->
<g id="node8" class="node">
<title>Node8</title>
<g id="a_node8"><a xlink:href="classFifoCascade.html" target="_top" xlink:title=" ">
<polygon fill="white" stroke="black" points="640.5,-180.5 640.5,-199.5 729.5,-199.5 729.5,-180.5 640.5,-180.5"/>
<text text-anchor="middle" x="685" y="-187.5" font-family="Helvetica,sans-Serif" font-size="10.00">FifoCascade(2)</text>
</a>
</g>
</g>
<!-- Node8&#45;&gt;Node4 -->
<g id="edge8" class="edge">
<title>Node8&#45;&gt;Node4</title>
<path fill="none" stroke="midnightblue" d="M739.6,-190C762.78,-190 789.71,-190 812.25,-190"/>
<polygon fill="midnightblue" stroke="midnightblue" points="739.58,-186.5 729.58,-190 739.58,-193.5 739.58,-186.5"/>
</g>
<!-- Node9 -->
<g id="node9" class="node">
<title>Node9</title>
<g id="a_node9"><a xlink:href="classFifo.html" target="_top" xlink:title=" ">
<polygon fill="white" stroke="red" points="484.5,-180.5 484.5,-199.5 532.5,-199.5 532.5,-180.5 484.5,-180.5"/>
<text text-anchor="middle" x="508.5" y="-187.5" font-family="Helvetica,sans-Serif" font-size="10.00">Fifo(4)</text>
</a>
</g>
</g>
<!-- Node9&#45;&gt;Node8 -->
<g id="edge9" class="edge">
<title>Node9&#45;&gt;Node8</title>
<path fill="none" stroke="midnightblue" d="M543.01,-190C570.66,-190 610.09,-190 640.23,-190"/>
<polygon fill="midnightblue" stroke="midnightblue" points="542.67,-186.5 532.67,-190 542.67,-193.5 542.67,-186.5"/>
</g>
<!-- Node13 -->
<g id="node10" class="node">
<title>Node13</title>
<g id="a_node10"><a xlink:href="classFifoAsync.html" target="_top" xlink:title=" ">
<polygon fill="white" stroke="red" points="330.5,-199.5 330.5,-218.5 394.5,-218.5 394.5,-199.5 330.5,-199.5"/>
<text text-anchor="middle" x="362.5" y="-206.5" font-family="Helvetica,sans-Serif" font-size="10.00">FifoAsync</text>
</a>
</g>
</g>
<!-- Node13&#45;&gt;Node9 -->
<g id="edge10" class="edge">
<title>Node13&#45;&gt;Node9</title>
<path fill="none" stroke="midnightblue" d="M405,-203.52C430.79,-200.12 462.99,-195.87 484.35,-193.05"/>
<polygon fill="midnightblue" stroke="midnightblue" points="404.2,-200.1 394.75,-204.88 405.12,-207.04 404.2,-200.1"/>
</g>
<!-- Node35 -->
<g id="node28" class="node">
<title>Node35</title>
<g id="a_node28"><a xlink:href="classSynchronizerFifo.html" target="_top" xlink:title=" ">
<polygon fill="white" stroke="black" points="960.5,-256.5 960.5,-275.5 1071.5,-275.5 1071.5,-256.5 960.5,-256.5"/>
<text text-anchor="middle" x="1016" y="-263.5" font-family="Helvetica,sans-Serif" font-size="10.00">SynchronizerFifo(4)</text>
</a>
</g>
</g>
<!-- Node13&#45;&gt;Node35 -->
<g id="edge33" class="edge">
<title>Node13&#45;&gt;Node35</title>
<path fill="none" stroke="midnightblue" d="M404.92,-212.62C518.05,-222.52 832.35,-250.02 960.03,-261.19"/>
<polygon fill="midnightblue" stroke="midnightblue" points="405.19,-209.13 394.92,-211.75 404.58,-216.11 405.19,-209.13"/>
</g>
<!-- Node43 -->
<g id="node32" class="node">
<title>Node43</title>
<g id="a_node32"><a xlink:href="classSynchronizerFifo.html" target="_top" xlink:title=" ">
<polygon fill="white" stroke="black" points="812.5,-104.5 812.5,-123.5 910.5,-123.5 910.5,-104.5 812.5,-104.5"/>
<text text-anchor="middle" x="861.5" y="-111.5" font-family="Helvetica,sans-Serif" font-size="10.00">SynchronizerFifo</text>
</a>
</g>
</g>
<!-- Node13&#45;&gt;Node43 -->
<g id="edge38" class="edge">
<title>Node13&#45;&gt;Node43</title>
<path fill="none" stroke="midnightblue" d="M391.34,-194.77C408.43,-186.61 431,-176.86 452,-171 579.25,-135.49 735.26,-121.56 812.48,-116.55"/>
<polygon fill="midnightblue" stroke="midnightblue" points="389.41,-191.81 381.96,-199.34 392.48,-198.1 389.41,-191.81"/>
</g>
<!-- Node14 -->
<g id="node11" class="node">
<title>Node14</title>
<g id="a_node11"><a xlink:href="classRstSync.html" target="_top" xlink:title=" ">
<polygon fill="white" stroke="black" points="160,-256.5 160,-275.5 229,-275.5 229,-256.5 160,-256.5"/>
<text text-anchor="middle" x="194.5" y="-263.5" font-family="Helvetica,sans-Serif" font-size="10.00">RstSync(2)</text>
</a>
</g>
</g>
<!-- Node14&#45;&gt;Node13 -->
<g id="edge11" class="edge">
<title>Node14&#45;&gt;Node13</title>
<path fill="none" stroke="midnightblue" d="M239.03,-256.67C250.21,-253.91 262.14,-250.64 273,-247 297.26,-238.88 324.13,-226.89 341.83,-218.56"/>
<polygon fill="midnightblue" stroke="midnightblue" points="237.95,-253.33 229.03,-259.05 239.57,-260.13 237.95,-253.33"/>
</g>
<!-- Node15 -->
<g id="node12" class="node">
<title>Node15</title>
<g id="a_node12"><a xlink:href="classSynchronizer.html" target="_top" xlink:title=" ">
<polygon fill="white" stroke="black" points="0,-199.5 0,-218.5 80,-218.5 80,-199.5 0,-199.5"/>
<text text-anchor="middle" x="40" y="-206.5" font-family="Helvetica,sans-Serif" font-size="10.00">Synchronizer</text>
</a>
</g>
</g>
<!-- Node15&#45;&gt;Node4 -->
<g id="edge15" class="edge">
<title>Node15&#45;&gt;Node4</title>
<path fill="none" stroke="midnightblue" d="M64.2,-194.25C78.55,-185.9 97.67,-176.14 116,-171 221.38,-141.48 252.06,-152 361.5,-152 361.5,-152 361.5,-152 509.5,-152 625.14,-152 654.47,-154.99 769,-171 785.87,-173.36 804.3,-176.98 820.16,-180.43"/>
<polygon fill="midnightblue" stroke="midnightblue" points="62.29,-191.31 55.52,-199.46 65.89,-197.31 62.29,-191.31"/>
</g>
<!-- Node15&#45;&gt;Node14 -->
<g id="edge12" class="edge">
<title>Node15&#45;&gt;Node14</title>
<path fill="none" stroke="midnightblue" d="M66.33,-223.67C80.57,-231.44 98.87,-240.66 116,-247 130.03,-252.2 146.02,-256.39 159.81,-259.5"/>
<polygon fill="midnightblue" stroke="midnightblue" points="67.63,-220.38 57.19,-218.57 64.22,-226.5 67.63,-220.38"/>
</g>
<!-- Node16 -->
<g id="node13" class="node">
<title>Node16</title>
<g id="a_node13"><a xlink:href="classSynchronizerVector.html" target="_top" xlink:title=" ">
<polygon fill="white" stroke="black" points="132.5,-218.5 132.5,-237.5 256.5,-237.5 256.5,-218.5 132.5,-218.5"/>
<text text-anchor="middle" x="194.5" y="-225.5" font-family="Helvetica,sans-Serif" font-size="10.00">SynchronizerVector(2)</text>
</a>
</g>
</g>
<!-- Node16&#45;&gt;Node13 -->
<g id="edge13" class="edge">
<title>Node16&#45;&gt;Node13</title>
<path fill="none" stroke="midnightblue" d="M266.9,-219.83C289.02,-217.3 312.26,-214.64 330.17,-212.59"/>
<polygon fill="midnightblue" stroke="midnightblue" points="266.38,-216.36 256.84,-220.98 267.17,-223.32 266.38,-216.36"/>
</g>
<!-- Node20 -->
<g id="node14" class="node">
<title>Node20</title>
<g id="a_node14"><a xlink:href="classSimpleDualPortRam.html" target="_top" xlink:title=" ">
<polygon fill="white" stroke="black" points="137,-180.5 137,-199.5 252,-199.5 252,-180.5 137,-180.5"/>
<text text-anchor="middle" x="194.5" y="-187.5" font-family="Helvetica,sans-Serif" font-size="10.00">SimpleDualPortRam</text>
</a>
</g>
</g>
<!-- Node20&#45;&gt;Node13 -->
<g id="edge14" class="edge">
<title>Node20&#45;&gt;Node13</title>
<path fill="none" stroke="midnightblue" d="M262.11,-197.62C285.65,-200.32 311.01,-203.22 330.22,-205.42"/>
<polygon fill="midnightblue" stroke="midnightblue" points="262.5,-194.15 252.16,-196.49 261.7,-201.1 262.5,-194.15"/>
</g>
<!-- Node59 -->
<g id="node44" class="node">
<title>Node59</title>
<g id="a_node44"><a xlink:href="classAxiRam.html" target="_top" xlink:title=" ">
<polygon fill="white" stroke="black" points="335,-28.5 335,-47.5 390,-47.5 390,-28.5 335,-28.5"/>
<text text-anchor="middle" x="362.5" y="-35.5" font-family="Helvetica,sans-Serif" font-size="10.00">AxiRam</text>
</a>
</g>
</g>
<!-- Node20&#45;&gt;Node59 -->
<g id="edge64" class="edge">
<title>Node20&#45;&gt;Node59</title>
<path fill="none" stroke="midnightblue" d="M213.4,-173.61C248.1,-141.84 323.53,-72.77 351.12,-47.5"/>
<polygon fill="midnightblue" stroke="midnightblue" points="210.9,-171.16 205.88,-180.49 215.62,-176.32 210.9,-171.16"/>
</g>
<!-- Node22 -->
<g id="node15" class="node">
<title>Node22</title>
<g id="a_node15"><a xlink:href="classAxiRssiCoreWrapper.html" target="_top" xlink:title=" ">
<polygon fill="white" stroke="black" points="1443,-503.5 1443,-522.5 1573,-522.5 1573,-503.5 1443,-503.5"/>
<text text-anchor="middle" x="1508" y="-510.5" font-family="Helvetica,sans-Serif" font-size="10.00">AxiRssiCoreWrapper(2)</text>
</a>
</g>
</g>
<!-- Node22&#45;&gt;Node1 -->
<g id="edge17" class="edge">
<title>Node22&#45;&gt;Node1</title>
<path fill="none" stroke="midnightblue" d="M1515.94,-493.56C1541.47,-422.07 1629.66,-175.17 1648.1,-123.52"/>
<polygon fill="midnightblue" stroke="midnightblue" points="1512.59,-492.54 1512.52,-503.14 1519.18,-494.9 1512.59,-492.54"/>
</g>
<!-- Node23&#45;&gt;Node22 -->
<g id="edge18" class="edge">
<title>Node23&#45;&gt;Node22</title>
<path fill="none" stroke="midnightblue" d="M928.13,-478.87C1052.25,-486.19 1319.96,-501.97 1442.9,-509.22"/>
<polygon fill="midnightblue" stroke="midnightblue" points="928.2,-475.37 918.01,-478.27 927.78,-482.36 928.2,-475.37"/>
</g>
<!-- Node24&#45;&gt;Node22 -->
<g id="edge20" class="edge">
<title>Node24&#45;&gt;Node22</title>
<path fill="none" stroke="midnightblue" d="M1368.83,-678.38C1382.15,-670.43 1397.1,-659.46 1407,-646 1438.48,-603.2 1405.11,-569.24 1443,-532 1446.97,-528.1 1451.7,-524.99 1456.76,-522.52"/>
<polygon fill="midnightblue" stroke="midnightblue" points="1366.94,-675.43 1359.96,-683.39 1370.39,-681.52 1366.94,-675.43"/>
</g>
<!-- Node25 -->
<g id="node18" class="node">
<title>Node25</title>
<g id="a_node18"><a xlink:href="classAxiStreamPacketizer2.html" target="_top" xlink:title=" ">
<polygon fill="white" stroke="black" points="1277,-579.5 1277,-598.5 1400,-598.5 1400,-579.5 1277,-579.5"/>
<text text-anchor="middle" x="1338.5" y="-586.5" font-family="Helvetica,sans-Serif" font-size="10.00">AxiStreamPacketizer2</text>
</a>
</g>
</g>
<!-- Node25&#45;&gt;Node22 -->
<g id="edge22" class="edge">
<title>Node25&#45;&gt;Node22</title>
<path fill="none" stroke="midnightblue" d="M1363.07,-574.1C1383.59,-561.61 1414.44,-543.94 1443,-532 1451.55,-528.42 1461.01,-525.23 1469.97,-522.52"/>
<polygon fill="midnightblue" stroke="midnightblue" points="1361.09,-571.21 1354.42,-579.44 1364.77,-577.17 1361.09,-571.21"/>
</g>
<!-- Node26 -->
<g id="node19" class="node">
<title>Node26</title>
<g id="a_node19"><a xlink:href="classAxiStreamPipeline.html" target="_top" xlink:title=" ">
<polygon fill="white" stroke="black" points="1114,-598.5 1114,-617.5 1234,-617.5 1234,-598.5 1114,-598.5"/>
<text text-anchor="middle" x="1174" y="-605.5" font-family="Helvetica,sans-Serif" font-size="10.00">AxiStreamPipeline(2)</text>
</a>
</g>
</g>
<!-- Node26&#45;&gt;Node25 -->
<g id="edge23" class="edge">
<title>Node26&#45;&gt;Node25</title>
<path fill="none" stroke="midnightblue" d="M1244.35,-599.89C1255.14,-598.63 1266.21,-597.34 1276.78,-596.1"/>
<polygon fill="midnightblue" stroke="midnightblue" points="1243.65,-596.45 1234.13,-601.09 1244.46,-603.4 1243.65,-596.45"/>
</g>
<!-- Node57 -->
<g id="node42" class="node">
<title>Node57</title>
<g id="a_node42"><a xlink:href="classAxiStreamDepacketizer2.html" target="_top" xlink:title=" ">
<polygon fill="white" stroke="black" points="1270,-617.5 1270,-636.5 1407,-636.5 1407,-617.5 1270,-617.5"/>
<text text-anchor="middle" x="1338.5" y="-624.5" font-family="Helvetica,sans-Serif" font-size="10.00">AxiStreamDepacketizer2</text>
</a>
</g>
</g>
<!-- Node26&#45;&gt;Node57 -->
<g id="edge55" class="edge">
<title>Node26&#45;&gt;Node57</title>
<path fill="none" stroke="midnightblue" d="M1244.34,-616.11C1252.8,-617.1 1261.44,-618.11 1269.88,-619.09"/>
<polygon fill="midnightblue" stroke="midnightblue" points="1244.46,-612.6 1234.13,-614.91 1243.65,-619.55 1244.46,-612.6"/>
</g>
<!-- Node27 -->
<g id="node20" class="node">
<title>Node27</title>
<g id="a_node20"><a xlink:href="classDualPortRam.html" target="_top" xlink:title=" ">
<polygon fill="white" stroke="black" points="1133.5,-674.5 1133.5,-693.5 1214.5,-693.5 1214.5,-674.5 1133.5,-674.5"/>
<text text-anchor="middle" x="1174" y="-681.5" font-family="Helvetica,sans-Serif" font-size="10.00">DualPortRam</text>
</a>
</g>
</g>
<!-- Node27&#45;&gt;Node25 -->
<g id="edge24" class="edge">
<title>Node27&#45;&gt;Node25</title>
<path fill="none" stroke="midnightblue" d="M1223.86,-671.38C1227.45,-669.53 1230.88,-667.42 1234,-665 1257.68,-646.64 1245.98,-625.92 1270,-608 1275.17,-604.14 1281.1,-601.07 1287.24,-598.62"/>
<polygon fill="midnightblue" stroke="midnightblue" points="1222.4,-668.2 1214.67,-675.45 1225.23,-674.6 1222.4,-668.2"/>
</g>
<!-- Node27&#45;&gt;Node57 -->
<g id="edge56" class="edge">
<title>Node27&#45;&gt;Node57</title>
<path fill="none" stroke="midnightblue" d="M1215.15,-671.31C1221.47,-669.24 1227.92,-667.09 1234,-665 1260.79,-655.77 1291.19,-644.52 1312.08,-636.66"/>
<polygon fill="midnightblue" stroke="midnightblue" points="1213.83,-668.06 1205.4,-674.47 1215.99,-674.72 1213.83,-668.06"/>
</g>
<!-- Node28 -->
<g id="node21" class="node">
<title>Node28</title>
<g id="a_node21"><a xlink:href="classTrueDualPortRam.html" target="_top" xlink:title=" ">
<polygon fill="white" stroke="black" points="965.5,-674.5 965.5,-693.5 1066.5,-693.5 1066.5,-674.5 965.5,-674.5"/>
<text text-anchor="middle" x="1016" y="-681.5" font-family="Helvetica,sans-Serif" font-size="10.00">TrueDualPortRam</text>
</a>
</g>
</g>
<!-- Node28&#45;&gt;Node27 -->
<g id="edge25" class="edge">
<title>Node28&#45;&gt;Node27</title>
<path fill="none" stroke="midnightblue" d="M1076.81,-684C1095.73,-684 1116.15,-684 1133.29,-684"/>
<polygon fill="midnightblue" stroke="midnightblue" points="1076.79,-680.5 1066.79,-684 1076.79,-687.5 1076.79,-680.5"/>
</g>
<!-- Node29 -->
<g id="node22" class="node">
<title>Node29</title>
<g id="a_node22"><a xlink:href="classQuadPortRam.html" target="_top" xlink:title=" ">
<polygon fill="white" stroke="black" points="974,-636.5 974,-655.5 1058,-655.5 1058,-636.5 974,-636.5"/>
<text text-anchor="middle" x="1016" y="-643.5" font-family="Helvetica,sans-Serif" font-size="10.00">QuadPortRam</text>
</a>
</g>
</g>
<!-- Node29&#45;&gt;Node27 -->
<g id="edge26" class="edge">
<title>Node29&#45;&gt;Node27</title>
<path fill="none" stroke="midnightblue" d="M1066.13,-657.97C1087.99,-663.29 1113.38,-669.48 1133.92,-674.48"/>
<polygon fill="midnightblue" stroke="midnightblue" points="1066.91,-654.56 1056.37,-655.59 1065.25,-661.36 1066.91,-654.56"/>
</g>
<!-- Node30 -->
<g id="node23" class="node">
<title>Node30</title>
<g id="a_node23"><a xlink:href="classCrc32Parallel.html" target="_top" xlink:title=" ">
<polygon fill="white" stroke="black" points="1134,-636.5 1134,-655.5 1214,-655.5 1214,-636.5 1134,-636.5"/>
<text text-anchor="middle" x="1174" y="-643.5" font-family="Helvetica,sans-Serif" font-size="10.00">Crc32Parallel</text>
</a>
</g>
</g>
<!-- Node30&#45;&gt;Node25 -->
<g id="edge27" class="edge">
<title>Node30&#45;&gt;Node25</title>
<path fill="none" stroke="midnightblue" d="M1217.9,-633.16C1223.37,-631.24 1228.86,-629.17 1234,-627 1250.67,-619.98 1253.2,-614.71 1270,-608 1278.93,-604.43 1288.78,-601.26 1298.13,-598.57"/>
<polygon fill="midnightblue" stroke="midnightblue" points="1216.5,-629.94 1208.14,-636.45 1218.73,-636.57 1216.5,-629.94"/>
</g>
<!-- Node30&#45;&gt;Node57 -->
<g id="edge57" class="edge">
<title>Node30&#45;&gt;Node57</title>
<path fill="none" stroke="midnightblue" d="M1224.47,-640.22C1238.82,-638.54 1254.74,-636.68 1269.99,-634.89"/>
<polygon fill="midnightblue" stroke="midnightblue" points="1223.86,-636.76 1214.34,-641.4 1224.68,-643.72 1223.86,-636.76"/>
</g>
<!-- Node31 -->
<g id="node24" class="node">
<title>Node31</title>
<g id="a_node24"><a xlink:href="classCrc32.html" target="_top" xlink:title=" ">
<polygon fill="white" stroke="black" points="1152,-560.5 1152,-579.5 1196,-579.5 1196,-560.5 1152,-560.5"/>
<text text-anchor="middle" x="1174" y="-567.5" font-family="Helvetica,sans-Serif" font-size="10.00">Crc32</text>
</a>
</g>
</g>
<!-- Node31&#45;&gt;Node25 -->
<g id="edge28" class="edge">
<title>Node31&#45;&gt;Node25</title>
<path fill="none" stroke="midnightblue" d="M1206.3,-573.66C1226.23,-575.99 1252.72,-579.09 1276.67,-581.89"/>
<polygon fill="midnightblue" stroke="midnightblue" points="1206.58,-570.17 1196.24,-572.48 1205.77,-577.12 1206.58,-570.17"/>
</g>
<!-- Node31&#45;&gt;Node57 -->
<g id="edge58" class="edge">
<title>Node31&#45;&gt;Node57</title>
<path fill="none" stroke="midnightblue" d="M1205.67,-578.76C1214.9,-581.7 1224.97,-585.2 1234,-589 1250.67,-596.02 1253.2,-601.29 1270,-608 1278.93,-611.57 1288.78,-614.74 1298.13,-617.43"/>
<polygon fill="midnightblue" stroke="midnightblue" points="1206.66,-575.41 1196.07,-575.81 1204.6,-582.1 1206.66,-575.41"/>
</g>
<!-- Node32 -->
<g id="node25" class="node">
<title>Node32</title>
<g id="a_node25"><a xlink:href="classAxiRssiCore.html" target="_top" xlink:title=" ">
<polygon fill="white" stroke="black" points="1301,-332.5 1301,-351.5 1376,-351.5 1376,-332.5 1301,-332.5"/>
<text text-anchor="middle" x="1338.5" y="-339.5" font-family="Helvetica,sans-Serif" font-size="10.00">AxiRssiCore</text>
</a>
</g>
</g>
<!-- Node32&#45;&gt;Node22 -->
<g id="edge29" class="edge">
<title>Node32&#45;&gt;Node22</title>
<path fill="none" stroke="midnightblue" d="M1356.06,-358.9C1390.8,-394.37 1470.34,-475.58 1497.62,-503.42"/>
<polygon fill="midnightblue" stroke="midnightblue" points="1358.48,-356.38 1348.99,-351.68 1353.48,-361.28 1358.48,-356.38"/>
</g>
<!-- Node33 -->
<g id="node26" class="node">
<title>Node33</title>
<g id="a_node26"><a xlink:href="classRssiAxiLiteRegItf.html" target="_top" xlink:title=" ">
<polygon fill="white" stroke="black" points="1124,-294.5 1124,-313.5 1224,-313.5 1224,-294.5 1124,-294.5"/>
<text text-anchor="middle" x="1174" y="-301.5" font-family="Helvetica,sans-Serif" font-size="10.00">RssiAxiLiteRegItf</text>
</a>
</g>
</g>
<!-- Node33&#45;&gt;Node32 -->
<g id="edge30" class="edge">
<title>Node33&#45;&gt;Node32</title>
<path fill="none" stroke="midnightblue" d="M1225.8,-315.88C1250.15,-321.57 1278.77,-328.27 1300.94,-333.45"/>
<polygon fill="midnightblue" stroke="midnightblue" points="1226.54,-312.46 1216.01,-313.59 1224.95,-319.27 1226.54,-312.46"/>
</g>
<!-- Node34 -->
<g id="node27" class="node">
<title>Node34</title>
<g id="a_node27"><a xlink:href="classSynchronizerVector.html" target="_top" xlink:title=" ">
<polygon fill="white" stroke="black" points="954,-370.5 954,-389.5 1078,-389.5 1078,-370.5 954,-370.5"/>
<text text-anchor="middle" x="1016" y="-377.5" font-family="Helvetica,sans-Serif" font-size="10.00">SynchronizerVector(3)</text>
</a>
</g>
</g>
<!-- Node34&#45;&gt;Node33 -->
<g id="edge31" class="edge">
<title>Node34&#45;&gt;Node33</title>
<path fill="none" stroke="midnightblue" d="M1066.34,-366.74C1070.38,-365.02 1074.32,-363.12 1078,-361 1096.82,-350.18 1095.66,-339.61 1114,-328 1123.16,-322.21 1133.95,-317.33 1143.78,-313.52"/>
<polygon fill="midnightblue" stroke="midnightblue" points="1064.88,-363.55 1056.8,-370.39 1067.39,-370.08 1064.88,-363.55"/>
</g>
<!-- Node35&#45;&gt;Node33 -->
<g id="edge32" class="edge">
<title>Node35&#45;&gt;Node33</title>
<path fill="none" stroke="midnightblue" d="M1066.13,-277.97C1087.99,-283.29 1113.38,-289.48 1133.92,-294.48"/>
<polygon fill="midnightblue" stroke="midnightblue" points="1066.91,-274.56 1056.37,-275.59 1065.25,-281.36 1066.91,-274.56"/>
</g>
<!-- Node38 -->
<g id="node30" class="node">
<title>Node38</title>
<g id="a_node30"><a xlink:href="classAxiStreamMon.html" target="_top" xlink:title=" ">
<polygon fill="white" stroke="black" points="1129.5,-180.5 1129.5,-199.5 1218.5,-199.5 1218.5,-180.5 1129.5,-180.5"/>
<text text-anchor="middle" x="1174" y="-187.5" font-family="Helvetica,sans-Serif" font-size="10.00">AxiStreamMon</text>
</a>
</g>
</g>
<!-- Node35&#45;&gt;Node38 -->
<g id="edge39" class="edge">
<title>Node35&#45;&gt;Node38</title>
<path fill="none" stroke="midnightblue" d="M1067.35,-252.64C1071.06,-250.96 1074.65,-249.08 1078,-247 1097.75,-234.7 1094.31,-221.4 1114,-209 1120.01,-205.22 1126.84,-202.12 1133.67,-199.61"/>
<polygon fill="midnightblue" stroke="midnightblue" points="1065.94,-249.43 1057.98,-256.42 1068.56,-255.92 1065.94,-249.43"/>
</g>
<!-- Node36 -->
<g id="node29" class="node">
<title>Node36</title>
<g id="a_node29"><a xlink:href="classRssiParamSync.html" target="_top" xlink:title=" ">
<polygon fill="white" stroke="red" points="964,-332.5 964,-351.5 1068,-351.5 1068,-332.5 964,-332.5"/>
<text text-anchor="middle" x="1016" y="-339.5" font-family="Helvetica,sans-Serif" font-size="10.00">RssiParamSync(2)</text>
</a>
</g>
</g>
<!-- Node36&#45;&gt;Node33 -->
<g id="edge34" class="edge">
<title>Node36&#45;&gt;Node33</title>
<path fill="none" stroke="midnightblue" d="M1066.13,-330.03C1087.99,-324.71 1113.38,-318.52 1133.92,-313.52"/>
<polygon fill="midnightblue" stroke="midnightblue" points="1065.25,-326.64 1056.37,-332.41 1066.91,-333.44 1065.25,-326.64"/>
</g>
<!-- Node38&#45;&gt;Node32 -->
<g id="edge35" class="edge">
<title>Node38&#45;&gt;Node32</title>
<path fill="none" stroke="midnightblue" d="M1225.28,-203.8C1228.33,-205.36 1231.27,-207.09 1234,-209 1283.14,-243.39 1319.95,-307.99 1332.66,-332.36"/>
<polygon fill="midnightblue" stroke="midnightblue" points="1226.43,-200.48 1215.88,-199.61 1223.58,-206.88 1226.43,-200.48"/>
</g>
<!-- Node39 -->
<g id="node31" class="node">
<title>Node39</title>
<g id="a_node31"><a xlink:href="classSyncTrigRate.html" target="_top" xlink:title=" ">
<polygon fill="white" stroke="red" points="976,-142.5 976,-161.5 1056,-161.5 1056,-142.5 976,-142.5"/>
<text text-anchor="middle" x="1016" y="-149.5" font-family="Helvetica,sans-Serif" font-size="10.00">SyncTrigRate</text>
</a>
</g>
</g>
<!-- Node39&#45;&gt;Node38 -->
<g id="edge36" class="edge">
<title>Node39&#45;&gt;Node38</title>
<path fill="none" stroke="midnightblue" d="M1066.13,-163.97C1087.99,-169.29 1113.38,-175.48 1133.92,-180.48"/>
<polygon fill="midnightblue" stroke="midnightblue" points="1066.91,-160.56 1056.37,-161.59 1065.25,-167.36 1066.91,-160.56"/>
</g>
<!-- Node43&#45;&gt;Node39 -->
<g id="edge37" class="edge">
<title>Node43&#45;&gt;Node39</title>
<path fill="none" stroke="midnightblue" d="M910.82,-126.04C932.12,-131.35 956.8,-137.5 976.79,-142.48"/>
<polygon fill="midnightblue" stroke="midnightblue" points="911.53,-122.61 900.98,-123.59 909.84,-129.4 911.53,-122.61"/>
</g>
<!-- Node43&#45;&gt;Node62 -->
<g id="edge67" class="edge">
<title>Node43&#45;&gt;Node62</title>
<path fill="none" stroke="midnightblue" d="M910.83,-101.96C934.48,-96.06 962.28,-89.14 983.22,-83.92"/>
<polygon fill="midnightblue" stroke="midnightblue" points="909.84,-98.6 900.98,-104.41 911.53,-105.39 909.84,-98.6"/>
</g>
<!-- Node47 -->
<g id="node33" class="node">
<title>Node47</title>
<g id="a_node33"><a xlink:href="classSyncMinMax.html" target="_top" xlink:title=" ">
<polygon fill="white" stroke="red" points="970,-180.5 970,-199.5 1062,-199.5 1062,-180.5 970,-180.5"/>
<text text-anchor="middle" x="1016" y="-187.5" font-family="Helvetica,sans-Serif" font-size="10.00">SyncMinMax(2)</text>
</a>
</g>
</g>
<!-- Node47&#45;&gt;Node38 -->
<g id="edge40" class="edge">
<title>Node47&#45;&gt;Node38</title>
<path fill="none" stroke="midnightblue" d="M1072.29,-190C1091.01,-190 1111.64,-190 1129.32,-190"/>
<polygon fill="midnightblue" stroke="midnightblue" points="1072.12,-186.5 1062.12,-190 1072.12,-193.5 1072.12,-186.5"/>
</g>
<!-- Node48 -->
<g id="node34" class="node">
<title>Node48</title>
<g id="a_node34"><a xlink:href="classRssiConnFsm.html" target="_top" xlink:title=" ">
<polygon fill="white" stroke="black" points="1132.5,-446.5 1132.5,-465.5 1215.5,-465.5 1215.5,-446.5 1132.5,-446.5"/>
<text text-anchor="middle" x="1174" y="-453.5" font-family="Helvetica,sans-Serif" font-size="10.00">RssiConnFsm</text>
</a>
</g>
</g>
<!-- Node48&#45;&gt;Node32 -->
<g id="edge41" class="edge">
<title>Node48&#45;&gt;Node32</title>
<path fill="none" stroke="midnightblue" d="M1222.38,-442.79C1226.41,-441.06 1230.34,-439.13 1234,-437 1275.11,-413.08 1313.64,-370.48 1329.67,-351.54"/>
<polygon fill="midnightblue" stroke="midnightblue" points="1220.92,-439.6 1212.87,-446.49 1223.46,-446.12 1220.92,-439.6"/>
</g>
<!-- Node49 -->
<g id="node35" class="node">
<title>Node49</title>
<g id="a_node35"><a xlink:href="classRssiMonitor.html" target="_top" xlink:title=" ">
<polygon fill="white" stroke="black" points="1137,-408.5 1137,-427.5 1211,-427.5 1211,-408.5 1137,-408.5"/>
<text text-anchor="middle" x="1174" y="-415.5" font-family="Helvetica,sans-Serif" font-size="10.00">RssiMonitor</text>
</a>
</g>
</g>
<!-- Node49&#45;&gt;Node32 -->
<g id="edge42" class="edge">
<title>Node49&#45;&gt;Node32</title>
<path fill="none" stroke="midnightblue" d="M1218.14,-405.17C1223.54,-403.26 1228.94,-401.19 1234,-399 1266.58,-384.94 1302.39,-363.85 1322.19,-351.65"/>
<polygon fill="midnightblue" stroke="midnightblue" points="1216.84,-401.92 1208.49,-408.45 1219.08,-408.55 1216.84,-401.92"/>
</g>
<!-- Node50 -->
<g id="node36" class="node">
<title>Node50</title>
<g id="a_node36"><a xlink:href="classRssiHeaderReg.html" target="_top" xlink:title=" ">
<polygon fill="white" stroke="black" points="1128.5,-370.5 1128.5,-389.5 1219.5,-389.5 1219.5,-370.5 1128.5,-370.5"/>
<text text-anchor="middle" x="1174" y="-377.5" font-family="Helvetica,sans-Serif" font-size="10.00">RssiHeaderReg</text>
</a>
</g>
</g>
<!-- Node50&#45;&gt;Node32 -->
<g id="edge43" class="edge">
<title>Node50&#45;&gt;Node32</title>
<path fill="none" stroke="midnightblue" d="M1225.8,-368.12C1250.15,-362.43 1278.77,-355.73 1300.94,-350.55"/>
<polygon fill="midnightblue" stroke="midnightblue" points="1224.95,-364.73 1216.01,-370.41 1226.54,-371.54 1224.95,-364.73"/>
</g>
<!-- Node51&#45;&gt;Node32 -->
<g id="edge44" class="edge">
<title>Node51&#45;&gt;Node32</title>
<path fill="none" stroke="midnightblue" d="M564.55,-429.38C669.75,-448.35 904.35,-477.15 1078,-399 1099.21,-389.45 1093.04,-371.09 1114,-361 1174.53,-331.87 1254.96,-333.37 1301,-337.45"/>
<polygon fill="midnightblue" stroke="midnightblue" points="564.94,-425.89 554.47,-427.52 563.67,-432.77 564.94,-425.89"/>
</g>
<!-- Node52 -->
<g id="node38" class="node">
<title>Node52</title>
<g id="a_node38"><a xlink:href="classAxiRssiTxFsm.html" target="_top" xlink:title=" ">
<polygon fill="white" stroke="black" points="1131,-256.5 1131,-275.5 1217,-275.5 1217,-256.5 1131,-256.5"/>
<text text-anchor="middle" x="1174" y="-263.5" font-family="Helvetica,sans-Serif" font-size="10.00">AxiRssiTxFsm</text>
</a>
</g>
</g>
<!-- Node52&#45;&gt;Node32 -->
<g id="edge46" class="edge">
<title>Node52&#45;&gt;Node32</title>
<path fill="none" stroke="midnightblue" d="M1218.14,-278.83C1223.54,-280.74 1228.94,-282.81 1234,-285 1266.58,-299.06 1302.39,-320.15 1322.19,-332.35"/>
<polygon fill="midnightblue" stroke="midnightblue" points="1219.08,-275.45 1208.49,-275.55 1216.84,-282.08 1219.08,-275.45"/>
</g>
<!-- Node53&#45;&gt;Node52 -->
<g id="edge47" class="edge">
<title>Node53&#45;&gt;Node52</title>
<path fill="none" stroke="midnightblue" d="M1066.13,-239.97C1087.99,-245.29 1113.38,-251.48 1133.92,-256.48"/>
<polygon fill="midnightblue" stroke="midnightblue" points="1066.91,-236.56 1056.37,-237.59 1065.25,-243.36 1066.91,-236.56"/>
</g>
<!-- Node56 -->
<g id="node41" class="node">
<title>Node56</title>
<g id="a_node41"><a xlink:href="classAxiRssiRxFsm.html" target="_top" xlink:title=" ">
<polygon fill="white" stroke="black" points="1131,-218.5 1131,-237.5 1217,-237.5 1217,-218.5 1131,-218.5"/>
<text text-anchor="middle" x="1174" y="-225.5" font-family="Helvetica,sans-Serif" font-size="10.00">AxiRssiRxFsm</text>
</a>
</g>
</g>
<!-- Node53&#45;&gt;Node56 -->
<g id="edge52" class="edge">
<title>Node53&#45;&gt;Node56</title>
<path fill="none" stroke="midnightblue" d="M1084.79,-228C1100.39,-228 1116.55,-228 1130.71,-228"/>
<polygon fill="midnightblue" stroke="midnightblue" points="1084.65,-224.5 1074.65,-228 1084.65,-231.5 1084.65,-224.5"/>
</g>
<!-- Node55&#45;&gt;Node52 -->
<g id="edge49" class="edge">
<title>Node55&#45;&gt;Node52</title>
<path fill="none" stroke="midnightblue" d="M1066.13,-292.03C1087.99,-286.71 1113.38,-280.52 1133.92,-275.52"/>
<polygon fill="midnightblue" stroke="midnightblue" points="1065.25,-288.64 1056.37,-294.41 1066.91,-295.44 1065.25,-288.64"/>
</g>
<!-- Node55&#45;&gt;Node56 -->
<g id="edge53" class="edge">
<title>Node55&#45;&gt;Node56</title>
<path fill="none" stroke="midnightblue" d="M1067.35,-290.64C1071.06,-288.96 1074.65,-287.08 1078,-285 1097.75,-272.7 1094.31,-259.4 1114,-247 1120.01,-243.22 1126.84,-240.12 1133.67,-237.61"/>
<polygon fill="midnightblue" stroke="midnightblue" points="1065.94,-287.43 1057.98,-294.42 1068.56,-293.92 1065.94,-287.43"/>
</g>
<!-- Node56&#45;&gt;Node32 -->
<g id="edge51" class="edge">
<title>Node56&#45;&gt;Node32</title>
<path fill="none" stroke="midnightblue" d="M1222.38,-241.21C1226.41,-242.94 1230.34,-244.87 1234,-247 1275.11,-270.92 1313.64,-313.52 1329.67,-332.46"/>
<polygon fill="midnightblue" stroke="midnightblue" points="1223.46,-237.88 1212.87,-237.51 1220.92,-244.4 1223.46,-237.88"/>
</g>
<!-- Node57&#45;&gt;Node22 -->
<g id="edge54" class="edge">
<title>Node57&#45;&gt;Node22</title>
<path fill="none" stroke="midnightblue" d="M1400.64,-612.62C1402.87,-611.22 1405.01,-609.68 1407,-608 1435.55,-583.88 1414.62,-556.32 1443,-532 1447.49,-528.15 1452.73,-525.09 1458.24,-522.64"/>
<polygon fill="midnightblue" stroke="midnightblue" points="1398.81,-609.62 1391.59,-617.37 1402.07,-615.82 1398.81,-609.62"/>
</g>
<!-- Node58&#45;&gt;Node22 -->
<g id="edge59" class="edge">
<title>Node58&#45;&gt;Node22</title>
<path fill="none" stroke="midnightblue" d="M570.16,-532C640.13,-532 758.63,-532 860.5,-532 860.5,-532 860.5,-532 1175,-532 1268.24,-532 1375.97,-524.44 1442.8,-518.86"/>
<polygon fill="midnightblue" stroke="midnightblue" points="569.78,-528.5 559.78,-532 569.78,-535.5 569.78,-528.5"/>
</g>
<!-- Node59&#45;&gt;Node1 -->
<g id="edge61" class="edge">
<title>Node59&#45;&gt;Node1</title>
<path fill="none" stroke="midnightblue" d="M400.42,-30.75C459.88,-19.72 580.66,0 684,0 684,0 684,0 1339.5,0 1460.89,0 1593.6,-77.08 1636.94,-104.48"/>
<polygon fill="midnightblue" stroke="midnightblue" points="399.57,-27.35 390.39,-32.64 400.86,-34.23 399.57,-27.35"/>
</g>
<!-- Node60 -->
<g id="node45" class="node">
<title>Node60</title>
<g id="a_node45"><a xlink:href="classSimpleDualPortRamXpm.html" target="_top" xlink:title=" ">
<polygon fill="white" stroke="black" points="126,-47.5 126,-66.5 263,-66.5 263,-47.5 126,-47.5"/>
<text text-anchor="middle" x="194.5" y="-54.5" font-family="Helvetica,sans-Serif" font-size="10.00">SimpleDualPortRamXpm</text>
</a>
</g>
</g>
<!-- Node60&#45;&gt;Node59 -->
<g id="edge62" class="edge">
<title>Node60&#45;&gt;Node59</title>
<path fill="none" stroke="midnightblue" d="M273.11,-48.12C295.21,-45.59 317.82,-43 334.64,-41.07"/>
<polygon fill="midnightblue" stroke="midnightblue" points="272.56,-44.66 263.02,-49.27 273.35,-51.61 272.56,-44.66"/>
</g>
<!-- Node61 -->
<g id="node46" class="node">
<title>Node61</title>
<g id="a_node46"><a xlink:href="classSimpleDualPortRamAlteraMf.html" target="_top" xlink:title=" ">
<polygon fill="white" stroke="black" points="116,-9.5 116,-28.5 273,-28.5 273,-9.5 116,-9.5"/>
<text text-anchor="middle" x="194.5" y="-16.5" font-family="Helvetica,sans-Serif" font-size="10.00">SimpleDualPortRamAlteraMf</text>
</a>
</g>
</g>
<!-- Node61&#45;&gt;Node59 -->
<g id="edge63" class="edge">
<title>Node61&#45;&gt;Node59</title>
<path fill="none" stroke="midnightblue" d="M283.27,-29.05C302.02,-31.19 320.44,-33.3 334.69,-34.93"/>
<polygon fill="midnightblue" stroke="midnightblue" points="283.49,-25.55 273.15,-27.89 282.69,-32.5 283.49,-25.55"/>
</g>
<!-- Node62&#45;&gt;Node1 -->
<g id="edge65" class="edge">
<title>Node62&#45;&gt;Node1</title>
<path fill="none" stroke="midnightblue" d="M1058.65,-74.55C1151.49,-71.94 1382.26,-68.93 1573,-95 1588.14,-97.07 1604.62,-100.82 1618.55,-104.45"/>
<polygon fill="midnightblue" stroke="midnightblue" points="1058.43,-71.05 1048.54,-74.85 1058.64,-78.05 1058.43,-71.05"/>
</g>
<!-- Node63 -->
<g id="node48" class="node">
<title>Node63</title>
<g id="a_node48"><a xlink:href="classSyncStatusVector.html" target="_top" xlink:title=" ">
<polygon fill="white" stroke="black" points="811,-66.5 811,-85.5 912,-85.5 912,-66.5 811,-66.5"/>
<text text-anchor="middle" x="861.5" y="-73.5" font-family="Helvetica,sans-Serif" font-size="10.00">SyncStatusVector</text>
</a>
</g>
</g>
<!-- Node63&#45;&gt;Node62 -->
<g id="edge68" class="edge">
<title>Node63&#45;&gt;Node62</title>
<path fill="none" stroke="midnightblue" d="M922.12,-76C943.05,-76 965.75,-76 983.46,-76"/>
<polygon fill="midnightblue" stroke="midnightblue" points="922.01,-72.5 912.01,-76 922.01,-79.5 922.01,-72.5"/>
</g>
<!-- Node64 -->
<g id="node49" class="node">
<title>Node64</title>
<g id="a_node49"><a xlink:href="classSynchronizerVector.html" target="_top" xlink:title=" ">
<polygon fill="white" stroke="black" points="630,-66.5 630,-85.5 740,-85.5 740,-66.5 630,-66.5"/>
<text text-anchor="middle" x="685" y="-73.5" font-family="Helvetica,sans-Serif" font-size="10.00">SynchronizerVector</text>
</a>
</g>
</g>
<!-- Node64&#45;&gt;Node63 -->
<g id="edge69" class="edge">
<title>Node64&#45;&gt;Node63</title>
<path fill="none" stroke="midnightblue" d="M750.48,-76C770.38,-76 791.98,-76 810.73,-76"/>
<polygon fill="midnightblue" stroke="midnightblue" points="750.26,-72.5 740.26,-76 750.26,-79.5 750.26,-72.5"/>
</g>
<!-- Node65 -->
<g id="node50" class="node">
<title>Node65</title>
<g id="a_node50"><a xlink:href="classSynchronizerOneShotCntVector.html" target="_top" xlink:title=" ">
<polygon fill="white" stroke="red" points="601,-28.5 601,-47.5 769,-47.5 769,-28.5 601,-28.5"/>
<text text-anchor="middle" x="685" y="-35.5" font-family="Helvetica,sans-Serif" font-size="10.00">SynchronizerOneShotCntVector</text>
</a>
</g>
</g>
<!-- Node65&#45;&gt;Node63 -->
<g id="edge70" class="edge">
<title>Node65&#45;&gt;Node63</title>
<path fill="none" stroke="midnightblue" d="M739.97,-49.75C764.64,-55.13 793.49,-61.41 816.78,-66.48"/>
<polygon fill="midnightblue" stroke="midnightblue" points="740.55,-46.3 730.03,-47.59 739.06,-53.14 740.55,-46.3"/>
</g>
</g>
</svg>
