<?xml version="1.0" encoding="UTF-8" standalone="no"?>
<!DOCTYPE svg PUBLIC "-//W3C//DTD SVG 1.1//EN"
 "http://www.w3.org/Graphics/SVG/1.1/DTD/svg11.dtd">
<!-- Generated by graphviz version 2.40.1 (20161225.0304)
 -->
<!-- Title: AxiLiteSrpV0Tb Pages: 1 -->
<!--zoomable 487 -->
<svg id="main" version="1.1" xmlns="http://www.w3.org/2000/svg" xmlns:xlink="http://www.w3.org/1999/xlink" xml:space="preserve" onload="init(evt)">
<style type="text/css"><![CDATA[
.edge:hover path { stroke: red; }
.edge:hover polygon { stroke: red; fill: red; }
]]></style>
<script type="text/javascript"><![CDATA[
var edges = document.getElementsByTagName('g');
if (edges && edges.length) {
  for (var i=0;i<edges.length;i++) {
    if (edges[i].id.substr(0,4)=='edge') {
      edges[i].setAttribute('class','edge');
    }
  }
}
]]></script>
        <defs>
                <circle id="rim" cx="0" cy="0" r="7"/>
                <circle id="rim2" cx="0" cy="0" r="3.5"/>
                <g id="zoomPlus">
                        <use xlink:href="#rim" fill="#404040">
                                <set attributeName="fill" to="#808080" begin="zoomplus.mouseover" end="zoomplus.mouseout"/>
                        </use>
                        <path d="M-4,0h8M0,-4v8" fill="none" stroke="white" stroke-width="1.5" pointer-events="none"/>
                </g>
                <g id="zoomMin">
                        <use xlink:href="#rim" fill="#404040">
                                <set attributeName="fill" to="#808080" begin="zoomminus.mouseover" end="zoomminus.mouseout"/>
                        </use>
                        <path d="M-4,0h8" fill="none" stroke="white" stroke-width="1.5" pointer-events="none"/>
                </g>
                <g id="dirArrow">
                        <path fill="none" stroke="white" stroke-width="1.5" d="M0,-3.0v7 M-2.5,-0.5L0,-3.0L2.5,-0.5"/>
                </g>
               <g id="resetDef">
                       <use xlink:href="#rim2" fill="#404040">
                               <set attributeName="fill" to="#808080" begin="reset.mouseover" end="reset.mouseout"/>
                       </use>
               </g>
        </defs>

<script type="text/javascript">
var viewWidth = 1217;
var viewHeight = 487;
var sectionId = 'dynsection-1';
</script>
<script xlink:href="svgpan.js"/>
<svg id="graph" class="graph">
<g id="viewport">
<title>AxiLiteSrpV0Tb</title>
<polygon fill="#ffffff" stroke="transparent" points="-4,4 -4,-482.7452 1213,-482.7452 1213,4 -4,4"/>
<!-- Node32 -->
<g id="node1" class="node">
<title>Node32</title>
<polygon fill="#bfbfbf" stroke="#000000" points="1118,-228.5 1118,-247.5 1209,-247.5 1209,-228.5 1118,-228.5"/>
<text text-anchor="middle" x="1163.5" y="-235.5" font-family="Helvetica,sans-Serif" font-size="10.00" fill="#000000">AxiLiteSrpV0Tb</text>
</g>
<!-- Node33 -->
<g id="node2" class="node">
<title>Node33</title>
<g id="a_node2"><a xlink:href="classClkRst.html" target="_top" xlink:title="ClkRst(2)">
<polygon fill="#ffffff" stroke="#000000" points="1011.5,-285.5 1011.5,-304.5 1073.5,-304.5 1073.5,-285.5 1011.5,-285.5"/>
<text text-anchor="middle" x="1042.5" y="-292.5" font-family="Helvetica,sans-Serif" font-size="10.00" fill="#000000">ClkRst(2)</text>
</a>
</g>
</g>
<!-- Node33&#45;&gt;Node32 -->
<g id="edge1" class="edge">
<title>Node33&#45;&gt;Node32</title>
<path fill="none" stroke="#191970" d="M1072.0008,-281.1029C1094.0782,-270.7028 1123.7016,-256.748 1143.1812,-247.5716"/>
<polygon fill="#191970" stroke="#191970" points="1070.3076,-278.0316 1062.7527,-285.4595 1073.2908,-284.3641 1070.3076,-278.0316"/>
</g>
<!-- Node34 -->
<g id="node3" class="node">
<title>Node34</title>
<g id="a_node3"><a xlink:href="classAxiLiteSrpV0.html" target="_top" xlink:title="AxiLiteSrpV0">
<polygon fill="#ffffff" stroke="#000000" points="888,-285.5 888,-304.5 967,-304.5 967,-285.5 888,-285.5"/>
<text text-anchor="middle" x="927.5" y="-292.5" font-family="Helvetica,sans-Serif" font-size="10.00" fill="#000000">AxiLiteSrpV0</text>
</a>
</g>
</g>
<!-- Node34&#45;&gt;Node32 -->
<g id="edge2" class="edge">
<title>Node34&#45;&gt;Node32</title>
<path fill="none" stroke="#191970" d="M974.9866,-282.9415C984.2702,-280.6147 993.9359,-278.2134 1003,-276 1043.6136,-266.0824 1090.1059,-255.1173 1122.5618,-247.5253"/>
<polygon fill="#191970" stroke="#191970" points="973.9541,-279.5921 965.1093,-285.4248 975.6609,-286.3808 973.9541,-279.5921"/>
</g>
<!-- Node35 -->
<g id="node4" class="node">
<title>Node35</title>
<g id="a_node4"><a xlink:href="classAxiStreamFifoV2.html" target="_top" xlink:title="AxiStreamFifoV2(2)">
<polygon fill="#ffffff" stroke="#000000" points="741,-304.5 741,-323.5 852,-323.5 852,-304.5 741,-304.5"/>
<text text-anchor="middle" x="796.5" y="-311.5" font-family="Helvetica,sans-Serif" font-size="10.00" fill="#000000">AxiStreamFifoV2(2)</text>
</a>
</g>
</g>
<!-- Node35&#45;&gt;Node34 -->
<g id="edge3" class="edge">
<title>Node35&#45;&gt;Node34</title>
<path fill="none" stroke="#191970" d="M861.9631,-304.5053C870.7686,-303.2282 879.5749,-301.951 887.7456,-300.7659"/>
<polygon fill="#191970" stroke="#191970" points="861.4498,-301.0431 852.0558,-305.9423 862.4547,-307.9706 861.4498,-301.0431"/>
</g>
<!-- Node36 -->
<g id="node5" class="node">
<title>Node36</title>
<g id="a_node5"><a xlink:href="classAxiStreamResize.html" target="_top" xlink:title="AxiStreamResize(2)">
<polygon fill="#ffffff" stroke="#000000" points="592,-266.5 592,-285.5 705,-285.5 705,-266.5 592,-266.5"/>
<text text-anchor="middle" x="648.5" y="-273.5" font-family="Helvetica,sans-Serif" font-size="10.00" fill="#000000">AxiStreamResize(2)</text>
</a>
</g>
</g>
<!-- Node36&#45;&gt;Node35 -->
<g id="edge4" class="edge">
<title>Node36&#45;&gt;Node35</title>
<path fill="none" stroke="#191970" d="M695.6735,-288.1121C716.2856,-293.4044 740.1093,-299.5213 759.4219,-304.4799"/>
<polygon fill="#191970" stroke="#191970" points="696.4029,-284.6859 685.8466,-285.589 694.662,-291.466 696.4029,-284.6859"/>
</g>
<!-- Node55 -->
<g id="node24" class="node">
<title>Node55</title>
<g id="a_node24"><a xlink:href="classAxiStreamFifoV2.html" target="_top" xlink:title="AxiStreamFifoV2">
<polygon fill="#ffffff" stroke="#000000" points="747.5,-228.5 747.5,-247.5 845.5,-247.5 845.5,-228.5 747.5,-228.5"/>
<text text-anchor="middle" x="796.5" y="-235.5" font-family="Helvetica,sans-Serif" font-size="10.00" fill="#000000">AxiStreamFifoV2</text>
</a>
</g>
</g>
<!-- Node36&#45;&gt;Node55 -->
<g id="edge32" class="edge">
<title>Node36&#45;&gt;Node55</title>
<path fill="none" stroke="#191970" d="M695.6735,-263.8879C716.2856,-258.5956 740.1093,-252.4787 759.4219,-247.5201"/>
<polygon fill="#191970" stroke="#191970" points="694.662,-260.534 685.8466,-266.411 696.4029,-267.3141 694.662,-260.534"/>
</g>
<!-- Node37 -->
<g id="node6" class="node">
<title>Node37</title>
<g id="a_node6"><a xlink:href="classAxiStreamPipeline.html" target="_top" xlink:title="AxiStreamPipeline">
<polygon fill="#ffffff" stroke="#000000" points="431,-247.5 431,-266.5 538,-266.5 538,-247.5 431,-247.5"/>
<text text-anchor="middle" x="484.5" y="-254.5" font-family="Helvetica,sans-Serif" font-size="10.00" fill="#000000">AxiStreamPipeline</text>
</a>
</g>
</g>
<!-- Node37&#45;&gt;Node35 -->
<g id="edge27" class="edge">
<title>Node37&#45;&gt;Node35</title>
<path fill="none" stroke="#191970" d="M516.1017,-270.5007C537.2059,-278.9317 565.7956,-289.2443 592,-295 641.6273,-305.9004 699.3696,-310.5527 740.8156,-312.5353"/>
<polygon fill="#191970" stroke="#191970" points="517.2588,-267.1929 506.6773,-266.6622 514.6183,-273.6758 517.2588,-267.1929"/>
</g>
<!-- Node37&#45;&gt;Node36 -->
<g id="edge5" class="edge">
<title>Node37&#45;&gt;Node36</title>
<path fill="none" stroke="#191970" d="M548.461,-264.4101C562.777,-266.0687 577.8648,-267.8167 591.8596,-269.438"/>
<polygon fill="#191970" stroke="#191970" points="548.5361,-260.8955 538.1997,-263.2213 547.7305,-267.849 548.5361,-260.8955"/>
</g>
<!-- Node37&#45;&gt;Node55 -->
<g id="edge35" class="edge">
<title>Node37&#45;&gt;Node55</title>
<path fill="none" stroke="#191970" d="M548.4479,-253.1057C607.4164,-249.5147 693.7059,-244.2599 747.4142,-240.9892"/>
<polygon fill="#191970" stroke="#191970" points="547.9034,-249.6323 538.1347,-253.7338 548.329,-256.6194 547.9034,-249.6323"/>
</g>
<!-- Node56 -->
<g id="node25" class="node">
<title>Node56</title>
<g id="a_node25"><a xlink:href="classSsiObFrameFilter.html" target="_top" xlink:title="SsiObFrameFilter">
<polygon fill="#ffffff" stroke="#000000" points="747.5,-190.5 747.5,-209.5 845.5,-209.5 845.5,-190.5 747.5,-190.5"/>
<text text-anchor="middle" x="796.5" y="-197.5" font-family="Helvetica,sans-Serif" font-size="10.00" fill="#000000">SsiObFrameFilter</text>
</a>
</g>
</g>
<!-- Node37&#45;&gt;Node56 -->
<g id="edge37" class="edge">
<title>Node37&#45;&gt;Node56</title>
<path fill="none" stroke="#191970" d="M546.6659,-245.6428C605.681,-234.8612 693.2056,-218.8711 747.4544,-208.9602"/>
<polygon fill="#191970" stroke="#191970" points="545.9299,-242.2192 536.7218,-247.4595 547.188,-249.1052 545.9299,-242.2192"/>
</g>
<!-- Node38 -->
<g id="node7" class="node">
<title>Node38</title>
<g id="a_node7"><a xlink:href="classFifoCascade.html" target="_top" xlink:title="FifoCascade(2)">
<polygon fill="#ffffff" stroke="#000000" points="604,-342.5 604,-361.5 693,-361.5 693,-342.5 604,-342.5"/>
<text text-anchor="middle" x="648.5" y="-349.5" font-family="Helvetica,sans-Serif" font-size="10.00" fill="#000000">FifoCascade(2)</text>
</a>
</g>
</g>
<!-- Node38&#45;&gt;Node35 -->
<g id="edge6" class="edge">
<title>Node38&#45;&gt;Node35</title>
<path fill="none" stroke="#191970" d="M695.6735,-339.8879C716.2856,-334.5956 740.1093,-328.4787 759.4219,-323.5201"/>
<polygon fill="#191970" stroke="#191970" points="694.662,-336.534 685.8466,-342.411 696.4029,-343.3141 694.662,-336.534"/>
</g>
<!-- Node38&#45;&gt;Node55 -->
<g id="edge33" class="edge">
<title>Node38&#45;&gt;Node55</title>
<path fill="none" stroke="#191970" d="M668.8506,-336.3245C699.9065,-312.4031 758.218,-267.4875 783.8576,-247.738"/>
<polygon fill="#191970" stroke="#191970" points="666.6503,-333.6014 660.8638,-342.4765 670.9219,-339.147 666.6503,-333.6014"/>
</g>
<!-- Node39 -->
<g id="node8" class="node">
<title>Node39</title>
<g id="a_node8"><a xlink:href="classFifo.html" target="_top" xlink:title="Fifo(4)">
<polygon fill="#ffffff" stroke="#000000" points="461,-342.5 461,-361.5 508,-361.5 508,-342.5 461,-342.5"/>
<text text-anchor="middle" x="484.5" y="-349.5" font-family="Helvetica,sans-Serif" font-size="10.00" fill="#000000">Fifo(4)</text>
</a>
</g>
</g>
<!-- Node39&#45;&gt;Node38 -->
<g id="edge7" class="edge">
<title>Node39&#45;&gt;Node38</title>
<path fill="none" stroke="#191970" d="M518.3563,-352C543.1149,-352 576.9399,-352 603.9004,-352"/>
<polygon fill="#191970" stroke="#191970" points="518.347,-348.5001 508.347,-352 518.347,-355.5001 518.347,-348.5001"/>
</g>
<!-- Node40 -->
<g id="node9" class="node">
<title>Node40</title>
<g id="a_node9"><a xlink:href="classFifoXpm.html" target="_top" xlink:title="FifoXpm">
<polygon fill="#ffffff" stroke="#000000" points="298.5,-418.5 298.5,-437.5 354.5,-437.5 354.5,-418.5 298.5,-418.5"/>
<text text-anchor="middle" x="326.5" y="-425.5" font-family="Helvetica,sans-Serif" font-size="10.00" fill="#000000">FifoXpm</text>
</a>
</g>
</g>
<!-- Node40&#45;&gt;Node39 -->
<g id="edge8" class="edge">
<title>Node40&#45;&gt;Node39</title>
<path fill="none" stroke="#191970" d="M363.23,-414.8113C367.902,-412.9496 372.589,-410.9894 377,-409 410.1212,-394.0618 447.263,-373.4661 468.0713,-361.5585"/>
<polygon fill="#191970" stroke="#191970" points="361.8208,-411.6035 353.7541,-418.4723 364.3436,-418.1331 361.8208,-411.6035"/>
</g>
<!-- Node41 -->
<g id="node10" class="node">
<title>Node41</title>
<g id="a_node10"><a xlink:href="classFifoOutputPipeline.html" target="_top" xlink:title="FifoOutputPipeline">
<polygon fill="#ffffff" stroke="#000000" points="125,-418.5 125,-437.5 231,-437.5 231,-418.5 125,-418.5"/>
<text text-anchor="middle" x="178" y="-425.5" font-family="Helvetica,sans-Serif" font-size="10.00" fill="#000000">FifoOutputPipeline</text>
</a>
</g>
</g>
<!-- Node41&#45;&gt;Node40 -->
<g id="edge9" class="edge">
<title>Node41&#45;&gt;Node40</title>
<path fill="none" stroke="#191970" d="M241.4303,-428C261.25,-428 282.1208,-428 298.2297,-428"/>
<polygon fill="#191970" stroke="#191970" points="241.1925,-424.5001 231.1925,-428 241.1924,-431.5001 241.1925,-424.5001"/>
</g>
<!-- Node42 -->
<g id="node11" class="node">
<title>Node42</title>
<g id="a_node11"><a xlink:href="classFifoAlteraMf.html" target="_top" xlink:title="FifoAlteraMf">
<polygon fill="#ffffff" stroke="#000000" points="289,-380.5 289,-399.5 364,-399.5 364,-380.5 289,-380.5"/>
<text text-anchor="middle" x="326.5" y="-387.5" font-family="Helvetica,sans-Serif" font-size="10.00" fill="#000000">FifoAlteraMf</text>
</a>
</g>
</g>
<!-- Node41&#45;&gt;Node42 -->
<g id="edge11" class="edge">
<title>Node41&#45;&gt;Node42</title>
<path fill="none" stroke="#191970" d="M225.3329,-415.8879C246.0146,-410.5956 269.9188,-404.4787 289.2966,-399.5201"/>
<polygon fill="#191970" stroke="#191970" points="224.293,-412.5411 215.4728,-418.411 226.0284,-419.3226 224.293,-412.5411"/>
</g>
<!-- Node43 -->
<g id="node12" class="node">
<title>Node43</title>
<g id="a_node12"><a xlink:href="classFifoAsync.html" target="_top" xlink:title="FifoAsync">
<polygon fill="#ffffff" stroke="#000000" points="295,-304.5 295,-323.5 358,-323.5 358,-304.5 295,-304.5"/>
<text text-anchor="middle" x="326.5" y="-311.5" font-family="Helvetica,sans-Serif" font-size="10.00" fill="#000000">FifoAsync</text>
</a>
</g>
</g>
<!-- Node41&#45;&gt;Node43 -->
<g id="edge20" class="edge">
<title>Node41&#45;&gt;Node43</title>
<path fill="none" stroke="#191970" d="M233.6666,-413.6755C235.8996,-412.2612 238.0253,-410.7073 240,-409 268.2736,-384.5554 248.5038,-358.316 276,-333 281.3063,-328.1144 287.9892,-324.4489 294.7406,-321.7115"/>
<polygon fill="#191970" stroke="#191970" points="231.8143,-410.6958 224.6135,-418.4674 235.0891,-416.8825 231.8143,-410.6958"/>
</g>
<!-- Node51 -->
<g id="node20" class="node">
<title>Node51</title>
<g id="a_node20"><a xlink:href="classFifoSync.html" target="_top" xlink:title="FifoSync">
<polygon fill="#ffffff" stroke="#000000" points="298,-342.5 298,-361.5 355,-361.5 355,-342.5 298,-342.5"/>
<text text-anchor="middle" x="326.5" y="-349.5" font-family="Helvetica,sans-Serif" font-size="10.00" fill="#000000">FifoSync</text>
</a>
</g>
</g>
<!-- Node41&#45;&gt;Node51 -->
<g id="edge25" class="edge">
<title>Node41&#45;&gt;Node51</title>
<path fill="none" stroke="#191970" d="M229.1786,-414.6878C232.9464,-412.9976 236.5986,-411.1084 240,-409 259.7738,-396.7431 256.6188,-383.8687 276,-371 282.6332,-366.5957 290.4289,-363.0215 297.8839,-360.2117"/>
<polygon fill="#191970" stroke="#191970" points="227.6415,-411.5328 219.6519,-418.491 230.2369,-418.0339 227.6415,-411.5328"/>
</g>
<!-- Node42&#45;&gt;Node39 -->
<g id="edge10" class="edge">
<title>Node42&#45;&gt;Node39</title>
<path fill="none" stroke="#191970" d="M374.154,-378.5389C402.7438,-371.6629 437.8711,-363.2145 460.7015,-357.7237"/>
<polygon fill="#191970" stroke="#191970" points="373.2492,-375.1566 364.3449,-380.8981 374.8862,-381.9626 373.2492,-375.1566"/>
</g>
<!-- Node43&#45;&gt;Node39 -->
<g id="edge12" class="edge">
<title>Node43&#45;&gt;Node39</title>
<path fill="none" stroke="#191970" d="M368.1213,-324.0102C397.645,-331.1108 436.2199,-340.3883 460.6854,-346.2724"/>
<polygon fill="#191970" stroke="#191970" points="368.6351,-320.534 358.0939,-321.5985 366.9982,-327.34 368.6351,-320.534"/>
</g>
<!-- Node63 -->
<g id="node32" class="node">
<title>Node63</title>
<g id="a_node32"><a xlink:href="classSynchronizerFifo.html" target="_top" xlink:title="SynchronizerFifo">
<polygon fill="#ffffff" stroke="#000000" points="436,-199.5 436,-218.5 533,-218.5 533,-199.5 436,-199.5"/>
<text text-anchor="middle" x="484.5" y="-206.5" font-family="Helvetica,sans-Serif" font-size="10.00" fill="#000000">SynchronizerFifo</text>
</a>
</g>
</g>
<!-- Node43&#45;&gt;Node63 -->
<g id="edge47" class="edge">
<title>Node43&#45;&gt;Node63</title>
<path fill="none" stroke="#191970" d="M342.4356,-296.9925C358.8518,-280.2394 385.8108,-254.7859 413,-238 425.8799,-230.0483 441.3203,-223.4661 454.5512,-218.5937"/>
<polygon fill="#191970" stroke="#191970" points="339.6798,-294.8087 335.2688,-304.4417 344.7242,-299.6619 339.6798,-294.8087"/>
</g>
<!-- Node44 -->
<g id="node13" class="node">
<title>Node44</title>
<g id="a_node13"><a xlink:href="classRstSync.html" target="_top" xlink:title="RstSync(2)">
<polygon fill="#ffffff" stroke="#000000" points="143.5,-228.5 143.5,-247.5 212.5,-247.5 212.5,-228.5 143.5,-228.5"/>
<text text-anchor="middle" x="178" y="-235.5" font-family="Helvetica,sans-Serif" font-size="10.00" fill="#000000">RstSync(2)</text>
</a>
</g>
</g>
<!-- Node44&#45;&gt;Node43 -->
<g id="edge13" class="edge">
<title>Node44&#45;&gt;Node43</title>
<path fill="none" stroke="#191970" d="M222.6761,-250.0054C228.6025,-252.0844 234.5188,-254.4195 240,-257 268.3126,-270.3293 298.0986,-291.8716 314.2754,-304.3046"/>
<polygon fill="#191970" stroke="#191970" points="223.3608,-246.5464 212.7679,-246.7505 221.176,-253.1968 223.3608,-246.5464"/>
</g>
<!-- Node45 -->
<g id="node14" class="node">
<title>Node45</title>
<g id="a_node14"><a xlink:href="classSynchronizer.html" target="_top" xlink:title="Synchronizer">
<polygon fill="#ffffff" stroke="#000000" points="0,-228.5 0,-247.5 80,-247.5 80,-228.5 0,-228.5"/>
<text text-anchor="middle" x="40" y="-235.5" font-family="Helvetica,sans-Serif" font-size="10.00" fill="#000000">Synchronizer</text>
</a>
</g>
</g>
<!-- Node45&#45;&gt;Node35 -->
<g id="edge26" class="edge">
<title>Node45&#45;&gt;Node35</title>
<path fill="none" stroke="#191970" d="M44.3228,-257.6213C55.1571,-304.9051 84.8433,-423.0172 116,-447 190.4372,-504.298 232.5641,-466 326.5,-466 326.5,-466 326.5,-466 484.5,-466 615.2486,-466 748.5161,-356.7848 786.0865,-323.5083"/>
<polygon fill="#191970" stroke="#191970" points="47.7002,-256.6871 42.0895,-247.6999 40.871,-258.2244 47.7002,-256.6871"/>
</g>
<!-- Node45&#45;&gt;Node44 -->
<g id="edge14" class="edge">
<title>Node45&#45;&gt;Node44</title>
<path fill="none" stroke="#191970" d="M90.3506,-238C107.8473,-238 127.0737,-238 143.05,-238"/>
<polygon fill="#191970" stroke="#191970" points="90.2863,-234.5001 80.2863,-238 90.2863,-241.5001 90.2863,-234.5001"/>
</g>
<!-- Node45&#45;&gt;Node55 -->
<g id="edge34" class="edge">
<title>Node45&#45;&gt;Node55</title>
<path fill="none" stroke="#191970" d="M56.7683,-221.0144C71.1375,-207.6272 93.091,-189.8003 116,-181 203.6886,-147.3153 232.5641,-162 326.5,-162 326.5,-162 326.5,-162 484.5,-162 540.0415,-162 698.129,-208.0395 765.4891,-228.4515"/>
<polygon fill="#191970" stroke="#191970" points="54.0017,-218.8201 49.2344,-228.2818 58.8616,-223.8581 54.0017,-218.8201"/>
</g>
<!-- Node46 -->
<g id="node15" class="node">
<title>Node46</title>
<g id="a_node15"><a xlink:href="classSynchronizerVector.html" target="_top" xlink:title="SynchronizerVector(2)">
<polygon fill="#ffffff" stroke="#000000" points="116,-190.5 116,-209.5 240,-209.5 240,-190.5 116,-190.5"/>
<text text-anchor="middle" x="178" y="-197.5" font-family="Helvetica,sans-Serif" font-size="10.00" fill="#000000">SynchronizerVector(2)</text>
</a>
</g>
</g>
<!-- Node46&#45;&gt;Node43 -->
<g id="edge15" class="edge">
<title>Node46&#45;&gt;Node43</title>
<path fill="none" stroke="#191970" d="M229.3987,-213.3165C233.0944,-215.0036 236.6716,-216.891 240,-219 276.7414,-242.2804 307.6982,-285.215 320.365,-304.3543"/>
<polygon fill="#191970" stroke="#191970" points="230.6244,-210.0368 220.042,-209.5236 227.9946,-216.5241 230.6244,-210.0368"/>
</g>
<!-- Node47 -->
<g id="node16" class="node">
<title>Node47</title>
<g id="a_node16"><a xlink:href="classSynchronizer.html" target="_top" xlink:title="Synchronizer(2)">
<polygon fill="#ffffff" stroke="#000000" points="131.5,-266.5 131.5,-285.5 224.5,-285.5 224.5,-266.5 131.5,-266.5"/>
<text text-anchor="middle" x="178" y="-273.5" font-family="Helvetica,sans-Serif" font-size="10.00" fill="#000000">Synchronizer(2)</text>
</a>
</g>
</g>
<!-- Node47&#45;&gt;Node43 -->
<g id="edge16" class="edge">
<title>Node47&#45;&gt;Node43</title>
<path fill="none" stroke="#191970" d="M225.2299,-288.0858C247.8559,-293.8756 274.358,-300.6573 294.5746,-305.8305"/>
<polygon fill="#191970" stroke="#191970" points="226.0284,-284.6774 215.4728,-285.589 224.293,-291.4589 226.0284,-284.6774"/>
</g>
<!-- Node48 -->
<g id="node17" class="node">
<title>Node48</title>
<g id="a_node17"><a xlink:href="classFifoWrFsm.html" target="_top" xlink:title="FifoWrFsm">
<polygon fill="#ffffff" stroke="#000000" points="144.5,-342.5 144.5,-361.5 211.5,-361.5 211.5,-342.5 144.5,-342.5"/>
<text text-anchor="middle" x="178" y="-349.5" font-family="Helvetica,sans-Serif" font-size="10.00" fill="#000000">FifoWrFsm</text>
</a>
</g>
</g>
<!-- Node48&#45;&gt;Node43 -->
<g id="edge17" class="edge">
<title>Node48&#45;&gt;Node43</title>
<path fill="none" stroke="#191970" d="M221.446,-340.8825C244.9947,-334.8566 273.568,-327.5449 294.9672,-322.069"/>
<polygon fill="#191970" stroke="#191970" points="220.5171,-337.5073 211.6969,-343.3772 222.2525,-344.2888 220.5171,-337.5073"/>
</g>
<!-- Node48&#45;&gt;Node51 -->
<g id="edge22" class="edge">
<title>Node48&#45;&gt;Node51</title>
<path fill="none" stroke="#191970" d="M221.8613,-352C246.4387,-352 276.3846,-352 297.9336,-352"/>
<polygon fill="#191970" stroke="#191970" points="221.697,-348.5001 211.6969,-352 221.6969,-355.5001 221.697,-348.5001"/>
</g>
<!-- Node49 -->
<g id="node18" class="node">
<title>Node49</title>
<g id="a_node18"><a xlink:href="classFifoRdFsm.html" target="_top" xlink:title="FifoRdFsm">
<polygon fill="#ffffff" stroke="#000000" points="144.5,-304.5 144.5,-323.5 211.5,-323.5 211.5,-304.5 144.5,-304.5"/>
<text text-anchor="middle" x="178" y="-311.5" font-family="Helvetica,sans-Serif" font-size="10.00" fill="#000000">FifoRdFsm</text>
</a>
</g>
</g>
<!-- Node49&#45;&gt;Node43 -->
<g id="edge18" class="edge">
<title>Node49&#45;&gt;Node43</title>
<path fill="none" stroke="#191970" d="M221.7617,-314C245.2497,-314 273.6636,-314 294.9672,-314"/>
<polygon fill="#191970" stroke="#191970" points="221.697,-310.5001 211.6969,-314 221.6969,-317.5001 221.697,-310.5001"/>
</g>
<!-- Node49&#45;&gt;Node51 -->
<g id="edge23" class="edge">
<title>Node49&#45;&gt;Node51</title>
<path fill="none" stroke="#191970" d="M221.5325,-325.1396C246.1712,-331.4445 276.2884,-339.1512 297.9336,-344.6901"/>
<polygon fill="#191970" stroke="#191970" points="222.2525,-321.7112 211.6969,-322.6228 220.5171,-328.4927 222.2525,-321.7112"/>
</g>
<!-- Node50 -->
<g id="node19" class="node">
<title>Node50</title>
<g id="a_node19"><a xlink:href="classSimpleDualPortRam.html" target="_top" xlink:title="SimpleDualPortRam">
<polygon fill="#ffffff" stroke="#000000" points="120.5,-380.5 120.5,-399.5 235.5,-399.5 235.5,-380.5 120.5,-380.5"/>
<text text-anchor="middle" x="178" y="-387.5" font-family="Helvetica,sans-Serif" font-size="10.00" fill="#000000">SimpleDualPortRam</text>
</a>
</g>
</g>
<!-- Node50&#45;&gt;Node43 -->
<g id="edge19" class="edge">
<title>Node50&#45;&gt;Node43</title>
<path fill="none" stroke="#191970" d="M229.1786,-376.6878C232.9464,-374.9976 236.5986,-373.1084 240,-371 259.7738,-358.7431 256.6188,-345.8687 276,-333 281.7748,-329.1657 288.4307,-325.9605 294.9758,-323.3411"/>
<polygon fill="#191970" stroke="#191970" points="227.6415,-373.5328 219.6519,-380.491 230.2369,-380.0339 227.6415,-373.5328"/>
</g>
<!-- Node50&#45;&gt;Node51 -->
<g id="edge24" class="edge">
<title>Node50&#45;&gt;Node51</title>
<path fill="none" stroke="#191970" d="M225.4058,-377.8692C249.2747,-371.7614 277.4204,-364.5591 297.9446,-359.3071"/>
<polygon fill="#191970" stroke="#191970" points="224.293,-374.5411 215.4728,-380.411 226.0284,-381.3226 224.293,-374.5411"/>
</g>
<!-- Node51&#45;&gt;Node39 -->
<g id="edge21" class="edge">
<title>Node51&#45;&gt;Node39</title>
<path fill="none" stroke="#191970" d="M365.2014,-352C395.081,-352 435.4645,-352 460.7416,-352"/>
<polygon fill="#191970" stroke="#191970" points="365.1126,-348.5001 355.1126,-352 365.1126,-355.5001 365.1126,-348.5001"/>
</g>
<!-- Node52 -->
<g id="node21" class="node">
<title>Node52</title>
<g id="a_node21"><a xlink:href="classSrpV0AxiLite.html" target="_top" xlink:title="SrpV0AxiLite">
<polygon fill="#ffffff" stroke="#000000" points="1003,-209.5 1003,-228.5 1082,-228.5 1082,-209.5 1003,-209.5"/>
<text text-anchor="middle" x="1042.5" y="-216.5" font-family="Helvetica,sans-Serif" font-size="10.00" fill="#000000">SrpV0AxiLite</text>
</a>
</g>
</g>
<!-- Node52&#45;&gt;Node32 -->
<g id="edge28" class="edge">
<title>Node52&#45;&gt;Node32</title>
<path fill="none" stroke="#191970" d="M1091.9998,-226.7727C1100.5721,-228.1188 1109.4493,-229.5127 1117.9113,-230.8415"/>
<polygon fill="#191970" stroke="#191970" points="1092.5418,-223.315 1082.1199,-225.2213 1091.4559,-230.2303 1092.5418,-223.315"/>
</g>
<!-- Node53 -->
<g id="node22" class="node">
<title>Node53</title>
<g id="a_node22"><a xlink:href="classSsiFifo.html" target="_top" xlink:title="SsiFifo">
<polygon fill="#ffffff" stroke="#000000" points="903.5,-190.5 903.5,-209.5 951.5,-209.5 951.5,-190.5 903.5,-190.5"/>
<text text-anchor="middle" x="927.5" y="-197.5" font-family="Helvetica,sans-Serif" font-size="10.00" fill="#000000">SsiFifo</text>
</a>
</g>
</g>
<!-- Node53&#45;&gt;Node52 -->
<g id="edge29" class="edge">
<title>Node53&#45;&gt;Node52</title>
<path fill="none" stroke="#191970" d="M961.4795,-205.614C974.3778,-207.745 989.1839,-210.1913 1002.5812,-212.4047"/>
<polygon fill="#191970" stroke="#191970" points="962.0446,-202.16 951.6078,-203.983 960.9035,-209.0664 962.0446,-202.16"/>
</g>
<!-- Node54 -->
<g id="node23" class="node">
<title>Node54</title>
<g id="a_node23"><a xlink:href="classSsiIbFrameFilter.html" target="_top" xlink:title="SsiIbFrameFilter">
<polygon fill="#ffffff" stroke="#000000" points="749.5,-152.5 749.5,-171.5 843.5,-171.5 843.5,-152.5 749.5,-152.5"/>
<text text-anchor="middle" x="796.5" y="-159.5" font-family="Helvetica,sans-Serif" font-size="10.00" fill="#000000">SsiIbFrameFilter</text>
</a>
</g>
</g>
<!-- Node54&#45;&gt;Node53 -->
<g id="edge30" class="edge">
<title>Node54&#45;&gt;Node53</title>
<path fill="none" stroke="#191970" d="M839.3004,-174.4154C860.4676,-180.5555 885.244,-187.7425 903.1382,-192.9332"/>
<polygon fill="#191970" stroke="#191970" points="840.136,-171.0136 829.5568,-171.589 838.1858,-177.7364 840.136,-171.0136"/>
</g>
<!-- Node55&#45;&gt;Node52 -->
<g id="edge38" class="edge">
<title>Node55&#45;&gt;Node52</title>
<path fill="none" stroke="#191970" d="M855.7306,-233.4253C901.2734,-229.9077 962.9393,-225.1449 1002.7249,-222.0721"/>
<polygon fill="#191970" stroke="#191970" points="855.3913,-229.941 845.6905,-234.2007 855.9304,-236.9202 855.3913,-229.941"/>
</g>
<!-- Node55&#45;&gt;Node53 -->
<g id="edge31" class="edge">
<title>Node55&#45;&gt;Node53</title>
<path fill="none" stroke="#191970" d="M839.3004,-225.5846C860.4676,-219.4445 885.244,-212.2575 903.1382,-207.0668"/>
<polygon fill="#191970" stroke="#191970" points="838.1858,-222.2636 829.5568,-228.411 840.136,-228.9864 838.1858,-222.2636"/>
</g>
<!-- Node56&#45;&gt;Node53 -->
<g id="edge36" class="edge">
<title>Node56&#45;&gt;Node53</title>
<path fill="none" stroke="#191970" d="M855.9826,-200C872.7475,-200 890.0426,-200 903.4249,-200"/>
<polygon fill="#191970" stroke="#191970" points="855.6523,-196.5001 845.6523,-200 855.6522,-203.5001 855.6523,-196.5001"/>
</g>
<!-- Node57 -->
<g id="node26" class="node">
<title>Node57</title>
<g id="a_node26"><a xlink:href="classAxiDualPortRam.html" target="_top" xlink:title="AxiDualPortRam">
<polygon fill="#ffffff" stroke="#000000" points="600,-95.5 600,-114.5 697,-114.5 697,-95.5 600,-95.5"/>
<text text-anchor="middle" x="648.5" y="-102.5" font-family="Helvetica,sans-Serif" font-size="10.00" fill="#000000">AxiDualPortRam</text>
</a>
</g>
</g>
<!-- Node57&#45;&gt;Node32 -->
<g id="edge39" class="edge">
<title>Node57&#45;&gt;Node32</title>
<path fill="none" stroke="#191970" d="M706.966,-113.0987C791.4496,-125.8495 951.8078,-154.0031 1082,-200 1104.5217,-207.9569 1129.2341,-219.9762 1145.4741,-228.3598"/>
<polygon fill="#191970" stroke="#191970" points="707.4532,-109.6327 697.0464,-111.6199 706.421,-116.5562 707.4532,-109.6327"/>
</g>
<!-- Node58 -->
<g id="node27" class="node">
<title>Node58</title>
<g id="a_node27"><a xlink:href="classTrueDualPortRamXpm.html" target="_top" xlink:title="TrueDualPortRamXpm">
<polygon fill="#ffffff" stroke="#000000" points="422.5,-38.5 422.5,-57.5 546.5,-57.5 546.5,-38.5 422.5,-38.5"/>
<text text-anchor="middle" x="484.5" y="-45.5" font-family="Helvetica,sans-Serif" font-size="10.00" fill="#000000">TrueDualPortRamXpm</text>
</a>
</g>
</g>
<!-- Node58&#45;&gt;Node57 -->
<g id="edge40" class="edge">
<title>Node58&#45;&gt;Node57</title>
<path fill="none" stroke="#191970" d="M533.8264,-60.2062C541.3032,-62.3159 548.8904,-64.6063 556,-67 581.0098,-75.4203 608.9303,-87.238 627.4881,-95.4502"/>
<polygon fill="#191970" stroke="#191970" points="534.6799,-56.8111 524.1104,-57.5434 532.8296,-63.5622 534.6799,-56.8111"/>
</g>
<!-- Node59 -->
<g id="node28" class="node">
<title>Node59</title>
<g id="a_node28"><a xlink:href="classTrueDualPortRamAlteraMf.html" target="_top" xlink:title="TrueDualPortRamAlteraMf">
<polygon fill="#ffffff" stroke="#000000" points="413,-.5 413,-19.5 556,-19.5 556,-.5 413,-.5"/>
<text text-anchor="middle" x="484.5" y="-7.5" font-family="Helvetica,sans-Serif" font-size="10.00" fill="#000000">TrueDualPortRamAlteraMf</text>
</a>
</g>
</g>
<!-- Node59&#45;&gt;Node57 -->
<g id="edge41" class="edge">
<title>Node59&#45;&gt;Node57</title>
<path fill="none" stroke="#191970" d="M541.6909,-22.8011C546.635,-24.6213 551.4729,-26.6789 556,-29 590.5858,-46.7323 624.0005,-79.1112 639.5005,-95.2773"/>
<polygon fill="#191970" stroke="#191970" points="542.6999,-19.4479 532.106,-19.5866 540.4741,-26.0846 542.6999,-19.4479"/>
</g>
<!-- Node60 -->
<g id="node29" class="node">
<title>Node60</title>
<g id="a_node29"><a xlink:href="classDualPortRam.html" target="_top" xlink:title="DualPortRam(2)">
<polygon fill="#ffffff" stroke="#000000" points="437,-76.5 437,-95.5 532,-95.5 532,-76.5 437,-76.5"/>
<text text-anchor="middle" x="484.5" y="-83.5" font-family="Helvetica,sans-Serif" font-size="10.00" fill="#000000">DualPortRam(2)</text>
</a>
</g>
</g>
<!-- Node60&#45;&gt;Node57 -->
<g id="edge42" class="edge">
<title>Node60&#45;&gt;Node57</title>
<path fill="none" stroke="#191970" d="M542.3322,-92.7001C561.1818,-94.8839 581.9024,-97.2844 599.9957,-99.3806"/>
<polygon fill="#191970" stroke="#191970" points="542.7128,-89.2208 532.3765,-91.5467 541.9072,-96.1743 542.7128,-89.2208"/>
</g>
<!-- Node61 -->
<g id="node30" class="node">
<title>Node61</title>
<g id="a_node30"><a xlink:href="classTrueDualPortRam.html" target="_top" xlink:title="TrueDualPortRam">
<polygon fill="#ffffff" stroke="#000000" points="276,-114.5 276,-133.5 377,-133.5 377,-114.5 276,-114.5"/>
<text text-anchor="middle" x="326.5" y="-121.5" font-family="Helvetica,sans-Serif" font-size="10.00" fill="#000000">TrueDualPortRam</text>
</a>
</g>
</g>
<!-- Node61&#45;&gt;Node57 -->
<g id="edge45" class="edge">
<title>Node61&#45;&gt;Node57</title>
<path fill="none" stroke="#191970" d="M387.5288,-120.3989C449.1846,-116.7608 543.2121,-111.2126 599.9716,-107.8635"/>
<polygon fill="#191970" stroke="#191970" points="386.9432,-116.9273 377.1667,-121.0103 387.3556,-123.9151 386.9432,-116.9273"/>
</g>
<!-- Node61&#45;&gt;Node60 -->
<g id="edge43" class="edge">
<title>Node61&#45;&gt;Node60</title>
<path fill="none" stroke="#191970" d="M376.2616,-112.032C398.4029,-106.7069 424.1116,-100.5238 444.9166,-95.5201"/>
<polygon fill="#191970" stroke="#191970" points="375.2744,-108.6696 366.3701,-114.411 376.9113,-115.4755 375.2744,-108.6696"/>
</g>
<!-- Node62 -->
<g id="node31" class="node">
<title>Node62</title>
<g id="a_node31"><a xlink:href="classQuadPortRam.html" target="_top" xlink:title="QuadPortRam">
<polygon fill="#ffffff" stroke="#000000" points="284.5,-76.5 284.5,-95.5 368.5,-95.5 368.5,-76.5 284.5,-76.5"/>
<text text-anchor="middle" x="326.5" y="-83.5" font-family="Helvetica,sans-Serif" font-size="10.00" fill="#000000">QuadPortRam</text>
</a>
</g>
</g>
<!-- Node62&#45;&gt;Node60 -->
<g id="edge44" class="edge">
<title>Node62&#45;&gt;Node60</title>
<path fill="none" stroke="#191970" d="M378.9454,-86C397.6032,-86 418.4973,-86 436.7415,-86"/>
<polygon fill="#191970" stroke="#191970" points="378.8411,-82.5001 368.8411,-86 378.8411,-89.5001 378.8411,-82.5001"/>
</g>
<!-- Node63&#45;&gt;Node57 -->
<g id="edge46" class="edge">
<title>Node63&#45;&gt;Node57</title>
<path fill="none" stroke="#191970" d="M508.0881,-194.0417C542.3074,-172.3417 604.7508,-132.7434 633.4018,-114.5745"/>
<polygon fill="#191970" stroke="#191970" points="506.2055,-191.0911 499.6348,-199.4023 509.9543,-197.0027 506.2055,-191.0911"/>
</g>
</g>
</svg>
        <g id="navigator" transform="translate(0 0)" fill="#404254">
                <rect fill="#f2f5e9" fill-opacity="0.5" stroke="#606060" stroke-width=".5" x="0" y="0" width="60" height="60"/>
                <use id="zoomplus" xlink:href="#zoomPlus" x="17" y="9" onmousedown="handleZoom(evt,'in')"/>
                <use id="zoomminus" xlink:href="#zoomMin" x="42" y="9" onmousedown="handleZoom(evt,'out')"/>
                <use id="reset" xlink:href="#resetDef" x="30" y="36" onmousedown="handleReset()"/>
                <g id="arrowUp" xlink:href="#dirArrow" transform="translate(30 24)" onmousedown="handlePan(0,-1)">
                  <use xlink:href="#rim" fill="#404040">
                        <set attributeName="fill" to="#808080" begin="arrowUp.mouseover" end="arrowUp.mouseout"/>
                  </use>
                  <path fill="none" stroke="white" stroke-width="1.5" d="M0,-3.0v7 M-2.5,-0.5L0,-3.0L2.5,-0.5"/>
                </g>
                <g id="arrowRight" xlink:href="#dirArrow" transform="rotate(90) translate(36 -43)" onmousedown="handlePan(1,0)">
                  <use xlink:href="#rim" fill="#404040">
                        <set attributeName="fill" to="#808080" begin="arrowRight.mouseover" end="arrowRight.mouseout"/>
                  </use>
                  <path fill="none" stroke="white" stroke-width="1.5" d="M0,-3.0v7 M-2.5,-0.5L0,-3.0L2.5,-0.5"/>
                </g>
                <g id="arrowDown" xlink:href="#dirArrow" transform="rotate(180) translate(-30 -48)" onmousedown="handlePan(0,1)">
                  <use xlink:href="#rim" fill="#404040">
                        <set attributeName="fill" to="#808080" begin="arrowDown.mouseover" end="arrowDown.mouseout"/>
                  </use>
                  <path fill="none" stroke="white" stroke-width="1.5" d="M0,-3.0v7 M-2.5,-0.5L0,-3.0L2.5,-0.5"/>
                </g>
                <g id="arrowLeft" xlink:href="#dirArrow" transform="rotate(270) translate(-36 17)" onmousedown="handlePan(-1,0)">
                  <use xlink:href="#rim" fill="#404040">
                        <set attributeName="fill" to="#808080" begin="arrowLeft.mouseover" end="arrowLeft.mouseout"/>
                  </use>
                  <path fill="none" stroke="white" stroke-width="1.5" d="M0,-3.0v7 M-2.5,-0.5L0,-3.0L2.5,-0.5"/>
                </g>
        </g>
        <svg viewBox="0 0 15 15" width="100%" height="30px" preserveAspectRatio="xMaxYMin meet">
         <g id="arrow_out" transform="scale(0.3 0.3)">
          <a xlink:href="classAxiLiteSrpV0Tb__coll__graph_org.svg" target="_base">
           <rect id="button" ry="5" rx="5" y="6" x="6" height="38" width="38"
                fill="#f2f5e9" fill-opacity="0.5" stroke="#606060" stroke-width="1.0"/>
           <path id="arrow"
             d="M 11.500037,31.436501 C 11.940474,20.09759 22.043105,11.32322 32.158766,21.979434 L 37.068811,17.246167 C 37.068811,17.246167 37.088388,32 37.088388,32 L 22.160133,31.978069 C 22.160133,31.978069 26.997745,27.140456 26.997745,27.140456 C 18.528582,18.264221 13.291696,25.230495 11.500037,31.436501 z"
             style="fill:#404040;"/>
          </a>
         </g>
        </svg>
</svg>
