<?xml version="1.0" encoding="UTF-8" standalone="no"?>
<!DOCTYPE svg PUBLIC "-//W3C//DTD SVG 1.1//EN"
 "http://www.w3.org/Graphics/SVG/1.1/DTD/svg11.dtd">
<!-- Generated by graphviz version 2.40.1 (20161225.0304)
 -->
<!-- Title: AxiStreamTap Pages: 1 -->
<svg width="216pt" height="140pt"
 viewBox="0.00 0.00 215.50 140.00" xmlns="http://www.w3.org/2000/svg" xmlns:xlink="http://www.w3.org/1999/xlink">
<g id="graph0" class="graph" transform="scale(1 1) rotate(0) translate(4 136)">
<title>AxiStreamTap</title>
<polygon fill="#ffffff" stroke="transparent" points="-4,4 -4,-136 211.5,-136 211.5,4 -4,4"/>
<!-- Node0 -->
<g id="node1" class="node">
<title>Node0</title>
<polygon fill="#bfbfbf" stroke="#000000" points="64.5,-.5 64.5,-19.5 148.5,-19.5 148.5,-.5 64.5,-.5"/>
<text text-anchor="middle" x="106.5" y="-7.5" font-family="Helvetica,sans-Serif" font-size="10.00" fill="#000000">AxiStreamTap</text>
</g>
<!-- Node1 -->
<g id="node2" class="node">
<title>Node1</title>
<g id="a_node2"><a xlink:href="classAxiStreamDeMux.html" target="_top" xlink:title="AxiStreamDeMux">
<polygon fill="#ffffff" stroke="#000000" points="0,-56.5 0,-75.5 101,-75.5 101,-56.5 0,-56.5"/>
<text text-anchor="middle" x="50.5" y="-63.5" font-family="Helvetica,sans-Serif" font-size="10.00" fill="#000000">AxiStreamDeMux</text>
</a>
</g>
</g>
<!-- Node1&#45;&gt;Node0 -->
<g id="edge1" class="edge">
<title>Node1&#45;&gt;Node0</title>
<path fill="none" stroke="#191970" d="M67.4249,-49.0751C77.0598,-39.4402 88.7804,-27.7196 96.8573,-19.6427"/>
<polygon fill="#191970" stroke="#191970" points="64.8507,-46.6996 60.2545,-56.2455 69.8004,-51.6493 64.8507,-46.6996"/>
</g>
<!-- Node2 -->
<g id="node3" class="node">
<title>Node2</title>
<g id="a_node3"><a xlink:href="classAxiStreamPipeline.html" target="_top" xlink:title="AxiStreamPipeline">
<polygon fill="#ffffff" stroke="#000000" points="53,-112.5 53,-131.5 160,-131.5 160,-112.5 53,-112.5"/>
<text text-anchor="middle" x="106.5" y="-119.5" font-family="Helvetica,sans-Serif" font-size="10.00" fill="#000000">AxiStreamPipeline</text>
</a>
</g>
</g>
<!-- Node2&#45;&gt;Node1 -->
<g id="edge2" class="edge">
<title>Node2&#45;&gt;Node1</title>
<path fill="none" stroke="#191970" d="M89.5751,-105.0751C79.9402,-95.4402 68.2196,-83.7196 60.1427,-75.6427"/>
<polygon fill="#191970" stroke="#191970" points="87.1996,-107.6493 96.7455,-112.2455 92.1493,-102.6996 87.1996,-107.6493"/>
</g>
<!-- Node3 -->
<g id="node4" class="node">
<title>Node3</title>
<g id="a_node4"><a xlink:href="classAxiStreamMux.html" target="_top" xlink:title="AxiStreamMux">
<polygon fill="#ffffff" stroke="#000000" points="119.5,-56.5 119.5,-75.5 207.5,-75.5 207.5,-56.5 119.5,-56.5"/>
<text text-anchor="middle" x="163.5" y="-63.5" font-family="Helvetica,sans-Serif" font-size="10.00" fill="#000000">AxiStreamMux</text>
</a>
</g>
</g>
<!-- Node2&#45;&gt;Node3 -->
<g id="edge4" class="edge">
<title>Node2&#45;&gt;Node3</title>
<path fill="none" stroke="#191970" d="M123.7271,-105.0751C133.5341,-95.4402 145.464,-83.7196 153.6851,-75.6427"/>
<polygon fill="#191970" stroke="#191970" points="121.1091,-102.7406 116.4286,-112.2455 126.0149,-107.734 121.1091,-102.7406"/>
</g>
<!-- Node3&#45;&gt;Node0 -->
<g id="edge3" class="edge">
<title>Node3&#45;&gt;Node0</title>
<path fill="none" stroke="#191970" d="M146.2729,-49.0751C136.4659,-39.4402 124.536,-27.7196 116.3149,-19.6427"/>
<polygon fill="#191970" stroke="#191970" points="143.9851,-51.734 153.5714,-56.2455 148.8909,-46.7406 143.9851,-51.734"/>
</g>
</g>
</svg>
