<?xml version="1.0" encoding="UTF-8" standalone="no"?>
<!DOCTYPE svg PUBLIC "-//W3C//DTD SVG 1.1//EN"
 "http://www.w3.org/Graphics/SVG/1.1/DTD/svg11.dtd">
<!-- Generated by graphviz version 2.40.1 (20161225.0304)
 -->
<!-- Title: AxiRamTb Pages: 1 -->
<!--zoomable 332 -->
<svg id="main" version="1.1" xmlns="http://www.w3.org/2000/svg" xmlns:xlink="http://www.w3.org/1999/xlink" xml:space="preserve" onload="init(evt)">
<style type="text/css"><![CDATA[
.edge:hover path { stroke: red; }
.edge:hover polygon { stroke: red; fill: red; }
]]></style>
<script type="text/javascript"><![CDATA[
var edges = document.getElementsByTagName('g');
if (edges && edges.length) {
  for (var i=0;i<edges.length;i++) {
    if (edges[i].id.substr(0,4)=='edge') {
      edges[i].setAttribute('class','edge');
    }
  }
}
]]></script>
        <defs>
                <circle id="rim" cx="0" cy="0" r="7"/>
                <circle id="rim2" cx="0" cy="0" r="3.5"/>
                <g id="zoomPlus">
                        <use xlink:href="#rim" fill="#404040">
                                <set attributeName="fill" to="#808080" begin="zoomplus.mouseover" end="zoomplus.mouseout"/>
                        </use>
                        <path d="M-4,0h8M0,-4v8" fill="none" stroke="white" stroke-width="1.5" pointer-events="none"/>
                </g>
                <g id="zoomMin">
                        <use xlink:href="#rim" fill="#404040">
                                <set attributeName="fill" to="#808080" begin="zoomminus.mouseover" end="zoomminus.mouseout"/>
                        </use>
                        <path d="M-4,0h8" fill="none" stroke="white" stroke-width="1.5" pointer-events="none"/>
                </g>
                <g id="dirArrow">
                        <path fill="none" stroke="white" stroke-width="1.5" d="M0,-3.0v7 M-2.5,-0.5L0,-3.0L2.5,-0.5"/>
                </g>
               <g id="resetDef">
                       <use xlink:href="#rim2" fill="#404040">
                               <set attributeName="fill" to="#808080" begin="reset.mouseover" end="reset.mouseout"/>
                       </use>
               </g>
        </defs>

<script type="text/javascript">
var viewWidth = 764;
var viewHeight = 332;
var sectionId = 'dynsection-1';
</script>
<script xlink:href="svgpan.js"/>
<svg id="graph" class="graph">
<g id="viewport">
<title>AxiRamTb</title>
<polygon fill="#ffffff" stroke="transparent" points="-4,4 -4,-328 760,-328 760,4 -4,4"/>
<!-- Node17 -->
<g id="node1" class="node">
<title>Node17</title>
<polygon fill="#bfbfbf" stroke="#000000" points="689,-219.5 689,-238.5 756,-238.5 756,-219.5 689,-219.5"/>
<text text-anchor="middle" x="722.5" y="-226.5" font-family="Helvetica,sans-Serif" font-size="10.00" fill="#000000">AxiRamTb</text>
</g>
<!-- Node18 -->
<g id="node2" class="node">
<title>Node18</title>
<g id="a_node2"><a xlink:href="classClkRst.html" target="_top" xlink:title="ClkRst">
<polygon fill="#ffffff" stroke="#000000" points="586,-257.5 586,-276.5 634,-276.5 634,-257.5 586,-257.5"/>
<text text-anchor="middle" x="610" y="-264.5" font-family="Helvetica,sans-Serif" font-size="10.00" fill="#000000">ClkRst</text>
</a>
</g>
</g>
<!-- Node18&#45;&gt;Node17 -->
<g id="edge1" class="edge">
<title>Node18&#45;&gt;Node17</title>
<path fill="none" stroke="#191970" d="M643.6866,-255.6214C659.7327,-250.2014 678.7153,-243.7895 694.0297,-238.6166"/>
<polygon fill="#191970" stroke="#191970" points="642.4881,-252.3319 634.1341,-258.848 644.7283,-258.9638 642.4881,-252.3319"/>
</g>
<!-- Node19 -->
<g id="node3" class="node">
<title>Node19</title>
<g id="a_node3"><a xlink:href="classAxiRam.html" target="_top" xlink:title="AxiRam">
<polygon fill="#ffffff" stroke="#000000" points="312,-247.5 312,-266.5 367,-266.5 367,-247.5 312,-247.5"/>
<text text-anchor="middle" x="339.5" y="-254.5" font-family="Helvetica,sans-Serif" font-size="10.00" fill="#000000">AxiRam</text>
</a>
</g>
</g>
<!-- Node19&#45;&gt;Node17 -->
<g id="edge2" class="edge">
<title>Node19&#45;&gt;Node17</title>
<path fill="none" stroke="#191970" d="M377.3939,-254.2297C452.1462,-248.7648 617.5173,-236.675 688.7632,-231.4664"/>
<polygon fill="#191970" stroke="#191970" points="376.7626,-250.7664 367.0444,-254.9863 377.273,-257.7478 376.7626,-250.7664"/>
</g>
<!-- Node20 -->
<g id="node4" class="node">
<title>Node20</title>
<g id="a_node4"><a xlink:href="classSimpleDualPortRamXpm.html" target="_top" xlink:title="SimpleDualPortRamXpm">
<polygon fill="#ffffff" stroke="#000000" points="125.5,-304.5 125.5,-323.5 262.5,-323.5 262.5,-304.5 125.5,-304.5"/>
<text text-anchor="middle" x="194" y="-311.5" font-family="Helvetica,sans-Serif" font-size="10.00" fill="#000000">SimpleDualPortRamXpm</text>
</a>
</g>
</g>
<!-- Node20&#45;&gt;Node19 -->
<g id="edge3" class="edge">
<title>Node20&#45;&gt;Node19</title>
<path fill="none" stroke="#191970" d="M252.0408,-301.7445C258.8558,-299.7543 265.6412,-297.5092 272,-295 291.3897,-287.3489 312.0446,-275.0323 325.3246,-266.5047"/>
<polygon fill="#191970" stroke="#191970" points="250.7974,-298.4562 242.0809,-304.4789 252.6507,-305.2064 250.7974,-298.4562"/>
</g>
<!-- Node21 -->
<g id="node5" class="node">
<title>Node21</title>
<g id="a_node5"><a xlink:href="classSimpleDualPortRamAlteraMf.html" target="_top" xlink:title="SimpleDualPortRamAlteraMf">
<polygon fill="#ffffff" stroke="#000000" points="116,-266.5 116,-285.5 272,-285.5 272,-266.5 116,-266.5"/>
<text text-anchor="middle" x="194" y="-273.5" font-family="Helvetica,sans-Serif" font-size="10.00" fill="#000000">SimpleDualPortRamAlteraMf</text>
</a>
</g>
</g>
<!-- Node21&#45;&gt;Node19 -->
<g id="edge4" class="edge">
<title>Node21&#45;&gt;Node19</title>
<path fill="none" stroke="#191970" d="M277.2643,-265.127C289.7662,-263.4944 301.845,-261.9172 311.9816,-260.5935"/>
<polygon fill="#191970" stroke="#191970" points="276.6389,-261.6789 267.1763,-266.4443 277.5453,-268.6199 276.6389,-261.6789"/>
</g>
<!-- Node22 -->
<g id="node6" class="node">
<title>Node22</title>
<g id="a_node6"><a xlink:href="classSimpleDualPortRam.html" target="_top" xlink:title="SimpleDualPortRam">
<polygon fill="#ffffff" stroke="#000000" points="136.5,-228.5 136.5,-247.5 251.5,-247.5 251.5,-228.5 136.5,-228.5"/>
<text text-anchor="middle" x="194" y="-235.5" font-family="Helvetica,sans-Serif" font-size="10.00" fill="#000000">SimpleDualPortRam</text>
</a>
</g>
</g>
<!-- Node22&#45;&gt;Node19 -->
<g id="edge5" class="edge">
<title>Node22&#45;&gt;Node19</title>
<path fill="none" stroke="#191970" d="M261.8574,-246.8611C279.5697,-249.1741 297.6706,-251.5377 311.9347,-253.4004"/>
<polygon fill="#191970" stroke="#191970" points="261.8745,-243.3337 251.5055,-245.5093 260.968,-250.2748 261.8745,-243.3337"/>
</g>
<!-- Node26 -->
<g id="node10" class="node">
<title>Node26</title>
<g id="a_node10"><a xlink:href="classFifoAsync.html" target="_top" xlink:title="FifoAsync">
<polygon fill="#ffffff" stroke="#000000" points="308,-133.5 308,-152.5 371,-152.5 371,-133.5 308,-133.5"/>
<text text-anchor="middle" x="339.5" y="-140.5" font-family="Helvetica,sans-Serif" font-size="10.00" fill="#000000">FifoAsync</text>
</a>
</g>
</g>
<!-- Node22&#45;&gt;Node26 -->
<g id="edge16" class="edge">
<title>Node22&#45;&gt;Node26</title>
<path fill="none" stroke="#191970" d="M260.5134,-224.826C264.508,-223.1154 268.3727,-221.183 272,-219 300.426,-201.8929 323.5045,-168.9246 333.7593,-152.6171"/>
<polygon fill="#191970" stroke="#191970" points="259.1181,-221.6118 251.0073,-228.4284 261.5987,-228.1576 259.1181,-221.6118"/>
</g>
<!-- Node23 -->
<g id="node7" class="node">
<title>Node23</title>
<g id="a_node7"><a xlink:href="classAxiMemTester.html" target="_top" xlink:title="AxiMemTester">
<polygon fill="#ffffff" stroke="#000000" points="567,-157.5 567,-176.5 653,-176.5 653,-157.5 567,-157.5"/>
<text text-anchor="middle" x="610" y="-164.5" font-family="Helvetica,sans-Serif" font-size="10.00" fill="#000000">AxiMemTester</text>
</a>
</g>
</g>
<!-- Node23&#45;&gt;Node17 -->
<g id="edge6" class="edge">
<title>Node23&#45;&gt;Node17</title>
<path fill="none" stroke="#191970" d="M636.3946,-181.5463C657.5661,-193.2142 686.6828,-209.2608 705.0453,-219.3805"/>
<polygon fill="#191970" stroke="#191970" points="638.0255,-178.4489 627.5781,-176.6875 634.6468,-184.5795 638.0255,-178.4489"/>
</g>
<!-- Node24 -->
<g id="node8" class="node">
<title>Node24</title>
<g id="a_node8"><a xlink:href="classSynchronizerVector.html" target="_top" xlink:title="SynchronizerVector(3)">
<polygon fill="#ffffff" stroke="#000000" points="407,-119.5 407,-138.5 531,-138.5 531,-119.5 407,-119.5"/>
<text text-anchor="middle" x="469" y="-126.5" font-family="Helvetica,sans-Serif" font-size="10.00" fill="#000000">SynchronizerVector(3)</text>
</a>
</g>
</g>
<!-- Node24&#45;&gt;Node23 -->
<g id="edge7" class="edge">
<title>Node24&#45;&gt;Node23</title>
<path fill="none" stroke="#191970" d="M514.4398,-141.2462C533.875,-146.484 556.2311,-152.5091 574.4311,-157.4141"/>
<polygon fill="#191970" stroke="#191970" points="515.1465,-137.8118 504.5803,-138.589 513.325,-144.5707 515.1465,-137.8118"/>
</g>
<!-- Node25 -->
<g id="node9" class="node">
<title>Node25</title>
<g id="a_node9"><a xlink:href="classSynchronizerFifo.html" target="_top" xlink:title="SynchronizerFifo(2)">
<polygon fill="#ffffff" stroke="#000000" points="414,-157.5 414,-176.5 524,-176.5 524,-157.5 414,-157.5"/>
<text text-anchor="middle" x="469" y="-164.5" font-family="Helvetica,sans-Serif" font-size="10.00" fill="#000000">SynchronizerFifo(2)</text>
</a>
</g>
</g>
<!-- Node25&#45;&gt;Node23 -->
<g id="edge8" class="edge">
<title>Node25&#45;&gt;Node23</title>
<path fill="none" stroke="#191970" d="M534.6391,-167C545.4841,-167 556.4832,-167 566.6034,-167"/>
<polygon fill="#191970" stroke="#191970" points="534.3223,-163.5001 524.3222,-167 534.3222,-170.5001 534.3223,-163.5001"/>
</g>
<!-- Node26&#45;&gt;Node25 -->
<g id="edge9" class="edge">
<title>Node26&#45;&gt;Node25</title>
<path fill="none" stroke="#191970" d="M381.0852,-150.7069C392.7478,-152.8683 405.5652,-155.2438 417.7201,-157.4964"/>
<polygon fill="#191970" stroke="#191970" points="381.6497,-147.252 371.1793,-148.8711 380.374,-154.1348 381.6497,-147.252"/>
</g>
<!-- Node27 -->
<g id="node11" class="node">
<title>Node27</title>
<g id="a_node11"><a xlink:href="classRstSync.html" target="_top" xlink:title="RstSync(2)">
<polygon fill="#ffffff" stroke="#000000" points="159.5,-190.5 159.5,-209.5 228.5,-209.5 228.5,-190.5 159.5,-190.5"/>
<text text-anchor="middle" x="194" y="-197.5" font-family="Helvetica,sans-Serif" font-size="10.00" fill="#000000">RstSync(2)</text>
</a>
</g>
</g>
<!-- Node27&#45;&gt;Node26 -->
<g id="edge10" class="edge">
<title>Node27&#45;&gt;Node26</title>
<path fill="none" stroke="#191970" d="M238.7292,-191.3279C249.7887,-188.5808 261.4783,-185.1518 272,-181 291.3897,-173.3489 312.0446,-161.0323 325.3246,-152.5047"/>
<polygon fill="#191970" stroke="#191970" points="237.7357,-187.9659 228.8012,-193.6602 239.3366,-194.7804 237.7357,-187.9659"/>
</g>
<!-- Node28 -->
<g id="node12" class="node">
<title>Node28</title>
<g id="a_node12"><a xlink:href="classSynchronizer.html" target="_top" xlink:title="Synchronizer">
<polygon fill="#ffffff" stroke="#000000" points="0,-190.5 0,-209.5 80,-209.5 80,-190.5 0,-190.5"/>
<text text-anchor="middle" x="40" y="-197.5" font-family="Helvetica,sans-Serif" font-size="10.00" fill="#000000">Synchronizer</text>
</a>
</g>
</g>
<!-- Node28&#45;&gt;Node27 -->
<g id="edge11" class="edge">
<title>Node28&#45;&gt;Node27</title>
<path fill="none" stroke="#191970" d="M90.1755,-200C112.806,-200 138.9694,-200 159.3704,-200"/>
<polygon fill="#191970" stroke="#191970" points="90.0597,-196.5001 80.0597,-200 90.0596,-203.5001 90.0597,-196.5001"/>
</g>
<!-- Node29 -->
<g id="node13" class="node">
<title>Node29</title>
<g id="a_node13"><a xlink:href="classSynchronizerVector.html" target="_top" xlink:title="SynchronizerVector(2)">
<polygon fill="#ffffff" stroke="#000000" points="132,-152.5 132,-171.5 256,-171.5 256,-152.5 132,-152.5"/>
<text text-anchor="middle" x="194" y="-159.5" font-family="Helvetica,sans-Serif" font-size="10.00" fill="#000000">SynchronizerVector(2)</text>
</a>
</g>
</g>
<!-- Node29&#45;&gt;Node26 -->
<g id="edge12" class="edge">
<title>Node29&#45;&gt;Node26</title>
<path fill="none" stroke="#191970" d="M266.1823,-152.5741C280.755,-150.6712 295.358,-148.7642 307.6523,-147.1588"/>
<polygon fill="#191970" stroke="#191970" points="265.5897,-149.1217 256.1271,-153.8872 266.4962,-156.0628 265.5897,-149.1217"/>
</g>
<!-- Node30 -->
<g id="node14" class="node">
<title>Node30</title>
<g id="a_node14"><a xlink:href="classSynchronizer.html" target="_top" xlink:title="Synchronizer(2)">
<polygon fill="#ffffff" stroke="#000000" points="147.5,-114.5 147.5,-133.5 240.5,-133.5 240.5,-114.5 147.5,-114.5"/>
<text text-anchor="middle" x="194" y="-121.5" font-family="Helvetica,sans-Serif" font-size="10.00" fill="#000000">Synchronizer(2)</text>
</a>
</g>
</g>
<!-- Node30&#45;&gt;Node26 -->
<g id="edge13" class="edge">
<title>Node30&#45;&gt;Node26</title>
<path fill="none" stroke="#191970" d="M250.8121,-131.4188C270.2227,-133.9535 291.2252,-136.6961 307.9175,-138.8758"/>
<polygon fill="#191970" stroke="#191970" points="251.2071,-127.9407 240.838,-130.1163 250.3006,-134.8818 251.2071,-127.9407"/>
</g>
<!-- Node31 -->
<g id="node15" class="node">
<title>Node31</title>
<g id="a_node15"><a xlink:href="classFifoWrFsm.html" target="_top" xlink:title="FifoWrFsm">
<polygon fill="#ffffff" stroke="#000000" points="160.5,-76.5 160.5,-95.5 227.5,-95.5 227.5,-76.5 160.5,-76.5"/>
<text text-anchor="middle" x="194" y="-83.5" font-family="Helvetica,sans-Serif" font-size="10.00" fill="#000000">FifoWrFsm</text>
</a>
</g>
</g>
<!-- Node31&#45;&gt;Node26 -->
<g id="edge14" class="edge">
<title>Node31&#45;&gt;Node26</title>
<path fill="none" stroke="#191970" d="M237.445,-94.3555C248.88,-97.1543 261.0701,-100.6871 272,-105 291.3897,-112.6511 312.0446,-124.9677 325.3246,-133.4953"/>
<polygon fill="#191970" stroke="#191970" points="238.1731,-90.9315 227.6411,-92.0838 236.5929,-97.7509 238.1731,-90.9315"/>
</g>
<!-- Node32 -->
<g id="node16" class="node">
<title>Node32</title>
<g id="a_node16"><a xlink:href="classFifoRdFsm.html" target="_top" xlink:title="FifoRdFsm">
<polygon fill="#ffffff" stroke="#000000" points="160.5,-38.5 160.5,-57.5 227.5,-57.5 227.5,-38.5 160.5,-38.5"/>
<text text-anchor="middle" x="194" y="-45.5" font-family="Helvetica,sans-Serif" font-size="10.00" fill="#000000">FifoRdFsm</text>
</a>
</g>
</g>
<!-- Node32&#45;&gt;Node26 -->
<g id="edge15" class="edge">
<title>Node32&#45;&gt;Node26</title>
<path fill="none" stroke="#191970" d="M237.6662,-53.7703C249.3805,-56.5866 261.6554,-60.7745 272,-67 300.426,-84.1071 323.5045,-117.0754 333.7593,-133.3829"/>
<polygon fill="#191970" stroke="#191970" points="238.0872,-50.2818 227.5787,-51.6316 236.6353,-57.1296 238.0872,-50.2818"/>
</g>
<!-- Node33 -->
<g id="node17" class="node">
<title>Node33</title>
<g id="a_node17"><a xlink:href="classFifoOutputPipeline.html" target="_top" xlink:title="FifoOutputPipeline">
<polygon fill="#ffffff" stroke="#000000" points="141,-.5 141,-19.5 247,-19.5 247,-.5 141,-.5"/>
<text text-anchor="middle" x="194" y="-7.5" font-family="Helvetica,sans-Serif" font-size="10.00" fill="#000000">FifoOutputPipeline</text>
</a>
</g>
</g>
<!-- Node33&#45;&gt;Node26 -->
<g id="edge17" class="edge">
<title>Node33&#45;&gt;Node26</title>
<path fill="none" stroke="#191970" d="M257.0696,-20.5598C262.3802,-22.8505 267.4502,-25.6296 272,-29 309.1493,-56.5191 329.5743,-111.1023 336.636,-133.2857"/>
<polygon fill="#191970" stroke="#191970" points="257.9042,-17.1365 247.3111,-16.9419 255.4707,-23.6999 257.9042,-17.1365"/>
</g>
</g>
</svg>
        <g id="navigator" transform="translate(0 0)" fill="#404254">
                <rect fill="#f2f5e9" fill-opacity="0.5" stroke="#606060" stroke-width=".5" x="0" y="0" width="60" height="60"/>
                <use id="zoomplus" xlink:href="#zoomPlus" x="17" y="9" onmousedown="handleZoom(evt,'in')"/>
                <use id="zoomminus" xlink:href="#zoomMin" x="42" y="9" onmousedown="handleZoom(evt,'out')"/>
                <use id="reset" xlink:href="#resetDef" x="30" y="36" onmousedown="handleReset()"/>
                <g id="arrowUp" xlink:href="#dirArrow" transform="translate(30 24)" onmousedown="handlePan(0,-1)">
                  <use xlink:href="#rim" fill="#404040">
                        <set attributeName="fill" to="#808080" begin="arrowUp.mouseover" end="arrowUp.mouseout"/>
                  </use>
                  <path fill="none" stroke="white" stroke-width="1.5" d="M0,-3.0v7 M-2.5,-0.5L0,-3.0L2.5,-0.5"/>
                </g>
                <g id="arrowRight" xlink:href="#dirArrow" transform="rotate(90) translate(36 -43)" onmousedown="handlePan(1,0)">
                  <use xlink:href="#rim" fill="#404040">
                        <set attributeName="fill" to="#808080" begin="arrowRight.mouseover" end="arrowRight.mouseout"/>
                  </use>
                  <path fill="none" stroke="white" stroke-width="1.5" d="M0,-3.0v7 M-2.5,-0.5L0,-3.0L2.5,-0.5"/>
                </g>
                <g id="arrowDown" xlink:href="#dirArrow" transform="rotate(180) translate(-30 -48)" onmousedown="handlePan(0,1)">
                  <use xlink:href="#rim" fill="#404040">
                        <set attributeName="fill" to="#808080" begin="arrowDown.mouseover" end="arrowDown.mouseout"/>
                  </use>
                  <path fill="none" stroke="white" stroke-width="1.5" d="M0,-3.0v7 M-2.5,-0.5L0,-3.0L2.5,-0.5"/>
                </g>
                <g id="arrowLeft" xlink:href="#dirArrow" transform="rotate(270) translate(-36 17)" onmousedown="handlePan(-1,0)">
                  <use xlink:href="#rim" fill="#404040">
                        <set attributeName="fill" to="#808080" begin="arrowLeft.mouseover" end="arrowLeft.mouseout"/>
                  </use>
                  <path fill="none" stroke="white" stroke-width="1.5" d="M0,-3.0v7 M-2.5,-0.5L0,-3.0L2.5,-0.5"/>
                </g>
        </g>
        <svg viewBox="0 0 15 15" width="100%" height="30px" preserveAspectRatio="xMaxYMin meet">
         <g id="arrow_out" transform="scale(0.3 0.3)">
          <a xlink:href="classAxiRamTb__coll__graph_org.svg" target="_base">
           <rect id="button" ry="5" rx="5" y="6" x="6" height="38" width="38"
                fill="#f2f5e9" fill-opacity="0.5" stroke="#606060" stroke-width="1.0"/>
           <path id="arrow"
             d="M 11.500037,31.436501 C 11.940474,20.09759 22.043105,11.32322 32.158766,21.979434 L 37.068811,17.246167 C 37.068811,17.246167 37.088388,32 37.088388,32 L 22.160133,31.978069 C 22.160133,31.978069 26.997745,27.140456 26.997745,27.140456 C 18.528582,18.264221 13.291696,25.230495 11.500037,31.436501 z"
             style="fill:#404040;"/>
          </a>
         </g>
        </svg>
</svg>
