<?xml version="1.0" encoding="UTF-8" standalone="no"?>
<!DOCTYPE svg PUBLIC "-//W3C//DTD SVG 1.1//EN"
 "http://www.w3.org/Graphics/SVG/1.1/DTD/svg11.dtd">
<!-- Generated by graphviz version 2.40.1 (20161225.0304)
 -->
<!-- Title: XauiGtyUltraScale Pages: 1 -->
<svg width="1472pt" height="532pt"
 viewBox="0.00 0.00 1472.00 531.89" xmlns="http://www.w3.org/2000/svg" xmlns:xlink="http://www.w3.org/1999/xlink">
<g id="graph0" class="graph" transform="scale(1 1) rotate(0) translate(4 527.8921)">
<title>XauiGtyUltraScale</title>
<polygon fill="#ffffff" stroke="transparent" points="-4,4 -4,-527.8921 1468,-527.8921 1468,4 -4,4"/>
<!-- Node60 -->
<g id="node1" class="node">
<title>Node60</title>
<polygon fill="#bfbfbf" stroke="#000000" points="1358,-181.3921 1358,-200.3921 1464,-200.3921 1464,-181.3921 1358,-181.3921"/>
<text text-anchor="middle" x="1411" y="-188.3921" font-family="Helvetica,sans-Serif" font-size="10.00" fill="#000000">XauiGtyUltraScale</text>
</g>
<!-- Node61 -->
<g id="node2" class="node">
<title>Node61</title>
<g id="a_node2"><a xlink:href="classEthMacTop.html" target="_top" xlink:title="EthMacTop">
<polygon fill="#ffffff" stroke="#000000" points="1134,-266.3921 1134,-285.3921 1202,-285.3921 1202,-266.3921 1134,-266.3921"/>
<text text-anchor="middle" x="1168" y="-273.3921" font-family="Helvetica,sans-Serif" font-size="10.00" fill="#000000">EthMacTop</text>
</a>
</g>
</g>
<!-- Node61&#45;&gt;Node60 -->
<g id="edge1" class="edge">
<title>Node61&#45;&gt;Node60</title>
<path fill="none" stroke="#191970" d="M1205.0232,-262.9416C1254.2144,-245.7348 1339.9833,-215.7333 1383.6973,-200.4424"/>
<polygon fill="#191970" stroke="#191970" points="1203.6864,-259.7012 1195.4028,-266.3068 1205.9977,-266.3086 1203.6864,-259.7012"/>
</g>
<!-- Node62 -->
<g id="node3" class="node">
<title>Node62</title>
<g id="a_node3"><a xlink:href="classEthMacTxFifo.html" target="_top" xlink:title="EthMacTxFifo">
<polygon fill="#ffffff" stroke="#000000" points="945.5,-295.3921 945.5,-314.3921 1026.5,-314.3921 1026.5,-295.3921 945.5,-295.3921"/>
<text text-anchor="middle" x="986" y="-302.3921" font-family="Helvetica,sans-Serif" font-size="10.00" fill="#000000">EthMacTxFifo</text>
</a>
</g>
</g>
<!-- Node62&#45;&gt;Node61 -->
<g id="edge2" class="edge">
<title>Node62&#45;&gt;Node61</title>
<path fill="none" stroke="#191970" d="M1036.9967,-296.7663C1067.8814,-291.8451 1106.4415,-285.7009 1133.7079,-281.3562"/>
<polygon fill="#191970" stroke="#191970" points="1036.169,-293.3539 1026.8444,-298.384 1037.2705,-300.2667 1036.169,-293.3539"/>
</g>
<!-- Node63 -->
<g id="node4" class="node">
<title>Node63</title>
<g id="a_node4"><a xlink:href="classAxiStreamFifoV2.html" target="_top" xlink:title="AxiStreamFifoV2(3)">
<polygon fill="#ffffff" stroke="#000000" points="407.5,-295.3921 407.5,-314.3921 518.5,-314.3921 518.5,-295.3921 407.5,-295.3921"/>
<text text-anchor="middle" x="463" y="-302.3921" font-family="Helvetica,sans-Serif" font-size="10.00" fill="#000000">AxiStreamFifoV2(3)</text>
</a>
</g>
</g>
<!-- Node63&#45;&gt;Node62 -->
<g id="edge3" class="edge">
<title>Node63&#45;&gt;Node62</title>
<path fill="none" stroke="#191970" d="M529.2497,-304.8921C638.9902,-304.8921 855.3003,-304.8921 945.2605,-304.8921"/>
<polygon fill="#191970" stroke="#191970" points="528.9702,-301.3922 518.9702,-304.8921 528.9701,-308.3922 528.9702,-301.3922"/>
</g>
<!-- Node64 -->
<g id="node5" class="node">
<title>Node64</title>
<g id="a_node5"><a xlink:href="classAxiStreamResize.html" target="_top" xlink:title="AxiStreamResize(2)">
<polygon fill="#ffffff" stroke="#000000" points="254,-219.3921 254,-238.3921 367,-238.3921 367,-219.3921 254,-219.3921"/>
<text text-anchor="middle" x="310.5" y="-226.3921" font-family="Helvetica,sans-Serif" font-size="10.00" fill="#000000">AxiStreamResize(2)</text>
</a>
</g>
</g>
<!-- Node64&#45;&gt;Node63 -->
<g id="edge4" class="edge">
<title>Node64&#45;&gt;Node63</title>
<path fill="none" stroke="#191970" d="M332.3824,-244.5166C350.605,-256.9929 377.5883,-274.2541 403,-285.8921 410.848,-289.4863 419.5662,-292.6716 427.87,-295.3581"/>
<polygon fill="#191970" stroke="#191970" points="333.9148,-241.3192 323.7065,-238.4836 329.9185,-247.0663 333.9148,-241.3192"/>
</g>
<!-- Node84 -->
<g id="node16" class="node">
<title>Node84</title>
<g id="a_node16"><a xlink:href="classAxiStreamFifoV2.html" target="_top" xlink:title="AxiStreamFifoV2">
<polygon fill="#ffffff" stroke="#000000" points="414,-257.3921 414,-276.3921 512,-276.3921 512,-257.3921 414,-257.3921"/>
<text text-anchor="middle" x="463" y="-264.3921" font-family="Helvetica,sans-Serif" font-size="10.00" fill="#000000">AxiStreamFifoV2</text>
</a>
</g>
</g>
<!-- Node64&#45;&gt;Node84 -->
<g id="edge17" class="edge">
<title>Node64&#45;&gt;Node84</title>
<path fill="none" stroke="#191970" d="M358.8184,-240.9321C380.1234,-246.2409 404.8042,-252.3909 424.7945,-257.3721"/>
<polygon fill="#191970" stroke="#191970" points="359.5318,-237.5029 348.9822,-238.4811 357.8392,-244.2952 359.5318,-237.5029"/>
</g>
<!-- Node107 -->
<g id="node39" class="node">
<title>Node107</title>
<g id="a_node39"><a xlink:href="classAxiStreamFifoV2.html" target="_top" xlink:title="AxiStreamFifoV2(2)">
<polygon fill="#ffffff" stroke="#000000" points="407.5,-105.3921 407.5,-124.3921 518.5,-124.3921 518.5,-105.3921 407.5,-105.3921"/>
<text text-anchor="middle" x="463" y="-112.3921" font-family="Helvetica,sans-Serif" font-size="10.00" fill="#000000">AxiStreamFifoV2(2)</text>
</a>
</g>
</g>
<!-- Node64&#45;&gt;Node107 -->
<g id="edge54" class="edge">
<title>Node64&#45;&gt;Node107</title>
<path fill="none" stroke="#191970" d="M361.3574,-214.2101C363.3466,-212.8917 365.24,-211.4559 367,-209.8921 394.9406,-185.0675 374.8405,-158.4681 403,-133.8921 407.4454,-130.0124 412.6851,-126.9241 418.1861,-124.4659"/>
<polygon fill="#191970" stroke="#191970" points="359.2212,-211.39 352.1392,-219.27 362.5896,-217.5263 359.2212,-211.39"/>
</g>
<!-- Node65 -->
<g id="node6" class="node">
<title>Node65</title>
<g id="a_node6"><a xlink:href="classAxiStreamPipeline.html" target="_top" xlink:title="AxiStreamPipeline">
<polygon fill="#ffffff" stroke="#000000" points="111,-219.3921 111,-238.3921 218,-238.3921 218,-219.3921 111,-219.3921"/>
<text text-anchor="middle" x="164.5" y="-226.3921" font-family="Helvetica,sans-Serif" font-size="10.00" fill="#000000">AxiStreamPipeline</text>
</a>
</g>
</g>
<!-- Node65&#45;&gt;Node63 -->
<g id="edge11" class="edge">
<title>Node65&#45;&gt;Node63</title>
<path fill="none" stroke="#191970" d="M175.2113,-247.3754C189.7086,-270.3214 217.9585,-308.3301 254,-323.8921 316.216,-350.7558 398.354,-328.5532 438.6215,-314.4026"/>
<polygon fill="#191970" stroke="#191970" points="178.0444,-245.298 169.8576,-238.5729 172.0637,-248.9356 178.0444,-245.298"/>
</g>
<!-- Node65&#45;&gt;Node64 -->
<g id="edge5" class="edge">
<title>Node65&#45;&gt;Node64</title>
<path fill="none" stroke="#191970" d="M228.2027,-228.8921C236.6312,-228.8921 245.2279,-228.8921 253.5332,-228.8921"/>
<polygon fill="#191970" stroke="#191970" points="228.036,-225.3922 218.036,-228.8921 228.0359,-232.3922 228.036,-225.3922"/>
</g>
<!-- Node65&#45;&gt;Node84 -->
<g id="edge20" class="edge">
<title>Node65&#45;&gt;Node84</title>
<path fill="none" stroke="#191970" d="M214.4557,-240.5903C227.2886,-243.2941 241.111,-245.9452 254,-247.8921 308.3987,-256.1094 371.3383,-261.2432 413.8171,-264.0722"/>
<polygon fill="#191970" stroke="#191970" points="214.9261,-237.1113 204.4128,-238.4231 213.4494,-243.9538 214.9261,-237.1113"/>
</g>
<!-- Node86 -->
<g id="node18" class="node">
<title>Node86</title>
<g id="a_node18"><a xlink:href="classAxiStreamMux.html" target="_top" xlink:title="AxiStreamMux">
<polygon fill="#ffffff" stroke="#000000" points="266.5,-181.3921 266.5,-200.3921 354.5,-200.3921 354.5,-181.3921 266.5,-181.3921"/>
<text text-anchor="middle" x="310.5" y="-188.3921" font-family="Helvetica,sans-Serif" font-size="10.00" fill="#000000">AxiStreamMux</text>
</a>
</g>
</g>
<!-- Node65&#45;&gt;Node86 -->
<g id="edge23" class="edge">
<title>Node65&#45;&gt;Node86</title>
<path fill="none" stroke="#191970" d="M211.036,-216.78C231.3696,-211.4877 254.8713,-205.3708 273.923,-200.4122"/>
<polygon fill="#191970" stroke="#191970" points="210.1379,-213.3971 201.342,-219.3031 211.9012,-220.1714 210.1379,-213.3971"/>
</g>
<!-- Node92 -->
<g id="node24" class="node">
<title>Node92</title>
<g id="a_node24"><a xlink:href="classAxiStreamResize.html" target="_top" xlink:title="AxiStreamResize">
<polygon fill="#ffffff" stroke="#000000" points="413.5,-390.3921 413.5,-409.3921 512.5,-409.3921 512.5,-390.3921 413.5,-390.3921"/>
<text text-anchor="middle" x="463" y="-397.3921" font-family="Helvetica,sans-Serif" font-size="10.00" fill="#000000">AxiStreamResize</text>
</a>
</g>
</g>
<!-- Node65&#45;&gt;Node92 -->
<g id="edge31" class="edge">
<title>Node65&#45;&gt;Node92</title>
<path fill="none" stroke="#191970" d="M174.0419,-247.7226C188.0397,-273.4125 216.5883,-319.0794 254,-343.8921 302.3665,-375.9704 368.4774,-389.7262 413.2981,-395.5913"/>
<polygon fill="#191970" stroke="#191970" points="177.0132,-245.8538 169.2501,-238.6437 170.8226,-249.1212 177.0132,-245.8538"/>
</g>
<!-- Node65&#45;&gt;Node107 -->
<g id="edge57" class="edge">
<title>Node65&#45;&gt;Node107</title>
<path fill="none" stroke="#191970" d="M185.1731,-213.171C202.6906,-200.4933 228.896,-183.0028 254,-171.8921 305.4162,-149.136 368.0568,-133.5192 411.2771,-124.4639"/>
<polygon fill="#191970" stroke="#191970" points="182.8283,-210.5512 176.8563,-219.3026 186.9822,-216.1855 182.8283,-210.5512"/>
</g>
<!-- Node108 -->
<g id="node40" class="node">
<title>Node108</title>
<g id="a_node40"><a xlink:href="classSsiObFrameFilter.html" target="_top" xlink:title="SsiObFrameFilter">
<polygon fill="#ffffff" stroke="#000000" points="261.5,-29.3921 261.5,-48.3921 359.5,-48.3921 359.5,-29.3921 261.5,-29.3921"/>
<text text-anchor="middle" x="310.5" y="-36.3921" font-family="Helvetica,sans-Serif" font-size="10.00" fill="#000000">SsiObFrameFilter</text>
</a>
</g>
</g>
<!-- Node65&#45;&gt;Node108 -->
<g id="edge59" class="edge">
<title>Node65&#45;&gt;Node108</title>
<path fill="none" stroke="#191970" d="M175.3442,-210.4968C191.2383,-184.1024 222.4144,-134.4235 254,-95.8921 268.6633,-78.0043 288.0667,-59.3479 299.8975,-48.441"/>
<polygon fill="#191970" stroke="#191970" points="172.3268,-208.7231 170.2074,-219.1038 178.3377,-212.3105 172.3268,-208.7231"/>
</g>
<!-- Node66 -->
<g id="node7" class="node">
<title>Node66</title>
<g id="a_node7"><a xlink:href="classFifoCascade.html" target="_top" xlink:title="FifoCascade(2)">
<polygon fill="#ffffff" stroke="#000000" points="266,-295.3921 266,-314.3921 355,-314.3921 355,-295.3921 266,-295.3921"/>
<text text-anchor="middle" x="310.5" y="-302.3921" font-family="Helvetica,sans-Serif" font-size="10.00" fill="#000000">FifoCascade(2)</text>
</a>
</g>
</g>
<!-- Node66&#45;&gt;Node63 -->
<g id="edge6" class="edge">
<title>Node66&#45;&gt;Node63</title>
<path fill="none" stroke="#191970" d="M365.2447,-304.8921C378.9149,-304.8921 393.5895,-304.8921 407.3051,-304.8921"/>
<polygon fill="#191970" stroke="#191970" points="365.0193,-301.3922 355.0193,-304.8921 365.0192,-308.3922 365.0193,-301.3922"/>
</g>
<!-- Node66&#45;&gt;Node84 -->
<g id="edge18" class="edge">
<title>Node66&#45;&gt;Node84</title>
<path fill="none" stroke="#191970" d="M358.8184,-292.8521C380.1234,-287.5433 404.8042,-281.3934 424.7945,-276.4122"/>
<polygon fill="#191970" stroke="#191970" points="357.8392,-289.489 348.9822,-295.3031 359.5318,-296.2813 357.8392,-289.489"/>
</g>
<!-- Node66&#45;&gt;Node107 -->
<g id="edge55" class="edge">
<title>Node66&#45;&gt;Node107</title>
<path fill="none" stroke="#191970" d="M330.8349,-288.7185C342.8489,-278.2141 357.5167,-263.5901 367,-247.8921 394.474,-202.4136 365.4443,-171.4778 403,-133.8921 406.8616,-130.0275 411.5035,-126.9477 416.4737,-124.4936"/>
<polygon fill="#191970" stroke="#191970" points="328.4251,-286.1723 323.0379,-295.2953 332.9384,-291.5231 328.4251,-286.1723"/>
</g>
<!-- Node67 -->
<g id="node8" class="node">
<title>Node67</title>
<g id="a_node8"><a xlink:href="classFifo.html" target="_top" xlink:title="Fifo(4)">
<polygon fill="#ffffff" stroke="#ff0000" points="141,-342.3921 141,-361.3921 188,-361.3921 188,-342.3921 141,-342.3921"/>
<text text-anchor="middle" x="164.5" y="-349.3921" font-family="Helvetica,sans-Serif" font-size="10.00" fill="#000000">Fifo(4)</text>
</a>
</g>
</g>
<!-- Node67&#45;&gt;Node66 -->
<g id="edge7" class="edge">
<title>Node67&#45;&gt;Node66</title>
<path fill="none" stroke="#191970" d="M198.0704,-341.0852C223.0849,-333.0326 256.9245,-322.139 280.9252,-314.4128"/>
<polygon fill="#191970" stroke="#191970" points="196.7288,-337.8401 188.2824,-344.2362 198.8738,-344.5034 196.7288,-337.8401"/>
</g>
<!-- Node68 -->
<g id="node9" class="node">
<title>Node68</title>
<g id="a_node9"><a xlink:href="classFifoXpm.html" target="_top" xlink:title="FifoXpm">
<polygon fill="#ffffff" stroke="#ff0000" points="9.5,-342.3921 9.5,-361.3921 65.5,-361.3921 65.5,-342.3921 9.5,-342.3921"/>
<text text-anchor="middle" x="37.5" y="-349.3921" font-family="Helvetica,sans-Serif" font-size="10.00" fill="#000000">FifoXpm</text>
</a>
</g>
</g>
<!-- Node68&#45;&gt;Node67 -->
<g id="edge8" class="edge">
<title>Node68&#45;&gt;Node67</title>
<path fill="none" stroke="#191970" d="M75.9324,-351.8921C97.001,-351.8921 122.4554,-351.8921 140.6589,-351.8921"/>
<polygon fill="#191970" stroke="#191970" points="75.6855,-348.3922 65.6854,-351.8921 75.6854,-355.3922 75.6855,-348.3922"/>
</g>
<!-- Node98 -->
<g id="node30" class="node">
<title>Node98</title>
<g id="a_node30"><a xlink:href="classFifo.html" target="_top" xlink:title="Fifo">
<polygon fill="#ffffff" stroke="#ff0000" points="147.5,-380.3921 147.5,-399.3921 181.5,-399.3921 181.5,-380.3921 147.5,-380.3921"/>
<text text-anchor="middle" x="164.5" y="-387.3921" font-family="Helvetica,sans-Serif" font-size="10.00" fill="#000000">Fifo</text>
</a>
</g>
</g>
<!-- Node68&#45;&gt;Node98 -->
<g id="edge40" class="edge">
<title>Node68&#45;&gt;Node98</title>
<path fill="none" stroke="#191970" d="M75.5094,-363.265C99.3706,-370.4046 128.9895,-379.2669 147.3186,-384.7512"/>
<polygon fill="#191970" stroke="#191970" points="76.2691,-359.8391 65.6854,-360.3255 74.2624,-366.5453 76.2691,-359.8391"/>
</g>
<!-- Node70 -->
<g id="node10" class="node">
<title>Node70</title>
<g id="a_node10"><a xlink:href="classFifoAlteraMf.html" target="_top" xlink:title="FifoAlteraMf">
<polygon fill="#ffffff" stroke="#ff0000" points="0,-380.3921 0,-399.3921 75,-399.3921 75,-380.3921 0,-380.3921"/>
<text text-anchor="middle" x="37.5" y="-387.3921" font-family="Helvetica,sans-Serif" font-size="10.00" fill="#000000">FifoAlteraMf</text>
</a>
</g>
</g>
<!-- Node70&#45;&gt;Node67 -->
<g id="edge9" class="edge">
<title>Node70&#45;&gt;Node67</title>
<path fill="none" stroke="#191970" d="M79.2723,-377.3933C99.7317,-371.2716 123.6128,-364.1261 140.8821,-358.9589"/>
<polygon fill="#191970" stroke="#191970" points="78.1245,-374.0834 69.5475,-380.3031 80.1311,-380.7896 78.1245,-374.0834"/>
</g>
<!-- Node70&#45;&gt;Node98 -->
<g id="edge41" class="edge">
<title>Node70&#45;&gt;Node98</title>
<path fill="none" stroke="#191970" d="M85.3831,-389.8921C107.1979,-389.8921 131.6344,-389.8921 147.4999,-389.8921"/>
<polygon fill="#191970" stroke="#191970" points="85.2604,-386.3922 75.2603,-389.8921 85.2603,-393.3922 85.2604,-386.3922"/>
</g>
<!-- Node73 -->
<g id="node11" class="node">
<title>Node73</title>
<g id="a_node11"><a xlink:href="classSynchronizer.html" target="_top" xlink:title="Synchronizer">
<polygon fill="#ffffff" stroke="#000000" points="270.5,-105.3921 270.5,-124.3921 350.5,-124.3921 350.5,-105.3921 270.5,-105.3921"/>
<text text-anchor="middle" x="310.5" y="-112.3921" font-family="Helvetica,sans-Serif" font-size="10.00" fill="#000000">Synchronizer</text>
</a>
</g>
</g>
<!-- Node73&#45;&gt;Node63 -->
<g id="edge10" class="edge">
<title>Node73&#45;&gt;Node63</title>
<path fill="none" stroke="#191970" d="M330.8349,-131.0657C342.8489,-141.5702 357.5167,-156.1942 367,-171.8921 394.474,-217.3706 365.4443,-248.3065 403,-285.8921 406.8616,-289.7567 411.5035,-292.8366 416.4737,-295.2907"/>
<polygon fill="#191970" stroke="#191970" points="332.9384,-128.2612 323.0379,-124.4889 328.4251,-133.6119 332.9384,-128.2612"/>
</g>
<!-- Node73&#45;&gt;Node84 -->
<g id="edge19" class="edge">
<title>Node73&#45;&gt;Node84</title>
<path fill="none" stroke="#191970" d="M329.6591,-131.1556C341.4681,-141.8726 356.3383,-156.6921 367,-171.8921 388.4628,-202.4909 374.8405,-223.3161 403,-247.8921 407.4454,-251.7718 412.6851,-254.8601 418.1861,-257.3184"/>
<polygon fill="#191970" stroke="#191970" points="331.8717,-128.44 322.0621,-124.4374 327.2346,-133.6838 331.8717,-128.44"/>
</g>
<!-- Node73&#45;&gt;Node107 -->
<g id="edge56" class="edge">
<title>Node73&#45;&gt;Node107</title>
<path fill="none" stroke="#191970" d="M360.6576,-114.8921C375.6329,-114.8921 392.135,-114.8921 407.435,-114.8921"/>
<polygon fill="#191970" stroke="#191970" points="360.5676,-111.3922 350.5676,-114.8921 360.5675,-118.3922 360.5676,-111.3922"/>
</g>
<!-- Node115 -->
<g id="node47" class="node">
<title>Node115</title>
<g id="a_node47"><a xlink:href="classRstSync.html" target="_top" xlink:title="RstSync">
<polygon fill="#ffffff" stroke="#000000" points="435,-29.3921 435,-48.3921 491,-48.3921 491,-29.3921 435,-29.3921"/>
<text text-anchor="middle" x="463" y="-36.3921" font-family="Helvetica,sans-Serif" font-size="10.00" fill="#000000">RstSync</text>
</a>
</g>
</g>
<!-- Node73&#45;&gt;Node115 -->
<g id="edge67" class="edge">
<title>Node73&#45;&gt;Node115</title>
<path fill="none" stroke="#191970" d="M332.3824,-99.2676C350.605,-86.7913 377.5883,-69.5301 403,-57.8921 413.1329,-53.2515 424.7163,-49.2926 434.9857,-46.2088"/>
<polygon fill="#191970" stroke="#191970" points="329.9185,-96.7179 323.7065,-105.3006 333.9148,-102.465 329.9185,-96.7179"/>
</g>
<!-- Node116 -->
<g id="node48" class="node">
<title>Node116</title>
<g id="a_node48"><a xlink:href="classSynchronizerEdge.html" target="_top" xlink:title="SynchronizerEdge">
<polygon fill="#ffffff" stroke="#000000" points="411,-67.3921 411,-86.3921 515,-86.3921 515,-67.3921 411,-67.3921"/>
<text text-anchor="middle" x="463" y="-74.3921" font-family="Helvetica,sans-Serif" font-size="10.00" fill="#000000">SynchronizerEdge</text>
</a>
</g>
</g>
<!-- Node73&#45;&gt;Node116 -->
<g id="edge69" class="edge">
<title>Node73&#45;&gt;Node116</title>
<path fill="none" stroke="#191970" d="M358.8184,-102.8521C380.1234,-97.5433 404.8042,-91.3934 424.7945,-86.4122"/>
<polygon fill="#191970" stroke="#191970" points="357.8392,-99.489 348.9822,-105.3031 359.5318,-106.2813 357.8392,-99.489"/>
</g>
<!-- Node80 -->
<g id="node12" class="node">
<title>Node80</title>
<g id="a_node12"><a xlink:href="classEthMacTx.html" target="_top" xlink:title="EthMacTx">
<polygon fill="#ffffff" stroke="#000000" points="954,-238.3921 954,-257.3921 1018,-257.3921 1018,-238.3921 954,-238.3921"/>
<text text-anchor="middle" x="986" y="-245.3921" font-family="Helvetica,sans-Serif" font-size="10.00" fill="#000000">EthMacTx</text>
</a>
</g>
</g>
<!-- Node80&#45;&gt;Node61 -->
<g id="edge12" class="edge">
<title>Node80&#45;&gt;Node61</title>
<path fill="none" stroke="#191970" d="M1028.0952,-254.3683C1060.168,-259.3026 1103.7709,-266.0107 1133.7288,-270.6196"/>
<polygon fill="#191970" stroke="#191970" points="1028.5349,-250.8949 1018.119,-252.8335 1027.4705,-257.8135 1028.5349,-250.8949"/>
</g>
<!-- Node81 -->
<g id="node13" class="node">
<title>Node81</title>
<g id="a_node13"><a xlink:href="classEthMacTxBypass.html" target="_top" xlink:title="EthMacTxBypass">
<polygon fill="#ffffff" stroke="#000000" points="748,-276.3921 748,-295.3921 847,-295.3921 847,-276.3921 748,-276.3921"/>
<text text-anchor="middle" x="797.5" y="-283.3921" font-family="Helvetica,sans-Serif" font-size="10.00" fill="#000000">EthMacTxBypass</text>
</a>
</g>
</g>
<!-- Node81&#45;&gt;Node80 -->
<g id="edge13" class="edge">
<title>Node81&#45;&gt;Node80</title>
<path fill="none" stroke="#191970" d="M854.9021,-274.3203C887.3799,-267.7731 926.7863,-259.8291 953.8633,-254.3706"/>
<polygon fill="#191970" stroke="#191970" points="854.1776,-270.8959 845.0665,-276.3031 855.561,-277.7579 854.1776,-270.8959"/>
</g>
<!-- Node82 -->
<g id="node14" class="node">
<title>Node82</title>
<g id="a_node14"><a xlink:href="classEthMacTxCsum.html" target="_top" xlink:title="EthMacTxCsum(2)">
<polygon fill="#ffffff" stroke="#000000" points="573.5,-200.3921 573.5,-219.3921 678.5,-219.3921 678.5,-200.3921 573.5,-200.3921"/>
<text text-anchor="middle" x="626" y="-207.3921" font-family="Helvetica,sans-Serif" font-size="10.00" fill="#000000">EthMacTxCsum(2)</text>
</a>
</g>
</g>
<!-- Node82&#45;&gt;Node80 -->
<g id="edge14" class="edge">
<title>Node82&#45;&gt;Node80</title>
<path fill="none" stroke="#191970" d="M688.5842,-213.5049C737.092,-216.6293 805.9375,-221.7707 866,-228.8921 895.8482,-232.4311 929.6489,-237.9174 953.7533,-242.0864"/>
<polygon fill="#191970" stroke="#191970" points="688.7538,-210.0087 678.5523,-212.8688 688.3108,-216.9947 688.7538,-210.0087"/>
</g>
<!-- Node83 -->
<g id="node15" class="node">
<title>Node83</title>
<g id="a_node15"><a xlink:href="classAxiStreamPipeline.html" target="_top" xlink:title="AxiStreamPipeline(2)">
<polygon fill="#ffffff" stroke="#000000" points="403,-219.3921 403,-238.3921 523,-238.3921 523,-219.3921 403,-219.3921"/>
<text text-anchor="middle" x="463" y="-226.3921" font-family="Helvetica,sans-Serif" font-size="10.00" fill="#000000">AxiStreamPipeline(2)</text>
</a>
</g>
</g>
<!-- Node83&#45;&gt;Node82 -->
<g id="edge15" class="edge">
<title>Node83&#45;&gt;Node82</title>
<path fill="none" stroke="#191970" d="M533.3634,-220.6902C546.7483,-219.13 560.5415,-217.5222 573.2624,-216.0394"/>
<polygon fill="#191970" stroke="#191970" points="532.7596,-217.2368 523.2321,-221.8712 533.5701,-224.1898 532.7596,-217.2368"/>
</g>
<!-- Node84&#45;&gt;Node82 -->
<g id="edge16" class="edge">
<title>Node84&#45;&gt;Node82</title>
<path fill="none" stroke="#191970" d="M506.2163,-254.2324C511.9184,-252.2642 517.6401,-250.1339 523,-247.8921 539.6905,-240.9111 542.2055,-235.6191 559,-228.8921 567.8668,-225.3406 577.6415,-222.1717 586.9194,-219.4874"/>
<polygon fill="#191970" stroke="#191970" points="505.0979,-250.9158 496.7059,-257.3831 507.2993,-257.5607 505.0979,-250.9158"/>
</g>
<!-- Node89 -->
<g id="node21" class="node">
<title>Node89</title>
<g id="a_node21"><a xlink:href="classEthMacTxExportXgmii.html" target="_top" xlink:title="EthMacTxExportXgmii">
<polygon fill="#ffffff" stroke="#000000" points="564,-276.3921 564,-295.3921 688,-295.3921 688,-276.3921 564,-276.3921"/>
<text text-anchor="middle" x="626" y="-283.3921" font-family="Helvetica,sans-Serif" font-size="10.00" fill="#000000">EthMacTxExportXgmii</text>
</a>
</g>
</g>
<!-- Node84&#45;&gt;Node89 -->
<g id="edge27" class="edge">
<title>Node84&#45;&gt;Node89</title>
<path fill="none" stroke="#191970" d="M522.4491,-273.8218C535.9152,-275.3914 550.2499,-277.0623 563.8254,-278.6448"/>
<polygon fill="#191970" stroke="#191970" points="522.6857,-270.3257 512.3477,-272.6443 521.8752,-277.2787 522.6857,-270.3257"/>
</g>
<!-- Node99 -->
<g id="node31" class="node">
<title>Node99</title>
<g id="a_node31"><a xlink:href="classEthMacRxImportGmii.html" target="_top" xlink:title="EthMacRxImportGmii">
<polygon fill="#ffffff" stroke="#000000" points="566,-352.3921 566,-371.3921 686,-371.3921 686,-352.3921 566,-352.3921"/>
<text text-anchor="middle" x="626" y="-359.3921" font-family="Helvetica,sans-Serif" font-size="10.00" fill="#000000">EthMacRxImportGmii</text>
</a>
</g>
</g>
<!-- Node84&#45;&gt;Node99 -->
<g id="edge44" class="edge">
<title>Node84&#45;&gt;Node99</title>
<path fill="none" stroke="#191970" d="M509.4984,-279.9189C514.1456,-281.7219 518.7223,-283.7128 523,-285.8921 559.8305,-304.6556 597.5146,-336.2732 615.3694,-352.1613"/>
<polygon fill="#191970" stroke="#191970" points="510.5284,-276.57 499.9339,-276.4818 508.161,-283.1575 510.5284,-276.57"/>
</g>
<!-- Node85 -->
<g id="node17" class="node">
<title>Node85</title>
<g id="a_node17"><a xlink:href="classEthMacTxPause.html" target="_top" xlink:title="EthMacTxPause">
<polygon fill="#ffffff" stroke="#000000" points="751.5,-162.3921 751.5,-181.3921 843.5,-181.3921 843.5,-162.3921 751.5,-162.3921"/>
<text text-anchor="middle" x="797.5" y="-169.3921" font-family="Helvetica,sans-Serif" font-size="10.00" fill="#000000">EthMacTxPause</text>
</a>
</g>
</g>
<!-- Node85&#45;&gt;Node80 -->
<g id="edge21" class="edge">
<title>Node85&#45;&gt;Node80</title>
<path fill="none" stroke="#191970" d="M835.9025,-184.8014C845.7632,-188.2651 856.3187,-192.1042 866,-195.8921 901.0997,-209.6254 941.136,-227.4128 964.9484,-238.2222"/>
<polygon fill="#191970" stroke="#191970" points="836.9262,-181.4519 826.3314,-181.4785 834.6303,-188.0647 836.9262,-181.4519"/>
</g>
<!-- Node86&#45;&gt;Node85 -->
<g id="edge22" class="edge">
<title>Node86&#45;&gt;Node85</title>
<path fill="none" stroke="#191970" d="M364.7019,-188.7775C461.188,-185.0131 661.0631,-177.2151 751.3971,-173.6908"/>
<polygon fill="#191970" stroke="#191970" points="364.4328,-185.2852 354.5769,-189.1725 364.7058,-192.2799 364.4328,-185.2852"/>
</g>
<!-- Node87 -->
<g id="node19" class="node">
<title>Node87</title>
<g id="a_node19"><a xlink:href="classEthMacTxExport.html" target="_top" xlink:title="EthMacTxExport">
<polygon fill="#ffffff" stroke="#000000" points="750,-238.3921 750,-257.3921 845,-257.3921 845,-238.3921 750,-238.3921"/>
<text text-anchor="middle" x="797.5" y="-245.3921" font-family="Helvetica,sans-Serif" font-size="10.00" fill="#000000">EthMacTxExport</text>
</a>
</g>
</g>
<!-- Node87&#45;&gt;Node80 -->
<g id="edge24" class="edge">
<title>Node87&#45;&gt;Node80</title>
<path fill="none" stroke="#191970" d="M855.3224,-247.8921C887.7194,-247.8921 926.903,-247.8921 953.8633,-247.8921"/>
<polygon fill="#191970" stroke="#191970" points="855.0665,-244.3922 845.0665,-247.8921 855.0665,-251.3922 855.0665,-244.3922"/>
</g>
<!-- Node88 -->
<g id="node20" class="node">
<title>Node88</title>
<g id="a_node20"><a xlink:href="classEthMacTxExportXlgmii.html" target="_top" xlink:title="EthMacTxExportXlgmii">
<polygon fill="#ffffff" stroke="#000000" points="562.5,-238.3921 562.5,-257.3921 689.5,-257.3921 689.5,-238.3921 562.5,-238.3921"/>
<text text-anchor="middle" x="626" y="-245.3921" font-family="Helvetica,sans-Serif" font-size="10.00" fill="#000000">EthMacTxExportXlgmii</text>
</a>
</g>
</g>
<!-- Node88&#45;&gt;Node87 -->
<g id="edge25" class="edge">
<title>Node88&#45;&gt;Node87</title>
<path fill="none" stroke="#191970" d="M700.2489,-247.8921C717.097,-247.8921 734.5484,-247.8921 749.9377,-247.8921"/>
<polygon fill="#191970" stroke="#191970" points="699.8603,-244.3922 689.8603,-247.8921 699.8602,-251.3922 699.8603,-244.3922"/>
</g>
<!-- Node89&#45;&gt;Node87 -->
<g id="edge26" class="edge">
<title>Node89&#45;&gt;Node87</title>
<path fill="none" stroke="#191970" d="M679.0412,-274.1395C703.2913,-268.7663 731.6467,-262.4835 754.5345,-257.4122"/>
<polygon fill="#191970" stroke="#191970" points="678.2827,-270.7226 669.2767,-276.3031 679.7971,-277.5569 678.2827,-270.7226"/>
</g>
<!-- Node90 -->
<g id="node22" class="node">
<title>Node90</title>
<g id="a_node22"><a xlink:href="classCrc32Parallel.html" target="_top" xlink:title="Crc32Parallel">
<polygon fill="#ffffff" stroke="#000000" points="423,-352.3921 423,-371.3921 503,-371.3921 503,-352.3921 423,-352.3921"/>
<text text-anchor="middle" x="463" y="-359.3921" font-family="Helvetica,sans-Serif" font-size="10.00" fill="#000000">Crc32Parallel</text>
</a>
</g>
</g>
<!-- Node90&#45;&gt;Node89 -->
<g id="edge28" class="edge">
<title>Node90&#45;&gt;Node89</title>
<path fill="none" stroke="#191970" d="M492.7304,-348.0301C525.4221,-332.7873 577.0776,-308.7026 605.5236,-295.4394"/>
<polygon fill="#191970" stroke="#191970" points="491.2283,-344.8687 483.6441,-352.2667 494.1864,-351.2129 491.2283,-344.8687"/>
</g>
<!-- Node91 -->
<g id="node23" class="node">
<title>Node91</title>
<g id="a_node23"><a xlink:href="classEthMacTxExportGmii.html" target="_top" xlink:title="EthMacTxExportGmii">
<polygon fill="#ffffff" stroke="#000000" points="566.5,-390.3921 566.5,-409.3921 685.5,-409.3921 685.5,-390.3921 566.5,-390.3921"/>
<text text-anchor="middle" x="626" y="-397.3921" font-family="Helvetica,sans-Serif" font-size="10.00" fill="#000000">EthMacTxExportGmii</text>
</a>
</g>
</g>
<!-- Node90&#45;&gt;Node91 -->
<g id="edge32" class="edge">
<title>Node90&#45;&gt;Node91</title>
<path fill="none" stroke="#191970" d="M513.2344,-373.6032C536.2777,-378.9753 563.2515,-385.2636 585.0392,-390.343"/>
<polygon fill="#191970" stroke="#191970" points="513.8257,-370.1473 503.2921,-371.2854 512.2363,-376.9645 513.8257,-370.1473"/>
</g>
<!-- Node97 -->
<g id="node29" class="node">
<title>Node97</title>
<g id="a_node29"><a xlink:href="classEthMacRxImportXgmii.html" target="_top" xlink:title="EthMacRxImportXgmii">
<polygon fill="#ffffff" stroke="#000000" points="563.5,-466.3921 563.5,-485.3921 688.5,-485.3921 688.5,-466.3921 563.5,-466.3921"/>
<text text-anchor="middle" x="626" y="-473.3921" font-family="Helvetica,sans-Serif" font-size="10.00" fill="#000000">EthMacRxImportXgmii</text>
</a>
</g>
</g>
<!-- Node90&#45;&gt;Node97 -->
<g id="edge42" class="edge">
<title>Node90&#45;&gt;Node97</title>
<path fill="none" stroke="#191970" d="M512.3815,-373.6931C516.1994,-375.7239 519.8049,-378.1036 523,-380.8921 551.1595,-405.4681 530.4708,-432.7463 559,-456.8921 563.6144,-460.7976 568.9822,-463.9023 574.633,-466.37"/>
<polygon fill="#191970" stroke="#191970" points="513.7367,-370.465 503.1806,-369.5598 510.8681,-376.8503 513.7367,-370.465"/>
</g>
<!-- Node90&#45;&gt;Node99 -->
<g id="edge45" class="edge">
<title>Node90&#45;&gt;Node99</title>
<path fill="none" stroke="#191970" d="M513.3377,-361.8921C529.9421,-361.8921 548.5782,-361.8921 565.8402,-361.8921"/>
<polygon fill="#191970" stroke="#191970" points="513.2922,-358.3922 503.2921,-361.8921 513.2921,-365.3922 513.2922,-358.3922"/>
</g>
<!-- Node91&#45;&gt;Node87 -->
<g id="edge29" class="edge">
<title>Node91&#45;&gt;Node87</title>
<path fill="none" stroke="#191970" d="M688.2238,-384.9302C689.9047,-383.6882 691.5036,-382.3449 693,-380.8921 731.1217,-343.8807 690.7719,-303.7937 729,-266.8921 734.8604,-261.2351 742.252,-257.2321 749.9958,-254.4063"/>
<polygon fill="#191970" stroke="#191970" points="686.0011,-382.1824 679.2321,-390.333 689.6064,-388.1826 686.0011,-382.1824"/>
</g>
<!-- Node92&#45;&gt;Node91 -->
<g id="edge30" class="edge">
<title>Node92&#45;&gt;Node91</title>
<path fill="none" stroke="#191970" d="M522.9411,-399.8921C537.1463,-399.8921 552.293,-399.8921 566.4794,-399.8921"/>
<polygon fill="#191970" stroke="#191970" points="522.7911,-396.3922 512.7911,-399.8921 522.791,-403.3922 522.7911,-396.3922"/>
</g>
<!-- Node92&#45;&gt;Node97 -->
<g id="edge38" class="edge">
<title>Node92&#45;&gt;Node97</title>
<path fill="none" stroke="#191970" d="M496.1613,-413.6289C505.1037,-417.7961 514.6181,-422.6677 523,-427.8921 540.436,-438.7599 540.7498,-447.4552 559,-456.8921 566.303,-460.6684 574.4536,-463.7791 582.4863,-466.3114"/>
<polygon fill="#191970" stroke="#191970" points="497.3185,-410.3117 486.7629,-409.4003 494.4462,-416.6953 497.3185,-410.3117"/>
</g>
<!-- Node93 -->
<g id="node25" class="node">
<title>Node93</title>
<g id="a_node25"><a xlink:href="classEthMacFlowCtrl.html" target="_top" xlink:title="EthMacFlowCtrl">
<polygon fill="#ffffff" stroke="#000000" points="940,-428.3921 940,-447.3921 1032,-447.3921 1032,-428.3921 940,-428.3921"/>
<text text-anchor="middle" x="986" y="-435.3921" font-family="Helvetica,sans-Serif" font-size="10.00" fill="#000000">EthMacFlowCtrl</text>
</a>
</g>
</g>
<!-- Node93&#45;&gt;Node61 -->
<g id="edge33" class="edge">
<title>Node93&#45;&gt;Node61</title>
<path fill="none" stroke="#191970" d="M1041.9765,-431.3761C1051.8618,-428.5587 1061.6489,-424.5592 1070,-418.8921 1121.5514,-383.9092 1153.8093,-312.0034 1164.2693,-285.7586"/>
<polygon fill="#191970" stroke="#191970" points="1040.9749,-428.0183 1032.1081,-433.8173 1042.656,-434.8134 1040.9749,-428.0183"/>
</g>
<!-- Node94 -->
<g id="node26" class="node">
<title>Node94</title>
<g id="a_node26"><a xlink:href="classEthMacRx.html" target="_top" xlink:title="EthMacRx">
<polygon fill="#ffffff" stroke="#000000" points="953.5,-390.3921 953.5,-409.3921 1018.5,-409.3921 1018.5,-390.3921 953.5,-390.3921"/>
<text text-anchor="middle" x="986" y="-397.3921" font-family="Helvetica,sans-Serif" font-size="10.00" fill="#000000">EthMacRx</text>
</a>
</g>
</g>
<!-- Node94&#45;&gt;Node61 -->
<g id="edge34" class="edge">
<title>Node94&#45;&gt;Node61</title>
<path fill="none" stroke="#191970" d="M1008.3438,-384.6689C1046.3626,-358.7659 1122.5647,-306.848 1153.9733,-285.4487"/>
<polygon fill="#191970" stroke="#191970" points="1006.2725,-381.8449 999.979,-390.3679 1010.214,-387.6298 1006.2725,-381.8449"/>
</g>
<!-- Node95 -->
<g id="node27" class="node">
<title>Node95</title>
<g id="a_node27"><a xlink:href="classEthMacRxImport.html" target="_top" xlink:title="EthMacRxImport">
<polygon fill="#ffffff" stroke="#000000" points="749,-428.3921 749,-447.3921 846,-447.3921 846,-428.3921 749,-428.3921"/>
<text text-anchor="middle" x="797.5" y="-435.3921" font-family="Helvetica,sans-Serif" font-size="10.00" fill="#000000">EthMacRxImport</text>
</a>
</g>
</g>
<!-- Node95&#45;&gt;Node94 -->
<g id="edge35" class="edge">
<title>Node95&#45;&gt;Node94</title>
<path fill="none" stroke="#191970" d="M855.255,-426.2492C887.435,-419.762 926.3278,-411.9215 953.2869,-406.4868"/>
<polygon fill="#191970" stroke="#191970" points="854.1776,-422.8959 845.0665,-428.3031 855.561,-429.7579 854.1776,-422.8959"/>
</g>
<!-- Node96 -->
<g id="node28" class="node">
<title>Node96</title>
<g id="a_node28"><a xlink:href="classEthMacRxImportXlgmii.html" target="_top" xlink:title="EthMacRxImportXlgmii">
<polygon fill="#ffffff" stroke="#000000" points="562,-428.3921 562,-447.3921 690,-447.3921 690,-428.3921 562,-428.3921"/>
<text text-anchor="middle" x="626" y="-435.3921" font-family="Helvetica,sans-Serif" font-size="10.00" fill="#000000">EthMacRxImportXlgmii</text>
</a>
</g>
</g>
<!-- Node96&#45;&gt;Node95 -->
<g id="edge36" class="edge">
<title>Node96&#45;&gt;Node95</title>
<path fill="none" stroke="#191970" d="M700.4622,-437.8921C716.8574,-437.8921 733.8128,-437.8921 748.8746,-437.8921"/>
<polygon fill="#191970" stroke="#191970" points="700.3482,-434.3922 690.3482,-437.8921 700.3482,-441.3922 700.3482,-434.3922"/>
</g>
<!-- Node97&#45;&gt;Node95 -->
<g id="edge37" class="edge">
<title>Node97&#45;&gt;Node95</title>
<path fill="none" stroke="#191970" d="M679.0412,-464.1395C703.2913,-458.7663 731.6467,-452.4835 754.5345,-447.4122"/>
<polygon fill="#191970" stroke="#191970" points="678.2827,-460.7226 669.2767,-466.3031 679.7971,-467.5569 678.2827,-460.7226"/>
</g>
<!-- Node98&#45;&gt;Node97 -->
<g id="edge39" class="edge">
<title>Node98&#45;&gt;Node97</title>
<path fill="none" stroke="#191970" d="M191.8091,-394.9811C266.8409,-408.9632 477.0367,-448.133 574.7996,-466.351"/>
<polygon fill="#191970" stroke="#191970" points="192.221,-391.4977 181.7491,-393.1065 190.9386,-398.3793 192.221,-391.4977"/>
</g>
<!-- Node99&#45;&gt;Node95 -->
<g id="edge43" class="edge">
<title>Node99&#45;&gt;Node95</title>
<path fill="none" stroke="#191970" d="M681.5347,-375.0426C685.5252,-376.7671 689.3929,-378.7084 693,-380.8921 712.9016,-392.9404 709.0638,-406.9012 729,-418.8921 735.4512,-422.7723 742.7173,-425.8821 750.0437,-428.3684"/>
<polygon fill="#191970" stroke="#191970" points="682.6559,-371.7239 672.066,-371.4003 680.1427,-378.2572 682.6559,-371.7239"/>
</g>
<!-- Node100 -->
<g id="node32" class="node">
<title>Node100</title>
<g id="a_node32"><a xlink:href="classEthMacRxPause.html" target="_top" xlink:title="EthMacRxPause">
<polygon fill="#ffffff" stroke="#000000" points="751,-390.3921 751,-409.3921 844,-409.3921 844,-390.3921 751,-390.3921"/>
<text text-anchor="middle" x="797.5" y="-397.3921" font-family="Helvetica,sans-Serif" font-size="10.00" fill="#000000">EthMacRxPause</text>
</a>
</g>
</g>
<!-- Node100&#45;&gt;Node94 -->
<g id="edge46" class="edge">
<title>Node100&#45;&gt;Node94</title>
<path fill="none" stroke="#191970" d="M854.3242,-399.8921C886.663,-399.8921 926.0203,-399.8921 953.2382,-399.8921"/>
<polygon fill="#191970" stroke="#191970" points="854.0956,-396.3922 844.0955,-399.8921 854.0955,-403.3922 854.0956,-396.3922"/>
</g>
<!-- Node101 -->
<g id="node33" class="node">
<title>Node101</title>
<g id="a_node33"><a xlink:href="classEthMacRxCsum.html" target="_top" xlink:title="EthMacRxCsum(2)">
<polygon fill="#ffffff" stroke="#000000" points="744.5,-352.3921 744.5,-371.3921 850.5,-371.3921 850.5,-352.3921 744.5,-352.3921"/>
<text text-anchor="middle" x="797.5" y="-359.3921" font-family="Helvetica,sans-Serif" font-size="10.00" fill="#000000">EthMacRxCsum(2)</text>
</a>
</g>
</g>
<!-- Node101&#45;&gt;Node94 -->
<g id="edge47" class="edge">
<title>Node101&#45;&gt;Node94</title>
<path fill="none" stroke="#191970" d="M855.255,-373.535C887.435,-380.0222 926.3278,-387.8627 953.2869,-393.2974"/>
<polygon fill="#191970" stroke="#191970" points="855.561,-370.0264 845.0665,-371.4811 854.1776,-376.8883 855.561,-370.0264"/>
</g>
<!-- Node102 -->
<g id="node34" class="node">
<title>Node102</title>
<g id="a_node34"><a xlink:href="classEthMacRxBypass.html" target="_top" xlink:title="EthMacRxBypass">
<polygon fill="#ffffff" stroke="#000000" points="747.5,-504.3921 747.5,-523.3921 847.5,-523.3921 847.5,-504.3921 747.5,-504.3921"/>
<text text-anchor="middle" x="797.5" y="-511.3921" font-family="Helvetica,sans-Serif" font-size="10.00" fill="#000000">EthMacRxBypass</text>
</a>
</g>
</g>
<!-- Node102&#45;&gt;Node94 -->
<g id="edge48" class="edge">
<title>Node102&#45;&gt;Node94</title>
<path fill="none" stroke="#191970" d="M856.6823,-501.2383C859.999,-499.4009 863.1405,-497.2982 866,-494.8921 894.5986,-470.8285 872.8307,-442.2607 902,-418.8921 916.3527,-407.3936 936.3048,-402.5583 953.1622,-400.6377"/>
<polygon fill="#191970" stroke="#191970" points="855.1376,-498.0969 847.5669,-505.5088 858.1072,-504.4358 855.1376,-498.0969"/>
</g>
<!-- Node103 -->
<g id="node35" class="node">
<title>Node103</title>
<g id="a_node35"><a xlink:href="classEthMacRxFilter.html" target="_top" xlink:title="EthMacRxFilter">
<polygon fill="#ffffff" stroke="#000000" points="753,-466.3921 753,-485.3921 842,-485.3921 842,-466.3921 753,-466.3921"/>
<text text-anchor="middle" x="797.5" y="-473.3921" font-family="Helvetica,sans-Serif" font-size="10.00" fill="#000000">EthMacRxFilter</text>
</a>
</g>
</g>
<!-- Node103&#45;&gt;Node94 -->
<g id="edge49" class="edge">
<title>Node103&#45;&gt;Node94</title>
<path fill="none" stroke="#191970" d="M851.7453,-463.8659C856.7193,-461.8753 861.5532,-459.5667 866,-456.8921 885.9362,-444.9012 881.7811,-430.3999 902,-418.8921 917.5933,-410.0171 937.0249,-405.2876 953.2702,-402.7672"/>
<polygon fill="#191970" stroke="#191970" points="850.3161,-460.6595 842.0724,-467.3147 852.6671,-467.253 850.3161,-460.6595"/>
</g>
<!-- Node104 -->
<g id="node36" class="node">
<title>Node104</title>
<g id="a_node36"><a xlink:href="classEthMacRxFifo.html" target="_top" xlink:title="EthMacRxFifo">
<polygon fill="#ffffff" stroke="#000000" points="945,-162.3921 945,-181.3921 1027,-181.3921 1027,-162.3921 945,-162.3921"/>
<text text-anchor="middle" x="986" y="-169.3921" font-family="Helvetica,sans-Serif" font-size="10.00" fill="#000000">EthMacRxFifo</text>
</a>
</g>
</g>
<!-- Node104&#45;&gt;Node61 -->
<g id="edge50" class="edge">
<title>Node104&#45;&gt;Node61</title>
<path fill="none" stroke="#191970" d="M1011.6939,-186.5743C1049.5616,-208.2131 1119.3137,-248.0714 1151.2447,-266.3177"/>
<polygon fill="#191970" stroke="#191970" points="1013.2148,-183.4124 1002.7959,-181.4898 1009.7418,-189.4901 1013.2148,-183.4124"/>
</g>
<!-- Node105 -->
<g id="node37" class="node">
<title>Node105</title>
<g id="a_node37"><a xlink:href="classSsiFifo.html" target="_top" xlink:title="SsiFifo(3)">
<polygon fill="#ffffff" stroke="#000000" points="595,-124.3921 595,-143.3921 657,-143.3921 657,-124.3921 595,-124.3921"/>
<text text-anchor="middle" x="626" y="-131.3921" font-family="Helvetica,sans-Serif" font-size="10.00" fill="#000000">SsiFifo(3)</text>
</a>
</g>
</g>
<!-- Node105&#45;&gt;Node104 -->
<g id="edge51" class="edge">
<title>Node105&#45;&gt;Node104</title>
<path fill="none" stroke="#191970" d="M667.4243,-136.1869C715.3379,-139.0692 796.5418,-144.6567 866,-152.8921 892.2874,-156.0089 921.6404,-160.6361 944.7356,-164.5436"/>
<polygon fill="#191970" stroke="#191970" points="667.3329,-132.6755 657.1438,-135.5794 666.9199,-139.6633 667.3329,-132.6755"/>
</g>
<!-- Node106 -->
<g id="node38" class="node">
<title>Node106</title>
<g id="a_node38"><a xlink:href="classSsiIbFrameFilter.html" target="_top" xlink:title="SsiIbFrameFilter">
<polygon fill="#ffffff" stroke="#000000" points="416,-143.3921 416,-162.3921 510,-162.3921 510,-143.3921 416,-143.3921"/>
<text text-anchor="middle" x="463" y="-150.3921" font-family="Helvetica,sans-Serif" font-size="10.00" fill="#000000">SsiIbFrameFilter</text>
</a>
</g>
</g>
<!-- Node106&#45;&gt;Node105 -->
<g id="edge52" class="edge">
<title>Node106&#45;&gt;Node105</title>
<path fill="none" stroke="#191970" d="M520.3,-146.213C545.3972,-143.2875 573.8615,-139.9696 594.9242,-137.5144"/>
<polygon fill="#191970" stroke="#191970" points="519.6738,-142.7622 510.1464,-147.3965 520.4844,-149.7151 519.6738,-142.7622"/>
</g>
<!-- Node107&#45;&gt;Node105 -->
<g id="edge53" class="edge">
<title>Node107&#45;&gt;Node105</title>
<path fill="none" stroke="#191970" d="M528.6458,-122.5441C551.4966,-125.2077 576.0769,-128.0729 594.822,-130.2579"/>
<polygon fill="#191970" stroke="#191970" points="528.9775,-119.0591 518.6395,-121.3777 528.1669,-126.0121 528.9775,-119.0591"/>
</g>
<!-- Node108&#45;&gt;Node105 -->
<g id="edge58" class="edge">
<title>Node108&#45;&gt;Node105</title>
<path fill="none" stroke="#191970" d="M339.7752,-25.3726C383.7519,-7.2826 467.6011,18.3578 523,-19.8921 560.1561,-45.5464 525.7312,-84.365 559,-114.8921 568.7103,-123.8022 582.2981,-128.5693 594.7011,-131.1061"/>
<polygon fill="#191970" stroke="#191970" points="338.341,-22.1792 330.5111,-29.3166 341.083,-28.6198 338.341,-22.1792"/>
</g>
<!-- Node109 -->
<g id="node41" class="node">
<title>Node109</title>
<g id="a_node41"><a xlink:href="classXauiReg.html" target="_top" xlink:title="XauiReg">
<polygon fill="#ffffff" stroke="#000000" points="1266,-162.3921 1266,-181.3921 1322,-181.3921 1322,-162.3921 1266,-162.3921"/>
<text text-anchor="middle" x="1294" y="-169.3921" font-family="Helvetica,sans-Serif" font-size="10.00" fill="#000000">XauiReg</text>
</a>
</g>
</g>
<!-- Node109&#45;&gt;Node60 -->
<g id="edge60" class="edge">
<title>Node109&#45;&gt;Node60</title>
<path fill="none" stroke="#191970" d="M1332.1088,-178.0807C1340.3793,-179.4238 1349.2713,-180.8678 1357.9986,-182.285"/>
<polygon fill="#191970" stroke="#191970" points="1332.4562,-174.5914 1322.0244,-176.4431 1331.3341,-181.5008 1332.4562,-174.5914"/>
</g>
<!-- Node110 -->
<g id="node42" class="node">
<title>Node110</title>
<g id="a_node42"><a xlink:href="classSynchronizerVector.html" target="_top" xlink:title="SynchronizerVector(3)">
<polygon fill="#ffffff" stroke="#000000" points="1106,-162.3921 1106,-181.3921 1230,-181.3921 1230,-162.3921 1106,-162.3921"/>
<text text-anchor="middle" x="1168" y="-169.3921" font-family="Helvetica,sans-Serif" font-size="10.00" fill="#000000">SynchronizerVector(3)</text>
</a>
</g>
</g>
<!-- Node110&#45;&gt;Node109 -->
<g id="edge61" class="edge">
<title>Node110&#45;&gt;Node109</title>
<path fill="none" stroke="#191970" d="M1240.5036,-171.8921C1249.511,-171.8921 1258.2531,-171.8921 1265.9705,-171.8921"/>
<polygon fill="#191970" stroke="#191970" points="1240.2618,-168.3922 1230.2617,-171.8921 1240.2617,-175.3922 1240.2618,-168.3922"/>
</g>
<!-- Node111 -->
<g id="node43" class="node">
<title>Node111</title>
<g id="a_node43"><a xlink:href="classSyncStatusVector.html" target="_top" xlink:title="SyncStatusVector">
<polygon fill="#ffffff" stroke="#000000" points="1117.5,-86.3921 1117.5,-105.3921 1218.5,-105.3921 1218.5,-86.3921 1117.5,-86.3921"/>
<text text-anchor="middle" x="1168" y="-93.3921" font-family="Helvetica,sans-Serif" font-size="10.00" fill="#000000">SyncStatusVector</text>
</a>
</g>
</g>
<!-- Node111&#45;&gt;Node109 -->
<g id="edge62" class="edge">
<title>Node111&#45;&gt;Node109</title>
<path fill="none" stroke="#191970" d="M1192.6286,-110.7474C1217.9581,-126.0256 1256.6545,-149.3663 1278.1716,-162.3448"/>
<polygon fill="#191970" stroke="#191970" points="1194.3287,-107.6855 1183.958,-105.5176 1190.7132,-113.6796 1194.3287,-107.6855"/>
</g>
<!-- Node112 -->
<g id="node44" class="node">
<title>Node112</title>
<g id="a_node44"><a xlink:href="classSynchronizerVector.html" target="_top" xlink:title="SynchronizerVector">
<polygon fill="#ffffff" stroke="#000000" points="931,-48.3921 931,-67.3921 1041,-67.3921 1041,-48.3921 931,-48.3921"/>
<text text-anchor="middle" x="986" y="-55.3921" font-family="Helvetica,sans-Serif" font-size="10.00" fill="#000000">SynchronizerVector</text>
</a>
</g>
</g>
<!-- Node112&#45;&gt;Node111 -->
<g id="edge63" class="edge">
<title>Node112&#45;&gt;Node111</title>
<path fill="none" stroke="#191970" d="M1041.9458,-69.5731C1067.7558,-74.962 1098.0069,-81.2782 1122.404,-86.3721"/>
<polygon fill="#191970" stroke="#191970" points="1042.4306,-66.0989 1031.9263,-67.4811 1040.9998,-72.9512 1042.4306,-66.0989"/>
</g>
<!-- Node113 -->
<g id="node45" class="node">
<title>Node113</title>
<g id="a_node45"><a xlink:href="classSynchronizerOneShotCntVector.html" target="_top" xlink:title="SynchronizerOneShotCntVector">
<polygon fill="#ffffff" stroke="#000000" points="902,-86.3921 902,-105.3921 1070,-105.3921 1070,-86.3921 902,-86.3921"/>
<text text-anchor="middle" x="986" y="-93.3921" font-family="Helvetica,sans-Serif" font-size="10.00" fill="#000000">SynchronizerOneShotCntVector</text>
</a>
</g>
</g>
<!-- Node113&#45;&gt;Node111 -->
<g id="edge64" class="edge">
<title>Node113&#45;&gt;Node111</title>
<path fill="none" stroke="#191970" d="M1080.2906,-95.8921C1093.0303,-95.8921 1105.6839,-95.8921 1117.2509,-95.8921"/>
<polygon fill="#191970" stroke="#191970" points="1080.0744,-92.3922 1070.0743,-95.8921 1080.0743,-99.3922 1080.0744,-92.3922"/>
</g>
<!-- Node114 -->
<g id="node46" class="node">
<title>Node114</title>
<g id="a_node46"><a xlink:href="classSynchronizerOneShot.html" target="_top" xlink:title="SynchronizerOneShot(2)">
<polygon fill="#ffffff" stroke="#000000" points="559,-48.3921 559,-67.3921 693,-67.3921 693,-48.3921 559,-48.3921"/>
<text text-anchor="middle" x="626" y="-55.3921" font-family="Helvetica,sans-Serif" font-size="10.00" fill="#000000">SynchronizerOneShot(2)</text>
</a>
</g>
</g>
<!-- Node114&#45;&gt;Node113 -->
<g id="edge65" class="edge">
<title>Node114&#45;&gt;Node113</title>
<path fill="none" stroke="#191970" d="M703.256,-62.4716C750.3728,-65.6459 811.7668,-70.4619 866,-76.8921 887.5745,-79.4501 911.214,-83.0255 931.7642,-86.3854"/>
<polygon fill="#191970" stroke="#191970" points="703.3332,-58.9691 693.1234,-61.7994 702.8697,-65.9538 703.3332,-58.9691"/>
</g>
<!-- Node117 -->
<g id="node49" class="node">
<title>Node117</title>
<g id="a_node49"><a xlink:href="classSynchronizerOneShotCnt.html" target="_top" xlink:title="SynchronizerOneShotCnt">
<polygon fill="#ffffff" stroke="#000000" points="729,-86.3921 729,-105.3921 866,-105.3921 866,-86.3921 729,-86.3921"/>
<text text-anchor="middle" x="797.5" y="-93.3921" font-family="Helvetica,sans-Serif" font-size="10.00" fill="#000000">SynchronizerOneShotCnt</text>
</a>
</g>
</g>
<!-- Node114&#45;&gt;Node117 -->
<g id="edge71" class="edge">
<title>Node114&#45;&gt;Node117</title>
<path fill="none" stroke="#191970" d="M679.0412,-69.6447C703.2913,-75.0179 731.6467,-81.3007 754.5345,-86.3721"/>
<polygon fill="#191970" stroke="#191970" points="679.7971,-66.2274 669.2767,-67.4811 678.2827,-73.0616 679.7971,-66.2274"/>
</g>
<!-- Node115&#45;&gt;Node114 -->
<g id="edge66" class="edge">
<title>Node115&#45;&gt;Node114</title>
<path fill="none" stroke="#191970" d="M501.1932,-43.3441C518.3478,-45.3437 539.1101,-47.7638 558.7358,-50.0515"/>
<polygon fill="#191970" stroke="#191970" points="501.3587,-39.8398 491.0207,-42.1583 500.5482,-46.7927 501.3587,-39.8398"/>
</g>
<!-- Node116&#45;&gt;Node114 -->
<g id="edge68" class="edge">
<title>Node116&#45;&gt;Node114</title>
<path fill="none" stroke="#191970" d="M525.0436,-69.66C536.1399,-68.3666 547.7472,-67.0136 558.9758,-65.7048"/>
<polygon fill="#191970" stroke="#191970" points="524.5499,-66.1938 515.0224,-70.8282 525.3604,-73.1467 524.5499,-66.1938"/>
</g>
<!-- Node117&#45;&gt;Node113 -->
<g id="edge70" class="edge">
<title>Node117&#45;&gt;Node113</title>
<path fill="none" stroke="#191970" d="M876.2491,-95.8921C884.6652,-95.8921 893.2509,-95.8921 901.7277,-95.8921"/>
<polygon fill="#191970" stroke="#191970" points="876.0861,-92.3922 866.0861,-95.8921 876.086,-99.3922 876.0861,-92.3922"/>
</g>
<!-- Node118 -->
<g id="node50" class="node">
<title>Node118</title>
<g id="a_node50"><a xlink:href="classSynchronizerFifo.html" target="_top" xlink:title="SynchronizerFifo">
<polygon fill="#ffffff" stroke="#ff0000" points="577.5,-86.3921 577.5,-105.3921 674.5,-105.3921 674.5,-86.3921 577.5,-86.3921"/>
<text text-anchor="middle" x="626" y="-93.3921" font-family="Helvetica,sans-Serif" font-size="10.00" fill="#000000">SynchronizerFifo</text>
</a>
</g>
</g>
<!-- Node118&#45;&gt;Node117 -->
<g id="edge72" class="edge">
<title>Node118&#45;&gt;Node117</title>
<path fill="none" stroke="#191970" d="M684.7951,-95.8921C698.9787,-95.8921 714.2577,-95.8921 728.8482,-95.8921"/>
<polygon fill="#191970" stroke="#191970" points="684.6863,-92.3922 674.6863,-95.8921 684.6862,-99.3922 684.6863,-92.3922"/>
</g>
</g>
</svg>
