<?xml version="1.0" encoding="UTF-8" standalone="no"?>
<!DOCTYPE svg PUBLIC "-//W3C//DTD SVG 1.1//EN"
 "http://www.w3.org/Graphics/SVG/1.1/DTD/svg11.dtd">
<!-- Generated by graphviz version 2.40.1 (20161225.0304)
 -->
<!-- Title: GigEthLvdsUltraScale Pages: 1 -->
<svg width="1570pt" height="750pt"
 viewBox="0.00 0.00 1570.00 750.00" xmlns="http://www.w3.org/2000/svg" xmlns:xlink="http://www.w3.org/1999/xlink">
<g id="graph0" class="graph" transform="scale(1 1) rotate(0) translate(4 746)">
<title>GigEthLvdsUltraScale</title>
<polygon fill="#ffffff" stroke="transparent" points="-4,4 -4,-746 1566,-746 1566,4 -4,4"/>
<!-- Node0 -->
<g id="node1" class="node">
<title>Node0</title>
<polygon fill="#bfbfbf" stroke="#000000" points="1045,-361.5 1045,-380.5 1167,-380.5 1167,-361.5 1045,-361.5"/>
<text text-anchor="middle" x="1106" y="-368.5" font-family="Helvetica,sans-Serif" font-size="10.00" fill="#000000">GigEthLvdsUltraScale</text>
</g>
<!-- Node62 -->
<g id="node47" class="node">
<title>Node62</title>
<g id="a_node47"><a xlink:href="classGigEthLvdsUltraScaleWrapper.html" target="_top" xlink:title="GigEthLvdsUltraScaleWrapper">
<polygon fill="#ffffff" stroke="#000000" points="1203,-361.5 1203,-380.5 1365,-380.5 1365,-361.5 1203,-361.5"/>
<text text-anchor="middle" x="1284" y="-368.5" font-family="Helvetica,sans-Serif" font-size="10.00" fill="#000000">GigEthLvdsUltraScaleWrapper</text>
</a>
</g>
</g>
<!-- Node0&#45;&gt;Node62 -->
<g id="edge58" class="edge">
<title>Node0&#45;&gt;Node62</title>
<path fill="none" stroke="#191970" d="M1177.3492,-371C1185.7283,-371 1194.3249,-371 1202.8255,-371"/>
<polygon fill="#191970" stroke="#191970" points="1177.2575,-367.5001 1167.2575,-371 1177.2575,-374.5001 1177.2575,-367.5001"/>
</g>
<!-- Node1 -->
<g id="node2" class="node">
<title>Node1</title>
<g id="a_node2"><a xlink:href="classAxiLiteAsync.html" target="_top" xlink:title="AxiLiteAsync">
<polygon fill="#ffffff" stroke="#000000" points="684,-513.5 684,-532.5 764,-532.5 764,-513.5 684,-513.5"/>
<text text-anchor="middle" x="724" y="-520.5" font-family="Helvetica,sans-Serif" font-size="10.00" fill="#000000">AxiLiteAsync</text>
</a>
</g>
</g>
<!-- Node1&#45;&gt;Node0 -->
<g id="edge1" class="edge">
<title>Node1&#45;&gt;Node0</title>
<path fill="none" stroke="#191970" d="M774.3613,-520.7983C811.2151,-518.1178 862.0654,-512.1749 905,-499 954.4043,-483.8398 965.3291,-474.631 1009,-447 1042.2651,-425.9528 1077.822,-395.8992 1095.1914,-380.659"/>
<polygon fill="#191970" stroke="#191970" points="774.0986,-517.308 764.356,-521.4712 774.5684,-524.2922 774.0986,-517.308"/>
</g>
<!-- Node2 -->
<g id="node3" class="node">
<title>Node2</title>
<g id="a_node3"><a xlink:href="classRstSync.html" target="_top" xlink:title="RstSync(2)">
<polygon fill="#ffffff" stroke="#ff0000" points="374.5,-494.5 374.5,-513.5 443.5,-513.5 443.5,-494.5 374.5,-494.5"/>
<text text-anchor="middle" x="409" y="-501.5" font-family="Helvetica,sans-Serif" font-size="10.00" fill="#000000">RstSync(2)</text>
</a>
</g>
</g>
<!-- Node2&#45;&gt;Node1 -->
<g id="edge2" class="edge">
<title>Node2&#45;&gt;Node1</title>
<path fill="none" stroke="#191970" d="M453.7827,-506.7012C515.2845,-510.4108 624.9535,-517.0258 683.8952,-520.581"/>
<polygon fill="#191970" stroke="#191970" points="453.8042,-503.1962 443.6116,-506.0877 453.3827,-510.1835 453.8042,-503.1962"/>
</g>
<!-- Node4 -->
<g id="node5" class="node">
<title>Node4</title>
<g id="a_node5"><a xlink:href="classFifoAsync.html" target="_top" xlink:title="FifoAsync(5)">
<polygon fill="#ffffff" stroke="#000000" points="532.5,-589.5 532.5,-608.5 609.5,-608.5 609.5,-589.5 532.5,-589.5"/>
<text text-anchor="middle" x="571" y="-596.5" font-family="Helvetica,sans-Serif" font-size="10.00" fill="#000000">FifoAsync(5)</text>
</a>
</g>
</g>
<!-- Node2&#45;&gt;Node4 -->
<g id="edge5" class="edge">
<title>Node2&#45;&gt;Node4</title>
<path fill="none" stroke="#191970" d="M453.1964,-515.4307C459.3146,-517.6176 465.4114,-520.1357 471,-523 507.2886,-541.5988 543.9203,-573.5784 561.0308,-589.4662"/>
<polygon fill="#191970" stroke="#191970" points="454.2278,-512.0854 443.6345,-512.2648 452.0275,-518.7306 454.2278,-512.0854"/>
</g>
<!-- Node3 -->
<g id="node4" class="node">
<title>Node3</title>
<g id="a_node4"><a xlink:href="classSynchronizer.html" target="_top" xlink:title="Synchronizer">
<polygon fill="#ffffff" stroke="#ff0000" points="187,-380.5 187,-399.5 267,-399.5 267,-380.5 187,-380.5"/>
<text text-anchor="middle" x="227" y="-387.5" font-family="Helvetica,sans-Serif" font-size="10.00" fill="#000000">Synchronizer</text>
</a>
</g>
</g>
<!-- Node3&#45;&gt;Node2 -->
<g id="edge3" class="edge">
<title>Node3&#45;&gt;Node2</title>
<path fill="none" stroke="#191970" d="M261.3213,-403.3643C276.9127,-409.976 295.3318,-418.5604 311,-428 345.1181,-448.555 381.1036,-479.0912 398.44,-494.4482"/>
<polygon fill="#191970" stroke="#191970" points="262.6067,-400.1084 252.0286,-399.5125 259.9263,-406.5749 262.6067,-400.1084"/>
</g>
<!-- Node12 -->
<g id="node13" class="node">
<title>Node12</title>
<g id="a_node13"><a xlink:href="classRstSync.html" target="_top" xlink:title="RstSync">
<polygon fill="#ffffff" stroke="#ff0000" points="381,-418.5 381,-437.5 437,-437.5 437,-418.5 381,-418.5"/>
<text text-anchor="middle" x="409" y="-425.5" font-family="Helvetica,sans-Serif" font-size="10.00" fill="#000000">RstSync</text>
</a>
</g>
</g>
<!-- Node3&#45;&gt;Node12 -->
<g id="edge14" class="edge">
<title>Node3&#45;&gt;Node12</title>
<path fill="none" stroke="#191970" d="M277.4294,-400.5292C310.8064,-407.498 353.3395,-416.3786 380.865,-422.1256"/>
<polygon fill="#191970" stroke="#191970" points="277.896,-397.0512 267.3917,-398.4334 276.4652,-403.9035 277.896,-397.0512"/>
</g>
<!-- Node15 -->
<g id="node16" class="node">
<title>Node15</title>
<g id="a_node16"><a xlink:href="classAxiStreamFifoV2.html" target="_top" xlink:title="AxiStreamFifoV2(3)">
<polygon fill="#ffffff" stroke="#000000" points="353.5,-266.5 353.5,-285.5 464.5,-285.5 464.5,-266.5 353.5,-266.5"/>
<text text-anchor="middle" x="409" y="-273.5" font-family="Helvetica,sans-Serif" font-size="10.00" fill="#000000">AxiStreamFifoV2(3)</text>
</a>
</g>
</g>
<!-- Node3&#45;&gt;Node15 -->
<g id="edge21" class="edge">
<title>Node3&#45;&gt;Node15</title>
<path fill="none" stroke="#191970" d="M252.1344,-374.9585C269.3797,-364.1646 292.4156,-348.7908 311,-333 328.7289,-317.9361 327.2262,-307.2569 347,-295 353.2197,-291.1447 360.278,-288.0222 367.3481,-285.509"/>
<polygon fill="#191970" stroke="#191970" points="249.8901,-372.2304 243.2145,-380.4576 253.5636,-378.1891 249.8901,-372.2304"/>
</g>
<!-- Node28 -->
<g id="node24" class="node">
<title>Node28</title>
<g id="a_node24"><a xlink:href="classAxiStreamFifoV2.html" target="_top" xlink:title="AxiStreamFifoV2">
<polygon fill="#ffffff" stroke="#ff0000" points="360,-304.5 360,-323.5 458,-323.5 458,-304.5 360,-304.5"/>
<text text-anchor="middle" x="409" y="-311.5" font-family="Helvetica,sans-Serif" font-size="10.00" fill="#000000">AxiStreamFifoV2</text>
</a>
</g>
</g>
<!-- Node3&#45;&gt;Node28 -->
<g id="edge30" class="edge">
<title>Node3&#45;&gt;Node28</title>
<path fill="none" stroke="#191970" d="M277.3323,-379.72C288.8095,-376.2744 300.6605,-371.7852 311,-366 329.9417,-355.4017 328.1602,-343.7784 347,-333 353.6448,-329.1985 361.1341,-326.0759 368.5504,-323.5399"/>
<polygon fill="#191970" stroke="#191970" points="276.0861,-376.4337 267.3898,-382.4856 277.9621,-383.1776 276.0861,-376.4337"/>
</g>
<!-- Node54 -->
<g id="node43" class="node">
<title>Node54</title>
<g id="a_node43"><a xlink:href="classWatchDogRst.html" target="_top" xlink:title="WatchDogRst">
<polygon fill="#ffffff" stroke="#000000" points="368,-342.5 368,-361.5 450,-361.5 450,-342.5 368,-342.5"/>
<text text-anchor="middle" x="409" y="-349.5" font-family="Helvetica,sans-Serif" font-size="10.00" fill="#000000">WatchDogRst</text>
</a>
</g>
</g>
<!-- Node3&#45;&gt;Node54 -->
<g id="edge53" class="edge">
<title>Node3&#45;&gt;Node54</title>
<path fill="none" stroke="#191970" d="M277.5396,-379.4478C305.9715,-373.5114 341.02,-366.1936 367.776,-360.6072"/>
<polygon fill="#191970" stroke="#191970" points="276.4652,-376.0965 267.3917,-381.5666 277.896,-382.9488 276.4652,-376.0965"/>
</g>
<!-- Node4&#45;&gt;Node1 -->
<g id="edge4" class="edge">
<title>Node4&#45;&gt;Node1</title>
<path fill="none" stroke="#191970" d="M599.7005,-584.7435C630.4233,-569.4826 678.3082,-545.6966 704.7798,-532.5473"/>
<polygon fill="#191970" stroke="#191970" points="597.7764,-581.7912 590.3776,-589.3745 600.8906,-588.0604 597.7764,-581.7912"/>
</g>
<!-- Node5 -->
<g id="node6" class="node">
<title>Node5</title>
<g id="a_node6"><a xlink:href="classSynchronizerVector.html" target="_top" xlink:title="SynchronizerVector(2)">
<polygon fill="#ffffff" stroke="#ff0000" points="347,-608.5 347,-627.5 471,-627.5 471,-608.5 347,-608.5"/>
<text text-anchor="middle" x="409" y="-615.5" font-family="Helvetica,sans-Serif" font-size="10.00" fill="#000000">SynchronizerVector(2)</text>
</a>
</g>
</g>
<!-- Node5&#45;&gt;Node4 -->
<g id="edge6" class="edge">
<title>Node5&#45;&gt;Node4</title>
<path fill="none" stroke="#191970" d="M481.3838,-609.5105C498.8799,-607.4585 516.9184,-605.3429 532.1841,-603.5525"/>
<polygon fill="#191970" stroke="#191970" points="480.6943,-606.0673 471.1701,-610.7084 481.5098,-613.0197 480.6943,-606.0673"/>
</g>
<!-- Node6 -->
<g id="node7" class="node">
<title>Node6</title>
<g id="a_node7"><a xlink:href="classSynchronizer.html" target="_top" xlink:title="Synchronizer(2)">
<polygon fill="#ffffff" stroke="#ff0000" points="362.5,-570.5 362.5,-589.5 455.5,-589.5 455.5,-570.5 362.5,-570.5"/>
<text text-anchor="middle" x="409" y="-577.5" font-family="Helvetica,sans-Serif" font-size="10.00" fill="#000000">Synchronizer(2)</text>
</a>
</g>
</g>
<!-- Node6&#45;&gt;Node4 -->
<g id="edge7" class="edge">
<title>Node6&#45;&gt;Node4</title>
<path fill="none" stroke="#191970" d="M466.0746,-586.6939C488.0499,-589.2713 512.6062,-592.1513 532.4349,-594.4769"/>
<polygon fill="#191970" stroke="#191970" points="466.1968,-583.1844 455.8571,-585.4956 465.3813,-590.1367 466.1968,-583.1844"/>
</g>
<!-- Node7 -->
<g id="node8" class="node">
<title>Node7</title>
<g id="a_node8"><a xlink:href="classFifoWrFsm.html" target="_top" xlink:title="FifoWrFsm">
<polygon fill="#ffffff" stroke="#ff0000" points="375.5,-532.5 375.5,-551.5 442.5,-551.5 442.5,-532.5 375.5,-532.5"/>
<text text-anchor="middle" x="409" y="-539.5" font-family="Helvetica,sans-Serif" font-size="10.00" fill="#000000">FifoWrFsm</text>
</a>
</g>
</g>
<!-- Node7&#45;&gt;Node4 -->
<g id="edge8" class="edge">
<title>Node7&#45;&gt;Node4</title>
<path fill="none" stroke="#191970" d="M451.2102,-554.5274C457.856,-556.6171 464.6319,-558.8169 471,-561 497.353,-570.0341 527.1559,-581.5276 547.3182,-589.4968"/>
<polygon fill="#191970" stroke="#191970" points="452.2171,-551.1752 441.6292,-551.5593 450.1457,-557.8618 452.2171,-551.1752"/>
</g>
<!-- Node8 -->
<g id="node9" class="node">
<title>Node8</title>
<g id="a_node9"><a xlink:href="classFifoRdFsm.html" target="_top" xlink:title="FifoRdFsm">
<polygon fill="#ffffff" stroke="#ff0000" points="375.5,-722.5 375.5,-741.5 442.5,-741.5 442.5,-722.5 375.5,-722.5"/>
<text text-anchor="middle" x="409" y="-729.5" font-family="Helvetica,sans-Serif" font-size="10.00" fill="#000000">FifoRdFsm</text>
</a>
</g>
</g>
<!-- Node8&#45;&gt;Node4 -->
<g id="edge9" class="edge">
<title>Node8&#45;&gt;Node4</title>
<path fill="none" stroke="#191970" d="M452.2521,-722.1492C458.8085,-719.7072 465.2836,-716.6967 471,-713 515.4355,-684.264 551.7404,-630.3749 565.2891,-608.5458"/>
<polygon fill="#191970" stroke="#191970" points="451.053,-718.8594 442.6669,-725.3343 453.2604,-725.5023 451.053,-718.8594"/>
</g>
<!-- Node9 -->
<g id="node10" class="node">
<title>Node9</title>
<g id="a_node10"><a xlink:href="classSimpleDualPortRam.html" target="_top" xlink:title="SimpleDualPortRam">
<polygon fill="#ffffff" stroke="#ff0000" points="351.5,-684.5 351.5,-703.5 466.5,-703.5 466.5,-684.5 351.5,-684.5"/>
<text text-anchor="middle" x="409" y="-691.5" font-family="Helvetica,sans-Serif" font-size="10.00" fill="#000000">SimpleDualPortRam</text>
</a>
</g>
</g>
<!-- Node9&#45;&gt;Node4 -->
<g id="edge10" class="edge">
<title>Node9&#45;&gt;Node4</title>
<path fill="none" stroke="#191970" d="M457.4746,-680.9822C462.1355,-679.187 466.717,-677.1952 471,-675 507.2886,-656.4012 543.9203,-624.4216 561.0308,-608.5338"/>
<polygon fill="#191970" stroke="#191970" points="456.1191,-677.7493 447.8663,-684.3932 458.461,-684.346 456.1191,-677.7493"/>
</g>
<!-- Node10 -->
<g id="node11" class="node">
<title>Node10</title>
<g id="a_node11"><a xlink:href="classFifoOutputPipeline.html" target="_top" xlink:title="FifoOutputPipeline">
<polygon fill="#ffffff" stroke="#ff0000" points="356,-646.5 356,-665.5 462,-665.5 462,-646.5 356,-646.5"/>
<text text-anchor="middle" x="409" y="-653.5" font-family="Helvetica,sans-Serif" font-size="10.00" fill="#000000">FifoOutputPipeline</text>
</a>
</g>
</g>
<!-- Node10&#45;&gt;Node4 -->
<g id="edge11" class="edge">
<title>Node10&#45;&gt;Node4</title>
<path fill="none" stroke="#191970" d="M451.2102,-643.4726C457.856,-641.3829 464.6319,-639.1831 471,-637 497.353,-627.9659 527.1559,-616.4724 547.3182,-608.5032"/>
<polygon fill="#191970" stroke="#191970" points="450.1457,-640.1382 441.6292,-646.4407 452.2171,-646.8248 450.1457,-640.1382"/>
</g>
<!-- Node11 -->
<g id="node12" class="node">
<title>Node11</title>
<g id="a_node12"><a xlink:href="classPwrUpRst.html" target="_top" xlink:title="PwrUpRst">
<polygon fill="#ffffff" stroke="#000000" points="943,-418.5 943,-437.5 1007,-437.5 1007,-418.5 943,-418.5"/>
<text text-anchor="middle" x="975" y="-425.5" font-family="Helvetica,sans-Serif" font-size="10.00" fill="#000000">PwrUpRst</text>
</a>
</g>
</g>
<!-- Node11&#45;&gt;Node0 -->
<g id="edge12" class="edge">
<title>Node11&#45;&gt;Node0</title>
<path fill="none" stroke="#191970" d="M1006.2978,-414.3819C1030.2647,-403.9535 1062.7233,-389.8303 1084.002,-380.5716"/>
<polygon fill="#191970" stroke="#191970" points="1004.6996,-411.2602 996.9265,-418.4595 1007.4925,-417.679 1004.6996,-411.2602"/>
</g>
<!-- Node12&#45;&gt;Node11 -->
<g id="edge13" class="edge">
<title>Node12&#45;&gt;Node11</title>
<path fill="none" stroke="#191970" d="M436.6048,-441.8781C455.8069,-450.7301 482.2954,-461.378 507,-466 668.8568,-496.282 866.6693,-455.1157 942.9197,-436.4012"/>
<polygon fill="#191970" stroke="#191970" points="438.0756,-438.702 427.54,-437.583 435.0782,-445.0279 438.0756,-438.702"/>
</g>
<!-- Node13 -->
<g id="node14" class="node">
<title>Node13</title>
<g id="a_node14"><a xlink:href="classEthMacTop.html" target="_top" xlink:title="EthMacTop">
<polygon fill="#ffffff" stroke="#000000" points="941,-228.5 941,-247.5 1009,-247.5 1009,-228.5 941,-228.5"/>
<text text-anchor="middle" x="975" y="-235.5" font-family="Helvetica,sans-Serif" font-size="10.00" fill="#000000">EthMacTop</text>
</a>
</g>
</g>
<!-- Node13&#45;&gt;Node0 -->
<g id="edge15" class="edge">
<title>Node13&#45;&gt;Node0</title>
<path fill="none" stroke="#191970" d="M991.4463,-254.6974C1019.0981,-282.7713 1074.0594,-338.5717 1096.3107,-361.1628"/>
<polygon fill="#191970" stroke="#191970" points="993.9321,-252.2334 984.4212,-247.565 988.945,-257.1456 993.9321,-252.2334"/>
</g>
<!-- Node14 -->
<g id="node15" class="node">
<title>Node14</title>
<g id="a_node15"><a xlink:href="classEthMacTxFifo.html" target="_top" xlink:title="EthMacTxFifo">
<polygon fill="#ffffff" stroke="#000000" points="818.5,-95.5 818.5,-114.5 899.5,-114.5 899.5,-95.5 818.5,-95.5"/>
<text text-anchor="middle" x="859" y="-102.5" font-family="Helvetica,sans-Serif" font-size="10.00" fill="#000000">EthMacTxFifo</text>
</a>
</g>
</g>
<!-- Node14&#45;&gt;Node13 -->
<g id="edge16" class="edge">
<title>Node14&#45;&gt;Node13</title>
<path fill="none" stroke="#191970" d="M880.2401,-120.7472C888.3759,-127.2285 897.4973,-135.0696 905,-143 931.8918,-171.425 957.6219,-210.3169 968.9543,-228.2341"/>
<polygon fill="#191970" stroke="#191970" points="882.2762,-117.8971 872.2278,-114.5385 877.9886,-123.4303 882.2762,-117.8971"/>
</g>
<!-- Node15&#45;&gt;Node14 -->
<g id="edge17" class="edge">
<title>Node15&#45;&gt;Node14</title>
<path fill="none" stroke="#191970" d="M423.868,-258.7552C460.6306,-217.7421 560.8391,-115.6024 671,-86 725.4917,-71.357 791.6264,-84.9674 829.1604,-95.4758"/>
<polygon fill="#191970" stroke="#191970" points="421.1858,-256.505 417.1908,-266.3177 426.4332,-261.138 421.1858,-256.505"/>
</g>
<!-- Node16 -->
<g id="node17" class="node">
<title>Node16</title>
<g id="a_node17"><a xlink:href="classAxiStreamResize.html" target="_top" xlink:title="AxiStreamResize(2)">
<polygon fill="#ffffff" stroke="#ff0000" points="170.5,-266.5 170.5,-285.5 283.5,-285.5 283.5,-266.5 170.5,-266.5"/>
<text text-anchor="middle" x="227" y="-273.5" font-family="Helvetica,sans-Serif" font-size="10.00" fill="#000000">AxiStreamResize(2)</text>
</a>
</g>
</g>
<!-- Node16&#45;&gt;Node15 -->
<g id="edge18" class="edge">
<title>Node16&#45;&gt;Node15</title>
<path fill="none" stroke="#191970" d="M293.6769,-276C313.2936,-276 334.5378,-276 353.3838,-276"/>
<polygon fill="#191970" stroke="#191970" points="293.5883,-272.5001 283.5883,-276 293.5883,-279.5001 293.5883,-272.5001"/>
</g>
<!-- Node16&#45;&gt;Node28 -->
<g id="edge28" class="edge">
<title>Node16&#45;&gt;Node28</title>
<path fill="none" stroke="#191970" d="M282.9458,-287.681C308.7558,-293.0699 339.0069,-299.3861 363.404,-304.4799"/>
<polygon fill="#191970" stroke="#191970" points="283.4306,-284.2068 272.9263,-285.589 281.9998,-291.059 283.4306,-284.2068"/>
</g>
<!-- Node17 -->
<g id="node18" class="node">
<title>Node17</title>
<g id="a_node18"><a xlink:href="classAxiStreamPipeline.html" target="_top" xlink:title="AxiStreamPipeline">
<polygon fill="#ffffff" stroke="#ff0000" points="0,-304.5 0,-323.5 107,-323.5 107,-304.5 0,-304.5"/>
<text text-anchor="middle" x="53.5" y="-311.5" font-family="Helvetica,sans-Serif" font-size="10.00" fill="#000000">AxiStreamPipeline</text>
</a>
</g>
</g>
<!-- Node17&#45;&gt;Node15 -->
<g id="edge22" class="edge">
<title>Node17&#45;&gt;Node15</title>
<path fill="none" stroke="#191970" d="M72.0708,-297.6492C89.1584,-283.7743 115.8903,-264.8997 143,-257 224.3426,-233.297 325.3171,-253.1909 376.2899,-266.4641"/>
<polygon fill="#191970" stroke="#191970" points="69.4765,-295.257 64.0633,-304.3646 73.9746,-300.6205 69.4765,-295.257"/>
</g>
<!-- Node17&#45;&gt;Node16 -->
<g id="edge19" class="edge">
<title>Node17&#45;&gt;Node16</title>
<path fill="none" stroke="#191970" d="M107.1598,-302.2474C131.6927,-296.8742 160.3787,-290.5914 183.5335,-285.5201"/>
<polygon fill="#191970" stroke="#191970" points="106.301,-298.8525 97.2814,-304.411 107.7987,-305.6904 106.301,-298.8525"/>
</g>
<!-- Node17&#45;&gt;Node28 -->
<g id="edge31" class="edge">
<title>Node17&#45;&gt;Node28</title>
<path fill="none" stroke="#191970" d="M99.6,-325.711C113.4569,-328.7083 128.7624,-331.5054 143,-333 217.2586,-340.7953 236.6754,-340.1385 311,-333 330.3215,-331.1443 351.4945,-327.2756 369.2007,-323.5105"/>
<polygon fill="#191970" stroke="#191970" points="100.3262,-322.287 89.802,-323.5089 98.7911,-329.1166 100.3262,-322.287"/>
</g>
<!-- Node30 -->
<g id="node26" class="node">
<title>Node30</title>
<g id="a_node26"><a xlink:href="classAxiStreamMux.html" target="_top" xlink:title="AxiStreamMux">
<polygon fill="#ffffff" stroke="#000000" points="183,-437.5 183,-456.5 271,-456.5 271,-437.5 183,-437.5"/>
<text text-anchor="middle" x="227" y="-444.5" font-family="Helvetica,sans-Serif" font-size="10.00" fill="#000000">AxiStreamMux</text>
</a>
</g>
</g>
<!-- Node17&#45;&gt;Node30 -->
<g id="edge34" class="edge">
<title>Node17&#45;&gt;Node30</title>
<path fill="none" stroke="#191970" d="M66.6879,-331.7516C82.8143,-352.4778 111.8346,-386.75 143,-409 160.0653,-421.1835 181.6612,-430.8484 198.6823,-437.3821"/>
<polygon fill="#191970" stroke="#191970" points="69.2586,-329.3507 60.4105,-323.523 63.6931,-333.5965 69.2586,-329.3507"/>
</g>
<!-- Node18 -->
<g id="node19" class="node">
<title>Node18</title>
<g id="a_node19"><a xlink:href="classFifoCascade.html" target="_top" xlink:title="FifoCascade(2)">
<polygon fill="#ffffff" stroke="#ff0000" points="182.5,-304.5 182.5,-323.5 271.5,-323.5 271.5,-304.5 182.5,-304.5"/>
<text text-anchor="middle" x="227" y="-311.5" font-family="Helvetica,sans-Serif" font-size="10.00" fill="#000000">FifoCascade(2)</text>
</a>
</g>
</g>
<!-- Node18&#45;&gt;Node15 -->
<g id="edge20" class="edge">
<title>Node18&#45;&gt;Node15</title>
<path fill="none" stroke="#191970" d="M281.6291,-302.5939C307.7052,-297.1495 338.5505,-290.7092 363.3554,-285.5302"/>
<polygon fill="#191970" stroke="#191970" points="280.5957,-299.2341 271.5222,-304.7042 282.0265,-306.0864 280.5957,-299.2341"/>
</g>
<!-- Node18&#45;&gt;Node28 -->
<g id="edge29" class="edge">
<title>Node18&#45;&gt;Node28</title>
<path fill="none" stroke="#191970" d="M281.5299,-314C306.4014,-314 335.6283,-314 359.8175,-314"/>
<polygon fill="#191970" stroke="#191970" points="281.5222,-310.5001 271.5222,-314 281.5222,-317.5001 281.5222,-310.5001"/>
</g>
<!-- Node24 -->
<g id="node20" class="node">
<title>Node24</title>
<g id="a_node20"><a xlink:href="classEthMacTx.html" target="_top" xlink:title="EthMacTx">
<polygon fill="#ffffff" stroke="#000000" points="827,-361.5 827,-380.5 891,-380.5 891,-361.5 827,-361.5"/>
<text text-anchor="middle" x="859" y="-368.5" font-family="Helvetica,sans-Serif" font-size="10.00" fill="#000000">EthMacTx</text>
</a>
</g>
</g>
<!-- Node24&#45;&gt;Node13 -->
<g id="edge23" class="edge">
<title>Node24&#45;&gt;Node13</title>
<path fill="none" stroke="#191970" d="M874.1963,-353.5767C898.8785,-325.2772 946.8851,-270.2352 966.4202,-247.8372"/>
<polygon fill="#191970" stroke="#191970" points="871.2778,-351.5981 867.3424,-361.435 876.5532,-356.1992 871.2778,-351.5981"/>
</g>
<!-- Node25 -->
<g id="node21" class="node">
<title>Node25</title>
<g id="a_node21"><a xlink:href="classEthMacTxBypass.html" target="_top" xlink:title="EthMacTxBypass">
<polygon fill="#ffffff" stroke="#000000" points="674.5,-399.5 674.5,-418.5 773.5,-418.5 773.5,-399.5 674.5,-399.5"/>
<text text-anchor="middle" x="724" y="-406.5" font-family="Helvetica,sans-Serif" font-size="10.00" fill="#000000">EthMacTxBypass</text>
</a>
</g>
</g>
<!-- Node25&#45;&gt;Node24 -->
<g id="edge24" class="edge">
<title>Node25&#45;&gt;Node24</title>
<path fill="none" stroke="#191970" d="M767.8036,-396.6701C787.0104,-391.2638 809.1489,-385.0321 826.8035,-380.0627"/>
<polygon fill="#191970" stroke="#191970" points="766.7438,-393.3323 758.0662,-399.411 768.6405,-400.0705 766.7438,-393.3323"/>
</g>
<!-- Node26 -->
<g id="node22" class="node">
<title>Node26</title>
<g id="a_node22"><a xlink:href="classEthMacTxCsum.html" target="_top" xlink:title="EthMacTxCsum(2)">
<polygon fill="#ffffff" stroke="#000000" points="518.5,-380.5 518.5,-399.5 623.5,-399.5 623.5,-380.5 518.5,-380.5"/>
<text text-anchor="middle" x="571" y="-387.5" font-family="Helvetica,sans-Serif" font-size="10.00" fill="#000000">EthMacTxCsum(2)</text>
</a>
</g>
</g>
<!-- Node26&#45;&gt;Node24 -->
<g id="edge25" class="edge">
<title>Node26&#45;&gt;Node24</title>
<path fill="none" stroke="#191970" d="M633.849,-385.8537C693.2731,-381.9334 780.0719,-376.2071 826.6315,-373.1354"/>
<polygon fill="#191970" stroke="#191970" points="633.5715,-382.3643 623.8236,-386.5151 634.0324,-389.3491 633.5715,-382.3643"/>
</g>
<!-- Node27 -->
<g id="node23" class="node">
<title>Node27</title>
<g id="a_node23"><a xlink:href="classAxiStreamPipeline.html" target="_top" xlink:title="AxiStreamPipeline(2)">
<polygon fill="#ffffff" stroke="#000000" points="349,-380.5 349,-399.5 469,-399.5 469,-380.5 349,-380.5"/>
<text text-anchor="middle" x="409" y="-387.5" font-family="Helvetica,sans-Serif" font-size="10.00" fill="#000000">AxiStreamPipeline(2)</text>
</a>
</g>
</g>
<!-- Node27&#45;&gt;Node26 -->
<g id="edge26" class="edge">
<title>Node27&#45;&gt;Node26</title>
<path fill="none" stroke="#191970" d="M479.6426,-390C492.6397,-390 505.9986,-390 518.3508,-390"/>
<polygon fill="#191970" stroke="#191970" points="479.3229,-386.5001 469.3228,-390 479.3228,-393.5001 479.3229,-386.5001"/>
</g>
<!-- Node28&#45;&gt;Node26 -->
<g id="edge27" class="edge">
<title>Node28&#45;&gt;Node26</title>
<path fill="none" stroke="#191970" d="M460.1786,-327.3122C463.9464,-329.0024 467.5986,-330.8916 471,-333 490.7738,-345.2569 487.1726,-358.83 507,-371 513.2232,-374.8198 520.2594,-377.9102 527.3315,-380.3989"/>
<polygon fill="#191970" stroke="#191970" points="461.2369,-323.9661 450.6519,-323.509 458.6415,-330.4672 461.2369,-323.9661"/>
</g>
<!-- Node33 -->
<g id="node29" class="node">
<title>Node33</title>
<g id="a_node29"><a xlink:href="classEthMacTxExportXgmii.html" target="_top" xlink:title="EthMacTxExportXgmii">
<polygon fill="#ffffff" stroke="#ff0000" points="509,-304.5 509,-323.5 633,-323.5 633,-304.5 509,-304.5"/>
<text text-anchor="middle" x="571" y="-311.5" font-family="Helvetica,sans-Serif" font-size="10.00" fill="#000000">EthMacTxExportXgmii</text>
</a>
</g>
</g>
<!-- Node28&#45;&gt;Node33 -->
<g id="edge38" class="edge">
<title>Node28&#45;&gt;Node33</title>
<path fill="none" stroke="#191970" d="M468.4168,-314C481.6064,-314 495.6197,-314 508.9131,-314"/>
<polygon fill="#191970" stroke="#191970" points="468.045,-310.5001 458.045,-314 468.0449,-317.5001 468.045,-310.5001"/>
</g>
<!-- Node29 -->
<g id="node25" class="node">
<title>Node29</title>
<g id="a_node25"><a xlink:href="classEthMacTxPause.html" target="_top" xlink:title="EthMacTxPause">
<polygon fill="#ffffff" stroke="#000000" points="525,-437.5 525,-456.5 617,-456.5 617,-437.5 525,-437.5"/>
<text text-anchor="middle" x="571" y="-444.5" font-family="Helvetica,sans-Serif" font-size="10.00" fill="#000000">EthMacTxPause</text>
</a>
</g>
</g>
<!-- Node29&#45;&gt;Node24 -->
<g id="edge32" class="edge">
<title>Node29&#45;&gt;Node24</title>
<path fill="none" stroke="#191970" d="M627.1928,-449.4476C669.5886,-449.4985 728.5281,-445.6776 777,-428 805.9931,-417.4263 834.3113,-393.9994 848.8762,-380.7053"/>
<polygon fill="#191970" stroke="#191970" points="627.0878,-445.9467 617.0584,-449.3616 627.0283,-452.9464 627.0878,-445.9467"/>
</g>
<!-- Node30&#45;&gt;Node29 -->
<g id="edge33" class="edge">
<title>Node30&#45;&gt;Node29</title>
<path fill="none" stroke="#191970" d="M281.6559,-447C348.9216,-447 461.9487,-447 524.9838,-447"/>
<polygon fill="#191970" stroke="#191970" points="281.2678,-443.5001 271.2677,-447 281.2677,-450.5001 281.2678,-443.5001"/>
</g>
<!-- Node31 -->
<g id="node27" class="node">
<title>Node31</title>
<g id="a_node27"><a xlink:href="classEthMacTxExport.html" target="_top" xlink:title="EthMacTxExport">
<polygon fill="#ffffff" stroke="#000000" points="676.5,-323.5 676.5,-342.5 771.5,-342.5 771.5,-323.5 676.5,-323.5"/>
<text text-anchor="middle" x="724" y="-330.5" font-family="Helvetica,sans-Serif" font-size="10.00" fill="#000000">EthMacTxExport</text>
</a>
</g>
</g>
<!-- Node31&#45;&gt;Node24 -->
<g id="edge35" class="edge">
<title>Node31&#45;&gt;Node24</title>
<path fill="none" stroke="#191970" d="M767.8036,-345.3299C787.0104,-350.7362 809.1489,-356.9679 826.8035,-361.9373"/>
<polygon fill="#191970" stroke="#191970" points="768.6405,-341.9295 758.0662,-342.589 766.7438,-348.6677 768.6405,-341.9295"/>
</g>
<!-- Node32 -->
<g id="node28" class="node">
<title>Node32</title>
<g id="a_node28"><a xlink:href="classEthMacTxExportXlgmii.html" target="_top" xlink:title="EthMacTxExportXlgmii">
<polygon fill="#ffffff" stroke="#000000" points="507.5,-342.5 507.5,-361.5 634.5,-361.5 634.5,-342.5 507.5,-342.5"/>
<text text-anchor="middle" x="571" y="-349.5" font-family="Helvetica,sans-Serif" font-size="10.00" fill="#000000">EthMacTxExportXlgmii</text>
</a>
</g>
</g>
<!-- Node32&#45;&gt;Node31 -->
<g id="edge36" class="edge">
<title>Node32&#45;&gt;Node31</title>
<path fill="none" stroke="#191970" d="M644.7743,-342.8385C655.4829,-341.5087 666.2627,-340.17 676.2732,-338.9269"/>
<polygon fill="#191970" stroke="#191970" points="644.049,-339.4016 634.5566,-344.1074 644.9117,-346.3482 644.049,-339.4016"/>
</g>
<!-- Node33&#45;&gt;Node31 -->
<g id="edge37" class="edge">
<title>Node33&#45;&gt;Node31</title>
<path fill="none" stroke="#191970" d="M643.4404,-322.9959C654.6228,-324.3845 665.9212,-325.7876 676.3762,-327.0859"/>
<polygon fill="#191970" stroke="#191970" points="643.5861,-319.4872 633.231,-321.728 642.7234,-326.4338 643.5861,-319.4872"/>
</g>
<!-- Node35 -->
<g id="node30" class="node">
<title>Node35</title>
<g id="a_node30"><a xlink:href="classEthMacTxExportGmii.html" target="_top" xlink:title="EthMacTxExportGmii">
<polygon fill="#ffffff" stroke="#ff0000" points="511.5,-266.5 511.5,-285.5 630.5,-285.5 630.5,-266.5 511.5,-266.5"/>
<text text-anchor="middle" x="571" y="-273.5" font-family="Helvetica,sans-Serif" font-size="10.00" fill="#000000">EthMacTxExportGmii</text>
</a>
</g>
</g>
<!-- Node35&#45;&gt;Node31 -->
<g id="edge39" class="edge">
<title>Node35&#45;&gt;Node31</title>
<path fill="none" stroke="#191970" d="M617.5563,-288.6446C623.4896,-290.5989 629.4307,-292.7295 635,-295 651.753,-301.8298 654.4434,-306.7069 671,-314 678.693,-317.3887 687.1986,-320.6449 695.1025,-323.4751"/>
<polygon fill="#191970" stroke="#191970" points="618.2348,-285.1891 607.6454,-285.5287 616.1353,-291.8668 618.2348,-285.1891"/>
</g>
<!-- Node37 -->
<g id="node31" class="node">
<title>Node37</title>
<g id="a_node31"><a xlink:href="classEthMacFlowCtrl.html" target="_top" xlink:title="EthMacFlowCtrl">
<polygon fill="#ffffff" stroke="#000000" points="813,-247.5 813,-266.5 905,-266.5 905,-247.5 813,-247.5"/>
<text text-anchor="middle" x="859" y="-254.5" font-family="Helvetica,sans-Serif" font-size="10.00" fill="#000000">EthMacFlowCtrl</text>
</a>
</g>
</g>
<!-- Node37&#45;&gt;Node13 -->
<g id="edge40" class="edge">
<title>Node37&#45;&gt;Node13</title>
<path fill="none" stroke="#191970" d="M915.3187,-247.7754C924.0154,-246.3509 932.7625,-244.9182 940.7771,-243.6055"/>
<polygon fill="#191970" stroke="#191970" points="914.4823,-244.3657 905.1796,-249.4361 915.6138,-251.2736 914.4823,-244.3657"/>
</g>
<!-- Node38 -->
<g id="node32" class="node">
<title>Node38</title>
<g id="a_node32"><a xlink:href="classEthMacRx.html" target="_top" xlink:title="EthMacRx">
<polygon fill="#ffffff" stroke="#000000" points="826.5,-209.5 826.5,-228.5 891.5,-228.5 891.5,-209.5 826.5,-209.5"/>
<text text-anchor="middle" x="859" y="-216.5" font-family="Helvetica,sans-Serif" font-size="10.00" fill="#000000">EthMacRx</text>
</a>
</g>
</g>
<!-- Node38&#45;&gt;Node13 -->
<g id="edge41" class="edge">
<title>Node38&#45;&gt;Node13</title>
<path fill="none" stroke="#191970" d="M901.6274,-225.9821C914.4596,-228.0839 928.3738,-230.363 940.6009,-232.3657"/>
<polygon fill="#191970" stroke="#191970" points="902.0554,-222.5056 891.6212,-224.3431 900.9239,-229.4136 902.0554,-222.5056"/>
</g>
<!-- Node39 -->
<g id="node33" class="node">
<title>Node39</title>
<g id="a_node33"><a xlink:href="classEthMacRxImport.html" target="_top" xlink:title="EthMacRxImport">
<polygon fill="#ffffff" stroke="#ff0000" points="675.5,-247.5 675.5,-266.5 772.5,-266.5 772.5,-247.5 675.5,-247.5"/>
<text text-anchor="middle" x="724" y="-254.5" font-family="Helvetica,sans-Serif" font-size="10.00" fill="#000000">EthMacRxImport</text>
</a>
</g>
</g>
<!-- Node39&#45;&gt;Node38 -->
<g id="edge42" class="edge">
<title>Node39&#45;&gt;Node38</title>
<path fill="none" stroke="#191970" d="M767.7292,-244.691C786.7862,-239.3269 808.7411,-233.1469 826.3418,-228.1927"/>
<polygon fill="#191970" stroke="#191970" points="766.7438,-241.3323 758.0662,-247.411 768.6405,-248.0705 766.7438,-241.3323"/>
</g>
<!-- Node40 -->
<g id="node34" class="node">
<title>Node40</title>
<g id="a_node34"><a xlink:href="classEthMacRxImportXlgmii.html" target="_top" xlink:title="EthMacRxImportXlgmii">
<polygon fill="#ffffff" stroke="#000000" points="507,-228.5 507,-247.5 635,-247.5 635,-228.5 507,-228.5"/>
<text text-anchor="middle" x="571" y="-235.5" font-family="Helvetica,sans-Serif" font-size="10.00" fill="#000000">EthMacRxImportXlgmii</text>
</a>
</g>
</g>
<!-- Node40&#45;&gt;Node39 -->
<g id="edge43" class="edge">
<title>Node40&#45;&gt;Node39</title>
<path fill="none" stroke="#191970" d="M645.5558,-247.2586C655.711,-248.5197 665.9119,-249.7864 675.4421,-250.9699"/>
<polygon fill="#191970" stroke="#191970" points="645.7975,-243.7618 635.4423,-246.0026 644.9348,-250.7084 645.7975,-243.7618"/>
</g>
<!-- Node41 -->
<g id="node35" class="node">
<title>Node41</title>
<g id="a_node35"><a xlink:href="classEthMacRxImportXgmii.html" target="_top" xlink:title="EthMacRxImportXgmii">
<polygon fill="#ffffff" stroke="#ff0000" points="508.5,-190.5 508.5,-209.5 633.5,-209.5 633.5,-190.5 508.5,-190.5"/>
<text text-anchor="middle" x="571" y="-197.5" font-family="Helvetica,sans-Serif" font-size="10.00" fill="#000000">EthMacRxImportXgmii</text>
</a>
</g>
</g>
<!-- Node41&#45;&gt;Node39 -->
<g id="edge44" class="edge">
<title>Node41&#45;&gt;Node39</title>
<path fill="none" stroke="#191970" d="M617.5563,-212.6446C623.4896,-214.5989 629.4307,-216.7295 635,-219 651.753,-225.8298 654.4434,-230.7069 671,-238 678.693,-241.3887 687.1986,-244.6449 695.1025,-247.4751"/>
<polygon fill="#191970" stroke="#191970" points="618.2348,-209.1891 607.6454,-209.5287 616.1353,-215.8668 618.2348,-209.1891"/>
</g>
<!-- Node44 -->
<g id="node36" class="node">
<title>Node44</title>
<g id="a_node36"><a xlink:href="classEthMacRxPause.html" target="_top" xlink:title="EthMacRxPause">
<polygon fill="#ffffff" stroke="#000000" points="677.5,-209.5 677.5,-228.5 770.5,-228.5 770.5,-209.5 677.5,-209.5"/>
<text text-anchor="middle" x="724" y="-216.5" font-family="Helvetica,sans-Serif" font-size="10.00" fill="#000000">EthMacRxPause</text>
</a>
</g>
</g>
<!-- Node44&#45;&gt;Node38 -->
<g id="edge45" class="edge">
<title>Node44&#45;&gt;Node38</title>
<path fill="none" stroke="#191970" d="M780.8713,-219C796.3618,-219 812.6183,-219 826.2664,-219"/>
<polygon fill="#191970" stroke="#191970" points="780.8376,-215.5001 770.8376,-219 780.8375,-222.5001 780.8376,-215.5001"/>
</g>
<!-- Node45 -->
<g id="node37" class="node">
<title>Node45</title>
<g id="a_node37"><a xlink:href="classEthMacRxCsum.html" target="_top" xlink:title="EthMacRxCsum(2)">
<polygon fill="#ffffff" stroke="#000000" points="671,-171.5 671,-190.5 777,-190.5 777,-171.5 671,-171.5"/>
<text text-anchor="middle" x="724" y="-178.5" font-family="Helvetica,sans-Serif" font-size="10.00" fill="#000000">EthMacRxCsum(2)</text>
</a>
</g>
</g>
<!-- Node45&#45;&gt;Node38 -->
<g id="edge46" class="edge">
<title>Node45&#45;&gt;Node38</title>
<path fill="none" stroke="#191970" d="M767.7292,-193.309C786.7862,-198.6731 808.7411,-204.8531 826.3418,-209.8073"/>
<polygon fill="#191970" stroke="#191970" points="768.6405,-189.9295 758.0662,-190.589 766.7438,-196.6677 768.6405,-189.9295"/>
</g>
<!-- Node46 -->
<g id="node38" class="node">
<title>Node46</title>
<g id="a_node38"><a xlink:href="classEthMacRxBypass.html" target="_top" xlink:title="EthMacRxBypass">
<polygon fill="#ffffff" stroke="#000000" points="674,-133.5 674,-152.5 774,-152.5 774,-133.5 674,-133.5"/>
<text text-anchor="middle" x="724" y="-140.5" font-family="Helvetica,sans-Serif" font-size="10.00" fill="#000000">EthMacRxBypass</text>
</a>
</g>
</g>
<!-- Node46&#45;&gt;Node38 -->
<g id="edge47" class="edge">
<title>Node46&#45;&gt;Node38</title>
<path fill="none" stroke="#191970" d="M764.3421,-156.193C768.6849,-157.9863 772.9814,-159.9291 777,-162 803.8163,-175.8191 832.0611,-197.1854 847.4041,-209.4554"/>
<polygon fill="#191970" stroke="#191970" points="765.4401,-152.8649 754.851,-152.514 762.91,-159.3917 765.4401,-152.8649"/>
</g>
<!-- Node47 -->
<g id="node39" class="node">
<title>Node47</title>
<g id="a_node39"><a xlink:href="classEthMacRxFilter.html" target="_top" xlink:title="EthMacRxFilter">
<polygon fill="#ffffff" stroke="#000000" points="679.5,-285.5 679.5,-304.5 768.5,-304.5 768.5,-285.5 679.5,-285.5"/>
<text text-anchor="middle" x="724" y="-292.5" font-family="Helvetica,sans-Serif" font-size="10.00" fill="#000000">EthMacRxFilter</text>
</a>
</g>
</g>
<!-- Node47&#45;&gt;Node38 -->
<g id="edge48" class="edge">
<title>Node47&#45;&gt;Node38</title>
<path fill="none" stroke="#191970" d="M767.5964,-281.2957C770.8708,-279.6909 774.0456,-277.9285 777,-276 796.4813,-263.2833 793.8261,-251.1756 813,-238 818.2697,-234.3788 824.3365,-231.2635 830.2993,-228.6643"/>
<polygon fill="#191970" stroke="#191970" points="765.9614,-278.1907 758.205,-285.4081 768.7692,-284.6029 765.9614,-278.1907"/>
</g>
<!-- Node48 -->
<g id="node40" class="node">
<title>Node48</title>
<g id="a_node40"><a xlink:href="classEthMacRxFifo.html" target="_top" xlink:title="EthMacRxFifo">
<polygon fill="#ffffff" stroke="#000000" points="818,-152.5 818,-171.5 900,-171.5 900,-152.5 818,-152.5"/>
<text text-anchor="middle" x="859" y="-159.5" font-family="Helvetica,sans-Serif" font-size="10.00" fill="#000000">EthMacRxFifo</text>
</a>
</g>
</g>
<!-- Node48&#45;&gt;Node13 -->
<g id="edge49" class="edge">
<title>Node48&#45;&gt;Node13</title>
<path fill="none" stroke="#191970" d="M882.2904,-177.2592C905.617,-192.5422 940.7922,-215.588 960.4278,-228.4527"/>
<polygon fill="#191970" stroke="#191970" points="883.9742,-174.1781 873.6915,-171.6255 880.138,-180.0334 883.9742,-174.1781"/>
</g>
<!-- Node49 -->
<g id="node41" class="node">
<title>Node49</title>
<g id="a_node41"><a xlink:href="classSsiFifo.html" target="_top" xlink:title="SsiFifo(3)">
<polygon fill="#ffffff" stroke="#ff0000" points="693,-95.5 693,-114.5 755,-114.5 755,-95.5 693,-95.5"/>
<text text-anchor="middle" x="724" y="-102.5" font-family="Helvetica,sans-Serif" font-size="10.00" fill="#000000">SsiFifo(3)</text>
</a>
</g>
</g>
<!-- Node49&#45;&gt;Node48 -->
<g id="edge50" class="edge">
<title>Node49&#45;&gt;Node48</title>
<path fill="none" stroke="#191970" d="M761.9049,-118.1203C767.0064,-120.0225 772.1501,-122.0116 777,-124 798.7765,-132.9281 823.1862,-144.4398 839.6668,-152.4423"/>
<polygon fill="#191970" stroke="#191970" points="762.8286,-114.7317 752.2347,-114.5924 760.4295,-121.3078 762.8286,-114.7317"/>
</g>
<!-- Node53 -->
<g id="node42" class="node">
<title>Node53</title>
<g id="a_node42"><a xlink:href="classGigEthReg.html" target="_top" xlink:title="GigEthReg">
<polygon fill="#ffffff" stroke="#000000" points="537.5,-19.5 537.5,-38.5 604.5,-38.5 604.5,-19.5 537.5,-19.5"/>
<text text-anchor="middle" x="571" y="-26.5" font-family="Helvetica,sans-Serif" font-size="10.00" fill="#000000">GigEthReg</text>
</a>
</g>
</g>
<!-- Node53&#45;&gt;Node0 -->
<g id="edge51" class="edge">
<title>Node53&#45;&gt;Node0</title>
<path fill="none" stroke="#191970" d="M614.7421,-26.7968C682.0017,-25.4252 812.7025,-30.9131 905,-86 1020.9393,-155.1973 1087.4103,-320.0992 1102.6208,-361.4631"/>
<polygon fill="#191970" stroke="#191970" points="614.4109,-23.3043 604.5077,-27.0693 614.5973,-30.3018 614.4109,-23.3043"/>
</g>
<!-- Node54&#45;&gt;Node53 -->
<g id="edge52" class="edge">
<title>Node54&#45;&gt;Node53</title>
<path fill="none" stroke="#191970" d="M459.3622,-341.82C463.679,-339.4598 467.6632,-336.5604 471,-333 518.4743,-282.3448 485.4555,-246.9969 507,-181 525.0377,-125.7453 554.7119,-62.5436 566.2257,-38.7425"/>
<polygon fill="#191970" stroke="#191970" points="457.8353,-338.6688 450.1354,-345.9464 460.6931,-345.0589 457.8353,-338.6688"/>
</g>
<!-- Node55 -->
<g id="node44" class="node">
<title>Node55</title>
<g id="a_node44"><a xlink:href="classSynchronizerVector.html" target="_top" xlink:title="SynchronizerVector">
<polygon fill="#ffffff" stroke="#000000" points="172,-38.5 172,-57.5 282,-57.5 282,-38.5 172,-38.5"/>
<text text-anchor="middle" x="227" y="-45.5" font-family="Helvetica,sans-Serif" font-size="10.00" fill="#000000">SynchronizerVector</text>
</a>
</g>
</g>
<!-- Node55&#45;&gt;Node53 -->
<g id="edge54" class="edge">
<title>Node55&#45;&gt;Node53</title>
<path fill="none" stroke="#191970" d="M292.2723,-44.3948C365.2278,-40.3653 480.5419,-33.9962 537.2445,-30.8644"/>
<polygon fill="#191970" stroke="#191970" points="292.0613,-40.9011 282.2696,-44.9473 292.4474,-47.8904 292.0613,-40.9011"/>
</g>
<!-- Node56 -->
<g id="node45" class="node">
<title>Node56</title>
<g id="a_node45"><a xlink:href="classSyncStatusVector.html" target="_top" xlink:title="SyncStatusVector">
<polygon fill="#ffffff" stroke="#000000" points="358.5,-.5 358.5,-19.5 459.5,-19.5 459.5,-.5 358.5,-.5"/>
<text text-anchor="middle" x="409" y="-7.5" font-family="Helvetica,sans-Serif" font-size="10.00" fill="#000000">SyncStatusVector</text>
</a>
</g>
</g>
<!-- Node55&#45;&gt;Node56 -->
<g id="edge56" class="edge">
<title>Node55&#45;&gt;Node56</title>
<path fill="none" stroke="#191970" d="M282.9458,-36.319C308.7558,-30.9301 339.0069,-24.6139 363.404,-19.5201"/>
<polygon fill="#191970" stroke="#191970" points="281.9998,-32.941 272.9263,-38.411 283.4306,-39.7932 281.9998,-32.941"/>
</g>
<!-- Node56&#45;&gt;Node53 -->
<g id="edge55" class="edge">
<title>Node56&#45;&gt;Node53</title>
<path fill="none" stroke="#191970" d="M469.7757,-17.128C492.613,-19.8065 517.7417,-22.7537 537.249,-25.0415"/>
<polygon fill="#191970" stroke="#191970" points="470.153,-13.6484 459.8133,-15.9596 469.3375,-20.6007 470.153,-13.6484"/>
</g>
<!-- Node57 -->
<g id="node46" class="node">
<title>Node57</title>
<g id="a_node46"><a xlink:href="classSynchronizerOneShotCntVector.html" target="_top" xlink:title="SynchronizerOneShotCntVector">
<polygon fill="#ffffff" stroke="#ff0000" points="143,-.5 143,-19.5 311,-19.5 311,-.5 143,-.5"/>
<text text-anchor="middle" x="227" y="-7.5" font-family="Helvetica,sans-Serif" font-size="10.00" fill="#000000">SynchronizerOneShotCntVector</text>
</a>
</g>
</g>
<!-- Node57&#45;&gt;Node56 -->
<g id="edge57" class="edge">
<title>Node57&#45;&gt;Node56</title>
<path fill="none" stroke="#191970" d="M321.2906,-10C334.0303,-10 346.6839,-10 358.2509,-10"/>
<polygon fill="#191970" stroke="#191970" points="321.0744,-6.5001 311.0743,-10 321.0743,-13.5001 321.0744,-6.5001"/>
</g>
<!-- Node63 -->
<g id="node48" class="node">
<title>Node63</title>
<g id="a_node48"><a xlink:href="classSgmii88E1111LvdsUltraScale.html" target="_top" xlink:title="Sgmii88E1111LvdsUltraScale">
<polygon fill="#ffffff" stroke="#000000" points="1402,-380.5 1402,-399.5 1561,-399.5 1561,-380.5 1402,-380.5"/>
<text text-anchor="middle" x="1481.5" y="-387.5" font-family="Helvetica,sans-Serif" font-size="10.00" fill="#000000">Sgmii88E1111LvdsUltraScale</text>
</a>
</g>
</g>
<!-- Node62&#45;&gt;Node63 -->
<g id="edge59" class="edge">
<title>Node62&#45;&gt;Node63</title>
<path fill="none" stroke="#191970" d="M1375.2015,-379.7738C1384.1175,-380.6316 1393.116,-381.4972 1401.904,-382.3427"/>
<polygon fill="#191970" stroke="#191970" points="1375.475,-376.2841 1365.1858,-378.8103 1374.8046,-383.2519 1375.475,-376.2841"/>
</g>
<!-- Node64 -->
<g id="node49" class="node">
<title>Node64</title>
<g id="a_node49"><a xlink:href="classSgmiiDp83867LvdsUltraScale.html" target="_top" xlink:title="SgmiiDp83867LvdsUltraScale">
<polygon fill="#ffffff" stroke="#000000" points="1401,-342.5 1401,-361.5 1562,-361.5 1562,-342.5 1401,-342.5"/>
<text text-anchor="middle" x="1481.5" y="-349.5" font-family="Helvetica,sans-Serif" font-size="10.00" fill="#000000">SgmiiDp83867LvdsUltraScale</text>
</a>
</g>
</g>
<!-- Node62&#45;&gt;Node64 -->
<g id="edge60" class="edge">
<title>Node62&#45;&gt;Node64</title>
<path fill="none" stroke="#191970" d="M1375.2167,-362.2247C1383.8047,-361.3985 1392.4692,-360.565 1400.9483,-359.7493"/>
<polygon fill="#191970" stroke="#191970" points="1374.8046,-358.7481 1365.1858,-363.1897 1375.475,-365.7159 1374.8046,-358.7481"/>
</g>
</g>
</svg>
