<?xml version="1.0" encoding="UTF-8" standalone="no"?>
<!DOCTYPE svg PUBLIC "-//W3C//DTD SVG 1.1//EN"
 "http://www.w3.org/Graphics/SVG/1.1/DTD/svg11.dtd">
<!-- Generated by graphviz version 2.40.1 (20161225.0304)
 -->
<!-- Title: AxiLiteAsyncTb Pages: 1 -->
<!--zoomable 256 -->
<svg id="main" version="1.1" xmlns="http://www.w3.org/2000/svg" xmlns:xlink="http://www.w3.org/1999/xlink" xml:space="preserve" onload="init(evt)">
<style type="text/css"><![CDATA[
.edge:hover path { stroke: red; }
.edge:hover polygon { stroke: red; fill: red; }
]]></style>
<script type="text/javascript"><![CDATA[
var edges = document.getElementsByTagName('g');
if (edges && edges.length) {
  for (var i=0;i<edges.length;i++) {
    if (edges[i].id.substr(0,4)=='edge') {
      edges[i].setAttribute('class','edge');
    }
  }
}
]]></script>
        <defs>
                <circle id="rim" cx="0" cy="0" r="7"/>
                <circle id="rim2" cx="0" cy="0" r="3.5"/>
                <g id="zoomPlus">
                        <use xlink:href="#rim" fill="#404040">
                                <set attributeName="fill" to="#808080" begin="zoomplus.mouseover" end="zoomplus.mouseout"/>
                        </use>
                        <path d="M-4,0h8M0,-4v8" fill="none" stroke="white" stroke-width="1.5" pointer-events="none"/>
                </g>
                <g id="zoomMin">
                        <use xlink:href="#rim" fill="#404040">
                                <set attributeName="fill" to="#808080" begin="zoomminus.mouseover" end="zoomminus.mouseout"/>
                        </use>
                        <path d="M-4,0h8" fill="none" stroke="white" stroke-width="1.5" pointer-events="none"/>
                </g>
                <g id="dirArrow">
                        <path fill="none" stroke="white" stroke-width="1.5" d="M0,-3.0v7 M-2.5,-0.5L0,-3.0L2.5,-0.5"/>
                </g>
               <g id="resetDef">
                       <use xlink:href="#rim2" fill="#404040">
                               <set attributeName="fill" to="#808080" begin="reset.mouseover" end="reset.mouseout"/>
                       </use>
               </g>
        </defs>

<script type="text/javascript">
var viewWidth = 825;
var viewHeight = 256;
var sectionId = 'dynsection-1';
</script>
<script xlink:href="svgpan.js"/>
<svg id="graph" class="graph">
<g id="viewport">
<title>AxiLiteAsyncTb</title>
<polygon fill="#ffffff" stroke="transparent" points="-4,4 -4,-252 821,-252 821,4 -4,4"/>
<!-- Node21 -->
<g id="node1" class="node">
<title>Node21</title>
<polygon fill="#bfbfbf" stroke="#000000" points="725,-114.5 725,-133.5 817,-133.5 817,-114.5 725,-114.5"/>
<text text-anchor="middle" x="771" y="-121.5" font-family="Helvetica,sans-Serif" font-size="10.00" fill="#000000">AxiLiteAsyncTb</text>
</g>
<!-- Node22 -->
<g id="node2" class="node">
<title>Node22</title>
<g id="a_node2"><a xlink:href="classAxiLiteCrossbar.html" target="_top" xlink:title="AxiLiteCrossbar">
<polygon fill="#ffffff" stroke="#000000" points="594,-171.5 594,-190.5 687,-190.5 687,-171.5 594,-171.5"/>
<text text-anchor="middle" x="640.5" y="-178.5" font-family="Helvetica,sans-Serif" font-size="10.00" fill="#000000">AxiLiteCrossbar</text>
</a>
</g>
</g>
<!-- Node22&#45;&gt;Node21 -->
<g id="edge1" class="edge">
<title>Node22&#45;&gt;Node21</title>
<path fill="none" stroke="#191970" d="M671.6783,-167.3819C695.5538,-156.9535 727.8885,-142.8303 749.086,-133.5716"/>
<polygon fill="#191970" stroke="#191970" points="670.1058,-164.2494 662.3428,-171.4595 672.9077,-170.6642 670.1058,-164.2494"/>
</g>
<!-- Node23 -->
<g id="node3" class="node">
<title>Node23</title>
<g id="a_node3"><a xlink:href="classAxiLiteAsync.html" target="_top" xlink:title="AxiLiteAsync">
<polygon fill="#ffffff" stroke="#000000" points="444.5,-190.5 444.5,-209.5 524.5,-209.5 524.5,-190.5 444.5,-190.5"/>
<text text-anchor="middle" x="484.5" y="-197.5" font-family="Helvetica,sans-Serif" font-size="10.00" fill="#000000">AxiLiteAsync</text>
</a>
</g>
</g>
<!-- Node23&#45;&gt;Node21 -->
<g id="edge2" class="edge">
<title>Node23&#45;&gt;Node21</title>
<path fill="none" stroke="#191970" d="M517.9893,-186.89C539.0194,-178.9763 566.8332,-169.0867 592,-162 636.6463,-149.4281 688.5888,-138.8362 724.9838,-132.0551"/>
<polygon fill="#191970" stroke="#191970" points="516.6478,-183.6556 508.5455,-190.4823 519.1366,-190.1982 516.6478,-183.6556"/>
</g>
<!-- Node24 -->
<g id="node4" class="node">
<title>Node24</title>
<g id="a_node4"><a xlink:href="classRstSync.html" target="_top" xlink:title="RstSync(2)">
<polygon fill="#ffffff" stroke="#000000" points="143.5,-228.5 143.5,-247.5 212.5,-247.5 212.5,-228.5 143.5,-228.5"/>
<text text-anchor="middle" x="178" y="-235.5" font-family="Helvetica,sans-Serif" font-size="10.00" fill="#000000">RstSync(2)</text>
</a>
</g>
</g>
<!-- Node24&#45;&gt;Node23 -->
<g id="edge3" class="edge">
<title>Node24&#45;&gt;Node23</title>
<path fill="none" stroke="#191970" d="M222.6719,-234.7591C263.0806,-231.5844 324.1682,-226.1793 377,-219 399.348,-215.9631 424.1479,-211.6441 444.2913,-207.8911"/>
<polygon fill="#191970" stroke="#191970" points="222.3089,-231.2767 212.6085,-235.5372 222.8486,-238.2558 222.3089,-231.2767"/>
</g>
<!-- Node26 -->
<g id="node6" class="node">
<title>Node26</title>
<g id="a_node6"><a xlink:href="classFifoAsync.html" target="_top" xlink:title="FifoAsync(5)">
<polygon fill="#ffffff" stroke="#000000" points="288,-190.5 288,-209.5 365,-209.5 365,-190.5 288,-190.5"/>
<text text-anchor="middle" x="326.5" y="-197.5" font-family="Helvetica,sans-Serif" font-size="10.00" fill="#000000">FifoAsync(5)</text>
</a>
</g>
</g>
<!-- Node24&#45;&gt;Node26 -->
<g id="edge6" class="edge">
<title>Node24&#45;&gt;Node26</title>
<path fill="none" stroke="#191970" d="M222.6028,-226.5865C243.89,-221.1392 269.0674,-214.6966 289.3056,-209.5178"/>
<polygon fill="#191970" stroke="#191970" points="221.6368,-223.2208 212.8167,-229.0907 223.3722,-230.0023 221.6368,-223.2208"/>
</g>
<!-- Node40 -->
<g id="node20" class="node">
<title>Node40</title>
<g id="a_node20"><a xlink:href="classFifoAsync.html" target="_top" xlink:title="FifoAsync">
<polygon fill="#ffffff" stroke="#000000" points="295,-76.5 295,-95.5 358,-95.5 358,-76.5 295,-76.5"/>
<text text-anchor="middle" x="326.5" y="-83.5" font-family="Helvetica,sans-Serif" font-size="10.00" fill="#000000">FifoAsync</text>
</a>
</g>
</g>
<!-- Node24&#45;&gt;Node40 -->
<g id="edge22" class="edge">
<title>Node24&#45;&gt;Node40</title>
<path fill="none" stroke="#191970" d="M222.3717,-230.2458C228.8886,-227.5409 235.0585,-223.8997 240,-219 277.7303,-181.5896 239.4568,-143.5708 276,-105 281.0896,-99.628 287.8471,-95.7621 294.7584,-92.9844"/>
<polygon fill="#191970" stroke="#191970" points="220.9981,-227.0169 212.678,-233.5764 223.2726,-233.6371 220.9981,-227.0169"/>
</g>
<!-- Node25 -->
<g id="node5" class="node">
<title>Node25</title>
<g id="a_node5"><a xlink:href="classSynchronizer.html" target="_top" xlink:title="Synchronizer">
<polygon fill="#ffffff" stroke="#000000" points="0,-228.5 0,-247.5 80,-247.5 80,-228.5 0,-228.5"/>
<text text-anchor="middle" x="40" y="-235.5" font-family="Helvetica,sans-Serif" font-size="10.00" fill="#000000">Synchronizer</text>
</a>
</g>
</g>
<!-- Node25&#45;&gt;Node24 -->
<g id="edge4" class="edge">
<title>Node25&#45;&gt;Node24</title>
<path fill="none" stroke="#191970" d="M90.3506,-238C107.8473,-238 127.0737,-238 143.05,-238"/>
<polygon fill="#191970" stroke="#191970" points="90.2863,-234.5001 80.2863,-238 90.2863,-241.5001 90.2863,-234.5001"/>
</g>
<!-- Node26&#45;&gt;Node23 -->
<g id="edge5" class="edge">
<title>Node26&#45;&gt;Node23</title>
<path fill="none" stroke="#191970" d="M375.3537,-200C397.4878,-200 423.3361,-200 444.321,-200"/>
<polygon fill="#191970" stroke="#191970" points="375.1512,-196.5001 365.1511,-200 375.1511,-203.5001 375.1512,-196.5001"/>
</g>
<!-- Node27 -->
<g id="node7" class="node">
<title>Node27</title>
<g id="a_node7"><a xlink:href="classSynchronizerVector.html" target="_top" xlink:title="SynchronizerVector(2)">
<polygon fill="#ffffff" stroke="#000000" points="116,-114.5 116,-133.5 240,-133.5 240,-114.5 116,-114.5"/>
<text text-anchor="middle" x="178" y="-121.5" font-family="Helvetica,sans-Serif" font-size="10.00" fill="#000000">SynchronizerVector(2)</text>
</a>
</g>
</g>
<!-- Node27&#45;&gt;Node26 -->
<g id="edge7" class="edge">
<title>Node27&#45;&gt;Node26</title>
<path fill="none" stroke="#191970" d="M229.1786,-137.3122C232.9464,-139.0024 236.5986,-140.8916 240,-143 259.7738,-155.2569 256.6188,-168.1313 276,-181 281.6187,-184.7307 288.0716,-187.8658 294.4448,-190.4452"/>
<polygon fill="#191970" stroke="#191970" points="230.2369,-133.9661 219.6519,-133.509 227.6415,-140.4672 230.2369,-133.9661"/>
</g>
<!-- Node27&#45;&gt;Node40 -->
<g id="edge23" class="edge">
<title>Node27&#45;&gt;Node40</title>
<path fill="none" stroke="#191970" d="M225.2299,-111.9142C247.8559,-106.1244 274.358,-99.3427 294.5746,-94.1695"/>
<polygon fill="#191970" stroke="#191970" points="224.293,-108.5411 215.4728,-114.411 226.0284,-115.3226 224.293,-108.5411"/>
</g>
<!-- Node28 -->
<g id="node8" class="node">
<title>Node28</title>
<g id="a_node8"><a xlink:href="classSynchronizer.html" target="_top" xlink:title="Synchronizer(2)">
<polygon fill="#ffffff" stroke="#000000" points="131.5,-76.5 131.5,-95.5 224.5,-95.5 224.5,-76.5 131.5,-76.5"/>
<text text-anchor="middle" x="178" y="-83.5" font-family="Helvetica,sans-Serif" font-size="10.00" fill="#000000">Synchronizer(2)</text>
</a>
</g>
</g>
<!-- Node28&#45;&gt;Node26 -->
<g id="edge8" class="edge">
<title>Node28&#45;&gt;Node26</title>
<path fill="none" stroke="#191970" d="M233.6666,-100.3245C235.8996,-101.7388 238.0253,-103.2927 240,-105 268.2736,-129.4446 248.5038,-155.684 276,-181 280.2037,-184.8704 285.2714,-187.9751 290.5526,-190.4592"/>
<polygon fill="#191970" stroke="#191970" points="235.0891,-97.1175 224.6135,-95.5326 231.8143,-103.3042 235.0891,-97.1175"/>
</g>
<!-- Node28&#45;&gt;Node40 -->
<g id="edge24" class="edge">
<title>Node28&#45;&gt;Node40</title>
<path fill="none" stroke="#191970" d="M234.6858,-86C255.0034,-86 277.1826,-86 294.6516,-86"/>
<polygon fill="#191970" stroke="#191970" points="234.5789,-82.5001 224.5789,-86 234.5789,-89.5001 234.5789,-82.5001"/>
</g>
<!-- Node29 -->
<g id="node9" class="node">
<title>Node29</title>
<g id="a_node9"><a xlink:href="classFifoWrFsm.html" target="_top" xlink:title="FifoWrFsm">
<polygon fill="#ffffff" stroke="#000000" points="144.5,-38.5 144.5,-57.5 211.5,-57.5 211.5,-38.5 144.5,-38.5"/>
<text text-anchor="middle" x="178" y="-45.5" font-family="Helvetica,sans-Serif" font-size="10.00" fill="#000000">FifoWrFsm</text>
</a>
</g>
</g>
<!-- Node29&#45;&gt;Node26 -->
<g id="edge9" class="edge">
<title>Node29&#45;&gt;Node26</title>
<path fill="none" stroke="#191970" d="M221.2615,-55.3036C228.186,-58.0508 234.7787,-61.8229 240,-67 277.7303,-104.4104 239.4568,-142.4292 276,-181 279.6723,-184.876 284.2128,-187.968 289.0529,-190.4328"/>
<polygon fill="#191970" stroke="#191970" points="222.3041,-51.9621 211.711,-52.1572 220.1137,-58.6106 222.3041,-51.9621"/>
</g>
<!-- Node29&#45;&gt;Node40 -->
<g id="edge25" class="edge">
<title>Node29&#45;&gt;Node40</title>
<path fill="none" stroke="#191970" d="M221.446,-59.1175C244.9947,-65.1434 273.568,-72.4551 294.9672,-77.931"/>
<polygon fill="#191970" stroke="#191970" points="222.2525,-55.7112 211.6969,-56.6228 220.5171,-62.4927 222.2525,-55.7112"/>
</g>
<!-- Node30 -->
<g id="node10" class="node">
<title>Node30</title>
<g id="a_node10"><a xlink:href="classFifoRdFsm.html" target="_top" xlink:title="FifoRdFsm">
<polygon fill="#ffffff" stroke="#000000" points="144.5,-.5 144.5,-19.5 211.5,-19.5 211.5,-.5 144.5,-.5"/>
<text text-anchor="middle" x="178" y="-7.5" font-family="Helvetica,sans-Serif" font-size="10.00" fill="#000000">FifoRdFsm</text>
</a>
</g>
</g>
<!-- Node30&#45;&gt;Node26 -->
<g id="edge10" class="edge">
<title>Node30&#45;&gt;Node26</title>
<path fill="none" stroke="#191970" d="M221.3655,-16.9034C228.3369,-19.6896 234.919,-23.5785 240,-29 287.4743,-79.6552 230.1314,-128.8865 276,-181 279.404,-184.8674 283.6762,-187.95 288.2866,-190.4066"/>
<polygon fill="#191970" stroke="#191970" points="222.3146,-13.5315 211.722,-13.7472 220.1372,-20.1842 222.3146,-13.5315"/>
</g>
<!-- Node30&#45;&gt;Node40 -->
<g id="edge26" class="edge">
<title>Node30&#45;&gt;Node40</title>
<path fill="none" stroke="#191970" d="M221.592,-21.628C227.8794,-23.8005 234.1846,-26.2622 240,-29 268.3126,-42.3293 298.0986,-63.8716 314.2754,-76.3046"/>
<polygon fill="#191970" stroke="#191970" points="222.3914,-18.2079 211.7994,-18.4539 220.233,-24.8669 222.3914,-18.2079"/>
</g>
<!-- Node31 -->
<g id="node11" class="node">
<title>Node31</title>
<g id="a_node11"><a xlink:href="classSimpleDualPortRam.html" target="_top" xlink:title="SimpleDualPortRam">
<polygon fill="#ffffff" stroke="#000000" points="120.5,-190.5 120.5,-209.5 235.5,-209.5 235.5,-190.5 120.5,-190.5"/>
<text text-anchor="middle" x="178" y="-197.5" font-family="Helvetica,sans-Serif" font-size="10.00" fill="#000000">SimpleDualPortRam</text>
</a>
</g>
</g>
<!-- Node31&#45;&gt;Node26 -->
<g id="edge11" class="edge">
<title>Node31&#45;&gt;Node26</title>
<path fill="none" stroke="#191970" d="M246.1655,-200C260.4625,-200 275.0623,-200 287.8257,-200"/>
<polygon fill="#191970" stroke="#191970" points="245.8392,-196.5001 235.8392,-200 245.8392,-203.5001 245.8392,-196.5001"/>
</g>
<!-- Node31&#45;&gt;Node40 -->
<g id="edge27" class="edge">
<title>Node31&#45;&gt;Node40</title>
<path fill="none" stroke="#191970" d="M233.6666,-185.6755C235.8996,-184.2612 238.0253,-182.7073 240,-181 268.2736,-156.5554 248.5038,-130.316 276,-105 281.3063,-100.1144 287.9892,-96.4489 294.7406,-93.7115"/>
<polygon fill="#191970" stroke="#191970" points="231.8143,-182.6958 224.6135,-190.4674 235.0891,-188.8825 231.8143,-182.6958"/>
</g>
<!-- Node32 -->
<g id="node12" class="node">
<title>Node32</title>
<g id="a_node12"><a xlink:href="classFifoOutputPipeline.html" target="_top" xlink:title="FifoOutputPipeline">
<polygon fill="#ffffff" stroke="#000000" points="125,-152.5 125,-171.5 231,-171.5 231,-152.5 125,-152.5"/>
<text text-anchor="middle" x="178" y="-159.5" font-family="Helvetica,sans-Serif" font-size="10.00" fill="#000000">FifoOutputPipeline</text>
</a>
</g>
</g>
<!-- Node32&#45;&gt;Node26 -->
<g id="edge12" class="edge">
<title>Node32&#45;&gt;Node26</title>
<path fill="none" stroke="#191970" d="M225.3329,-174.1121C246.0146,-179.4044 269.9188,-185.5213 289.2966,-190.4799"/>
<polygon fill="#191970" stroke="#191970" points="226.0284,-170.6774 215.4728,-171.589 224.293,-177.4589 226.0284,-170.6774"/>
</g>
<!-- Node32&#45;&gt;Node40 -->
<g id="edge28" class="edge">
<title>Node32&#45;&gt;Node40</title>
<path fill="none" stroke="#191970" d="M229.1786,-148.6878C232.9464,-146.9976 236.5986,-145.1084 240,-143 259.7738,-130.7431 256.6188,-117.8687 276,-105 281.7748,-101.1657 288.4307,-97.9605 294.9758,-95.3411"/>
<polygon fill="#191970" stroke="#191970" points="227.6415,-145.5328 219.6519,-152.491 230.2369,-152.0339 227.6415,-145.5328"/>
</g>
<!-- Node33 -->
<g id="node13" class="node">
<title>Node33</title>
<g id="a_node13"><a xlink:href="classAxiDualPortRam.html" target="_top" xlink:title="AxiDualPortRam">
<polygon fill="#ffffff" stroke="#000000" points="592,-95.5 592,-114.5 689,-114.5 689,-95.5 592,-95.5"/>
<text text-anchor="middle" x="640.5" y="-102.5" font-family="Helvetica,sans-Serif" font-size="10.00" fill="#000000">AxiDualPortRam</text>
</a>
</g>
</g>
<!-- Node33&#45;&gt;Node21 -->
<g id="edge13" class="edge">
<title>Node33&#45;&gt;Node21</title>
<path fill="none" stroke="#191970" d="M699.1446,-113.5383C707.7996,-114.7984 716.6112,-116.0813 724.9619,-117.2971"/>
<polygon fill="#191970" stroke="#191970" points="699.4933,-110.0522 689.0934,-112.0749 698.4848,-116.9792 699.4933,-110.0522"/>
</g>
<!-- Node34 -->
<g id="node14" class="node">
<title>Node34</title>
<g id="a_node14"><a xlink:href="classTrueDualPortRamXpm.html" target="_top" xlink:title="TrueDualPortRamXpm">
<polygon fill="#ffffff" stroke="#000000" points="422.5,-38.5 422.5,-57.5 546.5,-57.5 546.5,-38.5 422.5,-38.5"/>
<text text-anchor="middle" x="484.5" y="-45.5" font-family="Helvetica,sans-Serif" font-size="10.00" fill="#000000">TrueDualPortRamXpm</text>
</a>
</g>
</g>
<!-- Node34&#45;&gt;Node33 -->
<g id="edge14" class="edge">
<title>Node34&#45;&gt;Node33</title>
<path fill="none" stroke="#191970" d="M536.5999,-60.3647C543.204,-62.3631 549.8114,-64.5806 556,-67 572.8498,-73.5874 575.5515,-78.4663 592,-86 599.2352,-89.3138 607.2272,-92.5945 614.6007,-95.4733"/>
<polygon fill="#191970" stroke="#191970" points="537.5535,-56.9971 526.9756,-57.5956 535.618,-63.7242 537.5535,-56.9971"/>
</g>
<!-- Node35 -->
<g id="node15" class="node">
<title>Node35</title>
<g id="a_node15"><a xlink:href="classTrueDualPortRamAlteraMf.html" target="_top" xlink:title="TrueDualPortRamAlteraMf">
<polygon fill="#ffffff" stroke="#000000" points="413,-.5 413,-19.5 556,-19.5 556,-.5 413,-.5"/>
<text text-anchor="middle" x="484.5" y="-7.5" font-family="Helvetica,sans-Serif" font-size="10.00" fill="#000000">TrueDualPortRamAlteraMf</text>
</a>
</g>
</g>
<!-- Node35&#45;&gt;Node33 -->
<g id="edge15" class="edge">
<title>Node35&#45;&gt;Node33</title>
<path fill="none" stroke="#191970" d="M547.5935,-23.7559C550.5374,-25.3196 553.3605,-27.0609 556,-29 580.1471,-46.7397 568.8994,-66.9176 592,-86 596.6016,-89.8012 602.0541,-92.9052 607.613,-95.419"/>
<polygon fill="#191970" stroke="#191970" points="549.0117,-20.5558 538.4621,-19.5775 546.099,-26.9211 549.0117,-20.5558"/>
</g>
<!-- Node36 -->
<g id="node16" class="node">
<title>Node36</title>
<g id="a_node16"><a xlink:href="classDualPortRam.html" target="_top" xlink:title="DualPortRam(2)">
<polygon fill="#ffffff" stroke="#000000" points="437,-114.5 437,-133.5 532,-133.5 532,-114.5 437,-114.5"/>
<text text-anchor="middle" x="484.5" y="-121.5" font-family="Helvetica,sans-Serif" font-size="10.00" fill="#000000">DualPortRam(2)</text>
</a>
</g>
</g>
<!-- Node36&#45;&gt;Node33 -->
<g id="edge16" class="edge">
<title>Node36&#45;&gt;Node33</title>
<path fill="none" stroke="#191970" d="M542.123,-116.9818C558.4466,-114.9937 576.0506,-112.8496 591.7923,-110.9323"/>
<polygon fill="#191970" stroke="#191970" points="541.6563,-113.5127 532.1528,-118.1961 542.5026,-120.4614 541.6563,-113.5127"/>
</g>
<!-- Node37 -->
<g id="node17" class="node">
<title>Node37</title>
<g id="a_node17"><a xlink:href="classTrueDualPortRam.html" target="_top" xlink:title="TrueDualPortRam">
<polygon fill="#ffffff" stroke="#000000" points="276,-152.5 276,-171.5 377,-171.5 377,-152.5 276,-152.5"/>
<text text-anchor="middle" x="326.5" y="-159.5" font-family="Helvetica,sans-Serif" font-size="10.00" fill="#000000">TrueDualPortRam</text>
</a>
</g>
</g>
<!-- Node37&#45;&gt;Node33 -->
<g id="edge19" class="edge">
<title>Node37&#45;&gt;Node33</title>
<path fill="none" stroke="#191970" d="M387.286,-162.545C434.092,-161.6347 500.0365,-157.4452 556,-143 568.9271,-139.6633 600.6192,-124.676 621.3049,-114.5504"/>
<polygon fill="#191970" stroke="#191970" points="386.9538,-159.0495 377.0072,-162.6983 387.0583,-166.0487 386.9538,-159.0495"/>
</g>
<!-- Node37&#45;&gt;Node36 -->
<g id="edge17" class="edge">
<title>Node37&#45;&gt;Node36</title>
<path fill="none" stroke="#191970" d="M376.2616,-150.032C398.4029,-144.7069 424.1116,-138.5238 444.9166,-133.5201"/>
<polygon fill="#191970" stroke="#191970" points="375.2744,-146.6696 366.3701,-152.411 376.9113,-153.4755 375.2744,-146.6696"/>
</g>
<!-- Node38 -->
<g id="node18" class="node">
<title>Node38</title>
<g id="a_node18"><a xlink:href="classQuadPortRam.html" target="_top" xlink:title="QuadPortRam">
<polygon fill="#ffffff" stroke="#000000" points="284.5,-114.5 284.5,-133.5 368.5,-133.5 368.5,-114.5 284.5,-114.5"/>
<text text-anchor="middle" x="326.5" y="-121.5" font-family="Helvetica,sans-Serif" font-size="10.00" fill="#000000">QuadPortRam</text>
</a>
</g>
</g>
<!-- Node38&#45;&gt;Node36 -->
<g id="edge18" class="edge">
<title>Node38&#45;&gt;Node36</title>
<path fill="none" stroke="#191970" d="M378.9454,-124C397.6032,-124 418.4973,-124 436.7415,-124"/>
<polygon fill="#191970" stroke="#191970" points="378.8411,-120.5001 368.8411,-124 378.8411,-127.5001 378.8411,-120.5001"/>
</g>
<!-- Node39 -->
<g id="node19" class="node">
<title>Node39</title>
<g id="a_node19"><a xlink:href="classSynchronizerFifo.html" target="_top" xlink:title="SynchronizerFifo">
<polygon fill="#ffffff" stroke="#000000" points="436,-76.5 436,-95.5 533,-95.5 533,-76.5 436,-76.5"/>
<text text-anchor="middle" x="484.5" y="-83.5" font-family="Helvetica,sans-Serif" font-size="10.00" fill="#000000">SynchronizerFifo</text>
</a>
</g>
</g>
<!-- Node39&#45;&gt;Node33 -->
<g id="edge20" class="edge">
<title>Node39&#45;&gt;Node33</title>
<path fill="none" stroke="#191970" d="M543.3072,-93.1624C559.2832,-95.1082 576.4045,-97.1935 591.7573,-99.0634"/>
<polygon fill="#191970" stroke="#191970" points="543.3541,-89.6423 533.0042,-91.9076 542.5077,-96.591 543.3541,-89.6423"/>
</g>
<!-- Node40&#45;&gt;Node39 -->
<g id="edge21" class="edge">
<title>Node40&#45;&gt;Node39</title>
<path fill="none" stroke="#191970" d="M368.1985,-86C388.9652,-86 414.1954,-86 435.8418,-86"/>
<polygon fill="#191970" stroke="#191970" points="368.094,-82.5001 358.0939,-86 368.0939,-89.5001 368.094,-82.5001"/>
</g>
<!-- Node41 -->
<g id="node21" class="node">
<title>Node41</title>
<g id="a_node21"><a xlink:href="classClkRst.html" target="_top" xlink:title="ClkRst(2)">
<polygon fill="#ffffff" stroke="#000000" points="609.5,-57.5 609.5,-76.5 671.5,-76.5 671.5,-57.5 609.5,-57.5"/>
<text text-anchor="middle" x="640.5" y="-64.5" font-family="Helvetica,sans-Serif" font-size="10.00" fill="#000000">ClkRst(2)</text>
</a>
</g>
</g>
<!-- Node41&#45;&gt;Node21 -->
<g id="edge29" class="edge">
<title>Node41&#45;&gt;Node21</title>
<path fill="none" stroke="#191970" d="M675.1953,-80.2967C679.8539,-82.1683 684.5559,-84.1019 689,-86 710.4998,-95.183 734.7508,-106.5493 751.2672,-114.4466"/>
<polygon fill="#191970" stroke="#191970" points="676.3765,-77.0001 665.7902,-76.5736 673.7999,-83.5087 676.3765,-77.0001"/>
</g>
</g>
</svg>
        <g id="navigator" transform="translate(0 0)" fill="#404254">
                <rect fill="#f2f5e9" fill-opacity="0.5" stroke="#606060" stroke-width=".5" x="0" y="0" width="60" height="60"/>
                <use id="zoomplus" xlink:href="#zoomPlus" x="17" y="9" onmousedown="handleZoom(evt,'in')"/>
                <use id="zoomminus" xlink:href="#zoomMin" x="42" y="9" onmousedown="handleZoom(evt,'out')"/>
                <use id="reset" xlink:href="#resetDef" x="30" y="36" onmousedown="handleReset()"/>
                <g id="arrowUp" xlink:href="#dirArrow" transform="translate(30 24)" onmousedown="handlePan(0,-1)">
                  <use xlink:href="#rim" fill="#404040">
                        <set attributeName="fill" to="#808080" begin="arrowUp.mouseover" end="arrowUp.mouseout"/>
                  </use>
                  <path fill="none" stroke="white" stroke-width="1.5" d="M0,-3.0v7 M-2.5,-0.5L0,-3.0L2.5,-0.5"/>
                </g>
                <g id="arrowRight" xlink:href="#dirArrow" transform="rotate(90) translate(36 -43)" onmousedown="handlePan(1,0)">
                  <use xlink:href="#rim" fill="#404040">
                        <set attributeName="fill" to="#808080" begin="arrowRight.mouseover" end="arrowRight.mouseout"/>
                  </use>
                  <path fill="none" stroke="white" stroke-width="1.5" d="M0,-3.0v7 M-2.5,-0.5L0,-3.0L2.5,-0.5"/>
                </g>
                <g id="arrowDown" xlink:href="#dirArrow" transform="rotate(180) translate(-30 -48)" onmousedown="handlePan(0,1)">
                  <use xlink:href="#rim" fill="#404040">
                        <set attributeName="fill" to="#808080" begin="arrowDown.mouseover" end="arrowDown.mouseout"/>
                  </use>
                  <path fill="none" stroke="white" stroke-width="1.5" d="M0,-3.0v7 M-2.5,-0.5L0,-3.0L2.5,-0.5"/>
                </g>
                <g id="arrowLeft" xlink:href="#dirArrow" transform="rotate(270) translate(-36 17)" onmousedown="handlePan(-1,0)">
                  <use xlink:href="#rim" fill="#404040">
                        <set attributeName="fill" to="#808080" begin="arrowLeft.mouseover" end="arrowLeft.mouseout"/>
                  </use>
                  <path fill="none" stroke="white" stroke-width="1.5" d="M0,-3.0v7 M-2.5,-0.5L0,-3.0L2.5,-0.5"/>
                </g>
        </g>
        <svg viewBox="0 0 15 15" width="100%" height="30px" preserveAspectRatio="xMaxYMin meet">
         <g id="arrow_out" transform="scale(0.3 0.3)">
          <a xlink:href="classAxiLiteAsyncTb__coll__graph_org.svg" target="_base">
           <rect id="button" ry="5" rx="5" y="6" x="6" height="38" width="38"
                fill="#f2f5e9" fill-opacity="0.5" stroke="#606060" stroke-width="1.0"/>
           <path id="arrow"
             d="M 11.500037,31.436501 C 11.940474,20.09759 22.043105,11.32322 32.158766,21.979434 L 37.068811,17.246167 C 37.068811,17.246167 37.088388,32 37.088388,32 L 22.160133,31.978069 C 22.160133,31.978069 26.997745,27.140456 26.997745,27.140456 C 18.528582,18.264221 13.291696,25.230495 11.500037,31.436501 z"
             style="fill:#404040;"/>
          </a>
         </g>
        </svg>
</svg>
