<?xml version="1.0" encoding="UTF-8" standalone="no"?>
<!DOCTYPE svg PUBLIC "-//W3C//DTD SVG 1.1//EN"
 "http://www.w3.org/Graphics/SVG/1.1/DTD/svg11.dtd">
<!-- Generated by graphviz version 2.43.0 (0)
 -->
<!-- Title: AxiStreamPacketizer2Tb Pages: 1 -->
<!--zoomable 389 -->
<svg id="main" version="1.1" xmlns="http://www.w3.org/2000/svg" xmlns:xlink="http://www.w3.org/1999/xlink" xml:space="preserve" onload="init(evt)">
<style type="text/css"><![CDATA[
.edge:hover path { stroke: red; }
.edge:hover polygon { stroke: red; fill: red; }
]]></style>
<script type="text/javascript"><![CDATA[
var edges = document.getElementsByTagName('g');
if (edges && edges.length) {
  for (var i=0;i<edges.length;i++) {
    if (edges[i].id.substr(0,4)=='edge') {
      edges[i].setAttribute('class','edge');
    }
  }
}
]]></script>
        <defs>
                <circle id="rim" cx="0" cy="0" r="7"/>
                <circle id="rim2" cx="0" cy="0" r="3.5"/>
                <g id="zoomPlus">
                        <use xlink:href="#rim" fill="#404040">
                                <set attributeName="fill" to="#808080" begin="zoomplus.mouseover" end="zoomplus.mouseout"/>
                        </use>
                        <path d="M-4,0h8M0,-4v8" fill="none" stroke="white" stroke-width="1.5" pointer-events="none"/>
                </g>
                <g id="zoomMin">
                        <use xlink:href="#rim" fill="#404040">
                                <set attributeName="fill" to="#808080" begin="zoomminus.mouseover" end="zoomminus.mouseout"/>
                        </use>
                        <path d="M-4,0h8" fill="none" stroke="white" stroke-width="1.5" pointer-events="none"/>
                </g>
                <g id="dirArrow">
                        <path fill="none" stroke="white" stroke-width="1.5" d="M0,-3.0v7 M-2.5,-0.5L0,-3.0L2.5,-0.5"/>
                </g>
               <g id="resetDef">
                       <use xlink:href="#rim2" fill="#404040">
                               <set attributeName="fill" to="#808080" begin="reset.mouseover" end="reset.mouseout"/>
                       </use>
               </g>
        </defs>

<script type="text/javascript">
var viewWidth = 1187;
var viewHeight = 389;
var sectionId = 'dynsection-0';
</script>
<script xlink:href="svgpan.js"/>
<svg id="graph" class="graph">
<g id="viewport">
<title>AxiStreamPacketizer2Tb</title>
<polygon fill="white" stroke="transparent" points="-4,4 -4,-385 1183,-385 1183,4 -4,4"/>
<!-- Node1 -->
<g id="node1" class="node">
<title>Node1</title>
<g id="a_node1"><a xlink:title=" ">
<polygon fill="#bfbfbf" stroke="black" points="1044,-247.5 1044,-266.5 1179,-266.5 1179,-247.5 1044,-247.5"/>
<text text-anchor="middle" x="1111.5" y="-254.5" font-family="Helvetica,sans-Serif" font-size="10.00">AxiStreamPacketizer2Tb</text>
</a>
</g>
</g>
<!-- Node2 -->
<g id="node2" class="node">
<title>Node2</title>
<g id="a_node2"><a xlink:href="classClkRst.html" target="_top" xlink:title=" ">
<polygon fill="white" stroke="black" points="915.5,-342.5 915.5,-361.5 963.5,-361.5 963.5,-342.5 915.5,-342.5"/>
<text text-anchor="middle" x="939.5" y="-349.5" font-family="Helvetica,sans-Serif" font-size="10.00">ClkRst</text>
</a>
</g>
</g>
<!-- Node2&#45;&gt;Node1 -->
<g id="edge1" class="edge">
<title>Node2&#45;&gt;Node1</title>
<path fill="none" stroke="midnightblue" d="M973.16,-342.33C984.47,-338.48 997.04,-333.62 1008,-328 1043.25,-309.93 1080.48,-281.41 1098.85,-266.62"/>
<polygon fill="midnightblue" stroke="midnightblue" points="972.04,-339.01 963.62,-345.45 974.22,-345.67 972.04,-339.01"/>
</g>
<!-- Node3 -->
<g id="node3" class="node">
<title>Node3</title>
<g id="a_node3"><a xlink:href="classSsiPrbsTx.html" target="_top" xlink:title=" ">
<polygon fill="white" stroke="black" points="907.5,-209.5 907.5,-228.5 971.5,-228.5 971.5,-209.5 907.5,-209.5"/>
<text text-anchor="middle" x="939.5" y="-216.5" font-family="Helvetica,sans-Serif" font-size="10.00">SsiPrbsTx</text>
</a>
</g>
</g>
<!-- Node3&#45;&gt;Node1 -->
<g id="edge2" class="edge">
<title>Node3&#45;&gt;Node1</title>
<path fill="none" stroke="midnightblue" d="M981.66,-228.2C1007.81,-234.05 1041.58,-241.6 1067.99,-247.5"/>
<polygon fill="midnightblue" stroke="midnightblue" points="982.2,-224.74 971.68,-225.97 980.68,-231.57 982.2,-224.74"/>
</g>
<!-- Node4 -->
<g id="node4" class="node">
<title>Node4</title>
<g id="a_node4"><a xlink:href="classAxiStreamFifoV2.html" target="_top" xlink:title=" ">
<polygon fill="white" stroke="black" points="726,-190.5 726,-209.5 824,-209.5 824,-190.5 726,-190.5"/>
<text text-anchor="middle" x="775" y="-197.5" font-family="Helvetica,sans-Serif" font-size="10.00">AxiStreamFifoV2</text>
</a>
</g>
</g>
<!-- Node4&#45;&gt;Node3 -->
<g id="edge3" class="edge">
<title>Node4&#45;&gt;Node3</title>
<path fill="none" stroke="midnightblue" d="M834.26,-206.81C858.81,-209.68 886.41,-212.91 907.04,-215.32"/>
<polygon fill="midnightblue" stroke="midnightblue" points="834.65,-203.33 824.32,-205.65 833.84,-210.29 834.65,-203.33"/>
</g>
<!-- Node5 -->
<g id="node5" class="node">
<title>Node5</title>
<g id="a_node5"><a xlink:href="classAxiStreamGearbox.html" target="_top" xlink:title=" ">
<polygon fill="white" stroke="black" points="557,-228.5 557,-247.5 679,-247.5 679,-228.5 557,-228.5"/>
<text text-anchor="middle" x="618" y="-235.5" font-family="Helvetica,sans-Serif" font-size="10.00">AxiStreamGearbox(2)</text>
</a>
</g>
</g>
<!-- Node5&#45;&gt;Node4 -->
<g id="edge4" class="edge">
<title>Node5&#45;&gt;Node4</title>
<path fill="none" stroke="midnightblue" d="M668.11,-225.96C689.76,-220.65 714.85,-214.5 735.17,-209.52"/>
<polygon fill="midnightblue" stroke="midnightblue" points="666.99,-222.63 658.11,-228.41 668.66,-229.43 666.99,-222.63"/>
</g>
<!-- Node6 -->
<g id="node6" class="node">
<title>Node6</title>
<g id="a_node6"><a xlink:href="classAxiStreamResize.html" target="_top" xlink:title=" ">
<polygon fill="white" stroke="black" points="420,-228.5 420,-247.5 520,-247.5 520,-228.5 420,-228.5"/>
<text text-anchor="middle" x="470" y="-235.5" font-family="Helvetica,sans-Serif" font-size="10.00">AxiStreamResize</text>
</a>
</g>
</g>
<!-- Node6&#45;&gt;Node5 -->
<g id="edge5" class="edge">
<title>Node6&#45;&gt;Node5</title>
<path fill="none" stroke="midnightblue" d="M530.21,-238C539.02,-238 548.12,-238 556.95,-238"/>
<polygon fill="midnightblue" stroke="midnightblue" points="530.02,-234.5 520.02,-238 530.02,-241.5 530.02,-234.5"/>
</g>
<!-- Node7 -->
<g id="node7" class="node">
<title>Node7</title>
<g id="a_node7"><a xlink:href="classAxiStreamPipeline.html" target="_top" xlink:title=" ">
<polygon fill="white" stroke="black" points="276,-285.5 276,-304.5 383,-304.5 383,-285.5 276,-285.5"/>
<text text-anchor="middle" x="329.5" y="-292.5" font-family="Helvetica,sans-Serif" font-size="10.00">AxiStreamPipeline</text>
</a>
</g>
</g>
<!-- Node7&#45;&gt;Node4 -->
<g id="edge29" class="edge">
<title>Node7&#45;&gt;Node4</title>
<path fill="none" stroke="midnightblue" d="M376.08,-280.76C378.52,-279.32 380.84,-277.73 383,-276 406.35,-257.22 393.15,-234.16 419,-219 469.64,-189.3 641.08,-193.25 725.8,-197.24"/>
<polygon fill="midnightblue" stroke="midnightblue" points="374.25,-277.77 366.91,-285.41 377.41,-284.01 374.25,-277.77"/>
</g>
<!-- Node7&#45;&gt;Node5 -->
<g id="edge7" class="edge">
<title>Node7&#45;&gt;Node5</title>
<path fill="none" stroke="midnightblue" d="M388.39,-283.48C441.47,-272.92 519.15,-257.47 568.89,-247.57"/>
<polygon fill="midnightblue" stroke="midnightblue" points="387.58,-280.08 378.45,-285.46 388.94,-286.94 387.58,-280.08"/>
</g>
<!-- Node7&#45;&gt;Node6 -->
<g id="edge6" class="edge">
<title>Node7&#45;&gt;Node6</title>
<path fill="none" stroke="midnightblue" d="M367.67,-281.91C372.84,-279.98 378.07,-277.98 383,-276 405.57,-266.94 431,-255.55 448.32,-247.62"/>
<polygon fill="midnightblue" stroke="midnightblue" points="366.07,-278.77 357.88,-285.49 368.48,-285.34 366.07,-278.77"/>
</g>
<!-- Node22 -->
<g id="node22" class="node">
<title>Node22</title>
<g id="a_node22"><a xlink:href="classAxiStreamMux.html" target="_top" xlink:title=" ">
<polygon fill="white" stroke="black" points="425.5,-342.5 425.5,-361.5 514.5,-361.5 514.5,-342.5 425.5,-342.5"/>
<text text-anchor="middle" x="470" y="-349.5" font-family="Helvetica,sans-Serif" font-size="10.00">AxiStreamMux</text>
</a>
</g>
</g>
<!-- Node7&#45;&gt;Node22 -->
<g id="edge31" class="edge">
<title>Node7&#45;&gt;Node22</title>
<path fill="none" stroke="midnightblue" d="M361.61,-308.74C378.51,-316.11 399.82,-325.24 419,-333 426.83,-336.17 435.42,-339.49 443.23,-342.44"/>
<polygon fill="midnightblue" stroke="midnightblue" points="362.78,-305.43 352.21,-304.63 359.97,-311.84 362.78,-305.43"/>
</g>
<!-- Node31 -->
<g id="node31" class="node">
<title>Node31</title>
<g id="a_node31"><a xlink:href="classAxiStreamDeMux.html" target="_top" xlink:title=" ">
<polygon fill="white" stroke="black" points="419,-304.5 419,-323.5 521,-323.5 521,-304.5 419,-304.5"/>
<text text-anchor="middle" x="470" y="-311.5" font-family="Helvetica,sans-Serif" font-size="10.00">AxiStreamDeMux</text>
</a>
</g>
</g>
<!-- Node7&#45;&gt;Node31 -->
<g id="edge45" class="edge">
<title>Node7&#45;&gt;Node31</title>
<path fill="none" stroke="midnightblue" d="M393.18,-303.6C401.72,-304.77 410.39,-305.96 418.67,-307.1"/>
<polygon fill="midnightblue" stroke="midnightblue" points="393.64,-300.13 383.26,-302.24 392.69,-307.06 393.64,-300.13"/>
</g>
<!-- Node8 -->
<g id="node8" class="node">
<title>Node8</title>
<g id="a_node8"><a xlink:href="classFifoCascade.html" target="_top" xlink:title=" ">
<polygon fill="white" stroke="black" points="573.5,-152.5 573.5,-171.5 662.5,-171.5 662.5,-152.5 573.5,-152.5"/>
<text text-anchor="middle" x="618" y="-159.5" font-family="Helvetica,sans-Serif" font-size="10.00">FifoCascade(2)</text>
</a>
</g>
</g>
<!-- Node8&#45;&gt;Node4 -->
<g id="edge8" class="edge">
<title>Node8&#45;&gt;Node4</title>
<path fill="none" stroke="midnightblue" d="M668.11,-174.04C689.76,-179.35 714.85,-185.5 735.17,-190.48"/>
<polygon fill="midnightblue" stroke="midnightblue" points="668.66,-170.57 658.11,-171.59 666.99,-177.37 668.66,-170.57"/>
</g>
<!-- Node9 -->
<g id="node9" class="node">
<title>Node9</title>
<g id="a_node9"><a xlink:href="classFifo.html" target="_top" xlink:title=" ">
<polygon fill="white" stroke="black" points="446,-152.5 446,-171.5 494,-171.5 494,-152.5 446,-152.5"/>
<text text-anchor="middle" x="470" y="-159.5" font-family="Helvetica,sans-Serif" font-size="10.00">Fifo(4)</text>
</a>
</g>
</g>
<!-- Node9&#45;&gt;Node8 -->
<g id="edge9" class="edge">
<title>Node9&#45;&gt;Node8</title>
<path fill="none" stroke="midnightblue" d="M504.24,-162C524.73,-162 551.23,-162 573.39,-162"/>
<polygon fill="midnightblue" stroke="midnightblue" points="504.13,-158.5 494.13,-162 504.13,-165.5 504.13,-158.5"/>
</g>
<!-- Node10 -->
<g id="node10" class="node">
<title>Node10</title>
<g id="a_node10"><a xlink:href="classFifoXpm.html" target="_top" xlink:title=" ">
<polygon fill="white" stroke="black" points="301,-171.5 301,-190.5 358,-190.5 358,-171.5 301,-171.5"/>
<text text-anchor="middle" x="329.5" y="-178.5" font-family="Helvetica,sans-Serif" font-size="10.00">FifoXpm</text>
</a>
</g>
</g>
<!-- Node10&#45;&gt;Node9 -->
<g id="edge10" class="edge">
<title>Node10&#45;&gt;Node9</title>
<path fill="none" stroke="midnightblue" d="M368.36,-175.81C393.19,-172.4 424.83,-168.06 445.94,-165.16"/>
<polygon fill="midnightblue" stroke="midnightblue" points="367.63,-172.37 358.19,-177.2 368.58,-179.31 367.63,-172.37"/>
</g>
<!-- Node11 -->
<g id="node11" class="node">
<title>Node11</title>
<g id="a_node11"><a xlink:href="classFifoOutputPipeline.html" target="_top" xlink:title=" ">
<polygon fill="white" stroke="black" points="124.5,-133.5 124.5,-152.5 231.5,-152.5 231.5,-133.5 124.5,-133.5"/>
<text text-anchor="middle" x="178" y="-140.5" font-family="Helvetica,sans-Serif" font-size="10.00">FifoOutputPipeline</text>
</a>
</g>
</g>
<!-- Node11&#45;&gt;Node10 -->
<g id="edge11" class="edge">
<title>Node11&#45;&gt;Node10</title>
<path fill="none" stroke="midnightblue" d="M226.54,-155.08C250.98,-161.29 279.91,-168.65 300.7,-173.93"/>
<polygon fill="midnightblue" stroke="midnightblue" points="227.28,-151.66 216.73,-152.59 225.55,-158.44 227.28,-151.66"/>
</g>
<!-- Node12 -->
<g id="node12" class="node">
<title>Node12</title>
<g id="a_node12"><a xlink:href="classFifoAlteraMf.html" target="_top" xlink:title=" ">
<polygon fill="white" stroke="black" points="291,-133.5 291,-152.5 368,-152.5 368,-133.5 291,-133.5"/>
<text text-anchor="middle" x="329.5" y="-140.5" font-family="Helvetica,sans-Serif" font-size="10.00">FifoAlteraMf</text>
</a>
</g>
</g>
<!-- Node11&#45;&gt;Node12 -->
<g id="edge13" class="edge">
<title>Node11&#45;&gt;Node12</title>
<path fill="none" stroke="midnightblue" d="M241.93,-143C258.56,-143 275.99,-143 290.82,-143"/>
<polygon fill="midnightblue" stroke="midnightblue" points="241.71,-139.5 231.71,-143 241.71,-146.5 241.71,-139.5"/>
</g>
<!-- Node13 -->
<g id="node13" class="node">
<title>Node13</title>
<g id="a_node13"><a xlink:href="classFifoAsync.html" target="_top" xlink:title=" ">
<polygon fill="white" stroke="black" points="297.5,-247.5 297.5,-266.5 361.5,-266.5 361.5,-247.5 297.5,-247.5"/>
<text text-anchor="middle" x="329.5" y="-254.5" font-family="Helvetica,sans-Serif" font-size="10.00">FifoAsync</text>
</a>
</g>
</g>
<!-- Node11&#45;&gt;Node13 -->
<g id="edge22" class="edge">
<title>Node11&#45;&gt;Node13</title>
<path fill="none" stroke="midnightblue" d="M233.77,-157.38C235.97,-158.78 238.06,-160.31 240,-162 268.22,-186.51 248.34,-212.86 276,-238 282.02,-243.48 289.75,-247.41 297.41,-250.21"/>
<polygon fill="midnightblue" stroke="midnightblue" points="235.34,-154.24 224.87,-152.62 232.04,-160.42 235.34,-154.24"/>
</g>
<!-- Node21 -->
<g id="node21" class="node">
<title>Node21</title>
<g id="a_node21"><a xlink:href="classFifoSync.html" target="_top" xlink:title=" ">
<polygon fill="white" stroke="black" points="300.5,-209.5 300.5,-228.5 358.5,-228.5 358.5,-209.5 300.5,-209.5"/>
<text text-anchor="middle" x="329.5" y="-216.5" font-family="Helvetica,sans-Serif" font-size="10.00">FifoSync</text>
</a>
</g>
</g>
<!-- Node11&#45;&gt;Node21 -->
<g id="edge27" class="edge">
<title>Node11&#45;&gt;Node21</title>
<path fill="none" stroke="midnightblue" d="M229.35,-156.36C233.06,-158.04 236.65,-159.92 240,-162 259.75,-174.3 256.54,-187.25 276,-200 283.38,-204.83 292.15,-208.63 300.38,-211.52"/>
<polygon fill="midnightblue" stroke="midnightblue" points="230.56,-153.08 219.98,-152.58 227.94,-159.57 230.56,-153.08"/>
</g>
<!-- Node12&#45;&gt;Node9 -->
<g id="edge12" class="edge">
<title>Node12&#45;&gt;Node9</title>
<path fill="none" stroke="midnightblue" d="M378.56,-149.59C401.4,-152.73 427.64,-156.33 445.95,-158.84"/>
<polygon fill="midnightblue" stroke="midnightblue" points="378.73,-146.08 368.35,-148.19 377.78,-153.02 378.73,-146.08"/>
</g>
<!-- Node13&#45;&gt;Node9 -->
<g id="edge14" class="edge">
<title>Node13&#45;&gt;Node9</title>
<path fill="none" stroke="midnightblue" d="M371.01,-245.3C375.27,-243.22 379.36,-240.8 383,-238 405.27,-220.85 397.62,-204.25 419,-186 426.84,-179.31 436.86,-174.02 445.87,-170.13"/>
<polygon fill="midnightblue" stroke="midnightblue" points="369.39,-242.18 361.56,-249.32 372.14,-248.62 369.39,-242.18"/>
</g>
<!-- Node14 -->
<g id="node14" class="node">
<title>Node14</title>
<g id="a_node14"><a xlink:href="classRstSync.html" target="_top" xlink:title=" ">
<polygon fill="white" stroke="black" points="143.5,-285.5 143.5,-304.5 212.5,-304.5 212.5,-285.5 143.5,-285.5"/>
<text text-anchor="middle" x="178" y="-292.5" font-family="Helvetica,sans-Serif" font-size="10.00">RstSync(2)</text>
</a>
</g>
</g>
<!-- Node14&#45;&gt;Node13 -->
<g id="edge15" class="edge">
<title>Node14&#45;&gt;Node13</title>
<path fill="none" stroke="midnightblue" d="M222.47,-283.95C246.45,-277.86 275.67,-270.43 297.36,-264.92"/>
<polygon fill="midnightblue" stroke="midnightblue" points="221.38,-280.62 212.55,-286.47 223.1,-287.4 221.38,-280.62"/>
</g>
<!-- Node15 -->
<g id="node15" class="node">
<title>Node15</title>
<g id="a_node15"><a xlink:href="classSynchronizer.html" target="_top" xlink:title=" ">
<polygon fill="white" stroke="black" points="0,-190.5 0,-209.5 80,-209.5 80,-190.5 0,-190.5"/>
<text text-anchor="middle" x="40" y="-197.5" font-family="Helvetica,sans-Serif" font-size="10.00">Synchronizer</text>
</a>
</g>
</g>
<!-- Node15&#45;&gt;Node4 -->
<g id="edge28" class="edge">
<title>Node15&#45;&gt;Node4</title>
<path fill="none" stroke="midnightblue" d="M52.97,-181.9C66.08,-163.77 88.87,-136.79 116,-124 201.77,-83.56 233.68,-105 328.5,-105 328.5,-105 328.5,-105 471,-105 564.97,-105 591.07,-109.85 679,-143 710.86,-155.01 744.07,-177.66 761.54,-190.5"/>
<polygon fill="midnightblue" stroke="midnightblue" points="49.86,-180.24 47.03,-190.45 55.61,-184.23 49.86,-180.24"/>
</g>
<!-- Node15&#45;&gt;Node14 -->
<g id="edge16" class="edge">
<title>Node15&#45;&gt;Node14</title>
<path fill="none" stroke="midnightblue" d="M54.24,-217.78C67.92,-234.99 90.79,-260.65 116,-276 124.34,-281.08 134.15,-284.91 143.44,-287.75"/>
<polygon fill="midnightblue" stroke="midnightblue" points="56.84,-215.43 47.96,-209.66 51.3,-219.71 56.84,-215.43"/>
</g>
<!-- Node16 -->
<g id="node16" class="node">
<title>Node16</title>
<g id="a_node16"><a xlink:href="classSynchronizerVector.html" target="_top" xlink:title=" ">
<polygon fill="white" stroke="black" points="116,-361.5 116,-380.5 240,-380.5 240,-361.5 116,-361.5"/>
<text text-anchor="middle" x="178" y="-368.5" font-family="Helvetica,sans-Serif" font-size="10.00">SynchronizerVector(2)</text>
</a>
</g>
</g>
<!-- Node16&#45;&gt;Node13 -->
<g id="edge17" class="edge">
<title>Node16&#45;&gt;Node13</title>
<path fill="none" stroke="midnightblue" d="M233.77,-356.62C235.97,-355.22 238.06,-353.69 240,-352 268.22,-327.49 248.34,-301.14 276,-276 282.02,-270.52 289.75,-266.59 297.41,-263.79"/>
<polygon fill="midnightblue" stroke="midnightblue" points="232.04,-353.58 224.87,-361.38 235.34,-359.76 232.04,-353.58"/>
</g>
<!-- Node17 -->
<g id="node17" class="node">
<title>Node17</title>
<g id="a_node17"><a xlink:href="classSynchronizer.html" target="_top" xlink:title=" ">
<polygon fill="white" stroke="black" points="131.5,-323.5 131.5,-342.5 224.5,-342.5 224.5,-323.5 131.5,-323.5"/>
<text text-anchor="middle" x="178" y="-330.5" font-family="Helvetica,sans-Serif" font-size="10.00">Synchronizer(2)</text>
</a>
</g>
</g>
<!-- Node17&#45;&gt;Node13 -->
<g id="edge18" class="edge">
<title>Node17&#45;&gt;Node13</title>
<path fill="none" stroke="midnightblue" d="M229.35,-319.64C233.06,-317.96 236.65,-316.08 240,-314 259.75,-301.7 256.54,-288.75 276,-276 282.49,-271.75 290.05,-268.3 297.37,-265.57"/>
<polygon fill="midnightblue" stroke="midnightblue" points="227.94,-316.43 219.98,-323.42 230.56,-322.92 227.94,-316.43"/>
</g>
<!-- Node18 -->
<g id="node18" class="node">
<title>Node18</title>
<g id="a_node18"><a xlink:href="classFifoWrFsm.html" target="_top" xlink:title=" ">
<polygon fill="white" stroke="black" points="143.5,-209.5 143.5,-228.5 212.5,-228.5 212.5,-209.5 143.5,-209.5"/>
<text text-anchor="middle" x="178" y="-216.5" font-family="Helvetica,sans-Serif" font-size="10.00">FifoWrFsm</text>
</a>
</g>
</g>
<!-- Node18&#45;&gt;Node13 -->
<g id="edge19" class="edge">
<title>Node18&#45;&gt;Node13</title>
<path fill="none" stroke="midnightblue" d="M222.47,-230.05C246.45,-236.14 275.67,-243.57 297.36,-249.08"/>
<polygon fill="midnightblue" stroke="midnightblue" points="223.1,-226.6 212.55,-227.53 221.38,-233.38 223.1,-226.6"/>
</g>
<!-- Node18&#45;&gt;Node21 -->
<g id="edge24" class="edge">
<title>Node18&#45;&gt;Node21</title>
<path fill="none" stroke="midnightblue" d="M222.85,-219C247.78,-219 278.28,-219 300.09,-219"/>
<polygon fill="midnightblue" stroke="midnightblue" points="222.55,-215.5 212.55,-219 222.55,-222.5 222.55,-215.5"/>
</g>
<!-- Node19 -->
<g id="node19" class="node">
<title>Node19</title>
<g id="a_node19"><a xlink:href="classFifoRdFsm.html" target="_top" xlink:title=" ">
<polygon fill="white" stroke="black" points="144,-171.5 144,-190.5 212,-190.5 212,-171.5 144,-171.5"/>
<text text-anchor="middle" x="178" y="-178.5" font-family="Helvetica,sans-Serif" font-size="10.00">FifoRdFsm</text>
</a>
</g>
</g>
<!-- Node19&#45;&gt;Node13 -->
<g id="edge20" class="edge">
<title>Node19&#45;&gt;Node13</title>
<path fill="none" stroke="midnightblue" d="M222.1,-191.36C228.34,-193.72 234.5,-196.57 240,-200 259.75,-212.3 256.54,-225.25 276,-238 282.49,-242.25 290.05,-245.7 297.37,-248.43"/>
<polygon fill="midnightblue" stroke="midnightblue" points="222.91,-187.94 212.31,-188.04 220.66,-194.57 222.91,-187.94"/>
</g>
<!-- Node19&#45;&gt;Node21 -->
<g id="edge25" class="edge">
<title>Node19&#45;&gt;Node21</title>
<path fill="none" stroke="midnightblue" d="M221.88,-191.9C247.12,-198.31 278.32,-206.25 300.44,-211.87"/>
<polygon fill="midnightblue" stroke="midnightblue" points="222.73,-188.5 212.18,-189.43 221.01,-195.29 222.73,-188.5"/>
</g>
<!-- Node20 -->
<g id="node20" class="node">
<title>Node20</title>
<g id="a_node20"><a xlink:href="classSimpleDualPortRam.html" target="_top" xlink:title=" ">
<polygon fill="white" stroke="black" points="120.5,-247.5 120.5,-266.5 235.5,-266.5 235.5,-247.5 120.5,-247.5"/>
<text text-anchor="middle" x="178" y="-254.5" font-family="Helvetica,sans-Serif" font-size="10.00">SimpleDualPortRam</text>
</a>
</g>
</g>
<!-- Node20&#45;&gt;Node13 -->
<g id="edge21" class="edge">
<title>Node20&#45;&gt;Node13</title>
<path fill="none" stroke="midnightblue" d="M245.74,-257C263.77,-257 282.44,-257 297.46,-257"/>
<polygon fill="midnightblue" stroke="midnightblue" points="245.52,-253.5 235.52,-257 245.52,-260.5 245.52,-253.5"/>
</g>
<!-- Node20&#45;&gt;Node21 -->
<g id="edge26" class="edge">
<title>Node20&#45;&gt;Node21</title>
<path fill="none" stroke="midnightblue" d="M226.47,-244.93C250.74,-238.77 279.45,-231.47 300.23,-226.19"/>
<polygon fill="midnightblue" stroke="midnightblue" points="225.55,-241.56 216.73,-247.41 227.28,-248.34 225.55,-241.56"/>
</g>
<!-- Node21&#45;&gt;Node9 -->
<g id="edge23" class="edge">
<title>Node21&#45;&gt;Node9</title>
<path fill="none" stroke="midnightblue" d="M367.67,-205.91C372.84,-203.98 378.07,-201.98 383,-200 405.57,-190.94 431,-179.55 448.32,-171.62"/>
<polygon fill="midnightblue" stroke="midnightblue" points="366.07,-202.77 357.88,-209.49 368.48,-209.34 366.07,-202.77"/>
</g>
<!-- Node22&#45;&gt;Node1 -->
<g id="edge30" class="edge">
<title>Node22&#45;&gt;Node1</title>
<path fill="none" stroke="midnightblue" d="M524.85,-346.36C621.85,-335.84 832.23,-311.44 1008,-280 1029.18,-276.21 1052.62,-271.03 1071.72,-266.54"/>
<polygon fill="midnightblue" stroke="midnightblue" points="524.27,-342.9 514.7,-347.45 525.02,-349.86 524.27,-342.9"/>
</g>
<!-- Node23 -->
<g id="node23" class="node">
<title>Node23</title>
<g id="a_node23"><a xlink:href="classAxiStreamPacketizer2.html" target="_top" xlink:title=" ">
<polygon fill="white" stroke="black" points="878,-57.5 878,-76.5 1001,-76.5 1001,-57.5 878,-57.5"/>
<text text-anchor="middle" x="939.5" y="-64.5" font-family="Helvetica,sans-Serif" font-size="10.00">AxiStreamPacketizer2</text>
</a>
</g>
</g>
<!-- Node23&#45;&gt;Node1 -->
<g id="edge32" class="edge">
<title>Node23&#45;&gt;Node1</title>
<path fill="none" stroke="midnightblue" d="M1000.07,-80.86C1002.85,-82.39 1005.52,-84.1 1008,-86 1066.02,-130.35 1098.03,-217.76 1107.49,-247.12"/>
<polygon fill="midnightblue" stroke="midnightblue" points="1001.39,-77.61 990.85,-76.5 998.4,-83.94 1001.39,-77.61"/>
</g>
<!-- Node24 -->
<g id="node24" class="node">
<title>Node24</title>
<g id="a_node24"><a xlink:href="classAxiStreamPipeline.html" target="_top" xlink:title=" ">
<polygon fill="white" stroke="black" points="715,-76.5 715,-95.5 835,-95.5 835,-76.5 715,-76.5"/>
<text text-anchor="middle" x="775" y="-83.5" font-family="Helvetica,sans-Serif" font-size="10.00">AxiStreamPipeline(2)</text>
</a>
</g>
</g>
<!-- Node24&#45;&gt;Node23 -->
<g id="edge33" class="edge">
<title>Node24&#45;&gt;Node23</title>
<path fill="none" stroke="midnightblue" d="M845.35,-77.89C856.14,-76.63 867.21,-75.34 877.78,-74.1"/>
<polygon fill="midnightblue" stroke="midnightblue" points="844.65,-74.45 835.13,-79.09 845.46,-81.4 844.65,-74.45"/>
</g>
<!-- Node30 -->
<g id="node30" class="node">
<title>Node30</title>
<g id="a_node30"><a xlink:href="classAxiStreamDepacketizer2.html" target="_top" xlink:title=" ">
<polygon fill="white" stroke="black" points="871,-95.5 871,-114.5 1008,-114.5 1008,-95.5 871,-95.5"/>
<text text-anchor="middle" x="939.5" y="-102.5" font-family="Helvetica,sans-Serif" font-size="10.00">AxiStreamDepacketizer2</text>
</a>
</g>
</g>
<!-- Node24&#45;&gt;Node30 -->
<g id="edge40" class="edge">
<title>Node24&#45;&gt;Node30</title>
<path fill="none" stroke="midnightblue" d="M845.34,-94.11C853.8,-95.1 862.44,-96.11 870.88,-97.09"/>
<polygon fill="midnightblue" stroke="midnightblue" points="845.46,-90.6 835.13,-92.91 844.65,-97.55 845.46,-90.6"/>
</g>
<!-- Node25 -->
<g id="node25" class="node">
<title>Node25</title>
<g id="a_node25"><a xlink:href="classDualPortRam.html" target="_top" xlink:title=" ">
<polygon fill="white" stroke="black" points="734.5,-114.5 734.5,-133.5 815.5,-133.5 815.5,-114.5 734.5,-114.5"/>
<text text-anchor="middle" x="775" y="-121.5" font-family="Helvetica,sans-Serif" font-size="10.00">DualPortRam</text>
</a>
</g>
</g>
<!-- Node25&#45;&gt;Node23 -->
<g id="edge34" class="edge">
<title>Node25&#45;&gt;Node23</title>
<path fill="none" stroke="midnightblue" d="M818.9,-111.16C824.37,-109.24 829.86,-107.17 835,-105 851.67,-97.98 854.2,-92.71 871,-86 879.93,-82.43 889.78,-79.26 899.13,-76.57"/>
<polygon fill="midnightblue" stroke="midnightblue" points="817.5,-107.94 809.14,-114.45 819.73,-114.57 817.5,-107.94"/>
</g>
<!-- Node25&#45;&gt;Node30 -->
<g id="edge41" class="edge">
<title>Node25&#45;&gt;Node30</title>
<path fill="none" stroke="midnightblue" d="M825.83,-118.17C840.08,-116.51 855.86,-114.66 870.98,-112.89"/>
<polygon fill="midnightblue" stroke="midnightblue" points="825.28,-114.71 815.75,-119.35 826.09,-121.67 825.28,-114.71"/>
</g>
<!-- Node26 -->
<g id="node26" class="node">
<title>Node26</title>
<g id="a_node26"><a xlink:href="classTrueDualPortRam.html" target="_top" xlink:title=" ">
<polygon fill="white" stroke="black" points="567.5,-57.5 567.5,-76.5 668.5,-76.5 668.5,-57.5 567.5,-57.5"/>
<text text-anchor="middle" x="618" y="-64.5" font-family="Helvetica,sans-Serif" font-size="10.00">TrueDualPortRam</text>
</a>
</g>
</g>
<!-- Node26&#45;&gt;Node25 -->
<g id="edge35" class="edge">
<title>Node26&#45;&gt;Node25</title>
<path fill="none" stroke="midnightblue" d="M652.8,-80.5C677.89,-90.51 708.78,-102.77 715,-105 724.02,-108.23 733.89,-111.51 742.94,-114.42"/>
<polygon fill="midnightblue" stroke="midnightblue" points="653.77,-77.12 643.19,-76.67 651.18,-83.63 653.77,-77.12"/>
</g>
<!-- Node27 -->
<g id="node27" class="node">
<title>Node27</title>
<g id="a_node27"><a xlink:href="classQuadPortRam.html" target="_top" xlink:title=" ">
<polygon fill="white" stroke="black" points="576,-19.5 576,-38.5 660,-38.5 660,-19.5 576,-19.5"/>
<text text-anchor="middle" x="618" y="-26.5" font-family="Helvetica,sans-Serif" font-size="10.00">QuadPortRam</text>
</a>
</g>
</g>
<!-- Node27&#45;&gt;Node25 -->
<g id="edge36" class="edge">
<title>Node27&#45;&gt;Node25</title>
<path fill="none" stroke="midnightblue" d="M669.47,-41.96C672.84,-43.73 676.06,-45.73 679,-48 702.72,-66.3 691.32,-86.64 715,-105 720.7,-109.42 727.45,-112.82 734.33,-115.45"/>
<polygon fill="midnightblue" stroke="midnightblue" points="670.84,-38.74 660.28,-37.82 667.96,-45.12 670.84,-38.74"/>
</g>
<!-- Node28 -->
<g id="node28" class="node">
<title>Node28</title>
<g id="a_node28"><a xlink:href="classCrc32Parallel.html" target="_top" xlink:title=" ">
<polygon fill="white" stroke="black" points="735,-38.5 735,-57.5 815,-57.5 815,-38.5 735,-38.5"/>
<text text-anchor="middle" x="775" y="-45.5" font-family="Helvetica,sans-Serif" font-size="10.00">Crc32Parallel</text>
</a>
</g>
</g>
<!-- Node28&#45;&gt;Node23 -->
<g id="edge37" class="edge">
<title>Node28&#45;&gt;Node23</title>
<path fill="none" stroke="midnightblue" d="M825.36,-53.77C841.94,-55.71 860.62,-57.89 877.96,-59.92"/>
<polygon fill="midnightblue" stroke="midnightblue" points="825.68,-50.28 815.34,-52.6 824.86,-57.24 825.68,-50.28"/>
</g>
<!-- Node28&#45;&gt;Node30 -->
<g id="edge42" class="edge">
<title>Node28&#45;&gt;Node30</title>
<path fill="none" stroke="midnightblue" d="M818.9,-60.84C824.37,-62.76 829.86,-64.83 835,-67 851.67,-74.02 854.2,-79.29 871,-86 879.93,-89.57 889.78,-92.74 899.13,-95.43"/>
<polygon fill="midnightblue" stroke="midnightblue" points="819.73,-57.43 809.14,-57.55 817.5,-64.06 819.73,-57.43"/>
</g>
<!-- Node29 -->
<g id="node29" class="node">
<title>Node29</title>
<g id="a_node29"><a xlink:href="classCrc32.html" target="_top" xlink:title=" ">
<polygon fill="white" stroke="black" points="753,-0.5 753,-19.5 797,-19.5 797,-0.5 753,-0.5"/>
<text text-anchor="middle" x="775" y="-7.5" font-family="Helvetica,sans-Serif" font-size="10.00">Crc32</text>
</a>
</g>
</g>
<!-- Node29&#45;&gt;Node23 -->
<g id="edge38" class="edge">
<title>Node29&#45;&gt;Node23</title>
<path fill="none" stroke="midnightblue" d="M806.89,-19.69C815.97,-22.61 825.91,-25.87 835,-29 861.79,-38.23 892.19,-49.48 913.08,-57.34"/>
<polygon fill="midnightblue" stroke="midnightblue" points="807.68,-16.27 797.09,-16.57 805.56,-22.94 807.68,-16.27"/>
</g>
<!-- Node29&#45;&gt;Node30 -->
<g id="edge43" class="edge">
<title>Node29&#45;&gt;Node30</title>
<path fill="none" stroke="midnightblue" d="M806.84,-15.59C816.55,-18.44 826.86,-22.69 835,-29 858.68,-47.36 846.98,-68.08 871,-86 876.17,-89.86 882.1,-92.93 888.24,-95.38"/>
<polygon fill="midnightblue" stroke="midnightblue" points="807.61,-12.18 797.05,-13.11 805.89,-18.96 807.61,-12.18"/>
</g>
<!-- Node30&#45;&gt;Node1 -->
<g id="edge39" class="edge">
<title>Node30&#45;&gt;Node1</title>
<path fill="none" stroke="midnightblue" d="M958.83,-121.39C994.36,-153.16 1071.61,-222.23 1099.87,-247.5"/>
<polygon fill="midnightblue" stroke="midnightblue" points="960.92,-118.56 951.13,-114.51 956.26,-123.78 960.92,-118.56"/>
</g>
<!-- Node31&#45;&gt;Node1 -->
<g id="edge44" class="edge">
<title>Node31&#45;&gt;Node1</title>
<path fill="none" stroke="midnightblue" d="M531.36,-303.52C539.95,-302.22 548.69,-301 557,-300 732.12,-278.98 939.72,-266.04 1043.87,-260.37"/>
<polygon fill="midnightblue" stroke="midnightblue" points="530.72,-300.08 521.38,-305.07 531.8,-306.99 530.72,-300.08"/>
</g>
</g>
</svg>
        <g id="navigator" transform="translate(0 0)" fill="#404254">
                <rect fill="#f2f5e9" fill-opacity="0.5" stroke="#606060" stroke-width=".5" x="0" y="0" width="60" height="60"/>
                <use id="zoomplus" xlink:href="#zoomPlus" x="17" y="9" onmousedown="handleZoom(evt,'in')"/>
                <use id="zoomminus" xlink:href="#zoomMin" x="42" y="9" onmousedown="handleZoom(evt,'out')"/>
                <use id="reset" xlink:href="#resetDef" x="30" y="36" onmousedown="handleReset()"/>
                <g id="arrowUp" xlink:href="#dirArrow" transform="translate(30 24)" onmousedown="handlePan(0,-1)">
                  <use xlink:href="#rim" fill="#404040">
                        <set attributeName="fill" to="#808080" begin="arrowUp.mouseover" end="arrowUp.mouseout"/>
                  </use>
                  <path fill="none" stroke="white" stroke-width="1.5" d="M0,-3.0v7 M-2.5,-0.5L0,-3.0L2.5,-0.5"/>
                </g>
                <g id="arrowRight" xlink:href="#dirArrow" transform="rotate(90) translate(36 -43)" onmousedown="handlePan(1,0)">
                  <use xlink:href="#rim" fill="#404040">
                        <set attributeName="fill" to="#808080" begin="arrowRight.mouseover" end="arrowRight.mouseout"/>
                  </use>
                  <path fill="none" stroke="white" stroke-width="1.5" d="M0,-3.0v7 M-2.5,-0.5L0,-3.0L2.5,-0.5"/>
                </g>
                <g id="arrowDown" xlink:href="#dirArrow" transform="rotate(180) translate(-30 -48)" onmousedown="handlePan(0,1)">
                  <use xlink:href="#rim" fill="#404040">
                        <set attributeName="fill" to="#808080" begin="arrowDown.mouseover" end="arrowDown.mouseout"/>
                  </use>
                  <path fill="none" stroke="white" stroke-width="1.5" d="M0,-3.0v7 M-2.5,-0.5L0,-3.0L2.5,-0.5"/>
                </g>
                <g id="arrowLeft" xlink:href="#dirArrow" transform="rotate(270) translate(-36 17)" onmousedown="handlePan(-1,0)">
                  <use xlink:href="#rim" fill="#404040">
                        <set attributeName="fill" to="#808080" begin="arrowLeft.mouseover" end="arrowLeft.mouseout"/>
                  </use>
                  <path fill="none" stroke="white" stroke-width="1.5" d="M0,-3.0v7 M-2.5,-0.5L0,-3.0L2.5,-0.5"/>
                </g>
        </g>
        <svg viewBox="0 0 15 15" width="100%" height="30px" preserveAspectRatio="xMaxYMin meet">
         <g id="arrow_out" transform="scale(0.3 0.3)">
          <a xlink:href="classAxiStreamPacketizer2Tb__inherit__graph_org.svg" target="_base">
           <rect id="button" ry="5" rx="5" y="6" x="6" height="38" width="38"
                fill="#f2f5e9" fill-opacity="0.5" stroke="#606060" stroke-width="1.0"/>
           <path id="arrow"
             d="M 11.500037,31.436501 C 11.940474,20.09759 22.043105,11.32322 32.158766,21.979434 L 37.068811,17.246167 C 37.068811,17.246167 37.088388,32 37.088388,32 L 22.160133,31.978069 C 22.160133,31.978069 26.997745,27.140456 26.997745,27.140456 C 18.528582,18.264221 13.291696,25.230495 11.500037,31.436501 z"
             style="fill:#404040;"/>
          </a>
         </g>
        </svg>
</svg>
