<?xml version="1.0" encoding="UTF-8" standalone="no"?>
<!DOCTYPE svg PUBLIC "-//W3C//DTD SVG 1.1//EN"
 "http://www.w3.org/Graphics/SVG/1.1/DTD/svg11.dtd">
<!-- Generated by graphviz version 2.43.0 (0)
 -->
<!-- Title: Iprog7SeriesCore Pages: 1 -->
<svg width="364pt" height="364pt"
 viewBox="0.00 0.00 364.00 364.00" xmlns="http://www.w3.org/2000/svg" xmlns:xlink="http://www.w3.org/1999/xlink">
<g id="graph0" class="graph" transform="scale(1 1) rotate(0) translate(4 360)">
<title>Iprog7SeriesCore</title>
<polygon fill="white" stroke="transparent" points="-4,4 -4,-360 360,-360 360,4 -4,4"/>
<!-- Node1 -->
<g id="node1" class="node">
<title>Node1</title>
<g id="a_node1"><a xlink:title=" ">
<polygon fill="#bfbfbf" stroke="black" points="169.5,-224.5 169.5,-243.5 269.5,-243.5 269.5,-224.5 169.5,-224.5"/>
<text text-anchor="middle" x="219.5" y="-231.5" font-family="Helvetica,sans-Serif" font-size="10.00">Iprog7SeriesCore</text>
</a>
</g>
</g>
<!-- Node5 -->
<g id="node5" class="node">
<title>Node5</title>
<g id="a_node5"><a xlink:href="classIprog7Series.html" target="_top" xlink:title=" ">
<polygon fill="white" stroke="black" points="133,-168.5 133,-187.5 210,-187.5 210,-168.5 133,-168.5"/>
<text text-anchor="middle" x="171.5" y="-175.5" font-family="Helvetica,sans-Serif" font-size="10.00">Iprog7Series</text>
</a>
</g>
</g>
<!-- Node1&#45;&gt;Node5 -->
<g id="edge4" class="edge">
<title>Node1&#45;&gt;Node5</title>
<path fill="none" stroke="midnightblue" d="M204.77,-216.43C196.36,-206.97 186.15,-195.48 179.28,-187.75"/>
<polygon fill="midnightblue" stroke="midnightblue" points="202.31,-218.93 211.57,-224.08 207.55,-214.28 202.31,-218.93"/>
</g>
<!-- Node11 -->
<g id="node11" class="node">
<title>Node11</title>
<g id="a_node11"><a xlink:href="classSemWrapper.html" target="_top" xlink:title=" ">
<polygon fill="white" stroke="black" points="228.5,-168.5 228.5,-187.5 308.5,-187.5 308.5,-168.5 228.5,-168.5"/>
<text text-anchor="middle" x="268.5" y="-175.5" font-family="Helvetica,sans-Serif" font-size="10.00">SemWrapper</text>
</a>
</g>
</g>
<!-- Node1&#45;&gt;Node11 -->
<g id="edge10" class="edge">
<title>Node1&#45;&gt;Node11</title>
<path fill="none" stroke="midnightblue" d="M234.53,-216.43C243.12,-206.97 253.54,-195.48 260.56,-187.75"/>
<polygon fill="midnightblue" stroke="midnightblue" points="231.72,-214.33 227.59,-224.08 236.9,-219.03 231.72,-214.33"/>
</g>
<!-- Node2 -->
<g id="node2" class="node">
<title>Node2</title>
<g id="a_node2"><a xlink:href="classSynchronizerVector.html" target="_top" xlink:title=" ">
<polygon fill="white" stroke="black" points="102.5,-280.5 102.5,-299.5 212.5,-299.5 212.5,-280.5 102.5,-280.5"/>
<text text-anchor="middle" x="157.5" y="-287.5" font-family="Helvetica,sans-Serif" font-size="10.00">SynchronizerVector</text>
</a>
</g>
</g>
<!-- Node2&#45;&gt;Node1 -->
<g id="edge1" class="edge">
<title>Node2&#45;&gt;Node1</title>
<path fill="none" stroke="midnightblue" d="M175.25,-273.54C186.31,-263.91 200.13,-251.87 209.36,-243.83"/>
<polygon fill="midnightblue" stroke="midnightblue" points="172.7,-271.12 167.46,-280.32 177.3,-276.4 172.7,-271.12"/>
</g>
<!-- Node3 -->
<g id="node3" class="node">
<title>Node3</title>
<g id="a_node3"><a xlink:href="classSynchronizerEdge.html" target="_top" xlink:title=" ">
<polygon fill="white" stroke="black" points="230.5,-280.5 230.5,-299.5 334.5,-299.5 334.5,-280.5 230.5,-280.5"/>
<text text-anchor="middle" x="282.5" y="-287.5" font-family="Helvetica,sans-Serif" font-size="10.00">SynchronizerEdge</text>
</a>
</g>
</g>
<!-- Node3&#45;&gt;Node1 -->
<g id="edge2" class="edge">
<title>Node3&#45;&gt;Node1</title>
<path fill="none" stroke="midnightblue" d="M264.46,-273.54C253.23,-263.91 239.18,-251.87 229.81,-243.83"/>
<polygon fill="midnightblue" stroke="midnightblue" points="262.51,-276.47 272.38,-280.32 267.06,-271.16 262.51,-276.47"/>
</g>
<!-- Node4 -->
<g id="node4" class="node">
<title>Node4</title>
<g id="a_node4"><a xlink:href="classSynchronizer.html" target="_top" xlink:title=" ">
<polygon fill="white" stroke="black" points="242.5,-336.5 242.5,-355.5 322.5,-355.5 322.5,-336.5 242.5,-336.5"/>
<text text-anchor="middle" x="282.5" y="-343.5" font-family="Helvetica,sans-Serif" font-size="10.00">Synchronizer</text>
</a>
</g>
</g>
<!-- Node4&#45;&gt;Node3 -->
<g id="edge3" class="edge">
<title>Node4&#45;&gt;Node3</title>
<path fill="none" stroke="midnightblue" d="M282.5,-325.8C282.5,-316.91 282.5,-306.78 282.5,-299.75"/>
<polygon fill="midnightblue" stroke="midnightblue" points="279,-326.08 282.5,-336.08 286,-326.08 279,-326.08"/>
</g>
<!-- Node6 -->
<g id="node6" class="node">
<title>Node6</title>
<g id="a_node6"><a xlink:href="classIprog.html" target="_top" xlink:title=" ">
<polygon fill="white" stroke="black" points="151,-112.5 151,-131.5 192,-131.5 192,-112.5 151,-112.5"/>
<text text-anchor="middle" x="171.5" y="-119.5" font-family="Helvetica,sans-Serif" font-size="10.00">Iprog</text>
</a>
</g>
</g>
<!-- Node5&#45;&gt;Node6 -->
<g id="edge5" class="edge">
<title>Node5&#45;&gt;Node6</title>
<path fill="none" stroke="midnightblue" d="M171.5,-157.8C171.5,-148.91 171.5,-138.78 171.5,-131.75"/>
<polygon fill="midnightblue" stroke="midnightblue" points="168,-158.08 171.5,-168.08 175,-158.08 168,-158.08"/>
</g>
<!-- Node7 -->
<g id="node7" class="node">
<title>Node7</title>
<g id="a_node7"><a xlink:href="classAxiVersion.html" target="_top" xlink:title=" ">
<polygon fill="white" stroke="black" points="85.5,-56.5 85.5,-75.5 153.5,-75.5 153.5,-56.5 85.5,-56.5"/>
<text text-anchor="middle" x="119.5" y="-63.5" font-family="Helvetica,sans-Serif" font-size="10.00">AxiVersion</text>
</a>
</g>
</g>
<!-- Node6&#45;&gt;Node7 -->
<g id="edge6" class="edge">
<title>Node6&#45;&gt;Node7</title>
<path fill="none" stroke="midnightblue" d="M155.82,-104.72C146.66,-95.2 135.45,-83.56 127.93,-75.75"/>
<polygon fill="midnightblue" stroke="midnightblue" points="153.46,-107.31 162.91,-112.08 158.5,-102.45 153.46,-107.31"/>
</g>
<!-- Node10 -->
<g id="node10" class="node">
<title>Node10</title>
<g id="a_node10"><a xlink:href="classAxiVersionLegacy.html" target="_top" xlink:title=" ">
<polygon fill="white" stroke="black" points="172,-56.5 172,-75.5 275,-75.5 275,-56.5 172,-56.5"/>
<text text-anchor="middle" x="223.5" y="-63.5" font-family="Helvetica,sans-Serif" font-size="10.00">AxiVersionLegacy</text>
</a>
</g>
</g>
<!-- Node6&#45;&gt;Node10 -->
<g id="edge9" class="edge">
<title>Node6&#45;&gt;Node10</title>
<path fill="none" stroke="midnightblue" d="M187.18,-104.72C196.34,-95.2 207.55,-83.56 215.07,-75.75"/>
<polygon fill="midnightblue" stroke="midnightblue" points="184.5,-102.45 180.09,-112.08 189.54,-107.31 184.5,-102.45"/>
</g>
<!-- Node8 -->
<g id="node8" class="node">
<title>Node8</title>
<g id="a_node8"><a xlink:href="classAxiLiteIpBusBridgeTb.html" target="_top" xlink:title=" ">
<polygon fill="white" stroke="black" points="0,-0.5 0,-19.5 121,-19.5 121,-0.5 0,-0.5"/>
<text text-anchor="middle" x="60.5" y="-7.5" font-family="Helvetica,sans-Serif" font-size="10.00">AxiLiteIpBusBridgeTb</text>
</a>
</g>
</g>
<!-- Node7&#45;&gt;Node8 -->
<g id="edge7" class="edge">
<title>Node7&#45;&gt;Node8</title>
<path fill="none" stroke="midnightblue" d="M102.61,-49.54C92.09,-39.91 78.93,-27.87 70.15,-19.83"/>
<polygon fill="midnightblue" stroke="midnightblue" points="100.28,-52.15 110.02,-56.32 105.01,-46.99 100.28,-52.15"/>
</g>
<!-- Node9 -->
<g id="node9" class="node">
<title>Node9</title>
<g id="a_node9"><a xlink:href="classAxiVersionTb.html" target="_top" xlink:title=" ">
<polygon fill="white" stroke="black" points="139.5,-0.5 139.5,-19.5 219.5,-19.5 219.5,-0.5 139.5,-0.5"/>
<text text-anchor="middle" x="179.5" y="-7.5" font-family="Helvetica,sans-Serif" font-size="10.00">AxiVersionTb</text>
</a>
</g>
</g>
<!-- Node7&#45;&gt;Node9 -->
<g id="edge8" class="edge">
<title>Node7&#45;&gt;Node9</title>
<path fill="none" stroke="midnightblue" d="M136.68,-49.54C147.38,-39.91 160.76,-27.87 169.68,-19.83"/>
<polygon fill="midnightblue" stroke="midnightblue" points="134.23,-47.03 129.14,-56.32 138.91,-52.24 134.23,-47.03"/>
</g>
<!-- Node12 -->
<g id="node12" class="node">
<title>Node12</title>
<g id="a_node12"><a xlink:href="classSsiSem.html" target="_top" xlink:title=" ">
<polygon fill="white" stroke="black" points="226,-112.5 226,-131.5 279,-131.5 279,-112.5 226,-112.5"/>
<text text-anchor="middle" x="252.5" y="-119.5" font-family="Helvetica,sans-Serif" font-size="10.00">SsiSem</text>
</a>
</g>
</g>
<!-- Node11&#45;&gt;Node12 -->
<g id="edge11" class="edge">
<title>Node11&#45;&gt;Node12</title>
<path fill="none" stroke="midnightblue" d="M262.99,-158.4C260.31,-149.36 257.22,-138.94 255.09,-131.75"/>
<polygon fill="midnightblue" stroke="midnightblue" points="259.66,-159.49 265.86,-168.08 266.37,-157.5 259.66,-159.49"/>
</g>
<!-- Node13 -->
<g id="node13" class="node">
<title>Node13</title>
<g id="a_node13"><a xlink:href="classUartSem.html" target="_top" xlink:title=" ">
<polygon fill="white" stroke="black" points="297,-112.5 297,-131.5 356,-131.5 356,-112.5 297,-112.5"/>
<text text-anchor="middle" x="326.5" y="-119.5" font-family="Helvetica,sans-Serif" font-size="10.00">UartSem</text>
</a>
</g>
</g>
<!-- Node11&#45;&gt;Node13 -->
<g id="edge12" class="edge">
<title>Node11&#45;&gt;Node13</title>
<path fill="none" stroke="midnightblue" d="M285.41,-161.25C295.7,-151.67 308.47,-139.79 317.01,-131.83"/>
<polygon fill="midnightblue" stroke="midnightblue" points="282.75,-158.95 277.82,-168.32 287.52,-164.07 282.75,-158.95"/>
</g>
</g>
</svg>
