<?xml version="1.0" encoding="UTF-8" standalone="no"?>
<!DOCTYPE svg PUBLIC "-//W3C//DTD SVG 1.1//EN"
 "http://www.w3.org/Graphics/SVG/1.1/DTD/svg11.dtd">
<!-- Generated by graphviz version 2.43.0 (0)
 -->
<!-- Title: RawEthFramer Pages: 1 -->
<svg width="256pt" height="196pt"
 viewBox="0.00 0.00 255.50 196.00" xmlns="http://www.w3.org/2000/svg" xmlns:xlink="http://www.w3.org/1999/xlink">
<g id="graph0" class="graph" transform="scale(1 1) rotate(0) translate(4 192)">
<title>RawEthFramer</title>
<polygon fill="white" stroke="transparent" points="-4,4 -4,-192 251.5,-192 251.5,4 -4,4"/>
<!-- Node1 -->
<g id="node1" class="node">
<title>Node1</title>
<g id="a_node1"><a xlink:title=" ">
<polygon fill="#bfbfbf" stroke="black" points="72,-56.5 72,-75.5 160,-75.5 160,-56.5 72,-56.5"/>
<text text-anchor="middle" x="116" y="-63.5" font-family="Helvetica,sans-Serif" font-size="10.00">RawEthFramer</text>
</a>
</g>
</g>
<!-- Node5 -->
<g id="node5" class="node">
<title>Node5</title>
<g id="a_node5"><a xlink:href="classRawEthFramerTb.html" target="_top" xlink:title=" ">
<polygon fill="white" stroke="black" points="0,-0.5 0,-19.5 100,-19.5 100,-0.5 0,-0.5"/>
<text text-anchor="middle" x="50" y="-7.5" font-family="Helvetica,sans-Serif" font-size="10.00">RawEthFramerTb</text>
</a>
</g>
</g>
<!-- Node1&#45;&gt;Node5 -->
<g id="edge4" class="edge">
<title>Node1&#45;&gt;Node5</title>
<path fill="none" stroke="midnightblue" d="M97.45,-49.82C85.62,-40.15 70.71,-27.95 60.8,-19.83"/>
<polygon fill="midnightblue" stroke="midnightblue" points="95.44,-52.7 105.4,-56.32 99.87,-47.28 95.44,-52.7"/>
</g>
<!-- Node6 -->
<g id="node6" class="node">
<title>Node6</title>
<g id="a_node6"><a xlink:href="classRawEthFramerWrapper.html" target="_top" xlink:title=" ">
<polygon fill="white" stroke="black" points="118.5,-0.5 118.5,-19.5 247.5,-19.5 247.5,-0.5 118.5,-0.5"/>
<text text-anchor="middle" x="183" y="-7.5" font-family="Helvetica,sans-Serif" font-size="10.00">RawEthFramerWrapper</text>
</a>
</g>
</g>
<!-- Node1&#45;&gt;Node6 -->
<g id="edge5" class="edge">
<title>Node1&#45;&gt;Node6</title>
<path fill="none" stroke="midnightblue" d="M134.83,-49.82C146.84,-40.15 161.97,-27.95 172.04,-19.83"/>
<polygon fill="midnightblue" stroke="midnightblue" points="132.35,-47.32 126.76,-56.32 136.75,-52.77 132.35,-47.32"/>
</g>
<!-- Node2 -->
<g id="node2" class="node">
<title>Node2</title>
<g id="a_node2"><a xlink:href="classRawEthFramerTx.html" target="_top" xlink:title=" ">
<polygon fill="white" stroke="black" points="7,-112.5 7,-131.5 107,-131.5 107,-112.5 7,-112.5"/>
<text text-anchor="middle" x="57" y="-119.5" font-family="Helvetica,sans-Serif" font-size="10.00">RawEthFramerTx</text>
</a>
</g>
</g>
<!-- Node2&#45;&gt;Node1 -->
<g id="edge1" class="edge">
<title>Node2&#45;&gt;Node1</title>
<path fill="none" stroke="midnightblue" d="M73.89,-105.54C84.41,-95.91 97.57,-83.87 106.35,-75.83"/>
<polygon fill="midnightblue" stroke="midnightblue" points="71.49,-102.99 66.48,-112.32 76.22,-108.15 71.49,-102.99"/>
</g>
<!-- Node3 -->
<g id="node3" class="node">
<title>Node3</title>
<g id="a_node3"><a xlink:href="classQuadPortRam.html" target="_top" xlink:title=" ">
<polygon fill="white" stroke="black" points="15,-168.5 15,-187.5 99,-187.5 99,-168.5 15,-168.5"/>
<text text-anchor="middle" x="57" y="-175.5" font-family="Helvetica,sans-Serif" font-size="10.00">QuadPortRam</text>
</a>
</g>
</g>
<!-- Node3&#45;&gt;Node2 -->
<g id="edge2" class="edge">
<title>Node3&#45;&gt;Node2</title>
<path fill="none" stroke="midnightblue" d="M57,-157.8C57,-148.91 57,-138.78 57,-131.75"/>
<polygon fill="midnightblue" stroke="midnightblue" points="53.5,-158.08 57,-168.08 60.5,-158.08 53.5,-158.08"/>
</g>
<!-- Node4 -->
<g id="node4" class="node">
<title>Node4</title>
<g id="a_node4"><a xlink:href="classRawEthFramerRx.html" target="_top" xlink:title=" ">
<polygon fill="white" stroke="black" points="125.5,-112.5 125.5,-131.5 226.5,-131.5 226.5,-112.5 125.5,-112.5"/>
<text text-anchor="middle" x="176" y="-119.5" font-family="Helvetica,sans-Serif" font-size="10.00">RawEthFramerRx</text>
</a>
</g>
</g>
<!-- Node4&#45;&gt;Node1 -->
<g id="edge3" class="edge">
<title>Node4&#45;&gt;Node1</title>
<path fill="none" stroke="midnightblue" d="M158.82,-105.54C148.12,-95.91 134.74,-83.87 125.82,-75.83"/>
<polygon fill="midnightblue" stroke="midnightblue" points="156.59,-108.24 166.36,-112.32 161.27,-103.03 156.59,-108.24"/>
</g>
</g>
</svg>
