<?xml version="1.0" encoding="UTF-8" standalone="no"?>
<!DOCTYPE svg PUBLIC "-//W3C//DTD SVG 1.1//EN"
 "http://www.w3.org/Graphics/SVG/1.1/DTD/svg11.dtd">
<!-- Generated by graphviz version 2.40.1 (20161225.0304)
 -->
<!-- Title: SrpV0AxiLite Pages: 1 -->
<!--zoomable 329 -->
<svg id="main" version="1.1" xmlns="http://www.w3.org/2000/svg" xmlns:xlink="http://www.w3.org/1999/xlink" xml:space="preserve" onload="init(evt)">
<style type="text/css"><![CDATA[
.edge:hover path { stroke: red; }
.edge:hover polygon { stroke: red; fill: red; }
]]></style>
<script type="text/javascript"><![CDATA[
var edges = document.getElementsByTagName('g');
if (edges && edges.length) {
  for (var i=0;i<edges.length;i++) {
    if (edges[i].id.substr(0,4)=='edge') {
      edges[i].setAttribute('class','edge');
    }
  }
}
]]></script>
        <defs>
                <circle id="rim" cx="0" cy="0" r="7"/>
                <circle id="rim2" cx="0" cy="0" r="3.5"/>
                <g id="zoomPlus">
                        <use xlink:href="#rim" fill="#404040">
                                <set attributeName="fill" to="#808080" begin="zoomplus.mouseover" end="zoomplus.mouseout"/>
                        </use>
                        <path d="M-4,0h8M0,-4v8" fill="none" stroke="white" stroke-width="1.5" pointer-events="none"/>
                </g>
                <g id="zoomMin">
                        <use xlink:href="#rim" fill="#404040">
                                <set attributeName="fill" to="#808080" begin="zoomminus.mouseover" end="zoomminus.mouseout"/>
                        </use>
                        <path d="M-4,0h8" fill="none" stroke="white" stroke-width="1.5" pointer-events="none"/>
                </g>
                <g id="dirArrow">
                        <path fill="none" stroke="white" stroke-width="1.5" d="M0,-3.0v7 M-2.5,-0.5L0,-3.0L2.5,-0.5"/>
                </g>
               <g id="resetDef">
                       <use xlink:href="#rim2" fill="#404040">
                               <set attributeName="fill" to="#808080" begin="reset.mouseover" end="reset.mouseout"/>
                       </use>
               </g>
        </defs>

<script type="text/javascript">
var viewWidth = 1124;
var viewHeight = 329;
var sectionId = 'dynsection-0';
</script>
<script xlink:href="svgpan.js"/>
<svg id="graph" class="graph">
<g id="viewport">
<title>SrpV0AxiLite</title>
<polygon fill="#ffffff" stroke="transparent" points="-4,4 -4,-324.6328 1120,-324.6328 1120,4 -4,4"/>
<!-- Node0 -->
<g id="node1" class="node">
<title>Node0</title>
<polygon fill="#bfbfbf" stroke="#000000" points="910,-110.8611 910,-129.8611 989,-129.8611 989,-110.8611 910,-110.8611"/>
<text text-anchor="middle" x="949.5" y="-117.8611" font-family="Helvetica,sans-Serif" font-size="10.00" fill="#000000">SrpV0AxiLite</text>
</g>
<!-- Node22 -->
<g id="node23" class="node">
<title>Node22</title>
<g id="a_node23"><a xlink:href="classAxiLiteSrpV0Tb.html" target="_top" xlink:title="AxiLiteSrpV0Tb">
<polygon fill="#ffffff" stroke="#000000" points="1025,-110.8611 1025,-129.8611 1116,-129.8611 1116,-110.8611 1025,-110.8611"/>
<text text-anchor="middle" x="1070.5" y="-117.8611" font-family="Helvetica,sans-Serif" font-size="10.00" fill="#000000">AxiLiteSrpV0Tb</text>
</a>
</g>
</g>
<!-- Node0&#45;&gt;Node22 -->
<g id="edge35" class="edge">
<title>Node0&#45;&gt;Node22</title>
<path fill="none" stroke="#191970" d="M999.2795,-120.3611C1007.765,-120.3611 1016.5412,-120.3611 1024.9113,-120.3611"/>
<polygon fill="#191970" stroke="#191970" points="999.12,-116.8612 989.1199,-120.3611 999.1199,-123.8612 999.12,-116.8612"/>
</g>
<!-- Node1 -->
<g id="node2" class="node">
<title>Node1</title>
<g id="a_node2"><a xlink:href="classSsiFifo.html" target="_top" xlink:title="SsiFifo">
<polygon fill="#ffffff" stroke="#000000" points="826,-91.8611 826,-110.8611 874,-110.8611 874,-91.8611 826,-91.8611"/>
<text text-anchor="middle" x="850" y="-98.8611" font-family="Helvetica,sans-Serif" font-size="10.00" fill="#000000">SsiFifo</text>
</a>
</g>
</g>
<!-- Node1&#45;&gt;Node0 -->
<g id="edge1" class="edge">
<title>Node1&#45;&gt;Node0</title>
<path fill="none" stroke="#191970" d="M884.1118,-107.8749C892.3581,-109.4496 901.2425,-111.1461 909.7236,-112.7656"/>
<polygon fill="#191970" stroke="#191970" points="884.5652,-104.3984 874.0862,-105.9605 883.2522,-111.2741 884.5652,-104.3984"/>
</g>
<!-- Node2 -->
<g id="node3" class="node">
<title>Node2</title>
<g id="a_node3"><a xlink:href="classSsiIbFrameFilter.html" target="_top" xlink:title="SsiIbFrameFilter">
<polygon fill="#ffffff" stroke="#000000" points="687.5,-34.8611 687.5,-53.8611 781.5,-53.8611 781.5,-34.8611 687.5,-34.8611"/>
<text text-anchor="middle" x="734.5" y="-41.8611" font-family="Helvetica,sans-Serif" font-size="10.00" fill="#000000">SsiIbFrameFilter</text>
</a>
</g>
</g>
<!-- Node2&#45;&gt;Node1 -->
<g id="edge2" class="edge">
<title>Node2&#45;&gt;Node1</title>
<path fill="none" stroke="#191970" d="M767.2096,-57.8941C774.7569,-61.1851 782.7085,-64.7894 790,-68.3611 805.0534,-75.7351 821.7261,-84.997 833.6678,-91.8303"/>
<polygon fill="#191970" stroke="#191970" points="768.5159,-54.6461 757.9461,-53.9189 765.7555,-61.0788 768.5159,-54.6461"/>
</g>
<!-- Node3 -->
<g id="node4" class="node">
<title>Node3</title>
<g id="a_node4"><a xlink:href="classAxiStreamFifoV2.html" target="_top" xlink:title="AxiStreamFifoV2(2)">
<polygon fill="#ffffff" stroke="#000000" points="679,-110.8611 679,-129.8611 790,-129.8611 790,-110.8611 679,-110.8611"/>
<text text-anchor="middle" x="734.5" y="-117.8611" font-family="Helvetica,sans-Serif" font-size="10.00" fill="#000000">AxiStreamFifoV2(2)</text>
</a>
</g>
</g>
<!-- Node3&#45;&gt;Node1 -->
<g id="edge3" class="edge">
<title>Node3&#45;&gt;Node1</title>
<path fill="none" stroke="#191970" d="M800.2238,-109.5494C809.3854,-108.0423 818.274,-106.5801 825.9434,-105.3185"/>
<polygon fill="#191970" stroke="#191970" points="799.5193,-106.1182 790.2201,-111.1951 800.6556,-113.0254 799.5193,-106.1182"/>
</g>
<!-- Node4 -->
<g id="node5" class="node">
<title>Node4</title>
<g id="a_node5"><a xlink:href="classAxiStreamResize.html" target="_top" xlink:title="AxiStreamResize(2)">
<polygon fill="#ffffff" stroke="#000000" points="530,-129.8611 530,-148.8611 643,-148.8611 643,-129.8611 530,-129.8611"/>
<text text-anchor="middle" x="586.5" y="-136.8611" font-family="Helvetica,sans-Serif" font-size="10.00" fill="#000000">AxiStreamResize(2)</text>
</a>
</g>
</g>
<!-- Node4&#45;&gt;Node3 -->
<g id="edge4" class="edge">
<title>Node4&#45;&gt;Node3</title>
<path fill="none" stroke="#191970" d="M653.455,-130.7656C661.8563,-129.687 670.3798,-128.5928 678.5871,-127.5391"/>
<polygon fill="#191970" stroke="#191970" points="652.7703,-127.3246 643.2974,-132.0696 653.6617,-134.2677 652.7703,-127.3246"/>
</g>
<!-- Node21 -->
<g id="node22" class="node">
<title>Node21</title>
<g id="a_node22"><a xlink:href="classAxiStreamFifoV2.html" target="_top" xlink:title="AxiStreamFifoV2">
<polygon fill="#ffffff" stroke="#000000" points="685.5,-167.8611 685.5,-186.8611 783.5,-186.8611 783.5,-167.8611 685.5,-167.8611"/>
<text text-anchor="middle" x="734.5" y="-174.8611" font-family="Helvetica,sans-Serif" font-size="10.00" fill="#000000">AxiStreamFifoV2</text>
</a>
</g>
</g>
<!-- Node4&#45;&gt;Node21 -->
<g id="edge31" class="edge">
<title>Node4&#45;&gt;Node21</title>
<path fill="none" stroke="#191970" d="M633.6735,-151.4732C654.2856,-156.7655 678.1093,-162.8824 697.4219,-167.8411"/>
<polygon fill="#191970" stroke="#191970" points="634.4029,-148.0471 623.8466,-148.9501 632.662,-154.8272 634.4029,-148.0471"/>
</g>
<!-- Node5 -->
<g id="node6" class="node">
<title>Node5</title>
<g id="a_node6"><a xlink:href="classAxiStreamPipeline.html" target="_top" xlink:title="AxiStreamPipeline">
<polygon fill="#ffffff" stroke="#000000" points="387,-110.8611 387,-129.8611 494,-129.8611 494,-110.8611 387,-110.8611"/>
<text text-anchor="middle" x="440.5" y="-117.8611" font-family="Helvetica,sans-Serif" font-size="10.00" fill="#000000">AxiStreamPipeline</text>
</a>
</g>
</g>
<!-- Node5&#45;&gt;Node3 -->
<g id="edge27" class="edge">
<title>Node5&#45;&gt;Node3</title>
<path fill="none" stroke="#191970" d="M504.1986,-120.3611C556.2312,-120.3611 629.049,-120.3611 678.7876,-120.3611"/>
<polygon fill="#191970" stroke="#191970" points="504.0823,-116.8612 494.0823,-120.3611 504.0822,-123.8612 504.0823,-116.8612"/>
</g>
<!-- Node5&#45;&gt;Node4 -->
<g id="edge5" class="edge">
<title>Node5&#45;&gt;Node4</title>
<path fill="none" stroke="#191970" d="M504.2027,-128.6512C512.6312,-129.7481 521.2279,-130.8668 529.5332,-131.9476"/>
<polygon fill="#191970" stroke="#191970" points="504.4041,-125.148 494.036,-127.3281 503.5007,-132.0895 504.4041,-125.148"/>
</g>
<!-- Node20 -->
<g id="node21" class="node">
<title>Node20</title>
<g id="a_node21"><a xlink:href="classSsiObFrameFilter.html" target="_top" xlink:title="SsiObFrameFilter">
<polygon fill="#ffffff" stroke="#000000" points="537.5,-53.8611 537.5,-72.8611 635.5,-72.8611 635.5,-53.8611 537.5,-53.8611"/>
<text text-anchor="middle" x="586.5" y="-60.8611" font-family="Helvetica,sans-Serif" font-size="10.00" fill="#000000">SsiObFrameFilter</text>
</a>
</g>
</g>
<!-- Node5&#45;&gt;Node20 -->
<g id="edge29" class="edge">
<title>Node5&#45;&gt;Node20</title>
<path fill="none" stroke="#191970" d="M474.3181,-107.1582C501.1258,-96.6921 537.9518,-82.3149 561.9832,-72.9328"/>
<polygon fill="#191970" stroke="#191970" points="472.9795,-103.9234 464.9371,-110.8206 475.5253,-110.4441 472.9795,-103.9234"/>
</g>
<!-- Node5&#45;&gt;Node21 -->
<g id="edge34" class="edge">
<title>Node5&#45;&gt;Node21</title>
<path fill="none" stroke="#191970" d="M467.4304,-134.3866C484.8141,-142.7807 508.1793,-152.8572 530,-158.3611 582.0332,-171.4856 643.565,-175.7453 685.4438,-177.0272"/>
<polygon fill="#191970" stroke="#191970" points="468.951,-131.234 458.436,-129.9359 465.8465,-137.5079 468.951,-131.234"/>
</g>
<!-- Node6 -->
<g id="node7" class="node">
<title>Node6</title>
<g id="a_node7"><a xlink:href="classFifoCascade.html" target="_top" xlink:title="FifoCascade(2)">
<polygon fill="#ffffff" stroke="#000000" points="542,-205.8611 542,-224.8611 631,-224.8611 631,-205.8611 542,-205.8611"/>
<text text-anchor="middle" x="586.5" y="-212.8611" font-family="Helvetica,sans-Serif" font-size="10.00" fill="#000000">FifoCascade(2)</text>
</a>
</g>
</g>
<!-- Node6&#45;&gt;Node3 -->
<g id="edge6" class="edge">
<title>Node6&#45;&gt;Node3</title>
<path fill="none" stroke="#191970" d="M610.2948,-200.0874C641.0561,-180.342 693.72,-146.5375 719.4548,-130.0185"/>
<polygon fill="#191970" stroke="#191970" points="608.0303,-197.3819 601.5055,-205.7292 611.8116,-203.2728 608.0303,-197.3819"/>
</g>
<!-- Node6&#45;&gt;Node21 -->
<g id="edge32" class="edge">
<title>Node6&#45;&gt;Node21</title>
<path fill="none" stroke="#191970" d="M633.6735,-203.249C654.2856,-197.9567 678.1093,-191.8398 697.4219,-186.8812"/>
<polygon fill="#191970" stroke="#191970" points="632.662,-199.8951 623.8466,-205.7721 634.4029,-206.6752 632.662,-199.8951"/>
</g>
<!-- Node7 -->
<g id="node8" class="node">
<title>Node7</title>
<g id="a_node8"><a xlink:href="classFifo.html" target="_top" xlink:title="Fifo(4)">
<polygon fill="#ffffff" stroke="#000000" points="417,-205.8611 417,-224.8611 464,-224.8611 464,-205.8611 417,-205.8611"/>
<text text-anchor="middle" x="440.5" y="-212.8611" font-family="Helvetica,sans-Serif" font-size="10.00" fill="#000000">Fifo(4)</text>
</a>
</g>
</g>
<!-- Node7&#45;&gt;Node6 -->
<g id="edge7" class="edge">
<title>Node7&#45;&gt;Node6</title>
<path fill="none" stroke="#191970" d="M474.4953,-215.3611C494.5374,-215.3611 520.1329,-215.3611 541.7955,-215.3611"/>
<polygon fill="#191970" stroke="#191970" points="474.2824,-211.8612 464.2824,-215.3611 474.2823,-218.8612 474.2824,-211.8612"/>
</g>
<!-- Node8 -->
<g id="node9" class="node">
<title>Node8</title>
<g id="a_node9"><a xlink:href="classFifoXpm.html" target="_top" xlink:title="FifoXpm">
<polygon fill="#ffffff" stroke="#000000" points="285.5,-224.8611 285.5,-243.8611 341.5,-243.8611 341.5,-224.8611 285.5,-224.8611"/>
<text text-anchor="middle" x="313.5" y="-231.8611" font-family="Helvetica,sans-Serif" font-size="10.00" fill="#000000">FifoXpm</text>
</a>
</g>
</g>
<!-- Node8&#45;&gt;Node7 -->
<g id="edge8" class="edge">
<title>Node8&#45;&gt;Node7</title>
<path fill="none" stroke="#191970" d="M351.644,-228.6545C372.7684,-225.4942 398.3723,-221.6637 416.6589,-218.9279"/>
<polygon fill="#191970" stroke="#191970" points="351.0575,-225.2033 341.6854,-230.1444 352.0932,-232.1262 351.0575,-225.2033"/>
</g>
<!-- Node9 -->
<g id="node10" class="node">
<title>Node9</title>
<g id="a_node10"><a xlink:href="classFifoOutputPipeline.html" target="_top" xlink:title="FifoOutputPipeline">
<polygon fill="#ffffff" stroke="#000000" points="125,-262.8611 125,-281.8611 231,-281.8611 231,-262.8611 125,-262.8611"/>
<text text-anchor="middle" x="178" y="-269.8611" font-family="Helvetica,sans-Serif" font-size="10.00" fill="#000000">FifoOutputPipeline</text>
</a>
</g>
</g>
<!-- Node9&#45;&gt;Node8 -->
<g id="edge9" class="edge">
<title>Node9&#45;&gt;Node8</title>
<path fill="none" stroke="#191970" d="M222.072,-260.0015C242.8353,-254.1785 266.9927,-247.4038 285.2597,-242.2809"/>
<polygon fill="#191970" stroke="#191970" points="220.8758,-256.7018 212.1924,-262.7721 222.766,-263.4418 220.8758,-256.7018"/>
</g>
<!-- Node10 -->
<g id="node11" class="node">
<title>Node10</title>
<g id="a_node11"><a xlink:href="classFifoAlteraMf.html" target="_top" xlink:title="FifoAlteraMf">
<polygon fill="#ffffff" stroke="#000000" points="276,-262.8611 276,-281.8611 351,-281.8611 351,-262.8611 276,-262.8611"/>
<text text-anchor="middle" x="313.5" y="-269.8611" font-family="Helvetica,sans-Serif" font-size="10.00" fill="#000000">FifoAlteraMf</text>
</a>
</g>
</g>
<!-- Node9&#45;&gt;Node10 -->
<g id="edge11" class="edge">
<title>Node9&#45;&gt;Node10</title>
<path fill="none" stroke="#191970" d="M241.4613,-272.3611C253.271,-272.3611 265.2552,-272.3611 275.9708,-272.3611"/>
<polygon fill="#191970" stroke="#191970" points="241.1643,-268.8612 231.1643,-272.3611 241.1643,-275.8612 241.1643,-268.8612"/>
</g>
<!-- Node11 -->
<g id="node12" class="node">
<title>Node11</title>
<g id="a_node12"><a xlink:href="classFifoAsync.html" target="_top" xlink:title="FifoAsync">
<polygon fill="#ffffff" stroke="#000000" points="282,-148.8611 282,-167.8611 345,-167.8611 345,-148.8611 282,-148.8611"/>
<text text-anchor="middle" x="313.5" y="-155.8611" font-family="Helvetica,sans-Serif" font-size="10.00" fill="#000000">FifoAsync</text>
</a>
</g>
</g>
<!-- Node9&#45;&gt;Node11 -->
<g id="edge20" class="edge">
<title>Node9&#45;&gt;Node11</title>
<path fill="none" stroke="#191970" d="M233.6666,-258.0366C235.8996,-256.6223 238.0253,-255.0684 240,-253.3611 268.2736,-228.9165 249.9252,-204.1388 276,-177.3611 279.666,-173.5963 284.2362,-170.4463 288.912,-167.863"/>
<polygon fill="#191970" stroke="#191970" points="231.8143,-255.0569 224.6135,-262.8285 235.0891,-261.2437 231.8143,-255.0569"/>
</g>
<!-- Node19 -->
<g id="node20" class="node">
<title>Node19</title>
<g id="a_node20"><a xlink:href="classFifoSync.html" target="_top" xlink:title="FifoSync">
<polygon fill="#ffffff" stroke="#000000" points="285,-186.8611 285,-205.8611 342,-205.8611 342,-186.8611 285,-186.8611"/>
<text text-anchor="middle" x="313.5" y="-193.8611" font-family="Helvetica,sans-Serif" font-size="10.00" fill="#000000">FifoSync</text>
</a>
</g>
</g>
<!-- Node9&#45;&gt;Node19 -->
<g id="edge25" class="edge">
<title>Node9&#45;&gt;Node19</title>
<path fill="none" stroke="#191970" d="M229.1786,-259.0489C232.9464,-257.3587 236.5986,-255.4695 240,-253.3611 259.7738,-241.1042 257.3493,-229.2675 276,-215.3611 280.6808,-211.871 286.0982,-208.7068 291.3347,-206.0056"/>
<polygon fill="#191970" stroke="#191970" points="227.6415,-255.8939 219.6519,-262.8521 230.2369,-262.395 227.6415,-255.8939"/>
</g>
<!-- Node10&#45;&gt;Node7 -->
<g id="edge10" class="edge">
<title>Node10&#45;&gt;Node7</title>
<path fill="none" stroke="#191970" d="M344.1524,-258.6038C367.3567,-248.1892 398.6364,-234.1503 419.1737,-224.9328"/>
<polygon fill="#191970" stroke="#191970" points="342.447,-255.5327 334.7569,-262.8206 345.3134,-261.919 342.447,-255.5327"/>
</g>
<!-- Node11&#45;&gt;Node7 -->
<g id="edge12" class="edge">
<title>Node11&#45;&gt;Node7</title>
<path fill="none" stroke="#191970" d="M344.1524,-172.1185C367.3567,-182.533 398.6364,-196.572 419.1737,-205.7895"/>
<polygon fill="#191970" stroke="#191970" points="345.3134,-168.8033 334.7569,-167.9017 342.447,-175.1895 345.3134,-168.8033"/>
</g>
<!-- Node12 -->
<g id="node13" class="node">
<title>Node12</title>
<g id="a_node13"><a xlink:href="classRstSync.html" target="_top" xlink:title="RstSync(2)">
<polygon fill="#ffffff" stroke="#000000" points="143.5,-110.8611 143.5,-129.8611 212.5,-129.8611 212.5,-110.8611 143.5,-110.8611"/>
<text text-anchor="middle" x="178" y="-117.8611" font-family="Helvetica,sans-Serif" font-size="10.00" fill="#000000">RstSync(2)</text>
</a>
</g>
</g>
<!-- Node12&#45;&gt;Node11 -->
<g id="edge13" class="edge">
<title>Node12&#45;&gt;Node11</title>
<path fill="none" stroke="#191970" d="M222.0405,-132.712C241.4689,-138.1605 263.8739,-144.4438 281.6457,-149.4278"/>
<polygon fill="#191970" stroke="#191970" points="222.766,-129.2805 212.1924,-129.9501 220.8758,-136.0204 222.766,-129.2805"/>
</g>
<!-- Node13 -->
<g id="node14" class="node">
<title>Node13</title>
<g id="a_node14"><a xlink:href="classSynchronizer.html" target="_top" xlink:title="Synchronizer">
<polygon fill="#ffffff" stroke="#000000" points="0,-110.8611 0,-129.8611 80,-129.8611 80,-110.8611 0,-110.8611"/>
<text text-anchor="middle" x="40" y="-117.8611" font-family="Helvetica,sans-Serif" font-size="10.00" fill="#000000">Synchronizer</text>
</a>
</g>
</g>
<!-- Node13&#45;&gt;Node3 -->
<g id="edge26" class="edge">
<title>Node13&#45;&gt;Node3</title>
<path fill="none" stroke="#191970" d="M49.1003,-101.5164C61.0405,-79.0922 84.265,-42.5328 116,-25.3611 193.5572,16.6047 225.317,-6.3611 313.5,-6.3611 313.5,-6.3611 313.5,-6.3611 440.5,-6.3611 532.0709,-6.3611 560.1242,-5.4146 643,-44.3611 678.1364,-60.8731 711.0128,-94.1204 725.9992,-110.618"/>
<polygon fill="#191970" stroke="#191970" points="45.8402,-100.2053 44.4183,-110.7043 52.0771,-103.3836 45.8402,-100.2053"/>
</g>
<!-- Node13&#45;&gt;Node12 -->
<g id="edge14" class="edge">
<title>Node13&#45;&gt;Node12</title>
<path fill="none" stroke="#191970" d="M90.3506,-120.3611C107.8473,-120.3611 127.0737,-120.3611 143.05,-120.3611"/>
<polygon fill="#191970" stroke="#191970" points="90.2863,-116.8612 80.2863,-120.3611 90.2863,-123.8612 90.2863,-116.8612"/>
</g>
<!-- Node13&#45;&gt;Node21 -->
<g id="edge33" class="edge">
<title>Node13&#45;&gt;Node21</title>
<path fill="none" stroke="#191970" d="M42.3743,-140.1725C47.9211,-176.8433 65.3546,-254.8798 116,-291.3611 187.5524,-342.9024 225.317,-310.3611 313.5,-310.3611 313.5,-310.3611 313.5,-310.3611 440.5,-310.3611 560.3861,-310.3611 685.2823,-217.4219 723.037,-186.9262"/>
<polygon fill="#191970" stroke="#191970" points="45.8348,-139.6446 41.0109,-130.2117 38.8995,-140.594 45.8348,-139.6446"/>
</g>
<!-- Node14 -->
<g id="node15" class="node">
<title>Node14</title>
<g id="a_node15"><a xlink:href="classSynchronizerVector.html" target="_top" xlink:title="SynchronizerVector(2)">
<polygon fill="#ffffff" stroke="#000000" points="116,-72.8611 116,-91.8611 240,-91.8611 240,-72.8611 116,-72.8611"/>
<text text-anchor="middle" x="178" y="-79.8611" font-family="Helvetica,sans-Serif" font-size="10.00" fill="#000000">SynchronizerVector(2)</text>
</a>
</g>
</g>
<!-- Node14&#45;&gt;Node11 -->
<g id="edge15" class="edge">
<title>Node14&#45;&gt;Node11</title>
<path fill="none" stroke="#191970" d="M226.497,-95.3355C231.1534,-97.1394 235.7277,-99.1451 240,-101.3611 264.9417,-114.2985 289.9335,-135.9817 303.3848,-148.5451"/>
<polygon fill="#191970" stroke="#191970" points="227.489,-91.9734 216.8944,-91.9135 225.1392,-98.5673 227.489,-91.9734"/>
</g>
<!-- Node15 -->
<g id="node16" class="node">
<title>Node15</title>
<g id="a_node16"><a xlink:href="classSynchronizer.html" target="_top" xlink:title="Synchronizer(2)">
<polygon fill="#ffffff" stroke="#000000" points="131.5,-34.8611 131.5,-53.8611 224.5,-53.8611 224.5,-34.8611 131.5,-34.8611"/>
<text text-anchor="middle" x="178" y="-41.8611" font-family="Helvetica,sans-Serif" font-size="10.00" fill="#000000">Synchronizer(2)</text>
</a>
</g>
</g>
<!-- Node15&#45;&gt;Node11 -->
<g id="edge16" class="edge">
<title>Node15&#45;&gt;Node11</title>
<path fill="none" stroke="#191970" d="M230.8592,-58.0035C234.0569,-59.6013 237.135,-61.3806 240,-63.3611 273.4495,-86.4835 298.5866,-129.5008 308.6668,-148.6885"/>
<polygon fill="#191970" stroke="#191970" points="232.173,-54.7581 221.6079,-53.9648 229.3723,-61.1735 232.173,-54.7581"/>
</g>
<!-- Node16 -->
<g id="node17" class="node">
<title>Node16</title>
<g id="a_node17"><a xlink:href="classFifoWrFsm.html" target="_top" xlink:title="FifoWrFsm">
<polygon fill="#ffffff" stroke="#000000" points="144.5,-148.8611 144.5,-167.8611 211.5,-167.8611 211.5,-148.8611 144.5,-148.8611"/>
<text text-anchor="middle" x="178" y="-155.8611" font-family="Helvetica,sans-Serif" font-size="10.00" fill="#000000">FifoWrFsm</text>
</a>
</g>
</g>
<!-- Node16&#45;&gt;Node11 -->
<g id="edge17" class="edge">
<title>Node16&#45;&gt;Node11</title>
<path fill="none" stroke="#191970" d="M222.0405,-158.3611C241.5786,-158.3611 264.1271,-158.3611 281.9463,-158.3611"/>
<polygon fill="#191970" stroke="#191970" points="221.8429,-154.8612 211.8428,-158.3611 221.8428,-161.8612 221.8429,-154.8612"/>
</g>
<!-- Node16&#45;&gt;Node19 -->
<g id="edge22" class="edge">
<title>Node16&#45;&gt;Node19</title>
<path fill="none" stroke="#191970" d="M221.6565,-170.6043C242.29,-176.3908 266.3516,-183.1387 284.6694,-188.2758"/>
<polygon fill="#191970" stroke="#191970" points="222.4165,-167.1825 211.8428,-167.8521 220.5263,-173.9224 222.4165,-167.1825"/>
</g>
<!-- Node17 -->
<g id="node18" class="node">
<title>Node17</title>
<g id="a_node18"><a xlink:href="classFifoRdFsm.html" target="_top" xlink:title="FifoRdFsm">
<polygon fill="#ffffff" stroke="#000000" points="144.5,-224.8611 144.5,-243.8611 211.5,-243.8611 211.5,-224.8611 144.5,-224.8611"/>
<text text-anchor="middle" x="178" y="-231.8611" font-family="Helvetica,sans-Serif" font-size="10.00" fill="#000000">FifoRdFsm</text>
</a>
</g>
</g>
<!-- Node17&#45;&gt;Node11 -->
<g id="edge18" class="edge">
<title>Node17&#45;&gt;Node11</title>
<path fill="none" stroke="#191970" d="M221.13,-224.3176C227.702,-221.9 234.2139,-218.9477 240,-215.3611 259.7738,-203.1042 257.3493,-191.2675 276,-177.3611 280.6808,-173.871 286.0982,-170.7068 291.3347,-168.0056"/>
<polygon fill="#191970" stroke="#191970" points="219.9324,-221.0271 211.5359,-227.4886 222.1292,-227.6735 219.9324,-221.0271"/>
</g>
<!-- Node17&#45;&gt;Node19 -->
<g id="edge23" class="edge">
<title>Node17&#45;&gt;Node19</title>
<path fill="none" stroke="#191970" d="M221.6565,-222.118C242.29,-216.3315 266.3516,-209.5836 284.6694,-204.4465"/>
<polygon fill="#191970" stroke="#191970" points="220.5263,-218.7998 211.8428,-224.8702 222.4165,-225.5398 220.5263,-218.7998"/>
</g>
<!-- Node18 -->
<g id="node19" class="node">
<title>Node18</title>
<g id="a_node19"><a xlink:href="classSimpleDualPortRam.html" target="_top" xlink:title="SimpleDualPortRam">
<polygon fill="#ffffff" stroke="#000000" points="120.5,-186.8611 120.5,-205.8611 235.5,-205.8611 235.5,-186.8611 120.5,-186.8611"/>
<text text-anchor="middle" x="178" y="-193.8611" font-family="Helvetica,sans-Serif" font-size="10.00" fill="#000000">SimpleDualPortRam</text>
</a>
</g>
</g>
<!-- Node18&#45;&gt;Node11 -->
<g id="edge19" class="edge">
<title>Node18&#45;&gt;Node11</title>
<path fill="none" stroke="#191970" d="M222.0405,-184.0103C241.4689,-178.5617 263.8739,-172.2784 281.6457,-167.2945"/>
<polygon fill="#191970" stroke="#191970" points="220.8758,-180.7018 212.1924,-186.7721 222.766,-187.4418 220.8758,-180.7018"/>
</g>
<!-- Node18&#45;&gt;Node19 -->
<g id="edge24" class="edge">
<title>Node18&#45;&gt;Node19</title>
<path fill="none" stroke="#191970" d="M245.8681,-196.3611C259.6597,-196.3611 273.4448,-196.3611 284.9373,-196.3611"/>
<polygon fill="#191970" stroke="#191970" points="245.8573,-192.8612 235.8572,-196.3611 245.8572,-199.8612 245.8573,-192.8612"/>
</g>
<!-- Node19&#45;&gt;Node7 -->
<g id="edge21" class="edge">
<title>Node19&#45;&gt;Node7</title>
<path fill="none" stroke="#191970" d="M351.9596,-202.1149C373.0688,-205.273 398.574,-209.0887 416.7775,-211.8121"/>
<polygon fill="#191970" stroke="#191970" points="352.4091,-198.6433 342.0013,-200.6251 351.3733,-205.5663 352.4091,-198.6433"/>
</g>
<!-- Node20&#45;&gt;Node1 -->
<g id="edge28" class="edge">
<title>Node20&#45;&gt;Node1</title>
<path fill="none" stroke="#191970" d="M645.6838,-71.8962C702.4675,-80.0851 785.3887,-92.0434 825.9084,-97.8868"/>
<polygon fill="#191970" stroke="#191970" points="646.1504,-68.4273 635.7532,-70.4641 645.1512,-75.3557 646.1504,-68.4273"/>
</g>
<!-- Node21&#45;&gt;Node0 -->
<g id="edge30" class="edge">
<title>Node21&#45;&gt;Node0</title>
<path fill="none" stroke="#191970" d="M780.2011,-165.245C819.9489,-154.7072 876.7661,-139.6441 913.3964,-129.9328"/>
<polygon fill="#191970" stroke="#191970" points="779.2553,-161.8748 770.4862,-167.8206 781.0492,-168.641 779.2553,-161.8748"/>
</g>
</g>
</svg>
        <g id="navigator" transform="translate(0 0)" fill="#404254">
                <rect fill="#f2f5e9" fill-opacity="0.5" stroke="#606060" stroke-width=".5" x="0" y="0" width="60" height="60"/>
                <use id="zoomplus" xlink:href="#zoomPlus" x="17" y="9" onmousedown="handleZoom(evt,'in')"/>
                <use id="zoomminus" xlink:href="#zoomMin" x="42" y="9" onmousedown="handleZoom(evt,'out')"/>
                <use id="reset" xlink:href="#resetDef" x="30" y="36" onmousedown="handleReset()"/>
                <g id="arrowUp" xlink:href="#dirArrow" transform="translate(30 24)" onmousedown="handlePan(0,-1)">
                  <use xlink:href="#rim" fill="#404040">
                        <set attributeName="fill" to="#808080" begin="arrowUp.mouseover" end="arrowUp.mouseout"/>
                  </use>
                  <path fill="none" stroke="white" stroke-width="1.5" d="M0,-3.0v7 M-2.5,-0.5L0,-3.0L2.5,-0.5"/>
                </g>
                <g id="arrowRight" xlink:href="#dirArrow" transform="rotate(90) translate(36 -43)" onmousedown="handlePan(1,0)">
                  <use xlink:href="#rim" fill="#404040">
                        <set attributeName="fill" to="#808080" begin="arrowRight.mouseover" end="arrowRight.mouseout"/>
                  </use>
                  <path fill="none" stroke="white" stroke-width="1.5" d="M0,-3.0v7 M-2.5,-0.5L0,-3.0L2.5,-0.5"/>
                </g>
                <g id="arrowDown" xlink:href="#dirArrow" transform="rotate(180) translate(-30 -48)" onmousedown="handlePan(0,1)">
                  <use xlink:href="#rim" fill="#404040">
                        <set attributeName="fill" to="#808080" begin="arrowDown.mouseover" end="arrowDown.mouseout"/>
                  </use>
                  <path fill="none" stroke="white" stroke-width="1.5" d="M0,-3.0v7 M-2.5,-0.5L0,-3.0L2.5,-0.5"/>
                </g>
                <g id="arrowLeft" xlink:href="#dirArrow" transform="rotate(270) translate(-36 17)" onmousedown="handlePan(-1,0)">
                  <use xlink:href="#rim" fill="#404040">
                        <set attributeName="fill" to="#808080" begin="arrowLeft.mouseover" end="arrowLeft.mouseout"/>
                  </use>
                  <path fill="none" stroke="white" stroke-width="1.5" d="M0,-3.0v7 M-2.5,-0.5L0,-3.0L2.5,-0.5"/>
                </g>
        </g>
        <svg viewBox="0 0 15 15" width="100%" height="30px" preserveAspectRatio="xMaxYMin meet">
         <g id="arrow_out" transform="scale(0.3 0.3)">
          <a xlink:href="classSrpV0AxiLite__inherit__graph_org.svg" target="_base">
           <rect id="button" ry="5" rx="5" y="6" x="6" height="38" width="38"
                fill="#f2f5e9" fill-opacity="0.5" stroke="#606060" stroke-width="1.0"/>
           <path id="arrow"
             d="M 11.500037,31.436501 C 11.940474,20.09759 22.043105,11.32322 32.158766,21.979434 L 37.068811,17.246167 C 37.068811,17.246167 37.088388,32 37.088388,32 L 22.160133,31.978069 C 22.160133,31.978069 26.997745,27.140456 26.997745,27.140456 C 18.528582,18.264221 13.291696,25.230495 11.500037,31.436501 z"
             style="fill:#404040;"/>
          </a>
         </g>
        </svg>
</svg>
