<?xml version="1.0" encoding="UTF-8" standalone="no"?>
<!DOCTYPE svg PUBLIC "-//W3C//DTD SVG 1.1//EN"
 "http://www.w3.org/Graphics/SVG/1.1/DTD/svg11.dtd">
<!-- Generated by graphviz version 2.43.0 (0)
 -->
<!-- Title: SrpV0AxiLite Pages: 1 -->
<svg width="1160pt" height="478pt"
 viewBox="0.00 0.00 1160.00 477.81" xmlns="http://www.w3.org/2000/svg" xmlns:xlink="http://www.w3.org/1999/xlink">
<g id="graph0" class="graph" transform="scale(1 1) rotate(0) translate(4 473.81)">
<title>SrpV0AxiLite</title>
<polygon fill="white" stroke="transparent" points="-4,4 -4,-473.81 1156,-473.81 1156,4 -4,4"/>
<!-- Node1 -->
<g id="node1" class="node">
<title>Node1</title>
<g id="a_node1"><a xlink:title=" ">
<polygon fill="#bfbfbf" stroke="black" points="946,-298.31 946,-317.31 1025,-317.31 1025,-298.31 946,-298.31"/>
<text text-anchor="middle" x="985.5" y="-305.31" font-family="Helvetica,sans-Serif" font-size="10.00">SrpV0AxiLite</text>
</a>
</g>
</g>
<!-- Node24 -->
<g id="node24" class="node">
<title>Node24</title>
<g id="a_node24"><a xlink:href="classAxiLiteSrpV0Tb.html" target="_top" xlink:title=" ">
<polygon fill="white" stroke="black" points="1061,-298.31 1061,-317.31 1152,-317.31 1152,-298.31 1061,-298.31"/>
<text text-anchor="middle" x="1106.5" y="-305.31" font-family="Helvetica,sans-Serif" font-size="10.00">AxiLiteSrpV0Tb</text>
</a>
</g>
</g>
<!-- Node1&#45;&gt;Node24 -->
<g id="edge37" class="edge">
<title>Node1&#45;&gt;Node24</title>
<path fill="none" stroke="midnightblue" d="M1035.27,-307.81C1043.74,-307.81 1052.5,-307.81 1060.86,-307.81"/>
<polygon fill="midnightblue" stroke="midnightblue" points="1035.14,-304.31 1025.14,-307.81 1035.14,-311.31 1035.14,-304.31"/>
</g>
<!-- Node2 -->
<g id="node2" class="node">
<title>Node2</title>
<g id="a_node2"><a xlink:href="classSsiFifo.html" target="_top" xlink:title=" ">
<polygon fill="white" stroke="black" points="861,-326.31 861,-345.31 910,-345.31 910,-326.31 861,-326.31"/>
<text text-anchor="middle" x="885.5" y="-333.31" font-family="Helvetica,sans-Serif" font-size="10.00">SsiFifo</text>
</a>
</g>
</g>
<!-- Node2&#45;&gt;Node1 -->
<g id="edge1" class="edge">
<title>Node2&#45;&gt;Node1</title>
<path fill="none" stroke="midnightblue" d="M919.87,-326.28C929.92,-323.41 940.94,-320.26 951,-317.38"/>
<polygon fill="midnightblue" stroke="midnightblue" points="918.88,-322.92 910.22,-329.03 920.8,-329.65 918.88,-322.92"/>
</g>
<!-- Node3 -->
<g id="node3" class="node">
<title>Node3</title>
<g id="a_node3"><a xlink:href="classSsiIbFrameFilter.html" target="_top" xlink:title=" ">
<polygon fill="white" stroke="black" points="721.5,-298.31 721.5,-317.31 816.5,-317.31 816.5,-298.31 721.5,-298.31"/>
<text text-anchor="middle" x="769" y="-305.31" font-family="Helvetica,sans-Serif" font-size="10.00">SsiIbFrameFilter</text>
</a>
</g>
</g>
<!-- Node3&#45;&gt;Node2 -->
<g id="edge2" class="edge">
<title>Node3&#45;&gt;Node2</title>
<path fill="none" stroke="midnightblue" d="M818.99,-319.79C833.53,-323.35 848.8,-327.08 860.93,-330.05"/>
<polygon fill="midnightblue" stroke="midnightblue" points="819.63,-316.35 809.08,-317.37 817.97,-323.14 819.63,-316.35"/>
</g>
<!-- Node4 -->
<g id="node4" class="node">
<title>Node4</title>
<g id="a_node4"><a xlink:href="classAxiStreamFifoV2.html" target="_top" xlink:title=" ">
<polygon fill="white" stroke="black" points="713,-336.31 713,-355.31 825,-355.31 825,-336.31 713,-336.31"/>
<text text-anchor="middle" x="769" y="-343.31" font-family="Helvetica,sans-Serif" font-size="10.00">AxiStreamFifoV2(2)</text>
</a>
</g>
</g>
<!-- Node4&#45;&gt;Node2 -->
<g id="edge3" class="edge">
<title>Node4&#45;&gt;Node2</title>
<path fill="none" stroke="midnightblue" d="M835.25,-340.11C844.41,-339.31 853.29,-338.54 860.94,-337.87"/>
<polygon fill="midnightblue" stroke="midnightblue" points="834.9,-336.63 825.24,-340.99 835.5,-343.6 834.9,-336.63"/>
</g>
<!-- Node5 -->
<g id="node5" class="node">
<title>Node5</title>
<g id="a_node5"><a xlink:href="classAxiStreamGearbox.html" target="_top" xlink:title=" ">
<polygon fill="white" stroke="black" points="555,-298.31 555,-317.31 677,-317.31 677,-298.31 555,-298.31"/>
<text text-anchor="middle" x="616" y="-305.31" font-family="Helvetica,sans-Serif" font-size="10.00">AxiStreamGearbox(2)</text>
</a>
</g>
</g>
<!-- Node5&#45;&gt;Node4 -->
<g id="edge4" class="edge">
<title>Node5&#45;&gt;Node4</title>
<path fill="none" stroke="midnightblue" d="M664.84,-319.85C685.94,-325.16 710.38,-331.31 730.17,-336.29"/>
<polygon fill="midnightblue" stroke="midnightblue" points="665.66,-316.45 655.1,-317.4 663.95,-323.24 665.66,-316.45"/>
</g>
<!-- Node23 -->
<g id="node23" class="node">
<title>Node23</title>
<g id="a_node23"><a xlink:href="classAxiStreamFifoV2.html" target="_top" xlink:title=" ">
<polygon fill="white" stroke="black" points="720,-260.31 720,-279.31 818,-279.31 818,-260.31 720,-260.31"/>
<text text-anchor="middle" x="769" y="-267.31" font-family="Helvetica,sans-Serif" font-size="10.00">AxiStreamFifoV2</text>
</a>
</g>
</g>
<!-- Node5&#45;&gt;Node23 -->
<g id="edge33" class="edge">
<title>Node5&#45;&gt;Node23</title>
<path fill="none" stroke="midnightblue" d="M664.84,-295.77C685.94,-290.46 710.38,-284.31 730.17,-279.33"/>
<polygon fill="midnightblue" stroke="midnightblue" points="663.95,-292.39 655.1,-298.22 665.66,-299.18 663.95,-292.39"/>
</g>
<!-- Node6 -->
<g id="node6" class="node">
<title>Node6</title>
<g id="a_node6"><a xlink:href="classAxiStreamResize.html" target="_top" xlink:title=" ">
<polygon fill="white" stroke="black" points="419,-260.31 419,-279.31 519,-279.31 519,-260.31 419,-260.31"/>
<text text-anchor="middle" x="469" y="-267.31" font-family="Helvetica,sans-Serif" font-size="10.00">AxiStreamResize</text>
</a>
</g>
</g>
<!-- Node6&#45;&gt;Node5 -->
<g id="edge5" class="edge">
<title>Node6&#45;&gt;Node5</title>
<path fill="none" stroke="midnightblue" d="M516.49,-282C536.62,-287.27 559.84,-293.36 578.67,-298.29"/>
<polygon fill="midnightblue" stroke="midnightblue" points="517.15,-278.55 506.59,-279.4 515.38,-285.32 517.15,-278.55"/>
</g>
<!-- Node7 -->
<g id="node7" class="node">
<title>Node7</title>
<g id="a_node7"><a xlink:href="classAxiStreamPipeline.html" target="_top" xlink:title=" ">
<polygon fill="white" stroke="black" points="276,-298.31 276,-317.31 383,-317.31 383,-298.31 276,-298.31"/>
<text text-anchor="middle" x="329.5" y="-305.31" font-family="Helvetica,sans-Serif" font-size="10.00">AxiStreamPipeline</text>
</a>
</g>
</g>
<!-- Node7&#45;&gt;Node4 -->
<g id="edge29" class="edge">
<title>Node7&#45;&gt;Node4</title>
<path fill="none" stroke="midnightblue" d="M393.3,-318.45C401.92,-319.7 410.67,-320.87 419,-321.81 522.5,-333.53 643.95,-340.32 712.86,-343.52"/>
<polygon fill="midnightblue" stroke="midnightblue" points="393.69,-314.96 383.28,-316.94 392.65,-321.89 393.69,-314.96"/>
</g>
<!-- Node7&#45;&gt;Node5 -->
<g id="edge7" class="edge">
<title>Node7&#45;&gt;Node5</title>
<path fill="none" stroke="midnightblue" d="M393.31,-307.81C441.45,-307.81 507.46,-307.81 554.91,-307.81"/>
<polygon fill="midnightblue" stroke="midnightblue" points="393.01,-304.31 383.01,-307.81 393.01,-311.31 393.01,-304.31"/>
</g>
<!-- Node7&#45;&gt;Node6 -->
<g id="edge6" class="edge">
<title>Node7&#45;&gt;Node6</title>
<path fill="none" stroke="midnightblue" d="M375.07,-295.49C393.96,-290.27 415.65,-284.28 433.31,-279.4"/>
<polygon fill="midnightblue" stroke="midnightblue" points="373.9,-292.19 365.2,-298.22 375.77,-298.93 373.9,-292.19"/>
</g>
<!-- Node22 -->
<g id="node22" class="node">
<title>Node22</title>
<g id="a_node22"><a xlink:href="classSsiObFrameFilter.html" target="_top" xlink:title=" ">
<polygon fill="white" stroke="black" points="566,-450.31 566,-469.31 666,-469.31 666,-450.31 566,-450.31"/>
<text text-anchor="middle" x="616" y="-457.31" font-family="Helvetica,sans-Serif" font-size="10.00">SsiObFrameFilter</text>
</a>
</g>
</g>
<!-- Node7&#45;&gt;Node22 -->
<g id="edge31" class="edge">
<title>Node7&#45;&gt;Node22</title>
<path fill="none" stroke="midnightblue" d="M355.37,-322.96C372.98,-333.55 397.25,-347.88 419,-359.81 482.64,-394.7 559.78,-432.89 595.33,-450.26"/>
<polygon fill="midnightblue" stroke="midnightblue" points="356.69,-319.67 346.32,-317.49 353.07,-325.66 356.69,-319.67"/>
</g>
<!-- Node7&#45;&gt;Node23 -->
<g id="edge36" class="edge">
<title>Node7&#45;&gt;Node23</title>
<path fill="none" stroke="midnightblue" d="M373.55,-294.15C376.84,-292.53 380.03,-290.76 383,-288.81 402.46,-276.07 397.63,-260 419,-250.81 529.93,-203.1 679.29,-241.05 740.3,-260.31"/>
<polygon fill="midnightblue" stroke="midnightblue" points="371.86,-291.07 364.11,-298.29 374.67,-297.48 371.86,-291.07"/>
</g>
<!-- Node8 -->
<g id="node8" class="node">
<title>Node8</title>
<g id="a_node8"><a xlink:href="classFifoCascade.html" target="_top" xlink:title=" ">
<polygon fill="white" stroke="black" points="571.5,-260.31 571.5,-279.31 660.5,-279.31 660.5,-260.31 571.5,-260.31"/>
<text text-anchor="middle" x="616" y="-267.31" font-family="Helvetica,sans-Serif" font-size="10.00">FifoCascade(2)</text>
</a>
</g>
</g>
<!-- Node8&#45;&gt;Node4 -->
<g id="edge8" class="edge">
<title>Node8&#45;&gt;Node4</title>
<path fill="none" stroke="midnightblue" d="M666.36,-283.15C670.07,-284.84 673.66,-286.72 677,-288.81 696.72,-301.16 693.45,-314.21 713,-326.81 718.86,-330.59 725.56,-333.71 732.21,-336.25"/>
<polygon fill="midnightblue" stroke="midnightblue" points="667.57,-279.87 656.99,-279.35 664.94,-286.35 667.57,-279.87"/>
</g>
<!-- Node8&#45;&gt;Node23 -->
<g id="edge34" class="edge">
<title>Node8&#45;&gt;Node23</title>
<path fill="none" stroke="midnightblue" d="M670.95,-269.81C686.94,-269.81 704.33,-269.81 719.93,-269.81"/>
<polygon fill="midnightblue" stroke="midnightblue" points="670.68,-266.31 660.68,-269.81 670.68,-273.31 670.68,-266.31"/>
</g>
<!-- Node9 -->
<g id="node9" class="node">
<title>Node9</title>
<g id="a_node9"><a xlink:href="classFifo.html" target="_top" xlink:title=" ">
<polygon fill="white" stroke="black" points="445,-184.31 445,-203.31 493,-203.31 493,-184.31 445,-184.31"/>
<text text-anchor="middle" x="469" y="-191.31" font-family="Helvetica,sans-Serif" font-size="10.00">Fifo(4)</text>
</a>
</g>
</g>
<!-- Node9&#45;&gt;Node8 -->
<g id="edge9" class="edge">
<title>Node9&#45;&gt;Node8</title>
<path fill="none" stroke="midnightblue" d="M497.58,-208.27C526.71,-223.53 571.81,-247.17 596.78,-260.26"/>
<polygon fill="midnightblue" stroke="midnightblue" points="498.85,-204.98 488.36,-203.44 495.6,-211.18 498.85,-204.98"/>
</g>
<!-- Node10 -->
<g id="node10" class="node">
<title>Node10</title>
<g id="a_node10"><a xlink:href="classFifoXpm.html" target="_top" xlink:title=" ">
<polygon fill="white" stroke="black" points="301,-260.31 301,-279.31 358,-279.31 358,-260.31 301,-260.31"/>
<text text-anchor="middle" x="329.5" y="-267.31" font-family="Helvetica,sans-Serif" font-size="10.00">FifoXpm</text>
</a>
</g>
</g>
<!-- Node10&#45;&gt;Node9 -->
<g id="edge10" class="edge">
<title>Node10&#45;&gt;Node9</title>
<path fill="none" stroke="midnightblue" d="M367.65,-258.46C372.96,-256.25 378.23,-253.7 383,-250.81 401.57,-239.57 401.07,-230.04 419,-217.81 426.98,-212.37 436.38,-207.45 444.8,-203.51"/>
<polygon fill="midnightblue" stroke="midnightblue" points="366.23,-255.26 358.14,-262.1 368.73,-261.8 366.23,-255.26"/>
</g>
<!-- Node11 -->
<g id="node11" class="node">
<title>Node11</title>
<g id="a_node11"><a xlink:href="classFifoOutputPipeline.html" target="_top" xlink:title=" ">
<polygon fill="white" stroke="black" points="124.5,-260.31 124.5,-279.31 231.5,-279.31 231.5,-260.31 124.5,-260.31"/>
<text text-anchor="middle" x="178" y="-267.31" font-family="Helvetica,sans-Serif" font-size="10.00">FifoOutputPipeline</text>
</a>
</g>
</g>
<!-- Node11&#45;&gt;Node10 -->
<g id="edge11" class="edge">
<title>Node11&#45;&gt;Node10</title>
<path fill="none" stroke="midnightblue" d="M241.73,-269.81C262.4,-269.81 284.33,-269.81 300.97,-269.81"/>
<polygon fill="midnightblue" stroke="midnightblue" points="241.71,-266.31 231.71,-269.81 241.71,-273.31 241.71,-266.31"/>
</g>
<!-- Node12 -->
<g id="node12" class="node">
<title>Node12</title>
<g id="a_node12"><a xlink:href="classFifoAlteraMf.html" target="_top" xlink:title=" ">
<polygon fill="white" stroke="black" points="291,-222.31 291,-241.31 368,-241.31 368,-222.31 291,-222.31"/>
<text text-anchor="middle" x="329.5" y="-229.31" font-family="Helvetica,sans-Serif" font-size="10.00">FifoAlteraMf</text>
</a>
</g>
</g>
<!-- Node11&#45;&gt;Node12 -->
<g id="edge13" class="edge">
<title>Node11&#45;&gt;Node12</title>
<path fill="none" stroke="midnightblue" d="M226.65,-257.7C247.47,-252.41 271.54,-246.29 291.05,-241.33"/>
<polygon fill="midnightblue" stroke="midnightblue" points="225.55,-254.37 216.73,-260.22 227.28,-261.15 225.55,-254.37"/>
</g>
<!-- Node13 -->
<g id="node13" class="node">
<title>Node13</title>
<g id="a_node13"><a xlink:href="classFifoAsync.html" target="_top" xlink:title=" ">
<polygon fill="white" stroke="black" points="297.5,-146.31 297.5,-165.31 361.5,-165.31 361.5,-146.31 297.5,-146.31"/>
<text text-anchor="middle" x="329.5" y="-153.31" font-family="Helvetica,sans-Serif" font-size="10.00">FifoAsync</text>
</a>
</g>
</g>
<!-- Node11&#45;&gt;Node13 -->
<g id="edge22" class="edge">
<title>Node11&#45;&gt;Node13</title>
<path fill="none" stroke="midnightblue" d="M233.77,-255.44C235.97,-254.04 238.06,-252.5 240,-250.81 268.22,-226.3 248.34,-199.95 276,-174.81 282.02,-169.33 289.75,-165.41 297.41,-162.6"/>
<polygon fill="midnightblue" stroke="midnightblue" points="232.04,-252.39 224.87,-260.19 235.34,-258.57 232.04,-252.39"/>
</g>
<!-- Node21 -->
<g id="node21" class="node">
<title>Node21</title>
<g id="a_node21"><a xlink:href="classFifoSync.html" target="_top" xlink:title=" ">
<polygon fill="white" stroke="black" points="300.5,-184.31 300.5,-203.31 358.5,-203.31 358.5,-184.31 300.5,-184.31"/>
<text text-anchor="middle" x="329.5" y="-191.31" font-family="Helvetica,sans-Serif" font-size="10.00">FifoSync</text>
</a>
</g>
</g>
<!-- Node11&#45;&gt;Node21 -->
<g id="edge27" class="edge">
<title>Node11&#45;&gt;Node21</title>
<path fill="none" stroke="midnightblue" d="M229.35,-256.45C233.06,-254.77 236.65,-252.9 240,-250.81 259.75,-238.51 256.54,-225.56 276,-212.81 283.38,-207.98 292.15,-204.18 300.38,-201.29"/>
<polygon fill="midnightblue" stroke="midnightblue" points="227.94,-253.24 219.98,-260.23 230.56,-259.73 227.94,-253.24"/>
</g>
<!-- Node12&#45;&gt;Node9 -->
<g id="edge12" class="edge">
<title>Node12&#45;&gt;Node9</title>
<path fill="none" stroke="midnightblue" d="M374.9,-219.54C398.25,-213.09 425.91,-205.44 444.98,-200.17"/>
<polygon fill="midnightblue" stroke="midnightblue" points="373.9,-216.19 365.2,-222.22 375.77,-222.93 373.9,-216.19"/>
</g>
<!-- Node13&#45;&gt;Node9 -->
<g id="edge14" class="edge">
<title>Node13&#45;&gt;Node9</title>
<path fill="none" stroke="midnightblue" d="M371.56,-167.16C395.43,-173.76 424.66,-181.83 444.63,-187.35"/>
<polygon fill="midnightblue" stroke="midnightblue" points="372.27,-163.72 361.7,-164.43 370.41,-170.47 372.27,-163.72"/>
</g>
<!-- Node14 -->
<g id="node14" class="node">
<title>Node14</title>
<g id="a_node14"><a xlink:href="classRstSync.html" target="_top" xlink:title=" ">
<polygon fill="white" stroke="black" points="143.5,-70.31 143.5,-89.31 212.5,-89.31 212.5,-70.31 143.5,-70.31"/>
<text text-anchor="middle" x="178" y="-77.31" font-family="Helvetica,sans-Serif" font-size="10.00">RstSync(2)</text>
</a>
</g>
</g>
<!-- Node14&#45;&gt;Node13 -->
<g id="edge15" class="edge">
<title>Node14&#45;&gt;Node13</title>
<path fill="none" stroke="midnightblue" d="M222.07,-91.62C228.19,-93.76 234.33,-96.16 240,-98.81 268.81,-112.27 299.34,-133.77 315.94,-146.16"/>
<polygon fill="midnightblue" stroke="midnightblue" points="223.13,-88.28 212.54,-88.48 220.94,-94.93 223.13,-88.28"/>
</g>
<!-- Node15 -->
<g id="node15" class="node">
<title>Node15</title>
<g id="a_node15"><a xlink:href="classSynchronizer.html" target="_top" xlink:title=" ">
<polygon fill="white" stroke="black" points="0,-70.31 0,-89.31 80,-89.31 80,-70.31 0,-70.31"/>
<text text-anchor="middle" x="40" y="-77.31" font-family="Helvetica,sans-Serif" font-size="10.00">Synchronizer</text>
</a>
</g>
</g>
<!-- Node15&#45;&gt;Node4 -->
<g id="edge28" class="edge">
<title>Node15&#45;&gt;Node4</title>
<path fill="none" stroke="midnightblue" d="M43.7,-99.67C49.97,-139.47 68.8,-230.21 116,-288.81 185.89,-375.58 217.08,-421.81 328.5,-421.81 328.5,-421.81 328.5,-421.81 470,-421.81 523.13,-421.81 673.73,-375.89 738.16,-355.44"/>
<polygon fill="midnightblue" stroke="midnightblue" points="47.14,-99.04 42.22,-89.65 40.22,-100.06 47.14,-99.04"/>
</g>
<!-- Node15&#45;&gt;Node14 -->
<g id="edge16" class="edge">
<title>Node15&#45;&gt;Node14</title>
<path fill="none" stroke="midnightblue" d="M90.43,-79.81C107.99,-79.81 127.34,-79.81 143.28,-79.81"/>
<polygon fill="midnightblue" stroke="midnightblue" points="90.34,-76.31 80.34,-79.81 90.34,-83.31 90.34,-76.31"/>
</g>
<!-- Node15&#45;&gt;Node23 -->
<g id="edge35" class="edge">
<title>Node15&#45;&gt;Node23</title>
<path fill="none" stroke="midnightblue" d="M57.5,-62.82C71.66,-49.43 93.31,-31.6 116,-22.81 204.42,11.43 233.68,-3.81 328.5,-3.81 328.5,-3.81 328.5,-3.81 470,-3.81 627.08,-3.81 739.48,-212.04 763.3,-260.03"/>
<polygon fill="midnightblue" stroke="midnightblue" points="54.78,-60.59 50.08,-70.09 59.68,-65.59 54.78,-60.59"/>
</g>
<!-- Node16 -->
<g id="node16" class="node">
<title>Node16</title>
<g id="a_node16"><a xlink:href="classSynchronizerVector.html" target="_top" xlink:title=" ">
<polygon fill="white" stroke="black" points="116,-32.31 116,-51.31 240,-51.31 240,-32.31 116,-32.31"/>
<text text-anchor="middle" x="178" y="-39.31" font-family="Helvetica,sans-Serif" font-size="10.00">SynchronizerVector(2)</text>
</a>
</g>
</g>
<!-- Node16&#45;&gt;Node13 -->
<g id="edge17" class="edge">
<title>Node16&#45;&gt;Node13</title>
<path fill="none" stroke="midnightblue" d="M229.37,-55.14C233.08,-56.83 236.66,-58.71 240,-60.81 277.21,-84.21 309.08,-127.08 322.16,-146.19"/>
<polygon fill="midnightblue" stroke="midnightblue" points="230.59,-51.86 220.01,-51.35 227.96,-58.35 230.59,-51.86"/>
</g>
<!-- Node17 -->
<g id="node17" class="node">
<title>Node17</title>
<g id="a_node17"><a xlink:href="classSynchronizer.html" target="_top" xlink:title=" ">
<polygon fill="white" stroke="black" points="131.5,-108.31 131.5,-127.31 224.5,-127.31 224.5,-108.31 131.5,-108.31"/>
<text text-anchor="middle" x="178" y="-115.31" font-family="Helvetica,sans-Serif" font-size="10.00">Synchronizer(2)</text>
</a>
</g>
</g>
<!-- Node17&#45;&gt;Node13 -->
<g id="edge18" class="edge">
<title>Node17&#45;&gt;Node13</title>
<path fill="none" stroke="midnightblue" d="M226.69,-129.93C249.81,-135.81 276.91,-142.7 297.34,-147.89"/>
<polygon fill="midnightblue" stroke="midnightblue" points="227.28,-126.47 216.73,-127.4 225.55,-133.26 227.28,-126.47"/>
</g>
<!-- Node18 -->
<g id="node18" class="node">
<title>Node18</title>
<g id="a_node18"><a xlink:href="classFifoWrFsm.html" target="_top" xlink:title=" ">
<polygon fill="white" stroke="black" points="143.5,-222.31 143.5,-241.31 212.5,-241.31 212.5,-222.31 143.5,-222.31"/>
<text text-anchor="middle" x="178" y="-229.31" font-family="Helvetica,sans-Serif" font-size="10.00">FifoWrFsm</text>
</a>
</g>
</g>
<!-- Node18&#45;&gt;Node13 -->
<g id="edge19" class="edge">
<title>Node18&#45;&gt;Node13</title>
<path fill="none" stroke="midnightblue" d="M222.31,-221.37C228.48,-219.02 234.56,-216.2 240,-212.81 259.75,-200.51 256.54,-187.56 276,-174.81 282.49,-170.56 290.05,-167.11 297.37,-164.38"/>
<polygon fill="midnightblue" stroke="midnightblue" points="220.96,-218.13 212.63,-224.67 223.22,-224.76 220.96,-218.13"/>
</g>
<!-- Node18&#45;&gt;Node21 -->
<g id="edge24" class="edge">
<title>Node18&#45;&gt;Node21</title>
<path fill="none" stroke="midnightblue" d="M222.52,-220.75C247.51,-214.4 278.18,-206.6 300.09,-201.03"/>
<polygon fill="midnightblue" stroke="midnightblue" points="221.38,-217.43 212.55,-223.28 223.1,-224.21 221.38,-217.43"/>
</g>
<!-- Node19 -->
<g id="node19" class="node">
<title>Node19</title>
<g id="a_node19"><a xlink:href="classFifoRdFsm.html" target="_top" xlink:title=" ">
<polygon fill="white" stroke="black" points="144,-184.31 144,-203.31 212,-203.31 212,-184.31 144,-184.31"/>
<text text-anchor="middle" x="178" y="-191.31" font-family="Helvetica,sans-Serif" font-size="10.00">FifoRdFsm</text>
</a>
</g>
</g>
<!-- Node19&#45;&gt;Node13 -->
<g id="edge20" class="edge">
<title>Node19&#45;&gt;Node13</title>
<path fill="none" stroke="midnightblue" d="M222.13,-182.85C246.21,-176.73 275.66,-169.24 297.46,-163.7"/>
<polygon fill="midnightblue" stroke="midnightblue" points="221.01,-179.52 212.18,-185.38 222.73,-186.31 221.01,-179.52"/>
</g>
<!-- Node19&#45;&gt;Node21 -->
<g id="edge25" class="edge">
<title>Node19&#45;&gt;Node21</title>
<path fill="none" stroke="midnightblue" d="M222.21,-193.81C247.39,-193.81 278.42,-193.81 300.44,-193.81"/>
<polygon fill="midnightblue" stroke="midnightblue" points="222.18,-190.31 212.18,-193.81 222.18,-197.31 222.18,-190.31"/>
</g>
<!-- Node20 -->
<g id="node20" class="node">
<title>Node20</title>
<g id="a_node20"><a xlink:href="classSimpleDualPortRam.html" target="_top" xlink:title=" ">
<polygon fill="white" stroke="black" points="120.5,-146.31 120.5,-165.31 235.5,-165.31 235.5,-146.31 120.5,-146.31"/>
<text text-anchor="middle" x="178" y="-153.31" font-family="Helvetica,sans-Serif" font-size="10.00">SimpleDualPortRam</text>
</a>
</g>
</g>
<!-- Node20&#45;&gt;Node13 -->
<g id="edge21" class="edge">
<title>Node20&#45;&gt;Node13</title>
<path fill="none" stroke="midnightblue" d="M245.74,-155.81C263.77,-155.81 282.44,-155.81 297.46,-155.81"/>
<polygon fill="midnightblue" stroke="midnightblue" points="245.52,-152.31 235.52,-155.81 245.52,-159.31 245.52,-152.31"/>
</g>
<!-- Node20&#45;&gt;Node21 -->
<g id="edge26" class="edge">
<title>Node20&#45;&gt;Node21</title>
<path fill="none" stroke="midnightblue" d="M226.47,-167.88C250.74,-174.05 279.45,-181.34 300.23,-186.63"/>
<polygon fill="midnightblue" stroke="midnightblue" points="227.28,-164.47 216.73,-165.4 225.55,-171.26 227.28,-164.47"/>
</g>
<!-- Node21&#45;&gt;Node9 -->
<g id="edge23" class="edge">
<title>Node21&#45;&gt;Node9</title>
<path fill="none" stroke="midnightblue" d="M368.7,-193.81C393.16,-193.81 424.11,-193.81 444.9,-193.81"/>
<polygon fill="midnightblue" stroke="midnightblue" points="368.66,-190.31 358.66,-193.81 368.66,-197.31 368.66,-190.31"/>
</g>
<!-- Node22&#45;&gt;Node2 -->
<g id="edge30" class="edge">
<title>Node22&#45;&gt;Node2</title>
<path fill="none" stroke="midnightblue" d="M651.5,-446.47C659.89,-443.1 668.81,-439.41 677,-435.81 747.66,-404.77 829.72,-363.7 865.82,-345.36"/>
<polygon fill="midnightblue" stroke="midnightblue" points="649.97,-443.31 641.97,-450.26 652.55,-449.82 649.97,-443.31"/>
</g>
<!-- Node23&#45;&gt;Node1 -->
<g id="edge32" class="edge">
<title>Node23&#45;&gt;Node1</title>
<path fill="none" stroke="midnightblue" d="M828.38,-280.15C865.72,-286.77 913.1,-295.16 945.82,-300.96"/>
<polygon fill="midnightblue" stroke="midnightblue" points="828.6,-276.64 818.14,-278.34 827.37,-283.53 828.6,-276.64"/>
</g>
</g>
</svg>
