<?xml version="1.0" encoding="UTF-8" standalone="no"?>
<!DOCTYPE svg PUBLIC "-//W3C//DTD SVG 1.1//EN"
 "http://www.w3.org/Graphics/SVG/1.1/DTD/svg11.dtd">
<!-- Generated by graphviz version 2.40.1 (20161225.0304)
 -->
<!-- Title: Graphical Class Hierarchy Pages: 1 -->
<svg width="866pt" height="123pt"
 viewBox="0.00 0.00 866.00 123.00" xmlns="http://www.w3.org/2000/svg" xmlns:xlink="http://www.w3.org/1999/xlink">
<g id="graph0" class="graph" transform="scale(1 1) rotate(0) translate(4 119)">
<title>Graphical Class Hierarchy</title>
<polygon fill="#ffffff" stroke="transparent" points="-4,4 -4,-119 862,-119 862,4 -4,4"/>
<!-- Node523 -->
<g id="node1" class="node">
<title>Node523</title>
<g id="a_node1"><a xlink:href="classAxiStreamSelector.html" target="_top" xlink:title="AxiStreamSelector">
<polygon fill="#ffffff" stroke="#000000" points="128,-86.5 128,-105.5 235,-105.5 235,-86.5 128,-86.5"/>
<text text-anchor="middle" x="181.5" y="-93.5" font-family="Helvetica,sans-Serif" font-size="10.00" fill="#000000">AxiStreamSelector</text>
</a>
</g>
</g>
<!-- Node2 -->
<g id="node2" class="node">
<title>Node2</title>
<g id="a_node2"><a xlink:href="classAxisToJtag.html" target="_top" xlink:title="AxisToJtag">
<polygon fill="#ffffff" stroke="#000000" points="297,-57.5 297,-76.5 364,-76.5 364,-57.5 297,-57.5"/>
<text text-anchor="middle" x="330.5" y="-64.5" font-family="Helvetica,sans-Serif" font-size="10.00" fill="#000000">AxisToJtag</text>
</a>
</g>
</g>
<!-- Node523&#45;&gt;Node2 -->
<g id="edge1" class="edge">
<title>Node523&#45;&gt;Node2</title>
<path fill="none" stroke="#191970" d="M240.5509,-84.5069C259.6887,-80.7821 280.2492,-76.7804 296.8757,-73.5443"/>
<polygon fill="#191970" stroke="#191970" points="239.8482,-81.0779 230.7011,-86.4239 241.1856,-87.9489 239.8482,-81.0779"/>
</g>
<!-- Node524 -->
<g id="node8" class="node">
<title>Node524</title>
<g id="a_node8"><a xlink:href="classAxiStreamSelectorTb.html" target="_top" xlink:title="AxiStreamSelectorTb">
<polygon fill="#ffffff" stroke="#000000" points="271,-95.5 271,-114.5 390,-114.5 390,-95.5 271,-95.5"/>
<text text-anchor="middle" x="330.5" y="-102.5" font-family="Helvetica,sans-Serif" font-size="10.00" fill="#000000">AxiStreamSelectorTb</text>
</a>
</g>
</g>
<!-- Node523&#45;&gt;Node524 -->
<g id="edge7" class="edge">
<title>Node523&#45;&gt;Node524</title>
<path fill="none" stroke="#191970" d="M245.4921,-99.8653C253.9538,-100.3764 262.6,-100.8987 270.9823,-101.405"/>
<polygon fill="#191970" stroke="#191970" points="245.4853,-96.3586 235.2924,-99.2492 245.0632,-103.3459 245.4853,-96.3586"/>
</g>
<!-- Node3 -->
<g id="node3" class="node">
<title>Node3</title>
<g id="a_node3"><a xlink:href="classAxisJtagDebugBridge.html" target="_top" xlink:title="AxisJtagDebugBridge">
<polygon fill="#ffffff" stroke="#000000" points="426,-76.5 426,-95.5 545,-95.5 545,-76.5 426,-76.5"/>
<text text-anchor="middle" x="485.5" y="-83.5" font-family="Helvetica,sans-Serif" font-size="10.00" fill="#000000">AxisJtagDebugBridge</text>
</a>
</g>
</g>
<!-- Node2&#45;&gt;Node3 -->
<g id="edge2" class="edge">
<title>Node2&#45;&gt;Node3</title>
<path fill="none" stroke="#191970" d="M374.2974,-72.3687C390.3484,-74.3363 408.7947,-76.5974 425.9903,-78.7053"/>
<polygon fill="#191970" stroke="#191970" points="374.4843,-68.8655 364.1327,-71.1227 373.6325,-75.8135 374.4843,-68.8655"/>
</g>
<!-- Node7 -->
<g id="node7" class="node">
<title>Node7</title>
<g id="a_node7"><a xlink:href="classAxisToJtagTb.html" target="_top" xlink:title="AxisToJtagTb">
<polygon fill="#ffffff" stroke="#000000" points="446,-38.5 446,-57.5 525,-57.5 525,-38.5 446,-38.5"/>
<text text-anchor="middle" x="485.5" y="-45.5" font-family="Helvetica,sans-Serif" font-size="10.00" fill="#000000">AxisToJtagTb</text>
</a>
</g>
</g>
<!-- Node2&#45;&gt;Node7 -->
<g id="edge6" class="edge">
<title>Node2&#45;&gt;Node7</title>
<path fill="none" stroke="#191970" d="M374.119,-61.6532C396.6625,-58.8898 423.9682,-55.5426 445.9012,-52.8541"/>
<polygon fill="#191970" stroke="#191970" points="373.6325,-58.1865 364.1327,-62.8773 374.4843,-65.1345 373.6325,-58.1865"/>
</g>
<!-- Node4 -->
<g id="node4" class="node">
<title>Node4</title>
<g id="a_node4"><a xlink:href="classAxisToJtagStubTb.html" target="_top" xlink:title="AxisToJtagStubTb">
<polygon fill="#ffffff" stroke="#000000" points="581,-95.5 581,-114.5 682,-114.5 682,-95.5 581,-95.5"/>
<text text-anchor="middle" x="631.5" y="-102.5" font-family="Helvetica,sans-Serif" font-size="10.00" fill="#000000">AxisToJtagStubTb</text>
</a>
</g>
</g>
<!-- Node3&#45;&gt;Node4 -->
<g id="edge3" class="edge">
<title>Node3&#45;&gt;Node4</title>
<path fill="none" stroke="#191970" d="M555.3562,-95.0909C563.9656,-96.2113 572.6335,-97.3393 580.8796,-98.4124"/>
<polygon fill="#191970" stroke="#191970" points="555.6731,-91.6027 545.305,-93.7828 554.7697,-98.5442 555.6731,-91.6027"/>
</g>
<!-- Node5 -->
<g id="node5" class="node">
<title>Node5</title>
<g id="a_node5"><a xlink:href="classUdpDebugBridge.html" target="_top" xlink:title="UdpDebugBridge">
<polygon fill="#ffffff" stroke="#000000" points="582,-57.5 582,-76.5 681,-76.5 681,-57.5 582,-57.5"/>
<text text-anchor="middle" x="631.5" y="-64.5" font-family="Helvetica,sans-Serif" font-size="10.00" fill="#000000">UdpDebugBridge</text>
</a>
</g>
</g>
<!-- Node3&#45;&gt;Node5 -->
<g id="edge4" class="edge">
<title>Node3&#45;&gt;Node5</title>
<path fill="none" stroke="#191970" d="M555.3375,-76.9116C564.2725,-75.7488 573.2708,-74.5778 581.7957,-73.4684"/>
<polygon fill="#191970" stroke="#191970" points="554.7697,-73.4558 545.305,-78.2172 555.6731,-80.3973 554.7697,-73.4558"/>
</g>
<!-- Node6 -->
<g id="node6" class="node">
<title>Node6</title>
<g id="a_node6"><a xlink:href="classUdpDebugBridgeWrapper.html" target="_top" xlink:title="UdpDebugBridgeWrapper">
<polygon fill="#ffffff" stroke="#000000" points="718,-57.5 718,-76.5 858,-76.5 858,-57.5 718,-57.5"/>
<text text-anchor="middle" x="788" y="-64.5" font-family="Helvetica,sans-Serif" font-size="10.00" fill="#000000">UdpDebugBridgeWrapper</text>
</a>
</g>
</g>
<!-- Node5&#45;&gt;Node6 -->
<g id="edge5" class="edge">
<title>Node5&#45;&gt;Node6</title>
<path fill="none" stroke="#191970" d="M691.1246,-67C699.888,-67 708.9823,-67 717.9323,-67"/>
<polygon fill="#191970" stroke="#191970" points="691.0176,-63.5001 681.0176,-67 691.0175,-70.5001 691.0176,-63.5001"/>
</g>
<!-- Node0 -->
<g id="node9" class="node">
<title>Node0</title>
<g id="a_node9"><a xlink:href="classJtagSerDesCore.html" target="_top" xlink:title="JtagSerDesCore">
<polygon fill="#ffffff" stroke="#000000" points="0,-19.5 0,-38.5 92,-38.5 92,-19.5 0,-19.5"/>
<text text-anchor="middle" x="46" y="-26.5" font-family="Helvetica,sans-Serif" font-size="10.00" fill="#000000">JtagSerDesCore</text>
</a>
</g>
</g>
<!-- Node1 -->
<g id="node10" class="node">
<title>Node1</title>
<g id="a_node10"><a xlink:href="classAxisToJtagCore.html" target="_top" xlink:title="AxisToJtagCore">
<polygon fill="#ffffff" stroke="#000000" points="137,-38.5 137,-57.5 226,-57.5 226,-38.5 137,-38.5"/>
<text text-anchor="middle" x="181.5" y="-45.5" font-family="Helvetica,sans-Serif" font-size="10.00" fill="#000000">AxisToJtagCore</text>
</a>
</g>
</g>
<!-- Node0&#45;&gt;Node1 -->
<g id="edge8" class="edge">
<title>Node0&#45;&gt;Node1</title>
<path fill="none" stroke="#191970" d="M102.237,-36.8856C113.773,-38.5032 125.7677,-40.1851 136.8301,-41.7363"/>
<polygon fill="#191970" stroke="#191970" points="102.6416,-33.4082 92.2524,-35.4856 101.6695,-40.3404 102.6416,-33.4082"/>
</g>
<!-- Node9 -->
<g id="node12" class="node">
<title>Node9</title>
<g id="a_node12"><a xlink:href="classJtagSerDesCoreTb.html" target="_top" xlink:title="JtagSerDesCoreTb">
<polygon fill="#ffffff" stroke="#000000" points="129.5,-.5 129.5,-19.5 233.5,-19.5 233.5,-.5 129.5,-.5"/>
<text text-anchor="middle" x="181.5" y="-7.5" font-family="Helvetica,sans-Serif" font-size="10.00" fill="#000000">JtagSerDesCoreTb</text>
</a>
</g>
</g>
<!-- Node0&#45;&gt;Node9 -->
<g id="edge11" class="edge">
<title>Node0&#45;&gt;Node9</title>
<path fill="none" stroke="#191970" d="M102.2519,-21.1123C111.2445,-19.8513 120.5154,-18.5513 129.4059,-17.3047"/>
<polygon fill="#191970" stroke="#191970" points="101.6695,-17.6596 92.2524,-22.5144 102.6416,-24.5918 101.6695,-17.6596"/>
</g>
<!-- Node1&#45;&gt;Node2 -->
<g id="edge9" class="edge">
<title>Node1&#45;&gt;Node2</title>
<path fill="none" stroke="#191970" d="M236.2606,-54.9829C256.5175,-57.566 278.8728,-60.4167 296.7245,-62.6931"/>
<polygon fill="#191970" stroke="#191970" points="236.5673,-51.4938 226.2049,-53.7006 235.6818,-58.4375 236.5673,-51.4938"/>
</g>
<!-- Node8 -->
<g id="node11" class="node">
<title>Node8</title>
<g id="a_node11"><a xlink:href="classAxisToJtagCoreTb.html" target="_top" xlink:title="AxisToJtagCoreTb">
<polygon fill="#ffffff" stroke="#000000" points="280,-19.5 280,-38.5 381,-38.5 381,-19.5 280,-19.5"/>
<text text-anchor="middle" x="330.5" y="-26.5" font-family="Helvetica,sans-Serif" font-size="10.00" fill="#000000">AxisToJtagCoreTb</text>
</a>
</g>
</g>
<!-- Node1&#45;&gt;Node8 -->
<g id="edge10" class="edge">
<title>Node1&#45;&gt;Node8</title>
<path fill="none" stroke="#191970" d="M236.3468,-41.0061C250.5696,-39.1925 265.8217,-37.2476 279.8199,-35.4626"/>
<polygon fill="#191970" stroke="#191970" points="235.6818,-37.5625 226.2049,-42.2994 236.5673,-44.5062 235.6818,-37.5625"/>
</g>
</g>
</svg>
